<?xml version="1.0" encoding="UTF-8"?>
<!DOCTYPE xmeml>
<xmeml version="4">
	<sequence id="sequence-1" TL.SQAudioVisibleBase="271" TL.SQVideoVisibleBase="0" TL.SQVisibleBaseTime="0" TL.SQAVDividerPosition="0.5" TL.SQHideShyTracks="0" TL.SQHeaderWidth="184" Monitor.ProgramZoomOut="591146035200000" Monitor.ProgramZoomIn="0" TL.SQTimePerPixel="1.802463054187192" AM.TrackVScrollPosition="0" AM.TrackScrollPosition="0" MZ.EditLine="591146035200000" MZ.Sequence.PreviewFrameSizeHeight="1080" MZ.Sequence.PreviewFrameSizeWidth="1920" MZ.Sequence.AudioTimeDisplayFormat="200" MZ.Sequence.PreviewRenderingClassID="1061109567" MZ.Sequence.PreviewRenderingPresetCodec="1634755432" MZ.Sequence.PreviewRenderingPresetPath="EncoderPresets/SequencePreview/795454d9-d3c2-429d-9474-923ab13b7018/QuickTime.epr" MZ.Sequence.PreviewUseMaxRenderQuality="false" MZ.Sequence.PreviewUseMaxBitDepth="false" MZ.Sequence.EditingModeGUID="795454d9-d3c2-429d-9474-923ab13b7018" MZ.Sequence.VideoTimeDisplayFormat="101" MZ.WorkOutPoint="591146035200000" MZ.WorkInPoint="0" explodedTracks="true">
		<uuid>84dc7585-bb4c-4c5c-9eb8-87488dbc8139</uuid>
		<duration>57834</duration>
		<rate>
			<timebase>25</timebase>
			<ntsc>FALSE</ntsc>
		</rate>
		<name>2005-FERIDG</name>
		<media>
			<video>
				<format>
					<samplecharacteristics>
						<rate>
							<timebase>25</timebase>
							<ntsc>FALSE</ntsc>
						</rate>
						<codec>
							<name>Apple ProRes 422</name>
							<appspecificdata>
								<appname>Final Cut Pro</appname>
								<appmanufacturer>Apple Inc.</appmanufacturer>
								<appversion>7.0</appversion>
								<data>
									<qtcodec>
										<codecname>Apple ProRes 422</codecname>
										<codectypename>Apple ProRes 422</codectypename>
										<codectypecode>apcn</codectypecode>
										<codecvendorcode>appl</codecvendorcode>
										<spatialquality>1024</spatialquality>
										<temporalquality>0</temporalquality>
										<keyframerate>0</keyframerate>
										<datarate>0</datarate>
									</qtcodec>
								</data>
							</appspecificdata>
						</codec>
						<width>1920</width>
						<height>1080</height>
						<anamorphic>FALSE</anamorphic>
						<pixelaspectratio>square</pixelaspectratio>
						<fielddominance>upper</fielddominance>
						<colordepth>24</colordepth>
					</samplecharacteristics>
				</format>
				<track TL.SQTrackShy="0" TL.SQTrackExpandedHeight="25" TL.SQTrackExpanded="0" MZ.TrackTargeted="1">
					<clipitem id="clipitem-2">
						<masterclipid>masterclip-2</masterclipid>
						<name>obub05000303aa-p1-060416r.mxf</name>
						<enabled>TRUE</enabled>
						<duration>6466</duration>
						<rate>
							<timebase>25</timebase>
							<ntsc>FALSE</ntsc>
						</rate>
						<start>889</start>
						<end>965</end>
						<in>921</in>
						<out>997</out>
						<pproTicksIn>9357949440000</pproTicksIn>
						<pproTicksOut>10130158080000</pproTicksOut>
						<alphatype>none</alphatype>
						<pixelaspectratio>PAL-601</pixelaspectratio>
						<anamorphic>TRUE</anamorphic>
						<pproOriginalPAR>PAL-601</pproOriginalPAR>
						<pproOriginalIsAnamorphic>FALSE</pproOriginalIsAnamorphic>
						<file id="file-1">
							<name>obub05000303aa-p1-060416r.mxf</name>
							<pathurl>file://localhost/Volumes/Brakka/AdobeLager/QUIZ%20-%20brakka/Arkivstoff/2005/Nyheter/obub05000303aa-p1-060416r.mxf</pathurl>
							<rate>
								<timebase>25</timebase>
								<ntsc>FALSE</ntsc>
							</rate>
							<duration>6466</duration>
							<timecode>
								<rate>
									<timebase>25</timebase>
									<ntsc>FALSE</ntsc>
								</rate>
								<string>10:17:38:12</string>
								<frame>926462</frame>
								<displayformat>NDF</displayformat>
								<reel>
									<name></name>
								</reel>
							</timecode>
							<media>
								<video>
									<samplecharacteristics>
										<rate>
											<timebase>25</timebase>
											<ntsc>FALSE</ntsc>
										</rate>
										<width>720</width>
										<height>576</height>
										<anamorphic>TRUE</anamorphic>
										<pixelaspectratio>PAL-601</pixelaspectratio>
										<pproOriginalIsAnamorphic>FALSE</pproOriginalIsAnamorphic>
										<pproOriginalPAR>PAL-601</pproOriginalPAR>
										<fielddominance>upper</fielddominance>
									</samplecharacteristics>
								</video>
								<audio>
									<samplecharacteristics>
										<depth>16</depth>
										<samplerate>48000</samplerate>
									</samplecharacteristics>
									<channelcount>2</channelcount>
								</audio>
							</media>
						</file>
							<filter>
								<effect>
									<name>Distort</name>
									<effectid>deformation</effectid>
									<effectcategory>motion</effectcategory>
									<effecttype>motion</effecttype>
									<mediatype>video</mediatype>
									<parameter authoringApp="PremierePro">
										<parameterid>aspect</parameterid>
										<name>Aspect</name>
										<valuemin>-10000</valuemin>
										<valuemax>10000</valuemax>
										<value>-45.8689</value>
									</parameter>
								</effect>
							</filter>
							<filter>
								<effect>
									<name>Basic Motion</name>
									<effectid>basic</effectid>
									<effectcategory>motion</effectcategory>
									<effecttype>motion</effecttype>
									<mediatype>video</mediatype>
									<parameter authoringApp="PremierePro">
										<parameterid>scale</parameterid>
										<name>Scale</name>
										<value>145.869</value>
									</parameter>
								</effect>
							</filter>
						<logginginfo>
							<description></description>
							<scene></scene>
							<shottake></shottake>
							<lognote></lognote>
						</logginginfo>
						<labels>
							<label2>Iris</label2>
						</labels>
					</clipitem>
					<enabled>TRUE</enabled>
					<locked>FALSE</locked>
				</track>
				<track TL.SQTrackShy="0" TL.SQTrackExpandedHeight="25" TL.SQTrackExpanded="0" MZ.TrackTargeted="0">
					<clipitem id="clipitem-199">
						<masterclipid>masterclip-3</masterclipid>
						<name>Kam2 t2</name>
						<enabled>TRUE</enabled>
						<duration>152764</duration>
						<rate>
							<timebase>25</timebase>
							<ntsc>FALSE</ntsc>
						</rate>
						<start>8574</start>
						<end>8657</end>
						<in>151699</in>
						<out>151782</out>
						<pproTicksIn>1541358927360000</pproTicksIn>
						<pproTicksOut>1542202260480000</pproTicksOut>
						<alphatype>none</alphatype>
						<pixelaspectratio>square</pixelaspectratio>
						<anamorphic>FALSE</anamorphic>
						<file id="file-2">
							<name>Capture0001.mov</name>
							<pathurl>file://localhost/Volumes/Brakka/AdobeLager/QUIZ%20-%20brakka/Video/Prg11_2005/Kam2/Capture0001.mov</pathurl>
							<rate>
								<timebase>25</timebase>
								<ntsc>FALSE</ntsc>
							</rate>
							<duration>152764</duration>
							<timecode>
								<rate>
									<timebase>25</timebase>
									<ntsc>FALSE</ntsc>
								</rate>
								<string>13:04:37:11</string>
								<frame>1176936</frame>
								<displayformat>NDF</displayformat>
								<reel>
									<name></name>
								</reel>
							</timecode>
							<media>
								<video>
									<samplecharacteristics>
										<rate>
											<timebase>25</timebase>
											<ntsc>FALSE</ntsc>
										</rate>
										<width>1920</width>
										<height>1080</height>
										<anamorphic>FALSE</anamorphic>
										<pixelaspectratio>square</pixelaspectratio>
										<fielddominance>upper</fielddominance>
									</samplecharacteristics>
								</video>
							</media>
						</file>
						<logginginfo>
							<description></description>
							<scene></scene>
							<shottake></shottake>
							<lognote></lognote>
						</logginginfo>
						<labels>
							<label2>Iris</label2>
						</labels>
					</clipitem>
					<clipitem id="clipitem-211">
						<masterclipid>masterclip-4</masterclipid>
						<name>Bryllup2.jpg</name>
						<enabled>TRUE</enabled>
						<duration>1080000</duration>
						<rate>
							<timebase>25</timebase>
							<ntsc>FALSE</ntsc>
						</rate>
						<start>15115</start>
						<end>15127</end>
						<in>90120</in>
						<out>90132</out>
						<pproTicksIn>915676876800000</pproTicksIn>
						<pproTicksOut>915798804480000</pproTicksOut>
						<alphatype>none</alphatype>
						<pixelaspectratio>square</pixelaspectratio>
						<anamorphic>FALSE</anamorphic>
						<file id="file-3">
							<name>Bryllup2.jpg</name>
							<pathurl>file://localhost/Volumes/Brakka/AdobeLager/QUIZ%20-%20brakka/Arkivstoff/2005/Se%20og%20H%c3%b8r/Bryllup2.jpg</pathurl>
							<rate>
								<timebase>30</timebase>
								<ntsc>TRUE</ntsc>
							</rate>
							<timecode>
								<rate>
									<timebase>30</timebase>
									<ntsc>TRUE</ntsc>
								</rate>
								<string>00;00;00;00</string>
								<frame>0</frame>
								<displayformat>DF</displayformat>
								<reel>
									<name></name>
								</reel>
							</timecode>
							<media>
								<video>
									<samplecharacteristics>
										<rate>
											<timebase>30</timebase>
											<ntsc>TRUE</ntsc>
										</rate>
										<width>2479</width>
										<height>1753</height>
										<anamorphic>FALSE</anamorphic>
										<pixelaspectratio>square</pixelaspectratio>
										<fielddominance>none</fielddominance>
									</samplecharacteristics>
								</video>
							</media>
						</file>
							<filter>
								<effect>
									<name>Basic Motion</name>
									<effectid>basic</effectid>
									<effectcategory>motion</effectcategory>
									<effecttype>motion</effecttype>
									<mediatype>video</mediatype>
									<parameter authoringApp="PremierePro">
										<parameterid>scale</parameterid>
										<name>Scale</name>
										<valuemin>0</valuemin>
										<valuemax>1000</valuemax>
										<value>210.363</value>
									</parameter>
									<parameter authoringApp="PremierePro">
										<parameterid>rotation</parameterid>
										<name>Rotation</name>
										<valuemin>-8640</valuemin>
										<valuemax>8640</valuemax>
										<value>0</value>
									</parameter>
									<parameter authoringApp="PremierePro">
										<parameterid>center</parameterid>
										<name>Center</name>
										<value>
											<horiz>0.259584</horiz>
											<vert>0.0365653</vert>
										</value>
									</parameter>
									<parameter authoringApp="PremierePro">
										<parameterid>centerOffset</parameterid>
										<name>Anchor Point</name>
										<value>
											<horiz>0</horiz>
											<vert>0</vert>
										</value>
									</parameter>
								</effect>
							</filter>
							<filter>
								<effect>
									<name>Gaussian Blur</name>
									<effectid>Gaussian Blur</effectid>
									<effectcategory>Blur</effectcategory>
									<effecttype>motion</effecttype>
									<mediatype>video</mediatype>
									<parameter authoringApp="PremierePro">
										<parameterid>radius</parameterid>
										<name>Radius</name>
										<valuemin>0</valuemin>
										<valuemax>100</valuemax>
										<value>0</value>
									</parameter>
								</effect>
							</filter>
							<filter>
								<effect>
									<name>Gaussian Blur</name>
									<effectid>Gaussian Blur</effectid>
									<effectcategory>Blur</effectcategory>
									<effecttype>motion</effecttype>
									<mediatype>video</mediatype>
									<parameter authoringApp="PremierePro">
										<parameterid>radius</parameterid>
										<name>Radius</name>
										<valuemin>0</valuemin>
										<valuemax>100</valuemax>
										<value>0</value>
									</parameter>
								</effect>
							</filter>
						<logginginfo>
							<description></description>
							<scene></scene>
							<shottake></shottake>
							<lognote></lognote>
						</logginginfo>
						<labels>
							<label2>Lavender</label2>
						</labels>
					</clipitem>
					<clipitem id="clipitem-212">
						<masterclipid>masterclip-4</masterclipid>
						<name>Bryllup2.jpg</name>
						<enabled>TRUE</enabled>
						<duration>1080000</duration>
						<rate>
							<timebase>25</timebase>
							<ntsc>FALSE</ntsc>
						</rate>
						<start>15127</start>
						<end>15265</end>
						<in>90000</in>
						<out>90138</out>
						<pproTicksIn>914457600000000</pproTicksIn>
						<pproTicksOut>915859768320000</pproTicksOut>
						<alphatype>none</alphatype>
						<file id="file-3"/>
							<filter>
								<effect>
									<name>Basic Motion</name>
									<effectid>basic</effectid>
									<effectcategory>motion</effectcategory>
									<effecttype>motion</effecttype>
									<mediatype>video</mediatype>
									<parameter authoringApp="PremierePro">
										<parameterid>scale</parameterid>
										<name>Scale</name>
										<valuemin>0</valuemin>
										<valuemax>1000</valuemax>
										<value>210.363</value>
									</parameter>
									<parameter authoringApp="PremierePro">
										<parameterid>rotation</parameterid>
										<name>Rotation</name>
										<valuemin>-8640</valuemin>
										<valuemax>8640</valuemax>
										<value>0</value>
									</parameter>
									<parameter authoringApp="PremierePro">
										<parameterid>center</parameterid>
										<name>Center</name>
										<value>
											<horiz>0.259584</horiz>
											<vert>0.0365653</vert>
										</value>
									</parameter>
									<parameter authoringApp="PremierePro">
										<parameterid>centerOffset</parameterid>
										<name>Anchor Point</name>
										<value>
											<horiz>0</horiz>
											<vert>0</vert>
										</value>
									</parameter>
								</effect>
							</filter>
							<filter>
								<effect>
									<name>Gaussian Blur</name>
									<effectid>Gaussian Blur</effectid>
									<effectcategory>Blur</effectcategory>
									<effecttype>motion</effecttype>
									<mediatype>video</mediatype>
									<parameter authoringApp="PremierePro">
										<parameterid>radius</parameterid>
										<name>Radius</name>
										<valuemin>0</valuemin>
										<valuemax>100</valuemax>
										<value>0</value>
									</parameter>
								</effect>
							</filter>
						<logginginfo>
							<description></description>
							<scene></scene>
							<shottake></shottake>
							<lognote></lognote>
						</logginginfo>
						<labels>
							<label2>Lavender</label2>
						</labels>
					</clipitem>
					<clipitem id="clipitem-223">
						<masterclipid>masterclip-5</masterclipid>
						<name>tidsbonanza_bumper_hotOrNot_hits.mov</name>
						<enabled>TRUE</enabled>
						<duration>131</duration>
						<rate>
							<timebase>25</timebase>
							<ntsc>FALSE</ntsc>
						</rate>
						<start>29766</start>
						<end>29897</end>
						<in>0</in>
						<out>131</out>
						<pproTicksIn>0</pproTicksIn>
						<pproTicksOut>1331043840000</pproTicksOut>
						<alphatype>none</alphatype>
						<pixelaspectratio>square</pixelaspectratio>
						<anamorphic>FALSE</anamorphic>
						<file id="file-4">
							<name>tidsbonanza_bumper_hotOrNot_hits.mov</name>
							<pathurl>file://localhost/Volumes/Brakka/AdobeLager/QUIZ%20-%20brakka/Grafikk/FERDIG/JINGLE/tidsbonanza_bumper_hotOrNot_hits.mov</pathurl>
							<rate>
								<timebase>25</timebase>
								<ntsc>FALSE</ntsc>
							</rate>
							<duration>131</duration>
							<timecode>
								<rate>
									<timebase>25</timebase>
									<ntsc>FALSE</ntsc>
								</rate>
								<string>00:00:00:00</string>
								<frame>0</frame>
								<displayformat>NDF</displayformat>
								<reel>
									<name></name>
								</reel>
							</timecode>
							<media>
								<video>
									<samplecharacteristics>
										<rate>
											<timebase>25</timebase>
											<ntsc>FALSE</ntsc>
										</rate>
										<width>1920</width>
										<height>1080</height>
										<anamorphic>FALSE</anamorphic>
										<pixelaspectratio>square</pixelaspectratio>
										<fielddominance>none</fielddominance>
									</samplecharacteristics>
								</video>
								<audio>
									<samplecharacteristics>
										<depth>16</depth>
										<samplerate>48000</samplerate>
									</samplecharacteristics>
									<channelcount>2</channelcount>
								</audio>
							</media>
						</file>
						<logginginfo>
							<description></description>
							<scene></scene>
							<shottake></shottake>
							<lognote></lognote>
						</logginginfo>
						<labels>
							<label2>Iris</label2>
						</labels>
					</clipitem>
					<clipitem id="clipitem-229">
						<masterclipid>masterclip-6</masterclipid>
						<name>NSPO30604105AA.mxf</name>
						<enabled>TRUE</enabled>
						<duration>89255</duration>
						<rate>
							<timebase>25</timebase>
							<ntsc>FALSE</ntsc>
						</rate>
						<start>36707</start>
						<end>37135</end>
						<in>60113</in>
						<out>60541</out>
						<pproTicksIn>610786552320000</pproTicksIn>
						<pproTicksOut>615135306240000</pproTicksOut>
						<alphatype>none</alphatype>
						<pixelaspectratio>PAL-601</pixelaspectratio>
						<anamorphic>FALSE</anamorphic>
						<file id="file-5">
							<name>NSPO30604105AA.mxf</name>
							<pathurl>file://localhost/Volumes/Brakka/AdobeLager/QUIZ%20-%20brakka/Arkivstoff/2005/Nyheter/NSPO30604105AA.mxf</pathurl>
							<rate>
								<timebase>25</timebase>
								<ntsc>FALSE</ntsc>
							</rate>
							<duration>89255</duration>
							<timecode>
								<rate>
									<timebase>25</timebase>
									<ntsc>FALSE</ntsc>
								</rate>
								<string>11:14:58:20</string>
								<frame>1012470</frame>
								<displayformat>NDF</displayformat>
								<reel>
									<name></name>
								</reel>
							</timecode>
							<media>
								<video>
									<samplecharacteristics>
										<rate>
											<timebase>25</timebase>
											<ntsc>FALSE</ntsc>
										</rate>
										<width>720</width>
										<height>576</height>
										<anamorphic>FALSE</anamorphic>
										<pixelaspectratio>PAL-601</pixelaspectratio>
										<fielddominance>upper</fielddominance>
									</samplecharacteristics>
								</video>
								<audio>
									<samplecharacteristics>
										<depth>16</depth>
										<samplerate>48000</samplerate>
									</samplecharacteristics>
									<channelcount>2</channelcount>
								</audio>
							</media>
						</file>
							<filter>
								<effect>
									<name>Basic Motion</name>
									<effectid>basic</effectid>
									<effectcategory>motion</effectcategory>
									<effecttype>motion</effecttype>
									<mediatype>video</mediatype>
									<parameter authoringApp="PremierePro">
										<parameterid>scale</parameterid>
										<name>Scale</name>
										<valuemin>0</valuemin>
										<valuemax>1000</valuemax>
										<value>131.652</value>
									</parameter>
									<parameter authoringApp="PremierePro">
										<parameterid>rotation</parameterid>
										<name>Rotation</name>
										<valuemin>-8640</valuemin>
										<valuemax>8640</valuemax>
										<value>0</value>
									</parameter>
									<parameter authoringApp="PremierePro">
										<parameterid>center</parameterid>
										<name>Center</name>
										<value>
											<horiz>0.0120301</horiz>
											<vert>0</vert>
										</value>
									</parameter>
									<parameter authoringApp="PremierePro">
										<parameterid>centerOffset</parameterid>
										<name>Anchor Point</name>
										<value>
											<horiz>0</horiz>
											<vert>0</vert>
										</value>
									</parameter>
								</effect>
							</filter>
							<filter>
								<effect>
									<name>Distort</name>
									<effectid>deformation</effectid>
									<effectcategory>motion</effectcategory>
									<effecttype>motion</effecttype>
									<mediatype>video</mediatype>
									<parameter authoringApp="PremierePro">
										<parameterid>aspect</parameterid>
										<name>Aspect</name>
										<valuemin>-10000</valuemin>
										<valuemax>10000</valuemax>
										<value>-9.40171</value>
									</parameter>
								</effect>
							</filter>
						<logginginfo>
							<description></description>
							<scene></scene>
							<shottake></shottake>
							<lognote></lognote>
						</logginginfo>
						<labels>
							<label2>Iris</label2>
						</labels>
					</clipitem>
					<clipitem id="clipitem-230">
						<masterclipid>masterclip-6</masterclipid>
						<name>NSPO30604105AA.mxf</name>
						<enabled>TRUE</enabled>
						<duration>89255</duration>
						<rate>
							<timebase>25</timebase>
							<ntsc>FALSE</ntsc>
						</rate>
						<start>37135</start>
						<end>37177</end>
						<in>61060</in>
						<out>61102</out>
						<pproTicksIn>620408678400000</pproTicksIn>
						<pproTicksOut>620835425280000</pproTicksOut>
						<alphatype>none</alphatype>
						<file id="file-5"/>
							<filter>
								<effect>
									<name>Basic Motion</name>
									<effectid>basic</effectid>
									<effectcategory>motion</effectcategory>
									<effecttype>motion</effecttype>
									<mediatype>video</mediatype>
									<parameter authoringApp="PremierePro">
										<parameterid>scale</parameterid>
										<name>Scale</name>
										<valuemin>0</valuemin>
										<valuemax>1000</valuemax>
										<value>131.652</value>
									</parameter>
									<parameter authoringApp="PremierePro">
										<parameterid>rotation</parameterid>
										<name>Rotation</name>
										<valuemin>-8640</valuemin>
										<valuemax>8640</valuemax>
										<value>0</value>
									</parameter>
									<parameter authoringApp="PremierePro">
										<parameterid>center</parameterid>
										<name>Center</name>
										<value>
											<horiz>0.0120301</horiz>
											<vert>0</vert>
										</value>
									</parameter>
									<parameter authoringApp="PremierePro">
										<parameterid>centerOffset</parameterid>
										<name>Anchor Point</name>
										<value>
											<horiz>0</horiz>
											<vert>0</vert>
										</value>
									</parameter>
								</effect>
							</filter>
							<filter>
								<effect>
									<name>Distort</name>
									<effectid>deformation</effectid>
									<effectcategory>motion</effectcategory>
									<effecttype>motion</effecttype>
									<mediatype>video</mediatype>
									<parameter authoringApp="PremierePro">
										<parameterid>aspect</parameterid>
										<name>Aspect</name>
										<valuemin>-10000</valuemin>
										<valuemax>10000</valuemax>
										<value>-9.40171</value>
									</parameter>
								</effect>
							</filter>
						<logginginfo>
							<description></description>
							<scene></scene>
							<shottake></shottake>
							<lognote></lognote>
						</logginginfo>
						<labels>
							<label2>Iris</label2>
						</labels>
					</clipitem>
					<clipitem id="clipitem-231">
						<masterclipid>masterclip-6</masterclipid>
						<name>NSPO30604105AA.mxf</name>
						<enabled>TRUE</enabled>
						<duration>89255</duration>
						<rate>
							<timebase>25</timebase>
							<ntsc>FALSE</ntsc>
						</rate>
						<start>37177</start>
						<end>37230</end>
						<in>61007</in>
						<out>61060</out>
						<pproTicksIn>619870164480000</pproTicksIn>
						<pproTicksOut>620408678400000</pproTicksOut>
						<alphatype>none</alphatype>
						<file id="file-5"/>
							<filter>
								<effect>
									<name>Basic Motion</name>
									<effectid>basic</effectid>
									<effectcategory>motion</effectcategory>
									<effecttype>motion</effecttype>
									<mediatype>video</mediatype>
									<parameter authoringApp="PremierePro">
										<parameterid>scale</parameterid>
										<name>Scale</name>
										<valuemin>0</valuemin>
										<valuemax>1000</valuemax>
										<value>131.652</value>
									</parameter>
									<parameter authoringApp="PremierePro">
										<parameterid>rotation</parameterid>
										<name>Rotation</name>
										<valuemin>-8640</valuemin>
										<valuemax>8640</valuemax>
										<value>0</value>
									</parameter>
									<parameter authoringApp="PremierePro">
										<parameterid>center</parameterid>
										<name>Center</name>
										<value>
											<horiz>0.0120301</horiz>
											<vert>0</vert>
										</value>
									</parameter>
									<parameter authoringApp="PremierePro">
										<parameterid>centerOffset</parameterid>
										<name>Anchor Point</name>
										<value>
											<horiz>0</horiz>
											<vert>0</vert>
										</value>
									</parameter>
								</effect>
							</filter>
							<filter>
								<effect>
									<name>Distort</name>
									<effectid>deformation</effectid>
									<effectcategory>motion</effectcategory>
									<effecttype>motion</effecttype>
									<mediatype>video</mediatype>
									<parameter authoringApp="PremierePro">
										<parameterid>aspect</parameterid>
										<name>Aspect</name>
										<valuemin>-10000</valuemin>
										<valuemax>10000</valuemax>
										<value>-9.40171</value>
									</parameter>
								</effect>
							</filter>
						<logginginfo>
							<description></description>
							<scene></scene>
							<shottake></shottake>
							<lognote></lognote>
						</logginginfo>
						<labels>
							<label2>Iris</label2>
						</labels>
					</clipitem>
					<clipitem id="clipitem-232">
						<masterclipid>masterclip-6</masterclipid>
						<name>NSPO30604105AA.mxf</name>
						<enabled>TRUE</enabled>
						<duration>89255</duration>
						<rate>
							<timebase>25</timebase>
							<ntsc>FALSE</ntsc>
						</rate>
						<start>37230</start>
						<end>37355</end>
						<in>57671</in>
						<out>57796</out>
						<pproTicksIn>585974269440000</pproTicksIn>
						<pproTicksOut>587244349440000</pproTicksOut>
						<alphatype>none</alphatype>
						<file id="file-5"/>
							<filter>
								<effect>
									<name>Basic Motion</name>
									<effectid>basic</effectid>
									<effectcategory>motion</effectcategory>
									<effecttype>motion</effecttype>
									<mediatype>video</mediatype>
									<parameter authoringApp="PremierePro">
										<parameterid>scale</parameterid>
										<name>Scale</name>
										<valuemin>0</valuemin>
										<valuemax>1000</valuemax>
										<value>131.652</value>
									</parameter>
									<parameter authoringApp="PremierePro">
										<parameterid>rotation</parameterid>
										<name>Rotation</name>
										<valuemin>-8640</valuemin>
										<valuemax>8640</valuemax>
										<value>0</value>
									</parameter>
									<parameter authoringApp="PremierePro">
										<parameterid>center</parameterid>
										<name>Center</name>
										<value>
											<horiz>-1.57898e-16</horiz>
											<vert>0.155414</vert>
										</value>
									</parameter>
									<parameter authoringApp="PremierePro">
										<parameterid>centerOffset</parameterid>
										<name>Anchor Point</name>
										<value>
											<horiz>0</horiz>
											<vert>0</vert>
										</value>
									</parameter>
								</effect>
							</filter>
							<filter>
								<effect>
									<name>Distort</name>
									<effectid>deformation</effectid>
									<effectcategory>motion</effectcategory>
									<effecttype>motion</effecttype>
									<mediatype>video</mediatype>
									<parameter authoringApp="PremierePro">
										<parameterid>aspect</parameterid>
										<name>Aspect</name>
										<valuemin>-10000</valuemin>
										<valuemax>10000</valuemax>
										<value>-9.40171</value>
									</parameter>
								</effect>
							</filter>
						<logginginfo>
							<description></description>
							<scene></scene>
							<shottake></shottake>
							<lognote></lognote>
						</logginginfo>
						<labels>
							<label2>Iris</label2>
						</labels>
					</clipitem>
					<clipitem id="clipitem-233">
						<masterclipid>masterclip-6</masterclipid>
						<name>NSPO30604105AA.mxf</name>
						<enabled>TRUE</enabled>
						<duration>89255</duration>
						<rate>
							<timebase>25</timebase>
							<ntsc>FALSE</ntsc>
						</rate>
						<start>37355</start>
						<end>37435</end>
						<in>57796</in>
						<out>57876</out>
						<pproTicksIn>587244349440000</pproTicksIn>
						<pproTicksOut>588057200640000</pproTicksOut>
						<alphatype>none</alphatype>
						<file id="file-5"/>
							<filter>
								<effect>
									<name>Basic Motion</name>
									<effectid>basic</effectid>
									<effectcategory>motion</effectcategory>
									<effecttype>motion</effecttype>
									<mediatype>video</mediatype>
									<parameter authoringApp="PremierePro">
										<parameterid>scale</parameterid>
										<name>Scale</name>
										<valuemin>0</valuemin>
										<valuemax>1000</valuemax>
										<value>131.652</value>
									</parameter>
									<parameter authoringApp="PremierePro">
										<parameterid>rotation</parameterid>
										<name>Rotation</name>
										<valuemin>-8640</valuemin>
										<valuemax>8640</valuemax>
										<value>0</value>
									</parameter>
									<parameter authoringApp="PremierePro">
										<parameterid>center</parameterid>
										<name>Center</name>
										<value>
											<horiz>-0.00401003</horiz>
											<vert>0.265709</vert>
										</value>
									</parameter>
									<parameter authoringApp="PremierePro">
										<parameterid>centerOffset</parameterid>
										<name>Anchor Point</name>
										<value>
											<horiz>0</horiz>
											<vert>0</vert>
										</value>
									</parameter>
								</effect>
							</filter>
							<filter>
								<effect>
									<name>Distort</name>
									<effectid>deformation</effectid>
									<effectcategory>motion</effectcategory>
									<effecttype>motion</effecttype>
									<mediatype>video</mediatype>
									<parameter authoringApp="PremierePro">
										<parameterid>aspect</parameterid>
										<name>Aspect</name>
										<valuemin>-10000</valuemin>
										<valuemax>10000</valuemax>
										<value>-9.40171</value>
									</parameter>
								</effect>
							</filter>
						<logginginfo>
							<description></description>
							<scene></scene>
							<shottake></shottake>
							<lognote></lognote>
						</logginginfo>
						<labels>
							<label2>Iris</label2>
						</labels>
					</clipitem>
					<clipitem id="clipitem-234">
						<masterclipid>masterclip-6</masterclipid>
						<name>NSPO30604105AA.mxf</name>
						<enabled>TRUE</enabled>
						<duration>89255</duration>
						<rate>
							<timebase>25</timebase>
							<ntsc>FALSE</ntsc>
						</rate>
						<start>37435</start>
						<end>37676</end>
						<in>57876</in>
						<out>58117</out>
						<pproTicksIn>588057200640000</pproTicksIn>
						<pproTicksOut>590505914880000</pproTicksOut>
						<alphatype>none</alphatype>
						<file id="file-5"/>
							<filter>
								<effect>
									<name>Basic Motion</name>
									<effectid>basic</effectid>
									<effectcategory>motion</effectcategory>
									<effecttype>motion</effecttype>
									<mediatype>video</mediatype>
									<parameter authoringApp="PremierePro">
										<parameterid>scale</parameterid>
										<name>Scale</name>
										<valuemin>0</valuemin>
										<valuemax>1000</valuemax>
										<value>131.652</value>
									</parameter>
									<parameter authoringApp="PremierePro">
										<parameterid>rotation</parameterid>
										<name>Rotation</name>
										<valuemin>-8640</valuemin>
										<valuemax>8640</valuemax>
										<value>0</value>
									</parameter>
									<parameter authoringApp="PremierePro">
										<parameterid>center</parameterid>
										<name>Center</name>
										<value>
											<horiz>-0.00401003</horiz>
											<vert>0.270722</vert>
										</value>
									</parameter>
									<parameter authoringApp="PremierePro">
										<parameterid>centerOffset</parameterid>
										<name>Anchor Point</name>
										<value>
											<horiz>0</horiz>
											<vert>0</vert>
										</value>
									</parameter>
								</effect>
							</filter>
							<filter>
								<effect>
									<name>Distort</name>
									<effectid>deformation</effectid>
									<effectcategory>motion</effectcategory>
									<effecttype>motion</effecttype>
									<mediatype>video</mediatype>
									<parameter authoringApp="PremierePro">
										<parameterid>aspect</parameterid>
										<name>Aspect</name>
										<valuemin>-10000</valuemin>
										<valuemax>10000</valuemax>
										<value>-9.40171</value>
									</parameter>
								</effect>
							</filter>
						<logginginfo>
							<description></description>
							<scene></scene>
							<shottake></shottake>
							<lognote></lognote>
						</logginginfo>
						<labels>
							<label2>Iris</label2>
						</labels>
					</clipitem>
					<clipitem id="clipitem-235">
						<masterclipid>masterclip-6</masterclipid>
						<name>NSPO30604105AA.mxf</name>
						<enabled>TRUE</enabled>
						<duration>89255</duration>
						<rate>
							<timebase>25</timebase>
							<ntsc>FALSE</ntsc>
						</rate>
						<start>37676</start>
						<end>37751</end>
						<in>52820</in>
						<out>52895</out>
						<pproTicksIn>536685004800000</pproTicksIn>
						<pproTicksOut>537447052800000</pproTicksOut>
						<alphatype>none</alphatype>
						<file id="file-5"/>
							<filter>
								<effect>
									<name>Basic Motion</name>
									<effectid>basic</effectid>
									<effectcategory>motion</effectcategory>
									<effecttype>motion</effecttype>
									<mediatype>video</mediatype>
									<parameter authoringApp="PremierePro">
										<parameterid>scale</parameterid>
										<name>Scale</name>
										<valuemin>0</valuemin>
										<valuemax>1000</valuemax>
										<value>129.514</value>
									</parameter>
									<parameter authoringApp="PremierePro">
										<parameterid>rotation</parameterid>
										<name>Rotation</name>
										<valuemin>-8640</valuemin>
										<valuemax>8640</valuemax>
										<value>0</value>
									</parameter>
									<parameter authoringApp="PremierePro">
										<parameterid>center</parameterid>
										<name>Center</name>
										<value>
											<horiz>0.00401003</horiz>
											<vert>0.230615</vert>
										</value>
									</parameter>
									<parameter authoringApp="PremierePro">
										<parameterid>centerOffset</parameterid>
										<name>Anchor Point</name>
										<value>
											<horiz>0</horiz>
											<vert>0</vert>
										</value>
									</parameter>
								</effect>
							</filter>
							<filter>
								<effect>
									<name>Distort</name>
									<effectid>deformation</effectid>
									<effectcategory>motion</effectcategory>
									<effecttype>motion</effecttype>
									<mediatype>video</mediatype>
									<parameter authoringApp="PremierePro">
										<parameterid>aspect</parameterid>
										<name>Aspect</name>
										<valuemin>-10000</valuemin>
										<valuemax>10000</valuemax>
										<value>-9.40171</value>
									</parameter>
								</effect>
							</filter>
						<logginginfo>
							<description></description>
							<scene></scene>
							<shottake></shottake>
							<lognote></lognote>
						</logginginfo>
						<labels>
							<label2>Iris</label2>
						</labels>
					</clipitem>
					<clipitem id="clipitem-236">
						<masterclipid>masterclip-6</masterclipid>
						<name>NSPO30604105AA.mxf</name>
						<enabled>TRUE</enabled>
						<duration>89255</duration>
						<rate>
							<timebase>25</timebase>
							<ntsc>FALSE</ntsc>
						</rate>
						<start>37751</start>
						<end>37828</end>
						<in>52935</in>
						<out>53012</out>
						<pproTicksIn>537853478400000</pproTicksIn>
						<pproTicksOut>538635847680000</pproTicksOut>
						<alphatype>none</alphatype>
						<file id="file-5"/>
							<filter>
								<effect>
									<name>Basic Motion</name>
									<effectid>basic</effectid>
									<effectcategory>motion</effectcategory>
									<effecttype>motion</effecttype>
									<mediatype>video</mediatype>
									<parameter authoringApp="PremierePro">
										<parameterid>scale</parameterid>
										<name>Scale</name>
										<valuemin>0</valuemin>
										<valuemax>1000</valuemax>
										<value>129.514</value>
									</parameter>
									<parameter authoringApp="PremierePro">
										<parameterid>rotation</parameterid>
										<name>Rotation</name>
										<valuemin>-8640</valuemin>
										<valuemax>8640</valuemax>
										<value>0</value>
									</parameter>
									<parameter authoringApp="PremierePro">
										<parameterid>center</parameterid>
										<name>Center</name>
										<value>
											<horiz>0.00401003</horiz>
											<vert>0.230615</vert>
										</value>
									</parameter>
									<parameter authoringApp="PremierePro">
										<parameterid>centerOffset</parameterid>
										<name>Anchor Point</name>
										<value>
											<horiz>0</horiz>
											<vert>0</vert>
										</value>
									</parameter>
								</effect>
							</filter>
							<filter>
								<effect>
									<name>Distort</name>
									<effectid>deformation</effectid>
									<effectcategory>motion</effectcategory>
									<effecttype>motion</effecttype>
									<mediatype>video</mediatype>
									<parameter authoringApp="PremierePro">
										<parameterid>aspect</parameterid>
										<name>Aspect</name>
										<valuemin>-10000</valuemin>
										<valuemax>10000</valuemax>
										<value>-9.40171</value>
									</parameter>
								</effect>
							</filter>
						<logginginfo>
							<description></description>
							<scene></scene>
							<shottake></shottake>
							<lognote></lognote>
						</logginginfo>
						<labels>
							<label2>Iris</label2>
						</labels>
					</clipitem>
					<clipitem id="clipitem-237">
						<masterclipid>masterclip-6</masterclipid>
						<name>NSPO30604105AA.mxf</name>
						<enabled>TRUE</enabled>
						<duration>89255</duration>
						<rate>
							<timebase>25</timebase>
							<ntsc>FALSE</ntsc>
						</rate>
						<start>37828</start>
						<end>37932</end>
						<in>53160</in>
						<out>53264</out>
						<pproTicksIn>540139622400000</pproTicksIn>
						<pproTicksOut>541196328960000</pproTicksOut>
						<alphatype>none</alphatype>
						<file id="file-5"/>
							<filter>
								<effect>
									<name>Basic Motion</name>
									<effectid>basic</effectid>
									<effectcategory>motion</effectcategory>
									<effecttype>motion</effecttype>
									<mediatype>video</mediatype>
									<parameter authoringApp="PremierePro">
										<parameterid>scale</parameterid>
										<name>Scale</name>
										<valuemin>0</valuemin>
										<valuemax>1000</valuemax>
										<value>129.514</value>
									</parameter>
									<parameter authoringApp="PremierePro">
										<parameterid>rotation</parameterid>
										<name>Rotation</name>
										<valuemin>-8640</valuemin>
										<valuemax>8640</valuemax>
										<value>0</value>
									</parameter>
									<parameter authoringApp="PremierePro">
										<parameterid>center</parameterid>
										<name>Center</name>
										<value>
											<horiz>0.00401003</horiz>
											<vert>0.230615</vert>
										</value>
									</parameter>
									<parameter authoringApp="PremierePro">
										<parameterid>centerOffset</parameterid>
										<name>Anchor Point</name>
										<value>
											<horiz>0</horiz>
											<vert>0</vert>
										</value>
									</parameter>
								</effect>
							</filter>
							<filter>
								<effect>
									<name>Distort</name>
									<effectid>deformation</effectid>
									<effectcategory>motion</effectcategory>
									<effecttype>motion</effecttype>
									<mediatype>video</mediatype>
									<parameter authoringApp="PremierePro">
										<parameterid>aspect</parameterid>
										<name>Aspect</name>
										<valuemin>-10000</valuemin>
										<valuemax>10000</valuemax>
										<value>-9.40171</value>
									</parameter>
								</effect>
							</filter>
						<logginginfo>
							<description></description>
							<scene></scene>
							<shottake></shottake>
							<lognote></lognote>
						</logginginfo>
						<labels>
							<label2>Iris</label2>
						</labels>
					</clipitem>
					<clipitem id="clipitem-238">
						<masterclipid>masterclip-6</masterclipid>
						<name>NSPO30604105AA.mxf</name>
						<enabled>TRUE</enabled>
						<duration>89255</duration>
						<rate>
							<timebase>25</timebase>
							<ntsc>FALSE</ntsc>
						</rate>
						<start>37932</start>
						<end>38022</end>
						<in>72507</in>
						<out>72597</out>
						<pproTicksIn>736717524480000</pproTicksIn>
						<pproTicksOut>737631982080000</pproTicksOut>
						<alphatype>none</alphatype>
						<file id="file-5"/>
							<filter>
								<effect>
									<name>Basic Motion</name>
									<effectid>basic</effectid>
									<effectcategory>motion</effectcategory>
									<effecttype>motion</effecttype>
									<mediatype>video</mediatype>
									<parameter authoringApp="PremierePro">
										<parameterid>scale</parameterid>
										<name>Scale</name>
										<valuemin>0</valuemin>
										<valuemax>1000</valuemax>
										<value>129.514</value>
									</parameter>
									<parameter authoringApp="PremierePro">
										<parameterid>rotation</parameterid>
										<name>Rotation</name>
										<valuemin>-8640</valuemin>
										<valuemax>8640</valuemax>
										<value>0</value>
									</parameter>
									<parameter authoringApp="PremierePro">
										<parameterid>center</parameterid>
										<name>Center</name>
										<value>
											<horiz>0.00401003</horiz>
											<vert>0.230615</vert>
										</value>
									</parameter>
									<parameter authoringApp="PremierePro">
										<parameterid>centerOffset</parameterid>
										<name>Anchor Point</name>
										<value>
											<horiz>0</horiz>
											<vert>0</vert>
										</value>
									</parameter>
								</effect>
							</filter>
							<filter>
								<effect>
									<name>Distort</name>
									<effectid>deformation</effectid>
									<effectcategory>motion</effectcategory>
									<effecttype>motion</effecttype>
									<mediatype>video</mediatype>
									<parameter authoringApp="PremierePro">
										<parameterid>aspect</parameterid>
										<name>Aspect</name>
										<valuemin>-10000</valuemin>
										<valuemax>10000</valuemax>
										<value>-9.40171</value>
									</parameter>
								</effect>
							</filter>
						<logginginfo>
							<description></description>
							<scene></scene>
							<shottake></shottake>
							<lognote></lognote>
						</logginginfo>
						<labels>
							<label2>Iris</label2>
						</labels>
					</clipitem>
					<clipitem id="clipitem-239">
						<masterclipid>masterclip-6</masterclipid>
						<name>NSPO30604105AA.mxf</name>
						<enabled>TRUE</enabled>
						<duration>89255</duration>
						<rate>
							<timebase>25</timebase>
							<ntsc>FALSE</ntsc>
						</rate>
						<start>38022</start>
						<end>38092</end>
						<in>72772</in>
						<out>72842</out>
						<pproTicksIn>739410094080000</pproTicksIn>
						<pproTicksOut>740121338880000</pproTicksOut>
						<alphatype>none</alphatype>
						<file id="file-5"/>
							<filter>
								<effect>
									<name>Basic Motion</name>
									<effectid>basic</effectid>
									<effectcategory>motion</effectcategory>
									<effecttype>motion</effecttype>
									<mediatype>video</mediatype>
									<parameter authoringApp="PremierePro">
										<parameterid>scale</parameterid>
										<name>Scale</name>
										<valuemin>0</valuemin>
										<valuemax>1000</valuemax>
										<value>129.514</value>
									</parameter>
									<parameter authoringApp="PremierePro">
										<parameterid>rotation</parameterid>
										<name>Rotation</name>
										<valuemin>-8640</valuemin>
										<valuemax>8640</valuemax>
										<value>0</value>
									</parameter>
									<parameter authoringApp="PremierePro">
										<parameterid>center</parameterid>
										<name>Center</name>
										<value>
											<horiz>0.00401003</horiz>
											<vert>0.230615</vert>
										</value>
									</parameter>
									<parameter authoringApp="PremierePro">
										<parameterid>centerOffset</parameterid>
										<name>Anchor Point</name>
										<value>
											<horiz>0</horiz>
											<vert>0</vert>
										</value>
									</parameter>
								</effect>
							</filter>
							<filter>
								<effect>
									<name>Distort</name>
									<effectid>deformation</effectid>
									<effectcategory>motion</effectcategory>
									<effecttype>motion</effecttype>
									<mediatype>video</mediatype>
									<parameter authoringApp="PremierePro">
										<parameterid>aspect</parameterid>
										<name>Aspect</name>
										<valuemin>-10000</valuemin>
										<valuemax>10000</valuemax>
										<value>-9.40171</value>
									</parameter>
								</effect>
							</filter>
						<logginginfo>
							<description></description>
							<scene></scene>
							<shottake></shottake>
							<lognote></lognote>
						</logginginfo>
						<labels>
							<label2>Iris</label2>
						</labels>
					</clipitem>
					<clipitem id="clipitem-240">
						<masterclipid>masterclip-6</masterclipid>
						<name>NSPO30604105AA.mxf</name>
						<enabled>TRUE</enabled>
						<duration>89255</duration>
						<rate>
							<timebase>25</timebase>
							<ntsc>FALSE</ntsc>
						</rate>
						<start>38092</start>
						<end>38145</end>
						<in>73727</in>
						<out>73780</out>
						<pproTicksIn>749113505280000</pproTicksIn>
						<pproTicksOut>749652019200000</pproTicksOut>
						<alphatype>none</alphatype>
						<file id="file-5"/>
							<filter>
								<effect>
									<name>Basic Motion</name>
									<effectid>basic</effectid>
									<effectcategory>motion</effectcategory>
									<effecttype>motion</effecttype>
									<mediatype>video</mediatype>
									<parameter authoringApp="PremierePro">
										<parameterid>scale</parameterid>
										<name>Scale</name>
										<valuemin>0</valuemin>
										<valuemax>1000</valuemax>
										<value>129.514</value>
									</parameter>
									<parameter authoringApp="PremierePro">
										<parameterid>rotation</parameterid>
										<name>Rotation</name>
										<valuemin>-8640</valuemin>
										<valuemax>8640</valuemax>
										<value>0</value>
									</parameter>
									<parameter authoringApp="PremierePro">
										<parameterid>center</parameterid>
										<name>Center</name>
										<value>
											<horiz>0.00401003</horiz>
											<vert>0.230615</vert>
										</value>
									</parameter>
									<parameter authoringApp="PremierePro">
										<parameterid>centerOffset</parameterid>
										<name>Anchor Point</name>
										<value>
											<horiz>0</horiz>
											<vert>0</vert>
										</value>
									</parameter>
								</effect>
							</filter>
							<filter>
								<effect>
									<name>Distort</name>
									<effectid>deformation</effectid>
									<effectcategory>motion</effectcategory>
									<effecttype>motion</effecttype>
									<mediatype>video</mediatype>
									<parameter authoringApp="PremierePro">
										<parameterid>aspect</parameterid>
										<name>Aspect</name>
										<valuemin>-10000</valuemin>
										<valuemax>10000</valuemax>
										<value>-9.40171</value>
									</parameter>
								</effect>
							</filter>
						<logginginfo>
							<description></description>
							<scene></scene>
							<shottake></shottake>
							<lognote></lognote>
						</logginginfo>
						<labels>
							<label2>Iris</label2>
						</labels>
					</clipitem>
					<clipitem id="clipitem-241">
						<masterclipid>masterclip-6</masterclipid>
						<name>NSPO30604105AA.mxf</name>
						<enabled>TRUE</enabled>
						<duration>89255</duration>
						<rate>
							<timebase>25</timebase>
							<ntsc>FALSE</ntsc>
						</rate>
						<start>38145</start>
						<end>38169</end>
						<in>74996</in>
						<out>75020</out>
						<pproTicksIn>762007357440000</pproTicksIn>
						<pproTicksOut>762251212800000</pproTicksOut>
						<alphatype>none</alphatype>
						<file id="file-5"/>
							<filter>
								<effect>
									<name>Basic Motion</name>
									<effectid>basic</effectid>
									<effectcategory>motion</effectcategory>
									<effecttype>motion</effecttype>
									<mediatype>video</mediatype>
									<parameter authoringApp="PremierePro">
										<parameterid>scale</parameterid>
										<name>Scale</name>
										<valuemin>0</valuemin>
										<valuemax>1000</valuemax>
										<value>129.514</value>
									</parameter>
									<parameter authoringApp="PremierePro">
										<parameterid>rotation</parameterid>
										<name>Rotation</name>
										<valuemin>-8640</valuemin>
										<valuemax>8640</valuemax>
										<value>0</value>
									</parameter>
									<parameter authoringApp="PremierePro">
										<parameterid>center</parameterid>
										<name>Center</name>
										<value>
											<horiz>0.00401003</horiz>
											<vert>0.230615</vert>
										</value>
									</parameter>
									<parameter authoringApp="PremierePro">
										<parameterid>centerOffset</parameterid>
										<name>Anchor Point</name>
										<value>
											<horiz>0</horiz>
											<vert>0</vert>
										</value>
									</parameter>
								</effect>
							</filter>
							<filter>
								<effect>
									<name>Distort</name>
									<effectid>deformation</effectid>
									<effectcategory>motion</effectcategory>
									<effecttype>motion</effecttype>
									<mediatype>video</mediatype>
									<parameter authoringApp="PremierePro">
										<parameterid>aspect</parameterid>
										<name>Aspect</name>
										<valuemin>-10000</valuemin>
										<valuemax>10000</valuemax>
										<value>-9.40171</value>
									</parameter>
								</effect>
							</filter>
						<logginginfo>
							<description></description>
							<scene></scene>
							<shottake></shottake>
							<lognote></lognote>
						</logginginfo>
						<labels>
							<label2>Iris</label2>
						</labels>
					</clipitem>
					<clipitem id="clipitem-242">
						<masterclipid>masterclip-6</masterclipid>
						<name>NSPO30604105AA.mxf</name>
						<enabled>TRUE</enabled>
						<duration>89255</duration>
						<rate>
							<timebase>25</timebase>
							<ntsc>FALSE</ntsc>
						</rate>
						<start>38169</start>
						<end>38258</end>
						<in>75040</in>
						<out>75129</out>
						<pproTicksIn>762454425600000</pproTicksIn>
						<pproTicksOut>763358722560000</pproTicksOut>
						<alphatype>none</alphatype>
						<file id="file-5"/>
							<filter>
								<effect>
									<name>Basic Motion</name>
									<effectid>basic</effectid>
									<effectcategory>motion</effectcategory>
									<effecttype>motion</effecttype>
									<mediatype>video</mediatype>
									<parameter authoringApp="PremierePro">
										<parameterid>scale</parameterid>
										<name>Scale</name>
										<valuemin>0</valuemin>
										<valuemax>1000</valuemax>
										<value>129.514</value>
									</parameter>
									<parameter authoringApp="PremierePro">
										<parameterid>rotation</parameterid>
										<name>Rotation</name>
										<valuemin>-8640</valuemin>
										<valuemax>8640</valuemax>
										<value>0</value>
									</parameter>
									<parameter authoringApp="PremierePro">
										<parameterid>center</parameterid>
										<name>Center</name>
										<value>
											<horiz>0.00401003</horiz>
											<vert>0.230615</vert>
										</value>
									</parameter>
									<parameter authoringApp="PremierePro">
										<parameterid>centerOffset</parameterid>
										<name>Anchor Point</name>
										<value>
											<horiz>0</horiz>
											<vert>0</vert>
										</value>
									</parameter>
								</effect>
							</filter>
							<filter>
								<effect>
									<name>Distort</name>
									<effectid>deformation</effectid>
									<effectcategory>motion</effectcategory>
									<effecttype>motion</effecttype>
									<mediatype>video</mediatype>
									<parameter authoringApp="PremierePro">
										<parameterid>aspect</parameterid>
										<name>Aspect</name>
										<valuemin>-10000</valuemin>
										<valuemax>10000</valuemax>
										<value>-9.40171</value>
									</parameter>
								</effect>
							</filter>
						<logginginfo>
							<description></description>
							<scene></scene>
							<shottake></shottake>
							<lognote></lognote>
						</logginginfo>
						<labels>
							<label2>Iris</label2>
						</labels>
					</clipitem>
					<clipitem id="clipitem-243">
						<masterclipid>masterclip-6</masterclipid>
						<name>NSPO30604105AA.mxf</name>
						<enabled>TRUE</enabled>
						<duration>89255</duration>
						<rate>
							<timebase>25</timebase>
							<ntsc>FALSE</ntsc>
						</rate>
						<start>38258</start>
						<end>38303</end>
						<in>75148</in>
						<out>75193</out>
						<pproTicksIn>763551774720000</pproTicksIn>
						<pproTicksOut>764009003520000</pproTicksOut>
						<alphatype>none</alphatype>
						<file id="file-5"/>
							<filter>
								<effect>
									<name>Basic Motion</name>
									<effectid>basic</effectid>
									<effectcategory>motion</effectcategory>
									<effecttype>motion</effecttype>
									<mediatype>video</mediatype>
									<parameter authoringApp="PremierePro">
										<parameterid>scale</parameterid>
										<name>Scale</name>
										<valuemin>0</valuemin>
										<valuemax>1000</valuemax>
										<value>129.514</value>
									</parameter>
									<parameter authoringApp="PremierePro">
										<parameterid>rotation</parameterid>
										<name>Rotation</name>
										<valuemin>-8640</valuemin>
										<valuemax>8640</valuemax>
										<value>0</value>
									</parameter>
									<parameter authoringApp="PremierePro">
										<parameterid>center</parameterid>
										<name>Center</name>
										<value>
											<horiz>0.00401003</horiz>
											<vert>0.230615</vert>
										</value>
									</parameter>
									<parameter authoringApp="PremierePro">
										<parameterid>centerOffset</parameterid>
										<name>Anchor Point</name>
										<value>
											<horiz>0</horiz>
											<vert>0</vert>
										</value>
									</parameter>
								</effect>
							</filter>
							<filter>
								<effect>
									<name>Distort</name>
									<effectid>deformation</effectid>
									<effectcategory>motion</effectcategory>
									<effecttype>motion</effecttype>
									<mediatype>video</mediatype>
									<parameter authoringApp="PremierePro">
										<parameterid>aspect</parameterid>
										<name>Aspect</name>
										<valuemin>-10000</valuemin>
										<valuemax>10000</valuemax>
										<value>-9.40171</value>
									</parameter>
								</effect>
							</filter>
						<logginginfo>
							<description></description>
							<scene></scene>
							<shottake></shottake>
							<lognote></lognote>
						</logginginfo>
						<labels>
							<label2>Iris</label2>
						</labels>
					</clipitem>
					<clipitem id="clipitem-244">
						<masterclipid>masterclip-6</masterclipid>
						<name>NSPO30604105AA.mxf</name>
						<enabled>TRUE</enabled>
						<duration>89255</duration>
						<rate>
							<timebase>25</timebase>
							<ntsc>FALSE</ntsc>
						</rate>
						<start>38303</start>
						<end>38346</end>
						<in>75592</in>
						<out>75635</out>
						<pproTicksIn>768063098880000</pproTicksIn>
						<pproTicksOut>768500006400000</pproTicksOut>
						<alphatype>none</alphatype>
						<file id="file-5"/>
							<filter>
								<effect>
									<name>Basic Motion</name>
									<effectid>basic</effectid>
									<effectcategory>motion</effectcategory>
									<effecttype>motion</effecttype>
									<mediatype>video</mediatype>
									<parameter authoringApp="PremierePro">
										<parameterid>scale</parameterid>
										<name>Scale</name>
										<valuemin>0</valuemin>
										<valuemax>1000</valuemax>
										<value>129.514</value>
									</parameter>
									<parameter authoringApp="PremierePro">
										<parameterid>rotation</parameterid>
										<name>Rotation</name>
										<valuemin>-8640</valuemin>
										<valuemax>8640</valuemax>
										<value>0</value>
									</parameter>
									<parameter authoringApp="PremierePro">
										<parameterid>center</parameterid>
										<name>Center</name>
										<value>
											<horiz>0.00401003</horiz>
											<vert>0.230615</vert>
										</value>
									</parameter>
									<parameter authoringApp="PremierePro">
										<parameterid>centerOffset</parameterid>
										<name>Anchor Point</name>
										<value>
											<horiz>0</horiz>
											<vert>0</vert>
										</value>
									</parameter>
								</effect>
							</filter>
							<filter>
								<effect>
									<name>Distort</name>
									<effectid>deformation</effectid>
									<effectcategory>motion</effectcategory>
									<effecttype>motion</effecttype>
									<mediatype>video</mediatype>
									<parameter authoringApp="PremierePro">
										<parameterid>aspect</parameterid>
										<name>Aspect</name>
										<valuemin>-10000</valuemin>
										<valuemax>10000</valuemax>
										<value>-9.40171</value>
									</parameter>
								</effect>
							</filter>
						<logginginfo>
							<description></description>
							<scene></scene>
							<shottake></shottake>
							<lognote></lognote>
						</logginginfo>
						<labels>
							<label2>Iris</label2>
						</labels>
					</clipitem>
					<clipitem id="clipitem-245">
						<masterclipid>masterclip-6</masterclipid>
						<name>NSPO30604105AA.mxf</name>
						<enabled>TRUE</enabled>
						<duration>89255</duration>
						<rate>
							<timebase>25</timebase>
							<ntsc>FALSE</ntsc>
						</rate>
						<start>38346</start>
						<end>38399</end>
						<in>75519</in>
						<out>75572</out>
						<pproTicksIn>767321372160000</pproTicksIn>
						<pproTicksOut>767859886080000</pproTicksOut>
						<alphatype>none</alphatype>
						<file id="file-5"/>
							<filter>
								<effect>
									<name>Basic Motion</name>
									<effectid>basic</effectid>
									<effectcategory>motion</effectcategory>
									<effecttype>motion</effecttype>
									<mediatype>video</mediatype>
									<parameter authoringApp="PremierePro">
										<parameterid>scale</parameterid>
										<name>Scale</name>
										<valuemin>0</valuemin>
										<valuemax>1000</valuemax>
										<value>129.514</value>
									</parameter>
									<parameter authoringApp="PremierePro">
										<parameterid>rotation</parameterid>
										<name>Rotation</name>
										<valuemin>-8640</valuemin>
										<valuemax>8640</valuemax>
										<value>0</value>
									</parameter>
									<parameter authoringApp="PremierePro">
										<parameterid>center</parameterid>
										<name>Center</name>
										<value>
											<horiz>0.00401003</horiz>
											<vert>0.230615</vert>
										</value>
									</parameter>
									<parameter authoringApp="PremierePro">
										<parameterid>centerOffset</parameterid>
										<name>Anchor Point</name>
										<value>
											<horiz>0</horiz>
											<vert>0</vert>
										</value>
									</parameter>
								</effect>
							</filter>
							<filter>
								<effect>
									<name>Distort</name>
									<effectid>deformation</effectid>
									<effectcategory>motion</effectcategory>
									<effecttype>motion</effecttype>
									<mediatype>video</mediatype>
									<parameter authoringApp="PremierePro">
										<parameterid>aspect</parameterid>
										<name>Aspect</name>
										<valuemin>-10000</valuemin>
										<valuemax>10000</valuemax>
										<value>-9.40171</value>
									</parameter>
								</effect>
							</filter>
						<logginginfo>
							<description></description>
							<scene></scene>
							<shottake></shottake>
							<lognote></lognote>
						</logginginfo>
						<labels>
							<label2>Iris</label2>
						</labels>
					</clipitem>
					<clipitem id="clipitem-246">
						<masterclipid>masterclip-6</masterclipid>
						<name>NSPO30604105AA.mxf</name>
						<enabled>TRUE</enabled>
						<duration>89255</duration>
						<rate>
							<timebase>25</timebase>
							<ntsc>FALSE</ntsc>
						</rate>
						<start>38399</start>
						<end>38656</end>
						<in>68413</in>
						<out>68670</out>
						<pproTicksIn>695119864320000</pproTicksIn>
						<pproTicksOut>697731148800000</pproTicksOut>
						<alphatype>none</alphatype>
						<file id="file-5"/>
							<filter>
								<effect>
									<name>Basic Motion</name>
									<effectid>basic</effectid>
									<effectcategory>motion</effectcategory>
									<effecttype>motion</effecttype>
									<mediatype>video</mediatype>
									<parameter authoringApp="PremierePro">
										<parameterid>scale</parameterid>
										<name>Scale</name>
										<valuemin>0</valuemin>
										<valuemax>1000</valuemax>
										<value>131.652</value>
									</parameter>
									<parameter authoringApp="PremierePro">
										<parameterid>rotation</parameterid>
										<name>Rotation</name>
										<valuemin>-8640</valuemin>
										<valuemax>8640</valuemax>
										<value>0</value>
									</parameter>
									<parameter authoringApp="PremierePro">
										<parameterid>center</parameterid>
										<name>Center</name>
										<value>
											<horiz>0.0120301</horiz>
											<vert>0</vert>
										</value>
									</parameter>
									<parameter authoringApp="PremierePro">
										<parameterid>centerOffset</parameterid>
										<name>Anchor Point</name>
										<value>
											<horiz>0</horiz>
											<vert>0</vert>
										</value>
									</parameter>
								</effect>
							</filter>
							<filter>
								<effect>
									<name>Distort</name>
									<effectid>deformation</effectid>
									<effectcategory>motion</effectcategory>
									<effecttype>motion</effecttype>
									<mediatype>video</mediatype>
									<parameter authoringApp="PremierePro">
										<parameterid>aspect</parameterid>
										<name>Aspect</name>
										<valuemin>-10000</valuemin>
										<valuemax>10000</valuemax>
										<value>-9.40171</value>
									</parameter>
								</effect>
							</filter>
						<logginginfo>
							<description></description>
							<scene></scene>
							<shottake></shottake>
							<lognote></lognote>
						</logginginfo>
						<labels>
							<label2>Iris</label2>
						</labels>
					</clipitem>
					<clipitem id="clipitem-247">
						<masterclipid>masterclip-6</masterclipid>
						<name>NSPO30604105AA.mxf</name>
						<enabled>TRUE</enabled>
						<duration>89255</duration>
						<rate>
							<timebase>25</timebase>
							<ntsc>FALSE</ntsc>
						</rate>
						<start>38656</start>
						<end>38769</end>
						<in>66550</in>
						<out>66663</out>
						<pproTicksIn>676190592000000</pproTicksIn>
						<pproTicksOut>677338744320000</pproTicksOut>
						<alphatype>none</alphatype>
						<file id="file-5"/>
							<filter>
								<effect>
									<name>Basic Motion</name>
									<effectid>basic</effectid>
									<effectcategory>motion</effectcategory>
									<effecttype>motion</effecttype>
									<mediatype>video</mediatype>
									<parameter authoringApp="PremierePro">
										<parameterid>scale</parameterid>
										<name>Scale</name>
										<valuemin>0</valuemin>
										<valuemax>1000</valuemax>
										<value>131.652</value>
									</parameter>
									<parameter authoringApp="PremierePro">
										<parameterid>rotation</parameterid>
										<name>Rotation</name>
										<valuemin>-8640</valuemin>
										<valuemax>8640</valuemax>
										<value>0</value>
									</parameter>
									<parameter authoringApp="PremierePro">
										<parameterid>center</parameterid>
										<name>Center</name>
										<value>
											<horiz>0.0120301</horiz>
											<vert>0</vert>
										</value>
									</parameter>
									<parameter authoringApp="PremierePro">
										<parameterid>centerOffset</parameterid>
										<name>Anchor Point</name>
										<value>
											<horiz>0</horiz>
											<vert>0</vert>
										</value>
									</parameter>
								</effect>
							</filter>
							<filter>
								<effect>
									<name>Distort</name>
									<effectid>deformation</effectid>
									<effectcategory>motion</effectcategory>
									<effecttype>motion</effecttype>
									<mediatype>video</mediatype>
									<parameter authoringApp="PremierePro">
										<parameterid>aspect</parameterid>
										<name>Aspect</name>
										<valuemin>-10000</valuemin>
										<valuemax>10000</valuemax>
										<value>-9.40171</value>
									</parameter>
								</effect>
							</filter>
						<logginginfo>
							<description></description>
							<scene></scene>
							<shottake></shottake>
							<lognote></lognote>
						</logginginfo>
						<labels>
							<label2>Iris</label2>
						</labels>
					</clipitem>
					<clipitem id="clipitem-248">
						<masterclipid>masterclip-6</masterclipid>
						<name>NSPO30604105AA.mxf</name>
						<enabled>TRUE</enabled>
						<duration>89255</duration>
						<rate>
							<timebase>25</timebase>
							<ntsc>FALSE</ntsc>
						</rate>
						<start>38769</start>
						<end>38809</end>
						<in>67918</in>
						<out>67958</out>
						<pproTicksIn>690090347520000</pproTicksIn>
						<pproTicksOut>690496773120000</pproTicksOut>
						<alphatype>none</alphatype>
						<file id="file-5"/>
							<filter>
								<effect>
									<name>Basic Motion</name>
									<effectid>basic</effectid>
									<effectcategory>motion</effectcategory>
									<effecttype>motion</effecttype>
									<mediatype>video</mediatype>
									<parameter authoringApp="PremierePro">
										<parameterid>scale</parameterid>
										<name>Scale</name>
										<valuemin>0</valuemin>
										<valuemax>1000</valuemax>
										<value>131.652</value>
									</parameter>
									<parameter authoringApp="PremierePro">
										<parameterid>rotation</parameterid>
										<name>Rotation</name>
										<valuemin>-8640</valuemin>
										<valuemax>8640</valuemax>
										<value>0</value>
									</parameter>
									<parameter authoringApp="PremierePro">
										<parameterid>center</parameterid>
										<name>Center</name>
										<value>
											<horiz>0.0120301</horiz>
											<vert>0</vert>
										</value>
									</parameter>
									<parameter authoringApp="PremierePro">
										<parameterid>centerOffset</parameterid>
										<name>Anchor Point</name>
										<value>
											<horiz>0</horiz>
											<vert>0</vert>
										</value>
									</parameter>
								</effect>
							</filter>
							<filter>
								<effect>
									<name>Distort</name>
									<effectid>deformation</effectid>
									<effectcategory>motion</effectcategory>
									<effecttype>motion</effecttype>
									<mediatype>video</mediatype>
									<parameter authoringApp="PremierePro">
										<parameterid>aspect</parameterid>
										<name>Aspect</name>
										<valuemin>-10000</valuemin>
										<valuemax>10000</valuemax>
										<value>-9.40171</value>
									</parameter>
								</effect>
							</filter>
						<logginginfo>
							<description></description>
							<scene></scene>
							<shottake></shottake>
							<lognote></lognote>
						</logginginfo>
						<labels>
							<label2>Iris</label2>
						</labels>
					</clipitem>
					<clipitem id="clipitem-249">
						<masterclipid>masterclip-6</masterclipid>
						<name>NSPO30604105AA.mxf</name>
						<enabled>TRUE</enabled>
						<duration>89255</duration>
						<rate>
							<timebase>25</timebase>
							<ntsc>FALSE</ntsc>
						</rate>
						<start>38809</start>
						<end>38982</end>
						<in>65612</in>
						<out>65785</out>
						<pproTicksIn>666659911680000</pproTicksIn>
						<pproTicksOut>668417702400000</pproTicksOut>
						<alphatype>none</alphatype>
						<file id="file-5"/>
							<filter>
								<effect>
									<name>Basic Motion</name>
									<effectid>basic</effectid>
									<effectcategory>motion</effectcategory>
									<effecttype>motion</effecttype>
									<mediatype>video</mediatype>
									<parameter authoringApp="PremierePro">
										<parameterid>scale</parameterid>
										<name>Scale</name>
										<valuemin>0</valuemin>
										<valuemax>1000</valuemax>
										<value>131.652</value>
									</parameter>
									<parameter authoringApp="PremierePro">
										<parameterid>rotation</parameterid>
										<name>Rotation</name>
										<valuemin>-8640</valuemin>
										<valuemax>8640</valuemax>
										<value>0</value>
									</parameter>
									<parameter authoringApp="PremierePro">
										<parameterid>center</parameterid>
										<name>Center</name>
										<value>
											<horiz>0.0120301</horiz>
											<vert>0</vert>
										</value>
									</parameter>
									<parameter authoringApp="PremierePro">
										<parameterid>centerOffset</parameterid>
										<name>Anchor Point</name>
										<value>
											<horiz>0</horiz>
											<vert>0</vert>
										</value>
									</parameter>
								</effect>
							</filter>
							<filter>
								<effect>
									<name>Distort</name>
									<effectid>deformation</effectid>
									<effectcategory>motion</effectcategory>
									<effecttype>motion</effecttype>
									<mediatype>video</mediatype>
									<parameter authoringApp="PremierePro">
										<parameterid>aspect</parameterid>
										<name>Aspect</name>
										<valuemin>-10000</valuemin>
										<valuemax>10000</valuemax>
										<value>-9.40171</value>
									</parameter>
								</effect>
							</filter>
						<logginginfo>
							<description></description>
							<scene></scene>
							<shottake></shottake>
							<lognote></lognote>
						</logginginfo>
						<labels>
							<label2>Iris</label2>
						</labels>
					</clipitem>
					<clipitem id="clipitem-250">
						<masterclipid>masterclip-6</masterclipid>
						<name>NSPO30604105AA.mxf</name>
						<enabled>TRUE</enabled>
						<duration>89255</duration>
						<rate>
							<timebase>25</timebase>
							<ntsc>FALSE</ntsc>
						</rate>
						<start>38982</start>
						<end>39276</end>
						<in>62884</in>
						<out>63178</out>
						<pproTicksIn>638941685760000</pproTicksIn>
						<pproTicksOut>641928913920000</pproTicksOut>
						<alphatype>none</alphatype>
						<file id="file-5"/>
							<filter>
								<effect>
									<name>Basic Motion</name>
									<effectid>basic</effectid>
									<effectcategory>motion</effectcategory>
									<effecttype>motion</effecttype>
									<mediatype>video</mediatype>
									<parameter authoringApp="PremierePro">
										<parameterid>scale</parameterid>
										<name>Scale</name>
										<valuemin>0</valuemin>
										<valuemax>1000</valuemax>
										<value>131.652</value>
									</parameter>
									<parameter authoringApp="PremierePro">
										<parameterid>rotation</parameterid>
										<name>Rotation</name>
										<valuemin>-8640</valuemin>
										<valuemax>8640</valuemax>
										<value>0</value>
									</parameter>
									<parameter authoringApp="PremierePro">
										<parameterid>center</parameterid>
										<name>Center</name>
										<value>
											<horiz>0.0120301</horiz>
											<vert>0</vert>
										</value>
									</parameter>
									<parameter authoringApp="PremierePro">
										<parameterid>centerOffset</parameterid>
										<name>Anchor Point</name>
										<value>
											<horiz>0</horiz>
											<vert>0</vert>
										</value>
									</parameter>
								</effect>
							</filter>
							<filter>
								<effect>
									<name>Distort</name>
									<effectid>deformation</effectid>
									<effectcategory>motion</effectcategory>
									<effecttype>motion</effecttype>
									<mediatype>video</mediatype>
									<parameter authoringApp="PremierePro">
										<parameterid>aspect</parameterid>
										<name>Aspect</name>
										<valuemin>-10000</valuemin>
										<valuemax>10000</valuemax>
										<value>-9.40171</value>
									</parameter>
								</effect>
							</filter>
						<logginginfo>
							<description></description>
							<scene></scene>
							<shottake></shottake>
							<lognote></lognote>
						</logginginfo>
						<labels>
							<label2>Iris</label2>
						</labels>
					</clipitem>
					<clipitem id="clipitem-251">
						<masterclipid>masterclip-6</masterclipid>
						<name>NSPO30604105AA.mxf</name>
						<enabled>TRUE</enabled>
						<duration>89255</duration>
						<rate>
							<timebase>25</timebase>
							<ntsc>FALSE</ntsc>
						</rate>
						<start>39276</start>
						<end>39531</end>
						<in>63375</in>
						<out>63630</out>
						<pproTicksIn>643930560000000</pproTicksIn>
						<pproTicksOut>646521523200000</pproTicksOut>
						<alphatype>none</alphatype>
						<file id="file-5"/>
							<filter>
								<effect>
									<name>Basic Motion</name>
									<effectid>basic</effectid>
									<effectcategory>motion</effectcategory>
									<effecttype>motion</effecttype>
									<mediatype>video</mediatype>
									<parameter authoringApp="PremierePro">
										<parameterid>scale</parameterid>
										<name>Scale</name>
										<valuemin>0</valuemin>
										<valuemax>1000</valuemax>
										<value>131.652</value>
									</parameter>
									<parameter authoringApp="PremierePro">
										<parameterid>rotation</parameterid>
										<name>Rotation</name>
										<valuemin>-8640</valuemin>
										<valuemax>8640</valuemax>
										<value>0</value>
									</parameter>
									<parameter authoringApp="PremierePro">
										<parameterid>center</parameterid>
										<name>Center</name>
										<value>
											<horiz>0.0120301</horiz>
											<vert>0</vert>
										</value>
									</parameter>
									<parameter authoringApp="PremierePro">
										<parameterid>centerOffset</parameterid>
										<name>Anchor Point</name>
										<value>
											<horiz>0</horiz>
											<vert>0</vert>
										</value>
									</parameter>
								</effect>
							</filter>
							<filter>
								<effect>
									<name>Distort</name>
									<effectid>deformation</effectid>
									<effectcategory>motion</effectcategory>
									<effecttype>motion</effecttype>
									<mediatype>video</mediatype>
									<parameter authoringApp="PremierePro">
										<parameterid>aspect</parameterid>
										<name>Aspect</name>
										<valuemin>-10000</valuemin>
										<valuemax>10000</valuemax>
										<value>-9.40171</value>
									</parameter>
								</effect>
							</filter>
						<logginginfo>
							<description></description>
							<scene></scene>
							<shottake></shottake>
							<lognote></lognote>
						</logginginfo>
						<labels>
							<label2>Iris</label2>
						</labels>
					</clipitem>
					<clipitem id="clipitem-252">
						<masterclipid>masterclip-6</masterclipid>
						<name>NSPO30604105AA.mxf</name>
						<enabled>TRUE</enabled>
						<duration>89255</duration>
						<rate>
							<timebase>25</timebase>
							<ntsc>FALSE</ntsc>
						</rate>
						<start>39531</start>
						<end>39647</end>
						<in>63669</in>
						<out>63785</out>
						<pproTicksIn>646917788160000</pproTicksIn>
						<pproTicksOut>648096422400000</pproTicksOut>
						<alphatype>none</alphatype>
						<file id="file-5"/>
							<filter>
								<effect>
									<name>Basic Motion</name>
									<effectid>basic</effectid>
									<effectcategory>motion</effectcategory>
									<effecttype>motion</effecttype>
									<mediatype>video</mediatype>
									<parameter authoringApp="PremierePro">
										<parameterid>scale</parameterid>
										<name>Scale</name>
										<valuemin>0</valuemin>
										<valuemax>1000</valuemax>
										<value>131.652</value>
									</parameter>
									<parameter authoringApp="PremierePro">
										<parameterid>rotation</parameterid>
										<name>Rotation</name>
										<valuemin>-8640</valuemin>
										<valuemax>8640</valuemax>
										<value>0</value>
									</parameter>
									<parameter authoringApp="PremierePro">
										<parameterid>center</parameterid>
										<name>Center</name>
										<value>
											<horiz>0.0120301</horiz>
											<vert>0</vert>
										</value>
									</parameter>
									<parameter authoringApp="PremierePro">
										<parameterid>centerOffset</parameterid>
										<name>Anchor Point</name>
										<value>
											<horiz>0</horiz>
											<vert>0</vert>
										</value>
									</parameter>
								</effect>
							</filter>
							<filter>
								<effect>
									<name>Distort</name>
									<effectid>deformation</effectid>
									<effectcategory>motion</effectcategory>
									<effecttype>motion</effecttype>
									<mediatype>video</mediatype>
									<parameter authoringApp="PremierePro">
										<parameterid>aspect</parameterid>
										<name>Aspect</name>
										<valuemin>-10000</valuemin>
										<valuemax>10000</valuemax>
										<value>-9.40171</value>
									</parameter>
								</effect>
							</filter>
						<logginginfo>
							<description></description>
							<scene></scene>
							<shottake></shottake>
							<lognote></lognote>
						</logginginfo>
						<labels>
							<label2>Iris</label2>
						</labels>
					</clipitem>
					<clipitem id="clipitem-253">
						<masterclipid>masterclip-7</masterclipid>
						<name>Rønneberg</name>
						<enabled>TRUE</enabled>
						<duration>325</duration>
						<rate>
							<timebase>25</timebase>
							<ntsc>FALSE</ntsc>
						</rate>
						<start>39647</start>
						<end>39811</end>
						<in>0</in>
						<out>164</out>
						<pproTicksIn>0</pproTicksIn>
						<pproTicksOut>1666344960000</pproTicksOut>
						<sequence id="sequence-2" TL.SQAudioVisibleBase="0" TL.SQVideoVisibleBase="0" TL.SQVisibleBaseTime="0" TL.SQAVDividerPosition="0.5" TL.SQHideShyTracks="0" TL.SQHeaderWidth="184" Monitor.ProgramZoomOut="3302208000000" Monitor.ProgramZoomIn="0" TL.SQTimePerPixel="0.0096480121163520696" AM.TrackVScrollPosition="0" AM.TrackScrollPosition="0" MZ.EditLine="0" MZ.Sequence.PreviewFrameSizeHeight="1080" MZ.Sequence.PreviewFrameSizeWidth="1920" MZ.Sequence.AudioTimeDisplayFormat="200" MZ.Sequence.PreviewRenderingClassID="1297106761" MZ.Sequence.PreviewRenderingPresetCodec="1297107278" MZ.Sequence.PreviewRenderingPresetPath="EncoderPresets/SequencePreview/bcb27263-0b7a-406f-bda9-3d3796f18c3a/I-Frame Only MPEG.epr" MZ.Sequence.PreviewUseMaxRenderQuality="false" MZ.Sequence.PreviewUseMaxBitDepth="false" MZ.Sequence.EditingModeGUID="bcb27263-0b7a-406f-bda9-3d3796f18c3a" MZ.Sequence.VideoTimeDisplayFormat="101" MZ.WorkOutPoint="3302208000000" MZ.WorkInPoint="0">
							<duration>325</duration>
							<rate>
								<timebase>25</timebase>
								<ntsc>FALSE</ntsc>
							</rate>
							<name>Rønneberg</name>
							<media>
								<video>
									<format>
										<samplecharacteristics>
											<rate>
												<timebase>25</timebase>
												<ntsc>FALSE</ntsc>
											</rate>
											<codec>
												<name>Apple ProRes 422</name>
												<appspecificdata>
													<appname>Final Cut Pro</appname>
													<appmanufacturer>Apple Inc.</appmanufacturer>
													<appversion>7.0</appversion>
													<data>
														<qtcodec>
															<codecname>Apple ProRes 422</codecname>
															<codectypename>Apple ProRes 422</codectypename>
															<codectypecode>apcn</codectypecode>
															<codecvendorcode>appl</codecvendorcode>
															<spatialquality>1024</spatialquality>
															<temporalquality>0</temporalquality>
															<keyframerate>0</keyframerate>
															<datarate>0</datarate>
														</qtcodec>
													</data>
												</appspecificdata>
											</codec>
											<width>1920</width>
											<height>1080</height>
											<anamorphic>FALSE</anamorphic>
											<pixelaspectratio>square</pixelaspectratio>
											<fielddominance>upper</fielddominance>
											<colordepth>24</colordepth>
										</samplecharacteristics>
									</format>
									<track TL.SQTrackShy="0" TL.SQTrackExpandedHeight="25" TL.SQTrackExpanded="0" MZ.TrackTargeted="1">
										<clipitem id="clipitem-254">
											<masterclipid>masterclip-8</masterclipid>
											<name>rõnneberg i kollen 1.jpg</name>
											<enabled>TRUE</enabled>
											<duration>1080000</duration>
											<rate>
												<timebase>25</timebase>
												<ntsc>FALSE</ntsc>
											</rate>
											<start>0</start>
											<end>325</end>
											<in>90000</in>
											<out>90325</out>
											<pproTicksIn>914457600000000</pproTicksIn>
											<pproTicksOut>917759808000000</pproTicksOut>
											<alphatype>none</alphatype>
											<pixelaspectratio>square</pixelaspectratio>
											<anamorphic>FALSE</anamorphic>
											<file id="file-6">
												<name>rõnneberg i kollen 1.jpg</name>
												<pathurl>file://localhost/Volumes/Brakka/AdobeLager/QUIZ%20-%20brakka/Arkivstoff/2005/Faksimiler/jpg/ro%cc%83nneberg%20i%20kollen%201.jpg</pathurl>
												<rate>
													<timebase>30</timebase>
													<ntsc>TRUE</ntsc>
												</rate>
												<timecode>
													<rate>
														<timebase>30</timebase>
														<ntsc>TRUE</ntsc>
													</rate>
													<string>00;00;00;00</string>
													<frame>0</frame>
													<displayformat>DF</displayformat>
													<reel>
														<name></name>
													</reel>
												</timecode>
												<media>
													<video>
														<samplecharacteristics>
															<rate>
																<timebase>30</timebase>
																<ntsc>TRUE</ntsc>
															</rate>
															<width>1567</width>
															<height>2317</height>
															<anamorphic>FALSE</anamorphic>
															<pixelaspectratio>square</pixelaspectratio>
															<fielddominance>none</fielddominance>
														</samplecharacteristics>
													</video>
												</media>
											</file>
												<filter>
													<effect>
														<name>Basic Motion</name>
														<effectid>basic</effectid>
														<effectcategory>motion</effectcategory>
														<effecttype>motion</effecttype>
														<mediatype>video</mediatype>
														<parameter authoringApp="PremierePro">
															<parameterid>scale</parameterid>
															<name>Scale</name>
															<valuemin>0</valuemin>
															<valuemax>1000</valuemax>
															<value>100</value>
														</parameter>
														<parameter authoringApp="PremierePro">
															<parameterid>rotation</parameterid>
															<name>Rotation</name>
															<valuemin>-8640</valuemin>
															<valuemax>8640</valuemax>
															<value>0</value>
														</parameter>
														<parameter authoringApp="PremierePro">
															<parameterid>center</parameterid>
															<name>Center</name>
															<value>
																<horiz>-0.232291</horiz>
																<vert>0</vert>
															</value>
														</parameter>
														<parameter authoringApp="PremierePro">
															<parameterid>centerOffset</parameterid>
															<name>Anchor Point</name>
															<value>
																<horiz>0</horiz>
																<vert>0</vert>
															</value>
														</parameter>
													</effect>
												</filter>
											<logginginfo>
												<description></description>
												<scene></scene>
												<shottake></shottake>
												<lognote></lognote>
											</logginginfo>
											<labels>
												<label2>Lavender</label2>
											</labels>
										</clipitem>
										<enabled>TRUE</enabled>
										<locked>FALSE</locked>
									</track>
									<track TL.SQTrackShy="0" TL.SQTrackExpandedHeight="25" TL.SQTrackExpanded="0" MZ.TrackTargeted="0">
										<clipitem id="clipitem-255">
											<masterclipid>masterclip-9</masterclipid>
											<name>rõnneberg i kollen 2.jpg</name>
											<enabled>TRUE</enabled>
											<duration>1080000</duration>
											<rate>
												<timebase>25</timebase>
												<ntsc>FALSE</ntsc>
											</rate>
											<start>0</start>
											<end>325</end>
											<in>90000</in>
											<out>90325</out>
											<pproTicksIn>914457600000000</pproTicksIn>
											<pproTicksOut>917759808000000</pproTicksOut>
											<alphatype>none</alphatype>
											<pixelaspectratio>square</pixelaspectratio>
											<anamorphic>FALSE</anamorphic>
											<file id="file-7">
												<name>rõnneberg i kollen 2.jpg</name>
												<pathurl>file://localhost/Volumes/Brakka/AdobeLager/QUIZ%20-%20brakka/Arkivstoff/2005/Faksimiler/jpg/ro%cc%83nneberg%20i%20kollen%202.jpg</pathurl>
												<rate>
													<timebase>30</timebase>
													<ntsc>TRUE</ntsc>
												</rate>
												<timecode>
													<rate>
														<timebase>30</timebase>
														<ntsc>TRUE</ntsc>
													</rate>
													<string>00;00;00;00</string>
													<frame>0</frame>
													<displayformat>DF</displayformat>
													<reel>
														<name></name>
													</reel>
												</timecode>
												<media>
													<video>
														<samplecharacteristics>
															<rate>
																<timebase>30</timebase>
																<ntsc>TRUE</ntsc>
															</rate>
															<width>1567</width>
															<height>2317</height>
															<anamorphic>FALSE</anamorphic>
															<pixelaspectratio>square</pixelaspectratio>
															<fielddominance>none</fielddominance>
														</samplecharacteristics>
													</video>
												</media>
											</file>
												<filter>
													<effect>
														<name>Basic Motion</name>
														<effectid>basic</effectid>
														<effectcategory>motion</effectcategory>
														<effecttype>motion</effecttype>
														<mediatype>video</mediatype>
														<parameter authoringApp="PremierePro">
															<parameterid>scale</parameterid>
															<name>Scale</name>
															<valuemin>0</valuemin>
															<valuemax>1000</valuemax>
															<value>100</value>
														</parameter>
														<parameter authoringApp="PremierePro">
															<parameterid>rotation</parameterid>
															<name>Rotation</name>
															<valuemin>-8640</valuemin>
															<valuemax>8640</valuemax>
															<value>0</value>
														</parameter>
														<parameter authoringApp="PremierePro">
															<parameterid>center</parameterid>
															<name>Center</name>
															<value>
																<horiz>0.233567</horiz>
																<vert>0</vert>
															</value>
														</parameter>
														<parameter authoringApp="PremierePro">
															<parameterid>centerOffset</parameterid>
															<name>Anchor Point</name>
															<value>
																<horiz>0</horiz>
																<vert>0</vert>
															</value>
														</parameter>
													</effect>
												</filter>
											<logginginfo>
												<description></description>
												<scene></scene>
												<shottake></shottake>
												<lognote></lognote>
											</logginginfo>
											<labels>
												<label2>Lavender</label2>
											</labels>
										</clipitem>
										<enabled>TRUE</enabled>
										<locked>FALSE</locked>
									</track>
								</video>
								<audio>
									<numOutputChannels>2</numOutputChannels>
									<format>
										<samplecharacteristics>
											<depth>16</depth>
											<samplerate>48000</samplerate>
										</samplecharacteristics>
									</format>
									<outputs>
										<group>
											<index>1</index>
											<numchannels>1</numchannels>
											<downmix>0</downmix>
											<channel>
												<index>1</index>
											</channel>
										</group>
										<group>
											<index>2</index>
											<numchannels>1</numchannels>
											<downmix>0</downmix>
											<channel>
												<index>2</index>
											</channel>
										</group>
									</outputs>
									<track TL.SQTrackAudioKeyframeStyle="0" TL.SQTrackShy="0" TL.SQTrackExpandedHeight="50" TL.SQTrackExpanded="1" MZ.TrackTargeted="1" PannerCurrentValue="0.5" PannerIsInverted="true" PannerStartKeyframe="-91445760000000000,0.5,0,0,0,0,0,0" PannerName="Balance" currentExplodedTrackIndex="0" totalExplodedTrackCount="2" premiereTrackType="Stereo">
										<enabled>TRUE</enabled>
										<locked>FALSE</locked>
										<outputchannelindex>1</outputchannelindex>
									</track>
									<track TL.SQTrackAudioKeyframeStyle="0" TL.SQTrackShy="0" TL.SQTrackExpandedHeight="50" TL.SQTrackExpanded="1" MZ.TrackTargeted="1" PannerCurrentValue="0.5" PannerIsInverted="true" PannerStartKeyframe="-91445760000000000,0.5,0,0,0,0,0,0" PannerName="Balance" currentExplodedTrackIndex="1" totalExplodedTrackCount="2" premiereTrackType="Stereo">
										<enabled>TRUE</enabled>
										<locked>FALSE</locked>
										<outputchannelindex>2</outputchannelindex>
									</track>
								</audio>
							</media>
							<timecode>
								<rate>
									<timebase>25</timebase>
									<ntsc>FALSE</ntsc>
								</rate>
								<string>00:00:00:00</string>
								<frame>0</frame>
								<displayformat>NDF</displayformat>
							</timecode>
						</sequence>
							<filter>
								<effect>
									<name>Basic Motion</name>
									<effectid>basic</effectid>
									<effectcategory>motion</effectcategory>
									<effecttype>motion</effecttype>
									<mediatype>video</mediatype>
									<parameter authoringApp="PremierePro">
										<parameterid>scale</parameterid>
										<name>Scale</name>
										<valuemin>0</valuemin>
										<valuemax>1000</valuemax>
										<value>100</value>
									</parameter>
									<parameter authoringApp="PremierePro">
										<parameterid>rotation</parameterid>
										<name>Rotation</name>
										<valuemin>-8640</valuemin>
										<valuemax>8640</valuemax>
										<value>0</value>
									</parameter>
									<parameter authoringApp="PremierePro">
										<parameterid>center</parameterid>
										<name>Center</name>
										<value>
											<horiz>-0.5</horiz>
											<vert>-0.5</vert>
										</value>
									</parameter>
									<parameter authoringApp="PremierePro">
										<parameterid>centerOffset</parameterid>
										<name>Anchor Point</name>
										<value>
											<horiz>0</horiz>
											<vert>0</vert>
										</value>
									</parameter>
								</effect>
							</filter>
						<labels>
							<label2>Forest</label2>
						</labels>
					</clipitem>
					<clipitem id="clipitem-256">
						<masterclipid>masterclip-10</masterclipid>
						<name>NNFA80750005AA.mxf</name>
						<enabled>TRUE</enabled>
						<duration>81126</duration>
						<rate>
							<timebase>25</timebase>
							<ntsc>FALSE</ntsc>
						</rate>
						<start>39811</start>
						<end>39919</end>
						<in>75224</in>
						<out>75332</out>
						<pproTicksIn>764323983360000</pproTicksIn>
						<pproTicksOut>765421332480000</pproTicksOut>
						<alphatype>none</alphatype>
						<pixelaspectratio>PAL-601</pixelaspectratio>
						<anamorphic>FALSE</anamorphic>
						<file id="file-8">
							<name>NNFA80750005AA.mxf</name>
							<pathurl>file://localhost/Volumes/Brakka/AdobeLager/QUIZ%20-%20brakka/Arkivstoff/2005/Nyheter/NNFA80750005AA.mxf</pathurl>
							<rate>
								<timebase>25</timebase>
								<ntsc>FALSE</ntsc>
							</rate>
							<duration>81126</duration>
							<timecode>
								<rate>
									<timebase>25</timebase>
									<ntsc>FALSE</ntsc>
								</rate>
								<string>00:00:58:00</string>
								<frame>1450</frame>
								<displayformat>NDF</displayformat>
								<reel>
									<name></name>
								</reel>
							</timecode>
							<media>
								<video>
									<samplecharacteristics>
										<rate>
											<timebase>25</timebase>
											<ntsc>FALSE</ntsc>
										</rate>
										<width>720</width>
										<height>576</height>
										<anamorphic>FALSE</anamorphic>
										<pixelaspectratio>PAL-601</pixelaspectratio>
										<fielddominance>upper</fielddominance>
									</samplecharacteristics>
								</video>
								<audio>
									<samplecharacteristics>
										<depth>16</depth>
										<samplerate>48000</samplerate>
									</samplecharacteristics>
									<channelcount>2</channelcount>
								</audio>
							</media>
						</file>
							<filter>
								<effect>
									<name>Basic Motion</name>
									<effectid>basic</effectid>
									<effectcategory>motion</effectcategory>
									<effecttype>motion</effecttype>
									<mediatype>video</mediatype>
									<parameter authoringApp="PremierePro">
										<parameterid>scale</parameterid>
										<name>Scale</name>
										<valuemin>0</valuemin>
										<valuemax>1000</valuemax>
										<value>134</value>
									</parameter>
									<parameter authoringApp="PremierePro">
										<parameterid>rotation</parameterid>
										<name>Rotation</name>
										<valuemin>-8640</valuemin>
										<valuemax>8640</valuemax>
										<value>0</value>
									</parameter>
									<parameter authoringApp="PremierePro">
										<parameterid>center</parameterid>
										<name>Center</name>
										<value>
											<horiz>0</horiz>
											<vert>-0.0833333</vert>
										</value>
									</parameter>
									<parameter authoringApp="PremierePro">
										<parameterid>centerOffset</parameterid>
										<name>Anchor Point</name>
										<value>
											<horiz>0</horiz>
											<vert>0</vert>
										</value>
									</parameter>
								</effect>
							</filter>
							<filter>
								<effect>
									<name>Distort</name>
									<effectid>deformation</effectid>
									<effectcategory>motion</effectcategory>
									<effecttype>motion</effecttype>
									<mediatype>video</mediatype>
									<parameter authoringApp="PremierePro">
										<parameterid>aspect</parameterid>
										<name>Aspect</name>
										<valuemin>-10000</valuemin>
										<valuemax>10000</valuemax>
										<value>-9.40171</value>
									</parameter>
								</effect>
							</filter>
						<logginginfo>
							<description></description>
							<scene></scene>
							<shottake></shottake>
							<lognote></lognote>
						</logginginfo>
						<labels>
							<label2>Iris</label2>
						</labels>
					</clipitem>
					<clipitem id="clipitem-257">
						<masterclipid>masterclip-10</masterclipid>
						<name>NNFA80750005AA.mxf</name>
						<enabled>TRUE</enabled>
						<duration>81126</duration>
						<rate>
							<timebase>25</timebase>
							<ntsc>FALSE</ntsc>
						</rate>
						<start>39919</start>
						<end>40110</end>
						<in>74736</in>
						<out>74927</out>
						<pproTicksIn>759365591040000</pproTicksIn>
						<pproTicksOut>761306273280000</pproTicksOut>
						<alphatype>none</alphatype>
						<file id="file-8"/>
							<filter>
								<effect>
									<name>Basic Motion</name>
									<effectid>basic</effectid>
									<effectcategory>motion</effectcategory>
									<effecttype>motion</effecttype>
									<mediatype>video</mediatype>
									<parameter authoringApp="PremierePro">
										<parameterid>scale</parameterid>
										<name>Scale</name>
										<valuemin>0</valuemin>
										<valuemax>1000</valuemax>
										<value>134</value>
									</parameter>
									<parameter authoringApp="PremierePro">
										<parameterid>rotation</parameterid>
										<name>Rotation</name>
										<valuemin>-8640</valuemin>
										<valuemax>8640</valuemax>
										<value>0</value>
									</parameter>
									<parameter authoringApp="PremierePro">
										<parameterid>center</parameterid>
										<name>Center</name>
										<value>
											<horiz>0</horiz>
											<vert>-0.0815972</vert>
										</value>
									</parameter>
									<parameter authoringApp="PremierePro">
										<parameterid>centerOffset</parameterid>
										<name>Anchor Point</name>
										<value>
											<horiz>0</horiz>
											<vert>0</vert>
										</value>
									</parameter>
								</effect>
							</filter>
							<filter>
								<effect>
									<name>Distort</name>
									<effectid>deformation</effectid>
									<effectcategory>motion</effectcategory>
									<effecttype>motion</effecttype>
									<mediatype>video</mediatype>
									<parameter authoringApp="PremierePro">
										<parameterid>aspect</parameterid>
										<name>Aspect</name>
										<valuemin>-10000</valuemin>
										<valuemax>10000</valuemax>
										<value>-9.40171</value>
									</parameter>
								</effect>
							</filter>
						<logginginfo>
							<description></description>
							<scene></scene>
							<shottake></shottake>
							<lognote></lognote>
						</logginginfo>
						<labels>
							<label2>Iris</label2>
						</labels>
					</clipitem>
					<clipitem id="clipitem-258">
						<masterclipid>masterclip-10</masterclipid>
						<name>NNFA80750005AA.mxf</name>
						<enabled>TRUE</enabled>
						<duration>81126</duration>
						<rate>
							<timebase>25</timebase>
							<ntsc>FALSE</ntsc>
						</rate>
						<start>40110</start>
						<end>40220</end>
						<in>75031</in>
						<out>75141</out>
						<pproTicksIn>762362979840000</pproTicksIn>
						<pproTicksOut>763480650240000</pproTicksOut>
						<alphatype>none</alphatype>
						<file id="file-8"/>
							<filter>
								<effect>
									<name>Basic Motion</name>
									<effectid>basic</effectid>
									<effectcategory>motion</effectcategory>
									<effecttype>motion</effecttype>
									<mediatype>video</mediatype>
									<parameter authoringApp="PremierePro">
										<parameterid>scale</parameterid>
										<name>Scale</name>
										<valuemin>0</valuemin>
										<valuemax>1000</valuemax>
										<value>134</value>
									</parameter>
									<parameter authoringApp="PremierePro">
										<parameterid>rotation</parameterid>
										<name>Rotation</name>
										<valuemin>-8640</valuemin>
										<valuemax>8640</valuemax>
										<value>0</value>
									</parameter>
									<parameter authoringApp="PremierePro">
										<parameterid>center</parameterid>
										<name>Center</name>
										<value>
											<horiz>0</horiz>
											<vert>-0.0815972</vert>
										</value>
									</parameter>
									<parameter authoringApp="PremierePro">
										<parameterid>centerOffset</parameterid>
										<name>Anchor Point</name>
										<value>
											<horiz>0</horiz>
											<vert>0</vert>
										</value>
									</parameter>
								</effect>
							</filter>
							<filter>
								<effect>
									<name>Distort</name>
									<effectid>deformation</effectid>
									<effectcategory>motion</effectcategory>
									<effecttype>motion</effecttype>
									<mediatype>video</mediatype>
									<parameter authoringApp="PremierePro">
										<parameterid>aspect</parameterid>
										<name>Aspect</name>
										<valuemin>-10000</valuemin>
										<valuemax>10000</valuemax>
										<value>-9.40171</value>
									</parameter>
								</effect>
							</filter>
						<logginginfo>
							<description></description>
							<scene></scene>
							<shottake></shottake>
							<lognote></lognote>
						</logginginfo>
						<labels>
							<label2>Iris</label2>
						</labels>
					</clipitem>
					<clipitem id="clipitem-259">
						<masterclipid>masterclip-10</masterclipid>
						<name>NNFA80750005AA.mxf</name>
						<enabled>TRUE</enabled>
						<duration>81126</duration>
						<rate>
							<timebase>25</timebase>
							<ntsc>FALSE</ntsc>
						</rate>
						<start>40220</start>
						<end>40368</end>
						<in>75274</in>
						<out>75422</out>
						<pproTicksIn>764832015360000</pproTicksIn>
						<pproTicksOut>766335790080000</pproTicksOut>
						<alphatype>none</alphatype>
						<file id="file-8"/>
							<filter>
								<effect>
									<name>Basic Motion</name>
									<effectid>basic</effectid>
									<effectcategory>motion</effectcategory>
									<effecttype>motion</effecttype>
									<mediatype>video</mediatype>
									<parameter authoringApp="PremierePro">
										<parameterid>scale</parameterid>
										<name>Scale</name>
										<valuemin>0</valuemin>
										<valuemax>1000</valuemax>
										<value>134</value>
									</parameter>
									<parameter authoringApp="PremierePro">
										<parameterid>rotation</parameterid>
										<name>Rotation</name>
										<valuemin>-8640</valuemin>
										<valuemax>8640</valuemax>
										<value>0</value>
									</parameter>
									<parameter authoringApp="PremierePro">
										<parameterid>center</parameterid>
										<name>Center</name>
										<value>
											<horiz>0</horiz>
											<vert>-0.0815972</vert>
										</value>
									</parameter>
									<parameter authoringApp="PremierePro">
										<parameterid>centerOffset</parameterid>
										<name>Anchor Point</name>
										<value>
											<horiz>0</horiz>
											<vert>0</vert>
										</value>
									</parameter>
								</effect>
							</filter>
							<filter>
								<effect>
									<name>Distort</name>
									<effectid>deformation</effectid>
									<effectcategory>motion</effectcategory>
									<effecttype>motion</effecttype>
									<mediatype>video</mediatype>
									<parameter authoringApp="PremierePro">
										<parameterid>aspect</parameterid>
										<name>Aspect</name>
										<valuemin>-10000</valuemin>
										<valuemax>10000</valuemax>
										<value>-9.40171</value>
									</parameter>
								</effect>
							</filter>
						<logginginfo>
							<description></description>
							<scene></scene>
							<shottake></shottake>
							<lognote></lognote>
						</logginginfo>
						<labels>
							<label2>Iris</label2>
						</labels>
					</clipitem>
					<clipitem id="clipitem-260">
						<masterclipid>masterclip-10</masterclipid>
						<name>NNFA80750005AA.mxf</name>
						<enabled>TRUE</enabled>
						<duration>81126</duration>
						<rate>
							<timebase>25</timebase>
							<ntsc>FALSE</ntsc>
						</rate>
						<start>40368</start>
						<end>40405</end>
						<in>75171</in>
						<out>75208</out>
						<pproTicksIn>763785469440000</pproTicksIn>
						<pproTicksOut>764161413120000</pproTicksOut>
						<alphatype>none</alphatype>
						<file id="file-8"/>
							<filter>
								<effect>
									<name>Basic Motion</name>
									<effectid>basic</effectid>
									<effectcategory>motion</effectcategory>
									<effecttype>motion</effecttype>
									<mediatype>video</mediatype>
									<parameter authoringApp="PremierePro">
										<parameterid>scale</parameterid>
										<name>Scale</name>
										<valuemin>0</valuemin>
										<valuemax>1000</valuemax>
										<value>134</value>
									</parameter>
									<parameter authoringApp="PremierePro">
										<parameterid>rotation</parameterid>
										<name>Rotation</name>
										<valuemin>-8640</valuemin>
										<valuemax>8640</valuemax>
										<value>0</value>
									</parameter>
									<parameter authoringApp="PremierePro">
										<parameterid>center</parameterid>
										<name>Center</name>
										<value>
											<horiz>0</horiz>
											<vert>-0.0815972</vert>
										</value>
									</parameter>
									<parameter authoringApp="PremierePro">
										<parameterid>centerOffset</parameterid>
										<name>Anchor Point</name>
										<value>
											<horiz>0</horiz>
											<vert>0</vert>
										</value>
									</parameter>
								</effect>
							</filter>
							<filter>
								<effect>
									<name>Distort</name>
									<effectid>deformation</effectid>
									<effectcategory>motion</effectcategory>
									<effecttype>motion</effecttype>
									<mediatype>video</mediatype>
									<parameter authoringApp="PremierePro">
										<parameterid>aspect</parameterid>
										<name>Aspect</name>
										<valuemin>-10000</valuemin>
										<valuemax>10000</valuemax>
										<value>-9.40171</value>
									</parameter>
								</effect>
							</filter>
						<logginginfo>
							<description></description>
							<scene></scene>
							<shottake></shottake>
							<lognote></lognote>
						</logginginfo>
						<labels>
							<label2>Iris</label2>
						</labels>
					</clipitem>
					<clipitem id="clipitem-261">
						<masterclipid>masterclip-11</masterclipid>
						<name>Tuftekonge</name>
						<enabled>TRUE</enabled>
						<duration>125</duration>
						<rate>
							<timebase>25</timebase>
							<ntsc>FALSE</ntsc>
						</rate>
						<start>40405</start>
						<end>40501</end>
						<in>0</in>
						<out>96</out>
						<pproTicksIn>0</pproTicksIn>
						<pproTicksOut>975421440000</pproTicksOut>
						<sequence id="sequence-3" TL.SQAudioVisibleBase="0" TL.SQVideoVisibleBase="0" TL.SQVisibleBaseTime="0" TL.SQAVDividerPosition="0.5" TL.SQHideShyTracks="0" TL.SQHeaderWidth="184" Monitor.ProgramZoomOut="1270080000000" Monitor.ProgramZoomIn="0" TL.SQTimePerPixel="0.054550246756134756" AM.TrackVScrollPosition="0" AM.TrackScrollPosition="0" MZ.EditLine="325140480000" MZ.Sequence.PreviewFrameSizeHeight="1080" MZ.Sequence.PreviewFrameSizeWidth="1920" MZ.Sequence.AudioTimeDisplayFormat="200" MZ.Sequence.PreviewRenderingClassID="1297106761" MZ.Sequence.PreviewRenderingPresetCodec="1297107278" MZ.Sequence.PreviewRenderingPresetPath="EncoderPresets/SequencePreview/bcb27263-0b7a-406f-bda9-3d3796f18c3a/I-Frame Only MPEG.epr" MZ.Sequence.PreviewUseMaxRenderQuality="false" MZ.Sequence.PreviewUseMaxBitDepth="false" MZ.Sequence.EditingModeGUID="bcb27263-0b7a-406f-bda9-3d3796f18c3a" MZ.Sequence.VideoTimeDisplayFormat="101" MZ.WorkOutPoint="1270080000000" MZ.WorkInPoint="0">
							<duration>125</duration>
							<rate>
								<timebase>25</timebase>
								<ntsc>FALSE</ntsc>
							</rate>
							<name>Tuftekonge</name>
							<media>
								<video>
									<format>
										<samplecharacteristics>
											<rate>
												<timebase>25</timebase>
												<ntsc>FALSE</ntsc>
											</rate>
											<codec>
												<name>Apple ProRes 422</name>
												<appspecificdata>
													<appname>Final Cut Pro</appname>
													<appmanufacturer>Apple Inc.</appmanufacturer>
													<appversion>7.0</appversion>
													<data>
														<qtcodec>
															<codecname>Apple ProRes 422</codecname>
															<codectypename>Apple ProRes 422</codectypename>
															<codectypecode>apcn</codectypecode>
															<codecvendorcode>appl</codecvendorcode>
															<spatialquality>1024</spatialquality>
															<temporalquality>0</temporalquality>
															<keyframerate>0</keyframerate>
															<datarate>0</datarate>
														</qtcodec>
													</data>
												</appspecificdata>
											</codec>
											<width>1920</width>
											<height>1080</height>
											<anamorphic>FALSE</anamorphic>
											<pixelaspectratio>square</pixelaspectratio>
											<fielddominance>upper</fielddominance>
											<colordepth>24</colordepth>
										</samplecharacteristics>
									</format>
									<track TL.SQTrackShy="0" TL.SQTrackExpandedHeight="25" TL.SQTrackExpanded="0" MZ.TrackTargeted="1">
										<clipitem id="clipitem-262">
											<masterclipid>masterclip-12</masterclipid>
											<name>kongen digger Heia Tufte 1.jpg</name>
											<enabled>TRUE</enabled>
											<duration>1080000</duration>
											<rate>
												<timebase>25</timebase>
												<ntsc>FALSE</ntsc>
											</rate>
											<start>0</start>
											<end>125</end>
											<in>90000</in>
											<out>90125</out>
											<pproTicksIn>914457600000000</pproTicksIn>
											<pproTicksOut>915727680000000</pproTicksOut>
											<alphatype>none</alphatype>
											<pixelaspectratio>square</pixelaspectratio>
											<anamorphic>FALSE</anamorphic>
											<file id="file-9">
												<name>kongen digger Heia Tufte 1.jpg</name>
												<pathurl>file://localhost/Volumes/Brakka/AdobeLager/QUIZ%20-%20brakka/Arkivstoff/2005/Faksimiler/jpg/kongen%20digger%20Heia%20Tufte%201.jpg</pathurl>
												<rate>
													<timebase>30</timebase>
													<ntsc>TRUE</ntsc>
												</rate>
												<timecode>
													<rate>
														<timebase>30</timebase>
														<ntsc>TRUE</ntsc>
													</rate>
													<string>00;00;00;00</string>
													<frame>0</frame>
													<displayformat>DF</displayformat>
													<reel>
														<name></name>
													</reel>
												</timecode>
												<media>
													<video>
														<samplecharacteristics>
															<rate>
																<timebase>30</timebase>
																<ntsc>TRUE</ntsc>
															</rate>
															<width>1567</width>
															<height>2317</height>
															<anamorphic>FALSE</anamorphic>
															<pixelaspectratio>square</pixelaspectratio>
															<fielddominance>none</fielddominance>
														</samplecharacteristics>
													</video>
												</media>
											</file>
												<filter>
													<effect>
														<name>Basic Motion</name>
														<effectid>basic</effectid>
														<effectcategory>motion</effectcategory>
														<effecttype>motion</effecttype>
														<mediatype>video</mediatype>
														<parameter authoringApp="PremierePro">
															<parameterid>scale</parameterid>
															<name>Scale</name>
															<valuemin>0</valuemin>
															<valuemax>1000</valuemax>
															<value>100</value>
														</parameter>
														<parameter authoringApp="PremierePro">
															<parameterid>rotation</parameterid>
															<name>Rotation</name>
															<valuemin>-8640</valuemin>
															<valuemax>8640</valuemax>
															<value>0</value>
														</parameter>
														<parameter authoringApp="PremierePro">
															<parameterid>center</parameterid>
															<name>Center</name>
															<value>
																<horiz>-0.235482</horiz>
																<vert>0</vert>
															</value>
														</parameter>
														<parameter authoringApp="PremierePro">
															<parameterid>centerOffset</parameterid>
															<name>Anchor Point</name>
															<value>
																<horiz>0</horiz>
																<vert>0</vert>
															</value>
														</parameter>
													</effect>
												</filter>
											<logginginfo>
												<description></description>
												<scene></scene>
												<shottake></shottake>
												<lognote></lognote>
											</logginginfo>
											<labels>
												<label2>Lavender</label2>
											</labels>
										</clipitem>
										<enabled>TRUE</enabled>
										<locked>FALSE</locked>
									</track>
									<track TL.SQTrackShy="0" TL.SQTrackExpandedHeight="25" TL.SQTrackExpanded="0" MZ.TrackTargeted="0">
										<clipitem id="clipitem-263">
											<masterclipid>masterclip-13</masterclipid>
											<name>kongen digger heia tufte 2.jpg</name>
											<enabled>TRUE</enabled>
											<duration>1080000</duration>
											<rate>
												<timebase>25</timebase>
												<ntsc>FALSE</ntsc>
											</rate>
											<start>0</start>
											<end>125</end>
											<in>90000</in>
											<out>90125</out>
											<pproTicksIn>914457600000000</pproTicksIn>
											<pproTicksOut>915727680000000</pproTicksOut>
											<alphatype>none</alphatype>
											<pixelaspectratio>square</pixelaspectratio>
											<anamorphic>FALSE</anamorphic>
											<file id="file-10">
												<name>kongen digger heia tufte 2.jpg</name>
												<pathurl>file://localhost/Volumes/Brakka/AdobeLager/QUIZ%20-%20brakka/Arkivstoff/2005/Faksimiler/jpg/kongen%20digger%20heia%20tufte%202.jpg</pathurl>
												<rate>
													<timebase>30</timebase>
													<ntsc>TRUE</ntsc>
												</rate>
												<timecode>
													<rate>
														<timebase>30</timebase>
														<ntsc>TRUE</ntsc>
													</rate>
													<string>00;00;00;00</string>
													<frame>0</frame>
													<displayformat>DF</displayformat>
													<reel>
														<name></name>
													</reel>
												</timecode>
												<media>
													<video>
														<samplecharacteristics>
															<rate>
																<timebase>30</timebase>
																<ntsc>TRUE</ntsc>
															</rate>
															<width>1567</width>
															<height>2317</height>
															<anamorphic>FALSE</anamorphic>
															<pixelaspectratio>square</pixelaspectratio>
															<fielddominance>none</fielddominance>
														</samplecharacteristics>
													</video>
												</media>
											</file>
												<filter>
													<effect>
														<name>Basic Motion</name>
														<effectid>basic</effectid>
														<effectcategory>motion</effectcategory>
														<effecttype>motion</effecttype>
														<mediatype>video</mediatype>
														<parameter authoringApp="PremierePro">
															<parameterid>scale</parameterid>
															<name>Scale</name>
															<valuemin>0</valuemin>
															<valuemax>1000</valuemax>
															<value>100</value>
														</parameter>
														<parameter authoringApp="PremierePro">
															<parameterid>rotation</parameterid>
															<name>Rotation</name>
															<valuemin>-8640</valuemin>
															<valuemax>8640</valuemax>
															<value>0</value>
														</parameter>
														<parameter authoringApp="PremierePro">
															<parameterid>center</parameterid>
															<name>Center</name>
															<value>
																<horiz>0.230377</horiz>
																<vert>0</vert>
															</value>
														</parameter>
														<parameter authoringApp="PremierePro">
															<parameterid>centerOffset</parameterid>
															<name>Anchor Point</name>
															<value>
																<horiz>0</horiz>
																<vert>0</vert>
															</value>
														</parameter>
													</effect>
												</filter>
											<logginginfo>
												<description></description>
												<scene></scene>
												<shottake></shottake>
												<lognote></lognote>
											</logginginfo>
											<labels>
												<label2>Lavender</label2>
											</labels>
										</clipitem>
										<enabled>TRUE</enabled>
										<locked>FALSE</locked>
									</track>
								</video>
								<audio>
									<numOutputChannels>2</numOutputChannels>
									<format>
										<samplecharacteristics>
											<depth>16</depth>
											<samplerate>48000</samplerate>
										</samplecharacteristics>
									</format>
									<outputs>
										<group>
											<index>1</index>
											<numchannels>1</numchannels>
											<downmix>0</downmix>
											<channel>
												<index>1</index>
											</channel>
										</group>
										<group>
											<index>2</index>
											<numchannels>1</numchannels>
											<downmix>0</downmix>
											<channel>
												<index>2</index>
											</channel>
										</group>
									</outputs>
									<track TL.SQTrackAudioKeyframeStyle="0" TL.SQTrackShy="0" TL.SQTrackExpandedHeight="50" TL.SQTrackExpanded="1" MZ.TrackTargeted="1" PannerCurrentValue="0.5" PannerIsInverted="true" PannerStartKeyframe="-91445760000000000,0.5,0,0,0,0,0,0" PannerName="Balance" currentExplodedTrackIndex="0" totalExplodedTrackCount="2" premiereTrackType="Stereo">
										<enabled>TRUE</enabled>
										<locked>FALSE</locked>
										<outputchannelindex>1</outputchannelindex>
									</track>
									<track TL.SQTrackAudioKeyframeStyle="0" TL.SQTrackShy="0" TL.SQTrackExpandedHeight="50" TL.SQTrackExpanded="1" MZ.TrackTargeted="1" PannerCurrentValue="0.5" PannerIsInverted="true" PannerStartKeyframe="-91445760000000000,0.5,0,0,0,0,0,0" PannerName="Balance" currentExplodedTrackIndex="1" totalExplodedTrackCount="2" premiereTrackType="Stereo">
										<enabled>TRUE</enabled>
										<locked>FALSE</locked>
										<outputchannelindex>2</outputchannelindex>
									</track>
								</audio>
							</media>
							<timecode>
								<rate>
									<timebase>25</timebase>
									<ntsc>FALSE</ntsc>
								</rate>
								<string>00:00:00:00</string>
								<frame>0</frame>
								<displayformat>NDF</displayformat>
							</timecode>
						</sequence>
							<filter>
								<effect>
									<name>Basic Motion</name>
									<effectid>basic</effectid>
									<effectcategory>motion</effectcategory>
									<effecttype>motion</effecttype>
									<mediatype>video</mediatype>
									<parameter authoringApp="PremierePro">
										<parameterid>scale</parameterid>
										<name>Scale</name>
										<valuemin>0</valuemin>
										<valuemax>1000</valuemax>
										<value>263</value>
										<keyframe>
											<when>0</when>
											<value>164</value>
										</keyframe>
										<keyframe>
											<when>67</when>
											<value>263</value>
										</keyframe>
									</parameter>
									<parameter authoringApp="PremierePro">
										<parameterid>rotation</parameterid>
										<name>Rotation</name>
										<valuemin>-8640</valuemin>
										<valuemax>8640</valuemax>
										<value>0</value>
									</parameter>
									<parameter authoringApp="PremierePro">
										<parameterid>center</parameterid>
										<name>Center</name>
										<value>
											<horiz>-0.5</horiz>
											<vert>-0.5</vert>
										</value>
										<keyframe>
											<when>0</when>
											<value>
												<horiz>-0.5</horiz>
												<vert>-0.5</vert>
											</value>
										</keyframe>
										<keyframe>
											<when>67</when>
											<value>
												<horiz>-0.5</horiz>
												<vert>-0.5</vert>
											</value>
										</keyframe>
									</parameter>
									<parameter authoringApp="PremierePro">
										<parameterid>centerOffset</parameterid>
										<name>Anchor Point</name>
										<value>
											<horiz>0</horiz>
											<vert>0</vert>
										</value>
									</parameter>
								</effect>
							</filter>
						<labels>
							<label2>Forest</label2>
						</labels>
					</clipitem>
					<clipitem id="clipitem-268">
						<masterclipid>masterclip-14</masterclipid>
						<name>NRK_sluttplakat_2016.mov</name>
						<enabled>TRUE</enabled>
						<duration>125</duration>
						<rate>
							<timebase>25</timebase>
							<ntsc>FALSE</ntsc>
						</rate>
						<start>58053</start>
						<end>58178</end>
						<in>0</in>
						<out>125</out>
						<pproTicksIn>0</pproTicksIn>
						<pproTicksOut>1270080000000</pproTicksOut>
						<alphatype>black</alphatype>
						<pixelaspectratio>square</pixelaspectratio>
						<anamorphic>FALSE</anamorphic>
						<file id="file-11">
							<name>NRK_sluttplakat_2016.mov</name>
							<pathurl>file://localhost/Volumes/Brakka/AdobeLager/00_sluttplakat/NRK_sluttplakat_2016.mov</pathurl>
							<rate>
								<timebase>25</timebase>
								<ntsc>FALSE</ntsc>
							</rate>
							<duration>125</duration>
							<timecode>
								<rate>
									<timebase>25</timebase>
									<ntsc>FALSE</ntsc>
								</rate>
								<string>00:00:00:00</string>
								<frame>0</frame>
								<displayformat>NDF</displayformat>
								<reel>
									<name></name>
								</reel>
							</timecode>
							<media>
								<video>
									<samplecharacteristics>
										<rate>
											<timebase>25</timebase>
											<ntsc>FALSE</ntsc>
										</rate>
										<width>1920</width>
										<height>1080</height>
										<anamorphic>FALSE</anamorphic>
										<pixelaspectratio>square</pixelaspectratio>
										<fielddominance>none</fielddominance>
									</samplecharacteristics>
								</video>
							</media>
						</file>
						<logginginfo>
							<description></description>
							<scene></scene>
							<shottake></shottake>
							<lognote></lognote>
						</logginginfo>
						<labels>
							<label2>Violet</label2>
						</labels>
					</clipitem>
					<enabled>TRUE</enabled>
					<locked>FALSE</locked>
				</track>
				<track TL.SQTrackShy="0" TL.SQTrackExpandedHeight="25" TL.SQTrackExpanded="0" MZ.TrackTargeted="0">
					<clipitem id="clipitem-269">
						<masterclipid>masterclip-2</masterclipid>
						<name>obub05000303aa-p1-060416r.mxf</name>
						<enabled>TRUE</enabled>
						<duration>6466</duration>
						<rate>
							<timebase>25</timebase>
							<ntsc>FALSE</ntsc>
						</rate>
						<start>963</start>
						<end>1129</end>
						<in>2988</in>
						<out>3154</out>
						<pproTicksIn>30359992320000</pproTicksIn>
						<pproTicksOut>32046658560000</pproTicksOut>
						<alphatype>none</alphatype>
						<file id="file-1"/>
							<filter>
								<effect>
									<name>Basic Motion</name>
									<effectid>basic</effectid>
									<effectcategory>motion</effectcategory>
									<effecttype>motion</effecttype>
									<mediatype>video</mediatype>
									<parameter authoringApp="PremierePro">
										<parameterid>scale</parameterid>
										<name>Scale</name>
										<valuemin>0</valuemin>
										<valuemax>1000</valuemax>
										<value>104</value>
									</parameter>
									<parameter authoringApp="PremierePro">
										<parameterid>rotation</parameterid>
										<name>Rotation</name>
										<valuemin>-8640</valuemin>
										<valuemax>8640</valuemax>
										<value>0</value>
									</parameter>
									<parameter authoringApp="PremierePro">
										<parameterid>center</parameterid>
										<name>Center</name>
										<value>
											<horiz>0.0111111</horiz>
											<vert>0.00173606</vert>
										</value>
									</parameter>
									<parameter authoringApp="PremierePro">
										<parameterid>centerOffset</parameterid>
										<name>Anchor Point</name>
										<value>
											<horiz>0</horiz>
											<vert>0</vert>
										</value>
									</parameter>
								</effect>
							</filter>
							<filter>
								<effect>
									<name>Distort</name>
									<effectid>deformation</effectid>
									<effectcategory>motion</effectcategory>
									<effecttype>motion</effecttype>
									<mediatype>video</mediatype>
									<parameter authoringApp="PremierePro">
										<parameterid>aspect</parameterid>
										<name>Aspect</name>
										<valuemin>-10000</valuemin>
										<valuemax>10000</valuemax>
										<value>-45.8689</value>
									</parameter>
								</effect>
							</filter>
						<logginginfo>
							<description></description>
							<scene></scene>
							<shottake></shottake>
							<lognote></lognote>
						</logginginfo>
						<labels>
							<label2>Iris</label2>
						</labels>
					</clipitem>
					<clipitem id="clipitem-270">
						<masterclipid>masterclip-10</masterclipid>
						<name>NNFA80750005AA.mxf</name>
						<enabled>TRUE</enabled>
						<duration>81126</duration>
						<rate>
							<timebase>25</timebase>
							<ntsc>FALSE</ntsc>
						</rate>
						<start>1129</start>
						<end>1234</end>
						<in>32776</in>
						<out>32881</out>
						<pproTicksIn>333025136640000</pproTicksIn>
						<pproTicksOut>334092003840000</pproTicksOut>
						<alphatype>none</alphatype>
						<file id="file-8"/>
							<filter>
								<effect>
									<name>Basic Motion</name>
									<effectid>basic</effectid>
									<effectcategory>motion</effectcategory>
									<effecttype>motion</effecttype>
									<mediatype>video</mediatype>
									<parameter authoringApp="PremierePro">
										<parameterid>scale</parameterid>
										<name>Scale</name>
										<valuemin>0</valuemin>
										<valuemax>1000</valuemax>
										<value>134</value>
									</parameter>
									<parameter authoringApp="PremierePro">
										<parameterid>rotation</parameterid>
										<name>Rotation</name>
										<valuemin>-8640</valuemin>
										<valuemax>8640</valuemax>
										<value>0</value>
									</parameter>
									<parameter authoringApp="PremierePro">
										<parameterid>center</parameterid>
										<name>Center</name>
										<value>
											<horiz>0</horiz>
											<vert>-0.0868056</vert>
										</value>
									</parameter>
									<parameter authoringApp="PremierePro">
										<parameterid>centerOffset</parameterid>
										<name>Anchor Point</name>
										<value>
											<horiz>0</horiz>
											<vert>0</vert>
										</value>
									</parameter>
								</effect>
							</filter>
							<filter>
								<effect>
									<name>Distort</name>
									<effectid>deformation</effectid>
									<effectcategory>motion</effectcategory>
									<effecttype>motion</effecttype>
									<mediatype>video</mediatype>
									<parameter authoringApp="PremierePro">
										<parameterid>aspect</parameterid>
										<name>Aspect</name>
										<valuemin>-10000</valuemin>
										<valuemax>10000</valuemax>
										<value>-9.40171</value>
									</parameter>
								</effect>
							</filter>
						<logginginfo>
							<description></description>
							<scene></scene>
							<shottake></shottake>
							<lognote></lognote>
						</logginginfo>
						<labels>
							<label2>Iris</label2>
						</labels>
					</clipitem>
					<clipitem id="clipitem-271">
						<masterclipid>masterclip-15</masterclipid>
						<name>digs672r.mxf</name>
						<enabled>TRUE</enabled>
						<duration>179350</duration>
						<rate>
							<timebase>25</timebase>
							<ntsc>FALSE</ntsc>
						</rate>
						<start>1234</start>
						<end>1356</end>
						<in>118377</in>
						<out>118499</out>
						<pproTicksIn>1202786081280000</pproTicksIn>
						<pproTicksOut>1204025679360000</pproTicksOut>
						<alphatype>none</alphatype>
						<pixelaspectratio>PAL-601</pixelaspectratio>
						<anamorphic>FALSE</anamorphic>
						<file id="file-12">
							<name>digs672r.mxf</name>
							<pathurl>file://localhost/Volumes/Brakka/AdobeLager/QUIZ%20-%20brakka/Arkivstoff/2005/Sport/digs672r.mxf</pathurl>
							<rate>
								<timebase>25</timebase>
								<ntsc>FALSE</ntsc>
							</rate>
							<duration>179350</duration>
							<timecode>
								<rate>
									<timebase>25</timebase>
									<ntsc>FALSE</ntsc>
								</rate>
								<string>09:59:58:00</string>
								<frame>899950</frame>
								<displayformat>NDF</displayformat>
								<reel>
									<name></name>
								</reel>
							</timecode>
							<media>
								<video>
									<samplecharacteristics>
										<rate>
											<timebase>25</timebase>
											<ntsc>FALSE</ntsc>
										</rate>
										<width>720</width>
										<height>576</height>
										<anamorphic>FALSE</anamorphic>
										<pixelaspectratio>PAL-601</pixelaspectratio>
										<fielddominance>upper</fielddominance>
									</samplecharacteristics>
								</video>
								<audio>
									<samplecharacteristics>
										<depth>16</depth>
										<samplerate>48000</samplerate>
									</samplecharacteristics>
									<channelcount>8</channelcount>
								</audio>
							</media>
						</file>
							<filter>
								<effect>
									<name>Basic Motion</name>
									<effectid>basic</effectid>
									<effectcategory>motion</effectcategory>
									<effecttype>motion</effecttype>
									<mediatype>video</mediatype>
									<parameter authoringApp="PremierePro">
										<parameterid>scale</parameterid>
										<name>Scale</name>
										<valuemin>0</valuemin>
										<valuemax>1000</valuemax>
										<value>133</value>
									</parameter>
									<parameter authoringApp="PremierePro">
										<parameterid>rotation</parameterid>
										<name>Rotation</name>
										<valuemin>-8640</valuemin>
										<valuemax>8640</valuemax>
										<value>0</value>
									</parameter>
									<parameter authoringApp="PremierePro">
										<parameterid>center</parameterid>
										<name>Center</name>
										<value>
											<horiz>0</horiz>
											<vert>0.157986</vert>
										</value>
									</parameter>
									<parameter authoringApp="PremierePro">
										<parameterid>centerOffset</parameterid>
										<name>Anchor Point</name>
										<value>
											<horiz>0</horiz>
											<vert>0</vert>
										</value>
									</parameter>
								</effect>
							</filter>
							<filter>
								<effect>
									<name>Distort</name>
									<effectid>deformation</effectid>
									<effectcategory>motion</effectcategory>
									<effecttype>motion</effecttype>
									<mediatype>video</mediatype>
									<parameter authoringApp="PremierePro">
										<parameterid>aspect</parameterid>
										<name>Aspect</name>
										<valuemin>-10000</valuemin>
										<valuemax>10000</valuemax>
										<value>-9.40171</value>
									</parameter>
								</effect>
							</filter>
						<logginginfo>
							<description></description>
							<scene></scene>
							<shottake></shottake>
							<lognote></lognote>
						</logginginfo>
						<labels>
							<label2>Iris</label2>
						</labels>
					</clipitem>
					<clipitem id="clipitem-272">
						<masterclipid>masterclip-15</masterclipid>
						<name>digs672r.mxf</name>
						<enabled>TRUE</enabled>
						<duration>179350</duration>
						<rate>
							<timebase>25</timebase>
							<ntsc>FALSE</ntsc>
						</rate>
						<start>1356</start>
						<end>1430</end>
						<in>118704</in>
						<out>118778</out>
						<pproTicksIn>1206108610560000</pproTicksIn>
						<pproTicksOut>1206860497920000</pproTicksOut>
						<alphatype>none</alphatype>
						<file id="file-12"/>
							<filter>
								<effect>
									<name>Basic Motion</name>
									<effectid>basic</effectid>
									<effectcategory>motion</effectcategory>
									<effecttype>motion</effecttype>
									<mediatype>video</mediatype>
									<parameter authoringApp="PremierePro">
										<parameterid>scale</parameterid>
										<name>Scale</name>
										<valuemin>0</valuemin>
										<valuemax>1000</valuemax>
										<value>133</value>
									</parameter>
									<parameter authoringApp="PremierePro">
										<parameterid>rotation</parameterid>
										<name>Rotation</name>
										<valuemin>-8640</valuemin>
										<valuemax>8640</valuemax>
										<value>0</value>
									</parameter>
									<parameter authoringApp="PremierePro">
										<parameterid>center</parameterid>
										<name>Center</name>
										<value>
											<horiz>0</horiz>
											<vert>0.157986</vert>
										</value>
									</parameter>
									<parameter authoringApp="PremierePro">
										<parameterid>centerOffset</parameterid>
										<name>Anchor Point</name>
										<value>
											<horiz>0</horiz>
											<vert>0</vert>
										</value>
									</parameter>
								</effect>
							</filter>
							<filter>
								<effect>
									<name>Distort</name>
									<effectid>deformation</effectid>
									<effectcategory>motion</effectcategory>
									<effecttype>motion</effecttype>
									<mediatype>video</mediatype>
									<parameter authoringApp="PremierePro">
										<parameterid>aspect</parameterid>
										<name>Aspect</name>
										<valuemin>-10000</valuemin>
										<valuemax>10000</valuemax>
										<value>-9.40171</value>
									</parameter>
								</effect>
							</filter>
						<logginginfo>
							<description></description>
							<scene></scene>
							<shottake></shottake>
							<lognote></lognote>
						</logginginfo>
						<labels>
							<label2>Iris</label2>
						</labels>
					</clipitem>
					<clipitem id="clipitem-273">
						<masterclipid>masterclip-16</masterclipid>
						<name>nnfa61009705aa-p1-110416r.mxf</name>
						<enabled>TRUE</enabled>
						<duration>5921</duration>
						<rate>
							<timebase>25</timebase>
							<ntsc>FALSE</ntsc>
						</rate>
						<start>1520</start>
						<end>1743</end>
						<in>5372</in>
						<out>5595</out>
						<pproTicksIn>54582958080000</pproTicksIn>
						<pproTicksOut>56848780800000</pproTicksOut>
						<alphatype>none</alphatype>
						<pixelaspectratio>PAL-601</pixelaspectratio>
						<anamorphic>FALSE</anamorphic>
						<file id="file-13">
							<name>nnfa61009705aa-p1-110416r.mxf</name>
							<pathurl>file://localhost/Volumes/Brakka/AdobeLager/QUIZ%20-%20brakka/Arkivstoff/2005/Nyheter/nnfa61009705aa-p1-110416r.mxf</pathurl>
							<rate>
								<timebase>25</timebase>
								<ntsc>FALSE</ntsc>
							</rate>
							<duration>5921</duration>
							<timecode>
								<rate>
									<timebase>25</timebase>
									<ntsc>FALSE</ntsc>
								</rate>
								<string>17:09:11:06</string>
								<frame>1543781</frame>
								<displayformat>NDF</displayformat>
								<reel>
									<name></name>
								</reel>
							</timecode>
							<media>
								<video>
									<samplecharacteristics>
										<rate>
											<timebase>25</timebase>
											<ntsc>FALSE</ntsc>
										</rate>
										<width>720</width>
										<height>576</height>
										<anamorphic>FALSE</anamorphic>
										<pixelaspectratio>PAL-601</pixelaspectratio>
										<fielddominance>upper</fielddominance>
									</samplecharacteristics>
								</video>
								<audio>
									<samplecharacteristics>
										<depth>16</depth>
										<samplerate>48000</samplerate>
									</samplecharacteristics>
									<channelcount>2</channelcount>
								</audio>
							</media>
						</file>
							<filter>
								<effect>
									<name>Basic Motion</name>
									<effectid>basic</effectid>
									<effectcategory>motion</effectcategory>
									<effecttype>motion</effecttype>
									<mediatype>video</mediatype>
									<parameter authoringApp="PremierePro">
										<parameterid>scale</parameterid>
										<name>Scale</name>
										<valuemin>0</valuemin>
										<valuemax>1000</valuemax>
										<value>133</value>
									</parameter>
									<parameter authoringApp="PremierePro">
										<parameterid>rotation</parameterid>
										<name>Rotation</name>
										<valuemin>-8640</valuemin>
										<valuemax>8640</valuemax>
										<value>0</value>
									</parameter>
									<parameter authoringApp="PremierePro">
										<parameterid>center</parameterid>
										<name>Center</name>
										<value>
											<horiz>0</horiz>
											<vert>-0.296875</vert>
										</value>
									</parameter>
									<parameter authoringApp="PremierePro">
										<parameterid>centerOffset</parameterid>
										<name>Anchor Point</name>
										<value>
											<horiz>0</horiz>
											<vert>0</vert>
										</value>
									</parameter>
								</effect>
							</filter>
							<filter>
								<effect>
									<name>Distort</name>
									<effectid>deformation</effectid>
									<effectcategory>motion</effectcategory>
									<effecttype>motion</effecttype>
									<mediatype>video</mediatype>
									<parameter authoringApp="PremierePro">
										<parameterid>aspect</parameterid>
										<name>Aspect</name>
										<valuemin>-10000</valuemin>
										<valuemax>10000</valuemax>
										<value>-9.40171</value>
									</parameter>
								</effect>
							</filter>
						<logginginfo>
							<description></description>
							<scene></scene>
							<shottake></shottake>
							<lognote></lognote>
						</logginginfo>
						<labels>
							<label2>Iris</label2>
						</labels>
					</clipitem>
					<clipitem id="clipitem-274">
						<masterclipid>masterclip-16</masterclipid>
						<name>nnfa61009705aa-p1-110416r.mxf</name>
						<enabled>TRUE</enabled>
						<duration>5921</duration>
						<rate>
							<timebase>25</timebase>
							<ntsc>FALSE</ntsc>
						</rate>
						<start>1743</start>
						<end>1837</end>
						<in>1687</in>
						<out>1781</out>
						<pproTicksIn>17140999680000</pproTicksIn>
						<pproTicksOut>18096099840000</pproTicksOut>
						<alphatype>none</alphatype>
						<file id="file-13"/>
							<filter>
								<effect>
									<name>Basic Motion</name>
									<effectid>basic</effectid>
									<effectcategory>motion</effectcategory>
									<effecttype>motion</effecttype>
									<mediatype>video</mediatype>
									<parameter authoringApp="PremierePro">
										<parameterid>scale</parameterid>
										<name>Scale</name>
										<valuemin>0</valuemin>
										<valuemax>1000</valuemax>
										<value>133</value>
									</parameter>
									<parameter authoringApp="PremierePro">
										<parameterid>rotation</parameterid>
										<name>Rotation</name>
										<valuemin>-8640</valuemin>
										<valuemax>8640</valuemax>
										<value>0</value>
									</parameter>
									<parameter authoringApp="PremierePro">
										<parameterid>center</parameterid>
										<name>Center</name>
										<value>
											<horiz>0</horiz>
											<vert>0.291667</vert>
										</value>
									</parameter>
									<parameter authoringApp="PremierePro">
										<parameterid>centerOffset</parameterid>
										<name>Anchor Point</name>
										<value>
											<horiz>0</horiz>
											<vert>0</vert>
										</value>
									</parameter>
								</effect>
							</filter>
							<filter>
								<effect>
									<name>Distort</name>
									<effectid>deformation</effectid>
									<effectcategory>motion</effectcategory>
									<effecttype>motion</effecttype>
									<mediatype>video</mediatype>
									<parameter authoringApp="PremierePro">
										<parameterid>aspect</parameterid>
										<name>Aspect</name>
										<valuemin>-10000</valuemin>
										<valuemax>10000</valuemax>
										<value>-9.40171</value>
									</parameter>
								</effect>
							</filter>
						<logginginfo>
							<description></description>
							<scene></scene>
							<shottake></shottake>
							<lognote></lognote>
						</logginginfo>
						<labels>
							<label2>Iris</label2>
						</labels>
					</clipitem>
					<clipitem id="clipitem-275">
						<masterclipid>masterclip-17</masterclipid>
						<name>MAI4103-190405-DR.mxf</name>
						<enabled>TRUE</enabled>
						<duration>2100</duration>
						<rate>
							<timebase>25</timebase>
							<ntsc>FALSE</ntsc>
						</rate>
						<start>1837</start>
						<end>1947</end>
						<in>423</in>
						<out>533</out>
						<pproTicksIn>4297950720000</pproTicksIn>
						<pproTicksOut>5415621120000</pproTicksOut>
						<alphatype>none</alphatype>
						<pixelaspectratio>PAL-601</pixelaspectratio>
						<anamorphic>FALSE</anamorphic>
						<file id="file-14">
							<name>MAI4103-190405-DR.mxf</name>
							<pathurl>file://localhost/Volumes/Brakka/AdobeLager/QUIZ%20-%20brakka/Arkivstoff/2005/Nyheter/MAI4103-190405-DR.mxf</pathurl>
							<rate>
								<timebase>25</timebase>
								<ntsc>FALSE</ntsc>
							</rate>
							<duration>2100</duration>
							<timecode>
								<rate>
									<timebase>25</timebase>
									<ntsc>FALSE</ntsc>
								</rate>
								<string>00:49:48:00</string>
								<frame>74700</frame>
								<displayformat>NDF</displayformat>
								<reel>
									<name></name>
								</reel>
							</timecode>
							<media>
								<video>
									<samplecharacteristics>
										<rate>
											<timebase>25</timebase>
											<ntsc>FALSE</ntsc>
										</rate>
										<width>720</width>
										<height>576</height>
										<anamorphic>FALSE</anamorphic>
										<pixelaspectratio>PAL-601</pixelaspectratio>
										<fielddominance>upper</fielddominance>
									</samplecharacteristics>
								</video>
								<audio>
									<samplecharacteristics>
										<depth>16</depth>
										<samplerate>48000</samplerate>
									</samplecharacteristics>
									<channelcount>2</channelcount>
								</audio>
							</media>
						</file>
							<filter>
								<effect>
									<name>Basic Motion</name>
									<effectid>basic</effectid>
									<effectcategory>motion</effectcategory>
									<effecttype>motion</effecttype>
									<mediatype>video</mediatype>
									<parameter authoringApp="PremierePro">
										<parameterid>scale</parameterid>
										<name>Scale</name>
										<valuemin>0</valuemin>
										<valuemax>1000</valuemax>
										<value>133</value>
									</parameter>
									<parameter authoringApp="PremierePro">
										<parameterid>rotation</parameterid>
										<name>Rotation</name>
										<valuemin>-8640</valuemin>
										<valuemax>8640</valuemax>
										<value>0</value>
									</parameter>
									<parameter authoringApp="PremierePro">
										<parameterid>center</parameterid>
										<name>Center</name>
										<value>
											<horiz>0</horiz>
											<vert>0.0972223</vert>
										</value>
									</parameter>
									<parameter authoringApp="PremierePro">
										<parameterid>centerOffset</parameterid>
										<name>Anchor Point</name>
										<value>
											<horiz>0</horiz>
											<vert>0</vert>
										</value>
									</parameter>
								</effect>
							</filter>
							<filter>
								<effect>
									<name>Distort</name>
									<effectid>deformation</effectid>
									<effectcategory>motion</effectcategory>
									<effecttype>motion</effecttype>
									<mediatype>video</mediatype>
									<parameter authoringApp="PremierePro">
										<parameterid>aspect</parameterid>
										<name>Aspect</name>
										<valuemin>-10000</valuemin>
										<valuemax>10000</valuemax>
										<value>-9.40171</value>
									</parameter>
								</effect>
							</filter>
						<logginginfo>
							<description></description>
							<scene></scene>
							<shottake></shottake>
							<lognote></lognote>
						</logginginfo>
						<labels>
							<label2>Iris</label2>
						</labels>
					</clipitem>
					<clipitem id="clipitem-276">
						<masterclipid>masterclip-10</masterclipid>
						<name>NNFA80750005AA.mxf</name>
						<enabled>TRUE</enabled>
						<duration>81126</duration>
						<rate>
							<timebase>25</timebase>
							<ntsc>FALSE</ntsc>
						</rate>
						<start>1947</start>
						<end>2185</end>
						<in>17461</in>
						<out>17699</out>
						<pproTicksIn>177414935040000</pproTicksIn>
						<pproTicksOut>179833167360000</pproTicksOut>
						<alphatype>none</alphatype>
						<file id="file-8"/>
							<filter>
								<effect>
									<name>Basic Motion</name>
									<effectid>basic</effectid>
									<effectcategory>motion</effectcategory>
									<effecttype>motion</effecttype>
									<mediatype>video</mediatype>
									<parameter authoringApp="PremierePro">
										<parameterid>scale</parameterid>
										<name>Scale</name>
										<valuemin>0</valuemin>
										<valuemax>1000</valuemax>
										<value>132</value>
									</parameter>
									<parameter authoringApp="PremierePro">
										<parameterid>rotation</parameterid>
										<name>Rotation</name>
										<valuemin>-8640</valuemin>
										<valuemax>8640</valuemax>
										<value>0</value>
									</parameter>
									<parameter authoringApp="PremierePro">
										<parameterid>center</parameterid>
										<name>Center</name>
										<value>
											<horiz>0.00277774</horiz>
											<vert>-0.0972222</vert>
										</value>
									</parameter>
									<parameter authoringApp="PremierePro">
										<parameterid>centerOffset</parameterid>
										<name>Anchor Point</name>
										<value>
											<horiz>0</horiz>
											<vert>0</vert>
										</value>
									</parameter>
								</effect>
							</filter>
							<filter>
								<effect>
									<name>Distort</name>
									<effectid>deformation</effectid>
									<effectcategory>motion</effectcategory>
									<effecttype>motion</effecttype>
									<mediatype>video</mediatype>
									<parameter authoringApp="PremierePro">
										<parameterid>aspect</parameterid>
										<name>Aspect</name>
										<valuemin>-10000</valuemin>
										<valuemax>10000</valuemax>
										<value>-9.40171</value>
									</parameter>
								</effect>
							</filter>
						<logginginfo>
							<description></description>
							<scene></scene>
							<shottake></shottake>
							<lognote></lognote>
						</logginginfo>
						<labels>
							<label2>Iris</label2>
						</labels>
					</clipitem>
					<clipitem id="clipitem-277">
						<masterclipid>masterclip-18</masterclipid>
						<name>ofaa21000105aa-p1-110416r.mxf</name>
						<enabled>TRUE</enabled>
						<duration>6745</duration>
						<rate>
							<timebase>25</timebase>
							<ntsc>FALSE</ntsc>
						</rate>
						<start>2185</start>
						<end>2272</end>
						<in>3706</in>
						<out>3793</out>
						<pproTicksIn>37655331840000</pproTicksIn>
						<pproTicksOut>38539307520000</pproTicksOut>
						<alphatype>none</alphatype>
						<pixelaspectratio>PAL-601</pixelaspectratio>
						<anamorphic>FALSE</anamorphic>
						<file id="file-15">
							<name>ofaa21000105aa-p1-110416r.mxf</name>
							<pathurl>file://localhost/Volumes/Brakka/AdobeLager/QUIZ%20-%20brakka/Arkivstoff/2005/Nyheter/ofaa21000105aa-p1-110416r.mxf</pathurl>
							<rate>
								<timebase>25</timebase>
								<ntsc>FALSE</ntsc>
							</rate>
							<duration>6745</duration>
							<timecode>
								<rate>
									<timebase>25</timebase>
									<ntsc>FALSE</ntsc>
								</rate>
								<string>10:00:00:00</string>
								<frame>900000</frame>
								<displayformat>NDF</displayformat>
								<reel>
									<name></name>
								</reel>
							</timecode>
							<media>
								<video>
									<samplecharacteristics>
										<rate>
											<timebase>25</timebase>
											<ntsc>FALSE</ntsc>
										</rate>
										<width>720</width>
										<height>576</height>
										<anamorphic>FALSE</anamorphic>
										<pixelaspectratio>PAL-601</pixelaspectratio>
										<fielddominance>upper</fielddominance>
									</samplecharacteristics>
								</video>
								<audio>
									<samplecharacteristics>
										<depth>16</depth>
										<samplerate>48000</samplerate>
									</samplecharacteristics>
									<channelcount>2</channelcount>
								</audio>
							</media>
						</file>
							<filter>
								<effect>
									<name>Basic Motion</name>
									<effectid>basic</effectid>
									<effectcategory>motion</effectcategory>
									<effecttype>motion</effecttype>
									<mediatype>video</mediatype>
									<parameter authoringApp="PremierePro">
										<parameterid>scale</parameterid>
										<name>Scale</name>
										<valuemin>0</valuemin>
										<valuemax>1000</valuemax>
										<value>133</value>
									</parameter>
									<parameter authoringApp="PremierePro">
										<parameterid>rotation</parameterid>
										<name>Rotation</name>
										<valuemin>-8640</valuemin>
										<valuemax>8640</valuemax>
										<value>0</value>
									</parameter>
									<parameter authoringApp="PremierePro">
										<parameterid>center</parameterid>
										<name>Center</name>
										<value>
											<horiz>0</horiz>
											<vert>0.157986</vert>
										</value>
									</parameter>
									<parameter authoringApp="PremierePro">
										<parameterid>centerOffset</parameterid>
										<name>Anchor Point</name>
										<value>
											<horiz>0</horiz>
											<vert>0</vert>
										</value>
									</parameter>
								</effect>
							</filter>
							<filter>
								<effect>
									<name>Color Corrector 3-way</name>
									<effectid>Color Corrector 3-way</effectid>
									<effectcategory>Color Correction</effectcategory>
									<effecttype>filter</effecttype>
									<mediatype>video</mediatype>
									<parameter authoringApp="PremierePro">
										<parameterid>dispmode</parameterid>
										<name>Display Mode</name>
										<valuemin>1</valuemin>
										<valuemax>3</valuemax>
										<value>1</value>
										<valuelist>
											<valueentry>
												<name>Final</name>
												<value>1</value>
											</valueentry>
											<valueentry>
												<name>Matte</name>
												<value>2</value>
											</valueentry>
											<valueentry>
												<name>Source</name>
												<value>3</value>
											</valueentry>
										</valuelist>
									</parameter>
									<parameter authoringApp="PremierePro">
										<parameterid>label1</parameterid>
										<name>Blacks Controls</name>
										<value></value>
									</parameter>
									<parameter authoringApp="PremierePro">
										<parameterid>blacklevel</parameterid>
										<name>Level</name>
										<valuemin>-196</valuemin>
										<valuemax>254</valuemax>
										<value>0</value>
									</parameter>
									<parameter authoringApp="PremierePro">
										<parameterid>b_hue</parameterid>
										<name>Angle</name>
										<valuemin>-180</valuemin>
										<valuemax>180</valuemax>
										<value>-168</value>
									</parameter>
									<parameter authoringApp="PremierePro">
										<parameterid>b_mag</parameterid>
										<name>Magnitude</name>
										<valuemin>0</valuemin>
										<valuemax>200</valuemax>
										<value>26.3721</value>
									</parameter>
									<parameter authoringApp="PremierePro">
										<parameterid>label2</parameterid>
										<name>Midrange Controls</name>
										<value></value>
									</parameter>
									<parameter authoringApp="PremierePro">
										<parameterid>mids</parameterid>
										<name>Level</name>
										<valuemin>0</valuemin>
										<valuemax>200</valuemax>
										<value>100</value>
									</parameter>
									<parameter authoringApp="PremierePro">
										<parameterid>m_hue</parameterid>
										<name>Angle</name>
										<valuemin>-180</valuemin>
										<valuemax>180</valuemax>
										<value>12</value>
									</parameter>
									<parameter authoringApp="PremierePro">
										<parameterid>m_mag</parameterid>
										<name>Magnitude</name>
										<valuemin>0</valuemin>
										<valuemax>200</valuemax>
										<value>8.4251</value>
									</parameter>
									<parameter authoringApp="PremierePro">
										<parameterid>label3</parameterid>
										<name>Highlight Controls</name>
										<value></value>
									</parameter>
									<parameter authoringApp="PremierePro">
										<parameterid>highlights</parameterid>
										<name>Level</name>
										<valuemin>64</valuemin>
										<valuemax>509</valuemax>
										<value>255</value>
									</parameter>
									<parameter authoringApp="PremierePro">
										<parameterid>h_hue</parameterid>
										<name>Angle</name>
										<valuemin>-180</valuemin>
										<valuemax>180</valuemax>
										<value>31.6538</value>
									</parameter>
									<parameter authoringApp="PremierePro">
										<parameterid>h_mag</parameterid>
										<name>Magnitude</name>
										<valuemin>0</valuemin>
										<valuemax>200</valuemax>
										<value>11.0174</value>
									</parameter>
									<parameter authoringApp="PremierePro">
										<parameterid>label4</parameterid>
										<name>Color Controls</name>
										<value></value>
									</parameter>
									<parameter authoringApp="PremierePro">
										<parameterid>chroma</parameterid>
										<name>Saturation</name>
										<valuemin>0</valuemin>
										<valuemax>200</valuemax>
										<value>136</value>
									</parameter>
									<parameter authoringApp="PremierePro">
										<parameterid>label5</parameterid>
										<name>Limit Effect Controls</name>
										<value></value>
									</parameter>
									<parameter authoringApp="PremierePro">
										<parameterid>dochroma</parameterid>
										<name>Limit on Chroma</name>
										<value>FALSE</value>
									</parameter>
									<parameter authoringApp="PremierePro">
										<parameterid>centerang</parameterid>
										<name>Chroma Center</name>
										<valuemin>-760</valuemin>
										<valuemax>760</valuemax>
										<value>-110</value>
									</parameter>
									<parameter authoringApp="PremierePro">
										<parameterid>chromawidth</parameterid>
										<name>Chroma Width</name>
										<valuemin>0</valuemin>
										<valuemax>360</valuemax>
										<value>15</value>
									</parameter>
									<parameter authoringApp="PremierePro">
										<parameterid>chromasoft</parameterid>
										<name>Chroma Softness</name>
										<valuemin>0</valuemin>
										<valuemax>180</valuemax>
										<value>10</value>
									</parameter>
									<parameter authoringApp="PremierePro">
										<parameterid>dosat</parameterid>
										<name>Limit on Saturation</name>
										<value>FALSE</value>
									</parameter>
									<parameter authoringApp="PremierePro">
										<parameterid>satmin</parameterid>
										<name>Sat. Minimum</name>
										<valuemin>0</valuemin>
										<valuemax>125</valuemax>
										<value>35</value>
									</parameter>
									<parameter authoringApp="PremierePro">
										<parameterid>satwidth</parameterid>
										<name>Sat. Width</name>
										<valuemin>0</valuemin>
										<valuemax>125</valuemax>
										<value>40</value>
									</parameter>
									<parameter authoringApp="PremierePro">
										<parameterid>satsoft</parameterid>
										<name>Sat. Softness</name>
										<valuemin>0</valuemin>
										<valuemax>125</valuemax>
										<value>20</value>
									</parameter>
									<parameter authoringApp="PremierePro">
										<parameterid>doluma</parameterid>
										<name>Limit on Luma</name>
										<value>FALSE</value>
									</parameter>
									<parameter authoringApp="PremierePro">
										<parameterid>lumamin</parameterid>
										<name>Luma Minimum</name>
										<valuemin>0</valuemin>
										<valuemax>120</valuemax>
										<value>0</value>
									</parameter>
									<parameter authoringApp="PremierePro">
										<parameterid>lumawidth</parameterid>
										<name>Luma Width</name>
										<valuemin>0</valuemin>
										<valuemax>120</valuemax>
										<value>40</value>
									</parameter>
									<parameter authoringApp="PremierePro">
										<parameterid>lumasoft</parameterid>
										<name>Luma Softness</name>
										<valuemin>0</valuemin>
										<valuemax>120</valuemax>
										<value>20</value>
									</parameter>
									<parameter authoringApp="PremierePro">
										<parameterid>label6</parameterid>
										<name>Edge Control</name>
										<value></value>
									</parameter>
									<parameter authoringApp="PremierePro">
										<parameterid>edgethin</parameterid>
										<name>Thin/Spread</name>
										<valuemin>-100</valuemin>
										<valuemax>100</valuemax>
										<value>0</value>
									</parameter>
									<parameter authoringApp="PremierePro">
										<parameterid>edgefeather</parameterid>
										<name>Softening</name>
										<valuemin>0</valuemin>
										<valuemax>100</valuemax>
										<value>0</value>
									</parameter>
									<parameter authoringApp="PremierePro">
										<parameterid>label7</parameterid>
										<name>Mask Control</name>
										<value></value>
									</parameter>
									<parameter authoringApp="PremierePro">
										<parameterid>invertsel</parameterid>
										<name>Invert</name>
										<value>FALSE</value>
									</parameter>
									<parameter authoringApp="PremierePro">
										<parameterid>debugshow</parameterid>
										<name>Show Stats</name>
										<value>FALSE</value>
									</parameter>
								</effect>
							</filter>
							<filter>
								<effect>
									<name>Distort</name>
									<effectid>deformation</effectid>
									<effectcategory>motion</effectcategory>
									<effecttype>motion</effecttype>
									<mediatype>video</mediatype>
									<parameter authoringApp="PremierePro">
										<parameterid>aspect</parameterid>
										<name>Aspect</name>
										<valuemin>-10000</valuemin>
										<valuemax>10000</valuemax>
										<value>-9.40171</value>
									</parameter>
								</effect>
							</filter>
						<logginginfo>
							<description></description>
							<scene></scene>
							<shottake></shottake>
							<lognote></lognote>
						</logginginfo>
						<labels>
							<label2>Iris</label2>
						</labels>
					</clipitem>
					<clipitem id="clipitem-278">
						<masterclipid>masterclip-18</masterclipid>
						<name>ofaa21000105aa-p1-110416r.mxf</name>
						<enabled>TRUE</enabled>
						<duration>6745</duration>
						<rate>
							<timebase>25</timebase>
							<ntsc>FALSE</ntsc>
						</rate>
						<start>2272</start>
						<end>2339</end>
						<in>3873</in>
						<out>3940</out>
						<pproTicksIn>39352158720000</pproTicksIn>
						<pproTicksOut>40032921600000</pproTicksOut>
						<alphatype>none</alphatype>
						<file id="file-15"/>
							<filter>
								<effect>
									<name>Basic Motion</name>
									<effectid>basic</effectid>
									<effectcategory>motion</effectcategory>
									<effecttype>motion</effecttype>
									<mediatype>video</mediatype>
									<parameter authoringApp="PremierePro">
										<parameterid>scale</parameterid>
										<name>Scale</name>
										<valuemin>0</valuemin>
										<valuemax>1000</valuemax>
										<value>133</value>
									</parameter>
									<parameter authoringApp="PremierePro">
										<parameterid>rotation</parameterid>
										<name>Rotation</name>
										<valuemin>-8640</valuemin>
										<valuemax>8640</valuemax>
										<value>0</value>
									</parameter>
									<parameter authoringApp="PremierePro">
										<parameterid>center</parameterid>
										<name>Center</name>
										<value>
											<horiz>0</horiz>
											<vert>0.251736</vert>
										</value>
									</parameter>
									<parameter authoringApp="PremierePro">
										<parameterid>centerOffset</parameterid>
										<name>Anchor Point</name>
										<value>
											<horiz>0</horiz>
											<vert>0</vert>
										</value>
									</parameter>
								</effect>
							</filter>
							<filter>
								<effect>
									<name>Color Corrector 3-way</name>
									<effectid>Color Corrector 3-way</effectid>
									<effectcategory>Color Correction</effectcategory>
									<effecttype>filter</effecttype>
									<mediatype>video</mediatype>
									<parameter authoringApp="PremierePro">
										<parameterid>dispmode</parameterid>
										<name>Display Mode</name>
										<valuemin>1</valuemin>
										<valuemax>3</valuemax>
										<value>1</value>
										<valuelist>
											<valueentry>
												<name>Final</name>
												<value>1</value>
											</valueentry>
											<valueentry>
												<name>Matte</name>
												<value>2</value>
											</valueentry>
											<valueentry>
												<name>Source</name>
												<value>3</value>
											</valueentry>
										</valuelist>
									</parameter>
									<parameter authoringApp="PremierePro">
										<parameterid>label1</parameterid>
										<name>Blacks Controls</name>
										<value></value>
									</parameter>
									<parameter authoringApp="PremierePro">
										<parameterid>blacklevel</parameterid>
										<name>Level</name>
										<valuemin>-196</valuemin>
										<valuemax>254</valuemax>
										<value>0</value>
									</parameter>
									<parameter authoringApp="PremierePro">
										<parameterid>b_hue</parameterid>
										<name>Angle</name>
										<valuemin>-180</valuemin>
										<valuemax>180</valuemax>
										<value>-168</value>
									</parameter>
									<parameter authoringApp="PremierePro">
										<parameterid>b_mag</parameterid>
										<name>Magnitude</name>
										<valuemin>0</valuemin>
										<valuemax>200</valuemax>
										<value>26.3721</value>
									</parameter>
									<parameter authoringApp="PremierePro">
										<parameterid>label2</parameterid>
										<name>Midrange Controls</name>
										<value></value>
									</parameter>
									<parameter authoringApp="PremierePro">
										<parameterid>mids</parameterid>
										<name>Level</name>
										<valuemin>0</valuemin>
										<valuemax>200</valuemax>
										<value>100</value>
									</parameter>
									<parameter authoringApp="PremierePro">
										<parameterid>m_hue</parameterid>
										<name>Angle</name>
										<valuemin>-180</valuemin>
										<valuemax>180</valuemax>
										<value>12</value>
									</parameter>
									<parameter authoringApp="PremierePro">
										<parameterid>m_mag</parameterid>
										<name>Magnitude</name>
										<valuemin>0</valuemin>
										<valuemax>200</valuemax>
										<value>8.4251</value>
									</parameter>
									<parameter authoringApp="PremierePro">
										<parameterid>label3</parameterid>
										<name>Highlight Controls</name>
										<value></value>
									</parameter>
									<parameter authoringApp="PremierePro">
										<parameterid>highlights</parameterid>
										<name>Level</name>
										<valuemin>64</valuemin>
										<valuemax>509</valuemax>
										<value>255</value>
									</parameter>
									<parameter authoringApp="PremierePro">
										<parameterid>h_hue</parameterid>
										<name>Angle</name>
										<valuemin>-180</valuemin>
										<valuemax>180</valuemax>
										<value>31.6538</value>
									</parameter>
									<parameter authoringApp="PremierePro">
										<parameterid>h_mag</parameterid>
										<name>Magnitude</name>
										<valuemin>0</valuemin>
										<valuemax>200</valuemax>
										<value>11.0174</value>
									</parameter>
									<parameter authoringApp="PremierePro">
										<parameterid>label4</parameterid>
										<name>Color Controls</name>
										<value></value>
									</parameter>
									<parameter authoringApp="PremierePro">
										<parameterid>chroma</parameterid>
										<name>Saturation</name>
										<valuemin>0</valuemin>
										<valuemax>200</valuemax>
										<value>200</value>
									</parameter>
									<parameter authoringApp="PremierePro">
										<parameterid>label5</parameterid>
										<name>Limit Effect Controls</name>
										<value></value>
									</parameter>
									<parameter authoringApp="PremierePro">
										<parameterid>dochroma</parameterid>
										<name>Limit on Chroma</name>
										<value>FALSE</value>
									</parameter>
									<parameter authoringApp="PremierePro">
										<parameterid>centerang</parameterid>
										<name>Chroma Center</name>
										<valuemin>-760</valuemin>
										<valuemax>760</valuemax>
										<value>-110</value>
									</parameter>
									<parameter authoringApp="PremierePro">
										<parameterid>chromawidth</parameterid>
										<name>Chroma Width</name>
										<valuemin>0</valuemin>
										<valuemax>360</valuemax>
										<value>15</value>
									</parameter>
									<parameter authoringApp="PremierePro">
										<parameterid>chromasoft</parameterid>
										<name>Chroma Softness</name>
										<valuemin>0</valuemin>
										<valuemax>180</valuemax>
										<value>10</value>
									</parameter>
									<parameter authoringApp="PremierePro">
										<parameterid>dosat</parameterid>
										<name>Limit on Saturation</name>
										<value>FALSE</value>
									</parameter>
									<parameter authoringApp="PremierePro">
										<parameterid>satmin</parameterid>
										<name>Sat. Minimum</name>
										<valuemin>0</valuemin>
										<valuemax>125</valuemax>
										<value>35</value>
									</parameter>
									<parameter authoringApp="PremierePro">
										<parameterid>satwidth</parameterid>
										<name>Sat. Width</name>
										<valuemin>0</valuemin>
										<valuemax>125</valuemax>
										<value>40</value>
									</parameter>
									<parameter authoringApp="PremierePro">
										<parameterid>satsoft</parameterid>
										<name>Sat. Softness</name>
										<valuemin>0</valuemin>
										<valuemax>125</valuemax>
										<value>20</value>
									</parameter>
									<parameter authoringApp="PremierePro">
										<parameterid>doluma</parameterid>
										<name>Limit on Luma</name>
										<value>FALSE</value>
									</parameter>
									<parameter authoringApp="PremierePro">
										<parameterid>lumamin</parameterid>
										<name>Luma Minimum</name>
										<valuemin>0</valuemin>
										<valuemax>120</valuemax>
										<value>0</value>
									</parameter>
									<parameter authoringApp="PremierePro">
										<parameterid>lumawidth</parameterid>
										<name>Luma Width</name>
										<valuemin>0</valuemin>
										<valuemax>120</valuemax>
										<value>40</value>
									</parameter>
									<parameter authoringApp="PremierePro">
										<parameterid>lumasoft</parameterid>
										<name>Luma Softness</name>
										<valuemin>0</valuemin>
										<valuemax>120</valuemax>
										<value>20</value>
									</parameter>
									<parameter authoringApp="PremierePro">
										<parameterid>label6</parameterid>
										<name>Edge Control</name>
										<value></value>
									</parameter>
									<parameter authoringApp="PremierePro">
										<parameterid>edgethin</parameterid>
										<name>Thin/Spread</name>
										<valuemin>-100</valuemin>
										<valuemax>100</valuemax>
										<value>0</value>
									</parameter>
									<parameter authoringApp="PremierePro">
										<parameterid>edgefeather</parameterid>
										<name>Softening</name>
										<valuemin>0</valuemin>
										<valuemax>100</valuemax>
										<value>0</value>
									</parameter>
									<parameter authoringApp="PremierePro">
										<parameterid>label7</parameterid>
										<name>Mask Control</name>
										<value></value>
									</parameter>
									<parameter authoringApp="PremierePro">
										<parameterid>invertsel</parameterid>
										<name>Invert</name>
										<value>FALSE</value>
									</parameter>
									<parameter authoringApp="PremierePro">
										<parameterid>debugshow</parameterid>
										<name>Show Stats</name>
										<value>FALSE</value>
									</parameter>
								</effect>
							</filter>
							<filter>
								<effect>
									<name>Distort</name>
									<effectid>deformation</effectid>
									<effectcategory>motion</effectcategory>
									<effecttype>motion</effecttype>
									<mediatype>video</mediatype>
									<parameter authoringApp="PremierePro">
										<parameterid>aspect</parameterid>
										<name>Aspect</name>
										<valuemin>-10000</valuemin>
										<valuemax>10000</valuemax>
										<value>-9.40171</value>
									</parameter>
								</effect>
							</filter>
						<logginginfo>
							<description></description>
							<scene></scene>
							<shottake></shottake>
							<lognote></lognote>
						</logginginfo>
						<labels>
							<label2>Iris</label2>
						</labels>
					</clipitem>
					<clipitem id="clipitem-279">
						<masterclipid>masterclip-18</masterclipid>
						<name>ofaa21000105aa-p1-110416r.mxf</name>
						<enabled>TRUE</enabled>
						<duration>6745</duration>
						<rate>
							<timebase>25</timebase>
							<ntsc>FALSE</ntsc>
						</rate>
						<start>2339</start>
						<end>2391</end>
						<in>4333</in>
						<out>4385</out>
						<pproTicksIn>44026053120000</pproTicksIn>
						<pproTicksOut>44554406400000</pproTicksOut>
						<alphatype>none</alphatype>
						<file id="file-15"/>
							<filter>
								<effect>
									<name>Basic Motion</name>
									<effectid>basic</effectid>
									<effectcategory>motion</effectcategory>
									<effecttype>motion</effecttype>
									<mediatype>video</mediatype>
									<parameter authoringApp="PremierePro">
										<parameterid>scale</parameterid>
										<name>Scale</name>
										<valuemin>0</valuemin>
										<valuemax>1000</valuemax>
										<value>133</value>
									</parameter>
									<parameter authoringApp="PremierePro">
										<parameterid>rotation</parameterid>
										<name>Rotation</name>
										<valuemin>-8640</valuemin>
										<valuemax>8640</valuemax>
										<value>0</value>
									</parameter>
									<parameter authoringApp="PremierePro">
										<parameterid>center</parameterid>
										<name>Center</name>
										<value>
											<horiz>0</horiz>
											<vert>0.277778</vert>
										</value>
									</parameter>
									<parameter authoringApp="PremierePro">
										<parameterid>centerOffset</parameterid>
										<name>Anchor Point</name>
										<value>
											<horiz>0</horiz>
											<vert>0</vert>
										</value>
									</parameter>
								</effect>
							</filter>
							<filter>
								<effect>
									<name>Color Corrector 3-way</name>
									<effectid>Color Corrector 3-way</effectid>
									<effectcategory>Color Correction</effectcategory>
									<effecttype>filter</effecttype>
									<mediatype>video</mediatype>
									<parameter authoringApp="PremierePro">
										<parameterid>dispmode</parameterid>
										<name>Display Mode</name>
										<valuemin>1</valuemin>
										<valuemax>3</valuemax>
										<value>1</value>
										<valuelist>
											<valueentry>
												<name>Final</name>
												<value>1</value>
											</valueentry>
											<valueentry>
												<name>Matte</name>
												<value>2</value>
											</valueentry>
											<valueentry>
												<name>Source</name>
												<value>3</value>
											</valueentry>
										</valuelist>
									</parameter>
									<parameter authoringApp="PremierePro">
										<parameterid>label1</parameterid>
										<name>Blacks Controls</name>
										<value></value>
									</parameter>
									<parameter authoringApp="PremierePro">
										<parameterid>blacklevel</parameterid>
										<name>Level</name>
										<valuemin>-196</valuemin>
										<valuemax>254</valuemax>
										<value>0</value>
									</parameter>
									<parameter authoringApp="PremierePro">
										<parameterid>b_hue</parameterid>
										<name>Angle</name>
										<valuemin>-180</valuemin>
										<valuemax>180</valuemax>
										<value>-168</value>
									</parameter>
									<parameter authoringApp="PremierePro">
										<parameterid>b_mag</parameterid>
										<name>Magnitude</name>
										<valuemin>0</valuemin>
										<valuemax>200</valuemax>
										<value>26.3721</value>
									</parameter>
									<parameter authoringApp="PremierePro">
										<parameterid>label2</parameterid>
										<name>Midrange Controls</name>
										<value></value>
									</parameter>
									<parameter authoringApp="PremierePro">
										<parameterid>mids</parameterid>
										<name>Level</name>
										<valuemin>0</valuemin>
										<valuemax>200</valuemax>
										<value>100</value>
									</parameter>
									<parameter authoringApp="PremierePro">
										<parameterid>m_hue</parameterid>
										<name>Angle</name>
										<valuemin>-180</valuemin>
										<valuemax>180</valuemax>
										<value>12</value>
									</parameter>
									<parameter authoringApp="PremierePro">
										<parameterid>m_mag</parameterid>
										<name>Magnitude</name>
										<valuemin>0</valuemin>
										<valuemax>200</valuemax>
										<value>8.4251</value>
									</parameter>
									<parameter authoringApp="PremierePro">
										<parameterid>label3</parameterid>
										<name>Highlight Controls</name>
										<value></value>
									</parameter>
									<parameter authoringApp="PremierePro">
										<parameterid>highlights</parameterid>
										<name>Level</name>
										<valuemin>64</valuemin>
										<valuemax>509</valuemax>
										<value>255</value>
									</parameter>
									<parameter authoringApp="PremierePro">
										<parameterid>h_hue</parameterid>
										<name>Angle</name>
										<valuemin>-180</valuemin>
										<valuemax>180</valuemax>
										<value>31.6538</value>
									</parameter>
									<parameter authoringApp="PremierePro">
										<parameterid>h_mag</parameterid>
										<name>Magnitude</name>
										<valuemin>0</valuemin>
										<valuemax>200</valuemax>
										<value>11.0174</value>
									</parameter>
									<parameter authoringApp="PremierePro">
										<parameterid>label4</parameterid>
										<name>Color Controls</name>
										<value></value>
									</parameter>
									<parameter authoringApp="PremierePro">
										<parameterid>chroma</parameterid>
										<name>Saturation</name>
										<valuemin>0</valuemin>
										<valuemax>200</valuemax>
										<value>136</value>
									</parameter>
									<parameter authoringApp="PremierePro">
										<parameterid>label5</parameterid>
										<name>Limit Effect Controls</name>
										<value></value>
									</parameter>
									<parameter authoringApp="PremierePro">
										<parameterid>dochroma</parameterid>
										<name>Limit on Chroma</name>
										<value>FALSE</value>
									</parameter>
									<parameter authoringApp="PremierePro">
										<parameterid>centerang</parameterid>
										<name>Chroma Center</name>
										<valuemin>-760</valuemin>
										<valuemax>760</valuemax>
										<value>-110</value>
									</parameter>
									<parameter authoringApp="PremierePro">
										<parameterid>chromawidth</parameterid>
										<name>Chroma Width</name>
										<valuemin>0</valuemin>
										<valuemax>360</valuemax>
										<value>15</value>
									</parameter>
									<parameter authoringApp="PremierePro">
										<parameterid>chromasoft</parameterid>
										<name>Chroma Softness</name>
										<valuemin>0</valuemin>
										<valuemax>180</valuemax>
										<value>10</value>
									</parameter>
									<parameter authoringApp="PremierePro">
										<parameterid>dosat</parameterid>
										<name>Limit on Saturation</name>
										<value>FALSE</value>
									</parameter>
									<parameter authoringApp="PremierePro">
										<parameterid>satmin</parameterid>
										<name>Sat. Minimum</name>
										<valuemin>0</valuemin>
										<valuemax>125</valuemax>
										<value>35</value>
									</parameter>
									<parameter authoringApp="PremierePro">
										<parameterid>satwidth</parameterid>
										<name>Sat. Width</name>
										<valuemin>0</valuemin>
										<valuemax>125</valuemax>
										<value>40</value>
									</parameter>
									<parameter authoringApp="PremierePro">
										<parameterid>satsoft</parameterid>
										<name>Sat. Softness</name>
										<valuemin>0</valuemin>
										<valuemax>125</valuemax>
										<value>20</value>
									</parameter>
									<parameter authoringApp="PremierePro">
										<parameterid>doluma</parameterid>
										<name>Limit on Luma</name>
										<value>FALSE</value>
									</parameter>
									<parameter authoringApp="PremierePro">
										<parameterid>lumamin</parameterid>
										<name>Luma Minimum</name>
										<valuemin>0</valuemin>
										<valuemax>120</valuemax>
										<value>0</value>
									</parameter>
									<parameter authoringApp="PremierePro">
										<parameterid>lumawidth</parameterid>
										<name>Luma Width</name>
										<valuemin>0</valuemin>
										<valuemax>120</valuemax>
										<value>40</value>
									</parameter>
									<parameter authoringApp="PremierePro">
										<parameterid>lumasoft</parameterid>
										<name>Luma Softness</name>
										<valuemin>0</valuemin>
										<valuemax>120</valuemax>
										<value>20</value>
									</parameter>
									<parameter authoringApp="PremierePro">
										<parameterid>label6</parameterid>
										<name>Edge Control</name>
										<value></value>
									</parameter>
									<parameter authoringApp="PremierePro">
										<parameterid>edgethin</parameterid>
										<name>Thin/Spread</name>
										<valuemin>-100</valuemin>
										<valuemax>100</valuemax>
										<value>0</value>
									</parameter>
									<parameter authoringApp="PremierePro">
										<parameterid>edgefeather</parameterid>
										<name>Softening</name>
										<valuemin>0</valuemin>
										<valuemax>100</valuemax>
										<value>0</value>
									</parameter>
									<parameter authoringApp="PremierePro">
										<parameterid>label7</parameterid>
										<name>Mask Control</name>
										<value></value>
									</parameter>
									<parameter authoringApp="PremierePro">
										<parameterid>invertsel</parameterid>
										<name>Invert</name>
										<value>FALSE</value>
									</parameter>
									<parameter authoringApp="PremierePro">
										<parameterid>debugshow</parameterid>
										<name>Show Stats</name>
										<value>FALSE</value>
									</parameter>
								</effect>
							</filter>
							<filter>
								<effect>
									<name>Distort</name>
									<effectid>deformation</effectid>
									<effectcategory>motion</effectcategory>
									<effecttype>motion</effecttype>
									<mediatype>video</mediatype>
									<parameter authoringApp="PremierePro">
										<parameterid>aspect</parameterid>
										<name>Aspect</name>
										<valuemin>-10000</valuemin>
										<valuemax>10000</valuemax>
										<value>-9.40171</value>
									</parameter>
								</effect>
							</filter>
						<logginginfo>
							<description></description>
							<scene></scene>
							<shottake></shottake>
							<lognote></lognote>
						</logginginfo>
						<labels>
							<label2>Iris</label2>
						</labels>
					</clipitem>
					<clipitem id="clipitem-280">
						<masterclipid>masterclip-18</masterclipid>
						<name>ofaa21000105aa-p1-110416r.mxf</name>
						<enabled>TRUE</enabled>
						<duration>6745</duration>
						<rate>
							<timebase>25</timebase>
							<ntsc>FALSE</ntsc>
						</rate>
						<start>2391</start>
						<end>2452</end>
						<in>2838</in>
						<out>2899</out>
						<pproTicksIn>28835896320000</pproTicksIn>
						<pproTicksOut>29455695360000</pproTicksOut>
						<alphatype>none</alphatype>
						<file id="file-15"/>
							<filter>
								<effect>
									<name>Basic Motion</name>
									<effectid>basic</effectid>
									<effectcategory>motion</effectcategory>
									<effecttype>motion</effecttype>
									<mediatype>video</mediatype>
									<parameter authoringApp="PremierePro">
										<parameterid>scale</parameterid>
										<name>Scale</name>
										<valuemin>0</valuemin>
										<valuemax>1000</valuemax>
										<value>133</value>
									</parameter>
									<parameter authoringApp="PremierePro">
										<parameterid>rotation</parameterid>
										<name>Rotation</name>
										<valuemin>-8640</valuemin>
										<valuemax>8640</valuemax>
										<value>0</value>
									</parameter>
									<parameter authoringApp="PremierePro">
										<parameterid>center</parameterid>
										<name>Center</name>
										<value>
											<horiz>0</horiz>
											<vert>-0.28125</vert>
										</value>
									</parameter>
									<parameter authoringApp="PremierePro">
										<parameterid>centerOffset</parameterid>
										<name>Anchor Point</name>
										<value>
											<horiz>0</horiz>
											<vert>0</vert>
										</value>
									</parameter>
								</effect>
							</filter>
							<filter>
								<effect>
									<name>Color Corrector 3-way</name>
									<effectid>Color Corrector 3-way</effectid>
									<effectcategory>Color Correction</effectcategory>
									<effecttype>filter</effecttype>
									<mediatype>video</mediatype>
									<parameter authoringApp="PremierePro">
										<parameterid>dispmode</parameterid>
										<name>Display Mode</name>
										<valuemin>1</valuemin>
										<valuemax>3</valuemax>
										<value>1</value>
										<valuelist>
											<valueentry>
												<name>Final</name>
												<value>1</value>
											</valueentry>
											<valueentry>
												<name>Matte</name>
												<value>2</value>
											</valueentry>
											<valueentry>
												<name>Source</name>
												<value>3</value>
											</valueentry>
										</valuelist>
									</parameter>
									<parameter authoringApp="PremierePro">
										<parameterid>label1</parameterid>
										<name>Blacks Controls</name>
										<value></value>
									</parameter>
									<parameter authoringApp="PremierePro">
										<parameterid>blacklevel</parameterid>
										<name>Level</name>
										<valuemin>-196</valuemin>
										<valuemax>254</valuemax>
										<value>0</value>
									</parameter>
									<parameter authoringApp="PremierePro">
										<parameterid>b_hue</parameterid>
										<name>Angle</name>
										<valuemin>-180</valuemin>
										<valuemax>180</valuemax>
										<value>-168</value>
									</parameter>
									<parameter authoringApp="PremierePro">
										<parameterid>b_mag</parameterid>
										<name>Magnitude</name>
										<valuemin>0</valuemin>
										<valuemax>200</valuemax>
										<value>26.3721</value>
									</parameter>
									<parameter authoringApp="PremierePro">
										<parameterid>label2</parameterid>
										<name>Midrange Controls</name>
										<value></value>
									</parameter>
									<parameter authoringApp="PremierePro">
										<parameterid>mids</parameterid>
										<name>Level</name>
										<valuemin>0</valuemin>
										<valuemax>200</valuemax>
										<value>100</value>
									</parameter>
									<parameter authoringApp="PremierePro">
										<parameterid>m_hue</parameterid>
										<name>Angle</name>
										<valuemin>-180</valuemin>
										<valuemax>180</valuemax>
										<value>12</value>
									</parameter>
									<parameter authoringApp="PremierePro">
										<parameterid>m_mag</parameterid>
										<name>Magnitude</name>
										<valuemin>0</valuemin>
										<valuemax>200</valuemax>
										<value>8.4251</value>
									</parameter>
									<parameter authoringApp="PremierePro">
										<parameterid>label3</parameterid>
										<name>Highlight Controls</name>
										<value></value>
									</parameter>
									<parameter authoringApp="PremierePro">
										<parameterid>highlights</parameterid>
										<name>Level</name>
										<valuemin>64</valuemin>
										<valuemax>509</valuemax>
										<value>255</value>
									</parameter>
									<parameter authoringApp="PremierePro">
										<parameterid>h_hue</parameterid>
										<name>Angle</name>
										<valuemin>-180</valuemin>
										<valuemax>180</valuemax>
										<value>31.6538</value>
									</parameter>
									<parameter authoringApp="PremierePro">
										<parameterid>h_mag</parameterid>
										<name>Magnitude</name>
										<valuemin>0</valuemin>
										<valuemax>200</valuemax>
										<value>11.0174</value>
									</parameter>
									<parameter authoringApp="PremierePro">
										<parameterid>label4</parameterid>
										<name>Color Controls</name>
										<value></value>
									</parameter>
									<parameter authoringApp="PremierePro">
										<parameterid>chroma</parameterid>
										<name>Saturation</name>
										<valuemin>0</valuemin>
										<valuemax>200</valuemax>
										<value>199</value>
									</parameter>
									<parameter authoringApp="PremierePro">
										<parameterid>label5</parameterid>
										<name>Limit Effect Controls</name>
										<value></value>
									</parameter>
									<parameter authoringApp="PremierePro">
										<parameterid>dochroma</parameterid>
										<name>Limit on Chroma</name>
										<value>FALSE</value>
									</parameter>
									<parameter authoringApp="PremierePro">
										<parameterid>centerang</parameterid>
										<name>Chroma Center</name>
										<valuemin>-760</valuemin>
										<valuemax>760</valuemax>
										<value>-110</value>
									</parameter>
									<parameter authoringApp="PremierePro">
										<parameterid>chromawidth</parameterid>
										<name>Chroma Width</name>
										<valuemin>0</valuemin>
										<valuemax>360</valuemax>
										<value>15</value>
									</parameter>
									<parameter authoringApp="PremierePro">
										<parameterid>chromasoft</parameterid>
										<name>Chroma Softness</name>
										<valuemin>0</valuemin>
										<valuemax>180</valuemax>
										<value>10</value>
									</parameter>
									<parameter authoringApp="PremierePro">
										<parameterid>dosat</parameterid>
										<name>Limit on Saturation</name>
										<value>FALSE</value>
									</parameter>
									<parameter authoringApp="PremierePro">
										<parameterid>satmin</parameterid>
										<name>Sat. Minimum</name>
										<valuemin>0</valuemin>
										<valuemax>125</valuemax>
										<value>35</value>
									</parameter>
									<parameter authoringApp="PremierePro">
										<parameterid>satwidth</parameterid>
										<name>Sat. Width</name>
										<valuemin>0</valuemin>
										<valuemax>125</valuemax>
										<value>40</value>
									</parameter>
									<parameter authoringApp="PremierePro">
										<parameterid>satsoft</parameterid>
										<name>Sat. Softness</name>
										<valuemin>0</valuemin>
										<valuemax>125</valuemax>
										<value>20</value>
									</parameter>
									<parameter authoringApp="PremierePro">
										<parameterid>doluma</parameterid>
										<name>Limit on Luma</name>
										<value>FALSE</value>
									</parameter>
									<parameter authoringApp="PremierePro">
										<parameterid>lumamin</parameterid>
										<name>Luma Minimum</name>
										<valuemin>0</valuemin>
										<valuemax>120</valuemax>
										<value>0</value>
									</parameter>
									<parameter authoringApp="PremierePro">
										<parameterid>lumawidth</parameterid>
										<name>Luma Width</name>
										<valuemin>0</valuemin>
										<valuemax>120</valuemax>
										<value>40</value>
									</parameter>
									<parameter authoringApp="PremierePro">
										<parameterid>lumasoft</parameterid>
										<name>Luma Softness</name>
										<valuemin>0</valuemin>
										<valuemax>120</valuemax>
										<value>20</value>
									</parameter>
									<parameter authoringApp="PremierePro">
										<parameterid>label6</parameterid>
										<name>Edge Control</name>
										<value></value>
									</parameter>
									<parameter authoringApp="PremierePro">
										<parameterid>edgethin</parameterid>
										<name>Thin/Spread</name>
										<valuemin>-100</valuemin>
										<valuemax>100</valuemax>
										<value>0</value>
									</parameter>
									<parameter authoringApp="PremierePro">
										<parameterid>edgefeather</parameterid>
										<name>Softening</name>
										<valuemin>0</valuemin>
										<valuemax>100</valuemax>
										<value>0</value>
									</parameter>
									<parameter authoringApp="PremierePro">
										<parameterid>label7</parameterid>
										<name>Mask Control</name>
										<value></value>
									</parameter>
									<parameter authoringApp="PremierePro">
										<parameterid>invertsel</parameterid>
										<name>Invert</name>
										<value>FALSE</value>
									</parameter>
									<parameter authoringApp="PremierePro">
										<parameterid>debugshow</parameterid>
										<name>Show Stats</name>
										<value>FALSE</value>
									</parameter>
								</effect>
							</filter>
							<filter>
								<effect>
									<name>Distort</name>
									<effectid>deformation</effectid>
									<effectcategory>motion</effectcategory>
									<effecttype>motion</effecttype>
									<mediatype>video</mediatype>
									<parameter authoringApp="PremierePro">
										<parameterid>aspect</parameterid>
										<name>Aspect</name>
										<valuemin>-10000</valuemin>
										<valuemax>10000</valuemax>
										<value>-9.40171</value>
									</parameter>
								</effect>
							</filter>
						<logginginfo>
							<description></description>
							<scene></scene>
							<shottake></shottake>
							<lognote></lognote>
						</logginginfo>
						<labels>
							<label2>Iris</label2>
						</labels>
					</clipitem>
					<clipitem id="clipitem-281">
						<masterclipid>masterclip-18</masterclipid>
						<name>ofaa21000105aa-p1-110416r.mxf</name>
						<enabled>TRUE</enabled>
						<duration>6745</duration>
						<rate>
							<timebase>25</timebase>
							<ntsc>FALSE</ntsc>
						</rate>
						<start>2452</start>
						<end>2494</end>
						<in>5356</in>
						<out>5398</out>
						<pproTicksIn>54420387840000</pproTicksIn>
						<pproTicksOut>54847134720000</pproTicksOut>
						<alphatype>none</alphatype>
						<file id="file-15"/>
							<filter>
								<effect>
									<name>Basic Motion</name>
									<effectid>basic</effectid>
									<effectcategory>motion</effectcategory>
									<effecttype>motion</effecttype>
									<mediatype>video</mediatype>
									<parameter authoringApp="PremierePro">
										<parameterid>scale</parameterid>
										<name>Scale</name>
										<valuemin>0</valuemin>
										<valuemax>1000</valuemax>
										<value>133</value>
									</parameter>
									<parameter authoringApp="PremierePro">
										<parameterid>rotation</parameterid>
										<name>Rotation</name>
										<valuemin>-8640</valuemin>
										<valuemax>8640</valuemax>
										<value>0</value>
									</parameter>
									<parameter authoringApp="PremierePro">
										<parameterid>center</parameterid>
										<name>Center</name>
										<value>
											<horiz>0</horiz>
											<vert>0</vert>
										</value>
									</parameter>
									<parameter authoringApp="PremierePro">
										<parameterid>centerOffset</parameterid>
										<name>Anchor Point</name>
										<value>
											<horiz>0</horiz>
											<vert>0</vert>
										</value>
									</parameter>
								</effect>
							</filter>
							<filter>
								<effect>
									<name>Color Corrector 3-way</name>
									<effectid>Color Corrector 3-way</effectid>
									<effectcategory>Color Correction</effectcategory>
									<effecttype>filter</effecttype>
									<mediatype>video</mediatype>
									<parameter authoringApp="PremierePro">
										<parameterid>dispmode</parameterid>
										<name>Display Mode</name>
										<valuemin>1</valuemin>
										<valuemax>3</valuemax>
										<value>1</value>
										<valuelist>
											<valueentry>
												<name>Final</name>
												<value>1</value>
											</valueentry>
											<valueentry>
												<name>Matte</name>
												<value>2</value>
											</valueentry>
											<valueentry>
												<name>Source</name>
												<value>3</value>
											</valueentry>
										</valuelist>
									</parameter>
									<parameter authoringApp="PremierePro">
										<parameterid>label1</parameterid>
										<name>Blacks Controls</name>
										<value></value>
									</parameter>
									<parameter authoringApp="PremierePro">
										<parameterid>blacklevel</parameterid>
										<name>Level</name>
										<valuemin>-196</valuemin>
										<valuemax>254</valuemax>
										<value>0</value>
									</parameter>
									<parameter authoringApp="PremierePro">
										<parameterid>b_hue</parameterid>
										<name>Angle</name>
										<valuemin>-180</valuemin>
										<valuemax>180</valuemax>
										<value>-168</value>
									</parameter>
									<parameter authoringApp="PremierePro">
										<parameterid>b_mag</parameterid>
										<name>Magnitude</name>
										<valuemin>0</valuemin>
										<valuemax>200</valuemax>
										<value>26.3721</value>
									</parameter>
									<parameter authoringApp="PremierePro">
										<parameterid>label2</parameterid>
										<name>Midrange Controls</name>
										<value></value>
									</parameter>
									<parameter authoringApp="PremierePro">
										<parameterid>mids</parameterid>
										<name>Level</name>
										<valuemin>0</valuemin>
										<valuemax>200</valuemax>
										<value>100</value>
									</parameter>
									<parameter authoringApp="PremierePro">
										<parameterid>m_hue</parameterid>
										<name>Angle</name>
										<valuemin>-180</valuemin>
										<valuemax>180</valuemax>
										<value>12</value>
									</parameter>
									<parameter authoringApp="PremierePro">
										<parameterid>m_mag</parameterid>
										<name>Magnitude</name>
										<valuemin>0</valuemin>
										<valuemax>200</valuemax>
										<value>8.4251</value>
									</parameter>
									<parameter authoringApp="PremierePro">
										<parameterid>label3</parameterid>
										<name>Highlight Controls</name>
										<value></value>
									</parameter>
									<parameter authoringApp="PremierePro">
										<parameterid>highlights</parameterid>
										<name>Level</name>
										<valuemin>64</valuemin>
										<valuemax>509</valuemax>
										<value>255</value>
									</parameter>
									<parameter authoringApp="PremierePro">
										<parameterid>h_hue</parameterid>
										<name>Angle</name>
										<valuemin>-180</valuemin>
										<valuemax>180</valuemax>
										<value>31.6538</value>
									</parameter>
									<parameter authoringApp="PremierePro">
										<parameterid>h_mag</parameterid>
										<name>Magnitude</name>
										<valuemin>0</valuemin>
										<valuemax>200</valuemax>
										<value>11.0174</value>
									</parameter>
									<parameter authoringApp="PremierePro">
										<parameterid>label4</parameterid>
										<name>Color Controls</name>
										<value></value>
									</parameter>
									<parameter authoringApp="PremierePro">
										<parameterid>chroma</parameterid>
										<name>Saturation</name>
										<valuemin>0</valuemin>
										<valuemax>200</valuemax>
										<value>199</value>
									</parameter>
									<parameter authoringApp="PremierePro">
										<parameterid>label5</parameterid>
										<name>Limit Effect Controls</name>
										<value></value>
									</parameter>
									<parameter authoringApp="PremierePro">
										<parameterid>dochroma</parameterid>
										<name>Limit on Chroma</name>
										<value>FALSE</value>
									</parameter>
									<parameter authoringApp="PremierePro">
										<parameterid>centerang</parameterid>
										<name>Chroma Center</name>
										<valuemin>-760</valuemin>
										<valuemax>760</valuemax>
										<value>-110</value>
									</parameter>
									<parameter authoringApp="PremierePro">
										<parameterid>chromawidth</parameterid>
										<name>Chroma Width</name>
										<valuemin>0</valuemin>
										<valuemax>360</valuemax>
										<value>15</value>
									</parameter>
									<parameter authoringApp="PremierePro">
										<parameterid>chromasoft</parameterid>
										<name>Chroma Softness</name>
										<valuemin>0</valuemin>
										<valuemax>180</valuemax>
										<value>10</value>
									</parameter>
									<parameter authoringApp="PremierePro">
										<parameterid>dosat</parameterid>
										<name>Limit on Saturation</name>
										<value>FALSE</value>
									</parameter>
									<parameter authoringApp="PremierePro">
										<parameterid>satmin</parameterid>
										<name>Sat. Minimum</name>
										<valuemin>0</valuemin>
										<valuemax>125</valuemax>
										<value>35</value>
									</parameter>
									<parameter authoringApp="PremierePro">
										<parameterid>satwidth</parameterid>
										<name>Sat. Width</name>
										<valuemin>0</valuemin>
										<valuemax>125</valuemax>
										<value>40</value>
									</parameter>
									<parameter authoringApp="PremierePro">
										<parameterid>satsoft</parameterid>
										<name>Sat. Softness</name>
										<valuemin>0</valuemin>
										<valuemax>125</valuemax>
										<value>20</value>
									</parameter>
									<parameter authoringApp="PremierePro">
										<parameterid>doluma</parameterid>
										<name>Limit on Luma</name>
										<value>FALSE</value>
									</parameter>
									<parameter authoringApp="PremierePro">
										<parameterid>lumamin</parameterid>
										<name>Luma Minimum</name>
										<valuemin>0</valuemin>
										<valuemax>120</valuemax>
										<value>0</value>
									</parameter>
									<parameter authoringApp="PremierePro">
										<parameterid>lumawidth</parameterid>
										<name>Luma Width</name>
										<valuemin>0</valuemin>
										<valuemax>120</valuemax>
										<value>40</value>
									</parameter>
									<parameter authoringApp="PremierePro">
										<parameterid>lumasoft</parameterid>
										<name>Luma Softness</name>
										<valuemin>0</valuemin>
										<valuemax>120</valuemax>
										<value>20</value>
									</parameter>
									<parameter authoringApp="PremierePro">
										<parameterid>label6</parameterid>
										<name>Edge Control</name>
										<value></value>
									</parameter>
									<parameter authoringApp="PremierePro">
										<parameterid>edgethin</parameterid>
										<name>Thin/Spread</name>
										<valuemin>-100</valuemin>
										<valuemax>100</valuemax>
										<value>0</value>
									</parameter>
									<parameter authoringApp="PremierePro">
										<parameterid>edgefeather</parameterid>
										<name>Softening</name>
										<valuemin>0</valuemin>
										<valuemax>100</valuemax>
										<value>0</value>
									</parameter>
									<parameter authoringApp="PremierePro">
										<parameterid>label7</parameterid>
										<name>Mask Control</name>
										<value></value>
									</parameter>
									<parameter authoringApp="PremierePro">
										<parameterid>invertsel</parameterid>
										<name>Invert</name>
										<value>FALSE</value>
									</parameter>
									<parameter authoringApp="PremierePro">
										<parameterid>debugshow</parameterid>
										<name>Show Stats</name>
										<value>FALSE</value>
									</parameter>
								</effect>
							</filter>
							<filter>
								<effect>
									<name>Distort</name>
									<effectid>deformation</effectid>
									<effectcategory>motion</effectcategory>
									<effecttype>motion</effecttype>
									<mediatype>video</mediatype>
									<parameter authoringApp="PremierePro">
										<parameterid>aspect</parameterid>
										<name>Aspect</name>
										<valuemin>-10000</valuemin>
										<valuemax>10000</valuemax>
										<value>-9.40171</value>
									</parameter>
								</effect>
							</filter>
						<logginginfo>
							<description></description>
							<scene></scene>
							<shottake></shottake>
							<lognote></lognote>
						</logginginfo>
						<labels>
							<label2>Iris</label2>
						</labels>
					</clipitem>
					<clipitem id="clipitem-282">
						<masterclipid>masterclip-18</masterclipid>
						<name>ofaa21000105aa-p1-110416r.mxf</name>
						<enabled>TRUE</enabled>
						<duration>6745</duration>
						<rate>
							<timebase>25</timebase>
							<ntsc>FALSE</ntsc>
						</rate>
						<start>2494</start>
						<end>2580</end>
						<in>3508</in>
						<out>3594</out>
						<pproTicksIn>35643525120000</pproTicksIn>
						<pproTicksOut>36517340160000</pproTicksOut>
						<alphatype>none</alphatype>
						<file id="file-15"/>
							<filter>
								<effect>
									<name>Basic Motion</name>
									<effectid>basic</effectid>
									<effectcategory>motion</effectcategory>
									<effecttype>motion</effecttype>
									<mediatype>video</mediatype>
									<parameter authoringApp="PremierePro">
										<parameterid>scale</parameterid>
										<name>Scale</name>
										<valuemin>0</valuemin>
										<valuemax>1000</valuemax>
										<value>133</value>
									</parameter>
									<parameter authoringApp="PremierePro">
										<parameterid>rotation</parameterid>
										<name>Rotation</name>
										<valuemin>-8640</valuemin>
										<valuemax>8640</valuemax>
										<value>0</value>
									</parameter>
									<parameter authoringApp="PremierePro">
										<parameterid>center</parameterid>
										<name>Center</name>
										<value>
											<horiz>0</horiz>
											<vert>0.0486111</vert>
										</value>
									</parameter>
									<parameter authoringApp="PremierePro">
										<parameterid>centerOffset</parameterid>
										<name>Anchor Point</name>
										<value>
											<horiz>0</horiz>
											<vert>0</vert>
										</value>
									</parameter>
								</effect>
							</filter>
							<filter>
								<effect>
									<name>Color Corrector 3-way</name>
									<effectid>Color Corrector 3-way</effectid>
									<effectcategory>Color Correction</effectcategory>
									<effecttype>filter</effecttype>
									<mediatype>video</mediatype>
									<parameter authoringApp="PremierePro">
										<parameterid>dispmode</parameterid>
										<name>Display Mode</name>
										<valuemin>1</valuemin>
										<valuemax>3</valuemax>
										<value>1</value>
										<valuelist>
											<valueentry>
												<name>Final</name>
												<value>1</value>
											</valueentry>
											<valueentry>
												<name>Matte</name>
												<value>2</value>
											</valueentry>
											<valueentry>
												<name>Source</name>
												<value>3</value>
											</valueentry>
										</valuelist>
									</parameter>
									<parameter authoringApp="PremierePro">
										<parameterid>label1</parameterid>
										<name>Blacks Controls</name>
										<value></value>
									</parameter>
									<parameter authoringApp="PremierePro">
										<parameterid>blacklevel</parameterid>
										<name>Level</name>
										<valuemin>-196</valuemin>
										<valuemax>254</valuemax>
										<value>0</value>
									</parameter>
									<parameter authoringApp="PremierePro">
										<parameterid>b_hue</parameterid>
										<name>Angle</name>
										<valuemin>-180</valuemin>
										<valuemax>180</valuemax>
										<value>-168</value>
									</parameter>
									<parameter authoringApp="PremierePro">
										<parameterid>b_mag</parameterid>
										<name>Magnitude</name>
										<valuemin>0</valuemin>
										<valuemax>200</valuemax>
										<value>26.3721</value>
									</parameter>
									<parameter authoringApp="PremierePro">
										<parameterid>label2</parameterid>
										<name>Midrange Controls</name>
										<value></value>
									</parameter>
									<parameter authoringApp="PremierePro">
										<parameterid>mids</parameterid>
										<name>Level</name>
										<valuemin>0</valuemin>
										<valuemax>200</valuemax>
										<value>100</value>
									</parameter>
									<parameter authoringApp="PremierePro">
										<parameterid>m_hue</parameterid>
										<name>Angle</name>
										<valuemin>-180</valuemin>
										<valuemax>180</valuemax>
										<value>12</value>
									</parameter>
									<parameter authoringApp="PremierePro">
										<parameterid>m_mag</parameterid>
										<name>Magnitude</name>
										<valuemin>0</valuemin>
										<valuemax>200</valuemax>
										<value>8.4251</value>
									</parameter>
									<parameter authoringApp="PremierePro">
										<parameterid>label3</parameterid>
										<name>Highlight Controls</name>
										<value></value>
									</parameter>
									<parameter authoringApp="PremierePro">
										<parameterid>highlights</parameterid>
										<name>Level</name>
										<valuemin>64</valuemin>
										<valuemax>509</valuemax>
										<value>255</value>
									</parameter>
									<parameter authoringApp="PremierePro">
										<parameterid>h_hue</parameterid>
										<name>Angle</name>
										<valuemin>-180</valuemin>
										<valuemax>180</valuemax>
										<value>31.6538</value>
									</parameter>
									<parameter authoringApp="PremierePro">
										<parameterid>h_mag</parameterid>
										<name>Magnitude</name>
										<valuemin>0</valuemin>
										<valuemax>200</valuemax>
										<value>11.0174</value>
									</parameter>
									<parameter authoringApp="PremierePro">
										<parameterid>label4</parameterid>
										<name>Color Controls</name>
										<value></value>
									</parameter>
									<parameter authoringApp="PremierePro">
										<parameterid>chroma</parameterid>
										<name>Saturation</name>
										<valuemin>0</valuemin>
										<valuemax>200</valuemax>
										<value>199</value>
									</parameter>
									<parameter authoringApp="PremierePro">
										<parameterid>label5</parameterid>
										<name>Limit Effect Controls</name>
										<value></value>
									</parameter>
									<parameter authoringApp="PremierePro">
										<parameterid>dochroma</parameterid>
										<name>Limit on Chroma</name>
										<value>FALSE</value>
									</parameter>
									<parameter authoringApp="PremierePro">
										<parameterid>centerang</parameterid>
										<name>Chroma Center</name>
										<valuemin>-760</valuemin>
										<valuemax>760</valuemax>
										<value>-110</value>
									</parameter>
									<parameter authoringApp="PremierePro">
										<parameterid>chromawidth</parameterid>
										<name>Chroma Width</name>
										<valuemin>0</valuemin>
										<valuemax>360</valuemax>
										<value>15</value>
									</parameter>
									<parameter authoringApp="PremierePro">
										<parameterid>chromasoft</parameterid>
										<name>Chroma Softness</name>
										<valuemin>0</valuemin>
										<valuemax>180</valuemax>
										<value>10</value>
									</parameter>
									<parameter authoringApp="PremierePro">
										<parameterid>dosat</parameterid>
										<name>Limit on Saturation</name>
										<value>FALSE</value>
									</parameter>
									<parameter authoringApp="PremierePro">
										<parameterid>satmin</parameterid>
										<name>Sat. Minimum</name>
										<valuemin>0</valuemin>
										<valuemax>125</valuemax>
										<value>35</value>
									</parameter>
									<parameter authoringApp="PremierePro">
										<parameterid>satwidth</parameterid>
										<name>Sat. Width</name>
										<valuemin>0</valuemin>
										<valuemax>125</valuemax>
										<value>40</value>
									</parameter>
									<parameter authoringApp="PremierePro">
										<parameterid>satsoft</parameterid>
										<name>Sat. Softness</name>
										<valuemin>0</valuemin>
										<valuemax>125</valuemax>
										<value>20</value>
									</parameter>
									<parameter authoringApp="PremierePro">
										<parameterid>doluma</parameterid>
										<name>Limit on Luma</name>
										<value>FALSE</value>
									</parameter>
									<parameter authoringApp="PremierePro">
										<parameterid>lumamin</parameterid>
										<name>Luma Minimum</name>
										<valuemin>0</valuemin>
										<valuemax>120</valuemax>
										<value>0</value>
									</parameter>
									<parameter authoringApp="PremierePro">
										<parameterid>lumawidth</parameterid>
										<name>Luma Width</name>
										<valuemin>0</valuemin>
										<valuemax>120</valuemax>
										<value>40</value>
									</parameter>
									<parameter authoringApp="PremierePro">
										<parameterid>lumasoft</parameterid>
										<name>Luma Softness</name>
										<valuemin>0</valuemin>
										<valuemax>120</valuemax>
										<value>20</value>
									</parameter>
									<parameter authoringApp="PremierePro">
										<parameterid>label6</parameterid>
										<name>Edge Control</name>
										<value></value>
									</parameter>
									<parameter authoringApp="PremierePro">
										<parameterid>edgethin</parameterid>
										<name>Thin/Spread</name>
										<valuemin>-100</valuemin>
										<valuemax>100</valuemax>
										<value>0</value>
									</parameter>
									<parameter authoringApp="PremierePro">
										<parameterid>edgefeather</parameterid>
										<name>Softening</name>
										<valuemin>0</valuemin>
										<valuemax>100</valuemax>
										<value>0</value>
									</parameter>
									<parameter authoringApp="PremierePro">
										<parameterid>label7</parameterid>
										<name>Mask Control</name>
										<value></value>
									</parameter>
									<parameter authoringApp="PremierePro">
										<parameterid>invertsel</parameterid>
										<name>Invert</name>
										<value>FALSE</value>
									</parameter>
									<parameter authoringApp="PremierePro">
										<parameterid>debugshow</parameterid>
										<name>Show Stats</name>
										<value>FALSE</value>
									</parameter>
								</effect>
							</filter>
							<filter>
								<effect>
									<name>Distort</name>
									<effectid>deformation</effectid>
									<effectcategory>motion</effectcategory>
									<effecttype>motion</effecttype>
									<mediatype>video</mediatype>
									<parameter authoringApp="PremierePro">
										<parameterid>aspect</parameterid>
										<name>Aspect</name>
										<valuemin>-10000</valuemin>
										<valuemax>10000</valuemax>
										<value>-9.40171</value>
									</parameter>
								</effect>
							</filter>
						<logginginfo>
							<description></description>
							<scene></scene>
							<shottake></shottake>
							<lognote></lognote>
						</logginginfo>
						<labels>
							<label2>Iris</label2>
						</labels>
					</clipitem>
					<clipitem id="clipitem-283">
						<masterclipid>masterclip-18</masterclipid>
						<name>ofaa21000105aa-p1-110416r.mxf</name>
						<enabled>TRUE</enabled>
						<duration>6745</duration>
						<rate>
							<timebase>25</timebase>
							<ntsc>FALSE</ntsc>
						</rate>
						<start>2580</start>
						<end>2631</end>
						<in>3646</in>
						<out>3697</out>
						<pproTicksIn>37045693440000</pproTicksIn>
						<pproTicksOut>37563886080000</pproTicksOut>
						<alphatype>none</alphatype>
						<file id="file-15"/>
							<filter>
								<effect>
									<name>Basic Motion</name>
									<effectid>basic</effectid>
									<effectcategory>motion</effectcategory>
									<effecttype>motion</effecttype>
									<mediatype>video</mediatype>
									<parameter authoringApp="PremierePro">
										<parameterid>scale</parameterid>
										<name>Scale</name>
										<valuemin>0</valuemin>
										<valuemax>1000</valuemax>
										<value>133</value>
									</parameter>
									<parameter authoringApp="PremierePro">
										<parameterid>rotation</parameterid>
										<name>Rotation</name>
										<valuemin>-8640</valuemin>
										<valuemax>8640</valuemax>
										<value>0</value>
									</parameter>
									<parameter authoringApp="PremierePro">
										<parameterid>center</parameterid>
										<name>Center</name>
										<value>
											<horiz>0</horiz>
											<vert>0.104167</vert>
										</value>
									</parameter>
									<parameter authoringApp="PremierePro">
										<parameterid>centerOffset</parameterid>
										<name>Anchor Point</name>
										<value>
											<horiz>0</horiz>
											<vert>0</vert>
										</value>
									</parameter>
								</effect>
							</filter>
							<filter>
								<effect>
									<name>Color Corrector 3-way</name>
									<effectid>Color Corrector 3-way</effectid>
									<effectcategory>Color Correction</effectcategory>
									<effecttype>filter</effecttype>
									<mediatype>video</mediatype>
									<parameter authoringApp="PremierePro">
										<parameterid>dispmode</parameterid>
										<name>Display Mode</name>
										<valuemin>1</valuemin>
										<valuemax>3</valuemax>
										<value>1</value>
										<valuelist>
											<valueentry>
												<name>Final</name>
												<value>1</value>
											</valueentry>
											<valueentry>
												<name>Matte</name>
												<value>2</value>
											</valueentry>
											<valueentry>
												<name>Source</name>
												<value>3</value>
											</valueentry>
										</valuelist>
									</parameter>
									<parameter authoringApp="PremierePro">
										<parameterid>label1</parameterid>
										<name>Blacks Controls</name>
										<value></value>
									</parameter>
									<parameter authoringApp="PremierePro">
										<parameterid>blacklevel</parameterid>
										<name>Level</name>
										<valuemin>-196</valuemin>
										<valuemax>254</valuemax>
										<value>0</value>
									</parameter>
									<parameter authoringApp="PremierePro">
										<parameterid>b_hue</parameterid>
										<name>Angle</name>
										<valuemin>-180</valuemin>
										<valuemax>180</valuemax>
										<value>-168</value>
									</parameter>
									<parameter authoringApp="PremierePro">
										<parameterid>b_mag</parameterid>
										<name>Magnitude</name>
										<valuemin>0</valuemin>
										<valuemax>200</valuemax>
										<value>26.3721</value>
									</parameter>
									<parameter authoringApp="PremierePro">
										<parameterid>label2</parameterid>
										<name>Midrange Controls</name>
										<value></value>
									</parameter>
									<parameter authoringApp="PremierePro">
										<parameterid>mids</parameterid>
										<name>Level</name>
										<valuemin>0</valuemin>
										<valuemax>200</valuemax>
										<value>100</value>
									</parameter>
									<parameter authoringApp="PremierePro">
										<parameterid>m_hue</parameterid>
										<name>Angle</name>
										<valuemin>-180</valuemin>
										<valuemax>180</valuemax>
										<value>12</value>
									</parameter>
									<parameter authoringApp="PremierePro">
										<parameterid>m_mag</parameterid>
										<name>Magnitude</name>
										<valuemin>0</valuemin>
										<valuemax>200</valuemax>
										<value>8.4251</value>
									</parameter>
									<parameter authoringApp="PremierePro">
										<parameterid>label3</parameterid>
										<name>Highlight Controls</name>
										<value></value>
									</parameter>
									<parameter authoringApp="PremierePro">
										<parameterid>highlights</parameterid>
										<name>Level</name>
										<valuemin>64</valuemin>
										<valuemax>509</valuemax>
										<value>255</value>
									</parameter>
									<parameter authoringApp="PremierePro">
										<parameterid>h_hue</parameterid>
										<name>Angle</name>
										<valuemin>-180</valuemin>
										<valuemax>180</valuemax>
										<value>31.6538</value>
									</parameter>
									<parameter authoringApp="PremierePro">
										<parameterid>h_mag</parameterid>
										<name>Magnitude</name>
										<valuemin>0</valuemin>
										<valuemax>200</valuemax>
										<value>11.0174</value>
									</parameter>
									<parameter authoringApp="PremierePro">
										<parameterid>label4</parameterid>
										<name>Color Controls</name>
										<value></value>
									</parameter>
									<parameter authoringApp="PremierePro">
										<parameterid>chroma</parameterid>
										<name>Saturation</name>
										<valuemin>0</valuemin>
										<valuemax>200</valuemax>
										<value>199</value>
									</parameter>
									<parameter authoringApp="PremierePro">
										<parameterid>label5</parameterid>
										<name>Limit Effect Controls</name>
										<value></value>
									</parameter>
									<parameter authoringApp="PremierePro">
										<parameterid>dochroma</parameterid>
										<name>Limit on Chroma</name>
										<value>FALSE</value>
									</parameter>
									<parameter authoringApp="PremierePro">
										<parameterid>centerang</parameterid>
										<name>Chroma Center</name>
										<valuemin>-760</valuemin>
										<valuemax>760</valuemax>
										<value>-110</value>
									</parameter>
									<parameter authoringApp="PremierePro">
										<parameterid>chromawidth</parameterid>
										<name>Chroma Width</name>
										<valuemin>0</valuemin>
										<valuemax>360</valuemax>
										<value>15</value>
									</parameter>
									<parameter authoringApp="PremierePro">
										<parameterid>chromasoft</parameterid>
										<name>Chroma Softness</name>
										<valuemin>0</valuemin>
										<valuemax>180</valuemax>
										<value>10</value>
									</parameter>
									<parameter authoringApp="PremierePro">
										<parameterid>dosat</parameterid>
										<name>Limit on Saturation</name>
										<value>FALSE</value>
									</parameter>
									<parameter authoringApp="PremierePro">
										<parameterid>satmin</parameterid>
										<name>Sat. Minimum</name>
										<valuemin>0</valuemin>
										<valuemax>125</valuemax>
										<value>35</value>
									</parameter>
									<parameter authoringApp="PremierePro">
										<parameterid>satwidth</parameterid>
										<name>Sat. Width</name>
										<valuemin>0</valuemin>
										<valuemax>125</valuemax>
										<value>40</value>
									</parameter>
									<parameter authoringApp="PremierePro">
										<parameterid>satsoft</parameterid>
										<name>Sat. Softness</name>
										<valuemin>0</valuemin>
										<valuemax>125</valuemax>
										<value>20</value>
									</parameter>
									<parameter authoringApp="PremierePro">
										<parameterid>doluma</parameterid>
										<name>Limit on Luma</name>
										<value>FALSE</value>
									</parameter>
									<parameter authoringApp="PremierePro">
										<parameterid>lumamin</parameterid>
										<name>Luma Minimum</name>
										<valuemin>0</valuemin>
										<valuemax>120</valuemax>
										<value>0</value>
									</parameter>
									<parameter authoringApp="PremierePro">
										<parameterid>lumawidth</parameterid>
										<name>Luma Width</name>
										<valuemin>0</valuemin>
										<valuemax>120</valuemax>
										<value>40</value>
									</parameter>
									<parameter authoringApp="PremierePro">
										<parameterid>lumasoft</parameterid>
										<name>Luma Softness</name>
										<valuemin>0</valuemin>
										<valuemax>120</valuemax>
										<value>20</value>
									</parameter>
									<parameter authoringApp="PremierePro">
										<parameterid>label6</parameterid>
										<name>Edge Control</name>
										<value></value>
									</parameter>
									<parameter authoringApp="PremierePro">
										<parameterid>edgethin</parameterid>
										<name>Thin/Spread</name>
										<valuemin>-100</valuemin>
										<valuemax>100</valuemax>
										<value>0</value>
									</parameter>
									<parameter authoringApp="PremierePro">
										<parameterid>edgefeather</parameterid>
										<name>Softening</name>
										<valuemin>0</valuemin>
										<valuemax>100</valuemax>
										<value>0</value>
									</parameter>
									<parameter authoringApp="PremierePro">
										<parameterid>label7</parameterid>
										<name>Mask Control</name>
										<value></value>
									</parameter>
									<parameter authoringApp="PremierePro">
										<parameterid>invertsel</parameterid>
										<name>Invert</name>
										<value>FALSE</value>
									</parameter>
									<parameter authoringApp="PremierePro">
										<parameterid>debugshow</parameterid>
										<name>Show Stats</name>
										<value>FALSE</value>
									</parameter>
								</effect>
							</filter>
							<filter>
								<effect>
									<name>Distort</name>
									<effectid>deformation</effectid>
									<effectcategory>motion</effectcategory>
									<effecttype>motion</effecttype>
									<mediatype>video</mediatype>
									<parameter authoringApp="PremierePro">
										<parameterid>aspect</parameterid>
										<name>Aspect</name>
										<valuemin>-10000</valuemin>
										<valuemax>10000</valuemax>
										<value>-9.40171</value>
									</parameter>
								</effect>
							</filter>
						<logginginfo>
							<description></description>
							<scene></scene>
							<shottake></shottake>
							<lognote></lognote>
						</logginginfo>
						<labels>
							<label2>Iris</label2>
						</labels>
					</clipitem>
					<clipitem id="clipitem-284">
						<masterclipid>masterclip-10</masterclipid>
						<name>NNFA80750005AA.mxf</name>
						<enabled>TRUE</enabled>
						<duration>81126</duration>
						<rate>
							<timebase>25</timebase>
							<ntsc>FALSE</ntsc>
						</rate>
						<start>2631</start>
						<end>2831</end>
						<in>57409</in>
						<out>57609</out>
						<pproTicksIn>583312181760000</pproTicksIn>
						<pproTicksOut>585344309760000</pproTicksOut>
						<alphatype>none</alphatype>
						<file id="file-8"/>
							<filter>
								<effect>
									<name>Basic Motion</name>
									<effectid>basic</effectid>
									<effectcategory>motion</effectcategory>
									<effecttype>motion</effecttype>
									<mediatype>video</mediatype>
									<parameter authoringApp="PremierePro">
										<parameterid>scale</parameterid>
										<name>Scale</name>
										<valuemin>0</valuemin>
										<valuemax>1000</valuemax>
										<value>134</value>
									</parameter>
									<parameter authoringApp="PremierePro">
										<parameterid>rotation</parameterid>
										<name>Rotation</name>
										<valuemin>-8640</valuemin>
										<valuemax>8640</valuemax>
										<value>0</value>
									</parameter>
									<parameter authoringApp="PremierePro">
										<parameterid>center</parameterid>
										<name>Center</name>
										<value>
											<horiz>0</horiz>
											<vert>-0.0885417</vert>
										</value>
									</parameter>
									<parameter authoringApp="PremierePro">
										<parameterid>centerOffset</parameterid>
										<name>Anchor Point</name>
										<value>
											<horiz>0</horiz>
											<vert>0</vert>
										</value>
									</parameter>
								</effect>
							</filter>
							<filter>
								<effect>
									<name>Color Corrector 3-way</name>
									<effectid>Color Corrector 3-way</effectid>
									<effectcategory>Color Correction</effectcategory>
									<effecttype>filter</effecttype>
									<mediatype>video</mediatype>
									<parameter authoringApp="PremierePro">
										<parameterid>dispmode</parameterid>
										<name>Display Mode</name>
										<valuemin>1</valuemin>
										<valuemax>3</valuemax>
										<value>1</value>
										<valuelist>
											<valueentry>
												<name>Final</name>
												<value>1</value>
											</valueentry>
											<valueentry>
												<name>Matte</name>
												<value>2</value>
											</valueentry>
											<valueentry>
												<name>Source</name>
												<value>3</value>
											</valueentry>
										</valuelist>
									</parameter>
									<parameter authoringApp="PremierePro">
										<parameterid>label1</parameterid>
										<name>Blacks Controls</name>
										<value></value>
									</parameter>
									<parameter authoringApp="PremierePro">
										<parameterid>blacklevel</parameterid>
										<name>Level</name>
										<valuemin>-196</valuemin>
										<valuemax>254</valuemax>
										<value>0</value>
									</parameter>
									<parameter authoringApp="PremierePro">
										<parameterid>b_hue</parameterid>
										<name>Angle</name>
										<valuemin>-180</valuemin>
										<valuemax>180</valuemax>
										<value>-168</value>
									</parameter>
									<parameter authoringApp="PremierePro">
										<parameterid>b_mag</parameterid>
										<name>Magnitude</name>
										<valuemin>0</valuemin>
										<valuemax>200</valuemax>
										<value>26.3721</value>
									</parameter>
									<parameter authoringApp="PremierePro">
										<parameterid>label2</parameterid>
										<name>Midrange Controls</name>
										<value></value>
									</parameter>
									<parameter authoringApp="PremierePro">
										<parameterid>mids</parameterid>
										<name>Level</name>
										<valuemin>0</valuemin>
										<valuemax>200</valuemax>
										<value>100</value>
									</parameter>
									<parameter authoringApp="PremierePro">
										<parameterid>m_hue</parameterid>
										<name>Angle</name>
										<valuemin>-180</valuemin>
										<valuemax>180</valuemax>
										<value>12</value>
									</parameter>
									<parameter authoringApp="PremierePro">
										<parameterid>m_mag</parameterid>
										<name>Magnitude</name>
										<valuemin>0</valuemin>
										<valuemax>200</valuemax>
										<value>8.4251</value>
									</parameter>
									<parameter authoringApp="PremierePro">
										<parameterid>label3</parameterid>
										<name>Highlight Controls</name>
										<value></value>
									</parameter>
									<parameter authoringApp="PremierePro">
										<parameterid>highlights</parameterid>
										<name>Level</name>
										<valuemin>64</valuemin>
										<valuemax>509</valuemax>
										<value>255</value>
									</parameter>
									<parameter authoringApp="PremierePro">
										<parameterid>h_hue</parameterid>
										<name>Angle</name>
										<valuemin>-180</valuemin>
										<valuemax>180</valuemax>
										<value>31.6538</value>
									</parameter>
									<parameter authoringApp="PremierePro">
										<parameterid>h_mag</parameterid>
										<name>Magnitude</name>
										<valuemin>0</valuemin>
										<valuemax>200</valuemax>
										<value>11.0174</value>
									</parameter>
									<parameter authoringApp="PremierePro">
										<parameterid>label4</parameterid>
										<name>Color Controls</name>
										<value></value>
									</parameter>
									<parameter authoringApp="PremierePro">
										<parameterid>chroma</parameterid>
										<name>Saturation</name>
										<valuemin>0</valuemin>
										<valuemax>200</valuemax>
										<value>199</value>
									</parameter>
									<parameter authoringApp="PremierePro">
										<parameterid>label5</parameterid>
										<name>Limit Effect Controls</name>
										<value></value>
									</parameter>
									<parameter authoringApp="PremierePro">
										<parameterid>dochroma</parameterid>
										<name>Limit on Chroma</name>
										<value>FALSE</value>
									</parameter>
									<parameter authoringApp="PremierePro">
										<parameterid>centerang</parameterid>
										<name>Chroma Center</name>
										<valuemin>-760</valuemin>
										<valuemax>760</valuemax>
										<value>-110</value>
									</parameter>
									<parameter authoringApp="PremierePro">
										<parameterid>chromawidth</parameterid>
										<name>Chroma Width</name>
										<valuemin>0</valuemin>
										<valuemax>360</valuemax>
										<value>15</value>
									</parameter>
									<parameter authoringApp="PremierePro">
										<parameterid>chromasoft</parameterid>
										<name>Chroma Softness</name>
										<valuemin>0</valuemin>
										<valuemax>180</valuemax>
										<value>10</value>
									</parameter>
									<parameter authoringApp="PremierePro">
										<parameterid>dosat</parameterid>
										<name>Limit on Saturation</name>
										<value>FALSE</value>
									</parameter>
									<parameter authoringApp="PremierePro">
										<parameterid>satmin</parameterid>
										<name>Sat. Minimum</name>
										<valuemin>0</valuemin>
										<valuemax>125</valuemax>
										<value>35</value>
									</parameter>
									<parameter authoringApp="PremierePro">
										<parameterid>satwidth</parameterid>
										<name>Sat. Width</name>
										<valuemin>0</valuemin>
										<valuemax>125</valuemax>
										<value>40</value>
									</parameter>
									<parameter authoringApp="PremierePro">
										<parameterid>satsoft</parameterid>
										<name>Sat. Softness</name>
										<valuemin>0</valuemin>
										<valuemax>125</valuemax>
										<value>20</value>
									</parameter>
									<parameter authoringApp="PremierePro">
										<parameterid>doluma</parameterid>
										<name>Limit on Luma</name>
										<value>FALSE</value>
									</parameter>
									<parameter authoringApp="PremierePro">
										<parameterid>lumamin</parameterid>
										<name>Luma Minimum</name>
										<valuemin>0</valuemin>
										<valuemax>120</valuemax>
										<value>0</value>
									</parameter>
									<parameter authoringApp="PremierePro">
										<parameterid>lumawidth</parameterid>
										<name>Luma Width</name>
										<valuemin>0</valuemin>
										<valuemax>120</valuemax>
										<value>40</value>
									</parameter>
									<parameter authoringApp="PremierePro">
										<parameterid>lumasoft</parameterid>
										<name>Luma Softness</name>
										<valuemin>0</valuemin>
										<valuemax>120</valuemax>
										<value>20</value>
									</parameter>
									<parameter authoringApp="PremierePro">
										<parameterid>label6</parameterid>
										<name>Edge Control</name>
										<value></value>
									</parameter>
									<parameter authoringApp="PremierePro">
										<parameterid>edgethin</parameterid>
										<name>Thin/Spread</name>
										<valuemin>-100</valuemin>
										<valuemax>100</valuemax>
										<value>0</value>
									</parameter>
									<parameter authoringApp="PremierePro">
										<parameterid>edgefeather</parameterid>
										<name>Softening</name>
										<valuemin>0</valuemin>
										<valuemax>100</valuemax>
										<value>0</value>
									</parameter>
									<parameter authoringApp="PremierePro">
										<parameterid>label7</parameterid>
										<name>Mask Control</name>
										<value></value>
									</parameter>
									<parameter authoringApp="PremierePro">
										<parameterid>invertsel</parameterid>
										<name>Invert</name>
										<value>FALSE</value>
									</parameter>
									<parameter authoringApp="PremierePro">
										<parameterid>debugshow</parameterid>
										<name>Show Stats</name>
										<value>FALSE</value>
									</parameter>
								</effect>
							</filter>
							<filter>
								<effect>
									<name>Distort</name>
									<effectid>deformation</effectid>
									<effectcategory>motion</effectcategory>
									<effecttype>motion</effecttype>
									<mediatype>video</mediatype>
									<parameter authoringApp="PremierePro">
										<parameterid>aspect</parameterid>
										<name>Aspect</name>
										<valuemin>-10000</valuemin>
										<valuemax>10000</valuemax>
										<value>-9.40171</value>
									</parameter>
								</effect>
							</filter>
						<logginginfo>
							<description></description>
							<scene></scene>
							<shottake></shottake>
							<lognote></lognote>
						</logginginfo>
						<labels>
							<label2>Iris</label2>
						</labels>
					</clipitem>
					<clipitem id="clipitem-285">
						<masterclipid>masterclip-10</masterclipid>
						<name>NNFA80750005AA.mxf</name>
						<enabled>TRUE</enabled>
						<duration>81126</duration>
						<rate>
							<timebase>25</timebase>
							<ntsc>FALSE</ntsc>
						</rate>
						<start>2831</start>
						<end>2873</end>
						<in>58539</in>
						<out>58581</out>
						<pproTicksIn>594793704960000</pproTicksIn>
						<pproTicksOut>595220451840000</pproTicksOut>
						<alphatype>none</alphatype>
						<file id="file-8"/>
							<filter>
								<effect>
									<name>Basic Motion</name>
									<effectid>basic</effectid>
									<effectcategory>motion</effectcategory>
									<effecttype>motion</effecttype>
									<mediatype>video</mediatype>
									<parameter authoringApp="PremierePro">
										<parameterid>scale</parameterid>
										<name>Scale</name>
										<valuemin>0</valuemin>
										<valuemax>1000</valuemax>
										<value>134</value>
									</parameter>
									<parameter authoringApp="PremierePro">
										<parameterid>rotation</parameterid>
										<name>Rotation</name>
										<valuemin>-8640</valuemin>
										<valuemax>8640</valuemax>
										<value>0</value>
									</parameter>
									<parameter authoringApp="PremierePro">
										<parameterid>center</parameterid>
										<name>Center</name>
										<value>
											<horiz>0</horiz>
											<vert>-0.298611</vert>
										</value>
									</parameter>
									<parameter authoringApp="PremierePro">
										<parameterid>centerOffset</parameterid>
										<name>Anchor Point</name>
										<value>
											<horiz>0</horiz>
											<vert>0</vert>
										</value>
									</parameter>
								</effect>
							</filter>
							<filter>
								<effect>
									<name>Distort</name>
									<effectid>deformation</effectid>
									<effectcategory>motion</effectcategory>
									<effecttype>motion</effecttype>
									<mediatype>video</mediatype>
									<parameter authoringApp="PremierePro">
										<parameterid>aspect</parameterid>
										<name>Aspect</name>
										<valuemin>-10000</valuemin>
										<valuemax>10000</valuemax>
										<value>-9.40171</value>
									</parameter>
								</effect>
							</filter>
						<logginginfo>
							<description></description>
							<scene></scene>
							<shottake></shottake>
							<lognote></lognote>
						</logginginfo>
						<labels>
							<label2>Iris</label2>
						</labels>
					</clipitem>
					<clipitem id="clipitem-286">
						<masterclipid>masterclip-10</masterclipid>
						<name>NNFA80750005AA.mxf</name>
						<enabled>TRUE</enabled>
						<duration>81126</duration>
						<rate>
							<timebase>25</timebase>
							<ntsc>FALSE</ntsc>
						</rate>
						<start>2873</start>
						<end>2915</end>
						<in>58778</in>
						<out>58820</out>
						<pproTicksIn>597222097920000</pproTicksIn>
						<pproTicksOut>597648844800000</pproTicksOut>
						<alphatype>none</alphatype>
						<file id="file-8"/>
							<filter>
								<effect>
									<name>Basic Motion</name>
									<effectid>basic</effectid>
									<effectcategory>motion</effectcategory>
									<effecttype>motion</effecttype>
									<mediatype>video</mediatype>
									<parameter authoringApp="PremierePro">
										<parameterid>scale</parameterid>
										<name>Scale</name>
										<valuemin>0</valuemin>
										<valuemax>1000</valuemax>
										<value>134</value>
									</parameter>
									<parameter authoringApp="PremierePro">
										<parameterid>rotation</parameterid>
										<name>Rotation</name>
										<valuemin>-8640</valuemin>
										<valuemax>8640</valuemax>
										<value>0</value>
									</parameter>
									<parameter authoringApp="PremierePro">
										<parameterid>center</parameterid>
										<name>Center</name>
										<value>
											<horiz>0</horiz>
											<vert>-0.0798611</vert>
										</value>
									</parameter>
									<parameter authoringApp="PremierePro">
										<parameterid>centerOffset</parameterid>
										<name>Anchor Point</name>
										<value>
											<horiz>0</horiz>
											<vert>0</vert>
										</value>
									</parameter>
								</effect>
							</filter>
							<filter>
								<effect>
									<name>Distort</name>
									<effectid>deformation</effectid>
									<effectcategory>motion</effectcategory>
									<effecttype>motion</effecttype>
									<mediatype>video</mediatype>
									<parameter authoringApp="PremierePro">
										<parameterid>aspect</parameterid>
										<name>Aspect</name>
										<valuemin>-10000</valuemin>
										<valuemax>10000</valuemax>
										<value>-9.40171</value>
									</parameter>
								</effect>
							</filter>
						<logginginfo>
							<description></description>
							<scene></scene>
							<shottake></shottake>
							<lognote></lognote>
						</logginginfo>
						<labels>
							<label2>Iris</label2>
						</labels>
					</clipitem>
					<clipitem id="clipitem-287">
						<masterclipid>masterclip-10</masterclipid>
						<name>NNFA80750005AA.mxf</name>
						<enabled>TRUE</enabled>
						<duration>81126</duration>
						<rate>
							<timebase>25</timebase>
							<ntsc>FALSE</ntsc>
						</rate>
						<start>2915</start>
						<end>2969</end>
						<in>58947</in>
						<out>59001</out>
						<pproTicksIn>598939246080000</pproTicksIn>
						<pproTicksOut>599487920640000</pproTicksOut>
						<alphatype>none</alphatype>
						<file id="file-8"/>
							<filter>
								<effect>
									<name>Basic Motion</name>
									<effectid>basic</effectid>
									<effectcategory>motion</effectcategory>
									<effecttype>motion</effecttype>
									<mediatype>video</mediatype>
									<parameter authoringApp="PremierePro">
										<parameterid>scale</parameterid>
										<name>Scale</name>
										<valuemin>0</valuemin>
										<valuemax>1000</valuemax>
										<value>134</value>
									</parameter>
									<parameter authoringApp="PremierePro">
										<parameterid>rotation</parameterid>
										<name>Rotation</name>
										<valuemin>-8640</valuemin>
										<valuemax>8640</valuemax>
										<value>0</value>
									</parameter>
									<parameter authoringApp="PremierePro">
										<parameterid>center</parameterid>
										<name>Center</name>
										<value>
											<horiz>0</horiz>
											<vert>-0.0798611</vert>
										</value>
									</parameter>
									<parameter authoringApp="PremierePro">
										<parameterid>centerOffset</parameterid>
										<name>Anchor Point</name>
										<value>
											<horiz>0</horiz>
											<vert>0</vert>
										</value>
									</parameter>
								</effect>
							</filter>
							<filter>
								<effect>
									<name>Distort</name>
									<effectid>deformation</effectid>
									<effectcategory>motion</effectcategory>
									<effecttype>motion</effecttype>
									<mediatype>video</mediatype>
									<parameter authoringApp="PremierePro">
										<parameterid>aspect</parameterid>
										<name>Aspect</name>
										<valuemin>-10000</valuemin>
										<valuemax>10000</valuemax>
										<value>-9.40171</value>
									</parameter>
								</effect>
							</filter>
						<logginginfo>
							<description></description>
							<scene></scene>
							<shottake></shottake>
							<lognote></lognote>
						</logginginfo>
						<labels>
							<label2>Iris</label2>
						</labels>
					</clipitem>
					<clipitem id="clipitem-288">
						<masterclipid>masterclip-10</masterclipid>
						<name>NNFA80750005AA.mxf</name>
						<enabled>TRUE</enabled>
						<duration>81126</duration>
						<rate>
							<timebase>25</timebase>
							<ntsc>FALSE</ntsc>
						</rate>
						<start>2969</start>
						<end>3137</end>
						<in>59107</in>
						<out>59275</out>
						<pproTicksIn>600564948480000</pproTicksIn>
						<pproTicksOut>602271936000000</pproTicksOut>
						<alphatype>none</alphatype>
						<file id="file-8"/>
							<filter>
								<effect>
									<name>Basic Motion</name>
									<effectid>basic</effectid>
									<effectcategory>motion</effectcategory>
									<effecttype>motion</effecttype>
									<mediatype>video</mediatype>
									<parameter authoringApp="PremierePro">
										<parameterid>scale</parameterid>
										<name>Scale</name>
										<valuemin>0</valuemin>
										<valuemax>1000</valuemax>
										<value>134</value>
									</parameter>
									<parameter authoringApp="PremierePro">
										<parameterid>rotation</parameterid>
										<name>Rotation</name>
										<valuemin>-8640</valuemin>
										<valuemax>8640</valuemax>
										<value>0</value>
									</parameter>
									<parameter authoringApp="PremierePro">
										<parameterid>center</parameterid>
										<name>Center</name>
										<value>
											<horiz>0</horiz>
											<vert>-0.0798611</vert>
										</value>
									</parameter>
									<parameter authoringApp="PremierePro">
										<parameterid>centerOffset</parameterid>
										<name>Anchor Point</name>
										<value>
											<horiz>0</horiz>
											<vert>0</vert>
										</value>
									</parameter>
								</effect>
							</filter>
							<filter>
								<effect>
									<name>Distort</name>
									<effectid>deformation</effectid>
									<effectcategory>motion</effectcategory>
									<effecttype>motion</effecttype>
									<mediatype>video</mediatype>
									<parameter authoringApp="PremierePro">
										<parameterid>aspect</parameterid>
										<name>Aspect</name>
										<valuemin>-10000</valuemin>
										<valuemax>10000</valuemax>
										<value>-9.40171</value>
									</parameter>
								</effect>
							</filter>
						<logginginfo>
							<description></description>
							<scene></scene>
							<shottake></shottake>
							<lognote></lognote>
						</logginginfo>
						<labels>
							<label2>Iris</label2>
						</labels>
					</clipitem>
					<clipitem id="clipitem-289">
						<masterclipid>masterclip-19</masterclipid>
						<name>MAI3551-4-160302-DR.mxf</name>
						<enabled>TRUE</enabled>
						<duration>2863</duration>
						<rate>
							<timebase>25</timebase>
							<ntsc>FALSE</ntsc>
						</rate>
						<start>3137</start>
						<end>3193</end>
						<in>1449</in>
						<out>1505</out>
						<pproTicksIn>14722767360000</pproTicksIn>
						<pproTicksOut>15291763200000</pproTicksOut>
						<alphatype>none</alphatype>
						<pixelaspectratio>PAL-601</pixelaspectratio>
						<anamorphic>FALSE</anamorphic>
						<file id="file-16">
							<name>MAI3551-4-160302-DR.mxf</name>
							<pathurl>file://localhost/Volumes/Brakka/AdobeLager/QUIZ%20-%20brakka/Arkivstoff/2005/Nyheter/MAI3551-4-160302-DR.mxf</pathurl>
							<rate>
								<timebase>25</timebase>
								<ntsc>FALSE</ntsc>
							</rate>
							<duration>2863</duration>
							<timecode>
								<rate>
									<timebase>25</timebase>
									<ntsc>FALSE</ntsc>
								</rate>
								<string>01:30:25:00</string>
								<frame>135625</frame>
								<displayformat>NDF</displayformat>
								<reel>
									<name></name>
								</reel>
							</timecode>
							<media>
								<video>
									<samplecharacteristics>
										<rate>
											<timebase>25</timebase>
											<ntsc>FALSE</ntsc>
										</rate>
										<width>720</width>
										<height>576</height>
										<anamorphic>FALSE</anamorphic>
										<pixelaspectratio>PAL-601</pixelaspectratio>
										<fielddominance>upper</fielddominance>
									</samplecharacteristics>
								</video>
								<audio>
									<samplecharacteristics>
										<depth>16</depth>
										<samplerate>48000</samplerate>
									</samplecharacteristics>
									<channelcount>2</channelcount>
								</audio>
							</media>
						</file>
							<filter>
								<effect>
									<name>Basic Motion</name>
									<effectid>basic</effectid>
									<effectcategory>motion</effectcategory>
									<effecttype>motion</effecttype>
									<mediatype>video</mediatype>
									<parameter authoringApp="PremierePro">
										<parameterid>scale</parameterid>
										<name>Scale</name>
										<valuemin>0</valuemin>
										<valuemax>1000</valuemax>
										<value>133</value>
									</parameter>
									<parameter authoringApp="PremierePro">
										<parameterid>rotation</parameterid>
										<name>Rotation</name>
										<valuemin>-8640</valuemin>
										<valuemax>8640</valuemax>
										<value>0</value>
									</parameter>
									<parameter authoringApp="PremierePro">
										<parameterid>center</parameterid>
										<name>Center</name>
										<value>
											<horiz>0</horiz>
											<vert>0</vert>
										</value>
									</parameter>
									<parameter authoringApp="PremierePro">
										<parameterid>centerOffset</parameterid>
										<name>Anchor Point</name>
										<value>
											<horiz>0</horiz>
											<vert>0</vert>
										</value>
									</parameter>
								</effect>
							</filter>
							<filter>
								<effect>
									<name>Distort</name>
									<effectid>deformation</effectid>
									<effectcategory>motion</effectcategory>
									<effecttype>motion</effecttype>
									<mediatype>video</mediatype>
									<parameter authoringApp="PremierePro">
										<parameterid>aspect</parameterid>
										<name>Aspect</name>
										<valuemin>-10000</valuemin>
										<valuemax>10000</valuemax>
										<value>-9.40171</value>
									</parameter>
								</effect>
							</filter>
						<logginginfo>
							<description></description>
							<scene></scene>
							<shottake></shottake>
							<lognote></lognote>
						</logginginfo>
						<labels>
							<label2>Iris</label2>
						</labels>
					</clipitem>
					<clipitem id="clipitem-290">
						<masterclipid>masterclip-20</masterclipid>
						<name>Høiby</name>
						<enabled>TRUE</enabled>
						<duration>76</duration>
						<rate>
							<timebase>25</timebase>
							<ntsc>FALSE</ntsc>
						</rate>
						<start>3193</start>
						<end>3261</end>
						<in>0</in>
						<out>68</out>
						<pproTicksIn>0</pproTicksIn>
						<pproTicksOut>690923520000</pproTicksOut>
						<sequence id="sequence-4" TL.SQAudioVisibleBase="0" TL.SQVideoVisibleBase="0" TL.SQVisibleBaseTime="0" TL.SQAVDividerPosition="0.5" TL.SQHideShyTracks="0" TL.SQHeaderWidth="184" Monitor.ProgramZoomOut="772208640000" Monitor.ProgramZoomIn="0" TL.SQTimePerPixel="0.043427914110429448" AM.TrackVScrollPosition="0" AM.TrackScrollPosition="0" MZ.EditLine="40642560000" MZ.Sequence.PreviewFrameSizeHeight="1080" MZ.Sequence.PreviewFrameSizeWidth="1920" MZ.Sequence.AudioTimeDisplayFormat="200" MZ.Sequence.PreviewRenderingClassID="1297106761" MZ.Sequence.PreviewRenderingPresetCodec="1297107278" MZ.Sequence.PreviewRenderingPresetPath="EncoderPresets/SequencePreview/bcb27263-0b7a-406f-bda9-3d3796f18c3a/I-Frame Only MPEG.epr" MZ.Sequence.PreviewUseMaxRenderQuality="false" MZ.Sequence.PreviewUseMaxBitDepth="false" MZ.Sequence.EditingModeGUID="bcb27263-0b7a-406f-bda9-3d3796f18c3a" MZ.Sequence.VideoTimeDisplayFormat="101" MZ.WorkOutPoint="772208640000" MZ.WorkInPoint="0">
							<duration>0</duration>
							<rate>
								<timebase>25</timebase>
								<ntsc>FALSE</ntsc>
							</rate>
							<name>Høiby</name>
							<media>
								<video>
									<format>
										<samplecharacteristics>
											<rate>
												<timebase>25</timebase>
												<ntsc>FALSE</ntsc>
											</rate>
											<codec>
												<name>Apple ProRes 422</name>
												<appspecificdata>
													<appname>Final Cut Pro</appname>
													<appmanufacturer>Apple Inc.</appmanufacturer>
													<appversion>7.0</appversion>
													<data>
														<qtcodec>
															<codecname>Apple ProRes 422</codecname>
															<codectypename>Apple ProRes 422</codectypename>
															<codectypecode>apcn</codectypecode>
															<codecvendorcode>appl</codecvendorcode>
															<spatialquality>1024</spatialquality>
															<temporalquality>0</temporalquality>
															<keyframerate>0</keyframerate>
															<datarate>0</datarate>
														</qtcodec>
													</data>
												</appspecificdata>
											</codec>
											<width>1920</width>
											<height>1080</height>
											<anamorphic>FALSE</anamorphic>
											<pixelaspectratio>square</pixelaspectratio>
											<fielddominance>upper</fielddominance>
											<colordepth>24</colordepth>
										</samplecharacteristics>
									</format>
									<track TL.SQTrackShy="0" TL.SQTrackExpandedHeight="25" TL.SQTrackExpanded="0" MZ.TrackTargeted="1">
										<enabled>TRUE</enabled>
										<locked>FALSE</locked>
									</track>
									<track TL.SQTrackShy="0" TL.SQTrackExpandedHeight="25" TL.SQTrackExpanded="0" MZ.TrackTargeted="0">
										<clipitem id="clipitem-291">
											<masterclipid>masterclip-21</masterclipid>
											<name>giftemål  sven o Høiby 2.jpg</name>
											<enabled>TRUE</enabled>
											<duration>1080000</duration>
											<rate>
												<timebase>25</timebase>
												<ntsc>FALSE</ntsc>
											</rate>
											<start>0</start>
											<end>76</end>
											<in>90000</in>
											<out>90076</out>
											<pproTicksIn>914457600000000</pproTicksIn>
											<pproTicksOut>915229808640000</pproTicksOut>
											<alphatype>none</alphatype>
											<pixelaspectratio>square</pixelaspectratio>
											<anamorphic>FALSE</anamorphic>
											<file id="file-17">
												<name>giftemål  sven o Høiby 2.jpg</name>
												<pathurl>file://localhost/Volumes/Brakka/AdobeLager/QUIZ%20-%20brakka/Arkivstoff/2005/Faksimiler/jpg/giftema%cc%8al%20%20sven%20o%20H%c3%b8iby%202.jpg</pathurl>
												<rate>
													<timebase>30</timebase>
													<ntsc>TRUE</ntsc>
												</rate>
												<timecode>
													<rate>
														<timebase>30</timebase>
														<ntsc>TRUE</ntsc>
													</rate>
													<string>00;00;00;00</string>
													<frame>0</frame>
													<displayformat>DF</displayformat>
													<reel>
														<name></name>
													</reel>
												</timecode>
												<media>
													<video>
														<samplecharacteristics>
															<rate>
																<timebase>30</timebase>
																<ntsc>TRUE</ntsc>
															</rate>
															<width>1567</width>
															<height>2317</height>
															<anamorphic>FALSE</anamorphic>
															<pixelaspectratio>square</pixelaspectratio>
															<fielddominance>none</fielddominance>
														</samplecharacteristics>
													</video>
												</media>
											</file>
												<filter>
													<effect>
														<name>Basic Motion</name>
														<effectid>basic</effectid>
														<effectcategory>motion</effectcategory>
														<effecttype>motion</effecttype>
														<mediatype>video</mediatype>
														<parameter authoringApp="PremierePro">
															<parameterid>scale</parameterid>
															<name>Scale</name>
															<valuemin>0</valuemin>
															<valuemax>1000</valuemax>
															<value>100</value>
														</parameter>
														<parameter authoringApp="PremierePro">
															<parameterid>rotation</parameterid>
															<name>Rotation</name>
															<valuemin>-8640</valuemin>
															<valuemax>8640</valuemax>
															<value>0</value>
														</parameter>
														<parameter authoringApp="PremierePro">
															<parameterid>center</parameterid>
															<name>Center</name>
															<value>
																<horiz>0.251436</horiz>
																<vert>0</vert>
															</value>
														</parameter>
														<parameter authoringApp="PremierePro">
															<parameterid>centerOffset</parameterid>
															<name>Anchor Point</name>
															<value>
																<horiz>0</horiz>
																<vert>0</vert>
															</value>
														</parameter>
													</effect>
												</filter>
											<logginginfo>
												<description></description>
												<scene></scene>
												<shottake></shottake>
												<lognote></lognote>
											</logginginfo>
											<labels>
												<label2>Lavender</label2>
											</labels>
										</clipitem>
										<enabled>TRUE</enabled>
										<locked>FALSE</locked>
									</track>
									<track TL.SQTrackShy="0" TL.SQTrackExpandedHeight="25" TL.SQTrackExpanded="0" MZ.TrackTargeted="0">
										<clipitem id="clipitem-292">
											<masterclipid>masterclip-22</masterclipid>
											<name>giftemål  sven o Høiby 1.jpg</name>
											<enabled>TRUE</enabled>
											<duration>1080000</duration>
											<rate>
												<timebase>25</timebase>
												<ntsc>FALSE</ntsc>
											</rate>
											<start>0</start>
											<end>76</end>
											<in>90000</in>
											<out>90076</out>
											<pproTicksIn>914457600000000</pproTicksIn>
											<pproTicksOut>915229808640000</pproTicksOut>
											<alphatype>none</alphatype>
											<pixelaspectratio>square</pixelaspectratio>
											<anamorphic>FALSE</anamorphic>
											<file id="file-18">
												<name>giftemål  sven o Høiby 1.jpg</name>
												<pathurl>file://localhost/Volumes/Brakka/AdobeLager/QUIZ%20-%20brakka/Arkivstoff/2005/Faksimiler/jpg/giftema%cc%8al%20%20sven%20o%20H%c3%b8iby%201.jpg</pathurl>
												<rate>
													<timebase>30</timebase>
													<ntsc>TRUE</ntsc>
												</rate>
												<timecode>
													<rate>
														<timebase>30</timebase>
														<ntsc>TRUE</ntsc>
													</rate>
													<string>00;00;00;00</string>
													<frame>0</frame>
													<displayformat>DF</displayformat>
													<reel>
														<name></name>
													</reel>
												</timecode>
												<media>
													<video>
														<samplecharacteristics>
															<rate>
																<timebase>30</timebase>
																<ntsc>TRUE</ntsc>
															</rate>
															<width>1567</width>
															<height>2317</height>
															<anamorphic>FALSE</anamorphic>
															<pixelaspectratio>square</pixelaspectratio>
															<fielddominance>none</fielddominance>
														</samplecharacteristics>
													</video>
												</media>
											</file>
												<filter>
													<effect>
														<name>Basic Motion</name>
														<effectid>basic</effectid>
														<effectcategory>motion</effectcategory>
														<effecttype>motion</effecttype>
														<mediatype>video</mediatype>
														<parameter authoringApp="PremierePro">
															<parameterid>scale</parameterid>
															<name>Scale</name>
															<valuemin>0</valuemin>
															<valuemax>1000</valuemax>
															<value>100</value>
														</parameter>
														<parameter authoringApp="PremierePro">
															<parameterid>rotation</parameterid>
															<name>Rotation</name>
															<valuemin>-8640</valuemin>
															<valuemax>8640</valuemax>
															<value>0</value>
														</parameter>
														<parameter authoringApp="PremierePro">
															<parameterid>center</parameterid>
															<name>Center</name>
															<value>
																<horiz>-0.214422</horiz>
																<vert>0</vert>
															</value>
														</parameter>
														<parameter authoringApp="PremierePro">
															<parameterid>centerOffset</parameterid>
															<name>Anchor Point</name>
															<value>
																<horiz>0</horiz>
																<vert>0</vert>
															</value>
														</parameter>
													</effect>
												</filter>
											<logginginfo>
												<description></description>
												<scene></scene>
												<shottake></shottake>
												<lognote></lognote>
											</logginginfo>
											<labels>
												<label2>Lavender</label2>
											</labels>
										</clipitem>
										<enabled>TRUE</enabled>
										<locked>FALSE</locked>
									</track>
								</video>
								<audio>
									<numOutputChannels>2</numOutputChannels>
									<format>
										<samplecharacteristics>
											<depth>16</depth>
											<samplerate>48000</samplerate>
										</samplecharacteristics>
									</format>
									<outputs>
										<group>
											<index>1</index>
											<numchannels>1</numchannels>
											<downmix>0</downmix>
											<channel>
												<index>1</index>
											</channel>
										</group>
										<group>
											<index>2</index>
											<numchannels>1</numchannels>
											<downmix>0</downmix>
											<channel>
												<index>2</index>
											</channel>
										</group>
									</outputs>
									<track TL.SQTrackAudioKeyframeStyle="0" TL.SQTrackShy="0" TL.SQTrackExpandedHeight="50" TL.SQTrackExpanded="1" MZ.TrackTargeted="1" PannerCurrentValue="0.5" PannerIsInverted="true" PannerStartKeyframe="-91445760000000000,0.5,0,0,0,0,0,0" PannerName="Balance" currentExplodedTrackIndex="0" totalExplodedTrackCount="2" premiereTrackType="Stereo">
										<enabled>TRUE</enabled>
										<locked>FALSE</locked>
										<outputchannelindex>1</outputchannelindex>
									</track>
									<track TL.SQTrackAudioKeyframeStyle="0" TL.SQTrackShy="0" TL.SQTrackExpandedHeight="50" TL.SQTrackExpanded="1" MZ.TrackTargeted="1" PannerCurrentValue="0.5" PannerIsInverted="true" PannerStartKeyframe="-91445760000000000,0.5,0,0,0,0,0,0" PannerName="Balance" currentExplodedTrackIndex="1" totalExplodedTrackCount="2" premiereTrackType="Stereo">
										<enabled>TRUE</enabled>
										<locked>FALSE</locked>
										<outputchannelindex>2</outputchannelindex>
									</track>
								</audio>
							</media>
							<timecode>
								<rate>
									<timebase>25</timebase>
									<ntsc>FALSE</ntsc>
								</rate>
								<string>00:00:00:00</string>
								<frame>0</frame>
								<displayformat>NDF</displayformat>
							</timecode>
						</sequence>
							<filter>
								<effect>
									<name>Basic Motion</name>
									<effectid>basic</effectid>
									<effectcategory>motion</effectcategory>
									<effecttype>motion</effecttype>
									<mediatype>video</mediatype>
									<parameter authoringApp="PremierePro">
										<parameterid>scale</parameterid>
										<name>Scale</name>
										<valuemin>0</valuemin>
										<valuemax>1000</valuemax>
										<value>133</value>
									</parameter>
									<parameter authoringApp="PremierePro">
										<parameterid>rotation</parameterid>
										<name>Rotation</name>
										<valuemin>-8640</valuemin>
										<valuemax>8640</valuemax>
										<value>0</value>
									</parameter>
									<parameter authoringApp="PremierePro">
										<parameterid>center</parameterid>
										<name>Center</name>
										<value>
											<horiz>-0.5</horiz>
											<vert>-0.5</vert>
										</value>
									</parameter>
									<parameter authoringApp="PremierePro">
										<parameterid>centerOffset</parameterid>
										<name>Anchor Point</name>
										<value>
											<horiz>0</horiz>
											<vert>0</vert>
										</value>
									</parameter>
								</effect>
							</filter>
						<labels>
							<label2>Forest</label2>
						</labels>
					</clipitem>
					<clipitem id="clipitem-293">
						<masterclipid>masterclip-23</masterclipid>
						<name>nnfa21901205aa-p1-120416r.mxf</name>
						<enabled>TRUE</enabled>
						<duration>1466</duration>
						<rate>
							<timebase>25</timebase>
							<ntsc>FALSE</ntsc>
						</rate>
						<start>3261</start>
						<end>3340</end>
						<in>371</in>
						<out>450</out>
						<pproTicksIn>3769597440000</pproTicksIn>
						<pproTicksOut>4572288000000</pproTicksOut>
						<alphatype>none</alphatype>
						<pixelaspectratio>PAL-601</pixelaspectratio>
						<anamorphic>FALSE</anamorphic>
						<file id="file-19">
							<name>nnfa21901205aa-p1-120416r.mxf</name>
							<pathurl>file://localhost/Volumes/Brakka/AdobeLager/QUIZ%20-%20brakka/Arkivstoff/2005/Nyheter/nnfa21901205aa-p1-120416r.mxf</pathurl>
							<rate>
								<timebase>25</timebase>
								<ntsc>FALSE</ntsc>
							</rate>
							<duration>1466</duration>
							<timecode>
								<rate>
									<timebase>25</timebase>
									<ntsc>FALSE</ntsc>
								</rate>
								<string>10:31:33:11</string>
								<frame>947336</frame>
								<displayformat>NDF</displayformat>
								<reel>
									<name></name>
								</reel>
							</timecode>
							<media>
								<video>
									<samplecharacteristics>
										<rate>
											<timebase>25</timebase>
											<ntsc>FALSE</ntsc>
										</rate>
										<width>720</width>
										<height>576</height>
										<anamorphic>FALSE</anamorphic>
										<pixelaspectratio>PAL-601</pixelaspectratio>
										<fielddominance>upper</fielddominance>
									</samplecharacteristics>
								</video>
								<audio>
									<samplecharacteristics>
										<depth>16</depth>
										<samplerate>48000</samplerate>
									</samplecharacteristics>
									<channelcount>2</channelcount>
								</audio>
							</media>
						</file>
							<filter>
								<effect>
									<name>Basic Motion</name>
									<effectid>basic</effectid>
									<effectcategory>motion</effectcategory>
									<effecttype>motion</effecttype>
									<mediatype>video</mediatype>
									<parameter authoringApp="PremierePro">
										<parameterid>scale</parameterid>
										<name>Scale</name>
										<valuemin>0</valuemin>
										<valuemax>1000</valuemax>
										<value>133</value>
									</parameter>
									<parameter authoringApp="PremierePro">
										<parameterid>rotation</parameterid>
										<name>Rotation</name>
										<valuemin>-8640</valuemin>
										<valuemax>8640</valuemax>
										<value>0</value>
									</parameter>
									<parameter authoringApp="PremierePro">
										<parameterid>center</parameterid>
										<name>Center</name>
										<value>
											<horiz>0</horiz>
											<vert>0.194444</vert>
										</value>
									</parameter>
									<parameter authoringApp="PremierePro">
										<parameterid>centerOffset</parameterid>
										<name>Anchor Point</name>
										<value>
											<horiz>0</horiz>
											<vert>0</vert>
										</value>
									</parameter>
								</effect>
							</filter>
							<filter>
								<effect>
									<name>Distort</name>
									<effectid>deformation</effectid>
									<effectcategory>motion</effectcategory>
									<effecttype>motion</effecttype>
									<mediatype>video</mediatype>
									<parameter authoringApp="PremierePro">
										<parameterid>aspect</parameterid>
										<name>Aspect</name>
										<valuemin>-10000</valuemin>
										<valuemax>10000</valuemax>
										<value>-9.40171</value>
									</parameter>
								</effect>
							</filter>
						<logginginfo>
							<description></description>
							<scene></scene>
							<shottake></shottake>
							<lognote></lognote>
						</logginginfo>
						<labels>
							<label2>Iris</label2>
						</labels>
					</clipitem>
					<clipitem id="clipitem-294">
						<masterclipid>masterclip-10</masterclipid>
						<name>NNFA80750005AA.mxf</name>
						<enabled>TRUE</enabled>
						<duration>81126</duration>
						<rate>
							<timebase>25</timebase>
							<ntsc>FALSE</ntsc>
						</rate>
						<start>3340</start>
						<end>3600</end>
						<in>79946</in>
						<out>80206</out>
						<pproTicksIn>812302525440000</pproTicksIn>
						<pproTicksOut>814944291840000</pproTicksOut>
						<alphatype>none</alphatype>
						<file id="file-8"/>
							<filter>
								<effect>
									<name>Basic Motion</name>
									<effectid>basic</effectid>
									<effectcategory>motion</effectcategory>
									<effecttype>motion</effecttype>
									<mediatype>video</mediatype>
									<parameter authoringApp="PremierePro">
										<parameterid>scale</parameterid>
										<name>Scale</name>
										<valuemin>0</valuemin>
										<valuemax>1000</valuemax>
										<value>134</value>
									</parameter>
									<parameter authoringApp="PremierePro">
										<parameterid>rotation</parameterid>
										<name>Rotation</name>
										<valuemin>-8640</valuemin>
										<valuemax>8640</valuemax>
										<value>0</value>
									</parameter>
									<parameter authoringApp="PremierePro">
										<parameterid>center</parameterid>
										<name>Center</name>
										<value>
											<horiz>0.0069445</horiz>
											<vert>-0.0833333</vert>
										</value>
									</parameter>
									<parameter authoringApp="PremierePro">
										<parameterid>centerOffset</parameterid>
										<name>Anchor Point</name>
										<value>
											<horiz>0</horiz>
											<vert>0</vert>
										</value>
									</parameter>
								</effect>
							</filter>
							<filter>
								<effect>
									<name>Distort</name>
									<effectid>deformation</effectid>
									<effectcategory>motion</effectcategory>
									<effecttype>motion</effecttype>
									<mediatype>video</mediatype>
									<parameter authoringApp="PremierePro">
										<parameterid>aspect</parameterid>
										<name>Aspect</name>
										<valuemin>-10000</valuemin>
										<valuemax>10000</valuemax>
										<value>-9.40171</value>
									</parameter>
								</effect>
							</filter>
						<logginginfo>
							<description></description>
							<scene></scene>
							<shottake></shottake>
							<lognote></lognote>
						</logginginfo>
						<labels>
							<label2>Iris</label2>
						</labels>
					</clipitem>
					<clipitem id="clipitem-295">
						<masterclipid>masterclip-24</masterclipid>
						<name>Brangelina2.mov</name>
						<enabled>TRUE</enabled>
						<duration>750</duration>
						<rate>
							<timebase>25</timebase>
							<ntsc>FALSE</ntsc>
						</rate>
						<start>3600</start>
						<end>4124</end>
						<in>30</in>
						<out>554</out>
						<pproTicksIn>304819200000</pproTicksIn>
						<pproTicksOut>5628994560000</pproTicksOut>
						<alphatype>black</alphatype>
						<pixelaspectratio>HD-(1440x1080)</pixelaspectratio>
						<anamorphic>FALSE</anamorphic>
						<pproOriginalPAR>square</pproOriginalPAR>
						<pproOriginalIsAnamorphic>FALSE</pproOriginalIsAnamorphic>
						<file id="file-20">
							<name>Brangelina2.mov</name>
							<pathurl>file://localhost/Volumes/Brakka/AdobeLager/QUIZ%20-%20brakka/Arkivstoff/2005/Fra%20After%20Effects/Brangelina2.mov</pathurl>
							<rate>
								<timebase>25</timebase>
								<ntsc>FALSE</ntsc>
							</rate>
							<duration>750</duration>
							<timecode>
								<rate>
									<timebase>25</timebase>
									<ntsc>FALSE</ntsc>
								</rate>
								<string>00:00:00:00</string>
								<frame>0</frame>
								<displayformat>NDF</displayformat>
								<reel>
									<name></name>
								</reel>
							</timecode>
							<media>
								<video>
									<samplecharacteristics>
										<rate>
											<timebase>25</timebase>
											<ntsc>FALSE</ntsc>
										</rate>
										<width>1440</width>
										<height>1080</height>
										<anamorphic>FALSE</anamorphic>
										<pixelaspectratio>HD-(1440x1080)</pixelaspectratio>
										<pproOriginalIsAnamorphic>FALSE</pproOriginalIsAnamorphic>
										<pproOriginalPAR>square</pproOriginalPAR>
										<fielddominance>none</fielddominance>
									</samplecharacteristics>
								</video>
							</media>
						</file>
							<filter>
								<effect>
									<name>Distort</name>
									<effectid>deformation</effectid>
									<effectcategory>motion</effectcategory>
									<effecttype>motion</effecttype>
									<mediatype>video</mediatype>
									<parameter authoringApp="PremierePro">
										<parameterid>aspect</parameterid>
										<name>Aspect</name>
										<valuemin>-10000</valuemin>
										<valuemax>10000</valuemax>
										<value>-33.3333</value>
									</parameter>
								</effect>
							</filter>
							<filter>
								<effect>
									<name>Basic Motion</name>
									<effectid>basic</effectid>
									<effectcategory>motion</effectcategory>
									<effecttype>motion</effecttype>
									<mediatype>video</mediatype>
									<parameter authoringApp="PremierePro">
										<parameterid>scale</parameterid>
										<name>Scale</name>
										<value>133.333</value>
									</parameter>
								</effect>
							</filter>
						<logginginfo>
							<description></description>
							<scene></scene>
							<shottake></shottake>
							<lognote></lognote>
						</logginginfo>
						<labels>
							<label2>Violet</label2>
						</labels>
					</clipitem>
					<clipitem id="clipitem-296">
						<masterclipid>masterclip-25</masterclipid>
						<name>DIGS694-150805-DR.mxf</name>
						<enabled>TRUE</enabled>
						<duration>2400</duration>
						<rate>
							<timebase>25</timebase>
							<ntsc>FALSE</ntsc>
						</rate>
						<start>4341</start>
						<end>4391</end>
						<in>1293</in>
						<out>1343</out>
						<pproTicksIn>13137707520000</pproTicksIn>
						<pproTicksOut>13645739520000</pproTicksOut>
						<alphatype>none</alphatype>
						<pixelaspectratio>PAL-601</pixelaspectratio>
						<anamorphic>FALSE</anamorphic>
						<file id="file-21">
							<name>DIGS694-150805-DR.mxf</name>
							<pathurl>file://localhost/Volumes/Brakka/AdobeLager/QUIZ%20-%20brakka/Arkivstoff/2005/Nyheter/DIGS694-150805-DR.mxf</pathurl>
							<rate>
								<timebase>25</timebase>
								<ntsc>FALSE</ntsc>
							</rate>
							<duration>2400</duration>
							<timecode>
								<rate>
									<timebase>25</timebase>
									<ntsc>FALSE</ntsc>
								</rate>
								<string>10:58:18:00</string>
								<frame>987450</frame>
								<displayformat>NDF</displayformat>
								<reel>
									<name></name>
								</reel>
							</timecode>
							<media>
								<video>
									<samplecharacteristics>
										<rate>
											<timebase>25</timebase>
											<ntsc>FALSE</ntsc>
										</rate>
										<width>720</width>
										<height>576</height>
										<anamorphic>FALSE</anamorphic>
										<pixelaspectratio>PAL-601</pixelaspectratio>
										<fielddominance>upper</fielddominance>
									</samplecharacteristics>
								</video>
								<audio>
									<samplecharacteristics>
										<depth>16</depth>
										<samplerate>48000</samplerate>
									</samplecharacteristics>
									<channelcount>2</channelcount>
								</audio>
							</media>
						</file>
							<filter>
								<effect>
									<name>Basic Motion</name>
									<effectid>basic</effectid>
									<effectcategory>motion</effectcategory>
									<effecttype>motion</effecttype>
									<mediatype>video</mediatype>
									<parameter authoringApp="PremierePro">
										<parameterid>scale</parameterid>
										<name>Scale</name>
										<valuemin>0</valuemin>
										<valuemax>1000</valuemax>
										<value>133</value>
									</parameter>
									<parameter authoringApp="PremierePro">
										<parameterid>rotation</parameterid>
										<name>Rotation</name>
										<valuemin>-8640</valuemin>
										<valuemax>8640</valuemax>
										<value>0</value>
									</parameter>
									<parameter authoringApp="PremierePro">
										<parameterid>center</parameterid>
										<name>Center</name>
										<value>
											<horiz>0</horiz>
											<vert>0</vert>
										</value>
									</parameter>
									<parameter authoringApp="PremierePro">
										<parameterid>centerOffset</parameterid>
										<name>Anchor Point</name>
										<value>
											<horiz>0</horiz>
											<vert>0</vert>
										</value>
									</parameter>
								</effect>
							</filter>
							<filter>
								<effect>
									<name>Distort</name>
									<effectid>deformation</effectid>
									<effectcategory>motion</effectcategory>
									<effecttype>motion</effecttype>
									<mediatype>video</mediatype>
									<parameter authoringApp="PremierePro">
										<parameterid>aspect</parameterid>
										<name>Aspect</name>
										<valuemin>-10000</valuemin>
										<valuemax>10000</valuemax>
										<value>-9.40171</value>
									</parameter>
								</effect>
							</filter>
						<logginginfo>
							<description></description>
							<scene></scene>
							<shottake></shottake>
							<lognote></lognote>
						</logginginfo>
						<labels>
							<label2>Iris</label2>
						</labels>
					</clipitem>
					<clipitem id="clipitem-297">
						<masterclipid>masterclip-25</masterclipid>
						<name>DIGS694-150805-DR.mxf</name>
						<enabled>TRUE</enabled>
						<duration>2400</duration>
						<rate>
							<timebase>25</timebase>
							<ntsc>FALSE</ntsc>
						</rate>
						<start>4438</start>
						<end>4573</end>
						<in>615</in>
						<out>750</out>
						<pproTicksIn>6248793600000</pproTicksIn>
						<pproTicksOut>7620480000000</pproTicksOut>
						<alphatype>none</alphatype>
						<file id="file-21"/>
							<filter>
								<effect>
									<name>Basic Motion</name>
									<effectid>basic</effectid>
									<effectcategory>motion</effectcategory>
									<effecttype>motion</effecttype>
									<mediatype>video</mediatype>
									<parameter authoringApp="PremierePro">
										<parameterid>scale</parameterid>
										<name>Scale</name>
										<valuemin>0</valuemin>
										<valuemax>1000</valuemax>
										<value>133</value>
									</parameter>
									<parameter authoringApp="PremierePro">
										<parameterid>rotation</parameterid>
										<name>Rotation</name>
										<valuemin>-8640</valuemin>
										<valuemax>8640</valuemax>
										<value>0</value>
									</parameter>
									<parameter authoringApp="PremierePro">
										<parameterid>center</parameterid>
										<name>Center</name>
										<value>
											<horiz>0</horiz>
											<vert>-0.166667</vert>
										</value>
									</parameter>
									<parameter authoringApp="PremierePro">
										<parameterid>centerOffset</parameterid>
										<name>Anchor Point</name>
										<value>
											<horiz>0</horiz>
											<vert>0</vert>
										</value>
									</parameter>
								</effect>
							</filter>
							<filter>
								<effect>
									<name>Distort</name>
									<effectid>deformation</effectid>
									<effectcategory>motion</effectcategory>
									<effecttype>motion</effecttype>
									<mediatype>video</mediatype>
									<parameter authoringApp="PremierePro">
										<parameterid>aspect</parameterid>
										<name>Aspect</name>
										<valuemin>-10000</valuemin>
										<valuemax>10000</valuemax>
										<value>-9.40171</value>
									</parameter>
								</effect>
							</filter>
						<logginginfo>
							<description></description>
							<scene></scene>
							<shottake></shottake>
							<lognote></lognote>
						</logginginfo>
						<labels>
							<label2>Iris</label2>
						</labels>
					</clipitem>
					<clipitem id="clipitem-298">
						<masterclipid>masterclip-25</masterclipid>
						<name>DIGS694-150805-DR.mxf</name>
						<enabled>TRUE</enabled>
						<duration>2400</duration>
						<rate>
							<timebase>25</timebase>
							<ntsc>FALSE</ntsc>
						</rate>
						<start>4712</start>
						<end>4829</end>
						<in>965</in>
						<out>1082</out>
						<pproTicksIn>9805017600000</pproTicksIn>
						<pproTicksOut>10993812480000</pproTicksOut>
						<alphatype>none</alphatype>
						<file id="file-21"/>
							<filter>
								<effect>
									<name>Basic Motion</name>
									<effectid>basic</effectid>
									<effectcategory>motion</effectcategory>
									<effecttype>motion</effecttype>
									<mediatype>video</mediatype>
									<parameter authoringApp="PremierePro">
										<parameterid>scale</parameterid>
										<name>Scale</name>
										<valuemin>0</valuemin>
										<valuemax>1000</valuemax>
										<value>133</value>
									</parameter>
									<parameter authoringApp="PremierePro">
										<parameterid>rotation</parameterid>
										<name>Rotation</name>
										<valuemin>-8640</valuemin>
										<valuemax>8640</valuemax>
										<value>0</value>
									</parameter>
									<parameter authoringApp="PremierePro">
										<parameterid>center</parameterid>
										<name>Center</name>
										<value>
											<horiz>0</horiz>
											<vert>0.111111</vert>
										</value>
									</parameter>
									<parameter authoringApp="PremierePro">
										<parameterid>centerOffset</parameterid>
										<name>Anchor Point</name>
										<value>
											<horiz>0</horiz>
											<vert>0</vert>
										</value>
									</parameter>
								</effect>
							</filter>
							<filter>
								<effect>
									<name>Distort</name>
									<effectid>deformation</effectid>
									<effectcategory>motion</effectcategory>
									<effecttype>motion</effecttype>
									<mediatype>video</mediatype>
									<parameter authoringApp="PremierePro">
										<parameterid>aspect</parameterid>
										<name>Aspect</name>
										<valuemin>-10000</valuemin>
										<valuemax>10000</valuemax>
										<value>-9.40171</value>
									</parameter>
								</effect>
							</filter>
						<logginginfo>
							<description></description>
							<scene></scene>
							<shottake></shottake>
							<lognote></lognote>
						</logginginfo>
						<labels>
							<label2>Iris</label2>
						</labels>
					</clipitem>
					<clipitem id="clipitem-299">
						<masterclipid>masterclip-10</masterclipid>
						<name>NNFA80750005AA.mxf</name>
						<enabled>TRUE</enabled>
						<duration>81126</duration>
						<rate>
							<timebase>25</timebase>
							<ntsc>FALSE</ntsc>
						</rate>
						<start>10559</start>
						<end>10901</end>
						<in>48682</in>
						<out>49024</out>
						<pproTicksIn>494640276480000</pproTicksIn>
						<pproTicksOut>498115215360000</pproTicksOut>
						<alphatype>none</alphatype>
						<file id="file-8"/>
							<filter>
								<effect>
									<name>Basic Motion</name>
									<effectid>basic</effectid>
									<effectcategory>motion</effectcategory>
									<effecttype>motion</effecttype>
									<mediatype>video</mediatype>
									<parameter authoringApp="PremierePro">
										<parameterid>scale</parameterid>
										<name>Scale</name>
										<valuemin>0</valuemin>
										<valuemax>1000</valuemax>
										<value>138</value>
									</parameter>
									<parameter authoringApp="PremierePro">
										<parameterid>rotation</parameterid>
										<name>Rotation</name>
										<valuemin>-8640</valuemin>
										<valuemax>8640</valuemax>
										<value>0</value>
									</parameter>
									<parameter authoringApp="PremierePro">
										<parameterid>center</parameterid>
										<name>Center</name>
										<value>
											<horiz>0.036111</horiz>
											<vert>-0.0590278</vert>
										</value>
									</parameter>
									<parameter authoringApp="PremierePro">
										<parameterid>centerOffset</parameterid>
										<name>Anchor Point</name>
										<value>
											<horiz>0</horiz>
											<vert>0</vert>
										</value>
									</parameter>
								</effect>
							</filter>
							<filter>
								<effect>
									<name>Distort</name>
									<effectid>deformation</effectid>
									<effectcategory>motion</effectcategory>
									<effecttype>motion</effecttype>
									<mediatype>video</mediatype>
									<parameter authoringApp="PremierePro">
										<parameterid>aspect</parameterid>
										<name>Aspect</name>
										<valuemin>-10000</valuemin>
										<valuemax>10000</valuemax>
										<value>-9.40171</value>
									</parameter>
								</effect>
							</filter>
						<link>
							<linkclipref>clipitem-299</linkclipref>
							<mediatype>video</mediatype>
							<trackindex>3</trackindex>
							<clipindex>29</clipindex>
						</link>
						<link>
							<linkclipref>clipitem-2405</linkclipref>
							<mediatype>audio</mediatype>
							<trackindex>17</trackindex>
							<clipindex>37</clipindex>
							<groupindex>1</groupindex>
						</link>
						<link>
							<linkclipref>clipitem-2576</linkclipref>
							<mediatype>audio</mediatype>
							<trackindex>18</trackindex>
							<clipindex>31</clipindex>
							<groupindex>1</groupindex>
						</link>
						<logginginfo>
							<description></description>
							<scene></scene>
							<shottake></shottake>
							<lognote></lognote>
						</logginginfo>
						<labels>
							<label2>Iris</label2>
						</labels>
					</clipitem>
					<clipitem id="clipitem-300">
						<masterclipid>masterclip-26</masterclipid>
						<name>fk-05-hareide-3brodre-r.mxf</name>
						<enabled>TRUE</enabled>
						<duration>3876</duration>
						<rate>
							<timebase>25</timebase>
							<ntsc>FALSE</ntsc>
						</rate>
						<start>12282</start>
						<end>12501</end>
						<in>258</in>
						<out>477</out>
						<pproTicksIn>2621445120000</pproTicksIn>
						<pproTicksOut>4846625280000</pproTicksOut>
						<alphatype>none</alphatype>
						<pixelaspectratio>HD-(1440x1080)</pixelaspectratio>
						<anamorphic>FALSE</anamorphic>
						<pproOriginalPAR>PAL-601</pproOriginalPAR>
						<pproOriginalIsAnamorphic>FALSE</pproOriginalIsAnamorphic>
						<file id="file-22">
							<name>fk-05-hareide-3brodre-r.mxf</name>
							<pathurl>file://localhost/Volumes/Brakka/AdobeLager/QUIZ%20-%20brakka/Arkivstoff/2005/Nyheter/fk-05-hareide-3brodre-r.mxf</pathurl>
							<rate>
								<timebase>25</timebase>
								<ntsc>FALSE</ntsc>
							</rate>
							<duration>3876</duration>
							<timecode>
								<rate>
									<timebase>25</timebase>
									<ntsc>FALSE</ntsc>
								</rate>
								<string>10:23:33:08</string>
								<frame>935333</frame>
								<displayformat>NDF</displayformat>
								<reel>
									<name></name>
								</reel>
							</timecode>
							<media>
								<video>
									<samplecharacteristics>
										<rate>
											<timebase>25</timebase>
											<ntsc>FALSE</ntsc>
										</rate>
										<width>720</width>
										<height>576</height>
										<anamorphic>FALSE</anamorphic>
										<pixelaspectratio>HD-(1440x1080)</pixelaspectratio>
										<pproOriginalIsAnamorphic>FALSE</pproOriginalIsAnamorphic>
										<pproOriginalPAR>PAL-601</pproOriginalPAR>
										<fielddominance>upper</fielddominance>
									</samplecharacteristics>
								</video>
								<audio>
									<samplecharacteristics>
										<depth>16</depth>
										<samplerate>48000</samplerate>
									</samplecharacteristics>
									<channelcount>2</channelcount>
								</audio>
							</media>
						</file>
							<filter>
								<effect>
									<name>Basic Motion</name>
									<effectid>basic</effectid>
									<effectcategory>motion</effectcategory>
									<effecttype>motion</effecttype>
									<mediatype>video</mediatype>
									<parameter authoringApp="PremierePro">
										<parameterid>scale</parameterid>
										<name>Scale</name>
										<valuemin>0</valuemin>
										<valuemax>1000</valuemax>
										<value>112</value>
									</parameter>
									<parameter authoringApp="PremierePro">
										<parameterid>rotation</parameterid>
										<name>Rotation</name>
										<valuemin>-8640</valuemin>
										<valuemax>8640</valuemax>
										<value>0</value>
									</parameter>
									<parameter authoringApp="PremierePro">
										<parameterid>center</parameterid>
										<name>Center</name>
										<value>
											<horiz>0</horiz>
											<vert>0</vert>
										</value>
									</parameter>
									<parameter authoringApp="PremierePro">
										<parameterid>centerOffset</parameterid>
										<name>Anchor Point</name>
										<value>
											<horiz>0</horiz>
											<vert>0</vert>
										</value>
									</parameter>
								</effect>
							</filter>
							<filter>
								<effect>
									<name>Distort</name>
									<effectid>deformation</effectid>
									<effectcategory>motion</effectcategory>
									<effecttype>motion</effecttype>
									<mediatype>video</mediatype>
									<parameter authoringApp="PremierePro">
										<parameterid>aspect</parameterid>
										<name>Aspect</name>
										<valuemin>-10000</valuemin>
										<valuemax>10000</valuemax>
										<value>-33.3333</value>
									</parameter>
								</effect>
							</filter>
						<logginginfo>
							<description></description>
							<scene></scene>
							<shottake></shottake>
							<lognote></lognote>
						</logginginfo>
						<labels>
							<label2>Iris</label2>
						</labels>
					</clipitem>
					<clipitem id="clipitem-301">
						<masterclipid>masterclip-26</masterclipid>
						<name>fk-05-hareide-3brodre-r.mxf</name>
						<enabled>TRUE</enabled>
						<duration>3876</duration>
						<rate>
							<timebase>25</timebase>
							<ntsc>FALSE</ntsc>
						</rate>
						<start>12501</start>
						<end>13210</end>
						<in>1899</in>
						<out>2608</out>
						<pproTicksIn>19295055360000</pproTicksIn>
						<pproTicksOut>26498949120000</pproTicksOut>
						<alphatype>none</alphatype>
						<file id="file-22"/>
							<filter>
								<effect>
									<name>Basic Motion</name>
									<effectid>basic</effectid>
									<effectcategory>motion</effectcategory>
									<effecttype>motion</effecttype>
									<mediatype>video</mediatype>
									<parameter authoringApp="PremierePro">
										<parameterid>scale</parameterid>
										<name>Scale</name>
										<valuemin>0</valuemin>
										<valuemax>1000</valuemax>
										<value>112</value>
									</parameter>
									<parameter authoringApp="PremierePro">
										<parameterid>rotation</parameterid>
										<name>Rotation</name>
										<valuemin>-8640</valuemin>
										<valuemax>8640</valuemax>
										<value>0</value>
									</parameter>
									<parameter authoringApp="PremierePro">
										<parameterid>center</parameterid>
										<name>Center</name>
										<value>
											<horiz>0</horiz>
											<vert>0</vert>
										</value>
									</parameter>
									<parameter authoringApp="PremierePro">
										<parameterid>centerOffset</parameterid>
										<name>Anchor Point</name>
										<value>
											<horiz>0</horiz>
											<vert>0</vert>
										</value>
									</parameter>
								</effect>
							</filter>
							<filter>
								<effect>
									<name>Distort</name>
									<effectid>deformation</effectid>
									<effectcategory>motion</effectcategory>
									<effecttype>motion</effecttype>
									<mediatype>video</mediatype>
									<parameter authoringApp="PremierePro">
										<parameterid>aspect</parameterid>
										<name>Aspect</name>
										<valuemin>-10000</valuemin>
										<valuemax>10000</valuemax>
										<value>-33.3333</value>
									</parameter>
								</effect>
							</filter>
						<logginginfo>
							<description></description>
							<scene></scene>
							<shottake></shottake>
							<lognote></lognote>
						</logginginfo>
						<labels>
							<label2>Iris</label2>
						</labels>
					</clipitem>
					<clipitem id="clipitem-303">
						<masterclipid>masterclip-27</masterclipid>
						<name>tidsbonanza_bumper_kjendistoppen.mov</name>
						<enabled>TRUE</enabled>
						<duration>186</duration>
						<rate>
							<timebase>25</timebase>
							<ntsc>FALSE</ntsc>
						</rate>
						<start>13368</start>
						<end>13504</end>
						<in>17</in>
						<out>153</out>
						<pproTicksIn>172730880000</pproTicksIn>
						<pproTicksOut>1554577920000</pproTicksOut>
						<alphatype>none</alphatype>
						<pixelaspectratio>square</pixelaspectratio>
						<anamorphic>FALSE</anamorphic>
						<file id="file-23">
							<name>tidsbonanza_bumper_kjendistoppen.mov</name>
							<pathurl>file://localhost/Volumes/Brakka/AdobeLager/QUIZ%20-%20brakka/Grafikk/FERDIG/JINGLE/tidsbonanza_bumper_kjendistoppen.mov</pathurl>
							<rate>
								<timebase>25</timebase>
								<ntsc>FALSE</ntsc>
							</rate>
							<duration>186</duration>
							<timecode>
								<rate>
									<timebase>25</timebase>
									<ntsc>FALSE</ntsc>
								</rate>
								<string>00:00:00:00</string>
								<frame>0</frame>
								<displayformat>NDF</displayformat>
								<reel>
									<name></name>
								</reel>
							</timecode>
							<media>
								<video>
									<samplecharacteristics>
										<rate>
											<timebase>25</timebase>
											<ntsc>FALSE</ntsc>
										</rate>
										<width>1920</width>
										<height>1080</height>
										<anamorphic>FALSE</anamorphic>
										<pixelaspectratio>square</pixelaspectratio>
										<fielddominance>none</fielddominance>
									</samplecharacteristics>
								</video>
								<audio>
									<samplecharacteristics>
										<depth>16</depth>
										<samplerate>48000</samplerate>
									</samplecharacteristics>
									<channelcount>2</channelcount>
								</audio>
							</media>
						</file>
						<logginginfo>
							<description></description>
							<scene></scene>
							<shottake></shottake>
							<lognote></lognote>
						</logginginfo>
						<labels>
							<label2>Iris</label2>
						</labels>
					</clipitem>
					<clipitem id="clipitem-304">
						<masterclipid>masterclip-28</masterclipid>
						<name>Crazy Frog - Axel F.mp4</name>
						<enabled>TRUE</enabled>
						<duration>4325</duration>
						<rate>
							<timebase>25</timebase>
							<ntsc>FALSE</ntsc>
						</rate>
						<start>18624</start>
						<end>18848</end>
						<in>1222</in>
						<out>1446</out>
						<pproTicksIn>12416302080000</pproTicksIn>
						<pproTicksOut>14692285440000</pproTicksOut>
						<alphatype>black</alphatype>
						<pixelaspectratio>square</pixelaspectratio>
						<anamorphic>FALSE</anamorphic>
						<file id="file-24">
							<name>Crazy Frog - Axel F.mp4</name>
							<pathurl>file://localhost/Volumes/Brakka/AdobeLager/QUIZ%20-%20brakka/Arkivstoff/2005/Musikkvideoer/Crazy%20Frog%20-%20Axel%20F.mp4</pathurl>
							<rate>
								<timebase>24</timebase>
								<ntsc>TRUE</ntsc>
							</rate>
							<duration>4148</duration>
							<timecode>
								<rate>
									<timebase>24</timebase>
									<ntsc>TRUE</ntsc>
								</rate>
								<string>00:00:00:00</string>
								<frame>0</frame>
								<displayformat>NDF</displayformat>
								<reel>
									<name></name>
								</reel>
							</timecode>
							<media>
								<video>
									<samplecharacteristics>
										<rate>
											<timebase>24</timebase>
											<ntsc>TRUE</ntsc>
										</rate>
										<width>854</width>
										<height>480</height>
										<anamorphic>FALSE</anamorphic>
										<pixelaspectratio>square</pixelaspectratio>
										<fielddominance>none</fielddominance>
									</samplecharacteristics>
								</video>
								<audio>
									<samplecharacteristics>
										<depth>16</depth>
										<samplerate>44100</samplerate>
									</samplecharacteristics>
									<channelcount>2</channelcount>
								</audio>
							</media>
						</file>
							<filter>
								<effect>
									<name>Basic Motion</name>
									<effectid>basic</effectid>
									<effectcategory>motion</effectcategory>
									<effecttype>motion</effecttype>
									<mediatype>video</mediatype>
									<parameter authoringApp="PremierePro">
										<parameterid>scale</parameterid>
										<name>Scale</name>
										<valuemin>0</valuemin>
										<valuemax>1000</valuemax>
										<value>105</value>
									</parameter>
									<parameter authoringApp="PremierePro">
										<parameterid>rotation</parameterid>
										<name>Rotation</name>
										<valuemin>-8640</valuemin>
										<valuemax>8640</valuemax>
										<value>0</value>
									</parameter>
									<parameter authoringApp="PremierePro">
										<parameterid>center</parameterid>
										<name>Center</name>
										<value>
											<horiz>0</horiz>
											<vert>0</vert>
										</value>
									</parameter>
									<parameter authoringApp="PremierePro">
										<parameterid>centerOffset</parameterid>
										<name>Anchor Point</name>
										<value>
											<horiz>0</horiz>
											<vert>0</vert>
										</value>
									</parameter>
								</effect>
							</filter>
						<logginginfo>
							<description></description>
							<scene></scene>
							<shottake></shottake>
							<lognote></lognote>
						</logginginfo>
						<labels>
							<label2>Iris</label2>
						</labels>
					</clipitem>
					<clipitem id="clipitem-305">
						<masterclipid>masterclip-29</masterclipid>
						<name>*Schnappi - Schnappi Das Kleine Krokodil*.mp4</name>
						<enabled>TRUE</enabled>
						<duration>5244</duration>
						<rate>
							<timebase>25</timebase>
							<ntsc>FALSE</ntsc>
						</rate>
						<start>18848</start>
						<end>19171</end>
						<in>1421</in>
						<out>1744</out>
						<pproTicksIn>14438269440000</pproTicksIn>
						<pproTicksOut>17720156160000</pproTicksOut>
						<alphatype>black</alphatype>
						<pixelaspectratio>square</pixelaspectratio>
						<anamorphic>FALSE</anamorphic>
						<file id="file-25">
							<name>*Schnappi - Schnappi Das Kleine Krokodil*.mp4</name>
							<pathurl>file://localhost/Volumes/Brakka/AdobeLager/QUIZ%20-%20brakka/Arkivstoff/2005/Musikkvideoer/*Schnappi%20-%20Schnappi%20Das%20Kleine%20Krokodil*.mp4</pathurl>
							<rate>
								<timebase>25</timebase>
								<ntsc>FALSE</ntsc>
							</rate>
							<duration>5244</duration>
							<timecode>
								<rate>
									<timebase>25</timebase>
									<ntsc>FALSE</ntsc>
								</rate>
								<string>00:00:00:00</string>
								<frame>0</frame>
								<displayformat>NDF</displayformat>
								<reel>
									<name></name>
								</reel>
							</timecode>
							<media>
								<video>
									<samplecharacteristics>
										<rate>
											<timebase>25</timebase>
											<ntsc>FALSE</ntsc>
										</rate>
										<width>320</width>
										<height>262</height>
										<anamorphic>FALSE</anamorphic>
										<pixelaspectratio>square</pixelaspectratio>
										<fielddominance>none</fielddominance>
									</samplecharacteristics>
								</video>
								<audio>
									<samplecharacteristics>
										<depth>16</depth>
										<samplerate>44100</samplerate>
									</samplecharacteristics>
									<channelcount>2</channelcount>
								</audio>
							</media>
						</file>
						<logginginfo>
							<description></description>
							<scene></scene>
							<shottake></shottake>
							<lognote></lognote>
						</logginginfo>
						<labels>
							<label2>Iris</label2>
						</labels>
					</clipitem>
					<clipitem id="clipitem-306">
						<masterclipid>masterclip-30</masterclipid>
						<name>ouha19002605aa-p1-080416r.mxf</name>
						<enabled>TRUE</enabled>
						<duration>7035</duration>
						<rate>
							<timebase>25</timebase>
							<ntsc>FALSE</ntsc>
						</rate>
						<start>19171</start>
						<end>19399</end>
						<in>364</in>
						<out>592</out>
						<pproTicksIn>3698472960000</pproTicksIn>
						<pproTicksOut>6015098880000</pproTicksOut>
						<alphatype>none</alphatype>
						<pixelaspectratio>HD-(1440x1080)</pixelaspectratio>
						<anamorphic>FALSE</anamorphic>
						<pproOriginalPAR>PAL-601</pproOriginalPAR>
						<pproOriginalIsAnamorphic>FALSE</pproOriginalIsAnamorphic>
						<file id="file-26">
							<name>ouha19002605aa-p1-080416r.mxf</name>
							<pathurl>file://localhost/Volumes/Brakka/AdobeLager/QUIZ%20-%20brakka/Arkivstoff/2005/Musikkvideoer/ouha19002605aa-p1-080416r.mxf</pathurl>
							<rate>
								<timebase>25</timebase>
								<ntsc>FALSE</ntsc>
							</rate>
							<duration>7035</duration>
							<timecode>
								<rate>
									<timebase>25</timebase>
									<ntsc>FALSE</ntsc>
								</rate>
								<string>10:39:14:04</string>
								<frame>958854</frame>
								<displayformat>NDF</displayformat>
								<reel>
									<name></name>
								</reel>
							</timecode>
							<media>
								<video>
									<samplecharacteristics>
										<rate>
											<timebase>25</timebase>
											<ntsc>FALSE</ntsc>
										</rate>
										<width>720</width>
										<height>576</height>
										<anamorphic>FALSE</anamorphic>
										<pixelaspectratio>HD-(1440x1080)</pixelaspectratio>
										<pproOriginalIsAnamorphic>FALSE</pproOriginalIsAnamorphic>
										<pproOriginalPAR>PAL-601</pproOriginalPAR>
										<fielddominance>upper</fielddominance>
									</samplecharacteristics>
								</video>
								<audio>
									<samplecharacteristics>
										<depth>16</depth>
										<samplerate>48000</samplerate>
									</samplecharacteristics>
									<channelcount>2</channelcount>
								</audio>
							</media>
						</file>
							<filter>
								<effect>
									<name>Basic Motion</name>
									<effectid>basic</effectid>
									<effectcategory>motion</effectcategory>
									<effecttype>motion</effecttype>
									<mediatype>video</mediatype>
									<parameter authoringApp="PremierePro">
										<parameterid>scale</parameterid>
										<name>Scale</name>
										<valuemin>0</valuemin>
										<valuemax>1000</valuemax>
										<value>111</value>
									</parameter>
									<parameter authoringApp="PremierePro">
										<parameterid>rotation</parameterid>
										<name>Rotation</name>
										<valuemin>-8640</valuemin>
										<valuemax>8640</valuemax>
										<value>0</value>
									</parameter>
									<parameter authoringApp="PremierePro">
										<parameterid>center</parameterid>
										<name>Center</name>
										<value>
											<horiz>0</horiz>
											<vert>0.0920139</vert>
										</value>
									</parameter>
									<parameter authoringApp="PremierePro">
										<parameterid>centerOffset</parameterid>
										<name>Anchor Point</name>
										<value>
											<horiz>0</horiz>
											<vert>0</vert>
										</value>
									</parameter>
								</effect>
							</filter>
							<filter>
								<effect>
									<name>Distort</name>
									<effectid>deformation</effectid>
									<effectcategory>motion</effectcategory>
									<effecttype>motion</effecttype>
									<mediatype>video</mediatype>
									<parameter authoringApp="PremierePro">
										<parameterid>aspect</parameterid>
										<name>Aspect</name>
										<valuemin>-10000</valuemin>
										<valuemax>10000</valuemax>
										<value>-33.3333</value>
									</parameter>
								</effect>
							</filter>
						<logginginfo>
							<description></description>
							<scene></scene>
							<shottake></shottake>
							<lognote></lognote>
						</logginginfo>
						<labels>
							<label2>Iris</label2>
						</labels>
					</clipitem>
					<clipitem id="clipitem-307">
						<masterclipid>masterclip-31</masterclipid>
						<name>FK-05-alarmprisen05-r.mxf</name>
						<enabled>TRUE</enabled>
						<duration>11696</duration>
						<rate>
							<timebase>25</timebase>
							<ntsc>FALSE</ntsc>
						</rate>
						<start>19399</start>
						<end>19572</end>
						<in>8593</in>
						<out>8766</out>
						<pproTicksIn>87310379520000</pproTicksIn>
						<pproTicksOut>89068170240000</pproTicksOut>
						<alphatype>none</alphatype>
						<pixelaspectratio>PAL-601</pixelaspectratio>
						<anamorphic>TRUE</anamorphic>
						<pproOriginalPAR>PAL-601</pproOriginalPAR>
						<pproOriginalIsAnamorphic>FALSE</pproOriginalIsAnamorphic>
						<file id="file-27">
							<name>FK-05-alarmprisen05-r.mxf</name>
							<pathurl>file://localhost/Volumes/Brakka/AdobeLager/QUIZ%20-%20brakka/Arkivstoff/2005/Musikk/FK-05-alarmprisen05-r.mxf</pathurl>
							<rate>
								<timebase>25</timebase>
								<ntsc>FALSE</ntsc>
							</rate>
							<duration>11696</duration>
							<timecode>
								<rate>
									<timebase>25</timebase>
									<ntsc>FALSE</ntsc>
								</rate>
								<string>10:48:04:05</string>
								<frame>972105</frame>
								<displayformat>NDF</displayformat>
								<reel>
									<name></name>
								</reel>
							</timecode>
							<media>
								<video>
									<samplecharacteristics>
										<rate>
											<timebase>25</timebase>
											<ntsc>FALSE</ntsc>
										</rate>
										<width>720</width>
										<height>576</height>
										<anamorphic>TRUE</anamorphic>
										<pixelaspectratio>PAL-601</pixelaspectratio>
										<pproOriginalIsAnamorphic>FALSE</pproOriginalIsAnamorphic>
										<pproOriginalPAR>PAL-601</pproOriginalPAR>
										<fielddominance>upper</fielddominance>
									</samplecharacteristics>
								</video>
								<audio>
									<samplecharacteristics>
										<depth>16</depth>
										<samplerate>48000</samplerate>
									</samplecharacteristics>
									<channelcount>4</channelcount>
								</audio>
							</media>
						</file>
							<filter>
								<effect>
									<name>Basic Motion</name>
									<effectid>basic</effectid>
									<effectcategory>motion</effectcategory>
									<effecttype>motion</effecttype>
									<mediatype>video</mediatype>
									<parameter authoringApp="PremierePro">
										<parameterid>scale</parameterid>
										<name>Scale</name>
										<valuemin>0</valuemin>
										<valuemax>1000</valuemax>
										<value>106</value>
									</parameter>
									<parameter authoringApp="PremierePro">
										<parameterid>rotation</parameterid>
										<name>Rotation</name>
										<valuemin>-8640</valuemin>
										<valuemax>8640</valuemax>
										<value>0</value>
									</parameter>
									<parameter authoringApp="PremierePro">
										<parameterid>center</parameterid>
										<name>Center</name>
										<value>
											<horiz>0</horiz>
											<vert>0</vert>
										</value>
									</parameter>
									<parameter authoringApp="PremierePro">
										<parameterid>centerOffset</parameterid>
										<name>Anchor Point</name>
										<value>
											<horiz>0</horiz>
											<vert>0</vert>
										</value>
									</parameter>
								</effect>
							</filter>
							<filter>
								<effect>
									<name>Distort</name>
									<effectid>deformation</effectid>
									<effectcategory>motion</effectcategory>
									<effecttype>motion</effecttype>
									<mediatype>video</mediatype>
									<parameter authoringApp="PremierePro">
										<parameterid>aspect</parameterid>
										<name>Aspect</name>
										<valuemin>-10000</valuemin>
										<valuemax>10000</valuemax>
										<value>-45.8689</value>
									</parameter>
								</effect>
							</filter>
						<logginginfo>
							<description></description>
							<scene></scene>
							<shottake></shottake>
							<lognote></lognote>
						</logginginfo>
						<labels>
							<label2>Iris</label2>
						</labels>
					</clipitem>
					<clipitem id="clipitem-308">
						<masterclipid>masterclip-31</masterclipid>
						<name>FK-05-alarmprisen05-r.mxf</name>
						<enabled>TRUE</enabled>
						<duration>11696</duration>
						<rate>
							<timebase>25</timebase>
							<ntsc>FALSE</ntsc>
						</rate>
						<start>19572</start>
						<end>19635</end>
						<in>3049</in>
						<out>3112</out>
						<pproTicksIn>30979791360000</pproTicksIn>
						<pproTicksOut>31619911680000</pproTicksOut>
						<alphatype>none</alphatype>
						<file id="file-27"/>
							<filter>
								<effect>
									<name>Basic Motion</name>
									<effectid>basic</effectid>
									<effectcategory>motion</effectcategory>
									<effecttype>motion</effecttype>
									<mediatype>video</mediatype>
									<parameter authoringApp="PremierePro">
										<parameterid>scale</parameterid>
										<name>Scale</name>
										<valuemin>0</valuemin>
										<valuemax>1000</valuemax>
										<value>106</value>
									</parameter>
									<parameter authoringApp="PremierePro">
										<parameterid>rotation</parameterid>
										<name>Rotation</name>
										<valuemin>-8640</valuemin>
										<valuemax>8640</valuemax>
										<value>0</value>
									</parameter>
									<parameter authoringApp="PremierePro">
										<parameterid>center</parameterid>
										<name>Center</name>
										<value>
											<horiz>0</horiz>
											<vert>0</vert>
										</value>
									</parameter>
									<parameter authoringApp="PremierePro">
										<parameterid>centerOffset</parameterid>
										<name>Anchor Point</name>
										<value>
											<horiz>0</horiz>
											<vert>0</vert>
										</value>
									</parameter>
								</effect>
							</filter>
							<filter>
								<effect>
									<name>Distort</name>
									<effectid>deformation</effectid>
									<effectcategory>motion</effectcategory>
									<effecttype>motion</effecttype>
									<mediatype>video</mediatype>
									<parameter authoringApp="PremierePro">
										<parameterid>aspect</parameterid>
										<name>Aspect</name>
										<valuemin>-10000</valuemin>
										<valuemax>10000</valuemax>
										<value>-45.8689</value>
									</parameter>
								</effect>
							</filter>
						<logginginfo>
							<description></description>
							<scene></scene>
							<shottake></shottake>
							<lognote></lognote>
						</logginginfo>
						<labels>
							<label2>Iris</label2>
						</labels>
					</clipitem>
					<clipitem id="clipitem-309">
						<masterclipid>masterclip-31</masterclipid>
						<name>FK-05-alarmprisen05-r.mxf</name>
						<enabled>TRUE</enabled>
						<duration>11696</duration>
						<rate>
							<timebase>25</timebase>
							<ntsc>FALSE</ntsc>
						</rate>
						<start>19635</start>
						<end>19748</end>
						<in>8829</in>
						<out>8942</out>
						<pproTicksIn>89708290560000</pproTicksIn>
						<pproTicksOut>90856442880000</pproTicksOut>
						<alphatype>none</alphatype>
						<file id="file-27"/>
							<filter>
								<effect>
									<name>Basic Motion</name>
									<effectid>basic</effectid>
									<effectcategory>motion</effectcategory>
									<effecttype>motion</effecttype>
									<mediatype>video</mediatype>
									<parameter authoringApp="PremierePro">
										<parameterid>scale</parameterid>
										<name>Scale</name>
										<valuemin>0</valuemin>
										<valuemax>1000</valuemax>
										<value>106</value>
									</parameter>
									<parameter authoringApp="PremierePro">
										<parameterid>rotation</parameterid>
										<name>Rotation</name>
										<valuemin>-8640</valuemin>
										<valuemax>8640</valuemax>
										<value>0</value>
									</parameter>
									<parameter authoringApp="PremierePro">
										<parameterid>center</parameterid>
										<name>Center</name>
										<value>
											<horiz>0</horiz>
											<vert>0</vert>
										</value>
									</parameter>
									<parameter authoringApp="PremierePro">
										<parameterid>centerOffset</parameterid>
										<name>Anchor Point</name>
										<value>
											<horiz>0</horiz>
											<vert>0</vert>
										</value>
									</parameter>
								</effect>
							</filter>
							<filter>
								<effect>
									<name>Distort</name>
									<effectid>deformation</effectid>
									<effectcategory>motion</effectcategory>
									<effecttype>motion</effecttype>
									<mediatype>video</mediatype>
									<parameter authoringApp="PremierePro">
										<parameterid>aspect</parameterid>
										<name>Aspect</name>
										<valuemin>-10000</valuemin>
										<valuemax>10000</valuemax>
										<value>-45.8689</value>
									</parameter>
								</effect>
							</filter>
						<logginginfo>
							<description></description>
							<scene></scene>
							<shottake></shottake>
							<lognote></lognote>
						</logginginfo>
						<labels>
							<label2>Iris</label2>
						</labels>
					</clipitem>
					<clipitem id="clipitem-310">
						<masterclipid>masterclip-31</masterclipid>
						<name>FK-05-alarmprisen05-r.mxf</name>
						<enabled>TRUE</enabled>
						<duration>11696</duration>
						<rate>
							<timebase>25</timebase>
							<ntsc>FALSE</ntsc>
						</rate>
						<start>19748</start>
						<end>19888</end>
						<in>5287</in>
						<out>5427</out>
						<pproTicksIn>53719303680000</pproTicksIn>
						<pproTicksOut>55141793280000</pproTicksOut>
						<alphatype>none</alphatype>
						<file id="file-27"/>
							<filter>
								<effect>
									<name>Basic Motion</name>
									<effectid>basic</effectid>
									<effectcategory>motion</effectcategory>
									<effecttype>motion</effecttype>
									<mediatype>video</mediatype>
									<parameter authoringApp="PremierePro">
										<parameterid>scale</parameterid>
										<name>Scale</name>
										<valuemin>0</valuemin>
										<valuemax>1000</valuemax>
										<value>106</value>
									</parameter>
									<parameter authoringApp="PremierePro">
										<parameterid>rotation</parameterid>
										<name>Rotation</name>
										<valuemin>-8640</valuemin>
										<valuemax>8640</valuemax>
										<value>0</value>
									</parameter>
									<parameter authoringApp="PremierePro">
										<parameterid>center</parameterid>
										<name>Center</name>
										<value>
											<horiz>0</horiz>
											<vert>0</vert>
										</value>
									</parameter>
									<parameter authoringApp="PremierePro">
										<parameterid>centerOffset</parameterid>
										<name>Anchor Point</name>
										<value>
											<horiz>0</horiz>
											<vert>0</vert>
										</value>
									</parameter>
								</effect>
							</filter>
							<filter>
								<effect>
									<name>Distort</name>
									<effectid>deformation</effectid>
									<effectcategory>motion</effectcategory>
									<effecttype>motion</effecttype>
									<mediatype>video</mediatype>
									<parameter authoringApp="PremierePro">
										<parameterid>aspect</parameterid>
										<name>Aspect</name>
										<valuemin>-10000</valuemin>
										<valuemax>10000</valuemax>
										<value>-45.8689</value>
									</parameter>
								</effect>
							</filter>
						<logginginfo>
							<description></description>
							<scene></scene>
							<shottake></shottake>
							<lognote></lognote>
						</logginginfo>
						<labels>
							<label2>Iris</label2>
						</labels>
					</clipitem>
					<clipitem id="clipitem-311">
						<masterclipid>masterclip-32</masterclipid>
						<name>Mira Craig - Boogeyman.mp4</name>
						<enabled>TRUE</enabled>
						<duration>6259</duration>
						<rate>
							<timebase>25</timebase>
							<ntsc>FALSE</ntsc>
						</rate>
						<start>19888</start>
						<end>20203</end>
						<in>1017</in>
						<out>1332</out>
						<pproTicksIn>10333370880000</pproTicksIn>
						<pproTicksOut>13533972480000</pproTicksOut>
						<alphatype>black</alphatype>
						<pixelaspectratio>square</pixelaspectratio>
						<anamorphic>FALSE</anamorphic>
						<file id="file-28">
							<name>Mira Craig - Boogeyman.mp4</name>
							<pathurl>file://localhost/Volumes/Brakka/AdobeLager/QUIZ%20-%20brakka/Arkivstoff/2005/Musikkvideoer/Mira%20Craig%20-%20Boogeyman.mp4</pathurl>
							<rate>
								<timebase>30</timebase>
								<ntsc>TRUE</ntsc>
							</rate>
							<duration>7504</duration>
							<timecode>
								<rate>
									<timebase>30</timebase>
									<ntsc>TRUE</ntsc>
								</rate>
								<string>00:00:00:00</string>
								<frame>0</frame>
								<displayformat>NDF</displayformat>
								<reel>
									<name></name>
								</reel>
							</timecode>
							<media>
								<video>
									<samplecharacteristics>
										<rate>
											<timebase>30</timebase>
											<ntsc>TRUE</ntsc>
										</rate>
										<width>640</width>
										<height>480</height>
										<anamorphic>FALSE</anamorphic>
										<pixelaspectratio>square</pixelaspectratio>
										<fielddominance>none</fielddominance>
									</samplecharacteristics>
								</video>
								<audio>
									<samplecharacteristics>
										<depth>16</depth>
										<samplerate>44100</samplerate>
									</samplecharacteristics>
									<channelcount>2</channelcount>
								</audio>
							</media>
						</file>
							<filter>
								<effect>
									<name>Basic Motion</name>
									<effectid>basic</effectid>
									<effectcategory>motion</effectcategory>
									<effecttype>motion</effecttype>
									<mediatype>video</mediatype>
									<parameter authoringApp="PremierePro">
										<parameterid>scale</parameterid>
										<name>Scale</name>
										<valuemin>0</valuemin>
										<valuemax>1000</valuemax>
										<value>136</value>
									</parameter>
									<parameter authoringApp="PremierePro">
										<parameterid>rotation</parameterid>
										<name>Rotation</name>
										<valuemin>-8640</valuemin>
										<valuemax>8640</valuemax>
										<value>0</value>
									</parameter>
									<parameter authoringApp="PremierePro">
										<parameterid>center</parameterid>
										<name>Center</name>
										<value>
											<horiz>0</horiz>
											<vert>0</vert>
										</value>
									</parameter>
									<parameter authoringApp="PremierePro">
										<parameterid>centerOffset</parameterid>
										<name>Anchor Point</name>
										<value>
											<horiz>0</horiz>
											<vert>0</vert>
										</value>
									</parameter>
								</effect>
							</filter>
						<logginginfo>
							<description></description>
							<scene></scene>
							<shottake></shottake>
							<lognote></lognote>
						</logginginfo>
						<labels>
							<label2>Iris</label2>
						</labels>
					</clipitem>
					<clipitem id="clipitem-312">
						<masterclipid>masterclip-33</masterclipid>
						<name>Madonna - Hung Up (Official Music Video).mp4</name>
						<enabled>TRUE</enabled>
						<duration>8167</duration>
						<rate>
							<timebase>25</timebase>
							<ntsc>FALSE</ntsc>
						</rate>
						<start>20203</start>
						<end>20483</end>
						<in>2645</in>
						<out>2925</out>
						<pproTicksIn>26874892800000</pproTicksIn>
						<pproTicksOut>29719872000000</pproTicksOut>
						<alphatype>black</alphatype>
						<pixelaspectratio>square</pixelaspectratio>
						<anamorphic>FALSE</anamorphic>
						<file id="file-29">
							<name>Madonna - Hung Up (Official Music Video).mp4</name>
							<pathurl>file://localhost/Volumes/Brakka/AdobeLager/QUIZ%20-%20brakka/Arkivstoff/2005/Musikkvideoer/Madonna%20-%20Hung%20Up%20(Official%20Music%20Video).mp4</pathurl>
							<rate>
								<timebase>30</timebase>
								<ntsc>TRUE</ntsc>
							</rate>
							<duration>9791</duration>
							<timecode>
								<rate>
									<timebase>30</timebase>
									<ntsc>TRUE</ntsc>
								</rate>
								<string>00:00:00:00</string>
								<frame>0</frame>
								<displayformat>NDF</displayformat>
								<reel>
									<name></name>
								</reel>
							</timecode>
							<media>
								<video>
									<samplecharacteristics>
										<rate>
											<timebase>30</timebase>
											<ntsc>TRUE</ntsc>
										</rate>
										<width>640</width>
										<height>480</height>
										<anamorphic>FALSE</anamorphic>
										<pixelaspectratio>square</pixelaspectratio>
										<fielddominance>none</fielddominance>
									</samplecharacteristics>
								</video>
								<audio>
									<samplecharacteristics>
										<depth>16</depth>
										<samplerate>44100</samplerate>
									</samplecharacteristics>
									<channelcount>2</channelcount>
								</audio>
							</media>
						</file>
							<filter>
								<effect>
									<name>Basic Motion</name>
									<effectid>basic</effectid>
									<effectcategory>motion</effectcategory>
									<effecttype>motion</effecttype>
									<mediatype>video</mediatype>
									<parameter authoringApp="PremierePro">
										<parameterid>scale</parameterid>
										<name>Scale</name>
										<valuemin>0</valuemin>
										<valuemax>1000</valuemax>
										<value>134</value>
									</parameter>
									<parameter authoringApp="PremierePro">
										<parameterid>rotation</parameterid>
										<name>Rotation</name>
										<valuemin>-8640</valuemin>
										<valuemax>8640</valuemax>
										<value>0</value>
									</parameter>
									<parameter authoringApp="PremierePro">
										<parameterid>center</parameterid>
										<name>Center</name>
										<value>
											<horiz>0</horiz>
											<vert>0.36875</vert>
										</value>
									</parameter>
									<parameter authoringApp="PremierePro">
										<parameterid>centerOffset</parameterid>
										<name>Anchor Point</name>
										<value>
											<horiz>0</horiz>
											<vert>0</vert>
										</value>
									</parameter>
								</effect>
							</filter>
						<logginginfo>
							<description></description>
							<scene></scene>
							<shottake></shottake>
							<lognote></lognote>
						</logginginfo>
						<labels>
							<label2>Iris</label2>
						</labels>
					</clipitem>
					<clipitem id="clipitem-313">
						<masterclipid>masterclip-34</masterclipid>
						<name>James Blunt - You're Beautiful (Video).mp4</name>
						<enabled>TRUE</enabled>
						<duration>5052</duration>
						<rate>
							<timebase>25</timebase>
							<ntsc>FALSE</ntsc>
						</rate>
						<start>20483</start>
						<end>20601</end>
						<in>2803</in>
						<out>2921</out>
						<pproTicksIn>28480273920000</pproTicksIn>
						<pproTicksOut>29679229440000</pproTicksOut>
						<alphatype>black</alphatype>
						<pixelaspectratio>square</pixelaspectratio>
						<anamorphic>FALSE</anamorphic>
						<file id="file-30">
							<name>James Blunt - You're Beautiful (Video).mp4</name>
							<pathurl>file://localhost/Volumes/Brakka/AdobeLager/QUIZ%20-%20brakka/Arkivstoff/2005/Musikkvideoer/James%20Blunt%20-%20You're%20Beautiful%20(Video).mp4</pathurl>
							<rate>
								<timebase>25</timebase>
								<ntsc>FALSE</ntsc>
							</rate>
							<duration>5052</duration>
							<timecode>
								<rate>
									<timebase>25</timebase>
									<ntsc>FALSE</ntsc>
								</rate>
								<string>00:00:00:00</string>
								<frame>0</frame>
								<displayformat>NDF</displayformat>
								<reel>
									<name></name>
								</reel>
							</timecode>
							<media>
								<video>
									<samplecharacteristics>
										<rate>
											<timebase>25</timebase>
											<ntsc>FALSE</ntsc>
										</rate>
										<width>1280</width>
										<height>720</height>
										<anamorphic>FALSE</anamorphic>
										<pixelaspectratio>square</pixelaspectratio>
										<fielddominance>none</fielddominance>
									</samplecharacteristics>
								</video>
								<audio>
									<samplecharacteristics>
										<depth>16</depth>
										<samplerate>44100</samplerate>
									</samplecharacteristics>
									<channelcount>2</channelcount>
								</audio>
							</media>
						</file>
							<filter>
								<effect>
									<name>Basic Motion</name>
									<effectid>basic</effectid>
									<effectcategory>motion</effectcategory>
									<effecttype>motion</effecttype>
									<mediatype>video</mediatype>
									<parameter authoringApp="PremierePro">
										<parameterid>scale</parameterid>
										<name>Scale</name>
										<valuemin>0</valuemin>
										<valuemax>1000</valuemax>
										<value>104</value>
									</parameter>
									<parameter authoringApp="PremierePro">
										<parameterid>rotation</parameterid>
										<name>Rotation</name>
										<valuemin>-8640</valuemin>
										<valuemax>8640</valuemax>
										<value>0</value>
									</parameter>
									<parameter authoringApp="PremierePro">
										<parameterid>center</parameterid>
										<name>Center</name>
										<value>
											<horiz>0</horiz>
											<vert>0</vert>
										</value>
									</parameter>
									<parameter authoringApp="PremierePro">
										<parameterid>centerOffset</parameterid>
										<name>Anchor Point</name>
										<value>
											<horiz>0</horiz>
											<vert>0</vert>
										</value>
									</parameter>
								</effect>
							</filter>
						<logginginfo>
							<description></description>
							<scene></scene>
							<shottake></shottake>
							<lognote></lognote>
						</logginginfo>
						<labels>
							<label2>Iris</label2>
						</labels>
					</clipitem>
					<clipitem id="clipitem-314">
						<masterclipid>masterclip-35</masterclipid>
						<name>Alejandro Fuentes - Stars.mp4</name>
						<enabled>TRUE</enabled>
						<duration>5195</duration>
						<rate>
							<timebase>25</timebase>
							<ntsc>FALSE</ntsc>
						</rate>
						<start>20601</start>
						<end>20914</end>
						<in>845</in>
						<out>1158</out>
						<pproTicksIn>8585740800000</pproTicksIn>
						<pproTicksOut>11766021120000</pproTicksOut>
						<alphatype>black</alphatype>
						<pixelaspectratio>square</pixelaspectratio>
						<anamorphic>FALSE</anamorphic>
						<file id="file-31">
							<name>Alejandro Fuentes - Stars.mp4</name>
							<pathurl>file://localhost/Volumes/Brakka/AdobeLager/QUIZ%20-%20brakka/Arkivstoff/2005/Musikkvideoer/Alejandro%20Fuentes%20-%20Stars.mp4</pathurl>
							<rate>
								<timebase>25</timebase>
								<ntsc>FALSE</ntsc>
							</rate>
							<duration>5195</duration>
							<timecode>
								<rate>
									<timebase>25</timebase>
									<ntsc>FALSE</ntsc>
								</rate>
								<string>00:00:00:00</string>
								<frame>0</frame>
								<displayformat>NDF</displayformat>
								<reel>
									<name></name>
								</reel>
							</timecode>
							<media>
								<video>
									<samplecharacteristics>
										<rate>
											<timebase>25</timebase>
											<ntsc>FALSE</ntsc>
										</rate>
										<width>854</width>
										<height>480</height>
										<anamorphic>FALSE</anamorphic>
										<pixelaspectratio>square</pixelaspectratio>
										<fielddominance>none</fielddominance>
									</samplecharacteristics>
								</video>
								<audio>
									<samplecharacteristics>
										<depth>16</depth>
										<samplerate>44100</samplerate>
									</samplecharacteristics>
									<channelcount>2</channelcount>
								</audio>
							</media>
						</file>
							<filter>
								<effect>
									<name>Basic Motion</name>
									<effectid>basic</effectid>
									<effectcategory>motion</effectcategory>
									<effecttype>motion</effecttype>
									<mediatype>video</mediatype>
									<parameter authoringApp="PremierePro">
										<parameterid>scale</parameterid>
										<name>Scale</name>
										<valuemin>0</valuemin>
										<valuemax>1000</valuemax>
										<value>106</value>
									</parameter>
									<parameter authoringApp="PremierePro">
										<parameterid>rotation</parameterid>
										<name>Rotation</name>
										<valuemin>-8640</valuemin>
										<valuemax>8640</valuemax>
										<value>0</value>
									</parameter>
									<parameter authoringApp="PremierePro">
										<parameterid>center</parameterid>
										<name>Center</name>
										<value>
											<horiz>0</horiz>
											<vert>0.0625</vert>
										</value>
									</parameter>
									<parameter authoringApp="PremierePro">
										<parameterid>centerOffset</parameterid>
										<name>Anchor Point</name>
										<value>
											<horiz>0</horiz>
											<vert>0</vert>
										</value>
									</parameter>
								</effect>
							</filter>
						<logginginfo>
							<description></description>
							<scene></scene>
							<shottake></shottake>
							<lognote></lognote>
						</logginginfo>
						<labels>
							<label2>Iris</label2>
						</labels>
					</clipitem>
					<clipitem id="clipitem-315">
						<masterclipid>masterclip-36</masterclipid>
						<name>FK-05-JorunKristiansen-r.mxf</name>
						<enabled>TRUE</enabled>
						<duration>6631</duration>
						<rate>
							<timebase>25</timebase>
							<ntsc>FALSE</ntsc>
						</rate>
						<start>20914</start>
						<end>21183</end>
						<in>3695</in>
						<out>3964</out>
						<pproTicksIn>37543564800000</pproTicksIn>
						<pproTicksOut>40276776960000</pproTicksOut>
						<alphatype>none</alphatype>
						<pixelaspectratio>PAL-601</pixelaspectratio>
						<anamorphic>FALSE</anamorphic>
						<file id="file-32">
							<name>FK-05-JorunKristiansen-r.mxf</name>
							<pathurl>file://localhost/Volumes/Brakka/AdobeLager/QUIZ%20-%20brakka/Arkivstoff/2005/Musikkvideoer/FK-05-JorunKristiansen-r.mxf</pathurl>
							<rate>
								<timebase>25</timebase>
								<ntsc>FALSE</ntsc>
							</rate>
							<duration>6631</duration>
							<timecode>
								<rate>
									<timebase>25</timebase>
									<ntsc>FALSE</ntsc>
								</rate>
								<string>10:17:53:21</string>
								<frame>926846</frame>
								<displayformat>NDF</displayformat>
								<reel>
									<name></name>
								</reel>
							</timecode>
							<media>
								<video>
									<samplecharacteristics>
										<rate>
											<timebase>25</timebase>
											<ntsc>FALSE</ntsc>
										</rate>
										<width>720</width>
										<height>576</height>
										<anamorphic>FALSE</anamorphic>
										<pixelaspectratio>PAL-601</pixelaspectratio>
										<fielddominance>upper</fielddominance>
									</samplecharacteristics>
								</video>
								<audio>
									<samplecharacteristics>
										<depth>16</depth>
										<samplerate>48000</samplerate>
									</samplecharacteristics>
									<channelcount>2</channelcount>
								</audio>
							</media>
						</file>
							<filter>
								<effect>
									<name>Basic Motion</name>
									<effectid>basic</effectid>
									<effectcategory>motion</effectcategory>
									<effecttype>motion</effecttype>
									<mediatype>video</mediatype>
									<parameter authoringApp="PremierePro">
										<parameterid>scale</parameterid>
										<name>Scale</name>
										<valuemin>0</valuemin>
										<valuemax>1000</valuemax>
										<value>135</value>
									</parameter>
									<parameter authoringApp="PremierePro">
										<parameterid>rotation</parameterid>
										<name>Rotation</name>
										<valuemin>-8640</valuemin>
										<valuemax>8640</valuemax>
										<value>0</value>
									</parameter>
									<parameter authoringApp="PremierePro">
										<parameterid>center</parameterid>
										<name>Center</name>
										<value>
											<horiz>0.0152777</horiz>
											<vert>0.284722</vert>
										</value>
									</parameter>
									<parameter authoringApp="PremierePro">
										<parameterid>centerOffset</parameterid>
										<name>Anchor Point</name>
										<value>
											<horiz>0</horiz>
											<vert>0</vert>
										</value>
									</parameter>
								</effect>
							</filter>
							<filter>
								<effect>
									<name>Distort</name>
									<effectid>deformation</effectid>
									<effectcategory>motion</effectcategory>
									<effecttype>motion</effecttype>
									<mediatype>video</mediatype>
									<parameter authoringApp="PremierePro">
										<parameterid>aspect</parameterid>
										<name>Aspect</name>
										<valuemin>-10000</valuemin>
										<valuemax>10000</valuemax>
										<value>-9.40171</value>
									</parameter>
								</effect>
							</filter>
						<logginginfo>
							<description></description>
							<scene></scene>
							<shottake></shottake>
							<lognote></lognote>
						</logginginfo>
						<labels>
							<label2>Iris</label2>
						</labels>
					</clipitem>
					<clipitem id="clipitem-316">
						<masterclipid>masterclip-37</masterclipid>
						<name>musikkvideo-1365-20054.mxf</name>
						<enabled>TRUE</enabled>
						<duration>5480</duration>
						<rate>
							<timebase>25</timebase>
							<ntsc>FALSE</ntsc>
						</rate>
						<start>21183</start>
						<end>21342</end>
						<in>1779</in>
						<out>1938</out>
						<pproTicksIn>18075778560000</pproTicksIn>
						<pproTicksOut>19691320320000</pproTicksOut>
						<alphatype>none</alphatype>
						<pixelaspectratio>PAL-601</pixelaspectratio>
						<anamorphic>FALSE</anamorphic>
						<file id="file-33">
							<name>musikkvideo-1365-20054.mxf</name>
							<pathurl>file://localhost/Volumes/Brakka/AdobeLager/QUIZ%20-%20brakka/Arkivstoff/2005/Musikkvideoer/musikkvideo-1365-20054.mxf</pathurl>
							<rate>
								<timebase>25</timebase>
								<ntsc>FALSE</ntsc>
							</rate>
							<duration>5480</duration>
							<timecode>
								<rate>
									<timebase>25</timebase>
									<ntsc>FALSE</ntsc>
								</rate>
								<string>01:34:00:00</string>
								<frame>141000</frame>
								<displayformat>NDF</displayformat>
								<reel>
									<name></name>
								</reel>
							</timecode>
							<media>
								<video>
									<samplecharacteristics>
										<rate>
											<timebase>25</timebase>
											<ntsc>FALSE</ntsc>
										</rate>
										<width>720</width>
										<height>576</height>
										<anamorphic>FALSE</anamorphic>
										<pixelaspectratio>PAL-601</pixelaspectratio>
										<fielddominance>upper</fielddominance>
									</samplecharacteristics>
								</video>
								<audio>
									<samplecharacteristics>
										<depth>16</depth>
										<samplerate>48000</samplerate>
									</samplecharacteristics>
									<channelcount>2</channelcount>
								</audio>
							</media>
						</file>
							<filter>
								<effect>
									<name>Basic Motion</name>
									<effectid>basic</effectid>
									<effectcategory>motion</effectcategory>
									<effecttype>motion</effecttype>
									<mediatype>video</mediatype>
									<parameter authoringApp="PremierePro">
										<parameterid>scale</parameterid>
										<name>Scale</name>
										<valuemin>0</valuemin>
										<valuemax>1000</valuemax>
										<value>132</value>
									</parameter>
									<parameter authoringApp="PremierePro">
										<parameterid>rotation</parameterid>
										<name>Rotation</name>
										<valuemin>-8640</valuemin>
										<valuemax>8640</valuemax>
										<value>0</value>
									</parameter>
									<parameter authoringApp="PremierePro">
										<parameterid>center</parameterid>
										<name>Center</name>
										<value>
											<horiz>0</horiz>
											<vert>0</vert>
										</value>
									</parameter>
									<parameter authoringApp="PremierePro">
										<parameterid>centerOffset</parameterid>
										<name>Anchor Point</name>
										<value>
											<horiz>0</horiz>
											<vert>0</vert>
										</value>
									</parameter>
								</effect>
							</filter>
							<filter>
								<effect>
									<name>Distort</name>
									<effectid>deformation</effectid>
									<effectcategory>motion</effectcategory>
									<effecttype>motion</effecttype>
									<mediatype>video</mediatype>
									<parameter authoringApp="PremierePro">
										<parameterid>aspect</parameterid>
										<name>Aspect</name>
										<valuemin>-10000</valuemin>
										<valuemax>10000</valuemax>
										<value>-9.40171</value>
									</parameter>
								</effect>
							</filter>
						<logginginfo>
							<description></description>
							<scene></scene>
							<shottake></shottake>
							<lognote></lognote>
						</logginginfo>
						<labels>
							<label2>Iris</label2>
						</labels>
					</clipitem>
					<clipitem id="clipitem-317">
						<masterclipid>masterclip-38</masterclipid>
						<name>musikkvideo-1333-11260.mxf</name>
						<enabled>TRUE</enabled>
						<duration>5216</duration>
						<rate>
							<timebase>25</timebase>
							<ntsc>FALSE</ntsc>
						</rate>
						<start>21342</start>
						<end>21593</end>
						<in>2151</in>
						<out>2402</out>
						<pproTicksIn>21855536640000</pproTicksIn>
						<pproTicksOut>24405857280000</pproTicksOut>
						<alphatype>none</alphatype>
						<pixelaspectratio>PAL-601</pixelaspectratio>
						<anamorphic>FALSE</anamorphic>
						<file id="file-34">
							<name>musikkvideo-1333-11260.mxf</name>
							<pathurl>file://localhost/Volumes/Brakka/AdobeLager/QUIZ%20-%20brakka/Arkivstoff/2005/Musikkvideoer/musikkvideo-1333-11260.mxf</pathurl>
							<rate>
								<timebase>25</timebase>
								<ntsc>FALSE</ntsc>
							</rate>
							<duration>5216</duration>
							<timecode>
								<rate>
									<timebase>25</timebase>
									<ntsc>FALSE</ntsc>
								</rate>
								<string>00:04:59:24</string>
								<frame>7499</frame>
								<displayformat>NDF</displayformat>
								<reel>
									<name></name>
								</reel>
							</timecode>
							<media>
								<video>
									<samplecharacteristics>
										<rate>
											<timebase>25</timebase>
											<ntsc>FALSE</ntsc>
										</rate>
										<width>720</width>
										<height>576</height>
										<anamorphic>FALSE</anamorphic>
										<pixelaspectratio>PAL-601</pixelaspectratio>
										<fielddominance>upper</fielddominance>
									</samplecharacteristics>
								</video>
								<audio>
									<samplecharacteristics>
										<depth>16</depth>
										<samplerate>48000</samplerate>
									</samplecharacteristics>
									<channelcount>2</channelcount>
								</audio>
							</media>
						</file>
							<filter>
								<effect>
									<name>Basic Motion</name>
									<effectid>basic</effectid>
									<effectcategory>motion</effectcategory>
									<effecttype>motion</effecttype>
									<mediatype>video</mediatype>
									<parameter authoringApp="PremierePro">
										<parameterid>scale</parameterid>
										<name>Scale</name>
										<valuemin>0</valuemin>
										<valuemax>1000</valuemax>
										<value>133</value>
									</parameter>
									<parameter authoringApp="PremierePro">
										<parameterid>rotation</parameterid>
										<name>Rotation</name>
										<valuemin>-8640</valuemin>
										<valuemax>8640</valuemax>
										<value>0</value>
									</parameter>
									<parameter authoringApp="PremierePro">
										<parameterid>center</parameterid>
										<name>Center</name>
										<value>
											<horiz>0</horiz>
											<vert>0</vert>
										</value>
									</parameter>
									<parameter authoringApp="PremierePro">
										<parameterid>centerOffset</parameterid>
										<name>Anchor Point</name>
										<value>
											<horiz>0</horiz>
											<vert>0</vert>
										</value>
									</parameter>
								</effect>
							</filter>
							<filter>
								<effect>
									<name>Distort</name>
									<effectid>deformation</effectid>
									<effectcategory>motion</effectcategory>
									<effecttype>motion</effecttype>
									<mediatype>video</mediatype>
									<parameter authoringApp="PremierePro">
										<parameterid>aspect</parameterid>
										<name>Aspect</name>
										<valuemin>-10000</valuemin>
										<valuemax>10000</valuemax>
										<value>-9.40171</value>
									</parameter>
								</effect>
							</filter>
						<logginginfo>
							<description></description>
							<scene></scene>
							<shottake></shottake>
							<lognote></lognote>
						</logginginfo>
						<labels>
							<label2>Iris</label2>
						</labels>
					</clipitem>
					<clipitem id="clipitem-318">
						<masterclipid>masterclip-39</masterclipid>
						<name>musikkvideo-1352-18180.mxf</name>
						<enabled>TRUE</enabled>
						<duration>6601</duration>
						<rate>
							<timebase>25</timebase>
							<ntsc>FALSE</ntsc>
						</rate>
						<start>21593</start>
						<end>21857</end>
						<in>1591</in>
						<out>1855</out>
						<pproTicksIn>16165578240000</pproTicksIn>
						<pproTicksOut>18847987200000</pproTicksOut>
						<alphatype>none</alphatype>
						<pixelaspectratio>PAL-601</pixelaspectratio>
						<anamorphic>FALSE</anamorphic>
						<file id="file-35">
							<name>musikkvideo-1352-18180.mxf</name>
							<pathurl>file://localhost/Volumes/Brakka/AdobeLager/QUIZ%20-%20brakka/Arkivstoff/2005/Musikkvideoer/musikkvideo-1352-18180.mxf</pathurl>
							<rate>
								<timebase>25</timebase>
								<ntsc>FALSE</ntsc>
							</rate>
							<duration>6601</duration>
							<timecode>
								<rate>
									<timebase>25</timebase>
									<ntsc>FALSE</ntsc>
								</rate>
								<string>00:37:58:00</string>
								<frame>56950</frame>
								<displayformat>NDF</displayformat>
								<reel>
									<name></name>
								</reel>
							</timecode>
							<media>
								<video>
									<samplecharacteristics>
										<rate>
											<timebase>25</timebase>
											<ntsc>FALSE</ntsc>
										</rate>
										<width>720</width>
										<height>576</height>
										<anamorphic>FALSE</anamorphic>
										<pixelaspectratio>PAL-601</pixelaspectratio>
										<fielddominance>upper</fielddominance>
									</samplecharacteristics>
								</video>
								<audio>
									<samplecharacteristics>
										<depth>16</depth>
										<samplerate>48000</samplerate>
									</samplecharacteristics>
									<channelcount>2</channelcount>
								</audio>
							</media>
						</file>
							<filter>
								<effect>
									<name>Basic Motion</name>
									<effectid>basic</effectid>
									<effectcategory>motion</effectcategory>
									<effecttype>motion</effecttype>
									<mediatype>video</mediatype>
									<parameter authoringApp="PremierePro">
										<parameterid>scale</parameterid>
										<name>Scale</name>
										<valuemin>0</valuemin>
										<valuemax>1000</valuemax>
										<value>133</value>
									</parameter>
									<parameter authoringApp="PremierePro">
										<parameterid>rotation</parameterid>
										<name>Rotation</name>
										<valuemin>-8640</valuemin>
										<valuemax>8640</valuemax>
										<value>0</value>
									</parameter>
									<parameter authoringApp="PremierePro">
										<parameterid>center</parameterid>
										<name>Center</name>
										<value>
											<horiz>0</horiz>
											<vert>-0.0503472</vert>
										</value>
									</parameter>
									<parameter authoringApp="PremierePro">
										<parameterid>centerOffset</parameterid>
										<name>Anchor Point</name>
										<value>
											<horiz>0</horiz>
											<vert>0</vert>
										</value>
									</parameter>
								</effect>
							</filter>
							<filter>
								<effect>
									<name>Distort</name>
									<effectid>deformation</effectid>
									<effectcategory>motion</effectcategory>
									<effecttype>motion</effecttype>
									<mediatype>video</mediatype>
									<parameter authoringApp="PremierePro">
										<parameterid>aspect</parameterid>
										<name>Aspect</name>
										<valuemin>-10000</valuemin>
										<valuemax>10000</valuemax>
										<value>-9.40171</value>
									</parameter>
								</effect>
							</filter>
						<logginginfo>
							<description></description>
							<scene></scene>
							<shottake></shottake>
							<lognote></lognote>
						</logginginfo>
						<labels>
							<label2>Iris</label2>
						</labels>
					</clipitem>
					<clipitem id="clipitem-319">
						<masterclipid>masterclip-40</masterclipid>
						<name>musikkvideo-1370-15956.mxf</name>
						<enabled>TRUE</enabled>
						<duration>6075</duration>
						<rate>
							<timebase>25</timebase>
							<ntsc>FALSE</ntsc>
						</rate>
						<start>21857</start>
						<end>22156</end>
						<in>4473</in>
						<out>4772</out>
						<pproTicksIn>45448542720000</pproTicksIn>
						<pproTicksOut>48486574080000</pproTicksOut>
						<alphatype>none</alphatype>
						<pixelaspectratio>PAL-601</pixelaspectratio>
						<anamorphic>FALSE</anamorphic>
						<file id="file-36">
							<name>musikkvideo-1370-15956.mxf</name>
							<pathurl>file://localhost/Volumes/Brakka/AdobeLager/QUIZ%20-%20brakka/Arkivstoff/2005/Musikkvideoer/musikkvideo-1370-15956.mxf</pathurl>
							<rate>
								<timebase>25</timebase>
								<ntsc>FALSE</ntsc>
							</rate>
							<duration>6075</duration>
							<timecode>
								<rate>
									<timebase>25</timebase>
									<ntsc>FALSE</ntsc>
								</rate>
								<string>00:19:56:09</string>
								<frame>29909</frame>
								<displayformat>NDF</displayformat>
								<reel>
									<name></name>
								</reel>
							</timecode>
							<media>
								<video>
									<samplecharacteristics>
										<rate>
											<timebase>25</timebase>
											<ntsc>FALSE</ntsc>
										</rate>
										<width>720</width>
										<height>576</height>
										<anamorphic>FALSE</anamorphic>
										<pixelaspectratio>PAL-601</pixelaspectratio>
										<fielddominance>upper</fielddominance>
									</samplecharacteristics>
								</video>
								<audio>
									<samplecharacteristics>
										<depth>16</depth>
										<samplerate>48000</samplerate>
									</samplecharacteristics>
									<channelcount>2</channelcount>
								</audio>
							</media>
						</file>
							<filter>
								<effect>
									<name>Basic Motion</name>
									<effectid>basic</effectid>
									<effectcategory>motion</effectcategory>
									<effecttype>motion</effecttype>
									<mediatype>video</mediatype>
									<parameter authoringApp="PremierePro">
										<parameterid>scale</parameterid>
										<name>Scale</name>
										<valuemin>0</valuemin>
										<valuemax>1000</valuemax>
										<value>141</value>
									</parameter>
									<parameter authoringApp="PremierePro">
										<parameterid>rotation</parameterid>
										<name>Rotation</name>
										<valuemin>-8640</valuemin>
										<valuemax>8640</valuemax>
										<value>0</value>
									</parameter>
									<parameter authoringApp="PremierePro">
										<parameterid>center</parameterid>
										<name>Center</name>
										<value>
											<horiz>-0.00138887</horiz>
											<vert>0.0173612</vert>
										</value>
									</parameter>
									<parameter authoringApp="PremierePro">
										<parameterid>centerOffset</parameterid>
										<name>Anchor Point</name>
										<value>
											<horiz>0</horiz>
											<vert>0</vert>
										</value>
									</parameter>
								</effect>
							</filter>
							<filter>
								<effect>
									<name>Distort</name>
									<effectid>deformation</effectid>
									<effectcategory>motion</effectcategory>
									<effecttype>motion</effecttype>
									<mediatype>video</mediatype>
									<parameter authoringApp="PremierePro">
										<parameterid>aspect</parameterid>
										<name>Aspect</name>
										<valuemin>-10000</valuemin>
										<valuemax>10000</valuemax>
										<value>-9.40171</value>
									</parameter>
								</effect>
							</filter>
						<logginginfo>
							<description></description>
							<scene></scene>
							<shottake></shottake>
							<lognote></lognote>
						</logginginfo>
						<labels>
							<label2>Iris</label2>
						</labels>
					</clipitem>
					<clipitem id="clipitem-320">
						<masterclipid>masterclip-41</masterclipid>
						<name>OUHA09000305AA.mxf</name>
						<enabled>TRUE</enabled>
						<duration>68435</duration>
						<rate>
							<timebase>25</timebase>
							<ntsc>FALSE</ntsc>
						</rate>
						<start>24876</start>
						<end>25306</end>
						<in>17836</in>
						<out>18266</out>
						<pproTicksIn>181225175040000</pproTicksIn>
						<pproTicksOut>185594250240000</pproTicksOut>
						<alphatype>none</alphatype>
						<pixelaspectratio>PAL-601</pixelaspectratio>
						<anamorphic>FALSE</anamorphic>
						<file id="file-37">
							<name>OUHA09000305AA.mxf</name>
							<pathurl>file://localhost/Volumes/Brakka/AdobeLager/QUIZ%20-%20brakka/Arkivstoff/2005/Musikk/OUHA09000305AA.mxf</pathurl>
							<rate>
								<timebase>25</timebase>
								<ntsc>FALSE</ntsc>
							</rate>
							<duration>68435</duration>
							<timecode>
								<rate>
									<timebase>25</timebase>
									<ntsc>FALSE</ntsc>
								</rate>
								<string>21:40:51:18</string>
								<frame>1951293</frame>
								<displayformat>NDF</displayformat>
								<reel>
									<name></name>
								</reel>
							</timecode>
							<media>
								<video>
									<samplecharacteristics>
										<rate>
											<timebase>25</timebase>
											<ntsc>FALSE</ntsc>
										</rate>
										<width>720</width>
										<height>576</height>
										<anamorphic>FALSE</anamorphic>
										<pixelaspectratio>PAL-601</pixelaspectratio>
										<fielddominance>upper</fielddominance>
									</samplecharacteristics>
								</video>
								<audio>
									<samplecharacteristics>
										<depth>16</depth>
										<samplerate>48000</samplerate>
									</samplecharacteristics>
									<channelcount>4</channelcount>
								</audio>
							</media>
						</file>
							<filter>
								<effect>
									<name>Basic Motion</name>
									<effectid>basic</effectid>
									<effectcategory>motion</effectcategory>
									<effecttype>motion</effecttype>
									<mediatype>video</mediatype>
									<parameter authoringApp="PremierePro">
										<parameterid>scale</parameterid>
										<name>Scale</name>
										<valuemin>0</valuemin>
										<valuemax>1000</valuemax>
										<value>133.791</value>
									</parameter>
									<parameter authoringApp="PremierePro">
										<parameterid>rotation</parameterid>
										<name>Rotation</name>
										<valuemin>-8640</valuemin>
										<valuemax>8640</valuemax>
										<value>0</value>
									</parameter>
									<parameter authoringApp="PremierePro">
										<parameterid>center</parameterid>
										<name>Center</name>
										<value>
											<horiz>0.0320802</horiz>
											<vert>0.00501337</vert>
										</value>
									</parameter>
									<parameter authoringApp="PremierePro">
										<parameterid>centerOffset</parameterid>
										<name>Anchor Point</name>
										<value>
											<horiz>0</horiz>
											<vert>0</vert>
										</value>
									</parameter>
								</effect>
							</filter>
							<filter>
								<effect>
									<name>Distort</name>
									<effectid>deformation</effectid>
									<effectcategory>motion</effectcategory>
									<effecttype>motion</effecttype>
									<mediatype>video</mediatype>
									<parameter authoringApp="PremierePro">
										<parameterid>aspect</parameterid>
										<name>Aspect</name>
										<valuemin>-10000</valuemin>
										<valuemax>10000</valuemax>
										<value>-9.40171</value>
									</parameter>
								</effect>
							</filter>
						<logginginfo>
							<description></description>
							<scene></scene>
							<shottake></shottake>
							<lognote></lognote>
						</logginginfo>
					</clipitem>
					<clipitem id="clipitem-321">
						<masterclipid>masterclip-42</masterclipid>
						<name>Mira Craig Stage Dive.mp4</name>
						<enabled>TRUE</enabled>
						<duration>965</duration>
						<rate>
							<timebase>25</timebase>
							<ntsc>FALSE</ntsc>
						</rate>
						<start>27109</start>
						<end>27282</end>
						<in>381</in>
						<out>554</out>
						<pproTicksIn>3871203840000</pproTicksIn>
						<pproTicksOut>5628994560000</pproTicksOut>
						<alphatype>black</alphatype>
						<pixelaspectratio>square</pixelaspectratio>
						<anamorphic>FALSE</anamorphic>
						<file id="file-38">
							<name>Mira Craig Stage Dive.mp4</name>
							<pathurl>file://localhost/Volumes/Brakka/AdobeLager/QUIZ%20-%20brakka/Arkivstoff/2005/Mira%20Craig%20Stage%20Dive.mp4</pathurl>
							<rate>
								<timebase>30</timebase>
								<ntsc>TRUE</ntsc>
							</rate>
							<duration>1158</duration>
							<timecode>
								<rate>
									<timebase>30</timebase>
									<ntsc>TRUE</ntsc>
								</rate>
								<string>00:00:00:00</string>
								<frame>0</frame>
								<displayformat>NDF</displayformat>
								<reel>
									<name></name>
								</reel>
							</timecode>
							<media>
								<video>
									<samplecharacteristics>
										<rate>
											<timebase>30</timebase>
											<ntsc>TRUE</ntsc>
										</rate>
										<width>320</width>
										<height>240</height>
										<anamorphic>FALSE</anamorphic>
										<pixelaspectratio>square</pixelaspectratio>
										<fielddominance>none</fielddominance>
									</samplecharacteristics>
								</video>
								<audio>
									<samplecharacteristics>
										<depth>16</depth>
										<samplerate>44100</samplerate>
									</samplecharacteristics>
									<channelcount>2</channelcount>
								</audio>
							</media>
						</file>
							<filter>
								<effect>
									<name>Basic Motion</name>
									<effectid>basic</effectid>
									<effectcategory>motion</effectcategory>
									<effecttype>motion</effecttype>
									<mediatype>video</mediatype>
									<parameter authoringApp="PremierePro">
										<parameterid>scale</parameterid>
										<name>Scale</name>
										<valuemin>0</valuemin>
										<valuemax>1000</valuemax>
										<value>133.333</value>
									</parameter>
									<parameter authoringApp="PremierePro">
										<parameterid>rotation</parameterid>
										<name>Rotation</name>
										<valuemin>-8640</valuemin>
										<valuemax>8640</valuemax>
										<value>0</value>
									</parameter>
									<parameter authoringApp="PremierePro">
										<parameterid>center</parameterid>
										<name>Center</name>
										<value>
											<horiz>0</horiz>
											<vert>0</vert>
										</value>
									</parameter>
									<parameter authoringApp="PremierePro">
										<parameterid>centerOffset</parameterid>
										<name>Anchor Point</name>
										<value>
											<horiz>0</horiz>
											<vert>0</vert>
										</value>
									</parameter>
								</effect>
							</filter>
							<filter>
								<effect>
									<name>Color Corrector 3-way</name>
									<effectid>Color Corrector 3-way</effectid>
									<effectcategory>Color Correction</effectcategory>
									<effecttype>filter</effecttype>
									<mediatype>video</mediatype>
									<parameter authoringApp="PremierePro">
										<parameterid>dispmode</parameterid>
										<name>Display Mode</name>
										<valuemin>1</valuemin>
										<valuemax>3</valuemax>
										<value>1</value>
										<valuelist>
											<valueentry>
												<name>Final</name>
												<value>1</value>
											</valueentry>
											<valueentry>
												<name>Matte</name>
												<value>2</value>
											</valueentry>
											<valueentry>
												<name>Source</name>
												<value>3</value>
											</valueentry>
										</valuelist>
									</parameter>
									<parameter authoringApp="PremierePro">
										<parameterid>label1</parameterid>
										<name>Blacks Controls</name>
										<value></value>
									</parameter>
									<parameter authoringApp="PremierePro">
										<parameterid>blacklevel</parameterid>
										<name>Level</name>
										<valuemin>-196</valuemin>
										<valuemax>254</valuemax>
										<value>0</value>
									</parameter>
									<parameter authoringApp="PremierePro">
										<parameterid>b_hue</parameterid>
										<name>Angle</name>
										<valuemin>-180</valuemin>
										<valuemax>180</valuemax>
										<value>-33</value>
									</parameter>
									<parameter authoringApp="PremierePro">
										<parameterid>b_mag</parameterid>
										<name>Magnitude</name>
										<valuemin>0</valuemin>
										<valuemax>200</valuemax>
										<value>0</value>
									</parameter>
									<parameter authoringApp="PremierePro">
										<parameterid>label2</parameterid>
										<name>Midrange Controls</name>
										<value></value>
									</parameter>
									<parameter authoringApp="PremierePro">
										<parameterid>mids</parameterid>
										<name>Level</name>
										<valuemin>0</valuemin>
										<valuemax>200</valuemax>
										<value>100</value>
									</parameter>
									<parameter authoringApp="PremierePro">
										<parameterid>m_hue</parameterid>
										<name>Angle</name>
										<valuemin>-180</valuemin>
										<valuemax>180</valuemax>
										<value>-33</value>
									</parameter>
									<parameter authoringApp="PremierePro">
										<parameterid>m_mag</parameterid>
										<name>Magnitude</name>
										<valuemin>0</valuemin>
										<valuemax>200</valuemax>
										<value>0</value>
									</parameter>
									<parameter authoringApp="PremierePro">
										<parameterid>label3</parameterid>
										<name>Highlight Controls</name>
										<value></value>
									</parameter>
									<parameter authoringApp="PremierePro">
										<parameterid>highlights</parameterid>
										<name>Level</name>
										<valuemin>64</valuemin>
										<valuemax>509</valuemax>
										<value>255</value>
									</parameter>
									<parameter authoringApp="PremierePro">
										<parameterid>h_hue</parameterid>
										<name>Angle</name>
										<valuemin>-180</valuemin>
										<valuemax>180</valuemax>
										<value>-33</value>
									</parameter>
									<parameter authoringApp="PremierePro">
										<parameterid>h_mag</parameterid>
										<name>Magnitude</name>
										<valuemin>0</valuemin>
										<valuemax>200</valuemax>
										<value>0</value>
									</parameter>
									<parameter authoringApp="PremierePro">
										<parameterid>label4</parameterid>
										<name>Color Controls</name>
										<value></value>
									</parameter>
									<parameter authoringApp="PremierePro">
										<parameterid>chroma</parameterid>
										<name>Saturation</name>
										<valuemin>0</valuemin>
										<valuemax>200</valuemax>
										<value>100</value>
									</parameter>
									<parameter authoringApp="PremierePro">
										<parameterid>label5</parameterid>
										<name>Limit Effect Controls</name>
										<value></value>
									</parameter>
									<parameter authoringApp="PremierePro">
										<parameterid>dochroma</parameterid>
										<name>Limit on Chroma</name>
										<value>FALSE</value>
									</parameter>
									<parameter authoringApp="PremierePro">
										<parameterid>centerang</parameterid>
										<name>Chroma Center</name>
										<valuemin>-760</valuemin>
										<valuemax>760</valuemax>
										<value>-110</value>
									</parameter>
									<parameter authoringApp="PremierePro">
										<parameterid>chromawidth</parameterid>
										<name>Chroma Width</name>
										<valuemin>0</valuemin>
										<valuemax>360</valuemax>
										<value>15</value>
									</parameter>
									<parameter authoringApp="PremierePro">
										<parameterid>chromasoft</parameterid>
										<name>Chroma Softness</name>
										<valuemin>0</valuemin>
										<valuemax>180</valuemax>
										<value>10</value>
									</parameter>
									<parameter authoringApp="PremierePro">
										<parameterid>dosat</parameterid>
										<name>Limit on Saturation</name>
										<value>FALSE</value>
									</parameter>
									<parameter authoringApp="PremierePro">
										<parameterid>satmin</parameterid>
										<name>Sat. Minimum</name>
										<valuemin>0</valuemin>
										<valuemax>125</valuemax>
										<value>35</value>
									</parameter>
									<parameter authoringApp="PremierePro">
										<parameterid>satwidth</parameterid>
										<name>Sat. Width</name>
										<valuemin>0</valuemin>
										<valuemax>125</valuemax>
										<value>40</value>
									</parameter>
									<parameter authoringApp="PremierePro">
										<parameterid>satsoft</parameterid>
										<name>Sat. Softness</name>
										<valuemin>0</valuemin>
										<valuemax>125</valuemax>
										<value>20</value>
									</parameter>
									<parameter authoringApp="PremierePro">
										<parameterid>doluma</parameterid>
										<name>Limit on Luma</name>
										<value>FALSE</value>
									</parameter>
									<parameter authoringApp="PremierePro">
										<parameterid>lumamin</parameterid>
										<name>Luma Minimum</name>
										<valuemin>0</valuemin>
										<valuemax>120</valuemax>
										<value>0</value>
									</parameter>
									<parameter authoringApp="PremierePro">
										<parameterid>lumawidth</parameterid>
										<name>Luma Width</name>
										<valuemin>0</valuemin>
										<valuemax>120</valuemax>
										<value>40</value>
									</parameter>
									<parameter authoringApp="PremierePro">
										<parameterid>lumasoft</parameterid>
										<name>Luma Softness</name>
										<valuemin>0</valuemin>
										<valuemax>120</valuemax>
										<value>20</value>
									</parameter>
									<parameter authoringApp="PremierePro">
										<parameterid>label6</parameterid>
										<name>Edge Control</name>
										<value></value>
									</parameter>
									<parameter authoringApp="PremierePro">
										<parameterid>edgethin</parameterid>
										<name>Thin/Spread</name>
										<valuemin>-100</valuemin>
										<valuemax>100</valuemax>
										<value>0</value>
									</parameter>
									<parameter authoringApp="PremierePro">
										<parameterid>edgefeather</parameterid>
										<name>Softening</name>
										<valuemin>0</valuemin>
										<valuemax>100</valuemax>
										<value>0</value>
									</parameter>
									<parameter authoringApp="PremierePro">
										<parameterid>label7</parameterid>
										<name>Mask Control</name>
										<value></value>
									</parameter>
									<parameter authoringApp="PremierePro">
										<parameterid>invertsel</parameterid>
										<name>Invert</name>
										<value>FALSE</value>
									</parameter>
									<parameter authoringApp="PremierePro">
										<parameterid>debugshow</parameterid>
										<name>Show Stats</name>
										<value>FALSE</value>
									</parameter>
								</effect>
							</filter>
						<logginginfo>
							<description></description>
							<scene></scene>
							<shottake></shottake>
							<lognote></lognote>
						</logginginfo>
						<labels>
							<label2>Iris</label2>
						</labels>
					</clipitem>
					<clipitem id="clipitem-322">
						<masterclipid>masterclip-42</masterclipid>
						<name>Mira Craig Stage Dive.mp4</name>
						<enabled>TRUE</enabled>
						<duration>965</duration>
						<rate>
							<timebase>25</timebase>
							<ntsc>FALSE</ntsc>
						</rate>
						<start>27314</start>
						<end>27468</end>
						<in>381</in>
						<out>535</out>
						<pproTicksIn>3871203840000</pproTicksIn>
						<pproTicksOut>5435942400000</pproTicksOut>
						<alphatype>black</alphatype>
						<file id="file-38"/>
							<filter>
								<effect>
									<name>Basic Motion</name>
									<effectid>basic</effectid>
									<effectcategory>motion</effectcategory>
									<effecttype>motion</effecttype>
									<mediatype>video</mediatype>
									<parameter authoringApp="PremierePro">
										<parameterid>scale</parameterid>
										<name>Scale</name>
										<valuemin>0</valuemin>
										<valuemax>1000</valuemax>
										<value>133.333</value>
									</parameter>
									<parameter authoringApp="PremierePro">
										<parameterid>rotation</parameterid>
										<name>Rotation</name>
										<valuemin>-8640</valuemin>
										<valuemax>8640</valuemax>
										<value>0</value>
									</parameter>
									<parameter authoringApp="PremierePro">
										<parameterid>center</parameterid>
										<name>Center</name>
										<value>
											<horiz>0</horiz>
											<vert>0</vert>
										</value>
									</parameter>
									<parameter authoringApp="PremierePro">
										<parameterid>centerOffset</parameterid>
										<name>Anchor Point</name>
										<value>
											<horiz>0</horiz>
											<vert>0</vert>
										</value>
									</parameter>
								</effect>
							</filter>
							<filter>
								<effect>
									<name>Color Corrector 3-way</name>
									<effectid>Color Corrector 3-way</effectid>
									<effectcategory>Color Correction</effectcategory>
									<effecttype>filter</effecttype>
									<mediatype>video</mediatype>
									<parameter authoringApp="PremierePro">
										<parameterid>dispmode</parameterid>
										<name>Display Mode</name>
										<valuemin>1</valuemin>
										<valuemax>3</valuemax>
										<value>1</value>
										<valuelist>
											<valueentry>
												<name>Final</name>
												<value>1</value>
											</valueentry>
											<valueentry>
												<name>Matte</name>
												<value>2</value>
											</valueentry>
											<valueentry>
												<name>Source</name>
												<value>3</value>
											</valueentry>
										</valuelist>
									</parameter>
									<parameter authoringApp="PremierePro">
										<parameterid>label1</parameterid>
										<name>Blacks Controls</name>
										<value></value>
									</parameter>
									<parameter authoringApp="PremierePro">
										<parameterid>blacklevel</parameterid>
										<name>Level</name>
										<valuemin>-196</valuemin>
										<valuemax>254</valuemax>
										<value>0</value>
									</parameter>
									<parameter authoringApp="PremierePro">
										<parameterid>b_hue</parameterid>
										<name>Angle</name>
										<valuemin>-180</valuemin>
										<valuemax>180</valuemax>
										<value>-33</value>
									</parameter>
									<parameter authoringApp="PremierePro">
										<parameterid>b_mag</parameterid>
										<name>Magnitude</name>
										<valuemin>0</valuemin>
										<valuemax>200</valuemax>
										<value>0</value>
									</parameter>
									<parameter authoringApp="PremierePro">
										<parameterid>label2</parameterid>
										<name>Midrange Controls</name>
										<value></value>
									</parameter>
									<parameter authoringApp="PremierePro">
										<parameterid>mids</parameterid>
										<name>Level</name>
										<valuemin>0</valuemin>
										<valuemax>200</valuemax>
										<value>100</value>
									</parameter>
									<parameter authoringApp="PremierePro">
										<parameterid>m_hue</parameterid>
										<name>Angle</name>
										<valuemin>-180</valuemin>
										<valuemax>180</valuemax>
										<value>-33</value>
									</parameter>
									<parameter authoringApp="PremierePro">
										<parameterid>m_mag</parameterid>
										<name>Magnitude</name>
										<valuemin>0</valuemin>
										<valuemax>200</valuemax>
										<value>0</value>
									</parameter>
									<parameter authoringApp="PremierePro">
										<parameterid>label3</parameterid>
										<name>Highlight Controls</name>
										<value></value>
									</parameter>
									<parameter authoringApp="PremierePro">
										<parameterid>highlights</parameterid>
										<name>Level</name>
										<valuemin>64</valuemin>
										<valuemax>509</valuemax>
										<value>255</value>
									</parameter>
									<parameter authoringApp="PremierePro">
										<parameterid>h_hue</parameterid>
										<name>Angle</name>
										<valuemin>-180</valuemin>
										<valuemax>180</valuemax>
										<value>-33</value>
									</parameter>
									<parameter authoringApp="PremierePro">
										<parameterid>h_mag</parameterid>
										<name>Magnitude</name>
										<valuemin>0</valuemin>
										<valuemax>200</valuemax>
										<value>0</value>
									</parameter>
									<parameter authoringApp="PremierePro">
										<parameterid>label4</parameterid>
										<name>Color Controls</name>
										<value></value>
									</parameter>
									<parameter authoringApp="PremierePro">
										<parameterid>chroma</parameterid>
										<name>Saturation</name>
										<valuemin>0</valuemin>
										<valuemax>200</valuemax>
										<value>100</value>
									</parameter>
									<parameter authoringApp="PremierePro">
										<parameterid>label5</parameterid>
										<name>Limit Effect Controls</name>
										<value></value>
									</parameter>
									<parameter authoringApp="PremierePro">
										<parameterid>dochroma</parameterid>
										<name>Limit on Chroma</name>
										<value>FALSE</value>
									</parameter>
									<parameter authoringApp="PremierePro">
										<parameterid>centerang</parameterid>
										<name>Chroma Center</name>
										<valuemin>-760</valuemin>
										<valuemax>760</valuemax>
										<value>-110</value>
									</parameter>
									<parameter authoringApp="PremierePro">
										<parameterid>chromawidth</parameterid>
										<name>Chroma Width</name>
										<valuemin>0</valuemin>
										<valuemax>360</valuemax>
										<value>15</value>
									</parameter>
									<parameter authoringApp="PremierePro">
										<parameterid>chromasoft</parameterid>
										<name>Chroma Softness</name>
										<valuemin>0</valuemin>
										<valuemax>180</valuemax>
										<value>10</value>
									</parameter>
									<parameter authoringApp="PremierePro">
										<parameterid>dosat</parameterid>
										<name>Limit on Saturation</name>
										<value>FALSE</value>
									</parameter>
									<parameter authoringApp="PremierePro">
										<parameterid>satmin</parameterid>
										<name>Sat. Minimum</name>
										<valuemin>0</valuemin>
										<valuemax>125</valuemax>
										<value>35</value>
									</parameter>
									<parameter authoringApp="PremierePro">
										<parameterid>satwidth</parameterid>
										<name>Sat. Width</name>
										<valuemin>0</valuemin>
										<valuemax>125</valuemax>
										<value>40</value>
									</parameter>
									<parameter authoringApp="PremierePro">
										<parameterid>satsoft</parameterid>
										<name>Sat. Softness</name>
										<valuemin>0</valuemin>
										<valuemax>125</valuemax>
										<value>20</value>
									</parameter>
									<parameter authoringApp="PremierePro">
										<parameterid>doluma</parameterid>
										<name>Limit on Luma</name>
										<value>FALSE</value>
									</parameter>
									<parameter authoringApp="PremierePro">
										<parameterid>lumamin</parameterid>
										<name>Luma Minimum</name>
										<valuemin>0</valuemin>
										<valuemax>120</valuemax>
										<value>0</value>
									</parameter>
									<parameter authoringApp="PremierePro">
										<parameterid>lumawidth</parameterid>
										<name>Luma Width</name>
										<valuemin>0</valuemin>
										<valuemax>120</valuemax>
										<value>40</value>
									</parameter>
									<parameter authoringApp="PremierePro">
										<parameterid>lumasoft</parameterid>
										<name>Luma Softness</name>
										<valuemin>0</valuemin>
										<valuemax>120</valuemax>
										<value>20</value>
									</parameter>
									<parameter authoringApp="PremierePro">
										<parameterid>label6</parameterid>
										<name>Edge Control</name>
										<value></value>
									</parameter>
									<parameter authoringApp="PremierePro">
										<parameterid>edgethin</parameterid>
										<name>Thin/Spread</name>
										<valuemin>-100</valuemin>
										<valuemax>100</valuemax>
										<value>0</value>
									</parameter>
									<parameter authoringApp="PremierePro">
										<parameterid>edgefeather</parameterid>
										<name>Softening</name>
										<valuemin>0</valuemin>
										<valuemax>100</valuemax>
										<value>0</value>
									</parameter>
									<parameter authoringApp="PremierePro">
										<parameterid>label7</parameterid>
										<name>Mask Control</name>
										<value></value>
									</parameter>
									<parameter authoringApp="PremierePro">
										<parameterid>invertsel</parameterid>
										<name>Invert</name>
										<value>FALSE</value>
									</parameter>
									<parameter authoringApp="PremierePro">
										<parameterid>debugshow</parameterid>
										<name>Show Stats</name>
										<value>FALSE</value>
									</parameter>
								</effect>
							</filter>
						<logginginfo>
							<description></description>
							<scene></scene>
							<shottake></shottake>
							<lognote></lognote>
						</logginginfo>
						<labels>
							<label2>Iris</label2>
						</labels>
					</clipitem>
					<clipitem id="clipitem-323">
						<masterclipid>masterclip-43</masterclipid>
						<name>tidsbonanzaSuper_Thomas/tidsbonanza_super TV2.aep</name>
						<enabled>TRUE</enabled>
						<duration>161</duration>
						<rate>
							<timebase>25</timebase>
							<ntsc>FALSE</ntsc>
						</rate>
						<start>37232</start>
						<end>37294</end>
						<in>0</in>
						<out>62</out>
						<pproTicksIn>0</pproTicksIn>
						<pproTicksOut>629959680000</pproTicksOut>
						<alphatype>straight</alphatype>
						<pixelaspectratio>square</pixelaspectratio>
						<anamorphic>FALSE</anamorphic>
						<file id="file-39">
							<name>tidsbonanzaSuper_Thomas/tidsbonanza_super TV2.aep</name>
							<pathurl>file://localhost/Volumes/Brakka/AdobeLager/QUIZ%20-%20brakka/Grafikk/FERDIG/SUPER/tidsbonanza_super%20TV2.aep</pathurl>
							<rate>
								<timebase>25</timebase>
								<ntsc>FALSE</ntsc>
							</rate>
							<duration>161</duration>
							<timecode>
								<rate>
									<timebase>25</timebase>
									<ntsc>FALSE</ntsc>
								</rate>
								<string>00:00:00:00</string>
								<frame>0</frame>
								<displayformat>NDF</displayformat>
								<reel>
									<name></name>
								</reel>
							</timecode>
							<media>
								<video>
									<samplecharacteristics>
										<rate>
											<timebase>25</timebase>
											<ntsc>FALSE</ntsc>
										</rate>
										<width>1920</width>
										<height>1080</height>
										<anamorphic>FALSE</anamorphic>
										<pixelaspectratio>square</pixelaspectratio>
										<fielddominance>lower</fielddominance>
									</samplecharacteristics>
								</video>
								<audio>
									<samplecharacteristics>
										<depth>16</depth>
										<samplerate>48000</samplerate>
									</samplecharacteristics>
									<channelcount>2</channelcount>
								</audio>
							</media>
						</file>
							<filter>
								<effect>
									<name>Basic Motion</name>
									<effectid>basic</effectid>
									<effectcategory>motion</effectcategory>
									<effecttype>motion</effecttype>
									<mediatype>video</mediatype>
									<parameter authoringApp="PremierePro">
										<parameterid>scale</parameterid>
										<name>Scale</name>
										<valuemin>0</valuemin>
										<valuemax>1000</valuemax>
										<value>100</value>
									</parameter>
									<parameter authoringApp="PremierePro">
										<parameterid>rotation</parameterid>
										<name>Rotation</name>
										<valuemin>-8640</valuemin>
										<valuemax>8640</valuemax>
										<value>0</value>
									</parameter>
									<parameter authoringApp="PremierePro">
										<parameterid>center</parameterid>
										<name>Center</name>
										<value>
											<horiz>-0.100752</horiz>
											<vert>-0.721925</vert>
										</value>
									</parameter>
									<parameter authoringApp="PremierePro">
										<parameterid>centerOffset</parameterid>
										<name>Anchor Point</name>
										<value>
											<horiz>0</horiz>
											<vert>0</vert>
										</value>
									</parameter>
								</effect>
							</filter>
						<logginginfo>
							<description></description>
							<scene></scene>
							<shottake></shottake>
							<lognote></lognote>
						</logginginfo>
						<labels>
							<label2>Rose</label2>
						</labels>
					</clipitem>
					<clipitem id="clipitem-324">
						<masterclipid>masterclip-43</masterclipid>
						<name>tidsbonanzaSuper_Thomas/tidsbonanza_super TV2.aep</name>
						<enabled>TRUE</enabled>
						<duration>161</duration>
						<rate>
							<timebase>25</timebase>
							<ntsc>FALSE</ntsc>
						</rate>
						<start>37294</start>
						<end>37371</end>
						<in>62</in>
						<out>139</out>
						<pproTicksIn>629959680000</pproTicksIn>
						<pproTicksOut>1412328960000</pproTicksOut>
						<alphatype>straight</alphatype>
						<file id="file-39"/>
							<filter>
								<effect>
									<name>Basic Motion</name>
									<effectid>basic</effectid>
									<effectcategory>motion</effectcategory>
									<effecttype>motion</effecttype>
									<mediatype>video</mediatype>
									<parameter authoringApp="PremierePro">
										<parameterid>scale</parameterid>
										<name>Scale</name>
										<valuemin>0</valuemin>
										<valuemax>1000</valuemax>
										<value>100</value>
									</parameter>
									<parameter authoringApp="PremierePro">
										<parameterid>rotation</parameterid>
										<name>Rotation</name>
										<valuemin>-8640</valuemin>
										<valuemax>8640</valuemax>
										<value>0</value>
									</parameter>
									<parameter authoringApp="PremierePro">
										<parameterid>center</parameterid>
										<name>Center</name>
										<value>
											<horiz>-0.100752</horiz>
											<vert>-0.721925</vert>
										</value>
									</parameter>
									<parameter authoringApp="PremierePro">
										<parameterid>centerOffset</parameterid>
										<name>Anchor Point</name>
										<value>
											<horiz>0</horiz>
											<vert>0</vert>
										</value>
									</parameter>
								</effect>
							</filter>
						<logginginfo>
							<description></description>
							<scene></scene>
							<shottake></shottake>
							<lognote></lognote>
						</logginginfo>
						<labels>
							<label2>Rose</label2>
						</labels>
					</clipitem>
					<clipitem id="clipitem-325">
						<masterclipid>masterclip-44</masterclipid>
						<name>tidsbonanzaSuper_Thomas/tidsbonanza_super TV2.aep Copy 03</name>
						<enabled>TRUE</enabled>
						<duration>161</duration>
						<rate>
							<timebase>25</timebase>
							<ntsc>FALSE</ntsc>
						</rate>
						<start>37371</start>
						<end>37445</end>
						<in>62</in>
						<out>136</out>
						<pproTicksIn>629959680000</pproTicksIn>
						<pproTicksOut>1381847040000</pproTicksOut>
						<alphatype>straight</alphatype>
						<pixelaspectratio>square</pixelaspectratio>
						<anamorphic>FALSE</anamorphic>
						<file id="file-40">
							<name>tidsbonanzaSuper_Thomas/tidsbonanza_super TV2.aep</name>
							<pathurl>file://localhost/Volumes/Brakka/AdobeLager/QUIZ%20-%20brakka/Grafikk/FERDIG/SUPER/tidsbonanza_super%20TV2.aep</pathurl>
							<rate>
								<timebase>25</timebase>
								<ntsc>FALSE</ntsc>
							</rate>
							<duration>161</duration>
							<timecode>
								<rate>
									<timebase>25</timebase>
									<ntsc>FALSE</ntsc>
								</rate>
								<string>00:00:00:00</string>
								<frame>0</frame>
								<displayformat>NDF</displayformat>
								<reel>
									<name></name>
								</reel>
							</timecode>
							<media>
								<video>
									<samplecharacteristics>
										<rate>
											<timebase>25</timebase>
											<ntsc>FALSE</ntsc>
										</rate>
										<width>1920</width>
										<height>1080</height>
										<anamorphic>FALSE</anamorphic>
										<pixelaspectratio>square</pixelaspectratio>
										<fielddominance>lower</fielddominance>
									</samplecharacteristics>
								</video>
								<audio>
									<samplecharacteristics>
										<depth>16</depth>
										<samplerate>48000</samplerate>
									</samplecharacteristics>
									<channelcount>2</channelcount>
								</audio>
							</media>
						</file>
							<filter>
								<effect>
									<name>Basic Motion</name>
									<effectid>basic</effectid>
									<effectcategory>motion</effectcategory>
									<effecttype>motion</effecttype>
									<mediatype>video</mediatype>
									<parameter authoringApp="PremierePro">
										<parameterid>scale</parameterid>
										<name>Scale</name>
										<valuemin>0</valuemin>
										<valuemax>1000</valuemax>
										<value>100</value>
									</parameter>
									<parameter authoringApp="PremierePro">
										<parameterid>rotation</parameterid>
										<name>Rotation</name>
										<valuemin>-8640</valuemin>
										<valuemax>8640</valuemax>
										<value>0</value>
									</parameter>
									<parameter authoringApp="PremierePro">
										<parameterid>center</parameterid>
										<name>Center</name>
										<value>
											<horiz>-0.100752</horiz>
											<vert>-0.721925</vert>
										</value>
									</parameter>
									<parameter authoringApp="PremierePro">
										<parameterid>centerOffset</parameterid>
										<name>Anchor Point</name>
										<value>
											<horiz>0</horiz>
											<vert>0</vert>
										</value>
									</parameter>
								</effect>
							</filter>
						<logginginfo>
							<description></description>
							<scene></scene>
							<shottake></shottake>
							<lognote></lognote>
						</logginginfo>
						<labels>
							<label2>Rose</label2>
						</labels>
					</clipitem>
					<clipitem id="clipitem-326">
						<masterclipid>masterclip-45</masterclipid>
						<name>tidsbonanzaSuper_Thomas/tidsbonanza_super TV2.aep Copy 04</name>
						<enabled>TRUE</enabled>
						<duration>161</duration>
						<rate>
							<timebase>25</timebase>
							<ntsc>FALSE</ntsc>
						</rate>
						<start>37445</start>
						<end>37499</end>
						<in>62</in>
						<out>116</out>
						<pproTicksIn>629959680000</pproTicksIn>
						<pproTicksOut>1178634240000</pproTicksOut>
						<alphatype>straight</alphatype>
						<pixelaspectratio>square</pixelaspectratio>
						<anamorphic>FALSE</anamorphic>
						<file id="file-41">
							<name>tidsbonanzaSuper_Thomas/tidsbonanza_super TV2.aep</name>
							<pathurl>file://localhost/Volumes/Brakka/AdobeLager/QUIZ%20-%20brakka/Grafikk/FERDIG/SUPER/tidsbonanza_super%20TV2.aep</pathurl>
							<rate>
								<timebase>25</timebase>
								<ntsc>FALSE</ntsc>
							</rate>
							<duration>161</duration>
							<timecode>
								<rate>
									<timebase>25</timebase>
									<ntsc>FALSE</ntsc>
								</rate>
								<string>00:00:00:00</string>
								<frame>0</frame>
								<displayformat>NDF</displayformat>
								<reel>
									<name></name>
								</reel>
							</timecode>
							<media>
								<video>
									<samplecharacteristics>
										<rate>
											<timebase>25</timebase>
											<ntsc>FALSE</ntsc>
										</rate>
										<width>1920</width>
										<height>1080</height>
										<anamorphic>FALSE</anamorphic>
										<pixelaspectratio>square</pixelaspectratio>
										<fielddominance>lower</fielddominance>
									</samplecharacteristics>
								</video>
								<audio>
									<samplecharacteristics>
										<depth>16</depth>
										<samplerate>48000</samplerate>
									</samplecharacteristics>
									<channelcount>2</channelcount>
								</audio>
							</media>
						</file>
							<filter>
								<effect>
									<name>Basic Motion</name>
									<effectid>basic</effectid>
									<effectcategory>motion</effectcategory>
									<effecttype>motion</effecttype>
									<mediatype>video</mediatype>
									<parameter authoringApp="PremierePro">
										<parameterid>scale</parameterid>
										<name>Scale</name>
										<valuemin>0</valuemin>
										<valuemax>1000</valuemax>
										<value>100</value>
									</parameter>
									<parameter authoringApp="PremierePro">
										<parameterid>rotation</parameterid>
										<name>Rotation</name>
										<valuemin>-8640</valuemin>
										<valuemax>8640</valuemax>
										<value>0</value>
									</parameter>
									<parameter authoringApp="PremierePro">
										<parameterid>center</parameterid>
										<name>Center</name>
										<value>
											<horiz>-0.100752</horiz>
											<vert>-0.721925</vert>
										</value>
									</parameter>
									<parameter authoringApp="PremierePro">
										<parameterid>centerOffset</parameterid>
										<name>Anchor Point</name>
										<value>
											<horiz>0</horiz>
											<vert>0</vert>
										</value>
									</parameter>
								</effect>
							</filter>
						<logginginfo>
							<description></description>
							<scene></scene>
							<shottake></shottake>
							<lognote></lognote>
						</logginginfo>
						<labels>
							<label2>Rose</label2>
						</labels>
					</clipitem>
					<clipitem id="clipitem-327">
						<masterclipid>masterclip-46</masterclipid>
						<name>tidsbonanzaSuper_Thomas/tidsbonanza_super TV2.aep Copy 06</name>
						<enabled>TRUE</enabled>
						<duration>161</duration>
						<rate>
							<timebase>25</timebase>
							<ntsc>FALSE</ntsc>
						</rate>
						<start>37499</start>
						<end>37577</end>
						<in>62</in>
						<out>140</out>
						<pproTicksIn>629959680000</pproTicksIn>
						<pproTicksOut>1422489600000</pproTicksOut>
						<alphatype>straight</alphatype>
						<pixelaspectratio>square</pixelaspectratio>
						<anamorphic>FALSE</anamorphic>
						<file id="file-42">
							<name>tidsbonanzaSuper_Thomas/tidsbonanza_super TV2.aep</name>
							<pathurl>file://localhost/Volumes/Brakka/AdobeLager/QUIZ%20-%20brakka/Grafikk/FERDIG/SUPER/tidsbonanza_super%20TV2.aep</pathurl>
							<rate>
								<timebase>25</timebase>
								<ntsc>FALSE</ntsc>
							</rate>
							<duration>161</duration>
							<timecode>
								<rate>
									<timebase>25</timebase>
									<ntsc>FALSE</ntsc>
								</rate>
								<string>00:00:00:00</string>
								<frame>0</frame>
								<displayformat>NDF</displayformat>
								<reel>
									<name></name>
								</reel>
							</timecode>
							<media>
								<video>
									<samplecharacteristics>
										<rate>
											<timebase>25</timebase>
											<ntsc>FALSE</ntsc>
										</rate>
										<width>1920</width>
										<height>1080</height>
										<anamorphic>FALSE</anamorphic>
										<pixelaspectratio>square</pixelaspectratio>
										<fielddominance>lower</fielddominance>
									</samplecharacteristics>
								</video>
								<audio>
									<samplecharacteristics>
										<depth>16</depth>
										<samplerate>48000</samplerate>
									</samplecharacteristics>
									<channelcount>2</channelcount>
								</audio>
							</media>
						</file>
							<filter>
								<effect>
									<name>Basic Motion</name>
									<effectid>basic</effectid>
									<effectcategory>motion</effectcategory>
									<effecttype>motion</effecttype>
									<mediatype>video</mediatype>
									<parameter authoringApp="PremierePro">
										<parameterid>scale</parameterid>
										<name>Scale</name>
										<valuemin>0</valuemin>
										<valuemax>1000</valuemax>
										<value>100</value>
									</parameter>
									<parameter authoringApp="PremierePro">
										<parameterid>rotation</parameterid>
										<name>Rotation</name>
										<valuemin>-8640</valuemin>
										<valuemax>8640</valuemax>
										<value>0</value>
									</parameter>
									<parameter authoringApp="PremierePro">
										<parameterid>center</parameterid>
										<name>Center</name>
										<value>
											<horiz>-0.100752</horiz>
											<vert>-0.721925</vert>
										</value>
									</parameter>
									<parameter authoringApp="PremierePro">
										<parameterid>centerOffset</parameterid>
										<name>Anchor Point</name>
										<value>
											<horiz>0</horiz>
											<vert>0</vert>
										</value>
									</parameter>
								</effect>
							</filter>
						<logginginfo>
							<description></description>
							<scene></scene>
							<shottake></shottake>
							<lognote></lognote>
						</logginginfo>
						<labels>
							<label2>Rose</label2>
						</labels>
					</clipitem>
					<clipitem id="clipitem-328">
						<masterclipid>masterclip-47</masterclipid>
						<name>tidsbonanzaSuper_Thomas/tidsbonanza_super TV2.aep Copy 05</name>
						<enabled>TRUE</enabled>
						<duration>161</duration>
						<rate>
							<timebase>25</timebase>
							<ntsc>FALSE</ntsc>
						</rate>
						<start>37577</start>
						<end>37676</end>
						<in>62</in>
						<out>161</out>
						<pproTicksIn>629959680000</pproTicksIn>
						<pproTicksOut>1635863040000</pproTicksOut>
						<alphatype>straight</alphatype>
						<pixelaspectratio>square</pixelaspectratio>
						<anamorphic>FALSE</anamorphic>
						<file id="file-43">
							<name>tidsbonanzaSuper_Thomas/tidsbonanza_super TV2.aep</name>
							<pathurl>file://localhost/Volumes/Brakka/AdobeLager/QUIZ%20-%20brakka/Grafikk/FERDIG/SUPER/tidsbonanza_super%20TV2.aep</pathurl>
							<rate>
								<timebase>25</timebase>
								<ntsc>FALSE</ntsc>
							</rate>
							<duration>161</duration>
							<timecode>
								<rate>
									<timebase>25</timebase>
									<ntsc>FALSE</ntsc>
								</rate>
								<string>00:00:00:00</string>
								<frame>0</frame>
								<displayformat>NDF</displayformat>
								<reel>
									<name></name>
								</reel>
							</timecode>
							<media>
								<video>
									<samplecharacteristics>
										<rate>
											<timebase>25</timebase>
											<ntsc>FALSE</ntsc>
										</rate>
										<width>1920</width>
										<height>1080</height>
										<anamorphic>FALSE</anamorphic>
										<pixelaspectratio>square</pixelaspectratio>
										<fielddominance>lower</fielddominance>
									</samplecharacteristics>
								</video>
								<audio>
									<samplecharacteristics>
										<depth>16</depth>
										<samplerate>48000</samplerate>
									</samplecharacteristics>
									<channelcount>2</channelcount>
								</audio>
							</media>
						</file>
							<filter>
								<effect>
									<name>Basic Motion</name>
									<effectid>basic</effectid>
									<effectcategory>motion</effectcategory>
									<effecttype>motion</effecttype>
									<mediatype>video</mediatype>
									<parameter authoringApp="PremierePro">
										<parameterid>scale</parameterid>
										<name>Scale</name>
										<valuemin>0</valuemin>
										<valuemax>1000</valuemax>
										<value>100</value>
									</parameter>
									<parameter authoringApp="PremierePro">
										<parameterid>rotation</parameterid>
										<name>Rotation</name>
										<valuemin>-8640</valuemin>
										<valuemax>8640</valuemax>
										<value>0</value>
									</parameter>
									<parameter authoringApp="PremierePro">
										<parameterid>center</parameterid>
										<name>Center</name>
										<value>
											<horiz>-0.100752</horiz>
											<vert>-0.721925</vert>
										</value>
									</parameter>
									<parameter authoringApp="PremierePro">
										<parameterid>centerOffset</parameterid>
										<name>Anchor Point</name>
										<value>
											<horiz>0</horiz>
											<vert>0</vert>
										</value>
									</parameter>
								</effect>
							</filter>
						<logginginfo>
							<description></description>
							<scene></scene>
							<shottake></shottake>
							<lognote></lognote>
						</logginginfo>
						<labels>
							<label2>Rose</label2>
						</labels>
					</clipitem>
					<clipitem id="clipitem-329">
						<masterclipid>masterclip-6</masterclipid>
						<name>NSPO30604105AA.mxf</name>
						<enabled>TRUE</enabled>
						<duration>89255</duration>
						<rate>
							<timebase>25</timebase>
							<ntsc>FALSE</ntsc>
						</rate>
						<start>47721</start>
						<end>48041</end>
						<in>36789</in>
						<out>37109</out>
						<pproTicksIn>373799784960000</pproTicksIn>
						<pproTicksOut>377051189760000</pproTicksOut>
						<alphatype>none</alphatype>
						<file id="file-5"/>
							<filter>
								<effect>
									<name>Basic Motion</name>
									<effectid>basic</effectid>
									<effectcategory>motion</effectcategory>
									<effecttype>motion</effecttype>
									<mediatype>video</mediatype>
									<parameter authoringApp="PremierePro">
										<parameterid>scale</parameterid>
										<name>Scale</name>
										<valuemin>0</valuemin>
										<valuemax>1000</valuemax>
										<value>129.942</value>
									</parameter>
									<parameter authoringApp="PremierePro">
										<parameterid>rotation</parameterid>
										<name>Rotation</name>
										<valuemin>-8640</valuemin>
										<valuemax>8640</valuemax>
										<value>0</value>
									</parameter>
									<parameter authoringApp="PremierePro">
										<parameterid>center</parameterid>
										<name>Center</name>
										<value>
											<horiz>0</horiz>
											<vert>0.095254</vert>
										</value>
									</parameter>
									<parameter authoringApp="PremierePro">
										<parameterid>centerOffset</parameterid>
										<name>Anchor Point</name>
										<value>
											<horiz>0</horiz>
											<vert>0</vert>
										</value>
									</parameter>
								</effect>
							</filter>
							<filter>
								<effect>
									<name>Distort</name>
									<effectid>deformation</effectid>
									<effectcategory>motion</effectcategory>
									<effecttype>motion</effecttype>
									<mediatype>video</mediatype>
									<parameter authoringApp="PremierePro">
										<parameterid>aspect</parameterid>
										<name>Aspect</name>
										<valuemin>-10000</valuemin>
										<valuemax>10000</valuemax>
										<value>-9.40171</value>
									</parameter>
								</effect>
							</filter>
						<logginginfo>
							<description></description>
							<scene></scene>
							<shottake></shottake>
							<lognote></lognote>
						</logginginfo>
						<labels>
							<label2>Iris</label2>
						</labels>
					</clipitem>
					<clipitem id="clipitem-330">
						<masterclipid>masterclip-6</masterclipid>
						<name>NSPO30604105AA.mxf</name>
						<enabled>TRUE</enabled>
						<duration>89255</duration>
						<rate>
							<timebase>25</timebase>
							<ntsc>FALSE</ntsc>
						</rate>
						<start>48814</start>
						<end>48929</end>
						<in>36442</in>
						<out>36557</out>
						<pproTicksIn>370274042880000</pproTicksIn>
						<pproTicksOut>371442516480000</pproTicksOut>
						<alphatype>none</alphatype>
						<file id="file-5"/>
							<filter>
								<effect>
									<name>Basic Motion</name>
									<effectid>basic</effectid>
									<effectcategory>motion</effectcategory>
									<effecttype>motion</effecttype>
									<mediatype>video</mediatype>
									<parameter authoringApp="PremierePro">
										<parameterid>scale</parameterid>
										<name>Scale</name>
										<valuemin>0</valuemin>
										<valuemax>1000</valuemax>
										<value>133.363</value>
									</parameter>
									<parameter authoringApp="PremierePro">
										<parameterid>rotation</parameterid>
										<name>Rotation</name>
										<valuemin>-8640</valuemin>
										<valuemax>8640</valuemax>
										<value>0</value>
									</parameter>
									<parameter authoringApp="PremierePro">
										<parameterid>center</parameterid>
										<name>Center</name>
										<value>
											<horiz>-0.0280702</horiz>
											<vert>0.0802139</vert>
										</value>
									</parameter>
									<parameter authoringApp="PremierePro">
										<parameterid>centerOffset</parameterid>
										<name>Anchor Point</name>
										<value>
											<horiz>0</horiz>
											<vert>0</vert>
										</value>
									</parameter>
								</effect>
							</filter>
							<filter>
								<effect>
									<name>Distort</name>
									<effectid>deformation</effectid>
									<effectcategory>motion</effectcategory>
									<effecttype>motion</effecttype>
									<mediatype>video</mediatype>
									<parameter authoringApp="PremierePro">
										<parameterid>aspect</parameterid>
										<name>Aspect</name>
										<valuemin>-10000</valuemin>
										<valuemax>10000</valuemax>
										<value>-9.40171</value>
									</parameter>
								</effect>
							</filter>
						<logginginfo>
							<description></description>
							<scene></scene>
							<shottake></shottake>
							<lognote></lognote>
						</logginginfo>
						<labels>
							<label2>Iris</label2>
						</labels>
					</clipitem>
					<clipitem id="clipitem-331">
						<masterclipid>masterclip-6</masterclipid>
						<name>NSPO30604105AA.mxf</name>
						<enabled>TRUE</enabled>
						<duration>89255</duration>
						<rate>
							<timebase>25</timebase>
							<ntsc>FALSE</ntsc>
						</rate>
						<start>48980</start>
						<end>49078</end>
						<in>37483</in>
						<out>37581</out>
						<pproTicksIn>380851269120000</pproTicksIn>
						<pproTicksOut>381847011840000</pproTicksOut>
						<alphatype>none</alphatype>
						<file id="file-5"/>
							<filter>
								<effect>
									<name>Basic Motion</name>
									<effectid>basic</effectid>
									<effectcategory>motion</effectcategory>
									<effecttype>motion</effecttype>
									<mediatype>video</mediatype>
									<parameter authoringApp="PremierePro">
										<parameterid>scale</parameterid>
										<name>Scale</name>
										<valuemin>0</valuemin>
										<valuemax>1000</valuemax>
										<value>129.942</value>
									</parameter>
									<parameter authoringApp="PremierePro">
										<parameterid>rotation</parameterid>
										<name>Rotation</name>
										<valuemin>-8640</valuemin>
										<valuemax>8640</valuemax>
										<value>0</value>
									</parameter>
									<parameter authoringApp="PremierePro">
										<parameterid>center</parameterid>
										<name>Center</name>
										<value>
											<horiz>0</horiz>
											<vert>0.0701872</vert>
										</value>
									</parameter>
									<parameter authoringApp="PremierePro">
										<parameterid>centerOffset</parameterid>
										<name>Anchor Point</name>
										<value>
											<horiz>0</horiz>
											<vert>0</vert>
										</value>
									</parameter>
								</effect>
							</filter>
							<filter>
								<effect>
									<name>Distort</name>
									<effectid>deformation</effectid>
									<effectcategory>motion</effectcategory>
									<effecttype>motion</effecttype>
									<mediatype>video</mediatype>
									<parameter authoringApp="PremierePro">
										<parameterid>aspect</parameterid>
										<name>Aspect</name>
										<valuemin>-10000</valuemin>
										<valuemax>10000</valuemax>
										<value>-9.40171</value>
									</parameter>
								</effect>
							</filter>
						<logginginfo>
							<description></description>
							<scene></scene>
							<shottake></shottake>
							<lognote></lognote>
						</logginginfo>
						<labels>
							<label2>Iris</label2>
						</labels>
					</clipitem>
					<clipitem id="clipitem-332">
						<masterclipid>masterclip-6</masterclipid>
						<name>NSPO30604105AA.mxf</name>
						<enabled>TRUE</enabled>
						<duration>89255</duration>
						<rate>
							<timebase>25</timebase>
							<ntsc>FALSE</ntsc>
						</rate>
						<start>49078</start>
						<end>49369</end>
						<in>37704</in>
						<out>37995</out>
						<pproTicksIn>383096770560000</pproTicksIn>
						<pproTicksOut>386053516800000</pproTicksOut>
						<alphatype>none</alphatype>
						<file id="file-5"/>
							<filter>
								<effect>
									<name>Basic Motion</name>
									<effectid>basic</effectid>
									<effectcategory>motion</effectcategory>
									<effecttype>motion</effecttype>
									<mediatype>video</mediatype>
									<parameter authoringApp="PremierePro">
										<parameterid>scale</parameterid>
										<name>Scale</name>
										<valuemin>0</valuemin>
										<valuemax>1000</valuemax>
										<value>132.936</value>
									</parameter>
									<parameter authoringApp="PremierePro">
										<parameterid>rotation</parameterid>
										<name>Rotation</name>
										<valuemin>-8640</valuemin>
										<valuemax>8640</valuemax>
										<value>0</value>
									</parameter>
									<parameter authoringApp="PremierePro">
										<parameterid>center</parameterid>
										<name>Center</name>
										<value>
											<horiz>0.00401003</horiz>
											<vert>-0.140374</vert>
										</value>
									</parameter>
									<parameter authoringApp="PremierePro">
										<parameterid>centerOffset</parameterid>
										<name>Anchor Point</name>
										<value>
											<horiz>0</horiz>
											<vert>0</vert>
										</value>
									</parameter>
								</effect>
							</filter>
							<filter>
								<effect>
									<name>Distort</name>
									<effectid>deformation</effectid>
									<effectcategory>motion</effectcategory>
									<effecttype>motion</effecttype>
									<mediatype>video</mediatype>
									<parameter authoringApp="PremierePro">
										<parameterid>aspect</parameterid>
										<name>Aspect</name>
										<valuemin>-10000</valuemin>
										<valuemax>10000</valuemax>
										<value>-9.40171</value>
									</parameter>
								</effect>
							</filter>
						<logginginfo>
							<description></description>
							<scene></scene>
							<shottake></shottake>
							<lognote></lognote>
						</logginginfo>
						<labels>
							<label2>Iris</label2>
						</labels>
					</clipitem>
					<clipitem id="clipitem-333">
						<masterclipid>masterclip-6</masterclipid>
						<name>NSPO30604105AA.mxf</name>
						<enabled>TRUE</enabled>
						<duration>89255</duration>
						<rate>
							<timebase>25</timebase>
							<ntsc>FALSE</ntsc>
						</rate>
						<start>49369</start>
						<end>49464</end>
						<in>38150</in>
						<out>38245</out>
						<pproTicksIn>387628416000000</pproTicksIn>
						<pproTicksOut>388593676800000</pproTicksOut>
						<alphatype>none</alphatype>
						<file id="file-5"/>
							<filter>
								<effect>
									<name>Basic Motion</name>
									<effectid>basic</effectid>
									<effectcategory>motion</effectcategory>
									<effecttype>motion</effecttype>
									<mediatype>video</mediatype>
									<parameter authoringApp="PremierePro">
										<parameterid>scale</parameterid>
										<name>Scale</name>
										<valuemin>0</valuemin>
										<valuemax>1000</valuemax>
										<value>129.942</value>
									</parameter>
									<parameter authoringApp="PremierePro">
										<parameterid>rotation</parameterid>
										<name>Rotation</name>
										<valuemin>-8640</valuemin>
										<valuemax>8640</valuemax>
										<value>0</value>
									</parameter>
									<parameter authoringApp="PremierePro">
										<parameterid>center</parameterid>
										<name>Center</name>
										<value>
											<horiz>0</horiz>
											<vert>0.0701872</vert>
										</value>
									</parameter>
									<parameter authoringApp="PremierePro">
										<parameterid>centerOffset</parameterid>
										<name>Anchor Point</name>
										<value>
											<horiz>0</horiz>
											<vert>0</vert>
										</value>
									</parameter>
								</effect>
							</filter>
							<filter>
								<effect>
									<name>Distort</name>
									<effectid>deformation</effectid>
									<effectcategory>motion</effectcategory>
									<effecttype>motion</effecttype>
									<mediatype>video</mediatype>
									<parameter authoringApp="PremierePro">
										<parameterid>aspect</parameterid>
										<name>Aspect</name>
										<valuemin>-10000</valuemin>
										<valuemax>10000</valuemax>
										<value>-9.40171</value>
									</parameter>
								</effect>
							</filter>
						<logginginfo>
							<description></description>
							<scene></scene>
							<shottake></shottake>
							<lognote></lognote>
						</logginginfo>
						<labels>
							<label2>Iris</label2>
						</labels>
					</clipitem>
					<clipitem id="clipitem-334">
						<masterclipid>masterclip-48</masterclipid>
						<name>tidsbonanza_bumper_hurtigrunden (1).mov</name>
						<enabled>TRUE</enabled>
						<duration>195</duration>
						<rate>
							<timebase>25</timebase>
							<ntsc>FALSE</ntsc>
						</rate>
						<start>49760</start>
						<end>49946</end>
						<in>0</in>
						<out>186</out>
						<pproTicksIn>0</pproTicksIn>
						<pproTicksOut>1889879040000</pproTicksOut>
						<alphatype>none</alphatype>
						<pixelaspectratio>square</pixelaspectratio>
						<anamorphic>FALSE</anamorphic>
						<file id="file-44">
							<name>tidsbonanza_bumper_hurtigrunden (1).mov</name>
							<pathurl>file://localhost/Volumes/Brakka/AdobeLager/QUIZ%20-%20brakka/Grafikk/FERDIG/JINGLE/tidsbonanza_bumper_hurtigrunden%20(1).mov</pathurl>
							<rate>
								<timebase>25</timebase>
								<ntsc>FALSE</ntsc>
							</rate>
							<duration>195</duration>
							<timecode>
								<rate>
									<timebase>25</timebase>
									<ntsc>FALSE</ntsc>
								</rate>
								<string>00:00:00:00</string>
								<frame>0</frame>
								<displayformat>NDF</displayformat>
								<reel>
									<name></name>
								</reel>
							</timecode>
							<media>
								<video>
									<samplecharacteristics>
										<rate>
											<timebase>25</timebase>
											<ntsc>FALSE</ntsc>
										</rate>
										<width>1920</width>
										<height>1080</height>
										<anamorphic>FALSE</anamorphic>
										<pixelaspectratio>square</pixelaspectratio>
										<fielddominance>none</fielddominance>
									</samplecharacteristics>
								</video>
								<audio>
									<samplecharacteristics>
										<depth>16</depth>
										<samplerate>48000</samplerate>
									</samplecharacteristics>
									<channelcount>2</channelcount>
								</audio>
							</media>
						</file>
						<logginginfo>
							<description></description>
							<scene></scene>
							<shottake></shottake>
							<lognote></lognote>
						</logginginfo>
						<labels>
							<label2>Iris</label2>
						</labels>
					</clipitem>
					<enabled>TRUE</enabled>
					<locked>FALSE</locked>
				</track>
				<track TL.SQTrackShy="0" TL.SQTrackExpandedHeight="25" TL.SQTrackExpanded="0" MZ.TrackTargeted="0">
					<clipitem id="clipitem-337">
						<masterclipid>masterclip-15</masterclipid>
						<name>digs672r.mxf</name>
						<enabled>TRUE</enabled>
						<duration>179350</duration>
						<rate>
							<timebase>25</timebase>
							<ntsc>FALSE</ntsc>
						</rate>
						<start>1430</start>
						<end>1520</end>
						<in>119004</in>
						<out>119094</out>
						<pproTicksIn>1209156802560000</pproTicksIn>
						<pproTicksOut>1210071260160000</pproTicksOut>
						<alphatype>none</alphatype>
						<file id="file-12"/>
							<filter>
								<effect>
									<name>Basic Motion</name>
									<effectid>basic</effectid>
									<effectcategory>motion</effectcategory>
									<effecttype>motion</effecttype>
									<mediatype>video</mediatype>
									<parameter authoringApp="PremierePro">
										<parameterid>scale</parameterid>
										<name>Scale</name>
										<valuemin>0</valuemin>
										<valuemax>1000</valuemax>
										<value>133</value>
									</parameter>
									<parameter authoringApp="PremierePro">
										<parameterid>rotation</parameterid>
										<name>Rotation</name>
										<valuemin>-8640</valuemin>
										<valuemax>8640</valuemax>
										<value>0</value>
									</parameter>
									<parameter authoringApp="PremierePro">
										<parameterid>center</parameterid>
										<name>Center</name>
										<value>
											<horiz>0</horiz>
											<vert>0.157986</vert>
										</value>
									</parameter>
									<parameter authoringApp="PremierePro">
										<parameterid>centerOffset</parameterid>
										<name>Anchor Point</name>
										<value>
											<horiz>0</horiz>
											<vert>0</vert>
										</value>
									</parameter>
								</effect>
							</filter>
							<filter>
								<effect>
									<name>Distort</name>
									<effectid>deformation</effectid>
									<effectcategory>motion</effectcategory>
									<effecttype>motion</effecttype>
									<mediatype>video</mediatype>
									<parameter authoringApp="PremierePro">
										<parameterid>aspect</parameterid>
										<name>Aspect</name>
										<valuemin>-10000</valuemin>
										<valuemax>10000</valuemax>
										<value>-9.40171</value>
									</parameter>
								</effect>
							</filter>
						<logginginfo>
							<description></description>
							<scene></scene>
							<shottake></shottake>
							<lognote></lognote>
						</logginginfo>
						<labels>
							<label2>Iris</label2>
						</labels>
					</clipitem>
					<clipitem id="clipitem-338">
						<masterclipid>masterclip-49</masterclipid>
						<name>fk-05-davidtoska-npn-r.mxf</name>
						<enabled>TRUE</enabled>
						<duration>465</duration>
						<rate>
							<timebase>25</timebase>
							<ntsc>FALSE</ntsc>
						</rate>
						<start>2915</start>
						<end>2969</end>
						<in>252</in>
						<out>306</out>
						<pproTicksIn>2560481280000</pproTicksIn>
						<pproTicksOut>3109155840000</pproTicksOut>
						<alphatype>none</alphatype>
						<pixelaspectratio>PAL-601</pixelaspectratio>
						<anamorphic>TRUE</anamorphic>
						<pproOriginalPAR>PAL-601</pproOriginalPAR>
						<pproOriginalIsAnamorphic>FALSE</pproOriginalIsAnamorphic>
						<file id="file-45">
							<name>fk-05-davidtoska-npn-r.mxf</name>
							<pathurl>file://localhost/Volumes/Brakka/AdobeLager/QUIZ%20-%20brakka/Arkivstoff/2005/Nyheter/fk-05-davidtoska-npn-r.mxf</pathurl>
							<rate>
								<timebase>25</timebase>
								<ntsc>FALSE</ntsc>
							</rate>
							<duration>465</duration>
							<timecode>
								<rate>
									<timebase>25</timebase>
									<ntsc>FALSE</ntsc>
								</rate>
								<string>10:01:13:15</string>
								<frame>901840</frame>
								<displayformat>NDF</displayformat>
								<reel>
									<name></name>
								</reel>
							</timecode>
							<media>
								<video>
									<samplecharacteristics>
										<rate>
											<timebase>25</timebase>
											<ntsc>FALSE</ntsc>
										</rate>
										<width>720</width>
										<height>576</height>
										<anamorphic>TRUE</anamorphic>
										<pixelaspectratio>PAL-601</pixelaspectratio>
										<pproOriginalIsAnamorphic>FALSE</pproOriginalIsAnamorphic>
										<pproOriginalPAR>PAL-601</pproOriginalPAR>
										<fielddominance>upper</fielddominance>
									</samplecharacteristics>
								</video>
								<audio>
									<samplecharacteristics>
										<depth>16</depth>
										<samplerate>48000</samplerate>
									</samplecharacteristics>
									<channelcount>2</channelcount>
								</audio>
							</media>
						</file>
							<filter>
								<effect>
									<name>Basic Motion</name>
									<effectid>basic</effectid>
									<effectcategory>motion</effectcategory>
									<effecttype>motion</effecttype>
									<mediatype>video</mediatype>
									<parameter authoringApp="PremierePro">
										<parameterid>scale</parameterid>
										<name>Scale</name>
										<valuemin>0</valuemin>
										<valuemax>1000</valuemax>
										<value>103</value>
									</parameter>
									<parameter authoringApp="PremierePro">
										<parameterid>rotation</parameterid>
										<name>Rotation</name>
										<valuemin>-8640</valuemin>
										<valuemax>8640</valuemax>
										<value>0</value>
									</parameter>
									<parameter authoringApp="PremierePro">
										<parameterid>center</parameterid>
										<name>Center</name>
										<value>
											<horiz>0.0160401</horiz>
											<vert>-0.0350936</vert>
										</value>
									</parameter>
									<parameter authoringApp="PremierePro">
										<parameterid>centerOffset</parameterid>
										<name>Anchor Point</name>
										<value>
											<horiz>0</horiz>
											<vert>0</vert>
										</value>
									</parameter>
								</effect>
							</filter>
							<filter>
								<effect>
									<name>Distort</name>
									<effectid>deformation</effectid>
									<effectcategory>motion</effectcategory>
									<effecttype>motion</effecttype>
									<mediatype>video</mediatype>
									<parameter authoringApp="PremierePro">
										<parameterid>aspect</parameterid>
										<name>Aspect</name>
										<valuemin>-10000</valuemin>
										<valuemax>10000</valuemax>
										<value>-45.8689</value>
									</parameter>
								</effect>
							</filter>
						<logginginfo>
							<description></description>
							<scene></scene>
							<shottake></shottake>
							<lognote></lognote>
						</logginginfo>
						<labels>
							<label2>Iris</label2>
						</labels>
					</clipitem>
					<clipitem id="clipitem-339">
						<masterclipid>masterclip-25</masterclipid>
						<name>DIGS694-150805-DR.mxf</name>
						<enabled>TRUE</enabled>
						<duration>2400</duration>
						<rate>
							<timebase>25</timebase>
							<ntsc>FALSE</ntsc>
						</rate>
						<start>4117</start>
						<end>4158</end>
						<in>362</in>
						<out>403</out>
						<pproTicksIn>3678151680000</pproTicksIn>
						<pproTicksOut>4094737920000</pproTicksOut>
						<alphatype>none</alphatype>
						<file id="file-21"/>
							<filter>
								<effect>
									<name>Basic Motion</name>
									<effectid>basic</effectid>
									<effectcategory>motion</effectcategory>
									<effecttype>motion</effecttype>
									<mediatype>video</mediatype>
									<parameter authoringApp="PremierePro">
										<parameterid>scale</parameterid>
										<name>Scale</name>
										<valuemin>0</valuemin>
										<valuemax>1000</valuemax>
										<value>133</value>
									</parameter>
									<parameter authoringApp="PremierePro">
										<parameterid>rotation</parameterid>
										<name>Rotation</name>
										<valuemin>-8640</valuemin>
										<valuemax>8640</valuemax>
										<value>0</value>
									</parameter>
									<parameter authoringApp="PremierePro">
										<parameterid>center</parameterid>
										<name>Center</name>
										<value>
											<horiz>0</horiz>
											<vert>0</vert>
										</value>
									</parameter>
									<parameter authoringApp="PremierePro">
										<parameterid>centerOffset</parameterid>
										<name>Anchor Point</name>
										<value>
											<horiz>0</horiz>
											<vert>0</vert>
										</value>
									</parameter>
								</effect>
							</filter>
							<filter>
								<effect>
									<name>Distort</name>
									<effectid>deformation</effectid>
									<effectcategory>motion</effectcategory>
									<effecttype>motion</effecttype>
									<mediatype>video</mediatype>
									<parameter authoringApp="PremierePro">
										<parameterid>aspect</parameterid>
										<name>Aspect</name>
										<valuemin>-10000</valuemin>
										<valuemax>10000</valuemax>
										<value>-9.40171</value>
									</parameter>
								</effect>
							</filter>
						<logginginfo>
							<description></description>
							<scene></scene>
							<shottake></shottake>
							<lognote></lognote>
						</logginginfo>
						<labels>
							<label2>Iris</label2>
						</labels>
					</clipitem>
					<clipitem id="clipitem-340">
						<masterclipid>masterclip-25</masterclipid>
						<name>DIGS694-150805-DR.mxf</name>
						<enabled>TRUE</enabled>
						<duration>2400</duration>
						<rate>
							<timebase>25</timebase>
							<ntsc>FALSE</ntsc>
						</rate>
						<start>4158</start>
						<end>4206</end>
						<in>300</in>
						<out>348</out>
						<pproTicksIn>3048192000000</pproTicksIn>
						<pproTicksOut>3535902720000</pproTicksOut>
						<alphatype>none</alphatype>
						<file id="file-21"/>
							<filter>
								<effect>
									<name>Basic Motion</name>
									<effectid>basic</effectid>
									<effectcategory>motion</effectcategory>
									<effecttype>motion</effecttype>
									<mediatype>video</mediatype>
									<parameter authoringApp="PremierePro">
										<parameterid>scale</parameterid>
										<name>Scale</name>
										<valuemin>0</valuemin>
										<valuemax>1000</valuemax>
										<value>133</value>
									</parameter>
									<parameter authoringApp="PremierePro">
										<parameterid>rotation</parameterid>
										<name>Rotation</name>
										<valuemin>-8640</valuemin>
										<valuemax>8640</valuemax>
										<value>0</value>
									</parameter>
									<parameter authoringApp="PremierePro">
										<parameterid>center</parameterid>
										<name>Center</name>
										<value>
											<horiz>0</horiz>
											<vert>0</vert>
										</value>
									</parameter>
									<parameter authoringApp="PremierePro">
										<parameterid>centerOffset</parameterid>
										<name>Anchor Point</name>
										<value>
											<horiz>0</horiz>
											<vert>0</vert>
										</value>
									</parameter>
								</effect>
							</filter>
							<filter>
								<effect>
									<name>Distort</name>
									<effectid>deformation</effectid>
									<effectcategory>motion</effectcategory>
									<effecttype>motion</effecttype>
									<mediatype>video</mediatype>
									<parameter authoringApp="PremierePro">
										<parameterid>aspect</parameterid>
										<name>Aspect</name>
										<valuemin>-10000</valuemin>
										<valuemax>10000</valuemax>
										<value>-9.40171</value>
									</parameter>
								</effect>
							</filter>
						<logginginfo>
							<description></description>
							<scene></scene>
							<shottake></shottake>
							<lognote></lognote>
						</logginginfo>
						<labels>
							<label2>Iris</label2>
						</labels>
					</clipitem>
					<clipitem id="clipitem-341">
						<masterclipid>masterclip-25</masterclipid>
						<name>DIGS694-150805-DR.mxf</name>
						<enabled>TRUE</enabled>
						<duration>2400</duration>
						<rate>
							<timebase>25</timebase>
							<ntsc>FALSE</ntsc>
						</rate>
						<start>4227</start>
						<end>4389</end>
						<in>424</in>
						<out>586</out>
						<pproTicksIn>4308111360000</pproTicksIn>
						<pproTicksOut>5954135040000</pproTicksOut>
						<alphatype>none</alphatype>
						<file id="file-21"/>
							<filter>
								<effect>
									<name>Basic Motion</name>
									<effectid>basic</effectid>
									<effectcategory>motion</effectcategory>
									<effecttype>motion</effecttype>
									<mediatype>video</mediatype>
									<parameter authoringApp="PremierePro">
										<parameterid>scale</parameterid>
										<name>Scale</name>
										<valuemin>0</valuemin>
										<valuemax>1000</valuemax>
										<value>133</value>
									</parameter>
									<parameter authoringApp="PremierePro">
										<parameterid>rotation</parameterid>
										<name>Rotation</name>
										<valuemin>-8640</valuemin>
										<valuemax>8640</valuemax>
										<value>0</value>
									</parameter>
									<parameter authoringApp="PremierePro">
										<parameterid>center</parameterid>
										<name>Center</name>
										<value>
											<horiz>0</horiz>
											<vert>0</vert>
										</value>
									</parameter>
									<parameter authoringApp="PremierePro">
										<parameterid>centerOffset</parameterid>
										<name>Anchor Point</name>
										<value>
											<horiz>0</horiz>
											<vert>0</vert>
										</value>
									</parameter>
								</effect>
							</filter>
							<filter>
								<effect>
									<name>Distort</name>
									<effectid>deformation</effectid>
									<effectcategory>motion</effectcategory>
									<effecttype>motion</effecttype>
									<mediatype>video</mediatype>
									<parameter authoringApp="PremierePro">
										<parameterid>aspect</parameterid>
										<name>Aspect</name>
										<valuemin>-10000</valuemin>
										<valuemax>10000</valuemax>
										<value>-9.40171</value>
									</parameter>
								</effect>
							</filter>
						<logginginfo>
							<description></description>
							<scene></scene>
							<shottake></shottake>
							<lognote></lognote>
						</logginginfo>
						<labels>
							<label2>Iris</label2>
						</labels>
					</clipitem>
					<clipitem id="clipitem-342">
						<masterclipid>masterclip-25</masterclipid>
						<name>DIGS694-150805-DR.mxf</name>
						<enabled>TRUE</enabled>
						<duration>2400</duration>
						<rate>
							<timebase>25</timebase>
							<ntsc>FALSE</ntsc>
						</rate>
						<start>4389</start>
						<end>4441</end>
						<in>350</in>
						<out>402</out>
						<pproTicksIn>3556224000000</pproTicksIn>
						<pproTicksOut>4084577280000</pproTicksOut>
						<alphatype>none</alphatype>
						<file id="file-21"/>
							<filter>
								<effect>
									<name>Basic Motion</name>
									<effectid>basic</effectid>
									<effectcategory>motion</effectcategory>
									<effecttype>motion</effecttype>
									<mediatype>video</mediatype>
									<parameter authoringApp="PremierePro">
										<parameterid>scale</parameterid>
										<name>Scale</name>
										<valuemin>0</valuemin>
										<valuemax>1000</valuemax>
										<value>133</value>
									</parameter>
									<parameter authoringApp="PremierePro">
										<parameterid>rotation</parameterid>
										<name>Rotation</name>
										<valuemin>-8640</valuemin>
										<valuemax>8640</valuemax>
										<value>0</value>
									</parameter>
									<parameter authoringApp="PremierePro">
										<parameterid>center</parameterid>
										<name>Center</name>
										<value>
											<horiz>0</horiz>
											<vert>0</vert>
										</value>
									</parameter>
									<parameter authoringApp="PremierePro">
										<parameterid>centerOffset</parameterid>
										<name>Anchor Point</name>
										<value>
											<horiz>0</horiz>
											<vert>0</vert>
										</value>
									</parameter>
								</effect>
							</filter>
							<filter>
								<effect>
									<name>Distort</name>
									<effectid>deformation</effectid>
									<effectcategory>motion</effectcategory>
									<effecttype>motion</effecttype>
									<mediatype>video</mediatype>
									<parameter authoringApp="PremierePro">
										<parameterid>aspect</parameterid>
										<name>Aspect</name>
										<valuemin>-10000</valuemin>
										<valuemax>10000</valuemax>
										<value>-9.40171</value>
									</parameter>
								</effect>
							</filter>
						<logginginfo>
							<description></description>
							<scene></scene>
							<shottake></shottake>
							<lognote></lognote>
						</logginginfo>
						<labels>
							<label2>Iris</label2>
						</labels>
					</clipitem>
					<clipitem id="clipitem-343">
						<masterclipid>masterclip-25</masterclipid>
						<name>DIGS694-150805-DR.mxf</name>
						<enabled>TRUE</enabled>
						<duration>2400</duration>
						<rate>
							<timebase>25</timebase>
							<ntsc>FALSE</ntsc>
						</rate>
						<start>4573</start>
						<end>4715</end>
						<in>1755</in>
						<out>1897</out>
						<pproTicksIn>17831923200000</pproTicksIn>
						<pproTicksOut>19274734080000</pproTicksOut>
						<alphatype>none</alphatype>
						<file id="file-21"/>
							<filter>
								<effect>
									<name>Basic Motion</name>
									<effectid>basic</effectid>
									<effectcategory>motion</effectcategory>
									<effecttype>motion</effecttype>
									<mediatype>video</mediatype>
									<parameter authoringApp="PremierePro">
										<parameterid>scale</parameterid>
										<name>Scale</name>
										<valuemin>0</valuemin>
										<valuemax>1000</valuemax>
										<value>133</value>
									</parameter>
									<parameter authoringApp="PremierePro">
										<parameterid>rotation</parameterid>
										<name>Rotation</name>
										<valuemin>-8640</valuemin>
										<valuemax>8640</valuemax>
										<value>0</value>
									</parameter>
									<parameter authoringApp="PremierePro">
										<parameterid>center</parameterid>
										<name>Center</name>
										<value>
											<horiz>0</horiz>
											<vert>0.161458</vert>
										</value>
									</parameter>
									<parameter authoringApp="PremierePro">
										<parameterid>centerOffset</parameterid>
										<name>Anchor Point</name>
										<value>
											<horiz>0</horiz>
											<vert>0</vert>
										</value>
									</parameter>
								</effect>
							</filter>
							<filter>
								<effect>
									<name>Distort</name>
									<effectid>deformation</effectid>
									<effectcategory>motion</effectcategory>
									<effecttype>motion</effecttype>
									<mediatype>video</mediatype>
									<parameter authoringApp="PremierePro">
										<parameterid>aspect</parameterid>
										<name>Aspect</name>
										<valuemin>-10000</valuemin>
										<valuemax>10000</valuemax>
										<value>-9.40171</value>
									</parameter>
								</effect>
							</filter>
						<logginginfo>
							<description></description>
							<scene></scene>
							<shottake></shottake>
							<lognote></lognote>
						</logginginfo>
						<labels>
							<label2>Iris</label2>
						</labels>
					</clipitem>
					<clipitem id="clipitem-345">
						<masterclipid>masterclip-6</masterclipid>
						<name>NSPO30604105AA.mxf</name>
						<enabled>TRUE</enabled>
						<duration>89255</duration>
						<rate>
							<timebase>25</timebase>
							<ntsc>FALSE</ntsc>
						</rate>
						<start>48814</start>
						<end>49143</end>
						<in>37109</in>
						<out>37438</out>
						<pproTicksIn>377051189760000</pproTicksIn>
						<pproTicksOut>380394040320000</pproTicksOut>
						<alphatype>none</alphatype>
						<file id="file-5"/>
							<filter>
								<effect>
									<name>Basic Motion</name>
									<effectid>basic</effectid>
									<effectcategory>motion</effectcategory>
									<effecttype>motion</effecttype>
									<mediatype>video</mediatype>
									<parameter authoringApp="PremierePro">
										<parameterid>scale</parameterid>
										<name>Scale</name>
										<valuemin>0</valuemin>
										<valuemax>1000</valuemax>
										<value>133.363</value>
									</parameter>
									<parameter authoringApp="PremierePro">
										<parameterid>rotation</parameterid>
										<name>Rotation</name>
										<valuemin>-8640</valuemin>
										<valuemax>8640</valuemax>
										<value>0</value>
									</parameter>
									<parameter authoringApp="PremierePro">
										<parameterid>center</parameterid>
										<name>Center</name>
										<value>
											<horiz>-0.0280702</horiz>
											<vert>0.0802139</vert>
										</value>
									</parameter>
									<parameter authoringApp="PremierePro">
										<parameterid>centerOffset</parameterid>
										<name>Anchor Point</name>
										<value>
											<horiz>0</horiz>
											<vert>0</vert>
										</value>
									</parameter>
								</effect>
							</filter>
							<filter>
								<effect>
									<name>Distort</name>
									<effectid>deformation</effectid>
									<effectcategory>motion</effectcategory>
									<effecttype>motion</effecttype>
									<mediatype>video</mediatype>
									<parameter authoringApp="PremierePro">
										<parameterid>aspect</parameterid>
										<name>Aspect</name>
										<valuemin>-10000</valuemin>
										<valuemax>10000</valuemax>
										<value>-9.40171</value>
									</parameter>
								</effect>
							</filter>
						<logginginfo>
							<description></description>
							<scene></scene>
							<shottake></shottake>
							<lognote></lognote>
						</logginginfo>
						<labels>
							<label2>Iris</label2>
						</labels>
					</clipitem>
					<enabled>TRUE</enabled>
					<locked>FALSE</locked>
				</track>
				<track TL.SQTrackShy="0" TL.SQTrackExpandedHeight="25" TL.SQTrackExpanded="0" MZ.TrackTargeted="0">
					<clipitem id="clipitem-347">
						<masterclipid>masterclip-50</masterclipid>
						<name>tidsbonanza_vignett.mov</name>
						<enabled>TRUE</enabled>
						<duration>351</duration>
						<rate>
							<timebase>25</timebase>
							<ntsc>FALSE</ntsc>
						</rate>
						<start>27</start>
						<end>340</end>
						<in>2</in>
						<out>315</out>
						<pproTicksIn>20321280000</pproTicksIn>
						<pproTicksOut>3200601600000</pproTicksOut>
						<alphatype>none</alphatype>
						<pixelaspectratio>square</pixelaspectratio>
						<anamorphic>FALSE</anamorphic>
						<file id="file-46">
							<name>tidsbonanza_vignett.mov</name>
							<pathurl>file://localhost/Volumes/Brakka/AdobeLager/QUIZ%20-%20brakka/Grafikk/FERDIG/VIGNETT/tidsbonanza_vignett.mov</pathurl>
							<rate>
								<timebase>25</timebase>
								<ntsc>FALSE</ntsc>
							</rate>
							<duration>351</duration>
							<timecode>
								<rate>
									<timebase>25</timebase>
									<ntsc>FALSE</ntsc>
								</rate>
								<string>00:00:00:00</string>
								<frame>0</frame>
								<displayformat>NDF</displayformat>
								<reel>
									<name></name>
								</reel>
							</timecode>
							<media>
								<video>
									<samplecharacteristics>
										<rate>
											<timebase>25</timebase>
											<ntsc>FALSE</ntsc>
										</rate>
										<width>1920</width>
										<height>1080</height>
										<anamorphic>FALSE</anamorphic>
										<pixelaspectratio>square</pixelaspectratio>
										<fielddominance>none</fielddominance>
									</samplecharacteristics>
								</video>
								<audio>
									<samplecharacteristics>
										<depth>16</depth>
										<samplerate>48000</samplerate>
									</samplecharacteristics>
									<channelcount>2</channelcount>
								</audio>
							</media>
						</file>
						<logginginfo>
							<description></description>
							<scene></scene>
							<shottake></shottake>
							<lognote></lognote>
						</logginginfo>
						<labels>
							<label2>Iris</label2>
						</labels>
					</clipitem>
					<clipitem id="clipitem-348">
						<masterclipid>masterclip-50</masterclipid>
						<name>tidsbonanza_vignett.mov</name>
						<enabled>TRUE</enabled>
						<duration>351</duration>
						<rate>
							<timebase>25</timebase>
							<ntsc>FALSE</ntsc>
						</rate>
						<start>340</start>
						<end>-1</end>
						<in>315</in>
						<out>336</out>
						<pproTicksIn>3200601600000</pproTicksIn>
						<pproTicksOut>3413975040000</pproTicksOut>
						<alphatype>none</alphatype>
						<file id="file-46"/>
						<logginginfo>
							<description></description>
							<scene></scene>
							<shottake></shottake>
							<lognote></lognote>
						</logginginfo>
						<labels>
							<label2>Iris</label2>
						</labels>
					</clipitem>
					<transitionitem>
						<start>357</start>
						<end>361</end>
						<alignment>end-black</alignment>
						<cutPointTicks>40642560000</cutPointTicks>
						<rate>
							<timebase>25</timebase>
							<ntsc>FALSE</ntsc>
						</rate>
						<effect>
							<name>Cross Dissolve</name>
							<effectid>Cross Dissolve</effectid>
							<effectcategory>Dissolve</effectcategory>
							<effecttype>transition</effecttype>
							<mediatype>video</mediatype>
							<wipecode>0</wipecode>
							<wipeaccuracy>100</wipeaccuracy>
							<startratio>0</startratio>
							<endratio>1</endratio>
							<reverse>FALSE</reverse>
						</effect>
					</transitionitem>
					<clipitem id="clipitem-349">
						<masterclipid>masterclip-51</masterclipid>
						<name>tidsbonanza_2005.mov</name>
						<enabled>TRUE</enabled>
						<duration>146</duration>
						<rate>
							<timebase>25</timebase>
							<ntsc>FALSE</ntsc>
						</rate>
						<start>838</start>
						<end>984</end>
						<in>0</in>
						<out>146</out>
						<pproTicksIn>0</pproTicksIn>
						<pproTicksOut>1483453440000</pproTicksOut>
						<alphatype>none</alphatype>
						<pixelaspectratio>square</pixelaspectratio>
						<anamorphic>FALSE</anamorphic>
						<file id="file-47">
							<name>tidsbonanza_2005.mov</name>
							<pathurl>file://localhost/Volumes/Brakka/AdobeLager/QUIZ%20-%20brakka/Grafikk/FERDIG/A%cc%8aRSTALL/tidsbonanza_2005.mov</pathurl>
							<rate>
								<timebase>25</timebase>
								<ntsc>FALSE</ntsc>
							</rate>
							<duration>146</duration>
							<timecode>
								<rate>
									<timebase>25</timebase>
									<ntsc>FALSE</ntsc>
								</rate>
								<string>00:00:00:00</string>
								<frame>0</frame>
								<displayformat>NDF</displayformat>
								<reel>
									<name></name>
								</reel>
							</timecode>
							<media>
								<video>
									<samplecharacteristics>
										<rate>
											<timebase>25</timebase>
											<ntsc>FALSE</ntsc>
										</rate>
										<width>640</width>
										<height>360</height>
										<anamorphic>FALSE</anamorphic>
										<pixelaspectratio>square</pixelaspectratio>
										<fielddominance>none</fielddominance>
									</samplecharacteristics>
								</video>
							</media>
						</file>
							<filter>
								<effect>
									<name>Basic Motion</name>
									<effectid>basic</effectid>
									<effectcategory>motion</effectcategory>
									<effecttype>motion</effecttype>
									<mediatype>video</mediatype>
									<parameter authoringApp="PremierePro">
										<parameterid>scale</parameterid>
										<name>Scale</name>
										<valuemin>0</valuemin>
										<valuemax>1000</valuemax>
										<value>51.579</value>
									</parameter>
									<parameter authoringApp="PremierePro">
										<parameterid>rotation</parameterid>
										<name>Rotation</name>
										<valuemin>-8640</valuemin>
										<valuemax>8640</valuemax>
										<value>0</value>
									</parameter>
									<parameter authoringApp="PremierePro">
										<parameterid>center</parameterid>
										<name>Center</name>
										<value>
											<horiz>0.00451128</horiz>
											<vert>0.745989</vert>
										</value>
									</parameter>
									<parameter authoringApp="PremierePro">
										<parameterid>centerOffset</parameterid>
										<name>Anchor Point</name>
										<value>
											<horiz>0</horiz>
											<vert>0</vert>
										</value>
									</parameter>
								</effect>
							</filter>
						<logginginfo>
							<description></description>
							<scene></scene>
							<shottake></shottake>
							<lognote></lognote>
						</logginginfo>
						<labels>
							<label2>Violet</label2>
						</labels>
					</clipitem>
					<clipitem id="clipitem-350">
						<masterclipid>masterclip-25</masterclipid>
						<name>DIGS694-150805-DR.mxf</name>
						<enabled>TRUE</enabled>
						<duration>2400</duration>
						<rate>
							<timebase>25</timebase>
							<ntsc>FALSE</ntsc>
						</rate>
						<start>4206</start>
						<end>4227</end>
						<in>403</in>
						<out>424</out>
						<pproTicksIn>4094737920000</pproTicksIn>
						<pproTicksOut>4308111360000</pproTicksOut>
						<alphatype>none</alphatype>
						<file id="file-21"/>
							<filter>
								<effect>
									<name>Basic Motion</name>
									<effectid>basic</effectid>
									<effectcategory>motion</effectcategory>
									<effecttype>motion</effecttype>
									<mediatype>video</mediatype>
									<parameter authoringApp="PremierePro">
										<parameterid>scale</parameterid>
										<name>Scale</name>
										<valuemin>0</valuemin>
										<valuemax>1000</valuemax>
										<value>133</value>
									</parameter>
									<parameter authoringApp="PremierePro">
										<parameterid>rotation</parameterid>
										<name>Rotation</name>
										<valuemin>-8640</valuemin>
										<valuemax>8640</valuemax>
										<value>0</value>
									</parameter>
									<parameter authoringApp="PremierePro">
										<parameterid>center</parameterid>
										<name>Center</name>
										<value>
											<horiz>0</horiz>
											<vert>0</vert>
										</value>
									</parameter>
									<parameter authoringApp="PremierePro">
										<parameterid>centerOffset</parameterid>
										<name>Anchor Point</name>
										<value>
											<horiz>0</horiz>
											<vert>0</vert>
										</value>
									</parameter>
								</effect>
							</filter>
							<filter>
								<effect>
									<name>Distort</name>
									<effectid>deformation</effectid>
									<effectcategory>motion</effectcategory>
									<effecttype>motion</effecttype>
									<mediatype>video</mediatype>
									<parameter authoringApp="PremierePro">
										<parameterid>aspect</parameterid>
										<name>Aspect</name>
										<valuemin>-10000</valuemin>
										<valuemax>10000</valuemax>
										<value>-9.40171</value>
									</parameter>
								</effect>
							</filter>
						<logginginfo>
							<description></description>
							<scene></scene>
							<shottake></shottake>
							<lognote></lognote>
						</logginginfo>
						<labels>
							<label2>Iris</label2>
						</labels>
					</clipitem>
					<enabled>TRUE</enabled>
					<locked>FALSE</locked>
				</track>
				<track TL.SQTrackShy="0" TL.SQTrackExpandedHeight="25" TL.SQTrackExpanded="0" MZ.TrackTargeted="1">
					<enabled>TRUE</enabled>
					<locked>FALSE</locked>
				</track>
				<track TL.SQTrackShy="0" TL.SQTrackExpandedHeight="25" TL.SQTrackExpanded="0" MZ.TrackTargeted="0">
					<enabled>TRUE</enabled>
					<locked>FALSE</locked>
				</track>
				<track TL.SQTrackShy="0" TL.SQTrackExpandedHeight="25" TL.SQTrackExpanded="0" MZ.TrackTargeted="0">
					<clipitem id="clipitem-385">
						<masterclipid>masterclip-52</masterclipid>
						<name>tidsbonanza_poengTall_0-30_3sekPause.mov</name>
						<enabled>TRUE</enabled>
						<duration>2698</duration>
						<rate>
							<timebase>25</timebase>
							<ntsc>FALSE</ntsc>
						</rate>
						<start>10959</start>
						<end>11035</end>
						<in>0</in>
						<out>76</out>
						<pproTicksIn>0</pproTicksIn>
						<pproTicksOut>772208640000</pproTicksOut>
						<alphatype>none</alphatype>
						<pixelaspectratio>square</pixelaspectratio>
						<anamorphic>FALSE</anamorphic>
						<file id="file-48">
							<name>tidsbonanza_poengTall_0-30_3sekPause.mov</name>
							<pathurl>file://localhost/Volumes/Brakka/AdobeLager/QUIZ%20-%20brakka/Grafikk/FERDIG/POENG/tidsbonanza_poengTall_0-30_3sekPause.mov</pathurl>
							<rate>
								<timebase>25</timebase>
								<ntsc>FALSE</ntsc>
							</rate>
							<duration>2698</duration>
							<timecode>
								<rate>
									<timebase>25</timebase>
									<ntsc>FALSE</ntsc>
								</rate>
								<string>00:00:00:00</string>
								<frame>0</frame>
								<displayformat>NDF</displayformat>
								<reel>
									<name></name>
								</reel>
							</timecode>
							<media>
								<video>
									<samplecharacteristics>
										<rate>
											<timebase>25</timebase>
											<ntsc>FALSE</ntsc>
										</rate>
										<width>480</width>
										<height>350</height>
										<anamorphic>FALSE</anamorphic>
										<pixelaspectratio>square</pixelaspectratio>
										<fielddominance>none</fielddominance>
									</samplecharacteristics>
								</video>
							</media>
						</file>
							<filter>
								<effect>
									<name>Basic Motion</name>
									<effectid>basic</effectid>
									<effectcategory>motion</effectcategory>
									<effecttype>motion</effecttype>
									<mediatype>video</mediatype>
									<parameter authoringApp="PremierePro">
										<parameterid>scale</parameterid>
										<name>Scale</name>
										<valuemin>0</valuemin>
										<valuemax>1000</valuemax>
										<value>20</value>
									</parameter>
									<parameter authoringApp="PremierePro">
										<parameterid>rotation</parameterid>
										<name>Rotation</name>
										<valuemin>-8640</valuemin>
										<valuemax>8640</valuemax>
										<value>0</value>
									</parameter>
									<parameter authoringApp="PremierePro">
										<parameterid>center</parameterid>
										<name>Center</name>
										<value>
											<horiz>0.98818</horiz>
											<vert>-0.907563</vert>
										</value>
									</parameter>
									<parameter authoringApp="PremierePro">
										<parameterid>centerOffset</parameterid>
										<name>Anchor Point</name>
										<value>
											<horiz>0</horiz>
											<vert>0</vert>
										</value>
									</parameter>
								</effect>
							</filter>
						<logginginfo>
							<description></description>
							<scene></scene>
							<shottake></shottake>
							<lognote></lognote>
						</logginginfo>
						<labels>
							<label2>Violet</label2>
						</labels>
					</clipitem>
					<clipitem id="clipitem-386">
						<masterclipid>masterclip-52</masterclipid>
						<name>tidsbonanza_poengTall_0-30_3sekPause.mov</name>
						<enabled>TRUE</enabled>
						<duration>2698</duration>
						<rate>
							<timebase>25</timebase>
							<ntsc>FALSE</ntsc>
						</rate>
						<start>13210</start>
						<end>13268</end>
						<in>62</in>
						<out>120</out>
						<pproTicksIn>629959680000</pproTicksIn>
						<pproTicksOut>1219276800000</pproTicksOut>
						<alphatype>none</alphatype>
						<file id="file-48"/>
							<filter>
								<effect>
									<name>Basic Motion</name>
									<effectid>basic</effectid>
									<effectcategory>motion</effectcategory>
									<effecttype>motion</effecttype>
									<mediatype>video</mediatype>
									<parameter authoringApp="PremierePro">
										<parameterid>scale</parameterid>
										<name>Scale</name>
										<valuemin>0</valuemin>
										<valuemax>1000</valuemax>
										<value>20</value>
									</parameter>
									<parameter authoringApp="PremierePro">
										<parameterid>rotation</parameterid>
										<name>Rotation</name>
										<valuemin>-8640</valuemin>
										<valuemax>8640</valuemax>
										<value>0</value>
									</parameter>
									<parameter authoringApp="PremierePro">
										<parameterid>center</parameterid>
										<name>Center</name>
										<value>
											<horiz>0.98818</horiz>
											<vert>-0.907563</vert>
										</value>
									</parameter>
									<parameter authoringApp="PremierePro">
										<parameterid>centerOffset</parameterid>
										<name>Anchor Point</name>
										<value>
											<horiz>0</horiz>
											<vert>0</vert>
										</value>
									</parameter>
								</effect>
							</filter>
						<logginginfo>
							<description></description>
							<scene></scene>
							<shottake></shottake>
							<lognote></lognote>
						</logginginfo>
						<labels>
							<label2>Violet</label2>
						</labels>
					</clipitem>
					<clipitem id="clipitem-387">
						<masterclipid>masterclip-52</masterclipid>
						<name>tidsbonanza_poengTall_0-30_3sekPause.mov</name>
						<enabled>TRUE</enabled>
						<duration>2698</duration>
						<rate>
							<timebase>25</timebase>
							<ntsc>FALSE</ntsc>
						</rate>
						<start>15262</start>
						<end>15289</end>
						<in>89</in>
						<out>116</out>
						<pproTicksIn>904296960000</pproTicksIn>
						<pproTicksOut>1178634240000</pproTicksOut>
						<alphatype>none</alphatype>
						<file id="file-48"/>
							<filter>
								<effect>
									<name>Basic Motion</name>
									<effectid>basic</effectid>
									<effectcategory>motion</effectcategory>
									<effecttype>motion</effecttype>
									<mediatype>video</mediatype>
									<parameter authoringApp="PremierePro">
										<parameterid>scale</parameterid>
										<name>Scale</name>
										<valuemin>0</valuemin>
										<valuemax>1000</valuemax>
										<value>20</value>
									</parameter>
									<parameter authoringApp="PremierePro">
										<parameterid>rotation</parameterid>
										<name>Rotation</name>
										<valuemin>-8640</valuemin>
										<valuemax>8640</valuemax>
										<value>0</value>
									</parameter>
									<parameter authoringApp="PremierePro">
										<parameterid>center</parameterid>
										<name>Center</name>
										<value>
											<horiz>0.98818</horiz>
											<vert>-0.907563</vert>
										</value>
									</parameter>
									<parameter authoringApp="PremierePro">
										<parameterid>centerOffset</parameterid>
										<name>Anchor Point</name>
										<value>
											<horiz>0</horiz>
											<vert>0</vert>
										</value>
									</parameter>
								</effect>
							</filter>
						<logginginfo>
							<description></description>
							<scene></scene>
							<shottake></shottake>
							<lognote></lognote>
						</logginginfo>
						<labels>
							<label2>Violet</label2>
						</labels>
					</clipitem>
					<clipitem id="clipitem-388">
						<masterclipid>masterclip-52</masterclipid>
						<name>tidsbonanza_poengTall_0-30_3sekPause.mov</name>
						<enabled>TRUE</enabled>
						<duration>2698</duration>
						<rate>
							<timebase>25</timebase>
							<ntsc>FALSE</ntsc>
						</rate>
						<start>15289</start>
						<end>15352</end>
						<in>89</in>
						<out>152</out>
						<pproTicksIn>904296960000</pproTicksIn>
						<pproTicksOut>1544417280000</pproTicksOut>
						<alphatype>none</alphatype>
						<file id="file-48"/>
							<filter>
								<effect>
									<name>Basic Motion</name>
									<effectid>basic</effectid>
									<effectcategory>motion</effectcategory>
									<effecttype>motion</effecttype>
									<mediatype>video</mediatype>
									<parameter authoringApp="PremierePro">
										<parameterid>scale</parameterid>
										<name>Scale</name>
										<valuemin>0</valuemin>
										<valuemax>1000</valuemax>
										<value>20</value>
									</parameter>
									<parameter authoringApp="PremierePro">
										<parameterid>rotation</parameterid>
										<name>Rotation</name>
										<valuemin>-8640</valuemin>
										<valuemax>8640</valuemax>
										<value>0</value>
									</parameter>
									<parameter authoringApp="PremierePro">
										<parameterid>center</parameterid>
										<name>Center</name>
										<value>
											<horiz>0.98818</horiz>
											<vert>-0.907563</vert>
										</value>
									</parameter>
									<parameter authoringApp="PremierePro">
										<parameterid>centerOffset</parameterid>
										<name>Anchor Point</name>
										<value>
											<horiz>0</horiz>
											<vert>0</vert>
										</value>
									</parameter>
								</effect>
							</filter>
						<logginginfo>
							<description></description>
							<scene></scene>
							<shottake></shottake>
							<lognote></lognote>
						</logginginfo>
						<labels>
							<label2>Violet</label2>
						</labels>
					</clipitem>
					<clipitem id="clipitem-389">
						<masterclipid>masterclip-52</masterclipid>
						<name>tidsbonanza_poengTall_0-30_3sekPause.mov</name>
						<enabled>TRUE</enabled>
						<duration>2698</duration>
						<rate>
							<timebase>25</timebase>
							<ntsc>FALSE</ntsc>
						</rate>
						<start>16256</start>
						<end>16275</end>
						<in>154</in>
						<out>173</out>
						<pproTicksIn>1564738560000</pproTicksIn>
						<pproTicksOut>1757790720000</pproTicksOut>
						<alphatype>none</alphatype>
						<file id="file-48"/>
							<filter>
								<effect>
									<name>Basic Motion</name>
									<effectid>basic</effectid>
									<effectcategory>motion</effectcategory>
									<effecttype>motion</effecttype>
									<mediatype>video</mediatype>
									<parameter authoringApp="PremierePro">
										<parameterid>scale</parameterid>
										<name>Scale</name>
										<valuemin>0</valuemin>
										<valuemax>1000</valuemax>
										<value>20</value>
									</parameter>
									<parameter authoringApp="PremierePro">
										<parameterid>rotation</parameterid>
										<name>Rotation</name>
										<valuemin>-8640</valuemin>
										<valuemax>8640</valuemax>
										<value>0</value>
									</parameter>
									<parameter authoringApp="PremierePro">
										<parameterid>center</parameterid>
										<name>Center</name>
										<value>
											<horiz>0.98818</horiz>
											<vert>-0.907563</vert>
										</value>
									</parameter>
									<parameter authoringApp="PremierePro">
										<parameterid>centerOffset</parameterid>
										<name>Anchor Point</name>
										<value>
											<horiz>0</horiz>
											<vert>0</vert>
										</value>
									</parameter>
								</effect>
							</filter>
						<logginginfo>
							<description></description>
							<scene></scene>
							<shottake></shottake>
							<lognote></lognote>
						</logginginfo>
						<labels>
							<label2>Violet</label2>
						</labels>
					</clipitem>
					<clipitem id="clipitem-390">
						<masterclipid>masterclip-52</masterclipid>
						<name>tidsbonanza_poengTall_0-30_3sekPause.mov</name>
						<enabled>TRUE</enabled>
						<duration>2698</duration>
						<rate>
							<timebase>25</timebase>
							<ntsc>FALSE</ntsc>
						</rate>
						<start>16275</start>
						<end>16311</end>
						<in>173</in>
						<out>209</out>
						<pproTicksIn>1757790720000</pproTicksIn>
						<pproTicksOut>2123573760000</pproTicksOut>
						<alphatype>none</alphatype>
						<file id="file-48"/>
							<filter>
								<effect>
									<name>Basic Motion</name>
									<effectid>basic</effectid>
									<effectcategory>motion</effectcategory>
									<effecttype>motion</effecttype>
									<mediatype>video</mediatype>
									<parameter authoringApp="PremierePro">
										<parameterid>scale</parameterid>
										<name>Scale</name>
										<valuemin>0</valuemin>
										<valuemax>1000</valuemax>
										<value>20</value>
									</parameter>
									<parameter authoringApp="PremierePro">
										<parameterid>rotation</parameterid>
										<name>Rotation</name>
										<valuemin>-8640</valuemin>
										<valuemax>8640</valuemax>
										<value>0</value>
									</parameter>
									<parameter authoringApp="PremierePro">
										<parameterid>center</parameterid>
										<name>Center</name>
										<value>
											<horiz>0.98818</horiz>
											<vert>-0.907563</vert>
										</value>
									</parameter>
									<parameter authoringApp="PremierePro">
										<parameterid>centerOffset</parameterid>
										<name>Anchor Point</name>
										<value>
											<horiz>0</horiz>
											<vert>0</vert>
										</value>
									</parameter>
								</effect>
							</filter>
						<logginginfo>
							<description></description>
							<scene></scene>
							<shottake></shottake>
							<lognote></lognote>
						</logginginfo>
						<labels>
							<label2>Violet</label2>
						</labels>
					</clipitem>
					<clipitem id="clipitem-391">
						<masterclipid>masterclip-52</masterclipid>
						<name>tidsbonanza_poengTall_0-30_3sekPause.mov</name>
						<enabled>TRUE</enabled>
						<duration>2698</duration>
						<rate>
							<timebase>25</timebase>
							<ntsc>FALSE</ntsc>
						</rate>
						<start>16311</start>
						<end>16334</end>
						<in>173</in>
						<out>196</out>
						<pproTicksIn>1757790720000</pproTicksIn>
						<pproTicksOut>1991485440000</pproTicksOut>
						<alphatype>none</alphatype>
						<file id="file-48"/>
							<filter>
								<effect>
									<name>Basic Motion</name>
									<effectid>basic</effectid>
									<effectcategory>motion</effectcategory>
									<effecttype>motion</effecttype>
									<mediatype>video</mediatype>
									<parameter authoringApp="PremierePro">
										<parameterid>scale</parameterid>
										<name>Scale</name>
										<valuemin>0</valuemin>
										<valuemax>1000</valuemax>
										<value>20</value>
									</parameter>
									<parameter authoringApp="PremierePro">
										<parameterid>rotation</parameterid>
										<name>Rotation</name>
										<valuemin>-8640</valuemin>
										<valuemax>8640</valuemax>
										<value>0</value>
									</parameter>
									<parameter authoringApp="PremierePro">
										<parameterid>center</parameterid>
										<name>Center</name>
										<value>
											<horiz>0.98818</horiz>
											<vert>-0.907563</vert>
										</value>
									</parameter>
									<parameter authoringApp="PremierePro">
										<parameterid>centerOffset</parameterid>
										<name>Anchor Point</name>
										<value>
											<horiz>0</horiz>
											<vert>0</vert>
										</value>
									</parameter>
								</effect>
							</filter>
						<logginginfo>
							<description></description>
							<scene></scene>
							<shottake></shottake>
							<lognote></lognote>
						</logginginfo>
						<labels>
							<label2>Violet</label2>
						</labels>
					</clipitem>
					<clipitem id="clipitem-392">
						<masterclipid>masterclip-52</masterclipid>
						<name>tidsbonanza_poengTall_0-30_3sekPause.mov</name>
						<enabled>TRUE</enabled>
						<duration>2698</duration>
						<rate>
							<timebase>25</timebase>
							<ntsc>FALSE</ntsc>
						</rate>
						<start>18114</start>
						<end>18193</end>
						<in>244</in>
						<out>323</out>
						<pproTicksIn>2479196160000</pproTicksIn>
						<pproTicksOut>3281886720000</pproTicksOut>
						<alphatype>none</alphatype>
						<file id="file-48"/>
							<filter>
								<effect>
									<name>Basic Motion</name>
									<effectid>basic</effectid>
									<effectcategory>motion</effectcategory>
									<effecttype>motion</effecttype>
									<mediatype>video</mediatype>
									<parameter authoringApp="PremierePro">
										<parameterid>scale</parameterid>
										<name>Scale</name>
										<valuemin>0</valuemin>
										<valuemax>1000</valuemax>
										<value>20</value>
									</parameter>
									<parameter authoringApp="PremierePro">
										<parameterid>rotation</parameterid>
										<name>Rotation</name>
										<valuemin>-8640</valuemin>
										<valuemax>8640</valuemax>
										<value>0</value>
									</parameter>
									<parameter authoringApp="PremierePro">
										<parameterid>center</parameterid>
										<name>Center</name>
										<value>
											<horiz>0.98818</horiz>
											<vert>-0.907563</vert>
										</value>
									</parameter>
									<parameter authoringApp="PremierePro">
										<parameterid>centerOffset</parameterid>
										<name>Anchor Point</name>
										<value>
											<horiz>0</horiz>
											<vert>0</vert>
										</value>
									</parameter>
								</effect>
							</filter>
						<logginginfo>
							<description></description>
							<scene></scene>
							<shottake></shottake>
							<lognote></lognote>
						</logginginfo>
						<labels>
							<label2>Violet</label2>
						</labels>
					</clipitem>
					<clipitem id="clipitem-393">
						<masterclipid>masterclip-53</masterclipid>
						<name>Rulletekst 1998 Copy 02</name>
						<enabled>TRUE</enabled>
						<duration>1080000</duration>
						<rate>
							<timebase>25</timebase>
							<ntsc>FALSE</ntsc>
						</rate>
						<start>57538</start>
						<end>58053</end>
						<in>89691</in>
						<out>90206</out>
						<pproTicksIn>911317962240000</pproTicksIn>
						<pproTicksOut>916550691840000</pproTicksOut>
						<alphatype>straight</alphatype>
						<pixelaspectratio>square</pixelaspectratio>
						<anamorphic>FALSE</anamorphic>
						<file id="file-49">
							<name>Rulletekst 1998</name>
							<mediaSource>Slug</mediaSource>
							<rate>
								<timebase>25</timebase>
								<ntsc>FALSE</ntsc>
							</rate>
							<duration>1080000</duration>
							<timecode>
								<rate>
									<timebase>25</timebase>
									<ntsc>FALSE</ntsc>
								</rate>
								<string>00:00:00:00</string>
								<frame>0</frame>
								<displayformat>NDF</displayformat>
								<reel>
									<name></name>
								</reel>
							</timecode>
							<media>
								<video>
									<samplecharacteristics>
										<rate>
											<timebase>25</timebase>
											<ntsc>FALSE</ntsc>
										</rate>
										<width>1920</width>
										<height>1080</height>
										<anamorphic>FALSE</anamorphic>
										<pixelaspectratio>square</pixelaspectratio>
										<fielddominance>lower</fielddominance>
									</samplecharacteristics>
								</video>
							</media>
						</file>
							<filter>
								<effect>
									<name>Basic Motion</name>
									<effectid>basic</effectid>
									<effectcategory>motion</effectcategory>
									<effecttype>motion</effecttype>
									<mediatype>video</mediatype>
									<parameter authoringApp="PremierePro">
										<parameterid>scale</parameterid>
										<name>Scale</name>
										<valuemin>0</valuemin>
										<valuemax>1000</valuemax>
										<value>100</value>
									</parameter>
									<parameter authoringApp="PremierePro">
										<parameterid>rotation</parameterid>
										<name>Rotation</name>
										<valuemin>-8640</valuemin>
										<valuemax>8640</valuemax>
										<value>0</value>
									</parameter>
									<parameter authoringApp="PremierePro">
										<parameterid>center</parameterid>
										<name>Center</name>
										<value>
											<horiz>3.65931e-08</horiz>
											<vert>0.00249376</vert>
										</value>
									</parameter>
									<parameter authoringApp="PremierePro">
										<parameterid>centerOffset</parameterid>
										<name>Anchor Point</name>
										<value>
											<horiz>-0.0525947</horiz>
											<vert>0.0012469</vert>
										</value>
									</parameter>
								</effect>
							</filter>
						<logginginfo>
							<description></description>
							<scene></scene>
							<shottake></shottake>
							<lognote></lognote>
						</logginginfo>
						<labels>
							<label2>Violet</label2>
						</labels>
					</clipitem>
					<enabled>TRUE</enabled>
					<locked>FALSE</locked>
				</track>
				<track TL.SQTrackShy="0" TL.SQTrackExpandedHeight="25" TL.SQTrackExpanded="0" MZ.TrackTargeted="0">
					<clipitem id="clipitem-394">
						<masterclipid>masterclip-52</masterclipid>
						<name>tidsbonanza_poengTall_0-30_3sekPause.mov</name>
						<enabled>TRUE</enabled>
						<duration>2698</duration>
						<rate>
							<timebase>25</timebase>
							<ntsc>FALSE</ntsc>
						</rate>
						<start>10959</start>
						<end>11035</end>
						<in>74</in>
						<out>150</out>
						<pproTicksIn>751887360000</pproTicksIn>
						<pproTicksOut>1524096000000</pproTicksOut>
						<alphatype>none</alphatype>
						<file id="file-48"/>
							<filter>
								<effect>
									<name>Basic Motion</name>
									<effectid>basic</effectid>
									<effectcategory>motion</effectcategory>
									<effecttype>motion</effecttype>
									<mediatype>video</mediatype>
									<parameter authoringApp="PremierePro">
										<parameterid>scale</parameterid>
										<name>Scale</name>
										<valuemin>0</valuemin>
										<valuemax>1000</valuemax>
										<value>20</value>
									</parameter>
									<parameter authoringApp="PremierePro">
										<parameterid>rotation</parameterid>
										<name>Rotation</name>
										<valuemin>-8640</valuemin>
										<valuemax>8640</valuemax>
										<value>0</value>
									</parameter>
									<parameter authoringApp="PremierePro">
										<parameterid>center</parameterid>
										<name>Center</name>
										<value>
											<horiz>-1.04724</horiz>
											<vert>-0.907563</vert>
										</value>
									</parameter>
									<parameter authoringApp="PremierePro">
										<parameterid>centerOffset</parameterid>
										<name>Anchor Point</name>
										<value>
											<horiz>0</horiz>
											<vert>0</vert>
										</value>
									</parameter>
								</effect>
							</filter>
						<logginginfo>
							<description></description>
							<scene></scene>
							<shottake></shottake>
							<lognote></lognote>
						</logginginfo>
						<labels>
							<label2>Violet</label2>
						</labels>
					</clipitem>
					<clipitem id="clipitem-395">
						<masterclipid>masterclip-52</masterclipid>
						<name>tidsbonanza_poengTall_0-30_3sekPause.mov</name>
						<enabled>TRUE</enabled>
						<duration>2698</duration>
						<rate>
							<timebase>25</timebase>
							<ntsc>FALSE</ntsc>
						</rate>
						<start>13210</start>
						<end>13268</end>
						<in>86</in>
						<out>144</out>
						<pproTicksIn>873815040000</pproTicksIn>
						<pproTicksOut>1463132160000</pproTicksOut>
						<alphatype>none</alphatype>
						<file id="file-48"/>
							<filter>
								<effect>
									<name>Basic Motion</name>
									<effectid>basic</effectid>
									<effectcategory>motion</effectcategory>
									<effecttype>motion</effecttype>
									<mediatype>video</mediatype>
									<parameter authoringApp="PremierePro">
										<parameterid>scale</parameterid>
										<name>Scale</name>
										<valuemin>0</valuemin>
										<valuemax>1000</valuemax>
										<value>20</value>
									</parameter>
									<parameter authoringApp="PremierePro">
										<parameterid>rotation</parameterid>
										<name>Rotation</name>
										<valuemin>-8640</valuemin>
										<valuemax>8640</valuemax>
										<value>0</value>
									</parameter>
									<parameter authoringApp="PremierePro">
										<parameterid>center</parameterid>
										<name>Center</name>
										<value>
											<horiz>-1.04724</horiz>
											<vert>-0.907563</vert>
										</value>
									</parameter>
									<parameter authoringApp="PremierePro">
										<parameterid>centerOffset</parameterid>
										<name>Anchor Point</name>
										<value>
											<horiz>0</horiz>
											<vert>0</vert>
										</value>
									</parameter>
								</effect>
							</filter>
						<logginginfo>
							<description></description>
							<scene></scene>
							<shottake></shottake>
							<lognote></lognote>
						</logginginfo>
						<labels>
							<label2>Violet</label2>
						</labels>
					</clipitem>
					<clipitem id="clipitem-396">
						<masterclipid>masterclip-52</masterclipid>
						<name>tidsbonanza_poengTall_0-30_3sekPause.mov</name>
						<enabled>TRUE</enabled>
						<duration>2698</duration>
						<rate>
							<timebase>25</timebase>
							<ntsc>FALSE</ntsc>
						</rate>
						<start>15262</start>
						<end>15352</end>
						<in>147</in>
						<out>237</out>
						<pproTicksIn>1493614080000</pproTicksIn>
						<pproTicksOut>2408071680000</pproTicksOut>
						<alphatype>none</alphatype>
						<file id="file-48"/>
							<filter>
								<effect>
									<name>Basic Motion</name>
									<effectid>basic</effectid>
									<effectcategory>motion</effectcategory>
									<effecttype>motion</effecttype>
									<mediatype>video</mediatype>
									<parameter authoringApp="PremierePro">
										<parameterid>scale</parameterid>
										<name>Scale</name>
										<valuemin>0</valuemin>
										<valuemax>1000</valuemax>
										<value>20</value>
									</parameter>
									<parameter authoringApp="PremierePro">
										<parameterid>rotation</parameterid>
										<name>Rotation</name>
										<valuemin>-8640</valuemin>
										<valuemax>8640</valuemax>
										<value>0</value>
									</parameter>
									<parameter authoringApp="PremierePro">
										<parameterid>center</parameterid>
										<name>Center</name>
										<value>
											<horiz>-1.04724</horiz>
											<vert>-0.907563</vert>
										</value>
									</parameter>
									<parameter authoringApp="PremierePro">
										<parameterid>centerOffset</parameterid>
										<name>Anchor Point</name>
										<value>
											<horiz>0</horiz>
											<vert>0</vert>
										</value>
									</parameter>
								</effect>
							</filter>
						<logginginfo>
							<description></description>
							<scene></scene>
							<shottake></shottake>
							<lognote></lognote>
						</logginginfo>
						<labels>
							<label2>Violet</label2>
						</labels>
					</clipitem>
					<clipitem id="clipitem-397">
						<masterclipid>masterclip-52</masterclipid>
						<name>tidsbonanza_poengTall_0-30_3sekPause.mov</name>
						<enabled>TRUE</enabled>
						<duration>2698</duration>
						<rate>
							<timebase>25</timebase>
							<ntsc>FALSE</ntsc>
						</rate>
						<start>16256</start>
						<end>16275</end>
						<in>179</in>
						<out>198</out>
						<pproTicksIn>1818754560000</pproTicksIn>
						<pproTicksOut>2011806720000</pproTicksOut>
						<alphatype>none</alphatype>
						<file id="file-48"/>
							<filter>
								<effect>
									<name>Basic Motion</name>
									<effectid>basic</effectid>
									<effectcategory>motion</effectcategory>
									<effecttype>motion</effecttype>
									<mediatype>video</mediatype>
									<parameter authoringApp="PremierePro">
										<parameterid>scale</parameterid>
										<name>Scale</name>
										<valuemin>0</valuemin>
										<valuemax>1000</valuemax>
										<value>20</value>
									</parameter>
									<parameter authoringApp="PremierePro">
										<parameterid>rotation</parameterid>
										<name>Rotation</name>
										<valuemin>-8640</valuemin>
										<valuemax>8640</valuemax>
										<value>0</value>
									</parameter>
									<parameter authoringApp="PremierePro">
										<parameterid>center</parameterid>
										<name>Center</name>
										<value>
											<horiz>-1.04724</horiz>
											<vert>-0.907563</vert>
										</value>
									</parameter>
									<parameter authoringApp="PremierePro">
										<parameterid>centerOffset</parameterid>
										<name>Anchor Point</name>
										<value>
											<horiz>0</horiz>
											<vert>0</vert>
										</value>
									</parameter>
								</effect>
							</filter>
						<logginginfo>
							<description></description>
							<scene></scene>
							<shottake></shottake>
							<lognote></lognote>
						</logginginfo>
						<labels>
							<label2>Violet</label2>
						</labels>
					</clipitem>
					<clipitem id="clipitem-398">
						<masterclipid>masterclip-52</masterclipid>
						<name>tidsbonanza_poengTall_0-30_3sekPause.mov</name>
						<enabled>TRUE</enabled>
						<duration>2698</duration>
						<rate>
							<timebase>25</timebase>
							<ntsc>FALSE</ntsc>
						</rate>
						<start>16275</start>
						<end>16298</end>
						<in>198</in>
						<out>221</out>
						<pproTicksIn>2011806720000</pproTicksIn>
						<pproTicksOut>2245501440000</pproTicksOut>
						<alphatype>none</alphatype>
						<file id="file-48"/>
							<filter>
								<effect>
									<name>Basic Motion</name>
									<effectid>basic</effectid>
									<effectcategory>motion</effectcategory>
									<effecttype>motion</effecttype>
									<mediatype>video</mediatype>
									<parameter authoringApp="PremierePro">
										<parameterid>scale</parameterid>
										<name>Scale</name>
										<valuemin>0</valuemin>
										<valuemax>1000</valuemax>
										<value>20</value>
									</parameter>
									<parameter authoringApp="PremierePro">
										<parameterid>rotation</parameterid>
										<name>Rotation</name>
										<valuemin>-8640</valuemin>
										<valuemax>8640</valuemax>
										<value>0</value>
									</parameter>
									<parameter authoringApp="PremierePro">
										<parameterid>center</parameterid>
										<name>Center</name>
										<value>
											<horiz>-1.04724</horiz>
											<vert>-0.907563</vert>
										</value>
									</parameter>
									<parameter authoringApp="PremierePro">
										<parameterid>centerOffset</parameterid>
										<name>Anchor Point</name>
										<value>
											<horiz>0</horiz>
											<vert>0</vert>
										</value>
									</parameter>
								</effect>
							</filter>
						<logginginfo>
							<description></description>
							<scene></scene>
							<shottake></shottake>
							<lognote></lognote>
						</logginginfo>
						<labels>
							<label2>Violet</label2>
						</labels>
					</clipitem>
					<clipitem id="clipitem-399">
						<masterclipid>masterclip-52</masterclipid>
						<name>tidsbonanza_poengTall_0-30_3sekPause.mov</name>
						<enabled>TRUE</enabled>
						<duration>2698</duration>
						<rate>
							<timebase>25</timebase>
							<ntsc>FALSE</ntsc>
						</rate>
						<start>16298</start>
						<end>16308</end>
						<in>198</in>
						<out>208</out>
						<pproTicksIn>2011806720000</pproTicksIn>
						<pproTicksOut>2113413120000</pproTicksOut>
						<alphatype>none</alphatype>
						<file id="file-48"/>
							<filter>
								<effect>
									<name>Basic Motion</name>
									<effectid>basic</effectid>
									<effectcategory>motion</effectcategory>
									<effecttype>motion</effecttype>
									<mediatype>video</mediatype>
									<parameter authoringApp="PremierePro">
										<parameterid>scale</parameterid>
										<name>Scale</name>
										<valuemin>0</valuemin>
										<valuemax>1000</valuemax>
										<value>20</value>
									</parameter>
									<parameter authoringApp="PremierePro">
										<parameterid>rotation</parameterid>
										<name>Rotation</name>
										<valuemin>-8640</valuemin>
										<valuemax>8640</valuemax>
										<value>0</value>
									</parameter>
									<parameter authoringApp="PremierePro">
										<parameterid>center</parameterid>
										<name>Center</name>
										<value>
											<horiz>-1.04724</horiz>
											<vert>-0.907563</vert>
										</value>
									</parameter>
									<parameter authoringApp="PremierePro">
										<parameterid>centerOffset</parameterid>
										<name>Anchor Point</name>
										<value>
											<horiz>0</horiz>
											<vert>0</vert>
										</value>
									</parameter>
								</effect>
							</filter>
						<logginginfo>
							<description></description>
							<scene></scene>
							<shottake></shottake>
							<lognote></lognote>
						</logginginfo>
						<labels>
							<label2>Violet</label2>
						</labels>
					</clipitem>
					<clipitem id="clipitem-400">
						<masterclipid>masterclip-52</masterclipid>
						<name>tidsbonanza_poengTall_0-30_3sekPause.mov</name>
						<enabled>TRUE</enabled>
						<duration>2698</duration>
						<rate>
							<timebase>25</timebase>
							<ntsc>FALSE</ntsc>
						</rate>
						<start>16308</start>
						<end>16334</end>
						<in>198</in>
						<out>224</out>
						<pproTicksIn>2011806720000</pproTicksIn>
						<pproTicksOut>2275983360000</pproTicksOut>
						<alphatype>none</alphatype>
						<file id="file-48"/>
							<filter>
								<effect>
									<name>Basic Motion</name>
									<effectid>basic</effectid>
									<effectcategory>motion</effectcategory>
									<effecttype>motion</effecttype>
									<mediatype>video</mediatype>
									<parameter authoringApp="PremierePro">
										<parameterid>scale</parameterid>
										<name>Scale</name>
										<valuemin>0</valuemin>
										<valuemax>1000</valuemax>
										<value>20</value>
									</parameter>
									<parameter authoringApp="PremierePro">
										<parameterid>rotation</parameterid>
										<name>Rotation</name>
										<valuemin>-8640</valuemin>
										<valuemax>8640</valuemax>
										<value>0</value>
									</parameter>
									<parameter authoringApp="PremierePro">
										<parameterid>center</parameterid>
										<name>Center</name>
										<value>
											<horiz>-1.04724</horiz>
											<vert>-0.907563</vert>
										</value>
									</parameter>
									<parameter authoringApp="PremierePro">
										<parameterid>centerOffset</parameterid>
										<name>Anchor Point</name>
										<value>
											<horiz>0</horiz>
											<vert>0</vert>
										</value>
									</parameter>
								</effect>
							</filter>
						<logginginfo>
							<description></description>
							<scene></scene>
							<shottake></shottake>
							<lognote></lognote>
						</logginginfo>
						<labels>
							<label2>Violet</label2>
						</labels>
					</clipitem>
					<clipitem id="clipitem-401">
						<masterclipid>masterclip-52</masterclipid>
						<name>tidsbonanza_poengTall_0-30_3sekPause.mov</name>
						<enabled>TRUE</enabled>
						<duration>2698</duration>
						<rate>
							<timebase>25</timebase>
							<ntsc>FALSE</ntsc>
						</rate>
						<start>18114</start>
						<end>18193</end>
						<in>244</in>
						<out>323</out>
						<pproTicksIn>2479196160000</pproTicksIn>
						<pproTicksOut>3281886720000</pproTicksOut>
						<alphatype>none</alphatype>
						<file id="file-48"/>
							<filter>
								<effect>
									<name>Basic Motion</name>
									<effectid>basic</effectid>
									<effectcategory>motion</effectcategory>
									<effecttype>motion</effecttype>
									<mediatype>video</mediatype>
									<parameter authoringApp="PremierePro">
										<parameterid>scale</parameterid>
										<name>Scale</name>
										<valuemin>0</valuemin>
										<valuemax>1000</valuemax>
										<value>20</value>
									</parameter>
									<parameter authoringApp="PremierePro">
										<parameterid>rotation</parameterid>
										<name>Rotation</name>
										<valuemin>-8640</valuemin>
										<valuemax>8640</valuemax>
										<value>0</value>
									</parameter>
									<parameter authoringApp="PremierePro">
										<parameterid>center</parameterid>
										<name>Center</name>
										<value>
											<horiz>-1.04724</horiz>
											<vert>-0.907563</vert>
										</value>
									</parameter>
									<parameter authoringApp="PremierePro">
										<parameterid>centerOffset</parameterid>
										<name>Anchor Point</name>
										<value>
											<horiz>0</horiz>
											<vert>0</vert>
										</value>
									</parameter>
								</effect>
							</filter>
						<logginginfo>
							<description></description>
							<scene></scene>
							<shottake></shottake>
							<lognote></lognote>
						</logginginfo>
						<labels>
							<label2>Violet</label2>
						</labels>
					</clipitem>
					<enabled>TRUE</enabled>
					<locked>FALSE</locked>
				</track>
			</video>
			<audio>
				<numOutputChannels>2</numOutputChannels>
				<format>
					<samplecharacteristics>
						<depth>16</depth>
						<samplerate>48000</samplerate>
					</samplecharacteristics>
				</format>
				<outputs>
					<group>
						<index>1</index>
						<numchannels>1</numchannels>
						<downmix>0</downmix>
						<channel>
							<index>1</index>
						</channel>
					</group>
					<group>
						<index>2</index>
						<numchannels>1</numchannels>
						<downmix>0</downmix>
						<channel>
							<index>2</index>
						</channel>
					</group>
				</outputs>
				<track TL.SQTrackAudioKeyframeStyle="0" TL.SQTrackShy="0" TL.SQTrackExpandedHeight="25" TL.SQTrackExpanded="0" MZ.TrackTargeted="1" PannerCurrentValue="0.5" PannerIsInverted="true" PannerStartKeyframe="-91445760000000000,0.5,0,0,0,0,0,0" PannerName="Balance" currentExplodedTrackIndex="0" totalExplodedTrackCount="1" premiereTrackType="Stereo">
					<clipitem id="clipitem-402" premiereChannelType="mono">
						<masterclipid>masterclip-54</masterclipid>
						<name>MAIN MIX_03.L.wav</name>
						<enabled>TRUE</enabled>
						<duration>171138</duration>
						<rate>
							<timebase>25</timebase>
							<ntsc>FALSE</ntsc>
						</rate>
						<start>420</start>
						<end>891</end>
						<in>168511</in>
						<out>168982</out>
						<pproTicksIn>1712179607040000</pproTicksIn>
						<pproTicksOut>1716965268480000</pproTicksOut>
						<file id="file-50">
							<name>MAIN MIX_03.L.wav</name>
							<pathurl>file://localhost/Volumes/Brakka/AdobeLager/QUIZ%20-%20brakka/RA%cc%8aSTOFF%20LYD/2005/MAIN%20MIX_03.L.wav</pathurl>
							<rate>
								<timebase>30</timebase>
								<ntsc>TRUE</ntsc>
							</rate>
							<duration>205161</duration>
							<timecode>
								<rate>
									<timebase>30</timebase>
									<ntsc>TRUE</ntsc>
								</rate>
								<string>12;52;15;16</string>
								<frame>1388676</frame>
								<displayformat>DF</displayformat>
								<reel>
									<name></name>
								</reel>
							</timecode>
							<media>
								<audio>
									<samplecharacteristics>
										<depth>16</depth>
										<samplerate>48000</samplerate>
									</samplecharacteristics>
									<channelcount>1</channelcount>
									<audiochannel>
										<sourcechannel>1</sourcechannel>
									</audiochannel>
								</audio>
							</media>
						</file>
						<sourcetrack>
							<mediatype>audio</mediatype>
							<trackindex>1</trackindex>
						</sourcetrack>
						<logginginfo>
							<description></description>
							<scene></scene>
							<shottake></shottake>
							<lognote></lognote>
						</logginginfo>
						<labels>
							<label2>Caribbean</label2>
						</labels>
					</clipitem>
					<clipitem id="clipitem-403" premiereChannelType="mono">
						<masterclipid>masterclip-54</masterclipid>
						<name>MAIN MIX_03.L.wav</name>
						<enabled>TRUE</enabled>
						<duration>171138</duration>
						<rate>
							<timebase>25</timebase>
							<ntsc>FALSE</ntsc>
						</rate>
						<start>1104</start>
						<end>1483</end>
						<in>32926</in>
						<out>33305</out>
						<pproTicksIn>334549232640000</pproTicksIn>
						<pproTicksOut>338400115200000</pproTicksOut>
						<file id="file-50"/>
						<sourcetrack>
							<mediatype>audio</mediatype>
							<trackindex>1</trackindex>
						</sourcetrack>
						<logginginfo>
							<description></description>
							<scene></scene>
							<shottake></shottake>
							<lognote></lognote>
						</logginginfo>
						<labels>
							<label2>Caribbean</label2>
						</labels>
					</clipitem>
					<clipitem id="clipitem-404" premiereChannelType="mono">
						<masterclipid>masterclip-54</masterclipid>
						<name>MAIN MIX_03.L.wav</name>
						<enabled>FALSE</enabled>
						<duration>171138</duration>
						<rate>
							<timebase>25</timebase>
							<ntsc>FALSE</ntsc>
						</rate>
						<start>1483</start>
						<end>4119</end>
						<in>33437</in>
						<out>36073</out>
						<pproTicksIn>339741319680000</pproTicksIn>
						<pproTicksOut>366524766720000</pproTicksOut>
						<file id="file-50"/>
						<sourcetrack>
							<mediatype>audio</mediatype>
							<trackindex>1</trackindex>
						</sourcetrack>
						<logginginfo>
							<description></description>
							<scene></scene>
							<shottake></shottake>
							<lognote></lognote>
						</logginginfo>
						<labels>
							<label2>Caribbean</label2>
						</labels>
					</clipitem>
					<clipitem id="clipitem-405" premiereChannelType="mono">
						<masterclipid>masterclip-54</masterclipid>
						<name>MAIN MIX_03.L.wav</name>
						<enabled>FALSE</enabled>
						<duration>171138</duration>
						<rate>
							<timebase>25</timebase>
							<ntsc>FALSE</ntsc>
						</rate>
						<start>4119</start>
						<end>4836</end>
						<in>36549</in>
						<out>37266</out>
						<pproTicksIn>371361231360000</pproTicksIn>
						<pproTicksOut>378646410240000</pproTicksOut>
						<file id="file-50"/>
						<sourcetrack>
							<mediatype>audio</mediatype>
							<trackindex>1</trackindex>
						</sourcetrack>
						<logginginfo>
							<description></description>
							<scene></scene>
							<shottake></shottake>
							<lognote></lognote>
						</logginginfo>
						<labels>
							<label2>Caribbean</label2>
						</labels>
					</clipitem>
					<clipitem id="clipitem-406" premiereChannelType="mono">
						<masterclipid>masterclip-54</masterclipid>
						<name>MAIN MIX_03.L.wav</name>
						<enabled>TRUE</enabled>
						<duration>171138</duration>
						<rate>
							<timebase>25</timebase>
							<ntsc>FALSE</ntsc>
						</rate>
						<start>4836</start>
						<end>5339</end>
						<in>37305</in>
						<out>37808</out>
						<pproTicksIn>379042675200000</pproTicksIn>
						<pproTicksOut>384153477120000</pproTicksOut>
						<file id="file-50"/>
						<sourcetrack>
							<mediatype>audio</mediatype>
							<trackindex>1</trackindex>
						</sourcetrack>
						<logginginfo>
							<description></description>
							<scene></scene>
							<shottake></shottake>
							<lognote></lognote>
						</logginginfo>
						<labels>
							<label2>Caribbean</label2>
						</labels>
					</clipitem>
					<clipitem id="clipitem-407" premiereChannelType="mono">
						<masterclipid>masterclip-54</masterclipid>
						<name>MAIN MIX_03.L.wav</name>
						<enabled>TRUE</enabled>
						<duration>171138</duration>
						<rate>
							<timebase>25</timebase>
							<ntsc>FALSE</ntsc>
						</rate>
						<start>5339</start>
						<end>5501</end>
						<in>37871</in>
						<out>38033</out>
						<pproTicksIn>384793597440000</pproTicksIn>
						<pproTicksOut>386439621120000</pproTicksOut>
						<file id="file-50"/>
						<sourcetrack>
							<mediatype>audio</mediatype>
							<trackindex>1</trackindex>
						</sourcetrack>
						<logginginfo>
							<description></description>
							<scene></scene>
							<shottake></shottake>
							<lognote></lognote>
						</logginginfo>
						<labels>
							<label2>Caribbean</label2>
						</labels>
					</clipitem>
					<clipitem id="clipitem-408" premiereChannelType="mono">
						<masterclipid>masterclip-54</masterclipid>
						<name>MAIN MIX_03.L.wav</name>
						<enabled>TRUE</enabled>
						<duration>171138</duration>
						<rate>
							<timebase>25</timebase>
							<ntsc>FALSE</ntsc>
						</rate>
						<start>5501</start>
						<end>6004</end>
						<in>46577</in>
						<out>47080</out>
						<pproTicksIn>473252129280000</pproTicksIn>
						<pproTicksOut>478362931200000</pproTicksOut>
						<file id="file-50"/>
						<sourcetrack>
							<mediatype>audio</mediatype>
							<trackindex>1</trackindex>
						</sourcetrack>
						<logginginfo>
							<description></description>
							<scene></scene>
							<shottake></shottake>
							<lognote></lognote>
						</logginginfo>
						<labels>
							<label2>Caribbean</label2>
						</labels>
					</clipitem>
					<clipitem id="clipitem-409" premiereChannelType="mono">
						<masterclipid>masterclip-54</masterclipid>
						<name>MAIN MIX_03.L.wav</name>
						<enabled>TRUE</enabled>
						<duration>171138</duration>
						<rate>
							<timebase>25</timebase>
							<ntsc>FALSE</ntsc>
						</rate>
						<start>6004</start>
						<end>6357</end>
						<in>50106</in>
						<out>50459</out>
						<pproTicksIn>509109027840000</pproTicksIn>
						<pproTicksOut>512695733760000</pproTicksOut>
						<file id="file-50"/>
						<sourcetrack>
							<mediatype>audio</mediatype>
							<trackindex>1</trackindex>
						</sourcetrack>
						<logginginfo>
							<description></description>
							<scene></scene>
							<shottake></shottake>
							<lognote></lognote>
						</logginginfo>
						<labels>
							<label2>Caribbean</label2>
						</labels>
					</clipitem>
					<clipitem id="clipitem-410" premiereChannelType="mono">
						<masterclipid>masterclip-54</masterclipid>
						<name>MAIN MIX_03.L.wav</name>
						<enabled>TRUE</enabled>
						<duration>171138</duration>
						<rate>
							<timebase>25</timebase>
							<ntsc>FALSE</ntsc>
						</rate>
						<start>6357</start>
						<end>6470</end>
						<in>50578</in>
						<out>50691</out>
						<pproTicksIn>513904849920000</pproTicksIn>
						<pproTicksOut>515053002240000</pproTicksOut>
						<file id="file-50"/>
						<sourcetrack>
							<mediatype>audio</mediatype>
							<trackindex>1</trackindex>
						</sourcetrack>
						<logginginfo>
							<description></description>
							<scene></scene>
							<shottake></shottake>
							<lognote></lognote>
						</logginginfo>
						<labels>
							<label2>Caribbean</label2>
						</labels>
					</clipitem>
					<clipitem id="clipitem-411" premiereChannelType="mono">
						<masterclipid>masterclip-54</masterclipid>
						<name>MAIN MIX_03.L.wav</name>
						<enabled>TRUE</enabled>
						<duration>171138</duration>
						<rate>
							<timebase>25</timebase>
							<ntsc>FALSE</ntsc>
						</rate>
						<start>6470</start>
						<end>6547</end>
						<in>50753</in>
						<out>50830</out>
						<pproTicksIn>515682961920000</pproTicksIn>
						<pproTicksOut>516465331200000</pproTicksOut>
						<file id="file-50"/>
						<sourcetrack>
							<mediatype>audio</mediatype>
							<trackindex>1</trackindex>
						</sourcetrack>
						<logginginfo>
							<description></description>
							<scene></scene>
							<shottake></shottake>
							<lognote></lognote>
						</logginginfo>
						<labels>
							<label2>Caribbean</label2>
						</labels>
					</clipitem>
					<clipitem id="clipitem-412" premiereChannelType="mono">
						<masterclipid>masterclip-54</masterclipid>
						<name>MAIN MIX_03.L.wav</name>
						<enabled>TRUE</enabled>
						<duration>171138</duration>
						<rate>
							<timebase>25</timebase>
							<ntsc>FALSE</ntsc>
						</rate>
						<start>6547</start>
						<end>7368</end>
						<in>50869</in>
						<out>51690</out>
						<pproTicksIn>516861596160000</pproTicksIn>
						<pproTicksOut>525203481600000</pproTicksOut>
						<file id="file-50"/>
						<sourcetrack>
							<mediatype>audio</mediatype>
							<trackindex>1</trackindex>
						</sourcetrack>
						<logginginfo>
							<description></description>
							<scene></scene>
							<shottake></shottake>
							<lognote></lognote>
						</logginginfo>
						<labels>
							<label2>Caribbean</label2>
						</labels>
					</clipitem>
					<clipitem id="clipitem-413" premiereChannelType="mono">
						<masterclipid>masterclip-54</masterclipid>
						<name>MAIN MIX_03.L.wav</name>
						<enabled>TRUE</enabled>
						<duration>171138</duration>
						<rate>
							<timebase>25</timebase>
							<ntsc>FALSE</ntsc>
						</rate>
						<start>7368</start>
						<end>7448</end>
						<in>51824</in>
						<out>51904</out>
						<pproTicksIn>526565007360000</pproTicksIn>
						<pproTicksOut>527377858560000</pproTicksOut>
						<file id="file-50"/>
						<sourcetrack>
							<mediatype>audio</mediatype>
							<trackindex>1</trackindex>
						</sourcetrack>
						<logginginfo>
							<description></description>
							<scene></scene>
							<shottake></shottake>
							<lognote></lognote>
						</logginginfo>
						<labels>
							<label2>Caribbean</label2>
						</labels>
					</clipitem>
					<clipitem id="clipitem-414" premiereChannelType="mono">
						<masterclipid>masterclip-54</masterclipid>
						<name>MAIN MIX_03.L.wav</name>
						<enabled>TRUE</enabled>
						<duration>171138</duration>
						<rate>
							<timebase>25</timebase>
							<ntsc>FALSE</ntsc>
						</rate>
						<start>7448</start>
						<end>8194</end>
						<in>52064</in>
						<out>52810</out>
						<pproTicksIn>529003560960000</pproTicksIn>
						<pproTicksOut>536583398400000</pproTicksOut>
						<file id="file-50"/>
						<sourcetrack>
							<mediatype>audio</mediatype>
							<trackindex>1</trackindex>
						</sourcetrack>
						<logginginfo>
							<description></description>
							<scene></scene>
							<shottake></shottake>
							<lognote></lognote>
						</logginginfo>
						<labels>
							<label2>Caribbean</label2>
						</labels>
					</clipitem>
					<clipitem id="clipitem-415" premiereChannelType="mono">
						<masterclipid>masterclip-54</masterclipid>
						<name>MAIN MIX_03.L.wav</name>
						<enabled>TRUE</enabled>
						<duration>171138</duration>
						<rate>
							<timebase>25</timebase>
							<ntsc>FALSE</ntsc>
						</rate>
						<start>8194</start>
						<end>8332</end>
						<in>57229</in>
						<out>57367</out>
						<pproTicksIn>581483266560000</pproTicksIn>
						<pproTicksOut>582885434880000</pproTicksOut>
						<file id="file-50"/>
						<sourcetrack>
							<mediatype>audio</mediatype>
							<trackindex>1</trackindex>
						</sourcetrack>
						<logginginfo>
							<description></description>
							<scene></scene>
							<shottake></shottake>
							<lognote></lognote>
						</logginginfo>
						<labels>
							<label2>Caribbean</label2>
						</labels>
					</clipitem>
					<clipitem id="clipitem-416" premiereChannelType="mono">
						<masterclipid>masterclip-54</masterclipid>
						<name>MAIN MIX_03.L.wav</name>
						<enabled>TRUE</enabled>
						<duration>171138</duration>
						<rate>
							<timebase>25</timebase>
							<ntsc>FALSE</ntsc>
						</rate>
						<start>8332</start>
						<end>8592</end>
						<in>58240</in>
						<out>58500</out>
						<pproTicksIn>591755673600000</pproTicksIn>
						<pproTicksOut>594397440000000</pproTicksOut>
						<file id="file-50"/>
						<sourcetrack>
							<mediatype>audio</mediatype>
							<trackindex>1</trackindex>
						</sourcetrack>
						<logginginfo>
							<description></description>
							<scene></scene>
							<shottake></shottake>
							<lognote></lognote>
						</logginginfo>
						<labels>
							<label2>Caribbean</label2>
						</labels>
					</clipitem>
					<clipitem id="clipitem-417" premiereChannelType="mono">
						<masterclipid>masterclip-54</masterclipid>
						<name>MAIN MIX_03.L.wav</name>
						<enabled>TRUE</enabled>
						<duration>171138</duration>
						<rate>
							<timebase>25</timebase>
							<ntsc>FALSE</ntsc>
						</rate>
						<start>8592</start>
						<end>8690</end>
						<in>58994</in>
						<out>59092</out>
						<pproTicksIn>599416796160000</pproTicksIn>
						<pproTicksOut>600412538880000</pproTicksOut>
						<file id="file-50"/>
						<sourcetrack>
							<mediatype>audio</mediatype>
							<trackindex>1</trackindex>
						</sourcetrack>
						<logginginfo>
							<description></description>
							<scene></scene>
							<shottake></shottake>
							<lognote></lognote>
						</logginginfo>
						<labels>
							<label2>Caribbean</label2>
						</labels>
					</clipitem>
					<clipitem id="clipitem-418" premiereChannelType="mono">
						<masterclipid>masterclip-54</masterclipid>
						<name>MAIN MIX_03.L.wav</name>
						<enabled>TRUE</enabled>
						<duration>171138</duration>
						<rate>
							<timebase>25</timebase>
							<ntsc>FALSE</ntsc>
						</rate>
						<start>8690</start>
						<end>8999</end>
						<in>59189</in>
						<out>59498</out>
						<pproTicksIn>601398120960000</pproTicksIn>
						<pproTicksOut>604537758720000</pproTicksOut>
						<file id="file-50"/>
						<sourcetrack>
							<mediatype>audio</mediatype>
							<trackindex>1</trackindex>
						</sourcetrack>
						<logginginfo>
							<description></description>
							<scene></scene>
							<shottake></shottake>
							<lognote></lognote>
						</logginginfo>
						<labels>
							<label2>Caribbean</label2>
						</labels>
					</clipitem>
					<clipitem id="clipitem-419" premiereChannelType="mono">
						<masterclipid>masterclip-54</masterclipid>
						<name>MAIN MIX_03.L.wav</name>
						<enabled>TRUE</enabled>
						<duration>171138</duration>
						<rate>
							<timebase>25</timebase>
							<ntsc>FALSE</ntsc>
						</rate>
						<start>8999</start>
						<end>9172</end>
						<in>59597</in>
						<out>59770</out>
						<pproTicksIn>605543662080000</pproTicksIn>
						<pproTicksOut>607301452800000</pproTicksOut>
						<file id="file-50"/>
						<sourcetrack>
							<mediatype>audio</mediatype>
							<trackindex>1</trackindex>
						</sourcetrack>
						<logginginfo>
							<description></description>
							<scene></scene>
							<shottake></shottake>
							<lognote></lognote>
						</logginginfo>
						<labels>
							<label2>Caribbean</label2>
						</labels>
					</clipitem>
					<clipitem id="clipitem-420" premiereChannelType="mono">
						<masterclipid>masterclip-54</masterclipid>
						<name>MAIN MIX_03.L.wav</name>
						<enabled>TRUE</enabled>
						<duration>171138</duration>
						<rate>
							<timebase>25</timebase>
							<ntsc>FALSE</ntsc>
						</rate>
						<start>9172</start>
						<end>9280</end>
						<in>59921</in>
						<out>60029</out>
						<pproTicksIn>608835709440000</pproTicksIn>
						<pproTicksOut>609933058560000</pproTicksOut>
						<file id="file-50"/>
						<sourcetrack>
							<mediatype>audio</mediatype>
							<trackindex>1</trackindex>
						</sourcetrack>
						<logginginfo>
							<description></description>
							<scene></scene>
							<shottake></shottake>
							<lognote></lognote>
						</logginginfo>
						<labels>
							<label2>Caribbean</label2>
						</labels>
					</clipitem>
					<clipitem id="clipitem-421" premiereChannelType="mono">
						<masterclipid>masterclip-54</masterclipid>
						<name>MAIN MIX_03.L.wav</name>
						<enabled>TRUE</enabled>
						<duration>171138</duration>
						<rate>
							<timebase>25</timebase>
							<ntsc>FALSE</ntsc>
						</rate>
						<start>9280</start>
						<end>9979</end>
						<in>65722</in>
						<out>66421</out>
						<pproTicksIn>667777582080000</pproTicksIn>
						<pproTicksOut>674879869440000</pproTicksOut>
						<file id="file-50"/>
						<sourcetrack>
							<mediatype>audio</mediatype>
							<trackindex>1</trackindex>
						</sourcetrack>
						<logginginfo>
							<description></description>
							<scene></scene>
							<shottake></shottake>
							<lognote></lognote>
						</logginginfo>
						<labels>
							<label2>Caribbean</label2>
						</labels>
					</clipitem>
					<clipitem id="clipitem-422" premiereChannelType="mono">
						<masterclipid>masterclip-54</masterclipid>
						<name>MAIN MIX_03.L.wav</name>
						<enabled>TRUE</enabled>
						<duration>171138</duration>
						<rate>
							<timebase>25</timebase>
							<ntsc>FALSE</ntsc>
						</rate>
						<start>9979</start>
						<end>10054</end>
						<in>66518</in>
						<out>66593</out>
						<pproTicksIn>675865451520000</pproTicksIn>
						<pproTicksOut>676627499520000</pproTicksOut>
						<file id="file-50"/>
						<sourcetrack>
							<mediatype>audio</mediatype>
							<trackindex>1</trackindex>
						</sourcetrack>
						<logginginfo>
							<description></description>
							<scene></scene>
							<shottake></shottake>
							<lognote></lognote>
						</logginginfo>
						<labels>
							<label2>Caribbean</label2>
						</labels>
					</clipitem>
					<clipitem id="clipitem-423" premiereChannelType="mono">
						<masterclipid>masterclip-54</masterclipid>
						<name>MAIN MIX_03.L.wav</name>
						<enabled>TRUE</enabled>
						<duration>171138</duration>
						<rate>
							<timebase>25</timebase>
							<ntsc>FALSE</ntsc>
						</rate>
						<start>10054</start>
						<end>10901</end>
						<in>67109</in>
						<out>67956</out>
						<pproTicksIn>681870389760000</pproTicksIn>
						<pproTicksOut>690476451840000</pproTicksOut>
						<file id="file-50"/>
						<sourcetrack>
							<mediatype>audio</mediatype>
							<trackindex>1</trackindex>
						</sourcetrack>
						<logginginfo>
							<description></description>
							<scene></scene>
							<shottake></shottake>
							<lognote></lognote>
						</logginginfo>
						<labels>
							<label2>Caribbean</label2>
						</labels>
					</clipitem>
					<clipitem id="clipitem-424" premiereChannelType="mono">
						<masterclipid>masterclip-54</masterclipid>
						<name>MAIN MIX_03.L.wav</name>
						<enabled>TRUE</enabled>
						<duration>171138</duration>
						<rate>
							<timebase>25</timebase>
							<ntsc>FALSE</ntsc>
						</rate>
						<start>10901</start>
						<end>11157</end>
						<in>67945</in>
						<out>68201</out>
						<pproTicksIn>690364684800000</pproTicksIn>
						<pproTicksOut>692965808640000</pproTicksOut>
						<file id="file-50"/>
						<sourcetrack>
							<mediatype>audio</mediatype>
							<trackindex>1</trackindex>
						</sourcetrack>
						<logginginfo>
							<description></description>
							<scene></scene>
							<shottake></shottake>
							<lognote></lognote>
						</logginginfo>
						<labels>
							<label2>Caribbean</label2>
						</labels>
					</clipitem>
					<clipitem id="clipitem-425" premiereChannelType="mono">
						<masterclipid>masterclip-54</masterclipid>
						<name>MAIN MIX_03.L.wav</name>
						<enabled>TRUE</enabled>
						<duration>171138</duration>
						<rate>
							<timebase>25</timebase>
							<ntsc>FALSE</ntsc>
						</rate>
						<start>11157</start>
						<end>11309</end>
						<in>68218</in>
						<out>68370</out>
						<pproTicksIn>693138539520000</pproTicksIn>
						<pproTicksOut>694682956800000</pproTicksOut>
						<file id="file-50"/>
						<sourcetrack>
							<mediatype>audio</mediatype>
							<trackindex>1</trackindex>
						</sourcetrack>
						<logginginfo>
							<description></description>
							<scene></scene>
							<shottake></shottake>
							<lognote></lognote>
						</logginginfo>
						<labels>
							<label2>Caribbean</label2>
						</labels>
					</clipitem>
					<clipitem id="clipitem-426" premiereChannelType="mono">
						<masterclipid>masterclip-54</masterclipid>
						<name>MAIN MIX_03.L.wav</name>
						<enabled>TRUE</enabled>
						<duration>171138</duration>
						<rate>
							<timebase>25</timebase>
							<ntsc>FALSE</ntsc>
						</rate>
						<start>11309</start>
						<end>11781</end>
						<in>68707</in>
						<out>69179</out>
						<pproTicksIn>698107092480000</pproTicksIn>
						<pproTicksOut>702902914560000</pproTicksOut>
						<file id="file-50"/>
						<sourcetrack>
							<mediatype>audio</mediatype>
							<trackindex>1</trackindex>
						</sourcetrack>
						<logginginfo>
							<description></description>
							<scene></scene>
							<shottake></shottake>
							<lognote></lognote>
						</logginginfo>
						<labels>
							<label2>Caribbean</label2>
						</labels>
					</clipitem>
					<clipitem id="clipitem-427" premiereChannelType="mono">
						<masterclipid>masterclip-54</masterclipid>
						<name>MAIN MIX_03.L.wav</name>
						<enabled>TRUE</enabled>
						<duration>171138</duration>
						<rate>
							<timebase>25</timebase>
							<ntsc>FALSE</ntsc>
						</rate>
						<start>11781</start>
						<end>12155</end>
						<in>70010</in>
						<out>70384</out>
						<pproTicksIn>711346406400000</pproTicksIn>
						<pproTicksOut>715146485760000</pproTicksOut>
						<file id="file-50"/>
						<sourcetrack>
							<mediatype>audio</mediatype>
							<trackindex>1</trackindex>
						</sourcetrack>
						<logginginfo>
							<description></description>
							<scene></scene>
							<shottake></shottake>
							<lognote></lognote>
						</logginginfo>
						<labels>
							<label2>Caribbean</label2>
						</labels>
					</clipitem>
					<clipitem id="clipitem-428" premiereChannelType="mono">
						<masterclipid>masterclip-54</masterclipid>
						<name>MAIN MIX_03.L.wav</name>
						<enabled>TRUE</enabled>
						<duration>171138</duration>
						<rate>
							<timebase>25</timebase>
							<ntsc>FALSE</ntsc>
						</rate>
						<start>12155</start>
						<end>13212</end>
						<in>70448</in>
						<out>71505</out>
						<pproTicksIn>715796766720000</pproTicksIn>
						<pproTicksOut>726536563200000</pproTicksOut>
						<file id="file-50"/>
						<sourcetrack>
							<mediatype>audio</mediatype>
							<trackindex>1</trackindex>
						</sourcetrack>
						<logginginfo>
							<description></description>
							<scene></scene>
							<shottake></shottake>
							<lognote></lognote>
						</logginginfo>
						<labels>
							<label2>Caribbean</label2>
						</labels>
					</clipitem>
					<clipitem id="clipitem-429" premiereChannelType="mono">
						<masterclipid>masterclip-54</masterclipid>
						<name>MAIN MIX_03.L.wav</name>
						<enabled>TRUE</enabled>
						<duration>171138</duration>
						<rate>
							<timebase>25</timebase>
							<ntsc>FALSE</ntsc>
						</rate>
						<start>13212</start>
						<end>13343</end>
						<in>71544</in>
						<out>71675</out>
						<pproTicksIn>726932828160000</pproTicksIn>
						<pproTicksOut>728263872000000</pproTicksOut>
						<file id="file-50"/>
						<sourcetrack>
							<mediatype>audio</mediatype>
							<trackindex>1</trackindex>
						</sourcetrack>
						<logginginfo>
							<description></description>
							<scene></scene>
							<shottake></shottake>
							<lognote></lognote>
						</logginginfo>
						<labels>
							<label2>Caribbean</label2>
						</labels>
					</clipitem>
					<clipitem id="clipitem-430" premiereChannelType="mono">
						<masterclipid>masterclip-54</masterclipid>
						<name>MAIN MIX_03.L.wav</name>
						<enabled>TRUE</enabled>
						<duration>171138</duration>
						<rate>
							<timebase>25</timebase>
							<ntsc>FALSE</ntsc>
						</rate>
						<start>13359</start>
						<end>13506</end>
						<in>77542</in>
						<out>77689</out>
						<pproTicksIn>787876346880000</pproTicksIn>
						<pproTicksOut>789369960960000</pproTicksOut>
						<file id="file-50"/>
						<sourcetrack>
							<mediatype>audio</mediatype>
							<trackindex>1</trackindex>
						</sourcetrack>
						<logginginfo>
							<description></description>
							<scene></scene>
							<shottake></shottake>
							<lognote></lognote>
						</logginginfo>
						<labels>
							<label2>Caribbean</label2>
						</labels>
					</clipitem>
					<clipitem id="clipitem-431" premiereChannelType="mono">
						<masterclipid>masterclip-54</masterclipid>
						<name>MAIN MIX_03.L.wav</name>
						<enabled>TRUE</enabled>
						<duration>171138</duration>
						<rate>
							<timebase>25</timebase>
							<ntsc>FALSE</ntsc>
						</rate>
						<start>13506</start>
						<end>14081</end>
						<in>78019</in>
						<out>78594</out>
						<pproTicksIn>792722972160000</pproTicksIn>
						<pproTicksOut>798565340160000</pproTicksOut>
						<file id="file-50"/>
						<sourcetrack>
							<mediatype>audio</mediatype>
							<trackindex>1</trackindex>
						</sourcetrack>
						<logginginfo>
							<description></description>
							<scene></scene>
							<shottake></shottake>
							<lognote></lognote>
						</logginginfo>
						<labels>
							<label2>Caribbean</label2>
						</labels>
					</clipitem>
					<clipitem id="clipitem-432" premiereChannelType="mono">
						<masterclipid>masterclip-54</masterclipid>
						<name>MAIN MIX_03.L.wav</name>
						<enabled>TRUE</enabled>
						<duration>171138</duration>
						<rate>
							<timebase>25</timebase>
							<ntsc>FALSE</ntsc>
						</rate>
						<start>14081</start>
						<end>14232</end>
						<in>78676</in>
						<out>78827</out>
						<pproTicksIn>799398512640000</pproTicksIn>
						<pproTicksOut>800932769280000</pproTicksOut>
						<file id="file-50"/>
						<sourcetrack>
							<mediatype>audio</mediatype>
							<trackindex>1</trackindex>
						</sourcetrack>
						<logginginfo>
							<description></description>
							<scene></scene>
							<shottake></shottake>
							<lognote></lognote>
						</logginginfo>
						<labels>
							<label2>Caribbean</label2>
						</labels>
					</clipitem>
					<clipitem id="clipitem-433" premiereChannelType="mono">
						<masterclipid>masterclip-54</masterclipid>
						<name>MAIN MIX_03.L.wav</name>
						<enabled>TRUE</enabled>
						<duration>171138</duration>
						<rate>
							<timebase>25</timebase>
							<ntsc>FALSE</ntsc>
						</rate>
						<start>14232</start>
						<end>14550</end>
						<in>78886</in>
						<out>79204</out>
						<pproTicksIn>801532247040000</pproTicksIn>
						<pproTicksOut>804763330560000</pproTicksOut>
						<file id="file-50"/>
						<sourcetrack>
							<mediatype>audio</mediatype>
							<trackindex>1</trackindex>
						</sourcetrack>
						<logginginfo>
							<description></description>
							<scene></scene>
							<shottake></shottake>
							<lognote></lognote>
						</logginginfo>
						<labels>
							<label2>Caribbean</label2>
						</labels>
					</clipitem>
					<clipitem id="clipitem-434" premiereChannelType="mono">
						<masterclipid>masterclip-54</masterclipid>
						<name>MAIN MIX_03.L.wav</name>
						<enabled>TRUE</enabled>
						<duration>171138</duration>
						<rate>
							<timebase>25</timebase>
							<ntsc>FALSE</ntsc>
						</rate>
						<start>14550</start>
						<end>14774</end>
						<in>79562</in>
						<out>79786</out>
						<pproTicksIn>808400839680000</pproTicksIn>
						<pproTicksOut>810676823040000</pproTicksOut>
						<file id="file-50"/>
						<sourcetrack>
							<mediatype>audio</mediatype>
							<trackindex>1</trackindex>
						</sourcetrack>
						<logginginfo>
							<description></description>
							<scene></scene>
							<shottake></shottake>
							<lognote></lognote>
						</logginginfo>
						<labels>
							<label2>Caribbean</label2>
						</labels>
					</clipitem>
					<clipitem id="clipitem-435" premiereChannelType="mono">
						<masterclipid>masterclip-54</masterclipid>
						<name>MAIN MIX_03.L.wav</name>
						<enabled>TRUE</enabled>
						<duration>171138</duration>
						<rate>
							<timebase>25</timebase>
							<ntsc>FALSE</ntsc>
						</rate>
						<start>14774</start>
						<end>14798</end>
						<in>79204</in>
						<out>79228</out>
						<pproTicksIn>804763330560000</pproTicksIn>
						<pproTicksOut>805007185920000</pproTicksOut>
						<file id="file-50"/>
						<sourcetrack>
							<mediatype>audio</mediatype>
							<trackindex>1</trackindex>
						</sourcetrack>
						<logginginfo>
							<description></description>
							<scene></scene>
							<shottake></shottake>
							<lognote></lognote>
						</logginginfo>
						<labels>
							<label2>Caribbean</label2>
						</labels>
					</clipitem>
					<clipitem id="clipitem-436" premiereChannelType="mono">
						<masterclipid>masterclip-54</masterclipid>
						<name>MAIN MIX_03.L.wav</name>
						<enabled>TRUE</enabled>
						<duration>171138</duration>
						<rate>
							<timebase>25</timebase>
							<ntsc>FALSE</ntsc>
						</rate>
						<start>14798</start>
						<end>14887</end>
						<in>80182</in>
						<out>80271</out>
						<pproTicksIn>814700436480000</pproTicksIn>
						<pproTicksOut>815604733440000</pproTicksOut>
						<file id="file-50"/>
						<sourcetrack>
							<mediatype>audio</mediatype>
							<trackindex>1</trackindex>
						</sourcetrack>
						<logginginfo>
							<description></description>
							<scene></scene>
							<shottake></shottake>
							<lognote></lognote>
						</logginginfo>
						<labels>
							<label2>Caribbean</label2>
						</labels>
					</clipitem>
					<clipitem id="clipitem-437" premiereChannelType="mono">
						<masterclipid>masterclip-54</masterclipid>
						<name>MAIN MIX_03.L.wav</name>
						<enabled>TRUE</enabled>
						<duration>171138</duration>
						<rate>
							<timebase>25</timebase>
							<ntsc>FALSE</ntsc>
						</rate>
						<start>14887</start>
						<end>15129</end>
						<in>80569</in>
						<out>80811</out>
						<pproTicksIn>818632604160000</pproTicksIn>
						<pproTicksOut>821091479040000</pproTicksOut>
						<file id="file-50"/>
						<sourcetrack>
							<mediatype>audio</mediatype>
							<trackindex>1</trackindex>
						</sourcetrack>
						<logginginfo>
							<description></description>
							<scene></scene>
							<shottake></shottake>
							<lognote></lognote>
						</logginginfo>
						<labels>
							<label2>Caribbean</label2>
						</labels>
					</clipitem>
					<clipitem id="clipitem-438" premiereChannelType="mono">
						<masterclipid>masterclip-54</masterclipid>
						<name>MAIN MIX_03.L.wav</name>
						<enabled>TRUE</enabled>
						<duration>171138</duration>
						<rate>
							<timebase>25</timebase>
							<ntsc>FALSE</ntsc>
						</rate>
						<start>15129</start>
						<end>15493</end>
						<in>80817</in>
						<out>81181</out>
						<pproTicksIn>821152442880000</pproTicksIn>
						<pproTicksOut>824850915840000</pproTicksOut>
						<file id="file-50"/>
						<sourcetrack>
							<mediatype>audio</mediatype>
							<trackindex>1</trackindex>
						</sourcetrack>
						<logginginfo>
							<description></description>
							<scene></scene>
							<shottake></shottake>
							<lognote></lognote>
						</logginginfo>
						<labels>
							<label2>Caribbean</label2>
						</labels>
					</clipitem>
					<clipitem id="clipitem-439" premiereChannelType="mono">
						<masterclipid>masterclip-54</masterclipid>
						<name>MAIN MIX_03.L.wav</name>
						<enabled>TRUE</enabled>
						<duration>171138</duration>
						<rate>
							<timebase>25</timebase>
							<ntsc>FALSE</ntsc>
						</rate>
						<start>15493</start>
						<end>15657</end>
						<in>81234</in>
						<out>81398</out>
						<pproTicksIn>825389429760000</pproTicksIn>
						<pproTicksOut>827055774720000</pproTicksOut>
						<file id="file-50"/>
						<sourcetrack>
							<mediatype>audio</mediatype>
							<trackindex>1</trackindex>
						</sourcetrack>
						<logginginfo>
							<description></description>
							<scene></scene>
							<shottake></shottake>
							<lognote></lognote>
						</logginginfo>
						<labels>
							<label2>Caribbean</label2>
						</labels>
					</clipitem>
					<clipitem id="clipitem-440" premiereChannelType="mono">
						<masterclipid>masterclip-54</masterclipid>
						<name>MAIN MIX_03.L.wav</name>
						<enabled>TRUE</enabled>
						<duration>171138</duration>
						<rate>
							<timebase>25</timebase>
							<ntsc>FALSE</ntsc>
						</rate>
						<start>15657</start>
						<end>15850</end>
						<in>81563</in>
						<out>81756</out>
						<pproTicksIn>828732280320000</pproTicksIn>
						<pproTicksOut>830693283840000</pproTicksOut>
						<file id="file-50"/>
						<sourcetrack>
							<mediatype>audio</mediatype>
							<trackindex>1</trackindex>
						</sourcetrack>
						<logginginfo>
							<description></description>
							<scene></scene>
							<shottake></shottake>
							<lognote></lognote>
						</logginginfo>
						<labels>
							<label2>Caribbean</label2>
						</labels>
					</clipitem>
					<clipitem id="clipitem-441" premiereChannelType="mono">
						<masterclipid>masterclip-54</masterclipid>
						<name>MAIN MIX_03.L.wav</name>
						<enabled>TRUE</enabled>
						<duration>171138</duration>
						<rate>
							<timebase>25</timebase>
							<ntsc>FALSE</ntsc>
						</rate>
						<start>15850</start>
						<end>16018</end>
						<in>81984</in>
						<out>82152</out>
						<pproTicksIn>833009909760000</pproTicksIn>
						<pproTicksOut>834716897280000</pproTicksOut>
						<file id="file-50"/>
						<sourcetrack>
							<mediatype>audio</mediatype>
							<trackindex>1</trackindex>
						</sourcetrack>
						<logginginfo>
							<description></description>
							<scene></scene>
							<shottake></shottake>
							<lognote></lognote>
						</logginginfo>
						<labels>
							<label2>Caribbean</label2>
						</labels>
					</clipitem>
					<clipitem id="clipitem-442" premiereChannelType="mono">
						<masterclipid>masterclip-54</masterclipid>
						<name>MAIN MIX_03.L.wav</name>
						<enabled>TRUE</enabled>
						<duration>171138</duration>
						<rate>
							<timebase>25</timebase>
							<ntsc>FALSE</ntsc>
						</rate>
						<start>16018</start>
						<end>16073</end>
						<in>82477</in>
						<out>82532</out>
						<pproTicksIn>838019105280000</pproTicksIn>
						<pproTicksOut>838577940480000</pproTicksOut>
						<file id="file-50"/>
						<sourcetrack>
							<mediatype>audio</mediatype>
							<trackindex>1</trackindex>
						</sourcetrack>
						<logginginfo>
							<description></description>
							<scene></scene>
							<shottake></shottake>
							<lognote></lognote>
						</logginginfo>
						<labels>
							<label2>Caribbean</label2>
						</labels>
					</clipitem>
					<clipitem id="clipitem-443" premiereChannelType="mono">
						<masterclipid>masterclip-54</masterclipid>
						<name>MAIN MIX_03.L.wav</name>
						<enabled>TRUE</enabled>
						<duration>171138</duration>
						<rate>
							<timebase>25</timebase>
							<ntsc>FALSE</ntsc>
						</rate>
						<start>16073</start>
						<end>16115</end>
						<in>83437</in>
						<out>83479</out>
						<pproTicksIn>847773319680000</pproTicksIn>
						<pproTicksOut>848200066560000</pproTicksOut>
						<file id="file-50"/>
						<sourcetrack>
							<mediatype>audio</mediatype>
							<trackindex>1</trackindex>
						</sourcetrack>
						<logginginfo>
							<description></description>
							<scene></scene>
							<shottake></shottake>
							<lognote></lognote>
						</logginginfo>
						<labels>
							<label2>Caribbean</label2>
						</labels>
					</clipitem>
					<clipitem id="clipitem-444" premiereChannelType="mono">
						<masterclipid>masterclip-54</masterclipid>
						<name>MAIN MIX_03.L.wav</name>
						<enabled>TRUE</enabled>
						<duration>171138</duration>
						<rate>
							<timebase>25</timebase>
							<ntsc>FALSE</ntsc>
						</rate>
						<start>16115</start>
						<end>16204</end>
						<in>83479</in>
						<out>83568</out>
						<pproTicksIn>848200066560000</pproTicksIn>
						<pproTicksOut>849104363520000</pproTicksOut>
						<file id="file-50"/>
						<sourcetrack>
							<mediatype>audio</mediatype>
							<trackindex>1</trackindex>
						</sourcetrack>
						<logginginfo>
							<description></description>
							<scene></scene>
							<shottake></shottake>
							<lognote></lognote>
						</logginginfo>
						<labels>
							<label2>Caribbean</label2>
						</labels>
					</clipitem>
					<clipitem id="clipitem-445" premiereChannelType="mono">
						<masterclipid>masterclip-54</masterclipid>
						<name>MAIN MIX_03.L.wav</name>
						<enabled>TRUE</enabled>
						<duration>171138</duration>
						<rate>
							<timebase>25</timebase>
							<ntsc>FALSE</ntsc>
						</rate>
						<start>16204</start>
						<end>16898</end>
						<in>83568</in>
						<out>84262</out>
						<pproTicksIn>849104363520000</pproTicksIn>
						<pproTicksOut>856155847680000</pproTicksOut>
						<file id="file-50"/>
						<sourcetrack>
							<mediatype>audio</mediatype>
							<trackindex>1</trackindex>
						</sourcetrack>
						<logginginfo>
							<description></description>
							<scene></scene>
							<shottake></shottake>
							<lognote></lognote>
						</logginginfo>
						<labels>
							<label2>Caribbean</label2>
						</labels>
					</clipitem>
					<clipitem id="clipitem-446" premiereChannelType="mono">
						<masterclipid>masterclip-54</masterclipid>
						<name>MAIN MIX_03.L.wav</name>
						<enabled>TRUE</enabled>
						<duration>171138</duration>
						<rate>
							<timebase>25</timebase>
							<ntsc>FALSE</ntsc>
						</rate>
						<start>16898</start>
						<end>16971</end>
						<in>84282</in>
						<out>84355</out>
						<pproTicksIn>856359060480000</pproTicksIn>
						<pproTicksOut>857100787200000</pproTicksOut>
						<file id="file-50"/>
						<sourcetrack>
							<mediatype>audio</mediatype>
							<trackindex>1</trackindex>
						</sourcetrack>
						<logginginfo>
							<description></description>
							<scene></scene>
							<shottake></shottake>
							<lognote></lognote>
						</logginginfo>
						<labels>
							<label2>Caribbean</label2>
						</labels>
					</clipitem>
					<clipitem id="clipitem-447" premiereChannelType="mono">
						<masterclipid>masterclip-54</masterclipid>
						<name>MAIN MIX_03.L.wav</name>
						<enabled>TRUE</enabled>
						<duration>171138</duration>
						<rate>
							<timebase>25</timebase>
							<ntsc>FALSE</ntsc>
						</rate>
						<start>16971</start>
						<end>17329</end>
						<in>84400</in>
						<out>84758</out>
						<pproTicksIn>857558016000000</pproTicksIn>
						<pproTicksOut>861195525120000</pproTicksOut>
						<file id="file-50"/>
						<sourcetrack>
							<mediatype>audio</mediatype>
							<trackindex>1</trackindex>
						</sourcetrack>
						<logginginfo>
							<description></description>
							<scene></scene>
							<shottake></shottake>
							<lognote></lognote>
						</logginginfo>
						<labels>
							<label2>Caribbean</label2>
						</labels>
					</clipitem>
					<clipitem id="clipitem-448" premiereChannelType="mono">
						<masterclipid>masterclip-54</masterclipid>
						<name>MAIN MIX_03.L.wav</name>
						<enabled>TRUE</enabled>
						<duration>171138</duration>
						<rate>
							<timebase>25</timebase>
							<ntsc>FALSE</ntsc>
						</rate>
						<start>17329</start>
						<end>17417</end>
						<in>85268</in>
						<out>85356</out>
						<pproTicksIn>866377451520000</pproTicksIn>
						<pproTicksOut>867271587840000</pproTicksOut>
						<file id="file-50"/>
						<sourcetrack>
							<mediatype>audio</mediatype>
							<trackindex>1</trackindex>
						</sourcetrack>
						<logginginfo>
							<description></description>
							<scene></scene>
							<shottake></shottake>
							<lognote></lognote>
						</logginginfo>
						<labels>
							<label2>Caribbean</label2>
						</labels>
					</clipitem>
					<clipitem id="clipitem-449" premiereChannelType="mono">
						<masterclipid>masterclip-54</masterclipid>
						<name>MAIN MIX_03.L.wav</name>
						<enabled>TRUE</enabled>
						<duration>171138</duration>
						<rate>
							<timebase>25</timebase>
							<ntsc>FALSE</ntsc>
						</rate>
						<start>17417</start>
						<end>17611</end>
						<in>85074</in>
						<out>85268</out>
						<pproTicksIn>864406287360000</pproTicksIn>
						<pproTicksOut>866377451520000</pproTicksOut>
						<file id="file-50"/>
						<sourcetrack>
							<mediatype>audio</mediatype>
							<trackindex>1</trackindex>
						</sourcetrack>
						<logginginfo>
							<description></description>
							<scene></scene>
							<shottake></shottake>
							<lognote></lognote>
						</logginginfo>
						<labels>
							<label2>Caribbean</label2>
						</labels>
					</clipitem>
					<clipitem id="clipitem-450" premiereChannelType="mono">
						<masterclipid>masterclip-54</masterclipid>
						<name>MAIN MIX_03.L.wav</name>
						<enabled>TRUE</enabled>
						<duration>171138</duration>
						<rate>
							<timebase>25</timebase>
							<ntsc>FALSE</ntsc>
						</rate>
						<start>17611</start>
						<end>17830</end>
						<in>85560</in>
						<out>85779</out>
						<pproTicksIn>869344358400000</pproTicksIn>
						<pproTicksOut>871569538560000</pproTicksOut>
						<file id="file-50"/>
						<sourcetrack>
							<mediatype>audio</mediatype>
							<trackindex>1</trackindex>
						</sourcetrack>
						<logginginfo>
							<description></description>
							<scene></scene>
							<shottake></shottake>
							<lognote></lognote>
						</logginginfo>
						<labels>
							<label2>Caribbean</label2>
						</labels>
					</clipitem>
					<clipitem id="clipitem-451" premiereChannelType="mono">
						<masterclipid>masterclip-54</masterclipid>
						<name>MAIN MIX_03.L.wav</name>
						<enabled>TRUE</enabled>
						<duration>171138</duration>
						<rate>
							<timebase>25</timebase>
							<ntsc>FALSE</ntsc>
						</rate>
						<start>17830</start>
						<end>17876</end>
						<in>83479</in>
						<out>83525</out>
						<pproTicksIn>848200066560000</pproTicksIn>
						<pproTicksOut>848667456000000</pproTicksOut>
						<file id="file-50"/>
						<sourcetrack>
							<mediatype>audio</mediatype>
							<trackindex>1</trackindex>
						</sourcetrack>
						<logginginfo>
							<description></description>
							<scene></scene>
							<shottake></shottake>
							<lognote></lognote>
						</logginginfo>
						<labels>
							<label2>Caribbean</label2>
						</labels>
					</clipitem>
					<clipitem id="clipitem-452" premiereChannelType="mono">
						<masterclipid>masterclip-54</masterclipid>
						<name>MAIN MIX_03.L.wav</name>
						<enabled>TRUE</enabled>
						<duration>171138</duration>
						<rate>
							<timebase>25</timebase>
							<ntsc>FALSE</ntsc>
						</rate>
						<start>17876</start>
						<end>18012</end>
						<in>85841</in>
						<out>85977</out>
						<pproTicksIn>872199498240000</pproTicksIn>
						<pproTicksOut>873581345280000</pproTicksOut>
						<file id="file-50"/>
						<sourcetrack>
							<mediatype>audio</mediatype>
							<trackindex>1</trackindex>
						</sourcetrack>
						<logginginfo>
							<description></description>
							<scene></scene>
							<shottake></shottake>
							<lognote></lognote>
						</logginginfo>
						<labels>
							<label2>Caribbean</label2>
						</labels>
					</clipitem>
					<clipitem id="clipitem-453" premiereChannelType="mono">
						<masterclipid>masterclip-54</masterclipid>
						<name>MAIN MIX_03.L.wav</name>
						<enabled>TRUE</enabled>
						<duration>171138</duration>
						<rate>
							<timebase>25</timebase>
							<ntsc>FALSE</ntsc>
						</rate>
						<start>18012</start>
						<end>18158</end>
						<in>116811</in>
						<out>116957</out>
						<pproTicksIn>1186874519040000</pproTicksIn>
						<pproTicksOut>1188357972480000</pproTicksOut>
						<file id="file-50"/>
						<sourcetrack>
							<mediatype>audio</mediatype>
							<trackindex>1</trackindex>
						</sourcetrack>
						<logginginfo>
							<description></description>
							<scene></scene>
							<shottake></shottake>
							<lognote></lognote>
						</logginginfo>
						<labels>
							<label2>Caribbean</label2>
						</labels>
					</clipitem>
					<clipitem id="clipitem-454" premiereChannelType="mono">
						<masterclipid>masterclip-54</masterclipid>
						<name>MAIN MIX_03.L.wav</name>
						<enabled>TRUE</enabled>
						<duration>171138</duration>
						<rate>
							<timebase>25</timebase>
							<ntsc>FALSE</ntsc>
						</rate>
						<start>18158</start>
						<end>18332</end>
						<in>86150</in>
						<out>86324</out>
						<pproTicksIn>875339136000000</pproTicksIn>
						<pproTicksOut>877107087360000</pproTicksOut>
						<file id="file-50"/>
						<sourcetrack>
							<mediatype>audio</mediatype>
							<trackindex>1</trackindex>
						</sourcetrack>
						<logginginfo>
							<description></description>
							<scene></scene>
							<shottake></shottake>
							<lognote></lognote>
						</logginginfo>
						<labels>
							<label2>Caribbean</label2>
						</labels>
					</clipitem>
					<clipitem id="clipitem-455" premiereChannelType="mono">
						<masterclipid>masterclip-54</masterclipid>
						<name>MAIN MIX_03.L.wav</name>
						<enabled>TRUE</enabled>
						<duration>171138</duration>
						<rate>
							<timebase>25</timebase>
							<ntsc>FALSE</ntsc>
						</rate>
						<start>18332</start>
						<end>22265</end>
						<in>87920</in>
						<out>91853</out>
						<pproTicksIn>893323468800000</pproTicksIn>
						<pproTicksOut>933285265920000</pproTicksOut>
						<file id="file-50"/>
						<sourcetrack>
							<mediatype>audio</mediatype>
							<trackindex>1</trackindex>
						</sourcetrack>
						<logginginfo>
							<description></description>
							<scene></scene>
							<shottake></shottake>
							<lognote></lognote>
						</logginginfo>
						<labels>
							<label2>Caribbean</label2>
						</labels>
					</clipitem>
					<clipitem id="clipitem-456" premiereChannelType="mono">
						<masterclipid>masterclip-54</masterclipid>
						<name>MAIN MIX_03.L.wav</name>
						<enabled>TRUE</enabled>
						<duration>171138</duration>
						<rate>
							<timebase>25</timebase>
							<ntsc>FALSE</ntsc>
						</rate>
						<start>22265</start>
						<end>23367</end>
						<in>91952</in>
						<out>93054</out>
						<pproTicksIn>934291169280000</pproTicksIn>
						<pproTicksOut>945488194560000</pproTicksOut>
						<file id="file-50"/>
						<sourcetrack>
							<mediatype>audio</mediatype>
							<trackindex>1</trackindex>
						</sourcetrack>
						<logginginfo>
							<description></description>
							<scene></scene>
							<shottake></shottake>
							<lognote></lognote>
						</logginginfo>
						<labels>
							<label2>Caribbean</label2>
						</labels>
					</clipitem>
					<clipitem id="clipitem-457" premiereChannelType="mono">
						<masterclipid>masterclip-54</masterclipid>
						<name>MAIN MIX_03.L.wav</name>
						<enabled>TRUE</enabled>
						<duration>171138</duration>
						<rate>
							<timebase>25</timebase>
							<ntsc>FALSE</ntsc>
						</rate>
						<start>23367</start>
						<end>23724</end>
						<in>93377</in>
						<out>93734</out>
						<pproTicksIn>948770081280000</pproTicksIn>
						<pproTicksOut>952397429760000</pproTicksOut>
						<file id="file-50"/>
						<sourcetrack>
							<mediatype>audio</mediatype>
							<trackindex>1</trackindex>
						</sourcetrack>
						<logginginfo>
							<description></description>
							<scene></scene>
							<shottake></shottake>
							<lognote></lognote>
						</logginginfo>
						<labels>
							<label2>Caribbean</label2>
						</labels>
					</clipitem>
					<clipitem id="clipitem-458" premiereChannelType="mono">
						<masterclipid>masterclip-54</masterclipid>
						<name>MAIN MIX_03.L.wav</name>
						<enabled>TRUE</enabled>
						<duration>171138</duration>
						<rate>
							<timebase>25</timebase>
							<ntsc>FALSE</ntsc>
						</rate>
						<start>23724</start>
						<end>24114</end>
						<in>94350</in>
						<out>94740</out>
						<pproTicksIn>958656384000000</pproTicksIn>
						<pproTicksOut>962619033600000</pproTicksOut>
						<file id="file-50"/>
						<sourcetrack>
							<mediatype>audio</mediatype>
							<trackindex>1</trackindex>
						</sourcetrack>
						<logginginfo>
							<description></description>
							<scene></scene>
							<shottake></shottake>
							<lognote></lognote>
						</logginginfo>
						<labels>
							<label2>Caribbean</label2>
						</labels>
					</clipitem>
					<clipitem id="clipitem-459" premiereChannelType="mono">
						<masterclipid>masterclip-54</masterclipid>
						<name>MAIN MIX_03.L.wav</name>
						<enabled>TRUE</enabled>
						<duration>171138</duration>
						<rate>
							<timebase>25</timebase>
							<ntsc>FALSE</ntsc>
						</rate>
						<start>24114</start>
						<end>24241</end>
						<in>94797</in>
						<out>94924</out>
						<pproTicksIn>963198190080000</pproTicksIn>
						<pproTicksOut>964488591360000</pproTicksOut>
						<file id="file-50"/>
						<sourcetrack>
							<mediatype>audio</mediatype>
							<trackindex>1</trackindex>
						</sourcetrack>
						<logginginfo>
							<description></description>
							<scene></scene>
							<shottake></shottake>
							<lognote></lognote>
						</logginginfo>
						<labels>
							<label2>Caribbean</label2>
						</labels>
					</clipitem>
					<clipitem id="clipitem-460" premiereChannelType="mono">
						<masterclipid>masterclip-54</masterclipid>
						<name>MAIN MIX_03.L.wav</name>
						<enabled>TRUE</enabled>
						<duration>171138</duration>
						<rate>
							<timebase>25</timebase>
							<ntsc>FALSE</ntsc>
						</rate>
						<start>24241</start>
						<end>24388</end>
						<in>95094</in>
						<out>95241</out>
						<pproTicksIn>966215900160000</pproTicksIn>
						<pproTicksOut>967709514240000</pproTicksOut>
						<file id="file-50"/>
						<sourcetrack>
							<mediatype>audio</mediatype>
							<trackindex>1</trackindex>
						</sourcetrack>
						<logginginfo>
							<description></description>
							<scene></scene>
							<shottake></shottake>
							<lognote></lognote>
						</logginginfo>
						<labels>
							<label2>Caribbean</label2>
						</labels>
					</clipitem>
					<clipitem id="clipitem-461" premiereChannelType="mono">
						<masterclipid>masterclip-54</masterclipid>
						<name>MAIN MIX_03.L.wav</name>
						<enabled>TRUE</enabled>
						<duration>171138</duration>
						<rate>
							<timebase>25</timebase>
							<ntsc>FALSE</ntsc>
						</rate>
						<start>24388</start>
						<end>24600</end>
						<in>95265</in>
						<out>95477</out>
						<pproTicksIn>967953369600000</pproTicksIn>
						<pproTicksOut>970107425280000</pproTicksOut>
						<file id="file-50"/>
						<sourcetrack>
							<mediatype>audio</mediatype>
							<trackindex>1</trackindex>
						</sourcetrack>
						<logginginfo>
							<description></description>
							<scene></scene>
							<shottake></shottake>
							<lognote></lognote>
						</logginginfo>
						<labels>
							<label2>Caribbean</label2>
						</labels>
					</clipitem>
					<clipitem id="clipitem-462" premiereChannelType="mono">
						<masterclipid>masterclip-54</masterclipid>
						<name>MAIN MIX_03.L.wav</name>
						<enabled>TRUE</enabled>
						<duration>171138</duration>
						<rate>
							<timebase>25</timebase>
							<ntsc>FALSE</ntsc>
						</rate>
						<start>24600</start>
						<end>24872</end>
						<in>95504</in>
						<out>95776</out>
						<pproTicksIn>970381762560000</pproTicksIn>
						<pproTicksOut>973145456640000</pproTicksOut>
						<file id="file-50"/>
						<sourcetrack>
							<mediatype>audio</mediatype>
							<trackindex>1</trackindex>
						</sourcetrack>
						<logginginfo>
							<description></description>
							<scene></scene>
							<shottake></shottake>
							<lognote></lognote>
						</logginginfo>
						<labels>
							<label2>Caribbean</label2>
						</labels>
					</clipitem>
					<clipitem id="clipitem-463" premiereChannelType="mono">
						<masterclipid>masterclip-54</masterclipid>
						<name>MAIN MIX_03.L.wav</name>
						<enabled>TRUE</enabled>
						<duration>171138</duration>
						<rate>
							<timebase>25</timebase>
							<ntsc>FALSE</ntsc>
						</rate>
						<start>24872</start>
						<end>26291</end>
						<in>95789</in>
						<out>97208</out>
						<pproTicksIn>973277544960000</pproTicksIn>
						<pproTicksOut>987695493120000</pproTicksOut>
						<file id="file-50"/>
						<sourcetrack>
							<mediatype>audio</mediatype>
							<trackindex>1</trackindex>
						</sourcetrack>
						<logginginfo>
							<description></description>
							<scene></scene>
							<shottake></shottake>
							<lognote></lognote>
						</logginginfo>
						<labels>
							<label2>Caribbean</label2>
						</labels>
					</clipitem>
					<clipitem id="clipitem-464" premiereChannelType="mono">
						<masterclipid>masterclip-54</masterclipid>
						<name>MAIN MIX_03.L.wav</name>
						<enabled>TRUE</enabled>
						<duration>171138</duration>
						<rate>
							<timebase>25</timebase>
							<ntsc>FALSE</ntsc>
						</rate>
						<start>26291</start>
						<end>26387</end>
						<in>97273</in>
						<out>97369</out>
						<pproTicksIn>988355934720000</pproTicksIn>
						<pproTicksOut>989331356160000</pproTicksOut>
						<file id="file-50"/>
						<sourcetrack>
							<mediatype>audio</mediatype>
							<trackindex>1</trackindex>
						</sourcetrack>
						<logginginfo>
							<description></description>
							<scene></scene>
							<shottake></shottake>
							<lognote></lognote>
						</logginginfo>
						<labels>
							<label2>Caribbean</label2>
						</labels>
					</clipitem>
					<clipitem id="clipitem-465" premiereChannelType="mono">
						<masterclipid>masterclip-54</masterclipid>
						<name>MAIN MIX_03.L.wav</name>
						<enabled>TRUE</enabled>
						<duration>171138</duration>
						<rate>
							<timebase>25</timebase>
							<ntsc>FALSE</ntsc>
						</rate>
						<start>26387</start>
						<end>27111</end>
						<in>97523</in>
						<out>98247</out>
						<pproTicksIn>990896094720000</pproTicksIn>
						<pproTicksOut>998252398080000</pproTicksOut>
						<file id="file-50"/>
						<sourcetrack>
							<mediatype>audio</mediatype>
							<trackindex>1</trackindex>
						</sourcetrack>
						<logginginfo>
							<description></description>
							<scene></scene>
							<shottake></shottake>
							<lognote></lognote>
						</logginginfo>
						<labels>
							<label2>Caribbean</label2>
						</labels>
					</clipitem>
					<clipitem id="clipitem-466" premiereChannelType="mono">
						<masterclipid>masterclip-54</masterclipid>
						<name>MAIN MIX_03.L.wav</name>
						<enabled>TRUE</enabled>
						<duration>171138</duration>
						<rate>
							<timebase>25</timebase>
							<ntsc>FALSE</ntsc>
						</rate>
						<start>27111</start>
						<end>27316</end>
						<in>98260</in>
						<out>98465</out>
						<pproTicksIn>998384486400000</pproTicksIn>
						<pproTicksOut>1000467417600000</pproTicksOut>
						<file id="file-50"/>
						<sourcetrack>
							<mediatype>audio</mediatype>
							<trackindex>1</trackindex>
						</sourcetrack>
						<logginginfo>
							<description></description>
							<scene></scene>
							<shottake></shottake>
							<lognote></lognote>
						</logginginfo>
						<labels>
							<label2>Caribbean</label2>
						</labels>
					</clipitem>
					<clipitem id="clipitem-467" premiereChannelType="mono">
						<masterclipid>masterclip-54</masterclipid>
						<name>MAIN MIX_03.L.wav</name>
						<enabled>TRUE</enabled>
						<duration>171138</duration>
						<rate>
							<timebase>25</timebase>
							<ntsc>FALSE</ntsc>
						</rate>
						<start>27316</start>
						<end>27702</end>
						<in>98958</in>
						<out>99344</out>
						<pproTicksIn>1005476613120000</pproTicksIn>
						<pproTicksOut>1009398620160000</pproTicksOut>
						<file id="file-50"/>
						<sourcetrack>
							<mediatype>audio</mediatype>
							<trackindex>1</trackindex>
						</sourcetrack>
						<logginginfo>
							<description></description>
							<scene></scene>
							<shottake></shottake>
							<lognote></lognote>
						</logginginfo>
						<labels>
							<label2>Caribbean</label2>
						</labels>
					</clipitem>
					<clipitem id="clipitem-468" premiereChannelType="mono">
						<masterclipid>masterclip-54</masterclipid>
						<name>MAIN MIX_03.L.wav</name>
						<enabled>TRUE</enabled>
						<duration>171138</duration>
						<rate>
							<timebase>25</timebase>
							<ntsc>FALSE</ntsc>
						</rate>
						<start>27702</start>
						<end>27789</end>
						<in>99640</in>
						<out>99727</out>
						<pproTicksIn>1012406169600000</pproTicksIn>
						<pproTicksOut>1013290145280000</pproTicksOut>
						<file id="file-50"/>
						<sourcetrack>
							<mediatype>audio</mediatype>
							<trackindex>1</trackindex>
						</sourcetrack>
						<logginginfo>
							<description></description>
							<scene></scene>
							<shottake></shottake>
							<lognote></lognote>
						</logginginfo>
						<labels>
							<label2>Caribbean</label2>
						</labels>
					</clipitem>
					<clipitem id="clipitem-469" premiereChannelType="mono">
						<masterclipid>masterclip-54</masterclipid>
						<name>MAIN MIX_03.L.wav</name>
						<enabled>TRUE</enabled>
						<duration>171138</duration>
						<rate>
							<timebase>25</timebase>
							<ntsc>FALSE</ntsc>
						</rate>
						<start>27789</start>
						<end>29601</end>
						<in>99831</in>
						<out>101643</out>
						<pproTicksIn>1014346851840000</pproTicksIn>
						<pproTicksOut>1032757931520000</pproTicksOut>
						<file id="file-50"/>
						<sourcetrack>
							<mediatype>audio</mediatype>
							<trackindex>1</trackindex>
						</sourcetrack>
						<logginginfo>
							<description></description>
							<scene></scene>
							<shottake></shottake>
							<lognote></lognote>
						</logginginfo>
						<labels>
							<label2>Caribbean</label2>
						</labels>
					</clipitem>
					<clipitem id="clipitem-470" premiereChannelType="mono">
						<masterclipid>masterclip-54</masterclipid>
						<name>MAIN MIX_03.L.wav</name>
						<enabled>TRUE</enabled>
						<duration>171138</duration>
						<rate>
							<timebase>25</timebase>
							<ntsc>FALSE</ntsc>
						</rate>
						<start>29601</start>
						<end>29693</end>
						<in>102540</in>
						<out>102632</out>
						<pproTicksIn>1041872025600000</pproTicksIn>
						<pproTicksOut>1042806804480000</pproTicksOut>
						<file id="file-50"/>
						<sourcetrack>
							<mediatype>audio</mediatype>
							<trackindex>1</trackindex>
						</sourcetrack>
						<logginginfo>
							<description></description>
							<scene></scene>
							<shottake></shottake>
							<lognote></lognote>
						</logginginfo>
						<labels>
							<label2>Caribbean</label2>
						</labels>
					</clipitem>
					<clipitem id="clipitem-471" premiereChannelType="mono">
						<masterclipid>masterclip-54</masterclipid>
						<name>MAIN MIX_03.L.wav</name>
						<enabled>TRUE</enabled>
						<duration>171138</duration>
						<rate>
							<timebase>25</timebase>
							<ntsc>FALSE</ntsc>
						</rate>
						<start>29693</start>
						<end>29760</end>
						<in>103317</in>
						<out>103384</out>
						<pproTicksIn>1049766842880000</pproTicksIn>
						<pproTicksOut>1050447605760000</pproTicksOut>
						<file id="file-50"/>
						<sourcetrack>
							<mediatype>audio</mediatype>
							<trackindex>1</trackindex>
						</sourcetrack>
						<logginginfo>
							<description></description>
							<scene></scene>
							<shottake></shottake>
							<lognote></lognote>
						</logginginfo>
						<labels>
							<label2>Caribbean</label2>
						</labels>
					</clipitem>
					<clipitem id="clipitem-472" premiereChannelType="mono">
						<masterclipid>masterclip-54</masterclipid>
						<name>MAIN MIX_03.L.wav</name>
						<enabled>TRUE</enabled>
						<duration>171138</duration>
						<rate>
							<timebase>25</timebase>
							<ntsc>FALSE</ntsc>
						</rate>
						<start>29760</start>
						<end>29774</end>
						<in>103438</in>
						<out>103452</out>
						<pproTicksIn>1050996280320000</pproTicksIn>
						<pproTicksOut>1051138529280000</pproTicksOut>
						<file id="file-50"/>
						<sourcetrack>
							<mediatype>audio</mediatype>
							<trackindex>1</trackindex>
						</sourcetrack>
						<logginginfo>
							<description></description>
							<scene></scene>
							<shottake></shottake>
							<lognote></lognote>
						</logginginfo>
						<labels>
							<label2>Caribbean</label2>
						</labels>
					</clipitem>
					<clipitem id="clipitem-473" premiereChannelType="mono">
						<masterclipid>masterclip-54</masterclipid>
						<name>MAIN MIX_03.L.wav</name>
						<enabled>TRUE</enabled>
						<duration>171138</duration>
						<rate>
							<timebase>25</timebase>
							<ntsc>FALSE</ntsc>
						</rate>
						<start>29774</start>
						<end>29865</end>
						<in>107326</in>
						<out>107417</out>
						<pproTicksIn>1090500848640000</pproTicksIn>
						<pproTicksOut>1091425466880000</pproTicksOut>
						<file id="file-50"/>
						<sourcetrack>
							<mediatype>audio</mediatype>
							<trackindex>1</trackindex>
						</sourcetrack>
						<logginginfo>
							<description></description>
							<scene></scene>
							<shottake></shottake>
							<lognote></lognote>
						</logginginfo>
						<labels>
							<label2>Caribbean</label2>
						</labels>
					</clipitem>
					<clipitem id="clipitem-474" premiereChannelType="mono">
						<masterclipid>masterclip-54</masterclipid>
						<name>MAIN MIX_03.L.wav</name>
						<enabled>TRUE</enabled>
						<duration>171138</duration>
						<rate>
							<timebase>25</timebase>
							<ntsc>FALSE</ntsc>
						</rate>
						<start>29865</start>
						<end>30769</end>
						<in>107708</in>
						<out>108612</out>
						<pproTicksIn>1094382213120000</pproTicksIn>
						<pproTicksOut>1103567431680000</pproTicksOut>
						<file id="file-50"/>
						<sourcetrack>
							<mediatype>audio</mediatype>
							<trackindex>1</trackindex>
						</sourcetrack>
						<logginginfo>
							<description></description>
							<scene></scene>
							<shottake></shottake>
							<lognote></lognote>
						</logginginfo>
						<labels>
							<label2>Caribbean</label2>
						</labels>
					</clipitem>
					<clipitem id="clipitem-475" premiereChannelType="mono">
						<masterclipid>masterclip-54</masterclipid>
						<name>MAIN MIX_03.L.wav</name>
						<enabled>TRUE</enabled>
						<duration>171138</duration>
						<rate>
							<timebase>25</timebase>
							<ntsc>FALSE</ntsc>
						</rate>
						<start>30769</start>
						<end>30880</end>
						<in>108644</in>
						<out>108755</out>
						<pproTicksIn>1103892572160000</pproTicksIn>
						<pproTicksOut>1105020403200000</pproTicksOut>
						<file id="file-50"/>
						<sourcetrack>
							<mediatype>audio</mediatype>
							<trackindex>1</trackindex>
						</sourcetrack>
						<logginginfo>
							<description></description>
							<scene></scene>
							<shottake></shottake>
							<lognote></lognote>
						</logginginfo>
						<labels>
							<label2>Caribbean</label2>
						</labels>
					</clipitem>
					<clipitem id="clipitem-476" premiereChannelType="mono">
						<masterclipid>masterclip-54</masterclipid>
						<name>MAIN MIX_03.L.wav</name>
						<enabled>TRUE</enabled>
						<duration>171138</duration>
						<rate>
							<timebase>25</timebase>
							<ntsc>FALSE</ntsc>
						</rate>
						<start>30880</start>
						<end>31513</end>
						<in>108776</in>
						<out>109409</out>
						<pproTicksIn>1105233776640000</pproTicksIn>
						<pproTicksOut>1111665461760000</pproTicksOut>
						<file id="file-50"/>
						<sourcetrack>
							<mediatype>audio</mediatype>
							<trackindex>1</trackindex>
						</sourcetrack>
						<logginginfo>
							<description></description>
							<scene></scene>
							<shottake></shottake>
							<lognote></lognote>
						</logginginfo>
						<labels>
							<label2>Caribbean</label2>
						</labels>
					</clipitem>
					<clipitem id="clipitem-477" premiereChannelType="mono">
						<masterclipid>masterclip-54</masterclipid>
						<name>MAIN MIX_03.L.wav</name>
						<enabled>TRUE</enabled>
						<duration>171138</duration>
						<rate>
							<timebase>25</timebase>
							<ntsc>FALSE</ntsc>
						</rate>
						<start>31513</start>
						<end>31909</end>
						<in>109447</in>
						<out>109843</out>
						<pproTicksIn>1112051566080000</pproTicksIn>
						<pproTicksOut>1116075179520000</pproTicksOut>
						<file id="file-50"/>
						<sourcetrack>
							<mediatype>audio</mediatype>
							<trackindex>1</trackindex>
						</sourcetrack>
						<logginginfo>
							<description></description>
							<scene></scene>
							<shottake></shottake>
							<lognote></lognote>
						</logginginfo>
						<labels>
							<label2>Caribbean</label2>
						</labels>
					</clipitem>
					<clipitem id="clipitem-478" premiereChannelType="mono">
						<masterclipid>masterclip-54</masterclipid>
						<name>MAIN MIX_03.L.wav</name>
						<enabled>TRUE</enabled>
						<duration>171138</duration>
						<rate>
							<timebase>25</timebase>
							<ntsc>FALSE</ntsc>
						</rate>
						<start>31909</start>
						<end>32128</end>
						<in>109926</in>
						<out>110145</out>
						<pproTicksIn>1116918512640000</pproTicksIn>
						<pproTicksOut>1119143692800000</pproTicksOut>
						<file id="file-50"/>
						<sourcetrack>
							<mediatype>audio</mediatype>
							<trackindex>1</trackindex>
						</sourcetrack>
						<logginginfo>
							<description></description>
							<scene></scene>
							<shottake></shottake>
							<lognote></lognote>
						</logginginfo>
						<labels>
							<label2>Caribbean</label2>
						</labels>
					</clipitem>
					<clipitem id="clipitem-479" premiereChannelType="mono">
						<masterclipid>masterclip-54</masterclipid>
						<name>MAIN MIX_03.L.wav</name>
						<enabled>TRUE</enabled>
						<duration>171138</duration>
						<rate>
							<timebase>25</timebase>
							<ntsc>FALSE</ntsc>
						</rate>
						<start>32128</start>
						<end>32853</end>
						<in>111277</in>
						<out>112002</out>
						<pproTicksIn>1130645537280000</pproTicksIn>
						<pproTicksOut>1138012001280000</pproTicksOut>
						<file id="file-50"/>
						<sourcetrack>
							<mediatype>audio</mediatype>
							<trackindex>1</trackindex>
						</sourcetrack>
						<logginginfo>
							<description></description>
							<scene></scene>
							<shottake></shottake>
							<lognote></lognote>
						</logginginfo>
						<labels>
							<label2>Caribbean</label2>
						</labels>
					</clipitem>
					<clipitem id="clipitem-480" premiereChannelType="mono">
						<masterclipid>masterclip-54</masterclipid>
						<name>MAIN MIX_03.L.wav</name>
						<enabled>TRUE</enabled>
						<duration>171138</duration>
						<rate>
							<timebase>25</timebase>
							<ntsc>FALSE</ntsc>
						</rate>
						<start>32853</start>
						<end>32890</end>
						<in>112002</in>
						<out>112039</out>
						<pproTicksIn>1138012001280000</pproTicksIn>
						<pproTicksOut>1138387944960000</pproTicksOut>
						<file id="file-50"/>
						<sourcetrack>
							<mediatype>audio</mediatype>
							<trackindex>1</trackindex>
						</sourcetrack>
						<logginginfo>
							<description></description>
							<scene></scene>
							<shottake></shottake>
							<lognote></lognote>
						</logginginfo>
						<labels>
							<label2>Caribbean</label2>
						</labels>
					</clipitem>
					<clipitem id="clipitem-481" premiereChannelType="mono">
						<masterclipid>masterclip-54</masterclipid>
						<name>MAIN MIX_03.L.wav</name>
						<enabled>TRUE</enabled>
						<duration>171138</duration>
						<rate>
							<timebase>25</timebase>
							<ntsc>FALSE</ntsc>
						</rate>
						<start>32890</start>
						<end>33281</end>
						<in>115277</in>
						<out>115668</out>
						<pproTicksIn>1171288097280000</pproTicksIn>
						<pproTicksOut>1175260907520000</pproTicksOut>
						<file id="file-50"/>
						<sourcetrack>
							<mediatype>audio</mediatype>
							<trackindex>1</trackindex>
						</sourcetrack>
						<logginginfo>
							<description></description>
							<scene></scene>
							<shottake></shottake>
							<lognote></lognote>
						</logginginfo>
						<labels>
							<label2>Caribbean</label2>
						</labels>
					</clipitem>
					<clipitem id="clipitem-482" premiereChannelType="mono">
						<masterclipid>masterclip-54</masterclipid>
						<name>MAIN MIX_03.L.wav</name>
						<enabled>TRUE</enabled>
						<duration>171138</duration>
						<rate>
							<timebase>25</timebase>
							<ntsc>FALSE</ntsc>
						</rate>
						<start>33281</start>
						<end>33357</end>
						<in>116203</in>
						<out>116279</out>
						<pproTicksIn>1180696849920000</pproTicksIn>
						<pproTicksOut>1181469058560000</pproTicksOut>
						<file id="file-50"/>
						<sourcetrack>
							<mediatype>audio</mediatype>
							<trackindex>1</trackindex>
						</sourcetrack>
						<logginginfo>
							<description></description>
							<scene></scene>
							<shottake></shottake>
							<lognote></lognote>
						</logginginfo>
						<labels>
							<label2>Caribbean</label2>
						</labels>
					</clipitem>
					<clipitem id="clipitem-483" premiereChannelType="mono">
						<masterclipid>masterclip-54</masterclipid>
						<name>MAIN MIX_03.L.wav</name>
						<enabled>TRUE</enabled>
						<duration>171138</duration>
						<rate>
							<timebase>25</timebase>
							<ntsc>FALSE</ntsc>
						</rate>
						<start>33357</start>
						<end>33465</end>
						<in>116298</in>
						<out>116406</out>
						<pproTicksIn>1181662110720000</pproTicksIn>
						<pproTicksOut>1182759459840000</pproTicksOut>
						<file id="file-50"/>
						<sourcetrack>
							<mediatype>audio</mediatype>
							<trackindex>1</trackindex>
						</sourcetrack>
						<logginginfo>
							<description></description>
							<scene></scene>
							<shottake></shottake>
							<lognote></lognote>
						</logginginfo>
						<labels>
							<label2>Caribbean</label2>
						</labels>
					</clipitem>
					<clipitem id="clipitem-484" premiereChannelType="mono">
						<masterclipid>masterclip-54</masterclipid>
						<name>MAIN MIX_03.L.wav</name>
						<enabled>TRUE</enabled>
						<duration>171138</duration>
						<rate>
							<timebase>25</timebase>
							<ntsc>FALSE</ntsc>
						</rate>
						<start>33465</start>
						<end>33766</end>
						<in>116510</in>
						<out>116811</out>
						<pproTicksIn>1183816166400000</pproTicksIn>
						<pproTicksOut>1186874519040000</pproTicksOut>
						<file id="file-50"/>
						<sourcetrack>
							<mediatype>audio</mediatype>
							<trackindex>1</trackindex>
						</sourcetrack>
						<logginginfo>
							<description></description>
							<scene></scene>
							<shottake></shottake>
							<lognote></lognote>
						</logginginfo>
						<labels>
							<label2>Caribbean</label2>
						</labels>
					</clipitem>
					<clipitem id="clipitem-485" premiereChannelType="mono">
						<masterclipid>masterclip-54</masterclipid>
						<name>MAIN MIX_03.L.wav</name>
						<enabled>TRUE</enabled>
						<duration>171138</duration>
						<rate>
							<timebase>25</timebase>
							<ntsc>FALSE</ntsc>
						</rate>
						<start>33766</start>
						<end>33992</end>
						<in>116811</in>
						<out>117037</out>
						<pproTicksIn>1186874519040000</pproTicksIn>
						<pproTicksOut>1189170823680000</pproTicksOut>
						<file id="file-50"/>
						<sourcetrack>
							<mediatype>audio</mediatype>
							<trackindex>1</trackindex>
						</sourcetrack>
						<logginginfo>
							<description></description>
							<scene></scene>
							<shottake></shottake>
							<lognote></lognote>
						</logginginfo>
						<labels>
							<label2>Caribbean</label2>
						</labels>
					</clipitem>
					<clipitem id="clipitem-486" premiereChannelType="mono">
						<masterclipid>masterclip-54</masterclipid>
						<name>MAIN MIX_03.L.wav</name>
						<enabled>TRUE</enabled>
						<duration>171138</duration>
						<rate>
							<timebase>25</timebase>
							<ntsc>FALSE</ntsc>
						</rate>
						<start>33992</start>
						<end>34035</end>
						<in>117226</in>
						<out>117269</out>
						<pproTicksIn>1191091184640000</pproTicksIn>
						<pproTicksOut>1191528092160000</pproTicksOut>
						<file id="file-50"/>
						<sourcetrack>
							<mediatype>audio</mediatype>
							<trackindex>1</trackindex>
						</sourcetrack>
						<logginginfo>
							<description></description>
							<scene></scene>
							<shottake></shottake>
							<lognote></lognote>
						</logginginfo>
						<labels>
							<label2>Caribbean</label2>
						</labels>
					</clipitem>
					<clipitem id="clipitem-487" premiereChannelType="mono">
						<masterclipid>masterclip-54</masterclipid>
						<name>MAIN MIX_03.L.wav</name>
						<enabled>TRUE</enabled>
						<duration>171138</duration>
						<rate>
							<timebase>25</timebase>
							<ntsc>FALSE</ntsc>
						</rate>
						<start>34035</start>
						<end>34790</end>
						<in>117633</in>
						<out>118388</out>
						<pproTicksIn>1195226565120000</pproTicksIn>
						<pproTicksOut>1202897848320000</pproTicksOut>
						<file id="file-50"/>
						<sourcetrack>
							<mediatype>audio</mediatype>
							<trackindex>1</trackindex>
						</sourcetrack>
						<logginginfo>
							<description></description>
							<scene></scene>
							<shottake></shottake>
							<lognote></lognote>
						</logginginfo>
						<labels>
							<label2>Caribbean</label2>
						</labels>
					</clipitem>
					<clipitem id="clipitem-488" premiereChannelType="mono">
						<masterclipid>masterclip-54</masterclipid>
						<name>MAIN MIX_03.L.wav</name>
						<enabled>TRUE</enabled>
						<duration>171138</duration>
						<rate>
							<timebase>25</timebase>
							<ntsc>FALSE</ntsc>
						</rate>
						<start>34790</start>
						<end>35299</end>
						<in>118612</in>
						<out>119121</out>
						<pproTicksIn>1205173831680000</pproTicksIn>
						<pproTicksOut>1210345597440000</pproTicksOut>
						<file id="file-50"/>
						<sourcetrack>
							<mediatype>audio</mediatype>
							<trackindex>1</trackindex>
						</sourcetrack>
						<logginginfo>
							<description></description>
							<scene></scene>
							<shottake></shottake>
							<lognote></lognote>
						</logginginfo>
						<labels>
							<label2>Caribbean</label2>
						</labels>
					</clipitem>
					<clipitem id="clipitem-489" premiereChannelType="mono">
						<masterclipid>masterclip-54</masterclipid>
						<name>MAIN MIX_03.L.wav</name>
						<enabled>TRUE</enabled>
						<duration>171138</duration>
						<rate>
							<timebase>25</timebase>
							<ntsc>FALSE</ntsc>
						</rate>
						<start>35299</start>
						<end>35672</end>
						<in>119201</in>
						<out>119574</out>
						<pproTicksIn>1211158448640000</pproTicksIn>
						<pproTicksOut>1214948367360000</pproTicksOut>
						<file id="file-50"/>
						<sourcetrack>
							<mediatype>audio</mediatype>
							<trackindex>1</trackindex>
						</sourcetrack>
						<logginginfo>
							<description></description>
							<scene></scene>
							<shottake></shottake>
							<lognote></lognote>
						</logginginfo>
						<labels>
							<label2>Caribbean</label2>
						</labels>
					</clipitem>
					<clipitem id="clipitem-490" premiereChannelType="mono">
						<masterclipid>masterclip-54</masterclipid>
						<name>MAIN MIX_03.L.wav</name>
						<enabled>TRUE</enabled>
						<duration>171138</duration>
						<rate>
							<timebase>25</timebase>
							<ntsc>FALSE</ntsc>
						</rate>
						<start>35672</start>
						<end>36434</end>
						<in>119583</in>
						<out>120345</out>
						<pproTicksIn>1215039813120000</pproTicksIn>
						<pproTicksOut>1222782220800000</pproTicksOut>
						<file id="file-50"/>
						<sourcetrack>
							<mediatype>audio</mediatype>
							<trackindex>1</trackindex>
						</sourcetrack>
						<logginginfo>
							<description></description>
							<scene></scene>
							<shottake></shottake>
							<lognote></lognote>
						</logginginfo>
						<labels>
							<label2>Caribbean</label2>
						</labels>
					</clipitem>
					<clipitem id="clipitem-491" premiereChannelType="mono">
						<masterclipid>masterclip-54</masterclipid>
						<name>MAIN MIX_03.L.wav</name>
						<enabled>TRUE</enabled>
						<duration>171138</duration>
						<rate>
							<timebase>25</timebase>
							<ntsc>FALSE</ntsc>
						</rate>
						<start>36434</start>
						<end>36524</end>
						<in>120539</in>
						<out>120629</out>
						<pproTicksIn>1224753384960000</pproTicksIn>
						<pproTicksOut>1225667842560000</pproTicksOut>
						<file id="file-50"/>
						<sourcetrack>
							<mediatype>audio</mediatype>
							<trackindex>1</trackindex>
						</sourcetrack>
						<logginginfo>
							<description></description>
							<scene></scene>
							<shottake></shottake>
							<lognote></lognote>
						</logginginfo>
						<labels>
							<label2>Caribbean</label2>
						</labels>
					</clipitem>
					<clipitem id="clipitem-492" premiereChannelType="mono">
						<masterclipid>masterclip-54</masterclipid>
						<name>MAIN MIX_03.L.wav</name>
						<enabled>TRUE</enabled>
						<duration>171138</duration>
						<rate>
							<timebase>25</timebase>
							<ntsc>FALSE</ntsc>
						</rate>
						<start>36524</start>
						<end>37155</end>
						<in>124899</in>
						<out>125530</out>
						<pproTicksIn>1269053775360000</pproTicksIn>
						<pproTicksOut>1275465139200000</pproTicksOut>
						<file id="file-50"/>
						<sourcetrack>
							<mediatype>audio</mediatype>
							<trackindex>1</trackindex>
						</sourcetrack>
						<logginginfo>
							<description></description>
							<scene></scene>
							<shottake></shottake>
							<lognote></lognote>
						</logginginfo>
						<labels>
							<label2>Caribbean</label2>
						</labels>
					</clipitem>
					<clipitem id="clipitem-493" premiereChannelType="mono">
						<masterclipid>masterclip-54</masterclipid>
						<name>MAIN MIX_03.L.wav</name>
						<enabled>FALSE</enabled>
						<duration>171138</duration>
						<rate>
							<timebase>25</timebase>
							<ntsc>FALSE</ntsc>
						</rate>
						<start>37732</start>
						<end>38386</end>
						<in>126107</in>
						<out>126761</out>
						<pproTicksIn>1281327828480000</pproTicksIn>
						<pproTicksOut>1287972887040000</pproTicksOut>
						<file id="file-50"/>
						<sourcetrack>
							<mediatype>audio</mediatype>
							<trackindex>1</trackindex>
						</sourcetrack>
						<logginginfo>
							<description></description>
							<scene></scene>
							<shottake></shottake>
							<lognote></lognote>
						</logginginfo>
						<labels>
							<label2>Caribbean</label2>
						</labels>
					</clipitem>
					<clipitem id="clipitem-494" premiereChannelType="mono">
						<masterclipid>masterclip-54</masterclipid>
						<name>MAIN MIX_03.L.wav</name>
						<enabled>TRUE</enabled>
						<duration>171138</duration>
						<rate>
							<timebase>25</timebase>
							<ntsc>FALSE</ntsc>
						</rate>
						<start>38386</start>
						<end>40503</end>
						<in>126761</in>
						<out>128878</out>
						<pproTicksIn>1287972887040000</pproTicksIn>
						<pproTicksOut>1309482961920000</pproTicksOut>
						<file id="file-50"/>
						<sourcetrack>
							<mediatype>audio</mediatype>
							<trackindex>1</trackindex>
						</sourcetrack>
						<logginginfo>
							<description></description>
							<scene></scene>
							<shottake></shottake>
							<lognote></lognote>
						</logginginfo>
						<labels>
							<label2>Caribbean</label2>
						</labels>
					</clipitem>
					<clipitem id="clipitem-495" premiereChannelType="mono">
						<masterclipid>masterclip-54</masterclipid>
						<name>MAIN MIX_03.L.wav</name>
						<enabled>TRUE</enabled>
						<duration>171138</duration>
						<rate>
							<timebase>25</timebase>
							<ntsc>FALSE</ntsc>
						</rate>
						<start>40503</start>
						<end>40839</end>
						<in>128926</in>
						<out>129262</out>
						<pproTicksIn>1309970672640000</pproTicksIn>
						<pproTicksOut>1313384647680000</pproTicksOut>
						<file id="file-50"/>
						<sourcetrack>
							<mediatype>audio</mediatype>
							<trackindex>1</trackindex>
						</sourcetrack>
						<logginginfo>
							<description></description>
							<scene></scene>
							<shottake></shottake>
							<lognote></lognote>
						</logginginfo>
						<labels>
							<label2>Caribbean</label2>
						</labels>
					</clipitem>
					<clipitem id="clipitem-496" premiereChannelType="mono">
						<masterclipid>masterclip-54</masterclipid>
						<name>MAIN MIX_03.L.wav</name>
						<enabled>TRUE</enabled>
						<duration>171138</duration>
						<rate>
							<timebase>25</timebase>
							<ntsc>FALSE</ntsc>
						</rate>
						<start>40839</start>
						<end>41006</end>
						<in>129262</in>
						<out>129429</out>
						<pproTicksIn>1313384647680000</pproTicksIn>
						<pproTicksOut>1315081474560000</pproTicksOut>
						<file id="file-50"/>
						<sourcetrack>
							<mediatype>audio</mediatype>
							<trackindex>1</trackindex>
						</sourcetrack>
						<logginginfo>
							<description></description>
							<scene></scene>
							<shottake></shottake>
							<lognote></lognote>
						</logginginfo>
						<labels>
							<label2>Caribbean</label2>
						</labels>
					</clipitem>
					<clipitem id="clipitem-497" premiereChannelType="mono">
						<masterclipid>masterclip-54</masterclipid>
						<name>MAIN MIX_03.L.wav</name>
						<enabled>TRUE</enabled>
						<duration>171138</duration>
						<rate>
							<timebase>25</timebase>
							<ntsc>FALSE</ntsc>
						</rate>
						<start>41006</start>
						<end>41144</end>
						<in>129476</in>
						<out>129614</out>
						<pproTicksIn>1315559024640000</pproTicksIn>
						<pproTicksOut>1316961192960000</pproTicksOut>
						<file id="file-50"/>
						<sourcetrack>
							<mediatype>audio</mediatype>
							<trackindex>1</trackindex>
						</sourcetrack>
						<logginginfo>
							<description></description>
							<scene></scene>
							<shottake></shottake>
							<lognote></lognote>
						</logginginfo>
						<labels>
							<label2>Caribbean</label2>
						</labels>
					</clipitem>
					<clipitem id="clipitem-498" premiereChannelType="mono">
						<masterclipid>masterclip-54</masterclipid>
						<name>MAIN MIX_03.L.wav</name>
						<enabled>TRUE</enabled>
						<duration>171138</duration>
						<rate>
							<timebase>25</timebase>
							<ntsc>FALSE</ntsc>
						</rate>
						<start>41144</start>
						<end>41720</end>
						<in>131417</in>
						<out>131993</out>
						<pproTicksIn>1335280826880000</pproTicksIn>
						<pproTicksOut>1341133355520000</pproTicksOut>
						<file id="file-50"/>
						<sourcetrack>
							<mediatype>audio</mediatype>
							<trackindex>1</trackindex>
						</sourcetrack>
						<logginginfo>
							<description></description>
							<scene></scene>
							<shottake></shottake>
							<lognote></lognote>
						</logginginfo>
						<labels>
							<label2>Caribbean</label2>
						</labels>
					</clipitem>
					<clipitem id="clipitem-499" premiereChannelType="mono">
						<masterclipid>masterclip-54</masterclipid>
						<name>MAIN MIX_03.L.wav</name>
						<enabled>TRUE</enabled>
						<duration>171138</duration>
						<rate>
							<timebase>25</timebase>
							<ntsc>FALSE</ntsc>
						</rate>
						<start>41720</start>
						<end>42122</end>
						<in>132051</in>
						<out>132453</out>
						<pproTicksIn>1341722672640000</pproTicksIn>
						<pproTicksOut>1345807249920000</pproTicksOut>
						<file id="file-50"/>
						<sourcetrack>
							<mediatype>audio</mediatype>
							<trackindex>1</trackindex>
						</sourcetrack>
						<logginginfo>
							<description></description>
							<scene></scene>
							<shottake></shottake>
							<lognote></lognote>
						</logginginfo>
						<labels>
							<label2>Caribbean</label2>
						</labels>
					</clipitem>
					<clipitem id="clipitem-500" premiereChannelType="mono">
						<masterclipid>masterclip-54</masterclipid>
						<name>MAIN MIX_03.L.wav</name>
						<enabled>TRUE</enabled>
						<duration>171138</duration>
						<rate>
							<timebase>25</timebase>
							<ntsc>FALSE</ntsc>
						</rate>
						<start>42122</start>
						<end>42277</end>
						<in>132657</in>
						<out>132812</out>
						<pproTicksIn>1347880020480000</pproTicksIn>
						<pproTicksOut>1349454919680000</pproTicksOut>
						<file id="file-50"/>
						<sourcetrack>
							<mediatype>audio</mediatype>
							<trackindex>1</trackindex>
						</sourcetrack>
						<logginginfo>
							<description></description>
							<scene></scene>
							<shottake></shottake>
							<lognote></lognote>
						</logginginfo>
						<labels>
							<label2>Caribbean</label2>
						</labels>
					</clipitem>
					<clipitem id="clipitem-501" premiereChannelType="mono">
						<masterclipid>masterclip-54</masterclipid>
						<name>MAIN MIX_03.L.wav</name>
						<enabled>TRUE</enabled>
						<duration>171138</duration>
						<rate>
							<timebase>25</timebase>
							<ntsc>FALSE</ntsc>
						</rate>
						<start>42277</start>
						<end>42347</end>
						<in>133359</in>
						<out>133429</out>
						<pproTicksIn>1355012789760000</pproTicksIn>
						<pproTicksOut>1355724034560000</pproTicksOut>
						<file id="file-50"/>
						<sourcetrack>
							<mediatype>audio</mediatype>
							<trackindex>1</trackindex>
						</sourcetrack>
						<logginginfo>
							<description></description>
							<scene></scene>
							<shottake></shottake>
							<lognote></lognote>
						</logginginfo>
						<labels>
							<label2>Caribbean</label2>
						</labels>
					</clipitem>
					<clipitem id="clipitem-502" premiereChannelType="mono">
						<masterclipid>masterclip-54</masterclipid>
						<name>MAIN MIX_03.L.wav</name>
						<enabled>TRUE</enabled>
						<duration>171138</duration>
						<rate>
							<timebase>25</timebase>
							<ntsc>FALSE</ntsc>
						</rate>
						<start>42347</start>
						<end>42499</end>
						<in>133852</in>
						<out>134004</out>
						<pproTicksIn>1360021985280000</pproTicksIn>
						<pproTicksOut>1361566402560000</pproTicksOut>
						<file id="file-50"/>
						<sourcetrack>
							<mediatype>audio</mediatype>
							<trackindex>1</trackindex>
						</sourcetrack>
						<logginginfo>
							<description></description>
							<scene></scene>
							<shottake></shottake>
							<lognote></lognote>
						</logginginfo>
						<labels>
							<label2>Caribbean</label2>
						</labels>
					</clipitem>
					<clipitem id="clipitem-503" premiereChannelType="mono">
						<masterclipid>masterclip-54</masterclipid>
						<name>MAIN MIX_03.L.wav</name>
						<enabled>TRUE</enabled>
						<duration>171138</duration>
						<rate>
							<timebase>25</timebase>
							<ntsc>FALSE</ntsc>
						</rate>
						<start>42499</start>
						<end>42832</end>
						<in>134099</in>
						<out>134432</out>
						<pproTicksIn>1362531663360000</pproTicksIn>
						<pproTicksOut>1365915156480000</pproTicksOut>
						<file id="file-50"/>
						<sourcetrack>
							<mediatype>audio</mediatype>
							<trackindex>1</trackindex>
						</sourcetrack>
						<logginginfo>
							<description></description>
							<scene></scene>
							<shottake></shottake>
							<lognote></lognote>
						</logginginfo>
						<labels>
							<label2>Caribbean</label2>
						</labels>
					</clipitem>
					<clipitem id="clipitem-504" premiereChannelType="mono">
						<masterclipid>masterclip-54</masterclipid>
						<name>MAIN MIX_03.L.wav</name>
						<enabled>TRUE</enabled>
						<duration>171138</duration>
						<rate>
							<timebase>25</timebase>
							<ntsc>FALSE</ntsc>
						</rate>
						<start>42832</start>
						<end>43282</end>
						<in>134992</in>
						<out>135442</out>
						<pproTicksIn>1371605114880000</pproTicksIn>
						<pproTicksOut>1376177402880000</pproTicksOut>
						<file id="file-50"/>
						<sourcetrack>
							<mediatype>audio</mediatype>
							<trackindex>1</trackindex>
						</sourcetrack>
						<logginginfo>
							<description></description>
							<scene></scene>
							<shottake></shottake>
							<lognote></lognote>
						</logginginfo>
						<labels>
							<label2>Caribbean</label2>
						</labels>
					</clipitem>
					<clipitem id="clipitem-505" premiereChannelType="mono">
						<masterclipid>masterclip-54</masterclipid>
						<name>MAIN MIX_03.L.wav</name>
						<enabled>TRUE</enabled>
						<duration>171138</duration>
						<rate>
							<timebase>25</timebase>
							<ntsc>FALSE</ntsc>
						</rate>
						<start>43282</start>
						<end>43553</end>
						<in>135648</in>
						<out>135919</out>
						<pproTicksIn>1378270494720000</pproTicksIn>
						<pproTicksOut>1381024028160000</pproTicksOut>
						<file id="file-50"/>
						<sourcetrack>
							<mediatype>audio</mediatype>
							<trackindex>1</trackindex>
						</sourcetrack>
						<logginginfo>
							<description></description>
							<scene></scene>
							<shottake></shottake>
							<lognote></lognote>
						</logginginfo>
						<labels>
							<label2>Caribbean</label2>
						</labels>
					</clipitem>
					<clipitem id="clipitem-506" premiereChannelType="mono">
						<masterclipid>masterclip-54</masterclipid>
						<name>MAIN MIX_03.L.wav</name>
						<enabled>TRUE</enabled>
						<duration>171138</duration>
						<rate>
							<timebase>25</timebase>
							<ntsc>FALSE</ntsc>
						</rate>
						<start>43553</start>
						<end>44385</end>
						<in>136003</in>
						<out>136835</out>
						<pproTicksIn>1381877521920000</pproTicksIn>
						<pproTicksOut>1390331174400000</pproTicksOut>
						<file id="file-50"/>
						<sourcetrack>
							<mediatype>audio</mediatype>
							<trackindex>1</trackindex>
						</sourcetrack>
						<logginginfo>
							<description></description>
							<scene></scene>
							<shottake></shottake>
							<lognote></lognote>
						</logginginfo>
						<labels>
							<label2>Caribbean</label2>
						</labels>
					</clipitem>
					<clipitem id="clipitem-507" premiereChannelType="mono">
						<masterclipid>masterclip-54</masterclipid>
						<name>MAIN MIX_03.L.wav</name>
						<enabled>TRUE</enabled>
						<duration>171138</duration>
						<rate>
							<timebase>25</timebase>
							<ntsc>FALSE</ntsc>
						</rate>
						<start>44385</start>
						<end>44583</end>
						<in>137077</in>
						<out>137275</out>
						<pproTicksIn>1392790049280000</pproTicksIn>
						<pproTicksOut>1394801856000000</pproTicksOut>
						<file id="file-50"/>
						<sourcetrack>
							<mediatype>audio</mediatype>
							<trackindex>1</trackindex>
						</sourcetrack>
						<logginginfo>
							<description></description>
							<scene></scene>
							<shottake></shottake>
							<lognote></lognote>
						</logginginfo>
						<labels>
							<label2>Caribbean</label2>
						</labels>
					</clipitem>
					<clipitem id="clipitem-508" premiereChannelType="mono">
						<masterclipid>masterclip-54</masterclipid>
						<name>MAIN MIX_03.L.wav</name>
						<enabled>TRUE</enabled>
						<duration>171138</duration>
						<rate>
							<timebase>25</timebase>
							<ntsc>FALSE</ntsc>
						</rate>
						<start>44583</start>
						<end>44650</end>
						<in>137376</in>
						<out>137443</out>
						<pproTicksIn>1395828080640000</pproTicksIn>
						<pproTicksOut>1396508843520000</pproTicksOut>
						<file id="file-50"/>
						<sourcetrack>
							<mediatype>audio</mediatype>
							<trackindex>1</trackindex>
						</sourcetrack>
						<logginginfo>
							<description></description>
							<scene></scene>
							<shottake></shottake>
							<lognote></lognote>
						</logginginfo>
						<labels>
							<label2>Caribbean</label2>
						</labels>
					</clipitem>
					<clipitem id="clipitem-509" premiereChannelType="mono">
						<masterclipid>masterclip-54</masterclipid>
						<name>MAIN MIX_03.L.wav</name>
						<enabled>TRUE</enabled>
						<duration>171138</duration>
						<rate>
							<timebase>25</timebase>
							<ntsc>FALSE</ntsc>
						</rate>
						<start>44650</start>
						<end>45287</end>
						<in>137505</in>
						<out>138142</out>
						<pproTicksIn>1397138803200000</pproTicksIn>
						<pproTicksOut>1403611130880000</pproTicksOut>
						<file id="file-50"/>
						<sourcetrack>
							<mediatype>audio</mediatype>
							<trackindex>1</trackindex>
						</sourcetrack>
						<logginginfo>
							<description></description>
							<scene></scene>
							<shottake></shottake>
							<lognote></lognote>
						</logginginfo>
						<labels>
							<label2>Caribbean</label2>
						</labels>
					</clipitem>
					<clipitem id="clipitem-510" premiereChannelType="mono">
						<masterclipid>masterclip-54</masterclipid>
						<name>MAIN MIX_03.L.wav</name>
						<enabled>TRUE</enabled>
						<duration>171138</duration>
						<rate>
							<timebase>25</timebase>
							<ntsc>FALSE</ntsc>
						</rate>
						<start>45287</start>
						<end>45692</end>
						<in>138274</in>
						<out>138679</out>
						<pproTicksIn>1404952335360000</pproTicksIn>
						<pproTicksOut>1409067394560000</pproTicksOut>
						<file id="file-50"/>
						<sourcetrack>
							<mediatype>audio</mediatype>
							<trackindex>1</trackindex>
						</sourcetrack>
						<logginginfo>
							<description></description>
							<scene></scene>
							<shottake></shottake>
							<lognote></lognote>
						</logginginfo>
						<labels>
							<label2>Caribbean</label2>
						</labels>
					</clipitem>
					<clipitem id="clipitem-511" premiereChannelType="mono">
						<masterclipid>masterclip-54</masterclipid>
						<name>MAIN MIX_03.L.wav</name>
						<enabled>TRUE</enabled>
						<duration>171138</duration>
						<rate>
							<timebase>25</timebase>
							<ntsc>FALSE</ntsc>
						</rate>
						<start>45692</start>
						<end>45923</end>
						<in>138810</in>
						<out>139041</out>
						<pproTicksIn>1410398438400000</pproTicksIn>
						<pproTicksOut>1412745546240000</pproTicksOut>
						<file id="file-50"/>
						<sourcetrack>
							<mediatype>audio</mediatype>
							<trackindex>1</trackindex>
						</sourcetrack>
						<logginginfo>
							<description></description>
							<scene></scene>
							<shottake></shottake>
							<lognote></lognote>
						</logginginfo>
						<labels>
							<label2>Caribbean</label2>
						</labels>
					</clipitem>
					<clipitem id="clipitem-512" premiereChannelType="mono">
						<masterclipid>masterclip-54</masterclipid>
						<name>MAIN MIX_03.L.wav</name>
						<enabled>TRUE</enabled>
						<duration>171138</duration>
						<rate>
							<timebase>25</timebase>
							<ntsc>FALSE</ntsc>
						</rate>
						<start>45923</start>
						<end>46349</end>
						<in>139073</in>
						<out>139499</out>
						<pproTicksIn>1413070686720000</pproTicksIn>
						<pproTicksOut>1417399119360000</pproTicksOut>
						<file id="file-50"/>
						<sourcetrack>
							<mediatype>audio</mediatype>
							<trackindex>1</trackindex>
						</sourcetrack>
						<logginginfo>
							<description></description>
							<scene></scene>
							<shottake></shottake>
							<lognote></lognote>
						</logginginfo>
						<labels>
							<label2>Caribbean</label2>
						</labels>
					</clipitem>
					<clipitem id="clipitem-513" premiereChannelType="mono">
						<masterclipid>masterclip-54</masterclipid>
						<name>MAIN MIX_03.L.wav</name>
						<enabled>TRUE</enabled>
						<duration>171138</duration>
						<rate>
							<timebase>25</timebase>
							<ntsc>FALSE</ntsc>
						</rate>
						<start>46349</start>
						<end>46455</end>
						<in>159642</in>
						<out>159748</out>
						<pproTicksIn>1622064890880000</pproTicksIn>
						<pproTicksOut>1623141918720000</pproTicksOut>
						<file id="file-50"/>
						<sourcetrack>
							<mediatype>audio</mediatype>
							<trackindex>1</trackindex>
						</sourcetrack>
						<logginginfo>
							<description></description>
							<scene></scene>
							<shottake></shottake>
							<lognote></lognote>
						</logginginfo>
						<labels>
							<label2>Caribbean</label2>
						</labels>
					</clipitem>
					<clipitem id="clipitem-514" premiereChannelType="mono">
						<masterclipid>masterclip-54</masterclipid>
						<name>MAIN MIX_03.L.wav</name>
						<enabled>TRUE</enabled>
						<duration>171138</duration>
						<rate>
							<timebase>25</timebase>
							<ntsc>FALSE</ntsc>
						</rate>
						<start>46455</start>
						<end>46911</end>
						<in>140048</in>
						<out>140504</out>
						<pproTicksIn>1422977310720000</pproTicksIn>
						<pproTicksOut>1427610562560000</pproTicksOut>
						<file id="file-50"/>
						<sourcetrack>
							<mediatype>audio</mediatype>
							<trackindex>1</trackindex>
						</sourcetrack>
						<logginginfo>
							<description></description>
							<scene></scene>
							<shottake></shottake>
							<lognote></lognote>
						</logginginfo>
						<labels>
							<label2>Caribbean</label2>
						</labels>
					</clipitem>
					<clipitem id="clipitem-515" premiereChannelType="mono">
						<masterclipid>masterclip-54</masterclipid>
						<name>MAIN MIX_03.L.wav</name>
						<enabled>TRUE</enabled>
						<duration>171138</duration>
						<rate>
							<timebase>25</timebase>
							<ntsc>FALSE</ntsc>
						</rate>
						<start>46911</start>
						<end>47138</end>
						<in>140817</in>
						<out>141044</out>
						<pproTicksIn>1430790842880000</pproTicksIn>
						<pproTicksOut>1433097308160000</pproTicksOut>
						<file id="file-50"/>
						<sourcetrack>
							<mediatype>audio</mediatype>
							<trackindex>1</trackindex>
						</sourcetrack>
						<logginginfo>
							<description></description>
							<scene></scene>
							<shottake></shottake>
							<lognote></lognote>
						</logginginfo>
						<labels>
							<label2>Caribbean</label2>
						</labels>
					</clipitem>
					<clipitem id="clipitem-516" premiereChannelType="mono">
						<masterclipid>masterclip-54</masterclipid>
						<name>MAIN MIX_03.L.wav</name>
						<enabled>TRUE</enabled>
						<duration>171138</duration>
						<rate>
							<timebase>25</timebase>
							<ntsc>FALSE</ntsc>
						</rate>
						<start>47138</start>
						<end>47335</end>
						<in>141203</in>
						<out>141400</out>
						<pproTicksIn>1434712849920000</pproTicksIn>
						<pproTicksOut>1436714496000000</pproTicksOut>
						<file id="file-50"/>
						<sourcetrack>
							<mediatype>audio</mediatype>
							<trackindex>1</trackindex>
						</sourcetrack>
						<logginginfo>
							<description></description>
							<scene></scene>
							<shottake></shottake>
							<lognote></lognote>
						</logginginfo>
						<labels>
							<label2>Caribbean</label2>
						</labels>
					</clipitem>
					<clipitem id="clipitem-517" premiereChannelType="mono">
						<masterclipid>masterclip-54</masterclipid>
						<name>MAIN MIX_03.L.wav</name>
						<enabled>TRUE</enabled>
						<duration>171138</duration>
						<rate>
							<timebase>25</timebase>
							<ntsc>FALSE</ntsc>
						</rate>
						<start>47335</start>
						<end>47513</end>
						<in>141454</in>
						<out>141632</out>
						<pproTicksIn>1437263170560000</pproTicksIn>
						<pproTicksOut>1439071764480000</pproTicksOut>
						<file id="file-50"/>
						<sourcetrack>
							<mediatype>audio</mediatype>
							<trackindex>1</trackindex>
						</sourcetrack>
						<logginginfo>
							<description></description>
							<scene></scene>
							<shottake></shottake>
							<lognote></lognote>
						</logginginfo>
						<labels>
							<label2>Caribbean</label2>
						</labels>
					</clipitem>
					<clipitem id="clipitem-518" premiereChannelType="mono">
						<masterclipid>masterclip-54</masterclipid>
						<name>MAIN MIX_03.L.wav</name>
						<enabled>TRUE</enabled>
						<duration>171138</duration>
						<rate>
							<timebase>25</timebase>
							<ntsc>FALSE</ntsc>
						</rate>
						<start>47513</start>
						<end>47723</end>
						<in>141671</in>
						<out>141881</out>
						<pproTicksIn>1439468029440000</pproTicksIn>
						<pproTicksOut>1441601763840000</pproTicksOut>
						<file id="file-50"/>
						<sourcetrack>
							<mediatype>audio</mediatype>
							<trackindex>1</trackindex>
						</sourcetrack>
						<logginginfo>
							<description></description>
							<scene></scene>
							<shottake></shottake>
							<lognote></lognote>
						</logginginfo>
						<labels>
							<label2>Caribbean</label2>
						</labels>
					</clipitem>
					<clipitem id="clipitem-519" premiereChannelType="mono">
						<masterclipid>masterclip-54</masterclipid>
						<name>MAIN MIX_03.L.wav</name>
						<enabled>TRUE</enabled>
						<duration>171138</duration>
						<rate>
							<timebase>25</timebase>
							<ntsc>FALSE</ntsc>
						</rate>
						<start>47723</start>
						<end>48040</end>
						<in>141894</in>
						<out>142211</out>
						<pproTicksIn>1441733852160000</pproTicksIn>
						<pproTicksOut>1444954775040000</pproTicksOut>
						<file id="file-50"/>
						<sourcetrack>
							<mediatype>audio</mediatype>
							<trackindex>1</trackindex>
						</sourcetrack>
						<logginginfo>
							<description></description>
							<scene></scene>
							<shottake></shottake>
							<lognote></lognote>
						</logginginfo>
						<labels>
							<label2>Caribbean</label2>
						</labels>
					</clipitem>
					<clipitem id="clipitem-520" premiereChannelType="mono">
						<masterclipid>masterclip-54</masterclipid>
						<name>MAIN MIX_03.L.wav</name>
						<enabled>TRUE</enabled>
						<duration>171138</duration>
						<rate>
							<timebase>25</timebase>
							<ntsc>FALSE</ntsc>
						</rate>
						<start>48040</start>
						<end>48766</end>
						<in>142351</in>
						<out>143077</out>
						<pproTicksIn>1446377264640000</pproTicksIn>
						<pproTicksOut>1453753889280000</pproTicksOut>
						<file id="file-50"/>
						<sourcetrack>
							<mediatype>audio</mediatype>
							<trackindex>1</trackindex>
						</sourcetrack>
						<logginginfo>
							<description></description>
							<scene></scene>
							<shottake></shottake>
							<lognote></lognote>
						</logginginfo>
						<labels>
							<label2>Caribbean</label2>
						</labels>
					</clipitem>
					<clipitem id="clipitem-521" premiereChannelType="mono">
						<masterclipid>masterclip-54</masterclipid>
						<name>MAIN MIX_03.L.wav</name>
						<enabled>TRUE</enabled>
						<duration>171138</duration>
						<rate>
							<timebase>25</timebase>
							<ntsc>FALSE</ntsc>
						</rate>
						<start>48766</start>
						<end>49706</end>
						<in>143684</in>
						<out>144624</out>
						<pproTicksIn>1459921397760000</pproTicksIn>
						<pproTicksOut>1469472399360000</pproTicksOut>
						<file id="file-50"/>
						<sourcetrack>
							<mediatype>audio</mediatype>
							<trackindex>1</trackindex>
						</sourcetrack>
						<logginginfo>
							<description></description>
							<scene></scene>
							<shottake></shottake>
							<lognote></lognote>
						</logginginfo>
						<labels>
							<label2>Caribbean</label2>
						</labels>
					</clipitem>
					<clipitem id="clipitem-522" premiereChannelType="mono">
						<masterclipid>masterclip-54</masterclipid>
						<name>MAIN MIX_03.L.wav</name>
						<enabled>TRUE</enabled>
						<duration>171138</duration>
						<rate>
							<timebase>25</timebase>
							<ntsc>FALSE</ntsc>
						</rate>
						<start>49706</start>
						<end>49762</end>
						<in>147186</in>
						<out>147242</out>
						<pproTicksIn>1495503959040000</pproTicksIn>
						<pproTicksOut>1496072954880000</pproTicksOut>
						<file id="file-50"/>
						<sourcetrack>
							<mediatype>audio</mediatype>
							<trackindex>1</trackindex>
						</sourcetrack>
						<logginginfo>
							<description></description>
							<scene></scene>
							<shottake></shottake>
							<lognote></lognote>
						</logginginfo>
						<labels>
							<label2>Caribbean</label2>
						</labels>
					</clipitem>
					<clipitem id="clipitem-523" premiereChannelType="mono">
						<masterclipid>masterclip-54</masterclipid>
						<name>MAIN MIX_03.L.wav</name>
						<enabled>TRUE</enabled>
						<duration>171138</duration>
						<rate>
							<timebase>25</timebase>
							<ntsc>FALSE</ntsc>
						</rate>
						<start>49762</start>
						<end>49948</end>
						<in>153681</in>
						<out>153867</out>
						<pproTicksIn>1561497315840000</pproTicksIn>
						<pproTicksOut>1563387194880000</pproTicksOut>
						<file id="file-50"/>
						<sourcetrack>
							<mediatype>audio</mediatype>
							<trackindex>1</trackindex>
						</sourcetrack>
						<logginginfo>
							<description></description>
							<scene></scene>
							<shottake></shottake>
							<lognote></lognote>
						</logginginfo>
						<labels>
							<label2>Caribbean</label2>
						</labels>
					</clipitem>
					<clipitem id="clipitem-524" premiereChannelType="mono">
						<masterclipid>masterclip-54</masterclipid>
						<name>MAIN MIX_03.L.wav</name>
						<enabled>TRUE</enabled>
						<duration>171138</duration>
						<rate>
							<timebase>25</timebase>
							<ntsc>FALSE</ntsc>
						</rate>
						<start>49948</start>
						<end>50390</end>
						<in>153946</in>
						<out>154388</out>
						<pproTicksIn>1564189885440000</pproTicksIn>
						<pproTicksOut>1568680888320000</pproTicksOut>
						<file id="file-50"/>
						<sourcetrack>
							<mediatype>audio</mediatype>
							<trackindex>1</trackindex>
						</sourcetrack>
						<logginginfo>
							<description></description>
							<scene></scene>
							<shottake></shottake>
							<lognote></lognote>
						</logginginfo>
						<labels>
							<label2>Caribbean</label2>
						</labels>
					</clipitem>
					<clipitem id="clipitem-525" premiereChannelType="mono">
						<masterclipid>masterclip-54</masterclipid>
						<name>MAIN MIX_03.L.wav</name>
						<enabled>TRUE</enabled>
						<duration>171138</duration>
						<rate>
							<timebase>25</timebase>
							<ntsc>FALSE</ntsc>
						</rate>
						<start>50390</start>
						<end>50983</end>
						<in>156215</in>
						<out>156808</out>
						<pproTicksIn>1587244377600000</pproTicksIn>
						<pproTicksOut>1593269637120000</pproTicksOut>
						<file id="file-50"/>
						<sourcetrack>
							<mediatype>audio</mediatype>
							<trackindex>1</trackindex>
						</sourcetrack>
						<logginginfo>
							<description></description>
							<scene></scene>
							<shottake></shottake>
							<lognote></lognote>
						</logginginfo>
						<labels>
							<label2>Caribbean</label2>
						</labels>
					</clipitem>
					<clipitem id="clipitem-526" premiereChannelType="mono">
						<masterclipid>masterclip-54</masterclipid>
						<name>MAIN MIX_03.L.wav</name>
						<enabled>TRUE</enabled>
						<duration>171138</duration>
						<rate>
							<timebase>25</timebase>
							<ntsc>FALSE</ntsc>
						</rate>
						<start>50983</start>
						<end>53597</end>
						<in>157028</in>
						<out>159642</out>
						<pproTicksIn>1595504977920000</pproTicksIn>
						<pproTicksOut>1622064890880000</pproTicksOut>
						<file id="file-50"/>
						<sourcetrack>
							<mediatype>audio</mediatype>
							<trackindex>1</trackindex>
						</sourcetrack>
						<logginginfo>
							<description></description>
							<scene></scene>
							<shottake></shottake>
							<lognote></lognote>
						</logginginfo>
						<labels>
							<label2>Caribbean</label2>
						</labels>
					</clipitem>
					<clipitem id="clipitem-527" premiereChannelType="mono">
						<masterclipid>masterclip-54</masterclipid>
						<name>MAIN MIX_03.L.wav</name>
						<enabled>TRUE</enabled>
						<duration>171138</duration>
						<rate>
							<timebase>25</timebase>
							<ntsc>FALSE</ntsc>
						</rate>
						<start>53597</start>
						<end>53636</end>
						<in>160568</in>
						<out>160607</out>
						<pproTicksIn>1631473643520000</pproTicksIn>
						<pproTicksOut>1631869908480000</pproTicksOut>
						<file id="file-50"/>
						<sourcetrack>
							<mediatype>audio</mediatype>
							<trackindex>1</trackindex>
						</sourcetrack>
						<logginginfo>
							<description></description>
							<scene></scene>
							<shottake></shottake>
							<lognote></lognote>
						</logginginfo>
						<labels>
							<label2>Caribbean</label2>
						</labels>
					</clipitem>
					<clipitem id="clipitem-528" premiereChannelType="mono">
						<masterclipid>masterclip-54</masterclipid>
						<name>MAIN MIX_03.L.wav</name>
						<enabled>TRUE</enabled>
						<duration>171138</duration>
						<rate>
							<timebase>25</timebase>
							<ntsc>FALSE</ntsc>
						</rate>
						<start>53636</start>
						<end>55369</end>
						<in>161146</in>
						<out>162879</out>
						<pproTicksIn>1637346493440000</pproTicksIn>
						<pproTicksOut>1654954882560000</pproTicksOut>
						<file id="file-50"/>
						<sourcetrack>
							<mediatype>audio</mediatype>
							<trackindex>1</trackindex>
						</sourcetrack>
						<logginginfo>
							<description></description>
							<scene></scene>
							<shottake></shottake>
							<lognote></lognote>
						</logginginfo>
						<labels>
							<label2>Caribbean</label2>
						</labels>
					</clipitem>
					<clipitem id="clipitem-529" premiereChannelType="mono">
						<masterclipid>masterclip-54</masterclipid>
						<name>MAIN MIX_03.L.wav</name>
						<enabled>TRUE</enabled>
						<duration>171138</duration>
						<rate>
							<timebase>25</timebase>
							<ntsc>FALSE</ntsc>
						</rate>
						<start>55369</start>
						<end>55449</end>
						<in>162899</in>
						<out>162979</out>
						<pproTicksIn>1655158095360000</pproTicksIn>
						<pproTicksOut>1655970946560000</pproTicksOut>
						<file id="file-50"/>
						<sourcetrack>
							<mediatype>audio</mediatype>
							<trackindex>1</trackindex>
						</sourcetrack>
						<logginginfo>
							<description></description>
							<scene></scene>
							<shottake></shottake>
							<lognote></lognote>
						</logginginfo>
						<labels>
							<label2>Caribbean</label2>
						</labels>
					</clipitem>
					<clipitem id="clipitem-530" premiereChannelType="mono">
						<masterclipid>masterclip-54</masterclipid>
						<name>MAIN MIX_03.L.wav</name>
						<enabled>TRUE</enabled>
						<duration>171138</duration>
						<rate>
							<timebase>25</timebase>
							<ntsc>FALSE</ntsc>
						</rate>
						<start>55449</start>
						<end>55738</end>
						<in>163146</in>
						<out>163435</out>
						<pproTicksIn>1657667773440000</pproTicksIn>
						<pproTicksOut>1660604198400000</pproTicksOut>
						<file id="file-50"/>
						<sourcetrack>
							<mediatype>audio</mediatype>
							<trackindex>1</trackindex>
						</sourcetrack>
						<logginginfo>
							<description></description>
							<scene></scene>
							<shottake></shottake>
							<lognote></lognote>
						</logginginfo>
						<labels>
							<label2>Caribbean</label2>
						</labels>
					</clipitem>
					<clipitem id="clipitem-531" premiereChannelType="mono">
						<masterclipid>masterclip-54</masterclipid>
						<name>MAIN MIX_03.L.wav</name>
						<enabled>TRUE</enabled>
						<duration>171138</duration>
						<rate>
							<timebase>25</timebase>
							<ntsc>FALSE</ntsc>
						</rate>
						<start>55738</start>
						<end>55905</end>
						<in>163648</in>
						<out>163815</out>
						<pproTicksIn>1662768414720000</pproTicksIn>
						<pproTicksOut>1664465241600000</pproTicksOut>
						<file id="file-50"/>
						<sourcetrack>
							<mediatype>audio</mediatype>
							<trackindex>1</trackindex>
						</sourcetrack>
						<logginginfo>
							<description></description>
							<scene></scene>
							<shottake></shottake>
							<lognote></lognote>
						</logginginfo>
						<labels>
							<label2>Caribbean</label2>
						</labels>
					</clipitem>
					<clipitem id="clipitem-532" premiereChannelType="mono">
						<masterclipid>masterclip-54</masterclipid>
						<name>MAIN MIX_03.L.wav</name>
						<enabled>TRUE</enabled>
						<duration>171138</duration>
						<rate>
							<timebase>25</timebase>
							<ntsc>FALSE</ntsc>
						</rate>
						<start>55905</start>
						<end>56079</end>
						<in>163829</in>
						<out>164003</out>
						<pproTicksIn>1664607490560000</pproTicksIn>
						<pproTicksOut>1666375441920000</pproTicksOut>
						<file id="file-50"/>
						<sourcetrack>
							<mediatype>audio</mediatype>
							<trackindex>1</trackindex>
						</sourcetrack>
						<logginginfo>
							<description></description>
							<scene></scene>
							<shottake></shottake>
							<lognote></lognote>
						</logginginfo>
						<labels>
							<label2>Caribbean</label2>
						</labels>
					</clipitem>
					<clipitem id="clipitem-533" premiereChannelType="mono">
						<masterclipid>masterclip-54</masterclipid>
						<name>MAIN MIX_03.L.wav</name>
						<enabled>TRUE</enabled>
						<duration>171138</duration>
						<rate>
							<timebase>25</timebase>
							<ntsc>FALSE</ntsc>
						</rate>
						<start>56079</start>
						<end>57569</end>
						<in>164067</in>
						<out>165557</out>
						<pproTicksIn>1667025722880000</pproTicksIn>
						<pproTicksOut>1682165076480000</pproTicksOut>
						<file id="file-50"/>
						<sourcetrack>
							<mediatype>audio</mediatype>
							<trackindex>1</trackindex>
						</sourcetrack>
						<logginginfo>
							<description></description>
							<scene></scene>
							<shottake></shottake>
							<lognote></lognote>
						</logginginfo>
						<labels>
							<label2>Caribbean</label2>
						</labels>
					</clipitem>
					<enabled>TRUE</enabled>
					<locked>FALSE</locked>
					<outputchannelindex>1</outputchannelindex>
				</track>
				<track TL.SQTrackAudioKeyframeStyle="0" TL.SQTrackShy="0" TL.SQTrackExpandedHeight="25" TL.SQTrackExpanded="0" MZ.TrackTargeted="1" PannerCurrentValue="0.5" PannerIsInverted="true" PannerStartKeyframe="-91445760000000000,0.5,0,0,0,0,0,0" PannerName="Balance" currentExplodedTrackIndex="0" totalExplodedTrackCount="1" premiereTrackType="Stereo">
					<clipitem id="clipitem-534" premiereChannelType="mono">
						<masterclipid>masterclip-55</masterclipid>
						<name>MAIN MIX_03.R.wav</name>
						<enabled>TRUE</enabled>
						<duration>171138</duration>
						<rate>
							<timebase>25</timebase>
							<ntsc>FALSE</ntsc>
						</rate>
						<start>420</start>
						<end>891</end>
						<in>168511</in>
						<out>168982</out>
						<pproTicksIn>1712179607040000</pproTicksIn>
						<pproTicksOut>1716965268480000</pproTicksOut>
						<file id="file-51">
							<name>MAIN MIX_03.R.wav</name>
							<pathurl>file://localhost/Volumes/Brakka/AdobeLager/QUIZ%20-%20brakka/RA%cc%8aSTOFF%20LYD/2005/MAIN%20MIX_03.R.wav</pathurl>
							<rate>
								<timebase>30</timebase>
								<ntsc>TRUE</ntsc>
							</rate>
							<duration>205161</duration>
							<timecode>
								<rate>
									<timebase>30</timebase>
									<ntsc>TRUE</ntsc>
								</rate>
								<string>12;52;15;16</string>
								<frame>1388676</frame>
								<displayformat>DF</displayformat>
								<reel>
									<name></name>
								</reel>
							</timecode>
							<media>
								<audio>
									<samplecharacteristics>
										<depth>16</depth>
										<samplerate>48000</samplerate>
									</samplecharacteristics>
									<channelcount>1</channelcount>
									<audiochannel>
										<sourcechannel>1</sourcechannel>
									</audiochannel>
								</audio>
							</media>
						</file>
						<sourcetrack>
							<mediatype>audio</mediatype>
							<trackindex>1</trackindex>
						</sourcetrack>
						<logginginfo>
							<description></description>
							<scene></scene>
							<shottake></shottake>
							<lognote></lognote>
						</logginginfo>
						<labels>
							<label2>Caribbean</label2>
						</labels>
					</clipitem>
					<clipitem id="clipitem-535" premiereChannelType="mono">
						<masterclipid>masterclip-55</masterclipid>
						<name>MAIN MIX_03.R.wav</name>
						<enabled>TRUE</enabled>
						<duration>171138</duration>
						<rate>
							<timebase>25</timebase>
							<ntsc>FALSE</ntsc>
						</rate>
						<start>1104</start>
						<end>1483</end>
						<in>32926</in>
						<out>33305</out>
						<pproTicksIn>334549232640000</pproTicksIn>
						<pproTicksOut>338400115200000</pproTicksOut>
						<file id="file-51"/>
						<sourcetrack>
							<mediatype>audio</mediatype>
							<trackindex>1</trackindex>
						</sourcetrack>
						<logginginfo>
							<description></description>
							<scene></scene>
							<shottake></shottake>
							<lognote></lognote>
						</logginginfo>
						<labels>
							<label2>Caribbean</label2>
						</labels>
					</clipitem>
					<clipitem id="clipitem-536" premiereChannelType="mono">
						<masterclipid>masterclip-55</masterclipid>
						<name>MAIN MIX_03.R.wav</name>
						<enabled>FALSE</enabled>
						<duration>171138</duration>
						<rate>
							<timebase>25</timebase>
							<ntsc>FALSE</ntsc>
						</rate>
						<start>1483</start>
						<end>4119</end>
						<in>33437</in>
						<out>36073</out>
						<pproTicksIn>339741319680000</pproTicksIn>
						<pproTicksOut>366524766720000</pproTicksOut>
						<file id="file-51"/>
						<sourcetrack>
							<mediatype>audio</mediatype>
							<trackindex>1</trackindex>
						</sourcetrack>
						<logginginfo>
							<description></description>
							<scene></scene>
							<shottake></shottake>
							<lognote></lognote>
						</logginginfo>
						<labels>
							<label2>Caribbean</label2>
						</labels>
					</clipitem>
					<clipitem id="clipitem-537" premiereChannelType="mono">
						<masterclipid>masterclip-55</masterclipid>
						<name>MAIN MIX_03.R.wav</name>
						<enabled>FALSE</enabled>
						<duration>171138</duration>
						<rate>
							<timebase>25</timebase>
							<ntsc>FALSE</ntsc>
						</rate>
						<start>4119</start>
						<end>4836</end>
						<in>36549</in>
						<out>37266</out>
						<pproTicksIn>371361231360000</pproTicksIn>
						<pproTicksOut>378646410240000</pproTicksOut>
						<file id="file-51"/>
						<sourcetrack>
							<mediatype>audio</mediatype>
							<trackindex>1</trackindex>
						</sourcetrack>
						<logginginfo>
							<description></description>
							<scene></scene>
							<shottake></shottake>
							<lognote></lognote>
						</logginginfo>
						<labels>
							<label2>Caribbean</label2>
						</labels>
					</clipitem>
					<clipitem id="clipitem-538" premiereChannelType="mono">
						<masterclipid>masterclip-55</masterclipid>
						<name>MAIN MIX_03.R.wav</name>
						<enabled>TRUE</enabled>
						<duration>171138</duration>
						<rate>
							<timebase>25</timebase>
							<ntsc>FALSE</ntsc>
						</rate>
						<start>4836</start>
						<end>5339</end>
						<in>37305</in>
						<out>37808</out>
						<pproTicksIn>379042675200000</pproTicksIn>
						<pproTicksOut>384153477120000</pproTicksOut>
						<file id="file-51"/>
						<sourcetrack>
							<mediatype>audio</mediatype>
							<trackindex>1</trackindex>
						</sourcetrack>
						<logginginfo>
							<description></description>
							<scene></scene>
							<shottake></shottake>
							<lognote></lognote>
						</logginginfo>
						<labels>
							<label2>Caribbean</label2>
						</labels>
					</clipitem>
					<clipitem id="clipitem-539" premiereChannelType="mono">
						<masterclipid>masterclip-55</masterclipid>
						<name>MAIN MIX_03.R.wav</name>
						<enabled>TRUE</enabled>
						<duration>171138</duration>
						<rate>
							<timebase>25</timebase>
							<ntsc>FALSE</ntsc>
						</rate>
						<start>5339</start>
						<end>5501</end>
						<in>37871</in>
						<out>38033</out>
						<pproTicksIn>384793597440000</pproTicksIn>
						<pproTicksOut>386439621120000</pproTicksOut>
						<file id="file-51"/>
						<sourcetrack>
							<mediatype>audio</mediatype>
							<trackindex>1</trackindex>
						</sourcetrack>
						<logginginfo>
							<description></description>
							<scene></scene>
							<shottake></shottake>
							<lognote></lognote>
						</logginginfo>
						<labels>
							<label2>Caribbean</label2>
						</labels>
					</clipitem>
					<clipitem id="clipitem-540" premiereChannelType="mono">
						<masterclipid>masterclip-55</masterclipid>
						<name>MAIN MIX_03.R.wav</name>
						<enabled>TRUE</enabled>
						<duration>171138</duration>
						<rate>
							<timebase>25</timebase>
							<ntsc>FALSE</ntsc>
						</rate>
						<start>5501</start>
						<end>6004</end>
						<in>46577</in>
						<out>47080</out>
						<pproTicksIn>473252129280000</pproTicksIn>
						<pproTicksOut>478362931200000</pproTicksOut>
						<file id="file-51"/>
						<sourcetrack>
							<mediatype>audio</mediatype>
							<trackindex>1</trackindex>
						</sourcetrack>
						<logginginfo>
							<description></description>
							<scene></scene>
							<shottake></shottake>
							<lognote></lognote>
						</logginginfo>
						<labels>
							<label2>Caribbean</label2>
						</labels>
					</clipitem>
					<clipitem id="clipitem-541" premiereChannelType="mono">
						<masterclipid>masterclip-55</masterclipid>
						<name>MAIN MIX_03.R.wav</name>
						<enabled>TRUE</enabled>
						<duration>171138</duration>
						<rate>
							<timebase>25</timebase>
							<ntsc>FALSE</ntsc>
						</rate>
						<start>6004</start>
						<end>6357</end>
						<in>50106</in>
						<out>50459</out>
						<pproTicksIn>509109027840000</pproTicksIn>
						<pproTicksOut>512695733760000</pproTicksOut>
						<file id="file-51"/>
						<sourcetrack>
							<mediatype>audio</mediatype>
							<trackindex>1</trackindex>
						</sourcetrack>
						<logginginfo>
							<description></description>
							<scene></scene>
							<shottake></shottake>
							<lognote></lognote>
						</logginginfo>
						<labels>
							<label2>Caribbean</label2>
						</labels>
					</clipitem>
					<clipitem id="clipitem-542" premiereChannelType="mono">
						<masterclipid>masterclip-55</masterclipid>
						<name>MAIN MIX_03.R.wav</name>
						<enabled>TRUE</enabled>
						<duration>171138</duration>
						<rate>
							<timebase>25</timebase>
							<ntsc>FALSE</ntsc>
						</rate>
						<start>6357</start>
						<end>6470</end>
						<in>50578</in>
						<out>50691</out>
						<pproTicksIn>513904849920000</pproTicksIn>
						<pproTicksOut>515053002240000</pproTicksOut>
						<file id="file-51"/>
						<sourcetrack>
							<mediatype>audio</mediatype>
							<trackindex>1</trackindex>
						</sourcetrack>
						<logginginfo>
							<description></description>
							<scene></scene>
							<shottake></shottake>
							<lognote></lognote>
						</logginginfo>
						<labels>
							<label2>Caribbean</label2>
						</labels>
					</clipitem>
					<clipitem id="clipitem-543" premiereChannelType="mono">
						<masterclipid>masterclip-55</masterclipid>
						<name>MAIN MIX_03.R.wav</name>
						<enabled>TRUE</enabled>
						<duration>171138</duration>
						<rate>
							<timebase>25</timebase>
							<ntsc>FALSE</ntsc>
						</rate>
						<start>6470</start>
						<end>6547</end>
						<in>50753</in>
						<out>50830</out>
						<pproTicksIn>515682961920000</pproTicksIn>
						<pproTicksOut>516465331200000</pproTicksOut>
						<file id="file-51"/>
						<sourcetrack>
							<mediatype>audio</mediatype>
							<trackindex>1</trackindex>
						</sourcetrack>
						<logginginfo>
							<description></description>
							<scene></scene>
							<shottake></shottake>
							<lognote></lognote>
						</logginginfo>
						<labels>
							<label2>Caribbean</label2>
						</labels>
					</clipitem>
					<clipitem id="clipitem-544" premiereChannelType="mono">
						<masterclipid>masterclip-55</masterclipid>
						<name>MAIN MIX_03.R.wav</name>
						<enabled>TRUE</enabled>
						<duration>171138</duration>
						<rate>
							<timebase>25</timebase>
							<ntsc>FALSE</ntsc>
						</rate>
						<start>6547</start>
						<end>7368</end>
						<in>50869</in>
						<out>51690</out>
						<pproTicksIn>516861596160000</pproTicksIn>
						<pproTicksOut>525203481600000</pproTicksOut>
						<file id="file-51"/>
						<sourcetrack>
							<mediatype>audio</mediatype>
							<trackindex>1</trackindex>
						</sourcetrack>
						<logginginfo>
							<description></description>
							<scene></scene>
							<shottake></shottake>
							<lognote></lognote>
						</logginginfo>
						<labels>
							<label2>Caribbean</label2>
						</labels>
					</clipitem>
					<clipitem id="clipitem-545" premiereChannelType="mono">
						<masterclipid>masterclip-55</masterclipid>
						<name>MAIN MIX_03.R.wav</name>
						<enabled>TRUE</enabled>
						<duration>171138</duration>
						<rate>
							<timebase>25</timebase>
							<ntsc>FALSE</ntsc>
						</rate>
						<start>7368</start>
						<end>7448</end>
						<in>51824</in>
						<out>51904</out>
						<pproTicksIn>526565007360000</pproTicksIn>
						<pproTicksOut>527377858560000</pproTicksOut>
						<file id="file-51"/>
						<sourcetrack>
							<mediatype>audio</mediatype>
							<trackindex>1</trackindex>
						</sourcetrack>
						<logginginfo>
							<description></description>
							<scene></scene>
							<shottake></shottake>
							<lognote></lognote>
						</logginginfo>
						<labels>
							<label2>Caribbean</label2>
						</labels>
					</clipitem>
					<clipitem id="clipitem-546" premiereChannelType="mono">
						<masterclipid>masterclip-55</masterclipid>
						<name>MAIN MIX_03.R.wav</name>
						<enabled>TRUE</enabled>
						<duration>171138</duration>
						<rate>
							<timebase>25</timebase>
							<ntsc>FALSE</ntsc>
						</rate>
						<start>7448</start>
						<end>8194</end>
						<in>52064</in>
						<out>52810</out>
						<pproTicksIn>529003560960000</pproTicksIn>
						<pproTicksOut>536583398400000</pproTicksOut>
						<file id="file-51"/>
						<sourcetrack>
							<mediatype>audio</mediatype>
							<trackindex>1</trackindex>
						</sourcetrack>
						<logginginfo>
							<description></description>
							<scene></scene>
							<shottake></shottake>
							<lognote></lognote>
						</logginginfo>
						<labels>
							<label2>Caribbean</label2>
						</labels>
					</clipitem>
					<clipitem id="clipitem-547" premiereChannelType="mono">
						<masterclipid>masterclip-55</masterclipid>
						<name>MAIN MIX_03.R.wav</name>
						<enabled>TRUE</enabled>
						<duration>171138</duration>
						<rate>
							<timebase>25</timebase>
							<ntsc>FALSE</ntsc>
						</rate>
						<start>8194</start>
						<end>8332</end>
						<in>57229</in>
						<out>57367</out>
						<pproTicksIn>581483266560000</pproTicksIn>
						<pproTicksOut>582885434880000</pproTicksOut>
						<file id="file-51"/>
						<sourcetrack>
							<mediatype>audio</mediatype>
							<trackindex>1</trackindex>
						</sourcetrack>
						<logginginfo>
							<description></description>
							<scene></scene>
							<shottake></shottake>
							<lognote></lognote>
						</logginginfo>
						<labels>
							<label2>Caribbean</label2>
						</labels>
					</clipitem>
					<clipitem id="clipitem-548" premiereChannelType="mono">
						<masterclipid>masterclip-55</masterclipid>
						<name>MAIN MIX_03.R.wav</name>
						<enabled>TRUE</enabled>
						<duration>171138</duration>
						<rate>
							<timebase>25</timebase>
							<ntsc>FALSE</ntsc>
						</rate>
						<start>8332</start>
						<end>8592</end>
						<in>58240</in>
						<out>58500</out>
						<pproTicksIn>591755673600000</pproTicksIn>
						<pproTicksOut>594397440000000</pproTicksOut>
						<file id="file-51"/>
						<sourcetrack>
							<mediatype>audio</mediatype>
							<trackindex>1</trackindex>
						</sourcetrack>
						<logginginfo>
							<description></description>
							<scene></scene>
							<shottake></shottake>
							<lognote></lognote>
						</logginginfo>
						<labels>
							<label2>Caribbean</label2>
						</labels>
					</clipitem>
					<clipitem id="clipitem-549" premiereChannelType="mono">
						<masterclipid>masterclip-55</masterclipid>
						<name>MAIN MIX_03.R.wav</name>
						<enabled>TRUE</enabled>
						<duration>171138</duration>
						<rate>
							<timebase>25</timebase>
							<ntsc>FALSE</ntsc>
						</rate>
						<start>8592</start>
						<end>8690</end>
						<in>58994</in>
						<out>59092</out>
						<pproTicksIn>599416796160000</pproTicksIn>
						<pproTicksOut>600412538880000</pproTicksOut>
						<file id="file-51"/>
						<sourcetrack>
							<mediatype>audio</mediatype>
							<trackindex>1</trackindex>
						</sourcetrack>
						<logginginfo>
							<description></description>
							<scene></scene>
							<shottake></shottake>
							<lognote></lognote>
						</logginginfo>
						<labels>
							<label2>Caribbean</label2>
						</labels>
					</clipitem>
					<clipitem id="clipitem-550" premiereChannelType="mono">
						<masterclipid>masterclip-55</masterclipid>
						<name>MAIN MIX_03.R.wav</name>
						<enabled>TRUE</enabled>
						<duration>171138</duration>
						<rate>
							<timebase>25</timebase>
							<ntsc>FALSE</ntsc>
						</rate>
						<start>8690</start>
						<end>8999</end>
						<in>59189</in>
						<out>59498</out>
						<pproTicksIn>601398120960000</pproTicksIn>
						<pproTicksOut>604537758720000</pproTicksOut>
						<file id="file-51"/>
						<sourcetrack>
							<mediatype>audio</mediatype>
							<trackindex>1</trackindex>
						</sourcetrack>
						<logginginfo>
							<description></description>
							<scene></scene>
							<shottake></shottake>
							<lognote></lognote>
						</logginginfo>
						<labels>
							<label2>Caribbean</label2>
						</labels>
					</clipitem>
					<clipitem id="clipitem-551" premiereChannelType="mono">
						<masterclipid>masterclip-55</masterclipid>
						<name>MAIN MIX_03.R.wav</name>
						<enabled>TRUE</enabled>
						<duration>171138</duration>
						<rate>
							<timebase>25</timebase>
							<ntsc>FALSE</ntsc>
						</rate>
						<start>8999</start>
						<end>9172</end>
						<in>59597</in>
						<out>59770</out>
						<pproTicksIn>605543662080000</pproTicksIn>
						<pproTicksOut>607301452800000</pproTicksOut>
						<file id="file-51"/>
						<sourcetrack>
							<mediatype>audio</mediatype>
							<trackindex>1</trackindex>
						</sourcetrack>
						<logginginfo>
							<description></description>
							<scene></scene>
							<shottake></shottake>
							<lognote></lognote>
						</logginginfo>
						<labels>
							<label2>Caribbean</label2>
						</labels>
					</clipitem>
					<clipitem id="clipitem-552" premiereChannelType="mono">
						<masterclipid>masterclip-55</masterclipid>
						<name>MAIN MIX_03.R.wav</name>
						<enabled>TRUE</enabled>
						<duration>171138</duration>
						<rate>
							<timebase>25</timebase>
							<ntsc>FALSE</ntsc>
						</rate>
						<start>9172</start>
						<end>9280</end>
						<in>59921</in>
						<out>60029</out>
						<pproTicksIn>608835709440000</pproTicksIn>
						<pproTicksOut>609933058560000</pproTicksOut>
						<file id="file-51"/>
						<sourcetrack>
							<mediatype>audio</mediatype>
							<trackindex>1</trackindex>
						</sourcetrack>
						<logginginfo>
							<description></description>
							<scene></scene>
							<shottake></shottake>
							<lognote></lognote>
						</logginginfo>
						<labels>
							<label2>Caribbean</label2>
						</labels>
					</clipitem>
					<clipitem id="clipitem-553" premiereChannelType="mono">
						<masterclipid>masterclip-55</masterclipid>
						<name>MAIN MIX_03.R.wav</name>
						<enabled>TRUE</enabled>
						<duration>171138</duration>
						<rate>
							<timebase>25</timebase>
							<ntsc>FALSE</ntsc>
						</rate>
						<start>9280</start>
						<end>9979</end>
						<in>65722</in>
						<out>66421</out>
						<pproTicksIn>667777582080000</pproTicksIn>
						<pproTicksOut>674879869440000</pproTicksOut>
						<file id="file-51"/>
						<sourcetrack>
							<mediatype>audio</mediatype>
							<trackindex>1</trackindex>
						</sourcetrack>
						<logginginfo>
							<description></description>
							<scene></scene>
							<shottake></shottake>
							<lognote></lognote>
						</logginginfo>
						<labels>
							<label2>Caribbean</label2>
						</labels>
					</clipitem>
					<clipitem id="clipitem-554" premiereChannelType="mono">
						<masterclipid>masterclip-55</masterclipid>
						<name>MAIN MIX_03.R.wav</name>
						<enabled>TRUE</enabled>
						<duration>171138</duration>
						<rate>
							<timebase>25</timebase>
							<ntsc>FALSE</ntsc>
						</rate>
						<start>9979</start>
						<end>10054</end>
						<in>66518</in>
						<out>66593</out>
						<pproTicksIn>675865451520000</pproTicksIn>
						<pproTicksOut>676627499520000</pproTicksOut>
						<file id="file-51"/>
						<sourcetrack>
							<mediatype>audio</mediatype>
							<trackindex>1</trackindex>
						</sourcetrack>
						<logginginfo>
							<description></description>
							<scene></scene>
							<shottake></shottake>
							<lognote></lognote>
						</logginginfo>
						<labels>
							<label2>Caribbean</label2>
						</labels>
					</clipitem>
					<clipitem id="clipitem-555" premiereChannelType="mono">
						<masterclipid>masterclip-55</masterclipid>
						<name>MAIN MIX_03.R.wav</name>
						<enabled>TRUE</enabled>
						<duration>171138</duration>
						<rate>
							<timebase>25</timebase>
							<ntsc>FALSE</ntsc>
						</rate>
						<start>10054</start>
						<end>10901</end>
						<in>67109</in>
						<out>67956</out>
						<pproTicksIn>681870389760000</pproTicksIn>
						<pproTicksOut>690476451840000</pproTicksOut>
						<file id="file-51"/>
						<sourcetrack>
							<mediatype>audio</mediatype>
							<trackindex>1</trackindex>
						</sourcetrack>
						<logginginfo>
							<description></description>
							<scene></scene>
							<shottake></shottake>
							<lognote></lognote>
						</logginginfo>
						<labels>
							<label2>Caribbean</label2>
						</labels>
					</clipitem>
					<clipitem id="clipitem-556" premiereChannelType="mono">
						<masterclipid>masterclip-55</masterclipid>
						<name>MAIN MIX_03.R.wav</name>
						<enabled>TRUE</enabled>
						<duration>171138</duration>
						<rate>
							<timebase>25</timebase>
							<ntsc>FALSE</ntsc>
						</rate>
						<start>10901</start>
						<end>11157</end>
						<in>67945</in>
						<out>68201</out>
						<pproTicksIn>690364684800000</pproTicksIn>
						<pproTicksOut>692965808640000</pproTicksOut>
						<file id="file-51"/>
						<sourcetrack>
							<mediatype>audio</mediatype>
							<trackindex>1</trackindex>
						</sourcetrack>
						<logginginfo>
							<description></description>
							<scene></scene>
							<shottake></shottake>
							<lognote></lognote>
						</logginginfo>
						<labels>
							<label2>Caribbean</label2>
						</labels>
					</clipitem>
					<clipitem id="clipitem-557" premiereChannelType="mono">
						<masterclipid>masterclip-55</masterclipid>
						<name>MAIN MIX_03.R.wav</name>
						<enabled>TRUE</enabled>
						<duration>171138</duration>
						<rate>
							<timebase>25</timebase>
							<ntsc>FALSE</ntsc>
						</rate>
						<start>11157</start>
						<end>11309</end>
						<in>68218</in>
						<out>68370</out>
						<pproTicksIn>693138539520000</pproTicksIn>
						<pproTicksOut>694682956800000</pproTicksOut>
						<file id="file-51"/>
						<sourcetrack>
							<mediatype>audio</mediatype>
							<trackindex>1</trackindex>
						</sourcetrack>
						<logginginfo>
							<description></description>
							<scene></scene>
							<shottake></shottake>
							<lognote></lognote>
						</logginginfo>
						<labels>
							<label2>Caribbean</label2>
						</labels>
					</clipitem>
					<clipitem id="clipitem-558" premiereChannelType="mono">
						<masterclipid>masterclip-55</masterclipid>
						<name>MAIN MIX_03.R.wav</name>
						<enabled>TRUE</enabled>
						<duration>171138</duration>
						<rate>
							<timebase>25</timebase>
							<ntsc>FALSE</ntsc>
						</rate>
						<start>11309</start>
						<end>11781</end>
						<in>68707</in>
						<out>69179</out>
						<pproTicksIn>698107092480000</pproTicksIn>
						<pproTicksOut>702902914560000</pproTicksOut>
						<file id="file-51"/>
						<sourcetrack>
							<mediatype>audio</mediatype>
							<trackindex>1</trackindex>
						</sourcetrack>
						<logginginfo>
							<description></description>
							<scene></scene>
							<shottake></shottake>
							<lognote></lognote>
						</logginginfo>
						<labels>
							<label2>Caribbean</label2>
						</labels>
					</clipitem>
					<clipitem id="clipitem-559" premiereChannelType="mono">
						<masterclipid>masterclip-55</masterclipid>
						<name>MAIN MIX_03.R.wav</name>
						<enabled>TRUE</enabled>
						<duration>171138</duration>
						<rate>
							<timebase>25</timebase>
							<ntsc>FALSE</ntsc>
						</rate>
						<start>11781</start>
						<end>12155</end>
						<in>70010</in>
						<out>70384</out>
						<pproTicksIn>711346406400000</pproTicksIn>
						<pproTicksOut>715146485760000</pproTicksOut>
						<file id="file-51"/>
						<sourcetrack>
							<mediatype>audio</mediatype>
							<trackindex>1</trackindex>
						</sourcetrack>
						<logginginfo>
							<description></description>
							<scene></scene>
							<shottake></shottake>
							<lognote></lognote>
						</logginginfo>
						<labels>
							<label2>Caribbean</label2>
						</labels>
					</clipitem>
					<clipitem id="clipitem-560" premiereChannelType="mono">
						<masterclipid>masterclip-55</masterclipid>
						<name>MAIN MIX_03.R.wav</name>
						<enabled>TRUE</enabled>
						<duration>171138</duration>
						<rate>
							<timebase>25</timebase>
							<ntsc>FALSE</ntsc>
						</rate>
						<start>12155</start>
						<end>13212</end>
						<in>70448</in>
						<out>71505</out>
						<pproTicksIn>715796766720000</pproTicksIn>
						<pproTicksOut>726536563200000</pproTicksOut>
						<file id="file-51"/>
						<sourcetrack>
							<mediatype>audio</mediatype>
							<trackindex>1</trackindex>
						</sourcetrack>
						<logginginfo>
							<description></description>
							<scene></scene>
							<shottake></shottake>
							<lognote></lognote>
						</logginginfo>
						<labels>
							<label2>Caribbean</label2>
						</labels>
					</clipitem>
					<clipitem id="clipitem-561" premiereChannelType="mono">
						<masterclipid>masterclip-55</masterclipid>
						<name>MAIN MIX_03.R.wav</name>
						<enabled>TRUE</enabled>
						<duration>171138</duration>
						<rate>
							<timebase>25</timebase>
							<ntsc>FALSE</ntsc>
						</rate>
						<start>13212</start>
						<end>13343</end>
						<in>71544</in>
						<out>71675</out>
						<pproTicksIn>726932828160000</pproTicksIn>
						<pproTicksOut>728263872000000</pproTicksOut>
						<file id="file-51"/>
						<sourcetrack>
							<mediatype>audio</mediatype>
							<trackindex>1</trackindex>
						</sourcetrack>
						<logginginfo>
							<description></description>
							<scene></scene>
							<shottake></shottake>
							<lognote></lognote>
						</logginginfo>
						<labels>
							<label2>Caribbean</label2>
						</labels>
					</clipitem>
					<clipitem id="clipitem-562" premiereChannelType="mono">
						<masterclipid>masterclip-55</masterclipid>
						<name>MAIN MIX_03.R.wav</name>
						<enabled>TRUE</enabled>
						<duration>171138</duration>
						<rate>
							<timebase>25</timebase>
							<ntsc>FALSE</ntsc>
						</rate>
						<start>13359</start>
						<end>13506</end>
						<in>77542</in>
						<out>77689</out>
						<pproTicksIn>787876346880000</pproTicksIn>
						<pproTicksOut>789369960960000</pproTicksOut>
						<file id="file-51"/>
						<sourcetrack>
							<mediatype>audio</mediatype>
							<trackindex>1</trackindex>
						</sourcetrack>
						<logginginfo>
							<description></description>
							<scene></scene>
							<shottake></shottake>
							<lognote></lognote>
						</logginginfo>
						<labels>
							<label2>Caribbean</label2>
						</labels>
					</clipitem>
					<clipitem id="clipitem-563" premiereChannelType="mono">
						<masterclipid>masterclip-55</masterclipid>
						<name>MAIN MIX_03.R.wav</name>
						<enabled>TRUE</enabled>
						<duration>171138</duration>
						<rate>
							<timebase>25</timebase>
							<ntsc>FALSE</ntsc>
						</rate>
						<start>13506</start>
						<end>14081</end>
						<in>78019</in>
						<out>78594</out>
						<pproTicksIn>792722972160000</pproTicksIn>
						<pproTicksOut>798565340160000</pproTicksOut>
						<file id="file-51"/>
						<sourcetrack>
							<mediatype>audio</mediatype>
							<trackindex>1</trackindex>
						</sourcetrack>
						<logginginfo>
							<description></description>
							<scene></scene>
							<shottake></shottake>
							<lognote></lognote>
						</logginginfo>
						<labels>
							<label2>Caribbean</label2>
						</labels>
					</clipitem>
					<clipitem id="clipitem-564" premiereChannelType="mono">
						<masterclipid>masterclip-55</masterclipid>
						<name>MAIN MIX_03.R.wav</name>
						<enabled>TRUE</enabled>
						<duration>171138</duration>
						<rate>
							<timebase>25</timebase>
							<ntsc>FALSE</ntsc>
						</rate>
						<start>14081</start>
						<end>14232</end>
						<in>78676</in>
						<out>78827</out>
						<pproTicksIn>799398512640000</pproTicksIn>
						<pproTicksOut>800932769280000</pproTicksOut>
						<file id="file-51"/>
						<sourcetrack>
							<mediatype>audio</mediatype>
							<trackindex>1</trackindex>
						</sourcetrack>
						<logginginfo>
							<description></description>
							<scene></scene>
							<shottake></shottake>
							<lognote></lognote>
						</logginginfo>
						<labels>
							<label2>Caribbean</label2>
						</labels>
					</clipitem>
					<clipitem id="clipitem-565" premiereChannelType="mono">
						<masterclipid>masterclip-55</masterclipid>
						<name>MAIN MIX_03.R.wav</name>
						<enabled>TRUE</enabled>
						<duration>171138</duration>
						<rate>
							<timebase>25</timebase>
							<ntsc>FALSE</ntsc>
						</rate>
						<start>14232</start>
						<end>14550</end>
						<in>78886</in>
						<out>79204</out>
						<pproTicksIn>801532247040000</pproTicksIn>
						<pproTicksOut>804763330560000</pproTicksOut>
						<file id="file-51"/>
						<sourcetrack>
							<mediatype>audio</mediatype>
							<trackindex>1</trackindex>
						</sourcetrack>
						<logginginfo>
							<description></description>
							<scene></scene>
							<shottake></shottake>
							<lognote></lognote>
						</logginginfo>
						<labels>
							<label2>Caribbean</label2>
						</labels>
					</clipitem>
					<clipitem id="clipitem-566" premiereChannelType="mono">
						<masterclipid>masterclip-55</masterclipid>
						<name>MAIN MIX_03.R.wav</name>
						<enabled>TRUE</enabled>
						<duration>171138</duration>
						<rate>
							<timebase>25</timebase>
							<ntsc>FALSE</ntsc>
						</rate>
						<start>14550</start>
						<end>14774</end>
						<in>79562</in>
						<out>79786</out>
						<pproTicksIn>808400839680000</pproTicksIn>
						<pproTicksOut>810676823040000</pproTicksOut>
						<file id="file-51"/>
						<sourcetrack>
							<mediatype>audio</mediatype>
							<trackindex>1</trackindex>
						</sourcetrack>
						<logginginfo>
							<description></description>
							<scene></scene>
							<shottake></shottake>
							<lognote></lognote>
						</logginginfo>
						<labels>
							<label2>Caribbean</label2>
						</labels>
					</clipitem>
					<clipitem id="clipitem-567" premiereChannelType="mono">
						<masterclipid>masterclip-55</masterclipid>
						<name>MAIN MIX_03.R.wav</name>
						<enabled>TRUE</enabled>
						<duration>171138</duration>
						<rate>
							<timebase>25</timebase>
							<ntsc>FALSE</ntsc>
						</rate>
						<start>14774</start>
						<end>14798</end>
						<in>79204</in>
						<out>79228</out>
						<pproTicksIn>804763330560000</pproTicksIn>
						<pproTicksOut>805007185920000</pproTicksOut>
						<file id="file-51"/>
						<sourcetrack>
							<mediatype>audio</mediatype>
							<trackindex>1</trackindex>
						</sourcetrack>
						<logginginfo>
							<description></description>
							<scene></scene>
							<shottake></shottake>
							<lognote></lognote>
						</logginginfo>
						<labels>
							<label2>Caribbean</label2>
						</labels>
					</clipitem>
					<clipitem id="clipitem-568" premiereChannelType="mono">
						<masterclipid>masterclip-55</masterclipid>
						<name>MAIN MIX_03.R.wav</name>
						<enabled>TRUE</enabled>
						<duration>171138</duration>
						<rate>
							<timebase>25</timebase>
							<ntsc>FALSE</ntsc>
						</rate>
						<start>14798</start>
						<end>14887</end>
						<in>80182</in>
						<out>80271</out>
						<pproTicksIn>814700436480000</pproTicksIn>
						<pproTicksOut>815604733440000</pproTicksOut>
						<file id="file-51"/>
						<sourcetrack>
							<mediatype>audio</mediatype>
							<trackindex>1</trackindex>
						</sourcetrack>
						<logginginfo>
							<description></description>
							<scene></scene>
							<shottake></shottake>
							<lognote></lognote>
						</logginginfo>
						<labels>
							<label2>Caribbean</label2>
						</labels>
					</clipitem>
					<clipitem id="clipitem-569" premiereChannelType="mono">
						<masterclipid>masterclip-55</masterclipid>
						<name>MAIN MIX_03.R.wav</name>
						<enabled>TRUE</enabled>
						<duration>171138</duration>
						<rate>
							<timebase>25</timebase>
							<ntsc>FALSE</ntsc>
						</rate>
						<start>14887</start>
						<end>15129</end>
						<in>80569</in>
						<out>80811</out>
						<pproTicksIn>818632604160000</pproTicksIn>
						<pproTicksOut>821091479040000</pproTicksOut>
						<file id="file-51"/>
						<sourcetrack>
							<mediatype>audio</mediatype>
							<trackindex>1</trackindex>
						</sourcetrack>
						<logginginfo>
							<description></description>
							<scene></scene>
							<shottake></shottake>
							<lognote></lognote>
						</logginginfo>
						<labels>
							<label2>Caribbean</label2>
						</labels>
					</clipitem>
					<clipitem id="clipitem-570" premiereChannelType="mono">
						<masterclipid>masterclip-55</masterclipid>
						<name>MAIN MIX_03.R.wav</name>
						<enabled>TRUE</enabled>
						<duration>171138</duration>
						<rate>
							<timebase>25</timebase>
							<ntsc>FALSE</ntsc>
						</rate>
						<start>15129</start>
						<end>15493</end>
						<in>80817</in>
						<out>81181</out>
						<pproTicksIn>821152442880000</pproTicksIn>
						<pproTicksOut>824850915840000</pproTicksOut>
						<file id="file-51"/>
						<sourcetrack>
							<mediatype>audio</mediatype>
							<trackindex>1</trackindex>
						</sourcetrack>
						<logginginfo>
							<description></description>
							<scene></scene>
							<shottake></shottake>
							<lognote></lognote>
						</logginginfo>
						<labels>
							<label2>Caribbean</label2>
						</labels>
					</clipitem>
					<clipitem id="clipitem-571" premiereChannelType="mono">
						<masterclipid>masterclip-55</masterclipid>
						<name>MAIN MIX_03.R.wav</name>
						<enabled>TRUE</enabled>
						<duration>171138</duration>
						<rate>
							<timebase>25</timebase>
							<ntsc>FALSE</ntsc>
						</rate>
						<start>15493</start>
						<end>15657</end>
						<in>81234</in>
						<out>81398</out>
						<pproTicksIn>825389429760000</pproTicksIn>
						<pproTicksOut>827055774720000</pproTicksOut>
						<file id="file-51"/>
						<sourcetrack>
							<mediatype>audio</mediatype>
							<trackindex>1</trackindex>
						</sourcetrack>
						<logginginfo>
							<description></description>
							<scene></scene>
							<shottake></shottake>
							<lognote></lognote>
						</logginginfo>
						<labels>
							<label2>Caribbean</label2>
						</labels>
					</clipitem>
					<clipitem id="clipitem-572" premiereChannelType="mono">
						<masterclipid>masterclip-55</masterclipid>
						<name>MAIN MIX_03.R.wav</name>
						<enabled>TRUE</enabled>
						<duration>171138</duration>
						<rate>
							<timebase>25</timebase>
							<ntsc>FALSE</ntsc>
						</rate>
						<start>15657</start>
						<end>15850</end>
						<in>81563</in>
						<out>81756</out>
						<pproTicksIn>828732280320000</pproTicksIn>
						<pproTicksOut>830693283840000</pproTicksOut>
						<file id="file-51"/>
						<sourcetrack>
							<mediatype>audio</mediatype>
							<trackindex>1</trackindex>
						</sourcetrack>
						<logginginfo>
							<description></description>
							<scene></scene>
							<shottake></shottake>
							<lognote></lognote>
						</logginginfo>
						<labels>
							<label2>Caribbean</label2>
						</labels>
					</clipitem>
					<clipitem id="clipitem-573" premiereChannelType="mono">
						<masterclipid>masterclip-55</masterclipid>
						<name>MAIN MIX_03.R.wav</name>
						<enabled>TRUE</enabled>
						<duration>171138</duration>
						<rate>
							<timebase>25</timebase>
							<ntsc>FALSE</ntsc>
						</rate>
						<start>15850</start>
						<end>16018</end>
						<in>81984</in>
						<out>82152</out>
						<pproTicksIn>833009909760000</pproTicksIn>
						<pproTicksOut>834716897280000</pproTicksOut>
						<file id="file-51"/>
						<sourcetrack>
							<mediatype>audio</mediatype>
							<trackindex>1</trackindex>
						</sourcetrack>
						<logginginfo>
							<description></description>
							<scene></scene>
							<shottake></shottake>
							<lognote></lognote>
						</logginginfo>
						<labels>
							<label2>Caribbean</label2>
						</labels>
					</clipitem>
					<clipitem id="clipitem-574" premiereChannelType="mono">
						<masterclipid>masterclip-55</masterclipid>
						<name>MAIN MIX_03.R.wav</name>
						<enabled>TRUE</enabled>
						<duration>171138</duration>
						<rate>
							<timebase>25</timebase>
							<ntsc>FALSE</ntsc>
						</rate>
						<start>16018</start>
						<end>16073</end>
						<in>82477</in>
						<out>82532</out>
						<pproTicksIn>838019105280000</pproTicksIn>
						<pproTicksOut>838577940480000</pproTicksOut>
						<file id="file-51"/>
						<sourcetrack>
							<mediatype>audio</mediatype>
							<trackindex>1</trackindex>
						</sourcetrack>
						<logginginfo>
							<description></description>
							<scene></scene>
							<shottake></shottake>
							<lognote></lognote>
						</logginginfo>
						<labels>
							<label2>Caribbean</label2>
						</labels>
					</clipitem>
					<clipitem id="clipitem-575" premiereChannelType="mono">
						<masterclipid>masterclip-55</masterclipid>
						<name>MAIN MIX_03.R.wav</name>
						<enabled>TRUE</enabled>
						<duration>171138</duration>
						<rate>
							<timebase>25</timebase>
							<ntsc>FALSE</ntsc>
						</rate>
						<start>16073</start>
						<end>16115</end>
						<in>83437</in>
						<out>83479</out>
						<pproTicksIn>847773319680000</pproTicksIn>
						<pproTicksOut>848200066560000</pproTicksOut>
						<file id="file-51"/>
						<sourcetrack>
							<mediatype>audio</mediatype>
							<trackindex>1</trackindex>
						</sourcetrack>
						<logginginfo>
							<description></description>
							<scene></scene>
							<shottake></shottake>
							<lognote></lognote>
						</logginginfo>
						<labels>
							<label2>Caribbean</label2>
						</labels>
					</clipitem>
					<clipitem id="clipitem-576" premiereChannelType="mono">
						<masterclipid>masterclip-55</masterclipid>
						<name>MAIN MIX_03.R.wav</name>
						<enabled>TRUE</enabled>
						<duration>171138</duration>
						<rate>
							<timebase>25</timebase>
							<ntsc>FALSE</ntsc>
						</rate>
						<start>16115</start>
						<end>16204</end>
						<in>83479</in>
						<out>83568</out>
						<pproTicksIn>848200066560000</pproTicksIn>
						<pproTicksOut>849104363520000</pproTicksOut>
						<file id="file-51"/>
						<sourcetrack>
							<mediatype>audio</mediatype>
							<trackindex>1</trackindex>
						</sourcetrack>
						<logginginfo>
							<description></description>
							<scene></scene>
							<shottake></shottake>
							<lognote></lognote>
						</logginginfo>
						<labels>
							<label2>Caribbean</label2>
						</labels>
					</clipitem>
					<clipitem id="clipitem-577" premiereChannelType="mono">
						<masterclipid>masterclip-55</masterclipid>
						<name>MAIN MIX_03.R.wav</name>
						<enabled>TRUE</enabled>
						<duration>171138</duration>
						<rate>
							<timebase>25</timebase>
							<ntsc>FALSE</ntsc>
						</rate>
						<start>16204</start>
						<end>16898</end>
						<in>83568</in>
						<out>84262</out>
						<pproTicksIn>849104363520000</pproTicksIn>
						<pproTicksOut>856155847680000</pproTicksOut>
						<file id="file-51"/>
						<sourcetrack>
							<mediatype>audio</mediatype>
							<trackindex>1</trackindex>
						</sourcetrack>
						<logginginfo>
							<description></description>
							<scene></scene>
							<shottake></shottake>
							<lognote></lognote>
						</logginginfo>
						<labels>
							<label2>Caribbean</label2>
						</labels>
					</clipitem>
					<clipitem id="clipitem-578" premiereChannelType="mono">
						<masterclipid>masterclip-55</masterclipid>
						<name>MAIN MIX_03.R.wav</name>
						<enabled>TRUE</enabled>
						<duration>171138</duration>
						<rate>
							<timebase>25</timebase>
							<ntsc>FALSE</ntsc>
						</rate>
						<start>16898</start>
						<end>16971</end>
						<in>84282</in>
						<out>84355</out>
						<pproTicksIn>856359060480000</pproTicksIn>
						<pproTicksOut>857100787200000</pproTicksOut>
						<file id="file-51"/>
						<sourcetrack>
							<mediatype>audio</mediatype>
							<trackindex>1</trackindex>
						</sourcetrack>
						<logginginfo>
							<description></description>
							<scene></scene>
							<shottake></shottake>
							<lognote></lognote>
						</logginginfo>
						<labels>
							<label2>Caribbean</label2>
						</labels>
					</clipitem>
					<clipitem id="clipitem-579" premiereChannelType="mono">
						<masterclipid>masterclip-55</masterclipid>
						<name>MAIN MIX_03.R.wav</name>
						<enabled>TRUE</enabled>
						<duration>171138</duration>
						<rate>
							<timebase>25</timebase>
							<ntsc>FALSE</ntsc>
						</rate>
						<start>16971</start>
						<end>17329</end>
						<in>84400</in>
						<out>84758</out>
						<pproTicksIn>857558016000000</pproTicksIn>
						<pproTicksOut>861195525120000</pproTicksOut>
						<file id="file-51"/>
						<sourcetrack>
							<mediatype>audio</mediatype>
							<trackindex>1</trackindex>
						</sourcetrack>
						<logginginfo>
							<description></description>
							<scene></scene>
							<shottake></shottake>
							<lognote></lognote>
						</logginginfo>
						<labels>
							<label2>Caribbean</label2>
						</labels>
					</clipitem>
					<clipitem id="clipitem-580" premiereChannelType="mono">
						<masterclipid>masterclip-55</masterclipid>
						<name>MAIN MIX_03.R.wav</name>
						<enabled>TRUE</enabled>
						<duration>171138</duration>
						<rate>
							<timebase>25</timebase>
							<ntsc>FALSE</ntsc>
						</rate>
						<start>17329</start>
						<end>17417</end>
						<in>85268</in>
						<out>85356</out>
						<pproTicksIn>866377451520000</pproTicksIn>
						<pproTicksOut>867271587840000</pproTicksOut>
						<file id="file-51"/>
						<sourcetrack>
							<mediatype>audio</mediatype>
							<trackindex>1</trackindex>
						</sourcetrack>
						<logginginfo>
							<description></description>
							<scene></scene>
							<shottake></shottake>
							<lognote></lognote>
						</logginginfo>
						<labels>
							<label2>Caribbean</label2>
						</labels>
					</clipitem>
					<clipitem id="clipitem-581" premiereChannelType="mono">
						<masterclipid>masterclip-55</masterclipid>
						<name>MAIN MIX_03.R.wav</name>
						<enabled>TRUE</enabled>
						<duration>171138</duration>
						<rate>
							<timebase>25</timebase>
							<ntsc>FALSE</ntsc>
						</rate>
						<start>17417</start>
						<end>17611</end>
						<in>85074</in>
						<out>85268</out>
						<pproTicksIn>864406287360000</pproTicksIn>
						<pproTicksOut>866377451520000</pproTicksOut>
						<file id="file-51"/>
						<sourcetrack>
							<mediatype>audio</mediatype>
							<trackindex>1</trackindex>
						</sourcetrack>
						<logginginfo>
							<description></description>
							<scene></scene>
							<shottake></shottake>
							<lognote></lognote>
						</logginginfo>
						<labels>
							<label2>Caribbean</label2>
						</labels>
					</clipitem>
					<clipitem id="clipitem-582" premiereChannelType="mono">
						<masterclipid>masterclip-55</masterclipid>
						<name>MAIN MIX_03.R.wav</name>
						<enabled>TRUE</enabled>
						<duration>171138</duration>
						<rate>
							<timebase>25</timebase>
							<ntsc>FALSE</ntsc>
						</rate>
						<start>17611</start>
						<end>17830</end>
						<in>85560</in>
						<out>85779</out>
						<pproTicksIn>869344358400000</pproTicksIn>
						<pproTicksOut>871569538560000</pproTicksOut>
						<file id="file-51"/>
						<sourcetrack>
							<mediatype>audio</mediatype>
							<trackindex>1</trackindex>
						</sourcetrack>
						<logginginfo>
							<description></description>
							<scene></scene>
							<shottake></shottake>
							<lognote></lognote>
						</logginginfo>
						<labels>
							<label2>Caribbean</label2>
						</labels>
					</clipitem>
					<clipitem id="clipitem-583" premiereChannelType="mono">
						<masterclipid>masterclip-55</masterclipid>
						<name>MAIN MIX_03.R.wav</name>
						<enabled>TRUE</enabled>
						<duration>171138</duration>
						<rate>
							<timebase>25</timebase>
							<ntsc>FALSE</ntsc>
						</rate>
						<start>17830</start>
						<end>17876</end>
						<in>83479</in>
						<out>83525</out>
						<pproTicksIn>848200066560000</pproTicksIn>
						<pproTicksOut>848667456000000</pproTicksOut>
						<file id="file-51"/>
						<sourcetrack>
							<mediatype>audio</mediatype>
							<trackindex>1</trackindex>
						</sourcetrack>
						<logginginfo>
							<description></description>
							<scene></scene>
							<shottake></shottake>
							<lognote></lognote>
						</logginginfo>
						<labels>
							<label2>Caribbean</label2>
						</labels>
					</clipitem>
					<clipitem id="clipitem-584" premiereChannelType="mono">
						<masterclipid>masterclip-55</masterclipid>
						<name>MAIN MIX_03.R.wav</name>
						<enabled>TRUE</enabled>
						<duration>171138</duration>
						<rate>
							<timebase>25</timebase>
							<ntsc>FALSE</ntsc>
						</rate>
						<start>17876</start>
						<end>18012</end>
						<in>85841</in>
						<out>85977</out>
						<pproTicksIn>872199498240000</pproTicksIn>
						<pproTicksOut>873581345280000</pproTicksOut>
						<file id="file-51"/>
						<sourcetrack>
							<mediatype>audio</mediatype>
							<trackindex>1</trackindex>
						</sourcetrack>
						<logginginfo>
							<description></description>
							<scene></scene>
							<shottake></shottake>
							<lognote></lognote>
						</logginginfo>
						<labels>
							<label2>Caribbean</label2>
						</labels>
					</clipitem>
					<clipitem id="clipitem-585" premiereChannelType="mono">
						<masterclipid>masterclip-55</masterclipid>
						<name>MAIN MIX_03.R.wav</name>
						<enabled>TRUE</enabled>
						<duration>171138</duration>
						<rate>
							<timebase>25</timebase>
							<ntsc>FALSE</ntsc>
						</rate>
						<start>18012</start>
						<end>18158</end>
						<in>116811</in>
						<out>116957</out>
						<pproTicksIn>1186874519040000</pproTicksIn>
						<pproTicksOut>1188357972480000</pproTicksOut>
						<file id="file-51"/>
						<sourcetrack>
							<mediatype>audio</mediatype>
							<trackindex>1</trackindex>
						</sourcetrack>
						<logginginfo>
							<description></description>
							<scene></scene>
							<shottake></shottake>
							<lognote></lognote>
						</logginginfo>
						<labels>
							<label2>Caribbean</label2>
						</labels>
					</clipitem>
					<clipitem id="clipitem-586" premiereChannelType="mono">
						<masterclipid>masterclip-55</masterclipid>
						<name>MAIN MIX_03.R.wav</name>
						<enabled>TRUE</enabled>
						<duration>171138</duration>
						<rate>
							<timebase>25</timebase>
							<ntsc>FALSE</ntsc>
						</rate>
						<start>18158</start>
						<end>18332</end>
						<in>86150</in>
						<out>86324</out>
						<pproTicksIn>875339136000000</pproTicksIn>
						<pproTicksOut>877107087360000</pproTicksOut>
						<file id="file-51"/>
						<sourcetrack>
							<mediatype>audio</mediatype>
							<trackindex>1</trackindex>
						</sourcetrack>
						<logginginfo>
							<description></description>
							<scene></scene>
							<shottake></shottake>
							<lognote></lognote>
						</logginginfo>
						<labels>
							<label2>Caribbean</label2>
						</labels>
					</clipitem>
					<clipitem id="clipitem-587" premiereChannelType="mono">
						<masterclipid>masterclip-55</masterclipid>
						<name>MAIN MIX_03.R.wav</name>
						<enabled>TRUE</enabled>
						<duration>171138</duration>
						<rate>
							<timebase>25</timebase>
							<ntsc>FALSE</ntsc>
						</rate>
						<start>18332</start>
						<end>22265</end>
						<in>87920</in>
						<out>91853</out>
						<pproTicksIn>893323468800000</pproTicksIn>
						<pproTicksOut>933285265920000</pproTicksOut>
						<file id="file-51"/>
						<sourcetrack>
							<mediatype>audio</mediatype>
							<trackindex>1</trackindex>
						</sourcetrack>
						<logginginfo>
							<description></description>
							<scene></scene>
							<shottake></shottake>
							<lognote></lognote>
						</logginginfo>
						<labels>
							<label2>Caribbean</label2>
						</labels>
					</clipitem>
					<clipitem id="clipitem-588" premiereChannelType="mono">
						<masterclipid>masterclip-55</masterclipid>
						<name>MAIN MIX_03.R.wav</name>
						<enabled>TRUE</enabled>
						<duration>171138</duration>
						<rate>
							<timebase>25</timebase>
							<ntsc>FALSE</ntsc>
						</rate>
						<start>22265</start>
						<end>23367</end>
						<in>91952</in>
						<out>93054</out>
						<pproTicksIn>934291169280000</pproTicksIn>
						<pproTicksOut>945488194560000</pproTicksOut>
						<file id="file-51"/>
						<sourcetrack>
							<mediatype>audio</mediatype>
							<trackindex>1</trackindex>
						</sourcetrack>
						<logginginfo>
							<description></description>
							<scene></scene>
							<shottake></shottake>
							<lognote></lognote>
						</logginginfo>
						<labels>
							<label2>Caribbean</label2>
						</labels>
					</clipitem>
					<clipitem id="clipitem-589" premiereChannelType="mono">
						<masterclipid>masterclip-55</masterclipid>
						<name>MAIN MIX_03.R.wav</name>
						<enabled>TRUE</enabled>
						<duration>171138</duration>
						<rate>
							<timebase>25</timebase>
							<ntsc>FALSE</ntsc>
						</rate>
						<start>23367</start>
						<end>23724</end>
						<in>93377</in>
						<out>93734</out>
						<pproTicksIn>948770081280000</pproTicksIn>
						<pproTicksOut>952397429760000</pproTicksOut>
						<file id="file-51"/>
						<sourcetrack>
							<mediatype>audio</mediatype>
							<trackindex>1</trackindex>
						</sourcetrack>
						<logginginfo>
							<description></description>
							<scene></scene>
							<shottake></shottake>
							<lognote></lognote>
						</logginginfo>
						<labels>
							<label2>Caribbean</label2>
						</labels>
					</clipitem>
					<clipitem id="clipitem-590" premiereChannelType="mono">
						<masterclipid>masterclip-55</masterclipid>
						<name>MAIN MIX_03.R.wav</name>
						<enabled>TRUE</enabled>
						<duration>171138</duration>
						<rate>
							<timebase>25</timebase>
							<ntsc>FALSE</ntsc>
						</rate>
						<start>23724</start>
						<end>24114</end>
						<in>94350</in>
						<out>94740</out>
						<pproTicksIn>958656384000000</pproTicksIn>
						<pproTicksOut>962619033600000</pproTicksOut>
						<file id="file-51"/>
						<sourcetrack>
							<mediatype>audio</mediatype>
							<trackindex>1</trackindex>
						</sourcetrack>
						<logginginfo>
							<description></description>
							<scene></scene>
							<shottake></shottake>
							<lognote></lognote>
						</logginginfo>
						<labels>
							<label2>Caribbean</label2>
						</labels>
					</clipitem>
					<clipitem id="clipitem-591" premiereChannelType="mono">
						<masterclipid>masterclip-55</masterclipid>
						<name>MAIN MIX_03.R.wav</name>
						<enabled>TRUE</enabled>
						<duration>171138</duration>
						<rate>
							<timebase>25</timebase>
							<ntsc>FALSE</ntsc>
						</rate>
						<start>24114</start>
						<end>24241</end>
						<in>94797</in>
						<out>94924</out>
						<pproTicksIn>963198190080000</pproTicksIn>
						<pproTicksOut>964488591360000</pproTicksOut>
						<file id="file-51"/>
						<sourcetrack>
							<mediatype>audio</mediatype>
							<trackindex>1</trackindex>
						</sourcetrack>
						<logginginfo>
							<description></description>
							<scene></scene>
							<shottake></shottake>
							<lognote></lognote>
						</logginginfo>
						<labels>
							<label2>Caribbean</label2>
						</labels>
					</clipitem>
					<clipitem id="clipitem-592" premiereChannelType="mono">
						<masterclipid>masterclip-55</masterclipid>
						<name>MAIN MIX_03.R.wav</name>
						<enabled>TRUE</enabled>
						<duration>171138</duration>
						<rate>
							<timebase>25</timebase>
							<ntsc>FALSE</ntsc>
						</rate>
						<start>24241</start>
						<end>24388</end>
						<in>95094</in>
						<out>95241</out>
						<pproTicksIn>966215900160000</pproTicksIn>
						<pproTicksOut>967709514240000</pproTicksOut>
						<file id="file-51"/>
						<sourcetrack>
							<mediatype>audio</mediatype>
							<trackindex>1</trackindex>
						</sourcetrack>
						<logginginfo>
							<description></description>
							<scene></scene>
							<shottake></shottake>
							<lognote></lognote>
						</logginginfo>
						<labels>
							<label2>Caribbean</label2>
						</labels>
					</clipitem>
					<clipitem id="clipitem-593" premiereChannelType="mono">
						<masterclipid>masterclip-55</masterclipid>
						<name>MAIN MIX_03.R.wav</name>
						<enabled>TRUE</enabled>
						<duration>171138</duration>
						<rate>
							<timebase>25</timebase>
							<ntsc>FALSE</ntsc>
						</rate>
						<start>24388</start>
						<end>24600</end>
						<in>95265</in>
						<out>95477</out>
						<pproTicksIn>967953369600000</pproTicksIn>
						<pproTicksOut>970107425280000</pproTicksOut>
						<file id="file-51"/>
						<sourcetrack>
							<mediatype>audio</mediatype>
							<trackindex>1</trackindex>
						</sourcetrack>
						<logginginfo>
							<description></description>
							<scene></scene>
							<shottake></shottake>
							<lognote></lognote>
						</logginginfo>
						<labels>
							<label2>Caribbean</label2>
						</labels>
					</clipitem>
					<clipitem id="clipitem-594" premiereChannelType="mono">
						<masterclipid>masterclip-55</masterclipid>
						<name>MAIN MIX_03.R.wav</name>
						<enabled>TRUE</enabled>
						<duration>171138</duration>
						<rate>
							<timebase>25</timebase>
							<ntsc>FALSE</ntsc>
						</rate>
						<start>24600</start>
						<end>24872</end>
						<in>95504</in>
						<out>95776</out>
						<pproTicksIn>970381762560000</pproTicksIn>
						<pproTicksOut>973145456640000</pproTicksOut>
						<file id="file-51"/>
						<sourcetrack>
							<mediatype>audio</mediatype>
							<trackindex>1</trackindex>
						</sourcetrack>
						<logginginfo>
							<description></description>
							<scene></scene>
							<shottake></shottake>
							<lognote></lognote>
						</logginginfo>
						<labels>
							<label2>Caribbean</label2>
						</labels>
					</clipitem>
					<clipitem id="clipitem-595" premiereChannelType="mono">
						<masterclipid>masterclip-55</masterclipid>
						<name>MAIN MIX_03.R.wav</name>
						<enabled>TRUE</enabled>
						<duration>171138</duration>
						<rate>
							<timebase>25</timebase>
							<ntsc>FALSE</ntsc>
						</rate>
						<start>24872</start>
						<end>26291</end>
						<in>95789</in>
						<out>97208</out>
						<pproTicksIn>973277544960000</pproTicksIn>
						<pproTicksOut>987695493120000</pproTicksOut>
						<file id="file-51"/>
						<sourcetrack>
							<mediatype>audio</mediatype>
							<trackindex>1</trackindex>
						</sourcetrack>
						<logginginfo>
							<description></description>
							<scene></scene>
							<shottake></shottake>
							<lognote></lognote>
						</logginginfo>
						<labels>
							<label2>Caribbean</label2>
						</labels>
					</clipitem>
					<clipitem id="clipitem-596" premiereChannelType="mono">
						<masterclipid>masterclip-55</masterclipid>
						<name>MAIN MIX_03.R.wav</name>
						<enabled>TRUE</enabled>
						<duration>171138</duration>
						<rate>
							<timebase>25</timebase>
							<ntsc>FALSE</ntsc>
						</rate>
						<start>26291</start>
						<end>26387</end>
						<in>97273</in>
						<out>97369</out>
						<pproTicksIn>988355934720000</pproTicksIn>
						<pproTicksOut>989331356160000</pproTicksOut>
						<file id="file-51"/>
						<sourcetrack>
							<mediatype>audio</mediatype>
							<trackindex>1</trackindex>
						</sourcetrack>
						<logginginfo>
							<description></description>
							<scene></scene>
							<shottake></shottake>
							<lognote></lognote>
						</logginginfo>
						<labels>
							<label2>Caribbean</label2>
						</labels>
					</clipitem>
					<clipitem id="clipitem-597" premiereChannelType="mono">
						<masterclipid>masterclip-55</masterclipid>
						<name>MAIN MIX_03.R.wav</name>
						<enabled>TRUE</enabled>
						<duration>171138</duration>
						<rate>
							<timebase>25</timebase>
							<ntsc>FALSE</ntsc>
						</rate>
						<start>26387</start>
						<end>27111</end>
						<in>97523</in>
						<out>98247</out>
						<pproTicksIn>990896094720000</pproTicksIn>
						<pproTicksOut>998252398080000</pproTicksOut>
						<file id="file-51"/>
						<sourcetrack>
							<mediatype>audio</mediatype>
							<trackindex>1</trackindex>
						</sourcetrack>
						<logginginfo>
							<description></description>
							<scene></scene>
							<shottake></shottake>
							<lognote></lognote>
						</logginginfo>
						<labels>
							<label2>Caribbean</label2>
						</labels>
					</clipitem>
					<clipitem id="clipitem-598" premiereChannelType="mono">
						<masterclipid>masterclip-55</masterclipid>
						<name>MAIN MIX_03.R.wav</name>
						<enabled>TRUE</enabled>
						<duration>171138</duration>
						<rate>
							<timebase>25</timebase>
							<ntsc>FALSE</ntsc>
						</rate>
						<start>27111</start>
						<end>27316</end>
						<in>98260</in>
						<out>98465</out>
						<pproTicksIn>998384486400000</pproTicksIn>
						<pproTicksOut>1000467417600000</pproTicksOut>
						<file id="file-51"/>
						<sourcetrack>
							<mediatype>audio</mediatype>
							<trackindex>1</trackindex>
						</sourcetrack>
						<logginginfo>
							<description></description>
							<scene></scene>
							<shottake></shottake>
							<lognote></lognote>
						</logginginfo>
						<labels>
							<label2>Caribbean</label2>
						</labels>
					</clipitem>
					<clipitem id="clipitem-599" premiereChannelType="mono">
						<masterclipid>masterclip-55</masterclipid>
						<name>MAIN MIX_03.R.wav</name>
						<enabled>TRUE</enabled>
						<duration>171138</duration>
						<rate>
							<timebase>25</timebase>
							<ntsc>FALSE</ntsc>
						</rate>
						<start>27316</start>
						<end>27702</end>
						<in>98958</in>
						<out>99344</out>
						<pproTicksIn>1005476613120000</pproTicksIn>
						<pproTicksOut>1009398620160000</pproTicksOut>
						<file id="file-51"/>
						<sourcetrack>
							<mediatype>audio</mediatype>
							<trackindex>1</trackindex>
						</sourcetrack>
						<logginginfo>
							<description></description>
							<scene></scene>
							<shottake></shottake>
							<lognote></lognote>
						</logginginfo>
						<labels>
							<label2>Caribbean</label2>
						</labels>
					</clipitem>
					<clipitem id="clipitem-600" premiereChannelType="mono">
						<masterclipid>masterclip-55</masterclipid>
						<name>MAIN MIX_03.R.wav</name>
						<enabled>TRUE</enabled>
						<duration>171138</duration>
						<rate>
							<timebase>25</timebase>
							<ntsc>FALSE</ntsc>
						</rate>
						<start>27702</start>
						<end>27789</end>
						<in>99640</in>
						<out>99727</out>
						<pproTicksIn>1012406169600000</pproTicksIn>
						<pproTicksOut>1013290145280000</pproTicksOut>
						<file id="file-51"/>
						<sourcetrack>
							<mediatype>audio</mediatype>
							<trackindex>1</trackindex>
						</sourcetrack>
						<logginginfo>
							<description></description>
							<scene></scene>
							<shottake></shottake>
							<lognote></lognote>
						</logginginfo>
						<labels>
							<label2>Caribbean</label2>
						</labels>
					</clipitem>
					<clipitem id="clipitem-601" premiereChannelType="mono">
						<masterclipid>masterclip-55</masterclipid>
						<name>MAIN MIX_03.R.wav</name>
						<enabled>TRUE</enabled>
						<duration>171138</duration>
						<rate>
							<timebase>25</timebase>
							<ntsc>FALSE</ntsc>
						</rate>
						<start>27789</start>
						<end>29601</end>
						<in>99831</in>
						<out>101643</out>
						<pproTicksIn>1014346851840000</pproTicksIn>
						<pproTicksOut>1032757931520000</pproTicksOut>
						<file id="file-51"/>
						<sourcetrack>
							<mediatype>audio</mediatype>
							<trackindex>1</trackindex>
						</sourcetrack>
						<logginginfo>
							<description></description>
							<scene></scene>
							<shottake></shottake>
							<lognote></lognote>
						</logginginfo>
						<labels>
							<label2>Caribbean</label2>
						</labels>
					</clipitem>
					<clipitem id="clipitem-602" premiereChannelType="mono">
						<masterclipid>masterclip-55</masterclipid>
						<name>MAIN MIX_03.R.wav</name>
						<enabled>TRUE</enabled>
						<duration>171138</duration>
						<rate>
							<timebase>25</timebase>
							<ntsc>FALSE</ntsc>
						</rate>
						<start>29601</start>
						<end>29693</end>
						<in>102540</in>
						<out>102632</out>
						<pproTicksIn>1041872025600000</pproTicksIn>
						<pproTicksOut>1042806804480000</pproTicksOut>
						<file id="file-51"/>
						<sourcetrack>
							<mediatype>audio</mediatype>
							<trackindex>1</trackindex>
						</sourcetrack>
						<logginginfo>
							<description></description>
							<scene></scene>
							<shottake></shottake>
							<lognote></lognote>
						</logginginfo>
						<labels>
							<label2>Caribbean</label2>
						</labels>
					</clipitem>
					<clipitem id="clipitem-603" premiereChannelType="mono">
						<masterclipid>masterclip-55</masterclipid>
						<name>MAIN MIX_03.R.wav</name>
						<enabled>TRUE</enabled>
						<duration>171138</duration>
						<rate>
							<timebase>25</timebase>
							<ntsc>FALSE</ntsc>
						</rate>
						<start>29693</start>
						<end>29760</end>
						<in>103317</in>
						<out>103384</out>
						<pproTicksIn>1049766842880000</pproTicksIn>
						<pproTicksOut>1050447605760000</pproTicksOut>
						<file id="file-51"/>
						<sourcetrack>
							<mediatype>audio</mediatype>
							<trackindex>1</trackindex>
						</sourcetrack>
						<logginginfo>
							<description></description>
							<scene></scene>
							<shottake></shottake>
							<lognote></lognote>
						</logginginfo>
						<labels>
							<label2>Caribbean</label2>
						</labels>
					</clipitem>
					<clipitem id="clipitem-604" premiereChannelType="mono">
						<masterclipid>masterclip-55</masterclipid>
						<name>MAIN MIX_03.R.wav</name>
						<enabled>TRUE</enabled>
						<duration>171138</duration>
						<rate>
							<timebase>25</timebase>
							<ntsc>FALSE</ntsc>
						</rate>
						<start>29760</start>
						<end>29774</end>
						<in>103438</in>
						<out>103452</out>
						<pproTicksIn>1050996280320000</pproTicksIn>
						<pproTicksOut>1051138529280000</pproTicksOut>
						<file id="file-51"/>
						<sourcetrack>
							<mediatype>audio</mediatype>
							<trackindex>1</trackindex>
						</sourcetrack>
						<logginginfo>
							<description></description>
							<scene></scene>
							<shottake></shottake>
							<lognote></lognote>
						</logginginfo>
						<labels>
							<label2>Caribbean</label2>
						</labels>
					</clipitem>
					<clipitem id="clipitem-605" premiereChannelType="mono">
						<masterclipid>masterclip-55</masterclipid>
						<name>MAIN MIX_03.R.wav</name>
						<enabled>TRUE</enabled>
						<duration>171138</duration>
						<rate>
							<timebase>25</timebase>
							<ntsc>FALSE</ntsc>
						</rate>
						<start>29774</start>
						<end>29865</end>
						<in>107326</in>
						<out>107417</out>
						<pproTicksIn>1090500848640000</pproTicksIn>
						<pproTicksOut>1091425466880000</pproTicksOut>
						<file id="file-51"/>
						<sourcetrack>
							<mediatype>audio</mediatype>
							<trackindex>1</trackindex>
						</sourcetrack>
						<logginginfo>
							<description></description>
							<scene></scene>
							<shottake></shottake>
							<lognote></lognote>
						</logginginfo>
						<labels>
							<label2>Caribbean</label2>
						</labels>
					</clipitem>
					<clipitem id="clipitem-606" premiereChannelType="mono">
						<masterclipid>masterclip-55</masterclipid>
						<name>MAIN MIX_03.R.wav</name>
						<enabled>TRUE</enabled>
						<duration>171138</duration>
						<rate>
							<timebase>25</timebase>
							<ntsc>FALSE</ntsc>
						</rate>
						<start>29865</start>
						<end>30769</end>
						<in>107708</in>
						<out>108612</out>
						<pproTicksIn>1094382213120000</pproTicksIn>
						<pproTicksOut>1103567431680000</pproTicksOut>
						<file id="file-51"/>
						<sourcetrack>
							<mediatype>audio</mediatype>
							<trackindex>1</trackindex>
						</sourcetrack>
						<logginginfo>
							<description></description>
							<scene></scene>
							<shottake></shottake>
							<lognote></lognote>
						</logginginfo>
						<labels>
							<label2>Caribbean</label2>
						</labels>
					</clipitem>
					<clipitem id="clipitem-607" premiereChannelType="mono">
						<masterclipid>masterclip-55</masterclipid>
						<name>MAIN MIX_03.R.wav</name>
						<enabled>TRUE</enabled>
						<duration>171138</duration>
						<rate>
							<timebase>25</timebase>
							<ntsc>FALSE</ntsc>
						</rate>
						<start>30769</start>
						<end>30880</end>
						<in>108644</in>
						<out>108755</out>
						<pproTicksIn>1103892572160000</pproTicksIn>
						<pproTicksOut>1105020403200000</pproTicksOut>
						<file id="file-51"/>
						<sourcetrack>
							<mediatype>audio</mediatype>
							<trackindex>1</trackindex>
						</sourcetrack>
						<logginginfo>
							<description></description>
							<scene></scene>
							<shottake></shottake>
							<lognote></lognote>
						</logginginfo>
						<labels>
							<label2>Caribbean</label2>
						</labels>
					</clipitem>
					<clipitem id="clipitem-608" premiereChannelType="mono">
						<masterclipid>masterclip-55</masterclipid>
						<name>MAIN MIX_03.R.wav</name>
						<enabled>TRUE</enabled>
						<duration>171138</duration>
						<rate>
							<timebase>25</timebase>
							<ntsc>FALSE</ntsc>
						</rate>
						<start>30880</start>
						<end>31513</end>
						<in>108776</in>
						<out>109409</out>
						<pproTicksIn>1105233776640000</pproTicksIn>
						<pproTicksOut>1111665461760000</pproTicksOut>
						<file id="file-51"/>
						<sourcetrack>
							<mediatype>audio</mediatype>
							<trackindex>1</trackindex>
						</sourcetrack>
						<logginginfo>
							<description></description>
							<scene></scene>
							<shottake></shottake>
							<lognote></lognote>
						</logginginfo>
						<labels>
							<label2>Caribbean</label2>
						</labels>
					</clipitem>
					<clipitem id="clipitem-609" premiereChannelType="mono">
						<masterclipid>masterclip-55</masterclipid>
						<name>MAIN MIX_03.R.wav</name>
						<enabled>TRUE</enabled>
						<duration>171138</duration>
						<rate>
							<timebase>25</timebase>
							<ntsc>FALSE</ntsc>
						</rate>
						<start>31513</start>
						<end>31909</end>
						<in>109447</in>
						<out>109843</out>
						<pproTicksIn>1112051566080000</pproTicksIn>
						<pproTicksOut>1116075179520000</pproTicksOut>
						<file id="file-51"/>
						<sourcetrack>
							<mediatype>audio</mediatype>
							<trackindex>1</trackindex>
						</sourcetrack>
						<logginginfo>
							<description></description>
							<scene></scene>
							<shottake></shottake>
							<lognote></lognote>
						</logginginfo>
						<labels>
							<label2>Caribbean</label2>
						</labels>
					</clipitem>
					<clipitem id="clipitem-610" premiereChannelType="mono">
						<masterclipid>masterclip-55</masterclipid>
						<name>MAIN MIX_03.R.wav</name>
						<enabled>TRUE</enabled>
						<duration>171138</duration>
						<rate>
							<timebase>25</timebase>
							<ntsc>FALSE</ntsc>
						</rate>
						<start>31909</start>
						<end>32128</end>
						<in>109926</in>
						<out>110145</out>
						<pproTicksIn>1116918512640000</pproTicksIn>
						<pproTicksOut>1119143692800000</pproTicksOut>
						<file id="file-51"/>
						<sourcetrack>
							<mediatype>audio</mediatype>
							<trackindex>1</trackindex>
						</sourcetrack>
						<logginginfo>
							<description></description>
							<scene></scene>
							<shottake></shottake>
							<lognote></lognote>
						</logginginfo>
						<labels>
							<label2>Caribbean</label2>
						</labels>
					</clipitem>
					<clipitem id="clipitem-611" premiereChannelType="mono">
						<masterclipid>masterclip-55</masterclipid>
						<name>MAIN MIX_03.R.wav</name>
						<enabled>TRUE</enabled>
						<duration>171138</duration>
						<rate>
							<timebase>25</timebase>
							<ntsc>FALSE</ntsc>
						</rate>
						<start>32128</start>
						<end>32853</end>
						<in>111277</in>
						<out>112002</out>
						<pproTicksIn>1130645537280000</pproTicksIn>
						<pproTicksOut>1138012001280000</pproTicksOut>
						<file id="file-51"/>
						<sourcetrack>
							<mediatype>audio</mediatype>
							<trackindex>1</trackindex>
						</sourcetrack>
						<logginginfo>
							<description></description>
							<scene></scene>
							<shottake></shottake>
							<lognote></lognote>
						</logginginfo>
						<labels>
							<label2>Caribbean</label2>
						</labels>
					</clipitem>
					<clipitem id="clipitem-612" premiereChannelType="mono">
						<masterclipid>masterclip-55</masterclipid>
						<name>MAIN MIX_03.R.wav</name>
						<enabled>TRUE</enabled>
						<duration>171138</duration>
						<rate>
							<timebase>25</timebase>
							<ntsc>FALSE</ntsc>
						</rate>
						<start>32853</start>
						<end>32890</end>
						<in>112002</in>
						<out>112039</out>
						<pproTicksIn>1138012001280000</pproTicksIn>
						<pproTicksOut>1138387944960000</pproTicksOut>
						<file id="file-51"/>
						<sourcetrack>
							<mediatype>audio</mediatype>
							<trackindex>1</trackindex>
						</sourcetrack>
						<logginginfo>
							<description></description>
							<scene></scene>
							<shottake></shottake>
							<lognote></lognote>
						</logginginfo>
						<labels>
							<label2>Caribbean</label2>
						</labels>
					</clipitem>
					<clipitem id="clipitem-613" premiereChannelType="mono">
						<masterclipid>masterclip-55</masterclipid>
						<name>MAIN MIX_03.R.wav</name>
						<enabled>TRUE</enabled>
						<duration>171138</duration>
						<rate>
							<timebase>25</timebase>
							<ntsc>FALSE</ntsc>
						</rate>
						<start>32890</start>
						<end>33281</end>
						<in>115277</in>
						<out>115668</out>
						<pproTicksIn>1171288097280000</pproTicksIn>
						<pproTicksOut>1175260907520000</pproTicksOut>
						<file id="file-51"/>
						<sourcetrack>
							<mediatype>audio</mediatype>
							<trackindex>1</trackindex>
						</sourcetrack>
						<logginginfo>
							<description></description>
							<scene></scene>
							<shottake></shottake>
							<lognote></lognote>
						</logginginfo>
						<labels>
							<label2>Caribbean</label2>
						</labels>
					</clipitem>
					<clipitem id="clipitem-614" premiereChannelType="mono">
						<masterclipid>masterclip-55</masterclipid>
						<name>MAIN MIX_03.R.wav</name>
						<enabled>TRUE</enabled>
						<duration>171138</duration>
						<rate>
							<timebase>25</timebase>
							<ntsc>FALSE</ntsc>
						</rate>
						<start>33281</start>
						<end>33357</end>
						<in>116203</in>
						<out>116279</out>
						<pproTicksIn>1180696849920000</pproTicksIn>
						<pproTicksOut>1181469058560000</pproTicksOut>
						<file id="file-51"/>
						<sourcetrack>
							<mediatype>audio</mediatype>
							<trackindex>1</trackindex>
						</sourcetrack>
						<logginginfo>
							<description></description>
							<scene></scene>
							<shottake></shottake>
							<lognote></lognote>
						</logginginfo>
						<labels>
							<label2>Caribbean</label2>
						</labels>
					</clipitem>
					<clipitem id="clipitem-615" premiereChannelType="mono">
						<masterclipid>masterclip-55</masterclipid>
						<name>MAIN MIX_03.R.wav</name>
						<enabled>TRUE</enabled>
						<duration>171138</duration>
						<rate>
							<timebase>25</timebase>
							<ntsc>FALSE</ntsc>
						</rate>
						<start>33357</start>
						<end>33465</end>
						<in>116298</in>
						<out>116406</out>
						<pproTicksIn>1181662110720000</pproTicksIn>
						<pproTicksOut>1182759459840000</pproTicksOut>
						<file id="file-51"/>
						<sourcetrack>
							<mediatype>audio</mediatype>
							<trackindex>1</trackindex>
						</sourcetrack>
						<logginginfo>
							<description></description>
							<scene></scene>
							<shottake></shottake>
							<lognote></lognote>
						</logginginfo>
						<labels>
							<label2>Caribbean</label2>
						</labels>
					</clipitem>
					<clipitem id="clipitem-616" premiereChannelType="mono">
						<masterclipid>masterclip-55</masterclipid>
						<name>MAIN MIX_03.R.wav</name>
						<enabled>TRUE</enabled>
						<duration>171138</duration>
						<rate>
							<timebase>25</timebase>
							<ntsc>FALSE</ntsc>
						</rate>
						<start>33465</start>
						<end>33766</end>
						<in>116510</in>
						<out>116811</out>
						<pproTicksIn>1183816166400000</pproTicksIn>
						<pproTicksOut>1186874519040000</pproTicksOut>
						<file id="file-51"/>
						<sourcetrack>
							<mediatype>audio</mediatype>
							<trackindex>1</trackindex>
						</sourcetrack>
						<logginginfo>
							<description></description>
							<scene></scene>
							<shottake></shottake>
							<lognote></lognote>
						</logginginfo>
						<labels>
							<label2>Caribbean</label2>
						</labels>
					</clipitem>
					<clipitem id="clipitem-617" premiereChannelType="mono">
						<masterclipid>masterclip-55</masterclipid>
						<name>MAIN MIX_03.R.wav</name>
						<enabled>TRUE</enabled>
						<duration>171138</duration>
						<rate>
							<timebase>25</timebase>
							<ntsc>FALSE</ntsc>
						</rate>
						<start>33766</start>
						<end>33992</end>
						<in>116811</in>
						<out>117037</out>
						<pproTicksIn>1186874519040000</pproTicksIn>
						<pproTicksOut>1189170823680000</pproTicksOut>
						<file id="file-51"/>
						<sourcetrack>
							<mediatype>audio</mediatype>
							<trackindex>1</trackindex>
						</sourcetrack>
						<logginginfo>
							<description></description>
							<scene></scene>
							<shottake></shottake>
							<lognote></lognote>
						</logginginfo>
						<labels>
							<label2>Caribbean</label2>
						</labels>
					</clipitem>
					<clipitem id="clipitem-618" premiereChannelType="mono">
						<masterclipid>masterclip-55</masterclipid>
						<name>MAIN MIX_03.R.wav</name>
						<enabled>TRUE</enabled>
						<duration>171138</duration>
						<rate>
							<timebase>25</timebase>
							<ntsc>FALSE</ntsc>
						</rate>
						<start>33992</start>
						<end>34035</end>
						<in>117226</in>
						<out>117269</out>
						<pproTicksIn>1191091184640000</pproTicksIn>
						<pproTicksOut>1191528092160000</pproTicksOut>
						<file id="file-51"/>
						<sourcetrack>
							<mediatype>audio</mediatype>
							<trackindex>1</trackindex>
						</sourcetrack>
						<logginginfo>
							<description></description>
							<scene></scene>
							<shottake></shottake>
							<lognote></lognote>
						</logginginfo>
						<labels>
							<label2>Caribbean</label2>
						</labels>
					</clipitem>
					<clipitem id="clipitem-619" premiereChannelType="mono">
						<masterclipid>masterclip-55</masterclipid>
						<name>MAIN MIX_03.R.wav</name>
						<enabled>TRUE</enabled>
						<duration>171138</duration>
						<rate>
							<timebase>25</timebase>
							<ntsc>FALSE</ntsc>
						</rate>
						<start>34035</start>
						<end>34790</end>
						<in>117633</in>
						<out>118388</out>
						<pproTicksIn>1195226565120000</pproTicksIn>
						<pproTicksOut>1202897848320000</pproTicksOut>
						<file id="file-51"/>
						<sourcetrack>
							<mediatype>audio</mediatype>
							<trackindex>1</trackindex>
						</sourcetrack>
						<logginginfo>
							<description></description>
							<scene></scene>
							<shottake></shottake>
							<lognote></lognote>
						</logginginfo>
						<labels>
							<label2>Caribbean</label2>
						</labels>
					</clipitem>
					<clipitem id="clipitem-620" premiereChannelType="mono">
						<masterclipid>masterclip-55</masterclipid>
						<name>MAIN MIX_03.R.wav</name>
						<enabled>TRUE</enabled>
						<duration>171138</duration>
						<rate>
							<timebase>25</timebase>
							<ntsc>FALSE</ntsc>
						</rate>
						<start>34790</start>
						<end>35299</end>
						<in>118612</in>
						<out>119121</out>
						<pproTicksIn>1205173831680000</pproTicksIn>
						<pproTicksOut>1210345597440000</pproTicksOut>
						<file id="file-51"/>
						<sourcetrack>
							<mediatype>audio</mediatype>
							<trackindex>1</trackindex>
						</sourcetrack>
						<logginginfo>
							<description></description>
							<scene></scene>
							<shottake></shottake>
							<lognote></lognote>
						</logginginfo>
						<labels>
							<label2>Caribbean</label2>
						</labels>
					</clipitem>
					<clipitem id="clipitem-621" premiereChannelType="mono">
						<masterclipid>masterclip-55</masterclipid>
						<name>MAIN MIX_03.R.wav</name>
						<enabled>TRUE</enabled>
						<duration>171138</duration>
						<rate>
							<timebase>25</timebase>
							<ntsc>FALSE</ntsc>
						</rate>
						<start>35299</start>
						<end>35672</end>
						<in>119201</in>
						<out>119574</out>
						<pproTicksIn>1211158448640000</pproTicksIn>
						<pproTicksOut>1214948367360000</pproTicksOut>
						<file id="file-51"/>
						<sourcetrack>
							<mediatype>audio</mediatype>
							<trackindex>1</trackindex>
						</sourcetrack>
						<logginginfo>
							<description></description>
							<scene></scene>
							<shottake></shottake>
							<lognote></lognote>
						</logginginfo>
						<labels>
							<label2>Caribbean</label2>
						</labels>
					</clipitem>
					<clipitem id="clipitem-622" premiereChannelType="mono">
						<masterclipid>masterclip-55</masterclipid>
						<name>MAIN MIX_03.R.wav</name>
						<enabled>TRUE</enabled>
						<duration>171138</duration>
						<rate>
							<timebase>25</timebase>
							<ntsc>FALSE</ntsc>
						</rate>
						<start>35672</start>
						<end>36434</end>
						<in>119583</in>
						<out>120345</out>
						<pproTicksIn>1215039813120000</pproTicksIn>
						<pproTicksOut>1222782220800000</pproTicksOut>
						<file id="file-51"/>
						<sourcetrack>
							<mediatype>audio</mediatype>
							<trackindex>1</trackindex>
						</sourcetrack>
						<logginginfo>
							<description></description>
							<scene></scene>
							<shottake></shottake>
							<lognote></lognote>
						</logginginfo>
						<labels>
							<label2>Caribbean</label2>
						</labels>
					</clipitem>
					<clipitem id="clipitem-623" premiereChannelType="mono">
						<masterclipid>masterclip-55</masterclipid>
						<name>MAIN MIX_03.R.wav</name>
						<enabled>TRUE</enabled>
						<duration>171138</duration>
						<rate>
							<timebase>25</timebase>
							<ntsc>FALSE</ntsc>
						</rate>
						<start>36434</start>
						<end>36524</end>
						<in>120539</in>
						<out>120629</out>
						<pproTicksIn>1224753384960000</pproTicksIn>
						<pproTicksOut>1225667842560000</pproTicksOut>
						<file id="file-51"/>
						<sourcetrack>
							<mediatype>audio</mediatype>
							<trackindex>1</trackindex>
						</sourcetrack>
						<logginginfo>
							<description></description>
							<scene></scene>
							<shottake></shottake>
							<lognote></lognote>
						</logginginfo>
						<labels>
							<label2>Caribbean</label2>
						</labels>
					</clipitem>
					<clipitem id="clipitem-624" premiereChannelType="mono">
						<masterclipid>masterclip-55</masterclipid>
						<name>MAIN MIX_03.R.wav</name>
						<enabled>TRUE</enabled>
						<duration>171138</duration>
						<rate>
							<timebase>25</timebase>
							<ntsc>FALSE</ntsc>
						</rate>
						<start>36524</start>
						<end>37155</end>
						<in>124899</in>
						<out>125530</out>
						<pproTicksIn>1269053775360000</pproTicksIn>
						<pproTicksOut>1275465139200000</pproTicksOut>
						<file id="file-51"/>
						<sourcetrack>
							<mediatype>audio</mediatype>
							<trackindex>1</trackindex>
						</sourcetrack>
						<logginginfo>
							<description></description>
							<scene></scene>
							<shottake></shottake>
							<lognote></lognote>
						</logginginfo>
						<labels>
							<label2>Caribbean</label2>
						</labels>
					</clipitem>
					<clipitem id="clipitem-625" premiereChannelType="mono">
						<masterclipid>masterclip-55</masterclipid>
						<name>MAIN MIX_03.R.wav</name>
						<enabled>FALSE</enabled>
						<duration>171138</duration>
						<rate>
							<timebase>25</timebase>
							<ntsc>FALSE</ntsc>
						</rate>
						<start>37732</start>
						<end>38386</end>
						<in>126107</in>
						<out>126761</out>
						<pproTicksIn>1281327828480000</pproTicksIn>
						<pproTicksOut>1287972887040000</pproTicksOut>
						<file id="file-51"/>
						<sourcetrack>
							<mediatype>audio</mediatype>
							<trackindex>1</trackindex>
						</sourcetrack>
						<logginginfo>
							<description></description>
							<scene></scene>
							<shottake></shottake>
							<lognote></lognote>
						</logginginfo>
						<labels>
							<label2>Caribbean</label2>
						</labels>
					</clipitem>
					<clipitem id="clipitem-626" premiereChannelType="mono">
						<masterclipid>masterclip-55</masterclipid>
						<name>MAIN MIX_03.R.wav</name>
						<enabled>TRUE</enabled>
						<duration>171138</duration>
						<rate>
							<timebase>25</timebase>
							<ntsc>FALSE</ntsc>
						</rate>
						<start>38386</start>
						<end>40503</end>
						<in>126761</in>
						<out>128878</out>
						<pproTicksIn>1287972887040000</pproTicksIn>
						<pproTicksOut>1309482961920000</pproTicksOut>
						<file id="file-51"/>
						<sourcetrack>
							<mediatype>audio</mediatype>
							<trackindex>1</trackindex>
						</sourcetrack>
						<logginginfo>
							<description></description>
							<scene></scene>
							<shottake></shottake>
							<lognote></lognote>
						</logginginfo>
						<labels>
							<label2>Caribbean</label2>
						</labels>
					</clipitem>
					<clipitem id="clipitem-627" premiereChannelType="mono">
						<masterclipid>masterclip-55</masterclipid>
						<name>MAIN MIX_03.R.wav</name>
						<enabled>TRUE</enabled>
						<duration>171138</duration>
						<rate>
							<timebase>25</timebase>
							<ntsc>FALSE</ntsc>
						</rate>
						<start>40503</start>
						<end>40839</end>
						<in>128926</in>
						<out>129262</out>
						<pproTicksIn>1309970672640000</pproTicksIn>
						<pproTicksOut>1313384647680000</pproTicksOut>
						<file id="file-51"/>
						<sourcetrack>
							<mediatype>audio</mediatype>
							<trackindex>1</trackindex>
						</sourcetrack>
						<logginginfo>
							<description></description>
							<scene></scene>
							<shottake></shottake>
							<lognote></lognote>
						</logginginfo>
						<labels>
							<label2>Caribbean</label2>
						</labels>
					</clipitem>
					<clipitem id="clipitem-628" premiereChannelType="mono">
						<masterclipid>masterclip-55</masterclipid>
						<name>MAIN MIX_03.R.wav</name>
						<enabled>TRUE</enabled>
						<duration>171138</duration>
						<rate>
							<timebase>25</timebase>
							<ntsc>FALSE</ntsc>
						</rate>
						<start>40839</start>
						<end>41006</end>
						<in>129262</in>
						<out>129429</out>
						<pproTicksIn>1313384647680000</pproTicksIn>
						<pproTicksOut>1315081474560000</pproTicksOut>
						<file id="file-51"/>
						<sourcetrack>
							<mediatype>audio</mediatype>
							<trackindex>1</trackindex>
						</sourcetrack>
						<logginginfo>
							<description></description>
							<scene></scene>
							<shottake></shottake>
							<lognote></lognote>
						</logginginfo>
						<labels>
							<label2>Caribbean</label2>
						</labels>
					</clipitem>
					<clipitem id="clipitem-629" premiereChannelType="mono">
						<masterclipid>masterclip-55</masterclipid>
						<name>MAIN MIX_03.R.wav</name>
						<enabled>TRUE</enabled>
						<duration>171138</duration>
						<rate>
							<timebase>25</timebase>
							<ntsc>FALSE</ntsc>
						</rate>
						<start>41006</start>
						<end>41144</end>
						<in>129476</in>
						<out>129614</out>
						<pproTicksIn>1315559024640000</pproTicksIn>
						<pproTicksOut>1316961192960000</pproTicksOut>
						<file id="file-51"/>
						<sourcetrack>
							<mediatype>audio</mediatype>
							<trackindex>1</trackindex>
						</sourcetrack>
						<logginginfo>
							<description></description>
							<scene></scene>
							<shottake></shottake>
							<lognote></lognote>
						</logginginfo>
						<labels>
							<label2>Caribbean</label2>
						</labels>
					</clipitem>
					<clipitem id="clipitem-630" premiereChannelType="mono">
						<masterclipid>masterclip-55</masterclipid>
						<name>MAIN MIX_03.R.wav</name>
						<enabled>TRUE</enabled>
						<duration>171138</duration>
						<rate>
							<timebase>25</timebase>
							<ntsc>FALSE</ntsc>
						</rate>
						<start>41144</start>
						<end>41720</end>
						<in>131417</in>
						<out>131993</out>
						<pproTicksIn>1335280826880000</pproTicksIn>
						<pproTicksOut>1341133355520000</pproTicksOut>
						<file id="file-51"/>
						<sourcetrack>
							<mediatype>audio</mediatype>
							<trackindex>1</trackindex>
						</sourcetrack>
						<logginginfo>
							<description></description>
							<scene></scene>
							<shottake></shottake>
							<lognote></lognote>
						</logginginfo>
						<labels>
							<label2>Caribbean</label2>
						</labels>
					</clipitem>
					<clipitem id="clipitem-631" premiereChannelType="mono">
						<masterclipid>masterclip-55</masterclipid>
						<name>MAIN MIX_03.R.wav</name>
						<enabled>TRUE</enabled>
						<duration>171138</duration>
						<rate>
							<timebase>25</timebase>
							<ntsc>FALSE</ntsc>
						</rate>
						<start>41720</start>
						<end>42122</end>
						<in>132051</in>
						<out>132453</out>
						<pproTicksIn>1341722672640000</pproTicksIn>
						<pproTicksOut>1345807249920000</pproTicksOut>
						<file id="file-51"/>
						<sourcetrack>
							<mediatype>audio</mediatype>
							<trackindex>1</trackindex>
						</sourcetrack>
						<logginginfo>
							<description></description>
							<scene></scene>
							<shottake></shottake>
							<lognote></lognote>
						</logginginfo>
						<labels>
							<label2>Caribbean</label2>
						</labels>
					</clipitem>
					<clipitem id="clipitem-632" premiereChannelType="mono">
						<masterclipid>masterclip-55</masterclipid>
						<name>MAIN MIX_03.R.wav</name>
						<enabled>TRUE</enabled>
						<duration>171138</duration>
						<rate>
							<timebase>25</timebase>
							<ntsc>FALSE</ntsc>
						</rate>
						<start>42122</start>
						<end>42277</end>
						<in>132657</in>
						<out>132812</out>
						<pproTicksIn>1347880020480000</pproTicksIn>
						<pproTicksOut>1349454919680000</pproTicksOut>
						<file id="file-51"/>
						<sourcetrack>
							<mediatype>audio</mediatype>
							<trackindex>1</trackindex>
						</sourcetrack>
						<logginginfo>
							<description></description>
							<scene></scene>
							<shottake></shottake>
							<lognote></lognote>
						</logginginfo>
						<labels>
							<label2>Caribbean</label2>
						</labels>
					</clipitem>
					<clipitem id="clipitem-633" premiereChannelType="mono">
						<masterclipid>masterclip-55</masterclipid>
						<name>MAIN MIX_03.R.wav</name>
						<enabled>TRUE</enabled>
						<duration>171138</duration>
						<rate>
							<timebase>25</timebase>
							<ntsc>FALSE</ntsc>
						</rate>
						<start>42277</start>
						<end>42347</end>
						<in>133359</in>
						<out>133429</out>
						<pproTicksIn>1355012789760000</pproTicksIn>
						<pproTicksOut>1355724034560000</pproTicksOut>
						<file id="file-51"/>
						<sourcetrack>
							<mediatype>audio</mediatype>
							<trackindex>1</trackindex>
						</sourcetrack>
						<logginginfo>
							<description></description>
							<scene></scene>
							<shottake></shottake>
							<lognote></lognote>
						</logginginfo>
						<labels>
							<label2>Caribbean</label2>
						</labels>
					</clipitem>
					<clipitem id="clipitem-634" premiereChannelType="mono">
						<masterclipid>masterclip-55</masterclipid>
						<name>MAIN MIX_03.R.wav</name>
						<enabled>TRUE</enabled>
						<duration>171138</duration>
						<rate>
							<timebase>25</timebase>
							<ntsc>FALSE</ntsc>
						</rate>
						<start>42347</start>
						<end>42499</end>
						<in>133852</in>
						<out>134004</out>
						<pproTicksIn>1360021985280000</pproTicksIn>
						<pproTicksOut>1361566402560000</pproTicksOut>
						<file id="file-51"/>
						<sourcetrack>
							<mediatype>audio</mediatype>
							<trackindex>1</trackindex>
						</sourcetrack>
						<logginginfo>
							<description></description>
							<scene></scene>
							<shottake></shottake>
							<lognote></lognote>
						</logginginfo>
						<labels>
							<label2>Caribbean</label2>
						</labels>
					</clipitem>
					<clipitem id="clipitem-635" premiereChannelType="mono">
						<masterclipid>masterclip-55</masterclipid>
						<name>MAIN MIX_03.R.wav</name>
						<enabled>TRUE</enabled>
						<duration>171138</duration>
						<rate>
							<timebase>25</timebase>
							<ntsc>FALSE</ntsc>
						</rate>
						<start>42499</start>
						<end>42832</end>
						<in>134099</in>
						<out>134432</out>
						<pproTicksIn>1362531663360000</pproTicksIn>
						<pproTicksOut>1365915156480000</pproTicksOut>
						<file id="file-51"/>
						<sourcetrack>
							<mediatype>audio</mediatype>
							<trackindex>1</trackindex>
						</sourcetrack>
						<logginginfo>
							<description></description>
							<scene></scene>
							<shottake></shottake>
							<lognote></lognote>
						</logginginfo>
						<labels>
							<label2>Caribbean</label2>
						</labels>
					</clipitem>
					<clipitem id="clipitem-636" premiereChannelType="mono">
						<masterclipid>masterclip-55</masterclipid>
						<name>MAIN MIX_03.R.wav</name>
						<enabled>TRUE</enabled>
						<duration>171138</duration>
						<rate>
							<timebase>25</timebase>
							<ntsc>FALSE</ntsc>
						</rate>
						<start>42832</start>
						<end>43282</end>
						<in>134992</in>
						<out>135442</out>
						<pproTicksIn>1371605114880000</pproTicksIn>
						<pproTicksOut>1376177402880000</pproTicksOut>
						<file id="file-51"/>
						<sourcetrack>
							<mediatype>audio</mediatype>
							<trackindex>1</trackindex>
						</sourcetrack>
						<logginginfo>
							<description></description>
							<scene></scene>
							<shottake></shottake>
							<lognote></lognote>
						</logginginfo>
						<labels>
							<label2>Caribbean</label2>
						</labels>
					</clipitem>
					<clipitem id="clipitem-637" premiereChannelType="mono">
						<masterclipid>masterclip-55</masterclipid>
						<name>MAIN MIX_03.R.wav</name>
						<enabled>TRUE</enabled>
						<duration>171138</duration>
						<rate>
							<timebase>25</timebase>
							<ntsc>FALSE</ntsc>
						</rate>
						<start>43282</start>
						<end>43553</end>
						<in>135648</in>
						<out>135919</out>
						<pproTicksIn>1378270494720000</pproTicksIn>
						<pproTicksOut>1381024028160000</pproTicksOut>
						<file id="file-51"/>
						<sourcetrack>
							<mediatype>audio</mediatype>
							<trackindex>1</trackindex>
						</sourcetrack>
						<logginginfo>
							<description></description>
							<scene></scene>
							<shottake></shottake>
							<lognote></lognote>
						</logginginfo>
						<labels>
							<label2>Caribbean</label2>
						</labels>
					</clipitem>
					<clipitem id="clipitem-638" premiereChannelType="mono">
						<masterclipid>masterclip-55</masterclipid>
						<name>MAIN MIX_03.R.wav</name>
						<enabled>TRUE</enabled>
						<duration>171138</duration>
						<rate>
							<timebase>25</timebase>
							<ntsc>FALSE</ntsc>
						</rate>
						<start>43553</start>
						<end>44385</end>
						<in>136003</in>
						<out>136835</out>
						<pproTicksIn>1381877521920000</pproTicksIn>
						<pproTicksOut>1390331174400000</pproTicksOut>
						<file id="file-51"/>
						<sourcetrack>
							<mediatype>audio</mediatype>
							<trackindex>1</trackindex>
						</sourcetrack>
						<logginginfo>
							<description></description>
							<scene></scene>
							<shottake></shottake>
							<lognote></lognote>
						</logginginfo>
						<labels>
							<label2>Caribbean</label2>
						</labels>
					</clipitem>
					<clipitem id="clipitem-639" premiereChannelType="mono">
						<masterclipid>masterclip-55</masterclipid>
						<name>MAIN MIX_03.R.wav</name>
						<enabled>TRUE</enabled>
						<duration>171138</duration>
						<rate>
							<timebase>25</timebase>
							<ntsc>FALSE</ntsc>
						</rate>
						<start>44385</start>
						<end>44583</end>
						<in>137077</in>
						<out>137275</out>
						<pproTicksIn>1392790049280000</pproTicksIn>
						<pproTicksOut>1394801856000000</pproTicksOut>
						<file id="file-51"/>
						<sourcetrack>
							<mediatype>audio</mediatype>
							<trackindex>1</trackindex>
						</sourcetrack>
						<logginginfo>
							<description></description>
							<scene></scene>
							<shottake></shottake>
							<lognote></lognote>
						</logginginfo>
						<labels>
							<label2>Caribbean</label2>
						</labels>
					</clipitem>
					<clipitem id="clipitem-640" premiereChannelType="mono">
						<masterclipid>masterclip-55</masterclipid>
						<name>MAIN MIX_03.R.wav</name>
						<enabled>TRUE</enabled>
						<duration>171138</duration>
						<rate>
							<timebase>25</timebase>
							<ntsc>FALSE</ntsc>
						</rate>
						<start>44583</start>
						<end>44650</end>
						<in>137376</in>
						<out>137443</out>
						<pproTicksIn>1395828080640000</pproTicksIn>
						<pproTicksOut>1396508843520000</pproTicksOut>
						<file id="file-51"/>
						<sourcetrack>
							<mediatype>audio</mediatype>
							<trackindex>1</trackindex>
						</sourcetrack>
						<logginginfo>
							<description></description>
							<scene></scene>
							<shottake></shottake>
							<lognote></lognote>
						</logginginfo>
						<labels>
							<label2>Caribbean</label2>
						</labels>
					</clipitem>
					<clipitem id="clipitem-641" premiereChannelType="mono">
						<masterclipid>masterclip-55</masterclipid>
						<name>MAIN MIX_03.R.wav</name>
						<enabled>TRUE</enabled>
						<duration>171138</duration>
						<rate>
							<timebase>25</timebase>
							<ntsc>FALSE</ntsc>
						</rate>
						<start>44650</start>
						<end>45287</end>
						<in>137505</in>
						<out>138142</out>
						<pproTicksIn>1397138803200000</pproTicksIn>
						<pproTicksOut>1403611130880000</pproTicksOut>
						<file id="file-51"/>
						<sourcetrack>
							<mediatype>audio</mediatype>
							<trackindex>1</trackindex>
						</sourcetrack>
						<logginginfo>
							<description></description>
							<scene></scene>
							<shottake></shottake>
							<lognote></lognote>
						</logginginfo>
						<labels>
							<label2>Caribbean</label2>
						</labels>
					</clipitem>
					<clipitem id="clipitem-642" premiereChannelType="mono">
						<masterclipid>masterclip-55</masterclipid>
						<name>MAIN MIX_03.R.wav</name>
						<enabled>TRUE</enabled>
						<duration>171138</duration>
						<rate>
							<timebase>25</timebase>
							<ntsc>FALSE</ntsc>
						</rate>
						<start>45287</start>
						<end>45692</end>
						<in>138274</in>
						<out>138679</out>
						<pproTicksIn>1404952335360000</pproTicksIn>
						<pproTicksOut>1409067394560000</pproTicksOut>
						<file id="file-51"/>
						<sourcetrack>
							<mediatype>audio</mediatype>
							<trackindex>1</trackindex>
						</sourcetrack>
						<logginginfo>
							<description></description>
							<scene></scene>
							<shottake></shottake>
							<lognote></lognote>
						</logginginfo>
						<labels>
							<label2>Caribbean</label2>
						</labels>
					</clipitem>
					<clipitem id="clipitem-643" premiereChannelType="mono">
						<masterclipid>masterclip-55</masterclipid>
						<name>MAIN MIX_03.R.wav</name>
						<enabled>TRUE</enabled>
						<duration>171138</duration>
						<rate>
							<timebase>25</timebase>
							<ntsc>FALSE</ntsc>
						</rate>
						<start>45692</start>
						<end>45923</end>
						<in>138810</in>
						<out>139041</out>
						<pproTicksIn>1410398438400000</pproTicksIn>
						<pproTicksOut>1412745546240000</pproTicksOut>
						<file id="file-51"/>
						<sourcetrack>
							<mediatype>audio</mediatype>
							<trackindex>1</trackindex>
						</sourcetrack>
						<logginginfo>
							<description></description>
							<scene></scene>
							<shottake></shottake>
							<lognote></lognote>
						</logginginfo>
						<labels>
							<label2>Caribbean</label2>
						</labels>
					</clipitem>
					<clipitem id="clipitem-644" premiereChannelType="mono">
						<masterclipid>masterclip-55</masterclipid>
						<name>MAIN MIX_03.R.wav</name>
						<enabled>TRUE</enabled>
						<duration>171138</duration>
						<rate>
							<timebase>25</timebase>
							<ntsc>FALSE</ntsc>
						</rate>
						<start>45923</start>
						<end>46349</end>
						<in>139073</in>
						<out>139499</out>
						<pproTicksIn>1413070686720000</pproTicksIn>
						<pproTicksOut>1417399119360000</pproTicksOut>
						<file id="file-51"/>
						<sourcetrack>
							<mediatype>audio</mediatype>
							<trackindex>1</trackindex>
						</sourcetrack>
						<logginginfo>
							<description></description>
							<scene></scene>
							<shottake></shottake>
							<lognote></lognote>
						</logginginfo>
						<labels>
							<label2>Caribbean</label2>
						</labels>
					</clipitem>
					<clipitem id="clipitem-645" premiereChannelType="mono">
						<masterclipid>masterclip-55</masterclipid>
						<name>MAIN MIX_03.R.wav</name>
						<enabled>TRUE</enabled>
						<duration>171138</duration>
						<rate>
							<timebase>25</timebase>
							<ntsc>FALSE</ntsc>
						</rate>
						<start>46349</start>
						<end>46455</end>
						<in>159642</in>
						<out>159748</out>
						<pproTicksIn>1622064890880000</pproTicksIn>
						<pproTicksOut>1623141918720000</pproTicksOut>
						<file id="file-51"/>
						<sourcetrack>
							<mediatype>audio</mediatype>
							<trackindex>1</trackindex>
						</sourcetrack>
						<logginginfo>
							<description></description>
							<scene></scene>
							<shottake></shottake>
							<lognote></lognote>
						</logginginfo>
						<labels>
							<label2>Caribbean</label2>
						</labels>
					</clipitem>
					<clipitem id="clipitem-646" premiereChannelType="mono">
						<masterclipid>masterclip-55</masterclipid>
						<name>MAIN MIX_03.R.wav</name>
						<enabled>TRUE</enabled>
						<duration>171138</duration>
						<rate>
							<timebase>25</timebase>
							<ntsc>FALSE</ntsc>
						</rate>
						<start>46455</start>
						<end>46911</end>
						<in>140048</in>
						<out>140504</out>
						<pproTicksIn>1422977310720000</pproTicksIn>
						<pproTicksOut>1427610562560000</pproTicksOut>
						<file id="file-51"/>
						<sourcetrack>
							<mediatype>audio</mediatype>
							<trackindex>1</trackindex>
						</sourcetrack>
						<logginginfo>
							<description></description>
							<scene></scene>
							<shottake></shottake>
							<lognote></lognote>
						</logginginfo>
						<labels>
							<label2>Caribbean</label2>
						</labels>
					</clipitem>
					<clipitem id="clipitem-647" premiereChannelType="mono">
						<masterclipid>masterclip-55</masterclipid>
						<name>MAIN MIX_03.R.wav</name>
						<enabled>TRUE</enabled>
						<duration>171138</duration>
						<rate>
							<timebase>25</timebase>
							<ntsc>FALSE</ntsc>
						</rate>
						<start>46911</start>
						<end>47138</end>
						<in>140817</in>
						<out>141044</out>
						<pproTicksIn>1430790842880000</pproTicksIn>
						<pproTicksOut>1433097308160000</pproTicksOut>
						<file id="file-51"/>
						<sourcetrack>
							<mediatype>audio</mediatype>
							<trackindex>1</trackindex>
						</sourcetrack>
						<logginginfo>
							<description></description>
							<scene></scene>
							<shottake></shottake>
							<lognote></lognote>
						</logginginfo>
						<labels>
							<label2>Caribbean</label2>
						</labels>
					</clipitem>
					<clipitem id="clipitem-648" premiereChannelType="mono">
						<masterclipid>masterclip-55</masterclipid>
						<name>MAIN MIX_03.R.wav</name>
						<enabled>TRUE</enabled>
						<duration>171138</duration>
						<rate>
							<timebase>25</timebase>
							<ntsc>FALSE</ntsc>
						</rate>
						<start>47138</start>
						<end>47335</end>
						<in>141203</in>
						<out>141400</out>
						<pproTicksIn>1434712849920000</pproTicksIn>
						<pproTicksOut>1436714496000000</pproTicksOut>
						<file id="file-51"/>
						<sourcetrack>
							<mediatype>audio</mediatype>
							<trackindex>1</trackindex>
						</sourcetrack>
						<logginginfo>
							<description></description>
							<scene></scene>
							<shottake></shottake>
							<lognote></lognote>
						</logginginfo>
						<labels>
							<label2>Caribbean</label2>
						</labels>
					</clipitem>
					<clipitem id="clipitem-649" premiereChannelType="mono">
						<masterclipid>masterclip-55</masterclipid>
						<name>MAIN MIX_03.R.wav</name>
						<enabled>TRUE</enabled>
						<duration>171138</duration>
						<rate>
							<timebase>25</timebase>
							<ntsc>FALSE</ntsc>
						</rate>
						<start>47335</start>
						<end>47513</end>
						<in>141454</in>
						<out>141632</out>
						<pproTicksIn>1437263170560000</pproTicksIn>
						<pproTicksOut>1439071764480000</pproTicksOut>
						<file id="file-51"/>
						<sourcetrack>
							<mediatype>audio</mediatype>
							<trackindex>1</trackindex>
						</sourcetrack>
						<logginginfo>
							<description></description>
							<scene></scene>
							<shottake></shottake>
							<lognote></lognote>
						</logginginfo>
						<labels>
							<label2>Caribbean</label2>
						</labels>
					</clipitem>
					<clipitem id="clipitem-650" premiereChannelType="mono">
						<masterclipid>masterclip-55</masterclipid>
						<name>MAIN MIX_03.R.wav</name>
						<enabled>TRUE</enabled>
						<duration>171138</duration>
						<rate>
							<timebase>25</timebase>
							<ntsc>FALSE</ntsc>
						</rate>
						<start>47513</start>
						<end>47723</end>
						<in>141671</in>
						<out>141881</out>
						<pproTicksIn>1439468029440000</pproTicksIn>
						<pproTicksOut>1441601763840000</pproTicksOut>
						<file id="file-51"/>
						<sourcetrack>
							<mediatype>audio</mediatype>
							<trackindex>1</trackindex>
						</sourcetrack>
						<logginginfo>
							<description></description>
							<scene></scene>
							<shottake></shottake>
							<lognote></lognote>
						</logginginfo>
						<labels>
							<label2>Caribbean</label2>
						</labels>
					</clipitem>
					<clipitem id="clipitem-651" premiereChannelType="mono">
						<masterclipid>masterclip-55</masterclipid>
						<name>MAIN MIX_03.R.wav</name>
						<enabled>TRUE</enabled>
						<duration>171138</duration>
						<rate>
							<timebase>25</timebase>
							<ntsc>FALSE</ntsc>
						</rate>
						<start>47723</start>
						<end>48040</end>
						<in>141894</in>
						<out>142211</out>
						<pproTicksIn>1441733852160000</pproTicksIn>
						<pproTicksOut>1444954775040000</pproTicksOut>
						<file id="file-51"/>
						<sourcetrack>
							<mediatype>audio</mediatype>
							<trackindex>1</trackindex>
						</sourcetrack>
						<logginginfo>
							<description></description>
							<scene></scene>
							<shottake></shottake>
							<lognote></lognote>
						</logginginfo>
						<labels>
							<label2>Caribbean</label2>
						</labels>
					</clipitem>
					<clipitem id="clipitem-652" premiereChannelType="mono">
						<masterclipid>masterclip-55</masterclipid>
						<name>MAIN MIX_03.R.wav</name>
						<enabled>TRUE</enabled>
						<duration>171138</duration>
						<rate>
							<timebase>25</timebase>
							<ntsc>FALSE</ntsc>
						</rate>
						<start>48040</start>
						<end>48766</end>
						<in>142351</in>
						<out>143077</out>
						<pproTicksIn>1446377264640000</pproTicksIn>
						<pproTicksOut>1453753889280000</pproTicksOut>
						<file id="file-51"/>
						<sourcetrack>
							<mediatype>audio</mediatype>
							<trackindex>1</trackindex>
						</sourcetrack>
						<logginginfo>
							<description></description>
							<scene></scene>
							<shottake></shottake>
							<lognote></lognote>
						</logginginfo>
						<labels>
							<label2>Caribbean</label2>
						</labels>
					</clipitem>
					<clipitem id="clipitem-653" premiereChannelType="mono">
						<masterclipid>masterclip-55</masterclipid>
						<name>MAIN MIX_03.R.wav</name>
						<enabled>TRUE</enabled>
						<duration>171138</duration>
						<rate>
							<timebase>25</timebase>
							<ntsc>FALSE</ntsc>
						</rate>
						<start>48766</start>
						<end>49706</end>
						<in>143684</in>
						<out>144624</out>
						<pproTicksIn>1459921397760000</pproTicksIn>
						<pproTicksOut>1469472399360000</pproTicksOut>
						<file id="file-51"/>
						<sourcetrack>
							<mediatype>audio</mediatype>
							<trackindex>1</trackindex>
						</sourcetrack>
						<logginginfo>
							<description></description>
							<scene></scene>
							<shottake></shottake>
							<lognote></lognote>
						</logginginfo>
						<labels>
							<label2>Caribbean</label2>
						</labels>
					</clipitem>
					<clipitem id="clipitem-654" premiereChannelType="mono">
						<masterclipid>masterclip-55</masterclipid>
						<name>MAIN MIX_03.R.wav</name>
						<enabled>TRUE</enabled>
						<duration>171138</duration>
						<rate>
							<timebase>25</timebase>
							<ntsc>FALSE</ntsc>
						</rate>
						<start>49706</start>
						<end>49762</end>
						<in>147186</in>
						<out>147242</out>
						<pproTicksIn>1495503959040000</pproTicksIn>
						<pproTicksOut>1496072954880000</pproTicksOut>
						<file id="file-51"/>
						<sourcetrack>
							<mediatype>audio</mediatype>
							<trackindex>1</trackindex>
						</sourcetrack>
						<logginginfo>
							<description></description>
							<scene></scene>
							<shottake></shottake>
							<lognote></lognote>
						</logginginfo>
						<labels>
							<label2>Caribbean</label2>
						</labels>
					</clipitem>
					<clipitem id="clipitem-655" premiereChannelType="mono">
						<masterclipid>masterclip-55</masterclipid>
						<name>MAIN MIX_03.R.wav</name>
						<enabled>TRUE</enabled>
						<duration>171138</duration>
						<rate>
							<timebase>25</timebase>
							<ntsc>FALSE</ntsc>
						</rate>
						<start>49762</start>
						<end>49948</end>
						<in>153681</in>
						<out>153867</out>
						<pproTicksIn>1561497315840000</pproTicksIn>
						<pproTicksOut>1563387194880000</pproTicksOut>
						<file id="file-51"/>
						<sourcetrack>
							<mediatype>audio</mediatype>
							<trackindex>1</trackindex>
						</sourcetrack>
						<logginginfo>
							<description></description>
							<scene></scene>
							<shottake></shottake>
							<lognote></lognote>
						</logginginfo>
						<labels>
							<label2>Caribbean</label2>
						</labels>
					</clipitem>
					<clipitem id="clipitem-656" premiereChannelType="mono">
						<masterclipid>masterclip-55</masterclipid>
						<name>MAIN MIX_03.R.wav</name>
						<enabled>TRUE</enabled>
						<duration>171138</duration>
						<rate>
							<timebase>25</timebase>
							<ntsc>FALSE</ntsc>
						</rate>
						<start>49948</start>
						<end>50390</end>
						<in>153946</in>
						<out>154388</out>
						<pproTicksIn>1564189885440000</pproTicksIn>
						<pproTicksOut>1568680888320000</pproTicksOut>
						<file id="file-51"/>
						<sourcetrack>
							<mediatype>audio</mediatype>
							<trackindex>1</trackindex>
						</sourcetrack>
						<logginginfo>
							<description></description>
							<scene></scene>
							<shottake></shottake>
							<lognote></lognote>
						</logginginfo>
						<labels>
							<label2>Caribbean</label2>
						</labels>
					</clipitem>
					<clipitem id="clipitem-657" premiereChannelType="mono">
						<masterclipid>masterclip-55</masterclipid>
						<name>MAIN MIX_03.R.wav</name>
						<enabled>TRUE</enabled>
						<duration>171138</duration>
						<rate>
							<timebase>25</timebase>
							<ntsc>FALSE</ntsc>
						</rate>
						<start>50390</start>
						<end>50983</end>
						<in>156215</in>
						<out>156808</out>
						<pproTicksIn>1587244377600000</pproTicksIn>
						<pproTicksOut>1593269637120000</pproTicksOut>
						<file id="file-51"/>
						<sourcetrack>
							<mediatype>audio</mediatype>
							<trackindex>1</trackindex>
						</sourcetrack>
						<logginginfo>
							<description></description>
							<scene></scene>
							<shottake></shottake>
							<lognote></lognote>
						</logginginfo>
						<labels>
							<label2>Caribbean</label2>
						</labels>
					</clipitem>
					<clipitem id="clipitem-658" premiereChannelType="mono">
						<masterclipid>masterclip-55</masterclipid>
						<name>MAIN MIX_03.R.wav</name>
						<enabled>TRUE</enabled>
						<duration>171138</duration>
						<rate>
							<timebase>25</timebase>
							<ntsc>FALSE</ntsc>
						</rate>
						<start>50983</start>
						<end>53597</end>
						<in>157028</in>
						<out>159642</out>
						<pproTicksIn>1595504977920000</pproTicksIn>
						<pproTicksOut>1622064890880000</pproTicksOut>
						<file id="file-51"/>
						<sourcetrack>
							<mediatype>audio</mediatype>
							<trackindex>1</trackindex>
						</sourcetrack>
						<logginginfo>
							<description></description>
							<scene></scene>
							<shottake></shottake>
							<lognote></lognote>
						</logginginfo>
						<labels>
							<label2>Caribbean</label2>
						</labels>
					</clipitem>
					<clipitem id="clipitem-659" premiereChannelType="mono">
						<masterclipid>masterclip-55</masterclipid>
						<name>MAIN MIX_03.R.wav</name>
						<enabled>TRUE</enabled>
						<duration>171138</duration>
						<rate>
							<timebase>25</timebase>
							<ntsc>FALSE</ntsc>
						</rate>
						<start>53597</start>
						<end>53636</end>
						<in>160568</in>
						<out>160607</out>
						<pproTicksIn>1631473643520000</pproTicksIn>
						<pproTicksOut>1631869908480000</pproTicksOut>
						<file id="file-51"/>
						<sourcetrack>
							<mediatype>audio</mediatype>
							<trackindex>1</trackindex>
						</sourcetrack>
						<logginginfo>
							<description></description>
							<scene></scene>
							<shottake></shottake>
							<lognote></lognote>
						</logginginfo>
						<labels>
							<label2>Caribbean</label2>
						</labels>
					</clipitem>
					<clipitem id="clipitem-660" premiereChannelType="mono">
						<masterclipid>masterclip-55</masterclipid>
						<name>MAIN MIX_03.R.wav</name>
						<enabled>TRUE</enabled>
						<duration>171138</duration>
						<rate>
							<timebase>25</timebase>
							<ntsc>FALSE</ntsc>
						</rate>
						<start>53636</start>
						<end>55369</end>
						<in>161146</in>
						<out>162879</out>
						<pproTicksIn>1637346493440000</pproTicksIn>
						<pproTicksOut>1654954882560000</pproTicksOut>
						<file id="file-51"/>
						<sourcetrack>
							<mediatype>audio</mediatype>
							<trackindex>1</trackindex>
						</sourcetrack>
						<logginginfo>
							<description></description>
							<scene></scene>
							<shottake></shottake>
							<lognote></lognote>
						</logginginfo>
						<labels>
							<label2>Caribbean</label2>
						</labels>
					</clipitem>
					<clipitem id="clipitem-661" premiereChannelType="mono">
						<masterclipid>masterclip-55</masterclipid>
						<name>MAIN MIX_03.R.wav</name>
						<enabled>TRUE</enabled>
						<duration>171138</duration>
						<rate>
							<timebase>25</timebase>
							<ntsc>FALSE</ntsc>
						</rate>
						<start>55369</start>
						<end>55449</end>
						<in>162899</in>
						<out>162979</out>
						<pproTicksIn>1655158095360000</pproTicksIn>
						<pproTicksOut>1655970946560000</pproTicksOut>
						<file id="file-51"/>
						<sourcetrack>
							<mediatype>audio</mediatype>
							<trackindex>1</trackindex>
						</sourcetrack>
						<logginginfo>
							<description></description>
							<scene></scene>
							<shottake></shottake>
							<lognote></lognote>
						</logginginfo>
						<labels>
							<label2>Caribbean</label2>
						</labels>
					</clipitem>
					<clipitem id="clipitem-662" premiereChannelType="mono">
						<masterclipid>masterclip-55</masterclipid>
						<name>MAIN MIX_03.R.wav</name>
						<enabled>TRUE</enabled>
						<duration>171138</duration>
						<rate>
							<timebase>25</timebase>
							<ntsc>FALSE</ntsc>
						</rate>
						<start>55449</start>
						<end>55738</end>
						<in>163146</in>
						<out>163435</out>
						<pproTicksIn>1657667773440000</pproTicksIn>
						<pproTicksOut>1660604198400000</pproTicksOut>
						<file id="file-51"/>
						<sourcetrack>
							<mediatype>audio</mediatype>
							<trackindex>1</trackindex>
						</sourcetrack>
						<logginginfo>
							<description></description>
							<scene></scene>
							<shottake></shottake>
							<lognote></lognote>
						</logginginfo>
						<labels>
							<label2>Caribbean</label2>
						</labels>
					</clipitem>
					<clipitem id="clipitem-663" premiereChannelType="mono">
						<masterclipid>masterclip-55</masterclipid>
						<name>MAIN MIX_03.R.wav</name>
						<enabled>TRUE</enabled>
						<duration>171138</duration>
						<rate>
							<timebase>25</timebase>
							<ntsc>FALSE</ntsc>
						</rate>
						<start>55738</start>
						<end>55905</end>
						<in>163648</in>
						<out>163815</out>
						<pproTicksIn>1662768414720000</pproTicksIn>
						<pproTicksOut>1664465241600000</pproTicksOut>
						<file id="file-51"/>
						<sourcetrack>
							<mediatype>audio</mediatype>
							<trackindex>1</trackindex>
						</sourcetrack>
						<logginginfo>
							<description></description>
							<scene></scene>
							<shottake></shottake>
							<lognote></lognote>
						</logginginfo>
						<labels>
							<label2>Caribbean</label2>
						</labels>
					</clipitem>
					<clipitem id="clipitem-664" premiereChannelType="mono">
						<masterclipid>masterclip-55</masterclipid>
						<name>MAIN MIX_03.R.wav</name>
						<enabled>TRUE</enabled>
						<duration>171138</duration>
						<rate>
							<timebase>25</timebase>
							<ntsc>FALSE</ntsc>
						</rate>
						<start>55905</start>
						<end>56079</end>
						<in>163829</in>
						<out>164003</out>
						<pproTicksIn>1664607490560000</pproTicksIn>
						<pproTicksOut>1666375441920000</pproTicksOut>
						<file id="file-51"/>
						<sourcetrack>
							<mediatype>audio</mediatype>
							<trackindex>1</trackindex>
						</sourcetrack>
						<logginginfo>
							<description></description>
							<scene></scene>
							<shottake></shottake>
							<lognote></lognote>
						</logginginfo>
						<labels>
							<label2>Caribbean</label2>
						</labels>
					</clipitem>
					<clipitem id="clipitem-665" premiereChannelType="mono">
						<masterclipid>masterclip-55</masterclipid>
						<name>MAIN MIX_03.R.wav</name>
						<enabled>TRUE</enabled>
						<duration>171138</duration>
						<rate>
							<timebase>25</timebase>
							<ntsc>FALSE</ntsc>
						</rate>
						<start>56079</start>
						<end>57569</end>
						<in>164067</in>
						<out>165557</out>
						<pproTicksIn>1667025722880000</pproTicksIn>
						<pproTicksOut>1682165076480000</pproTicksOut>
						<file id="file-51"/>
						<sourcetrack>
							<mediatype>audio</mediatype>
							<trackindex>1</trackindex>
						</sourcetrack>
						<logginginfo>
							<description></description>
							<scene></scene>
							<shottake></shottake>
							<lognote></lognote>
						</logginginfo>
						<labels>
							<label2>Caribbean</label2>
						</labels>
					</clipitem>
					<enabled>TRUE</enabled>
					<locked>FALSE</locked>
					<outputchannelindex>2</outputchannelindex>
				</track>
				<track TL.SQTrackAudioKeyframeStyle="0" TL.SQTrackShy="0" TL.SQTrackExpandedHeight="25" TL.SQTrackExpanded="1" MZ.TrackTargeted="1" PannerCurrentValue="0.5" PannerIsInverted="true" PannerStartKeyframe="-91445760000000000,0.5,0,0,0,0,0,0" PannerName="Balance" currentExplodedTrackIndex="0" totalExplodedTrackCount="1" premiereTrackType="Stereo">
					<clipitem id="clipitem-666" premiereChannelType="mono">
						<masterclipid>masterclip-56</masterclipid>
						<name>Suzanne Aabel_01.wav</name>
						<enabled>TRUE</enabled>
						<duration>171138</duration>
						<rate>
							<timebase>25</timebase>
							<ntsc>FALSE</ntsc>
						</rate>
						<start>420</start>
						<end>891</end>
						<in>168511</in>
						<out>168982</out>
						<pproTicksIn>1712179607040000</pproTicksIn>
						<pproTicksOut>1716965268480000</pproTicksOut>
						<file id="file-52">
							<name>Suzanne Aabel_01.wav</name>
							<pathurl>file://localhost/Volumes/Brakka/AdobeLager/QUIZ%20-%20brakka/RA%cc%8aSTOFF%20LYD/2005/Suzanne%20Aabel_01.wav</pathurl>
							<rate>
								<timebase>30</timebase>
								<ntsc>TRUE</ntsc>
							</rate>
							<duration>205161</duration>
							<timecode>
								<rate>
									<timebase>30</timebase>
									<ntsc>TRUE</ntsc>
								</rate>
								<string>12;52;15;16</string>
								<frame>1388676</frame>
								<displayformat>DF</displayformat>
								<reel>
									<name></name>
								</reel>
							</timecode>
							<media>
								<audio>
									<samplecharacteristics>
										<depth>16</depth>
										<samplerate>48000</samplerate>
									</samplecharacteristics>
									<channelcount>1</channelcount>
									<audiochannel>
										<sourcechannel>1</sourcechannel>
									</audiochannel>
								</audio>
							</media>
						</file>
						<sourcetrack>
							<mediatype>audio</mediatype>
							<trackindex>1</trackindex>
						</sourcetrack>
						<logginginfo>
							<description></description>
							<scene></scene>
							<shottake></shottake>
							<lognote></lognote>
						</logginginfo>
						<labels>
							<label2>Caribbean</label2>
						</labels>
					</clipitem>
					<clipitem id="clipitem-667" premiereChannelType="mono">
						<masterclipid>masterclip-56</masterclipid>
						<name>Suzanne Aabel_01.wav</name>
						<enabled>TRUE</enabled>
						<duration>171138</duration>
						<rate>
							<timebase>25</timebase>
							<ntsc>FALSE</ntsc>
						</rate>
						<start>965</start>
						<end>1469</end>
						<in>32787</in>
						<out>33291</out>
						<pproTicksIn>333136903680000</pproTicksIn>
						<pproTicksOut>338257866240000</pproTicksOut>
						<file id="file-52"/>
						<sourcetrack>
							<mediatype>audio</mediatype>
							<trackindex>1</trackindex>
						</sourcetrack>
						<logginginfo>
							<description></description>
							<scene></scene>
							<shottake></shottake>
							<lognote></lognote>
						</logginginfo>
						<labels>
							<label2>Caribbean</label2>
						</labels>
					</clipitem>
					<clipitem id="clipitem-668" premiereChannelType="mono">
						<masterclipid>masterclip-56</masterclipid>
						<name>Suzanne Aabel_01.wav</name>
						<enabled>TRUE</enabled>
						<duration>171138</duration>
						<rate>
							<timebase>25</timebase>
							<ntsc>FALSE</ntsc>
						</rate>
						<start>1469</start>
						<end>4119</end>
						<in>33423</in>
						<out>36073</out>
						<pproTicksIn>339599070720000</pproTicksIn>
						<pproTicksOut>366524766720000</pproTicksOut>
						<file id="file-52"/>
						<sourcetrack>
							<mediatype>audio</mediatype>
							<trackindex>1</trackindex>
						</sourcetrack>
						<logginginfo>
							<description></description>
							<scene></scene>
							<shottake></shottake>
							<lognote></lognote>
						</logginginfo>
						<labels>
							<label2>Caribbean</label2>
						</labels>
					</clipitem>
					<clipitem id="clipitem-669" premiereChannelType="mono">
						<masterclipid>masterclip-56</masterclipid>
						<name>Suzanne Aabel_01.wav</name>
						<enabled>TRUE</enabled>
						<duration>171138</duration>
						<rate>
							<timebase>25</timebase>
							<ntsc>FALSE</ntsc>
						</rate>
						<start>4119</start>
						<end>4836</end>
						<in>36549</in>
						<out>37266</out>
						<pproTicksIn>371361231360000</pproTicksIn>
						<pproTicksOut>378646410240000</pproTicksOut>
						<file id="file-52"/>
						<sourcetrack>
							<mediatype>audio</mediatype>
							<trackindex>1</trackindex>
						</sourcetrack>
						<logginginfo>
							<description></description>
							<scene></scene>
							<shottake></shottake>
							<lognote></lognote>
						</logginginfo>
						<labels>
							<label2>Caribbean</label2>
						</labels>
					</clipitem>
					<clipitem id="clipitem-670" premiereChannelType="mono">
						<masterclipid>masterclip-56</masterclipid>
						<name>Suzanne Aabel_01.wav</name>
						<enabled>TRUE</enabled>
						<duration>171138</duration>
						<rate>
							<timebase>25</timebase>
							<ntsc>FALSE</ntsc>
						</rate>
						<start>4836</start>
						<end>5339</end>
						<in>37305</in>
						<out>37808</out>
						<pproTicksIn>379042675200000</pproTicksIn>
						<pproTicksOut>384153477120000</pproTicksOut>
						<file id="file-52"/>
						<sourcetrack>
							<mediatype>audio</mediatype>
							<trackindex>1</trackindex>
						</sourcetrack>
						<logginginfo>
							<description></description>
							<scene></scene>
							<shottake></shottake>
							<lognote></lognote>
						</logginginfo>
						<labels>
							<label2>Caribbean</label2>
						</labels>
					</clipitem>
					<clipitem id="clipitem-671" premiereChannelType="mono">
						<masterclipid>masterclip-56</masterclipid>
						<name>Suzanne Aabel_01.wav</name>
						<enabled>TRUE</enabled>
						<duration>171138</duration>
						<rate>
							<timebase>25</timebase>
							<ntsc>FALSE</ntsc>
						</rate>
						<start>5339</start>
						<end>5501</end>
						<in>37871</in>
						<out>38033</out>
						<pproTicksIn>384793597440000</pproTicksIn>
						<pproTicksOut>386439621120000</pproTicksOut>
						<file id="file-52"/>
						<sourcetrack>
							<mediatype>audio</mediatype>
							<trackindex>1</trackindex>
						</sourcetrack>
						<logginginfo>
							<description></description>
							<scene></scene>
							<shottake></shottake>
							<lognote></lognote>
						</logginginfo>
						<labels>
							<label2>Caribbean</label2>
						</labels>
					</clipitem>
					<clipitem id="clipitem-672" premiereChannelType="mono">
						<masterclipid>masterclip-56</masterclipid>
						<name>Suzanne Aabel_01.wav</name>
						<enabled>TRUE</enabled>
						<duration>171138</duration>
						<rate>
							<timebase>25</timebase>
							<ntsc>FALSE</ntsc>
						</rate>
						<start>5501</start>
						<end>6004</end>
						<in>46577</in>
						<out>47080</out>
						<pproTicksIn>473252129280000</pproTicksIn>
						<pproTicksOut>478362931200000</pproTicksOut>
						<file id="file-52"/>
						<sourcetrack>
							<mediatype>audio</mediatype>
							<trackindex>1</trackindex>
						</sourcetrack>
						<logginginfo>
							<description></description>
							<scene></scene>
							<shottake></shottake>
							<lognote></lognote>
						</logginginfo>
						<labels>
							<label2>Caribbean</label2>
						</labels>
					</clipitem>
					<clipitem id="clipitem-673" premiereChannelType="mono">
						<masterclipid>masterclip-56</masterclipid>
						<name>Suzanne Aabel_01.wav</name>
						<enabled>TRUE</enabled>
						<duration>171138</duration>
						<rate>
							<timebase>25</timebase>
							<ntsc>FALSE</ntsc>
						</rate>
						<start>6004</start>
						<end>6357</end>
						<in>50106</in>
						<out>50459</out>
						<pproTicksIn>509109027840000</pproTicksIn>
						<pproTicksOut>512695733760000</pproTicksOut>
						<file id="file-52"/>
						<sourcetrack>
							<mediatype>audio</mediatype>
							<trackindex>1</trackindex>
						</sourcetrack>
						<logginginfo>
							<description></description>
							<scene></scene>
							<shottake></shottake>
							<lognote></lognote>
						</logginginfo>
						<labels>
							<label2>Caribbean</label2>
						</labels>
					</clipitem>
					<clipitem id="clipitem-674" premiereChannelType="mono">
						<masterclipid>masterclip-56</masterclipid>
						<name>Suzanne Aabel_01.wav</name>
						<enabled>TRUE</enabled>
						<duration>171138</duration>
						<rate>
							<timebase>25</timebase>
							<ntsc>FALSE</ntsc>
						</rate>
						<start>6357</start>
						<end>6470</end>
						<in>50578</in>
						<out>50691</out>
						<pproTicksIn>513904849920000</pproTicksIn>
						<pproTicksOut>515053002240000</pproTicksOut>
						<file id="file-52"/>
						<sourcetrack>
							<mediatype>audio</mediatype>
							<trackindex>1</trackindex>
						</sourcetrack>
						<logginginfo>
							<description></description>
							<scene></scene>
							<shottake></shottake>
							<lognote></lognote>
						</logginginfo>
						<labels>
							<label2>Caribbean</label2>
						</labels>
					</clipitem>
					<clipitem id="clipitem-675" premiereChannelType="mono">
						<masterclipid>masterclip-56</masterclipid>
						<name>Suzanne Aabel_01.wav</name>
						<enabled>TRUE</enabled>
						<duration>171138</duration>
						<rate>
							<timebase>25</timebase>
							<ntsc>FALSE</ntsc>
						</rate>
						<start>6470</start>
						<end>6547</end>
						<in>50753</in>
						<out>50830</out>
						<pproTicksIn>515682961920000</pproTicksIn>
						<pproTicksOut>516465331200000</pproTicksOut>
						<file id="file-52"/>
						<sourcetrack>
							<mediatype>audio</mediatype>
							<trackindex>1</trackindex>
						</sourcetrack>
						<logginginfo>
							<description></description>
							<scene></scene>
							<shottake></shottake>
							<lognote></lognote>
						</logginginfo>
						<labels>
							<label2>Caribbean</label2>
						</labels>
					</clipitem>
					<clipitem id="clipitem-676" premiereChannelType="mono">
						<masterclipid>masterclip-56</masterclipid>
						<name>Suzanne Aabel_01.wav</name>
						<enabled>TRUE</enabled>
						<duration>171138</duration>
						<rate>
							<timebase>25</timebase>
							<ntsc>FALSE</ntsc>
						</rate>
						<start>6547</start>
						<end>7368</end>
						<in>50869</in>
						<out>51690</out>
						<pproTicksIn>516861596160000</pproTicksIn>
						<pproTicksOut>525203481600000</pproTicksOut>
						<file id="file-52"/>
						<sourcetrack>
							<mediatype>audio</mediatype>
							<trackindex>1</trackindex>
						</sourcetrack>
						<logginginfo>
							<description></description>
							<scene></scene>
							<shottake></shottake>
							<lognote></lognote>
						</logginginfo>
						<labels>
							<label2>Caribbean</label2>
						</labels>
					</clipitem>
					<clipitem id="clipitem-677" premiereChannelType="mono">
						<masterclipid>masterclip-56</masterclipid>
						<name>Suzanne Aabel_01.wav</name>
						<enabled>TRUE</enabled>
						<duration>171138</duration>
						<rate>
							<timebase>25</timebase>
							<ntsc>FALSE</ntsc>
						</rate>
						<start>7368</start>
						<end>7448</end>
						<in>51824</in>
						<out>51904</out>
						<pproTicksIn>526565007360000</pproTicksIn>
						<pproTicksOut>527377858560000</pproTicksOut>
						<file id="file-52"/>
						<sourcetrack>
							<mediatype>audio</mediatype>
							<trackindex>1</trackindex>
						</sourcetrack>
						<logginginfo>
							<description></description>
							<scene></scene>
							<shottake></shottake>
							<lognote></lognote>
						</logginginfo>
						<labels>
							<label2>Caribbean</label2>
						</labels>
					</clipitem>
					<clipitem id="clipitem-678" premiereChannelType="mono">
						<masterclipid>masterclip-56</masterclipid>
						<name>Suzanne Aabel_01.wav</name>
						<enabled>TRUE</enabled>
						<duration>171138</duration>
						<rate>
							<timebase>25</timebase>
							<ntsc>FALSE</ntsc>
						</rate>
						<start>7448</start>
						<end>8194</end>
						<in>52064</in>
						<out>52810</out>
						<pproTicksIn>529003560960000</pproTicksIn>
						<pproTicksOut>536583398400000</pproTicksOut>
						<file id="file-52"/>
						<sourcetrack>
							<mediatype>audio</mediatype>
							<trackindex>1</trackindex>
						</sourcetrack>
						<logginginfo>
							<description></description>
							<scene></scene>
							<shottake></shottake>
							<lognote></lognote>
						</logginginfo>
						<labels>
							<label2>Caribbean</label2>
						</labels>
					</clipitem>
					<clipitem id="clipitem-679" premiereChannelType="mono">
						<masterclipid>masterclip-56</masterclipid>
						<name>Suzanne Aabel_01.wav</name>
						<enabled>TRUE</enabled>
						<duration>171138</duration>
						<rate>
							<timebase>25</timebase>
							<ntsc>FALSE</ntsc>
						</rate>
						<start>8194</start>
						<end>8332</end>
						<in>57229</in>
						<out>57367</out>
						<pproTicksIn>581483266560000</pproTicksIn>
						<pproTicksOut>582885434880000</pproTicksOut>
						<file id="file-52"/>
						<sourcetrack>
							<mediatype>audio</mediatype>
							<trackindex>1</trackindex>
						</sourcetrack>
						<logginginfo>
							<description></description>
							<scene></scene>
							<shottake></shottake>
							<lognote></lognote>
						</logginginfo>
						<labels>
							<label2>Caribbean</label2>
						</labels>
					</clipitem>
					<clipitem id="clipitem-680" premiereChannelType="mono">
						<masterclipid>masterclip-56</masterclipid>
						<name>Suzanne Aabel_01.wav</name>
						<enabled>TRUE</enabled>
						<duration>171138</duration>
						<rate>
							<timebase>25</timebase>
							<ntsc>FALSE</ntsc>
						</rate>
						<start>8332</start>
						<end>8592</end>
						<in>58240</in>
						<out>58500</out>
						<pproTicksIn>591755673600000</pproTicksIn>
						<pproTicksOut>594397440000000</pproTicksOut>
						<file id="file-52"/>
						<sourcetrack>
							<mediatype>audio</mediatype>
							<trackindex>1</trackindex>
						</sourcetrack>
						<logginginfo>
							<description></description>
							<scene></scene>
							<shottake></shottake>
							<lognote></lognote>
						</logginginfo>
						<labels>
							<label2>Caribbean</label2>
						</labels>
					</clipitem>
					<clipitem id="clipitem-681" premiereChannelType="mono">
						<masterclipid>masterclip-56</masterclipid>
						<name>Suzanne Aabel_01.wav</name>
						<enabled>TRUE</enabled>
						<duration>171138</duration>
						<rate>
							<timebase>25</timebase>
							<ntsc>FALSE</ntsc>
						</rate>
						<start>8592</start>
						<end>8690</end>
						<in>58994</in>
						<out>59092</out>
						<pproTicksIn>599416796160000</pproTicksIn>
						<pproTicksOut>600412538880000</pproTicksOut>
						<file id="file-52"/>
						<sourcetrack>
							<mediatype>audio</mediatype>
							<trackindex>1</trackindex>
						</sourcetrack>
						<logginginfo>
							<description></description>
							<scene></scene>
							<shottake></shottake>
							<lognote></lognote>
						</logginginfo>
						<labels>
							<label2>Caribbean</label2>
						</labels>
					</clipitem>
					<clipitem id="clipitem-682" premiereChannelType="mono">
						<masterclipid>masterclip-56</masterclipid>
						<name>Suzanne Aabel_01.wav</name>
						<enabled>TRUE</enabled>
						<duration>171138</duration>
						<rate>
							<timebase>25</timebase>
							<ntsc>FALSE</ntsc>
						</rate>
						<start>8690</start>
						<end>8999</end>
						<in>59189</in>
						<out>59498</out>
						<pproTicksIn>601398120960000</pproTicksIn>
						<pproTicksOut>604537758720000</pproTicksOut>
						<file id="file-52"/>
						<sourcetrack>
							<mediatype>audio</mediatype>
							<trackindex>1</trackindex>
						</sourcetrack>
						<logginginfo>
							<description></description>
							<scene></scene>
							<shottake></shottake>
							<lognote></lognote>
						</logginginfo>
						<labels>
							<label2>Caribbean</label2>
						</labels>
					</clipitem>
					<clipitem id="clipitem-683" premiereChannelType="mono">
						<masterclipid>masterclip-56</masterclipid>
						<name>Suzanne Aabel_01.wav</name>
						<enabled>TRUE</enabled>
						<duration>171138</duration>
						<rate>
							<timebase>25</timebase>
							<ntsc>FALSE</ntsc>
						</rate>
						<start>8999</start>
						<end>9172</end>
						<in>59597</in>
						<out>59770</out>
						<pproTicksIn>605543662080000</pproTicksIn>
						<pproTicksOut>607301452800000</pproTicksOut>
						<file id="file-52"/>
						<sourcetrack>
							<mediatype>audio</mediatype>
							<trackindex>1</trackindex>
						</sourcetrack>
						<logginginfo>
							<description></description>
							<scene></scene>
							<shottake></shottake>
							<lognote></lognote>
						</logginginfo>
						<labels>
							<label2>Caribbean</label2>
						</labels>
					</clipitem>
					<clipitem id="clipitem-684" premiereChannelType="mono">
						<masterclipid>masterclip-56</masterclipid>
						<name>Suzanne Aabel_01.wav</name>
						<enabled>TRUE</enabled>
						<duration>171138</duration>
						<rate>
							<timebase>25</timebase>
							<ntsc>FALSE</ntsc>
						</rate>
						<start>9172</start>
						<end>9280</end>
						<in>59921</in>
						<out>60029</out>
						<pproTicksIn>608835709440000</pproTicksIn>
						<pproTicksOut>609933058560000</pproTicksOut>
						<file id="file-52"/>
						<sourcetrack>
							<mediatype>audio</mediatype>
							<trackindex>1</trackindex>
						</sourcetrack>
						<logginginfo>
							<description></description>
							<scene></scene>
							<shottake></shottake>
							<lognote></lognote>
						</logginginfo>
						<labels>
							<label2>Caribbean</label2>
						</labels>
					</clipitem>
					<clipitem id="clipitem-685" premiereChannelType="mono">
						<masterclipid>masterclip-56</masterclipid>
						<name>Suzanne Aabel_01.wav</name>
						<enabled>TRUE</enabled>
						<duration>171138</duration>
						<rate>
							<timebase>25</timebase>
							<ntsc>FALSE</ntsc>
						</rate>
						<start>9280</start>
						<end>9979</end>
						<in>65722</in>
						<out>66421</out>
						<pproTicksIn>667777582080000</pproTicksIn>
						<pproTicksOut>674879869440000</pproTicksOut>
						<file id="file-52"/>
						<sourcetrack>
							<mediatype>audio</mediatype>
							<trackindex>1</trackindex>
						</sourcetrack>
						<logginginfo>
							<description></description>
							<scene></scene>
							<shottake></shottake>
							<lognote></lognote>
						</logginginfo>
						<labels>
							<label2>Caribbean</label2>
						</labels>
					</clipitem>
					<clipitem id="clipitem-686" premiereChannelType="mono">
						<masterclipid>masterclip-56</masterclipid>
						<name>Suzanne Aabel_01.wav</name>
						<enabled>TRUE</enabled>
						<duration>171138</duration>
						<rate>
							<timebase>25</timebase>
							<ntsc>FALSE</ntsc>
						</rate>
						<start>9979</start>
						<end>10054</end>
						<in>66518</in>
						<out>66593</out>
						<pproTicksIn>675865451520000</pproTicksIn>
						<pproTicksOut>676627499520000</pproTicksOut>
						<file id="file-52"/>
						<sourcetrack>
							<mediatype>audio</mediatype>
							<trackindex>1</trackindex>
						</sourcetrack>
						<logginginfo>
							<description></description>
							<scene></scene>
							<shottake></shottake>
							<lognote></lognote>
						</logginginfo>
						<labels>
							<label2>Caribbean</label2>
						</labels>
					</clipitem>
					<clipitem id="clipitem-687" premiereChannelType="mono">
						<masterclipid>masterclip-56</masterclipid>
						<name>Suzanne Aabel_01.wav</name>
						<enabled>TRUE</enabled>
						<duration>171138</duration>
						<rate>
							<timebase>25</timebase>
							<ntsc>FALSE</ntsc>
						</rate>
						<start>10054</start>
						<end>10901</end>
						<in>67109</in>
						<out>67956</out>
						<pproTicksIn>681870389760000</pproTicksIn>
						<pproTicksOut>690476451840000</pproTicksOut>
						<file id="file-52"/>
						<sourcetrack>
							<mediatype>audio</mediatype>
							<trackindex>1</trackindex>
						</sourcetrack>
						<logginginfo>
							<description></description>
							<scene></scene>
							<shottake></shottake>
							<lognote></lognote>
						</logginginfo>
						<labels>
							<label2>Caribbean</label2>
						</labels>
					</clipitem>
					<clipitem id="clipitem-688" premiereChannelType="mono">
						<masterclipid>masterclip-56</masterclipid>
						<name>Suzanne Aabel_01.wav</name>
						<enabled>TRUE</enabled>
						<duration>171138</duration>
						<rate>
							<timebase>25</timebase>
							<ntsc>FALSE</ntsc>
						</rate>
						<start>10901</start>
						<end>11157</end>
						<in>67945</in>
						<out>68201</out>
						<pproTicksIn>690364684800000</pproTicksIn>
						<pproTicksOut>692965808640000</pproTicksOut>
						<file id="file-52"/>
						<sourcetrack>
							<mediatype>audio</mediatype>
							<trackindex>1</trackindex>
						</sourcetrack>
						<logginginfo>
							<description></description>
							<scene></scene>
							<shottake></shottake>
							<lognote></lognote>
						</logginginfo>
						<labels>
							<label2>Caribbean</label2>
						</labels>
					</clipitem>
					<clipitem id="clipitem-689" premiereChannelType="mono">
						<masterclipid>masterclip-56</masterclipid>
						<name>Suzanne Aabel_01.wav</name>
						<enabled>TRUE</enabled>
						<duration>171138</duration>
						<rate>
							<timebase>25</timebase>
							<ntsc>FALSE</ntsc>
						</rate>
						<start>11157</start>
						<end>11309</end>
						<in>68218</in>
						<out>68370</out>
						<pproTicksIn>693138539520000</pproTicksIn>
						<pproTicksOut>694682956800000</pproTicksOut>
						<file id="file-52"/>
						<sourcetrack>
							<mediatype>audio</mediatype>
							<trackindex>1</trackindex>
						</sourcetrack>
						<logginginfo>
							<description></description>
							<scene></scene>
							<shottake></shottake>
							<lognote></lognote>
						</logginginfo>
						<labels>
							<label2>Caribbean</label2>
						</labels>
					</clipitem>
					<clipitem id="clipitem-690" premiereChannelType="mono">
						<masterclipid>masterclip-56</masterclipid>
						<name>Suzanne Aabel_01.wav</name>
						<enabled>TRUE</enabled>
						<duration>171138</duration>
						<rate>
							<timebase>25</timebase>
							<ntsc>FALSE</ntsc>
						</rate>
						<start>11309</start>
						<end>11781</end>
						<in>68707</in>
						<out>69179</out>
						<pproTicksIn>698107092480000</pproTicksIn>
						<pproTicksOut>702902914560000</pproTicksOut>
						<file id="file-52"/>
						<sourcetrack>
							<mediatype>audio</mediatype>
							<trackindex>1</trackindex>
						</sourcetrack>
						<logginginfo>
							<description></description>
							<scene></scene>
							<shottake></shottake>
							<lognote></lognote>
						</logginginfo>
						<labels>
							<label2>Caribbean</label2>
						</labels>
					</clipitem>
					<clipitem id="clipitem-691" premiereChannelType="mono">
						<masterclipid>masterclip-56</masterclipid>
						<name>Suzanne Aabel_01.wav</name>
						<enabled>TRUE</enabled>
						<duration>171138</duration>
						<rate>
							<timebase>25</timebase>
							<ntsc>FALSE</ntsc>
						</rate>
						<start>11781</start>
						<end>12155</end>
						<in>70010</in>
						<out>70384</out>
						<pproTicksIn>711346406400000</pproTicksIn>
						<pproTicksOut>715146485760000</pproTicksOut>
						<file id="file-52"/>
						<sourcetrack>
							<mediatype>audio</mediatype>
							<trackindex>1</trackindex>
						</sourcetrack>
						<logginginfo>
							<description></description>
							<scene></scene>
							<shottake></shottake>
							<lognote></lognote>
						</logginginfo>
						<labels>
							<label2>Caribbean</label2>
						</labels>
					</clipitem>
					<clipitem id="clipitem-692" premiereChannelType="mono">
						<masterclipid>masterclip-56</masterclipid>
						<name>Suzanne Aabel_01.wav</name>
						<enabled>TRUE</enabled>
						<duration>171138</duration>
						<rate>
							<timebase>25</timebase>
							<ntsc>FALSE</ntsc>
						</rate>
						<start>12155</start>
						<end>13212</end>
						<in>70448</in>
						<out>71505</out>
						<pproTicksIn>715796766720000</pproTicksIn>
						<pproTicksOut>726536563200000</pproTicksOut>
						<file id="file-52"/>
						<sourcetrack>
							<mediatype>audio</mediatype>
							<trackindex>1</trackindex>
						</sourcetrack>
						<logginginfo>
							<description></description>
							<scene></scene>
							<shottake></shottake>
							<lognote></lognote>
						</logginginfo>
						<labels>
							<label2>Caribbean</label2>
						</labels>
					</clipitem>
					<clipitem id="clipitem-693" premiereChannelType="mono">
						<masterclipid>masterclip-56</masterclipid>
						<name>Suzanne Aabel_01.wav</name>
						<enabled>TRUE</enabled>
						<duration>171138</duration>
						<rate>
							<timebase>25</timebase>
							<ntsc>FALSE</ntsc>
						</rate>
						<start>13212</start>
						<end>13343</end>
						<in>71544</in>
						<out>71675</out>
						<pproTicksIn>726932828160000</pproTicksIn>
						<pproTicksOut>728263872000000</pproTicksOut>
						<file id="file-52"/>
						<sourcetrack>
							<mediatype>audio</mediatype>
							<trackindex>1</trackindex>
						</sourcetrack>
						<logginginfo>
							<description></description>
							<scene></scene>
							<shottake></shottake>
							<lognote></lognote>
						</logginginfo>
						<labels>
							<label2>Caribbean</label2>
						</labels>
					</clipitem>
					<clipitem id="clipitem-694" premiereChannelType="mono">
						<masterclipid>masterclip-56</masterclipid>
						<name>Suzanne Aabel_01.wav</name>
						<enabled>TRUE</enabled>
						<duration>171138</duration>
						<rate>
							<timebase>25</timebase>
							<ntsc>FALSE</ntsc>
						</rate>
						<start>13359</start>
						<end>13506</end>
						<in>77542</in>
						<out>77689</out>
						<pproTicksIn>787876346880000</pproTicksIn>
						<pproTicksOut>789369960960000</pproTicksOut>
						<file id="file-52"/>
						<sourcetrack>
							<mediatype>audio</mediatype>
							<trackindex>1</trackindex>
						</sourcetrack>
						<logginginfo>
							<description></description>
							<scene></scene>
							<shottake></shottake>
							<lognote></lognote>
						</logginginfo>
						<labels>
							<label2>Caribbean</label2>
						</labels>
					</clipitem>
					<clipitem id="clipitem-695" premiereChannelType="mono">
						<masterclipid>masterclip-56</masterclipid>
						<name>Suzanne Aabel_01.wav</name>
						<enabled>TRUE</enabled>
						<duration>171138</duration>
						<rate>
							<timebase>25</timebase>
							<ntsc>FALSE</ntsc>
						</rate>
						<start>13506</start>
						<end>14081</end>
						<in>78019</in>
						<out>78594</out>
						<pproTicksIn>792722972160000</pproTicksIn>
						<pproTicksOut>798565340160000</pproTicksOut>
						<file id="file-52"/>
						<sourcetrack>
							<mediatype>audio</mediatype>
							<trackindex>1</trackindex>
						</sourcetrack>
						<logginginfo>
							<description></description>
							<scene></scene>
							<shottake></shottake>
							<lognote></lognote>
						</logginginfo>
						<labels>
							<label2>Caribbean</label2>
						</labels>
					</clipitem>
					<clipitem id="clipitem-696" premiereChannelType="mono">
						<masterclipid>masterclip-56</masterclipid>
						<name>Suzanne Aabel_01.wav</name>
						<enabled>TRUE</enabled>
						<duration>171138</duration>
						<rate>
							<timebase>25</timebase>
							<ntsc>FALSE</ntsc>
						</rate>
						<start>14081</start>
						<end>14232</end>
						<in>78676</in>
						<out>78827</out>
						<pproTicksIn>799398512640000</pproTicksIn>
						<pproTicksOut>800932769280000</pproTicksOut>
						<file id="file-52"/>
						<sourcetrack>
							<mediatype>audio</mediatype>
							<trackindex>1</trackindex>
						</sourcetrack>
						<logginginfo>
							<description></description>
							<scene></scene>
							<shottake></shottake>
							<lognote></lognote>
						</logginginfo>
						<labels>
							<label2>Caribbean</label2>
						</labels>
					</clipitem>
					<clipitem id="clipitem-697" premiereChannelType="mono">
						<masterclipid>masterclip-56</masterclipid>
						<name>Suzanne Aabel_01.wav</name>
						<enabled>TRUE</enabled>
						<duration>171138</duration>
						<rate>
							<timebase>25</timebase>
							<ntsc>FALSE</ntsc>
						</rate>
						<start>14232</start>
						<end>14550</end>
						<in>78886</in>
						<out>79204</out>
						<pproTicksIn>801532247040000</pproTicksIn>
						<pproTicksOut>804763330560000</pproTicksOut>
						<file id="file-52"/>
						<sourcetrack>
							<mediatype>audio</mediatype>
							<trackindex>1</trackindex>
						</sourcetrack>
						<logginginfo>
							<description></description>
							<scene></scene>
							<shottake></shottake>
							<lognote></lognote>
						</logginginfo>
						<labels>
							<label2>Caribbean</label2>
						</labels>
					</clipitem>
					<clipitem id="clipitem-698" premiereChannelType="mono">
						<masterclipid>masterclip-56</masterclipid>
						<name>Suzanne Aabel_01.wav</name>
						<enabled>TRUE</enabled>
						<duration>171138</duration>
						<rate>
							<timebase>25</timebase>
							<ntsc>FALSE</ntsc>
						</rate>
						<start>14550</start>
						<end>14774</end>
						<in>79562</in>
						<out>79786</out>
						<pproTicksIn>808400839680000</pproTicksIn>
						<pproTicksOut>810676823040000</pproTicksOut>
						<file id="file-52"/>
						<sourcetrack>
							<mediatype>audio</mediatype>
							<trackindex>1</trackindex>
						</sourcetrack>
						<logginginfo>
							<description></description>
							<scene></scene>
							<shottake></shottake>
							<lognote></lognote>
						</logginginfo>
						<labels>
							<label2>Caribbean</label2>
						</labels>
					</clipitem>
					<clipitem id="clipitem-699" premiereChannelType="mono">
						<masterclipid>masterclip-56</masterclipid>
						<name>Suzanne Aabel_01.wav</name>
						<enabled>TRUE</enabled>
						<duration>171138</duration>
						<rate>
							<timebase>25</timebase>
							<ntsc>FALSE</ntsc>
						</rate>
						<start>14774</start>
						<end>14798</end>
						<in>79204</in>
						<out>79228</out>
						<pproTicksIn>804763330560000</pproTicksIn>
						<pproTicksOut>805007185920000</pproTicksOut>
						<file id="file-52"/>
						<sourcetrack>
							<mediatype>audio</mediatype>
							<trackindex>1</trackindex>
						</sourcetrack>
						<logginginfo>
							<description></description>
							<scene></scene>
							<shottake></shottake>
							<lognote></lognote>
						</logginginfo>
						<labels>
							<label2>Caribbean</label2>
						</labels>
					</clipitem>
					<clipitem id="clipitem-700" premiereChannelType="mono">
						<masterclipid>masterclip-56</masterclipid>
						<name>Suzanne Aabel_01.wav</name>
						<enabled>TRUE</enabled>
						<duration>171138</duration>
						<rate>
							<timebase>25</timebase>
							<ntsc>FALSE</ntsc>
						</rate>
						<start>14798</start>
						<end>14887</end>
						<in>80182</in>
						<out>80271</out>
						<pproTicksIn>814700436480000</pproTicksIn>
						<pproTicksOut>815604733440000</pproTicksOut>
						<file id="file-52"/>
						<sourcetrack>
							<mediatype>audio</mediatype>
							<trackindex>1</trackindex>
						</sourcetrack>
						<logginginfo>
							<description></description>
							<scene></scene>
							<shottake></shottake>
							<lognote></lognote>
						</logginginfo>
						<labels>
							<label2>Caribbean</label2>
						</labels>
					</clipitem>
					<clipitem id="clipitem-701" premiereChannelType="mono">
						<masterclipid>masterclip-56</masterclipid>
						<name>Suzanne Aabel_01.wav</name>
						<enabled>TRUE</enabled>
						<duration>171138</duration>
						<rate>
							<timebase>25</timebase>
							<ntsc>FALSE</ntsc>
						</rate>
						<start>14887</start>
						<end>15129</end>
						<in>80569</in>
						<out>80811</out>
						<pproTicksIn>818632604160000</pproTicksIn>
						<pproTicksOut>821091479040000</pproTicksOut>
						<file id="file-52"/>
						<sourcetrack>
							<mediatype>audio</mediatype>
							<trackindex>1</trackindex>
						</sourcetrack>
						<logginginfo>
							<description></description>
							<scene></scene>
							<shottake></shottake>
							<lognote></lognote>
						</logginginfo>
						<labels>
							<label2>Caribbean</label2>
						</labels>
					</clipitem>
					<clipitem id="clipitem-702" premiereChannelType="mono">
						<masterclipid>masterclip-56</masterclipid>
						<name>Suzanne Aabel_01.wav</name>
						<enabled>TRUE</enabled>
						<duration>171138</duration>
						<rate>
							<timebase>25</timebase>
							<ntsc>FALSE</ntsc>
						</rate>
						<start>15129</start>
						<end>15493</end>
						<in>80817</in>
						<out>81181</out>
						<pproTicksIn>821152442880000</pproTicksIn>
						<pproTicksOut>824850915840000</pproTicksOut>
						<file id="file-52"/>
						<sourcetrack>
							<mediatype>audio</mediatype>
							<trackindex>1</trackindex>
						</sourcetrack>
						<logginginfo>
							<description></description>
							<scene></scene>
							<shottake></shottake>
							<lognote></lognote>
						</logginginfo>
						<labels>
							<label2>Caribbean</label2>
						</labels>
					</clipitem>
					<clipitem id="clipitem-703" premiereChannelType="mono">
						<masterclipid>masterclip-56</masterclipid>
						<name>Suzanne Aabel_01.wav</name>
						<enabled>TRUE</enabled>
						<duration>171138</duration>
						<rate>
							<timebase>25</timebase>
							<ntsc>FALSE</ntsc>
						</rate>
						<start>15493</start>
						<end>15657</end>
						<in>81234</in>
						<out>81398</out>
						<pproTicksIn>825389429760000</pproTicksIn>
						<pproTicksOut>827055774720000</pproTicksOut>
						<file id="file-52"/>
						<sourcetrack>
							<mediatype>audio</mediatype>
							<trackindex>1</trackindex>
						</sourcetrack>
						<logginginfo>
							<description></description>
							<scene></scene>
							<shottake></shottake>
							<lognote></lognote>
						</logginginfo>
						<labels>
							<label2>Caribbean</label2>
						</labels>
					</clipitem>
					<clipitem id="clipitem-704" premiereChannelType="mono">
						<masterclipid>masterclip-56</masterclipid>
						<name>Suzanne Aabel_01.wav</name>
						<enabled>TRUE</enabled>
						<duration>171138</duration>
						<rate>
							<timebase>25</timebase>
							<ntsc>FALSE</ntsc>
						</rate>
						<start>15657</start>
						<end>15850</end>
						<in>81563</in>
						<out>81756</out>
						<pproTicksIn>828732280320000</pproTicksIn>
						<pproTicksOut>830693283840000</pproTicksOut>
						<file id="file-52"/>
						<sourcetrack>
							<mediatype>audio</mediatype>
							<trackindex>1</trackindex>
						</sourcetrack>
						<logginginfo>
							<description></description>
							<scene></scene>
							<shottake></shottake>
							<lognote></lognote>
						</logginginfo>
						<labels>
							<label2>Caribbean</label2>
						</labels>
					</clipitem>
					<clipitem id="clipitem-705" premiereChannelType="mono">
						<masterclipid>masterclip-56</masterclipid>
						<name>Suzanne Aabel_01.wav</name>
						<enabled>TRUE</enabled>
						<duration>171138</duration>
						<rate>
							<timebase>25</timebase>
							<ntsc>FALSE</ntsc>
						</rate>
						<start>15850</start>
						<end>16018</end>
						<in>81984</in>
						<out>82152</out>
						<pproTicksIn>833009909760000</pproTicksIn>
						<pproTicksOut>834716897280000</pproTicksOut>
						<file id="file-52"/>
						<sourcetrack>
							<mediatype>audio</mediatype>
							<trackindex>1</trackindex>
						</sourcetrack>
						<logginginfo>
							<description></description>
							<scene></scene>
							<shottake></shottake>
							<lognote></lognote>
						</logginginfo>
						<labels>
							<label2>Caribbean</label2>
						</labels>
					</clipitem>
					<clipitem id="clipitem-706" premiereChannelType="mono">
						<masterclipid>masterclip-56</masterclipid>
						<name>Suzanne Aabel_01.wav</name>
						<enabled>TRUE</enabled>
						<duration>171138</duration>
						<rate>
							<timebase>25</timebase>
							<ntsc>FALSE</ntsc>
						</rate>
						<start>16018</start>
						<end>16073</end>
						<in>82477</in>
						<out>82532</out>
						<pproTicksIn>838019105280000</pproTicksIn>
						<pproTicksOut>838577940480000</pproTicksOut>
						<file id="file-52"/>
						<sourcetrack>
							<mediatype>audio</mediatype>
							<trackindex>1</trackindex>
						</sourcetrack>
						<logginginfo>
							<description></description>
							<scene></scene>
							<shottake></shottake>
							<lognote></lognote>
						</logginginfo>
						<labels>
							<label2>Caribbean</label2>
						</labels>
					</clipitem>
					<clipitem id="clipitem-707" premiereChannelType="mono">
						<masterclipid>masterclip-56</masterclipid>
						<name>Suzanne Aabel_01.wav</name>
						<enabled>TRUE</enabled>
						<duration>171138</duration>
						<rate>
							<timebase>25</timebase>
							<ntsc>FALSE</ntsc>
						</rate>
						<start>16073</start>
						<end>16115</end>
						<in>83437</in>
						<out>83479</out>
						<pproTicksIn>847773319680000</pproTicksIn>
						<pproTicksOut>848200066560000</pproTicksOut>
						<file id="file-52"/>
						<sourcetrack>
							<mediatype>audio</mediatype>
							<trackindex>1</trackindex>
						</sourcetrack>
						<logginginfo>
							<description></description>
							<scene></scene>
							<shottake></shottake>
							<lognote></lognote>
						</logginginfo>
						<labels>
							<label2>Caribbean</label2>
						</labels>
					</clipitem>
					<clipitem id="clipitem-708" premiereChannelType="mono">
						<masterclipid>masterclip-56</masterclipid>
						<name>Suzanne Aabel_01.wav</name>
						<enabled>TRUE</enabled>
						<duration>171138</duration>
						<rate>
							<timebase>25</timebase>
							<ntsc>FALSE</ntsc>
						</rate>
						<start>16115</start>
						<end>16204</end>
						<in>83479</in>
						<out>83568</out>
						<pproTicksIn>848200066560000</pproTicksIn>
						<pproTicksOut>849104363520000</pproTicksOut>
						<file id="file-52"/>
						<sourcetrack>
							<mediatype>audio</mediatype>
							<trackindex>1</trackindex>
						</sourcetrack>
						<logginginfo>
							<description></description>
							<scene></scene>
							<shottake></shottake>
							<lognote></lognote>
						</logginginfo>
						<labels>
							<label2>Caribbean</label2>
						</labels>
					</clipitem>
					<clipitem id="clipitem-709" premiereChannelType="mono">
						<masterclipid>masterclip-56</masterclipid>
						<name>Suzanne Aabel_01.wav</name>
						<enabled>TRUE</enabled>
						<duration>171138</duration>
						<rate>
							<timebase>25</timebase>
							<ntsc>FALSE</ntsc>
						</rate>
						<start>16204</start>
						<end>16898</end>
						<in>83568</in>
						<out>84262</out>
						<pproTicksIn>849104363520000</pproTicksIn>
						<pproTicksOut>856155847680000</pproTicksOut>
						<file id="file-52"/>
						<sourcetrack>
							<mediatype>audio</mediatype>
							<trackindex>1</trackindex>
						</sourcetrack>
						<logginginfo>
							<description></description>
							<scene></scene>
							<shottake></shottake>
							<lognote></lognote>
						</logginginfo>
						<labels>
							<label2>Caribbean</label2>
						</labels>
					</clipitem>
					<clipitem id="clipitem-710" premiereChannelType="mono">
						<masterclipid>masterclip-56</masterclipid>
						<name>Suzanne Aabel_01.wav</name>
						<enabled>TRUE</enabled>
						<duration>171138</duration>
						<rate>
							<timebase>25</timebase>
							<ntsc>FALSE</ntsc>
						</rate>
						<start>16898</start>
						<end>16971</end>
						<in>84282</in>
						<out>84355</out>
						<pproTicksIn>856359060480000</pproTicksIn>
						<pproTicksOut>857100787200000</pproTicksOut>
						<file id="file-52"/>
						<sourcetrack>
							<mediatype>audio</mediatype>
							<trackindex>1</trackindex>
						</sourcetrack>
						<logginginfo>
							<description></description>
							<scene></scene>
							<shottake></shottake>
							<lognote></lognote>
						</logginginfo>
						<labels>
							<label2>Caribbean</label2>
						</labels>
					</clipitem>
					<clipitem id="clipitem-711" premiereChannelType="mono">
						<masterclipid>masterclip-56</masterclipid>
						<name>Suzanne Aabel_01.wav</name>
						<enabled>TRUE</enabled>
						<duration>171138</duration>
						<rate>
							<timebase>25</timebase>
							<ntsc>FALSE</ntsc>
						</rate>
						<start>16971</start>
						<end>17329</end>
						<in>84400</in>
						<out>84758</out>
						<pproTicksIn>857558016000000</pproTicksIn>
						<pproTicksOut>861195525120000</pproTicksOut>
						<file id="file-52"/>
						<sourcetrack>
							<mediatype>audio</mediatype>
							<trackindex>1</trackindex>
						</sourcetrack>
						<logginginfo>
							<description></description>
							<scene></scene>
							<shottake></shottake>
							<lognote></lognote>
						</logginginfo>
						<labels>
							<label2>Caribbean</label2>
						</labels>
					</clipitem>
					<clipitem id="clipitem-712" premiereChannelType="mono">
						<masterclipid>masterclip-56</masterclipid>
						<name>Suzanne Aabel_01.wav</name>
						<enabled>TRUE</enabled>
						<duration>171138</duration>
						<rate>
							<timebase>25</timebase>
							<ntsc>FALSE</ntsc>
						</rate>
						<start>17329</start>
						<end>17417</end>
						<in>85268</in>
						<out>85356</out>
						<pproTicksIn>866377451520000</pproTicksIn>
						<pproTicksOut>867271587840000</pproTicksOut>
						<file id="file-52"/>
						<sourcetrack>
							<mediatype>audio</mediatype>
							<trackindex>1</trackindex>
						</sourcetrack>
						<logginginfo>
							<description></description>
							<scene></scene>
							<shottake></shottake>
							<lognote></lognote>
						</logginginfo>
						<labels>
							<label2>Caribbean</label2>
						</labels>
					</clipitem>
					<clipitem id="clipitem-713" premiereChannelType="mono">
						<masterclipid>masterclip-56</masterclipid>
						<name>Suzanne Aabel_01.wav</name>
						<enabled>TRUE</enabled>
						<duration>171138</duration>
						<rate>
							<timebase>25</timebase>
							<ntsc>FALSE</ntsc>
						</rate>
						<start>17417</start>
						<end>17611</end>
						<in>85074</in>
						<out>85268</out>
						<pproTicksIn>864406287360000</pproTicksIn>
						<pproTicksOut>866377451520000</pproTicksOut>
						<file id="file-52"/>
						<sourcetrack>
							<mediatype>audio</mediatype>
							<trackindex>1</trackindex>
						</sourcetrack>
						<logginginfo>
							<description></description>
							<scene></scene>
							<shottake></shottake>
							<lognote></lognote>
						</logginginfo>
						<labels>
							<label2>Caribbean</label2>
						</labels>
					</clipitem>
					<clipitem id="clipitem-714" premiereChannelType="mono">
						<masterclipid>masterclip-56</masterclipid>
						<name>Suzanne Aabel_01.wav</name>
						<enabled>TRUE</enabled>
						<duration>171138</duration>
						<rate>
							<timebase>25</timebase>
							<ntsc>FALSE</ntsc>
						</rate>
						<start>17611</start>
						<end>17830</end>
						<in>85560</in>
						<out>85779</out>
						<pproTicksIn>869344358400000</pproTicksIn>
						<pproTicksOut>871569538560000</pproTicksOut>
						<file id="file-52"/>
						<sourcetrack>
							<mediatype>audio</mediatype>
							<trackindex>1</trackindex>
						</sourcetrack>
						<logginginfo>
							<description></description>
							<scene></scene>
							<shottake></shottake>
							<lognote></lognote>
						</logginginfo>
						<labels>
							<label2>Caribbean</label2>
						</labels>
					</clipitem>
					<clipitem id="clipitem-715" premiereChannelType="mono">
						<masterclipid>masterclip-56</masterclipid>
						<name>Suzanne Aabel_01.wav</name>
						<enabled>TRUE</enabled>
						<duration>171138</duration>
						<rate>
							<timebase>25</timebase>
							<ntsc>FALSE</ntsc>
						</rate>
						<start>17830</start>
						<end>17876</end>
						<in>83479</in>
						<out>83525</out>
						<pproTicksIn>848200066560000</pproTicksIn>
						<pproTicksOut>848667456000000</pproTicksOut>
						<file id="file-52"/>
						<sourcetrack>
							<mediatype>audio</mediatype>
							<trackindex>1</trackindex>
						</sourcetrack>
						<logginginfo>
							<description></description>
							<scene></scene>
							<shottake></shottake>
							<lognote></lognote>
						</logginginfo>
						<labels>
							<label2>Caribbean</label2>
						</labels>
					</clipitem>
					<clipitem id="clipitem-716" premiereChannelType="mono">
						<masterclipid>masterclip-56</masterclipid>
						<name>Suzanne Aabel_01.wav</name>
						<enabled>TRUE</enabled>
						<duration>171138</duration>
						<rate>
							<timebase>25</timebase>
							<ntsc>FALSE</ntsc>
						</rate>
						<start>17876</start>
						<end>18012</end>
						<in>85841</in>
						<out>85977</out>
						<pproTicksIn>872199498240000</pproTicksIn>
						<pproTicksOut>873581345280000</pproTicksOut>
						<file id="file-52"/>
						<sourcetrack>
							<mediatype>audio</mediatype>
							<trackindex>1</trackindex>
						</sourcetrack>
						<logginginfo>
							<description></description>
							<scene></scene>
							<shottake></shottake>
							<lognote></lognote>
						</logginginfo>
						<labels>
							<label2>Caribbean</label2>
						</labels>
					</clipitem>
					<clipitem id="clipitem-717" premiereChannelType="mono">
						<masterclipid>masterclip-56</masterclipid>
						<name>Suzanne Aabel_01.wav</name>
						<enabled>TRUE</enabled>
						<duration>171138</duration>
						<rate>
							<timebase>25</timebase>
							<ntsc>FALSE</ntsc>
						</rate>
						<start>18012</start>
						<end>18158</end>
						<in>116811</in>
						<out>116957</out>
						<pproTicksIn>1186874519040000</pproTicksIn>
						<pproTicksOut>1188357972480000</pproTicksOut>
						<file id="file-52"/>
						<sourcetrack>
							<mediatype>audio</mediatype>
							<trackindex>1</trackindex>
						</sourcetrack>
						<logginginfo>
							<description></description>
							<scene></scene>
							<shottake></shottake>
							<lognote></lognote>
						</logginginfo>
						<labels>
							<label2>Caribbean</label2>
						</labels>
					</clipitem>
					<clipitem id="clipitem-718" premiereChannelType="mono">
						<masterclipid>masterclip-56</masterclipid>
						<name>Suzanne Aabel_01.wav</name>
						<enabled>TRUE</enabled>
						<duration>171138</duration>
						<rate>
							<timebase>25</timebase>
							<ntsc>FALSE</ntsc>
						</rate>
						<start>18158</start>
						<end>18332</end>
						<in>86150</in>
						<out>86324</out>
						<pproTicksIn>875339136000000</pproTicksIn>
						<pproTicksOut>877107087360000</pproTicksOut>
						<file id="file-52"/>
						<sourcetrack>
							<mediatype>audio</mediatype>
							<trackindex>1</trackindex>
						</sourcetrack>
						<logginginfo>
							<description></description>
							<scene></scene>
							<shottake></shottake>
							<lognote></lognote>
						</logginginfo>
						<labels>
							<label2>Caribbean</label2>
						</labels>
					</clipitem>
					<clipitem id="clipitem-719" premiereChannelType="mono">
						<masterclipid>masterclip-56</masterclipid>
						<name>Suzanne Aabel_01.wav</name>
						<enabled>TRUE</enabled>
						<duration>171138</duration>
						<rate>
							<timebase>25</timebase>
							<ntsc>FALSE</ntsc>
						</rate>
						<start>18332</start>
						<end>22265</end>
						<in>87920</in>
						<out>91853</out>
						<pproTicksIn>893323468800000</pproTicksIn>
						<pproTicksOut>933285265920000</pproTicksOut>
						<file id="file-52"/>
						<sourcetrack>
							<mediatype>audio</mediatype>
							<trackindex>1</trackindex>
						</sourcetrack>
						<logginginfo>
							<description></description>
							<scene></scene>
							<shottake></shottake>
							<lognote></lognote>
						</logginginfo>
						<labels>
							<label2>Caribbean</label2>
						</labels>
					</clipitem>
					<clipitem id="clipitem-720" premiereChannelType="mono">
						<masterclipid>masterclip-56</masterclipid>
						<name>Suzanne Aabel_01.wav</name>
						<enabled>TRUE</enabled>
						<duration>171138</duration>
						<rate>
							<timebase>25</timebase>
							<ntsc>FALSE</ntsc>
						</rate>
						<start>22265</start>
						<end>23367</end>
						<in>91952</in>
						<out>93054</out>
						<pproTicksIn>934291169280000</pproTicksIn>
						<pproTicksOut>945488194560000</pproTicksOut>
						<file id="file-52"/>
						<sourcetrack>
							<mediatype>audio</mediatype>
							<trackindex>1</trackindex>
						</sourcetrack>
						<logginginfo>
							<description></description>
							<scene></scene>
							<shottake></shottake>
							<lognote></lognote>
						</logginginfo>
						<labels>
							<label2>Caribbean</label2>
						</labels>
					</clipitem>
					<clipitem id="clipitem-721" premiereChannelType="mono">
						<masterclipid>masterclip-56</masterclipid>
						<name>Suzanne Aabel_01.wav</name>
						<enabled>TRUE</enabled>
						<duration>171138</duration>
						<rate>
							<timebase>25</timebase>
							<ntsc>FALSE</ntsc>
						</rate>
						<start>23367</start>
						<end>23724</end>
						<in>93377</in>
						<out>93734</out>
						<pproTicksIn>948770081280000</pproTicksIn>
						<pproTicksOut>952397429760000</pproTicksOut>
						<file id="file-52"/>
						<sourcetrack>
							<mediatype>audio</mediatype>
							<trackindex>1</trackindex>
						</sourcetrack>
						<logginginfo>
							<description></description>
							<scene></scene>
							<shottake></shottake>
							<lognote></lognote>
						</logginginfo>
						<labels>
							<label2>Caribbean</label2>
						</labels>
					</clipitem>
					<clipitem id="clipitem-722" premiereChannelType="mono">
						<masterclipid>masterclip-56</masterclipid>
						<name>Suzanne Aabel_01.wav</name>
						<enabled>TRUE</enabled>
						<duration>171138</duration>
						<rate>
							<timebase>25</timebase>
							<ntsc>FALSE</ntsc>
						</rate>
						<start>23724</start>
						<end>24114</end>
						<in>94350</in>
						<out>94740</out>
						<pproTicksIn>958656384000000</pproTicksIn>
						<pproTicksOut>962619033600000</pproTicksOut>
						<file id="file-52"/>
						<sourcetrack>
							<mediatype>audio</mediatype>
							<trackindex>1</trackindex>
						</sourcetrack>
						<logginginfo>
							<description></description>
							<scene></scene>
							<shottake></shottake>
							<lognote></lognote>
						</logginginfo>
						<labels>
							<label2>Caribbean</label2>
						</labels>
					</clipitem>
					<clipitem id="clipitem-723" premiereChannelType="mono">
						<masterclipid>masterclip-56</masterclipid>
						<name>Suzanne Aabel_01.wav</name>
						<enabled>TRUE</enabled>
						<duration>171138</duration>
						<rate>
							<timebase>25</timebase>
							<ntsc>FALSE</ntsc>
						</rate>
						<start>24114</start>
						<end>24241</end>
						<in>94797</in>
						<out>94924</out>
						<pproTicksIn>963198190080000</pproTicksIn>
						<pproTicksOut>964488591360000</pproTicksOut>
						<file id="file-52"/>
						<sourcetrack>
							<mediatype>audio</mediatype>
							<trackindex>1</trackindex>
						</sourcetrack>
						<logginginfo>
							<description></description>
							<scene></scene>
							<shottake></shottake>
							<lognote></lognote>
						</logginginfo>
						<labels>
							<label2>Caribbean</label2>
						</labels>
					</clipitem>
					<clipitem id="clipitem-724" premiereChannelType="mono">
						<masterclipid>masterclip-56</masterclipid>
						<name>Suzanne Aabel_01.wav</name>
						<enabled>TRUE</enabled>
						<duration>171138</duration>
						<rate>
							<timebase>25</timebase>
							<ntsc>FALSE</ntsc>
						</rate>
						<start>24241</start>
						<end>24388</end>
						<in>95094</in>
						<out>95241</out>
						<pproTicksIn>966215900160000</pproTicksIn>
						<pproTicksOut>967709514240000</pproTicksOut>
						<file id="file-52"/>
						<sourcetrack>
							<mediatype>audio</mediatype>
							<trackindex>1</trackindex>
						</sourcetrack>
						<logginginfo>
							<description></description>
							<scene></scene>
							<shottake></shottake>
							<lognote></lognote>
						</logginginfo>
						<labels>
							<label2>Caribbean</label2>
						</labels>
					</clipitem>
					<clipitem id="clipitem-725" premiereChannelType="mono">
						<masterclipid>masterclip-56</masterclipid>
						<name>Suzanne Aabel_01.wav</name>
						<enabled>TRUE</enabled>
						<duration>171138</duration>
						<rate>
							<timebase>25</timebase>
							<ntsc>FALSE</ntsc>
						</rate>
						<start>24388</start>
						<end>24600</end>
						<in>95265</in>
						<out>95477</out>
						<pproTicksIn>967953369600000</pproTicksIn>
						<pproTicksOut>970107425280000</pproTicksOut>
						<file id="file-52"/>
						<sourcetrack>
							<mediatype>audio</mediatype>
							<trackindex>1</trackindex>
						</sourcetrack>
						<logginginfo>
							<description></description>
							<scene></scene>
							<shottake></shottake>
							<lognote></lognote>
						</logginginfo>
						<labels>
							<label2>Caribbean</label2>
						</labels>
					</clipitem>
					<clipitem id="clipitem-726" premiereChannelType="mono">
						<masterclipid>masterclip-56</masterclipid>
						<name>Suzanne Aabel_01.wav</name>
						<enabled>TRUE</enabled>
						<duration>171138</duration>
						<rate>
							<timebase>25</timebase>
							<ntsc>FALSE</ntsc>
						</rate>
						<start>24600</start>
						<end>24872</end>
						<in>95504</in>
						<out>95776</out>
						<pproTicksIn>970381762560000</pproTicksIn>
						<pproTicksOut>973145456640000</pproTicksOut>
						<file id="file-52"/>
						<sourcetrack>
							<mediatype>audio</mediatype>
							<trackindex>1</trackindex>
						</sourcetrack>
						<logginginfo>
							<description></description>
							<scene></scene>
							<shottake></shottake>
							<lognote></lognote>
						</logginginfo>
						<labels>
							<label2>Caribbean</label2>
						</labels>
					</clipitem>
					<clipitem id="clipitem-727" premiereChannelType="mono">
						<masterclipid>masterclip-56</masterclipid>
						<name>Suzanne Aabel_01.wav</name>
						<enabled>TRUE</enabled>
						<duration>171138</duration>
						<rate>
							<timebase>25</timebase>
							<ntsc>FALSE</ntsc>
						</rate>
						<start>24872</start>
						<end>26291</end>
						<in>95789</in>
						<out>97208</out>
						<pproTicksIn>973277544960000</pproTicksIn>
						<pproTicksOut>987695493120000</pproTicksOut>
						<file id="file-52"/>
						<sourcetrack>
							<mediatype>audio</mediatype>
							<trackindex>1</trackindex>
						</sourcetrack>
						<logginginfo>
							<description></description>
							<scene></scene>
							<shottake></shottake>
							<lognote></lognote>
						</logginginfo>
						<labels>
							<label2>Caribbean</label2>
						</labels>
					</clipitem>
					<clipitem id="clipitem-728" premiereChannelType="mono">
						<masterclipid>masterclip-56</masterclipid>
						<name>Suzanne Aabel_01.wav</name>
						<enabled>TRUE</enabled>
						<duration>171138</duration>
						<rate>
							<timebase>25</timebase>
							<ntsc>FALSE</ntsc>
						</rate>
						<start>26291</start>
						<end>26387</end>
						<in>97273</in>
						<out>97369</out>
						<pproTicksIn>988355934720000</pproTicksIn>
						<pproTicksOut>989331356160000</pproTicksOut>
						<file id="file-52"/>
						<sourcetrack>
							<mediatype>audio</mediatype>
							<trackindex>1</trackindex>
						</sourcetrack>
						<logginginfo>
							<description></description>
							<scene></scene>
							<shottake></shottake>
							<lognote></lognote>
						</logginginfo>
						<labels>
							<label2>Caribbean</label2>
						</labels>
					</clipitem>
					<clipitem id="clipitem-729" premiereChannelType="mono">
						<masterclipid>masterclip-56</masterclipid>
						<name>Suzanne Aabel_01.wav</name>
						<enabled>TRUE</enabled>
						<duration>171138</duration>
						<rate>
							<timebase>25</timebase>
							<ntsc>FALSE</ntsc>
						</rate>
						<start>26387</start>
						<end>27111</end>
						<in>97523</in>
						<out>98247</out>
						<pproTicksIn>990896094720000</pproTicksIn>
						<pproTicksOut>998252398080000</pproTicksOut>
						<file id="file-52"/>
						<sourcetrack>
							<mediatype>audio</mediatype>
							<trackindex>1</trackindex>
						</sourcetrack>
						<logginginfo>
							<description></description>
							<scene></scene>
							<shottake></shottake>
							<lognote></lognote>
						</logginginfo>
						<labels>
							<label2>Caribbean</label2>
						</labels>
					</clipitem>
					<clipitem id="clipitem-730" premiereChannelType="mono">
						<masterclipid>masterclip-56</masterclipid>
						<name>Suzanne Aabel_01.wav</name>
						<enabled>TRUE</enabled>
						<duration>171138</duration>
						<rate>
							<timebase>25</timebase>
							<ntsc>FALSE</ntsc>
						</rate>
						<start>27111</start>
						<end>27316</end>
						<in>98260</in>
						<out>98465</out>
						<pproTicksIn>998384486400000</pproTicksIn>
						<pproTicksOut>1000467417600000</pproTicksOut>
						<file id="file-52"/>
						<sourcetrack>
							<mediatype>audio</mediatype>
							<trackindex>1</trackindex>
						</sourcetrack>
						<logginginfo>
							<description></description>
							<scene></scene>
							<shottake></shottake>
							<lognote></lognote>
						</logginginfo>
						<labels>
							<label2>Caribbean</label2>
						</labels>
					</clipitem>
					<clipitem id="clipitem-731" premiereChannelType="mono">
						<masterclipid>masterclip-56</masterclipid>
						<name>Suzanne Aabel_01.wav</name>
						<enabled>TRUE</enabled>
						<duration>171138</duration>
						<rate>
							<timebase>25</timebase>
							<ntsc>FALSE</ntsc>
						</rate>
						<start>27316</start>
						<end>27702</end>
						<in>98958</in>
						<out>99344</out>
						<pproTicksIn>1005476613120000</pproTicksIn>
						<pproTicksOut>1009398620160000</pproTicksOut>
						<file id="file-52"/>
						<sourcetrack>
							<mediatype>audio</mediatype>
							<trackindex>1</trackindex>
						</sourcetrack>
						<logginginfo>
							<description></description>
							<scene></scene>
							<shottake></shottake>
							<lognote></lognote>
						</logginginfo>
						<labels>
							<label2>Caribbean</label2>
						</labels>
					</clipitem>
					<clipitem id="clipitem-732" premiereChannelType="mono">
						<masterclipid>masterclip-56</masterclipid>
						<name>Suzanne Aabel_01.wav</name>
						<enabled>TRUE</enabled>
						<duration>171138</duration>
						<rate>
							<timebase>25</timebase>
							<ntsc>FALSE</ntsc>
						</rate>
						<start>27702</start>
						<end>27789</end>
						<in>99640</in>
						<out>99727</out>
						<pproTicksIn>1012406169600000</pproTicksIn>
						<pproTicksOut>1013290145280000</pproTicksOut>
						<file id="file-52"/>
						<sourcetrack>
							<mediatype>audio</mediatype>
							<trackindex>1</trackindex>
						</sourcetrack>
						<logginginfo>
							<description></description>
							<scene></scene>
							<shottake></shottake>
							<lognote></lognote>
						</logginginfo>
						<labels>
							<label2>Caribbean</label2>
						</labels>
					</clipitem>
					<clipitem id="clipitem-733" premiereChannelType="mono">
						<masterclipid>masterclip-56</masterclipid>
						<name>Suzanne Aabel_01.wav</name>
						<enabled>TRUE</enabled>
						<duration>171138</duration>
						<rate>
							<timebase>25</timebase>
							<ntsc>FALSE</ntsc>
						</rate>
						<start>27789</start>
						<end>29601</end>
						<in>99831</in>
						<out>101643</out>
						<pproTicksIn>1014346851840000</pproTicksIn>
						<pproTicksOut>1032757931520000</pproTicksOut>
						<file id="file-52"/>
						<sourcetrack>
							<mediatype>audio</mediatype>
							<trackindex>1</trackindex>
						</sourcetrack>
						<logginginfo>
							<description></description>
							<scene></scene>
							<shottake></shottake>
							<lognote></lognote>
						</logginginfo>
						<labels>
							<label2>Caribbean</label2>
						</labels>
					</clipitem>
					<clipitem id="clipitem-734" premiereChannelType="mono">
						<masterclipid>masterclip-56</masterclipid>
						<name>Suzanne Aabel_01.wav</name>
						<enabled>TRUE</enabled>
						<duration>171138</duration>
						<rate>
							<timebase>25</timebase>
							<ntsc>FALSE</ntsc>
						</rate>
						<start>29601</start>
						<end>29693</end>
						<in>102540</in>
						<out>102632</out>
						<pproTicksIn>1041872025600000</pproTicksIn>
						<pproTicksOut>1042806804480000</pproTicksOut>
						<file id="file-52"/>
						<sourcetrack>
							<mediatype>audio</mediatype>
							<trackindex>1</trackindex>
						</sourcetrack>
						<logginginfo>
							<description></description>
							<scene></scene>
							<shottake></shottake>
							<lognote></lognote>
						</logginginfo>
						<labels>
							<label2>Caribbean</label2>
						</labels>
					</clipitem>
					<clipitem id="clipitem-735" premiereChannelType="mono">
						<masterclipid>masterclip-56</masterclipid>
						<name>Suzanne Aabel_01.wav</name>
						<enabled>TRUE</enabled>
						<duration>171138</duration>
						<rate>
							<timebase>25</timebase>
							<ntsc>FALSE</ntsc>
						</rate>
						<start>29693</start>
						<end>29760</end>
						<in>103317</in>
						<out>103384</out>
						<pproTicksIn>1049766842880000</pproTicksIn>
						<pproTicksOut>1050447605760000</pproTicksOut>
						<file id="file-52"/>
						<sourcetrack>
							<mediatype>audio</mediatype>
							<trackindex>1</trackindex>
						</sourcetrack>
						<logginginfo>
							<description></description>
							<scene></scene>
							<shottake></shottake>
							<lognote></lognote>
						</logginginfo>
						<labels>
							<label2>Caribbean</label2>
						</labels>
					</clipitem>
					<clipitem id="clipitem-736" premiereChannelType="mono">
						<masterclipid>masterclip-56</masterclipid>
						<name>Suzanne Aabel_01.wav</name>
						<enabled>TRUE</enabled>
						<duration>171138</duration>
						<rate>
							<timebase>25</timebase>
							<ntsc>FALSE</ntsc>
						</rate>
						<start>29760</start>
						<end>29774</end>
						<in>103438</in>
						<out>103452</out>
						<pproTicksIn>1050996280320000</pproTicksIn>
						<pproTicksOut>1051138529280000</pproTicksOut>
						<file id="file-52"/>
						<sourcetrack>
							<mediatype>audio</mediatype>
							<trackindex>1</trackindex>
						</sourcetrack>
						<logginginfo>
							<description></description>
							<scene></scene>
							<shottake></shottake>
							<lognote></lognote>
						</logginginfo>
						<labels>
							<label2>Caribbean</label2>
						</labels>
					</clipitem>
					<clipitem id="clipitem-737" premiereChannelType="mono">
						<masterclipid>masterclip-56</masterclipid>
						<name>Suzanne Aabel_01.wav</name>
						<enabled>TRUE</enabled>
						<duration>171138</duration>
						<rate>
							<timebase>25</timebase>
							<ntsc>FALSE</ntsc>
						</rate>
						<start>29774</start>
						<end>29865</end>
						<in>107326</in>
						<out>107417</out>
						<pproTicksIn>1090500848640000</pproTicksIn>
						<pproTicksOut>1091425466880000</pproTicksOut>
						<file id="file-52"/>
						<sourcetrack>
							<mediatype>audio</mediatype>
							<trackindex>1</trackindex>
						</sourcetrack>
						<logginginfo>
							<description></description>
							<scene></scene>
							<shottake></shottake>
							<lognote></lognote>
						</logginginfo>
						<labels>
							<label2>Caribbean</label2>
						</labels>
					</clipitem>
					<clipitem id="clipitem-738" premiereChannelType="mono">
						<masterclipid>masterclip-56</masterclipid>
						<name>Suzanne Aabel_01.wav</name>
						<enabled>TRUE</enabled>
						<duration>171138</duration>
						<rate>
							<timebase>25</timebase>
							<ntsc>FALSE</ntsc>
						</rate>
						<start>29865</start>
						<end>30769</end>
						<in>107708</in>
						<out>108612</out>
						<pproTicksIn>1094382213120000</pproTicksIn>
						<pproTicksOut>1103567431680000</pproTicksOut>
						<file id="file-52"/>
						<sourcetrack>
							<mediatype>audio</mediatype>
							<trackindex>1</trackindex>
						</sourcetrack>
						<logginginfo>
							<description></description>
							<scene></scene>
							<shottake></shottake>
							<lognote></lognote>
						</logginginfo>
						<labels>
							<label2>Caribbean</label2>
						</labels>
					</clipitem>
					<clipitem id="clipitem-739" premiereChannelType="mono">
						<masterclipid>masterclip-56</masterclipid>
						<name>Suzanne Aabel_01.wav</name>
						<enabled>TRUE</enabled>
						<duration>171138</duration>
						<rate>
							<timebase>25</timebase>
							<ntsc>FALSE</ntsc>
						</rate>
						<start>30769</start>
						<end>30880</end>
						<in>108644</in>
						<out>108755</out>
						<pproTicksIn>1103892572160000</pproTicksIn>
						<pproTicksOut>1105020403200000</pproTicksOut>
						<file id="file-52"/>
						<sourcetrack>
							<mediatype>audio</mediatype>
							<trackindex>1</trackindex>
						</sourcetrack>
						<logginginfo>
							<description></description>
							<scene></scene>
							<shottake></shottake>
							<lognote></lognote>
						</logginginfo>
						<labels>
							<label2>Caribbean</label2>
						</labels>
					</clipitem>
					<clipitem id="clipitem-740" premiereChannelType="mono">
						<masterclipid>masterclip-56</masterclipid>
						<name>Suzanne Aabel_01.wav</name>
						<enabled>TRUE</enabled>
						<duration>171138</duration>
						<rate>
							<timebase>25</timebase>
							<ntsc>FALSE</ntsc>
						</rate>
						<start>30880</start>
						<end>31513</end>
						<in>108776</in>
						<out>109409</out>
						<pproTicksIn>1105233776640000</pproTicksIn>
						<pproTicksOut>1111665461760000</pproTicksOut>
						<file id="file-52"/>
						<sourcetrack>
							<mediatype>audio</mediatype>
							<trackindex>1</trackindex>
						</sourcetrack>
						<logginginfo>
							<description></description>
							<scene></scene>
							<shottake></shottake>
							<lognote></lognote>
						</logginginfo>
						<labels>
							<label2>Caribbean</label2>
						</labels>
					</clipitem>
					<clipitem id="clipitem-741" premiereChannelType="mono">
						<masterclipid>masterclip-56</masterclipid>
						<name>Suzanne Aabel_01.wav</name>
						<enabled>TRUE</enabled>
						<duration>171138</duration>
						<rate>
							<timebase>25</timebase>
							<ntsc>FALSE</ntsc>
						</rate>
						<start>31513</start>
						<end>31909</end>
						<in>109447</in>
						<out>109843</out>
						<pproTicksIn>1112051566080000</pproTicksIn>
						<pproTicksOut>1116075179520000</pproTicksOut>
						<file id="file-52"/>
						<sourcetrack>
							<mediatype>audio</mediatype>
							<trackindex>1</trackindex>
						</sourcetrack>
						<logginginfo>
							<description></description>
							<scene></scene>
							<shottake></shottake>
							<lognote></lognote>
						</logginginfo>
						<labels>
							<label2>Caribbean</label2>
						</labels>
					</clipitem>
					<clipitem id="clipitem-742" premiereChannelType="mono">
						<masterclipid>masterclip-56</masterclipid>
						<name>Suzanne Aabel_01.wav</name>
						<enabled>TRUE</enabled>
						<duration>171138</duration>
						<rate>
							<timebase>25</timebase>
							<ntsc>FALSE</ntsc>
						</rate>
						<start>31909</start>
						<end>32128</end>
						<in>109926</in>
						<out>110145</out>
						<pproTicksIn>1116918512640000</pproTicksIn>
						<pproTicksOut>1119143692800000</pproTicksOut>
						<file id="file-52"/>
						<sourcetrack>
							<mediatype>audio</mediatype>
							<trackindex>1</trackindex>
						</sourcetrack>
						<logginginfo>
							<description></description>
							<scene></scene>
							<shottake></shottake>
							<lognote></lognote>
						</logginginfo>
						<labels>
							<label2>Caribbean</label2>
						</labels>
					</clipitem>
					<clipitem id="clipitem-743" premiereChannelType="mono">
						<masterclipid>masterclip-56</masterclipid>
						<name>Suzanne Aabel_01.wav</name>
						<enabled>TRUE</enabled>
						<duration>171138</duration>
						<rate>
							<timebase>25</timebase>
							<ntsc>FALSE</ntsc>
						</rate>
						<start>32128</start>
						<end>32853</end>
						<in>111277</in>
						<out>112002</out>
						<pproTicksIn>1130645537280000</pproTicksIn>
						<pproTicksOut>1138012001280000</pproTicksOut>
						<file id="file-52"/>
						<sourcetrack>
							<mediatype>audio</mediatype>
							<trackindex>1</trackindex>
						</sourcetrack>
						<logginginfo>
							<description></description>
							<scene></scene>
							<shottake></shottake>
							<lognote></lognote>
						</logginginfo>
						<labels>
							<label2>Caribbean</label2>
						</labels>
					</clipitem>
					<clipitem id="clipitem-744" premiereChannelType="mono">
						<masterclipid>masterclip-56</masterclipid>
						<name>Suzanne Aabel_01.wav</name>
						<enabled>TRUE</enabled>
						<duration>171138</duration>
						<rate>
							<timebase>25</timebase>
							<ntsc>FALSE</ntsc>
						</rate>
						<start>32853</start>
						<end>32890</end>
						<in>112002</in>
						<out>112039</out>
						<pproTicksIn>1138012001280000</pproTicksIn>
						<pproTicksOut>1138387944960000</pproTicksOut>
						<file id="file-52"/>
						<sourcetrack>
							<mediatype>audio</mediatype>
							<trackindex>1</trackindex>
						</sourcetrack>
						<logginginfo>
							<description></description>
							<scene></scene>
							<shottake></shottake>
							<lognote></lognote>
						</logginginfo>
						<labels>
							<label2>Caribbean</label2>
						</labels>
					</clipitem>
					<clipitem id="clipitem-745" premiereChannelType="mono">
						<masterclipid>masterclip-56</masterclipid>
						<name>Suzanne Aabel_01.wav</name>
						<enabled>TRUE</enabled>
						<duration>171138</duration>
						<rate>
							<timebase>25</timebase>
							<ntsc>FALSE</ntsc>
						</rate>
						<start>32890</start>
						<end>33281</end>
						<in>115277</in>
						<out>115668</out>
						<pproTicksIn>1171288097280000</pproTicksIn>
						<pproTicksOut>1175260907520000</pproTicksOut>
						<file id="file-52"/>
						<sourcetrack>
							<mediatype>audio</mediatype>
							<trackindex>1</trackindex>
						</sourcetrack>
						<logginginfo>
							<description></description>
							<scene></scene>
							<shottake></shottake>
							<lognote></lognote>
						</logginginfo>
						<labels>
							<label2>Caribbean</label2>
						</labels>
					</clipitem>
					<clipitem id="clipitem-746" premiereChannelType="mono">
						<masterclipid>masterclip-56</masterclipid>
						<name>Suzanne Aabel_01.wav</name>
						<enabled>TRUE</enabled>
						<duration>171138</duration>
						<rate>
							<timebase>25</timebase>
							<ntsc>FALSE</ntsc>
						</rate>
						<start>33281</start>
						<end>33357</end>
						<in>116203</in>
						<out>116279</out>
						<pproTicksIn>1180696849920000</pproTicksIn>
						<pproTicksOut>1181469058560000</pproTicksOut>
						<file id="file-52"/>
						<sourcetrack>
							<mediatype>audio</mediatype>
							<trackindex>1</trackindex>
						</sourcetrack>
						<logginginfo>
							<description></description>
							<scene></scene>
							<shottake></shottake>
							<lognote></lognote>
						</logginginfo>
						<labels>
							<label2>Caribbean</label2>
						</labels>
					</clipitem>
					<clipitem id="clipitem-747" premiereChannelType="mono">
						<masterclipid>masterclip-56</masterclipid>
						<name>Suzanne Aabel_01.wav</name>
						<enabled>TRUE</enabled>
						<duration>171138</duration>
						<rate>
							<timebase>25</timebase>
							<ntsc>FALSE</ntsc>
						</rate>
						<start>33357</start>
						<end>33465</end>
						<in>116298</in>
						<out>116406</out>
						<pproTicksIn>1181662110720000</pproTicksIn>
						<pproTicksOut>1182759459840000</pproTicksOut>
						<file id="file-52"/>
						<sourcetrack>
							<mediatype>audio</mediatype>
							<trackindex>1</trackindex>
						</sourcetrack>
						<logginginfo>
							<description></description>
							<scene></scene>
							<shottake></shottake>
							<lognote></lognote>
						</logginginfo>
						<labels>
							<label2>Caribbean</label2>
						</labels>
					</clipitem>
					<clipitem id="clipitem-748" premiereChannelType="mono">
						<masterclipid>masterclip-56</masterclipid>
						<name>Suzanne Aabel_01.wav</name>
						<enabled>TRUE</enabled>
						<duration>171138</duration>
						<rate>
							<timebase>25</timebase>
							<ntsc>FALSE</ntsc>
						</rate>
						<start>33465</start>
						<end>33766</end>
						<in>116510</in>
						<out>116811</out>
						<pproTicksIn>1183816166400000</pproTicksIn>
						<pproTicksOut>1186874519040000</pproTicksOut>
						<file id="file-52"/>
						<sourcetrack>
							<mediatype>audio</mediatype>
							<trackindex>1</trackindex>
						</sourcetrack>
						<logginginfo>
							<description></description>
							<scene></scene>
							<shottake></shottake>
							<lognote></lognote>
						</logginginfo>
						<labels>
							<label2>Caribbean</label2>
						</labels>
					</clipitem>
					<clipitem id="clipitem-749" premiereChannelType="mono">
						<masterclipid>masterclip-56</masterclipid>
						<name>Suzanne Aabel_01.wav</name>
						<enabled>TRUE</enabled>
						<duration>171138</duration>
						<rate>
							<timebase>25</timebase>
							<ntsc>FALSE</ntsc>
						</rate>
						<start>33766</start>
						<end>33992</end>
						<in>116811</in>
						<out>117037</out>
						<pproTicksIn>1186874519040000</pproTicksIn>
						<pproTicksOut>1189170823680000</pproTicksOut>
						<file id="file-52"/>
						<sourcetrack>
							<mediatype>audio</mediatype>
							<trackindex>1</trackindex>
						</sourcetrack>
						<logginginfo>
							<description></description>
							<scene></scene>
							<shottake></shottake>
							<lognote></lognote>
						</logginginfo>
						<labels>
							<label2>Caribbean</label2>
						</labels>
					</clipitem>
					<clipitem id="clipitem-750" premiereChannelType="mono">
						<masterclipid>masterclip-56</masterclipid>
						<name>Suzanne Aabel_01.wav</name>
						<enabled>TRUE</enabled>
						<duration>171138</duration>
						<rate>
							<timebase>25</timebase>
							<ntsc>FALSE</ntsc>
						</rate>
						<start>33992</start>
						<end>34035</end>
						<in>117226</in>
						<out>117269</out>
						<pproTicksIn>1191091184640000</pproTicksIn>
						<pproTicksOut>1191528092160000</pproTicksOut>
						<file id="file-52"/>
						<sourcetrack>
							<mediatype>audio</mediatype>
							<trackindex>1</trackindex>
						</sourcetrack>
						<logginginfo>
							<description></description>
							<scene></scene>
							<shottake></shottake>
							<lognote></lognote>
						</logginginfo>
						<labels>
							<label2>Caribbean</label2>
						</labels>
					</clipitem>
					<clipitem id="clipitem-751" premiereChannelType="mono">
						<masterclipid>masterclip-56</masterclipid>
						<name>Suzanne Aabel_01.wav</name>
						<enabled>TRUE</enabled>
						<duration>171138</duration>
						<rate>
							<timebase>25</timebase>
							<ntsc>FALSE</ntsc>
						</rate>
						<start>34035</start>
						<end>34790</end>
						<in>117633</in>
						<out>118388</out>
						<pproTicksIn>1195226565120000</pproTicksIn>
						<pproTicksOut>1202897848320000</pproTicksOut>
						<file id="file-52"/>
						<sourcetrack>
							<mediatype>audio</mediatype>
							<trackindex>1</trackindex>
						</sourcetrack>
						<logginginfo>
							<description></description>
							<scene></scene>
							<shottake></shottake>
							<lognote></lognote>
						</logginginfo>
						<labels>
							<label2>Caribbean</label2>
						</labels>
					</clipitem>
					<clipitem id="clipitem-752" premiereChannelType="mono">
						<masterclipid>masterclip-56</masterclipid>
						<name>Suzanne Aabel_01.wav</name>
						<enabled>TRUE</enabled>
						<duration>171138</duration>
						<rate>
							<timebase>25</timebase>
							<ntsc>FALSE</ntsc>
						</rate>
						<start>34790</start>
						<end>35299</end>
						<in>118612</in>
						<out>119121</out>
						<pproTicksIn>1205173831680000</pproTicksIn>
						<pproTicksOut>1210345597440000</pproTicksOut>
						<file id="file-52"/>
						<sourcetrack>
							<mediatype>audio</mediatype>
							<trackindex>1</trackindex>
						</sourcetrack>
						<logginginfo>
							<description></description>
							<scene></scene>
							<shottake></shottake>
							<lognote></lognote>
						</logginginfo>
						<labels>
							<label2>Caribbean</label2>
						</labels>
					</clipitem>
					<clipitem id="clipitem-753" premiereChannelType="mono">
						<masterclipid>masterclip-56</masterclipid>
						<name>Suzanne Aabel_01.wav</name>
						<enabled>TRUE</enabled>
						<duration>171138</duration>
						<rate>
							<timebase>25</timebase>
							<ntsc>FALSE</ntsc>
						</rate>
						<start>35299</start>
						<end>35672</end>
						<in>119201</in>
						<out>119574</out>
						<pproTicksIn>1211158448640000</pproTicksIn>
						<pproTicksOut>1214948367360000</pproTicksOut>
						<file id="file-52"/>
						<sourcetrack>
							<mediatype>audio</mediatype>
							<trackindex>1</trackindex>
						</sourcetrack>
						<logginginfo>
							<description></description>
							<scene></scene>
							<shottake></shottake>
							<lognote></lognote>
						</logginginfo>
						<labels>
							<label2>Caribbean</label2>
						</labels>
					</clipitem>
					<clipitem id="clipitem-754" premiereChannelType="mono">
						<masterclipid>masterclip-56</masterclipid>
						<name>Suzanne Aabel_01.wav</name>
						<enabled>TRUE</enabled>
						<duration>171138</duration>
						<rate>
							<timebase>25</timebase>
							<ntsc>FALSE</ntsc>
						</rate>
						<start>35672</start>
						<end>36434</end>
						<in>119583</in>
						<out>120345</out>
						<pproTicksIn>1215039813120000</pproTicksIn>
						<pproTicksOut>1222782220800000</pproTicksOut>
						<file id="file-52"/>
						<sourcetrack>
							<mediatype>audio</mediatype>
							<trackindex>1</trackindex>
						</sourcetrack>
						<logginginfo>
							<description></description>
							<scene></scene>
							<shottake></shottake>
							<lognote></lognote>
						</logginginfo>
						<labels>
							<label2>Caribbean</label2>
						</labels>
					</clipitem>
					<clipitem id="clipitem-755" premiereChannelType="mono">
						<masterclipid>masterclip-56</masterclipid>
						<name>Suzanne Aabel_01.wav</name>
						<enabled>TRUE</enabled>
						<duration>171138</duration>
						<rate>
							<timebase>25</timebase>
							<ntsc>FALSE</ntsc>
						</rate>
						<start>36434</start>
						<end>36524</end>
						<in>120539</in>
						<out>120629</out>
						<pproTicksIn>1224753384960000</pproTicksIn>
						<pproTicksOut>1225667842560000</pproTicksOut>
						<file id="file-52"/>
						<sourcetrack>
							<mediatype>audio</mediatype>
							<trackindex>1</trackindex>
						</sourcetrack>
						<logginginfo>
							<description></description>
							<scene></scene>
							<shottake></shottake>
							<lognote></lognote>
						</logginginfo>
						<labels>
							<label2>Caribbean</label2>
						</labels>
					</clipitem>
					<clipitem id="clipitem-756" premiereChannelType="mono">
						<masterclipid>masterclip-56</masterclipid>
						<name>Suzanne Aabel_01.wav</name>
						<enabled>TRUE</enabled>
						<duration>171138</duration>
						<rate>
							<timebase>25</timebase>
							<ntsc>FALSE</ntsc>
						</rate>
						<start>36524</start>
						<end>37155</end>
						<in>124899</in>
						<out>125530</out>
						<pproTicksIn>1269053775360000</pproTicksIn>
						<pproTicksOut>1275465139200000</pproTicksOut>
						<file id="file-52"/>
						<sourcetrack>
							<mediatype>audio</mediatype>
							<trackindex>1</trackindex>
						</sourcetrack>
						<logginginfo>
							<description></description>
							<scene></scene>
							<shottake></shottake>
							<lognote></lognote>
						</logginginfo>
						<labels>
							<label2>Caribbean</label2>
						</labels>
					</clipitem>
					<clipitem id="clipitem-757" premiereChannelType="mono">
						<masterclipid>masterclip-56</masterclipid>
						<name>Suzanne Aabel_01.wav</name>
						<enabled>TRUE</enabled>
						<duration>171138</duration>
						<rate>
							<timebase>25</timebase>
							<ntsc>FALSE</ntsc>
						</rate>
						<start>37732</start>
						<end>40503</end>
						<in>126107</in>
						<out>128878</out>
						<pproTicksIn>1281327828480000</pproTicksIn>
						<pproTicksOut>1309482961920000</pproTicksOut>
						<file id="file-52"/>
						<sourcetrack>
							<mediatype>audio</mediatype>
							<trackindex>1</trackindex>
						</sourcetrack>
						<logginginfo>
							<description></description>
							<scene></scene>
							<shottake></shottake>
							<lognote></lognote>
						</logginginfo>
						<labels>
							<label2>Caribbean</label2>
						</labels>
					</clipitem>
					<clipitem id="clipitem-758" premiereChannelType="mono">
						<masterclipid>masterclip-56</masterclipid>
						<name>Suzanne Aabel_01.wav</name>
						<enabled>TRUE</enabled>
						<duration>171138</duration>
						<rate>
							<timebase>25</timebase>
							<ntsc>FALSE</ntsc>
						</rate>
						<start>40503</start>
						<end>40839</end>
						<in>128926</in>
						<out>129262</out>
						<pproTicksIn>1309970672640000</pproTicksIn>
						<pproTicksOut>1313384647680000</pproTicksOut>
						<file id="file-52"/>
						<sourcetrack>
							<mediatype>audio</mediatype>
							<trackindex>1</trackindex>
						</sourcetrack>
						<logginginfo>
							<description></description>
							<scene></scene>
							<shottake></shottake>
							<lognote></lognote>
						</logginginfo>
						<labels>
							<label2>Caribbean</label2>
						</labels>
					</clipitem>
					<clipitem id="clipitem-759" premiereChannelType="mono">
						<masterclipid>masterclip-56</masterclipid>
						<name>Suzanne Aabel_01.wav</name>
						<enabled>TRUE</enabled>
						<duration>171138</duration>
						<rate>
							<timebase>25</timebase>
							<ntsc>FALSE</ntsc>
						</rate>
						<start>40839</start>
						<end>41006</end>
						<in>129262</in>
						<out>129429</out>
						<pproTicksIn>1313384647680000</pproTicksIn>
						<pproTicksOut>1315081474560000</pproTicksOut>
						<file id="file-52"/>
						<sourcetrack>
							<mediatype>audio</mediatype>
							<trackindex>1</trackindex>
						</sourcetrack>
						<logginginfo>
							<description></description>
							<scene></scene>
							<shottake></shottake>
							<lognote></lognote>
						</logginginfo>
						<labels>
							<label2>Caribbean</label2>
						</labels>
					</clipitem>
					<clipitem id="clipitem-760" premiereChannelType="mono">
						<masterclipid>masterclip-56</masterclipid>
						<name>Suzanne Aabel_01.wav</name>
						<enabled>TRUE</enabled>
						<duration>171138</duration>
						<rate>
							<timebase>25</timebase>
							<ntsc>FALSE</ntsc>
						</rate>
						<start>41006</start>
						<end>41144</end>
						<in>129476</in>
						<out>129614</out>
						<pproTicksIn>1315559024640000</pproTicksIn>
						<pproTicksOut>1316961192960000</pproTicksOut>
						<file id="file-52"/>
						<sourcetrack>
							<mediatype>audio</mediatype>
							<trackindex>1</trackindex>
						</sourcetrack>
						<logginginfo>
							<description></description>
							<scene></scene>
							<shottake></shottake>
							<lognote></lognote>
						</logginginfo>
						<labels>
							<label2>Caribbean</label2>
						</labels>
					</clipitem>
					<clipitem id="clipitem-761" premiereChannelType="mono">
						<masterclipid>masterclip-56</masterclipid>
						<name>Suzanne Aabel_01.wav</name>
						<enabled>TRUE</enabled>
						<duration>171138</duration>
						<rate>
							<timebase>25</timebase>
							<ntsc>FALSE</ntsc>
						</rate>
						<start>41144</start>
						<end>41720</end>
						<in>131417</in>
						<out>131993</out>
						<pproTicksIn>1335280826880000</pproTicksIn>
						<pproTicksOut>1341133355520000</pproTicksOut>
						<file id="file-52"/>
						<sourcetrack>
							<mediatype>audio</mediatype>
							<trackindex>1</trackindex>
						</sourcetrack>
						<logginginfo>
							<description></description>
							<scene></scene>
							<shottake></shottake>
							<lognote></lognote>
						</logginginfo>
						<labels>
							<label2>Caribbean</label2>
						</labels>
					</clipitem>
					<clipitem id="clipitem-762" premiereChannelType="mono">
						<masterclipid>masterclip-56</masterclipid>
						<name>Suzanne Aabel_01.wav</name>
						<enabled>TRUE</enabled>
						<duration>171138</duration>
						<rate>
							<timebase>25</timebase>
							<ntsc>FALSE</ntsc>
						</rate>
						<start>41720</start>
						<end>42122</end>
						<in>132051</in>
						<out>132453</out>
						<pproTicksIn>1341722672640000</pproTicksIn>
						<pproTicksOut>1345807249920000</pproTicksOut>
						<file id="file-52"/>
						<sourcetrack>
							<mediatype>audio</mediatype>
							<trackindex>1</trackindex>
						</sourcetrack>
						<logginginfo>
							<description></description>
							<scene></scene>
							<shottake></shottake>
							<lognote></lognote>
						</logginginfo>
						<labels>
							<label2>Caribbean</label2>
						</labels>
					</clipitem>
					<clipitem id="clipitem-763" premiereChannelType="mono">
						<masterclipid>masterclip-56</masterclipid>
						<name>Suzanne Aabel_01.wav</name>
						<enabled>TRUE</enabled>
						<duration>171138</duration>
						<rate>
							<timebase>25</timebase>
							<ntsc>FALSE</ntsc>
						</rate>
						<start>42122</start>
						<end>42277</end>
						<in>132657</in>
						<out>132812</out>
						<pproTicksIn>1347880020480000</pproTicksIn>
						<pproTicksOut>1349454919680000</pproTicksOut>
						<file id="file-52"/>
						<sourcetrack>
							<mediatype>audio</mediatype>
							<trackindex>1</trackindex>
						</sourcetrack>
						<logginginfo>
							<description></description>
							<scene></scene>
							<shottake></shottake>
							<lognote></lognote>
						</logginginfo>
						<labels>
							<label2>Caribbean</label2>
						</labels>
					</clipitem>
					<clipitem id="clipitem-764" premiereChannelType="mono">
						<masterclipid>masterclip-56</masterclipid>
						<name>Suzanne Aabel_01.wav</name>
						<enabled>TRUE</enabled>
						<duration>171138</duration>
						<rate>
							<timebase>25</timebase>
							<ntsc>FALSE</ntsc>
						</rate>
						<start>42277</start>
						<end>42347</end>
						<in>133359</in>
						<out>133429</out>
						<pproTicksIn>1355012789760000</pproTicksIn>
						<pproTicksOut>1355724034560000</pproTicksOut>
						<file id="file-52"/>
						<sourcetrack>
							<mediatype>audio</mediatype>
							<trackindex>1</trackindex>
						</sourcetrack>
						<logginginfo>
							<description></description>
							<scene></scene>
							<shottake></shottake>
							<lognote></lognote>
						</logginginfo>
						<labels>
							<label2>Caribbean</label2>
						</labels>
					</clipitem>
					<clipitem id="clipitem-765" premiereChannelType="mono">
						<masterclipid>masterclip-56</masterclipid>
						<name>Suzanne Aabel_01.wav</name>
						<enabled>TRUE</enabled>
						<duration>171138</duration>
						<rate>
							<timebase>25</timebase>
							<ntsc>FALSE</ntsc>
						</rate>
						<start>42347</start>
						<end>42499</end>
						<in>133852</in>
						<out>134004</out>
						<pproTicksIn>1360021985280000</pproTicksIn>
						<pproTicksOut>1361566402560000</pproTicksOut>
						<file id="file-52"/>
						<sourcetrack>
							<mediatype>audio</mediatype>
							<trackindex>1</trackindex>
						</sourcetrack>
						<logginginfo>
							<description></description>
							<scene></scene>
							<shottake></shottake>
							<lognote></lognote>
						</logginginfo>
						<labels>
							<label2>Caribbean</label2>
						</labels>
					</clipitem>
					<clipitem id="clipitem-766" premiereChannelType="mono">
						<masterclipid>masterclip-56</masterclipid>
						<name>Suzanne Aabel_01.wav</name>
						<enabled>TRUE</enabled>
						<duration>171138</duration>
						<rate>
							<timebase>25</timebase>
							<ntsc>FALSE</ntsc>
						</rate>
						<start>42499</start>
						<end>42832</end>
						<in>134099</in>
						<out>134432</out>
						<pproTicksIn>1362531663360000</pproTicksIn>
						<pproTicksOut>1365915156480000</pproTicksOut>
						<file id="file-52"/>
						<sourcetrack>
							<mediatype>audio</mediatype>
							<trackindex>1</trackindex>
						</sourcetrack>
						<logginginfo>
							<description></description>
							<scene></scene>
							<shottake></shottake>
							<lognote></lognote>
						</logginginfo>
						<labels>
							<label2>Caribbean</label2>
						</labels>
					</clipitem>
					<clipitem id="clipitem-767" premiereChannelType="mono">
						<masterclipid>masterclip-56</masterclipid>
						<name>Suzanne Aabel_01.wav</name>
						<enabled>TRUE</enabled>
						<duration>171138</duration>
						<rate>
							<timebase>25</timebase>
							<ntsc>FALSE</ntsc>
						</rate>
						<start>42832</start>
						<end>43282</end>
						<in>134992</in>
						<out>135442</out>
						<pproTicksIn>1371605114880000</pproTicksIn>
						<pproTicksOut>1376177402880000</pproTicksOut>
						<file id="file-52"/>
						<sourcetrack>
							<mediatype>audio</mediatype>
							<trackindex>1</trackindex>
						</sourcetrack>
						<logginginfo>
							<description></description>
							<scene></scene>
							<shottake></shottake>
							<lognote></lognote>
						</logginginfo>
						<labels>
							<label2>Caribbean</label2>
						</labels>
					</clipitem>
					<clipitem id="clipitem-768" premiereChannelType="mono">
						<masterclipid>masterclip-56</masterclipid>
						<name>Suzanne Aabel_01.wav</name>
						<enabled>TRUE</enabled>
						<duration>171138</duration>
						<rate>
							<timebase>25</timebase>
							<ntsc>FALSE</ntsc>
						</rate>
						<start>43282</start>
						<end>43553</end>
						<in>135648</in>
						<out>135919</out>
						<pproTicksIn>1378270494720000</pproTicksIn>
						<pproTicksOut>1381024028160000</pproTicksOut>
						<file id="file-52"/>
						<sourcetrack>
							<mediatype>audio</mediatype>
							<trackindex>1</trackindex>
						</sourcetrack>
						<logginginfo>
							<description></description>
							<scene></scene>
							<shottake></shottake>
							<lognote></lognote>
						</logginginfo>
						<labels>
							<label2>Caribbean</label2>
						</labels>
					</clipitem>
					<clipitem id="clipitem-769" premiereChannelType="mono">
						<masterclipid>masterclip-56</masterclipid>
						<name>Suzanne Aabel_01.wav</name>
						<enabled>TRUE</enabled>
						<duration>171138</duration>
						<rate>
							<timebase>25</timebase>
							<ntsc>FALSE</ntsc>
						</rate>
						<start>43553</start>
						<end>44385</end>
						<in>136003</in>
						<out>136835</out>
						<pproTicksIn>1381877521920000</pproTicksIn>
						<pproTicksOut>1390331174400000</pproTicksOut>
						<file id="file-52"/>
						<sourcetrack>
							<mediatype>audio</mediatype>
							<trackindex>1</trackindex>
						</sourcetrack>
						<logginginfo>
							<description></description>
							<scene></scene>
							<shottake></shottake>
							<lognote></lognote>
						</logginginfo>
						<labels>
							<label2>Caribbean</label2>
						</labels>
					</clipitem>
					<clipitem id="clipitem-770" premiereChannelType="mono">
						<masterclipid>masterclip-56</masterclipid>
						<name>Suzanne Aabel_01.wav</name>
						<enabled>TRUE</enabled>
						<duration>171138</duration>
						<rate>
							<timebase>25</timebase>
							<ntsc>FALSE</ntsc>
						</rate>
						<start>44385</start>
						<end>44583</end>
						<in>137077</in>
						<out>137275</out>
						<pproTicksIn>1392790049280000</pproTicksIn>
						<pproTicksOut>1394801856000000</pproTicksOut>
						<file id="file-52"/>
						<sourcetrack>
							<mediatype>audio</mediatype>
							<trackindex>1</trackindex>
						</sourcetrack>
						<logginginfo>
							<description></description>
							<scene></scene>
							<shottake></shottake>
							<lognote></lognote>
						</logginginfo>
						<labels>
							<label2>Caribbean</label2>
						</labels>
					</clipitem>
					<clipitem id="clipitem-771" premiereChannelType="mono">
						<masterclipid>masterclip-56</masterclipid>
						<name>Suzanne Aabel_01.wav</name>
						<enabled>TRUE</enabled>
						<duration>171138</duration>
						<rate>
							<timebase>25</timebase>
							<ntsc>FALSE</ntsc>
						</rate>
						<start>44583</start>
						<end>44650</end>
						<in>137376</in>
						<out>137443</out>
						<pproTicksIn>1395828080640000</pproTicksIn>
						<pproTicksOut>1396508843520000</pproTicksOut>
						<file id="file-52"/>
						<sourcetrack>
							<mediatype>audio</mediatype>
							<trackindex>1</trackindex>
						</sourcetrack>
						<logginginfo>
							<description></description>
							<scene></scene>
							<shottake></shottake>
							<lognote></lognote>
						</logginginfo>
						<labels>
							<label2>Caribbean</label2>
						</labels>
					</clipitem>
					<clipitem id="clipitem-772" premiereChannelType="mono">
						<masterclipid>masterclip-56</masterclipid>
						<name>Suzanne Aabel_01.wav</name>
						<enabled>TRUE</enabled>
						<duration>171138</duration>
						<rate>
							<timebase>25</timebase>
							<ntsc>FALSE</ntsc>
						</rate>
						<start>44650</start>
						<end>45287</end>
						<in>137505</in>
						<out>138142</out>
						<pproTicksIn>1397138803200000</pproTicksIn>
						<pproTicksOut>1403611130880000</pproTicksOut>
						<file id="file-52"/>
						<sourcetrack>
							<mediatype>audio</mediatype>
							<trackindex>1</trackindex>
						</sourcetrack>
						<logginginfo>
							<description></description>
							<scene></scene>
							<shottake></shottake>
							<lognote></lognote>
						</logginginfo>
						<labels>
							<label2>Caribbean</label2>
						</labels>
					</clipitem>
					<clipitem id="clipitem-773" premiereChannelType="mono">
						<masterclipid>masterclip-56</masterclipid>
						<name>Suzanne Aabel_01.wav</name>
						<enabled>TRUE</enabled>
						<duration>171138</duration>
						<rate>
							<timebase>25</timebase>
							<ntsc>FALSE</ntsc>
						</rate>
						<start>45287</start>
						<end>45692</end>
						<in>138274</in>
						<out>138679</out>
						<pproTicksIn>1404952335360000</pproTicksIn>
						<pproTicksOut>1409067394560000</pproTicksOut>
						<file id="file-52"/>
						<sourcetrack>
							<mediatype>audio</mediatype>
							<trackindex>1</trackindex>
						</sourcetrack>
						<logginginfo>
							<description></description>
							<scene></scene>
							<shottake></shottake>
							<lognote></lognote>
						</logginginfo>
						<labels>
							<label2>Caribbean</label2>
						</labels>
					</clipitem>
					<clipitem id="clipitem-774" premiereChannelType="mono">
						<masterclipid>masterclip-56</masterclipid>
						<name>Suzanne Aabel_01.wav</name>
						<enabled>TRUE</enabled>
						<duration>171138</duration>
						<rate>
							<timebase>25</timebase>
							<ntsc>FALSE</ntsc>
						</rate>
						<start>45692</start>
						<end>45923</end>
						<in>138810</in>
						<out>139041</out>
						<pproTicksIn>1410398438400000</pproTicksIn>
						<pproTicksOut>1412745546240000</pproTicksOut>
						<file id="file-52"/>
						<sourcetrack>
							<mediatype>audio</mediatype>
							<trackindex>1</trackindex>
						</sourcetrack>
						<logginginfo>
							<description></description>
							<scene></scene>
							<shottake></shottake>
							<lognote></lognote>
						</logginginfo>
						<labels>
							<label2>Caribbean</label2>
						</labels>
					</clipitem>
					<clipitem id="clipitem-775" premiereChannelType="mono">
						<masterclipid>masterclip-56</masterclipid>
						<name>Suzanne Aabel_01.wav</name>
						<enabled>TRUE</enabled>
						<duration>171138</duration>
						<rate>
							<timebase>25</timebase>
							<ntsc>FALSE</ntsc>
						</rate>
						<start>45923</start>
						<end>46349</end>
						<in>139073</in>
						<out>139499</out>
						<pproTicksIn>1413070686720000</pproTicksIn>
						<pproTicksOut>1417399119360000</pproTicksOut>
						<file id="file-52"/>
						<sourcetrack>
							<mediatype>audio</mediatype>
							<trackindex>1</trackindex>
						</sourcetrack>
						<logginginfo>
							<description></description>
							<scene></scene>
							<shottake></shottake>
							<lognote></lognote>
						</logginginfo>
						<labels>
							<label2>Caribbean</label2>
						</labels>
					</clipitem>
					<clipitem id="clipitem-776" premiereChannelType="mono">
						<masterclipid>masterclip-56</masterclipid>
						<name>Suzanne Aabel_01.wav</name>
						<enabled>TRUE</enabled>
						<duration>171138</duration>
						<rate>
							<timebase>25</timebase>
							<ntsc>FALSE</ntsc>
						</rate>
						<start>46349</start>
						<end>46455</end>
						<in>159642</in>
						<out>159748</out>
						<pproTicksIn>1622064890880000</pproTicksIn>
						<pproTicksOut>1623141918720000</pproTicksOut>
						<file id="file-52"/>
						<sourcetrack>
							<mediatype>audio</mediatype>
							<trackindex>1</trackindex>
						</sourcetrack>
						<logginginfo>
							<description></description>
							<scene></scene>
							<shottake></shottake>
							<lognote></lognote>
						</logginginfo>
						<labels>
							<label2>Caribbean</label2>
						</labels>
					</clipitem>
					<clipitem id="clipitem-777" premiereChannelType="mono">
						<masterclipid>masterclip-56</masterclipid>
						<name>Suzanne Aabel_01.wav</name>
						<enabled>TRUE</enabled>
						<duration>171138</duration>
						<rate>
							<timebase>25</timebase>
							<ntsc>FALSE</ntsc>
						</rate>
						<start>46455</start>
						<end>46911</end>
						<in>140048</in>
						<out>140504</out>
						<pproTicksIn>1422977310720000</pproTicksIn>
						<pproTicksOut>1427610562560000</pproTicksOut>
						<file id="file-52"/>
						<sourcetrack>
							<mediatype>audio</mediatype>
							<trackindex>1</trackindex>
						</sourcetrack>
						<logginginfo>
							<description></description>
							<scene></scene>
							<shottake></shottake>
							<lognote></lognote>
						</logginginfo>
						<labels>
							<label2>Caribbean</label2>
						</labels>
					</clipitem>
					<clipitem id="clipitem-778" premiereChannelType="mono">
						<masterclipid>masterclip-56</masterclipid>
						<name>Suzanne Aabel_01.wav</name>
						<enabled>TRUE</enabled>
						<duration>171138</duration>
						<rate>
							<timebase>25</timebase>
							<ntsc>FALSE</ntsc>
						</rate>
						<start>46911</start>
						<end>47138</end>
						<in>140817</in>
						<out>141044</out>
						<pproTicksIn>1430790842880000</pproTicksIn>
						<pproTicksOut>1433097308160000</pproTicksOut>
						<file id="file-52"/>
						<sourcetrack>
							<mediatype>audio</mediatype>
							<trackindex>1</trackindex>
						</sourcetrack>
						<logginginfo>
							<description></description>
							<scene></scene>
							<shottake></shottake>
							<lognote></lognote>
						</logginginfo>
						<labels>
							<label2>Caribbean</label2>
						</labels>
					</clipitem>
					<clipitem id="clipitem-779" premiereChannelType="mono">
						<masterclipid>masterclip-56</masterclipid>
						<name>Suzanne Aabel_01.wav</name>
						<enabled>TRUE</enabled>
						<duration>171138</duration>
						<rate>
							<timebase>25</timebase>
							<ntsc>FALSE</ntsc>
						</rate>
						<start>47138</start>
						<end>47335</end>
						<in>141203</in>
						<out>141400</out>
						<pproTicksIn>1434712849920000</pproTicksIn>
						<pproTicksOut>1436714496000000</pproTicksOut>
						<file id="file-52"/>
						<sourcetrack>
							<mediatype>audio</mediatype>
							<trackindex>1</trackindex>
						</sourcetrack>
						<logginginfo>
							<description></description>
							<scene></scene>
							<shottake></shottake>
							<lognote></lognote>
						</logginginfo>
						<labels>
							<label2>Caribbean</label2>
						</labels>
					</clipitem>
					<clipitem id="clipitem-780" premiereChannelType="mono">
						<masterclipid>masterclip-56</masterclipid>
						<name>Suzanne Aabel_01.wav</name>
						<enabled>TRUE</enabled>
						<duration>171138</duration>
						<rate>
							<timebase>25</timebase>
							<ntsc>FALSE</ntsc>
						</rate>
						<start>47335</start>
						<end>47513</end>
						<in>141454</in>
						<out>141632</out>
						<pproTicksIn>1437263170560000</pproTicksIn>
						<pproTicksOut>1439071764480000</pproTicksOut>
						<file id="file-52"/>
						<sourcetrack>
							<mediatype>audio</mediatype>
							<trackindex>1</trackindex>
						</sourcetrack>
						<logginginfo>
							<description></description>
							<scene></scene>
							<shottake></shottake>
							<lognote></lognote>
						</logginginfo>
						<labels>
							<label2>Caribbean</label2>
						</labels>
					</clipitem>
					<clipitem id="clipitem-781" premiereChannelType="mono">
						<masterclipid>masterclip-56</masterclipid>
						<name>Suzanne Aabel_01.wav</name>
						<enabled>TRUE</enabled>
						<duration>171138</duration>
						<rate>
							<timebase>25</timebase>
							<ntsc>FALSE</ntsc>
						</rate>
						<start>47513</start>
						<end>47723</end>
						<in>141671</in>
						<out>141881</out>
						<pproTicksIn>1439468029440000</pproTicksIn>
						<pproTicksOut>1441601763840000</pproTicksOut>
						<file id="file-52"/>
						<sourcetrack>
							<mediatype>audio</mediatype>
							<trackindex>1</trackindex>
						</sourcetrack>
						<logginginfo>
							<description></description>
							<scene></scene>
							<shottake></shottake>
							<lognote></lognote>
						</logginginfo>
						<labels>
							<label2>Caribbean</label2>
						</labels>
					</clipitem>
					<clipitem id="clipitem-782" premiereChannelType="mono">
						<masterclipid>masterclip-56</masterclipid>
						<name>Suzanne Aabel_01.wav</name>
						<enabled>TRUE</enabled>
						<duration>171138</duration>
						<rate>
							<timebase>25</timebase>
							<ntsc>FALSE</ntsc>
						</rate>
						<start>47723</start>
						<end>48040</end>
						<in>141894</in>
						<out>142211</out>
						<pproTicksIn>1441733852160000</pproTicksIn>
						<pproTicksOut>1444954775040000</pproTicksOut>
						<file id="file-52"/>
						<sourcetrack>
							<mediatype>audio</mediatype>
							<trackindex>1</trackindex>
						</sourcetrack>
						<logginginfo>
							<description></description>
							<scene></scene>
							<shottake></shottake>
							<lognote></lognote>
						</logginginfo>
						<labels>
							<label2>Caribbean</label2>
						</labels>
					</clipitem>
					<clipitem id="clipitem-783" premiereChannelType="mono">
						<masterclipid>masterclip-56</masterclipid>
						<name>Suzanne Aabel_01.wav</name>
						<enabled>TRUE</enabled>
						<duration>171138</duration>
						<rate>
							<timebase>25</timebase>
							<ntsc>FALSE</ntsc>
						</rate>
						<start>48040</start>
						<end>48766</end>
						<in>142351</in>
						<out>143077</out>
						<pproTicksIn>1446377264640000</pproTicksIn>
						<pproTicksOut>1453753889280000</pproTicksOut>
						<file id="file-52"/>
						<sourcetrack>
							<mediatype>audio</mediatype>
							<trackindex>1</trackindex>
						</sourcetrack>
						<logginginfo>
							<description></description>
							<scene></scene>
							<shottake></shottake>
							<lognote></lognote>
						</logginginfo>
						<labels>
							<label2>Caribbean</label2>
						</labels>
					</clipitem>
					<clipitem id="clipitem-784" premiereChannelType="mono">
						<masterclipid>masterclip-56</masterclipid>
						<name>Suzanne Aabel_01.wav</name>
						<enabled>TRUE</enabled>
						<duration>171138</duration>
						<rate>
							<timebase>25</timebase>
							<ntsc>FALSE</ntsc>
						</rate>
						<start>48766</start>
						<end>49706</end>
						<in>143684</in>
						<out>144624</out>
						<pproTicksIn>1459921397760000</pproTicksIn>
						<pproTicksOut>1469472399360000</pproTicksOut>
						<file id="file-52"/>
						<sourcetrack>
							<mediatype>audio</mediatype>
							<trackindex>1</trackindex>
						</sourcetrack>
						<logginginfo>
							<description></description>
							<scene></scene>
							<shottake></shottake>
							<lognote></lognote>
						</logginginfo>
						<labels>
							<label2>Caribbean</label2>
						</labels>
					</clipitem>
					<clipitem id="clipitem-785" premiereChannelType="mono">
						<masterclipid>masterclip-56</masterclipid>
						<name>Suzanne Aabel_01.wav</name>
						<enabled>TRUE</enabled>
						<duration>171138</duration>
						<rate>
							<timebase>25</timebase>
							<ntsc>FALSE</ntsc>
						</rate>
						<start>49706</start>
						<end>49762</end>
						<in>147186</in>
						<out>147242</out>
						<pproTicksIn>1495503959040000</pproTicksIn>
						<pproTicksOut>1496072954880000</pproTicksOut>
						<file id="file-52"/>
						<sourcetrack>
							<mediatype>audio</mediatype>
							<trackindex>1</trackindex>
						</sourcetrack>
						<logginginfo>
							<description></description>
							<scene></scene>
							<shottake></shottake>
							<lognote></lognote>
						</logginginfo>
						<labels>
							<label2>Caribbean</label2>
						</labels>
					</clipitem>
					<clipitem id="clipitem-786" premiereChannelType="mono">
						<masterclipid>masterclip-56</masterclipid>
						<name>Suzanne Aabel_01.wav</name>
						<enabled>TRUE</enabled>
						<duration>171138</duration>
						<rate>
							<timebase>25</timebase>
							<ntsc>FALSE</ntsc>
						</rate>
						<start>49762</start>
						<end>49948</end>
						<in>153681</in>
						<out>153867</out>
						<pproTicksIn>1561497315840000</pproTicksIn>
						<pproTicksOut>1563387194880000</pproTicksOut>
						<file id="file-52"/>
						<sourcetrack>
							<mediatype>audio</mediatype>
							<trackindex>1</trackindex>
						</sourcetrack>
						<logginginfo>
							<description></description>
							<scene></scene>
							<shottake></shottake>
							<lognote></lognote>
						</logginginfo>
						<labels>
							<label2>Caribbean</label2>
						</labels>
					</clipitem>
					<clipitem id="clipitem-787" premiereChannelType="mono">
						<masterclipid>masterclip-56</masterclipid>
						<name>Suzanne Aabel_01.wav</name>
						<enabled>TRUE</enabled>
						<duration>171138</duration>
						<rate>
							<timebase>25</timebase>
							<ntsc>FALSE</ntsc>
						</rate>
						<start>49948</start>
						<end>50390</end>
						<in>153946</in>
						<out>154388</out>
						<pproTicksIn>1564189885440000</pproTicksIn>
						<pproTicksOut>1568680888320000</pproTicksOut>
						<file id="file-52"/>
						<sourcetrack>
							<mediatype>audio</mediatype>
							<trackindex>1</trackindex>
						</sourcetrack>
						<logginginfo>
							<description></description>
							<scene></scene>
							<shottake></shottake>
							<lognote></lognote>
						</logginginfo>
						<labels>
							<label2>Caribbean</label2>
						</labels>
					</clipitem>
					<clipitem id="clipitem-788" premiereChannelType="mono">
						<masterclipid>masterclip-56</masterclipid>
						<name>Suzanne Aabel_01.wav</name>
						<enabled>TRUE</enabled>
						<duration>171138</duration>
						<rate>
							<timebase>25</timebase>
							<ntsc>FALSE</ntsc>
						</rate>
						<start>50390</start>
						<end>50983</end>
						<in>156215</in>
						<out>156808</out>
						<pproTicksIn>1587244377600000</pproTicksIn>
						<pproTicksOut>1593269637120000</pproTicksOut>
						<file id="file-52"/>
						<sourcetrack>
							<mediatype>audio</mediatype>
							<trackindex>1</trackindex>
						</sourcetrack>
						<logginginfo>
							<description></description>
							<scene></scene>
							<shottake></shottake>
							<lognote></lognote>
						</logginginfo>
						<labels>
							<label2>Caribbean</label2>
						</labels>
					</clipitem>
					<clipitem id="clipitem-789" premiereChannelType="mono">
						<masterclipid>masterclip-56</masterclipid>
						<name>Suzanne Aabel_01.wav</name>
						<enabled>TRUE</enabled>
						<duration>171138</duration>
						<rate>
							<timebase>25</timebase>
							<ntsc>FALSE</ntsc>
						</rate>
						<start>50983</start>
						<end>53597</end>
						<in>157028</in>
						<out>159642</out>
						<pproTicksIn>1595504977920000</pproTicksIn>
						<pproTicksOut>1622064890880000</pproTicksOut>
						<file id="file-52"/>
						<sourcetrack>
							<mediatype>audio</mediatype>
							<trackindex>1</trackindex>
						</sourcetrack>
						<logginginfo>
							<description></description>
							<scene></scene>
							<shottake></shottake>
							<lognote></lognote>
						</logginginfo>
						<labels>
							<label2>Caribbean</label2>
						</labels>
					</clipitem>
					<clipitem id="clipitem-790" premiereChannelType="mono">
						<masterclipid>masterclip-56</masterclipid>
						<name>Suzanne Aabel_01.wav</name>
						<enabled>TRUE</enabled>
						<duration>171138</duration>
						<rate>
							<timebase>25</timebase>
							<ntsc>FALSE</ntsc>
						</rate>
						<start>53597</start>
						<end>53636</end>
						<in>160568</in>
						<out>160607</out>
						<pproTicksIn>1631473643520000</pproTicksIn>
						<pproTicksOut>1631869908480000</pproTicksOut>
						<file id="file-52"/>
						<sourcetrack>
							<mediatype>audio</mediatype>
							<trackindex>1</trackindex>
						</sourcetrack>
						<logginginfo>
							<description></description>
							<scene></scene>
							<shottake></shottake>
							<lognote></lognote>
						</logginginfo>
						<labels>
							<label2>Caribbean</label2>
						</labels>
					</clipitem>
					<clipitem id="clipitem-791" premiereChannelType="mono">
						<masterclipid>masterclip-56</masterclipid>
						<name>Suzanne Aabel_01.wav</name>
						<enabled>TRUE</enabled>
						<duration>171138</duration>
						<rate>
							<timebase>25</timebase>
							<ntsc>FALSE</ntsc>
						</rate>
						<start>53636</start>
						<end>55369</end>
						<in>161146</in>
						<out>162879</out>
						<pproTicksIn>1637346493440000</pproTicksIn>
						<pproTicksOut>1654954882560000</pproTicksOut>
						<file id="file-52"/>
						<sourcetrack>
							<mediatype>audio</mediatype>
							<trackindex>1</trackindex>
						</sourcetrack>
						<logginginfo>
							<description></description>
							<scene></scene>
							<shottake></shottake>
							<lognote></lognote>
						</logginginfo>
						<labels>
							<label2>Caribbean</label2>
						</labels>
					</clipitem>
					<clipitem id="clipitem-792" premiereChannelType="mono">
						<masterclipid>masterclip-56</masterclipid>
						<name>Suzanne Aabel_01.wav</name>
						<enabled>TRUE</enabled>
						<duration>171138</duration>
						<rate>
							<timebase>25</timebase>
							<ntsc>FALSE</ntsc>
						</rate>
						<start>55369</start>
						<end>55449</end>
						<in>162899</in>
						<out>162979</out>
						<pproTicksIn>1655158095360000</pproTicksIn>
						<pproTicksOut>1655970946560000</pproTicksOut>
						<file id="file-52"/>
						<sourcetrack>
							<mediatype>audio</mediatype>
							<trackindex>1</trackindex>
						</sourcetrack>
						<logginginfo>
							<description></description>
							<scene></scene>
							<shottake></shottake>
							<lognote></lognote>
						</logginginfo>
						<labels>
							<label2>Caribbean</label2>
						</labels>
					</clipitem>
					<clipitem id="clipitem-793" premiereChannelType="mono">
						<masterclipid>masterclip-56</masterclipid>
						<name>Suzanne Aabel_01.wav</name>
						<enabled>TRUE</enabled>
						<duration>171138</duration>
						<rate>
							<timebase>25</timebase>
							<ntsc>FALSE</ntsc>
						</rate>
						<start>55449</start>
						<end>55738</end>
						<in>163146</in>
						<out>163435</out>
						<pproTicksIn>1657667773440000</pproTicksIn>
						<pproTicksOut>1660604198400000</pproTicksOut>
						<file id="file-52"/>
						<sourcetrack>
							<mediatype>audio</mediatype>
							<trackindex>1</trackindex>
						</sourcetrack>
						<logginginfo>
							<description></description>
							<scene></scene>
							<shottake></shottake>
							<lognote></lognote>
						</logginginfo>
						<labels>
							<label2>Caribbean</label2>
						</labels>
					</clipitem>
					<clipitem id="clipitem-794" premiereChannelType="mono">
						<masterclipid>masterclip-56</masterclipid>
						<name>Suzanne Aabel_01.wav</name>
						<enabled>TRUE</enabled>
						<duration>171138</duration>
						<rate>
							<timebase>25</timebase>
							<ntsc>FALSE</ntsc>
						</rate>
						<start>55738</start>
						<end>55905</end>
						<in>163648</in>
						<out>163815</out>
						<pproTicksIn>1662768414720000</pproTicksIn>
						<pproTicksOut>1664465241600000</pproTicksOut>
						<file id="file-52"/>
						<sourcetrack>
							<mediatype>audio</mediatype>
							<trackindex>1</trackindex>
						</sourcetrack>
						<logginginfo>
							<description></description>
							<scene></scene>
							<shottake></shottake>
							<lognote></lognote>
						</logginginfo>
						<labels>
							<label2>Caribbean</label2>
						</labels>
					</clipitem>
					<clipitem id="clipitem-795" premiereChannelType="mono">
						<masterclipid>masterclip-56</masterclipid>
						<name>Suzanne Aabel_01.wav</name>
						<enabled>TRUE</enabled>
						<duration>171138</duration>
						<rate>
							<timebase>25</timebase>
							<ntsc>FALSE</ntsc>
						</rate>
						<start>55905</start>
						<end>56079</end>
						<in>163829</in>
						<out>164003</out>
						<pproTicksIn>1664607490560000</pproTicksIn>
						<pproTicksOut>1666375441920000</pproTicksOut>
						<file id="file-52"/>
						<sourcetrack>
							<mediatype>audio</mediatype>
							<trackindex>1</trackindex>
						</sourcetrack>
						<logginginfo>
							<description></description>
							<scene></scene>
							<shottake></shottake>
							<lognote></lognote>
						</logginginfo>
						<labels>
							<label2>Caribbean</label2>
						</labels>
					</clipitem>
					<clipitem id="clipitem-796" premiereChannelType="mono">
						<masterclipid>masterclip-56</masterclipid>
						<name>Suzanne Aabel_01.wav</name>
						<enabled>TRUE</enabled>
						<duration>171138</duration>
						<rate>
							<timebase>25</timebase>
							<ntsc>FALSE</ntsc>
						</rate>
						<start>56079</start>
						<end>58120</end>
						<in>164067</in>
						<out>166108</out>
						<pproTicksIn>1667025722880000</pproTicksIn>
						<pproTicksOut>1687763589120000</pproTicksOut>
						<file id="file-52"/>
						<sourcetrack>
							<mediatype>audio</mediatype>
							<trackindex>1</trackindex>
						</sourcetrack>
						<logginginfo>
							<description></description>
							<scene></scene>
							<shottake></shottake>
							<lognote></lognote>
						</logginginfo>
						<labels>
							<label2>Caribbean</label2>
						</labels>
					</clipitem>
					<enabled>TRUE</enabled>
					<locked>FALSE</locked>
					<outputchannelindex>1</outputchannelindex>
				</track>
				<track TL.SQTrackAudioKeyframeStyle="0" TL.SQTrackShy="0" TL.SQTrackExpandedHeight="25" TL.SQTrackExpanded="1" MZ.TrackTargeted="1" PannerCurrentValue="0.5" PannerIsInverted="true" PannerStartKeyframe="-91445760000000000,0.5,0,0,0,0,0,0" PannerName="Balance" currentExplodedTrackIndex="0" totalExplodedTrackCount="1" premiereTrackType="Stereo">
					<clipitem id="clipitem-797" premiereChannelType="mono">
						<masterclipid>masterclip-57</masterclipid>
						<name>Mira Craig_01.wav</name>
						<enabled>TRUE</enabled>
						<duration>171138</duration>
						<rate>
							<timebase>25</timebase>
							<ntsc>FALSE</ntsc>
						</rate>
						<start>420</start>
						<end>891</end>
						<in>168511</in>
						<out>168982</out>
						<pproTicksIn>1712179607040000</pproTicksIn>
						<pproTicksOut>1716965268480000</pproTicksOut>
						<file id="file-53">
							<name>Mira Craig_01.wav</name>
							<pathurl>file://localhost/Volumes/Brakka/AdobeLager/QUIZ%20-%20brakka/RA%cc%8aSTOFF%20LYD/2005/Mira%20Craig_01.wav</pathurl>
							<rate>
								<timebase>30</timebase>
								<ntsc>TRUE</ntsc>
							</rate>
							<duration>205161</duration>
							<timecode>
								<rate>
									<timebase>30</timebase>
									<ntsc>TRUE</ntsc>
								</rate>
								<string>12;52;15;16</string>
								<frame>1388676</frame>
								<displayformat>DF</displayformat>
								<reel>
									<name></name>
								</reel>
							</timecode>
							<media>
								<audio>
									<samplecharacteristics>
										<depth>16</depth>
										<samplerate>48000</samplerate>
									</samplecharacteristics>
									<channelcount>1</channelcount>
									<audiochannel>
										<sourcechannel>1</sourcechannel>
									</audiochannel>
								</audio>
							</media>
						</file>
						<sourcetrack>
							<mediatype>audio</mediatype>
							<trackindex>1</trackindex>
						</sourcetrack>
						<logginginfo>
							<description></description>
							<scene></scene>
							<shottake></shottake>
							<lognote></lognote>
						</logginginfo>
						<labels>
							<label2>Caribbean</label2>
						</labels>
					</clipitem>
					<clipitem id="clipitem-798" premiereChannelType="mono">
						<masterclipid>masterclip-57</masterclipid>
						<name>Mira Craig_01.wav</name>
						<enabled>TRUE</enabled>
						<duration>171138</duration>
						<rate>
							<timebase>25</timebase>
							<ntsc>FALSE</ntsc>
						</rate>
						<start>965</start>
						<end>1469</end>
						<in>32787</in>
						<out>33291</out>
						<pproTicksIn>333136903680000</pproTicksIn>
						<pproTicksOut>338257866240000</pproTicksOut>
						<file id="file-53"/>
						<sourcetrack>
							<mediatype>audio</mediatype>
							<trackindex>1</trackindex>
						</sourcetrack>
						<logginginfo>
							<description></description>
							<scene></scene>
							<shottake></shottake>
							<lognote></lognote>
						</logginginfo>
						<labels>
							<label2>Caribbean</label2>
						</labels>
					</clipitem>
					<clipitem id="clipitem-799" premiereChannelType="mono">
						<masterclipid>masterclip-57</masterclipid>
						<name>Mira Craig_01.wav</name>
						<enabled>TRUE</enabled>
						<duration>171138</duration>
						<rate>
							<timebase>25</timebase>
							<ntsc>FALSE</ntsc>
						</rate>
						<start>1469</start>
						<end>4119</end>
						<in>33423</in>
						<out>36073</out>
						<pproTicksIn>339599070720000</pproTicksIn>
						<pproTicksOut>366524766720000</pproTicksOut>
						<file id="file-53"/>
						<sourcetrack>
							<mediatype>audio</mediatype>
							<trackindex>1</trackindex>
						</sourcetrack>
						<logginginfo>
							<description></description>
							<scene></scene>
							<shottake></shottake>
							<lognote></lognote>
						</logginginfo>
						<labels>
							<label2>Caribbean</label2>
						</labels>
					</clipitem>
					<clipitem id="clipitem-800" premiereChannelType="mono">
						<masterclipid>masterclip-57</masterclipid>
						<name>Mira Craig_01.wav</name>
						<enabled>TRUE</enabled>
						<duration>171138</duration>
						<rate>
							<timebase>25</timebase>
							<ntsc>FALSE</ntsc>
						</rate>
						<start>4119</start>
						<end>4836</end>
						<in>36549</in>
						<out>37266</out>
						<pproTicksIn>371361231360000</pproTicksIn>
						<pproTicksOut>378646410240000</pproTicksOut>
						<file id="file-53"/>
						<sourcetrack>
							<mediatype>audio</mediatype>
							<trackindex>1</trackindex>
						</sourcetrack>
						<logginginfo>
							<description></description>
							<scene></scene>
							<shottake></shottake>
							<lognote></lognote>
						</logginginfo>
						<labels>
							<label2>Caribbean</label2>
						</labels>
					</clipitem>
					<clipitem id="clipitem-801" premiereChannelType="mono">
						<masterclipid>masterclip-57</masterclipid>
						<name>Mira Craig_01.wav</name>
						<enabled>TRUE</enabled>
						<duration>171138</duration>
						<rate>
							<timebase>25</timebase>
							<ntsc>FALSE</ntsc>
						</rate>
						<start>4836</start>
						<end>5339</end>
						<in>37305</in>
						<out>37808</out>
						<pproTicksIn>379042675200000</pproTicksIn>
						<pproTicksOut>384153477120000</pproTicksOut>
						<file id="file-53"/>
						<sourcetrack>
							<mediatype>audio</mediatype>
							<trackindex>1</trackindex>
						</sourcetrack>
						<logginginfo>
							<description></description>
							<scene></scene>
							<shottake></shottake>
							<lognote></lognote>
						</logginginfo>
						<labels>
							<label2>Caribbean</label2>
						</labels>
					</clipitem>
					<clipitem id="clipitem-802" premiereChannelType="mono">
						<masterclipid>masterclip-57</masterclipid>
						<name>Mira Craig_01.wav</name>
						<enabled>TRUE</enabled>
						<duration>171138</duration>
						<rate>
							<timebase>25</timebase>
							<ntsc>FALSE</ntsc>
						</rate>
						<start>5339</start>
						<end>5501</end>
						<in>37871</in>
						<out>38033</out>
						<pproTicksIn>384793597440000</pproTicksIn>
						<pproTicksOut>386439621120000</pproTicksOut>
						<file id="file-53"/>
						<sourcetrack>
							<mediatype>audio</mediatype>
							<trackindex>1</trackindex>
						</sourcetrack>
						<logginginfo>
							<description></description>
							<scene></scene>
							<shottake></shottake>
							<lognote></lognote>
						</logginginfo>
						<labels>
							<label2>Caribbean</label2>
						</labels>
					</clipitem>
					<clipitem id="clipitem-803" premiereChannelType="mono">
						<masterclipid>masterclip-57</masterclipid>
						<name>Mira Craig_01.wav</name>
						<enabled>TRUE</enabled>
						<duration>171138</duration>
						<rate>
							<timebase>25</timebase>
							<ntsc>FALSE</ntsc>
						</rate>
						<start>5501</start>
						<end>6004</end>
						<in>46577</in>
						<out>47080</out>
						<pproTicksIn>473252129280000</pproTicksIn>
						<pproTicksOut>478362931200000</pproTicksOut>
						<file id="file-53"/>
						<sourcetrack>
							<mediatype>audio</mediatype>
							<trackindex>1</trackindex>
						</sourcetrack>
						<logginginfo>
							<description></description>
							<scene></scene>
							<shottake></shottake>
							<lognote></lognote>
						</logginginfo>
						<labels>
							<label2>Caribbean</label2>
						</labels>
					</clipitem>
					<clipitem id="clipitem-804" premiereChannelType="mono">
						<masterclipid>masterclip-57</masterclipid>
						<name>Mira Craig_01.wav</name>
						<enabled>TRUE</enabled>
						<duration>171138</duration>
						<rate>
							<timebase>25</timebase>
							<ntsc>FALSE</ntsc>
						</rate>
						<start>6004</start>
						<end>6357</end>
						<in>50106</in>
						<out>50459</out>
						<pproTicksIn>509109027840000</pproTicksIn>
						<pproTicksOut>512695733760000</pproTicksOut>
						<file id="file-53"/>
						<sourcetrack>
							<mediatype>audio</mediatype>
							<trackindex>1</trackindex>
						</sourcetrack>
						<logginginfo>
							<description></description>
							<scene></scene>
							<shottake></shottake>
							<lognote></lognote>
						</logginginfo>
						<labels>
							<label2>Caribbean</label2>
						</labels>
					</clipitem>
					<clipitem id="clipitem-805" premiereChannelType="mono">
						<masterclipid>masterclip-57</masterclipid>
						<name>Mira Craig_01.wav</name>
						<enabled>TRUE</enabled>
						<duration>171138</duration>
						<rate>
							<timebase>25</timebase>
							<ntsc>FALSE</ntsc>
						</rate>
						<start>6357</start>
						<end>6470</end>
						<in>50578</in>
						<out>50691</out>
						<pproTicksIn>513904849920000</pproTicksIn>
						<pproTicksOut>515053002240000</pproTicksOut>
						<file id="file-53"/>
						<sourcetrack>
							<mediatype>audio</mediatype>
							<trackindex>1</trackindex>
						</sourcetrack>
						<logginginfo>
							<description></description>
							<scene></scene>
							<shottake></shottake>
							<lognote></lognote>
						</logginginfo>
						<labels>
							<label2>Caribbean</label2>
						</labels>
					</clipitem>
					<clipitem id="clipitem-806" premiereChannelType="mono">
						<masterclipid>masterclip-57</masterclipid>
						<name>Mira Craig_01.wav</name>
						<enabled>TRUE</enabled>
						<duration>171138</duration>
						<rate>
							<timebase>25</timebase>
							<ntsc>FALSE</ntsc>
						</rate>
						<start>6470</start>
						<end>6547</end>
						<in>50753</in>
						<out>50830</out>
						<pproTicksIn>515682961920000</pproTicksIn>
						<pproTicksOut>516465331200000</pproTicksOut>
						<file id="file-53"/>
						<sourcetrack>
							<mediatype>audio</mediatype>
							<trackindex>1</trackindex>
						</sourcetrack>
						<logginginfo>
							<description></description>
							<scene></scene>
							<shottake></shottake>
							<lognote></lognote>
						</logginginfo>
						<labels>
							<label2>Caribbean</label2>
						</labels>
					</clipitem>
					<clipitem id="clipitem-807" premiereChannelType="mono">
						<masterclipid>masterclip-57</masterclipid>
						<name>Mira Craig_01.wav</name>
						<enabled>TRUE</enabled>
						<duration>171138</duration>
						<rate>
							<timebase>25</timebase>
							<ntsc>FALSE</ntsc>
						</rate>
						<start>6547</start>
						<end>7368</end>
						<in>50869</in>
						<out>51690</out>
						<pproTicksIn>516861596160000</pproTicksIn>
						<pproTicksOut>525203481600000</pproTicksOut>
						<file id="file-53"/>
						<sourcetrack>
							<mediatype>audio</mediatype>
							<trackindex>1</trackindex>
						</sourcetrack>
						<logginginfo>
							<description></description>
							<scene></scene>
							<shottake></shottake>
							<lognote></lognote>
						</logginginfo>
						<labels>
							<label2>Caribbean</label2>
						</labels>
					</clipitem>
					<clipitem id="clipitem-808" premiereChannelType="mono">
						<masterclipid>masterclip-57</masterclipid>
						<name>Mira Craig_01.wav</name>
						<enabled>TRUE</enabled>
						<duration>171138</duration>
						<rate>
							<timebase>25</timebase>
							<ntsc>FALSE</ntsc>
						</rate>
						<start>7368</start>
						<end>7448</end>
						<in>51824</in>
						<out>51904</out>
						<pproTicksIn>526565007360000</pproTicksIn>
						<pproTicksOut>527377858560000</pproTicksOut>
						<file id="file-53"/>
						<sourcetrack>
							<mediatype>audio</mediatype>
							<trackindex>1</trackindex>
						</sourcetrack>
						<logginginfo>
							<description></description>
							<scene></scene>
							<shottake></shottake>
							<lognote></lognote>
						</logginginfo>
						<labels>
							<label2>Caribbean</label2>
						</labels>
					</clipitem>
					<clipitem id="clipitem-809" premiereChannelType="mono">
						<masterclipid>masterclip-57</masterclipid>
						<name>Mira Craig_01.wav</name>
						<enabled>TRUE</enabled>
						<duration>171138</duration>
						<rate>
							<timebase>25</timebase>
							<ntsc>FALSE</ntsc>
						</rate>
						<start>7448</start>
						<end>8194</end>
						<in>52064</in>
						<out>52810</out>
						<pproTicksIn>529003560960000</pproTicksIn>
						<pproTicksOut>536583398400000</pproTicksOut>
						<file id="file-53"/>
						<sourcetrack>
							<mediatype>audio</mediatype>
							<trackindex>1</trackindex>
						</sourcetrack>
						<logginginfo>
							<description></description>
							<scene></scene>
							<shottake></shottake>
							<lognote></lognote>
						</logginginfo>
						<labels>
							<label2>Caribbean</label2>
						</labels>
					</clipitem>
					<clipitem id="clipitem-810" premiereChannelType="mono">
						<masterclipid>masterclip-57</masterclipid>
						<name>Mira Craig_01.wav</name>
						<enabled>TRUE</enabled>
						<duration>171138</duration>
						<rate>
							<timebase>25</timebase>
							<ntsc>FALSE</ntsc>
						</rate>
						<start>8194</start>
						<end>8332</end>
						<in>57229</in>
						<out>57367</out>
						<pproTicksIn>581483266560000</pproTicksIn>
						<pproTicksOut>582885434880000</pproTicksOut>
						<file id="file-53"/>
						<sourcetrack>
							<mediatype>audio</mediatype>
							<trackindex>1</trackindex>
						</sourcetrack>
						<logginginfo>
							<description></description>
							<scene></scene>
							<shottake></shottake>
							<lognote></lognote>
						</logginginfo>
						<labels>
							<label2>Caribbean</label2>
						</labels>
					</clipitem>
					<clipitem id="clipitem-811" premiereChannelType="mono">
						<masterclipid>masterclip-57</masterclipid>
						<name>Mira Craig_01.wav</name>
						<enabled>TRUE</enabled>
						<duration>171138</duration>
						<rate>
							<timebase>25</timebase>
							<ntsc>FALSE</ntsc>
						</rate>
						<start>8332</start>
						<end>8592</end>
						<in>58240</in>
						<out>58500</out>
						<pproTicksIn>591755673600000</pproTicksIn>
						<pproTicksOut>594397440000000</pproTicksOut>
						<file id="file-53"/>
						<sourcetrack>
							<mediatype>audio</mediatype>
							<trackindex>1</trackindex>
						</sourcetrack>
						<logginginfo>
							<description></description>
							<scene></scene>
							<shottake></shottake>
							<lognote></lognote>
						</logginginfo>
						<labels>
							<label2>Caribbean</label2>
						</labels>
					</clipitem>
					<clipitem id="clipitem-812" premiereChannelType="mono">
						<masterclipid>masterclip-57</masterclipid>
						<name>Mira Craig_01.wav</name>
						<enabled>TRUE</enabled>
						<duration>171138</duration>
						<rate>
							<timebase>25</timebase>
							<ntsc>FALSE</ntsc>
						</rate>
						<start>8592</start>
						<end>8690</end>
						<in>58994</in>
						<out>59092</out>
						<pproTicksIn>599416796160000</pproTicksIn>
						<pproTicksOut>600412538880000</pproTicksOut>
						<file id="file-53"/>
						<sourcetrack>
							<mediatype>audio</mediatype>
							<trackindex>1</trackindex>
						</sourcetrack>
						<logginginfo>
							<description></description>
							<scene></scene>
							<shottake></shottake>
							<lognote></lognote>
						</logginginfo>
						<labels>
							<label2>Caribbean</label2>
						</labels>
					</clipitem>
					<clipitem id="clipitem-813" premiereChannelType="mono">
						<masterclipid>masterclip-57</masterclipid>
						<name>Mira Craig_01.wav</name>
						<enabled>TRUE</enabled>
						<duration>171138</duration>
						<rate>
							<timebase>25</timebase>
							<ntsc>FALSE</ntsc>
						</rate>
						<start>8690</start>
						<end>8999</end>
						<in>59189</in>
						<out>59498</out>
						<pproTicksIn>601398120960000</pproTicksIn>
						<pproTicksOut>604537758720000</pproTicksOut>
						<file id="file-53"/>
						<sourcetrack>
							<mediatype>audio</mediatype>
							<trackindex>1</trackindex>
						</sourcetrack>
						<logginginfo>
							<description></description>
							<scene></scene>
							<shottake></shottake>
							<lognote></lognote>
						</logginginfo>
						<labels>
							<label2>Caribbean</label2>
						</labels>
					</clipitem>
					<clipitem id="clipitem-814" premiereChannelType="mono">
						<masterclipid>masterclip-57</masterclipid>
						<name>Mira Craig_01.wav</name>
						<enabled>TRUE</enabled>
						<duration>171138</duration>
						<rate>
							<timebase>25</timebase>
							<ntsc>FALSE</ntsc>
						</rate>
						<start>8999</start>
						<end>9172</end>
						<in>59597</in>
						<out>59770</out>
						<pproTicksIn>605543662080000</pproTicksIn>
						<pproTicksOut>607301452800000</pproTicksOut>
						<file id="file-53"/>
						<sourcetrack>
							<mediatype>audio</mediatype>
							<trackindex>1</trackindex>
						</sourcetrack>
						<logginginfo>
							<description></description>
							<scene></scene>
							<shottake></shottake>
							<lognote></lognote>
						</logginginfo>
						<labels>
							<label2>Caribbean</label2>
						</labels>
					</clipitem>
					<clipitem id="clipitem-815" premiereChannelType="mono">
						<masterclipid>masterclip-57</masterclipid>
						<name>Mira Craig_01.wav</name>
						<enabled>TRUE</enabled>
						<duration>171138</duration>
						<rate>
							<timebase>25</timebase>
							<ntsc>FALSE</ntsc>
						</rate>
						<start>9172</start>
						<end>9280</end>
						<in>59921</in>
						<out>60029</out>
						<pproTicksIn>608835709440000</pproTicksIn>
						<pproTicksOut>609933058560000</pproTicksOut>
						<file id="file-53"/>
						<sourcetrack>
							<mediatype>audio</mediatype>
							<trackindex>1</trackindex>
						</sourcetrack>
						<logginginfo>
							<description></description>
							<scene></scene>
							<shottake></shottake>
							<lognote></lognote>
						</logginginfo>
						<labels>
							<label2>Caribbean</label2>
						</labels>
					</clipitem>
					<clipitem id="clipitem-816" premiereChannelType="mono">
						<masterclipid>masterclip-57</masterclipid>
						<name>Mira Craig_01.wav</name>
						<enabled>TRUE</enabled>
						<duration>171138</duration>
						<rate>
							<timebase>25</timebase>
							<ntsc>FALSE</ntsc>
						</rate>
						<start>9280</start>
						<end>9979</end>
						<in>65722</in>
						<out>66421</out>
						<pproTicksIn>667777582080000</pproTicksIn>
						<pproTicksOut>674879869440000</pproTicksOut>
						<file id="file-53"/>
						<sourcetrack>
							<mediatype>audio</mediatype>
							<trackindex>1</trackindex>
						</sourcetrack>
						<logginginfo>
							<description></description>
							<scene></scene>
							<shottake></shottake>
							<lognote></lognote>
						</logginginfo>
						<labels>
							<label2>Caribbean</label2>
						</labels>
					</clipitem>
					<clipitem id="clipitem-817" premiereChannelType="mono">
						<masterclipid>masterclip-57</masterclipid>
						<name>Mira Craig_01.wav</name>
						<enabled>TRUE</enabled>
						<duration>171138</duration>
						<rate>
							<timebase>25</timebase>
							<ntsc>FALSE</ntsc>
						</rate>
						<start>9979</start>
						<end>10054</end>
						<in>66518</in>
						<out>66593</out>
						<pproTicksIn>675865451520000</pproTicksIn>
						<pproTicksOut>676627499520000</pproTicksOut>
						<file id="file-53"/>
						<sourcetrack>
							<mediatype>audio</mediatype>
							<trackindex>1</trackindex>
						</sourcetrack>
						<logginginfo>
							<description></description>
							<scene></scene>
							<shottake></shottake>
							<lognote></lognote>
						</logginginfo>
						<labels>
							<label2>Caribbean</label2>
						</labels>
					</clipitem>
					<clipitem id="clipitem-818" premiereChannelType="mono">
						<masterclipid>masterclip-57</masterclipid>
						<name>Mira Craig_01.wav</name>
						<enabled>TRUE</enabled>
						<duration>171138</duration>
						<rate>
							<timebase>25</timebase>
							<ntsc>FALSE</ntsc>
						</rate>
						<start>10054</start>
						<end>10901</end>
						<in>67109</in>
						<out>67956</out>
						<pproTicksIn>681870389760000</pproTicksIn>
						<pproTicksOut>690476451840000</pproTicksOut>
						<file id="file-53"/>
						<sourcetrack>
							<mediatype>audio</mediatype>
							<trackindex>1</trackindex>
						</sourcetrack>
						<logginginfo>
							<description></description>
							<scene></scene>
							<shottake></shottake>
							<lognote></lognote>
						</logginginfo>
						<labels>
							<label2>Caribbean</label2>
						</labels>
					</clipitem>
					<clipitem id="clipitem-819" premiereChannelType="mono">
						<masterclipid>masterclip-57</masterclipid>
						<name>Mira Craig_01.wav</name>
						<enabled>TRUE</enabled>
						<duration>171138</duration>
						<rate>
							<timebase>25</timebase>
							<ntsc>FALSE</ntsc>
						</rate>
						<start>10901</start>
						<end>11157</end>
						<in>67945</in>
						<out>68201</out>
						<pproTicksIn>690364684800000</pproTicksIn>
						<pproTicksOut>692965808640000</pproTicksOut>
						<file id="file-53"/>
						<sourcetrack>
							<mediatype>audio</mediatype>
							<trackindex>1</trackindex>
						</sourcetrack>
						<logginginfo>
							<description></description>
							<scene></scene>
							<shottake></shottake>
							<lognote></lognote>
						</logginginfo>
						<labels>
							<label2>Caribbean</label2>
						</labels>
					</clipitem>
					<clipitem id="clipitem-820" premiereChannelType="mono">
						<masterclipid>masterclip-57</masterclipid>
						<name>Mira Craig_01.wav</name>
						<enabled>TRUE</enabled>
						<duration>171138</duration>
						<rate>
							<timebase>25</timebase>
							<ntsc>FALSE</ntsc>
						</rate>
						<start>11157</start>
						<end>11309</end>
						<in>68218</in>
						<out>68370</out>
						<pproTicksIn>693138539520000</pproTicksIn>
						<pproTicksOut>694682956800000</pproTicksOut>
						<file id="file-53"/>
						<sourcetrack>
							<mediatype>audio</mediatype>
							<trackindex>1</trackindex>
						</sourcetrack>
						<logginginfo>
							<description></description>
							<scene></scene>
							<shottake></shottake>
							<lognote></lognote>
						</logginginfo>
						<labels>
							<label2>Caribbean</label2>
						</labels>
					</clipitem>
					<clipitem id="clipitem-821" premiereChannelType="mono">
						<masterclipid>masterclip-57</masterclipid>
						<name>Mira Craig_01.wav</name>
						<enabled>TRUE</enabled>
						<duration>171138</duration>
						<rate>
							<timebase>25</timebase>
							<ntsc>FALSE</ntsc>
						</rate>
						<start>11309</start>
						<end>11781</end>
						<in>68707</in>
						<out>69179</out>
						<pproTicksIn>698107092480000</pproTicksIn>
						<pproTicksOut>702902914560000</pproTicksOut>
						<file id="file-53"/>
						<sourcetrack>
							<mediatype>audio</mediatype>
							<trackindex>1</trackindex>
						</sourcetrack>
						<logginginfo>
							<description></description>
							<scene></scene>
							<shottake></shottake>
							<lognote></lognote>
						</logginginfo>
						<labels>
							<label2>Caribbean</label2>
						</labels>
					</clipitem>
					<clipitem id="clipitem-822" premiereChannelType="mono">
						<masterclipid>masterclip-57</masterclipid>
						<name>Mira Craig_01.wav</name>
						<enabled>TRUE</enabled>
						<duration>171138</duration>
						<rate>
							<timebase>25</timebase>
							<ntsc>FALSE</ntsc>
						</rate>
						<start>11781</start>
						<end>12155</end>
						<in>70010</in>
						<out>70384</out>
						<pproTicksIn>711346406400000</pproTicksIn>
						<pproTicksOut>715146485760000</pproTicksOut>
						<file id="file-53"/>
						<sourcetrack>
							<mediatype>audio</mediatype>
							<trackindex>1</trackindex>
						</sourcetrack>
						<logginginfo>
							<description></description>
							<scene></scene>
							<shottake></shottake>
							<lognote></lognote>
						</logginginfo>
						<labels>
							<label2>Caribbean</label2>
						</labels>
					</clipitem>
					<clipitem id="clipitem-823" premiereChannelType="mono">
						<masterclipid>masterclip-57</masterclipid>
						<name>Mira Craig_01.wav</name>
						<enabled>TRUE</enabled>
						<duration>171138</duration>
						<rate>
							<timebase>25</timebase>
							<ntsc>FALSE</ntsc>
						</rate>
						<start>12155</start>
						<end>13212</end>
						<in>70448</in>
						<out>71505</out>
						<pproTicksIn>715796766720000</pproTicksIn>
						<pproTicksOut>726536563200000</pproTicksOut>
						<file id="file-53"/>
						<sourcetrack>
							<mediatype>audio</mediatype>
							<trackindex>1</trackindex>
						</sourcetrack>
						<logginginfo>
							<description></description>
							<scene></scene>
							<shottake></shottake>
							<lognote></lognote>
						</logginginfo>
						<labels>
							<label2>Caribbean</label2>
						</labels>
					</clipitem>
					<clipitem id="clipitem-824" premiereChannelType="mono">
						<masterclipid>masterclip-57</masterclipid>
						<name>Mira Craig_01.wav</name>
						<enabled>TRUE</enabled>
						<duration>171138</duration>
						<rate>
							<timebase>25</timebase>
							<ntsc>FALSE</ntsc>
						</rate>
						<start>13212</start>
						<end>13343</end>
						<in>71544</in>
						<out>71675</out>
						<pproTicksIn>726932828160000</pproTicksIn>
						<pproTicksOut>728263872000000</pproTicksOut>
						<file id="file-53"/>
						<sourcetrack>
							<mediatype>audio</mediatype>
							<trackindex>1</trackindex>
						</sourcetrack>
						<logginginfo>
							<description></description>
							<scene></scene>
							<shottake></shottake>
							<lognote></lognote>
						</logginginfo>
						<labels>
							<label2>Caribbean</label2>
						</labels>
					</clipitem>
					<clipitem id="clipitem-825" premiereChannelType="mono">
						<masterclipid>masterclip-57</masterclipid>
						<name>Mira Craig_01.wav</name>
						<enabled>TRUE</enabled>
						<duration>171138</duration>
						<rate>
							<timebase>25</timebase>
							<ntsc>FALSE</ntsc>
						</rate>
						<start>13359</start>
						<end>13506</end>
						<in>77542</in>
						<out>77689</out>
						<pproTicksIn>787876346880000</pproTicksIn>
						<pproTicksOut>789369960960000</pproTicksOut>
						<file id="file-53"/>
						<sourcetrack>
							<mediatype>audio</mediatype>
							<trackindex>1</trackindex>
						</sourcetrack>
						<logginginfo>
							<description></description>
							<scene></scene>
							<shottake></shottake>
							<lognote></lognote>
						</logginginfo>
						<labels>
							<label2>Caribbean</label2>
						</labels>
					</clipitem>
					<clipitem id="clipitem-826" premiereChannelType="mono">
						<masterclipid>masterclip-57</masterclipid>
						<name>Mira Craig_01.wav</name>
						<enabled>TRUE</enabled>
						<duration>171138</duration>
						<rate>
							<timebase>25</timebase>
							<ntsc>FALSE</ntsc>
						</rate>
						<start>13506</start>
						<end>14081</end>
						<in>78019</in>
						<out>78594</out>
						<pproTicksIn>792722972160000</pproTicksIn>
						<pproTicksOut>798565340160000</pproTicksOut>
						<file id="file-53"/>
						<sourcetrack>
							<mediatype>audio</mediatype>
							<trackindex>1</trackindex>
						</sourcetrack>
						<logginginfo>
							<description></description>
							<scene></scene>
							<shottake></shottake>
							<lognote></lognote>
						</logginginfo>
						<labels>
							<label2>Caribbean</label2>
						</labels>
					</clipitem>
					<clipitem id="clipitem-827" premiereChannelType="mono">
						<masterclipid>masterclip-57</masterclipid>
						<name>Mira Craig_01.wav</name>
						<enabled>TRUE</enabled>
						<duration>171138</duration>
						<rate>
							<timebase>25</timebase>
							<ntsc>FALSE</ntsc>
						</rate>
						<start>14081</start>
						<end>14232</end>
						<in>78676</in>
						<out>78827</out>
						<pproTicksIn>799398512640000</pproTicksIn>
						<pproTicksOut>800932769280000</pproTicksOut>
						<file id="file-53"/>
						<sourcetrack>
							<mediatype>audio</mediatype>
							<trackindex>1</trackindex>
						</sourcetrack>
						<logginginfo>
							<description></description>
							<scene></scene>
							<shottake></shottake>
							<lognote></lognote>
						</logginginfo>
						<labels>
							<label2>Caribbean</label2>
						</labels>
					</clipitem>
					<clipitem id="clipitem-828" premiereChannelType="mono">
						<masterclipid>masterclip-57</masterclipid>
						<name>Mira Craig_01.wav</name>
						<enabled>TRUE</enabled>
						<duration>171138</duration>
						<rate>
							<timebase>25</timebase>
							<ntsc>FALSE</ntsc>
						</rate>
						<start>14232</start>
						<end>14550</end>
						<in>78886</in>
						<out>79204</out>
						<pproTicksIn>801532247040000</pproTicksIn>
						<pproTicksOut>804763330560000</pproTicksOut>
						<file id="file-53"/>
						<sourcetrack>
							<mediatype>audio</mediatype>
							<trackindex>1</trackindex>
						</sourcetrack>
						<logginginfo>
							<description></description>
							<scene></scene>
							<shottake></shottake>
							<lognote></lognote>
						</logginginfo>
						<labels>
							<label2>Caribbean</label2>
						</labels>
					</clipitem>
					<clipitem id="clipitem-829" premiereChannelType="mono">
						<masterclipid>masterclip-57</masterclipid>
						<name>Mira Craig_01.wav</name>
						<enabled>TRUE</enabled>
						<duration>171138</duration>
						<rate>
							<timebase>25</timebase>
							<ntsc>FALSE</ntsc>
						</rate>
						<start>14550</start>
						<end>14774</end>
						<in>79562</in>
						<out>79786</out>
						<pproTicksIn>808400839680000</pproTicksIn>
						<pproTicksOut>810676823040000</pproTicksOut>
						<file id="file-53"/>
						<sourcetrack>
							<mediatype>audio</mediatype>
							<trackindex>1</trackindex>
						</sourcetrack>
						<logginginfo>
							<description></description>
							<scene></scene>
							<shottake></shottake>
							<lognote></lognote>
						</logginginfo>
						<labels>
							<label2>Caribbean</label2>
						</labels>
					</clipitem>
					<clipitem id="clipitem-830" premiereChannelType="mono">
						<masterclipid>masterclip-57</masterclipid>
						<name>Mira Craig_01.wav</name>
						<enabled>TRUE</enabled>
						<duration>171138</duration>
						<rate>
							<timebase>25</timebase>
							<ntsc>FALSE</ntsc>
						</rate>
						<start>14774</start>
						<end>14798</end>
						<in>79204</in>
						<out>79228</out>
						<pproTicksIn>804763330560000</pproTicksIn>
						<pproTicksOut>805007185920000</pproTicksOut>
						<file id="file-53"/>
						<sourcetrack>
							<mediatype>audio</mediatype>
							<trackindex>1</trackindex>
						</sourcetrack>
						<logginginfo>
							<description></description>
							<scene></scene>
							<shottake></shottake>
							<lognote></lognote>
						</logginginfo>
						<labels>
							<label2>Caribbean</label2>
						</labels>
					</clipitem>
					<clipitem id="clipitem-831" premiereChannelType="mono">
						<masterclipid>masterclip-57</masterclipid>
						<name>Mira Craig_01.wav</name>
						<enabled>TRUE</enabled>
						<duration>171138</duration>
						<rate>
							<timebase>25</timebase>
							<ntsc>FALSE</ntsc>
						</rate>
						<start>14798</start>
						<end>14887</end>
						<in>80182</in>
						<out>80271</out>
						<pproTicksIn>814700436480000</pproTicksIn>
						<pproTicksOut>815604733440000</pproTicksOut>
						<file id="file-53"/>
						<sourcetrack>
							<mediatype>audio</mediatype>
							<trackindex>1</trackindex>
						</sourcetrack>
						<logginginfo>
							<description></description>
							<scene></scene>
							<shottake></shottake>
							<lognote></lognote>
						</logginginfo>
						<labels>
							<label2>Caribbean</label2>
						</labels>
					</clipitem>
					<clipitem id="clipitem-832" premiereChannelType="mono">
						<masterclipid>masterclip-57</masterclipid>
						<name>Mira Craig_01.wav</name>
						<enabled>TRUE</enabled>
						<duration>171138</duration>
						<rate>
							<timebase>25</timebase>
							<ntsc>FALSE</ntsc>
						</rate>
						<start>14887</start>
						<end>15129</end>
						<in>80569</in>
						<out>80811</out>
						<pproTicksIn>818632604160000</pproTicksIn>
						<pproTicksOut>821091479040000</pproTicksOut>
						<file id="file-53"/>
						<sourcetrack>
							<mediatype>audio</mediatype>
							<trackindex>1</trackindex>
						</sourcetrack>
						<logginginfo>
							<description></description>
							<scene></scene>
							<shottake></shottake>
							<lognote></lognote>
						</logginginfo>
						<labels>
							<label2>Caribbean</label2>
						</labels>
					</clipitem>
					<clipitem id="clipitem-833" premiereChannelType="mono">
						<masterclipid>masterclip-57</masterclipid>
						<name>Mira Craig_01.wav</name>
						<enabled>TRUE</enabled>
						<duration>171138</duration>
						<rate>
							<timebase>25</timebase>
							<ntsc>FALSE</ntsc>
						</rate>
						<start>15129</start>
						<end>15493</end>
						<in>80817</in>
						<out>81181</out>
						<pproTicksIn>821152442880000</pproTicksIn>
						<pproTicksOut>824850915840000</pproTicksOut>
						<file id="file-53"/>
						<sourcetrack>
							<mediatype>audio</mediatype>
							<trackindex>1</trackindex>
						</sourcetrack>
						<logginginfo>
							<description></description>
							<scene></scene>
							<shottake></shottake>
							<lognote></lognote>
						</logginginfo>
						<labels>
							<label2>Caribbean</label2>
						</labels>
					</clipitem>
					<clipitem id="clipitem-834" premiereChannelType="mono">
						<masterclipid>masterclip-57</masterclipid>
						<name>Mira Craig_01.wav</name>
						<enabled>TRUE</enabled>
						<duration>171138</duration>
						<rate>
							<timebase>25</timebase>
							<ntsc>FALSE</ntsc>
						</rate>
						<start>15493</start>
						<end>15657</end>
						<in>81234</in>
						<out>81398</out>
						<pproTicksIn>825389429760000</pproTicksIn>
						<pproTicksOut>827055774720000</pproTicksOut>
						<file id="file-53"/>
						<sourcetrack>
							<mediatype>audio</mediatype>
							<trackindex>1</trackindex>
						</sourcetrack>
						<logginginfo>
							<description></description>
							<scene></scene>
							<shottake></shottake>
							<lognote></lognote>
						</logginginfo>
						<labels>
							<label2>Caribbean</label2>
						</labels>
					</clipitem>
					<clipitem id="clipitem-835" premiereChannelType="mono">
						<masterclipid>masterclip-57</masterclipid>
						<name>Mira Craig_01.wav</name>
						<enabled>TRUE</enabled>
						<duration>171138</duration>
						<rate>
							<timebase>25</timebase>
							<ntsc>FALSE</ntsc>
						</rate>
						<start>15657</start>
						<end>15850</end>
						<in>81563</in>
						<out>81756</out>
						<pproTicksIn>828732280320000</pproTicksIn>
						<pproTicksOut>830693283840000</pproTicksOut>
						<file id="file-53"/>
						<sourcetrack>
							<mediatype>audio</mediatype>
							<trackindex>1</trackindex>
						</sourcetrack>
						<logginginfo>
							<description></description>
							<scene></scene>
							<shottake></shottake>
							<lognote></lognote>
						</logginginfo>
						<labels>
							<label2>Caribbean</label2>
						</labels>
					</clipitem>
					<clipitem id="clipitem-836" premiereChannelType="mono">
						<masterclipid>masterclip-57</masterclipid>
						<name>Mira Craig_01.wav</name>
						<enabled>TRUE</enabled>
						<duration>171138</duration>
						<rate>
							<timebase>25</timebase>
							<ntsc>FALSE</ntsc>
						</rate>
						<start>15850</start>
						<end>16018</end>
						<in>81984</in>
						<out>82152</out>
						<pproTicksIn>833009909760000</pproTicksIn>
						<pproTicksOut>834716897280000</pproTicksOut>
						<file id="file-53"/>
						<sourcetrack>
							<mediatype>audio</mediatype>
							<trackindex>1</trackindex>
						</sourcetrack>
						<logginginfo>
							<description></description>
							<scene></scene>
							<shottake></shottake>
							<lognote></lognote>
						</logginginfo>
						<labels>
							<label2>Caribbean</label2>
						</labels>
					</clipitem>
					<clipitem id="clipitem-837" premiereChannelType="mono">
						<masterclipid>masterclip-57</masterclipid>
						<name>Mira Craig_01.wav</name>
						<enabled>TRUE</enabled>
						<duration>171138</duration>
						<rate>
							<timebase>25</timebase>
							<ntsc>FALSE</ntsc>
						</rate>
						<start>16018</start>
						<end>16073</end>
						<in>82477</in>
						<out>82532</out>
						<pproTicksIn>838019105280000</pproTicksIn>
						<pproTicksOut>838577940480000</pproTicksOut>
						<file id="file-53"/>
						<sourcetrack>
							<mediatype>audio</mediatype>
							<trackindex>1</trackindex>
						</sourcetrack>
						<logginginfo>
							<description></description>
							<scene></scene>
							<shottake></shottake>
							<lognote></lognote>
						</logginginfo>
						<labels>
							<label2>Caribbean</label2>
						</labels>
					</clipitem>
					<clipitem id="clipitem-838" premiereChannelType="mono">
						<masterclipid>masterclip-57</masterclipid>
						<name>Mira Craig_01.wav</name>
						<enabled>TRUE</enabled>
						<duration>171138</duration>
						<rate>
							<timebase>25</timebase>
							<ntsc>FALSE</ntsc>
						</rate>
						<start>16073</start>
						<end>16115</end>
						<in>83437</in>
						<out>83479</out>
						<pproTicksIn>847773319680000</pproTicksIn>
						<pproTicksOut>848200066560000</pproTicksOut>
						<file id="file-53"/>
						<sourcetrack>
							<mediatype>audio</mediatype>
							<trackindex>1</trackindex>
						</sourcetrack>
						<logginginfo>
							<description></description>
							<scene></scene>
							<shottake></shottake>
							<lognote></lognote>
						</logginginfo>
						<labels>
							<label2>Caribbean</label2>
						</labels>
					</clipitem>
					<clipitem id="clipitem-839" premiereChannelType="mono">
						<masterclipid>masterclip-57</masterclipid>
						<name>Mira Craig_01.wav</name>
						<enabled>TRUE</enabled>
						<duration>171138</duration>
						<rate>
							<timebase>25</timebase>
							<ntsc>FALSE</ntsc>
						</rate>
						<start>16115</start>
						<end>16204</end>
						<in>83479</in>
						<out>83568</out>
						<pproTicksIn>848200066560000</pproTicksIn>
						<pproTicksOut>849104363520000</pproTicksOut>
						<file id="file-53"/>
						<sourcetrack>
							<mediatype>audio</mediatype>
							<trackindex>1</trackindex>
						</sourcetrack>
						<logginginfo>
							<description></description>
							<scene></scene>
							<shottake></shottake>
							<lognote></lognote>
						</logginginfo>
						<labels>
							<label2>Caribbean</label2>
						</labels>
					</clipitem>
					<clipitem id="clipitem-840" premiereChannelType="mono">
						<masterclipid>masterclip-57</masterclipid>
						<name>Mira Craig_01.wav</name>
						<enabled>TRUE</enabled>
						<duration>171138</duration>
						<rate>
							<timebase>25</timebase>
							<ntsc>FALSE</ntsc>
						</rate>
						<start>16204</start>
						<end>16898</end>
						<in>83568</in>
						<out>84262</out>
						<pproTicksIn>849104363520000</pproTicksIn>
						<pproTicksOut>856155847680000</pproTicksOut>
						<file id="file-53"/>
						<sourcetrack>
							<mediatype>audio</mediatype>
							<trackindex>1</trackindex>
						</sourcetrack>
						<logginginfo>
							<description></description>
							<scene></scene>
							<shottake></shottake>
							<lognote></lognote>
						</logginginfo>
						<labels>
							<label2>Caribbean</label2>
						</labels>
					</clipitem>
					<clipitem id="clipitem-841" premiereChannelType="mono">
						<masterclipid>masterclip-57</masterclipid>
						<name>Mira Craig_01.wav</name>
						<enabled>TRUE</enabled>
						<duration>171138</duration>
						<rate>
							<timebase>25</timebase>
							<ntsc>FALSE</ntsc>
						</rate>
						<start>16898</start>
						<end>16971</end>
						<in>84282</in>
						<out>84355</out>
						<pproTicksIn>856359060480000</pproTicksIn>
						<pproTicksOut>857100787200000</pproTicksOut>
						<file id="file-53"/>
						<sourcetrack>
							<mediatype>audio</mediatype>
							<trackindex>1</trackindex>
						</sourcetrack>
						<logginginfo>
							<description></description>
							<scene></scene>
							<shottake></shottake>
							<lognote></lognote>
						</logginginfo>
						<labels>
							<label2>Caribbean</label2>
						</labels>
					</clipitem>
					<clipitem id="clipitem-842" premiereChannelType="mono">
						<masterclipid>masterclip-57</masterclipid>
						<name>Mira Craig_01.wav</name>
						<enabled>TRUE</enabled>
						<duration>171138</duration>
						<rate>
							<timebase>25</timebase>
							<ntsc>FALSE</ntsc>
						</rate>
						<start>16971</start>
						<end>17329</end>
						<in>84400</in>
						<out>84758</out>
						<pproTicksIn>857558016000000</pproTicksIn>
						<pproTicksOut>861195525120000</pproTicksOut>
						<file id="file-53"/>
						<sourcetrack>
							<mediatype>audio</mediatype>
							<trackindex>1</trackindex>
						</sourcetrack>
						<logginginfo>
							<description></description>
							<scene></scene>
							<shottake></shottake>
							<lognote></lognote>
						</logginginfo>
						<labels>
							<label2>Caribbean</label2>
						</labels>
					</clipitem>
					<clipitem id="clipitem-843" premiereChannelType="mono">
						<masterclipid>masterclip-57</masterclipid>
						<name>Mira Craig_01.wav</name>
						<enabled>TRUE</enabled>
						<duration>171138</duration>
						<rate>
							<timebase>25</timebase>
							<ntsc>FALSE</ntsc>
						</rate>
						<start>17329</start>
						<end>17417</end>
						<in>85268</in>
						<out>85356</out>
						<pproTicksIn>866377451520000</pproTicksIn>
						<pproTicksOut>867271587840000</pproTicksOut>
						<file id="file-53"/>
						<sourcetrack>
							<mediatype>audio</mediatype>
							<trackindex>1</trackindex>
						</sourcetrack>
						<logginginfo>
							<description></description>
							<scene></scene>
							<shottake></shottake>
							<lognote></lognote>
						</logginginfo>
						<labels>
							<label2>Caribbean</label2>
						</labels>
					</clipitem>
					<clipitem id="clipitem-844" premiereChannelType="mono">
						<masterclipid>masterclip-57</masterclipid>
						<name>Mira Craig_01.wav</name>
						<enabled>TRUE</enabled>
						<duration>171138</duration>
						<rate>
							<timebase>25</timebase>
							<ntsc>FALSE</ntsc>
						</rate>
						<start>17417</start>
						<end>17611</end>
						<in>85074</in>
						<out>85268</out>
						<pproTicksIn>864406287360000</pproTicksIn>
						<pproTicksOut>866377451520000</pproTicksOut>
						<file id="file-53"/>
						<sourcetrack>
							<mediatype>audio</mediatype>
							<trackindex>1</trackindex>
						</sourcetrack>
						<logginginfo>
							<description></description>
							<scene></scene>
							<shottake></shottake>
							<lognote></lognote>
						</logginginfo>
						<labels>
							<label2>Caribbean</label2>
						</labels>
					</clipitem>
					<clipitem id="clipitem-845" premiereChannelType="mono">
						<masterclipid>masterclip-57</masterclipid>
						<name>Mira Craig_01.wav</name>
						<enabled>TRUE</enabled>
						<duration>171138</duration>
						<rate>
							<timebase>25</timebase>
							<ntsc>FALSE</ntsc>
						</rate>
						<start>17611</start>
						<end>17830</end>
						<in>85560</in>
						<out>85779</out>
						<pproTicksIn>869344358400000</pproTicksIn>
						<pproTicksOut>871569538560000</pproTicksOut>
						<file id="file-53"/>
						<sourcetrack>
							<mediatype>audio</mediatype>
							<trackindex>1</trackindex>
						</sourcetrack>
						<logginginfo>
							<description></description>
							<scene></scene>
							<shottake></shottake>
							<lognote></lognote>
						</logginginfo>
						<labels>
							<label2>Caribbean</label2>
						</labels>
					</clipitem>
					<clipitem id="clipitem-846" premiereChannelType="mono">
						<masterclipid>masterclip-57</masterclipid>
						<name>Mira Craig_01.wav</name>
						<enabled>TRUE</enabled>
						<duration>171138</duration>
						<rate>
							<timebase>25</timebase>
							<ntsc>FALSE</ntsc>
						</rate>
						<start>17830</start>
						<end>17876</end>
						<in>83479</in>
						<out>83525</out>
						<pproTicksIn>848200066560000</pproTicksIn>
						<pproTicksOut>848667456000000</pproTicksOut>
						<file id="file-53"/>
						<sourcetrack>
							<mediatype>audio</mediatype>
							<trackindex>1</trackindex>
						</sourcetrack>
						<logginginfo>
							<description></description>
							<scene></scene>
							<shottake></shottake>
							<lognote></lognote>
						</logginginfo>
						<labels>
							<label2>Caribbean</label2>
						</labels>
					</clipitem>
					<clipitem id="clipitem-847" premiereChannelType="mono">
						<masterclipid>masterclip-57</masterclipid>
						<name>Mira Craig_01.wav</name>
						<enabled>TRUE</enabled>
						<duration>171138</duration>
						<rate>
							<timebase>25</timebase>
							<ntsc>FALSE</ntsc>
						</rate>
						<start>17876</start>
						<end>18012</end>
						<in>85841</in>
						<out>85977</out>
						<pproTicksIn>872199498240000</pproTicksIn>
						<pproTicksOut>873581345280000</pproTicksOut>
						<file id="file-53"/>
						<sourcetrack>
							<mediatype>audio</mediatype>
							<trackindex>1</trackindex>
						</sourcetrack>
						<logginginfo>
							<description></description>
							<scene></scene>
							<shottake></shottake>
							<lognote></lognote>
						</logginginfo>
						<labels>
							<label2>Caribbean</label2>
						</labels>
					</clipitem>
					<clipitem id="clipitem-848" premiereChannelType="mono">
						<masterclipid>masterclip-57</masterclipid>
						<name>Mira Craig_01.wav</name>
						<enabled>TRUE</enabled>
						<duration>171138</duration>
						<rate>
							<timebase>25</timebase>
							<ntsc>FALSE</ntsc>
						</rate>
						<start>18012</start>
						<end>18158</end>
						<in>116811</in>
						<out>116957</out>
						<pproTicksIn>1186874519040000</pproTicksIn>
						<pproTicksOut>1188357972480000</pproTicksOut>
						<file id="file-53"/>
						<sourcetrack>
							<mediatype>audio</mediatype>
							<trackindex>1</trackindex>
						</sourcetrack>
						<logginginfo>
							<description></description>
							<scene></scene>
							<shottake></shottake>
							<lognote></lognote>
						</logginginfo>
						<labels>
							<label2>Caribbean</label2>
						</labels>
					</clipitem>
					<clipitem id="clipitem-849" premiereChannelType="mono">
						<masterclipid>masterclip-57</masterclipid>
						<name>Mira Craig_01.wav</name>
						<enabled>TRUE</enabled>
						<duration>171138</duration>
						<rate>
							<timebase>25</timebase>
							<ntsc>FALSE</ntsc>
						</rate>
						<start>18158</start>
						<end>18332</end>
						<in>86150</in>
						<out>86324</out>
						<pproTicksIn>875339136000000</pproTicksIn>
						<pproTicksOut>877107087360000</pproTicksOut>
						<file id="file-53"/>
						<sourcetrack>
							<mediatype>audio</mediatype>
							<trackindex>1</trackindex>
						</sourcetrack>
						<logginginfo>
							<description></description>
							<scene></scene>
							<shottake></shottake>
							<lognote></lognote>
						</logginginfo>
						<labels>
							<label2>Caribbean</label2>
						</labels>
					</clipitem>
					<clipitem id="clipitem-850" premiereChannelType="mono">
						<masterclipid>masterclip-57</masterclipid>
						<name>Mira Craig_01.wav</name>
						<enabled>TRUE</enabled>
						<duration>171138</duration>
						<rate>
							<timebase>25</timebase>
							<ntsc>FALSE</ntsc>
						</rate>
						<start>18332</start>
						<end>22265</end>
						<in>87920</in>
						<out>91853</out>
						<pproTicksIn>893323468800000</pproTicksIn>
						<pproTicksOut>933285265920000</pproTicksOut>
						<file id="file-53"/>
						<sourcetrack>
							<mediatype>audio</mediatype>
							<trackindex>1</trackindex>
						</sourcetrack>
						<logginginfo>
							<description></description>
							<scene></scene>
							<shottake></shottake>
							<lognote></lognote>
						</logginginfo>
						<labels>
							<label2>Caribbean</label2>
						</labels>
					</clipitem>
					<clipitem id="clipitem-851" premiereChannelType="mono">
						<masterclipid>masterclip-57</masterclipid>
						<name>Mira Craig_01.wav</name>
						<enabled>TRUE</enabled>
						<duration>171138</duration>
						<rate>
							<timebase>25</timebase>
							<ntsc>FALSE</ntsc>
						</rate>
						<start>22265</start>
						<end>23367</end>
						<in>91952</in>
						<out>93054</out>
						<pproTicksIn>934291169280000</pproTicksIn>
						<pproTicksOut>945488194560000</pproTicksOut>
						<file id="file-53"/>
						<sourcetrack>
							<mediatype>audio</mediatype>
							<trackindex>1</trackindex>
						</sourcetrack>
						<logginginfo>
							<description></description>
							<scene></scene>
							<shottake></shottake>
							<lognote></lognote>
						</logginginfo>
						<labels>
							<label2>Caribbean</label2>
						</labels>
					</clipitem>
					<clipitem id="clipitem-852" premiereChannelType="mono">
						<masterclipid>masterclip-57</masterclipid>
						<name>Mira Craig_01.wav</name>
						<enabled>TRUE</enabled>
						<duration>171138</duration>
						<rate>
							<timebase>25</timebase>
							<ntsc>FALSE</ntsc>
						</rate>
						<start>23367</start>
						<end>23724</end>
						<in>93377</in>
						<out>93734</out>
						<pproTicksIn>948770081280000</pproTicksIn>
						<pproTicksOut>952397429760000</pproTicksOut>
						<file id="file-53"/>
						<sourcetrack>
							<mediatype>audio</mediatype>
							<trackindex>1</trackindex>
						</sourcetrack>
						<logginginfo>
							<description></description>
							<scene></scene>
							<shottake></shottake>
							<lognote></lognote>
						</logginginfo>
						<labels>
							<label2>Caribbean</label2>
						</labels>
					</clipitem>
					<clipitem id="clipitem-853" premiereChannelType="mono">
						<masterclipid>masterclip-57</masterclipid>
						<name>Mira Craig_01.wav</name>
						<enabled>TRUE</enabled>
						<duration>171138</duration>
						<rate>
							<timebase>25</timebase>
							<ntsc>FALSE</ntsc>
						</rate>
						<start>23724</start>
						<end>24114</end>
						<in>94350</in>
						<out>94740</out>
						<pproTicksIn>958656384000000</pproTicksIn>
						<pproTicksOut>962619033600000</pproTicksOut>
						<file id="file-53"/>
						<sourcetrack>
							<mediatype>audio</mediatype>
							<trackindex>1</trackindex>
						</sourcetrack>
						<logginginfo>
							<description></description>
							<scene></scene>
							<shottake></shottake>
							<lognote></lognote>
						</logginginfo>
						<labels>
							<label2>Caribbean</label2>
						</labels>
					</clipitem>
					<clipitem id="clipitem-854" premiereChannelType="mono">
						<masterclipid>masterclip-57</masterclipid>
						<name>Mira Craig_01.wav</name>
						<enabled>TRUE</enabled>
						<duration>171138</duration>
						<rate>
							<timebase>25</timebase>
							<ntsc>FALSE</ntsc>
						</rate>
						<start>24114</start>
						<end>24241</end>
						<in>94797</in>
						<out>94924</out>
						<pproTicksIn>963198190080000</pproTicksIn>
						<pproTicksOut>964488591360000</pproTicksOut>
						<file id="file-53"/>
						<sourcetrack>
							<mediatype>audio</mediatype>
							<trackindex>1</trackindex>
						</sourcetrack>
						<logginginfo>
							<description></description>
							<scene></scene>
							<shottake></shottake>
							<lognote></lognote>
						</logginginfo>
						<labels>
							<label2>Caribbean</label2>
						</labels>
					</clipitem>
					<clipitem id="clipitem-855" premiereChannelType="mono">
						<masterclipid>masterclip-57</masterclipid>
						<name>Mira Craig_01.wav</name>
						<enabled>TRUE</enabled>
						<duration>171138</duration>
						<rate>
							<timebase>25</timebase>
							<ntsc>FALSE</ntsc>
						</rate>
						<start>24241</start>
						<end>24388</end>
						<in>95094</in>
						<out>95241</out>
						<pproTicksIn>966215900160000</pproTicksIn>
						<pproTicksOut>967709514240000</pproTicksOut>
						<file id="file-53"/>
						<sourcetrack>
							<mediatype>audio</mediatype>
							<trackindex>1</trackindex>
						</sourcetrack>
						<logginginfo>
							<description></description>
							<scene></scene>
							<shottake></shottake>
							<lognote></lognote>
						</logginginfo>
						<labels>
							<label2>Caribbean</label2>
						</labels>
					</clipitem>
					<clipitem id="clipitem-856" premiereChannelType="mono">
						<masterclipid>masterclip-57</masterclipid>
						<name>Mira Craig_01.wav</name>
						<enabled>TRUE</enabled>
						<duration>171138</duration>
						<rate>
							<timebase>25</timebase>
							<ntsc>FALSE</ntsc>
						</rate>
						<start>24388</start>
						<end>24600</end>
						<in>95265</in>
						<out>95477</out>
						<pproTicksIn>967953369600000</pproTicksIn>
						<pproTicksOut>970107425280000</pproTicksOut>
						<file id="file-53"/>
						<sourcetrack>
							<mediatype>audio</mediatype>
							<trackindex>1</trackindex>
						</sourcetrack>
						<logginginfo>
							<description></description>
							<scene></scene>
							<shottake></shottake>
							<lognote></lognote>
						</logginginfo>
						<labels>
							<label2>Caribbean</label2>
						</labels>
					</clipitem>
					<clipitem id="clipitem-857" premiereChannelType="mono">
						<masterclipid>masterclip-57</masterclipid>
						<name>Mira Craig_01.wav</name>
						<enabled>TRUE</enabled>
						<duration>171138</duration>
						<rate>
							<timebase>25</timebase>
							<ntsc>FALSE</ntsc>
						</rate>
						<start>24600</start>
						<end>24872</end>
						<in>95504</in>
						<out>95776</out>
						<pproTicksIn>970381762560000</pproTicksIn>
						<pproTicksOut>973145456640000</pproTicksOut>
						<file id="file-53"/>
						<sourcetrack>
							<mediatype>audio</mediatype>
							<trackindex>1</trackindex>
						</sourcetrack>
						<logginginfo>
							<description></description>
							<scene></scene>
							<shottake></shottake>
							<lognote></lognote>
						</logginginfo>
						<labels>
							<label2>Caribbean</label2>
						</labels>
					</clipitem>
					<clipitem id="clipitem-858" premiereChannelType="mono">
						<masterclipid>masterclip-57</masterclipid>
						<name>Mira Craig_01.wav</name>
						<enabled>TRUE</enabled>
						<duration>171138</duration>
						<rate>
							<timebase>25</timebase>
							<ntsc>FALSE</ntsc>
						</rate>
						<start>24872</start>
						<end>26291</end>
						<in>95789</in>
						<out>97208</out>
						<pproTicksIn>973277544960000</pproTicksIn>
						<pproTicksOut>987695493120000</pproTicksOut>
						<file id="file-53"/>
						<sourcetrack>
							<mediatype>audio</mediatype>
							<trackindex>1</trackindex>
						</sourcetrack>
						<logginginfo>
							<description></description>
							<scene></scene>
							<shottake></shottake>
							<lognote></lognote>
						</logginginfo>
						<labels>
							<label2>Caribbean</label2>
						</labels>
					</clipitem>
					<clipitem id="clipitem-859" premiereChannelType="mono">
						<masterclipid>masterclip-57</masterclipid>
						<name>Mira Craig_01.wav</name>
						<enabled>TRUE</enabled>
						<duration>171138</duration>
						<rate>
							<timebase>25</timebase>
							<ntsc>FALSE</ntsc>
						</rate>
						<start>26291</start>
						<end>26387</end>
						<in>97273</in>
						<out>97369</out>
						<pproTicksIn>988355934720000</pproTicksIn>
						<pproTicksOut>989331356160000</pproTicksOut>
						<file id="file-53"/>
						<sourcetrack>
							<mediatype>audio</mediatype>
							<trackindex>1</trackindex>
						</sourcetrack>
						<logginginfo>
							<description></description>
							<scene></scene>
							<shottake></shottake>
							<lognote></lognote>
						</logginginfo>
						<labels>
							<label2>Caribbean</label2>
						</labels>
					</clipitem>
					<clipitem id="clipitem-860" premiereChannelType="mono">
						<masterclipid>masterclip-57</masterclipid>
						<name>Mira Craig_01.wav</name>
						<enabled>TRUE</enabled>
						<duration>171138</duration>
						<rate>
							<timebase>25</timebase>
							<ntsc>FALSE</ntsc>
						</rate>
						<start>26387</start>
						<end>27111</end>
						<in>97523</in>
						<out>98247</out>
						<pproTicksIn>990896094720000</pproTicksIn>
						<pproTicksOut>998252398080000</pproTicksOut>
						<file id="file-53"/>
						<sourcetrack>
							<mediatype>audio</mediatype>
							<trackindex>1</trackindex>
						</sourcetrack>
						<logginginfo>
							<description></description>
							<scene></scene>
							<shottake></shottake>
							<lognote></lognote>
						</logginginfo>
						<labels>
							<label2>Caribbean</label2>
						</labels>
					</clipitem>
					<clipitem id="clipitem-861" premiereChannelType="mono">
						<masterclipid>masterclip-57</masterclipid>
						<name>Mira Craig_01.wav</name>
						<enabled>TRUE</enabled>
						<duration>171138</duration>
						<rate>
							<timebase>25</timebase>
							<ntsc>FALSE</ntsc>
						</rate>
						<start>27111</start>
						<end>27316</end>
						<in>98260</in>
						<out>98465</out>
						<pproTicksIn>998384486400000</pproTicksIn>
						<pproTicksOut>1000467417600000</pproTicksOut>
						<file id="file-53"/>
						<sourcetrack>
							<mediatype>audio</mediatype>
							<trackindex>1</trackindex>
						</sourcetrack>
						<logginginfo>
							<description></description>
							<scene></scene>
							<shottake></shottake>
							<lognote></lognote>
						</logginginfo>
						<labels>
							<label2>Caribbean</label2>
						</labels>
					</clipitem>
					<clipitem id="clipitem-862" premiereChannelType="mono">
						<masterclipid>masterclip-57</masterclipid>
						<name>Mira Craig_01.wav</name>
						<enabled>TRUE</enabled>
						<duration>171138</duration>
						<rate>
							<timebase>25</timebase>
							<ntsc>FALSE</ntsc>
						</rate>
						<start>27316</start>
						<end>27702</end>
						<in>98958</in>
						<out>99344</out>
						<pproTicksIn>1005476613120000</pproTicksIn>
						<pproTicksOut>1009398620160000</pproTicksOut>
						<file id="file-53"/>
						<sourcetrack>
							<mediatype>audio</mediatype>
							<trackindex>1</trackindex>
						</sourcetrack>
						<logginginfo>
							<description></description>
							<scene></scene>
							<shottake></shottake>
							<lognote></lognote>
						</logginginfo>
						<labels>
							<label2>Caribbean</label2>
						</labels>
					</clipitem>
					<clipitem id="clipitem-863" premiereChannelType="mono">
						<masterclipid>masterclip-57</masterclipid>
						<name>Mira Craig_01.wav</name>
						<enabled>TRUE</enabled>
						<duration>171138</duration>
						<rate>
							<timebase>25</timebase>
							<ntsc>FALSE</ntsc>
						</rate>
						<start>27702</start>
						<end>27789</end>
						<in>99640</in>
						<out>99727</out>
						<pproTicksIn>1012406169600000</pproTicksIn>
						<pproTicksOut>1013290145280000</pproTicksOut>
						<file id="file-53"/>
						<sourcetrack>
							<mediatype>audio</mediatype>
							<trackindex>1</trackindex>
						</sourcetrack>
						<logginginfo>
							<description></description>
							<scene></scene>
							<shottake></shottake>
							<lognote></lognote>
						</logginginfo>
						<labels>
							<label2>Caribbean</label2>
						</labels>
					</clipitem>
					<clipitem id="clipitem-864" premiereChannelType="mono">
						<masterclipid>masterclip-57</masterclipid>
						<name>Mira Craig_01.wav</name>
						<enabled>TRUE</enabled>
						<duration>171138</duration>
						<rate>
							<timebase>25</timebase>
							<ntsc>FALSE</ntsc>
						</rate>
						<start>27789</start>
						<end>29601</end>
						<in>99831</in>
						<out>101643</out>
						<pproTicksIn>1014346851840000</pproTicksIn>
						<pproTicksOut>1032757931520000</pproTicksOut>
						<file id="file-53"/>
						<sourcetrack>
							<mediatype>audio</mediatype>
							<trackindex>1</trackindex>
						</sourcetrack>
						<logginginfo>
							<description></description>
							<scene></scene>
							<shottake></shottake>
							<lognote></lognote>
						</logginginfo>
						<labels>
							<label2>Caribbean</label2>
						</labels>
					</clipitem>
					<clipitem id="clipitem-865" premiereChannelType="mono">
						<masterclipid>masterclip-57</masterclipid>
						<name>Mira Craig_01.wav</name>
						<enabled>TRUE</enabled>
						<duration>171138</duration>
						<rate>
							<timebase>25</timebase>
							<ntsc>FALSE</ntsc>
						</rate>
						<start>29601</start>
						<end>29693</end>
						<in>102540</in>
						<out>102632</out>
						<pproTicksIn>1041872025600000</pproTicksIn>
						<pproTicksOut>1042806804480000</pproTicksOut>
						<file id="file-53"/>
						<sourcetrack>
							<mediatype>audio</mediatype>
							<trackindex>1</trackindex>
						</sourcetrack>
						<logginginfo>
							<description></description>
							<scene></scene>
							<shottake></shottake>
							<lognote></lognote>
						</logginginfo>
						<labels>
							<label2>Caribbean</label2>
						</labels>
					</clipitem>
					<clipitem id="clipitem-866" premiereChannelType="mono">
						<masterclipid>masterclip-57</masterclipid>
						<name>Mira Craig_01.wav</name>
						<enabled>TRUE</enabled>
						<duration>171138</duration>
						<rate>
							<timebase>25</timebase>
							<ntsc>FALSE</ntsc>
						</rate>
						<start>29693</start>
						<end>29760</end>
						<in>103317</in>
						<out>103384</out>
						<pproTicksIn>1049766842880000</pproTicksIn>
						<pproTicksOut>1050447605760000</pproTicksOut>
						<file id="file-53"/>
						<sourcetrack>
							<mediatype>audio</mediatype>
							<trackindex>1</trackindex>
						</sourcetrack>
						<logginginfo>
							<description></description>
							<scene></scene>
							<shottake></shottake>
							<lognote></lognote>
						</logginginfo>
						<labels>
							<label2>Caribbean</label2>
						</labels>
					</clipitem>
					<clipitem id="clipitem-867" premiereChannelType="mono">
						<masterclipid>masterclip-57</masterclipid>
						<name>Mira Craig_01.wav</name>
						<enabled>TRUE</enabled>
						<duration>171138</duration>
						<rate>
							<timebase>25</timebase>
							<ntsc>FALSE</ntsc>
						</rate>
						<start>29760</start>
						<end>29774</end>
						<in>103438</in>
						<out>103452</out>
						<pproTicksIn>1050996280320000</pproTicksIn>
						<pproTicksOut>1051138529280000</pproTicksOut>
						<file id="file-53"/>
						<sourcetrack>
							<mediatype>audio</mediatype>
							<trackindex>1</trackindex>
						</sourcetrack>
						<logginginfo>
							<description></description>
							<scene></scene>
							<shottake></shottake>
							<lognote></lognote>
						</logginginfo>
						<labels>
							<label2>Caribbean</label2>
						</labels>
					</clipitem>
					<clipitem id="clipitem-868" premiereChannelType="mono">
						<masterclipid>masterclip-57</masterclipid>
						<name>Mira Craig_01.wav</name>
						<enabled>TRUE</enabled>
						<duration>171138</duration>
						<rate>
							<timebase>25</timebase>
							<ntsc>FALSE</ntsc>
						</rate>
						<start>29774</start>
						<end>29865</end>
						<in>107326</in>
						<out>107417</out>
						<pproTicksIn>1090500848640000</pproTicksIn>
						<pproTicksOut>1091425466880000</pproTicksOut>
						<file id="file-53"/>
						<sourcetrack>
							<mediatype>audio</mediatype>
							<trackindex>1</trackindex>
						</sourcetrack>
						<logginginfo>
							<description></description>
							<scene></scene>
							<shottake></shottake>
							<lognote></lognote>
						</logginginfo>
						<labels>
							<label2>Caribbean</label2>
						</labels>
					</clipitem>
					<clipitem id="clipitem-869" premiereChannelType="mono">
						<masterclipid>masterclip-57</masterclipid>
						<name>Mira Craig_01.wav</name>
						<enabled>TRUE</enabled>
						<duration>171138</duration>
						<rate>
							<timebase>25</timebase>
							<ntsc>FALSE</ntsc>
						</rate>
						<start>29865</start>
						<end>30769</end>
						<in>107708</in>
						<out>108612</out>
						<pproTicksIn>1094382213120000</pproTicksIn>
						<pproTicksOut>1103567431680000</pproTicksOut>
						<file id="file-53"/>
						<sourcetrack>
							<mediatype>audio</mediatype>
							<trackindex>1</trackindex>
						</sourcetrack>
						<logginginfo>
							<description></description>
							<scene></scene>
							<shottake></shottake>
							<lognote></lognote>
						</logginginfo>
						<labels>
							<label2>Caribbean</label2>
						</labels>
					</clipitem>
					<clipitem id="clipitem-870" premiereChannelType="mono">
						<masterclipid>masterclip-57</masterclipid>
						<name>Mira Craig_01.wav</name>
						<enabled>TRUE</enabled>
						<duration>171138</duration>
						<rate>
							<timebase>25</timebase>
							<ntsc>FALSE</ntsc>
						</rate>
						<start>30769</start>
						<end>30880</end>
						<in>108644</in>
						<out>108755</out>
						<pproTicksIn>1103892572160000</pproTicksIn>
						<pproTicksOut>1105020403200000</pproTicksOut>
						<file id="file-53"/>
						<sourcetrack>
							<mediatype>audio</mediatype>
							<trackindex>1</trackindex>
						</sourcetrack>
						<logginginfo>
							<description></description>
							<scene></scene>
							<shottake></shottake>
							<lognote></lognote>
						</logginginfo>
						<labels>
							<label2>Caribbean</label2>
						</labels>
					</clipitem>
					<clipitem id="clipitem-871" premiereChannelType="mono">
						<masterclipid>masterclip-57</masterclipid>
						<name>Mira Craig_01.wav</name>
						<enabled>TRUE</enabled>
						<duration>171138</duration>
						<rate>
							<timebase>25</timebase>
							<ntsc>FALSE</ntsc>
						</rate>
						<start>30880</start>
						<end>31513</end>
						<in>108776</in>
						<out>109409</out>
						<pproTicksIn>1105233776640000</pproTicksIn>
						<pproTicksOut>1111665461760000</pproTicksOut>
						<file id="file-53"/>
						<sourcetrack>
							<mediatype>audio</mediatype>
							<trackindex>1</trackindex>
						</sourcetrack>
						<logginginfo>
							<description></description>
							<scene></scene>
							<shottake></shottake>
							<lognote></lognote>
						</logginginfo>
						<labels>
							<label2>Caribbean</label2>
						</labels>
					</clipitem>
					<clipitem id="clipitem-872" premiereChannelType="mono">
						<masterclipid>masterclip-57</masterclipid>
						<name>Mira Craig_01.wav</name>
						<enabled>TRUE</enabled>
						<duration>171138</duration>
						<rate>
							<timebase>25</timebase>
							<ntsc>FALSE</ntsc>
						</rate>
						<start>31513</start>
						<end>31909</end>
						<in>109447</in>
						<out>109843</out>
						<pproTicksIn>1112051566080000</pproTicksIn>
						<pproTicksOut>1116075179520000</pproTicksOut>
						<file id="file-53"/>
						<sourcetrack>
							<mediatype>audio</mediatype>
							<trackindex>1</trackindex>
						</sourcetrack>
						<logginginfo>
							<description></description>
							<scene></scene>
							<shottake></shottake>
							<lognote></lognote>
						</logginginfo>
						<labels>
							<label2>Caribbean</label2>
						</labels>
					</clipitem>
					<clipitem id="clipitem-873" premiereChannelType="mono">
						<masterclipid>masterclip-57</masterclipid>
						<name>Mira Craig_01.wav</name>
						<enabled>TRUE</enabled>
						<duration>171138</duration>
						<rate>
							<timebase>25</timebase>
							<ntsc>FALSE</ntsc>
						</rate>
						<start>31909</start>
						<end>32128</end>
						<in>109926</in>
						<out>110145</out>
						<pproTicksIn>1116918512640000</pproTicksIn>
						<pproTicksOut>1119143692800000</pproTicksOut>
						<file id="file-53"/>
						<sourcetrack>
							<mediatype>audio</mediatype>
							<trackindex>1</trackindex>
						</sourcetrack>
						<logginginfo>
							<description></description>
							<scene></scene>
							<shottake></shottake>
							<lognote></lognote>
						</logginginfo>
						<labels>
							<label2>Caribbean</label2>
						</labels>
					</clipitem>
					<clipitem id="clipitem-874" premiereChannelType="mono">
						<masterclipid>masterclip-57</masterclipid>
						<name>Mira Craig_01.wav</name>
						<enabled>TRUE</enabled>
						<duration>171138</duration>
						<rate>
							<timebase>25</timebase>
							<ntsc>FALSE</ntsc>
						</rate>
						<start>32128</start>
						<end>32853</end>
						<in>111277</in>
						<out>112002</out>
						<pproTicksIn>1130645537280000</pproTicksIn>
						<pproTicksOut>1138012001280000</pproTicksOut>
						<file id="file-53"/>
						<sourcetrack>
							<mediatype>audio</mediatype>
							<trackindex>1</trackindex>
						</sourcetrack>
						<logginginfo>
							<description></description>
							<scene></scene>
							<shottake></shottake>
							<lognote></lognote>
						</logginginfo>
						<labels>
							<label2>Caribbean</label2>
						</labels>
					</clipitem>
					<clipitem id="clipitem-875" premiereChannelType="mono">
						<masterclipid>masterclip-57</masterclipid>
						<name>Mira Craig_01.wav</name>
						<enabled>TRUE</enabled>
						<duration>171138</duration>
						<rate>
							<timebase>25</timebase>
							<ntsc>FALSE</ntsc>
						</rate>
						<start>32853</start>
						<end>32890</end>
						<in>112002</in>
						<out>112039</out>
						<pproTicksIn>1138012001280000</pproTicksIn>
						<pproTicksOut>1138387944960000</pproTicksOut>
						<file id="file-53"/>
						<sourcetrack>
							<mediatype>audio</mediatype>
							<trackindex>1</trackindex>
						</sourcetrack>
						<logginginfo>
							<description></description>
							<scene></scene>
							<shottake></shottake>
							<lognote></lognote>
						</logginginfo>
						<labels>
							<label2>Caribbean</label2>
						</labels>
					</clipitem>
					<clipitem id="clipitem-876" premiereChannelType="mono">
						<masterclipid>masterclip-57</masterclipid>
						<name>Mira Craig_01.wav</name>
						<enabled>TRUE</enabled>
						<duration>171138</duration>
						<rate>
							<timebase>25</timebase>
							<ntsc>FALSE</ntsc>
						</rate>
						<start>32890</start>
						<end>33281</end>
						<in>115277</in>
						<out>115668</out>
						<pproTicksIn>1171288097280000</pproTicksIn>
						<pproTicksOut>1175260907520000</pproTicksOut>
						<file id="file-53"/>
						<sourcetrack>
							<mediatype>audio</mediatype>
							<trackindex>1</trackindex>
						</sourcetrack>
						<logginginfo>
							<description></description>
							<scene></scene>
							<shottake></shottake>
							<lognote></lognote>
						</logginginfo>
						<labels>
							<label2>Caribbean</label2>
						</labels>
					</clipitem>
					<clipitem id="clipitem-877" premiereChannelType="mono">
						<masterclipid>masterclip-57</masterclipid>
						<name>Mira Craig_01.wav</name>
						<enabled>TRUE</enabled>
						<duration>171138</duration>
						<rate>
							<timebase>25</timebase>
							<ntsc>FALSE</ntsc>
						</rate>
						<start>33281</start>
						<end>33357</end>
						<in>116203</in>
						<out>116279</out>
						<pproTicksIn>1180696849920000</pproTicksIn>
						<pproTicksOut>1181469058560000</pproTicksOut>
						<file id="file-53"/>
						<sourcetrack>
							<mediatype>audio</mediatype>
							<trackindex>1</trackindex>
						</sourcetrack>
						<logginginfo>
							<description></description>
							<scene></scene>
							<shottake></shottake>
							<lognote></lognote>
						</logginginfo>
						<labels>
							<label2>Caribbean</label2>
						</labels>
					</clipitem>
					<clipitem id="clipitem-878" premiereChannelType="mono">
						<masterclipid>masterclip-57</masterclipid>
						<name>Mira Craig_01.wav</name>
						<enabled>TRUE</enabled>
						<duration>171138</duration>
						<rate>
							<timebase>25</timebase>
							<ntsc>FALSE</ntsc>
						</rate>
						<start>33357</start>
						<end>33465</end>
						<in>116298</in>
						<out>116406</out>
						<pproTicksIn>1181662110720000</pproTicksIn>
						<pproTicksOut>1182759459840000</pproTicksOut>
						<file id="file-53"/>
						<sourcetrack>
							<mediatype>audio</mediatype>
							<trackindex>1</trackindex>
						</sourcetrack>
						<logginginfo>
							<description></description>
							<scene></scene>
							<shottake></shottake>
							<lognote></lognote>
						</logginginfo>
						<labels>
							<label2>Caribbean</label2>
						</labels>
					</clipitem>
					<clipitem id="clipitem-879" premiereChannelType="mono">
						<masterclipid>masterclip-57</masterclipid>
						<name>Mira Craig_01.wav</name>
						<enabled>TRUE</enabled>
						<duration>171138</duration>
						<rate>
							<timebase>25</timebase>
							<ntsc>FALSE</ntsc>
						</rate>
						<start>33465</start>
						<end>33766</end>
						<in>116510</in>
						<out>116811</out>
						<pproTicksIn>1183816166400000</pproTicksIn>
						<pproTicksOut>1186874519040000</pproTicksOut>
						<file id="file-53"/>
						<sourcetrack>
							<mediatype>audio</mediatype>
							<trackindex>1</trackindex>
						</sourcetrack>
						<logginginfo>
							<description></description>
							<scene></scene>
							<shottake></shottake>
							<lognote></lognote>
						</logginginfo>
						<labels>
							<label2>Caribbean</label2>
						</labels>
					</clipitem>
					<clipitem id="clipitem-880" premiereChannelType="mono">
						<masterclipid>masterclip-57</masterclipid>
						<name>Mira Craig_01.wav</name>
						<enabled>TRUE</enabled>
						<duration>171138</duration>
						<rate>
							<timebase>25</timebase>
							<ntsc>FALSE</ntsc>
						</rate>
						<start>33766</start>
						<end>33992</end>
						<in>116811</in>
						<out>117037</out>
						<pproTicksIn>1186874519040000</pproTicksIn>
						<pproTicksOut>1189170823680000</pproTicksOut>
						<file id="file-53"/>
						<sourcetrack>
							<mediatype>audio</mediatype>
							<trackindex>1</trackindex>
						</sourcetrack>
						<logginginfo>
							<description></description>
							<scene></scene>
							<shottake></shottake>
							<lognote></lognote>
						</logginginfo>
						<labels>
							<label2>Caribbean</label2>
						</labels>
					</clipitem>
					<clipitem id="clipitem-881" premiereChannelType="mono">
						<masterclipid>masterclip-57</masterclipid>
						<name>Mira Craig_01.wav</name>
						<enabled>TRUE</enabled>
						<duration>171138</duration>
						<rate>
							<timebase>25</timebase>
							<ntsc>FALSE</ntsc>
						</rate>
						<start>33992</start>
						<end>34035</end>
						<in>117226</in>
						<out>117269</out>
						<pproTicksIn>1191091184640000</pproTicksIn>
						<pproTicksOut>1191528092160000</pproTicksOut>
						<file id="file-53"/>
						<sourcetrack>
							<mediatype>audio</mediatype>
							<trackindex>1</trackindex>
						</sourcetrack>
						<logginginfo>
							<description></description>
							<scene></scene>
							<shottake></shottake>
							<lognote></lognote>
						</logginginfo>
						<labels>
							<label2>Caribbean</label2>
						</labels>
					</clipitem>
					<clipitem id="clipitem-882" premiereChannelType="mono">
						<masterclipid>masterclip-57</masterclipid>
						<name>Mira Craig_01.wav</name>
						<enabled>TRUE</enabled>
						<duration>171138</duration>
						<rate>
							<timebase>25</timebase>
							<ntsc>FALSE</ntsc>
						</rate>
						<start>34035</start>
						<end>34790</end>
						<in>117633</in>
						<out>118388</out>
						<pproTicksIn>1195226565120000</pproTicksIn>
						<pproTicksOut>1202897848320000</pproTicksOut>
						<file id="file-53"/>
						<sourcetrack>
							<mediatype>audio</mediatype>
							<trackindex>1</trackindex>
						</sourcetrack>
						<logginginfo>
							<description></description>
							<scene></scene>
							<shottake></shottake>
							<lognote></lognote>
						</logginginfo>
						<labels>
							<label2>Caribbean</label2>
						</labels>
					</clipitem>
					<clipitem id="clipitem-883" premiereChannelType="mono">
						<masterclipid>masterclip-57</masterclipid>
						<name>Mira Craig_01.wav</name>
						<enabled>TRUE</enabled>
						<duration>171138</duration>
						<rate>
							<timebase>25</timebase>
							<ntsc>FALSE</ntsc>
						</rate>
						<start>34790</start>
						<end>35299</end>
						<in>118612</in>
						<out>119121</out>
						<pproTicksIn>1205173831680000</pproTicksIn>
						<pproTicksOut>1210345597440000</pproTicksOut>
						<file id="file-53"/>
						<sourcetrack>
							<mediatype>audio</mediatype>
							<trackindex>1</trackindex>
						</sourcetrack>
						<logginginfo>
							<description></description>
							<scene></scene>
							<shottake></shottake>
							<lognote></lognote>
						</logginginfo>
						<labels>
							<label2>Caribbean</label2>
						</labels>
					</clipitem>
					<clipitem id="clipitem-884" premiereChannelType="mono">
						<masterclipid>masterclip-57</masterclipid>
						<name>Mira Craig_01.wav</name>
						<enabled>TRUE</enabled>
						<duration>171138</duration>
						<rate>
							<timebase>25</timebase>
							<ntsc>FALSE</ntsc>
						</rate>
						<start>35299</start>
						<end>35672</end>
						<in>119201</in>
						<out>119574</out>
						<pproTicksIn>1211158448640000</pproTicksIn>
						<pproTicksOut>1214948367360000</pproTicksOut>
						<file id="file-53"/>
						<sourcetrack>
							<mediatype>audio</mediatype>
							<trackindex>1</trackindex>
						</sourcetrack>
						<logginginfo>
							<description></description>
							<scene></scene>
							<shottake></shottake>
							<lognote></lognote>
						</logginginfo>
						<labels>
							<label2>Caribbean</label2>
						</labels>
					</clipitem>
					<clipitem id="clipitem-885" premiereChannelType="mono">
						<masterclipid>masterclip-57</masterclipid>
						<name>Mira Craig_01.wav</name>
						<enabled>TRUE</enabled>
						<duration>171138</duration>
						<rate>
							<timebase>25</timebase>
							<ntsc>FALSE</ntsc>
						</rate>
						<start>35672</start>
						<end>36434</end>
						<in>119583</in>
						<out>120345</out>
						<pproTicksIn>1215039813120000</pproTicksIn>
						<pproTicksOut>1222782220800000</pproTicksOut>
						<file id="file-53"/>
						<sourcetrack>
							<mediatype>audio</mediatype>
							<trackindex>1</trackindex>
						</sourcetrack>
						<logginginfo>
							<description></description>
							<scene></scene>
							<shottake></shottake>
							<lognote></lognote>
						</logginginfo>
						<labels>
							<label2>Caribbean</label2>
						</labels>
					</clipitem>
					<clipitem id="clipitem-886" premiereChannelType="mono">
						<masterclipid>masterclip-57</masterclipid>
						<name>Mira Craig_01.wav</name>
						<enabled>TRUE</enabled>
						<duration>171138</duration>
						<rate>
							<timebase>25</timebase>
							<ntsc>FALSE</ntsc>
						</rate>
						<start>36434</start>
						<end>36524</end>
						<in>120539</in>
						<out>120629</out>
						<pproTicksIn>1224753384960000</pproTicksIn>
						<pproTicksOut>1225667842560000</pproTicksOut>
						<file id="file-53"/>
						<sourcetrack>
							<mediatype>audio</mediatype>
							<trackindex>1</trackindex>
						</sourcetrack>
						<logginginfo>
							<description></description>
							<scene></scene>
							<shottake></shottake>
							<lognote></lognote>
						</logginginfo>
						<labels>
							<label2>Caribbean</label2>
						</labels>
					</clipitem>
					<clipitem id="clipitem-887" premiereChannelType="mono">
						<masterclipid>masterclip-57</masterclipid>
						<name>Mira Craig_01.wav</name>
						<enabled>TRUE</enabled>
						<duration>171138</duration>
						<rate>
							<timebase>25</timebase>
							<ntsc>FALSE</ntsc>
						</rate>
						<start>36524</start>
						<end>37155</end>
						<in>124899</in>
						<out>125530</out>
						<pproTicksIn>1269053775360000</pproTicksIn>
						<pproTicksOut>1275465139200000</pproTicksOut>
						<file id="file-53"/>
						<sourcetrack>
							<mediatype>audio</mediatype>
							<trackindex>1</trackindex>
						</sourcetrack>
						<logginginfo>
							<description></description>
							<scene></scene>
							<shottake></shottake>
							<lognote></lognote>
						</logginginfo>
						<labels>
							<label2>Caribbean</label2>
						</labels>
					</clipitem>
					<clipitem id="clipitem-888" premiereChannelType="mono">
						<masterclipid>masterclip-57</masterclipid>
						<name>Mira Craig_01.wav</name>
						<enabled>TRUE</enabled>
						<duration>171138</duration>
						<rate>
							<timebase>25</timebase>
							<ntsc>FALSE</ntsc>
						</rate>
						<start>37732</start>
						<end>40503</end>
						<in>126107</in>
						<out>128878</out>
						<pproTicksIn>1281327828480000</pproTicksIn>
						<pproTicksOut>1309482961920000</pproTicksOut>
						<file id="file-53"/>
						<sourcetrack>
							<mediatype>audio</mediatype>
							<trackindex>1</trackindex>
						</sourcetrack>
						<logginginfo>
							<description></description>
							<scene></scene>
							<shottake></shottake>
							<lognote></lognote>
						</logginginfo>
						<labels>
							<label2>Caribbean</label2>
						</labels>
					</clipitem>
					<clipitem id="clipitem-889" premiereChannelType="mono">
						<masterclipid>masterclip-57</masterclipid>
						<name>Mira Craig_01.wav</name>
						<enabled>TRUE</enabled>
						<duration>171138</duration>
						<rate>
							<timebase>25</timebase>
							<ntsc>FALSE</ntsc>
						</rate>
						<start>40503</start>
						<end>40839</end>
						<in>128926</in>
						<out>129262</out>
						<pproTicksIn>1309970672640000</pproTicksIn>
						<pproTicksOut>1313384647680000</pproTicksOut>
						<file id="file-53"/>
						<sourcetrack>
							<mediatype>audio</mediatype>
							<trackindex>1</trackindex>
						</sourcetrack>
						<logginginfo>
							<description></description>
							<scene></scene>
							<shottake></shottake>
							<lognote></lognote>
						</logginginfo>
						<labels>
							<label2>Caribbean</label2>
						</labels>
					</clipitem>
					<clipitem id="clipitem-890" premiereChannelType="mono">
						<masterclipid>masterclip-57</masterclipid>
						<name>Mira Craig_01.wav</name>
						<enabled>TRUE</enabled>
						<duration>171138</duration>
						<rate>
							<timebase>25</timebase>
							<ntsc>FALSE</ntsc>
						</rate>
						<start>40839</start>
						<end>41006</end>
						<in>129262</in>
						<out>129429</out>
						<pproTicksIn>1313384647680000</pproTicksIn>
						<pproTicksOut>1315081474560000</pproTicksOut>
						<file id="file-53"/>
						<sourcetrack>
							<mediatype>audio</mediatype>
							<trackindex>1</trackindex>
						</sourcetrack>
						<logginginfo>
							<description></description>
							<scene></scene>
							<shottake></shottake>
							<lognote></lognote>
						</logginginfo>
						<labels>
							<label2>Caribbean</label2>
						</labels>
					</clipitem>
					<clipitem id="clipitem-891" premiereChannelType="mono">
						<masterclipid>masterclip-57</masterclipid>
						<name>Mira Craig_01.wav</name>
						<enabled>TRUE</enabled>
						<duration>171138</duration>
						<rate>
							<timebase>25</timebase>
							<ntsc>FALSE</ntsc>
						</rate>
						<start>41006</start>
						<end>41144</end>
						<in>129476</in>
						<out>129614</out>
						<pproTicksIn>1315559024640000</pproTicksIn>
						<pproTicksOut>1316961192960000</pproTicksOut>
						<file id="file-53"/>
						<sourcetrack>
							<mediatype>audio</mediatype>
							<trackindex>1</trackindex>
						</sourcetrack>
						<logginginfo>
							<description></description>
							<scene></scene>
							<shottake></shottake>
							<lognote></lognote>
						</logginginfo>
						<labels>
							<label2>Caribbean</label2>
						</labels>
					</clipitem>
					<clipitem id="clipitem-892" premiereChannelType="mono">
						<masterclipid>masterclip-57</masterclipid>
						<name>Mira Craig_01.wav</name>
						<enabled>TRUE</enabled>
						<duration>171138</duration>
						<rate>
							<timebase>25</timebase>
							<ntsc>FALSE</ntsc>
						</rate>
						<start>41144</start>
						<end>41720</end>
						<in>131417</in>
						<out>131993</out>
						<pproTicksIn>1335280826880000</pproTicksIn>
						<pproTicksOut>1341133355520000</pproTicksOut>
						<file id="file-53"/>
						<sourcetrack>
							<mediatype>audio</mediatype>
							<trackindex>1</trackindex>
						</sourcetrack>
						<logginginfo>
							<description></description>
							<scene></scene>
							<shottake></shottake>
							<lognote></lognote>
						</logginginfo>
						<labels>
							<label2>Caribbean</label2>
						</labels>
					</clipitem>
					<clipitem id="clipitem-893" premiereChannelType="mono">
						<masterclipid>masterclip-57</masterclipid>
						<name>Mira Craig_01.wav</name>
						<enabled>TRUE</enabled>
						<duration>171138</duration>
						<rate>
							<timebase>25</timebase>
							<ntsc>FALSE</ntsc>
						</rate>
						<start>41720</start>
						<end>42122</end>
						<in>132051</in>
						<out>132453</out>
						<pproTicksIn>1341722672640000</pproTicksIn>
						<pproTicksOut>1345807249920000</pproTicksOut>
						<file id="file-53"/>
						<sourcetrack>
							<mediatype>audio</mediatype>
							<trackindex>1</trackindex>
						</sourcetrack>
						<logginginfo>
							<description></description>
							<scene></scene>
							<shottake></shottake>
							<lognote></lognote>
						</logginginfo>
						<labels>
							<label2>Caribbean</label2>
						</labels>
					</clipitem>
					<clipitem id="clipitem-894" premiereChannelType="mono">
						<masterclipid>masterclip-57</masterclipid>
						<name>Mira Craig_01.wav</name>
						<enabled>TRUE</enabled>
						<duration>171138</duration>
						<rate>
							<timebase>25</timebase>
							<ntsc>FALSE</ntsc>
						</rate>
						<start>42122</start>
						<end>42277</end>
						<in>132657</in>
						<out>132812</out>
						<pproTicksIn>1347880020480000</pproTicksIn>
						<pproTicksOut>1349454919680000</pproTicksOut>
						<file id="file-53"/>
						<sourcetrack>
							<mediatype>audio</mediatype>
							<trackindex>1</trackindex>
						</sourcetrack>
						<logginginfo>
							<description></description>
							<scene></scene>
							<shottake></shottake>
							<lognote></lognote>
						</logginginfo>
						<labels>
							<label2>Caribbean</label2>
						</labels>
					</clipitem>
					<clipitem id="clipitem-895" premiereChannelType="mono">
						<masterclipid>masterclip-57</masterclipid>
						<name>Mira Craig_01.wav</name>
						<enabled>TRUE</enabled>
						<duration>171138</duration>
						<rate>
							<timebase>25</timebase>
							<ntsc>FALSE</ntsc>
						</rate>
						<start>42277</start>
						<end>42347</end>
						<in>133359</in>
						<out>133429</out>
						<pproTicksIn>1355012789760000</pproTicksIn>
						<pproTicksOut>1355724034560000</pproTicksOut>
						<file id="file-53"/>
						<sourcetrack>
							<mediatype>audio</mediatype>
							<trackindex>1</trackindex>
						</sourcetrack>
						<logginginfo>
							<description></description>
							<scene></scene>
							<shottake></shottake>
							<lognote></lognote>
						</logginginfo>
						<labels>
							<label2>Caribbean</label2>
						</labels>
					</clipitem>
					<clipitem id="clipitem-896" premiereChannelType="mono">
						<masterclipid>masterclip-57</masterclipid>
						<name>Mira Craig_01.wav</name>
						<enabled>TRUE</enabled>
						<duration>171138</duration>
						<rate>
							<timebase>25</timebase>
							<ntsc>FALSE</ntsc>
						</rate>
						<start>42347</start>
						<end>42499</end>
						<in>133852</in>
						<out>134004</out>
						<pproTicksIn>1360021985280000</pproTicksIn>
						<pproTicksOut>1361566402560000</pproTicksOut>
						<file id="file-53"/>
						<sourcetrack>
							<mediatype>audio</mediatype>
							<trackindex>1</trackindex>
						</sourcetrack>
						<logginginfo>
							<description></description>
							<scene></scene>
							<shottake></shottake>
							<lognote></lognote>
						</logginginfo>
						<labels>
							<label2>Caribbean</label2>
						</labels>
					</clipitem>
					<clipitem id="clipitem-897" premiereChannelType="mono">
						<masterclipid>masterclip-57</masterclipid>
						<name>Mira Craig_01.wav</name>
						<enabled>TRUE</enabled>
						<duration>171138</duration>
						<rate>
							<timebase>25</timebase>
							<ntsc>FALSE</ntsc>
						</rate>
						<start>42499</start>
						<end>42832</end>
						<in>134099</in>
						<out>134432</out>
						<pproTicksIn>1362531663360000</pproTicksIn>
						<pproTicksOut>1365915156480000</pproTicksOut>
						<file id="file-53"/>
						<sourcetrack>
							<mediatype>audio</mediatype>
							<trackindex>1</trackindex>
						</sourcetrack>
						<logginginfo>
							<description></description>
							<scene></scene>
							<shottake></shottake>
							<lognote></lognote>
						</logginginfo>
						<labels>
							<label2>Caribbean</label2>
						</labels>
					</clipitem>
					<clipitem id="clipitem-898" premiereChannelType="mono">
						<masterclipid>masterclip-57</masterclipid>
						<name>Mira Craig_01.wav</name>
						<enabled>TRUE</enabled>
						<duration>171138</duration>
						<rate>
							<timebase>25</timebase>
							<ntsc>FALSE</ntsc>
						</rate>
						<start>42832</start>
						<end>43282</end>
						<in>134992</in>
						<out>135442</out>
						<pproTicksIn>1371605114880000</pproTicksIn>
						<pproTicksOut>1376177402880000</pproTicksOut>
						<file id="file-53"/>
						<sourcetrack>
							<mediatype>audio</mediatype>
							<trackindex>1</trackindex>
						</sourcetrack>
						<logginginfo>
							<description></description>
							<scene></scene>
							<shottake></shottake>
							<lognote></lognote>
						</logginginfo>
						<labels>
							<label2>Caribbean</label2>
						</labels>
					</clipitem>
					<clipitem id="clipitem-899" premiereChannelType="mono">
						<masterclipid>masterclip-57</masterclipid>
						<name>Mira Craig_01.wav</name>
						<enabled>TRUE</enabled>
						<duration>171138</duration>
						<rate>
							<timebase>25</timebase>
							<ntsc>FALSE</ntsc>
						</rate>
						<start>43282</start>
						<end>43553</end>
						<in>135648</in>
						<out>135919</out>
						<pproTicksIn>1378270494720000</pproTicksIn>
						<pproTicksOut>1381024028160000</pproTicksOut>
						<file id="file-53"/>
						<sourcetrack>
							<mediatype>audio</mediatype>
							<trackindex>1</trackindex>
						</sourcetrack>
						<logginginfo>
							<description></description>
							<scene></scene>
							<shottake></shottake>
							<lognote></lognote>
						</logginginfo>
						<labels>
							<label2>Caribbean</label2>
						</labels>
					</clipitem>
					<clipitem id="clipitem-900" premiereChannelType="mono">
						<masterclipid>masterclip-57</masterclipid>
						<name>Mira Craig_01.wav</name>
						<enabled>TRUE</enabled>
						<duration>171138</duration>
						<rate>
							<timebase>25</timebase>
							<ntsc>FALSE</ntsc>
						</rate>
						<start>43553</start>
						<end>44385</end>
						<in>136003</in>
						<out>136835</out>
						<pproTicksIn>1381877521920000</pproTicksIn>
						<pproTicksOut>1390331174400000</pproTicksOut>
						<file id="file-53"/>
						<sourcetrack>
							<mediatype>audio</mediatype>
							<trackindex>1</trackindex>
						</sourcetrack>
						<logginginfo>
							<description></description>
							<scene></scene>
							<shottake></shottake>
							<lognote></lognote>
						</logginginfo>
						<labels>
							<label2>Caribbean</label2>
						</labels>
					</clipitem>
					<clipitem id="clipitem-901" premiereChannelType="mono">
						<masterclipid>masterclip-57</masterclipid>
						<name>Mira Craig_01.wav</name>
						<enabled>TRUE</enabled>
						<duration>171138</duration>
						<rate>
							<timebase>25</timebase>
							<ntsc>FALSE</ntsc>
						</rate>
						<start>44385</start>
						<end>44583</end>
						<in>137077</in>
						<out>137275</out>
						<pproTicksIn>1392790049280000</pproTicksIn>
						<pproTicksOut>1394801856000000</pproTicksOut>
						<file id="file-53"/>
						<sourcetrack>
							<mediatype>audio</mediatype>
							<trackindex>1</trackindex>
						</sourcetrack>
						<logginginfo>
							<description></description>
							<scene></scene>
							<shottake></shottake>
							<lognote></lognote>
						</logginginfo>
						<labels>
							<label2>Caribbean</label2>
						</labels>
					</clipitem>
					<clipitem id="clipitem-902" premiereChannelType="mono">
						<masterclipid>masterclip-57</masterclipid>
						<name>Mira Craig_01.wav</name>
						<enabled>TRUE</enabled>
						<duration>171138</duration>
						<rate>
							<timebase>25</timebase>
							<ntsc>FALSE</ntsc>
						</rate>
						<start>44583</start>
						<end>44650</end>
						<in>137376</in>
						<out>137443</out>
						<pproTicksIn>1395828080640000</pproTicksIn>
						<pproTicksOut>1396508843520000</pproTicksOut>
						<file id="file-53"/>
						<sourcetrack>
							<mediatype>audio</mediatype>
							<trackindex>1</trackindex>
						</sourcetrack>
						<logginginfo>
							<description></description>
							<scene></scene>
							<shottake></shottake>
							<lognote></lognote>
						</logginginfo>
						<labels>
							<label2>Caribbean</label2>
						</labels>
					</clipitem>
					<clipitem id="clipitem-903" premiereChannelType="mono">
						<masterclipid>masterclip-57</masterclipid>
						<name>Mira Craig_01.wav</name>
						<enabled>TRUE</enabled>
						<duration>171138</duration>
						<rate>
							<timebase>25</timebase>
							<ntsc>FALSE</ntsc>
						</rate>
						<start>44650</start>
						<end>45287</end>
						<in>137505</in>
						<out>138142</out>
						<pproTicksIn>1397138803200000</pproTicksIn>
						<pproTicksOut>1403611130880000</pproTicksOut>
						<file id="file-53"/>
						<sourcetrack>
							<mediatype>audio</mediatype>
							<trackindex>1</trackindex>
						</sourcetrack>
						<logginginfo>
							<description></description>
							<scene></scene>
							<shottake></shottake>
							<lognote></lognote>
						</logginginfo>
						<labels>
							<label2>Caribbean</label2>
						</labels>
					</clipitem>
					<clipitem id="clipitem-904" premiereChannelType="mono">
						<masterclipid>masterclip-57</masterclipid>
						<name>Mira Craig_01.wav</name>
						<enabled>TRUE</enabled>
						<duration>171138</duration>
						<rate>
							<timebase>25</timebase>
							<ntsc>FALSE</ntsc>
						</rate>
						<start>45287</start>
						<end>45692</end>
						<in>138274</in>
						<out>138679</out>
						<pproTicksIn>1404952335360000</pproTicksIn>
						<pproTicksOut>1409067394560000</pproTicksOut>
						<file id="file-53"/>
						<sourcetrack>
							<mediatype>audio</mediatype>
							<trackindex>1</trackindex>
						</sourcetrack>
						<logginginfo>
							<description></description>
							<scene></scene>
							<shottake></shottake>
							<lognote></lognote>
						</logginginfo>
						<labels>
							<label2>Caribbean</label2>
						</labels>
					</clipitem>
					<clipitem id="clipitem-905" premiereChannelType="mono">
						<masterclipid>masterclip-57</masterclipid>
						<name>Mira Craig_01.wav</name>
						<enabled>TRUE</enabled>
						<duration>171138</duration>
						<rate>
							<timebase>25</timebase>
							<ntsc>FALSE</ntsc>
						</rate>
						<start>45692</start>
						<end>45923</end>
						<in>138810</in>
						<out>139041</out>
						<pproTicksIn>1410398438400000</pproTicksIn>
						<pproTicksOut>1412745546240000</pproTicksOut>
						<file id="file-53"/>
						<sourcetrack>
							<mediatype>audio</mediatype>
							<trackindex>1</trackindex>
						</sourcetrack>
						<logginginfo>
							<description></description>
							<scene></scene>
							<shottake></shottake>
							<lognote></lognote>
						</logginginfo>
						<labels>
							<label2>Caribbean</label2>
						</labels>
					</clipitem>
					<clipitem id="clipitem-906" premiereChannelType="mono">
						<masterclipid>masterclip-57</masterclipid>
						<name>Mira Craig_01.wav</name>
						<enabled>TRUE</enabled>
						<duration>171138</duration>
						<rate>
							<timebase>25</timebase>
							<ntsc>FALSE</ntsc>
						</rate>
						<start>45923</start>
						<end>46349</end>
						<in>139073</in>
						<out>139499</out>
						<pproTicksIn>1413070686720000</pproTicksIn>
						<pproTicksOut>1417399119360000</pproTicksOut>
						<file id="file-53"/>
						<sourcetrack>
							<mediatype>audio</mediatype>
							<trackindex>1</trackindex>
						</sourcetrack>
						<logginginfo>
							<description></description>
							<scene></scene>
							<shottake></shottake>
							<lognote></lognote>
						</logginginfo>
						<labels>
							<label2>Caribbean</label2>
						</labels>
					</clipitem>
					<clipitem id="clipitem-907" premiereChannelType="mono">
						<masterclipid>masterclip-57</masterclipid>
						<name>Mira Craig_01.wav</name>
						<enabled>TRUE</enabled>
						<duration>171138</duration>
						<rate>
							<timebase>25</timebase>
							<ntsc>FALSE</ntsc>
						</rate>
						<start>46349</start>
						<end>46455</end>
						<in>159642</in>
						<out>159748</out>
						<pproTicksIn>1622064890880000</pproTicksIn>
						<pproTicksOut>1623141918720000</pproTicksOut>
						<file id="file-53"/>
						<sourcetrack>
							<mediatype>audio</mediatype>
							<trackindex>1</trackindex>
						</sourcetrack>
						<logginginfo>
							<description></description>
							<scene></scene>
							<shottake></shottake>
							<lognote></lognote>
						</logginginfo>
						<labels>
							<label2>Caribbean</label2>
						</labels>
					</clipitem>
					<clipitem id="clipitem-908" premiereChannelType="mono">
						<masterclipid>masterclip-57</masterclipid>
						<name>Mira Craig_01.wav</name>
						<enabled>TRUE</enabled>
						<duration>171138</duration>
						<rate>
							<timebase>25</timebase>
							<ntsc>FALSE</ntsc>
						</rate>
						<start>46455</start>
						<end>46911</end>
						<in>140048</in>
						<out>140504</out>
						<pproTicksIn>1422977310720000</pproTicksIn>
						<pproTicksOut>1427610562560000</pproTicksOut>
						<file id="file-53"/>
						<sourcetrack>
							<mediatype>audio</mediatype>
							<trackindex>1</trackindex>
						</sourcetrack>
						<logginginfo>
							<description></description>
							<scene></scene>
							<shottake></shottake>
							<lognote></lognote>
						</logginginfo>
						<labels>
							<label2>Caribbean</label2>
						</labels>
					</clipitem>
					<clipitem id="clipitem-909" premiereChannelType="mono">
						<masterclipid>masterclip-57</masterclipid>
						<name>Mira Craig_01.wav</name>
						<enabled>TRUE</enabled>
						<duration>171138</duration>
						<rate>
							<timebase>25</timebase>
							<ntsc>FALSE</ntsc>
						</rate>
						<start>46911</start>
						<end>47138</end>
						<in>140817</in>
						<out>141044</out>
						<pproTicksIn>1430790842880000</pproTicksIn>
						<pproTicksOut>1433097308160000</pproTicksOut>
						<file id="file-53"/>
						<sourcetrack>
							<mediatype>audio</mediatype>
							<trackindex>1</trackindex>
						</sourcetrack>
						<logginginfo>
							<description></description>
							<scene></scene>
							<shottake></shottake>
							<lognote></lognote>
						</logginginfo>
						<labels>
							<label2>Caribbean</label2>
						</labels>
					</clipitem>
					<clipitem id="clipitem-910" premiereChannelType="mono">
						<masterclipid>masterclip-57</masterclipid>
						<name>Mira Craig_01.wav</name>
						<enabled>TRUE</enabled>
						<duration>171138</duration>
						<rate>
							<timebase>25</timebase>
							<ntsc>FALSE</ntsc>
						</rate>
						<start>47138</start>
						<end>47335</end>
						<in>141203</in>
						<out>141400</out>
						<pproTicksIn>1434712849920000</pproTicksIn>
						<pproTicksOut>1436714496000000</pproTicksOut>
						<file id="file-53"/>
						<sourcetrack>
							<mediatype>audio</mediatype>
							<trackindex>1</trackindex>
						</sourcetrack>
						<logginginfo>
							<description></description>
							<scene></scene>
							<shottake></shottake>
							<lognote></lognote>
						</logginginfo>
						<labels>
							<label2>Caribbean</label2>
						</labels>
					</clipitem>
					<clipitem id="clipitem-911" premiereChannelType="mono">
						<masterclipid>masterclip-57</masterclipid>
						<name>Mira Craig_01.wav</name>
						<enabled>TRUE</enabled>
						<duration>171138</duration>
						<rate>
							<timebase>25</timebase>
							<ntsc>FALSE</ntsc>
						</rate>
						<start>47335</start>
						<end>47513</end>
						<in>141454</in>
						<out>141632</out>
						<pproTicksIn>1437263170560000</pproTicksIn>
						<pproTicksOut>1439071764480000</pproTicksOut>
						<file id="file-53"/>
						<sourcetrack>
							<mediatype>audio</mediatype>
							<trackindex>1</trackindex>
						</sourcetrack>
						<logginginfo>
							<description></description>
							<scene></scene>
							<shottake></shottake>
							<lognote></lognote>
						</logginginfo>
						<labels>
							<label2>Caribbean</label2>
						</labels>
					</clipitem>
					<clipitem id="clipitem-912" premiereChannelType="mono">
						<masterclipid>masterclip-57</masterclipid>
						<name>Mira Craig_01.wav</name>
						<enabled>TRUE</enabled>
						<duration>171138</duration>
						<rate>
							<timebase>25</timebase>
							<ntsc>FALSE</ntsc>
						</rate>
						<start>47513</start>
						<end>47723</end>
						<in>141671</in>
						<out>141881</out>
						<pproTicksIn>1439468029440000</pproTicksIn>
						<pproTicksOut>1441601763840000</pproTicksOut>
						<file id="file-53"/>
						<sourcetrack>
							<mediatype>audio</mediatype>
							<trackindex>1</trackindex>
						</sourcetrack>
						<logginginfo>
							<description></description>
							<scene></scene>
							<shottake></shottake>
							<lognote></lognote>
						</logginginfo>
						<labels>
							<label2>Caribbean</label2>
						</labels>
					</clipitem>
					<clipitem id="clipitem-913" premiereChannelType="mono">
						<masterclipid>masterclip-57</masterclipid>
						<name>Mira Craig_01.wav</name>
						<enabled>TRUE</enabled>
						<duration>171138</duration>
						<rate>
							<timebase>25</timebase>
							<ntsc>FALSE</ntsc>
						</rate>
						<start>47723</start>
						<end>48040</end>
						<in>141894</in>
						<out>142211</out>
						<pproTicksIn>1441733852160000</pproTicksIn>
						<pproTicksOut>1444954775040000</pproTicksOut>
						<file id="file-53"/>
						<sourcetrack>
							<mediatype>audio</mediatype>
							<trackindex>1</trackindex>
						</sourcetrack>
						<logginginfo>
							<description></description>
							<scene></scene>
							<shottake></shottake>
							<lognote></lognote>
						</logginginfo>
						<labels>
							<label2>Caribbean</label2>
						</labels>
					</clipitem>
					<clipitem id="clipitem-914" premiereChannelType="mono">
						<masterclipid>masterclip-57</masterclipid>
						<name>Mira Craig_01.wav</name>
						<enabled>TRUE</enabled>
						<duration>171138</duration>
						<rate>
							<timebase>25</timebase>
							<ntsc>FALSE</ntsc>
						</rate>
						<start>48040</start>
						<end>48766</end>
						<in>142351</in>
						<out>143077</out>
						<pproTicksIn>1446377264640000</pproTicksIn>
						<pproTicksOut>1453753889280000</pproTicksOut>
						<file id="file-53"/>
						<sourcetrack>
							<mediatype>audio</mediatype>
							<trackindex>1</trackindex>
						</sourcetrack>
						<logginginfo>
							<description></description>
							<scene></scene>
							<shottake></shottake>
							<lognote></lognote>
						</logginginfo>
						<labels>
							<label2>Caribbean</label2>
						</labels>
					</clipitem>
					<clipitem id="clipitem-915" premiereChannelType="mono">
						<masterclipid>masterclip-57</masterclipid>
						<name>Mira Craig_01.wav</name>
						<enabled>TRUE</enabled>
						<duration>171138</duration>
						<rate>
							<timebase>25</timebase>
							<ntsc>FALSE</ntsc>
						</rate>
						<start>48766</start>
						<end>49706</end>
						<in>143684</in>
						<out>144624</out>
						<pproTicksIn>1459921397760000</pproTicksIn>
						<pproTicksOut>1469472399360000</pproTicksOut>
						<file id="file-53"/>
						<sourcetrack>
							<mediatype>audio</mediatype>
							<trackindex>1</trackindex>
						</sourcetrack>
						<logginginfo>
							<description></description>
							<scene></scene>
							<shottake></shottake>
							<lognote></lognote>
						</logginginfo>
						<labels>
							<label2>Caribbean</label2>
						</labels>
					</clipitem>
					<clipitem id="clipitem-916" premiereChannelType="mono">
						<masterclipid>masterclip-57</masterclipid>
						<name>Mira Craig_01.wav</name>
						<enabled>TRUE</enabled>
						<duration>171138</duration>
						<rate>
							<timebase>25</timebase>
							<ntsc>FALSE</ntsc>
						</rate>
						<start>49706</start>
						<end>49762</end>
						<in>147186</in>
						<out>147242</out>
						<pproTicksIn>1495503959040000</pproTicksIn>
						<pproTicksOut>1496072954880000</pproTicksOut>
						<file id="file-53"/>
						<sourcetrack>
							<mediatype>audio</mediatype>
							<trackindex>1</trackindex>
						</sourcetrack>
						<logginginfo>
							<description></description>
							<scene></scene>
							<shottake></shottake>
							<lognote></lognote>
						</logginginfo>
						<labels>
							<label2>Caribbean</label2>
						</labels>
					</clipitem>
					<clipitem id="clipitem-917" premiereChannelType="mono">
						<masterclipid>masterclip-57</masterclipid>
						<name>Mira Craig_01.wav</name>
						<enabled>TRUE</enabled>
						<duration>171138</duration>
						<rate>
							<timebase>25</timebase>
							<ntsc>FALSE</ntsc>
						</rate>
						<start>49762</start>
						<end>49948</end>
						<in>153681</in>
						<out>153867</out>
						<pproTicksIn>1561497315840000</pproTicksIn>
						<pproTicksOut>1563387194880000</pproTicksOut>
						<file id="file-53"/>
						<sourcetrack>
							<mediatype>audio</mediatype>
							<trackindex>1</trackindex>
						</sourcetrack>
						<logginginfo>
							<description></description>
							<scene></scene>
							<shottake></shottake>
							<lognote></lognote>
						</logginginfo>
						<labels>
							<label2>Caribbean</label2>
						</labels>
					</clipitem>
					<clipitem id="clipitem-918" premiereChannelType="mono">
						<masterclipid>masterclip-57</masterclipid>
						<name>Mira Craig_01.wav</name>
						<enabled>TRUE</enabled>
						<duration>171138</duration>
						<rate>
							<timebase>25</timebase>
							<ntsc>FALSE</ntsc>
						</rate>
						<start>49948</start>
						<end>50390</end>
						<in>153946</in>
						<out>154388</out>
						<pproTicksIn>1564189885440000</pproTicksIn>
						<pproTicksOut>1568680888320000</pproTicksOut>
						<file id="file-53"/>
						<sourcetrack>
							<mediatype>audio</mediatype>
							<trackindex>1</trackindex>
						</sourcetrack>
						<logginginfo>
							<description></description>
							<scene></scene>
							<shottake></shottake>
							<lognote></lognote>
						</logginginfo>
						<labels>
							<label2>Caribbean</label2>
						</labels>
					</clipitem>
					<clipitem id="clipitem-919" premiereChannelType="mono">
						<masterclipid>masterclip-57</masterclipid>
						<name>Mira Craig_01.wav</name>
						<enabled>TRUE</enabled>
						<duration>171138</duration>
						<rate>
							<timebase>25</timebase>
							<ntsc>FALSE</ntsc>
						</rate>
						<start>50390</start>
						<end>50983</end>
						<in>156215</in>
						<out>156808</out>
						<pproTicksIn>1587244377600000</pproTicksIn>
						<pproTicksOut>1593269637120000</pproTicksOut>
						<file id="file-53"/>
						<sourcetrack>
							<mediatype>audio</mediatype>
							<trackindex>1</trackindex>
						</sourcetrack>
						<logginginfo>
							<description></description>
							<scene></scene>
							<shottake></shottake>
							<lognote></lognote>
						</logginginfo>
						<labels>
							<label2>Caribbean</label2>
						</labels>
					</clipitem>
					<clipitem id="clipitem-920" premiereChannelType="mono">
						<masterclipid>masterclip-57</masterclipid>
						<name>Mira Craig_01.wav</name>
						<enabled>TRUE</enabled>
						<duration>171138</duration>
						<rate>
							<timebase>25</timebase>
							<ntsc>FALSE</ntsc>
						</rate>
						<start>50983</start>
						<end>53597</end>
						<in>157028</in>
						<out>159642</out>
						<pproTicksIn>1595504977920000</pproTicksIn>
						<pproTicksOut>1622064890880000</pproTicksOut>
						<file id="file-53"/>
						<sourcetrack>
							<mediatype>audio</mediatype>
							<trackindex>1</trackindex>
						</sourcetrack>
						<logginginfo>
							<description></description>
							<scene></scene>
							<shottake></shottake>
							<lognote></lognote>
						</logginginfo>
						<labels>
							<label2>Caribbean</label2>
						</labels>
					</clipitem>
					<clipitem id="clipitem-921" premiereChannelType="mono">
						<masterclipid>masterclip-57</masterclipid>
						<name>Mira Craig_01.wav</name>
						<enabled>TRUE</enabled>
						<duration>171138</duration>
						<rate>
							<timebase>25</timebase>
							<ntsc>FALSE</ntsc>
						</rate>
						<start>53597</start>
						<end>53636</end>
						<in>160568</in>
						<out>160607</out>
						<pproTicksIn>1631473643520000</pproTicksIn>
						<pproTicksOut>1631869908480000</pproTicksOut>
						<file id="file-53"/>
						<sourcetrack>
							<mediatype>audio</mediatype>
							<trackindex>1</trackindex>
						</sourcetrack>
						<logginginfo>
							<description></description>
							<scene></scene>
							<shottake></shottake>
							<lognote></lognote>
						</logginginfo>
						<labels>
							<label2>Caribbean</label2>
						</labels>
					</clipitem>
					<clipitem id="clipitem-922" premiereChannelType="mono">
						<masterclipid>masterclip-57</masterclipid>
						<name>Mira Craig_01.wav</name>
						<enabled>TRUE</enabled>
						<duration>171138</duration>
						<rate>
							<timebase>25</timebase>
							<ntsc>FALSE</ntsc>
						</rate>
						<start>53636</start>
						<end>55369</end>
						<in>161146</in>
						<out>162879</out>
						<pproTicksIn>1637346493440000</pproTicksIn>
						<pproTicksOut>1654954882560000</pproTicksOut>
						<file id="file-53"/>
						<sourcetrack>
							<mediatype>audio</mediatype>
							<trackindex>1</trackindex>
						</sourcetrack>
						<logginginfo>
							<description></description>
							<scene></scene>
							<shottake></shottake>
							<lognote></lognote>
						</logginginfo>
						<labels>
							<label2>Caribbean</label2>
						</labels>
					</clipitem>
					<clipitem id="clipitem-923" premiereChannelType="mono">
						<masterclipid>masterclip-57</masterclipid>
						<name>Mira Craig_01.wav</name>
						<enabled>TRUE</enabled>
						<duration>171138</duration>
						<rate>
							<timebase>25</timebase>
							<ntsc>FALSE</ntsc>
						</rate>
						<start>55369</start>
						<end>55449</end>
						<in>162899</in>
						<out>162979</out>
						<pproTicksIn>1655158095360000</pproTicksIn>
						<pproTicksOut>1655970946560000</pproTicksOut>
						<file id="file-53"/>
						<sourcetrack>
							<mediatype>audio</mediatype>
							<trackindex>1</trackindex>
						</sourcetrack>
						<logginginfo>
							<description></description>
							<scene></scene>
							<shottake></shottake>
							<lognote></lognote>
						</logginginfo>
						<labels>
							<label2>Caribbean</label2>
						</labels>
					</clipitem>
					<clipitem id="clipitem-924" premiereChannelType="mono">
						<masterclipid>masterclip-57</masterclipid>
						<name>Mira Craig_01.wav</name>
						<enabled>TRUE</enabled>
						<duration>171138</duration>
						<rate>
							<timebase>25</timebase>
							<ntsc>FALSE</ntsc>
						</rate>
						<start>55449</start>
						<end>55738</end>
						<in>163146</in>
						<out>163435</out>
						<pproTicksIn>1657667773440000</pproTicksIn>
						<pproTicksOut>1660604198400000</pproTicksOut>
						<file id="file-53"/>
						<sourcetrack>
							<mediatype>audio</mediatype>
							<trackindex>1</trackindex>
						</sourcetrack>
						<logginginfo>
							<description></description>
							<scene></scene>
							<shottake></shottake>
							<lognote></lognote>
						</logginginfo>
						<labels>
							<label2>Caribbean</label2>
						</labels>
					</clipitem>
					<clipitem id="clipitem-925" premiereChannelType="mono">
						<masterclipid>masterclip-57</masterclipid>
						<name>Mira Craig_01.wav</name>
						<enabled>TRUE</enabled>
						<duration>171138</duration>
						<rate>
							<timebase>25</timebase>
							<ntsc>FALSE</ntsc>
						</rate>
						<start>55738</start>
						<end>55905</end>
						<in>163648</in>
						<out>163815</out>
						<pproTicksIn>1662768414720000</pproTicksIn>
						<pproTicksOut>1664465241600000</pproTicksOut>
						<file id="file-53"/>
						<sourcetrack>
							<mediatype>audio</mediatype>
							<trackindex>1</trackindex>
						</sourcetrack>
						<logginginfo>
							<description></description>
							<scene></scene>
							<shottake></shottake>
							<lognote></lognote>
						</logginginfo>
						<labels>
							<label2>Caribbean</label2>
						</labels>
					</clipitem>
					<clipitem id="clipitem-926" premiereChannelType="mono">
						<masterclipid>masterclip-57</masterclipid>
						<name>Mira Craig_01.wav</name>
						<enabled>TRUE</enabled>
						<duration>171138</duration>
						<rate>
							<timebase>25</timebase>
							<ntsc>FALSE</ntsc>
						</rate>
						<start>55905</start>
						<end>56079</end>
						<in>163829</in>
						<out>164003</out>
						<pproTicksIn>1664607490560000</pproTicksIn>
						<pproTicksOut>1666375441920000</pproTicksOut>
						<file id="file-53"/>
						<sourcetrack>
							<mediatype>audio</mediatype>
							<trackindex>1</trackindex>
						</sourcetrack>
						<logginginfo>
							<description></description>
							<scene></scene>
							<shottake></shottake>
							<lognote></lognote>
						</logginginfo>
						<labels>
							<label2>Caribbean</label2>
						</labels>
					</clipitem>
					<clipitem id="clipitem-927" premiereChannelType="mono">
						<masterclipid>masterclip-57</masterclipid>
						<name>Mira Craig_01.wav</name>
						<enabled>TRUE</enabled>
						<duration>171138</duration>
						<rate>
							<timebase>25</timebase>
							<ntsc>FALSE</ntsc>
						</rate>
						<start>56079</start>
						<end>58120</end>
						<in>164067</in>
						<out>166108</out>
						<pproTicksIn>1667025722880000</pproTicksIn>
						<pproTicksOut>1687763589120000</pproTicksOut>
						<file id="file-53"/>
						<sourcetrack>
							<mediatype>audio</mediatype>
							<trackindex>1</trackindex>
						</sourcetrack>
						<logginginfo>
							<description></description>
							<scene></scene>
							<shottake></shottake>
							<lognote></lognote>
						</logginginfo>
						<labels>
							<label2>Caribbean</label2>
						</labels>
					</clipitem>
					<enabled>TRUE</enabled>
					<locked>FALSE</locked>
					<outputchannelindex>2</outputchannelindex>
				</track>
				<track TL.SQTrackAudioKeyframeStyle="0" TL.SQTrackShy="0" TL.SQTrackExpandedHeight="25" TL.SQTrackExpanded="0" MZ.TrackTargeted="1" PannerCurrentValue="0.5" PannerIsInverted="true" PannerStartKeyframe="-91445760000000000,0.5,0,0,0,0,0,0" PannerName="Balance" currentExplodedTrackIndex="0" totalExplodedTrackCount="1" premiereTrackType="Stereo">
					<clipitem id="clipitem-928" premiereChannelType="mono">
						<masterclipid>masterclip-58</masterclipid>
						<name>THOMAS_03.wav</name>
						<enabled>TRUE</enabled>
						<duration>171138</duration>
						<rate>
							<timebase>25</timebase>
							<ntsc>FALSE</ntsc>
						</rate>
						<start>420</start>
						<end>891</end>
						<in>168511</in>
						<out>168982</out>
						<pproTicksIn>1712179607040000</pproTicksIn>
						<pproTicksOut>1716965268480000</pproTicksOut>
						<file id="file-54">
							<name>THOMAS_03.wav</name>
							<pathurl>file://localhost/Volumes/Brakka/AdobeLager/QUIZ%20-%20brakka/RA%cc%8aSTOFF%20LYD/2005/THOMAS_03.wav</pathurl>
							<rate>
								<timebase>30</timebase>
								<ntsc>TRUE</ntsc>
							</rate>
							<duration>205161</duration>
							<timecode>
								<rate>
									<timebase>30</timebase>
									<ntsc>TRUE</ntsc>
								</rate>
								<string>12;52;15;16</string>
								<frame>1388676</frame>
								<displayformat>DF</displayformat>
								<reel>
									<name></name>
								</reel>
							</timecode>
							<media>
								<audio>
									<samplecharacteristics>
										<depth>16</depth>
										<samplerate>48000</samplerate>
									</samplecharacteristics>
									<channelcount>1</channelcount>
									<audiochannel>
										<sourcechannel>1</sourcechannel>
									</audiochannel>
								</audio>
							</media>
						</file>
						<sourcetrack>
							<mediatype>audio</mediatype>
							<trackindex>1</trackindex>
						</sourcetrack>
						<logginginfo>
							<description></description>
							<scene></scene>
							<shottake></shottake>
							<lognote></lognote>
						</logginginfo>
						<labels>
							<label2>Caribbean</label2>
						</labels>
					</clipitem>
					<clipitem id="clipitem-929" premiereChannelType="mono">
						<masterclipid>masterclip-58</masterclipid>
						<name>THOMAS_03.wav</name>
						<enabled>TRUE</enabled>
						<duration>171138</duration>
						<rate>
							<timebase>25</timebase>
							<ntsc>FALSE</ntsc>
						</rate>
						<start>965</start>
						<end>1469</end>
						<in>32787</in>
						<out>33291</out>
						<pproTicksIn>333136903680000</pproTicksIn>
						<pproTicksOut>338257866240000</pproTicksOut>
						<file id="file-54"/>
						<sourcetrack>
							<mediatype>audio</mediatype>
							<trackindex>1</trackindex>
						</sourcetrack>
						<logginginfo>
							<description></description>
							<scene></scene>
							<shottake></shottake>
							<lognote></lognote>
						</logginginfo>
						<labels>
							<label2>Caribbean</label2>
						</labels>
					</clipitem>
					<clipitem id="clipitem-930" premiereChannelType="mono">
						<masterclipid>masterclip-58</masterclipid>
						<name>THOMAS_03.wav</name>
						<enabled>TRUE</enabled>
						<duration>171138</duration>
						<rate>
							<timebase>25</timebase>
							<ntsc>FALSE</ntsc>
						</rate>
						<start>1469</start>
						<end>4119</end>
						<in>33423</in>
						<out>36073</out>
						<pproTicksIn>339599070720000</pproTicksIn>
						<pproTicksOut>366524766720000</pproTicksOut>
						<file id="file-54"/>
						<sourcetrack>
							<mediatype>audio</mediatype>
							<trackindex>1</trackindex>
						</sourcetrack>
						<logginginfo>
							<description></description>
							<scene></scene>
							<shottake></shottake>
							<lognote></lognote>
						</logginginfo>
						<labels>
							<label2>Caribbean</label2>
						</labels>
					</clipitem>
					<clipitem id="clipitem-931" premiereChannelType="mono">
						<masterclipid>masterclip-58</masterclipid>
						<name>THOMAS_03.wav</name>
						<enabled>TRUE</enabled>
						<duration>171138</duration>
						<rate>
							<timebase>25</timebase>
							<ntsc>FALSE</ntsc>
						</rate>
						<start>4119</start>
						<end>4836</end>
						<in>36549</in>
						<out>37266</out>
						<pproTicksIn>371361231360000</pproTicksIn>
						<pproTicksOut>378646410240000</pproTicksOut>
						<file id="file-54"/>
						<sourcetrack>
							<mediatype>audio</mediatype>
							<trackindex>1</trackindex>
						</sourcetrack>
						<logginginfo>
							<description></description>
							<scene></scene>
							<shottake></shottake>
							<lognote></lognote>
						</logginginfo>
						<labels>
							<label2>Caribbean</label2>
						</labels>
					</clipitem>
					<clipitem id="clipitem-932" premiereChannelType="mono">
						<masterclipid>masterclip-58</masterclipid>
						<name>THOMAS_03.wav</name>
						<enabled>TRUE</enabled>
						<duration>171138</duration>
						<rate>
							<timebase>25</timebase>
							<ntsc>FALSE</ntsc>
						</rate>
						<start>4836</start>
						<end>5339</end>
						<in>37305</in>
						<out>37808</out>
						<pproTicksIn>379042675200000</pproTicksIn>
						<pproTicksOut>384153477120000</pproTicksOut>
						<file id="file-54"/>
						<sourcetrack>
							<mediatype>audio</mediatype>
							<trackindex>1</trackindex>
						</sourcetrack>
						<logginginfo>
							<description></description>
							<scene></scene>
							<shottake></shottake>
							<lognote></lognote>
						</logginginfo>
						<labels>
							<label2>Caribbean</label2>
						</labels>
					</clipitem>
					<clipitem id="clipitem-933" premiereChannelType="mono">
						<masterclipid>masterclip-58</masterclipid>
						<name>THOMAS_03.wav</name>
						<enabled>TRUE</enabled>
						<duration>171138</duration>
						<rate>
							<timebase>25</timebase>
							<ntsc>FALSE</ntsc>
						</rate>
						<start>5339</start>
						<end>5501</end>
						<in>37871</in>
						<out>38033</out>
						<pproTicksIn>384793597440000</pproTicksIn>
						<pproTicksOut>386439621120000</pproTicksOut>
						<file id="file-54"/>
						<sourcetrack>
							<mediatype>audio</mediatype>
							<trackindex>1</trackindex>
						</sourcetrack>
						<logginginfo>
							<description></description>
							<scene></scene>
							<shottake></shottake>
							<lognote></lognote>
						</logginginfo>
						<labels>
							<label2>Caribbean</label2>
						</labels>
					</clipitem>
					<clipitem id="clipitem-934" premiereChannelType="mono">
						<masterclipid>masterclip-58</masterclipid>
						<name>THOMAS_03.wav</name>
						<enabled>TRUE</enabled>
						<duration>171138</duration>
						<rate>
							<timebase>25</timebase>
							<ntsc>FALSE</ntsc>
						</rate>
						<start>5501</start>
						<end>6004</end>
						<in>46577</in>
						<out>47080</out>
						<pproTicksIn>473252129280000</pproTicksIn>
						<pproTicksOut>478362931200000</pproTicksOut>
						<file id="file-54"/>
						<sourcetrack>
							<mediatype>audio</mediatype>
							<trackindex>1</trackindex>
						</sourcetrack>
						<logginginfo>
							<description></description>
							<scene></scene>
							<shottake></shottake>
							<lognote></lognote>
						</logginginfo>
						<labels>
							<label2>Caribbean</label2>
						</labels>
					</clipitem>
					<clipitem id="clipitem-935" premiereChannelType="mono">
						<masterclipid>masterclip-58</masterclipid>
						<name>THOMAS_03.wav</name>
						<enabled>TRUE</enabled>
						<duration>171138</duration>
						<rate>
							<timebase>25</timebase>
							<ntsc>FALSE</ntsc>
						</rate>
						<start>6004</start>
						<end>6357</end>
						<in>50106</in>
						<out>50459</out>
						<pproTicksIn>509109027840000</pproTicksIn>
						<pproTicksOut>512695733760000</pproTicksOut>
						<file id="file-54"/>
						<sourcetrack>
							<mediatype>audio</mediatype>
							<trackindex>1</trackindex>
						</sourcetrack>
						<logginginfo>
							<description></description>
							<scene></scene>
							<shottake></shottake>
							<lognote></lognote>
						</logginginfo>
						<labels>
							<label2>Caribbean</label2>
						</labels>
					</clipitem>
					<clipitem id="clipitem-936" premiereChannelType="mono">
						<masterclipid>masterclip-58</masterclipid>
						<name>THOMAS_03.wav</name>
						<enabled>TRUE</enabled>
						<duration>171138</duration>
						<rate>
							<timebase>25</timebase>
							<ntsc>FALSE</ntsc>
						</rate>
						<start>6357</start>
						<end>6470</end>
						<in>50578</in>
						<out>50691</out>
						<pproTicksIn>513904849920000</pproTicksIn>
						<pproTicksOut>515053002240000</pproTicksOut>
						<file id="file-54"/>
						<sourcetrack>
							<mediatype>audio</mediatype>
							<trackindex>1</trackindex>
						</sourcetrack>
						<logginginfo>
							<description></description>
							<scene></scene>
							<shottake></shottake>
							<lognote></lognote>
						</logginginfo>
						<labels>
							<label2>Caribbean</label2>
						</labels>
					</clipitem>
					<clipitem id="clipitem-937" premiereChannelType="mono">
						<masterclipid>masterclip-58</masterclipid>
						<name>THOMAS_03.wav</name>
						<enabled>TRUE</enabled>
						<duration>171138</duration>
						<rate>
							<timebase>25</timebase>
							<ntsc>FALSE</ntsc>
						</rate>
						<start>6470</start>
						<end>6547</end>
						<in>50753</in>
						<out>50830</out>
						<pproTicksIn>515682961920000</pproTicksIn>
						<pproTicksOut>516465331200000</pproTicksOut>
						<file id="file-54"/>
						<sourcetrack>
							<mediatype>audio</mediatype>
							<trackindex>1</trackindex>
						</sourcetrack>
						<logginginfo>
							<description></description>
							<scene></scene>
							<shottake></shottake>
							<lognote></lognote>
						</logginginfo>
						<labels>
							<label2>Caribbean</label2>
						</labels>
					</clipitem>
					<clipitem id="clipitem-938" premiereChannelType="mono">
						<masterclipid>masterclip-58</masterclipid>
						<name>THOMAS_03.wav</name>
						<enabled>TRUE</enabled>
						<duration>171138</duration>
						<rate>
							<timebase>25</timebase>
							<ntsc>FALSE</ntsc>
						</rate>
						<start>6547</start>
						<end>7368</end>
						<in>50869</in>
						<out>51690</out>
						<pproTicksIn>516861596160000</pproTicksIn>
						<pproTicksOut>525203481600000</pproTicksOut>
						<file id="file-54"/>
						<sourcetrack>
							<mediatype>audio</mediatype>
							<trackindex>1</trackindex>
						</sourcetrack>
						<logginginfo>
							<description></description>
							<scene></scene>
							<shottake></shottake>
							<lognote></lognote>
						</logginginfo>
						<labels>
							<label2>Caribbean</label2>
						</labels>
					</clipitem>
					<clipitem id="clipitem-939" premiereChannelType="mono">
						<masterclipid>masterclip-58</masterclipid>
						<name>THOMAS_03.wav</name>
						<enabled>TRUE</enabled>
						<duration>171138</duration>
						<rate>
							<timebase>25</timebase>
							<ntsc>FALSE</ntsc>
						</rate>
						<start>7368</start>
						<end>7448</end>
						<in>51824</in>
						<out>51904</out>
						<pproTicksIn>526565007360000</pproTicksIn>
						<pproTicksOut>527377858560000</pproTicksOut>
						<file id="file-54"/>
						<sourcetrack>
							<mediatype>audio</mediatype>
							<trackindex>1</trackindex>
						</sourcetrack>
						<logginginfo>
							<description></description>
							<scene></scene>
							<shottake></shottake>
							<lognote></lognote>
						</logginginfo>
						<labels>
							<label2>Caribbean</label2>
						</labels>
					</clipitem>
					<clipitem id="clipitem-940" premiereChannelType="mono">
						<masterclipid>masterclip-58</masterclipid>
						<name>THOMAS_03.wav</name>
						<enabled>TRUE</enabled>
						<duration>171138</duration>
						<rate>
							<timebase>25</timebase>
							<ntsc>FALSE</ntsc>
						</rate>
						<start>7448</start>
						<end>8194</end>
						<in>52064</in>
						<out>52810</out>
						<pproTicksIn>529003560960000</pproTicksIn>
						<pproTicksOut>536583398400000</pproTicksOut>
						<file id="file-54"/>
						<sourcetrack>
							<mediatype>audio</mediatype>
							<trackindex>1</trackindex>
						</sourcetrack>
						<logginginfo>
							<description></description>
							<scene></scene>
							<shottake></shottake>
							<lognote></lognote>
						</logginginfo>
						<labels>
							<label2>Caribbean</label2>
						</labels>
					</clipitem>
					<clipitem id="clipitem-941" premiereChannelType="mono">
						<masterclipid>masterclip-58</masterclipid>
						<name>THOMAS_03.wav</name>
						<enabled>TRUE</enabled>
						<duration>171138</duration>
						<rate>
							<timebase>25</timebase>
							<ntsc>FALSE</ntsc>
						</rate>
						<start>8194</start>
						<end>8332</end>
						<in>57229</in>
						<out>57367</out>
						<pproTicksIn>581483266560000</pproTicksIn>
						<pproTicksOut>582885434880000</pproTicksOut>
						<file id="file-54"/>
						<sourcetrack>
							<mediatype>audio</mediatype>
							<trackindex>1</trackindex>
						</sourcetrack>
						<logginginfo>
							<description></description>
							<scene></scene>
							<shottake></shottake>
							<lognote></lognote>
						</logginginfo>
						<labels>
							<label2>Caribbean</label2>
						</labels>
					</clipitem>
					<clipitem id="clipitem-942" premiereChannelType="mono">
						<masterclipid>masterclip-58</masterclipid>
						<name>THOMAS_03.wav</name>
						<enabled>TRUE</enabled>
						<duration>171138</duration>
						<rate>
							<timebase>25</timebase>
							<ntsc>FALSE</ntsc>
						</rate>
						<start>8332</start>
						<end>8592</end>
						<in>58240</in>
						<out>58500</out>
						<pproTicksIn>591755673600000</pproTicksIn>
						<pproTicksOut>594397440000000</pproTicksOut>
						<file id="file-54"/>
						<sourcetrack>
							<mediatype>audio</mediatype>
							<trackindex>1</trackindex>
						</sourcetrack>
						<logginginfo>
							<description></description>
							<scene></scene>
							<shottake></shottake>
							<lognote></lognote>
						</logginginfo>
						<labels>
							<label2>Caribbean</label2>
						</labels>
					</clipitem>
					<clipitem id="clipitem-943" premiereChannelType="mono">
						<masterclipid>masterclip-58</masterclipid>
						<name>THOMAS_03.wav</name>
						<enabled>TRUE</enabled>
						<duration>171138</duration>
						<rate>
							<timebase>25</timebase>
							<ntsc>FALSE</ntsc>
						</rate>
						<start>8592</start>
						<end>8690</end>
						<in>58994</in>
						<out>59092</out>
						<pproTicksIn>599416796160000</pproTicksIn>
						<pproTicksOut>600412538880000</pproTicksOut>
						<file id="file-54"/>
						<sourcetrack>
							<mediatype>audio</mediatype>
							<trackindex>1</trackindex>
						</sourcetrack>
						<logginginfo>
							<description></description>
							<scene></scene>
							<shottake></shottake>
							<lognote></lognote>
						</logginginfo>
						<labels>
							<label2>Caribbean</label2>
						</labels>
					</clipitem>
					<clipitem id="clipitem-944" premiereChannelType="mono">
						<masterclipid>masterclip-58</masterclipid>
						<name>THOMAS_03.wav</name>
						<enabled>TRUE</enabled>
						<duration>171138</duration>
						<rate>
							<timebase>25</timebase>
							<ntsc>FALSE</ntsc>
						</rate>
						<start>8690</start>
						<end>8999</end>
						<in>59189</in>
						<out>59498</out>
						<pproTicksIn>601398120960000</pproTicksIn>
						<pproTicksOut>604537758720000</pproTicksOut>
						<file id="file-54"/>
						<sourcetrack>
							<mediatype>audio</mediatype>
							<trackindex>1</trackindex>
						</sourcetrack>
						<logginginfo>
							<description></description>
							<scene></scene>
							<shottake></shottake>
							<lognote></lognote>
						</logginginfo>
						<labels>
							<label2>Caribbean</label2>
						</labels>
					</clipitem>
					<clipitem id="clipitem-945" premiereChannelType="mono">
						<masterclipid>masterclip-58</masterclipid>
						<name>THOMAS_03.wav</name>
						<enabled>TRUE</enabled>
						<duration>171138</duration>
						<rate>
							<timebase>25</timebase>
							<ntsc>FALSE</ntsc>
						</rate>
						<start>8999</start>
						<end>9172</end>
						<in>59597</in>
						<out>59770</out>
						<pproTicksIn>605543662080000</pproTicksIn>
						<pproTicksOut>607301452800000</pproTicksOut>
						<file id="file-54"/>
						<sourcetrack>
							<mediatype>audio</mediatype>
							<trackindex>1</trackindex>
						</sourcetrack>
						<logginginfo>
							<description></description>
							<scene></scene>
							<shottake></shottake>
							<lognote></lognote>
						</logginginfo>
						<labels>
							<label2>Caribbean</label2>
						</labels>
					</clipitem>
					<clipitem id="clipitem-946" premiereChannelType="mono">
						<masterclipid>masterclip-58</masterclipid>
						<name>THOMAS_03.wav</name>
						<enabled>TRUE</enabled>
						<duration>171138</duration>
						<rate>
							<timebase>25</timebase>
							<ntsc>FALSE</ntsc>
						</rate>
						<start>9172</start>
						<end>9280</end>
						<in>59921</in>
						<out>60029</out>
						<pproTicksIn>608835709440000</pproTicksIn>
						<pproTicksOut>609933058560000</pproTicksOut>
						<file id="file-54"/>
						<sourcetrack>
							<mediatype>audio</mediatype>
							<trackindex>1</trackindex>
						</sourcetrack>
						<logginginfo>
							<description></description>
							<scene></scene>
							<shottake></shottake>
							<lognote></lognote>
						</logginginfo>
						<labels>
							<label2>Caribbean</label2>
						</labels>
					</clipitem>
					<clipitem id="clipitem-947" premiereChannelType="mono">
						<masterclipid>masterclip-58</masterclipid>
						<name>THOMAS_03.wav</name>
						<enabled>TRUE</enabled>
						<duration>171138</duration>
						<rate>
							<timebase>25</timebase>
							<ntsc>FALSE</ntsc>
						</rate>
						<start>9280</start>
						<end>9979</end>
						<in>65722</in>
						<out>66421</out>
						<pproTicksIn>667777582080000</pproTicksIn>
						<pproTicksOut>674879869440000</pproTicksOut>
						<file id="file-54"/>
						<sourcetrack>
							<mediatype>audio</mediatype>
							<trackindex>1</trackindex>
						</sourcetrack>
						<logginginfo>
							<description></description>
							<scene></scene>
							<shottake></shottake>
							<lognote></lognote>
						</logginginfo>
						<labels>
							<label2>Caribbean</label2>
						</labels>
					</clipitem>
					<clipitem id="clipitem-948" premiereChannelType="mono">
						<masterclipid>masterclip-58</masterclipid>
						<name>THOMAS_03.wav</name>
						<enabled>TRUE</enabled>
						<duration>171138</duration>
						<rate>
							<timebase>25</timebase>
							<ntsc>FALSE</ntsc>
						</rate>
						<start>9979</start>
						<end>10054</end>
						<in>66518</in>
						<out>66593</out>
						<pproTicksIn>675865451520000</pproTicksIn>
						<pproTicksOut>676627499520000</pproTicksOut>
						<file id="file-54"/>
						<sourcetrack>
							<mediatype>audio</mediatype>
							<trackindex>1</trackindex>
						</sourcetrack>
						<logginginfo>
							<description></description>
							<scene></scene>
							<shottake></shottake>
							<lognote></lognote>
						</logginginfo>
						<labels>
							<label2>Caribbean</label2>
						</labels>
					</clipitem>
					<clipitem id="clipitem-949" premiereChannelType="mono">
						<masterclipid>masterclip-58</masterclipid>
						<name>THOMAS_03.wav</name>
						<enabled>TRUE</enabled>
						<duration>171138</duration>
						<rate>
							<timebase>25</timebase>
							<ntsc>FALSE</ntsc>
						</rate>
						<start>10054</start>
						<end>10901</end>
						<in>67109</in>
						<out>67956</out>
						<pproTicksIn>681870389760000</pproTicksIn>
						<pproTicksOut>690476451840000</pproTicksOut>
						<file id="file-54"/>
						<sourcetrack>
							<mediatype>audio</mediatype>
							<trackindex>1</trackindex>
						</sourcetrack>
						<logginginfo>
							<description></description>
							<scene></scene>
							<shottake></shottake>
							<lognote></lognote>
						</logginginfo>
						<labels>
							<label2>Caribbean</label2>
						</labels>
					</clipitem>
					<clipitem id="clipitem-950" premiereChannelType="mono">
						<masterclipid>masterclip-58</masterclipid>
						<name>THOMAS_03.wav</name>
						<enabled>TRUE</enabled>
						<duration>171138</duration>
						<rate>
							<timebase>25</timebase>
							<ntsc>FALSE</ntsc>
						</rate>
						<start>10901</start>
						<end>11157</end>
						<in>67945</in>
						<out>68201</out>
						<pproTicksIn>690364684800000</pproTicksIn>
						<pproTicksOut>692965808640000</pproTicksOut>
						<file id="file-54"/>
						<sourcetrack>
							<mediatype>audio</mediatype>
							<trackindex>1</trackindex>
						</sourcetrack>
						<logginginfo>
							<description></description>
							<scene></scene>
							<shottake></shottake>
							<lognote></lognote>
						</logginginfo>
						<labels>
							<label2>Caribbean</label2>
						</labels>
					</clipitem>
					<clipitem id="clipitem-951" premiereChannelType="mono">
						<masterclipid>masterclip-58</masterclipid>
						<name>THOMAS_03.wav</name>
						<enabled>TRUE</enabled>
						<duration>171138</duration>
						<rate>
							<timebase>25</timebase>
							<ntsc>FALSE</ntsc>
						</rate>
						<start>11157</start>
						<end>11309</end>
						<in>68218</in>
						<out>68370</out>
						<pproTicksIn>693138539520000</pproTicksIn>
						<pproTicksOut>694682956800000</pproTicksOut>
						<file id="file-54"/>
						<sourcetrack>
							<mediatype>audio</mediatype>
							<trackindex>1</trackindex>
						</sourcetrack>
						<logginginfo>
							<description></description>
							<scene></scene>
							<shottake></shottake>
							<lognote></lognote>
						</logginginfo>
						<labels>
							<label2>Caribbean</label2>
						</labels>
					</clipitem>
					<clipitem id="clipitem-952" premiereChannelType="mono">
						<masterclipid>masterclip-58</masterclipid>
						<name>THOMAS_03.wav</name>
						<enabled>TRUE</enabled>
						<duration>171138</duration>
						<rate>
							<timebase>25</timebase>
							<ntsc>FALSE</ntsc>
						</rate>
						<start>11309</start>
						<end>11781</end>
						<in>68707</in>
						<out>69179</out>
						<pproTicksIn>698107092480000</pproTicksIn>
						<pproTicksOut>702902914560000</pproTicksOut>
						<file id="file-54"/>
						<sourcetrack>
							<mediatype>audio</mediatype>
							<trackindex>1</trackindex>
						</sourcetrack>
						<logginginfo>
							<description></description>
							<scene></scene>
							<shottake></shottake>
							<lognote></lognote>
						</logginginfo>
						<labels>
							<label2>Caribbean</label2>
						</labels>
					</clipitem>
					<clipitem id="clipitem-953" premiereChannelType="mono">
						<masterclipid>masterclip-58</masterclipid>
						<name>THOMAS_03.wav</name>
						<enabled>TRUE</enabled>
						<duration>171138</duration>
						<rate>
							<timebase>25</timebase>
							<ntsc>FALSE</ntsc>
						</rate>
						<start>11781</start>
						<end>12155</end>
						<in>70010</in>
						<out>70384</out>
						<pproTicksIn>711346406400000</pproTicksIn>
						<pproTicksOut>715146485760000</pproTicksOut>
						<file id="file-54"/>
						<sourcetrack>
							<mediatype>audio</mediatype>
							<trackindex>1</trackindex>
						</sourcetrack>
						<logginginfo>
							<description></description>
							<scene></scene>
							<shottake></shottake>
							<lognote></lognote>
						</logginginfo>
						<labels>
							<label2>Caribbean</label2>
						</labels>
					</clipitem>
					<clipitem id="clipitem-954" premiereChannelType="mono">
						<masterclipid>masterclip-58</masterclipid>
						<name>THOMAS_03.wav</name>
						<enabled>TRUE</enabled>
						<duration>171138</duration>
						<rate>
							<timebase>25</timebase>
							<ntsc>FALSE</ntsc>
						</rate>
						<start>12155</start>
						<end>13212</end>
						<in>70448</in>
						<out>71505</out>
						<pproTicksIn>715796766720000</pproTicksIn>
						<pproTicksOut>726536563200000</pproTicksOut>
						<file id="file-54"/>
						<sourcetrack>
							<mediatype>audio</mediatype>
							<trackindex>1</trackindex>
						</sourcetrack>
						<logginginfo>
							<description></description>
							<scene></scene>
							<shottake></shottake>
							<lognote></lognote>
						</logginginfo>
						<labels>
							<label2>Caribbean</label2>
						</labels>
					</clipitem>
					<clipitem id="clipitem-955" premiereChannelType="mono">
						<masterclipid>masterclip-58</masterclipid>
						<name>THOMAS_03.wav</name>
						<enabled>TRUE</enabled>
						<duration>171138</duration>
						<rate>
							<timebase>25</timebase>
							<ntsc>FALSE</ntsc>
						</rate>
						<start>13212</start>
						<end>13343</end>
						<in>71544</in>
						<out>71675</out>
						<pproTicksIn>726932828160000</pproTicksIn>
						<pproTicksOut>728263872000000</pproTicksOut>
						<file id="file-54"/>
						<sourcetrack>
							<mediatype>audio</mediatype>
							<trackindex>1</trackindex>
						</sourcetrack>
						<logginginfo>
							<description></description>
							<scene></scene>
							<shottake></shottake>
							<lognote></lognote>
						</logginginfo>
						<labels>
							<label2>Caribbean</label2>
						</labels>
					</clipitem>
					<clipitem id="clipitem-956" premiereChannelType="mono">
						<masterclipid>masterclip-58</masterclipid>
						<name>THOMAS_03.wav</name>
						<enabled>TRUE</enabled>
						<duration>171138</duration>
						<rate>
							<timebase>25</timebase>
							<ntsc>FALSE</ntsc>
						</rate>
						<start>13359</start>
						<end>13506</end>
						<in>77542</in>
						<out>77689</out>
						<pproTicksIn>787876346880000</pproTicksIn>
						<pproTicksOut>789369960960000</pproTicksOut>
						<file id="file-54"/>
						<sourcetrack>
							<mediatype>audio</mediatype>
							<trackindex>1</trackindex>
						</sourcetrack>
						<logginginfo>
							<description></description>
							<scene></scene>
							<shottake></shottake>
							<lognote></lognote>
						</logginginfo>
						<labels>
							<label2>Caribbean</label2>
						</labels>
					</clipitem>
					<clipitem id="clipitem-957" premiereChannelType="mono">
						<masterclipid>masterclip-58</masterclipid>
						<name>THOMAS_03.wav</name>
						<enabled>TRUE</enabled>
						<duration>171138</duration>
						<rate>
							<timebase>25</timebase>
							<ntsc>FALSE</ntsc>
						</rate>
						<start>13506</start>
						<end>14081</end>
						<in>78019</in>
						<out>78594</out>
						<pproTicksIn>792722972160000</pproTicksIn>
						<pproTicksOut>798565340160000</pproTicksOut>
						<file id="file-54"/>
						<sourcetrack>
							<mediatype>audio</mediatype>
							<trackindex>1</trackindex>
						</sourcetrack>
						<logginginfo>
							<description></description>
							<scene></scene>
							<shottake></shottake>
							<lognote></lognote>
						</logginginfo>
						<labels>
							<label2>Caribbean</label2>
						</labels>
					</clipitem>
					<clipitem id="clipitem-958" premiereChannelType="mono">
						<masterclipid>masterclip-58</masterclipid>
						<name>THOMAS_03.wav</name>
						<enabled>TRUE</enabled>
						<duration>171138</duration>
						<rate>
							<timebase>25</timebase>
							<ntsc>FALSE</ntsc>
						</rate>
						<start>14081</start>
						<end>14232</end>
						<in>78676</in>
						<out>78827</out>
						<pproTicksIn>799398512640000</pproTicksIn>
						<pproTicksOut>800932769280000</pproTicksOut>
						<file id="file-54"/>
						<sourcetrack>
							<mediatype>audio</mediatype>
							<trackindex>1</trackindex>
						</sourcetrack>
						<logginginfo>
							<description></description>
							<scene></scene>
							<shottake></shottake>
							<lognote></lognote>
						</logginginfo>
						<labels>
							<label2>Caribbean</label2>
						</labels>
					</clipitem>
					<clipitem id="clipitem-959" premiereChannelType="mono">
						<masterclipid>masterclip-58</masterclipid>
						<name>THOMAS_03.wav</name>
						<enabled>TRUE</enabled>
						<duration>171138</duration>
						<rate>
							<timebase>25</timebase>
							<ntsc>FALSE</ntsc>
						</rate>
						<start>14232</start>
						<end>14550</end>
						<in>78886</in>
						<out>79204</out>
						<pproTicksIn>801532247040000</pproTicksIn>
						<pproTicksOut>804763330560000</pproTicksOut>
						<file id="file-54"/>
						<sourcetrack>
							<mediatype>audio</mediatype>
							<trackindex>1</trackindex>
						</sourcetrack>
						<logginginfo>
							<description></description>
							<scene></scene>
							<shottake></shottake>
							<lognote></lognote>
						</logginginfo>
						<labels>
							<label2>Caribbean</label2>
						</labels>
					</clipitem>
					<clipitem id="clipitem-960" premiereChannelType="mono">
						<masterclipid>masterclip-58</masterclipid>
						<name>THOMAS_03.wav</name>
						<enabled>TRUE</enabled>
						<duration>171138</duration>
						<rate>
							<timebase>25</timebase>
							<ntsc>FALSE</ntsc>
						</rate>
						<start>14550</start>
						<end>14774</end>
						<in>79562</in>
						<out>79786</out>
						<pproTicksIn>808400839680000</pproTicksIn>
						<pproTicksOut>810676823040000</pproTicksOut>
						<file id="file-54"/>
						<sourcetrack>
							<mediatype>audio</mediatype>
							<trackindex>1</trackindex>
						</sourcetrack>
						<logginginfo>
							<description></description>
							<scene></scene>
							<shottake></shottake>
							<lognote></lognote>
						</logginginfo>
						<labels>
							<label2>Caribbean</label2>
						</labels>
					</clipitem>
					<clipitem id="clipitem-961" premiereChannelType="mono">
						<masterclipid>masterclip-58</masterclipid>
						<name>THOMAS_03.wav</name>
						<enabled>TRUE</enabled>
						<duration>171138</duration>
						<rate>
							<timebase>25</timebase>
							<ntsc>FALSE</ntsc>
						</rate>
						<start>14774</start>
						<end>14798</end>
						<in>79204</in>
						<out>79228</out>
						<pproTicksIn>804763330560000</pproTicksIn>
						<pproTicksOut>805007185920000</pproTicksOut>
						<file id="file-54"/>
						<sourcetrack>
							<mediatype>audio</mediatype>
							<trackindex>1</trackindex>
						</sourcetrack>
						<logginginfo>
							<description></description>
							<scene></scene>
							<shottake></shottake>
							<lognote></lognote>
						</logginginfo>
						<labels>
							<label2>Caribbean</label2>
						</labels>
					</clipitem>
					<clipitem id="clipitem-962" premiereChannelType="mono">
						<masterclipid>masterclip-58</masterclipid>
						<name>THOMAS_03.wav</name>
						<enabled>TRUE</enabled>
						<duration>171138</duration>
						<rate>
							<timebase>25</timebase>
							<ntsc>FALSE</ntsc>
						</rate>
						<start>14798</start>
						<end>14887</end>
						<in>80182</in>
						<out>80271</out>
						<pproTicksIn>814700436480000</pproTicksIn>
						<pproTicksOut>815604733440000</pproTicksOut>
						<file id="file-54"/>
						<sourcetrack>
							<mediatype>audio</mediatype>
							<trackindex>1</trackindex>
						</sourcetrack>
						<logginginfo>
							<description></description>
							<scene></scene>
							<shottake></shottake>
							<lognote></lognote>
						</logginginfo>
						<labels>
							<label2>Caribbean</label2>
						</labels>
					</clipitem>
					<clipitem id="clipitem-963" premiereChannelType="mono">
						<masterclipid>masterclip-58</masterclipid>
						<name>THOMAS_03.wav</name>
						<enabled>TRUE</enabled>
						<duration>171138</duration>
						<rate>
							<timebase>25</timebase>
							<ntsc>FALSE</ntsc>
						</rate>
						<start>14887</start>
						<end>15129</end>
						<in>80569</in>
						<out>80811</out>
						<pproTicksIn>818632604160000</pproTicksIn>
						<pproTicksOut>821091479040000</pproTicksOut>
						<file id="file-54"/>
						<sourcetrack>
							<mediatype>audio</mediatype>
							<trackindex>1</trackindex>
						</sourcetrack>
						<logginginfo>
							<description></description>
							<scene></scene>
							<shottake></shottake>
							<lognote></lognote>
						</logginginfo>
						<labels>
							<label2>Caribbean</label2>
						</labels>
					</clipitem>
					<clipitem id="clipitem-964" premiereChannelType="mono">
						<masterclipid>masterclip-58</masterclipid>
						<name>THOMAS_03.wav</name>
						<enabled>TRUE</enabled>
						<duration>171138</duration>
						<rate>
							<timebase>25</timebase>
							<ntsc>FALSE</ntsc>
						</rate>
						<start>15129</start>
						<end>15493</end>
						<in>80817</in>
						<out>81181</out>
						<pproTicksIn>821152442880000</pproTicksIn>
						<pproTicksOut>824850915840000</pproTicksOut>
						<file id="file-54"/>
						<sourcetrack>
							<mediatype>audio</mediatype>
							<trackindex>1</trackindex>
						</sourcetrack>
						<logginginfo>
							<description></description>
							<scene></scene>
							<shottake></shottake>
							<lognote></lognote>
						</logginginfo>
						<labels>
							<label2>Caribbean</label2>
						</labels>
					</clipitem>
					<clipitem id="clipitem-965" premiereChannelType="mono">
						<masterclipid>masterclip-58</masterclipid>
						<name>THOMAS_03.wav</name>
						<enabled>TRUE</enabled>
						<duration>171138</duration>
						<rate>
							<timebase>25</timebase>
							<ntsc>FALSE</ntsc>
						</rate>
						<start>15493</start>
						<end>15657</end>
						<in>81234</in>
						<out>81398</out>
						<pproTicksIn>825389429760000</pproTicksIn>
						<pproTicksOut>827055774720000</pproTicksOut>
						<file id="file-54"/>
						<sourcetrack>
							<mediatype>audio</mediatype>
							<trackindex>1</trackindex>
						</sourcetrack>
						<logginginfo>
							<description></description>
							<scene></scene>
							<shottake></shottake>
							<lognote></lognote>
						</logginginfo>
						<labels>
							<label2>Caribbean</label2>
						</labels>
					</clipitem>
					<clipitem id="clipitem-966" premiereChannelType="mono">
						<masterclipid>masterclip-58</masterclipid>
						<name>THOMAS_03.wav</name>
						<enabled>TRUE</enabled>
						<duration>171138</duration>
						<rate>
							<timebase>25</timebase>
							<ntsc>FALSE</ntsc>
						</rate>
						<start>15657</start>
						<end>15850</end>
						<in>81563</in>
						<out>81756</out>
						<pproTicksIn>828732280320000</pproTicksIn>
						<pproTicksOut>830693283840000</pproTicksOut>
						<file id="file-54"/>
						<sourcetrack>
							<mediatype>audio</mediatype>
							<trackindex>1</trackindex>
						</sourcetrack>
						<logginginfo>
							<description></description>
							<scene></scene>
							<shottake></shottake>
							<lognote></lognote>
						</logginginfo>
						<labels>
							<label2>Caribbean</label2>
						</labels>
					</clipitem>
					<clipitem id="clipitem-967" premiereChannelType="mono">
						<masterclipid>masterclip-58</masterclipid>
						<name>THOMAS_03.wav</name>
						<enabled>TRUE</enabled>
						<duration>171138</duration>
						<rate>
							<timebase>25</timebase>
							<ntsc>FALSE</ntsc>
						</rate>
						<start>15850</start>
						<end>16018</end>
						<in>81984</in>
						<out>82152</out>
						<pproTicksIn>833009909760000</pproTicksIn>
						<pproTicksOut>834716897280000</pproTicksOut>
						<file id="file-54"/>
						<sourcetrack>
							<mediatype>audio</mediatype>
							<trackindex>1</trackindex>
						</sourcetrack>
						<logginginfo>
							<description></description>
							<scene></scene>
							<shottake></shottake>
							<lognote></lognote>
						</logginginfo>
						<labels>
							<label2>Caribbean</label2>
						</labels>
					</clipitem>
					<clipitem id="clipitem-968" premiereChannelType="mono">
						<masterclipid>masterclip-58</masterclipid>
						<name>THOMAS_03.wav</name>
						<enabled>TRUE</enabled>
						<duration>171138</duration>
						<rate>
							<timebase>25</timebase>
							<ntsc>FALSE</ntsc>
						</rate>
						<start>16018</start>
						<end>16073</end>
						<in>82477</in>
						<out>82532</out>
						<pproTicksIn>838019105280000</pproTicksIn>
						<pproTicksOut>838577940480000</pproTicksOut>
						<file id="file-54"/>
						<sourcetrack>
							<mediatype>audio</mediatype>
							<trackindex>1</trackindex>
						</sourcetrack>
						<logginginfo>
							<description></description>
							<scene></scene>
							<shottake></shottake>
							<lognote></lognote>
						</logginginfo>
						<labels>
							<label2>Caribbean</label2>
						</labels>
					</clipitem>
					<clipitem id="clipitem-969" premiereChannelType="mono">
						<masterclipid>masterclip-58</masterclipid>
						<name>THOMAS_03.wav</name>
						<enabled>TRUE</enabled>
						<duration>171138</duration>
						<rate>
							<timebase>25</timebase>
							<ntsc>FALSE</ntsc>
						</rate>
						<start>16073</start>
						<end>16115</end>
						<in>83437</in>
						<out>83479</out>
						<pproTicksIn>847773319680000</pproTicksIn>
						<pproTicksOut>848200066560000</pproTicksOut>
						<file id="file-54"/>
						<sourcetrack>
							<mediatype>audio</mediatype>
							<trackindex>1</trackindex>
						</sourcetrack>
						<logginginfo>
							<description></description>
							<scene></scene>
							<shottake></shottake>
							<lognote></lognote>
						</logginginfo>
						<labels>
							<label2>Caribbean</label2>
						</labels>
					</clipitem>
					<clipitem id="clipitem-970" premiereChannelType="mono">
						<masterclipid>masterclip-58</masterclipid>
						<name>THOMAS_03.wav</name>
						<enabled>TRUE</enabled>
						<duration>171138</duration>
						<rate>
							<timebase>25</timebase>
							<ntsc>FALSE</ntsc>
						</rate>
						<start>16115</start>
						<end>16204</end>
						<in>83479</in>
						<out>83568</out>
						<pproTicksIn>848200066560000</pproTicksIn>
						<pproTicksOut>849104363520000</pproTicksOut>
						<file id="file-54"/>
						<sourcetrack>
							<mediatype>audio</mediatype>
							<trackindex>1</trackindex>
						</sourcetrack>
						<logginginfo>
							<description></description>
							<scene></scene>
							<shottake></shottake>
							<lognote></lognote>
						</logginginfo>
						<labels>
							<label2>Caribbean</label2>
						</labels>
					</clipitem>
					<clipitem id="clipitem-971" premiereChannelType="mono">
						<masterclipid>masterclip-58</masterclipid>
						<name>THOMAS_03.wav</name>
						<enabled>TRUE</enabled>
						<duration>171138</duration>
						<rate>
							<timebase>25</timebase>
							<ntsc>FALSE</ntsc>
						</rate>
						<start>16204</start>
						<end>16898</end>
						<in>83568</in>
						<out>84262</out>
						<pproTicksIn>849104363520000</pproTicksIn>
						<pproTicksOut>856155847680000</pproTicksOut>
						<file id="file-54"/>
						<sourcetrack>
							<mediatype>audio</mediatype>
							<trackindex>1</trackindex>
						</sourcetrack>
						<logginginfo>
							<description></description>
							<scene></scene>
							<shottake></shottake>
							<lognote></lognote>
						</logginginfo>
						<labels>
							<label2>Caribbean</label2>
						</labels>
					</clipitem>
					<clipitem id="clipitem-972" premiereChannelType="mono">
						<masterclipid>masterclip-58</masterclipid>
						<name>THOMAS_03.wav</name>
						<enabled>TRUE</enabled>
						<duration>171138</duration>
						<rate>
							<timebase>25</timebase>
							<ntsc>FALSE</ntsc>
						</rate>
						<start>16898</start>
						<end>16971</end>
						<in>84282</in>
						<out>84355</out>
						<pproTicksIn>856359060480000</pproTicksIn>
						<pproTicksOut>857100787200000</pproTicksOut>
						<file id="file-54"/>
						<sourcetrack>
							<mediatype>audio</mediatype>
							<trackindex>1</trackindex>
						</sourcetrack>
						<logginginfo>
							<description></description>
							<scene></scene>
							<shottake></shottake>
							<lognote></lognote>
						</logginginfo>
						<labels>
							<label2>Caribbean</label2>
						</labels>
					</clipitem>
					<clipitem id="clipitem-973" premiereChannelType="mono">
						<masterclipid>masterclip-58</masterclipid>
						<name>THOMAS_03.wav</name>
						<enabled>TRUE</enabled>
						<duration>171138</duration>
						<rate>
							<timebase>25</timebase>
							<ntsc>FALSE</ntsc>
						</rate>
						<start>16971</start>
						<end>17329</end>
						<in>84400</in>
						<out>84758</out>
						<pproTicksIn>857558016000000</pproTicksIn>
						<pproTicksOut>861195525120000</pproTicksOut>
						<file id="file-54"/>
						<sourcetrack>
							<mediatype>audio</mediatype>
							<trackindex>1</trackindex>
						</sourcetrack>
						<logginginfo>
							<description></description>
							<scene></scene>
							<shottake></shottake>
							<lognote></lognote>
						</logginginfo>
						<labels>
							<label2>Caribbean</label2>
						</labels>
					</clipitem>
					<clipitem id="clipitem-974" premiereChannelType="mono">
						<masterclipid>masterclip-58</masterclipid>
						<name>THOMAS_03.wav</name>
						<enabled>TRUE</enabled>
						<duration>171138</duration>
						<rate>
							<timebase>25</timebase>
							<ntsc>FALSE</ntsc>
						</rate>
						<start>17329</start>
						<end>17417</end>
						<in>85268</in>
						<out>85356</out>
						<pproTicksIn>866377451520000</pproTicksIn>
						<pproTicksOut>867271587840000</pproTicksOut>
						<file id="file-54"/>
						<sourcetrack>
							<mediatype>audio</mediatype>
							<trackindex>1</trackindex>
						</sourcetrack>
						<logginginfo>
							<description></description>
							<scene></scene>
							<shottake></shottake>
							<lognote></lognote>
						</logginginfo>
						<labels>
							<label2>Caribbean</label2>
						</labels>
					</clipitem>
					<clipitem id="clipitem-975" premiereChannelType="mono">
						<masterclipid>masterclip-58</masterclipid>
						<name>THOMAS_03.wav</name>
						<enabled>TRUE</enabled>
						<duration>171138</duration>
						<rate>
							<timebase>25</timebase>
							<ntsc>FALSE</ntsc>
						</rate>
						<start>17417</start>
						<end>17611</end>
						<in>85074</in>
						<out>85268</out>
						<pproTicksIn>864406287360000</pproTicksIn>
						<pproTicksOut>866377451520000</pproTicksOut>
						<file id="file-54"/>
						<sourcetrack>
							<mediatype>audio</mediatype>
							<trackindex>1</trackindex>
						</sourcetrack>
						<logginginfo>
							<description></description>
							<scene></scene>
							<shottake></shottake>
							<lognote></lognote>
						</logginginfo>
						<labels>
							<label2>Caribbean</label2>
						</labels>
					</clipitem>
					<clipitem id="clipitem-976" premiereChannelType="mono">
						<masterclipid>masterclip-58</masterclipid>
						<name>THOMAS_03.wav</name>
						<enabled>TRUE</enabled>
						<duration>171138</duration>
						<rate>
							<timebase>25</timebase>
							<ntsc>FALSE</ntsc>
						</rate>
						<start>17611</start>
						<end>17830</end>
						<in>85560</in>
						<out>85779</out>
						<pproTicksIn>869344358400000</pproTicksIn>
						<pproTicksOut>871569538560000</pproTicksOut>
						<file id="file-54"/>
						<sourcetrack>
							<mediatype>audio</mediatype>
							<trackindex>1</trackindex>
						</sourcetrack>
						<logginginfo>
							<description></description>
							<scene></scene>
							<shottake></shottake>
							<lognote></lognote>
						</logginginfo>
						<labels>
							<label2>Caribbean</label2>
						</labels>
					</clipitem>
					<clipitem id="clipitem-977" premiereChannelType="mono">
						<masterclipid>masterclip-58</masterclipid>
						<name>THOMAS_03.wav</name>
						<enabled>TRUE</enabled>
						<duration>171138</duration>
						<rate>
							<timebase>25</timebase>
							<ntsc>FALSE</ntsc>
						</rate>
						<start>17830</start>
						<end>17876</end>
						<in>83479</in>
						<out>83525</out>
						<pproTicksIn>848200066560000</pproTicksIn>
						<pproTicksOut>848667456000000</pproTicksOut>
						<file id="file-54"/>
						<sourcetrack>
							<mediatype>audio</mediatype>
							<trackindex>1</trackindex>
						</sourcetrack>
						<logginginfo>
							<description></description>
							<scene></scene>
							<shottake></shottake>
							<lognote></lognote>
						</logginginfo>
						<labels>
							<label2>Caribbean</label2>
						</labels>
					</clipitem>
					<clipitem id="clipitem-978" premiereChannelType="mono">
						<masterclipid>masterclip-58</masterclipid>
						<name>THOMAS_03.wav</name>
						<enabled>TRUE</enabled>
						<duration>171138</duration>
						<rate>
							<timebase>25</timebase>
							<ntsc>FALSE</ntsc>
						</rate>
						<start>17876</start>
						<end>18012</end>
						<in>85841</in>
						<out>85977</out>
						<pproTicksIn>872199498240000</pproTicksIn>
						<pproTicksOut>873581345280000</pproTicksOut>
						<file id="file-54"/>
						<sourcetrack>
							<mediatype>audio</mediatype>
							<trackindex>1</trackindex>
						</sourcetrack>
						<logginginfo>
							<description></description>
							<scene></scene>
							<shottake></shottake>
							<lognote></lognote>
						</logginginfo>
						<labels>
							<label2>Caribbean</label2>
						</labels>
					</clipitem>
					<clipitem id="clipitem-979" premiereChannelType="mono">
						<masterclipid>masterclip-58</masterclipid>
						<name>THOMAS_03.wav</name>
						<enabled>TRUE</enabled>
						<duration>171138</duration>
						<rate>
							<timebase>25</timebase>
							<ntsc>FALSE</ntsc>
						</rate>
						<start>18012</start>
						<end>18158</end>
						<in>116811</in>
						<out>116957</out>
						<pproTicksIn>1186874519040000</pproTicksIn>
						<pproTicksOut>1188357972480000</pproTicksOut>
						<file id="file-54"/>
						<sourcetrack>
							<mediatype>audio</mediatype>
							<trackindex>1</trackindex>
						</sourcetrack>
						<logginginfo>
							<description></description>
							<scene></scene>
							<shottake></shottake>
							<lognote></lognote>
						</logginginfo>
						<labels>
							<label2>Caribbean</label2>
						</labels>
					</clipitem>
					<clipitem id="clipitem-980" premiereChannelType="mono">
						<masterclipid>masterclip-58</masterclipid>
						<name>THOMAS_03.wav</name>
						<enabled>TRUE</enabled>
						<duration>171138</duration>
						<rate>
							<timebase>25</timebase>
							<ntsc>FALSE</ntsc>
						</rate>
						<start>18158</start>
						<end>18332</end>
						<in>86150</in>
						<out>86324</out>
						<pproTicksIn>875339136000000</pproTicksIn>
						<pproTicksOut>877107087360000</pproTicksOut>
						<file id="file-54"/>
						<sourcetrack>
							<mediatype>audio</mediatype>
							<trackindex>1</trackindex>
						</sourcetrack>
						<logginginfo>
							<description></description>
							<scene></scene>
							<shottake></shottake>
							<lognote></lognote>
						</logginginfo>
						<labels>
							<label2>Caribbean</label2>
						</labels>
					</clipitem>
					<clipitem id="clipitem-981" premiereChannelType="mono">
						<masterclipid>masterclip-58</masterclipid>
						<name>THOMAS_03.wav</name>
						<enabled>TRUE</enabled>
						<duration>171138</duration>
						<rate>
							<timebase>25</timebase>
							<ntsc>FALSE</ntsc>
						</rate>
						<start>18332</start>
						<end>22265</end>
						<in>87920</in>
						<out>91853</out>
						<pproTicksIn>893323468800000</pproTicksIn>
						<pproTicksOut>933285265920000</pproTicksOut>
						<file id="file-54"/>
						<sourcetrack>
							<mediatype>audio</mediatype>
							<trackindex>1</trackindex>
						</sourcetrack>
						<logginginfo>
							<description></description>
							<scene></scene>
							<shottake></shottake>
							<lognote></lognote>
						</logginginfo>
						<labels>
							<label2>Caribbean</label2>
						</labels>
					</clipitem>
					<clipitem id="clipitem-982" premiereChannelType="mono">
						<masterclipid>masterclip-58</masterclipid>
						<name>THOMAS_03.wav</name>
						<enabled>TRUE</enabled>
						<duration>171138</duration>
						<rate>
							<timebase>25</timebase>
							<ntsc>FALSE</ntsc>
						</rate>
						<start>22265</start>
						<end>23367</end>
						<in>91952</in>
						<out>93054</out>
						<pproTicksIn>934291169280000</pproTicksIn>
						<pproTicksOut>945488194560000</pproTicksOut>
						<file id="file-54"/>
						<sourcetrack>
							<mediatype>audio</mediatype>
							<trackindex>1</trackindex>
						</sourcetrack>
						<logginginfo>
							<description></description>
							<scene></scene>
							<shottake></shottake>
							<lognote></lognote>
						</logginginfo>
						<labels>
							<label2>Caribbean</label2>
						</labels>
					</clipitem>
					<clipitem id="clipitem-983" premiereChannelType="mono">
						<masterclipid>masterclip-58</masterclipid>
						<name>THOMAS_03.wav</name>
						<enabled>TRUE</enabled>
						<duration>171138</duration>
						<rate>
							<timebase>25</timebase>
							<ntsc>FALSE</ntsc>
						</rate>
						<start>23367</start>
						<end>23724</end>
						<in>93377</in>
						<out>93734</out>
						<pproTicksIn>948770081280000</pproTicksIn>
						<pproTicksOut>952397429760000</pproTicksOut>
						<file id="file-54"/>
						<sourcetrack>
							<mediatype>audio</mediatype>
							<trackindex>1</trackindex>
						</sourcetrack>
						<logginginfo>
							<description></description>
							<scene></scene>
							<shottake></shottake>
							<lognote></lognote>
						</logginginfo>
						<labels>
							<label2>Caribbean</label2>
						</labels>
					</clipitem>
					<clipitem id="clipitem-984" premiereChannelType="mono">
						<masterclipid>masterclip-58</masterclipid>
						<name>THOMAS_03.wav</name>
						<enabled>TRUE</enabled>
						<duration>171138</duration>
						<rate>
							<timebase>25</timebase>
							<ntsc>FALSE</ntsc>
						</rate>
						<start>23724</start>
						<end>24114</end>
						<in>94350</in>
						<out>94740</out>
						<pproTicksIn>958656384000000</pproTicksIn>
						<pproTicksOut>962619033600000</pproTicksOut>
						<file id="file-54"/>
						<sourcetrack>
							<mediatype>audio</mediatype>
							<trackindex>1</trackindex>
						</sourcetrack>
						<logginginfo>
							<description></description>
							<scene></scene>
							<shottake></shottake>
							<lognote></lognote>
						</logginginfo>
						<labels>
							<label2>Caribbean</label2>
						</labels>
					</clipitem>
					<clipitem id="clipitem-985" premiereChannelType="mono">
						<masterclipid>masterclip-58</masterclipid>
						<name>THOMAS_03.wav</name>
						<enabled>TRUE</enabled>
						<duration>171138</duration>
						<rate>
							<timebase>25</timebase>
							<ntsc>FALSE</ntsc>
						</rate>
						<start>24114</start>
						<end>24241</end>
						<in>94797</in>
						<out>94924</out>
						<pproTicksIn>963198190080000</pproTicksIn>
						<pproTicksOut>964488591360000</pproTicksOut>
						<file id="file-54"/>
						<sourcetrack>
							<mediatype>audio</mediatype>
							<trackindex>1</trackindex>
						</sourcetrack>
						<logginginfo>
							<description></description>
							<scene></scene>
							<shottake></shottake>
							<lognote></lognote>
						</logginginfo>
						<labels>
							<label2>Caribbean</label2>
						</labels>
					</clipitem>
					<clipitem id="clipitem-986" premiereChannelType="mono">
						<masterclipid>masterclip-58</masterclipid>
						<name>THOMAS_03.wav</name>
						<enabled>TRUE</enabled>
						<duration>171138</duration>
						<rate>
							<timebase>25</timebase>
							<ntsc>FALSE</ntsc>
						</rate>
						<start>24241</start>
						<end>24388</end>
						<in>95094</in>
						<out>95241</out>
						<pproTicksIn>966215900160000</pproTicksIn>
						<pproTicksOut>967709514240000</pproTicksOut>
						<file id="file-54"/>
						<sourcetrack>
							<mediatype>audio</mediatype>
							<trackindex>1</trackindex>
						</sourcetrack>
						<logginginfo>
							<description></description>
							<scene></scene>
							<shottake></shottake>
							<lognote></lognote>
						</logginginfo>
						<labels>
							<label2>Caribbean</label2>
						</labels>
					</clipitem>
					<clipitem id="clipitem-987" premiereChannelType="mono">
						<masterclipid>masterclip-58</masterclipid>
						<name>THOMAS_03.wav</name>
						<enabled>TRUE</enabled>
						<duration>171138</duration>
						<rate>
							<timebase>25</timebase>
							<ntsc>FALSE</ntsc>
						</rate>
						<start>24388</start>
						<end>24600</end>
						<in>95265</in>
						<out>95477</out>
						<pproTicksIn>967953369600000</pproTicksIn>
						<pproTicksOut>970107425280000</pproTicksOut>
						<file id="file-54"/>
						<sourcetrack>
							<mediatype>audio</mediatype>
							<trackindex>1</trackindex>
						</sourcetrack>
						<logginginfo>
							<description></description>
							<scene></scene>
							<shottake></shottake>
							<lognote></lognote>
						</logginginfo>
						<labels>
							<label2>Caribbean</label2>
						</labels>
					</clipitem>
					<clipitem id="clipitem-988" premiereChannelType="mono">
						<masterclipid>masterclip-58</masterclipid>
						<name>THOMAS_03.wav</name>
						<enabled>TRUE</enabled>
						<duration>171138</duration>
						<rate>
							<timebase>25</timebase>
							<ntsc>FALSE</ntsc>
						</rate>
						<start>24600</start>
						<end>24872</end>
						<in>95504</in>
						<out>95776</out>
						<pproTicksIn>970381762560000</pproTicksIn>
						<pproTicksOut>973145456640000</pproTicksOut>
						<file id="file-54"/>
						<sourcetrack>
							<mediatype>audio</mediatype>
							<trackindex>1</trackindex>
						</sourcetrack>
						<logginginfo>
							<description></description>
							<scene></scene>
							<shottake></shottake>
							<lognote></lognote>
						</logginginfo>
						<labels>
							<label2>Caribbean</label2>
						</labels>
					</clipitem>
					<clipitem id="clipitem-989" premiereChannelType="mono">
						<masterclipid>masterclip-58</masterclipid>
						<name>THOMAS_03.wav</name>
						<enabled>TRUE</enabled>
						<duration>171138</duration>
						<rate>
							<timebase>25</timebase>
							<ntsc>FALSE</ntsc>
						</rate>
						<start>24872</start>
						<end>26291</end>
						<in>95789</in>
						<out>97208</out>
						<pproTicksIn>973277544960000</pproTicksIn>
						<pproTicksOut>987695493120000</pproTicksOut>
						<file id="file-54"/>
						<sourcetrack>
							<mediatype>audio</mediatype>
							<trackindex>1</trackindex>
						</sourcetrack>
						<logginginfo>
							<description></description>
							<scene></scene>
							<shottake></shottake>
							<lognote></lognote>
						</logginginfo>
						<labels>
							<label2>Caribbean</label2>
						</labels>
					</clipitem>
					<clipitem id="clipitem-990" premiereChannelType="mono">
						<masterclipid>masterclip-58</masterclipid>
						<name>THOMAS_03.wav</name>
						<enabled>TRUE</enabled>
						<duration>171138</duration>
						<rate>
							<timebase>25</timebase>
							<ntsc>FALSE</ntsc>
						</rate>
						<start>26291</start>
						<end>26387</end>
						<in>97273</in>
						<out>97369</out>
						<pproTicksIn>988355934720000</pproTicksIn>
						<pproTicksOut>989331356160000</pproTicksOut>
						<file id="file-54"/>
						<sourcetrack>
							<mediatype>audio</mediatype>
							<trackindex>1</trackindex>
						</sourcetrack>
						<logginginfo>
							<description></description>
							<scene></scene>
							<shottake></shottake>
							<lognote></lognote>
						</logginginfo>
						<labels>
							<label2>Caribbean</label2>
						</labels>
					</clipitem>
					<clipitem id="clipitem-991" premiereChannelType="mono">
						<masterclipid>masterclip-58</masterclipid>
						<name>THOMAS_03.wav</name>
						<enabled>TRUE</enabled>
						<duration>171138</duration>
						<rate>
							<timebase>25</timebase>
							<ntsc>FALSE</ntsc>
						</rate>
						<start>26387</start>
						<end>27111</end>
						<in>97523</in>
						<out>98247</out>
						<pproTicksIn>990896094720000</pproTicksIn>
						<pproTicksOut>998252398080000</pproTicksOut>
						<file id="file-54"/>
						<sourcetrack>
							<mediatype>audio</mediatype>
							<trackindex>1</trackindex>
						</sourcetrack>
						<logginginfo>
							<description></description>
							<scene></scene>
							<shottake></shottake>
							<lognote></lognote>
						</logginginfo>
						<labels>
							<label2>Caribbean</label2>
						</labels>
					</clipitem>
					<clipitem id="clipitem-992" premiereChannelType="mono">
						<masterclipid>masterclip-58</masterclipid>
						<name>THOMAS_03.wav</name>
						<enabled>TRUE</enabled>
						<duration>171138</duration>
						<rate>
							<timebase>25</timebase>
							<ntsc>FALSE</ntsc>
						</rate>
						<start>27111</start>
						<end>27316</end>
						<in>98260</in>
						<out>98465</out>
						<pproTicksIn>998384486400000</pproTicksIn>
						<pproTicksOut>1000467417600000</pproTicksOut>
						<file id="file-54"/>
						<sourcetrack>
							<mediatype>audio</mediatype>
							<trackindex>1</trackindex>
						</sourcetrack>
						<logginginfo>
							<description></description>
							<scene></scene>
							<shottake></shottake>
							<lognote></lognote>
						</logginginfo>
						<labels>
							<label2>Caribbean</label2>
						</labels>
					</clipitem>
					<clipitem id="clipitem-993" premiereChannelType="mono">
						<masterclipid>masterclip-58</masterclipid>
						<name>THOMAS_03.wav</name>
						<enabled>TRUE</enabled>
						<duration>171138</duration>
						<rate>
							<timebase>25</timebase>
							<ntsc>FALSE</ntsc>
						</rate>
						<start>27316</start>
						<end>27702</end>
						<in>98958</in>
						<out>99344</out>
						<pproTicksIn>1005476613120000</pproTicksIn>
						<pproTicksOut>1009398620160000</pproTicksOut>
						<file id="file-54"/>
						<sourcetrack>
							<mediatype>audio</mediatype>
							<trackindex>1</trackindex>
						</sourcetrack>
						<logginginfo>
							<description></description>
							<scene></scene>
							<shottake></shottake>
							<lognote></lognote>
						</logginginfo>
						<labels>
							<label2>Caribbean</label2>
						</labels>
					</clipitem>
					<clipitem id="clipitem-994" premiereChannelType="mono">
						<masterclipid>masterclip-58</masterclipid>
						<name>THOMAS_03.wav</name>
						<enabled>TRUE</enabled>
						<duration>171138</duration>
						<rate>
							<timebase>25</timebase>
							<ntsc>FALSE</ntsc>
						</rate>
						<start>27702</start>
						<end>27789</end>
						<in>99640</in>
						<out>99727</out>
						<pproTicksIn>1012406169600000</pproTicksIn>
						<pproTicksOut>1013290145280000</pproTicksOut>
						<file id="file-54"/>
						<sourcetrack>
							<mediatype>audio</mediatype>
							<trackindex>1</trackindex>
						</sourcetrack>
						<logginginfo>
							<description></description>
							<scene></scene>
							<shottake></shottake>
							<lognote></lognote>
						</logginginfo>
						<labels>
							<label2>Caribbean</label2>
						</labels>
					</clipitem>
					<clipitem id="clipitem-995" premiereChannelType="mono">
						<masterclipid>masterclip-58</masterclipid>
						<name>THOMAS_03.wav</name>
						<enabled>TRUE</enabled>
						<duration>171138</duration>
						<rate>
							<timebase>25</timebase>
							<ntsc>FALSE</ntsc>
						</rate>
						<start>27789</start>
						<end>29601</end>
						<in>99831</in>
						<out>101643</out>
						<pproTicksIn>1014346851840000</pproTicksIn>
						<pproTicksOut>1032757931520000</pproTicksOut>
						<file id="file-54"/>
						<sourcetrack>
							<mediatype>audio</mediatype>
							<trackindex>1</trackindex>
						</sourcetrack>
						<logginginfo>
							<description></description>
							<scene></scene>
							<shottake></shottake>
							<lognote></lognote>
						</logginginfo>
						<labels>
							<label2>Caribbean</label2>
						</labels>
					</clipitem>
					<clipitem id="clipitem-996" premiereChannelType="mono">
						<masterclipid>masterclip-58</masterclipid>
						<name>THOMAS_03.wav</name>
						<enabled>TRUE</enabled>
						<duration>171138</duration>
						<rate>
							<timebase>25</timebase>
							<ntsc>FALSE</ntsc>
						</rate>
						<start>29601</start>
						<end>29693</end>
						<in>102540</in>
						<out>102632</out>
						<pproTicksIn>1041872025600000</pproTicksIn>
						<pproTicksOut>1042806804480000</pproTicksOut>
						<file id="file-54"/>
						<sourcetrack>
							<mediatype>audio</mediatype>
							<trackindex>1</trackindex>
						</sourcetrack>
						<logginginfo>
							<description></description>
							<scene></scene>
							<shottake></shottake>
							<lognote></lognote>
						</logginginfo>
						<labels>
							<label2>Caribbean</label2>
						</labels>
					</clipitem>
					<clipitem id="clipitem-997" premiereChannelType="mono">
						<masterclipid>masterclip-58</masterclipid>
						<name>THOMAS_03.wav</name>
						<enabled>TRUE</enabled>
						<duration>171138</duration>
						<rate>
							<timebase>25</timebase>
							<ntsc>FALSE</ntsc>
						</rate>
						<start>29693</start>
						<end>29760</end>
						<in>103317</in>
						<out>103384</out>
						<pproTicksIn>1049766842880000</pproTicksIn>
						<pproTicksOut>1050447605760000</pproTicksOut>
						<file id="file-54"/>
						<sourcetrack>
							<mediatype>audio</mediatype>
							<trackindex>1</trackindex>
						</sourcetrack>
						<logginginfo>
							<description></description>
							<scene></scene>
							<shottake></shottake>
							<lognote></lognote>
						</logginginfo>
						<labels>
							<label2>Caribbean</label2>
						</labels>
					</clipitem>
					<clipitem id="clipitem-998" premiereChannelType="mono">
						<masterclipid>masterclip-58</masterclipid>
						<name>THOMAS_03.wav</name>
						<enabled>TRUE</enabled>
						<duration>171138</duration>
						<rate>
							<timebase>25</timebase>
							<ntsc>FALSE</ntsc>
						</rate>
						<start>29760</start>
						<end>29774</end>
						<in>103438</in>
						<out>103452</out>
						<pproTicksIn>1050996280320000</pproTicksIn>
						<pproTicksOut>1051138529280000</pproTicksOut>
						<file id="file-54"/>
						<sourcetrack>
							<mediatype>audio</mediatype>
							<trackindex>1</trackindex>
						</sourcetrack>
						<logginginfo>
							<description></description>
							<scene></scene>
							<shottake></shottake>
							<lognote></lognote>
						</logginginfo>
						<labels>
							<label2>Caribbean</label2>
						</labels>
					</clipitem>
					<clipitem id="clipitem-999" premiereChannelType="mono">
						<masterclipid>masterclip-58</masterclipid>
						<name>THOMAS_03.wav</name>
						<enabled>TRUE</enabled>
						<duration>171138</duration>
						<rate>
							<timebase>25</timebase>
							<ntsc>FALSE</ntsc>
						</rate>
						<start>29774</start>
						<end>29865</end>
						<in>107326</in>
						<out>107417</out>
						<pproTicksIn>1090500848640000</pproTicksIn>
						<pproTicksOut>1091425466880000</pproTicksOut>
						<file id="file-54"/>
						<sourcetrack>
							<mediatype>audio</mediatype>
							<trackindex>1</trackindex>
						</sourcetrack>
						<logginginfo>
							<description></description>
							<scene></scene>
							<shottake></shottake>
							<lognote></lognote>
						</logginginfo>
						<labels>
							<label2>Caribbean</label2>
						</labels>
					</clipitem>
					<clipitem id="clipitem-1000" premiereChannelType="mono">
						<masterclipid>masterclip-58</masterclipid>
						<name>THOMAS_03.wav</name>
						<enabled>TRUE</enabled>
						<duration>171138</duration>
						<rate>
							<timebase>25</timebase>
							<ntsc>FALSE</ntsc>
						</rate>
						<start>29865</start>
						<end>30769</end>
						<in>107708</in>
						<out>108612</out>
						<pproTicksIn>1094382213120000</pproTicksIn>
						<pproTicksOut>1103567431680000</pproTicksOut>
						<file id="file-54"/>
						<sourcetrack>
							<mediatype>audio</mediatype>
							<trackindex>1</trackindex>
						</sourcetrack>
						<logginginfo>
							<description></description>
							<scene></scene>
							<shottake></shottake>
							<lognote></lognote>
						</logginginfo>
						<labels>
							<label2>Caribbean</label2>
						</labels>
					</clipitem>
					<clipitem id="clipitem-1001" premiereChannelType="mono">
						<masterclipid>masterclip-58</masterclipid>
						<name>THOMAS_03.wav</name>
						<enabled>TRUE</enabled>
						<duration>171138</duration>
						<rate>
							<timebase>25</timebase>
							<ntsc>FALSE</ntsc>
						</rate>
						<start>30769</start>
						<end>30880</end>
						<in>108644</in>
						<out>108755</out>
						<pproTicksIn>1103892572160000</pproTicksIn>
						<pproTicksOut>1105020403200000</pproTicksOut>
						<file id="file-54"/>
						<sourcetrack>
							<mediatype>audio</mediatype>
							<trackindex>1</trackindex>
						</sourcetrack>
						<logginginfo>
							<description></description>
							<scene></scene>
							<shottake></shottake>
							<lognote></lognote>
						</logginginfo>
						<labels>
							<label2>Caribbean</label2>
						</labels>
					</clipitem>
					<clipitem id="clipitem-1002" premiereChannelType="mono">
						<masterclipid>masterclip-58</masterclipid>
						<name>THOMAS_03.wav</name>
						<enabled>TRUE</enabled>
						<duration>171138</duration>
						<rate>
							<timebase>25</timebase>
							<ntsc>FALSE</ntsc>
						</rate>
						<start>30880</start>
						<end>31513</end>
						<in>108776</in>
						<out>109409</out>
						<pproTicksIn>1105233776640000</pproTicksIn>
						<pproTicksOut>1111665461760000</pproTicksOut>
						<file id="file-54"/>
						<sourcetrack>
							<mediatype>audio</mediatype>
							<trackindex>1</trackindex>
						</sourcetrack>
						<logginginfo>
							<description></description>
							<scene></scene>
							<shottake></shottake>
							<lognote></lognote>
						</logginginfo>
						<labels>
							<label2>Caribbean</label2>
						</labels>
					</clipitem>
					<clipitem id="clipitem-1003" premiereChannelType="mono">
						<masterclipid>masterclip-58</masterclipid>
						<name>THOMAS_03.wav</name>
						<enabled>TRUE</enabled>
						<duration>171138</duration>
						<rate>
							<timebase>25</timebase>
							<ntsc>FALSE</ntsc>
						</rate>
						<start>31513</start>
						<end>31909</end>
						<in>109447</in>
						<out>109843</out>
						<pproTicksIn>1112051566080000</pproTicksIn>
						<pproTicksOut>1116075179520000</pproTicksOut>
						<file id="file-54"/>
						<sourcetrack>
							<mediatype>audio</mediatype>
							<trackindex>1</trackindex>
						</sourcetrack>
						<logginginfo>
							<description></description>
							<scene></scene>
							<shottake></shottake>
							<lognote></lognote>
						</logginginfo>
						<labels>
							<label2>Caribbean</label2>
						</labels>
					</clipitem>
					<clipitem id="clipitem-1004" premiereChannelType="mono">
						<masterclipid>masterclip-58</masterclipid>
						<name>THOMAS_03.wav</name>
						<enabled>TRUE</enabled>
						<duration>171138</duration>
						<rate>
							<timebase>25</timebase>
							<ntsc>FALSE</ntsc>
						</rate>
						<start>31909</start>
						<end>32128</end>
						<in>109926</in>
						<out>110145</out>
						<pproTicksIn>1116918512640000</pproTicksIn>
						<pproTicksOut>1119143692800000</pproTicksOut>
						<file id="file-54"/>
						<sourcetrack>
							<mediatype>audio</mediatype>
							<trackindex>1</trackindex>
						</sourcetrack>
						<logginginfo>
							<description></description>
							<scene></scene>
							<shottake></shottake>
							<lognote></lognote>
						</logginginfo>
						<labels>
							<label2>Caribbean</label2>
						</labels>
					</clipitem>
					<clipitem id="clipitem-1005" premiereChannelType="mono">
						<masterclipid>masterclip-58</masterclipid>
						<name>THOMAS_03.wav</name>
						<enabled>TRUE</enabled>
						<duration>171138</duration>
						<rate>
							<timebase>25</timebase>
							<ntsc>FALSE</ntsc>
						</rate>
						<start>32128</start>
						<end>32853</end>
						<in>111277</in>
						<out>112002</out>
						<pproTicksIn>1130645537280000</pproTicksIn>
						<pproTicksOut>1138012001280000</pproTicksOut>
						<file id="file-54"/>
						<sourcetrack>
							<mediatype>audio</mediatype>
							<trackindex>1</trackindex>
						</sourcetrack>
						<logginginfo>
							<description></description>
							<scene></scene>
							<shottake></shottake>
							<lognote></lognote>
						</logginginfo>
						<labels>
							<label2>Caribbean</label2>
						</labels>
					</clipitem>
					<clipitem id="clipitem-1006" premiereChannelType="mono">
						<masterclipid>masterclip-58</masterclipid>
						<name>THOMAS_03.wav</name>
						<enabled>TRUE</enabled>
						<duration>171138</duration>
						<rate>
							<timebase>25</timebase>
							<ntsc>FALSE</ntsc>
						</rate>
						<start>32853</start>
						<end>32890</end>
						<in>112002</in>
						<out>112039</out>
						<pproTicksIn>1138012001280000</pproTicksIn>
						<pproTicksOut>1138387944960000</pproTicksOut>
						<file id="file-54"/>
						<sourcetrack>
							<mediatype>audio</mediatype>
							<trackindex>1</trackindex>
						</sourcetrack>
						<logginginfo>
							<description></description>
							<scene></scene>
							<shottake></shottake>
							<lognote></lognote>
						</logginginfo>
						<labels>
							<label2>Caribbean</label2>
						</labels>
					</clipitem>
					<clipitem id="clipitem-1007" premiereChannelType="mono">
						<masterclipid>masterclip-58</masterclipid>
						<name>THOMAS_03.wav</name>
						<enabled>TRUE</enabled>
						<duration>171138</duration>
						<rate>
							<timebase>25</timebase>
							<ntsc>FALSE</ntsc>
						</rate>
						<start>32890</start>
						<end>33281</end>
						<in>115277</in>
						<out>115668</out>
						<pproTicksIn>1171288097280000</pproTicksIn>
						<pproTicksOut>1175260907520000</pproTicksOut>
						<file id="file-54"/>
						<sourcetrack>
							<mediatype>audio</mediatype>
							<trackindex>1</trackindex>
						</sourcetrack>
						<logginginfo>
							<description></description>
							<scene></scene>
							<shottake></shottake>
							<lognote></lognote>
						</logginginfo>
						<labels>
							<label2>Caribbean</label2>
						</labels>
					</clipitem>
					<clipitem id="clipitem-1008" premiereChannelType="mono">
						<masterclipid>masterclip-58</masterclipid>
						<name>THOMAS_03.wav</name>
						<enabled>TRUE</enabled>
						<duration>171138</duration>
						<rate>
							<timebase>25</timebase>
							<ntsc>FALSE</ntsc>
						</rate>
						<start>33281</start>
						<end>33357</end>
						<in>116203</in>
						<out>116279</out>
						<pproTicksIn>1180696849920000</pproTicksIn>
						<pproTicksOut>1181469058560000</pproTicksOut>
						<file id="file-54"/>
						<sourcetrack>
							<mediatype>audio</mediatype>
							<trackindex>1</trackindex>
						</sourcetrack>
						<logginginfo>
							<description></description>
							<scene></scene>
							<shottake></shottake>
							<lognote></lognote>
						</logginginfo>
						<labels>
							<label2>Caribbean</label2>
						</labels>
					</clipitem>
					<clipitem id="clipitem-1009" premiereChannelType="mono">
						<masterclipid>masterclip-58</masterclipid>
						<name>THOMAS_03.wav</name>
						<enabled>TRUE</enabled>
						<duration>171138</duration>
						<rate>
							<timebase>25</timebase>
							<ntsc>FALSE</ntsc>
						</rate>
						<start>33357</start>
						<end>33465</end>
						<in>116298</in>
						<out>116406</out>
						<pproTicksIn>1181662110720000</pproTicksIn>
						<pproTicksOut>1182759459840000</pproTicksOut>
						<file id="file-54"/>
						<sourcetrack>
							<mediatype>audio</mediatype>
							<trackindex>1</trackindex>
						</sourcetrack>
						<logginginfo>
							<description></description>
							<scene></scene>
							<shottake></shottake>
							<lognote></lognote>
						</logginginfo>
						<labels>
							<label2>Caribbean</label2>
						</labels>
					</clipitem>
					<clipitem id="clipitem-1010" premiereChannelType="mono">
						<masterclipid>masterclip-58</masterclipid>
						<name>THOMAS_03.wav</name>
						<enabled>TRUE</enabled>
						<duration>171138</duration>
						<rate>
							<timebase>25</timebase>
							<ntsc>FALSE</ntsc>
						</rate>
						<start>33465</start>
						<end>33766</end>
						<in>116510</in>
						<out>116811</out>
						<pproTicksIn>1183816166400000</pproTicksIn>
						<pproTicksOut>1186874519040000</pproTicksOut>
						<file id="file-54"/>
						<sourcetrack>
							<mediatype>audio</mediatype>
							<trackindex>1</trackindex>
						</sourcetrack>
						<logginginfo>
							<description></description>
							<scene></scene>
							<shottake></shottake>
							<lognote></lognote>
						</logginginfo>
						<labels>
							<label2>Caribbean</label2>
						</labels>
					</clipitem>
					<clipitem id="clipitem-1011" premiereChannelType="mono">
						<masterclipid>masterclip-58</masterclipid>
						<name>THOMAS_03.wav</name>
						<enabled>TRUE</enabled>
						<duration>171138</duration>
						<rate>
							<timebase>25</timebase>
							<ntsc>FALSE</ntsc>
						</rate>
						<start>33766</start>
						<end>33992</end>
						<in>116811</in>
						<out>117037</out>
						<pproTicksIn>1186874519040000</pproTicksIn>
						<pproTicksOut>1189170823680000</pproTicksOut>
						<file id="file-54"/>
						<sourcetrack>
							<mediatype>audio</mediatype>
							<trackindex>1</trackindex>
						</sourcetrack>
						<logginginfo>
							<description></description>
							<scene></scene>
							<shottake></shottake>
							<lognote></lognote>
						</logginginfo>
						<labels>
							<label2>Caribbean</label2>
						</labels>
					</clipitem>
					<clipitem id="clipitem-1012" premiereChannelType="mono">
						<masterclipid>masterclip-58</masterclipid>
						<name>THOMAS_03.wav</name>
						<enabled>TRUE</enabled>
						<duration>171138</duration>
						<rate>
							<timebase>25</timebase>
							<ntsc>FALSE</ntsc>
						</rate>
						<start>33992</start>
						<end>34035</end>
						<in>117226</in>
						<out>117269</out>
						<pproTicksIn>1191091184640000</pproTicksIn>
						<pproTicksOut>1191528092160000</pproTicksOut>
						<file id="file-54"/>
						<sourcetrack>
							<mediatype>audio</mediatype>
							<trackindex>1</trackindex>
						</sourcetrack>
						<logginginfo>
							<description></description>
							<scene></scene>
							<shottake></shottake>
							<lognote></lognote>
						</logginginfo>
						<labels>
							<label2>Caribbean</label2>
						</labels>
					</clipitem>
					<clipitem id="clipitem-1013" premiereChannelType="mono">
						<masterclipid>masterclip-58</masterclipid>
						<name>THOMAS_03.wav</name>
						<enabled>TRUE</enabled>
						<duration>171138</duration>
						<rate>
							<timebase>25</timebase>
							<ntsc>FALSE</ntsc>
						</rate>
						<start>34035</start>
						<end>34790</end>
						<in>117633</in>
						<out>118388</out>
						<pproTicksIn>1195226565120000</pproTicksIn>
						<pproTicksOut>1202897848320000</pproTicksOut>
						<file id="file-54"/>
						<sourcetrack>
							<mediatype>audio</mediatype>
							<trackindex>1</trackindex>
						</sourcetrack>
						<logginginfo>
							<description></description>
							<scene></scene>
							<shottake></shottake>
							<lognote></lognote>
						</logginginfo>
						<labels>
							<label2>Caribbean</label2>
						</labels>
					</clipitem>
					<clipitem id="clipitem-1014" premiereChannelType="mono">
						<masterclipid>masterclip-58</masterclipid>
						<name>THOMAS_03.wav</name>
						<enabled>TRUE</enabled>
						<duration>171138</duration>
						<rate>
							<timebase>25</timebase>
							<ntsc>FALSE</ntsc>
						</rate>
						<start>34790</start>
						<end>35299</end>
						<in>118612</in>
						<out>119121</out>
						<pproTicksIn>1205173831680000</pproTicksIn>
						<pproTicksOut>1210345597440000</pproTicksOut>
						<file id="file-54"/>
						<sourcetrack>
							<mediatype>audio</mediatype>
							<trackindex>1</trackindex>
						</sourcetrack>
						<logginginfo>
							<description></description>
							<scene></scene>
							<shottake></shottake>
							<lognote></lognote>
						</logginginfo>
						<labels>
							<label2>Caribbean</label2>
						</labels>
					</clipitem>
					<clipitem id="clipitem-1015" premiereChannelType="mono">
						<masterclipid>masterclip-58</masterclipid>
						<name>THOMAS_03.wav</name>
						<enabled>TRUE</enabled>
						<duration>171138</duration>
						<rate>
							<timebase>25</timebase>
							<ntsc>FALSE</ntsc>
						</rate>
						<start>35299</start>
						<end>35672</end>
						<in>119201</in>
						<out>119574</out>
						<pproTicksIn>1211158448640000</pproTicksIn>
						<pproTicksOut>1214948367360000</pproTicksOut>
						<file id="file-54"/>
						<sourcetrack>
							<mediatype>audio</mediatype>
							<trackindex>1</trackindex>
						</sourcetrack>
						<logginginfo>
							<description></description>
							<scene></scene>
							<shottake></shottake>
							<lognote></lognote>
						</logginginfo>
						<labels>
							<label2>Caribbean</label2>
						</labels>
					</clipitem>
					<clipitem id="clipitem-1016" premiereChannelType="mono">
						<masterclipid>masterclip-58</masterclipid>
						<name>THOMAS_03.wav</name>
						<enabled>TRUE</enabled>
						<duration>171138</duration>
						<rate>
							<timebase>25</timebase>
							<ntsc>FALSE</ntsc>
						</rate>
						<start>35672</start>
						<end>36434</end>
						<in>119583</in>
						<out>120345</out>
						<pproTicksIn>1215039813120000</pproTicksIn>
						<pproTicksOut>1222782220800000</pproTicksOut>
						<file id="file-54"/>
						<sourcetrack>
							<mediatype>audio</mediatype>
							<trackindex>1</trackindex>
						</sourcetrack>
						<logginginfo>
							<description></description>
							<scene></scene>
							<shottake></shottake>
							<lognote></lognote>
						</logginginfo>
						<labels>
							<label2>Caribbean</label2>
						</labels>
					</clipitem>
					<clipitem id="clipitem-1017" premiereChannelType="mono">
						<masterclipid>masterclip-58</masterclipid>
						<name>THOMAS_03.wav</name>
						<enabled>TRUE</enabled>
						<duration>171138</duration>
						<rate>
							<timebase>25</timebase>
							<ntsc>FALSE</ntsc>
						</rate>
						<start>36434</start>
						<end>36524</end>
						<in>120539</in>
						<out>120629</out>
						<pproTicksIn>1224753384960000</pproTicksIn>
						<pproTicksOut>1225667842560000</pproTicksOut>
						<file id="file-54"/>
						<sourcetrack>
							<mediatype>audio</mediatype>
							<trackindex>1</trackindex>
						</sourcetrack>
						<logginginfo>
							<description></description>
							<scene></scene>
							<shottake></shottake>
							<lognote></lognote>
						</logginginfo>
						<labels>
							<label2>Caribbean</label2>
						</labels>
					</clipitem>
					<clipitem id="clipitem-1018" premiereChannelType="mono">
						<masterclipid>masterclip-58</masterclipid>
						<name>THOMAS_03.wav</name>
						<enabled>TRUE</enabled>
						<duration>171138</duration>
						<rate>
							<timebase>25</timebase>
							<ntsc>FALSE</ntsc>
						</rate>
						<start>36524</start>
						<end>37155</end>
						<in>124899</in>
						<out>125530</out>
						<pproTicksIn>1269053775360000</pproTicksIn>
						<pproTicksOut>1275465139200000</pproTicksOut>
						<file id="file-54"/>
						<sourcetrack>
							<mediatype>audio</mediatype>
							<trackindex>1</trackindex>
						</sourcetrack>
						<logginginfo>
							<description></description>
							<scene></scene>
							<shottake></shottake>
							<lognote></lognote>
						</logginginfo>
						<labels>
							<label2>Caribbean</label2>
						</labels>
					</clipitem>
					<clipitem id="clipitem-1019" premiereChannelType="mono">
						<masterclipid>masterclip-58</masterclipid>
						<name>THOMAS_03.wav</name>
						<enabled>TRUE</enabled>
						<duration>171138</duration>
						<rate>
							<timebase>25</timebase>
							<ntsc>FALSE</ntsc>
						</rate>
						<start>37732</start>
						<end>40503</end>
						<in>126107</in>
						<out>128878</out>
						<pproTicksIn>1281327828480000</pproTicksIn>
						<pproTicksOut>1309482961920000</pproTicksOut>
						<file id="file-54"/>
						<sourcetrack>
							<mediatype>audio</mediatype>
							<trackindex>1</trackindex>
						</sourcetrack>
						<logginginfo>
							<description></description>
							<scene></scene>
							<shottake></shottake>
							<lognote></lognote>
						</logginginfo>
						<labels>
							<label2>Caribbean</label2>
						</labels>
					</clipitem>
					<clipitem id="clipitem-1020" premiereChannelType="mono">
						<masterclipid>masterclip-58</masterclipid>
						<name>THOMAS_03.wav</name>
						<enabled>TRUE</enabled>
						<duration>171138</duration>
						<rate>
							<timebase>25</timebase>
							<ntsc>FALSE</ntsc>
						</rate>
						<start>40503</start>
						<end>40839</end>
						<in>128926</in>
						<out>129262</out>
						<pproTicksIn>1309970672640000</pproTicksIn>
						<pproTicksOut>1313384647680000</pproTicksOut>
						<file id="file-54"/>
						<sourcetrack>
							<mediatype>audio</mediatype>
							<trackindex>1</trackindex>
						</sourcetrack>
						<logginginfo>
							<description></description>
							<scene></scene>
							<shottake></shottake>
							<lognote></lognote>
						</logginginfo>
						<labels>
							<label2>Caribbean</label2>
						</labels>
					</clipitem>
					<clipitem id="clipitem-1021" premiereChannelType="mono">
						<masterclipid>masterclip-58</masterclipid>
						<name>THOMAS_03.wav</name>
						<enabled>TRUE</enabled>
						<duration>171138</duration>
						<rate>
							<timebase>25</timebase>
							<ntsc>FALSE</ntsc>
						</rate>
						<start>40839</start>
						<end>41006</end>
						<in>129262</in>
						<out>129429</out>
						<pproTicksIn>1313384647680000</pproTicksIn>
						<pproTicksOut>1315081474560000</pproTicksOut>
						<file id="file-54"/>
						<sourcetrack>
							<mediatype>audio</mediatype>
							<trackindex>1</trackindex>
						</sourcetrack>
						<logginginfo>
							<description></description>
							<scene></scene>
							<shottake></shottake>
							<lognote></lognote>
						</logginginfo>
						<labels>
							<label2>Caribbean</label2>
						</labels>
					</clipitem>
					<clipitem id="clipitem-1022" premiereChannelType="mono">
						<masterclipid>masterclip-58</masterclipid>
						<name>THOMAS_03.wav</name>
						<enabled>TRUE</enabled>
						<duration>171138</duration>
						<rate>
							<timebase>25</timebase>
							<ntsc>FALSE</ntsc>
						</rate>
						<start>41006</start>
						<end>41144</end>
						<in>129476</in>
						<out>129614</out>
						<pproTicksIn>1315559024640000</pproTicksIn>
						<pproTicksOut>1316961192960000</pproTicksOut>
						<file id="file-54"/>
						<sourcetrack>
							<mediatype>audio</mediatype>
							<trackindex>1</trackindex>
						</sourcetrack>
						<logginginfo>
							<description></description>
							<scene></scene>
							<shottake></shottake>
							<lognote></lognote>
						</logginginfo>
						<labels>
							<label2>Caribbean</label2>
						</labels>
					</clipitem>
					<clipitem id="clipitem-1023" premiereChannelType="mono">
						<masterclipid>masterclip-58</masterclipid>
						<name>THOMAS_03.wav</name>
						<enabled>TRUE</enabled>
						<duration>171138</duration>
						<rate>
							<timebase>25</timebase>
							<ntsc>FALSE</ntsc>
						</rate>
						<start>41144</start>
						<end>41720</end>
						<in>131417</in>
						<out>131993</out>
						<pproTicksIn>1335280826880000</pproTicksIn>
						<pproTicksOut>1341133355520000</pproTicksOut>
						<file id="file-54"/>
						<sourcetrack>
							<mediatype>audio</mediatype>
							<trackindex>1</trackindex>
						</sourcetrack>
						<logginginfo>
							<description></description>
							<scene></scene>
							<shottake></shottake>
							<lognote></lognote>
						</logginginfo>
						<labels>
							<label2>Caribbean</label2>
						</labels>
					</clipitem>
					<clipitem id="clipitem-1024" premiereChannelType="mono">
						<masterclipid>masterclip-58</masterclipid>
						<name>THOMAS_03.wav</name>
						<enabled>TRUE</enabled>
						<duration>171138</duration>
						<rate>
							<timebase>25</timebase>
							<ntsc>FALSE</ntsc>
						</rate>
						<start>41720</start>
						<end>42122</end>
						<in>132051</in>
						<out>132453</out>
						<pproTicksIn>1341722672640000</pproTicksIn>
						<pproTicksOut>1345807249920000</pproTicksOut>
						<file id="file-54"/>
						<sourcetrack>
							<mediatype>audio</mediatype>
							<trackindex>1</trackindex>
						</sourcetrack>
						<logginginfo>
							<description></description>
							<scene></scene>
							<shottake></shottake>
							<lognote></lognote>
						</logginginfo>
						<labels>
							<label2>Caribbean</label2>
						</labels>
					</clipitem>
					<clipitem id="clipitem-1025" premiereChannelType="mono">
						<masterclipid>masterclip-58</masterclipid>
						<name>THOMAS_03.wav</name>
						<enabled>TRUE</enabled>
						<duration>171138</duration>
						<rate>
							<timebase>25</timebase>
							<ntsc>FALSE</ntsc>
						</rate>
						<start>42122</start>
						<end>42277</end>
						<in>132657</in>
						<out>132812</out>
						<pproTicksIn>1347880020480000</pproTicksIn>
						<pproTicksOut>1349454919680000</pproTicksOut>
						<file id="file-54"/>
						<sourcetrack>
							<mediatype>audio</mediatype>
							<trackindex>1</trackindex>
						</sourcetrack>
						<logginginfo>
							<description></description>
							<scene></scene>
							<shottake></shottake>
							<lognote></lognote>
						</logginginfo>
						<labels>
							<label2>Caribbean</label2>
						</labels>
					</clipitem>
					<clipitem id="clipitem-1026" premiereChannelType="mono">
						<masterclipid>masterclip-58</masterclipid>
						<name>THOMAS_03.wav</name>
						<enabled>TRUE</enabled>
						<duration>171138</duration>
						<rate>
							<timebase>25</timebase>
							<ntsc>FALSE</ntsc>
						</rate>
						<start>42277</start>
						<end>42347</end>
						<in>133359</in>
						<out>133429</out>
						<pproTicksIn>1355012789760000</pproTicksIn>
						<pproTicksOut>1355724034560000</pproTicksOut>
						<file id="file-54"/>
						<sourcetrack>
							<mediatype>audio</mediatype>
							<trackindex>1</trackindex>
						</sourcetrack>
						<logginginfo>
							<description></description>
							<scene></scene>
							<shottake></shottake>
							<lognote></lognote>
						</logginginfo>
						<labels>
							<label2>Caribbean</label2>
						</labels>
					</clipitem>
					<clipitem id="clipitem-1027" premiereChannelType="mono">
						<masterclipid>masterclip-58</masterclipid>
						<name>THOMAS_03.wav</name>
						<enabled>TRUE</enabled>
						<duration>171138</duration>
						<rate>
							<timebase>25</timebase>
							<ntsc>FALSE</ntsc>
						</rate>
						<start>42347</start>
						<end>42499</end>
						<in>133852</in>
						<out>134004</out>
						<pproTicksIn>1360021985280000</pproTicksIn>
						<pproTicksOut>1361566402560000</pproTicksOut>
						<file id="file-54"/>
						<sourcetrack>
							<mediatype>audio</mediatype>
							<trackindex>1</trackindex>
						</sourcetrack>
						<logginginfo>
							<description></description>
							<scene></scene>
							<shottake></shottake>
							<lognote></lognote>
						</logginginfo>
						<labels>
							<label2>Caribbean</label2>
						</labels>
					</clipitem>
					<clipitem id="clipitem-1028" premiereChannelType="mono">
						<masterclipid>masterclip-58</masterclipid>
						<name>THOMAS_03.wav</name>
						<enabled>TRUE</enabled>
						<duration>171138</duration>
						<rate>
							<timebase>25</timebase>
							<ntsc>FALSE</ntsc>
						</rate>
						<start>42499</start>
						<end>42832</end>
						<in>134099</in>
						<out>134432</out>
						<pproTicksIn>1362531663360000</pproTicksIn>
						<pproTicksOut>1365915156480000</pproTicksOut>
						<file id="file-54"/>
						<sourcetrack>
							<mediatype>audio</mediatype>
							<trackindex>1</trackindex>
						</sourcetrack>
						<logginginfo>
							<description></description>
							<scene></scene>
							<shottake></shottake>
							<lognote></lognote>
						</logginginfo>
						<labels>
							<label2>Caribbean</label2>
						</labels>
					</clipitem>
					<clipitem id="clipitem-1029" premiereChannelType="mono">
						<masterclipid>masterclip-58</masterclipid>
						<name>THOMAS_03.wav</name>
						<enabled>TRUE</enabled>
						<duration>171138</duration>
						<rate>
							<timebase>25</timebase>
							<ntsc>FALSE</ntsc>
						</rate>
						<start>42832</start>
						<end>43282</end>
						<in>134992</in>
						<out>135442</out>
						<pproTicksIn>1371605114880000</pproTicksIn>
						<pproTicksOut>1376177402880000</pproTicksOut>
						<file id="file-54"/>
						<sourcetrack>
							<mediatype>audio</mediatype>
							<trackindex>1</trackindex>
						</sourcetrack>
						<logginginfo>
							<description></description>
							<scene></scene>
							<shottake></shottake>
							<lognote></lognote>
						</logginginfo>
						<labels>
							<label2>Caribbean</label2>
						</labels>
					</clipitem>
					<clipitem id="clipitem-1030" premiereChannelType="mono">
						<masterclipid>masterclip-58</masterclipid>
						<name>THOMAS_03.wav</name>
						<enabled>TRUE</enabled>
						<duration>171138</duration>
						<rate>
							<timebase>25</timebase>
							<ntsc>FALSE</ntsc>
						</rate>
						<start>43282</start>
						<end>43553</end>
						<in>135648</in>
						<out>135919</out>
						<pproTicksIn>1378270494720000</pproTicksIn>
						<pproTicksOut>1381024028160000</pproTicksOut>
						<file id="file-54"/>
						<sourcetrack>
							<mediatype>audio</mediatype>
							<trackindex>1</trackindex>
						</sourcetrack>
						<logginginfo>
							<description></description>
							<scene></scene>
							<shottake></shottake>
							<lognote></lognote>
						</logginginfo>
						<labels>
							<label2>Caribbean</label2>
						</labels>
					</clipitem>
					<clipitem id="clipitem-1031" premiereChannelType="mono">
						<masterclipid>masterclip-58</masterclipid>
						<name>THOMAS_03.wav</name>
						<enabled>TRUE</enabled>
						<duration>171138</duration>
						<rate>
							<timebase>25</timebase>
							<ntsc>FALSE</ntsc>
						</rate>
						<start>43553</start>
						<end>44385</end>
						<in>136003</in>
						<out>136835</out>
						<pproTicksIn>1381877521920000</pproTicksIn>
						<pproTicksOut>1390331174400000</pproTicksOut>
						<file id="file-54"/>
						<sourcetrack>
							<mediatype>audio</mediatype>
							<trackindex>1</trackindex>
						</sourcetrack>
						<logginginfo>
							<description></description>
							<scene></scene>
							<shottake></shottake>
							<lognote></lognote>
						</logginginfo>
						<labels>
							<label2>Caribbean</label2>
						</labels>
					</clipitem>
					<clipitem id="clipitem-1032" premiereChannelType="mono">
						<masterclipid>masterclip-58</masterclipid>
						<name>THOMAS_03.wav</name>
						<enabled>TRUE</enabled>
						<duration>171138</duration>
						<rate>
							<timebase>25</timebase>
							<ntsc>FALSE</ntsc>
						</rate>
						<start>44385</start>
						<end>44583</end>
						<in>137077</in>
						<out>137275</out>
						<pproTicksIn>1392790049280000</pproTicksIn>
						<pproTicksOut>1394801856000000</pproTicksOut>
						<file id="file-54"/>
						<sourcetrack>
							<mediatype>audio</mediatype>
							<trackindex>1</trackindex>
						</sourcetrack>
						<logginginfo>
							<description></description>
							<scene></scene>
							<shottake></shottake>
							<lognote></lognote>
						</logginginfo>
						<labels>
							<label2>Caribbean</label2>
						</labels>
					</clipitem>
					<clipitem id="clipitem-1033" premiereChannelType="mono">
						<masterclipid>masterclip-58</masterclipid>
						<name>THOMAS_03.wav</name>
						<enabled>TRUE</enabled>
						<duration>171138</duration>
						<rate>
							<timebase>25</timebase>
							<ntsc>FALSE</ntsc>
						</rate>
						<start>44583</start>
						<end>44650</end>
						<in>137376</in>
						<out>137443</out>
						<pproTicksIn>1395828080640000</pproTicksIn>
						<pproTicksOut>1396508843520000</pproTicksOut>
						<file id="file-54"/>
						<sourcetrack>
							<mediatype>audio</mediatype>
							<trackindex>1</trackindex>
						</sourcetrack>
						<logginginfo>
							<description></description>
							<scene></scene>
							<shottake></shottake>
							<lognote></lognote>
						</logginginfo>
						<labels>
							<label2>Caribbean</label2>
						</labels>
					</clipitem>
					<clipitem id="clipitem-1034" premiereChannelType="mono">
						<masterclipid>masterclip-58</masterclipid>
						<name>THOMAS_03.wav</name>
						<enabled>TRUE</enabled>
						<duration>171138</duration>
						<rate>
							<timebase>25</timebase>
							<ntsc>FALSE</ntsc>
						</rate>
						<start>44650</start>
						<end>45287</end>
						<in>137505</in>
						<out>138142</out>
						<pproTicksIn>1397138803200000</pproTicksIn>
						<pproTicksOut>1403611130880000</pproTicksOut>
						<file id="file-54"/>
						<sourcetrack>
							<mediatype>audio</mediatype>
							<trackindex>1</trackindex>
						</sourcetrack>
						<logginginfo>
							<description></description>
							<scene></scene>
							<shottake></shottake>
							<lognote></lognote>
						</logginginfo>
						<labels>
							<label2>Caribbean</label2>
						</labels>
					</clipitem>
					<clipitem id="clipitem-1035" premiereChannelType="mono">
						<masterclipid>masterclip-58</masterclipid>
						<name>THOMAS_03.wav</name>
						<enabled>TRUE</enabled>
						<duration>171138</duration>
						<rate>
							<timebase>25</timebase>
							<ntsc>FALSE</ntsc>
						</rate>
						<start>45287</start>
						<end>45692</end>
						<in>138274</in>
						<out>138679</out>
						<pproTicksIn>1404952335360000</pproTicksIn>
						<pproTicksOut>1409067394560000</pproTicksOut>
						<file id="file-54"/>
						<sourcetrack>
							<mediatype>audio</mediatype>
							<trackindex>1</trackindex>
						</sourcetrack>
						<logginginfo>
							<description></description>
							<scene></scene>
							<shottake></shottake>
							<lognote></lognote>
						</logginginfo>
						<labels>
							<label2>Caribbean</label2>
						</labels>
					</clipitem>
					<clipitem id="clipitem-1036" premiereChannelType="mono">
						<masterclipid>masterclip-58</masterclipid>
						<name>THOMAS_03.wav</name>
						<enabled>TRUE</enabled>
						<duration>171138</duration>
						<rate>
							<timebase>25</timebase>
							<ntsc>FALSE</ntsc>
						</rate>
						<start>45692</start>
						<end>45923</end>
						<in>138810</in>
						<out>139041</out>
						<pproTicksIn>1410398438400000</pproTicksIn>
						<pproTicksOut>1412745546240000</pproTicksOut>
						<file id="file-54"/>
						<sourcetrack>
							<mediatype>audio</mediatype>
							<trackindex>1</trackindex>
						</sourcetrack>
						<logginginfo>
							<description></description>
							<scene></scene>
							<shottake></shottake>
							<lognote></lognote>
						</logginginfo>
						<labels>
							<label2>Caribbean</label2>
						</labels>
					</clipitem>
					<clipitem id="clipitem-1037" premiereChannelType="mono">
						<masterclipid>masterclip-58</masterclipid>
						<name>THOMAS_03.wav</name>
						<enabled>TRUE</enabled>
						<duration>171138</duration>
						<rate>
							<timebase>25</timebase>
							<ntsc>FALSE</ntsc>
						</rate>
						<start>45923</start>
						<end>46349</end>
						<in>139073</in>
						<out>139499</out>
						<pproTicksIn>1413070686720000</pproTicksIn>
						<pproTicksOut>1417399119360000</pproTicksOut>
						<file id="file-54"/>
						<sourcetrack>
							<mediatype>audio</mediatype>
							<trackindex>1</trackindex>
						</sourcetrack>
						<logginginfo>
							<description></description>
							<scene></scene>
							<shottake></shottake>
							<lognote></lognote>
						</logginginfo>
						<labels>
							<label2>Caribbean</label2>
						</labels>
					</clipitem>
					<clipitem id="clipitem-1038" premiereChannelType="mono">
						<masterclipid>masterclip-58</masterclipid>
						<name>THOMAS_03.wav</name>
						<enabled>TRUE</enabled>
						<duration>171138</duration>
						<rate>
							<timebase>25</timebase>
							<ntsc>FALSE</ntsc>
						</rate>
						<start>46349</start>
						<end>46455</end>
						<in>159642</in>
						<out>159748</out>
						<pproTicksIn>1622064890880000</pproTicksIn>
						<pproTicksOut>1623141918720000</pproTicksOut>
						<file id="file-54"/>
						<sourcetrack>
							<mediatype>audio</mediatype>
							<trackindex>1</trackindex>
						</sourcetrack>
						<logginginfo>
							<description></description>
							<scene></scene>
							<shottake></shottake>
							<lognote></lognote>
						</logginginfo>
						<labels>
							<label2>Caribbean</label2>
						</labels>
					</clipitem>
					<clipitem id="clipitem-1039" premiereChannelType="mono">
						<masterclipid>masterclip-58</masterclipid>
						<name>THOMAS_03.wav</name>
						<enabled>TRUE</enabled>
						<duration>171138</duration>
						<rate>
							<timebase>25</timebase>
							<ntsc>FALSE</ntsc>
						</rate>
						<start>46455</start>
						<end>46911</end>
						<in>140048</in>
						<out>140504</out>
						<pproTicksIn>1422977310720000</pproTicksIn>
						<pproTicksOut>1427610562560000</pproTicksOut>
						<file id="file-54"/>
						<sourcetrack>
							<mediatype>audio</mediatype>
							<trackindex>1</trackindex>
						</sourcetrack>
						<logginginfo>
							<description></description>
							<scene></scene>
							<shottake></shottake>
							<lognote></lognote>
						</logginginfo>
						<labels>
							<label2>Caribbean</label2>
						</labels>
					</clipitem>
					<clipitem id="clipitem-1040" premiereChannelType="mono">
						<masterclipid>masterclip-58</masterclipid>
						<name>THOMAS_03.wav</name>
						<enabled>TRUE</enabled>
						<duration>171138</duration>
						<rate>
							<timebase>25</timebase>
							<ntsc>FALSE</ntsc>
						</rate>
						<start>46911</start>
						<end>47138</end>
						<in>140817</in>
						<out>141044</out>
						<pproTicksIn>1430790842880000</pproTicksIn>
						<pproTicksOut>1433097308160000</pproTicksOut>
						<file id="file-54"/>
						<sourcetrack>
							<mediatype>audio</mediatype>
							<trackindex>1</trackindex>
						</sourcetrack>
						<logginginfo>
							<description></description>
							<scene></scene>
							<shottake></shottake>
							<lognote></lognote>
						</logginginfo>
						<labels>
							<label2>Caribbean</label2>
						</labels>
					</clipitem>
					<clipitem id="clipitem-1041" premiereChannelType="mono">
						<masterclipid>masterclip-58</masterclipid>
						<name>THOMAS_03.wav</name>
						<enabled>TRUE</enabled>
						<duration>171138</duration>
						<rate>
							<timebase>25</timebase>
							<ntsc>FALSE</ntsc>
						</rate>
						<start>47138</start>
						<end>47335</end>
						<in>141203</in>
						<out>141400</out>
						<pproTicksIn>1434712849920000</pproTicksIn>
						<pproTicksOut>1436714496000000</pproTicksOut>
						<file id="file-54"/>
						<sourcetrack>
							<mediatype>audio</mediatype>
							<trackindex>1</trackindex>
						</sourcetrack>
						<logginginfo>
							<description></description>
							<scene></scene>
							<shottake></shottake>
							<lognote></lognote>
						</logginginfo>
						<labels>
							<label2>Caribbean</label2>
						</labels>
					</clipitem>
					<clipitem id="clipitem-1042" premiereChannelType="mono">
						<masterclipid>masterclip-58</masterclipid>
						<name>THOMAS_03.wav</name>
						<enabled>TRUE</enabled>
						<duration>171138</duration>
						<rate>
							<timebase>25</timebase>
							<ntsc>FALSE</ntsc>
						</rate>
						<start>47335</start>
						<end>47513</end>
						<in>141454</in>
						<out>141632</out>
						<pproTicksIn>1437263170560000</pproTicksIn>
						<pproTicksOut>1439071764480000</pproTicksOut>
						<file id="file-54"/>
						<sourcetrack>
							<mediatype>audio</mediatype>
							<trackindex>1</trackindex>
						</sourcetrack>
						<logginginfo>
							<description></description>
							<scene></scene>
							<shottake></shottake>
							<lognote></lognote>
						</logginginfo>
						<labels>
							<label2>Caribbean</label2>
						</labels>
					</clipitem>
					<clipitem id="clipitem-1043" premiereChannelType="mono">
						<masterclipid>masterclip-58</masterclipid>
						<name>THOMAS_03.wav</name>
						<enabled>TRUE</enabled>
						<duration>171138</duration>
						<rate>
							<timebase>25</timebase>
							<ntsc>FALSE</ntsc>
						</rate>
						<start>47513</start>
						<end>47723</end>
						<in>141671</in>
						<out>141881</out>
						<pproTicksIn>1439468029440000</pproTicksIn>
						<pproTicksOut>1441601763840000</pproTicksOut>
						<file id="file-54"/>
						<sourcetrack>
							<mediatype>audio</mediatype>
							<trackindex>1</trackindex>
						</sourcetrack>
						<logginginfo>
							<description></description>
							<scene></scene>
							<shottake></shottake>
							<lognote></lognote>
						</logginginfo>
						<labels>
							<label2>Caribbean</label2>
						</labels>
					</clipitem>
					<clipitem id="clipitem-1044" premiereChannelType="mono">
						<masterclipid>masterclip-58</masterclipid>
						<name>THOMAS_03.wav</name>
						<enabled>TRUE</enabled>
						<duration>171138</duration>
						<rate>
							<timebase>25</timebase>
							<ntsc>FALSE</ntsc>
						</rate>
						<start>47723</start>
						<end>48040</end>
						<in>141894</in>
						<out>142211</out>
						<pproTicksIn>1441733852160000</pproTicksIn>
						<pproTicksOut>1444954775040000</pproTicksOut>
						<file id="file-54"/>
						<sourcetrack>
							<mediatype>audio</mediatype>
							<trackindex>1</trackindex>
						</sourcetrack>
						<logginginfo>
							<description></description>
							<scene></scene>
							<shottake></shottake>
							<lognote></lognote>
						</logginginfo>
						<labels>
							<label2>Caribbean</label2>
						</labels>
					</clipitem>
					<clipitem id="clipitem-1045" premiereChannelType="mono">
						<masterclipid>masterclip-58</masterclipid>
						<name>THOMAS_03.wav</name>
						<enabled>TRUE</enabled>
						<duration>171138</duration>
						<rate>
							<timebase>25</timebase>
							<ntsc>FALSE</ntsc>
						</rate>
						<start>48040</start>
						<end>48766</end>
						<in>142351</in>
						<out>143077</out>
						<pproTicksIn>1446377264640000</pproTicksIn>
						<pproTicksOut>1453753889280000</pproTicksOut>
						<file id="file-54"/>
						<sourcetrack>
							<mediatype>audio</mediatype>
							<trackindex>1</trackindex>
						</sourcetrack>
						<logginginfo>
							<description></description>
							<scene></scene>
							<shottake></shottake>
							<lognote></lognote>
						</logginginfo>
						<labels>
							<label2>Caribbean</label2>
						</labels>
					</clipitem>
					<clipitem id="clipitem-1046" premiereChannelType="mono">
						<masterclipid>masterclip-58</masterclipid>
						<name>THOMAS_03.wav</name>
						<enabled>TRUE</enabled>
						<duration>171138</duration>
						<rate>
							<timebase>25</timebase>
							<ntsc>FALSE</ntsc>
						</rate>
						<start>48766</start>
						<end>49706</end>
						<in>143684</in>
						<out>144624</out>
						<pproTicksIn>1459921397760000</pproTicksIn>
						<pproTicksOut>1469472399360000</pproTicksOut>
						<file id="file-54"/>
						<sourcetrack>
							<mediatype>audio</mediatype>
							<trackindex>1</trackindex>
						</sourcetrack>
						<logginginfo>
							<description></description>
							<scene></scene>
							<shottake></shottake>
							<lognote></lognote>
						</logginginfo>
						<labels>
							<label2>Caribbean</label2>
						</labels>
					</clipitem>
					<clipitem id="clipitem-1047" premiereChannelType="mono">
						<masterclipid>masterclip-58</masterclipid>
						<name>THOMAS_03.wav</name>
						<enabled>TRUE</enabled>
						<duration>171138</duration>
						<rate>
							<timebase>25</timebase>
							<ntsc>FALSE</ntsc>
						</rate>
						<start>49706</start>
						<end>49762</end>
						<in>147186</in>
						<out>147242</out>
						<pproTicksIn>1495503959040000</pproTicksIn>
						<pproTicksOut>1496072954880000</pproTicksOut>
						<file id="file-54"/>
						<sourcetrack>
							<mediatype>audio</mediatype>
							<trackindex>1</trackindex>
						</sourcetrack>
						<logginginfo>
							<description></description>
							<scene></scene>
							<shottake></shottake>
							<lognote></lognote>
						</logginginfo>
						<labels>
							<label2>Caribbean</label2>
						</labels>
					</clipitem>
					<clipitem id="clipitem-1048" premiereChannelType="mono">
						<masterclipid>masterclip-58</masterclipid>
						<name>THOMAS_03.wav</name>
						<enabled>TRUE</enabled>
						<duration>171138</duration>
						<rate>
							<timebase>25</timebase>
							<ntsc>FALSE</ntsc>
						</rate>
						<start>49762</start>
						<end>49948</end>
						<in>153681</in>
						<out>153867</out>
						<pproTicksIn>1561497315840000</pproTicksIn>
						<pproTicksOut>1563387194880000</pproTicksOut>
						<file id="file-54"/>
						<sourcetrack>
							<mediatype>audio</mediatype>
							<trackindex>1</trackindex>
						</sourcetrack>
						<logginginfo>
							<description></description>
							<scene></scene>
							<shottake></shottake>
							<lognote></lognote>
						</logginginfo>
						<labels>
							<label2>Caribbean</label2>
						</labels>
					</clipitem>
					<clipitem id="clipitem-1049" premiereChannelType="mono">
						<masterclipid>masterclip-58</masterclipid>
						<name>THOMAS_03.wav</name>
						<enabled>TRUE</enabled>
						<duration>171138</duration>
						<rate>
							<timebase>25</timebase>
							<ntsc>FALSE</ntsc>
						</rate>
						<start>49948</start>
						<end>50390</end>
						<in>153946</in>
						<out>154388</out>
						<pproTicksIn>1564189885440000</pproTicksIn>
						<pproTicksOut>1568680888320000</pproTicksOut>
						<file id="file-54"/>
						<sourcetrack>
							<mediatype>audio</mediatype>
							<trackindex>1</trackindex>
						</sourcetrack>
						<logginginfo>
							<description></description>
							<scene></scene>
							<shottake></shottake>
							<lognote></lognote>
						</logginginfo>
						<labels>
							<label2>Caribbean</label2>
						</labels>
					</clipitem>
					<clipitem id="clipitem-1050" premiereChannelType="mono">
						<masterclipid>masterclip-58</masterclipid>
						<name>THOMAS_03.wav</name>
						<enabled>TRUE</enabled>
						<duration>171138</duration>
						<rate>
							<timebase>25</timebase>
							<ntsc>FALSE</ntsc>
						</rate>
						<start>50390</start>
						<end>50983</end>
						<in>156215</in>
						<out>156808</out>
						<pproTicksIn>1587244377600000</pproTicksIn>
						<pproTicksOut>1593269637120000</pproTicksOut>
						<file id="file-54"/>
						<sourcetrack>
							<mediatype>audio</mediatype>
							<trackindex>1</trackindex>
						</sourcetrack>
						<logginginfo>
							<description></description>
							<scene></scene>
							<shottake></shottake>
							<lognote></lognote>
						</logginginfo>
						<labels>
							<label2>Caribbean</label2>
						</labels>
					</clipitem>
					<clipitem id="clipitem-1051" premiereChannelType="mono">
						<masterclipid>masterclip-58</masterclipid>
						<name>THOMAS_03.wav</name>
						<enabled>TRUE</enabled>
						<duration>171138</duration>
						<rate>
							<timebase>25</timebase>
							<ntsc>FALSE</ntsc>
						</rate>
						<start>50983</start>
						<end>53597</end>
						<in>157028</in>
						<out>159642</out>
						<pproTicksIn>1595504977920000</pproTicksIn>
						<pproTicksOut>1622064890880000</pproTicksOut>
						<file id="file-54"/>
						<sourcetrack>
							<mediatype>audio</mediatype>
							<trackindex>1</trackindex>
						</sourcetrack>
						<logginginfo>
							<description></description>
							<scene></scene>
							<shottake></shottake>
							<lognote></lognote>
						</logginginfo>
						<labels>
							<label2>Caribbean</label2>
						</labels>
					</clipitem>
					<clipitem id="clipitem-1052" premiereChannelType="mono">
						<masterclipid>masterclip-58</masterclipid>
						<name>THOMAS_03.wav</name>
						<enabled>TRUE</enabled>
						<duration>171138</duration>
						<rate>
							<timebase>25</timebase>
							<ntsc>FALSE</ntsc>
						</rate>
						<start>53597</start>
						<end>53636</end>
						<in>160568</in>
						<out>160607</out>
						<pproTicksIn>1631473643520000</pproTicksIn>
						<pproTicksOut>1631869908480000</pproTicksOut>
						<file id="file-54"/>
						<sourcetrack>
							<mediatype>audio</mediatype>
							<trackindex>1</trackindex>
						</sourcetrack>
						<logginginfo>
							<description></description>
							<scene></scene>
							<shottake></shottake>
							<lognote></lognote>
						</logginginfo>
						<labels>
							<label2>Caribbean</label2>
						</labels>
					</clipitem>
					<clipitem id="clipitem-1053" premiereChannelType="mono">
						<masterclipid>masterclip-58</masterclipid>
						<name>THOMAS_03.wav</name>
						<enabled>TRUE</enabled>
						<duration>171138</duration>
						<rate>
							<timebase>25</timebase>
							<ntsc>FALSE</ntsc>
						</rate>
						<start>53636</start>
						<end>55369</end>
						<in>161146</in>
						<out>162879</out>
						<pproTicksIn>1637346493440000</pproTicksIn>
						<pproTicksOut>1654954882560000</pproTicksOut>
						<file id="file-54"/>
						<sourcetrack>
							<mediatype>audio</mediatype>
							<trackindex>1</trackindex>
						</sourcetrack>
						<logginginfo>
							<description></description>
							<scene></scene>
							<shottake></shottake>
							<lognote></lognote>
						</logginginfo>
						<labels>
							<label2>Caribbean</label2>
						</labels>
					</clipitem>
					<clipitem id="clipitem-1054" premiereChannelType="mono">
						<masterclipid>masterclip-58</masterclipid>
						<name>THOMAS_03.wav</name>
						<enabled>TRUE</enabled>
						<duration>171138</duration>
						<rate>
							<timebase>25</timebase>
							<ntsc>FALSE</ntsc>
						</rate>
						<start>55369</start>
						<end>55449</end>
						<in>162899</in>
						<out>162979</out>
						<pproTicksIn>1655158095360000</pproTicksIn>
						<pproTicksOut>1655970946560000</pproTicksOut>
						<file id="file-54"/>
						<sourcetrack>
							<mediatype>audio</mediatype>
							<trackindex>1</trackindex>
						</sourcetrack>
						<logginginfo>
							<description></description>
							<scene></scene>
							<shottake></shottake>
							<lognote></lognote>
						</logginginfo>
						<labels>
							<label2>Caribbean</label2>
						</labels>
					</clipitem>
					<clipitem id="clipitem-1055" premiereChannelType="mono">
						<masterclipid>masterclip-58</masterclipid>
						<name>THOMAS_03.wav</name>
						<enabled>TRUE</enabled>
						<duration>171138</duration>
						<rate>
							<timebase>25</timebase>
							<ntsc>FALSE</ntsc>
						</rate>
						<start>55449</start>
						<end>55738</end>
						<in>163146</in>
						<out>163435</out>
						<pproTicksIn>1657667773440000</pproTicksIn>
						<pproTicksOut>1660604198400000</pproTicksOut>
						<file id="file-54"/>
						<sourcetrack>
							<mediatype>audio</mediatype>
							<trackindex>1</trackindex>
						</sourcetrack>
						<logginginfo>
							<description></description>
							<scene></scene>
							<shottake></shottake>
							<lognote></lognote>
						</logginginfo>
						<labels>
							<label2>Caribbean</label2>
						</labels>
					</clipitem>
					<clipitem id="clipitem-1056" premiereChannelType="mono">
						<masterclipid>masterclip-58</masterclipid>
						<name>THOMAS_03.wav</name>
						<enabled>TRUE</enabled>
						<duration>171138</duration>
						<rate>
							<timebase>25</timebase>
							<ntsc>FALSE</ntsc>
						</rate>
						<start>55738</start>
						<end>55905</end>
						<in>163648</in>
						<out>163815</out>
						<pproTicksIn>1662768414720000</pproTicksIn>
						<pproTicksOut>1664465241600000</pproTicksOut>
						<file id="file-54"/>
						<sourcetrack>
							<mediatype>audio</mediatype>
							<trackindex>1</trackindex>
						</sourcetrack>
						<logginginfo>
							<description></description>
							<scene></scene>
							<shottake></shottake>
							<lognote></lognote>
						</logginginfo>
						<labels>
							<label2>Caribbean</label2>
						</labels>
					</clipitem>
					<clipitem id="clipitem-1057" premiereChannelType="mono">
						<masterclipid>masterclip-58</masterclipid>
						<name>THOMAS_03.wav</name>
						<enabled>TRUE</enabled>
						<duration>171138</duration>
						<rate>
							<timebase>25</timebase>
							<ntsc>FALSE</ntsc>
						</rate>
						<start>55905</start>
						<end>56079</end>
						<in>163829</in>
						<out>164003</out>
						<pproTicksIn>1664607490560000</pproTicksIn>
						<pproTicksOut>1666375441920000</pproTicksOut>
						<file id="file-54"/>
						<sourcetrack>
							<mediatype>audio</mediatype>
							<trackindex>1</trackindex>
						</sourcetrack>
						<logginginfo>
							<description></description>
							<scene></scene>
							<shottake></shottake>
							<lognote></lognote>
						</logginginfo>
						<labels>
							<label2>Caribbean</label2>
						</labels>
					</clipitem>
					<clipitem id="clipitem-1058" premiereChannelType="mono">
						<masterclipid>masterclip-58</masterclipid>
						<name>THOMAS_03.wav</name>
						<enabled>TRUE</enabled>
						<duration>171138</duration>
						<rate>
							<timebase>25</timebase>
							<ntsc>FALSE</ntsc>
						</rate>
						<start>56079</start>
						<end>58120</end>
						<in>164067</in>
						<out>166108</out>
						<pproTicksIn>1667025722880000</pproTicksIn>
						<pproTicksOut>1687763589120000</pproTicksOut>
						<file id="file-54"/>
						<sourcetrack>
							<mediatype>audio</mediatype>
							<trackindex>1</trackindex>
						</sourcetrack>
						<logginginfo>
							<description></description>
							<scene></scene>
							<shottake></shottake>
							<lognote></lognote>
						</logginginfo>
						<labels>
							<label2>Caribbean</label2>
						</labels>
					</clipitem>
					<enabled>TRUE</enabled>
					<locked>FALSE</locked>
					<outputchannelindex>1</outputchannelindex>
				</track>
				<track TL.SQTrackAudioKeyframeStyle="0" TL.SQTrackShy="0" TL.SQTrackExpandedHeight="45" TL.SQTrackExpanded="1" MZ.TrackTargeted="1" PannerCurrentValue="0.5" PannerIsInverted="true" PannerStartKeyframe="-91445760000000000,0.5,0,0,0,0,0,0" PannerName="Balance" currentExplodedTrackIndex="0" totalExplodedTrackCount="1" premiereTrackType="Stereo">
					<clipitem id="clipitem-1059" premiereChannelType="mono">
						<masterclipid>masterclip-59</masterclipid>
						<name>Benedicte Bendiksen_01.wav</name>
						<enabled>TRUE</enabled>
						<duration>171138</duration>
						<rate>
							<timebase>25</timebase>
							<ntsc>FALSE</ntsc>
						</rate>
						<start>420</start>
						<end>891</end>
						<in>168511</in>
						<out>168982</out>
						<pproTicksIn>1712179607040000</pproTicksIn>
						<pproTicksOut>1716965268480000</pproTicksOut>
						<file id="file-55">
							<name>Benedicte Bendiksen_01.wav</name>
							<pathurl>file://localhost/Volumes/Brakka/AdobeLager/QUIZ%20-%20brakka/RA%cc%8aSTOFF%20LYD/2005/Benedicte%20Bendiksen_01.wav</pathurl>
							<rate>
								<timebase>30</timebase>
								<ntsc>TRUE</ntsc>
							</rate>
							<duration>205161</duration>
							<timecode>
								<rate>
									<timebase>30</timebase>
									<ntsc>TRUE</ntsc>
								</rate>
								<string>12;52;15;16</string>
								<frame>1388676</frame>
								<displayformat>DF</displayformat>
								<reel>
									<name></name>
								</reel>
							</timecode>
							<media>
								<audio>
									<samplecharacteristics>
										<depth>16</depth>
										<samplerate>48000</samplerate>
									</samplecharacteristics>
									<channelcount>1</channelcount>
									<audiochannel>
										<sourcechannel>1</sourcechannel>
									</audiochannel>
								</audio>
							</media>
						</file>
						<sourcetrack>
							<mediatype>audio</mediatype>
							<trackindex>1</trackindex>
						</sourcetrack>
						<logginginfo>
							<description></description>
							<scene></scene>
							<shottake></shottake>
							<lognote></lognote>
						</logginginfo>
						<labels>
							<label2>Caribbean</label2>
						</labels>
					</clipitem>
					<clipitem id="clipitem-1060" premiereChannelType="mono">
						<masterclipid>masterclip-59</masterclipid>
						<name>Benedicte Bendiksen_01.wav</name>
						<enabled>TRUE</enabled>
						<duration>171138</duration>
						<rate>
							<timebase>25</timebase>
							<ntsc>FALSE</ntsc>
						</rate>
						<start>965</start>
						<end>1469</end>
						<in>32787</in>
						<out>33291</out>
						<pproTicksIn>333136903680000</pproTicksIn>
						<pproTicksOut>338257866240000</pproTicksOut>
						<file id="file-55"/>
						<sourcetrack>
							<mediatype>audio</mediatype>
							<trackindex>1</trackindex>
						</sourcetrack>
						<logginginfo>
							<description></description>
							<scene></scene>
							<shottake></shottake>
							<lognote></lognote>
						</logginginfo>
						<labels>
							<label2>Caribbean</label2>
						</labels>
					</clipitem>
					<clipitem id="clipitem-1061" premiereChannelType="mono">
						<masterclipid>masterclip-59</masterclipid>
						<name>Benedicte Bendiksen_01.wav</name>
						<enabled>TRUE</enabled>
						<duration>171138</duration>
						<rate>
							<timebase>25</timebase>
							<ntsc>FALSE</ntsc>
						</rate>
						<start>1469</start>
						<end>4119</end>
						<in>33423</in>
						<out>36073</out>
						<pproTicksIn>339599070720000</pproTicksIn>
						<pproTicksOut>366524766720000</pproTicksOut>
						<file id="file-55"/>
						<sourcetrack>
							<mediatype>audio</mediatype>
							<trackindex>1</trackindex>
						</sourcetrack>
						<logginginfo>
							<description></description>
							<scene></scene>
							<shottake></shottake>
							<lognote></lognote>
						</logginginfo>
						<labels>
							<label2>Caribbean</label2>
						</labels>
					</clipitem>
					<clipitem id="clipitem-1062" premiereChannelType="mono">
						<masterclipid>masterclip-59</masterclipid>
						<name>Benedicte Bendiksen_01.wav</name>
						<enabled>TRUE</enabled>
						<duration>171138</duration>
						<rate>
							<timebase>25</timebase>
							<ntsc>FALSE</ntsc>
						</rate>
						<start>4119</start>
						<end>4836</end>
						<in>36549</in>
						<out>37266</out>
						<pproTicksIn>371361231360000</pproTicksIn>
						<pproTicksOut>378646410240000</pproTicksOut>
						<file id="file-55"/>
						<sourcetrack>
							<mediatype>audio</mediatype>
							<trackindex>1</trackindex>
						</sourcetrack>
						<logginginfo>
							<description></description>
							<scene></scene>
							<shottake></shottake>
							<lognote></lognote>
						</logginginfo>
						<labels>
							<label2>Caribbean</label2>
						</labels>
					</clipitem>
					<clipitem id="clipitem-1063" premiereChannelType="mono">
						<masterclipid>masterclip-59</masterclipid>
						<name>Benedicte Bendiksen_01.wav</name>
						<enabled>TRUE</enabled>
						<duration>171138</duration>
						<rate>
							<timebase>25</timebase>
							<ntsc>FALSE</ntsc>
						</rate>
						<start>4836</start>
						<end>5339</end>
						<in>37305</in>
						<out>37808</out>
						<pproTicksIn>379042675200000</pproTicksIn>
						<pproTicksOut>384153477120000</pproTicksOut>
						<file id="file-55"/>
						<sourcetrack>
							<mediatype>audio</mediatype>
							<trackindex>1</trackindex>
						</sourcetrack>
						<logginginfo>
							<description></description>
							<scene></scene>
							<shottake></shottake>
							<lognote></lognote>
						</logginginfo>
						<labels>
							<label2>Caribbean</label2>
						</labels>
					</clipitem>
					<clipitem id="clipitem-1064" premiereChannelType="mono">
						<masterclipid>masterclip-59</masterclipid>
						<name>Benedicte Bendiksen_01.wav</name>
						<enabled>TRUE</enabled>
						<duration>171138</duration>
						<rate>
							<timebase>25</timebase>
							<ntsc>FALSE</ntsc>
						</rate>
						<start>5339</start>
						<end>5501</end>
						<in>37871</in>
						<out>38033</out>
						<pproTicksIn>384793597440000</pproTicksIn>
						<pproTicksOut>386439621120000</pproTicksOut>
						<file id="file-55"/>
						<sourcetrack>
							<mediatype>audio</mediatype>
							<trackindex>1</trackindex>
						</sourcetrack>
						<logginginfo>
							<description></description>
							<scene></scene>
							<shottake></shottake>
							<lognote></lognote>
						</logginginfo>
						<labels>
							<label2>Caribbean</label2>
						</labels>
					</clipitem>
					<clipitem id="clipitem-1065" premiereChannelType="mono">
						<masterclipid>masterclip-59</masterclipid>
						<name>Benedicte Bendiksen_01.wav</name>
						<enabled>TRUE</enabled>
						<duration>171138</duration>
						<rate>
							<timebase>25</timebase>
							<ntsc>FALSE</ntsc>
						</rate>
						<start>5501</start>
						<end>6004</end>
						<in>46577</in>
						<out>47080</out>
						<pproTicksIn>473252129280000</pproTicksIn>
						<pproTicksOut>478362931200000</pproTicksOut>
						<file id="file-55"/>
						<sourcetrack>
							<mediatype>audio</mediatype>
							<trackindex>1</trackindex>
						</sourcetrack>
						<logginginfo>
							<description></description>
							<scene></scene>
							<shottake></shottake>
							<lognote></lognote>
						</logginginfo>
						<labels>
							<label2>Caribbean</label2>
						</labels>
					</clipitem>
					<clipitem id="clipitem-1066" premiereChannelType="mono">
						<masterclipid>masterclip-59</masterclipid>
						<name>Benedicte Bendiksen_01.wav</name>
						<enabled>TRUE</enabled>
						<duration>171138</duration>
						<rate>
							<timebase>25</timebase>
							<ntsc>FALSE</ntsc>
						</rate>
						<start>6004</start>
						<end>6357</end>
						<in>50106</in>
						<out>50459</out>
						<pproTicksIn>509109027840000</pproTicksIn>
						<pproTicksOut>512695733760000</pproTicksOut>
						<file id="file-55"/>
						<sourcetrack>
							<mediatype>audio</mediatype>
							<trackindex>1</trackindex>
						</sourcetrack>
						<logginginfo>
							<description></description>
							<scene></scene>
							<shottake></shottake>
							<lognote></lognote>
						</logginginfo>
						<labels>
							<label2>Caribbean</label2>
						</labels>
					</clipitem>
					<clipitem id="clipitem-1067" premiereChannelType="mono">
						<masterclipid>masterclip-59</masterclipid>
						<name>Benedicte Bendiksen_01.wav</name>
						<enabled>TRUE</enabled>
						<duration>171138</duration>
						<rate>
							<timebase>25</timebase>
							<ntsc>FALSE</ntsc>
						</rate>
						<start>6357</start>
						<end>6470</end>
						<in>50578</in>
						<out>50691</out>
						<pproTicksIn>513904849920000</pproTicksIn>
						<pproTicksOut>515053002240000</pproTicksOut>
						<file id="file-55"/>
						<sourcetrack>
							<mediatype>audio</mediatype>
							<trackindex>1</trackindex>
						</sourcetrack>
						<logginginfo>
							<description></description>
							<scene></scene>
							<shottake></shottake>
							<lognote></lognote>
						</logginginfo>
						<labels>
							<label2>Caribbean</label2>
						</labels>
					</clipitem>
					<clipitem id="clipitem-1068" premiereChannelType="mono">
						<masterclipid>masterclip-59</masterclipid>
						<name>Benedicte Bendiksen_01.wav</name>
						<enabled>TRUE</enabled>
						<duration>171138</duration>
						<rate>
							<timebase>25</timebase>
							<ntsc>FALSE</ntsc>
						</rate>
						<start>6470</start>
						<end>6547</end>
						<in>50753</in>
						<out>50830</out>
						<pproTicksIn>515682961920000</pproTicksIn>
						<pproTicksOut>516465331200000</pproTicksOut>
						<file id="file-55"/>
						<sourcetrack>
							<mediatype>audio</mediatype>
							<trackindex>1</trackindex>
						</sourcetrack>
						<logginginfo>
							<description></description>
							<scene></scene>
							<shottake></shottake>
							<lognote></lognote>
						</logginginfo>
						<labels>
							<label2>Caribbean</label2>
						</labels>
					</clipitem>
					<clipitem id="clipitem-1069" premiereChannelType="mono">
						<masterclipid>masterclip-59</masterclipid>
						<name>Benedicte Bendiksen_01.wav</name>
						<enabled>TRUE</enabled>
						<duration>171138</duration>
						<rate>
							<timebase>25</timebase>
							<ntsc>FALSE</ntsc>
						</rate>
						<start>6547</start>
						<end>7368</end>
						<in>50869</in>
						<out>51690</out>
						<pproTicksIn>516861596160000</pproTicksIn>
						<pproTicksOut>525203481600000</pproTicksOut>
						<file id="file-55"/>
						<sourcetrack>
							<mediatype>audio</mediatype>
							<trackindex>1</trackindex>
						</sourcetrack>
						<logginginfo>
							<description></description>
							<scene></scene>
							<shottake></shottake>
							<lognote></lognote>
						</logginginfo>
						<labels>
							<label2>Caribbean</label2>
						</labels>
					</clipitem>
					<clipitem id="clipitem-1070" premiereChannelType="mono">
						<masterclipid>masterclip-59</masterclipid>
						<name>Benedicte Bendiksen_01.wav</name>
						<enabled>TRUE</enabled>
						<duration>171138</duration>
						<rate>
							<timebase>25</timebase>
							<ntsc>FALSE</ntsc>
						</rate>
						<start>7368</start>
						<end>7448</end>
						<in>51824</in>
						<out>51904</out>
						<pproTicksIn>526565007360000</pproTicksIn>
						<pproTicksOut>527377858560000</pproTicksOut>
						<file id="file-55"/>
						<sourcetrack>
							<mediatype>audio</mediatype>
							<trackindex>1</trackindex>
						</sourcetrack>
						<logginginfo>
							<description></description>
							<scene></scene>
							<shottake></shottake>
							<lognote></lognote>
						</logginginfo>
						<labels>
							<label2>Caribbean</label2>
						</labels>
					</clipitem>
					<clipitem id="clipitem-1071" premiereChannelType="mono">
						<masterclipid>masterclip-59</masterclipid>
						<name>Benedicte Bendiksen_01.wav</name>
						<enabled>TRUE</enabled>
						<duration>171138</duration>
						<rate>
							<timebase>25</timebase>
							<ntsc>FALSE</ntsc>
						</rate>
						<start>7448</start>
						<end>8194</end>
						<in>52064</in>
						<out>52810</out>
						<pproTicksIn>529003560960000</pproTicksIn>
						<pproTicksOut>536583398400000</pproTicksOut>
						<file id="file-55"/>
						<sourcetrack>
							<mediatype>audio</mediatype>
							<trackindex>1</trackindex>
						</sourcetrack>
						<logginginfo>
							<description></description>
							<scene></scene>
							<shottake></shottake>
							<lognote></lognote>
						</logginginfo>
						<labels>
							<label2>Caribbean</label2>
						</labels>
					</clipitem>
					<clipitem id="clipitem-1072" premiereChannelType="mono">
						<masterclipid>masterclip-59</masterclipid>
						<name>Benedicte Bendiksen_01.wav</name>
						<enabled>TRUE</enabled>
						<duration>171138</duration>
						<rate>
							<timebase>25</timebase>
							<ntsc>FALSE</ntsc>
						</rate>
						<start>8194</start>
						<end>8332</end>
						<in>57229</in>
						<out>57367</out>
						<pproTicksIn>581483266560000</pproTicksIn>
						<pproTicksOut>582885434880000</pproTicksOut>
						<file id="file-55"/>
						<sourcetrack>
							<mediatype>audio</mediatype>
							<trackindex>1</trackindex>
						</sourcetrack>
						<logginginfo>
							<description></description>
							<scene></scene>
							<shottake></shottake>
							<lognote></lognote>
						</logginginfo>
						<labels>
							<label2>Caribbean</label2>
						</labels>
					</clipitem>
					<clipitem id="clipitem-1073" premiereChannelType="mono">
						<masterclipid>masterclip-59</masterclipid>
						<name>Benedicte Bendiksen_01.wav</name>
						<enabled>TRUE</enabled>
						<duration>171138</duration>
						<rate>
							<timebase>25</timebase>
							<ntsc>FALSE</ntsc>
						</rate>
						<start>8332</start>
						<end>8592</end>
						<in>58240</in>
						<out>58500</out>
						<pproTicksIn>591755673600000</pproTicksIn>
						<pproTicksOut>594397440000000</pproTicksOut>
						<file id="file-55"/>
						<sourcetrack>
							<mediatype>audio</mediatype>
							<trackindex>1</trackindex>
						</sourcetrack>
						<logginginfo>
							<description></description>
							<scene></scene>
							<shottake></shottake>
							<lognote></lognote>
						</logginginfo>
						<labels>
							<label2>Caribbean</label2>
						</labels>
					</clipitem>
					<clipitem id="clipitem-1074" premiereChannelType="mono">
						<masterclipid>masterclip-59</masterclipid>
						<name>Benedicte Bendiksen_01.wav</name>
						<enabled>TRUE</enabled>
						<duration>171138</duration>
						<rate>
							<timebase>25</timebase>
							<ntsc>FALSE</ntsc>
						</rate>
						<start>8592</start>
						<end>8690</end>
						<in>58994</in>
						<out>59092</out>
						<pproTicksIn>599416796160000</pproTicksIn>
						<pproTicksOut>600412538880000</pproTicksOut>
						<file id="file-55"/>
						<sourcetrack>
							<mediatype>audio</mediatype>
							<trackindex>1</trackindex>
						</sourcetrack>
						<logginginfo>
							<description></description>
							<scene></scene>
							<shottake></shottake>
							<lognote></lognote>
						</logginginfo>
						<labels>
							<label2>Caribbean</label2>
						</labels>
					</clipitem>
					<clipitem id="clipitem-1075" premiereChannelType="mono">
						<masterclipid>masterclip-59</masterclipid>
						<name>Benedicte Bendiksen_01.wav</name>
						<enabled>TRUE</enabled>
						<duration>171138</duration>
						<rate>
							<timebase>25</timebase>
							<ntsc>FALSE</ntsc>
						</rate>
						<start>8690</start>
						<end>8999</end>
						<in>59189</in>
						<out>59498</out>
						<pproTicksIn>601398120960000</pproTicksIn>
						<pproTicksOut>604537758720000</pproTicksOut>
						<file id="file-55"/>
						<sourcetrack>
							<mediatype>audio</mediatype>
							<trackindex>1</trackindex>
						</sourcetrack>
						<logginginfo>
							<description></description>
							<scene></scene>
							<shottake></shottake>
							<lognote></lognote>
						</logginginfo>
						<labels>
							<label2>Caribbean</label2>
						</labels>
					</clipitem>
					<clipitem id="clipitem-1076" premiereChannelType="mono">
						<masterclipid>masterclip-59</masterclipid>
						<name>Benedicte Bendiksen_01.wav</name>
						<enabled>TRUE</enabled>
						<duration>171138</duration>
						<rate>
							<timebase>25</timebase>
							<ntsc>FALSE</ntsc>
						</rate>
						<start>8999</start>
						<end>9172</end>
						<in>59597</in>
						<out>59770</out>
						<pproTicksIn>605543662080000</pproTicksIn>
						<pproTicksOut>607301452800000</pproTicksOut>
						<file id="file-55"/>
						<sourcetrack>
							<mediatype>audio</mediatype>
							<trackindex>1</trackindex>
						</sourcetrack>
						<logginginfo>
							<description></description>
							<scene></scene>
							<shottake></shottake>
							<lognote></lognote>
						</logginginfo>
						<labels>
							<label2>Caribbean</label2>
						</labels>
					</clipitem>
					<clipitem id="clipitem-1077" premiereChannelType="mono">
						<masterclipid>masterclip-59</masterclipid>
						<name>Benedicte Bendiksen_01.wav</name>
						<enabled>TRUE</enabled>
						<duration>171138</duration>
						<rate>
							<timebase>25</timebase>
							<ntsc>FALSE</ntsc>
						</rate>
						<start>9172</start>
						<end>9280</end>
						<in>59921</in>
						<out>60029</out>
						<pproTicksIn>608835709440000</pproTicksIn>
						<pproTicksOut>609933058560000</pproTicksOut>
						<file id="file-55"/>
						<sourcetrack>
							<mediatype>audio</mediatype>
							<trackindex>1</trackindex>
						</sourcetrack>
						<logginginfo>
							<description></description>
							<scene></scene>
							<shottake></shottake>
							<lognote></lognote>
						</logginginfo>
						<labels>
							<label2>Caribbean</label2>
						</labels>
					</clipitem>
					<clipitem id="clipitem-1078" premiereChannelType="mono">
						<masterclipid>masterclip-59</masterclipid>
						<name>Benedicte Bendiksen_01.wav</name>
						<enabled>TRUE</enabled>
						<duration>171138</duration>
						<rate>
							<timebase>25</timebase>
							<ntsc>FALSE</ntsc>
						</rate>
						<start>9280</start>
						<end>9979</end>
						<in>65722</in>
						<out>66421</out>
						<pproTicksIn>667777582080000</pproTicksIn>
						<pproTicksOut>674879869440000</pproTicksOut>
						<file id="file-55"/>
						<sourcetrack>
							<mediatype>audio</mediatype>
							<trackindex>1</trackindex>
						</sourcetrack>
						<logginginfo>
							<description></description>
							<scene></scene>
							<shottake></shottake>
							<lognote></lognote>
						</logginginfo>
						<labels>
							<label2>Caribbean</label2>
						</labels>
					</clipitem>
					<clipitem id="clipitem-1079" premiereChannelType="mono">
						<masterclipid>masterclip-59</masterclipid>
						<name>Benedicte Bendiksen_01.wav</name>
						<enabled>TRUE</enabled>
						<duration>171138</duration>
						<rate>
							<timebase>25</timebase>
							<ntsc>FALSE</ntsc>
						</rate>
						<start>9979</start>
						<end>10054</end>
						<in>66518</in>
						<out>66593</out>
						<pproTicksIn>675865451520000</pproTicksIn>
						<pproTicksOut>676627499520000</pproTicksOut>
						<file id="file-55"/>
						<sourcetrack>
							<mediatype>audio</mediatype>
							<trackindex>1</trackindex>
						</sourcetrack>
						<logginginfo>
							<description></description>
							<scene></scene>
							<shottake></shottake>
							<lognote></lognote>
						</logginginfo>
						<labels>
							<label2>Caribbean</label2>
						</labels>
					</clipitem>
					<clipitem id="clipitem-1080" premiereChannelType="mono">
						<masterclipid>masterclip-59</masterclipid>
						<name>Benedicte Bendiksen_01.wav</name>
						<enabled>TRUE</enabled>
						<duration>171138</duration>
						<rate>
							<timebase>25</timebase>
							<ntsc>FALSE</ntsc>
						</rate>
						<start>10054</start>
						<end>10901</end>
						<in>67109</in>
						<out>67956</out>
						<pproTicksIn>681870389760000</pproTicksIn>
						<pproTicksOut>690476451840000</pproTicksOut>
						<file id="file-55"/>
						<sourcetrack>
							<mediatype>audio</mediatype>
							<trackindex>1</trackindex>
						</sourcetrack>
						<logginginfo>
							<description></description>
							<scene></scene>
							<shottake></shottake>
							<lognote></lognote>
						</logginginfo>
						<labels>
							<label2>Caribbean</label2>
						</labels>
					</clipitem>
					<clipitem id="clipitem-1081" premiereChannelType="mono">
						<masterclipid>masterclip-59</masterclipid>
						<name>Benedicte Bendiksen_01.wav</name>
						<enabled>TRUE</enabled>
						<duration>171138</duration>
						<rate>
							<timebase>25</timebase>
							<ntsc>FALSE</ntsc>
						</rate>
						<start>10901</start>
						<end>11157</end>
						<in>67945</in>
						<out>68201</out>
						<pproTicksIn>690364684800000</pproTicksIn>
						<pproTicksOut>692965808640000</pproTicksOut>
						<file id="file-55"/>
						<sourcetrack>
							<mediatype>audio</mediatype>
							<trackindex>1</trackindex>
						</sourcetrack>
						<logginginfo>
							<description></description>
							<scene></scene>
							<shottake></shottake>
							<lognote></lognote>
						</logginginfo>
						<labels>
							<label2>Caribbean</label2>
						</labels>
					</clipitem>
					<clipitem id="clipitem-1082" premiereChannelType="mono">
						<masterclipid>masterclip-59</masterclipid>
						<name>Benedicte Bendiksen_01.wav</name>
						<enabled>TRUE</enabled>
						<duration>171138</duration>
						<rate>
							<timebase>25</timebase>
							<ntsc>FALSE</ntsc>
						</rate>
						<start>11157</start>
						<end>11309</end>
						<in>68218</in>
						<out>68370</out>
						<pproTicksIn>693138539520000</pproTicksIn>
						<pproTicksOut>694682956800000</pproTicksOut>
						<file id="file-55"/>
						<sourcetrack>
							<mediatype>audio</mediatype>
							<trackindex>1</trackindex>
						</sourcetrack>
						<logginginfo>
							<description></description>
							<scene></scene>
							<shottake></shottake>
							<lognote></lognote>
						</logginginfo>
						<labels>
							<label2>Caribbean</label2>
						</labels>
					</clipitem>
					<clipitem id="clipitem-1083" premiereChannelType="mono">
						<masterclipid>masterclip-59</masterclipid>
						<name>Benedicte Bendiksen_01.wav</name>
						<enabled>TRUE</enabled>
						<duration>171138</duration>
						<rate>
							<timebase>25</timebase>
							<ntsc>FALSE</ntsc>
						</rate>
						<start>11309</start>
						<end>11781</end>
						<in>68707</in>
						<out>69179</out>
						<pproTicksIn>698107092480000</pproTicksIn>
						<pproTicksOut>702902914560000</pproTicksOut>
						<file id="file-55"/>
						<sourcetrack>
							<mediatype>audio</mediatype>
							<trackindex>1</trackindex>
						</sourcetrack>
						<logginginfo>
							<description></description>
							<scene></scene>
							<shottake></shottake>
							<lognote></lognote>
						</logginginfo>
						<labels>
							<label2>Caribbean</label2>
						</labels>
					</clipitem>
					<clipitem id="clipitem-1084" premiereChannelType="mono">
						<masterclipid>masterclip-59</masterclipid>
						<name>Benedicte Bendiksen_01.wav</name>
						<enabled>TRUE</enabled>
						<duration>171138</duration>
						<rate>
							<timebase>25</timebase>
							<ntsc>FALSE</ntsc>
						</rate>
						<start>11781</start>
						<end>12155</end>
						<in>70010</in>
						<out>70384</out>
						<pproTicksIn>711346406400000</pproTicksIn>
						<pproTicksOut>715146485760000</pproTicksOut>
						<file id="file-55"/>
						<sourcetrack>
							<mediatype>audio</mediatype>
							<trackindex>1</trackindex>
						</sourcetrack>
						<logginginfo>
							<description></description>
							<scene></scene>
							<shottake></shottake>
							<lognote></lognote>
						</logginginfo>
						<labels>
							<label2>Caribbean</label2>
						</labels>
					</clipitem>
					<clipitem id="clipitem-1085" premiereChannelType="mono">
						<masterclipid>masterclip-59</masterclipid>
						<name>Benedicte Bendiksen_01.wav</name>
						<enabled>TRUE</enabled>
						<duration>171138</duration>
						<rate>
							<timebase>25</timebase>
							<ntsc>FALSE</ntsc>
						</rate>
						<start>12155</start>
						<end>13212</end>
						<in>70448</in>
						<out>71505</out>
						<pproTicksIn>715796766720000</pproTicksIn>
						<pproTicksOut>726536563200000</pproTicksOut>
						<file id="file-55"/>
						<sourcetrack>
							<mediatype>audio</mediatype>
							<trackindex>1</trackindex>
						</sourcetrack>
						<logginginfo>
							<description></description>
							<scene></scene>
							<shottake></shottake>
							<lognote></lognote>
						</logginginfo>
						<labels>
							<label2>Caribbean</label2>
						</labels>
					</clipitem>
					<clipitem id="clipitem-1086" premiereChannelType="mono">
						<masterclipid>masterclip-59</masterclipid>
						<name>Benedicte Bendiksen_01.wav</name>
						<enabled>TRUE</enabled>
						<duration>171138</duration>
						<rate>
							<timebase>25</timebase>
							<ntsc>FALSE</ntsc>
						</rate>
						<start>13212</start>
						<end>13343</end>
						<in>71544</in>
						<out>71675</out>
						<pproTicksIn>726932828160000</pproTicksIn>
						<pproTicksOut>728263872000000</pproTicksOut>
						<file id="file-55"/>
						<sourcetrack>
							<mediatype>audio</mediatype>
							<trackindex>1</trackindex>
						</sourcetrack>
						<logginginfo>
							<description></description>
							<scene></scene>
							<shottake></shottake>
							<lognote></lognote>
						</logginginfo>
						<labels>
							<label2>Caribbean</label2>
						</labels>
					</clipitem>
					<clipitem id="clipitem-1087" premiereChannelType="mono">
						<masterclipid>masterclip-59</masterclipid>
						<name>Benedicte Bendiksen_01.wav</name>
						<enabled>TRUE</enabled>
						<duration>171138</duration>
						<rate>
							<timebase>25</timebase>
							<ntsc>FALSE</ntsc>
						</rate>
						<start>13359</start>
						<end>13506</end>
						<in>77542</in>
						<out>77689</out>
						<pproTicksIn>787876346880000</pproTicksIn>
						<pproTicksOut>789369960960000</pproTicksOut>
						<file id="file-55"/>
						<sourcetrack>
							<mediatype>audio</mediatype>
							<trackindex>1</trackindex>
						</sourcetrack>
						<logginginfo>
							<description></description>
							<scene></scene>
							<shottake></shottake>
							<lognote></lognote>
						</logginginfo>
						<labels>
							<label2>Caribbean</label2>
						</labels>
					</clipitem>
					<clipitem id="clipitem-1088" premiereChannelType="mono">
						<masterclipid>masterclip-59</masterclipid>
						<name>Benedicte Bendiksen_01.wav</name>
						<enabled>TRUE</enabled>
						<duration>171138</duration>
						<rate>
							<timebase>25</timebase>
							<ntsc>FALSE</ntsc>
						</rate>
						<start>13506</start>
						<end>14081</end>
						<in>78019</in>
						<out>78594</out>
						<pproTicksIn>792722972160000</pproTicksIn>
						<pproTicksOut>798565340160000</pproTicksOut>
						<file id="file-55"/>
						<sourcetrack>
							<mediatype>audio</mediatype>
							<trackindex>1</trackindex>
						</sourcetrack>
						<logginginfo>
							<description></description>
							<scene></scene>
							<shottake></shottake>
							<lognote></lognote>
						</logginginfo>
						<labels>
							<label2>Caribbean</label2>
						</labels>
					</clipitem>
					<clipitem id="clipitem-1089" premiereChannelType="mono">
						<masterclipid>masterclip-59</masterclipid>
						<name>Benedicte Bendiksen_01.wav</name>
						<enabled>TRUE</enabled>
						<duration>171138</duration>
						<rate>
							<timebase>25</timebase>
							<ntsc>FALSE</ntsc>
						</rate>
						<start>14081</start>
						<end>14232</end>
						<in>78676</in>
						<out>78827</out>
						<pproTicksIn>799398512640000</pproTicksIn>
						<pproTicksOut>800932769280000</pproTicksOut>
						<file id="file-55"/>
						<sourcetrack>
							<mediatype>audio</mediatype>
							<trackindex>1</trackindex>
						</sourcetrack>
						<logginginfo>
							<description></description>
							<scene></scene>
							<shottake></shottake>
							<lognote></lognote>
						</logginginfo>
						<labels>
							<label2>Caribbean</label2>
						</labels>
					</clipitem>
					<clipitem id="clipitem-1090" premiereChannelType="mono">
						<masterclipid>masterclip-59</masterclipid>
						<name>Benedicte Bendiksen_01.wav</name>
						<enabled>TRUE</enabled>
						<duration>171138</duration>
						<rate>
							<timebase>25</timebase>
							<ntsc>FALSE</ntsc>
						</rate>
						<start>14232</start>
						<end>14550</end>
						<in>78886</in>
						<out>79204</out>
						<pproTicksIn>801532247040000</pproTicksIn>
						<pproTicksOut>804763330560000</pproTicksOut>
						<file id="file-55"/>
						<sourcetrack>
							<mediatype>audio</mediatype>
							<trackindex>1</trackindex>
						</sourcetrack>
						<logginginfo>
							<description></description>
							<scene></scene>
							<shottake></shottake>
							<lognote></lognote>
						</logginginfo>
						<labels>
							<label2>Caribbean</label2>
						</labels>
					</clipitem>
					<clipitem id="clipitem-1091" premiereChannelType="mono">
						<masterclipid>masterclip-59</masterclipid>
						<name>Benedicte Bendiksen_01.wav</name>
						<enabled>TRUE</enabled>
						<duration>171138</duration>
						<rate>
							<timebase>25</timebase>
							<ntsc>FALSE</ntsc>
						</rate>
						<start>14550</start>
						<end>14774</end>
						<in>79562</in>
						<out>79786</out>
						<pproTicksIn>808400839680000</pproTicksIn>
						<pproTicksOut>810676823040000</pproTicksOut>
						<file id="file-55"/>
						<sourcetrack>
							<mediatype>audio</mediatype>
							<trackindex>1</trackindex>
						</sourcetrack>
						<logginginfo>
							<description></description>
							<scene></scene>
							<shottake></shottake>
							<lognote></lognote>
						</logginginfo>
						<labels>
							<label2>Caribbean</label2>
						</labels>
					</clipitem>
					<clipitem id="clipitem-1092" premiereChannelType="mono">
						<masterclipid>masterclip-59</masterclipid>
						<name>Benedicte Bendiksen_01.wav</name>
						<enabled>TRUE</enabled>
						<duration>171138</duration>
						<rate>
							<timebase>25</timebase>
							<ntsc>FALSE</ntsc>
						</rate>
						<start>14774</start>
						<end>14798</end>
						<in>79204</in>
						<out>79228</out>
						<pproTicksIn>804763330560000</pproTicksIn>
						<pproTicksOut>805007185920000</pproTicksOut>
						<file id="file-55"/>
						<sourcetrack>
							<mediatype>audio</mediatype>
							<trackindex>1</trackindex>
						</sourcetrack>
						<logginginfo>
							<description></description>
							<scene></scene>
							<shottake></shottake>
							<lognote></lognote>
						</logginginfo>
						<labels>
							<label2>Caribbean</label2>
						</labels>
					</clipitem>
					<clipitem id="clipitem-1093" premiereChannelType="mono">
						<masterclipid>masterclip-59</masterclipid>
						<name>Benedicte Bendiksen_01.wav</name>
						<enabled>TRUE</enabled>
						<duration>171138</duration>
						<rate>
							<timebase>25</timebase>
							<ntsc>FALSE</ntsc>
						</rate>
						<start>14798</start>
						<end>14887</end>
						<in>80182</in>
						<out>80271</out>
						<pproTicksIn>814700436480000</pproTicksIn>
						<pproTicksOut>815604733440000</pproTicksOut>
						<file id="file-55"/>
						<sourcetrack>
							<mediatype>audio</mediatype>
							<trackindex>1</trackindex>
						</sourcetrack>
						<logginginfo>
							<description></description>
							<scene></scene>
							<shottake></shottake>
							<lognote></lognote>
						</logginginfo>
						<labels>
							<label2>Caribbean</label2>
						</labels>
					</clipitem>
					<clipitem id="clipitem-1094" premiereChannelType="mono">
						<masterclipid>masterclip-59</masterclipid>
						<name>Benedicte Bendiksen_01.wav</name>
						<enabled>TRUE</enabled>
						<duration>171138</duration>
						<rate>
							<timebase>25</timebase>
							<ntsc>FALSE</ntsc>
						</rate>
						<start>14887</start>
						<end>15129</end>
						<in>80569</in>
						<out>80811</out>
						<pproTicksIn>818632604160000</pproTicksIn>
						<pproTicksOut>821091479040000</pproTicksOut>
						<file id="file-55"/>
						<sourcetrack>
							<mediatype>audio</mediatype>
							<trackindex>1</trackindex>
						</sourcetrack>
						<logginginfo>
							<description></description>
							<scene></scene>
							<shottake></shottake>
							<lognote></lognote>
						</logginginfo>
						<labels>
							<label2>Caribbean</label2>
						</labels>
					</clipitem>
					<clipitem id="clipitem-1095" premiereChannelType="mono">
						<masterclipid>masterclip-59</masterclipid>
						<name>Benedicte Bendiksen_01.wav</name>
						<enabled>TRUE</enabled>
						<duration>171138</duration>
						<rate>
							<timebase>25</timebase>
							<ntsc>FALSE</ntsc>
						</rate>
						<start>15129</start>
						<end>15493</end>
						<in>80817</in>
						<out>81181</out>
						<pproTicksIn>821152442880000</pproTicksIn>
						<pproTicksOut>824850915840000</pproTicksOut>
						<file id="file-55"/>
						<sourcetrack>
							<mediatype>audio</mediatype>
							<trackindex>1</trackindex>
						</sourcetrack>
						<logginginfo>
							<description></description>
							<scene></scene>
							<shottake></shottake>
							<lognote></lognote>
						</logginginfo>
						<labels>
							<label2>Caribbean</label2>
						</labels>
					</clipitem>
					<clipitem id="clipitem-1096" premiereChannelType="mono">
						<masterclipid>masterclip-59</masterclipid>
						<name>Benedicte Bendiksen_01.wav</name>
						<enabled>TRUE</enabled>
						<duration>171138</duration>
						<rate>
							<timebase>25</timebase>
							<ntsc>FALSE</ntsc>
						</rate>
						<start>15493</start>
						<end>15657</end>
						<in>81234</in>
						<out>81398</out>
						<pproTicksIn>825389429760000</pproTicksIn>
						<pproTicksOut>827055774720000</pproTicksOut>
						<file id="file-55"/>
						<sourcetrack>
							<mediatype>audio</mediatype>
							<trackindex>1</trackindex>
						</sourcetrack>
						<logginginfo>
							<description></description>
							<scene></scene>
							<shottake></shottake>
							<lognote></lognote>
						</logginginfo>
						<labels>
							<label2>Caribbean</label2>
						</labels>
					</clipitem>
					<clipitem id="clipitem-1097" premiereChannelType="mono">
						<masterclipid>masterclip-59</masterclipid>
						<name>Benedicte Bendiksen_01.wav</name>
						<enabled>TRUE</enabled>
						<duration>171138</duration>
						<rate>
							<timebase>25</timebase>
							<ntsc>FALSE</ntsc>
						</rate>
						<start>15657</start>
						<end>15850</end>
						<in>81563</in>
						<out>81756</out>
						<pproTicksIn>828732280320000</pproTicksIn>
						<pproTicksOut>830693283840000</pproTicksOut>
						<file id="file-55"/>
						<sourcetrack>
							<mediatype>audio</mediatype>
							<trackindex>1</trackindex>
						</sourcetrack>
						<logginginfo>
							<description></description>
							<scene></scene>
							<shottake></shottake>
							<lognote></lognote>
						</logginginfo>
						<labels>
							<label2>Caribbean</label2>
						</labels>
					</clipitem>
					<clipitem id="clipitem-1098" premiereChannelType="mono">
						<masterclipid>masterclip-59</masterclipid>
						<name>Benedicte Bendiksen_01.wav</name>
						<enabled>TRUE</enabled>
						<duration>171138</duration>
						<rate>
							<timebase>25</timebase>
							<ntsc>FALSE</ntsc>
						</rate>
						<start>15850</start>
						<end>16018</end>
						<in>81984</in>
						<out>82152</out>
						<pproTicksIn>833009909760000</pproTicksIn>
						<pproTicksOut>834716897280000</pproTicksOut>
						<file id="file-55"/>
						<sourcetrack>
							<mediatype>audio</mediatype>
							<trackindex>1</trackindex>
						</sourcetrack>
						<logginginfo>
							<description></description>
							<scene></scene>
							<shottake></shottake>
							<lognote></lognote>
						</logginginfo>
						<labels>
							<label2>Caribbean</label2>
						</labels>
					</clipitem>
					<clipitem id="clipitem-1099" premiereChannelType="mono">
						<masterclipid>masterclip-59</masterclipid>
						<name>Benedicte Bendiksen_01.wav</name>
						<enabled>TRUE</enabled>
						<duration>171138</duration>
						<rate>
							<timebase>25</timebase>
							<ntsc>FALSE</ntsc>
						</rate>
						<start>16018</start>
						<end>16073</end>
						<in>82477</in>
						<out>82532</out>
						<pproTicksIn>838019105280000</pproTicksIn>
						<pproTicksOut>838577940480000</pproTicksOut>
						<file id="file-55"/>
						<sourcetrack>
							<mediatype>audio</mediatype>
							<trackindex>1</trackindex>
						</sourcetrack>
						<logginginfo>
							<description></description>
							<scene></scene>
							<shottake></shottake>
							<lognote></lognote>
						</logginginfo>
						<labels>
							<label2>Caribbean</label2>
						</labels>
					</clipitem>
					<clipitem id="clipitem-1100" premiereChannelType="mono">
						<masterclipid>masterclip-59</masterclipid>
						<name>Benedicte Bendiksen_01.wav</name>
						<enabled>TRUE</enabled>
						<duration>171138</duration>
						<rate>
							<timebase>25</timebase>
							<ntsc>FALSE</ntsc>
						</rate>
						<start>16073</start>
						<end>16115</end>
						<in>83437</in>
						<out>83479</out>
						<pproTicksIn>847773319680000</pproTicksIn>
						<pproTicksOut>848200066560000</pproTicksOut>
						<file id="file-55"/>
						<sourcetrack>
							<mediatype>audio</mediatype>
							<trackindex>1</trackindex>
						</sourcetrack>
						<logginginfo>
							<description></description>
							<scene></scene>
							<shottake></shottake>
							<lognote></lognote>
						</logginginfo>
						<labels>
							<label2>Caribbean</label2>
						</labels>
					</clipitem>
					<clipitem id="clipitem-1101" premiereChannelType="mono">
						<masterclipid>masterclip-59</masterclipid>
						<name>Benedicte Bendiksen_01.wav</name>
						<enabled>TRUE</enabled>
						<duration>171138</duration>
						<rate>
							<timebase>25</timebase>
							<ntsc>FALSE</ntsc>
						</rate>
						<start>16115</start>
						<end>16204</end>
						<in>83479</in>
						<out>83568</out>
						<pproTicksIn>848200066560000</pproTicksIn>
						<pproTicksOut>849104363520000</pproTicksOut>
						<file id="file-55"/>
						<sourcetrack>
							<mediatype>audio</mediatype>
							<trackindex>1</trackindex>
						</sourcetrack>
						<logginginfo>
							<description></description>
							<scene></scene>
							<shottake></shottake>
							<lognote></lognote>
						</logginginfo>
						<labels>
							<label2>Caribbean</label2>
						</labels>
					</clipitem>
					<clipitem id="clipitem-1102" premiereChannelType="mono">
						<masterclipid>masterclip-59</masterclipid>
						<name>Benedicte Bendiksen_01.wav</name>
						<enabled>TRUE</enabled>
						<duration>171138</duration>
						<rate>
							<timebase>25</timebase>
							<ntsc>FALSE</ntsc>
						</rate>
						<start>16204</start>
						<end>16898</end>
						<in>83568</in>
						<out>84262</out>
						<pproTicksIn>849104363520000</pproTicksIn>
						<pproTicksOut>856155847680000</pproTicksOut>
						<file id="file-55"/>
						<sourcetrack>
							<mediatype>audio</mediatype>
							<trackindex>1</trackindex>
						</sourcetrack>
						<logginginfo>
							<description></description>
							<scene></scene>
							<shottake></shottake>
							<lognote></lognote>
						</logginginfo>
						<labels>
							<label2>Caribbean</label2>
						</labels>
					</clipitem>
					<clipitem id="clipitem-1103" premiereChannelType="mono">
						<masterclipid>masterclip-59</masterclipid>
						<name>Benedicte Bendiksen_01.wav</name>
						<enabled>TRUE</enabled>
						<duration>171138</duration>
						<rate>
							<timebase>25</timebase>
							<ntsc>FALSE</ntsc>
						</rate>
						<start>16898</start>
						<end>16971</end>
						<in>84282</in>
						<out>84355</out>
						<pproTicksIn>856359060480000</pproTicksIn>
						<pproTicksOut>857100787200000</pproTicksOut>
						<file id="file-55"/>
						<sourcetrack>
							<mediatype>audio</mediatype>
							<trackindex>1</trackindex>
						</sourcetrack>
						<logginginfo>
							<description></description>
							<scene></scene>
							<shottake></shottake>
							<lognote></lognote>
						</logginginfo>
						<labels>
							<label2>Caribbean</label2>
						</labels>
					</clipitem>
					<clipitem id="clipitem-1104" premiereChannelType="mono">
						<masterclipid>masterclip-59</masterclipid>
						<name>Benedicte Bendiksen_01.wav</name>
						<enabled>TRUE</enabled>
						<duration>171138</duration>
						<rate>
							<timebase>25</timebase>
							<ntsc>FALSE</ntsc>
						</rate>
						<start>16971</start>
						<end>17329</end>
						<in>84400</in>
						<out>84758</out>
						<pproTicksIn>857558016000000</pproTicksIn>
						<pproTicksOut>861195525120000</pproTicksOut>
						<file id="file-55"/>
						<sourcetrack>
							<mediatype>audio</mediatype>
							<trackindex>1</trackindex>
						</sourcetrack>
						<logginginfo>
							<description></description>
							<scene></scene>
							<shottake></shottake>
							<lognote></lognote>
						</logginginfo>
						<labels>
							<label2>Caribbean</label2>
						</labels>
					</clipitem>
					<clipitem id="clipitem-1105" premiereChannelType="mono">
						<masterclipid>masterclip-59</masterclipid>
						<name>Benedicte Bendiksen_01.wav</name>
						<enabled>TRUE</enabled>
						<duration>171138</duration>
						<rate>
							<timebase>25</timebase>
							<ntsc>FALSE</ntsc>
						</rate>
						<start>17329</start>
						<end>17417</end>
						<in>85268</in>
						<out>85356</out>
						<pproTicksIn>866377451520000</pproTicksIn>
						<pproTicksOut>867271587840000</pproTicksOut>
						<file id="file-55"/>
						<sourcetrack>
							<mediatype>audio</mediatype>
							<trackindex>1</trackindex>
						</sourcetrack>
						<logginginfo>
							<description></description>
							<scene></scene>
							<shottake></shottake>
							<lognote></lognote>
						</logginginfo>
						<labels>
							<label2>Caribbean</label2>
						</labels>
					</clipitem>
					<clipitem id="clipitem-1106" premiereChannelType="mono">
						<masterclipid>masterclip-59</masterclipid>
						<name>Benedicte Bendiksen_01.wav</name>
						<enabled>TRUE</enabled>
						<duration>171138</duration>
						<rate>
							<timebase>25</timebase>
							<ntsc>FALSE</ntsc>
						</rate>
						<start>17417</start>
						<end>17611</end>
						<in>85074</in>
						<out>85268</out>
						<pproTicksIn>864406287360000</pproTicksIn>
						<pproTicksOut>866377451520000</pproTicksOut>
						<file id="file-55"/>
						<sourcetrack>
							<mediatype>audio</mediatype>
							<trackindex>1</trackindex>
						</sourcetrack>
						<logginginfo>
							<description></description>
							<scene></scene>
							<shottake></shottake>
							<lognote></lognote>
						</logginginfo>
						<labels>
							<label2>Caribbean</label2>
						</labels>
					</clipitem>
					<clipitem id="clipitem-1107" premiereChannelType="mono">
						<masterclipid>masterclip-59</masterclipid>
						<name>Benedicte Bendiksen_01.wav</name>
						<enabled>TRUE</enabled>
						<duration>171138</duration>
						<rate>
							<timebase>25</timebase>
							<ntsc>FALSE</ntsc>
						</rate>
						<start>17611</start>
						<end>17830</end>
						<in>85560</in>
						<out>85779</out>
						<pproTicksIn>869344358400000</pproTicksIn>
						<pproTicksOut>871569538560000</pproTicksOut>
						<file id="file-55"/>
						<sourcetrack>
							<mediatype>audio</mediatype>
							<trackindex>1</trackindex>
						</sourcetrack>
						<logginginfo>
							<description></description>
							<scene></scene>
							<shottake></shottake>
							<lognote></lognote>
						</logginginfo>
						<labels>
							<label2>Caribbean</label2>
						</labels>
					</clipitem>
					<clipitem id="clipitem-1108" premiereChannelType="mono">
						<masterclipid>masterclip-59</masterclipid>
						<name>Benedicte Bendiksen_01.wav</name>
						<enabled>TRUE</enabled>
						<duration>171138</duration>
						<rate>
							<timebase>25</timebase>
							<ntsc>FALSE</ntsc>
						</rate>
						<start>17830</start>
						<end>17876</end>
						<in>83479</in>
						<out>83525</out>
						<pproTicksIn>848200066560000</pproTicksIn>
						<pproTicksOut>848667456000000</pproTicksOut>
						<file id="file-55"/>
						<sourcetrack>
							<mediatype>audio</mediatype>
							<trackindex>1</trackindex>
						</sourcetrack>
						<logginginfo>
							<description></description>
							<scene></scene>
							<shottake></shottake>
							<lognote></lognote>
						</logginginfo>
						<labels>
							<label2>Caribbean</label2>
						</labels>
					</clipitem>
					<clipitem id="clipitem-1109" premiereChannelType="mono">
						<masterclipid>masterclip-59</masterclipid>
						<name>Benedicte Bendiksen_01.wav</name>
						<enabled>TRUE</enabled>
						<duration>171138</duration>
						<rate>
							<timebase>25</timebase>
							<ntsc>FALSE</ntsc>
						</rate>
						<start>17876</start>
						<end>18012</end>
						<in>85841</in>
						<out>85977</out>
						<pproTicksIn>872199498240000</pproTicksIn>
						<pproTicksOut>873581345280000</pproTicksOut>
						<file id="file-55"/>
						<sourcetrack>
							<mediatype>audio</mediatype>
							<trackindex>1</trackindex>
						</sourcetrack>
						<logginginfo>
							<description></description>
							<scene></scene>
							<shottake></shottake>
							<lognote></lognote>
						</logginginfo>
						<labels>
							<label2>Caribbean</label2>
						</labels>
					</clipitem>
					<clipitem id="clipitem-1110" premiereChannelType="mono">
						<masterclipid>masterclip-59</masterclipid>
						<name>Benedicte Bendiksen_01.wav</name>
						<enabled>TRUE</enabled>
						<duration>171138</duration>
						<rate>
							<timebase>25</timebase>
							<ntsc>FALSE</ntsc>
						</rate>
						<start>18012</start>
						<end>18158</end>
						<in>116811</in>
						<out>116957</out>
						<pproTicksIn>1186874519040000</pproTicksIn>
						<pproTicksOut>1188357972480000</pproTicksOut>
						<file id="file-55"/>
						<sourcetrack>
							<mediatype>audio</mediatype>
							<trackindex>1</trackindex>
						</sourcetrack>
						<logginginfo>
							<description></description>
							<scene></scene>
							<shottake></shottake>
							<lognote></lognote>
						</logginginfo>
						<labels>
							<label2>Caribbean</label2>
						</labels>
					</clipitem>
					<clipitem id="clipitem-1111" premiereChannelType="mono">
						<masterclipid>masterclip-59</masterclipid>
						<name>Benedicte Bendiksen_01.wav</name>
						<enabled>TRUE</enabled>
						<duration>171138</duration>
						<rate>
							<timebase>25</timebase>
							<ntsc>FALSE</ntsc>
						</rate>
						<start>18158</start>
						<end>18332</end>
						<in>86150</in>
						<out>86324</out>
						<pproTicksIn>875339136000000</pproTicksIn>
						<pproTicksOut>877107087360000</pproTicksOut>
						<file id="file-55"/>
						<sourcetrack>
							<mediatype>audio</mediatype>
							<trackindex>1</trackindex>
						</sourcetrack>
						<logginginfo>
							<description></description>
							<scene></scene>
							<shottake></shottake>
							<lognote></lognote>
						</logginginfo>
						<labels>
							<label2>Caribbean</label2>
						</labels>
					</clipitem>
					<clipitem id="clipitem-1112" premiereChannelType="mono">
						<masterclipid>masterclip-59</masterclipid>
						<name>Benedicte Bendiksen_01.wav</name>
						<enabled>TRUE</enabled>
						<duration>171138</duration>
						<rate>
							<timebase>25</timebase>
							<ntsc>FALSE</ntsc>
						</rate>
						<start>18332</start>
						<end>22265</end>
						<in>87920</in>
						<out>91853</out>
						<pproTicksIn>893323468800000</pproTicksIn>
						<pproTicksOut>933285265920000</pproTicksOut>
						<file id="file-55"/>
						<sourcetrack>
							<mediatype>audio</mediatype>
							<trackindex>1</trackindex>
						</sourcetrack>
						<logginginfo>
							<description></description>
							<scene></scene>
							<shottake></shottake>
							<lognote></lognote>
						</logginginfo>
						<labels>
							<label2>Caribbean</label2>
						</labels>
					</clipitem>
					<clipitem id="clipitem-1113" premiereChannelType="mono">
						<masterclipid>masterclip-59</masterclipid>
						<name>Benedicte Bendiksen_01.wav</name>
						<enabled>TRUE</enabled>
						<duration>171138</duration>
						<rate>
							<timebase>25</timebase>
							<ntsc>FALSE</ntsc>
						</rate>
						<start>22265</start>
						<end>23367</end>
						<in>91952</in>
						<out>93054</out>
						<pproTicksIn>934291169280000</pproTicksIn>
						<pproTicksOut>945488194560000</pproTicksOut>
						<file id="file-55"/>
						<sourcetrack>
							<mediatype>audio</mediatype>
							<trackindex>1</trackindex>
						</sourcetrack>
						<logginginfo>
							<description></description>
							<scene></scene>
							<shottake></shottake>
							<lognote></lognote>
						</logginginfo>
						<labels>
							<label2>Caribbean</label2>
						</labels>
					</clipitem>
					<clipitem id="clipitem-1114" premiereChannelType="mono">
						<masterclipid>masterclip-59</masterclipid>
						<name>Benedicte Bendiksen_01.wav</name>
						<enabled>TRUE</enabled>
						<duration>171138</duration>
						<rate>
							<timebase>25</timebase>
							<ntsc>FALSE</ntsc>
						</rate>
						<start>23367</start>
						<end>23724</end>
						<in>93377</in>
						<out>93734</out>
						<pproTicksIn>948770081280000</pproTicksIn>
						<pproTicksOut>952397429760000</pproTicksOut>
						<file id="file-55"/>
						<sourcetrack>
							<mediatype>audio</mediatype>
							<trackindex>1</trackindex>
						</sourcetrack>
						<logginginfo>
							<description></description>
							<scene></scene>
							<shottake></shottake>
							<lognote></lognote>
						</logginginfo>
						<labels>
							<label2>Caribbean</label2>
						</labels>
					</clipitem>
					<clipitem id="clipitem-1115" premiereChannelType="mono">
						<masterclipid>masterclip-59</masterclipid>
						<name>Benedicte Bendiksen_01.wav</name>
						<enabled>TRUE</enabled>
						<duration>171138</duration>
						<rate>
							<timebase>25</timebase>
							<ntsc>FALSE</ntsc>
						</rate>
						<start>23724</start>
						<end>24114</end>
						<in>94350</in>
						<out>94740</out>
						<pproTicksIn>958656384000000</pproTicksIn>
						<pproTicksOut>962619033600000</pproTicksOut>
						<file id="file-55"/>
						<sourcetrack>
							<mediatype>audio</mediatype>
							<trackindex>1</trackindex>
						</sourcetrack>
						<logginginfo>
							<description></description>
							<scene></scene>
							<shottake></shottake>
							<lognote></lognote>
						</logginginfo>
						<labels>
							<label2>Caribbean</label2>
						</labels>
					</clipitem>
					<clipitem id="clipitem-1116" premiereChannelType="mono">
						<masterclipid>masterclip-59</masterclipid>
						<name>Benedicte Bendiksen_01.wav</name>
						<enabled>TRUE</enabled>
						<duration>171138</duration>
						<rate>
							<timebase>25</timebase>
							<ntsc>FALSE</ntsc>
						</rate>
						<start>24114</start>
						<end>24241</end>
						<in>94797</in>
						<out>94924</out>
						<pproTicksIn>963198190080000</pproTicksIn>
						<pproTicksOut>964488591360000</pproTicksOut>
						<file id="file-55"/>
						<sourcetrack>
							<mediatype>audio</mediatype>
							<trackindex>1</trackindex>
						</sourcetrack>
						<logginginfo>
							<description></description>
							<scene></scene>
							<shottake></shottake>
							<lognote></lognote>
						</logginginfo>
						<labels>
							<label2>Caribbean</label2>
						</labels>
					</clipitem>
					<clipitem id="clipitem-1117" premiereChannelType="mono">
						<masterclipid>masterclip-59</masterclipid>
						<name>Benedicte Bendiksen_01.wav</name>
						<enabled>TRUE</enabled>
						<duration>171138</duration>
						<rate>
							<timebase>25</timebase>
							<ntsc>FALSE</ntsc>
						</rate>
						<start>24241</start>
						<end>24388</end>
						<in>95094</in>
						<out>95241</out>
						<pproTicksIn>966215900160000</pproTicksIn>
						<pproTicksOut>967709514240000</pproTicksOut>
						<file id="file-55"/>
						<sourcetrack>
							<mediatype>audio</mediatype>
							<trackindex>1</trackindex>
						</sourcetrack>
						<logginginfo>
							<description></description>
							<scene></scene>
							<shottake></shottake>
							<lognote></lognote>
						</logginginfo>
						<labels>
							<label2>Caribbean</label2>
						</labels>
					</clipitem>
					<clipitem id="clipitem-1118" premiereChannelType="mono">
						<masterclipid>masterclip-59</masterclipid>
						<name>Benedicte Bendiksen_01.wav</name>
						<enabled>TRUE</enabled>
						<duration>171138</duration>
						<rate>
							<timebase>25</timebase>
							<ntsc>FALSE</ntsc>
						</rate>
						<start>24388</start>
						<end>24600</end>
						<in>95265</in>
						<out>95477</out>
						<pproTicksIn>967953369600000</pproTicksIn>
						<pproTicksOut>970107425280000</pproTicksOut>
						<file id="file-55"/>
						<sourcetrack>
							<mediatype>audio</mediatype>
							<trackindex>1</trackindex>
						</sourcetrack>
						<logginginfo>
							<description></description>
							<scene></scene>
							<shottake></shottake>
							<lognote></lognote>
						</logginginfo>
						<labels>
							<label2>Caribbean</label2>
						</labels>
					</clipitem>
					<clipitem id="clipitem-1119" premiereChannelType="mono">
						<masterclipid>masterclip-59</masterclipid>
						<name>Benedicte Bendiksen_01.wav</name>
						<enabled>TRUE</enabled>
						<duration>171138</duration>
						<rate>
							<timebase>25</timebase>
							<ntsc>FALSE</ntsc>
						</rate>
						<start>24600</start>
						<end>24872</end>
						<in>95504</in>
						<out>95776</out>
						<pproTicksIn>970381762560000</pproTicksIn>
						<pproTicksOut>973145456640000</pproTicksOut>
						<file id="file-55"/>
						<sourcetrack>
							<mediatype>audio</mediatype>
							<trackindex>1</trackindex>
						</sourcetrack>
						<logginginfo>
							<description></description>
							<scene></scene>
							<shottake></shottake>
							<lognote></lognote>
						</logginginfo>
						<labels>
							<label2>Caribbean</label2>
						</labels>
					</clipitem>
					<clipitem id="clipitem-1120" premiereChannelType="mono">
						<masterclipid>masterclip-59</masterclipid>
						<name>Benedicte Bendiksen_01.wav</name>
						<enabled>TRUE</enabled>
						<duration>171138</duration>
						<rate>
							<timebase>25</timebase>
							<ntsc>FALSE</ntsc>
						</rate>
						<start>24872</start>
						<end>26291</end>
						<in>95789</in>
						<out>97208</out>
						<pproTicksIn>973277544960000</pproTicksIn>
						<pproTicksOut>987695493120000</pproTicksOut>
						<file id="file-55"/>
						<sourcetrack>
							<mediatype>audio</mediatype>
							<trackindex>1</trackindex>
						</sourcetrack>
						<logginginfo>
							<description></description>
							<scene></scene>
							<shottake></shottake>
							<lognote></lognote>
						</logginginfo>
						<labels>
							<label2>Caribbean</label2>
						</labels>
					</clipitem>
					<clipitem id="clipitem-1121" premiereChannelType="mono">
						<masterclipid>masterclip-59</masterclipid>
						<name>Benedicte Bendiksen_01.wav</name>
						<enabled>TRUE</enabled>
						<duration>171138</duration>
						<rate>
							<timebase>25</timebase>
							<ntsc>FALSE</ntsc>
						</rate>
						<start>26291</start>
						<end>26387</end>
						<in>97273</in>
						<out>97369</out>
						<pproTicksIn>988355934720000</pproTicksIn>
						<pproTicksOut>989331356160000</pproTicksOut>
						<file id="file-55"/>
						<sourcetrack>
							<mediatype>audio</mediatype>
							<trackindex>1</trackindex>
						</sourcetrack>
						<logginginfo>
							<description></description>
							<scene></scene>
							<shottake></shottake>
							<lognote></lognote>
						</logginginfo>
						<labels>
							<label2>Caribbean</label2>
						</labels>
					</clipitem>
					<clipitem id="clipitem-1122" premiereChannelType="mono">
						<masterclipid>masterclip-59</masterclipid>
						<name>Benedicte Bendiksen_01.wav</name>
						<enabled>TRUE</enabled>
						<duration>171138</duration>
						<rate>
							<timebase>25</timebase>
							<ntsc>FALSE</ntsc>
						</rate>
						<start>26387</start>
						<end>27111</end>
						<in>97523</in>
						<out>98247</out>
						<pproTicksIn>990896094720000</pproTicksIn>
						<pproTicksOut>998252398080000</pproTicksOut>
						<file id="file-55"/>
						<sourcetrack>
							<mediatype>audio</mediatype>
							<trackindex>1</trackindex>
						</sourcetrack>
						<logginginfo>
							<description></description>
							<scene></scene>
							<shottake></shottake>
							<lognote></lognote>
						</logginginfo>
						<labels>
							<label2>Caribbean</label2>
						</labels>
					</clipitem>
					<clipitem id="clipitem-1123" premiereChannelType="mono">
						<masterclipid>masterclip-59</masterclipid>
						<name>Benedicte Bendiksen_01.wav</name>
						<enabled>TRUE</enabled>
						<duration>171138</duration>
						<rate>
							<timebase>25</timebase>
							<ntsc>FALSE</ntsc>
						</rate>
						<start>27111</start>
						<end>27316</end>
						<in>98260</in>
						<out>98465</out>
						<pproTicksIn>998384486400000</pproTicksIn>
						<pproTicksOut>1000467417600000</pproTicksOut>
						<file id="file-55"/>
						<sourcetrack>
							<mediatype>audio</mediatype>
							<trackindex>1</trackindex>
						</sourcetrack>
						<logginginfo>
							<description></description>
							<scene></scene>
							<shottake></shottake>
							<lognote></lognote>
						</logginginfo>
						<labels>
							<label2>Caribbean</label2>
						</labels>
					</clipitem>
					<clipitem id="clipitem-1124" premiereChannelType="mono">
						<masterclipid>masterclip-59</masterclipid>
						<name>Benedicte Bendiksen_01.wav</name>
						<enabled>TRUE</enabled>
						<duration>171138</duration>
						<rate>
							<timebase>25</timebase>
							<ntsc>FALSE</ntsc>
						</rate>
						<start>27316</start>
						<end>27702</end>
						<in>98958</in>
						<out>99344</out>
						<pproTicksIn>1005476613120000</pproTicksIn>
						<pproTicksOut>1009398620160000</pproTicksOut>
						<file id="file-55"/>
						<sourcetrack>
							<mediatype>audio</mediatype>
							<trackindex>1</trackindex>
						</sourcetrack>
						<logginginfo>
							<description></description>
							<scene></scene>
							<shottake></shottake>
							<lognote></lognote>
						</logginginfo>
						<labels>
							<label2>Caribbean</label2>
						</labels>
					</clipitem>
					<clipitem id="clipitem-1125" premiereChannelType="mono">
						<masterclipid>masterclip-59</masterclipid>
						<name>Benedicte Bendiksen_01.wav</name>
						<enabled>TRUE</enabled>
						<duration>171138</duration>
						<rate>
							<timebase>25</timebase>
							<ntsc>FALSE</ntsc>
						</rate>
						<start>27702</start>
						<end>27789</end>
						<in>99640</in>
						<out>99727</out>
						<pproTicksIn>1012406169600000</pproTicksIn>
						<pproTicksOut>1013290145280000</pproTicksOut>
						<file id="file-55"/>
						<sourcetrack>
							<mediatype>audio</mediatype>
							<trackindex>1</trackindex>
						</sourcetrack>
						<logginginfo>
							<description></description>
							<scene></scene>
							<shottake></shottake>
							<lognote></lognote>
						</logginginfo>
						<labels>
							<label2>Caribbean</label2>
						</labels>
					</clipitem>
					<clipitem id="clipitem-1126" premiereChannelType="mono">
						<masterclipid>masterclip-59</masterclipid>
						<name>Benedicte Bendiksen_01.wav</name>
						<enabled>TRUE</enabled>
						<duration>171138</duration>
						<rate>
							<timebase>25</timebase>
							<ntsc>FALSE</ntsc>
						</rate>
						<start>27789</start>
						<end>29601</end>
						<in>99831</in>
						<out>101643</out>
						<pproTicksIn>1014346851840000</pproTicksIn>
						<pproTicksOut>1032757931520000</pproTicksOut>
						<file id="file-55"/>
						<sourcetrack>
							<mediatype>audio</mediatype>
							<trackindex>1</trackindex>
						</sourcetrack>
						<logginginfo>
							<description></description>
							<scene></scene>
							<shottake></shottake>
							<lognote></lognote>
						</logginginfo>
						<labels>
							<label2>Caribbean</label2>
						</labels>
					</clipitem>
					<clipitem id="clipitem-1127" premiereChannelType="mono">
						<masterclipid>masterclip-59</masterclipid>
						<name>Benedicte Bendiksen_01.wav</name>
						<enabled>TRUE</enabled>
						<duration>171138</duration>
						<rate>
							<timebase>25</timebase>
							<ntsc>FALSE</ntsc>
						</rate>
						<start>29601</start>
						<end>29693</end>
						<in>102540</in>
						<out>102632</out>
						<pproTicksIn>1041872025600000</pproTicksIn>
						<pproTicksOut>1042806804480000</pproTicksOut>
						<file id="file-55"/>
						<sourcetrack>
							<mediatype>audio</mediatype>
							<trackindex>1</trackindex>
						</sourcetrack>
						<logginginfo>
							<description></description>
							<scene></scene>
							<shottake></shottake>
							<lognote></lognote>
						</logginginfo>
						<labels>
							<label2>Caribbean</label2>
						</labels>
					</clipitem>
					<clipitem id="clipitem-1128" premiereChannelType="mono">
						<masterclipid>masterclip-59</masterclipid>
						<name>Benedicte Bendiksen_01.wav</name>
						<enabled>TRUE</enabled>
						<duration>171138</duration>
						<rate>
							<timebase>25</timebase>
							<ntsc>FALSE</ntsc>
						</rate>
						<start>29693</start>
						<end>29760</end>
						<in>103317</in>
						<out>103384</out>
						<pproTicksIn>1049766842880000</pproTicksIn>
						<pproTicksOut>1050447605760000</pproTicksOut>
						<file id="file-55"/>
						<sourcetrack>
							<mediatype>audio</mediatype>
							<trackindex>1</trackindex>
						</sourcetrack>
						<logginginfo>
							<description></description>
							<scene></scene>
							<shottake></shottake>
							<lognote></lognote>
						</logginginfo>
						<labels>
							<label2>Caribbean</label2>
						</labels>
					</clipitem>
					<clipitem id="clipitem-1129" premiereChannelType="mono">
						<masterclipid>masterclip-59</masterclipid>
						<name>Benedicte Bendiksen_01.wav</name>
						<enabled>TRUE</enabled>
						<duration>171138</duration>
						<rate>
							<timebase>25</timebase>
							<ntsc>FALSE</ntsc>
						</rate>
						<start>29760</start>
						<end>29774</end>
						<in>103438</in>
						<out>103452</out>
						<pproTicksIn>1050996280320000</pproTicksIn>
						<pproTicksOut>1051138529280000</pproTicksOut>
						<file id="file-55"/>
						<sourcetrack>
							<mediatype>audio</mediatype>
							<trackindex>1</trackindex>
						</sourcetrack>
						<logginginfo>
							<description></description>
							<scene></scene>
							<shottake></shottake>
							<lognote></lognote>
						</logginginfo>
						<labels>
							<label2>Caribbean</label2>
						</labels>
					</clipitem>
					<clipitem id="clipitem-1130" premiereChannelType="mono">
						<masterclipid>masterclip-59</masterclipid>
						<name>Benedicte Bendiksen_01.wav</name>
						<enabled>TRUE</enabled>
						<duration>171138</duration>
						<rate>
							<timebase>25</timebase>
							<ntsc>FALSE</ntsc>
						</rate>
						<start>29774</start>
						<end>29865</end>
						<in>107326</in>
						<out>107417</out>
						<pproTicksIn>1090500848640000</pproTicksIn>
						<pproTicksOut>1091425466880000</pproTicksOut>
						<file id="file-55"/>
						<sourcetrack>
							<mediatype>audio</mediatype>
							<trackindex>1</trackindex>
						</sourcetrack>
						<logginginfo>
							<description></description>
							<scene></scene>
							<shottake></shottake>
							<lognote></lognote>
						</logginginfo>
						<labels>
							<label2>Caribbean</label2>
						</labels>
					</clipitem>
					<clipitem id="clipitem-1131" premiereChannelType="mono">
						<masterclipid>masterclip-59</masterclipid>
						<name>Benedicte Bendiksen_01.wav</name>
						<enabled>TRUE</enabled>
						<duration>171138</duration>
						<rate>
							<timebase>25</timebase>
							<ntsc>FALSE</ntsc>
						</rate>
						<start>29865</start>
						<end>30769</end>
						<in>107708</in>
						<out>108612</out>
						<pproTicksIn>1094382213120000</pproTicksIn>
						<pproTicksOut>1103567431680000</pproTicksOut>
						<file id="file-55"/>
						<sourcetrack>
							<mediatype>audio</mediatype>
							<trackindex>1</trackindex>
						</sourcetrack>
						<logginginfo>
							<description></description>
							<scene></scene>
							<shottake></shottake>
							<lognote></lognote>
						</logginginfo>
						<labels>
							<label2>Caribbean</label2>
						</labels>
					</clipitem>
					<clipitem id="clipitem-1132" premiereChannelType="mono">
						<masterclipid>masterclip-59</masterclipid>
						<name>Benedicte Bendiksen_01.wav</name>
						<enabled>TRUE</enabled>
						<duration>171138</duration>
						<rate>
							<timebase>25</timebase>
							<ntsc>FALSE</ntsc>
						</rate>
						<start>30769</start>
						<end>30880</end>
						<in>108644</in>
						<out>108755</out>
						<pproTicksIn>1103892572160000</pproTicksIn>
						<pproTicksOut>1105020403200000</pproTicksOut>
						<file id="file-55"/>
						<sourcetrack>
							<mediatype>audio</mediatype>
							<trackindex>1</trackindex>
						</sourcetrack>
						<logginginfo>
							<description></description>
							<scene></scene>
							<shottake></shottake>
							<lognote></lognote>
						</logginginfo>
						<labels>
							<label2>Caribbean</label2>
						</labels>
					</clipitem>
					<clipitem id="clipitem-1133" premiereChannelType="mono">
						<masterclipid>masterclip-59</masterclipid>
						<name>Benedicte Bendiksen_01.wav</name>
						<enabled>TRUE</enabled>
						<duration>171138</duration>
						<rate>
							<timebase>25</timebase>
							<ntsc>FALSE</ntsc>
						</rate>
						<start>30880</start>
						<end>31513</end>
						<in>108776</in>
						<out>109409</out>
						<pproTicksIn>1105233776640000</pproTicksIn>
						<pproTicksOut>1111665461760000</pproTicksOut>
						<file id="file-55"/>
						<sourcetrack>
							<mediatype>audio</mediatype>
							<trackindex>1</trackindex>
						</sourcetrack>
						<logginginfo>
							<description></description>
							<scene></scene>
							<shottake></shottake>
							<lognote></lognote>
						</logginginfo>
						<labels>
							<label2>Caribbean</label2>
						</labels>
					</clipitem>
					<clipitem id="clipitem-1134" premiereChannelType="mono">
						<masterclipid>masterclip-59</masterclipid>
						<name>Benedicte Bendiksen_01.wav</name>
						<enabled>TRUE</enabled>
						<duration>171138</duration>
						<rate>
							<timebase>25</timebase>
							<ntsc>FALSE</ntsc>
						</rate>
						<start>31513</start>
						<end>31909</end>
						<in>109447</in>
						<out>109843</out>
						<pproTicksIn>1112051566080000</pproTicksIn>
						<pproTicksOut>1116075179520000</pproTicksOut>
						<file id="file-55"/>
						<sourcetrack>
							<mediatype>audio</mediatype>
							<trackindex>1</trackindex>
						</sourcetrack>
						<logginginfo>
							<description></description>
							<scene></scene>
							<shottake></shottake>
							<lognote></lognote>
						</logginginfo>
						<labels>
							<label2>Caribbean</label2>
						</labels>
					</clipitem>
					<clipitem id="clipitem-1135" premiereChannelType="mono">
						<masterclipid>masterclip-59</masterclipid>
						<name>Benedicte Bendiksen_01.wav</name>
						<enabled>TRUE</enabled>
						<duration>171138</duration>
						<rate>
							<timebase>25</timebase>
							<ntsc>FALSE</ntsc>
						</rate>
						<start>31909</start>
						<end>32128</end>
						<in>109926</in>
						<out>110145</out>
						<pproTicksIn>1116918512640000</pproTicksIn>
						<pproTicksOut>1119143692800000</pproTicksOut>
						<file id="file-55"/>
						<sourcetrack>
							<mediatype>audio</mediatype>
							<trackindex>1</trackindex>
						</sourcetrack>
						<logginginfo>
							<description></description>
							<scene></scene>
							<shottake></shottake>
							<lognote></lognote>
						</logginginfo>
						<labels>
							<label2>Caribbean</label2>
						</labels>
					</clipitem>
					<clipitem id="clipitem-1136" premiereChannelType="mono">
						<masterclipid>masterclip-59</masterclipid>
						<name>Benedicte Bendiksen_01.wav</name>
						<enabled>TRUE</enabled>
						<duration>171138</duration>
						<rate>
							<timebase>25</timebase>
							<ntsc>FALSE</ntsc>
						</rate>
						<start>32128</start>
						<end>32853</end>
						<in>111277</in>
						<out>112002</out>
						<pproTicksIn>1130645537280000</pproTicksIn>
						<pproTicksOut>1138012001280000</pproTicksOut>
						<file id="file-55"/>
						<sourcetrack>
							<mediatype>audio</mediatype>
							<trackindex>1</trackindex>
						</sourcetrack>
						<logginginfo>
							<description></description>
							<scene></scene>
							<shottake></shottake>
							<lognote></lognote>
						</logginginfo>
						<labels>
							<label2>Caribbean</label2>
						</labels>
					</clipitem>
					<clipitem id="clipitem-1137" premiereChannelType="mono">
						<masterclipid>masterclip-59</masterclipid>
						<name>Benedicte Bendiksen_01.wav</name>
						<enabled>TRUE</enabled>
						<duration>171138</duration>
						<rate>
							<timebase>25</timebase>
							<ntsc>FALSE</ntsc>
						</rate>
						<start>32853</start>
						<end>32890</end>
						<in>112002</in>
						<out>112039</out>
						<pproTicksIn>1138012001280000</pproTicksIn>
						<pproTicksOut>1138387944960000</pproTicksOut>
						<file id="file-55"/>
						<sourcetrack>
							<mediatype>audio</mediatype>
							<trackindex>1</trackindex>
						</sourcetrack>
						<logginginfo>
							<description></description>
							<scene></scene>
							<shottake></shottake>
							<lognote></lognote>
						</logginginfo>
						<labels>
							<label2>Caribbean</label2>
						</labels>
					</clipitem>
					<clipitem id="clipitem-1138" premiereChannelType="mono">
						<masterclipid>masterclip-59</masterclipid>
						<name>Benedicte Bendiksen_01.wav</name>
						<enabled>TRUE</enabled>
						<duration>171138</duration>
						<rate>
							<timebase>25</timebase>
							<ntsc>FALSE</ntsc>
						</rate>
						<start>32890</start>
						<end>33281</end>
						<in>115277</in>
						<out>115668</out>
						<pproTicksIn>1171288097280000</pproTicksIn>
						<pproTicksOut>1175260907520000</pproTicksOut>
						<file id="file-55"/>
						<sourcetrack>
							<mediatype>audio</mediatype>
							<trackindex>1</trackindex>
						</sourcetrack>
						<logginginfo>
							<description></description>
							<scene></scene>
							<shottake></shottake>
							<lognote></lognote>
						</logginginfo>
						<labels>
							<label2>Caribbean</label2>
						</labels>
					</clipitem>
					<clipitem id="clipitem-1139" premiereChannelType="mono">
						<masterclipid>masterclip-59</masterclipid>
						<name>Benedicte Bendiksen_01.wav</name>
						<enabled>TRUE</enabled>
						<duration>171138</duration>
						<rate>
							<timebase>25</timebase>
							<ntsc>FALSE</ntsc>
						</rate>
						<start>33281</start>
						<end>33357</end>
						<in>116203</in>
						<out>116279</out>
						<pproTicksIn>1180696849920000</pproTicksIn>
						<pproTicksOut>1181469058560000</pproTicksOut>
						<file id="file-55"/>
						<sourcetrack>
							<mediatype>audio</mediatype>
							<trackindex>1</trackindex>
						</sourcetrack>
						<logginginfo>
							<description></description>
							<scene></scene>
							<shottake></shottake>
							<lognote></lognote>
						</logginginfo>
						<labels>
							<label2>Caribbean</label2>
						</labels>
					</clipitem>
					<clipitem id="clipitem-1140" premiereChannelType="mono">
						<masterclipid>masterclip-59</masterclipid>
						<name>Benedicte Bendiksen_01.wav</name>
						<enabled>TRUE</enabled>
						<duration>171138</duration>
						<rate>
							<timebase>25</timebase>
							<ntsc>FALSE</ntsc>
						</rate>
						<start>33357</start>
						<end>33465</end>
						<in>116298</in>
						<out>116406</out>
						<pproTicksIn>1181662110720000</pproTicksIn>
						<pproTicksOut>1182759459840000</pproTicksOut>
						<file id="file-55"/>
						<sourcetrack>
							<mediatype>audio</mediatype>
							<trackindex>1</trackindex>
						</sourcetrack>
						<logginginfo>
							<description></description>
							<scene></scene>
							<shottake></shottake>
							<lognote></lognote>
						</logginginfo>
						<labels>
							<label2>Caribbean</label2>
						</labels>
					</clipitem>
					<clipitem id="clipitem-1141" premiereChannelType="mono">
						<masterclipid>masterclip-59</masterclipid>
						<name>Benedicte Bendiksen_01.wav</name>
						<enabled>TRUE</enabled>
						<duration>171138</duration>
						<rate>
							<timebase>25</timebase>
							<ntsc>FALSE</ntsc>
						</rate>
						<start>33465</start>
						<end>33766</end>
						<in>116510</in>
						<out>116811</out>
						<pproTicksIn>1183816166400000</pproTicksIn>
						<pproTicksOut>1186874519040000</pproTicksOut>
						<file id="file-55"/>
						<sourcetrack>
							<mediatype>audio</mediatype>
							<trackindex>1</trackindex>
						</sourcetrack>
						<logginginfo>
							<description></description>
							<scene></scene>
							<shottake></shottake>
							<lognote></lognote>
						</logginginfo>
						<labels>
							<label2>Caribbean</label2>
						</labels>
					</clipitem>
					<clipitem id="clipitem-1142" premiereChannelType="mono">
						<masterclipid>masterclip-59</masterclipid>
						<name>Benedicte Bendiksen_01.wav</name>
						<enabled>TRUE</enabled>
						<duration>171138</duration>
						<rate>
							<timebase>25</timebase>
							<ntsc>FALSE</ntsc>
						</rate>
						<start>33766</start>
						<end>33992</end>
						<in>116811</in>
						<out>117037</out>
						<pproTicksIn>1186874519040000</pproTicksIn>
						<pproTicksOut>1189170823680000</pproTicksOut>
						<file id="file-55"/>
						<sourcetrack>
							<mediatype>audio</mediatype>
							<trackindex>1</trackindex>
						</sourcetrack>
						<logginginfo>
							<description></description>
							<scene></scene>
							<shottake></shottake>
							<lognote></lognote>
						</logginginfo>
						<labels>
							<label2>Caribbean</label2>
						</labels>
					</clipitem>
					<clipitem id="clipitem-1143" premiereChannelType="mono">
						<masterclipid>masterclip-59</masterclipid>
						<name>Benedicte Bendiksen_01.wav</name>
						<enabled>TRUE</enabled>
						<duration>171138</duration>
						<rate>
							<timebase>25</timebase>
							<ntsc>FALSE</ntsc>
						</rate>
						<start>33992</start>
						<end>34035</end>
						<in>117226</in>
						<out>117269</out>
						<pproTicksIn>1191091184640000</pproTicksIn>
						<pproTicksOut>1191528092160000</pproTicksOut>
						<file id="file-55"/>
						<sourcetrack>
							<mediatype>audio</mediatype>
							<trackindex>1</trackindex>
						</sourcetrack>
						<logginginfo>
							<description></description>
							<scene></scene>
							<shottake></shottake>
							<lognote></lognote>
						</logginginfo>
						<labels>
							<label2>Caribbean</label2>
						</labels>
					</clipitem>
					<clipitem id="clipitem-1144" premiereChannelType="mono">
						<masterclipid>masterclip-59</masterclipid>
						<name>Benedicte Bendiksen_01.wav</name>
						<enabled>TRUE</enabled>
						<duration>171138</duration>
						<rate>
							<timebase>25</timebase>
							<ntsc>FALSE</ntsc>
						</rate>
						<start>34035</start>
						<end>34790</end>
						<in>117633</in>
						<out>118388</out>
						<pproTicksIn>1195226565120000</pproTicksIn>
						<pproTicksOut>1202897848320000</pproTicksOut>
						<file id="file-55"/>
						<sourcetrack>
							<mediatype>audio</mediatype>
							<trackindex>1</trackindex>
						</sourcetrack>
						<logginginfo>
							<description></description>
							<scene></scene>
							<shottake></shottake>
							<lognote></lognote>
						</logginginfo>
						<labels>
							<label2>Caribbean</label2>
						</labels>
					</clipitem>
					<clipitem id="clipitem-1145" premiereChannelType="mono">
						<masterclipid>masterclip-59</masterclipid>
						<name>Benedicte Bendiksen_01.wav</name>
						<enabled>TRUE</enabled>
						<duration>171138</duration>
						<rate>
							<timebase>25</timebase>
							<ntsc>FALSE</ntsc>
						</rate>
						<start>34790</start>
						<end>35299</end>
						<in>118612</in>
						<out>119121</out>
						<pproTicksIn>1205173831680000</pproTicksIn>
						<pproTicksOut>1210345597440000</pproTicksOut>
						<file id="file-55"/>
						<sourcetrack>
							<mediatype>audio</mediatype>
							<trackindex>1</trackindex>
						</sourcetrack>
						<logginginfo>
							<description></description>
							<scene></scene>
							<shottake></shottake>
							<lognote></lognote>
						</logginginfo>
						<labels>
							<label2>Caribbean</label2>
						</labels>
					</clipitem>
					<clipitem id="clipitem-1146" premiereChannelType="mono">
						<masterclipid>masterclip-59</masterclipid>
						<name>Benedicte Bendiksen_01.wav</name>
						<enabled>TRUE</enabled>
						<duration>171138</duration>
						<rate>
							<timebase>25</timebase>
							<ntsc>FALSE</ntsc>
						</rate>
						<start>35299</start>
						<end>35672</end>
						<in>119201</in>
						<out>119574</out>
						<pproTicksIn>1211158448640000</pproTicksIn>
						<pproTicksOut>1214948367360000</pproTicksOut>
						<file id="file-55"/>
						<sourcetrack>
							<mediatype>audio</mediatype>
							<trackindex>1</trackindex>
						</sourcetrack>
						<logginginfo>
							<description></description>
							<scene></scene>
							<shottake></shottake>
							<lognote></lognote>
						</logginginfo>
						<labels>
							<label2>Caribbean</label2>
						</labels>
					</clipitem>
					<clipitem id="clipitem-1147" premiereChannelType="mono">
						<masterclipid>masterclip-59</masterclipid>
						<name>Benedicte Bendiksen_01.wav</name>
						<enabled>TRUE</enabled>
						<duration>171138</duration>
						<rate>
							<timebase>25</timebase>
							<ntsc>FALSE</ntsc>
						</rate>
						<start>35672</start>
						<end>36434</end>
						<in>119583</in>
						<out>120345</out>
						<pproTicksIn>1215039813120000</pproTicksIn>
						<pproTicksOut>1222782220800000</pproTicksOut>
						<file id="file-55"/>
						<sourcetrack>
							<mediatype>audio</mediatype>
							<trackindex>1</trackindex>
						</sourcetrack>
						<logginginfo>
							<description></description>
							<scene></scene>
							<shottake></shottake>
							<lognote></lognote>
						</logginginfo>
						<labels>
							<label2>Caribbean</label2>
						</labels>
					</clipitem>
					<clipitem id="clipitem-1148" premiereChannelType="mono">
						<masterclipid>masterclip-59</masterclipid>
						<name>Benedicte Bendiksen_01.wav</name>
						<enabled>TRUE</enabled>
						<duration>171138</duration>
						<rate>
							<timebase>25</timebase>
							<ntsc>FALSE</ntsc>
						</rate>
						<start>36434</start>
						<end>36524</end>
						<in>120539</in>
						<out>120629</out>
						<pproTicksIn>1224753384960000</pproTicksIn>
						<pproTicksOut>1225667842560000</pproTicksOut>
						<file id="file-55"/>
						<sourcetrack>
							<mediatype>audio</mediatype>
							<trackindex>1</trackindex>
						</sourcetrack>
						<logginginfo>
							<description></description>
							<scene></scene>
							<shottake></shottake>
							<lognote></lognote>
						</logginginfo>
						<labels>
							<label2>Caribbean</label2>
						</labels>
					</clipitem>
					<clipitem id="clipitem-1149" premiereChannelType="mono">
						<masterclipid>masterclip-59</masterclipid>
						<name>Benedicte Bendiksen_01.wav</name>
						<enabled>TRUE</enabled>
						<duration>171138</duration>
						<rate>
							<timebase>25</timebase>
							<ntsc>FALSE</ntsc>
						</rate>
						<start>36524</start>
						<end>37155</end>
						<in>124899</in>
						<out>125530</out>
						<pproTicksIn>1269053775360000</pproTicksIn>
						<pproTicksOut>1275465139200000</pproTicksOut>
						<file id="file-55"/>
						<sourcetrack>
							<mediatype>audio</mediatype>
							<trackindex>1</trackindex>
						</sourcetrack>
						<logginginfo>
							<description></description>
							<scene></scene>
							<shottake></shottake>
							<lognote></lognote>
						</logginginfo>
						<labels>
							<label2>Caribbean</label2>
						</labels>
					</clipitem>
					<clipitem id="clipitem-1150" premiereChannelType="mono">
						<masterclipid>masterclip-59</masterclipid>
						<name>Benedicte Bendiksen_01.wav</name>
						<enabled>TRUE</enabled>
						<duration>171138</duration>
						<rate>
							<timebase>25</timebase>
							<ntsc>FALSE</ntsc>
						</rate>
						<start>37732</start>
						<end>40503</end>
						<in>126107</in>
						<out>128878</out>
						<pproTicksIn>1281327828480000</pproTicksIn>
						<pproTicksOut>1309482961920000</pproTicksOut>
						<file id="file-55"/>
						<sourcetrack>
							<mediatype>audio</mediatype>
							<trackindex>1</trackindex>
						</sourcetrack>
						<logginginfo>
							<description></description>
							<scene></scene>
							<shottake></shottake>
							<lognote></lognote>
						</logginginfo>
						<labels>
							<label2>Caribbean</label2>
						</labels>
					</clipitem>
					<clipitem id="clipitem-1151" premiereChannelType="mono">
						<masterclipid>masterclip-59</masterclipid>
						<name>Benedicte Bendiksen_01.wav</name>
						<enabled>TRUE</enabled>
						<duration>171138</duration>
						<rate>
							<timebase>25</timebase>
							<ntsc>FALSE</ntsc>
						</rate>
						<start>40503</start>
						<end>40839</end>
						<in>128926</in>
						<out>129262</out>
						<pproTicksIn>1309970672640000</pproTicksIn>
						<pproTicksOut>1313384647680000</pproTicksOut>
						<file id="file-55"/>
						<sourcetrack>
							<mediatype>audio</mediatype>
							<trackindex>1</trackindex>
						</sourcetrack>
						<logginginfo>
							<description></description>
							<scene></scene>
							<shottake></shottake>
							<lognote></lognote>
						</logginginfo>
						<labels>
							<label2>Caribbean</label2>
						</labels>
					</clipitem>
					<clipitem id="clipitem-1152" premiereChannelType="mono">
						<masterclipid>masterclip-59</masterclipid>
						<name>Benedicte Bendiksen_01.wav</name>
						<enabled>TRUE</enabled>
						<duration>171138</duration>
						<rate>
							<timebase>25</timebase>
							<ntsc>FALSE</ntsc>
						</rate>
						<start>40839</start>
						<end>41006</end>
						<in>129262</in>
						<out>129429</out>
						<pproTicksIn>1313384647680000</pproTicksIn>
						<pproTicksOut>1315081474560000</pproTicksOut>
						<file id="file-55"/>
						<sourcetrack>
							<mediatype>audio</mediatype>
							<trackindex>1</trackindex>
						</sourcetrack>
						<logginginfo>
							<description></description>
							<scene></scene>
							<shottake></shottake>
							<lognote></lognote>
						</logginginfo>
						<labels>
							<label2>Caribbean</label2>
						</labels>
					</clipitem>
					<clipitem id="clipitem-1153" premiereChannelType="mono">
						<masterclipid>masterclip-59</masterclipid>
						<name>Benedicte Bendiksen_01.wav</name>
						<enabled>TRUE</enabled>
						<duration>171138</duration>
						<rate>
							<timebase>25</timebase>
							<ntsc>FALSE</ntsc>
						</rate>
						<start>41006</start>
						<end>41144</end>
						<in>129476</in>
						<out>129614</out>
						<pproTicksIn>1315559024640000</pproTicksIn>
						<pproTicksOut>1316961192960000</pproTicksOut>
						<file id="file-55"/>
						<sourcetrack>
							<mediatype>audio</mediatype>
							<trackindex>1</trackindex>
						</sourcetrack>
						<logginginfo>
							<description></description>
							<scene></scene>
							<shottake></shottake>
							<lognote></lognote>
						</logginginfo>
						<labels>
							<label2>Caribbean</label2>
						</labels>
					</clipitem>
					<clipitem id="clipitem-1154" premiereChannelType="mono">
						<masterclipid>masterclip-59</masterclipid>
						<name>Benedicte Bendiksen_01.wav</name>
						<enabled>TRUE</enabled>
						<duration>171138</duration>
						<rate>
							<timebase>25</timebase>
							<ntsc>FALSE</ntsc>
						</rate>
						<start>41144</start>
						<end>41720</end>
						<in>131417</in>
						<out>131993</out>
						<pproTicksIn>1335280826880000</pproTicksIn>
						<pproTicksOut>1341133355520000</pproTicksOut>
						<file id="file-55"/>
						<sourcetrack>
							<mediatype>audio</mediatype>
							<trackindex>1</trackindex>
						</sourcetrack>
						<logginginfo>
							<description></description>
							<scene></scene>
							<shottake></shottake>
							<lognote></lognote>
						</logginginfo>
						<labels>
							<label2>Caribbean</label2>
						</labels>
					</clipitem>
					<clipitem id="clipitem-1155" premiereChannelType="mono">
						<masterclipid>masterclip-59</masterclipid>
						<name>Benedicte Bendiksen_01.wav</name>
						<enabled>TRUE</enabled>
						<duration>171138</duration>
						<rate>
							<timebase>25</timebase>
							<ntsc>FALSE</ntsc>
						</rate>
						<start>41720</start>
						<end>42122</end>
						<in>132051</in>
						<out>132453</out>
						<pproTicksIn>1341722672640000</pproTicksIn>
						<pproTicksOut>1345807249920000</pproTicksOut>
						<file id="file-55"/>
						<sourcetrack>
							<mediatype>audio</mediatype>
							<trackindex>1</trackindex>
						</sourcetrack>
						<logginginfo>
							<description></description>
							<scene></scene>
							<shottake></shottake>
							<lognote></lognote>
						</logginginfo>
						<labels>
							<label2>Caribbean</label2>
						</labels>
					</clipitem>
					<clipitem id="clipitem-1156" premiereChannelType="mono">
						<masterclipid>masterclip-59</masterclipid>
						<name>Benedicte Bendiksen_01.wav</name>
						<enabled>TRUE</enabled>
						<duration>171138</duration>
						<rate>
							<timebase>25</timebase>
							<ntsc>FALSE</ntsc>
						</rate>
						<start>42122</start>
						<end>42277</end>
						<in>132657</in>
						<out>132812</out>
						<pproTicksIn>1347880020480000</pproTicksIn>
						<pproTicksOut>1349454919680000</pproTicksOut>
						<file id="file-55"/>
						<sourcetrack>
							<mediatype>audio</mediatype>
							<trackindex>1</trackindex>
						</sourcetrack>
						<logginginfo>
							<description></description>
							<scene></scene>
							<shottake></shottake>
							<lognote></lognote>
						</logginginfo>
						<labels>
							<label2>Caribbean</label2>
						</labels>
					</clipitem>
					<clipitem id="clipitem-1157" premiereChannelType="mono">
						<masterclipid>masterclip-59</masterclipid>
						<name>Benedicte Bendiksen_01.wav</name>
						<enabled>TRUE</enabled>
						<duration>171138</duration>
						<rate>
							<timebase>25</timebase>
							<ntsc>FALSE</ntsc>
						</rate>
						<start>42277</start>
						<end>42347</end>
						<in>133359</in>
						<out>133429</out>
						<pproTicksIn>1355012789760000</pproTicksIn>
						<pproTicksOut>1355724034560000</pproTicksOut>
						<file id="file-55"/>
						<sourcetrack>
							<mediatype>audio</mediatype>
							<trackindex>1</trackindex>
						</sourcetrack>
						<logginginfo>
							<description></description>
							<scene></scene>
							<shottake></shottake>
							<lognote></lognote>
						</logginginfo>
						<labels>
							<label2>Caribbean</label2>
						</labels>
					</clipitem>
					<clipitem id="clipitem-1158" premiereChannelType="mono">
						<masterclipid>masterclip-59</masterclipid>
						<name>Benedicte Bendiksen_01.wav</name>
						<enabled>TRUE</enabled>
						<duration>171138</duration>
						<rate>
							<timebase>25</timebase>
							<ntsc>FALSE</ntsc>
						</rate>
						<start>42347</start>
						<end>42499</end>
						<in>133852</in>
						<out>134004</out>
						<pproTicksIn>1360021985280000</pproTicksIn>
						<pproTicksOut>1361566402560000</pproTicksOut>
						<file id="file-55"/>
						<sourcetrack>
							<mediatype>audio</mediatype>
							<trackindex>1</trackindex>
						</sourcetrack>
						<logginginfo>
							<description></description>
							<scene></scene>
							<shottake></shottake>
							<lognote></lognote>
						</logginginfo>
						<labels>
							<label2>Caribbean</label2>
						</labels>
					</clipitem>
					<clipitem id="clipitem-1159" premiereChannelType="mono">
						<masterclipid>masterclip-59</masterclipid>
						<name>Benedicte Bendiksen_01.wav</name>
						<enabled>TRUE</enabled>
						<duration>171138</duration>
						<rate>
							<timebase>25</timebase>
							<ntsc>FALSE</ntsc>
						</rate>
						<start>42499</start>
						<end>42832</end>
						<in>134099</in>
						<out>134432</out>
						<pproTicksIn>1362531663360000</pproTicksIn>
						<pproTicksOut>1365915156480000</pproTicksOut>
						<file id="file-55"/>
						<sourcetrack>
							<mediatype>audio</mediatype>
							<trackindex>1</trackindex>
						</sourcetrack>
						<logginginfo>
							<description></description>
							<scene></scene>
							<shottake></shottake>
							<lognote></lognote>
						</logginginfo>
						<labels>
							<label2>Caribbean</label2>
						</labels>
					</clipitem>
					<clipitem id="clipitem-1160" premiereChannelType="mono">
						<masterclipid>masterclip-59</masterclipid>
						<name>Benedicte Bendiksen_01.wav</name>
						<enabled>TRUE</enabled>
						<duration>171138</duration>
						<rate>
							<timebase>25</timebase>
							<ntsc>FALSE</ntsc>
						</rate>
						<start>42832</start>
						<end>43282</end>
						<in>134992</in>
						<out>135442</out>
						<pproTicksIn>1371605114880000</pproTicksIn>
						<pproTicksOut>1376177402880000</pproTicksOut>
						<file id="file-55"/>
						<sourcetrack>
							<mediatype>audio</mediatype>
							<trackindex>1</trackindex>
						</sourcetrack>
						<logginginfo>
							<description></description>
							<scene></scene>
							<shottake></shottake>
							<lognote></lognote>
						</logginginfo>
						<labels>
							<label2>Caribbean</label2>
						</labels>
					</clipitem>
					<clipitem id="clipitem-1161" premiereChannelType="mono">
						<masterclipid>masterclip-59</masterclipid>
						<name>Benedicte Bendiksen_01.wav</name>
						<enabled>TRUE</enabled>
						<duration>171138</duration>
						<rate>
							<timebase>25</timebase>
							<ntsc>FALSE</ntsc>
						</rate>
						<start>43282</start>
						<end>43553</end>
						<in>135648</in>
						<out>135919</out>
						<pproTicksIn>1378270494720000</pproTicksIn>
						<pproTicksOut>1381024028160000</pproTicksOut>
						<file id="file-55"/>
						<sourcetrack>
							<mediatype>audio</mediatype>
							<trackindex>1</trackindex>
						</sourcetrack>
						<logginginfo>
							<description></description>
							<scene></scene>
							<shottake></shottake>
							<lognote></lognote>
						</logginginfo>
						<labels>
							<label2>Caribbean</label2>
						</labels>
					</clipitem>
					<clipitem id="clipitem-1162" premiereChannelType="mono">
						<masterclipid>masterclip-59</masterclipid>
						<name>Benedicte Bendiksen_01.wav</name>
						<enabled>TRUE</enabled>
						<duration>171138</duration>
						<rate>
							<timebase>25</timebase>
							<ntsc>FALSE</ntsc>
						</rate>
						<start>43553</start>
						<end>44385</end>
						<in>136003</in>
						<out>136835</out>
						<pproTicksIn>1381877521920000</pproTicksIn>
						<pproTicksOut>1390331174400000</pproTicksOut>
						<file id="file-55"/>
						<sourcetrack>
							<mediatype>audio</mediatype>
							<trackindex>1</trackindex>
						</sourcetrack>
						<logginginfo>
							<description></description>
							<scene></scene>
							<shottake></shottake>
							<lognote></lognote>
						</logginginfo>
						<labels>
							<label2>Caribbean</label2>
						</labels>
					</clipitem>
					<clipitem id="clipitem-1163" premiereChannelType="mono">
						<masterclipid>masterclip-59</masterclipid>
						<name>Benedicte Bendiksen_01.wav</name>
						<enabled>TRUE</enabled>
						<duration>171138</duration>
						<rate>
							<timebase>25</timebase>
							<ntsc>FALSE</ntsc>
						</rate>
						<start>44385</start>
						<end>44583</end>
						<in>137077</in>
						<out>137275</out>
						<pproTicksIn>1392790049280000</pproTicksIn>
						<pproTicksOut>1394801856000000</pproTicksOut>
						<file id="file-55"/>
						<sourcetrack>
							<mediatype>audio</mediatype>
							<trackindex>1</trackindex>
						</sourcetrack>
						<logginginfo>
							<description></description>
							<scene></scene>
							<shottake></shottake>
							<lognote></lognote>
						</logginginfo>
						<labels>
							<label2>Caribbean</label2>
						</labels>
					</clipitem>
					<clipitem id="clipitem-1164" premiereChannelType="mono">
						<masterclipid>masterclip-59</masterclipid>
						<name>Benedicte Bendiksen_01.wav</name>
						<enabled>TRUE</enabled>
						<duration>171138</duration>
						<rate>
							<timebase>25</timebase>
							<ntsc>FALSE</ntsc>
						</rate>
						<start>44583</start>
						<end>44650</end>
						<in>137376</in>
						<out>137443</out>
						<pproTicksIn>1395828080640000</pproTicksIn>
						<pproTicksOut>1396508843520000</pproTicksOut>
						<file id="file-55"/>
						<sourcetrack>
							<mediatype>audio</mediatype>
							<trackindex>1</trackindex>
						</sourcetrack>
						<logginginfo>
							<description></description>
							<scene></scene>
							<shottake></shottake>
							<lognote></lognote>
						</logginginfo>
						<labels>
							<label2>Caribbean</label2>
						</labels>
					</clipitem>
					<clipitem id="clipitem-1165" premiereChannelType="mono">
						<masterclipid>masterclip-59</masterclipid>
						<name>Benedicte Bendiksen_01.wav</name>
						<enabled>TRUE</enabled>
						<duration>171138</duration>
						<rate>
							<timebase>25</timebase>
							<ntsc>FALSE</ntsc>
						</rate>
						<start>44650</start>
						<end>45287</end>
						<in>137505</in>
						<out>138142</out>
						<pproTicksIn>1397138803200000</pproTicksIn>
						<pproTicksOut>1403611130880000</pproTicksOut>
						<file id="file-55"/>
						<sourcetrack>
							<mediatype>audio</mediatype>
							<trackindex>1</trackindex>
						</sourcetrack>
						<logginginfo>
							<description></description>
							<scene></scene>
							<shottake></shottake>
							<lognote></lognote>
						</logginginfo>
						<labels>
							<label2>Caribbean</label2>
						</labels>
					</clipitem>
					<clipitem id="clipitem-1166" premiereChannelType="mono">
						<masterclipid>masterclip-59</masterclipid>
						<name>Benedicte Bendiksen_01.wav</name>
						<enabled>TRUE</enabled>
						<duration>171138</duration>
						<rate>
							<timebase>25</timebase>
							<ntsc>FALSE</ntsc>
						</rate>
						<start>45287</start>
						<end>45692</end>
						<in>138274</in>
						<out>138679</out>
						<pproTicksIn>1404952335360000</pproTicksIn>
						<pproTicksOut>1409067394560000</pproTicksOut>
						<file id="file-55"/>
						<sourcetrack>
							<mediatype>audio</mediatype>
							<trackindex>1</trackindex>
						</sourcetrack>
						<logginginfo>
							<description></description>
							<scene></scene>
							<shottake></shottake>
							<lognote></lognote>
						</logginginfo>
						<labels>
							<label2>Caribbean</label2>
						</labels>
					</clipitem>
					<clipitem id="clipitem-1167" premiereChannelType="mono">
						<masterclipid>masterclip-59</masterclipid>
						<name>Benedicte Bendiksen_01.wav</name>
						<enabled>TRUE</enabled>
						<duration>171138</duration>
						<rate>
							<timebase>25</timebase>
							<ntsc>FALSE</ntsc>
						</rate>
						<start>45692</start>
						<end>45923</end>
						<in>138810</in>
						<out>139041</out>
						<pproTicksIn>1410398438400000</pproTicksIn>
						<pproTicksOut>1412745546240000</pproTicksOut>
						<file id="file-55"/>
						<sourcetrack>
							<mediatype>audio</mediatype>
							<trackindex>1</trackindex>
						</sourcetrack>
						<logginginfo>
							<description></description>
							<scene></scene>
							<shottake></shottake>
							<lognote></lognote>
						</logginginfo>
						<labels>
							<label2>Caribbean</label2>
						</labels>
					</clipitem>
					<clipitem id="clipitem-1168" premiereChannelType="mono">
						<masterclipid>masterclip-59</masterclipid>
						<name>Benedicte Bendiksen_01.wav</name>
						<enabled>TRUE</enabled>
						<duration>171138</duration>
						<rate>
							<timebase>25</timebase>
							<ntsc>FALSE</ntsc>
						</rate>
						<start>45923</start>
						<end>46349</end>
						<in>139073</in>
						<out>139499</out>
						<pproTicksIn>1413070686720000</pproTicksIn>
						<pproTicksOut>1417399119360000</pproTicksOut>
						<file id="file-55"/>
						<sourcetrack>
							<mediatype>audio</mediatype>
							<trackindex>1</trackindex>
						</sourcetrack>
						<logginginfo>
							<description></description>
							<scene></scene>
							<shottake></shottake>
							<lognote></lognote>
						</logginginfo>
						<labels>
							<label2>Caribbean</label2>
						</labels>
					</clipitem>
					<clipitem id="clipitem-1169" premiereChannelType="mono">
						<masterclipid>masterclip-59</masterclipid>
						<name>Benedicte Bendiksen_01.wav</name>
						<enabled>TRUE</enabled>
						<duration>171138</duration>
						<rate>
							<timebase>25</timebase>
							<ntsc>FALSE</ntsc>
						</rate>
						<start>46349</start>
						<end>46455</end>
						<in>159642</in>
						<out>159748</out>
						<pproTicksIn>1622064890880000</pproTicksIn>
						<pproTicksOut>1623141918720000</pproTicksOut>
						<file id="file-55"/>
						<sourcetrack>
							<mediatype>audio</mediatype>
							<trackindex>1</trackindex>
						</sourcetrack>
						<logginginfo>
							<description></description>
							<scene></scene>
							<shottake></shottake>
							<lognote></lognote>
						</logginginfo>
						<labels>
							<label2>Caribbean</label2>
						</labels>
					</clipitem>
					<clipitem id="clipitem-1170" premiereChannelType="mono">
						<masterclipid>masterclip-59</masterclipid>
						<name>Benedicte Bendiksen_01.wav</name>
						<enabled>TRUE</enabled>
						<duration>171138</duration>
						<rate>
							<timebase>25</timebase>
							<ntsc>FALSE</ntsc>
						</rate>
						<start>46455</start>
						<end>46911</end>
						<in>140048</in>
						<out>140504</out>
						<pproTicksIn>1422977310720000</pproTicksIn>
						<pproTicksOut>1427610562560000</pproTicksOut>
						<file id="file-55"/>
						<sourcetrack>
							<mediatype>audio</mediatype>
							<trackindex>1</trackindex>
						</sourcetrack>
						<logginginfo>
							<description></description>
							<scene></scene>
							<shottake></shottake>
							<lognote></lognote>
						</logginginfo>
						<labels>
							<label2>Caribbean</label2>
						</labels>
					</clipitem>
					<clipitem id="clipitem-1171" premiereChannelType="mono">
						<masterclipid>masterclip-59</masterclipid>
						<name>Benedicte Bendiksen_01.wav</name>
						<enabled>TRUE</enabled>
						<duration>171138</duration>
						<rate>
							<timebase>25</timebase>
							<ntsc>FALSE</ntsc>
						</rate>
						<start>46911</start>
						<end>47138</end>
						<in>140817</in>
						<out>141044</out>
						<pproTicksIn>1430790842880000</pproTicksIn>
						<pproTicksOut>1433097308160000</pproTicksOut>
						<file id="file-55"/>
						<sourcetrack>
							<mediatype>audio</mediatype>
							<trackindex>1</trackindex>
						</sourcetrack>
						<logginginfo>
							<description></description>
							<scene></scene>
							<shottake></shottake>
							<lognote></lognote>
						</logginginfo>
						<labels>
							<label2>Caribbean</label2>
						</labels>
					</clipitem>
					<clipitem id="clipitem-1172" premiereChannelType="mono">
						<masterclipid>masterclip-59</masterclipid>
						<name>Benedicte Bendiksen_01.wav</name>
						<enabled>TRUE</enabled>
						<duration>171138</duration>
						<rate>
							<timebase>25</timebase>
							<ntsc>FALSE</ntsc>
						</rate>
						<start>47138</start>
						<end>47335</end>
						<in>141203</in>
						<out>141400</out>
						<pproTicksIn>1434712849920000</pproTicksIn>
						<pproTicksOut>1436714496000000</pproTicksOut>
						<file id="file-55"/>
						<sourcetrack>
							<mediatype>audio</mediatype>
							<trackindex>1</trackindex>
						</sourcetrack>
						<logginginfo>
							<description></description>
							<scene></scene>
							<shottake></shottake>
							<lognote></lognote>
						</logginginfo>
						<labels>
							<label2>Caribbean</label2>
						</labels>
					</clipitem>
					<clipitem id="clipitem-1173" premiereChannelType="mono">
						<masterclipid>masterclip-59</masterclipid>
						<name>Benedicte Bendiksen_01.wav</name>
						<enabled>TRUE</enabled>
						<duration>171138</duration>
						<rate>
							<timebase>25</timebase>
							<ntsc>FALSE</ntsc>
						</rate>
						<start>47335</start>
						<end>47513</end>
						<in>141454</in>
						<out>141632</out>
						<pproTicksIn>1437263170560000</pproTicksIn>
						<pproTicksOut>1439071764480000</pproTicksOut>
						<file id="file-55"/>
						<sourcetrack>
							<mediatype>audio</mediatype>
							<trackindex>1</trackindex>
						</sourcetrack>
						<logginginfo>
							<description></description>
							<scene></scene>
							<shottake></shottake>
							<lognote></lognote>
						</logginginfo>
						<labels>
							<label2>Caribbean</label2>
						</labels>
					</clipitem>
					<clipitem id="clipitem-1174" premiereChannelType="mono">
						<masterclipid>masterclip-59</masterclipid>
						<name>Benedicte Bendiksen_01.wav</name>
						<enabled>TRUE</enabled>
						<duration>171138</duration>
						<rate>
							<timebase>25</timebase>
							<ntsc>FALSE</ntsc>
						</rate>
						<start>47513</start>
						<end>47723</end>
						<in>141671</in>
						<out>141881</out>
						<pproTicksIn>1439468029440000</pproTicksIn>
						<pproTicksOut>1441601763840000</pproTicksOut>
						<file id="file-55"/>
						<sourcetrack>
							<mediatype>audio</mediatype>
							<trackindex>1</trackindex>
						</sourcetrack>
						<logginginfo>
							<description></description>
							<scene></scene>
							<shottake></shottake>
							<lognote></lognote>
						</logginginfo>
						<labels>
							<label2>Caribbean</label2>
						</labels>
					</clipitem>
					<clipitem id="clipitem-1175" premiereChannelType="mono">
						<masterclipid>masterclip-59</masterclipid>
						<name>Benedicte Bendiksen_01.wav</name>
						<enabled>TRUE</enabled>
						<duration>171138</duration>
						<rate>
							<timebase>25</timebase>
							<ntsc>FALSE</ntsc>
						</rate>
						<start>47723</start>
						<end>48040</end>
						<in>141894</in>
						<out>142211</out>
						<pproTicksIn>1441733852160000</pproTicksIn>
						<pproTicksOut>1444954775040000</pproTicksOut>
						<file id="file-55"/>
						<sourcetrack>
							<mediatype>audio</mediatype>
							<trackindex>1</trackindex>
						</sourcetrack>
						<logginginfo>
							<description></description>
							<scene></scene>
							<shottake></shottake>
							<lognote></lognote>
						</logginginfo>
						<labels>
							<label2>Caribbean</label2>
						</labels>
					</clipitem>
					<clipitem id="clipitem-1176" premiereChannelType="mono">
						<masterclipid>masterclip-59</masterclipid>
						<name>Benedicte Bendiksen_01.wav</name>
						<enabled>TRUE</enabled>
						<duration>171138</duration>
						<rate>
							<timebase>25</timebase>
							<ntsc>FALSE</ntsc>
						</rate>
						<start>48040</start>
						<end>48766</end>
						<in>142351</in>
						<out>143077</out>
						<pproTicksIn>1446377264640000</pproTicksIn>
						<pproTicksOut>1453753889280000</pproTicksOut>
						<file id="file-55"/>
						<sourcetrack>
							<mediatype>audio</mediatype>
							<trackindex>1</trackindex>
						</sourcetrack>
						<logginginfo>
							<description></description>
							<scene></scene>
							<shottake></shottake>
							<lognote></lognote>
						</logginginfo>
						<labels>
							<label2>Caribbean</label2>
						</labels>
					</clipitem>
					<clipitem id="clipitem-1177" premiereChannelType="mono">
						<masterclipid>masterclip-59</masterclipid>
						<name>Benedicte Bendiksen_01.wav</name>
						<enabled>TRUE</enabled>
						<duration>171138</duration>
						<rate>
							<timebase>25</timebase>
							<ntsc>FALSE</ntsc>
						</rate>
						<start>48766</start>
						<end>49706</end>
						<in>143684</in>
						<out>144624</out>
						<pproTicksIn>1459921397760000</pproTicksIn>
						<pproTicksOut>1469472399360000</pproTicksOut>
						<file id="file-55"/>
						<sourcetrack>
							<mediatype>audio</mediatype>
							<trackindex>1</trackindex>
						</sourcetrack>
						<logginginfo>
							<description></description>
							<scene></scene>
							<shottake></shottake>
							<lognote></lognote>
						</logginginfo>
						<labels>
							<label2>Caribbean</label2>
						</labels>
					</clipitem>
					<clipitem id="clipitem-1178" premiereChannelType="mono">
						<masterclipid>masterclip-59</masterclipid>
						<name>Benedicte Bendiksen_01.wav</name>
						<enabled>TRUE</enabled>
						<duration>171138</duration>
						<rate>
							<timebase>25</timebase>
							<ntsc>FALSE</ntsc>
						</rate>
						<start>49706</start>
						<end>49762</end>
						<in>147186</in>
						<out>147242</out>
						<pproTicksIn>1495503959040000</pproTicksIn>
						<pproTicksOut>1496072954880000</pproTicksOut>
						<file id="file-55"/>
						<sourcetrack>
							<mediatype>audio</mediatype>
							<trackindex>1</trackindex>
						</sourcetrack>
						<logginginfo>
							<description></description>
							<scene></scene>
							<shottake></shottake>
							<lognote></lognote>
						</logginginfo>
						<labels>
							<label2>Caribbean</label2>
						</labels>
					</clipitem>
					<clipitem id="clipitem-1179" premiereChannelType="mono">
						<masterclipid>masterclip-59</masterclipid>
						<name>Benedicte Bendiksen_01.wav</name>
						<enabled>TRUE</enabled>
						<duration>171138</duration>
						<rate>
							<timebase>25</timebase>
							<ntsc>FALSE</ntsc>
						</rate>
						<start>49762</start>
						<end>49948</end>
						<in>153681</in>
						<out>153867</out>
						<pproTicksIn>1561497315840000</pproTicksIn>
						<pproTicksOut>1563387194880000</pproTicksOut>
						<file id="file-55"/>
						<sourcetrack>
							<mediatype>audio</mediatype>
							<trackindex>1</trackindex>
						</sourcetrack>
						<logginginfo>
							<description></description>
							<scene></scene>
							<shottake></shottake>
							<lognote></lognote>
						</logginginfo>
						<labels>
							<label2>Caribbean</label2>
						</labels>
					</clipitem>
					<clipitem id="clipitem-1180" premiereChannelType="mono">
						<masterclipid>masterclip-59</masterclipid>
						<name>Benedicte Bendiksen_01.wav</name>
						<enabled>TRUE</enabled>
						<duration>171138</duration>
						<rate>
							<timebase>25</timebase>
							<ntsc>FALSE</ntsc>
						</rate>
						<start>49948</start>
						<end>50390</end>
						<in>153946</in>
						<out>154388</out>
						<pproTicksIn>1564189885440000</pproTicksIn>
						<pproTicksOut>1568680888320000</pproTicksOut>
						<file id="file-55"/>
						<sourcetrack>
							<mediatype>audio</mediatype>
							<trackindex>1</trackindex>
						</sourcetrack>
						<logginginfo>
							<description></description>
							<scene></scene>
							<shottake></shottake>
							<lognote></lognote>
						</logginginfo>
						<labels>
							<label2>Caribbean</label2>
						</labels>
					</clipitem>
					<clipitem id="clipitem-1181" premiereChannelType="mono">
						<masterclipid>masterclip-59</masterclipid>
						<name>Benedicte Bendiksen_01.wav</name>
						<enabled>TRUE</enabled>
						<duration>171138</duration>
						<rate>
							<timebase>25</timebase>
							<ntsc>FALSE</ntsc>
						</rate>
						<start>50390</start>
						<end>50983</end>
						<in>156215</in>
						<out>156808</out>
						<pproTicksIn>1587244377600000</pproTicksIn>
						<pproTicksOut>1593269637120000</pproTicksOut>
						<file id="file-55"/>
						<sourcetrack>
							<mediatype>audio</mediatype>
							<trackindex>1</trackindex>
						</sourcetrack>
						<logginginfo>
							<description></description>
							<scene></scene>
							<shottake></shottake>
							<lognote></lognote>
						</logginginfo>
						<labels>
							<label2>Caribbean</label2>
						</labels>
					</clipitem>
					<clipitem id="clipitem-1182" premiereChannelType="mono">
						<masterclipid>masterclip-59</masterclipid>
						<name>Benedicte Bendiksen_01.wav</name>
						<enabled>TRUE</enabled>
						<duration>171138</duration>
						<rate>
							<timebase>25</timebase>
							<ntsc>FALSE</ntsc>
						</rate>
						<start>50983</start>
						<end>53597</end>
						<in>157028</in>
						<out>159642</out>
						<pproTicksIn>1595504977920000</pproTicksIn>
						<pproTicksOut>1622064890880000</pproTicksOut>
						<file id="file-55"/>
						<sourcetrack>
							<mediatype>audio</mediatype>
							<trackindex>1</trackindex>
						</sourcetrack>
						<logginginfo>
							<description></description>
							<scene></scene>
							<shottake></shottake>
							<lognote></lognote>
						</logginginfo>
						<labels>
							<label2>Caribbean</label2>
						</labels>
					</clipitem>
					<clipitem id="clipitem-1183" premiereChannelType="mono">
						<masterclipid>masterclip-59</masterclipid>
						<name>Benedicte Bendiksen_01.wav</name>
						<enabled>TRUE</enabled>
						<duration>171138</duration>
						<rate>
							<timebase>25</timebase>
							<ntsc>FALSE</ntsc>
						</rate>
						<start>53597</start>
						<end>53636</end>
						<in>160568</in>
						<out>160607</out>
						<pproTicksIn>1631473643520000</pproTicksIn>
						<pproTicksOut>1631869908480000</pproTicksOut>
						<file id="file-55"/>
						<sourcetrack>
							<mediatype>audio</mediatype>
							<trackindex>1</trackindex>
						</sourcetrack>
						<logginginfo>
							<description></description>
							<scene></scene>
							<shottake></shottake>
							<lognote></lognote>
						</logginginfo>
						<labels>
							<label2>Caribbean</label2>
						</labels>
					</clipitem>
					<clipitem id="clipitem-1184" premiereChannelType="mono">
						<masterclipid>masterclip-59</masterclipid>
						<name>Benedicte Bendiksen_01.wav</name>
						<enabled>TRUE</enabled>
						<duration>171138</duration>
						<rate>
							<timebase>25</timebase>
							<ntsc>FALSE</ntsc>
						</rate>
						<start>53636</start>
						<end>55369</end>
						<in>161146</in>
						<out>162879</out>
						<pproTicksIn>1637346493440000</pproTicksIn>
						<pproTicksOut>1654954882560000</pproTicksOut>
						<file id="file-55"/>
						<sourcetrack>
							<mediatype>audio</mediatype>
							<trackindex>1</trackindex>
						</sourcetrack>
						<logginginfo>
							<description></description>
							<scene></scene>
							<shottake></shottake>
							<lognote></lognote>
						</logginginfo>
						<labels>
							<label2>Caribbean</label2>
						</labels>
					</clipitem>
					<clipitem id="clipitem-1185" premiereChannelType="mono">
						<masterclipid>masterclip-59</masterclipid>
						<name>Benedicte Bendiksen_01.wav</name>
						<enabled>TRUE</enabled>
						<duration>171138</duration>
						<rate>
							<timebase>25</timebase>
							<ntsc>FALSE</ntsc>
						</rate>
						<start>55369</start>
						<end>55449</end>
						<in>162899</in>
						<out>162979</out>
						<pproTicksIn>1655158095360000</pproTicksIn>
						<pproTicksOut>1655970946560000</pproTicksOut>
						<file id="file-55"/>
						<sourcetrack>
							<mediatype>audio</mediatype>
							<trackindex>1</trackindex>
						</sourcetrack>
						<logginginfo>
							<description></description>
							<scene></scene>
							<shottake></shottake>
							<lognote></lognote>
						</logginginfo>
						<labels>
							<label2>Caribbean</label2>
						</labels>
					</clipitem>
					<clipitem id="clipitem-1186" premiereChannelType="mono">
						<masterclipid>masterclip-59</masterclipid>
						<name>Benedicte Bendiksen_01.wav</name>
						<enabled>TRUE</enabled>
						<duration>171138</duration>
						<rate>
							<timebase>25</timebase>
							<ntsc>FALSE</ntsc>
						</rate>
						<start>55449</start>
						<end>55738</end>
						<in>163146</in>
						<out>163435</out>
						<pproTicksIn>1657667773440000</pproTicksIn>
						<pproTicksOut>1660604198400000</pproTicksOut>
						<file id="file-55"/>
						<sourcetrack>
							<mediatype>audio</mediatype>
							<trackindex>1</trackindex>
						</sourcetrack>
						<logginginfo>
							<description></description>
							<scene></scene>
							<shottake></shottake>
							<lognote></lognote>
						</logginginfo>
						<labels>
							<label2>Caribbean</label2>
						</labels>
					</clipitem>
					<clipitem id="clipitem-1187" premiereChannelType="mono">
						<masterclipid>masterclip-59</masterclipid>
						<name>Benedicte Bendiksen_01.wav</name>
						<enabled>TRUE</enabled>
						<duration>171138</duration>
						<rate>
							<timebase>25</timebase>
							<ntsc>FALSE</ntsc>
						</rate>
						<start>55738</start>
						<end>55905</end>
						<in>163648</in>
						<out>163815</out>
						<pproTicksIn>1662768414720000</pproTicksIn>
						<pproTicksOut>1664465241600000</pproTicksOut>
						<file id="file-55"/>
						<sourcetrack>
							<mediatype>audio</mediatype>
							<trackindex>1</trackindex>
						</sourcetrack>
						<logginginfo>
							<description></description>
							<scene></scene>
							<shottake></shottake>
							<lognote></lognote>
						</logginginfo>
						<labels>
							<label2>Caribbean</label2>
						</labels>
					</clipitem>
					<clipitem id="clipitem-1188" premiereChannelType="mono">
						<masterclipid>masterclip-59</masterclipid>
						<name>Benedicte Bendiksen_01.wav</name>
						<enabled>TRUE</enabled>
						<duration>171138</duration>
						<rate>
							<timebase>25</timebase>
							<ntsc>FALSE</ntsc>
						</rate>
						<start>55905</start>
						<end>56079</end>
						<in>163829</in>
						<out>164003</out>
						<pproTicksIn>1664607490560000</pproTicksIn>
						<pproTicksOut>1666375441920000</pproTicksOut>
						<file id="file-55"/>
						<sourcetrack>
							<mediatype>audio</mediatype>
							<trackindex>1</trackindex>
						</sourcetrack>
						<logginginfo>
							<description></description>
							<scene></scene>
							<shottake></shottake>
							<lognote></lognote>
						</logginginfo>
						<labels>
							<label2>Caribbean</label2>
						</labels>
					</clipitem>
					<clipitem id="clipitem-1189" premiereChannelType="mono">
						<masterclipid>masterclip-59</masterclipid>
						<name>Benedicte Bendiksen_01.wav</name>
						<enabled>TRUE</enabled>
						<duration>171138</duration>
						<rate>
							<timebase>25</timebase>
							<ntsc>FALSE</ntsc>
						</rate>
						<start>56079</start>
						<end>58120</end>
						<in>164067</in>
						<out>166108</out>
						<pproTicksIn>1667025722880000</pproTicksIn>
						<pproTicksOut>1687763589120000</pproTicksOut>
						<file id="file-55"/>
						<sourcetrack>
							<mediatype>audio</mediatype>
							<trackindex>1</trackindex>
						</sourcetrack>
						<logginginfo>
							<description></description>
							<scene></scene>
							<shottake></shottake>
							<lognote></lognote>
						</logginginfo>
						<labels>
							<label2>Caribbean</label2>
						</labels>
					</clipitem>
					<enabled>TRUE</enabled>
					<locked>FALSE</locked>
					<outputchannelindex>2</outputchannelindex>
				</track>
				<track TL.SQTrackAudioKeyframeStyle="0" TL.SQTrackShy="0" TL.SQTrackExpandedHeight="25" TL.SQTrackExpanded="0" MZ.TrackTargeted="1" PannerCurrentValue="0.5" PannerIsInverted="true" PannerStartKeyframe="-91445760000000000,0.5,0,0,0,0,0,0" PannerName="Balance" currentExplodedTrackIndex="0" totalExplodedTrackCount="1" premiereTrackType="Stereo">
					<clipitem id="clipitem-1190" premiereChannelType="mono">
						<masterclipid>masterclip-60</masterclipid>
						<name>Stian Sandø_01.wav</name>
						<enabled>TRUE</enabled>
						<duration>171138</duration>
						<rate>
							<timebase>25</timebase>
							<ntsc>FALSE</ntsc>
						</rate>
						<start>420</start>
						<end>891</end>
						<in>168511</in>
						<out>168982</out>
						<pproTicksIn>1712179607040000</pproTicksIn>
						<pproTicksOut>1716965268480000</pproTicksOut>
						<file id="file-56">
							<name>Stian Sandø_01.wav</name>
							<pathurl>file://localhost/Volumes/Brakka/AdobeLager/QUIZ%20-%20brakka/RA%cc%8aSTOFF%20LYD/2005/Stian%20Sand%c3%b8_01.wav</pathurl>
							<rate>
								<timebase>30</timebase>
								<ntsc>TRUE</ntsc>
							</rate>
							<duration>205161</duration>
							<timecode>
								<rate>
									<timebase>30</timebase>
									<ntsc>TRUE</ntsc>
								</rate>
								<string>12;52;15;16</string>
								<frame>1388676</frame>
								<displayformat>DF</displayformat>
								<reel>
									<name></name>
								</reel>
							</timecode>
							<media>
								<audio>
									<samplecharacteristics>
										<depth>16</depth>
										<samplerate>48000</samplerate>
									</samplecharacteristics>
									<channelcount>1</channelcount>
									<audiochannel>
										<sourcechannel>1</sourcechannel>
									</audiochannel>
								</audio>
							</media>
						</file>
						<sourcetrack>
							<mediatype>audio</mediatype>
							<trackindex>1</trackindex>
						</sourcetrack>
						<logginginfo>
							<description></description>
							<scene></scene>
							<shottake></shottake>
							<lognote></lognote>
						</logginginfo>
						<labels>
							<label2>Caribbean</label2>
						</labels>
					</clipitem>
					<clipitem id="clipitem-1191" premiereChannelType="mono">
						<masterclipid>masterclip-60</masterclipid>
						<name>Stian Sandø_01.wav</name>
						<enabled>TRUE</enabled>
						<duration>171138</duration>
						<rate>
							<timebase>25</timebase>
							<ntsc>FALSE</ntsc>
						</rate>
						<start>965</start>
						<end>1469</end>
						<in>32787</in>
						<out>33291</out>
						<pproTicksIn>333136903680000</pproTicksIn>
						<pproTicksOut>338257866240000</pproTicksOut>
						<file id="file-56"/>
						<sourcetrack>
							<mediatype>audio</mediatype>
							<trackindex>1</trackindex>
						</sourcetrack>
						<logginginfo>
							<description></description>
							<scene></scene>
							<shottake></shottake>
							<lognote></lognote>
						</logginginfo>
						<labels>
							<label2>Caribbean</label2>
						</labels>
					</clipitem>
					<clipitem id="clipitem-1192" premiereChannelType="mono">
						<masterclipid>masterclip-60</masterclipid>
						<name>Stian Sandø_01.wav</name>
						<enabled>TRUE</enabled>
						<duration>171138</duration>
						<rate>
							<timebase>25</timebase>
							<ntsc>FALSE</ntsc>
						</rate>
						<start>1469</start>
						<end>4119</end>
						<in>33423</in>
						<out>36073</out>
						<pproTicksIn>339599070720000</pproTicksIn>
						<pproTicksOut>366524766720000</pproTicksOut>
						<file id="file-56"/>
						<sourcetrack>
							<mediatype>audio</mediatype>
							<trackindex>1</trackindex>
						</sourcetrack>
						<logginginfo>
							<description></description>
							<scene></scene>
							<shottake></shottake>
							<lognote></lognote>
						</logginginfo>
						<labels>
							<label2>Caribbean</label2>
						</labels>
					</clipitem>
					<clipitem id="clipitem-1193" premiereChannelType="mono">
						<masterclipid>masterclip-60</masterclipid>
						<name>Stian Sandø_01.wav</name>
						<enabled>TRUE</enabled>
						<duration>171138</duration>
						<rate>
							<timebase>25</timebase>
							<ntsc>FALSE</ntsc>
						</rate>
						<start>4119</start>
						<end>4836</end>
						<in>36549</in>
						<out>37266</out>
						<pproTicksIn>371361231360000</pproTicksIn>
						<pproTicksOut>378646410240000</pproTicksOut>
						<file id="file-56"/>
						<sourcetrack>
							<mediatype>audio</mediatype>
							<trackindex>1</trackindex>
						</sourcetrack>
						<logginginfo>
							<description></description>
							<scene></scene>
							<shottake></shottake>
							<lognote></lognote>
						</logginginfo>
						<labels>
							<label2>Caribbean</label2>
						</labels>
					</clipitem>
					<clipitem id="clipitem-1194" premiereChannelType="mono">
						<masterclipid>masterclip-60</masterclipid>
						<name>Stian Sandø_01.wav</name>
						<enabled>TRUE</enabled>
						<duration>171138</duration>
						<rate>
							<timebase>25</timebase>
							<ntsc>FALSE</ntsc>
						</rate>
						<start>4836</start>
						<end>5339</end>
						<in>37305</in>
						<out>37808</out>
						<pproTicksIn>379042675200000</pproTicksIn>
						<pproTicksOut>384153477120000</pproTicksOut>
						<file id="file-56"/>
						<sourcetrack>
							<mediatype>audio</mediatype>
							<trackindex>1</trackindex>
						</sourcetrack>
						<logginginfo>
							<description></description>
							<scene></scene>
							<shottake></shottake>
							<lognote></lognote>
						</logginginfo>
						<labels>
							<label2>Caribbean</label2>
						</labels>
					</clipitem>
					<clipitem id="clipitem-1195" premiereChannelType="mono">
						<masterclipid>masterclip-60</masterclipid>
						<name>Stian Sandø_01.wav</name>
						<enabled>TRUE</enabled>
						<duration>171138</duration>
						<rate>
							<timebase>25</timebase>
							<ntsc>FALSE</ntsc>
						</rate>
						<start>5339</start>
						<end>5501</end>
						<in>37871</in>
						<out>38033</out>
						<pproTicksIn>384793597440000</pproTicksIn>
						<pproTicksOut>386439621120000</pproTicksOut>
						<file id="file-56"/>
						<sourcetrack>
							<mediatype>audio</mediatype>
							<trackindex>1</trackindex>
						</sourcetrack>
						<logginginfo>
							<description></description>
							<scene></scene>
							<shottake></shottake>
							<lognote></lognote>
						</logginginfo>
						<labels>
							<label2>Caribbean</label2>
						</labels>
					</clipitem>
					<clipitem id="clipitem-1196" premiereChannelType="mono">
						<masterclipid>masterclip-60</masterclipid>
						<name>Stian Sandø_01.wav</name>
						<enabled>TRUE</enabled>
						<duration>171138</duration>
						<rate>
							<timebase>25</timebase>
							<ntsc>FALSE</ntsc>
						</rate>
						<start>5501</start>
						<end>6004</end>
						<in>46577</in>
						<out>47080</out>
						<pproTicksIn>473252129280000</pproTicksIn>
						<pproTicksOut>478362931200000</pproTicksOut>
						<file id="file-56"/>
						<sourcetrack>
							<mediatype>audio</mediatype>
							<trackindex>1</trackindex>
						</sourcetrack>
						<logginginfo>
							<description></description>
							<scene></scene>
							<shottake></shottake>
							<lognote></lognote>
						</logginginfo>
						<labels>
							<label2>Caribbean</label2>
						</labels>
					</clipitem>
					<clipitem id="clipitem-1197" premiereChannelType="mono">
						<masterclipid>masterclip-60</masterclipid>
						<name>Stian Sandø_01.wav</name>
						<enabled>TRUE</enabled>
						<duration>171138</duration>
						<rate>
							<timebase>25</timebase>
							<ntsc>FALSE</ntsc>
						</rate>
						<start>6004</start>
						<end>6357</end>
						<in>50106</in>
						<out>50459</out>
						<pproTicksIn>509109027840000</pproTicksIn>
						<pproTicksOut>512695733760000</pproTicksOut>
						<file id="file-56"/>
						<sourcetrack>
							<mediatype>audio</mediatype>
							<trackindex>1</trackindex>
						</sourcetrack>
						<logginginfo>
							<description></description>
							<scene></scene>
							<shottake></shottake>
							<lognote></lognote>
						</logginginfo>
						<labels>
							<label2>Caribbean</label2>
						</labels>
					</clipitem>
					<clipitem id="clipitem-1198" premiereChannelType="mono">
						<masterclipid>masterclip-60</masterclipid>
						<name>Stian Sandø_01.wav</name>
						<enabled>TRUE</enabled>
						<duration>171138</duration>
						<rate>
							<timebase>25</timebase>
							<ntsc>FALSE</ntsc>
						</rate>
						<start>6357</start>
						<end>6470</end>
						<in>50578</in>
						<out>50691</out>
						<pproTicksIn>513904849920000</pproTicksIn>
						<pproTicksOut>515053002240000</pproTicksOut>
						<file id="file-56"/>
						<sourcetrack>
							<mediatype>audio</mediatype>
							<trackindex>1</trackindex>
						</sourcetrack>
						<logginginfo>
							<description></description>
							<scene></scene>
							<shottake></shottake>
							<lognote></lognote>
						</logginginfo>
						<labels>
							<label2>Caribbean</label2>
						</labels>
					</clipitem>
					<clipitem id="clipitem-1199" premiereChannelType="mono">
						<masterclipid>masterclip-60</masterclipid>
						<name>Stian Sandø_01.wav</name>
						<enabled>TRUE</enabled>
						<duration>171138</duration>
						<rate>
							<timebase>25</timebase>
							<ntsc>FALSE</ntsc>
						</rate>
						<start>6470</start>
						<end>6547</end>
						<in>50753</in>
						<out>50830</out>
						<pproTicksIn>515682961920000</pproTicksIn>
						<pproTicksOut>516465331200000</pproTicksOut>
						<file id="file-56"/>
						<sourcetrack>
							<mediatype>audio</mediatype>
							<trackindex>1</trackindex>
						</sourcetrack>
						<logginginfo>
							<description></description>
							<scene></scene>
							<shottake></shottake>
							<lognote></lognote>
						</logginginfo>
						<labels>
							<label2>Caribbean</label2>
						</labels>
					</clipitem>
					<clipitem id="clipitem-1200" premiereChannelType="mono">
						<masterclipid>masterclip-60</masterclipid>
						<name>Stian Sandø_01.wav</name>
						<enabled>TRUE</enabled>
						<duration>171138</duration>
						<rate>
							<timebase>25</timebase>
							<ntsc>FALSE</ntsc>
						</rate>
						<start>6547</start>
						<end>7368</end>
						<in>50869</in>
						<out>51690</out>
						<pproTicksIn>516861596160000</pproTicksIn>
						<pproTicksOut>525203481600000</pproTicksOut>
						<file id="file-56"/>
						<sourcetrack>
							<mediatype>audio</mediatype>
							<trackindex>1</trackindex>
						</sourcetrack>
						<logginginfo>
							<description></description>
							<scene></scene>
							<shottake></shottake>
							<lognote></lognote>
						</logginginfo>
						<labels>
							<label2>Caribbean</label2>
						</labels>
					</clipitem>
					<clipitem id="clipitem-1201" premiereChannelType="mono">
						<masterclipid>masterclip-60</masterclipid>
						<name>Stian Sandø_01.wav</name>
						<enabled>TRUE</enabled>
						<duration>171138</duration>
						<rate>
							<timebase>25</timebase>
							<ntsc>FALSE</ntsc>
						</rate>
						<start>7368</start>
						<end>7448</end>
						<in>51824</in>
						<out>51904</out>
						<pproTicksIn>526565007360000</pproTicksIn>
						<pproTicksOut>527377858560000</pproTicksOut>
						<file id="file-56"/>
						<sourcetrack>
							<mediatype>audio</mediatype>
							<trackindex>1</trackindex>
						</sourcetrack>
						<logginginfo>
							<description></description>
							<scene></scene>
							<shottake></shottake>
							<lognote></lognote>
						</logginginfo>
						<labels>
							<label2>Caribbean</label2>
						</labels>
					</clipitem>
					<clipitem id="clipitem-1202" premiereChannelType="mono">
						<masterclipid>masterclip-60</masterclipid>
						<name>Stian Sandø_01.wav</name>
						<enabled>TRUE</enabled>
						<duration>171138</duration>
						<rate>
							<timebase>25</timebase>
							<ntsc>FALSE</ntsc>
						</rate>
						<start>7448</start>
						<end>8194</end>
						<in>52064</in>
						<out>52810</out>
						<pproTicksIn>529003560960000</pproTicksIn>
						<pproTicksOut>536583398400000</pproTicksOut>
						<file id="file-56"/>
						<sourcetrack>
							<mediatype>audio</mediatype>
							<trackindex>1</trackindex>
						</sourcetrack>
						<logginginfo>
							<description></description>
							<scene></scene>
							<shottake></shottake>
							<lognote></lognote>
						</logginginfo>
						<labels>
							<label2>Caribbean</label2>
						</labels>
					</clipitem>
					<clipitem id="clipitem-1203" premiereChannelType="mono">
						<masterclipid>masterclip-60</masterclipid>
						<name>Stian Sandø_01.wav</name>
						<enabled>TRUE</enabled>
						<duration>171138</duration>
						<rate>
							<timebase>25</timebase>
							<ntsc>FALSE</ntsc>
						</rate>
						<start>8194</start>
						<end>8332</end>
						<in>57229</in>
						<out>57367</out>
						<pproTicksIn>581483266560000</pproTicksIn>
						<pproTicksOut>582885434880000</pproTicksOut>
						<file id="file-56"/>
						<sourcetrack>
							<mediatype>audio</mediatype>
							<trackindex>1</trackindex>
						</sourcetrack>
						<logginginfo>
							<description></description>
							<scene></scene>
							<shottake></shottake>
							<lognote></lognote>
						</logginginfo>
						<labels>
							<label2>Caribbean</label2>
						</labels>
					</clipitem>
					<clipitem id="clipitem-1204" premiereChannelType="mono">
						<masterclipid>masterclip-60</masterclipid>
						<name>Stian Sandø_01.wav</name>
						<enabled>TRUE</enabled>
						<duration>171138</duration>
						<rate>
							<timebase>25</timebase>
							<ntsc>FALSE</ntsc>
						</rate>
						<start>8332</start>
						<end>8592</end>
						<in>58240</in>
						<out>58500</out>
						<pproTicksIn>591755673600000</pproTicksIn>
						<pproTicksOut>594397440000000</pproTicksOut>
						<file id="file-56"/>
						<sourcetrack>
							<mediatype>audio</mediatype>
							<trackindex>1</trackindex>
						</sourcetrack>
						<logginginfo>
							<description></description>
							<scene></scene>
							<shottake></shottake>
							<lognote></lognote>
						</logginginfo>
						<labels>
							<label2>Caribbean</label2>
						</labels>
					</clipitem>
					<clipitem id="clipitem-1205" premiereChannelType="mono">
						<masterclipid>masterclip-60</masterclipid>
						<name>Stian Sandø_01.wav</name>
						<enabled>TRUE</enabled>
						<duration>171138</duration>
						<rate>
							<timebase>25</timebase>
							<ntsc>FALSE</ntsc>
						</rate>
						<start>8592</start>
						<end>8690</end>
						<in>58994</in>
						<out>59092</out>
						<pproTicksIn>599416796160000</pproTicksIn>
						<pproTicksOut>600412538880000</pproTicksOut>
						<file id="file-56"/>
						<sourcetrack>
							<mediatype>audio</mediatype>
							<trackindex>1</trackindex>
						</sourcetrack>
						<logginginfo>
							<description></description>
							<scene></scene>
							<shottake></shottake>
							<lognote></lognote>
						</logginginfo>
						<labels>
							<label2>Caribbean</label2>
						</labels>
					</clipitem>
					<clipitem id="clipitem-1206" premiereChannelType="mono">
						<masterclipid>masterclip-60</masterclipid>
						<name>Stian Sandø_01.wav</name>
						<enabled>TRUE</enabled>
						<duration>171138</duration>
						<rate>
							<timebase>25</timebase>
							<ntsc>FALSE</ntsc>
						</rate>
						<start>8690</start>
						<end>8999</end>
						<in>59189</in>
						<out>59498</out>
						<pproTicksIn>601398120960000</pproTicksIn>
						<pproTicksOut>604537758720000</pproTicksOut>
						<file id="file-56"/>
						<sourcetrack>
							<mediatype>audio</mediatype>
							<trackindex>1</trackindex>
						</sourcetrack>
						<logginginfo>
							<description></description>
							<scene></scene>
							<shottake></shottake>
							<lognote></lognote>
						</logginginfo>
						<labels>
							<label2>Caribbean</label2>
						</labels>
					</clipitem>
					<clipitem id="clipitem-1207" premiereChannelType="mono">
						<masterclipid>masterclip-60</masterclipid>
						<name>Stian Sandø_01.wav</name>
						<enabled>TRUE</enabled>
						<duration>171138</duration>
						<rate>
							<timebase>25</timebase>
							<ntsc>FALSE</ntsc>
						</rate>
						<start>8999</start>
						<end>9172</end>
						<in>59597</in>
						<out>59770</out>
						<pproTicksIn>605543662080000</pproTicksIn>
						<pproTicksOut>607301452800000</pproTicksOut>
						<file id="file-56"/>
						<sourcetrack>
							<mediatype>audio</mediatype>
							<trackindex>1</trackindex>
						</sourcetrack>
						<logginginfo>
							<description></description>
							<scene></scene>
							<shottake></shottake>
							<lognote></lognote>
						</logginginfo>
						<labels>
							<label2>Caribbean</label2>
						</labels>
					</clipitem>
					<clipitem id="clipitem-1208" premiereChannelType="mono">
						<masterclipid>masterclip-60</masterclipid>
						<name>Stian Sandø_01.wav</name>
						<enabled>TRUE</enabled>
						<duration>171138</duration>
						<rate>
							<timebase>25</timebase>
							<ntsc>FALSE</ntsc>
						</rate>
						<start>9172</start>
						<end>9280</end>
						<in>59921</in>
						<out>60029</out>
						<pproTicksIn>608835709440000</pproTicksIn>
						<pproTicksOut>609933058560000</pproTicksOut>
						<file id="file-56"/>
						<sourcetrack>
							<mediatype>audio</mediatype>
							<trackindex>1</trackindex>
						</sourcetrack>
						<logginginfo>
							<description></description>
							<scene></scene>
							<shottake></shottake>
							<lognote></lognote>
						</logginginfo>
						<labels>
							<label2>Caribbean</label2>
						</labels>
					</clipitem>
					<clipitem id="clipitem-1209" premiereChannelType="mono">
						<masterclipid>masterclip-60</masterclipid>
						<name>Stian Sandø_01.wav</name>
						<enabled>TRUE</enabled>
						<duration>171138</duration>
						<rate>
							<timebase>25</timebase>
							<ntsc>FALSE</ntsc>
						</rate>
						<start>9280</start>
						<end>9979</end>
						<in>65722</in>
						<out>66421</out>
						<pproTicksIn>667777582080000</pproTicksIn>
						<pproTicksOut>674879869440000</pproTicksOut>
						<file id="file-56"/>
						<sourcetrack>
							<mediatype>audio</mediatype>
							<trackindex>1</trackindex>
						</sourcetrack>
						<logginginfo>
							<description></description>
							<scene></scene>
							<shottake></shottake>
							<lognote></lognote>
						</logginginfo>
						<labels>
							<label2>Caribbean</label2>
						</labels>
					</clipitem>
					<clipitem id="clipitem-1210" premiereChannelType="mono">
						<masterclipid>masterclip-60</masterclipid>
						<name>Stian Sandø_01.wav</name>
						<enabled>TRUE</enabled>
						<duration>171138</duration>
						<rate>
							<timebase>25</timebase>
							<ntsc>FALSE</ntsc>
						</rate>
						<start>9979</start>
						<end>10054</end>
						<in>66518</in>
						<out>66593</out>
						<pproTicksIn>675865451520000</pproTicksIn>
						<pproTicksOut>676627499520000</pproTicksOut>
						<file id="file-56"/>
						<sourcetrack>
							<mediatype>audio</mediatype>
							<trackindex>1</trackindex>
						</sourcetrack>
						<logginginfo>
							<description></description>
							<scene></scene>
							<shottake></shottake>
							<lognote></lognote>
						</logginginfo>
						<labels>
							<label2>Caribbean</label2>
						</labels>
					</clipitem>
					<clipitem id="clipitem-1211" premiereChannelType="mono">
						<masterclipid>masterclip-60</masterclipid>
						<name>Stian Sandø_01.wav</name>
						<enabled>TRUE</enabled>
						<duration>171138</duration>
						<rate>
							<timebase>25</timebase>
							<ntsc>FALSE</ntsc>
						</rate>
						<start>10054</start>
						<end>10901</end>
						<in>67109</in>
						<out>67956</out>
						<pproTicksIn>681870389760000</pproTicksIn>
						<pproTicksOut>690476451840000</pproTicksOut>
						<file id="file-56"/>
						<sourcetrack>
							<mediatype>audio</mediatype>
							<trackindex>1</trackindex>
						</sourcetrack>
						<logginginfo>
							<description></description>
							<scene></scene>
							<shottake></shottake>
							<lognote></lognote>
						</logginginfo>
						<labels>
							<label2>Caribbean</label2>
						</labels>
					</clipitem>
					<clipitem id="clipitem-1212" premiereChannelType="mono">
						<masterclipid>masterclip-60</masterclipid>
						<name>Stian Sandø_01.wav</name>
						<enabled>TRUE</enabled>
						<duration>171138</duration>
						<rate>
							<timebase>25</timebase>
							<ntsc>FALSE</ntsc>
						</rate>
						<start>10901</start>
						<end>11157</end>
						<in>67945</in>
						<out>68201</out>
						<pproTicksIn>690364684800000</pproTicksIn>
						<pproTicksOut>692965808640000</pproTicksOut>
						<file id="file-56"/>
						<sourcetrack>
							<mediatype>audio</mediatype>
							<trackindex>1</trackindex>
						</sourcetrack>
						<logginginfo>
							<description></description>
							<scene></scene>
							<shottake></shottake>
							<lognote></lognote>
						</logginginfo>
						<labels>
							<label2>Caribbean</label2>
						</labels>
					</clipitem>
					<clipitem id="clipitem-1213" premiereChannelType="mono">
						<masterclipid>masterclip-60</masterclipid>
						<name>Stian Sandø_01.wav</name>
						<enabled>TRUE</enabled>
						<duration>171138</duration>
						<rate>
							<timebase>25</timebase>
							<ntsc>FALSE</ntsc>
						</rate>
						<start>11157</start>
						<end>11309</end>
						<in>68218</in>
						<out>68370</out>
						<pproTicksIn>693138539520000</pproTicksIn>
						<pproTicksOut>694682956800000</pproTicksOut>
						<file id="file-56"/>
						<sourcetrack>
							<mediatype>audio</mediatype>
							<trackindex>1</trackindex>
						</sourcetrack>
						<logginginfo>
							<description></description>
							<scene></scene>
							<shottake></shottake>
							<lognote></lognote>
						</logginginfo>
						<labels>
							<label2>Caribbean</label2>
						</labels>
					</clipitem>
					<clipitem id="clipitem-1214" premiereChannelType="mono">
						<masterclipid>masterclip-60</masterclipid>
						<name>Stian Sandø_01.wav</name>
						<enabled>TRUE</enabled>
						<duration>171138</duration>
						<rate>
							<timebase>25</timebase>
							<ntsc>FALSE</ntsc>
						</rate>
						<start>11309</start>
						<end>11781</end>
						<in>68707</in>
						<out>69179</out>
						<pproTicksIn>698107092480000</pproTicksIn>
						<pproTicksOut>702902914560000</pproTicksOut>
						<file id="file-56"/>
						<sourcetrack>
							<mediatype>audio</mediatype>
							<trackindex>1</trackindex>
						</sourcetrack>
						<logginginfo>
							<description></description>
							<scene></scene>
							<shottake></shottake>
							<lognote></lognote>
						</logginginfo>
						<labels>
							<label2>Caribbean</label2>
						</labels>
					</clipitem>
					<clipitem id="clipitem-1215" premiereChannelType="mono">
						<masterclipid>masterclip-60</masterclipid>
						<name>Stian Sandø_01.wav</name>
						<enabled>TRUE</enabled>
						<duration>171138</duration>
						<rate>
							<timebase>25</timebase>
							<ntsc>FALSE</ntsc>
						</rate>
						<start>11781</start>
						<end>12155</end>
						<in>70010</in>
						<out>70384</out>
						<pproTicksIn>711346406400000</pproTicksIn>
						<pproTicksOut>715146485760000</pproTicksOut>
						<file id="file-56"/>
						<sourcetrack>
							<mediatype>audio</mediatype>
							<trackindex>1</trackindex>
						</sourcetrack>
						<logginginfo>
							<description></description>
							<scene></scene>
							<shottake></shottake>
							<lognote></lognote>
						</logginginfo>
						<labels>
							<label2>Caribbean</label2>
						</labels>
					</clipitem>
					<clipitem id="clipitem-1216" premiereChannelType="mono">
						<masterclipid>masterclip-60</masterclipid>
						<name>Stian Sandø_01.wav</name>
						<enabled>TRUE</enabled>
						<duration>171138</duration>
						<rate>
							<timebase>25</timebase>
							<ntsc>FALSE</ntsc>
						</rate>
						<start>12155</start>
						<end>13212</end>
						<in>70448</in>
						<out>71505</out>
						<pproTicksIn>715796766720000</pproTicksIn>
						<pproTicksOut>726536563200000</pproTicksOut>
						<file id="file-56"/>
						<sourcetrack>
							<mediatype>audio</mediatype>
							<trackindex>1</trackindex>
						</sourcetrack>
						<logginginfo>
							<description></description>
							<scene></scene>
							<shottake></shottake>
							<lognote></lognote>
						</logginginfo>
						<labels>
							<label2>Caribbean</label2>
						</labels>
					</clipitem>
					<clipitem id="clipitem-1217" premiereChannelType="mono">
						<masterclipid>masterclip-60</masterclipid>
						<name>Stian Sandø_01.wav</name>
						<enabled>TRUE</enabled>
						<duration>171138</duration>
						<rate>
							<timebase>25</timebase>
							<ntsc>FALSE</ntsc>
						</rate>
						<start>13212</start>
						<end>13343</end>
						<in>71544</in>
						<out>71675</out>
						<pproTicksIn>726932828160000</pproTicksIn>
						<pproTicksOut>728263872000000</pproTicksOut>
						<file id="file-56"/>
						<sourcetrack>
							<mediatype>audio</mediatype>
							<trackindex>1</trackindex>
						</sourcetrack>
						<logginginfo>
							<description></description>
							<scene></scene>
							<shottake></shottake>
							<lognote></lognote>
						</logginginfo>
						<labels>
							<label2>Caribbean</label2>
						</labels>
					</clipitem>
					<clipitem id="clipitem-1218" premiereChannelType="mono">
						<masterclipid>masterclip-60</masterclipid>
						<name>Stian Sandø_01.wav</name>
						<enabled>TRUE</enabled>
						<duration>171138</duration>
						<rate>
							<timebase>25</timebase>
							<ntsc>FALSE</ntsc>
						</rate>
						<start>13359</start>
						<end>13506</end>
						<in>77542</in>
						<out>77689</out>
						<pproTicksIn>787876346880000</pproTicksIn>
						<pproTicksOut>789369960960000</pproTicksOut>
						<file id="file-56"/>
						<sourcetrack>
							<mediatype>audio</mediatype>
							<trackindex>1</trackindex>
						</sourcetrack>
						<logginginfo>
							<description></description>
							<scene></scene>
							<shottake></shottake>
							<lognote></lognote>
						</logginginfo>
						<labels>
							<label2>Caribbean</label2>
						</labels>
					</clipitem>
					<clipitem id="clipitem-1219" premiereChannelType="mono">
						<masterclipid>masterclip-60</masterclipid>
						<name>Stian Sandø_01.wav</name>
						<enabled>TRUE</enabled>
						<duration>171138</duration>
						<rate>
							<timebase>25</timebase>
							<ntsc>FALSE</ntsc>
						</rate>
						<start>13506</start>
						<end>14081</end>
						<in>78019</in>
						<out>78594</out>
						<pproTicksIn>792722972160000</pproTicksIn>
						<pproTicksOut>798565340160000</pproTicksOut>
						<file id="file-56"/>
						<sourcetrack>
							<mediatype>audio</mediatype>
							<trackindex>1</trackindex>
						</sourcetrack>
						<logginginfo>
							<description></description>
							<scene></scene>
							<shottake></shottake>
							<lognote></lognote>
						</logginginfo>
						<labels>
							<label2>Caribbean</label2>
						</labels>
					</clipitem>
					<clipitem id="clipitem-1220" premiereChannelType="mono">
						<masterclipid>masterclip-60</masterclipid>
						<name>Stian Sandø_01.wav</name>
						<enabled>TRUE</enabled>
						<duration>171138</duration>
						<rate>
							<timebase>25</timebase>
							<ntsc>FALSE</ntsc>
						</rate>
						<start>14081</start>
						<end>14232</end>
						<in>78676</in>
						<out>78827</out>
						<pproTicksIn>799398512640000</pproTicksIn>
						<pproTicksOut>800932769280000</pproTicksOut>
						<file id="file-56"/>
						<sourcetrack>
							<mediatype>audio</mediatype>
							<trackindex>1</trackindex>
						</sourcetrack>
						<logginginfo>
							<description></description>
							<scene></scene>
							<shottake></shottake>
							<lognote></lognote>
						</logginginfo>
						<labels>
							<label2>Caribbean</label2>
						</labels>
					</clipitem>
					<clipitem id="clipitem-1221" premiereChannelType="mono">
						<masterclipid>masterclip-60</masterclipid>
						<name>Stian Sandø_01.wav</name>
						<enabled>TRUE</enabled>
						<duration>171138</duration>
						<rate>
							<timebase>25</timebase>
							<ntsc>FALSE</ntsc>
						</rate>
						<start>14232</start>
						<end>14550</end>
						<in>78886</in>
						<out>79204</out>
						<pproTicksIn>801532247040000</pproTicksIn>
						<pproTicksOut>804763330560000</pproTicksOut>
						<file id="file-56"/>
						<sourcetrack>
							<mediatype>audio</mediatype>
							<trackindex>1</trackindex>
						</sourcetrack>
						<logginginfo>
							<description></description>
							<scene></scene>
							<shottake></shottake>
							<lognote></lognote>
						</logginginfo>
						<labels>
							<label2>Caribbean</label2>
						</labels>
					</clipitem>
					<clipitem id="clipitem-1222" premiereChannelType="mono">
						<masterclipid>masterclip-60</masterclipid>
						<name>Stian Sandø_01.wav</name>
						<enabled>TRUE</enabled>
						<duration>171138</duration>
						<rate>
							<timebase>25</timebase>
							<ntsc>FALSE</ntsc>
						</rate>
						<start>14550</start>
						<end>14774</end>
						<in>79562</in>
						<out>79786</out>
						<pproTicksIn>808400839680000</pproTicksIn>
						<pproTicksOut>810676823040000</pproTicksOut>
						<file id="file-56"/>
						<sourcetrack>
							<mediatype>audio</mediatype>
							<trackindex>1</trackindex>
						</sourcetrack>
						<logginginfo>
							<description></description>
							<scene></scene>
							<shottake></shottake>
							<lognote></lognote>
						</logginginfo>
						<labels>
							<label2>Caribbean</label2>
						</labels>
					</clipitem>
					<clipitem id="clipitem-1223" premiereChannelType="mono">
						<masterclipid>masterclip-60</masterclipid>
						<name>Stian Sandø_01.wav</name>
						<enabled>TRUE</enabled>
						<duration>171138</duration>
						<rate>
							<timebase>25</timebase>
							<ntsc>FALSE</ntsc>
						</rate>
						<start>14774</start>
						<end>14798</end>
						<in>79204</in>
						<out>79228</out>
						<pproTicksIn>804763330560000</pproTicksIn>
						<pproTicksOut>805007185920000</pproTicksOut>
						<file id="file-56"/>
						<sourcetrack>
							<mediatype>audio</mediatype>
							<trackindex>1</trackindex>
						</sourcetrack>
						<logginginfo>
							<description></description>
							<scene></scene>
							<shottake></shottake>
							<lognote></lognote>
						</logginginfo>
						<labels>
							<label2>Caribbean</label2>
						</labels>
					</clipitem>
					<clipitem id="clipitem-1224" premiereChannelType="mono">
						<masterclipid>masterclip-60</masterclipid>
						<name>Stian Sandø_01.wav</name>
						<enabled>TRUE</enabled>
						<duration>171138</duration>
						<rate>
							<timebase>25</timebase>
							<ntsc>FALSE</ntsc>
						</rate>
						<start>14798</start>
						<end>14887</end>
						<in>80182</in>
						<out>80271</out>
						<pproTicksIn>814700436480000</pproTicksIn>
						<pproTicksOut>815604733440000</pproTicksOut>
						<file id="file-56"/>
						<sourcetrack>
							<mediatype>audio</mediatype>
							<trackindex>1</trackindex>
						</sourcetrack>
						<logginginfo>
							<description></description>
							<scene></scene>
							<shottake></shottake>
							<lognote></lognote>
						</logginginfo>
						<labels>
							<label2>Caribbean</label2>
						</labels>
					</clipitem>
					<clipitem id="clipitem-1225" premiereChannelType="mono">
						<masterclipid>masterclip-60</masterclipid>
						<name>Stian Sandø_01.wav</name>
						<enabled>TRUE</enabled>
						<duration>171138</duration>
						<rate>
							<timebase>25</timebase>
							<ntsc>FALSE</ntsc>
						</rate>
						<start>14887</start>
						<end>15129</end>
						<in>80569</in>
						<out>80811</out>
						<pproTicksIn>818632604160000</pproTicksIn>
						<pproTicksOut>821091479040000</pproTicksOut>
						<file id="file-56"/>
						<sourcetrack>
							<mediatype>audio</mediatype>
							<trackindex>1</trackindex>
						</sourcetrack>
						<logginginfo>
							<description></description>
							<scene></scene>
							<shottake></shottake>
							<lognote></lognote>
						</logginginfo>
						<labels>
							<label2>Caribbean</label2>
						</labels>
					</clipitem>
					<clipitem id="clipitem-1226" premiereChannelType="mono">
						<masterclipid>masterclip-60</masterclipid>
						<name>Stian Sandø_01.wav</name>
						<enabled>TRUE</enabled>
						<duration>171138</duration>
						<rate>
							<timebase>25</timebase>
							<ntsc>FALSE</ntsc>
						</rate>
						<start>15129</start>
						<end>15493</end>
						<in>80817</in>
						<out>81181</out>
						<pproTicksIn>821152442880000</pproTicksIn>
						<pproTicksOut>824850915840000</pproTicksOut>
						<file id="file-56"/>
						<sourcetrack>
							<mediatype>audio</mediatype>
							<trackindex>1</trackindex>
						</sourcetrack>
						<logginginfo>
							<description></description>
							<scene></scene>
							<shottake></shottake>
							<lognote></lognote>
						</logginginfo>
						<labels>
							<label2>Caribbean</label2>
						</labels>
					</clipitem>
					<clipitem id="clipitem-1227" premiereChannelType="mono">
						<masterclipid>masterclip-60</masterclipid>
						<name>Stian Sandø_01.wav</name>
						<enabled>TRUE</enabled>
						<duration>171138</duration>
						<rate>
							<timebase>25</timebase>
							<ntsc>FALSE</ntsc>
						</rate>
						<start>15493</start>
						<end>15657</end>
						<in>81234</in>
						<out>81398</out>
						<pproTicksIn>825389429760000</pproTicksIn>
						<pproTicksOut>827055774720000</pproTicksOut>
						<file id="file-56"/>
						<sourcetrack>
							<mediatype>audio</mediatype>
							<trackindex>1</trackindex>
						</sourcetrack>
						<logginginfo>
							<description></description>
							<scene></scene>
							<shottake></shottake>
							<lognote></lognote>
						</logginginfo>
						<labels>
							<label2>Caribbean</label2>
						</labels>
					</clipitem>
					<clipitem id="clipitem-1228" premiereChannelType="mono">
						<masterclipid>masterclip-60</masterclipid>
						<name>Stian Sandø_01.wav</name>
						<enabled>TRUE</enabled>
						<duration>171138</duration>
						<rate>
							<timebase>25</timebase>
							<ntsc>FALSE</ntsc>
						</rate>
						<start>15657</start>
						<end>15850</end>
						<in>81563</in>
						<out>81756</out>
						<pproTicksIn>828732280320000</pproTicksIn>
						<pproTicksOut>830693283840000</pproTicksOut>
						<file id="file-56"/>
						<sourcetrack>
							<mediatype>audio</mediatype>
							<trackindex>1</trackindex>
						</sourcetrack>
						<logginginfo>
							<description></description>
							<scene></scene>
							<shottake></shottake>
							<lognote></lognote>
						</logginginfo>
						<labels>
							<label2>Caribbean</label2>
						</labels>
					</clipitem>
					<clipitem id="clipitem-1229" premiereChannelType="mono">
						<masterclipid>masterclip-60</masterclipid>
						<name>Stian Sandø_01.wav</name>
						<enabled>TRUE</enabled>
						<duration>171138</duration>
						<rate>
							<timebase>25</timebase>
							<ntsc>FALSE</ntsc>
						</rate>
						<start>15850</start>
						<end>16018</end>
						<in>81984</in>
						<out>82152</out>
						<pproTicksIn>833009909760000</pproTicksIn>
						<pproTicksOut>834716897280000</pproTicksOut>
						<file id="file-56"/>
						<sourcetrack>
							<mediatype>audio</mediatype>
							<trackindex>1</trackindex>
						</sourcetrack>
						<logginginfo>
							<description></description>
							<scene></scene>
							<shottake></shottake>
							<lognote></lognote>
						</logginginfo>
						<labels>
							<label2>Caribbean</label2>
						</labels>
					</clipitem>
					<clipitem id="clipitem-1230" premiereChannelType="mono">
						<masterclipid>masterclip-60</masterclipid>
						<name>Stian Sandø_01.wav</name>
						<enabled>TRUE</enabled>
						<duration>171138</duration>
						<rate>
							<timebase>25</timebase>
							<ntsc>FALSE</ntsc>
						</rate>
						<start>16018</start>
						<end>16073</end>
						<in>82477</in>
						<out>82532</out>
						<pproTicksIn>838019105280000</pproTicksIn>
						<pproTicksOut>838577940480000</pproTicksOut>
						<file id="file-56"/>
						<sourcetrack>
							<mediatype>audio</mediatype>
							<trackindex>1</trackindex>
						</sourcetrack>
						<logginginfo>
							<description></description>
							<scene></scene>
							<shottake></shottake>
							<lognote></lognote>
						</logginginfo>
						<labels>
							<label2>Caribbean</label2>
						</labels>
					</clipitem>
					<clipitem id="clipitem-1231" premiereChannelType="mono">
						<masterclipid>masterclip-60</masterclipid>
						<name>Stian Sandø_01.wav</name>
						<enabled>TRUE</enabled>
						<duration>171138</duration>
						<rate>
							<timebase>25</timebase>
							<ntsc>FALSE</ntsc>
						</rate>
						<start>16073</start>
						<end>16115</end>
						<in>83437</in>
						<out>83479</out>
						<pproTicksIn>847773319680000</pproTicksIn>
						<pproTicksOut>848200066560000</pproTicksOut>
						<file id="file-56"/>
						<sourcetrack>
							<mediatype>audio</mediatype>
							<trackindex>1</trackindex>
						</sourcetrack>
						<logginginfo>
							<description></description>
							<scene></scene>
							<shottake></shottake>
							<lognote></lognote>
						</logginginfo>
						<labels>
							<label2>Caribbean</label2>
						</labels>
					</clipitem>
					<clipitem id="clipitem-1232" premiereChannelType="mono">
						<masterclipid>masterclip-60</masterclipid>
						<name>Stian Sandø_01.wav</name>
						<enabled>TRUE</enabled>
						<duration>171138</duration>
						<rate>
							<timebase>25</timebase>
							<ntsc>FALSE</ntsc>
						</rate>
						<start>16115</start>
						<end>16204</end>
						<in>83479</in>
						<out>83568</out>
						<pproTicksIn>848200066560000</pproTicksIn>
						<pproTicksOut>849104363520000</pproTicksOut>
						<file id="file-56"/>
						<sourcetrack>
							<mediatype>audio</mediatype>
							<trackindex>1</trackindex>
						</sourcetrack>
						<logginginfo>
							<description></description>
							<scene></scene>
							<shottake></shottake>
							<lognote></lognote>
						</logginginfo>
						<labels>
							<label2>Caribbean</label2>
						</labels>
					</clipitem>
					<clipitem id="clipitem-1233" premiereChannelType="mono">
						<masterclipid>masterclip-60</masterclipid>
						<name>Stian Sandø_01.wav</name>
						<enabled>TRUE</enabled>
						<duration>171138</duration>
						<rate>
							<timebase>25</timebase>
							<ntsc>FALSE</ntsc>
						</rate>
						<start>16204</start>
						<end>16898</end>
						<in>83568</in>
						<out>84262</out>
						<pproTicksIn>849104363520000</pproTicksIn>
						<pproTicksOut>856155847680000</pproTicksOut>
						<file id="file-56"/>
						<sourcetrack>
							<mediatype>audio</mediatype>
							<trackindex>1</trackindex>
						</sourcetrack>
						<logginginfo>
							<description></description>
							<scene></scene>
							<shottake></shottake>
							<lognote></lognote>
						</logginginfo>
						<labels>
							<label2>Caribbean</label2>
						</labels>
					</clipitem>
					<clipitem id="clipitem-1234" premiereChannelType="mono">
						<masterclipid>masterclip-60</masterclipid>
						<name>Stian Sandø_01.wav</name>
						<enabled>TRUE</enabled>
						<duration>171138</duration>
						<rate>
							<timebase>25</timebase>
							<ntsc>FALSE</ntsc>
						</rate>
						<start>16898</start>
						<end>16971</end>
						<in>84282</in>
						<out>84355</out>
						<pproTicksIn>856359060480000</pproTicksIn>
						<pproTicksOut>857100787200000</pproTicksOut>
						<file id="file-56"/>
						<sourcetrack>
							<mediatype>audio</mediatype>
							<trackindex>1</trackindex>
						</sourcetrack>
						<logginginfo>
							<description></description>
							<scene></scene>
							<shottake></shottake>
							<lognote></lognote>
						</logginginfo>
						<labels>
							<label2>Caribbean</label2>
						</labels>
					</clipitem>
					<clipitem id="clipitem-1235" premiereChannelType="mono">
						<masterclipid>masterclip-60</masterclipid>
						<name>Stian Sandø_01.wav</name>
						<enabled>TRUE</enabled>
						<duration>171138</duration>
						<rate>
							<timebase>25</timebase>
							<ntsc>FALSE</ntsc>
						</rate>
						<start>16971</start>
						<end>17329</end>
						<in>84400</in>
						<out>84758</out>
						<pproTicksIn>857558016000000</pproTicksIn>
						<pproTicksOut>861195525120000</pproTicksOut>
						<file id="file-56"/>
						<sourcetrack>
							<mediatype>audio</mediatype>
							<trackindex>1</trackindex>
						</sourcetrack>
						<logginginfo>
							<description></description>
							<scene></scene>
							<shottake></shottake>
							<lognote></lognote>
						</logginginfo>
						<labels>
							<label2>Caribbean</label2>
						</labels>
					</clipitem>
					<clipitem id="clipitem-1236" premiereChannelType="mono">
						<masterclipid>masterclip-60</masterclipid>
						<name>Stian Sandø_01.wav</name>
						<enabled>TRUE</enabled>
						<duration>171138</duration>
						<rate>
							<timebase>25</timebase>
							<ntsc>FALSE</ntsc>
						</rate>
						<start>17329</start>
						<end>17417</end>
						<in>85268</in>
						<out>85356</out>
						<pproTicksIn>866377451520000</pproTicksIn>
						<pproTicksOut>867271587840000</pproTicksOut>
						<file id="file-56"/>
						<sourcetrack>
							<mediatype>audio</mediatype>
							<trackindex>1</trackindex>
						</sourcetrack>
						<logginginfo>
							<description></description>
							<scene></scene>
							<shottake></shottake>
							<lognote></lognote>
						</logginginfo>
						<labels>
							<label2>Caribbean</label2>
						</labels>
					</clipitem>
					<clipitem id="clipitem-1237" premiereChannelType="mono">
						<masterclipid>masterclip-60</masterclipid>
						<name>Stian Sandø_01.wav</name>
						<enabled>TRUE</enabled>
						<duration>171138</duration>
						<rate>
							<timebase>25</timebase>
							<ntsc>FALSE</ntsc>
						</rate>
						<start>17417</start>
						<end>17611</end>
						<in>85074</in>
						<out>85268</out>
						<pproTicksIn>864406287360000</pproTicksIn>
						<pproTicksOut>866377451520000</pproTicksOut>
						<file id="file-56"/>
						<sourcetrack>
							<mediatype>audio</mediatype>
							<trackindex>1</trackindex>
						</sourcetrack>
						<logginginfo>
							<description></description>
							<scene></scene>
							<shottake></shottake>
							<lognote></lognote>
						</logginginfo>
						<labels>
							<label2>Caribbean</label2>
						</labels>
					</clipitem>
					<clipitem id="clipitem-1238" premiereChannelType="mono">
						<masterclipid>masterclip-60</masterclipid>
						<name>Stian Sandø_01.wav</name>
						<enabled>TRUE</enabled>
						<duration>171138</duration>
						<rate>
							<timebase>25</timebase>
							<ntsc>FALSE</ntsc>
						</rate>
						<start>17611</start>
						<end>17830</end>
						<in>85560</in>
						<out>85779</out>
						<pproTicksIn>869344358400000</pproTicksIn>
						<pproTicksOut>871569538560000</pproTicksOut>
						<file id="file-56"/>
						<sourcetrack>
							<mediatype>audio</mediatype>
							<trackindex>1</trackindex>
						</sourcetrack>
						<logginginfo>
							<description></description>
							<scene></scene>
							<shottake></shottake>
							<lognote></lognote>
						</logginginfo>
						<labels>
							<label2>Caribbean</label2>
						</labels>
					</clipitem>
					<clipitem id="clipitem-1239" premiereChannelType="mono">
						<masterclipid>masterclip-60</masterclipid>
						<name>Stian Sandø_01.wav</name>
						<enabled>TRUE</enabled>
						<duration>171138</duration>
						<rate>
							<timebase>25</timebase>
							<ntsc>FALSE</ntsc>
						</rate>
						<start>17830</start>
						<end>17876</end>
						<in>83479</in>
						<out>83525</out>
						<pproTicksIn>848200066560000</pproTicksIn>
						<pproTicksOut>848667456000000</pproTicksOut>
						<file id="file-56"/>
						<sourcetrack>
							<mediatype>audio</mediatype>
							<trackindex>1</trackindex>
						</sourcetrack>
						<logginginfo>
							<description></description>
							<scene></scene>
							<shottake></shottake>
							<lognote></lognote>
						</logginginfo>
						<labels>
							<label2>Caribbean</label2>
						</labels>
					</clipitem>
					<clipitem id="clipitem-1240" premiereChannelType="mono">
						<masterclipid>masterclip-60</masterclipid>
						<name>Stian Sandø_01.wav</name>
						<enabled>TRUE</enabled>
						<duration>171138</duration>
						<rate>
							<timebase>25</timebase>
							<ntsc>FALSE</ntsc>
						</rate>
						<start>17876</start>
						<end>18012</end>
						<in>85841</in>
						<out>85977</out>
						<pproTicksIn>872199498240000</pproTicksIn>
						<pproTicksOut>873581345280000</pproTicksOut>
						<file id="file-56"/>
						<sourcetrack>
							<mediatype>audio</mediatype>
							<trackindex>1</trackindex>
						</sourcetrack>
						<logginginfo>
							<description></description>
							<scene></scene>
							<shottake></shottake>
							<lognote></lognote>
						</logginginfo>
						<labels>
							<label2>Caribbean</label2>
						</labels>
					</clipitem>
					<clipitem id="clipitem-1241" premiereChannelType="mono">
						<masterclipid>masterclip-60</masterclipid>
						<name>Stian Sandø_01.wav</name>
						<enabled>TRUE</enabled>
						<duration>171138</duration>
						<rate>
							<timebase>25</timebase>
							<ntsc>FALSE</ntsc>
						</rate>
						<start>18012</start>
						<end>18158</end>
						<in>116811</in>
						<out>116957</out>
						<pproTicksIn>1186874519040000</pproTicksIn>
						<pproTicksOut>1188357972480000</pproTicksOut>
						<file id="file-56"/>
						<sourcetrack>
							<mediatype>audio</mediatype>
							<trackindex>1</trackindex>
						</sourcetrack>
						<logginginfo>
							<description></description>
							<scene></scene>
							<shottake></shottake>
							<lognote></lognote>
						</logginginfo>
						<labels>
							<label2>Caribbean</label2>
						</labels>
					</clipitem>
					<clipitem id="clipitem-1242" premiereChannelType="mono">
						<masterclipid>masterclip-60</masterclipid>
						<name>Stian Sandø_01.wav</name>
						<enabled>TRUE</enabled>
						<duration>171138</duration>
						<rate>
							<timebase>25</timebase>
							<ntsc>FALSE</ntsc>
						</rate>
						<start>18158</start>
						<end>18332</end>
						<in>86150</in>
						<out>86324</out>
						<pproTicksIn>875339136000000</pproTicksIn>
						<pproTicksOut>877107087360000</pproTicksOut>
						<file id="file-56"/>
						<sourcetrack>
							<mediatype>audio</mediatype>
							<trackindex>1</trackindex>
						</sourcetrack>
						<logginginfo>
							<description></description>
							<scene></scene>
							<shottake></shottake>
							<lognote></lognote>
						</logginginfo>
						<labels>
							<label2>Caribbean</label2>
						</labels>
					</clipitem>
					<clipitem id="clipitem-1243" premiereChannelType="mono">
						<masterclipid>masterclip-60</masterclipid>
						<name>Stian Sandø_01.wav</name>
						<enabled>TRUE</enabled>
						<duration>171138</duration>
						<rate>
							<timebase>25</timebase>
							<ntsc>FALSE</ntsc>
						</rate>
						<start>18332</start>
						<end>22265</end>
						<in>87920</in>
						<out>91853</out>
						<pproTicksIn>893323468800000</pproTicksIn>
						<pproTicksOut>933285265920000</pproTicksOut>
						<file id="file-56"/>
						<sourcetrack>
							<mediatype>audio</mediatype>
							<trackindex>1</trackindex>
						</sourcetrack>
						<logginginfo>
							<description></description>
							<scene></scene>
							<shottake></shottake>
							<lognote></lognote>
						</logginginfo>
						<labels>
							<label2>Caribbean</label2>
						</labels>
					</clipitem>
					<clipitem id="clipitem-1244" premiereChannelType="mono">
						<masterclipid>masterclip-60</masterclipid>
						<name>Stian Sandø_01.wav</name>
						<enabled>TRUE</enabled>
						<duration>171138</duration>
						<rate>
							<timebase>25</timebase>
							<ntsc>FALSE</ntsc>
						</rate>
						<start>22265</start>
						<end>23367</end>
						<in>91952</in>
						<out>93054</out>
						<pproTicksIn>934291169280000</pproTicksIn>
						<pproTicksOut>945488194560000</pproTicksOut>
						<file id="file-56"/>
						<sourcetrack>
							<mediatype>audio</mediatype>
							<trackindex>1</trackindex>
						</sourcetrack>
						<logginginfo>
							<description></description>
							<scene></scene>
							<shottake></shottake>
							<lognote></lognote>
						</logginginfo>
						<labels>
							<label2>Caribbean</label2>
						</labels>
					</clipitem>
					<clipitem id="clipitem-1245" premiereChannelType="mono">
						<masterclipid>masterclip-60</masterclipid>
						<name>Stian Sandø_01.wav</name>
						<enabled>TRUE</enabled>
						<duration>171138</duration>
						<rate>
							<timebase>25</timebase>
							<ntsc>FALSE</ntsc>
						</rate>
						<start>23367</start>
						<end>23724</end>
						<in>93377</in>
						<out>93734</out>
						<pproTicksIn>948770081280000</pproTicksIn>
						<pproTicksOut>952397429760000</pproTicksOut>
						<file id="file-56"/>
						<sourcetrack>
							<mediatype>audio</mediatype>
							<trackindex>1</trackindex>
						</sourcetrack>
						<logginginfo>
							<description></description>
							<scene></scene>
							<shottake></shottake>
							<lognote></lognote>
						</logginginfo>
						<labels>
							<label2>Caribbean</label2>
						</labels>
					</clipitem>
					<clipitem id="clipitem-1246" premiereChannelType="mono">
						<masterclipid>masterclip-60</masterclipid>
						<name>Stian Sandø_01.wav</name>
						<enabled>TRUE</enabled>
						<duration>171138</duration>
						<rate>
							<timebase>25</timebase>
							<ntsc>FALSE</ntsc>
						</rate>
						<start>23724</start>
						<end>24114</end>
						<in>94350</in>
						<out>94740</out>
						<pproTicksIn>958656384000000</pproTicksIn>
						<pproTicksOut>962619033600000</pproTicksOut>
						<file id="file-56"/>
						<sourcetrack>
							<mediatype>audio</mediatype>
							<trackindex>1</trackindex>
						</sourcetrack>
						<logginginfo>
							<description></description>
							<scene></scene>
							<shottake></shottake>
							<lognote></lognote>
						</logginginfo>
						<labels>
							<label2>Caribbean</label2>
						</labels>
					</clipitem>
					<clipitem id="clipitem-1247" premiereChannelType="mono">
						<masterclipid>masterclip-60</masterclipid>
						<name>Stian Sandø_01.wav</name>
						<enabled>TRUE</enabled>
						<duration>171138</duration>
						<rate>
							<timebase>25</timebase>
							<ntsc>FALSE</ntsc>
						</rate>
						<start>24114</start>
						<end>24241</end>
						<in>94797</in>
						<out>94924</out>
						<pproTicksIn>963198190080000</pproTicksIn>
						<pproTicksOut>964488591360000</pproTicksOut>
						<file id="file-56"/>
						<sourcetrack>
							<mediatype>audio</mediatype>
							<trackindex>1</trackindex>
						</sourcetrack>
						<logginginfo>
							<description></description>
							<scene></scene>
							<shottake></shottake>
							<lognote></lognote>
						</logginginfo>
						<labels>
							<label2>Caribbean</label2>
						</labels>
					</clipitem>
					<clipitem id="clipitem-1248" premiereChannelType="mono">
						<masterclipid>masterclip-60</masterclipid>
						<name>Stian Sandø_01.wav</name>
						<enabled>TRUE</enabled>
						<duration>171138</duration>
						<rate>
							<timebase>25</timebase>
							<ntsc>FALSE</ntsc>
						</rate>
						<start>24241</start>
						<end>24388</end>
						<in>95094</in>
						<out>95241</out>
						<pproTicksIn>966215900160000</pproTicksIn>
						<pproTicksOut>967709514240000</pproTicksOut>
						<file id="file-56"/>
						<sourcetrack>
							<mediatype>audio</mediatype>
							<trackindex>1</trackindex>
						</sourcetrack>
						<logginginfo>
							<description></description>
							<scene></scene>
							<shottake></shottake>
							<lognote></lognote>
						</logginginfo>
						<labels>
							<label2>Caribbean</label2>
						</labels>
					</clipitem>
					<clipitem id="clipitem-1249" premiereChannelType="mono">
						<masterclipid>masterclip-60</masterclipid>
						<name>Stian Sandø_01.wav</name>
						<enabled>TRUE</enabled>
						<duration>171138</duration>
						<rate>
							<timebase>25</timebase>
							<ntsc>FALSE</ntsc>
						</rate>
						<start>24388</start>
						<end>24600</end>
						<in>95265</in>
						<out>95477</out>
						<pproTicksIn>967953369600000</pproTicksIn>
						<pproTicksOut>970107425280000</pproTicksOut>
						<file id="file-56"/>
						<sourcetrack>
							<mediatype>audio</mediatype>
							<trackindex>1</trackindex>
						</sourcetrack>
						<logginginfo>
							<description></description>
							<scene></scene>
							<shottake></shottake>
							<lognote></lognote>
						</logginginfo>
						<labels>
							<label2>Caribbean</label2>
						</labels>
					</clipitem>
					<clipitem id="clipitem-1250" premiereChannelType="mono">
						<masterclipid>masterclip-60</masterclipid>
						<name>Stian Sandø_01.wav</name>
						<enabled>TRUE</enabled>
						<duration>171138</duration>
						<rate>
							<timebase>25</timebase>
							<ntsc>FALSE</ntsc>
						</rate>
						<start>24600</start>
						<end>24872</end>
						<in>95504</in>
						<out>95776</out>
						<pproTicksIn>970381762560000</pproTicksIn>
						<pproTicksOut>973145456640000</pproTicksOut>
						<file id="file-56"/>
						<sourcetrack>
							<mediatype>audio</mediatype>
							<trackindex>1</trackindex>
						</sourcetrack>
						<logginginfo>
							<description></description>
							<scene></scene>
							<shottake></shottake>
							<lognote></lognote>
						</logginginfo>
						<labels>
							<label2>Caribbean</label2>
						</labels>
					</clipitem>
					<clipitem id="clipitem-1251" premiereChannelType="mono">
						<masterclipid>masterclip-60</masterclipid>
						<name>Stian Sandø_01.wav</name>
						<enabled>TRUE</enabled>
						<duration>171138</duration>
						<rate>
							<timebase>25</timebase>
							<ntsc>FALSE</ntsc>
						</rate>
						<start>24872</start>
						<end>26291</end>
						<in>95789</in>
						<out>97208</out>
						<pproTicksIn>973277544960000</pproTicksIn>
						<pproTicksOut>987695493120000</pproTicksOut>
						<file id="file-56"/>
						<sourcetrack>
							<mediatype>audio</mediatype>
							<trackindex>1</trackindex>
						</sourcetrack>
						<logginginfo>
							<description></description>
							<scene></scene>
							<shottake></shottake>
							<lognote></lognote>
						</logginginfo>
						<labels>
							<label2>Caribbean</label2>
						</labels>
					</clipitem>
					<clipitem id="clipitem-1252" premiereChannelType="mono">
						<masterclipid>masterclip-60</masterclipid>
						<name>Stian Sandø_01.wav</name>
						<enabled>TRUE</enabled>
						<duration>171138</duration>
						<rate>
							<timebase>25</timebase>
							<ntsc>FALSE</ntsc>
						</rate>
						<start>26291</start>
						<end>26387</end>
						<in>97273</in>
						<out>97369</out>
						<pproTicksIn>988355934720000</pproTicksIn>
						<pproTicksOut>989331356160000</pproTicksOut>
						<file id="file-56"/>
						<sourcetrack>
							<mediatype>audio</mediatype>
							<trackindex>1</trackindex>
						</sourcetrack>
						<logginginfo>
							<description></description>
							<scene></scene>
							<shottake></shottake>
							<lognote></lognote>
						</logginginfo>
						<labels>
							<label2>Caribbean</label2>
						</labels>
					</clipitem>
					<clipitem id="clipitem-1253" premiereChannelType="mono">
						<masterclipid>masterclip-60</masterclipid>
						<name>Stian Sandø_01.wav</name>
						<enabled>TRUE</enabled>
						<duration>171138</duration>
						<rate>
							<timebase>25</timebase>
							<ntsc>FALSE</ntsc>
						</rate>
						<start>26387</start>
						<end>27111</end>
						<in>97523</in>
						<out>98247</out>
						<pproTicksIn>990896094720000</pproTicksIn>
						<pproTicksOut>998252398080000</pproTicksOut>
						<file id="file-56"/>
						<sourcetrack>
							<mediatype>audio</mediatype>
							<trackindex>1</trackindex>
						</sourcetrack>
						<logginginfo>
							<description></description>
							<scene></scene>
							<shottake></shottake>
							<lognote></lognote>
						</logginginfo>
						<labels>
							<label2>Caribbean</label2>
						</labels>
					</clipitem>
					<clipitem id="clipitem-1254" premiereChannelType="mono">
						<masterclipid>masterclip-60</masterclipid>
						<name>Stian Sandø_01.wav</name>
						<enabled>TRUE</enabled>
						<duration>171138</duration>
						<rate>
							<timebase>25</timebase>
							<ntsc>FALSE</ntsc>
						</rate>
						<start>27111</start>
						<end>27316</end>
						<in>98260</in>
						<out>98465</out>
						<pproTicksIn>998384486400000</pproTicksIn>
						<pproTicksOut>1000467417600000</pproTicksOut>
						<file id="file-56"/>
						<sourcetrack>
							<mediatype>audio</mediatype>
							<trackindex>1</trackindex>
						</sourcetrack>
						<logginginfo>
							<description></description>
							<scene></scene>
							<shottake></shottake>
							<lognote></lognote>
						</logginginfo>
						<labels>
							<label2>Caribbean</label2>
						</labels>
					</clipitem>
					<clipitem id="clipitem-1255" premiereChannelType="mono">
						<masterclipid>masterclip-60</masterclipid>
						<name>Stian Sandø_01.wav</name>
						<enabled>TRUE</enabled>
						<duration>171138</duration>
						<rate>
							<timebase>25</timebase>
							<ntsc>FALSE</ntsc>
						</rate>
						<start>27316</start>
						<end>27702</end>
						<in>98958</in>
						<out>99344</out>
						<pproTicksIn>1005476613120000</pproTicksIn>
						<pproTicksOut>1009398620160000</pproTicksOut>
						<file id="file-56"/>
						<sourcetrack>
							<mediatype>audio</mediatype>
							<trackindex>1</trackindex>
						</sourcetrack>
						<logginginfo>
							<description></description>
							<scene></scene>
							<shottake></shottake>
							<lognote></lognote>
						</logginginfo>
						<labels>
							<label2>Caribbean</label2>
						</labels>
					</clipitem>
					<clipitem id="clipitem-1256" premiereChannelType="mono">
						<masterclipid>masterclip-60</masterclipid>
						<name>Stian Sandø_01.wav</name>
						<enabled>TRUE</enabled>
						<duration>171138</duration>
						<rate>
							<timebase>25</timebase>
							<ntsc>FALSE</ntsc>
						</rate>
						<start>27702</start>
						<end>27789</end>
						<in>99640</in>
						<out>99727</out>
						<pproTicksIn>1012406169600000</pproTicksIn>
						<pproTicksOut>1013290145280000</pproTicksOut>
						<file id="file-56"/>
						<sourcetrack>
							<mediatype>audio</mediatype>
							<trackindex>1</trackindex>
						</sourcetrack>
						<logginginfo>
							<description></description>
							<scene></scene>
							<shottake></shottake>
							<lognote></lognote>
						</logginginfo>
						<labels>
							<label2>Caribbean</label2>
						</labels>
					</clipitem>
					<clipitem id="clipitem-1257" premiereChannelType="mono">
						<masterclipid>masterclip-60</masterclipid>
						<name>Stian Sandø_01.wav</name>
						<enabled>TRUE</enabled>
						<duration>171138</duration>
						<rate>
							<timebase>25</timebase>
							<ntsc>FALSE</ntsc>
						</rate>
						<start>27789</start>
						<end>29601</end>
						<in>99831</in>
						<out>101643</out>
						<pproTicksIn>1014346851840000</pproTicksIn>
						<pproTicksOut>1032757931520000</pproTicksOut>
						<file id="file-56"/>
						<sourcetrack>
							<mediatype>audio</mediatype>
							<trackindex>1</trackindex>
						</sourcetrack>
						<logginginfo>
							<description></description>
							<scene></scene>
							<shottake></shottake>
							<lognote></lognote>
						</logginginfo>
						<labels>
							<label2>Caribbean</label2>
						</labels>
					</clipitem>
					<clipitem id="clipitem-1258" premiereChannelType="mono">
						<masterclipid>masterclip-60</masterclipid>
						<name>Stian Sandø_01.wav</name>
						<enabled>TRUE</enabled>
						<duration>171138</duration>
						<rate>
							<timebase>25</timebase>
							<ntsc>FALSE</ntsc>
						</rate>
						<start>29601</start>
						<end>29693</end>
						<in>102540</in>
						<out>102632</out>
						<pproTicksIn>1041872025600000</pproTicksIn>
						<pproTicksOut>1042806804480000</pproTicksOut>
						<file id="file-56"/>
						<sourcetrack>
							<mediatype>audio</mediatype>
							<trackindex>1</trackindex>
						</sourcetrack>
						<logginginfo>
							<description></description>
							<scene></scene>
							<shottake></shottake>
							<lognote></lognote>
						</logginginfo>
						<labels>
							<label2>Caribbean</label2>
						</labels>
					</clipitem>
					<clipitem id="clipitem-1259" premiereChannelType="mono">
						<masterclipid>masterclip-60</masterclipid>
						<name>Stian Sandø_01.wav</name>
						<enabled>TRUE</enabled>
						<duration>171138</duration>
						<rate>
							<timebase>25</timebase>
							<ntsc>FALSE</ntsc>
						</rate>
						<start>29693</start>
						<end>29760</end>
						<in>103317</in>
						<out>103384</out>
						<pproTicksIn>1049766842880000</pproTicksIn>
						<pproTicksOut>1050447605760000</pproTicksOut>
						<file id="file-56"/>
						<sourcetrack>
							<mediatype>audio</mediatype>
							<trackindex>1</trackindex>
						</sourcetrack>
						<logginginfo>
							<description></description>
							<scene></scene>
							<shottake></shottake>
							<lognote></lognote>
						</logginginfo>
						<labels>
							<label2>Caribbean</label2>
						</labels>
					</clipitem>
					<clipitem id="clipitem-1260" premiereChannelType="mono">
						<masterclipid>masterclip-60</masterclipid>
						<name>Stian Sandø_01.wav</name>
						<enabled>TRUE</enabled>
						<duration>171138</duration>
						<rate>
							<timebase>25</timebase>
							<ntsc>FALSE</ntsc>
						</rate>
						<start>29760</start>
						<end>29774</end>
						<in>103438</in>
						<out>103452</out>
						<pproTicksIn>1050996280320000</pproTicksIn>
						<pproTicksOut>1051138529280000</pproTicksOut>
						<file id="file-56"/>
						<sourcetrack>
							<mediatype>audio</mediatype>
							<trackindex>1</trackindex>
						</sourcetrack>
						<logginginfo>
							<description></description>
							<scene></scene>
							<shottake></shottake>
							<lognote></lognote>
						</logginginfo>
						<labels>
							<label2>Caribbean</label2>
						</labels>
					</clipitem>
					<clipitem id="clipitem-1261" premiereChannelType="mono">
						<masterclipid>masterclip-60</masterclipid>
						<name>Stian Sandø_01.wav</name>
						<enabled>TRUE</enabled>
						<duration>171138</duration>
						<rate>
							<timebase>25</timebase>
							<ntsc>FALSE</ntsc>
						</rate>
						<start>29774</start>
						<end>29865</end>
						<in>107326</in>
						<out>107417</out>
						<pproTicksIn>1090500848640000</pproTicksIn>
						<pproTicksOut>1091425466880000</pproTicksOut>
						<file id="file-56"/>
						<sourcetrack>
							<mediatype>audio</mediatype>
							<trackindex>1</trackindex>
						</sourcetrack>
						<logginginfo>
							<description></description>
							<scene></scene>
							<shottake></shottake>
							<lognote></lognote>
						</logginginfo>
						<labels>
							<label2>Caribbean</label2>
						</labels>
					</clipitem>
					<clipitem id="clipitem-1262" premiereChannelType="mono">
						<masterclipid>masterclip-60</masterclipid>
						<name>Stian Sandø_01.wav</name>
						<enabled>TRUE</enabled>
						<duration>171138</duration>
						<rate>
							<timebase>25</timebase>
							<ntsc>FALSE</ntsc>
						</rate>
						<start>29865</start>
						<end>30769</end>
						<in>107708</in>
						<out>108612</out>
						<pproTicksIn>1094382213120000</pproTicksIn>
						<pproTicksOut>1103567431680000</pproTicksOut>
						<file id="file-56"/>
						<sourcetrack>
							<mediatype>audio</mediatype>
							<trackindex>1</trackindex>
						</sourcetrack>
						<logginginfo>
							<description></description>
							<scene></scene>
							<shottake></shottake>
							<lognote></lognote>
						</logginginfo>
						<labels>
							<label2>Caribbean</label2>
						</labels>
					</clipitem>
					<clipitem id="clipitem-1263" premiereChannelType="mono">
						<masterclipid>masterclip-60</masterclipid>
						<name>Stian Sandø_01.wav</name>
						<enabled>TRUE</enabled>
						<duration>171138</duration>
						<rate>
							<timebase>25</timebase>
							<ntsc>FALSE</ntsc>
						</rate>
						<start>30769</start>
						<end>30880</end>
						<in>108644</in>
						<out>108755</out>
						<pproTicksIn>1103892572160000</pproTicksIn>
						<pproTicksOut>1105020403200000</pproTicksOut>
						<file id="file-56"/>
						<sourcetrack>
							<mediatype>audio</mediatype>
							<trackindex>1</trackindex>
						</sourcetrack>
						<logginginfo>
							<description></description>
							<scene></scene>
							<shottake></shottake>
							<lognote></lognote>
						</logginginfo>
						<labels>
							<label2>Caribbean</label2>
						</labels>
					</clipitem>
					<clipitem id="clipitem-1264" premiereChannelType="mono">
						<masterclipid>masterclip-60</masterclipid>
						<name>Stian Sandø_01.wav</name>
						<enabled>TRUE</enabled>
						<duration>171138</duration>
						<rate>
							<timebase>25</timebase>
							<ntsc>FALSE</ntsc>
						</rate>
						<start>30880</start>
						<end>31513</end>
						<in>108776</in>
						<out>109409</out>
						<pproTicksIn>1105233776640000</pproTicksIn>
						<pproTicksOut>1111665461760000</pproTicksOut>
						<file id="file-56"/>
						<sourcetrack>
							<mediatype>audio</mediatype>
							<trackindex>1</trackindex>
						</sourcetrack>
						<logginginfo>
							<description></description>
							<scene></scene>
							<shottake></shottake>
							<lognote></lognote>
						</logginginfo>
						<labels>
							<label2>Caribbean</label2>
						</labels>
					</clipitem>
					<clipitem id="clipitem-1265" premiereChannelType="mono">
						<masterclipid>masterclip-60</masterclipid>
						<name>Stian Sandø_01.wav</name>
						<enabled>TRUE</enabled>
						<duration>171138</duration>
						<rate>
							<timebase>25</timebase>
							<ntsc>FALSE</ntsc>
						</rate>
						<start>31513</start>
						<end>31909</end>
						<in>109447</in>
						<out>109843</out>
						<pproTicksIn>1112051566080000</pproTicksIn>
						<pproTicksOut>1116075179520000</pproTicksOut>
						<file id="file-56"/>
						<sourcetrack>
							<mediatype>audio</mediatype>
							<trackindex>1</trackindex>
						</sourcetrack>
						<logginginfo>
							<description></description>
							<scene></scene>
							<shottake></shottake>
							<lognote></lognote>
						</logginginfo>
						<labels>
							<label2>Caribbean</label2>
						</labels>
					</clipitem>
					<clipitem id="clipitem-1266" premiereChannelType="mono">
						<masterclipid>masterclip-60</masterclipid>
						<name>Stian Sandø_01.wav</name>
						<enabled>TRUE</enabled>
						<duration>171138</duration>
						<rate>
							<timebase>25</timebase>
							<ntsc>FALSE</ntsc>
						</rate>
						<start>31909</start>
						<end>32128</end>
						<in>109926</in>
						<out>110145</out>
						<pproTicksIn>1116918512640000</pproTicksIn>
						<pproTicksOut>1119143692800000</pproTicksOut>
						<file id="file-56"/>
						<sourcetrack>
							<mediatype>audio</mediatype>
							<trackindex>1</trackindex>
						</sourcetrack>
						<logginginfo>
							<description></description>
							<scene></scene>
							<shottake></shottake>
							<lognote></lognote>
						</logginginfo>
						<labels>
							<label2>Caribbean</label2>
						</labels>
					</clipitem>
					<clipitem id="clipitem-1267" premiereChannelType="mono">
						<masterclipid>masterclip-60</masterclipid>
						<name>Stian Sandø_01.wav</name>
						<enabled>TRUE</enabled>
						<duration>171138</duration>
						<rate>
							<timebase>25</timebase>
							<ntsc>FALSE</ntsc>
						</rate>
						<start>32128</start>
						<end>32853</end>
						<in>111277</in>
						<out>112002</out>
						<pproTicksIn>1130645537280000</pproTicksIn>
						<pproTicksOut>1138012001280000</pproTicksOut>
						<file id="file-56"/>
						<sourcetrack>
							<mediatype>audio</mediatype>
							<trackindex>1</trackindex>
						</sourcetrack>
						<logginginfo>
							<description></description>
							<scene></scene>
							<shottake></shottake>
							<lognote></lognote>
						</logginginfo>
						<labels>
							<label2>Caribbean</label2>
						</labels>
					</clipitem>
					<clipitem id="clipitem-1268" premiereChannelType="mono">
						<masterclipid>masterclip-60</masterclipid>
						<name>Stian Sandø_01.wav</name>
						<enabled>TRUE</enabled>
						<duration>171138</duration>
						<rate>
							<timebase>25</timebase>
							<ntsc>FALSE</ntsc>
						</rate>
						<start>32853</start>
						<end>32890</end>
						<in>112002</in>
						<out>112039</out>
						<pproTicksIn>1138012001280000</pproTicksIn>
						<pproTicksOut>1138387944960000</pproTicksOut>
						<file id="file-56"/>
						<sourcetrack>
							<mediatype>audio</mediatype>
							<trackindex>1</trackindex>
						</sourcetrack>
						<logginginfo>
							<description></description>
							<scene></scene>
							<shottake></shottake>
							<lognote></lognote>
						</logginginfo>
						<labels>
							<label2>Caribbean</label2>
						</labels>
					</clipitem>
					<clipitem id="clipitem-1269" premiereChannelType="mono">
						<masterclipid>masterclip-60</masterclipid>
						<name>Stian Sandø_01.wav</name>
						<enabled>TRUE</enabled>
						<duration>171138</duration>
						<rate>
							<timebase>25</timebase>
							<ntsc>FALSE</ntsc>
						</rate>
						<start>32890</start>
						<end>33281</end>
						<in>115277</in>
						<out>115668</out>
						<pproTicksIn>1171288097280000</pproTicksIn>
						<pproTicksOut>1175260907520000</pproTicksOut>
						<file id="file-56"/>
						<sourcetrack>
							<mediatype>audio</mediatype>
							<trackindex>1</trackindex>
						</sourcetrack>
						<logginginfo>
							<description></description>
							<scene></scene>
							<shottake></shottake>
							<lognote></lognote>
						</logginginfo>
						<labels>
							<label2>Caribbean</label2>
						</labels>
					</clipitem>
					<clipitem id="clipitem-1270" premiereChannelType="mono">
						<masterclipid>masterclip-60</masterclipid>
						<name>Stian Sandø_01.wav</name>
						<enabled>TRUE</enabled>
						<duration>171138</duration>
						<rate>
							<timebase>25</timebase>
							<ntsc>FALSE</ntsc>
						</rate>
						<start>33281</start>
						<end>33357</end>
						<in>116203</in>
						<out>116279</out>
						<pproTicksIn>1180696849920000</pproTicksIn>
						<pproTicksOut>1181469058560000</pproTicksOut>
						<file id="file-56"/>
						<sourcetrack>
							<mediatype>audio</mediatype>
							<trackindex>1</trackindex>
						</sourcetrack>
						<logginginfo>
							<description></description>
							<scene></scene>
							<shottake></shottake>
							<lognote></lognote>
						</logginginfo>
						<labels>
							<label2>Caribbean</label2>
						</labels>
					</clipitem>
					<clipitem id="clipitem-1271" premiereChannelType="mono">
						<masterclipid>masterclip-60</masterclipid>
						<name>Stian Sandø_01.wav</name>
						<enabled>TRUE</enabled>
						<duration>171138</duration>
						<rate>
							<timebase>25</timebase>
							<ntsc>FALSE</ntsc>
						</rate>
						<start>33357</start>
						<end>33465</end>
						<in>116298</in>
						<out>116406</out>
						<pproTicksIn>1181662110720000</pproTicksIn>
						<pproTicksOut>1182759459840000</pproTicksOut>
						<file id="file-56"/>
						<sourcetrack>
							<mediatype>audio</mediatype>
							<trackindex>1</trackindex>
						</sourcetrack>
						<logginginfo>
							<description></description>
							<scene></scene>
							<shottake></shottake>
							<lognote></lognote>
						</logginginfo>
						<labels>
							<label2>Caribbean</label2>
						</labels>
					</clipitem>
					<clipitem id="clipitem-1272" premiereChannelType="mono">
						<masterclipid>masterclip-60</masterclipid>
						<name>Stian Sandø_01.wav</name>
						<enabled>TRUE</enabled>
						<duration>171138</duration>
						<rate>
							<timebase>25</timebase>
							<ntsc>FALSE</ntsc>
						</rate>
						<start>33465</start>
						<end>33766</end>
						<in>116510</in>
						<out>116811</out>
						<pproTicksIn>1183816166400000</pproTicksIn>
						<pproTicksOut>1186874519040000</pproTicksOut>
						<file id="file-56"/>
						<sourcetrack>
							<mediatype>audio</mediatype>
							<trackindex>1</trackindex>
						</sourcetrack>
						<logginginfo>
							<description></description>
							<scene></scene>
							<shottake></shottake>
							<lognote></lognote>
						</logginginfo>
						<labels>
							<label2>Caribbean</label2>
						</labels>
					</clipitem>
					<clipitem id="clipitem-1273" premiereChannelType="mono">
						<masterclipid>masterclip-60</masterclipid>
						<name>Stian Sandø_01.wav</name>
						<enabled>TRUE</enabled>
						<duration>171138</duration>
						<rate>
							<timebase>25</timebase>
							<ntsc>FALSE</ntsc>
						</rate>
						<start>33766</start>
						<end>33992</end>
						<in>116811</in>
						<out>117037</out>
						<pproTicksIn>1186874519040000</pproTicksIn>
						<pproTicksOut>1189170823680000</pproTicksOut>
						<file id="file-56"/>
						<sourcetrack>
							<mediatype>audio</mediatype>
							<trackindex>1</trackindex>
						</sourcetrack>
						<logginginfo>
							<description></description>
							<scene></scene>
							<shottake></shottake>
							<lognote></lognote>
						</logginginfo>
						<labels>
							<label2>Caribbean</label2>
						</labels>
					</clipitem>
					<clipitem id="clipitem-1274" premiereChannelType="mono">
						<masterclipid>masterclip-60</masterclipid>
						<name>Stian Sandø_01.wav</name>
						<enabled>TRUE</enabled>
						<duration>171138</duration>
						<rate>
							<timebase>25</timebase>
							<ntsc>FALSE</ntsc>
						</rate>
						<start>33992</start>
						<end>34035</end>
						<in>117226</in>
						<out>117269</out>
						<pproTicksIn>1191091184640000</pproTicksIn>
						<pproTicksOut>1191528092160000</pproTicksOut>
						<file id="file-56"/>
						<sourcetrack>
							<mediatype>audio</mediatype>
							<trackindex>1</trackindex>
						</sourcetrack>
						<logginginfo>
							<description></description>
							<scene></scene>
							<shottake></shottake>
							<lognote></lognote>
						</logginginfo>
						<labels>
							<label2>Caribbean</label2>
						</labels>
					</clipitem>
					<clipitem id="clipitem-1275" premiereChannelType="mono">
						<masterclipid>masterclip-60</masterclipid>
						<name>Stian Sandø_01.wav</name>
						<enabled>TRUE</enabled>
						<duration>171138</duration>
						<rate>
							<timebase>25</timebase>
							<ntsc>FALSE</ntsc>
						</rate>
						<start>34035</start>
						<end>34790</end>
						<in>117633</in>
						<out>118388</out>
						<pproTicksIn>1195226565120000</pproTicksIn>
						<pproTicksOut>1202897848320000</pproTicksOut>
						<file id="file-56"/>
						<sourcetrack>
							<mediatype>audio</mediatype>
							<trackindex>1</trackindex>
						</sourcetrack>
						<logginginfo>
							<description></description>
							<scene></scene>
							<shottake></shottake>
							<lognote></lognote>
						</logginginfo>
						<labels>
							<label2>Caribbean</label2>
						</labels>
					</clipitem>
					<clipitem id="clipitem-1276" premiereChannelType="mono">
						<masterclipid>masterclip-60</masterclipid>
						<name>Stian Sandø_01.wav</name>
						<enabled>TRUE</enabled>
						<duration>171138</duration>
						<rate>
							<timebase>25</timebase>
							<ntsc>FALSE</ntsc>
						</rate>
						<start>34790</start>
						<end>35299</end>
						<in>118612</in>
						<out>119121</out>
						<pproTicksIn>1205173831680000</pproTicksIn>
						<pproTicksOut>1210345597440000</pproTicksOut>
						<file id="file-56"/>
						<sourcetrack>
							<mediatype>audio</mediatype>
							<trackindex>1</trackindex>
						</sourcetrack>
						<logginginfo>
							<description></description>
							<scene></scene>
							<shottake></shottake>
							<lognote></lognote>
						</logginginfo>
						<labels>
							<label2>Caribbean</label2>
						</labels>
					</clipitem>
					<clipitem id="clipitem-1277" premiereChannelType="mono">
						<masterclipid>masterclip-60</masterclipid>
						<name>Stian Sandø_01.wav</name>
						<enabled>TRUE</enabled>
						<duration>171138</duration>
						<rate>
							<timebase>25</timebase>
							<ntsc>FALSE</ntsc>
						</rate>
						<start>35299</start>
						<end>35672</end>
						<in>119201</in>
						<out>119574</out>
						<pproTicksIn>1211158448640000</pproTicksIn>
						<pproTicksOut>1214948367360000</pproTicksOut>
						<file id="file-56"/>
						<sourcetrack>
							<mediatype>audio</mediatype>
							<trackindex>1</trackindex>
						</sourcetrack>
						<logginginfo>
							<description></description>
							<scene></scene>
							<shottake></shottake>
							<lognote></lognote>
						</logginginfo>
						<labels>
							<label2>Caribbean</label2>
						</labels>
					</clipitem>
					<clipitem id="clipitem-1278" premiereChannelType="mono">
						<masterclipid>masterclip-60</masterclipid>
						<name>Stian Sandø_01.wav</name>
						<enabled>TRUE</enabled>
						<duration>171138</duration>
						<rate>
							<timebase>25</timebase>
							<ntsc>FALSE</ntsc>
						</rate>
						<start>35672</start>
						<end>36434</end>
						<in>119583</in>
						<out>120345</out>
						<pproTicksIn>1215039813120000</pproTicksIn>
						<pproTicksOut>1222782220800000</pproTicksOut>
						<file id="file-56"/>
						<sourcetrack>
							<mediatype>audio</mediatype>
							<trackindex>1</trackindex>
						</sourcetrack>
						<logginginfo>
							<description></description>
							<scene></scene>
							<shottake></shottake>
							<lognote></lognote>
						</logginginfo>
						<labels>
							<label2>Caribbean</label2>
						</labels>
					</clipitem>
					<clipitem id="clipitem-1279" premiereChannelType="mono">
						<masterclipid>masterclip-60</masterclipid>
						<name>Stian Sandø_01.wav</name>
						<enabled>TRUE</enabled>
						<duration>171138</duration>
						<rate>
							<timebase>25</timebase>
							<ntsc>FALSE</ntsc>
						</rate>
						<start>36434</start>
						<end>36524</end>
						<in>120539</in>
						<out>120629</out>
						<pproTicksIn>1224753384960000</pproTicksIn>
						<pproTicksOut>1225667842560000</pproTicksOut>
						<file id="file-56"/>
						<sourcetrack>
							<mediatype>audio</mediatype>
							<trackindex>1</trackindex>
						</sourcetrack>
						<logginginfo>
							<description></description>
							<scene></scene>
							<shottake></shottake>
							<lognote></lognote>
						</logginginfo>
						<labels>
							<label2>Caribbean</label2>
						</labels>
					</clipitem>
					<clipitem id="clipitem-1280" premiereChannelType="mono">
						<masterclipid>masterclip-60</masterclipid>
						<name>Stian Sandø_01.wav</name>
						<enabled>TRUE</enabled>
						<duration>171138</duration>
						<rate>
							<timebase>25</timebase>
							<ntsc>FALSE</ntsc>
						</rate>
						<start>36524</start>
						<end>37155</end>
						<in>124899</in>
						<out>125530</out>
						<pproTicksIn>1269053775360000</pproTicksIn>
						<pproTicksOut>1275465139200000</pproTicksOut>
						<file id="file-56"/>
						<sourcetrack>
							<mediatype>audio</mediatype>
							<trackindex>1</trackindex>
						</sourcetrack>
						<logginginfo>
							<description></description>
							<scene></scene>
							<shottake></shottake>
							<lognote></lognote>
						</logginginfo>
						<labels>
							<label2>Caribbean</label2>
						</labels>
					</clipitem>
					<clipitem id="clipitem-1281" premiereChannelType="mono">
						<masterclipid>masterclip-60</masterclipid>
						<name>Stian Sandø_01.wav</name>
						<enabled>TRUE</enabled>
						<duration>171138</duration>
						<rate>
							<timebase>25</timebase>
							<ntsc>FALSE</ntsc>
						</rate>
						<start>37732</start>
						<end>40503</end>
						<in>126107</in>
						<out>128878</out>
						<pproTicksIn>1281327828480000</pproTicksIn>
						<pproTicksOut>1309482961920000</pproTicksOut>
						<file id="file-56"/>
						<sourcetrack>
							<mediatype>audio</mediatype>
							<trackindex>1</trackindex>
						</sourcetrack>
						<logginginfo>
							<description></description>
							<scene></scene>
							<shottake></shottake>
							<lognote></lognote>
						</logginginfo>
						<labels>
							<label2>Caribbean</label2>
						</labels>
					</clipitem>
					<clipitem id="clipitem-1282" premiereChannelType="mono">
						<masterclipid>masterclip-60</masterclipid>
						<name>Stian Sandø_01.wav</name>
						<enabled>TRUE</enabled>
						<duration>171138</duration>
						<rate>
							<timebase>25</timebase>
							<ntsc>FALSE</ntsc>
						</rate>
						<start>40503</start>
						<end>40839</end>
						<in>128926</in>
						<out>129262</out>
						<pproTicksIn>1309970672640000</pproTicksIn>
						<pproTicksOut>1313384647680000</pproTicksOut>
						<file id="file-56"/>
						<sourcetrack>
							<mediatype>audio</mediatype>
							<trackindex>1</trackindex>
						</sourcetrack>
						<logginginfo>
							<description></description>
							<scene></scene>
							<shottake></shottake>
							<lognote></lognote>
						</logginginfo>
						<labels>
							<label2>Caribbean</label2>
						</labels>
					</clipitem>
					<clipitem id="clipitem-1283" premiereChannelType="mono">
						<masterclipid>masterclip-60</masterclipid>
						<name>Stian Sandø_01.wav</name>
						<enabled>TRUE</enabled>
						<duration>171138</duration>
						<rate>
							<timebase>25</timebase>
							<ntsc>FALSE</ntsc>
						</rate>
						<start>40839</start>
						<end>41006</end>
						<in>129262</in>
						<out>129429</out>
						<pproTicksIn>1313384647680000</pproTicksIn>
						<pproTicksOut>1315081474560000</pproTicksOut>
						<file id="file-56"/>
						<sourcetrack>
							<mediatype>audio</mediatype>
							<trackindex>1</trackindex>
						</sourcetrack>
						<logginginfo>
							<description></description>
							<scene></scene>
							<shottake></shottake>
							<lognote></lognote>
						</logginginfo>
						<labels>
							<label2>Caribbean</label2>
						</labels>
					</clipitem>
					<clipitem id="clipitem-1284" premiereChannelType="mono">
						<masterclipid>masterclip-60</masterclipid>
						<name>Stian Sandø_01.wav</name>
						<enabled>TRUE</enabled>
						<duration>171138</duration>
						<rate>
							<timebase>25</timebase>
							<ntsc>FALSE</ntsc>
						</rate>
						<start>41006</start>
						<end>41144</end>
						<in>129476</in>
						<out>129614</out>
						<pproTicksIn>1315559024640000</pproTicksIn>
						<pproTicksOut>1316961192960000</pproTicksOut>
						<file id="file-56"/>
						<sourcetrack>
							<mediatype>audio</mediatype>
							<trackindex>1</trackindex>
						</sourcetrack>
						<logginginfo>
							<description></description>
							<scene></scene>
							<shottake></shottake>
							<lognote></lognote>
						</logginginfo>
						<labels>
							<label2>Caribbean</label2>
						</labels>
					</clipitem>
					<clipitem id="clipitem-1285" premiereChannelType="mono">
						<masterclipid>masterclip-60</masterclipid>
						<name>Stian Sandø_01.wav</name>
						<enabled>TRUE</enabled>
						<duration>171138</duration>
						<rate>
							<timebase>25</timebase>
							<ntsc>FALSE</ntsc>
						</rate>
						<start>41144</start>
						<end>41720</end>
						<in>131417</in>
						<out>131993</out>
						<pproTicksIn>1335280826880000</pproTicksIn>
						<pproTicksOut>1341133355520000</pproTicksOut>
						<file id="file-56"/>
						<sourcetrack>
							<mediatype>audio</mediatype>
							<trackindex>1</trackindex>
						</sourcetrack>
						<logginginfo>
							<description></description>
							<scene></scene>
							<shottake></shottake>
							<lognote></lognote>
						</logginginfo>
						<labels>
							<label2>Caribbean</label2>
						</labels>
					</clipitem>
					<clipitem id="clipitem-1286" premiereChannelType="mono">
						<masterclipid>masterclip-60</masterclipid>
						<name>Stian Sandø_01.wav</name>
						<enabled>TRUE</enabled>
						<duration>171138</duration>
						<rate>
							<timebase>25</timebase>
							<ntsc>FALSE</ntsc>
						</rate>
						<start>41720</start>
						<end>42122</end>
						<in>132051</in>
						<out>132453</out>
						<pproTicksIn>1341722672640000</pproTicksIn>
						<pproTicksOut>1345807249920000</pproTicksOut>
						<file id="file-56"/>
						<sourcetrack>
							<mediatype>audio</mediatype>
							<trackindex>1</trackindex>
						</sourcetrack>
						<logginginfo>
							<description></description>
							<scene></scene>
							<shottake></shottake>
							<lognote></lognote>
						</logginginfo>
						<labels>
							<label2>Caribbean</label2>
						</labels>
					</clipitem>
					<clipitem id="clipitem-1287" premiereChannelType="mono">
						<masterclipid>masterclip-60</masterclipid>
						<name>Stian Sandø_01.wav</name>
						<enabled>TRUE</enabled>
						<duration>171138</duration>
						<rate>
							<timebase>25</timebase>
							<ntsc>FALSE</ntsc>
						</rate>
						<start>42122</start>
						<end>42277</end>
						<in>132657</in>
						<out>132812</out>
						<pproTicksIn>1347880020480000</pproTicksIn>
						<pproTicksOut>1349454919680000</pproTicksOut>
						<file id="file-56"/>
						<sourcetrack>
							<mediatype>audio</mediatype>
							<trackindex>1</trackindex>
						</sourcetrack>
						<logginginfo>
							<description></description>
							<scene></scene>
							<shottake></shottake>
							<lognote></lognote>
						</logginginfo>
						<labels>
							<label2>Caribbean</label2>
						</labels>
					</clipitem>
					<clipitem id="clipitem-1288" premiereChannelType="mono">
						<masterclipid>masterclip-60</masterclipid>
						<name>Stian Sandø_01.wav</name>
						<enabled>TRUE</enabled>
						<duration>171138</duration>
						<rate>
							<timebase>25</timebase>
							<ntsc>FALSE</ntsc>
						</rate>
						<start>42277</start>
						<end>42347</end>
						<in>133359</in>
						<out>133429</out>
						<pproTicksIn>1355012789760000</pproTicksIn>
						<pproTicksOut>1355724034560000</pproTicksOut>
						<file id="file-56"/>
						<sourcetrack>
							<mediatype>audio</mediatype>
							<trackindex>1</trackindex>
						</sourcetrack>
						<logginginfo>
							<description></description>
							<scene></scene>
							<shottake></shottake>
							<lognote></lognote>
						</logginginfo>
						<labels>
							<label2>Caribbean</label2>
						</labels>
					</clipitem>
					<clipitem id="clipitem-1289" premiereChannelType="mono">
						<masterclipid>masterclip-60</masterclipid>
						<name>Stian Sandø_01.wav</name>
						<enabled>TRUE</enabled>
						<duration>171138</duration>
						<rate>
							<timebase>25</timebase>
							<ntsc>FALSE</ntsc>
						</rate>
						<start>42347</start>
						<end>42499</end>
						<in>133852</in>
						<out>134004</out>
						<pproTicksIn>1360021985280000</pproTicksIn>
						<pproTicksOut>1361566402560000</pproTicksOut>
						<file id="file-56"/>
						<sourcetrack>
							<mediatype>audio</mediatype>
							<trackindex>1</trackindex>
						</sourcetrack>
						<logginginfo>
							<description></description>
							<scene></scene>
							<shottake></shottake>
							<lognote></lognote>
						</logginginfo>
						<labels>
							<label2>Caribbean</label2>
						</labels>
					</clipitem>
					<clipitem id="clipitem-1290" premiereChannelType="mono">
						<masterclipid>masterclip-60</masterclipid>
						<name>Stian Sandø_01.wav</name>
						<enabled>TRUE</enabled>
						<duration>171138</duration>
						<rate>
							<timebase>25</timebase>
							<ntsc>FALSE</ntsc>
						</rate>
						<start>42499</start>
						<end>42832</end>
						<in>134099</in>
						<out>134432</out>
						<pproTicksIn>1362531663360000</pproTicksIn>
						<pproTicksOut>1365915156480000</pproTicksOut>
						<file id="file-56"/>
						<sourcetrack>
							<mediatype>audio</mediatype>
							<trackindex>1</trackindex>
						</sourcetrack>
						<logginginfo>
							<description></description>
							<scene></scene>
							<shottake></shottake>
							<lognote></lognote>
						</logginginfo>
						<labels>
							<label2>Caribbean</label2>
						</labels>
					</clipitem>
					<clipitem id="clipitem-1291" premiereChannelType="mono">
						<masterclipid>masterclip-60</masterclipid>
						<name>Stian Sandø_01.wav</name>
						<enabled>TRUE</enabled>
						<duration>171138</duration>
						<rate>
							<timebase>25</timebase>
							<ntsc>FALSE</ntsc>
						</rate>
						<start>42832</start>
						<end>43282</end>
						<in>134992</in>
						<out>135442</out>
						<pproTicksIn>1371605114880000</pproTicksIn>
						<pproTicksOut>1376177402880000</pproTicksOut>
						<file id="file-56"/>
						<sourcetrack>
							<mediatype>audio</mediatype>
							<trackindex>1</trackindex>
						</sourcetrack>
						<logginginfo>
							<description></description>
							<scene></scene>
							<shottake></shottake>
							<lognote></lognote>
						</logginginfo>
						<labels>
							<label2>Caribbean</label2>
						</labels>
					</clipitem>
					<clipitem id="clipitem-1292" premiereChannelType="mono">
						<masterclipid>masterclip-60</masterclipid>
						<name>Stian Sandø_01.wav</name>
						<enabled>TRUE</enabled>
						<duration>171138</duration>
						<rate>
							<timebase>25</timebase>
							<ntsc>FALSE</ntsc>
						</rate>
						<start>43282</start>
						<end>43553</end>
						<in>135648</in>
						<out>135919</out>
						<pproTicksIn>1378270494720000</pproTicksIn>
						<pproTicksOut>1381024028160000</pproTicksOut>
						<file id="file-56"/>
						<sourcetrack>
							<mediatype>audio</mediatype>
							<trackindex>1</trackindex>
						</sourcetrack>
						<logginginfo>
							<description></description>
							<scene></scene>
							<shottake></shottake>
							<lognote></lognote>
						</logginginfo>
						<labels>
							<label2>Caribbean</label2>
						</labels>
					</clipitem>
					<clipitem id="clipitem-1293" premiereChannelType="mono">
						<masterclipid>masterclip-60</masterclipid>
						<name>Stian Sandø_01.wav</name>
						<enabled>TRUE</enabled>
						<duration>171138</duration>
						<rate>
							<timebase>25</timebase>
							<ntsc>FALSE</ntsc>
						</rate>
						<start>43553</start>
						<end>44385</end>
						<in>136003</in>
						<out>136835</out>
						<pproTicksIn>1381877521920000</pproTicksIn>
						<pproTicksOut>1390331174400000</pproTicksOut>
						<file id="file-56"/>
						<sourcetrack>
							<mediatype>audio</mediatype>
							<trackindex>1</trackindex>
						</sourcetrack>
						<logginginfo>
							<description></description>
							<scene></scene>
							<shottake></shottake>
							<lognote></lognote>
						</logginginfo>
						<labels>
							<label2>Caribbean</label2>
						</labels>
					</clipitem>
					<clipitem id="clipitem-1294" premiereChannelType="mono">
						<masterclipid>masterclip-60</masterclipid>
						<name>Stian Sandø_01.wav</name>
						<enabled>TRUE</enabled>
						<duration>171138</duration>
						<rate>
							<timebase>25</timebase>
							<ntsc>FALSE</ntsc>
						</rate>
						<start>44385</start>
						<end>44583</end>
						<in>137077</in>
						<out>137275</out>
						<pproTicksIn>1392790049280000</pproTicksIn>
						<pproTicksOut>1394801856000000</pproTicksOut>
						<file id="file-56"/>
						<sourcetrack>
							<mediatype>audio</mediatype>
							<trackindex>1</trackindex>
						</sourcetrack>
						<logginginfo>
							<description></description>
							<scene></scene>
							<shottake></shottake>
							<lognote></lognote>
						</logginginfo>
						<labels>
							<label2>Caribbean</label2>
						</labels>
					</clipitem>
					<clipitem id="clipitem-1295" premiereChannelType="mono">
						<masterclipid>masterclip-60</masterclipid>
						<name>Stian Sandø_01.wav</name>
						<enabled>TRUE</enabled>
						<duration>171138</duration>
						<rate>
							<timebase>25</timebase>
							<ntsc>FALSE</ntsc>
						</rate>
						<start>44583</start>
						<end>44650</end>
						<in>137376</in>
						<out>137443</out>
						<pproTicksIn>1395828080640000</pproTicksIn>
						<pproTicksOut>1396508843520000</pproTicksOut>
						<file id="file-56"/>
						<sourcetrack>
							<mediatype>audio</mediatype>
							<trackindex>1</trackindex>
						</sourcetrack>
						<logginginfo>
							<description></description>
							<scene></scene>
							<shottake></shottake>
							<lognote></lognote>
						</logginginfo>
						<labels>
							<label2>Caribbean</label2>
						</labels>
					</clipitem>
					<clipitem id="clipitem-1296" premiereChannelType="mono">
						<masterclipid>masterclip-60</masterclipid>
						<name>Stian Sandø_01.wav</name>
						<enabled>TRUE</enabled>
						<duration>171138</duration>
						<rate>
							<timebase>25</timebase>
							<ntsc>FALSE</ntsc>
						</rate>
						<start>44650</start>
						<end>45287</end>
						<in>137505</in>
						<out>138142</out>
						<pproTicksIn>1397138803200000</pproTicksIn>
						<pproTicksOut>1403611130880000</pproTicksOut>
						<file id="file-56"/>
						<sourcetrack>
							<mediatype>audio</mediatype>
							<trackindex>1</trackindex>
						</sourcetrack>
						<logginginfo>
							<description></description>
							<scene></scene>
							<shottake></shottake>
							<lognote></lognote>
						</logginginfo>
						<labels>
							<label2>Caribbean</label2>
						</labels>
					</clipitem>
					<clipitem id="clipitem-1297" premiereChannelType="mono">
						<masterclipid>masterclip-60</masterclipid>
						<name>Stian Sandø_01.wav</name>
						<enabled>TRUE</enabled>
						<duration>171138</duration>
						<rate>
							<timebase>25</timebase>
							<ntsc>FALSE</ntsc>
						</rate>
						<start>45287</start>
						<end>45692</end>
						<in>138274</in>
						<out>138679</out>
						<pproTicksIn>1404952335360000</pproTicksIn>
						<pproTicksOut>1409067394560000</pproTicksOut>
						<file id="file-56"/>
						<sourcetrack>
							<mediatype>audio</mediatype>
							<trackindex>1</trackindex>
						</sourcetrack>
						<logginginfo>
							<description></description>
							<scene></scene>
							<shottake></shottake>
							<lognote></lognote>
						</logginginfo>
						<labels>
							<label2>Caribbean</label2>
						</labels>
					</clipitem>
					<clipitem id="clipitem-1298" premiereChannelType="mono">
						<masterclipid>masterclip-60</masterclipid>
						<name>Stian Sandø_01.wav</name>
						<enabled>TRUE</enabled>
						<duration>171138</duration>
						<rate>
							<timebase>25</timebase>
							<ntsc>FALSE</ntsc>
						</rate>
						<start>45692</start>
						<end>45923</end>
						<in>138810</in>
						<out>139041</out>
						<pproTicksIn>1410398438400000</pproTicksIn>
						<pproTicksOut>1412745546240000</pproTicksOut>
						<file id="file-56"/>
						<sourcetrack>
							<mediatype>audio</mediatype>
							<trackindex>1</trackindex>
						</sourcetrack>
						<logginginfo>
							<description></description>
							<scene></scene>
							<shottake></shottake>
							<lognote></lognote>
						</logginginfo>
						<labels>
							<label2>Caribbean</label2>
						</labels>
					</clipitem>
					<clipitem id="clipitem-1299" premiereChannelType="mono">
						<masterclipid>masterclip-60</masterclipid>
						<name>Stian Sandø_01.wav</name>
						<enabled>TRUE</enabled>
						<duration>171138</duration>
						<rate>
							<timebase>25</timebase>
							<ntsc>FALSE</ntsc>
						</rate>
						<start>45923</start>
						<end>46349</end>
						<in>139073</in>
						<out>139499</out>
						<pproTicksIn>1413070686720000</pproTicksIn>
						<pproTicksOut>1417399119360000</pproTicksOut>
						<file id="file-56"/>
						<sourcetrack>
							<mediatype>audio</mediatype>
							<trackindex>1</trackindex>
						</sourcetrack>
						<logginginfo>
							<description></description>
							<scene></scene>
							<shottake></shottake>
							<lognote></lognote>
						</logginginfo>
						<labels>
							<label2>Caribbean</label2>
						</labels>
					</clipitem>
					<clipitem id="clipitem-1300" premiereChannelType="mono">
						<masterclipid>masterclip-60</masterclipid>
						<name>Stian Sandø_01.wav</name>
						<enabled>TRUE</enabled>
						<duration>171138</duration>
						<rate>
							<timebase>25</timebase>
							<ntsc>FALSE</ntsc>
						</rate>
						<start>46349</start>
						<end>46455</end>
						<in>159642</in>
						<out>159748</out>
						<pproTicksIn>1622064890880000</pproTicksIn>
						<pproTicksOut>1623141918720000</pproTicksOut>
						<file id="file-56"/>
						<sourcetrack>
							<mediatype>audio</mediatype>
							<trackindex>1</trackindex>
						</sourcetrack>
						<logginginfo>
							<description></description>
							<scene></scene>
							<shottake></shottake>
							<lognote></lognote>
						</logginginfo>
						<labels>
							<label2>Caribbean</label2>
						</labels>
					</clipitem>
					<clipitem id="clipitem-1301" premiereChannelType="mono">
						<masterclipid>masterclip-60</masterclipid>
						<name>Stian Sandø_01.wav</name>
						<enabled>TRUE</enabled>
						<duration>171138</duration>
						<rate>
							<timebase>25</timebase>
							<ntsc>FALSE</ntsc>
						</rate>
						<start>46455</start>
						<end>46911</end>
						<in>140048</in>
						<out>140504</out>
						<pproTicksIn>1422977310720000</pproTicksIn>
						<pproTicksOut>1427610562560000</pproTicksOut>
						<file id="file-56"/>
						<sourcetrack>
							<mediatype>audio</mediatype>
							<trackindex>1</trackindex>
						</sourcetrack>
						<logginginfo>
							<description></description>
							<scene></scene>
							<shottake></shottake>
							<lognote></lognote>
						</logginginfo>
						<labels>
							<label2>Caribbean</label2>
						</labels>
					</clipitem>
					<clipitem id="clipitem-1302" premiereChannelType="mono">
						<masterclipid>masterclip-60</masterclipid>
						<name>Stian Sandø_01.wav</name>
						<enabled>TRUE</enabled>
						<duration>171138</duration>
						<rate>
							<timebase>25</timebase>
							<ntsc>FALSE</ntsc>
						</rate>
						<start>46911</start>
						<end>47138</end>
						<in>140817</in>
						<out>141044</out>
						<pproTicksIn>1430790842880000</pproTicksIn>
						<pproTicksOut>1433097308160000</pproTicksOut>
						<file id="file-56"/>
						<sourcetrack>
							<mediatype>audio</mediatype>
							<trackindex>1</trackindex>
						</sourcetrack>
						<logginginfo>
							<description></description>
							<scene></scene>
							<shottake></shottake>
							<lognote></lognote>
						</logginginfo>
						<labels>
							<label2>Caribbean</label2>
						</labels>
					</clipitem>
					<clipitem id="clipitem-1303" premiereChannelType="mono">
						<masterclipid>masterclip-60</masterclipid>
						<name>Stian Sandø_01.wav</name>
						<enabled>TRUE</enabled>
						<duration>171138</duration>
						<rate>
							<timebase>25</timebase>
							<ntsc>FALSE</ntsc>
						</rate>
						<start>47138</start>
						<end>47335</end>
						<in>141203</in>
						<out>141400</out>
						<pproTicksIn>1434712849920000</pproTicksIn>
						<pproTicksOut>1436714496000000</pproTicksOut>
						<file id="file-56"/>
						<sourcetrack>
							<mediatype>audio</mediatype>
							<trackindex>1</trackindex>
						</sourcetrack>
						<logginginfo>
							<description></description>
							<scene></scene>
							<shottake></shottake>
							<lognote></lognote>
						</logginginfo>
						<labels>
							<label2>Caribbean</label2>
						</labels>
					</clipitem>
					<clipitem id="clipitem-1304" premiereChannelType="mono">
						<masterclipid>masterclip-60</masterclipid>
						<name>Stian Sandø_01.wav</name>
						<enabled>TRUE</enabled>
						<duration>171138</duration>
						<rate>
							<timebase>25</timebase>
							<ntsc>FALSE</ntsc>
						</rate>
						<start>47335</start>
						<end>47513</end>
						<in>141454</in>
						<out>141632</out>
						<pproTicksIn>1437263170560000</pproTicksIn>
						<pproTicksOut>1439071764480000</pproTicksOut>
						<file id="file-56"/>
						<sourcetrack>
							<mediatype>audio</mediatype>
							<trackindex>1</trackindex>
						</sourcetrack>
						<logginginfo>
							<description></description>
							<scene></scene>
							<shottake></shottake>
							<lognote></lognote>
						</logginginfo>
						<labels>
							<label2>Caribbean</label2>
						</labels>
					</clipitem>
					<clipitem id="clipitem-1305" premiereChannelType="mono">
						<masterclipid>masterclip-60</masterclipid>
						<name>Stian Sandø_01.wav</name>
						<enabled>TRUE</enabled>
						<duration>171138</duration>
						<rate>
							<timebase>25</timebase>
							<ntsc>FALSE</ntsc>
						</rate>
						<start>47513</start>
						<end>47723</end>
						<in>141671</in>
						<out>141881</out>
						<pproTicksIn>1439468029440000</pproTicksIn>
						<pproTicksOut>1441601763840000</pproTicksOut>
						<file id="file-56"/>
						<sourcetrack>
							<mediatype>audio</mediatype>
							<trackindex>1</trackindex>
						</sourcetrack>
						<logginginfo>
							<description></description>
							<scene></scene>
							<shottake></shottake>
							<lognote></lognote>
						</logginginfo>
						<labels>
							<label2>Caribbean</label2>
						</labels>
					</clipitem>
					<clipitem id="clipitem-1306" premiereChannelType="mono">
						<masterclipid>masterclip-60</masterclipid>
						<name>Stian Sandø_01.wav</name>
						<enabled>TRUE</enabled>
						<duration>171138</duration>
						<rate>
							<timebase>25</timebase>
							<ntsc>FALSE</ntsc>
						</rate>
						<start>47723</start>
						<end>48040</end>
						<in>141894</in>
						<out>142211</out>
						<pproTicksIn>1441733852160000</pproTicksIn>
						<pproTicksOut>1444954775040000</pproTicksOut>
						<file id="file-56"/>
						<sourcetrack>
							<mediatype>audio</mediatype>
							<trackindex>1</trackindex>
						</sourcetrack>
						<logginginfo>
							<description></description>
							<scene></scene>
							<shottake></shottake>
							<lognote></lognote>
						</logginginfo>
						<labels>
							<label2>Caribbean</label2>
						</labels>
					</clipitem>
					<clipitem id="clipitem-1307" premiereChannelType="mono">
						<masterclipid>masterclip-60</masterclipid>
						<name>Stian Sandø_01.wav</name>
						<enabled>TRUE</enabled>
						<duration>171138</duration>
						<rate>
							<timebase>25</timebase>
							<ntsc>FALSE</ntsc>
						</rate>
						<start>48040</start>
						<end>48766</end>
						<in>142351</in>
						<out>143077</out>
						<pproTicksIn>1446377264640000</pproTicksIn>
						<pproTicksOut>1453753889280000</pproTicksOut>
						<file id="file-56"/>
						<sourcetrack>
							<mediatype>audio</mediatype>
							<trackindex>1</trackindex>
						</sourcetrack>
						<logginginfo>
							<description></description>
							<scene></scene>
							<shottake></shottake>
							<lognote></lognote>
						</logginginfo>
						<labels>
							<label2>Caribbean</label2>
						</labels>
					</clipitem>
					<clipitem id="clipitem-1308" premiereChannelType="mono">
						<masterclipid>masterclip-60</masterclipid>
						<name>Stian Sandø_01.wav</name>
						<enabled>TRUE</enabled>
						<duration>171138</duration>
						<rate>
							<timebase>25</timebase>
							<ntsc>FALSE</ntsc>
						</rate>
						<start>48766</start>
						<end>49706</end>
						<in>143684</in>
						<out>144624</out>
						<pproTicksIn>1459921397760000</pproTicksIn>
						<pproTicksOut>1469472399360000</pproTicksOut>
						<file id="file-56"/>
						<sourcetrack>
							<mediatype>audio</mediatype>
							<trackindex>1</trackindex>
						</sourcetrack>
						<logginginfo>
							<description></description>
							<scene></scene>
							<shottake></shottake>
							<lognote></lognote>
						</logginginfo>
						<labels>
							<label2>Caribbean</label2>
						</labels>
					</clipitem>
					<clipitem id="clipitem-1309" premiereChannelType="mono">
						<masterclipid>masterclip-60</masterclipid>
						<name>Stian Sandø_01.wav</name>
						<enabled>TRUE</enabled>
						<duration>171138</duration>
						<rate>
							<timebase>25</timebase>
							<ntsc>FALSE</ntsc>
						</rate>
						<start>49706</start>
						<end>49762</end>
						<in>147186</in>
						<out>147242</out>
						<pproTicksIn>1495503959040000</pproTicksIn>
						<pproTicksOut>1496072954880000</pproTicksOut>
						<file id="file-56"/>
						<sourcetrack>
							<mediatype>audio</mediatype>
							<trackindex>1</trackindex>
						</sourcetrack>
						<logginginfo>
							<description></description>
							<scene></scene>
							<shottake></shottake>
							<lognote></lognote>
						</logginginfo>
						<labels>
							<label2>Caribbean</label2>
						</labels>
					</clipitem>
					<clipitem id="clipitem-1310" premiereChannelType="mono">
						<masterclipid>masterclip-60</masterclipid>
						<name>Stian Sandø_01.wav</name>
						<enabled>TRUE</enabled>
						<duration>171138</duration>
						<rate>
							<timebase>25</timebase>
							<ntsc>FALSE</ntsc>
						</rate>
						<start>49762</start>
						<end>49948</end>
						<in>153681</in>
						<out>153867</out>
						<pproTicksIn>1561497315840000</pproTicksIn>
						<pproTicksOut>1563387194880000</pproTicksOut>
						<file id="file-56"/>
						<sourcetrack>
							<mediatype>audio</mediatype>
							<trackindex>1</trackindex>
						</sourcetrack>
						<logginginfo>
							<description></description>
							<scene></scene>
							<shottake></shottake>
							<lognote></lognote>
						</logginginfo>
						<labels>
							<label2>Caribbean</label2>
						</labels>
					</clipitem>
					<clipitem id="clipitem-1311" premiereChannelType="mono">
						<masterclipid>masterclip-60</masterclipid>
						<name>Stian Sandø_01.wav</name>
						<enabled>TRUE</enabled>
						<duration>171138</duration>
						<rate>
							<timebase>25</timebase>
							<ntsc>FALSE</ntsc>
						</rate>
						<start>49948</start>
						<end>50390</end>
						<in>153946</in>
						<out>154388</out>
						<pproTicksIn>1564189885440000</pproTicksIn>
						<pproTicksOut>1568680888320000</pproTicksOut>
						<file id="file-56"/>
						<sourcetrack>
							<mediatype>audio</mediatype>
							<trackindex>1</trackindex>
						</sourcetrack>
						<logginginfo>
							<description></description>
							<scene></scene>
							<shottake></shottake>
							<lognote></lognote>
						</logginginfo>
						<labels>
							<label2>Caribbean</label2>
						</labels>
					</clipitem>
					<clipitem id="clipitem-1312" premiereChannelType="mono">
						<masterclipid>masterclip-60</masterclipid>
						<name>Stian Sandø_01.wav</name>
						<enabled>TRUE</enabled>
						<duration>171138</duration>
						<rate>
							<timebase>25</timebase>
							<ntsc>FALSE</ntsc>
						</rate>
						<start>50390</start>
						<end>50983</end>
						<in>156215</in>
						<out>156808</out>
						<pproTicksIn>1587244377600000</pproTicksIn>
						<pproTicksOut>1593269637120000</pproTicksOut>
						<file id="file-56"/>
						<sourcetrack>
							<mediatype>audio</mediatype>
							<trackindex>1</trackindex>
						</sourcetrack>
						<logginginfo>
							<description></description>
							<scene></scene>
							<shottake></shottake>
							<lognote></lognote>
						</logginginfo>
						<labels>
							<label2>Caribbean</label2>
						</labels>
					</clipitem>
					<clipitem id="clipitem-1313" premiereChannelType="mono">
						<masterclipid>masterclip-60</masterclipid>
						<name>Stian Sandø_01.wav</name>
						<enabled>TRUE</enabled>
						<duration>171138</duration>
						<rate>
							<timebase>25</timebase>
							<ntsc>FALSE</ntsc>
						</rate>
						<start>50983</start>
						<end>53597</end>
						<in>157028</in>
						<out>159642</out>
						<pproTicksIn>1595504977920000</pproTicksIn>
						<pproTicksOut>1622064890880000</pproTicksOut>
						<file id="file-56"/>
						<sourcetrack>
							<mediatype>audio</mediatype>
							<trackindex>1</trackindex>
						</sourcetrack>
						<logginginfo>
							<description></description>
							<scene></scene>
							<shottake></shottake>
							<lognote></lognote>
						</logginginfo>
						<labels>
							<label2>Caribbean</label2>
						</labels>
					</clipitem>
					<clipitem id="clipitem-1314" premiereChannelType="mono">
						<masterclipid>masterclip-60</masterclipid>
						<name>Stian Sandø_01.wav</name>
						<enabled>TRUE</enabled>
						<duration>171138</duration>
						<rate>
							<timebase>25</timebase>
							<ntsc>FALSE</ntsc>
						</rate>
						<start>53597</start>
						<end>53636</end>
						<in>160568</in>
						<out>160607</out>
						<pproTicksIn>1631473643520000</pproTicksIn>
						<pproTicksOut>1631869908480000</pproTicksOut>
						<file id="file-56"/>
						<sourcetrack>
							<mediatype>audio</mediatype>
							<trackindex>1</trackindex>
						</sourcetrack>
						<logginginfo>
							<description></description>
							<scene></scene>
							<shottake></shottake>
							<lognote></lognote>
						</logginginfo>
						<labels>
							<label2>Caribbean</label2>
						</labels>
					</clipitem>
					<clipitem id="clipitem-1315" premiereChannelType="mono">
						<masterclipid>masterclip-60</masterclipid>
						<name>Stian Sandø_01.wav</name>
						<enabled>TRUE</enabled>
						<duration>171138</duration>
						<rate>
							<timebase>25</timebase>
							<ntsc>FALSE</ntsc>
						</rate>
						<start>53636</start>
						<end>55369</end>
						<in>161146</in>
						<out>162879</out>
						<pproTicksIn>1637346493440000</pproTicksIn>
						<pproTicksOut>1654954882560000</pproTicksOut>
						<file id="file-56"/>
						<sourcetrack>
							<mediatype>audio</mediatype>
							<trackindex>1</trackindex>
						</sourcetrack>
						<logginginfo>
							<description></description>
							<scene></scene>
							<shottake></shottake>
							<lognote></lognote>
						</logginginfo>
						<labels>
							<label2>Caribbean</label2>
						</labels>
					</clipitem>
					<clipitem id="clipitem-1316" premiereChannelType="mono">
						<masterclipid>masterclip-60</masterclipid>
						<name>Stian Sandø_01.wav</name>
						<enabled>TRUE</enabled>
						<duration>171138</duration>
						<rate>
							<timebase>25</timebase>
							<ntsc>FALSE</ntsc>
						</rate>
						<start>55369</start>
						<end>55449</end>
						<in>162899</in>
						<out>162979</out>
						<pproTicksIn>1655158095360000</pproTicksIn>
						<pproTicksOut>1655970946560000</pproTicksOut>
						<file id="file-56"/>
						<sourcetrack>
							<mediatype>audio</mediatype>
							<trackindex>1</trackindex>
						</sourcetrack>
						<logginginfo>
							<description></description>
							<scene></scene>
							<shottake></shottake>
							<lognote></lognote>
						</logginginfo>
						<labels>
							<label2>Caribbean</label2>
						</labels>
					</clipitem>
					<clipitem id="clipitem-1317" premiereChannelType="mono">
						<masterclipid>masterclip-60</masterclipid>
						<name>Stian Sandø_01.wav</name>
						<enabled>TRUE</enabled>
						<duration>171138</duration>
						<rate>
							<timebase>25</timebase>
							<ntsc>FALSE</ntsc>
						</rate>
						<start>55449</start>
						<end>55738</end>
						<in>163146</in>
						<out>163435</out>
						<pproTicksIn>1657667773440000</pproTicksIn>
						<pproTicksOut>1660604198400000</pproTicksOut>
						<file id="file-56"/>
						<sourcetrack>
							<mediatype>audio</mediatype>
							<trackindex>1</trackindex>
						</sourcetrack>
						<logginginfo>
							<description></description>
							<scene></scene>
							<shottake></shottake>
							<lognote></lognote>
						</logginginfo>
						<labels>
							<label2>Caribbean</label2>
						</labels>
					</clipitem>
					<clipitem id="clipitem-1318" premiereChannelType="mono">
						<masterclipid>masterclip-60</masterclipid>
						<name>Stian Sandø_01.wav</name>
						<enabled>TRUE</enabled>
						<duration>171138</duration>
						<rate>
							<timebase>25</timebase>
							<ntsc>FALSE</ntsc>
						</rate>
						<start>55738</start>
						<end>55905</end>
						<in>163648</in>
						<out>163815</out>
						<pproTicksIn>1662768414720000</pproTicksIn>
						<pproTicksOut>1664465241600000</pproTicksOut>
						<file id="file-56"/>
						<sourcetrack>
							<mediatype>audio</mediatype>
							<trackindex>1</trackindex>
						</sourcetrack>
						<logginginfo>
							<description></description>
							<scene></scene>
							<shottake></shottake>
							<lognote></lognote>
						</logginginfo>
						<labels>
							<label2>Caribbean</label2>
						</labels>
					</clipitem>
					<clipitem id="clipitem-1319" premiereChannelType="mono">
						<masterclipid>masterclip-60</masterclipid>
						<name>Stian Sandø_01.wav</name>
						<enabled>TRUE</enabled>
						<duration>171138</duration>
						<rate>
							<timebase>25</timebase>
							<ntsc>FALSE</ntsc>
						</rate>
						<start>55905</start>
						<end>56079</end>
						<in>163829</in>
						<out>164003</out>
						<pproTicksIn>1664607490560000</pproTicksIn>
						<pproTicksOut>1666375441920000</pproTicksOut>
						<file id="file-56"/>
						<sourcetrack>
							<mediatype>audio</mediatype>
							<trackindex>1</trackindex>
						</sourcetrack>
						<logginginfo>
							<description></description>
							<scene></scene>
							<shottake></shottake>
							<lognote></lognote>
						</logginginfo>
						<labels>
							<label2>Caribbean</label2>
						</labels>
					</clipitem>
					<clipitem id="clipitem-1320" premiereChannelType="mono">
						<masterclipid>masterclip-60</masterclipid>
						<name>Stian Sandø_01.wav</name>
						<enabled>TRUE</enabled>
						<duration>171138</duration>
						<rate>
							<timebase>25</timebase>
							<ntsc>FALSE</ntsc>
						</rate>
						<start>56079</start>
						<end>58120</end>
						<in>164067</in>
						<out>166108</out>
						<pproTicksIn>1667025722880000</pproTicksIn>
						<pproTicksOut>1687763589120000</pproTicksOut>
						<file id="file-56"/>
						<sourcetrack>
							<mediatype>audio</mediatype>
							<trackindex>1</trackindex>
						</sourcetrack>
						<logginginfo>
							<description></description>
							<scene></scene>
							<shottake></shottake>
							<lognote></lognote>
						</logginginfo>
						<labels>
							<label2>Caribbean</label2>
						</labels>
					</clipitem>
					<enabled>TRUE</enabled>
					<locked>FALSE</locked>
					<outputchannelindex>1</outputchannelindex>
				</track>
				<track TL.SQTrackAudioKeyframeStyle="0" TL.SQTrackShy="0" TL.SQTrackExpandedHeight="25" TL.SQTrackExpanded="0" MZ.TrackTargeted="1" PannerCurrentValue="0.5" PannerIsInverted="true" PannerStartKeyframe="-91445760000000000,0.5,0,0,0,0,0,0" PannerName="Balance" currentExplodedTrackIndex="0" totalExplodedTrackCount="1" premiereTrackType="Stereo">
					<clipitem id="clipitem-1321" premiereChannelType="mono">
						<masterclipid>masterclip-61</masterclipid>
						<name>Publ 1 V_02.wav</name>
						<enabled>TRUE</enabled>
						<duration>171138</duration>
						<rate>
							<timebase>25</timebase>
							<ntsc>FALSE</ntsc>
						</rate>
						<start>420</start>
						<end>891</end>
						<in>168511</in>
						<out>168982</out>
						<pproTicksIn>1712179607040000</pproTicksIn>
						<pproTicksOut>1716965268480000</pproTicksOut>
						<file id="file-57">
							<name>Publ 1 V_02.wav</name>
							<pathurl>file://localhost/Volumes/Brakka/AdobeLager/QUIZ%20-%20brakka/RA%cc%8aSTOFF%20LYD/2005/Publ%201%20V_02.wav</pathurl>
							<rate>
								<timebase>30</timebase>
								<ntsc>TRUE</ntsc>
							</rate>
							<duration>205161</duration>
							<timecode>
								<rate>
									<timebase>30</timebase>
									<ntsc>TRUE</ntsc>
								</rate>
								<string>12;52;15;16</string>
								<frame>1388676</frame>
								<displayformat>DF</displayformat>
								<reel>
									<name></name>
								</reel>
							</timecode>
							<media>
								<audio>
									<samplecharacteristics>
										<depth>16</depth>
										<samplerate>48000</samplerate>
									</samplecharacteristics>
									<channelcount>1</channelcount>
									<audiochannel>
										<sourcechannel>1</sourcechannel>
									</audiochannel>
								</audio>
							</media>
						</file>
						<sourcetrack>
							<mediatype>audio</mediatype>
							<trackindex>1</trackindex>
						</sourcetrack>
						<logginginfo>
							<description></description>
							<scene></scene>
							<shottake></shottake>
							<lognote></lognote>
						</logginginfo>
						<labels>
							<label2>Caribbean</label2>
						</labels>
					</clipitem>
					<clipitem id="clipitem-1322" premiereChannelType="mono">
						<masterclipid>masterclip-61</masterclipid>
						<name>Publ 1 V_02.wav</name>
						<enabled>TRUE</enabled>
						<duration>171138</duration>
						<rate>
							<timebase>25</timebase>
							<ntsc>FALSE</ntsc>
						</rate>
						<start>965</start>
						<end>1469</end>
						<in>32787</in>
						<out>33291</out>
						<pproTicksIn>333136903680000</pproTicksIn>
						<pproTicksOut>338257866240000</pproTicksOut>
						<file id="file-57"/>
						<sourcetrack>
							<mediatype>audio</mediatype>
							<trackindex>1</trackindex>
						</sourcetrack>
						<logginginfo>
							<description></description>
							<scene></scene>
							<shottake></shottake>
							<lognote></lognote>
						</logginginfo>
						<labels>
							<label2>Caribbean</label2>
						</labels>
					</clipitem>
					<clipitem id="clipitem-1323" premiereChannelType="mono">
						<masterclipid>masterclip-61</masterclipid>
						<name>Publ 1 V_02.wav</name>
						<enabled>TRUE</enabled>
						<duration>171138</duration>
						<rate>
							<timebase>25</timebase>
							<ntsc>FALSE</ntsc>
						</rate>
						<start>1469</start>
						<end>4119</end>
						<in>33423</in>
						<out>36073</out>
						<pproTicksIn>339599070720000</pproTicksIn>
						<pproTicksOut>366524766720000</pproTicksOut>
						<file id="file-57"/>
						<sourcetrack>
							<mediatype>audio</mediatype>
							<trackindex>1</trackindex>
						</sourcetrack>
						<logginginfo>
							<description></description>
							<scene></scene>
							<shottake></shottake>
							<lognote></lognote>
						</logginginfo>
						<labels>
							<label2>Caribbean</label2>
						</labels>
					</clipitem>
					<clipitem id="clipitem-1324" premiereChannelType="mono">
						<masterclipid>masterclip-61</masterclipid>
						<name>Publ 1 V_02.wav</name>
						<enabled>TRUE</enabled>
						<duration>171138</duration>
						<rate>
							<timebase>25</timebase>
							<ntsc>FALSE</ntsc>
						</rate>
						<start>4119</start>
						<end>4836</end>
						<in>36549</in>
						<out>37266</out>
						<pproTicksIn>371361231360000</pproTicksIn>
						<pproTicksOut>378646410240000</pproTicksOut>
						<file id="file-57"/>
						<sourcetrack>
							<mediatype>audio</mediatype>
							<trackindex>1</trackindex>
						</sourcetrack>
						<logginginfo>
							<description></description>
							<scene></scene>
							<shottake></shottake>
							<lognote></lognote>
						</logginginfo>
						<labels>
							<label2>Caribbean</label2>
						</labels>
					</clipitem>
					<clipitem id="clipitem-1325" premiereChannelType="mono">
						<masterclipid>masterclip-61</masterclipid>
						<name>Publ 1 V_02.wav</name>
						<enabled>TRUE</enabled>
						<duration>171138</duration>
						<rate>
							<timebase>25</timebase>
							<ntsc>FALSE</ntsc>
						</rate>
						<start>4836</start>
						<end>5339</end>
						<in>37305</in>
						<out>37808</out>
						<pproTicksIn>379042675200000</pproTicksIn>
						<pproTicksOut>384153477120000</pproTicksOut>
						<file id="file-57"/>
						<sourcetrack>
							<mediatype>audio</mediatype>
							<trackindex>1</trackindex>
						</sourcetrack>
						<logginginfo>
							<description></description>
							<scene></scene>
							<shottake></shottake>
							<lognote></lognote>
						</logginginfo>
						<labels>
							<label2>Caribbean</label2>
						</labels>
					</clipitem>
					<clipitem id="clipitem-1326" premiereChannelType="mono">
						<masterclipid>masterclip-61</masterclipid>
						<name>Publ 1 V_02.wav</name>
						<enabled>TRUE</enabled>
						<duration>171138</duration>
						<rate>
							<timebase>25</timebase>
							<ntsc>FALSE</ntsc>
						</rate>
						<start>5339</start>
						<end>5501</end>
						<in>37871</in>
						<out>38033</out>
						<pproTicksIn>384793597440000</pproTicksIn>
						<pproTicksOut>386439621120000</pproTicksOut>
						<file id="file-57"/>
						<sourcetrack>
							<mediatype>audio</mediatype>
							<trackindex>1</trackindex>
						</sourcetrack>
						<logginginfo>
							<description></description>
							<scene></scene>
							<shottake></shottake>
							<lognote></lognote>
						</logginginfo>
						<labels>
							<label2>Caribbean</label2>
						</labels>
					</clipitem>
					<clipitem id="clipitem-1327" premiereChannelType="mono">
						<masterclipid>masterclip-61</masterclipid>
						<name>Publ 1 V_02.wav</name>
						<enabled>TRUE</enabled>
						<duration>171138</duration>
						<rate>
							<timebase>25</timebase>
							<ntsc>FALSE</ntsc>
						</rate>
						<start>5501</start>
						<end>6004</end>
						<in>46577</in>
						<out>47080</out>
						<pproTicksIn>473252129280000</pproTicksIn>
						<pproTicksOut>478362931200000</pproTicksOut>
						<file id="file-57"/>
						<sourcetrack>
							<mediatype>audio</mediatype>
							<trackindex>1</trackindex>
						</sourcetrack>
						<logginginfo>
							<description></description>
							<scene></scene>
							<shottake></shottake>
							<lognote></lognote>
						</logginginfo>
						<labels>
							<label2>Caribbean</label2>
						</labels>
					</clipitem>
					<clipitem id="clipitem-1328" premiereChannelType="mono">
						<masterclipid>masterclip-61</masterclipid>
						<name>Publ 1 V_02.wav</name>
						<enabled>TRUE</enabled>
						<duration>171138</duration>
						<rate>
							<timebase>25</timebase>
							<ntsc>FALSE</ntsc>
						</rate>
						<start>6004</start>
						<end>6357</end>
						<in>50106</in>
						<out>50459</out>
						<pproTicksIn>509109027840000</pproTicksIn>
						<pproTicksOut>512695733760000</pproTicksOut>
						<file id="file-57"/>
						<sourcetrack>
							<mediatype>audio</mediatype>
							<trackindex>1</trackindex>
						</sourcetrack>
						<logginginfo>
							<description></description>
							<scene></scene>
							<shottake></shottake>
							<lognote></lognote>
						</logginginfo>
						<labels>
							<label2>Caribbean</label2>
						</labels>
					</clipitem>
					<clipitem id="clipitem-1329" premiereChannelType="mono">
						<masterclipid>masterclip-61</masterclipid>
						<name>Publ 1 V_02.wav</name>
						<enabled>TRUE</enabled>
						<duration>171138</duration>
						<rate>
							<timebase>25</timebase>
							<ntsc>FALSE</ntsc>
						</rate>
						<start>6357</start>
						<end>6470</end>
						<in>50578</in>
						<out>50691</out>
						<pproTicksIn>513904849920000</pproTicksIn>
						<pproTicksOut>515053002240000</pproTicksOut>
						<file id="file-57"/>
						<sourcetrack>
							<mediatype>audio</mediatype>
							<trackindex>1</trackindex>
						</sourcetrack>
						<logginginfo>
							<description></description>
							<scene></scene>
							<shottake></shottake>
							<lognote></lognote>
						</logginginfo>
						<labels>
							<label2>Caribbean</label2>
						</labels>
					</clipitem>
					<clipitem id="clipitem-1330" premiereChannelType="mono">
						<masterclipid>masterclip-61</masterclipid>
						<name>Publ 1 V_02.wav</name>
						<enabled>TRUE</enabled>
						<duration>171138</duration>
						<rate>
							<timebase>25</timebase>
							<ntsc>FALSE</ntsc>
						</rate>
						<start>6470</start>
						<end>6547</end>
						<in>50753</in>
						<out>50830</out>
						<pproTicksIn>515682961920000</pproTicksIn>
						<pproTicksOut>516465331200000</pproTicksOut>
						<file id="file-57"/>
						<sourcetrack>
							<mediatype>audio</mediatype>
							<trackindex>1</trackindex>
						</sourcetrack>
						<logginginfo>
							<description></description>
							<scene></scene>
							<shottake></shottake>
							<lognote></lognote>
						</logginginfo>
						<labels>
							<label2>Caribbean</label2>
						</labels>
					</clipitem>
					<clipitem id="clipitem-1331" premiereChannelType="mono">
						<masterclipid>masterclip-61</masterclipid>
						<name>Publ 1 V_02.wav</name>
						<enabled>TRUE</enabled>
						<duration>171138</duration>
						<rate>
							<timebase>25</timebase>
							<ntsc>FALSE</ntsc>
						</rate>
						<start>6547</start>
						<end>7368</end>
						<in>50869</in>
						<out>51690</out>
						<pproTicksIn>516861596160000</pproTicksIn>
						<pproTicksOut>525203481600000</pproTicksOut>
						<file id="file-57"/>
						<sourcetrack>
							<mediatype>audio</mediatype>
							<trackindex>1</trackindex>
						</sourcetrack>
						<logginginfo>
							<description></description>
							<scene></scene>
							<shottake></shottake>
							<lognote></lognote>
						</logginginfo>
						<labels>
							<label2>Caribbean</label2>
						</labels>
					</clipitem>
					<clipitem id="clipitem-1332" premiereChannelType="mono">
						<masterclipid>masterclip-61</masterclipid>
						<name>Publ 1 V_02.wav</name>
						<enabled>TRUE</enabled>
						<duration>171138</duration>
						<rate>
							<timebase>25</timebase>
							<ntsc>FALSE</ntsc>
						</rate>
						<start>7368</start>
						<end>7448</end>
						<in>51824</in>
						<out>51904</out>
						<pproTicksIn>526565007360000</pproTicksIn>
						<pproTicksOut>527377858560000</pproTicksOut>
						<file id="file-57"/>
						<sourcetrack>
							<mediatype>audio</mediatype>
							<trackindex>1</trackindex>
						</sourcetrack>
						<logginginfo>
							<description></description>
							<scene></scene>
							<shottake></shottake>
							<lognote></lognote>
						</logginginfo>
						<labels>
							<label2>Caribbean</label2>
						</labels>
					</clipitem>
					<clipitem id="clipitem-1333" premiereChannelType="mono">
						<masterclipid>masterclip-61</masterclipid>
						<name>Publ 1 V_02.wav</name>
						<enabled>TRUE</enabled>
						<duration>171138</duration>
						<rate>
							<timebase>25</timebase>
							<ntsc>FALSE</ntsc>
						</rate>
						<start>7448</start>
						<end>8194</end>
						<in>52064</in>
						<out>52810</out>
						<pproTicksIn>529003560960000</pproTicksIn>
						<pproTicksOut>536583398400000</pproTicksOut>
						<file id="file-57"/>
						<sourcetrack>
							<mediatype>audio</mediatype>
							<trackindex>1</trackindex>
						</sourcetrack>
						<logginginfo>
							<description></description>
							<scene></scene>
							<shottake></shottake>
							<lognote></lognote>
						</logginginfo>
						<labels>
							<label2>Caribbean</label2>
						</labels>
					</clipitem>
					<clipitem id="clipitem-1334" premiereChannelType="mono">
						<masterclipid>masterclip-61</masterclipid>
						<name>Publ 1 V_02.wav</name>
						<enabled>TRUE</enabled>
						<duration>171138</duration>
						<rate>
							<timebase>25</timebase>
							<ntsc>FALSE</ntsc>
						</rate>
						<start>8194</start>
						<end>8332</end>
						<in>57229</in>
						<out>57367</out>
						<pproTicksIn>581483266560000</pproTicksIn>
						<pproTicksOut>582885434880000</pproTicksOut>
						<file id="file-57"/>
						<sourcetrack>
							<mediatype>audio</mediatype>
							<trackindex>1</trackindex>
						</sourcetrack>
						<logginginfo>
							<description></description>
							<scene></scene>
							<shottake></shottake>
							<lognote></lognote>
						</logginginfo>
						<labels>
							<label2>Caribbean</label2>
						</labels>
					</clipitem>
					<clipitem id="clipitem-1335" premiereChannelType="mono">
						<masterclipid>masterclip-61</masterclipid>
						<name>Publ 1 V_02.wav</name>
						<enabled>TRUE</enabled>
						<duration>171138</duration>
						<rate>
							<timebase>25</timebase>
							<ntsc>FALSE</ntsc>
						</rate>
						<start>8332</start>
						<end>8592</end>
						<in>58240</in>
						<out>58500</out>
						<pproTicksIn>591755673600000</pproTicksIn>
						<pproTicksOut>594397440000000</pproTicksOut>
						<file id="file-57"/>
						<sourcetrack>
							<mediatype>audio</mediatype>
							<trackindex>1</trackindex>
						</sourcetrack>
						<logginginfo>
							<description></description>
							<scene></scene>
							<shottake></shottake>
							<lognote></lognote>
						</logginginfo>
						<labels>
							<label2>Caribbean</label2>
						</labels>
					</clipitem>
					<clipitem id="clipitem-1336" premiereChannelType="mono">
						<masterclipid>masterclip-61</masterclipid>
						<name>Publ 1 V_02.wav</name>
						<enabled>TRUE</enabled>
						<duration>171138</duration>
						<rate>
							<timebase>25</timebase>
							<ntsc>FALSE</ntsc>
						</rate>
						<start>8592</start>
						<end>8690</end>
						<in>58994</in>
						<out>59092</out>
						<pproTicksIn>599416796160000</pproTicksIn>
						<pproTicksOut>600412538880000</pproTicksOut>
						<file id="file-57"/>
						<sourcetrack>
							<mediatype>audio</mediatype>
							<trackindex>1</trackindex>
						</sourcetrack>
						<logginginfo>
							<description></description>
							<scene></scene>
							<shottake></shottake>
							<lognote></lognote>
						</logginginfo>
						<labels>
							<label2>Caribbean</label2>
						</labels>
					</clipitem>
					<clipitem id="clipitem-1337" premiereChannelType="mono">
						<masterclipid>masterclip-61</masterclipid>
						<name>Publ 1 V_02.wav</name>
						<enabled>TRUE</enabled>
						<duration>171138</duration>
						<rate>
							<timebase>25</timebase>
							<ntsc>FALSE</ntsc>
						</rate>
						<start>8690</start>
						<end>8999</end>
						<in>59189</in>
						<out>59498</out>
						<pproTicksIn>601398120960000</pproTicksIn>
						<pproTicksOut>604537758720000</pproTicksOut>
						<file id="file-57"/>
						<sourcetrack>
							<mediatype>audio</mediatype>
							<trackindex>1</trackindex>
						</sourcetrack>
						<logginginfo>
							<description></description>
							<scene></scene>
							<shottake></shottake>
							<lognote></lognote>
						</logginginfo>
						<labels>
							<label2>Caribbean</label2>
						</labels>
					</clipitem>
					<clipitem id="clipitem-1338" premiereChannelType="mono">
						<masterclipid>masterclip-61</masterclipid>
						<name>Publ 1 V_02.wav</name>
						<enabled>TRUE</enabled>
						<duration>171138</duration>
						<rate>
							<timebase>25</timebase>
							<ntsc>FALSE</ntsc>
						</rate>
						<start>8999</start>
						<end>9172</end>
						<in>59597</in>
						<out>59770</out>
						<pproTicksIn>605543662080000</pproTicksIn>
						<pproTicksOut>607301452800000</pproTicksOut>
						<file id="file-57"/>
						<sourcetrack>
							<mediatype>audio</mediatype>
							<trackindex>1</trackindex>
						</sourcetrack>
						<logginginfo>
							<description></description>
							<scene></scene>
							<shottake></shottake>
							<lognote></lognote>
						</logginginfo>
						<labels>
							<label2>Caribbean</label2>
						</labels>
					</clipitem>
					<clipitem id="clipitem-1339" premiereChannelType="mono">
						<masterclipid>masterclip-61</masterclipid>
						<name>Publ 1 V_02.wav</name>
						<enabled>TRUE</enabled>
						<duration>171138</duration>
						<rate>
							<timebase>25</timebase>
							<ntsc>FALSE</ntsc>
						</rate>
						<start>9172</start>
						<end>9280</end>
						<in>59921</in>
						<out>60029</out>
						<pproTicksIn>608835709440000</pproTicksIn>
						<pproTicksOut>609933058560000</pproTicksOut>
						<file id="file-57"/>
						<sourcetrack>
							<mediatype>audio</mediatype>
							<trackindex>1</trackindex>
						</sourcetrack>
						<logginginfo>
							<description></description>
							<scene></scene>
							<shottake></shottake>
							<lognote></lognote>
						</logginginfo>
						<labels>
							<label2>Caribbean</label2>
						</labels>
					</clipitem>
					<clipitem id="clipitem-1340" premiereChannelType="mono">
						<masterclipid>masterclip-61</masterclipid>
						<name>Publ 1 V_02.wav</name>
						<enabled>TRUE</enabled>
						<duration>171138</duration>
						<rate>
							<timebase>25</timebase>
							<ntsc>FALSE</ntsc>
						</rate>
						<start>9280</start>
						<end>9979</end>
						<in>65722</in>
						<out>66421</out>
						<pproTicksIn>667777582080000</pproTicksIn>
						<pproTicksOut>674879869440000</pproTicksOut>
						<file id="file-57"/>
						<sourcetrack>
							<mediatype>audio</mediatype>
							<trackindex>1</trackindex>
						</sourcetrack>
						<logginginfo>
							<description></description>
							<scene></scene>
							<shottake></shottake>
							<lognote></lognote>
						</logginginfo>
						<labels>
							<label2>Caribbean</label2>
						</labels>
					</clipitem>
					<clipitem id="clipitem-1341" premiereChannelType="mono">
						<masterclipid>masterclip-61</masterclipid>
						<name>Publ 1 V_02.wav</name>
						<enabled>TRUE</enabled>
						<duration>171138</duration>
						<rate>
							<timebase>25</timebase>
							<ntsc>FALSE</ntsc>
						</rate>
						<start>9979</start>
						<end>10054</end>
						<in>66518</in>
						<out>66593</out>
						<pproTicksIn>675865451520000</pproTicksIn>
						<pproTicksOut>676627499520000</pproTicksOut>
						<file id="file-57"/>
						<sourcetrack>
							<mediatype>audio</mediatype>
							<trackindex>1</trackindex>
						</sourcetrack>
						<logginginfo>
							<description></description>
							<scene></scene>
							<shottake></shottake>
							<lognote></lognote>
						</logginginfo>
						<labels>
							<label2>Caribbean</label2>
						</labels>
					</clipitem>
					<clipitem id="clipitem-1342" premiereChannelType="mono">
						<masterclipid>masterclip-61</masterclipid>
						<name>Publ 1 V_02.wav</name>
						<enabled>TRUE</enabled>
						<duration>171138</duration>
						<rate>
							<timebase>25</timebase>
							<ntsc>FALSE</ntsc>
						</rate>
						<start>10054</start>
						<end>10901</end>
						<in>67109</in>
						<out>67956</out>
						<pproTicksIn>681870389760000</pproTicksIn>
						<pproTicksOut>690476451840000</pproTicksOut>
						<file id="file-57"/>
						<sourcetrack>
							<mediatype>audio</mediatype>
							<trackindex>1</trackindex>
						</sourcetrack>
						<logginginfo>
							<description></description>
							<scene></scene>
							<shottake></shottake>
							<lognote></lognote>
						</logginginfo>
						<labels>
							<label2>Caribbean</label2>
						</labels>
					</clipitem>
					<clipitem id="clipitem-1343" premiereChannelType="mono">
						<masterclipid>masterclip-61</masterclipid>
						<name>Publ 1 V_02.wav</name>
						<enabled>TRUE</enabled>
						<duration>171138</duration>
						<rate>
							<timebase>25</timebase>
							<ntsc>FALSE</ntsc>
						</rate>
						<start>10901</start>
						<end>11157</end>
						<in>67945</in>
						<out>68201</out>
						<pproTicksIn>690364684800000</pproTicksIn>
						<pproTicksOut>692965808640000</pproTicksOut>
						<file id="file-57"/>
						<sourcetrack>
							<mediatype>audio</mediatype>
							<trackindex>1</trackindex>
						</sourcetrack>
						<logginginfo>
							<description></description>
							<scene></scene>
							<shottake></shottake>
							<lognote></lognote>
						</logginginfo>
						<labels>
							<label2>Caribbean</label2>
						</labels>
					</clipitem>
					<clipitem id="clipitem-1344" premiereChannelType="mono">
						<masterclipid>masterclip-61</masterclipid>
						<name>Publ 1 V_02.wav</name>
						<enabled>TRUE</enabled>
						<duration>171138</duration>
						<rate>
							<timebase>25</timebase>
							<ntsc>FALSE</ntsc>
						</rate>
						<start>11157</start>
						<end>11309</end>
						<in>68218</in>
						<out>68370</out>
						<pproTicksIn>693138539520000</pproTicksIn>
						<pproTicksOut>694682956800000</pproTicksOut>
						<file id="file-57"/>
						<sourcetrack>
							<mediatype>audio</mediatype>
							<trackindex>1</trackindex>
						</sourcetrack>
						<logginginfo>
							<description></description>
							<scene></scene>
							<shottake></shottake>
							<lognote></lognote>
						</logginginfo>
						<labels>
							<label2>Caribbean</label2>
						</labels>
					</clipitem>
					<clipitem id="clipitem-1345" premiereChannelType="mono">
						<masterclipid>masterclip-61</masterclipid>
						<name>Publ 1 V_02.wav</name>
						<enabled>TRUE</enabled>
						<duration>171138</duration>
						<rate>
							<timebase>25</timebase>
							<ntsc>FALSE</ntsc>
						</rate>
						<start>11309</start>
						<end>11781</end>
						<in>68707</in>
						<out>69179</out>
						<pproTicksIn>698107092480000</pproTicksIn>
						<pproTicksOut>702902914560000</pproTicksOut>
						<file id="file-57"/>
						<sourcetrack>
							<mediatype>audio</mediatype>
							<trackindex>1</trackindex>
						</sourcetrack>
						<logginginfo>
							<description></description>
							<scene></scene>
							<shottake></shottake>
							<lognote></lognote>
						</logginginfo>
						<labels>
							<label2>Caribbean</label2>
						</labels>
					</clipitem>
					<clipitem id="clipitem-1346" premiereChannelType="mono">
						<masterclipid>masterclip-61</masterclipid>
						<name>Publ 1 V_02.wav</name>
						<enabled>TRUE</enabled>
						<duration>171138</duration>
						<rate>
							<timebase>25</timebase>
							<ntsc>FALSE</ntsc>
						</rate>
						<start>11781</start>
						<end>12155</end>
						<in>70010</in>
						<out>70384</out>
						<pproTicksIn>711346406400000</pproTicksIn>
						<pproTicksOut>715146485760000</pproTicksOut>
						<file id="file-57"/>
						<sourcetrack>
							<mediatype>audio</mediatype>
							<trackindex>1</trackindex>
						</sourcetrack>
						<logginginfo>
							<description></description>
							<scene></scene>
							<shottake></shottake>
							<lognote></lognote>
						</logginginfo>
						<labels>
							<label2>Caribbean</label2>
						</labels>
					</clipitem>
					<clipitem id="clipitem-1347" premiereChannelType="mono">
						<masterclipid>masterclip-61</masterclipid>
						<name>Publ 1 V_02.wav</name>
						<enabled>TRUE</enabled>
						<duration>171138</duration>
						<rate>
							<timebase>25</timebase>
							<ntsc>FALSE</ntsc>
						</rate>
						<start>12155</start>
						<end>13212</end>
						<in>70448</in>
						<out>71505</out>
						<pproTicksIn>715796766720000</pproTicksIn>
						<pproTicksOut>726536563200000</pproTicksOut>
						<file id="file-57"/>
						<sourcetrack>
							<mediatype>audio</mediatype>
							<trackindex>1</trackindex>
						</sourcetrack>
						<logginginfo>
							<description></description>
							<scene></scene>
							<shottake></shottake>
							<lognote></lognote>
						</logginginfo>
						<labels>
							<label2>Caribbean</label2>
						</labels>
					</clipitem>
					<clipitem id="clipitem-1348" premiereChannelType="mono">
						<masterclipid>masterclip-61</masterclipid>
						<name>Publ 1 V_02.wav</name>
						<enabled>TRUE</enabled>
						<duration>171138</duration>
						<rate>
							<timebase>25</timebase>
							<ntsc>FALSE</ntsc>
						</rate>
						<start>13212</start>
						<end>13343</end>
						<in>71544</in>
						<out>71675</out>
						<pproTicksIn>726932828160000</pproTicksIn>
						<pproTicksOut>728263872000000</pproTicksOut>
						<file id="file-57"/>
						<sourcetrack>
							<mediatype>audio</mediatype>
							<trackindex>1</trackindex>
						</sourcetrack>
						<logginginfo>
							<description></description>
							<scene></scene>
							<shottake></shottake>
							<lognote></lognote>
						</logginginfo>
						<labels>
							<label2>Caribbean</label2>
						</labels>
					</clipitem>
					<clipitem id="clipitem-1349" premiereChannelType="mono">
						<masterclipid>masterclip-61</masterclipid>
						<name>Publ 1 V_02.wav</name>
						<enabled>TRUE</enabled>
						<duration>171138</duration>
						<rate>
							<timebase>25</timebase>
							<ntsc>FALSE</ntsc>
						</rate>
						<start>13359</start>
						<end>13506</end>
						<in>77542</in>
						<out>77689</out>
						<pproTicksIn>787876346880000</pproTicksIn>
						<pproTicksOut>789369960960000</pproTicksOut>
						<file id="file-57"/>
						<sourcetrack>
							<mediatype>audio</mediatype>
							<trackindex>1</trackindex>
						</sourcetrack>
						<logginginfo>
							<description></description>
							<scene></scene>
							<shottake></shottake>
							<lognote></lognote>
						</logginginfo>
						<labels>
							<label2>Caribbean</label2>
						</labels>
					</clipitem>
					<clipitem id="clipitem-1350" premiereChannelType="mono">
						<masterclipid>masterclip-61</masterclipid>
						<name>Publ 1 V_02.wav</name>
						<enabled>TRUE</enabled>
						<duration>171138</duration>
						<rate>
							<timebase>25</timebase>
							<ntsc>FALSE</ntsc>
						</rate>
						<start>13506</start>
						<end>14081</end>
						<in>78019</in>
						<out>78594</out>
						<pproTicksIn>792722972160000</pproTicksIn>
						<pproTicksOut>798565340160000</pproTicksOut>
						<file id="file-57"/>
						<sourcetrack>
							<mediatype>audio</mediatype>
							<trackindex>1</trackindex>
						</sourcetrack>
						<logginginfo>
							<description></description>
							<scene></scene>
							<shottake></shottake>
							<lognote></lognote>
						</logginginfo>
						<labels>
							<label2>Caribbean</label2>
						</labels>
					</clipitem>
					<clipitem id="clipitem-1351" premiereChannelType="mono">
						<masterclipid>masterclip-61</masterclipid>
						<name>Publ 1 V_02.wav</name>
						<enabled>TRUE</enabled>
						<duration>171138</duration>
						<rate>
							<timebase>25</timebase>
							<ntsc>FALSE</ntsc>
						</rate>
						<start>14081</start>
						<end>14232</end>
						<in>78676</in>
						<out>78827</out>
						<pproTicksIn>799398512640000</pproTicksIn>
						<pproTicksOut>800932769280000</pproTicksOut>
						<file id="file-57"/>
						<sourcetrack>
							<mediatype>audio</mediatype>
							<trackindex>1</trackindex>
						</sourcetrack>
						<logginginfo>
							<description></description>
							<scene></scene>
							<shottake></shottake>
							<lognote></lognote>
						</logginginfo>
						<labels>
							<label2>Caribbean</label2>
						</labels>
					</clipitem>
					<clipitem id="clipitem-1352" premiereChannelType="mono">
						<masterclipid>masterclip-61</masterclipid>
						<name>Publ 1 V_02.wav</name>
						<enabled>TRUE</enabled>
						<duration>171138</duration>
						<rate>
							<timebase>25</timebase>
							<ntsc>FALSE</ntsc>
						</rate>
						<start>14232</start>
						<end>14550</end>
						<in>78886</in>
						<out>79204</out>
						<pproTicksIn>801532247040000</pproTicksIn>
						<pproTicksOut>804763330560000</pproTicksOut>
						<file id="file-57"/>
						<sourcetrack>
							<mediatype>audio</mediatype>
							<trackindex>1</trackindex>
						</sourcetrack>
						<logginginfo>
							<description></description>
							<scene></scene>
							<shottake></shottake>
							<lognote></lognote>
						</logginginfo>
						<labels>
							<label2>Caribbean</label2>
						</labels>
					</clipitem>
					<clipitem id="clipitem-1353" premiereChannelType="mono">
						<masterclipid>masterclip-61</masterclipid>
						<name>Publ 1 V_02.wav</name>
						<enabled>TRUE</enabled>
						<duration>171138</duration>
						<rate>
							<timebase>25</timebase>
							<ntsc>FALSE</ntsc>
						</rate>
						<start>14550</start>
						<end>14774</end>
						<in>79562</in>
						<out>79786</out>
						<pproTicksIn>808400839680000</pproTicksIn>
						<pproTicksOut>810676823040000</pproTicksOut>
						<file id="file-57"/>
						<sourcetrack>
							<mediatype>audio</mediatype>
							<trackindex>1</trackindex>
						</sourcetrack>
						<logginginfo>
							<description></description>
							<scene></scene>
							<shottake></shottake>
							<lognote></lognote>
						</logginginfo>
						<labels>
							<label2>Caribbean</label2>
						</labels>
					</clipitem>
					<clipitem id="clipitem-1354" premiereChannelType="mono">
						<masterclipid>masterclip-61</masterclipid>
						<name>Publ 1 V_02.wav</name>
						<enabled>TRUE</enabled>
						<duration>171138</duration>
						<rate>
							<timebase>25</timebase>
							<ntsc>FALSE</ntsc>
						</rate>
						<start>14774</start>
						<end>14798</end>
						<in>79204</in>
						<out>79228</out>
						<pproTicksIn>804763330560000</pproTicksIn>
						<pproTicksOut>805007185920000</pproTicksOut>
						<file id="file-57"/>
						<sourcetrack>
							<mediatype>audio</mediatype>
							<trackindex>1</trackindex>
						</sourcetrack>
						<logginginfo>
							<description></description>
							<scene></scene>
							<shottake></shottake>
							<lognote></lognote>
						</logginginfo>
						<labels>
							<label2>Caribbean</label2>
						</labels>
					</clipitem>
					<clipitem id="clipitem-1355" premiereChannelType="mono">
						<masterclipid>masterclip-61</masterclipid>
						<name>Publ 1 V_02.wav</name>
						<enabled>TRUE</enabled>
						<duration>171138</duration>
						<rate>
							<timebase>25</timebase>
							<ntsc>FALSE</ntsc>
						</rate>
						<start>14798</start>
						<end>14887</end>
						<in>80182</in>
						<out>80271</out>
						<pproTicksIn>814700436480000</pproTicksIn>
						<pproTicksOut>815604733440000</pproTicksOut>
						<file id="file-57"/>
						<sourcetrack>
							<mediatype>audio</mediatype>
							<trackindex>1</trackindex>
						</sourcetrack>
						<logginginfo>
							<description></description>
							<scene></scene>
							<shottake></shottake>
							<lognote></lognote>
						</logginginfo>
						<labels>
							<label2>Caribbean</label2>
						</labels>
					</clipitem>
					<clipitem id="clipitem-1356" premiereChannelType="mono">
						<masterclipid>masterclip-61</masterclipid>
						<name>Publ 1 V_02.wav</name>
						<enabled>TRUE</enabled>
						<duration>171138</duration>
						<rate>
							<timebase>25</timebase>
							<ntsc>FALSE</ntsc>
						</rate>
						<start>14887</start>
						<end>15129</end>
						<in>80569</in>
						<out>80811</out>
						<pproTicksIn>818632604160000</pproTicksIn>
						<pproTicksOut>821091479040000</pproTicksOut>
						<file id="file-57"/>
						<sourcetrack>
							<mediatype>audio</mediatype>
							<trackindex>1</trackindex>
						</sourcetrack>
						<logginginfo>
							<description></description>
							<scene></scene>
							<shottake></shottake>
							<lognote></lognote>
						</logginginfo>
						<labels>
							<label2>Caribbean</label2>
						</labels>
					</clipitem>
					<clipitem id="clipitem-1357" premiereChannelType="mono">
						<masterclipid>masterclip-61</masterclipid>
						<name>Publ 1 V_02.wav</name>
						<enabled>TRUE</enabled>
						<duration>171138</duration>
						<rate>
							<timebase>25</timebase>
							<ntsc>FALSE</ntsc>
						</rate>
						<start>15129</start>
						<end>15493</end>
						<in>80817</in>
						<out>81181</out>
						<pproTicksIn>821152442880000</pproTicksIn>
						<pproTicksOut>824850915840000</pproTicksOut>
						<file id="file-57"/>
						<sourcetrack>
							<mediatype>audio</mediatype>
							<trackindex>1</trackindex>
						</sourcetrack>
						<logginginfo>
							<description></description>
							<scene></scene>
							<shottake></shottake>
							<lognote></lognote>
						</logginginfo>
						<labels>
							<label2>Caribbean</label2>
						</labels>
					</clipitem>
					<clipitem id="clipitem-1358" premiereChannelType="mono">
						<masterclipid>masterclip-61</masterclipid>
						<name>Publ 1 V_02.wav</name>
						<enabled>TRUE</enabled>
						<duration>171138</duration>
						<rate>
							<timebase>25</timebase>
							<ntsc>FALSE</ntsc>
						</rate>
						<start>15493</start>
						<end>15657</end>
						<in>81234</in>
						<out>81398</out>
						<pproTicksIn>825389429760000</pproTicksIn>
						<pproTicksOut>827055774720000</pproTicksOut>
						<file id="file-57"/>
						<sourcetrack>
							<mediatype>audio</mediatype>
							<trackindex>1</trackindex>
						</sourcetrack>
						<logginginfo>
							<description></description>
							<scene></scene>
							<shottake></shottake>
							<lognote></lognote>
						</logginginfo>
						<labels>
							<label2>Caribbean</label2>
						</labels>
					</clipitem>
					<clipitem id="clipitem-1359" premiereChannelType="mono">
						<masterclipid>masterclip-61</masterclipid>
						<name>Publ 1 V_02.wav</name>
						<enabled>TRUE</enabled>
						<duration>171138</duration>
						<rate>
							<timebase>25</timebase>
							<ntsc>FALSE</ntsc>
						</rate>
						<start>15657</start>
						<end>15850</end>
						<in>81563</in>
						<out>81756</out>
						<pproTicksIn>828732280320000</pproTicksIn>
						<pproTicksOut>830693283840000</pproTicksOut>
						<file id="file-57"/>
						<sourcetrack>
							<mediatype>audio</mediatype>
							<trackindex>1</trackindex>
						</sourcetrack>
						<logginginfo>
							<description></description>
							<scene></scene>
							<shottake></shottake>
							<lognote></lognote>
						</logginginfo>
						<labels>
							<label2>Caribbean</label2>
						</labels>
					</clipitem>
					<clipitem id="clipitem-1360" premiereChannelType="mono">
						<masterclipid>masterclip-61</masterclipid>
						<name>Publ 1 V_02.wav</name>
						<enabled>TRUE</enabled>
						<duration>171138</duration>
						<rate>
							<timebase>25</timebase>
							<ntsc>FALSE</ntsc>
						</rate>
						<start>15850</start>
						<end>16018</end>
						<in>81984</in>
						<out>82152</out>
						<pproTicksIn>833009909760000</pproTicksIn>
						<pproTicksOut>834716897280000</pproTicksOut>
						<file id="file-57"/>
						<sourcetrack>
							<mediatype>audio</mediatype>
							<trackindex>1</trackindex>
						</sourcetrack>
						<logginginfo>
							<description></description>
							<scene></scene>
							<shottake></shottake>
							<lognote></lognote>
						</logginginfo>
						<labels>
							<label2>Caribbean</label2>
						</labels>
					</clipitem>
					<clipitem id="clipitem-1361" premiereChannelType="mono">
						<masterclipid>masterclip-61</masterclipid>
						<name>Publ 1 V_02.wav</name>
						<enabled>TRUE</enabled>
						<duration>171138</duration>
						<rate>
							<timebase>25</timebase>
							<ntsc>FALSE</ntsc>
						</rate>
						<start>16018</start>
						<end>16073</end>
						<in>82477</in>
						<out>82532</out>
						<pproTicksIn>838019105280000</pproTicksIn>
						<pproTicksOut>838577940480000</pproTicksOut>
						<file id="file-57"/>
						<sourcetrack>
							<mediatype>audio</mediatype>
							<trackindex>1</trackindex>
						</sourcetrack>
						<logginginfo>
							<description></description>
							<scene></scene>
							<shottake></shottake>
							<lognote></lognote>
						</logginginfo>
						<labels>
							<label2>Caribbean</label2>
						</labels>
					</clipitem>
					<clipitem id="clipitem-1362" premiereChannelType="mono">
						<masterclipid>masterclip-61</masterclipid>
						<name>Publ 1 V_02.wav</name>
						<enabled>TRUE</enabled>
						<duration>171138</duration>
						<rate>
							<timebase>25</timebase>
							<ntsc>FALSE</ntsc>
						</rate>
						<start>16073</start>
						<end>16115</end>
						<in>83437</in>
						<out>83479</out>
						<pproTicksIn>847773319680000</pproTicksIn>
						<pproTicksOut>848200066560000</pproTicksOut>
						<file id="file-57"/>
						<sourcetrack>
							<mediatype>audio</mediatype>
							<trackindex>1</trackindex>
						</sourcetrack>
						<logginginfo>
							<description></description>
							<scene></scene>
							<shottake></shottake>
							<lognote></lognote>
						</logginginfo>
						<labels>
							<label2>Caribbean</label2>
						</labels>
					</clipitem>
					<clipitem id="clipitem-1363" premiereChannelType="mono">
						<masterclipid>masterclip-61</masterclipid>
						<name>Publ 1 V_02.wav</name>
						<enabled>TRUE</enabled>
						<duration>171138</duration>
						<rate>
							<timebase>25</timebase>
							<ntsc>FALSE</ntsc>
						</rate>
						<start>16115</start>
						<end>16204</end>
						<in>83479</in>
						<out>83568</out>
						<pproTicksIn>848200066560000</pproTicksIn>
						<pproTicksOut>849104363520000</pproTicksOut>
						<file id="file-57"/>
						<sourcetrack>
							<mediatype>audio</mediatype>
							<trackindex>1</trackindex>
						</sourcetrack>
						<logginginfo>
							<description></description>
							<scene></scene>
							<shottake></shottake>
							<lognote></lognote>
						</logginginfo>
						<labels>
							<label2>Caribbean</label2>
						</labels>
					</clipitem>
					<clipitem id="clipitem-1364" premiereChannelType="mono">
						<masterclipid>masterclip-61</masterclipid>
						<name>Publ 1 V_02.wav</name>
						<enabled>TRUE</enabled>
						<duration>171138</duration>
						<rate>
							<timebase>25</timebase>
							<ntsc>FALSE</ntsc>
						</rate>
						<start>16204</start>
						<end>16898</end>
						<in>83568</in>
						<out>84262</out>
						<pproTicksIn>849104363520000</pproTicksIn>
						<pproTicksOut>856155847680000</pproTicksOut>
						<file id="file-57"/>
						<sourcetrack>
							<mediatype>audio</mediatype>
							<trackindex>1</trackindex>
						</sourcetrack>
						<logginginfo>
							<description></description>
							<scene></scene>
							<shottake></shottake>
							<lognote></lognote>
						</logginginfo>
						<labels>
							<label2>Caribbean</label2>
						</labels>
					</clipitem>
					<clipitem id="clipitem-1365" premiereChannelType="mono">
						<masterclipid>masterclip-61</masterclipid>
						<name>Publ 1 V_02.wav</name>
						<enabled>TRUE</enabled>
						<duration>171138</duration>
						<rate>
							<timebase>25</timebase>
							<ntsc>FALSE</ntsc>
						</rate>
						<start>16898</start>
						<end>16971</end>
						<in>84282</in>
						<out>84355</out>
						<pproTicksIn>856359060480000</pproTicksIn>
						<pproTicksOut>857100787200000</pproTicksOut>
						<file id="file-57"/>
						<sourcetrack>
							<mediatype>audio</mediatype>
							<trackindex>1</trackindex>
						</sourcetrack>
						<logginginfo>
							<description></description>
							<scene></scene>
							<shottake></shottake>
							<lognote></lognote>
						</logginginfo>
						<labels>
							<label2>Caribbean</label2>
						</labels>
					</clipitem>
					<clipitem id="clipitem-1366" premiereChannelType="mono">
						<masterclipid>masterclip-61</masterclipid>
						<name>Publ 1 V_02.wav</name>
						<enabled>TRUE</enabled>
						<duration>171138</duration>
						<rate>
							<timebase>25</timebase>
							<ntsc>FALSE</ntsc>
						</rate>
						<start>16971</start>
						<end>17329</end>
						<in>84400</in>
						<out>84758</out>
						<pproTicksIn>857558016000000</pproTicksIn>
						<pproTicksOut>861195525120000</pproTicksOut>
						<file id="file-57"/>
						<sourcetrack>
							<mediatype>audio</mediatype>
							<trackindex>1</trackindex>
						</sourcetrack>
						<logginginfo>
							<description></description>
							<scene></scene>
							<shottake></shottake>
							<lognote></lognote>
						</logginginfo>
						<labels>
							<label2>Caribbean</label2>
						</labels>
					</clipitem>
					<clipitem id="clipitem-1367" premiereChannelType="mono">
						<masterclipid>masterclip-61</masterclipid>
						<name>Publ 1 V_02.wav</name>
						<enabled>TRUE</enabled>
						<duration>171138</duration>
						<rate>
							<timebase>25</timebase>
							<ntsc>FALSE</ntsc>
						</rate>
						<start>17329</start>
						<end>17417</end>
						<in>85268</in>
						<out>85356</out>
						<pproTicksIn>866377451520000</pproTicksIn>
						<pproTicksOut>867271587840000</pproTicksOut>
						<file id="file-57"/>
						<sourcetrack>
							<mediatype>audio</mediatype>
							<trackindex>1</trackindex>
						</sourcetrack>
						<logginginfo>
							<description></description>
							<scene></scene>
							<shottake></shottake>
							<lognote></lognote>
						</logginginfo>
						<labels>
							<label2>Caribbean</label2>
						</labels>
					</clipitem>
					<clipitem id="clipitem-1368" premiereChannelType="mono">
						<masterclipid>masterclip-61</masterclipid>
						<name>Publ 1 V_02.wav</name>
						<enabled>TRUE</enabled>
						<duration>171138</duration>
						<rate>
							<timebase>25</timebase>
							<ntsc>FALSE</ntsc>
						</rate>
						<start>17417</start>
						<end>17611</end>
						<in>85074</in>
						<out>85268</out>
						<pproTicksIn>864406287360000</pproTicksIn>
						<pproTicksOut>866377451520000</pproTicksOut>
						<file id="file-57"/>
						<sourcetrack>
							<mediatype>audio</mediatype>
							<trackindex>1</trackindex>
						</sourcetrack>
						<logginginfo>
							<description></description>
							<scene></scene>
							<shottake></shottake>
							<lognote></lognote>
						</logginginfo>
						<labels>
							<label2>Caribbean</label2>
						</labels>
					</clipitem>
					<clipitem id="clipitem-1369" premiereChannelType="mono">
						<masterclipid>masterclip-61</masterclipid>
						<name>Publ 1 V_02.wav</name>
						<enabled>TRUE</enabled>
						<duration>171138</duration>
						<rate>
							<timebase>25</timebase>
							<ntsc>FALSE</ntsc>
						</rate>
						<start>17611</start>
						<end>17830</end>
						<in>85560</in>
						<out>85779</out>
						<pproTicksIn>869344358400000</pproTicksIn>
						<pproTicksOut>871569538560000</pproTicksOut>
						<file id="file-57"/>
						<sourcetrack>
							<mediatype>audio</mediatype>
							<trackindex>1</trackindex>
						</sourcetrack>
						<logginginfo>
							<description></description>
							<scene></scene>
							<shottake></shottake>
							<lognote></lognote>
						</logginginfo>
						<labels>
							<label2>Caribbean</label2>
						</labels>
					</clipitem>
					<clipitem id="clipitem-1370" premiereChannelType="mono">
						<masterclipid>masterclip-61</masterclipid>
						<name>Publ 1 V_02.wav</name>
						<enabled>TRUE</enabled>
						<duration>171138</duration>
						<rate>
							<timebase>25</timebase>
							<ntsc>FALSE</ntsc>
						</rate>
						<start>17830</start>
						<end>17876</end>
						<in>83479</in>
						<out>83525</out>
						<pproTicksIn>848200066560000</pproTicksIn>
						<pproTicksOut>848667456000000</pproTicksOut>
						<file id="file-57"/>
						<sourcetrack>
							<mediatype>audio</mediatype>
							<trackindex>1</trackindex>
						</sourcetrack>
						<logginginfo>
							<description></description>
							<scene></scene>
							<shottake></shottake>
							<lognote></lognote>
						</logginginfo>
						<labels>
							<label2>Caribbean</label2>
						</labels>
					</clipitem>
					<clipitem id="clipitem-1371" premiereChannelType="mono">
						<masterclipid>masterclip-61</masterclipid>
						<name>Publ 1 V_02.wav</name>
						<enabled>TRUE</enabled>
						<duration>171138</duration>
						<rate>
							<timebase>25</timebase>
							<ntsc>FALSE</ntsc>
						</rate>
						<start>17876</start>
						<end>18012</end>
						<in>85841</in>
						<out>85977</out>
						<pproTicksIn>872199498240000</pproTicksIn>
						<pproTicksOut>873581345280000</pproTicksOut>
						<file id="file-57"/>
						<sourcetrack>
							<mediatype>audio</mediatype>
							<trackindex>1</trackindex>
						</sourcetrack>
						<logginginfo>
							<description></description>
							<scene></scene>
							<shottake></shottake>
							<lognote></lognote>
						</logginginfo>
						<labels>
							<label2>Caribbean</label2>
						</labels>
					</clipitem>
					<clipitem id="clipitem-1372" premiereChannelType="mono">
						<masterclipid>masterclip-61</masterclipid>
						<name>Publ 1 V_02.wav</name>
						<enabled>TRUE</enabled>
						<duration>171138</duration>
						<rate>
							<timebase>25</timebase>
							<ntsc>FALSE</ntsc>
						</rate>
						<start>18012</start>
						<end>18158</end>
						<in>116811</in>
						<out>116957</out>
						<pproTicksIn>1186874519040000</pproTicksIn>
						<pproTicksOut>1188357972480000</pproTicksOut>
						<file id="file-57"/>
						<sourcetrack>
							<mediatype>audio</mediatype>
							<trackindex>1</trackindex>
						</sourcetrack>
						<logginginfo>
							<description></description>
							<scene></scene>
							<shottake></shottake>
							<lognote></lognote>
						</logginginfo>
						<labels>
							<label2>Caribbean</label2>
						</labels>
					</clipitem>
					<clipitem id="clipitem-1373" premiereChannelType="mono">
						<masterclipid>masterclip-61</masterclipid>
						<name>Publ 1 V_02.wav</name>
						<enabled>TRUE</enabled>
						<duration>171138</duration>
						<rate>
							<timebase>25</timebase>
							<ntsc>FALSE</ntsc>
						</rate>
						<start>18158</start>
						<end>18332</end>
						<in>86150</in>
						<out>86324</out>
						<pproTicksIn>875339136000000</pproTicksIn>
						<pproTicksOut>877107087360000</pproTicksOut>
						<file id="file-57"/>
						<sourcetrack>
							<mediatype>audio</mediatype>
							<trackindex>1</trackindex>
						</sourcetrack>
						<logginginfo>
							<description></description>
							<scene></scene>
							<shottake></shottake>
							<lognote></lognote>
						</logginginfo>
						<labels>
							<label2>Caribbean</label2>
						</labels>
					</clipitem>
					<clipitem id="clipitem-1374" premiereChannelType="mono">
						<masterclipid>masterclip-61</masterclipid>
						<name>Publ 1 V_02.wav</name>
						<enabled>TRUE</enabled>
						<duration>171138</duration>
						<rate>
							<timebase>25</timebase>
							<ntsc>FALSE</ntsc>
						</rate>
						<start>18332</start>
						<end>22265</end>
						<in>87920</in>
						<out>91853</out>
						<pproTicksIn>893323468800000</pproTicksIn>
						<pproTicksOut>933285265920000</pproTicksOut>
						<file id="file-57"/>
						<sourcetrack>
							<mediatype>audio</mediatype>
							<trackindex>1</trackindex>
						</sourcetrack>
						<logginginfo>
							<description></description>
							<scene></scene>
							<shottake></shottake>
							<lognote></lognote>
						</logginginfo>
						<labels>
							<label2>Caribbean</label2>
						</labels>
					</clipitem>
					<clipitem id="clipitem-1375" premiereChannelType="mono">
						<masterclipid>masterclip-61</masterclipid>
						<name>Publ 1 V_02.wav</name>
						<enabled>TRUE</enabled>
						<duration>171138</duration>
						<rate>
							<timebase>25</timebase>
							<ntsc>FALSE</ntsc>
						</rate>
						<start>22265</start>
						<end>23367</end>
						<in>91952</in>
						<out>93054</out>
						<pproTicksIn>934291169280000</pproTicksIn>
						<pproTicksOut>945488194560000</pproTicksOut>
						<file id="file-57"/>
						<sourcetrack>
							<mediatype>audio</mediatype>
							<trackindex>1</trackindex>
						</sourcetrack>
						<logginginfo>
							<description></description>
							<scene></scene>
							<shottake></shottake>
							<lognote></lognote>
						</logginginfo>
						<labels>
							<label2>Caribbean</label2>
						</labels>
					</clipitem>
					<clipitem id="clipitem-1376" premiereChannelType="mono">
						<masterclipid>masterclip-61</masterclipid>
						<name>Publ 1 V_02.wav</name>
						<enabled>TRUE</enabled>
						<duration>171138</duration>
						<rate>
							<timebase>25</timebase>
							<ntsc>FALSE</ntsc>
						</rate>
						<start>23367</start>
						<end>23724</end>
						<in>93377</in>
						<out>93734</out>
						<pproTicksIn>948770081280000</pproTicksIn>
						<pproTicksOut>952397429760000</pproTicksOut>
						<file id="file-57"/>
						<sourcetrack>
							<mediatype>audio</mediatype>
							<trackindex>1</trackindex>
						</sourcetrack>
						<logginginfo>
							<description></description>
							<scene></scene>
							<shottake></shottake>
							<lognote></lognote>
						</logginginfo>
						<labels>
							<label2>Caribbean</label2>
						</labels>
					</clipitem>
					<clipitem id="clipitem-1377" premiereChannelType="mono">
						<masterclipid>masterclip-61</masterclipid>
						<name>Publ 1 V_02.wav</name>
						<enabled>TRUE</enabled>
						<duration>171138</duration>
						<rate>
							<timebase>25</timebase>
							<ntsc>FALSE</ntsc>
						</rate>
						<start>23724</start>
						<end>24114</end>
						<in>94350</in>
						<out>94740</out>
						<pproTicksIn>958656384000000</pproTicksIn>
						<pproTicksOut>962619033600000</pproTicksOut>
						<file id="file-57"/>
						<sourcetrack>
							<mediatype>audio</mediatype>
							<trackindex>1</trackindex>
						</sourcetrack>
						<logginginfo>
							<description></description>
							<scene></scene>
							<shottake></shottake>
							<lognote></lognote>
						</logginginfo>
						<labels>
							<label2>Caribbean</label2>
						</labels>
					</clipitem>
					<clipitem id="clipitem-1378" premiereChannelType="mono">
						<masterclipid>masterclip-61</masterclipid>
						<name>Publ 1 V_02.wav</name>
						<enabled>TRUE</enabled>
						<duration>171138</duration>
						<rate>
							<timebase>25</timebase>
							<ntsc>FALSE</ntsc>
						</rate>
						<start>24114</start>
						<end>24241</end>
						<in>94797</in>
						<out>94924</out>
						<pproTicksIn>963198190080000</pproTicksIn>
						<pproTicksOut>964488591360000</pproTicksOut>
						<file id="file-57"/>
						<sourcetrack>
							<mediatype>audio</mediatype>
							<trackindex>1</trackindex>
						</sourcetrack>
						<logginginfo>
							<description></description>
							<scene></scene>
							<shottake></shottake>
							<lognote></lognote>
						</logginginfo>
						<labels>
							<label2>Caribbean</label2>
						</labels>
					</clipitem>
					<clipitem id="clipitem-1379" premiereChannelType="mono">
						<masterclipid>masterclip-61</masterclipid>
						<name>Publ 1 V_02.wav</name>
						<enabled>TRUE</enabled>
						<duration>171138</duration>
						<rate>
							<timebase>25</timebase>
							<ntsc>FALSE</ntsc>
						</rate>
						<start>24241</start>
						<end>24388</end>
						<in>95094</in>
						<out>95241</out>
						<pproTicksIn>966215900160000</pproTicksIn>
						<pproTicksOut>967709514240000</pproTicksOut>
						<file id="file-57"/>
						<sourcetrack>
							<mediatype>audio</mediatype>
							<trackindex>1</trackindex>
						</sourcetrack>
						<logginginfo>
							<description></description>
							<scene></scene>
							<shottake></shottake>
							<lognote></lognote>
						</logginginfo>
						<labels>
							<label2>Caribbean</label2>
						</labels>
					</clipitem>
					<clipitem id="clipitem-1380" premiereChannelType="mono">
						<masterclipid>masterclip-61</masterclipid>
						<name>Publ 1 V_02.wav</name>
						<enabled>TRUE</enabled>
						<duration>171138</duration>
						<rate>
							<timebase>25</timebase>
							<ntsc>FALSE</ntsc>
						</rate>
						<start>24388</start>
						<end>24600</end>
						<in>95265</in>
						<out>95477</out>
						<pproTicksIn>967953369600000</pproTicksIn>
						<pproTicksOut>970107425280000</pproTicksOut>
						<file id="file-57"/>
						<sourcetrack>
							<mediatype>audio</mediatype>
							<trackindex>1</trackindex>
						</sourcetrack>
						<logginginfo>
							<description></description>
							<scene></scene>
							<shottake></shottake>
							<lognote></lognote>
						</logginginfo>
						<labels>
							<label2>Caribbean</label2>
						</labels>
					</clipitem>
					<clipitem id="clipitem-1381" premiereChannelType="mono">
						<masterclipid>masterclip-61</masterclipid>
						<name>Publ 1 V_02.wav</name>
						<enabled>TRUE</enabled>
						<duration>171138</duration>
						<rate>
							<timebase>25</timebase>
							<ntsc>FALSE</ntsc>
						</rate>
						<start>24600</start>
						<end>24872</end>
						<in>95504</in>
						<out>95776</out>
						<pproTicksIn>970381762560000</pproTicksIn>
						<pproTicksOut>973145456640000</pproTicksOut>
						<file id="file-57"/>
						<sourcetrack>
							<mediatype>audio</mediatype>
							<trackindex>1</trackindex>
						</sourcetrack>
						<logginginfo>
							<description></description>
							<scene></scene>
							<shottake></shottake>
							<lognote></lognote>
						</logginginfo>
						<labels>
							<label2>Caribbean</label2>
						</labels>
					</clipitem>
					<clipitem id="clipitem-1382" premiereChannelType="mono">
						<masterclipid>masterclip-61</masterclipid>
						<name>Publ 1 V_02.wav</name>
						<enabled>TRUE</enabled>
						<duration>171138</duration>
						<rate>
							<timebase>25</timebase>
							<ntsc>FALSE</ntsc>
						</rate>
						<start>24872</start>
						<end>26291</end>
						<in>95789</in>
						<out>97208</out>
						<pproTicksIn>973277544960000</pproTicksIn>
						<pproTicksOut>987695493120000</pproTicksOut>
						<file id="file-57"/>
						<sourcetrack>
							<mediatype>audio</mediatype>
							<trackindex>1</trackindex>
						</sourcetrack>
						<logginginfo>
							<description></description>
							<scene></scene>
							<shottake></shottake>
							<lognote></lognote>
						</logginginfo>
						<labels>
							<label2>Caribbean</label2>
						</labels>
					</clipitem>
					<clipitem id="clipitem-1383" premiereChannelType="mono">
						<masterclipid>masterclip-61</masterclipid>
						<name>Publ 1 V_02.wav</name>
						<enabled>TRUE</enabled>
						<duration>171138</duration>
						<rate>
							<timebase>25</timebase>
							<ntsc>FALSE</ntsc>
						</rate>
						<start>26291</start>
						<end>26387</end>
						<in>97273</in>
						<out>97369</out>
						<pproTicksIn>988355934720000</pproTicksIn>
						<pproTicksOut>989331356160000</pproTicksOut>
						<file id="file-57"/>
						<sourcetrack>
							<mediatype>audio</mediatype>
							<trackindex>1</trackindex>
						</sourcetrack>
						<logginginfo>
							<description></description>
							<scene></scene>
							<shottake></shottake>
							<lognote></lognote>
						</logginginfo>
						<labels>
							<label2>Caribbean</label2>
						</labels>
					</clipitem>
					<clipitem id="clipitem-1384" premiereChannelType="mono">
						<masterclipid>masterclip-61</masterclipid>
						<name>Publ 1 V_02.wav</name>
						<enabled>TRUE</enabled>
						<duration>171138</duration>
						<rate>
							<timebase>25</timebase>
							<ntsc>FALSE</ntsc>
						</rate>
						<start>26387</start>
						<end>27111</end>
						<in>97523</in>
						<out>98247</out>
						<pproTicksIn>990896094720000</pproTicksIn>
						<pproTicksOut>998252398080000</pproTicksOut>
						<file id="file-57"/>
						<sourcetrack>
							<mediatype>audio</mediatype>
							<trackindex>1</trackindex>
						</sourcetrack>
						<logginginfo>
							<description></description>
							<scene></scene>
							<shottake></shottake>
							<lognote></lognote>
						</logginginfo>
						<labels>
							<label2>Caribbean</label2>
						</labels>
					</clipitem>
					<clipitem id="clipitem-1385" premiereChannelType="mono">
						<masterclipid>masterclip-61</masterclipid>
						<name>Publ 1 V_02.wav</name>
						<enabled>TRUE</enabled>
						<duration>171138</duration>
						<rate>
							<timebase>25</timebase>
							<ntsc>FALSE</ntsc>
						</rate>
						<start>27111</start>
						<end>27316</end>
						<in>98260</in>
						<out>98465</out>
						<pproTicksIn>998384486400000</pproTicksIn>
						<pproTicksOut>1000467417600000</pproTicksOut>
						<file id="file-57"/>
						<sourcetrack>
							<mediatype>audio</mediatype>
							<trackindex>1</trackindex>
						</sourcetrack>
						<logginginfo>
							<description></description>
							<scene></scene>
							<shottake></shottake>
							<lognote></lognote>
						</logginginfo>
						<labels>
							<label2>Caribbean</label2>
						</labels>
					</clipitem>
					<clipitem id="clipitem-1386" premiereChannelType="mono">
						<masterclipid>masterclip-61</masterclipid>
						<name>Publ 1 V_02.wav</name>
						<enabled>TRUE</enabled>
						<duration>171138</duration>
						<rate>
							<timebase>25</timebase>
							<ntsc>FALSE</ntsc>
						</rate>
						<start>27316</start>
						<end>27702</end>
						<in>98958</in>
						<out>99344</out>
						<pproTicksIn>1005476613120000</pproTicksIn>
						<pproTicksOut>1009398620160000</pproTicksOut>
						<file id="file-57"/>
						<sourcetrack>
							<mediatype>audio</mediatype>
							<trackindex>1</trackindex>
						</sourcetrack>
						<logginginfo>
							<description></description>
							<scene></scene>
							<shottake></shottake>
							<lognote></lognote>
						</logginginfo>
						<labels>
							<label2>Caribbean</label2>
						</labels>
					</clipitem>
					<clipitem id="clipitem-1387" premiereChannelType="mono">
						<masterclipid>masterclip-61</masterclipid>
						<name>Publ 1 V_02.wav</name>
						<enabled>TRUE</enabled>
						<duration>171138</duration>
						<rate>
							<timebase>25</timebase>
							<ntsc>FALSE</ntsc>
						</rate>
						<start>27702</start>
						<end>27789</end>
						<in>99640</in>
						<out>99727</out>
						<pproTicksIn>1012406169600000</pproTicksIn>
						<pproTicksOut>1013290145280000</pproTicksOut>
						<file id="file-57"/>
						<sourcetrack>
							<mediatype>audio</mediatype>
							<trackindex>1</trackindex>
						</sourcetrack>
						<logginginfo>
							<description></description>
							<scene></scene>
							<shottake></shottake>
							<lognote></lognote>
						</logginginfo>
						<labels>
							<label2>Caribbean</label2>
						</labels>
					</clipitem>
					<clipitem id="clipitem-1388" premiereChannelType="mono">
						<masterclipid>masterclip-61</masterclipid>
						<name>Publ 1 V_02.wav</name>
						<enabled>TRUE</enabled>
						<duration>171138</duration>
						<rate>
							<timebase>25</timebase>
							<ntsc>FALSE</ntsc>
						</rate>
						<start>27789</start>
						<end>29601</end>
						<in>99831</in>
						<out>101643</out>
						<pproTicksIn>1014346851840000</pproTicksIn>
						<pproTicksOut>1032757931520000</pproTicksOut>
						<file id="file-57"/>
						<sourcetrack>
							<mediatype>audio</mediatype>
							<trackindex>1</trackindex>
						</sourcetrack>
						<logginginfo>
							<description></description>
							<scene></scene>
							<shottake></shottake>
							<lognote></lognote>
						</logginginfo>
						<labels>
							<label2>Caribbean</label2>
						</labels>
					</clipitem>
					<clipitem id="clipitem-1389" premiereChannelType="mono">
						<masterclipid>masterclip-61</masterclipid>
						<name>Publ 1 V_02.wav</name>
						<enabled>TRUE</enabled>
						<duration>171138</duration>
						<rate>
							<timebase>25</timebase>
							<ntsc>FALSE</ntsc>
						</rate>
						<start>29601</start>
						<end>29693</end>
						<in>102540</in>
						<out>102632</out>
						<pproTicksIn>1041872025600000</pproTicksIn>
						<pproTicksOut>1042806804480000</pproTicksOut>
						<file id="file-57"/>
						<sourcetrack>
							<mediatype>audio</mediatype>
							<trackindex>1</trackindex>
						</sourcetrack>
						<logginginfo>
							<description></description>
							<scene></scene>
							<shottake></shottake>
							<lognote></lognote>
						</logginginfo>
						<labels>
							<label2>Caribbean</label2>
						</labels>
					</clipitem>
					<clipitem id="clipitem-1390" premiereChannelType="mono">
						<masterclipid>masterclip-61</masterclipid>
						<name>Publ 1 V_02.wav</name>
						<enabled>TRUE</enabled>
						<duration>171138</duration>
						<rate>
							<timebase>25</timebase>
							<ntsc>FALSE</ntsc>
						</rate>
						<start>29693</start>
						<end>29760</end>
						<in>103317</in>
						<out>103384</out>
						<pproTicksIn>1049766842880000</pproTicksIn>
						<pproTicksOut>1050447605760000</pproTicksOut>
						<file id="file-57"/>
						<sourcetrack>
							<mediatype>audio</mediatype>
							<trackindex>1</trackindex>
						</sourcetrack>
						<logginginfo>
							<description></description>
							<scene></scene>
							<shottake></shottake>
							<lognote></lognote>
						</logginginfo>
						<labels>
							<label2>Caribbean</label2>
						</labels>
					</clipitem>
					<clipitem id="clipitem-1391" premiereChannelType="mono">
						<masterclipid>masterclip-61</masterclipid>
						<name>Publ 1 V_02.wav</name>
						<enabled>TRUE</enabled>
						<duration>171138</duration>
						<rate>
							<timebase>25</timebase>
							<ntsc>FALSE</ntsc>
						</rate>
						<start>29760</start>
						<end>29774</end>
						<in>103438</in>
						<out>103452</out>
						<pproTicksIn>1050996280320000</pproTicksIn>
						<pproTicksOut>1051138529280000</pproTicksOut>
						<file id="file-57"/>
						<sourcetrack>
							<mediatype>audio</mediatype>
							<trackindex>1</trackindex>
						</sourcetrack>
						<logginginfo>
							<description></description>
							<scene></scene>
							<shottake></shottake>
							<lognote></lognote>
						</logginginfo>
						<labels>
							<label2>Caribbean</label2>
						</labels>
					</clipitem>
					<clipitem id="clipitem-1392" premiereChannelType="mono">
						<masterclipid>masterclip-61</masterclipid>
						<name>Publ 1 V_02.wav</name>
						<enabled>TRUE</enabled>
						<duration>171138</duration>
						<rate>
							<timebase>25</timebase>
							<ntsc>FALSE</ntsc>
						</rate>
						<start>29774</start>
						<end>29865</end>
						<in>107326</in>
						<out>107417</out>
						<pproTicksIn>1090500848640000</pproTicksIn>
						<pproTicksOut>1091425466880000</pproTicksOut>
						<file id="file-57"/>
						<sourcetrack>
							<mediatype>audio</mediatype>
							<trackindex>1</trackindex>
						</sourcetrack>
						<logginginfo>
							<description></description>
							<scene></scene>
							<shottake></shottake>
							<lognote></lognote>
						</logginginfo>
						<labels>
							<label2>Caribbean</label2>
						</labels>
					</clipitem>
					<clipitem id="clipitem-1393" premiereChannelType="mono">
						<masterclipid>masterclip-61</masterclipid>
						<name>Publ 1 V_02.wav</name>
						<enabled>TRUE</enabled>
						<duration>171138</duration>
						<rate>
							<timebase>25</timebase>
							<ntsc>FALSE</ntsc>
						</rate>
						<start>29865</start>
						<end>30769</end>
						<in>107708</in>
						<out>108612</out>
						<pproTicksIn>1094382213120000</pproTicksIn>
						<pproTicksOut>1103567431680000</pproTicksOut>
						<file id="file-57"/>
						<sourcetrack>
							<mediatype>audio</mediatype>
							<trackindex>1</trackindex>
						</sourcetrack>
						<logginginfo>
							<description></description>
							<scene></scene>
							<shottake></shottake>
							<lognote></lognote>
						</logginginfo>
						<labels>
							<label2>Caribbean</label2>
						</labels>
					</clipitem>
					<clipitem id="clipitem-1394" premiereChannelType="mono">
						<masterclipid>masterclip-61</masterclipid>
						<name>Publ 1 V_02.wav</name>
						<enabled>TRUE</enabled>
						<duration>171138</duration>
						<rate>
							<timebase>25</timebase>
							<ntsc>FALSE</ntsc>
						</rate>
						<start>30769</start>
						<end>30880</end>
						<in>108644</in>
						<out>108755</out>
						<pproTicksIn>1103892572160000</pproTicksIn>
						<pproTicksOut>1105020403200000</pproTicksOut>
						<file id="file-57"/>
						<sourcetrack>
							<mediatype>audio</mediatype>
							<trackindex>1</trackindex>
						</sourcetrack>
						<logginginfo>
							<description></description>
							<scene></scene>
							<shottake></shottake>
							<lognote></lognote>
						</logginginfo>
						<labels>
							<label2>Caribbean</label2>
						</labels>
					</clipitem>
					<clipitem id="clipitem-1395" premiereChannelType="mono">
						<masterclipid>masterclip-61</masterclipid>
						<name>Publ 1 V_02.wav</name>
						<enabled>TRUE</enabled>
						<duration>171138</duration>
						<rate>
							<timebase>25</timebase>
							<ntsc>FALSE</ntsc>
						</rate>
						<start>30880</start>
						<end>31513</end>
						<in>108776</in>
						<out>109409</out>
						<pproTicksIn>1105233776640000</pproTicksIn>
						<pproTicksOut>1111665461760000</pproTicksOut>
						<file id="file-57"/>
						<sourcetrack>
							<mediatype>audio</mediatype>
							<trackindex>1</trackindex>
						</sourcetrack>
						<logginginfo>
							<description></description>
							<scene></scene>
							<shottake></shottake>
							<lognote></lognote>
						</logginginfo>
						<labels>
							<label2>Caribbean</label2>
						</labels>
					</clipitem>
					<clipitem id="clipitem-1396" premiereChannelType="mono">
						<masterclipid>masterclip-61</masterclipid>
						<name>Publ 1 V_02.wav</name>
						<enabled>TRUE</enabled>
						<duration>171138</duration>
						<rate>
							<timebase>25</timebase>
							<ntsc>FALSE</ntsc>
						</rate>
						<start>31513</start>
						<end>31909</end>
						<in>109447</in>
						<out>109843</out>
						<pproTicksIn>1112051566080000</pproTicksIn>
						<pproTicksOut>1116075179520000</pproTicksOut>
						<file id="file-57"/>
						<sourcetrack>
							<mediatype>audio</mediatype>
							<trackindex>1</trackindex>
						</sourcetrack>
						<logginginfo>
							<description></description>
							<scene></scene>
							<shottake></shottake>
							<lognote></lognote>
						</logginginfo>
						<labels>
							<label2>Caribbean</label2>
						</labels>
					</clipitem>
					<clipitem id="clipitem-1397" premiereChannelType="mono">
						<masterclipid>masterclip-61</masterclipid>
						<name>Publ 1 V_02.wav</name>
						<enabled>TRUE</enabled>
						<duration>171138</duration>
						<rate>
							<timebase>25</timebase>
							<ntsc>FALSE</ntsc>
						</rate>
						<start>31909</start>
						<end>32128</end>
						<in>109926</in>
						<out>110145</out>
						<pproTicksIn>1116918512640000</pproTicksIn>
						<pproTicksOut>1119143692800000</pproTicksOut>
						<file id="file-57"/>
						<sourcetrack>
							<mediatype>audio</mediatype>
							<trackindex>1</trackindex>
						</sourcetrack>
						<logginginfo>
							<description></description>
							<scene></scene>
							<shottake></shottake>
							<lognote></lognote>
						</logginginfo>
						<labels>
							<label2>Caribbean</label2>
						</labels>
					</clipitem>
					<clipitem id="clipitem-1398" premiereChannelType="mono">
						<masterclipid>masterclip-61</masterclipid>
						<name>Publ 1 V_02.wav</name>
						<enabled>TRUE</enabled>
						<duration>171138</duration>
						<rate>
							<timebase>25</timebase>
							<ntsc>FALSE</ntsc>
						</rate>
						<start>32128</start>
						<end>32853</end>
						<in>111277</in>
						<out>112002</out>
						<pproTicksIn>1130645537280000</pproTicksIn>
						<pproTicksOut>1138012001280000</pproTicksOut>
						<file id="file-57"/>
						<sourcetrack>
							<mediatype>audio</mediatype>
							<trackindex>1</trackindex>
						</sourcetrack>
						<logginginfo>
							<description></description>
							<scene></scene>
							<shottake></shottake>
							<lognote></lognote>
						</logginginfo>
						<labels>
							<label2>Caribbean</label2>
						</labels>
					</clipitem>
					<clipitem id="clipitem-1399" premiereChannelType="mono">
						<masterclipid>masterclip-61</masterclipid>
						<name>Publ 1 V_02.wav</name>
						<enabled>TRUE</enabled>
						<duration>171138</duration>
						<rate>
							<timebase>25</timebase>
							<ntsc>FALSE</ntsc>
						</rate>
						<start>32853</start>
						<end>32890</end>
						<in>112002</in>
						<out>112039</out>
						<pproTicksIn>1138012001280000</pproTicksIn>
						<pproTicksOut>1138387944960000</pproTicksOut>
						<file id="file-57"/>
						<sourcetrack>
							<mediatype>audio</mediatype>
							<trackindex>1</trackindex>
						</sourcetrack>
						<logginginfo>
							<description></description>
							<scene></scene>
							<shottake></shottake>
							<lognote></lognote>
						</logginginfo>
						<labels>
							<label2>Caribbean</label2>
						</labels>
					</clipitem>
					<clipitem id="clipitem-1400" premiereChannelType="mono">
						<masterclipid>masterclip-61</masterclipid>
						<name>Publ 1 V_02.wav</name>
						<enabled>TRUE</enabled>
						<duration>171138</duration>
						<rate>
							<timebase>25</timebase>
							<ntsc>FALSE</ntsc>
						</rate>
						<start>32890</start>
						<end>33281</end>
						<in>115277</in>
						<out>115668</out>
						<pproTicksIn>1171288097280000</pproTicksIn>
						<pproTicksOut>1175260907520000</pproTicksOut>
						<file id="file-57"/>
						<sourcetrack>
							<mediatype>audio</mediatype>
							<trackindex>1</trackindex>
						</sourcetrack>
						<logginginfo>
							<description></description>
							<scene></scene>
							<shottake></shottake>
							<lognote></lognote>
						</logginginfo>
						<labels>
							<label2>Caribbean</label2>
						</labels>
					</clipitem>
					<clipitem id="clipitem-1401" premiereChannelType="mono">
						<masterclipid>masterclip-61</masterclipid>
						<name>Publ 1 V_02.wav</name>
						<enabled>TRUE</enabled>
						<duration>171138</duration>
						<rate>
							<timebase>25</timebase>
							<ntsc>FALSE</ntsc>
						</rate>
						<start>33281</start>
						<end>33357</end>
						<in>116203</in>
						<out>116279</out>
						<pproTicksIn>1180696849920000</pproTicksIn>
						<pproTicksOut>1181469058560000</pproTicksOut>
						<file id="file-57"/>
						<sourcetrack>
							<mediatype>audio</mediatype>
							<trackindex>1</trackindex>
						</sourcetrack>
						<logginginfo>
							<description></description>
							<scene></scene>
							<shottake></shottake>
							<lognote></lognote>
						</logginginfo>
						<labels>
							<label2>Caribbean</label2>
						</labels>
					</clipitem>
					<clipitem id="clipitem-1402" premiereChannelType="mono">
						<masterclipid>masterclip-61</masterclipid>
						<name>Publ 1 V_02.wav</name>
						<enabled>TRUE</enabled>
						<duration>171138</duration>
						<rate>
							<timebase>25</timebase>
							<ntsc>FALSE</ntsc>
						</rate>
						<start>33357</start>
						<end>33465</end>
						<in>116298</in>
						<out>116406</out>
						<pproTicksIn>1181662110720000</pproTicksIn>
						<pproTicksOut>1182759459840000</pproTicksOut>
						<file id="file-57"/>
						<sourcetrack>
							<mediatype>audio</mediatype>
							<trackindex>1</trackindex>
						</sourcetrack>
						<logginginfo>
							<description></description>
							<scene></scene>
							<shottake></shottake>
							<lognote></lognote>
						</logginginfo>
						<labels>
							<label2>Caribbean</label2>
						</labels>
					</clipitem>
					<clipitem id="clipitem-1403" premiereChannelType="mono">
						<masterclipid>masterclip-61</masterclipid>
						<name>Publ 1 V_02.wav</name>
						<enabled>TRUE</enabled>
						<duration>171138</duration>
						<rate>
							<timebase>25</timebase>
							<ntsc>FALSE</ntsc>
						</rate>
						<start>33465</start>
						<end>33766</end>
						<in>116510</in>
						<out>116811</out>
						<pproTicksIn>1183816166400000</pproTicksIn>
						<pproTicksOut>1186874519040000</pproTicksOut>
						<file id="file-57"/>
						<sourcetrack>
							<mediatype>audio</mediatype>
							<trackindex>1</trackindex>
						</sourcetrack>
						<logginginfo>
							<description></description>
							<scene></scene>
							<shottake></shottake>
							<lognote></lognote>
						</logginginfo>
						<labels>
							<label2>Caribbean</label2>
						</labels>
					</clipitem>
					<clipitem id="clipitem-1404" premiereChannelType="mono">
						<masterclipid>masterclip-61</masterclipid>
						<name>Publ 1 V_02.wav</name>
						<enabled>TRUE</enabled>
						<duration>171138</duration>
						<rate>
							<timebase>25</timebase>
							<ntsc>FALSE</ntsc>
						</rate>
						<start>33766</start>
						<end>33992</end>
						<in>116811</in>
						<out>117037</out>
						<pproTicksIn>1186874519040000</pproTicksIn>
						<pproTicksOut>1189170823680000</pproTicksOut>
						<file id="file-57"/>
						<sourcetrack>
							<mediatype>audio</mediatype>
							<trackindex>1</trackindex>
						</sourcetrack>
						<logginginfo>
							<description></description>
							<scene></scene>
							<shottake></shottake>
							<lognote></lognote>
						</logginginfo>
						<labels>
							<label2>Caribbean</label2>
						</labels>
					</clipitem>
					<clipitem id="clipitem-1405" premiereChannelType="mono">
						<masterclipid>masterclip-61</masterclipid>
						<name>Publ 1 V_02.wav</name>
						<enabled>TRUE</enabled>
						<duration>171138</duration>
						<rate>
							<timebase>25</timebase>
							<ntsc>FALSE</ntsc>
						</rate>
						<start>33992</start>
						<end>34035</end>
						<in>117226</in>
						<out>117269</out>
						<pproTicksIn>1191091184640000</pproTicksIn>
						<pproTicksOut>1191528092160000</pproTicksOut>
						<file id="file-57"/>
						<sourcetrack>
							<mediatype>audio</mediatype>
							<trackindex>1</trackindex>
						</sourcetrack>
						<logginginfo>
							<description></description>
							<scene></scene>
							<shottake></shottake>
							<lognote></lognote>
						</logginginfo>
						<labels>
							<label2>Caribbean</label2>
						</labels>
					</clipitem>
					<clipitem id="clipitem-1406" premiereChannelType="mono">
						<masterclipid>masterclip-61</masterclipid>
						<name>Publ 1 V_02.wav</name>
						<enabled>TRUE</enabled>
						<duration>171138</duration>
						<rate>
							<timebase>25</timebase>
							<ntsc>FALSE</ntsc>
						</rate>
						<start>34035</start>
						<end>34790</end>
						<in>117633</in>
						<out>118388</out>
						<pproTicksIn>1195226565120000</pproTicksIn>
						<pproTicksOut>1202897848320000</pproTicksOut>
						<file id="file-57"/>
						<sourcetrack>
							<mediatype>audio</mediatype>
							<trackindex>1</trackindex>
						</sourcetrack>
						<logginginfo>
							<description></description>
							<scene></scene>
							<shottake></shottake>
							<lognote></lognote>
						</logginginfo>
						<labels>
							<label2>Caribbean</label2>
						</labels>
					</clipitem>
					<clipitem id="clipitem-1407" premiereChannelType="mono">
						<masterclipid>masterclip-61</masterclipid>
						<name>Publ 1 V_02.wav</name>
						<enabled>TRUE</enabled>
						<duration>171138</duration>
						<rate>
							<timebase>25</timebase>
							<ntsc>FALSE</ntsc>
						</rate>
						<start>34790</start>
						<end>35299</end>
						<in>118612</in>
						<out>119121</out>
						<pproTicksIn>1205173831680000</pproTicksIn>
						<pproTicksOut>1210345597440000</pproTicksOut>
						<file id="file-57"/>
						<sourcetrack>
							<mediatype>audio</mediatype>
							<trackindex>1</trackindex>
						</sourcetrack>
						<logginginfo>
							<description></description>
							<scene></scene>
							<shottake></shottake>
							<lognote></lognote>
						</logginginfo>
						<labels>
							<label2>Caribbean</label2>
						</labels>
					</clipitem>
					<clipitem id="clipitem-1408" premiereChannelType="mono">
						<masterclipid>masterclip-61</masterclipid>
						<name>Publ 1 V_02.wav</name>
						<enabled>TRUE</enabled>
						<duration>171138</duration>
						<rate>
							<timebase>25</timebase>
							<ntsc>FALSE</ntsc>
						</rate>
						<start>35299</start>
						<end>35672</end>
						<in>119201</in>
						<out>119574</out>
						<pproTicksIn>1211158448640000</pproTicksIn>
						<pproTicksOut>1214948367360000</pproTicksOut>
						<file id="file-57"/>
						<sourcetrack>
							<mediatype>audio</mediatype>
							<trackindex>1</trackindex>
						</sourcetrack>
						<logginginfo>
							<description></description>
							<scene></scene>
							<shottake></shottake>
							<lognote></lognote>
						</logginginfo>
						<labels>
							<label2>Caribbean</label2>
						</labels>
					</clipitem>
					<clipitem id="clipitem-1409" premiereChannelType="mono">
						<masterclipid>masterclip-61</masterclipid>
						<name>Publ 1 V_02.wav</name>
						<enabled>TRUE</enabled>
						<duration>171138</duration>
						<rate>
							<timebase>25</timebase>
							<ntsc>FALSE</ntsc>
						</rate>
						<start>35672</start>
						<end>36434</end>
						<in>119583</in>
						<out>120345</out>
						<pproTicksIn>1215039813120000</pproTicksIn>
						<pproTicksOut>1222782220800000</pproTicksOut>
						<file id="file-57"/>
						<sourcetrack>
							<mediatype>audio</mediatype>
							<trackindex>1</trackindex>
						</sourcetrack>
						<logginginfo>
							<description></description>
							<scene></scene>
							<shottake></shottake>
							<lognote></lognote>
						</logginginfo>
						<labels>
							<label2>Caribbean</label2>
						</labels>
					</clipitem>
					<clipitem id="clipitem-1410" premiereChannelType="mono">
						<masterclipid>masterclip-61</masterclipid>
						<name>Publ 1 V_02.wav</name>
						<enabled>TRUE</enabled>
						<duration>171138</duration>
						<rate>
							<timebase>25</timebase>
							<ntsc>FALSE</ntsc>
						</rate>
						<start>36434</start>
						<end>36524</end>
						<in>120539</in>
						<out>120629</out>
						<pproTicksIn>1224753384960000</pproTicksIn>
						<pproTicksOut>1225667842560000</pproTicksOut>
						<file id="file-57"/>
						<sourcetrack>
							<mediatype>audio</mediatype>
							<trackindex>1</trackindex>
						</sourcetrack>
						<logginginfo>
							<description></description>
							<scene></scene>
							<shottake></shottake>
							<lognote></lognote>
						</logginginfo>
						<labels>
							<label2>Caribbean</label2>
						</labels>
					</clipitem>
					<clipitem id="clipitem-1411" premiereChannelType="mono">
						<masterclipid>masterclip-61</masterclipid>
						<name>Publ 1 V_02.wav</name>
						<enabled>TRUE</enabled>
						<duration>171138</duration>
						<rate>
							<timebase>25</timebase>
							<ntsc>FALSE</ntsc>
						</rate>
						<start>36524</start>
						<end>37155</end>
						<in>124899</in>
						<out>125530</out>
						<pproTicksIn>1269053775360000</pproTicksIn>
						<pproTicksOut>1275465139200000</pproTicksOut>
						<file id="file-57"/>
						<sourcetrack>
							<mediatype>audio</mediatype>
							<trackindex>1</trackindex>
						</sourcetrack>
						<logginginfo>
							<description></description>
							<scene></scene>
							<shottake></shottake>
							<lognote></lognote>
						</logginginfo>
						<labels>
							<label2>Caribbean</label2>
						</labels>
					</clipitem>
					<clipitem id="clipitem-1412" premiereChannelType="mono">
						<masterclipid>masterclip-61</masterclipid>
						<name>Publ 1 V_02.wav</name>
						<enabled>TRUE</enabled>
						<duration>171138</duration>
						<rate>
							<timebase>25</timebase>
							<ntsc>FALSE</ntsc>
						</rate>
						<start>37732</start>
						<end>40503</end>
						<in>126107</in>
						<out>128878</out>
						<pproTicksIn>1281327828480000</pproTicksIn>
						<pproTicksOut>1309482961920000</pproTicksOut>
						<file id="file-57"/>
						<sourcetrack>
							<mediatype>audio</mediatype>
							<trackindex>1</trackindex>
						</sourcetrack>
						<logginginfo>
							<description></description>
							<scene></scene>
							<shottake></shottake>
							<lognote></lognote>
						</logginginfo>
						<labels>
							<label2>Caribbean</label2>
						</labels>
					</clipitem>
					<clipitem id="clipitem-1413" premiereChannelType="mono">
						<masterclipid>masterclip-61</masterclipid>
						<name>Publ 1 V_02.wav</name>
						<enabled>TRUE</enabled>
						<duration>171138</duration>
						<rate>
							<timebase>25</timebase>
							<ntsc>FALSE</ntsc>
						</rate>
						<start>40503</start>
						<end>40839</end>
						<in>128926</in>
						<out>129262</out>
						<pproTicksIn>1309970672640000</pproTicksIn>
						<pproTicksOut>1313384647680000</pproTicksOut>
						<file id="file-57"/>
						<sourcetrack>
							<mediatype>audio</mediatype>
							<trackindex>1</trackindex>
						</sourcetrack>
						<logginginfo>
							<description></description>
							<scene></scene>
							<shottake></shottake>
							<lognote></lognote>
						</logginginfo>
						<labels>
							<label2>Caribbean</label2>
						</labels>
					</clipitem>
					<clipitem id="clipitem-1414" premiereChannelType="mono">
						<masterclipid>masterclip-61</masterclipid>
						<name>Publ 1 V_02.wav</name>
						<enabled>TRUE</enabled>
						<duration>171138</duration>
						<rate>
							<timebase>25</timebase>
							<ntsc>FALSE</ntsc>
						</rate>
						<start>40839</start>
						<end>41006</end>
						<in>129262</in>
						<out>129429</out>
						<pproTicksIn>1313384647680000</pproTicksIn>
						<pproTicksOut>1315081474560000</pproTicksOut>
						<file id="file-57"/>
						<sourcetrack>
							<mediatype>audio</mediatype>
							<trackindex>1</trackindex>
						</sourcetrack>
						<logginginfo>
							<description></description>
							<scene></scene>
							<shottake></shottake>
							<lognote></lognote>
						</logginginfo>
						<labels>
							<label2>Caribbean</label2>
						</labels>
					</clipitem>
					<clipitem id="clipitem-1415" premiereChannelType="mono">
						<masterclipid>masterclip-61</masterclipid>
						<name>Publ 1 V_02.wav</name>
						<enabled>TRUE</enabled>
						<duration>171138</duration>
						<rate>
							<timebase>25</timebase>
							<ntsc>FALSE</ntsc>
						</rate>
						<start>41006</start>
						<end>41144</end>
						<in>129476</in>
						<out>129614</out>
						<pproTicksIn>1315559024640000</pproTicksIn>
						<pproTicksOut>1316961192960000</pproTicksOut>
						<file id="file-57"/>
						<sourcetrack>
							<mediatype>audio</mediatype>
							<trackindex>1</trackindex>
						</sourcetrack>
						<logginginfo>
							<description></description>
							<scene></scene>
							<shottake></shottake>
							<lognote></lognote>
						</logginginfo>
						<labels>
							<label2>Caribbean</label2>
						</labels>
					</clipitem>
					<clipitem id="clipitem-1416" premiereChannelType="mono">
						<masterclipid>masterclip-61</masterclipid>
						<name>Publ 1 V_02.wav</name>
						<enabled>TRUE</enabled>
						<duration>171138</duration>
						<rate>
							<timebase>25</timebase>
							<ntsc>FALSE</ntsc>
						</rate>
						<start>41144</start>
						<end>41720</end>
						<in>131417</in>
						<out>131993</out>
						<pproTicksIn>1335280826880000</pproTicksIn>
						<pproTicksOut>1341133355520000</pproTicksOut>
						<file id="file-57"/>
						<sourcetrack>
							<mediatype>audio</mediatype>
							<trackindex>1</trackindex>
						</sourcetrack>
						<logginginfo>
							<description></description>
							<scene></scene>
							<shottake></shottake>
							<lognote></lognote>
						</logginginfo>
						<labels>
							<label2>Caribbean</label2>
						</labels>
					</clipitem>
					<clipitem id="clipitem-1417" premiereChannelType="mono">
						<masterclipid>masterclip-61</masterclipid>
						<name>Publ 1 V_02.wav</name>
						<enabled>TRUE</enabled>
						<duration>171138</duration>
						<rate>
							<timebase>25</timebase>
							<ntsc>FALSE</ntsc>
						</rate>
						<start>41720</start>
						<end>42122</end>
						<in>132051</in>
						<out>132453</out>
						<pproTicksIn>1341722672640000</pproTicksIn>
						<pproTicksOut>1345807249920000</pproTicksOut>
						<file id="file-57"/>
						<sourcetrack>
							<mediatype>audio</mediatype>
							<trackindex>1</trackindex>
						</sourcetrack>
						<logginginfo>
							<description></description>
							<scene></scene>
							<shottake></shottake>
							<lognote></lognote>
						</logginginfo>
						<labels>
							<label2>Caribbean</label2>
						</labels>
					</clipitem>
					<clipitem id="clipitem-1418" premiereChannelType="mono">
						<masterclipid>masterclip-61</masterclipid>
						<name>Publ 1 V_02.wav</name>
						<enabled>TRUE</enabled>
						<duration>171138</duration>
						<rate>
							<timebase>25</timebase>
							<ntsc>FALSE</ntsc>
						</rate>
						<start>42122</start>
						<end>42277</end>
						<in>132657</in>
						<out>132812</out>
						<pproTicksIn>1347880020480000</pproTicksIn>
						<pproTicksOut>1349454919680000</pproTicksOut>
						<file id="file-57"/>
						<sourcetrack>
							<mediatype>audio</mediatype>
							<trackindex>1</trackindex>
						</sourcetrack>
						<logginginfo>
							<description></description>
							<scene></scene>
							<shottake></shottake>
							<lognote></lognote>
						</logginginfo>
						<labels>
							<label2>Caribbean</label2>
						</labels>
					</clipitem>
					<clipitem id="clipitem-1419" premiereChannelType="mono">
						<masterclipid>masterclip-61</masterclipid>
						<name>Publ 1 V_02.wav</name>
						<enabled>TRUE</enabled>
						<duration>171138</duration>
						<rate>
							<timebase>25</timebase>
							<ntsc>FALSE</ntsc>
						</rate>
						<start>42277</start>
						<end>42347</end>
						<in>133359</in>
						<out>133429</out>
						<pproTicksIn>1355012789760000</pproTicksIn>
						<pproTicksOut>1355724034560000</pproTicksOut>
						<file id="file-57"/>
						<sourcetrack>
							<mediatype>audio</mediatype>
							<trackindex>1</trackindex>
						</sourcetrack>
						<logginginfo>
							<description></description>
							<scene></scene>
							<shottake></shottake>
							<lognote></lognote>
						</logginginfo>
						<labels>
							<label2>Caribbean</label2>
						</labels>
					</clipitem>
					<clipitem id="clipitem-1420" premiereChannelType="mono">
						<masterclipid>masterclip-61</masterclipid>
						<name>Publ 1 V_02.wav</name>
						<enabled>TRUE</enabled>
						<duration>171138</duration>
						<rate>
							<timebase>25</timebase>
							<ntsc>FALSE</ntsc>
						</rate>
						<start>42347</start>
						<end>42499</end>
						<in>133852</in>
						<out>134004</out>
						<pproTicksIn>1360021985280000</pproTicksIn>
						<pproTicksOut>1361566402560000</pproTicksOut>
						<file id="file-57"/>
						<sourcetrack>
							<mediatype>audio</mediatype>
							<trackindex>1</trackindex>
						</sourcetrack>
						<logginginfo>
							<description></description>
							<scene></scene>
							<shottake></shottake>
							<lognote></lognote>
						</logginginfo>
						<labels>
							<label2>Caribbean</label2>
						</labels>
					</clipitem>
					<clipitem id="clipitem-1421" premiereChannelType="mono">
						<masterclipid>masterclip-61</masterclipid>
						<name>Publ 1 V_02.wav</name>
						<enabled>TRUE</enabled>
						<duration>171138</duration>
						<rate>
							<timebase>25</timebase>
							<ntsc>FALSE</ntsc>
						</rate>
						<start>42499</start>
						<end>42832</end>
						<in>134099</in>
						<out>134432</out>
						<pproTicksIn>1362531663360000</pproTicksIn>
						<pproTicksOut>1365915156480000</pproTicksOut>
						<file id="file-57"/>
						<sourcetrack>
							<mediatype>audio</mediatype>
							<trackindex>1</trackindex>
						</sourcetrack>
						<logginginfo>
							<description></description>
							<scene></scene>
							<shottake></shottake>
							<lognote></lognote>
						</logginginfo>
						<labels>
							<label2>Caribbean</label2>
						</labels>
					</clipitem>
					<clipitem id="clipitem-1422" premiereChannelType="mono">
						<masterclipid>masterclip-61</masterclipid>
						<name>Publ 1 V_02.wav</name>
						<enabled>TRUE</enabled>
						<duration>171138</duration>
						<rate>
							<timebase>25</timebase>
							<ntsc>FALSE</ntsc>
						</rate>
						<start>42832</start>
						<end>43282</end>
						<in>134992</in>
						<out>135442</out>
						<pproTicksIn>1371605114880000</pproTicksIn>
						<pproTicksOut>1376177402880000</pproTicksOut>
						<file id="file-57"/>
						<sourcetrack>
							<mediatype>audio</mediatype>
							<trackindex>1</trackindex>
						</sourcetrack>
						<logginginfo>
							<description></description>
							<scene></scene>
							<shottake></shottake>
							<lognote></lognote>
						</logginginfo>
						<labels>
							<label2>Caribbean</label2>
						</labels>
					</clipitem>
					<clipitem id="clipitem-1423" premiereChannelType="mono">
						<masterclipid>masterclip-61</masterclipid>
						<name>Publ 1 V_02.wav</name>
						<enabled>TRUE</enabled>
						<duration>171138</duration>
						<rate>
							<timebase>25</timebase>
							<ntsc>FALSE</ntsc>
						</rate>
						<start>43282</start>
						<end>43553</end>
						<in>135648</in>
						<out>135919</out>
						<pproTicksIn>1378270494720000</pproTicksIn>
						<pproTicksOut>1381024028160000</pproTicksOut>
						<file id="file-57"/>
						<sourcetrack>
							<mediatype>audio</mediatype>
							<trackindex>1</trackindex>
						</sourcetrack>
						<logginginfo>
							<description></description>
							<scene></scene>
							<shottake></shottake>
							<lognote></lognote>
						</logginginfo>
						<labels>
							<label2>Caribbean</label2>
						</labels>
					</clipitem>
					<clipitem id="clipitem-1424" premiereChannelType="mono">
						<masterclipid>masterclip-61</masterclipid>
						<name>Publ 1 V_02.wav</name>
						<enabled>TRUE</enabled>
						<duration>171138</duration>
						<rate>
							<timebase>25</timebase>
							<ntsc>FALSE</ntsc>
						</rate>
						<start>43553</start>
						<end>44385</end>
						<in>136003</in>
						<out>136835</out>
						<pproTicksIn>1381877521920000</pproTicksIn>
						<pproTicksOut>1390331174400000</pproTicksOut>
						<file id="file-57"/>
						<sourcetrack>
							<mediatype>audio</mediatype>
							<trackindex>1</trackindex>
						</sourcetrack>
						<logginginfo>
							<description></description>
							<scene></scene>
							<shottake></shottake>
							<lognote></lognote>
						</logginginfo>
						<labels>
							<label2>Caribbean</label2>
						</labels>
					</clipitem>
					<clipitem id="clipitem-1425" premiereChannelType="mono">
						<masterclipid>masterclip-61</masterclipid>
						<name>Publ 1 V_02.wav</name>
						<enabled>TRUE</enabled>
						<duration>171138</duration>
						<rate>
							<timebase>25</timebase>
							<ntsc>FALSE</ntsc>
						</rate>
						<start>44385</start>
						<end>44583</end>
						<in>137077</in>
						<out>137275</out>
						<pproTicksIn>1392790049280000</pproTicksIn>
						<pproTicksOut>1394801856000000</pproTicksOut>
						<file id="file-57"/>
						<sourcetrack>
							<mediatype>audio</mediatype>
							<trackindex>1</trackindex>
						</sourcetrack>
						<logginginfo>
							<description></description>
							<scene></scene>
							<shottake></shottake>
							<lognote></lognote>
						</logginginfo>
						<labels>
							<label2>Caribbean</label2>
						</labels>
					</clipitem>
					<clipitem id="clipitem-1426" premiereChannelType="mono">
						<masterclipid>masterclip-61</masterclipid>
						<name>Publ 1 V_02.wav</name>
						<enabled>TRUE</enabled>
						<duration>171138</duration>
						<rate>
							<timebase>25</timebase>
							<ntsc>FALSE</ntsc>
						</rate>
						<start>44583</start>
						<end>44650</end>
						<in>137376</in>
						<out>137443</out>
						<pproTicksIn>1395828080640000</pproTicksIn>
						<pproTicksOut>1396508843520000</pproTicksOut>
						<file id="file-57"/>
						<sourcetrack>
							<mediatype>audio</mediatype>
							<trackindex>1</trackindex>
						</sourcetrack>
						<logginginfo>
							<description></description>
							<scene></scene>
							<shottake></shottake>
							<lognote></lognote>
						</logginginfo>
						<labels>
							<label2>Caribbean</label2>
						</labels>
					</clipitem>
					<clipitem id="clipitem-1427" premiereChannelType="mono">
						<masterclipid>masterclip-61</masterclipid>
						<name>Publ 1 V_02.wav</name>
						<enabled>TRUE</enabled>
						<duration>171138</duration>
						<rate>
							<timebase>25</timebase>
							<ntsc>FALSE</ntsc>
						</rate>
						<start>44650</start>
						<end>45287</end>
						<in>137505</in>
						<out>138142</out>
						<pproTicksIn>1397138803200000</pproTicksIn>
						<pproTicksOut>1403611130880000</pproTicksOut>
						<file id="file-57"/>
						<sourcetrack>
							<mediatype>audio</mediatype>
							<trackindex>1</trackindex>
						</sourcetrack>
						<logginginfo>
							<description></description>
							<scene></scene>
							<shottake></shottake>
							<lognote></lognote>
						</logginginfo>
						<labels>
							<label2>Caribbean</label2>
						</labels>
					</clipitem>
					<clipitem id="clipitem-1428" premiereChannelType="mono">
						<masterclipid>masterclip-61</masterclipid>
						<name>Publ 1 V_02.wav</name>
						<enabled>TRUE</enabled>
						<duration>171138</duration>
						<rate>
							<timebase>25</timebase>
							<ntsc>FALSE</ntsc>
						</rate>
						<start>45287</start>
						<end>45692</end>
						<in>138274</in>
						<out>138679</out>
						<pproTicksIn>1404952335360000</pproTicksIn>
						<pproTicksOut>1409067394560000</pproTicksOut>
						<file id="file-57"/>
						<sourcetrack>
							<mediatype>audio</mediatype>
							<trackindex>1</trackindex>
						</sourcetrack>
						<logginginfo>
							<description></description>
							<scene></scene>
							<shottake></shottake>
							<lognote></lognote>
						</logginginfo>
						<labels>
							<label2>Caribbean</label2>
						</labels>
					</clipitem>
					<clipitem id="clipitem-1429" premiereChannelType="mono">
						<masterclipid>masterclip-61</masterclipid>
						<name>Publ 1 V_02.wav</name>
						<enabled>TRUE</enabled>
						<duration>171138</duration>
						<rate>
							<timebase>25</timebase>
							<ntsc>FALSE</ntsc>
						</rate>
						<start>45692</start>
						<end>45923</end>
						<in>138810</in>
						<out>139041</out>
						<pproTicksIn>1410398438400000</pproTicksIn>
						<pproTicksOut>1412745546240000</pproTicksOut>
						<file id="file-57"/>
						<sourcetrack>
							<mediatype>audio</mediatype>
							<trackindex>1</trackindex>
						</sourcetrack>
						<logginginfo>
							<description></description>
							<scene></scene>
							<shottake></shottake>
							<lognote></lognote>
						</logginginfo>
						<labels>
							<label2>Caribbean</label2>
						</labels>
					</clipitem>
					<clipitem id="clipitem-1430" premiereChannelType="mono">
						<masterclipid>masterclip-61</masterclipid>
						<name>Publ 1 V_02.wav</name>
						<enabled>TRUE</enabled>
						<duration>171138</duration>
						<rate>
							<timebase>25</timebase>
							<ntsc>FALSE</ntsc>
						</rate>
						<start>45923</start>
						<end>46349</end>
						<in>139073</in>
						<out>139499</out>
						<pproTicksIn>1413070686720000</pproTicksIn>
						<pproTicksOut>1417399119360000</pproTicksOut>
						<file id="file-57"/>
						<sourcetrack>
							<mediatype>audio</mediatype>
							<trackindex>1</trackindex>
						</sourcetrack>
						<logginginfo>
							<description></description>
							<scene></scene>
							<shottake></shottake>
							<lognote></lognote>
						</logginginfo>
						<labels>
							<label2>Caribbean</label2>
						</labels>
					</clipitem>
					<clipitem id="clipitem-1431" premiereChannelType="mono">
						<masterclipid>masterclip-61</masterclipid>
						<name>Publ 1 V_02.wav</name>
						<enabled>TRUE</enabled>
						<duration>171138</duration>
						<rate>
							<timebase>25</timebase>
							<ntsc>FALSE</ntsc>
						</rate>
						<start>46349</start>
						<end>46455</end>
						<in>159642</in>
						<out>159748</out>
						<pproTicksIn>1622064890880000</pproTicksIn>
						<pproTicksOut>1623141918720000</pproTicksOut>
						<file id="file-57"/>
						<sourcetrack>
							<mediatype>audio</mediatype>
							<trackindex>1</trackindex>
						</sourcetrack>
						<logginginfo>
							<description></description>
							<scene></scene>
							<shottake></shottake>
							<lognote></lognote>
						</logginginfo>
						<labels>
							<label2>Caribbean</label2>
						</labels>
					</clipitem>
					<clipitem id="clipitem-1432" premiereChannelType="mono">
						<masterclipid>masterclip-61</masterclipid>
						<name>Publ 1 V_02.wav</name>
						<enabled>TRUE</enabled>
						<duration>171138</duration>
						<rate>
							<timebase>25</timebase>
							<ntsc>FALSE</ntsc>
						</rate>
						<start>46455</start>
						<end>46911</end>
						<in>140048</in>
						<out>140504</out>
						<pproTicksIn>1422977310720000</pproTicksIn>
						<pproTicksOut>1427610562560000</pproTicksOut>
						<file id="file-57"/>
						<sourcetrack>
							<mediatype>audio</mediatype>
							<trackindex>1</trackindex>
						</sourcetrack>
						<logginginfo>
							<description></description>
							<scene></scene>
							<shottake></shottake>
							<lognote></lognote>
						</logginginfo>
						<labels>
							<label2>Caribbean</label2>
						</labels>
					</clipitem>
					<clipitem id="clipitem-1433" premiereChannelType="mono">
						<masterclipid>masterclip-61</masterclipid>
						<name>Publ 1 V_02.wav</name>
						<enabled>TRUE</enabled>
						<duration>171138</duration>
						<rate>
							<timebase>25</timebase>
							<ntsc>FALSE</ntsc>
						</rate>
						<start>46911</start>
						<end>47138</end>
						<in>140817</in>
						<out>141044</out>
						<pproTicksIn>1430790842880000</pproTicksIn>
						<pproTicksOut>1433097308160000</pproTicksOut>
						<file id="file-57"/>
						<sourcetrack>
							<mediatype>audio</mediatype>
							<trackindex>1</trackindex>
						</sourcetrack>
						<logginginfo>
							<description></description>
							<scene></scene>
							<shottake></shottake>
							<lognote></lognote>
						</logginginfo>
						<labels>
							<label2>Caribbean</label2>
						</labels>
					</clipitem>
					<clipitem id="clipitem-1434" premiereChannelType="mono">
						<masterclipid>masterclip-61</masterclipid>
						<name>Publ 1 V_02.wav</name>
						<enabled>TRUE</enabled>
						<duration>171138</duration>
						<rate>
							<timebase>25</timebase>
							<ntsc>FALSE</ntsc>
						</rate>
						<start>47138</start>
						<end>47335</end>
						<in>141203</in>
						<out>141400</out>
						<pproTicksIn>1434712849920000</pproTicksIn>
						<pproTicksOut>1436714496000000</pproTicksOut>
						<file id="file-57"/>
						<sourcetrack>
							<mediatype>audio</mediatype>
							<trackindex>1</trackindex>
						</sourcetrack>
						<logginginfo>
							<description></description>
							<scene></scene>
							<shottake></shottake>
							<lognote></lognote>
						</logginginfo>
						<labels>
							<label2>Caribbean</label2>
						</labels>
					</clipitem>
					<clipitem id="clipitem-1435" premiereChannelType="mono">
						<masterclipid>masterclip-61</masterclipid>
						<name>Publ 1 V_02.wav</name>
						<enabled>TRUE</enabled>
						<duration>171138</duration>
						<rate>
							<timebase>25</timebase>
							<ntsc>FALSE</ntsc>
						</rate>
						<start>47335</start>
						<end>47513</end>
						<in>141454</in>
						<out>141632</out>
						<pproTicksIn>1437263170560000</pproTicksIn>
						<pproTicksOut>1439071764480000</pproTicksOut>
						<file id="file-57"/>
						<sourcetrack>
							<mediatype>audio</mediatype>
							<trackindex>1</trackindex>
						</sourcetrack>
						<logginginfo>
							<description></description>
							<scene></scene>
							<shottake></shottake>
							<lognote></lognote>
						</logginginfo>
						<labels>
							<label2>Caribbean</label2>
						</labels>
					</clipitem>
					<clipitem id="clipitem-1436" premiereChannelType="mono">
						<masterclipid>masterclip-61</masterclipid>
						<name>Publ 1 V_02.wav</name>
						<enabled>TRUE</enabled>
						<duration>171138</duration>
						<rate>
							<timebase>25</timebase>
							<ntsc>FALSE</ntsc>
						</rate>
						<start>47513</start>
						<end>47723</end>
						<in>141671</in>
						<out>141881</out>
						<pproTicksIn>1439468029440000</pproTicksIn>
						<pproTicksOut>1441601763840000</pproTicksOut>
						<file id="file-57"/>
						<sourcetrack>
							<mediatype>audio</mediatype>
							<trackindex>1</trackindex>
						</sourcetrack>
						<logginginfo>
							<description></description>
							<scene></scene>
							<shottake></shottake>
							<lognote></lognote>
						</logginginfo>
						<labels>
							<label2>Caribbean</label2>
						</labels>
					</clipitem>
					<clipitem id="clipitem-1437" premiereChannelType="mono">
						<masterclipid>masterclip-61</masterclipid>
						<name>Publ 1 V_02.wav</name>
						<enabled>TRUE</enabled>
						<duration>171138</duration>
						<rate>
							<timebase>25</timebase>
							<ntsc>FALSE</ntsc>
						</rate>
						<start>47723</start>
						<end>48040</end>
						<in>141894</in>
						<out>142211</out>
						<pproTicksIn>1441733852160000</pproTicksIn>
						<pproTicksOut>1444954775040000</pproTicksOut>
						<file id="file-57"/>
						<sourcetrack>
							<mediatype>audio</mediatype>
							<trackindex>1</trackindex>
						</sourcetrack>
						<logginginfo>
							<description></description>
							<scene></scene>
							<shottake></shottake>
							<lognote></lognote>
						</logginginfo>
						<labels>
							<label2>Caribbean</label2>
						</labels>
					</clipitem>
					<clipitem id="clipitem-1438" premiereChannelType="mono">
						<masterclipid>masterclip-61</masterclipid>
						<name>Publ 1 V_02.wav</name>
						<enabled>TRUE</enabled>
						<duration>171138</duration>
						<rate>
							<timebase>25</timebase>
							<ntsc>FALSE</ntsc>
						</rate>
						<start>48040</start>
						<end>48766</end>
						<in>142351</in>
						<out>143077</out>
						<pproTicksIn>1446377264640000</pproTicksIn>
						<pproTicksOut>1453753889280000</pproTicksOut>
						<file id="file-57"/>
						<sourcetrack>
							<mediatype>audio</mediatype>
							<trackindex>1</trackindex>
						</sourcetrack>
						<logginginfo>
							<description></description>
							<scene></scene>
							<shottake></shottake>
							<lognote></lognote>
						</logginginfo>
						<labels>
							<label2>Caribbean</label2>
						</labels>
					</clipitem>
					<clipitem id="clipitem-1439" premiereChannelType="mono">
						<masterclipid>masterclip-61</masterclipid>
						<name>Publ 1 V_02.wav</name>
						<enabled>TRUE</enabled>
						<duration>171138</duration>
						<rate>
							<timebase>25</timebase>
							<ntsc>FALSE</ntsc>
						</rate>
						<start>48766</start>
						<end>49706</end>
						<in>143684</in>
						<out>144624</out>
						<pproTicksIn>1459921397760000</pproTicksIn>
						<pproTicksOut>1469472399360000</pproTicksOut>
						<file id="file-57"/>
						<sourcetrack>
							<mediatype>audio</mediatype>
							<trackindex>1</trackindex>
						</sourcetrack>
						<logginginfo>
							<description></description>
							<scene></scene>
							<shottake></shottake>
							<lognote></lognote>
						</logginginfo>
						<labels>
							<label2>Caribbean</label2>
						</labels>
					</clipitem>
					<clipitem id="clipitem-1440" premiereChannelType="mono">
						<masterclipid>masterclip-61</masterclipid>
						<name>Publ 1 V_02.wav</name>
						<enabled>TRUE</enabled>
						<duration>171138</duration>
						<rate>
							<timebase>25</timebase>
							<ntsc>FALSE</ntsc>
						</rate>
						<start>49706</start>
						<end>49762</end>
						<in>147186</in>
						<out>147242</out>
						<pproTicksIn>1495503959040000</pproTicksIn>
						<pproTicksOut>1496072954880000</pproTicksOut>
						<file id="file-57"/>
						<sourcetrack>
							<mediatype>audio</mediatype>
							<trackindex>1</trackindex>
						</sourcetrack>
						<logginginfo>
							<description></description>
							<scene></scene>
							<shottake></shottake>
							<lognote></lognote>
						</logginginfo>
						<labels>
							<label2>Caribbean</label2>
						</labels>
					</clipitem>
					<clipitem id="clipitem-1441" premiereChannelType="mono">
						<masterclipid>masterclip-61</masterclipid>
						<name>Publ 1 V_02.wav</name>
						<enabled>TRUE</enabled>
						<duration>171138</duration>
						<rate>
							<timebase>25</timebase>
							<ntsc>FALSE</ntsc>
						</rate>
						<start>49762</start>
						<end>49948</end>
						<in>153681</in>
						<out>153867</out>
						<pproTicksIn>1561497315840000</pproTicksIn>
						<pproTicksOut>1563387194880000</pproTicksOut>
						<file id="file-57"/>
						<sourcetrack>
							<mediatype>audio</mediatype>
							<trackindex>1</trackindex>
						</sourcetrack>
						<logginginfo>
							<description></description>
							<scene></scene>
							<shottake></shottake>
							<lognote></lognote>
						</logginginfo>
						<labels>
							<label2>Caribbean</label2>
						</labels>
					</clipitem>
					<clipitem id="clipitem-1442" premiereChannelType="mono">
						<masterclipid>masterclip-61</masterclipid>
						<name>Publ 1 V_02.wav</name>
						<enabled>TRUE</enabled>
						<duration>171138</duration>
						<rate>
							<timebase>25</timebase>
							<ntsc>FALSE</ntsc>
						</rate>
						<start>49948</start>
						<end>50390</end>
						<in>153946</in>
						<out>154388</out>
						<pproTicksIn>1564189885440000</pproTicksIn>
						<pproTicksOut>1568680888320000</pproTicksOut>
						<file id="file-57"/>
						<sourcetrack>
							<mediatype>audio</mediatype>
							<trackindex>1</trackindex>
						</sourcetrack>
						<logginginfo>
							<description></description>
							<scene></scene>
							<shottake></shottake>
							<lognote></lognote>
						</logginginfo>
						<labels>
							<label2>Caribbean</label2>
						</labels>
					</clipitem>
					<clipitem id="clipitem-1443" premiereChannelType="mono">
						<masterclipid>masterclip-61</masterclipid>
						<name>Publ 1 V_02.wav</name>
						<enabled>TRUE</enabled>
						<duration>171138</duration>
						<rate>
							<timebase>25</timebase>
							<ntsc>FALSE</ntsc>
						</rate>
						<start>50390</start>
						<end>50983</end>
						<in>156215</in>
						<out>156808</out>
						<pproTicksIn>1587244377600000</pproTicksIn>
						<pproTicksOut>1593269637120000</pproTicksOut>
						<file id="file-57"/>
						<sourcetrack>
							<mediatype>audio</mediatype>
							<trackindex>1</trackindex>
						</sourcetrack>
						<logginginfo>
							<description></description>
							<scene></scene>
							<shottake></shottake>
							<lognote></lognote>
						</logginginfo>
						<labels>
							<label2>Caribbean</label2>
						</labels>
					</clipitem>
					<clipitem id="clipitem-1444" premiereChannelType="mono">
						<masterclipid>masterclip-61</masterclipid>
						<name>Publ 1 V_02.wav</name>
						<enabled>TRUE</enabled>
						<duration>171138</duration>
						<rate>
							<timebase>25</timebase>
							<ntsc>FALSE</ntsc>
						</rate>
						<start>50983</start>
						<end>53597</end>
						<in>157028</in>
						<out>159642</out>
						<pproTicksIn>1595504977920000</pproTicksIn>
						<pproTicksOut>1622064890880000</pproTicksOut>
						<file id="file-57"/>
						<sourcetrack>
							<mediatype>audio</mediatype>
							<trackindex>1</trackindex>
						</sourcetrack>
						<logginginfo>
							<description></description>
							<scene></scene>
							<shottake></shottake>
							<lognote></lognote>
						</logginginfo>
						<labels>
							<label2>Caribbean</label2>
						</labels>
					</clipitem>
					<clipitem id="clipitem-1445" premiereChannelType="mono">
						<masterclipid>masterclip-61</masterclipid>
						<name>Publ 1 V_02.wav</name>
						<enabled>TRUE</enabled>
						<duration>171138</duration>
						<rate>
							<timebase>25</timebase>
							<ntsc>FALSE</ntsc>
						</rate>
						<start>53597</start>
						<end>53636</end>
						<in>160568</in>
						<out>160607</out>
						<pproTicksIn>1631473643520000</pproTicksIn>
						<pproTicksOut>1631869908480000</pproTicksOut>
						<file id="file-57"/>
						<sourcetrack>
							<mediatype>audio</mediatype>
							<trackindex>1</trackindex>
						</sourcetrack>
						<logginginfo>
							<description></description>
							<scene></scene>
							<shottake></shottake>
							<lognote></lognote>
						</logginginfo>
						<labels>
							<label2>Caribbean</label2>
						</labels>
					</clipitem>
					<clipitem id="clipitem-1446" premiereChannelType="mono">
						<masterclipid>masterclip-61</masterclipid>
						<name>Publ 1 V_02.wav</name>
						<enabled>TRUE</enabled>
						<duration>171138</duration>
						<rate>
							<timebase>25</timebase>
							<ntsc>FALSE</ntsc>
						</rate>
						<start>53636</start>
						<end>55369</end>
						<in>161146</in>
						<out>162879</out>
						<pproTicksIn>1637346493440000</pproTicksIn>
						<pproTicksOut>1654954882560000</pproTicksOut>
						<file id="file-57"/>
						<sourcetrack>
							<mediatype>audio</mediatype>
							<trackindex>1</trackindex>
						</sourcetrack>
						<logginginfo>
							<description></description>
							<scene></scene>
							<shottake></shottake>
							<lognote></lognote>
						</logginginfo>
						<labels>
							<label2>Caribbean</label2>
						</labels>
					</clipitem>
					<clipitem id="clipitem-1447" premiereChannelType="mono">
						<masterclipid>masterclip-61</masterclipid>
						<name>Publ 1 V_02.wav</name>
						<enabled>TRUE</enabled>
						<duration>171138</duration>
						<rate>
							<timebase>25</timebase>
							<ntsc>FALSE</ntsc>
						</rate>
						<start>55369</start>
						<end>55449</end>
						<in>162899</in>
						<out>162979</out>
						<pproTicksIn>1655158095360000</pproTicksIn>
						<pproTicksOut>1655970946560000</pproTicksOut>
						<file id="file-57"/>
						<sourcetrack>
							<mediatype>audio</mediatype>
							<trackindex>1</trackindex>
						</sourcetrack>
						<logginginfo>
							<description></description>
							<scene></scene>
							<shottake></shottake>
							<lognote></lognote>
						</logginginfo>
						<labels>
							<label2>Caribbean</label2>
						</labels>
					</clipitem>
					<clipitem id="clipitem-1448" premiereChannelType="mono">
						<masterclipid>masterclip-61</masterclipid>
						<name>Publ 1 V_02.wav</name>
						<enabled>TRUE</enabled>
						<duration>171138</duration>
						<rate>
							<timebase>25</timebase>
							<ntsc>FALSE</ntsc>
						</rate>
						<start>55449</start>
						<end>55738</end>
						<in>163146</in>
						<out>163435</out>
						<pproTicksIn>1657667773440000</pproTicksIn>
						<pproTicksOut>1660604198400000</pproTicksOut>
						<file id="file-57"/>
						<sourcetrack>
							<mediatype>audio</mediatype>
							<trackindex>1</trackindex>
						</sourcetrack>
						<logginginfo>
							<description></description>
							<scene></scene>
							<shottake></shottake>
							<lognote></lognote>
						</logginginfo>
						<labels>
							<label2>Caribbean</label2>
						</labels>
					</clipitem>
					<clipitem id="clipitem-1449" premiereChannelType="mono">
						<masterclipid>masterclip-61</masterclipid>
						<name>Publ 1 V_02.wav</name>
						<enabled>TRUE</enabled>
						<duration>171138</duration>
						<rate>
							<timebase>25</timebase>
							<ntsc>FALSE</ntsc>
						</rate>
						<start>55738</start>
						<end>55905</end>
						<in>163648</in>
						<out>163815</out>
						<pproTicksIn>1662768414720000</pproTicksIn>
						<pproTicksOut>1664465241600000</pproTicksOut>
						<file id="file-57"/>
						<sourcetrack>
							<mediatype>audio</mediatype>
							<trackindex>1</trackindex>
						</sourcetrack>
						<logginginfo>
							<description></description>
							<scene></scene>
							<shottake></shottake>
							<lognote></lognote>
						</logginginfo>
						<labels>
							<label2>Caribbean</label2>
						</labels>
					</clipitem>
					<clipitem id="clipitem-1450" premiereChannelType="mono">
						<masterclipid>masterclip-61</masterclipid>
						<name>Publ 1 V_02.wav</name>
						<enabled>TRUE</enabled>
						<duration>171138</duration>
						<rate>
							<timebase>25</timebase>
							<ntsc>FALSE</ntsc>
						</rate>
						<start>55905</start>
						<end>56079</end>
						<in>163829</in>
						<out>164003</out>
						<pproTicksIn>1664607490560000</pproTicksIn>
						<pproTicksOut>1666375441920000</pproTicksOut>
						<file id="file-57"/>
						<sourcetrack>
							<mediatype>audio</mediatype>
							<trackindex>1</trackindex>
						</sourcetrack>
						<logginginfo>
							<description></description>
							<scene></scene>
							<shottake></shottake>
							<lognote></lognote>
						</logginginfo>
						<labels>
							<label2>Caribbean</label2>
						</labels>
					</clipitem>
					<clipitem id="clipitem-1451" premiereChannelType="mono">
						<masterclipid>masterclip-61</masterclipid>
						<name>Publ 1 V_02.wav</name>
						<enabled>TRUE</enabled>
						<duration>171138</duration>
						<rate>
							<timebase>25</timebase>
							<ntsc>FALSE</ntsc>
						</rate>
						<start>56079</start>
						<end>58120</end>
						<in>164067</in>
						<out>166108</out>
						<pproTicksIn>1667025722880000</pproTicksIn>
						<pproTicksOut>1687763589120000</pproTicksOut>
						<file id="file-57"/>
						<sourcetrack>
							<mediatype>audio</mediatype>
							<trackindex>1</trackindex>
						</sourcetrack>
						<logginginfo>
							<description></description>
							<scene></scene>
							<shottake></shottake>
							<lognote></lognote>
						</logginginfo>
						<labels>
							<label2>Caribbean</label2>
						</labels>
					</clipitem>
					<enabled>TRUE</enabled>
					<locked>FALSE</locked>
					<outputchannelindex>2</outputchannelindex>
				</track>
				<track TL.SQTrackAudioKeyframeStyle="0" TL.SQTrackShy="0" TL.SQTrackExpandedHeight="25" TL.SQTrackExpanded="0" MZ.TrackTargeted="1" PannerCurrentValue="0.5" PannerIsInverted="true" PannerStartKeyframe="-91445760000000000,0.5,0,0,0,0,0,0" PannerName="Balance" currentExplodedTrackIndex="0" totalExplodedTrackCount="1" premiereTrackType="Stereo">
					<clipitem id="clipitem-1452" premiereChannelType="mono">
						<masterclipid>masterclip-62</masterclipid>
						<name>Publ 1 H_02.wav</name>
						<enabled>TRUE</enabled>
						<duration>171138</duration>
						<rate>
							<timebase>25</timebase>
							<ntsc>FALSE</ntsc>
						</rate>
						<start>420</start>
						<end>891</end>
						<in>168511</in>
						<out>168982</out>
						<pproTicksIn>1712179607040000</pproTicksIn>
						<pproTicksOut>1716965268480000</pproTicksOut>
						<file id="file-58">
							<name>Publ 1 H_02.wav</name>
							<pathurl>file://localhost/Volumes/Brakka/AdobeLager/QUIZ%20-%20brakka/RA%cc%8aSTOFF%20LYD/2005/Publ%201%20H_02.wav</pathurl>
							<rate>
								<timebase>30</timebase>
								<ntsc>TRUE</ntsc>
							</rate>
							<duration>205161</duration>
							<timecode>
								<rate>
									<timebase>30</timebase>
									<ntsc>TRUE</ntsc>
								</rate>
								<string>12;52;15;16</string>
								<frame>1388676</frame>
								<displayformat>DF</displayformat>
								<reel>
									<name></name>
								</reel>
							</timecode>
							<media>
								<audio>
									<samplecharacteristics>
										<depth>16</depth>
										<samplerate>48000</samplerate>
									</samplecharacteristics>
									<channelcount>1</channelcount>
									<audiochannel>
										<sourcechannel>1</sourcechannel>
									</audiochannel>
								</audio>
							</media>
						</file>
						<sourcetrack>
							<mediatype>audio</mediatype>
							<trackindex>1</trackindex>
						</sourcetrack>
						<logginginfo>
							<description></description>
							<scene></scene>
							<shottake></shottake>
							<lognote></lognote>
						</logginginfo>
						<labels>
							<label2>Caribbean</label2>
						</labels>
					</clipitem>
					<clipitem id="clipitem-1453" premiereChannelType="mono">
						<masterclipid>masterclip-62</masterclipid>
						<name>Publ 1 H_02.wav</name>
						<enabled>TRUE</enabled>
						<duration>171138</duration>
						<rate>
							<timebase>25</timebase>
							<ntsc>FALSE</ntsc>
						</rate>
						<start>965</start>
						<end>1469</end>
						<in>32787</in>
						<out>33291</out>
						<pproTicksIn>333136903680000</pproTicksIn>
						<pproTicksOut>338257866240000</pproTicksOut>
						<file id="file-58"/>
						<sourcetrack>
							<mediatype>audio</mediatype>
							<trackindex>1</trackindex>
						</sourcetrack>
						<logginginfo>
							<description></description>
							<scene></scene>
							<shottake></shottake>
							<lognote></lognote>
						</logginginfo>
						<labels>
							<label2>Caribbean</label2>
						</labels>
					</clipitem>
					<clipitem id="clipitem-1454" premiereChannelType="mono">
						<masterclipid>masterclip-62</masterclipid>
						<name>Publ 1 H_02.wav</name>
						<enabled>TRUE</enabled>
						<duration>171138</duration>
						<rate>
							<timebase>25</timebase>
							<ntsc>FALSE</ntsc>
						</rate>
						<start>1469</start>
						<end>4119</end>
						<in>33423</in>
						<out>36073</out>
						<pproTicksIn>339599070720000</pproTicksIn>
						<pproTicksOut>366524766720000</pproTicksOut>
						<file id="file-58"/>
						<sourcetrack>
							<mediatype>audio</mediatype>
							<trackindex>1</trackindex>
						</sourcetrack>
						<logginginfo>
							<description></description>
							<scene></scene>
							<shottake></shottake>
							<lognote></lognote>
						</logginginfo>
						<labels>
							<label2>Caribbean</label2>
						</labels>
					</clipitem>
					<clipitem id="clipitem-1455" premiereChannelType="mono">
						<masterclipid>masterclip-62</masterclipid>
						<name>Publ 1 H_02.wav</name>
						<enabled>TRUE</enabled>
						<duration>171138</duration>
						<rate>
							<timebase>25</timebase>
							<ntsc>FALSE</ntsc>
						</rate>
						<start>4119</start>
						<end>4836</end>
						<in>36549</in>
						<out>37266</out>
						<pproTicksIn>371361231360000</pproTicksIn>
						<pproTicksOut>378646410240000</pproTicksOut>
						<file id="file-58"/>
						<sourcetrack>
							<mediatype>audio</mediatype>
							<trackindex>1</trackindex>
						</sourcetrack>
						<logginginfo>
							<description></description>
							<scene></scene>
							<shottake></shottake>
							<lognote></lognote>
						</logginginfo>
						<labels>
							<label2>Caribbean</label2>
						</labels>
					</clipitem>
					<clipitem id="clipitem-1456" premiereChannelType="mono">
						<masterclipid>masterclip-62</masterclipid>
						<name>Publ 1 H_02.wav</name>
						<enabled>TRUE</enabled>
						<duration>171138</duration>
						<rate>
							<timebase>25</timebase>
							<ntsc>FALSE</ntsc>
						</rate>
						<start>4836</start>
						<end>5339</end>
						<in>37305</in>
						<out>37808</out>
						<pproTicksIn>379042675200000</pproTicksIn>
						<pproTicksOut>384153477120000</pproTicksOut>
						<file id="file-58"/>
						<sourcetrack>
							<mediatype>audio</mediatype>
							<trackindex>1</trackindex>
						</sourcetrack>
						<logginginfo>
							<description></description>
							<scene></scene>
							<shottake></shottake>
							<lognote></lognote>
						</logginginfo>
						<labels>
							<label2>Caribbean</label2>
						</labels>
					</clipitem>
					<clipitem id="clipitem-1457" premiereChannelType="mono">
						<masterclipid>masterclip-62</masterclipid>
						<name>Publ 1 H_02.wav</name>
						<enabled>TRUE</enabled>
						<duration>171138</duration>
						<rate>
							<timebase>25</timebase>
							<ntsc>FALSE</ntsc>
						</rate>
						<start>5339</start>
						<end>5501</end>
						<in>37871</in>
						<out>38033</out>
						<pproTicksIn>384793597440000</pproTicksIn>
						<pproTicksOut>386439621120000</pproTicksOut>
						<file id="file-58"/>
						<sourcetrack>
							<mediatype>audio</mediatype>
							<trackindex>1</trackindex>
						</sourcetrack>
						<logginginfo>
							<description></description>
							<scene></scene>
							<shottake></shottake>
							<lognote></lognote>
						</logginginfo>
						<labels>
							<label2>Caribbean</label2>
						</labels>
					</clipitem>
					<clipitem id="clipitem-1458" premiereChannelType="mono">
						<masterclipid>masterclip-62</masterclipid>
						<name>Publ 1 H_02.wav</name>
						<enabled>TRUE</enabled>
						<duration>171138</duration>
						<rate>
							<timebase>25</timebase>
							<ntsc>FALSE</ntsc>
						</rate>
						<start>5501</start>
						<end>6004</end>
						<in>46577</in>
						<out>47080</out>
						<pproTicksIn>473252129280000</pproTicksIn>
						<pproTicksOut>478362931200000</pproTicksOut>
						<file id="file-58"/>
						<sourcetrack>
							<mediatype>audio</mediatype>
							<trackindex>1</trackindex>
						</sourcetrack>
						<logginginfo>
							<description></description>
							<scene></scene>
							<shottake></shottake>
							<lognote></lognote>
						</logginginfo>
						<labels>
							<label2>Caribbean</label2>
						</labels>
					</clipitem>
					<clipitem id="clipitem-1459" premiereChannelType="mono">
						<masterclipid>masterclip-62</masterclipid>
						<name>Publ 1 H_02.wav</name>
						<enabled>TRUE</enabled>
						<duration>171138</duration>
						<rate>
							<timebase>25</timebase>
							<ntsc>FALSE</ntsc>
						</rate>
						<start>6004</start>
						<end>6357</end>
						<in>50106</in>
						<out>50459</out>
						<pproTicksIn>509109027840000</pproTicksIn>
						<pproTicksOut>512695733760000</pproTicksOut>
						<file id="file-58"/>
						<sourcetrack>
							<mediatype>audio</mediatype>
							<trackindex>1</trackindex>
						</sourcetrack>
						<logginginfo>
							<description></description>
							<scene></scene>
							<shottake></shottake>
							<lognote></lognote>
						</logginginfo>
						<labels>
							<label2>Caribbean</label2>
						</labels>
					</clipitem>
					<clipitem id="clipitem-1460" premiereChannelType="mono">
						<masterclipid>masterclip-62</masterclipid>
						<name>Publ 1 H_02.wav</name>
						<enabled>TRUE</enabled>
						<duration>171138</duration>
						<rate>
							<timebase>25</timebase>
							<ntsc>FALSE</ntsc>
						</rate>
						<start>6357</start>
						<end>6470</end>
						<in>50578</in>
						<out>50691</out>
						<pproTicksIn>513904849920000</pproTicksIn>
						<pproTicksOut>515053002240000</pproTicksOut>
						<file id="file-58"/>
						<sourcetrack>
							<mediatype>audio</mediatype>
							<trackindex>1</trackindex>
						</sourcetrack>
						<logginginfo>
							<description></description>
							<scene></scene>
							<shottake></shottake>
							<lognote></lognote>
						</logginginfo>
						<labels>
							<label2>Caribbean</label2>
						</labels>
					</clipitem>
					<clipitem id="clipitem-1461" premiereChannelType="mono">
						<masterclipid>masterclip-62</masterclipid>
						<name>Publ 1 H_02.wav</name>
						<enabled>TRUE</enabled>
						<duration>171138</duration>
						<rate>
							<timebase>25</timebase>
							<ntsc>FALSE</ntsc>
						</rate>
						<start>6470</start>
						<end>6547</end>
						<in>50753</in>
						<out>50830</out>
						<pproTicksIn>515682961920000</pproTicksIn>
						<pproTicksOut>516465331200000</pproTicksOut>
						<file id="file-58"/>
						<sourcetrack>
							<mediatype>audio</mediatype>
							<trackindex>1</trackindex>
						</sourcetrack>
						<logginginfo>
							<description></description>
							<scene></scene>
							<shottake></shottake>
							<lognote></lognote>
						</logginginfo>
						<labels>
							<label2>Caribbean</label2>
						</labels>
					</clipitem>
					<clipitem id="clipitem-1462" premiereChannelType="mono">
						<masterclipid>masterclip-62</masterclipid>
						<name>Publ 1 H_02.wav</name>
						<enabled>TRUE</enabled>
						<duration>171138</duration>
						<rate>
							<timebase>25</timebase>
							<ntsc>FALSE</ntsc>
						</rate>
						<start>6547</start>
						<end>7368</end>
						<in>50869</in>
						<out>51690</out>
						<pproTicksIn>516861596160000</pproTicksIn>
						<pproTicksOut>525203481600000</pproTicksOut>
						<file id="file-58"/>
						<sourcetrack>
							<mediatype>audio</mediatype>
							<trackindex>1</trackindex>
						</sourcetrack>
						<logginginfo>
							<description></description>
							<scene></scene>
							<shottake></shottake>
							<lognote></lognote>
						</logginginfo>
						<labels>
							<label2>Caribbean</label2>
						</labels>
					</clipitem>
					<clipitem id="clipitem-1463" premiereChannelType="mono">
						<masterclipid>masterclip-62</masterclipid>
						<name>Publ 1 H_02.wav</name>
						<enabled>TRUE</enabled>
						<duration>171138</duration>
						<rate>
							<timebase>25</timebase>
							<ntsc>FALSE</ntsc>
						</rate>
						<start>7368</start>
						<end>7448</end>
						<in>51824</in>
						<out>51904</out>
						<pproTicksIn>526565007360000</pproTicksIn>
						<pproTicksOut>527377858560000</pproTicksOut>
						<file id="file-58"/>
						<sourcetrack>
							<mediatype>audio</mediatype>
							<trackindex>1</trackindex>
						</sourcetrack>
						<logginginfo>
							<description></description>
							<scene></scene>
							<shottake></shottake>
							<lognote></lognote>
						</logginginfo>
						<labels>
							<label2>Caribbean</label2>
						</labels>
					</clipitem>
					<clipitem id="clipitem-1464" premiereChannelType="mono">
						<masterclipid>masterclip-62</masterclipid>
						<name>Publ 1 H_02.wav</name>
						<enabled>TRUE</enabled>
						<duration>171138</duration>
						<rate>
							<timebase>25</timebase>
							<ntsc>FALSE</ntsc>
						</rate>
						<start>7448</start>
						<end>8194</end>
						<in>52064</in>
						<out>52810</out>
						<pproTicksIn>529003560960000</pproTicksIn>
						<pproTicksOut>536583398400000</pproTicksOut>
						<file id="file-58"/>
						<sourcetrack>
							<mediatype>audio</mediatype>
							<trackindex>1</trackindex>
						</sourcetrack>
						<logginginfo>
							<description></description>
							<scene></scene>
							<shottake></shottake>
							<lognote></lognote>
						</logginginfo>
						<labels>
							<label2>Caribbean</label2>
						</labels>
					</clipitem>
					<clipitem id="clipitem-1465" premiereChannelType="mono">
						<masterclipid>masterclip-62</masterclipid>
						<name>Publ 1 H_02.wav</name>
						<enabled>TRUE</enabled>
						<duration>171138</duration>
						<rate>
							<timebase>25</timebase>
							<ntsc>FALSE</ntsc>
						</rate>
						<start>8194</start>
						<end>8332</end>
						<in>57229</in>
						<out>57367</out>
						<pproTicksIn>581483266560000</pproTicksIn>
						<pproTicksOut>582885434880000</pproTicksOut>
						<file id="file-58"/>
						<sourcetrack>
							<mediatype>audio</mediatype>
							<trackindex>1</trackindex>
						</sourcetrack>
						<logginginfo>
							<description></description>
							<scene></scene>
							<shottake></shottake>
							<lognote></lognote>
						</logginginfo>
						<labels>
							<label2>Caribbean</label2>
						</labels>
					</clipitem>
					<clipitem id="clipitem-1466" premiereChannelType="mono">
						<masterclipid>masterclip-62</masterclipid>
						<name>Publ 1 H_02.wav</name>
						<enabled>TRUE</enabled>
						<duration>171138</duration>
						<rate>
							<timebase>25</timebase>
							<ntsc>FALSE</ntsc>
						</rate>
						<start>8332</start>
						<end>8592</end>
						<in>58240</in>
						<out>58500</out>
						<pproTicksIn>591755673600000</pproTicksIn>
						<pproTicksOut>594397440000000</pproTicksOut>
						<file id="file-58"/>
						<sourcetrack>
							<mediatype>audio</mediatype>
							<trackindex>1</trackindex>
						</sourcetrack>
						<logginginfo>
							<description></description>
							<scene></scene>
							<shottake></shottake>
							<lognote></lognote>
						</logginginfo>
						<labels>
							<label2>Caribbean</label2>
						</labels>
					</clipitem>
					<clipitem id="clipitem-1467" premiereChannelType="mono">
						<masterclipid>masterclip-62</masterclipid>
						<name>Publ 1 H_02.wav</name>
						<enabled>TRUE</enabled>
						<duration>171138</duration>
						<rate>
							<timebase>25</timebase>
							<ntsc>FALSE</ntsc>
						</rate>
						<start>8592</start>
						<end>8690</end>
						<in>58994</in>
						<out>59092</out>
						<pproTicksIn>599416796160000</pproTicksIn>
						<pproTicksOut>600412538880000</pproTicksOut>
						<file id="file-58"/>
						<sourcetrack>
							<mediatype>audio</mediatype>
							<trackindex>1</trackindex>
						</sourcetrack>
						<logginginfo>
							<description></description>
							<scene></scene>
							<shottake></shottake>
							<lognote></lognote>
						</logginginfo>
						<labels>
							<label2>Caribbean</label2>
						</labels>
					</clipitem>
					<clipitem id="clipitem-1468" premiereChannelType="mono">
						<masterclipid>masterclip-62</masterclipid>
						<name>Publ 1 H_02.wav</name>
						<enabled>TRUE</enabled>
						<duration>171138</duration>
						<rate>
							<timebase>25</timebase>
							<ntsc>FALSE</ntsc>
						</rate>
						<start>8690</start>
						<end>8999</end>
						<in>59189</in>
						<out>59498</out>
						<pproTicksIn>601398120960000</pproTicksIn>
						<pproTicksOut>604537758720000</pproTicksOut>
						<file id="file-58"/>
						<sourcetrack>
							<mediatype>audio</mediatype>
							<trackindex>1</trackindex>
						</sourcetrack>
						<logginginfo>
							<description></description>
							<scene></scene>
							<shottake></shottake>
							<lognote></lognote>
						</logginginfo>
						<labels>
							<label2>Caribbean</label2>
						</labels>
					</clipitem>
					<clipitem id="clipitem-1469" premiereChannelType="mono">
						<masterclipid>masterclip-62</masterclipid>
						<name>Publ 1 H_02.wav</name>
						<enabled>TRUE</enabled>
						<duration>171138</duration>
						<rate>
							<timebase>25</timebase>
							<ntsc>FALSE</ntsc>
						</rate>
						<start>8999</start>
						<end>9172</end>
						<in>59597</in>
						<out>59770</out>
						<pproTicksIn>605543662080000</pproTicksIn>
						<pproTicksOut>607301452800000</pproTicksOut>
						<file id="file-58"/>
						<sourcetrack>
							<mediatype>audio</mediatype>
							<trackindex>1</trackindex>
						</sourcetrack>
						<logginginfo>
							<description></description>
							<scene></scene>
							<shottake></shottake>
							<lognote></lognote>
						</logginginfo>
						<labels>
							<label2>Caribbean</label2>
						</labels>
					</clipitem>
					<clipitem id="clipitem-1470" premiereChannelType="mono">
						<masterclipid>masterclip-62</masterclipid>
						<name>Publ 1 H_02.wav</name>
						<enabled>TRUE</enabled>
						<duration>171138</duration>
						<rate>
							<timebase>25</timebase>
							<ntsc>FALSE</ntsc>
						</rate>
						<start>9172</start>
						<end>9280</end>
						<in>59921</in>
						<out>60029</out>
						<pproTicksIn>608835709440000</pproTicksIn>
						<pproTicksOut>609933058560000</pproTicksOut>
						<file id="file-58"/>
						<sourcetrack>
							<mediatype>audio</mediatype>
							<trackindex>1</trackindex>
						</sourcetrack>
						<logginginfo>
							<description></description>
							<scene></scene>
							<shottake></shottake>
							<lognote></lognote>
						</logginginfo>
						<labels>
							<label2>Caribbean</label2>
						</labels>
					</clipitem>
					<clipitem id="clipitem-1471" premiereChannelType="mono">
						<masterclipid>masterclip-62</masterclipid>
						<name>Publ 1 H_02.wav</name>
						<enabled>TRUE</enabled>
						<duration>171138</duration>
						<rate>
							<timebase>25</timebase>
							<ntsc>FALSE</ntsc>
						</rate>
						<start>9280</start>
						<end>9979</end>
						<in>65722</in>
						<out>66421</out>
						<pproTicksIn>667777582080000</pproTicksIn>
						<pproTicksOut>674879869440000</pproTicksOut>
						<file id="file-58"/>
						<sourcetrack>
							<mediatype>audio</mediatype>
							<trackindex>1</trackindex>
						</sourcetrack>
						<logginginfo>
							<description></description>
							<scene></scene>
							<shottake></shottake>
							<lognote></lognote>
						</logginginfo>
						<labels>
							<label2>Caribbean</label2>
						</labels>
					</clipitem>
					<clipitem id="clipitem-1472" premiereChannelType="mono">
						<masterclipid>masterclip-62</masterclipid>
						<name>Publ 1 H_02.wav</name>
						<enabled>TRUE</enabled>
						<duration>171138</duration>
						<rate>
							<timebase>25</timebase>
							<ntsc>FALSE</ntsc>
						</rate>
						<start>9979</start>
						<end>10054</end>
						<in>66518</in>
						<out>66593</out>
						<pproTicksIn>675865451520000</pproTicksIn>
						<pproTicksOut>676627499520000</pproTicksOut>
						<file id="file-58"/>
						<sourcetrack>
							<mediatype>audio</mediatype>
							<trackindex>1</trackindex>
						</sourcetrack>
						<logginginfo>
							<description></description>
							<scene></scene>
							<shottake></shottake>
							<lognote></lognote>
						</logginginfo>
						<labels>
							<label2>Caribbean</label2>
						</labels>
					</clipitem>
					<clipitem id="clipitem-1473" premiereChannelType="mono">
						<masterclipid>masterclip-62</masterclipid>
						<name>Publ 1 H_02.wav</name>
						<enabled>TRUE</enabled>
						<duration>171138</duration>
						<rate>
							<timebase>25</timebase>
							<ntsc>FALSE</ntsc>
						</rate>
						<start>10054</start>
						<end>10901</end>
						<in>67109</in>
						<out>67956</out>
						<pproTicksIn>681870389760000</pproTicksIn>
						<pproTicksOut>690476451840000</pproTicksOut>
						<file id="file-58"/>
						<sourcetrack>
							<mediatype>audio</mediatype>
							<trackindex>1</trackindex>
						</sourcetrack>
						<logginginfo>
							<description></description>
							<scene></scene>
							<shottake></shottake>
							<lognote></lognote>
						</logginginfo>
						<labels>
							<label2>Caribbean</label2>
						</labels>
					</clipitem>
					<clipitem id="clipitem-1474" premiereChannelType="mono">
						<masterclipid>masterclip-62</masterclipid>
						<name>Publ 1 H_02.wav</name>
						<enabled>TRUE</enabled>
						<duration>171138</duration>
						<rate>
							<timebase>25</timebase>
							<ntsc>FALSE</ntsc>
						</rate>
						<start>10901</start>
						<end>11157</end>
						<in>67945</in>
						<out>68201</out>
						<pproTicksIn>690364684800000</pproTicksIn>
						<pproTicksOut>692965808640000</pproTicksOut>
						<file id="file-58"/>
						<sourcetrack>
							<mediatype>audio</mediatype>
							<trackindex>1</trackindex>
						</sourcetrack>
						<logginginfo>
							<description></description>
							<scene></scene>
							<shottake></shottake>
							<lognote></lognote>
						</logginginfo>
						<labels>
							<label2>Caribbean</label2>
						</labels>
					</clipitem>
					<clipitem id="clipitem-1475" premiereChannelType="mono">
						<masterclipid>masterclip-62</masterclipid>
						<name>Publ 1 H_02.wav</name>
						<enabled>TRUE</enabled>
						<duration>171138</duration>
						<rate>
							<timebase>25</timebase>
							<ntsc>FALSE</ntsc>
						</rate>
						<start>11157</start>
						<end>11309</end>
						<in>68218</in>
						<out>68370</out>
						<pproTicksIn>693138539520000</pproTicksIn>
						<pproTicksOut>694682956800000</pproTicksOut>
						<file id="file-58"/>
						<sourcetrack>
							<mediatype>audio</mediatype>
							<trackindex>1</trackindex>
						</sourcetrack>
						<logginginfo>
							<description></description>
							<scene></scene>
							<shottake></shottake>
							<lognote></lognote>
						</logginginfo>
						<labels>
							<label2>Caribbean</label2>
						</labels>
					</clipitem>
					<clipitem id="clipitem-1476" premiereChannelType="mono">
						<masterclipid>masterclip-62</masterclipid>
						<name>Publ 1 H_02.wav</name>
						<enabled>TRUE</enabled>
						<duration>171138</duration>
						<rate>
							<timebase>25</timebase>
							<ntsc>FALSE</ntsc>
						</rate>
						<start>11309</start>
						<end>11781</end>
						<in>68707</in>
						<out>69179</out>
						<pproTicksIn>698107092480000</pproTicksIn>
						<pproTicksOut>702902914560000</pproTicksOut>
						<file id="file-58"/>
						<sourcetrack>
							<mediatype>audio</mediatype>
							<trackindex>1</trackindex>
						</sourcetrack>
						<logginginfo>
							<description></description>
							<scene></scene>
							<shottake></shottake>
							<lognote></lognote>
						</logginginfo>
						<labels>
							<label2>Caribbean</label2>
						</labels>
					</clipitem>
					<clipitem id="clipitem-1477" premiereChannelType="mono">
						<masterclipid>masterclip-62</masterclipid>
						<name>Publ 1 H_02.wav</name>
						<enabled>TRUE</enabled>
						<duration>171138</duration>
						<rate>
							<timebase>25</timebase>
							<ntsc>FALSE</ntsc>
						</rate>
						<start>11781</start>
						<end>12155</end>
						<in>70010</in>
						<out>70384</out>
						<pproTicksIn>711346406400000</pproTicksIn>
						<pproTicksOut>715146485760000</pproTicksOut>
						<file id="file-58"/>
						<sourcetrack>
							<mediatype>audio</mediatype>
							<trackindex>1</trackindex>
						</sourcetrack>
						<logginginfo>
							<description></description>
							<scene></scene>
							<shottake></shottake>
							<lognote></lognote>
						</logginginfo>
						<labels>
							<label2>Caribbean</label2>
						</labels>
					</clipitem>
					<clipitem id="clipitem-1478" premiereChannelType="mono">
						<masterclipid>masterclip-62</masterclipid>
						<name>Publ 1 H_02.wav</name>
						<enabled>TRUE</enabled>
						<duration>171138</duration>
						<rate>
							<timebase>25</timebase>
							<ntsc>FALSE</ntsc>
						</rate>
						<start>12155</start>
						<end>13212</end>
						<in>70448</in>
						<out>71505</out>
						<pproTicksIn>715796766720000</pproTicksIn>
						<pproTicksOut>726536563200000</pproTicksOut>
						<file id="file-58"/>
						<sourcetrack>
							<mediatype>audio</mediatype>
							<trackindex>1</trackindex>
						</sourcetrack>
						<logginginfo>
							<description></description>
							<scene></scene>
							<shottake></shottake>
							<lognote></lognote>
						</logginginfo>
						<labels>
							<label2>Caribbean</label2>
						</labels>
					</clipitem>
					<clipitem id="clipitem-1479" premiereChannelType="mono">
						<masterclipid>masterclip-62</masterclipid>
						<name>Publ 1 H_02.wav</name>
						<enabled>TRUE</enabled>
						<duration>171138</duration>
						<rate>
							<timebase>25</timebase>
							<ntsc>FALSE</ntsc>
						</rate>
						<start>13212</start>
						<end>13343</end>
						<in>71544</in>
						<out>71675</out>
						<pproTicksIn>726932828160000</pproTicksIn>
						<pproTicksOut>728263872000000</pproTicksOut>
						<file id="file-58"/>
						<sourcetrack>
							<mediatype>audio</mediatype>
							<trackindex>1</trackindex>
						</sourcetrack>
						<logginginfo>
							<description></description>
							<scene></scene>
							<shottake></shottake>
							<lognote></lognote>
						</logginginfo>
						<labels>
							<label2>Caribbean</label2>
						</labels>
					</clipitem>
					<clipitem id="clipitem-1480" premiereChannelType="mono">
						<masterclipid>masterclip-62</masterclipid>
						<name>Publ 1 H_02.wav</name>
						<enabled>TRUE</enabled>
						<duration>171138</duration>
						<rate>
							<timebase>25</timebase>
							<ntsc>FALSE</ntsc>
						</rate>
						<start>13359</start>
						<end>13506</end>
						<in>77542</in>
						<out>77689</out>
						<pproTicksIn>787876346880000</pproTicksIn>
						<pproTicksOut>789369960960000</pproTicksOut>
						<file id="file-58"/>
						<sourcetrack>
							<mediatype>audio</mediatype>
							<trackindex>1</trackindex>
						</sourcetrack>
						<logginginfo>
							<description></description>
							<scene></scene>
							<shottake></shottake>
							<lognote></lognote>
						</logginginfo>
						<labels>
							<label2>Caribbean</label2>
						</labels>
					</clipitem>
					<clipitem id="clipitem-1481" premiereChannelType="mono">
						<masterclipid>masterclip-62</masterclipid>
						<name>Publ 1 H_02.wav</name>
						<enabled>TRUE</enabled>
						<duration>171138</duration>
						<rate>
							<timebase>25</timebase>
							<ntsc>FALSE</ntsc>
						</rate>
						<start>13506</start>
						<end>14081</end>
						<in>78019</in>
						<out>78594</out>
						<pproTicksIn>792722972160000</pproTicksIn>
						<pproTicksOut>798565340160000</pproTicksOut>
						<file id="file-58"/>
						<sourcetrack>
							<mediatype>audio</mediatype>
							<trackindex>1</trackindex>
						</sourcetrack>
						<logginginfo>
							<description></description>
							<scene></scene>
							<shottake></shottake>
							<lognote></lognote>
						</logginginfo>
						<labels>
							<label2>Caribbean</label2>
						</labels>
					</clipitem>
					<clipitem id="clipitem-1482" premiereChannelType="mono">
						<masterclipid>masterclip-62</masterclipid>
						<name>Publ 1 H_02.wav</name>
						<enabled>TRUE</enabled>
						<duration>171138</duration>
						<rate>
							<timebase>25</timebase>
							<ntsc>FALSE</ntsc>
						</rate>
						<start>14081</start>
						<end>14232</end>
						<in>78676</in>
						<out>78827</out>
						<pproTicksIn>799398512640000</pproTicksIn>
						<pproTicksOut>800932769280000</pproTicksOut>
						<file id="file-58"/>
						<sourcetrack>
							<mediatype>audio</mediatype>
							<trackindex>1</trackindex>
						</sourcetrack>
						<logginginfo>
							<description></description>
							<scene></scene>
							<shottake></shottake>
							<lognote></lognote>
						</logginginfo>
						<labels>
							<label2>Caribbean</label2>
						</labels>
					</clipitem>
					<clipitem id="clipitem-1483" premiereChannelType="mono">
						<masterclipid>masterclip-62</masterclipid>
						<name>Publ 1 H_02.wav</name>
						<enabled>TRUE</enabled>
						<duration>171138</duration>
						<rate>
							<timebase>25</timebase>
							<ntsc>FALSE</ntsc>
						</rate>
						<start>14232</start>
						<end>14550</end>
						<in>78886</in>
						<out>79204</out>
						<pproTicksIn>801532247040000</pproTicksIn>
						<pproTicksOut>804763330560000</pproTicksOut>
						<file id="file-58"/>
						<sourcetrack>
							<mediatype>audio</mediatype>
							<trackindex>1</trackindex>
						</sourcetrack>
						<logginginfo>
							<description></description>
							<scene></scene>
							<shottake></shottake>
							<lognote></lognote>
						</logginginfo>
						<labels>
							<label2>Caribbean</label2>
						</labels>
					</clipitem>
					<clipitem id="clipitem-1484" premiereChannelType="mono">
						<masterclipid>masterclip-62</masterclipid>
						<name>Publ 1 H_02.wav</name>
						<enabled>TRUE</enabled>
						<duration>171138</duration>
						<rate>
							<timebase>25</timebase>
							<ntsc>FALSE</ntsc>
						</rate>
						<start>14550</start>
						<end>14774</end>
						<in>79562</in>
						<out>79786</out>
						<pproTicksIn>808400839680000</pproTicksIn>
						<pproTicksOut>810676823040000</pproTicksOut>
						<file id="file-58"/>
						<sourcetrack>
							<mediatype>audio</mediatype>
							<trackindex>1</trackindex>
						</sourcetrack>
						<logginginfo>
							<description></description>
							<scene></scene>
							<shottake></shottake>
							<lognote></lognote>
						</logginginfo>
						<labels>
							<label2>Caribbean</label2>
						</labels>
					</clipitem>
					<clipitem id="clipitem-1485" premiereChannelType="mono">
						<masterclipid>masterclip-62</masterclipid>
						<name>Publ 1 H_02.wav</name>
						<enabled>TRUE</enabled>
						<duration>171138</duration>
						<rate>
							<timebase>25</timebase>
							<ntsc>FALSE</ntsc>
						</rate>
						<start>14774</start>
						<end>14798</end>
						<in>79204</in>
						<out>79228</out>
						<pproTicksIn>804763330560000</pproTicksIn>
						<pproTicksOut>805007185920000</pproTicksOut>
						<file id="file-58"/>
						<sourcetrack>
							<mediatype>audio</mediatype>
							<trackindex>1</trackindex>
						</sourcetrack>
						<logginginfo>
							<description></description>
							<scene></scene>
							<shottake></shottake>
							<lognote></lognote>
						</logginginfo>
						<labels>
							<label2>Caribbean</label2>
						</labels>
					</clipitem>
					<clipitem id="clipitem-1486" premiereChannelType="mono">
						<masterclipid>masterclip-62</masterclipid>
						<name>Publ 1 H_02.wav</name>
						<enabled>TRUE</enabled>
						<duration>171138</duration>
						<rate>
							<timebase>25</timebase>
							<ntsc>FALSE</ntsc>
						</rate>
						<start>14798</start>
						<end>14887</end>
						<in>80182</in>
						<out>80271</out>
						<pproTicksIn>814700436480000</pproTicksIn>
						<pproTicksOut>815604733440000</pproTicksOut>
						<file id="file-58"/>
						<sourcetrack>
							<mediatype>audio</mediatype>
							<trackindex>1</trackindex>
						</sourcetrack>
						<logginginfo>
							<description></description>
							<scene></scene>
							<shottake></shottake>
							<lognote></lognote>
						</logginginfo>
						<labels>
							<label2>Caribbean</label2>
						</labels>
					</clipitem>
					<clipitem id="clipitem-1487" premiereChannelType="mono">
						<masterclipid>masterclip-62</masterclipid>
						<name>Publ 1 H_02.wav</name>
						<enabled>TRUE</enabled>
						<duration>171138</duration>
						<rate>
							<timebase>25</timebase>
							<ntsc>FALSE</ntsc>
						</rate>
						<start>14887</start>
						<end>15129</end>
						<in>80569</in>
						<out>80811</out>
						<pproTicksIn>818632604160000</pproTicksIn>
						<pproTicksOut>821091479040000</pproTicksOut>
						<file id="file-58"/>
						<sourcetrack>
							<mediatype>audio</mediatype>
							<trackindex>1</trackindex>
						</sourcetrack>
						<logginginfo>
							<description></description>
							<scene></scene>
							<shottake></shottake>
							<lognote></lognote>
						</logginginfo>
						<labels>
							<label2>Caribbean</label2>
						</labels>
					</clipitem>
					<clipitem id="clipitem-1488" premiereChannelType="mono">
						<masterclipid>masterclip-62</masterclipid>
						<name>Publ 1 H_02.wav</name>
						<enabled>TRUE</enabled>
						<duration>171138</duration>
						<rate>
							<timebase>25</timebase>
							<ntsc>FALSE</ntsc>
						</rate>
						<start>15129</start>
						<end>15493</end>
						<in>80817</in>
						<out>81181</out>
						<pproTicksIn>821152442880000</pproTicksIn>
						<pproTicksOut>824850915840000</pproTicksOut>
						<file id="file-58"/>
						<sourcetrack>
							<mediatype>audio</mediatype>
							<trackindex>1</trackindex>
						</sourcetrack>
						<logginginfo>
							<description></description>
							<scene></scene>
							<shottake></shottake>
							<lognote></lognote>
						</logginginfo>
						<labels>
							<label2>Caribbean</label2>
						</labels>
					</clipitem>
					<clipitem id="clipitem-1489" premiereChannelType="mono">
						<masterclipid>masterclip-62</masterclipid>
						<name>Publ 1 H_02.wav</name>
						<enabled>TRUE</enabled>
						<duration>171138</duration>
						<rate>
							<timebase>25</timebase>
							<ntsc>FALSE</ntsc>
						</rate>
						<start>15493</start>
						<end>15657</end>
						<in>81234</in>
						<out>81398</out>
						<pproTicksIn>825389429760000</pproTicksIn>
						<pproTicksOut>827055774720000</pproTicksOut>
						<file id="file-58"/>
						<sourcetrack>
							<mediatype>audio</mediatype>
							<trackindex>1</trackindex>
						</sourcetrack>
						<logginginfo>
							<description></description>
							<scene></scene>
							<shottake></shottake>
							<lognote></lognote>
						</logginginfo>
						<labels>
							<label2>Caribbean</label2>
						</labels>
					</clipitem>
					<clipitem id="clipitem-1490" premiereChannelType="mono">
						<masterclipid>masterclip-62</masterclipid>
						<name>Publ 1 H_02.wav</name>
						<enabled>TRUE</enabled>
						<duration>171138</duration>
						<rate>
							<timebase>25</timebase>
							<ntsc>FALSE</ntsc>
						</rate>
						<start>15657</start>
						<end>15850</end>
						<in>81563</in>
						<out>81756</out>
						<pproTicksIn>828732280320000</pproTicksIn>
						<pproTicksOut>830693283840000</pproTicksOut>
						<file id="file-58"/>
						<sourcetrack>
							<mediatype>audio</mediatype>
							<trackindex>1</trackindex>
						</sourcetrack>
						<logginginfo>
							<description></description>
							<scene></scene>
							<shottake></shottake>
							<lognote></lognote>
						</logginginfo>
						<labels>
							<label2>Caribbean</label2>
						</labels>
					</clipitem>
					<clipitem id="clipitem-1491" premiereChannelType="mono">
						<masterclipid>masterclip-62</masterclipid>
						<name>Publ 1 H_02.wav</name>
						<enabled>TRUE</enabled>
						<duration>171138</duration>
						<rate>
							<timebase>25</timebase>
							<ntsc>FALSE</ntsc>
						</rate>
						<start>15850</start>
						<end>16018</end>
						<in>81984</in>
						<out>82152</out>
						<pproTicksIn>833009909760000</pproTicksIn>
						<pproTicksOut>834716897280000</pproTicksOut>
						<file id="file-58"/>
						<sourcetrack>
							<mediatype>audio</mediatype>
							<trackindex>1</trackindex>
						</sourcetrack>
						<logginginfo>
							<description></description>
							<scene></scene>
							<shottake></shottake>
							<lognote></lognote>
						</logginginfo>
						<labels>
							<label2>Caribbean</label2>
						</labels>
					</clipitem>
					<clipitem id="clipitem-1492" premiereChannelType="mono">
						<masterclipid>masterclip-62</masterclipid>
						<name>Publ 1 H_02.wav</name>
						<enabled>TRUE</enabled>
						<duration>171138</duration>
						<rate>
							<timebase>25</timebase>
							<ntsc>FALSE</ntsc>
						</rate>
						<start>16018</start>
						<end>16073</end>
						<in>82477</in>
						<out>82532</out>
						<pproTicksIn>838019105280000</pproTicksIn>
						<pproTicksOut>838577940480000</pproTicksOut>
						<file id="file-58"/>
						<sourcetrack>
							<mediatype>audio</mediatype>
							<trackindex>1</trackindex>
						</sourcetrack>
						<logginginfo>
							<description></description>
							<scene></scene>
							<shottake></shottake>
							<lognote></lognote>
						</logginginfo>
						<labels>
							<label2>Caribbean</label2>
						</labels>
					</clipitem>
					<clipitem id="clipitem-1493" premiereChannelType="mono">
						<masterclipid>masterclip-62</masterclipid>
						<name>Publ 1 H_02.wav</name>
						<enabled>TRUE</enabled>
						<duration>171138</duration>
						<rate>
							<timebase>25</timebase>
							<ntsc>FALSE</ntsc>
						</rate>
						<start>16073</start>
						<end>16115</end>
						<in>83437</in>
						<out>83479</out>
						<pproTicksIn>847773319680000</pproTicksIn>
						<pproTicksOut>848200066560000</pproTicksOut>
						<file id="file-58"/>
						<sourcetrack>
							<mediatype>audio</mediatype>
							<trackindex>1</trackindex>
						</sourcetrack>
						<logginginfo>
							<description></description>
							<scene></scene>
							<shottake></shottake>
							<lognote></lognote>
						</logginginfo>
						<labels>
							<label2>Caribbean</label2>
						</labels>
					</clipitem>
					<clipitem id="clipitem-1494" premiereChannelType="mono">
						<masterclipid>masterclip-62</masterclipid>
						<name>Publ 1 H_02.wav</name>
						<enabled>TRUE</enabled>
						<duration>171138</duration>
						<rate>
							<timebase>25</timebase>
							<ntsc>FALSE</ntsc>
						</rate>
						<start>16115</start>
						<end>16204</end>
						<in>83479</in>
						<out>83568</out>
						<pproTicksIn>848200066560000</pproTicksIn>
						<pproTicksOut>849104363520000</pproTicksOut>
						<file id="file-58"/>
						<sourcetrack>
							<mediatype>audio</mediatype>
							<trackindex>1</trackindex>
						</sourcetrack>
						<logginginfo>
							<description></description>
							<scene></scene>
							<shottake></shottake>
							<lognote></lognote>
						</logginginfo>
						<labels>
							<label2>Caribbean</label2>
						</labels>
					</clipitem>
					<clipitem id="clipitem-1495" premiereChannelType="mono">
						<masterclipid>masterclip-62</masterclipid>
						<name>Publ 1 H_02.wav</name>
						<enabled>TRUE</enabled>
						<duration>171138</duration>
						<rate>
							<timebase>25</timebase>
							<ntsc>FALSE</ntsc>
						</rate>
						<start>16204</start>
						<end>16898</end>
						<in>83568</in>
						<out>84262</out>
						<pproTicksIn>849104363520000</pproTicksIn>
						<pproTicksOut>856155847680000</pproTicksOut>
						<file id="file-58"/>
						<sourcetrack>
							<mediatype>audio</mediatype>
							<trackindex>1</trackindex>
						</sourcetrack>
						<logginginfo>
							<description></description>
							<scene></scene>
							<shottake></shottake>
							<lognote></lognote>
						</logginginfo>
						<labels>
							<label2>Caribbean</label2>
						</labels>
					</clipitem>
					<clipitem id="clipitem-1496" premiereChannelType="mono">
						<masterclipid>masterclip-62</masterclipid>
						<name>Publ 1 H_02.wav</name>
						<enabled>TRUE</enabled>
						<duration>171138</duration>
						<rate>
							<timebase>25</timebase>
							<ntsc>FALSE</ntsc>
						</rate>
						<start>16898</start>
						<end>16971</end>
						<in>84282</in>
						<out>84355</out>
						<pproTicksIn>856359060480000</pproTicksIn>
						<pproTicksOut>857100787200000</pproTicksOut>
						<file id="file-58"/>
						<sourcetrack>
							<mediatype>audio</mediatype>
							<trackindex>1</trackindex>
						</sourcetrack>
						<logginginfo>
							<description></description>
							<scene></scene>
							<shottake></shottake>
							<lognote></lognote>
						</logginginfo>
						<labels>
							<label2>Caribbean</label2>
						</labels>
					</clipitem>
					<clipitem id="clipitem-1497" premiereChannelType="mono">
						<masterclipid>masterclip-62</masterclipid>
						<name>Publ 1 H_02.wav</name>
						<enabled>TRUE</enabled>
						<duration>171138</duration>
						<rate>
							<timebase>25</timebase>
							<ntsc>FALSE</ntsc>
						</rate>
						<start>16971</start>
						<end>17329</end>
						<in>84400</in>
						<out>84758</out>
						<pproTicksIn>857558016000000</pproTicksIn>
						<pproTicksOut>861195525120000</pproTicksOut>
						<file id="file-58"/>
						<sourcetrack>
							<mediatype>audio</mediatype>
							<trackindex>1</trackindex>
						</sourcetrack>
						<logginginfo>
							<description></description>
							<scene></scene>
							<shottake></shottake>
							<lognote></lognote>
						</logginginfo>
						<labels>
							<label2>Caribbean</label2>
						</labels>
					</clipitem>
					<clipitem id="clipitem-1498" premiereChannelType="mono">
						<masterclipid>masterclip-62</masterclipid>
						<name>Publ 1 H_02.wav</name>
						<enabled>TRUE</enabled>
						<duration>171138</duration>
						<rate>
							<timebase>25</timebase>
							<ntsc>FALSE</ntsc>
						</rate>
						<start>17329</start>
						<end>17417</end>
						<in>85268</in>
						<out>85356</out>
						<pproTicksIn>866377451520000</pproTicksIn>
						<pproTicksOut>867271587840000</pproTicksOut>
						<file id="file-58"/>
						<sourcetrack>
							<mediatype>audio</mediatype>
							<trackindex>1</trackindex>
						</sourcetrack>
						<logginginfo>
							<description></description>
							<scene></scene>
							<shottake></shottake>
							<lognote></lognote>
						</logginginfo>
						<labels>
							<label2>Caribbean</label2>
						</labels>
					</clipitem>
					<clipitem id="clipitem-1499" premiereChannelType="mono">
						<masterclipid>masterclip-62</masterclipid>
						<name>Publ 1 H_02.wav</name>
						<enabled>TRUE</enabled>
						<duration>171138</duration>
						<rate>
							<timebase>25</timebase>
							<ntsc>FALSE</ntsc>
						</rate>
						<start>17417</start>
						<end>17611</end>
						<in>85074</in>
						<out>85268</out>
						<pproTicksIn>864406287360000</pproTicksIn>
						<pproTicksOut>866377451520000</pproTicksOut>
						<file id="file-58"/>
						<sourcetrack>
							<mediatype>audio</mediatype>
							<trackindex>1</trackindex>
						</sourcetrack>
						<logginginfo>
							<description></description>
							<scene></scene>
							<shottake></shottake>
							<lognote></lognote>
						</logginginfo>
						<labels>
							<label2>Caribbean</label2>
						</labels>
					</clipitem>
					<clipitem id="clipitem-1500" premiereChannelType="mono">
						<masterclipid>masterclip-62</masterclipid>
						<name>Publ 1 H_02.wav</name>
						<enabled>TRUE</enabled>
						<duration>171138</duration>
						<rate>
							<timebase>25</timebase>
							<ntsc>FALSE</ntsc>
						</rate>
						<start>17611</start>
						<end>17830</end>
						<in>85560</in>
						<out>85779</out>
						<pproTicksIn>869344358400000</pproTicksIn>
						<pproTicksOut>871569538560000</pproTicksOut>
						<file id="file-58"/>
						<sourcetrack>
							<mediatype>audio</mediatype>
							<trackindex>1</trackindex>
						</sourcetrack>
						<logginginfo>
							<description></description>
							<scene></scene>
							<shottake></shottake>
							<lognote></lognote>
						</logginginfo>
						<labels>
							<label2>Caribbean</label2>
						</labels>
					</clipitem>
					<clipitem id="clipitem-1501" premiereChannelType="mono">
						<masterclipid>masterclip-62</masterclipid>
						<name>Publ 1 H_02.wav</name>
						<enabled>TRUE</enabled>
						<duration>171138</duration>
						<rate>
							<timebase>25</timebase>
							<ntsc>FALSE</ntsc>
						</rate>
						<start>17830</start>
						<end>17876</end>
						<in>83479</in>
						<out>83525</out>
						<pproTicksIn>848200066560000</pproTicksIn>
						<pproTicksOut>848667456000000</pproTicksOut>
						<file id="file-58"/>
						<sourcetrack>
							<mediatype>audio</mediatype>
							<trackindex>1</trackindex>
						</sourcetrack>
						<logginginfo>
							<description></description>
							<scene></scene>
							<shottake></shottake>
							<lognote></lognote>
						</logginginfo>
						<labels>
							<label2>Caribbean</label2>
						</labels>
					</clipitem>
					<clipitem id="clipitem-1502" premiereChannelType="mono">
						<masterclipid>masterclip-62</masterclipid>
						<name>Publ 1 H_02.wav</name>
						<enabled>TRUE</enabled>
						<duration>171138</duration>
						<rate>
							<timebase>25</timebase>
							<ntsc>FALSE</ntsc>
						</rate>
						<start>17876</start>
						<end>18012</end>
						<in>85841</in>
						<out>85977</out>
						<pproTicksIn>872199498240000</pproTicksIn>
						<pproTicksOut>873581345280000</pproTicksOut>
						<file id="file-58"/>
						<sourcetrack>
							<mediatype>audio</mediatype>
							<trackindex>1</trackindex>
						</sourcetrack>
						<logginginfo>
							<description></description>
							<scene></scene>
							<shottake></shottake>
							<lognote></lognote>
						</logginginfo>
						<labels>
							<label2>Caribbean</label2>
						</labels>
					</clipitem>
					<clipitem id="clipitem-1503" premiereChannelType="mono">
						<masterclipid>masterclip-62</masterclipid>
						<name>Publ 1 H_02.wav</name>
						<enabled>TRUE</enabled>
						<duration>171138</duration>
						<rate>
							<timebase>25</timebase>
							<ntsc>FALSE</ntsc>
						</rate>
						<start>18012</start>
						<end>18158</end>
						<in>116811</in>
						<out>116957</out>
						<pproTicksIn>1186874519040000</pproTicksIn>
						<pproTicksOut>1188357972480000</pproTicksOut>
						<file id="file-58"/>
						<sourcetrack>
							<mediatype>audio</mediatype>
							<trackindex>1</trackindex>
						</sourcetrack>
						<logginginfo>
							<description></description>
							<scene></scene>
							<shottake></shottake>
							<lognote></lognote>
						</logginginfo>
						<labels>
							<label2>Caribbean</label2>
						</labels>
					</clipitem>
					<clipitem id="clipitem-1504" premiereChannelType="mono">
						<masterclipid>masterclip-62</masterclipid>
						<name>Publ 1 H_02.wav</name>
						<enabled>TRUE</enabled>
						<duration>171138</duration>
						<rate>
							<timebase>25</timebase>
							<ntsc>FALSE</ntsc>
						</rate>
						<start>18158</start>
						<end>18332</end>
						<in>86150</in>
						<out>86324</out>
						<pproTicksIn>875339136000000</pproTicksIn>
						<pproTicksOut>877107087360000</pproTicksOut>
						<file id="file-58"/>
						<sourcetrack>
							<mediatype>audio</mediatype>
							<trackindex>1</trackindex>
						</sourcetrack>
						<logginginfo>
							<description></description>
							<scene></scene>
							<shottake></shottake>
							<lognote></lognote>
						</logginginfo>
						<labels>
							<label2>Caribbean</label2>
						</labels>
					</clipitem>
					<clipitem id="clipitem-1505" premiereChannelType="mono">
						<masterclipid>masterclip-62</masterclipid>
						<name>Publ 1 H_02.wav</name>
						<enabled>TRUE</enabled>
						<duration>171138</duration>
						<rate>
							<timebase>25</timebase>
							<ntsc>FALSE</ntsc>
						</rate>
						<start>18332</start>
						<end>22265</end>
						<in>87920</in>
						<out>91853</out>
						<pproTicksIn>893323468800000</pproTicksIn>
						<pproTicksOut>933285265920000</pproTicksOut>
						<file id="file-58"/>
						<sourcetrack>
							<mediatype>audio</mediatype>
							<trackindex>1</trackindex>
						</sourcetrack>
						<logginginfo>
							<description></description>
							<scene></scene>
							<shottake></shottake>
							<lognote></lognote>
						</logginginfo>
						<labels>
							<label2>Caribbean</label2>
						</labels>
					</clipitem>
					<clipitem id="clipitem-1506" premiereChannelType="mono">
						<masterclipid>masterclip-62</masterclipid>
						<name>Publ 1 H_02.wav</name>
						<enabled>TRUE</enabled>
						<duration>171138</duration>
						<rate>
							<timebase>25</timebase>
							<ntsc>FALSE</ntsc>
						</rate>
						<start>22265</start>
						<end>23367</end>
						<in>91952</in>
						<out>93054</out>
						<pproTicksIn>934291169280000</pproTicksIn>
						<pproTicksOut>945488194560000</pproTicksOut>
						<file id="file-58"/>
						<sourcetrack>
							<mediatype>audio</mediatype>
							<trackindex>1</trackindex>
						</sourcetrack>
						<logginginfo>
							<description></description>
							<scene></scene>
							<shottake></shottake>
							<lognote></lognote>
						</logginginfo>
						<labels>
							<label2>Caribbean</label2>
						</labels>
					</clipitem>
					<clipitem id="clipitem-1507" premiereChannelType="mono">
						<masterclipid>masterclip-62</masterclipid>
						<name>Publ 1 H_02.wav</name>
						<enabled>TRUE</enabled>
						<duration>171138</duration>
						<rate>
							<timebase>25</timebase>
							<ntsc>FALSE</ntsc>
						</rate>
						<start>23367</start>
						<end>23724</end>
						<in>93377</in>
						<out>93734</out>
						<pproTicksIn>948770081280000</pproTicksIn>
						<pproTicksOut>952397429760000</pproTicksOut>
						<file id="file-58"/>
						<sourcetrack>
							<mediatype>audio</mediatype>
							<trackindex>1</trackindex>
						</sourcetrack>
						<logginginfo>
							<description></description>
							<scene></scene>
							<shottake></shottake>
							<lognote></lognote>
						</logginginfo>
						<labels>
							<label2>Caribbean</label2>
						</labels>
					</clipitem>
					<clipitem id="clipitem-1508" premiereChannelType="mono">
						<masterclipid>masterclip-62</masterclipid>
						<name>Publ 1 H_02.wav</name>
						<enabled>TRUE</enabled>
						<duration>171138</duration>
						<rate>
							<timebase>25</timebase>
							<ntsc>FALSE</ntsc>
						</rate>
						<start>23724</start>
						<end>24114</end>
						<in>94350</in>
						<out>94740</out>
						<pproTicksIn>958656384000000</pproTicksIn>
						<pproTicksOut>962619033600000</pproTicksOut>
						<file id="file-58"/>
						<sourcetrack>
							<mediatype>audio</mediatype>
							<trackindex>1</trackindex>
						</sourcetrack>
						<logginginfo>
							<description></description>
							<scene></scene>
							<shottake></shottake>
							<lognote></lognote>
						</logginginfo>
						<labels>
							<label2>Caribbean</label2>
						</labels>
					</clipitem>
					<clipitem id="clipitem-1509" premiereChannelType="mono">
						<masterclipid>masterclip-62</masterclipid>
						<name>Publ 1 H_02.wav</name>
						<enabled>TRUE</enabled>
						<duration>171138</duration>
						<rate>
							<timebase>25</timebase>
							<ntsc>FALSE</ntsc>
						</rate>
						<start>24114</start>
						<end>24241</end>
						<in>94797</in>
						<out>94924</out>
						<pproTicksIn>963198190080000</pproTicksIn>
						<pproTicksOut>964488591360000</pproTicksOut>
						<file id="file-58"/>
						<sourcetrack>
							<mediatype>audio</mediatype>
							<trackindex>1</trackindex>
						</sourcetrack>
						<logginginfo>
							<description></description>
							<scene></scene>
							<shottake></shottake>
							<lognote></lognote>
						</logginginfo>
						<labels>
							<label2>Caribbean</label2>
						</labels>
					</clipitem>
					<clipitem id="clipitem-1510" premiereChannelType="mono">
						<masterclipid>masterclip-62</masterclipid>
						<name>Publ 1 H_02.wav</name>
						<enabled>TRUE</enabled>
						<duration>171138</duration>
						<rate>
							<timebase>25</timebase>
							<ntsc>FALSE</ntsc>
						</rate>
						<start>24241</start>
						<end>24388</end>
						<in>95094</in>
						<out>95241</out>
						<pproTicksIn>966215900160000</pproTicksIn>
						<pproTicksOut>967709514240000</pproTicksOut>
						<file id="file-58"/>
						<sourcetrack>
							<mediatype>audio</mediatype>
							<trackindex>1</trackindex>
						</sourcetrack>
						<logginginfo>
							<description></description>
							<scene></scene>
							<shottake></shottake>
							<lognote></lognote>
						</logginginfo>
						<labels>
							<label2>Caribbean</label2>
						</labels>
					</clipitem>
					<clipitem id="clipitem-1511" premiereChannelType="mono">
						<masterclipid>masterclip-62</masterclipid>
						<name>Publ 1 H_02.wav</name>
						<enabled>TRUE</enabled>
						<duration>171138</duration>
						<rate>
							<timebase>25</timebase>
							<ntsc>FALSE</ntsc>
						</rate>
						<start>24388</start>
						<end>24600</end>
						<in>95265</in>
						<out>95477</out>
						<pproTicksIn>967953369600000</pproTicksIn>
						<pproTicksOut>970107425280000</pproTicksOut>
						<file id="file-58"/>
						<sourcetrack>
							<mediatype>audio</mediatype>
							<trackindex>1</trackindex>
						</sourcetrack>
						<logginginfo>
							<description></description>
							<scene></scene>
							<shottake></shottake>
							<lognote></lognote>
						</logginginfo>
						<labels>
							<label2>Caribbean</label2>
						</labels>
					</clipitem>
					<clipitem id="clipitem-1512" premiereChannelType="mono">
						<masterclipid>masterclip-62</masterclipid>
						<name>Publ 1 H_02.wav</name>
						<enabled>TRUE</enabled>
						<duration>171138</duration>
						<rate>
							<timebase>25</timebase>
							<ntsc>FALSE</ntsc>
						</rate>
						<start>24600</start>
						<end>24872</end>
						<in>95504</in>
						<out>95776</out>
						<pproTicksIn>970381762560000</pproTicksIn>
						<pproTicksOut>973145456640000</pproTicksOut>
						<file id="file-58"/>
						<sourcetrack>
							<mediatype>audio</mediatype>
							<trackindex>1</trackindex>
						</sourcetrack>
						<logginginfo>
							<description></description>
							<scene></scene>
							<shottake></shottake>
							<lognote></lognote>
						</logginginfo>
						<labels>
							<label2>Caribbean</label2>
						</labels>
					</clipitem>
					<clipitem id="clipitem-1513" premiereChannelType="mono">
						<masterclipid>masterclip-62</masterclipid>
						<name>Publ 1 H_02.wav</name>
						<enabled>TRUE</enabled>
						<duration>171138</duration>
						<rate>
							<timebase>25</timebase>
							<ntsc>FALSE</ntsc>
						</rate>
						<start>24872</start>
						<end>26291</end>
						<in>95789</in>
						<out>97208</out>
						<pproTicksIn>973277544960000</pproTicksIn>
						<pproTicksOut>987695493120000</pproTicksOut>
						<file id="file-58"/>
						<sourcetrack>
							<mediatype>audio</mediatype>
							<trackindex>1</trackindex>
						</sourcetrack>
						<logginginfo>
							<description></description>
							<scene></scene>
							<shottake></shottake>
							<lognote></lognote>
						</logginginfo>
						<labels>
							<label2>Caribbean</label2>
						</labels>
					</clipitem>
					<clipitem id="clipitem-1514" premiereChannelType="mono">
						<masterclipid>masterclip-62</masterclipid>
						<name>Publ 1 H_02.wav</name>
						<enabled>TRUE</enabled>
						<duration>171138</duration>
						<rate>
							<timebase>25</timebase>
							<ntsc>FALSE</ntsc>
						</rate>
						<start>26291</start>
						<end>26387</end>
						<in>97273</in>
						<out>97369</out>
						<pproTicksIn>988355934720000</pproTicksIn>
						<pproTicksOut>989331356160000</pproTicksOut>
						<file id="file-58"/>
						<sourcetrack>
							<mediatype>audio</mediatype>
							<trackindex>1</trackindex>
						</sourcetrack>
						<logginginfo>
							<description></description>
							<scene></scene>
							<shottake></shottake>
							<lognote></lognote>
						</logginginfo>
						<labels>
							<label2>Caribbean</label2>
						</labels>
					</clipitem>
					<clipitem id="clipitem-1515" premiereChannelType="mono">
						<masterclipid>masterclip-62</masterclipid>
						<name>Publ 1 H_02.wav</name>
						<enabled>TRUE</enabled>
						<duration>171138</duration>
						<rate>
							<timebase>25</timebase>
							<ntsc>FALSE</ntsc>
						</rate>
						<start>26387</start>
						<end>27111</end>
						<in>97523</in>
						<out>98247</out>
						<pproTicksIn>990896094720000</pproTicksIn>
						<pproTicksOut>998252398080000</pproTicksOut>
						<file id="file-58"/>
						<sourcetrack>
							<mediatype>audio</mediatype>
							<trackindex>1</trackindex>
						</sourcetrack>
						<logginginfo>
							<description></description>
							<scene></scene>
							<shottake></shottake>
							<lognote></lognote>
						</logginginfo>
						<labels>
							<label2>Caribbean</label2>
						</labels>
					</clipitem>
					<clipitem id="clipitem-1516" premiereChannelType="mono">
						<masterclipid>masterclip-62</masterclipid>
						<name>Publ 1 H_02.wav</name>
						<enabled>TRUE</enabled>
						<duration>171138</duration>
						<rate>
							<timebase>25</timebase>
							<ntsc>FALSE</ntsc>
						</rate>
						<start>27111</start>
						<end>27316</end>
						<in>98260</in>
						<out>98465</out>
						<pproTicksIn>998384486400000</pproTicksIn>
						<pproTicksOut>1000467417600000</pproTicksOut>
						<file id="file-58"/>
						<sourcetrack>
							<mediatype>audio</mediatype>
							<trackindex>1</trackindex>
						</sourcetrack>
						<logginginfo>
							<description></description>
							<scene></scene>
							<shottake></shottake>
							<lognote></lognote>
						</logginginfo>
						<labels>
							<label2>Caribbean</label2>
						</labels>
					</clipitem>
					<clipitem id="clipitem-1517" premiereChannelType="mono">
						<masterclipid>masterclip-62</masterclipid>
						<name>Publ 1 H_02.wav</name>
						<enabled>TRUE</enabled>
						<duration>171138</duration>
						<rate>
							<timebase>25</timebase>
							<ntsc>FALSE</ntsc>
						</rate>
						<start>27316</start>
						<end>27702</end>
						<in>98958</in>
						<out>99344</out>
						<pproTicksIn>1005476613120000</pproTicksIn>
						<pproTicksOut>1009398620160000</pproTicksOut>
						<file id="file-58"/>
						<sourcetrack>
							<mediatype>audio</mediatype>
							<trackindex>1</trackindex>
						</sourcetrack>
						<logginginfo>
							<description></description>
							<scene></scene>
							<shottake></shottake>
							<lognote></lognote>
						</logginginfo>
						<labels>
							<label2>Caribbean</label2>
						</labels>
					</clipitem>
					<clipitem id="clipitem-1518" premiereChannelType="mono">
						<masterclipid>masterclip-62</masterclipid>
						<name>Publ 1 H_02.wav</name>
						<enabled>TRUE</enabled>
						<duration>171138</duration>
						<rate>
							<timebase>25</timebase>
							<ntsc>FALSE</ntsc>
						</rate>
						<start>27702</start>
						<end>27789</end>
						<in>99640</in>
						<out>99727</out>
						<pproTicksIn>1012406169600000</pproTicksIn>
						<pproTicksOut>1013290145280000</pproTicksOut>
						<file id="file-58"/>
						<sourcetrack>
							<mediatype>audio</mediatype>
							<trackindex>1</trackindex>
						</sourcetrack>
						<logginginfo>
							<description></description>
							<scene></scene>
							<shottake></shottake>
							<lognote></lognote>
						</logginginfo>
						<labels>
							<label2>Caribbean</label2>
						</labels>
					</clipitem>
					<clipitem id="clipitem-1519" premiereChannelType="mono">
						<masterclipid>masterclip-62</masterclipid>
						<name>Publ 1 H_02.wav</name>
						<enabled>TRUE</enabled>
						<duration>171138</duration>
						<rate>
							<timebase>25</timebase>
							<ntsc>FALSE</ntsc>
						</rate>
						<start>27789</start>
						<end>29601</end>
						<in>99831</in>
						<out>101643</out>
						<pproTicksIn>1014346851840000</pproTicksIn>
						<pproTicksOut>1032757931520000</pproTicksOut>
						<file id="file-58"/>
						<sourcetrack>
							<mediatype>audio</mediatype>
							<trackindex>1</trackindex>
						</sourcetrack>
						<logginginfo>
							<description></description>
							<scene></scene>
							<shottake></shottake>
							<lognote></lognote>
						</logginginfo>
						<labels>
							<label2>Caribbean</label2>
						</labels>
					</clipitem>
					<clipitem id="clipitem-1520" premiereChannelType="mono">
						<masterclipid>masterclip-62</masterclipid>
						<name>Publ 1 H_02.wav</name>
						<enabled>TRUE</enabled>
						<duration>171138</duration>
						<rate>
							<timebase>25</timebase>
							<ntsc>FALSE</ntsc>
						</rate>
						<start>29601</start>
						<end>29693</end>
						<in>102540</in>
						<out>102632</out>
						<pproTicksIn>1041872025600000</pproTicksIn>
						<pproTicksOut>1042806804480000</pproTicksOut>
						<file id="file-58"/>
						<sourcetrack>
							<mediatype>audio</mediatype>
							<trackindex>1</trackindex>
						</sourcetrack>
						<logginginfo>
							<description></description>
							<scene></scene>
							<shottake></shottake>
							<lognote></lognote>
						</logginginfo>
						<labels>
							<label2>Caribbean</label2>
						</labels>
					</clipitem>
					<clipitem id="clipitem-1521" premiereChannelType="mono">
						<masterclipid>masterclip-62</masterclipid>
						<name>Publ 1 H_02.wav</name>
						<enabled>TRUE</enabled>
						<duration>171138</duration>
						<rate>
							<timebase>25</timebase>
							<ntsc>FALSE</ntsc>
						</rate>
						<start>29693</start>
						<end>29760</end>
						<in>103317</in>
						<out>103384</out>
						<pproTicksIn>1049766842880000</pproTicksIn>
						<pproTicksOut>1050447605760000</pproTicksOut>
						<file id="file-58"/>
						<sourcetrack>
							<mediatype>audio</mediatype>
							<trackindex>1</trackindex>
						</sourcetrack>
						<logginginfo>
							<description></description>
							<scene></scene>
							<shottake></shottake>
							<lognote></lognote>
						</logginginfo>
						<labels>
							<label2>Caribbean</label2>
						</labels>
					</clipitem>
					<clipitem id="clipitem-1522" premiereChannelType="mono">
						<masterclipid>masterclip-62</masterclipid>
						<name>Publ 1 H_02.wav</name>
						<enabled>TRUE</enabled>
						<duration>171138</duration>
						<rate>
							<timebase>25</timebase>
							<ntsc>FALSE</ntsc>
						</rate>
						<start>29760</start>
						<end>29774</end>
						<in>103438</in>
						<out>103452</out>
						<pproTicksIn>1050996280320000</pproTicksIn>
						<pproTicksOut>1051138529280000</pproTicksOut>
						<file id="file-58"/>
						<sourcetrack>
							<mediatype>audio</mediatype>
							<trackindex>1</trackindex>
						</sourcetrack>
						<logginginfo>
							<description></description>
							<scene></scene>
							<shottake></shottake>
							<lognote></lognote>
						</logginginfo>
						<labels>
							<label2>Caribbean</label2>
						</labels>
					</clipitem>
					<clipitem id="clipitem-1523" premiereChannelType="mono">
						<masterclipid>masterclip-62</masterclipid>
						<name>Publ 1 H_02.wav</name>
						<enabled>TRUE</enabled>
						<duration>171138</duration>
						<rate>
							<timebase>25</timebase>
							<ntsc>FALSE</ntsc>
						</rate>
						<start>29774</start>
						<end>29865</end>
						<in>107326</in>
						<out>107417</out>
						<pproTicksIn>1090500848640000</pproTicksIn>
						<pproTicksOut>1091425466880000</pproTicksOut>
						<file id="file-58"/>
						<sourcetrack>
							<mediatype>audio</mediatype>
							<trackindex>1</trackindex>
						</sourcetrack>
						<logginginfo>
							<description></description>
							<scene></scene>
							<shottake></shottake>
							<lognote></lognote>
						</logginginfo>
						<labels>
							<label2>Caribbean</label2>
						</labels>
					</clipitem>
					<clipitem id="clipitem-1524" premiereChannelType="mono">
						<masterclipid>masterclip-62</masterclipid>
						<name>Publ 1 H_02.wav</name>
						<enabled>TRUE</enabled>
						<duration>171138</duration>
						<rate>
							<timebase>25</timebase>
							<ntsc>FALSE</ntsc>
						</rate>
						<start>29865</start>
						<end>30769</end>
						<in>107708</in>
						<out>108612</out>
						<pproTicksIn>1094382213120000</pproTicksIn>
						<pproTicksOut>1103567431680000</pproTicksOut>
						<file id="file-58"/>
						<sourcetrack>
							<mediatype>audio</mediatype>
							<trackindex>1</trackindex>
						</sourcetrack>
						<logginginfo>
							<description></description>
							<scene></scene>
							<shottake></shottake>
							<lognote></lognote>
						</logginginfo>
						<labels>
							<label2>Caribbean</label2>
						</labels>
					</clipitem>
					<clipitem id="clipitem-1525" premiereChannelType="mono">
						<masterclipid>masterclip-62</masterclipid>
						<name>Publ 1 H_02.wav</name>
						<enabled>TRUE</enabled>
						<duration>171138</duration>
						<rate>
							<timebase>25</timebase>
							<ntsc>FALSE</ntsc>
						</rate>
						<start>30769</start>
						<end>30880</end>
						<in>108644</in>
						<out>108755</out>
						<pproTicksIn>1103892572160000</pproTicksIn>
						<pproTicksOut>1105020403200000</pproTicksOut>
						<file id="file-58"/>
						<sourcetrack>
							<mediatype>audio</mediatype>
							<trackindex>1</trackindex>
						</sourcetrack>
						<logginginfo>
							<description></description>
							<scene></scene>
							<shottake></shottake>
							<lognote></lognote>
						</logginginfo>
						<labels>
							<label2>Caribbean</label2>
						</labels>
					</clipitem>
					<clipitem id="clipitem-1526" premiereChannelType="mono">
						<masterclipid>masterclip-62</masterclipid>
						<name>Publ 1 H_02.wav</name>
						<enabled>TRUE</enabled>
						<duration>171138</duration>
						<rate>
							<timebase>25</timebase>
							<ntsc>FALSE</ntsc>
						</rate>
						<start>30880</start>
						<end>31513</end>
						<in>108776</in>
						<out>109409</out>
						<pproTicksIn>1105233776640000</pproTicksIn>
						<pproTicksOut>1111665461760000</pproTicksOut>
						<file id="file-58"/>
						<sourcetrack>
							<mediatype>audio</mediatype>
							<trackindex>1</trackindex>
						</sourcetrack>
						<logginginfo>
							<description></description>
							<scene></scene>
							<shottake></shottake>
							<lognote></lognote>
						</logginginfo>
						<labels>
							<label2>Caribbean</label2>
						</labels>
					</clipitem>
					<clipitem id="clipitem-1527" premiereChannelType="mono">
						<masterclipid>masterclip-62</masterclipid>
						<name>Publ 1 H_02.wav</name>
						<enabled>TRUE</enabled>
						<duration>171138</duration>
						<rate>
							<timebase>25</timebase>
							<ntsc>FALSE</ntsc>
						</rate>
						<start>31513</start>
						<end>31909</end>
						<in>109447</in>
						<out>109843</out>
						<pproTicksIn>1112051566080000</pproTicksIn>
						<pproTicksOut>1116075179520000</pproTicksOut>
						<file id="file-58"/>
						<sourcetrack>
							<mediatype>audio</mediatype>
							<trackindex>1</trackindex>
						</sourcetrack>
						<logginginfo>
							<description></description>
							<scene></scene>
							<shottake></shottake>
							<lognote></lognote>
						</logginginfo>
						<labels>
							<label2>Caribbean</label2>
						</labels>
					</clipitem>
					<clipitem id="clipitem-1528" premiereChannelType="mono">
						<masterclipid>masterclip-62</masterclipid>
						<name>Publ 1 H_02.wav</name>
						<enabled>TRUE</enabled>
						<duration>171138</duration>
						<rate>
							<timebase>25</timebase>
							<ntsc>FALSE</ntsc>
						</rate>
						<start>31909</start>
						<end>32128</end>
						<in>109926</in>
						<out>110145</out>
						<pproTicksIn>1116918512640000</pproTicksIn>
						<pproTicksOut>1119143692800000</pproTicksOut>
						<file id="file-58"/>
						<sourcetrack>
							<mediatype>audio</mediatype>
							<trackindex>1</trackindex>
						</sourcetrack>
						<logginginfo>
							<description></description>
							<scene></scene>
							<shottake></shottake>
							<lognote></lognote>
						</logginginfo>
						<labels>
							<label2>Caribbean</label2>
						</labels>
					</clipitem>
					<clipitem id="clipitem-1529" premiereChannelType="mono">
						<masterclipid>masterclip-62</masterclipid>
						<name>Publ 1 H_02.wav</name>
						<enabled>TRUE</enabled>
						<duration>171138</duration>
						<rate>
							<timebase>25</timebase>
							<ntsc>FALSE</ntsc>
						</rate>
						<start>32128</start>
						<end>32853</end>
						<in>111277</in>
						<out>112002</out>
						<pproTicksIn>1130645537280000</pproTicksIn>
						<pproTicksOut>1138012001280000</pproTicksOut>
						<file id="file-58"/>
						<sourcetrack>
							<mediatype>audio</mediatype>
							<trackindex>1</trackindex>
						</sourcetrack>
						<logginginfo>
							<description></description>
							<scene></scene>
							<shottake></shottake>
							<lognote></lognote>
						</logginginfo>
						<labels>
							<label2>Caribbean</label2>
						</labels>
					</clipitem>
					<clipitem id="clipitem-1530" premiereChannelType="mono">
						<masterclipid>masterclip-62</masterclipid>
						<name>Publ 1 H_02.wav</name>
						<enabled>TRUE</enabled>
						<duration>171138</duration>
						<rate>
							<timebase>25</timebase>
							<ntsc>FALSE</ntsc>
						</rate>
						<start>32853</start>
						<end>32890</end>
						<in>112002</in>
						<out>112039</out>
						<pproTicksIn>1138012001280000</pproTicksIn>
						<pproTicksOut>1138387944960000</pproTicksOut>
						<file id="file-58"/>
						<sourcetrack>
							<mediatype>audio</mediatype>
							<trackindex>1</trackindex>
						</sourcetrack>
						<logginginfo>
							<description></description>
							<scene></scene>
							<shottake></shottake>
							<lognote></lognote>
						</logginginfo>
						<labels>
							<label2>Caribbean</label2>
						</labels>
					</clipitem>
					<clipitem id="clipitem-1531" premiereChannelType="mono">
						<masterclipid>masterclip-62</masterclipid>
						<name>Publ 1 H_02.wav</name>
						<enabled>TRUE</enabled>
						<duration>171138</duration>
						<rate>
							<timebase>25</timebase>
							<ntsc>FALSE</ntsc>
						</rate>
						<start>32890</start>
						<end>33281</end>
						<in>115277</in>
						<out>115668</out>
						<pproTicksIn>1171288097280000</pproTicksIn>
						<pproTicksOut>1175260907520000</pproTicksOut>
						<file id="file-58"/>
						<sourcetrack>
							<mediatype>audio</mediatype>
							<trackindex>1</trackindex>
						</sourcetrack>
						<logginginfo>
							<description></description>
							<scene></scene>
							<shottake></shottake>
							<lognote></lognote>
						</logginginfo>
						<labels>
							<label2>Caribbean</label2>
						</labels>
					</clipitem>
					<clipitem id="clipitem-1532" premiereChannelType="mono">
						<masterclipid>masterclip-62</masterclipid>
						<name>Publ 1 H_02.wav</name>
						<enabled>TRUE</enabled>
						<duration>171138</duration>
						<rate>
							<timebase>25</timebase>
							<ntsc>FALSE</ntsc>
						</rate>
						<start>33281</start>
						<end>33357</end>
						<in>116203</in>
						<out>116279</out>
						<pproTicksIn>1180696849920000</pproTicksIn>
						<pproTicksOut>1181469058560000</pproTicksOut>
						<file id="file-58"/>
						<sourcetrack>
							<mediatype>audio</mediatype>
							<trackindex>1</trackindex>
						</sourcetrack>
						<logginginfo>
							<description></description>
							<scene></scene>
							<shottake></shottake>
							<lognote></lognote>
						</logginginfo>
						<labels>
							<label2>Caribbean</label2>
						</labels>
					</clipitem>
					<clipitem id="clipitem-1533" premiereChannelType="mono">
						<masterclipid>masterclip-62</masterclipid>
						<name>Publ 1 H_02.wav</name>
						<enabled>TRUE</enabled>
						<duration>171138</duration>
						<rate>
							<timebase>25</timebase>
							<ntsc>FALSE</ntsc>
						</rate>
						<start>33357</start>
						<end>33465</end>
						<in>116298</in>
						<out>116406</out>
						<pproTicksIn>1181662110720000</pproTicksIn>
						<pproTicksOut>1182759459840000</pproTicksOut>
						<file id="file-58"/>
						<sourcetrack>
							<mediatype>audio</mediatype>
							<trackindex>1</trackindex>
						</sourcetrack>
						<logginginfo>
							<description></description>
							<scene></scene>
							<shottake></shottake>
							<lognote></lognote>
						</logginginfo>
						<labels>
							<label2>Caribbean</label2>
						</labels>
					</clipitem>
					<clipitem id="clipitem-1534" premiereChannelType="mono">
						<masterclipid>masterclip-62</masterclipid>
						<name>Publ 1 H_02.wav</name>
						<enabled>TRUE</enabled>
						<duration>171138</duration>
						<rate>
							<timebase>25</timebase>
							<ntsc>FALSE</ntsc>
						</rate>
						<start>33465</start>
						<end>33766</end>
						<in>116510</in>
						<out>116811</out>
						<pproTicksIn>1183816166400000</pproTicksIn>
						<pproTicksOut>1186874519040000</pproTicksOut>
						<file id="file-58"/>
						<sourcetrack>
							<mediatype>audio</mediatype>
							<trackindex>1</trackindex>
						</sourcetrack>
						<logginginfo>
							<description></description>
							<scene></scene>
							<shottake></shottake>
							<lognote></lognote>
						</logginginfo>
						<labels>
							<label2>Caribbean</label2>
						</labels>
					</clipitem>
					<clipitem id="clipitem-1535" premiereChannelType="mono">
						<masterclipid>masterclip-62</masterclipid>
						<name>Publ 1 H_02.wav</name>
						<enabled>TRUE</enabled>
						<duration>171138</duration>
						<rate>
							<timebase>25</timebase>
							<ntsc>FALSE</ntsc>
						</rate>
						<start>33766</start>
						<end>33992</end>
						<in>116811</in>
						<out>117037</out>
						<pproTicksIn>1186874519040000</pproTicksIn>
						<pproTicksOut>1189170823680000</pproTicksOut>
						<file id="file-58"/>
						<sourcetrack>
							<mediatype>audio</mediatype>
							<trackindex>1</trackindex>
						</sourcetrack>
						<logginginfo>
							<description></description>
							<scene></scene>
							<shottake></shottake>
							<lognote></lognote>
						</logginginfo>
						<labels>
							<label2>Caribbean</label2>
						</labels>
					</clipitem>
					<clipitem id="clipitem-1536" premiereChannelType="mono">
						<masterclipid>masterclip-62</masterclipid>
						<name>Publ 1 H_02.wav</name>
						<enabled>TRUE</enabled>
						<duration>171138</duration>
						<rate>
							<timebase>25</timebase>
							<ntsc>FALSE</ntsc>
						</rate>
						<start>33992</start>
						<end>34035</end>
						<in>117226</in>
						<out>117269</out>
						<pproTicksIn>1191091184640000</pproTicksIn>
						<pproTicksOut>1191528092160000</pproTicksOut>
						<file id="file-58"/>
						<sourcetrack>
							<mediatype>audio</mediatype>
							<trackindex>1</trackindex>
						</sourcetrack>
						<logginginfo>
							<description></description>
							<scene></scene>
							<shottake></shottake>
							<lognote></lognote>
						</logginginfo>
						<labels>
							<label2>Caribbean</label2>
						</labels>
					</clipitem>
					<clipitem id="clipitem-1537" premiereChannelType="mono">
						<masterclipid>masterclip-62</masterclipid>
						<name>Publ 1 H_02.wav</name>
						<enabled>TRUE</enabled>
						<duration>171138</duration>
						<rate>
							<timebase>25</timebase>
							<ntsc>FALSE</ntsc>
						</rate>
						<start>34035</start>
						<end>34790</end>
						<in>117633</in>
						<out>118388</out>
						<pproTicksIn>1195226565120000</pproTicksIn>
						<pproTicksOut>1202897848320000</pproTicksOut>
						<file id="file-58"/>
						<sourcetrack>
							<mediatype>audio</mediatype>
							<trackindex>1</trackindex>
						</sourcetrack>
						<logginginfo>
							<description></description>
							<scene></scene>
							<shottake></shottake>
							<lognote></lognote>
						</logginginfo>
						<labels>
							<label2>Caribbean</label2>
						</labels>
					</clipitem>
					<clipitem id="clipitem-1538" premiereChannelType="mono">
						<masterclipid>masterclip-62</masterclipid>
						<name>Publ 1 H_02.wav</name>
						<enabled>TRUE</enabled>
						<duration>171138</duration>
						<rate>
							<timebase>25</timebase>
							<ntsc>FALSE</ntsc>
						</rate>
						<start>34790</start>
						<end>35299</end>
						<in>118612</in>
						<out>119121</out>
						<pproTicksIn>1205173831680000</pproTicksIn>
						<pproTicksOut>1210345597440000</pproTicksOut>
						<file id="file-58"/>
						<sourcetrack>
							<mediatype>audio</mediatype>
							<trackindex>1</trackindex>
						</sourcetrack>
						<logginginfo>
							<description></description>
							<scene></scene>
							<shottake></shottake>
							<lognote></lognote>
						</logginginfo>
						<labels>
							<label2>Caribbean</label2>
						</labels>
					</clipitem>
					<clipitem id="clipitem-1539" premiereChannelType="mono">
						<masterclipid>masterclip-62</masterclipid>
						<name>Publ 1 H_02.wav</name>
						<enabled>TRUE</enabled>
						<duration>171138</duration>
						<rate>
							<timebase>25</timebase>
							<ntsc>FALSE</ntsc>
						</rate>
						<start>35299</start>
						<end>35672</end>
						<in>119201</in>
						<out>119574</out>
						<pproTicksIn>1211158448640000</pproTicksIn>
						<pproTicksOut>1214948367360000</pproTicksOut>
						<file id="file-58"/>
						<sourcetrack>
							<mediatype>audio</mediatype>
							<trackindex>1</trackindex>
						</sourcetrack>
						<logginginfo>
							<description></description>
							<scene></scene>
							<shottake></shottake>
							<lognote></lognote>
						</logginginfo>
						<labels>
							<label2>Caribbean</label2>
						</labels>
					</clipitem>
					<clipitem id="clipitem-1540" premiereChannelType="mono">
						<masterclipid>masterclip-62</masterclipid>
						<name>Publ 1 H_02.wav</name>
						<enabled>TRUE</enabled>
						<duration>171138</duration>
						<rate>
							<timebase>25</timebase>
							<ntsc>FALSE</ntsc>
						</rate>
						<start>35672</start>
						<end>36434</end>
						<in>119583</in>
						<out>120345</out>
						<pproTicksIn>1215039813120000</pproTicksIn>
						<pproTicksOut>1222782220800000</pproTicksOut>
						<file id="file-58"/>
						<sourcetrack>
							<mediatype>audio</mediatype>
							<trackindex>1</trackindex>
						</sourcetrack>
						<logginginfo>
							<description></description>
							<scene></scene>
							<shottake></shottake>
							<lognote></lognote>
						</logginginfo>
						<labels>
							<label2>Caribbean</label2>
						</labels>
					</clipitem>
					<clipitem id="clipitem-1541" premiereChannelType="mono">
						<masterclipid>masterclip-62</masterclipid>
						<name>Publ 1 H_02.wav</name>
						<enabled>TRUE</enabled>
						<duration>171138</duration>
						<rate>
							<timebase>25</timebase>
							<ntsc>FALSE</ntsc>
						</rate>
						<start>36434</start>
						<end>36524</end>
						<in>120539</in>
						<out>120629</out>
						<pproTicksIn>1224753384960000</pproTicksIn>
						<pproTicksOut>1225667842560000</pproTicksOut>
						<file id="file-58"/>
						<sourcetrack>
							<mediatype>audio</mediatype>
							<trackindex>1</trackindex>
						</sourcetrack>
						<logginginfo>
							<description></description>
							<scene></scene>
							<shottake></shottake>
							<lognote></lognote>
						</logginginfo>
						<labels>
							<label2>Caribbean</label2>
						</labels>
					</clipitem>
					<clipitem id="clipitem-1542" premiereChannelType="mono">
						<masterclipid>masterclip-62</masterclipid>
						<name>Publ 1 H_02.wav</name>
						<enabled>TRUE</enabled>
						<duration>171138</duration>
						<rate>
							<timebase>25</timebase>
							<ntsc>FALSE</ntsc>
						</rate>
						<start>36524</start>
						<end>37155</end>
						<in>124899</in>
						<out>125530</out>
						<pproTicksIn>1269053775360000</pproTicksIn>
						<pproTicksOut>1275465139200000</pproTicksOut>
						<file id="file-58"/>
						<sourcetrack>
							<mediatype>audio</mediatype>
							<trackindex>1</trackindex>
						</sourcetrack>
						<logginginfo>
							<description></description>
							<scene></scene>
							<shottake></shottake>
							<lognote></lognote>
						</logginginfo>
						<labels>
							<label2>Caribbean</label2>
						</labels>
					</clipitem>
					<clipitem id="clipitem-1543" premiereChannelType="mono">
						<masterclipid>masterclip-62</masterclipid>
						<name>Publ 1 H_02.wav</name>
						<enabled>TRUE</enabled>
						<duration>171138</duration>
						<rate>
							<timebase>25</timebase>
							<ntsc>FALSE</ntsc>
						</rate>
						<start>37732</start>
						<end>40503</end>
						<in>126107</in>
						<out>128878</out>
						<pproTicksIn>1281327828480000</pproTicksIn>
						<pproTicksOut>1309482961920000</pproTicksOut>
						<file id="file-58"/>
						<sourcetrack>
							<mediatype>audio</mediatype>
							<trackindex>1</trackindex>
						</sourcetrack>
						<logginginfo>
							<description></description>
							<scene></scene>
							<shottake></shottake>
							<lognote></lognote>
						</logginginfo>
						<labels>
							<label2>Caribbean</label2>
						</labels>
					</clipitem>
					<clipitem id="clipitem-1544" premiereChannelType="mono">
						<masterclipid>masterclip-62</masterclipid>
						<name>Publ 1 H_02.wav</name>
						<enabled>TRUE</enabled>
						<duration>171138</duration>
						<rate>
							<timebase>25</timebase>
							<ntsc>FALSE</ntsc>
						</rate>
						<start>40503</start>
						<end>40839</end>
						<in>128926</in>
						<out>129262</out>
						<pproTicksIn>1309970672640000</pproTicksIn>
						<pproTicksOut>1313384647680000</pproTicksOut>
						<file id="file-58"/>
						<sourcetrack>
							<mediatype>audio</mediatype>
							<trackindex>1</trackindex>
						</sourcetrack>
						<logginginfo>
							<description></description>
							<scene></scene>
							<shottake></shottake>
							<lognote></lognote>
						</logginginfo>
						<labels>
							<label2>Caribbean</label2>
						</labels>
					</clipitem>
					<clipitem id="clipitem-1545" premiereChannelType="mono">
						<masterclipid>masterclip-62</masterclipid>
						<name>Publ 1 H_02.wav</name>
						<enabled>TRUE</enabled>
						<duration>171138</duration>
						<rate>
							<timebase>25</timebase>
							<ntsc>FALSE</ntsc>
						</rate>
						<start>40839</start>
						<end>41006</end>
						<in>129262</in>
						<out>129429</out>
						<pproTicksIn>1313384647680000</pproTicksIn>
						<pproTicksOut>1315081474560000</pproTicksOut>
						<file id="file-58"/>
						<sourcetrack>
							<mediatype>audio</mediatype>
							<trackindex>1</trackindex>
						</sourcetrack>
						<logginginfo>
							<description></description>
							<scene></scene>
							<shottake></shottake>
							<lognote></lognote>
						</logginginfo>
						<labels>
							<label2>Caribbean</label2>
						</labels>
					</clipitem>
					<clipitem id="clipitem-1546" premiereChannelType="mono">
						<masterclipid>masterclip-62</masterclipid>
						<name>Publ 1 H_02.wav</name>
						<enabled>TRUE</enabled>
						<duration>171138</duration>
						<rate>
							<timebase>25</timebase>
							<ntsc>FALSE</ntsc>
						</rate>
						<start>41006</start>
						<end>41144</end>
						<in>129476</in>
						<out>129614</out>
						<pproTicksIn>1315559024640000</pproTicksIn>
						<pproTicksOut>1316961192960000</pproTicksOut>
						<file id="file-58"/>
						<sourcetrack>
							<mediatype>audio</mediatype>
							<trackindex>1</trackindex>
						</sourcetrack>
						<logginginfo>
							<description></description>
							<scene></scene>
							<shottake></shottake>
							<lognote></lognote>
						</logginginfo>
						<labels>
							<label2>Caribbean</label2>
						</labels>
					</clipitem>
					<clipitem id="clipitem-1547" premiereChannelType="mono">
						<masterclipid>masterclip-62</masterclipid>
						<name>Publ 1 H_02.wav</name>
						<enabled>TRUE</enabled>
						<duration>171138</duration>
						<rate>
							<timebase>25</timebase>
							<ntsc>FALSE</ntsc>
						</rate>
						<start>41144</start>
						<end>41720</end>
						<in>131417</in>
						<out>131993</out>
						<pproTicksIn>1335280826880000</pproTicksIn>
						<pproTicksOut>1341133355520000</pproTicksOut>
						<file id="file-58"/>
						<sourcetrack>
							<mediatype>audio</mediatype>
							<trackindex>1</trackindex>
						</sourcetrack>
						<logginginfo>
							<description></description>
							<scene></scene>
							<shottake></shottake>
							<lognote></lognote>
						</logginginfo>
						<labels>
							<label2>Caribbean</label2>
						</labels>
					</clipitem>
					<clipitem id="clipitem-1548" premiereChannelType="mono">
						<masterclipid>masterclip-62</masterclipid>
						<name>Publ 1 H_02.wav</name>
						<enabled>TRUE</enabled>
						<duration>171138</duration>
						<rate>
							<timebase>25</timebase>
							<ntsc>FALSE</ntsc>
						</rate>
						<start>41720</start>
						<end>42122</end>
						<in>132051</in>
						<out>132453</out>
						<pproTicksIn>1341722672640000</pproTicksIn>
						<pproTicksOut>1345807249920000</pproTicksOut>
						<file id="file-58"/>
						<sourcetrack>
							<mediatype>audio</mediatype>
							<trackindex>1</trackindex>
						</sourcetrack>
						<logginginfo>
							<description></description>
							<scene></scene>
							<shottake></shottake>
							<lognote></lognote>
						</logginginfo>
						<labels>
							<label2>Caribbean</label2>
						</labels>
					</clipitem>
					<clipitem id="clipitem-1549" premiereChannelType="mono">
						<masterclipid>masterclip-62</masterclipid>
						<name>Publ 1 H_02.wav</name>
						<enabled>TRUE</enabled>
						<duration>171138</duration>
						<rate>
							<timebase>25</timebase>
							<ntsc>FALSE</ntsc>
						</rate>
						<start>42122</start>
						<end>42277</end>
						<in>132657</in>
						<out>132812</out>
						<pproTicksIn>1347880020480000</pproTicksIn>
						<pproTicksOut>1349454919680000</pproTicksOut>
						<file id="file-58"/>
						<sourcetrack>
							<mediatype>audio</mediatype>
							<trackindex>1</trackindex>
						</sourcetrack>
						<logginginfo>
							<description></description>
							<scene></scene>
							<shottake></shottake>
							<lognote></lognote>
						</logginginfo>
						<labels>
							<label2>Caribbean</label2>
						</labels>
					</clipitem>
					<clipitem id="clipitem-1550" premiereChannelType="mono">
						<masterclipid>masterclip-62</masterclipid>
						<name>Publ 1 H_02.wav</name>
						<enabled>TRUE</enabled>
						<duration>171138</duration>
						<rate>
							<timebase>25</timebase>
							<ntsc>FALSE</ntsc>
						</rate>
						<start>42277</start>
						<end>42347</end>
						<in>133359</in>
						<out>133429</out>
						<pproTicksIn>1355012789760000</pproTicksIn>
						<pproTicksOut>1355724034560000</pproTicksOut>
						<file id="file-58"/>
						<sourcetrack>
							<mediatype>audio</mediatype>
							<trackindex>1</trackindex>
						</sourcetrack>
						<logginginfo>
							<description></description>
							<scene></scene>
							<shottake></shottake>
							<lognote></lognote>
						</logginginfo>
						<labels>
							<label2>Caribbean</label2>
						</labels>
					</clipitem>
					<clipitem id="clipitem-1551" premiereChannelType="mono">
						<masterclipid>masterclip-62</masterclipid>
						<name>Publ 1 H_02.wav</name>
						<enabled>TRUE</enabled>
						<duration>171138</duration>
						<rate>
							<timebase>25</timebase>
							<ntsc>FALSE</ntsc>
						</rate>
						<start>42347</start>
						<end>42499</end>
						<in>133852</in>
						<out>134004</out>
						<pproTicksIn>1360021985280000</pproTicksIn>
						<pproTicksOut>1361566402560000</pproTicksOut>
						<file id="file-58"/>
						<sourcetrack>
							<mediatype>audio</mediatype>
							<trackindex>1</trackindex>
						</sourcetrack>
						<logginginfo>
							<description></description>
							<scene></scene>
							<shottake></shottake>
							<lognote></lognote>
						</logginginfo>
						<labels>
							<label2>Caribbean</label2>
						</labels>
					</clipitem>
					<clipitem id="clipitem-1552" premiereChannelType="mono">
						<masterclipid>masterclip-62</masterclipid>
						<name>Publ 1 H_02.wav</name>
						<enabled>TRUE</enabled>
						<duration>171138</duration>
						<rate>
							<timebase>25</timebase>
							<ntsc>FALSE</ntsc>
						</rate>
						<start>42499</start>
						<end>42832</end>
						<in>134099</in>
						<out>134432</out>
						<pproTicksIn>1362531663360000</pproTicksIn>
						<pproTicksOut>1365915156480000</pproTicksOut>
						<file id="file-58"/>
						<sourcetrack>
							<mediatype>audio</mediatype>
							<trackindex>1</trackindex>
						</sourcetrack>
						<logginginfo>
							<description></description>
							<scene></scene>
							<shottake></shottake>
							<lognote></lognote>
						</logginginfo>
						<labels>
							<label2>Caribbean</label2>
						</labels>
					</clipitem>
					<clipitem id="clipitem-1553" premiereChannelType="mono">
						<masterclipid>masterclip-62</masterclipid>
						<name>Publ 1 H_02.wav</name>
						<enabled>TRUE</enabled>
						<duration>171138</duration>
						<rate>
							<timebase>25</timebase>
							<ntsc>FALSE</ntsc>
						</rate>
						<start>42832</start>
						<end>43282</end>
						<in>134992</in>
						<out>135442</out>
						<pproTicksIn>1371605114880000</pproTicksIn>
						<pproTicksOut>1376177402880000</pproTicksOut>
						<file id="file-58"/>
						<sourcetrack>
							<mediatype>audio</mediatype>
							<trackindex>1</trackindex>
						</sourcetrack>
						<logginginfo>
							<description></description>
							<scene></scene>
							<shottake></shottake>
							<lognote></lognote>
						</logginginfo>
						<labels>
							<label2>Caribbean</label2>
						</labels>
					</clipitem>
					<clipitem id="clipitem-1554" premiereChannelType="mono">
						<masterclipid>masterclip-62</masterclipid>
						<name>Publ 1 H_02.wav</name>
						<enabled>TRUE</enabled>
						<duration>171138</duration>
						<rate>
							<timebase>25</timebase>
							<ntsc>FALSE</ntsc>
						</rate>
						<start>43282</start>
						<end>43553</end>
						<in>135648</in>
						<out>135919</out>
						<pproTicksIn>1378270494720000</pproTicksIn>
						<pproTicksOut>1381024028160000</pproTicksOut>
						<file id="file-58"/>
						<sourcetrack>
							<mediatype>audio</mediatype>
							<trackindex>1</trackindex>
						</sourcetrack>
						<logginginfo>
							<description></description>
							<scene></scene>
							<shottake></shottake>
							<lognote></lognote>
						</logginginfo>
						<labels>
							<label2>Caribbean</label2>
						</labels>
					</clipitem>
					<clipitem id="clipitem-1555" premiereChannelType="mono">
						<masterclipid>masterclip-62</masterclipid>
						<name>Publ 1 H_02.wav</name>
						<enabled>TRUE</enabled>
						<duration>171138</duration>
						<rate>
							<timebase>25</timebase>
							<ntsc>FALSE</ntsc>
						</rate>
						<start>43553</start>
						<end>44385</end>
						<in>136003</in>
						<out>136835</out>
						<pproTicksIn>1381877521920000</pproTicksIn>
						<pproTicksOut>1390331174400000</pproTicksOut>
						<file id="file-58"/>
						<sourcetrack>
							<mediatype>audio</mediatype>
							<trackindex>1</trackindex>
						</sourcetrack>
						<logginginfo>
							<description></description>
							<scene></scene>
							<shottake></shottake>
							<lognote></lognote>
						</logginginfo>
						<labels>
							<label2>Caribbean</label2>
						</labels>
					</clipitem>
					<clipitem id="clipitem-1556" premiereChannelType="mono">
						<masterclipid>masterclip-62</masterclipid>
						<name>Publ 1 H_02.wav</name>
						<enabled>TRUE</enabled>
						<duration>171138</duration>
						<rate>
							<timebase>25</timebase>
							<ntsc>FALSE</ntsc>
						</rate>
						<start>44385</start>
						<end>44583</end>
						<in>137077</in>
						<out>137275</out>
						<pproTicksIn>1392790049280000</pproTicksIn>
						<pproTicksOut>1394801856000000</pproTicksOut>
						<file id="file-58"/>
						<sourcetrack>
							<mediatype>audio</mediatype>
							<trackindex>1</trackindex>
						</sourcetrack>
						<logginginfo>
							<description></description>
							<scene></scene>
							<shottake></shottake>
							<lognote></lognote>
						</logginginfo>
						<labels>
							<label2>Caribbean</label2>
						</labels>
					</clipitem>
					<clipitem id="clipitem-1557" premiereChannelType="mono">
						<masterclipid>masterclip-62</masterclipid>
						<name>Publ 1 H_02.wav</name>
						<enabled>TRUE</enabled>
						<duration>171138</duration>
						<rate>
							<timebase>25</timebase>
							<ntsc>FALSE</ntsc>
						</rate>
						<start>44583</start>
						<end>44650</end>
						<in>137376</in>
						<out>137443</out>
						<pproTicksIn>1395828080640000</pproTicksIn>
						<pproTicksOut>1396508843520000</pproTicksOut>
						<file id="file-58"/>
						<sourcetrack>
							<mediatype>audio</mediatype>
							<trackindex>1</trackindex>
						</sourcetrack>
						<logginginfo>
							<description></description>
							<scene></scene>
							<shottake></shottake>
							<lognote></lognote>
						</logginginfo>
						<labels>
							<label2>Caribbean</label2>
						</labels>
					</clipitem>
					<clipitem id="clipitem-1558" premiereChannelType="mono">
						<masterclipid>masterclip-62</masterclipid>
						<name>Publ 1 H_02.wav</name>
						<enabled>TRUE</enabled>
						<duration>171138</duration>
						<rate>
							<timebase>25</timebase>
							<ntsc>FALSE</ntsc>
						</rate>
						<start>44650</start>
						<end>45287</end>
						<in>137505</in>
						<out>138142</out>
						<pproTicksIn>1397138803200000</pproTicksIn>
						<pproTicksOut>1403611130880000</pproTicksOut>
						<file id="file-58"/>
						<sourcetrack>
							<mediatype>audio</mediatype>
							<trackindex>1</trackindex>
						</sourcetrack>
						<logginginfo>
							<description></description>
							<scene></scene>
							<shottake></shottake>
							<lognote></lognote>
						</logginginfo>
						<labels>
							<label2>Caribbean</label2>
						</labels>
					</clipitem>
					<clipitem id="clipitem-1559" premiereChannelType="mono">
						<masterclipid>masterclip-62</masterclipid>
						<name>Publ 1 H_02.wav</name>
						<enabled>TRUE</enabled>
						<duration>171138</duration>
						<rate>
							<timebase>25</timebase>
							<ntsc>FALSE</ntsc>
						</rate>
						<start>45287</start>
						<end>45692</end>
						<in>138274</in>
						<out>138679</out>
						<pproTicksIn>1404952335360000</pproTicksIn>
						<pproTicksOut>1409067394560000</pproTicksOut>
						<file id="file-58"/>
						<sourcetrack>
							<mediatype>audio</mediatype>
							<trackindex>1</trackindex>
						</sourcetrack>
						<logginginfo>
							<description></description>
							<scene></scene>
							<shottake></shottake>
							<lognote></lognote>
						</logginginfo>
						<labels>
							<label2>Caribbean</label2>
						</labels>
					</clipitem>
					<clipitem id="clipitem-1560" premiereChannelType="mono">
						<masterclipid>masterclip-62</masterclipid>
						<name>Publ 1 H_02.wav</name>
						<enabled>TRUE</enabled>
						<duration>171138</duration>
						<rate>
							<timebase>25</timebase>
							<ntsc>FALSE</ntsc>
						</rate>
						<start>45692</start>
						<end>45923</end>
						<in>138810</in>
						<out>139041</out>
						<pproTicksIn>1410398438400000</pproTicksIn>
						<pproTicksOut>1412745546240000</pproTicksOut>
						<file id="file-58"/>
						<sourcetrack>
							<mediatype>audio</mediatype>
							<trackindex>1</trackindex>
						</sourcetrack>
						<logginginfo>
							<description></description>
							<scene></scene>
							<shottake></shottake>
							<lognote></lognote>
						</logginginfo>
						<labels>
							<label2>Caribbean</label2>
						</labels>
					</clipitem>
					<clipitem id="clipitem-1561" premiereChannelType="mono">
						<masterclipid>masterclip-62</masterclipid>
						<name>Publ 1 H_02.wav</name>
						<enabled>TRUE</enabled>
						<duration>171138</duration>
						<rate>
							<timebase>25</timebase>
							<ntsc>FALSE</ntsc>
						</rate>
						<start>45923</start>
						<end>46349</end>
						<in>139073</in>
						<out>139499</out>
						<pproTicksIn>1413070686720000</pproTicksIn>
						<pproTicksOut>1417399119360000</pproTicksOut>
						<file id="file-58"/>
						<sourcetrack>
							<mediatype>audio</mediatype>
							<trackindex>1</trackindex>
						</sourcetrack>
						<logginginfo>
							<description></description>
							<scene></scene>
							<shottake></shottake>
							<lognote></lognote>
						</logginginfo>
						<labels>
							<label2>Caribbean</label2>
						</labels>
					</clipitem>
					<clipitem id="clipitem-1562" premiereChannelType="mono">
						<masterclipid>masterclip-62</masterclipid>
						<name>Publ 1 H_02.wav</name>
						<enabled>TRUE</enabled>
						<duration>171138</duration>
						<rate>
							<timebase>25</timebase>
							<ntsc>FALSE</ntsc>
						</rate>
						<start>46349</start>
						<end>46455</end>
						<in>159642</in>
						<out>159748</out>
						<pproTicksIn>1622064890880000</pproTicksIn>
						<pproTicksOut>1623141918720000</pproTicksOut>
						<file id="file-58"/>
						<sourcetrack>
							<mediatype>audio</mediatype>
							<trackindex>1</trackindex>
						</sourcetrack>
						<logginginfo>
							<description></description>
							<scene></scene>
							<shottake></shottake>
							<lognote></lognote>
						</logginginfo>
						<labels>
							<label2>Caribbean</label2>
						</labels>
					</clipitem>
					<clipitem id="clipitem-1563" premiereChannelType="mono">
						<masterclipid>masterclip-62</masterclipid>
						<name>Publ 1 H_02.wav</name>
						<enabled>TRUE</enabled>
						<duration>171138</duration>
						<rate>
							<timebase>25</timebase>
							<ntsc>FALSE</ntsc>
						</rate>
						<start>46455</start>
						<end>46911</end>
						<in>140048</in>
						<out>140504</out>
						<pproTicksIn>1422977310720000</pproTicksIn>
						<pproTicksOut>1427610562560000</pproTicksOut>
						<file id="file-58"/>
						<sourcetrack>
							<mediatype>audio</mediatype>
							<trackindex>1</trackindex>
						</sourcetrack>
						<logginginfo>
							<description></description>
							<scene></scene>
							<shottake></shottake>
							<lognote></lognote>
						</logginginfo>
						<labels>
							<label2>Caribbean</label2>
						</labels>
					</clipitem>
					<clipitem id="clipitem-1564" premiereChannelType="mono">
						<masterclipid>masterclip-62</masterclipid>
						<name>Publ 1 H_02.wav</name>
						<enabled>TRUE</enabled>
						<duration>171138</duration>
						<rate>
							<timebase>25</timebase>
							<ntsc>FALSE</ntsc>
						</rate>
						<start>46911</start>
						<end>47138</end>
						<in>140817</in>
						<out>141044</out>
						<pproTicksIn>1430790842880000</pproTicksIn>
						<pproTicksOut>1433097308160000</pproTicksOut>
						<file id="file-58"/>
						<sourcetrack>
							<mediatype>audio</mediatype>
							<trackindex>1</trackindex>
						</sourcetrack>
						<logginginfo>
							<description></description>
							<scene></scene>
							<shottake></shottake>
							<lognote></lognote>
						</logginginfo>
						<labels>
							<label2>Caribbean</label2>
						</labels>
					</clipitem>
					<clipitem id="clipitem-1565" premiereChannelType="mono">
						<masterclipid>masterclip-62</masterclipid>
						<name>Publ 1 H_02.wav</name>
						<enabled>TRUE</enabled>
						<duration>171138</duration>
						<rate>
							<timebase>25</timebase>
							<ntsc>FALSE</ntsc>
						</rate>
						<start>47138</start>
						<end>47335</end>
						<in>141203</in>
						<out>141400</out>
						<pproTicksIn>1434712849920000</pproTicksIn>
						<pproTicksOut>1436714496000000</pproTicksOut>
						<file id="file-58"/>
						<sourcetrack>
							<mediatype>audio</mediatype>
							<trackindex>1</trackindex>
						</sourcetrack>
						<logginginfo>
							<description></description>
							<scene></scene>
							<shottake></shottake>
							<lognote></lognote>
						</logginginfo>
						<labels>
							<label2>Caribbean</label2>
						</labels>
					</clipitem>
					<clipitem id="clipitem-1566" premiereChannelType="mono">
						<masterclipid>masterclip-62</masterclipid>
						<name>Publ 1 H_02.wav</name>
						<enabled>TRUE</enabled>
						<duration>171138</duration>
						<rate>
							<timebase>25</timebase>
							<ntsc>FALSE</ntsc>
						</rate>
						<start>47335</start>
						<end>47513</end>
						<in>141454</in>
						<out>141632</out>
						<pproTicksIn>1437263170560000</pproTicksIn>
						<pproTicksOut>1439071764480000</pproTicksOut>
						<file id="file-58"/>
						<sourcetrack>
							<mediatype>audio</mediatype>
							<trackindex>1</trackindex>
						</sourcetrack>
						<logginginfo>
							<description></description>
							<scene></scene>
							<shottake></shottake>
							<lognote></lognote>
						</logginginfo>
						<labels>
							<label2>Caribbean</label2>
						</labels>
					</clipitem>
					<clipitem id="clipitem-1567" premiereChannelType="mono">
						<masterclipid>masterclip-62</masterclipid>
						<name>Publ 1 H_02.wav</name>
						<enabled>TRUE</enabled>
						<duration>171138</duration>
						<rate>
							<timebase>25</timebase>
							<ntsc>FALSE</ntsc>
						</rate>
						<start>47513</start>
						<end>47723</end>
						<in>141671</in>
						<out>141881</out>
						<pproTicksIn>1439468029440000</pproTicksIn>
						<pproTicksOut>1441601763840000</pproTicksOut>
						<file id="file-58"/>
						<sourcetrack>
							<mediatype>audio</mediatype>
							<trackindex>1</trackindex>
						</sourcetrack>
						<logginginfo>
							<description></description>
							<scene></scene>
							<shottake></shottake>
							<lognote></lognote>
						</logginginfo>
						<labels>
							<label2>Caribbean</label2>
						</labels>
					</clipitem>
					<clipitem id="clipitem-1568" premiereChannelType="mono">
						<masterclipid>masterclip-62</masterclipid>
						<name>Publ 1 H_02.wav</name>
						<enabled>TRUE</enabled>
						<duration>171138</duration>
						<rate>
							<timebase>25</timebase>
							<ntsc>FALSE</ntsc>
						</rate>
						<start>47723</start>
						<end>48040</end>
						<in>141894</in>
						<out>142211</out>
						<pproTicksIn>1441733852160000</pproTicksIn>
						<pproTicksOut>1444954775040000</pproTicksOut>
						<file id="file-58"/>
						<sourcetrack>
							<mediatype>audio</mediatype>
							<trackindex>1</trackindex>
						</sourcetrack>
						<logginginfo>
							<description></description>
							<scene></scene>
							<shottake></shottake>
							<lognote></lognote>
						</logginginfo>
						<labels>
							<label2>Caribbean</label2>
						</labels>
					</clipitem>
					<clipitem id="clipitem-1569" premiereChannelType="mono">
						<masterclipid>masterclip-62</masterclipid>
						<name>Publ 1 H_02.wav</name>
						<enabled>TRUE</enabled>
						<duration>171138</duration>
						<rate>
							<timebase>25</timebase>
							<ntsc>FALSE</ntsc>
						</rate>
						<start>48040</start>
						<end>48766</end>
						<in>142351</in>
						<out>143077</out>
						<pproTicksIn>1446377264640000</pproTicksIn>
						<pproTicksOut>1453753889280000</pproTicksOut>
						<file id="file-58"/>
						<sourcetrack>
							<mediatype>audio</mediatype>
							<trackindex>1</trackindex>
						</sourcetrack>
						<logginginfo>
							<description></description>
							<scene></scene>
							<shottake></shottake>
							<lognote></lognote>
						</logginginfo>
						<labels>
							<label2>Caribbean</label2>
						</labels>
					</clipitem>
					<clipitem id="clipitem-1570" premiereChannelType="mono">
						<masterclipid>masterclip-62</masterclipid>
						<name>Publ 1 H_02.wav</name>
						<enabled>TRUE</enabled>
						<duration>171138</duration>
						<rate>
							<timebase>25</timebase>
							<ntsc>FALSE</ntsc>
						</rate>
						<start>48766</start>
						<end>49706</end>
						<in>143684</in>
						<out>144624</out>
						<pproTicksIn>1459921397760000</pproTicksIn>
						<pproTicksOut>1469472399360000</pproTicksOut>
						<file id="file-58"/>
						<sourcetrack>
							<mediatype>audio</mediatype>
							<trackindex>1</trackindex>
						</sourcetrack>
						<logginginfo>
							<description></description>
							<scene></scene>
							<shottake></shottake>
							<lognote></lognote>
						</logginginfo>
						<labels>
							<label2>Caribbean</label2>
						</labels>
					</clipitem>
					<clipitem id="clipitem-1571" premiereChannelType="mono">
						<masterclipid>masterclip-62</masterclipid>
						<name>Publ 1 H_02.wav</name>
						<enabled>TRUE</enabled>
						<duration>171138</duration>
						<rate>
							<timebase>25</timebase>
							<ntsc>FALSE</ntsc>
						</rate>
						<start>49706</start>
						<end>49762</end>
						<in>147186</in>
						<out>147242</out>
						<pproTicksIn>1495503959040000</pproTicksIn>
						<pproTicksOut>1496072954880000</pproTicksOut>
						<file id="file-58"/>
						<sourcetrack>
							<mediatype>audio</mediatype>
							<trackindex>1</trackindex>
						</sourcetrack>
						<logginginfo>
							<description></description>
							<scene></scene>
							<shottake></shottake>
							<lognote></lognote>
						</logginginfo>
						<labels>
							<label2>Caribbean</label2>
						</labels>
					</clipitem>
					<clipitem id="clipitem-1572" premiereChannelType="mono">
						<masterclipid>masterclip-62</masterclipid>
						<name>Publ 1 H_02.wav</name>
						<enabled>TRUE</enabled>
						<duration>171138</duration>
						<rate>
							<timebase>25</timebase>
							<ntsc>FALSE</ntsc>
						</rate>
						<start>49762</start>
						<end>49948</end>
						<in>153681</in>
						<out>153867</out>
						<pproTicksIn>1561497315840000</pproTicksIn>
						<pproTicksOut>1563387194880000</pproTicksOut>
						<file id="file-58"/>
						<sourcetrack>
							<mediatype>audio</mediatype>
							<trackindex>1</trackindex>
						</sourcetrack>
						<logginginfo>
							<description></description>
							<scene></scene>
							<shottake></shottake>
							<lognote></lognote>
						</logginginfo>
						<labels>
							<label2>Caribbean</label2>
						</labels>
					</clipitem>
					<clipitem id="clipitem-1573" premiereChannelType="mono">
						<masterclipid>masterclip-62</masterclipid>
						<name>Publ 1 H_02.wav</name>
						<enabled>TRUE</enabled>
						<duration>171138</duration>
						<rate>
							<timebase>25</timebase>
							<ntsc>FALSE</ntsc>
						</rate>
						<start>49948</start>
						<end>50390</end>
						<in>153946</in>
						<out>154388</out>
						<pproTicksIn>1564189885440000</pproTicksIn>
						<pproTicksOut>1568680888320000</pproTicksOut>
						<file id="file-58"/>
						<sourcetrack>
							<mediatype>audio</mediatype>
							<trackindex>1</trackindex>
						</sourcetrack>
						<logginginfo>
							<description></description>
							<scene></scene>
							<shottake></shottake>
							<lognote></lognote>
						</logginginfo>
						<labels>
							<label2>Caribbean</label2>
						</labels>
					</clipitem>
					<clipitem id="clipitem-1574" premiereChannelType="mono">
						<masterclipid>masterclip-62</masterclipid>
						<name>Publ 1 H_02.wav</name>
						<enabled>TRUE</enabled>
						<duration>171138</duration>
						<rate>
							<timebase>25</timebase>
							<ntsc>FALSE</ntsc>
						</rate>
						<start>50390</start>
						<end>50983</end>
						<in>156215</in>
						<out>156808</out>
						<pproTicksIn>1587244377600000</pproTicksIn>
						<pproTicksOut>1593269637120000</pproTicksOut>
						<file id="file-58"/>
						<sourcetrack>
							<mediatype>audio</mediatype>
							<trackindex>1</trackindex>
						</sourcetrack>
						<logginginfo>
							<description></description>
							<scene></scene>
							<shottake></shottake>
							<lognote></lognote>
						</logginginfo>
						<labels>
							<label2>Caribbean</label2>
						</labels>
					</clipitem>
					<clipitem id="clipitem-1575" premiereChannelType="mono">
						<masterclipid>masterclip-62</masterclipid>
						<name>Publ 1 H_02.wav</name>
						<enabled>TRUE</enabled>
						<duration>171138</duration>
						<rate>
							<timebase>25</timebase>
							<ntsc>FALSE</ntsc>
						</rate>
						<start>50983</start>
						<end>53597</end>
						<in>157028</in>
						<out>159642</out>
						<pproTicksIn>1595504977920000</pproTicksIn>
						<pproTicksOut>1622064890880000</pproTicksOut>
						<file id="file-58"/>
						<sourcetrack>
							<mediatype>audio</mediatype>
							<trackindex>1</trackindex>
						</sourcetrack>
						<logginginfo>
							<description></description>
							<scene></scene>
							<shottake></shottake>
							<lognote></lognote>
						</logginginfo>
						<labels>
							<label2>Caribbean</label2>
						</labels>
					</clipitem>
					<clipitem id="clipitem-1576" premiereChannelType="mono">
						<masterclipid>masterclip-62</masterclipid>
						<name>Publ 1 H_02.wav</name>
						<enabled>TRUE</enabled>
						<duration>171138</duration>
						<rate>
							<timebase>25</timebase>
							<ntsc>FALSE</ntsc>
						</rate>
						<start>53597</start>
						<end>53636</end>
						<in>160568</in>
						<out>160607</out>
						<pproTicksIn>1631473643520000</pproTicksIn>
						<pproTicksOut>1631869908480000</pproTicksOut>
						<file id="file-58"/>
						<sourcetrack>
							<mediatype>audio</mediatype>
							<trackindex>1</trackindex>
						</sourcetrack>
						<logginginfo>
							<description></description>
							<scene></scene>
							<shottake></shottake>
							<lognote></lognote>
						</logginginfo>
						<labels>
							<label2>Caribbean</label2>
						</labels>
					</clipitem>
					<clipitem id="clipitem-1577" premiereChannelType="mono">
						<masterclipid>masterclip-62</masterclipid>
						<name>Publ 1 H_02.wav</name>
						<enabled>TRUE</enabled>
						<duration>171138</duration>
						<rate>
							<timebase>25</timebase>
							<ntsc>FALSE</ntsc>
						</rate>
						<start>53636</start>
						<end>55369</end>
						<in>161146</in>
						<out>162879</out>
						<pproTicksIn>1637346493440000</pproTicksIn>
						<pproTicksOut>1654954882560000</pproTicksOut>
						<file id="file-58"/>
						<sourcetrack>
							<mediatype>audio</mediatype>
							<trackindex>1</trackindex>
						</sourcetrack>
						<logginginfo>
							<description></description>
							<scene></scene>
							<shottake></shottake>
							<lognote></lognote>
						</logginginfo>
						<labels>
							<label2>Caribbean</label2>
						</labels>
					</clipitem>
					<clipitem id="clipitem-1578" premiereChannelType="mono">
						<masterclipid>masterclip-62</masterclipid>
						<name>Publ 1 H_02.wav</name>
						<enabled>TRUE</enabled>
						<duration>171138</duration>
						<rate>
							<timebase>25</timebase>
							<ntsc>FALSE</ntsc>
						</rate>
						<start>55369</start>
						<end>55449</end>
						<in>162899</in>
						<out>162979</out>
						<pproTicksIn>1655158095360000</pproTicksIn>
						<pproTicksOut>1655970946560000</pproTicksOut>
						<file id="file-58"/>
						<sourcetrack>
							<mediatype>audio</mediatype>
							<trackindex>1</trackindex>
						</sourcetrack>
						<logginginfo>
							<description></description>
							<scene></scene>
							<shottake></shottake>
							<lognote></lognote>
						</logginginfo>
						<labels>
							<label2>Caribbean</label2>
						</labels>
					</clipitem>
					<clipitem id="clipitem-1579" premiereChannelType="mono">
						<masterclipid>masterclip-62</masterclipid>
						<name>Publ 1 H_02.wav</name>
						<enabled>TRUE</enabled>
						<duration>171138</duration>
						<rate>
							<timebase>25</timebase>
							<ntsc>FALSE</ntsc>
						</rate>
						<start>55449</start>
						<end>55738</end>
						<in>163146</in>
						<out>163435</out>
						<pproTicksIn>1657667773440000</pproTicksIn>
						<pproTicksOut>1660604198400000</pproTicksOut>
						<file id="file-58"/>
						<sourcetrack>
							<mediatype>audio</mediatype>
							<trackindex>1</trackindex>
						</sourcetrack>
						<logginginfo>
							<description></description>
							<scene></scene>
							<shottake></shottake>
							<lognote></lognote>
						</logginginfo>
						<labels>
							<label2>Caribbean</label2>
						</labels>
					</clipitem>
					<clipitem id="clipitem-1580" premiereChannelType="mono">
						<masterclipid>masterclip-62</masterclipid>
						<name>Publ 1 H_02.wav</name>
						<enabled>TRUE</enabled>
						<duration>171138</duration>
						<rate>
							<timebase>25</timebase>
							<ntsc>FALSE</ntsc>
						</rate>
						<start>55738</start>
						<end>55905</end>
						<in>163648</in>
						<out>163815</out>
						<pproTicksIn>1662768414720000</pproTicksIn>
						<pproTicksOut>1664465241600000</pproTicksOut>
						<file id="file-58"/>
						<sourcetrack>
							<mediatype>audio</mediatype>
							<trackindex>1</trackindex>
						</sourcetrack>
						<logginginfo>
							<description></description>
							<scene></scene>
							<shottake></shottake>
							<lognote></lognote>
						</logginginfo>
						<labels>
							<label2>Caribbean</label2>
						</labels>
					</clipitem>
					<clipitem id="clipitem-1581" premiereChannelType="mono">
						<masterclipid>masterclip-62</masterclipid>
						<name>Publ 1 H_02.wav</name>
						<enabled>TRUE</enabled>
						<duration>171138</duration>
						<rate>
							<timebase>25</timebase>
							<ntsc>FALSE</ntsc>
						</rate>
						<start>55905</start>
						<end>56079</end>
						<in>163829</in>
						<out>164003</out>
						<pproTicksIn>1664607490560000</pproTicksIn>
						<pproTicksOut>1666375441920000</pproTicksOut>
						<file id="file-58"/>
						<sourcetrack>
							<mediatype>audio</mediatype>
							<trackindex>1</trackindex>
						</sourcetrack>
						<logginginfo>
							<description></description>
							<scene></scene>
							<shottake></shottake>
							<lognote></lognote>
						</logginginfo>
						<labels>
							<label2>Caribbean</label2>
						</labels>
					</clipitem>
					<clipitem id="clipitem-1582" premiereChannelType="mono">
						<masterclipid>masterclip-62</masterclipid>
						<name>Publ 1 H_02.wav</name>
						<enabled>TRUE</enabled>
						<duration>171138</duration>
						<rate>
							<timebase>25</timebase>
							<ntsc>FALSE</ntsc>
						</rate>
						<start>56079</start>
						<end>58120</end>
						<in>164067</in>
						<out>166108</out>
						<pproTicksIn>1667025722880000</pproTicksIn>
						<pproTicksOut>1687763589120000</pproTicksOut>
						<file id="file-58"/>
						<sourcetrack>
							<mediatype>audio</mediatype>
							<trackindex>1</trackindex>
						</sourcetrack>
						<logginginfo>
							<description></description>
							<scene></scene>
							<shottake></shottake>
							<lognote></lognote>
						</logginginfo>
						<labels>
							<label2>Caribbean</label2>
						</labels>
					</clipitem>
					<enabled>TRUE</enabled>
					<locked>FALSE</locked>
					<outputchannelindex>1</outputchannelindex>
				</track>
				<track TL.SQTrackAudioKeyframeStyle="0" TL.SQTrackShy="0" TL.SQTrackExpandedHeight="25" TL.SQTrackExpanded="0" MZ.TrackTargeted="1" PannerCurrentValue="0.5" PannerIsInverted="true" PannerStartKeyframe="-91445760000000000,0.5,0,0,0,0,0,0" PannerName="Balance" currentExplodedTrackIndex="0" totalExplodedTrackCount="1" premiereTrackType="Stereo">
					<clipitem id="clipitem-1583" premiereChannelType="mono">
						<masterclipid>masterclip-63</masterclipid>
						<name>Publ 2 V_02.wav</name>
						<enabled>TRUE</enabled>
						<duration>171138</duration>
						<rate>
							<timebase>25</timebase>
							<ntsc>FALSE</ntsc>
						</rate>
						<start>420</start>
						<end>891</end>
						<in>168511</in>
						<out>168982</out>
						<pproTicksIn>1712179607040000</pproTicksIn>
						<pproTicksOut>1716965268480000</pproTicksOut>
						<file id="file-59">
							<name>Publ 2 V_02.wav</name>
							<pathurl>file://localhost/Volumes/Brakka/AdobeLager/QUIZ%20-%20brakka/RA%cc%8aSTOFF%20LYD/2005/Publ%202%20V_02.wav</pathurl>
							<rate>
								<timebase>30</timebase>
								<ntsc>TRUE</ntsc>
							</rate>
							<duration>205161</duration>
							<timecode>
								<rate>
									<timebase>30</timebase>
									<ntsc>TRUE</ntsc>
								</rate>
								<string>12;52;15;16</string>
								<frame>1388676</frame>
								<displayformat>DF</displayformat>
								<reel>
									<name></name>
								</reel>
							</timecode>
							<media>
								<audio>
									<samplecharacteristics>
										<depth>16</depth>
										<samplerate>48000</samplerate>
									</samplecharacteristics>
									<channelcount>1</channelcount>
									<audiochannel>
										<sourcechannel>1</sourcechannel>
									</audiochannel>
								</audio>
							</media>
						</file>
						<sourcetrack>
							<mediatype>audio</mediatype>
							<trackindex>1</trackindex>
						</sourcetrack>
						<logginginfo>
							<description></description>
							<scene></scene>
							<shottake></shottake>
							<lognote></lognote>
						</logginginfo>
						<labels>
							<label2>Caribbean</label2>
						</labels>
					</clipitem>
					<clipitem id="clipitem-1584" premiereChannelType="mono">
						<masterclipid>masterclip-63</masterclipid>
						<name>Publ 2 V_02.wav</name>
						<enabled>TRUE</enabled>
						<duration>171138</duration>
						<rate>
							<timebase>25</timebase>
							<ntsc>FALSE</ntsc>
						</rate>
						<start>965</start>
						<end>1469</end>
						<in>32787</in>
						<out>33291</out>
						<pproTicksIn>333136903680000</pproTicksIn>
						<pproTicksOut>338257866240000</pproTicksOut>
						<file id="file-59"/>
						<sourcetrack>
							<mediatype>audio</mediatype>
							<trackindex>1</trackindex>
						</sourcetrack>
						<logginginfo>
							<description></description>
							<scene></scene>
							<shottake></shottake>
							<lognote></lognote>
						</logginginfo>
						<labels>
							<label2>Caribbean</label2>
						</labels>
					</clipitem>
					<clipitem id="clipitem-1585" premiereChannelType="mono">
						<masterclipid>masterclip-63</masterclipid>
						<name>Publ 2 V_02.wav</name>
						<enabled>TRUE</enabled>
						<duration>171138</duration>
						<rate>
							<timebase>25</timebase>
							<ntsc>FALSE</ntsc>
						</rate>
						<start>1469</start>
						<end>4119</end>
						<in>33423</in>
						<out>36073</out>
						<pproTicksIn>339599070720000</pproTicksIn>
						<pproTicksOut>366524766720000</pproTicksOut>
						<file id="file-59"/>
						<sourcetrack>
							<mediatype>audio</mediatype>
							<trackindex>1</trackindex>
						</sourcetrack>
						<logginginfo>
							<description></description>
							<scene></scene>
							<shottake></shottake>
							<lognote></lognote>
						</logginginfo>
						<labels>
							<label2>Caribbean</label2>
						</labels>
					</clipitem>
					<clipitem id="clipitem-1586" premiereChannelType="mono">
						<masterclipid>masterclip-63</masterclipid>
						<name>Publ 2 V_02.wav</name>
						<enabled>TRUE</enabled>
						<duration>171138</duration>
						<rate>
							<timebase>25</timebase>
							<ntsc>FALSE</ntsc>
						</rate>
						<start>4119</start>
						<end>4836</end>
						<in>36549</in>
						<out>37266</out>
						<pproTicksIn>371361231360000</pproTicksIn>
						<pproTicksOut>378646410240000</pproTicksOut>
						<file id="file-59"/>
						<sourcetrack>
							<mediatype>audio</mediatype>
							<trackindex>1</trackindex>
						</sourcetrack>
						<logginginfo>
							<description></description>
							<scene></scene>
							<shottake></shottake>
							<lognote></lognote>
						</logginginfo>
						<labels>
							<label2>Caribbean</label2>
						</labels>
					</clipitem>
					<clipitem id="clipitem-1587" premiereChannelType="mono">
						<masterclipid>masterclip-63</masterclipid>
						<name>Publ 2 V_02.wav</name>
						<enabled>TRUE</enabled>
						<duration>171138</duration>
						<rate>
							<timebase>25</timebase>
							<ntsc>FALSE</ntsc>
						</rate>
						<start>4836</start>
						<end>5339</end>
						<in>37305</in>
						<out>37808</out>
						<pproTicksIn>379042675200000</pproTicksIn>
						<pproTicksOut>384153477120000</pproTicksOut>
						<file id="file-59"/>
						<sourcetrack>
							<mediatype>audio</mediatype>
							<trackindex>1</trackindex>
						</sourcetrack>
						<logginginfo>
							<description></description>
							<scene></scene>
							<shottake></shottake>
							<lognote></lognote>
						</logginginfo>
						<labels>
							<label2>Caribbean</label2>
						</labels>
					</clipitem>
					<clipitem id="clipitem-1588" premiereChannelType="mono">
						<masterclipid>masterclip-63</masterclipid>
						<name>Publ 2 V_02.wav</name>
						<enabled>TRUE</enabled>
						<duration>171138</duration>
						<rate>
							<timebase>25</timebase>
							<ntsc>FALSE</ntsc>
						</rate>
						<start>5339</start>
						<end>5501</end>
						<in>37871</in>
						<out>38033</out>
						<pproTicksIn>384793597440000</pproTicksIn>
						<pproTicksOut>386439621120000</pproTicksOut>
						<file id="file-59"/>
						<sourcetrack>
							<mediatype>audio</mediatype>
							<trackindex>1</trackindex>
						</sourcetrack>
						<logginginfo>
							<description></description>
							<scene></scene>
							<shottake></shottake>
							<lognote></lognote>
						</logginginfo>
						<labels>
							<label2>Caribbean</label2>
						</labels>
					</clipitem>
					<clipitem id="clipitem-1589" premiereChannelType="mono">
						<masterclipid>masterclip-63</masterclipid>
						<name>Publ 2 V_02.wav</name>
						<enabled>TRUE</enabled>
						<duration>171138</duration>
						<rate>
							<timebase>25</timebase>
							<ntsc>FALSE</ntsc>
						</rate>
						<start>5501</start>
						<end>6004</end>
						<in>46577</in>
						<out>47080</out>
						<pproTicksIn>473252129280000</pproTicksIn>
						<pproTicksOut>478362931200000</pproTicksOut>
						<file id="file-59"/>
						<sourcetrack>
							<mediatype>audio</mediatype>
							<trackindex>1</trackindex>
						</sourcetrack>
						<logginginfo>
							<description></description>
							<scene></scene>
							<shottake></shottake>
							<lognote></lognote>
						</logginginfo>
						<labels>
							<label2>Caribbean</label2>
						</labels>
					</clipitem>
					<clipitem id="clipitem-1590" premiereChannelType="mono">
						<masterclipid>masterclip-63</masterclipid>
						<name>Publ 2 V_02.wav</name>
						<enabled>TRUE</enabled>
						<duration>171138</duration>
						<rate>
							<timebase>25</timebase>
							<ntsc>FALSE</ntsc>
						</rate>
						<start>6004</start>
						<end>6357</end>
						<in>50106</in>
						<out>50459</out>
						<pproTicksIn>509109027840000</pproTicksIn>
						<pproTicksOut>512695733760000</pproTicksOut>
						<file id="file-59"/>
						<sourcetrack>
							<mediatype>audio</mediatype>
							<trackindex>1</trackindex>
						</sourcetrack>
						<logginginfo>
							<description></description>
							<scene></scene>
							<shottake></shottake>
							<lognote></lognote>
						</logginginfo>
						<labels>
							<label2>Caribbean</label2>
						</labels>
					</clipitem>
					<clipitem id="clipitem-1591" premiereChannelType="mono">
						<masterclipid>masterclip-63</masterclipid>
						<name>Publ 2 V_02.wav</name>
						<enabled>TRUE</enabled>
						<duration>171138</duration>
						<rate>
							<timebase>25</timebase>
							<ntsc>FALSE</ntsc>
						</rate>
						<start>6357</start>
						<end>6470</end>
						<in>50578</in>
						<out>50691</out>
						<pproTicksIn>513904849920000</pproTicksIn>
						<pproTicksOut>515053002240000</pproTicksOut>
						<file id="file-59"/>
						<sourcetrack>
							<mediatype>audio</mediatype>
							<trackindex>1</trackindex>
						</sourcetrack>
						<logginginfo>
							<description></description>
							<scene></scene>
							<shottake></shottake>
							<lognote></lognote>
						</logginginfo>
						<labels>
							<label2>Caribbean</label2>
						</labels>
					</clipitem>
					<clipitem id="clipitem-1592" premiereChannelType="mono">
						<masterclipid>masterclip-63</masterclipid>
						<name>Publ 2 V_02.wav</name>
						<enabled>TRUE</enabled>
						<duration>171138</duration>
						<rate>
							<timebase>25</timebase>
							<ntsc>FALSE</ntsc>
						</rate>
						<start>6470</start>
						<end>6547</end>
						<in>50753</in>
						<out>50830</out>
						<pproTicksIn>515682961920000</pproTicksIn>
						<pproTicksOut>516465331200000</pproTicksOut>
						<file id="file-59"/>
						<sourcetrack>
							<mediatype>audio</mediatype>
							<trackindex>1</trackindex>
						</sourcetrack>
						<logginginfo>
							<description></description>
							<scene></scene>
							<shottake></shottake>
							<lognote></lognote>
						</logginginfo>
						<labels>
							<label2>Caribbean</label2>
						</labels>
					</clipitem>
					<clipitem id="clipitem-1593" premiereChannelType="mono">
						<masterclipid>masterclip-63</masterclipid>
						<name>Publ 2 V_02.wav</name>
						<enabled>TRUE</enabled>
						<duration>171138</duration>
						<rate>
							<timebase>25</timebase>
							<ntsc>FALSE</ntsc>
						</rate>
						<start>6547</start>
						<end>7368</end>
						<in>50869</in>
						<out>51690</out>
						<pproTicksIn>516861596160000</pproTicksIn>
						<pproTicksOut>525203481600000</pproTicksOut>
						<file id="file-59"/>
						<sourcetrack>
							<mediatype>audio</mediatype>
							<trackindex>1</trackindex>
						</sourcetrack>
						<logginginfo>
							<description></description>
							<scene></scene>
							<shottake></shottake>
							<lognote></lognote>
						</logginginfo>
						<labels>
							<label2>Caribbean</label2>
						</labels>
					</clipitem>
					<clipitem id="clipitem-1594" premiereChannelType="mono">
						<masterclipid>masterclip-63</masterclipid>
						<name>Publ 2 V_02.wav</name>
						<enabled>TRUE</enabled>
						<duration>171138</duration>
						<rate>
							<timebase>25</timebase>
							<ntsc>FALSE</ntsc>
						</rate>
						<start>7368</start>
						<end>7448</end>
						<in>51824</in>
						<out>51904</out>
						<pproTicksIn>526565007360000</pproTicksIn>
						<pproTicksOut>527377858560000</pproTicksOut>
						<file id="file-59"/>
						<sourcetrack>
							<mediatype>audio</mediatype>
							<trackindex>1</trackindex>
						</sourcetrack>
						<logginginfo>
							<description></description>
							<scene></scene>
							<shottake></shottake>
							<lognote></lognote>
						</logginginfo>
						<labels>
							<label2>Caribbean</label2>
						</labels>
					</clipitem>
					<clipitem id="clipitem-1595" premiereChannelType="mono">
						<masterclipid>masterclip-63</masterclipid>
						<name>Publ 2 V_02.wav</name>
						<enabled>TRUE</enabled>
						<duration>171138</duration>
						<rate>
							<timebase>25</timebase>
							<ntsc>FALSE</ntsc>
						</rate>
						<start>7448</start>
						<end>8194</end>
						<in>52064</in>
						<out>52810</out>
						<pproTicksIn>529003560960000</pproTicksIn>
						<pproTicksOut>536583398400000</pproTicksOut>
						<file id="file-59"/>
						<sourcetrack>
							<mediatype>audio</mediatype>
							<trackindex>1</trackindex>
						</sourcetrack>
						<logginginfo>
							<description></description>
							<scene></scene>
							<shottake></shottake>
							<lognote></lognote>
						</logginginfo>
						<labels>
							<label2>Caribbean</label2>
						</labels>
					</clipitem>
					<clipitem id="clipitem-1596" premiereChannelType="mono">
						<masterclipid>masterclip-63</masterclipid>
						<name>Publ 2 V_02.wav</name>
						<enabled>TRUE</enabled>
						<duration>171138</duration>
						<rate>
							<timebase>25</timebase>
							<ntsc>FALSE</ntsc>
						</rate>
						<start>8194</start>
						<end>8332</end>
						<in>57229</in>
						<out>57367</out>
						<pproTicksIn>581483266560000</pproTicksIn>
						<pproTicksOut>582885434880000</pproTicksOut>
						<file id="file-59"/>
						<sourcetrack>
							<mediatype>audio</mediatype>
							<trackindex>1</trackindex>
						</sourcetrack>
						<logginginfo>
							<description></description>
							<scene></scene>
							<shottake></shottake>
							<lognote></lognote>
						</logginginfo>
						<labels>
							<label2>Caribbean</label2>
						</labels>
					</clipitem>
					<clipitem id="clipitem-1597" premiereChannelType="mono">
						<masterclipid>masterclip-63</masterclipid>
						<name>Publ 2 V_02.wav</name>
						<enabled>TRUE</enabled>
						<duration>171138</duration>
						<rate>
							<timebase>25</timebase>
							<ntsc>FALSE</ntsc>
						</rate>
						<start>8332</start>
						<end>8592</end>
						<in>58240</in>
						<out>58500</out>
						<pproTicksIn>591755673600000</pproTicksIn>
						<pproTicksOut>594397440000000</pproTicksOut>
						<file id="file-59"/>
						<sourcetrack>
							<mediatype>audio</mediatype>
							<trackindex>1</trackindex>
						</sourcetrack>
						<logginginfo>
							<description></description>
							<scene></scene>
							<shottake></shottake>
							<lognote></lognote>
						</logginginfo>
						<labels>
							<label2>Caribbean</label2>
						</labels>
					</clipitem>
					<clipitem id="clipitem-1598" premiereChannelType="mono">
						<masterclipid>masterclip-63</masterclipid>
						<name>Publ 2 V_02.wav</name>
						<enabled>TRUE</enabled>
						<duration>171138</duration>
						<rate>
							<timebase>25</timebase>
							<ntsc>FALSE</ntsc>
						</rate>
						<start>8592</start>
						<end>8690</end>
						<in>58994</in>
						<out>59092</out>
						<pproTicksIn>599416796160000</pproTicksIn>
						<pproTicksOut>600412538880000</pproTicksOut>
						<file id="file-59"/>
						<sourcetrack>
							<mediatype>audio</mediatype>
							<trackindex>1</trackindex>
						</sourcetrack>
						<logginginfo>
							<description></description>
							<scene></scene>
							<shottake></shottake>
							<lognote></lognote>
						</logginginfo>
						<labels>
							<label2>Caribbean</label2>
						</labels>
					</clipitem>
					<clipitem id="clipitem-1599" premiereChannelType="mono">
						<masterclipid>masterclip-63</masterclipid>
						<name>Publ 2 V_02.wav</name>
						<enabled>TRUE</enabled>
						<duration>171138</duration>
						<rate>
							<timebase>25</timebase>
							<ntsc>FALSE</ntsc>
						</rate>
						<start>8690</start>
						<end>8999</end>
						<in>59189</in>
						<out>59498</out>
						<pproTicksIn>601398120960000</pproTicksIn>
						<pproTicksOut>604537758720000</pproTicksOut>
						<file id="file-59"/>
						<sourcetrack>
							<mediatype>audio</mediatype>
							<trackindex>1</trackindex>
						</sourcetrack>
						<logginginfo>
							<description></description>
							<scene></scene>
							<shottake></shottake>
							<lognote></lognote>
						</logginginfo>
						<labels>
							<label2>Caribbean</label2>
						</labels>
					</clipitem>
					<clipitem id="clipitem-1600" premiereChannelType="mono">
						<masterclipid>masterclip-63</masterclipid>
						<name>Publ 2 V_02.wav</name>
						<enabled>TRUE</enabled>
						<duration>171138</duration>
						<rate>
							<timebase>25</timebase>
							<ntsc>FALSE</ntsc>
						</rate>
						<start>8999</start>
						<end>9172</end>
						<in>59597</in>
						<out>59770</out>
						<pproTicksIn>605543662080000</pproTicksIn>
						<pproTicksOut>607301452800000</pproTicksOut>
						<file id="file-59"/>
						<sourcetrack>
							<mediatype>audio</mediatype>
							<trackindex>1</trackindex>
						</sourcetrack>
						<logginginfo>
							<description></description>
							<scene></scene>
							<shottake></shottake>
							<lognote></lognote>
						</logginginfo>
						<labels>
							<label2>Caribbean</label2>
						</labels>
					</clipitem>
					<clipitem id="clipitem-1601" premiereChannelType="mono">
						<masterclipid>masterclip-63</masterclipid>
						<name>Publ 2 V_02.wav</name>
						<enabled>TRUE</enabled>
						<duration>171138</duration>
						<rate>
							<timebase>25</timebase>
							<ntsc>FALSE</ntsc>
						</rate>
						<start>9172</start>
						<end>9280</end>
						<in>59921</in>
						<out>60029</out>
						<pproTicksIn>608835709440000</pproTicksIn>
						<pproTicksOut>609933058560000</pproTicksOut>
						<file id="file-59"/>
						<sourcetrack>
							<mediatype>audio</mediatype>
							<trackindex>1</trackindex>
						</sourcetrack>
						<logginginfo>
							<description></description>
							<scene></scene>
							<shottake></shottake>
							<lognote></lognote>
						</logginginfo>
						<labels>
							<label2>Caribbean</label2>
						</labels>
					</clipitem>
					<clipitem id="clipitem-1602" premiereChannelType="mono">
						<masterclipid>masterclip-63</masterclipid>
						<name>Publ 2 V_02.wav</name>
						<enabled>TRUE</enabled>
						<duration>171138</duration>
						<rate>
							<timebase>25</timebase>
							<ntsc>FALSE</ntsc>
						</rate>
						<start>9280</start>
						<end>9979</end>
						<in>65722</in>
						<out>66421</out>
						<pproTicksIn>667777582080000</pproTicksIn>
						<pproTicksOut>674879869440000</pproTicksOut>
						<file id="file-59"/>
						<sourcetrack>
							<mediatype>audio</mediatype>
							<trackindex>1</trackindex>
						</sourcetrack>
						<logginginfo>
							<description></description>
							<scene></scene>
							<shottake></shottake>
							<lognote></lognote>
						</logginginfo>
						<labels>
							<label2>Caribbean</label2>
						</labels>
					</clipitem>
					<clipitem id="clipitem-1603" premiereChannelType="mono">
						<masterclipid>masterclip-63</masterclipid>
						<name>Publ 2 V_02.wav</name>
						<enabled>TRUE</enabled>
						<duration>171138</duration>
						<rate>
							<timebase>25</timebase>
							<ntsc>FALSE</ntsc>
						</rate>
						<start>9979</start>
						<end>10054</end>
						<in>66518</in>
						<out>66593</out>
						<pproTicksIn>675865451520000</pproTicksIn>
						<pproTicksOut>676627499520000</pproTicksOut>
						<file id="file-59"/>
						<sourcetrack>
							<mediatype>audio</mediatype>
							<trackindex>1</trackindex>
						</sourcetrack>
						<logginginfo>
							<description></description>
							<scene></scene>
							<shottake></shottake>
							<lognote></lognote>
						</logginginfo>
						<labels>
							<label2>Caribbean</label2>
						</labels>
					</clipitem>
					<clipitem id="clipitem-1604" premiereChannelType="mono">
						<masterclipid>masterclip-63</masterclipid>
						<name>Publ 2 V_02.wav</name>
						<enabled>TRUE</enabled>
						<duration>171138</duration>
						<rate>
							<timebase>25</timebase>
							<ntsc>FALSE</ntsc>
						</rate>
						<start>10054</start>
						<end>10901</end>
						<in>67109</in>
						<out>67956</out>
						<pproTicksIn>681870389760000</pproTicksIn>
						<pproTicksOut>690476451840000</pproTicksOut>
						<file id="file-59"/>
						<sourcetrack>
							<mediatype>audio</mediatype>
							<trackindex>1</trackindex>
						</sourcetrack>
						<logginginfo>
							<description></description>
							<scene></scene>
							<shottake></shottake>
							<lognote></lognote>
						</logginginfo>
						<labels>
							<label2>Caribbean</label2>
						</labels>
					</clipitem>
					<clipitem id="clipitem-1605" premiereChannelType="mono">
						<masterclipid>masterclip-63</masterclipid>
						<name>Publ 2 V_02.wav</name>
						<enabled>TRUE</enabled>
						<duration>171138</duration>
						<rate>
							<timebase>25</timebase>
							<ntsc>FALSE</ntsc>
						</rate>
						<start>10901</start>
						<end>11157</end>
						<in>67945</in>
						<out>68201</out>
						<pproTicksIn>690364684800000</pproTicksIn>
						<pproTicksOut>692965808640000</pproTicksOut>
						<file id="file-59"/>
						<sourcetrack>
							<mediatype>audio</mediatype>
							<trackindex>1</trackindex>
						</sourcetrack>
						<logginginfo>
							<description></description>
							<scene></scene>
							<shottake></shottake>
							<lognote></lognote>
						</logginginfo>
						<labels>
							<label2>Caribbean</label2>
						</labels>
					</clipitem>
					<clipitem id="clipitem-1606" premiereChannelType="mono">
						<masterclipid>masterclip-63</masterclipid>
						<name>Publ 2 V_02.wav</name>
						<enabled>TRUE</enabled>
						<duration>171138</duration>
						<rate>
							<timebase>25</timebase>
							<ntsc>FALSE</ntsc>
						</rate>
						<start>11157</start>
						<end>11309</end>
						<in>68218</in>
						<out>68370</out>
						<pproTicksIn>693138539520000</pproTicksIn>
						<pproTicksOut>694682956800000</pproTicksOut>
						<file id="file-59"/>
						<sourcetrack>
							<mediatype>audio</mediatype>
							<trackindex>1</trackindex>
						</sourcetrack>
						<logginginfo>
							<description></description>
							<scene></scene>
							<shottake></shottake>
							<lognote></lognote>
						</logginginfo>
						<labels>
							<label2>Caribbean</label2>
						</labels>
					</clipitem>
					<clipitem id="clipitem-1607" premiereChannelType="mono">
						<masterclipid>masterclip-63</masterclipid>
						<name>Publ 2 V_02.wav</name>
						<enabled>TRUE</enabled>
						<duration>171138</duration>
						<rate>
							<timebase>25</timebase>
							<ntsc>FALSE</ntsc>
						</rate>
						<start>11309</start>
						<end>11781</end>
						<in>68707</in>
						<out>69179</out>
						<pproTicksIn>698107092480000</pproTicksIn>
						<pproTicksOut>702902914560000</pproTicksOut>
						<file id="file-59"/>
						<sourcetrack>
							<mediatype>audio</mediatype>
							<trackindex>1</trackindex>
						</sourcetrack>
						<logginginfo>
							<description></description>
							<scene></scene>
							<shottake></shottake>
							<lognote></lognote>
						</logginginfo>
						<labels>
							<label2>Caribbean</label2>
						</labels>
					</clipitem>
					<clipitem id="clipitem-1608" premiereChannelType="mono">
						<masterclipid>masterclip-63</masterclipid>
						<name>Publ 2 V_02.wav</name>
						<enabled>TRUE</enabled>
						<duration>171138</duration>
						<rate>
							<timebase>25</timebase>
							<ntsc>FALSE</ntsc>
						</rate>
						<start>11781</start>
						<end>12155</end>
						<in>70010</in>
						<out>70384</out>
						<pproTicksIn>711346406400000</pproTicksIn>
						<pproTicksOut>715146485760000</pproTicksOut>
						<file id="file-59"/>
						<sourcetrack>
							<mediatype>audio</mediatype>
							<trackindex>1</trackindex>
						</sourcetrack>
						<logginginfo>
							<description></description>
							<scene></scene>
							<shottake></shottake>
							<lognote></lognote>
						</logginginfo>
						<labels>
							<label2>Caribbean</label2>
						</labels>
					</clipitem>
					<clipitem id="clipitem-1609" premiereChannelType="mono">
						<masterclipid>masterclip-63</masterclipid>
						<name>Publ 2 V_02.wav</name>
						<enabled>TRUE</enabled>
						<duration>171138</duration>
						<rate>
							<timebase>25</timebase>
							<ntsc>FALSE</ntsc>
						</rate>
						<start>12155</start>
						<end>13212</end>
						<in>70448</in>
						<out>71505</out>
						<pproTicksIn>715796766720000</pproTicksIn>
						<pproTicksOut>726536563200000</pproTicksOut>
						<file id="file-59"/>
						<sourcetrack>
							<mediatype>audio</mediatype>
							<trackindex>1</trackindex>
						</sourcetrack>
						<logginginfo>
							<description></description>
							<scene></scene>
							<shottake></shottake>
							<lognote></lognote>
						</logginginfo>
						<labels>
							<label2>Caribbean</label2>
						</labels>
					</clipitem>
					<clipitem id="clipitem-1610" premiereChannelType="mono">
						<masterclipid>masterclip-63</masterclipid>
						<name>Publ 2 V_02.wav</name>
						<enabled>TRUE</enabled>
						<duration>171138</duration>
						<rate>
							<timebase>25</timebase>
							<ntsc>FALSE</ntsc>
						</rate>
						<start>13212</start>
						<end>13343</end>
						<in>71544</in>
						<out>71675</out>
						<pproTicksIn>726932828160000</pproTicksIn>
						<pproTicksOut>728263872000000</pproTicksOut>
						<file id="file-59"/>
						<sourcetrack>
							<mediatype>audio</mediatype>
							<trackindex>1</trackindex>
						</sourcetrack>
						<logginginfo>
							<description></description>
							<scene></scene>
							<shottake></shottake>
							<lognote></lognote>
						</logginginfo>
						<labels>
							<label2>Caribbean</label2>
						</labels>
					</clipitem>
					<clipitem id="clipitem-1611" premiereChannelType="mono">
						<masterclipid>masterclip-63</masterclipid>
						<name>Publ 2 V_02.wav</name>
						<enabled>TRUE</enabled>
						<duration>171138</duration>
						<rate>
							<timebase>25</timebase>
							<ntsc>FALSE</ntsc>
						</rate>
						<start>13359</start>
						<end>13506</end>
						<in>77542</in>
						<out>77689</out>
						<pproTicksIn>787876346880000</pproTicksIn>
						<pproTicksOut>789369960960000</pproTicksOut>
						<file id="file-59"/>
						<sourcetrack>
							<mediatype>audio</mediatype>
							<trackindex>1</trackindex>
						</sourcetrack>
						<logginginfo>
							<description></description>
							<scene></scene>
							<shottake></shottake>
							<lognote></lognote>
						</logginginfo>
						<labels>
							<label2>Caribbean</label2>
						</labels>
					</clipitem>
					<clipitem id="clipitem-1612" premiereChannelType="mono">
						<masterclipid>masterclip-63</masterclipid>
						<name>Publ 2 V_02.wav</name>
						<enabled>TRUE</enabled>
						<duration>171138</duration>
						<rate>
							<timebase>25</timebase>
							<ntsc>FALSE</ntsc>
						</rate>
						<start>13506</start>
						<end>14081</end>
						<in>78019</in>
						<out>78594</out>
						<pproTicksIn>792722972160000</pproTicksIn>
						<pproTicksOut>798565340160000</pproTicksOut>
						<file id="file-59"/>
						<sourcetrack>
							<mediatype>audio</mediatype>
							<trackindex>1</trackindex>
						</sourcetrack>
						<logginginfo>
							<description></description>
							<scene></scene>
							<shottake></shottake>
							<lognote></lognote>
						</logginginfo>
						<labels>
							<label2>Caribbean</label2>
						</labels>
					</clipitem>
					<clipitem id="clipitem-1613" premiereChannelType="mono">
						<masterclipid>masterclip-63</masterclipid>
						<name>Publ 2 V_02.wav</name>
						<enabled>TRUE</enabled>
						<duration>171138</duration>
						<rate>
							<timebase>25</timebase>
							<ntsc>FALSE</ntsc>
						</rate>
						<start>14081</start>
						<end>14232</end>
						<in>78676</in>
						<out>78827</out>
						<pproTicksIn>799398512640000</pproTicksIn>
						<pproTicksOut>800932769280000</pproTicksOut>
						<file id="file-59"/>
						<sourcetrack>
							<mediatype>audio</mediatype>
							<trackindex>1</trackindex>
						</sourcetrack>
						<logginginfo>
							<description></description>
							<scene></scene>
							<shottake></shottake>
							<lognote></lognote>
						</logginginfo>
						<labels>
							<label2>Caribbean</label2>
						</labels>
					</clipitem>
					<clipitem id="clipitem-1614" premiereChannelType="mono">
						<masterclipid>masterclip-63</masterclipid>
						<name>Publ 2 V_02.wav</name>
						<enabled>TRUE</enabled>
						<duration>171138</duration>
						<rate>
							<timebase>25</timebase>
							<ntsc>FALSE</ntsc>
						</rate>
						<start>14232</start>
						<end>14550</end>
						<in>78886</in>
						<out>79204</out>
						<pproTicksIn>801532247040000</pproTicksIn>
						<pproTicksOut>804763330560000</pproTicksOut>
						<file id="file-59"/>
						<sourcetrack>
							<mediatype>audio</mediatype>
							<trackindex>1</trackindex>
						</sourcetrack>
						<logginginfo>
							<description></description>
							<scene></scene>
							<shottake></shottake>
							<lognote></lognote>
						</logginginfo>
						<labels>
							<label2>Caribbean</label2>
						</labels>
					</clipitem>
					<clipitem id="clipitem-1615" premiereChannelType="mono">
						<masterclipid>masterclip-63</masterclipid>
						<name>Publ 2 V_02.wav</name>
						<enabled>TRUE</enabled>
						<duration>171138</duration>
						<rate>
							<timebase>25</timebase>
							<ntsc>FALSE</ntsc>
						</rate>
						<start>14550</start>
						<end>14774</end>
						<in>79562</in>
						<out>79786</out>
						<pproTicksIn>808400839680000</pproTicksIn>
						<pproTicksOut>810676823040000</pproTicksOut>
						<file id="file-59"/>
						<sourcetrack>
							<mediatype>audio</mediatype>
							<trackindex>1</trackindex>
						</sourcetrack>
						<logginginfo>
							<description></description>
							<scene></scene>
							<shottake></shottake>
							<lognote></lognote>
						</logginginfo>
						<labels>
							<label2>Caribbean</label2>
						</labels>
					</clipitem>
					<clipitem id="clipitem-1616" premiereChannelType="mono">
						<masterclipid>masterclip-63</masterclipid>
						<name>Publ 2 V_02.wav</name>
						<enabled>TRUE</enabled>
						<duration>171138</duration>
						<rate>
							<timebase>25</timebase>
							<ntsc>FALSE</ntsc>
						</rate>
						<start>14774</start>
						<end>14798</end>
						<in>79204</in>
						<out>79228</out>
						<pproTicksIn>804763330560000</pproTicksIn>
						<pproTicksOut>805007185920000</pproTicksOut>
						<file id="file-59"/>
						<sourcetrack>
							<mediatype>audio</mediatype>
							<trackindex>1</trackindex>
						</sourcetrack>
						<logginginfo>
							<description></description>
							<scene></scene>
							<shottake></shottake>
							<lognote></lognote>
						</logginginfo>
						<labels>
							<label2>Caribbean</label2>
						</labels>
					</clipitem>
					<clipitem id="clipitem-1617" premiereChannelType="mono">
						<masterclipid>masterclip-63</masterclipid>
						<name>Publ 2 V_02.wav</name>
						<enabled>TRUE</enabled>
						<duration>171138</duration>
						<rate>
							<timebase>25</timebase>
							<ntsc>FALSE</ntsc>
						</rate>
						<start>14798</start>
						<end>14887</end>
						<in>80182</in>
						<out>80271</out>
						<pproTicksIn>814700436480000</pproTicksIn>
						<pproTicksOut>815604733440000</pproTicksOut>
						<file id="file-59"/>
						<sourcetrack>
							<mediatype>audio</mediatype>
							<trackindex>1</trackindex>
						</sourcetrack>
						<logginginfo>
							<description></description>
							<scene></scene>
							<shottake></shottake>
							<lognote></lognote>
						</logginginfo>
						<labels>
							<label2>Caribbean</label2>
						</labels>
					</clipitem>
					<clipitem id="clipitem-1618" premiereChannelType="mono">
						<masterclipid>masterclip-63</masterclipid>
						<name>Publ 2 V_02.wav</name>
						<enabled>TRUE</enabled>
						<duration>171138</duration>
						<rate>
							<timebase>25</timebase>
							<ntsc>FALSE</ntsc>
						</rate>
						<start>14887</start>
						<end>15129</end>
						<in>80569</in>
						<out>80811</out>
						<pproTicksIn>818632604160000</pproTicksIn>
						<pproTicksOut>821091479040000</pproTicksOut>
						<file id="file-59"/>
						<sourcetrack>
							<mediatype>audio</mediatype>
							<trackindex>1</trackindex>
						</sourcetrack>
						<logginginfo>
							<description></description>
							<scene></scene>
							<shottake></shottake>
							<lognote></lognote>
						</logginginfo>
						<labels>
							<label2>Caribbean</label2>
						</labels>
					</clipitem>
					<clipitem id="clipitem-1619" premiereChannelType="mono">
						<masterclipid>masterclip-63</masterclipid>
						<name>Publ 2 V_02.wav</name>
						<enabled>TRUE</enabled>
						<duration>171138</duration>
						<rate>
							<timebase>25</timebase>
							<ntsc>FALSE</ntsc>
						</rate>
						<start>15129</start>
						<end>15493</end>
						<in>80817</in>
						<out>81181</out>
						<pproTicksIn>821152442880000</pproTicksIn>
						<pproTicksOut>824850915840000</pproTicksOut>
						<file id="file-59"/>
						<sourcetrack>
							<mediatype>audio</mediatype>
							<trackindex>1</trackindex>
						</sourcetrack>
						<logginginfo>
							<description></description>
							<scene></scene>
							<shottake></shottake>
							<lognote></lognote>
						</logginginfo>
						<labels>
							<label2>Caribbean</label2>
						</labels>
					</clipitem>
					<clipitem id="clipitem-1620" premiereChannelType="mono">
						<masterclipid>masterclip-63</masterclipid>
						<name>Publ 2 V_02.wav</name>
						<enabled>TRUE</enabled>
						<duration>171138</duration>
						<rate>
							<timebase>25</timebase>
							<ntsc>FALSE</ntsc>
						</rate>
						<start>15493</start>
						<end>15657</end>
						<in>81234</in>
						<out>81398</out>
						<pproTicksIn>825389429760000</pproTicksIn>
						<pproTicksOut>827055774720000</pproTicksOut>
						<file id="file-59"/>
						<sourcetrack>
							<mediatype>audio</mediatype>
							<trackindex>1</trackindex>
						</sourcetrack>
						<logginginfo>
							<description></description>
							<scene></scene>
							<shottake></shottake>
							<lognote></lognote>
						</logginginfo>
						<labels>
							<label2>Caribbean</label2>
						</labels>
					</clipitem>
					<clipitem id="clipitem-1621" premiereChannelType="mono">
						<masterclipid>masterclip-63</masterclipid>
						<name>Publ 2 V_02.wav</name>
						<enabled>TRUE</enabled>
						<duration>171138</duration>
						<rate>
							<timebase>25</timebase>
							<ntsc>FALSE</ntsc>
						</rate>
						<start>15657</start>
						<end>15850</end>
						<in>81563</in>
						<out>81756</out>
						<pproTicksIn>828732280320000</pproTicksIn>
						<pproTicksOut>830693283840000</pproTicksOut>
						<file id="file-59"/>
						<sourcetrack>
							<mediatype>audio</mediatype>
							<trackindex>1</trackindex>
						</sourcetrack>
						<logginginfo>
							<description></description>
							<scene></scene>
							<shottake></shottake>
							<lognote></lognote>
						</logginginfo>
						<labels>
							<label2>Caribbean</label2>
						</labels>
					</clipitem>
					<clipitem id="clipitem-1622" premiereChannelType="mono">
						<masterclipid>masterclip-63</masterclipid>
						<name>Publ 2 V_02.wav</name>
						<enabled>TRUE</enabled>
						<duration>171138</duration>
						<rate>
							<timebase>25</timebase>
							<ntsc>FALSE</ntsc>
						</rate>
						<start>15850</start>
						<end>16018</end>
						<in>81984</in>
						<out>82152</out>
						<pproTicksIn>833009909760000</pproTicksIn>
						<pproTicksOut>834716897280000</pproTicksOut>
						<file id="file-59"/>
						<sourcetrack>
							<mediatype>audio</mediatype>
							<trackindex>1</trackindex>
						</sourcetrack>
						<logginginfo>
							<description></description>
							<scene></scene>
							<shottake></shottake>
							<lognote></lognote>
						</logginginfo>
						<labels>
							<label2>Caribbean</label2>
						</labels>
					</clipitem>
					<clipitem id="clipitem-1623" premiereChannelType="mono">
						<masterclipid>masterclip-63</masterclipid>
						<name>Publ 2 V_02.wav</name>
						<enabled>TRUE</enabled>
						<duration>171138</duration>
						<rate>
							<timebase>25</timebase>
							<ntsc>FALSE</ntsc>
						</rate>
						<start>16018</start>
						<end>16073</end>
						<in>82477</in>
						<out>82532</out>
						<pproTicksIn>838019105280000</pproTicksIn>
						<pproTicksOut>838577940480000</pproTicksOut>
						<file id="file-59"/>
						<sourcetrack>
							<mediatype>audio</mediatype>
							<trackindex>1</trackindex>
						</sourcetrack>
						<logginginfo>
							<description></description>
							<scene></scene>
							<shottake></shottake>
							<lognote></lognote>
						</logginginfo>
						<labels>
							<label2>Caribbean</label2>
						</labels>
					</clipitem>
					<clipitem id="clipitem-1624" premiereChannelType="mono">
						<masterclipid>masterclip-63</masterclipid>
						<name>Publ 2 V_02.wav</name>
						<enabled>TRUE</enabled>
						<duration>171138</duration>
						<rate>
							<timebase>25</timebase>
							<ntsc>FALSE</ntsc>
						</rate>
						<start>16073</start>
						<end>16115</end>
						<in>83437</in>
						<out>83479</out>
						<pproTicksIn>847773319680000</pproTicksIn>
						<pproTicksOut>848200066560000</pproTicksOut>
						<file id="file-59"/>
						<sourcetrack>
							<mediatype>audio</mediatype>
							<trackindex>1</trackindex>
						</sourcetrack>
						<logginginfo>
							<description></description>
							<scene></scene>
							<shottake></shottake>
							<lognote></lognote>
						</logginginfo>
						<labels>
							<label2>Caribbean</label2>
						</labels>
					</clipitem>
					<clipitem id="clipitem-1625" premiereChannelType="mono">
						<masterclipid>masterclip-63</masterclipid>
						<name>Publ 2 V_02.wav</name>
						<enabled>TRUE</enabled>
						<duration>171138</duration>
						<rate>
							<timebase>25</timebase>
							<ntsc>FALSE</ntsc>
						</rate>
						<start>16115</start>
						<end>16204</end>
						<in>83479</in>
						<out>83568</out>
						<pproTicksIn>848200066560000</pproTicksIn>
						<pproTicksOut>849104363520000</pproTicksOut>
						<file id="file-59"/>
						<sourcetrack>
							<mediatype>audio</mediatype>
							<trackindex>1</trackindex>
						</sourcetrack>
						<logginginfo>
							<description></description>
							<scene></scene>
							<shottake></shottake>
							<lognote></lognote>
						</logginginfo>
						<labels>
							<label2>Caribbean</label2>
						</labels>
					</clipitem>
					<clipitem id="clipitem-1626" premiereChannelType="mono">
						<masterclipid>masterclip-63</masterclipid>
						<name>Publ 2 V_02.wav</name>
						<enabled>TRUE</enabled>
						<duration>171138</duration>
						<rate>
							<timebase>25</timebase>
							<ntsc>FALSE</ntsc>
						</rate>
						<start>16204</start>
						<end>16898</end>
						<in>83568</in>
						<out>84262</out>
						<pproTicksIn>849104363520000</pproTicksIn>
						<pproTicksOut>856155847680000</pproTicksOut>
						<file id="file-59"/>
						<sourcetrack>
							<mediatype>audio</mediatype>
							<trackindex>1</trackindex>
						</sourcetrack>
						<logginginfo>
							<description></description>
							<scene></scene>
							<shottake></shottake>
							<lognote></lognote>
						</logginginfo>
						<labels>
							<label2>Caribbean</label2>
						</labels>
					</clipitem>
					<clipitem id="clipitem-1627" premiereChannelType="mono">
						<masterclipid>masterclip-63</masterclipid>
						<name>Publ 2 V_02.wav</name>
						<enabled>TRUE</enabled>
						<duration>171138</duration>
						<rate>
							<timebase>25</timebase>
							<ntsc>FALSE</ntsc>
						</rate>
						<start>16898</start>
						<end>16971</end>
						<in>84282</in>
						<out>84355</out>
						<pproTicksIn>856359060480000</pproTicksIn>
						<pproTicksOut>857100787200000</pproTicksOut>
						<file id="file-59"/>
						<sourcetrack>
							<mediatype>audio</mediatype>
							<trackindex>1</trackindex>
						</sourcetrack>
						<logginginfo>
							<description></description>
							<scene></scene>
							<shottake></shottake>
							<lognote></lognote>
						</logginginfo>
						<labels>
							<label2>Caribbean</label2>
						</labels>
					</clipitem>
					<clipitem id="clipitem-1628" premiereChannelType="mono">
						<masterclipid>masterclip-63</masterclipid>
						<name>Publ 2 V_02.wav</name>
						<enabled>TRUE</enabled>
						<duration>171138</duration>
						<rate>
							<timebase>25</timebase>
							<ntsc>FALSE</ntsc>
						</rate>
						<start>16971</start>
						<end>17329</end>
						<in>84400</in>
						<out>84758</out>
						<pproTicksIn>857558016000000</pproTicksIn>
						<pproTicksOut>861195525120000</pproTicksOut>
						<file id="file-59"/>
						<sourcetrack>
							<mediatype>audio</mediatype>
							<trackindex>1</trackindex>
						</sourcetrack>
						<logginginfo>
							<description></description>
							<scene></scene>
							<shottake></shottake>
							<lognote></lognote>
						</logginginfo>
						<labels>
							<label2>Caribbean</label2>
						</labels>
					</clipitem>
					<clipitem id="clipitem-1629" premiereChannelType="mono">
						<masterclipid>masterclip-63</masterclipid>
						<name>Publ 2 V_02.wav</name>
						<enabled>TRUE</enabled>
						<duration>171138</duration>
						<rate>
							<timebase>25</timebase>
							<ntsc>FALSE</ntsc>
						</rate>
						<start>17329</start>
						<end>17417</end>
						<in>85268</in>
						<out>85356</out>
						<pproTicksIn>866377451520000</pproTicksIn>
						<pproTicksOut>867271587840000</pproTicksOut>
						<file id="file-59"/>
						<sourcetrack>
							<mediatype>audio</mediatype>
							<trackindex>1</trackindex>
						</sourcetrack>
						<logginginfo>
							<description></description>
							<scene></scene>
							<shottake></shottake>
							<lognote></lognote>
						</logginginfo>
						<labels>
							<label2>Caribbean</label2>
						</labels>
					</clipitem>
					<clipitem id="clipitem-1630" premiereChannelType="mono">
						<masterclipid>masterclip-63</masterclipid>
						<name>Publ 2 V_02.wav</name>
						<enabled>TRUE</enabled>
						<duration>171138</duration>
						<rate>
							<timebase>25</timebase>
							<ntsc>FALSE</ntsc>
						</rate>
						<start>17417</start>
						<end>17611</end>
						<in>85074</in>
						<out>85268</out>
						<pproTicksIn>864406287360000</pproTicksIn>
						<pproTicksOut>866377451520000</pproTicksOut>
						<file id="file-59"/>
						<sourcetrack>
							<mediatype>audio</mediatype>
							<trackindex>1</trackindex>
						</sourcetrack>
						<logginginfo>
							<description></description>
							<scene></scene>
							<shottake></shottake>
							<lognote></lognote>
						</logginginfo>
						<labels>
							<label2>Caribbean</label2>
						</labels>
					</clipitem>
					<clipitem id="clipitem-1631" premiereChannelType="mono">
						<masterclipid>masterclip-63</masterclipid>
						<name>Publ 2 V_02.wav</name>
						<enabled>TRUE</enabled>
						<duration>171138</duration>
						<rate>
							<timebase>25</timebase>
							<ntsc>FALSE</ntsc>
						</rate>
						<start>17611</start>
						<end>17830</end>
						<in>85560</in>
						<out>85779</out>
						<pproTicksIn>869344358400000</pproTicksIn>
						<pproTicksOut>871569538560000</pproTicksOut>
						<file id="file-59"/>
						<sourcetrack>
							<mediatype>audio</mediatype>
							<trackindex>1</trackindex>
						</sourcetrack>
						<logginginfo>
							<description></description>
							<scene></scene>
							<shottake></shottake>
							<lognote></lognote>
						</logginginfo>
						<labels>
							<label2>Caribbean</label2>
						</labels>
					</clipitem>
					<clipitem id="clipitem-1632" premiereChannelType="mono">
						<masterclipid>masterclip-63</masterclipid>
						<name>Publ 2 V_02.wav</name>
						<enabled>TRUE</enabled>
						<duration>171138</duration>
						<rate>
							<timebase>25</timebase>
							<ntsc>FALSE</ntsc>
						</rate>
						<start>17830</start>
						<end>17876</end>
						<in>83479</in>
						<out>83525</out>
						<pproTicksIn>848200066560000</pproTicksIn>
						<pproTicksOut>848667456000000</pproTicksOut>
						<file id="file-59"/>
						<sourcetrack>
							<mediatype>audio</mediatype>
							<trackindex>1</trackindex>
						</sourcetrack>
						<logginginfo>
							<description></description>
							<scene></scene>
							<shottake></shottake>
							<lognote></lognote>
						</logginginfo>
						<labels>
							<label2>Caribbean</label2>
						</labels>
					</clipitem>
					<clipitem id="clipitem-1633" premiereChannelType="mono">
						<masterclipid>masterclip-63</masterclipid>
						<name>Publ 2 V_02.wav</name>
						<enabled>TRUE</enabled>
						<duration>171138</duration>
						<rate>
							<timebase>25</timebase>
							<ntsc>FALSE</ntsc>
						</rate>
						<start>17876</start>
						<end>18012</end>
						<in>85841</in>
						<out>85977</out>
						<pproTicksIn>872199498240000</pproTicksIn>
						<pproTicksOut>873581345280000</pproTicksOut>
						<file id="file-59"/>
						<sourcetrack>
							<mediatype>audio</mediatype>
							<trackindex>1</trackindex>
						</sourcetrack>
						<logginginfo>
							<description></description>
							<scene></scene>
							<shottake></shottake>
							<lognote></lognote>
						</logginginfo>
						<labels>
							<label2>Caribbean</label2>
						</labels>
					</clipitem>
					<clipitem id="clipitem-1634" premiereChannelType="mono">
						<masterclipid>masterclip-63</masterclipid>
						<name>Publ 2 V_02.wav</name>
						<enabled>TRUE</enabled>
						<duration>171138</duration>
						<rate>
							<timebase>25</timebase>
							<ntsc>FALSE</ntsc>
						</rate>
						<start>18012</start>
						<end>18158</end>
						<in>116811</in>
						<out>116957</out>
						<pproTicksIn>1186874519040000</pproTicksIn>
						<pproTicksOut>1188357972480000</pproTicksOut>
						<file id="file-59"/>
						<sourcetrack>
							<mediatype>audio</mediatype>
							<trackindex>1</trackindex>
						</sourcetrack>
						<logginginfo>
							<description></description>
							<scene></scene>
							<shottake></shottake>
							<lognote></lognote>
						</logginginfo>
						<labels>
							<label2>Caribbean</label2>
						</labels>
					</clipitem>
					<clipitem id="clipitem-1635" premiereChannelType="mono">
						<masterclipid>masterclip-63</masterclipid>
						<name>Publ 2 V_02.wav</name>
						<enabled>TRUE</enabled>
						<duration>171138</duration>
						<rate>
							<timebase>25</timebase>
							<ntsc>FALSE</ntsc>
						</rate>
						<start>18158</start>
						<end>18332</end>
						<in>86150</in>
						<out>86324</out>
						<pproTicksIn>875339136000000</pproTicksIn>
						<pproTicksOut>877107087360000</pproTicksOut>
						<file id="file-59"/>
						<sourcetrack>
							<mediatype>audio</mediatype>
							<trackindex>1</trackindex>
						</sourcetrack>
						<logginginfo>
							<description></description>
							<scene></scene>
							<shottake></shottake>
							<lognote></lognote>
						</logginginfo>
						<labels>
							<label2>Caribbean</label2>
						</labels>
					</clipitem>
					<clipitem id="clipitem-1636" premiereChannelType="mono">
						<masterclipid>masterclip-63</masterclipid>
						<name>Publ 2 V_02.wav</name>
						<enabled>TRUE</enabled>
						<duration>171138</duration>
						<rate>
							<timebase>25</timebase>
							<ntsc>FALSE</ntsc>
						</rate>
						<start>18332</start>
						<end>22265</end>
						<in>87920</in>
						<out>91853</out>
						<pproTicksIn>893323468800000</pproTicksIn>
						<pproTicksOut>933285265920000</pproTicksOut>
						<file id="file-59"/>
						<sourcetrack>
							<mediatype>audio</mediatype>
							<trackindex>1</trackindex>
						</sourcetrack>
						<logginginfo>
							<description></description>
							<scene></scene>
							<shottake></shottake>
							<lognote></lognote>
						</logginginfo>
						<labels>
							<label2>Caribbean</label2>
						</labels>
					</clipitem>
					<clipitem id="clipitem-1637" premiereChannelType="mono">
						<masterclipid>masterclip-63</masterclipid>
						<name>Publ 2 V_02.wav</name>
						<enabled>TRUE</enabled>
						<duration>171138</duration>
						<rate>
							<timebase>25</timebase>
							<ntsc>FALSE</ntsc>
						</rate>
						<start>22265</start>
						<end>23367</end>
						<in>91952</in>
						<out>93054</out>
						<pproTicksIn>934291169280000</pproTicksIn>
						<pproTicksOut>945488194560000</pproTicksOut>
						<file id="file-59"/>
						<sourcetrack>
							<mediatype>audio</mediatype>
							<trackindex>1</trackindex>
						</sourcetrack>
						<logginginfo>
							<description></description>
							<scene></scene>
							<shottake></shottake>
							<lognote></lognote>
						</logginginfo>
						<labels>
							<label2>Caribbean</label2>
						</labels>
					</clipitem>
					<clipitem id="clipitem-1638" premiereChannelType="mono">
						<masterclipid>masterclip-63</masterclipid>
						<name>Publ 2 V_02.wav</name>
						<enabled>TRUE</enabled>
						<duration>171138</duration>
						<rate>
							<timebase>25</timebase>
							<ntsc>FALSE</ntsc>
						</rate>
						<start>23367</start>
						<end>23724</end>
						<in>93377</in>
						<out>93734</out>
						<pproTicksIn>948770081280000</pproTicksIn>
						<pproTicksOut>952397429760000</pproTicksOut>
						<file id="file-59"/>
						<sourcetrack>
							<mediatype>audio</mediatype>
							<trackindex>1</trackindex>
						</sourcetrack>
						<logginginfo>
							<description></description>
							<scene></scene>
							<shottake></shottake>
							<lognote></lognote>
						</logginginfo>
						<labels>
							<label2>Caribbean</label2>
						</labels>
					</clipitem>
					<clipitem id="clipitem-1639" premiereChannelType="mono">
						<masterclipid>masterclip-63</masterclipid>
						<name>Publ 2 V_02.wav</name>
						<enabled>TRUE</enabled>
						<duration>171138</duration>
						<rate>
							<timebase>25</timebase>
							<ntsc>FALSE</ntsc>
						</rate>
						<start>23724</start>
						<end>24114</end>
						<in>94350</in>
						<out>94740</out>
						<pproTicksIn>958656384000000</pproTicksIn>
						<pproTicksOut>962619033600000</pproTicksOut>
						<file id="file-59"/>
						<sourcetrack>
							<mediatype>audio</mediatype>
							<trackindex>1</trackindex>
						</sourcetrack>
						<logginginfo>
							<description></description>
							<scene></scene>
							<shottake></shottake>
							<lognote></lognote>
						</logginginfo>
						<labels>
							<label2>Caribbean</label2>
						</labels>
					</clipitem>
					<clipitem id="clipitem-1640" premiereChannelType="mono">
						<masterclipid>masterclip-63</masterclipid>
						<name>Publ 2 V_02.wav</name>
						<enabled>TRUE</enabled>
						<duration>171138</duration>
						<rate>
							<timebase>25</timebase>
							<ntsc>FALSE</ntsc>
						</rate>
						<start>24114</start>
						<end>24241</end>
						<in>94797</in>
						<out>94924</out>
						<pproTicksIn>963198190080000</pproTicksIn>
						<pproTicksOut>964488591360000</pproTicksOut>
						<file id="file-59"/>
						<sourcetrack>
							<mediatype>audio</mediatype>
							<trackindex>1</trackindex>
						</sourcetrack>
						<logginginfo>
							<description></description>
							<scene></scene>
							<shottake></shottake>
							<lognote></lognote>
						</logginginfo>
						<labels>
							<label2>Caribbean</label2>
						</labels>
					</clipitem>
					<clipitem id="clipitem-1641" premiereChannelType="mono">
						<masterclipid>masterclip-63</masterclipid>
						<name>Publ 2 V_02.wav</name>
						<enabled>TRUE</enabled>
						<duration>171138</duration>
						<rate>
							<timebase>25</timebase>
							<ntsc>FALSE</ntsc>
						</rate>
						<start>24241</start>
						<end>24388</end>
						<in>95094</in>
						<out>95241</out>
						<pproTicksIn>966215900160000</pproTicksIn>
						<pproTicksOut>967709514240000</pproTicksOut>
						<file id="file-59"/>
						<sourcetrack>
							<mediatype>audio</mediatype>
							<trackindex>1</trackindex>
						</sourcetrack>
						<logginginfo>
							<description></description>
							<scene></scene>
							<shottake></shottake>
							<lognote></lognote>
						</logginginfo>
						<labels>
							<label2>Caribbean</label2>
						</labels>
					</clipitem>
					<clipitem id="clipitem-1642" premiereChannelType="mono">
						<masterclipid>masterclip-63</masterclipid>
						<name>Publ 2 V_02.wav</name>
						<enabled>TRUE</enabled>
						<duration>171138</duration>
						<rate>
							<timebase>25</timebase>
							<ntsc>FALSE</ntsc>
						</rate>
						<start>24388</start>
						<end>24600</end>
						<in>95265</in>
						<out>95477</out>
						<pproTicksIn>967953369600000</pproTicksIn>
						<pproTicksOut>970107425280000</pproTicksOut>
						<file id="file-59"/>
						<sourcetrack>
							<mediatype>audio</mediatype>
							<trackindex>1</trackindex>
						</sourcetrack>
						<logginginfo>
							<description></description>
							<scene></scene>
							<shottake></shottake>
							<lognote></lognote>
						</logginginfo>
						<labels>
							<label2>Caribbean</label2>
						</labels>
					</clipitem>
					<clipitem id="clipitem-1643" premiereChannelType="mono">
						<masterclipid>masterclip-63</masterclipid>
						<name>Publ 2 V_02.wav</name>
						<enabled>TRUE</enabled>
						<duration>171138</duration>
						<rate>
							<timebase>25</timebase>
							<ntsc>FALSE</ntsc>
						</rate>
						<start>24600</start>
						<end>24872</end>
						<in>95504</in>
						<out>95776</out>
						<pproTicksIn>970381762560000</pproTicksIn>
						<pproTicksOut>973145456640000</pproTicksOut>
						<file id="file-59"/>
						<sourcetrack>
							<mediatype>audio</mediatype>
							<trackindex>1</trackindex>
						</sourcetrack>
						<logginginfo>
							<description></description>
							<scene></scene>
							<shottake></shottake>
							<lognote></lognote>
						</logginginfo>
						<labels>
							<label2>Caribbean</label2>
						</labels>
					</clipitem>
					<clipitem id="clipitem-1644" premiereChannelType="mono">
						<masterclipid>masterclip-63</masterclipid>
						<name>Publ 2 V_02.wav</name>
						<enabled>TRUE</enabled>
						<duration>171138</duration>
						<rate>
							<timebase>25</timebase>
							<ntsc>FALSE</ntsc>
						</rate>
						<start>24872</start>
						<end>26291</end>
						<in>95789</in>
						<out>97208</out>
						<pproTicksIn>973277544960000</pproTicksIn>
						<pproTicksOut>987695493120000</pproTicksOut>
						<file id="file-59"/>
						<sourcetrack>
							<mediatype>audio</mediatype>
							<trackindex>1</trackindex>
						</sourcetrack>
						<logginginfo>
							<description></description>
							<scene></scene>
							<shottake></shottake>
							<lognote></lognote>
						</logginginfo>
						<labels>
							<label2>Caribbean</label2>
						</labels>
					</clipitem>
					<clipitem id="clipitem-1645" premiereChannelType="mono">
						<masterclipid>masterclip-63</masterclipid>
						<name>Publ 2 V_02.wav</name>
						<enabled>TRUE</enabled>
						<duration>171138</duration>
						<rate>
							<timebase>25</timebase>
							<ntsc>FALSE</ntsc>
						</rate>
						<start>26291</start>
						<end>26387</end>
						<in>97273</in>
						<out>97369</out>
						<pproTicksIn>988355934720000</pproTicksIn>
						<pproTicksOut>989331356160000</pproTicksOut>
						<file id="file-59"/>
						<sourcetrack>
							<mediatype>audio</mediatype>
							<trackindex>1</trackindex>
						</sourcetrack>
						<logginginfo>
							<description></description>
							<scene></scene>
							<shottake></shottake>
							<lognote></lognote>
						</logginginfo>
						<labels>
							<label2>Caribbean</label2>
						</labels>
					</clipitem>
					<clipitem id="clipitem-1646" premiereChannelType="mono">
						<masterclipid>masterclip-63</masterclipid>
						<name>Publ 2 V_02.wav</name>
						<enabled>TRUE</enabled>
						<duration>171138</duration>
						<rate>
							<timebase>25</timebase>
							<ntsc>FALSE</ntsc>
						</rate>
						<start>26387</start>
						<end>27111</end>
						<in>97523</in>
						<out>98247</out>
						<pproTicksIn>990896094720000</pproTicksIn>
						<pproTicksOut>998252398080000</pproTicksOut>
						<file id="file-59"/>
						<sourcetrack>
							<mediatype>audio</mediatype>
							<trackindex>1</trackindex>
						</sourcetrack>
						<logginginfo>
							<description></description>
							<scene></scene>
							<shottake></shottake>
							<lognote></lognote>
						</logginginfo>
						<labels>
							<label2>Caribbean</label2>
						</labels>
					</clipitem>
					<clipitem id="clipitem-1647" premiereChannelType="mono">
						<masterclipid>masterclip-63</masterclipid>
						<name>Publ 2 V_02.wav</name>
						<enabled>TRUE</enabled>
						<duration>171138</duration>
						<rate>
							<timebase>25</timebase>
							<ntsc>FALSE</ntsc>
						</rate>
						<start>27111</start>
						<end>27316</end>
						<in>98260</in>
						<out>98465</out>
						<pproTicksIn>998384486400000</pproTicksIn>
						<pproTicksOut>1000467417600000</pproTicksOut>
						<file id="file-59"/>
						<sourcetrack>
							<mediatype>audio</mediatype>
							<trackindex>1</trackindex>
						</sourcetrack>
						<logginginfo>
							<description></description>
							<scene></scene>
							<shottake></shottake>
							<lognote></lognote>
						</logginginfo>
						<labels>
							<label2>Caribbean</label2>
						</labels>
					</clipitem>
					<clipitem id="clipitem-1648" premiereChannelType="mono">
						<masterclipid>masterclip-63</masterclipid>
						<name>Publ 2 V_02.wav</name>
						<enabled>TRUE</enabled>
						<duration>171138</duration>
						<rate>
							<timebase>25</timebase>
							<ntsc>FALSE</ntsc>
						</rate>
						<start>27316</start>
						<end>27702</end>
						<in>98958</in>
						<out>99344</out>
						<pproTicksIn>1005476613120000</pproTicksIn>
						<pproTicksOut>1009398620160000</pproTicksOut>
						<file id="file-59"/>
						<sourcetrack>
							<mediatype>audio</mediatype>
							<trackindex>1</trackindex>
						</sourcetrack>
						<logginginfo>
							<description></description>
							<scene></scene>
							<shottake></shottake>
							<lognote></lognote>
						</logginginfo>
						<labels>
							<label2>Caribbean</label2>
						</labels>
					</clipitem>
					<clipitem id="clipitem-1649" premiereChannelType="mono">
						<masterclipid>masterclip-63</masterclipid>
						<name>Publ 2 V_02.wav</name>
						<enabled>TRUE</enabled>
						<duration>171138</duration>
						<rate>
							<timebase>25</timebase>
							<ntsc>FALSE</ntsc>
						</rate>
						<start>27702</start>
						<end>27789</end>
						<in>99640</in>
						<out>99727</out>
						<pproTicksIn>1012406169600000</pproTicksIn>
						<pproTicksOut>1013290145280000</pproTicksOut>
						<file id="file-59"/>
						<sourcetrack>
							<mediatype>audio</mediatype>
							<trackindex>1</trackindex>
						</sourcetrack>
						<logginginfo>
							<description></description>
							<scene></scene>
							<shottake></shottake>
							<lognote></lognote>
						</logginginfo>
						<labels>
							<label2>Caribbean</label2>
						</labels>
					</clipitem>
					<clipitem id="clipitem-1650" premiereChannelType="mono">
						<masterclipid>masterclip-63</masterclipid>
						<name>Publ 2 V_02.wav</name>
						<enabled>TRUE</enabled>
						<duration>171138</duration>
						<rate>
							<timebase>25</timebase>
							<ntsc>FALSE</ntsc>
						</rate>
						<start>27789</start>
						<end>29601</end>
						<in>99831</in>
						<out>101643</out>
						<pproTicksIn>1014346851840000</pproTicksIn>
						<pproTicksOut>1032757931520000</pproTicksOut>
						<file id="file-59"/>
						<sourcetrack>
							<mediatype>audio</mediatype>
							<trackindex>1</trackindex>
						</sourcetrack>
						<logginginfo>
							<description></description>
							<scene></scene>
							<shottake></shottake>
							<lognote></lognote>
						</logginginfo>
						<labels>
							<label2>Caribbean</label2>
						</labels>
					</clipitem>
					<clipitem id="clipitem-1651" premiereChannelType="mono">
						<masterclipid>masterclip-63</masterclipid>
						<name>Publ 2 V_02.wav</name>
						<enabled>TRUE</enabled>
						<duration>171138</duration>
						<rate>
							<timebase>25</timebase>
							<ntsc>FALSE</ntsc>
						</rate>
						<start>29601</start>
						<end>29693</end>
						<in>102540</in>
						<out>102632</out>
						<pproTicksIn>1041872025600000</pproTicksIn>
						<pproTicksOut>1042806804480000</pproTicksOut>
						<file id="file-59"/>
						<sourcetrack>
							<mediatype>audio</mediatype>
							<trackindex>1</trackindex>
						</sourcetrack>
						<logginginfo>
							<description></description>
							<scene></scene>
							<shottake></shottake>
							<lognote></lognote>
						</logginginfo>
						<labels>
							<label2>Caribbean</label2>
						</labels>
					</clipitem>
					<clipitem id="clipitem-1652" premiereChannelType="mono">
						<masterclipid>masterclip-63</masterclipid>
						<name>Publ 2 V_02.wav</name>
						<enabled>TRUE</enabled>
						<duration>171138</duration>
						<rate>
							<timebase>25</timebase>
							<ntsc>FALSE</ntsc>
						</rate>
						<start>29693</start>
						<end>29760</end>
						<in>103317</in>
						<out>103384</out>
						<pproTicksIn>1049766842880000</pproTicksIn>
						<pproTicksOut>1050447605760000</pproTicksOut>
						<file id="file-59"/>
						<sourcetrack>
							<mediatype>audio</mediatype>
							<trackindex>1</trackindex>
						</sourcetrack>
						<logginginfo>
							<description></description>
							<scene></scene>
							<shottake></shottake>
							<lognote></lognote>
						</logginginfo>
						<labels>
							<label2>Caribbean</label2>
						</labels>
					</clipitem>
					<clipitem id="clipitem-1653" premiereChannelType="mono">
						<masterclipid>masterclip-63</masterclipid>
						<name>Publ 2 V_02.wav</name>
						<enabled>TRUE</enabled>
						<duration>171138</duration>
						<rate>
							<timebase>25</timebase>
							<ntsc>FALSE</ntsc>
						</rate>
						<start>29760</start>
						<end>29774</end>
						<in>103438</in>
						<out>103452</out>
						<pproTicksIn>1050996280320000</pproTicksIn>
						<pproTicksOut>1051138529280000</pproTicksOut>
						<file id="file-59"/>
						<sourcetrack>
							<mediatype>audio</mediatype>
							<trackindex>1</trackindex>
						</sourcetrack>
						<logginginfo>
							<description></description>
							<scene></scene>
							<shottake></shottake>
							<lognote></lognote>
						</logginginfo>
						<labels>
							<label2>Caribbean</label2>
						</labels>
					</clipitem>
					<clipitem id="clipitem-1654" premiereChannelType="mono">
						<masterclipid>masterclip-63</masterclipid>
						<name>Publ 2 V_02.wav</name>
						<enabled>TRUE</enabled>
						<duration>171138</duration>
						<rate>
							<timebase>25</timebase>
							<ntsc>FALSE</ntsc>
						</rate>
						<start>29774</start>
						<end>29865</end>
						<in>107326</in>
						<out>107417</out>
						<pproTicksIn>1090500848640000</pproTicksIn>
						<pproTicksOut>1091425466880000</pproTicksOut>
						<file id="file-59"/>
						<sourcetrack>
							<mediatype>audio</mediatype>
							<trackindex>1</trackindex>
						</sourcetrack>
						<logginginfo>
							<description></description>
							<scene></scene>
							<shottake></shottake>
							<lognote></lognote>
						</logginginfo>
						<labels>
							<label2>Caribbean</label2>
						</labels>
					</clipitem>
					<clipitem id="clipitem-1655" premiereChannelType="mono">
						<masterclipid>masterclip-63</masterclipid>
						<name>Publ 2 V_02.wav</name>
						<enabled>TRUE</enabled>
						<duration>171138</duration>
						<rate>
							<timebase>25</timebase>
							<ntsc>FALSE</ntsc>
						</rate>
						<start>29865</start>
						<end>30769</end>
						<in>107708</in>
						<out>108612</out>
						<pproTicksIn>1094382213120000</pproTicksIn>
						<pproTicksOut>1103567431680000</pproTicksOut>
						<file id="file-59"/>
						<sourcetrack>
							<mediatype>audio</mediatype>
							<trackindex>1</trackindex>
						</sourcetrack>
						<logginginfo>
							<description></description>
							<scene></scene>
							<shottake></shottake>
							<lognote></lognote>
						</logginginfo>
						<labels>
							<label2>Caribbean</label2>
						</labels>
					</clipitem>
					<clipitem id="clipitem-1656" premiereChannelType="mono">
						<masterclipid>masterclip-63</masterclipid>
						<name>Publ 2 V_02.wav</name>
						<enabled>TRUE</enabled>
						<duration>171138</duration>
						<rate>
							<timebase>25</timebase>
							<ntsc>FALSE</ntsc>
						</rate>
						<start>30769</start>
						<end>30880</end>
						<in>108644</in>
						<out>108755</out>
						<pproTicksIn>1103892572160000</pproTicksIn>
						<pproTicksOut>1105020403200000</pproTicksOut>
						<file id="file-59"/>
						<sourcetrack>
							<mediatype>audio</mediatype>
							<trackindex>1</trackindex>
						</sourcetrack>
						<logginginfo>
							<description></description>
							<scene></scene>
							<shottake></shottake>
							<lognote></lognote>
						</logginginfo>
						<labels>
							<label2>Caribbean</label2>
						</labels>
					</clipitem>
					<clipitem id="clipitem-1657" premiereChannelType="mono">
						<masterclipid>masterclip-63</masterclipid>
						<name>Publ 2 V_02.wav</name>
						<enabled>TRUE</enabled>
						<duration>171138</duration>
						<rate>
							<timebase>25</timebase>
							<ntsc>FALSE</ntsc>
						</rate>
						<start>30880</start>
						<end>31513</end>
						<in>108776</in>
						<out>109409</out>
						<pproTicksIn>1105233776640000</pproTicksIn>
						<pproTicksOut>1111665461760000</pproTicksOut>
						<file id="file-59"/>
						<sourcetrack>
							<mediatype>audio</mediatype>
							<trackindex>1</trackindex>
						</sourcetrack>
						<logginginfo>
							<description></description>
							<scene></scene>
							<shottake></shottake>
							<lognote></lognote>
						</logginginfo>
						<labels>
							<label2>Caribbean</label2>
						</labels>
					</clipitem>
					<clipitem id="clipitem-1658" premiereChannelType="mono">
						<masterclipid>masterclip-63</masterclipid>
						<name>Publ 2 V_02.wav</name>
						<enabled>TRUE</enabled>
						<duration>171138</duration>
						<rate>
							<timebase>25</timebase>
							<ntsc>FALSE</ntsc>
						</rate>
						<start>31513</start>
						<end>31909</end>
						<in>109447</in>
						<out>109843</out>
						<pproTicksIn>1112051566080000</pproTicksIn>
						<pproTicksOut>1116075179520000</pproTicksOut>
						<file id="file-59"/>
						<sourcetrack>
							<mediatype>audio</mediatype>
							<trackindex>1</trackindex>
						</sourcetrack>
						<logginginfo>
							<description></description>
							<scene></scene>
							<shottake></shottake>
							<lognote></lognote>
						</logginginfo>
						<labels>
							<label2>Caribbean</label2>
						</labels>
					</clipitem>
					<clipitem id="clipitem-1659" premiereChannelType="mono">
						<masterclipid>masterclip-63</masterclipid>
						<name>Publ 2 V_02.wav</name>
						<enabled>TRUE</enabled>
						<duration>171138</duration>
						<rate>
							<timebase>25</timebase>
							<ntsc>FALSE</ntsc>
						</rate>
						<start>31909</start>
						<end>32128</end>
						<in>109926</in>
						<out>110145</out>
						<pproTicksIn>1116918512640000</pproTicksIn>
						<pproTicksOut>1119143692800000</pproTicksOut>
						<file id="file-59"/>
						<sourcetrack>
							<mediatype>audio</mediatype>
							<trackindex>1</trackindex>
						</sourcetrack>
						<logginginfo>
							<description></description>
							<scene></scene>
							<shottake></shottake>
							<lognote></lognote>
						</logginginfo>
						<labels>
							<label2>Caribbean</label2>
						</labels>
					</clipitem>
					<clipitem id="clipitem-1660" premiereChannelType="mono">
						<masterclipid>masterclip-63</masterclipid>
						<name>Publ 2 V_02.wav</name>
						<enabled>TRUE</enabled>
						<duration>171138</duration>
						<rate>
							<timebase>25</timebase>
							<ntsc>FALSE</ntsc>
						</rate>
						<start>32128</start>
						<end>32853</end>
						<in>111277</in>
						<out>112002</out>
						<pproTicksIn>1130645537280000</pproTicksIn>
						<pproTicksOut>1138012001280000</pproTicksOut>
						<file id="file-59"/>
						<sourcetrack>
							<mediatype>audio</mediatype>
							<trackindex>1</trackindex>
						</sourcetrack>
						<logginginfo>
							<description></description>
							<scene></scene>
							<shottake></shottake>
							<lognote></lognote>
						</logginginfo>
						<labels>
							<label2>Caribbean</label2>
						</labels>
					</clipitem>
					<clipitem id="clipitem-1661" premiereChannelType="mono">
						<masterclipid>masterclip-63</masterclipid>
						<name>Publ 2 V_02.wav</name>
						<enabled>TRUE</enabled>
						<duration>171138</duration>
						<rate>
							<timebase>25</timebase>
							<ntsc>FALSE</ntsc>
						</rate>
						<start>32853</start>
						<end>32890</end>
						<in>112002</in>
						<out>112039</out>
						<pproTicksIn>1138012001280000</pproTicksIn>
						<pproTicksOut>1138387944960000</pproTicksOut>
						<file id="file-59"/>
						<sourcetrack>
							<mediatype>audio</mediatype>
							<trackindex>1</trackindex>
						</sourcetrack>
						<logginginfo>
							<description></description>
							<scene></scene>
							<shottake></shottake>
							<lognote></lognote>
						</logginginfo>
						<labels>
							<label2>Caribbean</label2>
						</labels>
					</clipitem>
					<clipitem id="clipitem-1662" premiereChannelType="mono">
						<masterclipid>masterclip-63</masterclipid>
						<name>Publ 2 V_02.wav</name>
						<enabled>TRUE</enabled>
						<duration>171138</duration>
						<rate>
							<timebase>25</timebase>
							<ntsc>FALSE</ntsc>
						</rate>
						<start>32890</start>
						<end>33281</end>
						<in>115277</in>
						<out>115668</out>
						<pproTicksIn>1171288097280000</pproTicksIn>
						<pproTicksOut>1175260907520000</pproTicksOut>
						<file id="file-59"/>
						<sourcetrack>
							<mediatype>audio</mediatype>
							<trackindex>1</trackindex>
						</sourcetrack>
						<logginginfo>
							<description></description>
							<scene></scene>
							<shottake></shottake>
							<lognote></lognote>
						</logginginfo>
						<labels>
							<label2>Caribbean</label2>
						</labels>
					</clipitem>
					<clipitem id="clipitem-1663" premiereChannelType="mono">
						<masterclipid>masterclip-63</masterclipid>
						<name>Publ 2 V_02.wav</name>
						<enabled>TRUE</enabled>
						<duration>171138</duration>
						<rate>
							<timebase>25</timebase>
							<ntsc>FALSE</ntsc>
						</rate>
						<start>33281</start>
						<end>33357</end>
						<in>116203</in>
						<out>116279</out>
						<pproTicksIn>1180696849920000</pproTicksIn>
						<pproTicksOut>1181469058560000</pproTicksOut>
						<file id="file-59"/>
						<sourcetrack>
							<mediatype>audio</mediatype>
							<trackindex>1</trackindex>
						</sourcetrack>
						<logginginfo>
							<description></description>
							<scene></scene>
							<shottake></shottake>
							<lognote></lognote>
						</logginginfo>
						<labels>
							<label2>Caribbean</label2>
						</labels>
					</clipitem>
					<clipitem id="clipitem-1664" premiereChannelType="mono">
						<masterclipid>masterclip-63</masterclipid>
						<name>Publ 2 V_02.wav</name>
						<enabled>TRUE</enabled>
						<duration>171138</duration>
						<rate>
							<timebase>25</timebase>
							<ntsc>FALSE</ntsc>
						</rate>
						<start>33357</start>
						<end>33465</end>
						<in>116298</in>
						<out>116406</out>
						<pproTicksIn>1181662110720000</pproTicksIn>
						<pproTicksOut>1182759459840000</pproTicksOut>
						<file id="file-59"/>
						<sourcetrack>
							<mediatype>audio</mediatype>
							<trackindex>1</trackindex>
						</sourcetrack>
						<logginginfo>
							<description></description>
							<scene></scene>
							<shottake></shottake>
							<lognote></lognote>
						</logginginfo>
						<labels>
							<label2>Caribbean</label2>
						</labels>
					</clipitem>
					<clipitem id="clipitem-1665" premiereChannelType="mono">
						<masterclipid>masterclip-63</masterclipid>
						<name>Publ 2 V_02.wav</name>
						<enabled>TRUE</enabled>
						<duration>171138</duration>
						<rate>
							<timebase>25</timebase>
							<ntsc>FALSE</ntsc>
						</rate>
						<start>33465</start>
						<end>33766</end>
						<in>116510</in>
						<out>116811</out>
						<pproTicksIn>1183816166400000</pproTicksIn>
						<pproTicksOut>1186874519040000</pproTicksOut>
						<file id="file-59"/>
						<sourcetrack>
							<mediatype>audio</mediatype>
							<trackindex>1</trackindex>
						</sourcetrack>
						<logginginfo>
							<description></description>
							<scene></scene>
							<shottake></shottake>
							<lognote></lognote>
						</logginginfo>
						<labels>
							<label2>Caribbean</label2>
						</labels>
					</clipitem>
					<clipitem id="clipitem-1666" premiereChannelType="mono">
						<masterclipid>masterclip-63</masterclipid>
						<name>Publ 2 V_02.wav</name>
						<enabled>TRUE</enabled>
						<duration>171138</duration>
						<rate>
							<timebase>25</timebase>
							<ntsc>FALSE</ntsc>
						</rate>
						<start>33766</start>
						<end>33992</end>
						<in>116811</in>
						<out>117037</out>
						<pproTicksIn>1186874519040000</pproTicksIn>
						<pproTicksOut>1189170823680000</pproTicksOut>
						<file id="file-59"/>
						<sourcetrack>
							<mediatype>audio</mediatype>
							<trackindex>1</trackindex>
						</sourcetrack>
						<logginginfo>
							<description></description>
							<scene></scene>
							<shottake></shottake>
							<lognote></lognote>
						</logginginfo>
						<labels>
							<label2>Caribbean</label2>
						</labels>
					</clipitem>
					<clipitem id="clipitem-1667" premiereChannelType="mono">
						<masterclipid>masterclip-63</masterclipid>
						<name>Publ 2 V_02.wav</name>
						<enabled>TRUE</enabled>
						<duration>171138</duration>
						<rate>
							<timebase>25</timebase>
							<ntsc>FALSE</ntsc>
						</rate>
						<start>33992</start>
						<end>34035</end>
						<in>117226</in>
						<out>117269</out>
						<pproTicksIn>1191091184640000</pproTicksIn>
						<pproTicksOut>1191528092160000</pproTicksOut>
						<file id="file-59"/>
						<sourcetrack>
							<mediatype>audio</mediatype>
							<trackindex>1</trackindex>
						</sourcetrack>
						<logginginfo>
							<description></description>
							<scene></scene>
							<shottake></shottake>
							<lognote></lognote>
						</logginginfo>
						<labels>
							<label2>Caribbean</label2>
						</labels>
					</clipitem>
					<clipitem id="clipitem-1668" premiereChannelType="mono">
						<masterclipid>masterclip-63</masterclipid>
						<name>Publ 2 V_02.wav</name>
						<enabled>TRUE</enabled>
						<duration>171138</duration>
						<rate>
							<timebase>25</timebase>
							<ntsc>FALSE</ntsc>
						</rate>
						<start>34035</start>
						<end>34790</end>
						<in>117633</in>
						<out>118388</out>
						<pproTicksIn>1195226565120000</pproTicksIn>
						<pproTicksOut>1202897848320000</pproTicksOut>
						<file id="file-59"/>
						<sourcetrack>
							<mediatype>audio</mediatype>
							<trackindex>1</trackindex>
						</sourcetrack>
						<logginginfo>
							<description></description>
							<scene></scene>
							<shottake></shottake>
							<lognote></lognote>
						</logginginfo>
						<labels>
							<label2>Caribbean</label2>
						</labels>
					</clipitem>
					<clipitem id="clipitem-1669" premiereChannelType="mono">
						<masterclipid>masterclip-63</masterclipid>
						<name>Publ 2 V_02.wav</name>
						<enabled>TRUE</enabled>
						<duration>171138</duration>
						<rate>
							<timebase>25</timebase>
							<ntsc>FALSE</ntsc>
						</rate>
						<start>34790</start>
						<end>35299</end>
						<in>118612</in>
						<out>119121</out>
						<pproTicksIn>1205173831680000</pproTicksIn>
						<pproTicksOut>1210345597440000</pproTicksOut>
						<file id="file-59"/>
						<sourcetrack>
							<mediatype>audio</mediatype>
							<trackindex>1</trackindex>
						</sourcetrack>
						<logginginfo>
							<description></description>
							<scene></scene>
							<shottake></shottake>
							<lognote></lognote>
						</logginginfo>
						<labels>
							<label2>Caribbean</label2>
						</labels>
					</clipitem>
					<clipitem id="clipitem-1670" premiereChannelType="mono">
						<masterclipid>masterclip-63</masterclipid>
						<name>Publ 2 V_02.wav</name>
						<enabled>TRUE</enabled>
						<duration>171138</duration>
						<rate>
							<timebase>25</timebase>
							<ntsc>FALSE</ntsc>
						</rate>
						<start>35299</start>
						<end>35672</end>
						<in>119201</in>
						<out>119574</out>
						<pproTicksIn>1211158448640000</pproTicksIn>
						<pproTicksOut>1214948367360000</pproTicksOut>
						<file id="file-59"/>
						<sourcetrack>
							<mediatype>audio</mediatype>
							<trackindex>1</trackindex>
						</sourcetrack>
						<logginginfo>
							<description></description>
							<scene></scene>
							<shottake></shottake>
							<lognote></lognote>
						</logginginfo>
						<labels>
							<label2>Caribbean</label2>
						</labels>
					</clipitem>
					<clipitem id="clipitem-1671" premiereChannelType="mono">
						<masterclipid>masterclip-63</masterclipid>
						<name>Publ 2 V_02.wav</name>
						<enabled>TRUE</enabled>
						<duration>171138</duration>
						<rate>
							<timebase>25</timebase>
							<ntsc>FALSE</ntsc>
						</rate>
						<start>35672</start>
						<end>36434</end>
						<in>119583</in>
						<out>120345</out>
						<pproTicksIn>1215039813120000</pproTicksIn>
						<pproTicksOut>1222782220800000</pproTicksOut>
						<file id="file-59"/>
						<sourcetrack>
							<mediatype>audio</mediatype>
							<trackindex>1</trackindex>
						</sourcetrack>
						<logginginfo>
							<description></description>
							<scene></scene>
							<shottake></shottake>
							<lognote></lognote>
						</logginginfo>
						<labels>
							<label2>Caribbean</label2>
						</labels>
					</clipitem>
					<clipitem id="clipitem-1672" premiereChannelType="mono">
						<masterclipid>masterclip-63</masterclipid>
						<name>Publ 2 V_02.wav</name>
						<enabled>TRUE</enabled>
						<duration>171138</duration>
						<rate>
							<timebase>25</timebase>
							<ntsc>FALSE</ntsc>
						</rate>
						<start>36434</start>
						<end>36524</end>
						<in>120539</in>
						<out>120629</out>
						<pproTicksIn>1224753384960000</pproTicksIn>
						<pproTicksOut>1225667842560000</pproTicksOut>
						<file id="file-59"/>
						<sourcetrack>
							<mediatype>audio</mediatype>
							<trackindex>1</trackindex>
						</sourcetrack>
						<logginginfo>
							<description></description>
							<scene></scene>
							<shottake></shottake>
							<lognote></lognote>
						</logginginfo>
						<labels>
							<label2>Caribbean</label2>
						</labels>
					</clipitem>
					<clipitem id="clipitem-1673" premiereChannelType="mono">
						<masterclipid>masterclip-63</masterclipid>
						<name>Publ 2 V_02.wav</name>
						<enabled>TRUE</enabled>
						<duration>171138</duration>
						<rate>
							<timebase>25</timebase>
							<ntsc>FALSE</ntsc>
						</rate>
						<start>36524</start>
						<end>37155</end>
						<in>124899</in>
						<out>125530</out>
						<pproTicksIn>1269053775360000</pproTicksIn>
						<pproTicksOut>1275465139200000</pproTicksOut>
						<file id="file-59"/>
						<sourcetrack>
							<mediatype>audio</mediatype>
							<trackindex>1</trackindex>
						</sourcetrack>
						<logginginfo>
							<description></description>
							<scene></scene>
							<shottake></shottake>
							<lognote></lognote>
						</logginginfo>
						<labels>
							<label2>Caribbean</label2>
						</labels>
					</clipitem>
					<clipitem id="clipitem-1674" premiereChannelType="mono">
						<masterclipid>masterclip-63</masterclipid>
						<name>Publ 2 V_02.wav</name>
						<enabled>TRUE</enabled>
						<duration>171138</duration>
						<rate>
							<timebase>25</timebase>
							<ntsc>FALSE</ntsc>
						</rate>
						<start>37732</start>
						<end>40503</end>
						<in>126107</in>
						<out>128878</out>
						<pproTicksIn>1281327828480000</pproTicksIn>
						<pproTicksOut>1309482961920000</pproTicksOut>
						<file id="file-59"/>
						<sourcetrack>
							<mediatype>audio</mediatype>
							<trackindex>1</trackindex>
						</sourcetrack>
						<logginginfo>
							<description></description>
							<scene></scene>
							<shottake></shottake>
							<lognote></lognote>
						</logginginfo>
						<labels>
							<label2>Caribbean</label2>
						</labels>
					</clipitem>
					<clipitem id="clipitem-1675" premiereChannelType="mono">
						<masterclipid>masterclip-63</masterclipid>
						<name>Publ 2 V_02.wav</name>
						<enabled>TRUE</enabled>
						<duration>171138</duration>
						<rate>
							<timebase>25</timebase>
							<ntsc>FALSE</ntsc>
						</rate>
						<start>40503</start>
						<end>40839</end>
						<in>128926</in>
						<out>129262</out>
						<pproTicksIn>1309970672640000</pproTicksIn>
						<pproTicksOut>1313384647680000</pproTicksOut>
						<file id="file-59"/>
						<sourcetrack>
							<mediatype>audio</mediatype>
							<trackindex>1</trackindex>
						</sourcetrack>
						<logginginfo>
							<description></description>
							<scene></scene>
							<shottake></shottake>
							<lognote></lognote>
						</logginginfo>
						<labels>
							<label2>Caribbean</label2>
						</labels>
					</clipitem>
					<clipitem id="clipitem-1676" premiereChannelType="mono">
						<masterclipid>masterclip-63</masterclipid>
						<name>Publ 2 V_02.wav</name>
						<enabled>TRUE</enabled>
						<duration>171138</duration>
						<rate>
							<timebase>25</timebase>
							<ntsc>FALSE</ntsc>
						</rate>
						<start>40839</start>
						<end>41006</end>
						<in>129262</in>
						<out>129429</out>
						<pproTicksIn>1313384647680000</pproTicksIn>
						<pproTicksOut>1315081474560000</pproTicksOut>
						<file id="file-59"/>
						<sourcetrack>
							<mediatype>audio</mediatype>
							<trackindex>1</trackindex>
						</sourcetrack>
						<logginginfo>
							<description></description>
							<scene></scene>
							<shottake></shottake>
							<lognote></lognote>
						</logginginfo>
						<labels>
							<label2>Caribbean</label2>
						</labels>
					</clipitem>
					<clipitem id="clipitem-1677" premiereChannelType="mono">
						<masterclipid>masterclip-63</masterclipid>
						<name>Publ 2 V_02.wav</name>
						<enabled>TRUE</enabled>
						<duration>171138</duration>
						<rate>
							<timebase>25</timebase>
							<ntsc>FALSE</ntsc>
						</rate>
						<start>41006</start>
						<end>41144</end>
						<in>129476</in>
						<out>129614</out>
						<pproTicksIn>1315559024640000</pproTicksIn>
						<pproTicksOut>1316961192960000</pproTicksOut>
						<file id="file-59"/>
						<sourcetrack>
							<mediatype>audio</mediatype>
							<trackindex>1</trackindex>
						</sourcetrack>
						<logginginfo>
							<description></description>
							<scene></scene>
							<shottake></shottake>
							<lognote></lognote>
						</logginginfo>
						<labels>
							<label2>Caribbean</label2>
						</labels>
					</clipitem>
					<clipitem id="clipitem-1678" premiereChannelType="mono">
						<masterclipid>masterclip-63</masterclipid>
						<name>Publ 2 V_02.wav</name>
						<enabled>TRUE</enabled>
						<duration>171138</duration>
						<rate>
							<timebase>25</timebase>
							<ntsc>FALSE</ntsc>
						</rate>
						<start>41144</start>
						<end>41720</end>
						<in>131417</in>
						<out>131993</out>
						<pproTicksIn>1335280826880000</pproTicksIn>
						<pproTicksOut>1341133355520000</pproTicksOut>
						<file id="file-59"/>
						<sourcetrack>
							<mediatype>audio</mediatype>
							<trackindex>1</trackindex>
						</sourcetrack>
						<logginginfo>
							<description></description>
							<scene></scene>
							<shottake></shottake>
							<lognote></lognote>
						</logginginfo>
						<labels>
							<label2>Caribbean</label2>
						</labels>
					</clipitem>
					<clipitem id="clipitem-1679" premiereChannelType="mono">
						<masterclipid>masterclip-63</masterclipid>
						<name>Publ 2 V_02.wav</name>
						<enabled>TRUE</enabled>
						<duration>171138</duration>
						<rate>
							<timebase>25</timebase>
							<ntsc>FALSE</ntsc>
						</rate>
						<start>41720</start>
						<end>42122</end>
						<in>132051</in>
						<out>132453</out>
						<pproTicksIn>1341722672640000</pproTicksIn>
						<pproTicksOut>1345807249920000</pproTicksOut>
						<file id="file-59"/>
						<sourcetrack>
							<mediatype>audio</mediatype>
							<trackindex>1</trackindex>
						</sourcetrack>
						<logginginfo>
							<description></description>
							<scene></scene>
							<shottake></shottake>
							<lognote></lognote>
						</logginginfo>
						<labels>
							<label2>Caribbean</label2>
						</labels>
					</clipitem>
					<clipitem id="clipitem-1680" premiereChannelType="mono">
						<masterclipid>masterclip-63</masterclipid>
						<name>Publ 2 V_02.wav</name>
						<enabled>TRUE</enabled>
						<duration>171138</duration>
						<rate>
							<timebase>25</timebase>
							<ntsc>FALSE</ntsc>
						</rate>
						<start>42122</start>
						<end>42277</end>
						<in>132657</in>
						<out>132812</out>
						<pproTicksIn>1347880020480000</pproTicksIn>
						<pproTicksOut>1349454919680000</pproTicksOut>
						<file id="file-59"/>
						<sourcetrack>
							<mediatype>audio</mediatype>
							<trackindex>1</trackindex>
						</sourcetrack>
						<logginginfo>
							<description></description>
							<scene></scene>
							<shottake></shottake>
							<lognote></lognote>
						</logginginfo>
						<labels>
							<label2>Caribbean</label2>
						</labels>
					</clipitem>
					<clipitem id="clipitem-1681" premiereChannelType="mono">
						<masterclipid>masterclip-63</masterclipid>
						<name>Publ 2 V_02.wav</name>
						<enabled>TRUE</enabled>
						<duration>171138</duration>
						<rate>
							<timebase>25</timebase>
							<ntsc>FALSE</ntsc>
						</rate>
						<start>42277</start>
						<end>42347</end>
						<in>133359</in>
						<out>133429</out>
						<pproTicksIn>1355012789760000</pproTicksIn>
						<pproTicksOut>1355724034560000</pproTicksOut>
						<file id="file-59"/>
						<sourcetrack>
							<mediatype>audio</mediatype>
							<trackindex>1</trackindex>
						</sourcetrack>
						<logginginfo>
							<description></description>
							<scene></scene>
							<shottake></shottake>
							<lognote></lognote>
						</logginginfo>
						<labels>
							<label2>Caribbean</label2>
						</labels>
					</clipitem>
					<clipitem id="clipitem-1682" premiereChannelType="mono">
						<masterclipid>masterclip-63</masterclipid>
						<name>Publ 2 V_02.wav</name>
						<enabled>TRUE</enabled>
						<duration>171138</duration>
						<rate>
							<timebase>25</timebase>
							<ntsc>FALSE</ntsc>
						</rate>
						<start>42347</start>
						<end>42499</end>
						<in>133852</in>
						<out>134004</out>
						<pproTicksIn>1360021985280000</pproTicksIn>
						<pproTicksOut>1361566402560000</pproTicksOut>
						<file id="file-59"/>
						<sourcetrack>
							<mediatype>audio</mediatype>
							<trackindex>1</trackindex>
						</sourcetrack>
						<logginginfo>
							<description></description>
							<scene></scene>
							<shottake></shottake>
							<lognote></lognote>
						</logginginfo>
						<labels>
							<label2>Caribbean</label2>
						</labels>
					</clipitem>
					<clipitem id="clipitem-1683" premiereChannelType="mono">
						<masterclipid>masterclip-63</masterclipid>
						<name>Publ 2 V_02.wav</name>
						<enabled>TRUE</enabled>
						<duration>171138</duration>
						<rate>
							<timebase>25</timebase>
							<ntsc>FALSE</ntsc>
						</rate>
						<start>42499</start>
						<end>42832</end>
						<in>134099</in>
						<out>134432</out>
						<pproTicksIn>1362531663360000</pproTicksIn>
						<pproTicksOut>1365915156480000</pproTicksOut>
						<file id="file-59"/>
						<sourcetrack>
							<mediatype>audio</mediatype>
							<trackindex>1</trackindex>
						</sourcetrack>
						<logginginfo>
							<description></description>
							<scene></scene>
							<shottake></shottake>
							<lognote></lognote>
						</logginginfo>
						<labels>
							<label2>Caribbean</label2>
						</labels>
					</clipitem>
					<clipitem id="clipitem-1684" premiereChannelType="mono">
						<masterclipid>masterclip-63</masterclipid>
						<name>Publ 2 V_02.wav</name>
						<enabled>TRUE</enabled>
						<duration>171138</duration>
						<rate>
							<timebase>25</timebase>
							<ntsc>FALSE</ntsc>
						</rate>
						<start>42832</start>
						<end>43282</end>
						<in>134992</in>
						<out>135442</out>
						<pproTicksIn>1371605114880000</pproTicksIn>
						<pproTicksOut>1376177402880000</pproTicksOut>
						<file id="file-59"/>
						<sourcetrack>
							<mediatype>audio</mediatype>
							<trackindex>1</trackindex>
						</sourcetrack>
						<logginginfo>
							<description></description>
							<scene></scene>
							<shottake></shottake>
							<lognote></lognote>
						</logginginfo>
						<labels>
							<label2>Caribbean</label2>
						</labels>
					</clipitem>
					<clipitem id="clipitem-1685" premiereChannelType="mono">
						<masterclipid>masterclip-63</masterclipid>
						<name>Publ 2 V_02.wav</name>
						<enabled>TRUE</enabled>
						<duration>171138</duration>
						<rate>
							<timebase>25</timebase>
							<ntsc>FALSE</ntsc>
						</rate>
						<start>43282</start>
						<end>43553</end>
						<in>135648</in>
						<out>135919</out>
						<pproTicksIn>1378270494720000</pproTicksIn>
						<pproTicksOut>1381024028160000</pproTicksOut>
						<file id="file-59"/>
						<sourcetrack>
							<mediatype>audio</mediatype>
							<trackindex>1</trackindex>
						</sourcetrack>
						<logginginfo>
							<description></description>
							<scene></scene>
							<shottake></shottake>
							<lognote></lognote>
						</logginginfo>
						<labels>
							<label2>Caribbean</label2>
						</labels>
					</clipitem>
					<clipitem id="clipitem-1686" premiereChannelType="mono">
						<masterclipid>masterclip-63</masterclipid>
						<name>Publ 2 V_02.wav</name>
						<enabled>TRUE</enabled>
						<duration>171138</duration>
						<rate>
							<timebase>25</timebase>
							<ntsc>FALSE</ntsc>
						</rate>
						<start>43553</start>
						<end>44385</end>
						<in>136003</in>
						<out>136835</out>
						<pproTicksIn>1381877521920000</pproTicksIn>
						<pproTicksOut>1390331174400000</pproTicksOut>
						<file id="file-59"/>
						<sourcetrack>
							<mediatype>audio</mediatype>
							<trackindex>1</trackindex>
						</sourcetrack>
						<logginginfo>
							<description></description>
							<scene></scene>
							<shottake></shottake>
							<lognote></lognote>
						</logginginfo>
						<labels>
							<label2>Caribbean</label2>
						</labels>
					</clipitem>
					<clipitem id="clipitem-1687" premiereChannelType="mono">
						<masterclipid>masterclip-63</masterclipid>
						<name>Publ 2 V_02.wav</name>
						<enabled>TRUE</enabled>
						<duration>171138</duration>
						<rate>
							<timebase>25</timebase>
							<ntsc>FALSE</ntsc>
						</rate>
						<start>44385</start>
						<end>44583</end>
						<in>137077</in>
						<out>137275</out>
						<pproTicksIn>1392790049280000</pproTicksIn>
						<pproTicksOut>1394801856000000</pproTicksOut>
						<file id="file-59"/>
						<sourcetrack>
							<mediatype>audio</mediatype>
							<trackindex>1</trackindex>
						</sourcetrack>
						<logginginfo>
							<description></description>
							<scene></scene>
							<shottake></shottake>
							<lognote></lognote>
						</logginginfo>
						<labels>
							<label2>Caribbean</label2>
						</labels>
					</clipitem>
					<clipitem id="clipitem-1688" premiereChannelType="mono">
						<masterclipid>masterclip-63</masterclipid>
						<name>Publ 2 V_02.wav</name>
						<enabled>TRUE</enabled>
						<duration>171138</duration>
						<rate>
							<timebase>25</timebase>
							<ntsc>FALSE</ntsc>
						</rate>
						<start>44583</start>
						<end>44650</end>
						<in>137376</in>
						<out>137443</out>
						<pproTicksIn>1395828080640000</pproTicksIn>
						<pproTicksOut>1396508843520000</pproTicksOut>
						<file id="file-59"/>
						<sourcetrack>
							<mediatype>audio</mediatype>
							<trackindex>1</trackindex>
						</sourcetrack>
						<logginginfo>
							<description></description>
							<scene></scene>
							<shottake></shottake>
							<lognote></lognote>
						</logginginfo>
						<labels>
							<label2>Caribbean</label2>
						</labels>
					</clipitem>
					<clipitem id="clipitem-1689" premiereChannelType="mono">
						<masterclipid>masterclip-63</masterclipid>
						<name>Publ 2 V_02.wav</name>
						<enabled>TRUE</enabled>
						<duration>171138</duration>
						<rate>
							<timebase>25</timebase>
							<ntsc>FALSE</ntsc>
						</rate>
						<start>44650</start>
						<end>45287</end>
						<in>137505</in>
						<out>138142</out>
						<pproTicksIn>1397138803200000</pproTicksIn>
						<pproTicksOut>1403611130880000</pproTicksOut>
						<file id="file-59"/>
						<sourcetrack>
							<mediatype>audio</mediatype>
							<trackindex>1</trackindex>
						</sourcetrack>
						<logginginfo>
							<description></description>
							<scene></scene>
							<shottake></shottake>
							<lognote></lognote>
						</logginginfo>
						<labels>
							<label2>Caribbean</label2>
						</labels>
					</clipitem>
					<clipitem id="clipitem-1690" premiereChannelType="mono">
						<masterclipid>masterclip-63</masterclipid>
						<name>Publ 2 V_02.wav</name>
						<enabled>TRUE</enabled>
						<duration>171138</duration>
						<rate>
							<timebase>25</timebase>
							<ntsc>FALSE</ntsc>
						</rate>
						<start>45287</start>
						<end>45692</end>
						<in>138274</in>
						<out>138679</out>
						<pproTicksIn>1404952335360000</pproTicksIn>
						<pproTicksOut>1409067394560000</pproTicksOut>
						<file id="file-59"/>
						<sourcetrack>
							<mediatype>audio</mediatype>
							<trackindex>1</trackindex>
						</sourcetrack>
						<logginginfo>
							<description></description>
							<scene></scene>
							<shottake></shottake>
							<lognote></lognote>
						</logginginfo>
						<labels>
							<label2>Caribbean</label2>
						</labels>
					</clipitem>
					<clipitem id="clipitem-1691" premiereChannelType="mono">
						<masterclipid>masterclip-63</masterclipid>
						<name>Publ 2 V_02.wav</name>
						<enabled>TRUE</enabled>
						<duration>171138</duration>
						<rate>
							<timebase>25</timebase>
							<ntsc>FALSE</ntsc>
						</rate>
						<start>45692</start>
						<end>45923</end>
						<in>138810</in>
						<out>139041</out>
						<pproTicksIn>1410398438400000</pproTicksIn>
						<pproTicksOut>1412745546240000</pproTicksOut>
						<file id="file-59"/>
						<sourcetrack>
							<mediatype>audio</mediatype>
							<trackindex>1</trackindex>
						</sourcetrack>
						<logginginfo>
							<description></description>
							<scene></scene>
							<shottake></shottake>
							<lognote></lognote>
						</logginginfo>
						<labels>
							<label2>Caribbean</label2>
						</labels>
					</clipitem>
					<clipitem id="clipitem-1692" premiereChannelType="mono">
						<masterclipid>masterclip-63</masterclipid>
						<name>Publ 2 V_02.wav</name>
						<enabled>TRUE</enabled>
						<duration>171138</duration>
						<rate>
							<timebase>25</timebase>
							<ntsc>FALSE</ntsc>
						</rate>
						<start>45923</start>
						<end>46349</end>
						<in>139073</in>
						<out>139499</out>
						<pproTicksIn>1413070686720000</pproTicksIn>
						<pproTicksOut>1417399119360000</pproTicksOut>
						<file id="file-59"/>
						<sourcetrack>
							<mediatype>audio</mediatype>
							<trackindex>1</trackindex>
						</sourcetrack>
						<logginginfo>
							<description></description>
							<scene></scene>
							<shottake></shottake>
							<lognote></lognote>
						</logginginfo>
						<labels>
							<label2>Caribbean</label2>
						</labels>
					</clipitem>
					<clipitem id="clipitem-1693" premiereChannelType="mono">
						<masterclipid>masterclip-63</masterclipid>
						<name>Publ 2 V_02.wav</name>
						<enabled>TRUE</enabled>
						<duration>171138</duration>
						<rate>
							<timebase>25</timebase>
							<ntsc>FALSE</ntsc>
						</rate>
						<start>46349</start>
						<end>46455</end>
						<in>159642</in>
						<out>159748</out>
						<pproTicksIn>1622064890880000</pproTicksIn>
						<pproTicksOut>1623141918720000</pproTicksOut>
						<file id="file-59"/>
						<sourcetrack>
							<mediatype>audio</mediatype>
							<trackindex>1</trackindex>
						</sourcetrack>
						<logginginfo>
							<description></description>
							<scene></scene>
							<shottake></shottake>
							<lognote></lognote>
						</logginginfo>
						<labels>
							<label2>Caribbean</label2>
						</labels>
					</clipitem>
					<clipitem id="clipitem-1694" premiereChannelType="mono">
						<masterclipid>masterclip-63</masterclipid>
						<name>Publ 2 V_02.wav</name>
						<enabled>TRUE</enabled>
						<duration>171138</duration>
						<rate>
							<timebase>25</timebase>
							<ntsc>FALSE</ntsc>
						</rate>
						<start>46455</start>
						<end>46911</end>
						<in>140048</in>
						<out>140504</out>
						<pproTicksIn>1422977310720000</pproTicksIn>
						<pproTicksOut>1427610562560000</pproTicksOut>
						<file id="file-59"/>
						<sourcetrack>
							<mediatype>audio</mediatype>
							<trackindex>1</trackindex>
						</sourcetrack>
						<logginginfo>
							<description></description>
							<scene></scene>
							<shottake></shottake>
							<lognote></lognote>
						</logginginfo>
						<labels>
							<label2>Caribbean</label2>
						</labels>
					</clipitem>
					<clipitem id="clipitem-1695" premiereChannelType="mono">
						<masterclipid>masterclip-63</masterclipid>
						<name>Publ 2 V_02.wav</name>
						<enabled>TRUE</enabled>
						<duration>171138</duration>
						<rate>
							<timebase>25</timebase>
							<ntsc>FALSE</ntsc>
						</rate>
						<start>46911</start>
						<end>47138</end>
						<in>140817</in>
						<out>141044</out>
						<pproTicksIn>1430790842880000</pproTicksIn>
						<pproTicksOut>1433097308160000</pproTicksOut>
						<file id="file-59"/>
						<sourcetrack>
							<mediatype>audio</mediatype>
							<trackindex>1</trackindex>
						</sourcetrack>
						<logginginfo>
							<description></description>
							<scene></scene>
							<shottake></shottake>
							<lognote></lognote>
						</logginginfo>
						<labels>
							<label2>Caribbean</label2>
						</labels>
					</clipitem>
					<clipitem id="clipitem-1696" premiereChannelType="mono">
						<masterclipid>masterclip-63</masterclipid>
						<name>Publ 2 V_02.wav</name>
						<enabled>TRUE</enabled>
						<duration>171138</duration>
						<rate>
							<timebase>25</timebase>
							<ntsc>FALSE</ntsc>
						</rate>
						<start>47138</start>
						<end>47335</end>
						<in>141203</in>
						<out>141400</out>
						<pproTicksIn>1434712849920000</pproTicksIn>
						<pproTicksOut>1436714496000000</pproTicksOut>
						<file id="file-59"/>
						<sourcetrack>
							<mediatype>audio</mediatype>
							<trackindex>1</trackindex>
						</sourcetrack>
						<logginginfo>
							<description></description>
							<scene></scene>
							<shottake></shottake>
							<lognote></lognote>
						</logginginfo>
						<labels>
							<label2>Caribbean</label2>
						</labels>
					</clipitem>
					<clipitem id="clipitem-1697" premiereChannelType="mono">
						<masterclipid>masterclip-63</masterclipid>
						<name>Publ 2 V_02.wav</name>
						<enabled>TRUE</enabled>
						<duration>171138</duration>
						<rate>
							<timebase>25</timebase>
							<ntsc>FALSE</ntsc>
						</rate>
						<start>47335</start>
						<end>47513</end>
						<in>141454</in>
						<out>141632</out>
						<pproTicksIn>1437263170560000</pproTicksIn>
						<pproTicksOut>1439071764480000</pproTicksOut>
						<file id="file-59"/>
						<sourcetrack>
							<mediatype>audio</mediatype>
							<trackindex>1</trackindex>
						</sourcetrack>
						<logginginfo>
							<description></description>
							<scene></scene>
							<shottake></shottake>
							<lognote></lognote>
						</logginginfo>
						<labels>
							<label2>Caribbean</label2>
						</labels>
					</clipitem>
					<clipitem id="clipitem-1698" premiereChannelType="mono">
						<masterclipid>masterclip-63</masterclipid>
						<name>Publ 2 V_02.wav</name>
						<enabled>TRUE</enabled>
						<duration>171138</duration>
						<rate>
							<timebase>25</timebase>
							<ntsc>FALSE</ntsc>
						</rate>
						<start>47513</start>
						<end>47723</end>
						<in>141671</in>
						<out>141881</out>
						<pproTicksIn>1439468029440000</pproTicksIn>
						<pproTicksOut>1441601763840000</pproTicksOut>
						<file id="file-59"/>
						<sourcetrack>
							<mediatype>audio</mediatype>
							<trackindex>1</trackindex>
						</sourcetrack>
						<logginginfo>
							<description></description>
							<scene></scene>
							<shottake></shottake>
							<lognote></lognote>
						</logginginfo>
						<labels>
							<label2>Caribbean</label2>
						</labels>
					</clipitem>
					<clipitem id="clipitem-1699" premiereChannelType="mono">
						<masterclipid>masterclip-63</masterclipid>
						<name>Publ 2 V_02.wav</name>
						<enabled>TRUE</enabled>
						<duration>171138</duration>
						<rate>
							<timebase>25</timebase>
							<ntsc>FALSE</ntsc>
						</rate>
						<start>47723</start>
						<end>48040</end>
						<in>141894</in>
						<out>142211</out>
						<pproTicksIn>1441733852160000</pproTicksIn>
						<pproTicksOut>1444954775040000</pproTicksOut>
						<file id="file-59"/>
						<sourcetrack>
							<mediatype>audio</mediatype>
							<trackindex>1</trackindex>
						</sourcetrack>
						<logginginfo>
							<description></description>
							<scene></scene>
							<shottake></shottake>
							<lognote></lognote>
						</logginginfo>
						<labels>
							<label2>Caribbean</label2>
						</labels>
					</clipitem>
					<clipitem id="clipitem-1700" premiereChannelType="mono">
						<masterclipid>masterclip-63</masterclipid>
						<name>Publ 2 V_02.wav</name>
						<enabled>TRUE</enabled>
						<duration>171138</duration>
						<rate>
							<timebase>25</timebase>
							<ntsc>FALSE</ntsc>
						</rate>
						<start>48040</start>
						<end>48766</end>
						<in>142351</in>
						<out>143077</out>
						<pproTicksIn>1446377264640000</pproTicksIn>
						<pproTicksOut>1453753889280000</pproTicksOut>
						<file id="file-59"/>
						<sourcetrack>
							<mediatype>audio</mediatype>
							<trackindex>1</trackindex>
						</sourcetrack>
						<logginginfo>
							<description></description>
							<scene></scene>
							<shottake></shottake>
							<lognote></lognote>
						</logginginfo>
						<labels>
							<label2>Caribbean</label2>
						</labels>
					</clipitem>
					<clipitem id="clipitem-1701" premiereChannelType="mono">
						<masterclipid>masterclip-63</masterclipid>
						<name>Publ 2 V_02.wav</name>
						<enabled>TRUE</enabled>
						<duration>171138</duration>
						<rate>
							<timebase>25</timebase>
							<ntsc>FALSE</ntsc>
						</rate>
						<start>48766</start>
						<end>49706</end>
						<in>143684</in>
						<out>144624</out>
						<pproTicksIn>1459921397760000</pproTicksIn>
						<pproTicksOut>1469472399360000</pproTicksOut>
						<file id="file-59"/>
						<sourcetrack>
							<mediatype>audio</mediatype>
							<trackindex>1</trackindex>
						</sourcetrack>
						<logginginfo>
							<description></description>
							<scene></scene>
							<shottake></shottake>
							<lognote></lognote>
						</logginginfo>
						<labels>
							<label2>Caribbean</label2>
						</labels>
					</clipitem>
					<clipitem id="clipitem-1702" premiereChannelType="mono">
						<masterclipid>masterclip-63</masterclipid>
						<name>Publ 2 V_02.wav</name>
						<enabled>TRUE</enabled>
						<duration>171138</duration>
						<rate>
							<timebase>25</timebase>
							<ntsc>FALSE</ntsc>
						</rate>
						<start>49706</start>
						<end>49762</end>
						<in>147186</in>
						<out>147242</out>
						<pproTicksIn>1495503959040000</pproTicksIn>
						<pproTicksOut>1496072954880000</pproTicksOut>
						<file id="file-59"/>
						<sourcetrack>
							<mediatype>audio</mediatype>
							<trackindex>1</trackindex>
						</sourcetrack>
						<logginginfo>
							<description></description>
							<scene></scene>
							<shottake></shottake>
							<lognote></lognote>
						</logginginfo>
						<labels>
							<label2>Caribbean</label2>
						</labels>
					</clipitem>
					<clipitem id="clipitem-1703" premiereChannelType="mono">
						<masterclipid>masterclip-63</masterclipid>
						<name>Publ 2 V_02.wav</name>
						<enabled>TRUE</enabled>
						<duration>171138</duration>
						<rate>
							<timebase>25</timebase>
							<ntsc>FALSE</ntsc>
						</rate>
						<start>49762</start>
						<end>49948</end>
						<in>153681</in>
						<out>153867</out>
						<pproTicksIn>1561497315840000</pproTicksIn>
						<pproTicksOut>1563387194880000</pproTicksOut>
						<file id="file-59"/>
						<sourcetrack>
							<mediatype>audio</mediatype>
							<trackindex>1</trackindex>
						</sourcetrack>
						<logginginfo>
							<description></description>
							<scene></scene>
							<shottake></shottake>
							<lognote></lognote>
						</logginginfo>
						<labels>
							<label2>Caribbean</label2>
						</labels>
					</clipitem>
					<clipitem id="clipitem-1704" premiereChannelType="mono">
						<masterclipid>masterclip-63</masterclipid>
						<name>Publ 2 V_02.wav</name>
						<enabled>TRUE</enabled>
						<duration>171138</duration>
						<rate>
							<timebase>25</timebase>
							<ntsc>FALSE</ntsc>
						</rate>
						<start>49948</start>
						<end>50390</end>
						<in>153946</in>
						<out>154388</out>
						<pproTicksIn>1564189885440000</pproTicksIn>
						<pproTicksOut>1568680888320000</pproTicksOut>
						<file id="file-59"/>
						<sourcetrack>
							<mediatype>audio</mediatype>
							<trackindex>1</trackindex>
						</sourcetrack>
						<logginginfo>
							<description></description>
							<scene></scene>
							<shottake></shottake>
							<lognote></lognote>
						</logginginfo>
						<labels>
							<label2>Caribbean</label2>
						</labels>
					</clipitem>
					<clipitem id="clipitem-1705" premiereChannelType="mono">
						<masterclipid>masterclip-63</masterclipid>
						<name>Publ 2 V_02.wav</name>
						<enabled>TRUE</enabled>
						<duration>171138</duration>
						<rate>
							<timebase>25</timebase>
							<ntsc>FALSE</ntsc>
						</rate>
						<start>50390</start>
						<end>50983</end>
						<in>156215</in>
						<out>156808</out>
						<pproTicksIn>1587244377600000</pproTicksIn>
						<pproTicksOut>1593269637120000</pproTicksOut>
						<file id="file-59"/>
						<sourcetrack>
							<mediatype>audio</mediatype>
							<trackindex>1</trackindex>
						</sourcetrack>
						<logginginfo>
							<description></description>
							<scene></scene>
							<shottake></shottake>
							<lognote></lognote>
						</logginginfo>
						<labels>
							<label2>Caribbean</label2>
						</labels>
					</clipitem>
					<clipitem id="clipitem-1706" premiereChannelType="mono">
						<masterclipid>masterclip-63</masterclipid>
						<name>Publ 2 V_02.wav</name>
						<enabled>TRUE</enabled>
						<duration>171138</duration>
						<rate>
							<timebase>25</timebase>
							<ntsc>FALSE</ntsc>
						</rate>
						<start>50983</start>
						<end>53597</end>
						<in>157028</in>
						<out>159642</out>
						<pproTicksIn>1595504977920000</pproTicksIn>
						<pproTicksOut>1622064890880000</pproTicksOut>
						<file id="file-59"/>
						<sourcetrack>
							<mediatype>audio</mediatype>
							<trackindex>1</trackindex>
						</sourcetrack>
						<logginginfo>
							<description></description>
							<scene></scene>
							<shottake></shottake>
							<lognote></lognote>
						</logginginfo>
						<labels>
							<label2>Caribbean</label2>
						</labels>
					</clipitem>
					<clipitem id="clipitem-1707" premiereChannelType="mono">
						<masterclipid>masterclip-63</masterclipid>
						<name>Publ 2 V_02.wav</name>
						<enabled>TRUE</enabled>
						<duration>171138</duration>
						<rate>
							<timebase>25</timebase>
							<ntsc>FALSE</ntsc>
						</rate>
						<start>53597</start>
						<end>53636</end>
						<in>160568</in>
						<out>160607</out>
						<pproTicksIn>1631473643520000</pproTicksIn>
						<pproTicksOut>1631869908480000</pproTicksOut>
						<file id="file-59"/>
						<sourcetrack>
							<mediatype>audio</mediatype>
							<trackindex>1</trackindex>
						</sourcetrack>
						<logginginfo>
							<description></description>
							<scene></scene>
							<shottake></shottake>
							<lognote></lognote>
						</logginginfo>
						<labels>
							<label2>Caribbean</label2>
						</labels>
					</clipitem>
					<clipitem id="clipitem-1708" premiereChannelType="mono">
						<masterclipid>masterclip-63</masterclipid>
						<name>Publ 2 V_02.wav</name>
						<enabled>TRUE</enabled>
						<duration>171138</duration>
						<rate>
							<timebase>25</timebase>
							<ntsc>FALSE</ntsc>
						</rate>
						<start>53636</start>
						<end>55369</end>
						<in>161146</in>
						<out>162879</out>
						<pproTicksIn>1637346493440000</pproTicksIn>
						<pproTicksOut>1654954882560000</pproTicksOut>
						<file id="file-59"/>
						<sourcetrack>
							<mediatype>audio</mediatype>
							<trackindex>1</trackindex>
						</sourcetrack>
						<logginginfo>
							<description></description>
							<scene></scene>
							<shottake></shottake>
							<lognote></lognote>
						</logginginfo>
						<labels>
							<label2>Caribbean</label2>
						</labels>
					</clipitem>
					<clipitem id="clipitem-1709" premiereChannelType="mono">
						<masterclipid>masterclip-63</masterclipid>
						<name>Publ 2 V_02.wav</name>
						<enabled>TRUE</enabled>
						<duration>171138</duration>
						<rate>
							<timebase>25</timebase>
							<ntsc>FALSE</ntsc>
						</rate>
						<start>55369</start>
						<end>55449</end>
						<in>162899</in>
						<out>162979</out>
						<pproTicksIn>1655158095360000</pproTicksIn>
						<pproTicksOut>1655970946560000</pproTicksOut>
						<file id="file-59"/>
						<sourcetrack>
							<mediatype>audio</mediatype>
							<trackindex>1</trackindex>
						</sourcetrack>
						<logginginfo>
							<description></description>
							<scene></scene>
							<shottake></shottake>
							<lognote></lognote>
						</logginginfo>
						<labels>
							<label2>Caribbean</label2>
						</labels>
					</clipitem>
					<clipitem id="clipitem-1710" premiereChannelType="mono">
						<masterclipid>masterclip-63</masterclipid>
						<name>Publ 2 V_02.wav</name>
						<enabled>TRUE</enabled>
						<duration>171138</duration>
						<rate>
							<timebase>25</timebase>
							<ntsc>FALSE</ntsc>
						</rate>
						<start>55449</start>
						<end>55738</end>
						<in>163146</in>
						<out>163435</out>
						<pproTicksIn>1657667773440000</pproTicksIn>
						<pproTicksOut>1660604198400000</pproTicksOut>
						<file id="file-59"/>
						<sourcetrack>
							<mediatype>audio</mediatype>
							<trackindex>1</trackindex>
						</sourcetrack>
						<logginginfo>
							<description></description>
							<scene></scene>
							<shottake></shottake>
							<lognote></lognote>
						</logginginfo>
						<labels>
							<label2>Caribbean</label2>
						</labels>
					</clipitem>
					<clipitem id="clipitem-1711" premiereChannelType="mono">
						<masterclipid>masterclip-63</masterclipid>
						<name>Publ 2 V_02.wav</name>
						<enabled>TRUE</enabled>
						<duration>171138</duration>
						<rate>
							<timebase>25</timebase>
							<ntsc>FALSE</ntsc>
						</rate>
						<start>55738</start>
						<end>55905</end>
						<in>163648</in>
						<out>163815</out>
						<pproTicksIn>1662768414720000</pproTicksIn>
						<pproTicksOut>1664465241600000</pproTicksOut>
						<file id="file-59"/>
						<sourcetrack>
							<mediatype>audio</mediatype>
							<trackindex>1</trackindex>
						</sourcetrack>
						<logginginfo>
							<description></description>
							<scene></scene>
							<shottake></shottake>
							<lognote></lognote>
						</logginginfo>
						<labels>
							<label2>Caribbean</label2>
						</labels>
					</clipitem>
					<clipitem id="clipitem-1712" premiereChannelType="mono">
						<masterclipid>masterclip-63</masterclipid>
						<name>Publ 2 V_02.wav</name>
						<enabled>TRUE</enabled>
						<duration>171138</duration>
						<rate>
							<timebase>25</timebase>
							<ntsc>FALSE</ntsc>
						</rate>
						<start>55905</start>
						<end>56079</end>
						<in>163829</in>
						<out>164003</out>
						<pproTicksIn>1664607490560000</pproTicksIn>
						<pproTicksOut>1666375441920000</pproTicksOut>
						<file id="file-59"/>
						<sourcetrack>
							<mediatype>audio</mediatype>
							<trackindex>1</trackindex>
						</sourcetrack>
						<logginginfo>
							<description></description>
							<scene></scene>
							<shottake></shottake>
							<lognote></lognote>
						</logginginfo>
						<labels>
							<label2>Caribbean</label2>
						</labels>
					</clipitem>
					<clipitem id="clipitem-1713" premiereChannelType="mono">
						<masterclipid>masterclip-63</masterclipid>
						<name>Publ 2 V_02.wav</name>
						<enabled>TRUE</enabled>
						<duration>171138</duration>
						<rate>
							<timebase>25</timebase>
							<ntsc>FALSE</ntsc>
						</rate>
						<start>56079</start>
						<end>58120</end>
						<in>164067</in>
						<out>166108</out>
						<pproTicksIn>1667025722880000</pproTicksIn>
						<pproTicksOut>1687763589120000</pproTicksOut>
						<file id="file-59"/>
						<sourcetrack>
							<mediatype>audio</mediatype>
							<trackindex>1</trackindex>
						</sourcetrack>
						<logginginfo>
							<description></description>
							<scene></scene>
							<shottake></shottake>
							<lognote></lognote>
						</logginginfo>
						<labels>
							<label2>Caribbean</label2>
						</labels>
					</clipitem>
					<enabled>TRUE</enabled>
					<locked>FALSE</locked>
					<outputchannelindex>2</outputchannelindex>
				</track>
				<track TL.SQTrackAudioKeyframeStyle="0" TL.SQTrackShy="0" TL.SQTrackExpandedHeight="25" TL.SQTrackExpanded="1" MZ.TrackTargeted="1" PannerCurrentValue="0.5" PannerIsInverted="true" PannerStartKeyframe="-91445760000000000,0.5,0,0,0,0,0,0" PannerName="Balance" currentExplodedTrackIndex="0" totalExplodedTrackCount="1" premiereTrackType="Stereo">
					<clipitem id="clipitem-1714" premiereChannelType="mono">
						<masterclipid>masterclip-64</masterclipid>
						<name>Publ 2 H_02.wav</name>
						<enabled>TRUE</enabled>
						<duration>171138</duration>
						<rate>
							<timebase>25</timebase>
							<ntsc>FALSE</ntsc>
						</rate>
						<start>420</start>
						<end>891</end>
						<in>168511</in>
						<out>168982</out>
						<pproTicksIn>1712179607040000</pproTicksIn>
						<pproTicksOut>1716965268480000</pproTicksOut>
						<file id="file-60">
							<name>Publ 2 H_02.wav</name>
							<pathurl>file://localhost/Volumes/Brakka/AdobeLager/QUIZ%20-%20brakka/RA%cc%8aSTOFF%20LYD/2005/Publ%202%20H_02.wav</pathurl>
							<rate>
								<timebase>30</timebase>
								<ntsc>TRUE</ntsc>
							</rate>
							<duration>205161</duration>
							<timecode>
								<rate>
									<timebase>30</timebase>
									<ntsc>TRUE</ntsc>
								</rate>
								<string>12;52;15;16</string>
								<frame>1388676</frame>
								<displayformat>DF</displayformat>
								<reel>
									<name></name>
								</reel>
							</timecode>
							<media>
								<audio>
									<samplecharacteristics>
										<depth>16</depth>
										<samplerate>48000</samplerate>
									</samplecharacteristics>
									<channelcount>1</channelcount>
									<audiochannel>
										<sourcechannel>1</sourcechannel>
									</audiochannel>
								</audio>
							</media>
						</file>
						<sourcetrack>
							<mediatype>audio</mediatype>
							<trackindex>1</trackindex>
						</sourcetrack>
						<logginginfo>
							<description></description>
							<scene></scene>
							<shottake></shottake>
							<lognote></lognote>
						</logginginfo>
						<labels>
							<label2>Caribbean</label2>
						</labels>
					</clipitem>
					<clipitem id="clipitem-1715" premiereChannelType="mono">
						<masterclipid>masterclip-64</masterclipid>
						<name>Publ 2 H_02.wav</name>
						<enabled>TRUE</enabled>
						<duration>171138</duration>
						<rate>
							<timebase>25</timebase>
							<ntsc>FALSE</ntsc>
						</rate>
						<start>965</start>
						<end>1469</end>
						<in>32787</in>
						<out>33291</out>
						<pproTicksIn>333136903680000</pproTicksIn>
						<pproTicksOut>338257866240000</pproTicksOut>
						<file id="file-60"/>
						<sourcetrack>
							<mediatype>audio</mediatype>
							<trackindex>1</trackindex>
						</sourcetrack>
						<logginginfo>
							<description></description>
							<scene></scene>
							<shottake></shottake>
							<lognote></lognote>
						</logginginfo>
						<labels>
							<label2>Caribbean</label2>
						</labels>
					</clipitem>
					<clipitem id="clipitem-1716" premiereChannelType="mono">
						<masterclipid>masterclip-64</masterclipid>
						<name>Publ 2 H_02.wav</name>
						<enabled>TRUE</enabled>
						<duration>171138</duration>
						<rate>
							<timebase>25</timebase>
							<ntsc>FALSE</ntsc>
						</rate>
						<start>1469</start>
						<end>4119</end>
						<in>33423</in>
						<out>36073</out>
						<pproTicksIn>339599070720000</pproTicksIn>
						<pproTicksOut>366524766720000</pproTicksOut>
						<file id="file-60"/>
						<sourcetrack>
							<mediatype>audio</mediatype>
							<trackindex>1</trackindex>
						</sourcetrack>
						<logginginfo>
							<description></description>
							<scene></scene>
							<shottake></shottake>
							<lognote></lognote>
						</logginginfo>
						<labels>
							<label2>Caribbean</label2>
						</labels>
					</clipitem>
					<clipitem id="clipitem-1717" premiereChannelType="mono">
						<masterclipid>masterclip-64</masterclipid>
						<name>Publ 2 H_02.wav</name>
						<enabled>TRUE</enabled>
						<duration>171138</duration>
						<rate>
							<timebase>25</timebase>
							<ntsc>FALSE</ntsc>
						</rate>
						<start>4119</start>
						<end>4836</end>
						<in>36549</in>
						<out>37266</out>
						<pproTicksIn>371361231360000</pproTicksIn>
						<pproTicksOut>378646410240000</pproTicksOut>
						<file id="file-60"/>
						<sourcetrack>
							<mediatype>audio</mediatype>
							<trackindex>1</trackindex>
						</sourcetrack>
						<logginginfo>
							<description></description>
							<scene></scene>
							<shottake></shottake>
							<lognote></lognote>
						</logginginfo>
						<labels>
							<label2>Caribbean</label2>
						</labels>
					</clipitem>
					<clipitem id="clipitem-1718" premiereChannelType="mono">
						<masterclipid>masterclip-64</masterclipid>
						<name>Publ 2 H_02.wav</name>
						<enabled>TRUE</enabled>
						<duration>171138</duration>
						<rate>
							<timebase>25</timebase>
							<ntsc>FALSE</ntsc>
						</rate>
						<start>4836</start>
						<end>5339</end>
						<in>37305</in>
						<out>37808</out>
						<pproTicksIn>379042675200000</pproTicksIn>
						<pproTicksOut>384153477120000</pproTicksOut>
						<file id="file-60"/>
						<sourcetrack>
							<mediatype>audio</mediatype>
							<trackindex>1</trackindex>
						</sourcetrack>
						<logginginfo>
							<description></description>
							<scene></scene>
							<shottake></shottake>
							<lognote></lognote>
						</logginginfo>
						<labels>
							<label2>Caribbean</label2>
						</labels>
					</clipitem>
					<clipitem id="clipitem-1719" premiereChannelType="mono">
						<masterclipid>masterclip-64</masterclipid>
						<name>Publ 2 H_02.wav</name>
						<enabled>TRUE</enabled>
						<duration>171138</duration>
						<rate>
							<timebase>25</timebase>
							<ntsc>FALSE</ntsc>
						</rate>
						<start>5339</start>
						<end>5501</end>
						<in>37871</in>
						<out>38033</out>
						<pproTicksIn>384793597440000</pproTicksIn>
						<pproTicksOut>386439621120000</pproTicksOut>
						<file id="file-60"/>
						<sourcetrack>
							<mediatype>audio</mediatype>
							<trackindex>1</trackindex>
						</sourcetrack>
						<logginginfo>
							<description></description>
							<scene></scene>
							<shottake></shottake>
							<lognote></lognote>
						</logginginfo>
						<labels>
							<label2>Caribbean</label2>
						</labels>
					</clipitem>
					<clipitem id="clipitem-1720" premiereChannelType="mono">
						<masterclipid>masterclip-64</masterclipid>
						<name>Publ 2 H_02.wav</name>
						<enabled>TRUE</enabled>
						<duration>171138</duration>
						<rate>
							<timebase>25</timebase>
							<ntsc>FALSE</ntsc>
						</rate>
						<start>5501</start>
						<end>6004</end>
						<in>46577</in>
						<out>47080</out>
						<pproTicksIn>473252129280000</pproTicksIn>
						<pproTicksOut>478362931200000</pproTicksOut>
						<file id="file-60"/>
						<sourcetrack>
							<mediatype>audio</mediatype>
							<trackindex>1</trackindex>
						</sourcetrack>
						<logginginfo>
							<description></description>
							<scene></scene>
							<shottake></shottake>
							<lognote></lognote>
						</logginginfo>
						<labels>
							<label2>Caribbean</label2>
						</labels>
					</clipitem>
					<clipitem id="clipitem-1721" premiereChannelType="mono">
						<masterclipid>masterclip-64</masterclipid>
						<name>Publ 2 H_02.wav</name>
						<enabled>TRUE</enabled>
						<duration>171138</duration>
						<rate>
							<timebase>25</timebase>
							<ntsc>FALSE</ntsc>
						</rate>
						<start>6004</start>
						<end>6357</end>
						<in>50106</in>
						<out>50459</out>
						<pproTicksIn>509109027840000</pproTicksIn>
						<pproTicksOut>512695733760000</pproTicksOut>
						<file id="file-60"/>
						<sourcetrack>
							<mediatype>audio</mediatype>
							<trackindex>1</trackindex>
						</sourcetrack>
						<logginginfo>
							<description></description>
							<scene></scene>
							<shottake></shottake>
							<lognote></lognote>
						</logginginfo>
						<labels>
							<label2>Caribbean</label2>
						</labels>
					</clipitem>
					<clipitem id="clipitem-1722" premiereChannelType="mono">
						<masterclipid>masterclip-64</masterclipid>
						<name>Publ 2 H_02.wav</name>
						<enabled>TRUE</enabled>
						<duration>171138</duration>
						<rate>
							<timebase>25</timebase>
							<ntsc>FALSE</ntsc>
						</rate>
						<start>6357</start>
						<end>6470</end>
						<in>50578</in>
						<out>50691</out>
						<pproTicksIn>513904849920000</pproTicksIn>
						<pproTicksOut>515053002240000</pproTicksOut>
						<file id="file-60"/>
						<sourcetrack>
							<mediatype>audio</mediatype>
							<trackindex>1</trackindex>
						</sourcetrack>
						<logginginfo>
							<description></description>
							<scene></scene>
							<shottake></shottake>
							<lognote></lognote>
						</logginginfo>
						<labels>
							<label2>Caribbean</label2>
						</labels>
					</clipitem>
					<clipitem id="clipitem-1723" premiereChannelType="mono">
						<masterclipid>masterclip-64</masterclipid>
						<name>Publ 2 H_02.wav</name>
						<enabled>TRUE</enabled>
						<duration>171138</duration>
						<rate>
							<timebase>25</timebase>
							<ntsc>FALSE</ntsc>
						</rate>
						<start>6470</start>
						<end>6547</end>
						<in>50753</in>
						<out>50830</out>
						<pproTicksIn>515682961920000</pproTicksIn>
						<pproTicksOut>516465331200000</pproTicksOut>
						<file id="file-60"/>
						<sourcetrack>
							<mediatype>audio</mediatype>
							<trackindex>1</trackindex>
						</sourcetrack>
						<logginginfo>
							<description></description>
							<scene></scene>
							<shottake></shottake>
							<lognote></lognote>
						</logginginfo>
						<labels>
							<label2>Caribbean</label2>
						</labels>
					</clipitem>
					<clipitem id="clipitem-1724" premiereChannelType="mono">
						<masterclipid>masterclip-64</masterclipid>
						<name>Publ 2 H_02.wav</name>
						<enabled>TRUE</enabled>
						<duration>171138</duration>
						<rate>
							<timebase>25</timebase>
							<ntsc>FALSE</ntsc>
						</rate>
						<start>6547</start>
						<end>7368</end>
						<in>50869</in>
						<out>51690</out>
						<pproTicksIn>516861596160000</pproTicksIn>
						<pproTicksOut>525203481600000</pproTicksOut>
						<file id="file-60"/>
						<sourcetrack>
							<mediatype>audio</mediatype>
							<trackindex>1</trackindex>
						</sourcetrack>
						<logginginfo>
							<description></description>
							<scene></scene>
							<shottake></shottake>
							<lognote></lognote>
						</logginginfo>
						<labels>
							<label2>Caribbean</label2>
						</labels>
					</clipitem>
					<clipitem id="clipitem-1725" premiereChannelType="mono">
						<masterclipid>masterclip-64</masterclipid>
						<name>Publ 2 H_02.wav</name>
						<enabled>TRUE</enabled>
						<duration>171138</duration>
						<rate>
							<timebase>25</timebase>
							<ntsc>FALSE</ntsc>
						</rate>
						<start>7368</start>
						<end>7448</end>
						<in>51824</in>
						<out>51904</out>
						<pproTicksIn>526565007360000</pproTicksIn>
						<pproTicksOut>527377858560000</pproTicksOut>
						<file id="file-60"/>
						<sourcetrack>
							<mediatype>audio</mediatype>
							<trackindex>1</trackindex>
						</sourcetrack>
						<logginginfo>
							<description></description>
							<scene></scene>
							<shottake></shottake>
							<lognote></lognote>
						</logginginfo>
						<labels>
							<label2>Caribbean</label2>
						</labels>
					</clipitem>
					<clipitem id="clipitem-1726" premiereChannelType="mono">
						<masterclipid>masterclip-64</masterclipid>
						<name>Publ 2 H_02.wav</name>
						<enabled>TRUE</enabled>
						<duration>171138</duration>
						<rate>
							<timebase>25</timebase>
							<ntsc>FALSE</ntsc>
						</rate>
						<start>7448</start>
						<end>8194</end>
						<in>52064</in>
						<out>52810</out>
						<pproTicksIn>529003560960000</pproTicksIn>
						<pproTicksOut>536583398400000</pproTicksOut>
						<file id="file-60"/>
						<sourcetrack>
							<mediatype>audio</mediatype>
							<trackindex>1</trackindex>
						</sourcetrack>
						<logginginfo>
							<description></description>
							<scene></scene>
							<shottake></shottake>
							<lognote></lognote>
						</logginginfo>
						<labels>
							<label2>Caribbean</label2>
						</labels>
					</clipitem>
					<clipitem id="clipitem-1727" premiereChannelType="mono">
						<masterclipid>masterclip-64</masterclipid>
						<name>Publ 2 H_02.wav</name>
						<enabled>TRUE</enabled>
						<duration>171138</duration>
						<rate>
							<timebase>25</timebase>
							<ntsc>FALSE</ntsc>
						</rate>
						<start>8194</start>
						<end>8332</end>
						<in>57229</in>
						<out>57367</out>
						<pproTicksIn>581483266560000</pproTicksIn>
						<pproTicksOut>582885434880000</pproTicksOut>
						<file id="file-60"/>
						<sourcetrack>
							<mediatype>audio</mediatype>
							<trackindex>1</trackindex>
						</sourcetrack>
						<logginginfo>
							<description></description>
							<scene></scene>
							<shottake></shottake>
							<lognote></lognote>
						</logginginfo>
						<labels>
							<label2>Caribbean</label2>
						</labels>
					</clipitem>
					<clipitem id="clipitem-1728" premiereChannelType="mono">
						<masterclipid>masterclip-64</masterclipid>
						<name>Publ 2 H_02.wav</name>
						<enabled>TRUE</enabled>
						<duration>171138</duration>
						<rate>
							<timebase>25</timebase>
							<ntsc>FALSE</ntsc>
						</rate>
						<start>8332</start>
						<end>8592</end>
						<in>58240</in>
						<out>58500</out>
						<pproTicksIn>591755673600000</pproTicksIn>
						<pproTicksOut>594397440000000</pproTicksOut>
						<file id="file-60"/>
						<sourcetrack>
							<mediatype>audio</mediatype>
							<trackindex>1</trackindex>
						</sourcetrack>
						<logginginfo>
							<description></description>
							<scene></scene>
							<shottake></shottake>
							<lognote></lognote>
						</logginginfo>
						<labels>
							<label2>Caribbean</label2>
						</labels>
					</clipitem>
					<clipitem id="clipitem-1729" premiereChannelType="mono">
						<masterclipid>masterclip-64</masterclipid>
						<name>Publ 2 H_02.wav</name>
						<enabled>TRUE</enabled>
						<duration>171138</duration>
						<rate>
							<timebase>25</timebase>
							<ntsc>FALSE</ntsc>
						</rate>
						<start>8592</start>
						<end>8690</end>
						<in>58994</in>
						<out>59092</out>
						<pproTicksIn>599416796160000</pproTicksIn>
						<pproTicksOut>600412538880000</pproTicksOut>
						<file id="file-60"/>
						<sourcetrack>
							<mediatype>audio</mediatype>
							<trackindex>1</trackindex>
						</sourcetrack>
						<logginginfo>
							<description></description>
							<scene></scene>
							<shottake></shottake>
							<lognote></lognote>
						</logginginfo>
						<labels>
							<label2>Caribbean</label2>
						</labels>
					</clipitem>
					<clipitem id="clipitem-1730" premiereChannelType="mono">
						<masterclipid>masterclip-64</masterclipid>
						<name>Publ 2 H_02.wav</name>
						<enabled>TRUE</enabled>
						<duration>171138</duration>
						<rate>
							<timebase>25</timebase>
							<ntsc>FALSE</ntsc>
						</rate>
						<start>8690</start>
						<end>8999</end>
						<in>59189</in>
						<out>59498</out>
						<pproTicksIn>601398120960000</pproTicksIn>
						<pproTicksOut>604537758720000</pproTicksOut>
						<file id="file-60"/>
						<sourcetrack>
							<mediatype>audio</mediatype>
							<trackindex>1</trackindex>
						</sourcetrack>
						<logginginfo>
							<description></description>
							<scene></scene>
							<shottake></shottake>
							<lognote></lognote>
						</logginginfo>
						<labels>
							<label2>Caribbean</label2>
						</labels>
					</clipitem>
					<clipitem id="clipitem-1731" premiereChannelType="mono">
						<masterclipid>masterclip-64</masterclipid>
						<name>Publ 2 H_02.wav</name>
						<enabled>TRUE</enabled>
						<duration>171138</duration>
						<rate>
							<timebase>25</timebase>
							<ntsc>FALSE</ntsc>
						</rate>
						<start>8999</start>
						<end>9172</end>
						<in>59597</in>
						<out>59770</out>
						<pproTicksIn>605543662080000</pproTicksIn>
						<pproTicksOut>607301452800000</pproTicksOut>
						<file id="file-60"/>
						<sourcetrack>
							<mediatype>audio</mediatype>
							<trackindex>1</trackindex>
						</sourcetrack>
						<logginginfo>
							<description></description>
							<scene></scene>
							<shottake></shottake>
							<lognote></lognote>
						</logginginfo>
						<labels>
							<label2>Caribbean</label2>
						</labels>
					</clipitem>
					<clipitem id="clipitem-1732" premiereChannelType="mono">
						<masterclipid>masterclip-64</masterclipid>
						<name>Publ 2 H_02.wav</name>
						<enabled>TRUE</enabled>
						<duration>171138</duration>
						<rate>
							<timebase>25</timebase>
							<ntsc>FALSE</ntsc>
						</rate>
						<start>9172</start>
						<end>9280</end>
						<in>59921</in>
						<out>60029</out>
						<pproTicksIn>608835709440000</pproTicksIn>
						<pproTicksOut>609933058560000</pproTicksOut>
						<file id="file-60"/>
						<sourcetrack>
							<mediatype>audio</mediatype>
							<trackindex>1</trackindex>
						</sourcetrack>
						<logginginfo>
							<description></description>
							<scene></scene>
							<shottake></shottake>
							<lognote></lognote>
						</logginginfo>
						<labels>
							<label2>Caribbean</label2>
						</labels>
					</clipitem>
					<clipitem id="clipitem-1733" premiereChannelType="mono">
						<masterclipid>masterclip-64</masterclipid>
						<name>Publ 2 H_02.wav</name>
						<enabled>TRUE</enabled>
						<duration>171138</duration>
						<rate>
							<timebase>25</timebase>
							<ntsc>FALSE</ntsc>
						</rate>
						<start>9280</start>
						<end>9979</end>
						<in>65722</in>
						<out>66421</out>
						<pproTicksIn>667777582080000</pproTicksIn>
						<pproTicksOut>674879869440000</pproTicksOut>
						<file id="file-60"/>
						<sourcetrack>
							<mediatype>audio</mediatype>
							<trackindex>1</trackindex>
						</sourcetrack>
						<logginginfo>
							<description></description>
							<scene></scene>
							<shottake></shottake>
							<lognote></lognote>
						</logginginfo>
						<labels>
							<label2>Caribbean</label2>
						</labels>
					</clipitem>
					<clipitem id="clipitem-1734" premiereChannelType="mono">
						<masterclipid>masterclip-64</masterclipid>
						<name>Publ 2 H_02.wav</name>
						<enabled>TRUE</enabled>
						<duration>171138</duration>
						<rate>
							<timebase>25</timebase>
							<ntsc>FALSE</ntsc>
						</rate>
						<start>9979</start>
						<end>10054</end>
						<in>66518</in>
						<out>66593</out>
						<pproTicksIn>675865451520000</pproTicksIn>
						<pproTicksOut>676627499520000</pproTicksOut>
						<file id="file-60"/>
						<sourcetrack>
							<mediatype>audio</mediatype>
							<trackindex>1</trackindex>
						</sourcetrack>
						<logginginfo>
							<description></description>
							<scene></scene>
							<shottake></shottake>
							<lognote></lognote>
						</logginginfo>
						<labels>
							<label2>Caribbean</label2>
						</labels>
					</clipitem>
					<clipitem id="clipitem-1735" premiereChannelType="mono">
						<masterclipid>masterclip-64</masterclipid>
						<name>Publ 2 H_02.wav</name>
						<enabled>TRUE</enabled>
						<duration>171138</duration>
						<rate>
							<timebase>25</timebase>
							<ntsc>FALSE</ntsc>
						</rate>
						<start>10054</start>
						<end>10901</end>
						<in>67109</in>
						<out>67956</out>
						<pproTicksIn>681870389760000</pproTicksIn>
						<pproTicksOut>690476451840000</pproTicksOut>
						<file id="file-60"/>
						<sourcetrack>
							<mediatype>audio</mediatype>
							<trackindex>1</trackindex>
						</sourcetrack>
						<logginginfo>
							<description></description>
							<scene></scene>
							<shottake></shottake>
							<lognote></lognote>
						</logginginfo>
						<labels>
							<label2>Caribbean</label2>
						</labels>
					</clipitem>
					<clipitem id="clipitem-1736" premiereChannelType="mono">
						<masterclipid>masterclip-64</masterclipid>
						<name>Publ 2 H_02.wav</name>
						<enabled>TRUE</enabled>
						<duration>171138</duration>
						<rate>
							<timebase>25</timebase>
							<ntsc>FALSE</ntsc>
						</rate>
						<start>10901</start>
						<end>11157</end>
						<in>67945</in>
						<out>68201</out>
						<pproTicksIn>690364684800000</pproTicksIn>
						<pproTicksOut>692965808640000</pproTicksOut>
						<file id="file-60"/>
						<sourcetrack>
							<mediatype>audio</mediatype>
							<trackindex>1</trackindex>
						</sourcetrack>
						<logginginfo>
							<description></description>
							<scene></scene>
							<shottake></shottake>
							<lognote></lognote>
						</logginginfo>
						<labels>
							<label2>Caribbean</label2>
						</labels>
					</clipitem>
					<clipitem id="clipitem-1737" premiereChannelType="mono">
						<masterclipid>masterclip-64</masterclipid>
						<name>Publ 2 H_02.wav</name>
						<enabled>TRUE</enabled>
						<duration>171138</duration>
						<rate>
							<timebase>25</timebase>
							<ntsc>FALSE</ntsc>
						</rate>
						<start>11157</start>
						<end>11309</end>
						<in>68218</in>
						<out>68370</out>
						<pproTicksIn>693138539520000</pproTicksIn>
						<pproTicksOut>694682956800000</pproTicksOut>
						<file id="file-60"/>
						<sourcetrack>
							<mediatype>audio</mediatype>
							<trackindex>1</trackindex>
						</sourcetrack>
						<logginginfo>
							<description></description>
							<scene></scene>
							<shottake></shottake>
							<lognote></lognote>
						</logginginfo>
						<labels>
							<label2>Caribbean</label2>
						</labels>
					</clipitem>
					<clipitem id="clipitem-1738" premiereChannelType="mono">
						<masterclipid>masterclip-64</masterclipid>
						<name>Publ 2 H_02.wav</name>
						<enabled>TRUE</enabled>
						<duration>171138</duration>
						<rate>
							<timebase>25</timebase>
							<ntsc>FALSE</ntsc>
						</rate>
						<start>11309</start>
						<end>11781</end>
						<in>68707</in>
						<out>69179</out>
						<pproTicksIn>698107092480000</pproTicksIn>
						<pproTicksOut>702902914560000</pproTicksOut>
						<file id="file-60"/>
						<sourcetrack>
							<mediatype>audio</mediatype>
							<trackindex>1</trackindex>
						</sourcetrack>
						<logginginfo>
							<description></description>
							<scene></scene>
							<shottake></shottake>
							<lognote></lognote>
						</logginginfo>
						<labels>
							<label2>Caribbean</label2>
						</labels>
					</clipitem>
					<clipitem id="clipitem-1739" premiereChannelType="mono">
						<masterclipid>masterclip-64</masterclipid>
						<name>Publ 2 H_02.wav</name>
						<enabled>TRUE</enabled>
						<duration>171138</duration>
						<rate>
							<timebase>25</timebase>
							<ntsc>FALSE</ntsc>
						</rate>
						<start>11781</start>
						<end>12155</end>
						<in>70010</in>
						<out>70384</out>
						<pproTicksIn>711346406400000</pproTicksIn>
						<pproTicksOut>715146485760000</pproTicksOut>
						<file id="file-60"/>
						<sourcetrack>
							<mediatype>audio</mediatype>
							<trackindex>1</trackindex>
						</sourcetrack>
						<logginginfo>
							<description></description>
							<scene></scene>
							<shottake></shottake>
							<lognote></lognote>
						</logginginfo>
						<labels>
							<label2>Caribbean</label2>
						</labels>
					</clipitem>
					<clipitem id="clipitem-1740" premiereChannelType="mono">
						<masterclipid>masterclip-64</masterclipid>
						<name>Publ 2 H_02.wav</name>
						<enabled>TRUE</enabled>
						<duration>171138</duration>
						<rate>
							<timebase>25</timebase>
							<ntsc>FALSE</ntsc>
						</rate>
						<start>12155</start>
						<end>13212</end>
						<in>70448</in>
						<out>71505</out>
						<pproTicksIn>715796766720000</pproTicksIn>
						<pproTicksOut>726536563200000</pproTicksOut>
						<file id="file-60"/>
						<sourcetrack>
							<mediatype>audio</mediatype>
							<trackindex>1</trackindex>
						</sourcetrack>
						<logginginfo>
							<description></description>
							<scene></scene>
							<shottake></shottake>
							<lognote></lognote>
						</logginginfo>
						<labels>
							<label2>Caribbean</label2>
						</labels>
					</clipitem>
					<clipitem id="clipitem-1741" premiereChannelType="mono">
						<masterclipid>masterclip-64</masterclipid>
						<name>Publ 2 H_02.wav</name>
						<enabled>TRUE</enabled>
						<duration>171138</duration>
						<rate>
							<timebase>25</timebase>
							<ntsc>FALSE</ntsc>
						</rate>
						<start>13212</start>
						<end>13343</end>
						<in>71544</in>
						<out>71675</out>
						<pproTicksIn>726932828160000</pproTicksIn>
						<pproTicksOut>728263872000000</pproTicksOut>
						<file id="file-60"/>
						<sourcetrack>
							<mediatype>audio</mediatype>
							<trackindex>1</trackindex>
						</sourcetrack>
						<logginginfo>
							<description></description>
							<scene></scene>
							<shottake></shottake>
							<lognote></lognote>
						</logginginfo>
						<labels>
							<label2>Caribbean</label2>
						</labels>
					</clipitem>
					<clipitem id="clipitem-1742" premiereChannelType="mono">
						<masterclipid>masterclip-64</masterclipid>
						<name>Publ 2 H_02.wav</name>
						<enabled>TRUE</enabled>
						<duration>171138</duration>
						<rate>
							<timebase>25</timebase>
							<ntsc>FALSE</ntsc>
						</rate>
						<start>13359</start>
						<end>13506</end>
						<in>77542</in>
						<out>77689</out>
						<pproTicksIn>787876346880000</pproTicksIn>
						<pproTicksOut>789369960960000</pproTicksOut>
						<file id="file-60"/>
						<sourcetrack>
							<mediatype>audio</mediatype>
							<trackindex>1</trackindex>
						</sourcetrack>
						<logginginfo>
							<description></description>
							<scene></scene>
							<shottake></shottake>
							<lognote></lognote>
						</logginginfo>
						<labels>
							<label2>Caribbean</label2>
						</labels>
					</clipitem>
					<clipitem id="clipitem-1743" premiereChannelType="mono">
						<masterclipid>masterclip-64</masterclipid>
						<name>Publ 2 H_02.wav</name>
						<enabled>TRUE</enabled>
						<duration>171138</duration>
						<rate>
							<timebase>25</timebase>
							<ntsc>FALSE</ntsc>
						</rate>
						<start>13506</start>
						<end>14081</end>
						<in>78019</in>
						<out>78594</out>
						<pproTicksIn>792722972160000</pproTicksIn>
						<pproTicksOut>798565340160000</pproTicksOut>
						<file id="file-60"/>
						<sourcetrack>
							<mediatype>audio</mediatype>
							<trackindex>1</trackindex>
						</sourcetrack>
						<logginginfo>
							<description></description>
							<scene></scene>
							<shottake></shottake>
							<lognote></lognote>
						</logginginfo>
						<labels>
							<label2>Caribbean</label2>
						</labels>
					</clipitem>
					<clipitem id="clipitem-1744" premiereChannelType="mono">
						<masterclipid>masterclip-64</masterclipid>
						<name>Publ 2 H_02.wav</name>
						<enabled>TRUE</enabled>
						<duration>171138</duration>
						<rate>
							<timebase>25</timebase>
							<ntsc>FALSE</ntsc>
						</rate>
						<start>14081</start>
						<end>14232</end>
						<in>78676</in>
						<out>78827</out>
						<pproTicksIn>799398512640000</pproTicksIn>
						<pproTicksOut>800932769280000</pproTicksOut>
						<file id="file-60"/>
						<sourcetrack>
							<mediatype>audio</mediatype>
							<trackindex>1</trackindex>
						</sourcetrack>
						<logginginfo>
							<description></description>
							<scene></scene>
							<shottake></shottake>
							<lognote></lognote>
						</logginginfo>
						<labels>
							<label2>Caribbean</label2>
						</labels>
					</clipitem>
					<clipitem id="clipitem-1745" premiereChannelType="mono">
						<masterclipid>masterclip-64</masterclipid>
						<name>Publ 2 H_02.wav</name>
						<enabled>TRUE</enabled>
						<duration>171138</duration>
						<rate>
							<timebase>25</timebase>
							<ntsc>FALSE</ntsc>
						</rate>
						<start>14232</start>
						<end>14550</end>
						<in>78886</in>
						<out>79204</out>
						<pproTicksIn>801532247040000</pproTicksIn>
						<pproTicksOut>804763330560000</pproTicksOut>
						<file id="file-60"/>
						<sourcetrack>
							<mediatype>audio</mediatype>
							<trackindex>1</trackindex>
						</sourcetrack>
						<logginginfo>
							<description></description>
							<scene></scene>
							<shottake></shottake>
							<lognote></lognote>
						</logginginfo>
						<labels>
							<label2>Caribbean</label2>
						</labels>
					</clipitem>
					<clipitem id="clipitem-1746" premiereChannelType="mono">
						<masterclipid>masterclip-64</masterclipid>
						<name>Publ 2 H_02.wav</name>
						<enabled>TRUE</enabled>
						<duration>171138</duration>
						<rate>
							<timebase>25</timebase>
							<ntsc>FALSE</ntsc>
						</rate>
						<start>14550</start>
						<end>14774</end>
						<in>79562</in>
						<out>79786</out>
						<pproTicksIn>808400839680000</pproTicksIn>
						<pproTicksOut>810676823040000</pproTicksOut>
						<file id="file-60"/>
						<sourcetrack>
							<mediatype>audio</mediatype>
							<trackindex>1</trackindex>
						</sourcetrack>
						<logginginfo>
							<description></description>
							<scene></scene>
							<shottake></shottake>
							<lognote></lognote>
						</logginginfo>
						<labels>
							<label2>Caribbean</label2>
						</labels>
					</clipitem>
					<clipitem id="clipitem-1747" premiereChannelType="mono">
						<masterclipid>masterclip-64</masterclipid>
						<name>Publ 2 H_02.wav</name>
						<enabled>TRUE</enabled>
						<duration>171138</duration>
						<rate>
							<timebase>25</timebase>
							<ntsc>FALSE</ntsc>
						</rate>
						<start>14774</start>
						<end>14798</end>
						<in>79204</in>
						<out>79228</out>
						<pproTicksIn>804763330560000</pproTicksIn>
						<pproTicksOut>805007185920000</pproTicksOut>
						<file id="file-60"/>
						<sourcetrack>
							<mediatype>audio</mediatype>
							<trackindex>1</trackindex>
						</sourcetrack>
						<logginginfo>
							<description></description>
							<scene></scene>
							<shottake></shottake>
							<lognote></lognote>
						</logginginfo>
						<labels>
							<label2>Caribbean</label2>
						</labels>
					</clipitem>
					<clipitem id="clipitem-1748" premiereChannelType="mono">
						<masterclipid>masterclip-64</masterclipid>
						<name>Publ 2 H_02.wav</name>
						<enabled>TRUE</enabled>
						<duration>171138</duration>
						<rate>
							<timebase>25</timebase>
							<ntsc>FALSE</ntsc>
						</rate>
						<start>14798</start>
						<end>14887</end>
						<in>80182</in>
						<out>80271</out>
						<pproTicksIn>814700436480000</pproTicksIn>
						<pproTicksOut>815604733440000</pproTicksOut>
						<file id="file-60"/>
						<sourcetrack>
							<mediatype>audio</mediatype>
							<trackindex>1</trackindex>
						</sourcetrack>
						<logginginfo>
							<description></description>
							<scene></scene>
							<shottake></shottake>
							<lognote></lognote>
						</logginginfo>
						<labels>
							<label2>Caribbean</label2>
						</labels>
					</clipitem>
					<clipitem id="clipitem-1749" premiereChannelType="mono">
						<masterclipid>masterclip-64</masterclipid>
						<name>Publ 2 H_02.wav</name>
						<enabled>TRUE</enabled>
						<duration>171138</duration>
						<rate>
							<timebase>25</timebase>
							<ntsc>FALSE</ntsc>
						</rate>
						<start>14887</start>
						<end>15129</end>
						<in>80569</in>
						<out>80811</out>
						<pproTicksIn>818632604160000</pproTicksIn>
						<pproTicksOut>821091479040000</pproTicksOut>
						<file id="file-60"/>
						<sourcetrack>
							<mediatype>audio</mediatype>
							<trackindex>1</trackindex>
						</sourcetrack>
						<logginginfo>
							<description></description>
							<scene></scene>
							<shottake></shottake>
							<lognote></lognote>
						</logginginfo>
						<labels>
							<label2>Caribbean</label2>
						</labels>
					</clipitem>
					<clipitem id="clipitem-1750" premiereChannelType="mono">
						<masterclipid>masterclip-64</masterclipid>
						<name>Publ 2 H_02.wav</name>
						<enabled>TRUE</enabled>
						<duration>171138</duration>
						<rate>
							<timebase>25</timebase>
							<ntsc>FALSE</ntsc>
						</rate>
						<start>15129</start>
						<end>15493</end>
						<in>80817</in>
						<out>81181</out>
						<pproTicksIn>821152442880000</pproTicksIn>
						<pproTicksOut>824850915840000</pproTicksOut>
						<file id="file-60"/>
						<sourcetrack>
							<mediatype>audio</mediatype>
							<trackindex>1</trackindex>
						</sourcetrack>
						<logginginfo>
							<description></description>
							<scene></scene>
							<shottake></shottake>
							<lognote></lognote>
						</logginginfo>
						<labels>
							<label2>Caribbean</label2>
						</labels>
					</clipitem>
					<clipitem id="clipitem-1751" premiereChannelType="mono">
						<masterclipid>masterclip-64</masterclipid>
						<name>Publ 2 H_02.wav</name>
						<enabled>TRUE</enabled>
						<duration>171138</duration>
						<rate>
							<timebase>25</timebase>
							<ntsc>FALSE</ntsc>
						</rate>
						<start>15493</start>
						<end>15657</end>
						<in>81234</in>
						<out>81398</out>
						<pproTicksIn>825389429760000</pproTicksIn>
						<pproTicksOut>827055774720000</pproTicksOut>
						<file id="file-60"/>
						<sourcetrack>
							<mediatype>audio</mediatype>
							<trackindex>1</trackindex>
						</sourcetrack>
						<logginginfo>
							<description></description>
							<scene></scene>
							<shottake></shottake>
							<lognote></lognote>
						</logginginfo>
						<labels>
							<label2>Caribbean</label2>
						</labels>
					</clipitem>
					<clipitem id="clipitem-1752" premiereChannelType="mono">
						<masterclipid>masterclip-64</masterclipid>
						<name>Publ 2 H_02.wav</name>
						<enabled>TRUE</enabled>
						<duration>171138</duration>
						<rate>
							<timebase>25</timebase>
							<ntsc>FALSE</ntsc>
						</rate>
						<start>15657</start>
						<end>15850</end>
						<in>81563</in>
						<out>81756</out>
						<pproTicksIn>828732280320000</pproTicksIn>
						<pproTicksOut>830693283840000</pproTicksOut>
						<file id="file-60"/>
						<sourcetrack>
							<mediatype>audio</mediatype>
							<trackindex>1</trackindex>
						</sourcetrack>
						<logginginfo>
							<description></description>
							<scene></scene>
							<shottake></shottake>
							<lognote></lognote>
						</logginginfo>
						<labels>
							<label2>Caribbean</label2>
						</labels>
					</clipitem>
					<clipitem id="clipitem-1753" premiereChannelType="mono">
						<masterclipid>masterclip-64</masterclipid>
						<name>Publ 2 H_02.wav</name>
						<enabled>TRUE</enabled>
						<duration>171138</duration>
						<rate>
							<timebase>25</timebase>
							<ntsc>FALSE</ntsc>
						</rate>
						<start>15850</start>
						<end>16018</end>
						<in>81984</in>
						<out>82152</out>
						<pproTicksIn>833009909760000</pproTicksIn>
						<pproTicksOut>834716897280000</pproTicksOut>
						<file id="file-60"/>
						<sourcetrack>
							<mediatype>audio</mediatype>
							<trackindex>1</trackindex>
						</sourcetrack>
						<logginginfo>
							<description></description>
							<scene></scene>
							<shottake></shottake>
							<lognote></lognote>
						</logginginfo>
						<labels>
							<label2>Caribbean</label2>
						</labels>
					</clipitem>
					<clipitem id="clipitem-1754" premiereChannelType="mono">
						<masterclipid>masterclip-64</masterclipid>
						<name>Publ 2 H_02.wav</name>
						<enabled>TRUE</enabled>
						<duration>171138</duration>
						<rate>
							<timebase>25</timebase>
							<ntsc>FALSE</ntsc>
						</rate>
						<start>16018</start>
						<end>16073</end>
						<in>82477</in>
						<out>82532</out>
						<pproTicksIn>838019105280000</pproTicksIn>
						<pproTicksOut>838577940480000</pproTicksOut>
						<file id="file-60"/>
						<sourcetrack>
							<mediatype>audio</mediatype>
							<trackindex>1</trackindex>
						</sourcetrack>
						<logginginfo>
							<description></description>
							<scene></scene>
							<shottake></shottake>
							<lognote></lognote>
						</logginginfo>
						<labels>
							<label2>Caribbean</label2>
						</labels>
					</clipitem>
					<clipitem id="clipitem-1755" premiereChannelType="mono">
						<masterclipid>masterclip-64</masterclipid>
						<name>Publ 2 H_02.wav</name>
						<enabled>TRUE</enabled>
						<duration>171138</duration>
						<rate>
							<timebase>25</timebase>
							<ntsc>FALSE</ntsc>
						</rate>
						<start>16073</start>
						<end>16115</end>
						<in>83437</in>
						<out>83479</out>
						<pproTicksIn>847773319680000</pproTicksIn>
						<pproTicksOut>848200066560000</pproTicksOut>
						<file id="file-60"/>
						<sourcetrack>
							<mediatype>audio</mediatype>
							<trackindex>1</trackindex>
						</sourcetrack>
						<logginginfo>
							<description></description>
							<scene></scene>
							<shottake></shottake>
							<lognote></lognote>
						</logginginfo>
						<labels>
							<label2>Caribbean</label2>
						</labels>
					</clipitem>
					<clipitem id="clipitem-1756" premiereChannelType="mono">
						<masterclipid>masterclip-64</masterclipid>
						<name>Publ 2 H_02.wav</name>
						<enabled>TRUE</enabled>
						<duration>171138</duration>
						<rate>
							<timebase>25</timebase>
							<ntsc>FALSE</ntsc>
						</rate>
						<start>16115</start>
						<end>16204</end>
						<in>83479</in>
						<out>83568</out>
						<pproTicksIn>848200066560000</pproTicksIn>
						<pproTicksOut>849104363520000</pproTicksOut>
						<file id="file-60"/>
						<sourcetrack>
							<mediatype>audio</mediatype>
							<trackindex>1</trackindex>
						</sourcetrack>
						<logginginfo>
							<description></description>
							<scene></scene>
							<shottake></shottake>
							<lognote></lognote>
						</logginginfo>
						<labels>
							<label2>Caribbean</label2>
						</labels>
					</clipitem>
					<clipitem id="clipitem-1757" premiereChannelType="mono">
						<masterclipid>masterclip-64</masterclipid>
						<name>Publ 2 H_02.wav</name>
						<enabled>TRUE</enabled>
						<duration>171138</duration>
						<rate>
							<timebase>25</timebase>
							<ntsc>FALSE</ntsc>
						</rate>
						<start>16204</start>
						<end>16898</end>
						<in>83568</in>
						<out>84262</out>
						<pproTicksIn>849104363520000</pproTicksIn>
						<pproTicksOut>856155847680000</pproTicksOut>
						<file id="file-60"/>
						<sourcetrack>
							<mediatype>audio</mediatype>
							<trackindex>1</trackindex>
						</sourcetrack>
						<logginginfo>
							<description></description>
							<scene></scene>
							<shottake></shottake>
							<lognote></lognote>
						</logginginfo>
						<labels>
							<label2>Caribbean</label2>
						</labels>
					</clipitem>
					<clipitem id="clipitem-1758" premiereChannelType="mono">
						<masterclipid>masterclip-64</masterclipid>
						<name>Publ 2 H_02.wav</name>
						<enabled>TRUE</enabled>
						<duration>171138</duration>
						<rate>
							<timebase>25</timebase>
							<ntsc>FALSE</ntsc>
						</rate>
						<start>16898</start>
						<end>16971</end>
						<in>84282</in>
						<out>84355</out>
						<pproTicksIn>856359060480000</pproTicksIn>
						<pproTicksOut>857100787200000</pproTicksOut>
						<file id="file-60"/>
						<sourcetrack>
							<mediatype>audio</mediatype>
							<trackindex>1</trackindex>
						</sourcetrack>
						<logginginfo>
							<description></description>
							<scene></scene>
							<shottake></shottake>
							<lognote></lognote>
						</logginginfo>
						<labels>
							<label2>Caribbean</label2>
						</labels>
					</clipitem>
					<clipitem id="clipitem-1759" premiereChannelType="mono">
						<masterclipid>masterclip-64</masterclipid>
						<name>Publ 2 H_02.wav</name>
						<enabled>TRUE</enabled>
						<duration>171138</duration>
						<rate>
							<timebase>25</timebase>
							<ntsc>FALSE</ntsc>
						</rate>
						<start>16971</start>
						<end>17329</end>
						<in>84400</in>
						<out>84758</out>
						<pproTicksIn>857558016000000</pproTicksIn>
						<pproTicksOut>861195525120000</pproTicksOut>
						<file id="file-60"/>
						<sourcetrack>
							<mediatype>audio</mediatype>
							<trackindex>1</trackindex>
						</sourcetrack>
						<logginginfo>
							<description></description>
							<scene></scene>
							<shottake></shottake>
							<lognote></lognote>
						</logginginfo>
						<labels>
							<label2>Caribbean</label2>
						</labels>
					</clipitem>
					<clipitem id="clipitem-1760" premiereChannelType="mono">
						<masterclipid>masterclip-64</masterclipid>
						<name>Publ 2 H_02.wav</name>
						<enabled>TRUE</enabled>
						<duration>171138</duration>
						<rate>
							<timebase>25</timebase>
							<ntsc>FALSE</ntsc>
						</rate>
						<start>17329</start>
						<end>17417</end>
						<in>85268</in>
						<out>85356</out>
						<pproTicksIn>866377451520000</pproTicksIn>
						<pproTicksOut>867271587840000</pproTicksOut>
						<file id="file-60"/>
						<sourcetrack>
							<mediatype>audio</mediatype>
							<trackindex>1</trackindex>
						</sourcetrack>
						<logginginfo>
							<description></description>
							<scene></scene>
							<shottake></shottake>
							<lognote></lognote>
						</logginginfo>
						<labels>
							<label2>Caribbean</label2>
						</labels>
					</clipitem>
					<clipitem id="clipitem-1761" premiereChannelType="mono">
						<masterclipid>masterclip-64</masterclipid>
						<name>Publ 2 H_02.wav</name>
						<enabled>TRUE</enabled>
						<duration>171138</duration>
						<rate>
							<timebase>25</timebase>
							<ntsc>FALSE</ntsc>
						</rate>
						<start>17417</start>
						<end>17611</end>
						<in>85074</in>
						<out>85268</out>
						<pproTicksIn>864406287360000</pproTicksIn>
						<pproTicksOut>866377451520000</pproTicksOut>
						<file id="file-60"/>
						<sourcetrack>
							<mediatype>audio</mediatype>
							<trackindex>1</trackindex>
						</sourcetrack>
						<logginginfo>
							<description></description>
							<scene></scene>
							<shottake></shottake>
							<lognote></lognote>
						</logginginfo>
						<labels>
							<label2>Caribbean</label2>
						</labels>
					</clipitem>
					<clipitem id="clipitem-1762" premiereChannelType="mono">
						<masterclipid>masterclip-64</masterclipid>
						<name>Publ 2 H_02.wav</name>
						<enabled>TRUE</enabled>
						<duration>171138</duration>
						<rate>
							<timebase>25</timebase>
							<ntsc>FALSE</ntsc>
						</rate>
						<start>17611</start>
						<end>17830</end>
						<in>85560</in>
						<out>85779</out>
						<pproTicksIn>869344358400000</pproTicksIn>
						<pproTicksOut>871569538560000</pproTicksOut>
						<file id="file-60"/>
						<sourcetrack>
							<mediatype>audio</mediatype>
							<trackindex>1</trackindex>
						</sourcetrack>
						<logginginfo>
							<description></description>
							<scene></scene>
							<shottake></shottake>
							<lognote></lognote>
						</logginginfo>
						<labels>
							<label2>Caribbean</label2>
						</labels>
					</clipitem>
					<clipitem id="clipitem-1763" premiereChannelType="mono">
						<masterclipid>masterclip-64</masterclipid>
						<name>Publ 2 H_02.wav</name>
						<enabled>TRUE</enabled>
						<duration>171138</duration>
						<rate>
							<timebase>25</timebase>
							<ntsc>FALSE</ntsc>
						</rate>
						<start>17830</start>
						<end>17876</end>
						<in>83479</in>
						<out>83525</out>
						<pproTicksIn>848200066560000</pproTicksIn>
						<pproTicksOut>848667456000000</pproTicksOut>
						<file id="file-60"/>
						<sourcetrack>
							<mediatype>audio</mediatype>
							<trackindex>1</trackindex>
						</sourcetrack>
						<logginginfo>
							<description></description>
							<scene></scene>
							<shottake></shottake>
							<lognote></lognote>
						</logginginfo>
						<labels>
							<label2>Caribbean</label2>
						</labels>
					</clipitem>
					<clipitem id="clipitem-1764" premiereChannelType="mono">
						<masterclipid>masterclip-64</masterclipid>
						<name>Publ 2 H_02.wav</name>
						<enabled>TRUE</enabled>
						<duration>171138</duration>
						<rate>
							<timebase>25</timebase>
							<ntsc>FALSE</ntsc>
						</rate>
						<start>17876</start>
						<end>18012</end>
						<in>85841</in>
						<out>85977</out>
						<pproTicksIn>872199498240000</pproTicksIn>
						<pproTicksOut>873581345280000</pproTicksOut>
						<file id="file-60"/>
						<sourcetrack>
							<mediatype>audio</mediatype>
							<trackindex>1</trackindex>
						</sourcetrack>
						<logginginfo>
							<description></description>
							<scene></scene>
							<shottake></shottake>
							<lognote></lognote>
						</logginginfo>
						<labels>
							<label2>Caribbean</label2>
						</labels>
					</clipitem>
					<clipitem id="clipitem-1765" premiereChannelType="mono">
						<masterclipid>masterclip-64</masterclipid>
						<name>Publ 2 H_02.wav</name>
						<enabled>TRUE</enabled>
						<duration>171138</duration>
						<rate>
							<timebase>25</timebase>
							<ntsc>FALSE</ntsc>
						</rate>
						<start>18012</start>
						<end>18158</end>
						<in>116811</in>
						<out>116957</out>
						<pproTicksIn>1186874519040000</pproTicksIn>
						<pproTicksOut>1188357972480000</pproTicksOut>
						<file id="file-60"/>
						<sourcetrack>
							<mediatype>audio</mediatype>
							<trackindex>1</trackindex>
						</sourcetrack>
						<logginginfo>
							<description></description>
							<scene></scene>
							<shottake></shottake>
							<lognote></lognote>
						</logginginfo>
						<labels>
							<label2>Caribbean</label2>
						</labels>
					</clipitem>
					<clipitem id="clipitem-1766" premiereChannelType="mono">
						<masterclipid>masterclip-64</masterclipid>
						<name>Publ 2 H_02.wav</name>
						<enabled>TRUE</enabled>
						<duration>171138</duration>
						<rate>
							<timebase>25</timebase>
							<ntsc>FALSE</ntsc>
						</rate>
						<start>18158</start>
						<end>18332</end>
						<in>86150</in>
						<out>86324</out>
						<pproTicksIn>875339136000000</pproTicksIn>
						<pproTicksOut>877107087360000</pproTicksOut>
						<file id="file-60"/>
						<sourcetrack>
							<mediatype>audio</mediatype>
							<trackindex>1</trackindex>
						</sourcetrack>
						<logginginfo>
							<description></description>
							<scene></scene>
							<shottake></shottake>
							<lognote></lognote>
						</logginginfo>
						<labels>
							<label2>Caribbean</label2>
						</labels>
					</clipitem>
					<clipitem id="clipitem-1767" premiereChannelType="mono">
						<masterclipid>masterclip-64</masterclipid>
						<name>Publ 2 H_02.wav</name>
						<enabled>TRUE</enabled>
						<duration>171138</duration>
						<rate>
							<timebase>25</timebase>
							<ntsc>FALSE</ntsc>
						</rate>
						<start>18332</start>
						<end>22265</end>
						<in>87920</in>
						<out>91853</out>
						<pproTicksIn>893323468800000</pproTicksIn>
						<pproTicksOut>933285265920000</pproTicksOut>
						<file id="file-60"/>
						<sourcetrack>
							<mediatype>audio</mediatype>
							<trackindex>1</trackindex>
						</sourcetrack>
						<logginginfo>
							<description></description>
							<scene></scene>
							<shottake></shottake>
							<lognote></lognote>
						</logginginfo>
						<labels>
							<label2>Caribbean</label2>
						</labels>
					</clipitem>
					<clipitem id="clipitem-1768" premiereChannelType="mono">
						<masterclipid>masterclip-64</masterclipid>
						<name>Publ 2 H_02.wav</name>
						<enabled>TRUE</enabled>
						<duration>171138</duration>
						<rate>
							<timebase>25</timebase>
							<ntsc>FALSE</ntsc>
						</rate>
						<start>22265</start>
						<end>23367</end>
						<in>91952</in>
						<out>93054</out>
						<pproTicksIn>934291169280000</pproTicksIn>
						<pproTicksOut>945488194560000</pproTicksOut>
						<file id="file-60"/>
						<sourcetrack>
							<mediatype>audio</mediatype>
							<trackindex>1</trackindex>
						</sourcetrack>
						<logginginfo>
							<description></description>
							<scene></scene>
							<shottake></shottake>
							<lognote></lognote>
						</logginginfo>
						<labels>
							<label2>Caribbean</label2>
						</labels>
					</clipitem>
					<clipitem id="clipitem-1769" premiereChannelType="mono">
						<masterclipid>masterclip-64</masterclipid>
						<name>Publ 2 H_02.wav</name>
						<enabled>TRUE</enabled>
						<duration>171138</duration>
						<rate>
							<timebase>25</timebase>
							<ntsc>FALSE</ntsc>
						</rate>
						<start>23367</start>
						<end>23724</end>
						<in>93377</in>
						<out>93734</out>
						<pproTicksIn>948770081280000</pproTicksIn>
						<pproTicksOut>952397429760000</pproTicksOut>
						<file id="file-60"/>
						<sourcetrack>
							<mediatype>audio</mediatype>
							<trackindex>1</trackindex>
						</sourcetrack>
						<logginginfo>
							<description></description>
							<scene></scene>
							<shottake></shottake>
							<lognote></lognote>
						</logginginfo>
						<labels>
							<label2>Caribbean</label2>
						</labels>
					</clipitem>
					<clipitem id="clipitem-1770" premiereChannelType="mono">
						<masterclipid>masterclip-64</masterclipid>
						<name>Publ 2 H_02.wav</name>
						<enabled>TRUE</enabled>
						<duration>171138</duration>
						<rate>
							<timebase>25</timebase>
							<ntsc>FALSE</ntsc>
						</rate>
						<start>23724</start>
						<end>24114</end>
						<in>94350</in>
						<out>94740</out>
						<pproTicksIn>958656384000000</pproTicksIn>
						<pproTicksOut>962619033600000</pproTicksOut>
						<file id="file-60"/>
						<sourcetrack>
							<mediatype>audio</mediatype>
							<trackindex>1</trackindex>
						</sourcetrack>
						<logginginfo>
							<description></description>
							<scene></scene>
							<shottake></shottake>
							<lognote></lognote>
						</logginginfo>
						<labels>
							<label2>Caribbean</label2>
						</labels>
					</clipitem>
					<clipitem id="clipitem-1771" premiereChannelType="mono">
						<masterclipid>masterclip-64</masterclipid>
						<name>Publ 2 H_02.wav</name>
						<enabled>TRUE</enabled>
						<duration>171138</duration>
						<rate>
							<timebase>25</timebase>
							<ntsc>FALSE</ntsc>
						</rate>
						<start>24114</start>
						<end>24241</end>
						<in>94797</in>
						<out>94924</out>
						<pproTicksIn>963198190080000</pproTicksIn>
						<pproTicksOut>964488591360000</pproTicksOut>
						<file id="file-60"/>
						<sourcetrack>
							<mediatype>audio</mediatype>
							<trackindex>1</trackindex>
						</sourcetrack>
						<logginginfo>
							<description></description>
							<scene></scene>
							<shottake></shottake>
							<lognote></lognote>
						</logginginfo>
						<labels>
							<label2>Caribbean</label2>
						</labels>
					</clipitem>
					<clipitem id="clipitem-1772" premiereChannelType="mono">
						<masterclipid>masterclip-64</masterclipid>
						<name>Publ 2 H_02.wav</name>
						<enabled>TRUE</enabled>
						<duration>171138</duration>
						<rate>
							<timebase>25</timebase>
							<ntsc>FALSE</ntsc>
						</rate>
						<start>24241</start>
						<end>24388</end>
						<in>95094</in>
						<out>95241</out>
						<pproTicksIn>966215900160000</pproTicksIn>
						<pproTicksOut>967709514240000</pproTicksOut>
						<file id="file-60"/>
						<sourcetrack>
							<mediatype>audio</mediatype>
							<trackindex>1</trackindex>
						</sourcetrack>
						<logginginfo>
							<description></description>
							<scene></scene>
							<shottake></shottake>
							<lognote></lognote>
						</logginginfo>
						<labels>
							<label2>Caribbean</label2>
						</labels>
					</clipitem>
					<clipitem id="clipitem-1773" premiereChannelType="mono">
						<masterclipid>masterclip-64</masterclipid>
						<name>Publ 2 H_02.wav</name>
						<enabled>TRUE</enabled>
						<duration>171138</duration>
						<rate>
							<timebase>25</timebase>
							<ntsc>FALSE</ntsc>
						</rate>
						<start>24388</start>
						<end>24600</end>
						<in>95265</in>
						<out>95477</out>
						<pproTicksIn>967953369600000</pproTicksIn>
						<pproTicksOut>970107425280000</pproTicksOut>
						<file id="file-60"/>
						<sourcetrack>
							<mediatype>audio</mediatype>
							<trackindex>1</trackindex>
						</sourcetrack>
						<logginginfo>
							<description></description>
							<scene></scene>
							<shottake></shottake>
							<lognote></lognote>
						</logginginfo>
						<labels>
							<label2>Caribbean</label2>
						</labels>
					</clipitem>
					<clipitem id="clipitem-1774" premiereChannelType="mono">
						<masterclipid>masterclip-64</masterclipid>
						<name>Publ 2 H_02.wav</name>
						<enabled>TRUE</enabled>
						<duration>171138</duration>
						<rate>
							<timebase>25</timebase>
							<ntsc>FALSE</ntsc>
						</rate>
						<start>24600</start>
						<end>24872</end>
						<in>95504</in>
						<out>95776</out>
						<pproTicksIn>970381762560000</pproTicksIn>
						<pproTicksOut>973145456640000</pproTicksOut>
						<file id="file-60"/>
						<sourcetrack>
							<mediatype>audio</mediatype>
							<trackindex>1</trackindex>
						</sourcetrack>
						<logginginfo>
							<description></description>
							<scene></scene>
							<shottake></shottake>
							<lognote></lognote>
						</logginginfo>
						<labels>
							<label2>Caribbean</label2>
						</labels>
					</clipitem>
					<clipitem id="clipitem-1775" premiereChannelType="mono">
						<masterclipid>masterclip-64</masterclipid>
						<name>Publ 2 H_02.wav</name>
						<enabled>TRUE</enabled>
						<duration>171138</duration>
						<rate>
							<timebase>25</timebase>
							<ntsc>FALSE</ntsc>
						</rate>
						<start>24872</start>
						<end>26291</end>
						<in>95789</in>
						<out>97208</out>
						<pproTicksIn>973277544960000</pproTicksIn>
						<pproTicksOut>987695493120000</pproTicksOut>
						<file id="file-60"/>
						<sourcetrack>
							<mediatype>audio</mediatype>
							<trackindex>1</trackindex>
						</sourcetrack>
						<logginginfo>
							<description></description>
							<scene></scene>
							<shottake></shottake>
							<lognote></lognote>
						</logginginfo>
						<labels>
							<label2>Caribbean</label2>
						</labels>
					</clipitem>
					<clipitem id="clipitem-1776" premiereChannelType="mono">
						<masterclipid>masterclip-64</masterclipid>
						<name>Publ 2 H_02.wav</name>
						<enabled>TRUE</enabled>
						<duration>171138</duration>
						<rate>
							<timebase>25</timebase>
							<ntsc>FALSE</ntsc>
						</rate>
						<start>26291</start>
						<end>26387</end>
						<in>97273</in>
						<out>97369</out>
						<pproTicksIn>988355934720000</pproTicksIn>
						<pproTicksOut>989331356160000</pproTicksOut>
						<file id="file-60"/>
						<sourcetrack>
							<mediatype>audio</mediatype>
							<trackindex>1</trackindex>
						</sourcetrack>
						<logginginfo>
							<description></description>
							<scene></scene>
							<shottake></shottake>
							<lognote></lognote>
						</logginginfo>
						<labels>
							<label2>Caribbean</label2>
						</labels>
					</clipitem>
					<clipitem id="clipitem-1777" premiereChannelType="mono">
						<masterclipid>masterclip-64</masterclipid>
						<name>Publ 2 H_02.wav</name>
						<enabled>TRUE</enabled>
						<duration>171138</duration>
						<rate>
							<timebase>25</timebase>
							<ntsc>FALSE</ntsc>
						</rate>
						<start>26387</start>
						<end>27111</end>
						<in>97523</in>
						<out>98247</out>
						<pproTicksIn>990896094720000</pproTicksIn>
						<pproTicksOut>998252398080000</pproTicksOut>
						<file id="file-60"/>
						<sourcetrack>
							<mediatype>audio</mediatype>
							<trackindex>1</trackindex>
						</sourcetrack>
						<logginginfo>
							<description></description>
							<scene></scene>
							<shottake></shottake>
							<lognote></lognote>
						</logginginfo>
						<labels>
							<label2>Caribbean</label2>
						</labels>
					</clipitem>
					<clipitem id="clipitem-1778" premiereChannelType="mono">
						<masterclipid>masterclip-64</masterclipid>
						<name>Publ 2 H_02.wav</name>
						<enabled>TRUE</enabled>
						<duration>171138</duration>
						<rate>
							<timebase>25</timebase>
							<ntsc>FALSE</ntsc>
						</rate>
						<start>27111</start>
						<end>27316</end>
						<in>98260</in>
						<out>98465</out>
						<pproTicksIn>998384486400000</pproTicksIn>
						<pproTicksOut>1000467417600000</pproTicksOut>
						<file id="file-60"/>
						<sourcetrack>
							<mediatype>audio</mediatype>
							<trackindex>1</trackindex>
						</sourcetrack>
						<logginginfo>
							<description></description>
							<scene></scene>
							<shottake></shottake>
							<lognote></lognote>
						</logginginfo>
						<labels>
							<label2>Caribbean</label2>
						</labels>
					</clipitem>
					<clipitem id="clipitem-1779" premiereChannelType="mono">
						<masterclipid>masterclip-64</masterclipid>
						<name>Publ 2 H_02.wav</name>
						<enabled>TRUE</enabled>
						<duration>171138</duration>
						<rate>
							<timebase>25</timebase>
							<ntsc>FALSE</ntsc>
						</rate>
						<start>27316</start>
						<end>27702</end>
						<in>98958</in>
						<out>99344</out>
						<pproTicksIn>1005476613120000</pproTicksIn>
						<pproTicksOut>1009398620160000</pproTicksOut>
						<file id="file-60"/>
						<sourcetrack>
							<mediatype>audio</mediatype>
							<trackindex>1</trackindex>
						</sourcetrack>
						<logginginfo>
							<description></description>
							<scene></scene>
							<shottake></shottake>
							<lognote></lognote>
						</logginginfo>
						<labels>
							<label2>Caribbean</label2>
						</labels>
					</clipitem>
					<clipitem id="clipitem-1780" premiereChannelType="mono">
						<masterclipid>masterclip-64</masterclipid>
						<name>Publ 2 H_02.wav</name>
						<enabled>TRUE</enabled>
						<duration>171138</duration>
						<rate>
							<timebase>25</timebase>
							<ntsc>FALSE</ntsc>
						</rate>
						<start>27702</start>
						<end>27789</end>
						<in>99640</in>
						<out>99727</out>
						<pproTicksIn>1012406169600000</pproTicksIn>
						<pproTicksOut>1013290145280000</pproTicksOut>
						<file id="file-60"/>
						<sourcetrack>
							<mediatype>audio</mediatype>
							<trackindex>1</trackindex>
						</sourcetrack>
						<logginginfo>
							<description></description>
							<scene></scene>
							<shottake></shottake>
							<lognote></lognote>
						</logginginfo>
						<labels>
							<label2>Caribbean</label2>
						</labels>
					</clipitem>
					<clipitem id="clipitem-1781" premiereChannelType="mono">
						<masterclipid>masterclip-64</masterclipid>
						<name>Publ 2 H_02.wav</name>
						<enabled>TRUE</enabled>
						<duration>171138</duration>
						<rate>
							<timebase>25</timebase>
							<ntsc>FALSE</ntsc>
						</rate>
						<start>27789</start>
						<end>29601</end>
						<in>99831</in>
						<out>101643</out>
						<pproTicksIn>1014346851840000</pproTicksIn>
						<pproTicksOut>1032757931520000</pproTicksOut>
						<file id="file-60"/>
						<sourcetrack>
							<mediatype>audio</mediatype>
							<trackindex>1</trackindex>
						</sourcetrack>
						<logginginfo>
							<description></description>
							<scene></scene>
							<shottake></shottake>
							<lognote></lognote>
						</logginginfo>
						<labels>
							<label2>Caribbean</label2>
						</labels>
					</clipitem>
					<clipitem id="clipitem-1782" premiereChannelType="mono">
						<masterclipid>masterclip-64</masterclipid>
						<name>Publ 2 H_02.wav</name>
						<enabled>TRUE</enabled>
						<duration>171138</duration>
						<rate>
							<timebase>25</timebase>
							<ntsc>FALSE</ntsc>
						</rate>
						<start>29601</start>
						<end>29693</end>
						<in>102540</in>
						<out>102632</out>
						<pproTicksIn>1041872025600000</pproTicksIn>
						<pproTicksOut>1042806804480000</pproTicksOut>
						<file id="file-60"/>
						<sourcetrack>
							<mediatype>audio</mediatype>
							<trackindex>1</trackindex>
						</sourcetrack>
						<logginginfo>
							<description></description>
							<scene></scene>
							<shottake></shottake>
							<lognote></lognote>
						</logginginfo>
						<labels>
							<label2>Caribbean</label2>
						</labels>
					</clipitem>
					<clipitem id="clipitem-1783" premiereChannelType="mono">
						<masterclipid>masterclip-64</masterclipid>
						<name>Publ 2 H_02.wav</name>
						<enabled>TRUE</enabled>
						<duration>171138</duration>
						<rate>
							<timebase>25</timebase>
							<ntsc>FALSE</ntsc>
						</rate>
						<start>29693</start>
						<end>29760</end>
						<in>103317</in>
						<out>103384</out>
						<pproTicksIn>1049766842880000</pproTicksIn>
						<pproTicksOut>1050447605760000</pproTicksOut>
						<file id="file-60"/>
						<sourcetrack>
							<mediatype>audio</mediatype>
							<trackindex>1</trackindex>
						</sourcetrack>
						<logginginfo>
							<description></description>
							<scene></scene>
							<shottake></shottake>
							<lognote></lognote>
						</logginginfo>
						<labels>
							<label2>Caribbean</label2>
						</labels>
					</clipitem>
					<clipitem id="clipitem-1784" premiereChannelType="mono">
						<masterclipid>masterclip-64</masterclipid>
						<name>Publ 2 H_02.wav</name>
						<enabled>TRUE</enabled>
						<duration>171138</duration>
						<rate>
							<timebase>25</timebase>
							<ntsc>FALSE</ntsc>
						</rate>
						<start>29760</start>
						<end>29774</end>
						<in>103438</in>
						<out>103452</out>
						<pproTicksIn>1050996280320000</pproTicksIn>
						<pproTicksOut>1051138529280000</pproTicksOut>
						<file id="file-60"/>
						<sourcetrack>
							<mediatype>audio</mediatype>
							<trackindex>1</trackindex>
						</sourcetrack>
						<logginginfo>
							<description></description>
							<scene></scene>
							<shottake></shottake>
							<lognote></lognote>
						</logginginfo>
						<labels>
							<label2>Caribbean</label2>
						</labels>
					</clipitem>
					<clipitem id="clipitem-1785" premiereChannelType="mono">
						<masterclipid>masterclip-64</masterclipid>
						<name>Publ 2 H_02.wav</name>
						<enabled>TRUE</enabled>
						<duration>171138</duration>
						<rate>
							<timebase>25</timebase>
							<ntsc>FALSE</ntsc>
						</rate>
						<start>29774</start>
						<end>29865</end>
						<in>107326</in>
						<out>107417</out>
						<pproTicksIn>1090500848640000</pproTicksIn>
						<pproTicksOut>1091425466880000</pproTicksOut>
						<file id="file-60"/>
						<sourcetrack>
							<mediatype>audio</mediatype>
							<trackindex>1</trackindex>
						</sourcetrack>
						<logginginfo>
							<description></description>
							<scene></scene>
							<shottake></shottake>
							<lognote></lognote>
						</logginginfo>
						<labels>
							<label2>Caribbean</label2>
						</labels>
					</clipitem>
					<clipitem id="clipitem-1786" premiereChannelType="mono">
						<masterclipid>masterclip-64</masterclipid>
						<name>Publ 2 H_02.wav</name>
						<enabled>TRUE</enabled>
						<duration>171138</duration>
						<rate>
							<timebase>25</timebase>
							<ntsc>FALSE</ntsc>
						</rate>
						<start>29865</start>
						<end>30769</end>
						<in>107708</in>
						<out>108612</out>
						<pproTicksIn>1094382213120000</pproTicksIn>
						<pproTicksOut>1103567431680000</pproTicksOut>
						<file id="file-60"/>
						<sourcetrack>
							<mediatype>audio</mediatype>
							<trackindex>1</trackindex>
						</sourcetrack>
						<logginginfo>
							<description></description>
							<scene></scene>
							<shottake></shottake>
							<lognote></lognote>
						</logginginfo>
						<labels>
							<label2>Caribbean</label2>
						</labels>
					</clipitem>
					<clipitem id="clipitem-1787" premiereChannelType="mono">
						<masterclipid>masterclip-64</masterclipid>
						<name>Publ 2 H_02.wav</name>
						<enabled>TRUE</enabled>
						<duration>171138</duration>
						<rate>
							<timebase>25</timebase>
							<ntsc>FALSE</ntsc>
						</rate>
						<start>30769</start>
						<end>30880</end>
						<in>108644</in>
						<out>108755</out>
						<pproTicksIn>1103892572160000</pproTicksIn>
						<pproTicksOut>1105020403200000</pproTicksOut>
						<file id="file-60"/>
						<sourcetrack>
							<mediatype>audio</mediatype>
							<trackindex>1</trackindex>
						</sourcetrack>
						<logginginfo>
							<description></description>
							<scene></scene>
							<shottake></shottake>
							<lognote></lognote>
						</logginginfo>
						<labels>
							<label2>Caribbean</label2>
						</labels>
					</clipitem>
					<clipitem id="clipitem-1788" premiereChannelType="mono">
						<masterclipid>masterclip-64</masterclipid>
						<name>Publ 2 H_02.wav</name>
						<enabled>TRUE</enabled>
						<duration>171138</duration>
						<rate>
							<timebase>25</timebase>
							<ntsc>FALSE</ntsc>
						</rate>
						<start>30880</start>
						<end>31513</end>
						<in>108776</in>
						<out>109409</out>
						<pproTicksIn>1105233776640000</pproTicksIn>
						<pproTicksOut>1111665461760000</pproTicksOut>
						<file id="file-60"/>
						<sourcetrack>
							<mediatype>audio</mediatype>
							<trackindex>1</trackindex>
						</sourcetrack>
						<logginginfo>
							<description></description>
							<scene></scene>
							<shottake></shottake>
							<lognote></lognote>
						</logginginfo>
						<labels>
							<label2>Caribbean</label2>
						</labels>
					</clipitem>
					<clipitem id="clipitem-1789" premiereChannelType="mono">
						<masterclipid>masterclip-64</masterclipid>
						<name>Publ 2 H_02.wav</name>
						<enabled>TRUE</enabled>
						<duration>171138</duration>
						<rate>
							<timebase>25</timebase>
							<ntsc>FALSE</ntsc>
						</rate>
						<start>31513</start>
						<end>31909</end>
						<in>109447</in>
						<out>109843</out>
						<pproTicksIn>1112051566080000</pproTicksIn>
						<pproTicksOut>1116075179520000</pproTicksOut>
						<file id="file-60"/>
						<sourcetrack>
							<mediatype>audio</mediatype>
							<trackindex>1</trackindex>
						</sourcetrack>
						<logginginfo>
							<description></description>
							<scene></scene>
							<shottake></shottake>
							<lognote></lognote>
						</logginginfo>
						<labels>
							<label2>Caribbean</label2>
						</labels>
					</clipitem>
					<clipitem id="clipitem-1790" premiereChannelType="mono">
						<masterclipid>masterclip-64</masterclipid>
						<name>Publ 2 H_02.wav</name>
						<enabled>TRUE</enabled>
						<duration>171138</duration>
						<rate>
							<timebase>25</timebase>
							<ntsc>FALSE</ntsc>
						</rate>
						<start>31909</start>
						<end>32128</end>
						<in>109926</in>
						<out>110145</out>
						<pproTicksIn>1116918512640000</pproTicksIn>
						<pproTicksOut>1119143692800000</pproTicksOut>
						<file id="file-60"/>
						<sourcetrack>
							<mediatype>audio</mediatype>
							<trackindex>1</trackindex>
						</sourcetrack>
						<logginginfo>
							<description></description>
							<scene></scene>
							<shottake></shottake>
							<lognote></lognote>
						</logginginfo>
						<labels>
							<label2>Caribbean</label2>
						</labels>
					</clipitem>
					<clipitem id="clipitem-1791" premiereChannelType="mono">
						<masterclipid>masterclip-64</masterclipid>
						<name>Publ 2 H_02.wav</name>
						<enabled>TRUE</enabled>
						<duration>171138</duration>
						<rate>
							<timebase>25</timebase>
							<ntsc>FALSE</ntsc>
						</rate>
						<start>32128</start>
						<end>32853</end>
						<in>111277</in>
						<out>112002</out>
						<pproTicksIn>1130645537280000</pproTicksIn>
						<pproTicksOut>1138012001280000</pproTicksOut>
						<file id="file-60"/>
						<sourcetrack>
							<mediatype>audio</mediatype>
							<trackindex>1</trackindex>
						</sourcetrack>
						<logginginfo>
							<description></description>
							<scene></scene>
							<shottake></shottake>
							<lognote></lognote>
						</logginginfo>
						<labels>
							<label2>Caribbean</label2>
						</labels>
					</clipitem>
					<clipitem id="clipitem-1792" premiereChannelType="mono">
						<masterclipid>masterclip-64</masterclipid>
						<name>Publ 2 H_02.wav</name>
						<enabled>TRUE</enabled>
						<duration>171138</duration>
						<rate>
							<timebase>25</timebase>
							<ntsc>FALSE</ntsc>
						</rate>
						<start>32853</start>
						<end>32890</end>
						<in>112002</in>
						<out>112039</out>
						<pproTicksIn>1138012001280000</pproTicksIn>
						<pproTicksOut>1138387944960000</pproTicksOut>
						<file id="file-60"/>
						<sourcetrack>
							<mediatype>audio</mediatype>
							<trackindex>1</trackindex>
						</sourcetrack>
						<logginginfo>
							<description></description>
							<scene></scene>
							<shottake></shottake>
							<lognote></lognote>
						</logginginfo>
						<labels>
							<label2>Caribbean</label2>
						</labels>
					</clipitem>
					<clipitem id="clipitem-1793" premiereChannelType="mono">
						<masterclipid>masterclip-64</masterclipid>
						<name>Publ 2 H_02.wav</name>
						<enabled>TRUE</enabled>
						<duration>171138</duration>
						<rate>
							<timebase>25</timebase>
							<ntsc>FALSE</ntsc>
						</rate>
						<start>32890</start>
						<end>33281</end>
						<in>115277</in>
						<out>115668</out>
						<pproTicksIn>1171288097280000</pproTicksIn>
						<pproTicksOut>1175260907520000</pproTicksOut>
						<file id="file-60"/>
						<sourcetrack>
							<mediatype>audio</mediatype>
							<trackindex>1</trackindex>
						</sourcetrack>
						<logginginfo>
							<description></description>
							<scene></scene>
							<shottake></shottake>
							<lognote></lognote>
						</logginginfo>
						<labels>
							<label2>Caribbean</label2>
						</labels>
					</clipitem>
					<clipitem id="clipitem-1794" premiereChannelType="mono">
						<masterclipid>masterclip-64</masterclipid>
						<name>Publ 2 H_02.wav</name>
						<enabled>TRUE</enabled>
						<duration>171138</duration>
						<rate>
							<timebase>25</timebase>
							<ntsc>FALSE</ntsc>
						</rate>
						<start>33281</start>
						<end>33357</end>
						<in>116203</in>
						<out>116279</out>
						<pproTicksIn>1180696849920000</pproTicksIn>
						<pproTicksOut>1181469058560000</pproTicksOut>
						<file id="file-60"/>
						<sourcetrack>
							<mediatype>audio</mediatype>
							<trackindex>1</trackindex>
						</sourcetrack>
						<logginginfo>
							<description></description>
							<scene></scene>
							<shottake></shottake>
							<lognote></lognote>
						</logginginfo>
						<labels>
							<label2>Caribbean</label2>
						</labels>
					</clipitem>
					<clipitem id="clipitem-1795" premiereChannelType="mono">
						<masterclipid>masterclip-64</masterclipid>
						<name>Publ 2 H_02.wav</name>
						<enabled>TRUE</enabled>
						<duration>171138</duration>
						<rate>
							<timebase>25</timebase>
							<ntsc>FALSE</ntsc>
						</rate>
						<start>33357</start>
						<end>33465</end>
						<in>116298</in>
						<out>116406</out>
						<pproTicksIn>1181662110720000</pproTicksIn>
						<pproTicksOut>1182759459840000</pproTicksOut>
						<file id="file-60"/>
						<sourcetrack>
							<mediatype>audio</mediatype>
							<trackindex>1</trackindex>
						</sourcetrack>
						<logginginfo>
							<description></description>
							<scene></scene>
							<shottake></shottake>
							<lognote></lognote>
						</logginginfo>
						<labels>
							<label2>Caribbean</label2>
						</labels>
					</clipitem>
					<clipitem id="clipitem-1796" premiereChannelType="mono">
						<masterclipid>masterclip-64</masterclipid>
						<name>Publ 2 H_02.wav</name>
						<enabled>TRUE</enabled>
						<duration>171138</duration>
						<rate>
							<timebase>25</timebase>
							<ntsc>FALSE</ntsc>
						</rate>
						<start>33465</start>
						<end>33766</end>
						<in>116510</in>
						<out>116811</out>
						<pproTicksIn>1183816166400000</pproTicksIn>
						<pproTicksOut>1186874519040000</pproTicksOut>
						<file id="file-60"/>
						<sourcetrack>
							<mediatype>audio</mediatype>
							<trackindex>1</trackindex>
						</sourcetrack>
						<logginginfo>
							<description></description>
							<scene></scene>
							<shottake></shottake>
							<lognote></lognote>
						</logginginfo>
						<labels>
							<label2>Caribbean</label2>
						</labels>
					</clipitem>
					<clipitem id="clipitem-1797" premiereChannelType="mono">
						<masterclipid>masterclip-64</masterclipid>
						<name>Publ 2 H_02.wav</name>
						<enabled>TRUE</enabled>
						<duration>171138</duration>
						<rate>
							<timebase>25</timebase>
							<ntsc>FALSE</ntsc>
						</rate>
						<start>33766</start>
						<end>33992</end>
						<in>116811</in>
						<out>117037</out>
						<pproTicksIn>1186874519040000</pproTicksIn>
						<pproTicksOut>1189170823680000</pproTicksOut>
						<file id="file-60"/>
						<sourcetrack>
							<mediatype>audio</mediatype>
							<trackindex>1</trackindex>
						</sourcetrack>
						<logginginfo>
							<description></description>
							<scene></scene>
							<shottake></shottake>
							<lognote></lognote>
						</logginginfo>
						<labels>
							<label2>Caribbean</label2>
						</labels>
					</clipitem>
					<clipitem id="clipitem-1798" premiereChannelType="mono">
						<masterclipid>masterclip-64</masterclipid>
						<name>Publ 2 H_02.wav</name>
						<enabled>TRUE</enabled>
						<duration>171138</duration>
						<rate>
							<timebase>25</timebase>
							<ntsc>FALSE</ntsc>
						</rate>
						<start>33992</start>
						<end>34035</end>
						<in>117226</in>
						<out>117269</out>
						<pproTicksIn>1191091184640000</pproTicksIn>
						<pproTicksOut>1191528092160000</pproTicksOut>
						<file id="file-60"/>
						<sourcetrack>
							<mediatype>audio</mediatype>
							<trackindex>1</trackindex>
						</sourcetrack>
						<logginginfo>
							<description></description>
							<scene></scene>
							<shottake></shottake>
							<lognote></lognote>
						</logginginfo>
						<labels>
							<label2>Caribbean</label2>
						</labels>
					</clipitem>
					<clipitem id="clipitem-1799" premiereChannelType="mono">
						<masterclipid>masterclip-64</masterclipid>
						<name>Publ 2 H_02.wav</name>
						<enabled>TRUE</enabled>
						<duration>171138</duration>
						<rate>
							<timebase>25</timebase>
							<ntsc>FALSE</ntsc>
						</rate>
						<start>34035</start>
						<end>34790</end>
						<in>117633</in>
						<out>118388</out>
						<pproTicksIn>1195226565120000</pproTicksIn>
						<pproTicksOut>1202897848320000</pproTicksOut>
						<file id="file-60"/>
						<sourcetrack>
							<mediatype>audio</mediatype>
							<trackindex>1</trackindex>
						</sourcetrack>
						<logginginfo>
							<description></description>
							<scene></scene>
							<shottake></shottake>
							<lognote></lognote>
						</logginginfo>
						<labels>
							<label2>Caribbean</label2>
						</labels>
					</clipitem>
					<clipitem id="clipitem-1800" premiereChannelType="mono">
						<masterclipid>masterclip-64</masterclipid>
						<name>Publ 2 H_02.wav</name>
						<enabled>TRUE</enabled>
						<duration>171138</duration>
						<rate>
							<timebase>25</timebase>
							<ntsc>FALSE</ntsc>
						</rate>
						<start>34790</start>
						<end>35299</end>
						<in>118612</in>
						<out>119121</out>
						<pproTicksIn>1205173831680000</pproTicksIn>
						<pproTicksOut>1210345597440000</pproTicksOut>
						<file id="file-60"/>
						<sourcetrack>
							<mediatype>audio</mediatype>
							<trackindex>1</trackindex>
						</sourcetrack>
						<logginginfo>
							<description></description>
							<scene></scene>
							<shottake></shottake>
							<lognote></lognote>
						</logginginfo>
						<labels>
							<label2>Caribbean</label2>
						</labels>
					</clipitem>
					<clipitem id="clipitem-1801" premiereChannelType="mono">
						<masterclipid>masterclip-64</masterclipid>
						<name>Publ 2 H_02.wav</name>
						<enabled>TRUE</enabled>
						<duration>171138</duration>
						<rate>
							<timebase>25</timebase>
							<ntsc>FALSE</ntsc>
						</rate>
						<start>35299</start>
						<end>35672</end>
						<in>119201</in>
						<out>119574</out>
						<pproTicksIn>1211158448640000</pproTicksIn>
						<pproTicksOut>1214948367360000</pproTicksOut>
						<file id="file-60"/>
						<sourcetrack>
							<mediatype>audio</mediatype>
							<trackindex>1</trackindex>
						</sourcetrack>
						<logginginfo>
							<description></description>
							<scene></scene>
							<shottake></shottake>
							<lognote></lognote>
						</logginginfo>
						<labels>
							<label2>Caribbean</label2>
						</labels>
					</clipitem>
					<clipitem id="clipitem-1802" premiereChannelType="mono">
						<masterclipid>masterclip-64</masterclipid>
						<name>Publ 2 H_02.wav</name>
						<enabled>TRUE</enabled>
						<duration>171138</duration>
						<rate>
							<timebase>25</timebase>
							<ntsc>FALSE</ntsc>
						</rate>
						<start>35672</start>
						<end>36434</end>
						<in>119583</in>
						<out>120345</out>
						<pproTicksIn>1215039813120000</pproTicksIn>
						<pproTicksOut>1222782220800000</pproTicksOut>
						<file id="file-60"/>
						<sourcetrack>
							<mediatype>audio</mediatype>
							<trackindex>1</trackindex>
						</sourcetrack>
						<logginginfo>
							<description></description>
							<scene></scene>
							<shottake></shottake>
							<lognote></lognote>
						</logginginfo>
						<labels>
							<label2>Caribbean</label2>
						</labels>
					</clipitem>
					<clipitem id="clipitem-1803" premiereChannelType="mono">
						<masterclipid>masterclip-64</masterclipid>
						<name>Publ 2 H_02.wav</name>
						<enabled>TRUE</enabled>
						<duration>171138</duration>
						<rate>
							<timebase>25</timebase>
							<ntsc>FALSE</ntsc>
						</rate>
						<start>36434</start>
						<end>36524</end>
						<in>120539</in>
						<out>120629</out>
						<pproTicksIn>1224753384960000</pproTicksIn>
						<pproTicksOut>1225667842560000</pproTicksOut>
						<file id="file-60"/>
						<sourcetrack>
							<mediatype>audio</mediatype>
							<trackindex>1</trackindex>
						</sourcetrack>
						<logginginfo>
							<description></description>
							<scene></scene>
							<shottake></shottake>
							<lognote></lognote>
						</logginginfo>
						<labels>
							<label2>Caribbean</label2>
						</labels>
					</clipitem>
					<clipitem id="clipitem-1804" premiereChannelType="mono">
						<masterclipid>masterclip-64</masterclipid>
						<name>Publ 2 H_02.wav</name>
						<enabled>TRUE</enabled>
						<duration>171138</duration>
						<rate>
							<timebase>25</timebase>
							<ntsc>FALSE</ntsc>
						</rate>
						<start>36524</start>
						<end>37155</end>
						<in>124899</in>
						<out>125530</out>
						<pproTicksIn>1269053775360000</pproTicksIn>
						<pproTicksOut>1275465139200000</pproTicksOut>
						<file id="file-60"/>
						<sourcetrack>
							<mediatype>audio</mediatype>
							<trackindex>1</trackindex>
						</sourcetrack>
						<logginginfo>
							<description></description>
							<scene></scene>
							<shottake></shottake>
							<lognote></lognote>
						</logginginfo>
						<labels>
							<label2>Caribbean</label2>
						</labels>
					</clipitem>
					<clipitem id="clipitem-1805" premiereChannelType="mono">
						<masterclipid>masterclip-64</masterclipid>
						<name>Publ 2 H_02.wav</name>
						<enabled>TRUE</enabled>
						<duration>171138</duration>
						<rate>
							<timebase>25</timebase>
							<ntsc>FALSE</ntsc>
						</rate>
						<start>37732</start>
						<end>40503</end>
						<in>126107</in>
						<out>128878</out>
						<pproTicksIn>1281327828480000</pproTicksIn>
						<pproTicksOut>1309482961920000</pproTicksOut>
						<file id="file-60"/>
						<sourcetrack>
							<mediatype>audio</mediatype>
							<trackindex>1</trackindex>
						</sourcetrack>
						<logginginfo>
							<description></description>
							<scene></scene>
							<shottake></shottake>
							<lognote></lognote>
						</logginginfo>
						<labels>
							<label2>Caribbean</label2>
						</labels>
					</clipitem>
					<clipitem id="clipitem-1806" premiereChannelType="mono">
						<masterclipid>masterclip-64</masterclipid>
						<name>Publ 2 H_02.wav</name>
						<enabled>TRUE</enabled>
						<duration>171138</duration>
						<rate>
							<timebase>25</timebase>
							<ntsc>FALSE</ntsc>
						</rate>
						<start>40503</start>
						<end>40839</end>
						<in>128926</in>
						<out>129262</out>
						<pproTicksIn>1309970672640000</pproTicksIn>
						<pproTicksOut>1313384647680000</pproTicksOut>
						<file id="file-60"/>
						<sourcetrack>
							<mediatype>audio</mediatype>
							<trackindex>1</trackindex>
						</sourcetrack>
						<logginginfo>
							<description></description>
							<scene></scene>
							<shottake></shottake>
							<lognote></lognote>
						</logginginfo>
						<labels>
							<label2>Caribbean</label2>
						</labels>
					</clipitem>
					<clipitem id="clipitem-1807" premiereChannelType="mono">
						<masterclipid>masterclip-64</masterclipid>
						<name>Publ 2 H_02.wav</name>
						<enabled>TRUE</enabled>
						<duration>171138</duration>
						<rate>
							<timebase>25</timebase>
							<ntsc>FALSE</ntsc>
						</rate>
						<start>40839</start>
						<end>41006</end>
						<in>129262</in>
						<out>129429</out>
						<pproTicksIn>1313384647680000</pproTicksIn>
						<pproTicksOut>1315081474560000</pproTicksOut>
						<file id="file-60"/>
						<sourcetrack>
							<mediatype>audio</mediatype>
							<trackindex>1</trackindex>
						</sourcetrack>
						<logginginfo>
							<description></description>
							<scene></scene>
							<shottake></shottake>
							<lognote></lognote>
						</logginginfo>
						<labels>
							<label2>Caribbean</label2>
						</labels>
					</clipitem>
					<clipitem id="clipitem-1808" premiereChannelType="mono">
						<masterclipid>masterclip-64</masterclipid>
						<name>Publ 2 H_02.wav</name>
						<enabled>TRUE</enabled>
						<duration>171138</duration>
						<rate>
							<timebase>25</timebase>
							<ntsc>FALSE</ntsc>
						</rate>
						<start>41006</start>
						<end>41144</end>
						<in>129476</in>
						<out>129614</out>
						<pproTicksIn>1315559024640000</pproTicksIn>
						<pproTicksOut>1316961192960000</pproTicksOut>
						<file id="file-60"/>
						<sourcetrack>
							<mediatype>audio</mediatype>
							<trackindex>1</trackindex>
						</sourcetrack>
						<logginginfo>
							<description></description>
							<scene></scene>
							<shottake></shottake>
							<lognote></lognote>
						</logginginfo>
						<labels>
							<label2>Caribbean</label2>
						</labels>
					</clipitem>
					<clipitem id="clipitem-1809" premiereChannelType="mono">
						<masterclipid>masterclip-64</masterclipid>
						<name>Publ 2 H_02.wav</name>
						<enabled>TRUE</enabled>
						<duration>171138</duration>
						<rate>
							<timebase>25</timebase>
							<ntsc>FALSE</ntsc>
						</rate>
						<start>41144</start>
						<end>41720</end>
						<in>131417</in>
						<out>131993</out>
						<pproTicksIn>1335280826880000</pproTicksIn>
						<pproTicksOut>1341133355520000</pproTicksOut>
						<file id="file-60"/>
						<sourcetrack>
							<mediatype>audio</mediatype>
							<trackindex>1</trackindex>
						</sourcetrack>
						<logginginfo>
							<description></description>
							<scene></scene>
							<shottake></shottake>
							<lognote></lognote>
						</logginginfo>
						<labels>
							<label2>Caribbean</label2>
						</labels>
					</clipitem>
					<clipitem id="clipitem-1810" premiereChannelType="mono">
						<masterclipid>masterclip-64</masterclipid>
						<name>Publ 2 H_02.wav</name>
						<enabled>TRUE</enabled>
						<duration>171138</duration>
						<rate>
							<timebase>25</timebase>
							<ntsc>FALSE</ntsc>
						</rate>
						<start>41720</start>
						<end>42122</end>
						<in>132051</in>
						<out>132453</out>
						<pproTicksIn>1341722672640000</pproTicksIn>
						<pproTicksOut>1345807249920000</pproTicksOut>
						<file id="file-60"/>
						<sourcetrack>
							<mediatype>audio</mediatype>
							<trackindex>1</trackindex>
						</sourcetrack>
						<logginginfo>
							<description></description>
							<scene></scene>
							<shottake></shottake>
							<lognote></lognote>
						</logginginfo>
						<labels>
							<label2>Caribbean</label2>
						</labels>
					</clipitem>
					<clipitem id="clipitem-1811" premiereChannelType="mono">
						<masterclipid>masterclip-64</masterclipid>
						<name>Publ 2 H_02.wav</name>
						<enabled>TRUE</enabled>
						<duration>171138</duration>
						<rate>
							<timebase>25</timebase>
							<ntsc>FALSE</ntsc>
						</rate>
						<start>42122</start>
						<end>42277</end>
						<in>132657</in>
						<out>132812</out>
						<pproTicksIn>1347880020480000</pproTicksIn>
						<pproTicksOut>1349454919680000</pproTicksOut>
						<file id="file-60"/>
						<sourcetrack>
							<mediatype>audio</mediatype>
							<trackindex>1</trackindex>
						</sourcetrack>
						<logginginfo>
							<description></description>
							<scene></scene>
							<shottake></shottake>
							<lognote></lognote>
						</logginginfo>
						<labels>
							<label2>Caribbean</label2>
						</labels>
					</clipitem>
					<clipitem id="clipitem-1812" premiereChannelType="mono">
						<masterclipid>masterclip-64</masterclipid>
						<name>Publ 2 H_02.wav</name>
						<enabled>TRUE</enabled>
						<duration>171138</duration>
						<rate>
							<timebase>25</timebase>
							<ntsc>FALSE</ntsc>
						</rate>
						<start>42277</start>
						<end>42347</end>
						<in>133359</in>
						<out>133429</out>
						<pproTicksIn>1355012789760000</pproTicksIn>
						<pproTicksOut>1355724034560000</pproTicksOut>
						<file id="file-60"/>
						<sourcetrack>
							<mediatype>audio</mediatype>
							<trackindex>1</trackindex>
						</sourcetrack>
						<logginginfo>
							<description></description>
							<scene></scene>
							<shottake></shottake>
							<lognote></lognote>
						</logginginfo>
						<labels>
							<label2>Caribbean</label2>
						</labels>
					</clipitem>
					<clipitem id="clipitem-1813" premiereChannelType="mono">
						<masterclipid>masterclip-64</masterclipid>
						<name>Publ 2 H_02.wav</name>
						<enabled>TRUE</enabled>
						<duration>171138</duration>
						<rate>
							<timebase>25</timebase>
							<ntsc>FALSE</ntsc>
						</rate>
						<start>42347</start>
						<end>42499</end>
						<in>133852</in>
						<out>134004</out>
						<pproTicksIn>1360021985280000</pproTicksIn>
						<pproTicksOut>1361566402560000</pproTicksOut>
						<file id="file-60"/>
						<sourcetrack>
							<mediatype>audio</mediatype>
							<trackindex>1</trackindex>
						</sourcetrack>
						<logginginfo>
							<description></description>
							<scene></scene>
							<shottake></shottake>
							<lognote></lognote>
						</logginginfo>
						<labels>
							<label2>Caribbean</label2>
						</labels>
					</clipitem>
					<clipitem id="clipitem-1814" premiereChannelType="mono">
						<masterclipid>masterclip-64</masterclipid>
						<name>Publ 2 H_02.wav</name>
						<enabled>TRUE</enabled>
						<duration>171138</duration>
						<rate>
							<timebase>25</timebase>
							<ntsc>FALSE</ntsc>
						</rate>
						<start>42499</start>
						<end>42832</end>
						<in>134099</in>
						<out>134432</out>
						<pproTicksIn>1362531663360000</pproTicksIn>
						<pproTicksOut>1365915156480000</pproTicksOut>
						<file id="file-60"/>
						<sourcetrack>
							<mediatype>audio</mediatype>
							<trackindex>1</trackindex>
						</sourcetrack>
						<logginginfo>
							<description></description>
							<scene></scene>
							<shottake></shottake>
							<lognote></lognote>
						</logginginfo>
						<labels>
							<label2>Caribbean</label2>
						</labels>
					</clipitem>
					<clipitem id="clipitem-1815" premiereChannelType="mono">
						<masterclipid>masterclip-64</masterclipid>
						<name>Publ 2 H_02.wav</name>
						<enabled>TRUE</enabled>
						<duration>171138</duration>
						<rate>
							<timebase>25</timebase>
							<ntsc>FALSE</ntsc>
						</rate>
						<start>42832</start>
						<end>43282</end>
						<in>134992</in>
						<out>135442</out>
						<pproTicksIn>1371605114880000</pproTicksIn>
						<pproTicksOut>1376177402880000</pproTicksOut>
						<file id="file-60"/>
						<sourcetrack>
							<mediatype>audio</mediatype>
							<trackindex>1</trackindex>
						</sourcetrack>
						<logginginfo>
							<description></description>
							<scene></scene>
							<shottake></shottake>
							<lognote></lognote>
						</logginginfo>
						<labels>
							<label2>Caribbean</label2>
						</labels>
					</clipitem>
					<clipitem id="clipitem-1816" premiereChannelType="mono">
						<masterclipid>masterclip-64</masterclipid>
						<name>Publ 2 H_02.wav</name>
						<enabled>TRUE</enabled>
						<duration>171138</duration>
						<rate>
							<timebase>25</timebase>
							<ntsc>FALSE</ntsc>
						</rate>
						<start>43282</start>
						<end>43553</end>
						<in>135648</in>
						<out>135919</out>
						<pproTicksIn>1378270494720000</pproTicksIn>
						<pproTicksOut>1381024028160000</pproTicksOut>
						<file id="file-60"/>
						<sourcetrack>
							<mediatype>audio</mediatype>
							<trackindex>1</trackindex>
						</sourcetrack>
						<logginginfo>
							<description></description>
							<scene></scene>
							<shottake></shottake>
							<lognote></lognote>
						</logginginfo>
						<labels>
							<label2>Caribbean</label2>
						</labels>
					</clipitem>
					<clipitem id="clipitem-1817" premiereChannelType="mono">
						<masterclipid>masterclip-64</masterclipid>
						<name>Publ 2 H_02.wav</name>
						<enabled>TRUE</enabled>
						<duration>171138</duration>
						<rate>
							<timebase>25</timebase>
							<ntsc>FALSE</ntsc>
						</rate>
						<start>43553</start>
						<end>44385</end>
						<in>136003</in>
						<out>136835</out>
						<pproTicksIn>1381877521920000</pproTicksIn>
						<pproTicksOut>1390331174400000</pproTicksOut>
						<file id="file-60"/>
						<sourcetrack>
							<mediatype>audio</mediatype>
							<trackindex>1</trackindex>
						</sourcetrack>
						<logginginfo>
							<description></description>
							<scene></scene>
							<shottake></shottake>
							<lognote></lognote>
						</logginginfo>
						<labels>
							<label2>Caribbean</label2>
						</labels>
					</clipitem>
					<clipitem id="clipitem-1818" premiereChannelType="mono">
						<masterclipid>masterclip-64</masterclipid>
						<name>Publ 2 H_02.wav</name>
						<enabled>TRUE</enabled>
						<duration>171138</duration>
						<rate>
							<timebase>25</timebase>
							<ntsc>FALSE</ntsc>
						</rate>
						<start>44385</start>
						<end>44583</end>
						<in>137077</in>
						<out>137275</out>
						<pproTicksIn>1392790049280000</pproTicksIn>
						<pproTicksOut>1394801856000000</pproTicksOut>
						<file id="file-60"/>
						<sourcetrack>
							<mediatype>audio</mediatype>
							<trackindex>1</trackindex>
						</sourcetrack>
						<logginginfo>
							<description></description>
							<scene></scene>
							<shottake></shottake>
							<lognote></lognote>
						</logginginfo>
						<labels>
							<label2>Caribbean</label2>
						</labels>
					</clipitem>
					<clipitem id="clipitem-1819" premiereChannelType="mono">
						<masterclipid>masterclip-64</masterclipid>
						<name>Publ 2 H_02.wav</name>
						<enabled>TRUE</enabled>
						<duration>171138</duration>
						<rate>
							<timebase>25</timebase>
							<ntsc>FALSE</ntsc>
						</rate>
						<start>44583</start>
						<end>44650</end>
						<in>137376</in>
						<out>137443</out>
						<pproTicksIn>1395828080640000</pproTicksIn>
						<pproTicksOut>1396508843520000</pproTicksOut>
						<file id="file-60"/>
						<sourcetrack>
							<mediatype>audio</mediatype>
							<trackindex>1</trackindex>
						</sourcetrack>
						<logginginfo>
							<description></description>
							<scene></scene>
							<shottake></shottake>
							<lognote></lognote>
						</logginginfo>
						<labels>
							<label2>Caribbean</label2>
						</labels>
					</clipitem>
					<clipitem id="clipitem-1820" premiereChannelType="mono">
						<masterclipid>masterclip-64</masterclipid>
						<name>Publ 2 H_02.wav</name>
						<enabled>TRUE</enabled>
						<duration>171138</duration>
						<rate>
							<timebase>25</timebase>
							<ntsc>FALSE</ntsc>
						</rate>
						<start>44650</start>
						<end>45287</end>
						<in>137505</in>
						<out>138142</out>
						<pproTicksIn>1397138803200000</pproTicksIn>
						<pproTicksOut>1403611130880000</pproTicksOut>
						<file id="file-60"/>
						<sourcetrack>
							<mediatype>audio</mediatype>
							<trackindex>1</trackindex>
						</sourcetrack>
						<logginginfo>
							<description></description>
							<scene></scene>
							<shottake></shottake>
							<lognote></lognote>
						</logginginfo>
						<labels>
							<label2>Caribbean</label2>
						</labels>
					</clipitem>
					<clipitem id="clipitem-1821" premiereChannelType="mono">
						<masterclipid>masterclip-64</masterclipid>
						<name>Publ 2 H_02.wav</name>
						<enabled>TRUE</enabled>
						<duration>171138</duration>
						<rate>
							<timebase>25</timebase>
							<ntsc>FALSE</ntsc>
						</rate>
						<start>45287</start>
						<end>45692</end>
						<in>138274</in>
						<out>138679</out>
						<pproTicksIn>1404952335360000</pproTicksIn>
						<pproTicksOut>1409067394560000</pproTicksOut>
						<file id="file-60"/>
						<sourcetrack>
							<mediatype>audio</mediatype>
							<trackindex>1</trackindex>
						</sourcetrack>
						<logginginfo>
							<description></description>
							<scene></scene>
							<shottake></shottake>
							<lognote></lognote>
						</logginginfo>
						<labels>
							<label2>Caribbean</label2>
						</labels>
					</clipitem>
					<clipitem id="clipitem-1822" premiereChannelType="mono">
						<masterclipid>masterclip-64</masterclipid>
						<name>Publ 2 H_02.wav</name>
						<enabled>TRUE</enabled>
						<duration>171138</duration>
						<rate>
							<timebase>25</timebase>
							<ntsc>FALSE</ntsc>
						</rate>
						<start>45692</start>
						<end>45923</end>
						<in>138810</in>
						<out>139041</out>
						<pproTicksIn>1410398438400000</pproTicksIn>
						<pproTicksOut>1412745546240000</pproTicksOut>
						<file id="file-60"/>
						<sourcetrack>
							<mediatype>audio</mediatype>
							<trackindex>1</trackindex>
						</sourcetrack>
						<logginginfo>
							<description></description>
							<scene></scene>
							<shottake></shottake>
							<lognote></lognote>
						</logginginfo>
						<labels>
							<label2>Caribbean</label2>
						</labels>
					</clipitem>
					<clipitem id="clipitem-1823" premiereChannelType="mono">
						<masterclipid>masterclip-64</masterclipid>
						<name>Publ 2 H_02.wav</name>
						<enabled>TRUE</enabled>
						<duration>171138</duration>
						<rate>
							<timebase>25</timebase>
							<ntsc>FALSE</ntsc>
						</rate>
						<start>45923</start>
						<end>46349</end>
						<in>139073</in>
						<out>139499</out>
						<pproTicksIn>1413070686720000</pproTicksIn>
						<pproTicksOut>1417399119360000</pproTicksOut>
						<file id="file-60"/>
						<sourcetrack>
							<mediatype>audio</mediatype>
							<trackindex>1</trackindex>
						</sourcetrack>
						<logginginfo>
							<description></description>
							<scene></scene>
							<shottake></shottake>
							<lognote></lognote>
						</logginginfo>
						<labels>
							<label2>Caribbean</label2>
						</labels>
					</clipitem>
					<clipitem id="clipitem-1824" premiereChannelType="mono">
						<masterclipid>masterclip-64</masterclipid>
						<name>Publ 2 H_02.wav</name>
						<enabled>TRUE</enabled>
						<duration>171138</duration>
						<rate>
							<timebase>25</timebase>
							<ntsc>FALSE</ntsc>
						</rate>
						<start>46349</start>
						<end>46455</end>
						<in>159642</in>
						<out>159748</out>
						<pproTicksIn>1622064890880000</pproTicksIn>
						<pproTicksOut>1623141918720000</pproTicksOut>
						<file id="file-60"/>
						<sourcetrack>
							<mediatype>audio</mediatype>
							<trackindex>1</trackindex>
						</sourcetrack>
						<logginginfo>
							<description></description>
							<scene></scene>
							<shottake></shottake>
							<lognote></lognote>
						</logginginfo>
						<labels>
							<label2>Caribbean</label2>
						</labels>
					</clipitem>
					<clipitem id="clipitem-1825" premiereChannelType="mono">
						<masterclipid>masterclip-64</masterclipid>
						<name>Publ 2 H_02.wav</name>
						<enabled>TRUE</enabled>
						<duration>171138</duration>
						<rate>
							<timebase>25</timebase>
							<ntsc>FALSE</ntsc>
						</rate>
						<start>46455</start>
						<end>46911</end>
						<in>140048</in>
						<out>140504</out>
						<pproTicksIn>1422977310720000</pproTicksIn>
						<pproTicksOut>1427610562560000</pproTicksOut>
						<file id="file-60"/>
						<sourcetrack>
							<mediatype>audio</mediatype>
							<trackindex>1</trackindex>
						</sourcetrack>
						<logginginfo>
							<description></description>
							<scene></scene>
							<shottake></shottake>
							<lognote></lognote>
						</logginginfo>
						<labels>
							<label2>Caribbean</label2>
						</labels>
					</clipitem>
					<clipitem id="clipitem-1826" premiereChannelType="mono">
						<masterclipid>masterclip-64</masterclipid>
						<name>Publ 2 H_02.wav</name>
						<enabled>TRUE</enabled>
						<duration>171138</duration>
						<rate>
							<timebase>25</timebase>
							<ntsc>FALSE</ntsc>
						</rate>
						<start>46911</start>
						<end>47138</end>
						<in>140817</in>
						<out>141044</out>
						<pproTicksIn>1430790842880000</pproTicksIn>
						<pproTicksOut>1433097308160000</pproTicksOut>
						<file id="file-60"/>
						<sourcetrack>
							<mediatype>audio</mediatype>
							<trackindex>1</trackindex>
						</sourcetrack>
						<logginginfo>
							<description></description>
							<scene></scene>
							<shottake></shottake>
							<lognote></lognote>
						</logginginfo>
						<labels>
							<label2>Caribbean</label2>
						</labels>
					</clipitem>
					<clipitem id="clipitem-1827" premiereChannelType="mono">
						<masterclipid>masterclip-64</masterclipid>
						<name>Publ 2 H_02.wav</name>
						<enabled>TRUE</enabled>
						<duration>171138</duration>
						<rate>
							<timebase>25</timebase>
							<ntsc>FALSE</ntsc>
						</rate>
						<start>47138</start>
						<end>47335</end>
						<in>141203</in>
						<out>141400</out>
						<pproTicksIn>1434712849920000</pproTicksIn>
						<pproTicksOut>1436714496000000</pproTicksOut>
						<file id="file-60"/>
						<sourcetrack>
							<mediatype>audio</mediatype>
							<trackindex>1</trackindex>
						</sourcetrack>
						<logginginfo>
							<description></description>
							<scene></scene>
							<shottake></shottake>
							<lognote></lognote>
						</logginginfo>
						<labels>
							<label2>Caribbean</label2>
						</labels>
					</clipitem>
					<clipitem id="clipitem-1828" premiereChannelType="mono">
						<masterclipid>masterclip-64</masterclipid>
						<name>Publ 2 H_02.wav</name>
						<enabled>TRUE</enabled>
						<duration>171138</duration>
						<rate>
							<timebase>25</timebase>
							<ntsc>FALSE</ntsc>
						</rate>
						<start>47335</start>
						<end>47513</end>
						<in>141454</in>
						<out>141632</out>
						<pproTicksIn>1437263170560000</pproTicksIn>
						<pproTicksOut>1439071764480000</pproTicksOut>
						<file id="file-60"/>
						<sourcetrack>
							<mediatype>audio</mediatype>
							<trackindex>1</trackindex>
						</sourcetrack>
						<logginginfo>
							<description></description>
							<scene></scene>
							<shottake></shottake>
							<lognote></lognote>
						</logginginfo>
						<labels>
							<label2>Caribbean</label2>
						</labels>
					</clipitem>
					<clipitem id="clipitem-1829" premiereChannelType="mono">
						<masterclipid>masterclip-64</masterclipid>
						<name>Publ 2 H_02.wav</name>
						<enabled>TRUE</enabled>
						<duration>171138</duration>
						<rate>
							<timebase>25</timebase>
							<ntsc>FALSE</ntsc>
						</rate>
						<start>47513</start>
						<end>47723</end>
						<in>141671</in>
						<out>141881</out>
						<pproTicksIn>1439468029440000</pproTicksIn>
						<pproTicksOut>1441601763840000</pproTicksOut>
						<file id="file-60"/>
						<sourcetrack>
							<mediatype>audio</mediatype>
							<trackindex>1</trackindex>
						</sourcetrack>
						<logginginfo>
							<description></description>
							<scene></scene>
							<shottake></shottake>
							<lognote></lognote>
						</logginginfo>
						<labels>
							<label2>Caribbean</label2>
						</labels>
					</clipitem>
					<clipitem id="clipitem-1830" premiereChannelType="mono">
						<masterclipid>masterclip-64</masterclipid>
						<name>Publ 2 H_02.wav</name>
						<enabled>TRUE</enabled>
						<duration>171138</duration>
						<rate>
							<timebase>25</timebase>
							<ntsc>FALSE</ntsc>
						</rate>
						<start>47723</start>
						<end>48040</end>
						<in>141894</in>
						<out>142211</out>
						<pproTicksIn>1441733852160000</pproTicksIn>
						<pproTicksOut>1444954775040000</pproTicksOut>
						<file id="file-60"/>
						<sourcetrack>
							<mediatype>audio</mediatype>
							<trackindex>1</trackindex>
						</sourcetrack>
						<logginginfo>
							<description></description>
							<scene></scene>
							<shottake></shottake>
							<lognote></lognote>
						</logginginfo>
						<labels>
							<label2>Caribbean</label2>
						</labels>
					</clipitem>
					<clipitem id="clipitem-1831" premiereChannelType="mono">
						<masterclipid>masterclip-64</masterclipid>
						<name>Publ 2 H_02.wav</name>
						<enabled>TRUE</enabled>
						<duration>171138</duration>
						<rate>
							<timebase>25</timebase>
							<ntsc>FALSE</ntsc>
						</rate>
						<start>48040</start>
						<end>48766</end>
						<in>142351</in>
						<out>143077</out>
						<pproTicksIn>1446377264640000</pproTicksIn>
						<pproTicksOut>1453753889280000</pproTicksOut>
						<file id="file-60"/>
						<sourcetrack>
							<mediatype>audio</mediatype>
							<trackindex>1</trackindex>
						</sourcetrack>
						<logginginfo>
							<description></description>
							<scene></scene>
							<shottake></shottake>
							<lognote></lognote>
						</logginginfo>
						<labels>
							<label2>Caribbean</label2>
						</labels>
					</clipitem>
					<clipitem id="clipitem-1832" premiereChannelType="mono">
						<masterclipid>masterclip-64</masterclipid>
						<name>Publ 2 H_02.wav</name>
						<enabled>TRUE</enabled>
						<duration>171138</duration>
						<rate>
							<timebase>25</timebase>
							<ntsc>FALSE</ntsc>
						</rate>
						<start>48766</start>
						<end>49706</end>
						<in>143684</in>
						<out>144624</out>
						<pproTicksIn>1459921397760000</pproTicksIn>
						<pproTicksOut>1469472399360000</pproTicksOut>
						<file id="file-60"/>
						<sourcetrack>
							<mediatype>audio</mediatype>
							<trackindex>1</trackindex>
						</sourcetrack>
						<logginginfo>
							<description></description>
							<scene></scene>
							<shottake></shottake>
							<lognote></lognote>
						</logginginfo>
						<labels>
							<label2>Caribbean</label2>
						</labels>
					</clipitem>
					<clipitem id="clipitem-1833" premiereChannelType="mono">
						<masterclipid>masterclip-64</masterclipid>
						<name>Publ 2 H_02.wav</name>
						<enabled>TRUE</enabled>
						<duration>171138</duration>
						<rate>
							<timebase>25</timebase>
							<ntsc>FALSE</ntsc>
						</rate>
						<start>49706</start>
						<end>49762</end>
						<in>147186</in>
						<out>147242</out>
						<pproTicksIn>1495503959040000</pproTicksIn>
						<pproTicksOut>1496072954880000</pproTicksOut>
						<file id="file-60"/>
						<sourcetrack>
							<mediatype>audio</mediatype>
							<trackindex>1</trackindex>
						</sourcetrack>
						<logginginfo>
							<description></description>
							<scene></scene>
							<shottake></shottake>
							<lognote></lognote>
						</logginginfo>
						<labels>
							<label2>Caribbean</label2>
						</labels>
					</clipitem>
					<clipitem id="clipitem-1834" premiereChannelType="mono">
						<masterclipid>masterclip-64</masterclipid>
						<name>Publ 2 H_02.wav</name>
						<enabled>TRUE</enabled>
						<duration>171138</duration>
						<rate>
							<timebase>25</timebase>
							<ntsc>FALSE</ntsc>
						</rate>
						<start>49762</start>
						<end>49948</end>
						<in>153681</in>
						<out>153867</out>
						<pproTicksIn>1561497315840000</pproTicksIn>
						<pproTicksOut>1563387194880000</pproTicksOut>
						<file id="file-60"/>
						<sourcetrack>
							<mediatype>audio</mediatype>
							<trackindex>1</trackindex>
						</sourcetrack>
						<logginginfo>
							<description></description>
							<scene></scene>
							<shottake></shottake>
							<lognote></lognote>
						</logginginfo>
						<labels>
							<label2>Caribbean</label2>
						</labels>
					</clipitem>
					<clipitem id="clipitem-1835" premiereChannelType="mono">
						<masterclipid>masterclip-64</masterclipid>
						<name>Publ 2 H_02.wav</name>
						<enabled>TRUE</enabled>
						<duration>171138</duration>
						<rate>
							<timebase>25</timebase>
							<ntsc>FALSE</ntsc>
						</rate>
						<start>49948</start>
						<end>50390</end>
						<in>153946</in>
						<out>154388</out>
						<pproTicksIn>1564189885440000</pproTicksIn>
						<pproTicksOut>1568680888320000</pproTicksOut>
						<file id="file-60"/>
						<sourcetrack>
							<mediatype>audio</mediatype>
							<trackindex>1</trackindex>
						</sourcetrack>
						<logginginfo>
							<description></description>
							<scene></scene>
							<shottake></shottake>
							<lognote></lognote>
						</logginginfo>
						<labels>
							<label2>Caribbean</label2>
						</labels>
					</clipitem>
					<clipitem id="clipitem-1836" premiereChannelType="mono">
						<masterclipid>masterclip-64</masterclipid>
						<name>Publ 2 H_02.wav</name>
						<enabled>TRUE</enabled>
						<duration>171138</duration>
						<rate>
							<timebase>25</timebase>
							<ntsc>FALSE</ntsc>
						</rate>
						<start>50390</start>
						<end>50983</end>
						<in>156215</in>
						<out>156808</out>
						<pproTicksIn>1587244377600000</pproTicksIn>
						<pproTicksOut>1593269637120000</pproTicksOut>
						<file id="file-60"/>
						<sourcetrack>
							<mediatype>audio</mediatype>
							<trackindex>1</trackindex>
						</sourcetrack>
						<logginginfo>
							<description></description>
							<scene></scene>
							<shottake></shottake>
							<lognote></lognote>
						</logginginfo>
						<labels>
							<label2>Caribbean</label2>
						</labels>
					</clipitem>
					<clipitem id="clipitem-1837" premiereChannelType="mono">
						<masterclipid>masterclip-64</masterclipid>
						<name>Publ 2 H_02.wav</name>
						<enabled>TRUE</enabled>
						<duration>171138</duration>
						<rate>
							<timebase>25</timebase>
							<ntsc>FALSE</ntsc>
						</rate>
						<start>50983</start>
						<end>53597</end>
						<in>157028</in>
						<out>159642</out>
						<pproTicksIn>1595504977920000</pproTicksIn>
						<pproTicksOut>1622064890880000</pproTicksOut>
						<file id="file-60"/>
						<sourcetrack>
							<mediatype>audio</mediatype>
							<trackindex>1</trackindex>
						</sourcetrack>
						<logginginfo>
							<description></description>
							<scene></scene>
							<shottake></shottake>
							<lognote></lognote>
						</logginginfo>
						<labels>
							<label2>Caribbean</label2>
						</labels>
					</clipitem>
					<clipitem id="clipitem-1838" premiereChannelType="mono">
						<masterclipid>masterclip-64</masterclipid>
						<name>Publ 2 H_02.wav</name>
						<enabled>TRUE</enabled>
						<duration>171138</duration>
						<rate>
							<timebase>25</timebase>
							<ntsc>FALSE</ntsc>
						</rate>
						<start>53597</start>
						<end>53636</end>
						<in>160568</in>
						<out>160607</out>
						<pproTicksIn>1631473643520000</pproTicksIn>
						<pproTicksOut>1631869908480000</pproTicksOut>
						<file id="file-60"/>
						<sourcetrack>
							<mediatype>audio</mediatype>
							<trackindex>1</trackindex>
						</sourcetrack>
						<logginginfo>
							<description></description>
							<scene></scene>
							<shottake></shottake>
							<lognote></lognote>
						</logginginfo>
						<labels>
							<label2>Caribbean</label2>
						</labels>
					</clipitem>
					<clipitem id="clipitem-1839" premiereChannelType="mono">
						<masterclipid>masterclip-64</masterclipid>
						<name>Publ 2 H_02.wav</name>
						<enabled>TRUE</enabled>
						<duration>171138</duration>
						<rate>
							<timebase>25</timebase>
							<ntsc>FALSE</ntsc>
						</rate>
						<start>53636</start>
						<end>55369</end>
						<in>161146</in>
						<out>162879</out>
						<pproTicksIn>1637346493440000</pproTicksIn>
						<pproTicksOut>1654954882560000</pproTicksOut>
						<file id="file-60"/>
						<sourcetrack>
							<mediatype>audio</mediatype>
							<trackindex>1</trackindex>
						</sourcetrack>
						<logginginfo>
							<description></description>
							<scene></scene>
							<shottake></shottake>
							<lognote></lognote>
						</logginginfo>
						<labels>
							<label2>Caribbean</label2>
						</labels>
					</clipitem>
					<clipitem id="clipitem-1840" premiereChannelType="mono">
						<masterclipid>masterclip-64</masterclipid>
						<name>Publ 2 H_02.wav</name>
						<enabled>TRUE</enabled>
						<duration>171138</duration>
						<rate>
							<timebase>25</timebase>
							<ntsc>FALSE</ntsc>
						</rate>
						<start>55369</start>
						<end>55449</end>
						<in>162899</in>
						<out>162979</out>
						<pproTicksIn>1655158095360000</pproTicksIn>
						<pproTicksOut>1655970946560000</pproTicksOut>
						<file id="file-60"/>
						<sourcetrack>
							<mediatype>audio</mediatype>
							<trackindex>1</trackindex>
						</sourcetrack>
						<logginginfo>
							<description></description>
							<scene></scene>
							<shottake></shottake>
							<lognote></lognote>
						</logginginfo>
						<labels>
							<label2>Caribbean</label2>
						</labels>
					</clipitem>
					<clipitem id="clipitem-1841" premiereChannelType="mono">
						<masterclipid>masterclip-64</masterclipid>
						<name>Publ 2 H_02.wav</name>
						<enabled>TRUE</enabled>
						<duration>171138</duration>
						<rate>
							<timebase>25</timebase>
							<ntsc>FALSE</ntsc>
						</rate>
						<start>55449</start>
						<end>55738</end>
						<in>163146</in>
						<out>163435</out>
						<pproTicksIn>1657667773440000</pproTicksIn>
						<pproTicksOut>1660604198400000</pproTicksOut>
						<file id="file-60"/>
						<sourcetrack>
							<mediatype>audio</mediatype>
							<trackindex>1</trackindex>
						</sourcetrack>
						<logginginfo>
							<description></description>
							<scene></scene>
							<shottake></shottake>
							<lognote></lognote>
						</logginginfo>
						<labels>
							<label2>Caribbean</label2>
						</labels>
					</clipitem>
					<clipitem id="clipitem-1842" premiereChannelType="mono">
						<masterclipid>masterclip-64</masterclipid>
						<name>Publ 2 H_02.wav</name>
						<enabled>TRUE</enabled>
						<duration>171138</duration>
						<rate>
							<timebase>25</timebase>
							<ntsc>FALSE</ntsc>
						</rate>
						<start>55738</start>
						<end>55905</end>
						<in>163648</in>
						<out>163815</out>
						<pproTicksIn>1662768414720000</pproTicksIn>
						<pproTicksOut>1664465241600000</pproTicksOut>
						<file id="file-60"/>
						<sourcetrack>
							<mediatype>audio</mediatype>
							<trackindex>1</trackindex>
						</sourcetrack>
						<logginginfo>
							<description></description>
							<scene></scene>
							<shottake></shottake>
							<lognote></lognote>
						</logginginfo>
						<labels>
							<label2>Caribbean</label2>
						</labels>
					</clipitem>
					<clipitem id="clipitem-1843" premiereChannelType="mono">
						<masterclipid>masterclip-64</masterclipid>
						<name>Publ 2 H_02.wav</name>
						<enabled>TRUE</enabled>
						<duration>171138</duration>
						<rate>
							<timebase>25</timebase>
							<ntsc>FALSE</ntsc>
						</rate>
						<start>55905</start>
						<end>56079</end>
						<in>163829</in>
						<out>164003</out>
						<pproTicksIn>1664607490560000</pproTicksIn>
						<pproTicksOut>1666375441920000</pproTicksOut>
						<file id="file-60"/>
						<sourcetrack>
							<mediatype>audio</mediatype>
							<trackindex>1</trackindex>
						</sourcetrack>
						<logginginfo>
							<description></description>
							<scene></scene>
							<shottake></shottake>
							<lognote></lognote>
						</logginginfo>
						<labels>
							<label2>Caribbean</label2>
						</labels>
					</clipitem>
					<clipitem id="clipitem-1844" premiereChannelType="mono">
						<masterclipid>masterclip-64</masterclipid>
						<name>Publ 2 H_02.wav</name>
						<enabled>TRUE</enabled>
						<duration>171138</duration>
						<rate>
							<timebase>25</timebase>
							<ntsc>FALSE</ntsc>
						</rate>
						<start>56079</start>
						<end>58120</end>
						<in>164067</in>
						<out>166108</out>
						<pproTicksIn>1667025722880000</pproTicksIn>
						<pproTicksOut>1687763589120000</pproTicksOut>
						<file id="file-60"/>
						<sourcetrack>
							<mediatype>audio</mediatype>
							<trackindex>1</trackindex>
						</sourcetrack>
						<logginginfo>
							<description></description>
							<scene></scene>
							<shottake></shottake>
							<lognote></lognote>
						</logginginfo>
						<labels>
							<label2>Caribbean</label2>
						</labels>
					</clipitem>
					<enabled>TRUE</enabled>
					<locked>FALSE</locked>
					<outputchannelindex>1</outputchannelindex>
				</track>
				<track TL.SQTrackAudioKeyframeStyle="0" TL.SQTrackShy="0" TL.SQTrackExpandedHeight="25" TL.SQTrackExpanded="0" MZ.TrackTargeted="1" PannerCurrentValue="0.5" PannerIsInverted="true" PannerStartKeyframe="-91445760000000000,0.5,0,0,0,0,0,0" PannerName="Balance" currentExplodedTrackIndex="0" totalExplodedTrackCount="1" premiereTrackType="Stereo">
					<clipitem id="clipitem-1845" premiereChannelType="mono">
						<masterclipid>masterclip-65</masterclipid>
						<name>VB 1 H_03.wav</name>
						<enabled>TRUE</enabled>
						<duration>171138</duration>
						<rate>
							<timebase>25</timebase>
							<ntsc>FALSE</ntsc>
						</rate>
						<start>420</start>
						<end>891</end>
						<in>168511</in>
						<out>168982</out>
						<pproTicksIn>1712179607040000</pproTicksIn>
						<pproTicksOut>1716965268480000</pproTicksOut>
						<file id="file-61">
							<name>VB 1 H_03.wav</name>
							<pathurl>file://localhost/Volumes/Brakka/AdobeLager/QUIZ%20-%20brakka/RA%cc%8aSTOFF%20LYD/2005/VB%201%20H_03.wav</pathurl>
							<rate>
								<timebase>30</timebase>
								<ntsc>TRUE</ntsc>
							</rate>
							<duration>205161</duration>
							<timecode>
								<rate>
									<timebase>30</timebase>
									<ntsc>TRUE</ntsc>
								</rate>
								<string>12;52;15;16</string>
								<frame>1388676</frame>
								<displayformat>DF</displayformat>
								<reel>
									<name></name>
								</reel>
							</timecode>
							<media>
								<audio>
									<samplecharacteristics>
										<depth>16</depth>
										<samplerate>48000</samplerate>
									</samplecharacteristics>
									<channelcount>1</channelcount>
									<audiochannel>
										<sourcechannel>1</sourcechannel>
									</audiochannel>
								</audio>
							</media>
						</file>
						<sourcetrack>
							<mediatype>audio</mediatype>
							<trackindex>1</trackindex>
						</sourcetrack>
						<logginginfo>
							<description></description>
							<scene></scene>
							<shottake></shottake>
							<lognote></lognote>
						</logginginfo>
						<labels>
							<label2>Caribbean</label2>
						</labels>
					</clipitem>
					<clipitem id="clipitem-1846" premiereChannelType="mono">
						<masterclipid>masterclip-65</masterclipid>
						<name>VB 1 H_03.wav</name>
						<enabled>TRUE</enabled>
						<duration>171138</duration>
						<rate>
							<timebase>25</timebase>
							<ntsc>FALSE</ntsc>
						</rate>
						<start>965</start>
						<end>1469</end>
						<in>32787</in>
						<out>33291</out>
						<pproTicksIn>333136903680000</pproTicksIn>
						<pproTicksOut>338257866240000</pproTicksOut>
						<file id="file-61"/>
						<sourcetrack>
							<mediatype>audio</mediatype>
							<trackindex>1</trackindex>
						</sourcetrack>
						<logginginfo>
							<description></description>
							<scene></scene>
							<shottake></shottake>
							<lognote></lognote>
						</logginginfo>
						<labels>
							<label2>Caribbean</label2>
						</labels>
					</clipitem>
					<clipitem id="clipitem-1847" premiereChannelType="mono">
						<masterclipid>masterclip-65</masterclipid>
						<name>VB 1 H_03.wav</name>
						<enabled>TRUE</enabled>
						<duration>171138</duration>
						<rate>
							<timebase>25</timebase>
							<ntsc>FALSE</ntsc>
						</rate>
						<start>1469</start>
						<end>4119</end>
						<in>33423</in>
						<out>36073</out>
						<pproTicksIn>339599070720000</pproTicksIn>
						<pproTicksOut>366524766720000</pproTicksOut>
						<file id="file-61"/>
						<sourcetrack>
							<mediatype>audio</mediatype>
							<trackindex>1</trackindex>
						</sourcetrack>
						<logginginfo>
							<description></description>
							<scene></scene>
							<shottake></shottake>
							<lognote></lognote>
						</logginginfo>
						<labels>
							<label2>Caribbean</label2>
						</labels>
					</clipitem>
					<clipitem id="clipitem-1848" premiereChannelType="mono">
						<masterclipid>masterclip-65</masterclipid>
						<name>VB 1 H_03.wav</name>
						<enabled>TRUE</enabled>
						<duration>171138</duration>
						<rate>
							<timebase>25</timebase>
							<ntsc>FALSE</ntsc>
						</rate>
						<start>4119</start>
						<end>4836</end>
						<in>36549</in>
						<out>37266</out>
						<pproTicksIn>371361231360000</pproTicksIn>
						<pproTicksOut>378646410240000</pproTicksOut>
						<file id="file-61"/>
						<sourcetrack>
							<mediatype>audio</mediatype>
							<trackindex>1</trackindex>
						</sourcetrack>
						<logginginfo>
							<description></description>
							<scene></scene>
							<shottake></shottake>
							<lognote></lognote>
						</logginginfo>
						<labels>
							<label2>Caribbean</label2>
						</labels>
					</clipitem>
					<clipitem id="clipitem-1849" premiereChannelType="mono">
						<masterclipid>masterclip-65</masterclipid>
						<name>VB 1 H_03.wav</name>
						<enabled>TRUE</enabled>
						<duration>171138</duration>
						<rate>
							<timebase>25</timebase>
							<ntsc>FALSE</ntsc>
						</rate>
						<start>4836</start>
						<end>5339</end>
						<in>37305</in>
						<out>37808</out>
						<pproTicksIn>379042675200000</pproTicksIn>
						<pproTicksOut>384153477120000</pproTicksOut>
						<file id="file-61"/>
						<sourcetrack>
							<mediatype>audio</mediatype>
							<trackindex>1</trackindex>
						</sourcetrack>
						<logginginfo>
							<description></description>
							<scene></scene>
							<shottake></shottake>
							<lognote></lognote>
						</logginginfo>
						<labels>
							<label2>Caribbean</label2>
						</labels>
					</clipitem>
					<clipitem id="clipitem-1850" premiereChannelType="mono">
						<masterclipid>masterclip-65</masterclipid>
						<name>VB 1 H_03.wav</name>
						<enabled>TRUE</enabled>
						<duration>171138</duration>
						<rate>
							<timebase>25</timebase>
							<ntsc>FALSE</ntsc>
						</rate>
						<start>5339</start>
						<end>5501</end>
						<in>37871</in>
						<out>38033</out>
						<pproTicksIn>384793597440000</pproTicksIn>
						<pproTicksOut>386439621120000</pproTicksOut>
						<file id="file-61"/>
						<sourcetrack>
							<mediatype>audio</mediatype>
							<trackindex>1</trackindex>
						</sourcetrack>
						<logginginfo>
							<description></description>
							<scene></scene>
							<shottake></shottake>
							<lognote></lognote>
						</logginginfo>
						<labels>
							<label2>Caribbean</label2>
						</labels>
					</clipitem>
					<clipitem id="clipitem-1851" premiereChannelType="mono">
						<masterclipid>masterclip-65</masterclipid>
						<name>VB 1 H_03.wav</name>
						<enabled>TRUE</enabled>
						<duration>171138</duration>
						<rate>
							<timebase>25</timebase>
							<ntsc>FALSE</ntsc>
						</rate>
						<start>5501</start>
						<end>6004</end>
						<in>46577</in>
						<out>47080</out>
						<pproTicksIn>473252129280000</pproTicksIn>
						<pproTicksOut>478362931200000</pproTicksOut>
						<file id="file-61"/>
						<sourcetrack>
							<mediatype>audio</mediatype>
							<trackindex>1</trackindex>
						</sourcetrack>
						<logginginfo>
							<description></description>
							<scene></scene>
							<shottake></shottake>
							<lognote></lognote>
						</logginginfo>
						<labels>
							<label2>Caribbean</label2>
						</labels>
					</clipitem>
					<clipitem id="clipitem-1852" premiereChannelType="mono">
						<masterclipid>masterclip-65</masterclipid>
						<name>VB 1 H_03.wav</name>
						<enabled>TRUE</enabled>
						<duration>171138</duration>
						<rate>
							<timebase>25</timebase>
							<ntsc>FALSE</ntsc>
						</rate>
						<start>6004</start>
						<end>6357</end>
						<in>50106</in>
						<out>50459</out>
						<pproTicksIn>509109027840000</pproTicksIn>
						<pproTicksOut>512695733760000</pproTicksOut>
						<file id="file-61"/>
						<sourcetrack>
							<mediatype>audio</mediatype>
							<trackindex>1</trackindex>
						</sourcetrack>
						<logginginfo>
							<description></description>
							<scene></scene>
							<shottake></shottake>
							<lognote></lognote>
						</logginginfo>
						<labels>
							<label2>Caribbean</label2>
						</labels>
					</clipitem>
					<clipitem id="clipitem-1853" premiereChannelType="mono">
						<masterclipid>masterclip-65</masterclipid>
						<name>VB 1 H_03.wav</name>
						<enabled>TRUE</enabled>
						<duration>171138</duration>
						<rate>
							<timebase>25</timebase>
							<ntsc>FALSE</ntsc>
						</rate>
						<start>6357</start>
						<end>6470</end>
						<in>50578</in>
						<out>50691</out>
						<pproTicksIn>513904849920000</pproTicksIn>
						<pproTicksOut>515053002240000</pproTicksOut>
						<file id="file-61"/>
						<sourcetrack>
							<mediatype>audio</mediatype>
							<trackindex>1</trackindex>
						</sourcetrack>
						<logginginfo>
							<description></description>
							<scene></scene>
							<shottake></shottake>
							<lognote></lognote>
						</logginginfo>
						<labels>
							<label2>Caribbean</label2>
						</labels>
					</clipitem>
					<clipitem id="clipitem-1854" premiereChannelType="mono">
						<masterclipid>masterclip-65</masterclipid>
						<name>VB 1 H_03.wav</name>
						<enabled>TRUE</enabled>
						<duration>171138</duration>
						<rate>
							<timebase>25</timebase>
							<ntsc>FALSE</ntsc>
						</rate>
						<start>6470</start>
						<end>6547</end>
						<in>50753</in>
						<out>50830</out>
						<pproTicksIn>515682961920000</pproTicksIn>
						<pproTicksOut>516465331200000</pproTicksOut>
						<file id="file-61"/>
						<sourcetrack>
							<mediatype>audio</mediatype>
							<trackindex>1</trackindex>
						</sourcetrack>
						<logginginfo>
							<description></description>
							<scene></scene>
							<shottake></shottake>
							<lognote></lognote>
						</logginginfo>
						<labels>
							<label2>Caribbean</label2>
						</labels>
					</clipitem>
					<clipitem id="clipitem-1855" premiereChannelType="mono">
						<masterclipid>masterclip-65</masterclipid>
						<name>VB 1 H_03.wav</name>
						<enabled>TRUE</enabled>
						<duration>171138</duration>
						<rate>
							<timebase>25</timebase>
							<ntsc>FALSE</ntsc>
						</rate>
						<start>6547</start>
						<end>7368</end>
						<in>50869</in>
						<out>51690</out>
						<pproTicksIn>516861596160000</pproTicksIn>
						<pproTicksOut>525203481600000</pproTicksOut>
						<file id="file-61"/>
						<sourcetrack>
							<mediatype>audio</mediatype>
							<trackindex>1</trackindex>
						</sourcetrack>
						<logginginfo>
							<description></description>
							<scene></scene>
							<shottake></shottake>
							<lognote></lognote>
						</logginginfo>
						<labels>
							<label2>Caribbean</label2>
						</labels>
					</clipitem>
					<clipitem id="clipitem-1856" premiereChannelType="mono">
						<masterclipid>masterclip-65</masterclipid>
						<name>VB 1 H_03.wav</name>
						<enabled>TRUE</enabled>
						<duration>171138</duration>
						<rate>
							<timebase>25</timebase>
							<ntsc>FALSE</ntsc>
						</rate>
						<start>7368</start>
						<end>7448</end>
						<in>51824</in>
						<out>51904</out>
						<pproTicksIn>526565007360000</pproTicksIn>
						<pproTicksOut>527377858560000</pproTicksOut>
						<file id="file-61"/>
						<sourcetrack>
							<mediatype>audio</mediatype>
							<trackindex>1</trackindex>
						</sourcetrack>
						<logginginfo>
							<description></description>
							<scene></scene>
							<shottake></shottake>
							<lognote></lognote>
						</logginginfo>
						<labels>
							<label2>Caribbean</label2>
						</labels>
					</clipitem>
					<clipitem id="clipitem-1857" premiereChannelType="mono">
						<masterclipid>masterclip-65</masterclipid>
						<name>VB 1 H_03.wav</name>
						<enabled>TRUE</enabled>
						<duration>171138</duration>
						<rate>
							<timebase>25</timebase>
							<ntsc>FALSE</ntsc>
						</rate>
						<start>7448</start>
						<end>8194</end>
						<in>52064</in>
						<out>52810</out>
						<pproTicksIn>529003560960000</pproTicksIn>
						<pproTicksOut>536583398400000</pproTicksOut>
						<file id="file-61"/>
						<sourcetrack>
							<mediatype>audio</mediatype>
							<trackindex>1</trackindex>
						</sourcetrack>
						<logginginfo>
							<description></description>
							<scene></scene>
							<shottake></shottake>
							<lognote></lognote>
						</logginginfo>
						<labels>
							<label2>Caribbean</label2>
						</labels>
					</clipitem>
					<clipitem id="clipitem-1858" premiereChannelType="mono">
						<masterclipid>masterclip-65</masterclipid>
						<name>VB 1 H_03.wav</name>
						<enabled>TRUE</enabled>
						<duration>171138</duration>
						<rate>
							<timebase>25</timebase>
							<ntsc>FALSE</ntsc>
						</rate>
						<start>8194</start>
						<end>8332</end>
						<in>57229</in>
						<out>57367</out>
						<pproTicksIn>581483266560000</pproTicksIn>
						<pproTicksOut>582885434880000</pproTicksOut>
						<file id="file-61"/>
						<sourcetrack>
							<mediatype>audio</mediatype>
							<trackindex>1</trackindex>
						</sourcetrack>
						<logginginfo>
							<description></description>
							<scene></scene>
							<shottake></shottake>
							<lognote></lognote>
						</logginginfo>
						<labels>
							<label2>Caribbean</label2>
						</labels>
					</clipitem>
					<clipitem id="clipitem-1859" premiereChannelType="mono">
						<masterclipid>masterclip-65</masterclipid>
						<name>VB 1 H_03.wav</name>
						<enabled>TRUE</enabled>
						<duration>171138</duration>
						<rate>
							<timebase>25</timebase>
							<ntsc>FALSE</ntsc>
						</rate>
						<start>8332</start>
						<end>8592</end>
						<in>58240</in>
						<out>58500</out>
						<pproTicksIn>591755673600000</pproTicksIn>
						<pproTicksOut>594397440000000</pproTicksOut>
						<file id="file-61"/>
						<sourcetrack>
							<mediatype>audio</mediatype>
							<trackindex>1</trackindex>
						</sourcetrack>
						<logginginfo>
							<description></description>
							<scene></scene>
							<shottake></shottake>
							<lognote></lognote>
						</logginginfo>
						<labels>
							<label2>Caribbean</label2>
						</labels>
					</clipitem>
					<clipitem id="clipitem-1860" premiereChannelType="mono">
						<masterclipid>masterclip-65</masterclipid>
						<name>VB 1 H_03.wav</name>
						<enabled>TRUE</enabled>
						<duration>171138</duration>
						<rate>
							<timebase>25</timebase>
							<ntsc>FALSE</ntsc>
						</rate>
						<start>8592</start>
						<end>8690</end>
						<in>58994</in>
						<out>59092</out>
						<pproTicksIn>599416796160000</pproTicksIn>
						<pproTicksOut>600412538880000</pproTicksOut>
						<file id="file-61"/>
						<sourcetrack>
							<mediatype>audio</mediatype>
							<trackindex>1</trackindex>
						</sourcetrack>
						<logginginfo>
							<description></description>
							<scene></scene>
							<shottake></shottake>
							<lognote></lognote>
						</logginginfo>
						<labels>
							<label2>Caribbean</label2>
						</labels>
					</clipitem>
					<clipitem id="clipitem-1861" premiereChannelType="mono">
						<masterclipid>masterclip-65</masterclipid>
						<name>VB 1 H_03.wav</name>
						<enabled>TRUE</enabled>
						<duration>171138</duration>
						<rate>
							<timebase>25</timebase>
							<ntsc>FALSE</ntsc>
						</rate>
						<start>8690</start>
						<end>8999</end>
						<in>59189</in>
						<out>59498</out>
						<pproTicksIn>601398120960000</pproTicksIn>
						<pproTicksOut>604537758720000</pproTicksOut>
						<file id="file-61"/>
						<sourcetrack>
							<mediatype>audio</mediatype>
							<trackindex>1</trackindex>
						</sourcetrack>
						<logginginfo>
							<description></description>
							<scene></scene>
							<shottake></shottake>
							<lognote></lognote>
						</logginginfo>
						<labels>
							<label2>Caribbean</label2>
						</labels>
					</clipitem>
					<clipitem id="clipitem-1862" premiereChannelType="mono">
						<masterclipid>masterclip-65</masterclipid>
						<name>VB 1 H_03.wav</name>
						<enabled>TRUE</enabled>
						<duration>171138</duration>
						<rate>
							<timebase>25</timebase>
							<ntsc>FALSE</ntsc>
						</rate>
						<start>8999</start>
						<end>9172</end>
						<in>59597</in>
						<out>59770</out>
						<pproTicksIn>605543662080000</pproTicksIn>
						<pproTicksOut>607301452800000</pproTicksOut>
						<file id="file-61"/>
						<sourcetrack>
							<mediatype>audio</mediatype>
							<trackindex>1</trackindex>
						</sourcetrack>
						<logginginfo>
							<description></description>
							<scene></scene>
							<shottake></shottake>
							<lognote></lognote>
						</logginginfo>
						<labels>
							<label2>Caribbean</label2>
						</labels>
					</clipitem>
					<clipitem id="clipitem-1863" premiereChannelType="mono">
						<masterclipid>masterclip-65</masterclipid>
						<name>VB 1 H_03.wav</name>
						<enabled>TRUE</enabled>
						<duration>171138</duration>
						<rate>
							<timebase>25</timebase>
							<ntsc>FALSE</ntsc>
						</rate>
						<start>9172</start>
						<end>9280</end>
						<in>59921</in>
						<out>60029</out>
						<pproTicksIn>608835709440000</pproTicksIn>
						<pproTicksOut>609933058560000</pproTicksOut>
						<file id="file-61"/>
						<sourcetrack>
							<mediatype>audio</mediatype>
							<trackindex>1</trackindex>
						</sourcetrack>
						<logginginfo>
							<description></description>
							<scene></scene>
							<shottake></shottake>
							<lognote></lognote>
						</logginginfo>
						<labels>
							<label2>Caribbean</label2>
						</labels>
					</clipitem>
					<clipitem id="clipitem-1864" premiereChannelType="mono">
						<masterclipid>masterclip-65</masterclipid>
						<name>VB 1 H_03.wav</name>
						<enabled>TRUE</enabled>
						<duration>171138</duration>
						<rate>
							<timebase>25</timebase>
							<ntsc>FALSE</ntsc>
						</rate>
						<start>9280</start>
						<end>9979</end>
						<in>65722</in>
						<out>66421</out>
						<pproTicksIn>667777582080000</pproTicksIn>
						<pproTicksOut>674879869440000</pproTicksOut>
						<file id="file-61"/>
						<sourcetrack>
							<mediatype>audio</mediatype>
							<trackindex>1</trackindex>
						</sourcetrack>
						<logginginfo>
							<description></description>
							<scene></scene>
							<shottake></shottake>
							<lognote></lognote>
						</logginginfo>
						<labels>
							<label2>Caribbean</label2>
						</labels>
					</clipitem>
					<clipitem id="clipitem-1865" premiereChannelType="mono">
						<masterclipid>masterclip-65</masterclipid>
						<name>VB 1 H_03.wav</name>
						<enabled>TRUE</enabled>
						<duration>171138</duration>
						<rate>
							<timebase>25</timebase>
							<ntsc>FALSE</ntsc>
						</rate>
						<start>9979</start>
						<end>10054</end>
						<in>66518</in>
						<out>66593</out>
						<pproTicksIn>675865451520000</pproTicksIn>
						<pproTicksOut>676627499520000</pproTicksOut>
						<file id="file-61"/>
						<sourcetrack>
							<mediatype>audio</mediatype>
							<trackindex>1</trackindex>
						</sourcetrack>
						<logginginfo>
							<description></description>
							<scene></scene>
							<shottake></shottake>
							<lognote></lognote>
						</logginginfo>
						<labels>
							<label2>Caribbean</label2>
						</labels>
					</clipitem>
					<clipitem id="clipitem-1866" premiereChannelType="mono">
						<masterclipid>masterclip-65</masterclipid>
						<name>VB 1 H_03.wav</name>
						<enabled>TRUE</enabled>
						<duration>171138</duration>
						<rate>
							<timebase>25</timebase>
							<ntsc>FALSE</ntsc>
						</rate>
						<start>10054</start>
						<end>10901</end>
						<in>67109</in>
						<out>67956</out>
						<pproTicksIn>681870389760000</pproTicksIn>
						<pproTicksOut>690476451840000</pproTicksOut>
						<file id="file-61"/>
						<sourcetrack>
							<mediatype>audio</mediatype>
							<trackindex>1</trackindex>
						</sourcetrack>
						<logginginfo>
							<description></description>
							<scene></scene>
							<shottake></shottake>
							<lognote></lognote>
						</logginginfo>
						<labels>
							<label2>Caribbean</label2>
						</labels>
					</clipitem>
					<clipitem id="clipitem-1867" premiereChannelType="mono">
						<masterclipid>masterclip-65</masterclipid>
						<name>VB 1 H_03.wav</name>
						<enabled>TRUE</enabled>
						<duration>171138</duration>
						<rate>
							<timebase>25</timebase>
							<ntsc>FALSE</ntsc>
						</rate>
						<start>10901</start>
						<end>11157</end>
						<in>67945</in>
						<out>68201</out>
						<pproTicksIn>690364684800000</pproTicksIn>
						<pproTicksOut>692965808640000</pproTicksOut>
						<file id="file-61"/>
						<sourcetrack>
							<mediatype>audio</mediatype>
							<trackindex>1</trackindex>
						</sourcetrack>
						<logginginfo>
							<description></description>
							<scene></scene>
							<shottake></shottake>
							<lognote></lognote>
						</logginginfo>
						<labels>
							<label2>Caribbean</label2>
						</labels>
					</clipitem>
					<clipitem id="clipitem-1868" premiereChannelType="mono">
						<masterclipid>masterclip-65</masterclipid>
						<name>VB 1 H_03.wav</name>
						<enabled>TRUE</enabled>
						<duration>171138</duration>
						<rate>
							<timebase>25</timebase>
							<ntsc>FALSE</ntsc>
						</rate>
						<start>11157</start>
						<end>11309</end>
						<in>68218</in>
						<out>68370</out>
						<pproTicksIn>693138539520000</pproTicksIn>
						<pproTicksOut>694682956800000</pproTicksOut>
						<file id="file-61"/>
						<sourcetrack>
							<mediatype>audio</mediatype>
							<trackindex>1</trackindex>
						</sourcetrack>
						<logginginfo>
							<description></description>
							<scene></scene>
							<shottake></shottake>
							<lognote></lognote>
						</logginginfo>
						<labels>
							<label2>Caribbean</label2>
						</labels>
					</clipitem>
					<clipitem id="clipitem-1869" premiereChannelType="mono">
						<masterclipid>masterclip-65</masterclipid>
						<name>VB 1 H_03.wav</name>
						<enabled>TRUE</enabled>
						<duration>171138</duration>
						<rate>
							<timebase>25</timebase>
							<ntsc>FALSE</ntsc>
						</rate>
						<start>11309</start>
						<end>11781</end>
						<in>68707</in>
						<out>69179</out>
						<pproTicksIn>698107092480000</pproTicksIn>
						<pproTicksOut>702902914560000</pproTicksOut>
						<file id="file-61"/>
						<sourcetrack>
							<mediatype>audio</mediatype>
							<trackindex>1</trackindex>
						</sourcetrack>
						<logginginfo>
							<description></description>
							<scene></scene>
							<shottake></shottake>
							<lognote></lognote>
						</logginginfo>
						<labels>
							<label2>Caribbean</label2>
						</labels>
					</clipitem>
					<clipitem id="clipitem-1870" premiereChannelType="mono">
						<masterclipid>masterclip-65</masterclipid>
						<name>VB 1 H_03.wav</name>
						<enabled>TRUE</enabled>
						<duration>171138</duration>
						<rate>
							<timebase>25</timebase>
							<ntsc>FALSE</ntsc>
						</rate>
						<start>11781</start>
						<end>12155</end>
						<in>70010</in>
						<out>70384</out>
						<pproTicksIn>711346406400000</pproTicksIn>
						<pproTicksOut>715146485760000</pproTicksOut>
						<file id="file-61"/>
						<sourcetrack>
							<mediatype>audio</mediatype>
							<trackindex>1</trackindex>
						</sourcetrack>
						<logginginfo>
							<description></description>
							<scene></scene>
							<shottake></shottake>
							<lognote></lognote>
						</logginginfo>
						<labels>
							<label2>Caribbean</label2>
						</labels>
					</clipitem>
					<clipitem id="clipitem-1871" premiereChannelType="mono">
						<masterclipid>masterclip-65</masterclipid>
						<name>VB 1 H_03.wav</name>
						<enabled>TRUE</enabled>
						<duration>171138</duration>
						<rate>
							<timebase>25</timebase>
							<ntsc>FALSE</ntsc>
						</rate>
						<start>12155</start>
						<end>13212</end>
						<in>70448</in>
						<out>71505</out>
						<pproTicksIn>715796766720000</pproTicksIn>
						<pproTicksOut>726536563200000</pproTicksOut>
						<file id="file-61"/>
						<sourcetrack>
							<mediatype>audio</mediatype>
							<trackindex>1</trackindex>
						</sourcetrack>
						<logginginfo>
							<description></description>
							<scene></scene>
							<shottake></shottake>
							<lognote></lognote>
						</logginginfo>
						<labels>
							<label2>Caribbean</label2>
						</labels>
					</clipitem>
					<clipitem id="clipitem-1872" premiereChannelType="mono">
						<masterclipid>masterclip-65</masterclipid>
						<name>VB 1 H_03.wav</name>
						<enabled>TRUE</enabled>
						<duration>171138</duration>
						<rate>
							<timebase>25</timebase>
							<ntsc>FALSE</ntsc>
						</rate>
						<start>13212</start>
						<end>13343</end>
						<in>71544</in>
						<out>71675</out>
						<pproTicksIn>726932828160000</pproTicksIn>
						<pproTicksOut>728263872000000</pproTicksOut>
						<file id="file-61"/>
						<sourcetrack>
							<mediatype>audio</mediatype>
							<trackindex>1</trackindex>
						</sourcetrack>
						<logginginfo>
							<description></description>
							<scene></scene>
							<shottake></shottake>
							<lognote></lognote>
						</logginginfo>
						<labels>
							<label2>Caribbean</label2>
						</labels>
					</clipitem>
					<clipitem id="clipitem-1873" premiereChannelType="mono">
						<masterclipid>masterclip-65</masterclipid>
						<name>VB 1 H_03.wav</name>
						<enabled>TRUE</enabled>
						<duration>171138</duration>
						<rate>
							<timebase>25</timebase>
							<ntsc>FALSE</ntsc>
						</rate>
						<start>13359</start>
						<end>13506</end>
						<in>77542</in>
						<out>77689</out>
						<pproTicksIn>787876346880000</pproTicksIn>
						<pproTicksOut>789369960960000</pproTicksOut>
						<file id="file-61"/>
						<sourcetrack>
							<mediatype>audio</mediatype>
							<trackindex>1</trackindex>
						</sourcetrack>
						<logginginfo>
							<description></description>
							<scene></scene>
							<shottake></shottake>
							<lognote></lognote>
						</logginginfo>
						<labels>
							<label2>Caribbean</label2>
						</labels>
					</clipitem>
					<clipitem id="clipitem-1874" premiereChannelType="mono">
						<masterclipid>masterclip-65</masterclipid>
						<name>VB 1 H_03.wav</name>
						<enabled>TRUE</enabled>
						<duration>171138</duration>
						<rate>
							<timebase>25</timebase>
							<ntsc>FALSE</ntsc>
						</rate>
						<start>13506</start>
						<end>14081</end>
						<in>78019</in>
						<out>78594</out>
						<pproTicksIn>792722972160000</pproTicksIn>
						<pproTicksOut>798565340160000</pproTicksOut>
						<file id="file-61"/>
						<sourcetrack>
							<mediatype>audio</mediatype>
							<trackindex>1</trackindex>
						</sourcetrack>
						<logginginfo>
							<description></description>
							<scene></scene>
							<shottake></shottake>
							<lognote></lognote>
						</logginginfo>
						<labels>
							<label2>Caribbean</label2>
						</labels>
					</clipitem>
					<clipitem id="clipitem-1875" premiereChannelType="mono">
						<masterclipid>masterclip-65</masterclipid>
						<name>VB 1 H_03.wav</name>
						<enabled>TRUE</enabled>
						<duration>171138</duration>
						<rate>
							<timebase>25</timebase>
							<ntsc>FALSE</ntsc>
						</rate>
						<start>14081</start>
						<end>14232</end>
						<in>78676</in>
						<out>78827</out>
						<pproTicksIn>799398512640000</pproTicksIn>
						<pproTicksOut>800932769280000</pproTicksOut>
						<file id="file-61"/>
						<sourcetrack>
							<mediatype>audio</mediatype>
							<trackindex>1</trackindex>
						</sourcetrack>
						<logginginfo>
							<description></description>
							<scene></scene>
							<shottake></shottake>
							<lognote></lognote>
						</logginginfo>
						<labels>
							<label2>Caribbean</label2>
						</labels>
					</clipitem>
					<clipitem id="clipitem-1876" premiereChannelType="mono">
						<masterclipid>masterclip-65</masterclipid>
						<name>VB 1 H_03.wav</name>
						<enabled>TRUE</enabled>
						<duration>171138</duration>
						<rate>
							<timebase>25</timebase>
							<ntsc>FALSE</ntsc>
						</rate>
						<start>14232</start>
						<end>14550</end>
						<in>78886</in>
						<out>79204</out>
						<pproTicksIn>801532247040000</pproTicksIn>
						<pproTicksOut>804763330560000</pproTicksOut>
						<file id="file-61"/>
						<sourcetrack>
							<mediatype>audio</mediatype>
							<trackindex>1</trackindex>
						</sourcetrack>
						<logginginfo>
							<description></description>
							<scene></scene>
							<shottake></shottake>
							<lognote></lognote>
						</logginginfo>
						<labels>
							<label2>Caribbean</label2>
						</labels>
					</clipitem>
					<clipitem id="clipitem-1877" premiereChannelType="mono">
						<masterclipid>masterclip-65</masterclipid>
						<name>VB 1 H_03.wav</name>
						<enabled>TRUE</enabled>
						<duration>171138</duration>
						<rate>
							<timebase>25</timebase>
							<ntsc>FALSE</ntsc>
						</rate>
						<start>14550</start>
						<end>14774</end>
						<in>79562</in>
						<out>79786</out>
						<pproTicksIn>808400839680000</pproTicksIn>
						<pproTicksOut>810676823040000</pproTicksOut>
						<file id="file-61"/>
						<sourcetrack>
							<mediatype>audio</mediatype>
							<trackindex>1</trackindex>
						</sourcetrack>
						<logginginfo>
							<description></description>
							<scene></scene>
							<shottake></shottake>
							<lognote></lognote>
						</logginginfo>
						<labels>
							<label2>Caribbean</label2>
						</labels>
					</clipitem>
					<clipitem id="clipitem-1878" premiereChannelType="mono">
						<masterclipid>masterclip-65</masterclipid>
						<name>VB 1 H_03.wav</name>
						<enabled>TRUE</enabled>
						<duration>171138</duration>
						<rate>
							<timebase>25</timebase>
							<ntsc>FALSE</ntsc>
						</rate>
						<start>14774</start>
						<end>14798</end>
						<in>79204</in>
						<out>79228</out>
						<pproTicksIn>804763330560000</pproTicksIn>
						<pproTicksOut>805007185920000</pproTicksOut>
						<file id="file-61"/>
						<sourcetrack>
							<mediatype>audio</mediatype>
							<trackindex>1</trackindex>
						</sourcetrack>
						<logginginfo>
							<description></description>
							<scene></scene>
							<shottake></shottake>
							<lognote></lognote>
						</logginginfo>
						<labels>
							<label2>Caribbean</label2>
						</labels>
					</clipitem>
					<clipitem id="clipitem-1879" premiereChannelType="mono">
						<masterclipid>masterclip-65</masterclipid>
						<name>VB 1 H_03.wav</name>
						<enabled>TRUE</enabled>
						<duration>171138</duration>
						<rate>
							<timebase>25</timebase>
							<ntsc>FALSE</ntsc>
						</rate>
						<start>14798</start>
						<end>14887</end>
						<in>80182</in>
						<out>80271</out>
						<pproTicksIn>814700436480000</pproTicksIn>
						<pproTicksOut>815604733440000</pproTicksOut>
						<file id="file-61"/>
						<sourcetrack>
							<mediatype>audio</mediatype>
							<trackindex>1</trackindex>
						</sourcetrack>
						<logginginfo>
							<description></description>
							<scene></scene>
							<shottake></shottake>
							<lognote></lognote>
						</logginginfo>
						<labels>
							<label2>Caribbean</label2>
						</labels>
					</clipitem>
					<clipitem id="clipitem-1880" premiereChannelType="mono">
						<masterclipid>masterclip-65</masterclipid>
						<name>VB 1 H_03.wav</name>
						<enabled>TRUE</enabled>
						<duration>171138</duration>
						<rate>
							<timebase>25</timebase>
							<ntsc>FALSE</ntsc>
						</rate>
						<start>14887</start>
						<end>15129</end>
						<in>80569</in>
						<out>80811</out>
						<pproTicksIn>818632604160000</pproTicksIn>
						<pproTicksOut>821091479040000</pproTicksOut>
						<file id="file-61"/>
						<sourcetrack>
							<mediatype>audio</mediatype>
							<trackindex>1</trackindex>
						</sourcetrack>
						<logginginfo>
							<description></description>
							<scene></scene>
							<shottake></shottake>
							<lognote></lognote>
						</logginginfo>
						<labels>
							<label2>Caribbean</label2>
						</labels>
					</clipitem>
					<clipitem id="clipitem-1881" premiereChannelType="mono">
						<masterclipid>masterclip-65</masterclipid>
						<name>VB 1 H_03.wav</name>
						<enabled>TRUE</enabled>
						<duration>171138</duration>
						<rate>
							<timebase>25</timebase>
							<ntsc>FALSE</ntsc>
						</rate>
						<start>15129</start>
						<end>15493</end>
						<in>80817</in>
						<out>81181</out>
						<pproTicksIn>821152442880000</pproTicksIn>
						<pproTicksOut>824850915840000</pproTicksOut>
						<file id="file-61"/>
						<sourcetrack>
							<mediatype>audio</mediatype>
							<trackindex>1</trackindex>
						</sourcetrack>
						<logginginfo>
							<description></description>
							<scene></scene>
							<shottake></shottake>
							<lognote></lognote>
						</logginginfo>
						<labels>
							<label2>Caribbean</label2>
						</labels>
					</clipitem>
					<clipitem id="clipitem-1882" premiereChannelType="mono">
						<masterclipid>masterclip-65</masterclipid>
						<name>VB 1 H_03.wav</name>
						<enabled>TRUE</enabled>
						<duration>171138</duration>
						<rate>
							<timebase>25</timebase>
							<ntsc>FALSE</ntsc>
						</rate>
						<start>15493</start>
						<end>15657</end>
						<in>81234</in>
						<out>81398</out>
						<pproTicksIn>825389429760000</pproTicksIn>
						<pproTicksOut>827055774720000</pproTicksOut>
						<file id="file-61"/>
						<sourcetrack>
							<mediatype>audio</mediatype>
							<trackindex>1</trackindex>
						</sourcetrack>
						<logginginfo>
							<description></description>
							<scene></scene>
							<shottake></shottake>
							<lognote></lognote>
						</logginginfo>
						<labels>
							<label2>Caribbean</label2>
						</labels>
					</clipitem>
					<clipitem id="clipitem-1883" premiereChannelType="mono">
						<masterclipid>masterclip-65</masterclipid>
						<name>VB 1 H_03.wav</name>
						<enabled>TRUE</enabled>
						<duration>171138</duration>
						<rate>
							<timebase>25</timebase>
							<ntsc>FALSE</ntsc>
						</rate>
						<start>15657</start>
						<end>15850</end>
						<in>81563</in>
						<out>81756</out>
						<pproTicksIn>828732280320000</pproTicksIn>
						<pproTicksOut>830693283840000</pproTicksOut>
						<file id="file-61"/>
						<sourcetrack>
							<mediatype>audio</mediatype>
							<trackindex>1</trackindex>
						</sourcetrack>
						<logginginfo>
							<description></description>
							<scene></scene>
							<shottake></shottake>
							<lognote></lognote>
						</logginginfo>
						<labels>
							<label2>Caribbean</label2>
						</labels>
					</clipitem>
					<clipitem id="clipitem-1884" premiereChannelType="mono">
						<masterclipid>masterclip-65</masterclipid>
						<name>VB 1 H_03.wav</name>
						<enabled>TRUE</enabled>
						<duration>171138</duration>
						<rate>
							<timebase>25</timebase>
							<ntsc>FALSE</ntsc>
						</rate>
						<start>15850</start>
						<end>16018</end>
						<in>81984</in>
						<out>82152</out>
						<pproTicksIn>833009909760000</pproTicksIn>
						<pproTicksOut>834716897280000</pproTicksOut>
						<file id="file-61"/>
						<sourcetrack>
							<mediatype>audio</mediatype>
							<trackindex>1</trackindex>
						</sourcetrack>
						<logginginfo>
							<description></description>
							<scene></scene>
							<shottake></shottake>
							<lognote></lognote>
						</logginginfo>
						<labels>
							<label2>Caribbean</label2>
						</labels>
					</clipitem>
					<clipitem id="clipitem-1885" premiereChannelType="mono">
						<masterclipid>masterclip-65</masterclipid>
						<name>VB 1 H_03.wav</name>
						<enabled>TRUE</enabled>
						<duration>171138</duration>
						<rate>
							<timebase>25</timebase>
							<ntsc>FALSE</ntsc>
						</rate>
						<start>16018</start>
						<end>16073</end>
						<in>82477</in>
						<out>82532</out>
						<pproTicksIn>838019105280000</pproTicksIn>
						<pproTicksOut>838577940480000</pproTicksOut>
						<file id="file-61"/>
						<sourcetrack>
							<mediatype>audio</mediatype>
							<trackindex>1</trackindex>
						</sourcetrack>
						<logginginfo>
							<description></description>
							<scene></scene>
							<shottake></shottake>
							<lognote></lognote>
						</logginginfo>
						<labels>
							<label2>Caribbean</label2>
						</labels>
					</clipitem>
					<clipitem id="clipitem-1886" premiereChannelType="mono">
						<masterclipid>masterclip-65</masterclipid>
						<name>VB 1 H_03.wav</name>
						<enabled>TRUE</enabled>
						<duration>171138</duration>
						<rate>
							<timebase>25</timebase>
							<ntsc>FALSE</ntsc>
						</rate>
						<start>16073</start>
						<end>16115</end>
						<in>83437</in>
						<out>83479</out>
						<pproTicksIn>847773319680000</pproTicksIn>
						<pproTicksOut>848200066560000</pproTicksOut>
						<file id="file-61"/>
						<sourcetrack>
							<mediatype>audio</mediatype>
							<trackindex>1</trackindex>
						</sourcetrack>
						<logginginfo>
							<description></description>
							<scene></scene>
							<shottake></shottake>
							<lognote></lognote>
						</logginginfo>
						<labels>
							<label2>Caribbean</label2>
						</labels>
					</clipitem>
					<clipitem id="clipitem-1887" premiereChannelType="mono">
						<masterclipid>masterclip-65</masterclipid>
						<name>VB 1 H_03.wav</name>
						<enabled>TRUE</enabled>
						<duration>171138</duration>
						<rate>
							<timebase>25</timebase>
							<ntsc>FALSE</ntsc>
						</rate>
						<start>16115</start>
						<end>16204</end>
						<in>83479</in>
						<out>83568</out>
						<pproTicksIn>848200066560000</pproTicksIn>
						<pproTicksOut>849104363520000</pproTicksOut>
						<file id="file-61"/>
						<sourcetrack>
							<mediatype>audio</mediatype>
							<trackindex>1</trackindex>
						</sourcetrack>
						<logginginfo>
							<description></description>
							<scene></scene>
							<shottake></shottake>
							<lognote></lognote>
						</logginginfo>
						<labels>
							<label2>Caribbean</label2>
						</labels>
					</clipitem>
					<clipitem id="clipitem-1888" premiereChannelType="mono">
						<masterclipid>masterclip-65</masterclipid>
						<name>VB 1 H_03.wav</name>
						<enabled>TRUE</enabled>
						<duration>171138</duration>
						<rate>
							<timebase>25</timebase>
							<ntsc>FALSE</ntsc>
						</rate>
						<start>16204</start>
						<end>16898</end>
						<in>83568</in>
						<out>84262</out>
						<pproTicksIn>849104363520000</pproTicksIn>
						<pproTicksOut>856155847680000</pproTicksOut>
						<file id="file-61"/>
						<sourcetrack>
							<mediatype>audio</mediatype>
							<trackindex>1</trackindex>
						</sourcetrack>
						<logginginfo>
							<description></description>
							<scene></scene>
							<shottake></shottake>
							<lognote></lognote>
						</logginginfo>
						<labels>
							<label2>Caribbean</label2>
						</labels>
					</clipitem>
					<clipitem id="clipitem-1889" premiereChannelType="mono">
						<masterclipid>masterclip-65</masterclipid>
						<name>VB 1 H_03.wav</name>
						<enabled>TRUE</enabled>
						<duration>171138</duration>
						<rate>
							<timebase>25</timebase>
							<ntsc>FALSE</ntsc>
						</rate>
						<start>16898</start>
						<end>16971</end>
						<in>84282</in>
						<out>84355</out>
						<pproTicksIn>856359060480000</pproTicksIn>
						<pproTicksOut>857100787200000</pproTicksOut>
						<file id="file-61"/>
						<sourcetrack>
							<mediatype>audio</mediatype>
							<trackindex>1</trackindex>
						</sourcetrack>
						<logginginfo>
							<description></description>
							<scene></scene>
							<shottake></shottake>
							<lognote></lognote>
						</logginginfo>
						<labels>
							<label2>Caribbean</label2>
						</labels>
					</clipitem>
					<clipitem id="clipitem-1890" premiereChannelType="mono">
						<masterclipid>masterclip-65</masterclipid>
						<name>VB 1 H_03.wav</name>
						<enabled>TRUE</enabled>
						<duration>171138</duration>
						<rate>
							<timebase>25</timebase>
							<ntsc>FALSE</ntsc>
						</rate>
						<start>16971</start>
						<end>17329</end>
						<in>84400</in>
						<out>84758</out>
						<pproTicksIn>857558016000000</pproTicksIn>
						<pproTicksOut>861195525120000</pproTicksOut>
						<file id="file-61"/>
						<sourcetrack>
							<mediatype>audio</mediatype>
							<trackindex>1</trackindex>
						</sourcetrack>
						<logginginfo>
							<description></description>
							<scene></scene>
							<shottake></shottake>
							<lognote></lognote>
						</logginginfo>
						<labels>
							<label2>Caribbean</label2>
						</labels>
					</clipitem>
					<clipitem id="clipitem-1891" premiereChannelType="mono">
						<masterclipid>masterclip-65</masterclipid>
						<name>VB 1 H_03.wav</name>
						<enabled>TRUE</enabled>
						<duration>171138</duration>
						<rate>
							<timebase>25</timebase>
							<ntsc>FALSE</ntsc>
						</rate>
						<start>17329</start>
						<end>17417</end>
						<in>85268</in>
						<out>85356</out>
						<pproTicksIn>866377451520000</pproTicksIn>
						<pproTicksOut>867271587840000</pproTicksOut>
						<file id="file-61"/>
						<sourcetrack>
							<mediatype>audio</mediatype>
							<trackindex>1</trackindex>
						</sourcetrack>
						<logginginfo>
							<description></description>
							<scene></scene>
							<shottake></shottake>
							<lognote></lognote>
						</logginginfo>
						<labels>
							<label2>Caribbean</label2>
						</labels>
					</clipitem>
					<clipitem id="clipitem-1892" premiereChannelType="mono">
						<masterclipid>masterclip-65</masterclipid>
						<name>VB 1 H_03.wav</name>
						<enabled>TRUE</enabled>
						<duration>171138</duration>
						<rate>
							<timebase>25</timebase>
							<ntsc>FALSE</ntsc>
						</rate>
						<start>17417</start>
						<end>17611</end>
						<in>85074</in>
						<out>85268</out>
						<pproTicksIn>864406287360000</pproTicksIn>
						<pproTicksOut>866377451520000</pproTicksOut>
						<file id="file-61"/>
						<sourcetrack>
							<mediatype>audio</mediatype>
							<trackindex>1</trackindex>
						</sourcetrack>
						<logginginfo>
							<description></description>
							<scene></scene>
							<shottake></shottake>
							<lognote></lognote>
						</logginginfo>
						<labels>
							<label2>Caribbean</label2>
						</labels>
					</clipitem>
					<clipitem id="clipitem-1893" premiereChannelType="mono">
						<masterclipid>masterclip-65</masterclipid>
						<name>VB 1 H_03.wav</name>
						<enabled>TRUE</enabled>
						<duration>171138</duration>
						<rate>
							<timebase>25</timebase>
							<ntsc>FALSE</ntsc>
						</rate>
						<start>17611</start>
						<end>17830</end>
						<in>85560</in>
						<out>85779</out>
						<pproTicksIn>869344358400000</pproTicksIn>
						<pproTicksOut>871569538560000</pproTicksOut>
						<file id="file-61"/>
						<sourcetrack>
							<mediatype>audio</mediatype>
							<trackindex>1</trackindex>
						</sourcetrack>
						<logginginfo>
							<description></description>
							<scene></scene>
							<shottake></shottake>
							<lognote></lognote>
						</logginginfo>
						<labels>
							<label2>Caribbean</label2>
						</labels>
					</clipitem>
					<clipitem id="clipitem-1894" premiereChannelType="mono">
						<masterclipid>masterclip-65</masterclipid>
						<name>VB 1 H_03.wav</name>
						<enabled>TRUE</enabled>
						<duration>171138</duration>
						<rate>
							<timebase>25</timebase>
							<ntsc>FALSE</ntsc>
						</rate>
						<start>17830</start>
						<end>17876</end>
						<in>83479</in>
						<out>83525</out>
						<pproTicksIn>848200066560000</pproTicksIn>
						<pproTicksOut>848667456000000</pproTicksOut>
						<file id="file-61"/>
						<sourcetrack>
							<mediatype>audio</mediatype>
							<trackindex>1</trackindex>
						</sourcetrack>
						<logginginfo>
							<description></description>
							<scene></scene>
							<shottake></shottake>
							<lognote></lognote>
						</logginginfo>
						<labels>
							<label2>Caribbean</label2>
						</labels>
					</clipitem>
					<clipitem id="clipitem-1895" premiereChannelType="mono">
						<masterclipid>masterclip-65</masterclipid>
						<name>VB 1 H_03.wav</name>
						<enabled>TRUE</enabled>
						<duration>171138</duration>
						<rate>
							<timebase>25</timebase>
							<ntsc>FALSE</ntsc>
						</rate>
						<start>17876</start>
						<end>18012</end>
						<in>85841</in>
						<out>85977</out>
						<pproTicksIn>872199498240000</pproTicksIn>
						<pproTicksOut>873581345280000</pproTicksOut>
						<file id="file-61"/>
						<sourcetrack>
							<mediatype>audio</mediatype>
							<trackindex>1</trackindex>
						</sourcetrack>
						<logginginfo>
							<description></description>
							<scene></scene>
							<shottake></shottake>
							<lognote></lognote>
						</logginginfo>
						<labels>
							<label2>Caribbean</label2>
						</labels>
					</clipitem>
					<clipitem id="clipitem-1896" premiereChannelType="mono">
						<masterclipid>masterclip-65</masterclipid>
						<name>VB 1 H_03.wav</name>
						<enabled>TRUE</enabled>
						<duration>171138</duration>
						<rate>
							<timebase>25</timebase>
							<ntsc>FALSE</ntsc>
						</rate>
						<start>18012</start>
						<end>18158</end>
						<in>116811</in>
						<out>116957</out>
						<pproTicksIn>1186874519040000</pproTicksIn>
						<pproTicksOut>1188357972480000</pproTicksOut>
						<file id="file-61"/>
						<sourcetrack>
							<mediatype>audio</mediatype>
							<trackindex>1</trackindex>
						</sourcetrack>
						<logginginfo>
							<description></description>
							<scene></scene>
							<shottake></shottake>
							<lognote></lognote>
						</logginginfo>
						<labels>
							<label2>Caribbean</label2>
						</labels>
					</clipitem>
					<clipitem id="clipitem-1897" premiereChannelType="mono">
						<masterclipid>masterclip-65</masterclipid>
						<name>VB 1 H_03.wav</name>
						<enabled>TRUE</enabled>
						<duration>171138</duration>
						<rate>
							<timebase>25</timebase>
							<ntsc>FALSE</ntsc>
						</rate>
						<start>18158</start>
						<end>18332</end>
						<in>86150</in>
						<out>86324</out>
						<pproTicksIn>875339136000000</pproTicksIn>
						<pproTicksOut>877107087360000</pproTicksOut>
						<file id="file-61"/>
						<sourcetrack>
							<mediatype>audio</mediatype>
							<trackindex>1</trackindex>
						</sourcetrack>
						<logginginfo>
							<description></description>
							<scene></scene>
							<shottake></shottake>
							<lognote></lognote>
						</logginginfo>
						<labels>
							<label2>Caribbean</label2>
						</labels>
					</clipitem>
					<clipitem id="clipitem-1898" premiereChannelType="mono">
						<masterclipid>masterclip-65</masterclipid>
						<name>VB 1 H_03.wav</name>
						<enabled>TRUE</enabled>
						<duration>171138</duration>
						<rate>
							<timebase>25</timebase>
							<ntsc>FALSE</ntsc>
						</rate>
						<start>18332</start>
						<end>22265</end>
						<in>87920</in>
						<out>91853</out>
						<pproTicksIn>893323468800000</pproTicksIn>
						<pproTicksOut>933285265920000</pproTicksOut>
						<file id="file-61"/>
						<sourcetrack>
							<mediatype>audio</mediatype>
							<trackindex>1</trackindex>
						</sourcetrack>
						<logginginfo>
							<description></description>
							<scene></scene>
							<shottake></shottake>
							<lognote></lognote>
						</logginginfo>
						<labels>
							<label2>Caribbean</label2>
						</labels>
					</clipitem>
					<clipitem id="clipitem-1899" premiereChannelType="mono">
						<masterclipid>masterclip-65</masterclipid>
						<name>VB 1 H_03.wav</name>
						<enabled>TRUE</enabled>
						<duration>171138</duration>
						<rate>
							<timebase>25</timebase>
							<ntsc>FALSE</ntsc>
						</rate>
						<start>22265</start>
						<end>23367</end>
						<in>91952</in>
						<out>93054</out>
						<pproTicksIn>934291169280000</pproTicksIn>
						<pproTicksOut>945488194560000</pproTicksOut>
						<file id="file-61"/>
						<sourcetrack>
							<mediatype>audio</mediatype>
							<trackindex>1</trackindex>
						</sourcetrack>
						<logginginfo>
							<description></description>
							<scene></scene>
							<shottake></shottake>
							<lognote></lognote>
						</logginginfo>
						<labels>
							<label2>Caribbean</label2>
						</labels>
					</clipitem>
					<clipitem id="clipitem-1900" premiereChannelType="mono">
						<masterclipid>masterclip-65</masterclipid>
						<name>VB 1 H_03.wav</name>
						<enabled>TRUE</enabled>
						<duration>171138</duration>
						<rate>
							<timebase>25</timebase>
							<ntsc>FALSE</ntsc>
						</rate>
						<start>23367</start>
						<end>23724</end>
						<in>93377</in>
						<out>93734</out>
						<pproTicksIn>948770081280000</pproTicksIn>
						<pproTicksOut>952397429760000</pproTicksOut>
						<file id="file-61"/>
						<sourcetrack>
							<mediatype>audio</mediatype>
							<trackindex>1</trackindex>
						</sourcetrack>
						<logginginfo>
							<description></description>
							<scene></scene>
							<shottake></shottake>
							<lognote></lognote>
						</logginginfo>
						<labels>
							<label2>Caribbean</label2>
						</labels>
					</clipitem>
					<clipitem id="clipitem-1901" premiereChannelType="mono">
						<masterclipid>masterclip-65</masterclipid>
						<name>VB 1 H_03.wav</name>
						<enabled>TRUE</enabled>
						<duration>171138</duration>
						<rate>
							<timebase>25</timebase>
							<ntsc>FALSE</ntsc>
						</rate>
						<start>23724</start>
						<end>24114</end>
						<in>94350</in>
						<out>94740</out>
						<pproTicksIn>958656384000000</pproTicksIn>
						<pproTicksOut>962619033600000</pproTicksOut>
						<file id="file-61"/>
						<sourcetrack>
							<mediatype>audio</mediatype>
							<trackindex>1</trackindex>
						</sourcetrack>
						<logginginfo>
							<description></description>
							<scene></scene>
							<shottake></shottake>
							<lognote></lognote>
						</logginginfo>
						<labels>
							<label2>Caribbean</label2>
						</labels>
					</clipitem>
					<clipitem id="clipitem-1902" premiereChannelType="mono">
						<masterclipid>masterclip-65</masterclipid>
						<name>VB 1 H_03.wav</name>
						<enabled>TRUE</enabled>
						<duration>171138</duration>
						<rate>
							<timebase>25</timebase>
							<ntsc>FALSE</ntsc>
						</rate>
						<start>24114</start>
						<end>24241</end>
						<in>94797</in>
						<out>94924</out>
						<pproTicksIn>963198190080000</pproTicksIn>
						<pproTicksOut>964488591360000</pproTicksOut>
						<file id="file-61"/>
						<sourcetrack>
							<mediatype>audio</mediatype>
							<trackindex>1</trackindex>
						</sourcetrack>
						<logginginfo>
							<description></description>
							<scene></scene>
							<shottake></shottake>
							<lognote></lognote>
						</logginginfo>
						<labels>
							<label2>Caribbean</label2>
						</labels>
					</clipitem>
					<clipitem id="clipitem-1903" premiereChannelType="mono">
						<masterclipid>masterclip-65</masterclipid>
						<name>VB 1 H_03.wav</name>
						<enabled>TRUE</enabled>
						<duration>171138</duration>
						<rate>
							<timebase>25</timebase>
							<ntsc>FALSE</ntsc>
						</rate>
						<start>24241</start>
						<end>24388</end>
						<in>95094</in>
						<out>95241</out>
						<pproTicksIn>966215900160000</pproTicksIn>
						<pproTicksOut>967709514240000</pproTicksOut>
						<file id="file-61"/>
						<sourcetrack>
							<mediatype>audio</mediatype>
							<trackindex>1</trackindex>
						</sourcetrack>
						<logginginfo>
							<description></description>
							<scene></scene>
							<shottake></shottake>
							<lognote></lognote>
						</logginginfo>
						<labels>
							<label2>Caribbean</label2>
						</labels>
					</clipitem>
					<clipitem id="clipitem-1904" premiereChannelType="mono">
						<masterclipid>masterclip-65</masterclipid>
						<name>VB 1 H_03.wav</name>
						<enabled>TRUE</enabled>
						<duration>171138</duration>
						<rate>
							<timebase>25</timebase>
							<ntsc>FALSE</ntsc>
						</rate>
						<start>24388</start>
						<end>24600</end>
						<in>95265</in>
						<out>95477</out>
						<pproTicksIn>967953369600000</pproTicksIn>
						<pproTicksOut>970107425280000</pproTicksOut>
						<file id="file-61"/>
						<sourcetrack>
							<mediatype>audio</mediatype>
							<trackindex>1</trackindex>
						</sourcetrack>
						<logginginfo>
							<description></description>
							<scene></scene>
							<shottake></shottake>
							<lognote></lognote>
						</logginginfo>
						<labels>
							<label2>Caribbean</label2>
						</labels>
					</clipitem>
					<clipitem id="clipitem-1905" premiereChannelType="mono">
						<masterclipid>masterclip-65</masterclipid>
						<name>VB 1 H_03.wav</name>
						<enabled>TRUE</enabled>
						<duration>171138</duration>
						<rate>
							<timebase>25</timebase>
							<ntsc>FALSE</ntsc>
						</rate>
						<start>24600</start>
						<end>24872</end>
						<in>95504</in>
						<out>95776</out>
						<pproTicksIn>970381762560000</pproTicksIn>
						<pproTicksOut>973145456640000</pproTicksOut>
						<file id="file-61"/>
						<sourcetrack>
							<mediatype>audio</mediatype>
							<trackindex>1</trackindex>
						</sourcetrack>
						<logginginfo>
							<description></description>
							<scene></scene>
							<shottake></shottake>
							<lognote></lognote>
						</logginginfo>
						<labels>
							<label2>Caribbean</label2>
						</labels>
					</clipitem>
					<clipitem id="clipitem-1906" premiereChannelType="mono">
						<masterclipid>masterclip-65</masterclipid>
						<name>VB 1 H_03.wav</name>
						<enabled>TRUE</enabled>
						<duration>171138</duration>
						<rate>
							<timebase>25</timebase>
							<ntsc>FALSE</ntsc>
						</rate>
						<start>24872</start>
						<end>26291</end>
						<in>95789</in>
						<out>97208</out>
						<pproTicksIn>973277544960000</pproTicksIn>
						<pproTicksOut>987695493120000</pproTicksOut>
						<file id="file-61"/>
						<sourcetrack>
							<mediatype>audio</mediatype>
							<trackindex>1</trackindex>
						</sourcetrack>
						<logginginfo>
							<description></description>
							<scene></scene>
							<shottake></shottake>
							<lognote></lognote>
						</logginginfo>
						<labels>
							<label2>Caribbean</label2>
						</labels>
					</clipitem>
					<clipitem id="clipitem-1907" premiereChannelType="mono">
						<masterclipid>masterclip-65</masterclipid>
						<name>VB 1 H_03.wav</name>
						<enabled>TRUE</enabled>
						<duration>171138</duration>
						<rate>
							<timebase>25</timebase>
							<ntsc>FALSE</ntsc>
						</rate>
						<start>26291</start>
						<end>26387</end>
						<in>97273</in>
						<out>97369</out>
						<pproTicksIn>988355934720000</pproTicksIn>
						<pproTicksOut>989331356160000</pproTicksOut>
						<file id="file-61"/>
						<sourcetrack>
							<mediatype>audio</mediatype>
							<trackindex>1</trackindex>
						</sourcetrack>
						<logginginfo>
							<description></description>
							<scene></scene>
							<shottake></shottake>
							<lognote></lognote>
						</logginginfo>
						<labels>
							<label2>Caribbean</label2>
						</labels>
					</clipitem>
					<clipitem id="clipitem-1908" premiereChannelType="mono">
						<masterclipid>masterclip-65</masterclipid>
						<name>VB 1 H_03.wav</name>
						<enabled>TRUE</enabled>
						<duration>171138</duration>
						<rate>
							<timebase>25</timebase>
							<ntsc>FALSE</ntsc>
						</rate>
						<start>26387</start>
						<end>27111</end>
						<in>97523</in>
						<out>98247</out>
						<pproTicksIn>990896094720000</pproTicksIn>
						<pproTicksOut>998252398080000</pproTicksOut>
						<file id="file-61"/>
						<sourcetrack>
							<mediatype>audio</mediatype>
							<trackindex>1</trackindex>
						</sourcetrack>
						<logginginfo>
							<description></description>
							<scene></scene>
							<shottake></shottake>
							<lognote></lognote>
						</logginginfo>
						<labels>
							<label2>Caribbean</label2>
						</labels>
					</clipitem>
					<clipitem id="clipitem-1909" premiereChannelType="mono">
						<masterclipid>masterclip-65</masterclipid>
						<name>VB 1 H_03.wav</name>
						<enabled>TRUE</enabled>
						<duration>171138</duration>
						<rate>
							<timebase>25</timebase>
							<ntsc>FALSE</ntsc>
						</rate>
						<start>27111</start>
						<end>27316</end>
						<in>98260</in>
						<out>98465</out>
						<pproTicksIn>998384486400000</pproTicksIn>
						<pproTicksOut>1000467417600000</pproTicksOut>
						<file id="file-61"/>
						<sourcetrack>
							<mediatype>audio</mediatype>
							<trackindex>1</trackindex>
						</sourcetrack>
						<logginginfo>
							<description></description>
							<scene></scene>
							<shottake></shottake>
							<lognote></lognote>
						</logginginfo>
						<labels>
							<label2>Caribbean</label2>
						</labels>
					</clipitem>
					<clipitem id="clipitem-1910" premiereChannelType="mono">
						<masterclipid>masterclip-65</masterclipid>
						<name>VB 1 H_03.wav</name>
						<enabled>TRUE</enabled>
						<duration>171138</duration>
						<rate>
							<timebase>25</timebase>
							<ntsc>FALSE</ntsc>
						</rate>
						<start>27316</start>
						<end>27702</end>
						<in>98958</in>
						<out>99344</out>
						<pproTicksIn>1005476613120000</pproTicksIn>
						<pproTicksOut>1009398620160000</pproTicksOut>
						<file id="file-61"/>
						<sourcetrack>
							<mediatype>audio</mediatype>
							<trackindex>1</trackindex>
						</sourcetrack>
						<logginginfo>
							<description></description>
							<scene></scene>
							<shottake></shottake>
							<lognote></lognote>
						</logginginfo>
						<labels>
							<label2>Caribbean</label2>
						</labels>
					</clipitem>
					<clipitem id="clipitem-1911" premiereChannelType="mono">
						<masterclipid>masterclip-65</masterclipid>
						<name>VB 1 H_03.wav</name>
						<enabled>TRUE</enabled>
						<duration>171138</duration>
						<rate>
							<timebase>25</timebase>
							<ntsc>FALSE</ntsc>
						</rate>
						<start>27702</start>
						<end>27789</end>
						<in>99640</in>
						<out>99727</out>
						<pproTicksIn>1012406169600000</pproTicksIn>
						<pproTicksOut>1013290145280000</pproTicksOut>
						<file id="file-61"/>
						<sourcetrack>
							<mediatype>audio</mediatype>
							<trackindex>1</trackindex>
						</sourcetrack>
						<logginginfo>
							<description></description>
							<scene></scene>
							<shottake></shottake>
							<lognote></lognote>
						</logginginfo>
						<labels>
							<label2>Caribbean</label2>
						</labels>
					</clipitem>
					<clipitem id="clipitem-1912" premiereChannelType="mono">
						<masterclipid>masterclip-65</masterclipid>
						<name>VB 1 H_03.wav</name>
						<enabled>TRUE</enabled>
						<duration>171138</duration>
						<rate>
							<timebase>25</timebase>
							<ntsc>FALSE</ntsc>
						</rate>
						<start>27789</start>
						<end>29601</end>
						<in>99831</in>
						<out>101643</out>
						<pproTicksIn>1014346851840000</pproTicksIn>
						<pproTicksOut>1032757931520000</pproTicksOut>
						<file id="file-61"/>
						<sourcetrack>
							<mediatype>audio</mediatype>
							<trackindex>1</trackindex>
						</sourcetrack>
						<logginginfo>
							<description></description>
							<scene></scene>
							<shottake></shottake>
							<lognote></lognote>
						</logginginfo>
						<labels>
							<label2>Caribbean</label2>
						</labels>
					</clipitem>
					<clipitem id="clipitem-1913" premiereChannelType="mono">
						<masterclipid>masterclip-65</masterclipid>
						<name>VB 1 H_03.wav</name>
						<enabled>TRUE</enabled>
						<duration>171138</duration>
						<rate>
							<timebase>25</timebase>
							<ntsc>FALSE</ntsc>
						</rate>
						<start>29601</start>
						<end>29693</end>
						<in>102540</in>
						<out>102632</out>
						<pproTicksIn>1041872025600000</pproTicksIn>
						<pproTicksOut>1042806804480000</pproTicksOut>
						<file id="file-61"/>
						<sourcetrack>
							<mediatype>audio</mediatype>
							<trackindex>1</trackindex>
						</sourcetrack>
						<logginginfo>
							<description></description>
							<scene></scene>
							<shottake></shottake>
							<lognote></lognote>
						</logginginfo>
						<labels>
							<label2>Caribbean</label2>
						</labels>
					</clipitem>
					<clipitem id="clipitem-1914" premiereChannelType="mono">
						<masterclipid>masterclip-65</masterclipid>
						<name>VB 1 H_03.wav</name>
						<enabled>TRUE</enabled>
						<duration>171138</duration>
						<rate>
							<timebase>25</timebase>
							<ntsc>FALSE</ntsc>
						</rate>
						<start>29693</start>
						<end>29760</end>
						<in>103317</in>
						<out>103384</out>
						<pproTicksIn>1049766842880000</pproTicksIn>
						<pproTicksOut>1050447605760000</pproTicksOut>
						<file id="file-61"/>
						<sourcetrack>
							<mediatype>audio</mediatype>
							<trackindex>1</trackindex>
						</sourcetrack>
						<logginginfo>
							<description></description>
							<scene></scene>
							<shottake></shottake>
							<lognote></lognote>
						</logginginfo>
						<labels>
							<label2>Caribbean</label2>
						</labels>
					</clipitem>
					<clipitem id="clipitem-1915" premiereChannelType="mono">
						<masterclipid>masterclip-65</masterclipid>
						<name>VB 1 H_03.wav</name>
						<enabled>TRUE</enabled>
						<duration>171138</duration>
						<rate>
							<timebase>25</timebase>
							<ntsc>FALSE</ntsc>
						</rate>
						<start>29760</start>
						<end>29774</end>
						<in>103438</in>
						<out>103452</out>
						<pproTicksIn>1050996280320000</pproTicksIn>
						<pproTicksOut>1051138529280000</pproTicksOut>
						<file id="file-61"/>
						<sourcetrack>
							<mediatype>audio</mediatype>
							<trackindex>1</trackindex>
						</sourcetrack>
						<logginginfo>
							<description></description>
							<scene></scene>
							<shottake></shottake>
							<lognote></lognote>
						</logginginfo>
						<labels>
							<label2>Caribbean</label2>
						</labels>
					</clipitem>
					<clipitem id="clipitem-1916" premiereChannelType="mono">
						<masterclipid>masterclip-65</masterclipid>
						<name>VB 1 H_03.wav</name>
						<enabled>TRUE</enabled>
						<duration>171138</duration>
						<rate>
							<timebase>25</timebase>
							<ntsc>FALSE</ntsc>
						</rate>
						<start>29774</start>
						<end>29865</end>
						<in>107326</in>
						<out>107417</out>
						<pproTicksIn>1090500848640000</pproTicksIn>
						<pproTicksOut>1091425466880000</pproTicksOut>
						<file id="file-61"/>
						<sourcetrack>
							<mediatype>audio</mediatype>
							<trackindex>1</trackindex>
						</sourcetrack>
						<logginginfo>
							<description></description>
							<scene></scene>
							<shottake></shottake>
							<lognote></lognote>
						</logginginfo>
						<labels>
							<label2>Caribbean</label2>
						</labels>
					</clipitem>
					<clipitem id="clipitem-1917" premiereChannelType="mono">
						<masterclipid>masterclip-65</masterclipid>
						<name>VB 1 H_03.wav</name>
						<enabled>TRUE</enabled>
						<duration>171138</duration>
						<rate>
							<timebase>25</timebase>
							<ntsc>FALSE</ntsc>
						</rate>
						<start>29865</start>
						<end>30769</end>
						<in>107708</in>
						<out>108612</out>
						<pproTicksIn>1094382213120000</pproTicksIn>
						<pproTicksOut>1103567431680000</pproTicksOut>
						<file id="file-61"/>
						<sourcetrack>
							<mediatype>audio</mediatype>
							<trackindex>1</trackindex>
						</sourcetrack>
						<logginginfo>
							<description></description>
							<scene></scene>
							<shottake></shottake>
							<lognote></lognote>
						</logginginfo>
						<labels>
							<label2>Caribbean</label2>
						</labels>
					</clipitem>
					<clipitem id="clipitem-1918" premiereChannelType="mono">
						<masterclipid>masterclip-65</masterclipid>
						<name>VB 1 H_03.wav</name>
						<enabled>TRUE</enabled>
						<duration>171138</duration>
						<rate>
							<timebase>25</timebase>
							<ntsc>FALSE</ntsc>
						</rate>
						<start>30769</start>
						<end>30880</end>
						<in>108644</in>
						<out>108755</out>
						<pproTicksIn>1103892572160000</pproTicksIn>
						<pproTicksOut>1105020403200000</pproTicksOut>
						<file id="file-61"/>
						<sourcetrack>
							<mediatype>audio</mediatype>
							<trackindex>1</trackindex>
						</sourcetrack>
						<logginginfo>
							<description></description>
							<scene></scene>
							<shottake></shottake>
							<lognote></lognote>
						</logginginfo>
						<labels>
							<label2>Caribbean</label2>
						</labels>
					</clipitem>
					<clipitem id="clipitem-1919" premiereChannelType="mono">
						<masterclipid>masterclip-65</masterclipid>
						<name>VB 1 H_03.wav</name>
						<enabled>TRUE</enabled>
						<duration>171138</duration>
						<rate>
							<timebase>25</timebase>
							<ntsc>FALSE</ntsc>
						</rate>
						<start>30880</start>
						<end>31513</end>
						<in>108776</in>
						<out>109409</out>
						<pproTicksIn>1105233776640000</pproTicksIn>
						<pproTicksOut>1111665461760000</pproTicksOut>
						<file id="file-61"/>
						<sourcetrack>
							<mediatype>audio</mediatype>
							<trackindex>1</trackindex>
						</sourcetrack>
						<logginginfo>
							<description></description>
							<scene></scene>
							<shottake></shottake>
							<lognote></lognote>
						</logginginfo>
						<labels>
							<label2>Caribbean</label2>
						</labels>
					</clipitem>
					<clipitem id="clipitem-1920" premiereChannelType="mono">
						<masterclipid>masterclip-65</masterclipid>
						<name>VB 1 H_03.wav</name>
						<enabled>TRUE</enabled>
						<duration>171138</duration>
						<rate>
							<timebase>25</timebase>
							<ntsc>FALSE</ntsc>
						</rate>
						<start>31513</start>
						<end>31909</end>
						<in>109447</in>
						<out>109843</out>
						<pproTicksIn>1112051566080000</pproTicksIn>
						<pproTicksOut>1116075179520000</pproTicksOut>
						<file id="file-61"/>
						<sourcetrack>
							<mediatype>audio</mediatype>
							<trackindex>1</trackindex>
						</sourcetrack>
						<logginginfo>
							<description></description>
							<scene></scene>
							<shottake></shottake>
							<lognote></lognote>
						</logginginfo>
						<labels>
							<label2>Caribbean</label2>
						</labels>
					</clipitem>
					<clipitem id="clipitem-1921" premiereChannelType="mono">
						<masterclipid>masterclip-65</masterclipid>
						<name>VB 1 H_03.wav</name>
						<enabled>TRUE</enabled>
						<duration>171138</duration>
						<rate>
							<timebase>25</timebase>
							<ntsc>FALSE</ntsc>
						</rate>
						<start>31909</start>
						<end>32128</end>
						<in>109926</in>
						<out>110145</out>
						<pproTicksIn>1116918512640000</pproTicksIn>
						<pproTicksOut>1119143692800000</pproTicksOut>
						<file id="file-61"/>
						<sourcetrack>
							<mediatype>audio</mediatype>
							<trackindex>1</trackindex>
						</sourcetrack>
						<logginginfo>
							<description></description>
							<scene></scene>
							<shottake></shottake>
							<lognote></lognote>
						</logginginfo>
						<labels>
							<label2>Caribbean</label2>
						</labels>
					</clipitem>
					<clipitem id="clipitem-1922" premiereChannelType="mono">
						<masterclipid>masterclip-65</masterclipid>
						<name>VB 1 H_03.wav</name>
						<enabled>TRUE</enabled>
						<duration>171138</duration>
						<rate>
							<timebase>25</timebase>
							<ntsc>FALSE</ntsc>
						</rate>
						<start>32128</start>
						<end>32853</end>
						<in>111277</in>
						<out>112002</out>
						<pproTicksIn>1130645537280000</pproTicksIn>
						<pproTicksOut>1138012001280000</pproTicksOut>
						<file id="file-61"/>
						<sourcetrack>
							<mediatype>audio</mediatype>
							<trackindex>1</trackindex>
						</sourcetrack>
						<logginginfo>
							<description></description>
							<scene></scene>
							<shottake></shottake>
							<lognote></lognote>
						</logginginfo>
						<labels>
							<label2>Caribbean</label2>
						</labels>
					</clipitem>
					<clipitem id="clipitem-1923" premiereChannelType="mono">
						<masterclipid>masterclip-65</masterclipid>
						<name>VB 1 H_03.wav</name>
						<enabled>TRUE</enabled>
						<duration>171138</duration>
						<rate>
							<timebase>25</timebase>
							<ntsc>FALSE</ntsc>
						</rate>
						<start>32853</start>
						<end>32890</end>
						<in>112002</in>
						<out>112039</out>
						<pproTicksIn>1138012001280000</pproTicksIn>
						<pproTicksOut>1138387944960000</pproTicksOut>
						<file id="file-61"/>
						<sourcetrack>
							<mediatype>audio</mediatype>
							<trackindex>1</trackindex>
						</sourcetrack>
						<logginginfo>
							<description></description>
							<scene></scene>
							<shottake></shottake>
							<lognote></lognote>
						</logginginfo>
						<labels>
							<label2>Caribbean</label2>
						</labels>
					</clipitem>
					<clipitem id="clipitem-1924" premiereChannelType="mono">
						<masterclipid>masterclip-65</masterclipid>
						<name>VB 1 H_03.wav</name>
						<enabled>TRUE</enabled>
						<duration>171138</duration>
						<rate>
							<timebase>25</timebase>
							<ntsc>FALSE</ntsc>
						</rate>
						<start>32890</start>
						<end>33281</end>
						<in>115277</in>
						<out>115668</out>
						<pproTicksIn>1171288097280000</pproTicksIn>
						<pproTicksOut>1175260907520000</pproTicksOut>
						<file id="file-61"/>
						<sourcetrack>
							<mediatype>audio</mediatype>
							<trackindex>1</trackindex>
						</sourcetrack>
						<logginginfo>
							<description></description>
							<scene></scene>
							<shottake></shottake>
							<lognote></lognote>
						</logginginfo>
						<labels>
							<label2>Caribbean</label2>
						</labels>
					</clipitem>
					<clipitem id="clipitem-1925" premiereChannelType="mono">
						<masterclipid>masterclip-65</masterclipid>
						<name>VB 1 H_03.wav</name>
						<enabled>TRUE</enabled>
						<duration>171138</duration>
						<rate>
							<timebase>25</timebase>
							<ntsc>FALSE</ntsc>
						</rate>
						<start>33281</start>
						<end>33357</end>
						<in>116203</in>
						<out>116279</out>
						<pproTicksIn>1180696849920000</pproTicksIn>
						<pproTicksOut>1181469058560000</pproTicksOut>
						<file id="file-61"/>
						<sourcetrack>
							<mediatype>audio</mediatype>
							<trackindex>1</trackindex>
						</sourcetrack>
						<logginginfo>
							<description></description>
							<scene></scene>
							<shottake></shottake>
							<lognote></lognote>
						</logginginfo>
						<labels>
							<label2>Caribbean</label2>
						</labels>
					</clipitem>
					<clipitem id="clipitem-1926" premiereChannelType="mono">
						<masterclipid>masterclip-65</masterclipid>
						<name>VB 1 H_03.wav</name>
						<enabled>TRUE</enabled>
						<duration>171138</duration>
						<rate>
							<timebase>25</timebase>
							<ntsc>FALSE</ntsc>
						</rate>
						<start>33357</start>
						<end>33465</end>
						<in>116298</in>
						<out>116406</out>
						<pproTicksIn>1181662110720000</pproTicksIn>
						<pproTicksOut>1182759459840000</pproTicksOut>
						<file id="file-61"/>
						<sourcetrack>
							<mediatype>audio</mediatype>
							<trackindex>1</trackindex>
						</sourcetrack>
						<logginginfo>
							<description></description>
							<scene></scene>
							<shottake></shottake>
							<lognote></lognote>
						</logginginfo>
						<labels>
							<label2>Caribbean</label2>
						</labels>
					</clipitem>
					<clipitem id="clipitem-1927" premiereChannelType="mono">
						<masterclipid>masterclip-65</masterclipid>
						<name>VB 1 H_03.wav</name>
						<enabled>TRUE</enabled>
						<duration>171138</duration>
						<rate>
							<timebase>25</timebase>
							<ntsc>FALSE</ntsc>
						</rate>
						<start>33465</start>
						<end>33766</end>
						<in>116510</in>
						<out>116811</out>
						<pproTicksIn>1183816166400000</pproTicksIn>
						<pproTicksOut>1186874519040000</pproTicksOut>
						<file id="file-61"/>
						<sourcetrack>
							<mediatype>audio</mediatype>
							<trackindex>1</trackindex>
						</sourcetrack>
						<logginginfo>
							<description></description>
							<scene></scene>
							<shottake></shottake>
							<lognote></lognote>
						</logginginfo>
						<labels>
							<label2>Caribbean</label2>
						</labels>
					</clipitem>
					<clipitem id="clipitem-1928" premiereChannelType="mono">
						<masterclipid>masterclip-65</masterclipid>
						<name>VB 1 H_03.wav</name>
						<enabled>TRUE</enabled>
						<duration>171138</duration>
						<rate>
							<timebase>25</timebase>
							<ntsc>FALSE</ntsc>
						</rate>
						<start>33766</start>
						<end>33992</end>
						<in>116811</in>
						<out>117037</out>
						<pproTicksIn>1186874519040000</pproTicksIn>
						<pproTicksOut>1189170823680000</pproTicksOut>
						<file id="file-61"/>
						<sourcetrack>
							<mediatype>audio</mediatype>
							<trackindex>1</trackindex>
						</sourcetrack>
						<logginginfo>
							<description></description>
							<scene></scene>
							<shottake></shottake>
							<lognote></lognote>
						</logginginfo>
						<labels>
							<label2>Caribbean</label2>
						</labels>
					</clipitem>
					<clipitem id="clipitem-1929" premiereChannelType="mono">
						<masterclipid>masterclip-65</masterclipid>
						<name>VB 1 H_03.wav</name>
						<enabled>TRUE</enabled>
						<duration>171138</duration>
						<rate>
							<timebase>25</timebase>
							<ntsc>FALSE</ntsc>
						</rate>
						<start>33992</start>
						<end>34035</end>
						<in>117226</in>
						<out>117269</out>
						<pproTicksIn>1191091184640000</pproTicksIn>
						<pproTicksOut>1191528092160000</pproTicksOut>
						<file id="file-61"/>
						<sourcetrack>
							<mediatype>audio</mediatype>
							<trackindex>1</trackindex>
						</sourcetrack>
						<logginginfo>
							<description></description>
							<scene></scene>
							<shottake></shottake>
							<lognote></lognote>
						</logginginfo>
						<labels>
							<label2>Caribbean</label2>
						</labels>
					</clipitem>
					<clipitem id="clipitem-1930" premiereChannelType="mono">
						<masterclipid>masterclip-65</masterclipid>
						<name>VB 1 H_03.wav</name>
						<enabled>TRUE</enabled>
						<duration>171138</duration>
						<rate>
							<timebase>25</timebase>
							<ntsc>FALSE</ntsc>
						</rate>
						<start>34035</start>
						<end>34790</end>
						<in>117633</in>
						<out>118388</out>
						<pproTicksIn>1195226565120000</pproTicksIn>
						<pproTicksOut>1202897848320000</pproTicksOut>
						<file id="file-61"/>
						<sourcetrack>
							<mediatype>audio</mediatype>
							<trackindex>1</trackindex>
						</sourcetrack>
						<logginginfo>
							<description></description>
							<scene></scene>
							<shottake></shottake>
							<lognote></lognote>
						</logginginfo>
						<labels>
							<label2>Caribbean</label2>
						</labels>
					</clipitem>
					<clipitem id="clipitem-1931" premiereChannelType="mono">
						<masterclipid>masterclip-65</masterclipid>
						<name>VB 1 H_03.wav</name>
						<enabled>TRUE</enabled>
						<duration>171138</duration>
						<rate>
							<timebase>25</timebase>
							<ntsc>FALSE</ntsc>
						</rate>
						<start>34790</start>
						<end>35299</end>
						<in>118612</in>
						<out>119121</out>
						<pproTicksIn>1205173831680000</pproTicksIn>
						<pproTicksOut>1210345597440000</pproTicksOut>
						<file id="file-61"/>
						<sourcetrack>
							<mediatype>audio</mediatype>
							<trackindex>1</trackindex>
						</sourcetrack>
						<logginginfo>
							<description></description>
							<scene></scene>
							<shottake></shottake>
							<lognote></lognote>
						</logginginfo>
						<labels>
							<label2>Caribbean</label2>
						</labels>
					</clipitem>
					<clipitem id="clipitem-1932" premiereChannelType="mono">
						<masterclipid>masterclip-65</masterclipid>
						<name>VB 1 H_03.wav</name>
						<enabled>TRUE</enabled>
						<duration>171138</duration>
						<rate>
							<timebase>25</timebase>
							<ntsc>FALSE</ntsc>
						</rate>
						<start>35299</start>
						<end>35672</end>
						<in>119201</in>
						<out>119574</out>
						<pproTicksIn>1211158448640000</pproTicksIn>
						<pproTicksOut>1214948367360000</pproTicksOut>
						<file id="file-61"/>
						<sourcetrack>
							<mediatype>audio</mediatype>
							<trackindex>1</trackindex>
						</sourcetrack>
						<logginginfo>
							<description></description>
							<scene></scene>
							<shottake></shottake>
							<lognote></lognote>
						</logginginfo>
						<labels>
							<label2>Caribbean</label2>
						</labels>
					</clipitem>
					<clipitem id="clipitem-1933" premiereChannelType="mono">
						<masterclipid>masterclip-65</masterclipid>
						<name>VB 1 H_03.wav</name>
						<enabled>TRUE</enabled>
						<duration>171138</duration>
						<rate>
							<timebase>25</timebase>
							<ntsc>FALSE</ntsc>
						</rate>
						<start>35672</start>
						<end>36434</end>
						<in>119583</in>
						<out>120345</out>
						<pproTicksIn>1215039813120000</pproTicksIn>
						<pproTicksOut>1222782220800000</pproTicksOut>
						<file id="file-61"/>
						<sourcetrack>
							<mediatype>audio</mediatype>
							<trackindex>1</trackindex>
						</sourcetrack>
						<logginginfo>
							<description></description>
							<scene></scene>
							<shottake></shottake>
							<lognote></lognote>
						</logginginfo>
						<labels>
							<label2>Caribbean</label2>
						</labels>
					</clipitem>
					<clipitem id="clipitem-1934" premiereChannelType="mono">
						<masterclipid>masterclip-65</masterclipid>
						<name>VB 1 H_03.wav</name>
						<enabled>TRUE</enabled>
						<duration>171138</duration>
						<rate>
							<timebase>25</timebase>
							<ntsc>FALSE</ntsc>
						</rate>
						<start>36434</start>
						<end>36524</end>
						<in>120539</in>
						<out>120629</out>
						<pproTicksIn>1224753384960000</pproTicksIn>
						<pproTicksOut>1225667842560000</pproTicksOut>
						<file id="file-61"/>
						<sourcetrack>
							<mediatype>audio</mediatype>
							<trackindex>1</trackindex>
						</sourcetrack>
						<logginginfo>
							<description></description>
							<scene></scene>
							<shottake></shottake>
							<lognote></lognote>
						</logginginfo>
						<labels>
							<label2>Caribbean</label2>
						</labels>
					</clipitem>
					<clipitem id="clipitem-1935" premiereChannelType="mono">
						<masterclipid>masterclip-65</masterclipid>
						<name>VB 1 H_03.wav</name>
						<enabled>TRUE</enabled>
						<duration>171138</duration>
						<rate>
							<timebase>25</timebase>
							<ntsc>FALSE</ntsc>
						</rate>
						<start>36524</start>
						<end>37155</end>
						<in>124899</in>
						<out>125530</out>
						<pproTicksIn>1269053775360000</pproTicksIn>
						<pproTicksOut>1275465139200000</pproTicksOut>
						<file id="file-61"/>
						<sourcetrack>
							<mediatype>audio</mediatype>
							<trackindex>1</trackindex>
						</sourcetrack>
						<logginginfo>
							<description></description>
							<scene></scene>
							<shottake></shottake>
							<lognote></lognote>
						</logginginfo>
						<labels>
							<label2>Caribbean</label2>
						</labels>
					</clipitem>
					<clipitem id="clipitem-1936" premiereChannelType="mono">
						<masterclipid>masterclip-65</masterclipid>
						<name>VB 1 H_03.wav</name>
						<enabled>TRUE</enabled>
						<duration>171138</duration>
						<rate>
							<timebase>25</timebase>
							<ntsc>FALSE</ntsc>
						</rate>
						<start>37732</start>
						<end>40503</end>
						<in>126107</in>
						<out>128878</out>
						<pproTicksIn>1281327828480000</pproTicksIn>
						<pproTicksOut>1309482961920000</pproTicksOut>
						<file id="file-61"/>
						<sourcetrack>
							<mediatype>audio</mediatype>
							<trackindex>1</trackindex>
						</sourcetrack>
						<logginginfo>
							<description></description>
							<scene></scene>
							<shottake></shottake>
							<lognote></lognote>
						</logginginfo>
						<labels>
							<label2>Caribbean</label2>
						</labels>
					</clipitem>
					<clipitem id="clipitem-1937" premiereChannelType="mono">
						<masterclipid>masterclip-65</masterclipid>
						<name>VB 1 H_03.wav</name>
						<enabled>TRUE</enabled>
						<duration>171138</duration>
						<rate>
							<timebase>25</timebase>
							<ntsc>FALSE</ntsc>
						</rate>
						<start>40503</start>
						<end>40839</end>
						<in>128926</in>
						<out>129262</out>
						<pproTicksIn>1309970672640000</pproTicksIn>
						<pproTicksOut>1313384647680000</pproTicksOut>
						<file id="file-61"/>
						<sourcetrack>
							<mediatype>audio</mediatype>
							<trackindex>1</trackindex>
						</sourcetrack>
						<logginginfo>
							<description></description>
							<scene></scene>
							<shottake></shottake>
							<lognote></lognote>
						</logginginfo>
						<labels>
							<label2>Caribbean</label2>
						</labels>
					</clipitem>
					<clipitem id="clipitem-1938" premiereChannelType="mono">
						<masterclipid>masterclip-65</masterclipid>
						<name>VB 1 H_03.wav</name>
						<enabled>TRUE</enabled>
						<duration>171138</duration>
						<rate>
							<timebase>25</timebase>
							<ntsc>FALSE</ntsc>
						</rate>
						<start>40839</start>
						<end>41006</end>
						<in>129262</in>
						<out>129429</out>
						<pproTicksIn>1313384647680000</pproTicksIn>
						<pproTicksOut>1315081474560000</pproTicksOut>
						<file id="file-61"/>
						<sourcetrack>
							<mediatype>audio</mediatype>
							<trackindex>1</trackindex>
						</sourcetrack>
						<logginginfo>
							<description></description>
							<scene></scene>
							<shottake></shottake>
							<lognote></lognote>
						</logginginfo>
						<labels>
							<label2>Caribbean</label2>
						</labels>
					</clipitem>
					<clipitem id="clipitem-1939" premiereChannelType="mono">
						<masterclipid>masterclip-65</masterclipid>
						<name>VB 1 H_03.wav</name>
						<enabled>TRUE</enabled>
						<duration>171138</duration>
						<rate>
							<timebase>25</timebase>
							<ntsc>FALSE</ntsc>
						</rate>
						<start>41006</start>
						<end>41144</end>
						<in>129476</in>
						<out>129614</out>
						<pproTicksIn>1315559024640000</pproTicksIn>
						<pproTicksOut>1316961192960000</pproTicksOut>
						<file id="file-61"/>
						<sourcetrack>
							<mediatype>audio</mediatype>
							<trackindex>1</trackindex>
						</sourcetrack>
						<logginginfo>
							<description></description>
							<scene></scene>
							<shottake></shottake>
							<lognote></lognote>
						</logginginfo>
						<labels>
							<label2>Caribbean</label2>
						</labels>
					</clipitem>
					<clipitem id="clipitem-1940" premiereChannelType="mono">
						<masterclipid>masterclip-65</masterclipid>
						<name>VB 1 H_03.wav</name>
						<enabled>TRUE</enabled>
						<duration>171138</duration>
						<rate>
							<timebase>25</timebase>
							<ntsc>FALSE</ntsc>
						</rate>
						<start>41144</start>
						<end>41720</end>
						<in>131417</in>
						<out>131993</out>
						<pproTicksIn>1335280826880000</pproTicksIn>
						<pproTicksOut>1341133355520000</pproTicksOut>
						<file id="file-61"/>
						<sourcetrack>
							<mediatype>audio</mediatype>
							<trackindex>1</trackindex>
						</sourcetrack>
						<logginginfo>
							<description></description>
							<scene></scene>
							<shottake></shottake>
							<lognote></lognote>
						</logginginfo>
						<labels>
							<label2>Caribbean</label2>
						</labels>
					</clipitem>
					<clipitem id="clipitem-1941" premiereChannelType="mono">
						<masterclipid>masterclip-65</masterclipid>
						<name>VB 1 H_03.wav</name>
						<enabled>TRUE</enabled>
						<duration>171138</duration>
						<rate>
							<timebase>25</timebase>
							<ntsc>FALSE</ntsc>
						</rate>
						<start>41720</start>
						<end>42122</end>
						<in>132051</in>
						<out>132453</out>
						<pproTicksIn>1341722672640000</pproTicksIn>
						<pproTicksOut>1345807249920000</pproTicksOut>
						<file id="file-61"/>
						<sourcetrack>
							<mediatype>audio</mediatype>
							<trackindex>1</trackindex>
						</sourcetrack>
						<logginginfo>
							<description></description>
							<scene></scene>
							<shottake></shottake>
							<lognote></lognote>
						</logginginfo>
						<labels>
							<label2>Caribbean</label2>
						</labels>
					</clipitem>
					<clipitem id="clipitem-1942" premiereChannelType="mono">
						<masterclipid>masterclip-65</masterclipid>
						<name>VB 1 H_03.wav</name>
						<enabled>TRUE</enabled>
						<duration>171138</duration>
						<rate>
							<timebase>25</timebase>
							<ntsc>FALSE</ntsc>
						</rate>
						<start>42122</start>
						<end>42277</end>
						<in>132657</in>
						<out>132812</out>
						<pproTicksIn>1347880020480000</pproTicksIn>
						<pproTicksOut>1349454919680000</pproTicksOut>
						<file id="file-61"/>
						<sourcetrack>
							<mediatype>audio</mediatype>
							<trackindex>1</trackindex>
						</sourcetrack>
						<logginginfo>
							<description></description>
							<scene></scene>
							<shottake></shottake>
							<lognote></lognote>
						</logginginfo>
						<labels>
							<label2>Caribbean</label2>
						</labels>
					</clipitem>
					<clipitem id="clipitem-1943" premiereChannelType="mono">
						<masterclipid>masterclip-65</masterclipid>
						<name>VB 1 H_03.wav</name>
						<enabled>TRUE</enabled>
						<duration>171138</duration>
						<rate>
							<timebase>25</timebase>
							<ntsc>FALSE</ntsc>
						</rate>
						<start>42277</start>
						<end>42347</end>
						<in>133359</in>
						<out>133429</out>
						<pproTicksIn>1355012789760000</pproTicksIn>
						<pproTicksOut>1355724034560000</pproTicksOut>
						<file id="file-61"/>
						<sourcetrack>
							<mediatype>audio</mediatype>
							<trackindex>1</trackindex>
						</sourcetrack>
						<logginginfo>
							<description></description>
							<scene></scene>
							<shottake></shottake>
							<lognote></lognote>
						</logginginfo>
						<labels>
							<label2>Caribbean</label2>
						</labels>
					</clipitem>
					<clipitem id="clipitem-1944" premiereChannelType="mono">
						<masterclipid>masterclip-65</masterclipid>
						<name>VB 1 H_03.wav</name>
						<enabled>TRUE</enabled>
						<duration>171138</duration>
						<rate>
							<timebase>25</timebase>
							<ntsc>FALSE</ntsc>
						</rate>
						<start>42347</start>
						<end>42499</end>
						<in>133852</in>
						<out>134004</out>
						<pproTicksIn>1360021985280000</pproTicksIn>
						<pproTicksOut>1361566402560000</pproTicksOut>
						<file id="file-61"/>
						<sourcetrack>
							<mediatype>audio</mediatype>
							<trackindex>1</trackindex>
						</sourcetrack>
						<logginginfo>
							<description></description>
							<scene></scene>
							<shottake></shottake>
							<lognote></lognote>
						</logginginfo>
						<labels>
							<label2>Caribbean</label2>
						</labels>
					</clipitem>
					<clipitem id="clipitem-1945" premiereChannelType="mono">
						<masterclipid>masterclip-65</masterclipid>
						<name>VB 1 H_03.wav</name>
						<enabled>TRUE</enabled>
						<duration>171138</duration>
						<rate>
							<timebase>25</timebase>
							<ntsc>FALSE</ntsc>
						</rate>
						<start>42499</start>
						<end>42832</end>
						<in>134099</in>
						<out>134432</out>
						<pproTicksIn>1362531663360000</pproTicksIn>
						<pproTicksOut>1365915156480000</pproTicksOut>
						<file id="file-61"/>
						<sourcetrack>
							<mediatype>audio</mediatype>
							<trackindex>1</trackindex>
						</sourcetrack>
						<logginginfo>
							<description></description>
							<scene></scene>
							<shottake></shottake>
							<lognote></lognote>
						</logginginfo>
						<labels>
							<label2>Caribbean</label2>
						</labels>
					</clipitem>
					<clipitem id="clipitem-1946" premiereChannelType="mono">
						<masterclipid>masterclip-65</masterclipid>
						<name>VB 1 H_03.wav</name>
						<enabled>TRUE</enabled>
						<duration>171138</duration>
						<rate>
							<timebase>25</timebase>
							<ntsc>FALSE</ntsc>
						</rate>
						<start>42832</start>
						<end>43282</end>
						<in>134992</in>
						<out>135442</out>
						<pproTicksIn>1371605114880000</pproTicksIn>
						<pproTicksOut>1376177402880000</pproTicksOut>
						<file id="file-61"/>
						<sourcetrack>
							<mediatype>audio</mediatype>
							<trackindex>1</trackindex>
						</sourcetrack>
						<logginginfo>
							<description></description>
							<scene></scene>
							<shottake></shottake>
							<lognote></lognote>
						</logginginfo>
						<labels>
							<label2>Caribbean</label2>
						</labels>
					</clipitem>
					<clipitem id="clipitem-1947" premiereChannelType="mono">
						<masterclipid>masterclip-65</masterclipid>
						<name>VB 1 H_03.wav</name>
						<enabled>TRUE</enabled>
						<duration>171138</duration>
						<rate>
							<timebase>25</timebase>
							<ntsc>FALSE</ntsc>
						</rate>
						<start>43282</start>
						<end>43553</end>
						<in>135648</in>
						<out>135919</out>
						<pproTicksIn>1378270494720000</pproTicksIn>
						<pproTicksOut>1381024028160000</pproTicksOut>
						<file id="file-61"/>
						<sourcetrack>
							<mediatype>audio</mediatype>
							<trackindex>1</trackindex>
						</sourcetrack>
						<logginginfo>
							<description></description>
							<scene></scene>
							<shottake></shottake>
							<lognote></lognote>
						</logginginfo>
						<labels>
							<label2>Caribbean</label2>
						</labels>
					</clipitem>
					<clipitem id="clipitem-1948" premiereChannelType="mono">
						<masterclipid>masterclip-65</masterclipid>
						<name>VB 1 H_03.wav</name>
						<enabled>TRUE</enabled>
						<duration>171138</duration>
						<rate>
							<timebase>25</timebase>
							<ntsc>FALSE</ntsc>
						</rate>
						<start>43553</start>
						<end>44385</end>
						<in>136003</in>
						<out>136835</out>
						<pproTicksIn>1381877521920000</pproTicksIn>
						<pproTicksOut>1390331174400000</pproTicksOut>
						<file id="file-61"/>
						<sourcetrack>
							<mediatype>audio</mediatype>
							<trackindex>1</trackindex>
						</sourcetrack>
						<logginginfo>
							<description></description>
							<scene></scene>
							<shottake></shottake>
							<lognote></lognote>
						</logginginfo>
						<labels>
							<label2>Caribbean</label2>
						</labels>
					</clipitem>
					<clipitem id="clipitem-1949" premiereChannelType="mono">
						<masterclipid>masterclip-65</masterclipid>
						<name>VB 1 H_03.wav</name>
						<enabled>TRUE</enabled>
						<duration>171138</duration>
						<rate>
							<timebase>25</timebase>
							<ntsc>FALSE</ntsc>
						</rate>
						<start>44385</start>
						<end>44583</end>
						<in>137077</in>
						<out>137275</out>
						<pproTicksIn>1392790049280000</pproTicksIn>
						<pproTicksOut>1394801856000000</pproTicksOut>
						<file id="file-61"/>
						<sourcetrack>
							<mediatype>audio</mediatype>
							<trackindex>1</trackindex>
						</sourcetrack>
						<logginginfo>
							<description></description>
							<scene></scene>
							<shottake></shottake>
							<lognote></lognote>
						</logginginfo>
						<labels>
							<label2>Caribbean</label2>
						</labels>
					</clipitem>
					<clipitem id="clipitem-1950" premiereChannelType="mono">
						<masterclipid>masterclip-65</masterclipid>
						<name>VB 1 H_03.wav</name>
						<enabled>TRUE</enabled>
						<duration>171138</duration>
						<rate>
							<timebase>25</timebase>
							<ntsc>FALSE</ntsc>
						</rate>
						<start>44583</start>
						<end>44650</end>
						<in>137376</in>
						<out>137443</out>
						<pproTicksIn>1395828080640000</pproTicksIn>
						<pproTicksOut>1396508843520000</pproTicksOut>
						<file id="file-61"/>
						<sourcetrack>
							<mediatype>audio</mediatype>
							<trackindex>1</trackindex>
						</sourcetrack>
						<logginginfo>
							<description></description>
							<scene></scene>
							<shottake></shottake>
							<lognote></lognote>
						</logginginfo>
						<labels>
							<label2>Caribbean</label2>
						</labels>
					</clipitem>
					<clipitem id="clipitem-1951" premiereChannelType="mono">
						<masterclipid>masterclip-65</masterclipid>
						<name>VB 1 H_03.wav</name>
						<enabled>TRUE</enabled>
						<duration>171138</duration>
						<rate>
							<timebase>25</timebase>
							<ntsc>FALSE</ntsc>
						</rate>
						<start>44650</start>
						<end>45287</end>
						<in>137505</in>
						<out>138142</out>
						<pproTicksIn>1397138803200000</pproTicksIn>
						<pproTicksOut>1403611130880000</pproTicksOut>
						<file id="file-61"/>
						<sourcetrack>
							<mediatype>audio</mediatype>
							<trackindex>1</trackindex>
						</sourcetrack>
						<logginginfo>
							<description></description>
							<scene></scene>
							<shottake></shottake>
							<lognote></lognote>
						</logginginfo>
						<labels>
							<label2>Caribbean</label2>
						</labels>
					</clipitem>
					<clipitem id="clipitem-1952" premiereChannelType="mono">
						<masterclipid>masterclip-65</masterclipid>
						<name>VB 1 H_03.wav</name>
						<enabled>TRUE</enabled>
						<duration>171138</duration>
						<rate>
							<timebase>25</timebase>
							<ntsc>FALSE</ntsc>
						</rate>
						<start>45287</start>
						<end>45692</end>
						<in>138274</in>
						<out>138679</out>
						<pproTicksIn>1404952335360000</pproTicksIn>
						<pproTicksOut>1409067394560000</pproTicksOut>
						<file id="file-61"/>
						<sourcetrack>
							<mediatype>audio</mediatype>
							<trackindex>1</trackindex>
						</sourcetrack>
						<logginginfo>
							<description></description>
							<scene></scene>
							<shottake></shottake>
							<lognote></lognote>
						</logginginfo>
						<labels>
							<label2>Caribbean</label2>
						</labels>
					</clipitem>
					<clipitem id="clipitem-1953" premiereChannelType="mono">
						<masterclipid>masterclip-65</masterclipid>
						<name>VB 1 H_03.wav</name>
						<enabled>TRUE</enabled>
						<duration>171138</duration>
						<rate>
							<timebase>25</timebase>
							<ntsc>FALSE</ntsc>
						</rate>
						<start>45692</start>
						<end>45923</end>
						<in>138810</in>
						<out>139041</out>
						<pproTicksIn>1410398438400000</pproTicksIn>
						<pproTicksOut>1412745546240000</pproTicksOut>
						<file id="file-61"/>
						<sourcetrack>
							<mediatype>audio</mediatype>
							<trackindex>1</trackindex>
						</sourcetrack>
						<logginginfo>
							<description></description>
							<scene></scene>
							<shottake></shottake>
							<lognote></lognote>
						</logginginfo>
						<labels>
							<label2>Caribbean</label2>
						</labels>
					</clipitem>
					<clipitem id="clipitem-1954" premiereChannelType="mono">
						<masterclipid>masterclip-65</masterclipid>
						<name>VB 1 H_03.wav</name>
						<enabled>TRUE</enabled>
						<duration>171138</duration>
						<rate>
							<timebase>25</timebase>
							<ntsc>FALSE</ntsc>
						</rate>
						<start>45923</start>
						<end>46349</end>
						<in>139073</in>
						<out>139499</out>
						<pproTicksIn>1413070686720000</pproTicksIn>
						<pproTicksOut>1417399119360000</pproTicksOut>
						<file id="file-61"/>
						<sourcetrack>
							<mediatype>audio</mediatype>
							<trackindex>1</trackindex>
						</sourcetrack>
						<logginginfo>
							<description></description>
							<scene></scene>
							<shottake></shottake>
							<lognote></lognote>
						</logginginfo>
						<labels>
							<label2>Caribbean</label2>
						</labels>
					</clipitem>
					<clipitem id="clipitem-1955" premiereChannelType="mono">
						<masterclipid>masterclip-65</masterclipid>
						<name>VB 1 H_03.wav</name>
						<enabled>TRUE</enabled>
						<duration>171138</duration>
						<rate>
							<timebase>25</timebase>
							<ntsc>FALSE</ntsc>
						</rate>
						<start>46349</start>
						<end>46455</end>
						<in>159642</in>
						<out>159748</out>
						<pproTicksIn>1622064890880000</pproTicksIn>
						<pproTicksOut>1623141918720000</pproTicksOut>
						<file id="file-61"/>
						<sourcetrack>
							<mediatype>audio</mediatype>
							<trackindex>1</trackindex>
						</sourcetrack>
						<logginginfo>
							<description></description>
							<scene></scene>
							<shottake></shottake>
							<lognote></lognote>
						</logginginfo>
						<labels>
							<label2>Caribbean</label2>
						</labels>
					</clipitem>
					<clipitem id="clipitem-1956" premiereChannelType="mono">
						<masterclipid>masterclip-65</masterclipid>
						<name>VB 1 H_03.wav</name>
						<enabled>TRUE</enabled>
						<duration>171138</duration>
						<rate>
							<timebase>25</timebase>
							<ntsc>FALSE</ntsc>
						</rate>
						<start>46455</start>
						<end>46911</end>
						<in>140048</in>
						<out>140504</out>
						<pproTicksIn>1422977310720000</pproTicksIn>
						<pproTicksOut>1427610562560000</pproTicksOut>
						<file id="file-61"/>
						<sourcetrack>
							<mediatype>audio</mediatype>
							<trackindex>1</trackindex>
						</sourcetrack>
						<logginginfo>
							<description></description>
							<scene></scene>
							<shottake></shottake>
							<lognote></lognote>
						</logginginfo>
						<labels>
							<label2>Caribbean</label2>
						</labels>
					</clipitem>
					<clipitem id="clipitem-1957" premiereChannelType="mono">
						<masterclipid>masterclip-65</masterclipid>
						<name>VB 1 H_03.wav</name>
						<enabled>TRUE</enabled>
						<duration>171138</duration>
						<rate>
							<timebase>25</timebase>
							<ntsc>FALSE</ntsc>
						</rate>
						<start>46911</start>
						<end>47138</end>
						<in>140817</in>
						<out>141044</out>
						<pproTicksIn>1430790842880000</pproTicksIn>
						<pproTicksOut>1433097308160000</pproTicksOut>
						<file id="file-61"/>
						<sourcetrack>
							<mediatype>audio</mediatype>
							<trackindex>1</trackindex>
						</sourcetrack>
						<logginginfo>
							<description></description>
							<scene></scene>
							<shottake></shottake>
							<lognote></lognote>
						</logginginfo>
						<labels>
							<label2>Caribbean</label2>
						</labels>
					</clipitem>
					<clipitem id="clipitem-1958" premiereChannelType="mono">
						<masterclipid>masterclip-65</masterclipid>
						<name>VB 1 H_03.wav</name>
						<enabled>TRUE</enabled>
						<duration>171138</duration>
						<rate>
							<timebase>25</timebase>
							<ntsc>FALSE</ntsc>
						</rate>
						<start>47138</start>
						<end>47335</end>
						<in>141203</in>
						<out>141400</out>
						<pproTicksIn>1434712849920000</pproTicksIn>
						<pproTicksOut>1436714496000000</pproTicksOut>
						<file id="file-61"/>
						<sourcetrack>
							<mediatype>audio</mediatype>
							<trackindex>1</trackindex>
						</sourcetrack>
						<logginginfo>
							<description></description>
							<scene></scene>
							<shottake></shottake>
							<lognote></lognote>
						</logginginfo>
						<labels>
							<label2>Caribbean</label2>
						</labels>
					</clipitem>
					<clipitem id="clipitem-1959" premiereChannelType="mono">
						<masterclipid>masterclip-65</masterclipid>
						<name>VB 1 H_03.wav</name>
						<enabled>TRUE</enabled>
						<duration>171138</duration>
						<rate>
							<timebase>25</timebase>
							<ntsc>FALSE</ntsc>
						</rate>
						<start>47335</start>
						<end>47513</end>
						<in>141454</in>
						<out>141632</out>
						<pproTicksIn>1437263170560000</pproTicksIn>
						<pproTicksOut>1439071764480000</pproTicksOut>
						<file id="file-61"/>
						<sourcetrack>
							<mediatype>audio</mediatype>
							<trackindex>1</trackindex>
						</sourcetrack>
						<logginginfo>
							<description></description>
							<scene></scene>
							<shottake></shottake>
							<lognote></lognote>
						</logginginfo>
						<labels>
							<label2>Caribbean</label2>
						</labels>
					</clipitem>
					<clipitem id="clipitem-1960" premiereChannelType="mono">
						<masterclipid>masterclip-65</masterclipid>
						<name>VB 1 H_03.wav</name>
						<enabled>TRUE</enabled>
						<duration>171138</duration>
						<rate>
							<timebase>25</timebase>
							<ntsc>FALSE</ntsc>
						</rate>
						<start>47513</start>
						<end>47723</end>
						<in>141671</in>
						<out>141881</out>
						<pproTicksIn>1439468029440000</pproTicksIn>
						<pproTicksOut>1441601763840000</pproTicksOut>
						<file id="file-61"/>
						<sourcetrack>
							<mediatype>audio</mediatype>
							<trackindex>1</trackindex>
						</sourcetrack>
						<logginginfo>
							<description></description>
							<scene></scene>
							<shottake></shottake>
							<lognote></lognote>
						</logginginfo>
						<labels>
							<label2>Caribbean</label2>
						</labels>
					</clipitem>
					<clipitem id="clipitem-1961" premiereChannelType="mono">
						<masterclipid>masterclip-65</masterclipid>
						<name>VB 1 H_03.wav</name>
						<enabled>TRUE</enabled>
						<duration>171138</duration>
						<rate>
							<timebase>25</timebase>
							<ntsc>FALSE</ntsc>
						</rate>
						<start>47723</start>
						<end>48040</end>
						<in>141894</in>
						<out>142211</out>
						<pproTicksIn>1441733852160000</pproTicksIn>
						<pproTicksOut>1444954775040000</pproTicksOut>
						<file id="file-61"/>
						<sourcetrack>
							<mediatype>audio</mediatype>
							<trackindex>1</trackindex>
						</sourcetrack>
						<logginginfo>
							<description></description>
							<scene></scene>
							<shottake></shottake>
							<lognote></lognote>
						</logginginfo>
						<labels>
							<label2>Caribbean</label2>
						</labels>
					</clipitem>
					<clipitem id="clipitem-1962" premiereChannelType="mono">
						<masterclipid>masterclip-65</masterclipid>
						<name>VB 1 H_03.wav</name>
						<enabled>TRUE</enabled>
						<duration>171138</duration>
						<rate>
							<timebase>25</timebase>
							<ntsc>FALSE</ntsc>
						</rate>
						<start>48040</start>
						<end>48766</end>
						<in>142351</in>
						<out>143077</out>
						<pproTicksIn>1446377264640000</pproTicksIn>
						<pproTicksOut>1453753889280000</pproTicksOut>
						<file id="file-61"/>
						<sourcetrack>
							<mediatype>audio</mediatype>
							<trackindex>1</trackindex>
						</sourcetrack>
						<logginginfo>
							<description></description>
							<scene></scene>
							<shottake></shottake>
							<lognote></lognote>
						</logginginfo>
						<labels>
							<label2>Caribbean</label2>
						</labels>
					</clipitem>
					<clipitem id="clipitem-1963" premiereChannelType="mono">
						<masterclipid>masterclip-65</masterclipid>
						<name>VB 1 H_03.wav</name>
						<enabled>TRUE</enabled>
						<duration>171138</duration>
						<rate>
							<timebase>25</timebase>
							<ntsc>FALSE</ntsc>
						</rate>
						<start>48766</start>
						<end>49706</end>
						<in>143684</in>
						<out>144624</out>
						<pproTicksIn>1459921397760000</pproTicksIn>
						<pproTicksOut>1469472399360000</pproTicksOut>
						<file id="file-61"/>
						<sourcetrack>
							<mediatype>audio</mediatype>
							<trackindex>1</trackindex>
						</sourcetrack>
						<logginginfo>
							<description></description>
							<scene></scene>
							<shottake></shottake>
							<lognote></lognote>
						</logginginfo>
						<labels>
							<label2>Caribbean</label2>
						</labels>
					</clipitem>
					<clipitem id="clipitem-1964" premiereChannelType="mono">
						<masterclipid>masterclip-65</masterclipid>
						<name>VB 1 H_03.wav</name>
						<enabled>TRUE</enabled>
						<duration>171138</duration>
						<rate>
							<timebase>25</timebase>
							<ntsc>FALSE</ntsc>
						</rate>
						<start>49706</start>
						<end>49762</end>
						<in>147186</in>
						<out>147242</out>
						<pproTicksIn>1495503959040000</pproTicksIn>
						<pproTicksOut>1496072954880000</pproTicksOut>
						<file id="file-61"/>
						<sourcetrack>
							<mediatype>audio</mediatype>
							<trackindex>1</trackindex>
						</sourcetrack>
						<logginginfo>
							<description></description>
							<scene></scene>
							<shottake></shottake>
							<lognote></lognote>
						</logginginfo>
						<labels>
							<label2>Caribbean</label2>
						</labels>
					</clipitem>
					<clipitem id="clipitem-1965" premiereChannelType="mono">
						<masterclipid>masterclip-65</masterclipid>
						<name>VB 1 H_03.wav</name>
						<enabled>TRUE</enabled>
						<duration>171138</duration>
						<rate>
							<timebase>25</timebase>
							<ntsc>FALSE</ntsc>
						</rate>
						<start>49762</start>
						<end>49948</end>
						<in>153681</in>
						<out>153867</out>
						<pproTicksIn>1561497315840000</pproTicksIn>
						<pproTicksOut>1563387194880000</pproTicksOut>
						<file id="file-61"/>
						<sourcetrack>
							<mediatype>audio</mediatype>
							<trackindex>1</trackindex>
						</sourcetrack>
						<logginginfo>
							<description></description>
							<scene></scene>
							<shottake></shottake>
							<lognote></lognote>
						</logginginfo>
						<labels>
							<label2>Caribbean</label2>
						</labels>
					</clipitem>
					<clipitem id="clipitem-1966" premiereChannelType="mono">
						<masterclipid>masterclip-65</masterclipid>
						<name>VB 1 H_03.wav</name>
						<enabled>TRUE</enabled>
						<duration>171138</duration>
						<rate>
							<timebase>25</timebase>
							<ntsc>FALSE</ntsc>
						</rate>
						<start>49948</start>
						<end>50390</end>
						<in>153946</in>
						<out>154388</out>
						<pproTicksIn>1564189885440000</pproTicksIn>
						<pproTicksOut>1568680888320000</pproTicksOut>
						<file id="file-61"/>
						<sourcetrack>
							<mediatype>audio</mediatype>
							<trackindex>1</trackindex>
						</sourcetrack>
						<logginginfo>
							<description></description>
							<scene></scene>
							<shottake></shottake>
							<lognote></lognote>
						</logginginfo>
						<labels>
							<label2>Caribbean</label2>
						</labels>
					</clipitem>
					<clipitem id="clipitem-1967" premiereChannelType="mono">
						<masterclipid>masterclip-65</masterclipid>
						<name>VB 1 H_03.wav</name>
						<enabled>TRUE</enabled>
						<duration>171138</duration>
						<rate>
							<timebase>25</timebase>
							<ntsc>FALSE</ntsc>
						</rate>
						<start>50390</start>
						<end>50983</end>
						<in>156215</in>
						<out>156808</out>
						<pproTicksIn>1587244377600000</pproTicksIn>
						<pproTicksOut>1593269637120000</pproTicksOut>
						<file id="file-61"/>
						<sourcetrack>
							<mediatype>audio</mediatype>
							<trackindex>1</trackindex>
						</sourcetrack>
						<logginginfo>
							<description></description>
							<scene></scene>
							<shottake></shottake>
							<lognote></lognote>
						</logginginfo>
						<labels>
							<label2>Caribbean</label2>
						</labels>
					</clipitem>
					<clipitem id="clipitem-1968" premiereChannelType="mono">
						<masterclipid>masterclip-65</masterclipid>
						<name>VB 1 H_03.wav</name>
						<enabled>TRUE</enabled>
						<duration>171138</duration>
						<rate>
							<timebase>25</timebase>
							<ntsc>FALSE</ntsc>
						</rate>
						<start>50983</start>
						<end>53597</end>
						<in>157028</in>
						<out>159642</out>
						<pproTicksIn>1595504977920000</pproTicksIn>
						<pproTicksOut>1622064890880000</pproTicksOut>
						<file id="file-61"/>
						<sourcetrack>
							<mediatype>audio</mediatype>
							<trackindex>1</trackindex>
						</sourcetrack>
						<logginginfo>
							<description></description>
							<scene></scene>
							<shottake></shottake>
							<lognote></lognote>
						</logginginfo>
						<labels>
							<label2>Caribbean</label2>
						</labels>
					</clipitem>
					<clipitem id="clipitem-1969" premiereChannelType="mono">
						<masterclipid>masterclip-65</masterclipid>
						<name>VB 1 H_03.wav</name>
						<enabled>TRUE</enabled>
						<duration>171138</duration>
						<rate>
							<timebase>25</timebase>
							<ntsc>FALSE</ntsc>
						</rate>
						<start>53597</start>
						<end>53636</end>
						<in>160568</in>
						<out>160607</out>
						<pproTicksIn>1631473643520000</pproTicksIn>
						<pproTicksOut>1631869908480000</pproTicksOut>
						<file id="file-61"/>
						<sourcetrack>
							<mediatype>audio</mediatype>
							<trackindex>1</trackindex>
						</sourcetrack>
						<logginginfo>
							<description></description>
							<scene></scene>
							<shottake></shottake>
							<lognote></lognote>
						</logginginfo>
						<labels>
							<label2>Caribbean</label2>
						</labels>
					</clipitem>
					<clipitem id="clipitem-1970" premiereChannelType="mono">
						<masterclipid>masterclip-65</masterclipid>
						<name>VB 1 H_03.wav</name>
						<enabled>TRUE</enabled>
						<duration>171138</duration>
						<rate>
							<timebase>25</timebase>
							<ntsc>FALSE</ntsc>
						</rate>
						<start>53636</start>
						<end>55369</end>
						<in>161146</in>
						<out>162879</out>
						<pproTicksIn>1637346493440000</pproTicksIn>
						<pproTicksOut>1654954882560000</pproTicksOut>
						<file id="file-61"/>
						<sourcetrack>
							<mediatype>audio</mediatype>
							<trackindex>1</trackindex>
						</sourcetrack>
						<logginginfo>
							<description></description>
							<scene></scene>
							<shottake></shottake>
							<lognote></lognote>
						</logginginfo>
						<labels>
							<label2>Caribbean</label2>
						</labels>
					</clipitem>
					<clipitem id="clipitem-1971" premiereChannelType="mono">
						<masterclipid>masterclip-65</masterclipid>
						<name>VB 1 H_03.wav</name>
						<enabled>TRUE</enabled>
						<duration>171138</duration>
						<rate>
							<timebase>25</timebase>
							<ntsc>FALSE</ntsc>
						</rate>
						<start>55369</start>
						<end>55449</end>
						<in>162899</in>
						<out>162979</out>
						<pproTicksIn>1655158095360000</pproTicksIn>
						<pproTicksOut>1655970946560000</pproTicksOut>
						<file id="file-61"/>
						<sourcetrack>
							<mediatype>audio</mediatype>
							<trackindex>1</trackindex>
						</sourcetrack>
						<logginginfo>
							<description></description>
							<scene></scene>
							<shottake></shottake>
							<lognote></lognote>
						</logginginfo>
						<labels>
							<label2>Caribbean</label2>
						</labels>
					</clipitem>
					<clipitem id="clipitem-1972" premiereChannelType="mono">
						<masterclipid>masterclip-65</masterclipid>
						<name>VB 1 H_03.wav</name>
						<enabled>TRUE</enabled>
						<duration>171138</duration>
						<rate>
							<timebase>25</timebase>
							<ntsc>FALSE</ntsc>
						</rate>
						<start>55449</start>
						<end>55738</end>
						<in>163146</in>
						<out>163435</out>
						<pproTicksIn>1657667773440000</pproTicksIn>
						<pproTicksOut>1660604198400000</pproTicksOut>
						<file id="file-61"/>
						<sourcetrack>
							<mediatype>audio</mediatype>
							<trackindex>1</trackindex>
						</sourcetrack>
						<logginginfo>
							<description></description>
							<scene></scene>
							<shottake></shottake>
							<lognote></lognote>
						</logginginfo>
						<labels>
							<label2>Caribbean</label2>
						</labels>
					</clipitem>
					<clipitem id="clipitem-1973" premiereChannelType="mono">
						<masterclipid>masterclip-65</masterclipid>
						<name>VB 1 H_03.wav</name>
						<enabled>TRUE</enabled>
						<duration>171138</duration>
						<rate>
							<timebase>25</timebase>
							<ntsc>FALSE</ntsc>
						</rate>
						<start>55738</start>
						<end>55905</end>
						<in>163648</in>
						<out>163815</out>
						<pproTicksIn>1662768414720000</pproTicksIn>
						<pproTicksOut>1664465241600000</pproTicksOut>
						<file id="file-61"/>
						<sourcetrack>
							<mediatype>audio</mediatype>
							<trackindex>1</trackindex>
						</sourcetrack>
						<logginginfo>
							<description></description>
							<scene></scene>
							<shottake></shottake>
							<lognote></lognote>
						</logginginfo>
						<labels>
							<label2>Caribbean</label2>
						</labels>
					</clipitem>
					<clipitem id="clipitem-1974" premiereChannelType="mono">
						<masterclipid>masterclip-65</masterclipid>
						<name>VB 1 H_03.wav</name>
						<enabled>TRUE</enabled>
						<duration>171138</duration>
						<rate>
							<timebase>25</timebase>
							<ntsc>FALSE</ntsc>
						</rate>
						<start>55905</start>
						<end>56079</end>
						<in>163829</in>
						<out>164003</out>
						<pproTicksIn>1664607490560000</pproTicksIn>
						<pproTicksOut>1666375441920000</pproTicksOut>
						<file id="file-61"/>
						<sourcetrack>
							<mediatype>audio</mediatype>
							<trackindex>1</trackindex>
						</sourcetrack>
						<logginginfo>
							<description></description>
							<scene></scene>
							<shottake></shottake>
							<lognote></lognote>
						</logginginfo>
						<labels>
							<label2>Caribbean</label2>
						</labels>
					</clipitem>
					<clipitem id="clipitem-1975" premiereChannelType="mono">
						<masterclipid>masterclip-65</masterclipid>
						<name>VB 1 H_03.wav</name>
						<enabled>TRUE</enabled>
						<duration>171138</duration>
						<rate>
							<timebase>25</timebase>
							<ntsc>FALSE</ntsc>
						</rate>
						<start>56079</start>
						<end>58120</end>
						<in>164067</in>
						<out>166108</out>
						<pproTicksIn>1667025722880000</pproTicksIn>
						<pproTicksOut>1687763589120000</pproTicksOut>
						<file id="file-61"/>
						<sourcetrack>
							<mediatype>audio</mediatype>
							<trackindex>1</trackindex>
						</sourcetrack>
						<logginginfo>
							<description></description>
							<scene></scene>
							<shottake></shottake>
							<lognote></lognote>
						</logginginfo>
						<labels>
							<label2>Caribbean</label2>
						</labels>
					</clipitem>
					<enabled>TRUE</enabled>
					<locked>FALSE</locked>
					<outputchannelindex>2</outputchannelindex>
				</track>
				<track TL.SQTrackAudioKeyframeStyle="0" TL.SQTrackShy="0" TL.SQTrackExpandedHeight="25" TL.SQTrackExpanded="0" MZ.TrackTargeted="1" PannerCurrentValue="0.5" PannerIsInverted="true" PannerStartKeyframe="-91445760000000000,0.5,0,0,0,0,0,0" PannerName="Balance" currentExplodedTrackIndex="0" totalExplodedTrackCount="1" premiereTrackType="Stereo">
					<clipitem id="clipitem-1976" premiereChannelType="mono">
						<masterclipid>masterclip-66</masterclipid>
						<name>VB 1 V_03.wav</name>
						<enabled>TRUE</enabled>
						<duration>171138</duration>
						<rate>
							<timebase>25</timebase>
							<ntsc>FALSE</ntsc>
						</rate>
						<start>420</start>
						<end>891</end>
						<in>168511</in>
						<out>168982</out>
						<pproTicksIn>1712179607040000</pproTicksIn>
						<pproTicksOut>1716965268480000</pproTicksOut>
						<file id="file-62">
							<name>VB 1 V_03.wav</name>
							<pathurl>file://localhost/Volumes/Brakka/AdobeLager/QUIZ%20-%20brakka/RA%cc%8aSTOFF%20LYD/2005/VB%201%20V_03.wav</pathurl>
							<rate>
								<timebase>30</timebase>
								<ntsc>TRUE</ntsc>
							</rate>
							<duration>205161</duration>
							<timecode>
								<rate>
									<timebase>30</timebase>
									<ntsc>TRUE</ntsc>
								</rate>
								<string>12;52;15;16</string>
								<frame>1388676</frame>
								<displayformat>DF</displayformat>
								<reel>
									<name></name>
								</reel>
							</timecode>
							<media>
								<audio>
									<samplecharacteristics>
										<depth>16</depth>
										<samplerate>48000</samplerate>
									</samplecharacteristics>
									<channelcount>1</channelcount>
									<audiochannel>
										<sourcechannel>1</sourcechannel>
									</audiochannel>
								</audio>
							</media>
						</file>
						<sourcetrack>
							<mediatype>audio</mediatype>
							<trackindex>1</trackindex>
						</sourcetrack>
						<logginginfo>
							<description></description>
							<scene></scene>
							<shottake></shottake>
							<lognote></lognote>
						</logginginfo>
						<labels>
							<label2>Caribbean</label2>
						</labels>
					</clipitem>
					<clipitem id="clipitem-1977" premiereChannelType="mono">
						<masterclipid>masterclip-66</masterclipid>
						<name>VB 1 V_03.wav</name>
						<enabled>TRUE</enabled>
						<duration>171138</duration>
						<rate>
							<timebase>25</timebase>
							<ntsc>FALSE</ntsc>
						</rate>
						<start>965</start>
						<end>1469</end>
						<in>32787</in>
						<out>33291</out>
						<pproTicksIn>333136903680000</pproTicksIn>
						<pproTicksOut>338257866240000</pproTicksOut>
						<file id="file-62"/>
						<sourcetrack>
							<mediatype>audio</mediatype>
							<trackindex>1</trackindex>
						</sourcetrack>
						<logginginfo>
							<description></description>
							<scene></scene>
							<shottake></shottake>
							<lognote></lognote>
						</logginginfo>
						<labels>
							<label2>Caribbean</label2>
						</labels>
					</clipitem>
					<clipitem id="clipitem-1978" premiereChannelType="mono">
						<masterclipid>masterclip-66</masterclipid>
						<name>VB 1 V_03.wav</name>
						<enabled>TRUE</enabled>
						<duration>171138</duration>
						<rate>
							<timebase>25</timebase>
							<ntsc>FALSE</ntsc>
						</rate>
						<start>1469</start>
						<end>4119</end>
						<in>33423</in>
						<out>36073</out>
						<pproTicksIn>339599070720000</pproTicksIn>
						<pproTicksOut>366524766720000</pproTicksOut>
						<file id="file-62"/>
						<sourcetrack>
							<mediatype>audio</mediatype>
							<trackindex>1</trackindex>
						</sourcetrack>
						<logginginfo>
							<description></description>
							<scene></scene>
							<shottake></shottake>
							<lognote></lognote>
						</logginginfo>
						<labels>
							<label2>Caribbean</label2>
						</labels>
					</clipitem>
					<clipitem id="clipitem-1979" premiereChannelType="mono">
						<masterclipid>masterclip-66</masterclipid>
						<name>VB 1 V_03.wav</name>
						<enabled>TRUE</enabled>
						<duration>171138</duration>
						<rate>
							<timebase>25</timebase>
							<ntsc>FALSE</ntsc>
						</rate>
						<start>4119</start>
						<end>4836</end>
						<in>36549</in>
						<out>37266</out>
						<pproTicksIn>371361231360000</pproTicksIn>
						<pproTicksOut>378646410240000</pproTicksOut>
						<file id="file-62"/>
						<sourcetrack>
							<mediatype>audio</mediatype>
							<trackindex>1</trackindex>
						</sourcetrack>
						<logginginfo>
							<description></description>
							<scene></scene>
							<shottake></shottake>
							<lognote></lognote>
						</logginginfo>
						<labels>
							<label2>Caribbean</label2>
						</labels>
					</clipitem>
					<clipitem id="clipitem-1980" premiereChannelType="mono">
						<masterclipid>masterclip-66</masterclipid>
						<name>VB 1 V_03.wav</name>
						<enabled>TRUE</enabled>
						<duration>171138</duration>
						<rate>
							<timebase>25</timebase>
							<ntsc>FALSE</ntsc>
						</rate>
						<start>4836</start>
						<end>5339</end>
						<in>37305</in>
						<out>37808</out>
						<pproTicksIn>379042675200000</pproTicksIn>
						<pproTicksOut>384153477120000</pproTicksOut>
						<file id="file-62"/>
						<sourcetrack>
							<mediatype>audio</mediatype>
							<trackindex>1</trackindex>
						</sourcetrack>
						<logginginfo>
							<description></description>
							<scene></scene>
							<shottake></shottake>
							<lognote></lognote>
						</logginginfo>
						<labels>
							<label2>Caribbean</label2>
						</labels>
					</clipitem>
					<clipitem id="clipitem-1981" premiereChannelType="mono">
						<masterclipid>masterclip-66</masterclipid>
						<name>VB 1 V_03.wav</name>
						<enabled>TRUE</enabled>
						<duration>171138</duration>
						<rate>
							<timebase>25</timebase>
							<ntsc>FALSE</ntsc>
						</rate>
						<start>5339</start>
						<end>5501</end>
						<in>37871</in>
						<out>38033</out>
						<pproTicksIn>384793597440000</pproTicksIn>
						<pproTicksOut>386439621120000</pproTicksOut>
						<file id="file-62"/>
						<sourcetrack>
							<mediatype>audio</mediatype>
							<trackindex>1</trackindex>
						</sourcetrack>
						<logginginfo>
							<description></description>
							<scene></scene>
							<shottake></shottake>
							<lognote></lognote>
						</logginginfo>
						<labels>
							<label2>Caribbean</label2>
						</labels>
					</clipitem>
					<clipitem id="clipitem-1982" premiereChannelType="mono">
						<masterclipid>masterclip-66</masterclipid>
						<name>VB 1 V_03.wav</name>
						<enabled>TRUE</enabled>
						<duration>171138</duration>
						<rate>
							<timebase>25</timebase>
							<ntsc>FALSE</ntsc>
						</rate>
						<start>5501</start>
						<end>6004</end>
						<in>46577</in>
						<out>47080</out>
						<pproTicksIn>473252129280000</pproTicksIn>
						<pproTicksOut>478362931200000</pproTicksOut>
						<file id="file-62"/>
						<sourcetrack>
							<mediatype>audio</mediatype>
							<trackindex>1</trackindex>
						</sourcetrack>
						<logginginfo>
							<description></description>
							<scene></scene>
							<shottake></shottake>
							<lognote></lognote>
						</logginginfo>
						<labels>
							<label2>Caribbean</label2>
						</labels>
					</clipitem>
					<clipitem id="clipitem-1983" premiereChannelType="mono">
						<masterclipid>masterclip-66</masterclipid>
						<name>VB 1 V_03.wav</name>
						<enabled>TRUE</enabled>
						<duration>171138</duration>
						<rate>
							<timebase>25</timebase>
							<ntsc>FALSE</ntsc>
						</rate>
						<start>6004</start>
						<end>6357</end>
						<in>50106</in>
						<out>50459</out>
						<pproTicksIn>509109027840000</pproTicksIn>
						<pproTicksOut>512695733760000</pproTicksOut>
						<file id="file-62"/>
						<sourcetrack>
							<mediatype>audio</mediatype>
							<trackindex>1</trackindex>
						</sourcetrack>
						<logginginfo>
							<description></description>
							<scene></scene>
							<shottake></shottake>
							<lognote></lognote>
						</logginginfo>
						<labels>
							<label2>Caribbean</label2>
						</labels>
					</clipitem>
					<clipitem id="clipitem-1984" premiereChannelType="mono">
						<masterclipid>masterclip-66</masterclipid>
						<name>VB 1 V_03.wav</name>
						<enabled>TRUE</enabled>
						<duration>171138</duration>
						<rate>
							<timebase>25</timebase>
							<ntsc>FALSE</ntsc>
						</rate>
						<start>6357</start>
						<end>6470</end>
						<in>50578</in>
						<out>50691</out>
						<pproTicksIn>513904849920000</pproTicksIn>
						<pproTicksOut>515053002240000</pproTicksOut>
						<file id="file-62"/>
						<sourcetrack>
							<mediatype>audio</mediatype>
							<trackindex>1</trackindex>
						</sourcetrack>
						<logginginfo>
							<description></description>
							<scene></scene>
							<shottake></shottake>
							<lognote></lognote>
						</logginginfo>
						<labels>
							<label2>Caribbean</label2>
						</labels>
					</clipitem>
					<clipitem id="clipitem-1985" premiereChannelType="mono">
						<masterclipid>masterclip-66</masterclipid>
						<name>VB 1 V_03.wav</name>
						<enabled>TRUE</enabled>
						<duration>171138</duration>
						<rate>
							<timebase>25</timebase>
							<ntsc>FALSE</ntsc>
						</rate>
						<start>6470</start>
						<end>6547</end>
						<in>50753</in>
						<out>50830</out>
						<pproTicksIn>515682961920000</pproTicksIn>
						<pproTicksOut>516465331200000</pproTicksOut>
						<file id="file-62"/>
						<sourcetrack>
							<mediatype>audio</mediatype>
							<trackindex>1</trackindex>
						</sourcetrack>
						<logginginfo>
							<description></description>
							<scene></scene>
							<shottake></shottake>
							<lognote></lognote>
						</logginginfo>
						<labels>
							<label2>Caribbean</label2>
						</labels>
					</clipitem>
					<clipitem id="clipitem-1986" premiereChannelType="mono">
						<masterclipid>masterclip-66</masterclipid>
						<name>VB 1 V_03.wav</name>
						<enabled>TRUE</enabled>
						<duration>171138</duration>
						<rate>
							<timebase>25</timebase>
							<ntsc>FALSE</ntsc>
						</rate>
						<start>6547</start>
						<end>7368</end>
						<in>50869</in>
						<out>51690</out>
						<pproTicksIn>516861596160000</pproTicksIn>
						<pproTicksOut>525203481600000</pproTicksOut>
						<file id="file-62"/>
						<sourcetrack>
							<mediatype>audio</mediatype>
							<trackindex>1</trackindex>
						</sourcetrack>
						<logginginfo>
							<description></description>
							<scene></scene>
							<shottake></shottake>
							<lognote></lognote>
						</logginginfo>
						<labels>
							<label2>Caribbean</label2>
						</labels>
					</clipitem>
					<clipitem id="clipitem-1987" premiereChannelType="mono">
						<masterclipid>masterclip-66</masterclipid>
						<name>VB 1 V_03.wav</name>
						<enabled>TRUE</enabled>
						<duration>171138</duration>
						<rate>
							<timebase>25</timebase>
							<ntsc>FALSE</ntsc>
						</rate>
						<start>7368</start>
						<end>7448</end>
						<in>51824</in>
						<out>51904</out>
						<pproTicksIn>526565007360000</pproTicksIn>
						<pproTicksOut>527377858560000</pproTicksOut>
						<file id="file-62"/>
						<sourcetrack>
							<mediatype>audio</mediatype>
							<trackindex>1</trackindex>
						</sourcetrack>
						<logginginfo>
							<description></description>
							<scene></scene>
							<shottake></shottake>
							<lognote></lognote>
						</logginginfo>
						<labels>
							<label2>Caribbean</label2>
						</labels>
					</clipitem>
					<clipitem id="clipitem-1988" premiereChannelType="mono">
						<masterclipid>masterclip-66</masterclipid>
						<name>VB 1 V_03.wav</name>
						<enabled>TRUE</enabled>
						<duration>171138</duration>
						<rate>
							<timebase>25</timebase>
							<ntsc>FALSE</ntsc>
						</rate>
						<start>7448</start>
						<end>8194</end>
						<in>52064</in>
						<out>52810</out>
						<pproTicksIn>529003560960000</pproTicksIn>
						<pproTicksOut>536583398400000</pproTicksOut>
						<file id="file-62"/>
						<sourcetrack>
							<mediatype>audio</mediatype>
							<trackindex>1</trackindex>
						</sourcetrack>
						<logginginfo>
							<description></description>
							<scene></scene>
							<shottake></shottake>
							<lognote></lognote>
						</logginginfo>
						<labels>
							<label2>Caribbean</label2>
						</labels>
					</clipitem>
					<clipitem id="clipitem-1989" premiereChannelType="mono">
						<masterclipid>masterclip-66</masterclipid>
						<name>VB 1 V_03.wav</name>
						<enabled>TRUE</enabled>
						<duration>171138</duration>
						<rate>
							<timebase>25</timebase>
							<ntsc>FALSE</ntsc>
						</rate>
						<start>8194</start>
						<end>8332</end>
						<in>57229</in>
						<out>57367</out>
						<pproTicksIn>581483266560000</pproTicksIn>
						<pproTicksOut>582885434880000</pproTicksOut>
						<file id="file-62"/>
						<sourcetrack>
							<mediatype>audio</mediatype>
							<trackindex>1</trackindex>
						</sourcetrack>
						<logginginfo>
							<description></description>
							<scene></scene>
							<shottake></shottake>
							<lognote></lognote>
						</logginginfo>
						<labels>
							<label2>Caribbean</label2>
						</labels>
					</clipitem>
					<clipitem id="clipitem-1990" premiereChannelType="mono">
						<masterclipid>masterclip-66</masterclipid>
						<name>VB 1 V_03.wav</name>
						<enabled>TRUE</enabled>
						<duration>171138</duration>
						<rate>
							<timebase>25</timebase>
							<ntsc>FALSE</ntsc>
						</rate>
						<start>8332</start>
						<end>8592</end>
						<in>58240</in>
						<out>58500</out>
						<pproTicksIn>591755673600000</pproTicksIn>
						<pproTicksOut>594397440000000</pproTicksOut>
						<file id="file-62"/>
						<sourcetrack>
							<mediatype>audio</mediatype>
							<trackindex>1</trackindex>
						</sourcetrack>
						<logginginfo>
							<description></description>
							<scene></scene>
							<shottake></shottake>
							<lognote></lognote>
						</logginginfo>
						<labels>
							<label2>Caribbean</label2>
						</labels>
					</clipitem>
					<clipitem id="clipitem-1991" premiereChannelType="mono">
						<masterclipid>masterclip-66</masterclipid>
						<name>VB 1 V_03.wav</name>
						<enabled>TRUE</enabled>
						<duration>171138</duration>
						<rate>
							<timebase>25</timebase>
							<ntsc>FALSE</ntsc>
						</rate>
						<start>8592</start>
						<end>8690</end>
						<in>58994</in>
						<out>59092</out>
						<pproTicksIn>599416796160000</pproTicksIn>
						<pproTicksOut>600412538880000</pproTicksOut>
						<file id="file-62"/>
						<sourcetrack>
							<mediatype>audio</mediatype>
							<trackindex>1</trackindex>
						</sourcetrack>
						<logginginfo>
							<description></description>
							<scene></scene>
							<shottake></shottake>
							<lognote></lognote>
						</logginginfo>
						<labels>
							<label2>Caribbean</label2>
						</labels>
					</clipitem>
					<clipitem id="clipitem-1992" premiereChannelType="mono">
						<masterclipid>masterclip-66</masterclipid>
						<name>VB 1 V_03.wav</name>
						<enabled>TRUE</enabled>
						<duration>171138</duration>
						<rate>
							<timebase>25</timebase>
							<ntsc>FALSE</ntsc>
						</rate>
						<start>8690</start>
						<end>8999</end>
						<in>59189</in>
						<out>59498</out>
						<pproTicksIn>601398120960000</pproTicksIn>
						<pproTicksOut>604537758720000</pproTicksOut>
						<file id="file-62"/>
						<sourcetrack>
							<mediatype>audio</mediatype>
							<trackindex>1</trackindex>
						</sourcetrack>
						<logginginfo>
							<description></description>
							<scene></scene>
							<shottake></shottake>
							<lognote></lognote>
						</logginginfo>
						<labels>
							<label2>Caribbean</label2>
						</labels>
					</clipitem>
					<clipitem id="clipitem-1993" premiereChannelType="mono">
						<masterclipid>masterclip-66</masterclipid>
						<name>VB 1 V_03.wav</name>
						<enabled>TRUE</enabled>
						<duration>171138</duration>
						<rate>
							<timebase>25</timebase>
							<ntsc>FALSE</ntsc>
						</rate>
						<start>8999</start>
						<end>9172</end>
						<in>59597</in>
						<out>59770</out>
						<pproTicksIn>605543662080000</pproTicksIn>
						<pproTicksOut>607301452800000</pproTicksOut>
						<file id="file-62"/>
						<sourcetrack>
							<mediatype>audio</mediatype>
							<trackindex>1</trackindex>
						</sourcetrack>
						<logginginfo>
							<description></description>
							<scene></scene>
							<shottake></shottake>
							<lognote></lognote>
						</logginginfo>
						<labels>
							<label2>Caribbean</label2>
						</labels>
					</clipitem>
					<clipitem id="clipitem-1994" premiereChannelType="mono">
						<masterclipid>masterclip-66</masterclipid>
						<name>VB 1 V_03.wav</name>
						<enabled>TRUE</enabled>
						<duration>171138</duration>
						<rate>
							<timebase>25</timebase>
							<ntsc>FALSE</ntsc>
						</rate>
						<start>9172</start>
						<end>9280</end>
						<in>59921</in>
						<out>60029</out>
						<pproTicksIn>608835709440000</pproTicksIn>
						<pproTicksOut>609933058560000</pproTicksOut>
						<file id="file-62"/>
						<sourcetrack>
							<mediatype>audio</mediatype>
							<trackindex>1</trackindex>
						</sourcetrack>
						<logginginfo>
							<description></description>
							<scene></scene>
							<shottake></shottake>
							<lognote></lognote>
						</logginginfo>
						<labels>
							<label2>Caribbean</label2>
						</labels>
					</clipitem>
					<clipitem id="clipitem-1995" premiereChannelType="mono">
						<masterclipid>masterclip-66</masterclipid>
						<name>VB 1 V_03.wav</name>
						<enabled>TRUE</enabled>
						<duration>171138</duration>
						<rate>
							<timebase>25</timebase>
							<ntsc>FALSE</ntsc>
						</rate>
						<start>9280</start>
						<end>9979</end>
						<in>65722</in>
						<out>66421</out>
						<pproTicksIn>667777582080000</pproTicksIn>
						<pproTicksOut>674879869440000</pproTicksOut>
						<file id="file-62"/>
						<sourcetrack>
							<mediatype>audio</mediatype>
							<trackindex>1</trackindex>
						</sourcetrack>
						<logginginfo>
							<description></description>
							<scene></scene>
							<shottake></shottake>
							<lognote></lognote>
						</logginginfo>
						<labels>
							<label2>Caribbean</label2>
						</labels>
					</clipitem>
					<clipitem id="clipitem-1996" premiereChannelType="mono">
						<masterclipid>masterclip-66</masterclipid>
						<name>VB 1 V_03.wav</name>
						<enabled>TRUE</enabled>
						<duration>171138</duration>
						<rate>
							<timebase>25</timebase>
							<ntsc>FALSE</ntsc>
						</rate>
						<start>9979</start>
						<end>10054</end>
						<in>66518</in>
						<out>66593</out>
						<pproTicksIn>675865451520000</pproTicksIn>
						<pproTicksOut>676627499520000</pproTicksOut>
						<file id="file-62"/>
						<sourcetrack>
							<mediatype>audio</mediatype>
							<trackindex>1</trackindex>
						</sourcetrack>
						<logginginfo>
							<description></description>
							<scene></scene>
							<shottake></shottake>
							<lognote></lognote>
						</logginginfo>
						<labels>
							<label2>Caribbean</label2>
						</labels>
					</clipitem>
					<clipitem id="clipitem-1997" premiereChannelType="mono">
						<masterclipid>masterclip-66</masterclipid>
						<name>VB 1 V_03.wav</name>
						<enabled>TRUE</enabled>
						<duration>171138</duration>
						<rate>
							<timebase>25</timebase>
							<ntsc>FALSE</ntsc>
						</rate>
						<start>10054</start>
						<end>10901</end>
						<in>67109</in>
						<out>67956</out>
						<pproTicksIn>681870389760000</pproTicksIn>
						<pproTicksOut>690476451840000</pproTicksOut>
						<file id="file-62"/>
						<sourcetrack>
							<mediatype>audio</mediatype>
							<trackindex>1</trackindex>
						</sourcetrack>
						<logginginfo>
							<description></description>
							<scene></scene>
							<shottake></shottake>
							<lognote></lognote>
						</logginginfo>
						<labels>
							<label2>Caribbean</label2>
						</labels>
					</clipitem>
					<clipitem id="clipitem-1998" premiereChannelType="mono">
						<masterclipid>masterclip-66</masterclipid>
						<name>VB 1 V_03.wav</name>
						<enabled>TRUE</enabled>
						<duration>171138</duration>
						<rate>
							<timebase>25</timebase>
							<ntsc>FALSE</ntsc>
						</rate>
						<start>10901</start>
						<end>11157</end>
						<in>67945</in>
						<out>68201</out>
						<pproTicksIn>690364684800000</pproTicksIn>
						<pproTicksOut>692965808640000</pproTicksOut>
						<file id="file-62"/>
						<sourcetrack>
							<mediatype>audio</mediatype>
							<trackindex>1</trackindex>
						</sourcetrack>
						<logginginfo>
							<description></description>
							<scene></scene>
							<shottake></shottake>
							<lognote></lognote>
						</logginginfo>
						<labels>
							<label2>Caribbean</label2>
						</labels>
					</clipitem>
					<clipitem id="clipitem-1999" premiereChannelType="mono">
						<masterclipid>masterclip-66</masterclipid>
						<name>VB 1 V_03.wav</name>
						<enabled>TRUE</enabled>
						<duration>171138</duration>
						<rate>
							<timebase>25</timebase>
							<ntsc>FALSE</ntsc>
						</rate>
						<start>11157</start>
						<end>11309</end>
						<in>68218</in>
						<out>68370</out>
						<pproTicksIn>693138539520000</pproTicksIn>
						<pproTicksOut>694682956800000</pproTicksOut>
						<file id="file-62"/>
						<sourcetrack>
							<mediatype>audio</mediatype>
							<trackindex>1</trackindex>
						</sourcetrack>
						<logginginfo>
							<description></description>
							<scene></scene>
							<shottake></shottake>
							<lognote></lognote>
						</logginginfo>
						<labels>
							<label2>Caribbean</label2>
						</labels>
					</clipitem>
					<clipitem id="clipitem-2000" premiereChannelType="mono">
						<masterclipid>masterclip-66</masterclipid>
						<name>VB 1 V_03.wav</name>
						<enabled>TRUE</enabled>
						<duration>171138</duration>
						<rate>
							<timebase>25</timebase>
							<ntsc>FALSE</ntsc>
						</rate>
						<start>11309</start>
						<end>11781</end>
						<in>68707</in>
						<out>69179</out>
						<pproTicksIn>698107092480000</pproTicksIn>
						<pproTicksOut>702902914560000</pproTicksOut>
						<file id="file-62"/>
						<sourcetrack>
							<mediatype>audio</mediatype>
							<trackindex>1</trackindex>
						</sourcetrack>
						<logginginfo>
							<description></description>
							<scene></scene>
							<shottake></shottake>
							<lognote></lognote>
						</logginginfo>
						<labels>
							<label2>Caribbean</label2>
						</labels>
					</clipitem>
					<clipitem id="clipitem-2001" premiereChannelType="mono">
						<masterclipid>masterclip-66</masterclipid>
						<name>VB 1 V_03.wav</name>
						<enabled>TRUE</enabled>
						<duration>171138</duration>
						<rate>
							<timebase>25</timebase>
							<ntsc>FALSE</ntsc>
						</rate>
						<start>11781</start>
						<end>12155</end>
						<in>70010</in>
						<out>70384</out>
						<pproTicksIn>711346406400000</pproTicksIn>
						<pproTicksOut>715146485760000</pproTicksOut>
						<file id="file-62"/>
						<sourcetrack>
							<mediatype>audio</mediatype>
							<trackindex>1</trackindex>
						</sourcetrack>
						<logginginfo>
							<description></description>
							<scene></scene>
							<shottake></shottake>
							<lognote></lognote>
						</logginginfo>
						<labels>
							<label2>Caribbean</label2>
						</labels>
					</clipitem>
					<clipitem id="clipitem-2002" premiereChannelType="mono">
						<masterclipid>masterclip-66</masterclipid>
						<name>VB 1 V_03.wav</name>
						<enabled>TRUE</enabled>
						<duration>171138</duration>
						<rate>
							<timebase>25</timebase>
							<ntsc>FALSE</ntsc>
						</rate>
						<start>12155</start>
						<end>13212</end>
						<in>70448</in>
						<out>71505</out>
						<pproTicksIn>715796766720000</pproTicksIn>
						<pproTicksOut>726536563200000</pproTicksOut>
						<file id="file-62"/>
						<sourcetrack>
							<mediatype>audio</mediatype>
							<trackindex>1</trackindex>
						</sourcetrack>
						<logginginfo>
							<description></description>
							<scene></scene>
							<shottake></shottake>
							<lognote></lognote>
						</logginginfo>
						<labels>
							<label2>Caribbean</label2>
						</labels>
					</clipitem>
					<clipitem id="clipitem-2003" premiereChannelType="mono">
						<masterclipid>masterclip-66</masterclipid>
						<name>VB 1 V_03.wav</name>
						<enabled>TRUE</enabled>
						<duration>171138</duration>
						<rate>
							<timebase>25</timebase>
							<ntsc>FALSE</ntsc>
						</rate>
						<start>13212</start>
						<end>13343</end>
						<in>71544</in>
						<out>71675</out>
						<pproTicksIn>726932828160000</pproTicksIn>
						<pproTicksOut>728263872000000</pproTicksOut>
						<file id="file-62"/>
						<sourcetrack>
							<mediatype>audio</mediatype>
							<trackindex>1</trackindex>
						</sourcetrack>
						<logginginfo>
							<description></description>
							<scene></scene>
							<shottake></shottake>
							<lognote></lognote>
						</logginginfo>
						<labels>
							<label2>Caribbean</label2>
						</labels>
					</clipitem>
					<clipitem id="clipitem-2004" premiereChannelType="mono">
						<masterclipid>masterclip-66</masterclipid>
						<name>VB 1 V_03.wav</name>
						<enabled>TRUE</enabled>
						<duration>171138</duration>
						<rate>
							<timebase>25</timebase>
							<ntsc>FALSE</ntsc>
						</rate>
						<start>13359</start>
						<end>13506</end>
						<in>77542</in>
						<out>77689</out>
						<pproTicksIn>787876346880000</pproTicksIn>
						<pproTicksOut>789369960960000</pproTicksOut>
						<file id="file-62"/>
						<sourcetrack>
							<mediatype>audio</mediatype>
							<trackindex>1</trackindex>
						</sourcetrack>
						<logginginfo>
							<description></description>
							<scene></scene>
							<shottake></shottake>
							<lognote></lognote>
						</logginginfo>
						<labels>
							<label2>Caribbean</label2>
						</labels>
					</clipitem>
					<clipitem id="clipitem-2005" premiereChannelType="mono">
						<masterclipid>masterclip-66</masterclipid>
						<name>VB 1 V_03.wav</name>
						<enabled>TRUE</enabled>
						<duration>171138</duration>
						<rate>
							<timebase>25</timebase>
							<ntsc>FALSE</ntsc>
						</rate>
						<start>13506</start>
						<end>14081</end>
						<in>78019</in>
						<out>78594</out>
						<pproTicksIn>792722972160000</pproTicksIn>
						<pproTicksOut>798565340160000</pproTicksOut>
						<file id="file-62"/>
						<sourcetrack>
							<mediatype>audio</mediatype>
							<trackindex>1</trackindex>
						</sourcetrack>
						<logginginfo>
							<description></description>
							<scene></scene>
							<shottake></shottake>
							<lognote></lognote>
						</logginginfo>
						<labels>
							<label2>Caribbean</label2>
						</labels>
					</clipitem>
					<clipitem id="clipitem-2006" premiereChannelType="mono">
						<masterclipid>masterclip-66</masterclipid>
						<name>VB 1 V_03.wav</name>
						<enabled>TRUE</enabled>
						<duration>171138</duration>
						<rate>
							<timebase>25</timebase>
							<ntsc>FALSE</ntsc>
						</rate>
						<start>14081</start>
						<end>14232</end>
						<in>78676</in>
						<out>78827</out>
						<pproTicksIn>799398512640000</pproTicksIn>
						<pproTicksOut>800932769280000</pproTicksOut>
						<file id="file-62"/>
						<sourcetrack>
							<mediatype>audio</mediatype>
							<trackindex>1</trackindex>
						</sourcetrack>
						<logginginfo>
							<description></description>
							<scene></scene>
							<shottake></shottake>
							<lognote></lognote>
						</logginginfo>
						<labels>
							<label2>Caribbean</label2>
						</labels>
					</clipitem>
					<clipitem id="clipitem-2007" premiereChannelType="mono">
						<masterclipid>masterclip-66</masterclipid>
						<name>VB 1 V_03.wav</name>
						<enabled>TRUE</enabled>
						<duration>171138</duration>
						<rate>
							<timebase>25</timebase>
							<ntsc>FALSE</ntsc>
						</rate>
						<start>14232</start>
						<end>14550</end>
						<in>78886</in>
						<out>79204</out>
						<pproTicksIn>801532247040000</pproTicksIn>
						<pproTicksOut>804763330560000</pproTicksOut>
						<file id="file-62"/>
						<sourcetrack>
							<mediatype>audio</mediatype>
							<trackindex>1</trackindex>
						</sourcetrack>
						<logginginfo>
							<description></description>
							<scene></scene>
							<shottake></shottake>
							<lognote></lognote>
						</logginginfo>
						<labels>
							<label2>Caribbean</label2>
						</labels>
					</clipitem>
					<clipitem id="clipitem-2008" premiereChannelType="mono">
						<masterclipid>masterclip-66</masterclipid>
						<name>VB 1 V_03.wav</name>
						<enabled>TRUE</enabled>
						<duration>171138</duration>
						<rate>
							<timebase>25</timebase>
							<ntsc>FALSE</ntsc>
						</rate>
						<start>14550</start>
						<end>14774</end>
						<in>79562</in>
						<out>79786</out>
						<pproTicksIn>808400839680000</pproTicksIn>
						<pproTicksOut>810676823040000</pproTicksOut>
						<file id="file-62"/>
						<sourcetrack>
							<mediatype>audio</mediatype>
							<trackindex>1</trackindex>
						</sourcetrack>
						<logginginfo>
							<description></description>
							<scene></scene>
							<shottake></shottake>
							<lognote></lognote>
						</logginginfo>
						<labels>
							<label2>Caribbean</label2>
						</labels>
					</clipitem>
					<clipitem id="clipitem-2009" premiereChannelType="mono">
						<masterclipid>masterclip-66</masterclipid>
						<name>VB 1 V_03.wav</name>
						<enabled>TRUE</enabled>
						<duration>171138</duration>
						<rate>
							<timebase>25</timebase>
							<ntsc>FALSE</ntsc>
						</rate>
						<start>14774</start>
						<end>14798</end>
						<in>79204</in>
						<out>79228</out>
						<pproTicksIn>804763330560000</pproTicksIn>
						<pproTicksOut>805007185920000</pproTicksOut>
						<file id="file-62"/>
						<sourcetrack>
							<mediatype>audio</mediatype>
							<trackindex>1</trackindex>
						</sourcetrack>
						<logginginfo>
							<description></description>
							<scene></scene>
							<shottake></shottake>
							<lognote></lognote>
						</logginginfo>
						<labels>
							<label2>Caribbean</label2>
						</labels>
					</clipitem>
					<clipitem id="clipitem-2010" premiereChannelType="mono">
						<masterclipid>masterclip-66</masterclipid>
						<name>VB 1 V_03.wav</name>
						<enabled>TRUE</enabled>
						<duration>171138</duration>
						<rate>
							<timebase>25</timebase>
							<ntsc>FALSE</ntsc>
						</rate>
						<start>14798</start>
						<end>14887</end>
						<in>80182</in>
						<out>80271</out>
						<pproTicksIn>814700436480000</pproTicksIn>
						<pproTicksOut>815604733440000</pproTicksOut>
						<file id="file-62"/>
						<sourcetrack>
							<mediatype>audio</mediatype>
							<trackindex>1</trackindex>
						</sourcetrack>
						<logginginfo>
							<description></description>
							<scene></scene>
							<shottake></shottake>
							<lognote></lognote>
						</logginginfo>
						<labels>
							<label2>Caribbean</label2>
						</labels>
					</clipitem>
					<clipitem id="clipitem-2011" premiereChannelType="mono">
						<masterclipid>masterclip-66</masterclipid>
						<name>VB 1 V_03.wav</name>
						<enabled>TRUE</enabled>
						<duration>171138</duration>
						<rate>
							<timebase>25</timebase>
							<ntsc>FALSE</ntsc>
						</rate>
						<start>14887</start>
						<end>15129</end>
						<in>80569</in>
						<out>80811</out>
						<pproTicksIn>818632604160000</pproTicksIn>
						<pproTicksOut>821091479040000</pproTicksOut>
						<file id="file-62"/>
						<sourcetrack>
							<mediatype>audio</mediatype>
							<trackindex>1</trackindex>
						</sourcetrack>
						<logginginfo>
							<description></description>
							<scene></scene>
							<shottake></shottake>
							<lognote></lognote>
						</logginginfo>
						<labels>
							<label2>Caribbean</label2>
						</labels>
					</clipitem>
					<clipitem id="clipitem-2012" premiereChannelType="mono">
						<masterclipid>masterclip-66</masterclipid>
						<name>VB 1 V_03.wav</name>
						<enabled>TRUE</enabled>
						<duration>171138</duration>
						<rate>
							<timebase>25</timebase>
							<ntsc>FALSE</ntsc>
						</rate>
						<start>15129</start>
						<end>15493</end>
						<in>80817</in>
						<out>81181</out>
						<pproTicksIn>821152442880000</pproTicksIn>
						<pproTicksOut>824850915840000</pproTicksOut>
						<file id="file-62"/>
						<sourcetrack>
							<mediatype>audio</mediatype>
							<trackindex>1</trackindex>
						</sourcetrack>
						<logginginfo>
							<description></description>
							<scene></scene>
							<shottake></shottake>
							<lognote></lognote>
						</logginginfo>
						<labels>
							<label2>Caribbean</label2>
						</labels>
					</clipitem>
					<clipitem id="clipitem-2013" premiereChannelType="mono">
						<masterclipid>masterclip-66</masterclipid>
						<name>VB 1 V_03.wav</name>
						<enabled>TRUE</enabled>
						<duration>171138</duration>
						<rate>
							<timebase>25</timebase>
							<ntsc>FALSE</ntsc>
						</rate>
						<start>15493</start>
						<end>15657</end>
						<in>81234</in>
						<out>81398</out>
						<pproTicksIn>825389429760000</pproTicksIn>
						<pproTicksOut>827055774720000</pproTicksOut>
						<file id="file-62"/>
						<sourcetrack>
							<mediatype>audio</mediatype>
							<trackindex>1</trackindex>
						</sourcetrack>
						<logginginfo>
							<description></description>
							<scene></scene>
							<shottake></shottake>
							<lognote></lognote>
						</logginginfo>
						<labels>
							<label2>Caribbean</label2>
						</labels>
					</clipitem>
					<clipitem id="clipitem-2014" premiereChannelType="mono">
						<masterclipid>masterclip-66</masterclipid>
						<name>VB 1 V_03.wav</name>
						<enabled>TRUE</enabled>
						<duration>171138</duration>
						<rate>
							<timebase>25</timebase>
							<ntsc>FALSE</ntsc>
						</rate>
						<start>15657</start>
						<end>15850</end>
						<in>81563</in>
						<out>81756</out>
						<pproTicksIn>828732280320000</pproTicksIn>
						<pproTicksOut>830693283840000</pproTicksOut>
						<file id="file-62"/>
						<sourcetrack>
							<mediatype>audio</mediatype>
							<trackindex>1</trackindex>
						</sourcetrack>
						<logginginfo>
							<description></description>
							<scene></scene>
							<shottake></shottake>
							<lognote></lognote>
						</logginginfo>
						<labels>
							<label2>Caribbean</label2>
						</labels>
					</clipitem>
					<clipitem id="clipitem-2015" premiereChannelType="mono">
						<masterclipid>masterclip-66</masterclipid>
						<name>VB 1 V_03.wav</name>
						<enabled>TRUE</enabled>
						<duration>171138</duration>
						<rate>
							<timebase>25</timebase>
							<ntsc>FALSE</ntsc>
						</rate>
						<start>15850</start>
						<end>16018</end>
						<in>81984</in>
						<out>82152</out>
						<pproTicksIn>833009909760000</pproTicksIn>
						<pproTicksOut>834716897280000</pproTicksOut>
						<file id="file-62"/>
						<sourcetrack>
							<mediatype>audio</mediatype>
							<trackindex>1</trackindex>
						</sourcetrack>
						<logginginfo>
							<description></description>
							<scene></scene>
							<shottake></shottake>
							<lognote></lognote>
						</logginginfo>
						<labels>
							<label2>Caribbean</label2>
						</labels>
					</clipitem>
					<clipitem id="clipitem-2016" premiereChannelType="mono">
						<masterclipid>masterclip-66</masterclipid>
						<name>VB 1 V_03.wav</name>
						<enabled>TRUE</enabled>
						<duration>171138</duration>
						<rate>
							<timebase>25</timebase>
							<ntsc>FALSE</ntsc>
						</rate>
						<start>16018</start>
						<end>16073</end>
						<in>82477</in>
						<out>82532</out>
						<pproTicksIn>838019105280000</pproTicksIn>
						<pproTicksOut>838577940480000</pproTicksOut>
						<file id="file-62"/>
						<sourcetrack>
							<mediatype>audio</mediatype>
							<trackindex>1</trackindex>
						</sourcetrack>
						<logginginfo>
							<description></description>
							<scene></scene>
							<shottake></shottake>
							<lognote></lognote>
						</logginginfo>
						<labels>
							<label2>Caribbean</label2>
						</labels>
					</clipitem>
					<clipitem id="clipitem-2017" premiereChannelType="mono">
						<masterclipid>masterclip-66</masterclipid>
						<name>VB 1 V_03.wav</name>
						<enabled>TRUE</enabled>
						<duration>171138</duration>
						<rate>
							<timebase>25</timebase>
							<ntsc>FALSE</ntsc>
						</rate>
						<start>16073</start>
						<end>16115</end>
						<in>83437</in>
						<out>83479</out>
						<pproTicksIn>847773319680000</pproTicksIn>
						<pproTicksOut>848200066560000</pproTicksOut>
						<file id="file-62"/>
						<sourcetrack>
							<mediatype>audio</mediatype>
							<trackindex>1</trackindex>
						</sourcetrack>
						<logginginfo>
							<description></description>
							<scene></scene>
							<shottake></shottake>
							<lognote></lognote>
						</logginginfo>
						<labels>
							<label2>Caribbean</label2>
						</labels>
					</clipitem>
					<clipitem id="clipitem-2018" premiereChannelType="mono">
						<masterclipid>masterclip-66</masterclipid>
						<name>VB 1 V_03.wav</name>
						<enabled>TRUE</enabled>
						<duration>171138</duration>
						<rate>
							<timebase>25</timebase>
							<ntsc>FALSE</ntsc>
						</rate>
						<start>16115</start>
						<end>16204</end>
						<in>83479</in>
						<out>83568</out>
						<pproTicksIn>848200066560000</pproTicksIn>
						<pproTicksOut>849104363520000</pproTicksOut>
						<file id="file-62"/>
						<sourcetrack>
							<mediatype>audio</mediatype>
							<trackindex>1</trackindex>
						</sourcetrack>
						<logginginfo>
							<description></description>
							<scene></scene>
							<shottake></shottake>
							<lognote></lognote>
						</logginginfo>
						<labels>
							<label2>Caribbean</label2>
						</labels>
					</clipitem>
					<clipitem id="clipitem-2019" premiereChannelType="mono">
						<masterclipid>masterclip-66</masterclipid>
						<name>VB 1 V_03.wav</name>
						<enabled>TRUE</enabled>
						<duration>171138</duration>
						<rate>
							<timebase>25</timebase>
							<ntsc>FALSE</ntsc>
						</rate>
						<start>16204</start>
						<end>16898</end>
						<in>83568</in>
						<out>84262</out>
						<pproTicksIn>849104363520000</pproTicksIn>
						<pproTicksOut>856155847680000</pproTicksOut>
						<file id="file-62"/>
						<sourcetrack>
							<mediatype>audio</mediatype>
							<trackindex>1</trackindex>
						</sourcetrack>
						<logginginfo>
							<description></description>
							<scene></scene>
							<shottake></shottake>
							<lognote></lognote>
						</logginginfo>
						<labels>
							<label2>Caribbean</label2>
						</labels>
					</clipitem>
					<clipitem id="clipitem-2020" premiereChannelType="mono">
						<masterclipid>masterclip-66</masterclipid>
						<name>VB 1 V_03.wav</name>
						<enabled>TRUE</enabled>
						<duration>171138</duration>
						<rate>
							<timebase>25</timebase>
							<ntsc>FALSE</ntsc>
						</rate>
						<start>16898</start>
						<end>16971</end>
						<in>84282</in>
						<out>84355</out>
						<pproTicksIn>856359060480000</pproTicksIn>
						<pproTicksOut>857100787200000</pproTicksOut>
						<file id="file-62"/>
						<sourcetrack>
							<mediatype>audio</mediatype>
							<trackindex>1</trackindex>
						</sourcetrack>
						<logginginfo>
							<description></description>
							<scene></scene>
							<shottake></shottake>
							<lognote></lognote>
						</logginginfo>
						<labels>
							<label2>Caribbean</label2>
						</labels>
					</clipitem>
					<clipitem id="clipitem-2021" premiereChannelType="mono">
						<masterclipid>masterclip-66</masterclipid>
						<name>VB 1 V_03.wav</name>
						<enabled>TRUE</enabled>
						<duration>171138</duration>
						<rate>
							<timebase>25</timebase>
							<ntsc>FALSE</ntsc>
						</rate>
						<start>16971</start>
						<end>17329</end>
						<in>84400</in>
						<out>84758</out>
						<pproTicksIn>857558016000000</pproTicksIn>
						<pproTicksOut>861195525120000</pproTicksOut>
						<file id="file-62"/>
						<sourcetrack>
							<mediatype>audio</mediatype>
							<trackindex>1</trackindex>
						</sourcetrack>
						<logginginfo>
							<description></description>
							<scene></scene>
							<shottake></shottake>
							<lognote></lognote>
						</logginginfo>
						<labels>
							<label2>Caribbean</label2>
						</labels>
					</clipitem>
					<clipitem id="clipitem-2022" premiereChannelType="mono">
						<masterclipid>masterclip-66</masterclipid>
						<name>VB 1 V_03.wav</name>
						<enabled>TRUE</enabled>
						<duration>171138</duration>
						<rate>
							<timebase>25</timebase>
							<ntsc>FALSE</ntsc>
						</rate>
						<start>17329</start>
						<end>17417</end>
						<in>85268</in>
						<out>85356</out>
						<pproTicksIn>866377451520000</pproTicksIn>
						<pproTicksOut>867271587840000</pproTicksOut>
						<file id="file-62"/>
						<sourcetrack>
							<mediatype>audio</mediatype>
							<trackindex>1</trackindex>
						</sourcetrack>
						<logginginfo>
							<description></description>
							<scene></scene>
							<shottake></shottake>
							<lognote></lognote>
						</logginginfo>
						<labels>
							<label2>Caribbean</label2>
						</labels>
					</clipitem>
					<clipitem id="clipitem-2023" premiereChannelType="mono">
						<masterclipid>masterclip-66</masterclipid>
						<name>VB 1 V_03.wav</name>
						<enabled>TRUE</enabled>
						<duration>171138</duration>
						<rate>
							<timebase>25</timebase>
							<ntsc>FALSE</ntsc>
						</rate>
						<start>17417</start>
						<end>17611</end>
						<in>85074</in>
						<out>85268</out>
						<pproTicksIn>864406287360000</pproTicksIn>
						<pproTicksOut>866377451520000</pproTicksOut>
						<file id="file-62"/>
						<sourcetrack>
							<mediatype>audio</mediatype>
							<trackindex>1</trackindex>
						</sourcetrack>
						<logginginfo>
							<description></description>
							<scene></scene>
							<shottake></shottake>
							<lognote></lognote>
						</logginginfo>
						<labels>
							<label2>Caribbean</label2>
						</labels>
					</clipitem>
					<clipitem id="clipitem-2024" premiereChannelType="mono">
						<masterclipid>masterclip-66</masterclipid>
						<name>VB 1 V_03.wav</name>
						<enabled>TRUE</enabled>
						<duration>171138</duration>
						<rate>
							<timebase>25</timebase>
							<ntsc>FALSE</ntsc>
						</rate>
						<start>17611</start>
						<end>17830</end>
						<in>85560</in>
						<out>85779</out>
						<pproTicksIn>869344358400000</pproTicksIn>
						<pproTicksOut>871569538560000</pproTicksOut>
						<file id="file-62"/>
						<sourcetrack>
							<mediatype>audio</mediatype>
							<trackindex>1</trackindex>
						</sourcetrack>
						<logginginfo>
							<description></description>
							<scene></scene>
							<shottake></shottake>
							<lognote></lognote>
						</logginginfo>
						<labels>
							<label2>Caribbean</label2>
						</labels>
					</clipitem>
					<clipitem id="clipitem-2025" premiereChannelType="mono">
						<masterclipid>masterclip-66</masterclipid>
						<name>VB 1 V_03.wav</name>
						<enabled>TRUE</enabled>
						<duration>171138</duration>
						<rate>
							<timebase>25</timebase>
							<ntsc>FALSE</ntsc>
						</rate>
						<start>17830</start>
						<end>17876</end>
						<in>83479</in>
						<out>83525</out>
						<pproTicksIn>848200066560000</pproTicksIn>
						<pproTicksOut>848667456000000</pproTicksOut>
						<file id="file-62"/>
						<sourcetrack>
							<mediatype>audio</mediatype>
							<trackindex>1</trackindex>
						</sourcetrack>
						<logginginfo>
							<description></description>
							<scene></scene>
							<shottake></shottake>
							<lognote></lognote>
						</logginginfo>
						<labels>
							<label2>Caribbean</label2>
						</labels>
					</clipitem>
					<clipitem id="clipitem-2026" premiereChannelType="mono">
						<masterclipid>masterclip-66</masterclipid>
						<name>VB 1 V_03.wav</name>
						<enabled>TRUE</enabled>
						<duration>171138</duration>
						<rate>
							<timebase>25</timebase>
							<ntsc>FALSE</ntsc>
						</rate>
						<start>17876</start>
						<end>18012</end>
						<in>85841</in>
						<out>85977</out>
						<pproTicksIn>872199498240000</pproTicksIn>
						<pproTicksOut>873581345280000</pproTicksOut>
						<file id="file-62"/>
						<sourcetrack>
							<mediatype>audio</mediatype>
							<trackindex>1</trackindex>
						</sourcetrack>
						<logginginfo>
							<description></description>
							<scene></scene>
							<shottake></shottake>
							<lognote></lognote>
						</logginginfo>
						<labels>
							<label2>Caribbean</label2>
						</labels>
					</clipitem>
					<clipitem id="clipitem-2027" premiereChannelType="mono">
						<masterclipid>masterclip-66</masterclipid>
						<name>VB 1 V_03.wav</name>
						<enabled>TRUE</enabled>
						<duration>171138</duration>
						<rate>
							<timebase>25</timebase>
							<ntsc>FALSE</ntsc>
						</rate>
						<start>18012</start>
						<end>18158</end>
						<in>116811</in>
						<out>116957</out>
						<pproTicksIn>1186874519040000</pproTicksIn>
						<pproTicksOut>1188357972480000</pproTicksOut>
						<file id="file-62"/>
						<sourcetrack>
							<mediatype>audio</mediatype>
							<trackindex>1</trackindex>
						</sourcetrack>
						<logginginfo>
							<description></description>
							<scene></scene>
							<shottake></shottake>
							<lognote></lognote>
						</logginginfo>
						<labels>
							<label2>Caribbean</label2>
						</labels>
					</clipitem>
					<clipitem id="clipitem-2028" premiereChannelType="mono">
						<masterclipid>masterclip-66</masterclipid>
						<name>VB 1 V_03.wav</name>
						<enabled>TRUE</enabled>
						<duration>171138</duration>
						<rate>
							<timebase>25</timebase>
							<ntsc>FALSE</ntsc>
						</rate>
						<start>18158</start>
						<end>18332</end>
						<in>86150</in>
						<out>86324</out>
						<pproTicksIn>875339136000000</pproTicksIn>
						<pproTicksOut>877107087360000</pproTicksOut>
						<file id="file-62"/>
						<sourcetrack>
							<mediatype>audio</mediatype>
							<trackindex>1</trackindex>
						</sourcetrack>
						<logginginfo>
							<description></description>
							<scene></scene>
							<shottake></shottake>
							<lognote></lognote>
						</logginginfo>
						<labels>
							<label2>Caribbean</label2>
						</labels>
					</clipitem>
					<clipitem id="clipitem-2029" premiereChannelType="mono">
						<masterclipid>masterclip-66</masterclipid>
						<name>VB 1 V_03.wav</name>
						<enabled>TRUE</enabled>
						<duration>171138</duration>
						<rate>
							<timebase>25</timebase>
							<ntsc>FALSE</ntsc>
						</rate>
						<start>18332</start>
						<end>22265</end>
						<in>87920</in>
						<out>91853</out>
						<pproTicksIn>893323468800000</pproTicksIn>
						<pproTicksOut>933285265920000</pproTicksOut>
						<file id="file-62"/>
						<sourcetrack>
							<mediatype>audio</mediatype>
							<trackindex>1</trackindex>
						</sourcetrack>
						<logginginfo>
							<description></description>
							<scene></scene>
							<shottake></shottake>
							<lognote></lognote>
						</logginginfo>
						<labels>
							<label2>Caribbean</label2>
						</labels>
					</clipitem>
					<clipitem id="clipitem-2030" premiereChannelType="mono">
						<masterclipid>masterclip-66</masterclipid>
						<name>VB 1 V_03.wav</name>
						<enabled>TRUE</enabled>
						<duration>171138</duration>
						<rate>
							<timebase>25</timebase>
							<ntsc>FALSE</ntsc>
						</rate>
						<start>22265</start>
						<end>23367</end>
						<in>91952</in>
						<out>93054</out>
						<pproTicksIn>934291169280000</pproTicksIn>
						<pproTicksOut>945488194560000</pproTicksOut>
						<file id="file-62"/>
						<sourcetrack>
							<mediatype>audio</mediatype>
							<trackindex>1</trackindex>
						</sourcetrack>
						<logginginfo>
							<description></description>
							<scene></scene>
							<shottake></shottake>
							<lognote></lognote>
						</logginginfo>
						<labels>
							<label2>Caribbean</label2>
						</labels>
					</clipitem>
					<clipitem id="clipitem-2031" premiereChannelType="mono">
						<masterclipid>masterclip-66</masterclipid>
						<name>VB 1 V_03.wav</name>
						<enabled>TRUE</enabled>
						<duration>171138</duration>
						<rate>
							<timebase>25</timebase>
							<ntsc>FALSE</ntsc>
						</rate>
						<start>23367</start>
						<end>23724</end>
						<in>93377</in>
						<out>93734</out>
						<pproTicksIn>948770081280000</pproTicksIn>
						<pproTicksOut>952397429760000</pproTicksOut>
						<file id="file-62"/>
						<sourcetrack>
							<mediatype>audio</mediatype>
							<trackindex>1</trackindex>
						</sourcetrack>
						<logginginfo>
							<description></description>
							<scene></scene>
							<shottake></shottake>
							<lognote></lognote>
						</logginginfo>
						<labels>
							<label2>Caribbean</label2>
						</labels>
					</clipitem>
					<clipitem id="clipitem-2032" premiereChannelType="mono">
						<masterclipid>masterclip-66</masterclipid>
						<name>VB 1 V_03.wav</name>
						<enabled>TRUE</enabled>
						<duration>171138</duration>
						<rate>
							<timebase>25</timebase>
							<ntsc>FALSE</ntsc>
						</rate>
						<start>23724</start>
						<end>24114</end>
						<in>94350</in>
						<out>94740</out>
						<pproTicksIn>958656384000000</pproTicksIn>
						<pproTicksOut>962619033600000</pproTicksOut>
						<file id="file-62"/>
						<sourcetrack>
							<mediatype>audio</mediatype>
							<trackindex>1</trackindex>
						</sourcetrack>
						<logginginfo>
							<description></description>
							<scene></scene>
							<shottake></shottake>
							<lognote></lognote>
						</logginginfo>
						<labels>
							<label2>Caribbean</label2>
						</labels>
					</clipitem>
					<clipitem id="clipitem-2033" premiereChannelType="mono">
						<masterclipid>masterclip-66</masterclipid>
						<name>VB 1 V_03.wav</name>
						<enabled>TRUE</enabled>
						<duration>171138</duration>
						<rate>
							<timebase>25</timebase>
							<ntsc>FALSE</ntsc>
						</rate>
						<start>24114</start>
						<end>24241</end>
						<in>94797</in>
						<out>94924</out>
						<pproTicksIn>963198190080000</pproTicksIn>
						<pproTicksOut>964488591360000</pproTicksOut>
						<file id="file-62"/>
						<sourcetrack>
							<mediatype>audio</mediatype>
							<trackindex>1</trackindex>
						</sourcetrack>
						<logginginfo>
							<description></description>
							<scene></scene>
							<shottake></shottake>
							<lognote></lognote>
						</logginginfo>
						<labels>
							<label2>Caribbean</label2>
						</labels>
					</clipitem>
					<clipitem id="clipitem-2034" premiereChannelType="mono">
						<masterclipid>masterclip-66</masterclipid>
						<name>VB 1 V_03.wav</name>
						<enabled>TRUE</enabled>
						<duration>171138</duration>
						<rate>
							<timebase>25</timebase>
							<ntsc>FALSE</ntsc>
						</rate>
						<start>24241</start>
						<end>24388</end>
						<in>95094</in>
						<out>95241</out>
						<pproTicksIn>966215900160000</pproTicksIn>
						<pproTicksOut>967709514240000</pproTicksOut>
						<file id="file-62"/>
						<sourcetrack>
							<mediatype>audio</mediatype>
							<trackindex>1</trackindex>
						</sourcetrack>
						<logginginfo>
							<description></description>
							<scene></scene>
							<shottake></shottake>
							<lognote></lognote>
						</logginginfo>
						<labels>
							<label2>Caribbean</label2>
						</labels>
					</clipitem>
					<clipitem id="clipitem-2035" premiereChannelType="mono">
						<masterclipid>masterclip-66</masterclipid>
						<name>VB 1 V_03.wav</name>
						<enabled>TRUE</enabled>
						<duration>171138</duration>
						<rate>
							<timebase>25</timebase>
							<ntsc>FALSE</ntsc>
						</rate>
						<start>24388</start>
						<end>24600</end>
						<in>95265</in>
						<out>95477</out>
						<pproTicksIn>967953369600000</pproTicksIn>
						<pproTicksOut>970107425280000</pproTicksOut>
						<file id="file-62"/>
						<sourcetrack>
							<mediatype>audio</mediatype>
							<trackindex>1</trackindex>
						</sourcetrack>
						<logginginfo>
							<description></description>
							<scene></scene>
							<shottake></shottake>
							<lognote></lognote>
						</logginginfo>
						<labels>
							<label2>Caribbean</label2>
						</labels>
					</clipitem>
					<clipitem id="clipitem-2036" premiereChannelType="mono">
						<masterclipid>masterclip-66</masterclipid>
						<name>VB 1 V_03.wav</name>
						<enabled>TRUE</enabled>
						<duration>171138</duration>
						<rate>
							<timebase>25</timebase>
							<ntsc>FALSE</ntsc>
						</rate>
						<start>24600</start>
						<end>24872</end>
						<in>95504</in>
						<out>95776</out>
						<pproTicksIn>970381762560000</pproTicksIn>
						<pproTicksOut>973145456640000</pproTicksOut>
						<file id="file-62"/>
						<sourcetrack>
							<mediatype>audio</mediatype>
							<trackindex>1</trackindex>
						</sourcetrack>
						<logginginfo>
							<description></description>
							<scene></scene>
							<shottake></shottake>
							<lognote></lognote>
						</logginginfo>
						<labels>
							<label2>Caribbean</label2>
						</labels>
					</clipitem>
					<clipitem id="clipitem-2037" premiereChannelType="mono">
						<masterclipid>masterclip-66</masterclipid>
						<name>VB 1 V_03.wav</name>
						<enabled>TRUE</enabled>
						<duration>171138</duration>
						<rate>
							<timebase>25</timebase>
							<ntsc>FALSE</ntsc>
						</rate>
						<start>24872</start>
						<end>26291</end>
						<in>95789</in>
						<out>97208</out>
						<pproTicksIn>973277544960000</pproTicksIn>
						<pproTicksOut>987695493120000</pproTicksOut>
						<file id="file-62"/>
						<sourcetrack>
							<mediatype>audio</mediatype>
							<trackindex>1</trackindex>
						</sourcetrack>
						<logginginfo>
							<description></description>
							<scene></scene>
							<shottake></shottake>
							<lognote></lognote>
						</logginginfo>
						<labels>
							<label2>Caribbean</label2>
						</labels>
					</clipitem>
					<clipitem id="clipitem-2038" premiereChannelType="mono">
						<masterclipid>masterclip-66</masterclipid>
						<name>VB 1 V_03.wav</name>
						<enabled>TRUE</enabled>
						<duration>171138</duration>
						<rate>
							<timebase>25</timebase>
							<ntsc>FALSE</ntsc>
						</rate>
						<start>26291</start>
						<end>26387</end>
						<in>97273</in>
						<out>97369</out>
						<pproTicksIn>988355934720000</pproTicksIn>
						<pproTicksOut>989331356160000</pproTicksOut>
						<file id="file-62"/>
						<sourcetrack>
							<mediatype>audio</mediatype>
							<trackindex>1</trackindex>
						</sourcetrack>
						<logginginfo>
							<description></description>
							<scene></scene>
							<shottake></shottake>
							<lognote></lognote>
						</logginginfo>
						<labels>
							<label2>Caribbean</label2>
						</labels>
					</clipitem>
					<clipitem id="clipitem-2039" premiereChannelType="mono">
						<masterclipid>masterclip-66</masterclipid>
						<name>VB 1 V_03.wav</name>
						<enabled>TRUE</enabled>
						<duration>171138</duration>
						<rate>
							<timebase>25</timebase>
							<ntsc>FALSE</ntsc>
						</rate>
						<start>26387</start>
						<end>27111</end>
						<in>97523</in>
						<out>98247</out>
						<pproTicksIn>990896094720000</pproTicksIn>
						<pproTicksOut>998252398080000</pproTicksOut>
						<file id="file-62"/>
						<sourcetrack>
							<mediatype>audio</mediatype>
							<trackindex>1</trackindex>
						</sourcetrack>
						<logginginfo>
							<description></description>
							<scene></scene>
							<shottake></shottake>
							<lognote></lognote>
						</logginginfo>
						<labels>
							<label2>Caribbean</label2>
						</labels>
					</clipitem>
					<clipitem id="clipitem-2040" premiereChannelType="mono">
						<masterclipid>masterclip-66</masterclipid>
						<name>VB 1 V_03.wav</name>
						<enabled>TRUE</enabled>
						<duration>171138</duration>
						<rate>
							<timebase>25</timebase>
							<ntsc>FALSE</ntsc>
						</rate>
						<start>27111</start>
						<end>27316</end>
						<in>98260</in>
						<out>98465</out>
						<pproTicksIn>998384486400000</pproTicksIn>
						<pproTicksOut>1000467417600000</pproTicksOut>
						<file id="file-62"/>
						<sourcetrack>
							<mediatype>audio</mediatype>
							<trackindex>1</trackindex>
						</sourcetrack>
						<logginginfo>
							<description></description>
							<scene></scene>
							<shottake></shottake>
							<lognote></lognote>
						</logginginfo>
						<labels>
							<label2>Caribbean</label2>
						</labels>
					</clipitem>
					<clipitem id="clipitem-2041" premiereChannelType="mono">
						<masterclipid>masterclip-66</masterclipid>
						<name>VB 1 V_03.wav</name>
						<enabled>TRUE</enabled>
						<duration>171138</duration>
						<rate>
							<timebase>25</timebase>
							<ntsc>FALSE</ntsc>
						</rate>
						<start>27316</start>
						<end>27702</end>
						<in>98958</in>
						<out>99344</out>
						<pproTicksIn>1005476613120000</pproTicksIn>
						<pproTicksOut>1009398620160000</pproTicksOut>
						<file id="file-62"/>
						<sourcetrack>
							<mediatype>audio</mediatype>
							<trackindex>1</trackindex>
						</sourcetrack>
						<logginginfo>
							<description></description>
							<scene></scene>
							<shottake></shottake>
							<lognote></lognote>
						</logginginfo>
						<labels>
							<label2>Caribbean</label2>
						</labels>
					</clipitem>
					<clipitem id="clipitem-2042" premiereChannelType="mono">
						<masterclipid>masterclip-66</masterclipid>
						<name>VB 1 V_03.wav</name>
						<enabled>TRUE</enabled>
						<duration>171138</duration>
						<rate>
							<timebase>25</timebase>
							<ntsc>FALSE</ntsc>
						</rate>
						<start>27702</start>
						<end>27789</end>
						<in>99640</in>
						<out>99727</out>
						<pproTicksIn>1012406169600000</pproTicksIn>
						<pproTicksOut>1013290145280000</pproTicksOut>
						<file id="file-62"/>
						<sourcetrack>
							<mediatype>audio</mediatype>
							<trackindex>1</trackindex>
						</sourcetrack>
						<logginginfo>
							<description></description>
							<scene></scene>
							<shottake></shottake>
							<lognote></lognote>
						</logginginfo>
						<labels>
							<label2>Caribbean</label2>
						</labels>
					</clipitem>
					<clipitem id="clipitem-2043" premiereChannelType="mono">
						<masterclipid>masterclip-66</masterclipid>
						<name>VB 1 V_03.wav</name>
						<enabled>TRUE</enabled>
						<duration>171138</duration>
						<rate>
							<timebase>25</timebase>
							<ntsc>FALSE</ntsc>
						</rate>
						<start>27789</start>
						<end>29601</end>
						<in>99831</in>
						<out>101643</out>
						<pproTicksIn>1014346851840000</pproTicksIn>
						<pproTicksOut>1032757931520000</pproTicksOut>
						<file id="file-62"/>
						<sourcetrack>
							<mediatype>audio</mediatype>
							<trackindex>1</trackindex>
						</sourcetrack>
						<logginginfo>
							<description></description>
							<scene></scene>
							<shottake></shottake>
							<lognote></lognote>
						</logginginfo>
						<labels>
							<label2>Caribbean</label2>
						</labels>
					</clipitem>
					<clipitem id="clipitem-2044" premiereChannelType="mono">
						<masterclipid>masterclip-66</masterclipid>
						<name>VB 1 V_03.wav</name>
						<enabled>TRUE</enabled>
						<duration>171138</duration>
						<rate>
							<timebase>25</timebase>
							<ntsc>FALSE</ntsc>
						</rate>
						<start>29601</start>
						<end>29693</end>
						<in>102540</in>
						<out>102632</out>
						<pproTicksIn>1041872025600000</pproTicksIn>
						<pproTicksOut>1042806804480000</pproTicksOut>
						<file id="file-62"/>
						<sourcetrack>
							<mediatype>audio</mediatype>
							<trackindex>1</trackindex>
						</sourcetrack>
						<logginginfo>
							<description></description>
							<scene></scene>
							<shottake></shottake>
							<lognote></lognote>
						</logginginfo>
						<labels>
							<label2>Caribbean</label2>
						</labels>
					</clipitem>
					<clipitem id="clipitem-2045" premiereChannelType="mono">
						<masterclipid>masterclip-66</masterclipid>
						<name>VB 1 V_03.wav</name>
						<enabled>TRUE</enabled>
						<duration>171138</duration>
						<rate>
							<timebase>25</timebase>
							<ntsc>FALSE</ntsc>
						</rate>
						<start>29693</start>
						<end>29760</end>
						<in>103317</in>
						<out>103384</out>
						<pproTicksIn>1049766842880000</pproTicksIn>
						<pproTicksOut>1050447605760000</pproTicksOut>
						<file id="file-62"/>
						<sourcetrack>
							<mediatype>audio</mediatype>
							<trackindex>1</trackindex>
						</sourcetrack>
						<logginginfo>
							<description></description>
							<scene></scene>
							<shottake></shottake>
							<lognote></lognote>
						</logginginfo>
						<labels>
							<label2>Caribbean</label2>
						</labels>
					</clipitem>
					<clipitem id="clipitem-2046" premiereChannelType="mono">
						<masterclipid>masterclip-66</masterclipid>
						<name>VB 1 V_03.wav</name>
						<enabled>TRUE</enabled>
						<duration>171138</duration>
						<rate>
							<timebase>25</timebase>
							<ntsc>FALSE</ntsc>
						</rate>
						<start>29760</start>
						<end>29774</end>
						<in>103438</in>
						<out>103452</out>
						<pproTicksIn>1050996280320000</pproTicksIn>
						<pproTicksOut>1051138529280000</pproTicksOut>
						<file id="file-62"/>
						<sourcetrack>
							<mediatype>audio</mediatype>
							<trackindex>1</trackindex>
						</sourcetrack>
						<logginginfo>
							<description></description>
							<scene></scene>
							<shottake></shottake>
							<lognote></lognote>
						</logginginfo>
						<labels>
							<label2>Caribbean</label2>
						</labels>
					</clipitem>
					<clipitem id="clipitem-2047" premiereChannelType="mono">
						<masterclipid>masterclip-66</masterclipid>
						<name>VB 1 V_03.wav</name>
						<enabled>TRUE</enabled>
						<duration>171138</duration>
						<rate>
							<timebase>25</timebase>
							<ntsc>FALSE</ntsc>
						</rate>
						<start>29774</start>
						<end>29865</end>
						<in>107326</in>
						<out>107417</out>
						<pproTicksIn>1090500848640000</pproTicksIn>
						<pproTicksOut>1091425466880000</pproTicksOut>
						<file id="file-62"/>
						<sourcetrack>
							<mediatype>audio</mediatype>
							<trackindex>1</trackindex>
						</sourcetrack>
						<logginginfo>
							<description></description>
							<scene></scene>
							<shottake></shottake>
							<lognote></lognote>
						</logginginfo>
						<labels>
							<label2>Caribbean</label2>
						</labels>
					</clipitem>
					<clipitem id="clipitem-2048" premiereChannelType="mono">
						<masterclipid>masterclip-66</masterclipid>
						<name>VB 1 V_03.wav</name>
						<enabled>TRUE</enabled>
						<duration>171138</duration>
						<rate>
							<timebase>25</timebase>
							<ntsc>FALSE</ntsc>
						</rate>
						<start>29865</start>
						<end>30769</end>
						<in>107708</in>
						<out>108612</out>
						<pproTicksIn>1094382213120000</pproTicksIn>
						<pproTicksOut>1103567431680000</pproTicksOut>
						<file id="file-62"/>
						<sourcetrack>
							<mediatype>audio</mediatype>
							<trackindex>1</trackindex>
						</sourcetrack>
						<logginginfo>
							<description></description>
							<scene></scene>
							<shottake></shottake>
							<lognote></lognote>
						</logginginfo>
						<labels>
							<label2>Caribbean</label2>
						</labels>
					</clipitem>
					<clipitem id="clipitem-2049" premiereChannelType="mono">
						<masterclipid>masterclip-66</masterclipid>
						<name>VB 1 V_03.wav</name>
						<enabled>TRUE</enabled>
						<duration>171138</duration>
						<rate>
							<timebase>25</timebase>
							<ntsc>FALSE</ntsc>
						</rate>
						<start>30769</start>
						<end>30880</end>
						<in>108644</in>
						<out>108755</out>
						<pproTicksIn>1103892572160000</pproTicksIn>
						<pproTicksOut>1105020403200000</pproTicksOut>
						<file id="file-62"/>
						<sourcetrack>
							<mediatype>audio</mediatype>
							<trackindex>1</trackindex>
						</sourcetrack>
						<logginginfo>
							<description></description>
							<scene></scene>
							<shottake></shottake>
							<lognote></lognote>
						</logginginfo>
						<labels>
							<label2>Caribbean</label2>
						</labels>
					</clipitem>
					<clipitem id="clipitem-2050" premiereChannelType="mono">
						<masterclipid>masterclip-66</masterclipid>
						<name>VB 1 V_03.wav</name>
						<enabled>TRUE</enabled>
						<duration>171138</duration>
						<rate>
							<timebase>25</timebase>
							<ntsc>FALSE</ntsc>
						</rate>
						<start>30880</start>
						<end>31513</end>
						<in>108776</in>
						<out>109409</out>
						<pproTicksIn>1105233776640000</pproTicksIn>
						<pproTicksOut>1111665461760000</pproTicksOut>
						<file id="file-62"/>
						<sourcetrack>
							<mediatype>audio</mediatype>
							<trackindex>1</trackindex>
						</sourcetrack>
						<logginginfo>
							<description></description>
							<scene></scene>
							<shottake></shottake>
							<lognote></lognote>
						</logginginfo>
						<labels>
							<label2>Caribbean</label2>
						</labels>
					</clipitem>
					<clipitem id="clipitem-2051" premiereChannelType="mono">
						<masterclipid>masterclip-66</masterclipid>
						<name>VB 1 V_03.wav</name>
						<enabled>TRUE</enabled>
						<duration>171138</duration>
						<rate>
							<timebase>25</timebase>
							<ntsc>FALSE</ntsc>
						</rate>
						<start>31513</start>
						<end>31909</end>
						<in>109447</in>
						<out>109843</out>
						<pproTicksIn>1112051566080000</pproTicksIn>
						<pproTicksOut>1116075179520000</pproTicksOut>
						<file id="file-62"/>
						<sourcetrack>
							<mediatype>audio</mediatype>
							<trackindex>1</trackindex>
						</sourcetrack>
						<logginginfo>
							<description></description>
							<scene></scene>
							<shottake></shottake>
							<lognote></lognote>
						</logginginfo>
						<labels>
							<label2>Caribbean</label2>
						</labels>
					</clipitem>
					<clipitem id="clipitem-2052" premiereChannelType="mono">
						<masterclipid>masterclip-66</masterclipid>
						<name>VB 1 V_03.wav</name>
						<enabled>TRUE</enabled>
						<duration>171138</duration>
						<rate>
							<timebase>25</timebase>
							<ntsc>FALSE</ntsc>
						</rate>
						<start>31909</start>
						<end>32128</end>
						<in>109926</in>
						<out>110145</out>
						<pproTicksIn>1116918512640000</pproTicksIn>
						<pproTicksOut>1119143692800000</pproTicksOut>
						<file id="file-62"/>
						<sourcetrack>
							<mediatype>audio</mediatype>
							<trackindex>1</trackindex>
						</sourcetrack>
						<logginginfo>
							<description></description>
							<scene></scene>
							<shottake></shottake>
							<lognote></lognote>
						</logginginfo>
						<labels>
							<label2>Caribbean</label2>
						</labels>
					</clipitem>
					<clipitem id="clipitem-2053" premiereChannelType="mono">
						<masterclipid>masterclip-66</masterclipid>
						<name>VB 1 V_03.wav</name>
						<enabled>TRUE</enabled>
						<duration>171138</duration>
						<rate>
							<timebase>25</timebase>
							<ntsc>FALSE</ntsc>
						</rate>
						<start>32128</start>
						<end>32853</end>
						<in>111277</in>
						<out>112002</out>
						<pproTicksIn>1130645537280000</pproTicksIn>
						<pproTicksOut>1138012001280000</pproTicksOut>
						<file id="file-62"/>
						<sourcetrack>
							<mediatype>audio</mediatype>
							<trackindex>1</trackindex>
						</sourcetrack>
						<logginginfo>
							<description></description>
							<scene></scene>
							<shottake></shottake>
							<lognote></lognote>
						</logginginfo>
						<labels>
							<label2>Caribbean</label2>
						</labels>
					</clipitem>
					<clipitem id="clipitem-2054" premiereChannelType="mono">
						<masterclipid>masterclip-66</masterclipid>
						<name>VB 1 V_03.wav</name>
						<enabled>TRUE</enabled>
						<duration>171138</duration>
						<rate>
							<timebase>25</timebase>
							<ntsc>FALSE</ntsc>
						</rate>
						<start>32853</start>
						<end>32890</end>
						<in>112002</in>
						<out>112039</out>
						<pproTicksIn>1138012001280000</pproTicksIn>
						<pproTicksOut>1138387944960000</pproTicksOut>
						<file id="file-62"/>
						<sourcetrack>
							<mediatype>audio</mediatype>
							<trackindex>1</trackindex>
						</sourcetrack>
						<logginginfo>
							<description></description>
							<scene></scene>
							<shottake></shottake>
							<lognote></lognote>
						</logginginfo>
						<labels>
							<label2>Caribbean</label2>
						</labels>
					</clipitem>
					<clipitem id="clipitem-2055" premiereChannelType="mono">
						<masterclipid>masterclip-66</masterclipid>
						<name>VB 1 V_03.wav</name>
						<enabled>TRUE</enabled>
						<duration>171138</duration>
						<rate>
							<timebase>25</timebase>
							<ntsc>FALSE</ntsc>
						</rate>
						<start>32890</start>
						<end>33281</end>
						<in>115277</in>
						<out>115668</out>
						<pproTicksIn>1171288097280000</pproTicksIn>
						<pproTicksOut>1175260907520000</pproTicksOut>
						<file id="file-62"/>
						<sourcetrack>
							<mediatype>audio</mediatype>
							<trackindex>1</trackindex>
						</sourcetrack>
						<logginginfo>
							<description></description>
							<scene></scene>
							<shottake></shottake>
							<lognote></lognote>
						</logginginfo>
						<labels>
							<label2>Caribbean</label2>
						</labels>
					</clipitem>
					<clipitem id="clipitem-2056" premiereChannelType="mono">
						<masterclipid>masterclip-66</masterclipid>
						<name>VB 1 V_03.wav</name>
						<enabled>TRUE</enabled>
						<duration>171138</duration>
						<rate>
							<timebase>25</timebase>
							<ntsc>FALSE</ntsc>
						</rate>
						<start>33281</start>
						<end>33357</end>
						<in>116203</in>
						<out>116279</out>
						<pproTicksIn>1180696849920000</pproTicksIn>
						<pproTicksOut>1181469058560000</pproTicksOut>
						<file id="file-62"/>
						<sourcetrack>
							<mediatype>audio</mediatype>
							<trackindex>1</trackindex>
						</sourcetrack>
						<logginginfo>
							<description></description>
							<scene></scene>
							<shottake></shottake>
							<lognote></lognote>
						</logginginfo>
						<labels>
							<label2>Caribbean</label2>
						</labels>
					</clipitem>
					<clipitem id="clipitem-2057" premiereChannelType="mono">
						<masterclipid>masterclip-66</masterclipid>
						<name>VB 1 V_03.wav</name>
						<enabled>TRUE</enabled>
						<duration>171138</duration>
						<rate>
							<timebase>25</timebase>
							<ntsc>FALSE</ntsc>
						</rate>
						<start>33357</start>
						<end>33465</end>
						<in>116298</in>
						<out>116406</out>
						<pproTicksIn>1181662110720000</pproTicksIn>
						<pproTicksOut>1182759459840000</pproTicksOut>
						<file id="file-62"/>
						<sourcetrack>
							<mediatype>audio</mediatype>
							<trackindex>1</trackindex>
						</sourcetrack>
						<logginginfo>
							<description></description>
							<scene></scene>
							<shottake></shottake>
							<lognote></lognote>
						</logginginfo>
						<labels>
							<label2>Caribbean</label2>
						</labels>
					</clipitem>
					<clipitem id="clipitem-2058" premiereChannelType="mono">
						<masterclipid>masterclip-66</masterclipid>
						<name>VB 1 V_03.wav</name>
						<enabled>TRUE</enabled>
						<duration>171138</duration>
						<rate>
							<timebase>25</timebase>
							<ntsc>FALSE</ntsc>
						</rate>
						<start>33465</start>
						<end>33766</end>
						<in>116510</in>
						<out>116811</out>
						<pproTicksIn>1183816166400000</pproTicksIn>
						<pproTicksOut>1186874519040000</pproTicksOut>
						<file id="file-62"/>
						<sourcetrack>
							<mediatype>audio</mediatype>
							<trackindex>1</trackindex>
						</sourcetrack>
						<logginginfo>
							<description></description>
							<scene></scene>
							<shottake></shottake>
							<lognote></lognote>
						</logginginfo>
						<labels>
							<label2>Caribbean</label2>
						</labels>
					</clipitem>
					<clipitem id="clipitem-2059" premiereChannelType="mono">
						<masterclipid>masterclip-66</masterclipid>
						<name>VB 1 V_03.wav</name>
						<enabled>TRUE</enabled>
						<duration>171138</duration>
						<rate>
							<timebase>25</timebase>
							<ntsc>FALSE</ntsc>
						</rate>
						<start>33766</start>
						<end>33992</end>
						<in>116811</in>
						<out>117037</out>
						<pproTicksIn>1186874519040000</pproTicksIn>
						<pproTicksOut>1189170823680000</pproTicksOut>
						<file id="file-62"/>
						<sourcetrack>
							<mediatype>audio</mediatype>
							<trackindex>1</trackindex>
						</sourcetrack>
						<logginginfo>
							<description></description>
							<scene></scene>
							<shottake></shottake>
							<lognote></lognote>
						</logginginfo>
						<labels>
							<label2>Caribbean</label2>
						</labels>
					</clipitem>
					<clipitem id="clipitem-2060" premiereChannelType="mono">
						<masterclipid>masterclip-66</masterclipid>
						<name>VB 1 V_03.wav</name>
						<enabled>TRUE</enabled>
						<duration>171138</duration>
						<rate>
							<timebase>25</timebase>
							<ntsc>FALSE</ntsc>
						</rate>
						<start>33992</start>
						<end>34035</end>
						<in>117226</in>
						<out>117269</out>
						<pproTicksIn>1191091184640000</pproTicksIn>
						<pproTicksOut>1191528092160000</pproTicksOut>
						<file id="file-62"/>
						<sourcetrack>
							<mediatype>audio</mediatype>
							<trackindex>1</trackindex>
						</sourcetrack>
						<logginginfo>
							<description></description>
							<scene></scene>
							<shottake></shottake>
							<lognote></lognote>
						</logginginfo>
						<labels>
							<label2>Caribbean</label2>
						</labels>
					</clipitem>
					<clipitem id="clipitem-2061" premiereChannelType="mono">
						<masterclipid>masterclip-66</masterclipid>
						<name>VB 1 V_03.wav</name>
						<enabled>TRUE</enabled>
						<duration>171138</duration>
						<rate>
							<timebase>25</timebase>
							<ntsc>FALSE</ntsc>
						</rate>
						<start>34035</start>
						<end>34790</end>
						<in>117633</in>
						<out>118388</out>
						<pproTicksIn>1195226565120000</pproTicksIn>
						<pproTicksOut>1202897848320000</pproTicksOut>
						<file id="file-62"/>
						<sourcetrack>
							<mediatype>audio</mediatype>
							<trackindex>1</trackindex>
						</sourcetrack>
						<logginginfo>
							<description></description>
							<scene></scene>
							<shottake></shottake>
							<lognote></lognote>
						</logginginfo>
						<labels>
							<label2>Caribbean</label2>
						</labels>
					</clipitem>
					<clipitem id="clipitem-2062" premiereChannelType="mono">
						<masterclipid>masterclip-66</masterclipid>
						<name>VB 1 V_03.wav</name>
						<enabled>TRUE</enabled>
						<duration>171138</duration>
						<rate>
							<timebase>25</timebase>
							<ntsc>FALSE</ntsc>
						</rate>
						<start>34790</start>
						<end>35299</end>
						<in>118612</in>
						<out>119121</out>
						<pproTicksIn>1205173831680000</pproTicksIn>
						<pproTicksOut>1210345597440000</pproTicksOut>
						<file id="file-62"/>
						<sourcetrack>
							<mediatype>audio</mediatype>
							<trackindex>1</trackindex>
						</sourcetrack>
						<logginginfo>
							<description></description>
							<scene></scene>
							<shottake></shottake>
							<lognote></lognote>
						</logginginfo>
						<labels>
							<label2>Caribbean</label2>
						</labels>
					</clipitem>
					<clipitem id="clipitem-2063" premiereChannelType="mono">
						<masterclipid>masterclip-66</masterclipid>
						<name>VB 1 V_03.wav</name>
						<enabled>TRUE</enabled>
						<duration>171138</duration>
						<rate>
							<timebase>25</timebase>
							<ntsc>FALSE</ntsc>
						</rate>
						<start>35299</start>
						<end>35672</end>
						<in>119201</in>
						<out>119574</out>
						<pproTicksIn>1211158448640000</pproTicksIn>
						<pproTicksOut>1214948367360000</pproTicksOut>
						<file id="file-62"/>
						<sourcetrack>
							<mediatype>audio</mediatype>
							<trackindex>1</trackindex>
						</sourcetrack>
						<logginginfo>
							<description></description>
							<scene></scene>
							<shottake></shottake>
							<lognote></lognote>
						</logginginfo>
						<labels>
							<label2>Caribbean</label2>
						</labels>
					</clipitem>
					<clipitem id="clipitem-2064" premiereChannelType="mono">
						<masterclipid>masterclip-66</masterclipid>
						<name>VB 1 V_03.wav</name>
						<enabled>TRUE</enabled>
						<duration>171138</duration>
						<rate>
							<timebase>25</timebase>
							<ntsc>FALSE</ntsc>
						</rate>
						<start>35672</start>
						<end>36434</end>
						<in>119583</in>
						<out>120345</out>
						<pproTicksIn>1215039813120000</pproTicksIn>
						<pproTicksOut>1222782220800000</pproTicksOut>
						<file id="file-62"/>
						<sourcetrack>
							<mediatype>audio</mediatype>
							<trackindex>1</trackindex>
						</sourcetrack>
						<logginginfo>
							<description></description>
							<scene></scene>
							<shottake></shottake>
							<lognote></lognote>
						</logginginfo>
						<labels>
							<label2>Caribbean</label2>
						</labels>
					</clipitem>
					<clipitem id="clipitem-2065" premiereChannelType="mono">
						<masterclipid>masterclip-66</masterclipid>
						<name>VB 1 V_03.wav</name>
						<enabled>TRUE</enabled>
						<duration>171138</duration>
						<rate>
							<timebase>25</timebase>
							<ntsc>FALSE</ntsc>
						</rate>
						<start>36434</start>
						<end>36524</end>
						<in>120539</in>
						<out>120629</out>
						<pproTicksIn>1224753384960000</pproTicksIn>
						<pproTicksOut>1225667842560000</pproTicksOut>
						<file id="file-62"/>
						<sourcetrack>
							<mediatype>audio</mediatype>
							<trackindex>1</trackindex>
						</sourcetrack>
						<logginginfo>
							<description></description>
							<scene></scene>
							<shottake></shottake>
							<lognote></lognote>
						</logginginfo>
						<labels>
							<label2>Caribbean</label2>
						</labels>
					</clipitem>
					<clipitem id="clipitem-2066" premiereChannelType="mono">
						<masterclipid>masterclip-66</masterclipid>
						<name>VB 1 V_03.wav</name>
						<enabled>TRUE</enabled>
						<duration>171138</duration>
						<rate>
							<timebase>25</timebase>
							<ntsc>FALSE</ntsc>
						</rate>
						<start>36524</start>
						<end>37155</end>
						<in>124899</in>
						<out>125530</out>
						<pproTicksIn>1269053775360000</pproTicksIn>
						<pproTicksOut>1275465139200000</pproTicksOut>
						<file id="file-62"/>
						<sourcetrack>
							<mediatype>audio</mediatype>
							<trackindex>1</trackindex>
						</sourcetrack>
						<logginginfo>
							<description></description>
							<scene></scene>
							<shottake></shottake>
							<lognote></lognote>
						</logginginfo>
						<labels>
							<label2>Caribbean</label2>
						</labels>
					</clipitem>
					<clipitem id="clipitem-2067" premiereChannelType="mono">
						<masterclipid>masterclip-66</masterclipid>
						<name>VB 1 V_03.wav</name>
						<enabled>TRUE</enabled>
						<duration>171138</duration>
						<rate>
							<timebase>25</timebase>
							<ntsc>FALSE</ntsc>
						</rate>
						<start>37732</start>
						<end>40503</end>
						<in>126107</in>
						<out>128878</out>
						<pproTicksIn>1281327828480000</pproTicksIn>
						<pproTicksOut>1309482961920000</pproTicksOut>
						<file id="file-62"/>
						<sourcetrack>
							<mediatype>audio</mediatype>
							<trackindex>1</trackindex>
						</sourcetrack>
						<logginginfo>
							<description></description>
							<scene></scene>
							<shottake></shottake>
							<lognote></lognote>
						</logginginfo>
						<labels>
							<label2>Caribbean</label2>
						</labels>
					</clipitem>
					<clipitem id="clipitem-2068" premiereChannelType="mono">
						<masterclipid>masterclip-66</masterclipid>
						<name>VB 1 V_03.wav</name>
						<enabled>TRUE</enabled>
						<duration>171138</duration>
						<rate>
							<timebase>25</timebase>
							<ntsc>FALSE</ntsc>
						</rate>
						<start>40503</start>
						<end>40839</end>
						<in>128926</in>
						<out>129262</out>
						<pproTicksIn>1309970672640000</pproTicksIn>
						<pproTicksOut>1313384647680000</pproTicksOut>
						<file id="file-62"/>
						<sourcetrack>
							<mediatype>audio</mediatype>
							<trackindex>1</trackindex>
						</sourcetrack>
						<logginginfo>
							<description></description>
							<scene></scene>
							<shottake></shottake>
							<lognote></lognote>
						</logginginfo>
						<labels>
							<label2>Caribbean</label2>
						</labels>
					</clipitem>
					<clipitem id="clipitem-2069" premiereChannelType="mono">
						<masterclipid>masterclip-66</masterclipid>
						<name>VB 1 V_03.wav</name>
						<enabled>TRUE</enabled>
						<duration>171138</duration>
						<rate>
							<timebase>25</timebase>
							<ntsc>FALSE</ntsc>
						</rate>
						<start>40839</start>
						<end>41006</end>
						<in>129262</in>
						<out>129429</out>
						<pproTicksIn>1313384647680000</pproTicksIn>
						<pproTicksOut>1315081474560000</pproTicksOut>
						<file id="file-62"/>
						<sourcetrack>
							<mediatype>audio</mediatype>
							<trackindex>1</trackindex>
						</sourcetrack>
						<logginginfo>
							<description></description>
							<scene></scene>
							<shottake></shottake>
							<lognote></lognote>
						</logginginfo>
						<labels>
							<label2>Caribbean</label2>
						</labels>
					</clipitem>
					<clipitem id="clipitem-2070" premiereChannelType="mono">
						<masterclipid>masterclip-66</masterclipid>
						<name>VB 1 V_03.wav</name>
						<enabled>TRUE</enabled>
						<duration>171138</duration>
						<rate>
							<timebase>25</timebase>
							<ntsc>FALSE</ntsc>
						</rate>
						<start>41006</start>
						<end>41144</end>
						<in>129476</in>
						<out>129614</out>
						<pproTicksIn>1315559024640000</pproTicksIn>
						<pproTicksOut>1316961192960000</pproTicksOut>
						<file id="file-62"/>
						<sourcetrack>
							<mediatype>audio</mediatype>
							<trackindex>1</trackindex>
						</sourcetrack>
						<logginginfo>
							<description></description>
							<scene></scene>
							<shottake></shottake>
							<lognote></lognote>
						</logginginfo>
						<labels>
							<label2>Caribbean</label2>
						</labels>
					</clipitem>
					<clipitem id="clipitem-2071" premiereChannelType="mono">
						<masterclipid>masterclip-66</masterclipid>
						<name>VB 1 V_03.wav</name>
						<enabled>TRUE</enabled>
						<duration>171138</duration>
						<rate>
							<timebase>25</timebase>
							<ntsc>FALSE</ntsc>
						</rate>
						<start>41144</start>
						<end>41720</end>
						<in>131417</in>
						<out>131993</out>
						<pproTicksIn>1335280826880000</pproTicksIn>
						<pproTicksOut>1341133355520000</pproTicksOut>
						<file id="file-62"/>
						<sourcetrack>
							<mediatype>audio</mediatype>
							<trackindex>1</trackindex>
						</sourcetrack>
						<logginginfo>
							<description></description>
							<scene></scene>
							<shottake></shottake>
							<lognote></lognote>
						</logginginfo>
						<labels>
							<label2>Caribbean</label2>
						</labels>
					</clipitem>
					<clipitem id="clipitem-2072" premiereChannelType="mono">
						<masterclipid>masterclip-66</masterclipid>
						<name>VB 1 V_03.wav</name>
						<enabled>TRUE</enabled>
						<duration>171138</duration>
						<rate>
							<timebase>25</timebase>
							<ntsc>FALSE</ntsc>
						</rate>
						<start>41720</start>
						<end>42122</end>
						<in>132051</in>
						<out>132453</out>
						<pproTicksIn>1341722672640000</pproTicksIn>
						<pproTicksOut>1345807249920000</pproTicksOut>
						<file id="file-62"/>
						<sourcetrack>
							<mediatype>audio</mediatype>
							<trackindex>1</trackindex>
						</sourcetrack>
						<logginginfo>
							<description></description>
							<scene></scene>
							<shottake></shottake>
							<lognote></lognote>
						</logginginfo>
						<labels>
							<label2>Caribbean</label2>
						</labels>
					</clipitem>
					<clipitem id="clipitem-2073" premiereChannelType="mono">
						<masterclipid>masterclip-66</masterclipid>
						<name>VB 1 V_03.wav</name>
						<enabled>TRUE</enabled>
						<duration>171138</duration>
						<rate>
							<timebase>25</timebase>
							<ntsc>FALSE</ntsc>
						</rate>
						<start>42122</start>
						<end>42277</end>
						<in>132657</in>
						<out>132812</out>
						<pproTicksIn>1347880020480000</pproTicksIn>
						<pproTicksOut>1349454919680000</pproTicksOut>
						<file id="file-62"/>
						<sourcetrack>
							<mediatype>audio</mediatype>
							<trackindex>1</trackindex>
						</sourcetrack>
						<logginginfo>
							<description></description>
							<scene></scene>
							<shottake></shottake>
							<lognote></lognote>
						</logginginfo>
						<labels>
							<label2>Caribbean</label2>
						</labels>
					</clipitem>
					<clipitem id="clipitem-2074" premiereChannelType="mono">
						<masterclipid>masterclip-66</masterclipid>
						<name>VB 1 V_03.wav</name>
						<enabled>TRUE</enabled>
						<duration>171138</duration>
						<rate>
							<timebase>25</timebase>
							<ntsc>FALSE</ntsc>
						</rate>
						<start>42277</start>
						<end>42347</end>
						<in>133359</in>
						<out>133429</out>
						<pproTicksIn>1355012789760000</pproTicksIn>
						<pproTicksOut>1355724034560000</pproTicksOut>
						<file id="file-62"/>
						<sourcetrack>
							<mediatype>audio</mediatype>
							<trackindex>1</trackindex>
						</sourcetrack>
						<logginginfo>
							<description></description>
							<scene></scene>
							<shottake></shottake>
							<lognote></lognote>
						</logginginfo>
						<labels>
							<label2>Caribbean</label2>
						</labels>
					</clipitem>
					<clipitem id="clipitem-2075" premiereChannelType="mono">
						<masterclipid>masterclip-66</masterclipid>
						<name>VB 1 V_03.wav</name>
						<enabled>TRUE</enabled>
						<duration>171138</duration>
						<rate>
							<timebase>25</timebase>
							<ntsc>FALSE</ntsc>
						</rate>
						<start>42347</start>
						<end>42499</end>
						<in>133852</in>
						<out>134004</out>
						<pproTicksIn>1360021985280000</pproTicksIn>
						<pproTicksOut>1361566402560000</pproTicksOut>
						<file id="file-62"/>
						<sourcetrack>
							<mediatype>audio</mediatype>
							<trackindex>1</trackindex>
						</sourcetrack>
						<logginginfo>
							<description></description>
							<scene></scene>
							<shottake></shottake>
							<lognote></lognote>
						</logginginfo>
						<labels>
							<label2>Caribbean</label2>
						</labels>
					</clipitem>
					<clipitem id="clipitem-2076" premiereChannelType="mono">
						<masterclipid>masterclip-66</masterclipid>
						<name>VB 1 V_03.wav</name>
						<enabled>TRUE</enabled>
						<duration>171138</duration>
						<rate>
							<timebase>25</timebase>
							<ntsc>FALSE</ntsc>
						</rate>
						<start>42499</start>
						<end>42832</end>
						<in>134099</in>
						<out>134432</out>
						<pproTicksIn>1362531663360000</pproTicksIn>
						<pproTicksOut>1365915156480000</pproTicksOut>
						<file id="file-62"/>
						<sourcetrack>
							<mediatype>audio</mediatype>
							<trackindex>1</trackindex>
						</sourcetrack>
						<logginginfo>
							<description></description>
							<scene></scene>
							<shottake></shottake>
							<lognote></lognote>
						</logginginfo>
						<labels>
							<label2>Caribbean</label2>
						</labels>
					</clipitem>
					<clipitem id="clipitem-2077" premiereChannelType="mono">
						<masterclipid>masterclip-66</masterclipid>
						<name>VB 1 V_03.wav</name>
						<enabled>TRUE</enabled>
						<duration>171138</duration>
						<rate>
							<timebase>25</timebase>
							<ntsc>FALSE</ntsc>
						</rate>
						<start>42832</start>
						<end>43282</end>
						<in>134992</in>
						<out>135442</out>
						<pproTicksIn>1371605114880000</pproTicksIn>
						<pproTicksOut>1376177402880000</pproTicksOut>
						<file id="file-62"/>
						<sourcetrack>
							<mediatype>audio</mediatype>
							<trackindex>1</trackindex>
						</sourcetrack>
						<logginginfo>
							<description></description>
							<scene></scene>
							<shottake></shottake>
							<lognote></lognote>
						</logginginfo>
						<labels>
							<label2>Caribbean</label2>
						</labels>
					</clipitem>
					<clipitem id="clipitem-2078" premiereChannelType="mono">
						<masterclipid>masterclip-66</masterclipid>
						<name>VB 1 V_03.wav</name>
						<enabled>TRUE</enabled>
						<duration>171138</duration>
						<rate>
							<timebase>25</timebase>
							<ntsc>FALSE</ntsc>
						</rate>
						<start>43282</start>
						<end>43553</end>
						<in>135648</in>
						<out>135919</out>
						<pproTicksIn>1378270494720000</pproTicksIn>
						<pproTicksOut>1381024028160000</pproTicksOut>
						<file id="file-62"/>
						<sourcetrack>
							<mediatype>audio</mediatype>
							<trackindex>1</trackindex>
						</sourcetrack>
						<logginginfo>
							<description></description>
							<scene></scene>
							<shottake></shottake>
							<lognote></lognote>
						</logginginfo>
						<labels>
							<label2>Caribbean</label2>
						</labels>
					</clipitem>
					<clipitem id="clipitem-2079" premiereChannelType="mono">
						<masterclipid>masterclip-66</masterclipid>
						<name>VB 1 V_03.wav</name>
						<enabled>TRUE</enabled>
						<duration>171138</duration>
						<rate>
							<timebase>25</timebase>
							<ntsc>FALSE</ntsc>
						</rate>
						<start>43553</start>
						<end>44385</end>
						<in>136003</in>
						<out>136835</out>
						<pproTicksIn>1381877521920000</pproTicksIn>
						<pproTicksOut>1390331174400000</pproTicksOut>
						<file id="file-62"/>
						<sourcetrack>
							<mediatype>audio</mediatype>
							<trackindex>1</trackindex>
						</sourcetrack>
						<logginginfo>
							<description></description>
							<scene></scene>
							<shottake></shottake>
							<lognote></lognote>
						</logginginfo>
						<labels>
							<label2>Caribbean</label2>
						</labels>
					</clipitem>
					<clipitem id="clipitem-2080" premiereChannelType="mono">
						<masterclipid>masterclip-66</masterclipid>
						<name>VB 1 V_03.wav</name>
						<enabled>TRUE</enabled>
						<duration>171138</duration>
						<rate>
							<timebase>25</timebase>
							<ntsc>FALSE</ntsc>
						</rate>
						<start>44385</start>
						<end>44583</end>
						<in>137077</in>
						<out>137275</out>
						<pproTicksIn>1392790049280000</pproTicksIn>
						<pproTicksOut>1394801856000000</pproTicksOut>
						<file id="file-62"/>
						<sourcetrack>
							<mediatype>audio</mediatype>
							<trackindex>1</trackindex>
						</sourcetrack>
						<logginginfo>
							<description></description>
							<scene></scene>
							<shottake></shottake>
							<lognote></lognote>
						</logginginfo>
						<labels>
							<label2>Caribbean</label2>
						</labels>
					</clipitem>
					<clipitem id="clipitem-2081" premiereChannelType="mono">
						<masterclipid>masterclip-66</masterclipid>
						<name>VB 1 V_03.wav</name>
						<enabled>TRUE</enabled>
						<duration>171138</duration>
						<rate>
							<timebase>25</timebase>
							<ntsc>FALSE</ntsc>
						</rate>
						<start>44583</start>
						<end>44650</end>
						<in>137376</in>
						<out>137443</out>
						<pproTicksIn>1395828080640000</pproTicksIn>
						<pproTicksOut>1396508843520000</pproTicksOut>
						<file id="file-62"/>
						<sourcetrack>
							<mediatype>audio</mediatype>
							<trackindex>1</trackindex>
						</sourcetrack>
						<logginginfo>
							<description></description>
							<scene></scene>
							<shottake></shottake>
							<lognote></lognote>
						</logginginfo>
						<labels>
							<label2>Caribbean</label2>
						</labels>
					</clipitem>
					<clipitem id="clipitem-2082" premiereChannelType="mono">
						<masterclipid>masterclip-66</masterclipid>
						<name>VB 1 V_03.wav</name>
						<enabled>TRUE</enabled>
						<duration>171138</duration>
						<rate>
							<timebase>25</timebase>
							<ntsc>FALSE</ntsc>
						</rate>
						<start>44650</start>
						<end>45287</end>
						<in>137505</in>
						<out>138142</out>
						<pproTicksIn>1397138803200000</pproTicksIn>
						<pproTicksOut>1403611130880000</pproTicksOut>
						<file id="file-62"/>
						<sourcetrack>
							<mediatype>audio</mediatype>
							<trackindex>1</trackindex>
						</sourcetrack>
						<logginginfo>
							<description></description>
							<scene></scene>
							<shottake></shottake>
							<lognote></lognote>
						</logginginfo>
						<labels>
							<label2>Caribbean</label2>
						</labels>
					</clipitem>
					<clipitem id="clipitem-2083" premiereChannelType="mono">
						<masterclipid>masterclip-66</masterclipid>
						<name>VB 1 V_03.wav</name>
						<enabled>TRUE</enabled>
						<duration>171138</duration>
						<rate>
							<timebase>25</timebase>
							<ntsc>FALSE</ntsc>
						</rate>
						<start>45287</start>
						<end>45692</end>
						<in>138274</in>
						<out>138679</out>
						<pproTicksIn>1404952335360000</pproTicksIn>
						<pproTicksOut>1409067394560000</pproTicksOut>
						<file id="file-62"/>
						<sourcetrack>
							<mediatype>audio</mediatype>
							<trackindex>1</trackindex>
						</sourcetrack>
						<logginginfo>
							<description></description>
							<scene></scene>
							<shottake></shottake>
							<lognote></lognote>
						</logginginfo>
						<labels>
							<label2>Caribbean</label2>
						</labels>
					</clipitem>
					<clipitem id="clipitem-2084" premiereChannelType="mono">
						<masterclipid>masterclip-66</masterclipid>
						<name>VB 1 V_03.wav</name>
						<enabled>TRUE</enabled>
						<duration>171138</duration>
						<rate>
							<timebase>25</timebase>
							<ntsc>FALSE</ntsc>
						</rate>
						<start>45692</start>
						<end>45923</end>
						<in>138810</in>
						<out>139041</out>
						<pproTicksIn>1410398438400000</pproTicksIn>
						<pproTicksOut>1412745546240000</pproTicksOut>
						<file id="file-62"/>
						<sourcetrack>
							<mediatype>audio</mediatype>
							<trackindex>1</trackindex>
						</sourcetrack>
						<logginginfo>
							<description></description>
							<scene></scene>
							<shottake></shottake>
							<lognote></lognote>
						</logginginfo>
						<labels>
							<label2>Caribbean</label2>
						</labels>
					</clipitem>
					<clipitem id="clipitem-2085" premiereChannelType="mono">
						<masterclipid>masterclip-66</masterclipid>
						<name>VB 1 V_03.wav</name>
						<enabled>TRUE</enabled>
						<duration>171138</duration>
						<rate>
							<timebase>25</timebase>
							<ntsc>FALSE</ntsc>
						</rate>
						<start>45923</start>
						<end>46349</end>
						<in>139073</in>
						<out>139499</out>
						<pproTicksIn>1413070686720000</pproTicksIn>
						<pproTicksOut>1417399119360000</pproTicksOut>
						<file id="file-62"/>
						<sourcetrack>
							<mediatype>audio</mediatype>
							<trackindex>1</trackindex>
						</sourcetrack>
						<logginginfo>
							<description></description>
							<scene></scene>
							<shottake></shottake>
							<lognote></lognote>
						</logginginfo>
						<labels>
							<label2>Caribbean</label2>
						</labels>
					</clipitem>
					<clipitem id="clipitem-2086" premiereChannelType="mono">
						<masterclipid>masterclip-66</masterclipid>
						<name>VB 1 V_03.wav</name>
						<enabled>TRUE</enabled>
						<duration>171138</duration>
						<rate>
							<timebase>25</timebase>
							<ntsc>FALSE</ntsc>
						</rate>
						<start>46349</start>
						<end>46455</end>
						<in>159642</in>
						<out>159748</out>
						<pproTicksIn>1622064890880000</pproTicksIn>
						<pproTicksOut>1623141918720000</pproTicksOut>
						<file id="file-62"/>
						<sourcetrack>
							<mediatype>audio</mediatype>
							<trackindex>1</trackindex>
						</sourcetrack>
						<logginginfo>
							<description></description>
							<scene></scene>
							<shottake></shottake>
							<lognote></lognote>
						</logginginfo>
						<labels>
							<label2>Caribbean</label2>
						</labels>
					</clipitem>
					<clipitem id="clipitem-2087" premiereChannelType="mono">
						<masterclipid>masterclip-66</masterclipid>
						<name>VB 1 V_03.wav</name>
						<enabled>TRUE</enabled>
						<duration>171138</duration>
						<rate>
							<timebase>25</timebase>
							<ntsc>FALSE</ntsc>
						</rate>
						<start>46455</start>
						<end>46911</end>
						<in>140048</in>
						<out>140504</out>
						<pproTicksIn>1422977310720000</pproTicksIn>
						<pproTicksOut>1427610562560000</pproTicksOut>
						<file id="file-62"/>
						<sourcetrack>
							<mediatype>audio</mediatype>
							<trackindex>1</trackindex>
						</sourcetrack>
						<logginginfo>
							<description></description>
							<scene></scene>
							<shottake></shottake>
							<lognote></lognote>
						</logginginfo>
						<labels>
							<label2>Caribbean</label2>
						</labels>
					</clipitem>
					<clipitem id="clipitem-2088" premiereChannelType="mono">
						<masterclipid>masterclip-66</masterclipid>
						<name>VB 1 V_03.wav</name>
						<enabled>TRUE</enabled>
						<duration>171138</duration>
						<rate>
							<timebase>25</timebase>
							<ntsc>FALSE</ntsc>
						</rate>
						<start>46911</start>
						<end>47138</end>
						<in>140817</in>
						<out>141044</out>
						<pproTicksIn>1430790842880000</pproTicksIn>
						<pproTicksOut>1433097308160000</pproTicksOut>
						<file id="file-62"/>
						<sourcetrack>
							<mediatype>audio</mediatype>
							<trackindex>1</trackindex>
						</sourcetrack>
						<logginginfo>
							<description></description>
							<scene></scene>
							<shottake></shottake>
							<lognote></lognote>
						</logginginfo>
						<labels>
							<label2>Caribbean</label2>
						</labels>
					</clipitem>
					<clipitem id="clipitem-2089" premiereChannelType="mono">
						<masterclipid>masterclip-66</masterclipid>
						<name>VB 1 V_03.wav</name>
						<enabled>TRUE</enabled>
						<duration>171138</duration>
						<rate>
							<timebase>25</timebase>
							<ntsc>FALSE</ntsc>
						</rate>
						<start>47138</start>
						<end>47335</end>
						<in>141203</in>
						<out>141400</out>
						<pproTicksIn>1434712849920000</pproTicksIn>
						<pproTicksOut>1436714496000000</pproTicksOut>
						<file id="file-62"/>
						<sourcetrack>
							<mediatype>audio</mediatype>
							<trackindex>1</trackindex>
						</sourcetrack>
						<logginginfo>
							<description></description>
							<scene></scene>
							<shottake></shottake>
							<lognote></lognote>
						</logginginfo>
						<labels>
							<label2>Caribbean</label2>
						</labels>
					</clipitem>
					<clipitem id="clipitem-2090" premiereChannelType="mono">
						<masterclipid>masterclip-66</masterclipid>
						<name>VB 1 V_03.wav</name>
						<enabled>TRUE</enabled>
						<duration>171138</duration>
						<rate>
							<timebase>25</timebase>
							<ntsc>FALSE</ntsc>
						</rate>
						<start>47335</start>
						<end>47513</end>
						<in>141454</in>
						<out>141632</out>
						<pproTicksIn>1437263170560000</pproTicksIn>
						<pproTicksOut>1439071764480000</pproTicksOut>
						<file id="file-62"/>
						<sourcetrack>
							<mediatype>audio</mediatype>
							<trackindex>1</trackindex>
						</sourcetrack>
						<logginginfo>
							<description></description>
							<scene></scene>
							<shottake></shottake>
							<lognote></lognote>
						</logginginfo>
						<labels>
							<label2>Caribbean</label2>
						</labels>
					</clipitem>
					<clipitem id="clipitem-2091" premiereChannelType="mono">
						<masterclipid>masterclip-66</masterclipid>
						<name>VB 1 V_03.wav</name>
						<enabled>TRUE</enabled>
						<duration>171138</duration>
						<rate>
							<timebase>25</timebase>
							<ntsc>FALSE</ntsc>
						</rate>
						<start>47513</start>
						<end>47723</end>
						<in>141671</in>
						<out>141881</out>
						<pproTicksIn>1439468029440000</pproTicksIn>
						<pproTicksOut>1441601763840000</pproTicksOut>
						<file id="file-62"/>
						<sourcetrack>
							<mediatype>audio</mediatype>
							<trackindex>1</trackindex>
						</sourcetrack>
						<logginginfo>
							<description></description>
							<scene></scene>
							<shottake></shottake>
							<lognote></lognote>
						</logginginfo>
						<labels>
							<label2>Caribbean</label2>
						</labels>
					</clipitem>
					<clipitem id="clipitem-2092" premiereChannelType="mono">
						<masterclipid>masterclip-66</masterclipid>
						<name>VB 1 V_03.wav</name>
						<enabled>TRUE</enabled>
						<duration>171138</duration>
						<rate>
							<timebase>25</timebase>
							<ntsc>FALSE</ntsc>
						</rate>
						<start>47723</start>
						<end>48040</end>
						<in>141894</in>
						<out>142211</out>
						<pproTicksIn>1441733852160000</pproTicksIn>
						<pproTicksOut>1444954775040000</pproTicksOut>
						<file id="file-62"/>
						<sourcetrack>
							<mediatype>audio</mediatype>
							<trackindex>1</trackindex>
						</sourcetrack>
						<logginginfo>
							<description></description>
							<scene></scene>
							<shottake></shottake>
							<lognote></lognote>
						</logginginfo>
						<labels>
							<label2>Caribbean</label2>
						</labels>
					</clipitem>
					<clipitem id="clipitem-2093" premiereChannelType="mono">
						<masterclipid>masterclip-66</masterclipid>
						<name>VB 1 V_03.wav</name>
						<enabled>TRUE</enabled>
						<duration>171138</duration>
						<rate>
							<timebase>25</timebase>
							<ntsc>FALSE</ntsc>
						</rate>
						<start>48040</start>
						<end>48766</end>
						<in>142351</in>
						<out>143077</out>
						<pproTicksIn>1446377264640000</pproTicksIn>
						<pproTicksOut>1453753889280000</pproTicksOut>
						<file id="file-62"/>
						<sourcetrack>
							<mediatype>audio</mediatype>
							<trackindex>1</trackindex>
						</sourcetrack>
						<logginginfo>
							<description></description>
							<scene></scene>
							<shottake></shottake>
							<lognote></lognote>
						</logginginfo>
						<labels>
							<label2>Caribbean</label2>
						</labels>
					</clipitem>
					<clipitem id="clipitem-2094" premiereChannelType="mono">
						<masterclipid>masterclip-66</masterclipid>
						<name>VB 1 V_03.wav</name>
						<enabled>TRUE</enabled>
						<duration>171138</duration>
						<rate>
							<timebase>25</timebase>
							<ntsc>FALSE</ntsc>
						</rate>
						<start>48766</start>
						<end>49706</end>
						<in>143684</in>
						<out>144624</out>
						<pproTicksIn>1459921397760000</pproTicksIn>
						<pproTicksOut>1469472399360000</pproTicksOut>
						<file id="file-62"/>
						<sourcetrack>
							<mediatype>audio</mediatype>
							<trackindex>1</trackindex>
						</sourcetrack>
						<logginginfo>
							<description></description>
							<scene></scene>
							<shottake></shottake>
							<lognote></lognote>
						</logginginfo>
						<labels>
							<label2>Caribbean</label2>
						</labels>
					</clipitem>
					<clipitem id="clipitem-2095" premiereChannelType="mono">
						<masterclipid>masterclip-66</masterclipid>
						<name>VB 1 V_03.wav</name>
						<enabled>TRUE</enabled>
						<duration>171138</duration>
						<rate>
							<timebase>25</timebase>
							<ntsc>FALSE</ntsc>
						</rate>
						<start>49706</start>
						<end>49762</end>
						<in>147186</in>
						<out>147242</out>
						<pproTicksIn>1495503959040000</pproTicksIn>
						<pproTicksOut>1496072954880000</pproTicksOut>
						<file id="file-62"/>
						<sourcetrack>
							<mediatype>audio</mediatype>
							<trackindex>1</trackindex>
						</sourcetrack>
						<logginginfo>
							<description></description>
							<scene></scene>
							<shottake></shottake>
							<lognote></lognote>
						</logginginfo>
						<labels>
							<label2>Caribbean</label2>
						</labels>
					</clipitem>
					<clipitem id="clipitem-2096" premiereChannelType="mono">
						<masterclipid>masterclip-66</masterclipid>
						<name>VB 1 V_03.wav</name>
						<enabled>TRUE</enabled>
						<duration>171138</duration>
						<rate>
							<timebase>25</timebase>
							<ntsc>FALSE</ntsc>
						</rate>
						<start>49762</start>
						<end>49948</end>
						<in>153681</in>
						<out>153867</out>
						<pproTicksIn>1561497315840000</pproTicksIn>
						<pproTicksOut>1563387194880000</pproTicksOut>
						<file id="file-62"/>
						<sourcetrack>
							<mediatype>audio</mediatype>
							<trackindex>1</trackindex>
						</sourcetrack>
						<logginginfo>
							<description></description>
							<scene></scene>
							<shottake></shottake>
							<lognote></lognote>
						</logginginfo>
						<labels>
							<label2>Caribbean</label2>
						</labels>
					</clipitem>
					<clipitem id="clipitem-2097" premiereChannelType="mono">
						<masterclipid>masterclip-66</masterclipid>
						<name>VB 1 V_03.wav</name>
						<enabled>TRUE</enabled>
						<duration>171138</duration>
						<rate>
							<timebase>25</timebase>
							<ntsc>FALSE</ntsc>
						</rate>
						<start>49948</start>
						<end>50390</end>
						<in>153946</in>
						<out>154388</out>
						<pproTicksIn>1564189885440000</pproTicksIn>
						<pproTicksOut>1568680888320000</pproTicksOut>
						<file id="file-62"/>
						<sourcetrack>
							<mediatype>audio</mediatype>
							<trackindex>1</trackindex>
						</sourcetrack>
						<logginginfo>
							<description></description>
							<scene></scene>
							<shottake></shottake>
							<lognote></lognote>
						</logginginfo>
						<labels>
							<label2>Caribbean</label2>
						</labels>
					</clipitem>
					<clipitem id="clipitem-2098" premiereChannelType="mono">
						<masterclipid>masterclip-66</masterclipid>
						<name>VB 1 V_03.wav</name>
						<enabled>TRUE</enabled>
						<duration>171138</duration>
						<rate>
							<timebase>25</timebase>
							<ntsc>FALSE</ntsc>
						</rate>
						<start>50390</start>
						<end>50983</end>
						<in>156215</in>
						<out>156808</out>
						<pproTicksIn>1587244377600000</pproTicksIn>
						<pproTicksOut>1593269637120000</pproTicksOut>
						<file id="file-62"/>
						<sourcetrack>
							<mediatype>audio</mediatype>
							<trackindex>1</trackindex>
						</sourcetrack>
						<logginginfo>
							<description></description>
							<scene></scene>
							<shottake></shottake>
							<lognote></lognote>
						</logginginfo>
						<labels>
							<label2>Caribbean</label2>
						</labels>
					</clipitem>
					<clipitem id="clipitem-2099" premiereChannelType="mono">
						<masterclipid>masterclip-66</masterclipid>
						<name>VB 1 V_03.wav</name>
						<enabled>TRUE</enabled>
						<duration>171138</duration>
						<rate>
							<timebase>25</timebase>
							<ntsc>FALSE</ntsc>
						</rate>
						<start>50983</start>
						<end>53597</end>
						<in>157028</in>
						<out>159642</out>
						<pproTicksIn>1595504977920000</pproTicksIn>
						<pproTicksOut>1622064890880000</pproTicksOut>
						<file id="file-62"/>
						<sourcetrack>
							<mediatype>audio</mediatype>
							<trackindex>1</trackindex>
						</sourcetrack>
						<logginginfo>
							<description></description>
							<scene></scene>
							<shottake></shottake>
							<lognote></lognote>
						</logginginfo>
						<labels>
							<label2>Caribbean</label2>
						</labels>
					</clipitem>
					<clipitem id="clipitem-2100" premiereChannelType="mono">
						<masterclipid>masterclip-66</masterclipid>
						<name>VB 1 V_03.wav</name>
						<enabled>TRUE</enabled>
						<duration>171138</duration>
						<rate>
							<timebase>25</timebase>
							<ntsc>FALSE</ntsc>
						</rate>
						<start>53597</start>
						<end>53636</end>
						<in>160568</in>
						<out>160607</out>
						<pproTicksIn>1631473643520000</pproTicksIn>
						<pproTicksOut>1631869908480000</pproTicksOut>
						<file id="file-62"/>
						<sourcetrack>
							<mediatype>audio</mediatype>
							<trackindex>1</trackindex>
						</sourcetrack>
						<logginginfo>
							<description></description>
							<scene></scene>
							<shottake></shottake>
							<lognote></lognote>
						</logginginfo>
						<labels>
							<label2>Caribbean</label2>
						</labels>
					</clipitem>
					<clipitem id="clipitem-2101" premiereChannelType="mono">
						<masterclipid>masterclip-66</masterclipid>
						<name>VB 1 V_03.wav</name>
						<enabled>TRUE</enabled>
						<duration>171138</duration>
						<rate>
							<timebase>25</timebase>
							<ntsc>FALSE</ntsc>
						</rate>
						<start>53636</start>
						<end>55369</end>
						<in>161146</in>
						<out>162879</out>
						<pproTicksIn>1637346493440000</pproTicksIn>
						<pproTicksOut>1654954882560000</pproTicksOut>
						<file id="file-62"/>
						<sourcetrack>
							<mediatype>audio</mediatype>
							<trackindex>1</trackindex>
						</sourcetrack>
						<logginginfo>
							<description></description>
							<scene></scene>
							<shottake></shottake>
							<lognote></lognote>
						</logginginfo>
						<labels>
							<label2>Caribbean</label2>
						</labels>
					</clipitem>
					<clipitem id="clipitem-2102" premiereChannelType="mono">
						<masterclipid>masterclip-66</masterclipid>
						<name>VB 1 V_03.wav</name>
						<enabled>TRUE</enabled>
						<duration>171138</duration>
						<rate>
							<timebase>25</timebase>
							<ntsc>FALSE</ntsc>
						</rate>
						<start>55369</start>
						<end>55449</end>
						<in>162899</in>
						<out>162979</out>
						<pproTicksIn>1655158095360000</pproTicksIn>
						<pproTicksOut>1655970946560000</pproTicksOut>
						<file id="file-62"/>
						<sourcetrack>
							<mediatype>audio</mediatype>
							<trackindex>1</trackindex>
						</sourcetrack>
						<logginginfo>
							<description></description>
							<scene></scene>
							<shottake></shottake>
							<lognote></lognote>
						</logginginfo>
						<labels>
							<label2>Caribbean</label2>
						</labels>
					</clipitem>
					<clipitem id="clipitem-2103" premiereChannelType="mono">
						<masterclipid>masterclip-66</masterclipid>
						<name>VB 1 V_03.wav</name>
						<enabled>TRUE</enabled>
						<duration>171138</duration>
						<rate>
							<timebase>25</timebase>
							<ntsc>FALSE</ntsc>
						</rate>
						<start>55449</start>
						<end>55738</end>
						<in>163146</in>
						<out>163435</out>
						<pproTicksIn>1657667773440000</pproTicksIn>
						<pproTicksOut>1660604198400000</pproTicksOut>
						<file id="file-62"/>
						<sourcetrack>
							<mediatype>audio</mediatype>
							<trackindex>1</trackindex>
						</sourcetrack>
						<logginginfo>
							<description></description>
							<scene></scene>
							<shottake></shottake>
							<lognote></lognote>
						</logginginfo>
						<labels>
							<label2>Caribbean</label2>
						</labels>
					</clipitem>
					<clipitem id="clipitem-2104" premiereChannelType="mono">
						<masterclipid>masterclip-66</masterclipid>
						<name>VB 1 V_03.wav</name>
						<enabled>TRUE</enabled>
						<duration>171138</duration>
						<rate>
							<timebase>25</timebase>
							<ntsc>FALSE</ntsc>
						</rate>
						<start>55738</start>
						<end>55905</end>
						<in>163648</in>
						<out>163815</out>
						<pproTicksIn>1662768414720000</pproTicksIn>
						<pproTicksOut>1664465241600000</pproTicksOut>
						<file id="file-62"/>
						<sourcetrack>
							<mediatype>audio</mediatype>
							<trackindex>1</trackindex>
						</sourcetrack>
						<logginginfo>
							<description></description>
							<scene></scene>
							<shottake></shottake>
							<lognote></lognote>
						</logginginfo>
						<labels>
							<label2>Caribbean</label2>
						</labels>
					</clipitem>
					<clipitem id="clipitem-2105" premiereChannelType="mono">
						<masterclipid>masterclip-66</masterclipid>
						<name>VB 1 V_03.wav</name>
						<enabled>TRUE</enabled>
						<duration>171138</duration>
						<rate>
							<timebase>25</timebase>
							<ntsc>FALSE</ntsc>
						</rate>
						<start>55905</start>
						<end>56079</end>
						<in>163829</in>
						<out>164003</out>
						<pproTicksIn>1664607490560000</pproTicksIn>
						<pproTicksOut>1666375441920000</pproTicksOut>
						<file id="file-62"/>
						<sourcetrack>
							<mediatype>audio</mediatype>
							<trackindex>1</trackindex>
						</sourcetrack>
						<logginginfo>
							<description></description>
							<scene></scene>
							<shottake></shottake>
							<lognote></lognote>
						</logginginfo>
						<labels>
							<label2>Caribbean</label2>
						</labels>
					</clipitem>
					<clipitem id="clipitem-2106" premiereChannelType="mono">
						<masterclipid>masterclip-66</masterclipid>
						<name>VB 1 V_03.wav</name>
						<enabled>TRUE</enabled>
						<duration>171138</duration>
						<rate>
							<timebase>25</timebase>
							<ntsc>FALSE</ntsc>
						</rate>
						<start>56079</start>
						<end>58120</end>
						<in>164067</in>
						<out>166108</out>
						<pproTicksIn>1667025722880000</pproTicksIn>
						<pproTicksOut>1687763589120000</pproTicksOut>
						<file id="file-62"/>
						<sourcetrack>
							<mediatype>audio</mediatype>
							<trackindex>1</trackindex>
						</sourcetrack>
						<logginginfo>
							<description></description>
							<scene></scene>
							<shottake></shottake>
							<lognote></lognote>
						</logginginfo>
						<labels>
							<label2>Caribbean</label2>
						</labels>
					</clipitem>
					<enabled>TRUE</enabled>
					<locked>FALSE</locked>
					<outputchannelindex>1</outputchannelindex>
				</track>
				<track TL.SQTrackAudioKeyframeStyle="0" TL.SQTrackShy="0" TL.SQTrackExpandedHeight="25" TL.SQTrackExpanded="0" MZ.TrackTargeted="0" PannerCurrentValue="0.5" PannerIsInverted="true" PannerStartKeyframe="-91445760000000000,0.5,0,0,0,0,0,0" PannerName="Balance" currentExplodedTrackIndex="0" totalExplodedTrackCount="1" premiereTrackType="Stereo">
					<clipitem id="clipitem-2107" premiereChannelType="mono">
						<masterclipid>masterclip-67</masterclipid>
						<name>VB 2 H_03.wav</name>
						<enabled>TRUE</enabled>
						<duration>171138</duration>
						<rate>
							<timebase>25</timebase>
							<ntsc>FALSE</ntsc>
						</rate>
						<start>420</start>
						<end>891</end>
						<in>168511</in>
						<out>168982</out>
						<pproTicksIn>1712179607040000</pproTicksIn>
						<pproTicksOut>1716965268480000</pproTicksOut>
						<file id="file-63">
							<name>VB 2 H_03.wav</name>
							<pathurl>file://localhost/Volumes/Brakka/AdobeLager/QUIZ%20-%20brakka/RA%cc%8aSTOFF%20LYD/2005/VB%202%20H_03.wav</pathurl>
							<rate>
								<timebase>30</timebase>
								<ntsc>TRUE</ntsc>
							</rate>
							<duration>205161</duration>
							<timecode>
								<rate>
									<timebase>30</timebase>
									<ntsc>TRUE</ntsc>
								</rate>
								<string>12;52;15;16</string>
								<frame>1388676</frame>
								<displayformat>DF</displayformat>
								<reel>
									<name></name>
								</reel>
							</timecode>
							<media>
								<audio>
									<samplecharacteristics>
										<depth>16</depth>
										<samplerate>48000</samplerate>
									</samplecharacteristics>
									<channelcount>1</channelcount>
									<audiochannel>
										<sourcechannel>1</sourcechannel>
									</audiochannel>
								</audio>
							</media>
						</file>
						<sourcetrack>
							<mediatype>audio</mediatype>
							<trackindex>1</trackindex>
						</sourcetrack>
						<logginginfo>
							<description></description>
							<scene></scene>
							<shottake></shottake>
							<lognote></lognote>
						</logginginfo>
						<labels>
							<label2>Caribbean</label2>
						</labels>
					</clipitem>
					<clipitem id="clipitem-2108" premiereChannelType="mono">
						<masterclipid>masterclip-67</masterclipid>
						<name>VB 2 H_03.wav</name>
						<enabled>TRUE</enabled>
						<duration>171138</duration>
						<rate>
							<timebase>25</timebase>
							<ntsc>FALSE</ntsc>
						</rate>
						<start>965</start>
						<end>1469</end>
						<in>32787</in>
						<out>33291</out>
						<pproTicksIn>333136903680000</pproTicksIn>
						<pproTicksOut>338257866240000</pproTicksOut>
						<file id="file-63"/>
						<sourcetrack>
							<mediatype>audio</mediatype>
							<trackindex>1</trackindex>
						</sourcetrack>
						<logginginfo>
							<description></description>
							<scene></scene>
							<shottake></shottake>
							<lognote></lognote>
						</logginginfo>
						<labels>
							<label2>Caribbean</label2>
						</labels>
					</clipitem>
					<clipitem id="clipitem-2109" premiereChannelType="mono">
						<masterclipid>masterclip-67</masterclipid>
						<name>VB 2 H_03.wav</name>
						<enabled>TRUE</enabled>
						<duration>171138</duration>
						<rate>
							<timebase>25</timebase>
							<ntsc>FALSE</ntsc>
						</rate>
						<start>1469</start>
						<end>4119</end>
						<in>33423</in>
						<out>36073</out>
						<pproTicksIn>339599070720000</pproTicksIn>
						<pproTicksOut>366524766720000</pproTicksOut>
						<file id="file-63"/>
						<sourcetrack>
							<mediatype>audio</mediatype>
							<trackindex>1</trackindex>
						</sourcetrack>
						<logginginfo>
							<description></description>
							<scene></scene>
							<shottake></shottake>
							<lognote></lognote>
						</logginginfo>
						<labels>
							<label2>Caribbean</label2>
						</labels>
					</clipitem>
					<clipitem id="clipitem-2110" premiereChannelType="mono">
						<masterclipid>masterclip-67</masterclipid>
						<name>VB 2 H_03.wav</name>
						<enabled>TRUE</enabled>
						<duration>171138</duration>
						<rate>
							<timebase>25</timebase>
							<ntsc>FALSE</ntsc>
						</rate>
						<start>4119</start>
						<end>4836</end>
						<in>36549</in>
						<out>37266</out>
						<pproTicksIn>371361231360000</pproTicksIn>
						<pproTicksOut>378646410240000</pproTicksOut>
						<file id="file-63"/>
						<sourcetrack>
							<mediatype>audio</mediatype>
							<trackindex>1</trackindex>
						</sourcetrack>
						<logginginfo>
							<description></description>
							<scene></scene>
							<shottake></shottake>
							<lognote></lognote>
						</logginginfo>
						<labels>
							<label2>Caribbean</label2>
						</labels>
					</clipitem>
					<clipitem id="clipitem-2111" premiereChannelType="mono">
						<masterclipid>masterclip-67</masterclipid>
						<name>VB 2 H_03.wav</name>
						<enabled>TRUE</enabled>
						<duration>171138</duration>
						<rate>
							<timebase>25</timebase>
							<ntsc>FALSE</ntsc>
						</rate>
						<start>4836</start>
						<end>5339</end>
						<in>37305</in>
						<out>37808</out>
						<pproTicksIn>379042675200000</pproTicksIn>
						<pproTicksOut>384153477120000</pproTicksOut>
						<file id="file-63"/>
						<sourcetrack>
							<mediatype>audio</mediatype>
							<trackindex>1</trackindex>
						</sourcetrack>
						<logginginfo>
							<description></description>
							<scene></scene>
							<shottake></shottake>
							<lognote></lognote>
						</logginginfo>
						<labels>
							<label2>Caribbean</label2>
						</labels>
					</clipitem>
					<clipitem id="clipitem-2112" premiereChannelType="mono">
						<masterclipid>masterclip-67</masterclipid>
						<name>VB 2 H_03.wav</name>
						<enabled>TRUE</enabled>
						<duration>171138</duration>
						<rate>
							<timebase>25</timebase>
							<ntsc>FALSE</ntsc>
						</rate>
						<start>5339</start>
						<end>5501</end>
						<in>37871</in>
						<out>38033</out>
						<pproTicksIn>384793597440000</pproTicksIn>
						<pproTicksOut>386439621120000</pproTicksOut>
						<file id="file-63"/>
						<sourcetrack>
							<mediatype>audio</mediatype>
							<trackindex>1</trackindex>
						</sourcetrack>
						<logginginfo>
							<description></description>
							<scene></scene>
							<shottake></shottake>
							<lognote></lognote>
						</logginginfo>
						<labels>
							<label2>Caribbean</label2>
						</labels>
					</clipitem>
					<clipitem id="clipitem-2113" premiereChannelType="mono">
						<masterclipid>masterclip-67</masterclipid>
						<name>VB 2 H_03.wav</name>
						<enabled>TRUE</enabled>
						<duration>171138</duration>
						<rate>
							<timebase>25</timebase>
							<ntsc>FALSE</ntsc>
						</rate>
						<start>5501</start>
						<end>6004</end>
						<in>46577</in>
						<out>47080</out>
						<pproTicksIn>473252129280000</pproTicksIn>
						<pproTicksOut>478362931200000</pproTicksOut>
						<file id="file-63"/>
						<sourcetrack>
							<mediatype>audio</mediatype>
							<trackindex>1</trackindex>
						</sourcetrack>
						<logginginfo>
							<description></description>
							<scene></scene>
							<shottake></shottake>
							<lognote></lognote>
						</logginginfo>
						<labels>
							<label2>Caribbean</label2>
						</labels>
					</clipitem>
					<clipitem id="clipitem-2114" premiereChannelType="mono">
						<masterclipid>masterclip-67</masterclipid>
						<name>VB 2 H_03.wav</name>
						<enabled>TRUE</enabled>
						<duration>171138</duration>
						<rate>
							<timebase>25</timebase>
							<ntsc>FALSE</ntsc>
						</rate>
						<start>6004</start>
						<end>6357</end>
						<in>50106</in>
						<out>50459</out>
						<pproTicksIn>509109027840000</pproTicksIn>
						<pproTicksOut>512695733760000</pproTicksOut>
						<file id="file-63"/>
						<sourcetrack>
							<mediatype>audio</mediatype>
							<trackindex>1</trackindex>
						</sourcetrack>
						<logginginfo>
							<description></description>
							<scene></scene>
							<shottake></shottake>
							<lognote></lognote>
						</logginginfo>
						<labels>
							<label2>Caribbean</label2>
						</labels>
					</clipitem>
					<clipitem id="clipitem-2115" premiereChannelType="mono">
						<masterclipid>masterclip-67</masterclipid>
						<name>VB 2 H_03.wav</name>
						<enabled>TRUE</enabled>
						<duration>171138</duration>
						<rate>
							<timebase>25</timebase>
							<ntsc>FALSE</ntsc>
						</rate>
						<start>6357</start>
						<end>6470</end>
						<in>50578</in>
						<out>50691</out>
						<pproTicksIn>513904849920000</pproTicksIn>
						<pproTicksOut>515053002240000</pproTicksOut>
						<file id="file-63"/>
						<sourcetrack>
							<mediatype>audio</mediatype>
							<trackindex>1</trackindex>
						</sourcetrack>
						<logginginfo>
							<description></description>
							<scene></scene>
							<shottake></shottake>
							<lognote></lognote>
						</logginginfo>
						<labels>
							<label2>Caribbean</label2>
						</labels>
					</clipitem>
					<clipitem id="clipitem-2116" premiereChannelType="mono">
						<masterclipid>masterclip-67</masterclipid>
						<name>VB 2 H_03.wav</name>
						<enabled>TRUE</enabled>
						<duration>171138</duration>
						<rate>
							<timebase>25</timebase>
							<ntsc>FALSE</ntsc>
						</rate>
						<start>6470</start>
						<end>6547</end>
						<in>50753</in>
						<out>50830</out>
						<pproTicksIn>515682961920000</pproTicksIn>
						<pproTicksOut>516465331200000</pproTicksOut>
						<file id="file-63"/>
						<sourcetrack>
							<mediatype>audio</mediatype>
							<trackindex>1</trackindex>
						</sourcetrack>
						<logginginfo>
							<description></description>
							<scene></scene>
							<shottake></shottake>
							<lognote></lognote>
						</logginginfo>
						<labels>
							<label2>Caribbean</label2>
						</labels>
					</clipitem>
					<clipitem id="clipitem-2117" premiereChannelType="mono">
						<masterclipid>masterclip-67</masterclipid>
						<name>VB 2 H_03.wav</name>
						<enabled>TRUE</enabled>
						<duration>171138</duration>
						<rate>
							<timebase>25</timebase>
							<ntsc>FALSE</ntsc>
						</rate>
						<start>6547</start>
						<end>7368</end>
						<in>50869</in>
						<out>51690</out>
						<pproTicksIn>516861596160000</pproTicksIn>
						<pproTicksOut>525203481600000</pproTicksOut>
						<file id="file-63"/>
						<sourcetrack>
							<mediatype>audio</mediatype>
							<trackindex>1</trackindex>
						</sourcetrack>
						<logginginfo>
							<description></description>
							<scene></scene>
							<shottake></shottake>
							<lognote></lognote>
						</logginginfo>
						<labels>
							<label2>Caribbean</label2>
						</labels>
					</clipitem>
					<clipitem id="clipitem-2118" premiereChannelType="mono">
						<masterclipid>masterclip-67</masterclipid>
						<name>VB 2 H_03.wav</name>
						<enabled>TRUE</enabled>
						<duration>171138</duration>
						<rate>
							<timebase>25</timebase>
							<ntsc>FALSE</ntsc>
						</rate>
						<start>7368</start>
						<end>7448</end>
						<in>51824</in>
						<out>51904</out>
						<pproTicksIn>526565007360000</pproTicksIn>
						<pproTicksOut>527377858560000</pproTicksOut>
						<file id="file-63"/>
						<sourcetrack>
							<mediatype>audio</mediatype>
							<trackindex>1</trackindex>
						</sourcetrack>
						<logginginfo>
							<description></description>
							<scene></scene>
							<shottake></shottake>
							<lognote></lognote>
						</logginginfo>
						<labels>
							<label2>Caribbean</label2>
						</labels>
					</clipitem>
					<clipitem id="clipitem-2119" premiereChannelType="mono">
						<masterclipid>masterclip-67</masterclipid>
						<name>VB 2 H_03.wav</name>
						<enabled>TRUE</enabled>
						<duration>171138</duration>
						<rate>
							<timebase>25</timebase>
							<ntsc>FALSE</ntsc>
						</rate>
						<start>7448</start>
						<end>8194</end>
						<in>52064</in>
						<out>52810</out>
						<pproTicksIn>529003560960000</pproTicksIn>
						<pproTicksOut>536583398400000</pproTicksOut>
						<file id="file-63"/>
						<sourcetrack>
							<mediatype>audio</mediatype>
							<trackindex>1</trackindex>
						</sourcetrack>
						<logginginfo>
							<description></description>
							<scene></scene>
							<shottake></shottake>
							<lognote></lognote>
						</logginginfo>
						<labels>
							<label2>Caribbean</label2>
						</labels>
					</clipitem>
					<clipitem id="clipitem-2120" premiereChannelType="mono">
						<masterclipid>masterclip-67</masterclipid>
						<name>VB 2 H_03.wav</name>
						<enabled>TRUE</enabled>
						<duration>171138</duration>
						<rate>
							<timebase>25</timebase>
							<ntsc>FALSE</ntsc>
						</rate>
						<start>8194</start>
						<end>8332</end>
						<in>57229</in>
						<out>57367</out>
						<pproTicksIn>581483266560000</pproTicksIn>
						<pproTicksOut>582885434880000</pproTicksOut>
						<file id="file-63"/>
						<sourcetrack>
							<mediatype>audio</mediatype>
							<trackindex>1</trackindex>
						</sourcetrack>
						<logginginfo>
							<description></description>
							<scene></scene>
							<shottake></shottake>
							<lognote></lognote>
						</logginginfo>
						<labels>
							<label2>Caribbean</label2>
						</labels>
					</clipitem>
					<clipitem id="clipitem-2121" premiereChannelType="mono">
						<masterclipid>masterclip-67</masterclipid>
						<name>VB 2 H_03.wav</name>
						<enabled>TRUE</enabled>
						<duration>171138</duration>
						<rate>
							<timebase>25</timebase>
							<ntsc>FALSE</ntsc>
						</rate>
						<start>8332</start>
						<end>8592</end>
						<in>58240</in>
						<out>58500</out>
						<pproTicksIn>591755673600000</pproTicksIn>
						<pproTicksOut>594397440000000</pproTicksOut>
						<file id="file-63"/>
						<sourcetrack>
							<mediatype>audio</mediatype>
							<trackindex>1</trackindex>
						</sourcetrack>
						<logginginfo>
							<description></description>
							<scene></scene>
							<shottake></shottake>
							<lognote></lognote>
						</logginginfo>
						<labels>
							<label2>Caribbean</label2>
						</labels>
					</clipitem>
					<clipitem id="clipitem-2122" premiereChannelType="mono">
						<masterclipid>masterclip-67</masterclipid>
						<name>VB 2 H_03.wav</name>
						<enabled>TRUE</enabled>
						<duration>171138</duration>
						<rate>
							<timebase>25</timebase>
							<ntsc>FALSE</ntsc>
						</rate>
						<start>8592</start>
						<end>8690</end>
						<in>58994</in>
						<out>59092</out>
						<pproTicksIn>599416796160000</pproTicksIn>
						<pproTicksOut>600412538880000</pproTicksOut>
						<file id="file-63"/>
						<sourcetrack>
							<mediatype>audio</mediatype>
							<trackindex>1</trackindex>
						</sourcetrack>
						<logginginfo>
							<description></description>
							<scene></scene>
							<shottake></shottake>
							<lognote></lognote>
						</logginginfo>
						<labels>
							<label2>Caribbean</label2>
						</labels>
					</clipitem>
					<clipitem id="clipitem-2123" premiereChannelType="mono">
						<masterclipid>masterclip-67</masterclipid>
						<name>VB 2 H_03.wav</name>
						<enabled>TRUE</enabled>
						<duration>171138</duration>
						<rate>
							<timebase>25</timebase>
							<ntsc>FALSE</ntsc>
						</rate>
						<start>8690</start>
						<end>8999</end>
						<in>59189</in>
						<out>59498</out>
						<pproTicksIn>601398120960000</pproTicksIn>
						<pproTicksOut>604537758720000</pproTicksOut>
						<file id="file-63"/>
						<sourcetrack>
							<mediatype>audio</mediatype>
							<trackindex>1</trackindex>
						</sourcetrack>
						<logginginfo>
							<description></description>
							<scene></scene>
							<shottake></shottake>
							<lognote></lognote>
						</logginginfo>
						<labels>
							<label2>Caribbean</label2>
						</labels>
					</clipitem>
					<clipitem id="clipitem-2124" premiereChannelType="mono">
						<masterclipid>masterclip-67</masterclipid>
						<name>VB 2 H_03.wav</name>
						<enabled>TRUE</enabled>
						<duration>171138</duration>
						<rate>
							<timebase>25</timebase>
							<ntsc>FALSE</ntsc>
						</rate>
						<start>8999</start>
						<end>9172</end>
						<in>59597</in>
						<out>59770</out>
						<pproTicksIn>605543662080000</pproTicksIn>
						<pproTicksOut>607301452800000</pproTicksOut>
						<file id="file-63"/>
						<sourcetrack>
							<mediatype>audio</mediatype>
							<trackindex>1</trackindex>
						</sourcetrack>
						<logginginfo>
							<description></description>
							<scene></scene>
							<shottake></shottake>
							<lognote></lognote>
						</logginginfo>
						<labels>
							<label2>Caribbean</label2>
						</labels>
					</clipitem>
					<clipitem id="clipitem-2125" premiereChannelType="mono">
						<masterclipid>masterclip-67</masterclipid>
						<name>VB 2 H_03.wav</name>
						<enabled>TRUE</enabled>
						<duration>171138</duration>
						<rate>
							<timebase>25</timebase>
							<ntsc>FALSE</ntsc>
						</rate>
						<start>9172</start>
						<end>9280</end>
						<in>59921</in>
						<out>60029</out>
						<pproTicksIn>608835709440000</pproTicksIn>
						<pproTicksOut>609933058560000</pproTicksOut>
						<file id="file-63"/>
						<sourcetrack>
							<mediatype>audio</mediatype>
							<trackindex>1</trackindex>
						</sourcetrack>
						<logginginfo>
							<description></description>
							<scene></scene>
							<shottake></shottake>
							<lognote></lognote>
						</logginginfo>
						<labels>
							<label2>Caribbean</label2>
						</labels>
					</clipitem>
					<clipitem id="clipitem-2126" premiereChannelType="mono">
						<masterclipid>masterclip-67</masterclipid>
						<name>VB 2 H_03.wav</name>
						<enabled>TRUE</enabled>
						<duration>171138</duration>
						<rate>
							<timebase>25</timebase>
							<ntsc>FALSE</ntsc>
						</rate>
						<start>9280</start>
						<end>9979</end>
						<in>65722</in>
						<out>66421</out>
						<pproTicksIn>667777582080000</pproTicksIn>
						<pproTicksOut>674879869440000</pproTicksOut>
						<file id="file-63"/>
						<sourcetrack>
							<mediatype>audio</mediatype>
							<trackindex>1</trackindex>
						</sourcetrack>
						<logginginfo>
							<description></description>
							<scene></scene>
							<shottake></shottake>
							<lognote></lognote>
						</logginginfo>
						<labels>
							<label2>Caribbean</label2>
						</labels>
					</clipitem>
					<clipitem id="clipitem-2127" premiereChannelType="mono">
						<masterclipid>masterclip-67</masterclipid>
						<name>VB 2 H_03.wav</name>
						<enabled>TRUE</enabled>
						<duration>171138</duration>
						<rate>
							<timebase>25</timebase>
							<ntsc>FALSE</ntsc>
						</rate>
						<start>9979</start>
						<end>10054</end>
						<in>66518</in>
						<out>66593</out>
						<pproTicksIn>675865451520000</pproTicksIn>
						<pproTicksOut>676627499520000</pproTicksOut>
						<file id="file-63"/>
						<sourcetrack>
							<mediatype>audio</mediatype>
							<trackindex>1</trackindex>
						</sourcetrack>
						<logginginfo>
							<description></description>
							<scene></scene>
							<shottake></shottake>
							<lognote></lognote>
						</logginginfo>
						<labels>
							<label2>Caribbean</label2>
						</labels>
					</clipitem>
					<clipitem id="clipitem-2128" premiereChannelType="mono">
						<masterclipid>masterclip-67</masterclipid>
						<name>VB 2 H_03.wav</name>
						<enabled>TRUE</enabled>
						<duration>171138</duration>
						<rate>
							<timebase>25</timebase>
							<ntsc>FALSE</ntsc>
						</rate>
						<start>10054</start>
						<end>10901</end>
						<in>67109</in>
						<out>67956</out>
						<pproTicksIn>681870389760000</pproTicksIn>
						<pproTicksOut>690476451840000</pproTicksOut>
						<file id="file-63"/>
						<sourcetrack>
							<mediatype>audio</mediatype>
							<trackindex>1</trackindex>
						</sourcetrack>
						<logginginfo>
							<description></description>
							<scene></scene>
							<shottake></shottake>
							<lognote></lognote>
						</logginginfo>
						<labels>
							<label2>Caribbean</label2>
						</labels>
					</clipitem>
					<clipitem id="clipitem-2129" premiereChannelType="mono">
						<masterclipid>masterclip-67</masterclipid>
						<name>VB 2 H_03.wav</name>
						<enabled>TRUE</enabled>
						<duration>171138</duration>
						<rate>
							<timebase>25</timebase>
							<ntsc>FALSE</ntsc>
						</rate>
						<start>10901</start>
						<end>11157</end>
						<in>67945</in>
						<out>68201</out>
						<pproTicksIn>690364684800000</pproTicksIn>
						<pproTicksOut>692965808640000</pproTicksOut>
						<file id="file-63"/>
						<sourcetrack>
							<mediatype>audio</mediatype>
							<trackindex>1</trackindex>
						</sourcetrack>
						<logginginfo>
							<description></description>
							<scene></scene>
							<shottake></shottake>
							<lognote></lognote>
						</logginginfo>
						<labels>
							<label2>Caribbean</label2>
						</labels>
					</clipitem>
					<clipitem id="clipitem-2130" premiereChannelType="mono">
						<masterclipid>masterclip-67</masterclipid>
						<name>VB 2 H_03.wav</name>
						<enabled>TRUE</enabled>
						<duration>171138</duration>
						<rate>
							<timebase>25</timebase>
							<ntsc>FALSE</ntsc>
						</rate>
						<start>11157</start>
						<end>11309</end>
						<in>68218</in>
						<out>68370</out>
						<pproTicksIn>693138539520000</pproTicksIn>
						<pproTicksOut>694682956800000</pproTicksOut>
						<file id="file-63"/>
						<sourcetrack>
							<mediatype>audio</mediatype>
							<trackindex>1</trackindex>
						</sourcetrack>
						<logginginfo>
							<description></description>
							<scene></scene>
							<shottake></shottake>
							<lognote></lognote>
						</logginginfo>
						<labels>
							<label2>Caribbean</label2>
						</labels>
					</clipitem>
					<clipitem id="clipitem-2131" premiereChannelType="mono">
						<masterclipid>masterclip-67</masterclipid>
						<name>VB 2 H_03.wav</name>
						<enabled>TRUE</enabled>
						<duration>171138</duration>
						<rate>
							<timebase>25</timebase>
							<ntsc>FALSE</ntsc>
						</rate>
						<start>11309</start>
						<end>11781</end>
						<in>68707</in>
						<out>69179</out>
						<pproTicksIn>698107092480000</pproTicksIn>
						<pproTicksOut>702902914560000</pproTicksOut>
						<file id="file-63"/>
						<sourcetrack>
							<mediatype>audio</mediatype>
							<trackindex>1</trackindex>
						</sourcetrack>
						<logginginfo>
							<description></description>
							<scene></scene>
							<shottake></shottake>
							<lognote></lognote>
						</logginginfo>
						<labels>
							<label2>Caribbean</label2>
						</labels>
					</clipitem>
					<clipitem id="clipitem-2132" premiereChannelType="mono">
						<masterclipid>masterclip-67</masterclipid>
						<name>VB 2 H_03.wav</name>
						<enabled>TRUE</enabled>
						<duration>171138</duration>
						<rate>
							<timebase>25</timebase>
							<ntsc>FALSE</ntsc>
						</rate>
						<start>11781</start>
						<end>12155</end>
						<in>70010</in>
						<out>70384</out>
						<pproTicksIn>711346406400000</pproTicksIn>
						<pproTicksOut>715146485760000</pproTicksOut>
						<file id="file-63"/>
						<sourcetrack>
							<mediatype>audio</mediatype>
							<trackindex>1</trackindex>
						</sourcetrack>
						<logginginfo>
							<description></description>
							<scene></scene>
							<shottake></shottake>
							<lognote></lognote>
						</logginginfo>
						<labels>
							<label2>Caribbean</label2>
						</labels>
					</clipitem>
					<clipitem id="clipitem-2133" premiereChannelType="mono">
						<masterclipid>masterclip-67</masterclipid>
						<name>VB 2 H_03.wav</name>
						<enabled>TRUE</enabled>
						<duration>171138</duration>
						<rate>
							<timebase>25</timebase>
							<ntsc>FALSE</ntsc>
						</rate>
						<start>12155</start>
						<end>13212</end>
						<in>70448</in>
						<out>71505</out>
						<pproTicksIn>715796766720000</pproTicksIn>
						<pproTicksOut>726536563200000</pproTicksOut>
						<file id="file-63"/>
						<sourcetrack>
							<mediatype>audio</mediatype>
							<trackindex>1</trackindex>
						</sourcetrack>
						<logginginfo>
							<description></description>
							<scene></scene>
							<shottake></shottake>
							<lognote></lognote>
						</logginginfo>
						<labels>
							<label2>Caribbean</label2>
						</labels>
					</clipitem>
					<clipitem id="clipitem-2134" premiereChannelType="mono">
						<masterclipid>masterclip-67</masterclipid>
						<name>VB 2 H_03.wav</name>
						<enabled>TRUE</enabled>
						<duration>171138</duration>
						<rate>
							<timebase>25</timebase>
							<ntsc>FALSE</ntsc>
						</rate>
						<start>13212</start>
						<end>13343</end>
						<in>71544</in>
						<out>71675</out>
						<pproTicksIn>726932828160000</pproTicksIn>
						<pproTicksOut>728263872000000</pproTicksOut>
						<file id="file-63"/>
						<sourcetrack>
							<mediatype>audio</mediatype>
							<trackindex>1</trackindex>
						</sourcetrack>
						<logginginfo>
							<description></description>
							<scene></scene>
							<shottake></shottake>
							<lognote></lognote>
						</logginginfo>
						<labels>
							<label2>Caribbean</label2>
						</labels>
					</clipitem>
					<clipitem id="clipitem-2135" premiereChannelType="mono">
						<masterclipid>masterclip-67</masterclipid>
						<name>VB 2 H_03.wav</name>
						<enabled>TRUE</enabled>
						<duration>171138</duration>
						<rate>
							<timebase>25</timebase>
							<ntsc>FALSE</ntsc>
						</rate>
						<start>13359</start>
						<end>13506</end>
						<in>77542</in>
						<out>77689</out>
						<pproTicksIn>787876346880000</pproTicksIn>
						<pproTicksOut>789369960960000</pproTicksOut>
						<file id="file-63"/>
						<sourcetrack>
							<mediatype>audio</mediatype>
							<trackindex>1</trackindex>
						</sourcetrack>
						<logginginfo>
							<description></description>
							<scene></scene>
							<shottake></shottake>
							<lognote></lognote>
						</logginginfo>
						<labels>
							<label2>Caribbean</label2>
						</labels>
					</clipitem>
					<clipitem id="clipitem-2136" premiereChannelType="mono">
						<masterclipid>masterclip-67</masterclipid>
						<name>VB 2 H_03.wav</name>
						<enabled>TRUE</enabled>
						<duration>171138</duration>
						<rate>
							<timebase>25</timebase>
							<ntsc>FALSE</ntsc>
						</rate>
						<start>13506</start>
						<end>14081</end>
						<in>78019</in>
						<out>78594</out>
						<pproTicksIn>792722972160000</pproTicksIn>
						<pproTicksOut>798565340160000</pproTicksOut>
						<file id="file-63"/>
						<sourcetrack>
							<mediatype>audio</mediatype>
							<trackindex>1</trackindex>
						</sourcetrack>
						<logginginfo>
							<description></description>
							<scene></scene>
							<shottake></shottake>
							<lognote></lognote>
						</logginginfo>
						<labels>
							<label2>Caribbean</label2>
						</labels>
					</clipitem>
					<clipitem id="clipitem-2137" premiereChannelType="mono">
						<masterclipid>masterclip-67</masterclipid>
						<name>VB 2 H_03.wav</name>
						<enabled>TRUE</enabled>
						<duration>171138</duration>
						<rate>
							<timebase>25</timebase>
							<ntsc>FALSE</ntsc>
						</rate>
						<start>14081</start>
						<end>14232</end>
						<in>78676</in>
						<out>78827</out>
						<pproTicksIn>799398512640000</pproTicksIn>
						<pproTicksOut>800932769280000</pproTicksOut>
						<file id="file-63"/>
						<sourcetrack>
							<mediatype>audio</mediatype>
							<trackindex>1</trackindex>
						</sourcetrack>
						<logginginfo>
							<description></description>
							<scene></scene>
							<shottake></shottake>
							<lognote></lognote>
						</logginginfo>
						<labels>
							<label2>Caribbean</label2>
						</labels>
					</clipitem>
					<clipitem id="clipitem-2138" premiereChannelType="mono">
						<masterclipid>masterclip-67</masterclipid>
						<name>VB 2 H_03.wav</name>
						<enabled>TRUE</enabled>
						<duration>171138</duration>
						<rate>
							<timebase>25</timebase>
							<ntsc>FALSE</ntsc>
						</rate>
						<start>14232</start>
						<end>14550</end>
						<in>78886</in>
						<out>79204</out>
						<pproTicksIn>801532247040000</pproTicksIn>
						<pproTicksOut>804763330560000</pproTicksOut>
						<file id="file-63"/>
						<sourcetrack>
							<mediatype>audio</mediatype>
							<trackindex>1</trackindex>
						</sourcetrack>
						<logginginfo>
							<description></description>
							<scene></scene>
							<shottake></shottake>
							<lognote></lognote>
						</logginginfo>
						<labels>
							<label2>Caribbean</label2>
						</labels>
					</clipitem>
					<clipitem id="clipitem-2139" premiereChannelType="mono">
						<masterclipid>masterclip-67</masterclipid>
						<name>VB 2 H_03.wav</name>
						<enabled>TRUE</enabled>
						<duration>171138</duration>
						<rate>
							<timebase>25</timebase>
							<ntsc>FALSE</ntsc>
						</rate>
						<start>14550</start>
						<end>14774</end>
						<in>79562</in>
						<out>79786</out>
						<pproTicksIn>808400839680000</pproTicksIn>
						<pproTicksOut>810676823040000</pproTicksOut>
						<file id="file-63"/>
						<sourcetrack>
							<mediatype>audio</mediatype>
							<trackindex>1</trackindex>
						</sourcetrack>
						<logginginfo>
							<description></description>
							<scene></scene>
							<shottake></shottake>
							<lognote></lognote>
						</logginginfo>
						<labels>
							<label2>Caribbean</label2>
						</labels>
					</clipitem>
					<clipitem id="clipitem-2140" premiereChannelType="mono">
						<masterclipid>masterclip-67</masterclipid>
						<name>VB 2 H_03.wav</name>
						<enabled>TRUE</enabled>
						<duration>171138</duration>
						<rate>
							<timebase>25</timebase>
							<ntsc>FALSE</ntsc>
						</rate>
						<start>14774</start>
						<end>14798</end>
						<in>79204</in>
						<out>79228</out>
						<pproTicksIn>804763330560000</pproTicksIn>
						<pproTicksOut>805007185920000</pproTicksOut>
						<file id="file-63"/>
						<sourcetrack>
							<mediatype>audio</mediatype>
							<trackindex>1</trackindex>
						</sourcetrack>
						<logginginfo>
							<description></description>
							<scene></scene>
							<shottake></shottake>
							<lognote></lognote>
						</logginginfo>
						<labels>
							<label2>Caribbean</label2>
						</labels>
					</clipitem>
					<clipitem id="clipitem-2141" premiereChannelType="mono">
						<masterclipid>masterclip-67</masterclipid>
						<name>VB 2 H_03.wav</name>
						<enabled>TRUE</enabled>
						<duration>171138</duration>
						<rate>
							<timebase>25</timebase>
							<ntsc>FALSE</ntsc>
						</rate>
						<start>14798</start>
						<end>14887</end>
						<in>80182</in>
						<out>80271</out>
						<pproTicksIn>814700436480000</pproTicksIn>
						<pproTicksOut>815604733440000</pproTicksOut>
						<file id="file-63"/>
						<sourcetrack>
							<mediatype>audio</mediatype>
							<trackindex>1</trackindex>
						</sourcetrack>
						<logginginfo>
							<description></description>
							<scene></scene>
							<shottake></shottake>
							<lognote></lognote>
						</logginginfo>
						<labels>
							<label2>Caribbean</label2>
						</labels>
					</clipitem>
					<clipitem id="clipitem-2142" premiereChannelType="mono">
						<masterclipid>masterclip-67</masterclipid>
						<name>VB 2 H_03.wav</name>
						<enabled>TRUE</enabled>
						<duration>171138</duration>
						<rate>
							<timebase>25</timebase>
							<ntsc>FALSE</ntsc>
						</rate>
						<start>14887</start>
						<end>15129</end>
						<in>80569</in>
						<out>80811</out>
						<pproTicksIn>818632604160000</pproTicksIn>
						<pproTicksOut>821091479040000</pproTicksOut>
						<file id="file-63"/>
						<sourcetrack>
							<mediatype>audio</mediatype>
							<trackindex>1</trackindex>
						</sourcetrack>
						<logginginfo>
							<description></description>
							<scene></scene>
							<shottake></shottake>
							<lognote></lognote>
						</logginginfo>
						<labels>
							<label2>Caribbean</label2>
						</labels>
					</clipitem>
					<clipitem id="clipitem-2143" premiereChannelType="mono">
						<masterclipid>masterclip-67</masterclipid>
						<name>VB 2 H_03.wav</name>
						<enabled>TRUE</enabled>
						<duration>171138</duration>
						<rate>
							<timebase>25</timebase>
							<ntsc>FALSE</ntsc>
						</rate>
						<start>15129</start>
						<end>15493</end>
						<in>80817</in>
						<out>81181</out>
						<pproTicksIn>821152442880000</pproTicksIn>
						<pproTicksOut>824850915840000</pproTicksOut>
						<file id="file-63"/>
						<sourcetrack>
							<mediatype>audio</mediatype>
							<trackindex>1</trackindex>
						</sourcetrack>
						<logginginfo>
							<description></description>
							<scene></scene>
							<shottake></shottake>
							<lognote></lognote>
						</logginginfo>
						<labels>
							<label2>Caribbean</label2>
						</labels>
					</clipitem>
					<clipitem id="clipitem-2144" premiereChannelType="mono">
						<masterclipid>masterclip-67</masterclipid>
						<name>VB 2 H_03.wav</name>
						<enabled>TRUE</enabled>
						<duration>171138</duration>
						<rate>
							<timebase>25</timebase>
							<ntsc>FALSE</ntsc>
						</rate>
						<start>15493</start>
						<end>15657</end>
						<in>81234</in>
						<out>81398</out>
						<pproTicksIn>825389429760000</pproTicksIn>
						<pproTicksOut>827055774720000</pproTicksOut>
						<file id="file-63"/>
						<sourcetrack>
							<mediatype>audio</mediatype>
							<trackindex>1</trackindex>
						</sourcetrack>
						<logginginfo>
							<description></description>
							<scene></scene>
							<shottake></shottake>
							<lognote></lognote>
						</logginginfo>
						<labels>
							<label2>Caribbean</label2>
						</labels>
					</clipitem>
					<clipitem id="clipitem-2145" premiereChannelType="mono">
						<masterclipid>masterclip-67</masterclipid>
						<name>VB 2 H_03.wav</name>
						<enabled>TRUE</enabled>
						<duration>171138</duration>
						<rate>
							<timebase>25</timebase>
							<ntsc>FALSE</ntsc>
						</rate>
						<start>15657</start>
						<end>15850</end>
						<in>81563</in>
						<out>81756</out>
						<pproTicksIn>828732280320000</pproTicksIn>
						<pproTicksOut>830693283840000</pproTicksOut>
						<file id="file-63"/>
						<sourcetrack>
							<mediatype>audio</mediatype>
							<trackindex>1</trackindex>
						</sourcetrack>
						<logginginfo>
							<description></description>
							<scene></scene>
							<shottake></shottake>
							<lognote></lognote>
						</logginginfo>
						<labels>
							<label2>Caribbean</label2>
						</labels>
					</clipitem>
					<clipitem id="clipitem-2146" premiereChannelType="mono">
						<masterclipid>masterclip-67</masterclipid>
						<name>VB 2 H_03.wav</name>
						<enabled>TRUE</enabled>
						<duration>171138</duration>
						<rate>
							<timebase>25</timebase>
							<ntsc>FALSE</ntsc>
						</rate>
						<start>15850</start>
						<end>16018</end>
						<in>81984</in>
						<out>82152</out>
						<pproTicksIn>833009909760000</pproTicksIn>
						<pproTicksOut>834716897280000</pproTicksOut>
						<file id="file-63"/>
						<sourcetrack>
							<mediatype>audio</mediatype>
							<trackindex>1</trackindex>
						</sourcetrack>
						<logginginfo>
							<description></description>
							<scene></scene>
							<shottake></shottake>
							<lognote></lognote>
						</logginginfo>
						<labels>
							<label2>Caribbean</label2>
						</labels>
					</clipitem>
					<clipitem id="clipitem-2147" premiereChannelType="mono">
						<masterclipid>masterclip-67</masterclipid>
						<name>VB 2 H_03.wav</name>
						<enabled>TRUE</enabled>
						<duration>171138</duration>
						<rate>
							<timebase>25</timebase>
							<ntsc>FALSE</ntsc>
						</rate>
						<start>16018</start>
						<end>16073</end>
						<in>82477</in>
						<out>82532</out>
						<pproTicksIn>838019105280000</pproTicksIn>
						<pproTicksOut>838577940480000</pproTicksOut>
						<file id="file-63"/>
						<sourcetrack>
							<mediatype>audio</mediatype>
							<trackindex>1</trackindex>
						</sourcetrack>
						<logginginfo>
							<description></description>
							<scene></scene>
							<shottake></shottake>
							<lognote></lognote>
						</logginginfo>
						<labels>
							<label2>Caribbean</label2>
						</labels>
					</clipitem>
					<clipitem id="clipitem-2148" premiereChannelType="mono">
						<masterclipid>masterclip-67</masterclipid>
						<name>VB 2 H_03.wav</name>
						<enabled>TRUE</enabled>
						<duration>171138</duration>
						<rate>
							<timebase>25</timebase>
							<ntsc>FALSE</ntsc>
						</rate>
						<start>16073</start>
						<end>16115</end>
						<in>83437</in>
						<out>83479</out>
						<pproTicksIn>847773319680000</pproTicksIn>
						<pproTicksOut>848200066560000</pproTicksOut>
						<file id="file-63"/>
						<sourcetrack>
							<mediatype>audio</mediatype>
							<trackindex>1</trackindex>
						</sourcetrack>
						<logginginfo>
							<description></description>
							<scene></scene>
							<shottake></shottake>
							<lognote></lognote>
						</logginginfo>
						<labels>
							<label2>Caribbean</label2>
						</labels>
					</clipitem>
					<clipitem id="clipitem-2149" premiereChannelType="mono">
						<masterclipid>masterclip-67</masterclipid>
						<name>VB 2 H_03.wav</name>
						<enabled>TRUE</enabled>
						<duration>171138</duration>
						<rate>
							<timebase>25</timebase>
							<ntsc>FALSE</ntsc>
						</rate>
						<start>16115</start>
						<end>16204</end>
						<in>83479</in>
						<out>83568</out>
						<pproTicksIn>848200066560000</pproTicksIn>
						<pproTicksOut>849104363520000</pproTicksOut>
						<file id="file-63"/>
						<sourcetrack>
							<mediatype>audio</mediatype>
							<trackindex>1</trackindex>
						</sourcetrack>
						<logginginfo>
							<description></description>
							<scene></scene>
							<shottake></shottake>
							<lognote></lognote>
						</logginginfo>
						<labels>
							<label2>Caribbean</label2>
						</labels>
					</clipitem>
					<clipitem id="clipitem-2150" premiereChannelType="mono">
						<masterclipid>masterclip-67</masterclipid>
						<name>VB 2 H_03.wav</name>
						<enabled>TRUE</enabled>
						<duration>171138</duration>
						<rate>
							<timebase>25</timebase>
							<ntsc>FALSE</ntsc>
						</rate>
						<start>16204</start>
						<end>16898</end>
						<in>83568</in>
						<out>84262</out>
						<pproTicksIn>849104363520000</pproTicksIn>
						<pproTicksOut>856155847680000</pproTicksOut>
						<file id="file-63"/>
						<sourcetrack>
							<mediatype>audio</mediatype>
							<trackindex>1</trackindex>
						</sourcetrack>
						<logginginfo>
							<description></description>
							<scene></scene>
							<shottake></shottake>
							<lognote></lognote>
						</logginginfo>
						<labels>
							<label2>Caribbean</label2>
						</labels>
					</clipitem>
					<clipitem id="clipitem-2151" premiereChannelType="mono">
						<masterclipid>masterclip-67</masterclipid>
						<name>VB 2 H_03.wav</name>
						<enabled>TRUE</enabled>
						<duration>171138</duration>
						<rate>
							<timebase>25</timebase>
							<ntsc>FALSE</ntsc>
						</rate>
						<start>16898</start>
						<end>16971</end>
						<in>84282</in>
						<out>84355</out>
						<pproTicksIn>856359060480000</pproTicksIn>
						<pproTicksOut>857100787200000</pproTicksOut>
						<file id="file-63"/>
						<sourcetrack>
							<mediatype>audio</mediatype>
							<trackindex>1</trackindex>
						</sourcetrack>
						<logginginfo>
							<description></description>
							<scene></scene>
							<shottake></shottake>
							<lognote></lognote>
						</logginginfo>
						<labels>
							<label2>Caribbean</label2>
						</labels>
					</clipitem>
					<clipitem id="clipitem-2152" premiereChannelType="mono">
						<masterclipid>masterclip-67</masterclipid>
						<name>VB 2 H_03.wav</name>
						<enabled>TRUE</enabled>
						<duration>171138</duration>
						<rate>
							<timebase>25</timebase>
							<ntsc>FALSE</ntsc>
						</rate>
						<start>16971</start>
						<end>17329</end>
						<in>84400</in>
						<out>84758</out>
						<pproTicksIn>857558016000000</pproTicksIn>
						<pproTicksOut>861195525120000</pproTicksOut>
						<file id="file-63"/>
						<sourcetrack>
							<mediatype>audio</mediatype>
							<trackindex>1</trackindex>
						</sourcetrack>
						<logginginfo>
							<description></description>
							<scene></scene>
							<shottake></shottake>
							<lognote></lognote>
						</logginginfo>
						<labels>
							<label2>Caribbean</label2>
						</labels>
					</clipitem>
					<clipitem id="clipitem-2153" premiereChannelType="mono">
						<masterclipid>masterclip-67</masterclipid>
						<name>VB 2 H_03.wav</name>
						<enabled>TRUE</enabled>
						<duration>171138</duration>
						<rate>
							<timebase>25</timebase>
							<ntsc>FALSE</ntsc>
						</rate>
						<start>17329</start>
						<end>17417</end>
						<in>85268</in>
						<out>85356</out>
						<pproTicksIn>866377451520000</pproTicksIn>
						<pproTicksOut>867271587840000</pproTicksOut>
						<file id="file-63"/>
						<sourcetrack>
							<mediatype>audio</mediatype>
							<trackindex>1</trackindex>
						</sourcetrack>
						<logginginfo>
							<description></description>
							<scene></scene>
							<shottake></shottake>
							<lognote></lognote>
						</logginginfo>
						<labels>
							<label2>Caribbean</label2>
						</labels>
					</clipitem>
					<clipitem id="clipitem-2154" premiereChannelType="mono">
						<masterclipid>masterclip-67</masterclipid>
						<name>VB 2 H_03.wav</name>
						<enabled>TRUE</enabled>
						<duration>171138</duration>
						<rate>
							<timebase>25</timebase>
							<ntsc>FALSE</ntsc>
						</rate>
						<start>17417</start>
						<end>17611</end>
						<in>85074</in>
						<out>85268</out>
						<pproTicksIn>864406287360000</pproTicksIn>
						<pproTicksOut>866377451520000</pproTicksOut>
						<file id="file-63"/>
						<sourcetrack>
							<mediatype>audio</mediatype>
							<trackindex>1</trackindex>
						</sourcetrack>
						<logginginfo>
							<description></description>
							<scene></scene>
							<shottake></shottake>
							<lognote></lognote>
						</logginginfo>
						<labels>
							<label2>Caribbean</label2>
						</labels>
					</clipitem>
					<clipitem id="clipitem-2155" premiereChannelType="mono">
						<masterclipid>masterclip-67</masterclipid>
						<name>VB 2 H_03.wav</name>
						<enabled>TRUE</enabled>
						<duration>171138</duration>
						<rate>
							<timebase>25</timebase>
							<ntsc>FALSE</ntsc>
						</rate>
						<start>17611</start>
						<end>17830</end>
						<in>85560</in>
						<out>85779</out>
						<pproTicksIn>869344358400000</pproTicksIn>
						<pproTicksOut>871569538560000</pproTicksOut>
						<file id="file-63"/>
						<sourcetrack>
							<mediatype>audio</mediatype>
							<trackindex>1</trackindex>
						</sourcetrack>
						<logginginfo>
							<description></description>
							<scene></scene>
							<shottake></shottake>
							<lognote></lognote>
						</logginginfo>
						<labels>
							<label2>Caribbean</label2>
						</labels>
					</clipitem>
					<clipitem id="clipitem-2156" premiereChannelType="mono">
						<masterclipid>masterclip-67</masterclipid>
						<name>VB 2 H_03.wav</name>
						<enabled>TRUE</enabled>
						<duration>171138</duration>
						<rate>
							<timebase>25</timebase>
							<ntsc>FALSE</ntsc>
						</rate>
						<start>17830</start>
						<end>17876</end>
						<in>83479</in>
						<out>83525</out>
						<pproTicksIn>848200066560000</pproTicksIn>
						<pproTicksOut>848667456000000</pproTicksOut>
						<file id="file-63"/>
						<sourcetrack>
							<mediatype>audio</mediatype>
							<trackindex>1</trackindex>
						</sourcetrack>
						<logginginfo>
							<description></description>
							<scene></scene>
							<shottake></shottake>
							<lognote></lognote>
						</logginginfo>
						<labels>
							<label2>Caribbean</label2>
						</labels>
					</clipitem>
					<clipitem id="clipitem-2157" premiereChannelType="mono">
						<masterclipid>masterclip-67</masterclipid>
						<name>VB 2 H_03.wav</name>
						<enabled>TRUE</enabled>
						<duration>171138</duration>
						<rate>
							<timebase>25</timebase>
							<ntsc>FALSE</ntsc>
						</rate>
						<start>17876</start>
						<end>18012</end>
						<in>85841</in>
						<out>85977</out>
						<pproTicksIn>872199498240000</pproTicksIn>
						<pproTicksOut>873581345280000</pproTicksOut>
						<file id="file-63"/>
						<sourcetrack>
							<mediatype>audio</mediatype>
							<trackindex>1</trackindex>
						</sourcetrack>
						<logginginfo>
							<description></description>
							<scene></scene>
							<shottake></shottake>
							<lognote></lognote>
						</logginginfo>
						<labels>
							<label2>Caribbean</label2>
						</labels>
					</clipitem>
					<clipitem id="clipitem-2158" premiereChannelType="mono">
						<masterclipid>masterclip-67</masterclipid>
						<name>VB 2 H_03.wav</name>
						<enabled>TRUE</enabled>
						<duration>171138</duration>
						<rate>
							<timebase>25</timebase>
							<ntsc>FALSE</ntsc>
						</rate>
						<start>18012</start>
						<end>18158</end>
						<in>116811</in>
						<out>116957</out>
						<pproTicksIn>1186874519040000</pproTicksIn>
						<pproTicksOut>1188357972480000</pproTicksOut>
						<file id="file-63"/>
						<sourcetrack>
							<mediatype>audio</mediatype>
							<trackindex>1</trackindex>
						</sourcetrack>
						<logginginfo>
							<description></description>
							<scene></scene>
							<shottake></shottake>
							<lognote></lognote>
						</logginginfo>
						<labels>
							<label2>Caribbean</label2>
						</labels>
					</clipitem>
					<clipitem id="clipitem-2159" premiereChannelType="mono">
						<masterclipid>masterclip-67</masterclipid>
						<name>VB 2 H_03.wav</name>
						<enabled>TRUE</enabled>
						<duration>171138</duration>
						<rate>
							<timebase>25</timebase>
							<ntsc>FALSE</ntsc>
						</rate>
						<start>18158</start>
						<end>18332</end>
						<in>86150</in>
						<out>86324</out>
						<pproTicksIn>875339136000000</pproTicksIn>
						<pproTicksOut>877107087360000</pproTicksOut>
						<file id="file-63"/>
						<sourcetrack>
							<mediatype>audio</mediatype>
							<trackindex>1</trackindex>
						</sourcetrack>
						<logginginfo>
							<description></description>
							<scene></scene>
							<shottake></shottake>
							<lognote></lognote>
						</logginginfo>
						<labels>
							<label2>Caribbean</label2>
						</labels>
					</clipitem>
					<clipitem id="clipitem-2160" premiereChannelType="mono">
						<masterclipid>masterclip-67</masterclipid>
						<name>VB 2 H_03.wav</name>
						<enabled>TRUE</enabled>
						<duration>171138</duration>
						<rate>
							<timebase>25</timebase>
							<ntsc>FALSE</ntsc>
						</rate>
						<start>18332</start>
						<end>22265</end>
						<in>87920</in>
						<out>91853</out>
						<pproTicksIn>893323468800000</pproTicksIn>
						<pproTicksOut>933285265920000</pproTicksOut>
						<file id="file-63"/>
						<sourcetrack>
							<mediatype>audio</mediatype>
							<trackindex>1</trackindex>
						</sourcetrack>
						<logginginfo>
							<description></description>
							<scene></scene>
							<shottake></shottake>
							<lognote></lognote>
						</logginginfo>
						<labels>
							<label2>Caribbean</label2>
						</labels>
					</clipitem>
					<clipitem id="clipitem-2161" premiereChannelType="mono">
						<masterclipid>masterclip-67</masterclipid>
						<name>VB 2 H_03.wav</name>
						<enabled>TRUE</enabled>
						<duration>171138</duration>
						<rate>
							<timebase>25</timebase>
							<ntsc>FALSE</ntsc>
						</rate>
						<start>22265</start>
						<end>23367</end>
						<in>91952</in>
						<out>93054</out>
						<pproTicksIn>934291169280000</pproTicksIn>
						<pproTicksOut>945488194560000</pproTicksOut>
						<file id="file-63"/>
						<sourcetrack>
							<mediatype>audio</mediatype>
							<trackindex>1</trackindex>
						</sourcetrack>
						<logginginfo>
							<description></description>
							<scene></scene>
							<shottake></shottake>
							<lognote></lognote>
						</logginginfo>
						<labels>
							<label2>Caribbean</label2>
						</labels>
					</clipitem>
					<clipitem id="clipitem-2162" premiereChannelType="mono">
						<masterclipid>masterclip-67</masterclipid>
						<name>VB 2 H_03.wav</name>
						<enabled>TRUE</enabled>
						<duration>171138</duration>
						<rate>
							<timebase>25</timebase>
							<ntsc>FALSE</ntsc>
						</rate>
						<start>23367</start>
						<end>23724</end>
						<in>93377</in>
						<out>93734</out>
						<pproTicksIn>948770081280000</pproTicksIn>
						<pproTicksOut>952397429760000</pproTicksOut>
						<file id="file-63"/>
						<sourcetrack>
							<mediatype>audio</mediatype>
							<trackindex>1</trackindex>
						</sourcetrack>
						<logginginfo>
							<description></description>
							<scene></scene>
							<shottake></shottake>
							<lognote></lognote>
						</logginginfo>
						<labels>
							<label2>Caribbean</label2>
						</labels>
					</clipitem>
					<clipitem id="clipitem-2163" premiereChannelType="mono">
						<masterclipid>masterclip-67</masterclipid>
						<name>VB 2 H_03.wav</name>
						<enabled>TRUE</enabled>
						<duration>171138</duration>
						<rate>
							<timebase>25</timebase>
							<ntsc>FALSE</ntsc>
						</rate>
						<start>23724</start>
						<end>24114</end>
						<in>94350</in>
						<out>94740</out>
						<pproTicksIn>958656384000000</pproTicksIn>
						<pproTicksOut>962619033600000</pproTicksOut>
						<file id="file-63"/>
						<sourcetrack>
							<mediatype>audio</mediatype>
							<trackindex>1</trackindex>
						</sourcetrack>
						<logginginfo>
							<description></description>
							<scene></scene>
							<shottake></shottake>
							<lognote></lognote>
						</logginginfo>
						<labels>
							<label2>Caribbean</label2>
						</labels>
					</clipitem>
					<clipitem id="clipitem-2164" premiereChannelType="mono">
						<masterclipid>masterclip-67</masterclipid>
						<name>VB 2 H_03.wav</name>
						<enabled>TRUE</enabled>
						<duration>171138</duration>
						<rate>
							<timebase>25</timebase>
							<ntsc>FALSE</ntsc>
						</rate>
						<start>24114</start>
						<end>24241</end>
						<in>94797</in>
						<out>94924</out>
						<pproTicksIn>963198190080000</pproTicksIn>
						<pproTicksOut>964488591360000</pproTicksOut>
						<file id="file-63"/>
						<sourcetrack>
							<mediatype>audio</mediatype>
							<trackindex>1</trackindex>
						</sourcetrack>
						<logginginfo>
							<description></description>
							<scene></scene>
							<shottake></shottake>
							<lognote></lognote>
						</logginginfo>
						<labels>
							<label2>Caribbean</label2>
						</labels>
					</clipitem>
					<clipitem id="clipitem-2165" premiereChannelType="mono">
						<masterclipid>masterclip-67</masterclipid>
						<name>VB 2 H_03.wav</name>
						<enabled>TRUE</enabled>
						<duration>171138</duration>
						<rate>
							<timebase>25</timebase>
							<ntsc>FALSE</ntsc>
						</rate>
						<start>24241</start>
						<end>24388</end>
						<in>95094</in>
						<out>95241</out>
						<pproTicksIn>966215900160000</pproTicksIn>
						<pproTicksOut>967709514240000</pproTicksOut>
						<file id="file-63"/>
						<sourcetrack>
							<mediatype>audio</mediatype>
							<trackindex>1</trackindex>
						</sourcetrack>
						<logginginfo>
							<description></description>
							<scene></scene>
							<shottake></shottake>
							<lognote></lognote>
						</logginginfo>
						<labels>
							<label2>Caribbean</label2>
						</labels>
					</clipitem>
					<clipitem id="clipitem-2166" premiereChannelType="mono">
						<masterclipid>masterclip-67</masterclipid>
						<name>VB 2 H_03.wav</name>
						<enabled>TRUE</enabled>
						<duration>171138</duration>
						<rate>
							<timebase>25</timebase>
							<ntsc>FALSE</ntsc>
						</rate>
						<start>24388</start>
						<end>24600</end>
						<in>95265</in>
						<out>95477</out>
						<pproTicksIn>967953369600000</pproTicksIn>
						<pproTicksOut>970107425280000</pproTicksOut>
						<file id="file-63"/>
						<sourcetrack>
							<mediatype>audio</mediatype>
							<trackindex>1</trackindex>
						</sourcetrack>
						<logginginfo>
							<description></description>
							<scene></scene>
							<shottake></shottake>
							<lognote></lognote>
						</logginginfo>
						<labels>
							<label2>Caribbean</label2>
						</labels>
					</clipitem>
					<clipitem id="clipitem-2167" premiereChannelType="mono">
						<masterclipid>masterclip-67</masterclipid>
						<name>VB 2 H_03.wav</name>
						<enabled>TRUE</enabled>
						<duration>171138</duration>
						<rate>
							<timebase>25</timebase>
							<ntsc>FALSE</ntsc>
						</rate>
						<start>24600</start>
						<end>24872</end>
						<in>95504</in>
						<out>95776</out>
						<pproTicksIn>970381762560000</pproTicksIn>
						<pproTicksOut>973145456640000</pproTicksOut>
						<file id="file-63"/>
						<sourcetrack>
							<mediatype>audio</mediatype>
							<trackindex>1</trackindex>
						</sourcetrack>
						<logginginfo>
							<description></description>
							<scene></scene>
							<shottake></shottake>
							<lognote></lognote>
						</logginginfo>
						<labels>
							<label2>Caribbean</label2>
						</labels>
					</clipitem>
					<clipitem id="clipitem-2168" premiereChannelType="mono">
						<masterclipid>masterclip-67</masterclipid>
						<name>VB 2 H_03.wav</name>
						<enabled>TRUE</enabled>
						<duration>171138</duration>
						<rate>
							<timebase>25</timebase>
							<ntsc>FALSE</ntsc>
						</rate>
						<start>24872</start>
						<end>26291</end>
						<in>95789</in>
						<out>97208</out>
						<pproTicksIn>973277544960000</pproTicksIn>
						<pproTicksOut>987695493120000</pproTicksOut>
						<file id="file-63"/>
						<sourcetrack>
							<mediatype>audio</mediatype>
							<trackindex>1</trackindex>
						</sourcetrack>
						<logginginfo>
							<description></description>
							<scene></scene>
							<shottake></shottake>
							<lognote></lognote>
						</logginginfo>
						<labels>
							<label2>Caribbean</label2>
						</labels>
					</clipitem>
					<clipitem id="clipitem-2169" premiereChannelType="mono">
						<masterclipid>masterclip-67</masterclipid>
						<name>VB 2 H_03.wav</name>
						<enabled>TRUE</enabled>
						<duration>171138</duration>
						<rate>
							<timebase>25</timebase>
							<ntsc>FALSE</ntsc>
						</rate>
						<start>26291</start>
						<end>26387</end>
						<in>97273</in>
						<out>97369</out>
						<pproTicksIn>988355934720000</pproTicksIn>
						<pproTicksOut>989331356160000</pproTicksOut>
						<file id="file-63"/>
						<sourcetrack>
							<mediatype>audio</mediatype>
							<trackindex>1</trackindex>
						</sourcetrack>
						<logginginfo>
							<description></description>
							<scene></scene>
							<shottake></shottake>
							<lognote></lognote>
						</logginginfo>
						<labels>
							<label2>Caribbean</label2>
						</labels>
					</clipitem>
					<clipitem id="clipitem-2170" premiereChannelType="mono">
						<masterclipid>masterclip-67</masterclipid>
						<name>VB 2 H_03.wav</name>
						<enabled>TRUE</enabled>
						<duration>171138</duration>
						<rate>
							<timebase>25</timebase>
							<ntsc>FALSE</ntsc>
						</rate>
						<start>26387</start>
						<end>27111</end>
						<in>97523</in>
						<out>98247</out>
						<pproTicksIn>990896094720000</pproTicksIn>
						<pproTicksOut>998252398080000</pproTicksOut>
						<file id="file-63"/>
						<sourcetrack>
							<mediatype>audio</mediatype>
							<trackindex>1</trackindex>
						</sourcetrack>
						<logginginfo>
							<description></description>
							<scene></scene>
							<shottake></shottake>
							<lognote></lognote>
						</logginginfo>
						<labels>
							<label2>Caribbean</label2>
						</labels>
					</clipitem>
					<clipitem id="clipitem-2171" premiereChannelType="mono">
						<masterclipid>masterclip-67</masterclipid>
						<name>VB 2 H_03.wav</name>
						<enabled>TRUE</enabled>
						<duration>171138</duration>
						<rate>
							<timebase>25</timebase>
							<ntsc>FALSE</ntsc>
						</rate>
						<start>27111</start>
						<end>27316</end>
						<in>98260</in>
						<out>98465</out>
						<pproTicksIn>998384486400000</pproTicksIn>
						<pproTicksOut>1000467417600000</pproTicksOut>
						<file id="file-63"/>
						<sourcetrack>
							<mediatype>audio</mediatype>
							<trackindex>1</trackindex>
						</sourcetrack>
						<logginginfo>
							<description></description>
							<scene></scene>
							<shottake></shottake>
							<lognote></lognote>
						</logginginfo>
						<labels>
							<label2>Caribbean</label2>
						</labels>
					</clipitem>
					<clipitem id="clipitem-2172" premiereChannelType="mono">
						<masterclipid>masterclip-67</masterclipid>
						<name>VB 2 H_03.wav</name>
						<enabled>TRUE</enabled>
						<duration>171138</duration>
						<rate>
							<timebase>25</timebase>
							<ntsc>FALSE</ntsc>
						</rate>
						<start>27316</start>
						<end>27702</end>
						<in>98958</in>
						<out>99344</out>
						<pproTicksIn>1005476613120000</pproTicksIn>
						<pproTicksOut>1009398620160000</pproTicksOut>
						<file id="file-63"/>
						<sourcetrack>
							<mediatype>audio</mediatype>
							<trackindex>1</trackindex>
						</sourcetrack>
						<logginginfo>
							<description></description>
							<scene></scene>
							<shottake></shottake>
							<lognote></lognote>
						</logginginfo>
						<labels>
							<label2>Caribbean</label2>
						</labels>
					</clipitem>
					<clipitem id="clipitem-2173" premiereChannelType="mono">
						<masterclipid>masterclip-67</masterclipid>
						<name>VB 2 H_03.wav</name>
						<enabled>TRUE</enabled>
						<duration>171138</duration>
						<rate>
							<timebase>25</timebase>
							<ntsc>FALSE</ntsc>
						</rate>
						<start>27702</start>
						<end>27789</end>
						<in>99640</in>
						<out>99727</out>
						<pproTicksIn>1012406169600000</pproTicksIn>
						<pproTicksOut>1013290145280000</pproTicksOut>
						<file id="file-63"/>
						<sourcetrack>
							<mediatype>audio</mediatype>
							<trackindex>1</trackindex>
						</sourcetrack>
						<logginginfo>
							<description></description>
							<scene></scene>
							<shottake></shottake>
							<lognote></lognote>
						</logginginfo>
						<labels>
							<label2>Caribbean</label2>
						</labels>
					</clipitem>
					<clipitem id="clipitem-2174" premiereChannelType="mono">
						<masterclipid>masterclip-67</masterclipid>
						<name>VB 2 H_03.wav</name>
						<enabled>TRUE</enabled>
						<duration>171138</duration>
						<rate>
							<timebase>25</timebase>
							<ntsc>FALSE</ntsc>
						</rate>
						<start>27789</start>
						<end>29601</end>
						<in>99831</in>
						<out>101643</out>
						<pproTicksIn>1014346851840000</pproTicksIn>
						<pproTicksOut>1032757931520000</pproTicksOut>
						<file id="file-63"/>
						<sourcetrack>
							<mediatype>audio</mediatype>
							<trackindex>1</trackindex>
						</sourcetrack>
						<logginginfo>
							<description></description>
							<scene></scene>
							<shottake></shottake>
							<lognote></lognote>
						</logginginfo>
						<labels>
							<label2>Caribbean</label2>
						</labels>
					</clipitem>
					<clipitem id="clipitem-2175" premiereChannelType="mono">
						<masterclipid>masterclip-67</masterclipid>
						<name>VB 2 H_03.wav</name>
						<enabled>TRUE</enabled>
						<duration>171138</duration>
						<rate>
							<timebase>25</timebase>
							<ntsc>FALSE</ntsc>
						</rate>
						<start>29601</start>
						<end>29693</end>
						<in>102540</in>
						<out>102632</out>
						<pproTicksIn>1041872025600000</pproTicksIn>
						<pproTicksOut>1042806804480000</pproTicksOut>
						<file id="file-63"/>
						<sourcetrack>
							<mediatype>audio</mediatype>
							<trackindex>1</trackindex>
						</sourcetrack>
						<logginginfo>
							<description></description>
							<scene></scene>
							<shottake></shottake>
							<lognote></lognote>
						</logginginfo>
						<labels>
							<label2>Caribbean</label2>
						</labels>
					</clipitem>
					<clipitem id="clipitem-2176" premiereChannelType="mono">
						<masterclipid>masterclip-67</masterclipid>
						<name>VB 2 H_03.wav</name>
						<enabled>TRUE</enabled>
						<duration>171138</duration>
						<rate>
							<timebase>25</timebase>
							<ntsc>FALSE</ntsc>
						</rate>
						<start>29693</start>
						<end>29760</end>
						<in>103317</in>
						<out>103384</out>
						<pproTicksIn>1049766842880000</pproTicksIn>
						<pproTicksOut>1050447605760000</pproTicksOut>
						<file id="file-63"/>
						<sourcetrack>
							<mediatype>audio</mediatype>
							<trackindex>1</trackindex>
						</sourcetrack>
						<logginginfo>
							<description></description>
							<scene></scene>
							<shottake></shottake>
							<lognote></lognote>
						</logginginfo>
						<labels>
							<label2>Caribbean</label2>
						</labels>
					</clipitem>
					<clipitem id="clipitem-2177" premiereChannelType="mono">
						<masterclipid>masterclip-67</masterclipid>
						<name>VB 2 H_03.wav</name>
						<enabled>TRUE</enabled>
						<duration>171138</duration>
						<rate>
							<timebase>25</timebase>
							<ntsc>FALSE</ntsc>
						</rate>
						<start>29760</start>
						<end>29774</end>
						<in>103438</in>
						<out>103452</out>
						<pproTicksIn>1050996280320000</pproTicksIn>
						<pproTicksOut>1051138529280000</pproTicksOut>
						<file id="file-63"/>
						<sourcetrack>
							<mediatype>audio</mediatype>
							<trackindex>1</trackindex>
						</sourcetrack>
						<logginginfo>
							<description></description>
							<scene></scene>
							<shottake></shottake>
							<lognote></lognote>
						</logginginfo>
						<labels>
							<label2>Caribbean</label2>
						</labels>
					</clipitem>
					<clipitem id="clipitem-2178" premiereChannelType="mono">
						<masterclipid>masterclip-67</masterclipid>
						<name>VB 2 H_03.wav</name>
						<enabled>TRUE</enabled>
						<duration>171138</duration>
						<rate>
							<timebase>25</timebase>
							<ntsc>FALSE</ntsc>
						</rate>
						<start>29774</start>
						<end>29865</end>
						<in>107326</in>
						<out>107417</out>
						<pproTicksIn>1090500848640000</pproTicksIn>
						<pproTicksOut>1091425466880000</pproTicksOut>
						<file id="file-63"/>
						<sourcetrack>
							<mediatype>audio</mediatype>
							<trackindex>1</trackindex>
						</sourcetrack>
						<logginginfo>
							<description></description>
							<scene></scene>
							<shottake></shottake>
							<lognote></lognote>
						</logginginfo>
						<labels>
							<label2>Caribbean</label2>
						</labels>
					</clipitem>
					<clipitem id="clipitem-2179" premiereChannelType="mono">
						<masterclipid>masterclip-67</masterclipid>
						<name>VB 2 H_03.wav</name>
						<enabled>TRUE</enabled>
						<duration>171138</duration>
						<rate>
							<timebase>25</timebase>
							<ntsc>FALSE</ntsc>
						</rate>
						<start>29865</start>
						<end>30769</end>
						<in>107708</in>
						<out>108612</out>
						<pproTicksIn>1094382213120000</pproTicksIn>
						<pproTicksOut>1103567431680000</pproTicksOut>
						<file id="file-63"/>
						<sourcetrack>
							<mediatype>audio</mediatype>
							<trackindex>1</trackindex>
						</sourcetrack>
						<logginginfo>
							<description></description>
							<scene></scene>
							<shottake></shottake>
							<lognote></lognote>
						</logginginfo>
						<labels>
							<label2>Caribbean</label2>
						</labels>
					</clipitem>
					<clipitem id="clipitem-2180" premiereChannelType="mono">
						<masterclipid>masterclip-67</masterclipid>
						<name>VB 2 H_03.wav</name>
						<enabled>TRUE</enabled>
						<duration>171138</duration>
						<rate>
							<timebase>25</timebase>
							<ntsc>FALSE</ntsc>
						</rate>
						<start>30769</start>
						<end>30880</end>
						<in>108644</in>
						<out>108755</out>
						<pproTicksIn>1103892572160000</pproTicksIn>
						<pproTicksOut>1105020403200000</pproTicksOut>
						<file id="file-63"/>
						<sourcetrack>
							<mediatype>audio</mediatype>
							<trackindex>1</trackindex>
						</sourcetrack>
						<logginginfo>
							<description></description>
							<scene></scene>
							<shottake></shottake>
							<lognote></lognote>
						</logginginfo>
						<labels>
							<label2>Caribbean</label2>
						</labels>
					</clipitem>
					<clipitem id="clipitem-2181" premiereChannelType="mono">
						<masterclipid>masterclip-67</masterclipid>
						<name>VB 2 H_03.wav</name>
						<enabled>TRUE</enabled>
						<duration>171138</duration>
						<rate>
							<timebase>25</timebase>
							<ntsc>FALSE</ntsc>
						</rate>
						<start>30880</start>
						<end>31513</end>
						<in>108776</in>
						<out>109409</out>
						<pproTicksIn>1105233776640000</pproTicksIn>
						<pproTicksOut>1111665461760000</pproTicksOut>
						<file id="file-63"/>
						<sourcetrack>
							<mediatype>audio</mediatype>
							<trackindex>1</trackindex>
						</sourcetrack>
						<logginginfo>
							<description></description>
							<scene></scene>
							<shottake></shottake>
							<lognote></lognote>
						</logginginfo>
						<labels>
							<label2>Caribbean</label2>
						</labels>
					</clipitem>
					<clipitem id="clipitem-2182" premiereChannelType="mono">
						<masterclipid>masterclip-67</masterclipid>
						<name>VB 2 H_03.wav</name>
						<enabled>TRUE</enabled>
						<duration>171138</duration>
						<rate>
							<timebase>25</timebase>
							<ntsc>FALSE</ntsc>
						</rate>
						<start>31513</start>
						<end>31909</end>
						<in>109447</in>
						<out>109843</out>
						<pproTicksIn>1112051566080000</pproTicksIn>
						<pproTicksOut>1116075179520000</pproTicksOut>
						<file id="file-63"/>
						<sourcetrack>
							<mediatype>audio</mediatype>
							<trackindex>1</trackindex>
						</sourcetrack>
						<logginginfo>
							<description></description>
							<scene></scene>
							<shottake></shottake>
							<lognote></lognote>
						</logginginfo>
						<labels>
							<label2>Caribbean</label2>
						</labels>
					</clipitem>
					<clipitem id="clipitem-2183" premiereChannelType="mono">
						<masterclipid>masterclip-67</masterclipid>
						<name>VB 2 H_03.wav</name>
						<enabled>TRUE</enabled>
						<duration>171138</duration>
						<rate>
							<timebase>25</timebase>
							<ntsc>FALSE</ntsc>
						</rate>
						<start>31909</start>
						<end>32128</end>
						<in>109926</in>
						<out>110145</out>
						<pproTicksIn>1116918512640000</pproTicksIn>
						<pproTicksOut>1119143692800000</pproTicksOut>
						<file id="file-63"/>
						<sourcetrack>
							<mediatype>audio</mediatype>
							<trackindex>1</trackindex>
						</sourcetrack>
						<logginginfo>
							<description></description>
							<scene></scene>
							<shottake></shottake>
							<lognote></lognote>
						</logginginfo>
						<labels>
							<label2>Caribbean</label2>
						</labels>
					</clipitem>
					<clipitem id="clipitem-2184" premiereChannelType="mono">
						<masterclipid>masterclip-67</masterclipid>
						<name>VB 2 H_03.wav</name>
						<enabled>TRUE</enabled>
						<duration>171138</duration>
						<rate>
							<timebase>25</timebase>
							<ntsc>FALSE</ntsc>
						</rate>
						<start>32128</start>
						<end>32853</end>
						<in>111277</in>
						<out>112002</out>
						<pproTicksIn>1130645537280000</pproTicksIn>
						<pproTicksOut>1138012001280000</pproTicksOut>
						<file id="file-63"/>
						<sourcetrack>
							<mediatype>audio</mediatype>
							<trackindex>1</trackindex>
						</sourcetrack>
						<logginginfo>
							<description></description>
							<scene></scene>
							<shottake></shottake>
							<lognote></lognote>
						</logginginfo>
						<labels>
							<label2>Caribbean</label2>
						</labels>
					</clipitem>
					<clipitem id="clipitem-2185" premiereChannelType="mono">
						<masterclipid>masterclip-67</masterclipid>
						<name>VB 2 H_03.wav</name>
						<enabled>TRUE</enabled>
						<duration>171138</duration>
						<rate>
							<timebase>25</timebase>
							<ntsc>FALSE</ntsc>
						</rate>
						<start>32853</start>
						<end>32890</end>
						<in>112002</in>
						<out>112039</out>
						<pproTicksIn>1138012001280000</pproTicksIn>
						<pproTicksOut>1138387944960000</pproTicksOut>
						<file id="file-63"/>
						<sourcetrack>
							<mediatype>audio</mediatype>
							<trackindex>1</trackindex>
						</sourcetrack>
						<logginginfo>
							<description></description>
							<scene></scene>
							<shottake></shottake>
							<lognote></lognote>
						</logginginfo>
						<labels>
							<label2>Caribbean</label2>
						</labels>
					</clipitem>
					<clipitem id="clipitem-2186" premiereChannelType="mono">
						<masterclipid>masterclip-67</masterclipid>
						<name>VB 2 H_03.wav</name>
						<enabled>TRUE</enabled>
						<duration>171138</duration>
						<rate>
							<timebase>25</timebase>
							<ntsc>FALSE</ntsc>
						</rate>
						<start>32890</start>
						<end>33281</end>
						<in>115277</in>
						<out>115668</out>
						<pproTicksIn>1171288097280000</pproTicksIn>
						<pproTicksOut>1175260907520000</pproTicksOut>
						<file id="file-63"/>
						<sourcetrack>
							<mediatype>audio</mediatype>
							<trackindex>1</trackindex>
						</sourcetrack>
						<logginginfo>
							<description></description>
							<scene></scene>
							<shottake></shottake>
							<lognote></lognote>
						</logginginfo>
						<labels>
							<label2>Caribbean</label2>
						</labels>
					</clipitem>
					<clipitem id="clipitem-2187" premiereChannelType="mono">
						<masterclipid>masterclip-67</masterclipid>
						<name>VB 2 H_03.wav</name>
						<enabled>TRUE</enabled>
						<duration>171138</duration>
						<rate>
							<timebase>25</timebase>
							<ntsc>FALSE</ntsc>
						</rate>
						<start>33281</start>
						<end>33357</end>
						<in>116203</in>
						<out>116279</out>
						<pproTicksIn>1180696849920000</pproTicksIn>
						<pproTicksOut>1181469058560000</pproTicksOut>
						<file id="file-63"/>
						<sourcetrack>
							<mediatype>audio</mediatype>
							<trackindex>1</trackindex>
						</sourcetrack>
						<logginginfo>
							<description></description>
							<scene></scene>
							<shottake></shottake>
							<lognote></lognote>
						</logginginfo>
						<labels>
							<label2>Caribbean</label2>
						</labels>
					</clipitem>
					<clipitem id="clipitem-2188" premiereChannelType="mono">
						<masterclipid>masterclip-67</masterclipid>
						<name>VB 2 H_03.wav</name>
						<enabled>TRUE</enabled>
						<duration>171138</duration>
						<rate>
							<timebase>25</timebase>
							<ntsc>FALSE</ntsc>
						</rate>
						<start>33357</start>
						<end>33465</end>
						<in>116298</in>
						<out>116406</out>
						<pproTicksIn>1181662110720000</pproTicksIn>
						<pproTicksOut>1182759459840000</pproTicksOut>
						<file id="file-63"/>
						<sourcetrack>
							<mediatype>audio</mediatype>
							<trackindex>1</trackindex>
						</sourcetrack>
						<logginginfo>
							<description></description>
							<scene></scene>
							<shottake></shottake>
							<lognote></lognote>
						</logginginfo>
						<labels>
							<label2>Caribbean</label2>
						</labels>
					</clipitem>
					<clipitem id="clipitem-2189" premiereChannelType="mono">
						<masterclipid>masterclip-67</masterclipid>
						<name>VB 2 H_03.wav</name>
						<enabled>TRUE</enabled>
						<duration>171138</duration>
						<rate>
							<timebase>25</timebase>
							<ntsc>FALSE</ntsc>
						</rate>
						<start>33465</start>
						<end>33766</end>
						<in>116510</in>
						<out>116811</out>
						<pproTicksIn>1183816166400000</pproTicksIn>
						<pproTicksOut>1186874519040000</pproTicksOut>
						<file id="file-63"/>
						<sourcetrack>
							<mediatype>audio</mediatype>
							<trackindex>1</trackindex>
						</sourcetrack>
						<logginginfo>
							<description></description>
							<scene></scene>
							<shottake></shottake>
							<lognote></lognote>
						</logginginfo>
						<labels>
							<label2>Caribbean</label2>
						</labels>
					</clipitem>
					<clipitem id="clipitem-2190" premiereChannelType="mono">
						<masterclipid>masterclip-67</masterclipid>
						<name>VB 2 H_03.wav</name>
						<enabled>TRUE</enabled>
						<duration>171138</duration>
						<rate>
							<timebase>25</timebase>
							<ntsc>FALSE</ntsc>
						</rate>
						<start>33766</start>
						<end>33992</end>
						<in>116811</in>
						<out>117037</out>
						<pproTicksIn>1186874519040000</pproTicksIn>
						<pproTicksOut>1189170823680000</pproTicksOut>
						<file id="file-63"/>
						<sourcetrack>
							<mediatype>audio</mediatype>
							<trackindex>1</trackindex>
						</sourcetrack>
						<logginginfo>
							<description></description>
							<scene></scene>
							<shottake></shottake>
							<lognote></lognote>
						</logginginfo>
						<labels>
							<label2>Caribbean</label2>
						</labels>
					</clipitem>
					<clipitem id="clipitem-2191" premiereChannelType="mono">
						<masterclipid>masterclip-67</masterclipid>
						<name>VB 2 H_03.wav</name>
						<enabled>TRUE</enabled>
						<duration>171138</duration>
						<rate>
							<timebase>25</timebase>
							<ntsc>FALSE</ntsc>
						</rate>
						<start>33992</start>
						<end>34035</end>
						<in>117226</in>
						<out>117269</out>
						<pproTicksIn>1191091184640000</pproTicksIn>
						<pproTicksOut>1191528092160000</pproTicksOut>
						<file id="file-63"/>
						<sourcetrack>
							<mediatype>audio</mediatype>
							<trackindex>1</trackindex>
						</sourcetrack>
						<logginginfo>
							<description></description>
							<scene></scene>
							<shottake></shottake>
							<lognote></lognote>
						</logginginfo>
						<labels>
							<label2>Caribbean</label2>
						</labels>
					</clipitem>
					<clipitem id="clipitem-2192" premiereChannelType="mono">
						<masterclipid>masterclip-67</masterclipid>
						<name>VB 2 H_03.wav</name>
						<enabled>TRUE</enabled>
						<duration>171138</duration>
						<rate>
							<timebase>25</timebase>
							<ntsc>FALSE</ntsc>
						</rate>
						<start>34035</start>
						<end>34790</end>
						<in>117633</in>
						<out>118388</out>
						<pproTicksIn>1195226565120000</pproTicksIn>
						<pproTicksOut>1202897848320000</pproTicksOut>
						<file id="file-63"/>
						<sourcetrack>
							<mediatype>audio</mediatype>
							<trackindex>1</trackindex>
						</sourcetrack>
						<logginginfo>
							<description></description>
							<scene></scene>
							<shottake></shottake>
							<lognote></lognote>
						</logginginfo>
						<labels>
							<label2>Caribbean</label2>
						</labels>
					</clipitem>
					<clipitem id="clipitem-2193" premiereChannelType="mono">
						<masterclipid>masterclip-67</masterclipid>
						<name>VB 2 H_03.wav</name>
						<enabled>TRUE</enabled>
						<duration>171138</duration>
						<rate>
							<timebase>25</timebase>
							<ntsc>FALSE</ntsc>
						</rate>
						<start>34790</start>
						<end>35299</end>
						<in>118612</in>
						<out>119121</out>
						<pproTicksIn>1205173831680000</pproTicksIn>
						<pproTicksOut>1210345597440000</pproTicksOut>
						<file id="file-63"/>
						<sourcetrack>
							<mediatype>audio</mediatype>
							<trackindex>1</trackindex>
						</sourcetrack>
						<logginginfo>
							<description></description>
							<scene></scene>
							<shottake></shottake>
							<lognote></lognote>
						</logginginfo>
						<labels>
							<label2>Caribbean</label2>
						</labels>
					</clipitem>
					<clipitem id="clipitem-2194" premiereChannelType="mono">
						<masterclipid>masterclip-67</masterclipid>
						<name>VB 2 H_03.wav</name>
						<enabled>TRUE</enabled>
						<duration>171138</duration>
						<rate>
							<timebase>25</timebase>
							<ntsc>FALSE</ntsc>
						</rate>
						<start>35299</start>
						<end>35672</end>
						<in>119201</in>
						<out>119574</out>
						<pproTicksIn>1211158448640000</pproTicksIn>
						<pproTicksOut>1214948367360000</pproTicksOut>
						<file id="file-63"/>
						<sourcetrack>
							<mediatype>audio</mediatype>
							<trackindex>1</trackindex>
						</sourcetrack>
						<logginginfo>
							<description></description>
							<scene></scene>
							<shottake></shottake>
							<lognote></lognote>
						</logginginfo>
						<labels>
							<label2>Caribbean</label2>
						</labels>
					</clipitem>
					<clipitem id="clipitem-2195" premiereChannelType="mono">
						<masterclipid>masterclip-67</masterclipid>
						<name>VB 2 H_03.wav</name>
						<enabled>TRUE</enabled>
						<duration>171138</duration>
						<rate>
							<timebase>25</timebase>
							<ntsc>FALSE</ntsc>
						</rate>
						<start>35672</start>
						<end>36434</end>
						<in>119583</in>
						<out>120345</out>
						<pproTicksIn>1215039813120000</pproTicksIn>
						<pproTicksOut>1222782220800000</pproTicksOut>
						<file id="file-63"/>
						<sourcetrack>
							<mediatype>audio</mediatype>
							<trackindex>1</trackindex>
						</sourcetrack>
						<logginginfo>
							<description></description>
							<scene></scene>
							<shottake></shottake>
							<lognote></lognote>
						</logginginfo>
						<labels>
							<label2>Caribbean</label2>
						</labels>
					</clipitem>
					<clipitem id="clipitem-2196" premiereChannelType="mono">
						<masterclipid>masterclip-67</masterclipid>
						<name>VB 2 H_03.wav</name>
						<enabled>TRUE</enabled>
						<duration>171138</duration>
						<rate>
							<timebase>25</timebase>
							<ntsc>FALSE</ntsc>
						</rate>
						<start>36434</start>
						<end>36524</end>
						<in>120539</in>
						<out>120629</out>
						<pproTicksIn>1224753384960000</pproTicksIn>
						<pproTicksOut>1225667842560000</pproTicksOut>
						<file id="file-63"/>
						<sourcetrack>
							<mediatype>audio</mediatype>
							<trackindex>1</trackindex>
						</sourcetrack>
						<logginginfo>
							<description></description>
							<scene></scene>
							<shottake></shottake>
							<lognote></lognote>
						</logginginfo>
						<labels>
							<label2>Caribbean</label2>
						</labels>
					</clipitem>
					<clipitem id="clipitem-2197" premiereChannelType="mono">
						<masterclipid>masterclip-67</masterclipid>
						<name>VB 2 H_03.wav</name>
						<enabled>TRUE</enabled>
						<duration>171138</duration>
						<rate>
							<timebase>25</timebase>
							<ntsc>FALSE</ntsc>
						</rate>
						<start>36524</start>
						<end>40503</end>
						<in>124899</in>
						<out>128878</out>
						<pproTicksIn>1269053775360000</pproTicksIn>
						<pproTicksOut>1309482961920000</pproTicksOut>
						<file id="file-63"/>
						<sourcetrack>
							<mediatype>audio</mediatype>
							<trackindex>1</trackindex>
						</sourcetrack>
						<logginginfo>
							<description></description>
							<scene></scene>
							<shottake></shottake>
							<lognote></lognote>
						</logginginfo>
						<labels>
							<label2>Caribbean</label2>
						</labels>
					</clipitem>
					<clipitem id="clipitem-2198" premiereChannelType="mono">
						<masterclipid>masterclip-67</masterclipid>
						<name>VB 2 H_03.wav</name>
						<enabled>TRUE</enabled>
						<duration>171138</duration>
						<rate>
							<timebase>25</timebase>
							<ntsc>FALSE</ntsc>
						</rate>
						<start>40503</start>
						<end>40839</end>
						<in>128926</in>
						<out>129262</out>
						<pproTicksIn>1309970672640000</pproTicksIn>
						<pproTicksOut>1313384647680000</pproTicksOut>
						<file id="file-63"/>
						<sourcetrack>
							<mediatype>audio</mediatype>
							<trackindex>1</trackindex>
						</sourcetrack>
						<logginginfo>
							<description></description>
							<scene></scene>
							<shottake></shottake>
							<lognote></lognote>
						</logginginfo>
						<labels>
							<label2>Caribbean</label2>
						</labels>
					</clipitem>
					<clipitem id="clipitem-2199" premiereChannelType="mono">
						<masterclipid>masterclip-67</masterclipid>
						<name>VB 2 H_03.wav</name>
						<enabled>TRUE</enabled>
						<duration>171138</duration>
						<rate>
							<timebase>25</timebase>
							<ntsc>FALSE</ntsc>
						</rate>
						<start>40839</start>
						<end>41006</end>
						<in>129262</in>
						<out>129429</out>
						<pproTicksIn>1313384647680000</pproTicksIn>
						<pproTicksOut>1315081474560000</pproTicksOut>
						<file id="file-63"/>
						<sourcetrack>
							<mediatype>audio</mediatype>
							<trackindex>1</trackindex>
						</sourcetrack>
						<logginginfo>
							<description></description>
							<scene></scene>
							<shottake></shottake>
							<lognote></lognote>
						</logginginfo>
						<labels>
							<label2>Caribbean</label2>
						</labels>
					</clipitem>
					<clipitem id="clipitem-2200" premiereChannelType="mono">
						<masterclipid>masterclip-67</masterclipid>
						<name>VB 2 H_03.wav</name>
						<enabled>TRUE</enabled>
						<duration>171138</duration>
						<rate>
							<timebase>25</timebase>
							<ntsc>FALSE</ntsc>
						</rate>
						<start>41006</start>
						<end>41144</end>
						<in>129476</in>
						<out>129614</out>
						<pproTicksIn>1315559024640000</pproTicksIn>
						<pproTicksOut>1316961192960000</pproTicksOut>
						<file id="file-63"/>
						<sourcetrack>
							<mediatype>audio</mediatype>
							<trackindex>1</trackindex>
						</sourcetrack>
						<logginginfo>
							<description></description>
							<scene></scene>
							<shottake></shottake>
							<lognote></lognote>
						</logginginfo>
						<labels>
							<label2>Caribbean</label2>
						</labels>
					</clipitem>
					<clipitem id="clipitem-2201" premiereChannelType="mono">
						<masterclipid>masterclip-67</masterclipid>
						<name>VB 2 H_03.wav</name>
						<enabled>TRUE</enabled>
						<duration>171138</duration>
						<rate>
							<timebase>25</timebase>
							<ntsc>FALSE</ntsc>
						</rate>
						<start>41144</start>
						<end>41720</end>
						<in>131417</in>
						<out>131993</out>
						<pproTicksIn>1335280826880000</pproTicksIn>
						<pproTicksOut>1341133355520000</pproTicksOut>
						<file id="file-63"/>
						<sourcetrack>
							<mediatype>audio</mediatype>
							<trackindex>1</trackindex>
						</sourcetrack>
						<logginginfo>
							<description></description>
							<scene></scene>
							<shottake></shottake>
							<lognote></lognote>
						</logginginfo>
						<labels>
							<label2>Caribbean</label2>
						</labels>
					</clipitem>
					<clipitem id="clipitem-2202" premiereChannelType="mono">
						<masterclipid>masterclip-67</masterclipid>
						<name>VB 2 H_03.wav</name>
						<enabled>TRUE</enabled>
						<duration>171138</duration>
						<rate>
							<timebase>25</timebase>
							<ntsc>FALSE</ntsc>
						</rate>
						<start>41720</start>
						<end>42122</end>
						<in>132051</in>
						<out>132453</out>
						<pproTicksIn>1341722672640000</pproTicksIn>
						<pproTicksOut>1345807249920000</pproTicksOut>
						<file id="file-63"/>
						<sourcetrack>
							<mediatype>audio</mediatype>
							<trackindex>1</trackindex>
						</sourcetrack>
						<logginginfo>
							<description></description>
							<scene></scene>
							<shottake></shottake>
							<lognote></lognote>
						</logginginfo>
						<labels>
							<label2>Caribbean</label2>
						</labels>
					</clipitem>
					<clipitem id="clipitem-2203" premiereChannelType="mono">
						<masterclipid>masterclip-67</masterclipid>
						<name>VB 2 H_03.wav</name>
						<enabled>TRUE</enabled>
						<duration>171138</duration>
						<rate>
							<timebase>25</timebase>
							<ntsc>FALSE</ntsc>
						</rate>
						<start>42122</start>
						<end>42277</end>
						<in>132657</in>
						<out>132812</out>
						<pproTicksIn>1347880020480000</pproTicksIn>
						<pproTicksOut>1349454919680000</pproTicksOut>
						<file id="file-63"/>
						<sourcetrack>
							<mediatype>audio</mediatype>
							<trackindex>1</trackindex>
						</sourcetrack>
						<logginginfo>
							<description></description>
							<scene></scene>
							<shottake></shottake>
							<lognote></lognote>
						</logginginfo>
						<labels>
							<label2>Caribbean</label2>
						</labels>
					</clipitem>
					<clipitem id="clipitem-2204" premiereChannelType="mono">
						<masterclipid>masterclip-67</masterclipid>
						<name>VB 2 H_03.wav</name>
						<enabled>TRUE</enabled>
						<duration>171138</duration>
						<rate>
							<timebase>25</timebase>
							<ntsc>FALSE</ntsc>
						</rate>
						<start>42277</start>
						<end>42347</end>
						<in>133359</in>
						<out>133429</out>
						<pproTicksIn>1355012789760000</pproTicksIn>
						<pproTicksOut>1355724034560000</pproTicksOut>
						<file id="file-63"/>
						<sourcetrack>
							<mediatype>audio</mediatype>
							<trackindex>1</trackindex>
						</sourcetrack>
						<logginginfo>
							<description></description>
							<scene></scene>
							<shottake></shottake>
							<lognote></lognote>
						</logginginfo>
						<labels>
							<label2>Caribbean</label2>
						</labels>
					</clipitem>
					<clipitem id="clipitem-2205" premiereChannelType="mono">
						<masterclipid>masterclip-67</masterclipid>
						<name>VB 2 H_03.wav</name>
						<enabled>TRUE</enabled>
						<duration>171138</duration>
						<rate>
							<timebase>25</timebase>
							<ntsc>FALSE</ntsc>
						</rate>
						<start>42347</start>
						<end>42499</end>
						<in>133852</in>
						<out>134004</out>
						<pproTicksIn>1360021985280000</pproTicksIn>
						<pproTicksOut>1361566402560000</pproTicksOut>
						<file id="file-63"/>
						<sourcetrack>
							<mediatype>audio</mediatype>
							<trackindex>1</trackindex>
						</sourcetrack>
						<logginginfo>
							<description></description>
							<scene></scene>
							<shottake></shottake>
							<lognote></lognote>
						</logginginfo>
						<labels>
							<label2>Caribbean</label2>
						</labels>
					</clipitem>
					<clipitem id="clipitem-2206" premiereChannelType="mono">
						<masterclipid>masterclip-67</masterclipid>
						<name>VB 2 H_03.wav</name>
						<enabled>TRUE</enabled>
						<duration>171138</duration>
						<rate>
							<timebase>25</timebase>
							<ntsc>FALSE</ntsc>
						</rate>
						<start>42499</start>
						<end>42832</end>
						<in>134099</in>
						<out>134432</out>
						<pproTicksIn>1362531663360000</pproTicksIn>
						<pproTicksOut>1365915156480000</pproTicksOut>
						<file id="file-63"/>
						<sourcetrack>
							<mediatype>audio</mediatype>
							<trackindex>1</trackindex>
						</sourcetrack>
						<logginginfo>
							<description></description>
							<scene></scene>
							<shottake></shottake>
							<lognote></lognote>
						</logginginfo>
						<labels>
							<label2>Caribbean</label2>
						</labels>
					</clipitem>
					<clipitem id="clipitem-2207" premiereChannelType="mono">
						<masterclipid>masterclip-67</masterclipid>
						<name>VB 2 H_03.wav</name>
						<enabled>TRUE</enabled>
						<duration>171138</duration>
						<rate>
							<timebase>25</timebase>
							<ntsc>FALSE</ntsc>
						</rate>
						<start>42832</start>
						<end>43282</end>
						<in>134992</in>
						<out>135442</out>
						<pproTicksIn>1371605114880000</pproTicksIn>
						<pproTicksOut>1376177402880000</pproTicksOut>
						<file id="file-63"/>
						<sourcetrack>
							<mediatype>audio</mediatype>
							<trackindex>1</trackindex>
						</sourcetrack>
						<logginginfo>
							<description></description>
							<scene></scene>
							<shottake></shottake>
							<lognote></lognote>
						</logginginfo>
						<labels>
							<label2>Caribbean</label2>
						</labels>
					</clipitem>
					<clipitem id="clipitem-2208" premiereChannelType="mono">
						<masterclipid>masterclip-67</masterclipid>
						<name>VB 2 H_03.wav</name>
						<enabled>TRUE</enabled>
						<duration>171138</duration>
						<rate>
							<timebase>25</timebase>
							<ntsc>FALSE</ntsc>
						</rate>
						<start>43282</start>
						<end>43553</end>
						<in>135648</in>
						<out>135919</out>
						<pproTicksIn>1378270494720000</pproTicksIn>
						<pproTicksOut>1381024028160000</pproTicksOut>
						<file id="file-63"/>
						<sourcetrack>
							<mediatype>audio</mediatype>
							<trackindex>1</trackindex>
						</sourcetrack>
						<logginginfo>
							<description></description>
							<scene></scene>
							<shottake></shottake>
							<lognote></lognote>
						</logginginfo>
						<labels>
							<label2>Caribbean</label2>
						</labels>
					</clipitem>
					<clipitem id="clipitem-2209" premiereChannelType="mono">
						<masterclipid>masterclip-67</masterclipid>
						<name>VB 2 H_03.wav</name>
						<enabled>TRUE</enabled>
						<duration>171138</duration>
						<rate>
							<timebase>25</timebase>
							<ntsc>FALSE</ntsc>
						</rate>
						<start>43553</start>
						<end>44385</end>
						<in>136003</in>
						<out>136835</out>
						<pproTicksIn>1381877521920000</pproTicksIn>
						<pproTicksOut>1390331174400000</pproTicksOut>
						<file id="file-63"/>
						<sourcetrack>
							<mediatype>audio</mediatype>
							<trackindex>1</trackindex>
						</sourcetrack>
						<logginginfo>
							<description></description>
							<scene></scene>
							<shottake></shottake>
							<lognote></lognote>
						</logginginfo>
						<labels>
							<label2>Caribbean</label2>
						</labels>
					</clipitem>
					<clipitem id="clipitem-2210" premiereChannelType="mono">
						<masterclipid>masterclip-67</masterclipid>
						<name>VB 2 H_03.wav</name>
						<enabled>TRUE</enabled>
						<duration>171138</duration>
						<rate>
							<timebase>25</timebase>
							<ntsc>FALSE</ntsc>
						</rate>
						<start>44385</start>
						<end>44583</end>
						<in>137077</in>
						<out>137275</out>
						<pproTicksIn>1392790049280000</pproTicksIn>
						<pproTicksOut>1394801856000000</pproTicksOut>
						<file id="file-63"/>
						<sourcetrack>
							<mediatype>audio</mediatype>
							<trackindex>1</trackindex>
						</sourcetrack>
						<logginginfo>
							<description></description>
							<scene></scene>
							<shottake></shottake>
							<lognote></lognote>
						</logginginfo>
						<labels>
							<label2>Caribbean</label2>
						</labels>
					</clipitem>
					<clipitem id="clipitem-2211" premiereChannelType="mono">
						<masterclipid>masterclip-67</masterclipid>
						<name>VB 2 H_03.wav</name>
						<enabled>TRUE</enabled>
						<duration>171138</duration>
						<rate>
							<timebase>25</timebase>
							<ntsc>FALSE</ntsc>
						</rate>
						<start>44583</start>
						<end>44650</end>
						<in>137376</in>
						<out>137443</out>
						<pproTicksIn>1395828080640000</pproTicksIn>
						<pproTicksOut>1396508843520000</pproTicksOut>
						<file id="file-63"/>
						<sourcetrack>
							<mediatype>audio</mediatype>
							<trackindex>1</trackindex>
						</sourcetrack>
						<logginginfo>
							<description></description>
							<scene></scene>
							<shottake></shottake>
							<lognote></lognote>
						</logginginfo>
						<labels>
							<label2>Caribbean</label2>
						</labels>
					</clipitem>
					<clipitem id="clipitem-2212" premiereChannelType="mono">
						<masterclipid>masterclip-67</masterclipid>
						<name>VB 2 H_03.wav</name>
						<enabled>TRUE</enabled>
						<duration>171138</duration>
						<rate>
							<timebase>25</timebase>
							<ntsc>FALSE</ntsc>
						</rate>
						<start>44650</start>
						<end>45287</end>
						<in>137505</in>
						<out>138142</out>
						<pproTicksIn>1397138803200000</pproTicksIn>
						<pproTicksOut>1403611130880000</pproTicksOut>
						<file id="file-63"/>
						<sourcetrack>
							<mediatype>audio</mediatype>
							<trackindex>1</trackindex>
						</sourcetrack>
						<logginginfo>
							<description></description>
							<scene></scene>
							<shottake></shottake>
							<lognote></lognote>
						</logginginfo>
						<labels>
							<label2>Caribbean</label2>
						</labels>
					</clipitem>
					<clipitem id="clipitem-2213" premiereChannelType="mono">
						<masterclipid>masterclip-67</masterclipid>
						<name>VB 2 H_03.wav</name>
						<enabled>TRUE</enabled>
						<duration>171138</duration>
						<rate>
							<timebase>25</timebase>
							<ntsc>FALSE</ntsc>
						</rate>
						<start>45287</start>
						<end>45692</end>
						<in>138274</in>
						<out>138679</out>
						<pproTicksIn>1404952335360000</pproTicksIn>
						<pproTicksOut>1409067394560000</pproTicksOut>
						<file id="file-63"/>
						<sourcetrack>
							<mediatype>audio</mediatype>
							<trackindex>1</trackindex>
						</sourcetrack>
						<logginginfo>
							<description></description>
							<scene></scene>
							<shottake></shottake>
							<lognote></lognote>
						</logginginfo>
						<labels>
							<label2>Caribbean</label2>
						</labels>
					</clipitem>
					<clipitem id="clipitem-2214" premiereChannelType="mono">
						<masterclipid>masterclip-67</masterclipid>
						<name>VB 2 H_03.wav</name>
						<enabled>TRUE</enabled>
						<duration>171138</duration>
						<rate>
							<timebase>25</timebase>
							<ntsc>FALSE</ntsc>
						</rate>
						<start>45692</start>
						<end>45923</end>
						<in>138810</in>
						<out>139041</out>
						<pproTicksIn>1410398438400000</pproTicksIn>
						<pproTicksOut>1412745546240000</pproTicksOut>
						<file id="file-63"/>
						<sourcetrack>
							<mediatype>audio</mediatype>
							<trackindex>1</trackindex>
						</sourcetrack>
						<logginginfo>
							<description></description>
							<scene></scene>
							<shottake></shottake>
							<lognote></lognote>
						</logginginfo>
						<labels>
							<label2>Caribbean</label2>
						</labels>
					</clipitem>
					<clipitem id="clipitem-2215" premiereChannelType="mono">
						<masterclipid>masterclip-67</masterclipid>
						<name>VB 2 H_03.wav</name>
						<enabled>TRUE</enabled>
						<duration>171138</duration>
						<rate>
							<timebase>25</timebase>
							<ntsc>FALSE</ntsc>
						</rate>
						<start>45923</start>
						<end>46349</end>
						<in>139073</in>
						<out>139499</out>
						<pproTicksIn>1413070686720000</pproTicksIn>
						<pproTicksOut>1417399119360000</pproTicksOut>
						<file id="file-63"/>
						<sourcetrack>
							<mediatype>audio</mediatype>
							<trackindex>1</trackindex>
						</sourcetrack>
						<logginginfo>
							<description></description>
							<scene></scene>
							<shottake></shottake>
							<lognote></lognote>
						</logginginfo>
						<labels>
							<label2>Caribbean</label2>
						</labels>
					</clipitem>
					<clipitem id="clipitem-2216" premiereChannelType="mono">
						<masterclipid>masterclip-67</masterclipid>
						<name>VB 2 H_03.wav</name>
						<enabled>TRUE</enabled>
						<duration>171138</duration>
						<rate>
							<timebase>25</timebase>
							<ntsc>FALSE</ntsc>
						</rate>
						<start>46349</start>
						<end>46455</end>
						<in>159642</in>
						<out>159748</out>
						<pproTicksIn>1622064890880000</pproTicksIn>
						<pproTicksOut>1623141918720000</pproTicksOut>
						<file id="file-63"/>
						<sourcetrack>
							<mediatype>audio</mediatype>
							<trackindex>1</trackindex>
						</sourcetrack>
						<logginginfo>
							<description></description>
							<scene></scene>
							<shottake></shottake>
							<lognote></lognote>
						</logginginfo>
						<labels>
							<label2>Caribbean</label2>
						</labels>
					</clipitem>
					<clipitem id="clipitem-2217" premiereChannelType="mono">
						<masterclipid>masterclip-67</masterclipid>
						<name>VB 2 H_03.wav</name>
						<enabled>TRUE</enabled>
						<duration>171138</duration>
						<rate>
							<timebase>25</timebase>
							<ntsc>FALSE</ntsc>
						</rate>
						<start>46455</start>
						<end>46911</end>
						<in>140048</in>
						<out>140504</out>
						<pproTicksIn>1422977310720000</pproTicksIn>
						<pproTicksOut>1427610562560000</pproTicksOut>
						<file id="file-63"/>
						<sourcetrack>
							<mediatype>audio</mediatype>
							<trackindex>1</trackindex>
						</sourcetrack>
						<logginginfo>
							<description></description>
							<scene></scene>
							<shottake></shottake>
							<lognote></lognote>
						</logginginfo>
						<labels>
							<label2>Caribbean</label2>
						</labels>
					</clipitem>
					<clipitem id="clipitem-2218" premiereChannelType="mono">
						<masterclipid>masterclip-67</masterclipid>
						<name>VB 2 H_03.wav</name>
						<enabled>TRUE</enabled>
						<duration>171138</duration>
						<rate>
							<timebase>25</timebase>
							<ntsc>FALSE</ntsc>
						</rate>
						<start>46911</start>
						<end>47138</end>
						<in>140817</in>
						<out>141044</out>
						<pproTicksIn>1430790842880000</pproTicksIn>
						<pproTicksOut>1433097308160000</pproTicksOut>
						<file id="file-63"/>
						<sourcetrack>
							<mediatype>audio</mediatype>
							<trackindex>1</trackindex>
						</sourcetrack>
						<logginginfo>
							<description></description>
							<scene></scene>
							<shottake></shottake>
							<lognote></lognote>
						</logginginfo>
						<labels>
							<label2>Caribbean</label2>
						</labels>
					</clipitem>
					<clipitem id="clipitem-2219" premiereChannelType="mono">
						<masterclipid>masterclip-67</masterclipid>
						<name>VB 2 H_03.wav</name>
						<enabled>TRUE</enabled>
						<duration>171138</duration>
						<rate>
							<timebase>25</timebase>
							<ntsc>FALSE</ntsc>
						</rate>
						<start>47138</start>
						<end>47335</end>
						<in>141203</in>
						<out>141400</out>
						<pproTicksIn>1434712849920000</pproTicksIn>
						<pproTicksOut>1436714496000000</pproTicksOut>
						<file id="file-63"/>
						<sourcetrack>
							<mediatype>audio</mediatype>
							<trackindex>1</trackindex>
						</sourcetrack>
						<logginginfo>
							<description></description>
							<scene></scene>
							<shottake></shottake>
							<lognote></lognote>
						</logginginfo>
						<labels>
							<label2>Caribbean</label2>
						</labels>
					</clipitem>
					<clipitem id="clipitem-2220" premiereChannelType="mono">
						<masterclipid>masterclip-67</masterclipid>
						<name>VB 2 H_03.wav</name>
						<enabled>TRUE</enabled>
						<duration>171138</duration>
						<rate>
							<timebase>25</timebase>
							<ntsc>FALSE</ntsc>
						</rate>
						<start>47335</start>
						<end>47513</end>
						<in>141454</in>
						<out>141632</out>
						<pproTicksIn>1437263170560000</pproTicksIn>
						<pproTicksOut>1439071764480000</pproTicksOut>
						<file id="file-63"/>
						<sourcetrack>
							<mediatype>audio</mediatype>
							<trackindex>1</trackindex>
						</sourcetrack>
						<logginginfo>
							<description></description>
							<scene></scene>
							<shottake></shottake>
							<lognote></lognote>
						</logginginfo>
						<labels>
							<label2>Caribbean</label2>
						</labels>
					</clipitem>
					<clipitem id="clipitem-2221" premiereChannelType="mono">
						<masterclipid>masterclip-67</masterclipid>
						<name>VB 2 H_03.wav</name>
						<enabled>TRUE</enabled>
						<duration>171138</duration>
						<rate>
							<timebase>25</timebase>
							<ntsc>FALSE</ntsc>
						</rate>
						<start>47513</start>
						<end>47723</end>
						<in>141671</in>
						<out>141881</out>
						<pproTicksIn>1439468029440000</pproTicksIn>
						<pproTicksOut>1441601763840000</pproTicksOut>
						<file id="file-63"/>
						<sourcetrack>
							<mediatype>audio</mediatype>
							<trackindex>1</trackindex>
						</sourcetrack>
						<logginginfo>
							<description></description>
							<scene></scene>
							<shottake></shottake>
							<lognote></lognote>
						</logginginfo>
						<labels>
							<label2>Caribbean</label2>
						</labels>
					</clipitem>
					<clipitem id="clipitem-2222" premiereChannelType="mono">
						<masterclipid>masterclip-67</masterclipid>
						<name>VB 2 H_03.wav</name>
						<enabled>TRUE</enabled>
						<duration>171138</duration>
						<rate>
							<timebase>25</timebase>
							<ntsc>FALSE</ntsc>
						</rate>
						<start>47723</start>
						<end>48040</end>
						<in>141894</in>
						<out>142211</out>
						<pproTicksIn>1441733852160000</pproTicksIn>
						<pproTicksOut>1444954775040000</pproTicksOut>
						<file id="file-63"/>
						<sourcetrack>
							<mediatype>audio</mediatype>
							<trackindex>1</trackindex>
						</sourcetrack>
						<logginginfo>
							<description></description>
							<scene></scene>
							<shottake></shottake>
							<lognote></lognote>
						</logginginfo>
						<labels>
							<label2>Caribbean</label2>
						</labels>
					</clipitem>
					<clipitem id="clipitem-2223" premiereChannelType="mono">
						<masterclipid>masterclip-67</masterclipid>
						<name>VB 2 H_03.wav</name>
						<enabled>TRUE</enabled>
						<duration>171138</duration>
						<rate>
							<timebase>25</timebase>
							<ntsc>FALSE</ntsc>
						</rate>
						<start>48040</start>
						<end>48766</end>
						<in>142351</in>
						<out>143077</out>
						<pproTicksIn>1446377264640000</pproTicksIn>
						<pproTicksOut>1453753889280000</pproTicksOut>
						<file id="file-63"/>
						<sourcetrack>
							<mediatype>audio</mediatype>
							<trackindex>1</trackindex>
						</sourcetrack>
						<logginginfo>
							<description></description>
							<scene></scene>
							<shottake></shottake>
							<lognote></lognote>
						</logginginfo>
						<labels>
							<label2>Caribbean</label2>
						</labels>
					</clipitem>
					<clipitem id="clipitem-2224" premiereChannelType="mono">
						<masterclipid>masterclip-67</masterclipid>
						<name>VB 2 H_03.wav</name>
						<enabled>TRUE</enabled>
						<duration>171138</duration>
						<rate>
							<timebase>25</timebase>
							<ntsc>FALSE</ntsc>
						</rate>
						<start>48766</start>
						<end>49706</end>
						<in>143684</in>
						<out>144624</out>
						<pproTicksIn>1459921397760000</pproTicksIn>
						<pproTicksOut>1469472399360000</pproTicksOut>
						<file id="file-63"/>
						<sourcetrack>
							<mediatype>audio</mediatype>
							<trackindex>1</trackindex>
						</sourcetrack>
						<logginginfo>
							<description></description>
							<scene></scene>
							<shottake></shottake>
							<lognote></lognote>
						</logginginfo>
						<labels>
							<label2>Caribbean</label2>
						</labels>
					</clipitem>
					<clipitem id="clipitem-2225" premiereChannelType="mono">
						<masterclipid>masterclip-67</masterclipid>
						<name>VB 2 H_03.wav</name>
						<enabled>TRUE</enabled>
						<duration>171138</duration>
						<rate>
							<timebase>25</timebase>
							<ntsc>FALSE</ntsc>
						</rate>
						<start>49706</start>
						<end>49762</end>
						<in>147186</in>
						<out>147242</out>
						<pproTicksIn>1495503959040000</pproTicksIn>
						<pproTicksOut>1496072954880000</pproTicksOut>
						<file id="file-63"/>
						<sourcetrack>
							<mediatype>audio</mediatype>
							<trackindex>1</trackindex>
						</sourcetrack>
						<logginginfo>
							<description></description>
							<scene></scene>
							<shottake></shottake>
							<lognote></lognote>
						</logginginfo>
						<labels>
							<label2>Caribbean</label2>
						</labels>
					</clipitem>
					<clipitem id="clipitem-2226" premiereChannelType="mono">
						<masterclipid>masterclip-67</masterclipid>
						<name>VB 2 H_03.wav</name>
						<enabled>TRUE</enabled>
						<duration>171138</duration>
						<rate>
							<timebase>25</timebase>
							<ntsc>FALSE</ntsc>
						</rate>
						<start>49762</start>
						<end>49948</end>
						<in>153681</in>
						<out>153867</out>
						<pproTicksIn>1561497315840000</pproTicksIn>
						<pproTicksOut>1563387194880000</pproTicksOut>
						<file id="file-63"/>
						<sourcetrack>
							<mediatype>audio</mediatype>
							<trackindex>1</trackindex>
						</sourcetrack>
						<logginginfo>
							<description></description>
							<scene></scene>
							<shottake></shottake>
							<lognote></lognote>
						</logginginfo>
						<labels>
							<label2>Caribbean</label2>
						</labels>
					</clipitem>
					<clipitem id="clipitem-2227" premiereChannelType="mono">
						<masterclipid>masterclip-67</masterclipid>
						<name>VB 2 H_03.wav</name>
						<enabled>TRUE</enabled>
						<duration>171138</duration>
						<rate>
							<timebase>25</timebase>
							<ntsc>FALSE</ntsc>
						</rate>
						<start>49948</start>
						<end>50390</end>
						<in>153946</in>
						<out>154388</out>
						<pproTicksIn>1564189885440000</pproTicksIn>
						<pproTicksOut>1568680888320000</pproTicksOut>
						<file id="file-63"/>
						<sourcetrack>
							<mediatype>audio</mediatype>
							<trackindex>1</trackindex>
						</sourcetrack>
						<logginginfo>
							<description></description>
							<scene></scene>
							<shottake></shottake>
							<lognote></lognote>
						</logginginfo>
						<labels>
							<label2>Caribbean</label2>
						</labels>
					</clipitem>
					<clipitem id="clipitem-2228" premiereChannelType="mono">
						<masterclipid>masterclip-67</masterclipid>
						<name>VB 2 H_03.wav</name>
						<enabled>TRUE</enabled>
						<duration>171138</duration>
						<rate>
							<timebase>25</timebase>
							<ntsc>FALSE</ntsc>
						</rate>
						<start>50390</start>
						<end>50983</end>
						<in>156215</in>
						<out>156808</out>
						<pproTicksIn>1587244377600000</pproTicksIn>
						<pproTicksOut>1593269637120000</pproTicksOut>
						<file id="file-63"/>
						<sourcetrack>
							<mediatype>audio</mediatype>
							<trackindex>1</trackindex>
						</sourcetrack>
						<logginginfo>
							<description></description>
							<scene></scene>
							<shottake></shottake>
							<lognote></lognote>
						</logginginfo>
						<labels>
							<label2>Caribbean</label2>
						</labels>
					</clipitem>
					<clipitem id="clipitem-2229" premiereChannelType="mono">
						<masterclipid>masterclip-67</masterclipid>
						<name>VB 2 H_03.wav</name>
						<enabled>TRUE</enabled>
						<duration>171138</duration>
						<rate>
							<timebase>25</timebase>
							<ntsc>FALSE</ntsc>
						</rate>
						<start>50983</start>
						<end>53597</end>
						<in>157028</in>
						<out>159642</out>
						<pproTicksIn>1595504977920000</pproTicksIn>
						<pproTicksOut>1622064890880000</pproTicksOut>
						<file id="file-63"/>
						<sourcetrack>
							<mediatype>audio</mediatype>
							<trackindex>1</trackindex>
						</sourcetrack>
						<logginginfo>
							<description></description>
							<scene></scene>
							<shottake></shottake>
							<lognote></lognote>
						</logginginfo>
						<labels>
							<label2>Caribbean</label2>
						</labels>
					</clipitem>
					<clipitem id="clipitem-2230" premiereChannelType="mono">
						<masterclipid>masterclip-67</masterclipid>
						<name>VB 2 H_03.wav</name>
						<enabled>TRUE</enabled>
						<duration>171138</duration>
						<rate>
							<timebase>25</timebase>
							<ntsc>FALSE</ntsc>
						</rate>
						<start>53597</start>
						<end>53636</end>
						<in>160568</in>
						<out>160607</out>
						<pproTicksIn>1631473643520000</pproTicksIn>
						<pproTicksOut>1631869908480000</pproTicksOut>
						<file id="file-63"/>
						<sourcetrack>
							<mediatype>audio</mediatype>
							<trackindex>1</trackindex>
						</sourcetrack>
						<logginginfo>
							<description></description>
							<scene></scene>
							<shottake></shottake>
							<lognote></lognote>
						</logginginfo>
						<labels>
							<label2>Caribbean</label2>
						</labels>
					</clipitem>
					<clipitem id="clipitem-2231" premiereChannelType="mono">
						<masterclipid>masterclip-67</masterclipid>
						<name>VB 2 H_03.wav</name>
						<enabled>TRUE</enabled>
						<duration>171138</duration>
						<rate>
							<timebase>25</timebase>
							<ntsc>FALSE</ntsc>
						</rate>
						<start>53636</start>
						<end>55369</end>
						<in>161146</in>
						<out>162879</out>
						<pproTicksIn>1637346493440000</pproTicksIn>
						<pproTicksOut>1654954882560000</pproTicksOut>
						<file id="file-63"/>
						<sourcetrack>
							<mediatype>audio</mediatype>
							<trackindex>1</trackindex>
						</sourcetrack>
						<logginginfo>
							<description></description>
							<scene></scene>
							<shottake></shottake>
							<lognote></lognote>
						</logginginfo>
						<labels>
							<label2>Caribbean</label2>
						</labels>
					</clipitem>
					<clipitem id="clipitem-2232" premiereChannelType="mono">
						<masterclipid>masterclip-67</masterclipid>
						<name>VB 2 H_03.wav</name>
						<enabled>TRUE</enabled>
						<duration>171138</duration>
						<rate>
							<timebase>25</timebase>
							<ntsc>FALSE</ntsc>
						</rate>
						<start>55369</start>
						<end>55449</end>
						<in>162899</in>
						<out>162979</out>
						<pproTicksIn>1655158095360000</pproTicksIn>
						<pproTicksOut>1655970946560000</pproTicksOut>
						<file id="file-63"/>
						<sourcetrack>
							<mediatype>audio</mediatype>
							<trackindex>1</trackindex>
						</sourcetrack>
						<logginginfo>
							<description></description>
							<scene></scene>
							<shottake></shottake>
							<lognote></lognote>
						</logginginfo>
						<labels>
							<label2>Caribbean</label2>
						</labels>
					</clipitem>
					<clipitem id="clipitem-2233" premiereChannelType="mono">
						<masterclipid>masterclip-67</masterclipid>
						<name>VB 2 H_03.wav</name>
						<enabled>TRUE</enabled>
						<duration>171138</duration>
						<rate>
							<timebase>25</timebase>
							<ntsc>FALSE</ntsc>
						</rate>
						<start>55449</start>
						<end>55738</end>
						<in>163146</in>
						<out>163435</out>
						<pproTicksIn>1657667773440000</pproTicksIn>
						<pproTicksOut>1660604198400000</pproTicksOut>
						<file id="file-63"/>
						<sourcetrack>
							<mediatype>audio</mediatype>
							<trackindex>1</trackindex>
						</sourcetrack>
						<logginginfo>
							<description></description>
							<scene></scene>
							<shottake></shottake>
							<lognote></lognote>
						</logginginfo>
						<labels>
							<label2>Caribbean</label2>
						</labels>
					</clipitem>
					<clipitem id="clipitem-2234" premiereChannelType="mono">
						<masterclipid>masterclip-67</masterclipid>
						<name>VB 2 H_03.wav</name>
						<enabled>TRUE</enabled>
						<duration>171138</duration>
						<rate>
							<timebase>25</timebase>
							<ntsc>FALSE</ntsc>
						</rate>
						<start>55738</start>
						<end>55905</end>
						<in>163648</in>
						<out>163815</out>
						<pproTicksIn>1662768414720000</pproTicksIn>
						<pproTicksOut>1664465241600000</pproTicksOut>
						<file id="file-63"/>
						<sourcetrack>
							<mediatype>audio</mediatype>
							<trackindex>1</trackindex>
						</sourcetrack>
						<logginginfo>
							<description></description>
							<scene></scene>
							<shottake></shottake>
							<lognote></lognote>
						</logginginfo>
						<labels>
							<label2>Caribbean</label2>
						</labels>
					</clipitem>
					<clipitem id="clipitem-2235" premiereChannelType="mono">
						<masterclipid>masterclip-67</masterclipid>
						<name>VB 2 H_03.wav</name>
						<enabled>TRUE</enabled>
						<duration>171138</duration>
						<rate>
							<timebase>25</timebase>
							<ntsc>FALSE</ntsc>
						</rate>
						<start>55905</start>
						<end>56079</end>
						<in>163829</in>
						<out>164003</out>
						<pproTicksIn>1664607490560000</pproTicksIn>
						<pproTicksOut>1666375441920000</pproTicksOut>
						<file id="file-63"/>
						<sourcetrack>
							<mediatype>audio</mediatype>
							<trackindex>1</trackindex>
						</sourcetrack>
						<logginginfo>
							<description></description>
							<scene></scene>
							<shottake></shottake>
							<lognote></lognote>
						</logginginfo>
						<labels>
							<label2>Caribbean</label2>
						</labels>
					</clipitem>
					<clipitem id="clipitem-2236" premiereChannelType="mono">
						<masterclipid>masterclip-67</masterclipid>
						<name>VB 2 H_03.wav</name>
						<enabled>TRUE</enabled>
						<duration>171138</duration>
						<rate>
							<timebase>25</timebase>
							<ntsc>FALSE</ntsc>
						</rate>
						<start>56079</start>
						<end>58120</end>
						<in>164067</in>
						<out>166108</out>
						<pproTicksIn>1667025722880000</pproTicksIn>
						<pproTicksOut>1687763589120000</pproTicksOut>
						<file id="file-63"/>
						<sourcetrack>
							<mediatype>audio</mediatype>
							<trackindex>1</trackindex>
						</sourcetrack>
						<logginginfo>
							<description></description>
							<scene></scene>
							<shottake></shottake>
							<lognote></lognote>
						</logginginfo>
						<labels>
							<label2>Caribbean</label2>
						</labels>
					</clipitem>
					<enabled>TRUE</enabled>
					<locked>FALSE</locked>
					<outputchannelindex>2</outputchannelindex>
				</track>
				<track TL.SQTrackAudioKeyframeStyle="0" TL.SQTrackShy="0" TL.SQTrackExpandedHeight="25" TL.SQTrackExpanded="0" MZ.TrackTargeted="1" PannerCurrentValue="0.5" PannerIsInverted="true" PannerStartKeyframe="-91445760000000000,0.5,0,0,0,0,0,0" PannerName="Balance" currentExplodedTrackIndex="0" totalExplodedTrackCount="2" premiereTrackType="Stereo">
					<clipitem id="clipitem-2237" premiereChannelType="stereo">
						<masterclipid>masterclip-68</masterclipid>
						<name>Super%20Jets%20Overhead%2004.wav</name>
						<enabled>TRUE</enabled>
						<duration>295</duration>
						<rate>
							<timebase>25</timebase>
							<ntsc>FALSE</ntsc>
						</rate>
						<start>47</start>
						<end>80</end>
						<in>262</in>
						<out>295</out>
						<pproTicksIn>2662087680000</pproTicksIn>
						<pproTicksOut>2997388800000</pproTicksOut>
						<file id="file-64">
							<name>Super%20Jets%20Overhead%2004.wav</name>
							<pathurl>file://localhost/Volumes/Brakka/AdobeLager/QUIZ%20-%20brakka/Musikk/Sound%20FX/Vignett/Super%2520Jets%2520Overhead%252004.wav</pathurl>
							<rate>
								<timebase>30</timebase>
								<ntsc>TRUE</ntsc>
							</rate>
							<duration>354</duration>
							<timecode>
								<rate>
									<timebase>30</timebase>
									<ntsc>TRUE</ntsc>
								</rate>
								<string>01;08;13;21</string>
								<frame>122687</frame>
								<displayformat>DF</displayformat>
								<reel>
									<name></name>
								</reel>
							</timecode>
							<media>
								<audio>
									<samplecharacteristics>
										<depth>16</depth>
										<samplerate>44100</samplerate>
									</samplecharacteristics>
									<channelcount>2</channelcount>
								</audio>
							</media>
						</file>
						<sourcetrack>
							<mediatype>audio</mediatype>
							<trackindex>1</trackindex>
						</sourcetrack>
							<filter>
								<effect>
									<name>Audio Levels</name>
									<effectid>audiolevels</effectid>
									<effectcategory>audiolevels</effectcategory>
									<effecttype>audiolevels</effecttype>
									<mediatype>audio</mediatype>
									<parameter authoringApp="PremierePro">
										<parameterid>level</parameterid>
										<name>Level</name>
										<valuemin>0</valuemin>
										<valuemax>3.98109</valuemax>
										<value>0.099763</value>
									</parameter>
								</effect>
							</filter>
						<link>
							<linkclipref>clipitem-2237</linkclipref>
							<mediatype>audio</mediatype>
							<trackindex>15</trackindex>
							<clipindex>1</clipindex>
							<groupindex>1</groupindex>
						</link>
						<link>
							<linkclipref>clipitem-2372</linkclipref>
							<mediatype>audio</mediatype>
							<trackindex>16</trackindex>
							<clipindex>1</clipindex>
							<groupindex>1</groupindex>
						</link>
						<logginginfo>
							<description></description>
							<scene></scene>
							<shottake></shottake>
							<lognote></lognote>
						</logginginfo>
						<labels>
							<label2>Caribbean</label2>
						</labels>
					</clipitem>
					<clipitem id="clipitem-2238" premiereChannelType="stereo">
						<masterclipid>masterclip-69</masterclipid>
						<name>Flash%20Frame%20Lite%2003.wav</name>
						<enabled>TRUE</enabled>
						<duration>90</duration>
						<rate>
							<timebase>25</timebase>
							<ntsc>FALSE</ntsc>
						</rate>
						<start>146</start>
						<end>236</end>
						<in>0</in>
						<out>90</out>
						<pproTicksIn>0</pproTicksIn>
						<pproTicksOut>914457600000</pproTicksOut>
						<file id="file-65">
							<name>Flash%20Frame%20Lite%2003.wav</name>
							<pathurl>file://localhost/Volumes/Brakka/AdobeLager/QUIZ%20-%20brakka/Musikk/Sound%20FX/Vignett/Flash%2520Frame%2520Lite%252003.wav</pathurl>
							<rate>
								<timebase>30</timebase>
								<ntsc>TRUE</ntsc>
							</rate>
							<duration>108</duration>
							<timecode>
								<rate>
									<timebase>30</timebase>
									<ntsc>TRUE</ntsc>
								</rate>
								<string>01;06;07;22</string>
								<frame>118912</frame>
								<displayformat>DF</displayformat>
								<reel>
									<name></name>
								</reel>
							</timecode>
							<media>
								<audio>
									<samplecharacteristics>
										<depth>16</depth>
										<samplerate>44100</samplerate>
									</samplecharacteristics>
									<channelcount>2</channelcount>
								</audio>
							</media>
						</file>
						<sourcetrack>
							<mediatype>audio</mediatype>
							<trackindex>1</trackindex>
						</sourcetrack>
							<filter>
								<effect>
									<name>Audio Levels</name>
									<effectid>audiolevels</effectid>
									<effectcategory>audiolevels</effectcategory>
									<effecttype>audiolevels</effecttype>
									<mediatype>audio</mediatype>
									<parameter authoringApp="PremierePro">
										<parameterid>level</parameterid>
										<name>Level</name>
										<valuemin>0</valuemin>
										<valuemax>3.98109</valuemax>
										<value>0.445625</value>
									</parameter>
								</effect>
							</filter>
						<link>
							<linkclipref>clipitem-2238</linkclipref>
							<mediatype>audio</mediatype>
							<trackindex>15</trackindex>
							<clipindex>2</clipindex>
							<groupindex>1</groupindex>
						</link>
						<link>
							<linkclipref>clipitem-2373</linkclipref>
							<mediatype>audio</mediatype>
							<trackindex>16</trackindex>
							<clipindex>2</clipindex>
							<groupindex>1</groupindex>
						</link>
						<logginginfo>
							<description></description>
							<scene></scene>
							<shottake></shottake>
							<lognote></lognote>
						</logginginfo>
						<labels>
							<label2>Caribbean</label2>
						</labels>
					</clipitem>
					<clipitem id="clipitem-2239" premiereChannelType="stereo">
						<masterclipid>masterclip-68</masterclipid>
						<name>Super%20Jets%20Overhead%2004.wav</name>
						<enabled>TRUE</enabled>
						<duration>295</duration>
						<rate>
							<timebase>25</timebase>
							<ntsc>FALSE</ntsc>
						</rate>
						<start>293</start>
						<end>326</end>
						<in>262</in>
						<out>295</out>
						<pproTicksIn>2662087680000</pproTicksIn>
						<pproTicksOut>2997388800000</pproTicksOut>
						<file id="file-64"/>
						<sourcetrack>
							<mediatype>audio</mediatype>
							<trackindex>1</trackindex>
						</sourcetrack>
							<filter>
								<effect>
									<name>Audio Levels</name>
									<effectid>audiolevels</effectid>
									<effectcategory>audiolevels</effectcategory>
									<effecttype>audiolevels</effecttype>
									<mediatype>audio</mediatype>
									<parameter authoringApp="PremierePro">
										<parameterid>level</parameterid>
										<name>Level</name>
										<valuemin>0</valuemin>
										<valuemax>3.98109</valuemax>
										<value>0.099763</value>
									</parameter>
								</effect>
							</filter>
						<link>
							<linkclipref>clipitem-2239</linkclipref>
							<mediatype>audio</mediatype>
							<trackindex>15</trackindex>
							<clipindex>3</clipindex>
							<groupindex>1</groupindex>
						</link>
						<link>
							<linkclipref>clipitem-2374</linkclipref>
							<mediatype>audio</mediatype>
							<trackindex>16</trackindex>
							<clipindex>3</clipindex>
							<groupindex>1</groupindex>
						</link>
						<logginginfo>
							<description></description>
							<scene></scene>
							<shottake></shottake>
							<lognote></lognote>
						</logginginfo>
						<labels>
							<label2>Caribbean</label2>
						</labels>
					</clipitem>
					<clipitem id="clipitem-2240" premiereChannelType="mono">
						<masterclipid>masterclip-70</masterclipid>
						<name>Whoosh%20By%2003.wav</name>
						<enabled>TRUE</enabled>
						<duration>71</duration>
						<rate>
							<timebase>25</timebase>
							<ntsc>FALSE</ntsc>
						</rate>
						<start>339</start>
						<end>368</end>
						<in>0</in>
						<out>29</out>
						<pproTicksIn>0</pproTicksIn>
						<pproTicksOut>294658560000</pproTicksOut>
						<file id="file-66">
							<name>Whoosh%20By%2003.wav</name>
							<pathurl>file://localhost/Volumes/Brakka/AdobeLager/QUIZ%20-%20brakka/Musikk/Sound%20FX/Vignett/Whoosh%2520By%252003.wav</pathurl>
							<rate>
								<timebase>30</timebase>
								<ntsc>TRUE</ntsc>
							</rate>
							<duration>85</duration>
							<timecode>
								<rate>
									<timebase>30</timebase>
									<ntsc>TRUE</ntsc>
								</rate>
								<string>01;16;44;05</string>
								<frame>137987</frame>
								<displayformat>DF</displayformat>
								<reel>
									<name></name>
								</reel>
							</timecode>
							<media>
								<audio>
									<samplecharacteristics>
										<depth>16</depth>
										<samplerate>44100</samplerate>
									</samplecharacteristics>
									<channelcount>2</channelcount>
								</audio>
							</media>
						</file>
						<sourcetrack>
							<mediatype>audio</mediatype>
							<trackindex>1</trackindex>
						</sourcetrack>
							<filter>
								<effect>
									<name>Audio Levels</name>
									<effectid>audiolevels</effectid>
									<effectcategory>audiolevels</effectcategory>
									<effecttype>audiolevels</effecttype>
									<mediatype>audio</mediatype>
									<parameter authoringApp="PremierePro">
										<parameterid>level</parameterid>
										<name>Level</name>
										<valuemin>0</valuemin>
										<valuemax>3.98109</valuemax>
										<value>0.111936</value>
									</parameter>
								</effect>
							</filter>
						<logginginfo>
							<description></description>
							<scene></scene>
							<shottake></shottake>
							<lognote></lognote>
						</logginginfo>
						<labels>
							<label2>Caribbean</label2>
						</labels>
					</clipitem>
					<clipitem id="clipitem-2241" premiereChannelType="mono">
						<masterclipid>masterclip-71</masterclipid>
						<name>VB 2 V_03.wav</name>
						<enabled>TRUE</enabled>
						<duration>171138</duration>
						<rate>
							<timebase>25</timebase>
							<ntsc>FALSE</ntsc>
						</rate>
						<start>420</start>
						<end>891</end>
						<in>168511</in>
						<out>168982</out>
						<pproTicksIn>1712179607040000</pproTicksIn>
						<pproTicksOut>1716965268480000</pproTicksOut>
						<file id="file-67">
							<name>VB 2 V_03.wav</name>
							<pathurl>file://localhost/Volumes/Brakka/AdobeLager/QUIZ%20-%20brakka/RA%cc%8aSTOFF%20LYD/2005/VB%202%20V_03.wav</pathurl>
							<rate>
								<timebase>30</timebase>
								<ntsc>TRUE</ntsc>
							</rate>
							<duration>205161</duration>
							<timecode>
								<rate>
									<timebase>30</timebase>
									<ntsc>TRUE</ntsc>
								</rate>
								<string>12;52;15;16</string>
								<frame>1388676</frame>
								<displayformat>DF</displayformat>
								<reel>
									<name></name>
								</reel>
							</timecode>
							<media>
								<audio>
									<samplecharacteristics>
										<depth>16</depth>
										<samplerate>48000</samplerate>
									</samplecharacteristics>
									<channelcount>1</channelcount>
									<audiochannel>
										<sourcechannel>1</sourcechannel>
									</audiochannel>
								</audio>
							</media>
						</file>
						<sourcetrack>
							<mediatype>audio</mediatype>
							<trackindex>1</trackindex>
						</sourcetrack>
						<logginginfo>
							<description></description>
							<scene></scene>
							<shottake></shottake>
							<lognote></lognote>
						</logginginfo>
						<labels>
							<label2>Caribbean</label2>
						</labels>
					</clipitem>
					<clipitem id="clipitem-2242" premiereChannelType="mono">
						<masterclipid>masterclip-71</masterclipid>
						<name>VB 2 V_03.wav</name>
						<enabled>TRUE</enabled>
						<duration>171138</duration>
						<rate>
							<timebase>25</timebase>
							<ntsc>FALSE</ntsc>
						</rate>
						<start>965</start>
						<end>1469</end>
						<in>32787</in>
						<out>33291</out>
						<pproTicksIn>333136903680000</pproTicksIn>
						<pproTicksOut>338257866240000</pproTicksOut>
						<file id="file-67"/>
						<sourcetrack>
							<mediatype>audio</mediatype>
							<trackindex>1</trackindex>
						</sourcetrack>
						<logginginfo>
							<description></description>
							<scene></scene>
							<shottake></shottake>
							<lognote></lognote>
						</logginginfo>
						<labels>
							<label2>Caribbean</label2>
						</labels>
					</clipitem>
					<clipitem id="clipitem-2243" premiereChannelType="mono">
						<masterclipid>masterclip-71</masterclipid>
						<name>VB 2 V_03.wav</name>
						<enabled>TRUE</enabled>
						<duration>171138</duration>
						<rate>
							<timebase>25</timebase>
							<ntsc>FALSE</ntsc>
						</rate>
						<start>1469</start>
						<end>4119</end>
						<in>33423</in>
						<out>36073</out>
						<pproTicksIn>339599070720000</pproTicksIn>
						<pproTicksOut>366524766720000</pproTicksOut>
						<file id="file-67"/>
						<sourcetrack>
							<mediatype>audio</mediatype>
							<trackindex>1</trackindex>
						</sourcetrack>
						<logginginfo>
							<description></description>
							<scene></scene>
							<shottake></shottake>
							<lognote></lognote>
						</logginginfo>
						<labels>
							<label2>Caribbean</label2>
						</labels>
					</clipitem>
					<clipitem id="clipitem-2244" premiereChannelType="mono">
						<masterclipid>masterclip-71</masterclipid>
						<name>VB 2 V_03.wav</name>
						<enabled>TRUE</enabled>
						<duration>171138</duration>
						<rate>
							<timebase>25</timebase>
							<ntsc>FALSE</ntsc>
						</rate>
						<start>4119</start>
						<end>4836</end>
						<in>36549</in>
						<out>37266</out>
						<pproTicksIn>371361231360000</pproTicksIn>
						<pproTicksOut>378646410240000</pproTicksOut>
						<file id="file-67"/>
						<sourcetrack>
							<mediatype>audio</mediatype>
							<trackindex>1</trackindex>
						</sourcetrack>
						<logginginfo>
							<description></description>
							<scene></scene>
							<shottake></shottake>
							<lognote></lognote>
						</logginginfo>
						<labels>
							<label2>Caribbean</label2>
						</labels>
					</clipitem>
					<clipitem id="clipitem-2245" premiereChannelType="mono">
						<masterclipid>masterclip-71</masterclipid>
						<name>VB 2 V_03.wav</name>
						<enabled>TRUE</enabled>
						<duration>171138</duration>
						<rate>
							<timebase>25</timebase>
							<ntsc>FALSE</ntsc>
						</rate>
						<start>4836</start>
						<end>5339</end>
						<in>37305</in>
						<out>37808</out>
						<pproTicksIn>379042675200000</pproTicksIn>
						<pproTicksOut>384153477120000</pproTicksOut>
						<file id="file-67"/>
						<sourcetrack>
							<mediatype>audio</mediatype>
							<trackindex>1</trackindex>
						</sourcetrack>
						<logginginfo>
							<description></description>
							<scene></scene>
							<shottake></shottake>
							<lognote></lognote>
						</logginginfo>
						<labels>
							<label2>Caribbean</label2>
						</labels>
					</clipitem>
					<clipitem id="clipitem-2246" premiereChannelType="mono">
						<masterclipid>masterclip-71</masterclipid>
						<name>VB 2 V_03.wav</name>
						<enabled>TRUE</enabled>
						<duration>171138</duration>
						<rate>
							<timebase>25</timebase>
							<ntsc>FALSE</ntsc>
						</rate>
						<start>5339</start>
						<end>5501</end>
						<in>37871</in>
						<out>38033</out>
						<pproTicksIn>384793597440000</pproTicksIn>
						<pproTicksOut>386439621120000</pproTicksOut>
						<file id="file-67"/>
						<sourcetrack>
							<mediatype>audio</mediatype>
							<trackindex>1</trackindex>
						</sourcetrack>
						<logginginfo>
							<description></description>
							<scene></scene>
							<shottake></shottake>
							<lognote></lognote>
						</logginginfo>
						<labels>
							<label2>Caribbean</label2>
						</labels>
					</clipitem>
					<clipitem id="clipitem-2247" premiereChannelType="mono">
						<masterclipid>masterclip-71</masterclipid>
						<name>VB 2 V_03.wav</name>
						<enabled>TRUE</enabled>
						<duration>171138</duration>
						<rate>
							<timebase>25</timebase>
							<ntsc>FALSE</ntsc>
						</rate>
						<start>5501</start>
						<end>6004</end>
						<in>46577</in>
						<out>47080</out>
						<pproTicksIn>473252129280000</pproTicksIn>
						<pproTicksOut>478362931200000</pproTicksOut>
						<file id="file-67"/>
						<sourcetrack>
							<mediatype>audio</mediatype>
							<trackindex>1</trackindex>
						</sourcetrack>
						<logginginfo>
							<description></description>
							<scene></scene>
							<shottake></shottake>
							<lognote></lognote>
						</logginginfo>
						<labels>
							<label2>Caribbean</label2>
						</labels>
					</clipitem>
					<clipitem id="clipitem-2248" premiereChannelType="mono">
						<masterclipid>masterclip-71</masterclipid>
						<name>VB 2 V_03.wav</name>
						<enabled>TRUE</enabled>
						<duration>171138</duration>
						<rate>
							<timebase>25</timebase>
							<ntsc>FALSE</ntsc>
						</rate>
						<start>6004</start>
						<end>6357</end>
						<in>50106</in>
						<out>50459</out>
						<pproTicksIn>509109027840000</pproTicksIn>
						<pproTicksOut>512695733760000</pproTicksOut>
						<file id="file-67"/>
						<sourcetrack>
							<mediatype>audio</mediatype>
							<trackindex>1</trackindex>
						</sourcetrack>
						<logginginfo>
							<description></description>
							<scene></scene>
							<shottake></shottake>
							<lognote></lognote>
						</logginginfo>
						<labels>
							<label2>Caribbean</label2>
						</labels>
					</clipitem>
					<clipitem id="clipitem-2249" premiereChannelType="mono">
						<masterclipid>masterclip-71</masterclipid>
						<name>VB 2 V_03.wav</name>
						<enabled>TRUE</enabled>
						<duration>171138</duration>
						<rate>
							<timebase>25</timebase>
							<ntsc>FALSE</ntsc>
						</rate>
						<start>6357</start>
						<end>6470</end>
						<in>50578</in>
						<out>50691</out>
						<pproTicksIn>513904849920000</pproTicksIn>
						<pproTicksOut>515053002240000</pproTicksOut>
						<file id="file-67"/>
						<sourcetrack>
							<mediatype>audio</mediatype>
							<trackindex>1</trackindex>
						</sourcetrack>
						<logginginfo>
							<description></description>
							<scene></scene>
							<shottake></shottake>
							<lognote></lognote>
						</logginginfo>
						<labels>
							<label2>Caribbean</label2>
						</labels>
					</clipitem>
					<clipitem id="clipitem-2250" premiereChannelType="mono">
						<masterclipid>masterclip-71</masterclipid>
						<name>VB 2 V_03.wav</name>
						<enabled>TRUE</enabled>
						<duration>171138</duration>
						<rate>
							<timebase>25</timebase>
							<ntsc>FALSE</ntsc>
						</rate>
						<start>6470</start>
						<end>6547</end>
						<in>50753</in>
						<out>50830</out>
						<pproTicksIn>515682961920000</pproTicksIn>
						<pproTicksOut>516465331200000</pproTicksOut>
						<file id="file-67"/>
						<sourcetrack>
							<mediatype>audio</mediatype>
							<trackindex>1</trackindex>
						</sourcetrack>
						<logginginfo>
							<description></description>
							<scene></scene>
							<shottake></shottake>
							<lognote></lognote>
						</logginginfo>
						<labels>
							<label2>Caribbean</label2>
						</labels>
					</clipitem>
					<clipitem id="clipitem-2251" premiereChannelType="mono">
						<masterclipid>masterclip-71</masterclipid>
						<name>VB 2 V_03.wav</name>
						<enabled>TRUE</enabled>
						<duration>171138</duration>
						<rate>
							<timebase>25</timebase>
							<ntsc>FALSE</ntsc>
						</rate>
						<start>6547</start>
						<end>7368</end>
						<in>50869</in>
						<out>51690</out>
						<pproTicksIn>516861596160000</pproTicksIn>
						<pproTicksOut>525203481600000</pproTicksOut>
						<file id="file-67"/>
						<sourcetrack>
							<mediatype>audio</mediatype>
							<trackindex>1</trackindex>
						</sourcetrack>
						<logginginfo>
							<description></description>
							<scene></scene>
							<shottake></shottake>
							<lognote></lognote>
						</logginginfo>
						<labels>
							<label2>Caribbean</label2>
						</labels>
					</clipitem>
					<clipitem id="clipitem-2252" premiereChannelType="mono">
						<masterclipid>masterclip-71</masterclipid>
						<name>VB 2 V_03.wav</name>
						<enabled>TRUE</enabled>
						<duration>171138</duration>
						<rate>
							<timebase>25</timebase>
							<ntsc>FALSE</ntsc>
						</rate>
						<start>7368</start>
						<end>7448</end>
						<in>51824</in>
						<out>51904</out>
						<pproTicksIn>526565007360000</pproTicksIn>
						<pproTicksOut>527377858560000</pproTicksOut>
						<file id="file-67"/>
						<sourcetrack>
							<mediatype>audio</mediatype>
							<trackindex>1</trackindex>
						</sourcetrack>
						<logginginfo>
							<description></description>
							<scene></scene>
							<shottake></shottake>
							<lognote></lognote>
						</logginginfo>
						<labels>
							<label2>Caribbean</label2>
						</labels>
					</clipitem>
					<clipitem id="clipitem-2253" premiereChannelType="mono">
						<masterclipid>masterclip-71</masterclipid>
						<name>VB 2 V_03.wav</name>
						<enabled>TRUE</enabled>
						<duration>171138</duration>
						<rate>
							<timebase>25</timebase>
							<ntsc>FALSE</ntsc>
						</rate>
						<start>7448</start>
						<end>8194</end>
						<in>52064</in>
						<out>52810</out>
						<pproTicksIn>529003560960000</pproTicksIn>
						<pproTicksOut>536583398400000</pproTicksOut>
						<file id="file-67"/>
						<sourcetrack>
							<mediatype>audio</mediatype>
							<trackindex>1</trackindex>
						</sourcetrack>
						<logginginfo>
							<description></description>
							<scene></scene>
							<shottake></shottake>
							<lognote></lognote>
						</logginginfo>
						<labels>
							<label2>Caribbean</label2>
						</labels>
					</clipitem>
					<clipitem id="clipitem-2254" premiereChannelType="mono">
						<masterclipid>masterclip-71</masterclipid>
						<name>VB 2 V_03.wav</name>
						<enabled>TRUE</enabled>
						<duration>171138</duration>
						<rate>
							<timebase>25</timebase>
							<ntsc>FALSE</ntsc>
						</rate>
						<start>8194</start>
						<end>8332</end>
						<in>57229</in>
						<out>57367</out>
						<pproTicksIn>581483266560000</pproTicksIn>
						<pproTicksOut>582885434880000</pproTicksOut>
						<file id="file-67"/>
						<sourcetrack>
							<mediatype>audio</mediatype>
							<trackindex>1</trackindex>
						</sourcetrack>
						<logginginfo>
							<description></description>
							<scene></scene>
							<shottake></shottake>
							<lognote></lognote>
						</logginginfo>
						<labels>
							<label2>Caribbean</label2>
						</labels>
					</clipitem>
					<clipitem id="clipitem-2255" premiereChannelType="mono">
						<masterclipid>masterclip-71</masterclipid>
						<name>VB 2 V_03.wav</name>
						<enabled>TRUE</enabled>
						<duration>171138</duration>
						<rate>
							<timebase>25</timebase>
							<ntsc>FALSE</ntsc>
						</rate>
						<start>8332</start>
						<end>8592</end>
						<in>58240</in>
						<out>58500</out>
						<pproTicksIn>591755673600000</pproTicksIn>
						<pproTicksOut>594397440000000</pproTicksOut>
						<file id="file-67"/>
						<sourcetrack>
							<mediatype>audio</mediatype>
							<trackindex>1</trackindex>
						</sourcetrack>
						<logginginfo>
							<description></description>
							<scene></scene>
							<shottake></shottake>
							<lognote></lognote>
						</logginginfo>
						<labels>
							<label2>Caribbean</label2>
						</labels>
					</clipitem>
					<clipitem id="clipitem-2256" premiereChannelType="mono">
						<masterclipid>masterclip-71</masterclipid>
						<name>VB 2 V_03.wav</name>
						<enabled>TRUE</enabled>
						<duration>171138</duration>
						<rate>
							<timebase>25</timebase>
							<ntsc>FALSE</ntsc>
						</rate>
						<start>8592</start>
						<end>8690</end>
						<in>58994</in>
						<out>59092</out>
						<pproTicksIn>599416796160000</pproTicksIn>
						<pproTicksOut>600412538880000</pproTicksOut>
						<file id="file-67"/>
						<sourcetrack>
							<mediatype>audio</mediatype>
							<trackindex>1</trackindex>
						</sourcetrack>
						<logginginfo>
							<description></description>
							<scene></scene>
							<shottake></shottake>
							<lognote></lognote>
						</logginginfo>
						<labels>
							<label2>Caribbean</label2>
						</labels>
					</clipitem>
					<clipitem id="clipitem-2257" premiereChannelType="mono">
						<masterclipid>masterclip-71</masterclipid>
						<name>VB 2 V_03.wav</name>
						<enabled>TRUE</enabled>
						<duration>171138</duration>
						<rate>
							<timebase>25</timebase>
							<ntsc>FALSE</ntsc>
						</rate>
						<start>8690</start>
						<end>8999</end>
						<in>59189</in>
						<out>59498</out>
						<pproTicksIn>601398120960000</pproTicksIn>
						<pproTicksOut>604537758720000</pproTicksOut>
						<file id="file-67"/>
						<sourcetrack>
							<mediatype>audio</mediatype>
							<trackindex>1</trackindex>
						</sourcetrack>
						<logginginfo>
							<description></description>
							<scene></scene>
							<shottake></shottake>
							<lognote></lognote>
						</logginginfo>
						<labels>
							<label2>Caribbean</label2>
						</labels>
					</clipitem>
					<clipitem id="clipitem-2258" premiereChannelType="mono">
						<masterclipid>masterclip-71</masterclipid>
						<name>VB 2 V_03.wav</name>
						<enabled>TRUE</enabled>
						<duration>171138</duration>
						<rate>
							<timebase>25</timebase>
							<ntsc>FALSE</ntsc>
						</rate>
						<start>8999</start>
						<end>9172</end>
						<in>59597</in>
						<out>59770</out>
						<pproTicksIn>605543662080000</pproTicksIn>
						<pproTicksOut>607301452800000</pproTicksOut>
						<file id="file-67"/>
						<sourcetrack>
							<mediatype>audio</mediatype>
							<trackindex>1</trackindex>
						</sourcetrack>
						<logginginfo>
							<description></description>
							<scene></scene>
							<shottake></shottake>
							<lognote></lognote>
						</logginginfo>
						<labels>
							<label2>Caribbean</label2>
						</labels>
					</clipitem>
					<clipitem id="clipitem-2259" premiereChannelType="mono">
						<masterclipid>masterclip-71</masterclipid>
						<name>VB 2 V_03.wav</name>
						<enabled>TRUE</enabled>
						<duration>171138</duration>
						<rate>
							<timebase>25</timebase>
							<ntsc>FALSE</ntsc>
						</rate>
						<start>9172</start>
						<end>9280</end>
						<in>59921</in>
						<out>60029</out>
						<pproTicksIn>608835709440000</pproTicksIn>
						<pproTicksOut>609933058560000</pproTicksOut>
						<file id="file-67"/>
						<sourcetrack>
							<mediatype>audio</mediatype>
							<trackindex>1</trackindex>
						</sourcetrack>
						<logginginfo>
							<description></description>
							<scene></scene>
							<shottake></shottake>
							<lognote></lognote>
						</logginginfo>
						<labels>
							<label2>Caribbean</label2>
						</labels>
					</clipitem>
					<clipitem id="clipitem-2260" premiereChannelType="mono">
						<masterclipid>masterclip-71</masterclipid>
						<name>VB 2 V_03.wav</name>
						<enabled>TRUE</enabled>
						<duration>171138</duration>
						<rate>
							<timebase>25</timebase>
							<ntsc>FALSE</ntsc>
						</rate>
						<start>9280</start>
						<end>9979</end>
						<in>65722</in>
						<out>66421</out>
						<pproTicksIn>667777582080000</pproTicksIn>
						<pproTicksOut>674879869440000</pproTicksOut>
						<file id="file-67"/>
						<sourcetrack>
							<mediatype>audio</mediatype>
							<trackindex>1</trackindex>
						</sourcetrack>
						<logginginfo>
							<description></description>
							<scene></scene>
							<shottake></shottake>
							<lognote></lognote>
						</logginginfo>
						<labels>
							<label2>Caribbean</label2>
						</labels>
					</clipitem>
					<clipitem id="clipitem-2261" premiereChannelType="mono">
						<masterclipid>masterclip-71</masterclipid>
						<name>VB 2 V_03.wav</name>
						<enabled>TRUE</enabled>
						<duration>171138</duration>
						<rate>
							<timebase>25</timebase>
							<ntsc>FALSE</ntsc>
						</rate>
						<start>9979</start>
						<end>10054</end>
						<in>66518</in>
						<out>66593</out>
						<pproTicksIn>675865451520000</pproTicksIn>
						<pproTicksOut>676627499520000</pproTicksOut>
						<file id="file-67"/>
						<sourcetrack>
							<mediatype>audio</mediatype>
							<trackindex>1</trackindex>
						</sourcetrack>
						<logginginfo>
							<description></description>
							<scene></scene>
							<shottake></shottake>
							<lognote></lognote>
						</logginginfo>
						<labels>
							<label2>Caribbean</label2>
						</labels>
					</clipitem>
					<clipitem id="clipitem-2262" premiereChannelType="mono">
						<masterclipid>masterclip-71</masterclipid>
						<name>VB 2 V_03.wav</name>
						<enabled>TRUE</enabled>
						<duration>171138</duration>
						<rate>
							<timebase>25</timebase>
							<ntsc>FALSE</ntsc>
						</rate>
						<start>10054</start>
						<end>10901</end>
						<in>67109</in>
						<out>67956</out>
						<pproTicksIn>681870389760000</pproTicksIn>
						<pproTicksOut>690476451840000</pproTicksOut>
						<file id="file-67"/>
						<sourcetrack>
							<mediatype>audio</mediatype>
							<trackindex>1</trackindex>
						</sourcetrack>
						<logginginfo>
							<description></description>
							<scene></scene>
							<shottake></shottake>
							<lognote></lognote>
						</logginginfo>
						<labels>
							<label2>Caribbean</label2>
						</labels>
					</clipitem>
					<clipitem id="clipitem-2263" premiereChannelType="mono">
						<masterclipid>masterclip-71</masterclipid>
						<name>VB 2 V_03.wav</name>
						<enabled>TRUE</enabled>
						<duration>171138</duration>
						<rate>
							<timebase>25</timebase>
							<ntsc>FALSE</ntsc>
						</rate>
						<start>10901</start>
						<end>11157</end>
						<in>67945</in>
						<out>68201</out>
						<pproTicksIn>690364684800000</pproTicksIn>
						<pproTicksOut>692965808640000</pproTicksOut>
						<file id="file-67"/>
						<sourcetrack>
							<mediatype>audio</mediatype>
							<trackindex>1</trackindex>
						</sourcetrack>
						<logginginfo>
							<description></description>
							<scene></scene>
							<shottake></shottake>
							<lognote></lognote>
						</logginginfo>
						<labels>
							<label2>Caribbean</label2>
						</labels>
					</clipitem>
					<clipitem id="clipitem-2264" premiereChannelType="mono">
						<masterclipid>masterclip-71</masterclipid>
						<name>VB 2 V_03.wav</name>
						<enabled>TRUE</enabled>
						<duration>171138</duration>
						<rate>
							<timebase>25</timebase>
							<ntsc>FALSE</ntsc>
						</rate>
						<start>11157</start>
						<end>11309</end>
						<in>68218</in>
						<out>68370</out>
						<pproTicksIn>693138539520000</pproTicksIn>
						<pproTicksOut>694682956800000</pproTicksOut>
						<file id="file-67"/>
						<sourcetrack>
							<mediatype>audio</mediatype>
							<trackindex>1</trackindex>
						</sourcetrack>
						<logginginfo>
							<description></description>
							<scene></scene>
							<shottake></shottake>
							<lognote></lognote>
						</logginginfo>
						<labels>
							<label2>Caribbean</label2>
						</labels>
					</clipitem>
					<clipitem id="clipitem-2265" premiereChannelType="mono">
						<masterclipid>masterclip-71</masterclipid>
						<name>VB 2 V_03.wav</name>
						<enabled>TRUE</enabled>
						<duration>171138</duration>
						<rate>
							<timebase>25</timebase>
							<ntsc>FALSE</ntsc>
						</rate>
						<start>11309</start>
						<end>11781</end>
						<in>68707</in>
						<out>69179</out>
						<pproTicksIn>698107092480000</pproTicksIn>
						<pproTicksOut>702902914560000</pproTicksOut>
						<file id="file-67"/>
						<sourcetrack>
							<mediatype>audio</mediatype>
							<trackindex>1</trackindex>
						</sourcetrack>
						<logginginfo>
							<description></description>
							<scene></scene>
							<shottake></shottake>
							<lognote></lognote>
						</logginginfo>
						<labels>
							<label2>Caribbean</label2>
						</labels>
					</clipitem>
					<clipitem id="clipitem-2266" premiereChannelType="mono">
						<masterclipid>masterclip-71</masterclipid>
						<name>VB 2 V_03.wav</name>
						<enabled>TRUE</enabled>
						<duration>171138</duration>
						<rate>
							<timebase>25</timebase>
							<ntsc>FALSE</ntsc>
						</rate>
						<start>11781</start>
						<end>12155</end>
						<in>70010</in>
						<out>70384</out>
						<pproTicksIn>711346406400000</pproTicksIn>
						<pproTicksOut>715146485760000</pproTicksOut>
						<file id="file-67"/>
						<sourcetrack>
							<mediatype>audio</mediatype>
							<trackindex>1</trackindex>
						</sourcetrack>
						<logginginfo>
							<description></description>
							<scene></scene>
							<shottake></shottake>
							<lognote></lognote>
						</logginginfo>
						<labels>
							<label2>Caribbean</label2>
						</labels>
					</clipitem>
					<clipitem id="clipitem-2267" premiereChannelType="mono">
						<masterclipid>masterclip-71</masterclipid>
						<name>VB 2 V_03.wav</name>
						<enabled>TRUE</enabled>
						<duration>171138</duration>
						<rate>
							<timebase>25</timebase>
							<ntsc>FALSE</ntsc>
						</rate>
						<start>12155</start>
						<end>13212</end>
						<in>70448</in>
						<out>71505</out>
						<pproTicksIn>715796766720000</pproTicksIn>
						<pproTicksOut>726536563200000</pproTicksOut>
						<file id="file-67"/>
						<sourcetrack>
							<mediatype>audio</mediatype>
							<trackindex>1</trackindex>
						</sourcetrack>
						<logginginfo>
							<description></description>
							<scene></scene>
							<shottake></shottake>
							<lognote></lognote>
						</logginginfo>
						<labels>
							<label2>Caribbean</label2>
						</labels>
					</clipitem>
					<clipitem id="clipitem-2268" premiereChannelType="mono">
						<masterclipid>masterclip-71</masterclipid>
						<name>VB 2 V_03.wav</name>
						<enabled>TRUE</enabled>
						<duration>171138</duration>
						<rate>
							<timebase>25</timebase>
							<ntsc>FALSE</ntsc>
						</rate>
						<start>13212</start>
						<end>13343</end>
						<in>71544</in>
						<out>71675</out>
						<pproTicksIn>726932828160000</pproTicksIn>
						<pproTicksOut>728263872000000</pproTicksOut>
						<file id="file-67"/>
						<sourcetrack>
							<mediatype>audio</mediatype>
							<trackindex>1</trackindex>
						</sourcetrack>
						<logginginfo>
							<description></description>
							<scene></scene>
							<shottake></shottake>
							<lognote></lognote>
						</logginginfo>
						<labels>
							<label2>Caribbean</label2>
						</labels>
					</clipitem>
					<clipitem id="clipitem-2269" premiereChannelType="mono">
						<masterclipid>masterclip-71</masterclipid>
						<name>VB 2 V_03.wav</name>
						<enabled>TRUE</enabled>
						<duration>171138</duration>
						<rate>
							<timebase>25</timebase>
							<ntsc>FALSE</ntsc>
						</rate>
						<start>13359</start>
						<end>13506</end>
						<in>77542</in>
						<out>77689</out>
						<pproTicksIn>787876346880000</pproTicksIn>
						<pproTicksOut>789369960960000</pproTicksOut>
						<file id="file-67"/>
						<sourcetrack>
							<mediatype>audio</mediatype>
							<trackindex>1</trackindex>
						</sourcetrack>
						<logginginfo>
							<description></description>
							<scene></scene>
							<shottake></shottake>
							<lognote></lognote>
						</logginginfo>
						<labels>
							<label2>Caribbean</label2>
						</labels>
					</clipitem>
					<clipitem id="clipitem-2270" premiereChannelType="mono">
						<masterclipid>masterclip-71</masterclipid>
						<name>VB 2 V_03.wav</name>
						<enabled>TRUE</enabled>
						<duration>171138</duration>
						<rate>
							<timebase>25</timebase>
							<ntsc>FALSE</ntsc>
						</rate>
						<start>13506</start>
						<end>14081</end>
						<in>78019</in>
						<out>78594</out>
						<pproTicksIn>792722972160000</pproTicksIn>
						<pproTicksOut>798565340160000</pproTicksOut>
						<file id="file-67"/>
						<sourcetrack>
							<mediatype>audio</mediatype>
							<trackindex>1</trackindex>
						</sourcetrack>
						<logginginfo>
							<description></description>
							<scene></scene>
							<shottake></shottake>
							<lognote></lognote>
						</logginginfo>
						<labels>
							<label2>Caribbean</label2>
						</labels>
					</clipitem>
					<clipitem id="clipitem-2271" premiereChannelType="mono">
						<masterclipid>masterclip-71</masterclipid>
						<name>VB 2 V_03.wav</name>
						<enabled>TRUE</enabled>
						<duration>171138</duration>
						<rate>
							<timebase>25</timebase>
							<ntsc>FALSE</ntsc>
						</rate>
						<start>14081</start>
						<end>14232</end>
						<in>78676</in>
						<out>78827</out>
						<pproTicksIn>799398512640000</pproTicksIn>
						<pproTicksOut>800932769280000</pproTicksOut>
						<file id="file-67"/>
						<sourcetrack>
							<mediatype>audio</mediatype>
							<trackindex>1</trackindex>
						</sourcetrack>
						<logginginfo>
							<description></description>
							<scene></scene>
							<shottake></shottake>
							<lognote></lognote>
						</logginginfo>
						<labels>
							<label2>Caribbean</label2>
						</labels>
					</clipitem>
					<clipitem id="clipitem-2272" premiereChannelType="mono">
						<masterclipid>masterclip-71</masterclipid>
						<name>VB 2 V_03.wav</name>
						<enabled>TRUE</enabled>
						<duration>171138</duration>
						<rate>
							<timebase>25</timebase>
							<ntsc>FALSE</ntsc>
						</rate>
						<start>14232</start>
						<end>14550</end>
						<in>78886</in>
						<out>79204</out>
						<pproTicksIn>801532247040000</pproTicksIn>
						<pproTicksOut>804763330560000</pproTicksOut>
						<file id="file-67"/>
						<sourcetrack>
							<mediatype>audio</mediatype>
							<trackindex>1</trackindex>
						</sourcetrack>
						<logginginfo>
							<description></description>
							<scene></scene>
							<shottake></shottake>
							<lognote></lognote>
						</logginginfo>
						<labels>
							<label2>Caribbean</label2>
						</labels>
					</clipitem>
					<clipitem id="clipitem-2273" premiereChannelType="mono">
						<masterclipid>masterclip-71</masterclipid>
						<name>VB 2 V_03.wav</name>
						<enabled>TRUE</enabled>
						<duration>171138</duration>
						<rate>
							<timebase>25</timebase>
							<ntsc>FALSE</ntsc>
						</rate>
						<start>14550</start>
						<end>14774</end>
						<in>79562</in>
						<out>79786</out>
						<pproTicksIn>808400839680000</pproTicksIn>
						<pproTicksOut>810676823040000</pproTicksOut>
						<file id="file-67"/>
						<sourcetrack>
							<mediatype>audio</mediatype>
							<trackindex>1</trackindex>
						</sourcetrack>
						<logginginfo>
							<description></description>
							<scene></scene>
							<shottake></shottake>
							<lognote></lognote>
						</logginginfo>
						<labels>
							<label2>Caribbean</label2>
						</labels>
					</clipitem>
					<clipitem id="clipitem-2274" premiereChannelType="mono">
						<masterclipid>masterclip-71</masterclipid>
						<name>VB 2 V_03.wav</name>
						<enabled>TRUE</enabled>
						<duration>171138</duration>
						<rate>
							<timebase>25</timebase>
							<ntsc>FALSE</ntsc>
						</rate>
						<start>14774</start>
						<end>14798</end>
						<in>79204</in>
						<out>79228</out>
						<pproTicksIn>804763330560000</pproTicksIn>
						<pproTicksOut>805007185920000</pproTicksOut>
						<file id="file-67"/>
						<sourcetrack>
							<mediatype>audio</mediatype>
							<trackindex>1</trackindex>
						</sourcetrack>
						<logginginfo>
							<description></description>
							<scene></scene>
							<shottake></shottake>
							<lognote></lognote>
						</logginginfo>
						<labels>
							<label2>Caribbean</label2>
						</labels>
					</clipitem>
					<clipitem id="clipitem-2275" premiereChannelType="mono">
						<masterclipid>masterclip-71</masterclipid>
						<name>VB 2 V_03.wav</name>
						<enabled>TRUE</enabled>
						<duration>171138</duration>
						<rate>
							<timebase>25</timebase>
							<ntsc>FALSE</ntsc>
						</rate>
						<start>14798</start>
						<end>14887</end>
						<in>80182</in>
						<out>80271</out>
						<pproTicksIn>814700436480000</pproTicksIn>
						<pproTicksOut>815604733440000</pproTicksOut>
						<file id="file-67"/>
						<sourcetrack>
							<mediatype>audio</mediatype>
							<trackindex>1</trackindex>
						</sourcetrack>
						<logginginfo>
							<description></description>
							<scene></scene>
							<shottake></shottake>
							<lognote></lognote>
						</logginginfo>
						<labels>
							<label2>Caribbean</label2>
						</labels>
					</clipitem>
					<clipitem id="clipitem-2276" premiereChannelType="mono">
						<masterclipid>masterclip-71</masterclipid>
						<name>VB 2 V_03.wav</name>
						<enabled>TRUE</enabled>
						<duration>171138</duration>
						<rate>
							<timebase>25</timebase>
							<ntsc>FALSE</ntsc>
						</rate>
						<start>14887</start>
						<end>15129</end>
						<in>80569</in>
						<out>80811</out>
						<pproTicksIn>818632604160000</pproTicksIn>
						<pproTicksOut>821091479040000</pproTicksOut>
						<file id="file-67"/>
						<sourcetrack>
							<mediatype>audio</mediatype>
							<trackindex>1</trackindex>
						</sourcetrack>
						<logginginfo>
							<description></description>
							<scene></scene>
							<shottake></shottake>
							<lognote></lognote>
						</logginginfo>
						<labels>
							<label2>Caribbean</label2>
						</labels>
					</clipitem>
					<clipitem id="clipitem-2277" premiereChannelType="mono">
						<masterclipid>masterclip-71</masterclipid>
						<name>VB 2 V_03.wav</name>
						<enabled>TRUE</enabled>
						<duration>171138</duration>
						<rate>
							<timebase>25</timebase>
							<ntsc>FALSE</ntsc>
						</rate>
						<start>15129</start>
						<end>15493</end>
						<in>80817</in>
						<out>81181</out>
						<pproTicksIn>821152442880000</pproTicksIn>
						<pproTicksOut>824850915840000</pproTicksOut>
						<file id="file-67"/>
						<sourcetrack>
							<mediatype>audio</mediatype>
							<trackindex>1</trackindex>
						</sourcetrack>
						<logginginfo>
							<description></description>
							<scene></scene>
							<shottake></shottake>
							<lognote></lognote>
						</logginginfo>
						<labels>
							<label2>Caribbean</label2>
						</labels>
					</clipitem>
					<clipitem id="clipitem-2278" premiereChannelType="mono">
						<masterclipid>masterclip-71</masterclipid>
						<name>VB 2 V_03.wav</name>
						<enabled>TRUE</enabled>
						<duration>171138</duration>
						<rate>
							<timebase>25</timebase>
							<ntsc>FALSE</ntsc>
						</rate>
						<start>15493</start>
						<end>15657</end>
						<in>81234</in>
						<out>81398</out>
						<pproTicksIn>825389429760000</pproTicksIn>
						<pproTicksOut>827055774720000</pproTicksOut>
						<file id="file-67"/>
						<sourcetrack>
							<mediatype>audio</mediatype>
							<trackindex>1</trackindex>
						</sourcetrack>
						<logginginfo>
							<description></description>
							<scene></scene>
							<shottake></shottake>
							<lognote></lognote>
						</logginginfo>
						<labels>
							<label2>Caribbean</label2>
						</labels>
					</clipitem>
					<clipitem id="clipitem-2279" premiereChannelType="mono">
						<masterclipid>masterclip-71</masterclipid>
						<name>VB 2 V_03.wav</name>
						<enabled>TRUE</enabled>
						<duration>171138</duration>
						<rate>
							<timebase>25</timebase>
							<ntsc>FALSE</ntsc>
						</rate>
						<start>15657</start>
						<end>15850</end>
						<in>81563</in>
						<out>81756</out>
						<pproTicksIn>828732280320000</pproTicksIn>
						<pproTicksOut>830693283840000</pproTicksOut>
						<file id="file-67"/>
						<sourcetrack>
							<mediatype>audio</mediatype>
							<trackindex>1</trackindex>
						</sourcetrack>
						<logginginfo>
							<description></description>
							<scene></scene>
							<shottake></shottake>
							<lognote></lognote>
						</logginginfo>
						<labels>
							<label2>Caribbean</label2>
						</labels>
					</clipitem>
					<clipitem id="clipitem-2280" premiereChannelType="mono">
						<masterclipid>masterclip-71</masterclipid>
						<name>VB 2 V_03.wav</name>
						<enabled>TRUE</enabled>
						<duration>171138</duration>
						<rate>
							<timebase>25</timebase>
							<ntsc>FALSE</ntsc>
						</rate>
						<start>15850</start>
						<end>16018</end>
						<in>81984</in>
						<out>82152</out>
						<pproTicksIn>833009909760000</pproTicksIn>
						<pproTicksOut>834716897280000</pproTicksOut>
						<file id="file-67"/>
						<sourcetrack>
							<mediatype>audio</mediatype>
							<trackindex>1</trackindex>
						</sourcetrack>
						<logginginfo>
							<description></description>
							<scene></scene>
							<shottake></shottake>
							<lognote></lognote>
						</logginginfo>
						<labels>
							<label2>Caribbean</label2>
						</labels>
					</clipitem>
					<clipitem id="clipitem-2281" premiereChannelType="mono">
						<masterclipid>masterclip-71</masterclipid>
						<name>VB 2 V_03.wav</name>
						<enabled>TRUE</enabled>
						<duration>171138</duration>
						<rate>
							<timebase>25</timebase>
							<ntsc>FALSE</ntsc>
						</rate>
						<start>16018</start>
						<end>16073</end>
						<in>82477</in>
						<out>82532</out>
						<pproTicksIn>838019105280000</pproTicksIn>
						<pproTicksOut>838577940480000</pproTicksOut>
						<file id="file-67"/>
						<sourcetrack>
							<mediatype>audio</mediatype>
							<trackindex>1</trackindex>
						</sourcetrack>
						<logginginfo>
							<description></description>
							<scene></scene>
							<shottake></shottake>
							<lognote></lognote>
						</logginginfo>
						<labels>
							<label2>Caribbean</label2>
						</labels>
					</clipitem>
					<clipitem id="clipitem-2282" premiereChannelType="mono">
						<masterclipid>masterclip-71</masterclipid>
						<name>VB 2 V_03.wav</name>
						<enabled>TRUE</enabled>
						<duration>171138</duration>
						<rate>
							<timebase>25</timebase>
							<ntsc>FALSE</ntsc>
						</rate>
						<start>16073</start>
						<end>16115</end>
						<in>83437</in>
						<out>83479</out>
						<pproTicksIn>847773319680000</pproTicksIn>
						<pproTicksOut>848200066560000</pproTicksOut>
						<file id="file-67"/>
						<sourcetrack>
							<mediatype>audio</mediatype>
							<trackindex>1</trackindex>
						</sourcetrack>
						<logginginfo>
							<description></description>
							<scene></scene>
							<shottake></shottake>
							<lognote></lognote>
						</logginginfo>
						<labels>
							<label2>Caribbean</label2>
						</labels>
					</clipitem>
					<clipitem id="clipitem-2283" premiereChannelType="mono">
						<masterclipid>masterclip-71</masterclipid>
						<name>VB 2 V_03.wav</name>
						<enabled>TRUE</enabled>
						<duration>171138</duration>
						<rate>
							<timebase>25</timebase>
							<ntsc>FALSE</ntsc>
						</rate>
						<start>16115</start>
						<end>16204</end>
						<in>83479</in>
						<out>83568</out>
						<pproTicksIn>848200066560000</pproTicksIn>
						<pproTicksOut>849104363520000</pproTicksOut>
						<file id="file-67"/>
						<sourcetrack>
							<mediatype>audio</mediatype>
							<trackindex>1</trackindex>
						</sourcetrack>
						<logginginfo>
							<description></description>
							<scene></scene>
							<shottake></shottake>
							<lognote></lognote>
						</logginginfo>
						<labels>
							<label2>Caribbean</label2>
						</labels>
					</clipitem>
					<clipitem id="clipitem-2284" premiereChannelType="mono">
						<masterclipid>masterclip-71</masterclipid>
						<name>VB 2 V_03.wav</name>
						<enabled>TRUE</enabled>
						<duration>171138</duration>
						<rate>
							<timebase>25</timebase>
							<ntsc>FALSE</ntsc>
						</rate>
						<start>16204</start>
						<end>16898</end>
						<in>83568</in>
						<out>84262</out>
						<pproTicksIn>849104363520000</pproTicksIn>
						<pproTicksOut>856155847680000</pproTicksOut>
						<file id="file-67"/>
						<sourcetrack>
							<mediatype>audio</mediatype>
							<trackindex>1</trackindex>
						</sourcetrack>
						<logginginfo>
							<description></description>
							<scene></scene>
							<shottake></shottake>
							<lognote></lognote>
						</logginginfo>
						<labels>
							<label2>Caribbean</label2>
						</labels>
					</clipitem>
					<clipitem id="clipitem-2285" premiereChannelType="mono">
						<masterclipid>masterclip-71</masterclipid>
						<name>VB 2 V_03.wav</name>
						<enabled>TRUE</enabled>
						<duration>171138</duration>
						<rate>
							<timebase>25</timebase>
							<ntsc>FALSE</ntsc>
						</rate>
						<start>16898</start>
						<end>16971</end>
						<in>84282</in>
						<out>84355</out>
						<pproTicksIn>856359060480000</pproTicksIn>
						<pproTicksOut>857100787200000</pproTicksOut>
						<file id="file-67"/>
						<sourcetrack>
							<mediatype>audio</mediatype>
							<trackindex>1</trackindex>
						</sourcetrack>
						<logginginfo>
							<description></description>
							<scene></scene>
							<shottake></shottake>
							<lognote></lognote>
						</logginginfo>
						<labels>
							<label2>Caribbean</label2>
						</labels>
					</clipitem>
					<clipitem id="clipitem-2286" premiereChannelType="mono">
						<masterclipid>masterclip-71</masterclipid>
						<name>VB 2 V_03.wav</name>
						<enabled>TRUE</enabled>
						<duration>171138</duration>
						<rate>
							<timebase>25</timebase>
							<ntsc>FALSE</ntsc>
						</rate>
						<start>16971</start>
						<end>17329</end>
						<in>84400</in>
						<out>84758</out>
						<pproTicksIn>857558016000000</pproTicksIn>
						<pproTicksOut>861195525120000</pproTicksOut>
						<file id="file-67"/>
						<sourcetrack>
							<mediatype>audio</mediatype>
							<trackindex>1</trackindex>
						</sourcetrack>
						<logginginfo>
							<description></description>
							<scene></scene>
							<shottake></shottake>
							<lognote></lognote>
						</logginginfo>
						<labels>
							<label2>Caribbean</label2>
						</labels>
					</clipitem>
					<clipitem id="clipitem-2287" premiereChannelType="mono">
						<masterclipid>masterclip-71</masterclipid>
						<name>VB 2 V_03.wav</name>
						<enabled>TRUE</enabled>
						<duration>171138</duration>
						<rate>
							<timebase>25</timebase>
							<ntsc>FALSE</ntsc>
						</rate>
						<start>17329</start>
						<end>17417</end>
						<in>85268</in>
						<out>85356</out>
						<pproTicksIn>866377451520000</pproTicksIn>
						<pproTicksOut>867271587840000</pproTicksOut>
						<file id="file-67"/>
						<sourcetrack>
							<mediatype>audio</mediatype>
							<trackindex>1</trackindex>
						</sourcetrack>
						<logginginfo>
							<description></description>
							<scene></scene>
							<shottake></shottake>
							<lognote></lognote>
						</logginginfo>
						<labels>
							<label2>Caribbean</label2>
						</labels>
					</clipitem>
					<clipitem id="clipitem-2288" premiereChannelType="mono">
						<masterclipid>masterclip-71</masterclipid>
						<name>VB 2 V_03.wav</name>
						<enabled>TRUE</enabled>
						<duration>171138</duration>
						<rate>
							<timebase>25</timebase>
							<ntsc>FALSE</ntsc>
						</rate>
						<start>17417</start>
						<end>17611</end>
						<in>85074</in>
						<out>85268</out>
						<pproTicksIn>864406287360000</pproTicksIn>
						<pproTicksOut>866377451520000</pproTicksOut>
						<file id="file-67"/>
						<sourcetrack>
							<mediatype>audio</mediatype>
							<trackindex>1</trackindex>
						</sourcetrack>
						<logginginfo>
							<description></description>
							<scene></scene>
							<shottake></shottake>
							<lognote></lognote>
						</logginginfo>
						<labels>
							<label2>Caribbean</label2>
						</labels>
					</clipitem>
					<clipitem id="clipitem-2289" premiereChannelType="mono">
						<masterclipid>masterclip-71</masterclipid>
						<name>VB 2 V_03.wav</name>
						<enabled>TRUE</enabled>
						<duration>171138</duration>
						<rate>
							<timebase>25</timebase>
							<ntsc>FALSE</ntsc>
						</rate>
						<start>17611</start>
						<end>17830</end>
						<in>85560</in>
						<out>85779</out>
						<pproTicksIn>869344358400000</pproTicksIn>
						<pproTicksOut>871569538560000</pproTicksOut>
						<file id="file-67"/>
						<sourcetrack>
							<mediatype>audio</mediatype>
							<trackindex>1</trackindex>
						</sourcetrack>
						<logginginfo>
							<description></description>
							<scene></scene>
							<shottake></shottake>
							<lognote></lognote>
						</logginginfo>
						<labels>
							<label2>Caribbean</label2>
						</labels>
					</clipitem>
					<clipitem id="clipitem-2290" premiereChannelType="mono">
						<masterclipid>masterclip-71</masterclipid>
						<name>VB 2 V_03.wav</name>
						<enabled>TRUE</enabled>
						<duration>171138</duration>
						<rate>
							<timebase>25</timebase>
							<ntsc>FALSE</ntsc>
						</rate>
						<start>17830</start>
						<end>17876</end>
						<in>83479</in>
						<out>83525</out>
						<pproTicksIn>848200066560000</pproTicksIn>
						<pproTicksOut>848667456000000</pproTicksOut>
						<file id="file-67"/>
						<sourcetrack>
							<mediatype>audio</mediatype>
							<trackindex>1</trackindex>
						</sourcetrack>
						<logginginfo>
							<description></description>
							<scene></scene>
							<shottake></shottake>
							<lognote></lognote>
						</logginginfo>
						<labels>
							<label2>Caribbean</label2>
						</labels>
					</clipitem>
					<clipitem id="clipitem-2291" premiereChannelType="mono">
						<masterclipid>masterclip-71</masterclipid>
						<name>VB 2 V_03.wav</name>
						<enabled>TRUE</enabled>
						<duration>171138</duration>
						<rate>
							<timebase>25</timebase>
							<ntsc>FALSE</ntsc>
						</rate>
						<start>17876</start>
						<end>18012</end>
						<in>85841</in>
						<out>85977</out>
						<pproTicksIn>872199498240000</pproTicksIn>
						<pproTicksOut>873581345280000</pproTicksOut>
						<file id="file-67"/>
						<sourcetrack>
							<mediatype>audio</mediatype>
							<trackindex>1</trackindex>
						</sourcetrack>
						<logginginfo>
							<description></description>
							<scene></scene>
							<shottake></shottake>
							<lognote></lognote>
						</logginginfo>
						<labels>
							<label2>Caribbean</label2>
						</labels>
					</clipitem>
					<clipitem id="clipitem-2292" premiereChannelType="mono">
						<masterclipid>masterclip-71</masterclipid>
						<name>VB 2 V_03.wav</name>
						<enabled>TRUE</enabled>
						<duration>171138</duration>
						<rate>
							<timebase>25</timebase>
							<ntsc>FALSE</ntsc>
						</rate>
						<start>18012</start>
						<end>18158</end>
						<in>116811</in>
						<out>116957</out>
						<pproTicksIn>1186874519040000</pproTicksIn>
						<pproTicksOut>1188357972480000</pproTicksOut>
						<file id="file-67"/>
						<sourcetrack>
							<mediatype>audio</mediatype>
							<trackindex>1</trackindex>
						</sourcetrack>
						<logginginfo>
							<description></description>
							<scene></scene>
							<shottake></shottake>
							<lognote></lognote>
						</logginginfo>
						<labels>
							<label2>Caribbean</label2>
						</labels>
					</clipitem>
					<clipitem id="clipitem-2293" premiereChannelType="mono">
						<masterclipid>masterclip-71</masterclipid>
						<name>VB 2 V_03.wav</name>
						<enabled>TRUE</enabled>
						<duration>171138</duration>
						<rate>
							<timebase>25</timebase>
							<ntsc>FALSE</ntsc>
						</rate>
						<start>18158</start>
						<end>18332</end>
						<in>86150</in>
						<out>86324</out>
						<pproTicksIn>875339136000000</pproTicksIn>
						<pproTicksOut>877107087360000</pproTicksOut>
						<file id="file-67"/>
						<sourcetrack>
							<mediatype>audio</mediatype>
							<trackindex>1</trackindex>
						</sourcetrack>
						<logginginfo>
							<description></description>
							<scene></scene>
							<shottake></shottake>
							<lognote></lognote>
						</logginginfo>
						<labels>
							<label2>Caribbean</label2>
						</labels>
					</clipitem>
					<clipitem id="clipitem-2294" premiereChannelType="mono">
						<masterclipid>masterclip-71</masterclipid>
						<name>VB 2 V_03.wav</name>
						<enabled>TRUE</enabled>
						<duration>171138</duration>
						<rate>
							<timebase>25</timebase>
							<ntsc>FALSE</ntsc>
						</rate>
						<start>18332</start>
						<end>22265</end>
						<in>87920</in>
						<out>91853</out>
						<pproTicksIn>893323468800000</pproTicksIn>
						<pproTicksOut>933285265920000</pproTicksOut>
						<file id="file-67"/>
						<sourcetrack>
							<mediatype>audio</mediatype>
							<trackindex>1</trackindex>
						</sourcetrack>
						<logginginfo>
							<description></description>
							<scene></scene>
							<shottake></shottake>
							<lognote></lognote>
						</logginginfo>
						<labels>
							<label2>Caribbean</label2>
						</labels>
					</clipitem>
					<clipitem id="clipitem-2295" premiereChannelType="mono">
						<masterclipid>masterclip-71</masterclipid>
						<name>VB 2 V_03.wav</name>
						<enabled>TRUE</enabled>
						<duration>171138</duration>
						<rate>
							<timebase>25</timebase>
							<ntsc>FALSE</ntsc>
						</rate>
						<start>22265</start>
						<end>23367</end>
						<in>91952</in>
						<out>93054</out>
						<pproTicksIn>934291169280000</pproTicksIn>
						<pproTicksOut>945488194560000</pproTicksOut>
						<file id="file-67"/>
						<sourcetrack>
							<mediatype>audio</mediatype>
							<trackindex>1</trackindex>
						</sourcetrack>
						<logginginfo>
							<description></description>
							<scene></scene>
							<shottake></shottake>
							<lognote></lognote>
						</logginginfo>
						<labels>
							<label2>Caribbean</label2>
						</labels>
					</clipitem>
					<clipitem id="clipitem-2296" premiereChannelType="mono">
						<masterclipid>masterclip-71</masterclipid>
						<name>VB 2 V_03.wav</name>
						<enabled>TRUE</enabled>
						<duration>171138</duration>
						<rate>
							<timebase>25</timebase>
							<ntsc>FALSE</ntsc>
						</rate>
						<start>23367</start>
						<end>23724</end>
						<in>93377</in>
						<out>93734</out>
						<pproTicksIn>948770081280000</pproTicksIn>
						<pproTicksOut>952397429760000</pproTicksOut>
						<file id="file-67"/>
						<sourcetrack>
							<mediatype>audio</mediatype>
							<trackindex>1</trackindex>
						</sourcetrack>
						<logginginfo>
							<description></description>
							<scene></scene>
							<shottake></shottake>
							<lognote></lognote>
						</logginginfo>
						<labels>
							<label2>Caribbean</label2>
						</labels>
					</clipitem>
					<clipitem id="clipitem-2297" premiereChannelType="mono">
						<masterclipid>masterclip-71</masterclipid>
						<name>VB 2 V_03.wav</name>
						<enabled>TRUE</enabled>
						<duration>171138</duration>
						<rate>
							<timebase>25</timebase>
							<ntsc>FALSE</ntsc>
						</rate>
						<start>23724</start>
						<end>24114</end>
						<in>94350</in>
						<out>94740</out>
						<pproTicksIn>958656384000000</pproTicksIn>
						<pproTicksOut>962619033600000</pproTicksOut>
						<file id="file-67"/>
						<sourcetrack>
							<mediatype>audio</mediatype>
							<trackindex>1</trackindex>
						</sourcetrack>
						<logginginfo>
							<description></description>
							<scene></scene>
							<shottake></shottake>
							<lognote></lognote>
						</logginginfo>
						<labels>
							<label2>Caribbean</label2>
						</labels>
					</clipitem>
					<clipitem id="clipitem-2298" premiereChannelType="mono">
						<masterclipid>masterclip-71</masterclipid>
						<name>VB 2 V_03.wav</name>
						<enabled>TRUE</enabled>
						<duration>171138</duration>
						<rate>
							<timebase>25</timebase>
							<ntsc>FALSE</ntsc>
						</rate>
						<start>24114</start>
						<end>24241</end>
						<in>94797</in>
						<out>94924</out>
						<pproTicksIn>963198190080000</pproTicksIn>
						<pproTicksOut>964488591360000</pproTicksOut>
						<file id="file-67"/>
						<sourcetrack>
							<mediatype>audio</mediatype>
							<trackindex>1</trackindex>
						</sourcetrack>
						<logginginfo>
							<description></description>
							<scene></scene>
							<shottake></shottake>
							<lognote></lognote>
						</logginginfo>
						<labels>
							<label2>Caribbean</label2>
						</labels>
					</clipitem>
					<clipitem id="clipitem-2299" premiereChannelType="mono">
						<masterclipid>masterclip-71</masterclipid>
						<name>VB 2 V_03.wav</name>
						<enabled>TRUE</enabled>
						<duration>171138</duration>
						<rate>
							<timebase>25</timebase>
							<ntsc>FALSE</ntsc>
						</rate>
						<start>24241</start>
						<end>24388</end>
						<in>95094</in>
						<out>95241</out>
						<pproTicksIn>966215900160000</pproTicksIn>
						<pproTicksOut>967709514240000</pproTicksOut>
						<file id="file-67"/>
						<sourcetrack>
							<mediatype>audio</mediatype>
							<trackindex>1</trackindex>
						</sourcetrack>
						<logginginfo>
							<description></description>
							<scene></scene>
							<shottake></shottake>
							<lognote></lognote>
						</logginginfo>
						<labels>
							<label2>Caribbean</label2>
						</labels>
					</clipitem>
					<clipitem id="clipitem-2300" premiereChannelType="mono">
						<masterclipid>masterclip-71</masterclipid>
						<name>VB 2 V_03.wav</name>
						<enabled>TRUE</enabled>
						<duration>171138</duration>
						<rate>
							<timebase>25</timebase>
							<ntsc>FALSE</ntsc>
						</rate>
						<start>24388</start>
						<end>24600</end>
						<in>95265</in>
						<out>95477</out>
						<pproTicksIn>967953369600000</pproTicksIn>
						<pproTicksOut>970107425280000</pproTicksOut>
						<file id="file-67"/>
						<sourcetrack>
							<mediatype>audio</mediatype>
							<trackindex>1</trackindex>
						</sourcetrack>
						<logginginfo>
							<description></description>
							<scene></scene>
							<shottake></shottake>
							<lognote></lognote>
						</logginginfo>
						<labels>
							<label2>Caribbean</label2>
						</labels>
					</clipitem>
					<clipitem id="clipitem-2301" premiereChannelType="mono">
						<masterclipid>masterclip-71</masterclipid>
						<name>VB 2 V_03.wav</name>
						<enabled>TRUE</enabled>
						<duration>171138</duration>
						<rate>
							<timebase>25</timebase>
							<ntsc>FALSE</ntsc>
						</rate>
						<start>24600</start>
						<end>24872</end>
						<in>95504</in>
						<out>95776</out>
						<pproTicksIn>970381762560000</pproTicksIn>
						<pproTicksOut>973145456640000</pproTicksOut>
						<file id="file-67"/>
						<sourcetrack>
							<mediatype>audio</mediatype>
							<trackindex>1</trackindex>
						</sourcetrack>
						<logginginfo>
							<description></description>
							<scene></scene>
							<shottake></shottake>
							<lognote></lognote>
						</logginginfo>
						<labels>
							<label2>Caribbean</label2>
						</labels>
					</clipitem>
					<clipitem id="clipitem-2302" premiereChannelType="mono">
						<masterclipid>masterclip-71</masterclipid>
						<name>VB 2 V_03.wav</name>
						<enabled>TRUE</enabled>
						<duration>171138</duration>
						<rate>
							<timebase>25</timebase>
							<ntsc>FALSE</ntsc>
						</rate>
						<start>24872</start>
						<end>26291</end>
						<in>95789</in>
						<out>97208</out>
						<pproTicksIn>973277544960000</pproTicksIn>
						<pproTicksOut>987695493120000</pproTicksOut>
						<file id="file-67"/>
						<sourcetrack>
							<mediatype>audio</mediatype>
							<trackindex>1</trackindex>
						</sourcetrack>
						<logginginfo>
							<description></description>
							<scene></scene>
							<shottake></shottake>
							<lognote></lognote>
						</logginginfo>
						<labels>
							<label2>Caribbean</label2>
						</labels>
					</clipitem>
					<clipitem id="clipitem-2303" premiereChannelType="mono">
						<masterclipid>masterclip-71</masterclipid>
						<name>VB 2 V_03.wav</name>
						<enabled>TRUE</enabled>
						<duration>171138</duration>
						<rate>
							<timebase>25</timebase>
							<ntsc>FALSE</ntsc>
						</rate>
						<start>26291</start>
						<end>26387</end>
						<in>97273</in>
						<out>97369</out>
						<pproTicksIn>988355934720000</pproTicksIn>
						<pproTicksOut>989331356160000</pproTicksOut>
						<file id="file-67"/>
						<sourcetrack>
							<mediatype>audio</mediatype>
							<trackindex>1</trackindex>
						</sourcetrack>
						<logginginfo>
							<description></description>
							<scene></scene>
							<shottake></shottake>
							<lognote></lognote>
						</logginginfo>
						<labels>
							<label2>Caribbean</label2>
						</labels>
					</clipitem>
					<clipitem id="clipitem-2304" premiereChannelType="mono">
						<masterclipid>masterclip-71</masterclipid>
						<name>VB 2 V_03.wav</name>
						<enabled>TRUE</enabled>
						<duration>171138</duration>
						<rate>
							<timebase>25</timebase>
							<ntsc>FALSE</ntsc>
						</rate>
						<start>26387</start>
						<end>27111</end>
						<in>97523</in>
						<out>98247</out>
						<pproTicksIn>990896094720000</pproTicksIn>
						<pproTicksOut>998252398080000</pproTicksOut>
						<file id="file-67"/>
						<sourcetrack>
							<mediatype>audio</mediatype>
							<trackindex>1</trackindex>
						</sourcetrack>
						<logginginfo>
							<description></description>
							<scene></scene>
							<shottake></shottake>
							<lognote></lognote>
						</logginginfo>
						<labels>
							<label2>Caribbean</label2>
						</labels>
					</clipitem>
					<clipitem id="clipitem-2305" premiereChannelType="mono">
						<masterclipid>masterclip-71</masterclipid>
						<name>VB 2 V_03.wav</name>
						<enabled>TRUE</enabled>
						<duration>171138</duration>
						<rate>
							<timebase>25</timebase>
							<ntsc>FALSE</ntsc>
						</rate>
						<start>27111</start>
						<end>27316</end>
						<in>98260</in>
						<out>98465</out>
						<pproTicksIn>998384486400000</pproTicksIn>
						<pproTicksOut>1000467417600000</pproTicksOut>
						<file id="file-67"/>
						<sourcetrack>
							<mediatype>audio</mediatype>
							<trackindex>1</trackindex>
						</sourcetrack>
						<logginginfo>
							<description></description>
							<scene></scene>
							<shottake></shottake>
							<lognote></lognote>
						</logginginfo>
						<labels>
							<label2>Caribbean</label2>
						</labels>
					</clipitem>
					<clipitem id="clipitem-2306" premiereChannelType="mono">
						<masterclipid>masterclip-71</masterclipid>
						<name>VB 2 V_03.wav</name>
						<enabled>TRUE</enabled>
						<duration>171138</duration>
						<rate>
							<timebase>25</timebase>
							<ntsc>FALSE</ntsc>
						</rate>
						<start>27316</start>
						<end>27702</end>
						<in>98958</in>
						<out>99344</out>
						<pproTicksIn>1005476613120000</pproTicksIn>
						<pproTicksOut>1009398620160000</pproTicksOut>
						<file id="file-67"/>
						<sourcetrack>
							<mediatype>audio</mediatype>
							<trackindex>1</trackindex>
						</sourcetrack>
						<logginginfo>
							<description></description>
							<scene></scene>
							<shottake></shottake>
							<lognote></lognote>
						</logginginfo>
						<labels>
							<label2>Caribbean</label2>
						</labels>
					</clipitem>
					<clipitem id="clipitem-2307" premiereChannelType="mono">
						<masterclipid>masterclip-71</masterclipid>
						<name>VB 2 V_03.wav</name>
						<enabled>TRUE</enabled>
						<duration>171138</duration>
						<rate>
							<timebase>25</timebase>
							<ntsc>FALSE</ntsc>
						</rate>
						<start>27702</start>
						<end>27789</end>
						<in>99640</in>
						<out>99727</out>
						<pproTicksIn>1012406169600000</pproTicksIn>
						<pproTicksOut>1013290145280000</pproTicksOut>
						<file id="file-67"/>
						<sourcetrack>
							<mediatype>audio</mediatype>
							<trackindex>1</trackindex>
						</sourcetrack>
						<logginginfo>
							<description></description>
							<scene></scene>
							<shottake></shottake>
							<lognote></lognote>
						</logginginfo>
						<labels>
							<label2>Caribbean</label2>
						</labels>
					</clipitem>
					<clipitem id="clipitem-2308" premiereChannelType="mono">
						<masterclipid>masterclip-71</masterclipid>
						<name>VB 2 V_03.wav</name>
						<enabled>TRUE</enabled>
						<duration>171138</duration>
						<rate>
							<timebase>25</timebase>
							<ntsc>FALSE</ntsc>
						</rate>
						<start>27789</start>
						<end>29601</end>
						<in>99831</in>
						<out>101643</out>
						<pproTicksIn>1014346851840000</pproTicksIn>
						<pproTicksOut>1032757931520000</pproTicksOut>
						<file id="file-67"/>
						<sourcetrack>
							<mediatype>audio</mediatype>
							<trackindex>1</trackindex>
						</sourcetrack>
						<logginginfo>
							<description></description>
							<scene></scene>
							<shottake></shottake>
							<lognote></lognote>
						</logginginfo>
						<labels>
							<label2>Caribbean</label2>
						</labels>
					</clipitem>
					<clipitem id="clipitem-2309" premiereChannelType="mono">
						<masterclipid>masterclip-71</masterclipid>
						<name>VB 2 V_03.wav</name>
						<enabled>TRUE</enabled>
						<duration>171138</duration>
						<rate>
							<timebase>25</timebase>
							<ntsc>FALSE</ntsc>
						</rate>
						<start>29601</start>
						<end>29693</end>
						<in>102540</in>
						<out>102632</out>
						<pproTicksIn>1041872025600000</pproTicksIn>
						<pproTicksOut>1042806804480000</pproTicksOut>
						<file id="file-67"/>
						<sourcetrack>
							<mediatype>audio</mediatype>
							<trackindex>1</trackindex>
						</sourcetrack>
						<logginginfo>
							<description></description>
							<scene></scene>
							<shottake></shottake>
							<lognote></lognote>
						</logginginfo>
						<labels>
							<label2>Caribbean</label2>
						</labels>
					</clipitem>
					<clipitem id="clipitem-2310" premiereChannelType="mono">
						<masterclipid>masterclip-71</masterclipid>
						<name>VB 2 V_03.wav</name>
						<enabled>TRUE</enabled>
						<duration>171138</duration>
						<rate>
							<timebase>25</timebase>
							<ntsc>FALSE</ntsc>
						</rate>
						<start>29693</start>
						<end>29760</end>
						<in>103317</in>
						<out>103384</out>
						<pproTicksIn>1049766842880000</pproTicksIn>
						<pproTicksOut>1050447605760000</pproTicksOut>
						<file id="file-67"/>
						<sourcetrack>
							<mediatype>audio</mediatype>
							<trackindex>1</trackindex>
						</sourcetrack>
						<logginginfo>
							<description></description>
							<scene></scene>
							<shottake></shottake>
							<lognote></lognote>
						</logginginfo>
						<labels>
							<label2>Caribbean</label2>
						</labels>
					</clipitem>
					<clipitem id="clipitem-2311" premiereChannelType="mono">
						<masterclipid>masterclip-71</masterclipid>
						<name>VB 2 V_03.wav</name>
						<enabled>TRUE</enabled>
						<duration>171138</duration>
						<rate>
							<timebase>25</timebase>
							<ntsc>FALSE</ntsc>
						</rate>
						<start>29760</start>
						<end>29774</end>
						<in>103438</in>
						<out>103452</out>
						<pproTicksIn>1050996280320000</pproTicksIn>
						<pproTicksOut>1051138529280000</pproTicksOut>
						<file id="file-67"/>
						<sourcetrack>
							<mediatype>audio</mediatype>
							<trackindex>1</trackindex>
						</sourcetrack>
						<logginginfo>
							<description></description>
							<scene></scene>
							<shottake></shottake>
							<lognote></lognote>
						</logginginfo>
						<labels>
							<label2>Caribbean</label2>
						</labels>
					</clipitem>
					<clipitem id="clipitem-2312" premiereChannelType="mono">
						<masterclipid>masterclip-71</masterclipid>
						<name>VB 2 V_03.wav</name>
						<enabled>TRUE</enabled>
						<duration>171138</duration>
						<rate>
							<timebase>25</timebase>
							<ntsc>FALSE</ntsc>
						</rate>
						<start>29774</start>
						<end>29865</end>
						<in>107326</in>
						<out>107417</out>
						<pproTicksIn>1090500848640000</pproTicksIn>
						<pproTicksOut>1091425466880000</pproTicksOut>
						<file id="file-67"/>
						<sourcetrack>
							<mediatype>audio</mediatype>
							<trackindex>1</trackindex>
						</sourcetrack>
						<logginginfo>
							<description></description>
							<scene></scene>
							<shottake></shottake>
							<lognote></lognote>
						</logginginfo>
						<labels>
							<label2>Caribbean</label2>
						</labels>
					</clipitem>
					<clipitem id="clipitem-2313" premiereChannelType="mono">
						<masterclipid>masterclip-71</masterclipid>
						<name>VB 2 V_03.wav</name>
						<enabled>TRUE</enabled>
						<duration>171138</duration>
						<rate>
							<timebase>25</timebase>
							<ntsc>FALSE</ntsc>
						</rate>
						<start>29865</start>
						<end>30769</end>
						<in>107708</in>
						<out>108612</out>
						<pproTicksIn>1094382213120000</pproTicksIn>
						<pproTicksOut>1103567431680000</pproTicksOut>
						<file id="file-67"/>
						<sourcetrack>
							<mediatype>audio</mediatype>
							<trackindex>1</trackindex>
						</sourcetrack>
						<logginginfo>
							<description></description>
							<scene></scene>
							<shottake></shottake>
							<lognote></lognote>
						</logginginfo>
						<labels>
							<label2>Caribbean</label2>
						</labels>
					</clipitem>
					<clipitem id="clipitem-2314" premiereChannelType="mono">
						<masterclipid>masterclip-71</masterclipid>
						<name>VB 2 V_03.wav</name>
						<enabled>TRUE</enabled>
						<duration>171138</duration>
						<rate>
							<timebase>25</timebase>
							<ntsc>FALSE</ntsc>
						</rate>
						<start>30769</start>
						<end>30880</end>
						<in>108644</in>
						<out>108755</out>
						<pproTicksIn>1103892572160000</pproTicksIn>
						<pproTicksOut>1105020403200000</pproTicksOut>
						<file id="file-67"/>
						<sourcetrack>
							<mediatype>audio</mediatype>
							<trackindex>1</trackindex>
						</sourcetrack>
						<logginginfo>
							<description></description>
							<scene></scene>
							<shottake></shottake>
							<lognote></lognote>
						</logginginfo>
						<labels>
							<label2>Caribbean</label2>
						</labels>
					</clipitem>
					<clipitem id="clipitem-2315" premiereChannelType="mono">
						<masterclipid>masterclip-71</masterclipid>
						<name>VB 2 V_03.wav</name>
						<enabled>TRUE</enabled>
						<duration>171138</duration>
						<rate>
							<timebase>25</timebase>
							<ntsc>FALSE</ntsc>
						</rate>
						<start>30880</start>
						<end>31513</end>
						<in>108776</in>
						<out>109409</out>
						<pproTicksIn>1105233776640000</pproTicksIn>
						<pproTicksOut>1111665461760000</pproTicksOut>
						<file id="file-67"/>
						<sourcetrack>
							<mediatype>audio</mediatype>
							<trackindex>1</trackindex>
						</sourcetrack>
						<logginginfo>
							<description></description>
							<scene></scene>
							<shottake></shottake>
							<lognote></lognote>
						</logginginfo>
						<labels>
							<label2>Caribbean</label2>
						</labels>
					</clipitem>
					<clipitem id="clipitem-2316" premiereChannelType="mono">
						<masterclipid>masterclip-71</masterclipid>
						<name>VB 2 V_03.wav</name>
						<enabled>TRUE</enabled>
						<duration>171138</duration>
						<rate>
							<timebase>25</timebase>
							<ntsc>FALSE</ntsc>
						</rate>
						<start>31513</start>
						<end>31909</end>
						<in>109447</in>
						<out>109843</out>
						<pproTicksIn>1112051566080000</pproTicksIn>
						<pproTicksOut>1116075179520000</pproTicksOut>
						<file id="file-67"/>
						<sourcetrack>
							<mediatype>audio</mediatype>
							<trackindex>1</trackindex>
						</sourcetrack>
						<logginginfo>
							<description></description>
							<scene></scene>
							<shottake></shottake>
							<lognote></lognote>
						</logginginfo>
						<labels>
							<label2>Caribbean</label2>
						</labels>
					</clipitem>
					<clipitem id="clipitem-2317" premiereChannelType="mono">
						<masterclipid>masterclip-71</masterclipid>
						<name>VB 2 V_03.wav</name>
						<enabled>TRUE</enabled>
						<duration>171138</duration>
						<rate>
							<timebase>25</timebase>
							<ntsc>FALSE</ntsc>
						</rate>
						<start>31909</start>
						<end>32128</end>
						<in>109926</in>
						<out>110145</out>
						<pproTicksIn>1116918512640000</pproTicksIn>
						<pproTicksOut>1119143692800000</pproTicksOut>
						<file id="file-67"/>
						<sourcetrack>
							<mediatype>audio</mediatype>
							<trackindex>1</trackindex>
						</sourcetrack>
						<logginginfo>
							<description></description>
							<scene></scene>
							<shottake></shottake>
							<lognote></lognote>
						</logginginfo>
						<labels>
							<label2>Caribbean</label2>
						</labels>
					</clipitem>
					<clipitem id="clipitem-2318" premiereChannelType="mono">
						<masterclipid>masterclip-71</masterclipid>
						<name>VB 2 V_03.wav</name>
						<enabled>TRUE</enabled>
						<duration>171138</duration>
						<rate>
							<timebase>25</timebase>
							<ntsc>FALSE</ntsc>
						</rate>
						<start>32128</start>
						<end>32853</end>
						<in>111277</in>
						<out>112002</out>
						<pproTicksIn>1130645537280000</pproTicksIn>
						<pproTicksOut>1138012001280000</pproTicksOut>
						<file id="file-67"/>
						<sourcetrack>
							<mediatype>audio</mediatype>
							<trackindex>1</trackindex>
						</sourcetrack>
						<logginginfo>
							<description></description>
							<scene></scene>
							<shottake></shottake>
							<lognote></lognote>
						</logginginfo>
						<labels>
							<label2>Caribbean</label2>
						</labels>
					</clipitem>
					<clipitem id="clipitem-2319" premiereChannelType="mono">
						<masterclipid>masterclip-71</masterclipid>
						<name>VB 2 V_03.wav</name>
						<enabled>TRUE</enabled>
						<duration>171138</duration>
						<rate>
							<timebase>25</timebase>
							<ntsc>FALSE</ntsc>
						</rate>
						<start>32853</start>
						<end>32890</end>
						<in>112002</in>
						<out>112039</out>
						<pproTicksIn>1138012001280000</pproTicksIn>
						<pproTicksOut>1138387944960000</pproTicksOut>
						<file id="file-67"/>
						<sourcetrack>
							<mediatype>audio</mediatype>
							<trackindex>1</trackindex>
						</sourcetrack>
						<logginginfo>
							<description></description>
							<scene></scene>
							<shottake></shottake>
							<lognote></lognote>
						</logginginfo>
						<labels>
							<label2>Caribbean</label2>
						</labels>
					</clipitem>
					<clipitem id="clipitem-2320" premiereChannelType="mono">
						<masterclipid>masterclip-71</masterclipid>
						<name>VB 2 V_03.wav</name>
						<enabled>TRUE</enabled>
						<duration>171138</duration>
						<rate>
							<timebase>25</timebase>
							<ntsc>FALSE</ntsc>
						</rate>
						<start>32890</start>
						<end>33281</end>
						<in>115277</in>
						<out>115668</out>
						<pproTicksIn>1171288097280000</pproTicksIn>
						<pproTicksOut>1175260907520000</pproTicksOut>
						<file id="file-67"/>
						<sourcetrack>
							<mediatype>audio</mediatype>
							<trackindex>1</trackindex>
						</sourcetrack>
						<logginginfo>
							<description></description>
							<scene></scene>
							<shottake></shottake>
							<lognote></lognote>
						</logginginfo>
						<labels>
							<label2>Caribbean</label2>
						</labels>
					</clipitem>
					<clipitem id="clipitem-2321" premiereChannelType="mono">
						<masterclipid>masterclip-71</masterclipid>
						<name>VB 2 V_03.wav</name>
						<enabled>TRUE</enabled>
						<duration>171138</duration>
						<rate>
							<timebase>25</timebase>
							<ntsc>FALSE</ntsc>
						</rate>
						<start>33281</start>
						<end>33357</end>
						<in>116203</in>
						<out>116279</out>
						<pproTicksIn>1180696849920000</pproTicksIn>
						<pproTicksOut>1181469058560000</pproTicksOut>
						<file id="file-67"/>
						<sourcetrack>
							<mediatype>audio</mediatype>
							<trackindex>1</trackindex>
						</sourcetrack>
						<logginginfo>
							<description></description>
							<scene></scene>
							<shottake></shottake>
							<lognote></lognote>
						</logginginfo>
						<labels>
							<label2>Caribbean</label2>
						</labels>
					</clipitem>
					<clipitem id="clipitem-2322" premiereChannelType="mono">
						<masterclipid>masterclip-71</masterclipid>
						<name>VB 2 V_03.wav</name>
						<enabled>TRUE</enabled>
						<duration>171138</duration>
						<rate>
							<timebase>25</timebase>
							<ntsc>FALSE</ntsc>
						</rate>
						<start>33357</start>
						<end>33465</end>
						<in>116298</in>
						<out>116406</out>
						<pproTicksIn>1181662110720000</pproTicksIn>
						<pproTicksOut>1182759459840000</pproTicksOut>
						<file id="file-67"/>
						<sourcetrack>
							<mediatype>audio</mediatype>
							<trackindex>1</trackindex>
						</sourcetrack>
						<logginginfo>
							<description></description>
							<scene></scene>
							<shottake></shottake>
							<lognote></lognote>
						</logginginfo>
						<labels>
							<label2>Caribbean</label2>
						</labels>
					</clipitem>
					<clipitem id="clipitem-2323" premiereChannelType="mono">
						<masterclipid>masterclip-71</masterclipid>
						<name>VB 2 V_03.wav</name>
						<enabled>TRUE</enabled>
						<duration>171138</duration>
						<rate>
							<timebase>25</timebase>
							<ntsc>FALSE</ntsc>
						</rate>
						<start>33465</start>
						<end>33766</end>
						<in>116510</in>
						<out>116811</out>
						<pproTicksIn>1183816166400000</pproTicksIn>
						<pproTicksOut>1186874519040000</pproTicksOut>
						<file id="file-67"/>
						<sourcetrack>
							<mediatype>audio</mediatype>
							<trackindex>1</trackindex>
						</sourcetrack>
						<logginginfo>
							<description></description>
							<scene></scene>
							<shottake></shottake>
							<lognote></lognote>
						</logginginfo>
						<labels>
							<label2>Caribbean</label2>
						</labels>
					</clipitem>
					<clipitem id="clipitem-2324" premiereChannelType="mono">
						<masterclipid>masterclip-71</masterclipid>
						<name>VB 2 V_03.wav</name>
						<enabled>TRUE</enabled>
						<duration>171138</duration>
						<rate>
							<timebase>25</timebase>
							<ntsc>FALSE</ntsc>
						</rate>
						<start>33766</start>
						<end>33992</end>
						<in>116811</in>
						<out>117037</out>
						<pproTicksIn>1186874519040000</pproTicksIn>
						<pproTicksOut>1189170823680000</pproTicksOut>
						<file id="file-67"/>
						<sourcetrack>
							<mediatype>audio</mediatype>
							<trackindex>1</trackindex>
						</sourcetrack>
						<logginginfo>
							<description></description>
							<scene></scene>
							<shottake></shottake>
							<lognote></lognote>
						</logginginfo>
						<labels>
							<label2>Caribbean</label2>
						</labels>
					</clipitem>
					<clipitem id="clipitem-2325" premiereChannelType="mono">
						<masterclipid>masterclip-71</masterclipid>
						<name>VB 2 V_03.wav</name>
						<enabled>TRUE</enabled>
						<duration>171138</duration>
						<rate>
							<timebase>25</timebase>
							<ntsc>FALSE</ntsc>
						</rate>
						<start>33992</start>
						<end>34035</end>
						<in>117226</in>
						<out>117269</out>
						<pproTicksIn>1191091184640000</pproTicksIn>
						<pproTicksOut>1191528092160000</pproTicksOut>
						<file id="file-67"/>
						<sourcetrack>
							<mediatype>audio</mediatype>
							<trackindex>1</trackindex>
						</sourcetrack>
						<logginginfo>
							<description></description>
							<scene></scene>
							<shottake></shottake>
							<lognote></lognote>
						</logginginfo>
						<labels>
							<label2>Caribbean</label2>
						</labels>
					</clipitem>
					<clipitem id="clipitem-2326" premiereChannelType="mono">
						<masterclipid>masterclip-71</masterclipid>
						<name>VB 2 V_03.wav</name>
						<enabled>TRUE</enabled>
						<duration>171138</duration>
						<rate>
							<timebase>25</timebase>
							<ntsc>FALSE</ntsc>
						</rate>
						<start>34035</start>
						<end>34790</end>
						<in>117633</in>
						<out>118388</out>
						<pproTicksIn>1195226565120000</pproTicksIn>
						<pproTicksOut>1202897848320000</pproTicksOut>
						<file id="file-67"/>
						<sourcetrack>
							<mediatype>audio</mediatype>
							<trackindex>1</trackindex>
						</sourcetrack>
						<logginginfo>
							<description></description>
							<scene></scene>
							<shottake></shottake>
							<lognote></lognote>
						</logginginfo>
						<labels>
							<label2>Caribbean</label2>
						</labels>
					</clipitem>
					<clipitem id="clipitem-2327" premiereChannelType="mono">
						<masterclipid>masterclip-71</masterclipid>
						<name>VB 2 V_03.wav</name>
						<enabled>TRUE</enabled>
						<duration>171138</duration>
						<rate>
							<timebase>25</timebase>
							<ntsc>FALSE</ntsc>
						</rate>
						<start>34790</start>
						<end>35299</end>
						<in>118612</in>
						<out>119121</out>
						<pproTicksIn>1205173831680000</pproTicksIn>
						<pproTicksOut>1210345597440000</pproTicksOut>
						<file id="file-67"/>
						<sourcetrack>
							<mediatype>audio</mediatype>
							<trackindex>1</trackindex>
						</sourcetrack>
						<logginginfo>
							<description></description>
							<scene></scene>
							<shottake></shottake>
							<lognote></lognote>
						</logginginfo>
						<labels>
							<label2>Caribbean</label2>
						</labels>
					</clipitem>
					<clipitem id="clipitem-2328" premiereChannelType="mono">
						<masterclipid>masterclip-71</masterclipid>
						<name>VB 2 V_03.wav</name>
						<enabled>TRUE</enabled>
						<duration>171138</duration>
						<rate>
							<timebase>25</timebase>
							<ntsc>FALSE</ntsc>
						</rate>
						<start>35299</start>
						<end>35672</end>
						<in>119201</in>
						<out>119574</out>
						<pproTicksIn>1211158448640000</pproTicksIn>
						<pproTicksOut>1214948367360000</pproTicksOut>
						<file id="file-67"/>
						<sourcetrack>
							<mediatype>audio</mediatype>
							<trackindex>1</trackindex>
						</sourcetrack>
						<logginginfo>
							<description></description>
							<scene></scene>
							<shottake></shottake>
							<lognote></lognote>
						</logginginfo>
						<labels>
							<label2>Caribbean</label2>
						</labels>
					</clipitem>
					<clipitem id="clipitem-2329" premiereChannelType="mono">
						<masterclipid>masterclip-71</masterclipid>
						<name>VB 2 V_03.wav</name>
						<enabled>TRUE</enabled>
						<duration>171138</duration>
						<rate>
							<timebase>25</timebase>
							<ntsc>FALSE</ntsc>
						</rate>
						<start>35672</start>
						<end>36434</end>
						<in>119583</in>
						<out>120345</out>
						<pproTicksIn>1215039813120000</pproTicksIn>
						<pproTicksOut>1222782220800000</pproTicksOut>
						<file id="file-67"/>
						<sourcetrack>
							<mediatype>audio</mediatype>
							<trackindex>1</trackindex>
						</sourcetrack>
						<logginginfo>
							<description></description>
							<scene></scene>
							<shottake></shottake>
							<lognote></lognote>
						</logginginfo>
						<labels>
							<label2>Caribbean</label2>
						</labels>
					</clipitem>
					<clipitem id="clipitem-2330" premiereChannelType="mono">
						<masterclipid>masterclip-71</masterclipid>
						<name>VB 2 V_03.wav</name>
						<enabled>TRUE</enabled>
						<duration>171138</duration>
						<rate>
							<timebase>25</timebase>
							<ntsc>FALSE</ntsc>
						</rate>
						<start>36434</start>
						<end>36524</end>
						<in>120539</in>
						<out>120629</out>
						<pproTicksIn>1224753384960000</pproTicksIn>
						<pproTicksOut>1225667842560000</pproTicksOut>
						<file id="file-67"/>
						<sourcetrack>
							<mediatype>audio</mediatype>
							<trackindex>1</trackindex>
						</sourcetrack>
						<logginginfo>
							<description></description>
							<scene></scene>
							<shottake></shottake>
							<lognote></lognote>
						</logginginfo>
						<labels>
							<label2>Caribbean</label2>
						</labels>
					</clipitem>
					<clipitem id="clipitem-2331" premiereChannelType="mono">
						<masterclipid>masterclip-71</masterclipid>
						<name>VB 2 V_03.wav</name>
						<enabled>TRUE</enabled>
						<duration>171138</duration>
						<rate>
							<timebase>25</timebase>
							<ntsc>FALSE</ntsc>
						</rate>
						<start>36524</start>
						<end>37155</end>
						<in>124899</in>
						<out>125530</out>
						<pproTicksIn>1269053775360000</pproTicksIn>
						<pproTicksOut>1275465139200000</pproTicksOut>
						<file id="file-67"/>
						<sourcetrack>
							<mediatype>audio</mediatype>
							<trackindex>1</trackindex>
						</sourcetrack>
						<logginginfo>
							<description></description>
							<scene></scene>
							<shottake></shottake>
							<lognote></lognote>
						</logginginfo>
						<labels>
							<label2>Caribbean</label2>
						</labels>
					</clipitem>
					<clipitem id="clipitem-2332" premiereChannelType="mono">
						<masterclipid>masterclip-71</masterclipid>
						<name>VB 2 V_03.wav</name>
						<enabled>TRUE</enabled>
						<duration>171138</duration>
						<rate>
							<timebase>25</timebase>
							<ntsc>FALSE</ntsc>
						</rate>
						<start>37732</start>
						<end>40503</end>
						<in>126107</in>
						<out>128878</out>
						<pproTicksIn>1281327828480000</pproTicksIn>
						<pproTicksOut>1309482961920000</pproTicksOut>
						<file id="file-67"/>
						<sourcetrack>
							<mediatype>audio</mediatype>
							<trackindex>1</trackindex>
						</sourcetrack>
						<logginginfo>
							<description></description>
							<scene></scene>
							<shottake></shottake>
							<lognote></lognote>
						</logginginfo>
						<labels>
							<label2>Caribbean</label2>
						</labels>
					</clipitem>
					<clipitem id="clipitem-2333" premiereChannelType="mono">
						<masterclipid>masterclip-71</masterclipid>
						<name>VB 2 V_03.wav</name>
						<enabled>TRUE</enabled>
						<duration>171138</duration>
						<rate>
							<timebase>25</timebase>
							<ntsc>FALSE</ntsc>
						</rate>
						<start>40503</start>
						<end>40839</end>
						<in>128926</in>
						<out>129262</out>
						<pproTicksIn>1309970672640000</pproTicksIn>
						<pproTicksOut>1313384647680000</pproTicksOut>
						<file id="file-67"/>
						<sourcetrack>
							<mediatype>audio</mediatype>
							<trackindex>1</trackindex>
						</sourcetrack>
						<logginginfo>
							<description></description>
							<scene></scene>
							<shottake></shottake>
							<lognote></lognote>
						</logginginfo>
						<labels>
							<label2>Caribbean</label2>
						</labels>
					</clipitem>
					<clipitem id="clipitem-2334" premiereChannelType="mono">
						<masterclipid>masterclip-71</masterclipid>
						<name>VB 2 V_03.wav</name>
						<enabled>TRUE</enabled>
						<duration>171138</duration>
						<rate>
							<timebase>25</timebase>
							<ntsc>FALSE</ntsc>
						</rate>
						<start>40839</start>
						<end>41006</end>
						<in>129262</in>
						<out>129429</out>
						<pproTicksIn>1313384647680000</pproTicksIn>
						<pproTicksOut>1315081474560000</pproTicksOut>
						<file id="file-67"/>
						<sourcetrack>
							<mediatype>audio</mediatype>
							<trackindex>1</trackindex>
						</sourcetrack>
						<logginginfo>
							<description></description>
							<scene></scene>
							<shottake></shottake>
							<lognote></lognote>
						</logginginfo>
						<labels>
							<label2>Caribbean</label2>
						</labels>
					</clipitem>
					<clipitem id="clipitem-2335" premiereChannelType="mono">
						<masterclipid>masterclip-71</masterclipid>
						<name>VB 2 V_03.wav</name>
						<enabled>TRUE</enabled>
						<duration>171138</duration>
						<rate>
							<timebase>25</timebase>
							<ntsc>FALSE</ntsc>
						</rate>
						<start>41006</start>
						<end>41144</end>
						<in>129476</in>
						<out>129614</out>
						<pproTicksIn>1315559024640000</pproTicksIn>
						<pproTicksOut>1316961192960000</pproTicksOut>
						<file id="file-67"/>
						<sourcetrack>
							<mediatype>audio</mediatype>
							<trackindex>1</trackindex>
						</sourcetrack>
						<logginginfo>
							<description></description>
							<scene></scene>
							<shottake></shottake>
							<lognote></lognote>
						</logginginfo>
						<labels>
							<label2>Caribbean</label2>
						</labels>
					</clipitem>
					<clipitem id="clipitem-2336" premiereChannelType="mono">
						<masterclipid>masterclip-71</masterclipid>
						<name>VB 2 V_03.wav</name>
						<enabled>TRUE</enabled>
						<duration>171138</duration>
						<rate>
							<timebase>25</timebase>
							<ntsc>FALSE</ntsc>
						</rate>
						<start>41144</start>
						<end>41720</end>
						<in>131417</in>
						<out>131993</out>
						<pproTicksIn>1335280826880000</pproTicksIn>
						<pproTicksOut>1341133355520000</pproTicksOut>
						<file id="file-67"/>
						<sourcetrack>
							<mediatype>audio</mediatype>
							<trackindex>1</trackindex>
						</sourcetrack>
						<logginginfo>
							<description></description>
							<scene></scene>
							<shottake></shottake>
							<lognote></lognote>
						</logginginfo>
						<labels>
							<label2>Caribbean</label2>
						</labels>
					</clipitem>
					<clipitem id="clipitem-2337" premiereChannelType="mono">
						<masterclipid>masterclip-71</masterclipid>
						<name>VB 2 V_03.wav</name>
						<enabled>TRUE</enabled>
						<duration>171138</duration>
						<rate>
							<timebase>25</timebase>
							<ntsc>FALSE</ntsc>
						</rate>
						<start>41720</start>
						<end>42122</end>
						<in>132051</in>
						<out>132453</out>
						<pproTicksIn>1341722672640000</pproTicksIn>
						<pproTicksOut>1345807249920000</pproTicksOut>
						<file id="file-67"/>
						<sourcetrack>
							<mediatype>audio</mediatype>
							<trackindex>1</trackindex>
						</sourcetrack>
						<logginginfo>
							<description></description>
							<scene></scene>
							<shottake></shottake>
							<lognote></lognote>
						</logginginfo>
						<labels>
							<label2>Caribbean</label2>
						</labels>
					</clipitem>
					<clipitem id="clipitem-2338" premiereChannelType="mono">
						<masterclipid>masterclip-71</masterclipid>
						<name>VB 2 V_03.wav</name>
						<enabled>TRUE</enabled>
						<duration>171138</duration>
						<rate>
							<timebase>25</timebase>
							<ntsc>FALSE</ntsc>
						</rate>
						<start>42122</start>
						<end>42277</end>
						<in>132657</in>
						<out>132812</out>
						<pproTicksIn>1347880020480000</pproTicksIn>
						<pproTicksOut>1349454919680000</pproTicksOut>
						<file id="file-67"/>
						<sourcetrack>
							<mediatype>audio</mediatype>
							<trackindex>1</trackindex>
						</sourcetrack>
						<logginginfo>
							<description></description>
							<scene></scene>
							<shottake></shottake>
							<lognote></lognote>
						</logginginfo>
						<labels>
							<label2>Caribbean</label2>
						</labels>
					</clipitem>
					<clipitem id="clipitem-2339" premiereChannelType="mono">
						<masterclipid>masterclip-71</masterclipid>
						<name>VB 2 V_03.wav</name>
						<enabled>TRUE</enabled>
						<duration>171138</duration>
						<rate>
							<timebase>25</timebase>
							<ntsc>FALSE</ntsc>
						</rate>
						<start>42277</start>
						<end>42347</end>
						<in>133359</in>
						<out>133429</out>
						<pproTicksIn>1355012789760000</pproTicksIn>
						<pproTicksOut>1355724034560000</pproTicksOut>
						<file id="file-67"/>
						<sourcetrack>
							<mediatype>audio</mediatype>
							<trackindex>1</trackindex>
						</sourcetrack>
						<logginginfo>
							<description></description>
							<scene></scene>
							<shottake></shottake>
							<lognote></lognote>
						</logginginfo>
						<labels>
							<label2>Caribbean</label2>
						</labels>
					</clipitem>
					<clipitem id="clipitem-2340" premiereChannelType="mono">
						<masterclipid>masterclip-71</masterclipid>
						<name>VB 2 V_03.wav</name>
						<enabled>TRUE</enabled>
						<duration>171138</duration>
						<rate>
							<timebase>25</timebase>
							<ntsc>FALSE</ntsc>
						</rate>
						<start>42347</start>
						<end>42499</end>
						<in>133852</in>
						<out>134004</out>
						<pproTicksIn>1360021985280000</pproTicksIn>
						<pproTicksOut>1361566402560000</pproTicksOut>
						<file id="file-67"/>
						<sourcetrack>
							<mediatype>audio</mediatype>
							<trackindex>1</trackindex>
						</sourcetrack>
						<logginginfo>
							<description></description>
							<scene></scene>
							<shottake></shottake>
							<lognote></lognote>
						</logginginfo>
						<labels>
							<label2>Caribbean</label2>
						</labels>
					</clipitem>
					<clipitem id="clipitem-2341" premiereChannelType="mono">
						<masterclipid>masterclip-71</masterclipid>
						<name>VB 2 V_03.wav</name>
						<enabled>TRUE</enabled>
						<duration>171138</duration>
						<rate>
							<timebase>25</timebase>
							<ntsc>FALSE</ntsc>
						</rate>
						<start>42499</start>
						<end>42832</end>
						<in>134099</in>
						<out>134432</out>
						<pproTicksIn>1362531663360000</pproTicksIn>
						<pproTicksOut>1365915156480000</pproTicksOut>
						<file id="file-67"/>
						<sourcetrack>
							<mediatype>audio</mediatype>
							<trackindex>1</trackindex>
						</sourcetrack>
						<logginginfo>
							<description></description>
							<scene></scene>
							<shottake></shottake>
							<lognote></lognote>
						</logginginfo>
						<labels>
							<label2>Caribbean</label2>
						</labels>
					</clipitem>
					<clipitem id="clipitem-2342" premiereChannelType="mono">
						<masterclipid>masterclip-71</masterclipid>
						<name>VB 2 V_03.wav</name>
						<enabled>TRUE</enabled>
						<duration>171138</duration>
						<rate>
							<timebase>25</timebase>
							<ntsc>FALSE</ntsc>
						</rate>
						<start>42832</start>
						<end>43282</end>
						<in>134992</in>
						<out>135442</out>
						<pproTicksIn>1371605114880000</pproTicksIn>
						<pproTicksOut>1376177402880000</pproTicksOut>
						<file id="file-67"/>
						<sourcetrack>
							<mediatype>audio</mediatype>
							<trackindex>1</trackindex>
						</sourcetrack>
						<logginginfo>
							<description></description>
							<scene></scene>
							<shottake></shottake>
							<lognote></lognote>
						</logginginfo>
						<labels>
							<label2>Caribbean</label2>
						</labels>
					</clipitem>
					<clipitem id="clipitem-2343" premiereChannelType="mono">
						<masterclipid>masterclip-71</masterclipid>
						<name>VB 2 V_03.wav</name>
						<enabled>TRUE</enabled>
						<duration>171138</duration>
						<rate>
							<timebase>25</timebase>
							<ntsc>FALSE</ntsc>
						</rate>
						<start>43282</start>
						<end>43553</end>
						<in>135648</in>
						<out>135919</out>
						<pproTicksIn>1378270494720000</pproTicksIn>
						<pproTicksOut>1381024028160000</pproTicksOut>
						<file id="file-67"/>
						<sourcetrack>
							<mediatype>audio</mediatype>
							<trackindex>1</trackindex>
						</sourcetrack>
						<logginginfo>
							<description></description>
							<scene></scene>
							<shottake></shottake>
							<lognote></lognote>
						</logginginfo>
						<labels>
							<label2>Caribbean</label2>
						</labels>
					</clipitem>
					<clipitem id="clipitem-2344" premiereChannelType="mono">
						<masterclipid>masterclip-71</masterclipid>
						<name>VB 2 V_03.wav</name>
						<enabled>TRUE</enabled>
						<duration>171138</duration>
						<rate>
							<timebase>25</timebase>
							<ntsc>FALSE</ntsc>
						</rate>
						<start>43553</start>
						<end>44385</end>
						<in>136003</in>
						<out>136835</out>
						<pproTicksIn>1381877521920000</pproTicksIn>
						<pproTicksOut>1390331174400000</pproTicksOut>
						<file id="file-67"/>
						<sourcetrack>
							<mediatype>audio</mediatype>
							<trackindex>1</trackindex>
						</sourcetrack>
						<logginginfo>
							<description></description>
							<scene></scene>
							<shottake></shottake>
							<lognote></lognote>
						</logginginfo>
						<labels>
							<label2>Caribbean</label2>
						</labels>
					</clipitem>
					<clipitem id="clipitem-2345" premiereChannelType="mono">
						<masterclipid>masterclip-71</masterclipid>
						<name>VB 2 V_03.wav</name>
						<enabled>TRUE</enabled>
						<duration>171138</duration>
						<rate>
							<timebase>25</timebase>
							<ntsc>FALSE</ntsc>
						</rate>
						<start>44385</start>
						<end>44583</end>
						<in>137077</in>
						<out>137275</out>
						<pproTicksIn>1392790049280000</pproTicksIn>
						<pproTicksOut>1394801856000000</pproTicksOut>
						<file id="file-67"/>
						<sourcetrack>
							<mediatype>audio</mediatype>
							<trackindex>1</trackindex>
						</sourcetrack>
						<logginginfo>
							<description></description>
							<scene></scene>
							<shottake></shottake>
							<lognote></lognote>
						</logginginfo>
						<labels>
							<label2>Caribbean</label2>
						</labels>
					</clipitem>
					<clipitem id="clipitem-2346" premiereChannelType="mono">
						<masterclipid>masterclip-71</masterclipid>
						<name>VB 2 V_03.wav</name>
						<enabled>TRUE</enabled>
						<duration>171138</duration>
						<rate>
							<timebase>25</timebase>
							<ntsc>FALSE</ntsc>
						</rate>
						<start>44583</start>
						<end>44650</end>
						<in>137376</in>
						<out>137443</out>
						<pproTicksIn>1395828080640000</pproTicksIn>
						<pproTicksOut>1396508843520000</pproTicksOut>
						<file id="file-67"/>
						<sourcetrack>
							<mediatype>audio</mediatype>
							<trackindex>1</trackindex>
						</sourcetrack>
						<logginginfo>
							<description></description>
							<scene></scene>
							<shottake></shottake>
							<lognote></lognote>
						</logginginfo>
						<labels>
							<label2>Caribbean</label2>
						</labels>
					</clipitem>
					<clipitem id="clipitem-2347" premiereChannelType="mono">
						<masterclipid>masterclip-71</masterclipid>
						<name>VB 2 V_03.wav</name>
						<enabled>TRUE</enabled>
						<duration>171138</duration>
						<rate>
							<timebase>25</timebase>
							<ntsc>FALSE</ntsc>
						</rate>
						<start>44650</start>
						<end>45287</end>
						<in>137505</in>
						<out>138142</out>
						<pproTicksIn>1397138803200000</pproTicksIn>
						<pproTicksOut>1403611130880000</pproTicksOut>
						<file id="file-67"/>
						<sourcetrack>
							<mediatype>audio</mediatype>
							<trackindex>1</trackindex>
						</sourcetrack>
						<logginginfo>
							<description></description>
							<scene></scene>
							<shottake></shottake>
							<lognote></lognote>
						</logginginfo>
						<labels>
							<label2>Caribbean</label2>
						</labels>
					</clipitem>
					<clipitem id="clipitem-2348" premiereChannelType="mono">
						<masterclipid>masterclip-71</masterclipid>
						<name>VB 2 V_03.wav</name>
						<enabled>TRUE</enabled>
						<duration>171138</duration>
						<rate>
							<timebase>25</timebase>
							<ntsc>FALSE</ntsc>
						</rate>
						<start>45287</start>
						<end>45692</end>
						<in>138274</in>
						<out>138679</out>
						<pproTicksIn>1404952335360000</pproTicksIn>
						<pproTicksOut>1409067394560000</pproTicksOut>
						<file id="file-67"/>
						<sourcetrack>
							<mediatype>audio</mediatype>
							<trackindex>1</trackindex>
						</sourcetrack>
						<logginginfo>
							<description></description>
							<scene></scene>
							<shottake></shottake>
							<lognote></lognote>
						</logginginfo>
						<labels>
							<label2>Caribbean</label2>
						</labels>
					</clipitem>
					<clipitem id="clipitem-2349" premiereChannelType="mono">
						<masterclipid>masterclip-71</masterclipid>
						<name>VB 2 V_03.wav</name>
						<enabled>TRUE</enabled>
						<duration>171138</duration>
						<rate>
							<timebase>25</timebase>
							<ntsc>FALSE</ntsc>
						</rate>
						<start>45692</start>
						<end>45923</end>
						<in>138810</in>
						<out>139041</out>
						<pproTicksIn>1410398438400000</pproTicksIn>
						<pproTicksOut>1412745546240000</pproTicksOut>
						<file id="file-67"/>
						<sourcetrack>
							<mediatype>audio</mediatype>
							<trackindex>1</trackindex>
						</sourcetrack>
						<logginginfo>
							<description></description>
							<scene></scene>
							<shottake></shottake>
							<lognote></lognote>
						</logginginfo>
						<labels>
							<label2>Caribbean</label2>
						</labels>
					</clipitem>
					<clipitem id="clipitem-2350" premiereChannelType="mono">
						<masterclipid>masterclip-71</masterclipid>
						<name>VB 2 V_03.wav</name>
						<enabled>TRUE</enabled>
						<duration>171138</duration>
						<rate>
							<timebase>25</timebase>
							<ntsc>FALSE</ntsc>
						</rate>
						<start>45923</start>
						<end>46349</end>
						<in>139073</in>
						<out>139499</out>
						<pproTicksIn>1413070686720000</pproTicksIn>
						<pproTicksOut>1417399119360000</pproTicksOut>
						<file id="file-67"/>
						<sourcetrack>
							<mediatype>audio</mediatype>
							<trackindex>1</trackindex>
						</sourcetrack>
						<logginginfo>
							<description></description>
							<scene></scene>
							<shottake></shottake>
							<lognote></lognote>
						</logginginfo>
						<labels>
							<label2>Caribbean</label2>
						</labels>
					</clipitem>
					<clipitem id="clipitem-2351" premiereChannelType="mono">
						<masterclipid>masterclip-71</masterclipid>
						<name>VB 2 V_03.wav</name>
						<enabled>TRUE</enabled>
						<duration>171138</duration>
						<rate>
							<timebase>25</timebase>
							<ntsc>FALSE</ntsc>
						</rate>
						<start>46349</start>
						<end>46455</end>
						<in>159642</in>
						<out>159748</out>
						<pproTicksIn>1622064890880000</pproTicksIn>
						<pproTicksOut>1623141918720000</pproTicksOut>
						<file id="file-67"/>
						<sourcetrack>
							<mediatype>audio</mediatype>
							<trackindex>1</trackindex>
						</sourcetrack>
						<logginginfo>
							<description></description>
							<scene></scene>
							<shottake></shottake>
							<lognote></lognote>
						</logginginfo>
						<labels>
							<label2>Caribbean</label2>
						</labels>
					</clipitem>
					<clipitem id="clipitem-2352" premiereChannelType="mono">
						<masterclipid>masterclip-71</masterclipid>
						<name>VB 2 V_03.wav</name>
						<enabled>TRUE</enabled>
						<duration>171138</duration>
						<rate>
							<timebase>25</timebase>
							<ntsc>FALSE</ntsc>
						</rate>
						<start>46455</start>
						<end>46911</end>
						<in>140048</in>
						<out>140504</out>
						<pproTicksIn>1422977310720000</pproTicksIn>
						<pproTicksOut>1427610562560000</pproTicksOut>
						<file id="file-67"/>
						<sourcetrack>
							<mediatype>audio</mediatype>
							<trackindex>1</trackindex>
						</sourcetrack>
						<logginginfo>
							<description></description>
							<scene></scene>
							<shottake></shottake>
							<lognote></lognote>
						</logginginfo>
						<labels>
							<label2>Caribbean</label2>
						</labels>
					</clipitem>
					<clipitem id="clipitem-2353" premiereChannelType="mono">
						<masterclipid>masterclip-71</masterclipid>
						<name>VB 2 V_03.wav</name>
						<enabled>TRUE</enabled>
						<duration>171138</duration>
						<rate>
							<timebase>25</timebase>
							<ntsc>FALSE</ntsc>
						</rate>
						<start>46911</start>
						<end>47138</end>
						<in>140817</in>
						<out>141044</out>
						<pproTicksIn>1430790842880000</pproTicksIn>
						<pproTicksOut>1433097308160000</pproTicksOut>
						<file id="file-67"/>
						<sourcetrack>
							<mediatype>audio</mediatype>
							<trackindex>1</trackindex>
						</sourcetrack>
						<logginginfo>
							<description></description>
							<scene></scene>
							<shottake></shottake>
							<lognote></lognote>
						</logginginfo>
						<labels>
							<label2>Caribbean</label2>
						</labels>
					</clipitem>
					<clipitem id="clipitem-2354" premiereChannelType="mono">
						<masterclipid>masterclip-71</masterclipid>
						<name>VB 2 V_03.wav</name>
						<enabled>TRUE</enabled>
						<duration>171138</duration>
						<rate>
							<timebase>25</timebase>
							<ntsc>FALSE</ntsc>
						</rate>
						<start>47138</start>
						<end>47335</end>
						<in>141203</in>
						<out>141400</out>
						<pproTicksIn>1434712849920000</pproTicksIn>
						<pproTicksOut>1436714496000000</pproTicksOut>
						<file id="file-67"/>
						<sourcetrack>
							<mediatype>audio</mediatype>
							<trackindex>1</trackindex>
						</sourcetrack>
						<logginginfo>
							<description></description>
							<scene></scene>
							<shottake></shottake>
							<lognote></lognote>
						</logginginfo>
						<labels>
							<label2>Caribbean</label2>
						</labels>
					</clipitem>
					<clipitem id="clipitem-2355" premiereChannelType="mono">
						<masterclipid>masterclip-71</masterclipid>
						<name>VB 2 V_03.wav</name>
						<enabled>TRUE</enabled>
						<duration>171138</duration>
						<rate>
							<timebase>25</timebase>
							<ntsc>FALSE</ntsc>
						</rate>
						<start>47335</start>
						<end>47513</end>
						<in>141454</in>
						<out>141632</out>
						<pproTicksIn>1437263170560000</pproTicksIn>
						<pproTicksOut>1439071764480000</pproTicksOut>
						<file id="file-67"/>
						<sourcetrack>
							<mediatype>audio</mediatype>
							<trackindex>1</trackindex>
						</sourcetrack>
						<logginginfo>
							<description></description>
							<scene></scene>
							<shottake></shottake>
							<lognote></lognote>
						</logginginfo>
						<labels>
							<label2>Caribbean</label2>
						</labels>
					</clipitem>
					<clipitem id="clipitem-2356" premiereChannelType="mono">
						<masterclipid>masterclip-71</masterclipid>
						<name>VB 2 V_03.wav</name>
						<enabled>TRUE</enabled>
						<duration>171138</duration>
						<rate>
							<timebase>25</timebase>
							<ntsc>FALSE</ntsc>
						</rate>
						<start>47513</start>
						<end>47723</end>
						<in>141671</in>
						<out>141881</out>
						<pproTicksIn>1439468029440000</pproTicksIn>
						<pproTicksOut>1441601763840000</pproTicksOut>
						<file id="file-67"/>
						<sourcetrack>
							<mediatype>audio</mediatype>
							<trackindex>1</trackindex>
						</sourcetrack>
						<logginginfo>
							<description></description>
							<scene></scene>
							<shottake></shottake>
							<lognote></lognote>
						</logginginfo>
						<labels>
							<label2>Caribbean</label2>
						</labels>
					</clipitem>
					<clipitem id="clipitem-2357" premiereChannelType="mono">
						<masterclipid>masterclip-71</masterclipid>
						<name>VB 2 V_03.wav</name>
						<enabled>TRUE</enabled>
						<duration>171138</duration>
						<rate>
							<timebase>25</timebase>
							<ntsc>FALSE</ntsc>
						</rate>
						<start>47723</start>
						<end>48040</end>
						<in>141894</in>
						<out>142211</out>
						<pproTicksIn>1441733852160000</pproTicksIn>
						<pproTicksOut>1444954775040000</pproTicksOut>
						<file id="file-67"/>
						<sourcetrack>
							<mediatype>audio</mediatype>
							<trackindex>1</trackindex>
						</sourcetrack>
						<logginginfo>
							<description></description>
							<scene></scene>
							<shottake></shottake>
							<lognote></lognote>
						</logginginfo>
						<labels>
							<label2>Caribbean</label2>
						</labels>
					</clipitem>
					<clipitem id="clipitem-2358" premiereChannelType="mono">
						<masterclipid>masterclip-71</masterclipid>
						<name>VB 2 V_03.wav</name>
						<enabled>TRUE</enabled>
						<duration>171138</duration>
						<rate>
							<timebase>25</timebase>
							<ntsc>FALSE</ntsc>
						</rate>
						<start>48040</start>
						<end>48766</end>
						<in>142351</in>
						<out>143077</out>
						<pproTicksIn>1446377264640000</pproTicksIn>
						<pproTicksOut>1453753889280000</pproTicksOut>
						<file id="file-67"/>
						<sourcetrack>
							<mediatype>audio</mediatype>
							<trackindex>1</trackindex>
						</sourcetrack>
						<logginginfo>
							<description></description>
							<scene></scene>
							<shottake></shottake>
							<lognote></lognote>
						</logginginfo>
						<labels>
							<label2>Caribbean</label2>
						</labels>
					</clipitem>
					<clipitem id="clipitem-2359" premiereChannelType="mono">
						<masterclipid>masterclip-71</masterclipid>
						<name>VB 2 V_03.wav</name>
						<enabled>TRUE</enabled>
						<duration>171138</duration>
						<rate>
							<timebase>25</timebase>
							<ntsc>FALSE</ntsc>
						</rate>
						<start>48766</start>
						<end>49706</end>
						<in>143684</in>
						<out>144624</out>
						<pproTicksIn>1459921397760000</pproTicksIn>
						<pproTicksOut>1469472399360000</pproTicksOut>
						<file id="file-67"/>
						<sourcetrack>
							<mediatype>audio</mediatype>
							<trackindex>1</trackindex>
						</sourcetrack>
						<logginginfo>
							<description></description>
							<scene></scene>
							<shottake></shottake>
							<lognote></lognote>
						</logginginfo>
						<labels>
							<label2>Caribbean</label2>
						</labels>
					</clipitem>
					<clipitem id="clipitem-2360" premiereChannelType="mono">
						<masterclipid>masterclip-71</masterclipid>
						<name>VB 2 V_03.wav</name>
						<enabled>TRUE</enabled>
						<duration>171138</duration>
						<rate>
							<timebase>25</timebase>
							<ntsc>FALSE</ntsc>
						</rate>
						<start>49706</start>
						<end>49762</end>
						<in>147186</in>
						<out>147242</out>
						<pproTicksIn>1495503959040000</pproTicksIn>
						<pproTicksOut>1496072954880000</pproTicksOut>
						<file id="file-67"/>
						<sourcetrack>
							<mediatype>audio</mediatype>
							<trackindex>1</trackindex>
						</sourcetrack>
						<logginginfo>
							<description></description>
							<scene></scene>
							<shottake></shottake>
							<lognote></lognote>
						</logginginfo>
						<labels>
							<label2>Caribbean</label2>
						</labels>
					</clipitem>
					<clipitem id="clipitem-2361" premiereChannelType="mono">
						<masterclipid>masterclip-71</masterclipid>
						<name>VB 2 V_03.wav</name>
						<enabled>TRUE</enabled>
						<duration>171138</duration>
						<rate>
							<timebase>25</timebase>
							<ntsc>FALSE</ntsc>
						</rate>
						<start>49762</start>
						<end>49948</end>
						<in>153681</in>
						<out>153867</out>
						<pproTicksIn>1561497315840000</pproTicksIn>
						<pproTicksOut>1563387194880000</pproTicksOut>
						<file id="file-67"/>
						<sourcetrack>
							<mediatype>audio</mediatype>
							<trackindex>1</trackindex>
						</sourcetrack>
						<logginginfo>
							<description></description>
							<scene></scene>
							<shottake></shottake>
							<lognote></lognote>
						</logginginfo>
						<labels>
							<label2>Caribbean</label2>
						</labels>
					</clipitem>
					<clipitem id="clipitem-2362" premiereChannelType="mono">
						<masterclipid>masterclip-71</masterclipid>
						<name>VB 2 V_03.wav</name>
						<enabled>TRUE</enabled>
						<duration>171138</duration>
						<rate>
							<timebase>25</timebase>
							<ntsc>FALSE</ntsc>
						</rate>
						<start>49948</start>
						<end>50390</end>
						<in>153946</in>
						<out>154388</out>
						<pproTicksIn>1564189885440000</pproTicksIn>
						<pproTicksOut>1568680888320000</pproTicksOut>
						<file id="file-67"/>
						<sourcetrack>
							<mediatype>audio</mediatype>
							<trackindex>1</trackindex>
						</sourcetrack>
						<logginginfo>
							<description></description>
							<scene></scene>
							<shottake></shottake>
							<lognote></lognote>
						</logginginfo>
						<labels>
							<label2>Caribbean</label2>
						</labels>
					</clipitem>
					<clipitem id="clipitem-2363" premiereChannelType="mono">
						<masterclipid>masterclip-71</masterclipid>
						<name>VB 2 V_03.wav</name>
						<enabled>TRUE</enabled>
						<duration>171138</duration>
						<rate>
							<timebase>25</timebase>
							<ntsc>FALSE</ntsc>
						</rate>
						<start>50390</start>
						<end>50983</end>
						<in>156215</in>
						<out>156808</out>
						<pproTicksIn>1587244377600000</pproTicksIn>
						<pproTicksOut>1593269637120000</pproTicksOut>
						<file id="file-67"/>
						<sourcetrack>
							<mediatype>audio</mediatype>
							<trackindex>1</trackindex>
						</sourcetrack>
						<logginginfo>
							<description></description>
							<scene></scene>
							<shottake></shottake>
							<lognote></lognote>
						</logginginfo>
						<labels>
							<label2>Caribbean</label2>
						</labels>
					</clipitem>
					<clipitem id="clipitem-2364" premiereChannelType="mono">
						<masterclipid>masterclip-71</masterclipid>
						<name>VB 2 V_03.wav</name>
						<enabled>TRUE</enabled>
						<duration>171138</duration>
						<rate>
							<timebase>25</timebase>
							<ntsc>FALSE</ntsc>
						</rate>
						<start>50983</start>
						<end>53597</end>
						<in>157028</in>
						<out>159642</out>
						<pproTicksIn>1595504977920000</pproTicksIn>
						<pproTicksOut>1622064890880000</pproTicksOut>
						<file id="file-67"/>
						<sourcetrack>
							<mediatype>audio</mediatype>
							<trackindex>1</trackindex>
						</sourcetrack>
						<logginginfo>
							<description></description>
							<scene></scene>
							<shottake></shottake>
							<lognote></lognote>
						</logginginfo>
						<labels>
							<label2>Caribbean</label2>
						</labels>
					</clipitem>
					<clipitem id="clipitem-2365" premiereChannelType="mono">
						<masterclipid>masterclip-71</masterclipid>
						<name>VB 2 V_03.wav</name>
						<enabled>TRUE</enabled>
						<duration>171138</duration>
						<rate>
							<timebase>25</timebase>
							<ntsc>FALSE</ntsc>
						</rate>
						<start>53597</start>
						<end>53636</end>
						<in>160568</in>
						<out>160607</out>
						<pproTicksIn>1631473643520000</pproTicksIn>
						<pproTicksOut>1631869908480000</pproTicksOut>
						<file id="file-67"/>
						<sourcetrack>
							<mediatype>audio</mediatype>
							<trackindex>1</trackindex>
						</sourcetrack>
						<logginginfo>
							<description></description>
							<scene></scene>
							<shottake></shottake>
							<lognote></lognote>
						</logginginfo>
						<labels>
							<label2>Caribbean</label2>
						</labels>
					</clipitem>
					<clipitem id="clipitem-2366" premiereChannelType="mono">
						<masterclipid>masterclip-71</masterclipid>
						<name>VB 2 V_03.wav</name>
						<enabled>TRUE</enabled>
						<duration>171138</duration>
						<rate>
							<timebase>25</timebase>
							<ntsc>FALSE</ntsc>
						</rate>
						<start>53636</start>
						<end>55369</end>
						<in>161146</in>
						<out>162879</out>
						<pproTicksIn>1637346493440000</pproTicksIn>
						<pproTicksOut>1654954882560000</pproTicksOut>
						<file id="file-67"/>
						<sourcetrack>
							<mediatype>audio</mediatype>
							<trackindex>1</trackindex>
						</sourcetrack>
						<logginginfo>
							<description></description>
							<scene></scene>
							<shottake></shottake>
							<lognote></lognote>
						</logginginfo>
						<labels>
							<label2>Caribbean</label2>
						</labels>
					</clipitem>
					<clipitem id="clipitem-2367" premiereChannelType="mono">
						<masterclipid>masterclip-71</masterclipid>
						<name>VB 2 V_03.wav</name>
						<enabled>TRUE</enabled>
						<duration>171138</duration>
						<rate>
							<timebase>25</timebase>
							<ntsc>FALSE</ntsc>
						</rate>
						<start>55369</start>
						<end>55449</end>
						<in>162899</in>
						<out>162979</out>
						<pproTicksIn>1655158095360000</pproTicksIn>
						<pproTicksOut>1655970946560000</pproTicksOut>
						<file id="file-67"/>
						<sourcetrack>
							<mediatype>audio</mediatype>
							<trackindex>1</trackindex>
						</sourcetrack>
						<logginginfo>
							<description></description>
							<scene></scene>
							<shottake></shottake>
							<lognote></lognote>
						</logginginfo>
						<labels>
							<label2>Caribbean</label2>
						</labels>
					</clipitem>
					<clipitem id="clipitem-2368" premiereChannelType="mono">
						<masterclipid>masterclip-71</masterclipid>
						<name>VB 2 V_03.wav</name>
						<enabled>TRUE</enabled>
						<duration>171138</duration>
						<rate>
							<timebase>25</timebase>
							<ntsc>FALSE</ntsc>
						</rate>
						<start>55449</start>
						<end>55738</end>
						<in>163146</in>
						<out>163435</out>
						<pproTicksIn>1657667773440000</pproTicksIn>
						<pproTicksOut>1660604198400000</pproTicksOut>
						<file id="file-67"/>
						<sourcetrack>
							<mediatype>audio</mediatype>
							<trackindex>1</trackindex>
						</sourcetrack>
						<logginginfo>
							<description></description>
							<scene></scene>
							<shottake></shottake>
							<lognote></lognote>
						</logginginfo>
						<labels>
							<label2>Caribbean</label2>
						</labels>
					</clipitem>
					<clipitem id="clipitem-2369" premiereChannelType="mono">
						<masterclipid>masterclip-71</masterclipid>
						<name>VB 2 V_03.wav</name>
						<enabled>TRUE</enabled>
						<duration>171138</duration>
						<rate>
							<timebase>25</timebase>
							<ntsc>FALSE</ntsc>
						</rate>
						<start>55738</start>
						<end>55905</end>
						<in>163648</in>
						<out>163815</out>
						<pproTicksIn>1662768414720000</pproTicksIn>
						<pproTicksOut>1664465241600000</pproTicksOut>
						<file id="file-67"/>
						<sourcetrack>
							<mediatype>audio</mediatype>
							<trackindex>1</trackindex>
						</sourcetrack>
						<logginginfo>
							<description></description>
							<scene></scene>
							<shottake></shottake>
							<lognote></lognote>
						</logginginfo>
						<labels>
							<label2>Caribbean</label2>
						</labels>
					</clipitem>
					<clipitem id="clipitem-2370" premiereChannelType="mono">
						<masterclipid>masterclip-71</masterclipid>
						<name>VB 2 V_03.wav</name>
						<enabled>TRUE</enabled>
						<duration>171138</duration>
						<rate>
							<timebase>25</timebase>
							<ntsc>FALSE</ntsc>
						</rate>
						<start>55905</start>
						<end>56079</end>
						<in>163829</in>
						<out>164003</out>
						<pproTicksIn>1664607490560000</pproTicksIn>
						<pproTicksOut>1666375441920000</pproTicksOut>
						<file id="file-67"/>
						<sourcetrack>
							<mediatype>audio</mediatype>
							<trackindex>1</trackindex>
						</sourcetrack>
						<logginginfo>
							<description></description>
							<scene></scene>
							<shottake></shottake>
							<lognote></lognote>
						</logginginfo>
						<labels>
							<label2>Caribbean</label2>
						</labels>
					</clipitem>
					<clipitem id="clipitem-2371" premiereChannelType="mono">
						<masterclipid>masterclip-71</masterclipid>
						<name>VB 2 V_03.wav</name>
						<enabled>TRUE</enabled>
						<duration>171138</duration>
						<rate>
							<timebase>25</timebase>
							<ntsc>FALSE</ntsc>
						</rate>
						<start>56079</start>
						<end>58120</end>
						<in>164067</in>
						<out>166108</out>
						<pproTicksIn>1667025722880000</pproTicksIn>
						<pproTicksOut>1687763589120000</pproTicksOut>
						<file id="file-67"/>
						<sourcetrack>
							<mediatype>audio</mediatype>
							<trackindex>1</trackindex>
						</sourcetrack>
						<logginginfo>
							<description></description>
							<scene></scene>
							<shottake></shottake>
							<lognote></lognote>
						</logginginfo>
						<labels>
							<label2>Caribbean</label2>
						</labels>
					</clipitem>
					<enabled>TRUE</enabled>
					<locked>FALSE</locked>
					<outputchannelindex>1</outputchannelindex>
				</track>
				<track TL.SQTrackAudioKeyframeStyle="0" TL.SQTrackShy="0" TL.SQTrackExpandedHeight="25" TL.SQTrackExpanded="0" MZ.TrackTargeted="1" PannerCurrentValue="0.5" PannerIsInverted="true" PannerStartKeyframe="-91445760000000000,0.5,0,0,0,0,0,0" PannerName="Balance" currentExplodedTrackIndex="1" totalExplodedTrackCount="2" premiereTrackType="Stereo">
					<clipitem id="clipitem-2372" premiereChannelType="stereo">
						<masterclipid>masterclip-68</masterclipid>
						<name>Super%20Jets%20Overhead%2004.wav</name>
						<enabled>TRUE</enabled>
						<duration>295</duration>
						<rate>
							<timebase>25</timebase>
							<ntsc>FALSE</ntsc>
						</rate>
						<start>47</start>
						<end>80</end>
						<in>262</in>
						<out>295</out>
						<pproTicksIn>2662087680000</pproTicksIn>
						<pproTicksOut>2997388800000</pproTicksOut>
						<file id="file-64"/>
						<sourcetrack>
							<mediatype>audio</mediatype>
							<trackindex>2</trackindex>
						</sourcetrack>
							<filter>
								<effect>
									<name>Audio Levels</name>
									<effectid>audiolevels</effectid>
									<effectcategory>audiolevels</effectcategory>
									<effecttype>audiolevels</effecttype>
									<mediatype>audio</mediatype>
									<parameter authoringApp="PremierePro">
										<parameterid>level</parameterid>
										<name>Level</name>
										<valuemin>0</valuemin>
										<valuemax>3.98109</valuemax>
										<value>0.099763</value>
									</parameter>
								</effect>
							</filter>
						<link>
							<linkclipref>clipitem-2237</linkclipref>
							<mediatype>audio</mediatype>
							<trackindex>15</trackindex>
							<clipindex>1</clipindex>
							<groupindex>1</groupindex>
						</link>
						<link>
							<linkclipref>clipitem-2372</linkclipref>
							<mediatype>audio</mediatype>
							<trackindex>16</trackindex>
							<clipindex>1</clipindex>
							<groupindex>1</groupindex>
						</link>
						<logginginfo>
							<description></description>
							<scene></scene>
							<shottake></shottake>
							<lognote></lognote>
						</logginginfo>
						<labels>
							<label2>Caribbean</label2>
						</labels>
					</clipitem>
					<clipitem id="clipitem-2373" premiereChannelType="stereo">
						<masterclipid>masterclip-69</masterclipid>
						<name>Flash%20Frame%20Lite%2003.wav</name>
						<enabled>TRUE</enabled>
						<duration>90</duration>
						<rate>
							<timebase>25</timebase>
							<ntsc>FALSE</ntsc>
						</rate>
						<start>146</start>
						<end>236</end>
						<in>0</in>
						<out>90</out>
						<pproTicksIn>0</pproTicksIn>
						<pproTicksOut>914457600000</pproTicksOut>
						<file id="file-65"/>
						<sourcetrack>
							<mediatype>audio</mediatype>
							<trackindex>2</trackindex>
						</sourcetrack>
							<filter>
								<effect>
									<name>Audio Levels</name>
									<effectid>audiolevels</effectid>
									<effectcategory>audiolevels</effectcategory>
									<effecttype>audiolevels</effecttype>
									<mediatype>audio</mediatype>
									<parameter authoringApp="PremierePro">
										<parameterid>level</parameterid>
										<name>Level</name>
										<valuemin>0</valuemin>
										<valuemax>3.98109</valuemax>
										<value>0.445625</value>
									</parameter>
								</effect>
							</filter>
						<link>
							<linkclipref>clipitem-2238</linkclipref>
							<mediatype>audio</mediatype>
							<trackindex>15</trackindex>
							<clipindex>2</clipindex>
							<groupindex>1</groupindex>
						</link>
						<link>
							<linkclipref>clipitem-2373</linkclipref>
							<mediatype>audio</mediatype>
							<trackindex>16</trackindex>
							<clipindex>2</clipindex>
							<groupindex>1</groupindex>
						</link>
						<logginginfo>
							<description></description>
							<scene></scene>
							<shottake></shottake>
							<lognote></lognote>
						</logginginfo>
						<labels>
							<label2>Caribbean</label2>
						</labels>
					</clipitem>
					<clipitem id="clipitem-2374" premiereChannelType="stereo">
						<masterclipid>masterclip-68</masterclipid>
						<name>Super%20Jets%20Overhead%2004.wav</name>
						<enabled>TRUE</enabled>
						<duration>295</duration>
						<rate>
							<timebase>25</timebase>
							<ntsc>FALSE</ntsc>
						</rate>
						<start>293</start>
						<end>326</end>
						<in>262</in>
						<out>295</out>
						<pproTicksIn>2662087680000</pproTicksIn>
						<pproTicksOut>2997388800000</pproTicksOut>
						<file id="file-64"/>
						<sourcetrack>
							<mediatype>audio</mediatype>
							<trackindex>2</trackindex>
						</sourcetrack>
							<filter>
								<effect>
									<name>Audio Levels</name>
									<effectid>audiolevels</effectid>
									<effectcategory>audiolevels</effectcategory>
									<effecttype>audiolevels</effecttype>
									<mediatype>audio</mediatype>
									<parameter authoringApp="PremierePro">
										<parameterid>level</parameterid>
										<name>Level</name>
										<valuemin>0</valuemin>
										<valuemax>3.98109</valuemax>
										<value>0.099763</value>
									</parameter>
								</effect>
							</filter>
						<link>
							<linkclipref>clipitem-2239</linkclipref>
							<mediatype>audio</mediatype>
							<trackindex>15</trackindex>
							<clipindex>3</clipindex>
							<groupindex>1</groupindex>
						</link>
						<link>
							<linkclipref>clipitem-2374</linkclipref>
							<mediatype>audio</mediatype>
							<trackindex>16</trackindex>
							<clipindex>3</clipindex>
							<groupindex>1</groupindex>
						</link>
						<logginginfo>
							<description></description>
							<scene></scene>
							<shottake></shottake>
							<lognote></lognote>
						</logginginfo>
						<labels>
							<label2>Caribbean</label2>
						</labels>
					</clipitem>
					<enabled>TRUE</enabled>
					<locked>FALSE</locked>
					<outputchannelindex>2</outputchannelindex>
				</track>
				<track TL.SQTrackAudioKeyframeStyle="0" TL.SQTrackShy="0" TL.SQTrackExpandedHeight="25" TL.SQTrackExpanded="0" MZ.TrackTargeted="1" PannerCurrentValue="0.5" PannerIsInverted="true" PannerStartKeyframe="-91445760000000000,0.5,0,0,0,0,0,0" PannerName="Balance" currentExplodedTrackIndex="0" totalExplodedTrackCount="2" premiereTrackType="Stereo">
					<clipitem id="clipitem-2375" premiereChannelType="stereo">
						<masterclipid>masterclip-72</masterclipid>
						<name>NONRT015683CD0008 The Power of Love.wav</name>
						<enabled>TRUE</enabled>
						<duration>5890</duration>
						<rate>
							<timebase>25</timebase>
							<ntsc>FALSE</ntsc>
						</rate>
						<start>27</start>
						<end>344</end>
						<in>31</in>
						<out>348</out>
						<pproTicksIn>314979840000</pproTicksIn>
						<pproTicksOut>3535902720000</pproTicksOut>
						<file id="file-68">
							<name>NONRT015683CD0008 The Power of Love.wav</name>
							<pathurl>file://localhost/Volumes/Brakka/AdobeLager/QUIZ%20-%20brakka/Musikk/Vignett/NONRT015683CD0008%20The%20Power%20of%20Love.wav</pathurl>
							<rate>
								<timebase>30</timebase>
								<ntsc>TRUE</ntsc>
							</rate>
							<duration>7061</duration>
							<timecode>
								<rate>
									<timebase>30</timebase>
									<ntsc>TRUE</ntsc>
								</rate>
								<string>00;00;00;00</string>
								<frame>0</frame>
								<displayformat>DF</displayformat>
								<reel>
									<name></name>
								</reel>
							</timecode>
							<media>
								<audio>
									<samplecharacteristics>
										<depth>16</depth>
										<samplerate>48000</samplerate>
									</samplecharacteristics>
									<channelcount>2</channelcount>
								</audio>
							</media>
						</file>
						<sourcetrack>
							<mediatype>audio</mediatype>
							<trackindex>1</trackindex>
						</sourcetrack>
							<filter>
								<effect>
									<name>Audio Levels</name>
									<effectid>audiolevels</effectid>
									<effectcategory>audiolevels</effectcategory>
									<effecttype>audiolevels</effecttype>
									<mediatype>audio</mediatype>
									<parameter authoringApp="PremierePro">
										<parameterid>level</parameterid>
										<name>Level</name>
										<valuemin>0</valuemin>
										<valuemax>3.98109</valuemax>
										<value>0.353972</value>
									</parameter>
								</effect>
							</filter>
						<link>
							<linkclipref>clipitem-2375</linkclipref>
							<mediatype>audio</mediatype>
							<trackindex>17</trackindex>
							<clipindex>1</clipindex>
							<groupindex>1</groupindex>
						</link>
						<link>
							<linkclipref>clipitem-2549</linkclipref>
							<mediatype>audio</mediatype>
							<trackindex>18</trackindex>
							<clipindex>1</clipindex>
							<groupindex>1</groupindex>
						</link>
						<logginginfo>
							<description></description>
							<scene></scene>
							<shottake></shottake>
							<lognote>CD Track 8 archiveNo[015683014]</lognote>
						</logginginfo>
						<labels>
							<label2>Caribbean</label2>
						</labels>
					</clipitem>
					<clipitem id="clipitem-2376" premiereChannelType="stereo">
						<masterclipid>masterclip-72</masterclipid>
						<name>NONRT015683CD0008 The Power of Love.wav</name>
						<enabled>TRUE</enabled>
						<duration>5890</duration>
						<rate>
							<timebase>25</timebase>
							<ntsc>FALSE</ntsc>
						</rate>
						<start>344</start>
						<end>514</end>
						<in>348</in>
						<out>518</out>
						<pproTicksIn>3535902720000</pproTicksIn>
						<pproTicksOut>5263211520000</pproTicksOut>
						<file id="file-68"/>
						<sourcetrack>
							<mediatype>audio</mediatype>
							<trackindex>1</trackindex>
						</sourcetrack>
							<filter>
								<effect>
									<name>Audio Levels</name>
									<effectid>audiolevels</effectid>
									<effectcategory>audiolevels</effectcategory>
									<effecttype>audiolevels</effecttype>
									<mediatype>audio</mediatype>
									<parameter authoringApp="PremierePro">
										<parameterid>level</parameterid>
										<name>Level</name>
										<valuemin>0</valuemin>
										<valuemax>3.98109</valuemax>
										<value>0</value>
										<keyframe>
											<when>432</when>
											<value>0.353972</value>
										</keyframe>
										<keyframe>
											<when>443</when>
											<value>0.115032</value>
										</keyframe>
										<keyframe>
											<when>516</when>
											<value>0</value>
										</keyframe>
									</parameter>
								</effect>
							</filter>
						<link>
							<linkclipref>clipitem-2376</linkclipref>
							<mediatype>audio</mediatype>
							<trackindex>17</trackindex>
							<clipindex>2</clipindex>
							<groupindex>1</groupindex>
						</link>
						<link>
							<linkclipref>clipitem-2550</linkclipref>
							<mediatype>audio</mediatype>
							<trackindex>18</trackindex>
							<clipindex>2</clipindex>
							<groupindex>1</groupindex>
						</link>
						<logginginfo>
							<description></description>
							<scene></scene>
							<shottake></shottake>
							<lognote>CD Track 8 archiveNo[015683014]</lognote>
						</logginginfo>
						<labels>
							<label2>Caribbean</label2>
						</labels>
					</clipitem>
					<clipitem id="clipitem-2377" premiereChannelType="stereo">
						<masterclipid>masterclip-10</masterclipid>
						<name>NNFA80750005AA.mxf</name>
						<enabled>TRUE</enabled>
						<duration>81126</duration>
						<rate>
							<timebase>25</timebase>
							<ntsc>FALSE</ntsc>
						</rate>
						<start>1131</start>
						<end>1236</end>
						<in>32776</in>
						<out>32881</out>
						<pproTicksIn>333025136640000</pproTicksIn>
						<pproTicksOut>334092003840000</pproTicksOut>
						<file id="file-8"/>
						<sourcetrack>
							<mediatype>audio</mediatype>
							<trackindex>1</trackindex>
						</sourcetrack>
							<filter>
								<effect>
									<name>Audio Levels</name>
									<effectid>audiolevels</effectid>
									<effectcategory>audiolevels</effectcategory>
									<effecttype>audiolevels</effecttype>
									<mediatype>audio</mediatype>
									<parameter authoringApp="PremierePro">
										<parameterid>level</parameterid>
										<name>Level</name>
										<valuemin>0</valuemin>
										<valuemax>3.98109</valuemax>
										<value>1.26791</value>
									</parameter>
								</effect>
							</filter>
						<link>
							<linkclipref>clipitem-2377</linkclipref>
							<mediatype>audio</mediatype>
							<trackindex>17</trackindex>
							<clipindex>3</clipindex>
							<groupindex>1</groupindex>
						</link>
						<link>
							<linkclipref>clipitem-2551</linkclipref>
							<mediatype>audio</mediatype>
							<trackindex>18</trackindex>
							<clipindex>3</clipindex>
							<groupindex>1</groupindex>
						</link>
						<logginginfo>
							<description></description>
							<scene></scene>
							<shottake></shottake>
							<lognote></lognote>
						</logginginfo>
						<labels>
							<label2>Iris</label2>
						</labels>
					</clipitem>
					<transitionitem>
						<start>1236</start>
						<end>1249</end>
						<alignment>start-black</alignment>
						<cutPointTicks>0</cutPointTicks>
						<rate>
							<timebase>25</timebase>
							<ntsc>FALSE</ntsc>
						</rate>
						<effect>
							<name>Cross Fade (+3dB)</name>
							<effectid>KGAudioTransCrossFade3dB</effectid>
							<effecttype>transition</effecttype>
							<mediatype>audio</mediatype>
							<wipecode>0</wipecode>
							<wipeaccuracy>100</wipeaccuracy>
							<startratio>0</startratio>
							<endratio>1</endratio>
							<reverse>FALSE</reverse>
						</effect>
					</transitionitem>
					<clipitem id="clipitem-2378" premiereChannelType="mono">
						<masterclipid>masterclip-15</masterclipid>
						<name>digs672r.mxf</name>
						<enabled>TRUE</enabled>
						<duration>179350</duration>
						<rate>
							<timebase>25</timebase>
							<ntsc>FALSE</ntsc>
						</rate>
						<start>-1</start>
						<end>-1</end>
						<in>141126</in>
						<out>141252</out>
						<pproTicksIn>1433930480640000</pproTicksIn>
						<pproTicksOut>1435210721280000</pproTicksOut>
						<file id="file-12"/>
						<sourcetrack>
							<mediatype>audio</mediatype>
							<trackindex>3</trackindex>
						</sourcetrack>
							<filter>
								<effect>
									<name>Audio Levels</name>
									<effectid>audiolevels</effectid>
									<effectcategory>audiolevels</effectcategory>
									<effecttype>audiolevels</effecttype>
									<mediatype>audio</mediatype>
									<parameter authoringApp="PremierePro">
										<parameterid>level</parameterid>
										<name>Level</name>
										<valuemin>0</valuemin>
										<valuemax>3.98109</valuemax>
										<value>1.41254</value>
									</parameter>
								</effect>
							</filter>
						<logginginfo>
							<description></description>
							<scene></scene>
							<shottake></shottake>
							<lognote></lognote>
						</logginginfo>
						<labels>
							<label2>Iris</label2>
						</labels>
					</clipitem>
					<transitionitem>
						<start>1354</start>
						<end>1362</end>
						<alignment>center</alignment>
						<cutPointTicks>40642560000</cutPointTicks>
						<rate>
							<timebase>25</timebase>
							<ntsc>FALSE</ntsc>
						</rate>
						<effect>
							<name>Cross Fade (+3dB)</name>
							<effectid>KGAudioTransCrossFade3dB</effectid>
							<effecttype>transition</effecttype>
							<mediatype>audio</mediatype>
							<wipecode>0</wipecode>
							<wipeaccuracy>100</wipeaccuracy>
							<startratio>0</startratio>
							<endratio>1</endratio>
							<reverse>FALSE</reverse>
						</effect>
					</transitionitem>
					<clipitem id="clipitem-2379" premiereChannelType="mono">
						<masterclipid>masterclip-15</masterclipid>
						<name>digs672r.mxf</name>
						<enabled>TRUE</enabled>
						<duration>179350</duration>
						<rate>
							<timebase>25</timebase>
							<ntsc>FALSE</ntsc>
						</rate>
						<start>-1</start>
						<end>-1</end>
						<in>141528</in>
						<out>141610</out>
						<pproTicksIn>1438015057920000</pproTicksIn>
						<pproTicksOut>1438848230400000</pproTicksOut>
						<file id="file-12"/>
						<sourcetrack>
							<mediatype>audio</mediatype>
							<trackindex>3</trackindex>
						</sourcetrack>
							<filter>
								<effect>
									<name>Audio Levels</name>
									<effectid>audiolevels</effectid>
									<effectcategory>audiolevels</effectcategory>
									<effecttype>audiolevels</effecttype>
									<mediatype>audio</mediatype>
									<parameter authoringApp="PremierePro">
										<parameterid>level</parameterid>
										<name>Level</name>
										<valuemin>0</valuemin>
										<valuemax>3.98109</valuemax>
										<value>0.99763</value>
									</parameter>
								</effect>
							</filter>
						<logginginfo>
							<description></description>
							<scene></scene>
							<shottake></shottake>
							<lognote></lognote>
						</logginginfo>
						<labels>
							<label2>Iris</label2>
						</labels>
					</clipitem>
					<transitionitem>
						<start>1428</start>
						<end>1436</end>
						<alignment>center</alignment>
						<cutPointTicks>40642560000</cutPointTicks>
						<rate>
							<timebase>25</timebase>
							<ntsc>FALSE</ntsc>
						</rate>
						<effect>
							<name>Cross Fade (+3dB)</name>
							<effectid>KGAudioTransCrossFade3dB</effectid>
							<effecttype>transition</effecttype>
							<mediatype>audio</mediatype>
							<wipecode>0</wipecode>
							<wipeaccuracy>100</wipeaccuracy>
							<startratio>0</startratio>
							<endratio>1</endratio>
							<reverse>FALSE</reverse>
						</effect>
					</transitionitem>
					<clipitem id="clipitem-2380" premiereChannelType="mono">
						<masterclipid>masterclip-15</masterclipid>
						<name>digs672r.mxf</name>
						<enabled>TRUE</enabled>
						<duration>179350</duration>
						<rate>
							<timebase>25</timebase>
							<ntsc>FALSE</ntsc>
						</rate>
						<start>-1</start>
						<end>1522</end>
						<in>141829</in>
						<out>141923</out>
						<pproTicksIn>1441073410560000</pproTicksIn>
						<pproTicksOut>1442028510720000</pproTicksOut>
						<file id="file-12"/>
						<sourcetrack>
							<mediatype>audio</mediatype>
							<trackindex>3</trackindex>
						</sourcetrack>
							<filter>
								<effect>
									<name>Audio Levels</name>
									<effectid>audiolevels</effectid>
									<effectcategory>audiolevels</effectcategory>
									<effecttype>audiolevels</effecttype>
									<mediatype>audio</mediatype>
									<parameter authoringApp="PremierePro">
										<parameterid>level</parameterid>
										<name>Level</name>
										<valuemin>0</valuemin>
										<valuemax>3.98109</valuemax>
										<value>1.21451</value>
										<keyframe>
											<when>141862</when>
											<value>1.21451</value>
										</keyframe>
										<keyframe>
											<when>141919</when>
											<value>0.347002</value>
										</keyframe>
									</parameter>
								</effect>
							</filter>
						<logginginfo>
							<description></description>
							<scene></scene>
							<shottake></shottake>
							<lognote></lognote>
						</logginginfo>
						<labels>
							<label2>Iris</label2>
						</labels>
					</clipitem>
					<clipitem id="clipitem-2381" premiereChannelType="stereo">
						<masterclipid>masterclip-10</masterclipid>
						<name>NNFA80750005AA.mxf</name>
						<enabled>TRUE</enabled>
						<duration>81126</duration>
						<rate>
							<timebase>25</timebase>
							<ntsc>FALSE</ntsc>
						</rate>
						<start>2633</start>
						<end>2797</end>
						<in>57409</in>
						<out>57573</out>
						<pproTicksIn>583312181760000</pproTicksIn>
						<pproTicksOut>584978526720000</pproTicksOut>
						<file id="file-8"/>
						<sourcetrack>
							<mediatype>audio</mediatype>
							<trackindex>1</trackindex>
						</sourcetrack>
							<filter>
								<effect>
									<name>Audio Levels</name>
									<effectid>audiolevels</effectid>
									<effectcategory>audiolevels</effectcategory>
									<effecttype>audiolevels</effecttype>
									<mediatype>audio</mediatype>
									<parameter authoringApp="PremierePro">
										<parameterid>level</parameterid>
										<name>Level</name>
										<valuemin>0</valuemin>
										<valuemax>3.98109</valuemax>
										<value>0.397164</value>
									</parameter>
								</effect>
							</filter>
						<link>
							<linkclipref>clipitem-2381</linkclipref>
							<mediatype>audio</mediatype>
							<trackindex>17</trackindex>
							<clipindex>10</clipindex>
							<groupindex>1</groupindex>
						</link>
						<link>
							<linkclipref>clipitem-2552</linkclipref>
							<mediatype>audio</mediatype>
							<trackindex>18</trackindex>
							<clipindex>4</clipindex>
							<groupindex>1</groupindex>
						</link>
						<logginginfo>
							<description></description>
							<scene></scene>
							<shottake></shottake>
							<lognote></lognote>
						</logginginfo>
						<labels>
							<label2>Iris</label2>
						</labels>
					</clipitem>
					<clipitem id="clipitem-2382" premiereChannelType="stereo">
						<masterclipid>masterclip-10</masterclipid>
						<name>NNFA80750005AA.mxf</name>
						<enabled>TRUE</enabled>
						<duration>81126</duration>
						<rate>
							<timebase>25</timebase>
							<ntsc>FALSE</ntsc>
						</rate>
						<start>2797</start>
						<end>2879</end>
						<in>57573</in>
						<out>57655</out>
						<pproTicksIn>584978526720000</pproTicksIn>
						<pproTicksOut>585811699200000</pproTicksOut>
						<file id="file-8"/>
						<sourcetrack>
							<mediatype>audio</mediatype>
							<trackindex>1</trackindex>
						</sourcetrack>
							<filter>
								<effect>
									<name>Audio Levels</name>
									<effectid>audiolevels</effectid>
									<effectcategory>audiolevels</effectcategory>
									<effecttype>audiolevels</effecttype>
									<mediatype>audio</mediatype>
									<parameter authoringApp="PremierePro">
										<parameterid>level</parameterid>
										<name>Level</name>
										<valuemin>0</valuemin>
										<valuemax>3.98109</valuemax>
										<value>1.58114</value>
									</parameter>
								</effect>
							</filter>
						<link>
							<linkclipref>clipitem-2382</linkclipref>
							<mediatype>audio</mediatype>
							<trackindex>17</trackindex>
							<clipindex>11</clipindex>
							<groupindex>1</groupindex>
						</link>
						<link>
							<linkclipref>clipitem-2553</linkclipref>
							<mediatype>audio</mediatype>
							<trackindex>18</trackindex>
							<clipindex>5</clipindex>
							<groupindex>1</groupindex>
						</link>
						<logginginfo>
							<description></description>
							<scene></scene>
							<shottake></shottake>
							<lognote></lognote>
						</logginginfo>
						<labels>
							<label2>Iris</label2>
						</labels>
					</clipitem>
					<clipitem id="clipitem-2383" premiereChannelType="stereo">
						<masterclipid>masterclip-10</masterclipid>
						<name>NNFA80750005AA.mxf</name>
						<enabled>TRUE</enabled>
						<duration>81126</duration>
						<rate>
							<timebase>25</timebase>
							<ntsc>FALSE</ntsc>
						</rate>
						<start>3026</start>
						<end>3082</end>
						<in>59225</in>
						<out>59281</out>
						<pproTicksIn>601763904000000</pproTicksIn>
						<pproTicksOut>602332899840000</pproTicksOut>
						<file id="file-8"/>
						<sourcetrack>
							<mediatype>audio</mediatype>
							<trackindex>1</trackindex>
						</sourcetrack>
							<filter>
								<effect>
									<name>Audio Levels</name>
									<effectid>audiolevels</effectid>
									<effectcategory>audiolevels</effectcategory>
									<effecttype>audiolevels</effecttype>
									<mediatype>audio</mediatype>
									<parameter authoringApp="PremierePro">
										<parameterid>level</parameterid>
										<name>Level</name>
										<valuemin>0</valuemin>
										<valuemax>3.98109</valuemax>
										<value>1.99053</value>
									</parameter>
								</effect>
							</filter>
						<link>
							<linkclipref>clipitem-2383</linkclipref>
							<mediatype>audio</mediatype>
							<trackindex>17</trackindex>
							<clipindex>12</clipindex>
							<groupindex>1</groupindex>
						</link>
						<link>
							<linkclipref>clipitem-2554</linkclipref>
							<mediatype>audio</mediatype>
							<trackindex>18</trackindex>
							<clipindex>6</clipindex>
							<groupindex>1</groupindex>
						</link>
						<logginginfo>
							<description></description>
							<scene></scene>
							<shottake></shottake>
							<lognote></lognote>
						</logginginfo>
						<labels>
							<label2>Iris</label2>
						</labels>
					</clipitem>
					<transitionitem>
						<start>3326</start>
						<end>3399</end>
						<alignment>start-black</alignment>
						<cutPointTicks>0</cutPointTicks>
						<rate>
							<timebase>25</timebase>
							<ntsc>FALSE</ntsc>
						</rate>
						<effect>
							<name>Cross Fade (+3dB)</name>
							<effectid>KGAudioTransCrossFade3dB</effectid>
							<effecttype>transition</effecttype>
							<mediatype>audio</mediatype>
							<wipecode>0</wipecode>
							<wipeaccuracy>100</wipeaccuracy>
							<startratio>0</startratio>
							<endratio>1</endratio>
							<reverse>FALSE</reverse>
						</effect>
					</transitionitem>
					<clipitem id="clipitem-2384" premiereChannelType="stereo">
						<masterclipid>masterclip-10</masterclipid>
						<name>NNFA80750005AA.mxf</name>
						<enabled>TRUE</enabled>
						<duration>81126</duration>
						<rate>
							<timebase>25</timebase>
							<ntsc>FALSE</ntsc>
						</rate>
						<start>-1</start>
						<end>-1</end>
						<in>79912</in>
						<out>80110</out>
						<pproTicksIn>811957063680000</pproTicksIn>
						<pproTicksOut>813968870400000</pproTicksOut>
						<file id="file-8"/>
						<sourcetrack>
							<mediatype>audio</mediatype>
							<trackindex>1</trackindex>
						</sourcetrack>
							<filter>
								<effect>
									<name>Audio Levels</name>
									<effectid>audiolevels</effectid>
									<effectcategory>audiolevels</effectcategory>
									<effecttype>audiolevels</effecttype>
									<mediatype>audio</mediatype>
									<parameter authoringApp="PremierePro">
										<parameterid>level</parameterid>
										<name>Level</name>
										<valuemin>0</valuemin>
										<valuemax>3.98109</valuemax>
										<value>0.315478</value>
									</parameter>
								</effect>
							</filter>
						<link>
							<linkclipref>clipitem-2384</linkclipref>
							<mediatype>audio</mediatype>
							<trackindex>17</trackindex>
							<clipindex>14</clipindex>
							<groupindex>1</groupindex>
						</link>
						<link>
							<linkclipref>clipitem-2555</linkclipref>
							<mediatype>audio</mediatype>
							<trackindex>18</trackindex>
							<clipindex>8</clipindex>
							<groupindex>1</groupindex>
						</link>
						<logginginfo>
							<description></description>
							<scene></scene>
							<shottake></shottake>
							<lognote></lognote>
						</logginginfo>
						<labels>
							<label2>Iris</label2>
						</labels>
					</clipitem>
					<transitionitem>
						<start>3511</start>
						<end>3524</end>
						<alignment>center</alignment>
						<cutPointTicks>60963840000</cutPointTicks>
						<rate>
							<timebase>25</timebase>
							<ntsc>FALSE</ntsc>
						</rate>
						<effect>
							<name>Cross Fade (+3dB)</name>
							<effectid>KGAudioTransCrossFade3dB</effectid>
							<effecttype>transition</effecttype>
							<mediatype>audio</mediatype>
							<wipecode>0</wipecode>
							<wipeaccuracy>100</wipeaccuracy>
							<startratio>0</startratio>
							<endratio>1</endratio>
							<reverse>FALSE</reverse>
						</effect>
					</transitionitem>
					<clipitem id="clipitem-2385" premiereChannelType="stereo">
						<masterclipid>masterclip-10</masterclipid>
						<name>NNFA80750005AA.mxf</name>
						<enabled>TRUE</enabled>
						<duration>81126</duration>
						<rate>
							<timebase>25</timebase>
							<ntsc>FALSE</ntsc>
						</rate>
						<start>-1</start>
						<end>3570</end>
						<in>80097</in>
						<out>80156</out>
						<pproTicksIn>813836782080000</pproTicksIn>
						<pproTicksOut>814436259840000</pproTicksOut>
						<file id="file-8"/>
						<sourcetrack>
							<mediatype>audio</mediatype>
							<trackindex>1</trackindex>
						</sourcetrack>
							<filter>
								<effect>
									<name>Audio Levels</name>
									<effectid>audiolevels</effectid>
									<effectcategory>audiolevels</effectcategory>
									<effecttype>audiolevels</effecttype>
									<mediatype>audio</mediatype>
									<parameter authoringApp="PremierePro">
										<parameterid>level</parameterid>
										<name>Level</name>
										<valuemin>0</valuemin>
										<valuemax>3.98109</valuemax>
										<value>0.99763</value>
									</parameter>
								</effect>
							</filter>
						<link>
							<linkclipref>clipitem-2385</linkclipref>
							<mediatype>audio</mediatype>
							<trackindex>17</trackindex>
							<clipindex>16</clipindex>
							<groupindex>1</groupindex>
						</link>
						<link>
							<linkclipref>clipitem-2556</linkclipref>
							<mediatype>audio</mediatype>
							<trackindex>18</trackindex>
							<clipindex>10</clipindex>
							<groupindex>1</groupindex>
						</link>
						<logginginfo>
							<description></description>
							<scene></scene>
							<shottake></shottake>
							<lognote></lognote>
						</logginginfo>
						<labels>
							<label2>Iris</label2>
						</labels>
					</clipitem>
					<clipitem id="clipitem-2386" premiereChannelType="stereo">
						<masterclipid>masterclip-25</masterclipid>
						<name>DIGS694-150805-DR.mxf</name>
						<enabled>TRUE</enabled>
						<duration>2400</duration>
						<rate>
							<timebase>25</timebase>
							<ntsc>FALSE</ntsc>
						</rate>
						<start>4137</start>
						<end>4281</end>
						<in>424</in>
						<out>568</out>
						<pproTicksIn>4308111360000</pproTicksIn>
						<pproTicksOut>5771243520000</pproTicksOut>
						<file id="file-21"/>
						<sourcetrack>
							<mediatype>audio</mediatype>
							<trackindex>1</trackindex>
						</sourcetrack>
							<filter>
								<effect>
									<name>Audio Levels</name>
									<effectid>audiolevels</effectid>
									<effectcategory>audiolevels</effectcategory>
									<effecttype>audiolevels</effecttype>
									<mediatype>audio</mediatype>
									<parameter authoringApp="PremierePro">
										<parameterid>level</parameterid>
										<name>Level</name>
										<valuemin>0</valuemin>
										<valuemax>3.98109</valuemax>
										<value>0.0561009</value>
									</parameter>
								</effect>
							</filter>
						<link>
							<linkclipref>clipitem-2386</linkclipref>
							<mediatype>audio</mediatype>
							<trackindex>17</trackindex>
							<clipindex>17</clipindex>
							<groupindex>1</groupindex>
						</link>
						<link>
							<linkclipref>clipitem-2557</linkclipref>
							<mediatype>audio</mediatype>
							<trackindex>18</trackindex>
							<clipindex>11</clipindex>
							<groupindex>1</groupindex>
						</link>
						<logginginfo>
							<description></description>
							<scene></scene>
							<shottake></shottake>
							<lognote></lognote>
						</logginginfo>
						<labels>
							<label2>Iris</label2>
						</labels>
					</clipitem>
					<clipitem id="clipitem-2387" premiereChannelType="stereo">
						<masterclipid>masterclip-25</masterclipid>
						<name>DIGS694-150805-DR.mxf</name>
						<enabled>TRUE</enabled>
						<duration>2400</duration>
						<rate>
							<timebase>25</timebase>
							<ntsc>FALSE</ntsc>
						</rate>
						<start>4393</start>
						<end>4560</end>
						<in>568</in>
						<out>735</out>
						<pproTicksIn>5771243520000</pproTicksIn>
						<pproTicksOut>7468070400000</pproTicksOut>
						<file id="file-21"/>
						<sourcetrack>
							<mediatype>audio</mediatype>
							<trackindex>1</trackindex>
						</sourcetrack>
							<filter>
								<effect>
									<name>Audio Levels</name>
									<effectid>audiolevels</effectid>
									<effectcategory>audiolevels</effectcategory>
									<effecttype>audiolevels</effecttype>
									<mediatype>audio</mediatype>
									<parameter authoringApp="PremierePro">
										<parameterid>level</parameterid>
										<name>Level</name>
										<valuemin>0</valuemin>
										<valuemax>3.98109</valuemax>
										<value>1.58489</value>
									</parameter>
								</effect>
							</filter>
						<link>
							<linkclipref>clipitem-2387</linkclipref>
							<mediatype>audio</mediatype>
							<trackindex>17</trackindex>
							<clipindex>18</clipindex>
							<groupindex>1</groupindex>
						</link>
						<link>
							<linkclipref>clipitem-2558</linkclipref>
							<mediatype>audio</mediatype>
							<trackindex>18</trackindex>
							<clipindex>12</clipindex>
							<groupindex>1</groupindex>
						</link>
						<logginginfo>
							<description></description>
							<scene></scene>
							<shottake></shottake>
							<lognote></lognote>
						</logginginfo>
						<labels>
							<label2>Iris</label2>
						</labels>
					</clipitem>
					<clipitem id="clipitem-2388" premiereChannelType="stereo">
						<masterclipid>masterclip-25</masterclipid>
						<name>DIGS694-150805-DR.mxf</name>
						<enabled>FALSE</enabled>
						<duration>2400</duration>
						<rate>
							<timebase>25</timebase>
							<ntsc>FALSE</ntsc>
						</rate>
						<start>4560</start>
						<end>4717</end>
						<in>1755</in>
						<out>1912</out>
						<pproTicksIn>17831923200000</pproTicksIn>
						<pproTicksOut>19427143680000</pproTicksOut>
						<file id="file-21"/>
						<sourcetrack>
							<mediatype>audio</mediatype>
							<trackindex>1</trackindex>
						</sourcetrack>
							<filter>
								<effect>
									<name>Audio Levels</name>
									<effectid>audiolevels</effectid>
									<effectcategory>audiolevels</effectcategory>
									<effecttype>audiolevels</effecttype>
									<mediatype>audio</mediatype>
									<parameter authoringApp="PremierePro">
										<parameterid>level</parameterid>
										<name>Level</name>
										<valuemin>0</valuemin>
										<valuemax>3.98109</valuemax>
										<value>0.199053</value>
									</parameter>
								</effect>
							</filter>
						<link>
							<linkclipref>clipitem-2388</linkclipref>
							<mediatype>audio</mediatype>
							<trackindex>17</trackindex>
							<clipindex>19</clipindex>
							<groupindex>1</groupindex>
						</link>
						<link>
							<linkclipref>clipitem-2559</linkclipref>
							<mediatype>audio</mediatype>
							<trackindex>18</trackindex>
							<clipindex>13</clipindex>
							<groupindex>1</groupindex>
						</link>
						<logginginfo>
							<description></description>
							<scene></scene>
							<shottake></shottake>
							<lognote></lognote>
						</logginginfo>
						<labels>
							<label2>Iris</label2>
						</labels>
					</clipitem>
					<clipitem id="clipitem-2389" premiereChannelType="stereo">
						<masterclipid>masterclip-25</masterclipid>
						<name>DIGS694-150805-DR.mxf</name>
						<enabled>TRUE</enabled>
						<duration>2400</duration>
						<rate>
							<timebase>25</timebase>
							<ntsc>FALSE</ntsc>
						</rate>
						<start>4717</start>
						<end>-1</end>
						<in>968</in>
						<out>1044</out>
						<pproTicksIn>9835499520000</pproTicksIn>
						<pproTicksOut>10607708160000</pproTicksOut>
						<file id="file-21"/>
						<sourcetrack>
							<mediatype>audio</mediatype>
							<trackindex>1</trackindex>
						</sourcetrack>
						<link>
							<linkclipref>clipitem-2389</linkclipref>
							<mediatype>audio</mediatype>
							<trackindex>17</trackindex>
							<clipindex>20</clipindex>
							<groupindex>1</groupindex>
						</link>
						<link>
							<linkclipref>clipitem-2560</linkclipref>
							<mediatype>audio</mediatype>
							<trackindex>18</trackindex>
							<clipindex>14</clipindex>
							<groupindex>1</groupindex>
						</link>
						<logginginfo>
							<description></description>
							<scene></scene>
							<shottake></shottake>
							<lognote></lognote>
						</logginginfo>
						<labels>
							<label2>Iris</label2>
						</labels>
					</clipitem>
					<transitionitem>
						<start>4780</start>
						<end>4793</end>
						<alignment>end-black</alignment>
						<cutPointTicks>132088320000</cutPointTicks>
						<rate>
							<timebase>25</timebase>
							<ntsc>FALSE</ntsc>
						</rate>
						<effect>
							<name>Cross Fade (+3dB)</name>
							<effectid>KGAudioTransCrossFade3dB</effectid>
							<effecttype>transition</effecttype>
							<mediatype>audio</mediatype>
							<wipecode>0</wipecode>
							<wipeaccuracy>100</wipeaccuracy>
							<startratio>0</startratio>
							<endratio>1</endratio>
							<reverse>FALSE</reverse>
						</effect>
					</transitionitem>
					<clipitem id="clipitem-2390" premiereChannelType="stereo">
						<masterclipid>masterclip-73</masterclipid>
						<name>Klukklatter, kort.wav</name>
						<enabled>TRUE</enabled>
						<duration>56</duration>
						<rate>
							<timebase>25</timebase>
							<ntsc>FALSE</ntsc>
						</rate>
						<start>5948</start>
						<end>6004</end>
						<in>0</in>
						<out>56</out>
						<pproTicksIn>0</pproTicksIn>
						<pproTicksOut>568995840000</pproTicksOut>
						<file id="file-69">
							<name>Klukklatter, kort.wav</name>
							<pathurl>file://localhost/Volumes/Brakka/AdobeLager/QUIZ%20-%20brakka/RA%cc%8aSTOFF%20LYD/Publikumsreaksjoner/Fra%201980/Klukklatter,%20kort.wav</pathurl>
							<rate>
								<timebase>30</timebase>
								<ntsc>TRUE</ntsc>
							</rate>
							<duration>67</duration>
							<timecode>
								<rate>
									<timebase>30</timebase>
									<ntsc>TRUE</ntsc>
								</rate>
								<string>12;56;16;00</string>
								<frame>1395882</frame>
								<displayformat>DF</displayformat>
								<reel>
									<name></name>
								</reel>
							</timecode>
							<media>
								<audio>
									<samplecharacteristics>
										<depth>16</depth>
										<samplerate>48000</samplerate>
									</samplecharacteristics>
									<channelcount>2</channelcount>
								</audio>
							</media>
						</file>
						<sourcetrack>
							<mediatype>audio</mediatype>
							<trackindex>1</trackindex>
						</sourcetrack>
						<link>
							<linkclipref>clipitem-2390</linkclipref>
							<mediatype>audio</mediatype>
							<trackindex>17</trackindex>
							<clipindex>22</clipindex>
							<groupindex>1</groupindex>
						</link>
						<link>
							<linkclipref>clipitem-2561</linkclipref>
							<mediatype>audio</mediatype>
							<trackindex>18</trackindex>
							<clipindex>16</clipindex>
							<groupindex>1</groupindex>
						</link>
						<logginginfo>
							<description></description>
							<scene></scene>
							<shottake></shottake>
							<lognote></lognote>
						</logginginfo>
						<labels>
							<label2>Caribbean</label2>
						</labels>
					</clipitem>
					<clipitem id="clipitem-2391" premiereChannelType="stereo">
						<masterclipid>masterclip-74</masterclipid>
						<name>Latter bitteliten.wav</name>
						<enabled>TRUE</enabled>
						<duration>53</duration>
						<rate>
							<timebase>25</timebase>
							<ntsc>FALSE</ntsc>
						</rate>
						<start>6807</start>
						<end>6860</end>
						<in>0</in>
						<out>53</out>
						<pproTicksIn>0</pproTicksIn>
						<pproTicksOut>538513920000</pproTicksOut>
						<file id="file-70">
							<name>Latter bitteliten.wav</name>
							<pathurl>file://localhost/Volumes/Brakka/AdobeLager/QUIZ%20-%20brakka/RA%cc%8aSTOFF%20LYD/Publikumsreaksjoner/Fra%201996/Latter%20bitteliten.wav</pathurl>
							<rate>
								<timebase>30</timebase>
								<ntsc>TRUE</ntsc>
							</rate>
							<duration>63</duration>
							<timecode>
								<rate>
									<timebase>30</timebase>
									<ntsc>TRUE</ntsc>
								</rate>
								<string>13;57;56;07</string>
								<frame>1506779</frame>
								<displayformat>DF</displayformat>
								<reel>
									<name></name>
								</reel>
							</timecode>
							<media>
								<audio>
									<samplecharacteristics>
										<depth>16</depth>
										<samplerate>48000</samplerate>
									</samplecharacteristics>
									<channelcount>2</channelcount>
								</audio>
							</media>
						</file>
						<sourcetrack>
							<mediatype>audio</mediatype>
							<trackindex>1</trackindex>
						</sourcetrack>
						<link>
							<linkclipref>clipitem-2391</linkclipref>
							<mediatype>audio</mediatype>
							<trackindex>17</trackindex>
							<clipindex>23</clipindex>
							<groupindex>1</groupindex>
						</link>
						<link>
							<linkclipref>clipitem-2562</linkclipref>
							<mediatype>audio</mediatype>
							<trackindex>18</trackindex>
							<clipindex>17</clipindex>
							<groupindex>1</groupindex>
						</link>
						<logginginfo>
							<description></description>
							<scene></scene>
							<shottake></shottake>
							<lognote></lognote>
						</logginginfo>
						<labels>
							<label2>Caribbean</label2>
						</labels>
					</clipitem>
					<clipitem id="clipitem-2392" premiereChannelType="stereo">
						<masterclipid>masterclip-75</masterclipid>
						<name>Latter avmålt.wav</name>
						<enabled>TRUE</enabled>
						<duration>60</duration>
						<rate>
							<timebase>25</timebase>
							<ntsc>FALSE</ntsc>
						</rate>
						<start>7167</start>
						<end>7227</end>
						<in>0</in>
						<out>60</out>
						<pproTicksIn>0</pproTicksIn>
						<pproTicksOut>609638400000</pproTicksOut>
						<file id="file-71">
							<name>Latter avmålt.wav</name>
							<pathurl>file://localhost/Volumes/Brakka/AdobeLager/QUIZ%20-%20brakka/RA%cc%8aSTOFF%20LYD/Publikumsreaksjoner/Fra%201996/Latter%20avma%cc%8alt.wav</pathurl>
							<rate>
								<timebase>30</timebase>
								<ntsc>TRUE</ntsc>
							</rate>
							<duration>72</duration>
							<timecode>
								<rate>
									<timebase>30</timebase>
									<ntsc>TRUE</ntsc>
								</rate>
								<string>14;05;37;09</string>
								<frame>1520597</frame>
								<displayformat>DF</displayformat>
								<reel>
									<name></name>
								</reel>
							</timecode>
							<media>
								<audio>
									<samplecharacteristics>
										<depth>16</depth>
										<samplerate>48000</samplerate>
									</samplecharacteristics>
									<channelcount>2</channelcount>
								</audio>
							</media>
						</file>
						<sourcetrack>
							<mediatype>audio</mediatype>
							<trackindex>1</trackindex>
						</sourcetrack>
						<link>
							<linkclipref>clipitem-2392</linkclipref>
							<mediatype>audio</mediatype>
							<trackindex>17</trackindex>
							<clipindex>24</clipindex>
							<groupindex>1</groupindex>
						</link>
						<link>
							<linkclipref>clipitem-2563</linkclipref>
							<mediatype>audio</mediatype>
							<trackindex>18</trackindex>
							<clipindex>18</clipindex>
							<groupindex>1</groupindex>
						</link>
						<logginginfo>
							<description></description>
							<scene></scene>
							<shottake></shottake>
							<lognote></lognote>
						</logginginfo>
						<labels>
							<label2>Caribbean</label2>
						</labels>
					</clipitem>
					<clipitem id="clipitem-2393" premiereChannelType="stereo">
						<masterclipid>masterclip-76</masterclipid>
						<name>Latter går over i applaus plystring brå slutt.wav</name>
						<enabled>TRUE</enabled>
						<duration>232</duration>
						<rate>
							<timebase>25</timebase>
							<ntsc>FALSE</ntsc>
						</rate>
						<start>7266</start>
						<end>7498</end>
						<in>0</in>
						<out>232</out>
						<pproTicksIn>0</pproTicksIn>
						<pproTicksOut>2357268480000</pproTicksOut>
						<file id="file-72">
							<name>Latter går over i applaus plystring brå slutt.wav</name>
							<pathurl>file://localhost/Volumes/Brakka/AdobeLager/QUIZ%20-%20brakka/RA%cc%8aSTOFF%20LYD/Publikumsreaksjoner/Fra%201996/Latter%20ga%cc%8ar%20over%20i%20applaus%20plystring%20bra%cc%8a%20slutt.wav</pathurl>
							<rate>
								<timebase>30</timebase>
								<ntsc>TRUE</ntsc>
							</rate>
							<duration>278</duration>
							<timecode>
								<rate>
									<timebase>30</timebase>
									<ntsc>TRUE</ntsc>
								</rate>
								<string>13;59;14;22</string>
								<frame>1509130</frame>
								<displayformat>DF</displayformat>
								<reel>
									<name></name>
								</reel>
							</timecode>
							<media>
								<audio>
									<samplecharacteristics>
										<depth>16</depth>
										<samplerate>48000</samplerate>
									</samplecharacteristics>
									<channelcount>2</channelcount>
								</audio>
							</media>
						</file>
						<sourcetrack>
							<mediatype>audio</mediatype>
							<trackindex>1</trackindex>
						</sourcetrack>
						<link>
							<linkclipref>clipitem-2393</linkclipref>
							<mediatype>audio</mediatype>
							<trackindex>17</trackindex>
							<clipindex>25</clipindex>
							<groupindex>1</groupindex>
						</link>
						<link>
							<linkclipref>clipitem-2564</linkclipref>
							<mediatype>audio</mediatype>
							<trackindex>18</trackindex>
							<clipindex>19</clipindex>
							<groupindex>1</groupindex>
						</link>
						<logginginfo>
							<description></description>
							<scene></scene>
							<shottake></shottake>
							<lognote></lognote>
						</logginginfo>
						<labels>
							<label2>Caribbean</label2>
						</labels>
					</clipitem>
					<clipitem id="clipitem-2394" premiereChannelType="stereo">
						<masterclipid>masterclip-74</masterclipid>
						<name>Latter bitteliten.wav</name>
						<enabled>TRUE</enabled>
						<duration>53</duration>
						<rate>
							<timebase>25</timebase>
							<ntsc>FALSE</ntsc>
						</rate>
						<start>7525</start>
						<end>7578</end>
						<in>0</in>
						<out>53</out>
						<pproTicksIn>0</pproTicksIn>
						<pproTicksOut>538513920000</pproTicksOut>
						<file id="file-70"/>
						<sourcetrack>
							<mediatype>audio</mediatype>
							<trackindex>1</trackindex>
						</sourcetrack>
						<link>
							<linkclipref>clipitem-2394</linkclipref>
							<mediatype>audio</mediatype>
							<trackindex>17</trackindex>
							<clipindex>26</clipindex>
							<groupindex>1</groupindex>
						</link>
						<link>
							<linkclipref>clipitem-2565</linkclipref>
							<mediatype>audio</mediatype>
							<trackindex>18</trackindex>
							<clipindex>20</clipindex>
							<groupindex>1</groupindex>
						</link>
						<logginginfo>
							<description></description>
							<scene></scene>
							<shottake></shottake>
							<lognote></lognote>
						</logginginfo>
						<labels>
							<label2>Caribbean</label2>
						</labels>
					</clipitem>
					<clipitem id="clipitem-2395" premiereChannelType="stereo">
						<masterclipid>masterclip-77</masterclipid>
						<name>Latter kule liten.wav</name>
						<enabled>TRUE</enabled>
						<duration>76</duration>
						<rate>
							<timebase>25</timebase>
							<ntsc>FALSE</ntsc>
						</rate>
						<start>8093</start>
						<end>8169</end>
						<in>0</in>
						<out>76</out>
						<pproTicksIn>0</pproTicksIn>
						<pproTicksOut>772208640000</pproTicksOut>
						<file id="file-73">
							<name>Latter kule liten.wav</name>
							<pathurl>file://localhost/Volumes/Brakka/AdobeLager/QUIZ%20-%20brakka/RA%cc%8aSTOFF%20LYD/Publikumsreaksjoner/Fra%201996/Latter%20kule%20liten.wav</pathurl>
							<rate>
								<timebase>30</timebase>
								<ntsc>TRUE</ntsc>
							</rate>
							<duration>92</duration>
							<timecode>
								<rate>
									<timebase>30</timebase>
									<ntsc>TRUE</ntsc>
								</rate>
								<string>13;37;36;07</string>
								<frame>1470215</frame>
								<displayformat>DF</displayformat>
								<reel>
									<name></name>
								</reel>
							</timecode>
							<media>
								<audio>
									<samplecharacteristics>
										<depth>16</depth>
										<samplerate>48000</samplerate>
									</samplecharacteristics>
									<channelcount>2</channelcount>
								</audio>
							</media>
						</file>
						<sourcetrack>
							<mediatype>audio</mediatype>
							<trackindex>1</trackindex>
						</sourcetrack>
						<link>
							<linkclipref>clipitem-2395</linkclipref>
							<mediatype>audio</mediatype>
							<trackindex>17</trackindex>
							<clipindex>27</clipindex>
							<groupindex>1</groupindex>
						</link>
						<link>
							<linkclipref>clipitem-2566</linkclipref>
							<mediatype>audio</mediatype>
							<trackindex>18</trackindex>
							<clipindex>21</clipindex>
							<groupindex>1</groupindex>
						</link>
						<logginginfo>
							<description></description>
							<scene></scene>
							<shottake></shottake>
							<lognote></lognote>
						</logginginfo>
						<labels>
							<label2>Caribbean</label2>
						</labels>
					</clipitem>
					<clipitem id="clipitem-2396" premiereChannelType="stereo">
						<masterclipid>masterclip-78</masterclipid>
						<name>Humring.wav</name>
						<enabled>TRUE</enabled>
						<duration>62</duration>
						<rate>
							<timebase>25</timebase>
							<ntsc>FALSE</ntsc>
						</rate>
						<start>8380</start>
						<end>8442</end>
						<in>0</in>
						<out>62</out>
						<pproTicksIn>0</pproTicksIn>
						<pproTicksOut>629959680000</pproTicksOut>
						<file id="file-74">
							<name>Humring.wav</name>
							<pathurl>file://localhost/Volumes/Brakka/AdobeLager/QUIZ%20-%20brakka/RA%cc%8aSTOFF%20LYD/Publikumsreaksjoner/Fra%201996/Humring.wav</pathurl>
							<rate>
								<timebase>30</timebase>
								<ntsc>TRUE</ntsc>
							</rate>
							<duration>75</duration>
							<timecode>
								<rate>
									<timebase>30</timebase>
									<ntsc>TRUE</ntsc>
								</rate>
								<string>13;07;52;06</string>
								<frame>1416748</frame>
								<displayformat>DF</displayformat>
								<reel>
									<name></name>
								</reel>
							</timecode>
							<media>
								<audio>
									<samplecharacteristics>
										<depth>16</depth>
										<samplerate>48000</samplerate>
									</samplecharacteristics>
									<channelcount>2</channelcount>
								</audio>
							</media>
						</file>
						<sourcetrack>
							<mediatype>audio</mediatype>
							<trackindex>1</trackindex>
						</sourcetrack>
						<link>
							<linkclipref>clipitem-2396</linkclipref>
							<mediatype>audio</mediatype>
							<trackindex>17</trackindex>
							<clipindex>28</clipindex>
							<groupindex>1</groupindex>
						</link>
						<link>
							<linkclipref>clipitem-2567</linkclipref>
							<mediatype>audio</mediatype>
							<trackindex>18</trackindex>
							<clipindex>22</clipindex>
							<groupindex>1</groupindex>
						</link>
						<logginginfo>
							<description></description>
							<scene></scene>
							<shottake></shottake>
							<lognote></lognote>
						</logginginfo>
						<labels>
							<label2>Caribbean</label2>
						</labels>
					</clipitem>
					<clipitem id="clipitem-2397" premiereChannelType="stereo">
						<masterclipid>masterclip-74</masterclipid>
						<name>Latter bitteliten.wav</name>
						<enabled>TRUE</enabled>
						<duration>53</duration>
						<rate>
							<timebase>25</timebase>
							<ntsc>FALSE</ntsc>
						</rate>
						<start>8476</start>
						<end>8529</end>
						<in>0</in>
						<out>53</out>
						<pproTicksIn>0</pproTicksIn>
						<pproTicksOut>538513920000</pproTicksOut>
						<file id="file-70"/>
						<sourcetrack>
							<mediatype>audio</mediatype>
							<trackindex>1</trackindex>
						</sourcetrack>
						<link>
							<linkclipref>clipitem-2397</linkclipref>
							<mediatype>audio</mediatype>
							<trackindex>17</trackindex>
							<clipindex>29</clipindex>
							<groupindex>1</groupindex>
						</link>
						<link>
							<linkclipref>clipitem-2568</linkclipref>
							<mediatype>audio</mediatype>
							<trackindex>18</trackindex>
							<clipindex>23</clipindex>
							<groupindex>1</groupindex>
						</link>
						<logginginfo>
							<description></description>
							<scene></scene>
							<shottake></shottake>
							<lognote></lognote>
						</logginginfo>
						<labels>
							<label2>Caribbean</label2>
						</labels>
					</clipitem>
					<clipitem id="clipitem-2398" premiereChannelType="stereo">
						<masterclipid>masterclip-79</masterclipid>
						<name>Latter dempet.wav</name>
						<enabled>TRUE</enabled>
						<duration>66</duration>
						<rate>
							<timebase>25</timebase>
							<ntsc>FALSE</ntsc>
						</rate>
						<start>8607</start>
						<end>8673</end>
						<in>0</in>
						<out>66</out>
						<pproTicksIn>0</pproTicksIn>
						<pproTicksOut>670602240000</pproTicksOut>
						<file id="file-75">
							<name>Latter dempet.wav</name>
							<pathurl>file://localhost/Volumes/Brakka/AdobeLager/QUIZ%20-%20brakka/RA%cc%8aSTOFF%20LYD/Publikumsreaksjoner/Fra%201986/Latter%20dempet.wav</pathurl>
							<rate>
								<timebase>30</timebase>
								<ntsc>TRUE</ntsc>
							</rate>
							<duration>79</duration>
							<timecode>
								<rate>
									<timebase>30</timebase>
									<ntsc>TRUE</ntsc>
								</rate>
								<string>14;34;47;09</string>
								<frame>1573045</frame>
								<displayformat>DF</displayformat>
								<reel>
									<name></name>
								</reel>
							</timecode>
							<media>
								<audio>
									<samplecharacteristics>
										<depth>16</depth>
										<samplerate>48000</samplerate>
									</samplecharacteristics>
									<channelcount>2</channelcount>
								</audio>
							</media>
						</file>
						<sourcetrack>
							<mediatype>audio</mediatype>
							<trackindex>1</trackindex>
						</sourcetrack>
						<link>
							<linkclipref>clipitem-2398</linkclipref>
							<mediatype>audio</mediatype>
							<trackindex>17</trackindex>
							<clipindex>30</clipindex>
							<groupindex>1</groupindex>
						</link>
						<link>
							<linkclipref>clipitem-2569</linkclipref>
							<mediatype>audio</mediatype>
							<trackindex>18</trackindex>
							<clipindex>24</clipindex>
							<groupindex>1</groupindex>
						</link>
						<logginginfo>
							<description></description>
							<scene></scene>
							<shottake></shottake>
							<lognote></lognote>
						</logginginfo>
						<labels>
							<label2>Caribbean</label2>
						</labels>
					</clipitem>
					<clipitem id="clipitem-2399" premiereChannelType="stereo">
						<masterclipid>masterclip-80</masterclipid>
						<name>Latter behersket.wav</name>
						<enabled>TRUE</enabled>
						<duration>124</duration>
						<rate>
							<timebase>25</timebase>
							<ntsc>FALSE</ntsc>
						</rate>
						<start>8824</start>
						<end>8948</end>
						<in>0</in>
						<out>124</out>
						<pproTicksIn>0</pproTicksIn>
						<pproTicksOut>1259919360000</pproTicksOut>
						<file id="file-76">
							<name>Latter behersket.wav</name>
							<pathurl>file://localhost/Volumes/Brakka/AdobeLager/QUIZ%20-%20brakka/RA%cc%8aSTOFF%20LYD/Publikumsreaksjoner/Fra%201986/Latter%20behersket.wav</pathurl>
							<rate>
								<timebase>30</timebase>
								<ntsc>TRUE</ntsc>
							</rate>
							<duration>149</duration>
							<timecode>
								<rate>
									<timebase>30</timebase>
									<ntsc>TRUE</ntsc>
								</rate>
								<string>14;23;00;17</string>
								<frame>1551863</frame>
								<displayformat>DF</displayformat>
								<reel>
									<name></name>
								</reel>
							</timecode>
							<media>
								<audio>
									<samplecharacteristics>
										<depth>16</depth>
										<samplerate>48000</samplerate>
									</samplecharacteristics>
									<channelcount>2</channelcount>
								</audio>
							</media>
						</file>
						<sourcetrack>
							<mediatype>audio</mediatype>
							<trackindex>1</trackindex>
						</sourcetrack>
						<link>
							<linkclipref>clipitem-2399</linkclipref>
							<mediatype>audio</mediatype>
							<trackindex>17</trackindex>
							<clipindex>31</clipindex>
							<groupindex>1</groupindex>
						</link>
						<link>
							<linkclipref>clipitem-2570</linkclipref>
							<mediatype>audio</mediatype>
							<trackindex>18</trackindex>
							<clipindex>25</clipindex>
							<groupindex>1</groupindex>
						</link>
						<logginginfo>
							<description></description>
							<scene></scene>
							<shottake></shottake>
							<lognote></lognote>
						</logginginfo>
						<labels>
							<label2>Caribbean</label2>
						</labels>
					</clipitem>
					<clipitem id="clipitem-2400" premiereChannelType="stereo">
						<masterclipid>masterclip-81</masterclipid>
						<name>Appalus anerkjennende med hoi.wav</name>
						<enabled>TRUE</enabled>
						<duration>168</duration>
						<rate>
							<timebase>25</timebase>
							<ntsc>FALSE</ntsc>
						</rate>
						<start>9029</start>
						<end>9152</end>
						<in>0</in>
						<out>123</out>
						<pproTicksIn>0</pproTicksIn>
						<pproTicksOut>1249758720000</pproTicksOut>
						<file id="file-77">
							<name>Appalus anerkjennende med hoi.wav</name>
							<pathurl>file://localhost/Volumes/Brakka/AdobeLager/QUIZ%20-%20brakka/RA%cc%8aSTOFF%20LYD/Publikumsreaksjoner/Fra%201996/Appalus%20anerkjennende%20med%20hoi.wav</pathurl>
							<rate>
								<timebase>30</timebase>
								<ntsc>TRUE</ntsc>
							</rate>
							<duration>201</duration>
							<timecode>
								<rate>
									<timebase>30</timebase>
									<ntsc>TRUE</ntsc>
								</rate>
								<string>13;53;51;11</string>
								<frame>1499441</frame>
								<displayformat>DF</displayformat>
								<reel>
									<name></name>
								</reel>
							</timecode>
							<media>
								<audio>
									<samplecharacteristics>
										<depth>16</depth>
										<samplerate>48000</samplerate>
									</samplecharacteristics>
									<channelcount>2</channelcount>
								</audio>
							</media>
						</file>
						<sourcetrack>
							<mediatype>audio</mediatype>
							<trackindex>1</trackindex>
						</sourcetrack>
						<link>
							<linkclipref>clipitem-2400</linkclipref>
							<mediatype>audio</mediatype>
							<trackindex>17</trackindex>
							<clipindex>32</clipindex>
							<groupindex>1</groupindex>
						</link>
						<link>
							<linkclipref>clipitem-2571</linkclipref>
							<mediatype>audio</mediatype>
							<trackindex>18</trackindex>
							<clipindex>26</clipindex>
							<groupindex>1</groupindex>
						</link>
						<logginginfo>
							<description></description>
							<scene></scene>
							<shottake></shottake>
							<lognote></lognote>
						</logginginfo>
						<labels>
							<label2>Caribbean</label2>
						</labels>
					</clipitem>
					<clipitem id="clipitem-2401" premiereChannelType="stereo">
						<masterclipid>masterclip-81</masterclipid>
						<name>Appalus anerkjennende med hoi.wav</name>
						<enabled>TRUE</enabled>
						<duration>168</duration>
						<rate>
							<timebase>25</timebase>
							<ntsc>FALSE</ntsc>
						</rate>
						<start>9152</start>
						<end>9214</end>
						<in>106</in>
						<out>168</out>
						<pproTicksIn>1077027840000</pproTicksIn>
						<pproTicksOut>1706987520000</pproTicksOut>
						<file id="file-77"/>
						<sourcetrack>
							<mediatype>audio</mediatype>
							<trackindex>1</trackindex>
						</sourcetrack>
						<link>
							<linkclipref>clipitem-2401</linkclipref>
							<mediatype>audio</mediatype>
							<trackindex>17</trackindex>
							<clipindex>33</clipindex>
							<groupindex>1</groupindex>
						</link>
						<link>
							<linkclipref>clipitem-2572</linkclipref>
							<mediatype>audio</mediatype>
							<trackindex>18</trackindex>
							<clipindex>27</clipindex>
							<groupindex>1</groupindex>
						</link>
						<logginginfo>
							<description></description>
							<scene></scene>
							<shottake></shottake>
							<lognote></lognote>
						</logginginfo>
						<labels>
							<label2>Caribbean</label2>
						</labels>
					</clipitem>
					<clipitem id="clipitem-2402" premiereChannelType="stereo">
						<masterclipid>masterclip-82</masterclipid>
						<name>Lite JA, Latter, kort dempet .wav</name>
						<enabled>TRUE</enabled>
						<duration>46</duration>
						<rate>
							<timebase>25</timebase>
							<ntsc>FALSE</ntsc>
						</rate>
						<start>9462</start>
						<end>9508</end>
						<in>0</in>
						<out>46</out>
						<pproTicksIn>0</pproTicksIn>
						<pproTicksOut>467389440000</pproTicksOut>
						<file id="file-78">
							<name>Lite JA, Latter, kort dempet .wav</name>
							<pathurl>file://localhost/Volumes/Brakka/AdobeLager/QUIZ%20-%20brakka/RA%cc%8aSTOFF%20LYD/Publikumsreaksjoner/Fra%201980/Lite%20JA,%20Latter,%20kort%20dempet%20.wav</pathurl>
							<rate>
								<timebase>30</timebase>
								<ntsc>TRUE</ntsc>
							</rate>
							<duration>55</duration>
							<timecode>
								<rate>
									<timebase>30</timebase>
									<ntsc>TRUE</ntsc>
								</rate>
								<string>13;01;21;17</string>
								<frame>1405041</frame>
								<displayformat>DF</displayformat>
								<reel>
									<name></name>
								</reel>
							</timecode>
							<media>
								<audio>
									<samplecharacteristics>
										<depth>16</depth>
										<samplerate>48000</samplerate>
									</samplecharacteristics>
									<channelcount>2</channelcount>
								</audio>
							</media>
						</file>
						<sourcetrack>
							<mediatype>audio</mediatype>
							<trackindex>1</trackindex>
						</sourcetrack>
						<link>
							<linkclipref>clipitem-2402</linkclipref>
							<mediatype>audio</mediatype>
							<trackindex>17</trackindex>
							<clipindex>34</clipindex>
							<groupindex>1</groupindex>
						</link>
						<link>
							<linkclipref>clipitem-2573</linkclipref>
							<mediatype>audio</mediatype>
							<trackindex>18</trackindex>
							<clipindex>28</clipindex>
							<groupindex>1</groupindex>
						</link>
						<logginginfo>
							<description></description>
							<scene></scene>
							<shottake></shottake>
							<lognote></lognote>
						</logginginfo>
						<labels>
							<label2>Caribbean</label2>
						</labels>
					</clipitem>
					<clipitem id="clipitem-2403" premiereChannelType="stereo">
						<masterclipid>masterclip-83</masterclipid>
						<name>Kort, meget behersket latter.wav</name>
						<enabled>TRUE</enabled>
						<duration>46</duration>
						<rate>
							<timebase>25</timebase>
							<ntsc>FALSE</ntsc>
						</rate>
						<start>9593</start>
						<end>9639</end>
						<in>0</in>
						<out>46</out>
						<pproTicksIn>0</pproTicksIn>
						<pproTicksOut>467389440000</pproTicksOut>
						<file id="file-79">
							<name>Kort, meget behersket latter.wav</name>
							<pathurl>file://localhost/Volumes/Brakka/AdobeLager/QUIZ%20-%20brakka/RA%cc%8aSTOFF%20LYD/Publikumsreaksjoner/Fra%201980/Kort,%20meget%20behersket%20latter.wav</pathurl>
							<rate>
								<timebase>30</timebase>
								<ntsc>TRUE</ntsc>
							</rate>
							<duration>55</duration>
							<timecode>
								<rate>
									<timebase>30</timebase>
									<ntsc>TRUE</ntsc>
								</rate>
								<string>14;37;34;00</string>
								<frame>1578040</frame>
								<displayformat>DF</displayformat>
								<reel>
									<name></name>
								</reel>
							</timecode>
							<media>
								<audio>
									<samplecharacteristics>
										<depth>16</depth>
										<samplerate>48000</samplerate>
									</samplecharacteristics>
									<channelcount>2</channelcount>
								</audio>
							</media>
						</file>
						<sourcetrack>
							<mediatype>audio</mediatype>
							<trackindex>1</trackindex>
						</sourcetrack>
						<link>
							<linkclipref>clipitem-2403</linkclipref>
							<mediatype>audio</mediatype>
							<trackindex>17</trackindex>
							<clipindex>35</clipindex>
							<groupindex>1</groupindex>
						</link>
						<link>
							<linkclipref>clipitem-2574</linkclipref>
							<mediatype>audio</mediatype>
							<trackindex>18</trackindex>
							<clipindex>29</clipindex>
							<groupindex>1</groupindex>
						</link>
						<logginginfo>
							<description></description>
							<scene></scene>
							<shottake></shottake>
							<lognote></lognote>
						</logginginfo>
						<labels>
							<label2>Caribbean</label2>
						</labels>
					</clipitem>
					<clipitem id="clipitem-2404" premiereChannelType="stereo">
						<masterclipid>masterclip-84</masterclipid>
						<name>Kort moderat latter.wav</name>
						<enabled>TRUE</enabled>
						<duration>45</duration>
						<rate>
							<timebase>25</timebase>
							<ntsc>FALSE</ntsc>
						</rate>
						<start>10287</start>
						<end>10332</end>
						<in>0</in>
						<out>45</out>
						<pproTicksIn>0</pproTicksIn>
						<pproTicksOut>457228800000</pproTicksOut>
						<file id="file-80">
							<name>Kort moderat latter.wav</name>
							<pathurl>file://localhost/Volumes/Brakka/AdobeLager/QUIZ%20-%20brakka/RA%cc%8aSTOFF%20LYD/Publikumsreaksjoner/Fra%201975/Kort%20moderat%20latter.wav</pathurl>
							<rate>
								<timebase>30</timebase>
								<ntsc>TRUE</ntsc>
							</rate>
							<duration>54</duration>
							<timecode>
								<rate>
									<timebase>30</timebase>
									<ntsc>TRUE</ntsc>
								</rate>
								<string>14;10;41;12</string>
								<frame>1529712</frame>
								<displayformat>DF</displayformat>
								<reel>
									<name></name>
								</reel>
							</timecode>
							<media>
								<audio>
									<samplecharacteristics>
										<depth>16</depth>
										<samplerate>48000</samplerate>
									</samplecharacteristics>
									<channelcount>2</channelcount>
								</audio>
							</media>
						</file>
						<sourcetrack>
							<mediatype>audio</mediatype>
							<trackindex>1</trackindex>
						</sourcetrack>
						<link>
							<linkclipref>clipitem-2404</linkclipref>
							<mediatype>audio</mediatype>
							<trackindex>17</trackindex>
							<clipindex>36</clipindex>
							<groupindex>1</groupindex>
						</link>
						<link>
							<linkclipref>clipitem-2575</linkclipref>
							<mediatype>audio</mediatype>
							<trackindex>18</trackindex>
							<clipindex>30</clipindex>
							<groupindex>1</groupindex>
						</link>
						<logginginfo>
							<description></description>
							<scene></scene>
							<shottake></shottake>
							<lognote></lognote>
						</logginginfo>
						<labels>
							<label2>Caribbean</label2>
						</labels>
					</clipitem>
					<clipitem id="clipitem-2405" premiereChannelType="stereo">
						<masterclipid>masterclip-10</masterclipid>
						<name>NNFA80750005AA.mxf</name>
						<enabled>TRUE</enabled>
						<duration>81126</duration>
						<rate>
							<timebase>25</timebase>
							<ntsc>FALSE</ntsc>
						</rate>
						<start>10559</start>
						<end>-1</end>
						<in>48682</in>
						<out>49024</out>
						<pproTicksIn>494640276480000</pproTicksIn>
						<pproTicksOut>498115215360000</pproTicksOut>
						<file id="file-8"/>
						<sourcetrack>
							<mediatype>audio</mediatype>
							<trackindex>1</trackindex>
						</sourcetrack>
							<filter>
								<effect>
									<name>Audio Levels</name>
									<effectid>audiolevels</effectid>
									<effectcategory>audiolevels</effectcategory>
									<effecttype>audiolevels</effecttype>
									<mediatype>audio</mediatype>
									<parameter authoringApp="PremierePro">
										<parameterid>level</parameterid>
										<name>Level</name>
										<valuemin>0</valuemin>
										<valuemax>3.98109</valuemax>
										<value>0.99763</value>
									</parameter>
								</effect>
							</filter>
						<link>
							<linkclipref>clipitem-299</linkclipref>
							<mediatype>video</mediatype>
							<trackindex>3</trackindex>
							<clipindex>29</clipindex>
						</link>
						<link>
							<linkclipref>clipitem-2405</linkclipref>
							<mediatype>audio</mediatype>
							<trackindex>17</trackindex>
							<clipindex>37</clipindex>
							<groupindex>1</groupindex>
						</link>
						<link>
							<linkclipref>clipitem-2576</linkclipref>
							<mediatype>audio</mediatype>
							<trackindex>18</trackindex>
							<clipindex>31</clipindex>
							<groupindex>1</groupindex>
						</link>
						<logginginfo>
							<description></description>
							<scene></scene>
							<shottake></shottake>
							<lognote></lognote>
						</logginginfo>
						<labels>
							<label2>Iris</label2>
						</labels>
					</clipitem>
					<transitionitem>
						<start>10897</start>
						<end>10901</end>
						<alignment>end-black</alignment>
						<cutPointTicks>40642560000</cutPointTicks>
						<rate>
							<timebase>25</timebase>
							<ntsc>FALSE</ntsc>
						</rate>
						<effect>
							<name>Cross Fade (+3dB)</name>
							<effectid>KGAudioTransCrossFade3dB</effectid>
							<effecttype>transition</effecttype>
							<mediatype>audio</mediatype>
							<wipecode>0</wipecode>
							<wipeaccuracy>100</wipeaccuracy>
							<startratio>0</startratio>
							<endratio>1</endratio>
							<reverse>FALSE</reverse>
						</effect>
					</transitionitem>
					<clipitem id="clipitem-2406" premiereChannelType="stereo">
						<masterclipid>masterclip-85</masterclipid>
						<name>Latter, liten.wav</name>
						<enabled>TRUE</enabled>
						<duration>41</duration>
						<rate>
							<timebase>25</timebase>
							<ntsc>FALSE</ntsc>
						</rate>
						<start>11240</start>
						<end>11281</end>
						<in>0</in>
						<out>41</out>
						<pproTicksIn>0</pproTicksIn>
						<pproTicksOut>416586240000</pproTicksOut>
						<file id="file-81">
							<name>Latter, liten.wav</name>
							<pathurl>file://localhost/Volumes/Brakka/AdobeLager/QUIZ%20-%20brakka/RA%cc%8aSTOFF%20LYD/Publikumsreaksjoner/Fra%201980/Latter,%20liten.wav</pathurl>
							<rate>
								<timebase>30</timebase>
								<ntsc>TRUE</ntsc>
							</rate>
							<duration>49</duration>
							<timecode>
								<rate>
									<timebase>30</timebase>
									<ntsc>TRUE</ntsc>
								</rate>
								<string>13;13;17;14</string>
								<frame>1426496</frame>
								<displayformat>DF</displayformat>
								<reel>
									<name></name>
								</reel>
							</timecode>
							<media>
								<audio>
									<samplecharacteristics>
										<depth>16</depth>
										<samplerate>48000</samplerate>
									</samplecharacteristics>
									<channelcount>2</channelcount>
								</audio>
							</media>
						</file>
						<sourcetrack>
							<mediatype>audio</mediatype>
							<trackindex>1</trackindex>
						</sourcetrack>
						<link>
							<linkclipref>clipitem-2406</linkclipref>
							<mediatype>audio</mediatype>
							<trackindex>17</trackindex>
							<clipindex>39</clipindex>
							<groupindex>1</groupindex>
						</link>
						<link>
							<linkclipref>clipitem-2577</linkclipref>
							<mediatype>audio</mediatype>
							<trackindex>18</trackindex>
							<clipindex>33</clipindex>
							<groupindex>1</groupindex>
						</link>
						<logginginfo>
							<description></description>
							<scene></scene>
							<shottake></shottake>
							<lognote></lognote>
						</logginginfo>
						<labels>
							<label2>Caribbean</label2>
						</labels>
					</clipitem>
					<clipitem id="clipitem-2407" premiereChannelType="stereo">
						<masterclipid>masterclip-86</masterclipid>
						<name>Latter liten kort 1 sek.wav</name>
						<enabled>TRUE</enabled>
						<duration>42</duration>
						<rate>
							<timebase>25</timebase>
							<ntsc>FALSE</ntsc>
						</rate>
						<start>12007</start>
						<end>12049</end>
						<in>0</in>
						<out>42</out>
						<pproTicksIn>0</pproTicksIn>
						<pproTicksOut>426746880000</pproTicksOut>
						<file id="file-82">
							<name>Latter liten kort 1 sek.wav</name>
							<pathurl>file://localhost/Volumes/Brakka/AdobeLager/QUIZ%20-%20brakka/RA%cc%8aSTOFF%20LYD/Publikumsreaksjoner/Fra%201986/Latter%20liten%20kort%201%20sek.wav</pathurl>
							<rate>
								<timebase>30</timebase>
								<ntsc>TRUE</ntsc>
							</rate>
							<duration>51</duration>
							<timecode>
								<rate>
									<timebase>30</timebase>
									<ntsc>TRUE</ntsc>
								</rate>
								<string>13;55;58;01</string>
								<frame>1503237</frame>
								<displayformat>DF</displayformat>
								<reel>
									<name></name>
								</reel>
							</timecode>
							<media>
								<audio>
									<samplecharacteristics>
										<depth>16</depth>
										<samplerate>48000</samplerate>
									</samplecharacteristics>
									<channelcount>2</channelcount>
								</audio>
							</media>
						</file>
						<sourcetrack>
							<mediatype>audio</mediatype>
							<trackindex>1</trackindex>
						</sourcetrack>
						<link>
							<linkclipref>clipitem-2407</linkclipref>
							<mediatype>audio</mediatype>
							<trackindex>17</trackindex>
							<clipindex>40</clipindex>
							<groupindex>1</groupindex>
						</link>
						<link>
							<linkclipref>clipitem-2578</linkclipref>
							<mediatype>audio</mediatype>
							<trackindex>18</trackindex>
							<clipindex>34</clipindex>
							<groupindex>1</groupindex>
						</link>
						<logginginfo>
							<description></description>
							<scene></scene>
							<shottake></shottake>
							<lognote></lognote>
						</logginginfo>
						<labels>
							<label2>Caribbean</label2>
						</labels>
					</clipitem>
					<clipitem id="clipitem-2408" premiereChannelType="stereo">
						<masterclipid>masterclip-26</masterclipid>
						<name>fk-05-hareide-3brodre-r.mxf</name>
						<enabled>TRUE</enabled>
						<duration>3876</duration>
						<rate>
							<timebase>25</timebase>
							<ntsc>FALSE</ntsc>
						</rate>
						<start>12284</start>
						<end>-1</end>
						<in>258</in>
						<out>478</out>
						<pproTicksIn>2621445120000</pproTicksIn>
						<pproTicksOut>4856785920000</pproTicksOut>
						<file id="file-22"/>
						<sourcetrack>
							<mediatype>audio</mediatype>
							<trackindex>1</trackindex>
						</sourcetrack>
							<filter>
								<effect>
									<name>Audio Levels</name>
									<effectid>audiolevels</effectid>
									<effectcategory>audiolevels</effectcategory>
									<effecttype>audiolevels</effecttype>
									<mediatype>audio</mediatype>
									<parameter authoringApp="PremierePro">
										<parameterid>level</parameterid>
										<name>Level</name>
										<valuemin>0</valuemin>
										<valuemax>3.98109</valuemax>
										<value>0.792446</value>
									</parameter>
								</effect>
							</filter>
						<link>
							<linkclipref>clipitem-2408</linkclipref>
							<mediatype>audio</mediatype>
							<trackindex>17</trackindex>
							<clipindex>41</clipindex>
							<groupindex>1</groupindex>
						</link>
						<link>
							<linkclipref>clipitem-2579</linkclipref>
							<mediatype>audio</mediatype>
							<trackindex>18</trackindex>
							<clipindex>35</clipindex>
							<groupindex>1</groupindex>
						</link>
						<logginginfo>
							<description></description>
							<scene></scene>
							<shottake></shottake>
							<lognote></lognote>
						</logginginfo>
						<labels>
							<label2>Iris</label2>
						</labels>
					</clipitem>
					<transitionitem>
						<start>12491</start>
						<end>12504</end>
						<alignment>center</alignment>
						<cutPointTicks>60963840000</cutPointTicks>
						<rate>
							<timebase>25</timebase>
							<ntsc>FALSE</ntsc>
						</rate>
						<effect>
							<name>Cross Fade (+3dB)</name>
							<effectid>KGAudioTransCrossFade3dB</effectid>
							<effecttype>transition</effecttype>
							<mediatype>audio</mediatype>
							<wipecode>0</wipecode>
							<wipeaccuracy>100</wipeaccuracy>
							<startratio>0</startratio>
							<endratio>1</endratio>
							<reverse>FALSE</reverse>
						</effect>
					</transitionitem>
					<clipitem id="clipitem-2409" premiereChannelType="stereo">
						<masterclipid>masterclip-26</masterclipid>
						<name>fk-05-hareide-3brodre-r.mxf</name>
						<enabled>TRUE</enabled>
						<duration>3876</duration>
						<rate>
							<timebase>25</timebase>
							<ntsc>FALSE</ntsc>
						</rate>
						<start>-1</start>
						<end>-1</end>
						<in>1887</in>
						<out>2590</out>
						<pproTicksIn>19173127680000</pproTicksIn>
						<pproTicksOut>26316057600000</pproTicksOut>
						<file id="file-22"/>
						<sourcetrack>
							<mediatype>audio</mediatype>
							<trackindex>1</trackindex>
						</sourcetrack>
							<filter>
								<effect>
									<name>Audio Levels</name>
									<effectid>audiolevels</effectid>
									<effectcategory>audiolevels</effectcategory>
									<effecttype>audiolevels</effecttype>
									<mediatype>audio</mediatype>
									<parameter authoringApp="PremierePro">
										<parameterid>level</parameterid>
										<name>Level</name>
										<valuemin>0</valuemin>
										<valuemax>3.98109</valuemax>
										<value>0.99763</value>
									</parameter>
								</effect>
							</filter>
						<link>
							<linkclipref>clipitem-2409</linkclipref>
							<mediatype>audio</mediatype>
							<trackindex>17</trackindex>
							<clipindex>43</clipindex>
							<groupindex>1</groupindex>
						</link>
						<link>
							<linkclipref>clipitem-2580</linkclipref>
							<mediatype>audio</mediatype>
							<trackindex>18</trackindex>
							<clipindex>37</clipindex>
							<groupindex>1</groupindex>
						</link>
						<logginginfo>
							<description></description>
							<scene></scene>
							<shottake></shottake>
							<lognote></lognote>
						</logginginfo>
						<labels>
							<label2>Iris</label2>
						</labels>
					</clipitem>
					<transitionitem>
						<start>13186</start>
						<end>13194</end>
						<alignment>end-black</alignment>
						<cutPointTicks>81285120000</cutPointTicks>
						<rate>
							<timebase>25</timebase>
							<ntsc>FALSE</ntsc>
						</rate>
						<effect>
							<name>Cross Fade (+3dB)</name>
							<effectid>KGAudioTransCrossFade3dB</effectid>
							<effecttype>transition</effecttype>
							<mediatype>audio</mediatype>
							<wipecode>0</wipecode>
							<wipeaccuracy>100</wipeaccuracy>
							<startratio>0</startratio>
							<endratio>1</endratio>
							<reverse>FALSE</reverse>
						</effect>
					</transitionitem>
					<clipitem id="clipitem-2410" premiereChannelType="stereo">
						<masterclipid>masterclip-87</masterclipid>
						<name>HOTorNOT-KJENDISTOPPEN-Apollo_SMX_143_63__Bumper_Funky_1__Jeremy_A._Sweet.mp3</name>
						<enabled>TRUE</enabled>
						<duration>248</duration>
						<rate>
							<timebase>25</timebase>
							<ntsc>FALSE</ntsc>
						</rate>
						<start>13353</start>
						<end>13557</end>
						<in>0</in>
						<out>204</out>
						<pproTicksIn>0</pproTicksIn>
						<pproTicksOut>2072770560000</pproTicksOut>
						<file id="file-83">
							<name>HOTorNOT-KJENDISTOPPEN-Apollo_SMX_143_63__Bumper_Funky_1__Jeremy_A._Sweet.mp3</name>
							<pathurl>file://localhost/Volumes/Brakka/AdobeLager/QUIZ%20-%20brakka/Musikk/BREAKS/HOTorNOT-KJENDISTOPPEN-Apollo_SMX_143_63__Bumper_Funky_1__Jeremy_A._Sweet.mp3</pathurl>
							<rate>
								<timebase>30</timebase>
								<ntsc>TRUE</ntsc>
							</rate>
							<duration>297</duration>
							<timecode>
								<rate>
									<timebase>30</timebase>
									<ntsc>TRUE</ntsc>
								</rate>
								<string>00;00;00;00</string>
								<frame>0</frame>
								<displayformat>DF</displayformat>
								<reel>
									<name></name>
								</reel>
							</timecode>
							<media>
								<audio>
									<samplecharacteristics>
										<depth>16</depth>
										<samplerate>44100</samplerate>
									</samplecharacteristics>
									<channelcount>2</channelcount>
								</audio>
							</media>
						</file>
						<sourcetrack>
							<mediatype>audio</mediatype>
							<trackindex>1</trackindex>
						</sourcetrack>
							<filter>
								<effect>
									<name>Audio Levels</name>
									<effectid>audiolevels</effectid>
									<effectcategory>audiolevels</effectcategory>
									<effecttype>audiolevels</effecttype>
									<mediatype>audio</mediatype>
									<parameter authoringApp="PremierePro">
										<parameterid>level</parameterid>
										<name>Level</name>
										<valuemin>0</valuemin>
										<valuemax>3.98109</valuemax>
										<value>0.28117</value>
									</parameter>
								</effect>
							</filter>
						<link>
							<linkclipref>clipitem-2410</linkclipref>
							<mediatype>audio</mediatype>
							<trackindex>17</trackindex>
							<clipindex>45</clipindex>
							<groupindex>1</groupindex>
						</link>
						<link>
							<linkclipref>clipitem-2581</linkclipref>
							<mediatype>audio</mediatype>
							<trackindex>18</trackindex>
							<clipindex>39</clipindex>
							<groupindex>1</groupindex>
						</link>
						<logginginfo>
							<description></description>
							<scene></scene>
							<shottake></shottake>
							<lognote></lognote>
						</logginginfo>
						<labels>
							<label2>Caribbean</label2>
						</labels>
					</clipitem>
					<clipitem id="clipitem-2411" premiereChannelType="stereo">
						<masterclipid>masterclip-88</masterclipid>
						<name>Latter hehehe.wav</name>
						<enabled>TRUE</enabled>
						<duration>30</duration>
						<rate>
							<timebase>25</timebase>
							<ntsc>FALSE</ntsc>
						</rate>
						<start>13856</start>
						<end>13886</end>
						<in>0</in>
						<out>30</out>
						<pproTicksIn>0</pproTicksIn>
						<pproTicksOut>304819200000</pproTicksOut>
						<file id="file-84">
							<name>Latter hehehe.wav</name>
							<pathurl>file://localhost/Volumes/Brakka/AdobeLager/QUIZ%20-%20brakka/RA%cc%8aSTOFF%20LYD/Publikumsreaksjoner/Fra%201986/Latter%20hehehe.wav</pathurl>
							<rate>
								<timebase>30</timebase>
								<ntsc>TRUE</ntsc>
							</rate>
							<duration>36</duration>
							<timecode>
								<rate>
									<timebase>30</timebase>
									<ntsc>TRUE</ntsc>
								</rate>
								<string>14;36;59;20</string>
								<frame>1577012</frame>
								<displayformat>DF</displayformat>
								<reel>
									<name></name>
								</reel>
							</timecode>
							<media>
								<audio>
									<samplecharacteristics>
										<depth>16</depth>
										<samplerate>48000</samplerate>
									</samplecharacteristics>
									<channelcount>2</channelcount>
								</audio>
							</media>
						</file>
						<sourcetrack>
							<mediatype>audio</mediatype>
							<trackindex>1</trackindex>
						</sourcetrack>
						<link>
							<linkclipref>clipitem-2411</linkclipref>
							<mediatype>audio</mediatype>
							<trackindex>17</trackindex>
							<clipindex>46</clipindex>
							<groupindex>1</groupindex>
						</link>
						<link>
							<linkclipref>clipitem-2582</linkclipref>
							<mediatype>audio</mediatype>
							<trackindex>18</trackindex>
							<clipindex>40</clipindex>
							<groupindex>1</groupindex>
						</link>
						<logginginfo>
							<description></description>
							<scene></scene>
							<shottake></shottake>
							<lognote></lognote>
						</logginginfo>
						<labels>
							<label2>Caribbean</label2>
						</labels>
					</clipitem>
					<clipitem id="clipitem-2412" premiereChannelType="stereo">
						<masterclipid>masterclip-79</masterclipid>
						<name>Latter dempet.wav</name>
						<enabled>TRUE</enabled>
						<duration>66</duration>
						<rate>
							<timebase>25</timebase>
							<ntsc>FALSE</ntsc>
						</rate>
						<start>14576</start>
						<end>14642</end>
						<in>0</in>
						<out>66</out>
						<pproTicksIn>0</pproTicksIn>
						<pproTicksOut>670602240000</pproTicksOut>
						<file id="file-75"/>
						<sourcetrack>
							<mediatype>audio</mediatype>
							<trackindex>1</trackindex>
						</sourcetrack>
						<link>
							<linkclipref>clipitem-2412</linkclipref>
							<mediatype>audio</mediatype>
							<trackindex>17</trackindex>
							<clipindex>47</clipindex>
							<groupindex>1</groupindex>
						</link>
						<link>
							<linkclipref>clipitem-2583</linkclipref>
							<mediatype>audio</mediatype>
							<trackindex>18</trackindex>
							<clipindex>41</clipindex>
							<groupindex>1</groupindex>
						</link>
						<logginginfo>
							<description></description>
							<scene></scene>
							<shottake></shottake>
							<lognote></lognote>
						</logginginfo>
						<labels>
							<label2>Caribbean</label2>
						</labels>
					</clipitem>
					<clipitem id="clipitem-2413" premiereChannelType="stereo">
						<masterclipid>masterclip-73</masterclipid>
						<name>Klukklatter, kort.wav</name>
						<enabled>TRUE</enabled>
						<duration>56</duration>
						<rate>
							<timebase>25</timebase>
							<ntsc>FALSE</ntsc>
						</rate>
						<start>14851</start>
						<end>14907</end>
						<in>0</in>
						<out>56</out>
						<pproTicksIn>0</pproTicksIn>
						<pproTicksOut>568995840000</pproTicksOut>
						<file id="file-69"/>
						<sourcetrack>
							<mediatype>audio</mediatype>
							<trackindex>1</trackindex>
						</sourcetrack>
							<filter>
								<effect>
									<name>Audio Levels</name>
									<effectid>audiolevels</effectid>
									<effectcategory>audiolevels</effectcategory>
									<effecttype>audiolevels</effecttype>
									<mediatype>audio</mediatype>
									<parameter authoringApp="PremierePro">
										<parameterid>level</parameterid>
										<name>Level</name>
										<valuemin>0</valuemin>
										<valuemax>3.98109</valuemax>
										<value>0.99763</value>
									</parameter>
								</effect>
							</filter>
						<link>
							<linkclipref>clipitem-2413</linkclipref>
							<mediatype>audio</mediatype>
							<trackindex>17</trackindex>
							<clipindex>48</clipindex>
							<groupindex>1</groupindex>
						</link>
						<link>
							<linkclipref>clipitem-2584</linkclipref>
							<mediatype>audio</mediatype>
							<trackindex>18</trackindex>
							<clipindex>42</clipindex>
							<groupindex>1</groupindex>
						</link>
						<logginginfo>
							<description></description>
							<scene></scene>
							<shottake></shottake>
							<lognote></lognote>
						</logginginfo>
						<labels>
							<label2>Caribbean</label2>
						</labels>
					</clipitem>
					<clipitem id="clipitem-2414" premiereChannelType="stereo">
						<masterclipid>masterclip-88</masterclipid>
						<name>Latter hehehe.wav</name>
						<enabled>TRUE</enabled>
						<duration>30</duration>
						<rate>
							<timebase>25</timebase>
							<ntsc>FALSE</ntsc>
						</rate>
						<start>14983</start>
						<end>15013</end>
						<in>0</in>
						<out>30</out>
						<pproTicksIn>0</pproTicksIn>
						<pproTicksOut>304819200000</pproTicksOut>
						<file id="file-84"/>
						<sourcetrack>
							<mediatype>audio</mediatype>
							<trackindex>1</trackindex>
						</sourcetrack>
							<filter>
								<effect>
									<name>Audio Levels</name>
									<effectid>audiolevels</effectid>
									<effectcategory>audiolevels</effectcategory>
									<effecttype>audiolevels</effecttype>
									<mediatype>audio</mediatype>
									<parameter authoringApp="PremierePro">
										<parameterid>level</parameterid>
										<name>Level</name>
										<valuemin>0</valuemin>
										<valuemax>3.98109</valuemax>
										<value>0.99763</value>
									</parameter>
								</effect>
							</filter>
						<link>
							<linkclipref>clipitem-2414</linkclipref>
							<mediatype>audio</mediatype>
							<trackindex>17</trackindex>
							<clipindex>49</clipindex>
							<groupindex>1</groupindex>
						</link>
						<link>
							<linkclipref>clipitem-2585</linkclipref>
							<mediatype>audio</mediatype>
							<trackindex>18</trackindex>
							<clipindex>43</clipindex>
							<groupindex>1</groupindex>
						</link>
						<logginginfo>
							<description></description>
							<scene></scene>
							<shottake></shottake>
							<lognote></lognote>
						</logginginfo>
						<labels>
							<label2>Caribbean</label2>
						</labels>
					</clipitem>
					<clipitem id="clipitem-2415" premiereChannelType="stereo">
						<masterclipid>masterclip-80</masterclipid>
						<name>Latter behersket.wav</name>
						<enabled>TRUE</enabled>
						<duration>124</duration>
						<rate>
							<timebase>25</timebase>
							<ntsc>FALSE</ntsc>
						</rate>
						<start>15016</start>
						<end>15129</end>
						<in>0</in>
						<out>113</out>
						<pproTicksIn>0</pproTicksIn>
						<pproTicksOut>1148152320000</pproTicksOut>
						<file id="file-76"/>
						<sourcetrack>
							<mediatype>audio</mediatype>
							<trackindex>1</trackindex>
						</sourcetrack>
						<link>
							<linkclipref>clipitem-2415</linkclipref>
							<mediatype>audio</mediatype>
							<trackindex>17</trackindex>
							<clipindex>50</clipindex>
							<groupindex>1</groupindex>
						</link>
						<link>
							<linkclipref>clipitem-2586</linkclipref>
							<mediatype>audio</mediatype>
							<trackindex>18</trackindex>
							<clipindex>44</clipindex>
							<groupindex>1</groupindex>
						</link>
						<logginginfo>
							<description></description>
							<scene></scene>
							<shottake></shottake>
							<lognote></lognote>
						</logginginfo>
						<labels>
							<label2>Caribbean</label2>
						</labels>
					</clipitem>
					<clipitem id="clipitem-2416" premiereChannelType="stereo">
						<masterclipid>masterclip-80</masterclipid>
						<name>Latter behersket.wav</name>
						<enabled>TRUE</enabled>
						<duration>124</duration>
						<rate>
							<timebase>25</timebase>
							<ntsc>FALSE</ntsc>
						</rate>
						<start>15129</start>
						<end>15134</end>
						<in>119</in>
						<out>124</out>
						<pproTicksIn>1209116160000</pproTicksIn>
						<pproTicksOut>1259919360000</pproTicksOut>
						<file id="file-76"/>
						<sourcetrack>
							<mediatype>audio</mediatype>
							<trackindex>1</trackindex>
						</sourcetrack>
						<link>
							<linkclipref>clipitem-2416</linkclipref>
							<mediatype>audio</mediatype>
							<trackindex>17</trackindex>
							<clipindex>51</clipindex>
							<groupindex>1</groupindex>
						</link>
						<link>
							<linkclipref>clipitem-2587</linkclipref>
							<mediatype>audio</mediatype>
							<trackindex>18</trackindex>
							<clipindex>45</clipindex>
							<groupindex>1</groupindex>
						</link>
						<logginginfo>
							<description></description>
							<scene></scene>
							<shottake></shottake>
							<lognote></lognote>
						</logginginfo>
						<labels>
							<label2>Caribbean</label2>
						</labels>
					</clipitem>
					<clipitem id="clipitem-2417" premiereChannelType="stereo">
						<masterclipid>masterclip-89</masterclipid>
						<name>Applaus behersket litt hoi 5 sek.wav</name>
						<enabled>TRUE</enabled>
						<duration>125</duration>
						<rate>
							<timebase>25</timebase>
							<ntsc>FALSE</ntsc>
						</rate>
						<start>15166</start>
						<end>15291</end>
						<in>0</in>
						<out>125</out>
						<pproTicksIn>0</pproTicksIn>
						<pproTicksOut>1270080000000</pproTicksOut>
						<file id="file-85">
							<name>Applaus behersket litt hoi 5 sek.wav</name>
							<pathurl>file://localhost/Volumes/Brakka/AdobeLager/QUIZ%20-%20brakka/RA%cc%8aSTOFF%20LYD/Publikumsreaksjoner/Fra%201986/Applaus%20behersket%20litt%20hoi%205%20sek.wav</pathurl>
							<rate>
								<timebase>30</timebase>
								<ntsc>TRUE</ntsc>
							</rate>
							<duration>150</duration>
							<timecode>
								<rate>
									<timebase>30</timebase>
									<ntsc>TRUE</ntsc>
								</rate>
								<string>14;19;55;06</string>
								<frame>1546308</frame>
								<displayformat>DF</displayformat>
								<reel>
									<name></name>
								</reel>
							</timecode>
							<media>
								<audio>
									<samplecharacteristics>
										<depth>16</depth>
										<samplerate>48000</samplerate>
									</samplecharacteristics>
									<channelcount>2</channelcount>
								</audio>
							</media>
						</file>
						<sourcetrack>
							<mediatype>audio</mediatype>
							<trackindex>1</trackindex>
						</sourcetrack>
						<link>
							<linkclipref>clipitem-2417</linkclipref>
							<mediatype>audio</mediatype>
							<trackindex>17</trackindex>
							<clipindex>52</clipindex>
							<groupindex>1</groupindex>
						</link>
						<link>
							<linkclipref>clipitem-2588</linkclipref>
							<mediatype>audio</mediatype>
							<trackindex>18</trackindex>
							<clipindex>46</clipindex>
							<groupindex>1</groupindex>
						</link>
						<logginginfo>
							<description></description>
							<scene></scene>
							<shottake></shottake>
							<lognote></lognote>
						</logginginfo>
						<labels>
							<label2>Caribbean</label2>
						</labels>
					</clipitem>
					<clipitem id="clipitem-2418" premiereChannelType="stereo">
						<masterclipid>masterclip-90</masterclipid>
						<name>Liten behersket latter.wav</name>
						<enabled>TRUE</enabled>
						<duration>60</duration>
						<rate>
							<timebase>25</timebase>
							<ntsc>FALSE</ntsc>
						</rate>
						<start>15830</start>
						<end>15890</end>
						<in>0</in>
						<out>60</out>
						<pproTicksIn>0</pproTicksIn>
						<pproTicksOut>609638400000</pproTicksOut>
						<file id="file-86">
							<name>Liten behersket latter.wav</name>
							<pathurl>file://localhost/Volumes/Brakka/AdobeLager/QUIZ%20-%20brakka/RA%cc%8aSTOFF%20LYD/Publikumsreaksjoner/Fra%201980/Liten%20behersket%20latter.wav</pathurl>
							<rate>
								<timebase>30</timebase>
								<ntsc>TRUE</ntsc>
							</rate>
							<duration>72</duration>
							<timecode>
								<rate>
									<timebase>30</timebase>
									<ntsc>TRUE</ntsc>
								</rate>
								<string>13;47;03;04</string>
								<frame>1487204</frame>
								<displayformat>DF</displayformat>
								<reel>
									<name></name>
								</reel>
							</timecode>
							<media>
								<audio>
									<samplecharacteristics>
										<depth>16</depth>
										<samplerate>48000</samplerate>
									</samplecharacteristics>
									<channelcount>2</channelcount>
								</audio>
							</media>
						</file>
						<sourcetrack>
							<mediatype>audio</mediatype>
							<trackindex>1</trackindex>
						</sourcetrack>
						<link>
							<linkclipref>clipitem-2418</linkclipref>
							<mediatype>audio</mediatype>
							<trackindex>17</trackindex>
							<clipindex>53</clipindex>
							<groupindex>1</groupindex>
						</link>
						<link>
							<linkclipref>clipitem-2589</linkclipref>
							<mediatype>audio</mediatype>
							<trackindex>18</trackindex>
							<clipindex>47</clipindex>
							<groupindex>1</groupindex>
						</link>
						<logginginfo>
							<description></description>
							<scene></scene>
							<shottake></shottake>
							<lognote></lognote>
						</logginginfo>
						<labels>
							<label2>Caribbean</label2>
						</labels>
					</clipitem>
					<clipitem id="clipitem-2419" premiereChannelType="stereo">
						<masterclipid>masterclip-91</masterclipid>
						<name>Medium latterkule.wav</name>
						<enabled>TRUE</enabled>
						<duration>121</duration>
						<rate>
							<timebase>25</timebase>
							<ntsc>FALSE</ntsc>
						</rate>
						<start>16167</start>
						<end>16204</end>
						<in>0</in>
						<out>37</out>
						<pproTicksIn>0</pproTicksIn>
						<pproTicksOut>375943680000</pproTicksOut>
						<file id="file-87">
							<name>Medium latterkule.wav</name>
							<pathurl>file://localhost/Volumes/Brakka/AdobeLager/QUIZ%20-%20brakka/RA%cc%8aSTOFF%20LYD/Publikumsreaksjoner/Fra%201998/Medium%20latterkule.wav</pathurl>
							<rate>
								<timebase>30</timebase>
								<ntsc>TRUE</ntsc>
							</rate>
							<duration>145</duration>
							<timecode>
								<rate>
									<timebase>30</timebase>
									<ntsc>TRUE</ntsc>
								</rate>
								<string>12;53;11;26</string>
								<frame>1390364</frame>
								<displayformat>DF</displayformat>
								<reel>
									<name></name>
								</reel>
							</timecode>
							<media>
								<audio>
									<samplecharacteristics>
										<depth>16</depth>
										<samplerate>48000</samplerate>
									</samplecharacteristics>
									<channelcount>2</channelcount>
								</audio>
							</media>
						</file>
						<sourcetrack>
							<mediatype>audio</mediatype>
							<trackindex>1</trackindex>
						</sourcetrack>
						<link>
							<linkclipref>clipitem-2419</linkclipref>
							<mediatype>audio</mediatype>
							<trackindex>17</trackindex>
							<clipindex>54</clipindex>
							<groupindex>1</groupindex>
						</link>
						<link>
							<linkclipref>clipitem-2590</linkclipref>
							<mediatype>audio</mediatype>
							<trackindex>18</trackindex>
							<clipindex>48</clipindex>
							<groupindex>1</groupindex>
						</link>
						<logginginfo>
							<description></description>
							<scene></scene>
							<shottake></shottake>
							<lognote></lognote>
						</logginginfo>
						<labels>
							<label2>Caribbean</label2>
						</labels>
					</clipitem>
					<clipitem id="clipitem-2420" premiereChannelType="stereo">
						<masterclipid>masterclip-91</masterclipid>
						<name>Medium latterkule.wav</name>
						<enabled>TRUE</enabled>
						<duration>121</duration>
						<rate>
							<timebase>25</timebase>
							<ntsc>FALSE</ntsc>
						</rate>
						<start>16204</start>
						<end>16288</end>
						<in>37</in>
						<out>121</out>
						<pproTicksIn>375943680000</pproTicksIn>
						<pproTicksOut>1229437440000</pproTicksOut>
						<file id="file-87"/>
						<sourcetrack>
							<mediatype>audio</mediatype>
							<trackindex>1</trackindex>
						</sourcetrack>
						<link>
							<linkclipref>clipitem-2420</linkclipref>
							<mediatype>audio</mediatype>
							<trackindex>17</trackindex>
							<clipindex>55</clipindex>
							<groupindex>1</groupindex>
						</link>
						<link>
							<linkclipref>clipitem-2591</linkclipref>
							<mediatype>audio</mediatype>
							<trackindex>18</trackindex>
							<clipindex>49</clipindex>
							<groupindex>1</groupindex>
						</link>
						<logginginfo>
							<description></description>
							<scene></scene>
							<shottake></shottake>
							<lognote></lognote>
						</logginginfo>
						<labels>
							<label2>Caribbean</label2>
						</labels>
					</clipitem>
					<clipitem id="clipitem-2421" premiereChannelType="stereo">
						<masterclipid>masterclip-92</masterclipid>
						<name>Hjertelig klukklatter.wav</name>
						<enabled>TRUE</enabled>
						<duration>55</duration>
						<rate>
							<timebase>25</timebase>
							<ntsc>FALSE</ntsc>
						</rate>
						<start>16305</start>
						<end>16360</end>
						<in>0</in>
						<out>55</out>
						<pproTicksIn>0</pproTicksIn>
						<pproTicksOut>558835200000</pproTicksOut>
						<file id="file-88">
							<name>Hjertelig klukklatter.wav</name>
							<pathurl>file://localhost/Volumes/Brakka/AdobeLager/QUIZ%20-%20brakka/RA%cc%8aSTOFF%20LYD/Publikumsreaksjoner/Fra%201980/Hjertelig%20klukklatter.wav</pathurl>
							<rate>
								<timebase>30</timebase>
								<ntsc>TRUE</ntsc>
							</rate>
							<duration>66</duration>
							<timecode>
								<rate>
									<timebase>30</timebase>
									<ntsc>TRUE</ntsc>
								</rate>
								<string>14;41;12;15</string>
								<frame>1584589</frame>
								<displayformat>DF</displayformat>
								<reel>
									<name></name>
								</reel>
							</timecode>
							<media>
								<audio>
									<samplecharacteristics>
										<depth>16</depth>
										<samplerate>48000</samplerate>
									</samplecharacteristics>
									<channelcount>2</channelcount>
								</audio>
							</media>
						</file>
						<sourcetrack>
							<mediatype>audio</mediatype>
							<trackindex>1</trackindex>
						</sourcetrack>
						<link>
							<linkclipref>clipitem-2421</linkclipref>
							<mediatype>audio</mediatype>
							<trackindex>17</trackindex>
							<clipindex>56</clipindex>
							<groupindex>1</groupindex>
						</link>
						<link>
							<linkclipref>clipitem-2592</linkclipref>
							<mediatype>audio</mediatype>
							<trackindex>18</trackindex>
							<clipindex>50</clipindex>
							<groupindex>1</groupindex>
						</link>
						<logginginfo>
							<description></description>
							<scene></scene>
							<shottake></shottake>
							<lognote></lognote>
						</logginginfo>
						<labels>
							<label2>Caribbean</label2>
						</labels>
					</clipitem>
					<clipitem id="clipitem-2422" premiereChannelType="stereo">
						<masterclipid>masterclip-93</masterclipid>
						<name>Kort artigere latterkule.wav</name>
						<enabled>TRUE</enabled>
						<duration>57</duration>
						<rate>
							<timebase>25</timebase>
							<ntsc>FALSE</ntsc>
						</rate>
						<start>16360</start>
						<end>16417</end>
						<in>0</in>
						<out>57</out>
						<pproTicksIn>0</pproTicksIn>
						<pproTicksOut>579156480000</pproTicksOut>
						<file id="file-89">
							<name>Kort artigere latterkule.wav</name>
							<pathurl>file://localhost/Volumes/Brakka/AdobeLager/QUIZ%20-%20brakka/RA%cc%8aSTOFF%20LYD/Publikumsreaksjoner/Fra%201998/Kort%20artigere%20latterkule.wav</pathurl>
							<rate>
								<timebase>30</timebase>
								<ntsc>TRUE</ntsc>
							</rate>
							<duration>68</duration>
							<timecode>
								<rate>
									<timebase>30</timebase>
									<ntsc>TRUE</ntsc>
								</rate>
								<string>14;04;08;08</string>
								<frame>1517928</frame>
								<displayformat>DF</displayformat>
								<reel>
									<name></name>
								</reel>
							</timecode>
							<media>
								<audio>
									<samplecharacteristics>
										<depth>16</depth>
										<samplerate>48000</samplerate>
									</samplecharacteristics>
									<channelcount>2</channelcount>
								</audio>
							</media>
						</file>
						<sourcetrack>
							<mediatype>audio</mediatype>
							<trackindex>1</trackindex>
						</sourcetrack>
						<link>
							<linkclipref>clipitem-2422</linkclipref>
							<mediatype>audio</mediatype>
							<trackindex>17</trackindex>
							<clipindex>57</clipindex>
							<groupindex>1</groupindex>
						</link>
						<link>
							<linkclipref>clipitem-2593</linkclipref>
							<mediatype>audio</mediatype>
							<trackindex>18</trackindex>
							<clipindex>51</clipindex>
							<groupindex>1</groupindex>
						</link>
						<logginginfo>
							<description></description>
							<scene></scene>
							<shottake></shottake>
							<lognote></lognote>
						</logginginfo>
						<labels>
							<label2>Caribbean</label2>
						</labels>
					</clipitem>
					<clipitem id="clipitem-2423" premiereChannelType="stereo">
						<masterclipid>masterclip-94</masterclipid>
						<name>Kort fnis, klukking.wav</name>
						<enabled>TRUE</enabled>
						<duration>68</duration>
						<rate>
							<timebase>25</timebase>
							<ntsc>FALSE</ntsc>
						</rate>
						<start>16543</start>
						<end>16611</end>
						<in>0</in>
						<out>68</out>
						<pproTicksIn>0</pproTicksIn>
						<pproTicksOut>690923520000</pproTicksOut>
						<file id="file-90">
							<name>Kort fnis, klukking.wav</name>
							<pathurl>file://localhost/Volumes/Brakka/AdobeLager/QUIZ%20-%20brakka/RA%cc%8aSTOFF%20LYD/Publikumsreaksjoner/Fra%201980/Kort%20fnis,%20klukking.wav</pathurl>
							<rate>
								<timebase>30</timebase>
								<ntsc>TRUE</ntsc>
							</rate>
							<duration>81</duration>
							<timecode>
								<rate>
									<timebase>30</timebase>
									<ntsc>TRUE</ntsc>
								</rate>
								<string>14;30;35;10</string>
								<frame>1565494</frame>
								<displayformat>DF</displayformat>
								<reel>
									<name></name>
								</reel>
							</timecode>
							<media>
								<audio>
									<samplecharacteristics>
										<depth>16</depth>
										<samplerate>48000</samplerate>
									</samplecharacteristics>
									<channelcount>2</channelcount>
								</audio>
							</media>
						</file>
						<sourcetrack>
							<mediatype>audio</mediatype>
							<trackindex>1</trackindex>
						</sourcetrack>
							<filter>
								<effect>
									<name>Audio Levels</name>
									<effectid>audiolevels</effectid>
									<effectcategory>audiolevels</effectcategory>
									<effecttype>audiolevels</effecttype>
									<mediatype>audio</mediatype>
									<parameter authoringApp="PremierePro">
										<parameterid>level</parameterid>
										<name>Level</name>
										<valuemin>0</valuemin>
										<valuemax>3.98109</valuemax>
										<value>0.99763</value>
									</parameter>
								</effect>
							</filter>
						<link>
							<linkclipref>clipitem-2423</linkclipref>
							<mediatype>audio</mediatype>
							<trackindex>17</trackindex>
							<clipindex>58</clipindex>
							<groupindex>1</groupindex>
						</link>
						<link>
							<linkclipref>clipitem-2594</linkclipref>
							<mediatype>audio</mediatype>
							<trackindex>18</trackindex>
							<clipindex>52</clipindex>
							<groupindex>1</groupindex>
						</link>
						<logginginfo>
							<description></description>
							<scene></scene>
							<shottake></shottake>
							<lognote></lognote>
						</logginginfo>
						<labels>
							<label2>Caribbean</label2>
						</labels>
					</clipitem>
					<clipitem id="clipitem-2424" premiereChannelType="stereo">
						<masterclipid>masterclip-95</masterclipid>
						<name>Kort rask latter.wav</name>
						<enabled>TRUE</enabled>
						<duration>80</duration>
						<rate>
							<timebase>25</timebase>
							<ntsc>FALSE</ntsc>
						</rate>
						<start>16766</start>
						<end>16846</end>
						<in>0</in>
						<out>80</out>
						<pproTicksIn>0</pproTicksIn>
						<pproTicksOut>812851200000</pproTicksOut>
						<file id="file-91">
							<name>Kort rask latter.wav</name>
							<pathurl>file://localhost/Volumes/Brakka/AdobeLager/QUIZ%20-%20brakka/RA%cc%8aSTOFF%20LYD/Publikumsreaksjoner/Fra%201980/Kort%20rask%20latter.wav</pathurl>
							<rate>
								<timebase>30</timebase>
								<ntsc>TRUE</ntsc>
							</rate>
							<duration>95</duration>
							<timecode>
								<rate>
									<timebase>30</timebase>
									<ntsc>TRUE</ntsc>
								</rate>
								<string>13;46;04;14</string>
								<frame>1485446</frame>
								<displayformat>DF</displayformat>
								<reel>
									<name></name>
								</reel>
							</timecode>
							<media>
								<audio>
									<samplecharacteristics>
										<depth>16</depth>
										<samplerate>48000</samplerate>
									</samplecharacteristics>
									<channelcount>2</channelcount>
								</audio>
							</media>
						</file>
						<sourcetrack>
							<mediatype>audio</mediatype>
							<trackindex>1</trackindex>
						</sourcetrack>
							<filter>
								<effect>
									<name>Audio Levels</name>
									<effectid>audiolevels</effectid>
									<effectcategory>audiolevels</effectcategory>
									<effecttype>audiolevels</effecttype>
									<mediatype>audio</mediatype>
									<parameter authoringApp="PremierePro">
										<parameterid>level</parameterid>
										<name>Level</name>
										<valuemin>0</valuemin>
										<valuemax>3.98109</valuemax>
										<value>0.99763</value>
									</parameter>
								</effect>
							</filter>
						<link>
							<linkclipref>clipitem-2424</linkclipref>
							<mediatype>audio</mediatype>
							<trackindex>17</trackindex>
							<clipindex>59</clipindex>
							<groupindex>1</groupindex>
						</link>
						<link>
							<linkclipref>clipitem-2595</linkclipref>
							<mediatype>audio</mediatype>
							<trackindex>18</trackindex>
							<clipindex>53</clipindex>
							<groupindex>1</groupindex>
						</link>
						<logginginfo>
							<description></description>
							<scene></scene>
							<shottake></shottake>
							<lognote></lognote>
						</logginginfo>
						<labels>
							<label2>Caribbean</label2>
						</labels>
					</clipitem>
					<clipitem id="clipitem-2425" premiereChannelType="stereo">
						<masterclipid>masterclip-96</masterclipid>
						<name>Klukking, humring.wav</name>
						<enabled>TRUE</enabled>
						<duration>61</duration>
						<rate>
							<timebase>25</timebase>
							<ntsc>FALSE</ntsc>
						</rate>
						<start>16891</start>
						<end>16952</end>
						<in>0</in>
						<out>61</out>
						<pproTicksIn>0</pproTicksIn>
						<pproTicksOut>619799040000</pproTicksOut>
						<file id="file-92">
							<name>Klukking, humring.wav</name>
							<pathurl>file://localhost/Volumes/Brakka/AdobeLager/QUIZ%20-%20brakka/RA%cc%8aSTOFF%20LYD/Publikumsreaksjoner/Fra%201980/Klukking,%20humring.wav</pathurl>
							<rate>
								<timebase>30</timebase>
								<ntsc>TRUE</ntsc>
							</rate>
							<duration>74</duration>
							<timecode>
								<rate>
									<timebase>30</timebase>
									<ntsc>TRUE</ntsc>
								</rate>
								<string>12;56;15;19</string>
								<frame>1395871</frame>
								<displayformat>DF</displayformat>
								<reel>
									<name></name>
								</reel>
							</timecode>
							<media>
								<audio>
									<samplecharacteristics>
										<depth>16</depth>
										<samplerate>48000</samplerate>
									</samplecharacteristics>
									<channelcount>2</channelcount>
								</audio>
							</media>
						</file>
						<sourcetrack>
							<mediatype>audio</mediatype>
							<trackindex>1</trackindex>
						</sourcetrack>
							<filter>
								<effect>
									<name>Audio Levels</name>
									<effectid>audiolevels</effectid>
									<effectcategory>audiolevels</effectcategory>
									<effecttype>audiolevels</effecttype>
									<mediatype>audio</mediatype>
									<parameter authoringApp="PremierePro">
										<parameterid>level</parameterid>
										<name>Level</name>
										<valuemin>0</valuemin>
										<valuemax>3.98109</valuemax>
										<value>1.95059</value>
									</parameter>
								</effect>
							</filter>
						<link>
							<linkclipref>clipitem-2425</linkclipref>
							<mediatype>audio</mediatype>
							<trackindex>17</trackindex>
							<clipindex>60</clipindex>
							<groupindex>1</groupindex>
						</link>
						<link>
							<linkclipref>clipitem-2596</linkclipref>
							<mediatype>audio</mediatype>
							<trackindex>18</trackindex>
							<clipindex>54</clipindex>
							<groupindex>1</groupindex>
						</link>
						<logginginfo>
							<description></description>
							<scene></scene>
							<shottake></shottake>
							<lognote></lognote>
						</logginginfo>
						<labels>
							<label2>Caribbean</label2>
						</labels>
					</clipitem>
					<clipitem id="clipitem-2426" premiereChannelType="stereo">
						<masterclipid>masterclip-91</masterclipid>
						<name>Medium latterkule.wav</name>
						<enabled>TRUE</enabled>
						<duration>121</duration>
						<rate>
							<timebase>25</timebase>
							<ntsc>FALSE</ntsc>
						</rate>
						<start>17771</start>
						<end>17860</end>
						<in>0</in>
						<out>89</out>
						<pproTicksIn>0</pproTicksIn>
						<pproTicksOut>904296960000</pproTicksOut>
						<file id="file-87"/>
						<sourcetrack>
							<mediatype>audio</mediatype>
							<trackindex>1</trackindex>
						</sourcetrack>
							<filter>
								<effect>
									<name>Audio Levels</name>
									<effectid>audiolevels</effectid>
									<effectcategory>audiolevels</effectcategory>
									<effecttype>audiolevels</effecttype>
									<mediatype>audio</mediatype>
									<parameter authoringApp="PremierePro">
										<parameterid>level</parameterid>
										<name>Level</name>
										<valuemin>0</valuemin>
										<valuemax>3.98109</valuemax>
										<value>0.99763</value>
									</parameter>
								</effect>
							</filter>
						<link>
							<linkclipref>clipitem-2426</linkclipref>
							<mediatype>audio</mediatype>
							<trackindex>17</trackindex>
							<clipindex>61</clipindex>
							<groupindex>1</groupindex>
						</link>
						<link>
							<linkclipref>clipitem-2597</linkclipref>
							<mediatype>audio</mediatype>
							<trackindex>18</trackindex>
							<clipindex>55</clipindex>
							<groupindex>1</groupindex>
						</link>
						<logginginfo>
							<description></description>
							<scene></scene>
							<shottake></shottake>
							<lognote></lognote>
						</logginginfo>
						<labels>
							<label2>Caribbean</label2>
						</labels>
					</clipitem>
					<clipitem id="clipitem-2427" premiereChannelType="stereo">
						<masterclipid>masterclip-91</masterclipid>
						<name>Medium latterkule.wav</name>
						<enabled>TRUE</enabled>
						<duration>121</duration>
						<rate>
							<timebase>25</timebase>
							<ntsc>FALSE</ntsc>
						</rate>
						<start>17882</start>
						<end>17919</end>
						<in>0</in>
						<out>37</out>
						<pproTicksIn>0</pproTicksIn>
						<pproTicksOut>375943680000</pproTicksOut>
						<file id="file-87"/>
						<sourcetrack>
							<mediatype>audio</mediatype>
							<trackindex>1</trackindex>
						</sourcetrack>
						<link>
							<linkclipref>clipitem-2427</linkclipref>
							<mediatype>audio</mediatype>
							<trackindex>17</trackindex>
							<clipindex>62</clipindex>
							<groupindex>1</groupindex>
						</link>
						<link>
							<linkclipref>clipitem-2598</linkclipref>
							<mediatype>audio</mediatype>
							<trackindex>18</trackindex>
							<clipindex>56</clipindex>
							<groupindex>1</groupindex>
						</link>
						<logginginfo>
							<description></description>
							<scene></scene>
							<shottake></shottake>
							<lognote></lognote>
						</logginginfo>
						<labels>
							<label2>Caribbean</label2>
						</labels>
					</clipitem>
					<clipitem id="clipitem-2428" premiereChannelType="stereo">
						<masterclipid>masterclip-97</masterclipid>
						<name>Enkelt latterkule hele publikum.wav</name>
						<enabled>TRUE</enabled>
						<duration>95</duration>
						<rate>
							<timebase>25</timebase>
							<ntsc>FALSE</ntsc>
						</rate>
						<start>18300</start>
						<end>18395</end>
						<in>0</in>
						<out>95</out>
						<pproTicksIn>0</pproTicksIn>
						<pproTicksOut>965260800000</pproTicksOut>
						<file id="file-93">
							<name>Enkelt latterkule hele publikum.wav</name>
							<pathurl>file://localhost/Volumes/Brakka/AdobeLager/QUIZ%20-%20brakka/RA%cc%8aSTOFF%20LYD/Publikumsreaksjoner/Fra%201980/Enkelt%20latterkule%20hele%20publikum.wav</pathurl>
							<rate>
								<timebase>30</timebase>
								<ntsc>TRUE</ntsc>
							</rate>
							<duration>114</duration>
							<timecode>
								<rate>
									<timebase>30</timebase>
									<ntsc>TRUE</ntsc>
								</rate>
								<string>13;58;04;01</string>
								<frame>1507011</frame>
								<displayformat>DF</displayformat>
								<reel>
									<name></name>
								</reel>
							</timecode>
							<media>
								<audio>
									<samplecharacteristics>
										<depth>16</depth>
										<samplerate>48000</samplerate>
									</samplecharacteristics>
									<channelcount>2</channelcount>
								</audio>
							</media>
						</file>
						<sourcetrack>
							<mediatype>audio</mediatype>
							<trackindex>1</trackindex>
						</sourcetrack>
							<filter>
								<effect>
									<name>Audio Levels</name>
									<effectid>audiolevels</effectid>
									<effectcategory>audiolevels</effectcategory>
									<effecttype>audiolevels</effecttype>
									<mediatype>audio</mediatype>
									<parameter authoringApp="PremierePro">
										<parameterid>level</parameterid>
										<name>Level</name>
										<valuemin>0</valuemin>
										<valuemax>3.98109</valuemax>
										<value>1.56151</value>
									</parameter>
								</effect>
							</filter>
						<link>
							<linkclipref>clipitem-2428</linkclipref>
							<mediatype>audio</mediatype>
							<trackindex>17</trackindex>
							<clipindex>63</clipindex>
							<groupindex>1</groupindex>
						</link>
						<link>
							<linkclipref>clipitem-2599</linkclipref>
							<mediatype>audio</mediatype>
							<trackindex>18</trackindex>
							<clipindex>57</clipindex>
							<groupindex>1</groupindex>
						</link>
						<logginginfo>
							<description></description>
							<scene></scene>
							<shottake></shottake>
							<lognote></lognote>
						</logginginfo>
						<labels>
							<label2>Caribbean</label2>
						</labels>
					</clipitem>
					<clipitem id="clipitem-2429" premiereChannelType="stereo">
						<masterclipid>masterclip-28</masterclipid>
						<name>Crazy Frog - Axel F.mp4</name>
						<enabled>TRUE</enabled>
						<duration>4325</duration>
						<rate>
							<timebase>25</timebase>
							<ntsc>FALSE</ntsc>
						</rate>
						<start>18626</start>
						<end>-1</end>
						<in>1222</in>
						<out>1402</out>
						<pproTicksIn>12416302080000</pproTicksIn>
						<pproTicksOut>14245217280000</pproTicksOut>
						<file id="file-24"/>
						<sourcetrack>
							<mediatype>audio</mediatype>
							<trackindex>1</trackindex>
						</sourcetrack>
							<filter>
								<effect>
									<name>Audio Levels</name>
									<effectid>audiolevels</effectid>
									<effectcategory>audiolevels</effectcategory>
									<effecttype>audiolevels</effecttype>
									<mediatype>audio</mediatype>
									<parameter authoringApp="PremierePro">
										<parameterid>level</parameterid>
										<name>Level</name>
										<valuemin>0</valuemin>
										<valuemax>3.98109</valuemax>
										<value>0.889139</value>
									</parameter>
								</effect>
							</filter>
						<link>
							<linkclipref>clipitem-2429</linkclipref>
							<mediatype>audio</mediatype>
							<trackindex>17</trackindex>
							<clipindex>64</clipindex>
							<groupindex>1</groupindex>
						</link>
						<link>
							<linkclipref>clipitem-2600</linkclipref>
							<mediatype>audio</mediatype>
							<trackindex>18</trackindex>
							<clipindex>58</clipindex>
							<groupindex>1</groupindex>
						</link>
						<logginginfo>
							<description></description>
							<scene></scene>
							<shottake></shottake>
							<lognote></lognote>
						</logginginfo>
						<labels>
							<label2>Iris</label2>
						</labels>
					</clipitem>
					<transitionitem>
						<start>18793</start>
						<end>18806</end>
						<alignment>center</alignment>
						<cutPointTicks>60963840000</cutPointTicks>
						<rate>
							<timebase>25</timebase>
							<ntsc>FALSE</ntsc>
						</rate>
						<effect>
							<name>Cross Fade (+3dB)</name>
							<effectid>KGAudioTransCrossFade3dB</effectid>
							<effecttype>transition</effecttype>
							<mediatype>audio</mediatype>
							<wipecode>0</wipecode>
							<wipeaccuracy>100</wipeaccuracy>
							<startratio>0</startratio>
							<endratio>1</endratio>
							<reverse>FALSE</reverse>
						</effect>
					</transitionitem>
					<clipitem id="clipitem-2430" premiereChannelType="stereo">
						<masterclipid>masterclip-28</masterclipid>
						<name>Crazy Frog - Axel F.mp4</name>
						<enabled>TRUE</enabled>
						<duration>4325</duration>
						<rate>
							<timebase>25</timebase>
							<ntsc>FALSE</ntsc>
						</rate>
						<start>-1</start>
						<end>18843</end>
						<in>1389</in>
						<out>1439</out>
						<pproTicksIn>14113128960000</pproTicksIn>
						<pproTicksOut>14621160960000</pproTicksOut>
						<file id="file-24"/>
						<sourcetrack>
							<mediatype>audio</mediatype>
							<trackindex>1</trackindex>
						</sourcetrack>
							<filter>
								<effect>
									<name>Audio Levels</name>
									<effectid>audiolevels</effectid>
									<effectcategory>audiolevels</effectcategory>
									<effecttype>audiolevels</effecttype>
									<mediatype>audio</mediatype>
									<parameter authoringApp="PremierePro">
										<parameterid>level</parameterid>
										<name>Level</name>
										<valuemin>0</valuemin>
										<valuemax>3.98109</valuemax>
										<value>0.177406</value>
									</parameter>
								</effect>
							</filter>
						<link>
							<linkclipref>clipitem-2430</linkclipref>
							<mediatype>audio</mediatype>
							<trackindex>17</trackindex>
							<clipindex>66</clipindex>
							<groupindex>1</groupindex>
						</link>
						<link>
							<linkclipref>clipitem-2601</linkclipref>
							<mediatype>audio</mediatype>
							<trackindex>18</trackindex>
							<clipindex>60</clipindex>
							<groupindex>1</groupindex>
						</link>
						<logginginfo>
							<description></description>
							<scene></scene>
							<shottake></shottake>
							<lognote></lognote>
						</logginginfo>
						<labels>
							<label2>Iris</label2>
						</labels>
					</clipitem>
					<clipitem id="clipitem-2431" premiereChannelType="stereo">
						<masterclipid>masterclip-29</masterclipid>
						<name>*Schnappi - Schnappi Das Kleine Krokodil*.mp4</name>
						<enabled>TRUE</enabled>
						<duration>5244</duration>
						<rate>
							<timebase>25</timebase>
							<ntsc>FALSE</ntsc>
						</rate>
						<start>18843</start>
						<end>-1</end>
						<in>1414</in>
						<out>1489</out>
						<pproTicksIn>14367144960000</pproTicksIn>
						<pproTicksOut>15129192960000</pproTicksOut>
						<file id="file-25"/>
						<sourcetrack>
							<mediatype>audio</mediatype>
							<trackindex>1</trackindex>
						</sourcetrack>
							<filter>
								<effect>
									<name>Audio Levels</name>
									<effectid>audiolevels</effectid>
									<effectcategory>audiolevels</effectcategory>
									<effecttype>audiolevels</effecttype>
									<mediatype>audio</mediatype>
									<parameter authoringApp="PremierePro">
										<parameterid>level</parameterid>
										<name>Level</name>
										<valuemin>0</valuemin>
										<valuemax>3.98109</valuemax>
										<value>0.28117</value>
									</parameter>
								</effect>
							</filter>
						<link>
							<linkclipref>clipitem-2431</linkclipref>
							<mediatype>audio</mediatype>
							<trackindex>17</trackindex>
							<clipindex>67</clipindex>
							<groupindex>1</groupindex>
						</link>
						<link>
							<linkclipref>clipitem-2602</linkclipref>
							<mediatype>audio</mediatype>
							<trackindex>18</trackindex>
							<clipindex>61</clipindex>
							<groupindex>1</groupindex>
						</link>
						<logginginfo>
							<description></description>
							<scene></scene>
							<shottake></shottake>
							<lognote></lognote>
						</logginginfo>
						<labels>
							<label2>Iris</label2>
						</labels>
					</clipitem>
					<transitionitem>
						<start>18905</start>
						<end>18918</end>
						<alignment>center</alignment>
						<cutPointTicks>60963840000</cutPointTicks>
						<rate>
							<timebase>25</timebase>
							<ntsc>FALSE</ntsc>
						</rate>
						<effect>
							<name>Cross Fade (+3dB)</name>
							<effectid>KGAudioTransCrossFade3dB</effectid>
							<effecttype>transition</effecttype>
							<mediatype>audio</mediatype>
							<wipecode>0</wipecode>
							<wipeaccuracy>100</wipeaccuracy>
							<startratio>0</startratio>
							<endratio>1</endratio>
							<reverse>FALSE</reverse>
						</effect>
					</transitionitem>
					<clipitem id="clipitem-2432" premiereChannelType="stereo">
						<masterclipid>masterclip-29</masterclipid>
						<name>*Schnappi - Schnappi Das Kleine Krokodil*.mp4</name>
						<enabled>TRUE</enabled>
						<duration>5244</duration>
						<rate>
							<timebase>25</timebase>
							<ntsc>FALSE</ntsc>
						</rate>
						<start>-1</start>
						<end>-1</end>
						<in>1476</in>
						<out>1654</out>
						<pproTicksIn>14997104640000</pproTicksIn>
						<pproTicksOut>16805698560000</pproTicksOut>
						<file id="file-25"/>
						<sourcetrack>
							<mediatype>audio</mediatype>
							<trackindex>1</trackindex>
						</sourcetrack>
							<filter>
								<effect>
									<name>Audio Levels</name>
									<effectid>audiolevels</effectid>
									<effectcategory>audiolevels</effectcategory>
									<effecttype>audiolevels</effecttype>
									<mediatype>audio</mediatype>
									<parameter authoringApp="PremierePro">
										<parameterid>level</parameterid>
										<name>Level</name>
										<valuemin>0</valuemin>
										<valuemax>3.98109</valuemax>
										<value>1.77406</value>
									</parameter>
								</effect>
							</filter>
						<link>
							<linkclipref>clipitem-2432</linkclipref>
							<mediatype>audio</mediatype>
							<trackindex>17</trackindex>
							<clipindex>69</clipindex>
							<groupindex>1</groupindex>
						</link>
						<link>
							<linkclipref>clipitem-2603</linkclipref>
							<mediatype>audio</mediatype>
							<trackindex>18</trackindex>
							<clipindex>63</clipindex>
							<groupindex>1</groupindex>
						</link>
						<logginginfo>
							<description></description>
							<scene></scene>
							<shottake></shottake>
							<lognote></lognote>
						</logginginfo>
						<labels>
							<label2>Iris</label2>
						</labels>
					</clipitem>
					<transitionitem>
						<start>19070</start>
						<end>19083</end>
						<alignment>center</alignment>
						<cutPointTicks>60963840000</cutPointTicks>
						<rate>
							<timebase>25</timebase>
							<ntsc>FALSE</ntsc>
						</rate>
						<effect>
							<name>Cross Fade (+3dB)</name>
							<effectid>KGAudioTransCrossFade3dB</effectid>
							<effecttype>transition</effecttype>
							<mediatype>audio</mediatype>
							<wipecode>0</wipecode>
							<wipeaccuracy>100</wipeaccuracy>
							<startratio>0</startratio>
							<endratio>1</endratio>
							<reverse>FALSE</reverse>
						</effect>
					</transitionitem>
					<clipitem id="clipitem-2433" premiereChannelType="stereo">
						<masterclipid>masterclip-29</masterclipid>
						<name>*Schnappi - Schnappi Das Kleine Krokodil*.mp4</name>
						<enabled>TRUE</enabled>
						<duration>5244</duration>
						<rate>
							<timebase>25</timebase>
							<ntsc>FALSE</ntsc>
						</rate>
						<start>-1</start>
						<end>-1</end>
						<in>1641</in>
						<out>1742</out>
						<pproTicksIn>16673610240000</pproTicksIn>
						<pproTicksOut>17699834880000</pproTicksOut>
						<file id="file-25"/>
						<sourcetrack>
							<mediatype>audio</mediatype>
							<trackindex>1</trackindex>
						</sourcetrack>
							<filter>
								<effect>
									<name>Audio Levels</name>
									<effectid>audiolevels</effectid>
									<effectcategory>audiolevels</effectcategory>
									<effecttype>audiolevels</effecttype>
									<mediatype>audio</mediatype>
									<parameter authoringApp="PremierePro">
										<parameterid>level</parameterid>
										<name>Level</name>
										<valuemin>0</valuemin>
										<valuemax>3.98109</valuemax>
										<value>0.353972</value>
									</parameter>
								</effect>
							</filter>
						<link>
							<linkclipref>clipitem-2433</linkclipref>
							<mediatype>audio</mediatype>
							<trackindex>17</trackindex>
							<clipindex>71</clipindex>
							<groupindex>1</groupindex>
						</link>
						<link>
							<linkclipref>clipitem-2604</linkclipref>
							<mediatype>audio</mediatype>
							<trackindex>18</trackindex>
							<clipindex>65</clipindex>
							<groupindex>1</groupindex>
						</link>
						<logginginfo>
							<description></description>
							<scene></scene>
							<shottake></shottake>
							<lognote></lognote>
						</logginginfo>
						<labels>
							<label2>Iris</label2>
						</labels>
					</clipitem>
					<transitionitem>
						<start>19158</start>
						<end>19171</end>
						<alignment>center</alignment>
						<cutPointTicks>60963840000</cutPointTicks>
						<rate>
							<timebase>25</timebase>
							<ntsc>FALSE</ntsc>
						</rate>
						<effect>
							<name>Cross Fade (+3dB)</name>
							<effectid>KGAudioTransCrossFade3dB</effectid>
							<effecttype>transition</effecttype>
							<mediatype>audio</mediatype>
							<wipecode>0</wipecode>
							<wipeaccuracy>100</wipeaccuracy>
							<startratio>0</startratio>
							<endratio>1</endratio>
							<reverse>FALSE</reverse>
						</effect>
					</transitionitem>
					<clipitem id="clipitem-2434" premiereChannelType="stereo">
						<masterclipid>masterclip-30</masterclipid>
						<name>ouha19002605aa-p1-080416r.mxf</name>
						<enabled>TRUE</enabled>
						<duration>7035</duration>
						<rate>
							<timebase>25</timebase>
							<ntsc>FALSE</ntsc>
						</rate>
						<start>-1</start>
						<end>-1</end>
						<in>349</in>
						<out>390</out>
						<pproTicksIn>3546063360000</pproTicksIn>
						<pproTicksOut>3962649600000</pproTicksOut>
						<file id="file-26"/>
						<sourcetrack>
							<mediatype>audio</mediatype>
							<trackindex>1</trackindex>
						</sourcetrack>
							<filter>
								<effect>
									<name>Audio Levels</name>
									<effectid>audiolevels</effectid>
									<effectcategory>audiolevels</effectcategory>
									<effecttype>audiolevels</effecttype>
									<mediatype>audio</mediatype>
									<parameter authoringApp="PremierePro">
										<parameterid>level</parameterid>
										<name>Level</name>
										<valuemin>0</valuemin>
										<valuemax>3.98109</valuemax>
										<value>0.223342</value>
									</parameter>
								</effect>
							</filter>
						<link>
							<linkclipref>clipitem-2434</linkclipref>
							<mediatype>audio</mediatype>
							<trackindex>17</trackindex>
							<clipindex>73</clipindex>
							<groupindex>1</groupindex>
						</link>
						<link>
							<linkclipref>clipitem-2605</linkclipref>
							<mediatype>audio</mediatype>
							<trackindex>18</trackindex>
							<clipindex>67</clipindex>
							<groupindex>1</groupindex>
						</link>
						<logginginfo>
							<description></description>
							<scene></scene>
							<shottake></shottake>
							<lognote></lognote>
						</logginginfo>
						<labels>
							<label2>Iris</label2>
						</labels>
					</clipitem>
					<transitionitem>
						<start>19186</start>
						<end>19199</end>
						<alignment>center</alignment>
						<cutPointTicks>60963840000</cutPointTicks>
						<rate>
							<timebase>25</timebase>
							<ntsc>FALSE</ntsc>
						</rate>
						<effect>
							<name>Cross Fade (+3dB)</name>
							<effectid>KGAudioTransCrossFade3dB</effectid>
							<effecttype>transition</effecttype>
							<mediatype>audio</mediatype>
							<wipecode>0</wipecode>
							<wipeaccuracy>100</wipeaccuracy>
							<startratio>0</startratio>
							<endratio>1</endratio>
							<reverse>FALSE</reverse>
						</effect>
					</transitionitem>
					<clipitem id="clipitem-2435" premiereChannelType="stereo">
						<masterclipid>masterclip-30</masterclipid>
						<name>ouha19002605aa-p1-080416r.mxf</name>
						<enabled>TRUE</enabled>
						<duration>7035</duration>
						<rate>
							<timebase>25</timebase>
							<ntsc>FALSE</ntsc>
						</rate>
						<start>-1</start>
						<end>-1</end>
						<in>377</in>
						<out>538</out>
						<pproTicksIn>3830561280000</pproTicksIn>
						<pproTicksOut>5466424320000</pproTicksOut>
						<file id="file-26"/>
						<sourcetrack>
							<mediatype>audio</mediatype>
							<trackindex>1</trackindex>
						</sourcetrack>
							<filter>
								<effect>
									<name>Audio Levels</name>
									<effectid>audiolevels</effectid>
									<effectcategory>audiolevels</effectcategory>
									<effecttype>audiolevels</effecttype>
									<mediatype>audio</mediatype>
									<parameter authoringApp="PremierePro">
										<parameterid>level</parameterid>
										<name>Level</name>
										<valuemin>0</valuemin>
										<valuemax>3.98109</valuemax>
										<value>1.40919</value>
									</parameter>
								</effect>
							</filter>
						<link>
							<linkclipref>clipitem-2435</linkclipref>
							<mediatype>audio</mediatype>
							<trackindex>17</trackindex>
							<clipindex>75</clipindex>
							<groupindex>1</groupindex>
						</link>
						<link>
							<linkclipref>clipitem-2606</linkclipref>
							<mediatype>audio</mediatype>
							<trackindex>18</trackindex>
							<clipindex>69</clipindex>
							<groupindex>1</groupindex>
						</link>
						<logginginfo>
							<description></description>
							<scene></scene>
							<shottake></shottake>
							<lognote></lognote>
						</logginginfo>
						<labels>
							<label2>Iris</label2>
						</labels>
					</clipitem>
					<transitionitem>
						<start>19334</start>
						<end>19347</end>
						<alignment>center</alignment>
						<cutPointTicks>60963840000</cutPointTicks>
						<rate>
							<timebase>25</timebase>
							<ntsc>FALSE</ntsc>
						</rate>
						<effect>
							<name>Cross Fade (+3dB)</name>
							<effectid>KGAudioTransCrossFade3dB</effectid>
							<effecttype>transition</effecttype>
							<mediatype>audio</mediatype>
							<wipecode>0</wipecode>
							<wipeaccuracy>100</wipeaccuracy>
							<startratio>0</startratio>
							<endratio>1</endratio>
							<reverse>FALSE</reverse>
						</effect>
					</transitionitem>
					<clipitem id="clipitem-2436" premiereChannelType="stereo">
						<masterclipid>masterclip-30</masterclipid>
						<name>ouha19002605aa-p1-080416r.mxf</name>
						<enabled>TRUE</enabled>
						<duration>7035</duration>
						<rate>
							<timebase>25</timebase>
							<ntsc>FALSE</ntsc>
						</rate>
						<start>-1</start>
						<end>19401</end>
						<in>525</in>
						<out>592</out>
						<pproTicksIn>5334336000000</pproTicksIn>
						<pproTicksOut>6015098880000</pproTicksOut>
						<file id="file-26"/>
						<sourcetrack>
							<mediatype>audio</mediatype>
							<trackindex>1</trackindex>
						</sourcetrack>
							<filter>
								<effect>
									<name>Audio Levels</name>
									<effectid>audiolevels</effectid>
									<effectcategory>audiolevels</effectcategory>
									<effecttype>audiolevels</effecttype>
									<mediatype>audio</mediatype>
									<parameter authoringApp="PremierePro">
										<parameterid>level</parameterid>
										<name>Level</name>
										<valuemin>0</valuemin>
										<valuemax>3.98109</valuemax>
										<value>0.41156</value>
									</parameter>
								</effect>
							</filter>
						<link>
							<linkclipref>clipitem-2436</linkclipref>
							<mediatype>audio</mediatype>
							<trackindex>17</trackindex>
							<clipindex>77</clipindex>
							<groupindex>1</groupindex>
						</link>
						<link>
							<linkclipref>clipitem-2607</linkclipref>
							<mediatype>audio</mediatype>
							<trackindex>18</trackindex>
							<clipindex>71</clipindex>
							<groupindex>1</groupindex>
						</link>
						<logginginfo>
							<description></description>
							<scene></scene>
							<shottake></shottake>
							<lognote></lognote>
						</logginginfo>
						<labels>
							<label2>Iris</label2>
						</labels>
					</clipitem>
					<clipitem id="clipitem-2437" premiereChannelType="mono">
						<masterclipid>masterclip-31</masterclipid>
						<name>FK-05-alarmprisen05-r.mxf</name>
						<enabled>TRUE</enabled>
						<duration>11696</duration>
						<rate>
							<timebase>25</timebase>
							<ntsc>FALSE</ntsc>
						</rate>
						<start>19401</start>
						<end>19882</end>
						<in>8593</in>
						<out>9074</out>
						<pproTicksIn>87310379520000</pproTicksIn>
						<pproTicksOut>92197647360000</pproTicksOut>
						<file id="file-27"/>
						<sourcetrack>
							<mediatype>audio</mediatype>
							<trackindex>1</trackindex>
						</sourcetrack>
							<filter>
								<effect>
									<name>Audio Levels</name>
									<effectid>audiolevels</effectid>
									<effectcategory>audiolevels</effectcategory>
									<effecttype>audiolevels</effecttype>
									<mediatype>audio</mediatype>
									<parameter authoringApp="PremierePro">
										<parameterid>level</parameterid>
										<name>Level</name>
										<valuemin>0</valuemin>
										<valuemax>3.98109</valuemax>
										<value>0.499999</value>
									</parameter>
								</effect>
							</filter>
						<logginginfo>
							<description></description>
							<scene></scene>
							<shottake></shottake>
							<lognote></lognote>
						</logginginfo>
						<labels>
							<label2>Iris</label2>
						</labels>
					</clipitem>
					<clipitem id="clipitem-2438" premiereChannelType="stereo">
						<masterclipid>masterclip-32</masterclipid>
						<name>Mira Craig - Boogeyman.mp4</name>
						<enabled>TRUE</enabled>
						<duration>6259</duration>
						<rate>
							<timebase>25</timebase>
							<ntsc>FALSE</ntsc>
						</rate>
						<start>19882</start>
						<end>-1</end>
						<in>1009</in>
						<out>1104</out>
						<pproTicksIn>10252085760000</pproTicksIn>
						<pproTicksOut>11217346560000</pproTicksOut>
						<file id="file-28"/>
						<sourcetrack>
							<mediatype>audio</mediatype>
							<trackindex>1</trackindex>
						</sourcetrack>
							<filter>
								<effect>
									<name>Audio Levels</name>
									<effectid>audiolevels</effectid>
									<effectcategory>audiolevels</effectcategory>
									<effecttype>audiolevels</effecttype>
									<mediatype>audio</mediatype>
									<parameter authoringApp="PremierePro">
										<parameterid>level</parameterid>
										<name>Level</name>
										<valuemin>0</valuemin>
										<valuemax>3.98109</valuemax>
										<value>1.40919</value>
									</parameter>
								</effect>
							</filter>
						<link>
							<linkclipref>clipitem-2438</linkclipref>
							<mediatype>audio</mediatype>
							<trackindex>17</trackindex>
							<clipindex>79</clipindex>
							<groupindex>1</groupindex>
						</link>
						<link>
							<linkclipref>clipitem-2608</linkclipref>
							<mediatype>audio</mediatype>
							<trackindex>18</trackindex>
							<clipindex>72</clipindex>
							<groupindex>1</groupindex>
						</link>
						<logginginfo>
							<description></description>
							<scene></scene>
							<shottake></shottake>
							<lognote></lognote>
						</logginginfo>
						<labels>
							<label2>Iris</label2>
						</labels>
					</clipitem>
					<transitionitem>
						<start>19964</start>
						<end>19977</end>
						<alignment>center</alignment>
						<cutPointTicks>60963840000</cutPointTicks>
						<rate>
							<timebase>25</timebase>
							<ntsc>FALSE</ntsc>
						</rate>
						<effect>
							<name>Cross Fade (+3dB)</name>
							<effectid>KGAudioTransCrossFade3dB</effectid>
							<effecttype>transition</effecttype>
							<mediatype>audio</mediatype>
							<wipecode>0</wipecode>
							<wipeaccuracy>100</wipeaccuracy>
							<startratio>0</startratio>
							<endratio>1</endratio>
							<reverse>FALSE</reverse>
						</effect>
					</transitionitem>
					<clipitem id="clipitem-2439" premiereChannelType="stereo">
						<masterclipid>masterclip-32</masterclipid>
						<name>Mira Craig - Boogeyman.mp4</name>
						<enabled>TRUE</enabled>
						<duration>6259</duration>
						<rate>
							<timebase>25</timebase>
							<ntsc>FALSE</ntsc>
						</rate>
						<start>-1</start>
						<end>-1</end>
						<in>1091</in>
						<out>1199</out>
						<pproTicksIn>11085258240000</pproTicksIn>
						<pproTicksOut>12182607360000</pproTicksOut>
						<file id="file-28"/>
						<sourcetrack>
							<mediatype>audio</mediatype>
							<trackindex>1</trackindex>
						</sourcetrack>
							<filter>
								<effect>
									<name>Audio Levels</name>
									<effectid>audiolevels</effectid>
									<effectcategory>audiolevels</effectcategory>
									<effecttype>audiolevels</effecttype>
									<mediatype>audio</mediatype>
									<parameter authoringApp="PremierePro">
										<parameterid>level</parameterid>
										<name>Level</name>
										<valuemin>0</valuemin>
										<valuemax>3.98109</valuemax>
										<value>0.28117</value>
									</parameter>
								</effect>
							</filter>
						<link>
							<linkclipref>clipitem-2439</linkclipref>
							<mediatype>audio</mediatype>
							<trackindex>17</trackindex>
							<clipindex>81</clipindex>
							<groupindex>1</groupindex>
						</link>
						<link>
							<linkclipref>clipitem-2609</linkclipref>
							<mediatype>audio</mediatype>
							<trackindex>18</trackindex>
							<clipindex>74</clipindex>
							<groupindex>1</groupindex>
						</link>
						<logginginfo>
							<description></description>
							<scene></scene>
							<shottake></shottake>
							<lognote></lognote>
						</logginginfo>
						<labels>
							<label2>Iris</label2>
						</labels>
					</clipitem>
					<transitionitem>
						<start>20059</start>
						<end>20072</end>
						<alignment>center</alignment>
						<cutPointTicks>60963840000</cutPointTicks>
						<rate>
							<timebase>25</timebase>
							<ntsc>FALSE</ntsc>
						</rate>
						<effect>
							<name>Cross Fade (+3dB)</name>
							<effectid>KGAudioTransCrossFade3dB</effectid>
							<effecttype>transition</effecttype>
							<mediatype>audio</mediatype>
							<wipecode>0</wipecode>
							<wipeaccuracy>100</wipeaccuracy>
							<startratio>0</startratio>
							<endratio>1</endratio>
							<reverse>FALSE</reverse>
						</effect>
					</transitionitem>
					<clipitem id="clipitem-2440" premiereChannelType="stereo">
						<masterclipid>masterclip-32</masterclipid>
						<name>Mira Craig - Boogeyman.mp4</name>
						<enabled>TRUE</enabled>
						<duration>6259</duration>
						<rate>
							<timebase>25</timebase>
							<ntsc>FALSE</ntsc>
						</rate>
						<start>-1</start>
						<end>-1</end>
						<in>1186</in>
						<out>1289</out>
						<pproTicksIn>12050519040000</pproTicksIn>
						<pproTicksOut>13097064960000</pproTicksOut>
						<file id="file-28"/>
						<sourcetrack>
							<mediatype>audio</mediatype>
							<trackindex>1</trackindex>
						</sourcetrack>
							<filter>
								<effect>
									<name>Audio Levels</name>
									<effectid>audiolevels</effectid>
									<effectcategory>audiolevels</effectcategory>
									<effecttype>audiolevels</effecttype>
									<mediatype>audio</mediatype>
									<parameter authoringApp="PremierePro">
										<parameterid>level</parameterid>
										<name>Level</name>
										<valuemin>0</valuemin>
										<valuemax>3.98109</valuemax>
										<value>1.41254</value>
									</parameter>
								</effect>
							</filter>
						<link>
							<linkclipref>clipitem-2440</linkclipref>
							<mediatype>audio</mediatype>
							<trackindex>17</trackindex>
							<clipindex>83</clipindex>
							<groupindex>1</groupindex>
						</link>
						<link>
							<linkclipref>clipitem-2610</linkclipref>
							<mediatype>audio</mediatype>
							<trackindex>18</trackindex>
							<clipindex>76</clipindex>
							<groupindex>1</groupindex>
						</link>
						<logginginfo>
							<description></description>
							<scene></scene>
							<shottake></shottake>
							<lognote></lognote>
						</logginginfo>
						<labels>
							<label2>Iris</label2>
						</labels>
					</clipitem>
					<transitionitem>
						<start>20157</start>
						<end>20162</end>
						<alignment>center</alignment>
						<cutPointTicks>20321280000</cutPointTicks>
						<rate>
							<timebase>25</timebase>
							<ntsc>FALSE</ntsc>
						</rate>
						<effect>
							<name>Cross Fade (+3dB)</name>
							<effectid>KGAudioTransCrossFade3dB</effectid>
							<effecttype>transition</effecttype>
							<mediatype>audio</mediatype>
							<wipecode>0</wipecode>
							<wipeaccuracy>100</wipeaccuracy>
							<startratio>0</startratio>
							<endratio>1</endratio>
							<reverse>FALSE</reverse>
						</effect>
					</transitionitem>
					<clipitem id="clipitem-2441" premiereChannelType="stereo">
						<masterclipid>masterclip-32</masterclipid>
						<name>Mira Craig - Boogeyman.mp4</name>
						<enabled>TRUE</enabled>
						<duration>6259</duration>
						<rate>
							<timebase>25</timebase>
							<ntsc>FALSE</ntsc>
						</rate>
						<start>-1</start>
						<end>-1</end>
						<in>1284</in>
						<out>1341</out>
						<pproTicksIn>13046261760000</pproTicksIn>
						<pproTicksOut>13625418240000</pproTicksOut>
						<file id="file-28"/>
						<sourcetrack>
							<mediatype>audio</mediatype>
							<trackindex>1</trackindex>
						</sourcetrack>
							<filter>
								<effect>
									<name>Audio Levels</name>
									<effectid>audiolevels</effectid>
									<effectcategory>audiolevels</effectcategory>
									<effecttype>audiolevels</effecttype>
									<mediatype>audio</mediatype>
									<parameter authoringApp="PremierePro">
										<parameterid>level</parameterid>
										<name>Level</name>
										<valuemin>0</valuemin>
										<valuemax>3.98109</valuemax>
										<value>0.398107</value>
									</parameter>
								</effect>
							</filter>
						<link>
							<linkclipref>clipitem-2441</linkclipref>
							<mediatype>audio</mediatype>
							<trackindex>17</trackindex>
							<clipindex>85</clipindex>
							<groupindex>1</groupindex>
						</link>
						<link>
							<linkclipref>clipitem-2611</linkclipref>
							<mediatype>audio</mediatype>
							<trackindex>18</trackindex>
							<clipindex>78</clipindex>
							<groupindex>1</groupindex>
						</link>
						<logginginfo>
							<description></description>
							<scene></scene>
							<shottake></shottake>
							<lognote></lognote>
						</logginginfo>
						<labels>
							<label2>Iris</label2>
						</labels>
					</clipitem>
					<transitionitem>
						<start>20207</start>
						<end>20214</end>
						<alignment>center</alignment>
						<cutPointTicks>30481920000</cutPointTicks>
						<rate>
							<timebase>25</timebase>
							<ntsc>FALSE</ntsc>
						</rate>
						<effect>
							<name>Cross Fade (+3dB)</name>
							<effectid>KGAudioTransCrossFade3dB</effectid>
							<effecttype>transition</effecttype>
							<mediatype>audio</mediatype>
							<wipecode>0</wipecode>
							<wipeaccuracy>100</wipeaccuracy>
							<startratio>0</startratio>
							<endratio>1</endratio>
							<reverse>FALSE</reverse>
						</effect>
					</transitionitem>
					<clipitem id="clipitem-2442" premiereChannelType="stereo">
						<masterclipid>masterclip-33</masterclipid>
						<name>Madonna - Hung Up (Official Music Video).mp4</name>
						<enabled>TRUE</enabled>
						<duration>8167</duration>
						<rate>
							<timebase>25</timebase>
							<ntsc>FALSE</ntsc>
						</rate>
						<start>-1</start>
						<end>-1</end>
						<in>2647</in>
						<out>2747</out>
						<pproTicksIn>26895214080000</pproTicksIn>
						<pproTicksOut>27911278080000</pproTicksOut>
						<file id="file-29"/>
						<sourcetrack>
							<mediatype>audio</mediatype>
							<trackindex>1</trackindex>
						</sourcetrack>
							<filter>
								<effect>
									<name>Audio Levels</name>
									<effectid>audiolevels</effectid>
									<effectcategory>audiolevels</effectcategory>
									<effecttype>audiolevels</effecttype>
									<mediatype>audio</mediatype>
									<parameter authoringApp="PremierePro">
										<parameterid>level</parameterid>
										<name>Level</name>
										<valuemin>0</valuemin>
										<valuemax>3.98109</valuemax>
										<value>0.250593</value>
									</parameter>
								</effect>
							</filter>
						<link>
							<linkclipref>clipitem-2442</linkclipref>
							<mediatype>audio</mediatype>
							<trackindex>17</trackindex>
							<clipindex>87</clipindex>
							<groupindex>1</groupindex>
						</link>
						<link>
							<linkclipref>clipitem-2612</linkclipref>
							<mediatype>audio</mediatype>
							<trackindex>18</trackindex>
							<clipindex>80</clipindex>
							<groupindex>1</groupindex>
						</link>
						<logginginfo>
							<description></description>
							<scene></scene>
							<shottake></shottake>
							<lognote></lognote>
						</logginginfo>
						<labels>
							<label2>Iris</label2>
						</labels>
					</clipitem>
					<transitionitem>
						<start>20298</start>
						<end>20307</end>
						<alignment>center</alignment>
						<cutPointTicks>40642560000</cutPointTicks>
						<rate>
							<timebase>25</timebase>
							<ntsc>FALSE</ntsc>
						</rate>
						<effect>
							<name>Cross Fade (+3dB)</name>
							<effectid>KGAudioTransCrossFade3dB</effectid>
							<effecttype>transition</effecttype>
							<mediatype>audio</mediatype>
							<wipecode>0</wipecode>
							<wipeaccuracy>100</wipeaccuracy>
							<startratio>0</startratio>
							<endratio>1</endratio>
							<reverse>FALSE</reverse>
						</effect>
					</transitionitem>
					<clipitem id="clipitem-2443" premiereChannelType="stereo">
						<masterclipid>masterclip-33</masterclipid>
						<name>Madonna - Hung Up (Official Music Video).mp4</name>
						<enabled>TRUE</enabled>
						<duration>8167</duration>
						<rate>
							<timebase>25</timebase>
							<ntsc>FALSE</ntsc>
						</rate>
						<start>-1</start>
						<end>20485</end>
						<in>2738</in>
						<out>2925</out>
						<pproTicksIn>27819832320000</pproTicksIn>
						<pproTicksOut>29719872000000</pproTicksOut>
						<file id="file-29"/>
						<sourcetrack>
							<mediatype>audio</mediatype>
							<trackindex>1</trackindex>
						</sourcetrack>
							<filter>
								<effect>
									<name>Audio Levels</name>
									<effectid>audiolevels</effectid>
									<effectcategory>audiolevels</effectcategory>
									<effecttype>audiolevels</effecttype>
									<mediatype>audio</mediatype>
									<parameter authoringApp="PremierePro">
										<parameterid>level</parameterid>
										<name>Level</name>
										<valuemin>0</valuemin>
										<valuemax>3.98109</valuemax>
										<value>0.792446</value>
									</parameter>
								</effect>
							</filter>
						<link>
							<linkclipref>clipitem-2443</linkclipref>
							<mediatype>audio</mediatype>
							<trackindex>17</trackindex>
							<clipindex>89</clipindex>
							<groupindex>1</groupindex>
						</link>
						<link>
							<linkclipref>clipitem-2613</linkclipref>
							<mediatype>audio</mediatype>
							<trackindex>18</trackindex>
							<clipindex>82</clipindex>
							<groupindex>1</groupindex>
						</link>
						<logginginfo>
							<description></description>
							<scene></scene>
							<shottake></shottake>
							<lognote></lognote>
						</logginginfo>
						<labels>
							<label2>Iris</label2>
						</labels>
					</clipitem>
					<clipitem id="clipitem-2444" premiereChannelType="stereo">
						<masterclipid>masterclip-34</masterclipid>
						<name>James Blunt - You're Beautiful (Video).mp4</name>
						<enabled>TRUE</enabled>
						<duration>5052</duration>
						<rate>
							<timebase>25</timebase>
							<ntsc>FALSE</ntsc>
						</rate>
						<start>20485</start>
						<end>-1</end>
						<in>2803</in>
						<out>2935</out>
						<pproTicksIn>28480273920000</pproTicksIn>
						<pproTicksOut>29821478400000</pproTicksOut>
						<file id="file-30"/>
						<sourcetrack>
							<mediatype>audio</mediatype>
							<trackindex>1</trackindex>
						</sourcetrack>
							<filter>
								<effect>
									<name>Audio Levels</name>
									<effectid>audiolevels</effectid>
									<effectcategory>audiolevels</effectcategory>
									<effecttype>audiolevels</effecttype>
									<mediatype>audio</mediatype>
									<parameter authoringApp="PremierePro">
										<parameterid>level</parameterid>
										<name>Level</name>
										<valuemin>0</valuemin>
										<valuemax>3.98109</valuemax>
										<value>0.706268</value>
									</parameter>
								</effect>
							</filter>
						<link>
							<linkclipref>clipitem-2444</linkclipref>
							<mediatype>audio</mediatype>
							<trackindex>17</trackindex>
							<clipindex>90</clipindex>
							<groupindex>1</groupindex>
						</link>
						<link>
							<linkclipref>clipitem-2614</linkclipref>
							<mediatype>audio</mediatype>
							<trackindex>18</trackindex>
							<clipindex>83</clipindex>
							<groupindex>1</groupindex>
						</link>
						<logginginfo>
							<description></description>
							<scene></scene>
							<shottake></shottake>
							<lognote></lognote>
						</logginginfo>
						<labels>
							<label2>Iris</label2>
						</labels>
					</clipitem>
					<transitionitem>
						<start>20594</start>
						<end>20617</end>
						<alignment>center</alignment>
						<cutPointTicks>111767040000</cutPointTicks>
						<rate>
							<timebase>25</timebase>
							<ntsc>FALSE</ntsc>
						</rate>
						<effect>
							<name>Cross Fade (+3dB)</name>
							<effectid>KGAudioTransCrossFade3dB</effectid>
							<effecttype>transition</effecttype>
							<mediatype>audio</mediatype>
							<wipecode>0</wipecode>
							<wipeaccuracy>100</wipeaccuracy>
							<startratio>0</startratio>
							<endratio>1</endratio>
							<reverse>FALSE</reverse>
						</effect>
					</transitionitem>
					<clipitem id="clipitem-2445" premiereChannelType="stereo">
						<masterclipid>masterclip-35</masterclipid>
						<name>Alejandro Fuentes - Stars.mp4</name>
						<enabled>TRUE</enabled>
						<duration>5195</duration>
						<rate>
							<timebase>25</timebase>
							<ntsc>FALSE</ntsc>
						</rate>
						<start>-1</start>
						<end>-1</end>
						<in>836</in>
						<out>1031</out>
						<pproTicksIn>8494295040000</pproTicksIn>
						<pproTicksOut>10475619840000</pproTicksOut>
						<file id="file-31"/>
						<sourcetrack>
							<mediatype>audio</mediatype>
							<trackindex>1</trackindex>
						</sourcetrack>
							<filter>
								<effect>
									<name>Audio Levels</name>
									<effectid>audiolevels</effectid>
									<effectcategory>audiolevels</effectcategory>
									<effecttype>audiolevels</effecttype>
									<mediatype>audio</mediatype>
									<parameter authoringApp="PremierePro">
										<parameterid>level</parameterid>
										<name>Level</name>
										<valuemin>0</valuemin>
										<valuemax>3.98109</valuemax>
										<value>0.111936</value>
									</parameter>
								</effect>
							</filter>
						<link>
							<linkclipref>clipitem-2445</linkclipref>
							<mediatype>audio</mediatype>
							<trackindex>17</trackindex>
							<clipindex>92</clipindex>
							<groupindex>1</groupindex>
						</link>
						<link>
							<linkclipref>clipitem-2615</linkclipref>
							<mediatype>audio</mediatype>
							<trackindex>18</trackindex>
							<clipindex>85</clipindex>
							<groupindex>1</groupindex>
						</link>
						<logginginfo>
							<description></description>
							<scene></scene>
							<shottake></shottake>
							<lognote></lognote>
						</logginginfo>
						<labels>
							<label2>Iris</label2>
						</labels>
					</clipitem>
					<transitionitem>
						<start>20776</start>
						<end>20789</end>
						<alignment>center</alignment>
						<cutPointTicks>60963840000</cutPointTicks>
						<rate>
							<timebase>25</timebase>
							<ntsc>FALSE</ntsc>
						</rate>
						<effect>
							<name>Cross Fade (+3dB)</name>
							<effectid>KGAudioTransCrossFade3dB</effectid>
							<effecttype>transition</effecttype>
							<mediatype>audio</mediatype>
							<wipecode>0</wipecode>
							<wipeaccuracy>100</wipeaccuracy>
							<startratio>0</startratio>
							<endratio>1</endratio>
							<reverse>FALSE</reverse>
						</effect>
					</transitionitem>
					<clipitem id="clipitem-2446" premiereChannelType="stereo">
						<masterclipid>masterclip-35</masterclipid>
						<name>Alejandro Fuentes - Stars.mp4</name>
						<enabled>TRUE</enabled>
						<duration>5195</duration>
						<rate>
							<timebase>25</timebase>
							<ntsc>FALSE</ntsc>
						</rate>
						<start>-1</start>
						<end>-1</end>
						<in>1018</in>
						<out>1170</out>
						<pproTicksIn>10343531520000</pproTicksIn>
						<pproTicksOut>11887948800000</pproTicksOut>
						<file id="file-31"/>
						<sourcetrack>
							<mediatype>audio</mediatype>
							<trackindex>1</trackindex>
						</sourcetrack>
							<filter>
								<effect>
									<name>Audio Levels</name>
									<effectid>audiolevels</effectid>
									<effectcategory>audiolevels</effectcategory>
									<effecttype>audiolevels</effecttype>
									<mediatype>audio</mediatype>
									<parameter authoringApp="PremierePro">
										<parameterid>level</parameterid>
										<name>Level</name>
										<valuemin>0</valuemin>
										<valuemax>3.98109</valuemax>
										<value>0.629462</value>
									</parameter>
								</effect>
							</filter>
						<link>
							<linkclipref>clipitem-2446</linkclipref>
							<mediatype>audio</mediatype>
							<trackindex>17</trackindex>
							<clipindex>94</clipindex>
							<groupindex>1</groupindex>
						</link>
						<link>
							<linkclipref>clipitem-2616</linkclipref>
							<mediatype>audio</mediatype>
							<trackindex>18</trackindex>
							<clipindex>87</clipindex>
							<groupindex>1</groupindex>
						</link>
						<logginginfo>
							<description></description>
							<scene></scene>
							<shottake></shottake>
							<lognote></lognote>
						</logginginfo>
						<labels>
							<label2>Iris</label2>
						</labels>
					</clipitem>
					<transitionitem>
						<start>20915</start>
						<end>20928</end>
						<alignment>center</alignment>
						<cutPointTicks>60963840000</cutPointTicks>
						<rate>
							<timebase>25</timebase>
							<ntsc>FALSE</ntsc>
						</rate>
						<effect>
							<name>Cross Fade (+3dB)</name>
							<effectid>KGAudioTransCrossFade3dB</effectid>
							<effecttype>transition</effecttype>
							<mediatype>audio</mediatype>
							<wipecode>0</wipecode>
							<wipeaccuracy>100</wipeaccuracy>
							<startratio>0</startratio>
							<endratio>1</endratio>
							<reverse>FALSE</reverse>
						</effect>
					</transitionitem>
					<clipitem id="clipitem-2447" premiereChannelType="stereo">
						<masterclipid>masterclip-36</masterclipid>
						<name>FK-05-JorunKristiansen-r.mxf</name>
						<enabled>TRUE</enabled>
						<duration>6631</duration>
						<rate>
							<timebase>25</timebase>
							<ntsc>FALSE</ntsc>
						</rate>
						<start>-1</start>
						<end>-1</end>
						<in>3694</in>
						<out>3861</out>
						<pproTicksIn>37533404160000</pproTicksIn>
						<pproTicksOut>39230231040000</pproTicksOut>
						<file id="file-32"/>
						<sourcetrack>
							<mediatype>audio</mediatype>
							<trackindex>1</trackindex>
						</sourcetrack>
							<filter>
								<effect>
									<name>Audio Levels</name>
									<effectid>audiolevels</effectid>
									<effectcategory>audiolevels</effectcategory>
									<effecttype>audiolevels</effecttype>
									<mediatype>audio</mediatype>
									<parameter authoringApp="PremierePro">
										<parameterid>level</parameterid>
										<name>Level</name>
										<valuemin>0</valuemin>
										<valuemax>3.98109</valuemax>
										<value>1.58114</value>
									</parameter>
								</effect>
							</filter>
						<link>
							<linkclipref>clipitem-2447</linkclipref>
							<mediatype>audio</mediatype>
							<trackindex>17</trackindex>
							<clipindex>96</clipindex>
							<groupindex>1</groupindex>
						</link>
						<link>
							<linkclipref>clipitem-2617</linkclipref>
							<mediatype>audio</mediatype>
							<trackindex>18</trackindex>
							<clipindex>89</clipindex>
							<groupindex>1</groupindex>
						</link>
						<logginginfo>
							<description></description>
							<scene></scene>
							<shottake></shottake>
							<lognote></lognote>
						</logginginfo>
						<labels>
							<label2>Iris</label2>
						</labels>
					</clipitem>
					<transitionitem>
						<start>21069</start>
						<end>21082</end>
						<alignment>center</alignment>
						<cutPointTicks>60963840000</cutPointTicks>
						<rate>
							<timebase>25</timebase>
							<ntsc>FALSE</ntsc>
						</rate>
						<effect>
							<name>Cross Fade (+3dB)</name>
							<effectid>KGAudioTransCrossFade3dB</effectid>
							<effecttype>transition</effecttype>
							<mediatype>audio</mediatype>
							<wipecode>0</wipecode>
							<wipeaccuracy>100</wipeaccuracy>
							<startratio>0</startratio>
							<endratio>1</endratio>
							<reverse>FALSE</reverse>
						</effect>
					</transitionitem>
					<clipitem id="clipitem-2448" premiereChannelType="stereo">
						<masterclipid>masterclip-36</masterclipid>
						<name>FK-05-JorunKristiansen-r.mxf</name>
						<enabled>TRUE</enabled>
						<duration>6631</duration>
						<rate>
							<timebase>25</timebase>
							<ntsc>FALSE</ntsc>
						</rate>
						<start>-1</start>
						<end>-1</end>
						<in>3848</in>
						<out>3966</out>
						<pproTicksIn>39098142720000</pproTicksIn>
						<pproTicksOut>40297098240000</pproTicksOut>
						<file id="file-32"/>
						<sourcetrack>
							<mediatype>audio</mediatype>
							<trackindex>1</trackindex>
						</sourcetrack>
							<filter>
								<effect>
									<name>Audio Levels</name>
									<effectid>audiolevels</effectid>
									<effectcategory>audiolevels</effectcategory>
									<effecttype>audiolevels</effecttype>
									<mediatype>audio</mediatype>
									<parameter authoringApp="PremierePro">
										<parameterid>level</parameterid>
										<name>Level</name>
										<valuemin>0</valuemin>
										<valuemax>3.98109</valuemax>
										<value>0.315478</value>
									</parameter>
								</effect>
							</filter>
						<link>
							<linkclipref>clipitem-2448</linkclipref>
							<mediatype>audio</mediatype>
							<trackindex>17</trackindex>
							<clipindex>98</clipindex>
							<groupindex>1</groupindex>
						</link>
						<link>
							<linkclipref>clipitem-2618</linkclipref>
							<mediatype>audio</mediatype>
							<trackindex>18</trackindex>
							<clipindex>91</clipindex>
							<groupindex>1</groupindex>
						</link>
						<logginginfo>
							<description></description>
							<scene></scene>
							<shottake></shottake>
							<lognote></lognote>
						</logginginfo>
						<labels>
							<label2>Iris</label2>
						</labels>
					</clipitem>
					<transitionitem>
						<start>21174</start>
						<end>21187</end>
						<alignment>center</alignment>
						<cutPointTicks>60963840000</cutPointTicks>
						<rate>
							<timebase>25</timebase>
							<ntsc>FALSE</ntsc>
						</rate>
						<effect>
							<name>Cross Fade (+3dB)</name>
							<effectid>KGAudioTransCrossFade3dB</effectid>
							<effecttype>transition</effecttype>
							<mediatype>audio</mediatype>
							<wipecode>0</wipecode>
							<wipeaccuracy>100</wipeaccuracy>
							<startratio>0</startratio>
							<endratio>1</endratio>
							<reverse>FALSE</reverse>
						</effect>
					</transitionitem>
					<clipitem id="clipitem-2449" premiereChannelType="stereo">
						<masterclipid>masterclip-37</masterclipid>
						<name>musikkvideo-1365-20054.mxf</name>
						<enabled>TRUE</enabled>
						<duration>5480</duration>
						<rate>
							<timebase>25</timebase>
							<ntsc>FALSE</ntsc>
						</rate>
						<start>-1</start>
						<end>21344</end>
						<in>1768</in>
						<out>1938</out>
						<pproTicksIn>17964011520000</pproTicksIn>
						<pproTicksOut>19691320320000</pproTicksOut>
						<file id="file-33"/>
						<sourcetrack>
							<mediatype>audio</mediatype>
							<trackindex>1</trackindex>
						</sourcetrack>
							<filter>
								<effect>
									<name>Audio Levels</name>
									<effectid>audiolevels</effectid>
									<effectcategory>audiolevels</effectcategory>
									<effecttype>audiolevels</effecttype>
									<mediatype>audio</mediatype>
									<parameter authoringApp="PremierePro">
										<parameterid>level</parameterid>
										<name>Level</name>
										<valuemin>0</valuemin>
										<valuemax>3.98109</valuemax>
										<value>0.99763</value>
									</parameter>
								</effect>
							</filter>
						<link>
							<linkclipref>clipitem-2449</linkclipref>
							<mediatype>audio</mediatype>
							<trackindex>17</trackindex>
							<clipindex>100</clipindex>
							<groupindex>1</groupindex>
						</link>
						<link>
							<linkclipref>clipitem-2619</linkclipref>
							<mediatype>audio</mediatype>
							<trackindex>18</trackindex>
							<clipindex>93</clipindex>
							<groupindex>1</groupindex>
						</link>
						<logginginfo>
							<description></description>
							<scene></scene>
							<shottake></shottake>
							<lognote></lognote>
						</logginginfo>
						<labels>
							<label2>Iris</label2>
						</labels>
					</clipitem>
					<clipitem id="clipitem-2450" premiereChannelType="stereo">
						<masterclipid>masterclip-38</masterclipid>
						<name>musikkvideo-1333-11260.mxf</name>
						<enabled>TRUE</enabled>
						<duration>5216</duration>
						<rate>
							<timebase>25</timebase>
							<ntsc>FALSE</ntsc>
						</rate>
						<start>21344</start>
						<end>-1</end>
						<in>2151</in>
						<out>2344</out>
						<pproTicksIn>21855536640000</pproTicksIn>
						<pproTicksOut>23816540160000</pproTicksOut>
						<file id="file-34"/>
						<sourcetrack>
							<mediatype>audio</mediatype>
							<trackindex>1</trackindex>
						</sourcetrack>
							<filter>
								<effect>
									<name>Audio Levels</name>
									<effectid>audiolevels</effectid>
									<effectcategory>audiolevels</effectcategory>
									<effecttype>audiolevels</effecttype>
									<mediatype>audio</mediatype>
									<parameter authoringApp="PremierePro">
										<parameterid>level</parameterid>
										<name>Level</name>
										<valuemin>0</valuemin>
										<valuemax>3.98109</valuemax>
										<value>0.99763</value>
									</parameter>
								</effect>
							</filter>
						<link>
							<linkclipref>clipitem-2450</linkclipref>
							<mediatype>audio</mediatype>
							<trackindex>17</trackindex>
							<clipindex>101</clipindex>
							<groupindex>1</groupindex>
						</link>
						<link>
							<linkclipref>clipitem-2620</linkclipref>
							<mediatype>audio</mediatype>
							<trackindex>18</trackindex>
							<clipindex>94</clipindex>
							<groupindex>1</groupindex>
						</link>
						<logginginfo>
							<description></description>
							<scene></scene>
							<shottake></shottake>
							<lognote></lognote>
						</logginginfo>
						<labels>
							<label2>Iris</label2>
						</labels>
					</clipitem>
					<transitionitem>
						<start>21530</start>
						<end>21537</end>
						<alignment>center</alignment>
						<cutPointTicks>30481920000</cutPointTicks>
						<rate>
							<timebase>25</timebase>
							<ntsc>FALSE</ntsc>
						</rate>
						<effect>
							<name>Cross Fade (+3dB)</name>
							<effectid>KGAudioTransCrossFade3dB</effectid>
							<effecttype>transition</effecttype>
							<mediatype>audio</mediatype>
							<wipecode>0</wipecode>
							<wipeaccuracy>100</wipeaccuracy>
							<startratio>0</startratio>
							<endratio>1</endratio>
							<reverse>FALSE</reverse>
						</effect>
					</transitionitem>
					<clipitem id="clipitem-2451" premiereChannelType="stereo">
						<masterclipid>masterclip-38</masterclipid>
						<name>musikkvideo-1333-11260.mxf</name>
						<enabled>TRUE</enabled>
						<duration>5216</duration>
						<rate>
							<timebase>25</timebase>
							<ntsc>FALSE</ntsc>
						</rate>
						<start>-1</start>
						<end>21595</end>
						<in>2337</in>
						<out>2402</out>
						<pproTicksIn>23745415680000</pproTicksIn>
						<pproTicksOut>24405857280000</pproTicksOut>
						<file id="file-34"/>
						<sourcetrack>
							<mediatype>audio</mediatype>
							<trackindex>1</trackindex>
						</sourcetrack>
							<filter>
								<effect>
									<name>Audio Levels</name>
									<effectid>audiolevels</effectid>
									<effectcategory>audiolevels</effectcategory>
									<effecttype>audiolevels</effecttype>
									<mediatype>audio</mediatype>
									<parameter authoringApp="PremierePro">
										<parameterid>level</parameterid>
										<name>Level</name>
										<valuemin>0</valuemin>
										<valuemax>3.98109</valuemax>
										<value>0.707945</value>
									</parameter>
								</effect>
							</filter>
						<link>
							<linkclipref>clipitem-2451</linkclipref>
							<mediatype>audio</mediatype>
							<trackindex>17</trackindex>
							<clipindex>103</clipindex>
							<groupindex>1</groupindex>
						</link>
						<link>
							<linkclipref>clipitem-2621</linkclipref>
							<mediatype>audio</mediatype>
							<trackindex>18</trackindex>
							<clipindex>96</clipindex>
							<groupindex>1</groupindex>
						</link>
						<logginginfo>
							<description></description>
							<scene></scene>
							<shottake></shottake>
							<lognote></lognote>
						</logginginfo>
						<labels>
							<label2>Iris</label2>
						</labels>
					</clipitem>
					<clipitem id="clipitem-2452" premiereChannelType="stereo">
						<masterclipid>masterclip-39</masterclipid>
						<name>musikkvideo-1352-18180.mxf</name>
						<enabled>TRUE</enabled>
						<duration>6601</duration>
						<rate>
							<timebase>25</timebase>
							<ntsc>FALSE</ntsc>
						</rate>
						<start>21595</start>
						<end>-1</end>
						<in>1591</in>
						<out>1719</out>
						<pproTicksIn>16165578240000</pproTicksIn>
						<pproTicksOut>17466140160000</pproTicksOut>
						<file id="file-35"/>
						<sourcetrack>
							<mediatype>audio</mediatype>
							<trackindex>1</trackindex>
						</sourcetrack>
							<filter>
								<effect>
									<name>Audio Levels</name>
									<effectid>audiolevels</effectid>
									<effectcategory>audiolevels</effectcategory>
									<effecttype>audiolevels</effecttype>
									<mediatype>audio</mediatype>
									<parameter authoringApp="PremierePro">
										<parameterid>level</parameterid>
										<name>Level</name>
										<valuemin>0</valuemin>
										<valuemax>3.98109</valuemax>
										<value>0.383704</value>
									</parameter>
								</effect>
							</filter>
						<link>
							<linkclipref>clipitem-2452</linkclipref>
							<mediatype>audio</mediatype>
							<trackindex>17</trackindex>
							<clipindex>104</clipindex>
							<groupindex>1</groupindex>
						</link>
						<link>
							<linkclipref>clipitem-2622</linkclipref>
							<mediatype>audio</mediatype>
							<trackindex>18</trackindex>
							<clipindex>97</clipindex>
							<groupindex>1</groupindex>
						</link>
						<logginginfo>
							<description></description>
							<scene></scene>
							<shottake></shottake>
							<lognote></lognote>
						</logginginfo>
						<labels>
							<label2>Iris</label2>
						</labels>
					</clipitem>
					<transitionitem>
						<start>21710</start>
						<end>21723</end>
						<alignment>center</alignment>
						<cutPointTicks>60963840000</cutPointTicks>
						<rate>
							<timebase>25</timebase>
							<ntsc>FALSE</ntsc>
						</rate>
						<effect>
							<name>Cross Fade (+3dB)</name>
							<effectid>KGAudioTransCrossFade3dB</effectid>
							<effecttype>transition</effecttype>
							<mediatype>audio</mediatype>
							<wipecode>0</wipecode>
							<wipeaccuracy>100</wipeaccuracy>
							<startratio>0</startratio>
							<endratio>1</endratio>
							<reverse>FALSE</reverse>
						</effect>
					</transitionitem>
					<clipitem id="clipitem-2453" premiereChannelType="stereo">
						<masterclipid>masterclip-39</masterclipid>
						<name>musikkvideo-1352-18180.mxf</name>
						<enabled>TRUE</enabled>
						<duration>6601</duration>
						<rate>
							<timebase>25</timebase>
							<ntsc>FALSE</ntsc>
						</rate>
						<start>-1</start>
						<end>21859</end>
						<in>1706</in>
						<out>1855</out>
						<pproTicksIn>17334051840000</pproTicksIn>
						<pproTicksOut>18847987200000</pproTicksOut>
						<file id="file-35"/>
						<sourcetrack>
							<mediatype>audio</mediatype>
							<trackindex>1</trackindex>
						</sourcetrack>
							<filter>
								<effect>
									<name>Audio Levels</name>
									<effectid>audiolevels</effectid>
									<effectcategory>audiolevels</effectcategory>
									<effecttype>audiolevels</effecttype>
									<mediatype>audio</mediatype>
									<parameter authoringApp="PremierePro">
										<parameterid>level</parameterid>
										<name>Level</name>
										<valuemin>0</valuemin>
										<valuemax>3.98109</valuemax>
										<value>1.40919</value>
									</parameter>
								</effect>
							</filter>
						<link>
							<linkclipref>clipitem-2453</linkclipref>
							<mediatype>audio</mediatype>
							<trackindex>17</trackindex>
							<clipindex>106</clipindex>
							<groupindex>1</groupindex>
						</link>
						<link>
							<linkclipref>clipitem-2623</linkclipref>
							<mediatype>audio</mediatype>
							<trackindex>18</trackindex>
							<clipindex>99</clipindex>
							<groupindex>1</groupindex>
						</link>
						<logginginfo>
							<description></description>
							<scene></scene>
							<shottake></shottake>
							<lognote></lognote>
						</logginginfo>
						<labels>
							<label2>Iris</label2>
						</labels>
					</clipitem>
					<clipitem id="clipitem-2454" premiereChannelType="stereo">
						<masterclipid>masterclip-40</masterclipid>
						<name>musikkvideo-1370-15956.mxf</name>
						<enabled>TRUE</enabled>
						<duration>6075</duration>
						<rate>
							<timebase>25</timebase>
							<ntsc>FALSE</ntsc>
						</rate>
						<start>21859</start>
						<end>22292</end>
						<in>4473</in>
						<out>4906</out>
						<pproTicksIn>45448542720000</pproTicksIn>
						<pproTicksOut>49848099840000</pproTicksOut>
						<file id="file-36"/>
						<sourcetrack>
							<mediatype>audio</mediatype>
							<trackindex>1</trackindex>
						</sourcetrack>
							<filter>
								<effect>
									<name>Audio Levels</name>
									<effectid>audiolevels</effectid>
									<effectcategory>audiolevels</effectcategory>
									<effecttype>audiolevels</effecttype>
									<mediatype>audio</mediatype>
									<parameter authoringApp="PremierePro">
										<parameterid>level</parameterid>
										<name>Level</name>
										<valuemin>0</valuemin>
										<valuemax>3.98109</valuemax>
										<value>0</value>
										<keyframe>
											<when>4768</when>
											<value>0.99763</value>
										</keyframe>
										<keyframe>
											<when>4905</when>
											<value>0</value>
										</keyframe>
									</parameter>
								</effect>
							</filter>
						<link>
							<linkclipref>clipitem-2454</linkclipref>
							<mediatype>audio</mediatype>
							<trackindex>17</trackindex>
							<clipindex>107</clipindex>
							<groupindex>1</groupindex>
						</link>
						<link>
							<linkclipref>clipitem-2624</linkclipref>
							<mediatype>audio</mediatype>
							<trackindex>18</trackindex>
							<clipindex>100</clipindex>
							<groupindex>1</groupindex>
						</link>
						<logginginfo>
							<description></description>
							<scene></scene>
							<shottake></shottake>
							<lognote></lognote>
						</logginginfo>
						<labels>
							<label2>Iris</label2>
						</labels>
					</clipitem>
					<clipitem id="clipitem-2455" premiereChannelType="stereo">
						<masterclipid>masterclip-98</masterclipid>
						<name>Noen få ler kort.wav</name>
						<enabled>TRUE</enabled>
						<duration>43</duration>
						<rate>
							<timebase>25</timebase>
							<ntsc>FALSE</ntsc>
						</rate>
						<start>22711</start>
						<end>22754</end>
						<in>0</in>
						<out>43</out>
						<pproTicksIn>0</pproTicksIn>
						<pproTicksOut>436907520000</pproTicksOut>
						<file id="file-94">
							<name>Noen få ler kort.wav</name>
							<pathurl>file://localhost/Volumes/Brakka/AdobeLager/QUIZ%20-%20brakka/RA%cc%8aSTOFF%20LYD/Publikumsreaksjoner/Fra%201980/Noen%20fa%cc%8a%20ler%20kort.wav</pathurl>
							<rate>
								<timebase>30</timebase>
								<ntsc>TRUE</ntsc>
							</rate>
							<duration>52</duration>
							<timecode>
								<rate>
									<timebase>30</timebase>
									<ntsc>TRUE</ntsc>
								</rate>
								<string>12;54;28;01</string>
								<frame>1392647</frame>
								<displayformat>DF</displayformat>
								<reel>
									<name></name>
								</reel>
							</timecode>
							<media>
								<audio>
									<samplecharacteristics>
										<depth>16</depth>
										<samplerate>48000</samplerate>
									</samplecharacteristics>
									<channelcount>2</channelcount>
								</audio>
							</media>
						</file>
						<sourcetrack>
							<mediatype>audio</mediatype>
							<trackindex>1</trackindex>
						</sourcetrack>
						<link>
							<linkclipref>clipitem-2455</linkclipref>
							<mediatype>audio</mediatype>
							<trackindex>17</trackindex>
							<clipindex>108</clipindex>
							<groupindex>1</groupindex>
						</link>
						<link>
							<linkclipref>clipitem-2625</linkclipref>
							<mediatype>audio</mediatype>
							<trackindex>18</trackindex>
							<clipindex>101</clipindex>
							<groupindex>1</groupindex>
						</link>
						<logginginfo>
							<description></description>
							<scene></scene>
							<shottake></shottake>
							<lognote></lognote>
						</logginginfo>
						<labels>
							<label2>Caribbean</label2>
						</labels>
					</clipitem>
					<clipitem id="clipitem-2456" premiereChannelType="stereo">
						<masterclipid>masterclip-99</masterclipid>
						<name>Latter en fyr.wav</name>
						<enabled>TRUE</enabled>
						<duration>34</duration>
						<rate>
							<timebase>25</timebase>
							<ntsc>FALSE</ntsc>
						</rate>
						<start>23323</start>
						<end>23357</end>
						<in>0</in>
						<out>34</out>
						<pproTicksIn>0</pproTicksIn>
						<pproTicksOut>345461760000</pproTicksOut>
						<file id="file-95">
							<name>Latter en fyr.wav</name>
							<pathurl>file://localhost/Volumes/Brakka/AdobeLager/QUIZ%20-%20brakka/RA%cc%8aSTOFF%20LYD/Publikumsreaksjoner/Fra%201986/Latter%20en%20fyr.wav</pathurl>
							<rate>
								<timebase>30</timebase>
								<ntsc>TRUE</ntsc>
							</rate>
							<duration>41</duration>
							<timecode>
								<rate>
									<timebase>30</timebase>
									<ntsc>TRUE</ntsc>
								</rate>
								<string>14;45;07;23</string>
								<frame>1591639</frame>
								<displayformat>DF</displayformat>
								<reel>
									<name></name>
								</reel>
							</timecode>
							<media>
								<audio>
									<samplecharacteristics>
										<depth>16</depth>
										<samplerate>48000</samplerate>
									</samplecharacteristics>
									<channelcount>2</channelcount>
								</audio>
							</media>
						</file>
						<sourcetrack>
							<mediatype>audio</mediatype>
							<trackindex>1</trackindex>
						</sourcetrack>
						<link>
							<linkclipref>clipitem-2456</linkclipref>
							<mediatype>audio</mediatype>
							<trackindex>17</trackindex>
							<clipindex>109</clipindex>
							<groupindex>1</groupindex>
						</link>
						<link>
							<linkclipref>clipitem-2626</linkclipref>
							<mediatype>audio</mediatype>
							<trackindex>18</trackindex>
							<clipindex>102</clipindex>
							<groupindex>1</groupindex>
						</link>
						<logginginfo>
							<description></description>
							<scene></scene>
							<shottake></shottake>
							<lognote></lognote>
						</logginginfo>
						<labels>
							<label2>Caribbean</label2>
						</labels>
					</clipitem>
					<clipitem id="clipitem-2457" premiereChannelType="stereo">
						<masterclipid>masterclip-78</masterclipid>
						<name>Humring.wav</name>
						<enabled>TRUE</enabled>
						<duration>62</duration>
						<rate>
							<timebase>25</timebase>
							<ntsc>FALSE</ntsc>
						</rate>
						<start>23601</start>
						<end>23663</end>
						<in>0</in>
						<out>62</out>
						<pproTicksIn>0</pproTicksIn>
						<pproTicksOut>629959680000</pproTicksOut>
						<file id="file-74"/>
						<sourcetrack>
							<mediatype>audio</mediatype>
							<trackindex>1</trackindex>
						</sourcetrack>
						<link>
							<linkclipref>clipitem-2457</linkclipref>
							<mediatype>audio</mediatype>
							<trackindex>17</trackindex>
							<clipindex>110</clipindex>
							<groupindex>1</groupindex>
						</link>
						<link>
							<linkclipref>clipitem-2627</linkclipref>
							<mediatype>audio</mediatype>
							<trackindex>18</trackindex>
							<clipindex>103</clipindex>
							<groupindex>1</groupindex>
						</link>
						<logginginfo>
							<description></description>
							<scene></scene>
							<shottake></shottake>
							<lognote></lognote>
						</logginginfo>
						<labels>
							<label2>Caribbean</label2>
						</labels>
					</clipitem>
					<clipitem id="clipitem-2458" premiereChannelType="stereo">
						<masterclipid>masterclip-100</masterclipid>
						<name>Latter spredt.wav</name>
						<enabled>TRUE</enabled>
						<duration>91</duration>
						<rate>
							<timebase>25</timebase>
							<ntsc>FALSE</ntsc>
						</rate>
						<start>23797</start>
						<end>23888</end>
						<in>0</in>
						<out>91</out>
						<pproTicksIn>0</pproTicksIn>
						<pproTicksOut>924618240000</pproTicksOut>
						<file id="file-96">
							<name>Latter spredt.wav</name>
							<pathurl>file://localhost/Volumes/Brakka/AdobeLager/QUIZ%20-%20brakka/RA%cc%8aSTOFF%20LYD/Publikumsreaksjoner/Fra%201986/Latter%20spredt.wav</pathurl>
							<rate>
								<timebase>30</timebase>
								<ntsc>TRUE</ntsc>
							</rate>
							<duration>109</duration>
							<timecode>
								<rate>
									<timebase>30</timebase>
									<ntsc>TRUE</ntsc>
								</rate>
								<string>14;56;54;26</string>
								<frame>1612832</frame>
								<displayformat>DF</displayformat>
								<reel>
									<name></name>
								</reel>
							</timecode>
							<media>
								<audio>
									<samplecharacteristics>
										<depth>16</depth>
										<samplerate>48000</samplerate>
									</samplecharacteristics>
									<channelcount>2</channelcount>
								</audio>
							</media>
						</file>
						<sourcetrack>
							<mediatype>audio</mediatype>
							<trackindex>1</trackindex>
						</sourcetrack>
						<link>
							<linkclipref>clipitem-2458</linkclipref>
							<mediatype>audio</mediatype>
							<trackindex>17</trackindex>
							<clipindex>111</clipindex>
							<groupindex>1</groupindex>
						</link>
						<link>
							<linkclipref>clipitem-2628</linkclipref>
							<mediatype>audio</mediatype>
							<trackindex>18</trackindex>
							<clipindex>104</clipindex>
							<groupindex>1</groupindex>
						</link>
						<logginginfo>
							<description></description>
							<scene></scene>
							<shottake></shottake>
							<lognote></lognote>
						</logginginfo>
						<labels>
							<label2>Caribbean</label2>
						</labels>
					</clipitem>
					<clipitem id="clipitem-2459" premiereChannelType="stereo">
						<masterclipid>masterclip-101</masterclipid>
						<name>Latter kort litt klapping.wav</name>
						<enabled>TRUE</enabled>
						<duration>68</duration>
						<rate>
							<timebase>25</timebase>
							<ntsc>FALSE</ntsc>
						</rate>
						<start>24086</start>
						<end>24114</end>
						<in>0</in>
						<out>28</out>
						<pproTicksIn>0</pproTicksIn>
						<pproTicksOut>284497920000</pproTicksOut>
						<file id="file-97">
							<name>Latter kort litt klapping.wav</name>
							<pathurl>file://localhost/Volumes/Brakka/AdobeLager/QUIZ%20-%20brakka/RA%cc%8aSTOFF%20LYD/Publikumsreaksjoner/Fra%201986/Latter%20kort%20litt%20klapping.wav</pathurl>
							<rate>
								<timebase>30</timebase>
								<ntsc>TRUE</ntsc>
							</rate>
							<duration>82</duration>
							<timecode>
								<rate>
									<timebase>30</timebase>
									<ntsc>TRUE</ntsc>
								</rate>
								<string>14;57;24;08</string>
								<frame>1613712</frame>
								<displayformat>DF</displayformat>
								<reel>
									<name></name>
								</reel>
							</timecode>
							<media>
								<audio>
									<samplecharacteristics>
										<depth>16</depth>
										<samplerate>48000</samplerate>
									</samplecharacteristics>
									<channelcount>2</channelcount>
								</audio>
							</media>
						</file>
						<sourcetrack>
							<mediatype>audio</mediatype>
							<trackindex>1</trackindex>
						</sourcetrack>
						<link>
							<linkclipref>clipitem-2459</linkclipref>
							<mediatype>audio</mediatype>
							<trackindex>17</trackindex>
							<clipindex>112</clipindex>
							<groupindex>1</groupindex>
						</link>
						<link>
							<linkclipref>clipitem-2629</linkclipref>
							<mediatype>audio</mediatype>
							<trackindex>18</trackindex>
							<clipindex>105</clipindex>
							<groupindex>1</groupindex>
						</link>
						<logginginfo>
							<description></description>
							<scene></scene>
							<shottake></shottake>
							<lognote></lognote>
						</logginginfo>
						<labels>
							<label2>Caribbean</label2>
						</labels>
					</clipitem>
					<clipitem id="clipitem-2460" premiereChannelType="stereo">
						<masterclipid>masterclip-101</masterclipid>
						<name>Latter kort litt klapping.wav</name>
						<enabled>TRUE</enabled>
						<duration>68</duration>
						<rate>
							<timebase>25</timebase>
							<ntsc>FALSE</ntsc>
						</rate>
						<start>24114</start>
						<end>24154</end>
						<in>28</in>
						<out>68</out>
						<pproTicksIn>284497920000</pproTicksIn>
						<pproTicksOut>690923520000</pproTicksOut>
						<file id="file-97"/>
						<sourcetrack>
							<mediatype>audio</mediatype>
							<trackindex>1</trackindex>
						</sourcetrack>
						<link>
							<linkclipref>clipitem-2460</linkclipref>
							<mediatype>audio</mediatype>
							<trackindex>17</trackindex>
							<clipindex>113</clipindex>
							<groupindex>1</groupindex>
						</link>
						<link>
							<linkclipref>clipitem-2630</linkclipref>
							<mediatype>audio</mediatype>
							<trackindex>18</trackindex>
							<clipindex>106</clipindex>
							<groupindex>1</groupindex>
						</link>
						<logginginfo>
							<description></description>
							<scene></scene>
							<shottake></shottake>
							<lognote></lognote>
						</logginginfo>
						<labels>
							<label2>Caribbean</label2>
						</labels>
					</clipitem>
					<clipitem id="clipitem-2461" premiereChannelType="stereo">
						<masterclipid>masterclip-102</masterclipid>
						<name>Applaus 7 sek høflig.wav</name>
						<enabled>TRUE</enabled>
						<duration>189</duration>
						<rate>
							<timebase>25</timebase>
							<ntsc>FALSE</ntsc>
						</rate>
						<start>25266</start>
						<end>25455</end>
						<in>0</in>
						<out>189</out>
						<pproTicksIn>0</pproTicksIn>
						<pproTicksOut>1920360960000</pproTicksOut>
						<file id="file-98">
							<name>Applaus 7 sek høflig.wav</name>
							<pathurl>file://localhost/Volumes/Brakka/AdobeLager/QUIZ%20-%20brakka/RA%cc%8aSTOFF%20LYD/Publikumsreaksjoner/Fra%201986/Applaus%207%20sek%20h%c3%b8flig.wav</pathurl>
							<rate>
								<timebase>30</timebase>
								<ntsc>TRUE</ntsc>
							</rate>
							<duration>226</duration>
							<timecode>
								<rate>
									<timebase>30</timebase>
									<ntsc>TRUE</ntsc>
								</rate>
								<string>15;05;34;17</string>
								<frame>1628407</frame>
								<displayformat>DF</displayformat>
								<reel>
									<name></name>
								</reel>
							</timecode>
							<media>
								<audio>
									<samplecharacteristics>
										<depth>16</depth>
										<samplerate>48000</samplerate>
									</samplecharacteristics>
									<channelcount>2</channelcount>
								</audio>
							</media>
						</file>
						<sourcetrack>
							<mediatype>audio</mediatype>
							<trackindex>1</trackindex>
						</sourcetrack>
						<link>
							<linkclipref>clipitem-2461</linkclipref>
							<mediatype>audio</mediatype>
							<trackindex>17</trackindex>
							<clipindex>114</clipindex>
							<groupindex>1</groupindex>
						</link>
						<link>
							<linkclipref>clipitem-2631</linkclipref>
							<mediatype>audio</mediatype>
							<trackindex>18</trackindex>
							<clipindex>107</clipindex>
							<groupindex>1</groupindex>
						</link>
						<logginginfo>
							<description></description>
							<scene></scene>
							<shottake></shottake>
							<lognote></lognote>
						</logginginfo>
						<labels>
							<label2>Caribbean</label2>
						</labels>
					</clipitem>
					<clipitem id="clipitem-2462" premiereChannelType="stereo">
						<masterclipid>masterclip-103</masterclipid>
						<name>Latter brå.wav</name>
						<enabled>TRUE</enabled>
						<duration>87</duration>
						<rate>
							<timebase>25</timebase>
							<ntsc>FALSE</ntsc>
						</rate>
						<start>25495</start>
						<end>25582</end>
						<in>0</in>
						<out>87</out>
						<pproTicksIn>0</pproTicksIn>
						<pproTicksOut>883975680000</pproTicksOut>
						<file id="file-99">
							<name>Latter brå.wav</name>
							<pathurl>file://localhost/Volumes/Brakka/AdobeLager/QUIZ%20-%20brakka/RA%cc%8aSTOFF%20LYD/Publikumsreaksjoner/Fra%201990/Latter%20bra%cc%8a.wav</pathurl>
							<rate>
								<timebase>30</timebase>
								<ntsc>TRUE</ntsc>
							</rate>
							<duration>104</duration>
							<timecode>
								<rate>
									<timebase>30</timebase>
									<ntsc>TRUE</ntsc>
								</rate>
								<string>13;39;59;21</string>
								<frame>1474515</frame>
								<displayformat>DF</displayformat>
								<reel>
									<name></name>
								</reel>
							</timecode>
							<media>
								<audio>
									<samplecharacteristics>
										<depth>16</depth>
										<samplerate>48000</samplerate>
									</samplecharacteristics>
									<channelcount>2</channelcount>
								</audio>
							</media>
						</file>
						<sourcetrack>
							<mediatype>audio</mediatype>
							<trackindex>1</trackindex>
						</sourcetrack>
						<link>
							<linkclipref>clipitem-2462</linkclipref>
							<mediatype>audio</mediatype>
							<trackindex>17</trackindex>
							<clipindex>115</clipindex>
							<groupindex>1</groupindex>
						</link>
						<link>
							<linkclipref>clipitem-2632</linkclipref>
							<mediatype>audio</mediatype>
							<trackindex>18</trackindex>
							<clipindex>108</clipindex>
							<groupindex>1</groupindex>
						</link>
						<logginginfo>
							<description></description>
							<scene></scene>
							<shottake></shottake>
							<lognote></lognote>
						</logginginfo>
						<labels>
							<label2>Caribbean</label2>
						</labels>
					</clipitem>
					<clipitem id="clipitem-2463" premiereChannelType="stereo">
						<masterclipid>masterclip-104</masterclipid>
						<name>Latter klukking.wav</name>
						<enabled>TRUE</enabled>
						<duration>129</duration>
						<rate>
							<timebase>25</timebase>
							<ntsc>FALSE</ntsc>
						</rate>
						<start>25621</start>
						<end>25750</end>
						<in>0</in>
						<out>129</out>
						<pproTicksIn>0</pproTicksIn>
						<pproTicksOut>1310722560000</pproTicksOut>
						<file id="file-100">
							<name>Latter klukking.wav</name>
							<pathurl>file://localhost/Volumes/Brakka/AdobeLager/QUIZ%20-%20brakka/RA%cc%8aSTOFF%20LYD/Publikumsreaksjoner/Fra%201990/Latter%20klukking.wav</pathurl>
							<rate>
								<timebase>30</timebase>
								<ntsc>TRUE</ntsc>
							</rate>
							<duration>155</duration>
							<timecode>
								<rate>
									<timebase>30</timebase>
									<ntsc>TRUE</ntsc>
								</rate>
								<string>13;01;18;14</string>
								<frame>1404948</frame>
								<displayformat>DF</displayformat>
								<reel>
									<name></name>
								</reel>
							</timecode>
							<media>
								<audio>
									<samplecharacteristics>
										<depth>16</depth>
										<samplerate>48000</samplerate>
									</samplecharacteristics>
									<channelcount>2</channelcount>
								</audio>
							</media>
						</file>
						<sourcetrack>
							<mediatype>audio</mediatype>
							<trackindex>1</trackindex>
						</sourcetrack>
						<link>
							<linkclipref>clipitem-2463</linkclipref>
							<mediatype>audio</mediatype>
							<trackindex>17</trackindex>
							<clipindex>116</clipindex>
							<groupindex>1</groupindex>
						</link>
						<link>
							<linkclipref>clipitem-2633</linkclipref>
							<mediatype>audio</mediatype>
							<trackindex>18</trackindex>
							<clipindex>109</clipindex>
							<groupindex>1</groupindex>
						</link>
						<logginginfo>
							<description></description>
							<scene></scene>
							<shottake></shottake>
							<lognote></lognote>
						</logginginfo>
						<labels>
							<label2>Caribbean</label2>
						</labels>
					</clipitem>
					<clipitem id="clipitem-2464" premiereChannelType="stereo">
						<masterclipid>masterclip-105</masterclipid>
						<name>Latter kort.wav</name>
						<enabled>TRUE</enabled>
						<duration>64</duration>
						<rate>
							<timebase>25</timebase>
							<ntsc>FALSE</ntsc>
						</rate>
						<start>25806</start>
						<end>25870</end>
						<in>0</in>
						<out>64</out>
						<pproTicksIn>0</pproTicksIn>
						<pproTicksOut>650280960000</pproTicksOut>
						<file id="file-101">
							<name>Latter kort.wav</name>
							<pathurl>file://localhost/Volumes/Brakka/AdobeLager/QUIZ%20-%20brakka/RA%cc%8aSTOFF%20LYD/Publikumsreaksjoner/Fra%201990/Latter%20kort.wav</pathurl>
							<rate>
								<timebase>30</timebase>
								<ntsc>TRUE</ntsc>
							</rate>
							<duration>77</duration>
							<timecode>
								<rate>
									<timebase>30</timebase>
									<ntsc>TRUE</ntsc>
								</rate>
								<string>13;37;01;01</string>
								<frame>1469159</frame>
								<displayformat>DF</displayformat>
								<reel>
									<name></name>
								</reel>
							</timecode>
							<media>
								<audio>
									<samplecharacteristics>
										<depth>16</depth>
										<samplerate>48000</samplerate>
									</samplecharacteristics>
									<channelcount>2</channelcount>
								</audio>
							</media>
						</file>
						<sourcetrack>
							<mediatype>audio</mediatype>
							<trackindex>1</trackindex>
						</sourcetrack>
						<link>
							<linkclipref>clipitem-2464</linkclipref>
							<mediatype>audio</mediatype>
							<trackindex>17</trackindex>
							<clipindex>117</clipindex>
							<groupindex>1</groupindex>
						</link>
						<link>
							<linkclipref>clipitem-2634</linkclipref>
							<mediatype>audio</mediatype>
							<trackindex>18</trackindex>
							<clipindex>110</clipindex>
							<groupindex>1</groupindex>
						</link>
						<logginginfo>
							<description></description>
							<scene></scene>
							<shottake></shottake>
							<lognote></lognote>
						</logginginfo>
						<labels>
							<label2>Caribbean</label2>
						</labels>
					</clipitem>
					<clipitem id="clipitem-2465" premiereChannelType="stereo">
						<masterclipid>masterclip-42</masterclipid>
						<name>Mira Craig Stage Dive.mp4</name>
						<enabled>TRUE</enabled>
						<duration>965</duration>
						<rate>
							<timebase>25</timebase>
							<ntsc>FALSE</ntsc>
						</rate>
						<start>26099</start>
						<end>-1</end>
						<in>452</in>
						<out>548</out>
						<pproTicksIn>4592609280000</pproTicksIn>
						<pproTicksOut>5568030720000</pproTicksOut>
						<file id="file-38"/>
						<sourcetrack>
							<mediatype>audio</mediatype>
							<trackindex>1</trackindex>
						</sourcetrack>
							<filter>
								<effect>
									<name>Audio Levels</name>
									<effectid>audiolevels</effectid>
									<effectcategory>audiolevels</effectcategory>
									<effecttype>audiolevels</effecttype>
									<mediatype>audio</mediatype>
									<parameter authoringApp="PremierePro">
										<parameterid>level</parameterid>
										<name>Level</name>
										<valuemin>0</valuemin>
										<valuemax>3.98109</valuemax>
										<value>1.25594</value>
									</parameter>
								</effect>
							</filter>
						<link>
							<linkclipref>clipitem-2465</linkclipref>
							<mediatype>audio</mediatype>
							<trackindex>17</trackindex>
							<clipindex>118</clipindex>
							<groupindex>1</groupindex>
						</link>
						<link>
							<linkclipref>clipitem-2635</linkclipref>
							<mediatype>audio</mediatype>
							<trackindex>18</trackindex>
							<clipindex>111</clipindex>
							<groupindex>1</groupindex>
						</link>
						<logginginfo>
							<description></description>
							<scene></scene>
							<shottake></shottake>
							<lognote></lognote>
						</logginginfo>
						<labels>
							<label2>Iris</label2>
						</labels>
					</clipitem>
					<transitionitem>
						<start>26182</start>
						<end>26195</end>
						<alignment>end-black</alignment>
						<cutPointTicks>132088320000</cutPointTicks>
						<rate>
							<timebase>25</timebase>
							<ntsc>FALSE</ntsc>
						</rate>
						<effect>
							<name>Cross Fade (+3dB)</name>
							<effectid>KGAudioTransCrossFade3dB</effectid>
							<effecttype>transition</effecttype>
							<mediatype>audio</mediatype>
							<wipecode>0</wipecode>
							<wipeaccuracy>100</wipeaccuracy>
							<startratio>0</startratio>
							<endratio>1</endratio>
							<reverse>FALSE</reverse>
						</effect>
					</transitionitem>
					<transitionitem>
						<start>26278</start>
						<end>26291</end>
						<alignment>start-black</alignment>
						<cutPointTicks>0</cutPointTicks>
						<rate>
							<timebase>25</timebase>
							<ntsc>FALSE</ntsc>
						</rate>
						<effect>
							<name>Cross Fade (+3dB)</name>
							<effectid>KGAudioTransCrossFade3dB</effectid>
							<effecttype>transition</effecttype>
							<mediatype>audio</mediatype>
							<wipecode>0</wipecode>
							<wipeaccuracy>100</wipeaccuracy>
							<startratio>0</startratio>
							<endratio>1</endratio>
							<reverse>FALSE</reverse>
						</effect>
					</transitionitem>
					<clipitem id="clipitem-2466" premiereChannelType="stereo">
						<masterclipid>masterclip-42</masterclipid>
						<name>Mira Craig Stage Dive.mp4</name>
						<enabled>TRUE</enabled>
						<duration>965</duration>
						<rate>
							<timebase>25</timebase>
							<ntsc>FALSE</ntsc>
						</rate>
						<start>-1</start>
						<end>26294</end>
						<in>447</in>
						<out>463</out>
						<pproTicksIn>4541806080000</pproTicksIn>
						<pproTicksOut>4704376320000</pproTicksOut>
						<file id="file-38"/>
						<sourcetrack>
							<mediatype>audio</mediatype>
							<trackindex>1</trackindex>
						</sourcetrack>
							<filter>
								<effect>
									<name>Audio Levels</name>
									<effectid>audiolevels</effectid>
									<effectcategory>audiolevels</effectcategory>
									<effecttype>audiolevels</effecttype>
									<mediatype>audio</mediatype>
									<parameter authoringApp="PremierePro">
										<parameterid>level</parameterid>
										<name>Level</name>
										<valuemin>0</valuemin>
										<valuemax>3.98109</valuemax>
										<value>1.25594</value>
									</parameter>
								</effect>
							</filter>
						<link>
							<linkclipref>clipitem-2466</linkclipref>
							<mediatype>audio</mediatype>
							<trackindex>17</trackindex>
							<clipindex>121</clipindex>
							<groupindex>1</groupindex>
						</link>
						<link>
							<linkclipref>clipitem-2636</linkclipref>
							<mediatype>audio</mediatype>
							<trackindex>18</trackindex>
							<clipindex>114</clipindex>
							<groupindex>1</groupindex>
						</link>
						<logginginfo>
							<description></description>
							<scene></scene>
							<shottake></shottake>
							<lognote></lognote>
						</logginginfo>
						<labels>
							<label2>Iris</label2>
						</labels>
					</clipitem>
					<clipitem id="clipitem-2467" premiereChannelType="stereo">
						<masterclipid>masterclip-42</masterclipid>
						<name>Mira Craig Stage Dive.mp4</name>
						<enabled>TRUE</enabled>
						<duration>965</duration>
						<rate>
							<timebase>25</timebase>
							<ntsc>FALSE</ntsc>
						</rate>
						<start>26294</start>
						<end>-1</end>
						<in>463</in>
						<out>548</out>
						<pproTicksIn>4704376320000</pproTicksIn>
						<pproTicksOut>5568030720000</pproTicksOut>
						<file id="file-38"/>
						<sourcetrack>
							<mediatype>audio</mediatype>
							<trackindex>1</trackindex>
						</sourcetrack>
							<filter>
								<effect>
									<name>Audio Levels</name>
									<effectid>audiolevels</effectid>
									<effectcategory>audiolevels</effectcategory>
									<effecttype>audiolevels</effecttype>
									<mediatype>audio</mediatype>
									<parameter authoringApp="PremierePro">
										<parameterid>level</parameterid>
										<name>Level</name>
										<valuemin>0</valuemin>
										<valuemax>3.98109</valuemax>
										<value>1.25594</value>
									</parameter>
								</effect>
							</filter>
						<link>
							<linkclipref>clipitem-2467</linkclipref>
							<mediatype>audio</mediatype>
							<trackindex>17</trackindex>
							<clipindex>122</clipindex>
							<groupindex>1</groupindex>
						</link>
						<link>
							<linkclipref>clipitem-2637</linkclipref>
							<mediatype>audio</mediatype>
							<trackindex>18</trackindex>
							<clipindex>115</clipindex>
							<groupindex>1</groupindex>
						</link>
						<logginginfo>
							<description></description>
							<scene></scene>
							<shottake></shottake>
							<lognote></lognote>
						</logginginfo>
						<labels>
							<label2>Iris</label2>
						</labels>
					</clipitem>
					<transitionitem>
						<start>26366</start>
						<end>26379</end>
						<alignment>end-black</alignment>
						<cutPointTicks>132088320000</cutPointTicks>
						<rate>
							<timebase>25</timebase>
							<ntsc>FALSE</ntsc>
						</rate>
						<effect>
							<name>Cross Fade (+3dB)</name>
							<effectid>KGAudioTransCrossFade3dB</effectid>
							<effecttype>transition</effecttype>
							<mediatype>audio</mediatype>
							<wipecode>0</wipecode>
							<wipeaccuracy>100</wipeaccuracy>
							<startratio>0</startratio>
							<endratio>1</endratio>
							<reverse>FALSE</reverse>
						</effect>
					</transitionitem>
					<clipitem id="clipitem-2468" premiereChannelType="stereo">
						<masterclipid>masterclip-106</masterclipid>
						<name>Avmålt, kort HEHEHE.wav</name>
						<enabled>TRUE</enabled>
						<duration>51</duration>
						<rate>
							<timebase>25</timebase>
							<ntsc>FALSE</ntsc>
						</rate>
						<start>26724</start>
						<end>26775</end>
						<in>0</in>
						<out>51</out>
						<pproTicksIn>0</pproTicksIn>
						<pproTicksOut>518192640000</pproTicksOut>
						<file id="file-102">
							<name>Avmålt, kort HEHEHE.wav</name>
							<pathurl>file://localhost/Volumes/Brakka/AdobeLager/QUIZ%20-%20brakka/RA%cc%8aSTOFF%20LYD/Publikumsreaksjoner/Fra%201998/Avma%cc%8alt,%20kort%20HEHEHE.wav</pathurl>
							<rate>
								<timebase>30</timebase>
								<ntsc>TRUE</ntsc>
							</rate>
							<duration>61</duration>
							<timecode>
								<rate>
									<timebase>30</timebase>
									<ntsc>TRUE</ntsc>
								</rate>
								<string>13;47;12;25</string>
								<frame>1487495</frame>
								<displayformat>DF</displayformat>
								<reel>
									<name></name>
								</reel>
							</timecode>
							<media>
								<audio>
									<samplecharacteristics>
										<depth>16</depth>
										<samplerate>48000</samplerate>
									</samplecharacteristics>
									<channelcount>2</channelcount>
								</audio>
							</media>
						</file>
						<sourcetrack>
							<mediatype>audio</mediatype>
							<trackindex>1</trackindex>
						</sourcetrack>
						<link>
							<linkclipref>clipitem-2468</linkclipref>
							<mediatype>audio</mediatype>
							<trackindex>17</trackindex>
							<clipindex>124</clipindex>
							<groupindex>1</groupindex>
						</link>
						<link>
							<linkclipref>clipitem-2638</linkclipref>
							<mediatype>audio</mediatype>
							<trackindex>18</trackindex>
							<clipindex>117</clipindex>
							<groupindex>1</groupindex>
						</link>
						<logginginfo>
							<description></description>
							<scene></scene>
							<shottake></shottake>
							<lognote></lognote>
						</logginginfo>
						<labels>
							<label2>Caribbean</label2>
						</labels>
					</clipitem>
					<clipitem id="clipitem-2469" premiereChannelType="stereo">
						<masterclipid>masterclip-107</masterclipid>
						<name>Kort brå latter.wav</name>
						<enabled>TRUE</enabled>
						<duration>62</duration>
						<rate>
							<timebase>25</timebase>
							<ntsc>FALSE</ntsc>
						</rate>
						<start>26878</start>
						<end>26940</end>
						<in>0</in>
						<out>62</out>
						<pproTicksIn>0</pproTicksIn>
						<pproTicksOut>629959680000</pproTicksOut>
						<file id="file-103">
							<name>Kort brå latter.wav</name>
							<pathurl>file://localhost/Volumes/Brakka/AdobeLager/QUIZ%20-%20brakka/RA%cc%8aSTOFF%20LYD/Publikumsreaksjoner/Fra%201998/Kort%20bra%cc%8a%20latter.wav</pathurl>
							<rate>
								<timebase>30</timebase>
								<ntsc>TRUE</ntsc>
							</rate>
							<duration>74</duration>
							<timecode>
								<rate>
									<timebase>30</timebase>
									<ntsc>TRUE</ntsc>
								</rate>
								<string>13;17;59;05</string>
								<frame>1434939</frame>
								<displayformat>DF</displayformat>
								<reel>
									<name></name>
								</reel>
							</timecode>
							<media>
								<audio>
									<samplecharacteristics>
										<depth>16</depth>
										<samplerate>48000</samplerate>
									</samplecharacteristics>
									<channelcount>2</channelcount>
								</audio>
							</media>
						</file>
						<sourcetrack>
							<mediatype>audio</mediatype>
							<trackindex>1</trackindex>
						</sourcetrack>
						<link>
							<linkclipref>clipitem-2469</linkclipref>
							<mediatype>audio</mediatype>
							<trackindex>17</trackindex>
							<clipindex>125</clipindex>
							<groupindex>1</groupindex>
						</link>
						<link>
							<linkclipref>clipitem-2639</linkclipref>
							<mediatype>audio</mediatype>
							<trackindex>18</trackindex>
							<clipindex>118</clipindex>
							<groupindex>1</groupindex>
						</link>
						<logginginfo>
							<description></description>
							<scene></scene>
							<shottake></shottake>
							<lognote></lognote>
						</logginginfo>
						<labels>
							<label2>Caribbean</label2>
						</labels>
					</clipitem>
					<clipitem id="clipitem-2470" premiereChannelType="stereo">
						<masterclipid>masterclip-108</masterclipid>
						<name>Lavmælt latterkule.wav</name>
						<enabled>TRUE</enabled>
						<duration>102</duration>
						<rate>
							<timebase>25</timebase>
							<ntsc>FALSE</ntsc>
						</rate>
						<start>26952</start>
						<end>27054</end>
						<in>0</in>
						<out>102</out>
						<pproTicksIn>0</pproTicksIn>
						<pproTicksOut>1036385280000</pproTicksOut>
						<file id="file-104">
							<name>Lavmælt latterkule.wav</name>
							<pathurl>file://localhost/Volumes/Brakka/AdobeLager/QUIZ%20-%20brakka/RA%cc%8aSTOFF%20LYD/Publikumsreaksjoner/Fra%201980/Lavm%c3%a6lt%20latterkule.wav</pathurl>
							<rate>
								<timebase>30</timebase>
								<ntsc>TRUE</ntsc>
							</rate>
							<duration>122</duration>
							<timecode>
								<rate>
									<timebase>30</timebase>
									<ntsc>TRUE</ntsc>
								</rate>
								<string>14;18;29;22</string>
								<frame>1543746</frame>
								<displayformat>DF</displayformat>
								<reel>
									<name></name>
								</reel>
							</timecode>
							<media>
								<audio>
									<samplecharacteristics>
										<depth>16</depth>
										<samplerate>48000</samplerate>
									</samplecharacteristics>
									<channelcount>2</channelcount>
								</audio>
							</media>
						</file>
						<sourcetrack>
							<mediatype>audio</mediatype>
							<trackindex>1</trackindex>
						</sourcetrack>
						<link>
							<linkclipref>clipitem-2470</linkclipref>
							<mediatype>audio</mediatype>
							<trackindex>17</trackindex>
							<clipindex>126</clipindex>
							<groupindex>1</groupindex>
						</link>
						<link>
							<linkclipref>clipitem-2640</linkclipref>
							<mediatype>audio</mediatype>
							<trackindex>18</trackindex>
							<clipindex>119</clipindex>
							<groupindex>1</groupindex>
						</link>
						<logginginfo>
							<description></description>
							<scene></scene>
							<shottake></shottake>
							<lognote></lognote>
						</logginginfo>
						<labels>
							<label2>Caribbean</label2>
						</labels>
					</clipitem>
					<transitionitem>
						<start>27111</start>
						<end>27124</end>
						<alignment>start-black</alignment>
						<cutPointTicks>0</cutPointTicks>
						<rate>
							<timebase>25</timebase>
							<ntsc>FALSE</ntsc>
						</rate>
						<effect>
							<name>Cross Fade (+3dB)</name>
							<effectid>KGAudioTransCrossFade3dB</effectid>
							<effecttype>transition</effecttype>
							<mediatype>audio</mediatype>
							<wipecode>0</wipecode>
							<wipeaccuracy>100</wipeaccuracy>
							<startratio>0</startratio>
							<endratio>1</endratio>
							<reverse>FALSE</reverse>
						</effect>
					</transitionitem>
					<clipitem id="clipitem-2471" premiereChannelType="stereo">
						<masterclipid>masterclip-42</masterclipid>
						<name>Mira Craig Stage Dive.mp4</name>
						<enabled>TRUE</enabled>
						<duration>965</duration>
						<rate>
							<timebase>25</timebase>
							<ntsc>FALSE</ntsc>
						</rate>
						<start>-1</start>
						<end>-1</end>
						<in>381</in>
						<out>548</out>
						<pproTicksIn>3871203840000</pproTicksIn>
						<pproTicksOut>5568030720000</pproTicksOut>
						<file id="file-38"/>
						<sourcetrack>
							<mediatype>audio</mediatype>
							<trackindex>1</trackindex>
						</sourcetrack>
							<filter>
								<effect>
									<name>Audio Levels</name>
									<effectid>audiolevels</effectid>
									<effectcategory>audiolevels</effectcategory>
									<effecttype>audiolevels</effecttype>
									<mediatype>audio</mediatype>
									<parameter authoringApp="PremierePro">
										<parameterid>level</parameterid>
										<name>Level</name>
										<valuemin>0</valuemin>
										<valuemax>3.98109</valuemax>
										<value>1.25594</value>
									</parameter>
								</effect>
							</filter>
						<link>
							<linkclipref>clipitem-2471</linkclipref>
							<mediatype>audio</mediatype>
							<trackindex>17</trackindex>
							<clipindex>128</clipindex>
							<groupindex>1</groupindex>
						</link>
						<link>
							<linkclipref>clipitem-2641</linkclipref>
							<mediatype>audio</mediatype>
							<trackindex>18</trackindex>
							<clipindex>121</clipindex>
							<groupindex>1</groupindex>
						</link>
						<logginginfo>
							<description></description>
							<scene></scene>
							<shottake></shottake>
							<lognote></lognote>
						</logginginfo>
						<labels>
							<label2>Iris</label2>
						</labels>
					</clipitem>
					<transitionitem>
						<start>27265</start>
						<end>27278</end>
						<alignment>end-black</alignment>
						<cutPointTicks>132088320000</cutPointTicks>
						<rate>
							<timebase>25</timebase>
							<ntsc>FALSE</ntsc>
						</rate>
						<effect>
							<name>Cross Fade (+3dB)</name>
							<effectid>KGAudioTransCrossFade3dB</effectid>
							<effecttype>transition</effecttype>
							<mediatype>audio</mediatype>
							<wipecode>0</wipecode>
							<wipeaccuracy>100</wipeaccuracy>
							<startratio>0</startratio>
							<endratio>1</endratio>
							<reverse>FALSE</reverse>
						</effect>
					</transitionitem>
					<transitionitem>
						<start>27316</start>
						<end>27329</end>
						<alignment>start-black</alignment>
						<cutPointTicks>0</cutPointTicks>
						<rate>
							<timebase>25</timebase>
							<ntsc>FALSE</ntsc>
						</rate>
						<effect>
							<name>Cross Fade (+3dB)</name>
							<effectid>KGAudioTransCrossFade3dB</effectid>
							<effecttype>transition</effecttype>
							<mediatype>audio</mediatype>
							<wipecode>0</wipecode>
							<wipeaccuracy>100</wipeaccuracy>
							<startratio>0</startratio>
							<endratio>1</endratio>
							<reverse>FALSE</reverse>
						</effect>
					</transitionitem>
					<clipitem id="clipitem-2472" premiereChannelType="stereo">
						<masterclipid>masterclip-42</masterclipid>
						<name>Mira Craig Stage Dive.mp4</name>
						<enabled>TRUE</enabled>
						<duration>965</duration>
						<rate>
							<timebase>25</timebase>
							<ntsc>FALSE</ntsc>
						</rate>
						<start>-1</start>
						<end>-1</end>
						<in>381</in>
						<out>548</out>
						<pproTicksIn>3871203840000</pproTicksIn>
						<pproTicksOut>5568030720000</pproTicksOut>
						<file id="file-38"/>
						<sourcetrack>
							<mediatype>audio</mediatype>
							<trackindex>1</trackindex>
						</sourcetrack>
							<filter>
								<effect>
									<name>Audio Levels</name>
									<effectid>audiolevels</effectid>
									<effectcategory>audiolevels</effectcategory>
									<effecttype>audiolevels</effecttype>
									<mediatype>audio</mediatype>
									<parameter authoringApp="PremierePro">
										<parameterid>level</parameterid>
										<name>Level</name>
										<valuemin>0</valuemin>
										<valuemax>3.98109</valuemax>
										<value>1.25594</value>
									</parameter>
								</effect>
							</filter>
						<link>
							<linkclipref>clipitem-2472</linkclipref>
							<mediatype>audio</mediatype>
							<trackindex>17</trackindex>
							<clipindex>131</clipindex>
							<groupindex>1</groupindex>
						</link>
						<link>
							<linkclipref>clipitem-2642</linkclipref>
							<mediatype>audio</mediatype>
							<trackindex>18</trackindex>
							<clipindex>124</clipindex>
							<groupindex>1</groupindex>
						</link>
						<logginginfo>
							<description></description>
							<scene></scene>
							<shottake></shottake>
							<lognote></lognote>
						</logginginfo>
						<labels>
							<label2>Iris</label2>
						</labels>
					</clipitem>
					<transitionitem>
						<start>27470</start>
						<end>27483</end>
						<alignment>end-black</alignment>
						<cutPointTicks>132088320000</cutPointTicks>
						<rate>
							<timebase>25</timebase>
							<ntsc>FALSE</ntsc>
						</rate>
						<effect>
							<name>Cross Fade (+3dB)</name>
							<effectid>KGAudioTransCrossFade3dB</effectid>
							<effecttype>transition</effecttype>
							<mediatype>audio</mediatype>
							<wipecode>0</wipecode>
							<wipeaccuracy>100</wipeaccuracy>
							<startratio>0</startratio>
							<endratio>1</endratio>
							<reverse>FALSE</reverse>
						</effect>
					</transitionitem>
					<clipitem id="clipitem-2473" premiereChannelType="stereo">
						<masterclipid>masterclip-109</masterclipid>
						<name>Kort brå klukkende latter.wav</name>
						<enabled>TRUE</enabled>
						<duration>98</duration>
						<rate>
							<timebase>25</timebase>
							<ntsc>FALSE</ntsc>
						</rate>
						<start>27907</start>
						<end>28005</end>
						<in>0</in>
						<out>98</out>
						<pproTicksIn>0</pproTicksIn>
						<pproTicksOut>995742720000</pproTicksOut>
						<file id="file-105">
							<name>Kort brå klukkende latter.wav</name>
							<pathurl>file://localhost/Volumes/Brakka/AdobeLager/QUIZ%20-%20brakka/RA%cc%8aSTOFF%20LYD/Publikumsreaksjoner/Fra%201980/Kort%20bra%cc%8a%20klukkende%20latter.wav</pathurl>
							<rate>
								<timebase>30</timebase>
								<ntsc>TRUE</ntsc>
							</rate>
							<duration>118</duration>
							<timecode>
								<rate>
									<timebase>30</timebase>
									<ntsc>TRUE</ntsc>
								</rate>
								<string>14;12;10;27</string>
								<frame>1532393</frame>
								<displayformat>DF</displayformat>
								<reel>
									<name></name>
								</reel>
							</timecode>
							<media>
								<audio>
									<samplecharacteristics>
										<depth>16</depth>
										<samplerate>48000</samplerate>
									</samplecharacteristics>
									<channelcount>2</channelcount>
								</audio>
							</media>
						</file>
						<sourcetrack>
							<mediatype>audio</mediatype>
							<trackindex>1</trackindex>
						</sourcetrack>
						<link>
							<linkclipref>clipitem-2473</linkclipref>
							<mediatype>audio</mediatype>
							<trackindex>17</trackindex>
							<clipindex>133</clipindex>
							<groupindex>1</groupindex>
						</link>
						<link>
							<linkclipref>clipitem-2643</linkclipref>
							<mediatype>audio</mediatype>
							<trackindex>18</trackindex>
							<clipindex>126</clipindex>
							<groupindex>1</groupindex>
						</link>
						<logginginfo>
							<description></description>
							<scene></scene>
							<shottake></shottake>
							<lognote></lognote>
						</logginginfo>
						<labels>
							<label2>Caribbean</label2>
						</labels>
					</clipitem>
					<clipitem id="clipitem-2474" premiereChannelType="stereo">
						<masterclipid>masterclip-110</masterclipid>
						<name>Kort, liten overbærende latter.wav</name>
						<enabled>TRUE</enabled>
						<duration>39</duration>
						<rate>
							<timebase>25</timebase>
							<ntsc>FALSE</ntsc>
						</rate>
						<start>28201</start>
						<end>28240</end>
						<in>0</in>
						<out>39</out>
						<pproTicksIn>0</pproTicksIn>
						<pproTicksOut>396264960000</pproTicksOut>
						<file id="file-106">
							<name>Kort, liten overbærende latter.wav</name>
							<pathurl>file://localhost/Volumes/Brakka/AdobeLager/QUIZ%20-%20brakka/RA%cc%8aSTOFF%20LYD/Publikumsreaksjoner/Fra%201980/Kort,%20liten%20overb%c3%a6rende%20latter.wav</pathurl>
							<rate>
								<timebase>30</timebase>
								<ntsc>TRUE</ntsc>
							</rate>
							<duration>47</duration>
							<timecode>
								<rate>
									<timebase>30</timebase>
									<ntsc>TRUE</ntsc>
								</rate>
								<string>12;53;45;01</string>
								<frame>1391359</frame>
								<displayformat>DF</displayformat>
								<reel>
									<name></name>
								</reel>
							</timecode>
							<media>
								<audio>
									<samplecharacteristics>
										<depth>16</depth>
										<samplerate>48000</samplerate>
									</samplecharacteristics>
									<channelcount>2</channelcount>
								</audio>
							</media>
						</file>
						<sourcetrack>
							<mediatype>audio</mediatype>
							<trackindex>1</trackindex>
						</sourcetrack>
						<link>
							<linkclipref>clipitem-2474</linkclipref>
							<mediatype>audio</mediatype>
							<trackindex>17</trackindex>
							<clipindex>134</clipindex>
							<groupindex>1</groupindex>
						</link>
						<link>
							<linkclipref>clipitem-2644</linkclipref>
							<mediatype>audio</mediatype>
							<trackindex>18</trackindex>
							<clipindex>127</clipindex>
							<groupindex>1</groupindex>
						</link>
						<logginginfo>
							<description></description>
							<scene></scene>
							<shottake></shottake>
							<lognote></lognote>
						</logginginfo>
						<labels>
							<label2>Caribbean</label2>
						</labels>
					</clipitem>
					<clipitem id="clipitem-2475" premiereChannelType="stereo">
						<masterclipid>masterclip-83</masterclipid>
						<name>Kort, meget behersket latter.wav</name>
						<enabled>TRUE</enabled>
						<duration>46</duration>
						<rate>
							<timebase>25</timebase>
							<ntsc>FALSE</ntsc>
						</rate>
						<start>28376</start>
						<end>28422</end>
						<in>0</in>
						<out>46</out>
						<pproTicksIn>0</pproTicksIn>
						<pproTicksOut>467389440000</pproTicksOut>
						<file id="file-79"/>
						<sourcetrack>
							<mediatype>audio</mediatype>
							<trackindex>1</trackindex>
						</sourcetrack>
						<link>
							<linkclipref>clipitem-2475</linkclipref>
							<mediatype>audio</mediatype>
							<trackindex>17</trackindex>
							<clipindex>135</clipindex>
							<groupindex>1</groupindex>
						</link>
						<link>
							<linkclipref>clipitem-2645</linkclipref>
							<mediatype>audio</mediatype>
							<trackindex>18</trackindex>
							<clipindex>128</clipindex>
							<groupindex>1</groupindex>
						</link>
						<logginginfo>
							<description></description>
							<scene></scene>
							<shottake></shottake>
							<lognote></lognote>
						</logginginfo>
						<labels>
							<label2>Caribbean</label2>
						</labels>
					</clipitem>
					<clipitem id="clipitem-2476" premiereChannelType="stereo">
						<masterclipid>masterclip-107</masterclipid>
						<name>Kort brå latter.wav</name>
						<enabled>TRUE</enabled>
						<duration>62</duration>
						<rate>
							<timebase>25</timebase>
							<ntsc>FALSE</ntsc>
						</rate>
						<start>28841</start>
						<end>28903</end>
						<in>0</in>
						<out>62</out>
						<pproTicksIn>0</pproTicksIn>
						<pproTicksOut>629959680000</pproTicksOut>
						<file id="file-103"/>
						<sourcetrack>
							<mediatype>audio</mediatype>
							<trackindex>1</trackindex>
						</sourcetrack>
						<link>
							<linkclipref>clipitem-2476</linkclipref>
							<mediatype>audio</mediatype>
							<trackindex>17</trackindex>
							<clipindex>136</clipindex>
							<groupindex>1</groupindex>
						</link>
						<link>
							<linkclipref>clipitem-2646</linkclipref>
							<mediatype>audio</mediatype>
							<trackindex>18</trackindex>
							<clipindex>129</clipindex>
							<groupindex>1</groupindex>
						</link>
						<logginginfo>
							<description></description>
							<scene></scene>
							<shottake></shottake>
							<lognote></lognote>
						</logginginfo>
						<labels>
							<label2>Caribbean</label2>
						</labels>
					</clipitem>
					<clipitem id="clipitem-2477" premiereChannelType="stereo">
						<masterclipid>masterclip-111</masterclipid>
						<name>Kort artig latterkule.wav</name>
						<enabled>TRUE</enabled>
						<duration>72</duration>
						<rate>
							<timebase>25</timebase>
							<ntsc>FALSE</ntsc>
						</rate>
						<start>28912</start>
						<end>28984</end>
						<in>0</in>
						<out>72</out>
						<pproTicksIn>0</pproTicksIn>
						<pproTicksOut>731566080000</pproTicksOut>
						<file id="file-107">
							<name>Kort artig latterkule.wav</name>
							<pathurl>file://localhost/Volumes/Brakka/AdobeLager/QUIZ%20-%20brakka/RA%cc%8aSTOFF%20LYD/Publikumsreaksjoner/Fra%201998/Kort%20artig%20latterkule.wav</pathurl>
							<rate>
								<timebase>30</timebase>
								<ntsc>TRUE</ntsc>
							</rate>
							<duration>86</duration>
							<timecode>
								<rate>
									<timebase>30</timebase>
									<ntsc>TRUE</ntsc>
								</rate>
								<string>14;03;56;06</string>
								<frame>1517568</frame>
								<displayformat>DF</displayformat>
								<reel>
									<name></name>
								</reel>
							</timecode>
							<media>
								<audio>
									<samplecharacteristics>
										<depth>16</depth>
										<samplerate>48000</samplerate>
									</samplecharacteristics>
									<channelcount>2</channelcount>
								</audio>
							</media>
						</file>
						<sourcetrack>
							<mediatype>audio</mediatype>
							<trackindex>1</trackindex>
						</sourcetrack>
						<link>
							<linkclipref>clipitem-2477</linkclipref>
							<mediatype>audio</mediatype>
							<trackindex>17</trackindex>
							<clipindex>137</clipindex>
							<groupindex>1</groupindex>
						</link>
						<link>
							<linkclipref>clipitem-2647</linkclipref>
							<mediatype>audio</mediatype>
							<trackindex>18</trackindex>
							<clipindex>130</clipindex>
							<groupindex>1</groupindex>
						</link>
						<logginginfo>
							<description></description>
							<scene></scene>
							<shottake></shottake>
							<lognote></lognote>
						</logginginfo>
						<labels>
							<label2>Caribbean</label2>
						</labels>
					</clipitem>
					<clipitem id="clipitem-2478" premiereChannelType="stereo">
						<masterclipid>masterclip-112</masterclipid>
						<name>Latter uryddig med litt applaus 9sek.wav</name>
						<enabled>TRUE</enabled>
						<duration>234</duration>
						<rate>
							<timebase>25</timebase>
							<ntsc>FALSE</ntsc>
						</rate>
						<start>29209</start>
						<end>29443</end>
						<in>0</in>
						<out>234</out>
						<pproTicksIn>0</pproTicksIn>
						<pproTicksOut>2377589760000</pproTicksOut>
						<file id="file-108">
							<name>Latter uryddig med litt applaus 9sek.wav</name>
							<pathurl>file://localhost/Volumes/Brakka/AdobeLager/QUIZ%20-%20brakka/RA%cc%8aSTOFF%20LYD/Publikumsreaksjoner/Fra%201986/Latter%20uryddig%20med%20litt%20applaus%209sek.wav</pathurl>
							<rate>
								<timebase>30</timebase>
								<ntsc>TRUE</ntsc>
							</rate>
							<duration>280</duration>
							<timecode>
								<rate>
									<timebase>30</timebase>
									<ntsc>TRUE</ntsc>
								</rate>
								<string>14;06;17;05</string>
								<frame>1521791</frame>
								<displayformat>DF</displayformat>
								<reel>
									<name></name>
								</reel>
							</timecode>
							<media>
								<audio>
									<samplecharacteristics>
										<depth>16</depth>
										<samplerate>48000</samplerate>
									</samplecharacteristics>
									<channelcount>2</channelcount>
								</audio>
							</media>
						</file>
						<sourcetrack>
							<mediatype>audio</mediatype>
							<trackindex>1</trackindex>
						</sourcetrack>
							<filter>
								<effect>
									<name>Audio Levels</name>
									<effectid>audiolevels</effectid>
									<effectcategory>audiolevels</effectcategory>
									<effecttype>audiolevels</effecttype>
									<mediatype>audio</mediatype>
									<parameter authoringApp="PremierePro">
										<parameterid>level</parameterid>
										<name>Level</name>
										<valuemin>0</valuemin>
										<valuemax>3.98109</valuemax>
										<value>1.08438</value>
									</parameter>
								</effect>
							</filter>
						<link>
							<linkclipref>clipitem-2478</linkclipref>
							<mediatype>audio</mediatype>
							<trackindex>17</trackindex>
							<clipindex>138</clipindex>
							<groupindex>1</groupindex>
						</link>
						<link>
							<linkclipref>clipitem-2648</linkclipref>
							<mediatype>audio</mediatype>
							<trackindex>18</trackindex>
							<clipindex>131</clipindex>
							<groupindex>1</groupindex>
						</link>
						<logginginfo>
							<description></description>
							<scene></scene>
							<shottake></shottake>
							<lognote></lognote>
						</logginginfo>
						<labels>
							<label2>Caribbean</label2>
						</labels>
					</clipitem>
					<clipitem id="clipitem-2479" premiereChannelType="stereo">
						<masterclipid>masterclip-113</masterclipid>
						<name>Latter kort liten brå.wav</name>
						<enabled>TRUE</enabled>
						<duration>55</duration>
						<rate>
							<timebase>25</timebase>
							<ntsc>FALSE</ntsc>
						</rate>
						<start>29551</start>
						<end>29601</end>
						<in>0</in>
						<out>50</out>
						<pproTicksIn>0</pproTicksIn>
						<pproTicksOut>508032000000</pproTicksOut>
						<file id="file-109">
							<name>Latter kort liten brå.wav</name>
							<pathurl>file://localhost/Volumes/Brakka/AdobeLager/QUIZ%20-%20brakka/RA%cc%8aSTOFF%20LYD/Publikumsreaksjoner/Fra%201990/Latter%20kort%20liten%20bra%cc%8a.wav</pathurl>
							<rate>
								<timebase>30</timebase>
								<ntsc>TRUE</ntsc>
							</rate>
							<duration>66</duration>
							<timecode>
								<rate>
									<timebase>30</timebase>
									<ntsc>TRUE</ntsc>
								</rate>
								<string>14;22;30;16</string>
								<frame>1550964</frame>
								<displayformat>DF</displayformat>
								<reel>
									<name></name>
								</reel>
							</timecode>
							<media>
								<audio>
									<samplecharacteristics>
										<depth>16</depth>
										<samplerate>48000</samplerate>
									</samplecharacteristics>
									<channelcount>2</channelcount>
								</audio>
							</media>
						</file>
						<sourcetrack>
							<mediatype>audio</mediatype>
							<trackindex>1</trackindex>
						</sourcetrack>
						<link>
							<linkclipref>clipitem-2479</linkclipref>
							<mediatype>audio</mediatype>
							<trackindex>17</trackindex>
							<clipindex>139</clipindex>
							<groupindex>1</groupindex>
						</link>
						<link>
							<linkclipref>clipitem-2649</linkclipref>
							<mediatype>audio</mediatype>
							<trackindex>18</trackindex>
							<clipindex>132</clipindex>
							<groupindex>1</groupindex>
						</link>
						<logginginfo>
							<description></description>
							<scene></scene>
							<shottake></shottake>
							<lognote></lognote>
						</logginginfo>
						<labels>
							<label2>Caribbean</label2>
						</labels>
					</clipitem>
					<clipitem id="clipitem-2480" premiereChannelType="stereo">
						<masterclipid>masterclip-114</masterclipid>
						<name>Latterkule bitteliten.wav</name>
						<enabled>TRUE</enabled>
						<duration>74</duration>
						<rate>
							<timebase>25</timebase>
							<ntsc>FALSE</ntsc>
						</rate>
						<start>29619</start>
						<end>29693</end>
						<in>0</in>
						<out>74</out>
						<pproTicksIn>0</pproTicksIn>
						<pproTicksOut>751887360000</pproTicksOut>
						<file id="file-110">
							<name>Latterkule bitteliten.wav</name>
							<pathurl>file://localhost/Volumes/Brakka/AdobeLager/QUIZ%20-%20brakka/RA%cc%8aSTOFF%20LYD/Publikumsreaksjoner/Fra%201996/Latterkule%20bitteliten.wav</pathurl>
							<rate>
								<timebase>30</timebase>
								<ntsc>TRUE</ntsc>
							</rate>
							<duration>88</duration>
							<timecode>
								<rate>
									<timebase>30</timebase>
									<ntsc>TRUE</ntsc>
								</rate>
								<string>13;13;32;02</string>
								<frame>1426934</frame>
								<displayformat>DF</displayformat>
								<reel>
									<name></name>
								</reel>
							</timecode>
							<media>
								<audio>
									<samplecharacteristics>
										<depth>16</depth>
										<samplerate>48000</samplerate>
									</samplecharacteristics>
									<channelcount>2</channelcount>
								</audio>
							</media>
						</file>
						<sourcetrack>
							<mediatype>audio</mediatype>
							<trackindex>1</trackindex>
						</sourcetrack>
						<link>
							<linkclipref>clipitem-2480</linkclipref>
							<mediatype>audio</mediatype>
							<trackindex>17</trackindex>
							<clipindex>140</clipindex>
							<groupindex>1</groupindex>
						</link>
						<link>
							<linkclipref>clipitem-2650</linkclipref>
							<mediatype>audio</mediatype>
							<trackindex>18</trackindex>
							<clipindex>133</clipindex>
							<groupindex>1</groupindex>
						</link>
						<logginginfo>
							<description></description>
							<scene></scene>
							<shottake></shottake>
							<lognote></lognote>
						</logginginfo>
						<labels>
							<label2>Caribbean</label2>
						</labels>
					</clipitem>
					<clipitem id="clipitem-2481" premiereChannelType="stereo">
						<masterclipid>masterclip-115</masterclipid>
						<name>HOTorNOT?KJENDISTOPPEN1-Apollo_SMX_143_61__Bumper_Fun_Hits__Jeremy_A._Sweet.mp3</name>
						<enabled>TRUE</enabled>
						<duration>181</duration>
						<rate>
							<timebase>25</timebase>
							<ntsc>FALSE</ntsc>
						</rate>
						<start>29768</start>
						<end>29949</end>
						<in>0</in>
						<out>181</out>
						<pproTicksIn>0</pproTicksIn>
						<pproTicksOut>1839075840000</pproTicksOut>
						<file id="file-111">
							<name>HOTorNOT-Apollo_SMX_143_61__Bumper_Fun_Hits__Jeremy_A._Sweet.mp3</name>
							<pathurl>file://localhost/Volumes/Brakka/AdobeLager/QUIZ%20-%20brakka/Musikk/BREAKS/HOTorNOT-Apollo_SMX_143_61__Bumper_Fun_Hits__Jeremy_A._Sweet.mp3</pathurl>
							<rate>
								<timebase>30</timebase>
								<ntsc>TRUE</ntsc>
							</rate>
							<duration>217</duration>
							<timecode>
								<rate>
									<timebase>30</timebase>
									<ntsc>TRUE</ntsc>
								</rate>
								<string>00;00;00;00</string>
								<frame>0</frame>
								<displayformat>DF</displayformat>
								<reel>
									<name></name>
								</reel>
							</timecode>
							<media>
								<audio>
									<samplecharacteristics>
										<depth>16</depth>
										<samplerate>44100</samplerate>
									</samplecharacteristics>
									<channelcount>2</channelcount>
								</audio>
							</media>
						</file>
						<sourcetrack>
							<mediatype>audio</mediatype>
							<trackindex>1</trackindex>
						</sourcetrack>
							<filter>
								<effect>
									<name>Audio Levels</name>
									<effectid>audiolevels</effectid>
									<effectcategory>audiolevels</effectcategory>
									<effecttype>audiolevels</effecttype>
									<mediatype>audio</mediatype>
									<parameter authoringApp="PremierePro">
										<parameterid>level</parameterid>
										<name>Level</name>
										<valuemin>0</valuemin>
										<valuemax>3.98109</valuemax>
										<value>0.250593</value>
									</parameter>
								</effect>
							</filter>
						<link>
							<linkclipref>clipitem-2481</linkclipref>
							<mediatype>audio</mediatype>
							<trackindex>17</trackindex>
							<clipindex>141</clipindex>
							<groupindex>1</groupindex>
						</link>
						<link>
							<linkclipref>clipitem-2651</linkclipref>
							<mediatype>audio</mediatype>
							<trackindex>18</trackindex>
							<clipindex>134</clipindex>
							<groupindex>1</groupindex>
						</link>
						<logginginfo>
							<description></description>
							<scene></scene>
							<shottake></shottake>
							<lognote></lognote>
						</logginginfo>
						<labels>
							<label2>Caribbean</label2>
						</labels>
					</clipitem>
					<clipitem id="clipitem-2482" premiereChannelType="stereo">
						<masterclipid>masterclip-107</masterclipid>
						<name>Kort brå latter.wav</name>
						<enabled>TRUE</enabled>
						<duration>62</duration>
						<rate>
							<timebase>25</timebase>
							<ntsc>FALSE</ntsc>
						</rate>
						<start>32923</start>
						<end>32985</end>
						<in>0</in>
						<out>62</out>
						<pproTicksIn>0</pproTicksIn>
						<pproTicksOut>629959680000</pproTicksOut>
						<file id="file-103"/>
						<sourcetrack>
							<mediatype>audio</mediatype>
							<trackindex>1</trackindex>
						</sourcetrack>
						<link>
							<linkclipref>clipitem-2482</linkclipref>
							<mediatype>audio</mediatype>
							<trackindex>17</trackindex>
							<clipindex>142</clipindex>
							<groupindex>1</groupindex>
						</link>
						<link>
							<linkclipref>clipitem-2652</linkclipref>
							<mediatype>audio</mediatype>
							<trackindex>18</trackindex>
							<clipindex>135</clipindex>
							<groupindex>1</groupindex>
						</link>
						<logginginfo>
							<description></description>
							<scene></scene>
							<shottake></shottake>
							<lognote></lognote>
						</logginginfo>
						<labels>
							<label2>Caribbean</label2>
						</labels>
					</clipitem>
					<clipitem id="clipitem-2483" premiereChannelType="stereo">
						<masterclipid>masterclip-42</masterclipid>
						<name>Mira Craig Stage Dive.mp4</name>
						<enabled>TRUE</enabled>
						<duration>965</duration>
						<rate>
							<timebase>25</timebase>
							<ntsc>FALSE</ntsc>
						</rate>
						<start>33363</start>
						<end>33489</end>
						<in>446</in>
						<out>572</out>
						<pproTicksIn>4531645440000</pproTicksIn>
						<pproTicksOut>5811886080000</pproTicksOut>
						<file id="file-38"/>
						<sourcetrack>
							<mediatype>audio</mediatype>
							<trackindex>1</trackindex>
						</sourcetrack>
						<link>
							<linkclipref>clipitem-2483</linkclipref>
							<mediatype>audio</mediatype>
							<trackindex>17</trackindex>
							<clipindex>143</clipindex>
							<groupindex>1</groupindex>
						</link>
						<link>
							<linkclipref>clipitem-2653</linkclipref>
							<mediatype>audio</mediatype>
							<trackindex>18</trackindex>
							<clipindex>136</clipindex>
							<groupindex>1</groupindex>
						</link>
						<logginginfo>
							<description></description>
							<scene></scene>
							<shottake></shottake>
							<lognote></lognote>
						</logginginfo>
						<labels>
							<label2>Iris</label2>
						</labels>
					</clipitem>
					<transitionitem>
						<start>37083</start>
						<end>37096</end>
						<alignment>start-black</alignment>
						<cutPointTicks>0</cutPointTicks>
						<rate>
							<timebase>25</timebase>
							<ntsc>FALSE</ntsc>
						</rate>
						<effect>
							<name>Cross Fade (+3dB)</name>
							<effectid>KGAudioTransCrossFade3dB</effectid>
							<effecttype>transition</effecttype>
							<mediatype>audio</mediatype>
							<wipecode>0</wipecode>
							<wipeaccuracy>100</wipeaccuracy>
							<startratio>0</startratio>
							<endratio>1</endratio>
							<reverse>FALSE</reverse>
						</effect>
					</transitionitem>
					<clipitem id="clipitem-2484" premiereChannelType="stereo">
						<masterclipid>masterclip-6</masterclipid>
						<name>NSPO30604105AA.mxf</name>
						<enabled>TRUE</enabled>
						<duration>89255</duration>
						<rate>
							<timebase>25</timebase>
							<ntsc>FALSE</ntsc>
						</rate>
						<start>-1</start>
						<end>37140</end>
						<in>61001</in>
						<out>61058</out>
						<pproTicksIn>619809200640000</pproTicksIn>
						<pproTicksOut>620388357120000</pproTicksOut>
						<file id="file-5"/>
						<sourcetrack>
							<mediatype>audio</mediatype>
							<trackindex>1</trackindex>
						</sourcetrack>
						<link>
							<linkclipref>clipitem-2484</linkclipref>
							<mediatype>audio</mediatype>
							<trackindex>17</trackindex>
							<clipindex>145</clipindex>
							<groupindex>1</groupindex>
						</link>
						<link>
							<linkclipref>clipitem-2654</linkclipref>
							<mediatype>audio</mediatype>
							<trackindex>18</trackindex>
							<clipindex>138</clipindex>
							<groupindex>1</groupindex>
						</link>
						<logginginfo>
							<description></description>
							<scene></scene>
							<shottake></shottake>
							<lognote></lognote>
						</logginginfo>
						<labels>
							<label2>Iris</label2>
						</labels>
					</clipitem>
					<clipitem id="clipitem-2485" premiereChannelType="stereo">
						<masterclipid>masterclip-6</masterclipid>
						<name>NSPO30604105AA.mxf</name>
						<enabled>TRUE</enabled>
						<duration>89255</duration>
						<rate>
							<timebase>25</timebase>
							<ntsc>FALSE</ntsc>
						</rate>
						<start>37140</start>
						<end>37155</end>
						<in>61058</in>
						<out>61073</out>
						<pproTicksIn>620388357120000</pproTicksIn>
						<pproTicksOut>620540766720000</pproTicksOut>
						<file id="file-5"/>
						<sourcetrack>
							<mediatype>audio</mediatype>
							<trackindex>1</trackindex>
						</sourcetrack>
						<link>
							<linkclipref>clipitem-2485</linkclipref>
							<mediatype>audio</mediatype>
							<trackindex>17</trackindex>
							<clipindex>146</clipindex>
							<groupindex>1</groupindex>
						</link>
						<link>
							<linkclipref>clipitem-2655</linkclipref>
							<mediatype>audio</mediatype>
							<trackindex>18</trackindex>
							<clipindex>139</clipindex>
							<groupindex>1</groupindex>
						</link>
						<logginginfo>
							<description></description>
							<scene></scene>
							<shottake></shottake>
							<lognote></lognote>
						</logginginfo>
						<labels>
							<label2>Iris</label2>
						</labels>
					</clipitem>
					<clipitem id="clipitem-2486" premiereChannelType="stereo">
						<masterclipid>masterclip-6</masterclipid>
						<name>NSPO30604105AA.mxf</name>
						<enabled>TRUE</enabled>
						<duration>89255</duration>
						<rate>
							<timebase>25</timebase>
							<ntsc>FALSE</ntsc>
						</rate>
						<start>37732</start>
						<end>-1</end>
						<in>52874</in>
						<out>52900</out>
						<pproTicksIn>537233679360000</pproTicksIn>
						<pproTicksOut>537497856000000</pproTicksOut>
						<file id="file-5"/>
						<sourcetrack>
							<mediatype>audio</mediatype>
							<trackindex>1</trackindex>
						</sourcetrack>
							<filter>
								<effect>
									<name>Audio Levels</name>
									<effectid>audiolevels</effectid>
									<effectcategory>audiolevels</effectcategory>
									<effecttype>audiolevels</effecttype>
									<mediatype>audio</mediatype>
									<parameter authoringApp="PremierePro">
										<parameterid>level</parameterid>
										<name>Level</name>
										<valuemin>0</valuemin>
										<valuemax>3.98109</valuemax>
										<value>0.28117</value>
										<keyframe>
											<when>52822</when>
											<value>1.92246</value>
										</keyframe>
										<keyframe>
											<when>52828</when>
											<value>0.28117</value>
										</keyframe>
									</parameter>
								</effect>
							</filter>
						<link>
							<linkclipref>clipitem-2486</linkclipref>
							<mediatype>audio</mediatype>
							<trackindex>17</trackindex>
							<clipindex>147</clipindex>
							<groupindex>1</groupindex>
						</link>
						<link>
							<linkclipref>clipitem-2656</linkclipref>
							<mediatype>audio</mediatype>
							<trackindex>18</trackindex>
							<clipindex>140</clipindex>
							<groupindex>1</groupindex>
						</link>
						<logginginfo>
							<description></description>
							<scene></scene>
							<shottake></shottake>
							<lognote></lognote>
						</logginginfo>
						<labels>
							<label2>Iris</label2>
						</labels>
					</clipitem>
					<transitionitem>
						<start>37745</start>
						<end>37758</end>
						<alignment>center</alignment>
						<cutPointTicks>60963840000</cutPointTicks>
						<rate>
							<timebase>25</timebase>
							<ntsc>FALSE</ntsc>
						</rate>
						<effect>
							<name>Cross Fade (+3dB)</name>
							<effectid>KGAudioTransCrossFade3dB</effectid>
							<effecttype>transition</effecttype>
							<mediatype>audio</mediatype>
							<wipecode>0</wipecode>
							<wipeaccuracy>100</wipeaccuracy>
							<startratio>0</startratio>
							<endratio>1</endratio>
							<reverse>FALSE</reverse>
						</effect>
					</transitionitem>
					<clipitem id="clipitem-2487" premiereChannelType="stereo">
						<masterclipid>masterclip-6</masterclipid>
						<name>NSPO30604105AA.mxf</name>
						<enabled>TRUE</enabled>
						<duration>89255</duration>
						<rate>
							<timebase>25</timebase>
							<ntsc>FALSE</ntsc>
						</rate>
						<start>-1</start>
						<end>-1</end>
						<in>52927</in>
						<out>53019</out>
						<pproTicksIn>537772193280000</pproTicksIn>
						<pproTicksOut>538706972160000</pproTicksOut>
						<file id="file-5"/>
						<sourcetrack>
							<mediatype>audio</mediatype>
							<trackindex>1</trackindex>
						</sourcetrack>
							<filter>
								<effect>
									<name>Audio Levels</name>
									<effectid>audiolevels</effectid>
									<effectcategory>audiolevels</effectcategory>
									<effecttype>audiolevels</effecttype>
									<mediatype>audio</mediatype>
									<parameter authoringApp="PremierePro">
										<parameterid>level</parameterid>
										<name>Level</name>
										<valuemin>0</valuemin>
										<valuemax>3.98109</valuemax>
										<value>0.28117</value>
									</parameter>
								</effect>
							</filter>
						<link>
							<linkclipref>clipitem-2487</linkclipref>
							<mediatype>audio</mediatype>
							<trackindex>17</trackindex>
							<clipindex>149</clipindex>
							<groupindex>1</groupindex>
						</link>
						<link>
							<linkclipref>clipitem-2657</linkclipref>
							<mediatype>audio</mediatype>
							<trackindex>18</trackindex>
							<clipindex>142</clipindex>
							<groupindex>1</groupindex>
						</link>
						<logginginfo>
							<description></description>
							<scene></scene>
							<shottake></shottake>
							<lognote></lognote>
						</logginginfo>
						<labels>
							<label2>Iris</label2>
						</labels>
					</clipitem>
					<transitionitem>
						<start>37824</start>
						<end>37837</end>
						<alignment>center</alignment>
						<cutPointTicks>60963840000</cutPointTicks>
						<rate>
							<timebase>25</timebase>
							<ntsc>FALSE</ntsc>
						</rate>
						<effect>
							<name>Cross Fade (+3dB)</name>
							<effectid>KGAudioTransCrossFade3dB</effectid>
							<effecttype>transition</effecttype>
							<mediatype>audio</mediatype>
							<wipecode>0</wipecode>
							<wipeaccuracy>100</wipeaccuracy>
							<startratio>0</startratio>
							<endratio>1</endratio>
							<reverse>FALSE</reverse>
						</effect>
					</transitionitem>
					<clipitem id="clipitem-2488" premiereChannelType="stereo">
						<masterclipid>masterclip-6</masterclipid>
						<name>NSPO30604105AA.mxf</name>
						<enabled>TRUE</enabled>
						<duration>89255</duration>
						<rate>
							<timebase>25</timebase>
							<ntsc>FALSE</ntsc>
						</rate>
						<start>-1</start>
						<end>-1</end>
						<in>53154</in>
						<out>53271</out>
						<pproTicksIn>540078658560000</pproTicksIn>
						<pproTicksOut>541267453440000</pproTicksOut>
						<file id="file-5"/>
						<sourcetrack>
							<mediatype>audio</mediatype>
							<trackindex>1</trackindex>
						</sourcetrack>
							<filter>
								<effect>
									<name>Audio Levels</name>
									<effectid>audiolevels</effectid>
									<effectcategory>audiolevels</effectcategory>
									<effecttype>audiolevels</effecttype>
									<mediatype>audio</mediatype>
									<parameter authoringApp="PremierePro">
										<parameterid>level</parameterid>
										<name>Level</name>
										<valuemin>0</valuemin>
										<valuemax>3.98109</valuemax>
										<value>0.792446</value>
									</parameter>
								</effect>
							</filter>
						<link>
							<linkclipref>clipitem-2488</linkclipref>
							<mediatype>audio</mediatype>
							<trackindex>17</trackindex>
							<clipindex>151</clipindex>
							<groupindex>1</groupindex>
						</link>
						<link>
							<linkclipref>clipitem-2658</linkclipref>
							<mediatype>audio</mediatype>
							<trackindex>18</trackindex>
							<clipindex>144</clipindex>
							<groupindex>1</groupindex>
						</link>
						<logginginfo>
							<description></description>
							<scene></scene>
							<shottake></shottake>
							<lognote></lognote>
						</logginginfo>
						<labels>
							<label2>Iris</label2>
						</labels>
					</clipitem>
					<transitionitem>
						<start>37928</start>
						<end>37941</end>
						<alignment>center</alignment>
						<cutPointTicks>60963840000</cutPointTicks>
						<rate>
							<timebase>25</timebase>
							<ntsc>FALSE</ntsc>
						</rate>
						<effect>
							<name>Cross Fade (+3dB)</name>
							<effectid>KGAudioTransCrossFade3dB</effectid>
							<effecttype>transition</effecttype>
							<mediatype>audio</mediatype>
							<wipecode>0</wipecode>
							<wipeaccuracy>100</wipeaccuracy>
							<startratio>0</startratio>
							<endratio>1</endratio>
							<reverse>FALSE</reverse>
						</effect>
					</transitionitem>
					<clipitem id="clipitem-2489" premiereChannelType="stereo">
						<masterclipid>masterclip-6</masterclipid>
						<name>NSPO30604105AA.mxf</name>
						<enabled>TRUE</enabled>
						<duration>89255</duration>
						<rate>
							<timebase>25</timebase>
							<ntsc>FALSE</ntsc>
						</rate>
						<start>-1</start>
						<end>-1</end>
						<in>72501</in>
						<out>72604</out>
						<pproTicksIn>736656560640000</pproTicksIn>
						<pproTicksOut>737703106560000</pproTicksOut>
						<file id="file-5"/>
						<sourcetrack>
							<mediatype>audio</mediatype>
							<trackindex>1</trackindex>
						</sourcetrack>
							<filter>
								<effect>
									<name>Audio Levels</name>
									<effectid>audiolevels</effectid>
									<effectcategory>audiolevels</effectcategory>
									<effecttype>audiolevels</effecttype>
									<mediatype>audio</mediatype>
									<parameter authoringApp="PremierePro">
										<parameterid>level</parameterid>
										<name>Level</name>
										<valuemin>0</valuemin>
										<valuemax>3.98109</valuemax>
										<value>1.58114</value>
									</parameter>
								</effect>
							</filter>
						<link>
							<linkclipref>clipitem-2489</linkclipref>
							<mediatype>audio</mediatype>
							<trackindex>17</trackindex>
							<clipindex>153</clipindex>
							<groupindex>1</groupindex>
						</link>
						<link>
							<linkclipref>clipitem-2659</linkclipref>
							<mediatype>audio</mediatype>
							<trackindex>18</trackindex>
							<clipindex>146</clipindex>
							<groupindex>1</groupindex>
						</link>
						<logginginfo>
							<description></description>
							<scene></scene>
							<shottake></shottake>
							<lognote></lognote>
						</logginginfo>
						<labels>
							<label2>Iris</label2>
						</labels>
					</clipitem>
					<transitionitem>
						<start>38018</start>
						<end>38031</end>
						<alignment>center</alignment>
						<cutPointTicks>60963840000</cutPointTicks>
						<rate>
							<timebase>25</timebase>
							<ntsc>FALSE</ntsc>
						</rate>
						<effect>
							<name>Cross Fade (+3dB)</name>
							<effectid>KGAudioTransCrossFade3dB</effectid>
							<effecttype>transition</effecttype>
							<mediatype>audio</mediatype>
							<wipecode>0</wipecode>
							<wipeaccuracy>100</wipeaccuracy>
							<startratio>0</startratio>
							<endratio>1</endratio>
							<reverse>FALSE</reverse>
						</effect>
					</transitionitem>
					<clipitem id="clipitem-2490" premiereChannelType="stereo">
						<masterclipid>masterclip-6</masterclipid>
						<name>NSPO30604105AA.mxf</name>
						<enabled>TRUE</enabled>
						<duration>89255</duration>
						<rate>
							<timebase>25</timebase>
							<ntsc>FALSE</ntsc>
						</rate>
						<start>-1</start>
						<end>-1</end>
						<in>72766</in>
						<out>72849</out>
						<pproTicksIn>739349130240000</pproTicksIn>
						<pproTicksOut>740192463360000</pproTicksOut>
						<file id="file-5"/>
						<sourcetrack>
							<mediatype>audio</mediatype>
							<trackindex>1</trackindex>
						</sourcetrack>
							<filter>
								<effect>
									<name>Audio Levels</name>
									<effectid>audiolevels</effectid>
									<effectcategory>audiolevels</effectcategory>
									<effecttype>audiolevels</effecttype>
									<mediatype>audio</mediatype>
									<parameter authoringApp="PremierePro">
										<parameterid>level</parameterid>
										<name>Level</name>
										<valuemin>0</valuemin>
										<valuemax>3.98109</valuemax>
										<value>0.499999</value>
									</parameter>
								</effect>
							</filter>
						<link>
							<linkclipref>clipitem-2490</linkclipref>
							<mediatype>audio</mediatype>
							<trackindex>17</trackindex>
							<clipindex>155</clipindex>
							<groupindex>1</groupindex>
						</link>
						<link>
							<linkclipref>clipitem-2660</linkclipref>
							<mediatype>audio</mediatype>
							<trackindex>18</trackindex>
							<clipindex>148</clipindex>
							<groupindex>1</groupindex>
						</link>
						<logginginfo>
							<description></description>
							<scene></scene>
							<shottake></shottake>
							<lognote></lognote>
						</logginginfo>
						<labels>
							<label2>Iris</label2>
						</labels>
					</clipitem>
					<transitionitem>
						<start>38088</start>
						<end>38101</end>
						<alignment>center</alignment>
						<cutPointTicks>60963840000</cutPointTicks>
						<rate>
							<timebase>25</timebase>
							<ntsc>FALSE</ntsc>
						</rate>
						<effect>
							<name>Cross Fade (+3dB)</name>
							<effectid>KGAudioTransCrossFade3dB</effectid>
							<effecttype>transition</effecttype>
							<mediatype>audio</mediatype>
							<wipecode>0</wipecode>
							<wipeaccuracy>100</wipeaccuracy>
							<startratio>0</startratio>
							<endratio>1</endratio>
							<reverse>FALSE</reverse>
						</effect>
					</transitionitem>
					<clipitem id="clipitem-2491" premiereChannelType="stereo">
						<masterclipid>masterclip-6</masterclipid>
						<name>NSPO30604105AA.mxf</name>
						<enabled>TRUE</enabled>
						<duration>89255</duration>
						<rate>
							<timebase>25</timebase>
							<ntsc>FALSE</ntsc>
						</rate>
						<start>-1</start>
						<end>38149</end>
						<in>73721</in>
						<out>73782</out>
						<pproTicksIn>749052541440000</pproTicksIn>
						<pproTicksOut>749672340480000</pproTicksOut>
						<file id="file-5"/>
						<sourcetrack>
							<mediatype>audio</mediatype>
							<trackindex>1</trackindex>
						</sourcetrack>
							<filter>
								<effect>
									<name>Audio Levels</name>
									<effectid>audiolevels</effectid>
									<effectcategory>audiolevels</effectcategory>
									<effecttype>audiolevels</effecttype>
									<mediatype>audio</mediatype>
									<parameter authoringApp="PremierePro">
										<parameterid>level</parameterid>
										<name>Level</name>
										<valuemin>0</valuemin>
										<valuemax>3.98109</valuemax>
										<value>0.499999</value>
									</parameter>
								</effect>
							</filter>
						<link>
							<linkclipref>clipitem-2491</linkclipref>
							<mediatype>audio</mediatype>
							<trackindex>17</trackindex>
							<clipindex>157</clipindex>
							<groupindex>1</groupindex>
						</link>
						<link>
							<linkclipref>clipitem-2661</linkclipref>
							<mediatype>audio</mediatype>
							<trackindex>18</trackindex>
							<clipindex>150</clipindex>
							<groupindex>1</groupindex>
						</link>
						<logginginfo>
							<description></description>
							<scene></scene>
							<shottake></shottake>
							<lognote></lognote>
						</logginginfo>
						<labels>
							<label2>Iris</label2>
						</labels>
					</clipitem>
					<clipitem id="clipitem-2492" premiereChannelType="stereo">
						<masterclipid>masterclip-6</masterclipid>
						<name>NSPO30604105AA.mxf</name>
						<enabled>TRUE</enabled>
						<duration>89255</duration>
						<rate>
							<timebase>25</timebase>
							<ntsc>FALSE</ntsc>
						</rate>
						<start>38149</start>
						<end>38160</end>
						<in>75009</in>
						<out>75020</out>
						<pproTicksIn>762139445760000</pproTicksIn>
						<pproTicksOut>762251212800000</pproTicksOut>
						<file id="file-5"/>
						<sourcetrack>
							<mediatype>audio</mediatype>
							<trackindex>1</trackindex>
						</sourcetrack>
						<link>
							<linkclipref>clipitem-2492</linkclipref>
							<mediatype>audio</mediatype>
							<trackindex>17</trackindex>
							<clipindex>158</clipindex>
							<groupindex>1</groupindex>
						</link>
						<link>
							<linkclipref>clipitem-2662</linkclipref>
							<mediatype>audio</mediatype>
							<trackindex>18</trackindex>
							<clipindex>151</clipindex>
							<groupindex>1</groupindex>
						</link>
						<logginginfo>
							<description></description>
							<scene></scene>
							<shottake></shottake>
							<lognote></lognote>
						</logginginfo>
						<labels>
							<label2>Iris</label2>
						</labels>
					</clipitem>
					<clipitem id="clipitem-2493" premiereChannelType="stereo">
						<masterclipid>masterclip-6</masterclipid>
						<name>NSPO30604105AA.mxf</name>
						<enabled>FALSE</enabled>
						<duration>89255</duration>
						<rate>
							<timebase>25</timebase>
							<ntsc>FALSE</ntsc>
						</rate>
						<start>38160</start>
						<end>38260</end>
						<in>75029</in>
						<out>75129</out>
						<pproTicksIn>762342658560000</pproTicksIn>
						<pproTicksOut>763358722560000</pproTicksOut>
						<file id="file-5"/>
						<sourcetrack>
							<mediatype>audio</mediatype>
							<trackindex>1</trackindex>
						</sourcetrack>
						<link>
							<linkclipref>clipitem-2493</linkclipref>
							<mediatype>audio</mediatype>
							<trackindex>17</trackindex>
							<clipindex>159</clipindex>
							<groupindex>1</groupindex>
						</link>
						<link>
							<linkclipref>clipitem-2663</linkclipref>
							<mediatype>audio</mediatype>
							<trackindex>18</trackindex>
							<clipindex>152</clipindex>
							<groupindex>1</groupindex>
						</link>
						<logginginfo>
							<description></description>
							<scene></scene>
							<shottake></shottake>
							<lognote></lognote>
						</logginginfo>
						<labels>
							<label2>Iris</label2>
						</labels>
					</clipitem>
					<clipitem id="clipitem-2494" premiereChannelType="stereo">
						<masterclipid>masterclip-6</masterclipid>
						<name>NSPO30604105AA.mxf</name>
						<enabled>FALSE</enabled>
						<duration>89255</duration>
						<rate>
							<timebase>25</timebase>
							<ntsc>FALSE</ntsc>
						</rate>
						<start>38260</start>
						<end>38397</end>
						<in>75148</in>
						<out>75285</out>
						<pproTicksIn>763551774720000</pproTicksIn>
						<pproTicksOut>764943782400000</pproTicksOut>
						<file id="file-5"/>
						<sourcetrack>
							<mediatype>audio</mediatype>
							<trackindex>1</trackindex>
						</sourcetrack>
						<link>
							<linkclipref>clipitem-2494</linkclipref>
							<mediatype>audio</mediatype>
							<trackindex>17</trackindex>
							<clipindex>160</clipindex>
							<groupindex>1</groupindex>
						</link>
						<link>
							<linkclipref>clipitem-2664</linkclipref>
							<mediatype>audio</mediatype>
							<trackindex>18</trackindex>
							<clipindex>153</clipindex>
							<groupindex>1</groupindex>
						</link>
						<logginginfo>
							<description></description>
							<scene></scene>
							<shottake></shottake>
							<lognote></lognote>
						</logginginfo>
						<labels>
							<label2>Iris</label2>
						</labels>
					</clipitem>
					<clipitem id="clipitem-2495" premiereChannelType="stereo">
						<masterclipid>masterclip-6</masterclipid>
						<name>NSPO30604105AA.mxf</name>
						<enabled>TRUE</enabled>
						<duration>89255</duration>
						<rate>
							<timebase>25</timebase>
							<ntsc>FALSE</ntsc>
						</rate>
						<start>38480</start>
						<end>-1</end>
						<in>68492</in>
						<out>68677</out>
						<pproTicksIn>695922554880000</pproTicksIn>
						<pproTicksOut>697802273280000</pproTicksOut>
						<file id="file-5"/>
						<sourcetrack>
							<mediatype>audio</mediatype>
							<trackindex>1</trackindex>
						</sourcetrack>
							<filter>
								<effect>
									<name>Audio Levels</name>
									<effectid>audiolevels</effectid>
									<effectcategory>audiolevels</effectcategory>
									<effecttype>audiolevels</effecttype>
									<mediatype>audio</mediatype>
									<parameter authoringApp="PremierePro">
										<parameterid>level</parameterid>
										<name>Level</name>
										<valuemin>0</valuemin>
										<valuemax>3.98109</valuemax>
										<value>1.41254</value>
									</parameter>
								</effect>
							</filter>
						<link>
							<linkclipref>clipitem-2495</linkclipref>
							<mediatype>audio</mediatype>
							<trackindex>17</trackindex>
							<clipindex>161</clipindex>
							<groupindex>1</groupindex>
						</link>
						<link>
							<linkclipref>clipitem-2665</linkclipref>
							<mediatype>audio</mediatype>
							<trackindex>18</trackindex>
							<clipindex>154</clipindex>
							<groupindex>1</groupindex>
						</link>
						<logginginfo>
							<description></description>
							<scene></scene>
							<shottake></shottake>
							<lognote></lognote>
						</logginginfo>
						<labels>
							<label2>Iris</label2>
						</labels>
					</clipitem>
					<transitionitem>
						<start>38652</start>
						<end>38665</end>
						<alignment>center</alignment>
						<cutPointTicks>60963840000</cutPointTicks>
						<rate>
							<timebase>25</timebase>
							<ntsc>FALSE</ntsc>
						</rate>
						<effect>
							<name>Cross Fade (+3dB)</name>
							<effectid>KGAudioTransCrossFade3dB</effectid>
							<effecttype>transition</effecttype>
							<mediatype>audio</mediatype>
							<wipecode>0</wipecode>
							<wipeaccuracy>100</wipeaccuracy>
							<startratio>0</startratio>
							<endratio>1</endratio>
							<reverse>FALSE</reverse>
						</effect>
					</transitionitem>
					<clipitem id="clipitem-2496" premiereChannelType="stereo">
						<masterclipid>masterclip-6</masterclipid>
						<name>NSPO30604105AA.mxf</name>
						<enabled>TRUE</enabled>
						<duration>89255</duration>
						<rate>
							<timebase>25</timebase>
							<ntsc>FALSE</ntsc>
						</rate>
						<start>-1</start>
						<end>-1</end>
						<in>66544</in>
						<out>66670</out>
						<pproTicksIn>676129628160000</pproTicksIn>
						<pproTicksOut>677409868800000</pproTicksOut>
						<file id="file-5"/>
						<sourcetrack>
							<mediatype>audio</mediatype>
							<trackindex>1</trackindex>
						</sourcetrack>
							<filter>
								<effect>
									<name>Audio Levels</name>
									<effectid>audiolevels</effectid>
									<effectcategory>audiolevels</effectcategory>
									<effecttype>audiolevels</effecttype>
									<mediatype>audio</mediatype>
									<parameter authoringApp="PremierePro">
										<parameterid>level</parameterid>
										<name>Level</name>
										<valuemin>0</valuemin>
										<valuemax>3.98109</valuemax>
										<value>0.111936</value>
									</parameter>
								</effect>
							</filter>
						<link>
							<linkclipref>clipitem-2496</linkclipref>
							<mediatype>audio</mediatype>
							<trackindex>17</trackindex>
							<clipindex>163</clipindex>
							<groupindex>1</groupindex>
						</link>
						<link>
							<linkclipref>clipitem-2666</linkclipref>
							<mediatype>audio</mediatype>
							<trackindex>18</trackindex>
							<clipindex>156</clipindex>
							<groupindex>1</groupindex>
						</link>
						<logginginfo>
							<description></description>
							<scene></scene>
							<shottake></shottake>
							<lognote></lognote>
						</logginginfo>
						<labels>
							<label2>Iris</label2>
						</labels>
					</clipitem>
					<transitionitem>
						<start>38765</start>
						<end>38778</end>
						<alignment>center</alignment>
						<cutPointTicks>60963840000</cutPointTicks>
						<rate>
							<timebase>25</timebase>
							<ntsc>FALSE</ntsc>
						</rate>
						<effect>
							<name>Cross Fade (+3dB)</name>
							<effectid>KGAudioTransCrossFade3dB</effectid>
							<effecttype>transition</effecttype>
							<mediatype>audio</mediatype>
							<wipecode>0</wipecode>
							<wipeaccuracy>100</wipeaccuracy>
							<startratio>0</startratio>
							<endratio>1</endratio>
							<reverse>FALSE</reverse>
						</effect>
					</transitionitem>
					<clipitem id="clipitem-2497" premiereChannelType="stereo">
						<masterclipid>masterclip-6</masterclipid>
						<name>NSPO30604105AA.mxf</name>
						<enabled>TRUE</enabled>
						<duration>89255</duration>
						<rate>
							<timebase>25</timebase>
							<ntsc>FALSE</ntsc>
						</rate>
						<start>-1</start>
						<end>-1</end>
						<in>67912</in>
						<out>67965</out>
						<pproTicksIn>690029383680000</pproTicksIn>
						<pproTicksOut>690567897600000</pproTicksOut>
						<file id="file-5"/>
						<sourcetrack>
							<mediatype>audio</mediatype>
							<trackindex>1</trackindex>
						</sourcetrack>
							<filter>
								<effect>
									<name>Audio Levels</name>
									<effectid>audiolevels</effectid>
									<effectcategory>audiolevels</effectcategory>
									<effecttype>audiolevels</effecttype>
									<mediatype>audio</mediatype>
									<parameter authoringApp="PremierePro">
										<parameterid>level</parameterid>
										<name>Level</name>
										<valuemin>0</valuemin>
										<valuemax>3.98109</valuemax>
										<value>0.140919</value>
									</parameter>
								</effect>
							</filter>
						<link>
							<linkclipref>clipitem-2497</linkclipref>
							<mediatype>audio</mediatype>
							<trackindex>17</trackindex>
							<clipindex>165</clipindex>
							<groupindex>1</groupindex>
						</link>
						<link>
							<linkclipref>clipitem-2667</linkclipref>
							<mediatype>audio</mediatype>
							<trackindex>18</trackindex>
							<clipindex>158</clipindex>
							<groupindex>1</groupindex>
						</link>
						<logginginfo>
							<description></description>
							<scene></scene>
							<shottake></shottake>
							<lognote></lognote>
						</logginginfo>
						<labels>
							<label2>Iris</label2>
						</labels>
					</clipitem>
					<transitionitem>
						<start>38805</start>
						<end>38818</end>
						<alignment>center</alignment>
						<cutPointTicks>60963840000</cutPointTicks>
						<rate>
							<timebase>25</timebase>
							<ntsc>FALSE</ntsc>
						</rate>
						<effect>
							<name>Cross Fade (+3dB)</name>
							<effectid>KGAudioTransCrossFade3dB</effectid>
							<effecttype>transition</effecttype>
							<mediatype>audio</mediatype>
							<wipecode>0</wipecode>
							<wipeaccuracy>100</wipeaccuracy>
							<startratio>0</startratio>
							<endratio>1</endratio>
							<reverse>FALSE</reverse>
						</effect>
					</transitionitem>
					<clipitem id="clipitem-2498" premiereChannelType="stereo">
						<masterclipid>masterclip-6</masterclipid>
						<name>NSPO30604105AA.mxf</name>
						<enabled>TRUE</enabled>
						<duration>89255</duration>
						<rate>
							<timebase>25</timebase>
							<ntsc>FALSE</ntsc>
						</rate>
						<start>-1</start>
						<end>-1</end>
						<in>65606</in>
						<out>65735</out>
						<pproTicksIn>666598947840000</pproTicksIn>
						<pproTicksOut>667909670400000</pproTicksOut>
						<file id="file-5"/>
						<sourcetrack>
							<mediatype>audio</mediatype>
							<trackindex>1</trackindex>
						</sourcetrack>
							<filter>
								<effect>
									<name>Audio Levels</name>
									<effectid>audiolevels</effectid>
									<effectcategory>audiolevels</effectcategory>
									<effecttype>audiolevels</effecttype>
									<mediatype>audio</mediatype>
									<parameter authoringApp="PremierePro">
										<parameterid>level</parameterid>
										<name>Level</name>
										<valuemin>0</valuemin>
										<valuemax>3.98109</valuemax>
										<value>0.353972</value>
									</parameter>
								</effect>
							</filter>
						<link>
							<linkclipref>clipitem-2498</linkclipref>
							<mediatype>audio</mediatype>
							<trackindex>17</trackindex>
							<clipindex>167</clipindex>
							<groupindex>1</groupindex>
						</link>
						<link>
							<linkclipref>clipitem-2668</linkclipref>
							<mediatype>audio</mediatype>
							<trackindex>18</trackindex>
							<clipindex>160</clipindex>
							<groupindex>1</groupindex>
						</link>
						<logginginfo>
							<description></description>
							<scene></scene>
							<shottake></shottake>
							<lognote></lognote>
						</logginginfo>
						<labels>
							<label2>Iris</label2>
						</labels>
					</clipitem>
					<transitionitem>
						<start>38921</start>
						<end>38934</end>
						<alignment>center</alignment>
						<cutPointTicks>60963840000</cutPointTicks>
						<rate>
							<timebase>25</timebase>
							<ntsc>FALSE</ntsc>
						</rate>
						<effect>
							<name>Cross Fade (+3dB)</name>
							<effectid>KGAudioTransCrossFade3dB</effectid>
							<effecttype>transition</effecttype>
							<mediatype>audio</mediatype>
							<wipecode>0</wipecode>
							<wipeaccuracy>100</wipeaccuracy>
							<startratio>0</startratio>
							<endratio>1</endratio>
							<reverse>FALSE</reverse>
						</effect>
					</transitionitem>
					<clipitem id="clipitem-2499" premiereChannelType="stereo">
						<masterclipid>masterclip-6</masterclipid>
						<name>NSPO30604105AA.mxf</name>
						<enabled>TRUE</enabled>
						<duration>89255</duration>
						<rate>
							<timebase>25</timebase>
							<ntsc>FALSE</ntsc>
						</rate>
						<start>-1</start>
						<end>-1</end>
						<in>65722</in>
						<out>65792</out>
						<pproTicksIn>667777582080000</pproTicksIn>
						<pproTicksOut>668488826880000</pproTicksOut>
						<file id="file-5"/>
						<sourcetrack>
							<mediatype>audio</mediatype>
							<trackindex>1</trackindex>
						</sourcetrack>
							<filter>
								<effect>
									<name>Audio Levels</name>
									<effectid>audiolevels</effectid>
									<effectcategory>audiolevels</effectcategory>
									<effecttype>audiolevels</effecttype>
									<mediatype>audio</mediatype>
									<parameter authoringApp="PremierePro">
										<parameterid>level</parameterid>
										<name>Level</name>
										<valuemin>0</valuemin>
										<valuemax>3.98109</valuemax>
										<value>1.58489</value>
									</parameter>
								</effect>
							</filter>
						<link>
							<linkclipref>clipitem-2499</linkclipref>
							<mediatype>audio</mediatype>
							<trackindex>17</trackindex>
							<clipindex>169</clipindex>
							<groupindex>1</groupindex>
						</link>
						<link>
							<linkclipref>clipitem-2669</linkclipref>
							<mediatype>audio</mediatype>
							<trackindex>18</trackindex>
							<clipindex>162</clipindex>
							<groupindex>1</groupindex>
						</link>
						<logginginfo>
							<description></description>
							<scene></scene>
							<shottake></shottake>
							<lognote></lognote>
						</logginginfo>
						<labels>
							<label2>Iris</label2>
						</labels>
					</clipitem>
					<transitionitem>
						<start>38978</start>
						<end>38991</end>
						<alignment>center</alignment>
						<cutPointTicks>60963840000</cutPointTicks>
						<rate>
							<timebase>25</timebase>
							<ntsc>FALSE</ntsc>
						</rate>
						<effect>
							<name>Cross Fade (+3dB)</name>
							<effectid>KGAudioTransCrossFade3dB</effectid>
							<effecttype>transition</effecttype>
							<mediatype>audio</mediatype>
							<wipecode>0</wipecode>
							<wipeaccuracy>100</wipeaccuracy>
							<startratio>0</startratio>
							<endratio>1</endratio>
							<reverse>FALSE</reverse>
						</effect>
					</transitionitem>
					<clipitem id="clipitem-2500" premiereChannelType="stereo">
						<masterclipid>masterclip-6</masterclipid>
						<name>NSPO30604105AA.mxf</name>
						<enabled>TRUE</enabled>
						<duration>89255</duration>
						<rate>
							<timebase>25</timebase>
							<ntsc>FALSE</ntsc>
						</rate>
						<start>-1</start>
						<end>-1</end>
						<in>62878</in>
						<out>62985</out>
						<pproTicksIn>638880721920000</pproTicksIn>
						<pproTicksOut>639967910400000</pproTicksOut>
						<file id="file-5"/>
						<sourcetrack>
							<mediatype>audio</mediatype>
							<trackindex>1</trackindex>
						</sourcetrack>
							<filter>
								<effect>
									<name>Audio Levels</name>
									<effectid>audiolevels</effectid>
									<effectcategory>audiolevels</effectcategory>
									<effecttype>audiolevels</effecttype>
									<mediatype>audio</mediatype>
									<parameter authoringApp="PremierePro">
										<parameterid>level</parameterid>
										<name>Level</name>
										<valuemin>0</valuemin>
										<valuemax>3.98109</valuemax>
										<value>0.28117</value>
									</parameter>
								</effect>
							</filter>
						<link>
							<linkclipref>clipitem-2500</linkclipref>
							<mediatype>audio</mediatype>
							<trackindex>17</trackindex>
							<clipindex>171</clipindex>
							<groupindex>1</groupindex>
						</link>
						<link>
							<linkclipref>clipitem-2670</linkclipref>
							<mediatype>audio</mediatype>
							<trackindex>18</trackindex>
							<clipindex>164</clipindex>
							<groupindex>1</groupindex>
						</link>
						<logginginfo>
							<description></description>
							<scene></scene>
							<shottake></shottake>
							<lognote></lognote>
						</logginginfo>
						<labels>
							<label2>Iris</label2>
						</labels>
					</clipitem>
					<transitionitem>
						<start>39072</start>
						<end>39085</end>
						<alignment>center</alignment>
						<cutPointTicks>60963840000</cutPointTicks>
						<rate>
							<timebase>25</timebase>
							<ntsc>FALSE</ntsc>
						</rate>
						<effect>
							<name>Cross Fade (+3dB)</name>
							<effectid>KGAudioTransCrossFade3dB</effectid>
							<effecttype>transition</effecttype>
							<mediatype>audio</mediatype>
							<wipecode>0</wipecode>
							<wipeaccuracy>100</wipeaccuracy>
							<startratio>0</startratio>
							<endratio>1</endratio>
							<reverse>FALSE</reverse>
						</effect>
					</transitionitem>
					<clipitem id="clipitem-2501" premiereChannelType="stereo">
						<masterclipid>masterclip-6</masterclipid>
						<name>NSPO30604105AA.mxf</name>
						<enabled>TRUE</enabled>
						<duration>89255</duration>
						<rate>
							<timebase>25</timebase>
							<ntsc>FALSE</ntsc>
						</rate>
						<start>-1</start>
						<end>-1</end>
						<in>62972</in>
						<out>63184</out>
						<pproTicksIn>639835822080000</pproTicksIn>
						<pproTicksOut>641989877760000</pproTicksOut>
						<file id="file-5"/>
						<sourcetrack>
							<mediatype>audio</mediatype>
							<trackindex>1</trackindex>
						</sourcetrack>
						<link>
							<linkclipref>clipitem-2501</linkclipref>
							<mediatype>audio</mediatype>
							<trackindex>17</trackindex>
							<clipindex>173</clipindex>
							<groupindex>1</groupindex>
						</link>
						<link>
							<linkclipref>clipitem-2671</linkclipref>
							<mediatype>audio</mediatype>
							<trackindex>18</trackindex>
							<clipindex>166</clipindex>
							<groupindex>1</groupindex>
						</link>
						<logginginfo>
							<description></description>
							<scene></scene>
							<shottake></shottake>
							<lognote></lognote>
						</logginginfo>
						<labels>
							<label2>Iris</label2>
						</labels>
					</clipitem>
					<transitionitem>
						<start>39259</start>
						<end>39284</end>
						<alignment>center</alignment>
						<cutPointTicks>121927680000</cutPointTicks>
						<rate>
							<timebase>25</timebase>
							<ntsc>FALSE</ntsc>
						</rate>
						<effect>
							<name>Cross Fade (+3dB)</name>
							<effectid>KGAudioTransCrossFade3dB</effectid>
							<effecttype>transition</effecttype>
							<mediatype>audio</mediatype>
							<wipecode>0</wipecode>
							<wipeaccuracy>100</wipeaccuracy>
							<startratio>0</startratio>
							<endratio>1</endratio>
							<reverse>FALSE</reverse>
						</effect>
					</transitionitem>
					<clipitem id="clipitem-2502" premiereChannelType="stereo">
						<masterclipid>masterclip-6</masterclipid>
						<name>NSPO30604105AA.mxf</name>
						<enabled>TRUE</enabled>
						<duration>89255</duration>
						<rate>
							<timebase>25</timebase>
							<ntsc>FALSE</ntsc>
						</rate>
						<start>-1</start>
						<end>-1</end>
						<in>63356</in>
						<out>63514</out>
						<pproTicksIn>643737507840000</pproTicksIn>
						<pproTicksOut>645342888960000</pproTicksOut>
						<file id="file-5"/>
						<sourcetrack>
							<mediatype>audio</mediatype>
							<trackindex>1</trackindex>
						</sourcetrack>
							<filter>
								<effect>
									<name>Audio Levels</name>
									<effectid>audiolevels</effectid>
									<effectcategory>audiolevels</effectcategory>
									<effecttype>audiolevels</effecttype>
									<mediatype>audio</mediatype>
									<parameter authoringApp="PremierePro">
										<parameterid>level</parameterid>
										<name>Level</name>
										<valuemin>0</valuemin>
										<valuemax>3.98109</valuemax>
										<value>0.240807</value>
									</parameter>
								</effect>
							</filter>
						<link>
							<linkclipref>clipitem-2502</linkclipref>
							<mediatype>audio</mediatype>
							<trackindex>17</trackindex>
							<clipindex>175</clipindex>
							<groupindex>1</groupindex>
						</link>
						<link>
							<linkclipref>clipitem-2672</linkclipref>
							<mediatype>audio</mediatype>
							<trackindex>18</trackindex>
							<clipindex>168</clipindex>
							<groupindex>1</groupindex>
						</link>
						<logginginfo>
							<description></description>
							<scene></scene>
							<shottake></shottake>
							<lognote></lognote>
						</logginginfo>
						<labels>
							<label2>Iris</label2>
						</labels>
					</clipitem>
					<transitionitem>
						<start>39404</start>
						<end>39417</end>
						<alignment>center</alignment>
						<cutPointTicks>60963840000</cutPointTicks>
						<rate>
							<timebase>25</timebase>
							<ntsc>FALSE</ntsc>
						</rate>
						<effect>
							<name>Cross Fade (+3dB)</name>
							<effectid>KGAudioTransCrossFade3dB</effectid>
							<effecttype>transition</effecttype>
							<mediatype>audio</mediatype>
							<wipecode>0</wipecode>
							<wipeaccuracy>100</wipeaccuracy>
							<startratio>0</startratio>
							<endratio>1</endratio>
							<reverse>FALSE</reverse>
						</effect>
					</transitionitem>
					<clipitem id="clipitem-2503" premiereChannelType="stereo">
						<masterclipid>masterclip-6</masterclipid>
						<name>NSPO30604105AA.mxf</name>
						<enabled>TRUE</enabled>
						<duration>89255</duration>
						<rate>
							<timebase>25</timebase>
							<ntsc>FALSE</ntsc>
						</rate>
						<start>-1</start>
						<end>39533</end>
						<in>63501</in>
						<out>63630</out>
						<pproTicksIn>645210800640000</pproTicksIn>
						<pproTicksOut>646521523200000</pproTicksOut>
						<file id="file-5"/>
						<sourcetrack>
							<mediatype>audio</mediatype>
							<trackindex>1</trackindex>
						</sourcetrack>
						<link>
							<linkclipref>clipitem-2503</linkclipref>
							<mediatype>audio</mediatype>
							<trackindex>17</trackindex>
							<clipindex>177</clipindex>
							<groupindex>1</groupindex>
						</link>
						<link>
							<linkclipref>clipitem-2673</linkclipref>
							<mediatype>audio</mediatype>
							<trackindex>18</trackindex>
							<clipindex>170</clipindex>
							<groupindex>1</groupindex>
						</link>
						<logginginfo>
							<description></description>
							<scene></scene>
							<shottake></shottake>
							<lognote></lognote>
						</logginginfo>
						<labels>
							<label2>Iris</label2>
						</labels>
					</clipitem>
					<clipitem id="clipitem-2504" premiereChannelType="stereo">
						<masterclipid>masterclip-6</masterclipid>
						<name>NSPO30604105AA.mxf</name>
						<enabled>TRUE</enabled>
						<duration>89255</duration>
						<rate>
							<timebase>25</timebase>
							<ntsc>FALSE</ntsc>
						</rate>
						<start>39533</start>
						<end>-1</end>
						<in>63669</in>
						<out>63785</out>
						<pproTicksIn>646917788160000</pproTicksIn>
						<pproTicksOut>648096422400000</pproTicksOut>
						<file id="file-5"/>
						<sourcetrack>
							<mediatype>audio</mediatype>
							<trackindex>1</trackindex>
						</sourcetrack>
							<filter>
								<effect>
									<name>Audio Levels</name>
									<effectid>audiolevels</effectid>
									<effectcategory>audiolevels</effectcategory>
									<effecttype>audiolevels</effecttype>
									<mediatype>audio</mediatype>
									<parameter authoringApp="PremierePro">
										<parameterid>level</parameterid>
										<name>Level</name>
										<valuemin>0</valuemin>
										<valuemax>3.98109</valuemax>
										<value>0.792446</value>
									</parameter>
								</effect>
							</filter>
						<link>
							<linkclipref>clipitem-2504</linkclipref>
							<mediatype>audio</mediatype>
							<trackindex>17</trackindex>
							<clipindex>178</clipindex>
							<groupindex>1</groupindex>
						</link>
						<link>
							<linkclipref>clipitem-2674</linkclipref>
							<mediatype>audio</mediatype>
							<trackindex>18</trackindex>
							<clipindex>171</clipindex>
							<groupindex>1</groupindex>
						</link>
						<logginginfo>
							<description></description>
							<scene></scene>
							<shottake></shottake>
							<lognote></lognote>
						</logginginfo>
						<labels>
							<label2>Iris</label2>
						</labels>
					</clipitem>
					<transitionitem>
						<start>39586</start>
						<end>39649</end>
						<alignment>end-black</alignment>
						<cutPointTicks>640120320000</cutPointTicks>
						<rate>
							<timebase>25</timebase>
							<ntsc>FALSE</ntsc>
						</rate>
						<effect>
							<name>Cross Fade (+3dB)</name>
							<effectid>KGAudioTransCrossFade3dB</effectid>
							<effecttype>transition</effecttype>
							<mediatype>audio</mediatype>
							<wipecode>0</wipecode>
							<wipeaccuracy>100</wipeaccuracy>
							<startratio>0</startratio>
							<endratio>1</endratio>
							<reverse>FALSE</reverse>
						</effect>
					</transitionitem>
					<clipitem id="clipitem-2505" premiereChannelType="stereo">
						<masterclipid>masterclip-10</masterclipid>
						<name>NNFA80750005AA.mxf</name>
						<enabled>TRUE</enabled>
						<duration>81126</duration>
						<rate>
							<timebase>25</timebase>
							<ntsc>FALSE</ntsc>
						</rate>
						<start>39921</start>
						<end>-1</end>
						<in>74736</in>
						<out>74916</out>
						<pproTicksIn>759365591040000</pproTicksIn>
						<pproTicksOut>761194506240000</pproTicksOut>
						<file id="file-8"/>
						<sourcetrack>
							<mediatype>audio</mediatype>
							<trackindex>1</trackindex>
						</sourcetrack>
							<filter>
								<effect>
									<name>Audio Levels</name>
									<effectid>audiolevels</effectid>
									<effectcategory>audiolevels</effectcategory>
									<effecttype>audiolevels</effecttype>
									<mediatype>audio</mediatype>
									<parameter authoringApp="PremierePro">
										<parameterid>level</parameterid>
										<name>Level</name>
										<valuemin>0</valuemin>
										<valuemax>3.98109</valuemax>
										<value>0.275208</value>
									</parameter>
								</effect>
							</filter>
						<link>
							<linkclipref>clipitem-2505</linkclipref>
							<mediatype>audio</mediatype>
							<trackindex>17</trackindex>
							<clipindex>180</clipindex>
							<groupindex>1</groupindex>
						</link>
						<link>
							<linkclipref>clipitem-2675</linkclipref>
							<mediatype>audio</mediatype>
							<trackindex>18</trackindex>
							<clipindex>173</clipindex>
							<groupindex>1</groupindex>
						</link>
						<logginginfo>
							<description></description>
							<scene></scene>
							<shottake></shottake>
							<lognote></lognote>
						</logginginfo>
						<labels>
							<label2>Iris</label2>
						</labels>
					</clipitem>
					<transitionitem>
						<start>40088</start>
						<end>40101</end>
						<alignment>center</alignment>
						<cutPointTicks>60963840000</cutPointTicks>
						<rate>
							<timebase>25</timebase>
							<ntsc>FALSE</ntsc>
						</rate>
						<effect>
							<name>Cross Fade (+3dB)</name>
							<effectid>KGAudioTransCrossFade3dB</effectid>
							<effecttype>transition</effecttype>
							<mediatype>audio</mediatype>
							<wipecode>0</wipecode>
							<wipeaccuracy>100</wipeaccuracy>
							<startratio>0</startratio>
							<endratio>1</endratio>
							<reverse>FALSE</reverse>
						</effect>
					</transitionitem>
					<clipitem id="clipitem-2506" premiereChannelType="stereo">
						<masterclipid>masterclip-10</masterclipid>
						<name>NNFA80750005AA.mxf</name>
						<enabled>TRUE</enabled>
						<duration>81126</duration>
						<rate>
							<timebase>25</timebase>
							<ntsc>FALSE</ntsc>
						</rate>
						<start>-1</start>
						<end>-1</end>
						<in>75007</in>
						<out>75148</out>
						<pproTicksIn>762119124480000</pproTicksIn>
						<pproTicksOut>763551774720000</pproTicksOut>
						<file id="file-8"/>
						<sourcetrack>
							<mediatype>audio</mediatype>
							<trackindex>1</trackindex>
						</sourcetrack>
							<filter>
								<effect>
									<name>Audio Levels</name>
									<effectid>audiolevels</effectid>
									<effectcategory>audiolevels</effectcategory>
									<effecttype>audiolevels</effecttype>
									<mediatype>audio</mediatype>
									<parameter authoringApp="PremierePro">
										<parameterid>level</parameterid>
										<name>Level</name>
										<valuemin>0</valuemin>
										<valuemax>3.98109</valuemax>
										<value>1.25594</value>
									</parameter>
								</effect>
							</filter>
						<link>
							<linkclipref>clipitem-2506</linkclipref>
							<mediatype>audio</mediatype>
							<trackindex>17</trackindex>
							<clipindex>182</clipindex>
							<groupindex>1</groupindex>
						</link>
						<link>
							<linkclipref>clipitem-2676</linkclipref>
							<mediatype>audio</mediatype>
							<trackindex>18</trackindex>
							<clipindex>175</clipindex>
							<groupindex>1</groupindex>
						</link>
						<logginginfo>
							<description></description>
							<scene></scene>
							<shottake></shottake>
							<lognote></lognote>
						</logginginfo>
						<labels>
							<label2>Iris</label2>
						</labels>
					</clipitem>
					<transitionitem>
						<start>40216</start>
						<end>40229</end>
						<alignment>center</alignment>
						<cutPointTicks>60963840000</cutPointTicks>
						<rate>
							<timebase>25</timebase>
							<ntsc>FALSE</ntsc>
						</rate>
						<effect>
							<name>Cross Fade (+3dB)</name>
							<effectid>KGAudioTransCrossFade3dB</effectid>
							<effecttype>transition</effecttype>
							<mediatype>audio</mediatype>
							<wipecode>0</wipecode>
							<wipeaccuracy>100</wipeaccuracy>
							<startratio>0</startratio>
							<endratio>1</endratio>
							<reverse>FALSE</reverse>
						</effect>
					</transitionitem>
					<clipitem id="clipitem-2507" premiereChannelType="stereo">
						<masterclipid>masterclip-10</masterclipid>
						<name>NNFA80750005AA.mxf</name>
						<enabled>TRUE</enabled>
						<duration>81126</duration>
						<rate>
							<timebase>25</timebase>
							<ntsc>FALSE</ntsc>
						</rate>
						<start>-1</start>
						<end>-1</end>
						<in>75268</in>
						<out>75429</out>
						<pproTicksIn>764771051520000</pproTicksIn>
						<pproTicksOut>766406914560000</pproTicksOut>
						<file id="file-8"/>
						<sourcetrack>
							<mediatype>audio</mediatype>
							<trackindex>1</trackindex>
						</sourcetrack>
							<filter>
								<effect>
									<name>Audio Levels</name>
									<effectid>audiolevels</effectid>
									<effectcategory>audiolevels</effectcategory>
									<effecttype>audiolevels</effecttype>
									<mediatype>audio</mediatype>
									<parameter authoringApp="PremierePro">
										<parameterid>level</parameterid>
										<name>Level</name>
										<valuemin>0</valuemin>
										<valuemax>3.98109</valuemax>
										<value>0.103203</value>
									</parameter>
								</effect>
							</filter>
						<link>
							<linkclipref>clipitem-2507</linkclipref>
							<mediatype>audio</mediatype>
							<trackindex>17</trackindex>
							<clipindex>184</clipindex>
							<groupindex>1</groupindex>
						</link>
						<link>
							<linkclipref>clipitem-2677</linkclipref>
							<mediatype>audio</mediatype>
							<trackindex>18</trackindex>
							<clipindex>177</clipindex>
							<groupindex>1</groupindex>
						</link>
						<logginginfo>
							<description></description>
							<scene></scene>
							<shottake></shottake>
							<lognote></lognote>
						</logginginfo>
						<labels>
							<label2>Iris</label2>
						</labels>
					</clipitem>
					<transitionitem>
						<start>40364</start>
						<end>40377</end>
						<alignment>center</alignment>
						<cutPointTicks>60963840000</cutPointTicks>
						<rate>
							<timebase>25</timebase>
							<ntsc>FALSE</ntsc>
						</rate>
						<effect>
							<name>Cross Fade (+3dB)</name>
							<effectid>KGAudioTransCrossFade3dB</effectid>
							<effecttype>transition</effecttype>
							<mediatype>audio</mediatype>
							<wipecode>0</wipecode>
							<wipeaccuracy>100</wipeaccuracy>
							<startratio>0</startratio>
							<endratio>1</endratio>
							<reverse>FALSE</reverse>
						</effect>
					</transitionitem>
					<clipitem id="clipitem-2508" premiereChannelType="stereo">
						<masterclipid>masterclip-10</masterclipid>
						<name>NNFA80750005AA.mxf</name>
						<enabled>TRUE</enabled>
						<duration>81126</duration>
						<rate>
							<timebase>25</timebase>
							<ntsc>FALSE</ntsc>
						</rate>
						<start>-1</start>
						<end>-1</end>
						<in>75165</in>
						<out>75259</out>
						<pproTicksIn>763724505600000</pproTicksIn>
						<pproTicksOut>764679605760000</pproTicksOut>
						<file id="file-8"/>
						<sourcetrack>
							<mediatype>audio</mediatype>
							<trackindex>1</trackindex>
						</sourcetrack>
							<filter>
								<effect>
									<name>Audio Levels</name>
									<effectid>audiolevels</effectid>
									<effectcategory>audiolevels</effectcategory>
									<effecttype>audiolevels</effecttype>
									<mediatype>audio</mediatype>
									<parameter authoringApp="PremierePro">
										<parameterid>level</parameterid>
										<name>Level</name>
										<valuemin>0</valuemin>
										<valuemax>3.98109</valuemax>
										<value>0.403479</value>
									</parameter>
								</effect>
							</filter>
						<link>
							<linkclipref>clipitem-2508</linkclipref>
							<mediatype>audio</mediatype>
							<trackindex>17</trackindex>
							<clipindex>186</clipindex>
							<groupindex>1</groupindex>
						</link>
						<link>
							<linkclipref>clipitem-2678</linkclipref>
							<mediatype>audio</mediatype>
							<trackindex>18</trackindex>
							<clipindex>179</clipindex>
							<groupindex>1</groupindex>
						</link>
						<logginginfo>
							<description></description>
							<scene></scene>
							<shottake></shottake>
							<lognote></lognote>
						</logginginfo>
						<labels>
							<label2>Iris</label2>
						</labels>
					</clipitem>
					<transitionitem>
						<start>40445</start>
						<end>40458</end>
						<alignment>end-black</alignment>
						<cutPointTicks>132088320000</cutPointTicks>
						<rate>
							<timebase>25</timebase>
							<ntsc>FALSE</ntsc>
						</rate>
						<effect>
							<name>Cross Fade (+3dB)</name>
							<effectid>KGAudioTransCrossFade3dB</effectid>
							<effecttype>transition</effecttype>
							<mediatype>audio</mediatype>
							<wipecode>0</wipecode>
							<wipeaccuracy>100</wipeaccuracy>
							<startratio>0</startratio>
							<endratio>1</endratio>
							<reverse>FALSE</reverse>
						</effect>
					</transitionitem>
					<clipitem id="clipitem-2509" premiereChannelType="stereo">
						<masterclipid>masterclip-100</masterclipid>
						<name>Latter spredt.wav</name>
						<enabled>TRUE</enabled>
						<duration>91</duration>
						<rate>
							<timebase>25</timebase>
							<ntsc>FALSE</ntsc>
						</rate>
						<start>42014</start>
						<end>42105</end>
						<in>0</in>
						<out>91</out>
						<pproTicksIn>0</pproTicksIn>
						<pproTicksOut>924618240000</pproTicksOut>
						<file id="file-96"/>
						<sourcetrack>
							<mediatype>audio</mediatype>
							<trackindex>1</trackindex>
						</sourcetrack>
						<link>
							<linkclipref>clipitem-2509</linkclipref>
							<mediatype>audio</mediatype>
							<trackindex>17</trackindex>
							<clipindex>188</clipindex>
							<groupindex>1</groupindex>
						</link>
						<link>
							<linkclipref>clipitem-2679</linkclipref>
							<mediatype>audio</mediatype>
							<trackindex>18</trackindex>
							<clipindex>181</clipindex>
							<groupindex>1</groupindex>
						</link>
						<logginginfo>
							<description></description>
							<scene></scene>
							<shottake></shottake>
							<lognote></lognote>
						</logginginfo>
						<labels>
							<label2>Caribbean</label2>
						</labels>
					</clipitem>
					<clipitem id="clipitem-2510" premiereChannelType="stereo">
						<masterclipid>masterclip-80</masterclipid>
						<name>Latter behersket.wav</name>
						<enabled>TRUE</enabled>
						<duration>124</duration>
						<rate>
							<timebase>25</timebase>
							<ntsc>FALSE</ntsc>
						</rate>
						<start>43509</start>
						<end>43583</end>
						<in>50</in>
						<out>124</out>
						<pproTicksIn>508032000000</pproTicksIn>
						<pproTicksOut>1259919360000</pproTicksOut>
						<file id="file-76"/>
						<sourcetrack>
							<mediatype>audio</mediatype>
							<trackindex>1</trackindex>
						</sourcetrack>
						<link>
							<linkclipref>clipitem-2510</linkclipref>
							<mediatype>audio</mediatype>
							<trackindex>17</trackindex>
							<clipindex>189</clipindex>
							<groupindex>1</groupindex>
						</link>
						<link>
							<linkclipref>clipitem-2680</linkclipref>
							<mediatype>audio</mediatype>
							<trackindex>18</trackindex>
							<clipindex>182</clipindex>
							<groupindex>1</groupindex>
						</link>
						<logginginfo>
							<description></description>
							<scene></scene>
							<shottake></shottake>
							<lognote></lognote>
						</logginginfo>
						<labels>
							<label2>Caribbean</label2>
						</labels>
					</clipitem>
					<clipitem id="clipitem-2511" premiereChannelType="stereo">
						<masterclipid>masterclip-101</masterclipid>
						<name>Latter kort litt klapping.wav</name>
						<enabled>TRUE</enabled>
						<duration>68</duration>
						<rate>
							<timebase>25</timebase>
							<ntsc>FALSE</ntsc>
						</rate>
						<start>44002</start>
						<end>44070</end>
						<in>0</in>
						<out>68</out>
						<pproTicksIn>0</pproTicksIn>
						<pproTicksOut>690923520000</pproTicksOut>
						<file id="file-97"/>
						<sourcetrack>
							<mediatype>audio</mediatype>
							<trackindex>1</trackindex>
						</sourcetrack>
						<link>
							<linkclipref>clipitem-2511</linkclipref>
							<mediatype>audio</mediatype>
							<trackindex>17</trackindex>
							<clipindex>190</clipindex>
							<groupindex>1</groupindex>
						</link>
						<link>
							<linkclipref>clipitem-2681</linkclipref>
							<mediatype>audio</mediatype>
							<trackindex>18</trackindex>
							<clipindex>183</clipindex>
							<groupindex>1</groupindex>
						</link>
						<logginginfo>
							<description></description>
							<scene></scene>
							<shottake></shottake>
							<lognote></lognote>
						</logginginfo>
						<labels>
							<label2>Caribbean</label2>
						</labels>
					</clipitem>
					<clipitem id="clipitem-2512" premiereChannelType="stereo">
						<masterclipid>masterclip-88</masterclipid>
						<name>Latter hehehe.wav</name>
						<enabled>TRUE</enabled>
						<duration>30</duration>
						<rate>
							<timebase>25</timebase>
							<ntsc>FALSE</ntsc>
						</rate>
						<start>44211</start>
						<end>44241</end>
						<in>0</in>
						<out>30</out>
						<pproTicksIn>0</pproTicksIn>
						<pproTicksOut>304819200000</pproTicksOut>
						<file id="file-84"/>
						<sourcetrack>
							<mediatype>audio</mediatype>
							<trackindex>1</trackindex>
						</sourcetrack>
							<filter>
								<effect>
									<name>Audio Levels</name>
									<effectid>audiolevels</effectid>
									<effectcategory>audiolevels</effectcategory>
									<effecttype>audiolevels</effecttype>
									<mediatype>audio</mediatype>
									<parameter authoringApp="PremierePro">
										<parameterid>level</parameterid>
										<name>Level</name>
										<valuemin>0</valuemin>
										<valuemax>3.98109</valuemax>
										<value>0.99763</value>
									</parameter>
								</effect>
							</filter>
						<link>
							<linkclipref>clipitem-2512</linkclipref>
							<mediatype>audio</mediatype>
							<trackindex>17</trackindex>
							<clipindex>191</clipindex>
							<groupindex>1</groupindex>
						</link>
						<link>
							<linkclipref>clipitem-2682</linkclipref>
							<mediatype>audio</mediatype>
							<trackindex>18</trackindex>
							<clipindex>184</clipindex>
							<groupindex>1</groupindex>
						</link>
						<logginginfo>
							<description></description>
							<scene></scene>
							<shottake></shottake>
							<lognote></lognote>
						</logginginfo>
						<labels>
							<label2>Caribbean</label2>
						</labels>
					</clipitem>
					<clipitem id="clipitem-2513" premiereChannelType="stereo">
						<masterclipid>masterclip-100</masterclipid>
						<name>Latter spredt.wav</name>
						<enabled>TRUE</enabled>
						<duration>91</duration>
						<rate>
							<timebase>25</timebase>
							<ntsc>FALSE</ntsc>
						</rate>
						<start>44312</start>
						<end>44403</end>
						<in>0</in>
						<out>91</out>
						<pproTicksIn>0</pproTicksIn>
						<pproTicksOut>924618240000</pproTicksOut>
						<file id="file-96"/>
						<sourcetrack>
							<mediatype>audio</mediatype>
							<trackindex>1</trackindex>
						</sourcetrack>
						<link>
							<linkclipref>clipitem-2513</linkclipref>
							<mediatype>audio</mediatype>
							<trackindex>17</trackindex>
							<clipindex>192</clipindex>
							<groupindex>1</groupindex>
						</link>
						<link>
							<linkclipref>clipitem-2683</linkclipref>
							<mediatype>audio</mediatype>
							<trackindex>18</trackindex>
							<clipindex>185</clipindex>
							<groupindex>1</groupindex>
						</link>
						<logginginfo>
							<description></description>
							<scene></scene>
							<shottake></shottake>
							<lognote></lognote>
						</logginginfo>
						<labels>
							<label2>Caribbean</label2>
						</labels>
					</clipitem>
					<clipitem id="clipitem-2514" premiereChannelType="stereo">
						<masterclipid>masterclip-101</masterclipid>
						<name>Latter kort litt klapping.wav</name>
						<enabled>TRUE</enabled>
						<duration>68</duration>
						<rate>
							<timebase>25</timebase>
							<ntsc>FALSE</ntsc>
						</rate>
						<start>45179</start>
						<end>45247</end>
						<in>0</in>
						<out>68</out>
						<pproTicksIn>0</pproTicksIn>
						<pproTicksOut>690923520000</pproTicksOut>
						<file id="file-97"/>
						<sourcetrack>
							<mediatype>audio</mediatype>
							<trackindex>1</trackindex>
						</sourcetrack>
						<link>
							<linkclipref>clipitem-2514</linkclipref>
							<mediatype>audio</mediatype>
							<trackindex>17</trackindex>
							<clipindex>193</clipindex>
							<groupindex>1</groupindex>
						</link>
						<link>
							<linkclipref>clipitem-2684</linkclipref>
							<mediatype>audio</mediatype>
							<trackindex>18</trackindex>
							<clipindex>186</clipindex>
							<groupindex>1</groupindex>
						</link>
						<logginginfo>
							<description></description>
							<scene></scene>
							<shottake></shottake>
							<lognote></lognote>
						</logginginfo>
						<labels>
							<label2>Caribbean</label2>
						</labels>
					</clipitem>
					<clipitem id="clipitem-2515" premiereChannelType="stereo">
						<masterclipid>masterclip-100</masterclipid>
						<name>Latter spredt.wav</name>
						<enabled>TRUE</enabled>
						<duration>91</duration>
						<rate>
							<timebase>25</timebase>
							<ntsc>FALSE</ntsc>
						</rate>
						<start>45465</start>
						<end>45538</end>
						<in>0</in>
						<out>73</out>
						<pproTicksIn>0</pproTicksIn>
						<pproTicksOut>741726720000</pproTicksOut>
						<file id="file-96"/>
						<sourcetrack>
							<mediatype>audio</mediatype>
							<trackindex>1</trackindex>
						</sourcetrack>
						<link>
							<linkclipref>clipitem-2515</linkclipref>
							<mediatype>audio</mediatype>
							<trackindex>17</trackindex>
							<clipindex>194</clipindex>
							<groupindex>1</groupindex>
						</link>
						<link>
							<linkclipref>clipitem-2685</linkclipref>
							<mediatype>audio</mediatype>
							<trackindex>18</trackindex>
							<clipindex>187</clipindex>
							<groupindex>1</groupindex>
						</link>
						<logginginfo>
							<description></description>
							<scene></scene>
							<shottake></shottake>
							<lognote></lognote>
						</logginginfo>
						<labels>
							<label2>Caribbean</label2>
						</labels>
					</clipitem>
					<clipitem id="clipitem-2516" premiereChannelType="stereo">
						<masterclipid>masterclip-100</masterclipid>
						<name>Latter spredt.wav</name>
						<enabled>TRUE</enabled>
						<duration>91</duration>
						<rate>
							<timebase>25</timebase>
							<ntsc>FALSE</ntsc>
						</rate>
						<start>45538</start>
						<end>45595</end>
						<in>0</in>
						<out>57</out>
						<pproTicksIn>0</pproTicksIn>
						<pproTicksOut>579156480000</pproTicksOut>
						<file id="file-96"/>
						<sourcetrack>
							<mediatype>audio</mediatype>
							<trackindex>1</trackindex>
						</sourcetrack>
						<link>
							<linkclipref>clipitem-2516</linkclipref>
							<mediatype>audio</mediatype>
							<trackindex>17</trackindex>
							<clipindex>195</clipindex>
							<groupindex>1</groupindex>
						</link>
						<link>
							<linkclipref>clipitem-2686</linkclipref>
							<mediatype>audio</mediatype>
							<trackindex>18</trackindex>
							<clipindex>188</clipindex>
							<groupindex>1</groupindex>
						</link>
						<logginginfo>
							<description></description>
							<scene></scene>
							<shottake></shottake>
							<lognote></lognote>
						</logginginfo>
						<labels>
							<label2>Caribbean</label2>
						</labels>
					</clipitem>
					<clipitem id="clipitem-2517" premiereChannelType="stereo">
						<masterclipid>masterclip-116</masterclipid>
						<name>Latterkule kort.wav</name>
						<enabled>TRUE</enabled>
						<duration>205</duration>
						<rate>
							<timebase>25</timebase>
							<ntsc>FALSE</ntsc>
						</rate>
						<start>46238</start>
						<end>46443</end>
						<in>0</in>
						<out>205</out>
						<pproTicksIn>0</pproTicksIn>
						<pproTicksOut>2082931200000</pproTicksOut>
						<file id="file-112">
							<name>Latterkule kort.wav</name>
							<pathurl>file://localhost/Volumes/Brakka/AdobeLager/QUIZ%20-%20brakka/RA%cc%8aSTOFF%20LYD/Publikumsreaksjoner/Fra%201990/Latterkule%20kort.wav</pathurl>
							<rate>
								<timebase>30</timebase>
								<ntsc>TRUE</ntsc>
							</rate>
							<duration>246</duration>
							<timecode>
								<rate>
									<timebase>30</timebase>
									<ntsc>TRUE</ntsc>
								</rate>
								<string>12;58;04;26</string>
								<frame>1399144</frame>
								<displayformat>DF</displayformat>
								<reel>
									<name></name>
								</reel>
							</timecode>
							<media>
								<audio>
									<samplecharacteristics>
										<depth>16</depth>
										<samplerate>48000</samplerate>
									</samplecharacteristics>
									<channelcount>2</channelcount>
								</audio>
							</media>
						</file>
						<sourcetrack>
							<mediatype>audio</mediatype>
							<trackindex>1</trackindex>
						</sourcetrack>
						<link>
							<linkclipref>clipitem-2517</linkclipref>
							<mediatype>audio</mediatype>
							<trackindex>17</trackindex>
							<clipindex>196</clipindex>
							<groupindex>1</groupindex>
						</link>
						<link>
							<linkclipref>clipitem-2687</linkclipref>
							<mediatype>audio</mediatype>
							<trackindex>18</trackindex>
							<clipindex>189</clipindex>
							<groupindex>1</groupindex>
						</link>
						<logginginfo>
							<description></description>
							<scene></scene>
							<shottake></shottake>
							<lognote></lognote>
						</logginginfo>
						<labels>
							<label2>Caribbean</label2>
						</labels>
					</clipitem>
					<clipitem id="clipitem-2518" premiereChannelType="stereo">
						<masterclipid>masterclip-42</masterclipid>
						<name>Mira Craig Stage Dive.mp4</name>
						<enabled>TRUE</enabled>
						<duration>965</duration>
						<rate>
							<timebase>25</timebase>
							<ntsc>FALSE</ntsc>
						</rate>
						<start>46452</start>
						<end>46524</end>
						<in>445</in>
						<out>517</out>
						<pproTicksIn>4521484800000</pproTicksIn>
						<pproTicksOut>5253050880000</pproTicksOut>
						<file id="file-38"/>
						<sourcetrack>
							<mediatype>audio</mediatype>
							<trackindex>1</trackindex>
						</sourcetrack>
						<link>
							<linkclipref>clipitem-2518</linkclipref>
							<mediatype>audio</mediatype>
							<trackindex>17</trackindex>
							<clipindex>197</clipindex>
							<groupindex>1</groupindex>
						</link>
						<link>
							<linkclipref>clipitem-2688</linkclipref>
							<mediatype>audio</mediatype>
							<trackindex>18</trackindex>
							<clipindex>190</clipindex>
							<groupindex>1</groupindex>
						</link>
						<logginginfo>
							<description></description>
							<scene></scene>
							<shottake></shottake>
							<lognote></lognote>
						</logginginfo>
						<labels>
							<label2>Iris</label2>
						</labels>
					</clipitem>
					<clipitem id="clipitem-2519" premiereChannelType="stereo">
						<masterclipid>masterclip-117</masterclipid>
						<name>Applaus behersket et hoi.wav</name>
						<enabled>TRUE</enabled>
						<duration>159</duration>
						<rate>
							<timebase>25</timebase>
							<ntsc>FALSE</ntsc>
						</rate>
						<start>47274</start>
						<end>47327</end>
						<in>0</in>
						<out>53</out>
						<pproTicksIn>0</pproTicksIn>
						<pproTicksOut>538513920000</pproTicksOut>
						<file id="file-113">
							<name>Applaus behersket et hoi.wav</name>
							<pathurl>file://localhost/Volumes/Brakka/AdobeLager/QUIZ%20-%20brakka/RA%cc%8aSTOFF%20LYD/Publikumsreaksjoner/Fra%201990/Applaus%20behersket%20et%20hoi.wav</pathurl>
							<rate>
								<timebase>30</timebase>
								<ntsc>TRUE</ntsc>
							</rate>
							<duration>190</duration>
							<timecode>
								<rate>
									<timebase>30</timebase>
									<ntsc>TRUE</ntsc>
								</rate>
								<string>13;33;56;26</string>
								<frame>1463642</frame>
								<displayformat>DF</displayformat>
								<reel>
									<name></name>
								</reel>
							</timecode>
							<media>
								<audio>
									<samplecharacteristics>
										<depth>16</depth>
										<samplerate>48000</samplerate>
									</samplecharacteristics>
									<channelcount>2</channelcount>
								</audio>
							</media>
						</file>
						<sourcetrack>
							<mediatype>audio</mediatype>
							<trackindex>1</trackindex>
						</sourcetrack>
						<link>
							<linkclipref>clipitem-2519</linkclipref>
							<mediatype>audio</mediatype>
							<trackindex>17</trackindex>
							<clipindex>198</clipindex>
							<groupindex>1</groupindex>
						</link>
						<link>
							<linkclipref>clipitem-2689</linkclipref>
							<mediatype>audio</mediatype>
							<trackindex>18</trackindex>
							<clipindex>191</clipindex>
							<groupindex>1</groupindex>
						</link>
						<logginginfo>
							<description></description>
							<scene></scene>
							<shottake></shottake>
							<lognote></lognote>
						</logginginfo>
						<labels>
							<label2>Caribbean</label2>
						</labels>
					</clipitem>
					<clipitem id="clipitem-2520" premiereChannelType="stereo">
						<masterclipid>masterclip-117</masterclipid>
						<name>Applaus behersket et hoi.wav</name>
						<enabled>TRUE</enabled>
						<duration>159</duration>
						<rate>
							<timebase>25</timebase>
							<ntsc>FALSE</ntsc>
						</rate>
						<start>47327</start>
						<end>47380</end>
						<in>106</in>
						<out>159</out>
						<pproTicksIn>1077027840000</pproTicksIn>
						<pproTicksOut>1615541760000</pproTicksOut>
						<file id="file-113"/>
						<sourcetrack>
							<mediatype>audio</mediatype>
							<trackindex>1</trackindex>
						</sourcetrack>
						<link>
							<linkclipref>clipitem-2520</linkclipref>
							<mediatype>audio</mediatype>
							<trackindex>17</trackindex>
							<clipindex>199</clipindex>
							<groupindex>1</groupindex>
						</link>
						<link>
							<linkclipref>clipitem-2690</linkclipref>
							<mediatype>audio</mediatype>
							<trackindex>18</trackindex>
							<clipindex>192</clipindex>
							<groupindex>1</groupindex>
						</link>
						<logginginfo>
							<description></description>
							<scene></scene>
							<shottake></shottake>
							<lognote></lognote>
						</logginginfo>
						<labels>
							<label2>Caribbean</label2>
						</labels>
					</clipitem>
					<clipitem id="clipitem-2521" premiereChannelType="stereo">
						<masterclipid>masterclip-105</masterclipid>
						<name>Latter kort.wav</name>
						<enabled>TRUE</enabled>
						<duration>64</duration>
						<rate>
							<timebase>25</timebase>
							<ntsc>FALSE</ntsc>
						</rate>
						<start>47414</start>
						<end>47478</end>
						<in>0</in>
						<out>64</out>
						<pproTicksIn>0</pproTicksIn>
						<pproTicksOut>650280960000</pproTicksOut>
						<file id="file-101"/>
						<sourcetrack>
							<mediatype>audio</mediatype>
							<trackindex>1</trackindex>
						</sourcetrack>
						<link>
							<linkclipref>clipitem-2521</linkclipref>
							<mediatype>audio</mediatype>
							<trackindex>17</trackindex>
							<clipindex>200</clipindex>
							<groupindex>1</groupindex>
						</link>
						<link>
							<linkclipref>clipitem-2691</linkclipref>
							<mediatype>audio</mediatype>
							<trackindex>18</trackindex>
							<clipindex>193</clipindex>
							<groupindex>1</groupindex>
						</link>
						<logginginfo>
							<description></description>
							<scene></scene>
							<shottake></shottake>
							<lognote></lognote>
						</logginginfo>
						<labels>
							<label2>Caribbean</label2>
						</labels>
					</clipitem>
					<clipitem id="clipitem-2522" premiereChannelType="stereo">
						<masterclipid>masterclip-6</masterclipid>
						<name>NSPO30604105AA.mxf</name>
						<enabled>TRUE</enabled>
						<duration>89255</duration>
						<rate>
							<timebase>25</timebase>
							<ntsc>FALSE</ntsc>
						</rate>
						<start>47714</start>
						<end>-1</end>
						<in>36780</in>
						<out>37117</out>
						<pproTicksIn>373708339200000</pproTicksIn>
						<pproTicksOut>377132474880000</pproTicksOut>
						<file id="file-5"/>
						<sourcetrack>
							<mediatype>audio</mediatype>
							<trackindex>1</trackindex>
						</sourcetrack>
							<filter>
								<effect>
									<name>Audio Levels</name>
									<effectid>audiolevels</effectid>
									<effectcategory>audiolevels</effectcategory>
									<effecttype>audiolevels</effecttype>
									<mediatype>audio</mediatype>
									<parameter authoringApp="PremierePro">
										<parameterid>level</parameterid>
										<name>Level</name>
										<valuemin>0</valuemin>
										<valuemax>3.98109</valuemax>
										<value>0.792446</value>
									</parameter>
								</effect>
							</filter>
						<link>
							<linkclipref>clipitem-2522</linkclipref>
							<mediatype>audio</mediatype>
							<trackindex>17</trackindex>
							<clipindex>201</clipindex>
							<groupindex>1</groupindex>
						</link>
						<link>
							<linkclipref>clipitem-2692</linkclipref>
							<mediatype>audio</mediatype>
							<trackindex>18</trackindex>
							<clipindex>194</clipindex>
							<groupindex>1</groupindex>
						</link>
						<logginginfo>
							<description></description>
							<scene></scene>
							<shottake></shottake>
							<lognote></lognote>
						</logginginfo>
						<labels>
							<label2>Iris</label2>
						</labels>
					</clipitem>
					<transitionitem>
						<start>48043</start>
						<end>48051</end>
						<alignment>end-black</alignment>
						<cutPointTicks>81285120000</cutPointTicks>
						<rate>
							<timebase>25</timebase>
							<ntsc>FALSE</ntsc>
						</rate>
						<effect>
							<name>Cross Fade (+3dB)</name>
							<effectid>KGAudioTransCrossFade3dB</effectid>
							<effecttype>transition</effecttype>
							<mediatype>audio</mediatype>
							<wipecode>0</wipecode>
							<wipeaccuracy>100</wipeaccuracy>
							<startratio>0</startratio>
							<endratio>1</endratio>
							<reverse>FALSE</reverse>
						</effect>
					</transitionitem>
					<clipitem id="clipitem-2523" premiereChannelType="stereo">
						<masterclipid>masterclip-6</masterclipid>
						<name>NSPO30604105AA.mxf</name>
						<enabled>TRUE</enabled>
						<duration>89255</duration>
						<rate>
							<timebase>25</timebase>
							<ntsc>FALSE</ntsc>
						</rate>
						<start>48798</start>
						<end>-1</end>
						<in>36424</in>
						<out>36615</out>
						<pproTicksIn>370091151360000</pproTicksIn>
						<pproTicksOut>372031833600000</pproTicksOut>
						<file id="file-5"/>
						<sourcetrack>
							<mediatype>audio</mediatype>
							<trackindex>1</trackindex>
						</sourcetrack>
							<filter>
								<effect>
									<name>Audio Levels</name>
									<effectid>audiolevels</effectid>
									<effectcategory>audiolevels</effectcategory>
									<effecttype>audiolevels</effecttype>
									<mediatype>audio</mediatype>
									<parameter authoringApp="PremierePro">
										<parameterid>level</parameterid>
										<name>Level</name>
										<valuemin>0</valuemin>
										<valuemax>3.98109</valuemax>
										<value>0.499999</value>
									</parameter>
								</effect>
							</filter>
						<link>
							<linkclipref>clipitem-2523</linkclipref>
							<mediatype>audio</mediatype>
							<trackindex>17</trackindex>
							<clipindex>203</clipindex>
							<groupindex>1</groupindex>
						</link>
						<link>
							<linkclipref>clipitem-2693</linkclipref>
							<mediatype>audio</mediatype>
							<trackindex>18</trackindex>
							<clipindex>196</clipindex>
							<groupindex>1</groupindex>
						</link>
						<logginginfo>
							<description></description>
							<scene></scene>
							<shottake></shottake>
							<lognote></lognote>
						</logginginfo>
						<labels>
							<label2>Iris</label2>
						</labels>
					</clipitem>
					<transitionitem>
						<start>48976</start>
						<end>48989</end>
						<alignment>center</alignment>
						<cutPointTicks>60963840000</cutPointTicks>
						<rate>
							<timebase>25</timebase>
							<ntsc>FALSE</ntsc>
						</rate>
						<effect>
							<name>Cross Fade (+3dB)</name>
							<effectid>KGAudioTransCrossFade3dB</effectid>
							<effecttype>transition</effecttype>
							<mediatype>audio</mediatype>
							<wipecode>0</wipecode>
							<wipeaccuracy>100</wipeaccuracy>
							<startratio>0</startratio>
							<endratio>1</endratio>
							<reverse>FALSE</reverse>
						</effect>
					</transitionitem>
					<clipitem id="clipitem-2524" premiereChannelType="stereo">
						<masterclipid>masterclip-6</masterclipid>
						<name>NSPO30604105AA.mxf</name>
						<enabled>TRUE</enabled>
						<duration>89255</duration>
						<rate>
							<timebase>25</timebase>
							<ntsc>FALSE</ntsc>
						</rate>
						<start>-1</start>
						<end>-1</end>
						<in>37477</in>
						<out>37585</out>
						<pproTicksIn>380790305280000</pproTicksIn>
						<pproTicksOut>381887654400000</pproTicksOut>
						<file id="file-5"/>
						<sourcetrack>
							<mediatype>audio</mediatype>
							<trackindex>1</trackindex>
						</sourcetrack>
							<filter>
								<effect>
									<name>Audio Levels</name>
									<effectid>audiolevels</effectid>
									<effectcategory>audiolevels</effectcategory>
									<effecttype>audiolevels</effecttype>
									<mediatype>audio</mediatype>
									<parameter authoringApp="PremierePro">
										<parameterid>level</parameterid>
										<name>Level</name>
										<valuemin>0</valuemin>
										<valuemax>3.98109</valuemax>
										<value>0.499999</value>
									</parameter>
								</effect>
							</filter>
						<link>
							<linkclipref>clipitem-2524</linkclipref>
							<mediatype>audio</mediatype>
							<trackindex>17</trackindex>
							<clipindex>205</clipindex>
							<groupindex>1</groupindex>
						</link>
						<link>
							<linkclipref>clipitem-2694</linkclipref>
							<mediatype>audio</mediatype>
							<trackindex>18</trackindex>
							<clipindex>198</clipindex>
							<groupindex>1</groupindex>
						</link>
						<logginginfo>
							<description></description>
							<scene></scene>
							<shottake></shottake>
							<lognote></lognote>
						</logginginfo>
						<labels>
							<label2>Iris</label2>
						</labels>
					</clipitem>
					<transitionitem>
						<start>49076</start>
						<end>49084</end>
						<alignment>center</alignment>
						<cutPointTicks>40642560000</cutPointTicks>
						<rate>
							<timebase>25</timebase>
							<ntsc>FALSE</ntsc>
						</rate>
						<effect>
							<name>Cross Fade (+3dB)</name>
							<effectid>KGAudioTransCrossFade3dB</effectid>
							<effecttype>transition</effecttype>
							<mediatype>audio</mediatype>
							<wipecode>0</wipecode>
							<wipeaccuracy>100</wipeaccuracy>
							<startratio>0</startratio>
							<endratio>1</endratio>
							<reverse>FALSE</reverse>
						</effect>
					</transitionitem>
					<clipitem id="clipitem-2525" premiereChannelType="stereo">
						<masterclipid>masterclip-6</masterclipid>
						<name>NSPO30604105AA.mxf</name>
						<enabled>TRUE</enabled>
						<duration>89255</duration>
						<rate>
							<timebase>25</timebase>
							<ntsc>FALSE</ntsc>
						</rate>
						<start>-1</start>
						<end>49322</end>
						<in>37700</in>
						<out>37946</out>
						<pproTicksIn>383056128000000</pproTicksIn>
						<pproTicksOut>385555645440000</pproTicksOut>
						<file id="file-5"/>
						<sourcetrack>
							<mediatype>audio</mediatype>
							<trackindex>1</trackindex>
						</sourcetrack>
							<filter>
								<effect>
									<name>Audio Levels</name>
									<effectid>audiolevels</effectid>
									<effectcategory>audiolevels</effectcategory>
									<effecttype>audiolevels</effecttype>
									<mediatype>audio</mediatype>
									<parameter authoringApp="PremierePro">
										<parameterid>level</parameterid>
										<name>Level</name>
										<valuemin>0</valuemin>
										<valuemax>3.98109</valuemax>
										<value>0.499999</value>
									</parameter>
								</effect>
							</filter>
						<link>
							<linkclipref>clipitem-2525</linkclipref>
							<mediatype>audio</mediatype>
							<trackindex>17</trackindex>
							<clipindex>207</clipindex>
							<groupindex>1</groupindex>
						</link>
						<link>
							<linkclipref>clipitem-2695</linkclipref>
							<mediatype>audio</mediatype>
							<trackindex>18</trackindex>
							<clipindex>200</clipindex>
							<groupindex>1</groupindex>
						</link>
						<logginginfo>
							<description></description>
							<scene></scene>
							<shottake></shottake>
							<lognote></lognote>
						</logginginfo>
						<labels>
							<label2>Iris</label2>
						</labels>
					</clipitem>
					<clipitem id="clipitem-2526" premiereChannelType="stereo">
						<masterclipid>masterclip-6</masterclipid>
						<name>NSPO30604105AA.mxf</name>
						<enabled>TRUE</enabled>
						<duration>89255</duration>
						<rate>
							<timebase>25</timebase>
							<ntsc>FALSE</ntsc>
						</rate>
						<start>49322</start>
						<end>-1</end>
						<in>38101</in>
						<out>38248</out>
						<pproTicksIn>387130544640000</pproTicksIn>
						<pproTicksOut>388624158720000</pproTicksOut>
						<file id="file-5"/>
						<sourcetrack>
							<mediatype>audio</mediatype>
							<trackindex>1</trackindex>
						</sourcetrack>
							<filter>
								<effect>
									<name>Audio Levels</name>
									<effectid>audiolevels</effectid>
									<effectcategory>audiolevels</effectcategory>
									<effecttype>audiolevels</effecttype>
									<mediatype>audio</mediatype>
									<parameter authoringApp="PremierePro">
										<parameterid>level</parameterid>
										<name>Level</name>
										<valuemin>0</valuemin>
										<valuemax>3.98109</valuemax>
										<value>0.499999</value>
									</parameter>
								</effect>
							</filter>
						<link>
							<linkclipref>clipitem-2526</linkclipref>
							<mediatype>audio</mediatype>
							<trackindex>17</trackindex>
							<clipindex>208</clipindex>
							<groupindex>1</groupindex>
						</link>
						<link>
							<linkclipref>clipitem-2696</linkclipref>
							<mediatype>audio</mediatype>
							<trackindex>18</trackindex>
							<clipindex>201</clipindex>
							<groupindex>1</groupindex>
						</link>
						<logginginfo>
							<description></description>
							<scene></scene>
							<shottake></shottake>
							<lognote></lognote>
						</logginginfo>
						<labels>
							<label2>Iris</label2>
						</labels>
					</clipitem>
					<transitionitem>
						<start>49461</start>
						<end>49469</end>
						<alignment>end-black</alignment>
						<cutPointTicks>81285120000</cutPointTicks>
						<rate>
							<timebase>25</timebase>
							<ntsc>FALSE</ntsc>
						</rate>
						<effect>
							<name>Cross Fade (+3dB)</name>
							<effectid>KGAudioTransCrossFade3dB</effectid>
							<effecttype>transition</effecttype>
							<mediatype>audio</mediatype>
							<wipecode>0</wipecode>
							<wipeaccuracy>100</wipeaccuracy>
							<startratio>0</startratio>
							<endratio>1</endratio>
							<reverse>FALSE</reverse>
						</effect>
					</transitionitem>
					<clipitem id="clipitem-2527" premiereChannelType="stereo">
						<masterclipid>masterclip-48</masterclipid>
						<name>tidsbonanza_bumper_hurtigrunden (1).mov</name>
						<enabled>TRUE</enabled>
						<duration>195</duration>
						<rate>
							<timebase>25</timebase>
							<ntsc>FALSE</ntsc>
						</rate>
						<start>49762</start>
						<end>49957</end>
						<in>0</in>
						<out>195</out>
						<pproTicksIn>0</pproTicksIn>
						<pproTicksOut>1981324800000</pproTicksOut>
						<file id="file-44"/>
						<sourcetrack>
							<mediatype>audio</mediatype>
							<trackindex>1</trackindex>
						</sourcetrack>
						<link>
							<linkclipref>clipitem-2527</linkclipref>
							<mediatype>audio</mediatype>
							<trackindex>17</trackindex>
							<clipindex>210</clipindex>
							<groupindex>1</groupindex>
						</link>
						<link>
							<linkclipref>clipitem-2697</linkclipref>
							<mediatype>audio</mediatype>
							<trackindex>18</trackindex>
							<clipindex>203</clipindex>
							<groupindex>1</groupindex>
						</link>
						<logginginfo>
							<description></description>
							<scene></scene>
							<shottake></shottake>
							<lognote></lognote>
						</logginginfo>
						<labels>
							<label2>Iris</label2>
						</labels>
					</clipitem>
					<clipitem id="clipitem-2528" premiereChannelType="stereo">
						<masterclipid>masterclip-118</masterclipid>
						<name>Kort spredt latter.wav</name>
						<enabled>TRUE</enabled>
						<duration>64</duration>
						<rate>
							<timebase>25</timebase>
							<ntsc>FALSE</ntsc>
						</rate>
						<start>50213</start>
						<end>50277</end>
						<in>0</in>
						<out>64</out>
						<pproTicksIn>0</pproTicksIn>
						<pproTicksOut>650280960000</pproTicksOut>
						<file id="file-114">
							<name>Kort spredt latter.wav</name>
							<pathurl>file://localhost/Volumes/Brakka/AdobeLager/QUIZ%20-%20brakka/RA%cc%8aSTOFF%20LYD/Publikumsreaksjoner/Fra%201994/Kort%20spredt%20latter.wav</pathurl>
							<rate>
								<timebase>30</timebase>
								<ntsc>TRUE</ntsc>
							</rate>
							<duration>77</duration>
							<timecode>
								<rate>
									<timebase>30</timebase>
									<ntsc>TRUE</ntsc>
								</rate>
								<string>13;24;59;17</string>
								<frame>1447539</frame>
								<displayformat>DF</displayformat>
								<reel>
									<name></name>
								</reel>
							</timecode>
							<media>
								<audio>
									<samplecharacteristics>
										<depth>16</depth>
										<samplerate>48000</samplerate>
									</samplecharacteristics>
									<channelcount>2</channelcount>
								</audio>
							</media>
						</file>
						<sourcetrack>
							<mediatype>audio</mediatype>
							<trackindex>1</trackindex>
						</sourcetrack>
						<link>
							<linkclipref>clipitem-2528</linkclipref>
							<mediatype>audio</mediatype>
							<trackindex>17</trackindex>
							<clipindex>211</clipindex>
							<groupindex>1</groupindex>
						</link>
						<link>
							<linkclipref>clipitem-2698</linkclipref>
							<mediatype>audio</mediatype>
							<trackindex>18</trackindex>
							<clipindex>204</clipindex>
							<groupindex>1</groupindex>
						</link>
						<logginginfo>
							<description></description>
							<scene></scene>
							<shottake></shottake>
							<lognote></lognote>
						</logginginfo>
						<labels>
							<label2>Caribbean</label2>
						</labels>
					</clipitem>
					<clipitem id="clipitem-2529" premiereChannelType="stereo">
						<masterclipid>masterclip-98</masterclipid>
						<name>Noen få ler kort.wav</name>
						<enabled>TRUE</enabled>
						<duration>43</duration>
						<rate>
							<timebase>25</timebase>
							<ntsc>FALSE</ntsc>
						</rate>
						<start>50375</start>
						<end>50418</end>
						<in>0</in>
						<out>43</out>
						<pproTicksIn>0</pproTicksIn>
						<pproTicksOut>436907520000</pproTicksOut>
						<file id="file-94"/>
						<sourcetrack>
							<mediatype>audio</mediatype>
							<trackindex>1</trackindex>
						</sourcetrack>
						<link>
							<linkclipref>clipitem-2529</linkclipref>
							<mediatype>audio</mediatype>
							<trackindex>17</trackindex>
							<clipindex>212</clipindex>
							<groupindex>1</groupindex>
						</link>
						<link>
							<linkclipref>clipitem-2699</linkclipref>
							<mediatype>audio</mediatype>
							<trackindex>18</trackindex>
							<clipindex>205</clipindex>
							<groupindex>1</groupindex>
						</link>
						<logginginfo>
							<description></description>
							<scene></scene>
							<shottake></shottake>
							<lognote></lognote>
						</logginginfo>
						<labels>
							<label2>Caribbean</label2>
						</labels>
					</clipitem>
					<clipitem id="clipitem-2530" premiereChannelType="stereo">
						<masterclipid>masterclip-119</masterclipid>
						<name>Apollo_DIN_47_4__Place-Your-Bets-__Alexander-Seth-Weinstein-Shenandi.mp3</name>
						<enabled>TRUE</enabled>
						<duration>813</duration>
						<rate>
							<timebase>25</timebase>
							<ntsc>FALSE</ntsc>
						</rate>
						<start>51031</start>
						<end>51359</end>
						<in>0</in>
						<out>328</out>
						<pproTicksIn>0</pproTicksIn>
						<pproTicksOut>3332689920000</pproTicksOut>
						<file id="file-115">
							<name>Apollo_DIN_47_4__Place-Your-Bets-__Alexander-Seth-Weinstein-Shenandi.mp3</name>
							<pathurl>file://localhost/Volumes/brakka/AdobeLager/QUIZ%20-%20brakka/Musikk/Apollo/Hurtigrunden/Apollo_DIN_47_4__Place-Your-Bets-__Alexander-Seth-Weinstein-Shenandi.mp3</pathurl>
							<rate>
								<timebase>30</timebase>
								<ntsc>TRUE</ntsc>
							</rate>
							<duration>974</duration>
							<timecode>
								<rate>
									<timebase>30</timebase>
									<ntsc>TRUE</ntsc>
								</rate>
								<string>00;00;00;00</string>
								<frame>0</frame>
								<displayformat>DF</displayformat>
								<reel>
									<name></name>
								</reel>
							</timecode>
							<media>
								<audio>
									<samplecharacteristics>
										<depth>16</depth>
										<samplerate>44100</samplerate>
									</samplecharacteristics>
									<channelcount>2</channelcount>
								</audio>
							</media>
						</file>
						<sourcetrack>
							<mediatype>audio</mediatype>
							<trackindex>1</trackindex>
						</sourcetrack>
							<filter>
								<effect>
									<name>Audio Levels</name>
									<effectid>audiolevels</effectid>
									<effectcategory>audiolevels</effectcategory>
									<effecttype>audiolevels</effecttype>
									<mediatype>audio</mediatype>
									<parameter authoringApp="PremierePro">
										<parameterid>level</parameterid>
										<name>Level</name>
										<valuemin>0</valuemin>
										<valuemax>3.98109</valuemax>
										<value>0.28117</value>
									</parameter>
								</effect>
							</filter>
						<link>
							<linkclipref>clipitem-2530</linkclipref>
							<mediatype>audio</mediatype>
							<trackindex>17</trackindex>
							<clipindex>213</clipindex>
							<groupindex>1</groupindex>
						</link>
						<link>
							<linkclipref>clipitem-2700</linkclipref>
							<mediatype>audio</mediatype>
							<trackindex>18</trackindex>
							<clipindex>206</clipindex>
							<groupindex>1</groupindex>
						</link>
						<logginginfo>
							<description></description>
							<scene></scene>
							<shottake></shottake>
							<lognote></lognote>
						</logginginfo>
						<labels>
							<label2>Caribbean</label2>
						</labels>
					</clipitem>
					<clipitem id="clipitem-2531" premiereChannelType="stereo">
						<masterclipid>masterclip-119</masterclipid>
						<name>Apollo_DIN_47_4__Place-Your-Bets-__Alexander-Seth-Weinstein-Shenandi.mp3</name>
						<enabled>TRUE</enabled>
						<duration>813</duration>
						<rate>
							<timebase>25</timebase>
							<ntsc>FALSE</ntsc>
						</rate>
						<start>51359</start>
						<end>51483</end>
						<in>103</in>
						<out>227</out>
						<pproTicksIn>1046545920000</pproTicksIn>
						<pproTicksOut>2306465280000</pproTicksOut>
						<file id="file-115"/>
						<sourcetrack>
							<mediatype>audio</mediatype>
							<trackindex>1</trackindex>
						</sourcetrack>
							<filter>
								<effect>
									<name>Audio Levels</name>
									<effectid>audiolevels</effectid>
									<effectcategory>audiolevels</effectcategory>
									<effecttype>audiolevels</effecttype>
									<mediatype>audio</mediatype>
									<parameter authoringApp="PremierePro">
										<parameterid>level</parameterid>
										<name>Level</name>
										<valuemin>0</valuemin>
										<valuemax>3.98109</valuemax>
										<value>0.28117</value>
									</parameter>
								</effect>
							</filter>
						<link>
							<linkclipref>clipitem-2531</linkclipref>
							<mediatype>audio</mediatype>
							<trackindex>17</trackindex>
							<clipindex>214</clipindex>
							<groupindex>1</groupindex>
						</link>
						<link>
							<linkclipref>clipitem-2701</linkclipref>
							<mediatype>audio</mediatype>
							<trackindex>18</trackindex>
							<clipindex>207</clipindex>
							<groupindex>1</groupindex>
						</link>
						<logginginfo>
							<description></description>
							<scene></scene>
							<shottake></shottake>
							<lognote></lognote>
						</logginginfo>
						<labels>
							<label2>Caribbean</label2>
						</labels>
					</clipitem>
					<clipitem id="clipitem-2532" premiereChannelType="stereo">
						<masterclipid>masterclip-119</masterclipid>
						<name>Apollo_DIN_47_4__Place-Your-Bets-__Alexander-Seth-Weinstein-Shenandi.mp3</name>
						<enabled>TRUE</enabled>
						<duration>813</duration>
						<rate>
							<timebase>25</timebase>
							<ntsc>FALSE</ntsc>
						</rate>
						<start>51483</start>
						<end>51533</end>
						<in>227</in>
						<out>277</out>
						<pproTicksIn>2306465280000</pproTicksIn>
						<pproTicksOut>2814497280000</pproTicksOut>
						<file id="file-115"/>
						<sourcetrack>
							<mediatype>audio</mediatype>
							<trackindex>1</trackindex>
						</sourcetrack>
							<filter>
								<effect>
									<name>Audio Levels</name>
									<effectid>audiolevels</effectid>
									<effectcategory>audiolevels</effectcategory>
									<effecttype>audiolevels</effecttype>
									<mediatype>audio</mediatype>
									<parameter authoringApp="PremierePro">
										<parameterid>level</parameterid>
										<name>Level</name>
										<valuemin>0</valuemin>
										<valuemax>3.98109</valuemax>
										<value>0.28117</value>
									</parameter>
								</effect>
							</filter>
						<link>
							<linkclipref>clipitem-2532</linkclipref>
							<mediatype>audio</mediatype>
							<trackindex>17</trackindex>
							<clipindex>215</clipindex>
							<groupindex>1</groupindex>
						</link>
						<link>
							<linkclipref>clipitem-2702</linkclipref>
							<mediatype>audio</mediatype>
							<trackindex>18</trackindex>
							<clipindex>208</clipindex>
							<groupindex>1</groupindex>
						</link>
						<logginginfo>
							<description></description>
							<scene></scene>
							<shottake></shottake>
							<lognote></lognote>
						</logginginfo>
						<labels>
							<label2>Caribbean</label2>
						</labels>
					</clipitem>
					<clipitem id="clipitem-2533" premiereChannelType="stereo">
						<masterclipid>masterclip-119</masterclipid>
						<name>Apollo_DIN_47_4__Place-Your-Bets-__Alexander-Seth-Weinstein-Shenandi.mp3</name>
						<enabled>TRUE</enabled>
						<duration>813</duration>
						<rate>
							<timebase>25</timebase>
							<ntsc>FALSE</ntsc>
						</rate>
						<start>51533</start>
						<end>51634</end>
						<in>227</in>
						<out>328</out>
						<pproTicksIn>2306465280000</pproTicksIn>
						<pproTicksOut>3332689920000</pproTicksOut>
						<file id="file-115"/>
						<sourcetrack>
							<mediatype>audio</mediatype>
							<trackindex>1</trackindex>
						</sourcetrack>
							<filter>
								<effect>
									<name>Audio Levels</name>
									<effectid>audiolevels</effectid>
									<effectcategory>audiolevels</effectcategory>
									<effecttype>audiolevels</effecttype>
									<mediatype>audio</mediatype>
									<parameter authoringApp="PremierePro">
										<parameterid>level</parameterid>
										<name>Level</name>
										<valuemin>0</valuemin>
										<valuemax>3.98109</valuemax>
										<value>0.28117</value>
									</parameter>
								</effect>
							</filter>
						<link>
							<linkclipref>clipitem-2533</linkclipref>
							<mediatype>audio</mediatype>
							<trackindex>17</trackindex>
							<clipindex>216</clipindex>
							<groupindex>1</groupindex>
						</link>
						<link>
							<linkclipref>clipitem-2703</linkclipref>
							<mediatype>audio</mediatype>
							<trackindex>18</trackindex>
							<clipindex>209</clipindex>
							<groupindex>1</groupindex>
						</link>
						<logginginfo>
							<description></description>
							<scene></scene>
							<shottake></shottake>
							<lognote></lognote>
						</logginginfo>
						<labels>
							<label2>Caribbean</label2>
						</labels>
					</clipitem>
					<clipitem id="clipitem-2534" premiereChannelType="stereo">
						<masterclipid>masterclip-119</masterclipid>
						<name>Apollo_DIN_47_4__Place-Your-Bets-__Alexander-Seth-Weinstein-Shenandi.mp3</name>
						<enabled>TRUE</enabled>
						<duration>813</duration>
						<rate>
							<timebase>25</timebase>
							<ntsc>FALSE</ntsc>
						</rate>
						<start>51634</start>
						<end>51859</end>
						<in>103</in>
						<out>328</out>
						<pproTicksIn>1046545920000</pproTicksIn>
						<pproTicksOut>3332689920000</pproTicksOut>
						<file id="file-115"/>
						<sourcetrack>
							<mediatype>audio</mediatype>
							<trackindex>1</trackindex>
						</sourcetrack>
							<filter>
								<effect>
									<name>Audio Levels</name>
									<effectid>audiolevels</effectid>
									<effectcategory>audiolevels</effectcategory>
									<effecttype>audiolevels</effecttype>
									<mediatype>audio</mediatype>
									<parameter authoringApp="PremierePro">
										<parameterid>level</parameterid>
										<name>Level</name>
										<valuemin>0</valuemin>
										<valuemax>3.98109</valuemax>
										<value>0.28117</value>
									</parameter>
								</effect>
							</filter>
						<link>
							<linkclipref>clipitem-2534</linkclipref>
							<mediatype>audio</mediatype>
							<trackindex>17</trackindex>
							<clipindex>217</clipindex>
							<groupindex>1</groupindex>
						</link>
						<link>
							<linkclipref>clipitem-2704</linkclipref>
							<mediatype>audio</mediatype>
							<trackindex>18</trackindex>
							<clipindex>210</clipindex>
							<groupindex>1</groupindex>
						</link>
						<logginginfo>
							<description></description>
							<scene></scene>
							<shottake></shottake>
							<lognote></lognote>
						</logginginfo>
						<labels>
							<label2>Caribbean</label2>
						</labels>
					</clipitem>
					<clipitem id="clipitem-2535" premiereChannelType="stereo">
						<masterclipid>masterclip-119</masterclipid>
						<name>Apollo_DIN_47_4__Place-Your-Bets-__Alexander-Seth-Weinstein-Shenandi.mp3</name>
						<enabled>TRUE</enabled>
						<duration>813</duration>
						<rate>
							<timebase>25</timebase>
							<ntsc>FALSE</ntsc>
						</rate>
						<start>51859</start>
						<end>52084</end>
						<in>103</in>
						<out>328</out>
						<pproTicksIn>1046545920000</pproTicksIn>
						<pproTicksOut>3332689920000</pproTicksOut>
						<file id="file-115"/>
						<sourcetrack>
							<mediatype>audio</mediatype>
							<trackindex>1</trackindex>
						</sourcetrack>
							<filter>
								<effect>
									<name>Audio Levels</name>
									<effectid>audiolevels</effectid>
									<effectcategory>audiolevels</effectcategory>
									<effecttype>audiolevels</effecttype>
									<mediatype>audio</mediatype>
									<parameter authoringApp="PremierePro">
										<parameterid>level</parameterid>
										<name>Level</name>
										<valuemin>0</valuemin>
										<valuemax>3.98109</valuemax>
										<value>0.28117</value>
									</parameter>
								</effect>
							</filter>
						<link>
							<linkclipref>clipitem-2535</linkclipref>
							<mediatype>audio</mediatype>
							<trackindex>17</trackindex>
							<clipindex>218</clipindex>
							<groupindex>1</groupindex>
						</link>
						<link>
							<linkclipref>clipitem-2705</linkclipref>
							<mediatype>audio</mediatype>
							<trackindex>18</trackindex>
							<clipindex>211</clipindex>
							<groupindex>1</groupindex>
						</link>
						<logginginfo>
							<description></description>
							<scene></scene>
							<shottake></shottake>
							<lognote></lognote>
						</logginginfo>
						<labels>
							<label2>Caribbean</label2>
						</labels>
					</clipitem>
					<clipitem id="clipitem-2536" premiereChannelType="stereo">
						<masterclipid>masterclip-119</masterclipid>
						<name>Apollo_DIN_47_4__Place-Your-Bets-__Alexander-Seth-Weinstein-Shenandi.mp3</name>
						<enabled>TRUE</enabled>
						<duration>813</duration>
						<rate>
							<timebase>25</timebase>
							<ntsc>FALSE</ntsc>
						</rate>
						<start>52084</start>
						<end>52569</end>
						<in>328</in>
						<out>813</out>
						<pproTicksIn>3332689920000</pproTicksIn>
						<pproTicksOut>8260600320000</pproTicksOut>
						<file id="file-115"/>
						<sourcetrack>
							<mediatype>audio</mediatype>
							<trackindex>1</trackindex>
						</sourcetrack>
							<filter>
								<effect>
									<name>Audio Levels</name>
									<effectid>audiolevels</effectid>
									<effectcategory>audiolevels</effectcategory>
									<effecttype>audiolevels</effecttype>
									<mediatype>audio</mediatype>
									<parameter authoringApp="PremierePro">
										<parameterid>level</parameterid>
										<name>Level</name>
										<valuemin>0</valuemin>
										<valuemax>3.98109</valuemax>
										<value>0.28117</value>
									</parameter>
								</effect>
							</filter>
						<link>
							<linkclipref>clipitem-2536</linkclipref>
							<mediatype>audio</mediatype>
							<trackindex>17</trackindex>
							<clipindex>219</clipindex>
							<groupindex>1</groupindex>
						</link>
						<link>
							<linkclipref>clipitem-2706</linkclipref>
							<mediatype>audio</mediatype>
							<trackindex>18</trackindex>
							<clipindex>212</clipindex>
							<groupindex>1</groupindex>
						</link>
						<logginginfo>
							<description></description>
							<scene></scene>
							<shottake></shottake>
							<lognote></lognote>
						</logginginfo>
						<labels>
							<label2>Caribbean</label2>
						</labels>
					</clipitem>
					<clipitem id="clipitem-2537" premiereChannelType="stereo">
						<masterclipid>masterclip-112</masterclipid>
						<name>Latter uryddig med litt applaus 9sek.wav</name>
						<enabled>TRUE</enabled>
						<duration>234</duration>
						<rate>
							<timebase>25</timebase>
							<ntsc>FALSE</ntsc>
						</rate>
						<start>53434</start>
						<end>53659</end>
						<in>9</in>
						<out>234</out>
						<pproTicksIn>91445760000</pproTicksIn>
						<pproTicksOut>2377589760000</pproTicksOut>
						<file id="file-108"/>
						<sourcetrack>
							<mediatype>audio</mediatype>
							<trackindex>1</trackindex>
						</sourcetrack>
							<filter>
								<effect>
									<name>Audio Levels</name>
									<effectid>audiolevels</effectid>
									<effectcategory>audiolevels</effectcategory>
									<effecttype>audiolevels</effecttype>
									<mediatype>audio</mediatype>
									<parameter authoringApp="PremierePro">
										<parameterid>level</parameterid>
										<name>Level</name>
										<valuemin>0</valuemin>
										<valuemax>3.98109</valuemax>
										<value>1.17113</value>
									</parameter>
								</effect>
							</filter>
						<link>
							<linkclipref>clipitem-2537</linkclipref>
							<mediatype>audio</mediatype>
							<trackindex>17</trackindex>
							<clipindex>220</clipindex>
							<groupindex>1</groupindex>
						</link>
						<link>
							<linkclipref>clipitem-2707</linkclipref>
							<mediatype>audio</mediatype>
							<trackindex>18</trackindex>
							<clipindex>213</clipindex>
							<groupindex>1</groupindex>
						</link>
						<logginginfo>
							<description></description>
							<scene></scene>
							<shottake></shottake>
							<lognote></lognote>
						</logginginfo>
						<labels>
							<label2>Caribbean</label2>
						</labels>
					</clipitem>
					<clipitem id="clipitem-2538" premiereChannelType="stereo">
						<masterclipid>masterclip-119</masterclipid>
						<name>Apollo_DIN_47_4__Place-Your-Bets-__Alexander-Seth-Weinstein-Shenandi.mp3</name>
						<enabled>TRUE</enabled>
						<duration>813</duration>
						<rate>
							<timebase>25</timebase>
							<ntsc>FALSE</ntsc>
						</rate>
						<start>53841</start>
						<end>54169</end>
						<in>0</in>
						<out>328</out>
						<pproTicksIn>0</pproTicksIn>
						<pproTicksOut>3332689920000</pproTicksOut>
						<file id="file-115"/>
						<sourcetrack>
							<mediatype>audio</mediatype>
							<trackindex>1</trackindex>
						</sourcetrack>
							<filter>
								<effect>
									<name>Audio Levels</name>
									<effectid>audiolevels</effectid>
									<effectcategory>audiolevels</effectcategory>
									<effecttype>audiolevels</effecttype>
									<mediatype>audio</mediatype>
									<parameter authoringApp="PremierePro">
										<parameterid>level</parameterid>
										<name>Level</name>
										<valuemin>0</valuemin>
										<valuemax>3.98109</valuemax>
										<value>0.28117</value>
									</parameter>
								</effect>
							</filter>
						<link>
							<linkclipref>clipitem-2538</linkclipref>
							<mediatype>audio</mediatype>
							<trackindex>17</trackindex>
							<clipindex>221</clipindex>
							<groupindex>1</groupindex>
						</link>
						<link>
							<linkclipref>clipitem-2708</linkclipref>
							<mediatype>audio</mediatype>
							<trackindex>18</trackindex>
							<clipindex>214</clipindex>
							<groupindex>1</groupindex>
						</link>
						<logginginfo>
							<description></description>
							<scene></scene>
							<shottake></shottake>
							<lognote></lognote>
						</logginginfo>
						<labels>
							<label2>Caribbean</label2>
						</labels>
					</clipitem>
					<clipitem id="clipitem-2539" premiereChannelType="stereo">
						<masterclipid>masterclip-119</masterclipid>
						<name>Apollo_DIN_47_4__Place-Your-Bets-__Alexander-Seth-Weinstein-Shenandi.mp3</name>
						<enabled>TRUE</enabled>
						<duration>813</duration>
						<rate>
							<timebase>25</timebase>
							<ntsc>FALSE</ntsc>
						</rate>
						<start>54169</start>
						<end>54293</end>
						<in>103</in>
						<out>227</out>
						<pproTicksIn>1046545920000</pproTicksIn>
						<pproTicksOut>2306465280000</pproTicksOut>
						<file id="file-115"/>
						<sourcetrack>
							<mediatype>audio</mediatype>
							<trackindex>1</trackindex>
						</sourcetrack>
							<filter>
								<effect>
									<name>Audio Levels</name>
									<effectid>audiolevels</effectid>
									<effectcategory>audiolevels</effectcategory>
									<effecttype>audiolevels</effecttype>
									<mediatype>audio</mediatype>
									<parameter authoringApp="PremierePro">
										<parameterid>level</parameterid>
										<name>Level</name>
										<valuemin>0</valuemin>
										<valuemax>3.98109</valuemax>
										<value>0.28117</value>
									</parameter>
								</effect>
							</filter>
						<link>
							<linkclipref>clipitem-2539</linkclipref>
							<mediatype>audio</mediatype>
							<trackindex>17</trackindex>
							<clipindex>222</clipindex>
							<groupindex>1</groupindex>
						</link>
						<link>
							<linkclipref>clipitem-2709</linkclipref>
							<mediatype>audio</mediatype>
							<trackindex>18</trackindex>
							<clipindex>215</clipindex>
							<groupindex>1</groupindex>
						</link>
						<logginginfo>
							<description></description>
							<scene></scene>
							<shottake></shottake>
							<lognote></lognote>
						</logginginfo>
						<labels>
							<label2>Caribbean</label2>
						</labels>
					</clipitem>
					<clipitem id="clipitem-2540" premiereChannelType="stereo">
						<masterclipid>masterclip-119</masterclipid>
						<name>Apollo_DIN_47_4__Place-Your-Bets-__Alexander-Seth-Weinstein-Shenandi.mp3</name>
						<enabled>TRUE</enabled>
						<duration>813</duration>
						<rate>
							<timebase>25</timebase>
							<ntsc>FALSE</ntsc>
						</rate>
						<start>54293</start>
						<end>54343</end>
						<in>227</in>
						<out>277</out>
						<pproTicksIn>2306465280000</pproTicksIn>
						<pproTicksOut>2814497280000</pproTicksOut>
						<file id="file-115"/>
						<sourcetrack>
							<mediatype>audio</mediatype>
							<trackindex>1</trackindex>
						</sourcetrack>
							<filter>
								<effect>
									<name>Audio Levels</name>
									<effectid>audiolevels</effectid>
									<effectcategory>audiolevels</effectcategory>
									<effecttype>audiolevels</effecttype>
									<mediatype>audio</mediatype>
									<parameter authoringApp="PremierePro">
										<parameterid>level</parameterid>
										<name>Level</name>
										<valuemin>0</valuemin>
										<valuemax>3.98109</valuemax>
										<value>0.28117</value>
									</parameter>
								</effect>
							</filter>
						<link>
							<linkclipref>clipitem-2540</linkclipref>
							<mediatype>audio</mediatype>
							<trackindex>17</trackindex>
							<clipindex>223</clipindex>
							<groupindex>1</groupindex>
						</link>
						<link>
							<linkclipref>clipitem-2710</linkclipref>
							<mediatype>audio</mediatype>
							<trackindex>18</trackindex>
							<clipindex>216</clipindex>
							<groupindex>1</groupindex>
						</link>
						<logginginfo>
							<description></description>
							<scene></scene>
							<shottake></shottake>
							<lognote></lognote>
						</logginginfo>
						<labels>
							<label2>Caribbean</label2>
						</labels>
					</clipitem>
					<clipitem id="clipitem-2541" premiereChannelType="stereo">
						<masterclipid>masterclip-119</masterclipid>
						<name>Apollo_DIN_47_4__Place-Your-Bets-__Alexander-Seth-Weinstein-Shenandi.mp3</name>
						<enabled>TRUE</enabled>
						<duration>813</duration>
						<rate>
							<timebase>25</timebase>
							<ntsc>FALSE</ntsc>
						</rate>
						<start>54343</start>
						<end>54444</end>
						<in>227</in>
						<out>328</out>
						<pproTicksIn>2306465280000</pproTicksIn>
						<pproTicksOut>3332689920000</pproTicksOut>
						<file id="file-115"/>
						<sourcetrack>
							<mediatype>audio</mediatype>
							<trackindex>1</trackindex>
						</sourcetrack>
							<filter>
								<effect>
									<name>Audio Levels</name>
									<effectid>audiolevels</effectid>
									<effectcategory>audiolevels</effectcategory>
									<effecttype>audiolevels</effecttype>
									<mediatype>audio</mediatype>
									<parameter authoringApp="PremierePro">
										<parameterid>level</parameterid>
										<name>Level</name>
										<valuemin>0</valuemin>
										<valuemax>3.98109</valuemax>
										<value>0.28117</value>
									</parameter>
								</effect>
							</filter>
						<link>
							<linkclipref>clipitem-2541</linkclipref>
							<mediatype>audio</mediatype>
							<trackindex>17</trackindex>
							<clipindex>224</clipindex>
							<groupindex>1</groupindex>
						</link>
						<link>
							<linkclipref>clipitem-2711</linkclipref>
							<mediatype>audio</mediatype>
							<trackindex>18</trackindex>
							<clipindex>217</clipindex>
							<groupindex>1</groupindex>
						</link>
						<logginginfo>
							<description></description>
							<scene></scene>
							<shottake></shottake>
							<lognote></lognote>
						</logginginfo>
						<labels>
							<label2>Caribbean</label2>
						</labels>
					</clipitem>
					<clipitem id="clipitem-2542" premiereChannelType="stereo">
						<masterclipid>masterclip-119</masterclipid>
						<name>Apollo_DIN_47_4__Place-Your-Bets-__Alexander-Seth-Weinstein-Shenandi.mp3</name>
						<enabled>TRUE</enabled>
						<duration>813</duration>
						<rate>
							<timebase>25</timebase>
							<ntsc>FALSE</ntsc>
						</rate>
						<start>54444</start>
						<end>54669</end>
						<in>103</in>
						<out>328</out>
						<pproTicksIn>1046545920000</pproTicksIn>
						<pproTicksOut>3332689920000</pproTicksOut>
						<file id="file-115"/>
						<sourcetrack>
							<mediatype>audio</mediatype>
							<trackindex>1</trackindex>
						</sourcetrack>
							<filter>
								<effect>
									<name>Audio Levels</name>
									<effectid>audiolevels</effectid>
									<effectcategory>audiolevels</effectcategory>
									<effecttype>audiolevels</effecttype>
									<mediatype>audio</mediatype>
									<parameter authoringApp="PremierePro">
										<parameterid>level</parameterid>
										<name>Level</name>
										<valuemin>0</valuemin>
										<valuemax>3.98109</valuemax>
										<value>0.28117</value>
									</parameter>
								</effect>
							</filter>
						<link>
							<linkclipref>clipitem-2542</linkclipref>
							<mediatype>audio</mediatype>
							<trackindex>17</trackindex>
							<clipindex>225</clipindex>
							<groupindex>1</groupindex>
						</link>
						<link>
							<linkclipref>clipitem-2712</linkclipref>
							<mediatype>audio</mediatype>
							<trackindex>18</trackindex>
							<clipindex>218</clipindex>
							<groupindex>1</groupindex>
						</link>
						<logginginfo>
							<description></description>
							<scene></scene>
							<shottake></shottake>
							<lognote></lognote>
						</logginginfo>
						<labels>
							<label2>Caribbean</label2>
						</labels>
					</clipitem>
					<clipitem id="clipitem-2543" premiereChannelType="stereo">
						<masterclipid>masterclip-119</masterclipid>
						<name>Apollo_DIN_47_4__Place-Your-Bets-__Alexander-Seth-Weinstein-Shenandi.mp3</name>
						<enabled>TRUE</enabled>
						<duration>813</duration>
						<rate>
							<timebase>25</timebase>
							<ntsc>FALSE</ntsc>
						</rate>
						<start>54669</start>
						<end>54894</end>
						<in>103</in>
						<out>328</out>
						<pproTicksIn>1046545920000</pproTicksIn>
						<pproTicksOut>3332689920000</pproTicksOut>
						<file id="file-115"/>
						<sourcetrack>
							<mediatype>audio</mediatype>
							<trackindex>1</trackindex>
						</sourcetrack>
							<filter>
								<effect>
									<name>Audio Levels</name>
									<effectid>audiolevels</effectid>
									<effectcategory>audiolevels</effectcategory>
									<effecttype>audiolevels</effecttype>
									<mediatype>audio</mediatype>
									<parameter authoringApp="PremierePro">
										<parameterid>level</parameterid>
										<name>Level</name>
										<valuemin>0</valuemin>
										<valuemax>3.98109</valuemax>
										<value>0.28117</value>
									</parameter>
								</effect>
							</filter>
						<link>
							<linkclipref>clipitem-2543</linkclipref>
							<mediatype>audio</mediatype>
							<trackindex>17</trackindex>
							<clipindex>226</clipindex>
							<groupindex>1</groupindex>
						</link>
						<link>
							<linkclipref>clipitem-2713</linkclipref>
							<mediatype>audio</mediatype>
							<trackindex>18</trackindex>
							<clipindex>219</clipindex>
							<groupindex>1</groupindex>
						</link>
						<logginginfo>
							<description></description>
							<scene></scene>
							<shottake></shottake>
							<lognote></lognote>
						</logginginfo>
						<labels>
							<label2>Caribbean</label2>
						</labels>
					</clipitem>
					<clipitem id="clipitem-2544" premiereChannelType="stereo">
						<masterclipid>masterclip-119</masterclipid>
						<name>Apollo_DIN_47_4__Place-Your-Bets-__Alexander-Seth-Weinstein-Shenandi.mp3</name>
						<enabled>TRUE</enabled>
						<duration>813</duration>
						<rate>
							<timebase>25</timebase>
							<ntsc>FALSE</ntsc>
						</rate>
						<start>54894</start>
						<end>55379</end>
						<in>328</in>
						<out>813</out>
						<pproTicksIn>3332689920000</pproTicksIn>
						<pproTicksOut>8260600320000</pproTicksOut>
						<file id="file-115"/>
						<sourcetrack>
							<mediatype>audio</mediatype>
							<trackindex>1</trackindex>
						</sourcetrack>
							<filter>
								<effect>
									<name>Audio Levels</name>
									<effectid>audiolevels</effectid>
									<effectcategory>audiolevels</effectcategory>
									<effecttype>audiolevels</effecttype>
									<mediatype>audio</mediatype>
									<parameter authoringApp="PremierePro">
										<parameterid>level</parameterid>
										<name>Level</name>
										<valuemin>0</valuemin>
										<valuemax>3.98109</valuemax>
										<value>0.28117</value>
									</parameter>
								</effect>
							</filter>
						<link>
							<linkclipref>clipitem-2544</linkclipref>
							<mediatype>audio</mediatype>
							<trackindex>17</trackindex>
							<clipindex>227</clipindex>
							<groupindex>1</groupindex>
						</link>
						<link>
							<linkclipref>clipitem-2714</linkclipref>
							<mediatype>audio</mediatype>
							<trackindex>18</trackindex>
							<clipindex>220</clipindex>
							<groupindex>1</groupindex>
						</link>
						<logginginfo>
							<description></description>
							<scene></scene>
							<shottake></shottake>
							<lognote></lognote>
						</logginginfo>
						<labels>
							<label2>Caribbean</label2>
						</labels>
					</clipitem>
					<clipitem id="clipitem-2545" premiereChannelType="stereo">
						<masterclipid>masterclip-120</masterclipid>
						<name>Applaus 7 sek.wav</name>
						<enabled>TRUE</enabled>
						<duration>182</duration>
						<rate>
							<timebase>25</timebase>
							<ntsc>FALSE</ntsc>
						</rate>
						<start>55905</start>
						<end>56087</end>
						<in>0</in>
						<out>182</out>
						<pproTicksIn>0</pproTicksIn>
						<pproTicksOut>1849236480000</pproTicksOut>
						<file id="file-116">
							<name>Applaus 7 sek.wav</name>
							<pathurl>file://localhost/Volumes/Brakka/AdobeLager/QUIZ%20-%20brakka/RA%cc%8aSTOFF%20LYD/Publikumsreaksjoner/Fra%201986/Applaus%207%20sek.wav</pathurl>
							<rate>
								<timebase>30</timebase>
								<ntsc>TRUE</ntsc>
							</rate>
							<duration>218</duration>
							<timecode>
								<rate>
									<timebase>30</timebase>
									<ntsc>TRUE</ntsc>
								</rate>
								<string>13;10;35;27</string>
								<frame>1421655</frame>
								<displayformat>DF</displayformat>
								<reel>
									<name></name>
								</reel>
							</timecode>
							<media>
								<audio>
									<samplecharacteristics>
										<depth>16</depth>
										<samplerate>48000</samplerate>
									</samplecharacteristics>
									<channelcount>2</channelcount>
								</audio>
							</media>
						</file>
						<sourcetrack>
							<mediatype>audio</mediatype>
							<trackindex>1</trackindex>
						</sourcetrack>
						<link>
							<linkclipref>clipitem-2545</linkclipref>
							<mediatype>audio</mediatype>
							<trackindex>17</trackindex>
							<clipindex>228</clipindex>
							<groupindex>1</groupindex>
						</link>
						<link>
							<linkclipref>clipitem-2715</linkclipref>
							<mediatype>audio</mediatype>
							<trackindex>18</trackindex>
							<clipindex>221</clipindex>
							<groupindex>1</groupindex>
						</link>
						<logginginfo>
							<description></description>
							<scene></scene>
							<shottake></shottake>
							<lognote></lognote>
						</logginginfo>
						<labels>
							<label2>Caribbean</label2>
						</labels>
					</clipitem>
					<clipitem id="clipitem-2546" premiereChannelType="stereo">
						<masterclipid>masterclip-121</masterclipid>
						<name>Latter, dempet kort.wav</name>
						<enabled>TRUE</enabled>
						<duration>67</duration>
						<rate>
							<timebase>25</timebase>
							<ntsc>FALSE</ntsc>
						</rate>
						<start>56194</start>
						<end>56261</end>
						<in>0</in>
						<out>67</out>
						<pproTicksIn>0</pproTicksIn>
						<pproTicksOut>680762880000</pproTicksOut>
						<file id="file-117">
							<name>Latter, dempet kort.wav</name>
							<pathurl>file://localhost/Volumes/Brakka/AdobeLager/QUIZ%20-%20brakka/RA%cc%8aSTOFF%20LYD/Publikumsreaksjoner/Fra%201984/Latter,%20dempet%20kort.wav</pathurl>
							<rate>
								<timebase>30</timebase>
								<ntsc>TRUE</ntsc>
							</rate>
							<duration>81</duration>
							<timecode>
								<rate>
									<timebase>30</timebase>
									<ntsc>TRUE</ntsc>
								</rate>
								<string>15;38;47;24</string>
								<frame>1688144</frame>
								<displayformat>DF</displayformat>
								<reel>
									<name></name>
								</reel>
							</timecode>
							<media>
								<audio>
									<samplecharacteristics>
										<depth>16</depth>
										<samplerate>48000</samplerate>
									</samplecharacteristics>
									<channelcount>2</channelcount>
								</audio>
							</media>
						</file>
						<sourcetrack>
							<mediatype>audio</mediatype>
							<trackindex>1</trackindex>
						</sourcetrack>
						<link>
							<linkclipref>clipitem-2546</linkclipref>
							<mediatype>audio</mediatype>
							<trackindex>17</trackindex>
							<clipindex>229</clipindex>
							<groupindex>1</groupindex>
						</link>
						<link>
							<linkclipref>clipitem-2716</linkclipref>
							<mediatype>audio</mediatype>
							<trackindex>18</trackindex>
							<clipindex>222</clipindex>
							<groupindex>1</groupindex>
						</link>
						<logginginfo>
							<description></description>
							<scene></scene>
							<shottake></shottake>
							<lognote></lognote>
						</logginginfo>
						<labels>
							<label2>Caribbean</label2>
						</labels>
					</clipitem>
					<clipitem id="clipitem-2547" premiereChannelType="stereo">
						<masterclipid>masterclip-122</masterclipid>
						<name>NONRO320998CS0001 Tsjeriåu.wav</name>
						<enabled>TRUE</enabled>
						<duration>5634</duration>
						<rate>
							<timebase>25</timebase>
							<ntsc>FALSE</ntsc>
						</rate>
						<start>56830</start>
						<end>-1</end>
						<in>3387</in>
						<out>4118</out>
						<pproTicksIn>34414087680000</pproTicksIn>
						<pproTicksOut>41841515520000</pproTicksOut>
						<file id="file-118">
							<name>NONRO320998CS0001 Tsjeriåu.wav</name>
							<pathurl>file://localhost/Volumes/Brakka/AdobeLager/QUIZ%20-%20brakka/Arkivstoff/2005/Musikk/NONRO320998CS0001%20Tsjeria%cc%8au.wav</pathurl>
							<rate>
								<timebase>30</timebase>
								<ntsc>TRUE</ntsc>
							</rate>
							<duration>6754</duration>
							<timecode>
								<rate>
									<timebase>30</timebase>
									<ntsc>TRUE</ntsc>
								</rate>
								<string>00;00;00;00</string>
								<frame>0</frame>
								<displayformat>DF</displayformat>
								<reel>
									<name></name>
								</reel>
							</timecode>
							<media>
								<audio>
									<samplecharacteristics>
										<depth>16</depth>
										<samplerate>48000</samplerate>
									</samplecharacteristics>
									<channelcount>2</channelcount>
								</audio>
							</media>
						</file>
						<sourcetrack>
							<mediatype>audio</mediatype>
							<trackindex>1</trackindex>
						</sourcetrack>
							<filter>
								<effect>
									<name>Audio Levels</name>
									<effectid>audiolevels</effectid>
									<effectcategory>audiolevels</effectcategory>
									<effecttype>audiolevels</effecttype>
									<mediatype>audio</mediatype>
									<parameter authoringApp="PremierePro">
										<parameterid>level</parameterid>
										<name>Level</name>
										<valuemin>0</valuemin>
										<valuemax>3.98109</valuemax>
										<value>0.0394648</value>
										<keyframe>
											<when>3387</when>
											<value>0</value>
										</keyframe>
										<keyframe>
											<when>3507</when>
											<value>0.0527033</value>
										</keyframe>
										<keyframe>
											<when>4599</when>
											<value>0.0527033</value>
										</keyframe>
										<keyframe>
											<when>4679</when>
											<value>0.0394648</value>
										</keyframe>
									</parameter>
								</effect>
							</filter>
						<link>
							<linkclipref>clipitem-2547</linkclipref>
							<mediatype>audio</mediatype>
							<trackindex>17</trackindex>
							<clipindex>230</clipindex>
							<groupindex>1</groupindex>
						</link>
						<link>
							<linkclipref>clipitem-2717</linkclipref>
							<mediatype>audio</mediatype>
							<trackindex>18</trackindex>
							<clipindex>223</clipindex>
							<groupindex>1</groupindex>
						</link>
						<logginginfo>
							<description></description>
							<scene></scene>
							<shottake></shottake>
							<lognote>CD Track 1 archiveNo[320998016]</lognote>
						</logginginfo>
						<labels>
							<label2>Caribbean</label2>
						</labels>
					</clipitem>
					<transitionitem>
						<start>57548</start>
						<end>57561</end>
						<alignment>center</alignment>
						<cutPointTicks>60963840000</cutPointTicks>
						<rate>
							<timebase>25</timebase>
							<ntsc>FALSE</ntsc>
						</rate>
						<effect>
							<name>Cross Fade (+3dB)</name>
							<effectid>KGAudioTransCrossFade3dB</effectid>
							<effecttype>transition</effecttype>
							<mediatype>audio</mediatype>
							<wipecode>0</wipecode>
							<wipeaccuracy>100</wipeaccuracy>
							<startratio>0</startratio>
							<endratio>1</endratio>
							<reverse>FALSE</reverse>
						</effect>
					</transitionitem>
					<clipitem id="clipitem-2548" premiereChannelType="stereo">
						<masterclipid>masterclip-122</masterclipid>
						<name>NONRO320998CS0001 Tsjeriåu.wav</name>
						<enabled>TRUE</enabled>
						<duration>5634</duration>
						<rate>
							<timebase>25</timebase>
							<ntsc>FALSE</ntsc>
						</rate>
						<start>-1</start>
						<end>58180</end>
						<in>4105</in>
						<out>4737</out>
						<pproTicksIn>41709427200000</pproTicksIn>
						<pproTicksOut>48130951680000</pproTicksOut>
						<file id="file-118"/>
						<sourcetrack>
							<mediatype>audio</mediatype>
							<trackindex>1</trackindex>
						</sourcetrack>
							<filter>
								<effect>
									<name>Audio Levels</name>
									<effectid>audiolevels</effectid>
									<effectcategory>audiolevels</effectcategory>
									<effecttype>audiolevels</effecttype>
									<mediatype>audio</mediatype>
									<parameter authoringApp="PremierePro">
										<parameterid>level</parameterid>
										<name>Level</name>
										<valuemin>0</valuemin>
										<valuemax>3.98109</valuemax>
										<value>0.520503</value>
										<keyframe>
											<when>4599</when>
											<value>0.209816</value>
										</keyframe>
										<keyframe>
											<when>4688</when>
											<value>0.520503</value>
										</keyframe>
									</parameter>
								</effect>
							</filter>
						<link>
							<linkclipref>clipitem-2548</linkclipref>
							<mediatype>audio</mediatype>
							<trackindex>17</trackindex>
							<clipindex>232</clipindex>
							<groupindex>1</groupindex>
						</link>
						<link>
							<linkclipref>clipitem-2718</linkclipref>
							<mediatype>audio</mediatype>
							<trackindex>18</trackindex>
							<clipindex>225</clipindex>
							<groupindex>1</groupindex>
						</link>
						<logginginfo>
							<description></description>
							<scene></scene>
							<shottake></shottake>
							<lognote>CD Track 1 archiveNo[320998016]</lognote>
						</logginginfo>
						<labels>
							<label2>Caribbean</label2>
						</labels>
					</clipitem>
					<enabled>TRUE</enabled>
					<locked>FALSE</locked>
					<outputchannelindex>1</outputchannelindex>
				</track>
				<track TL.SQTrackAudioKeyframeStyle="0" TL.SQTrackShy="0" TL.SQTrackExpandedHeight="25" TL.SQTrackExpanded="0" MZ.TrackTargeted="1" PannerCurrentValue="0.5" PannerIsInverted="true" PannerStartKeyframe="-91445760000000000,0.5,0,0,0,0,0,0" PannerName="Balance" currentExplodedTrackIndex="1" totalExplodedTrackCount="2" premiereTrackType="Stereo">
					<clipitem id="clipitem-2549" premiereChannelType="stereo">
						<masterclipid>masterclip-72</masterclipid>
						<name>NONRT015683CD0008 The Power of Love.wav</name>
						<enabled>TRUE</enabled>
						<duration>5890</duration>
						<rate>
							<timebase>25</timebase>
							<ntsc>FALSE</ntsc>
						</rate>
						<start>27</start>
						<end>344</end>
						<in>31</in>
						<out>348</out>
						<pproTicksIn>314979840000</pproTicksIn>
						<pproTicksOut>3535902720000</pproTicksOut>
						<file id="file-68"/>
						<sourcetrack>
							<mediatype>audio</mediatype>
							<trackindex>2</trackindex>
						</sourcetrack>
							<filter>
								<effect>
									<name>Audio Levels</name>
									<effectid>audiolevels</effectid>
									<effectcategory>audiolevels</effectcategory>
									<effecttype>audiolevels</effecttype>
									<mediatype>audio</mediatype>
									<parameter authoringApp="PremierePro">
										<parameterid>level</parameterid>
										<name>Level</name>
										<valuemin>0</valuemin>
										<valuemax>3.98109</valuemax>
										<value>0.353972</value>
									</parameter>
								</effect>
							</filter>
						<link>
							<linkclipref>clipitem-2375</linkclipref>
							<mediatype>audio</mediatype>
							<trackindex>17</trackindex>
							<clipindex>1</clipindex>
							<groupindex>1</groupindex>
						</link>
						<link>
							<linkclipref>clipitem-2549</linkclipref>
							<mediatype>audio</mediatype>
							<trackindex>18</trackindex>
							<clipindex>1</clipindex>
							<groupindex>1</groupindex>
						</link>
						<logginginfo>
							<description></description>
							<scene></scene>
							<shottake></shottake>
							<lognote>CD Track 8 archiveNo[015683014]</lognote>
						</logginginfo>
						<labels>
							<label2>Caribbean</label2>
						</labels>
					</clipitem>
					<clipitem id="clipitem-2550" premiereChannelType="stereo">
						<masterclipid>masterclip-72</masterclipid>
						<name>NONRT015683CD0008 The Power of Love.wav</name>
						<enabled>TRUE</enabled>
						<duration>5890</duration>
						<rate>
							<timebase>25</timebase>
							<ntsc>FALSE</ntsc>
						</rate>
						<start>344</start>
						<end>514</end>
						<in>348</in>
						<out>518</out>
						<pproTicksIn>3535902720000</pproTicksIn>
						<pproTicksOut>5263211520000</pproTicksOut>
						<file id="file-68"/>
						<sourcetrack>
							<mediatype>audio</mediatype>
							<trackindex>2</trackindex>
						</sourcetrack>
							<filter>
								<effect>
									<name>Audio Levels</name>
									<effectid>audiolevels</effectid>
									<effectcategory>audiolevels</effectcategory>
									<effecttype>audiolevels</effecttype>
									<mediatype>audio</mediatype>
									<parameter authoringApp="PremierePro">
										<parameterid>level</parameterid>
										<name>Level</name>
										<valuemin>0</valuemin>
										<valuemax>3.98109</valuemax>
										<value>0</value>
										<keyframe>
											<when>432</when>
											<value>0.353972</value>
										</keyframe>
										<keyframe>
											<when>443</when>
											<value>0.115032</value>
										</keyframe>
										<keyframe>
											<when>516</when>
											<value>0</value>
										</keyframe>
									</parameter>
								</effect>
							</filter>
						<link>
							<linkclipref>clipitem-2376</linkclipref>
							<mediatype>audio</mediatype>
							<trackindex>17</trackindex>
							<clipindex>2</clipindex>
							<groupindex>1</groupindex>
						</link>
						<link>
							<linkclipref>clipitem-2550</linkclipref>
							<mediatype>audio</mediatype>
							<trackindex>18</trackindex>
							<clipindex>2</clipindex>
							<groupindex>1</groupindex>
						</link>
						<logginginfo>
							<description></description>
							<scene></scene>
							<shottake></shottake>
							<lognote>CD Track 8 archiveNo[015683014]</lognote>
						</logginginfo>
						<labels>
							<label2>Caribbean</label2>
						</labels>
					</clipitem>
					<clipitem id="clipitem-2551" premiereChannelType="stereo">
						<masterclipid>masterclip-10</masterclipid>
						<name>NNFA80750005AA.mxf</name>
						<enabled>TRUE</enabled>
						<duration>81126</duration>
						<rate>
							<timebase>25</timebase>
							<ntsc>FALSE</ntsc>
						</rate>
						<start>1131</start>
						<end>1236</end>
						<in>32776</in>
						<out>32881</out>
						<pproTicksIn>333025136640000</pproTicksIn>
						<pproTicksOut>334092003840000</pproTicksOut>
						<file id="file-8"/>
						<sourcetrack>
							<mediatype>audio</mediatype>
							<trackindex>2</trackindex>
						</sourcetrack>
							<filter>
								<effect>
									<name>Audio Levels</name>
									<effectid>audiolevels</effectid>
									<effectcategory>audiolevels</effectcategory>
									<effecttype>audiolevels</effecttype>
									<mediatype>audio</mediatype>
									<parameter authoringApp="PremierePro">
										<parameterid>level</parameterid>
										<name>Level</name>
										<valuemin>0</valuemin>
										<valuemax>3.98109</valuemax>
										<value>1.26791</value>
									</parameter>
								</effect>
							</filter>
						<link>
							<linkclipref>clipitem-2377</linkclipref>
							<mediatype>audio</mediatype>
							<trackindex>17</trackindex>
							<clipindex>3</clipindex>
							<groupindex>1</groupindex>
						</link>
						<link>
							<linkclipref>clipitem-2551</linkclipref>
							<mediatype>audio</mediatype>
							<trackindex>18</trackindex>
							<clipindex>3</clipindex>
							<groupindex>1</groupindex>
						</link>
						<logginginfo>
							<description></description>
							<scene></scene>
							<shottake></shottake>
							<lognote></lognote>
						</logginginfo>
						<labels>
							<label2>Iris</label2>
						</labels>
					</clipitem>
					<clipitem id="clipitem-2552" premiereChannelType="stereo">
						<masterclipid>masterclip-10</masterclipid>
						<name>NNFA80750005AA.mxf</name>
						<enabled>TRUE</enabled>
						<duration>81126</duration>
						<rate>
							<timebase>25</timebase>
							<ntsc>FALSE</ntsc>
						</rate>
						<start>2633</start>
						<end>2797</end>
						<in>57409</in>
						<out>57573</out>
						<pproTicksIn>583312181760000</pproTicksIn>
						<pproTicksOut>584978526720000</pproTicksOut>
						<file id="file-8"/>
						<sourcetrack>
							<mediatype>audio</mediatype>
							<trackindex>2</trackindex>
						</sourcetrack>
							<filter>
								<effect>
									<name>Audio Levels</name>
									<effectid>audiolevels</effectid>
									<effectcategory>audiolevels</effectcategory>
									<effecttype>audiolevels</effecttype>
									<mediatype>audio</mediatype>
									<parameter authoringApp="PremierePro">
										<parameterid>level</parameterid>
										<name>Level</name>
										<valuemin>0</valuemin>
										<valuemax>3.98109</valuemax>
										<value>0.397164</value>
									</parameter>
								</effect>
							</filter>
						<link>
							<linkclipref>clipitem-2381</linkclipref>
							<mediatype>audio</mediatype>
							<trackindex>17</trackindex>
							<clipindex>10</clipindex>
							<groupindex>1</groupindex>
						</link>
						<link>
							<linkclipref>clipitem-2552</linkclipref>
							<mediatype>audio</mediatype>
							<trackindex>18</trackindex>
							<clipindex>4</clipindex>
							<groupindex>1</groupindex>
						</link>
						<logginginfo>
							<description></description>
							<scene></scene>
							<shottake></shottake>
							<lognote></lognote>
						</logginginfo>
						<labels>
							<label2>Iris</label2>
						</labels>
					</clipitem>
					<clipitem id="clipitem-2553" premiereChannelType="stereo">
						<masterclipid>masterclip-10</masterclipid>
						<name>NNFA80750005AA.mxf</name>
						<enabled>TRUE</enabled>
						<duration>81126</duration>
						<rate>
							<timebase>25</timebase>
							<ntsc>FALSE</ntsc>
						</rate>
						<start>2797</start>
						<end>2879</end>
						<in>57573</in>
						<out>57655</out>
						<pproTicksIn>584978526720000</pproTicksIn>
						<pproTicksOut>585811699200000</pproTicksOut>
						<file id="file-8"/>
						<sourcetrack>
							<mediatype>audio</mediatype>
							<trackindex>2</trackindex>
						</sourcetrack>
							<filter>
								<effect>
									<name>Audio Levels</name>
									<effectid>audiolevels</effectid>
									<effectcategory>audiolevels</effectcategory>
									<effecttype>audiolevels</effecttype>
									<mediatype>audio</mediatype>
									<parameter authoringApp="PremierePro">
										<parameterid>level</parameterid>
										<name>Level</name>
										<valuemin>0</valuemin>
										<valuemax>3.98109</valuemax>
										<value>1.58114</value>
									</parameter>
								</effect>
							</filter>
						<link>
							<linkclipref>clipitem-2382</linkclipref>
							<mediatype>audio</mediatype>
							<trackindex>17</trackindex>
							<clipindex>11</clipindex>
							<groupindex>1</groupindex>
						</link>
						<link>
							<linkclipref>clipitem-2553</linkclipref>
							<mediatype>audio</mediatype>
							<trackindex>18</trackindex>
							<clipindex>5</clipindex>
							<groupindex>1</groupindex>
						</link>
						<logginginfo>
							<description></description>
							<scene></scene>
							<shottake></shottake>
							<lognote></lognote>
						</logginginfo>
						<labels>
							<label2>Iris</label2>
						</labels>
					</clipitem>
					<clipitem id="clipitem-2554" premiereChannelType="stereo">
						<masterclipid>masterclip-10</masterclipid>
						<name>NNFA80750005AA.mxf</name>
						<enabled>TRUE</enabled>
						<duration>81126</duration>
						<rate>
							<timebase>25</timebase>
							<ntsc>FALSE</ntsc>
						</rate>
						<start>3026</start>
						<end>3082</end>
						<in>59225</in>
						<out>59281</out>
						<pproTicksIn>601763904000000</pproTicksIn>
						<pproTicksOut>602332899840000</pproTicksOut>
						<file id="file-8"/>
						<sourcetrack>
							<mediatype>audio</mediatype>
							<trackindex>2</trackindex>
						</sourcetrack>
							<filter>
								<effect>
									<name>Audio Levels</name>
									<effectid>audiolevels</effectid>
									<effectcategory>audiolevels</effectcategory>
									<effecttype>audiolevels</effecttype>
									<mediatype>audio</mediatype>
									<parameter authoringApp="PremierePro">
										<parameterid>level</parameterid>
										<name>Level</name>
										<valuemin>0</valuemin>
										<valuemax>3.98109</valuemax>
										<value>1.99053</value>
									</parameter>
								</effect>
							</filter>
						<link>
							<linkclipref>clipitem-2383</linkclipref>
							<mediatype>audio</mediatype>
							<trackindex>17</trackindex>
							<clipindex>12</clipindex>
							<groupindex>1</groupindex>
						</link>
						<link>
							<linkclipref>clipitem-2554</linkclipref>
							<mediatype>audio</mediatype>
							<trackindex>18</trackindex>
							<clipindex>6</clipindex>
							<groupindex>1</groupindex>
						</link>
						<logginginfo>
							<description></description>
							<scene></scene>
							<shottake></shottake>
							<lognote></lognote>
						</logginginfo>
						<labels>
							<label2>Iris</label2>
						</labels>
					</clipitem>
					<transitionitem>
						<start>3326</start>
						<end>3399</end>
						<alignment>start-black</alignment>
						<cutPointTicks>0</cutPointTicks>
						<rate>
							<timebase>25</timebase>
							<ntsc>FALSE</ntsc>
						</rate>
						<effect>
							<name>Cross Fade (+3dB)</name>
							<effectid>KGAudioTransCrossFade3dB</effectid>
							<effecttype>transition</effecttype>
							<mediatype>audio</mediatype>
							<wipecode>0</wipecode>
							<wipeaccuracy>100</wipeaccuracy>
							<startratio>0</startratio>
							<endratio>1</endratio>
							<reverse>FALSE</reverse>
						</effect>
					</transitionitem>
					<clipitem id="clipitem-2555" premiereChannelType="stereo">
						<masterclipid>masterclip-10</masterclipid>
						<name>NNFA80750005AA.mxf</name>
						<enabled>TRUE</enabled>
						<duration>81126</duration>
						<rate>
							<timebase>25</timebase>
							<ntsc>FALSE</ntsc>
						</rate>
						<start>-1</start>
						<end>-1</end>
						<in>79912</in>
						<out>80110</out>
						<pproTicksIn>811957063680000</pproTicksIn>
						<pproTicksOut>813968870400000</pproTicksOut>
						<file id="file-8"/>
						<sourcetrack>
							<mediatype>audio</mediatype>
							<trackindex>2</trackindex>
						</sourcetrack>
							<filter>
								<effect>
									<name>Audio Levels</name>
									<effectid>audiolevels</effectid>
									<effectcategory>audiolevels</effectcategory>
									<effecttype>audiolevels</effecttype>
									<mediatype>audio</mediatype>
									<parameter authoringApp="PremierePro">
										<parameterid>level</parameterid>
										<name>Level</name>
										<valuemin>0</valuemin>
										<valuemax>3.98109</valuemax>
										<value>0.315478</value>
									</parameter>
								</effect>
							</filter>
						<link>
							<linkclipref>clipitem-2384</linkclipref>
							<mediatype>audio</mediatype>
							<trackindex>17</trackindex>
							<clipindex>14</clipindex>
							<groupindex>1</groupindex>
						</link>
						<link>
							<linkclipref>clipitem-2555</linkclipref>
							<mediatype>audio</mediatype>
							<trackindex>18</trackindex>
							<clipindex>8</clipindex>
							<groupindex>1</groupindex>
						</link>
						<logginginfo>
							<description></description>
							<scene></scene>
							<shottake></shottake>
							<lognote></lognote>
						</logginginfo>
						<labels>
							<label2>Iris</label2>
						</labels>
					</clipitem>
					<transitionitem>
						<start>3511</start>
						<end>3524</end>
						<alignment>center</alignment>
						<cutPointTicks>60963840000</cutPointTicks>
						<rate>
							<timebase>25</timebase>
							<ntsc>FALSE</ntsc>
						</rate>
						<effect>
							<name>Cross Fade (+3dB)</name>
							<effectid>KGAudioTransCrossFade3dB</effectid>
							<effecttype>transition</effecttype>
							<mediatype>audio</mediatype>
							<wipecode>0</wipecode>
							<wipeaccuracy>100</wipeaccuracy>
							<startratio>0</startratio>
							<endratio>1</endratio>
							<reverse>FALSE</reverse>
						</effect>
					</transitionitem>
					<clipitem id="clipitem-2556" premiereChannelType="stereo">
						<masterclipid>masterclip-10</masterclipid>
						<name>NNFA80750005AA.mxf</name>
						<enabled>TRUE</enabled>
						<duration>81126</duration>
						<rate>
							<timebase>25</timebase>
							<ntsc>FALSE</ntsc>
						</rate>
						<start>-1</start>
						<end>3570</end>
						<in>80097</in>
						<out>80156</out>
						<pproTicksIn>813836782080000</pproTicksIn>
						<pproTicksOut>814436259840000</pproTicksOut>
						<file id="file-8"/>
						<sourcetrack>
							<mediatype>audio</mediatype>
							<trackindex>2</trackindex>
						</sourcetrack>
							<filter>
								<effect>
									<name>Audio Levels</name>
									<effectid>audiolevels</effectid>
									<effectcategory>audiolevels</effectcategory>
									<effecttype>audiolevels</effecttype>
									<mediatype>audio</mediatype>
									<parameter authoringApp="PremierePro">
										<parameterid>level</parameterid>
										<name>Level</name>
										<valuemin>0</valuemin>
										<valuemax>3.98109</valuemax>
										<value>0.99763</value>
									</parameter>
								</effect>
							</filter>
						<link>
							<linkclipref>clipitem-2385</linkclipref>
							<mediatype>audio</mediatype>
							<trackindex>17</trackindex>
							<clipindex>16</clipindex>
							<groupindex>1</groupindex>
						</link>
						<link>
							<linkclipref>clipitem-2556</linkclipref>
							<mediatype>audio</mediatype>
							<trackindex>18</trackindex>
							<clipindex>10</clipindex>
							<groupindex>1</groupindex>
						</link>
						<logginginfo>
							<description></description>
							<scene></scene>
							<shottake></shottake>
							<lognote></lognote>
						</logginginfo>
						<labels>
							<label2>Iris</label2>
						</labels>
					</clipitem>
					<clipitem id="clipitem-2557" premiereChannelType="stereo">
						<masterclipid>masterclip-25</masterclipid>
						<name>DIGS694-150805-DR.mxf</name>
						<enabled>TRUE</enabled>
						<duration>2400</duration>
						<rate>
							<timebase>25</timebase>
							<ntsc>FALSE</ntsc>
						</rate>
						<start>4137</start>
						<end>4281</end>
						<in>424</in>
						<out>568</out>
						<pproTicksIn>4308111360000</pproTicksIn>
						<pproTicksOut>5771243520000</pproTicksOut>
						<file id="file-21"/>
						<sourcetrack>
							<mediatype>audio</mediatype>
							<trackindex>2</trackindex>
						</sourcetrack>
							<filter>
								<effect>
									<name>Audio Levels</name>
									<effectid>audiolevels</effectid>
									<effectcategory>audiolevels</effectcategory>
									<effecttype>audiolevels</effecttype>
									<mediatype>audio</mediatype>
									<parameter authoringApp="PremierePro">
										<parameterid>level</parameterid>
										<name>Level</name>
										<valuemin>0</valuemin>
										<valuemax>3.98109</valuemax>
										<value>0.0561009</value>
									</parameter>
								</effect>
							</filter>
						<link>
							<linkclipref>clipitem-2386</linkclipref>
							<mediatype>audio</mediatype>
							<trackindex>17</trackindex>
							<clipindex>17</clipindex>
							<groupindex>1</groupindex>
						</link>
						<link>
							<linkclipref>clipitem-2557</linkclipref>
							<mediatype>audio</mediatype>
							<trackindex>18</trackindex>
							<clipindex>11</clipindex>
							<groupindex>1</groupindex>
						</link>
						<logginginfo>
							<description></description>
							<scene></scene>
							<shottake></shottake>
							<lognote></lognote>
						</logginginfo>
						<labels>
							<label2>Iris</label2>
						</labels>
					</clipitem>
					<clipitem id="clipitem-2558" premiereChannelType="stereo">
						<masterclipid>masterclip-25</masterclipid>
						<name>DIGS694-150805-DR.mxf</name>
						<enabled>TRUE</enabled>
						<duration>2400</duration>
						<rate>
							<timebase>25</timebase>
							<ntsc>FALSE</ntsc>
						</rate>
						<start>4393</start>
						<end>4560</end>
						<in>568</in>
						<out>735</out>
						<pproTicksIn>5771243520000</pproTicksIn>
						<pproTicksOut>7468070400000</pproTicksOut>
						<file id="file-21"/>
						<sourcetrack>
							<mediatype>audio</mediatype>
							<trackindex>2</trackindex>
						</sourcetrack>
							<filter>
								<effect>
									<name>Audio Levels</name>
									<effectid>audiolevels</effectid>
									<effectcategory>audiolevels</effectcategory>
									<effecttype>audiolevels</effecttype>
									<mediatype>audio</mediatype>
									<parameter authoringApp="PremierePro">
										<parameterid>level</parameterid>
										<name>Level</name>
										<valuemin>0</valuemin>
										<valuemax>3.98109</valuemax>
										<value>1.58489</value>
									</parameter>
								</effect>
							</filter>
						<link>
							<linkclipref>clipitem-2387</linkclipref>
							<mediatype>audio</mediatype>
							<trackindex>17</trackindex>
							<clipindex>18</clipindex>
							<groupindex>1</groupindex>
						</link>
						<link>
							<linkclipref>clipitem-2558</linkclipref>
							<mediatype>audio</mediatype>
							<trackindex>18</trackindex>
							<clipindex>12</clipindex>
							<groupindex>1</groupindex>
						</link>
						<logginginfo>
							<description></description>
							<scene></scene>
							<shottake></shottake>
							<lognote></lognote>
						</logginginfo>
						<labels>
							<label2>Iris</label2>
						</labels>
					</clipitem>
					<clipitem id="clipitem-2559" premiereChannelType="stereo">
						<masterclipid>masterclip-25</masterclipid>
						<name>DIGS694-150805-DR.mxf</name>
						<enabled>FALSE</enabled>
						<duration>2400</duration>
						<rate>
							<timebase>25</timebase>
							<ntsc>FALSE</ntsc>
						</rate>
						<start>4560</start>
						<end>4717</end>
						<in>1755</in>
						<out>1912</out>
						<pproTicksIn>17831923200000</pproTicksIn>
						<pproTicksOut>19427143680000</pproTicksOut>
						<file id="file-21"/>
						<sourcetrack>
							<mediatype>audio</mediatype>
							<trackindex>2</trackindex>
						</sourcetrack>
							<filter>
								<effect>
									<name>Audio Levels</name>
									<effectid>audiolevels</effectid>
									<effectcategory>audiolevels</effectcategory>
									<effecttype>audiolevels</effecttype>
									<mediatype>audio</mediatype>
									<parameter authoringApp="PremierePro">
										<parameterid>level</parameterid>
										<name>Level</name>
										<valuemin>0</valuemin>
										<valuemax>3.98109</valuemax>
										<value>0.199053</value>
									</parameter>
								</effect>
							</filter>
						<link>
							<linkclipref>clipitem-2388</linkclipref>
							<mediatype>audio</mediatype>
							<trackindex>17</trackindex>
							<clipindex>19</clipindex>
							<groupindex>1</groupindex>
						</link>
						<link>
							<linkclipref>clipitem-2559</linkclipref>
							<mediatype>audio</mediatype>
							<trackindex>18</trackindex>
							<clipindex>13</clipindex>
							<groupindex>1</groupindex>
						</link>
						<logginginfo>
							<description></description>
							<scene></scene>
							<shottake></shottake>
							<lognote></lognote>
						</logginginfo>
						<labels>
							<label2>Iris</label2>
						</labels>
					</clipitem>
					<clipitem id="clipitem-2560" premiereChannelType="stereo">
						<masterclipid>masterclip-25</masterclipid>
						<name>DIGS694-150805-DR.mxf</name>
						<enabled>TRUE</enabled>
						<duration>2400</duration>
						<rate>
							<timebase>25</timebase>
							<ntsc>FALSE</ntsc>
						</rate>
						<start>4717</start>
						<end>-1</end>
						<in>968</in>
						<out>1044</out>
						<pproTicksIn>9835499520000</pproTicksIn>
						<pproTicksOut>10607708160000</pproTicksOut>
						<file id="file-21"/>
						<sourcetrack>
							<mediatype>audio</mediatype>
							<trackindex>2</trackindex>
						</sourcetrack>
						<link>
							<linkclipref>clipitem-2389</linkclipref>
							<mediatype>audio</mediatype>
							<trackindex>17</trackindex>
							<clipindex>20</clipindex>
							<groupindex>1</groupindex>
						</link>
						<link>
							<linkclipref>clipitem-2560</linkclipref>
							<mediatype>audio</mediatype>
							<trackindex>18</trackindex>
							<clipindex>14</clipindex>
							<groupindex>1</groupindex>
						</link>
						<logginginfo>
							<description></description>
							<scene></scene>
							<shottake></shottake>
							<lognote></lognote>
						</logginginfo>
						<labels>
							<label2>Iris</label2>
						</labels>
					</clipitem>
					<transitionitem>
						<start>4780</start>
						<end>4793</end>
						<alignment>end-black</alignment>
						<cutPointTicks>132088320000</cutPointTicks>
						<rate>
							<timebase>25</timebase>
							<ntsc>FALSE</ntsc>
						</rate>
						<effect>
							<name>Cross Fade (+3dB)</name>
							<effectid>KGAudioTransCrossFade3dB</effectid>
							<effecttype>transition</effecttype>
							<mediatype>audio</mediatype>
							<wipecode>0</wipecode>
							<wipeaccuracy>100</wipeaccuracy>
							<startratio>0</startratio>
							<endratio>1</endratio>
							<reverse>FALSE</reverse>
						</effect>
					</transitionitem>
					<clipitem id="clipitem-2561" premiereChannelType="stereo">
						<masterclipid>masterclip-73</masterclipid>
						<name>Klukklatter, kort.wav</name>
						<enabled>TRUE</enabled>
						<duration>56</duration>
						<rate>
							<timebase>25</timebase>
							<ntsc>FALSE</ntsc>
						</rate>
						<start>5948</start>
						<end>6004</end>
						<in>0</in>
						<out>56</out>
						<pproTicksIn>0</pproTicksIn>
						<pproTicksOut>568995840000</pproTicksOut>
						<file id="file-69"/>
						<sourcetrack>
							<mediatype>audio</mediatype>
							<trackindex>2</trackindex>
						</sourcetrack>
						<link>
							<linkclipref>clipitem-2390</linkclipref>
							<mediatype>audio</mediatype>
							<trackindex>17</trackindex>
							<clipindex>22</clipindex>
							<groupindex>1</groupindex>
						</link>
						<link>
							<linkclipref>clipitem-2561</linkclipref>
							<mediatype>audio</mediatype>
							<trackindex>18</trackindex>
							<clipindex>16</clipindex>
							<groupindex>1</groupindex>
						</link>
						<logginginfo>
							<description></description>
							<scene></scene>
							<shottake></shottake>
							<lognote></lognote>
						</logginginfo>
						<labels>
							<label2>Caribbean</label2>
						</labels>
					</clipitem>
					<clipitem id="clipitem-2562" premiereChannelType="stereo">
						<masterclipid>masterclip-74</masterclipid>
						<name>Latter bitteliten.wav</name>
						<enabled>TRUE</enabled>
						<duration>53</duration>
						<rate>
							<timebase>25</timebase>
							<ntsc>FALSE</ntsc>
						</rate>
						<start>6807</start>
						<end>6860</end>
						<in>0</in>
						<out>53</out>
						<pproTicksIn>0</pproTicksIn>
						<pproTicksOut>538513920000</pproTicksOut>
						<file id="file-70"/>
						<sourcetrack>
							<mediatype>audio</mediatype>
							<trackindex>2</trackindex>
						</sourcetrack>
						<link>
							<linkclipref>clipitem-2391</linkclipref>
							<mediatype>audio</mediatype>
							<trackindex>17</trackindex>
							<clipindex>23</clipindex>
							<groupindex>1</groupindex>
						</link>
						<link>
							<linkclipref>clipitem-2562</linkclipref>
							<mediatype>audio</mediatype>
							<trackindex>18</trackindex>
							<clipindex>17</clipindex>
							<groupindex>1</groupindex>
						</link>
						<logginginfo>
							<description></description>
							<scene></scene>
							<shottake></shottake>
							<lognote></lognote>
						</logginginfo>
						<labels>
							<label2>Caribbean</label2>
						</labels>
					</clipitem>
					<clipitem id="clipitem-2563" premiereChannelType="stereo">
						<masterclipid>masterclip-75</masterclipid>
						<name>Latter avmålt.wav</name>
						<enabled>TRUE</enabled>
						<duration>60</duration>
						<rate>
							<timebase>25</timebase>
							<ntsc>FALSE</ntsc>
						</rate>
						<start>7167</start>
						<end>7227</end>
						<in>0</in>
						<out>60</out>
						<pproTicksIn>0</pproTicksIn>
						<pproTicksOut>609638400000</pproTicksOut>
						<file id="file-71"/>
						<sourcetrack>
							<mediatype>audio</mediatype>
							<trackindex>2</trackindex>
						</sourcetrack>
						<link>
							<linkclipref>clipitem-2392</linkclipref>
							<mediatype>audio</mediatype>
							<trackindex>17</trackindex>
							<clipindex>24</clipindex>
							<groupindex>1</groupindex>
						</link>
						<link>
							<linkclipref>clipitem-2563</linkclipref>
							<mediatype>audio</mediatype>
							<trackindex>18</trackindex>
							<clipindex>18</clipindex>
							<groupindex>1</groupindex>
						</link>
						<logginginfo>
							<description></description>
							<scene></scene>
							<shottake></shottake>
							<lognote></lognote>
						</logginginfo>
						<labels>
							<label2>Caribbean</label2>
						</labels>
					</clipitem>
					<clipitem id="clipitem-2564" premiereChannelType="stereo">
						<masterclipid>masterclip-76</masterclipid>
						<name>Latter går over i applaus plystring brå slutt.wav</name>
						<enabled>TRUE</enabled>
						<duration>232</duration>
						<rate>
							<timebase>25</timebase>
							<ntsc>FALSE</ntsc>
						</rate>
						<start>7266</start>
						<end>7498</end>
						<in>0</in>
						<out>232</out>
						<pproTicksIn>0</pproTicksIn>
						<pproTicksOut>2357268480000</pproTicksOut>
						<file id="file-72"/>
						<sourcetrack>
							<mediatype>audio</mediatype>
							<trackindex>2</trackindex>
						</sourcetrack>
						<link>
							<linkclipref>clipitem-2393</linkclipref>
							<mediatype>audio</mediatype>
							<trackindex>17</trackindex>
							<clipindex>25</clipindex>
							<groupindex>1</groupindex>
						</link>
						<link>
							<linkclipref>clipitem-2564</linkclipref>
							<mediatype>audio</mediatype>
							<trackindex>18</trackindex>
							<clipindex>19</clipindex>
							<groupindex>1</groupindex>
						</link>
						<logginginfo>
							<description></description>
							<scene></scene>
							<shottake></shottake>
							<lognote></lognote>
						</logginginfo>
						<labels>
							<label2>Caribbean</label2>
						</labels>
					</clipitem>
					<clipitem id="clipitem-2565" premiereChannelType="stereo">
						<masterclipid>masterclip-74</masterclipid>
						<name>Latter bitteliten.wav</name>
						<enabled>TRUE</enabled>
						<duration>53</duration>
						<rate>
							<timebase>25</timebase>
							<ntsc>FALSE</ntsc>
						</rate>
						<start>7525</start>
						<end>7578</end>
						<in>0</in>
						<out>53</out>
						<pproTicksIn>0</pproTicksIn>
						<pproTicksOut>538513920000</pproTicksOut>
						<file id="file-70"/>
						<sourcetrack>
							<mediatype>audio</mediatype>
							<trackindex>2</trackindex>
						</sourcetrack>
						<link>
							<linkclipref>clipitem-2394</linkclipref>
							<mediatype>audio</mediatype>
							<trackindex>17</trackindex>
							<clipindex>26</clipindex>
							<groupindex>1</groupindex>
						</link>
						<link>
							<linkclipref>clipitem-2565</linkclipref>
							<mediatype>audio</mediatype>
							<trackindex>18</trackindex>
							<clipindex>20</clipindex>
							<groupindex>1</groupindex>
						</link>
						<logginginfo>
							<description></description>
							<scene></scene>
							<shottake></shottake>
							<lognote></lognote>
						</logginginfo>
						<labels>
							<label2>Caribbean</label2>
						</labels>
					</clipitem>
					<clipitem id="clipitem-2566" premiereChannelType="stereo">
						<masterclipid>masterclip-77</masterclipid>
						<name>Latter kule liten.wav</name>
						<enabled>TRUE</enabled>
						<duration>76</duration>
						<rate>
							<timebase>25</timebase>
							<ntsc>FALSE</ntsc>
						</rate>
						<start>8093</start>
						<end>8169</end>
						<in>0</in>
						<out>76</out>
						<pproTicksIn>0</pproTicksIn>
						<pproTicksOut>772208640000</pproTicksOut>
						<file id="file-73"/>
						<sourcetrack>
							<mediatype>audio</mediatype>
							<trackindex>2</trackindex>
						</sourcetrack>
						<link>
							<linkclipref>clipitem-2395</linkclipref>
							<mediatype>audio</mediatype>
							<trackindex>17</trackindex>
							<clipindex>27</clipindex>
							<groupindex>1</groupindex>
						</link>
						<link>
							<linkclipref>clipitem-2566</linkclipref>
							<mediatype>audio</mediatype>
							<trackindex>18</trackindex>
							<clipindex>21</clipindex>
							<groupindex>1</groupindex>
						</link>
						<logginginfo>
							<description></description>
							<scene></scene>
							<shottake></shottake>
							<lognote></lognote>
						</logginginfo>
						<labels>
							<label2>Caribbean</label2>
						</labels>
					</clipitem>
					<clipitem id="clipitem-2567" premiereChannelType="stereo">
						<masterclipid>masterclip-78</masterclipid>
						<name>Humring.wav</name>
						<enabled>TRUE</enabled>
						<duration>62</duration>
						<rate>
							<timebase>25</timebase>
							<ntsc>FALSE</ntsc>
						</rate>
						<start>8380</start>
						<end>8442</end>
						<in>0</in>
						<out>62</out>
						<pproTicksIn>0</pproTicksIn>
						<pproTicksOut>629959680000</pproTicksOut>
						<file id="file-74"/>
						<sourcetrack>
							<mediatype>audio</mediatype>
							<trackindex>2</trackindex>
						</sourcetrack>
						<link>
							<linkclipref>clipitem-2396</linkclipref>
							<mediatype>audio</mediatype>
							<trackindex>17</trackindex>
							<clipindex>28</clipindex>
							<groupindex>1</groupindex>
						</link>
						<link>
							<linkclipref>clipitem-2567</linkclipref>
							<mediatype>audio</mediatype>
							<trackindex>18</trackindex>
							<clipindex>22</clipindex>
							<groupindex>1</groupindex>
						</link>
						<logginginfo>
							<description></description>
							<scene></scene>
							<shottake></shottake>
							<lognote></lognote>
						</logginginfo>
						<labels>
							<label2>Caribbean</label2>
						</labels>
					</clipitem>
					<clipitem id="clipitem-2568" premiereChannelType="stereo">
						<masterclipid>masterclip-74</masterclipid>
						<name>Latter bitteliten.wav</name>
						<enabled>TRUE</enabled>
						<duration>53</duration>
						<rate>
							<timebase>25</timebase>
							<ntsc>FALSE</ntsc>
						</rate>
						<start>8476</start>
						<end>8529</end>
						<in>0</in>
						<out>53</out>
						<pproTicksIn>0</pproTicksIn>
						<pproTicksOut>538513920000</pproTicksOut>
						<file id="file-70"/>
						<sourcetrack>
							<mediatype>audio</mediatype>
							<trackindex>2</trackindex>
						</sourcetrack>
						<link>
							<linkclipref>clipitem-2397</linkclipref>
							<mediatype>audio</mediatype>
							<trackindex>17</trackindex>
							<clipindex>29</clipindex>
							<groupindex>1</groupindex>
						</link>
						<link>
							<linkclipref>clipitem-2568</linkclipref>
							<mediatype>audio</mediatype>
							<trackindex>18</trackindex>
							<clipindex>23</clipindex>
							<groupindex>1</groupindex>
						</link>
						<logginginfo>
							<description></description>
							<scene></scene>
							<shottake></shottake>
							<lognote></lognote>
						</logginginfo>
						<labels>
							<label2>Caribbean</label2>
						</labels>
					</clipitem>
					<clipitem id="clipitem-2569" premiereChannelType="stereo">
						<masterclipid>masterclip-79</masterclipid>
						<name>Latter dempet.wav</name>
						<enabled>TRUE</enabled>
						<duration>66</duration>
						<rate>
							<timebase>25</timebase>
							<ntsc>FALSE</ntsc>
						</rate>
						<start>8607</start>
						<end>8673</end>
						<in>0</in>
						<out>66</out>
						<pproTicksIn>0</pproTicksIn>
						<pproTicksOut>670602240000</pproTicksOut>
						<file id="file-75"/>
						<sourcetrack>
							<mediatype>audio</mediatype>
							<trackindex>2</trackindex>
						</sourcetrack>
						<link>
							<linkclipref>clipitem-2398</linkclipref>
							<mediatype>audio</mediatype>
							<trackindex>17</trackindex>
							<clipindex>30</clipindex>
							<groupindex>1</groupindex>
						</link>
						<link>
							<linkclipref>clipitem-2569</linkclipref>
							<mediatype>audio</mediatype>
							<trackindex>18</trackindex>
							<clipindex>24</clipindex>
							<groupindex>1</groupindex>
						</link>
						<logginginfo>
							<description></description>
							<scene></scene>
							<shottake></shottake>
							<lognote></lognote>
						</logginginfo>
						<labels>
							<label2>Caribbean</label2>
						</labels>
					</clipitem>
					<clipitem id="clipitem-2570" premiereChannelType="stereo">
						<masterclipid>masterclip-80</masterclipid>
						<name>Latter behersket.wav</name>
						<enabled>TRUE</enabled>
						<duration>124</duration>
						<rate>
							<timebase>25</timebase>
							<ntsc>FALSE</ntsc>
						</rate>
						<start>8824</start>
						<end>8948</end>
						<in>0</in>
						<out>124</out>
						<pproTicksIn>0</pproTicksIn>
						<pproTicksOut>1259919360000</pproTicksOut>
						<file id="file-76"/>
						<sourcetrack>
							<mediatype>audio</mediatype>
							<trackindex>2</trackindex>
						</sourcetrack>
						<link>
							<linkclipref>clipitem-2399</linkclipref>
							<mediatype>audio</mediatype>
							<trackindex>17</trackindex>
							<clipindex>31</clipindex>
							<groupindex>1</groupindex>
						</link>
						<link>
							<linkclipref>clipitem-2570</linkclipref>
							<mediatype>audio</mediatype>
							<trackindex>18</trackindex>
							<clipindex>25</clipindex>
							<groupindex>1</groupindex>
						</link>
						<logginginfo>
							<description></description>
							<scene></scene>
							<shottake></shottake>
							<lognote></lognote>
						</logginginfo>
						<labels>
							<label2>Caribbean</label2>
						</labels>
					</clipitem>
					<clipitem id="clipitem-2571" premiereChannelType="stereo">
						<masterclipid>masterclip-81</masterclipid>
						<name>Appalus anerkjennende med hoi.wav</name>
						<enabled>TRUE</enabled>
						<duration>168</duration>
						<rate>
							<timebase>25</timebase>
							<ntsc>FALSE</ntsc>
						</rate>
						<start>9029</start>
						<end>9152</end>
						<in>0</in>
						<out>123</out>
						<pproTicksIn>0</pproTicksIn>
						<pproTicksOut>1249758720000</pproTicksOut>
						<file id="file-77"/>
						<sourcetrack>
							<mediatype>audio</mediatype>
							<trackindex>2</trackindex>
						</sourcetrack>
						<link>
							<linkclipref>clipitem-2400</linkclipref>
							<mediatype>audio</mediatype>
							<trackindex>17</trackindex>
							<clipindex>32</clipindex>
							<groupindex>1</groupindex>
						</link>
						<link>
							<linkclipref>clipitem-2571</linkclipref>
							<mediatype>audio</mediatype>
							<trackindex>18</trackindex>
							<clipindex>26</clipindex>
							<groupindex>1</groupindex>
						</link>
						<logginginfo>
							<description></description>
							<scene></scene>
							<shottake></shottake>
							<lognote></lognote>
						</logginginfo>
						<labels>
							<label2>Caribbean</label2>
						</labels>
					</clipitem>
					<clipitem id="clipitem-2572" premiereChannelType="stereo">
						<masterclipid>masterclip-81</masterclipid>
						<name>Appalus anerkjennende med hoi.wav</name>
						<enabled>TRUE</enabled>
						<duration>168</duration>
						<rate>
							<timebase>25</timebase>
							<ntsc>FALSE</ntsc>
						</rate>
						<start>9152</start>
						<end>9214</end>
						<in>106</in>
						<out>168</out>
						<pproTicksIn>1077027840000</pproTicksIn>
						<pproTicksOut>1706987520000</pproTicksOut>
						<file id="file-77"/>
						<sourcetrack>
							<mediatype>audio</mediatype>
							<trackindex>2</trackindex>
						</sourcetrack>
						<link>
							<linkclipref>clipitem-2401</linkclipref>
							<mediatype>audio</mediatype>
							<trackindex>17</trackindex>
							<clipindex>33</clipindex>
							<groupindex>1</groupindex>
						</link>
						<link>
							<linkclipref>clipitem-2572</linkclipref>
							<mediatype>audio</mediatype>
							<trackindex>18</trackindex>
							<clipindex>27</clipindex>
							<groupindex>1</groupindex>
						</link>
						<logginginfo>
							<description></description>
							<scene></scene>
							<shottake></shottake>
							<lognote></lognote>
						</logginginfo>
						<labels>
							<label2>Caribbean</label2>
						</labels>
					</clipitem>
					<clipitem id="clipitem-2573" premiereChannelType="stereo">
						<masterclipid>masterclip-82</masterclipid>
						<name>Lite JA, Latter, kort dempet .wav</name>
						<enabled>TRUE</enabled>
						<duration>46</duration>
						<rate>
							<timebase>25</timebase>
							<ntsc>FALSE</ntsc>
						</rate>
						<start>9462</start>
						<end>9508</end>
						<in>0</in>
						<out>46</out>
						<pproTicksIn>0</pproTicksIn>
						<pproTicksOut>467389440000</pproTicksOut>
						<file id="file-78"/>
						<sourcetrack>
							<mediatype>audio</mediatype>
							<trackindex>2</trackindex>
						</sourcetrack>
						<link>
							<linkclipref>clipitem-2402</linkclipref>
							<mediatype>audio</mediatype>
							<trackindex>17</trackindex>
							<clipindex>34</clipindex>
							<groupindex>1</groupindex>
						</link>
						<link>
							<linkclipref>clipitem-2573</linkclipref>
							<mediatype>audio</mediatype>
							<trackindex>18</trackindex>
							<clipindex>28</clipindex>
							<groupindex>1</groupindex>
						</link>
						<logginginfo>
							<description></description>
							<scene></scene>
							<shottake></shottake>
							<lognote></lognote>
						</logginginfo>
						<labels>
							<label2>Caribbean</label2>
						</labels>
					</clipitem>
					<clipitem id="clipitem-2574" premiereChannelType="stereo">
						<masterclipid>masterclip-83</masterclipid>
						<name>Kort, meget behersket latter.wav</name>
						<enabled>TRUE</enabled>
						<duration>46</duration>
						<rate>
							<timebase>25</timebase>
							<ntsc>FALSE</ntsc>
						</rate>
						<start>9593</start>
						<end>9639</end>
						<in>0</in>
						<out>46</out>
						<pproTicksIn>0</pproTicksIn>
						<pproTicksOut>467389440000</pproTicksOut>
						<file id="file-79"/>
						<sourcetrack>
							<mediatype>audio</mediatype>
							<trackindex>2</trackindex>
						</sourcetrack>
						<link>
							<linkclipref>clipitem-2403</linkclipref>
							<mediatype>audio</mediatype>
							<trackindex>17</trackindex>
							<clipindex>35</clipindex>
							<groupindex>1</groupindex>
						</link>
						<link>
							<linkclipref>clipitem-2574</linkclipref>
							<mediatype>audio</mediatype>
							<trackindex>18</trackindex>
							<clipindex>29</clipindex>
							<groupindex>1</groupindex>
						</link>
						<logginginfo>
							<description></description>
							<scene></scene>
							<shottake></shottake>
							<lognote></lognote>
						</logginginfo>
						<labels>
							<label2>Caribbean</label2>
						</labels>
					</clipitem>
					<clipitem id="clipitem-2575" premiereChannelType="stereo">
						<masterclipid>masterclip-84</masterclipid>
						<name>Kort moderat latter.wav</name>
						<enabled>TRUE</enabled>
						<duration>45</duration>
						<rate>
							<timebase>25</timebase>
							<ntsc>FALSE</ntsc>
						</rate>
						<start>10287</start>
						<end>10332</end>
						<in>0</in>
						<out>45</out>
						<pproTicksIn>0</pproTicksIn>
						<pproTicksOut>457228800000</pproTicksOut>
						<file id="file-80"/>
						<sourcetrack>
							<mediatype>audio</mediatype>
							<trackindex>2</trackindex>
						</sourcetrack>
						<link>
							<linkclipref>clipitem-2404</linkclipref>
							<mediatype>audio</mediatype>
							<trackindex>17</trackindex>
							<clipindex>36</clipindex>
							<groupindex>1</groupindex>
						</link>
						<link>
							<linkclipref>clipitem-2575</linkclipref>
							<mediatype>audio</mediatype>
							<trackindex>18</trackindex>
							<clipindex>30</clipindex>
							<groupindex>1</groupindex>
						</link>
						<logginginfo>
							<description></description>
							<scene></scene>
							<shottake></shottake>
							<lognote></lognote>
						</logginginfo>
						<labels>
							<label2>Caribbean</label2>
						</labels>
					</clipitem>
					<clipitem id="clipitem-2576" premiereChannelType="stereo">
						<masterclipid>masterclip-10</masterclipid>
						<name>NNFA80750005AA.mxf</name>
						<enabled>TRUE</enabled>
						<duration>81126</duration>
						<rate>
							<timebase>25</timebase>
							<ntsc>FALSE</ntsc>
						</rate>
						<start>10559</start>
						<end>-1</end>
						<in>48682</in>
						<out>49024</out>
						<pproTicksIn>494640276480000</pproTicksIn>
						<pproTicksOut>498115215360000</pproTicksOut>
						<file id="file-8"/>
						<sourcetrack>
							<mediatype>audio</mediatype>
							<trackindex>2</trackindex>
						</sourcetrack>
							<filter>
								<effect>
									<name>Audio Levels</name>
									<effectid>audiolevels</effectid>
									<effectcategory>audiolevels</effectcategory>
									<effecttype>audiolevels</effecttype>
									<mediatype>audio</mediatype>
									<parameter authoringApp="PremierePro">
										<parameterid>level</parameterid>
										<name>Level</name>
										<valuemin>0</valuemin>
										<valuemax>3.98109</valuemax>
										<value>0.99763</value>
									</parameter>
								</effect>
							</filter>
						<link>
							<linkclipref>clipitem-299</linkclipref>
							<mediatype>video</mediatype>
							<trackindex>3</trackindex>
							<clipindex>29</clipindex>
						</link>
						<link>
							<linkclipref>clipitem-2405</linkclipref>
							<mediatype>audio</mediatype>
							<trackindex>17</trackindex>
							<clipindex>37</clipindex>
							<groupindex>1</groupindex>
						</link>
						<link>
							<linkclipref>clipitem-2576</linkclipref>
							<mediatype>audio</mediatype>
							<trackindex>18</trackindex>
							<clipindex>31</clipindex>
							<groupindex>1</groupindex>
						</link>
						<logginginfo>
							<description></description>
							<scene></scene>
							<shottake></shottake>
							<lognote></lognote>
						</logginginfo>
						<labels>
							<label2>Iris</label2>
						</labels>
					</clipitem>
					<transitionitem>
						<start>10897</start>
						<end>10901</end>
						<alignment>end-black</alignment>
						<cutPointTicks>40642560000</cutPointTicks>
						<rate>
							<timebase>25</timebase>
							<ntsc>FALSE</ntsc>
						</rate>
						<effect>
							<name>Cross Fade (+3dB)</name>
							<effectid>KGAudioTransCrossFade3dB</effectid>
							<effecttype>transition</effecttype>
							<mediatype>audio</mediatype>
							<wipecode>0</wipecode>
							<wipeaccuracy>100</wipeaccuracy>
							<startratio>0</startratio>
							<endratio>1</endratio>
							<reverse>FALSE</reverse>
						</effect>
					</transitionitem>
					<clipitem id="clipitem-2577" premiereChannelType="stereo">
						<masterclipid>masterclip-85</masterclipid>
						<name>Latter, liten.wav</name>
						<enabled>TRUE</enabled>
						<duration>41</duration>
						<rate>
							<timebase>25</timebase>
							<ntsc>FALSE</ntsc>
						</rate>
						<start>11240</start>
						<end>11281</end>
						<in>0</in>
						<out>41</out>
						<pproTicksIn>0</pproTicksIn>
						<pproTicksOut>416586240000</pproTicksOut>
						<file id="file-81"/>
						<sourcetrack>
							<mediatype>audio</mediatype>
							<trackindex>2</trackindex>
						</sourcetrack>
						<link>
							<linkclipref>clipitem-2406</linkclipref>
							<mediatype>audio</mediatype>
							<trackindex>17</trackindex>
							<clipindex>39</clipindex>
							<groupindex>1</groupindex>
						</link>
						<link>
							<linkclipref>clipitem-2577</linkclipref>
							<mediatype>audio</mediatype>
							<trackindex>18</trackindex>
							<clipindex>33</clipindex>
							<groupindex>1</groupindex>
						</link>
						<logginginfo>
							<description></description>
							<scene></scene>
							<shottake></shottake>
							<lognote></lognote>
						</logginginfo>
						<labels>
							<label2>Caribbean</label2>
						</labels>
					</clipitem>
					<clipitem id="clipitem-2578" premiereChannelType="stereo">
						<masterclipid>masterclip-86</masterclipid>
						<name>Latter liten kort 1 sek.wav</name>
						<enabled>TRUE</enabled>
						<duration>42</duration>
						<rate>
							<timebase>25</timebase>
							<ntsc>FALSE</ntsc>
						</rate>
						<start>12007</start>
						<end>12049</end>
						<in>0</in>
						<out>42</out>
						<pproTicksIn>0</pproTicksIn>
						<pproTicksOut>426746880000</pproTicksOut>
						<file id="file-82"/>
						<sourcetrack>
							<mediatype>audio</mediatype>
							<trackindex>2</trackindex>
						</sourcetrack>
						<link>
							<linkclipref>clipitem-2407</linkclipref>
							<mediatype>audio</mediatype>
							<trackindex>17</trackindex>
							<clipindex>40</clipindex>
							<groupindex>1</groupindex>
						</link>
						<link>
							<linkclipref>clipitem-2578</linkclipref>
							<mediatype>audio</mediatype>
							<trackindex>18</trackindex>
							<clipindex>34</clipindex>
							<groupindex>1</groupindex>
						</link>
						<logginginfo>
							<description></description>
							<scene></scene>
							<shottake></shottake>
							<lognote></lognote>
						</logginginfo>
						<labels>
							<label2>Caribbean</label2>
						</labels>
					</clipitem>
					<clipitem id="clipitem-2579" premiereChannelType="stereo">
						<masterclipid>masterclip-26</masterclipid>
						<name>fk-05-hareide-3brodre-r.mxf</name>
						<enabled>TRUE</enabled>
						<duration>3876</duration>
						<rate>
							<timebase>25</timebase>
							<ntsc>FALSE</ntsc>
						</rate>
						<start>12284</start>
						<end>-1</end>
						<in>258</in>
						<out>478</out>
						<pproTicksIn>2621445120000</pproTicksIn>
						<pproTicksOut>4856785920000</pproTicksOut>
						<file id="file-22"/>
						<sourcetrack>
							<mediatype>audio</mediatype>
							<trackindex>2</trackindex>
						</sourcetrack>
							<filter>
								<effect>
									<name>Audio Levels</name>
									<effectid>audiolevels</effectid>
									<effectcategory>audiolevels</effectcategory>
									<effecttype>audiolevels</effecttype>
									<mediatype>audio</mediatype>
									<parameter authoringApp="PremierePro">
										<parameterid>level</parameterid>
										<name>Level</name>
										<valuemin>0</valuemin>
										<valuemax>3.98109</valuemax>
										<value>0.792446</value>
									</parameter>
								</effect>
							</filter>
						<link>
							<linkclipref>clipitem-2408</linkclipref>
							<mediatype>audio</mediatype>
							<trackindex>17</trackindex>
							<clipindex>41</clipindex>
							<groupindex>1</groupindex>
						</link>
						<link>
							<linkclipref>clipitem-2579</linkclipref>
							<mediatype>audio</mediatype>
							<trackindex>18</trackindex>
							<clipindex>35</clipindex>
							<groupindex>1</groupindex>
						</link>
						<logginginfo>
							<description></description>
							<scene></scene>
							<shottake></shottake>
							<lognote></lognote>
						</logginginfo>
						<labels>
							<label2>Iris</label2>
						</labels>
					</clipitem>
					<transitionitem>
						<start>12491</start>
						<end>12504</end>
						<alignment>center</alignment>
						<cutPointTicks>60963840000</cutPointTicks>
						<rate>
							<timebase>25</timebase>
							<ntsc>FALSE</ntsc>
						</rate>
						<effect>
							<name>Cross Fade (+3dB)</name>
							<effectid>KGAudioTransCrossFade3dB</effectid>
							<effecttype>transition</effecttype>
							<mediatype>audio</mediatype>
							<wipecode>0</wipecode>
							<wipeaccuracy>100</wipeaccuracy>
							<startratio>0</startratio>
							<endratio>1</endratio>
							<reverse>FALSE</reverse>
						</effect>
					</transitionitem>
					<clipitem id="clipitem-2580" premiereChannelType="stereo">
						<masterclipid>masterclip-26</masterclipid>
						<name>fk-05-hareide-3brodre-r.mxf</name>
						<enabled>TRUE</enabled>
						<duration>3876</duration>
						<rate>
							<timebase>25</timebase>
							<ntsc>FALSE</ntsc>
						</rate>
						<start>-1</start>
						<end>-1</end>
						<in>1887</in>
						<out>2590</out>
						<pproTicksIn>19173127680000</pproTicksIn>
						<pproTicksOut>26316057600000</pproTicksOut>
						<file id="file-22"/>
						<sourcetrack>
							<mediatype>audio</mediatype>
							<trackindex>2</trackindex>
						</sourcetrack>
							<filter>
								<effect>
									<name>Audio Levels</name>
									<effectid>audiolevels</effectid>
									<effectcategory>audiolevels</effectcategory>
									<effecttype>audiolevels</effecttype>
									<mediatype>audio</mediatype>
									<parameter authoringApp="PremierePro">
										<parameterid>level</parameterid>
										<name>Level</name>
										<valuemin>0</valuemin>
										<valuemax>3.98109</valuemax>
										<value>0.99763</value>
									</parameter>
								</effect>
							</filter>
						<link>
							<linkclipref>clipitem-2409</linkclipref>
							<mediatype>audio</mediatype>
							<trackindex>17</trackindex>
							<clipindex>43</clipindex>
							<groupindex>1</groupindex>
						</link>
						<link>
							<linkclipref>clipitem-2580</linkclipref>
							<mediatype>audio</mediatype>
							<trackindex>18</trackindex>
							<clipindex>37</clipindex>
							<groupindex>1</groupindex>
						</link>
						<logginginfo>
							<description></description>
							<scene></scene>
							<shottake></shottake>
							<lognote></lognote>
						</logginginfo>
						<labels>
							<label2>Iris</label2>
						</labels>
					</clipitem>
					<transitionitem>
						<start>13186</start>
						<end>13194</end>
						<alignment>end-black</alignment>
						<cutPointTicks>81285120000</cutPointTicks>
						<rate>
							<timebase>25</timebase>
							<ntsc>FALSE</ntsc>
						</rate>
						<effect>
							<name>Cross Fade (+3dB)</name>
							<effectid>KGAudioTransCrossFade3dB</effectid>
							<effecttype>transition</effecttype>
							<mediatype>audio</mediatype>
							<wipecode>0</wipecode>
							<wipeaccuracy>100</wipeaccuracy>
							<startratio>0</startratio>
							<endratio>1</endratio>
							<reverse>FALSE</reverse>
						</effect>
					</transitionitem>
					<clipitem id="clipitem-2581" premiereChannelType="stereo">
						<masterclipid>masterclip-87</masterclipid>
						<name>HOTorNOT-KJENDISTOPPEN-Apollo_SMX_143_63__Bumper_Funky_1__Jeremy_A._Sweet.mp3</name>
						<enabled>TRUE</enabled>
						<duration>248</duration>
						<rate>
							<timebase>25</timebase>
							<ntsc>FALSE</ntsc>
						</rate>
						<start>13353</start>
						<end>13557</end>
						<in>0</in>
						<out>204</out>
						<pproTicksIn>0</pproTicksIn>
						<pproTicksOut>2072770560000</pproTicksOut>
						<file id="file-83"/>
						<sourcetrack>
							<mediatype>audio</mediatype>
							<trackindex>2</trackindex>
						</sourcetrack>
							<filter>
								<effect>
									<name>Audio Levels</name>
									<effectid>audiolevels</effectid>
									<effectcategory>audiolevels</effectcategory>
									<effecttype>audiolevels</effecttype>
									<mediatype>audio</mediatype>
									<parameter authoringApp="PremierePro">
										<parameterid>level</parameterid>
										<name>Level</name>
										<valuemin>0</valuemin>
										<valuemax>3.98109</valuemax>
										<value>0.28117</value>
									</parameter>
								</effect>
							</filter>
						<link>
							<linkclipref>clipitem-2410</linkclipref>
							<mediatype>audio</mediatype>
							<trackindex>17</trackindex>
							<clipindex>45</clipindex>
							<groupindex>1</groupindex>
						</link>
						<link>
							<linkclipref>clipitem-2581</linkclipref>
							<mediatype>audio</mediatype>
							<trackindex>18</trackindex>
							<clipindex>39</clipindex>
							<groupindex>1</groupindex>
						</link>
						<logginginfo>
							<description></description>
							<scene></scene>
							<shottake></shottake>
							<lognote></lognote>
						</logginginfo>
						<labels>
							<label2>Caribbean</label2>
						</labels>
					</clipitem>
					<clipitem id="clipitem-2582" premiereChannelType="stereo">
						<masterclipid>masterclip-88</masterclipid>
						<name>Latter hehehe.wav</name>
						<enabled>TRUE</enabled>
						<duration>30</duration>
						<rate>
							<timebase>25</timebase>
							<ntsc>FALSE</ntsc>
						</rate>
						<start>13856</start>
						<end>13886</end>
						<in>0</in>
						<out>30</out>
						<pproTicksIn>0</pproTicksIn>
						<pproTicksOut>304819200000</pproTicksOut>
						<file id="file-84"/>
						<sourcetrack>
							<mediatype>audio</mediatype>
							<trackindex>2</trackindex>
						</sourcetrack>
						<link>
							<linkclipref>clipitem-2411</linkclipref>
							<mediatype>audio</mediatype>
							<trackindex>17</trackindex>
							<clipindex>46</clipindex>
							<groupindex>1</groupindex>
						</link>
						<link>
							<linkclipref>clipitem-2582</linkclipref>
							<mediatype>audio</mediatype>
							<trackindex>18</trackindex>
							<clipindex>40</clipindex>
							<groupindex>1</groupindex>
						</link>
						<logginginfo>
							<description></description>
							<scene></scene>
							<shottake></shottake>
							<lognote></lognote>
						</logginginfo>
						<labels>
							<label2>Caribbean</label2>
						</labels>
					</clipitem>
					<clipitem id="clipitem-2583" premiereChannelType="stereo">
						<masterclipid>masterclip-79</masterclipid>
						<name>Latter dempet.wav</name>
						<enabled>TRUE</enabled>
						<duration>66</duration>
						<rate>
							<timebase>25</timebase>
							<ntsc>FALSE</ntsc>
						</rate>
						<start>14576</start>
						<end>14642</end>
						<in>0</in>
						<out>66</out>
						<pproTicksIn>0</pproTicksIn>
						<pproTicksOut>670602240000</pproTicksOut>
						<file id="file-75"/>
						<sourcetrack>
							<mediatype>audio</mediatype>
							<trackindex>2</trackindex>
						</sourcetrack>
						<link>
							<linkclipref>clipitem-2412</linkclipref>
							<mediatype>audio</mediatype>
							<trackindex>17</trackindex>
							<clipindex>47</clipindex>
							<groupindex>1</groupindex>
						</link>
						<link>
							<linkclipref>clipitem-2583</linkclipref>
							<mediatype>audio</mediatype>
							<trackindex>18</trackindex>
							<clipindex>41</clipindex>
							<groupindex>1</groupindex>
						</link>
						<logginginfo>
							<description></description>
							<scene></scene>
							<shottake></shottake>
							<lognote></lognote>
						</logginginfo>
						<labels>
							<label2>Caribbean</label2>
						</labels>
					</clipitem>
					<clipitem id="clipitem-2584" premiereChannelType="stereo">
						<masterclipid>masterclip-73</masterclipid>
						<name>Klukklatter, kort.wav</name>
						<enabled>TRUE</enabled>
						<duration>56</duration>
						<rate>
							<timebase>25</timebase>
							<ntsc>FALSE</ntsc>
						</rate>
						<start>14851</start>
						<end>14907</end>
						<in>0</in>
						<out>56</out>
						<pproTicksIn>0</pproTicksIn>
						<pproTicksOut>568995840000</pproTicksOut>
						<file id="file-69"/>
						<sourcetrack>
							<mediatype>audio</mediatype>
							<trackindex>2</trackindex>
						</sourcetrack>
							<filter>
								<effect>
									<name>Audio Levels</name>
									<effectid>audiolevels</effectid>
									<effectcategory>audiolevels</effectcategory>
									<effecttype>audiolevels</effecttype>
									<mediatype>audio</mediatype>
									<parameter authoringApp="PremierePro">
										<parameterid>level</parameterid>
										<name>Level</name>
										<valuemin>0</valuemin>
										<valuemax>3.98109</valuemax>
										<value>0.99763</value>
									</parameter>
								</effect>
							</filter>
						<link>
							<linkclipref>clipitem-2413</linkclipref>
							<mediatype>audio</mediatype>
							<trackindex>17</trackindex>
							<clipindex>48</clipindex>
							<groupindex>1</groupindex>
						</link>
						<link>
							<linkclipref>clipitem-2584</linkclipref>
							<mediatype>audio</mediatype>
							<trackindex>18</trackindex>
							<clipindex>42</clipindex>
							<groupindex>1</groupindex>
						</link>
						<logginginfo>
							<description></description>
							<scene></scene>
							<shottake></shottake>
							<lognote></lognote>
						</logginginfo>
						<labels>
							<label2>Caribbean</label2>
						</labels>
					</clipitem>
					<clipitem id="clipitem-2585" premiereChannelType="stereo">
						<masterclipid>masterclip-88</masterclipid>
						<name>Latter hehehe.wav</name>
						<enabled>TRUE</enabled>
						<duration>30</duration>
						<rate>
							<timebase>25</timebase>
							<ntsc>FALSE</ntsc>
						</rate>
						<start>14983</start>
						<end>15013</end>
						<in>0</in>
						<out>30</out>
						<pproTicksIn>0</pproTicksIn>
						<pproTicksOut>304819200000</pproTicksOut>
						<file id="file-84"/>
						<sourcetrack>
							<mediatype>audio</mediatype>
							<trackindex>2</trackindex>
						</sourcetrack>
							<filter>
								<effect>
									<name>Audio Levels</name>
									<effectid>audiolevels</effectid>
									<effectcategory>audiolevels</effectcategory>
									<effecttype>audiolevels</effecttype>
									<mediatype>audio</mediatype>
									<parameter authoringApp="PremierePro">
										<parameterid>level</parameterid>
										<name>Level</name>
										<valuemin>0</valuemin>
										<valuemax>3.98109</valuemax>
										<value>0.99763</value>
									</parameter>
								</effect>
							</filter>
						<link>
							<linkclipref>clipitem-2414</linkclipref>
							<mediatype>audio</mediatype>
							<trackindex>17</trackindex>
							<clipindex>49</clipindex>
							<groupindex>1</groupindex>
						</link>
						<link>
							<linkclipref>clipitem-2585</linkclipref>
							<mediatype>audio</mediatype>
							<trackindex>18</trackindex>
							<clipindex>43</clipindex>
							<groupindex>1</groupindex>
						</link>
						<logginginfo>
							<description></description>
							<scene></scene>
							<shottake></shottake>
							<lognote></lognote>
						</logginginfo>
						<labels>
							<label2>Caribbean</label2>
						</labels>
					</clipitem>
					<clipitem id="clipitem-2586" premiereChannelType="stereo">
						<masterclipid>masterclip-80</masterclipid>
						<name>Latter behersket.wav</name>
						<enabled>TRUE</enabled>
						<duration>124</duration>
						<rate>
							<timebase>25</timebase>
							<ntsc>FALSE</ntsc>
						</rate>
						<start>15016</start>
						<end>15129</end>
						<in>0</in>
						<out>113</out>
						<pproTicksIn>0</pproTicksIn>
						<pproTicksOut>1148152320000</pproTicksOut>
						<file id="file-76"/>
						<sourcetrack>
							<mediatype>audio</mediatype>
							<trackindex>2</trackindex>
						</sourcetrack>
						<link>
							<linkclipref>clipitem-2415</linkclipref>
							<mediatype>audio</mediatype>
							<trackindex>17</trackindex>
							<clipindex>50</clipindex>
							<groupindex>1</groupindex>
						</link>
						<link>
							<linkclipref>clipitem-2586</linkclipref>
							<mediatype>audio</mediatype>
							<trackindex>18</trackindex>
							<clipindex>44</clipindex>
							<groupindex>1</groupindex>
						</link>
						<logginginfo>
							<description></description>
							<scene></scene>
							<shottake></shottake>
							<lognote></lognote>
						</logginginfo>
						<labels>
							<label2>Caribbean</label2>
						</labels>
					</clipitem>
					<clipitem id="clipitem-2587" premiereChannelType="stereo">
						<masterclipid>masterclip-80</masterclipid>
						<name>Latter behersket.wav</name>
						<enabled>TRUE</enabled>
						<duration>124</duration>
						<rate>
							<timebase>25</timebase>
							<ntsc>FALSE</ntsc>
						</rate>
						<start>15129</start>
						<end>15134</end>
						<in>119</in>
						<out>124</out>
						<pproTicksIn>1209116160000</pproTicksIn>
						<pproTicksOut>1259919360000</pproTicksOut>
						<file id="file-76"/>
						<sourcetrack>
							<mediatype>audio</mediatype>
							<trackindex>2</trackindex>
						</sourcetrack>
						<link>
							<linkclipref>clipitem-2416</linkclipref>
							<mediatype>audio</mediatype>
							<trackindex>17</trackindex>
							<clipindex>51</clipindex>
							<groupindex>1</groupindex>
						</link>
						<link>
							<linkclipref>clipitem-2587</linkclipref>
							<mediatype>audio</mediatype>
							<trackindex>18</trackindex>
							<clipindex>45</clipindex>
							<groupindex>1</groupindex>
						</link>
						<logginginfo>
							<description></description>
							<scene></scene>
							<shottake></shottake>
							<lognote></lognote>
						</logginginfo>
						<labels>
							<label2>Caribbean</label2>
						</labels>
					</clipitem>
					<clipitem id="clipitem-2588" premiereChannelType="stereo">
						<masterclipid>masterclip-89</masterclipid>
						<name>Applaus behersket litt hoi 5 sek.wav</name>
						<enabled>TRUE</enabled>
						<duration>125</duration>
						<rate>
							<timebase>25</timebase>
							<ntsc>FALSE</ntsc>
						</rate>
						<start>15166</start>
						<end>15291</end>
						<in>0</in>
						<out>125</out>
						<pproTicksIn>0</pproTicksIn>
						<pproTicksOut>1270080000000</pproTicksOut>
						<file id="file-85"/>
						<sourcetrack>
							<mediatype>audio</mediatype>
							<trackindex>2</trackindex>
						</sourcetrack>
						<link>
							<linkclipref>clipitem-2417</linkclipref>
							<mediatype>audio</mediatype>
							<trackindex>17</trackindex>
							<clipindex>52</clipindex>
							<groupindex>1</groupindex>
						</link>
						<link>
							<linkclipref>clipitem-2588</linkclipref>
							<mediatype>audio</mediatype>
							<trackindex>18</trackindex>
							<clipindex>46</clipindex>
							<groupindex>1</groupindex>
						</link>
						<logginginfo>
							<description></description>
							<scene></scene>
							<shottake></shottake>
							<lognote></lognote>
						</logginginfo>
						<labels>
							<label2>Caribbean</label2>
						</labels>
					</clipitem>
					<clipitem id="clipitem-2589" premiereChannelType="stereo">
						<masterclipid>masterclip-90</masterclipid>
						<name>Liten behersket latter.wav</name>
						<enabled>TRUE</enabled>
						<duration>60</duration>
						<rate>
							<timebase>25</timebase>
							<ntsc>FALSE</ntsc>
						</rate>
						<start>15830</start>
						<end>15890</end>
						<in>0</in>
						<out>60</out>
						<pproTicksIn>0</pproTicksIn>
						<pproTicksOut>609638400000</pproTicksOut>
						<file id="file-86"/>
						<sourcetrack>
							<mediatype>audio</mediatype>
							<trackindex>2</trackindex>
						</sourcetrack>
						<link>
							<linkclipref>clipitem-2418</linkclipref>
							<mediatype>audio</mediatype>
							<trackindex>17</trackindex>
							<clipindex>53</clipindex>
							<groupindex>1</groupindex>
						</link>
						<link>
							<linkclipref>clipitem-2589</linkclipref>
							<mediatype>audio</mediatype>
							<trackindex>18</trackindex>
							<clipindex>47</clipindex>
							<groupindex>1</groupindex>
						</link>
						<logginginfo>
							<description></description>
							<scene></scene>
							<shottake></shottake>
							<lognote></lognote>
						</logginginfo>
						<labels>
							<label2>Caribbean</label2>
						</labels>
					</clipitem>
					<clipitem id="clipitem-2590" premiereChannelType="stereo">
						<masterclipid>masterclip-91</masterclipid>
						<name>Medium latterkule.wav</name>
						<enabled>TRUE</enabled>
						<duration>121</duration>
						<rate>
							<timebase>25</timebase>
							<ntsc>FALSE</ntsc>
						</rate>
						<start>16167</start>
						<end>16204</end>
						<in>0</in>
						<out>37</out>
						<pproTicksIn>0</pproTicksIn>
						<pproTicksOut>375943680000</pproTicksOut>
						<file id="file-87"/>
						<sourcetrack>
							<mediatype>audio</mediatype>
							<trackindex>2</trackindex>
						</sourcetrack>
						<link>
							<linkclipref>clipitem-2419</linkclipref>
							<mediatype>audio</mediatype>
							<trackindex>17</trackindex>
							<clipindex>54</clipindex>
							<groupindex>1</groupindex>
						</link>
						<link>
							<linkclipref>clipitem-2590</linkclipref>
							<mediatype>audio</mediatype>
							<trackindex>18</trackindex>
							<clipindex>48</clipindex>
							<groupindex>1</groupindex>
						</link>
						<logginginfo>
							<description></description>
							<scene></scene>
							<shottake></shottake>
							<lognote></lognote>
						</logginginfo>
						<labels>
							<label2>Caribbean</label2>
						</labels>
					</clipitem>
					<clipitem id="clipitem-2591" premiereChannelType="stereo">
						<masterclipid>masterclip-91</masterclipid>
						<name>Medium latterkule.wav</name>
						<enabled>TRUE</enabled>
						<duration>121</duration>
						<rate>
							<timebase>25</timebase>
							<ntsc>FALSE</ntsc>
						</rate>
						<start>16204</start>
						<end>16288</end>
						<in>37</in>
						<out>121</out>
						<pproTicksIn>375943680000</pproTicksIn>
						<pproTicksOut>1229437440000</pproTicksOut>
						<file id="file-87"/>
						<sourcetrack>
							<mediatype>audio</mediatype>
							<trackindex>2</trackindex>
						</sourcetrack>
						<link>
							<linkclipref>clipitem-2420</linkclipref>
							<mediatype>audio</mediatype>
							<trackindex>17</trackindex>
							<clipindex>55</clipindex>
							<groupindex>1</groupindex>
						</link>
						<link>
							<linkclipref>clipitem-2591</linkclipref>
							<mediatype>audio</mediatype>
							<trackindex>18</trackindex>
							<clipindex>49</clipindex>
							<groupindex>1</groupindex>
						</link>
						<logginginfo>
							<description></description>
							<scene></scene>
							<shottake></shottake>
							<lognote></lognote>
						</logginginfo>
						<labels>
							<label2>Caribbean</label2>
						</labels>
					</clipitem>
					<clipitem id="clipitem-2592" premiereChannelType="stereo">
						<masterclipid>masterclip-92</masterclipid>
						<name>Hjertelig klukklatter.wav</name>
						<enabled>TRUE</enabled>
						<duration>55</duration>
						<rate>
							<timebase>25</timebase>
							<ntsc>FALSE</ntsc>
						</rate>
						<start>16305</start>
						<end>16360</end>
						<in>0</in>
						<out>55</out>
						<pproTicksIn>0</pproTicksIn>
						<pproTicksOut>558835200000</pproTicksOut>
						<file id="file-88"/>
						<sourcetrack>
							<mediatype>audio</mediatype>
							<trackindex>2</trackindex>
						</sourcetrack>
						<link>
							<linkclipref>clipitem-2421</linkclipref>
							<mediatype>audio</mediatype>
							<trackindex>17</trackindex>
							<clipindex>56</clipindex>
							<groupindex>1</groupindex>
						</link>
						<link>
							<linkclipref>clipitem-2592</linkclipref>
							<mediatype>audio</mediatype>
							<trackindex>18</trackindex>
							<clipindex>50</clipindex>
							<groupindex>1</groupindex>
						</link>
						<logginginfo>
							<description></description>
							<scene></scene>
							<shottake></shottake>
							<lognote></lognote>
						</logginginfo>
						<labels>
							<label2>Caribbean</label2>
						</labels>
					</clipitem>
					<clipitem id="clipitem-2593" premiereChannelType="stereo">
						<masterclipid>masterclip-93</masterclipid>
						<name>Kort artigere latterkule.wav</name>
						<enabled>TRUE</enabled>
						<duration>57</duration>
						<rate>
							<timebase>25</timebase>
							<ntsc>FALSE</ntsc>
						</rate>
						<start>16360</start>
						<end>16417</end>
						<in>0</in>
						<out>57</out>
						<pproTicksIn>0</pproTicksIn>
						<pproTicksOut>579156480000</pproTicksOut>
						<file id="file-89"/>
						<sourcetrack>
							<mediatype>audio</mediatype>
							<trackindex>2</trackindex>
						</sourcetrack>
						<link>
							<linkclipref>clipitem-2422</linkclipref>
							<mediatype>audio</mediatype>
							<trackindex>17</trackindex>
							<clipindex>57</clipindex>
							<groupindex>1</groupindex>
						</link>
						<link>
							<linkclipref>clipitem-2593</linkclipref>
							<mediatype>audio</mediatype>
							<trackindex>18</trackindex>
							<clipindex>51</clipindex>
							<groupindex>1</groupindex>
						</link>
						<logginginfo>
							<description></description>
							<scene></scene>
							<shottake></shottake>
							<lognote></lognote>
						</logginginfo>
						<labels>
							<label2>Caribbean</label2>
						</labels>
					</clipitem>
					<clipitem id="clipitem-2594" premiereChannelType="stereo">
						<masterclipid>masterclip-94</masterclipid>
						<name>Kort fnis, klukking.wav</name>
						<enabled>TRUE</enabled>
						<duration>68</duration>
						<rate>
							<timebase>25</timebase>
							<ntsc>FALSE</ntsc>
						</rate>
						<start>16543</start>
						<end>16611</end>
						<in>0</in>
						<out>68</out>
						<pproTicksIn>0</pproTicksIn>
						<pproTicksOut>690923520000</pproTicksOut>
						<file id="file-90"/>
						<sourcetrack>
							<mediatype>audio</mediatype>
							<trackindex>2</trackindex>
						</sourcetrack>
							<filter>
								<effect>
									<name>Audio Levels</name>
									<effectid>audiolevels</effectid>
									<effectcategory>audiolevels</effectcategory>
									<effecttype>audiolevels</effecttype>
									<mediatype>audio</mediatype>
									<parameter authoringApp="PremierePro">
										<parameterid>level</parameterid>
										<name>Level</name>
										<valuemin>0</valuemin>
										<valuemax>3.98109</valuemax>
										<value>0.99763</value>
									</parameter>
								</effect>
							</filter>
						<link>
							<linkclipref>clipitem-2423</linkclipref>
							<mediatype>audio</mediatype>
							<trackindex>17</trackindex>
							<clipindex>58</clipindex>
							<groupindex>1</groupindex>
						</link>
						<link>
							<linkclipref>clipitem-2594</linkclipref>
							<mediatype>audio</mediatype>
							<trackindex>18</trackindex>
							<clipindex>52</clipindex>
							<groupindex>1</groupindex>
						</link>
						<logginginfo>
							<description></description>
							<scene></scene>
							<shottake></shottake>
							<lognote></lognote>
						</logginginfo>
						<labels>
							<label2>Caribbean</label2>
						</labels>
					</clipitem>
					<clipitem id="clipitem-2595" premiereChannelType="stereo">
						<masterclipid>masterclip-95</masterclipid>
						<name>Kort rask latter.wav</name>
						<enabled>TRUE</enabled>
						<duration>80</duration>
						<rate>
							<timebase>25</timebase>
							<ntsc>FALSE</ntsc>
						</rate>
						<start>16766</start>
						<end>16846</end>
						<in>0</in>
						<out>80</out>
						<pproTicksIn>0</pproTicksIn>
						<pproTicksOut>812851200000</pproTicksOut>
						<file id="file-91"/>
						<sourcetrack>
							<mediatype>audio</mediatype>
							<trackindex>2</trackindex>
						</sourcetrack>
							<filter>
								<effect>
									<name>Audio Levels</name>
									<effectid>audiolevels</effectid>
									<effectcategory>audiolevels</effectcategory>
									<effecttype>audiolevels</effecttype>
									<mediatype>audio</mediatype>
									<parameter authoringApp="PremierePro">
										<parameterid>level</parameterid>
										<name>Level</name>
										<valuemin>0</valuemin>
										<valuemax>3.98109</valuemax>
										<value>0.99763</value>
									</parameter>
								</effect>
							</filter>
						<link>
							<linkclipref>clipitem-2424</linkclipref>
							<mediatype>audio</mediatype>
							<trackindex>17</trackindex>
							<clipindex>59</clipindex>
							<groupindex>1</groupindex>
						</link>
						<link>
							<linkclipref>clipitem-2595</linkclipref>
							<mediatype>audio</mediatype>
							<trackindex>18</trackindex>
							<clipindex>53</clipindex>
							<groupindex>1</groupindex>
						</link>
						<logginginfo>
							<description></description>
							<scene></scene>
							<shottake></shottake>
							<lognote></lognote>
						</logginginfo>
						<labels>
							<label2>Caribbean</label2>
						</labels>
					</clipitem>
					<clipitem id="clipitem-2596" premiereChannelType="stereo">
						<masterclipid>masterclip-96</masterclipid>
						<name>Klukking, humring.wav</name>
						<enabled>TRUE</enabled>
						<duration>61</duration>
						<rate>
							<timebase>25</timebase>
							<ntsc>FALSE</ntsc>
						</rate>
						<start>16891</start>
						<end>16952</end>
						<in>0</in>
						<out>61</out>
						<pproTicksIn>0</pproTicksIn>
						<pproTicksOut>619799040000</pproTicksOut>
						<file id="file-92"/>
						<sourcetrack>
							<mediatype>audio</mediatype>
							<trackindex>2</trackindex>
						</sourcetrack>
							<filter>
								<effect>
									<name>Audio Levels</name>
									<effectid>audiolevels</effectid>
									<effectcategory>audiolevels</effectcategory>
									<effecttype>audiolevels</effecttype>
									<mediatype>audio</mediatype>
									<parameter authoringApp="PremierePro">
										<parameterid>level</parameterid>
										<name>Level</name>
										<valuemin>0</valuemin>
										<valuemax>3.98109</valuemax>
										<value>1.95059</value>
									</parameter>
								</effect>
							</filter>
						<link>
							<linkclipref>clipitem-2425</linkclipref>
							<mediatype>audio</mediatype>
							<trackindex>17</trackindex>
							<clipindex>60</clipindex>
							<groupindex>1</groupindex>
						</link>
						<link>
							<linkclipref>clipitem-2596</linkclipref>
							<mediatype>audio</mediatype>
							<trackindex>18</trackindex>
							<clipindex>54</clipindex>
							<groupindex>1</groupindex>
						</link>
						<logginginfo>
							<description></description>
							<scene></scene>
							<shottake></shottake>
							<lognote></lognote>
						</logginginfo>
						<labels>
							<label2>Caribbean</label2>
						</labels>
					</clipitem>
					<clipitem id="clipitem-2597" premiereChannelType="stereo">
						<masterclipid>masterclip-91</masterclipid>
						<name>Medium latterkule.wav</name>
						<enabled>TRUE</enabled>
						<duration>121</duration>
						<rate>
							<timebase>25</timebase>
							<ntsc>FALSE</ntsc>
						</rate>
						<start>17771</start>
						<end>17860</end>
						<in>0</in>
						<out>89</out>
						<pproTicksIn>0</pproTicksIn>
						<pproTicksOut>904296960000</pproTicksOut>
						<file id="file-87"/>
						<sourcetrack>
							<mediatype>audio</mediatype>
							<trackindex>2</trackindex>
						</sourcetrack>
							<filter>
								<effect>
									<name>Audio Levels</name>
									<effectid>audiolevels</effectid>
									<effectcategory>audiolevels</effectcategory>
									<effecttype>audiolevels</effecttype>
									<mediatype>audio</mediatype>
									<parameter authoringApp="PremierePro">
										<parameterid>level</parameterid>
										<name>Level</name>
										<valuemin>0</valuemin>
										<valuemax>3.98109</valuemax>
										<value>0.99763</value>
									</parameter>
								</effect>
							</filter>
						<link>
							<linkclipref>clipitem-2426</linkclipref>
							<mediatype>audio</mediatype>
							<trackindex>17</trackindex>
							<clipindex>61</clipindex>
							<groupindex>1</groupindex>
						</link>
						<link>
							<linkclipref>clipitem-2597</linkclipref>
							<mediatype>audio</mediatype>
							<trackindex>18</trackindex>
							<clipindex>55</clipindex>
							<groupindex>1</groupindex>
						</link>
						<logginginfo>
							<description></description>
							<scene></scene>
							<shottake></shottake>
							<lognote></lognote>
						</logginginfo>
						<labels>
							<label2>Caribbean</label2>
						</labels>
					</clipitem>
					<clipitem id="clipitem-2598" premiereChannelType="stereo">
						<masterclipid>masterclip-91</masterclipid>
						<name>Medium latterkule.wav</name>
						<enabled>TRUE</enabled>
						<duration>121</duration>
						<rate>
							<timebase>25</timebase>
							<ntsc>FALSE</ntsc>
						</rate>
						<start>17882</start>
						<end>17919</end>
						<in>0</in>
						<out>37</out>
						<pproTicksIn>0</pproTicksIn>
						<pproTicksOut>375943680000</pproTicksOut>
						<file id="file-87"/>
						<sourcetrack>
							<mediatype>audio</mediatype>
							<trackindex>2</trackindex>
						</sourcetrack>
						<link>
							<linkclipref>clipitem-2427</linkclipref>
							<mediatype>audio</mediatype>
							<trackindex>17</trackindex>
							<clipindex>62</clipindex>
							<groupindex>1</groupindex>
						</link>
						<link>
							<linkclipref>clipitem-2598</linkclipref>
							<mediatype>audio</mediatype>
							<trackindex>18</trackindex>
							<clipindex>56</clipindex>
							<groupindex>1</groupindex>
						</link>
						<logginginfo>
							<description></description>
							<scene></scene>
							<shottake></shottake>
							<lognote></lognote>
						</logginginfo>
						<labels>
							<label2>Caribbean</label2>
						</labels>
					</clipitem>
					<clipitem id="clipitem-2599" premiereChannelType="stereo">
						<masterclipid>masterclip-97</masterclipid>
						<name>Enkelt latterkule hele publikum.wav</name>
						<enabled>TRUE</enabled>
						<duration>95</duration>
						<rate>
							<timebase>25</timebase>
							<ntsc>FALSE</ntsc>
						</rate>
						<start>18300</start>
						<end>18395</end>
						<in>0</in>
						<out>95</out>
						<pproTicksIn>0</pproTicksIn>
						<pproTicksOut>965260800000</pproTicksOut>
						<file id="file-93"/>
						<sourcetrack>
							<mediatype>audio</mediatype>
							<trackindex>2</trackindex>
						</sourcetrack>
							<filter>
								<effect>
									<name>Audio Levels</name>
									<effectid>audiolevels</effectid>
									<effectcategory>audiolevels</effectcategory>
									<effecttype>audiolevels</effecttype>
									<mediatype>audio</mediatype>
									<parameter authoringApp="PremierePro">
										<parameterid>level</parameterid>
										<name>Level</name>
										<valuemin>0</valuemin>
										<valuemax>3.98109</valuemax>
										<value>1.56151</value>
									</parameter>
								</effect>
							</filter>
						<link>
							<linkclipref>clipitem-2428</linkclipref>
							<mediatype>audio</mediatype>
							<trackindex>17</trackindex>
							<clipindex>63</clipindex>
							<groupindex>1</groupindex>
						</link>
						<link>
							<linkclipref>clipitem-2599</linkclipref>
							<mediatype>audio</mediatype>
							<trackindex>18</trackindex>
							<clipindex>57</clipindex>
							<groupindex>1</groupindex>
						</link>
						<logginginfo>
							<description></description>
							<scene></scene>
							<shottake></shottake>
							<lognote></lognote>
						</logginginfo>
						<labels>
							<label2>Caribbean</label2>
						</labels>
					</clipitem>
					<clipitem id="clipitem-2600" premiereChannelType="stereo">
						<masterclipid>masterclip-28</masterclipid>
						<name>Crazy Frog - Axel F.mp4</name>
						<enabled>TRUE</enabled>
						<duration>4325</duration>
						<rate>
							<timebase>25</timebase>
							<ntsc>FALSE</ntsc>
						</rate>
						<start>18626</start>
						<end>-1</end>
						<in>1222</in>
						<out>1402</out>
						<pproTicksIn>12416302080000</pproTicksIn>
						<pproTicksOut>14245217280000</pproTicksOut>
						<file id="file-24"/>
						<sourcetrack>
							<mediatype>audio</mediatype>
							<trackindex>2</trackindex>
						</sourcetrack>
							<filter>
								<effect>
									<name>Audio Levels</name>
									<effectid>audiolevels</effectid>
									<effectcategory>audiolevels</effectcategory>
									<effecttype>audiolevels</effecttype>
									<mediatype>audio</mediatype>
									<parameter authoringApp="PremierePro">
										<parameterid>level</parameterid>
										<name>Level</name>
										<valuemin>0</valuemin>
										<valuemax>3.98109</valuemax>
										<value>0.889139</value>
									</parameter>
								</effect>
							</filter>
						<link>
							<linkclipref>clipitem-2429</linkclipref>
							<mediatype>audio</mediatype>
							<trackindex>17</trackindex>
							<clipindex>64</clipindex>
							<groupindex>1</groupindex>
						</link>
						<link>
							<linkclipref>clipitem-2600</linkclipref>
							<mediatype>audio</mediatype>
							<trackindex>18</trackindex>
							<clipindex>58</clipindex>
							<groupindex>1</groupindex>
						</link>
						<logginginfo>
							<description></description>
							<scene></scene>
							<shottake></shottake>
							<lognote></lognote>
						</logginginfo>
						<labels>
							<label2>Iris</label2>
						</labels>
					</clipitem>
					<transitionitem>
						<start>18793</start>
						<end>18806</end>
						<alignment>center</alignment>
						<cutPointTicks>60963840000</cutPointTicks>
						<rate>
							<timebase>25</timebase>
							<ntsc>FALSE</ntsc>
						</rate>
						<effect>
							<name>Cross Fade (+3dB)</name>
							<effectid>KGAudioTransCrossFade3dB</effectid>
							<effecttype>transition</effecttype>
							<mediatype>audio</mediatype>
							<wipecode>0</wipecode>
							<wipeaccuracy>100</wipeaccuracy>
							<startratio>0</startratio>
							<endratio>1</endratio>
							<reverse>FALSE</reverse>
						</effect>
					</transitionitem>
					<clipitem id="clipitem-2601" premiereChannelType="stereo">
						<masterclipid>masterclip-28</masterclipid>
						<name>Crazy Frog - Axel F.mp4</name>
						<enabled>TRUE</enabled>
						<duration>4325</duration>
						<rate>
							<timebase>25</timebase>
							<ntsc>FALSE</ntsc>
						</rate>
						<start>-1</start>
						<end>18843</end>
						<in>1389</in>
						<out>1439</out>
						<pproTicksIn>14113128960000</pproTicksIn>
						<pproTicksOut>14621160960000</pproTicksOut>
						<file id="file-24"/>
						<sourcetrack>
							<mediatype>audio</mediatype>
							<trackindex>2</trackindex>
						</sourcetrack>
							<filter>
								<effect>
									<name>Audio Levels</name>
									<effectid>audiolevels</effectid>
									<effectcategory>audiolevels</effectcategory>
									<effecttype>audiolevels</effecttype>
									<mediatype>audio</mediatype>
									<parameter authoringApp="PremierePro">
										<parameterid>level</parameterid>
										<name>Level</name>
										<valuemin>0</valuemin>
										<valuemax>3.98109</valuemax>
										<value>0.177406</value>
									</parameter>
								</effect>
							</filter>
						<link>
							<linkclipref>clipitem-2430</linkclipref>
							<mediatype>audio</mediatype>
							<trackindex>17</trackindex>
							<clipindex>66</clipindex>
							<groupindex>1</groupindex>
						</link>
						<link>
							<linkclipref>clipitem-2601</linkclipref>
							<mediatype>audio</mediatype>
							<trackindex>18</trackindex>
							<clipindex>60</clipindex>
							<groupindex>1</groupindex>
						</link>
						<logginginfo>
							<description></description>
							<scene></scene>
							<shottake></shottake>
							<lognote></lognote>
						</logginginfo>
						<labels>
							<label2>Iris</label2>
						</labels>
					</clipitem>
					<clipitem id="clipitem-2602" premiereChannelType="stereo">
						<masterclipid>masterclip-29</masterclipid>
						<name>*Schnappi - Schnappi Das Kleine Krokodil*.mp4</name>
						<enabled>TRUE</enabled>
						<duration>5244</duration>
						<rate>
							<timebase>25</timebase>
							<ntsc>FALSE</ntsc>
						</rate>
						<start>18843</start>
						<end>-1</end>
						<in>1414</in>
						<out>1489</out>
						<pproTicksIn>14367144960000</pproTicksIn>
						<pproTicksOut>15129192960000</pproTicksOut>
						<file id="file-25"/>
						<sourcetrack>
							<mediatype>audio</mediatype>
							<trackindex>1</trackindex>
						</sourcetrack>
							<filter>
								<effect>
									<name>Audio Levels</name>
									<effectid>audiolevels</effectid>
									<effectcategory>audiolevels</effectcategory>
									<effecttype>audiolevels</effecttype>
									<mediatype>audio</mediatype>
									<parameter authoringApp="PremierePro">
										<parameterid>level</parameterid>
										<name>Level</name>
										<valuemin>0</valuemin>
										<valuemax>3.98109</valuemax>
										<value>0.28117</value>
									</parameter>
								</effect>
							</filter>
						<link>
							<linkclipref>clipitem-2431</linkclipref>
							<mediatype>audio</mediatype>
							<trackindex>17</trackindex>
							<clipindex>67</clipindex>
							<groupindex>1</groupindex>
						</link>
						<link>
							<linkclipref>clipitem-2602</linkclipref>
							<mediatype>audio</mediatype>
							<trackindex>18</trackindex>
							<clipindex>61</clipindex>
							<groupindex>1</groupindex>
						</link>
						<logginginfo>
							<description></description>
							<scene></scene>
							<shottake></shottake>
							<lognote></lognote>
						</logginginfo>
						<labels>
							<label2>Iris</label2>
						</labels>
					</clipitem>
					<transitionitem>
						<start>18905</start>
						<end>18918</end>
						<alignment>center</alignment>
						<cutPointTicks>60963840000</cutPointTicks>
						<rate>
							<timebase>25</timebase>
							<ntsc>FALSE</ntsc>
						</rate>
						<effect>
							<name>Cross Fade (+3dB)</name>
							<effectid>KGAudioTransCrossFade3dB</effectid>
							<effecttype>transition</effecttype>
							<mediatype>audio</mediatype>
							<wipecode>0</wipecode>
							<wipeaccuracy>100</wipeaccuracy>
							<startratio>0</startratio>
							<endratio>1</endratio>
							<reverse>FALSE</reverse>
						</effect>
					</transitionitem>
					<clipitem id="clipitem-2603" premiereChannelType="stereo">
						<masterclipid>masterclip-29</masterclipid>
						<name>*Schnappi - Schnappi Das Kleine Krokodil*.mp4</name>
						<enabled>TRUE</enabled>
						<duration>5244</duration>
						<rate>
							<timebase>25</timebase>
							<ntsc>FALSE</ntsc>
						</rate>
						<start>-1</start>
						<end>-1</end>
						<in>1476</in>
						<out>1654</out>
						<pproTicksIn>14997104640000</pproTicksIn>
						<pproTicksOut>16805698560000</pproTicksOut>
						<file id="file-25"/>
						<sourcetrack>
							<mediatype>audio</mediatype>
							<trackindex>1</trackindex>
						</sourcetrack>
							<filter>
								<effect>
									<name>Audio Levels</name>
									<effectid>audiolevels</effectid>
									<effectcategory>audiolevels</effectcategory>
									<effecttype>audiolevels</effecttype>
									<mediatype>audio</mediatype>
									<parameter authoringApp="PremierePro">
										<parameterid>level</parameterid>
										<name>Level</name>
										<valuemin>0</valuemin>
										<valuemax>3.98109</valuemax>
										<value>1.77406</value>
									</parameter>
								</effect>
							</filter>
						<link>
							<linkclipref>clipitem-2432</linkclipref>
							<mediatype>audio</mediatype>
							<trackindex>17</trackindex>
							<clipindex>69</clipindex>
							<groupindex>1</groupindex>
						</link>
						<link>
							<linkclipref>clipitem-2603</linkclipref>
							<mediatype>audio</mediatype>
							<trackindex>18</trackindex>
							<clipindex>63</clipindex>
							<groupindex>1</groupindex>
						</link>
						<logginginfo>
							<description></description>
							<scene></scene>
							<shottake></shottake>
							<lognote></lognote>
						</logginginfo>
						<labels>
							<label2>Iris</label2>
						</labels>
					</clipitem>
					<transitionitem>
						<start>19070</start>
						<end>19083</end>
						<alignment>center</alignment>
						<cutPointTicks>60963840000</cutPointTicks>
						<rate>
							<timebase>25</timebase>
							<ntsc>FALSE</ntsc>
						</rate>
						<effect>
							<name>Cross Fade (+3dB)</name>
							<effectid>KGAudioTransCrossFade3dB</effectid>
							<effecttype>transition</effecttype>
							<mediatype>audio</mediatype>
							<wipecode>0</wipecode>
							<wipeaccuracy>100</wipeaccuracy>
							<startratio>0</startratio>
							<endratio>1</endratio>
							<reverse>FALSE</reverse>
						</effect>
					</transitionitem>
					<clipitem id="clipitem-2604" premiereChannelType="stereo">
						<masterclipid>masterclip-29</masterclipid>
						<name>*Schnappi - Schnappi Das Kleine Krokodil*.mp4</name>
						<enabled>TRUE</enabled>
						<duration>5244</duration>
						<rate>
							<timebase>25</timebase>
							<ntsc>FALSE</ntsc>
						</rate>
						<start>-1</start>
						<end>-1</end>
						<in>1641</in>
						<out>1742</out>
						<pproTicksIn>16673610240000</pproTicksIn>
						<pproTicksOut>17699834880000</pproTicksOut>
						<file id="file-25"/>
						<sourcetrack>
							<mediatype>audio</mediatype>
							<trackindex>1</trackindex>
						</sourcetrack>
							<filter>
								<effect>
									<name>Audio Levels</name>
									<effectid>audiolevels</effectid>
									<effectcategory>audiolevels</effectcategory>
									<effecttype>audiolevels</effecttype>
									<mediatype>audio</mediatype>
									<parameter authoringApp="PremierePro">
										<parameterid>level</parameterid>
										<name>Level</name>
										<valuemin>0</valuemin>
										<valuemax>3.98109</valuemax>
										<value>0.353972</value>
									</parameter>
								</effect>
							</filter>
						<link>
							<linkclipref>clipitem-2433</linkclipref>
							<mediatype>audio</mediatype>
							<trackindex>17</trackindex>
							<clipindex>71</clipindex>
							<groupindex>1</groupindex>
						</link>
						<link>
							<linkclipref>clipitem-2604</linkclipref>
							<mediatype>audio</mediatype>
							<trackindex>18</trackindex>
							<clipindex>65</clipindex>
							<groupindex>1</groupindex>
						</link>
						<logginginfo>
							<description></description>
							<scene></scene>
							<shottake></shottake>
							<lognote></lognote>
						</logginginfo>
						<labels>
							<label2>Iris</label2>
						</labels>
					</clipitem>
					<transitionitem>
						<start>19158</start>
						<end>19171</end>
						<alignment>center</alignment>
						<cutPointTicks>60963840000</cutPointTicks>
						<rate>
							<timebase>25</timebase>
							<ntsc>FALSE</ntsc>
						</rate>
						<effect>
							<name>Cross Fade (+3dB)</name>
							<effectid>KGAudioTransCrossFade3dB</effectid>
							<effecttype>transition</effecttype>
							<mediatype>audio</mediatype>
							<wipecode>0</wipecode>
							<wipeaccuracy>100</wipeaccuracy>
							<startratio>0</startratio>
							<endratio>1</endratio>
							<reverse>FALSE</reverse>
						</effect>
					</transitionitem>
					<clipitem id="clipitem-2605" premiereChannelType="stereo">
						<masterclipid>masterclip-30</masterclipid>
						<name>ouha19002605aa-p1-080416r.mxf</name>
						<enabled>TRUE</enabled>
						<duration>7035</duration>
						<rate>
							<timebase>25</timebase>
							<ntsc>FALSE</ntsc>
						</rate>
						<start>-1</start>
						<end>-1</end>
						<in>349</in>
						<out>390</out>
						<pproTicksIn>3546063360000</pproTicksIn>
						<pproTicksOut>3962649600000</pproTicksOut>
						<file id="file-26"/>
						<sourcetrack>
							<mediatype>audio</mediatype>
							<trackindex>2</trackindex>
						</sourcetrack>
							<filter>
								<effect>
									<name>Audio Levels</name>
									<effectid>audiolevels</effectid>
									<effectcategory>audiolevels</effectcategory>
									<effecttype>audiolevels</effecttype>
									<mediatype>audio</mediatype>
									<parameter authoringApp="PremierePro">
										<parameterid>level</parameterid>
										<name>Level</name>
										<valuemin>0</valuemin>
										<valuemax>3.98109</valuemax>
										<value>0.223342</value>
									</parameter>
								</effect>
							</filter>
						<link>
							<linkclipref>clipitem-2434</linkclipref>
							<mediatype>audio</mediatype>
							<trackindex>17</trackindex>
							<clipindex>73</clipindex>
							<groupindex>1</groupindex>
						</link>
						<link>
							<linkclipref>clipitem-2605</linkclipref>
							<mediatype>audio</mediatype>
							<trackindex>18</trackindex>
							<clipindex>67</clipindex>
							<groupindex>1</groupindex>
						</link>
						<logginginfo>
							<description></description>
							<scene></scene>
							<shottake></shottake>
							<lognote></lognote>
						</logginginfo>
						<labels>
							<label2>Iris</label2>
						</labels>
					</clipitem>
					<transitionitem>
						<start>19186</start>
						<end>19199</end>
						<alignment>center</alignment>
						<cutPointTicks>60963840000</cutPointTicks>
						<rate>
							<timebase>25</timebase>
							<ntsc>FALSE</ntsc>
						</rate>
						<effect>
							<name>Cross Fade (+3dB)</name>
							<effectid>KGAudioTransCrossFade3dB</effectid>
							<effecttype>transition</effecttype>
							<mediatype>audio</mediatype>
							<wipecode>0</wipecode>
							<wipeaccuracy>100</wipeaccuracy>
							<startratio>0</startratio>
							<endratio>1</endratio>
							<reverse>FALSE</reverse>
						</effect>
					</transitionitem>
					<clipitem id="clipitem-2606" premiereChannelType="stereo">
						<masterclipid>masterclip-30</masterclipid>
						<name>ouha19002605aa-p1-080416r.mxf</name>
						<enabled>TRUE</enabled>
						<duration>7035</duration>
						<rate>
							<timebase>25</timebase>
							<ntsc>FALSE</ntsc>
						</rate>
						<start>-1</start>
						<end>-1</end>
						<in>377</in>
						<out>538</out>
						<pproTicksIn>3830561280000</pproTicksIn>
						<pproTicksOut>5466424320000</pproTicksOut>
						<file id="file-26"/>
						<sourcetrack>
							<mediatype>audio</mediatype>
							<trackindex>2</trackindex>
						</sourcetrack>
							<filter>
								<effect>
									<name>Audio Levels</name>
									<effectid>audiolevels</effectid>
									<effectcategory>audiolevels</effectcategory>
									<effecttype>audiolevels</effecttype>
									<mediatype>audio</mediatype>
									<parameter authoringApp="PremierePro">
										<parameterid>level</parameterid>
										<name>Level</name>
										<valuemin>0</valuemin>
										<valuemax>3.98109</valuemax>
										<value>1.40919</value>
									</parameter>
								</effect>
							</filter>
						<link>
							<linkclipref>clipitem-2435</linkclipref>
							<mediatype>audio</mediatype>
							<trackindex>17</trackindex>
							<clipindex>75</clipindex>
							<groupindex>1</groupindex>
						</link>
						<link>
							<linkclipref>clipitem-2606</linkclipref>
							<mediatype>audio</mediatype>
							<trackindex>18</trackindex>
							<clipindex>69</clipindex>
							<groupindex>1</groupindex>
						</link>
						<logginginfo>
							<description></description>
							<scene></scene>
							<shottake></shottake>
							<lognote></lognote>
						</logginginfo>
						<labels>
							<label2>Iris</label2>
						</labels>
					</clipitem>
					<transitionitem>
						<start>19334</start>
						<end>19347</end>
						<alignment>center</alignment>
						<cutPointTicks>60963840000</cutPointTicks>
						<rate>
							<timebase>25</timebase>
							<ntsc>FALSE</ntsc>
						</rate>
						<effect>
							<name>Cross Fade (+3dB)</name>
							<effectid>KGAudioTransCrossFade3dB</effectid>
							<effecttype>transition</effecttype>
							<mediatype>audio</mediatype>
							<wipecode>0</wipecode>
							<wipeaccuracy>100</wipeaccuracy>
							<startratio>0</startratio>
							<endratio>1</endratio>
							<reverse>FALSE</reverse>
						</effect>
					</transitionitem>
					<clipitem id="clipitem-2607" premiereChannelType="stereo">
						<masterclipid>masterclip-30</masterclipid>
						<name>ouha19002605aa-p1-080416r.mxf</name>
						<enabled>TRUE</enabled>
						<duration>7035</duration>
						<rate>
							<timebase>25</timebase>
							<ntsc>FALSE</ntsc>
						</rate>
						<start>-1</start>
						<end>19401</end>
						<in>525</in>
						<out>592</out>
						<pproTicksIn>5334336000000</pproTicksIn>
						<pproTicksOut>6015098880000</pproTicksOut>
						<file id="file-26"/>
						<sourcetrack>
							<mediatype>audio</mediatype>
							<trackindex>2</trackindex>
						</sourcetrack>
							<filter>
								<effect>
									<name>Audio Levels</name>
									<effectid>audiolevels</effectid>
									<effectcategory>audiolevels</effectcategory>
									<effecttype>audiolevels</effecttype>
									<mediatype>audio</mediatype>
									<parameter authoringApp="PremierePro">
										<parameterid>level</parameterid>
										<name>Level</name>
										<valuemin>0</valuemin>
										<valuemax>3.98109</valuemax>
										<value>0.41156</value>
									</parameter>
								</effect>
							</filter>
						<link>
							<linkclipref>clipitem-2436</linkclipref>
							<mediatype>audio</mediatype>
							<trackindex>17</trackindex>
							<clipindex>77</clipindex>
							<groupindex>1</groupindex>
						</link>
						<link>
							<linkclipref>clipitem-2607</linkclipref>
							<mediatype>audio</mediatype>
							<trackindex>18</trackindex>
							<clipindex>71</clipindex>
							<groupindex>1</groupindex>
						</link>
						<logginginfo>
							<description></description>
							<scene></scene>
							<shottake></shottake>
							<lognote></lognote>
						</logginginfo>
						<labels>
							<label2>Iris</label2>
						</labels>
					</clipitem>
					<clipitem id="clipitem-2608" premiereChannelType="stereo">
						<masterclipid>masterclip-32</masterclipid>
						<name>Mira Craig - Boogeyman.mp4</name>
						<enabled>TRUE</enabled>
						<duration>6259</duration>
						<rate>
							<timebase>25</timebase>
							<ntsc>FALSE</ntsc>
						</rate>
						<start>19882</start>
						<end>-1</end>
						<in>1009</in>
						<out>1104</out>
						<pproTicksIn>10252085760000</pproTicksIn>
						<pproTicksOut>11217346560000</pproTicksOut>
						<file id="file-28"/>
						<sourcetrack>
							<mediatype>audio</mediatype>
							<trackindex>2</trackindex>
						</sourcetrack>
							<filter>
								<effect>
									<name>Audio Levels</name>
									<effectid>audiolevels</effectid>
									<effectcategory>audiolevels</effectcategory>
									<effecttype>audiolevels</effecttype>
									<mediatype>audio</mediatype>
									<parameter authoringApp="PremierePro">
										<parameterid>level</parameterid>
										<name>Level</name>
										<valuemin>0</valuemin>
										<valuemax>3.98109</valuemax>
										<value>1.40919</value>
									</parameter>
								</effect>
							</filter>
						<link>
							<linkclipref>clipitem-2438</linkclipref>
							<mediatype>audio</mediatype>
							<trackindex>17</trackindex>
							<clipindex>79</clipindex>
							<groupindex>1</groupindex>
						</link>
						<link>
							<linkclipref>clipitem-2608</linkclipref>
							<mediatype>audio</mediatype>
							<trackindex>18</trackindex>
							<clipindex>72</clipindex>
							<groupindex>1</groupindex>
						</link>
						<logginginfo>
							<description></description>
							<scene></scene>
							<shottake></shottake>
							<lognote></lognote>
						</logginginfo>
						<labels>
							<label2>Iris</label2>
						</labels>
					</clipitem>
					<transitionitem>
						<start>19964</start>
						<end>19977</end>
						<alignment>center</alignment>
						<cutPointTicks>60963840000</cutPointTicks>
						<rate>
							<timebase>25</timebase>
							<ntsc>FALSE</ntsc>
						</rate>
						<effect>
							<name>Cross Fade (+3dB)</name>
							<effectid>KGAudioTransCrossFade3dB</effectid>
							<effecttype>transition</effecttype>
							<mediatype>audio</mediatype>
							<wipecode>0</wipecode>
							<wipeaccuracy>100</wipeaccuracy>
							<startratio>0</startratio>
							<endratio>1</endratio>
							<reverse>FALSE</reverse>
						</effect>
					</transitionitem>
					<clipitem id="clipitem-2609" premiereChannelType="stereo">
						<masterclipid>masterclip-32</masterclipid>
						<name>Mira Craig - Boogeyman.mp4</name>
						<enabled>TRUE</enabled>
						<duration>6259</duration>
						<rate>
							<timebase>25</timebase>
							<ntsc>FALSE</ntsc>
						</rate>
						<start>-1</start>
						<end>-1</end>
						<in>1091</in>
						<out>1199</out>
						<pproTicksIn>11085258240000</pproTicksIn>
						<pproTicksOut>12182607360000</pproTicksOut>
						<file id="file-28"/>
						<sourcetrack>
							<mediatype>audio</mediatype>
							<trackindex>2</trackindex>
						</sourcetrack>
							<filter>
								<effect>
									<name>Audio Levels</name>
									<effectid>audiolevels</effectid>
									<effectcategory>audiolevels</effectcategory>
									<effecttype>audiolevels</effecttype>
									<mediatype>audio</mediatype>
									<parameter authoringApp="PremierePro">
										<parameterid>level</parameterid>
										<name>Level</name>
										<valuemin>0</valuemin>
										<valuemax>3.98109</valuemax>
										<value>0.28117</value>
									</parameter>
								</effect>
							</filter>
						<link>
							<linkclipref>clipitem-2439</linkclipref>
							<mediatype>audio</mediatype>
							<trackindex>17</trackindex>
							<clipindex>81</clipindex>
							<groupindex>1</groupindex>
						</link>
						<link>
							<linkclipref>clipitem-2609</linkclipref>
							<mediatype>audio</mediatype>
							<trackindex>18</trackindex>
							<clipindex>74</clipindex>
							<groupindex>1</groupindex>
						</link>
						<logginginfo>
							<description></description>
							<scene></scene>
							<shottake></shottake>
							<lognote></lognote>
						</logginginfo>
						<labels>
							<label2>Iris</label2>
						</labels>
					</clipitem>
					<transitionitem>
						<start>20059</start>
						<end>20072</end>
						<alignment>center</alignment>
						<cutPointTicks>60963840000</cutPointTicks>
						<rate>
							<timebase>25</timebase>
							<ntsc>FALSE</ntsc>
						</rate>
						<effect>
							<name>Cross Fade (+3dB)</name>
							<effectid>KGAudioTransCrossFade3dB</effectid>
							<effecttype>transition</effecttype>
							<mediatype>audio</mediatype>
							<wipecode>0</wipecode>
							<wipeaccuracy>100</wipeaccuracy>
							<startratio>0</startratio>
							<endratio>1</endratio>
							<reverse>FALSE</reverse>
						</effect>
					</transitionitem>
					<clipitem id="clipitem-2610" premiereChannelType="stereo">
						<masterclipid>masterclip-32</masterclipid>
						<name>Mira Craig - Boogeyman.mp4</name>
						<enabled>TRUE</enabled>
						<duration>6259</duration>
						<rate>
							<timebase>25</timebase>
							<ntsc>FALSE</ntsc>
						</rate>
						<start>-1</start>
						<end>-1</end>
						<in>1186</in>
						<out>1289</out>
						<pproTicksIn>12050519040000</pproTicksIn>
						<pproTicksOut>13097064960000</pproTicksOut>
						<file id="file-28"/>
						<sourcetrack>
							<mediatype>audio</mediatype>
							<trackindex>2</trackindex>
						</sourcetrack>
							<filter>
								<effect>
									<name>Audio Levels</name>
									<effectid>audiolevels</effectid>
									<effectcategory>audiolevels</effectcategory>
									<effecttype>audiolevels</effecttype>
									<mediatype>audio</mediatype>
									<parameter authoringApp="PremierePro">
										<parameterid>level</parameterid>
										<name>Level</name>
										<valuemin>0</valuemin>
										<valuemax>3.98109</valuemax>
										<value>1.41254</value>
									</parameter>
								</effect>
							</filter>
						<link>
							<linkclipref>clipitem-2440</linkclipref>
							<mediatype>audio</mediatype>
							<trackindex>17</trackindex>
							<clipindex>83</clipindex>
							<groupindex>1</groupindex>
						</link>
						<link>
							<linkclipref>clipitem-2610</linkclipref>
							<mediatype>audio</mediatype>
							<trackindex>18</trackindex>
							<clipindex>76</clipindex>
							<groupindex>1</groupindex>
						</link>
						<logginginfo>
							<description></description>
							<scene></scene>
							<shottake></shottake>
							<lognote></lognote>
						</logginginfo>
						<labels>
							<label2>Iris</label2>
						</labels>
					</clipitem>
					<transitionitem>
						<start>20157</start>
						<end>20162</end>
						<alignment>center</alignment>
						<cutPointTicks>20321280000</cutPointTicks>
						<rate>
							<timebase>25</timebase>
							<ntsc>FALSE</ntsc>
						</rate>
						<effect>
							<name>Cross Fade (+3dB)</name>
							<effectid>KGAudioTransCrossFade3dB</effectid>
							<effecttype>transition</effecttype>
							<mediatype>audio</mediatype>
							<wipecode>0</wipecode>
							<wipeaccuracy>100</wipeaccuracy>
							<startratio>0</startratio>
							<endratio>1</endratio>
							<reverse>FALSE</reverse>
						</effect>
					</transitionitem>
					<clipitem id="clipitem-2611" premiereChannelType="stereo">
						<masterclipid>masterclip-32</masterclipid>
						<name>Mira Craig - Boogeyman.mp4</name>
						<enabled>TRUE</enabled>
						<duration>6259</duration>
						<rate>
							<timebase>25</timebase>
							<ntsc>FALSE</ntsc>
						</rate>
						<start>-1</start>
						<end>-1</end>
						<in>1284</in>
						<out>1341</out>
						<pproTicksIn>13046261760000</pproTicksIn>
						<pproTicksOut>13625418240000</pproTicksOut>
						<file id="file-28"/>
						<sourcetrack>
							<mediatype>audio</mediatype>
							<trackindex>2</trackindex>
						</sourcetrack>
							<filter>
								<effect>
									<name>Audio Levels</name>
									<effectid>audiolevels</effectid>
									<effectcategory>audiolevels</effectcategory>
									<effecttype>audiolevels</effecttype>
									<mediatype>audio</mediatype>
									<parameter authoringApp="PremierePro">
										<parameterid>level</parameterid>
										<name>Level</name>
										<valuemin>0</valuemin>
										<valuemax>3.98109</valuemax>
										<value>0.398107</value>
									</parameter>
								</effect>
							</filter>
						<link>
							<linkclipref>clipitem-2441</linkclipref>
							<mediatype>audio</mediatype>
							<trackindex>17</trackindex>
							<clipindex>85</clipindex>
							<groupindex>1</groupindex>
						</link>
						<link>
							<linkclipref>clipitem-2611</linkclipref>
							<mediatype>audio</mediatype>
							<trackindex>18</trackindex>
							<clipindex>78</clipindex>
							<groupindex>1</groupindex>
						</link>
						<logginginfo>
							<description></description>
							<scene></scene>
							<shottake></shottake>
							<lognote></lognote>
						</logginginfo>
						<labels>
							<label2>Iris</label2>
						</labels>
					</clipitem>
					<transitionitem>
						<start>20207</start>
						<end>20214</end>
						<alignment>center</alignment>
						<cutPointTicks>30481920000</cutPointTicks>
						<rate>
							<timebase>25</timebase>
							<ntsc>FALSE</ntsc>
						</rate>
						<effect>
							<name>Cross Fade (+3dB)</name>
							<effectid>KGAudioTransCrossFade3dB</effectid>
							<effecttype>transition</effecttype>
							<mediatype>audio</mediatype>
							<wipecode>0</wipecode>
							<wipeaccuracy>100</wipeaccuracy>
							<startratio>0</startratio>
							<endratio>1</endratio>
							<reverse>FALSE</reverse>
						</effect>
					</transitionitem>
					<clipitem id="clipitem-2612" premiereChannelType="stereo">
						<masterclipid>masterclip-33</masterclipid>
						<name>Madonna - Hung Up (Official Music Video).mp4</name>
						<enabled>TRUE</enabled>
						<duration>8167</duration>
						<rate>
							<timebase>25</timebase>
							<ntsc>FALSE</ntsc>
						</rate>
						<start>-1</start>
						<end>-1</end>
						<in>2647</in>
						<out>2747</out>
						<pproTicksIn>26895214080000</pproTicksIn>
						<pproTicksOut>27911278080000</pproTicksOut>
						<file id="file-29"/>
						<sourcetrack>
							<mediatype>audio</mediatype>
							<trackindex>2</trackindex>
						</sourcetrack>
							<filter>
								<effect>
									<name>Audio Levels</name>
									<effectid>audiolevels</effectid>
									<effectcategory>audiolevels</effectcategory>
									<effecttype>audiolevels</effecttype>
									<mediatype>audio</mediatype>
									<parameter authoringApp="PremierePro">
										<parameterid>level</parameterid>
										<name>Level</name>
										<valuemin>0</valuemin>
										<valuemax>3.98109</valuemax>
										<value>0.250593</value>
									</parameter>
								</effect>
							</filter>
						<link>
							<linkclipref>clipitem-2442</linkclipref>
							<mediatype>audio</mediatype>
							<trackindex>17</trackindex>
							<clipindex>87</clipindex>
							<groupindex>1</groupindex>
						</link>
						<link>
							<linkclipref>clipitem-2612</linkclipref>
							<mediatype>audio</mediatype>
							<trackindex>18</trackindex>
							<clipindex>80</clipindex>
							<groupindex>1</groupindex>
						</link>
						<logginginfo>
							<description></description>
							<scene></scene>
							<shottake></shottake>
							<lognote></lognote>
						</logginginfo>
						<labels>
							<label2>Iris</label2>
						</labels>
					</clipitem>
					<transitionitem>
						<start>20298</start>
						<end>20307</end>
						<alignment>center</alignment>
						<cutPointTicks>40642560000</cutPointTicks>
						<rate>
							<timebase>25</timebase>
							<ntsc>FALSE</ntsc>
						</rate>
						<effect>
							<name>Cross Fade (+3dB)</name>
							<effectid>KGAudioTransCrossFade3dB</effectid>
							<effecttype>transition</effecttype>
							<mediatype>audio</mediatype>
							<wipecode>0</wipecode>
							<wipeaccuracy>100</wipeaccuracy>
							<startratio>0</startratio>
							<endratio>1</endratio>
							<reverse>FALSE</reverse>
						</effect>
					</transitionitem>
					<clipitem id="clipitem-2613" premiereChannelType="stereo">
						<masterclipid>masterclip-33</masterclipid>
						<name>Madonna - Hung Up (Official Music Video).mp4</name>
						<enabled>TRUE</enabled>
						<duration>8167</duration>
						<rate>
							<timebase>25</timebase>
							<ntsc>FALSE</ntsc>
						</rate>
						<start>-1</start>
						<end>20485</end>
						<in>2738</in>
						<out>2925</out>
						<pproTicksIn>27819832320000</pproTicksIn>
						<pproTicksOut>29719872000000</pproTicksOut>
						<file id="file-29"/>
						<sourcetrack>
							<mediatype>audio</mediatype>
							<trackindex>2</trackindex>
						</sourcetrack>
							<filter>
								<effect>
									<name>Audio Levels</name>
									<effectid>audiolevels</effectid>
									<effectcategory>audiolevels</effectcategory>
									<effecttype>audiolevels</effecttype>
									<mediatype>audio</mediatype>
									<parameter authoringApp="PremierePro">
										<parameterid>level</parameterid>
										<name>Level</name>
										<valuemin>0</valuemin>
										<valuemax>3.98109</valuemax>
										<value>0.792446</value>
									</parameter>
								</effect>
							</filter>
						<link>
							<linkclipref>clipitem-2443</linkclipref>
							<mediatype>audio</mediatype>
							<trackindex>17</trackindex>
							<clipindex>89</clipindex>
							<groupindex>1</groupindex>
						</link>
						<link>
							<linkclipref>clipitem-2613</linkclipref>
							<mediatype>audio</mediatype>
							<trackindex>18</trackindex>
							<clipindex>82</clipindex>
							<groupindex>1</groupindex>
						</link>
						<logginginfo>
							<description></description>
							<scene></scene>
							<shottake></shottake>
							<lognote></lognote>
						</logginginfo>
						<labels>
							<label2>Iris</label2>
						</labels>
					</clipitem>
					<clipitem id="clipitem-2614" premiereChannelType="stereo">
						<masterclipid>masterclip-34</masterclipid>
						<name>James Blunt - You're Beautiful (Video).mp4</name>
						<enabled>TRUE</enabled>
						<duration>5052</duration>
						<rate>
							<timebase>25</timebase>
							<ntsc>FALSE</ntsc>
						</rate>
						<start>20485</start>
						<end>-1</end>
						<in>2803</in>
						<out>2935</out>
						<pproTicksIn>28480273920000</pproTicksIn>
						<pproTicksOut>29821478400000</pproTicksOut>
						<file id="file-30"/>
						<sourcetrack>
							<mediatype>audio</mediatype>
							<trackindex>2</trackindex>
						</sourcetrack>
							<filter>
								<effect>
									<name>Audio Levels</name>
									<effectid>audiolevels</effectid>
									<effectcategory>audiolevels</effectcategory>
									<effecttype>audiolevels</effecttype>
									<mediatype>audio</mediatype>
									<parameter authoringApp="PremierePro">
										<parameterid>level</parameterid>
										<name>Level</name>
										<valuemin>0</valuemin>
										<valuemax>3.98109</valuemax>
										<value>0.706268</value>
									</parameter>
								</effect>
							</filter>
						<link>
							<linkclipref>clipitem-2444</linkclipref>
							<mediatype>audio</mediatype>
							<trackindex>17</trackindex>
							<clipindex>90</clipindex>
							<groupindex>1</groupindex>
						</link>
						<link>
							<linkclipref>clipitem-2614</linkclipref>
							<mediatype>audio</mediatype>
							<trackindex>18</trackindex>
							<clipindex>83</clipindex>
							<groupindex>1</groupindex>
						</link>
						<logginginfo>
							<description></description>
							<scene></scene>
							<shottake></shottake>
							<lognote></lognote>
						</logginginfo>
						<labels>
							<label2>Iris</label2>
						</labels>
					</clipitem>
					<transitionitem>
						<start>20594</start>
						<end>20617</end>
						<alignment>center</alignment>
						<cutPointTicks>111767040000</cutPointTicks>
						<rate>
							<timebase>25</timebase>
							<ntsc>FALSE</ntsc>
						</rate>
						<effect>
							<name>Cross Fade (+3dB)</name>
							<effectid>KGAudioTransCrossFade3dB</effectid>
							<effecttype>transition</effecttype>
							<mediatype>audio</mediatype>
							<wipecode>0</wipecode>
							<wipeaccuracy>100</wipeaccuracy>
							<startratio>0</startratio>
							<endratio>1</endratio>
							<reverse>FALSE</reverse>
						</effect>
					</transitionitem>
					<clipitem id="clipitem-2615" premiereChannelType="stereo">
						<masterclipid>masterclip-35</masterclipid>
						<name>Alejandro Fuentes - Stars.mp4</name>
						<enabled>TRUE</enabled>
						<duration>5195</duration>
						<rate>
							<timebase>25</timebase>
							<ntsc>FALSE</ntsc>
						</rate>
						<start>-1</start>
						<end>-1</end>
						<in>836</in>
						<out>1031</out>
						<pproTicksIn>8494295040000</pproTicksIn>
						<pproTicksOut>10475619840000</pproTicksOut>
						<file id="file-31"/>
						<sourcetrack>
							<mediatype>audio</mediatype>
							<trackindex>2</trackindex>
						</sourcetrack>
							<filter>
								<effect>
									<name>Audio Levels</name>
									<effectid>audiolevels</effectid>
									<effectcategory>audiolevels</effectcategory>
									<effecttype>audiolevels</effecttype>
									<mediatype>audio</mediatype>
									<parameter authoringApp="PremierePro">
										<parameterid>level</parameterid>
										<name>Level</name>
										<valuemin>0</valuemin>
										<valuemax>3.98109</valuemax>
										<value>0.111936</value>
									</parameter>
								</effect>
							</filter>
						<link>
							<linkclipref>clipitem-2445</linkclipref>
							<mediatype>audio</mediatype>
							<trackindex>17</trackindex>
							<clipindex>92</clipindex>
							<groupindex>1</groupindex>
						</link>
						<link>
							<linkclipref>clipitem-2615</linkclipref>
							<mediatype>audio</mediatype>
							<trackindex>18</trackindex>
							<clipindex>85</clipindex>
							<groupindex>1</groupindex>
						</link>
						<logginginfo>
							<description></description>
							<scene></scene>
							<shottake></shottake>
							<lognote></lognote>
						</logginginfo>
						<labels>
							<label2>Iris</label2>
						</labels>
					</clipitem>
					<transitionitem>
						<start>20776</start>
						<end>20789</end>
						<alignment>center</alignment>
						<cutPointTicks>60963840000</cutPointTicks>
						<rate>
							<timebase>25</timebase>
							<ntsc>FALSE</ntsc>
						</rate>
						<effect>
							<name>Cross Fade (+3dB)</name>
							<effectid>KGAudioTransCrossFade3dB</effectid>
							<effecttype>transition</effecttype>
							<mediatype>audio</mediatype>
							<wipecode>0</wipecode>
							<wipeaccuracy>100</wipeaccuracy>
							<startratio>0</startratio>
							<endratio>1</endratio>
							<reverse>FALSE</reverse>
						</effect>
					</transitionitem>
					<clipitem id="clipitem-2616" premiereChannelType="stereo">
						<masterclipid>masterclip-35</masterclipid>
						<name>Alejandro Fuentes - Stars.mp4</name>
						<enabled>TRUE</enabled>
						<duration>5195</duration>
						<rate>
							<timebase>25</timebase>
							<ntsc>FALSE</ntsc>
						</rate>
						<start>-1</start>
						<end>-1</end>
						<in>1018</in>
						<out>1170</out>
						<pproTicksIn>10343531520000</pproTicksIn>
						<pproTicksOut>11887948800000</pproTicksOut>
						<file id="file-31"/>
						<sourcetrack>
							<mediatype>audio</mediatype>
							<trackindex>2</trackindex>
						</sourcetrack>
							<filter>
								<effect>
									<name>Audio Levels</name>
									<effectid>audiolevels</effectid>
									<effectcategory>audiolevels</effectcategory>
									<effecttype>audiolevels</effecttype>
									<mediatype>audio</mediatype>
									<parameter authoringApp="PremierePro">
										<parameterid>level</parameterid>
										<name>Level</name>
										<valuemin>0</valuemin>
										<valuemax>3.98109</valuemax>
										<value>0.629462</value>
									</parameter>
								</effect>
							</filter>
						<link>
							<linkclipref>clipitem-2446</linkclipref>
							<mediatype>audio</mediatype>
							<trackindex>17</trackindex>
							<clipindex>94</clipindex>
							<groupindex>1</groupindex>
						</link>
						<link>
							<linkclipref>clipitem-2616</linkclipref>
							<mediatype>audio</mediatype>
							<trackindex>18</trackindex>
							<clipindex>87</clipindex>
							<groupindex>1</groupindex>
						</link>
						<logginginfo>
							<description></description>
							<scene></scene>
							<shottake></shottake>
							<lognote></lognote>
						</logginginfo>
						<labels>
							<label2>Iris</label2>
						</labels>
					</clipitem>
					<transitionitem>
						<start>20915</start>
						<end>20928</end>
						<alignment>center</alignment>
						<cutPointTicks>60963840000</cutPointTicks>
						<rate>
							<timebase>25</timebase>
							<ntsc>FALSE</ntsc>
						</rate>
						<effect>
							<name>Cross Fade (+3dB)</name>
							<effectid>KGAudioTransCrossFade3dB</effectid>
							<effecttype>transition</effecttype>
							<mediatype>audio</mediatype>
							<wipecode>0</wipecode>
							<wipeaccuracy>100</wipeaccuracy>
							<startratio>0</startratio>
							<endratio>1</endratio>
							<reverse>FALSE</reverse>
						</effect>
					</transitionitem>
					<clipitem id="clipitem-2617" premiereChannelType="stereo">
						<masterclipid>masterclip-36</masterclipid>
						<name>FK-05-JorunKristiansen-r.mxf</name>
						<enabled>TRUE</enabled>
						<duration>6631</duration>
						<rate>
							<timebase>25</timebase>
							<ntsc>FALSE</ntsc>
						</rate>
						<start>-1</start>
						<end>-1</end>
						<in>3694</in>
						<out>3861</out>
						<pproTicksIn>37533404160000</pproTicksIn>
						<pproTicksOut>39230231040000</pproTicksOut>
						<file id="file-32"/>
						<sourcetrack>
							<mediatype>audio</mediatype>
							<trackindex>2</trackindex>
						</sourcetrack>
							<filter>
								<effect>
									<name>Audio Levels</name>
									<effectid>audiolevels</effectid>
									<effectcategory>audiolevels</effectcategory>
									<effecttype>audiolevels</effecttype>
									<mediatype>audio</mediatype>
									<parameter authoringApp="PremierePro">
										<parameterid>level</parameterid>
										<name>Level</name>
										<valuemin>0</valuemin>
										<valuemax>3.98109</valuemax>
										<value>1.58114</value>
									</parameter>
								</effect>
							</filter>
						<link>
							<linkclipref>clipitem-2447</linkclipref>
							<mediatype>audio</mediatype>
							<trackindex>17</trackindex>
							<clipindex>96</clipindex>
							<groupindex>1</groupindex>
						</link>
						<link>
							<linkclipref>clipitem-2617</linkclipref>
							<mediatype>audio</mediatype>
							<trackindex>18</trackindex>
							<clipindex>89</clipindex>
							<groupindex>1</groupindex>
						</link>
						<logginginfo>
							<description></description>
							<scene></scene>
							<shottake></shottake>
							<lognote></lognote>
						</logginginfo>
						<labels>
							<label2>Iris</label2>
						</labels>
					</clipitem>
					<transitionitem>
						<start>21069</start>
						<end>21082</end>
						<alignment>center</alignment>
						<cutPointTicks>60963840000</cutPointTicks>
						<rate>
							<timebase>25</timebase>
							<ntsc>FALSE</ntsc>
						</rate>
						<effect>
							<name>Cross Fade (+3dB)</name>
							<effectid>KGAudioTransCrossFade3dB</effectid>
							<effecttype>transition</effecttype>
							<mediatype>audio</mediatype>
							<wipecode>0</wipecode>
							<wipeaccuracy>100</wipeaccuracy>
							<startratio>0</startratio>
							<endratio>1</endratio>
							<reverse>FALSE</reverse>
						</effect>
					</transitionitem>
					<clipitem id="clipitem-2618" premiereChannelType="stereo">
						<masterclipid>masterclip-36</masterclipid>
						<name>FK-05-JorunKristiansen-r.mxf</name>
						<enabled>TRUE</enabled>
						<duration>6631</duration>
						<rate>
							<timebase>25</timebase>
							<ntsc>FALSE</ntsc>
						</rate>
						<start>-1</start>
						<end>-1</end>
						<in>3848</in>
						<out>3966</out>
						<pproTicksIn>39098142720000</pproTicksIn>
						<pproTicksOut>40297098240000</pproTicksOut>
						<file id="file-32"/>
						<sourcetrack>
							<mediatype>audio</mediatype>
							<trackindex>2</trackindex>
						</sourcetrack>
							<filter>
								<effect>
									<name>Audio Levels</name>
									<effectid>audiolevels</effectid>
									<effectcategory>audiolevels</effectcategory>
									<effecttype>audiolevels</effecttype>
									<mediatype>audio</mediatype>
									<parameter authoringApp="PremierePro">
										<parameterid>level</parameterid>
										<name>Level</name>
										<valuemin>0</valuemin>
										<valuemax>3.98109</valuemax>
										<value>0.315478</value>
									</parameter>
								</effect>
							</filter>
						<link>
							<linkclipref>clipitem-2448</linkclipref>
							<mediatype>audio</mediatype>
							<trackindex>17</trackindex>
							<clipindex>98</clipindex>
							<groupindex>1</groupindex>
						</link>
						<link>
							<linkclipref>clipitem-2618</linkclipref>
							<mediatype>audio</mediatype>
							<trackindex>18</trackindex>
							<clipindex>91</clipindex>
							<groupindex>1</groupindex>
						</link>
						<logginginfo>
							<description></description>
							<scene></scene>
							<shottake></shottake>
							<lognote></lognote>
						</logginginfo>
						<labels>
							<label2>Iris</label2>
						</labels>
					</clipitem>
					<transitionitem>
						<start>21174</start>
						<end>21187</end>
						<alignment>center</alignment>
						<cutPointTicks>60963840000</cutPointTicks>
						<rate>
							<timebase>25</timebase>
							<ntsc>FALSE</ntsc>
						</rate>
						<effect>
							<name>Cross Fade (+3dB)</name>
							<effectid>KGAudioTransCrossFade3dB</effectid>
							<effecttype>transition</effecttype>
							<mediatype>audio</mediatype>
							<wipecode>0</wipecode>
							<wipeaccuracy>100</wipeaccuracy>
							<startratio>0</startratio>
							<endratio>1</endratio>
							<reverse>FALSE</reverse>
						</effect>
					</transitionitem>
					<clipitem id="clipitem-2619" premiereChannelType="stereo">
						<masterclipid>masterclip-37</masterclipid>
						<name>musikkvideo-1365-20054.mxf</name>
						<enabled>TRUE</enabled>
						<duration>5480</duration>
						<rate>
							<timebase>25</timebase>
							<ntsc>FALSE</ntsc>
						</rate>
						<start>-1</start>
						<end>21344</end>
						<in>1768</in>
						<out>1938</out>
						<pproTicksIn>17964011520000</pproTicksIn>
						<pproTicksOut>19691320320000</pproTicksOut>
						<file id="file-33"/>
						<sourcetrack>
							<mediatype>audio</mediatype>
							<trackindex>2</trackindex>
						</sourcetrack>
							<filter>
								<effect>
									<name>Audio Levels</name>
									<effectid>audiolevels</effectid>
									<effectcategory>audiolevels</effectcategory>
									<effecttype>audiolevels</effecttype>
									<mediatype>audio</mediatype>
									<parameter authoringApp="PremierePro">
										<parameterid>level</parameterid>
										<name>Level</name>
										<valuemin>0</valuemin>
										<valuemax>3.98109</valuemax>
										<value>0.99763</value>
									</parameter>
								</effect>
							</filter>
						<link>
							<linkclipref>clipitem-2449</linkclipref>
							<mediatype>audio</mediatype>
							<trackindex>17</trackindex>
							<clipindex>100</clipindex>
							<groupindex>1</groupindex>
						</link>
						<link>
							<linkclipref>clipitem-2619</linkclipref>
							<mediatype>audio</mediatype>
							<trackindex>18</trackindex>
							<clipindex>93</clipindex>
							<groupindex>1</groupindex>
						</link>
						<logginginfo>
							<description></description>
							<scene></scene>
							<shottake></shottake>
							<lognote></lognote>
						</logginginfo>
						<labels>
							<label2>Iris</label2>
						</labels>
					</clipitem>
					<clipitem id="clipitem-2620" premiereChannelType="stereo">
						<masterclipid>masterclip-38</masterclipid>
						<name>musikkvideo-1333-11260.mxf</name>
						<enabled>TRUE</enabled>
						<duration>5216</duration>
						<rate>
							<timebase>25</timebase>
							<ntsc>FALSE</ntsc>
						</rate>
						<start>21344</start>
						<end>-1</end>
						<in>2151</in>
						<out>2344</out>
						<pproTicksIn>21855536640000</pproTicksIn>
						<pproTicksOut>23816540160000</pproTicksOut>
						<file id="file-34"/>
						<sourcetrack>
							<mediatype>audio</mediatype>
							<trackindex>2</trackindex>
						</sourcetrack>
							<filter>
								<effect>
									<name>Audio Levels</name>
									<effectid>audiolevels</effectid>
									<effectcategory>audiolevels</effectcategory>
									<effecttype>audiolevels</effecttype>
									<mediatype>audio</mediatype>
									<parameter authoringApp="PremierePro">
										<parameterid>level</parameterid>
										<name>Level</name>
										<valuemin>0</valuemin>
										<valuemax>3.98109</valuemax>
										<value>0.99763</value>
									</parameter>
								</effect>
							</filter>
						<link>
							<linkclipref>clipitem-2450</linkclipref>
							<mediatype>audio</mediatype>
							<trackindex>17</trackindex>
							<clipindex>101</clipindex>
							<groupindex>1</groupindex>
						</link>
						<link>
							<linkclipref>clipitem-2620</linkclipref>
							<mediatype>audio</mediatype>
							<trackindex>18</trackindex>
							<clipindex>94</clipindex>
							<groupindex>1</groupindex>
						</link>
						<logginginfo>
							<description></description>
							<scene></scene>
							<shottake></shottake>
							<lognote></lognote>
						</logginginfo>
						<labels>
							<label2>Iris</label2>
						</labels>
					</clipitem>
					<transitionitem>
						<start>21530</start>
						<end>21537</end>
						<alignment>center</alignment>
						<cutPointTicks>30481920000</cutPointTicks>
						<rate>
							<timebase>25</timebase>
							<ntsc>FALSE</ntsc>
						</rate>
						<effect>
							<name>Cross Fade (+3dB)</name>
							<effectid>KGAudioTransCrossFade3dB</effectid>
							<effecttype>transition</effecttype>
							<mediatype>audio</mediatype>
							<wipecode>0</wipecode>
							<wipeaccuracy>100</wipeaccuracy>
							<startratio>0</startratio>
							<endratio>1</endratio>
							<reverse>FALSE</reverse>
						</effect>
					</transitionitem>
					<clipitem id="clipitem-2621" premiereChannelType="stereo">
						<masterclipid>masterclip-38</masterclipid>
						<name>musikkvideo-1333-11260.mxf</name>
						<enabled>TRUE</enabled>
						<duration>5216</duration>
						<rate>
							<timebase>25</timebase>
							<ntsc>FALSE</ntsc>
						</rate>
						<start>-1</start>
						<end>21595</end>
						<in>2337</in>
						<out>2402</out>
						<pproTicksIn>23745415680000</pproTicksIn>
						<pproTicksOut>24405857280000</pproTicksOut>
						<file id="file-34"/>
						<sourcetrack>
							<mediatype>audio</mediatype>
							<trackindex>2</trackindex>
						</sourcetrack>
							<filter>
								<effect>
									<name>Audio Levels</name>
									<effectid>audiolevels</effectid>
									<effectcategory>audiolevels</effectcategory>
									<effecttype>audiolevels</effecttype>
									<mediatype>audio</mediatype>
									<parameter authoringApp="PremierePro">
										<parameterid>level</parameterid>
										<name>Level</name>
										<valuemin>0</valuemin>
										<valuemax>3.98109</valuemax>
										<value>0.707945</value>
									</parameter>
								</effect>
							</filter>
						<link>
							<linkclipref>clipitem-2451</linkclipref>
							<mediatype>audio</mediatype>
							<trackindex>17</trackindex>
							<clipindex>103</clipindex>
							<groupindex>1</groupindex>
						</link>
						<link>
							<linkclipref>clipitem-2621</linkclipref>
							<mediatype>audio</mediatype>
							<trackindex>18</trackindex>
							<clipindex>96</clipindex>
							<groupindex>1</groupindex>
						</link>
						<logginginfo>
							<description></description>
							<scene></scene>
							<shottake></shottake>
							<lognote></lognote>
						</logginginfo>
						<labels>
							<label2>Iris</label2>
						</labels>
					</clipitem>
					<clipitem id="clipitem-2622" premiereChannelType="stereo">
						<masterclipid>masterclip-39</masterclipid>
						<name>musikkvideo-1352-18180.mxf</name>
						<enabled>TRUE</enabled>
						<duration>6601</duration>
						<rate>
							<timebase>25</timebase>
							<ntsc>FALSE</ntsc>
						</rate>
						<start>21595</start>
						<end>-1</end>
						<in>1591</in>
						<out>1719</out>
						<pproTicksIn>16165578240000</pproTicksIn>
						<pproTicksOut>17466140160000</pproTicksOut>
						<file id="file-35"/>
						<sourcetrack>
							<mediatype>audio</mediatype>
							<trackindex>2</trackindex>
						</sourcetrack>
							<filter>
								<effect>
									<name>Audio Levels</name>
									<effectid>audiolevels</effectid>
									<effectcategory>audiolevels</effectcategory>
									<effecttype>audiolevels</effecttype>
									<mediatype>audio</mediatype>
									<parameter authoringApp="PremierePro">
										<parameterid>level</parameterid>
										<name>Level</name>
										<valuemin>0</valuemin>
										<valuemax>3.98109</valuemax>
										<value>0.383704</value>
									</parameter>
								</effect>
							</filter>
						<link>
							<linkclipref>clipitem-2452</linkclipref>
							<mediatype>audio</mediatype>
							<trackindex>17</trackindex>
							<clipindex>104</clipindex>
							<groupindex>1</groupindex>
						</link>
						<link>
							<linkclipref>clipitem-2622</linkclipref>
							<mediatype>audio</mediatype>
							<trackindex>18</trackindex>
							<clipindex>97</clipindex>
							<groupindex>1</groupindex>
						</link>
						<logginginfo>
							<description></description>
							<scene></scene>
							<shottake></shottake>
							<lognote></lognote>
						</logginginfo>
						<labels>
							<label2>Iris</label2>
						</labels>
					</clipitem>
					<transitionitem>
						<start>21710</start>
						<end>21723</end>
						<alignment>center</alignment>
						<cutPointTicks>60963840000</cutPointTicks>
						<rate>
							<timebase>25</timebase>
							<ntsc>FALSE</ntsc>
						</rate>
						<effect>
							<name>Cross Fade (+3dB)</name>
							<effectid>KGAudioTransCrossFade3dB</effectid>
							<effecttype>transition</effecttype>
							<mediatype>audio</mediatype>
							<wipecode>0</wipecode>
							<wipeaccuracy>100</wipeaccuracy>
							<startratio>0</startratio>
							<endratio>1</endratio>
							<reverse>FALSE</reverse>
						</effect>
					</transitionitem>
					<clipitem id="clipitem-2623" premiereChannelType="stereo">
						<masterclipid>masterclip-39</masterclipid>
						<name>musikkvideo-1352-18180.mxf</name>
						<enabled>TRUE</enabled>
						<duration>6601</duration>
						<rate>
							<timebase>25</timebase>
							<ntsc>FALSE</ntsc>
						</rate>
						<start>-1</start>
						<end>21859</end>
						<in>1706</in>
						<out>1855</out>
						<pproTicksIn>17334051840000</pproTicksIn>
						<pproTicksOut>18847987200000</pproTicksOut>
						<file id="file-35"/>
						<sourcetrack>
							<mediatype>audio</mediatype>
							<trackindex>2</trackindex>
						</sourcetrack>
							<filter>
								<effect>
									<name>Audio Levels</name>
									<effectid>audiolevels</effectid>
									<effectcategory>audiolevels</effectcategory>
									<effecttype>audiolevels</effecttype>
									<mediatype>audio</mediatype>
									<parameter authoringApp="PremierePro">
										<parameterid>level</parameterid>
										<name>Level</name>
										<valuemin>0</valuemin>
										<valuemax>3.98109</valuemax>
										<value>1.40919</value>
									</parameter>
								</effect>
							</filter>
						<link>
							<linkclipref>clipitem-2453</linkclipref>
							<mediatype>audio</mediatype>
							<trackindex>17</trackindex>
							<clipindex>106</clipindex>
							<groupindex>1</groupindex>
						</link>
						<link>
							<linkclipref>clipitem-2623</linkclipref>
							<mediatype>audio</mediatype>
							<trackindex>18</trackindex>
							<clipindex>99</clipindex>
							<groupindex>1</groupindex>
						</link>
						<logginginfo>
							<description></description>
							<scene></scene>
							<shottake></shottake>
							<lognote></lognote>
						</logginginfo>
						<labels>
							<label2>Iris</label2>
						</labels>
					</clipitem>
					<clipitem id="clipitem-2624" premiereChannelType="stereo">
						<masterclipid>masterclip-40</masterclipid>
						<name>musikkvideo-1370-15956.mxf</name>
						<enabled>TRUE</enabled>
						<duration>6075</duration>
						<rate>
							<timebase>25</timebase>
							<ntsc>FALSE</ntsc>
						</rate>
						<start>21859</start>
						<end>22292</end>
						<in>4473</in>
						<out>4906</out>
						<pproTicksIn>45448542720000</pproTicksIn>
						<pproTicksOut>49848099840000</pproTicksOut>
						<file id="file-36"/>
						<sourcetrack>
							<mediatype>audio</mediatype>
							<trackindex>2</trackindex>
						</sourcetrack>
							<filter>
								<effect>
									<name>Audio Levels</name>
									<effectid>audiolevels</effectid>
									<effectcategory>audiolevels</effectcategory>
									<effecttype>audiolevels</effecttype>
									<mediatype>audio</mediatype>
									<parameter authoringApp="PremierePro">
										<parameterid>level</parameterid>
										<name>Level</name>
										<valuemin>0</valuemin>
										<valuemax>3.98109</valuemax>
										<value>0</value>
										<keyframe>
											<when>4768</when>
											<value>0.99763</value>
										</keyframe>
										<keyframe>
											<when>4905</when>
											<value>0</value>
										</keyframe>
									</parameter>
								</effect>
							</filter>
						<link>
							<linkclipref>clipitem-2454</linkclipref>
							<mediatype>audio</mediatype>
							<trackindex>17</trackindex>
							<clipindex>107</clipindex>
							<groupindex>1</groupindex>
						</link>
						<link>
							<linkclipref>clipitem-2624</linkclipref>
							<mediatype>audio</mediatype>
							<trackindex>18</trackindex>
							<clipindex>100</clipindex>
							<groupindex>1</groupindex>
						</link>
						<logginginfo>
							<description></description>
							<scene></scene>
							<shottake></shottake>
							<lognote></lognote>
						</logginginfo>
						<labels>
							<label2>Iris</label2>
						</labels>
					</clipitem>
					<clipitem id="clipitem-2625" premiereChannelType="stereo">
						<masterclipid>masterclip-98</masterclipid>
						<name>Noen få ler kort.wav</name>
						<enabled>TRUE</enabled>
						<duration>43</duration>
						<rate>
							<timebase>25</timebase>
							<ntsc>FALSE</ntsc>
						</rate>
						<start>22711</start>
						<end>22754</end>
						<in>0</in>
						<out>43</out>
						<pproTicksIn>0</pproTicksIn>
						<pproTicksOut>436907520000</pproTicksOut>
						<file id="file-94"/>
						<sourcetrack>
							<mediatype>audio</mediatype>
							<trackindex>2</trackindex>
						</sourcetrack>
						<link>
							<linkclipref>clipitem-2455</linkclipref>
							<mediatype>audio</mediatype>
							<trackindex>17</trackindex>
							<clipindex>108</clipindex>
							<groupindex>1</groupindex>
						</link>
						<link>
							<linkclipref>clipitem-2625</linkclipref>
							<mediatype>audio</mediatype>
							<trackindex>18</trackindex>
							<clipindex>101</clipindex>
							<groupindex>1</groupindex>
						</link>
						<logginginfo>
							<description></description>
							<scene></scene>
							<shottake></shottake>
							<lognote></lognote>
						</logginginfo>
						<labels>
							<label2>Caribbean</label2>
						</labels>
					</clipitem>
					<clipitem id="clipitem-2626" premiereChannelType="stereo">
						<masterclipid>masterclip-99</masterclipid>
						<name>Latter en fyr.wav</name>
						<enabled>TRUE</enabled>
						<duration>34</duration>
						<rate>
							<timebase>25</timebase>
							<ntsc>FALSE</ntsc>
						</rate>
						<start>23323</start>
						<end>23357</end>
						<in>0</in>
						<out>34</out>
						<pproTicksIn>0</pproTicksIn>
						<pproTicksOut>345461760000</pproTicksOut>
						<file id="file-95"/>
						<sourcetrack>
							<mediatype>audio</mediatype>
							<trackindex>2</trackindex>
						</sourcetrack>
						<link>
							<linkclipref>clipitem-2456</linkclipref>
							<mediatype>audio</mediatype>
							<trackindex>17</trackindex>
							<clipindex>109</clipindex>
							<groupindex>1</groupindex>
						</link>
						<link>
							<linkclipref>clipitem-2626</linkclipref>
							<mediatype>audio</mediatype>
							<trackindex>18</trackindex>
							<clipindex>102</clipindex>
							<groupindex>1</groupindex>
						</link>
						<logginginfo>
							<description></description>
							<scene></scene>
							<shottake></shottake>
							<lognote></lognote>
						</logginginfo>
						<labels>
							<label2>Caribbean</label2>
						</labels>
					</clipitem>
					<clipitem id="clipitem-2627" premiereChannelType="stereo">
						<masterclipid>masterclip-78</masterclipid>
						<name>Humring.wav</name>
						<enabled>TRUE</enabled>
						<duration>62</duration>
						<rate>
							<timebase>25</timebase>
							<ntsc>FALSE</ntsc>
						</rate>
						<start>23601</start>
						<end>23663</end>
						<in>0</in>
						<out>62</out>
						<pproTicksIn>0</pproTicksIn>
						<pproTicksOut>629959680000</pproTicksOut>
						<file id="file-74"/>
						<sourcetrack>
							<mediatype>audio</mediatype>
							<trackindex>2</trackindex>
						</sourcetrack>
						<link>
							<linkclipref>clipitem-2457</linkclipref>
							<mediatype>audio</mediatype>
							<trackindex>17</trackindex>
							<clipindex>110</clipindex>
							<groupindex>1</groupindex>
						</link>
						<link>
							<linkclipref>clipitem-2627</linkclipref>
							<mediatype>audio</mediatype>
							<trackindex>18</trackindex>
							<clipindex>103</clipindex>
							<groupindex>1</groupindex>
						</link>
						<logginginfo>
							<description></description>
							<scene></scene>
							<shottake></shottake>
							<lognote></lognote>
						</logginginfo>
						<labels>
							<label2>Caribbean</label2>
						</labels>
					</clipitem>
					<clipitem id="clipitem-2628" premiereChannelType="stereo">
						<masterclipid>masterclip-100</masterclipid>
						<name>Latter spredt.wav</name>
						<enabled>TRUE</enabled>
						<duration>91</duration>
						<rate>
							<timebase>25</timebase>
							<ntsc>FALSE</ntsc>
						</rate>
						<start>23797</start>
						<end>23888</end>
						<in>0</in>
						<out>91</out>
						<pproTicksIn>0</pproTicksIn>
						<pproTicksOut>924618240000</pproTicksOut>
						<file id="file-96"/>
						<sourcetrack>
							<mediatype>audio</mediatype>
							<trackindex>2</trackindex>
						</sourcetrack>
						<link>
							<linkclipref>clipitem-2458</linkclipref>
							<mediatype>audio</mediatype>
							<trackindex>17</trackindex>
							<clipindex>111</clipindex>
							<groupindex>1</groupindex>
						</link>
						<link>
							<linkclipref>clipitem-2628</linkclipref>
							<mediatype>audio</mediatype>
							<trackindex>18</trackindex>
							<clipindex>104</clipindex>
							<groupindex>1</groupindex>
						</link>
						<logginginfo>
							<description></description>
							<scene></scene>
							<shottake></shottake>
							<lognote></lognote>
						</logginginfo>
						<labels>
							<label2>Caribbean</label2>
						</labels>
					</clipitem>
					<clipitem id="clipitem-2629" premiereChannelType="stereo">
						<masterclipid>masterclip-101</masterclipid>
						<name>Latter kort litt klapping.wav</name>
						<enabled>TRUE</enabled>
						<duration>68</duration>
						<rate>
							<timebase>25</timebase>
							<ntsc>FALSE</ntsc>
						</rate>
						<start>24086</start>
						<end>24114</end>
						<in>0</in>
						<out>28</out>
						<pproTicksIn>0</pproTicksIn>
						<pproTicksOut>284497920000</pproTicksOut>
						<file id="file-97"/>
						<sourcetrack>
							<mediatype>audio</mediatype>
							<trackindex>2</trackindex>
						</sourcetrack>
						<link>
							<linkclipref>clipitem-2459</linkclipref>
							<mediatype>audio</mediatype>
							<trackindex>17</trackindex>
							<clipindex>112</clipindex>
							<groupindex>1</groupindex>
						</link>
						<link>
							<linkclipref>clipitem-2629</linkclipref>
							<mediatype>audio</mediatype>
							<trackindex>18</trackindex>
							<clipindex>105</clipindex>
							<groupindex>1</groupindex>
						</link>
						<logginginfo>
							<description></description>
							<scene></scene>
							<shottake></shottake>
							<lognote></lognote>
						</logginginfo>
						<labels>
							<label2>Caribbean</label2>
						</labels>
					</clipitem>
					<clipitem id="clipitem-2630" premiereChannelType="stereo">
						<masterclipid>masterclip-101</masterclipid>
						<name>Latter kort litt klapping.wav</name>
						<enabled>TRUE</enabled>
						<duration>68</duration>
						<rate>
							<timebase>25</timebase>
							<ntsc>FALSE</ntsc>
						</rate>
						<start>24114</start>
						<end>24154</end>
						<in>28</in>
						<out>68</out>
						<pproTicksIn>284497920000</pproTicksIn>
						<pproTicksOut>690923520000</pproTicksOut>
						<file id="file-97"/>
						<sourcetrack>
							<mediatype>audio</mediatype>
							<trackindex>2</trackindex>
						</sourcetrack>
						<link>
							<linkclipref>clipitem-2460</linkclipref>
							<mediatype>audio</mediatype>
							<trackindex>17</trackindex>
							<clipindex>113</clipindex>
							<groupindex>1</groupindex>
						</link>
						<link>
							<linkclipref>clipitem-2630</linkclipref>
							<mediatype>audio</mediatype>
							<trackindex>18</trackindex>
							<clipindex>106</clipindex>
							<groupindex>1</groupindex>
						</link>
						<logginginfo>
							<description></description>
							<scene></scene>
							<shottake></shottake>
							<lognote></lognote>
						</logginginfo>
						<labels>
							<label2>Caribbean</label2>
						</labels>
					</clipitem>
					<clipitem id="clipitem-2631" premiereChannelType="stereo">
						<masterclipid>masterclip-102</masterclipid>
						<name>Applaus 7 sek høflig.wav</name>
						<enabled>TRUE</enabled>
						<duration>189</duration>
						<rate>
							<timebase>25</timebase>
							<ntsc>FALSE</ntsc>
						</rate>
						<start>25266</start>
						<end>25455</end>
						<in>0</in>
						<out>189</out>
						<pproTicksIn>0</pproTicksIn>
						<pproTicksOut>1920360960000</pproTicksOut>
						<file id="file-98"/>
						<sourcetrack>
							<mediatype>audio</mediatype>
							<trackindex>2</trackindex>
						</sourcetrack>
						<link>
							<linkclipref>clipitem-2461</linkclipref>
							<mediatype>audio</mediatype>
							<trackindex>17</trackindex>
							<clipindex>114</clipindex>
							<groupindex>1</groupindex>
						</link>
						<link>
							<linkclipref>clipitem-2631</linkclipref>
							<mediatype>audio</mediatype>
							<trackindex>18</trackindex>
							<clipindex>107</clipindex>
							<groupindex>1</groupindex>
						</link>
						<logginginfo>
							<description></description>
							<scene></scene>
							<shottake></shottake>
							<lognote></lognote>
						</logginginfo>
						<labels>
							<label2>Caribbean</label2>
						</labels>
					</clipitem>
					<clipitem id="clipitem-2632" premiereChannelType="stereo">
						<masterclipid>masterclip-103</masterclipid>
						<name>Latter brå.wav</name>
						<enabled>TRUE</enabled>
						<duration>87</duration>
						<rate>
							<timebase>25</timebase>
							<ntsc>FALSE</ntsc>
						</rate>
						<start>25495</start>
						<end>25582</end>
						<in>0</in>
						<out>87</out>
						<pproTicksIn>0</pproTicksIn>
						<pproTicksOut>883975680000</pproTicksOut>
						<file id="file-99"/>
						<sourcetrack>
							<mediatype>audio</mediatype>
							<trackindex>2</trackindex>
						</sourcetrack>
						<link>
							<linkclipref>clipitem-2462</linkclipref>
							<mediatype>audio</mediatype>
							<trackindex>17</trackindex>
							<clipindex>115</clipindex>
							<groupindex>1</groupindex>
						</link>
						<link>
							<linkclipref>clipitem-2632</linkclipref>
							<mediatype>audio</mediatype>
							<trackindex>18</trackindex>
							<clipindex>108</clipindex>
							<groupindex>1</groupindex>
						</link>
						<logginginfo>
							<description></description>
							<scene></scene>
							<shottake></shottake>
							<lognote></lognote>
						</logginginfo>
						<labels>
							<label2>Caribbean</label2>
						</labels>
					</clipitem>
					<clipitem id="clipitem-2633" premiereChannelType="stereo">
						<masterclipid>masterclip-104</masterclipid>
						<name>Latter klukking.wav</name>
						<enabled>TRUE</enabled>
						<duration>129</duration>
						<rate>
							<timebase>25</timebase>
							<ntsc>FALSE</ntsc>
						</rate>
						<start>25621</start>
						<end>25750</end>
						<in>0</in>
						<out>129</out>
						<pproTicksIn>0</pproTicksIn>
						<pproTicksOut>1310722560000</pproTicksOut>
						<file id="file-100"/>
						<sourcetrack>
							<mediatype>audio</mediatype>
							<trackindex>2</trackindex>
						</sourcetrack>
						<link>
							<linkclipref>clipitem-2463</linkclipref>
							<mediatype>audio</mediatype>
							<trackindex>17</trackindex>
							<clipindex>116</clipindex>
							<groupindex>1</groupindex>
						</link>
						<link>
							<linkclipref>clipitem-2633</linkclipref>
							<mediatype>audio</mediatype>
							<trackindex>18</trackindex>
							<clipindex>109</clipindex>
							<groupindex>1</groupindex>
						</link>
						<logginginfo>
							<description></description>
							<scene></scene>
							<shottake></shottake>
							<lognote></lognote>
						</logginginfo>
						<labels>
							<label2>Caribbean</label2>
						</labels>
					</clipitem>
					<clipitem id="clipitem-2634" premiereChannelType="stereo">
						<masterclipid>masterclip-105</masterclipid>
						<name>Latter kort.wav</name>
						<enabled>TRUE</enabled>
						<duration>64</duration>
						<rate>
							<timebase>25</timebase>
							<ntsc>FALSE</ntsc>
						</rate>
						<start>25806</start>
						<end>25870</end>
						<in>0</in>
						<out>64</out>
						<pproTicksIn>0</pproTicksIn>
						<pproTicksOut>650280960000</pproTicksOut>
						<file id="file-101"/>
						<sourcetrack>
							<mediatype>audio</mediatype>
							<trackindex>2</trackindex>
						</sourcetrack>
						<link>
							<linkclipref>clipitem-2464</linkclipref>
							<mediatype>audio</mediatype>
							<trackindex>17</trackindex>
							<clipindex>117</clipindex>
							<groupindex>1</groupindex>
						</link>
						<link>
							<linkclipref>clipitem-2634</linkclipref>
							<mediatype>audio</mediatype>
							<trackindex>18</trackindex>
							<clipindex>110</clipindex>
							<groupindex>1</groupindex>
						</link>
						<logginginfo>
							<description></description>
							<scene></scene>
							<shottake></shottake>
							<lognote></lognote>
						</logginginfo>
						<labels>
							<label2>Caribbean</label2>
						</labels>
					</clipitem>
					<clipitem id="clipitem-2635" premiereChannelType="stereo">
						<masterclipid>masterclip-42</masterclipid>
						<name>Mira Craig Stage Dive.mp4</name>
						<enabled>TRUE</enabled>
						<duration>965</duration>
						<rate>
							<timebase>25</timebase>
							<ntsc>FALSE</ntsc>
						</rate>
						<start>26099</start>
						<end>-1</end>
						<in>452</in>
						<out>548</out>
						<pproTicksIn>4592609280000</pproTicksIn>
						<pproTicksOut>5568030720000</pproTicksOut>
						<file id="file-38"/>
						<sourcetrack>
							<mediatype>audio</mediatype>
							<trackindex>1</trackindex>
						</sourcetrack>
							<filter>
								<effect>
									<name>Audio Levels</name>
									<effectid>audiolevels</effectid>
									<effectcategory>audiolevels</effectcategory>
									<effecttype>audiolevels</effecttype>
									<mediatype>audio</mediatype>
									<parameter authoringApp="PremierePro">
										<parameterid>level</parameterid>
										<name>Level</name>
										<valuemin>0</valuemin>
										<valuemax>3.98109</valuemax>
										<value>1.25594</value>
									</parameter>
								</effect>
							</filter>
						<link>
							<linkclipref>clipitem-2465</linkclipref>
							<mediatype>audio</mediatype>
							<trackindex>17</trackindex>
							<clipindex>118</clipindex>
							<groupindex>1</groupindex>
						</link>
						<link>
							<linkclipref>clipitem-2635</linkclipref>
							<mediatype>audio</mediatype>
							<trackindex>18</trackindex>
							<clipindex>111</clipindex>
							<groupindex>1</groupindex>
						</link>
						<logginginfo>
							<description></description>
							<scene></scene>
							<shottake></shottake>
							<lognote></lognote>
						</logginginfo>
						<labels>
							<label2>Iris</label2>
						</labels>
					</clipitem>
					<transitionitem>
						<start>26182</start>
						<end>26195</end>
						<alignment>end-black</alignment>
						<cutPointTicks>132088320000</cutPointTicks>
						<rate>
							<timebase>25</timebase>
							<ntsc>FALSE</ntsc>
						</rate>
						<effect>
							<name>Cross Fade (+3dB)</name>
							<effectid>KGAudioTransCrossFade3dB</effectid>
							<effecttype>transition</effecttype>
							<mediatype>audio</mediatype>
							<wipecode>0</wipecode>
							<wipeaccuracy>100</wipeaccuracy>
							<startratio>0</startratio>
							<endratio>1</endratio>
							<reverse>FALSE</reverse>
						</effect>
					</transitionitem>
					<transitionitem>
						<start>26278</start>
						<end>26291</end>
						<alignment>start-black</alignment>
						<cutPointTicks>0</cutPointTicks>
						<rate>
							<timebase>25</timebase>
							<ntsc>FALSE</ntsc>
						</rate>
						<effect>
							<name>Cross Fade (+3dB)</name>
							<effectid>KGAudioTransCrossFade3dB</effectid>
							<effecttype>transition</effecttype>
							<mediatype>audio</mediatype>
							<wipecode>0</wipecode>
							<wipeaccuracy>100</wipeaccuracy>
							<startratio>0</startratio>
							<endratio>1</endratio>
							<reverse>FALSE</reverse>
						</effect>
					</transitionitem>
					<clipitem id="clipitem-2636" premiereChannelType="stereo">
						<masterclipid>masterclip-42</masterclipid>
						<name>Mira Craig Stage Dive.mp4</name>
						<enabled>TRUE</enabled>
						<duration>965</duration>
						<rate>
							<timebase>25</timebase>
							<ntsc>FALSE</ntsc>
						</rate>
						<start>-1</start>
						<end>26294</end>
						<in>447</in>
						<out>463</out>
						<pproTicksIn>4541806080000</pproTicksIn>
						<pproTicksOut>4704376320000</pproTicksOut>
						<file id="file-38"/>
						<sourcetrack>
							<mediatype>audio</mediatype>
							<trackindex>1</trackindex>
						</sourcetrack>
							<filter>
								<effect>
									<name>Audio Levels</name>
									<effectid>audiolevels</effectid>
									<effectcategory>audiolevels</effectcategory>
									<effecttype>audiolevels</effecttype>
									<mediatype>audio</mediatype>
									<parameter authoringApp="PremierePro">
										<parameterid>level</parameterid>
										<name>Level</name>
										<valuemin>0</valuemin>
										<valuemax>3.98109</valuemax>
										<value>1.25594</value>
									</parameter>
								</effect>
							</filter>
						<link>
							<linkclipref>clipitem-2466</linkclipref>
							<mediatype>audio</mediatype>
							<trackindex>17</trackindex>
							<clipindex>121</clipindex>
							<groupindex>1</groupindex>
						</link>
						<link>
							<linkclipref>clipitem-2636</linkclipref>
							<mediatype>audio</mediatype>
							<trackindex>18</trackindex>
							<clipindex>114</clipindex>
							<groupindex>1</groupindex>
						</link>
						<logginginfo>
							<description></description>
							<scene></scene>
							<shottake></shottake>
							<lognote></lognote>
						</logginginfo>
						<labels>
							<label2>Iris</label2>
						</labels>
					</clipitem>
					<clipitem id="clipitem-2637" premiereChannelType="stereo">
						<masterclipid>masterclip-42</masterclipid>
						<name>Mira Craig Stage Dive.mp4</name>
						<enabled>TRUE</enabled>
						<duration>965</duration>
						<rate>
							<timebase>25</timebase>
							<ntsc>FALSE</ntsc>
						</rate>
						<start>26294</start>
						<end>-1</end>
						<in>463</in>
						<out>548</out>
						<pproTicksIn>4704376320000</pproTicksIn>
						<pproTicksOut>5568030720000</pproTicksOut>
						<file id="file-38"/>
						<sourcetrack>
							<mediatype>audio</mediatype>
							<trackindex>1</trackindex>
						</sourcetrack>
							<filter>
								<effect>
									<name>Audio Levels</name>
									<effectid>audiolevels</effectid>
									<effectcategory>audiolevels</effectcategory>
									<effecttype>audiolevels</effecttype>
									<mediatype>audio</mediatype>
									<parameter authoringApp="PremierePro">
										<parameterid>level</parameterid>
										<name>Level</name>
										<valuemin>0</valuemin>
										<valuemax>3.98109</valuemax>
										<value>1.25594</value>
									</parameter>
								</effect>
							</filter>
						<link>
							<linkclipref>clipitem-2467</linkclipref>
							<mediatype>audio</mediatype>
							<trackindex>17</trackindex>
							<clipindex>122</clipindex>
							<groupindex>1</groupindex>
						</link>
						<link>
							<linkclipref>clipitem-2637</linkclipref>
							<mediatype>audio</mediatype>
							<trackindex>18</trackindex>
							<clipindex>115</clipindex>
							<groupindex>1</groupindex>
						</link>
						<logginginfo>
							<description></description>
							<scene></scene>
							<shottake></shottake>
							<lognote></lognote>
						</logginginfo>
						<labels>
							<label2>Iris</label2>
						</labels>
					</clipitem>
					<transitionitem>
						<start>26366</start>
						<end>26379</end>
						<alignment>end-black</alignment>
						<cutPointTicks>132088320000</cutPointTicks>
						<rate>
							<timebase>25</timebase>
							<ntsc>FALSE</ntsc>
						</rate>
						<effect>
							<name>Cross Fade (+3dB)</name>
							<effectid>KGAudioTransCrossFade3dB</effectid>
							<effecttype>transition</effecttype>
							<mediatype>audio</mediatype>
							<wipecode>0</wipecode>
							<wipeaccuracy>100</wipeaccuracy>
							<startratio>0</startratio>
							<endratio>1</endratio>
							<reverse>FALSE</reverse>
						</effect>
					</transitionitem>
					<clipitem id="clipitem-2638" premiereChannelType="stereo">
						<masterclipid>masterclip-106</masterclipid>
						<name>Avmålt, kort HEHEHE.wav</name>
						<enabled>TRUE</enabled>
						<duration>51</duration>
						<rate>
							<timebase>25</timebase>
							<ntsc>FALSE</ntsc>
						</rate>
						<start>26724</start>
						<end>26775</end>
						<in>0</in>
						<out>51</out>
						<pproTicksIn>0</pproTicksIn>
						<pproTicksOut>518192640000</pproTicksOut>
						<file id="file-102"/>
						<sourcetrack>
							<mediatype>audio</mediatype>
							<trackindex>2</trackindex>
						</sourcetrack>
						<link>
							<linkclipref>clipitem-2468</linkclipref>
							<mediatype>audio</mediatype>
							<trackindex>17</trackindex>
							<clipindex>124</clipindex>
							<groupindex>1</groupindex>
						</link>
						<link>
							<linkclipref>clipitem-2638</linkclipref>
							<mediatype>audio</mediatype>
							<trackindex>18</trackindex>
							<clipindex>117</clipindex>
							<groupindex>1</groupindex>
						</link>
						<logginginfo>
							<description></description>
							<scene></scene>
							<shottake></shottake>
							<lognote></lognote>
						</logginginfo>
						<labels>
							<label2>Caribbean</label2>
						</labels>
					</clipitem>
					<clipitem id="clipitem-2639" premiereChannelType="stereo">
						<masterclipid>masterclip-107</masterclipid>
						<name>Kort brå latter.wav</name>
						<enabled>TRUE</enabled>
						<duration>62</duration>
						<rate>
							<timebase>25</timebase>
							<ntsc>FALSE</ntsc>
						</rate>
						<start>26878</start>
						<end>26940</end>
						<in>0</in>
						<out>62</out>
						<pproTicksIn>0</pproTicksIn>
						<pproTicksOut>629959680000</pproTicksOut>
						<file id="file-103"/>
						<sourcetrack>
							<mediatype>audio</mediatype>
							<trackindex>2</trackindex>
						</sourcetrack>
						<link>
							<linkclipref>clipitem-2469</linkclipref>
							<mediatype>audio</mediatype>
							<trackindex>17</trackindex>
							<clipindex>125</clipindex>
							<groupindex>1</groupindex>
						</link>
						<link>
							<linkclipref>clipitem-2639</linkclipref>
							<mediatype>audio</mediatype>
							<trackindex>18</trackindex>
							<clipindex>118</clipindex>
							<groupindex>1</groupindex>
						</link>
						<logginginfo>
							<description></description>
							<scene></scene>
							<shottake></shottake>
							<lognote></lognote>
						</logginginfo>
						<labels>
							<label2>Caribbean</label2>
						</labels>
					</clipitem>
					<clipitem id="clipitem-2640" premiereChannelType="stereo">
						<masterclipid>masterclip-108</masterclipid>
						<name>Lavmælt latterkule.wav</name>
						<enabled>TRUE</enabled>
						<duration>102</duration>
						<rate>
							<timebase>25</timebase>
							<ntsc>FALSE</ntsc>
						</rate>
						<start>26952</start>
						<end>27054</end>
						<in>0</in>
						<out>102</out>
						<pproTicksIn>0</pproTicksIn>
						<pproTicksOut>1036385280000</pproTicksOut>
						<file id="file-104"/>
						<sourcetrack>
							<mediatype>audio</mediatype>
							<trackindex>2</trackindex>
						</sourcetrack>
						<link>
							<linkclipref>clipitem-2470</linkclipref>
							<mediatype>audio</mediatype>
							<trackindex>17</trackindex>
							<clipindex>126</clipindex>
							<groupindex>1</groupindex>
						</link>
						<link>
							<linkclipref>clipitem-2640</linkclipref>
							<mediatype>audio</mediatype>
							<trackindex>18</trackindex>
							<clipindex>119</clipindex>
							<groupindex>1</groupindex>
						</link>
						<logginginfo>
							<description></description>
							<scene></scene>
							<shottake></shottake>
							<lognote></lognote>
						</logginginfo>
						<labels>
							<label2>Caribbean</label2>
						</labels>
					</clipitem>
					<transitionitem>
						<start>27111</start>
						<end>27124</end>
						<alignment>start-black</alignment>
						<cutPointTicks>0</cutPointTicks>
						<rate>
							<timebase>25</timebase>
							<ntsc>FALSE</ntsc>
						</rate>
						<effect>
							<name>Cross Fade (+3dB)</name>
							<effectid>KGAudioTransCrossFade3dB</effectid>
							<effecttype>transition</effecttype>
							<mediatype>audio</mediatype>
							<wipecode>0</wipecode>
							<wipeaccuracy>100</wipeaccuracy>
							<startratio>0</startratio>
							<endratio>1</endratio>
							<reverse>FALSE</reverse>
						</effect>
					</transitionitem>
					<clipitem id="clipitem-2641" premiereChannelType="stereo">
						<masterclipid>masterclip-42</masterclipid>
						<name>Mira Craig Stage Dive.mp4</name>
						<enabled>TRUE</enabled>
						<duration>965</duration>
						<rate>
							<timebase>25</timebase>
							<ntsc>FALSE</ntsc>
						</rate>
						<start>-1</start>
						<end>-1</end>
						<in>381</in>
						<out>548</out>
						<pproTicksIn>3871203840000</pproTicksIn>
						<pproTicksOut>5568030720000</pproTicksOut>
						<file id="file-38"/>
						<sourcetrack>
							<mediatype>audio</mediatype>
							<trackindex>1</trackindex>
						</sourcetrack>
							<filter>
								<effect>
									<name>Audio Levels</name>
									<effectid>audiolevels</effectid>
									<effectcategory>audiolevels</effectcategory>
									<effecttype>audiolevels</effecttype>
									<mediatype>audio</mediatype>
									<parameter authoringApp="PremierePro">
										<parameterid>level</parameterid>
										<name>Level</name>
										<valuemin>0</valuemin>
										<valuemax>3.98109</valuemax>
										<value>1.25594</value>
									</parameter>
								</effect>
							</filter>
						<link>
							<linkclipref>clipitem-2471</linkclipref>
							<mediatype>audio</mediatype>
							<trackindex>17</trackindex>
							<clipindex>128</clipindex>
							<groupindex>1</groupindex>
						</link>
						<link>
							<linkclipref>clipitem-2641</linkclipref>
							<mediatype>audio</mediatype>
							<trackindex>18</trackindex>
							<clipindex>121</clipindex>
							<groupindex>1</groupindex>
						</link>
						<logginginfo>
							<description></description>
							<scene></scene>
							<shottake></shottake>
							<lognote></lognote>
						</logginginfo>
						<labels>
							<label2>Iris</label2>
						</labels>
					</clipitem>
					<transitionitem>
						<start>27265</start>
						<end>27278</end>
						<alignment>end-black</alignment>
						<cutPointTicks>132088320000</cutPointTicks>
						<rate>
							<timebase>25</timebase>
							<ntsc>FALSE</ntsc>
						</rate>
						<effect>
							<name>Cross Fade (+3dB)</name>
							<effectid>KGAudioTransCrossFade3dB</effectid>
							<effecttype>transition</effecttype>
							<mediatype>audio</mediatype>
							<wipecode>0</wipecode>
							<wipeaccuracy>100</wipeaccuracy>
							<startratio>0</startratio>
							<endratio>1</endratio>
							<reverse>FALSE</reverse>
						</effect>
					</transitionitem>
					<transitionitem>
						<start>27316</start>
						<end>27329</end>
						<alignment>start-black</alignment>
						<cutPointTicks>0</cutPointTicks>
						<rate>
							<timebase>25</timebase>
							<ntsc>FALSE</ntsc>
						</rate>
						<effect>
							<name>Cross Fade (+3dB)</name>
							<effectid>KGAudioTransCrossFade3dB</effectid>
							<effecttype>transition</effecttype>
							<mediatype>audio</mediatype>
							<wipecode>0</wipecode>
							<wipeaccuracy>100</wipeaccuracy>
							<startratio>0</startratio>
							<endratio>1</endratio>
							<reverse>FALSE</reverse>
						</effect>
					</transitionitem>
					<clipitem id="clipitem-2642" premiereChannelType="stereo">
						<masterclipid>masterclip-42</masterclipid>
						<name>Mira Craig Stage Dive.mp4</name>
						<enabled>TRUE</enabled>
						<duration>965</duration>
						<rate>
							<timebase>25</timebase>
							<ntsc>FALSE</ntsc>
						</rate>
						<start>-1</start>
						<end>-1</end>
						<in>381</in>
						<out>548</out>
						<pproTicksIn>3871203840000</pproTicksIn>
						<pproTicksOut>5568030720000</pproTicksOut>
						<file id="file-38"/>
						<sourcetrack>
							<mediatype>audio</mediatype>
							<trackindex>1</trackindex>
						</sourcetrack>
							<filter>
								<effect>
									<name>Audio Levels</name>
									<effectid>audiolevels</effectid>
									<effectcategory>audiolevels</effectcategory>
									<effecttype>audiolevels</effecttype>
									<mediatype>audio</mediatype>
									<parameter authoringApp="PremierePro">
										<parameterid>level</parameterid>
										<name>Level</name>
										<valuemin>0</valuemin>
										<valuemax>3.98109</valuemax>
										<value>1.25594</value>
									</parameter>
								</effect>
							</filter>
						<link>
							<linkclipref>clipitem-2472</linkclipref>
							<mediatype>audio</mediatype>
							<trackindex>17</trackindex>
							<clipindex>131</clipindex>
							<groupindex>1</groupindex>
						</link>
						<link>
							<linkclipref>clipitem-2642</linkclipref>
							<mediatype>audio</mediatype>
							<trackindex>18</trackindex>
							<clipindex>124</clipindex>
							<groupindex>1</groupindex>
						</link>
						<logginginfo>
							<description></description>
							<scene></scene>
							<shottake></shottake>
							<lognote></lognote>
						</logginginfo>
						<labels>
							<label2>Iris</label2>
						</labels>
					</clipitem>
					<transitionitem>
						<start>27470</start>
						<end>27483</end>
						<alignment>end-black</alignment>
						<cutPointTicks>132088320000</cutPointTicks>
						<rate>
							<timebase>25</timebase>
							<ntsc>FALSE</ntsc>
						</rate>
						<effect>
							<name>Cross Fade (+3dB)</name>
							<effectid>KGAudioTransCrossFade3dB</effectid>
							<effecttype>transition</effecttype>
							<mediatype>audio</mediatype>
							<wipecode>0</wipecode>
							<wipeaccuracy>100</wipeaccuracy>
							<startratio>0</startratio>
							<endratio>1</endratio>
							<reverse>FALSE</reverse>
						</effect>
					</transitionitem>
					<clipitem id="clipitem-2643" premiereChannelType="stereo">
						<masterclipid>masterclip-109</masterclipid>
						<name>Kort brå klukkende latter.wav</name>
						<enabled>TRUE</enabled>
						<duration>98</duration>
						<rate>
							<timebase>25</timebase>
							<ntsc>FALSE</ntsc>
						</rate>
						<start>27907</start>
						<end>28005</end>
						<in>0</in>
						<out>98</out>
						<pproTicksIn>0</pproTicksIn>
						<pproTicksOut>995742720000</pproTicksOut>
						<file id="file-105"/>
						<sourcetrack>
							<mediatype>audio</mediatype>
							<trackindex>2</trackindex>
						</sourcetrack>
						<link>
							<linkclipref>clipitem-2473</linkclipref>
							<mediatype>audio</mediatype>
							<trackindex>17</trackindex>
							<clipindex>133</clipindex>
							<groupindex>1</groupindex>
						</link>
						<link>
							<linkclipref>clipitem-2643</linkclipref>
							<mediatype>audio</mediatype>
							<trackindex>18</trackindex>
							<clipindex>126</clipindex>
							<groupindex>1</groupindex>
						</link>
						<logginginfo>
							<description></description>
							<scene></scene>
							<shottake></shottake>
							<lognote></lognote>
						</logginginfo>
						<labels>
							<label2>Caribbean</label2>
						</labels>
					</clipitem>
					<clipitem id="clipitem-2644" premiereChannelType="stereo">
						<masterclipid>masterclip-110</masterclipid>
						<name>Kort, liten overbærende latter.wav</name>
						<enabled>TRUE</enabled>
						<duration>39</duration>
						<rate>
							<timebase>25</timebase>
							<ntsc>FALSE</ntsc>
						</rate>
						<start>28201</start>
						<end>28240</end>
						<in>0</in>
						<out>39</out>
						<pproTicksIn>0</pproTicksIn>
						<pproTicksOut>396264960000</pproTicksOut>
						<file id="file-106"/>
						<sourcetrack>
							<mediatype>audio</mediatype>
							<trackindex>2</trackindex>
						</sourcetrack>
						<link>
							<linkclipref>clipitem-2474</linkclipref>
							<mediatype>audio</mediatype>
							<trackindex>17</trackindex>
							<clipindex>134</clipindex>
							<groupindex>1</groupindex>
						</link>
						<link>
							<linkclipref>clipitem-2644</linkclipref>
							<mediatype>audio</mediatype>
							<trackindex>18</trackindex>
							<clipindex>127</clipindex>
							<groupindex>1</groupindex>
						</link>
						<logginginfo>
							<description></description>
							<scene></scene>
							<shottake></shottake>
							<lognote></lognote>
						</logginginfo>
						<labels>
							<label2>Caribbean</label2>
						</labels>
					</clipitem>
					<clipitem id="clipitem-2645" premiereChannelType="stereo">
						<masterclipid>masterclip-83</masterclipid>
						<name>Kort, meget behersket latter.wav</name>
						<enabled>TRUE</enabled>
						<duration>46</duration>
						<rate>
							<timebase>25</timebase>
							<ntsc>FALSE</ntsc>
						</rate>
						<start>28376</start>
						<end>28422</end>
						<in>0</in>
						<out>46</out>
						<pproTicksIn>0</pproTicksIn>
						<pproTicksOut>467389440000</pproTicksOut>
						<file id="file-79"/>
						<sourcetrack>
							<mediatype>audio</mediatype>
							<trackindex>2</trackindex>
						</sourcetrack>
						<link>
							<linkclipref>clipitem-2475</linkclipref>
							<mediatype>audio</mediatype>
							<trackindex>17</trackindex>
							<clipindex>135</clipindex>
							<groupindex>1</groupindex>
						</link>
						<link>
							<linkclipref>clipitem-2645</linkclipref>
							<mediatype>audio</mediatype>
							<trackindex>18</trackindex>
							<clipindex>128</clipindex>
							<groupindex>1</groupindex>
						</link>
						<logginginfo>
							<description></description>
							<scene></scene>
							<shottake></shottake>
							<lognote></lognote>
						</logginginfo>
						<labels>
							<label2>Caribbean</label2>
						</labels>
					</clipitem>
					<clipitem id="clipitem-2646" premiereChannelType="stereo">
						<masterclipid>masterclip-107</masterclipid>
						<name>Kort brå latter.wav</name>
						<enabled>TRUE</enabled>
						<duration>62</duration>
						<rate>
							<timebase>25</timebase>
							<ntsc>FALSE</ntsc>
						</rate>
						<start>28841</start>
						<end>28903</end>
						<in>0</in>
						<out>62</out>
						<pproTicksIn>0</pproTicksIn>
						<pproTicksOut>629959680000</pproTicksOut>
						<file id="file-103"/>
						<sourcetrack>
							<mediatype>audio</mediatype>
							<trackindex>2</trackindex>
						</sourcetrack>
						<link>
							<linkclipref>clipitem-2476</linkclipref>
							<mediatype>audio</mediatype>
							<trackindex>17</trackindex>
							<clipindex>136</clipindex>
							<groupindex>1</groupindex>
						</link>
						<link>
							<linkclipref>clipitem-2646</linkclipref>
							<mediatype>audio</mediatype>
							<trackindex>18</trackindex>
							<clipindex>129</clipindex>
							<groupindex>1</groupindex>
						</link>
						<logginginfo>
							<description></description>
							<scene></scene>
							<shottake></shottake>
							<lognote></lognote>
						</logginginfo>
						<labels>
							<label2>Caribbean</label2>
						</labels>
					</clipitem>
					<clipitem id="clipitem-2647" premiereChannelType="stereo">
						<masterclipid>masterclip-111</masterclipid>
						<name>Kort artig latterkule.wav</name>
						<enabled>TRUE</enabled>
						<duration>72</duration>
						<rate>
							<timebase>25</timebase>
							<ntsc>FALSE</ntsc>
						</rate>
						<start>28912</start>
						<end>28984</end>
						<in>0</in>
						<out>72</out>
						<pproTicksIn>0</pproTicksIn>
						<pproTicksOut>731566080000</pproTicksOut>
						<file id="file-107"/>
						<sourcetrack>
							<mediatype>audio</mediatype>
							<trackindex>2</trackindex>
						</sourcetrack>
						<link>
							<linkclipref>clipitem-2477</linkclipref>
							<mediatype>audio</mediatype>
							<trackindex>17</trackindex>
							<clipindex>137</clipindex>
							<groupindex>1</groupindex>
						</link>
						<link>
							<linkclipref>clipitem-2647</linkclipref>
							<mediatype>audio</mediatype>
							<trackindex>18</trackindex>
							<clipindex>130</clipindex>
							<groupindex>1</groupindex>
						</link>
						<logginginfo>
							<description></description>
							<scene></scene>
							<shottake></shottake>
							<lognote></lognote>
						</logginginfo>
						<labels>
							<label2>Caribbean</label2>
						</labels>
					</clipitem>
					<clipitem id="clipitem-2648" premiereChannelType="stereo">
						<masterclipid>masterclip-112</masterclipid>
						<name>Latter uryddig med litt applaus 9sek.wav</name>
						<enabled>TRUE</enabled>
						<duration>234</duration>
						<rate>
							<timebase>25</timebase>
							<ntsc>FALSE</ntsc>
						</rate>
						<start>29209</start>
						<end>29443</end>
						<in>0</in>
						<out>234</out>
						<pproTicksIn>0</pproTicksIn>
						<pproTicksOut>2377589760000</pproTicksOut>
						<file id="file-108"/>
						<sourcetrack>
							<mediatype>audio</mediatype>
							<trackindex>2</trackindex>
						</sourcetrack>
							<filter>
								<effect>
									<name>Audio Levels</name>
									<effectid>audiolevels</effectid>
									<effectcategory>audiolevels</effectcategory>
									<effecttype>audiolevels</effecttype>
									<mediatype>audio</mediatype>
									<parameter authoringApp="PremierePro">
										<parameterid>level</parameterid>
										<name>Level</name>
										<valuemin>0</valuemin>
										<valuemax>3.98109</valuemax>
										<value>1.08438</value>
									</parameter>
								</effect>
							</filter>
						<link>
							<linkclipref>clipitem-2478</linkclipref>
							<mediatype>audio</mediatype>
							<trackindex>17</trackindex>
							<clipindex>138</clipindex>
							<groupindex>1</groupindex>
						</link>
						<link>
							<linkclipref>clipitem-2648</linkclipref>
							<mediatype>audio</mediatype>
							<trackindex>18</trackindex>
							<clipindex>131</clipindex>
							<groupindex>1</groupindex>
						</link>
						<logginginfo>
							<description></description>
							<scene></scene>
							<shottake></shottake>
							<lognote></lognote>
						</logginginfo>
						<labels>
							<label2>Caribbean</label2>
						</labels>
					</clipitem>
					<clipitem id="clipitem-2649" premiereChannelType="stereo">
						<masterclipid>masterclip-113</masterclipid>
						<name>Latter kort liten brå.wav</name>
						<enabled>TRUE</enabled>
						<duration>55</duration>
						<rate>
							<timebase>25</timebase>
							<ntsc>FALSE</ntsc>
						</rate>
						<start>29551</start>
						<end>29601</end>
						<in>0</in>
						<out>50</out>
						<pproTicksIn>0</pproTicksIn>
						<pproTicksOut>508032000000</pproTicksOut>
						<file id="file-109"/>
						<sourcetrack>
							<mediatype>audio</mediatype>
							<trackindex>2</trackindex>
						</sourcetrack>
						<link>
							<linkclipref>clipitem-2479</linkclipref>
							<mediatype>audio</mediatype>
							<trackindex>17</trackindex>
							<clipindex>139</clipindex>
							<groupindex>1</groupindex>
						</link>
						<link>
							<linkclipref>clipitem-2649</linkclipref>
							<mediatype>audio</mediatype>
							<trackindex>18</trackindex>
							<clipindex>132</clipindex>
							<groupindex>1</groupindex>
						</link>
						<logginginfo>
							<description></description>
							<scene></scene>
							<shottake></shottake>
							<lognote></lognote>
						</logginginfo>
						<labels>
							<label2>Caribbean</label2>
						</labels>
					</clipitem>
					<clipitem id="clipitem-2650" premiereChannelType="stereo">
						<masterclipid>masterclip-114</masterclipid>
						<name>Latterkule bitteliten.wav</name>
						<enabled>TRUE</enabled>
						<duration>74</duration>
						<rate>
							<timebase>25</timebase>
							<ntsc>FALSE</ntsc>
						</rate>
						<start>29619</start>
						<end>29693</end>
						<in>0</in>
						<out>74</out>
						<pproTicksIn>0</pproTicksIn>
						<pproTicksOut>751887360000</pproTicksOut>
						<file id="file-110"/>
						<sourcetrack>
							<mediatype>audio</mediatype>
							<trackindex>2</trackindex>
						</sourcetrack>
						<link>
							<linkclipref>clipitem-2480</linkclipref>
							<mediatype>audio</mediatype>
							<trackindex>17</trackindex>
							<clipindex>140</clipindex>
							<groupindex>1</groupindex>
						</link>
						<link>
							<linkclipref>clipitem-2650</linkclipref>
							<mediatype>audio</mediatype>
							<trackindex>18</trackindex>
							<clipindex>133</clipindex>
							<groupindex>1</groupindex>
						</link>
						<logginginfo>
							<description></description>
							<scene></scene>
							<shottake></shottake>
							<lognote></lognote>
						</logginginfo>
						<labels>
							<label2>Caribbean</label2>
						</labels>
					</clipitem>
					<clipitem id="clipitem-2651" premiereChannelType="stereo">
						<masterclipid>masterclip-115</masterclipid>
						<name>HOTorNOT?KJENDISTOPPEN1-Apollo_SMX_143_61__Bumper_Fun_Hits__Jeremy_A._Sweet.mp3</name>
						<enabled>TRUE</enabled>
						<duration>181</duration>
						<rate>
							<timebase>25</timebase>
							<ntsc>FALSE</ntsc>
						</rate>
						<start>29768</start>
						<end>29949</end>
						<in>0</in>
						<out>181</out>
						<pproTicksIn>0</pproTicksIn>
						<pproTicksOut>1839075840000</pproTicksOut>
						<file id="file-111"/>
						<sourcetrack>
							<mediatype>audio</mediatype>
							<trackindex>2</trackindex>
						</sourcetrack>
							<filter>
								<effect>
									<name>Audio Levels</name>
									<effectid>audiolevels</effectid>
									<effectcategory>audiolevels</effectcategory>
									<effecttype>audiolevels</effecttype>
									<mediatype>audio</mediatype>
									<parameter authoringApp="PremierePro">
										<parameterid>level</parameterid>
										<name>Level</name>
										<valuemin>0</valuemin>
										<valuemax>3.98109</valuemax>
										<value>0.250593</value>
									</parameter>
								</effect>
							</filter>
						<link>
							<linkclipref>clipitem-2481</linkclipref>
							<mediatype>audio</mediatype>
							<trackindex>17</trackindex>
							<clipindex>141</clipindex>
							<groupindex>1</groupindex>
						</link>
						<link>
							<linkclipref>clipitem-2651</linkclipref>
							<mediatype>audio</mediatype>
							<trackindex>18</trackindex>
							<clipindex>134</clipindex>
							<groupindex>1</groupindex>
						</link>
						<logginginfo>
							<description></description>
							<scene></scene>
							<shottake></shottake>
							<lognote></lognote>
						</logginginfo>
						<labels>
							<label2>Caribbean</label2>
						</labels>
					</clipitem>
					<clipitem id="clipitem-2652" premiereChannelType="stereo">
						<masterclipid>masterclip-107</masterclipid>
						<name>Kort brå latter.wav</name>
						<enabled>TRUE</enabled>
						<duration>62</duration>
						<rate>
							<timebase>25</timebase>
							<ntsc>FALSE</ntsc>
						</rate>
						<start>32923</start>
						<end>32985</end>
						<in>0</in>
						<out>62</out>
						<pproTicksIn>0</pproTicksIn>
						<pproTicksOut>629959680000</pproTicksOut>
						<file id="file-103"/>
						<sourcetrack>
							<mediatype>audio</mediatype>
							<trackindex>2</trackindex>
						</sourcetrack>
						<link>
							<linkclipref>clipitem-2482</linkclipref>
							<mediatype>audio</mediatype>
							<trackindex>17</trackindex>
							<clipindex>142</clipindex>
							<groupindex>1</groupindex>
						</link>
						<link>
							<linkclipref>clipitem-2652</linkclipref>
							<mediatype>audio</mediatype>
							<trackindex>18</trackindex>
							<clipindex>135</clipindex>
							<groupindex>1</groupindex>
						</link>
						<logginginfo>
							<description></description>
							<scene></scene>
							<shottake></shottake>
							<lognote></lognote>
						</logginginfo>
						<labels>
							<label2>Caribbean</label2>
						</labels>
					</clipitem>
					<clipitem id="clipitem-2653" premiereChannelType="stereo">
						<masterclipid>masterclip-42</masterclipid>
						<name>Mira Craig Stage Dive.mp4</name>
						<enabled>TRUE</enabled>
						<duration>965</duration>
						<rate>
							<timebase>25</timebase>
							<ntsc>FALSE</ntsc>
						</rate>
						<start>33363</start>
						<end>33489</end>
						<in>446</in>
						<out>572</out>
						<pproTicksIn>4531645440000</pproTicksIn>
						<pproTicksOut>5811886080000</pproTicksOut>
						<file id="file-38"/>
						<sourcetrack>
							<mediatype>audio</mediatype>
							<trackindex>1</trackindex>
						</sourcetrack>
						<link>
							<linkclipref>clipitem-2483</linkclipref>
							<mediatype>audio</mediatype>
							<trackindex>17</trackindex>
							<clipindex>143</clipindex>
							<groupindex>1</groupindex>
						</link>
						<link>
							<linkclipref>clipitem-2653</linkclipref>
							<mediatype>audio</mediatype>
							<trackindex>18</trackindex>
							<clipindex>136</clipindex>
							<groupindex>1</groupindex>
						</link>
						<logginginfo>
							<description></description>
							<scene></scene>
							<shottake></shottake>
							<lognote></lognote>
						</logginginfo>
						<labels>
							<label2>Iris</label2>
						</labels>
					</clipitem>
					<transitionitem>
						<start>37083</start>
						<end>37096</end>
						<alignment>start-black</alignment>
						<cutPointTicks>0</cutPointTicks>
						<rate>
							<timebase>25</timebase>
							<ntsc>FALSE</ntsc>
						</rate>
						<effect>
							<name>Cross Fade (+3dB)</name>
							<effectid>KGAudioTransCrossFade3dB</effectid>
							<effecttype>transition</effecttype>
							<mediatype>audio</mediatype>
							<wipecode>0</wipecode>
							<wipeaccuracy>100</wipeaccuracy>
							<startratio>0</startratio>
							<endratio>1</endratio>
							<reverse>FALSE</reverse>
						</effect>
					</transitionitem>
					<clipitem id="clipitem-2654" premiereChannelType="stereo">
						<masterclipid>masterclip-6</masterclipid>
						<name>NSPO30604105AA.mxf</name>
						<enabled>TRUE</enabled>
						<duration>89255</duration>
						<rate>
							<timebase>25</timebase>
							<ntsc>FALSE</ntsc>
						</rate>
						<start>-1</start>
						<end>37140</end>
						<in>61001</in>
						<out>61058</out>
						<pproTicksIn>619809200640000</pproTicksIn>
						<pproTicksOut>620388357120000</pproTicksOut>
						<file id="file-5"/>
						<sourcetrack>
							<mediatype>audio</mediatype>
							<trackindex>2</trackindex>
						</sourcetrack>
						<link>
							<linkclipref>clipitem-2484</linkclipref>
							<mediatype>audio</mediatype>
							<trackindex>17</trackindex>
							<clipindex>145</clipindex>
							<groupindex>1</groupindex>
						</link>
						<link>
							<linkclipref>clipitem-2654</linkclipref>
							<mediatype>audio</mediatype>
							<trackindex>18</trackindex>
							<clipindex>138</clipindex>
							<groupindex>1</groupindex>
						</link>
						<logginginfo>
							<description></description>
							<scene></scene>
							<shottake></shottake>
							<lognote></lognote>
						</logginginfo>
						<labels>
							<label2>Iris</label2>
						</labels>
					</clipitem>
					<clipitem id="clipitem-2655" premiereChannelType="stereo">
						<masterclipid>masterclip-6</masterclipid>
						<name>NSPO30604105AA.mxf</name>
						<enabled>TRUE</enabled>
						<duration>89255</duration>
						<rate>
							<timebase>25</timebase>
							<ntsc>FALSE</ntsc>
						</rate>
						<start>37140</start>
						<end>37155</end>
						<in>61058</in>
						<out>61073</out>
						<pproTicksIn>620388357120000</pproTicksIn>
						<pproTicksOut>620540766720000</pproTicksOut>
						<file id="file-5"/>
						<sourcetrack>
							<mediatype>audio</mediatype>
							<trackindex>2</trackindex>
						</sourcetrack>
						<link>
							<linkclipref>clipitem-2485</linkclipref>
							<mediatype>audio</mediatype>
							<trackindex>17</trackindex>
							<clipindex>146</clipindex>
							<groupindex>1</groupindex>
						</link>
						<link>
							<linkclipref>clipitem-2655</linkclipref>
							<mediatype>audio</mediatype>
							<trackindex>18</trackindex>
							<clipindex>139</clipindex>
							<groupindex>1</groupindex>
						</link>
						<logginginfo>
							<description></description>
							<scene></scene>
							<shottake></shottake>
							<lognote></lognote>
						</logginginfo>
						<labels>
							<label2>Iris</label2>
						</labels>
					</clipitem>
					<clipitem id="clipitem-2656" premiereChannelType="stereo">
						<masterclipid>masterclip-6</masterclipid>
						<name>NSPO30604105AA.mxf</name>
						<enabled>TRUE</enabled>
						<duration>89255</duration>
						<rate>
							<timebase>25</timebase>
							<ntsc>FALSE</ntsc>
						</rate>
						<start>37732</start>
						<end>-1</end>
						<in>52874</in>
						<out>52900</out>
						<pproTicksIn>537233679360000</pproTicksIn>
						<pproTicksOut>537497856000000</pproTicksOut>
						<file id="file-5"/>
						<sourcetrack>
							<mediatype>audio</mediatype>
							<trackindex>2</trackindex>
						</sourcetrack>
							<filter>
								<effect>
									<name>Audio Levels</name>
									<effectid>audiolevels</effectid>
									<effectcategory>audiolevels</effectcategory>
									<effecttype>audiolevels</effecttype>
									<mediatype>audio</mediatype>
									<parameter authoringApp="PremierePro">
										<parameterid>level</parameterid>
										<name>Level</name>
										<valuemin>0</valuemin>
										<valuemax>3.98109</valuemax>
										<value>0.28117</value>
										<keyframe>
											<when>52822</when>
											<value>1.92246</value>
										</keyframe>
										<keyframe>
											<when>52828</when>
											<value>0.28117</value>
										</keyframe>
									</parameter>
								</effect>
							</filter>
						<link>
							<linkclipref>clipitem-2486</linkclipref>
							<mediatype>audio</mediatype>
							<trackindex>17</trackindex>
							<clipindex>147</clipindex>
							<groupindex>1</groupindex>
						</link>
						<link>
							<linkclipref>clipitem-2656</linkclipref>
							<mediatype>audio</mediatype>
							<trackindex>18</trackindex>
							<clipindex>140</clipindex>
							<groupindex>1</groupindex>
						</link>
						<logginginfo>
							<description></description>
							<scene></scene>
							<shottake></shottake>
							<lognote></lognote>
						</logginginfo>
						<labels>
							<label2>Iris</label2>
						</labels>
					</clipitem>
					<transitionitem>
						<start>37745</start>
						<end>37758</end>
						<alignment>center</alignment>
						<cutPointTicks>60963840000</cutPointTicks>
						<rate>
							<timebase>25</timebase>
							<ntsc>FALSE</ntsc>
						</rate>
						<effect>
							<name>Cross Fade (+3dB)</name>
							<effectid>KGAudioTransCrossFade3dB</effectid>
							<effecttype>transition</effecttype>
							<mediatype>audio</mediatype>
							<wipecode>0</wipecode>
							<wipeaccuracy>100</wipeaccuracy>
							<startratio>0</startratio>
							<endratio>1</endratio>
							<reverse>FALSE</reverse>
						</effect>
					</transitionitem>
					<clipitem id="clipitem-2657" premiereChannelType="stereo">
						<masterclipid>masterclip-6</masterclipid>
						<name>NSPO30604105AA.mxf</name>
						<enabled>TRUE</enabled>
						<duration>89255</duration>
						<rate>
							<timebase>25</timebase>
							<ntsc>FALSE</ntsc>
						</rate>
						<start>-1</start>
						<end>-1</end>
						<in>52927</in>
						<out>53019</out>
						<pproTicksIn>537772193280000</pproTicksIn>
						<pproTicksOut>538706972160000</pproTicksOut>
						<file id="file-5"/>
						<sourcetrack>
							<mediatype>audio</mediatype>
							<trackindex>2</trackindex>
						</sourcetrack>
							<filter>
								<effect>
									<name>Audio Levels</name>
									<effectid>audiolevels</effectid>
									<effectcategory>audiolevels</effectcategory>
									<effecttype>audiolevels</effecttype>
									<mediatype>audio</mediatype>
									<parameter authoringApp="PremierePro">
										<parameterid>level</parameterid>
										<name>Level</name>
										<valuemin>0</valuemin>
										<valuemax>3.98109</valuemax>
										<value>0.28117</value>
									</parameter>
								</effect>
							</filter>
						<link>
							<linkclipref>clipitem-2487</linkclipref>
							<mediatype>audio</mediatype>
							<trackindex>17</trackindex>
							<clipindex>149</clipindex>
							<groupindex>1</groupindex>
						</link>
						<link>
							<linkclipref>clipitem-2657</linkclipref>
							<mediatype>audio</mediatype>
							<trackindex>18</trackindex>
							<clipindex>142</clipindex>
							<groupindex>1</groupindex>
						</link>
						<logginginfo>
							<description></description>
							<scene></scene>
							<shottake></shottake>
							<lognote></lognote>
						</logginginfo>
						<labels>
							<label2>Iris</label2>
						</labels>
					</clipitem>
					<transitionitem>
						<start>37824</start>
						<end>37837</end>
						<alignment>center</alignment>
						<cutPointTicks>60963840000</cutPointTicks>
						<rate>
							<timebase>25</timebase>
							<ntsc>FALSE</ntsc>
						</rate>
						<effect>
							<name>Cross Fade (+3dB)</name>
							<effectid>KGAudioTransCrossFade3dB</effectid>
							<effecttype>transition</effecttype>
							<mediatype>audio</mediatype>
							<wipecode>0</wipecode>
							<wipeaccuracy>100</wipeaccuracy>
							<startratio>0</startratio>
							<endratio>1</endratio>
							<reverse>FALSE</reverse>
						</effect>
					</transitionitem>
					<clipitem id="clipitem-2658" premiereChannelType="stereo">
						<masterclipid>masterclip-6</masterclipid>
						<name>NSPO30604105AA.mxf</name>
						<enabled>TRUE</enabled>
						<duration>89255</duration>
						<rate>
							<timebase>25</timebase>
							<ntsc>FALSE</ntsc>
						</rate>
						<start>-1</start>
						<end>-1</end>
						<in>53154</in>
						<out>53271</out>
						<pproTicksIn>540078658560000</pproTicksIn>
						<pproTicksOut>541267453440000</pproTicksOut>
						<file id="file-5"/>
						<sourcetrack>
							<mediatype>audio</mediatype>
							<trackindex>2</trackindex>
						</sourcetrack>
							<filter>
								<effect>
									<name>Audio Levels</name>
									<effectid>audiolevels</effectid>
									<effectcategory>audiolevels</effectcategory>
									<effecttype>audiolevels</effecttype>
									<mediatype>audio</mediatype>
									<parameter authoringApp="PremierePro">
										<parameterid>level</parameterid>
										<name>Level</name>
										<valuemin>0</valuemin>
										<valuemax>3.98109</valuemax>
										<value>0.792446</value>
									</parameter>
								</effect>
							</filter>
						<link>
							<linkclipref>clipitem-2488</linkclipref>
							<mediatype>audio</mediatype>
							<trackindex>17</trackindex>
							<clipindex>151</clipindex>
							<groupindex>1</groupindex>
						</link>
						<link>
							<linkclipref>clipitem-2658</linkclipref>
							<mediatype>audio</mediatype>
							<trackindex>18</trackindex>
							<clipindex>144</clipindex>
							<groupindex>1</groupindex>
						</link>
						<logginginfo>
							<description></description>
							<scene></scene>
							<shottake></shottake>
							<lognote></lognote>
						</logginginfo>
						<labels>
							<label2>Iris</label2>
						</labels>
					</clipitem>
					<transitionitem>
						<start>37928</start>
						<end>37941</end>
						<alignment>center</alignment>
						<cutPointTicks>60963840000</cutPointTicks>
						<rate>
							<timebase>25</timebase>
							<ntsc>FALSE</ntsc>
						</rate>
						<effect>
							<name>Cross Fade (+3dB)</name>
							<effectid>KGAudioTransCrossFade3dB</effectid>
							<effecttype>transition</effecttype>
							<mediatype>audio</mediatype>
							<wipecode>0</wipecode>
							<wipeaccuracy>100</wipeaccuracy>
							<startratio>0</startratio>
							<endratio>1</endratio>
							<reverse>FALSE</reverse>
						</effect>
					</transitionitem>
					<clipitem id="clipitem-2659" premiereChannelType="stereo">
						<masterclipid>masterclip-6</masterclipid>
						<name>NSPO30604105AA.mxf</name>
						<enabled>TRUE</enabled>
						<duration>89255</duration>
						<rate>
							<timebase>25</timebase>
							<ntsc>FALSE</ntsc>
						</rate>
						<start>-1</start>
						<end>-1</end>
						<in>72501</in>
						<out>72604</out>
						<pproTicksIn>736656560640000</pproTicksIn>
						<pproTicksOut>737703106560000</pproTicksOut>
						<file id="file-5"/>
						<sourcetrack>
							<mediatype>audio</mediatype>
							<trackindex>2</trackindex>
						</sourcetrack>
							<filter>
								<effect>
									<name>Audio Levels</name>
									<effectid>audiolevels</effectid>
									<effectcategory>audiolevels</effectcategory>
									<effecttype>audiolevels</effecttype>
									<mediatype>audio</mediatype>
									<parameter authoringApp="PremierePro">
										<parameterid>level</parameterid>
										<name>Level</name>
										<valuemin>0</valuemin>
										<valuemax>3.98109</valuemax>
										<value>1.58114</value>
									</parameter>
								</effect>
							</filter>
						<link>
							<linkclipref>clipitem-2489</linkclipref>
							<mediatype>audio</mediatype>
							<trackindex>17</trackindex>
							<clipindex>153</clipindex>
							<groupindex>1</groupindex>
						</link>
						<link>
							<linkclipref>clipitem-2659</linkclipref>
							<mediatype>audio</mediatype>
							<trackindex>18</trackindex>
							<clipindex>146</clipindex>
							<groupindex>1</groupindex>
						</link>
						<logginginfo>
							<description></description>
							<scene></scene>
							<shottake></shottake>
							<lognote></lognote>
						</logginginfo>
						<labels>
							<label2>Iris</label2>
						</labels>
					</clipitem>
					<transitionitem>
						<start>38018</start>
						<end>38031</end>
						<alignment>center</alignment>
						<cutPointTicks>60963840000</cutPointTicks>
						<rate>
							<timebase>25</timebase>
							<ntsc>FALSE</ntsc>
						</rate>
						<effect>
							<name>Cross Fade (+3dB)</name>
							<effectid>KGAudioTransCrossFade3dB</effectid>
							<effecttype>transition</effecttype>
							<mediatype>audio</mediatype>
							<wipecode>0</wipecode>
							<wipeaccuracy>100</wipeaccuracy>
							<startratio>0</startratio>
							<endratio>1</endratio>
							<reverse>FALSE</reverse>
						</effect>
					</transitionitem>
					<clipitem id="clipitem-2660" premiereChannelType="stereo">
						<masterclipid>masterclip-6</masterclipid>
						<name>NSPO30604105AA.mxf</name>
						<enabled>TRUE</enabled>
						<duration>89255</duration>
						<rate>
							<timebase>25</timebase>
							<ntsc>FALSE</ntsc>
						</rate>
						<start>-1</start>
						<end>-1</end>
						<in>72766</in>
						<out>72849</out>
						<pproTicksIn>739349130240000</pproTicksIn>
						<pproTicksOut>740192463360000</pproTicksOut>
						<file id="file-5"/>
						<sourcetrack>
							<mediatype>audio</mediatype>
							<trackindex>2</trackindex>
						</sourcetrack>
							<filter>
								<effect>
									<name>Audio Levels</name>
									<effectid>audiolevels</effectid>
									<effectcategory>audiolevels</effectcategory>
									<effecttype>audiolevels</effecttype>
									<mediatype>audio</mediatype>
									<parameter authoringApp="PremierePro">
										<parameterid>level</parameterid>
										<name>Level</name>
										<valuemin>0</valuemin>
										<valuemax>3.98109</valuemax>
										<value>0.499999</value>
									</parameter>
								</effect>
							</filter>
						<link>
							<linkclipref>clipitem-2490</linkclipref>
							<mediatype>audio</mediatype>
							<trackindex>17</trackindex>
							<clipindex>155</clipindex>
							<groupindex>1</groupindex>
						</link>
						<link>
							<linkclipref>clipitem-2660</linkclipref>
							<mediatype>audio</mediatype>
							<trackindex>18</trackindex>
							<clipindex>148</clipindex>
							<groupindex>1</groupindex>
						</link>
						<logginginfo>
							<description></description>
							<scene></scene>
							<shottake></shottake>
							<lognote></lognote>
						</logginginfo>
						<labels>
							<label2>Iris</label2>
						</labels>
					</clipitem>
					<transitionitem>
						<start>38088</start>
						<end>38101</end>
						<alignment>center</alignment>
						<cutPointTicks>60963840000</cutPointTicks>
						<rate>
							<timebase>25</timebase>
							<ntsc>FALSE</ntsc>
						</rate>
						<effect>
							<name>Cross Fade (+3dB)</name>
							<effectid>KGAudioTransCrossFade3dB</effectid>
							<effecttype>transition</effecttype>
							<mediatype>audio</mediatype>
							<wipecode>0</wipecode>
							<wipeaccuracy>100</wipeaccuracy>
							<startratio>0</startratio>
							<endratio>1</endratio>
							<reverse>FALSE</reverse>
						</effect>
					</transitionitem>
					<clipitem id="clipitem-2661" premiereChannelType="stereo">
						<masterclipid>masterclip-6</masterclipid>
						<name>NSPO30604105AA.mxf</name>
						<enabled>TRUE</enabled>
						<duration>89255</duration>
						<rate>
							<timebase>25</timebase>
							<ntsc>FALSE</ntsc>
						</rate>
						<start>-1</start>
						<end>38149</end>
						<in>73721</in>
						<out>73782</out>
						<pproTicksIn>749052541440000</pproTicksIn>
						<pproTicksOut>749672340480000</pproTicksOut>
						<file id="file-5"/>
						<sourcetrack>
							<mediatype>audio</mediatype>
							<trackindex>2</trackindex>
						</sourcetrack>
							<filter>
								<effect>
									<name>Audio Levels</name>
									<effectid>audiolevels</effectid>
									<effectcategory>audiolevels</effectcategory>
									<effecttype>audiolevels</effecttype>
									<mediatype>audio</mediatype>
									<parameter authoringApp="PremierePro">
										<parameterid>level</parameterid>
										<name>Level</name>
										<valuemin>0</valuemin>
										<valuemax>3.98109</valuemax>
										<value>0.499999</value>
									</parameter>
								</effect>
							</filter>
						<link>
							<linkclipref>clipitem-2491</linkclipref>
							<mediatype>audio</mediatype>
							<trackindex>17</trackindex>
							<clipindex>157</clipindex>
							<groupindex>1</groupindex>
						</link>
						<link>
							<linkclipref>clipitem-2661</linkclipref>
							<mediatype>audio</mediatype>
							<trackindex>18</trackindex>
							<clipindex>150</clipindex>
							<groupindex>1</groupindex>
						</link>
						<logginginfo>
							<description></description>
							<scene></scene>
							<shottake></shottake>
							<lognote></lognote>
						</logginginfo>
						<labels>
							<label2>Iris</label2>
						</labels>
					</clipitem>
					<clipitem id="clipitem-2662" premiereChannelType="stereo">
						<masterclipid>masterclip-6</masterclipid>
						<name>NSPO30604105AA.mxf</name>
						<enabled>TRUE</enabled>
						<duration>89255</duration>
						<rate>
							<timebase>25</timebase>
							<ntsc>FALSE</ntsc>
						</rate>
						<start>38149</start>
						<end>38160</end>
						<in>75009</in>
						<out>75020</out>
						<pproTicksIn>762139445760000</pproTicksIn>
						<pproTicksOut>762251212800000</pproTicksOut>
						<file id="file-5"/>
						<sourcetrack>
							<mediatype>audio</mediatype>
							<trackindex>2</trackindex>
						</sourcetrack>
						<link>
							<linkclipref>clipitem-2492</linkclipref>
							<mediatype>audio</mediatype>
							<trackindex>17</trackindex>
							<clipindex>158</clipindex>
							<groupindex>1</groupindex>
						</link>
						<link>
							<linkclipref>clipitem-2662</linkclipref>
							<mediatype>audio</mediatype>
							<trackindex>18</trackindex>
							<clipindex>151</clipindex>
							<groupindex>1</groupindex>
						</link>
						<logginginfo>
							<description></description>
							<scene></scene>
							<shottake></shottake>
							<lognote></lognote>
						</logginginfo>
						<labels>
							<label2>Iris</label2>
						</labels>
					</clipitem>
					<clipitem id="clipitem-2663" premiereChannelType="stereo">
						<masterclipid>masterclip-6</masterclipid>
						<name>NSPO30604105AA.mxf</name>
						<enabled>FALSE</enabled>
						<duration>89255</duration>
						<rate>
							<timebase>25</timebase>
							<ntsc>FALSE</ntsc>
						</rate>
						<start>38160</start>
						<end>38260</end>
						<in>75029</in>
						<out>75129</out>
						<pproTicksIn>762342658560000</pproTicksIn>
						<pproTicksOut>763358722560000</pproTicksOut>
						<file id="file-5"/>
						<sourcetrack>
							<mediatype>audio</mediatype>
							<trackindex>2</trackindex>
						</sourcetrack>
						<link>
							<linkclipref>clipitem-2493</linkclipref>
							<mediatype>audio</mediatype>
							<trackindex>17</trackindex>
							<clipindex>159</clipindex>
							<groupindex>1</groupindex>
						</link>
						<link>
							<linkclipref>clipitem-2663</linkclipref>
							<mediatype>audio</mediatype>
							<trackindex>18</trackindex>
							<clipindex>152</clipindex>
							<groupindex>1</groupindex>
						</link>
						<logginginfo>
							<description></description>
							<scene></scene>
							<shottake></shottake>
							<lognote></lognote>
						</logginginfo>
						<labels>
							<label2>Iris</label2>
						</labels>
					</clipitem>
					<clipitem id="clipitem-2664" premiereChannelType="stereo">
						<masterclipid>masterclip-6</masterclipid>
						<name>NSPO30604105AA.mxf</name>
						<enabled>FALSE</enabled>
						<duration>89255</duration>
						<rate>
							<timebase>25</timebase>
							<ntsc>FALSE</ntsc>
						</rate>
						<start>38260</start>
						<end>38397</end>
						<in>75148</in>
						<out>75285</out>
						<pproTicksIn>763551774720000</pproTicksIn>
						<pproTicksOut>764943782400000</pproTicksOut>
						<file id="file-5"/>
						<sourcetrack>
							<mediatype>audio</mediatype>
							<trackindex>2</trackindex>
						</sourcetrack>
						<link>
							<linkclipref>clipitem-2494</linkclipref>
							<mediatype>audio</mediatype>
							<trackindex>17</trackindex>
							<clipindex>160</clipindex>
							<groupindex>1</groupindex>
						</link>
						<link>
							<linkclipref>clipitem-2664</linkclipref>
							<mediatype>audio</mediatype>
							<trackindex>18</trackindex>
							<clipindex>153</clipindex>
							<groupindex>1</groupindex>
						</link>
						<logginginfo>
							<description></description>
							<scene></scene>
							<shottake></shottake>
							<lognote></lognote>
						</logginginfo>
						<labels>
							<label2>Iris</label2>
						</labels>
					</clipitem>
					<clipitem id="clipitem-2665" premiereChannelType="stereo">
						<masterclipid>masterclip-6</masterclipid>
						<name>NSPO30604105AA.mxf</name>
						<enabled>TRUE</enabled>
						<duration>89255</duration>
						<rate>
							<timebase>25</timebase>
							<ntsc>FALSE</ntsc>
						</rate>
						<start>38480</start>
						<end>-1</end>
						<in>68492</in>
						<out>68677</out>
						<pproTicksIn>695922554880000</pproTicksIn>
						<pproTicksOut>697802273280000</pproTicksOut>
						<file id="file-5"/>
						<sourcetrack>
							<mediatype>audio</mediatype>
							<trackindex>2</trackindex>
						</sourcetrack>
							<filter>
								<effect>
									<name>Audio Levels</name>
									<effectid>audiolevels</effectid>
									<effectcategory>audiolevels</effectcategory>
									<effecttype>audiolevels</effecttype>
									<mediatype>audio</mediatype>
									<parameter authoringApp="PremierePro">
										<parameterid>level</parameterid>
										<name>Level</name>
										<valuemin>0</valuemin>
										<valuemax>3.98109</valuemax>
										<value>1.41254</value>
									</parameter>
								</effect>
							</filter>
						<link>
							<linkclipref>clipitem-2495</linkclipref>
							<mediatype>audio</mediatype>
							<trackindex>17</trackindex>
							<clipindex>161</clipindex>
							<groupindex>1</groupindex>
						</link>
						<link>
							<linkclipref>clipitem-2665</linkclipref>
							<mediatype>audio</mediatype>
							<trackindex>18</trackindex>
							<clipindex>154</clipindex>
							<groupindex>1</groupindex>
						</link>
						<logginginfo>
							<description></description>
							<scene></scene>
							<shottake></shottake>
							<lognote></lognote>
						</logginginfo>
						<labels>
							<label2>Iris</label2>
						</labels>
					</clipitem>
					<transitionitem>
						<start>38652</start>
						<end>38665</end>
						<alignment>center</alignment>
						<cutPointTicks>60963840000</cutPointTicks>
						<rate>
							<timebase>25</timebase>
							<ntsc>FALSE</ntsc>
						</rate>
						<effect>
							<name>Cross Fade (+3dB)</name>
							<effectid>KGAudioTransCrossFade3dB</effectid>
							<effecttype>transition</effecttype>
							<mediatype>audio</mediatype>
							<wipecode>0</wipecode>
							<wipeaccuracy>100</wipeaccuracy>
							<startratio>0</startratio>
							<endratio>1</endratio>
							<reverse>FALSE</reverse>
						</effect>
					</transitionitem>
					<clipitem id="clipitem-2666" premiereChannelType="stereo">
						<masterclipid>masterclip-6</masterclipid>
						<name>NSPO30604105AA.mxf</name>
						<enabled>TRUE</enabled>
						<duration>89255</duration>
						<rate>
							<timebase>25</timebase>
							<ntsc>FALSE</ntsc>
						</rate>
						<start>-1</start>
						<end>-1</end>
						<in>66544</in>
						<out>66670</out>
						<pproTicksIn>676129628160000</pproTicksIn>
						<pproTicksOut>677409868800000</pproTicksOut>
						<file id="file-5"/>
						<sourcetrack>
							<mediatype>audio</mediatype>
							<trackindex>2</trackindex>
						</sourcetrack>
							<filter>
								<effect>
									<name>Audio Levels</name>
									<effectid>audiolevels</effectid>
									<effectcategory>audiolevels</effectcategory>
									<effecttype>audiolevels</effecttype>
									<mediatype>audio</mediatype>
									<parameter authoringApp="PremierePro">
										<parameterid>level</parameterid>
										<name>Level</name>
										<valuemin>0</valuemin>
										<valuemax>3.98109</valuemax>
										<value>0.111936</value>
									</parameter>
								</effect>
							</filter>
						<link>
							<linkclipref>clipitem-2496</linkclipref>
							<mediatype>audio</mediatype>
							<trackindex>17</trackindex>
							<clipindex>163</clipindex>
							<groupindex>1</groupindex>
						</link>
						<link>
							<linkclipref>clipitem-2666</linkclipref>
							<mediatype>audio</mediatype>
							<trackindex>18</trackindex>
							<clipindex>156</clipindex>
							<groupindex>1</groupindex>
						</link>
						<logginginfo>
							<description></description>
							<scene></scene>
							<shottake></shottake>
							<lognote></lognote>
						</logginginfo>
						<labels>
							<label2>Iris</label2>
						</labels>
					</clipitem>
					<transitionitem>
						<start>38765</start>
						<end>38778</end>
						<alignment>center</alignment>
						<cutPointTicks>60963840000</cutPointTicks>
						<rate>
							<timebase>25</timebase>
							<ntsc>FALSE</ntsc>
						</rate>
						<effect>
							<name>Cross Fade (+3dB)</name>
							<effectid>KGAudioTransCrossFade3dB</effectid>
							<effecttype>transition</effecttype>
							<mediatype>audio</mediatype>
							<wipecode>0</wipecode>
							<wipeaccuracy>100</wipeaccuracy>
							<startratio>0</startratio>
							<endratio>1</endratio>
							<reverse>FALSE</reverse>
						</effect>
					</transitionitem>
					<clipitem id="clipitem-2667" premiereChannelType="stereo">
						<masterclipid>masterclip-6</masterclipid>
						<name>NSPO30604105AA.mxf</name>
						<enabled>TRUE</enabled>
						<duration>89255</duration>
						<rate>
							<timebase>25</timebase>
							<ntsc>FALSE</ntsc>
						</rate>
						<start>-1</start>
						<end>-1</end>
						<in>67912</in>
						<out>67965</out>
						<pproTicksIn>690029383680000</pproTicksIn>
						<pproTicksOut>690567897600000</pproTicksOut>
						<file id="file-5"/>
						<sourcetrack>
							<mediatype>audio</mediatype>
							<trackindex>2</trackindex>
						</sourcetrack>
							<filter>
								<effect>
									<name>Audio Levels</name>
									<effectid>audiolevels</effectid>
									<effectcategory>audiolevels</effectcategory>
									<effecttype>audiolevels</effecttype>
									<mediatype>audio</mediatype>
									<parameter authoringApp="PremierePro">
										<parameterid>level</parameterid>
										<name>Level</name>
										<valuemin>0</valuemin>
										<valuemax>3.98109</valuemax>
										<value>0.140919</value>
									</parameter>
								</effect>
							</filter>
						<link>
							<linkclipref>clipitem-2497</linkclipref>
							<mediatype>audio</mediatype>
							<trackindex>17</trackindex>
							<clipindex>165</clipindex>
							<groupindex>1</groupindex>
						</link>
						<link>
							<linkclipref>clipitem-2667</linkclipref>
							<mediatype>audio</mediatype>
							<trackindex>18</trackindex>
							<clipindex>158</clipindex>
							<groupindex>1</groupindex>
						</link>
						<logginginfo>
							<description></description>
							<scene></scene>
							<shottake></shottake>
							<lognote></lognote>
						</logginginfo>
						<labels>
							<label2>Iris</label2>
						</labels>
					</clipitem>
					<transitionitem>
						<start>38805</start>
						<end>38818</end>
						<alignment>center</alignment>
						<cutPointTicks>60963840000</cutPointTicks>
						<rate>
							<timebase>25</timebase>
							<ntsc>FALSE</ntsc>
						</rate>
						<effect>
							<name>Cross Fade (+3dB)</name>
							<effectid>KGAudioTransCrossFade3dB</effectid>
							<effecttype>transition</effecttype>
							<mediatype>audio</mediatype>
							<wipecode>0</wipecode>
							<wipeaccuracy>100</wipeaccuracy>
							<startratio>0</startratio>
							<endratio>1</endratio>
							<reverse>FALSE</reverse>
						</effect>
					</transitionitem>
					<clipitem id="clipitem-2668" premiereChannelType="stereo">
						<masterclipid>masterclip-6</masterclipid>
						<name>NSPO30604105AA.mxf</name>
						<enabled>TRUE</enabled>
						<duration>89255</duration>
						<rate>
							<timebase>25</timebase>
							<ntsc>FALSE</ntsc>
						</rate>
						<start>-1</start>
						<end>-1</end>
						<in>65606</in>
						<out>65735</out>
						<pproTicksIn>666598947840000</pproTicksIn>
						<pproTicksOut>667909670400000</pproTicksOut>
						<file id="file-5"/>
						<sourcetrack>
							<mediatype>audio</mediatype>
							<trackindex>2</trackindex>
						</sourcetrack>
							<filter>
								<effect>
									<name>Audio Levels</name>
									<effectid>audiolevels</effectid>
									<effectcategory>audiolevels</effectcategory>
									<effecttype>audiolevels</effecttype>
									<mediatype>audio</mediatype>
									<parameter authoringApp="PremierePro">
										<parameterid>level</parameterid>
										<name>Level</name>
										<valuemin>0</valuemin>
										<valuemax>3.98109</valuemax>
										<value>0.353972</value>
									</parameter>
								</effect>
							</filter>
						<link>
							<linkclipref>clipitem-2498</linkclipref>
							<mediatype>audio</mediatype>
							<trackindex>17</trackindex>
							<clipindex>167</clipindex>
							<groupindex>1</groupindex>
						</link>
						<link>
							<linkclipref>clipitem-2668</linkclipref>
							<mediatype>audio</mediatype>
							<trackindex>18</trackindex>
							<clipindex>160</clipindex>
							<groupindex>1</groupindex>
						</link>
						<logginginfo>
							<description></description>
							<scene></scene>
							<shottake></shottake>
							<lognote></lognote>
						</logginginfo>
						<labels>
							<label2>Iris</label2>
						</labels>
					</clipitem>
					<transitionitem>
						<start>38921</start>
						<end>38934</end>
						<alignment>center</alignment>
						<cutPointTicks>60963840000</cutPointTicks>
						<rate>
							<timebase>25</timebase>
							<ntsc>FALSE</ntsc>
						</rate>
						<effect>
							<name>Cross Fade (+3dB)</name>
							<effectid>KGAudioTransCrossFade3dB</effectid>
							<effecttype>transition</effecttype>
							<mediatype>audio</mediatype>
							<wipecode>0</wipecode>
							<wipeaccuracy>100</wipeaccuracy>
							<startratio>0</startratio>
							<endratio>1</endratio>
							<reverse>FALSE</reverse>
						</effect>
					</transitionitem>
					<clipitem id="clipitem-2669" premiereChannelType="stereo">
						<masterclipid>masterclip-6</masterclipid>
						<name>NSPO30604105AA.mxf</name>
						<enabled>TRUE</enabled>
						<duration>89255</duration>
						<rate>
							<timebase>25</timebase>
							<ntsc>FALSE</ntsc>
						</rate>
						<start>-1</start>
						<end>-1</end>
						<in>65722</in>
						<out>65792</out>
						<pproTicksIn>667777582080000</pproTicksIn>
						<pproTicksOut>668488826880000</pproTicksOut>
						<file id="file-5"/>
						<sourcetrack>
							<mediatype>audio</mediatype>
							<trackindex>2</trackindex>
						</sourcetrack>
							<filter>
								<effect>
									<name>Audio Levels</name>
									<effectid>audiolevels</effectid>
									<effectcategory>audiolevels</effectcategory>
									<effecttype>audiolevels</effecttype>
									<mediatype>audio</mediatype>
									<parameter authoringApp="PremierePro">
										<parameterid>level</parameterid>
										<name>Level</name>
										<valuemin>0</valuemin>
										<valuemax>3.98109</valuemax>
										<value>1.58489</value>
									</parameter>
								</effect>
							</filter>
						<link>
							<linkclipref>clipitem-2499</linkclipref>
							<mediatype>audio</mediatype>
							<trackindex>17</trackindex>
							<clipindex>169</clipindex>
							<groupindex>1</groupindex>
						</link>
						<link>
							<linkclipref>clipitem-2669</linkclipref>
							<mediatype>audio</mediatype>
							<trackindex>18</trackindex>
							<clipindex>162</clipindex>
							<groupindex>1</groupindex>
						</link>
						<logginginfo>
							<description></description>
							<scene></scene>
							<shottake></shottake>
							<lognote></lognote>
						</logginginfo>
						<labels>
							<label2>Iris</label2>
						</labels>
					</clipitem>
					<transitionitem>
						<start>38978</start>
						<end>38991</end>
						<alignment>center</alignment>
						<cutPointTicks>60963840000</cutPointTicks>
						<rate>
							<timebase>25</timebase>
							<ntsc>FALSE</ntsc>
						</rate>
						<effect>
							<name>Cross Fade (+3dB)</name>
							<effectid>KGAudioTransCrossFade3dB</effectid>
							<effecttype>transition</effecttype>
							<mediatype>audio</mediatype>
							<wipecode>0</wipecode>
							<wipeaccuracy>100</wipeaccuracy>
							<startratio>0</startratio>
							<endratio>1</endratio>
							<reverse>FALSE</reverse>
						</effect>
					</transitionitem>
					<clipitem id="clipitem-2670" premiereChannelType="stereo">
						<masterclipid>masterclip-6</masterclipid>
						<name>NSPO30604105AA.mxf</name>
						<enabled>TRUE</enabled>
						<duration>89255</duration>
						<rate>
							<timebase>25</timebase>
							<ntsc>FALSE</ntsc>
						</rate>
						<start>-1</start>
						<end>-1</end>
						<in>62878</in>
						<out>62985</out>
						<pproTicksIn>638880721920000</pproTicksIn>
						<pproTicksOut>639967910400000</pproTicksOut>
						<file id="file-5"/>
						<sourcetrack>
							<mediatype>audio</mediatype>
							<trackindex>2</trackindex>
						</sourcetrack>
							<filter>
								<effect>
									<name>Audio Levels</name>
									<effectid>audiolevels</effectid>
									<effectcategory>audiolevels</effectcategory>
									<effecttype>audiolevels</effecttype>
									<mediatype>audio</mediatype>
									<parameter authoringApp="PremierePro">
										<parameterid>level</parameterid>
										<name>Level</name>
										<valuemin>0</valuemin>
										<valuemax>3.98109</valuemax>
										<value>0.28117</value>
									</parameter>
								</effect>
							</filter>
						<link>
							<linkclipref>clipitem-2500</linkclipref>
							<mediatype>audio</mediatype>
							<trackindex>17</trackindex>
							<clipindex>171</clipindex>
							<groupindex>1</groupindex>
						</link>
						<link>
							<linkclipref>clipitem-2670</linkclipref>
							<mediatype>audio</mediatype>
							<trackindex>18</trackindex>
							<clipindex>164</clipindex>
							<groupindex>1</groupindex>
						</link>
						<logginginfo>
							<description></description>
							<scene></scene>
							<shottake></shottake>
							<lognote></lognote>
						</logginginfo>
						<labels>
							<label2>Iris</label2>
						</labels>
					</clipitem>
					<transitionitem>
						<start>39072</start>
						<end>39085</end>
						<alignment>center</alignment>
						<cutPointTicks>60963840000</cutPointTicks>
						<rate>
							<timebase>25</timebase>
							<ntsc>FALSE</ntsc>
						</rate>
						<effect>
							<name>Cross Fade (+3dB)</name>
							<effectid>KGAudioTransCrossFade3dB</effectid>
							<effecttype>transition</effecttype>
							<mediatype>audio</mediatype>
							<wipecode>0</wipecode>
							<wipeaccuracy>100</wipeaccuracy>
							<startratio>0</startratio>
							<endratio>1</endratio>
							<reverse>FALSE</reverse>
						</effect>
					</transitionitem>
					<clipitem id="clipitem-2671" premiereChannelType="stereo">
						<masterclipid>masterclip-6</masterclipid>
						<name>NSPO30604105AA.mxf</name>
						<enabled>TRUE</enabled>
						<duration>89255</duration>
						<rate>
							<timebase>25</timebase>
							<ntsc>FALSE</ntsc>
						</rate>
						<start>-1</start>
						<end>-1</end>
						<in>62972</in>
						<out>63184</out>
						<pproTicksIn>639835822080000</pproTicksIn>
						<pproTicksOut>641989877760000</pproTicksOut>
						<file id="file-5"/>
						<sourcetrack>
							<mediatype>audio</mediatype>
							<trackindex>2</trackindex>
						</sourcetrack>
						<link>
							<linkclipref>clipitem-2501</linkclipref>
							<mediatype>audio</mediatype>
							<trackindex>17</trackindex>
							<clipindex>173</clipindex>
							<groupindex>1</groupindex>
						</link>
						<link>
							<linkclipref>clipitem-2671</linkclipref>
							<mediatype>audio</mediatype>
							<trackindex>18</trackindex>
							<clipindex>166</clipindex>
							<groupindex>1</groupindex>
						</link>
						<logginginfo>
							<description></description>
							<scene></scene>
							<shottake></shottake>
							<lognote></lognote>
						</logginginfo>
						<labels>
							<label2>Iris</label2>
						</labels>
					</clipitem>
					<transitionitem>
						<start>39259</start>
						<end>39284</end>
						<alignment>center</alignment>
						<cutPointTicks>121927680000</cutPointTicks>
						<rate>
							<timebase>25</timebase>
							<ntsc>FALSE</ntsc>
						</rate>
						<effect>
							<name>Cross Fade (+3dB)</name>
							<effectid>KGAudioTransCrossFade3dB</effectid>
							<effecttype>transition</effecttype>
							<mediatype>audio</mediatype>
							<wipecode>0</wipecode>
							<wipeaccuracy>100</wipeaccuracy>
							<startratio>0</startratio>
							<endratio>1</endratio>
							<reverse>FALSE</reverse>
						</effect>
					</transitionitem>
					<clipitem id="clipitem-2672" premiereChannelType="stereo">
						<masterclipid>masterclip-6</masterclipid>
						<name>NSPO30604105AA.mxf</name>
						<enabled>TRUE</enabled>
						<duration>89255</duration>
						<rate>
							<timebase>25</timebase>
							<ntsc>FALSE</ntsc>
						</rate>
						<start>-1</start>
						<end>-1</end>
						<in>63356</in>
						<out>63514</out>
						<pproTicksIn>643737507840000</pproTicksIn>
						<pproTicksOut>645342888960000</pproTicksOut>
						<file id="file-5"/>
						<sourcetrack>
							<mediatype>audio</mediatype>
							<trackindex>2</trackindex>
						</sourcetrack>
							<filter>
								<effect>
									<name>Audio Levels</name>
									<effectid>audiolevels</effectid>
									<effectcategory>audiolevels</effectcategory>
									<effecttype>audiolevels</effecttype>
									<mediatype>audio</mediatype>
									<parameter authoringApp="PremierePro">
										<parameterid>level</parameterid>
										<name>Level</name>
										<valuemin>0</valuemin>
										<valuemax>3.98109</valuemax>
										<value>0.240807</value>
									</parameter>
								</effect>
							</filter>
						<link>
							<linkclipref>clipitem-2502</linkclipref>
							<mediatype>audio</mediatype>
							<trackindex>17</trackindex>
							<clipindex>175</clipindex>
							<groupindex>1</groupindex>
						</link>
						<link>
							<linkclipref>clipitem-2672</linkclipref>
							<mediatype>audio</mediatype>
							<trackindex>18</trackindex>
							<clipindex>168</clipindex>
							<groupindex>1</groupindex>
						</link>
						<logginginfo>
							<description></description>
							<scene></scene>
							<shottake></shottake>
							<lognote></lognote>
						</logginginfo>
						<labels>
							<label2>Iris</label2>
						</labels>
					</clipitem>
					<transitionitem>
						<start>39404</start>
						<end>39417</end>
						<alignment>center</alignment>
						<cutPointTicks>60963840000</cutPointTicks>
						<rate>
							<timebase>25</timebase>
							<ntsc>FALSE</ntsc>
						</rate>
						<effect>
							<name>Cross Fade (+3dB)</name>
							<effectid>KGAudioTransCrossFade3dB</effectid>
							<effecttype>transition</effecttype>
							<mediatype>audio</mediatype>
							<wipecode>0</wipecode>
							<wipeaccuracy>100</wipeaccuracy>
							<startratio>0</startratio>
							<endratio>1</endratio>
							<reverse>FALSE</reverse>
						</effect>
					</transitionitem>
					<clipitem id="clipitem-2673" premiereChannelType="stereo">
						<masterclipid>masterclip-6</masterclipid>
						<name>NSPO30604105AA.mxf</name>
						<enabled>TRUE</enabled>
						<duration>89255</duration>
						<rate>
							<timebase>25</timebase>
							<ntsc>FALSE</ntsc>
						</rate>
						<start>-1</start>
						<end>39533</end>
						<in>63501</in>
						<out>63630</out>
						<pproTicksIn>645210800640000</pproTicksIn>
						<pproTicksOut>646521523200000</pproTicksOut>
						<file id="file-5"/>
						<sourcetrack>
							<mediatype>audio</mediatype>
							<trackindex>2</trackindex>
						</sourcetrack>
						<link>
							<linkclipref>clipitem-2503</linkclipref>
							<mediatype>audio</mediatype>
							<trackindex>17</trackindex>
							<clipindex>177</clipindex>
							<groupindex>1</groupindex>
						</link>
						<link>
							<linkclipref>clipitem-2673</linkclipref>
							<mediatype>audio</mediatype>
							<trackindex>18</trackindex>
							<clipindex>170</clipindex>
							<groupindex>1</groupindex>
						</link>
						<logginginfo>
							<description></description>
							<scene></scene>
							<shottake></shottake>
							<lognote></lognote>
						</logginginfo>
						<labels>
							<label2>Iris</label2>
						</labels>
					</clipitem>
					<clipitem id="clipitem-2674" premiereChannelType="stereo">
						<masterclipid>masterclip-6</masterclipid>
						<name>NSPO30604105AA.mxf</name>
						<enabled>TRUE</enabled>
						<duration>89255</duration>
						<rate>
							<timebase>25</timebase>
							<ntsc>FALSE</ntsc>
						</rate>
						<start>39533</start>
						<end>-1</end>
						<in>63669</in>
						<out>63785</out>
						<pproTicksIn>646917788160000</pproTicksIn>
						<pproTicksOut>648096422400000</pproTicksOut>
						<file id="file-5"/>
						<sourcetrack>
							<mediatype>audio</mediatype>
							<trackindex>2</trackindex>
						</sourcetrack>
							<filter>
								<effect>
									<name>Audio Levels</name>
									<effectid>audiolevels</effectid>
									<effectcategory>audiolevels</effectcategory>
									<effecttype>audiolevels</effecttype>
									<mediatype>audio</mediatype>
									<parameter authoringApp="PremierePro">
										<parameterid>level</parameterid>
										<name>Level</name>
										<valuemin>0</valuemin>
										<valuemax>3.98109</valuemax>
										<value>0.792446</value>
									</parameter>
								</effect>
							</filter>
						<link>
							<linkclipref>clipitem-2504</linkclipref>
							<mediatype>audio</mediatype>
							<trackindex>17</trackindex>
							<clipindex>178</clipindex>
							<groupindex>1</groupindex>
						</link>
						<link>
							<linkclipref>clipitem-2674</linkclipref>
							<mediatype>audio</mediatype>
							<trackindex>18</trackindex>
							<clipindex>171</clipindex>
							<groupindex>1</groupindex>
						</link>
						<logginginfo>
							<description></description>
							<scene></scene>
							<shottake></shottake>
							<lognote></lognote>
						</logginginfo>
						<labels>
							<label2>Iris</label2>
						</labels>
					</clipitem>
					<transitionitem>
						<start>39586</start>
						<end>39649</end>
						<alignment>end-black</alignment>
						<cutPointTicks>640120320000</cutPointTicks>
						<rate>
							<timebase>25</timebase>
							<ntsc>FALSE</ntsc>
						</rate>
						<effect>
							<name>Cross Fade (+3dB)</name>
							<effectid>KGAudioTransCrossFade3dB</effectid>
							<effecttype>transition</effecttype>
							<mediatype>audio</mediatype>
							<wipecode>0</wipecode>
							<wipeaccuracy>100</wipeaccuracy>
							<startratio>0</startratio>
							<endratio>1</endratio>
							<reverse>FALSE</reverse>
						</effect>
					</transitionitem>
					<clipitem id="clipitem-2675" premiereChannelType="stereo">
						<masterclipid>masterclip-10</masterclipid>
						<name>NNFA80750005AA.mxf</name>
						<enabled>TRUE</enabled>
						<duration>81126</duration>
						<rate>
							<timebase>25</timebase>
							<ntsc>FALSE</ntsc>
						</rate>
						<start>39921</start>
						<end>-1</end>
						<in>74736</in>
						<out>74916</out>
						<pproTicksIn>759365591040000</pproTicksIn>
						<pproTicksOut>761194506240000</pproTicksOut>
						<file id="file-8"/>
						<sourcetrack>
							<mediatype>audio</mediatype>
							<trackindex>2</trackindex>
						</sourcetrack>
							<filter>
								<effect>
									<name>Audio Levels</name>
									<effectid>audiolevels</effectid>
									<effectcategory>audiolevels</effectcategory>
									<effecttype>audiolevels</effecttype>
									<mediatype>audio</mediatype>
									<parameter authoringApp="PremierePro">
										<parameterid>level</parameterid>
										<name>Level</name>
										<valuemin>0</valuemin>
										<valuemax>3.98109</valuemax>
										<value>0.275208</value>
									</parameter>
								</effect>
							</filter>
						<link>
							<linkclipref>clipitem-2505</linkclipref>
							<mediatype>audio</mediatype>
							<trackindex>17</trackindex>
							<clipindex>180</clipindex>
							<groupindex>1</groupindex>
						</link>
						<link>
							<linkclipref>clipitem-2675</linkclipref>
							<mediatype>audio</mediatype>
							<trackindex>18</trackindex>
							<clipindex>173</clipindex>
							<groupindex>1</groupindex>
						</link>
						<logginginfo>
							<description></description>
							<scene></scene>
							<shottake></shottake>
							<lognote></lognote>
						</logginginfo>
						<labels>
							<label2>Iris</label2>
						</labels>
					</clipitem>
					<transitionitem>
						<start>40088</start>
						<end>40101</end>
						<alignment>center</alignment>
						<cutPointTicks>60963840000</cutPointTicks>
						<rate>
							<timebase>25</timebase>
							<ntsc>FALSE</ntsc>
						</rate>
						<effect>
							<name>Cross Fade (+3dB)</name>
							<effectid>KGAudioTransCrossFade3dB</effectid>
							<effecttype>transition</effecttype>
							<mediatype>audio</mediatype>
							<wipecode>0</wipecode>
							<wipeaccuracy>100</wipeaccuracy>
							<startratio>0</startratio>
							<endratio>1</endratio>
							<reverse>FALSE</reverse>
						</effect>
					</transitionitem>
					<clipitem id="clipitem-2676" premiereChannelType="stereo">
						<masterclipid>masterclip-10</masterclipid>
						<name>NNFA80750005AA.mxf</name>
						<enabled>TRUE</enabled>
						<duration>81126</duration>
						<rate>
							<timebase>25</timebase>
							<ntsc>FALSE</ntsc>
						</rate>
						<start>-1</start>
						<end>-1</end>
						<in>75007</in>
						<out>75148</out>
						<pproTicksIn>762119124480000</pproTicksIn>
						<pproTicksOut>763551774720000</pproTicksOut>
						<file id="file-8"/>
						<sourcetrack>
							<mediatype>audio</mediatype>
							<trackindex>2</trackindex>
						</sourcetrack>
							<filter>
								<effect>
									<name>Audio Levels</name>
									<effectid>audiolevels</effectid>
									<effectcategory>audiolevels</effectcategory>
									<effecttype>audiolevels</effecttype>
									<mediatype>audio</mediatype>
									<parameter authoringApp="PremierePro">
										<parameterid>level</parameterid>
										<name>Level</name>
										<valuemin>0</valuemin>
										<valuemax>3.98109</valuemax>
										<value>1.25594</value>
									</parameter>
								</effect>
							</filter>
						<link>
							<linkclipref>clipitem-2506</linkclipref>
							<mediatype>audio</mediatype>
							<trackindex>17</trackindex>
							<clipindex>182</clipindex>
							<groupindex>1</groupindex>
						</link>
						<link>
							<linkclipref>clipitem-2676</linkclipref>
							<mediatype>audio</mediatype>
							<trackindex>18</trackindex>
							<clipindex>175</clipindex>
							<groupindex>1</groupindex>
						</link>
						<logginginfo>
							<description></description>
							<scene></scene>
							<shottake></shottake>
							<lognote></lognote>
						</logginginfo>
						<labels>
							<label2>Iris</label2>
						</labels>
					</clipitem>
					<transitionitem>
						<start>40216</start>
						<end>40229</end>
						<alignment>center</alignment>
						<cutPointTicks>60963840000</cutPointTicks>
						<rate>
							<timebase>25</timebase>
							<ntsc>FALSE</ntsc>
						</rate>
						<effect>
							<name>Cross Fade (+3dB)</name>
							<effectid>KGAudioTransCrossFade3dB</effectid>
							<effecttype>transition</effecttype>
							<mediatype>audio</mediatype>
							<wipecode>0</wipecode>
							<wipeaccuracy>100</wipeaccuracy>
							<startratio>0</startratio>
							<endratio>1</endratio>
							<reverse>FALSE</reverse>
						</effect>
					</transitionitem>
					<clipitem id="clipitem-2677" premiereChannelType="stereo">
						<masterclipid>masterclip-10</masterclipid>
						<name>NNFA80750005AA.mxf</name>
						<enabled>TRUE</enabled>
						<duration>81126</duration>
						<rate>
							<timebase>25</timebase>
							<ntsc>FALSE</ntsc>
						</rate>
						<start>-1</start>
						<end>-1</end>
						<in>75268</in>
						<out>75429</out>
						<pproTicksIn>764771051520000</pproTicksIn>
						<pproTicksOut>766406914560000</pproTicksOut>
						<file id="file-8"/>
						<sourcetrack>
							<mediatype>audio</mediatype>
							<trackindex>2</trackindex>
						</sourcetrack>
							<filter>
								<effect>
									<name>Audio Levels</name>
									<effectid>audiolevels</effectid>
									<effectcategory>audiolevels</effectcategory>
									<effecttype>audiolevels</effecttype>
									<mediatype>audio</mediatype>
									<parameter authoringApp="PremierePro">
										<parameterid>level</parameterid>
										<name>Level</name>
										<valuemin>0</valuemin>
										<valuemax>3.98109</valuemax>
										<value>0.103203</value>
									</parameter>
								</effect>
							</filter>
						<link>
							<linkclipref>clipitem-2507</linkclipref>
							<mediatype>audio</mediatype>
							<trackindex>17</trackindex>
							<clipindex>184</clipindex>
							<groupindex>1</groupindex>
						</link>
						<link>
							<linkclipref>clipitem-2677</linkclipref>
							<mediatype>audio</mediatype>
							<trackindex>18</trackindex>
							<clipindex>177</clipindex>
							<groupindex>1</groupindex>
						</link>
						<logginginfo>
							<description></description>
							<scene></scene>
							<shottake></shottake>
							<lognote></lognote>
						</logginginfo>
						<labels>
							<label2>Iris</label2>
						</labels>
					</clipitem>
					<transitionitem>
						<start>40364</start>
						<end>40377</end>
						<alignment>center</alignment>
						<cutPointTicks>60963840000</cutPointTicks>
						<rate>
							<timebase>25</timebase>
							<ntsc>FALSE</ntsc>
						</rate>
						<effect>
							<name>Cross Fade (+3dB)</name>
							<effectid>KGAudioTransCrossFade3dB</effectid>
							<effecttype>transition</effecttype>
							<mediatype>audio</mediatype>
							<wipecode>0</wipecode>
							<wipeaccuracy>100</wipeaccuracy>
							<startratio>0</startratio>
							<endratio>1</endratio>
							<reverse>FALSE</reverse>
						</effect>
					</transitionitem>
					<clipitem id="clipitem-2678" premiereChannelType="stereo">
						<masterclipid>masterclip-10</masterclipid>
						<name>NNFA80750005AA.mxf</name>
						<enabled>TRUE</enabled>
						<duration>81126</duration>
						<rate>
							<timebase>25</timebase>
							<ntsc>FALSE</ntsc>
						</rate>
						<start>-1</start>
						<end>-1</end>
						<in>75165</in>
						<out>75259</out>
						<pproTicksIn>763724505600000</pproTicksIn>
						<pproTicksOut>764679605760000</pproTicksOut>
						<file id="file-8"/>
						<sourcetrack>
							<mediatype>audio</mediatype>
							<trackindex>2</trackindex>
						</sourcetrack>
							<filter>
								<effect>
									<name>Audio Levels</name>
									<effectid>audiolevels</effectid>
									<effectcategory>audiolevels</effectcategory>
									<effecttype>audiolevels</effecttype>
									<mediatype>audio</mediatype>
									<parameter authoringApp="PremierePro">
										<parameterid>level</parameterid>
										<name>Level</name>
										<valuemin>0</valuemin>
										<valuemax>3.98109</valuemax>
										<value>0.403479</value>
									</parameter>
								</effect>
							</filter>
						<link>
							<linkclipref>clipitem-2508</linkclipref>
							<mediatype>audio</mediatype>
							<trackindex>17</trackindex>
							<clipindex>186</clipindex>
							<groupindex>1</groupindex>
						</link>
						<link>
							<linkclipref>clipitem-2678</linkclipref>
							<mediatype>audio</mediatype>
							<trackindex>18</trackindex>
							<clipindex>179</clipindex>
							<groupindex>1</groupindex>
						</link>
						<logginginfo>
							<description></description>
							<scene></scene>
							<shottake></shottake>
							<lognote></lognote>
						</logginginfo>
						<labels>
							<label2>Iris</label2>
						</labels>
					</clipitem>
					<transitionitem>
						<start>40445</start>
						<end>40458</end>
						<alignment>end-black</alignment>
						<cutPointTicks>132088320000</cutPointTicks>
						<rate>
							<timebase>25</timebase>
							<ntsc>FALSE</ntsc>
						</rate>
						<effect>
							<name>Cross Fade (+3dB)</name>
							<effectid>KGAudioTransCrossFade3dB</effectid>
							<effecttype>transition</effecttype>
							<mediatype>audio</mediatype>
							<wipecode>0</wipecode>
							<wipeaccuracy>100</wipeaccuracy>
							<startratio>0</startratio>
							<endratio>1</endratio>
							<reverse>FALSE</reverse>
						</effect>
					</transitionitem>
					<clipitem id="clipitem-2679" premiereChannelType="stereo">
						<masterclipid>masterclip-100</masterclipid>
						<name>Latter spredt.wav</name>
						<enabled>TRUE</enabled>
						<duration>91</duration>
						<rate>
							<timebase>25</timebase>
							<ntsc>FALSE</ntsc>
						</rate>
						<start>42014</start>
						<end>42105</end>
						<in>0</in>
						<out>91</out>
						<pproTicksIn>0</pproTicksIn>
						<pproTicksOut>924618240000</pproTicksOut>
						<file id="file-96"/>
						<sourcetrack>
							<mediatype>audio</mediatype>
							<trackindex>2</trackindex>
						</sourcetrack>
						<link>
							<linkclipref>clipitem-2509</linkclipref>
							<mediatype>audio</mediatype>
							<trackindex>17</trackindex>
							<clipindex>188</clipindex>
							<groupindex>1</groupindex>
						</link>
						<link>
							<linkclipref>clipitem-2679</linkclipref>
							<mediatype>audio</mediatype>
							<trackindex>18</trackindex>
							<clipindex>181</clipindex>
							<groupindex>1</groupindex>
						</link>
						<logginginfo>
							<description></description>
							<scene></scene>
							<shottake></shottake>
							<lognote></lognote>
						</logginginfo>
						<labels>
							<label2>Caribbean</label2>
						</labels>
					</clipitem>
					<clipitem id="clipitem-2680" premiereChannelType="stereo">
						<masterclipid>masterclip-80</masterclipid>
						<name>Latter behersket.wav</name>
						<enabled>TRUE</enabled>
						<duration>124</duration>
						<rate>
							<timebase>25</timebase>
							<ntsc>FALSE</ntsc>
						</rate>
						<start>43509</start>
						<end>43583</end>
						<in>50</in>
						<out>124</out>
						<pproTicksIn>508032000000</pproTicksIn>
						<pproTicksOut>1259919360000</pproTicksOut>
						<file id="file-76"/>
						<sourcetrack>
							<mediatype>audio</mediatype>
							<trackindex>2</trackindex>
						</sourcetrack>
						<link>
							<linkclipref>clipitem-2510</linkclipref>
							<mediatype>audio</mediatype>
							<trackindex>17</trackindex>
							<clipindex>189</clipindex>
							<groupindex>1</groupindex>
						</link>
						<link>
							<linkclipref>clipitem-2680</linkclipref>
							<mediatype>audio</mediatype>
							<trackindex>18</trackindex>
							<clipindex>182</clipindex>
							<groupindex>1</groupindex>
						</link>
						<logginginfo>
							<description></description>
							<scene></scene>
							<shottake></shottake>
							<lognote></lognote>
						</logginginfo>
						<labels>
							<label2>Caribbean</label2>
						</labels>
					</clipitem>
					<clipitem id="clipitem-2681" premiereChannelType="stereo">
						<masterclipid>masterclip-101</masterclipid>
						<name>Latter kort litt klapping.wav</name>
						<enabled>TRUE</enabled>
						<duration>68</duration>
						<rate>
							<timebase>25</timebase>
							<ntsc>FALSE</ntsc>
						</rate>
						<start>44002</start>
						<end>44070</end>
						<in>0</in>
						<out>68</out>
						<pproTicksIn>0</pproTicksIn>
						<pproTicksOut>690923520000</pproTicksOut>
						<file id="file-97"/>
						<sourcetrack>
							<mediatype>audio</mediatype>
							<trackindex>2</trackindex>
						</sourcetrack>
						<link>
							<linkclipref>clipitem-2511</linkclipref>
							<mediatype>audio</mediatype>
							<trackindex>17</trackindex>
							<clipindex>190</clipindex>
							<groupindex>1</groupindex>
						</link>
						<link>
							<linkclipref>clipitem-2681</linkclipref>
							<mediatype>audio</mediatype>
							<trackindex>18</trackindex>
							<clipindex>183</clipindex>
							<groupindex>1</groupindex>
						</link>
						<logginginfo>
							<description></description>
							<scene></scene>
							<shottake></shottake>
							<lognote></lognote>
						</logginginfo>
						<labels>
							<label2>Caribbean</label2>
						</labels>
					</clipitem>
					<clipitem id="clipitem-2682" premiereChannelType="stereo">
						<masterclipid>masterclip-88</masterclipid>
						<name>Latter hehehe.wav</name>
						<enabled>TRUE</enabled>
						<duration>30</duration>
						<rate>
							<timebase>25</timebase>
							<ntsc>FALSE</ntsc>
						</rate>
						<start>44211</start>
						<end>44241</end>
						<in>0</in>
						<out>30</out>
						<pproTicksIn>0</pproTicksIn>
						<pproTicksOut>304819200000</pproTicksOut>
						<file id="file-84"/>
						<sourcetrack>
							<mediatype>audio</mediatype>
							<trackindex>2</trackindex>
						</sourcetrack>
							<filter>
								<effect>
									<name>Audio Levels</name>
									<effectid>audiolevels</effectid>
									<effectcategory>audiolevels</effectcategory>
									<effecttype>audiolevels</effecttype>
									<mediatype>audio</mediatype>
									<parameter authoringApp="PremierePro">
										<parameterid>level</parameterid>
										<name>Level</name>
										<valuemin>0</valuemin>
										<valuemax>3.98109</valuemax>
										<value>0.99763</value>
									</parameter>
								</effect>
							</filter>
						<link>
							<linkclipref>clipitem-2512</linkclipref>
							<mediatype>audio</mediatype>
							<trackindex>17</trackindex>
							<clipindex>191</clipindex>
							<groupindex>1</groupindex>
						</link>
						<link>
							<linkclipref>clipitem-2682</linkclipref>
							<mediatype>audio</mediatype>
							<trackindex>18</trackindex>
							<clipindex>184</clipindex>
							<groupindex>1</groupindex>
						</link>
						<logginginfo>
							<description></description>
							<scene></scene>
							<shottake></shottake>
							<lognote></lognote>
						</logginginfo>
						<labels>
							<label2>Caribbean</label2>
						</labels>
					</clipitem>
					<clipitem id="clipitem-2683" premiereChannelType="stereo">
						<masterclipid>masterclip-100</masterclipid>
						<name>Latter spredt.wav</name>
						<enabled>TRUE</enabled>
						<duration>91</duration>
						<rate>
							<timebase>25</timebase>
							<ntsc>FALSE</ntsc>
						</rate>
						<start>44312</start>
						<end>44403</end>
						<in>0</in>
						<out>91</out>
						<pproTicksIn>0</pproTicksIn>
						<pproTicksOut>924618240000</pproTicksOut>
						<file id="file-96"/>
						<sourcetrack>
							<mediatype>audio</mediatype>
							<trackindex>2</trackindex>
						</sourcetrack>
						<link>
							<linkclipref>clipitem-2513</linkclipref>
							<mediatype>audio</mediatype>
							<trackindex>17</trackindex>
							<clipindex>192</clipindex>
							<groupindex>1</groupindex>
						</link>
						<link>
							<linkclipref>clipitem-2683</linkclipref>
							<mediatype>audio</mediatype>
							<trackindex>18</trackindex>
							<clipindex>185</clipindex>
							<groupindex>1</groupindex>
						</link>
						<logginginfo>
							<description></description>
							<scene></scene>
							<shottake></shottake>
							<lognote></lognote>
						</logginginfo>
						<labels>
							<label2>Caribbean</label2>
						</labels>
					</clipitem>
					<clipitem id="clipitem-2684" premiereChannelType="stereo">
						<masterclipid>masterclip-101</masterclipid>
						<name>Latter kort litt klapping.wav</name>
						<enabled>TRUE</enabled>
						<duration>68</duration>
						<rate>
							<timebase>25</timebase>
							<ntsc>FALSE</ntsc>
						</rate>
						<start>45179</start>
						<end>45247</end>
						<in>0</in>
						<out>68</out>
						<pproTicksIn>0</pproTicksIn>
						<pproTicksOut>690923520000</pproTicksOut>
						<file id="file-97"/>
						<sourcetrack>
							<mediatype>audio</mediatype>
							<trackindex>2</trackindex>
						</sourcetrack>
						<link>
							<linkclipref>clipitem-2514</linkclipref>
							<mediatype>audio</mediatype>
							<trackindex>17</trackindex>
							<clipindex>193</clipindex>
							<groupindex>1</groupindex>
						</link>
						<link>
							<linkclipref>clipitem-2684</linkclipref>
							<mediatype>audio</mediatype>
							<trackindex>18</trackindex>
							<clipindex>186</clipindex>
							<groupindex>1</groupindex>
						</link>
						<logginginfo>
							<description></description>
							<scene></scene>
							<shottake></shottake>
							<lognote></lognote>
						</logginginfo>
						<labels>
							<label2>Caribbean</label2>
						</labels>
					</clipitem>
					<clipitem id="clipitem-2685" premiereChannelType="stereo">
						<masterclipid>masterclip-100</masterclipid>
						<name>Latter spredt.wav</name>
						<enabled>TRUE</enabled>
						<duration>91</duration>
						<rate>
							<timebase>25</timebase>
							<ntsc>FALSE</ntsc>
						</rate>
						<start>45465</start>
						<end>45538</end>
						<in>0</in>
						<out>73</out>
						<pproTicksIn>0</pproTicksIn>
						<pproTicksOut>741726720000</pproTicksOut>
						<file id="file-96"/>
						<sourcetrack>
							<mediatype>audio</mediatype>
							<trackindex>2</trackindex>
						</sourcetrack>
						<link>
							<linkclipref>clipitem-2515</linkclipref>
							<mediatype>audio</mediatype>
							<trackindex>17</trackindex>
							<clipindex>194</clipindex>
							<groupindex>1</groupindex>
						</link>
						<link>
							<linkclipref>clipitem-2685</linkclipref>
							<mediatype>audio</mediatype>
							<trackindex>18</trackindex>
							<clipindex>187</clipindex>
							<groupindex>1</groupindex>
						</link>
						<logginginfo>
							<description></description>
							<scene></scene>
							<shottake></shottake>
							<lognote></lognote>
						</logginginfo>
						<labels>
							<label2>Caribbean</label2>
						</labels>
					</clipitem>
					<clipitem id="clipitem-2686" premiereChannelType="stereo">
						<masterclipid>masterclip-100</masterclipid>
						<name>Latter spredt.wav</name>
						<enabled>TRUE</enabled>
						<duration>91</duration>
						<rate>
							<timebase>25</timebase>
							<ntsc>FALSE</ntsc>
						</rate>
						<start>45538</start>
						<end>45595</end>
						<in>0</in>
						<out>57</out>
						<pproTicksIn>0</pproTicksIn>
						<pproTicksOut>579156480000</pproTicksOut>
						<file id="file-96"/>
						<sourcetrack>
							<mediatype>audio</mediatype>
							<trackindex>2</trackindex>
						</sourcetrack>
						<link>
							<linkclipref>clipitem-2516</linkclipref>
							<mediatype>audio</mediatype>
							<trackindex>17</trackindex>
							<clipindex>195</clipindex>
							<groupindex>1</groupindex>
						</link>
						<link>
							<linkclipref>clipitem-2686</linkclipref>
							<mediatype>audio</mediatype>
							<trackindex>18</trackindex>
							<clipindex>188</clipindex>
							<groupindex>1</groupindex>
						</link>
						<logginginfo>
							<description></description>
							<scene></scene>
							<shottake></shottake>
							<lognote></lognote>
						</logginginfo>
						<labels>
							<label2>Caribbean</label2>
						</labels>
					</clipitem>
					<clipitem id="clipitem-2687" premiereChannelType="stereo">
						<masterclipid>masterclip-116</masterclipid>
						<name>Latterkule kort.wav</name>
						<enabled>TRUE</enabled>
						<duration>205</duration>
						<rate>
							<timebase>25</timebase>
							<ntsc>FALSE</ntsc>
						</rate>
						<start>46238</start>
						<end>46443</end>
						<in>0</in>
						<out>205</out>
						<pproTicksIn>0</pproTicksIn>
						<pproTicksOut>2082931200000</pproTicksOut>
						<file id="file-112"/>
						<sourcetrack>
							<mediatype>audio</mediatype>
							<trackindex>2</trackindex>
						</sourcetrack>
						<link>
							<linkclipref>clipitem-2517</linkclipref>
							<mediatype>audio</mediatype>
							<trackindex>17</trackindex>
							<clipindex>196</clipindex>
							<groupindex>1</groupindex>
						</link>
						<link>
							<linkclipref>clipitem-2687</linkclipref>
							<mediatype>audio</mediatype>
							<trackindex>18</trackindex>
							<clipindex>189</clipindex>
							<groupindex>1</groupindex>
						</link>
						<logginginfo>
							<description></description>
							<scene></scene>
							<shottake></shottake>
							<lognote></lognote>
						</logginginfo>
						<labels>
							<label2>Caribbean</label2>
						</labels>
					</clipitem>
					<clipitem id="clipitem-2688" premiereChannelType="stereo">
						<masterclipid>masterclip-42</masterclipid>
						<name>Mira Craig Stage Dive.mp4</name>
						<enabled>TRUE</enabled>
						<duration>965</duration>
						<rate>
							<timebase>25</timebase>
							<ntsc>FALSE</ntsc>
						</rate>
						<start>46452</start>
						<end>46524</end>
						<in>445</in>
						<out>517</out>
						<pproTicksIn>4521484800000</pproTicksIn>
						<pproTicksOut>5253050880000</pproTicksOut>
						<file id="file-38"/>
						<sourcetrack>
							<mediatype>audio</mediatype>
							<trackindex>1</trackindex>
						</sourcetrack>
						<link>
							<linkclipref>clipitem-2518</linkclipref>
							<mediatype>audio</mediatype>
							<trackindex>17</trackindex>
							<clipindex>197</clipindex>
							<groupindex>1</groupindex>
						</link>
						<link>
							<linkclipref>clipitem-2688</linkclipref>
							<mediatype>audio</mediatype>
							<trackindex>18</trackindex>
							<clipindex>190</clipindex>
							<groupindex>1</groupindex>
						</link>
						<logginginfo>
							<description></description>
							<scene></scene>
							<shottake></shottake>
							<lognote></lognote>
						</logginginfo>
						<labels>
							<label2>Iris</label2>
						</labels>
					</clipitem>
					<clipitem id="clipitem-2689" premiereChannelType="stereo">
						<masterclipid>masterclip-117</masterclipid>
						<name>Applaus behersket et hoi.wav</name>
						<enabled>TRUE</enabled>
						<duration>159</duration>
						<rate>
							<timebase>25</timebase>
							<ntsc>FALSE</ntsc>
						</rate>
						<start>47274</start>
						<end>47327</end>
						<in>0</in>
						<out>53</out>
						<pproTicksIn>0</pproTicksIn>
						<pproTicksOut>538513920000</pproTicksOut>
						<file id="file-113"/>
						<sourcetrack>
							<mediatype>audio</mediatype>
							<trackindex>2</trackindex>
						</sourcetrack>
						<link>
							<linkclipref>clipitem-2519</linkclipref>
							<mediatype>audio</mediatype>
							<trackindex>17</trackindex>
							<clipindex>198</clipindex>
							<groupindex>1</groupindex>
						</link>
						<link>
							<linkclipref>clipitem-2689</linkclipref>
							<mediatype>audio</mediatype>
							<trackindex>18</trackindex>
							<clipindex>191</clipindex>
							<groupindex>1</groupindex>
						</link>
						<logginginfo>
							<description></description>
							<scene></scene>
							<shottake></shottake>
							<lognote></lognote>
						</logginginfo>
						<labels>
							<label2>Caribbean</label2>
						</labels>
					</clipitem>
					<clipitem id="clipitem-2690" premiereChannelType="stereo">
						<masterclipid>masterclip-117</masterclipid>
						<name>Applaus behersket et hoi.wav</name>
						<enabled>TRUE</enabled>
						<duration>159</duration>
						<rate>
							<timebase>25</timebase>
							<ntsc>FALSE</ntsc>
						</rate>
						<start>47327</start>
						<end>47380</end>
						<in>106</in>
						<out>159</out>
						<pproTicksIn>1077027840000</pproTicksIn>
						<pproTicksOut>1615541760000</pproTicksOut>
						<file id="file-113"/>
						<sourcetrack>
							<mediatype>audio</mediatype>
							<trackindex>2</trackindex>
						</sourcetrack>
						<link>
							<linkclipref>clipitem-2520</linkclipref>
							<mediatype>audio</mediatype>
							<trackindex>17</trackindex>
							<clipindex>199</clipindex>
							<groupindex>1</groupindex>
						</link>
						<link>
							<linkclipref>clipitem-2690</linkclipref>
							<mediatype>audio</mediatype>
							<trackindex>18</trackindex>
							<clipindex>192</clipindex>
							<groupindex>1</groupindex>
						</link>
						<logginginfo>
							<description></description>
							<scene></scene>
							<shottake></shottake>
							<lognote></lognote>
						</logginginfo>
						<labels>
							<label2>Caribbean</label2>
						</labels>
					</clipitem>
					<clipitem id="clipitem-2691" premiereChannelType="stereo">
						<masterclipid>masterclip-105</masterclipid>
						<name>Latter kort.wav</name>
						<enabled>TRUE</enabled>
						<duration>64</duration>
						<rate>
							<timebase>25</timebase>
							<ntsc>FALSE</ntsc>
						</rate>
						<start>47414</start>
						<end>47478</end>
						<in>0</in>
						<out>64</out>
						<pproTicksIn>0</pproTicksIn>
						<pproTicksOut>650280960000</pproTicksOut>
						<file id="file-101"/>
						<sourcetrack>
							<mediatype>audio</mediatype>
							<trackindex>2</trackindex>
						</sourcetrack>
						<link>
							<linkclipref>clipitem-2521</linkclipref>
							<mediatype>audio</mediatype>
							<trackindex>17</trackindex>
							<clipindex>200</clipindex>
							<groupindex>1</groupindex>
						</link>
						<link>
							<linkclipref>clipitem-2691</linkclipref>
							<mediatype>audio</mediatype>
							<trackindex>18</trackindex>
							<clipindex>193</clipindex>
							<groupindex>1</groupindex>
						</link>
						<logginginfo>
							<description></description>
							<scene></scene>
							<shottake></shottake>
							<lognote></lognote>
						</logginginfo>
						<labels>
							<label2>Caribbean</label2>
						</labels>
					</clipitem>
					<clipitem id="clipitem-2692" premiereChannelType="stereo">
						<masterclipid>masterclip-6</masterclipid>
						<name>NSPO30604105AA.mxf</name>
						<enabled>TRUE</enabled>
						<duration>89255</duration>
						<rate>
							<timebase>25</timebase>
							<ntsc>FALSE</ntsc>
						</rate>
						<start>47714</start>
						<end>-1</end>
						<in>36780</in>
						<out>37117</out>
						<pproTicksIn>373708339200000</pproTicksIn>
						<pproTicksOut>377132474880000</pproTicksOut>
						<file id="file-5"/>
						<sourcetrack>
							<mediatype>audio</mediatype>
							<trackindex>2</trackindex>
						</sourcetrack>
							<filter>
								<effect>
									<name>Audio Levels</name>
									<effectid>audiolevels</effectid>
									<effectcategory>audiolevels</effectcategory>
									<effecttype>audiolevels</effecttype>
									<mediatype>audio</mediatype>
									<parameter authoringApp="PremierePro">
										<parameterid>level</parameterid>
										<name>Level</name>
										<valuemin>0</valuemin>
										<valuemax>3.98109</valuemax>
										<value>0.792446</value>
									</parameter>
								</effect>
							</filter>
						<link>
							<linkclipref>clipitem-2522</linkclipref>
							<mediatype>audio</mediatype>
							<trackindex>17</trackindex>
							<clipindex>201</clipindex>
							<groupindex>1</groupindex>
						</link>
						<link>
							<linkclipref>clipitem-2692</linkclipref>
							<mediatype>audio</mediatype>
							<trackindex>18</trackindex>
							<clipindex>194</clipindex>
							<groupindex>1</groupindex>
						</link>
						<logginginfo>
							<description></description>
							<scene></scene>
							<shottake></shottake>
							<lognote></lognote>
						</logginginfo>
						<labels>
							<label2>Iris</label2>
						</labels>
					</clipitem>
					<transitionitem>
						<start>48043</start>
						<end>48051</end>
						<alignment>end-black</alignment>
						<cutPointTicks>81285120000</cutPointTicks>
						<rate>
							<timebase>25</timebase>
							<ntsc>FALSE</ntsc>
						</rate>
						<effect>
							<name>Cross Fade (+3dB)</name>
							<effectid>KGAudioTransCrossFade3dB</effectid>
							<effecttype>transition</effecttype>
							<mediatype>audio</mediatype>
							<wipecode>0</wipecode>
							<wipeaccuracy>100</wipeaccuracy>
							<startratio>0</startratio>
							<endratio>1</endratio>
							<reverse>FALSE</reverse>
						</effect>
					</transitionitem>
					<clipitem id="clipitem-2693" premiereChannelType="stereo">
						<masterclipid>masterclip-6</masterclipid>
						<name>NSPO30604105AA.mxf</name>
						<enabled>TRUE</enabled>
						<duration>89255</duration>
						<rate>
							<timebase>25</timebase>
							<ntsc>FALSE</ntsc>
						</rate>
						<start>48798</start>
						<end>-1</end>
						<in>36424</in>
						<out>36615</out>
						<pproTicksIn>370091151360000</pproTicksIn>
						<pproTicksOut>372031833600000</pproTicksOut>
						<file id="file-5"/>
						<sourcetrack>
							<mediatype>audio</mediatype>
							<trackindex>2</trackindex>
						</sourcetrack>
							<filter>
								<effect>
									<name>Audio Levels</name>
									<effectid>audiolevels</effectid>
									<effectcategory>audiolevels</effectcategory>
									<effecttype>audiolevels</effecttype>
									<mediatype>audio</mediatype>
									<parameter authoringApp="PremierePro">
										<parameterid>level</parameterid>
										<name>Level</name>
										<valuemin>0</valuemin>
										<valuemax>3.98109</valuemax>
										<value>0.499999</value>
									</parameter>
								</effect>
							</filter>
						<link>
							<linkclipref>clipitem-2523</linkclipref>
							<mediatype>audio</mediatype>
							<trackindex>17</trackindex>
							<clipindex>203</clipindex>
							<groupindex>1</groupindex>
						</link>
						<link>
							<linkclipref>clipitem-2693</linkclipref>
							<mediatype>audio</mediatype>
							<trackindex>18</trackindex>
							<clipindex>196</clipindex>
							<groupindex>1</groupindex>
						</link>
						<logginginfo>
							<description></description>
							<scene></scene>
							<shottake></shottake>
							<lognote></lognote>
						</logginginfo>
						<labels>
							<label2>Iris</label2>
						</labels>
					</clipitem>
					<transitionitem>
						<start>48976</start>
						<end>48989</end>
						<alignment>center</alignment>
						<cutPointTicks>60963840000</cutPointTicks>
						<rate>
							<timebase>25</timebase>
							<ntsc>FALSE</ntsc>
						</rate>
						<effect>
							<name>Cross Fade (+3dB)</name>
							<effectid>KGAudioTransCrossFade3dB</effectid>
							<effecttype>transition</effecttype>
							<mediatype>audio</mediatype>
							<wipecode>0</wipecode>
							<wipeaccuracy>100</wipeaccuracy>
							<startratio>0</startratio>
							<endratio>1</endratio>
							<reverse>FALSE</reverse>
						</effect>
					</transitionitem>
					<clipitem id="clipitem-2694" premiereChannelType="stereo">
						<masterclipid>masterclip-6</masterclipid>
						<name>NSPO30604105AA.mxf</name>
						<enabled>TRUE</enabled>
						<duration>89255</duration>
						<rate>
							<timebase>25</timebase>
							<ntsc>FALSE</ntsc>
						</rate>
						<start>-1</start>
						<end>-1</end>
						<in>37477</in>
						<out>37585</out>
						<pproTicksIn>380790305280000</pproTicksIn>
						<pproTicksOut>381887654400000</pproTicksOut>
						<file id="file-5"/>
						<sourcetrack>
							<mediatype>audio</mediatype>
							<trackindex>2</trackindex>
						</sourcetrack>
							<filter>
								<effect>
									<name>Audio Levels</name>
									<effectid>audiolevels</effectid>
									<effectcategory>audiolevels</effectcategory>
									<effecttype>audiolevels</effecttype>
									<mediatype>audio</mediatype>
									<parameter authoringApp="PremierePro">
										<parameterid>level</parameterid>
										<name>Level</name>
										<valuemin>0</valuemin>
										<valuemax>3.98109</valuemax>
										<value>0.499999</value>
									</parameter>
								</effect>
							</filter>
						<link>
							<linkclipref>clipitem-2524</linkclipref>
							<mediatype>audio</mediatype>
							<trackindex>17</trackindex>
							<clipindex>205</clipindex>
							<groupindex>1</groupindex>
						</link>
						<link>
							<linkclipref>clipitem-2694</linkclipref>
							<mediatype>audio</mediatype>
							<trackindex>18</trackindex>
							<clipindex>198</clipindex>
							<groupindex>1</groupindex>
						</link>
						<logginginfo>
							<description></description>
							<scene></scene>
							<shottake></shottake>
							<lognote></lognote>
						</logginginfo>
						<labels>
							<label2>Iris</label2>
						</labels>
					</clipitem>
					<transitionitem>
						<start>49076</start>
						<end>49084</end>
						<alignment>center</alignment>
						<cutPointTicks>40642560000</cutPointTicks>
						<rate>
							<timebase>25</timebase>
							<ntsc>FALSE</ntsc>
						</rate>
						<effect>
							<name>Cross Fade (+3dB)</name>
							<effectid>KGAudioTransCrossFade3dB</effectid>
							<effecttype>transition</effecttype>
							<mediatype>audio</mediatype>
							<wipecode>0</wipecode>
							<wipeaccuracy>100</wipeaccuracy>
							<startratio>0</startratio>
							<endratio>1</endratio>
							<reverse>FALSE</reverse>
						</effect>
					</transitionitem>
					<clipitem id="clipitem-2695" premiereChannelType="stereo">
						<masterclipid>masterclip-6</masterclipid>
						<name>NSPO30604105AA.mxf</name>
						<enabled>TRUE</enabled>
						<duration>89255</duration>
						<rate>
							<timebase>25</timebase>
							<ntsc>FALSE</ntsc>
						</rate>
						<start>-1</start>
						<end>49322</end>
						<in>37700</in>
						<out>37946</out>
						<pproTicksIn>383056128000000</pproTicksIn>
						<pproTicksOut>385555645440000</pproTicksOut>
						<file id="file-5"/>
						<sourcetrack>
							<mediatype>audio</mediatype>
							<trackindex>2</trackindex>
						</sourcetrack>
							<filter>
								<effect>
									<name>Audio Levels</name>
									<effectid>audiolevels</effectid>
									<effectcategory>audiolevels</effectcategory>
									<effecttype>audiolevels</effecttype>
									<mediatype>audio</mediatype>
									<parameter authoringApp="PremierePro">
										<parameterid>level</parameterid>
										<name>Level</name>
										<valuemin>0</valuemin>
										<valuemax>3.98109</valuemax>
										<value>0.499999</value>
									</parameter>
								</effect>
							</filter>
						<link>
							<linkclipref>clipitem-2525</linkclipref>
							<mediatype>audio</mediatype>
							<trackindex>17</trackindex>
							<clipindex>207</clipindex>
							<groupindex>1</groupindex>
						</link>
						<link>
							<linkclipref>clipitem-2695</linkclipref>
							<mediatype>audio</mediatype>
							<trackindex>18</trackindex>
							<clipindex>200</clipindex>
							<groupindex>1</groupindex>
						</link>
						<logginginfo>
							<description></description>
							<scene></scene>
							<shottake></shottake>
							<lognote></lognote>
						</logginginfo>
						<labels>
							<label2>Iris</label2>
						</labels>
					</clipitem>
					<clipitem id="clipitem-2696" premiereChannelType="stereo">
						<masterclipid>masterclip-6</masterclipid>
						<name>NSPO30604105AA.mxf</name>
						<enabled>TRUE</enabled>
						<duration>89255</duration>
						<rate>
							<timebase>25</timebase>
							<ntsc>FALSE</ntsc>
						</rate>
						<start>49322</start>
						<end>-1</end>
						<in>38101</in>
						<out>38248</out>
						<pproTicksIn>387130544640000</pproTicksIn>
						<pproTicksOut>388624158720000</pproTicksOut>
						<file id="file-5"/>
						<sourcetrack>
							<mediatype>audio</mediatype>
							<trackindex>2</trackindex>
						</sourcetrack>
							<filter>
								<effect>
									<name>Audio Levels</name>
									<effectid>audiolevels</effectid>
									<effectcategory>audiolevels</effectcategory>
									<effecttype>audiolevels</effecttype>
									<mediatype>audio</mediatype>
									<parameter authoringApp="PremierePro">
										<parameterid>level</parameterid>
										<name>Level</name>
										<valuemin>0</valuemin>
										<valuemax>3.98109</valuemax>
										<value>0.499999</value>
									</parameter>
								</effect>
							</filter>
						<link>
							<linkclipref>clipitem-2526</linkclipref>
							<mediatype>audio</mediatype>
							<trackindex>17</trackindex>
							<clipindex>208</clipindex>
							<groupindex>1</groupindex>
						</link>
						<link>
							<linkclipref>clipitem-2696</linkclipref>
							<mediatype>audio</mediatype>
							<trackindex>18</trackindex>
							<clipindex>201</clipindex>
							<groupindex>1</groupindex>
						</link>
						<logginginfo>
							<description></description>
							<scene></scene>
							<shottake></shottake>
							<lognote></lognote>
						</logginginfo>
						<labels>
							<label2>Iris</label2>
						</labels>
					</clipitem>
					<transitionitem>
						<start>49461</start>
						<end>49469</end>
						<alignment>end-black</alignment>
						<cutPointTicks>81285120000</cutPointTicks>
						<rate>
							<timebase>25</timebase>
							<ntsc>FALSE</ntsc>
						</rate>
						<effect>
							<name>Cross Fade (+3dB)</name>
							<effectid>KGAudioTransCrossFade3dB</effectid>
							<effecttype>transition</effecttype>
							<mediatype>audio</mediatype>
							<wipecode>0</wipecode>
							<wipeaccuracy>100</wipeaccuracy>
							<startratio>0</startratio>
							<endratio>1</endratio>
							<reverse>FALSE</reverse>
						</effect>
					</transitionitem>
					<clipitem id="clipitem-2697" premiereChannelType="stereo">
						<masterclipid>masterclip-48</masterclipid>
						<name>tidsbonanza_bumper_hurtigrunden (1).mov</name>
						<enabled>TRUE</enabled>
						<duration>195</duration>
						<rate>
							<timebase>25</timebase>
							<ntsc>FALSE</ntsc>
						</rate>
						<start>49762</start>
						<end>49957</end>
						<in>0</in>
						<out>195</out>
						<pproTicksIn>0</pproTicksIn>
						<pproTicksOut>1981324800000</pproTicksOut>
						<file id="file-44"/>
						<sourcetrack>
							<mediatype>audio</mediatype>
							<trackindex>2</trackindex>
						</sourcetrack>
						<link>
							<linkclipref>clipitem-2527</linkclipref>
							<mediatype>audio</mediatype>
							<trackindex>17</trackindex>
							<clipindex>210</clipindex>
							<groupindex>1</groupindex>
						</link>
						<link>
							<linkclipref>clipitem-2697</linkclipref>
							<mediatype>audio</mediatype>
							<trackindex>18</trackindex>
							<clipindex>203</clipindex>
							<groupindex>1</groupindex>
						</link>
						<logginginfo>
							<description></description>
							<scene></scene>
							<shottake></shottake>
							<lognote></lognote>
						</logginginfo>
						<labels>
							<label2>Iris</label2>
						</labels>
					</clipitem>
					<clipitem id="clipitem-2698" premiereChannelType="stereo">
						<masterclipid>masterclip-118</masterclipid>
						<name>Kort spredt latter.wav</name>
						<enabled>TRUE</enabled>
						<duration>64</duration>
						<rate>
							<timebase>25</timebase>
							<ntsc>FALSE</ntsc>
						</rate>
						<start>50213</start>
						<end>50277</end>
						<in>0</in>
						<out>64</out>
						<pproTicksIn>0</pproTicksIn>
						<pproTicksOut>650280960000</pproTicksOut>
						<file id="file-114"/>
						<sourcetrack>
							<mediatype>audio</mediatype>
							<trackindex>2</trackindex>
						</sourcetrack>
						<link>
							<linkclipref>clipitem-2528</linkclipref>
							<mediatype>audio</mediatype>
							<trackindex>17</trackindex>
							<clipindex>211</clipindex>
							<groupindex>1</groupindex>
						</link>
						<link>
							<linkclipref>clipitem-2698</linkclipref>
							<mediatype>audio</mediatype>
							<trackindex>18</trackindex>
							<clipindex>204</clipindex>
							<groupindex>1</groupindex>
						</link>
						<logginginfo>
							<description></description>
							<scene></scene>
							<shottake></shottake>
							<lognote></lognote>
						</logginginfo>
						<labels>
							<label2>Caribbean</label2>
						</labels>
					</clipitem>
					<clipitem id="clipitem-2699" premiereChannelType="stereo">
						<masterclipid>masterclip-98</masterclipid>
						<name>Noen få ler kort.wav</name>
						<enabled>TRUE</enabled>
						<duration>43</duration>
						<rate>
							<timebase>25</timebase>
							<ntsc>FALSE</ntsc>
						</rate>
						<start>50375</start>
						<end>50418</end>
						<in>0</in>
						<out>43</out>
						<pproTicksIn>0</pproTicksIn>
						<pproTicksOut>436907520000</pproTicksOut>
						<file id="file-94"/>
						<sourcetrack>
							<mediatype>audio</mediatype>
							<trackindex>2</trackindex>
						</sourcetrack>
						<link>
							<linkclipref>clipitem-2529</linkclipref>
							<mediatype>audio</mediatype>
							<trackindex>17</trackindex>
							<clipindex>212</clipindex>
							<groupindex>1</groupindex>
						</link>
						<link>
							<linkclipref>clipitem-2699</linkclipref>
							<mediatype>audio</mediatype>
							<trackindex>18</trackindex>
							<clipindex>205</clipindex>
							<groupindex>1</groupindex>
						</link>
						<logginginfo>
							<description></description>
							<scene></scene>
							<shottake></shottake>
							<lognote></lognote>
						</logginginfo>
						<labels>
							<label2>Caribbean</label2>
						</labels>
					</clipitem>
					<clipitem id="clipitem-2700" premiereChannelType="stereo">
						<masterclipid>masterclip-119</masterclipid>
						<name>Apollo_DIN_47_4__Place-Your-Bets-__Alexander-Seth-Weinstein-Shenandi.mp3</name>
						<enabled>TRUE</enabled>
						<duration>813</duration>
						<rate>
							<timebase>25</timebase>
							<ntsc>FALSE</ntsc>
						</rate>
						<start>51031</start>
						<end>51359</end>
						<in>0</in>
						<out>328</out>
						<pproTicksIn>0</pproTicksIn>
						<pproTicksOut>3332689920000</pproTicksOut>
						<file id="file-115"/>
						<sourcetrack>
							<mediatype>audio</mediatype>
							<trackindex>2</trackindex>
						</sourcetrack>
							<filter>
								<effect>
									<name>Audio Levels</name>
									<effectid>audiolevels</effectid>
									<effectcategory>audiolevels</effectcategory>
									<effecttype>audiolevels</effecttype>
									<mediatype>audio</mediatype>
									<parameter authoringApp="PremierePro">
										<parameterid>level</parameterid>
										<name>Level</name>
										<valuemin>0</valuemin>
										<valuemax>3.98109</valuemax>
										<value>0.28117</value>
									</parameter>
								</effect>
							</filter>
						<link>
							<linkclipref>clipitem-2530</linkclipref>
							<mediatype>audio</mediatype>
							<trackindex>17</trackindex>
							<clipindex>213</clipindex>
							<groupindex>1</groupindex>
						</link>
						<link>
							<linkclipref>clipitem-2700</linkclipref>
							<mediatype>audio</mediatype>
							<trackindex>18</trackindex>
							<clipindex>206</clipindex>
							<groupindex>1</groupindex>
						</link>
						<logginginfo>
							<description></description>
							<scene></scene>
							<shottake></shottake>
							<lognote></lognote>
						</logginginfo>
						<labels>
							<label2>Caribbean</label2>
						</labels>
					</clipitem>
					<clipitem id="clipitem-2701" premiereChannelType="stereo">
						<masterclipid>masterclip-119</masterclipid>
						<name>Apollo_DIN_47_4__Place-Your-Bets-__Alexander-Seth-Weinstein-Shenandi.mp3</name>
						<enabled>TRUE</enabled>
						<duration>813</duration>
						<rate>
							<timebase>25</timebase>
							<ntsc>FALSE</ntsc>
						</rate>
						<start>51359</start>
						<end>51483</end>
						<in>103</in>
						<out>227</out>
						<pproTicksIn>1046545920000</pproTicksIn>
						<pproTicksOut>2306465280000</pproTicksOut>
						<file id="file-115"/>
						<sourcetrack>
							<mediatype>audio</mediatype>
							<trackindex>2</trackindex>
						</sourcetrack>
							<filter>
								<effect>
									<name>Audio Levels</name>
									<effectid>audiolevels</effectid>
									<effectcategory>audiolevels</effectcategory>
									<effecttype>audiolevels</effecttype>
									<mediatype>audio</mediatype>
									<parameter authoringApp="PremierePro">
										<parameterid>level</parameterid>
										<name>Level</name>
										<valuemin>0</valuemin>
										<valuemax>3.98109</valuemax>
										<value>0.28117</value>
									</parameter>
								</effect>
							</filter>
						<link>
							<linkclipref>clipitem-2531</linkclipref>
							<mediatype>audio</mediatype>
							<trackindex>17</trackindex>
							<clipindex>214</clipindex>
							<groupindex>1</groupindex>
						</link>
						<link>
							<linkclipref>clipitem-2701</linkclipref>
							<mediatype>audio</mediatype>
							<trackindex>18</trackindex>
							<clipindex>207</clipindex>
							<groupindex>1</groupindex>
						</link>
						<logginginfo>
							<description></description>
							<scene></scene>
							<shottake></shottake>
							<lognote></lognote>
						</logginginfo>
						<labels>
							<label2>Caribbean</label2>
						</labels>
					</clipitem>
					<clipitem id="clipitem-2702" premiereChannelType="stereo">
						<masterclipid>masterclip-119</masterclipid>
						<name>Apollo_DIN_47_4__Place-Your-Bets-__Alexander-Seth-Weinstein-Shenandi.mp3</name>
						<enabled>TRUE</enabled>
						<duration>813</duration>
						<rate>
							<timebase>25</timebase>
							<ntsc>FALSE</ntsc>
						</rate>
						<start>51483</start>
						<end>51533</end>
						<in>227</in>
						<out>277</out>
						<pproTicksIn>2306465280000</pproTicksIn>
						<pproTicksOut>2814497280000</pproTicksOut>
						<file id="file-115"/>
						<sourcetrack>
							<mediatype>audio</mediatype>
							<trackindex>2</trackindex>
						</sourcetrack>
							<filter>
								<effect>
									<name>Audio Levels</name>
									<effectid>audiolevels</effectid>
									<effectcategory>audiolevels</effectcategory>
									<effecttype>audiolevels</effecttype>
									<mediatype>audio</mediatype>
									<parameter authoringApp="PremierePro">
										<parameterid>level</parameterid>
										<name>Level</name>
										<valuemin>0</valuemin>
										<valuemax>3.98109</valuemax>
										<value>0.28117</value>
									</parameter>
								</effect>
							</filter>
						<link>
							<linkclipref>clipitem-2532</linkclipref>
							<mediatype>audio</mediatype>
							<trackindex>17</trackindex>
							<clipindex>215</clipindex>
							<groupindex>1</groupindex>
						</link>
						<link>
							<linkclipref>clipitem-2702</linkclipref>
							<mediatype>audio</mediatype>
							<trackindex>18</trackindex>
							<clipindex>208</clipindex>
							<groupindex>1</groupindex>
						</link>
						<logginginfo>
							<description></description>
							<scene></scene>
							<shottake></shottake>
							<lognote></lognote>
						</logginginfo>
						<labels>
							<label2>Caribbean</label2>
						</labels>
					</clipitem>
					<clipitem id="clipitem-2703" premiereChannelType="stereo">
						<masterclipid>masterclip-119</masterclipid>
						<name>Apollo_DIN_47_4__Place-Your-Bets-__Alexander-Seth-Weinstein-Shenandi.mp3</name>
						<enabled>TRUE</enabled>
						<duration>813</duration>
						<rate>
							<timebase>25</timebase>
							<ntsc>FALSE</ntsc>
						</rate>
						<start>51533</start>
						<end>51634</end>
						<in>227</in>
						<out>328</out>
						<pproTicksIn>2306465280000</pproTicksIn>
						<pproTicksOut>3332689920000</pproTicksOut>
						<file id="file-115"/>
						<sourcetrack>
							<mediatype>audio</mediatype>
							<trackindex>2</trackindex>
						</sourcetrack>
							<filter>
								<effect>
									<name>Audio Levels</name>
									<effectid>audiolevels</effectid>
									<effectcategory>audiolevels</effectcategory>
									<effecttype>audiolevels</effecttype>
									<mediatype>audio</mediatype>
									<parameter authoringApp="PremierePro">
										<parameterid>level</parameterid>
										<name>Level</name>
										<valuemin>0</valuemin>
										<valuemax>3.98109</valuemax>
										<value>0.28117</value>
									</parameter>
								</effect>
							</filter>
						<link>
							<linkclipref>clipitem-2533</linkclipref>
							<mediatype>audio</mediatype>
							<trackindex>17</trackindex>
							<clipindex>216</clipindex>
							<groupindex>1</groupindex>
						</link>
						<link>
							<linkclipref>clipitem-2703</linkclipref>
							<mediatype>audio</mediatype>
							<trackindex>18</trackindex>
							<clipindex>209</clipindex>
							<groupindex>1</groupindex>
						</link>
						<logginginfo>
							<description></description>
							<scene></scene>
							<shottake></shottake>
							<lognote></lognote>
						</logginginfo>
						<labels>
							<label2>Caribbean</label2>
						</labels>
					</clipitem>
					<clipitem id="clipitem-2704" premiereChannelType="stereo">
						<masterclipid>masterclip-119</masterclipid>
						<name>Apollo_DIN_47_4__Place-Your-Bets-__Alexander-Seth-Weinstein-Shenandi.mp3</name>
						<enabled>TRUE</enabled>
						<duration>813</duration>
						<rate>
							<timebase>25</timebase>
							<ntsc>FALSE</ntsc>
						</rate>
						<start>51634</start>
						<end>51859</end>
						<in>103</in>
						<out>328</out>
						<pproTicksIn>1046545920000</pproTicksIn>
						<pproTicksOut>3332689920000</pproTicksOut>
						<file id="file-115"/>
						<sourcetrack>
							<mediatype>audio</mediatype>
							<trackindex>2</trackindex>
						</sourcetrack>
							<filter>
								<effect>
									<name>Audio Levels</name>
									<effectid>audiolevels</effectid>
									<effectcategory>audiolevels</effectcategory>
									<effecttype>audiolevels</effecttype>
									<mediatype>audio</mediatype>
									<parameter authoringApp="PremierePro">
										<parameterid>level</parameterid>
										<name>Level</name>
										<valuemin>0</valuemin>
										<valuemax>3.98109</valuemax>
										<value>0.28117</value>
									</parameter>
								</effect>
							</filter>
						<link>
							<linkclipref>clipitem-2534</linkclipref>
							<mediatype>audio</mediatype>
							<trackindex>17</trackindex>
							<clipindex>217</clipindex>
							<groupindex>1</groupindex>
						</link>
						<link>
							<linkclipref>clipitem-2704</linkclipref>
							<mediatype>audio</mediatype>
							<trackindex>18</trackindex>
							<clipindex>210</clipindex>
							<groupindex>1</groupindex>
						</link>
						<logginginfo>
							<description></description>
							<scene></scene>
							<shottake></shottake>
							<lognote></lognote>
						</logginginfo>
						<labels>
							<label2>Caribbean</label2>
						</labels>
					</clipitem>
					<clipitem id="clipitem-2705" premiereChannelType="stereo">
						<masterclipid>masterclip-119</masterclipid>
						<name>Apollo_DIN_47_4__Place-Your-Bets-__Alexander-Seth-Weinstein-Shenandi.mp3</name>
						<enabled>TRUE</enabled>
						<duration>813</duration>
						<rate>
							<timebase>25</timebase>
							<ntsc>FALSE</ntsc>
						</rate>
						<start>51859</start>
						<end>52084</end>
						<in>103</in>
						<out>328</out>
						<pproTicksIn>1046545920000</pproTicksIn>
						<pproTicksOut>3332689920000</pproTicksOut>
						<file id="file-115"/>
						<sourcetrack>
							<mediatype>audio</mediatype>
							<trackindex>2</trackindex>
						</sourcetrack>
							<filter>
								<effect>
									<name>Audio Levels</name>
									<effectid>audiolevels</effectid>
									<effectcategory>audiolevels</effectcategory>
									<effecttype>audiolevels</effecttype>
									<mediatype>audio</mediatype>
									<parameter authoringApp="PremierePro">
										<parameterid>level</parameterid>
										<name>Level</name>
										<valuemin>0</valuemin>
										<valuemax>3.98109</valuemax>
										<value>0.28117</value>
									</parameter>
								</effect>
							</filter>
						<link>
							<linkclipref>clipitem-2535</linkclipref>
							<mediatype>audio</mediatype>
							<trackindex>17</trackindex>
							<clipindex>218</clipindex>
							<groupindex>1</groupindex>
						</link>
						<link>
							<linkclipref>clipitem-2705</linkclipref>
							<mediatype>audio</mediatype>
							<trackindex>18</trackindex>
							<clipindex>211</clipindex>
							<groupindex>1</groupindex>
						</link>
						<logginginfo>
							<description></description>
							<scene></scene>
							<shottake></shottake>
							<lognote></lognote>
						</logginginfo>
						<labels>
							<label2>Caribbean</label2>
						</labels>
					</clipitem>
					<clipitem id="clipitem-2706" premiereChannelType="stereo">
						<masterclipid>masterclip-119</masterclipid>
						<name>Apollo_DIN_47_4__Place-Your-Bets-__Alexander-Seth-Weinstein-Shenandi.mp3</name>
						<enabled>TRUE</enabled>
						<duration>813</duration>
						<rate>
							<timebase>25</timebase>
							<ntsc>FALSE</ntsc>
						</rate>
						<start>52084</start>
						<end>52569</end>
						<in>328</in>
						<out>813</out>
						<pproTicksIn>3332689920000</pproTicksIn>
						<pproTicksOut>8260600320000</pproTicksOut>
						<file id="file-115"/>
						<sourcetrack>
							<mediatype>audio</mediatype>
							<trackindex>2</trackindex>
						</sourcetrack>
							<filter>
								<effect>
									<name>Audio Levels</name>
									<effectid>audiolevels</effectid>
									<effectcategory>audiolevels</effectcategory>
									<effecttype>audiolevels</effecttype>
									<mediatype>audio</mediatype>
									<parameter authoringApp="PremierePro">
										<parameterid>level</parameterid>
										<name>Level</name>
										<valuemin>0</valuemin>
										<valuemax>3.98109</valuemax>
										<value>0.28117</value>
									</parameter>
								</effect>
							</filter>
						<link>
							<linkclipref>clipitem-2536</linkclipref>
							<mediatype>audio</mediatype>
							<trackindex>17</trackindex>
							<clipindex>219</clipindex>
							<groupindex>1</groupindex>
						</link>
						<link>
							<linkclipref>clipitem-2706</linkclipref>
							<mediatype>audio</mediatype>
							<trackindex>18</trackindex>
							<clipindex>212</clipindex>
							<groupindex>1</groupindex>
						</link>
						<logginginfo>
							<description></description>
							<scene></scene>
							<shottake></shottake>
							<lognote></lognote>
						</logginginfo>
						<labels>
							<label2>Caribbean</label2>
						</labels>
					</clipitem>
					<clipitem id="clipitem-2707" premiereChannelType="stereo">
						<masterclipid>masterclip-112</masterclipid>
						<name>Latter uryddig med litt applaus 9sek.wav</name>
						<enabled>TRUE</enabled>
						<duration>234</duration>
						<rate>
							<timebase>25</timebase>
							<ntsc>FALSE</ntsc>
						</rate>
						<start>53434</start>
						<end>53659</end>
						<in>9</in>
						<out>234</out>
						<pproTicksIn>91445760000</pproTicksIn>
						<pproTicksOut>2377589760000</pproTicksOut>
						<file id="file-108"/>
						<sourcetrack>
							<mediatype>audio</mediatype>
							<trackindex>2</trackindex>
						</sourcetrack>
							<filter>
								<effect>
									<name>Audio Levels</name>
									<effectid>audiolevels</effectid>
									<effectcategory>audiolevels</effectcategory>
									<effecttype>audiolevels</effecttype>
									<mediatype>audio</mediatype>
									<parameter authoringApp="PremierePro">
										<parameterid>level</parameterid>
										<name>Level</name>
										<valuemin>0</valuemin>
										<valuemax>3.98109</valuemax>
										<value>1.17113</value>
									</parameter>
								</effect>
							</filter>
						<link>
							<linkclipref>clipitem-2537</linkclipref>
							<mediatype>audio</mediatype>
							<trackindex>17</trackindex>
							<clipindex>220</clipindex>
							<groupindex>1</groupindex>
						</link>
						<link>
							<linkclipref>clipitem-2707</linkclipref>
							<mediatype>audio</mediatype>
							<trackindex>18</trackindex>
							<clipindex>213</clipindex>
							<groupindex>1</groupindex>
						</link>
						<logginginfo>
							<description></description>
							<scene></scene>
							<shottake></shottake>
							<lognote></lognote>
						</logginginfo>
						<labels>
							<label2>Caribbean</label2>
						</labels>
					</clipitem>
					<clipitem id="clipitem-2708" premiereChannelType="stereo">
						<masterclipid>masterclip-119</masterclipid>
						<name>Apollo_DIN_47_4__Place-Your-Bets-__Alexander-Seth-Weinstein-Shenandi.mp3</name>
						<enabled>TRUE</enabled>
						<duration>813</duration>
						<rate>
							<timebase>25</timebase>
							<ntsc>FALSE</ntsc>
						</rate>
						<start>53841</start>
						<end>54169</end>
						<in>0</in>
						<out>328</out>
						<pproTicksIn>0</pproTicksIn>
						<pproTicksOut>3332689920000</pproTicksOut>
						<file id="file-115"/>
						<sourcetrack>
							<mediatype>audio</mediatype>
							<trackindex>2</trackindex>
						</sourcetrack>
							<filter>
								<effect>
									<name>Audio Levels</name>
									<effectid>audiolevels</effectid>
									<effectcategory>audiolevels</effectcategory>
									<effecttype>audiolevels</effecttype>
									<mediatype>audio</mediatype>
									<parameter authoringApp="PremierePro">
										<parameterid>level</parameterid>
										<name>Level</name>
										<valuemin>0</valuemin>
										<valuemax>3.98109</valuemax>
										<value>0.28117</value>
									</parameter>
								</effect>
							</filter>
						<link>
							<linkclipref>clipitem-2538</linkclipref>
							<mediatype>audio</mediatype>
							<trackindex>17</trackindex>
							<clipindex>221</clipindex>
							<groupindex>1</groupindex>
						</link>
						<link>
							<linkclipref>clipitem-2708</linkclipref>
							<mediatype>audio</mediatype>
							<trackindex>18</trackindex>
							<clipindex>214</clipindex>
							<groupindex>1</groupindex>
						</link>
						<logginginfo>
							<description></description>
							<scene></scene>
							<shottake></shottake>
							<lognote></lognote>
						</logginginfo>
						<labels>
							<label2>Caribbean</label2>
						</labels>
					</clipitem>
					<clipitem id="clipitem-2709" premiereChannelType="stereo">
						<masterclipid>masterclip-119</masterclipid>
						<name>Apollo_DIN_47_4__Place-Your-Bets-__Alexander-Seth-Weinstein-Shenandi.mp3</name>
						<enabled>TRUE</enabled>
						<duration>813</duration>
						<rate>
							<timebase>25</timebase>
							<ntsc>FALSE</ntsc>
						</rate>
						<start>54169</start>
						<end>54293</end>
						<in>103</in>
						<out>227</out>
						<pproTicksIn>1046545920000</pproTicksIn>
						<pproTicksOut>2306465280000</pproTicksOut>
						<file id="file-115"/>
						<sourcetrack>
							<mediatype>audio</mediatype>
							<trackindex>2</trackindex>
						</sourcetrack>
							<filter>
								<effect>
									<name>Audio Levels</name>
									<effectid>audiolevels</effectid>
									<effectcategory>audiolevels</effectcategory>
									<effecttype>audiolevels</effecttype>
									<mediatype>audio</mediatype>
									<parameter authoringApp="PremierePro">
										<parameterid>level</parameterid>
										<name>Level</name>
										<valuemin>0</valuemin>
										<valuemax>3.98109</valuemax>
										<value>0.28117</value>
									</parameter>
								</effect>
							</filter>
						<link>
							<linkclipref>clipitem-2539</linkclipref>
							<mediatype>audio</mediatype>
							<trackindex>17</trackindex>
							<clipindex>222</clipindex>
							<groupindex>1</groupindex>
						</link>
						<link>
							<linkclipref>clipitem-2709</linkclipref>
							<mediatype>audio</mediatype>
							<trackindex>18</trackindex>
							<clipindex>215</clipindex>
							<groupindex>1</groupindex>
						</link>
						<logginginfo>
							<description></description>
							<scene></scene>
							<shottake></shottake>
							<lognote></lognote>
						</logginginfo>
						<labels>
							<label2>Caribbean</label2>
						</labels>
					</clipitem>
					<clipitem id="clipitem-2710" premiereChannelType="stereo">
						<masterclipid>masterclip-119</masterclipid>
						<name>Apollo_DIN_47_4__Place-Your-Bets-__Alexander-Seth-Weinstein-Shenandi.mp3</name>
						<enabled>TRUE</enabled>
						<duration>813</duration>
						<rate>
							<timebase>25</timebase>
							<ntsc>FALSE</ntsc>
						</rate>
						<start>54293</start>
						<end>54343</end>
						<in>227</in>
						<out>277</out>
						<pproTicksIn>2306465280000</pproTicksIn>
						<pproTicksOut>2814497280000</pproTicksOut>
						<file id="file-115"/>
						<sourcetrack>
							<mediatype>audio</mediatype>
							<trackindex>2</trackindex>
						</sourcetrack>
							<filter>
								<effect>
									<name>Audio Levels</name>
									<effectid>audiolevels</effectid>
									<effectcategory>audiolevels</effectcategory>
									<effecttype>audiolevels</effecttype>
									<mediatype>audio</mediatype>
									<parameter authoringApp="PremierePro">
										<parameterid>level</parameterid>
										<name>Level</name>
										<valuemin>0</valuemin>
										<valuemax>3.98109</valuemax>
										<value>0.28117</value>
									</parameter>
								</effect>
							</filter>
						<link>
							<linkclipref>clipitem-2540</linkclipref>
							<mediatype>audio</mediatype>
							<trackindex>17</trackindex>
							<clipindex>223</clipindex>
							<groupindex>1</groupindex>
						</link>
						<link>
							<linkclipref>clipitem-2710</linkclipref>
							<mediatype>audio</mediatype>
							<trackindex>18</trackindex>
							<clipindex>216</clipindex>
							<groupindex>1</groupindex>
						</link>
						<logginginfo>
							<description></description>
							<scene></scene>
							<shottake></shottake>
							<lognote></lognote>
						</logginginfo>
						<labels>
							<label2>Caribbean</label2>
						</labels>
					</clipitem>
					<clipitem id="clipitem-2711" premiereChannelType="stereo">
						<masterclipid>masterclip-119</masterclipid>
						<name>Apollo_DIN_47_4__Place-Your-Bets-__Alexander-Seth-Weinstein-Shenandi.mp3</name>
						<enabled>TRUE</enabled>
						<duration>813</duration>
						<rate>
							<timebase>25</timebase>
							<ntsc>FALSE</ntsc>
						</rate>
						<start>54343</start>
						<end>54444</end>
						<in>227</in>
						<out>328</out>
						<pproTicksIn>2306465280000</pproTicksIn>
						<pproTicksOut>3332689920000</pproTicksOut>
						<file id="file-115"/>
						<sourcetrack>
							<mediatype>audio</mediatype>
							<trackindex>2</trackindex>
						</sourcetrack>
							<filter>
								<effect>
									<name>Audio Levels</name>
									<effectid>audiolevels</effectid>
									<effectcategory>audiolevels</effectcategory>
									<effecttype>audiolevels</effecttype>
									<mediatype>audio</mediatype>
									<parameter authoringApp="PremierePro">
										<parameterid>level</parameterid>
										<name>Level</name>
										<valuemin>0</valuemin>
										<valuemax>3.98109</valuemax>
										<value>0.28117</value>
									</parameter>
								</effect>
							</filter>
						<link>
							<linkclipref>clipitem-2541</linkclipref>
							<mediatype>audio</mediatype>
							<trackindex>17</trackindex>
							<clipindex>224</clipindex>
							<groupindex>1</groupindex>
						</link>
						<link>
							<linkclipref>clipitem-2711</linkclipref>
							<mediatype>audio</mediatype>
							<trackindex>18</trackindex>
							<clipindex>217</clipindex>
							<groupindex>1</groupindex>
						</link>
						<logginginfo>
							<description></description>
							<scene></scene>
							<shottake></shottake>
							<lognote></lognote>
						</logginginfo>
						<labels>
							<label2>Caribbean</label2>
						</labels>
					</clipitem>
					<clipitem id="clipitem-2712" premiereChannelType="stereo">
						<masterclipid>masterclip-119</masterclipid>
						<name>Apollo_DIN_47_4__Place-Your-Bets-__Alexander-Seth-Weinstein-Shenandi.mp3</name>
						<enabled>TRUE</enabled>
						<duration>813</duration>
						<rate>
							<timebase>25</timebase>
							<ntsc>FALSE</ntsc>
						</rate>
						<start>54444</start>
						<end>54669</end>
						<in>103</in>
						<out>328</out>
						<pproTicksIn>1046545920000</pproTicksIn>
						<pproTicksOut>3332689920000</pproTicksOut>
						<file id="file-115"/>
						<sourcetrack>
							<mediatype>audio</mediatype>
							<trackindex>2</trackindex>
						</sourcetrack>
							<filter>
								<effect>
									<name>Audio Levels</name>
									<effectid>audiolevels</effectid>
									<effectcategory>audiolevels</effectcategory>
									<effecttype>audiolevels</effecttype>
									<mediatype>audio</mediatype>
									<parameter authoringApp="PremierePro">
										<parameterid>level</parameterid>
										<name>Level</name>
										<valuemin>0</valuemin>
										<valuemax>3.98109</valuemax>
										<value>0.28117</value>
									</parameter>
								</effect>
							</filter>
						<link>
							<linkclipref>clipitem-2542</linkclipref>
							<mediatype>audio</mediatype>
							<trackindex>17</trackindex>
							<clipindex>225</clipindex>
							<groupindex>1</groupindex>
						</link>
						<link>
							<linkclipref>clipitem-2712</linkclipref>
							<mediatype>audio</mediatype>
							<trackindex>18</trackindex>
							<clipindex>218</clipindex>
							<groupindex>1</groupindex>
						</link>
						<logginginfo>
							<description></description>
							<scene></scene>
							<shottake></shottake>
							<lognote></lognote>
						</logginginfo>
						<labels>
							<label2>Caribbean</label2>
						</labels>
					</clipitem>
					<clipitem id="clipitem-2713" premiereChannelType="stereo">
						<masterclipid>masterclip-119</masterclipid>
						<name>Apollo_DIN_47_4__Place-Your-Bets-__Alexander-Seth-Weinstein-Shenandi.mp3</name>
						<enabled>TRUE</enabled>
						<duration>813</duration>
						<rate>
							<timebase>25</timebase>
							<ntsc>FALSE</ntsc>
						</rate>
						<start>54669</start>
						<end>54894</end>
						<in>103</in>
						<out>328</out>
						<pproTicksIn>1046545920000</pproTicksIn>
						<pproTicksOut>3332689920000</pproTicksOut>
						<file id="file-115"/>
						<sourcetrack>
							<mediatype>audio</mediatype>
							<trackindex>2</trackindex>
						</sourcetrack>
							<filter>
								<effect>
									<name>Audio Levels</name>
									<effectid>audiolevels</effectid>
									<effectcategory>audiolevels</effectcategory>
									<effecttype>audiolevels</effecttype>
									<mediatype>audio</mediatype>
									<parameter authoringApp="PremierePro">
										<parameterid>level</parameterid>
										<name>Level</name>
										<valuemin>0</valuemin>
										<valuemax>3.98109</valuemax>
										<value>0.28117</value>
									</parameter>
								</effect>
							</filter>
						<link>
							<linkclipref>clipitem-2543</linkclipref>
							<mediatype>audio</mediatype>
							<trackindex>17</trackindex>
							<clipindex>226</clipindex>
							<groupindex>1</groupindex>
						</link>
						<link>
							<linkclipref>clipitem-2713</linkclipref>
							<mediatype>audio</mediatype>
							<trackindex>18</trackindex>
							<clipindex>219</clipindex>
							<groupindex>1</groupindex>
						</link>
						<logginginfo>
							<description></description>
							<scene></scene>
							<shottake></shottake>
							<lognote></lognote>
						</logginginfo>
						<labels>
							<label2>Caribbean</label2>
						</labels>
					</clipitem>
					<clipitem id="clipitem-2714" premiereChannelType="stereo">
						<masterclipid>masterclip-119</masterclipid>
						<name>Apollo_DIN_47_4__Place-Your-Bets-__Alexander-Seth-Weinstein-Shenandi.mp3</name>
						<enabled>TRUE</enabled>
						<duration>813</duration>
						<rate>
							<timebase>25</timebase>
							<ntsc>FALSE</ntsc>
						</rate>
						<start>54894</start>
						<end>55379</end>
						<in>328</in>
						<out>813</out>
						<pproTicksIn>3332689920000</pproTicksIn>
						<pproTicksOut>8260600320000</pproTicksOut>
						<file id="file-115"/>
						<sourcetrack>
							<mediatype>audio</mediatype>
							<trackindex>2</trackindex>
						</sourcetrack>
							<filter>
								<effect>
									<name>Audio Levels</name>
									<effectid>audiolevels</effectid>
									<effectcategory>audiolevels</effectcategory>
									<effecttype>audiolevels</effecttype>
									<mediatype>audio</mediatype>
									<parameter authoringApp="PremierePro">
										<parameterid>level</parameterid>
										<name>Level</name>
										<valuemin>0</valuemin>
										<valuemax>3.98109</valuemax>
										<value>0.28117</value>
									</parameter>
								</effect>
							</filter>
						<link>
							<linkclipref>clipitem-2544</linkclipref>
							<mediatype>audio</mediatype>
							<trackindex>17</trackindex>
							<clipindex>227</clipindex>
							<groupindex>1</groupindex>
						</link>
						<link>
							<linkclipref>clipitem-2714</linkclipref>
							<mediatype>audio</mediatype>
							<trackindex>18</trackindex>
							<clipindex>220</clipindex>
							<groupindex>1</groupindex>
						</link>
						<logginginfo>
							<description></description>
							<scene></scene>
							<shottake></shottake>
							<lognote></lognote>
						</logginginfo>
						<labels>
							<label2>Caribbean</label2>
						</labels>
					</clipitem>
					<clipitem id="clipitem-2715" premiereChannelType="stereo">
						<masterclipid>masterclip-120</masterclipid>
						<name>Applaus 7 sek.wav</name>
						<enabled>TRUE</enabled>
						<duration>182</duration>
						<rate>
							<timebase>25</timebase>
							<ntsc>FALSE</ntsc>
						</rate>
						<start>55905</start>
						<end>56087</end>
						<in>0</in>
						<out>182</out>
						<pproTicksIn>0</pproTicksIn>
						<pproTicksOut>1849236480000</pproTicksOut>
						<file id="file-116"/>
						<sourcetrack>
							<mediatype>audio</mediatype>
							<trackindex>2</trackindex>
						</sourcetrack>
						<link>
							<linkclipref>clipitem-2545</linkclipref>
							<mediatype>audio</mediatype>
							<trackindex>17</trackindex>
							<clipindex>228</clipindex>
							<groupindex>1</groupindex>
						</link>
						<link>
							<linkclipref>clipitem-2715</linkclipref>
							<mediatype>audio</mediatype>
							<trackindex>18</trackindex>
							<clipindex>221</clipindex>
							<groupindex>1</groupindex>
						</link>
						<logginginfo>
							<description></description>
							<scene></scene>
							<shottake></shottake>
							<lognote></lognote>
						</logginginfo>
						<labels>
							<label2>Caribbean</label2>
						</labels>
					</clipitem>
					<clipitem id="clipitem-2716" premiereChannelType="stereo">
						<masterclipid>masterclip-121</masterclipid>
						<name>Latter, dempet kort.wav</name>
						<enabled>TRUE</enabled>
						<duration>67</duration>
						<rate>
							<timebase>25</timebase>
							<ntsc>FALSE</ntsc>
						</rate>
						<start>56194</start>
						<end>56261</end>
						<in>0</in>
						<out>67</out>
						<pproTicksIn>0</pproTicksIn>
						<pproTicksOut>680762880000</pproTicksOut>
						<file id="file-117"/>
						<sourcetrack>
							<mediatype>audio</mediatype>
							<trackindex>2</trackindex>
						</sourcetrack>
						<link>
							<linkclipref>clipitem-2546</linkclipref>
							<mediatype>audio</mediatype>
							<trackindex>17</trackindex>
							<clipindex>229</clipindex>
							<groupindex>1</groupindex>
						</link>
						<link>
							<linkclipref>clipitem-2716</linkclipref>
							<mediatype>audio</mediatype>
							<trackindex>18</trackindex>
							<clipindex>222</clipindex>
							<groupindex>1</groupindex>
						</link>
						<logginginfo>
							<description></description>
							<scene></scene>
							<shottake></shottake>
							<lognote></lognote>
						</logginginfo>
						<labels>
							<label2>Caribbean</label2>
						</labels>
					</clipitem>
					<clipitem id="clipitem-2717" premiereChannelType="stereo">
						<masterclipid>masterclip-122</masterclipid>
						<name>NONRO320998CS0001 Tsjeriåu.wav</name>
						<enabled>TRUE</enabled>
						<duration>5634</duration>
						<rate>
							<timebase>25</timebase>
							<ntsc>FALSE</ntsc>
						</rate>
						<start>56830</start>
						<end>-1</end>
						<in>3387</in>
						<out>4118</out>
						<pproTicksIn>34414087680000</pproTicksIn>
						<pproTicksOut>41841515520000</pproTicksOut>
						<file id="file-118"/>
						<sourcetrack>
							<mediatype>audio</mediatype>
							<trackindex>2</trackindex>
						</sourcetrack>
							<filter>
								<effect>
									<name>Audio Levels</name>
									<effectid>audiolevels</effectid>
									<effectcategory>audiolevels</effectcategory>
									<effecttype>audiolevels</effecttype>
									<mediatype>audio</mediatype>
									<parameter authoringApp="PremierePro">
										<parameterid>level</parameterid>
										<name>Level</name>
										<valuemin>0</valuemin>
										<valuemax>3.98109</valuemax>
										<value>0.0394648</value>
										<keyframe>
											<when>3387</when>
											<value>0</value>
										</keyframe>
										<keyframe>
											<when>3507</when>
											<value>0.0527033</value>
										</keyframe>
										<keyframe>
											<when>4599</when>
											<value>0.0527033</value>
										</keyframe>
										<keyframe>
											<when>4679</when>
											<value>0.0394648</value>
										</keyframe>
									</parameter>
								</effect>
							</filter>
						<link>
							<linkclipref>clipitem-2547</linkclipref>
							<mediatype>audio</mediatype>
							<trackindex>17</trackindex>
							<clipindex>230</clipindex>
							<groupindex>1</groupindex>
						</link>
						<link>
							<linkclipref>clipitem-2717</linkclipref>
							<mediatype>audio</mediatype>
							<trackindex>18</trackindex>
							<clipindex>223</clipindex>
							<groupindex>1</groupindex>
						</link>
						<logginginfo>
							<description></description>
							<scene></scene>
							<shottake></shottake>
							<lognote>CD Track 1 archiveNo[320998016]</lognote>
						</logginginfo>
						<labels>
							<label2>Caribbean</label2>
						</labels>
					</clipitem>
					<transitionitem>
						<start>57548</start>
						<end>57561</end>
						<alignment>center</alignment>
						<cutPointTicks>60963840000</cutPointTicks>
						<rate>
							<timebase>25</timebase>
							<ntsc>FALSE</ntsc>
						</rate>
						<effect>
							<name>Cross Fade (+3dB)</name>
							<effectid>KGAudioTransCrossFade3dB</effectid>
							<effecttype>transition</effecttype>
							<mediatype>audio</mediatype>
							<wipecode>0</wipecode>
							<wipeaccuracy>100</wipeaccuracy>
							<startratio>0</startratio>
							<endratio>1</endratio>
							<reverse>FALSE</reverse>
						</effect>
					</transitionitem>
					<clipitem id="clipitem-2718" premiereChannelType="stereo">
						<masterclipid>masterclip-122</masterclipid>
						<name>NONRO320998CS0001 Tsjeriåu.wav</name>
						<enabled>TRUE</enabled>
						<duration>5634</duration>
						<rate>
							<timebase>25</timebase>
							<ntsc>FALSE</ntsc>
						</rate>
						<start>-1</start>
						<end>58180</end>
						<in>4105</in>
						<out>4737</out>
						<pproTicksIn>41709427200000</pproTicksIn>
						<pproTicksOut>48130951680000</pproTicksOut>
						<file id="file-118"/>
						<sourcetrack>
							<mediatype>audio</mediatype>
							<trackindex>2</trackindex>
						</sourcetrack>
							<filter>
								<effect>
									<name>Audio Levels</name>
									<effectid>audiolevels</effectid>
									<effectcategory>audiolevels</effectcategory>
									<effecttype>audiolevels</effecttype>
									<mediatype>audio</mediatype>
									<parameter authoringApp="PremierePro">
										<parameterid>level</parameterid>
										<name>Level</name>
										<valuemin>0</valuemin>
										<valuemax>3.98109</valuemax>
										<value>0.520503</value>
										<keyframe>
											<when>4599</when>
											<value>0.209816</value>
										</keyframe>
										<keyframe>
											<when>4688</when>
											<value>0.520503</value>
										</keyframe>
									</parameter>
								</effect>
							</filter>
						<link>
							<linkclipref>clipitem-2548</linkclipref>
							<mediatype>audio</mediatype>
							<trackindex>17</trackindex>
							<clipindex>232</clipindex>
							<groupindex>1</groupindex>
						</link>
						<link>
							<linkclipref>clipitem-2718</linkclipref>
							<mediatype>audio</mediatype>
							<trackindex>18</trackindex>
							<clipindex>225</clipindex>
							<groupindex>1</groupindex>
						</link>
						<logginginfo>
							<description></description>
							<scene></scene>
							<shottake></shottake>
							<lognote>CD Track 1 archiveNo[320998016]</lognote>
						</logginginfo>
						<labels>
							<label2>Caribbean</label2>
						</labels>
					</clipitem>
					<enabled>TRUE</enabled>
					<locked>FALSE</locked>
					<outputchannelindex>2</outputchannelindex>
				</track>
				<track TL.SQTrackAudioKeyframeStyle="0" TL.SQTrackShy="0" TL.SQTrackExpandedHeight="140" TL.SQTrackExpanded="1" MZ.TrackTargeted="1" PannerCurrentValue="0.5" PannerIsInverted="true" PannerStartKeyframe="-91445760000000000,0.5,0,0,0,0,0,0" PannerName="Balance" currentExplodedTrackIndex="0" totalExplodedTrackCount="2" premiereTrackType="Stereo">
					<clipitem id="clipitem-2719" premiereChannelType="stereo">
						<masterclipid>masterclip-123</masterclipid>
						<name>90MONAGRUDT.mov</name>
						<enabled>TRUE</enabled>
						<duration>227</duration>
						<rate>
							<timebase>25</timebase>
							<ntsc>FALSE</ntsc>
						</rate>
						<start>107</start>
						<end>142</end>
						<in>62</in>
						<out>97</out>
						<pproTicksIn>629959680000</pproTicksIn>
						<pproTicksOut>985582080000</pproTicksOut>
						<pixelaspectratio>square</pixelaspectratio>
						<anamorphic>FALSE</anamorphic>
						<file id="file-119">
							<name>90MONAGRUDT.mov</name>
							<pathurl>file://localhost/Volumes/Brakka/AdobeLager/QUIZ%20-%20brakka/Grafikk/Mograf/Vignett/90MONAGRUDT.mov</pathurl>
							<rate>
								<timebase>25</timebase>
								<ntsc>FALSE</ntsc>
							</rate>
							<duration>227</duration>
							<timecode>
								<rate>
									<timebase>25</timebase>
									<ntsc>FALSE</ntsc>
								</rate>
								<string>00:01:16:00</string>
								<frame>1900</frame>
								<displayformat>NDF</displayformat>
								<reel>
									<name></name>
								</reel>
							</timecode>
							<media>
								<video>
									<samplecharacteristics>
										<rate>
											<timebase>25</timebase>
											<ntsc>FALSE</ntsc>
										</rate>
										<width>1920</width>
										<height>1080</height>
										<anamorphic>FALSE</anamorphic>
										<pixelaspectratio>square</pixelaspectratio>
										<fielddominance>upper</fielddominance>
									</samplecharacteristics>
								</video>
								<audio>
									<samplecharacteristics>
										<depth>16</depth>
										<samplerate>48000</samplerate>
									</samplecharacteristics>
									<channelcount>2</channelcount>
								</audio>
							</media>
						</file>
						<sourcetrack>
							<mediatype>audio</mediatype>
							<trackindex>1</trackindex>
						</sourcetrack>
							<filter>
								<effect>
									<name>Audio Levels</name>
									<effectid>audiolevels</effectid>
									<effectcategory>audiolevels</effectcategory>
									<effecttype>audiolevels</effecttype>
									<mediatype>audio</mediatype>
									<parameter authoringApp="PremierePro">
										<parameterid>level</parameterid>
										<name>Level</name>
										<valuemin>0</valuemin>
										<valuemax>3.98109</valuemax>
										<value>0.499999</value>
									</parameter>
								</effect>
							</filter>
						<link>
							<linkclipref>clipitem-2719</linkclipref>
							<mediatype>audio</mediatype>
							<trackindex>19</trackindex>
							<clipindex>1</clipindex>
							<groupindex>1</groupindex>
						</link>
						<link>
							<linkclipref>clipitem-2820</linkclipref>
							<mediatype>audio</mediatype>
							<trackindex>20</trackindex>
							<clipindex>1</clipindex>
							<groupindex>1</groupindex>
						</link>
						<logginginfo>
							<description></description>
							<scene></scene>
							<shottake></shottake>
							<lognote></lognote>
						</logginginfo>
						<labels>
							<label2>Iris</label2>
						</labels>
					</clipitem>
					<clipitem id="clipitem-2720" premiereChannelType="stereo">
						<masterclipid>masterclip-123</masterclipid>
						<name>90MONAGRUDT.mov</name>
						<enabled>TRUE</enabled>
						<duration>227</duration>
						<rate>
							<timebase>25</timebase>
							<ntsc>FALSE</ntsc>
						</rate>
						<start>142</start>
						<end>169</end>
						<in>118</in>
						<out>145</out>
						<pproTicksIn>1198955520000</pproTicksIn>
						<pproTicksOut>1473292800000</pproTicksOut>
						<file id="file-119"/>
						<sourcetrack>
							<mediatype>audio</mediatype>
							<trackindex>1</trackindex>
						</sourcetrack>
							<filter>
								<effect>
									<name>Audio Levels</name>
									<effectid>audiolevels</effectid>
									<effectcategory>audiolevels</effectcategory>
									<effecttype>audiolevels</effecttype>
									<mediatype>audio</mediatype>
									<parameter authoringApp="PremierePro">
										<parameterid>level</parameterid>
										<name>Level</name>
										<valuemin>0</valuemin>
										<valuemax>3.98109</valuemax>
										<value>0.629462</value>
									</parameter>
								</effect>
							</filter>
						<link>
							<linkclipref>clipitem-2720</linkclipref>
							<mediatype>audio</mediatype>
							<trackindex>19</trackindex>
							<clipindex>2</clipindex>
							<groupindex>1</groupindex>
						</link>
						<link>
							<linkclipref>clipitem-2821</linkclipref>
							<mediatype>audio</mediatype>
							<trackindex>20</trackindex>
							<clipindex>2</clipindex>
							<groupindex>1</groupindex>
						</link>
						<logginginfo>
							<description></description>
							<scene></scene>
							<shottake></shottake>
							<lognote></lognote>
						</logginginfo>
						<labels>
							<label2>Iris</label2>
						</labels>
					</clipitem>
					<clipitem id="clipitem-2721" premiereChannelType="stereo">
						<masterclipid>masterclip-124</masterclipid>
						<name>Applaus høflig men med plystring.wav</name>
						<enabled>TRUE</enabled>
						<duration>141</duration>
						<rate>
							<timebase>25</timebase>
							<ntsc>FALSE</ntsc>
						</rate>
						<start>335</start>
						<end>-1</end>
						<in>0</in>
						<out>142</out>
						<pproTicksIn>0</pproTicksIn>
						<pproTicksOut>1442810880000</pproTicksOut>
						<file id="file-120">
							<name>Applaus høflig men med plystring.wav</name>
							<pathurl>file://localhost/Volumes/Brakka/AdobeLager/QUIZ%20-%20brakka/RA%cc%8aSTOFF%20LYD/Publikumsreaksjoner/Fra%201996/Applaus%20h%c3%b8flig%20men%20med%20plystring.wav</pathurl>
							<rate>
								<timebase>30</timebase>
								<ntsc>TRUE</ntsc>
							</rate>
							<duration>170</duration>
							<timecode>
								<rate>
									<timebase>30</timebase>
									<ntsc>TRUE</ntsc>
								</rate>
								<string>14;15;28;19</string>
								<frame>1538319</frame>
								<displayformat>DF</displayformat>
								<reel>
									<name></name>
								</reel>
							</timecode>
							<media>
								<audio>
									<samplecharacteristics>
										<depth>16</depth>
										<samplerate>48000</samplerate>
									</samplecharacteristics>
									<channelcount>2</channelcount>
								</audio>
							</media>
						</file>
						<sourcetrack>
							<mediatype>audio</mediatype>
							<trackindex>1</trackindex>
						</sourcetrack>
						<link>
							<linkclipref>clipitem-2721</linkclipref>
							<mediatype>audio</mediatype>
							<trackindex>19</trackindex>
							<clipindex>3</clipindex>
							<groupindex>1</groupindex>
						</link>
						<link>
							<linkclipref>clipitem-2822</linkclipref>
							<mediatype>audio</mediatype>
							<trackindex>20</trackindex>
							<clipindex>3</clipindex>
							<groupindex>1</groupindex>
						</link>
						<logginginfo>
							<description></description>
							<scene></scene>
							<shottake></shottake>
							<lognote></lognote>
						</logginginfo>
						<labels>
							<label2>Caribbean</label2>
						</labels>
					</clipitem>
					<transitionitem>
						<start>464</start>
						<end>477</end>
						<alignment>end-black</alignment>
						<cutPointTicks>132088320000</cutPointTicks>
						<rate>
							<timebase>25</timebase>
							<ntsc>FALSE</ntsc>
						</rate>
						<effect>
							<name>Cross Fade (+3dB)</name>
							<effectid>KGAudioTransCrossFade3dB</effectid>
							<effecttype>transition</effecttype>
							<mediatype>audio</mediatype>
							<wipecode>0</wipecode>
							<wipeaccuracy>100</wipeaccuracy>
							<startratio>0</startratio>
							<endratio>1</endratio>
							<reverse>FALSE</reverse>
						</effect>
					</transitionitem>
					<transitionitem>
						<start>1086</start>
						<end>1099</end>
						<alignment>start-black</alignment>
						<cutPointTicks>0</cutPointTicks>
						<rate>
							<timebase>25</timebase>
							<ntsc>FALSE</ntsc>
						</rate>
						<effect>
							<name>Cross Fade (+3dB)</name>
							<effectid>KGAudioTransCrossFade3dB</effectid>
							<effecttype>transition</effecttype>
							<mediatype>audio</mediatype>
							<wipecode>0</wipecode>
							<wipeaccuracy>100</wipeaccuracy>
							<startratio>0</startratio>
							<endratio>1</endratio>
							<reverse>FALSE</reverse>
						</effect>
					</transitionitem>
					<clipitem id="clipitem-2722" premiereChannelType="stereo">
						<masterclipid>masterclip-2</masterclipid>
						<name>obub05000303aa-p1-060416r.mxf</name>
						<enabled>TRUE</enabled>
						<duration>6466</duration>
						<rate>
							<timebase>25</timebase>
							<ntsc>FALSE</ntsc>
						</rate>
						<start>-1</start>
						<end>-1</end>
						<in>3109</in>
						<out>3311</out>
						<pproTicksIn>31589429760000</pproTicksIn>
						<pproTicksOut>33641879040000</pproTicksOut>
						<file id="file-1"/>
						<sourcetrack>
							<mediatype>audio</mediatype>
							<trackindex>1</trackindex>
						</sourcetrack>
							<filter>
								<effect>
									<name>Audio Levels</name>
									<effectid>audiolevels</effectid>
									<effectcategory>audiolevels</effectcategory>
									<effecttype>audiolevels</effecttype>
									<mediatype>audio</mediatype>
									<parameter authoringApp="PremierePro">
										<parameterid>level</parameterid>
										<name>Level</name>
										<valuemin>0</valuemin>
										<valuemax>3.98109</valuemax>
										<value>0.133866</value>
										<keyframe>
											<when>3101</when>
											<value>0.247023</value>
										</keyframe>
										<keyframe>
											<when>3153</when>
											<value>0.247023</value>
										</keyframe>
										<keyframe>
											<when>3164</when>
											<value>0.133866</value>
										</keyframe>
									</parameter>
								</effect>
							</filter>
						<link>
							<linkclipref>clipitem-2722</linkclipref>
							<mediatype>audio</mediatype>
							<trackindex>19</trackindex>
							<clipindex>6</clipindex>
							<groupindex>1</groupindex>
						</link>
						<link>
							<linkclipref>clipitem-2823</linkclipref>
							<mediatype>audio</mediatype>
							<trackindex>20</trackindex>
							<clipindex>6</clipindex>
							<groupindex>1</groupindex>
						</link>
						<logginginfo>
							<description></description>
							<scene></scene>
							<shottake></shottake>
							<lognote></lognote>
						</logginginfo>
						<labels>
							<label2>Iris</label2>
						</labels>
					</clipitem>
					<transitionitem>
						<start>1190</start>
						<end>1288</end>
						<alignment>end-black</alignment>
						<cutPointTicks>995742720000</cutPointTicks>
						<rate>
							<timebase>25</timebase>
							<ntsc>FALSE</ntsc>
						</rate>
						<effect>
							<name>Cross Fade (+3dB)</name>
							<effectid>KGAudioTransCrossFade3dB</effectid>
							<effecttype>transition</effecttype>
							<mediatype>audio</mediatype>
							<wipecode>0</wipecode>
							<wipeaccuracy>100</wipeaccuracy>
							<startratio>0</startratio>
							<endratio>1</endratio>
							<reverse>FALSE</reverse>
						</effect>
					</transitionitem>
					<clipitem id="clipitem-2723" premiereChannelType="mono">
						<masterclipid>masterclip-15</masterclipid>
						<name>digs672r.mxf</name>
						<enabled>TRUE</enabled>
						<duration>179350</duration>
						<rate>
							<timebase>25</timebase>
							<ntsc>FALSE</ntsc>
						</rate>
						<start>1288</start>
						<end>-1</end>
						<in>141178</in>
						<out>141252</out>
						<pproTicksIn>1434458833920000</pproTicksIn>
						<pproTicksOut>1435210721280000</pproTicksOut>
						<file id="file-12"/>
						<sourcetrack>
							<mediatype>audio</mediatype>
							<trackindex>4</trackindex>
						</sourcetrack>
							<filter>
								<effect>
									<name>Audio Levels</name>
									<effectid>audiolevels</effectid>
									<effectcategory>audiolevels</effectcategory>
									<effecttype>audiolevels</effecttype>
									<mediatype>audio</mediatype>
									<parameter authoringApp="PremierePro">
										<parameterid>level</parameterid>
										<name>Level</name>
										<valuemin>0</valuemin>
										<valuemax>3.98109</valuemax>
										<value>1.41254</value>
									</parameter>
								</effect>
							</filter>
						<logginginfo>
							<description></description>
							<scene></scene>
							<shottake></shottake>
							<lognote></lognote>
						</logginginfo>
						<labels>
							<label2>Iris</label2>
						</labels>
					</clipitem>
					<transitionitem>
						<start>1354</start>
						<end>1362</end>
						<alignment>center</alignment>
						<cutPointTicks>40642560000</cutPointTicks>
						<rate>
							<timebase>25</timebase>
							<ntsc>FALSE</ntsc>
						</rate>
						<effect>
							<name>Cross Fade (+3dB)</name>
							<effectid>KGAudioTransCrossFade3dB</effectid>
							<effecttype>transition</effecttype>
							<mediatype>audio</mediatype>
							<wipecode>0</wipecode>
							<wipeaccuracy>100</wipeaccuracy>
							<startratio>0</startratio>
							<endratio>1</endratio>
							<reverse>FALSE</reverse>
						</effect>
					</transitionitem>
					<clipitem id="clipitem-2724" premiereChannelType="mono">
						<masterclipid>masterclip-15</masterclipid>
						<name>digs672r.mxf</name>
						<enabled>TRUE</enabled>
						<duration>179350</duration>
						<rate>
							<timebase>25</timebase>
							<ntsc>FALSE</ntsc>
						</rate>
						<start>-1</start>
						<end>-1</end>
						<in>141528</in>
						<out>141610</out>
						<pproTicksIn>1438015057920000</pproTicksIn>
						<pproTicksOut>1438848230400000</pproTicksOut>
						<file id="file-12"/>
						<sourcetrack>
							<mediatype>audio</mediatype>
							<trackindex>4</trackindex>
						</sourcetrack>
							<filter>
								<effect>
									<name>Audio Levels</name>
									<effectid>audiolevels</effectid>
									<effectcategory>audiolevels</effectcategory>
									<effecttype>audiolevels</effecttype>
									<mediatype>audio</mediatype>
									<parameter authoringApp="PremierePro">
										<parameterid>level</parameterid>
										<name>Level</name>
										<valuemin>0</valuemin>
										<valuemax>3.98109</valuemax>
										<value>0.99763</value>
									</parameter>
								</effect>
							</filter>
						<logginginfo>
							<description></description>
							<scene></scene>
							<shottake></shottake>
							<lognote></lognote>
						</logginginfo>
						<labels>
							<label2>Iris</label2>
						</labels>
					</clipitem>
					<transitionitem>
						<start>1428</start>
						<end>1436</end>
						<alignment>center</alignment>
						<cutPointTicks>40642560000</cutPointTicks>
						<rate>
							<timebase>25</timebase>
							<ntsc>FALSE</ntsc>
						</rate>
						<effect>
							<name>Cross Fade (+3dB)</name>
							<effectid>KGAudioTransCrossFade3dB</effectid>
							<effecttype>transition</effecttype>
							<mediatype>audio</mediatype>
							<wipecode>0</wipecode>
							<wipeaccuracy>100</wipeaccuracy>
							<startratio>0</startratio>
							<endratio>1</endratio>
							<reverse>FALSE</reverse>
						</effect>
					</transitionitem>
					<clipitem id="clipitem-2725" premiereChannelType="mono">
						<masterclipid>masterclip-15</masterclipid>
						<name>digs672r.mxf</name>
						<enabled>TRUE</enabled>
						<duration>179350</duration>
						<rate>
							<timebase>25</timebase>
							<ntsc>FALSE</ntsc>
						</rate>
						<start>-1</start>
						<end>1522</end>
						<in>141829</in>
						<out>141923</out>
						<pproTicksIn>1441073410560000</pproTicksIn>
						<pproTicksOut>1442028510720000</pproTicksOut>
						<file id="file-12"/>
						<sourcetrack>
							<mediatype>audio</mediatype>
							<trackindex>4</trackindex>
						</sourcetrack>
							<filter>
								<effect>
									<name>Audio Levels</name>
									<effectid>audiolevels</effectid>
									<effectcategory>audiolevels</effectcategory>
									<effecttype>audiolevels</effecttype>
									<mediatype>audio</mediatype>
									<parameter authoringApp="PremierePro">
										<parameterid>level</parameterid>
										<name>Level</name>
										<valuemin>0</valuemin>
										<valuemax>3.98109</valuemax>
										<value>1.49645</value>
										<keyframe>
											<when>141860</when>
											<value>1.49645</value>
										</keyframe>
										<keyframe>
											<when>141918</when>
											<value>0.332543</value>
										</keyframe>
									</parameter>
								</effect>
							</filter>
						<logginginfo>
							<description></description>
							<scene></scene>
							<shottake></shottake>
							<lognote></lognote>
						</logginginfo>
						<labels>
							<label2>Iris</label2>
						</labels>
					</clipitem>
					<clipitem id="clipitem-2726" premiereChannelType="stereo">
						<masterclipid>masterclip-10</masterclipid>
						<name>NNFA80750005AA.mxf</name>
						<enabled>FALSE</enabled>
						<duration>81126</duration>
						<rate>
							<timebase>25</timebase>
							<ntsc>FALSE</ntsc>
						</rate>
						<start>1680</start>
						<end>-1</end>
						<in>19140</in>
						<out>19238</out>
						<pproTicksIn>194474649600000</pproTicksIn>
						<pproTicksOut>195470392320000</pproTicksOut>
						<file id="file-8"/>
						<sourcetrack>
							<mediatype>audio</mediatype>
							<trackindex>1</trackindex>
						</sourcetrack>
							<filter>
								<effect>
									<name>Audio Levels</name>
									<effectid>audiolevels</effectid>
									<effectcategory>audiolevels</effectcategory>
									<effecttype>audiolevels</effecttype>
									<mediatype>audio</mediatype>
									<parameter authoringApp="PremierePro">
										<parameterid>level</parameterid>
										<name>Level</name>
										<valuemin>0</valuemin>
										<valuemax>3.98109</valuemax>
										<value>0.792446</value>
									</parameter>
								</effect>
							</filter>
						<link>
							<linkclipref>clipitem-2726</linkclipref>
							<mediatype>audio</mediatype>
							<trackindex>19</trackindex>
							<clipindex>13</clipindex>
							<groupindex>1</groupindex>
						</link>
						<link>
							<linkclipref>clipitem-2824</linkclipref>
							<mediatype>audio</mediatype>
							<trackindex>20</trackindex>
							<clipindex>8</clipindex>
							<groupindex>1</groupindex>
						</link>
						<logginginfo>
							<description></description>
							<scene></scene>
							<shottake></shottake>
							<lognote></lognote>
						</logginginfo>
						<labels>
							<label2>Iris</label2>
						</labels>
					</clipitem>
					<transitionitem>
						<start>1753</start>
						<end>1778</end>
						<alignment>end-black</alignment>
						<cutPointTicks>254016000000</cutPointTicks>
						<rate>
							<timebase>25</timebase>
							<ntsc>FALSE</ntsc>
						</rate>
						<effect>
							<name>Cross Fade (+3dB)</name>
							<effectid>KGAudioTransCrossFade3dB</effectid>
							<effecttype>transition</effecttype>
							<mediatype>audio</mediatype>
							<wipecode>0</wipecode>
							<wipeaccuracy>100</wipeaccuracy>
							<startratio>0</startratio>
							<endratio>1</endratio>
							<reverse>FALSE</reverse>
						</effect>
					</transitionitem>
					<transitionitem>
						<start>2483</start>
						<end>2496</end>
						<alignment>start-black</alignment>
						<cutPointTicks>0</cutPointTicks>
						<rate>
							<timebase>25</timebase>
							<ntsc>FALSE</ntsc>
						</rate>
						<effect>
							<name>Cross Fade (+3dB)</name>
							<effectid>KGAudioTransCrossFade3dB</effectid>
							<effecttype>transition</effecttype>
							<mediatype>audio</mediatype>
							<wipecode>0</wipecode>
							<wipeaccuracy>100</wipeaccuracy>
							<startratio>0</startratio>
							<endratio>1</endratio>
							<reverse>FALSE</reverse>
						</effect>
					</transitionitem>
					<clipitem id="clipitem-2727" premiereChannelType="stereo">
						<masterclipid>masterclip-18</masterclipid>
						<name>ofaa21000105aa-p1-110416r.mxf</name>
						<enabled>TRUE</enabled>
						<duration>6745</duration>
						<rate>
							<timebase>25</timebase>
							<ntsc>FALSE</ntsc>
						</rate>
						<start>-1</start>
						<end>-1</end>
						<in>3495</in>
						<out>3711</out>
						<pproTicksIn>35511436800000</pproTicksIn>
						<pproTicksOut>37706135040000</pproTicksOut>
						<file id="file-15"/>
						<sourcetrack>
							<mediatype>audio</mediatype>
							<trackindex>1</trackindex>
						</sourcetrack>
						<link>
							<linkclipref>clipitem-2727</linkclipref>
							<mediatype>audio</mediatype>
							<trackindex>19</trackindex>
							<clipindex>16</clipindex>
							<groupindex>1</groupindex>
						</link>
						<link>
							<linkclipref>clipitem-2825</linkclipref>
							<mediatype>audio</mediatype>
							<trackindex>20</trackindex>
							<clipindex>11</clipindex>
							<groupindex>1</groupindex>
						</link>
						<logginginfo>
							<description></description>
							<scene></scene>
							<shottake></shottake>
							<lognote></lognote>
						</logginginfo>
						<labels>
							<label2>Iris</label2>
						</labels>
					</clipitem>
					<transitionitem>
						<start>2686</start>
						<end>2699</end>
						<alignment>end-black</alignment>
						<cutPointTicks>132088320000</cutPointTicks>
						<rate>
							<timebase>25</timebase>
							<ntsc>FALSE</ntsc>
						</rate>
						<effect>
							<name>Cross Fade (+3dB)</name>
							<effectid>KGAudioTransCrossFade3dB</effectid>
							<effecttype>transition</effecttype>
							<mediatype>audio</mediatype>
							<wipecode>0</wipecode>
							<wipeaccuracy>100</wipeaccuracy>
							<startratio>0</startratio>
							<endratio>1</endratio>
							<reverse>FALSE</reverse>
						</effect>
					</transitionitem>
					<clipitem id="clipitem-2728" premiereChannelType="stereo">
						<masterclipid>masterclip-10</masterclipid>
						<name>NNFA80750005AA.mxf</name>
						<enabled>FALSE</enabled>
						<duration>81126</duration>
						<rate>
							<timebase>25</timebase>
							<ntsc>FALSE</ntsc>
						</rate>
						<start>2872</start>
						<end>-1</end>
						<in>58775</in>
						<out>58958</out>
						<pproTicksIn>597191616000000</pproTicksIn>
						<pproTicksOut>599051013120000</pproTicksOut>
						<file id="file-8"/>
						<sourcetrack>
							<mediatype>audio</mediatype>
							<trackindex>1</trackindex>
						</sourcetrack>
						<link>
							<linkclipref>clipitem-2728</linkclipref>
							<mediatype>audio</mediatype>
							<trackindex>19</trackindex>
							<clipindex>18</clipindex>
							<groupindex>1</groupindex>
						</link>
						<link>
							<linkclipref>clipitem-2826</linkclipref>
							<mediatype>audio</mediatype>
							<trackindex>20</trackindex>
							<clipindex>13</clipindex>
							<groupindex>1</groupindex>
						</link>
						<logginginfo>
							<description></description>
							<scene></scene>
							<shottake></shottake>
							<lognote></lognote>
						</logginginfo>
						<labels>
							<label2>Iris</label2>
						</labels>
					</clipitem>
					<transitionitem>
						<start>3047</start>
						<end>3055</end>
						<alignment>end-black</alignment>
						<cutPointTicks>81285120000</cutPointTicks>
						<rate>
							<timebase>25</timebase>
							<ntsc>FALSE</ntsc>
						</rate>
						<effect>
							<name>Cross Fade (+3dB)</name>
							<effectid>KGAudioTransCrossFade3dB</effectid>
							<effecttype>transition</effecttype>
							<mediatype>audio</mediatype>
							<wipecode>0</wipecode>
							<wipeaccuracy>100</wipeaccuracy>
							<startratio>0</startratio>
							<endratio>1</endratio>
							<reverse>FALSE</reverse>
						</effect>
					</transitionitem>
					<clipitem id="clipitem-2729" premiereChannelType="stereo">
						<masterclipid>masterclip-125</masterclipid>
						<name>Apollo_ASPML_1011_1__Destination_Unknown__Mark_Plati_(BMI).mp3</name>
						<enabled>TRUE</enabled>
						<duration>4554</duration>
						<rate>
							<timebase>25</timebase>
							<ntsc>FALSE</ntsc>
						</rate>
						<start>4548</start>
						<end>-1</end>
						<in>0</in>
						<out>215</out>
						<pproTicksIn>0</pproTicksIn>
						<pproTicksOut>2184537600000</pproTicksOut>
						<file id="file-121">
							<name>Apollo_ASPML_1011_1__Destination_Unknown__Mark_Plati_(BMI).mp3</name>
							<pathurl>file://localhost/Volumes/Brakka/AdobeLager/QUIZ%20-%20brakka/Arkivstoff/2005/2005%20Musikk-teppe/Apollo/Apollo_ASPML_1011_1__Destination_Unknown__Mark_Plati_(BMI).mp3</pathurl>
							<rate>
								<timebase>30</timebase>
								<ntsc>TRUE</ntsc>
							</rate>
							<duration>5459</duration>
							<timecode>
								<rate>
									<timebase>30</timebase>
									<ntsc>TRUE</ntsc>
								</rate>
								<string>00;00;00;00</string>
								<frame>0</frame>
								<displayformat>DF</displayformat>
								<reel>
									<name></name>
								</reel>
							</timecode>
							<media>
								<audio>
									<samplecharacteristics>
										<depth>16</depth>
										<samplerate>44100</samplerate>
									</samplecharacteristics>
									<channelcount>2</channelcount>
								</audio>
							</media>
						</file>
						<sourcetrack>
							<mediatype>audio</mediatype>
							<trackindex>1</trackindex>
						</sourcetrack>
							<filter>
								<effect>
									<name>Audio Levels</name>
									<effectid>audiolevels</effectid>
									<effectcategory>audiolevels</effectcategory>
									<effecttype>audiolevels</effecttype>
									<mediatype>audio</mediatype>
									<parameter authoringApp="PremierePro">
										<parameterid>level</parameterid>
										<name>Level</name>
										<valuemin>0</valuemin>
										<valuemax>3.98109</valuemax>
										<value>0.099763</value>
									</parameter>
								</effect>
							</filter>
						<link>
							<linkclipref>clipitem-2729</linkclipref>
							<mediatype>audio</mediatype>
							<trackindex>19</trackindex>
							<clipindex>20</clipindex>
							<groupindex>1</groupindex>
						</link>
						<link>
							<linkclipref>clipitem-2827</linkclipref>
							<mediatype>audio</mediatype>
							<trackindex>20</trackindex>
							<clipindex>15</clipindex>
							<groupindex>1</groupindex>
						</link>
						<logginginfo>
							<description></description>
							<scene></scene>
							<shottake></shottake>
							<lognote></lognote>
						</logginginfo>
						<labels>
							<label2>Caribbean</label2>
						</labels>
					</clipitem>
					<transitionitem>
						<start>4750</start>
						<end>4763</end>
						<alignment>center</alignment>
						<cutPointTicks>60963840000</cutPointTicks>
						<rate>
							<timebase>25</timebase>
							<ntsc>FALSE</ntsc>
						</rate>
						<effect>
							<name>Cross Fade (+3dB)</name>
							<effectid>KGAudioTransCrossFade3dB</effectid>
							<effecttype>transition</effecttype>
							<mediatype>audio</mediatype>
							<wipecode>0</wipecode>
							<wipeaccuracy>100</wipeaccuracy>
							<startratio>0</startratio>
							<endratio>1</endratio>
							<reverse>FALSE</reverse>
						</effect>
					</transitionitem>
					<clipitem id="clipitem-2730" premiereChannelType="stereo">
						<masterclipid>masterclip-125</masterclipid>
						<name>Apollo_ASPML_1011_1__Destination_Unknown__Mark_Plati_(BMI).mp3</name>
						<enabled>TRUE</enabled>
						<duration>4554</duration>
						<rate>
							<timebase>25</timebase>
							<ntsc>FALSE</ntsc>
						</rate>
						<start>-1</start>
						<end>4968</end>
						<in>202</in>
						<out>420</out>
						<pproTicksIn>2052449280000</pproTicksIn>
						<pproTicksOut>4267468800000</pproTicksOut>
						<file id="file-121"/>
						<sourcetrack>
							<mediatype>audio</mediatype>
							<trackindex>1</trackindex>
						</sourcetrack>
							<filter>
								<effect>
									<name>Audio Levels</name>
									<effectid>audiolevels</effectid>
									<effectcategory>audiolevels</effectcategory>
									<effecttype>audiolevels</effecttype>
									<mediatype>audio</mediatype>
									<parameter authoringApp="PremierePro">
										<parameterid>level</parameterid>
										<name>Level</name>
										<valuemin>0</valuemin>
										<valuemax>3.98109</valuemax>
										<value>0</value>
										<keyframe>
											<when>298</when>
											<value>0.28117</value>
										</keyframe>
										<keyframe>
											<when>418</when>
											<value>0</value>
										</keyframe>
									</parameter>
								</effect>
							</filter>
						<link>
							<linkclipref>clipitem-2730</linkclipref>
							<mediatype>audio</mediatype>
							<trackindex>19</trackindex>
							<clipindex>22</clipindex>
							<groupindex>1</groupindex>
						</link>
						<link>
							<linkclipref>clipitem-2828</linkclipref>
							<mediatype>audio</mediatype>
							<trackindex>20</trackindex>
							<clipindex>17</clipindex>
							<groupindex>1</groupindex>
						</link>
						<logginginfo>
							<description></description>
							<scene></scene>
							<shottake></shottake>
							<lognote></lognote>
						</logginginfo>
						<labels>
							<label2>Caribbean</label2>
						</labels>
					</clipitem>
					<clipitem id="clipitem-2731" premiereChannelType="stereo">
						<masterclipid>masterclip-81</masterclipid>
						<name>Appalus anerkjennende med hoi.wav</name>
						<enabled>TRUE</enabled>
						<duration>168</duration>
						<rate>
							<timebase>25</timebase>
							<ntsc>FALSE</ntsc>
						</rate>
						<start>5253</start>
						<end>5340</end>
						<in>0</in>
						<out>87</out>
						<pproTicksIn>0</pproTicksIn>
						<pproTicksOut>883975680000</pproTicksOut>
						<file id="file-77"/>
						<sourcetrack>
							<mediatype>audio</mediatype>
							<trackindex>1</trackindex>
						</sourcetrack>
						<link>
							<linkclipref>clipitem-2731</linkclipref>
							<mediatype>audio</mediatype>
							<trackindex>19</trackindex>
							<clipindex>23</clipindex>
							<groupindex>1</groupindex>
						</link>
						<link>
							<linkclipref>clipitem-2829</linkclipref>
							<mediatype>audio</mediatype>
							<trackindex>20</trackindex>
							<clipindex>18</clipindex>
							<groupindex>1</groupindex>
						</link>
						<logginginfo>
							<description></description>
							<scene></scene>
							<shottake></shottake>
							<lognote></lognote>
						</logginginfo>
						<labels>
							<label2>Caribbean</label2>
						</labels>
					</clipitem>
					<clipitem id="clipitem-2732" premiereChannelType="stereo">
						<masterclipid>masterclip-81</masterclipid>
						<name>Appalus anerkjennende med hoi.wav</name>
						<enabled>TRUE</enabled>
						<duration>168</duration>
						<rate>
							<timebase>25</timebase>
							<ntsc>FALSE</ntsc>
						</rate>
						<start>5340</start>
						<end>5402</end>
						<in>87</in>
						<out>149</out>
						<pproTicksIn>883975680000</pproTicksIn>
						<pproTicksOut>1513935360000</pproTicksOut>
						<file id="file-77"/>
						<sourcetrack>
							<mediatype>audio</mediatype>
							<trackindex>1</trackindex>
						</sourcetrack>
						<link>
							<linkclipref>clipitem-2732</linkclipref>
							<mediatype>audio</mediatype>
							<trackindex>19</trackindex>
							<clipindex>24</clipindex>
							<groupindex>1</groupindex>
						</link>
						<link>
							<linkclipref>clipitem-2830</linkclipref>
							<mediatype>audio</mediatype>
							<trackindex>20</trackindex>
							<clipindex>19</clipindex>
							<groupindex>1</groupindex>
						</link>
						<logginginfo>
							<description></description>
							<scene></scene>
							<shottake></shottake>
							<lognote></lognote>
						</logginginfo>
						<labels>
							<label2>Caribbean</label2>
						</labels>
					</clipitem>
					<clipitem id="clipitem-2733" premiereChannelType="stereo">
						<masterclipid>masterclip-81</masterclipid>
						<name>Appalus anerkjennende med hoi.wav</name>
						<enabled>TRUE</enabled>
						<duration>168</duration>
						<rate>
							<timebase>25</timebase>
							<ntsc>FALSE</ntsc>
						</rate>
						<start>5544</start>
						<end>5712</end>
						<in>0</in>
						<out>168</out>
						<pproTicksIn>0</pproTicksIn>
						<pproTicksOut>1706987520000</pproTicksOut>
						<file id="file-77"/>
						<sourcetrack>
							<mediatype>audio</mediatype>
							<trackindex>1</trackindex>
						</sourcetrack>
						<link>
							<linkclipref>clipitem-2733</linkclipref>
							<mediatype>audio</mediatype>
							<trackindex>19</trackindex>
							<clipindex>25</clipindex>
							<groupindex>1</groupindex>
						</link>
						<link>
							<linkclipref>clipitem-2831</linkclipref>
							<mediatype>audio</mediatype>
							<trackindex>20</trackindex>
							<clipindex>20</clipindex>
							<groupindex>1</groupindex>
						</link>
						<logginginfo>
							<description></description>
							<scene></scene>
							<shottake></shottake>
							<lognote></lognote>
						</logginginfo>
						<labels>
							<label2>Caribbean</label2>
						</labels>
					</clipitem>
					<clipitem id="clipitem-2734" premiereChannelType="stereo">
						<masterclipid>masterclip-73</masterclipid>
						<name>Klukklatter, kort.wav</name>
						<enabled>TRUE</enabled>
						<duration>56</duration>
						<rate>
							<timebase>25</timebase>
							<ntsc>FALSE</ntsc>
						</rate>
						<start>5794</start>
						<end>5850</end>
						<in>0</in>
						<out>56</out>
						<pproTicksIn>0</pproTicksIn>
						<pproTicksOut>568995840000</pproTicksOut>
						<file id="file-69"/>
						<sourcetrack>
							<mediatype>audio</mediatype>
							<trackindex>1</trackindex>
						</sourcetrack>
							<filter>
								<effect>
									<name>Audio Levels</name>
									<effectid>audiolevels</effectid>
									<effectcategory>audiolevels</effectcategory>
									<effecttype>audiolevels</effecttype>
									<mediatype>audio</mediatype>
									<parameter authoringApp="PremierePro">
										<parameterid>level</parameterid>
										<name>Level</name>
										<valuemin>0</valuemin>
										<valuemax>3.98109</valuemax>
										<value>0.99763</value>
									</parameter>
								</effect>
							</filter>
						<link>
							<linkclipref>clipitem-2734</linkclipref>
							<mediatype>audio</mediatype>
							<trackindex>19</trackindex>
							<clipindex>26</clipindex>
							<groupindex>1</groupindex>
						</link>
						<link>
							<linkclipref>clipitem-2832</linkclipref>
							<mediatype>audio</mediatype>
							<trackindex>20</trackindex>
							<clipindex>21</clipindex>
							<groupindex>1</groupindex>
						</link>
						<logginginfo>
							<description></description>
							<scene></scene>
							<shottake></shottake>
							<lognote></lognote>
						</logginginfo>
						<labels>
							<label2>Caribbean</label2>
						</labels>
					</clipitem>
					<clipitem id="clipitem-2735" premiereChannelType="stereo">
						<masterclipid>masterclip-126</masterclipid>
						<name>Enkeltlatter, dame.wav</name>
						<enabled>TRUE</enabled>
						<duration>44</duration>
						<rate>
							<timebase>25</timebase>
							<ntsc>FALSE</ntsc>
						</rate>
						<start>5924</start>
						<end>5968</end>
						<in>0</in>
						<out>44</out>
						<pproTicksIn>0</pproTicksIn>
						<pproTicksOut>447068160000</pproTicksOut>
						<file id="file-122">
							<name>Enkeltlatter, dame.wav</name>
							<pathurl>file://localhost/Volumes/Brakka/AdobeLager/QUIZ%20-%20brakka/RA%cc%8aSTOFF%20LYD/Publikumsreaksjoner/Fra%201980/Enkeltlatter,%20dame.wav</pathurl>
							<rate>
								<timebase>30</timebase>
								<ntsc>TRUE</ntsc>
							</rate>
							<duration>53</duration>
							<timecode>
								<rate>
									<timebase>30</timebase>
									<ntsc>TRUE</ntsc>
								</rate>
								<string>13;00;42;00</string>
								<frame>1403856</frame>
								<displayformat>DF</displayformat>
								<reel>
									<name></name>
								</reel>
							</timecode>
							<media>
								<audio>
									<samplecharacteristics>
										<depth>16</depth>
										<samplerate>48000</samplerate>
									</samplecharacteristics>
									<channelcount>2</channelcount>
								</audio>
							</media>
						</file>
						<sourcetrack>
							<mediatype>audio</mediatype>
							<trackindex>1</trackindex>
						</sourcetrack>
						<link>
							<linkclipref>clipitem-2735</linkclipref>
							<mediatype>audio</mediatype>
							<trackindex>19</trackindex>
							<clipindex>27</clipindex>
							<groupindex>1</groupindex>
						</link>
						<link>
							<linkclipref>clipitem-2833</linkclipref>
							<mediatype>audio</mediatype>
							<trackindex>20</trackindex>
							<clipindex>22</clipindex>
							<groupindex>1</groupindex>
						</link>
						<logginginfo>
							<description></description>
							<scene></scene>
							<shottake></shottake>
							<lognote></lognote>
						</logginginfo>
						<labels>
							<label2>Caribbean</label2>
						</labels>
					</clipitem>
					<clipitem id="clipitem-2736" premiereChannelType="stereo">
						<masterclipid>masterclip-81</masterclipid>
						<name>Appalus anerkjennende med hoi.wav</name>
						<enabled>TRUE</enabled>
						<duration>168</duration>
						<rate>
							<timebase>25</timebase>
							<ntsc>FALSE</ntsc>
						</rate>
						<start>6399</start>
						<end>6447</end>
						<in>0</in>
						<out>48</out>
						<pproTicksIn>0</pproTicksIn>
						<pproTicksOut>487710720000</pproTicksOut>
						<file id="file-77"/>
						<sourcetrack>
							<mediatype>audio</mediatype>
							<trackindex>1</trackindex>
						</sourcetrack>
						<link>
							<linkclipref>clipitem-2736</linkclipref>
							<mediatype>audio</mediatype>
							<trackindex>19</trackindex>
							<clipindex>28</clipindex>
							<groupindex>1</groupindex>
						</link>
						<link>
							<linkclipref>clipitem-2834</linkclipref>
							<mediatype>audio</mediatype>
							<trackindex>20</trackindex>
							<clipindex>23</clipindex>
							<groupindex>1</groupindex>
						</link>
						<logginginfo>
							<description></description>
							<scene></scene>
							<shottake></shottake>
							<lognote></lognote>
						</logginginfo>
						<labels>
							<label2>Caribbean</label2>
						</labels>
					</clipitem>
					<clipitem id="clipitem-2737" premiereChannelType="stereo">
						<masterclipid>masterclip-81</masterclipid>
						<name>Appalus anerkjennende med hoi.wav</name>
						<enabled>TRUE</enabled>
						<duration>168</duration>
						<rate>
							<timebase>25</timebase>
							<ntsc>FALSE</ntsc>
						</rate>
						<start>6447</start>
						<end>6519</end>
						<in>96</in>
						<out>168</out>
						<pproTicksIn>975421440000</pproTicksIn>
						<pproTicksOut>1706987520000</pproTicksOut>
						<file id="file-77"/>
						<sourcetrack>
							<mediatype>audio</mediatype>
							<trackindex>1</trackindex>
						</sourcetrack>
						<link>
							<linkclipref>clipitem-2737</linkclipref>
							<mediatype>audio</mediatype>
							<trackindex>19</trackindex>
							<clipindex>29</clipindex>
							<groupindex>1</groupindex>
						</link>
						<link>
							<linkclipref>clipitem-2835</linkclipref>
							<mediatype>audio</mediatype>
							<trackindex>20</trackindex>
							<clipindex>24</clipindex>
							<groupindex>1</groupindex>
						</link>
						<logginginfo>
							<description></description>
							<scene></scene>
							<shottake></shottake>
							<lognote></lognote>
						</logginginfo>
						<labels>
							<label2>Caribbean</label2>
						</labels>
					</clipitem>
					<clipitem id="clipitem-2738" premiereChannelType="stereo">
						<masterclipid>masterclip-75</masterclipid>
						<name>Latter avmålt.wav</name>
						<enabled>TRUE</enabled>
						<duration>60</duration>
						<rate>
							<timebase>25</timebase>
							<ntsc>FALSE</ntsc>
						</rate>
						<start>6733</start>
						<end>6793</end>
						<in>0</in>
						<out>60</out>
						<pproTicksIn>0</pproTicksIn>
						<pproTicksOut>609638400000</pproTicksOut>
						<file id="file-71"/>
						<sourcetrack>
							<mediatype>audio</mediatype>
							<trackindex>1</trackindex>
						</sourcetrack>
						<link>
							<linkclipref>clipitem-2738</linkclipref>
							<mediatype>audio</mediatype>
							<trackindex>19</trackindex>
							<clipindex>30</clipindex>
							<groupindex>1</groupindex>
						</link>
						<link>
							<linkclipref>clipitem-2836</linkclipref>
							<mediatype>audio</mediatype>
							<trackindex>20</trackindex>
							<clipindex>25</clipindex>
							<groupindex>1</groupindex>
						</link>
						<logginginfo>
							<description></description>
							<scene></scene>
							<shottake></shottake>
							<lognote></lognote>
						</logginginfo>
						<labels>
							<label2>Caribbean</label2>
						</labels>
					</clipitem>
					<clipitem id="clipitem-2739" premiereChannelType="stereo">
						<masterclipid>masterclip-127</masterclipid>
						<name>Latter brå og kort.wav</name>
						<enabled>TRUE</enabled>
						<duration>75</duration>
						<rate>
							<timebase>25</timebase>
							<ntsc>FALSE</ntsc>
						</rate>
						<start>7293</start>
						<end>7368</end>
						<in>0</in>
						<out>75</out>
						<pproTicksIn>0</pproTicksIn>
						<pproTicksOut>762048000000</pproTicksOut>
						<file id="file-123">
							<name>Latter brå og kort.wav</name>
							<pathurl>file://localhost/Volumes/Brakka/AdobeLager/QUIZ%20-%20brakka/RA%cc%8aSTOFF%20LYD/Publikumsreaksjoner/Fra%201996/Latter%20bra%cc%8a%20og%20kort.wav</pathurl>
							<rate>
								<timebase>30</timebase>
								<ntsc>TRUE</ntsc>
							</rate>
							<duration>90</duration>
							<timecode>
								<rate>
									<timebase>30</timebase>
									<ntsc>TRUE</ntsc>
								</rate>
								<string>13;07;44;07</string>
								<frame>1416509</frame>
								<displayformat>DF</displayformat>
								<reel>
									<name></name>
								</reel>
							</timecode>
							<media>
								<audio>
									<samplecharacteristics>
										<depth>16</depth>
										<samplerate>48000</samplerate>
									</samplecharacteristics>
									<channelcount>2</channelcount>
								</audio>
							</media>
						</file>
						<sourcetrack>
							<mediatype>audio</mediatype>
							<trackindex>1</trackindex>
						</sourcetrack>
						<link>
							<linkclipref>clipitem-2739</linkclipref>
							<mediatype>audio</mediatype>
							<trackindex>19</trackindex>
							<clipindex>31</clipindex>
							<groupindex>1</groupindex>
						</link>
						<link>
							<linkclipref>clipitem-2837</linkclipref>
							<mediatype>audio</mediatype>
							<trackindex>20</trackindex>
							<clipindex>26</clipindex>
							<groupindex>1</groupindex>
						</link>
						<logginginfo>
							<description></description>
							<scene></scene>
							<shottake></shottake>
							<lognote></lognote>
						</logginginfo>
						<labels>
							<label2>Caribbean</label2>
						</labels>
					</clipitem>
					<clipitem id="clipitem-2740" premiereChannelType="stereo">
						<masterclipid>masterclip-128</masterclipid>
						<name>Latter kort høflig etter dårlig vits.wav</name>
						<enabled>TRUE</enabled>
						<duration>89</duration>
						<rate>
							<timebase>25</timebase>
							<ntsc>FALSE</ntsc>
						</rate>
						<start>8138</start>
						<end>8227</end>
						<in>0</in>
						<out>89</out>
						<pproTicksIn>0</pproTicksIn>
						<pproTicksOut>904296960000</pproTicksOut>
						<file id="file-124">
							<name>Latter kort høflig etter dårlig vits.wav</name>
							<pathurl>file://localhost/Volumes/Brakka/AdobeLager/QUIZ%20-%20brakka/RA%cc%8aSTOFF%20LYD/Publikumsreaksjoner/Fra%201996/Latter%20kort%20h%c3%b8flig%20etter%20da%cc%8arlig%20vits.wav</pathurl>
							<rate>
								<timebase>30</timebase>
								<ntsc>TRUE</ntsc>
							</rate>
							<duration>107</duration>
							<timecode>
								<rate>
									<timebase>30</timebase>
									<ntsc>TRUE</ntsc>
								</rate>
								<string>14;21;19;20</string>
								<frame>1548840</frame>
								<displayformat>DF</displayformat>
								<reel>
									<name></name>
								</reel>
							</timecode>
							<media>
								<audio>
									<samplecharacteristics>
										<depth>16</depth>
										<samplerate>48000</samplerate>
									</samplecharacteristics>
									<channelcount>2</channelcount>
								</audio>
							</media>
						</file>
						<sourcetrack>
							<mediatype>audio</mediatype>
							<trackindex>1</trackindex>
						</sourcetrack>
						<link>
							<linkclipref>clipitem-2740</linkclipref>
							<mediatype>audio</mediatype>
							<trackindex>19</trackindex>
							<clipindex>32</clipindex>
							<groupindex>1</groupindex>
						</link>
						<link>
							<linkclipref>clipitem-2838</linkclipref>
							<mediatype>audio</mediatype>
							<trackindex>20</trackindex>
							<clipindex>27</clipindex>
							<groupindex>1</groupindex>
						</link>
						<logginginfo>
							<description></description>
							<scene></scene>
							<shottake></shottake>
							<lognote></lognote>
						</logginginfo>
						<labels>
							<label2>Caribbean</label2>
						</labels>
					</clipitem>
					<clipitem id="clipitem-2741" premiereChannelType="stereo">
						<masterclipid>masterclip-129</masterclipid>
						<name>Kort behersket latter.wav</name>
						<enabled>TRUE</enabled>
						<duration>89</duration>
						<rate>
							<timebase>25</timebase>
							<ntsc>FALSE</ntsc>
						</rate>
						<start>10231</start>
						<end>10320</end>
						<in>0</in>
						<out>89</out>
						<pproTicksIn>0</pproTicksIn>
						<pproTicksOut>904296960000</pproTicksOut>
						<file id="file-125">
							<name>Kort behersket latter.wav</name>
							<pathurl>file://localhost/Volumes/Brakka/AdobeLager/QUIZ%20-%20brakka/RA%cc%8aSTOFF%20LYD/Publikumsreaksjoner/Fra%201984/Kort%20behersket%20latter.wav</pathurl>
							<rate>
								<timebase>30</timebase>
								<ntsc>TRUE</ntsc>
							</rate>
							<duration>107</duration>
							<timecode>
								<rate>
									<timebase>30</timebase>
									<ntsc>TRUE</ntsc>
								</rate>
								<string>16;36;53;21</string>
								<frame>1792617</frame>
								<displayformat>DF</displayformat>
								<reel>
									<name></name>
								</reel>
							</timecode>
							<media>
								<audio>
									<samplecharacteristics>
										<depth>16</depth>
										<samplerate>48000</samplerate>
									</samplecharacteristics>
									<channelcount>2</channelcount>
								</audio>
							</media>
						</file>
						<sourcetrack>
							<mediatype>audio</mediatype>
							<trackindex>1</trackindex>
						</sourcetrack>
						<link>
							<linkclipref>clipitem-2741</linkclipref>
							<mediatype>audio</mediatype>
							<trackindex>19</trackindex>
							<clipindex>33</clipindex>
							<groupindex>1</groupindex>
						</link>
						<link>
							<linkclipref>clipitem-2839</linkclipref>
							<mediatype>audio</mediatype>
							<trackindex>20</trackindex>
							<clipindex>28</clipindex>
							<groupindex>1</groupindex>
						</link>
						<logginginfo>
							<description></description>
							<scene></scene>
							<shottake></shottake>
							<lognote></lognote>
						</logginginfo>
						<labels>
							<label2>Caribbean</label2>
						</labels>
					</clipitem>
					<clipitem id="clipitem-2742" premiereChannelType="stereo">
						<masterclipid>masterclip-130</masterclipid>
						<name>Behersket latter, litt applaus.wav</name>
						<enabled>TRUE</enabled>
						<duration>129</duration>
						<rate>
							<timebase>25</timebase>
							<ntsc>FALSE</ntsc>
						</rate>
						<start>10877</start>
						<end>11006</end>
						<in>0</in>
						<out>129</out>
						<pproTicksIn>0</pproTicksIn>
						<pproTicksOut>1310722560000</pproTicksOut>
						<file id="file-126">
							<name>Behersket latter, litt applaus.wav</name>
							<pathurl>file://localhost/Volumes/Brakka/AdobeLager/QUIZ%20-%20brakka/RA%cc%8aSTOFF%20LYD/Publikumsreaksjoner/Fra%201975/Behersket%20latter,%20litt%20applaus.wav</pathurl>
							<rate>
								<timebase>30</timebase>
								<ntsc>TRUE</ntsc>
							</rate>
							<duration>154</duration>
							<timecode>
								<rate>
									<timebase>30</timebase>
									<ntsc>TRUE</ntsc>
								</rate>
								<string>13;00;35;27</string>
								<frame>1403673</frame>
								<displayformat>DF</displayformat>
								<reel>
									<name></name>
								</reel>
							</timecode>
							<media>
								<audio>
									<samplecharacteristics>
										<depth>16</depth>
										<samplerate>48000</samplerate>
									</samplecharacteristics>
									<channelcount>2</channelcount>
								</audio>
							</media>
						</file>
						<sourcetrack>
							<mediatype>audio</mediatype>
							<trackindex>1</trackindex>
						</sourcetrack>
						<link>
							<linkclipref>clipitem-2742</linkclipref>
							<mediatype>audio</mediatype>
							<trackindex>19</trackindex>
							<clipindex>34</clipindex>
							<groupindex>1</groupindex>
						</link>
						<link>
							<linkclipref>clipitem-2840</linkclipref>
							<mediatype>audio</mediatype>
							<trackindex>20</trackindex>
							<clipindex>29</clipindex>
							<groupindex>1</groupindex>
						</link>
						<logginginfo>
							<description></description>
							<scene></scene>
							<shottake></shottake>
							<lognote></lognote>
						</logginginfo>
						<labels>
							<label2>Caribbean</label2>
						</labels>
					</clipitem>
					<clipitem id="clipitem-2743" premiereChannelType="stereo">
						<masterclipid>masterclip-81</masterclipid>
						<name>Appalus anerkjennende med hoi.wav</name>
						<enabled>TRUE</enabled>
						<duration>168</duration>
						<rate>
							<timebase>25</timebase>
							<ntsc>FALSE</ntsc>
						</rate>
						<start>12450</start>
						<end>12618</end>
						<in>0</in>
						<out>168</out>
						<pproTicksIn>0</pproTicksIn>
						<pproTicksOut>1706987520000</pproTicksOut>
						<file id="file-77"/>
						<sourcetrack>
							<mediatype>audio</mediatype>
							<trackindex>1</trackindex>
						</sourcetrack>
							<filter>
								<effect>
									<name>Audio Levels</name>
									<effectid>audiolevels</effectid>
									<effectcategory>audiolevels</effectcategory>
									<effecttype>audiolevels</effecttype>
									<mediatype>audio</mediatype>
									<parameter authoringApp="PremierePro">
										<parameterid>level</parameterid>
										<name>Level</name>
										<valuemin>0</valuemin>
										<valuemax>3.98109</valuemax>
										<value>0.445625</value>
									</parameter>
								</effect>
							</filter>
						<link>
							<linkclipref>clipitem-2743</linkclipref>
							<mediatype>audio</mediatype>
							<trackindex>19</trackindex>
							<clipindex>35</clipindex>
							<groupindex>1</groupindex>
						</link>
						<link>
							<linkclipref>clipitem-2841</linkclipref>
							<mediatype>audio</mediatype>
							<trackindex>20</trackindex>
							<clipindex>30</clipindex>
							<groupindex>1</groupindex>
						</link>
						<logginginfo>
							<description></description>
							<scene></scene>
							<shottake></shottake>
							<lognote></lognote>
						</logginginfo>
						<labels>
							<label2>Caribbean</label2>
						</labels>
					</clipitem>
					<clipitem id="clipitem-2744" premiereChannelType="stereo">
						<masterclipid>masterclip-131</masterclipid>
						<name>Solveig H og Lars A.wav</name>
						<enabled>TRUE</enabled>
						<duration>72</duration>
						<rate>
							<timebase>25</timebase>
							<ntsc>FALSE</ntsc>
						</rate>
						<start>12618</start>
						<end>12690</end>
						<in>0</in>
						<out>72</out>
						<pproTicksIn>0</pproTicksIn>
						<pproTicksOut>731566080000</pproTicksOut>
						<file id="file-127">
							<name>Solveig H og Lars A.wav</name>
							<pathurl>file://localhost/Volumes/Brakka/AdobeLager/QUIZ%20-%20brakka/RA%cc%8aSTOFF%20LYD/Publikumsreaksjoner/Fra%201998/Solveig%20H%20og%20Lars%20A.wav</pathurl>
							<rate>
								<timebase>30</timebase>
								<ntsc>TRUE</ntsc>
							</rate>
							<duration>86</duration>
							<timecode>
								<rate>
									<timebase>30</timebase>
									<ntsc>TRUE</ntsc>
								</rate>
								<string>14;32;39;16</string>
								<frame>1569216</frame>
								<displayformat>DF</displayformat>
								<reel>
									<name></name>
								</reel>
							</timecode>
							<media>
								<audio>
									<samplecharacteristics>
										<depth>16</depth>
										<samplerate>48000</samplerate>
									</samplecharacteristics>
									<channelcount>2</channelcount>
								</audio>
							</media>
						</file>
						<sourcetrack>
							<mediatype>audio</mediatype>
							<trackindex>1</trackindex>
						</sourcetrack>
						<link>
							<linkclipref>clipitem-2744</linkclipref>
							<mediatype>audio</mediatype>
							<trackindex>19</trackindex>
							<clipindex>36</clipindex>
							<groupindex>1</groupindex>
						</link>
						<link>
							<linkclipref>clipitem-2842</linkclipref>
							<mediatype>audio</mediatype>
							<trackindex>20</trackindex>
							<clipindex>31</clipindex>
							<groupindex>1</groupindex>
						</link>
						<logginginfo>
							<description></description>
							<scene></scene>
							<shottake></shottake>
							<lognote></lognote>
						</logginginfo>
						<labels>
							<label2>Caribbean</label2>
						</labels>
					</clipitem>
					<clipitem id="clipitem-2745" premiereChannelType="stereo">
						<masterclipid>masterclip-86</masterclipid>
						<name>Latter liten kort 1 sek.wav</name>
						<enabled>TRUE</enabled>
						<duration>42</duration>
						<rate>
							<timebase>25</timebase>
							<ntsc>FALSE</ntsc>
						</rate>
						<start>12779</start>
						<end>12821</end>
						<in>0</in>
						<out>42</out>
						<pproTicksIn>0</pproTicksIn>
						<pproTicksOut>426746880000</pproTicksOut>
						<file id="file-82"/>
						<sourcetrack>
							<mediatype>audio</mediatype>
							<trackindex>1</trackindex>
						</sourcetrack>
						<link>
							<linkclipref>clipitem-2745</linkclipref>
							<mediatype>audio</mediatype>
							<trackindex>19</trackindex>
							<clipindex>37</clipindex>
							<groupindex>1</groupindex>
						</link>
						<link>
							<linkclipref>clipitem-2843</linkclipref>
							<mediatype>audio</mediatype>
							<trackindex>20</trackindex>
							<clipindex>32</clipindex>
							<groupindex>1</groupindex>
						</link>
						<logginginfo>
							<description></description>
							<scene></scene>
							<shottake></shottake>
							<lognote></lognote>
						</logginginfo>
						<labels>
							<label2>Caribbean</label2>
						</labels>
					</clipitem>
					<clipitem id="clipitem-2746" premiereChannelType="stereo">
						<masterclipid>masterclip-114</masterclipid>
						<name>Latterkule bitteliten.wav</name>
						<enabled>TRUE</enabled>
						<duration>74</duration>
						<rate>
							<timebase>25</timebase>
							<ntsc>FALSE</ntsc>
						</rate>
						<start>12858</start>
						<end>12932</end>
						<in>0</in>
						<out>74</out>
						<pproTicksIn>0</pproTicksIn>
						<pproTicksOut>751887360000</pproTicksOut>
						<file id="file-110"/>
						<sourcetrack>
							<mediatype>audio</mediatype>
							<trackindex>1</trackindex>
						</sourcetrack>
						<link>
							<linkclipref>clipitem-2746</linkclipref>
							<mediatype>audio</mediatype>
							<trackindex>19</trackindex>
							<clipindex>38</clipindex>
							<groupindex>1</groupindex>
						</link>
						<link>
							<linkclipref>clipitem-2844</linkclipref>
							<mediatype>audio</mediatype>
							<trackindex>20</trackindex>
							<clipindex>33</clipindex>
							<groupindex>1</groupindex>
						</link>
						<logginginfo>
							<description></description>
							<scene></scene>
							<shottake></shottake>
							<lognote></lognote>
						</logginginfo>
						<labels>
							<label2>Caribbean</label2>
						</labels>
					</clipitem>
					<clipitem id="clipitem-2747" premiereChannelType="stereo">
						<masterclipid>masterclip-132</masterclipid>
						<name>Latter noe overrasket (etter babampitsj).wav</name>
						<enabled>TRUE</enabled>
						<duration>227</duration>
						<rate>
							<timebase>25</timebase>
							<ntsc>FALSE</ntsc>
						</rate>
						<start>13177</start>
						<end>13212</end>
						<in>0</in>
						<out>35</out>
						<pproTicksIn>0</pproTicksIn>
						<pproTicksOut>355622400000</pproTicksOut>
						<file id="file-128">
							<name>Latter noe overrasket (etter babampitsj).wav</name>
							<pathurl>file://localhost/Volumes/Brakka/AdobeLager/QUIZ%20-%20brakka/RA%cc%8aSTOFF%20LYD/Publikumsreaksjoner/Fra%201986/Latter%20noe%20overrasket%20(etter%20babampitsj).wav</pathurl>
							<rate>
								<timebase>30</timebase>
								<ntsc>TRUE</ntsc>
							</rate>
							<duration>273</duration>
							<timecode>
								<rate>
									<timebase>30</timebase>
									<ntsc>TRUE</ntsc>
								</rate>
								<string>14;51;12;04</string>
								<frame>1602560</frame>
								<displayformat>DF</displayformat>
								<reel>
									<name></name>
								</reel>
							</timecode>
							<media>
								<audio>
									<samplecharacteristics>
										<depth>16</depth>
										<samplerate>48000</samplerate>
									</samplecharacteristics>
									<channelcount>2</channelcount>
								</audio>
							</media>
						</file>
						<sourcetrack>
							<mediatype>audio</mediatype>
							<trackindex>1</trackindex>
						</sourcetrack>
						<link>
							<linkclipref>clipitem-2747</linkclipref>
							<mediatype>audio</mediatype>
							<trackindex>19</trackindex>
							<clipindex>39</clipindex>
							<groupindex>1</groupindex>
						</link>
						<link>
							<linkclipref>clipitem-2845</linkclipref>
							<mediatype>audio</mediatype>
							<trackindex>20</trackindex>
							<clipindex>34</clipindex>
							<groupindex>1</groupindex>
						</link>
						<logginginfo>
							<description></description>
							<scene></scene>
							<shottake></shottake>
							<lognote></lognote>
						</logginginfo>
						<labels>
							<label2>Caribbean</label2>
						</labels>
					</clipitem>
					<clipitem id="clipitem-2748" premiereChannelType="stereo">
						<masterclipid>masterclip-132</masterclipid>
						<name>Latter noe overrasket (etter babampitsj).wav</name>
						<enabled>TRUE</enabled>
						<duration>227</duration>
						<rate>
							<timebase>25</timebase>
							<ntsc>FALSE</ntsc>
						</rate>
						<start>13212</start>
						<end>13251</end>
						<in>35</in>
						<out>74</out>
						<pproTicksIn>355622400000</pproTicksIn>
						<pproTicksOut>751887360000</pproTicksOut>
						<file id="file-128"/>
						<sourcetrack>
							<mediatype>audio</mediatype>
							<trackindex>1</trackindex>
						</sourcetrack>
						<link>
							<linkclipref>clipitem-2748</linkclipref>
							<mediatype>audio</mediatype>
							<trackindex>19</trackindex>
							<clipindex>40</clipindex>
							<groupindex>1</groupindex>
						</link>
						<link>
							<linkclipref>clipitem-2846</linkclipref>
							<mediatype>audio</mediatype>
							<trackindex>20</trackindex>
							<clipindex>35</clipindex>
							<groupindex>1</groupindex>
						</link>
						<logginginfo>
							<description></description>
							<scene></scene>
							<shottake></shottake>
							<lognote></lognote>
						</logginginfo>
						<labels>
							<label2>Caribbean</label2>
						</labels>
					</clipitem>
					<clipitem id="clipitem-2749" premiereChannelType="stereo">
						<masterclipid>masterclip-132</masterclipid>
						<name>Latter noe overrasket (etter babampitsj).wav</name>
						<enabled>TRUE</enabled>
						<duration>227</duration>
						<rate>
							<timebase>25</timebase>
							<ntsc>FALSE</ntsc>
						</rate>
						<start>13251</start>
						<end>13394</end>
						<in>74</in>
						<out>217</out>
						<pproTicksIn>751887360000</pproTicksIn>
						<pproTicksOut>2204858880000</pproTicksOut>
						<file id="file-128"/>
						<sourcetrack>
							<mediatype>audio</mediatype>
							<trackindex>1</trackindex>
						</sourcetrack>
						<link>
							<linkclipref>clipitem-2749</linkclipref>
							<mediatype>audio</mediatype>
							<trackindex>19</trackindex>
							<clipindex>41</clipindex>
							<groupindex>1</groupindex>
						</link>
						<link>
							<linkclipref>clipitem-2847</linkclipref>
							<mediatype>audio</mediatype>
							<trackindex>20</trackindex>
							<clipindex>36</clipindex>
							<groupindex>1</groupindex>
						</link>
						<logginginfo>
							<description></description>
							<scene></scene>
							<shottake></shottake>
							<lognote></lognote>
						</logginginfo>
						<labels>
							<label2>Caribbean</label2>
						</labels>
					</clipitem>
					<clipitem id="clipitem-2750" premiereChannelType="stereo">
						<masterclipid>masterclip-133</masterclipid>
						<name>Fireworks Sound Effect #3.mp3</name>
						<enabled>TRUE</enabled>
						<duration>161</duration>
						<rate>
							<timebase>25</timebase>
							<ntsc>FALSE</ntsc>
						</rate>
						<start>13394</start>
						<end>13418</end>
						<in>0</in>
						<out>24</out>
						<pproTicksIn>0</pproTicksIn>
						<pproTicksOut>243855360000</pproTicksOut>
						<file id="file-129">
							<name>Fireworks Sound Effect #3.mp3</name>
							<pathurl>file://localhost/Volumes/Brakka/AdobeLager/QUIZ%20-%20brakka/Musikk/Sound%20FX/Fireworks%20Sound%20Effect%20#3.mp3</pathurl>
							<rate>
								<timebase>30</timebase>
								<ntsc>TRUE</ntsc>
							</rate>
							<duration>193</duration>
							<timecode>
								<rate>
									<timebase>30</timebase>
									<ntsc>TRUE</ntsc>
								</rate>
								<string>00;00;00;00</string>
								<frame>0</frame>
								<displayformat>DF</displayformat>
								<reel>
									<name></name>
								</reel>
							</timecode>
							<media>
								<audio>
									<samplecharacteristics>
										<depth>16</depth>
										<samplerate>44100</samplerate>
									</samplecharacteristics>
									<channelcount>2</channelcount>
								</audio>
							</media>
						</file>
						<sourcetrack>
							<mediatype>audio</mediatype>
							<trackindex>1</trackindex>
						</sourcetrack>
							<filter>
								<effect>
									<name>Audio Levels</name>
									<effectid>audiolevels</effectid>
									<effectcategory>audiolevels</effectcategory>
									<effecttype>audiolevels</effecttype>
									<mediatype>audio</mediatype>
									<parameter authoringApp="PremierePro">
										<parameterid>level</parameterid>
										<name>Level</name>
										<valuemin>0</valuemin>
										<valuemax>3.98109</valuemax>
										<value>0.199053</value>
									</parameter>
								</effect>
							</filter>
						<link>
							<linkclipref>clipitem-2750</linkclipref>
							<mediatype>audio</mediatype>
							<trackindex>19</trackindex>
							<clipindex>42</clipindex>
							<groupindex>1</groupindex>
						</link>
						<link>
							<linkclipref>clipitem-2848</linkclipref>
							<mediatype>audio</mediatype>
							<trackindex>20</trackindex>
							<clipindex>37</clipindex>
							<groupindex>1</groupindex>
						</link>
						<logginginfo>
							<description></description>
							<scene></scene>
							<shottake></shottake>
							<lognote></lognote>
						</logginginfo>
						<labels>
							<label2>Caribbean</label2>
						</labels>
					</clipitem>
					<clipitem id="clipitem-2751" premiereChannelType="stereo">
						<masterclipid>masterclip-133</masterclipid>
						<name>Fireworks Sound Effect #3.mp3</name>
						<enabled>TRUE</enabled>
						<duration>161</duration>
						<rate>
							<timebase>25</timebase>
							<ntsc>FALSE</ntsc>
						</rate>
						<start>13418</start>
						<end>13494</end>
						<in>65</in>
						<out>141</out>
						<pproTicksIn>660441600000</pproTicksIn>
						<pproTicksOut>1432650240000</pproTicksOut>
						<file id="file-129"/>
						<sourcetrack>
							<mediatype>audio</mediatype>
							<trackindex>1</trackindex>
						</sourcetrack>
							<filter>
								<effect>
									<name>Audio Levels</name>
									<effectid>audiolevels</effectid>
									<effectcategory>audiolevels</effectcategory>
									<effecttype>audiolevels</effecttype>
									<mediatype>audio</mediatype>
									<parameter authoringApp="PremierePro">
										<parameterid>level</parameterid>
										<name>Level</name>
										<valuemin>0</valuemin>
										<valuemax>3.98109</valuemax>
										<value>0.629462</value>
									</parameter>
								</effect>
							</filter>
						<link>
							<linkclipref>clipitem-2751</linkclipref>
							<mediatype>audio</mediatype>
							<trackindex>19</trackindex>
							<clipindex>43</clipindex>
							<groupindex>1</groupindex>
						</link>
						<link>
							<linkclipref>clipitem-2849</linkclipref>
							<mediatype>audio</mediatype>
							<trackindex>20</trackindex>
							<clipindex>38</clipindex>
							<groupindex>1</groupindex>
						</link>
						<logginginfo>
							<description></description>
							<scene></scene>
							<shottake></shottake>
							<lognote></lognote>
						</logginginfo>
						<labels>
							<label2>Caribbean</label2>
						</labels>
					</clipitem>
					<clipitem id="clipitem-2752" premiereChannelType="stereo">
						<masterclipid>masterclip-134</masterclipid>
						<name>Applaus høflig.wav</name>
						<enabled>TRUE</enabled>
						<duration>225</duration>
						<rate>
							<timebase>25</timebase>
							<ntsc>FALSE</ntsc>
						</rate>
						<start>13835</start>
						<end>13916</end>
						<in>0</in>
						<out>81</out>
						<pproTicksIn>0</pproTicksIn>
						<pproTicksOut>823011840000</pproTicksOut>
						<file id="file-130">
							<name>Applaus høflig.wav</name>
							<pathurl>file://localhost/Volumes/Brakka/AdobeLager/QUIZ%20-%20brakka/RA%cc%8aSTOFF%20LYD/Publikumsreaksjoner/Fra%201986/Applaus%20h%c3%b8flig.wav</pathurl>
							<rate>
								<timebase>30</timebase>
								<ntsc>TRUE</ntsc>
							</rate>
							<duration>269</duration>
							<timecode>
								<rate>
									<timebase>30</timebase>
									<ntsc>TRUE</ntsc>
								</rate>
								<string>15;04;07;07</string>
								<frame>1625789</frame>
								<displayformat>DF</displayformat>
								<reel>
									<name></name>
								</reel>
							</timecode>
							<media>
								<audio>
									<samplecharacteristics>
										<depth>16</depth>
										<samplerate>48000</samplerate>
									</samplecharacteristics>
									<channelcount>2</channelcount>
								</audio>
							</media>
						</file>
						<sourcetrack>
							<mediatype>audio</mediatype>
							<trackindex>1</trackindex>
						</sourcetrack>
						<link>
							<linkclipref>clipitem-2752</linkclipref>
							<mediatype>audio</mediatype>
							<trackindex>19</trackindex>
							<clipindex>44</clipindex>
							<groupindex>1</groupindex>
						</link>
						<link>
							<linkclipref>clipitem-2850</linkclipref>
							<mediatype>audio</mediatype>
							<trackindex>20</trackindex>
							<clipindex>39</clipindex>
							<groupindex>1</groupindex>
						</link>
						<logginginfo>
							<description></description>
							<scene></scene>
							<shottake></shottake>
							<lognote></lognote>
						</logginginfo>
						<labels>
							<label2>Caribbean</label2>
						</labels>
					</clipitem>
					<clipitem id="clipitem-2753" premiereChannelType="stereo">
						<masterclipid>masterclip-134</masterclipid>
						<name>Applaus høflig.wav</name>
						<enabled>TRUE</enabled>
						<duration>225</duration>
						<rate>
							<timebase>25</timebase>
							<ntsc>FALSE</ntsc>
						</rate>
						<start>13916</start>
						<end>13988</end>
						<in>153</in>
						<out>225</out>
						<pproTicksIn>1554577920000</pproTicksIn>
						<pproTicksOut>2286144000000</pproTicksOut>
						<file id="file-130"/>
						<sourcetrack>
							<mediatype>audio</mediatype>
							<trackindex>1</trackindex>
						</sourcetrack>
						<link>
							<linkclipref>clipitem-2753</linkclipref>
							<mediatype>audio</mediatype>
							<trackindex>19</trackindex>
							<clipindex>45</clipindex>
							<groupindex>1</groupindex>
						</link>
						<link>
							<linkclipref>clipitem-2851</linkclipref>
							<mediatype>audio</mediatype>
							<trackindex>20</trackindex>
							<clipindex>40</clipindex>
							<groupindex>1</groupindex>
						</link>
						<logginginfo>
							<description></description>
							<scene></scene>
							<shottake></shottake>
							<lognote></lognote>
						</logginginfo>
						<labels>
							<label2>Caribbean</label2>
						</labels>
					</clipitem>
					<clipitem id="clipitem-2754" premiereChannelType="stereo">
						<masterclipid>masterclip-101</masterclipid>
						<name>Latter kort litt klapping.wav</name>
						<enabled>TRUE</enabled>
						<duration>68</duration>
						<rate>
							<timebase>25</timebase>
							<ntsc>FALSE</ntsc>
						</rate>
						<start>15173</start>
						<end>15241</end>
						<in>0</in>
						<out>68</out>
						<pproTicksIn>0</pproTicksIn>
						<pproTicksOut>690923520000</pproTicksOut>
						<file id="file-97"/>
						<sourcetrack>
							<mediatype>audio</mediatype>
							<trackindex>1</trackindex>
						</sourcetrack>
						<link>
							<linkclipref>clipitem-2754</linkclipref>
							<mediatype>audio</mediatype>
							<trackindex>19</trackindex>
							<clipindex>46</clipindex>
							<groupindex>1</groupindex>
						</link>
						<link>
							<linkclipref>clipitem-2852</linkclipref>
							<mediatype>audio</mediatype>
							<trackindex>20</trackindex>
							<clipindex>41</clipindex>
							<groupindex>1</groupindex>
						</link>
						<logginginfo>
							<description></description>
							<scene></scene>
							<shottake></shottake>
							<lognote></lognote>
						</logginginfo>
						<labels>
							<label2>Caribbean</label2>
						</labels>
					</clipitem>
					<clipitem id="clipitem-2755" premiereChannelType="stereo">
						<masterclipid>masterclip-135</masterclipid>
						<name>Overrasket latter, applaus.wav</name>
						<enabled>TRUE</enabled>
						<duration>189</duration>
						<rate>
							<timebase>25</timebase>
							<ntsc>FALSE</ntsc>
						</rate>
						<start>16185</start>
						<end>16204</end>
						<in>75</in>
						<out>94</out>
						<pproTicksIn>762048000000</pproTicksIn>
						<pproTicksOut>955100160000</pproTicksOut>
						<file id="file-131">
							<name>Overrasket latter, applaus.wav</name>
							<pathurl>file://localhost/Volumes/Brakka/AdobeLager/QUIZ%20-%20brakka/RA%cc%8aSTOFF%20LYD/Publikumsreaksjoner/Fra%201980/Overrasket%20latter,%20applaus.wav</pathurl>
							<rate>
								<timebase>30</timebase>
								<ntsc>TRUE</ntsc>
							</rate>
							<duration>227</duration>
							<timecode>
								<rate>
									<timebase>30</timebase>
									<ntsc>TRUE</ntsc>
								</rate>
								<string>12;58;20;20</string>
								<frame>1399618</frame>
								<displayformat>DF</displayformat>
								<reel>
									<name></name>
								</reel>
							</timecode>
							<media>
								<audio>
									<samplecharacteristics>
										<depth>16</depth>
										<samplerate>48000</samplerate>
									</samplecharacteristics>
									<channelcount>2</channelcount>
								</audio>
							</media>
						</file>
						<sourcetrack>
							<mediatype>audio</mediatype>
							<trackindex>1</trackindex>
						</sourcetrack>
						<link>
							<linkclipref>clipitem-2755</linkclipref>
							<mediatype>audio</mediatype>
							<trackindex>19</trackindex>
							<clipindex>47</clipindex>
							<groupindex>1</groupindex>
						</link>
						<link>
							<linkclipref>clipitem-2853</linkclipref>
							<mediatype>audio</mediatype>
							<trackindex>20</trackindex>
							<clipindex>42</clipindex>
							<groupindex>1</groupindex>
						</link>
						<logginginfo>
							<description></description>
							<scene></scene>
							<shottake></shottake>
							<lognote></lognote>
						</logginginfo>
						<labels>
							<label2>Caribbean</label2>
						</labels>
					</clipitem>
					<clipitem id="clipitem-2756" premiereChannelType="stereo">
						<masterclipid>masterclip-135</masterclipid>
						<name>Overrasket latter, applaus.wav</name>
						<enabled>TRUE</enabled>
						<duration>189</duration>
						<rate>
							<timebase>25</timebase>
							<ntsc>FALSE</ntsc>
						</rate>
						<start>16204</start>
						<end>16300</end>
						<in>94</in>
						<out>190</out>
						<pproTicksIn>955100160000</pproTicksIn>
						<pproTicksOut>1930521600000</pproTicksOut>
						<file id="file-131"/>
						<sourcetrack>
							<mediatype>audio</mediatype>
							<trackindex>1</trackindex>
						</sourcetrack>
						<link>
							<linkclipref>clipitem-2756</linkclipref>
							<mediatype>audio</mediatype>
							<trackindex>19</trackindex>
							<clipindex>48</clipindex>
							<groupindex>1</groupindex>
						</link>
						<link>
							<linkclipref>clipitem-2854</linkclipref>
							<mediatype>audio</mediatype>
							<trackindex>20</trackindex>
							<clipindex>43</clipindex>
							<groupindex>1</groupindex>
						</link>
						<logginginfo>
							<description></description>
							<scene></scene>
							<shottake></shottake>
							<lognote></lognote>
						</logginginfo>
						<labels>
							<label2>Caribbean</label2>
						</labels>
					</clipitem>
					<clipitem id="clipitem-2757" premiereChannelType="stereo">
						<masterclipid>masterclip-92</masterclipid>
						<name>Hjertelig klukklatter.wav</name>
						<enabled>TRUE</enabled>
						<duration>55</duration>
						<rate>
							<timebase>25</timebase>
							<ntsc>FALSE</ntsc>
						</rate>
						<start>17389</start>
						<end>17444</end>
						<in>0</in>
						<out>55</out>
						<pproTicksIn>0</pproTicksIn>
						<pproTicksOut>558835200000</pproTicksOut>
						<file id="file-88"/>
						<sourcetrack>
							<mediatype>audio</mediatype>
							<trackindex>1</trackindex>
						</sourcetrack>
							<filter>
								<effect>
									<name>Audio Levels</name>
									<effectid>audiolevels</effectid>
									<effectcategory>audiolevels</effectcategory>
									<effecttype>audiolevels</effecttype>
									<mediatype>audio</mediatype>
									<parameter authoringApp="PremierePro">
										<parameterid>level</parameterid>
										<name>Level</name>
										<valuemin>0</valuemin>
										<valuemax>3.98109</valuemax>
										<value>0.99763</value>
									</parameter>
								</effect>
							</filter>
						<link>
							<linkclipref>clipitem-2757</linkclipref>
							<mediatype>audio</mediatype>
							<trackindex>19</trackindex>
							<clipindex>49</clipindex>
							<groupindex>1</groupindex>
						</link>
						<link>
							<linkclipref>clipitem-2855</linkclipref>
							<mediatype>audio</mediatype>
							<trackindex>20</trackindex>
							<clipindex>44</clipindex>
							<groupindex>1</groupindex>
						</link>
						<logginginfo>
							<description></description>
							<scene></scene>
							<shottake></shottake>
							<lognote></lognote>
						</logginginfo>
						<labels>
							<label2>Caribbean</label2>
						</labels>
					</clipitem>
					<clipitem id="clipitem-2758" premiereChannelType="stereo">
						<masterclipid>masterclip-136</masterclipid>
						<name>Gøyal latter med medium applaus.wav</name>
						<enabled>TRUE</enabled>
						<duration>221</duration>
						<rate>
							<timebase>25</timebase>
							<ntsc>FALSE</ntsc>
						</rate>
						<start>17751</start>
						<end>17783</end>
						<in>0</in>
						<out>32</out>
						<pproTicksIn>0</pproTicksIn>
						<pproTicksOut>325140480000</pproTicksOut>
						<file id="file-132">
							<name>Gøyal latter med medium applaus.wav</name>
							<pathurl>file://localhost/Volumes/Brakka/AdobeLager/QUIZ%20-%20brakka/RA%cc%8aSTOFF%20LYD/Publikumsreaksjoner/Fra%201998/G%c3%b8yal%20latter%20med%20medium%20applaus.wav</pathurl>
							<rate>
								<timebase>30</timebase>
								<ntsc>TRUE</ntsc>
							</rate>
							<duration>265</duration>
							<timecode>
								<rate>
									<timebase>30</timebase>
									<ntsc>TRUE</ntsc>
								</rate>
								<string>12;52;56;16</string>
								<frame>1389906</frame>
								<displayformat>DF</displayformat>
								<reel>
									<name></name>
								</reel>
							</timecode>
							<media>
								<audio>
									<samplecharacteristics>
										<depth>16</depth>
										<samplerate>48000</samplerate>
									</samplecharacteristics>
									<channelcount>2</channelcount>
								</audio>
							</media>
						</file>
						<sourcetrack>
							<mediatype>audio</mediatype>
							<trackindex>1</trackindex>
						</sourcetrack>
						<link>
							<linkclipref>clipitem-2758</linkclipref>
							<mediatype>audio</mediatype>
							<trackindex>19</trackindex>
							<clipindex>50</clipindex>
							<groupindex>1</groupindex>
						</link>
						<link>
							<linkclipref>clipitem-2856</linkclipref>
							<mediatype>audio</mediatype>
							<trackindex>20</trackindex>
							<clipindex>45</clipindex>
							<groupindex>1</groupindex>
						</link>
						<logginginfo>
							<description></description>
							<scene></scene>
							<shottake></shottake>
							<lognote></lognote>
						</logginginfo>
						<labels>
							<label2>Caribbean</label2>
						</labels>
					</clipitem>
					<clipitem id="clipitem-2759" premiereChannelType="stereo">
						<masterclipid>masterclip-93</masterclipid>
						<name>Kort artigere latterkule.wav</name>
						<enabled>TRUE</enabled>
						<duration>57</duration>
						<rate>
							<timebase>25</timebase>
							<ntsc>FALSE</ntsc>
						</rate>
						<start>17893</start>
						<end>17950</end>
						<in>0</in>
						<out>57</out>
						<pproTicksIn>0</pproTicksIn>
						<pproTicksOut>579156480000</pproTicksOut>
						<file id="file-89"/>
						<sourcetrack>
							<mediatype>audio</mediatype>
							<trackindex>1</trackindex>
						</sourcetrack>
							<filter>
								<effect>
									<name>Audio Levels</name>
									<effectid>audiolevels</effectid>
									<effectcategory>audiolevels</effectcategory>
									<effecttype>audiolevels</effecttype>
									<mediatype>audio</mediatype>
									<parameter authoringApp="PremierePro">
										<parameterid>level</parameterid>
										<name>Level</name>
										<valuemin>0</valuemin>
										<valuemax>3.98109</valuemax>
										<value>0.99763</value>
									</parameter>
								</effect>
							</filter>
						<link>
							<linkclipref>clipitem-2759</linkclipref>
							<mediatype>audio</mediatype>
							<trackindex>19</trackindex>
							<clipindex>51</clipindex>
							<groupindex>1</groupindex>
						</link>
						<link>
							<linkclipref>clipitem-2857</linkclipref>
							<mediatype>audio</mediatype>
							<trackindex>20</trackindex>
							<clipindex>46</clipindex>
							<groupindex>1</groupindex>
						</link>
						<logginginfo>
							<description></description>
							<scene></scene>
							<shottake></shottake>
							<lognote></lognote>
						</logginginfo>
						<labels>
							<label2>Caribbean</label2>
						</labels>
					</clipitem>
					<transitionitem>
						<start>19750</start>
						<end>19763</end>
						<alignment>start-black</alignment>
						<cutPointTicks>0</cutPointTicks>
						<rate>
							<timebase>25</timebase>
							<ntsc>FALSE</ntsc>
						</rate>
						<effect>
							<name>Cross Fade (+3dB)</name>
							<effectid>KGAudioTransCrossFade3dB</effectid>
							<effecttype>transition</effecttype>
							<mediatype>audio</mediatype>
							<wipecode>0</wipecode>
							<wipeaccuracy>100</wipeaccuracy>
							<startratio>0</startratio>
							<endratio>1</endratio>
							<reverse>FALSE</reverse>
						</effect>
					</transitionitem>
					<clipitem id="clipitem-2760" premiereChannelType="mono">
						<masterclipid>masterclip-31</masterclipid>
						<name>FK-05-alarmprisen05-r.mxf</name>
						<enabled>TRUE</enabled>
						<duration>11696</duration>
						<rate>
							<timebase>25</timebase>
							<ntsc>FALSE</ntsc>
						</rate>
						<start>-1</start>
						<end>19890</end>
						<in>5287</in>
						<out>5427</out>
						<pproTicksIn>53719303680000</pproTicksIn>
						<pproTicksOut>55141793280000</pproTicksOut>
						<file id="file-27"/>
						<sourcetrack>
							<mediatype>audio</mediatype>
							<trackindex>1</trackindex>
						</sourcetrack>
						<logginginfo>
							<description></description>
							<scene></scene>
							<shottake></shottake>
							<lognote></lognote>
						</logginginfo>
						<labels>
							<label2>Iris</label2>
						</labels>
					</clipitem>
					<clipitem id="clipitem-2761" premiereChannelType="stereo">
						<masterclipid>masterclip-136</masterclipid>
						<name>Gøyal latter med medium applaus.wav</name>
						<enabled>TRUE</enabled>
						<duration>221</duration>
						<rate>
							<timebase>25</timebase>
							<ntsc>FALSE</ntsc>
						</rate>
						<start>22094</start>
						<end>22315</end>
						<in>0</in>
						<out>221</out>
						<pproTicksIn>0</pproTicksIn>
						<pproTicksOut>2245501440000</pproTicksOut>
						<file id="file-132"/>
						<sourcetrack>
							<mediatype>audio</mediatype>
							<trackindex>1</trackindex>
						</sourcetrack>
							<filter>
								<effect>
									<name>Audio Levels</name>
									<effectid>audiolevels</effectid>
									<effectcategory>audiolevels</effectcategory>
									<effecttype>audiolevels</effecttype>
									<mediatype>audio</mediatype>
									<parameter authoringApp="PremierePro">
										<parameterid>level</parameterid>
										<name>Level</name>
										<valuemin>0</valuemin>
										<valuemax>3.98109</valuemax>
										<value>1.24195</value>
									</parameter>
								</effect>
							</filter>
						<link>
							<linkclipref>clipitem-2761</linkclipref>
							<mediatype>audio</mediatype>
							<trackindex>19</trackindex>
							<clipindex>54</clipindex>
							<groupindex>1</groupindex>
						</link>
						<link>
							<linkclipref>clipitem-2858</linkclipref>
							<mediatype>audio</mediatype>
							<trackindex>20</trackindex>
							<clipindex>47</clipindex>
							<groupindex>1</groupindex>
						</link>
						<logginginfo>
							<description></description>
							<scene></scene>
							<shottake></shottake>
							<lognote></lognote>
						</logginginfo>
						<labels>
							<label2>Caribbean</label2>
						</labels>
					</clipitem>
					<clipitem id="clipitem-2762" premiereChannelType="stereo">
						<masterclipid>masterclip-96</masterclipid>
						<name>Klukking, humring.wav</name>
						<enabled>TRUE</enabled>
						<duration>61</duration>
						<rate>
							<timebase>25</timebase>
							<ntsc>FALSE</ntsc>
						</rate>
						<start>22714</start>
						<end>22775</end>
						<in>0</in>
						<out>61</out>
						<pproTicksIn>0</pproTicksIn>
						<pproTicksOut>619799040000</pproTicksOut>
						<file id="file-92"/>
						<sourcetrack>
							<mediatype>audio</mediatype>
							<trackindex>1</trackindex>
						</sourcetrack>
							<filter>
								<effect>
									<name>Audio Levels</name>
									<effectid>audiolevels</effectid>
									<effectcategory>audiolevels</effectcategory>
									<effecttype>audiolevels</effecttype>
									<mediatype>audio</mediatype>
									<parameter authoringApp="PremierePro">
										<parameterid>level</parameterid>
										<name>Level</name>
										<valuemin>0</valuemin>
										<valuemax>3.98109</valuemax>
										<value>0.99763</value>
									</parameter>
								</effect>
							</filter>
						<link>
							<linkclipref>clipitem-2762</linkclipref>
							<mediatype>audio</mediatype>
							<trackindex>19</trackindex>
							<clipindex>55</clipindex>
							<groupindex>1</groupindex>
						</link>
						<link>
							<linkclipref>clipitem-2859</linkclipref>
							<mediatype>audio</mediatype>
							<trackindex>20</trackindex>
							<clipindex>48</clipindex>
							<groupindex>1</groupindex>
						</link>
						<logginginfo>
							<description></description>
							<scene></scene>
							<shottake></shottake>
							<lognote></lognote>
						</logginginfo>
						<labels>
							<label2>Caribbean</label2>
						</labels>
					</clipitem>
					<clipitem id="clipitem-2763" premiereChannelType="stereo">
						<masterclipid>masterclip-112</masterclipid>
						<name>Latter uryddig med litt applaus 9sek.wav</name>
						<enabled>TRUE</enabled>
						<duration>234</duration>
						<rate>
							<timebase>25</timebase>
							<ntsc>FALSE</ntsc>
						</rate>
						<start>23877</start>
						<end>24111</end>
						<in>0</in>
						<out>234</out>
						<pproTicksIn>0</pproTicksIn>
						<pproTicksOut>2377589760000</pproTicksOut>
						<file id="file-108"/>
						<sourcetrack>
							<mediatype>audio</mediatype>
							<trackindex>1</trackindex>
						</sourcetrack>
						<link>
							<linkclipref>clipitem-2763</linkclipref>
							<mediatype>audio</mediatype>
							<trackindex>19</trackindex>
							<clipindex>56</clipindex>
							<groupindex>1</groupindex>
						</link>
						<link>
							<linkclipref>clipitem-2860</linkclipref>
							<mediatype>audio</mediatype>
							<trackindex>20</trackindex>
							<clipindex>49</clipindex>
							<groupindex>1</groupindex>
						</link>
						<logginginfo>
							<description></description>
							<scene></scene>
							<shottake></shottake>
							<lognote></lognote>
						</logginginfo>
						<labels>
							<label2>Caribbean</label2>
						</labels>
					</clipitem>
					<clipitem id="clipitem-2764" premiereChannelType="stereo">
						<masterclipid>masterclip-137</masterclipid>
						<name>Lett latter, applaus.wav</name>
						<enabled>TRUE</enabled>
						<duration>154</duration>
						<rate>
							<timebase>25</timebase>
							<ntsc>FALSE</ntsc>
						</rate>
						<start>24136</start>
						<end>24290</end>
						<in>0</in>
						<out>154</out>
						<pproTicksIn>0</pproTicksIn>
						<pproTicksOut>1564738560000</pproTicksOut>
						<file id="file-133">
							<name>Lett latter, applaus.wav</name>
							<pathurl>file://localhost/Volumes/Brakka/AdobeLager/QUIZ%20-%20brakka/RA%cc%8aSTOFF%20LYD/Publikumsreaksjoner/Fra%201975/Lett%20latter,%20applaus.wav</pathurl>
							<rate>
								<timebase>30</timebase>
								<ntsc>TRUE</ntsc>
							</rate>
							<duration>185</duration>
							<timecode>
								<rate>
									<timebase>30</timebase>
									<ntsc>TRUE</ntsc>
								</rate>
								<string>13;00;10;25</string>
								<frame>1402921</frame>
								<displayformat>DF</displayformat>
								<reel>
									<name></name>
								</reel>
							</timecode>
							<media>
								<audio>
									<samplecharacteristics>
										<depth>16</depth>
										<samplerate>48000</samplerate>
									</samplecharacteristics>
									<channelcount>2</channelcount>
								</audio>
							</media>
						</file>
						<sourcetrack>
							<mediatype>audio</mediatype>
							<trackindex>1</trackindex>
						</sourcetrack>
						<link>
							<linkclipref>clipitem-2764</linkclipref>
							<mediatype>audio</mediatype>
							<trackindex>19</trackindex>
							<clipindex>57</clipindex>
							<groupindex>1</groupindex>
						</link>
						<link>
							<linkclipref>clipitem-2861</linkclipref>
							<mediatype>audio</mediatype>
							<trackindex>20</trackindex>
							<clipindex>50</clipindex>
							<groupindex>1</groupindex>
						</link>
						<logginginfo>
							<description></description>
							<scene></scene>
							<shottake></shottake>
							<lognote></lognote>
						</logginginfo>
						<labels>
							<label2>Caribbean</label2>
						</labels>
					</clipitem>
					<clipitem id="clipitem-2765" premiereChannelType="stereo">
						<masterclipid>masterclip-120</masterclipid>
						<name>Applaus 7 sek.wav</name>
						<enabled>TRUE</enabled>
						<duration>182</duration>
						<rate>
							<timebase>25</timebase>
							<ntsc>FALSE</ntsc>
						</rate>
						<start>25273</start>
						<end>25455</end>
						<in>0</in>
						<out>182</out>
						<pproTicksIn>0</pproTicksIn>
						<pproTicksOut>1849236480000</pproTicksOut>
						<file id="file-116"/>
						<sourcetrack>
							<mediatype>audio</mediatype>
							<trackindex>1</trackindex>
						</sourcetrack>
						<link>
							<linkclipref>clipitem-2765</linkclipref>
							<mediatype>audio</mediatype>
							<trackindex>19</trackindex>
							<clipindex>58</clipindex>
							<groupindex>1</groupindex>
						</link>
						<link>
							<linkclipref>clipitem-2862</linkclipref>
							<mediatype>audio</mediatype>
							<trackindex>20</trackindex>
							<clipindex>51</clipindex>
							<groupindex>1</groupindex>
						</link>
						<logginginfo>
							<description></description>
							<scene></scene>
							<shottake></shottake>
							<lognote></lognote>
						</logginginfo>
						<labels>
							<label2>Caribbean</label2>
						</labels>
					</clipitem>
					<clipitem id="clipitem-2766" premiereChannelType="stereo">
						<masterclipid>masterclip-138</masterclipid>
						<name>Latter kort 2.wav</name>
						<enabled>TRUE</enabled>
						<duration>87</duration>
						<rate>
							<timebase>25</timebase>
							<ntsc>FALSE</ntsc>
						</rate>
						<start>25719</start>
						<end>25806</end>
						<in>0</in>
						<out>87</out>
						<pproTicksIn>0</pproTicksIn>
						<pproTicksOut>883975680000</pproTicksOut>
						<file id="file-134">
							<name>Latter kort 2.wav</name>
							<pathurl>file://localhost/Volumes/Brakka/AdobeLager/QUIZ%20-%20brakka/RA%cc%8aSTOFF%20LYD/Publikumsreaksjoner/Fra%201990/Latter%20kort%202.wav</pathurl>
							<rate>
								<timebase>30</timebase>
								<ntsc>TRUE</ntsc>
							</rate>
							<duration>104</duration>
							<timecode>
								<rate>
									<timebase>30</timebase>
									<ntsc>TRUE</ntsc>
								</rate>
								<string>13;00;24;07</string>
								<frame>1403323</frame>
								<displayformat>DF</displayformat>
								<reel>
									<name></name>
								</reel>
							</timecode>
							<media>
								<audio>
									<samplecharacteristics>
										<depth>16</depth>
										<samplerate>48000</samplerate>
									</samplecharacteristics>
									<channelcount>2</channelcount>
								</audio>
							</media>
						</file>
						<sourcetrack>
							<mediatype>audio</mediatype>
							<trackindex>1</trackindex>
						</sourcetrack>
						<link>
							<linkclipref>clipitem-2766</linkclipref>
							<mediatype>audio</mediatype>
							<trackindex>19</trackindex>
							<clipindex>59</clipindex>
							<groupindex>1</groupindex>
						</link>
						<link>
							<linkclipref>clipitem-2863</linkclipref>
							<mediatype>audio</mediatype>
							<trackindex>20</trackindex>
							<clipindex>52</clipindex>
							<groupindex>1</groupindex>
						</link>
						<logginginfo>
							<description></description>
							<scene></scene>
							<shottake></shottake>
							<lognote></lognote>
						</logginginfo>
						<labels>
							<label2>Caribbean</label2>
						</labels>
					</clipitem>
					<clipitem id="clipitem-2767" premiereChannelType="stereo">
						<masterclipid>masterclip-139</masterclipid>
						<name>Applaus, litt plystring.wav</name>
						<enabled>TRUE</enabled>
						<duration>177</duration>
						<rate>
							<timebase>25</timebase>
							<ntsc>FALSE</ntsc>
						</rate>
						<start>27433</start>
						<end>27610</end>
						<in>0</in>
						<out>177</out>
						<pproTicksIn>0</pproTicksIn>
						<pproTicksOut>1798433280000</pproTicksOut>
						<file id="file-135">
							<name>Applaus, litt plystring.wav</name>
							<pathurl>file://localhost/Volumes/Brakka/AdobeLager/QUIZ%20-%20brakka/RA%cc%8aSTOFF%20LYD/Publikumsreaksjoner/Fra%201975/Applaus,%20litt%20plystring.wav</pathurl>
							<rate>
								<timebase>30</timebase>
								<ntsc>TRUE</ntsc>
							</rate>
							<duration>212</duration>
							<timecode>
								<rate>
									<timebase>30</timebase>
									<ntsc>TRUE</ntsc>
								</rate>
								<string>13;15;27;21</string>
								<frame>1430399</frame>
								<displayformat>DF</displayformat>
								<reel>
									<name></name>
								</reel>
							</timecode>
							<media>
								<audio>
									<samplecharacteristics>
										<depth>16</depth>
										<samplerate>48000</samplerate>
									</samplecharacteristics>
									<channelcount>2</channelcount>
								</audio>
							</media>
						</file>
						<sourcetrack>
							<mediatype>audio</mediatype>
							<trackindex>1</trackindex>
						</sourcetrack>
							<filter>
								<effect>
									<name>Audio Levels</name>
									<effectid>audiolevels</effectid>
									<effectcategory>audiolevels</effectcategory>
									<effecttype>audiolevels</effecttype>
									<mediatype>audio</mediatype>
									<parameter authoringApp="PremierePro">
										<parameterid>level</parameterid>
										<name>Level</name>
										<valuemin>0</valuemin>
										<valuemax>3.98109</valuemax>
										<value>1.08077</value>
									</parameter>
								</effect>
							</filter>
						<link>
							<linkclipref>clipitem-2767</linkclipref>
							<mediatype>audio</mediatype>
							<trackindex>19</trackindex>
							<clipindex>60</clipindex>
							<groupindex>1</groupindex>
						</link>
						<link>
							<linkclipref>clipitem-2864</linkclipref>
							<mediatype>audio</mediatype>
							<trackindex>20</trackindex>
							<clipindex>53</clipindex>
							<groupindex>1</groupindex>
						</link>
						<logginginfo>
							<description></description>
							<scene></scene>
							<shottake></shottake>
							<lognote></lognote>
						</logginginfo>
						<labels>
							<label2>Caribbean</label2>
						</labels>
					</clipitem>
					<clipitem id="clipitem-2768" premiereChannelType="stereo">
						<masterclipid>masterclip-140</masterclipid>
						<name>Mellomlang liten latter.wav</name>
						<enabled>TRUE</enabled>
						<duration>105</duration>
						<rate>
							<timebase>25</timebase>
							<ntsc>FALSE</ntsc>
						</rate>
						<start>28403</start>
						<end>28508</end>
						<in>0</in>
						<out>105</out>
						<pproTicksIn>0</pproTicksIn>
						<pproTicksOut>1066867200000</pproTicksOut>
						<file id="file-136">
							<name>Mellomlang liten latter.wav</name>
							<pathurl>file://localhost/Volumes/Brakka/AdobeLager/QUIZ%20-%20brakka/RA%cc%8aSTOFF%20LYD/Publikumsreaksjoner/Fra%201980/Mellomlang%20liten%20latter.wav</pathurl>
							<rate>
								<timebase>30</timebase>
								<ntsc>TRUE</ntsc>
							</rate>
							<duration>126</duration>
							<timecode>
								<rate>
									<timebase>30</timebase>
									<ntsc>TRUE</ntsc>
								</rate>
								<string>13;51;09;24</string>
								<frame>1494598</frame>
								<displayformat>DF</displayformat>
								<reel>
									<name></name>
								</reel>
							</timecode>
							<media>
								<audio>
									<samplecharacteristics>
										<depth>16</depth>
										<samplerate>48000</samplerate>
									</samplecharacteristics>
									<channelcount>2</channelcount>
								</audio>
							</media>
						</file>
						<sourcetrack>
							<mediatype>audio</mediatype>
							<trackindex>1</trackindex>
						</sourcetrack>
						<link>
							<linkclipref>clipitem-2768</linkclipref>
							<mediatype>audio</mediatype>
							<trackindex>19</trackindex>
							<clipindex>61</clipindex>
							<groupindex>1</groupindex>
						</link>
						<link>
							<linkclipref>clipitem-2865</linkclipref>
							<mediatype>audio</mediatype>
							<trackindex>20</trackindex>
							<clipindex>54</clipindex>
							<groupindex>1</groupindex>
						</link>
						<logginginfo>
							<description></description>
							<scene></scene>
							<shottake></shottake>
							<lognote></lognote>
						</logginginfo>
						<labels>
							<label2>Caribbean</label2>
						</labels>
					</clipitem>
					<clipitem id="clipitem-2769" premiereChannelType="stereo">
						<masterclipid>masterclip-141</masterclipid>
						<name>Spredt overbærende latter.wav</name>
						<enabled>TRUE</enabled>
						<duration>81</duration>
						<rate>
							<timebase>25</timebase>
							<ntsc>FALSE</ntsc>
						</rate>
						<start>28537</start>
						<end>28618</end>
						<in>0</in>
						<out>81</out>
						<pproTicksIn>0</pproTicksIn>
						<pproTicksOut>823011840000</pproTicksOut>
						<file id="file-137">
							<name>Spredt overbærende latter.wav</name>
							<pathurl>file://localhost/Volumes/Brakka/AdobeLager/QUIZ%20-%20brakka/RA%cc%8aSTOFF%20LYD/Publikumsreaksjoner/Fra%201980/Spredt%20overb%c3%a6rende%20latter.wav</pathurl>
							<rate>
								<timebase>30</timebase>
								<ntsc>TRUE</ntsc>
							</rate>
							<duration>97</duration>
							<timecode>
								<rate>
									<timebase>30</timebase>
									<ntsc>TRUE</ntsc>
								</rate>
								<string>13;27;32;19</string>
								<frame>1452125</frame>
								<displayformat>DF</displayformat>
								<reel>
									<name></name>
								</reel>
							</timecode>
							<media>
								<audio>
									<samplecharacteristics>
										<depth>16</depth>
										<samplerate>48000</samplerate>
									</samplecharacteristics>
									<channelcount>2</channelcount>
								</audio>
							</media>
						</file>
						<sourcetrack>
							<mediatype>audio</mediatype>
							<trackindex>1</trackindex>
						</sourcetrack>
						<link>
							<linkclipref>clipitem-2769</linkclipref>
							<mediatype>audio</mediatype>
							<trackindex>19</trackindex>
							<clipindex>62</clipindex>
							<groupindex>1</groupindex>
						</link>
						<link>
							<linkclipref>clipitem-2866</linkclipref>
							<mediatype>audio</mediatype>
							<trackindex>20</trackindex>
							<clipindex>55</clipindex>
							<groupindex>1</groupindex>
						</link>
						<logginginfo>
							<description></description>
							<scene></scene>
							<shottake></shottake>
							<lognote></lognote>
						</logginginfo>
						<labels>
							<label2>Caribbean</label2>
						</labels>
					</clipitem>
					<clipitem id="clipitem-2770" premiereChannelType="stereo">
						<masterclipid>masterclip-142</masterclipid>
						<name>Kort artigere latterkule.wav</name>
						<enabled>TRUE</enabled>
						<duration>57</duration>
						<rate>
							<timebase>25</timebase>
							<ntsc>FALSE</ntsc>
						</rate>
						<start>29576</start>
						<end>29633</end>
						<in>0</in>
						<out>57</out>
						<pproTicksIn>0</pproTicksIn>
						<pproTicksOut>579156480000</pproTicksOut>
						<file id="file-138">
							<name>Kort artigere latterkule.wav</name>
							<pathurl>file://localhost/Volumes/Brakka/AdobeLager/QUIZ%20-%20brakka/RA%cc%8aSTOFF%20LYD/Publikumsreaksjoner/Fra%201998/Kort%20artigere%20latterkule.wav</pathurl>
							<rate>
								<timebase>30</timebase>
								<ntsc>TRUE</ntsc>
							</rate>
							<duration>68</duration>
							<timecode>
								<rate>
									<timebase>30</timebase>
									<ntsc>TRUE</ntsc>
								</rate>
								<string>14;04;08;08</string>
								<frame>1517928</frame>
								<displayformat>DF</displayformat>
								<reel>
									<name></name>
								</reel>
							</timecode>
							<media>
								<audio>
									<samplecharacteristics>
										<depth>16</depth>
										<samplerate>48000</samplerate>
									</samplecharacteristics>
									<channelcount>2</channelcount>
								</audio>
							</media>
						</file>
						<sourcetrack>
							<mediatype>audio</mediatype>
							<trackindex>1</trackindex>
						</sourcetrack>
						<link>
							<linkclipref>clipitem-2770</linkclipref>
							<mediatype>audio</mediatype>
							<trackindex>19</trackindex>
							<clipindex>63</clipindex>
							<groupindex>1</groupindex>
						</link>
						<link>
							<linkclipref>clipitem-2867</linkclipref>
							<mediatype>audio</mediatype>
							<trackindex>20</trackindex>
							<clipindex>56</clipindex>
							<groupindex>1</groupindex>
						</link>
						<logginginfo>
							<description></description>
							<scene></scene>
							<shottake></shottake>
							<lognote></lognote>
						</logginginfo>
						<labels>
							<label2>Caribbean</label2>
						</labels>
					</clipitem>
					<clipitem id="clipitem-2771" premiereChannelType="stereo">
						<masterclipid>masterclip-143</masterclipid>
						<name>Whoosh%20By%2007.wav</name>
						<enabled>TRUE</enabled>
						<duration>42</duration>
						<rate>
							<timebase>25</timebase>
							<ntsc>FALSE</ntsc>
						</rate>
						<start>29862</start>
						<end>29904</end>
						<in>0</in>
						<out>42</out>
						<pproTicksIn>0</pproTicksIn>
						<pproTicksOut>426746880000</pproTicksOut>
						<file id="file-139">
							<name>Whoosh%20By%2007.wav</name>
							<pathurl>file://localhost/Volumes/Brakka/AdobeLager/QUIZ%20-%20brakka/Musikk/Sound%20FX/Vignett/Whoosh%2520By%252007.wav</pathurl>
							<rate>
								<timebase>30</timebase>
								<ntsc>TRUE</ntsc>
							</rate>
							<duration>51</duration>
							<timecode>
								<rate>
									<timebase>30</timebase>
									<ntsc>TRUE</ntsc>
								</rate>
								<string>01;16;44;05</string>
								<frame>137987</frame>
								<displayformat>DF</displayformat>
								<reel>
									<name></name>
								</reel>
							</timecode>
							<media>
								<audio>
									<samplecharacteristics>
										<depth>16</depth>
										<samplerate>44100</samplerate>
									</samplecharacteristics>
									<channelcount>2</channelcount>
								</audio>
							</media>
						</file>
						<sourcetrack>
							<mediatype>audio</mediatype>
							<trackindex>1</trackindex>
						</sourcetrack>
							<filter>
								<effect>
									<name>Audio Levels</name>
									<effectid>audiolevels</effectid>
									<effectcategory>audiolevels</effectcategory>
									<effecttype>audiolevels</effecttype>
									<mediatype>audio</mediatype>
									<parameter authoringApp="PremierePro">
										<parameterid>level</parameterid>
										<name>Level</name>
										<valuemin>0</valuemin>
										<valuemax>3.98109</valuemax>
										<value>0.177406</value>
									</parameter>
								</effect>
							</filter>
						<link>
							<linkclipref>clipitem-2771</linkclipref>
							<mediatype>audio</mediatype>
							<trackindex>19</trackindex>
							<clipindex>64</clipindex>
							<groupindex>1</groupindex>
						</link>
						<link>
							<linkclipref>clipitem-2868</linkclipref>
							<mediatype>audio</mediatype>
							<trackindex>20</trackindex>
							<clipindex>57</clipindex>
							<groupindex>1</groupindex>
						</link>
						<logginginfo>
							<description></description>
							<scene></scene>
							<shottake></shottake>
							<lognote></lognote>
						</logginginfo>
						<labels>
							<label2>Caribbean</label2>
						</labels>
					</clipitem>
					<clipitem id="clipitem-2772" premiereChannelType="stereo">
						<masterclipid>masterclip-144</masterclipid>
						<name>Enkel, kort latter.wav</name>
						<enabled>TRUE</enabled>
						<duration>69</duration>
						<rate>
							<timebase>25</timebase>
							<ntsc>FALSE</ntsc>
						</rate>
						<start>30767</start>
						<end>30836</end>
						<in>0</in>
						<out>69</out>
						<pproTicksIn>0</pproTicksIn>
						<pproTicksOut>701084160000</pproTicksOut>
						<file id="file-140">
							<name>Enkel, kort latter.wav</name>
							<pathurl>file://localhost/Volumes/Brakka/AdobeLager/QUIZ%20-%20brakka/RA%cc%8aSTOFF%20LYD/Publikumsreaksjoner/Fra%201998/Enkel,%20kort%20latter.wav</pathurl>
							<rate>
								<timebase>30</timebase>
								<ntsc>TRUE</ntsc>
							</rate>
							<duration>83</duration>
							<timecode>
								<rate>
									<timebase>30</timebase>
									<ntsc>TRUE</ntsc>
								</rate>
								<string>12;54;32;06</string>
								<frame>1392772</frame>
								<displayformat>DF</displayformat>
								<reel>
									<name></name>
								</reel>
							</timecode>
							<media>
								<audio>
									<samplecharacteristics>
										<depth>16</depth>
										<samplerate>48000</samplerate>
									</samplecharacteristics>
									<channelcount>2</channelcount>
								</audio>
							</media>
						</file>
						<sourcetrack>
							<mediatype>audio</mediatype>
							<trackindex>1</trackindex>
						</sourcetrack>
						<link>
							<linkclipref>clipitem-2772</linkclipref>
							<mediatype>audio</mediatype>
							<trackindex>19</trackindex>
							<clipindex>65</clipindex>
							<groupindex>1</groupindex>
						</link>
						<link>
							<linkclipref>clipitem-2869</linkclipref>
							<mediatype>audio</mediatype>
							<trackindex>20</trackindex>
							<clipindex>58</clipindex>
							<groupindex>1</groupindex>
						</link>
						<logginginfo>
							<description></description>
							<scene></scene>
							<shottake></shottake>
							<lognote></lognote>
						</logginginfo>
						<labels>
							<label2>Caribbean</label2>
						</labels>
					</clipitem>
					<clipitem id="clipitem-2773" premiereChannelType="stereo">
						<masterclipid>masterclip-145</masterclipid>
						<name>Kort latter Hege.wav</name>
						<enabled>TRUE</enabled>
						<duration>77</duration>
						<rate>
							<timebase>25</timebase>
							<ntsc>FALSE</ntsc>
						</rate>
						<start>30836</start>
						<end>30914</end>
						<in>0</in>
						<out>78</out>
						<pproTicksIn>0</pproTicksIn>
						<pproTicksOut>792529920000</pproTicksOut>
						<file id="file-141">
							<name>Kort latter Hege.wav</name>
							<pathurl>file://localhost/Volumes/Brakka/AdobeLager/QUIZ%20-%20brakka/RA%cc%8aSTOFF%20LYD/Publikumsreaksjoner/Fra%201975/Kort%20latter%20Hege.wav</pathurl>
							<rate>
								<timebase>30</timebase>
								<ntsc>TRUE</ntsc>
							</rate>
							<duration>93</duration>
							<timecode>
								<rate>
									<timebase>30</timebase>
									<ntsc>TRUE</ntsc>
								</rate>
								<string>14;03;22;14</string>
								<frame>1516556</frame>
								<displayformat>DF</displayformat>
								<reel>
									<name></name>
								</reel>
							</timecode>
							<media>
								<audio>
									<samplecharacteristics>
										<depth>16</depth>
										<samplerate>48000</samplerate>
									</samplecharacteristics>
									<channelcount>2</channelcount>
								</audio>
							</media>
						</file>
						<sourcetrack>
							<mediatype>audio</mediatype>
							<trackindex>1</trackindex>
						</sourcetrack>
							<filter>
								<effect>
									<name>Audio Levels</name>
									<effectid>audiolevels</effectid>
									<effectcategory>audiolevels</effectcategory>
									<effecttype>audiolevels</effecttype>
									<mediatype>audio</mediatype>
									<parameter authoringApp="PremierePro">
										<parameterid>level</parameterid>
										<name>Level</name>
										<valuemin>0</valuemin>
										<valuemax>3.98109</valuemax>
										<value>0.99763</value>
									</parameter>
								</effect>
							</filter>
						<link>
							<linkclipref>clipitem-2773</linkclipref>
							<mediatype>audio</mediatype>
							<trackindex>19</trackindex>
							<clipindex>66</clipindex>
							<groupindex>1</groupindex>
						</link>
						<link>
							<linkclipref>clipitem-2870</linkclipref>
							<mediatype>audio</mediatype>
							<trackindex>20</trackindex>
							<clipindex>59</clipindex>
							<groupindex>1</groupindex>
						</link>
						<logginginfo>
							<description></description>
							<scene></scene>
							<shottake></shottake>
							<lognote></lognote>
						</logginginfo>
						<labels>
							<label2>Caribbean</label2>
						</labels>
					</clipitem>
					<clipitem id="clipitem-2774" premiereChannelType="stereo">
						<masterclipid>masterclip-146</masterclipid>
						<name>Brå liten latter HÆHÆ.wav</name>
						<enabled>TRUE</enabled>
						<duration>114</duration>
						<rate>
							<timebase>25</timebase>
							<ntsc>FALSE</ntsc>
						</rate>
						<start>31006</start>
						<end>31120</end>
						<in>0</in>
						<out>114</out>
						<pproTicksIn>0</pproTicksIn>
						<pproTicksOut>1158312960000</pproTicksOut>
						<file id="file-142">
							<name>Brå liten latter HÆHÆ.wav</name>
							<pathurl>file://localhost/Volumes/Brakka/AdobeLager/QUIZ%20-%20brakka/RA%cc%8aSTOFF%20LYD/Publikumsreaksjoner/Fra%201975/Bra%cc%8a%20liten%20latter%20H%c3%86H%c3%86.wav</pathurl>
							<rate>
								<timebase>30</timebase>
								<ntsc>TRUE</ntsc>
							</rate>
							<duration>136</duration>
							<timecode>
								<rate>
									<timebase>30</timebase>
									<ntsc>TRUE</ntsc>
								</rate>
								<string>14;30;40;19</string>
								<frame>1565653</frame>
								<displayformat>DF</displayformat>
								<reel>
									<name></name>
								</reel>
							</timecode>
							<media>
								<audio>
									<samplecharacteristics>
										<depth>16</depth>
										<samplerate>48000</samplerate>
									</samplecharacteristics>
									<channelcount>2</channelcount>
								</audio>
							</media>
						</file>
						<sourcetrack>
							<mediatype>audio</mediatype>
							<trackindex>1</trackindex>
						</sourcetrack>
							<filter>
								<effect>
									<name>Audio Levels</name>
									<effectid>audiolevels</effectid>
									<effectcategory>audiolevels</effectcategory>
									<effecttype>audiolevels</effecttype>
									<mediatype>audio</mediatype>
									<parameter authoringApp="PremierePro">
										<parameterid>level</parameterid>
										<name>Level</name>
										<valuemin>0</valuemin>
										<valuemax>3.98109</valuemax>
										<value>0.99763</value>
									</parameter>
								</effect>
							</filter>
						<link>
							<linkclipref>clipitem-2774</linkclipref>
							<mediatype>audio</mediatype>
							<trackindex>19</trackindex>
							<clipindex>67</clipindex>
							<groupindex>1</groupindex>
						</link>
						<link>
							<linkclipref>clipitem-2871</linkclipref>
							<mediatype>audio</mediatype>
							<trackindex>20</trackindex>
							<clipindex>60</clipindex>
							<groupindex>1</groupindex>
						</link>
						<logginginfo>
							<description></description>
							<scene></scene>
							<shottake></shottake>
							<lognote></lognote>
						</logginginfo>
						<labels>
							<label2>Caribbean</label2>
						</labels>
					</clipitem>
					<clipitem id="clipitem-2775" premiereChannelType="stereo">
						<masterclipid>masterclip-145</masterclipid>
						<name>Kort latter Hege.wav</name>
						<enabled>TRUE</enabled>
						<duration>77</duration>
						<rate>
							<timebase>25</timebase>
							<ntsc>FALSE</ntsc>
						</rate>
						<start>31273</start>
						<end>31350</end>
						<in>0</in>
						<out>77</out>
						<pproTicksIn>0</pproTicksIn>
						<pproTicksOut>782369280000</pproTicksOut>
						<file id="file-141"/>
						<sourcetrack>
							<mediatype>audio</mediatype>
							<trackindex>1</trackindex>
						</sourcetrack>
							<filter>
								<effect>
									<name>Audio Levels</name>
									<effectid>audiolevels</effectid>
									<effectcategory>audiolevels</effectcategory>
									<effecttype>audiolevels</effecttype>
									<mediatype>audio</mediatype>
									<parameter authoringApp="PremierePro">
										<parameterid>level</parameterid>
										<name>Level</name>
										<valuemin>0</valuemin>
										<valuemax>3.98109</valuemax>
										<value>0.99763</value>
									</parameter>
								</effect>
							</filter>
						<link>
							<linkclipref>clipitem-2775</linkclipref>
							<mediatype>audio</mediatype>
							<trackindex>19</trackindex>
							<clipindex>68</clipindex>
							<groupindex>1</groupindex>
						</link>
						<link>
							<linkclipref>clipitem-2872</linkclipref>
							<mediatype>audio</mediatype>
							<trackindex>20</trackindex>
							<clipindex>61</clipindex>
							<groupindex>1</groupindex>
						</link>
						<logginginfo>
							<description></description>
							<scene></scene>
							<shottake></shottake>
							<lognote></lognote>
						</logginginfo>
						<labels>
							<label2>Caribbean</label2>
						</labels>
					</clipitem>
					<clipitem id="clipitem-2776" premiereChannelType="stereo">
						<masterclipid>masterclip-147</masterclipid>
						<name>Kort, litt brå latter.wav</name>
						<enabled>TRUE</enabled>
						<duration>53</duration>
						<rate>
							<timebase>25</timebase>
							<ntsc>FALSE</ntsc>
						</rate>
						<start>31477</start>
						<end>31513</end>
						<in>0</in>
						<out>36</out>
						<pproTicksIn>0</pproTicksIn>
						<pproTicksOut>365783040000</pproTicksOut>
						<file id="file-143">
							<name>Kort, litt brå latter.wav</name>
							<pathurl>file://localhost/Volumes/Brakka/AdobeLager/QUIZ%20-%20brakka/RA%cc%8aSTOFF%20LYD/Publikumsreaksjoner/Fra%201975/Kort,%20litt%20bra%cc%8a%20latter.wav</pathurl>
							<rate>
								<timebase>30</timebase>
								<ntsc>TRUE</ntsc>
							</rate>
							<duration>63</duration>
							<timecode>
								<rate>
									<timebase>30</timebase>
									<ntsc>TRUE</ntsc>
								</rate>
								<string>13;56;58;24</string>
								<frame>1505058</frame>
								<displayformat>DF</displayformat>
								<reel>
									<name></name>
								</reel>
							</timecode>
							<media>
								<audio>
									<samplecharacteristics>
										<depth>16</depth>
										<samplerate>48000</samplerate>
									</samplecharacteristics>
									<channelcount>2</channelcount>
								</audio>
							</media>
						</file>
						<sourcetrack>
							<mediatype>audio</mediatype>
							<trackindex>1</trackindex>
						</sourcetrack>
							<filter>
								<effect>
									<name>Audio Levels</name>
									<effectid>audiolevels</effectid>
									<effectcategory>audiolevels</effectcategory>
									<effecttype>audiolevels</effecttype>
									<mediatype>audio</mediatype>
									<parameter authoringApp="PremierePro">
										<parameterid>level</parameterid>
										<name>Level</name>
										<valuemin>0</valuemin>
										<valuemax>3.98109</valuemax>
										<value>0.99763</value>
									</parameter>
								</effect>
							</filter>
						<link>
							<linkclipref>clipitem-2776</linkclipref>
							<mediatype>audio</mediatype>
							<trackindex>19</trackindex>
							<clipindex>69</clipindex>
							<groupindex>1</groupindex>
						</link>
						<link>
							<linkclipref>clipitem-2873</linkclipref>
							<mediatype>audio</mediatype>
							<trackindex>20</trackindex>
							<clipindex>62</clipindex>
							<groupindex>1</groupindex>
						</link>
						<logginginfo>
							<description></description>
							<scene></scene>
							<shottake></shottake>
							<lognote></lognote>
						</logginginfo>
						<labels>
							<label2>Caribbean</label2>
						</labels>
					</clipitem>
					<clipitem id="clipitem-2777" premiereChannelType="stereo">
						<masterclipid>masterclip-148</masterclipid>
						<name>Latter, så applaus.wav</name>
						<enabled>TRUE</enabled>
						<duration>241</duration>
						<rate>
							<timebase>25</timebase>
							<ntsc>FALSE</ntsc>
						</rate>
						<start>32241</start>
						<end>32298</end>
						<in>0</in>
						<out>57</out>
						<pproTicksIn>0</pproTicksIn>
						<pproTicksOut>579156480000</pproTicksOut>
						<file id="file-144">
							<name>Latter, så applaus.wav</name>
							<pathurl>file://localhost/Volumes/Brakka/AdobeLager/QUIZ%20-%20brakka/RA%cc%8aSTOFF%20LYD/Publikumsreaksjoner/Fra%201975/Latter,%20sa%cc%8a%20applaus.wav</pathurl>
							<rate>
								<timebase>30</timebase>
								<ntsc>TRUE</ntsc>
							</rate>
							<duration>288</duration>
							<timecode>
								<rate>
									<timebase>30</timebase>
									<ntsc>TRUE</ntsc>
								</rate>
								<string>13;52;49;02</string>
								<frame>1497574</frame>
								<displayformat>DF</displayformat>
								<reel>
									<name></name>
								</reel>
							</timecode>
							<media>
								<audio>
									<samplecharacteristics>
										<depth>16</depth>
										<samplerate>48000</samplerate>
									</samplecharacteristics>
									<channelcount>2</channelcount>
								</audio>
							</media>
						</file>
						<sourcetrack>
							<mediatype>audio</mediatype>
							<trackindex>1</trackindex>
						</sourcetrack>
							<filter>
								<effect>
									<name>Audio Levels</name>
									<effectid>audiolevels</effectid>
									<effectcategory>audiolevels</effectcategory>
									<effecttype>audiolevels</effecttype>
									<mediatype>audio</mediatype>
									<parameter authoringApp="PremierePro">
										<parameterid>level</parameterid>
										<name>Level</name>
										<valuemin>0</valuemin>
										<valuemax>3.98109</valuemax>
										<value>0.99763</value>
									</parameter>
								</effect>
							</filter>
						<link>
							<linkclipref>clipitem-2777</linkclipref>
							<mediatype>audio</mediatype>
							<trackindex>19</trackindex>
							<clipindex>70</clipindex>
							<groupindex>1</groupindex>
						</link>
						<link>
							<linkclipref>clipitem-2874</linkclipref>
							<mediatype>audio</mediatype>
							<trackindex>20</trackindex>
							<clipindex>63</clipindex>
							<groupindex>1</groupindex>
						</link>
						<logginginfo>
							<description></description>
							<scene></scene>
							<shottake></shottake>
							<lognote></lognote>
						</logginginfo>
						<labels>
							<label2>Caribbean</label2>
						</labels>
					</clipitem>
					<clipitem id="clipitem-2778" premiereChannelType="stereo">
						<masterclipid>masterclip-148</masterclipid>
						<name>Latter, så applaus.wav</name>
						<enabled>TRUE</enabled>
						<duration>241</duration>
						<rate>
							<timebase>25</timebase>
							<ntsc>FALSE</ntsc>
						</rate>
						<start>32298</start>
						<end>32451</end>
						<in>88</in>
						<out>241</out>
						<pproTicksIn>894136320000</pproTicksIn>
						<pproTicksOut>2448714240000</pproTicksOut>
						<file id="file-144"/>
						<sourcetrack>
							<mediatype>audio</mediatype>
							<trackindex>1</trackindex>
						</sourcetrack>
							<filter>
								<effect>
									<name>Audio Levels</name>
									<effectid>audiolevels</effectid>
									<effectcategory>audiolevels</effectcategory>
									<effecttype>audiolevels</effecttype>
									<mediatype>audio</mediatype>
									<parameter authoringApp="PremierePro">
										<parameterid>level</parameterid>
										<name>Level</name>
										<valuemin>0</valuemin>
										<valuemax>3.98109</valuemax>
										<value>0.99763</value>
									</parameter>
								</effect>
							</filter>
						<link>
							<linkclipref>clipitem-2778</linkclipref>
							<mediatype>audio</mediatype>
							<trackindex>19</trackindex>
							<clipindex>71</clipindex>
							<groupindex>1</groupindex>
						</link>
						<link>
							<linkclipref>clipitem-2875</linkclipref>
							<mediatype>audio</mediatype>
							<trackindex>20</trackindex>
							<clipindex>64</clipindex>
							<groupindex>1</groupindex>
						</link>
						<logginginfo>
							<description></description>
							<scene></scene>
							<shottake></shottake>
							<lognote></lognote>
						</logginginfo>
						<labels>
							<label2>Caribbean</label2>
						</labels>
					</clipitem>
					<clipitem id="clipitem-2779" premiereChannelType="stereo">
						<masterclipid>masterclip-149</masterclipid>
						<name>Kort latter blaut vits.wav</name>
						<enabled>TRUE</enabled>
						<duration>116</duration>
						<rate>
							<timebase>25</timebase>
							<ntsc>FALSE</ntsc>
						</rate>
						<start>32646</start>
						<end>32762</end>
						<in>0</in>
						<out>116</out>
						<pproTicksIn>0</pproTicksIn>
						<pproTicksOut>1178634240000</pproTicksOut>
						<file id="file-145">
							<name>Kort latter blaut vits.wav</name>
							<pathurl>file://localhost/Volumes/Brakka/AdobeLager/QUIZ%20-%20brakka/RA%cc%8aSTOFF%20LYD/Publikumsreaksjoner/Fra%201994/Kort%20latter%20blaut%20vits.wav</pathurl>
							<rate>
								<timebase>30</timebase>
								<ntsc>TRUE</ntsc>
							</rate>
							<duration>140</duration>
							<timecode>
								<rate>
									<timebase>30</timebase>
									<ntsc>TRUE</ntsc>
								</rate>
								<string>12;54;34;05</string>
								<frame>1392831</frame>
								<displayformat>DF</displayformat>
								<reel>
									<name></name>
								</reel>
							</timecode>
							<media>
								<audio>
									<samplecharacteristics>
										<depth>16</depth>
										<samplerate>48000</samplerate>
									</samplecharacteristics>
									<channelcount>2</channelcount>
								</audio>
							</media>
						</file>
						<sourcetrack>
							<mediatype>audio</mediatype>
							<trackindex>1</trackindex>
						</sourcetrack>
						<link>
							<linkclipref>clipitem-2779</linkclipref>
							<mediatype>audio</mediatype>
							<trackindex>19</trackindex>
							<clipindex>72</clipindex>
							<groupindex>1</groupindex>
						</link>
						<link>
							<linkclipref>clipitem-2876</linkclipref>
							<mediatype>audio</mediatype>
							<trackindex>20</trackindex>
							<clipindex>65</clipindex>
							<groupindex>1</groupindex>
						</link>
						<logginginfo>
							<description></description>
							<scene></scene>
							<shottake></shottake>
							<lognote></lognote>
						</logginginfo>
						<labels>
							<label2>Caribbean</label2>
						</labels>
					</clipitem>
					<clipitem id="clipitem-2780" premiereChannelType="stereo">
						<masterclipid>masterclip-150</masterclipid>
						<name>Avmålt, kort HEHEHE.wav</name>
						<enabled>TRUE</enabled>
						<duration>51</duration>
						<rate>
							<timebase>25</timebase>
							<ntsc>FALSE</ntsc>
						</rate>
						<start>32872</start>
						<end>32923</end>
						<in>0</in>
						<out>51</out>
						<pproTicksIn>0</pproTicksIn>
						<pproTicksOut>518192640000</pproTicksOut>
						<file id="file-146">
							<name>Avmålt, kort HEHEHE.wav</name>
							<pathurl>file://localhost/Volumes/Brakka/AdobeLager/QUIZ%20-%20brakka/RA%cc%8aSTOFF%20LYD/Publikumsreaksjoner/Fra%201998/Avma%cc%8alt,%20kort%20HEHEHE.wav</pathurl>
							<rate>
								<timebase>30</timebase>
								<ntsc>TRUE</ntsc>
							</rate>
							<duration>61</duration>
							<timecode>
								<rate>
									<timebase>30</timebase>
									<ntsc>TRUE</ntsc>
								</rate>
								<string>13;47;12;25</string>
								<frame>1487495</frame>
								<displayformat>DF</displayformat>
								<reel>
									<name></name>
								</reel>
							</timecode>
							<media>
								<audio>
									<samplecharacteristics>
										<depth>16</depth>
										<samplerate>48000</samplerate>
									</samplecharacteristics>
									<channelcount>2</channelcount>
								</audio>
							</media>
						</file>
						<sourcetrack>
							<mediatype>audio</mediatype>
							<trackindex>1</trackindex>
						</sourcetrack>
							<filter>
								<effect>
									<name>Audio Levels</name>
									<effectid>audiolevels</effectid>
									<effectcategory>audiolevels</effectcategory>
									<effecttype>audiolevels</effecttype>
									<mediatype>audio</mediatype>
									<parameter authoringApp="PremierePro">
										<parameterid>level</parameterid>
										<name>Level</name>
										<valuemin>0</valuemin>
										<valuemax>3.98109</valuemax>
										<value>0.99763</value>
									</parameter>
								</effect>
							</filter>
						<link>
							<linkclipref>clipitem-2780</linkclipref>
							<mediatype>audio</mediatype>
							<trackindex>19</trackindex>
							<clipindex>73</clipindex>
							<groupindex>1</groupindex>
						</link>
						<link>
							<linkclipref>clipitem-2877</linkclipref>
							<mediatype>audio</mediatype>
							<trackindex>20</trackindex>
							<clipindex>66</clipindex>
							<groupindex>1</groupindex>
						</link>
						<logginginfo>
							<description></description>
							<scene></scene>
							<shottake></shottake>
							<lognote></lognote>
						</logginginfo>
						<labels>
							<label2>Caribbean</label2>
						</labels>
					</clipitem>
					<clipitem id="clipitem-2781" premiereChannelType="stereo">
						<masterclipid>masterclip-91</masterclipid>
						<name>Medium latterkule.wav</name>
						<enabled>TRUE</enabled>
						<duration>121</duration>
						<rate>
							<timebase>25</timebase>
							<ntsc>FALSE</ntsc>
						</rate>
						<start>33732</start>
						<end>33766</end>
						<in>0</in>
						<out>34</out>
						<pproTicksIn>0</pproTicksIn>
						<pproTicksOut>345461760000</pproTicksOut>
						<file id="file-87"/>
						<sourcetrack>
							<mediatype>audio</mediatype>
							<trackindex>1</trackindex>
						</sourcetrack>
							<filter>
								<effect>
									<name>Audio Levels</name>
									<effectid>audiolevels</effectid>
									<effectcategory>audiolevels</effectcategory>
									<effecttype>audiolevels</effecttype>
									<mediatype>audio</mediatype>
									<parameter authoringApp="PremierePro">
										<parameterid>level</parameterid>
										<name>Level</name>
										<valuemin>0</valuemin>
										<valuemax>3.98109</valuemax>
										<value>0.99763</value>
									</parameter>
								</effect>
							</filter>
						<link>
							<linkclipref>clipitem-2781</linkclipref>
							<mediatype>audio</mediatype>
							<trackindex>19</trackindex>
							<clipindex>74</clipindex>
							<groupindex>1</groupindex>
						</link>
						<link>
							<linkclipref>clipitem-2878</linkclipref>
							<mediatype>audio</mediatype>
							<trackindex>20</trackindex>
							<clipindex>67</clipindex>
							<groupindex>1</groupindex>
						</link>
						<logginginfo>
							<description></description>
							<scene></scene>
							<shottake></shottake>
							<lognote></lognote>
						</logginginfo>
						<labels>
							<label2>Caribbean</label2>
						</labels>
					</clipitem>
					<clipitem id="clipitem-2782" premiereChannelType="stereo">
						<masterclipid>masterclip-91</masterclipid>
						<name>Medium latterkule.wav</name>
						<enabled>TRUE</enabled>
						<duration>121</duration>
						<rate>
							<timebase>25</timebase>
							<ntsc>FALSE</ntsc>
						</rate>
						<start>33766</start>
						<end>33853</end>
						<in>34</in>
						<out>121</out>
						<pproTicksIn>345461760000</pproTicksIn>
						<pproTicksOut>1229437440000</pproTicksOut>
						<file id="file-87"/>
						<sourcetrack>
							<mediatype>audio</mediatype>
							<trackindex>1</trackindex>
						</sourcetrack>
							<filter>
								<effect>
									<name>Audio Levels</name>
									<effectid>audiolevels</effectid>
									<effectcategory>audiolevels</effectcategory>
									<effecttype>audiolevels</effecttype>
									<mediatype>audio</mediatype>
									<parameter authoringApp="PremierePro">
										<parameterid>level</parameterid>
										<name>Level</name>
										<valuemin>0</valuemin>
										<valuemax>3.98109</valuemax>
										<value>0.99763</value>
									</parameter>
								</effect>
							</filter>
						<link>
							<linkclipref>clipitem-2782</linkclipref>
							<mediatype>audio</mediatype>
							<trackindex>19</trackindex>
							<clipindex>75</clipindex>
							<groupindex>1</groupindex>
						</link>
						<link>
							<linkclipref>clipitem-2879</linkclipref>
							<mediatype>audio</mediatype>
							<trackindex>20</trackindex>
							<clipindex>68</clipindex>
							<groupindex>1</groupindex>
						</link>
						<logginginfo>
							<description></description>
							<scene></scene>
							<shottake></shottake>
							<lognote></lognote>
						</logginginfo>
						<labels>
							<label2>Caribbean</label2>
						</labels>
					</clipitem>
					<clipitem id="clipitem-2783" premiereChannelType="stereo">
						<masterclipid>masterclip-135</masterclipid>
						<name>Overrasket latter, applaus.wav</name>
						<enabled>TRUE</enabled>
						<duration>189</duration>
						<rate>
							<timebase>25</timebase>
							<ntsc>FALSE</ntsc>
						</rate>
						<start>35434</start>
						<end>35624</end>
						<in>0</in>
						<out>190</out>
						<pproTicksIn>0</pproTicksIn>
						<pproTicksOut>1930521600000</pproTicksOut>
						<file id="file-131"/>
						<sourcetrack>
							<mediatype>audio</mediatype>
							<trackindex>1</trackindex>
						</sourcetrack>
							<filter>
								<effect>
									<name>Audio Levels</name>
									<effectid>audiolevels</effectid>
									<effectcategory>audiolevels</effectcategory>
									<effecttype>audiolevels</effecttype>
									<mediatype>audio</mediatype>
									<parameter authoringApp="PremierePro">
										<parameterid>level</parameterid>
										<name>Level</name>
										<valuemin>0</valuemin>
										<valuemax>3.98109</valuemax>
										<value>0.99763</value>
									</parameter>
								</effect>
							</filter>
						<link>
							<linkclipref>clipitem-2783</linkclipref>
							<mediatype>audio</mediatype>
							<trackindex>19</trackindex>
							<clipindex>76</clipindex>
							<groupindex>1</groupindex>
						</link>
						<link>
							<linkclipref>clipitem-2880</linkclipref>
							<mediatype>audio</mediatype>
							<trackindex>20</trackindex>
							<clipindex>69</clipindex>
							<groupindex>1</groupindex>
						</link>
						<logginginfo>
							<description></description>
							<scene></scene>
							<shottake></shottake>
							<lognote></lognote>
						</logginginfo>
						<labels>
							<label2>Caribbean</label2>
						</labels>
					</clipitem>
					<clipitem id="clipitem-2784" premiereChannelType="stereo">
						<masterclipid>masterclip-151</masterclipid>
						<name>Applaus 6 sek.wav</name>
						<enabled>TRUE</enabled>
						<duration>151</duration>
						<rate>
							<timebase>25</timebase>
							<ntsc>FALSE</ntsc>
						</rate>
						<start>36430</start>
						<end>36581</end>
						<in>0</in>
						<out>151</out>
						<pproTicksIn>0</pproTicksIn>
						<pproTicksOut>1534256640000</pproTicksOut>
						<file id="file-147">
							<name>Applaus 6 sek.wav</name>
							<pathurl>file://localhost/Volumes/Brakka/AdobeLager/QUIZ%20-%20brakka/RA%cc%8aSTOFF%20LYD/Publikumsreaksjoner/Fra%201986/Applaus%206%20sek.wav</pathurl>
							<rate>
								<timebase>30</timebase>
								<ntsc>TRUE</ntsc>
							</rate>
							<duration>181</duration>
							<timecode>
								<rate>
									<timebase>30</timebase>
									<ntsc>TRUE</ntsc>
								</rate>
								<string>13;10;44;28</string>
								<frame>1421926</frame>
								<displayformat>DF</displayformat>
								<reel>
									<name></name>
								</reel>
							</timecode>
							<media>
								<audio>
									<samplecharacteristics>
										<depth>16</depth>
										<samplerate>48000</samplerate>
									</samplecharacteristics>
									<channelcount>2</channelcount>
								</audio>
							</media>
						</file>
						<sourcetrack>
							<mediatype>audio</mediatype>
							<trackindex>1</trackindex>
						</sourcetrack>
						<link>
							<linkclipref>clipitem-2784</linkclipref>
							<mediatype>audio</mediatype>
							<trackindex>19</trackindex>
							<clipindex>77</clipindex>
							<groupindex>1</groupindex>
						</link>
						<link>
							<linkclipref>clipitem-2881</linkclipref>
							<mediatype>audio</mediatype>
							<trackindex>20</trackindex>
							<clipindex>70</clipindex>
							<groupindex>1</groupindex>
						</link>
						<logginginfo>
							<description></description>
							<scene></scene>
							<shottake></shottake>
							<lognote></lognote>
						</logginginfo>
						<labels>
							<label2>Caribbean</label2>
						</labels>
					</clipitem>
					<clipitem id="clipitem-2785" premiereChannelType="stereo">
						<masterclipid>masterclip-6</masterclipid>
						<name>NSPO30604105AA.mxf</name>
						<enabled>TRUE</enabled>
						<duration>89255</duration>
						<rate>
							<timebase>25</timebase>
							<ntsc>FALSE</ntsc>
						</rate>
						<start>36700</start>
						<end>-1</end>
						<in>60104</in>
						<out>60151</out>
						<pproTicksIn>610695106560000</pproTicksIn>
						<pproTicksOut>611172656640000</pproTicksOut>
						<file id="file-5"/>
						<sourcetrack>
							<mediatype>audio</mediatype>
							<trackindex>1</trackindex>
						</sourcetrack>
							<filter>
								<effect>
									<name>Audio Levels</name>
									<effectid>audiolevels</effectid>
									<effectcategory>audiolevels</effectcategory>
									<effecttype>audiolevels</effecttype>
									<mediatype>audio</mediatype>
									<parameter authoringApp="PremierePro">
										<parameterid>level</parameterid>
										<name>Level</name>
										<valuemin>0</valuemin>
										<valuemax>3.98109</valuemax>
										<value>1.06414</value>
									</parameter>
								</effect>
							</filter>
						<link>
							<linkclipref>clipitem-2785</linkclipref>
							<mediatype>audio</mediatype>
							<trackindex>19</trackindex>
							<clipindex>78</clipindex>
							<groupindex>1</groupindex>
						</link>
						<link>
							<linkclipref>clipitem-2882</linkclipref>
							<mediatype>audio</mediatype>
							<trackindex>20</trackindex>
							<clipindex>71</clipindex>
							<groupindex>1</groupindex>
						</link>
						<logginginfo>
							<description></description>
							<scene></scene>
							<shottake></shottake>
							<lognote></lognote>
						</logginginfo>
						<labels>
							<label2>Iris</label2>
						</labels>
					</clipitem>
					<transitionitem>
						<start>36734</start>
						<end>36747</end>
						<alignment>center</alignment>
						<cutPointTicks>60963840000</cutPointTicks>
						<rate>
							<timebase>25</timebase>
							<ntsc>FALSE</ntsc>
						</rate>
						<effect>
							<name>Cross Fade (+3dB)</name>
							<effectid>KGAudioTransCrossFade3dB</effectid>
							<effecttype>transition</effecttype>
							<mediatype>audio</mediatype>
							<wipecode>0</wipecode>
							<wipeaccuracy>100</wipeaccuracy>
							<startratio>0</startratio>
							<endratio>1</endratio>
							<reverse>FALSE</reverse>
						</effect>
					</transitionitem>
					<clipitem id="clipitem-2786" premiereChannelType="stereo">
						<masterclipid>masterclip-6</masterclipid>
						<name>NSPO30604105AA.mxf</name>
						<enabled>TRUE</enabled>
						<duration>89255</duration>
						<rate>
							<timebase>25</timebase>
							<ntsc>FALSE</ntsc>
						</rate>
						<start>-1</start>
						<end>-1</end>
						<in>60138</in>
						<out>60328</out>
						<pproTicksIn>611040568320000</pproTicksIn>
						<pproTicksOut>612971089920000</pproTicksOut>
						<file id="file-5"/>
						<sourcetrack>
							<mediatype>audio</mediatype>
							<trackindex>1</trackindex>
						</sourcetrack>
							<filter>
								<effect>
									<name>Audio Levels</name>
									<effectid>audiolevels</effectid>
									<effectcategory>audiolevels</effectcategory>
									<effecttype>audiolevels</effecttype>
									<mediatype>audio</mediatype>
									<parameter authoringApp="PremierePro">
										<parameterid>level</parameterid>
										<name>Level</name>
										<valuemin>0</valuemin>
										<valuemax>3.98109</valuemax>
										<value>0.264149</value>
									</parameter>
								</effect>
							</filter>
						<link>
							<linkclipref>clipitem-2786</linkclipref>
							<mediatype>audio</mediatype>
							<trackindex>19</trackindex>
							<clipindex>80</clipindex>
							<groupindex>1</groupindex>
						</link>
						<link>
							<linkclipref>clipitem-2883</linkclipref>
							<mediatype>audio</mediatype>
							<trackindex>20</trackindex>
							<clipindex>73</clipindex>
							<groupindex>1</groupindex>
						</link>
						<logginginfo>
							<description></description>
							<scene></scene>
							<shottake></shottake>
							<lognote></lognote>
						</logginginfo>
						<labels>
							<label2>Iris</label2>
						</labels>
					</clipitem>
					<transitionitem>
						<start>36911</start>
						<end>36924</end>
						<alignment>center</alignment>
						<cutPointTicks>60963840000</cutPointTicks>
						<rate>
							<timebase>25</timebase>
							<ntsc>FALSE</ntsc>
						</rate>
						<effect>
							<name>Cross Fade (+3dB)</name>
							<effectid>KGAudioTransCrossFade3dB</effectid>
							<effecttype>transition</effecttype>
							<mediatype>audio</mediatype>
							<wipecode>0</wipecode>
							<wipeaccuracy>100</wipeaccuracy>
							<startratio>0</startratio>
							<endratio>1</endratio>
							<reverse>FALSE</reverse>
						</effect>
					</transitionitem>
					<clipitem id="clipitem-2787" premiereChannelType="stereo">
						<masterclipid>masterclip-6</masterclipid>
						<name>NSPO30604105AA.mxf</name>
						<enabled>TRUE</enabled>
						<duration>89255</duration>
						<rate>
							<timebase>25</timebase>
							<ntsc>FALSE</ntsc>
						</rate>
						<start>-1</start>
						<end>-1</end>
						<in>60315</in>
						<out>60494</out>
						<pproTicksIn>612839001600000</pproTicksIn>
						<pproTicksOut>614657756160000</pproTicksOut>
						<file id="file-5"/>
						<sourcetrack>
							<mediatype>audio</mediatype>
							<trackindex>1</trackindex>
						</sourcetrack>
							<filter>
								<effect>
									<name>Audio Levels</name>
									<effectid>audiolevels</effectid>
									<effectcategory>audiolevels</effectcategory>
									<effecttype>audiolevels</effecttype>
									<mediatype>audio</mediatype>
									<parameter authoringApp="PremierePro">
										<parameterid>level</parameterid>
										<name>Level</name>
										<valuemin>0</valuemin>
										<valuemax>3.98109</valuemax>
										<value>1.25892</value>
									</parameter>
								</effect>
							</filter>
						<link>
							<linkclipref>clipitem-2787</linkclipref>
							<mediatype>audio</mediatype>
							<trackindex>19</trackindex>
							<clipindex>82</clipindex>
							<groupindex>1</groupindex>
						</link>
						<link>
							<linkclipref>clipitem-2884</linkclipref>
							<mediatype>audio</mediatype>
							<trackindex>20</trackindex>
							<clipindex>75</clipindex>
							<groupindex>1</groupindex>
						</link>
						<logginginfo>
							<description></description>
							<scene></scene>
							<shottake></shottake>
							<lognote></lognote>
						</logginginfo>
						<labels>
							<label2>Iris</label2>
						</labels>
					</clipitem>
					<transitionitem>
						<start>37077</start>
						<end>37090</end>
						<alignment>center</alignment>
						<cutPointTicks>60963840000</cutPointTicks>
						<rate>
							<timebase>25</timebase>
							<ntsc>FALSE</ntsc>
						</rate>
						<effect>
							<name>Cross Fade (+3dB)</name>
							<effectid>KGAudioTransCrossFade3dB</effectid>
							<effecttype>transition</effecttype>
							<mediatype>audio</mediatype>
							<wipecode>0</wipecode>
							<wipeaccuracy>100</wipeaccuracy>
							<startratio>0</startratio>
							<endratio>1</endratio>
							<reverse>FALSE</reverse>
						</effect>
					</transitionitem>
					<clipitem id="clipitem-2788" premiereChannelType="stereo">
						<masterclipid>masterclip-6</masterclipid>
						<name>NSPO30604105AA.mxf</name>
						<enabled>TRUE</enabled>
						<duration>89255</duration>
						<rate>
							<timebase>25</timebase>
							<ntsc>FALSE</ntsc>
						</rate>
						<start>-1</start>
						<end>37140</end>
						<in>60481</in>
						<out>60544</out>
						<pproTicksIn>614525667840000</pproTicksIn>
						<pproTicksOut>615165788160000</pproTicksOut>
						<file id="file-5"/>
						<sourcetrack>
							<mediatype>audio</mediatype>
							<trackindex>1</trackindex>
						</sourcetrack>
							<filter>
								<effect>
									<name>Audio Levels</name>
									<effectid>audiolevels</effectid>
									<effectcategory>audiolevels</effectcategory>
									<effecttype>audiolevels</effecttype>
									<mediatype>audio</mediatype>
									<parameter authoringApp="PremierePro">
										<parameterid>level</parameterid>
										<name>Level</name>
										<valuemin>0</valuemin>
										<valuemax>3.98109</valuemax>
										<value>0.532069</value>
									</parameter>
								</effect>
							</filter>
						<link>
							<linkclipref>clipitem-2788</linkclipref>
							<mediatype>audio</mediatype>
							<trackindex>19</trackindex>
							<clipindex>84</clipindex>
							<groupindex>1</groupindex>
						</link>
						<link>
							<linkclipref>clipitem-2885</linkclipref>
							<mediatype>audio</mediatype>
							<trackindex>20</trackindex>
							<clipindex>77</clipindex>
							<groupindex>1</groupindex>
						</link>
						<logginginfo>
							<description></description>
							<scene></scene>
							<shottake></shottake>
							<lognote></lognote>
						</logginginfo>
						<labels>
							<label2>Iris</label2>
						</labels>
					</clipitem>
					<clipitem id="clipitem-2789" premiereChannelType="stereo">
						<masterclipid>masterclip-6</masterclipid>
						<name>NSPO30604105AA.mxf</name>
						<enabled>TRUE</enabled>
						<duration>89255</duration>
						<rate>
							<timebase>25</timebase>
							<ntsc>FALSE</ntsc>
						</rate>
						<start>37140</start>
						<end>37155</end>
						<in>60544</in>
						<out>60559</out>
						<pproTicksIn>615165788160000</pproTicksIn>
						<pproTicksOut>615318197760000</pproTicksOut>
						<file id="file-5"/>
						<sourcetrack>
							<mediatype>audio</mediatype>
							<trackindex>1</trackindex>
						</sourcetrack>
							<filter>
								<effect>
									<name>Audio Levels</name>
									<effectid>audiolevels</effectid>
									<effectcategory>audiolevels</effectcategory>
									<effecttype>audiolevels</effecttype>
									<mediatype>audio</mediatype>
									<parameter authoringApp="PremierePro">
										<parameterid>level</parameterid>
										<name>Level</name>
										<valuemin>0</valuemin>
										<valuemax>3.98109</valuemax>
										<value>0.532069</value>
									</parameter>
								</effect>
							</filter>
						<link>
							<linkclipref>clipitem-2789</linkclipref>
							<mediatype>audio</mediatype>
							<trackindex>19</trackindex>
							<clipindex>85</clipindex>
							<groupindex>1</groupindex>
						</link>
						<link>
							<linkclipref>clipitem-2886</linkclipref>
							<mediatype>audio</mediatype>
							<trackindex>20</trackindex>
							<clipindex>78</clipindex>
							<groupindex>1</groupindex>
						</link>
						<logginginfo>
							<description></description>
							<scene></scene>
							<shottake></shottake>
							<lognote></lognote>
						</logginginfo>
						<labels>
							<label2>Iris</label2>
						</labels>
					</clipitem>
					<clipitem id="clipitem-2790" premiereChannelType="stereo">
						<masterclipid>masterclip-152</masterclipid>
						<name>Apollo_DIN_31_241__Water_Slide_Slip__Joel_P.W._Dean.mp3</name>
						<enabled>TRUE</enabled>
						<duration>386</duration>
						<rate>
							<timebase>25</timebase>
							<ntsc>FALSE</ntsc>
						</rate>
						<start>39412</start>
						<end>-1</end>
						<in>0</in>
						<out>132</out>
						<pproTicksIn>0</pproTicksIn>
						<pproTicksOut>1341204480000</pproTicksOut>
						<file id="file-148">
							<name>Apollo_DIN_31_241__Water_Slide_Slip__Joel_P.W._Dean.mp3</name>
							<pathurl>file://localhost/Volumes/Brakka/AdobeLager/QUIZ%20-%20brakka/Arkivstoff/2001/2001%20-%20musikk%20mappe/Apollo/Funny/Apollo_DIN_31_241__Water_Slide_Slip__Joel_P.W._Dean.mp3</pathurl>
							<rate>
								<timebase>30</timebase>
								<ntsc>TRUE</ntsc>
							</rate>
							<duration>463</duration>
							<timecode>
								<rate>
									<timebase>30</timebase>
									<ntsc>TRUE</ntsc>
								</rate>
								<string>00;00;00;00</string>
								<frame>0</frame>
								<displayformat>DF</displayformat>
								<reel>
									<name></name>
								</reel>
							</timecode>
							<media>
								<audio>
									<samplecharacteristics>
										<depth>16</depth>
										<samplerate>44100</samplerate>
									</samplecharacteristics>
									<channelcount>2</channelcount>
								</audio>
							</media>
						</file>
						<sourcetrack>
							<mediatype>audio</mediatype>
							<trackindex>1</trackindex>
						</sourcetrack>
							<filter>
								<effect>
									<name>Audio Levels</name>
									<effectid>audiolevels</effectid>
									<effectcategory>audiolevels</effectcategory>
									<effecttype>audiolevels</effecttype>
									<mediatype>audio</mediatype>
									<parameter authoringApp="PremierePro">
										<parameterid>level</parameterid>
										<name>Level</name>
										<valuemin>0</valuemin>
										<valuemax>3.98109</valuemax>
										<value>0.158114</value>
									</parameter>
								</effect>
							</filter>
						<link>
							<linkclipref>clipitem-2790</linkclipref>
							<mediatype>audio</mediatype>
							<trackindex>19</trackindex>
							<clipindex>86</clipindex>
							<groupindex>1</groupindex>
						</link>
						<link>
							<linkclipref>clipitem-2887</linkclipref>
							<mediatype>audio</mediatype>
							<trackindex>20</trackindex>
							<clipindex>79</clipindex>
							<groupindex>1</groupindex>
						</link>
						<logginginfo>
							<description></description>
							<scene></scene>
							<shottake></shottake>
							<lognote></lognote>
						</logginginfo>
						<labels>
							<label2>Caribbean</label2>
						</labels>
					</clipitem>
					<transitionitem>
						<start>39531</start>
						<end>39544</end>
						<alignment>center</alignment>
						<cutPointTicks>60963840000</cutPointTicks>
						<rate>
							<timebase>25</timebase>
							<ntsc>FALSE</ntsc>
						</rate>
						<effect>
							<name>Cross Fade (+3dB)</name>
							<effectid>KGAudioTransCrossFade3dB</effectid>
							<effecttype>transition</effecttype>
							<mediatype>audio</mediatype>
							<wipecode>0</wipecode>
							<wipeaccuracy>100</wipeaccuracy>
							<startratio>0</startratio>
							<endratio>1</endratio>
							<reverse>FALSE</reverse>
						</effect>
					</transitionitem>
					<clipitem id="clipitem-2791" premiereChannelType="stereo">
						<masterclipid>masterclip-152</masterclipid>
						<name>Apollo_DIN_31_241__Water_Slide_Slip__Joel_P.W._Dean.mp3</name>
						<enabled>TRUE</enabled>
						<duration>386</duration>
						<rate>
							<timebase>25</timebase>
							<ntsc>FALSE</ntsc>
						</rate>
						<start>-1</start>
						<end>39799</end>
						<in>119</in>
						<out>387</out>
						<pproTicksIn>1209116160000</pproTicksIn>
						<pproTicksOut>3932167680000</pproTicksOut>
						<file id="file-148"/>
						<sourcetrack>
							<mediatype>audio</mediatype>
							<trackindex>1</trackindex>
						</sourcetrack>
							<filter>
								<effect>
									<name>Audio Levels</name>
									<effectid>audiolevels</effectid>
									<effectcategory>audiolevels</effectcategory>
									<effecttype>audiolevels</effecttype>
									<mediatype>audio</mediatype>
									<parameter authoringApp="PremierePro">
										<parameterid>level</parameterid>
										<name>Level</name>
										<valuemin>0</valuemin>
										<valuemax>3.98109</valuemax>
										<value>0.0629462</value>
									</parameter>
								</effect>
							</filter>
						<link>
							<linkclipref>clipitem-2791</linkclipref>
							<mediatype>audio</mediatype>
							<trackindex>19</trackindex>
							<clipindex>88</clipindex>
							<groupindex>1</groupindex>
						</link>
						<link>
							<linkclipref>clipitem-2888</linkclipref>
							<mediatype>audio</mediatype>
							<trackindex>20</trackindex>
							<clipindex>81</clipindex>
							<groupindex>1</groupindex>
						</link>
						<logginginfo>
							<description></description>
							<scene></scene>
							<shottake></shottake>
							<lognote></lognote>
						</logginginfo>
						<labels>
							<label2>Caribbean</label2>
						</labels>
					</clipitem>
					<clipitem id="clipitem-2792" premiereChannelType="stereo">
						<masterclipid>masterclip-103</masterclipid>
						<name>Latter brå.wav</name>
						<enabled>TRUE</enabled>
						<duration>87</duration>
						<rate>
							<timebase>25</timebase>
							<ntsc>FALSE</ntsc>
						</rate>
						<start>41784</start>
						<end>41871</end>
						<in>0</in>
						<out>87</out>
						<pproTicksIn>0</pproTicksIn>
						<pproTicksOut>883975680000</pproTicksOut>
						<file id="file-99"/>
						<sourcetrack>
							<mediatype>audio</mediatype>
							<trackindex>1</trackindex>
						</sourcetrack>
						<link>
							<linkclipref>clipitem-2792</linkclipref>
							<mediatype>audio</mediatype>
							<trackindex>19</trackindex>
							<clipindex>89</clipindex>
							<groupindex>1</groupindex>
						</link>
						<link>
							<linkclipref>clipitem-2889</linkclipref>
							<mediatype>audio</mediatype>
							<trackindex>20</trackindex>
							<clipindex>82</clipindex>
							<groupindex>1</groupindex>
						</link>
						<logginginfo>
							<description></description>
							<scene></scene>
							<shottake></shottake>
							<lognote></lognote>
						</logginginfo>
						<labels>
							<label2>Caribbean</label2>
						</labels>
					</clipitem>
					<clipitem id="clipitem-2793" premiereChannelType="stereo">
						<masterclipid>masterclip-100</masterclipid>
						<name>Latter spredt.wav</name>
						<enabled>TRUE</enabled>
						<duration>91</duration>
						<rate>
							<timebase>25</timebase>
							<ntsc>FALSE</ntsc>
						</rate>
						<start>42064</start>
						<end>42155</end>
						<in>0</in>
						<out>91</out>
						<pproTicksIn>0</pproTicksIn>
						<pproTicksOut>924618240000</pproTicksOut>
						<file id="file-96"/>
						<sourcetrack>
							<mediatype>audio</mediatype>
							<trackindex>1</trackindex>
						</sourcetrack>
						<link>
							<linkclipref>clipitem-2793</linkclipref>
							<mediatype>audio</mediatype>
							<trackindex>19</trackindex>
							<clipindex>90</clipindex>
							<groupindex>1</groupindex>
						</link>
						<link>
							<linkclipref>clipitem-2890</linkclipref>
							<mediatype>audio</mediatype>
							<trackindex>20</trackindex>
							<clipindex>83</clipindex>
							<groupindex>1</groupindex>
						</link>
						<logginginfo>
							<description></description>
							<scene></scene>
							<shottake></shottake>
							<lognote></lognote>
						</logginginfo>
						<labels>
							<label2>Caribbean</label2>
						</labels>
					</clipitem>
					<clipitem id="clipitem-2794" premiereChannelType="stereo">
						<masterclipid>masterclip-153</masterclipid>
						<name>Liten latter, applaus.wav</name>
						<enabled>TRUE</enabled>
						<duration>241</duration>
						<rate>
							<timebase>25</timebase>
							<ntsc>FALSE</ntsc>
						</rate>
						<start>46249</start>
						<end>46490</end>
						<in>0</in>
						<out>241</out>
						<pproTicksIn>0</pproTicksIn>
						<pproTicksOut>2448714240000</pproTicksOut>
						<file id="file-149">
							<name>Liten latter, applaus.wav</name>
							<pathurl>file://localhost/Volumes/Brakka/AdobeLager/QUIZ%20-%20brakka/RA%cc%8aSTOFF%20LYD/Publikumsreaksjoner/Fra%201984/Liten%20latter,%20applaus.wav</pathurl>
							<rate>
								<timebase>30</timebase>
								<ntsc>TRUE</ntsc>
							</rate>
							<duration>288</duration>
							<timecode>
								<rate>
									<timebase>30</timebase>
									<ntsc>TRUE</ntsc>
								</rate>
								<string>15;32;30;10</string>
								<frame>1676832</frame>
								<displayformat>DF</displayformat>
								<reel>
									<name></name>
								</reel>
							</timecode>
							<media>
								<audio>
									<samplecharacteristics>
										<depth>16</depth>
										<samplerate>48000</samplerate>
									</samplecharacteristics>
									<channelcount>2</channelcount>
								</audio>
							</media>
						</file>
						<sourcetrack>
							<mediatype>audio</mediatype>
							<trackindex>1</trackindex>
						</sourcetrack>
						<link>
							<linkclipref>clipitem-2794</linkclipref>
							<mediatype>audio</mediatype>
							<trackindex>19</trackindex>
							<clipindex>91</clipindex>
							<groupindex>1</groupindex>
						</link>
						<link>
							<linkclipref>clipitem-2891</linkclipref>
							<mediatype>audio</mediatype>
							<trackindex>20</trackindex>
							<clipindex>84</clipindex>
							<groupindex>1</groupindex>
						</link>
						<logginginfo>
							<description></description>
							<scene></scene>
							<shottake></shottake>
							<lognote></lognote>
						</logginginfo>
						<labels>
							<label2>Caribbean</label2>
						</labels>
					</clipitem>
					<clipitem id="clipitem-2795" premiereChannelType="stereo">
						<masterclipid>masterclip-104</masterclipid>
						<name>Latter klukking.wav</name>
						<enabled>TRUE</enabled>
						<duration>129</duration>
						<rate>
							<timebase>25</timebase>
							<ntsc>FALSE</ntsc>
						</rate>
						<start>47479</start>
						<end>47608</end>
						<in>0</in>
						<out>129</out>
						<pproTicksIn>0</pproTicksIn>
						<pproTicksOut>1310722560000</pproTicksOut>
						<file id="file-100"/>
						<sourcetrack>
							<mediatype>audio</mediatype>
							<trackindex>1</trackindex>
						</sourcetrack>
						<link>
							<linkclipref>clipitem-2795</linkclipref>
							<mediatype>audio</mediatype>
							<trackindex>19</trackindex>
							<clipindex>92</clipindex>
							<groupindex>1</groupindex>
						</link>
						<link>
							<linkclipref>clipitem-2892</linkclipref>
							<mediatype>audio</mediatype>
							<trackindex>20</trackindex>
							<clipindex>85</clipindex>
							<groupindex>1</groupindex>
						</link>
						<logginginfo>
							<description></description>
							<scene></scene>
							<shottake></shottake>
							<lognote></lognote>
						</logginginfo>
						<labels>
							<label2>Caribbean</label2>
						</labels>
					</clipitem>
					<clipitem id="clipitem-2796" premiereChannelType="stereo">
						<masterclipid>masterclip-154</masterclipid>
						<name>Overrasket latter, applaus.wav</name>
						<enabled>TRUE</enabled>
						<duration>189</duration>
						<rate>
							<timebase>25</timebase>
							<ntsc>FALSE</ntsc>
						</rate>
						<start>49474</start>
						<end>49660</end>
						<in>4</in>
						<out>190</out>
						<pproTicksIn>40642560000</pproTicksIn>
						<pproTicksOut>1930521600000</pproTicksOut>
						<file id="file-150">
							<name>Overrasket latter, applaus.wav</name>
							<pathurl>file://localhost/Volumes/Brakka/AdobeLager/QUIZ%20-%20brakka/RA%cc%8aSTOFF%20LYD/Publikumsreaksjoner/Fra%201980/Overrasket%20latter,%20applaus.wav</pathurl>
							<rate>
								<timebase>30</timebase>
								<ntsc>TRUE</ntsc>
							</rate>
							<duration>227</duration>
							<timecode>
								<rate>
									<timebase>30</timebase>
									<ntsc>TRUE</ntsc>
								</rate>
								<string>12;58;20;20</string>
								<frame>1399618</frame>
								<displayformat>DF</displayformat>
								<reel>
									<name></name>
								</reel>
							</timecode>
							<media>
								<audio>
									<samplecharacteristics>
										<depth>16</depth>
										<samplerate>48000</samplerate>
									</samplecharacteristics>
									<channelcount>2</channelcount>
								</audio>
							</media>
						</file>
						<sourcetrack>
							<mediatype>audio</mediatype>
							<trackindex>1</trackindex>
						</sourcetrack>
						<link>
							<linkclipref>clipitem-2796</linkclipref>
							<mediatype>audio</mediatype>
							<trackindex>19</trackindex>
							<clipindex>93</clipindex>
							<groupindex>1</groupindex>
						</link>
						<link>
							<linkclipref>clipitem-2893</linkclipref>
							<mediatype>audio</mediatype>
							<trackindex>20</trackindex>
							<clipindex>86</clipindex>
							<groupindex>1</groupindex>
						</link>
						<logginginfo>
							<description></description>
							<scene></scene>
							<shottake></shottake>
							<lognote></lognote>
						</logginginfo>
						<labels>
							<label2>Caribbean</label2>
						</labels>
					</clipitem>
					<clipitem id="clipitem-2797" premiereChannelType="stereo">
						<masterclipid>masterclip-155</masterclipid>
						<name>Whoosh%20By%2006.wav</name>
						<enabled>TRUE</enabled>
						<duration>19</duration>
						<rate>
							<timebase>25</timebase>
							<ntsc>FALSE</ntsc>
						</rate>
						<start>49786</start>
						<end>49805</end>
						<in>0</in>
						<out>19</out>
						<pproTicksIn>0</pproTicksIn>
						<pproTicksOut>193052160000</pproTicksOut>
						<file id="file-151">
							<name>Whoosh%20By%2006.wav</name>
							<pathurl>file://localhost/Volumes/Brakka/AdobeLager/QUIZ%20-%20brakka/Musikk/Sound%20FX/Vignett/Whoosh%2520By%252006.wav</pathurl>
							<rate>
								<timebase>30</timebase>
								<ntsc>TRUE</ntsc>
							</rate>
							<duration>23</duration>
							<timecode>
								<rate>
									<timebase>30</timebase>
									<ntsc>TRUE</ntsc>
								</rate>
								<string>01;16;44;05</string>
								<frame>137987</frame>
								<displayformat>DF</displayformat>
								<reel>
									<name></name>
								</reel>
							</timecode>
							<media>
								<audio>
									<samplecharacteristics>
										<depth>16</depth>
										<samplerate>44100</samplerate>
									</samplecharacteristics>
									<channelcount>2</channelcount>
								</audio>
							</media>
						</file>
						<sourcetrack>
							<mediatype>audio</mediatype>
							<trackindex>1</trackindex>
						</sourcetrack>
							<filter>
								<effect>
									<name>Audio Levels</name>
									<effectid>audiolevels</effectid>
									<effectcategory>audiolevels</effectcategory>
									<effecttype>audiolevels</effecttype>
									<mediatype>audio</mediatype>
									<parameter authoringApp="PremierePro">
										<parameterid>level</parameterid>
										<name>Level</name>
										<valuemin>0</valuemin>
										<valuemax>3.98109</valuemax>
										<value>0.199053</value>
									</parameter>
								</effect>
							</filter>
						<link>
							<linkclipref>clipitem-2797</linkclipref>
							<mediatype>audio</mediatype>
							<trackindex>19</trackindex>
							<clipindex>94</clipindex>
							<groupindex>1</groupindex>
						</link>
						<link>
							<linkclipref>clipitem-2894</linkclipref>
							<mediatype>audio</mediatype>
							<trackindex>20</trackindex>
							<clipindex>87</clipindex>
							<groupindex>1</groupindex>
						</link>
						<logginginfo>
							<description></description>
							<scene></scene>
							<shottake></shottake>
							<lognote></lognote>
						</logginginfo>
						<labels>
							<label2>Caribbean</label2>
						</labels>
					</clipitem>
					<clipitem id="clipitem-2798" premiereChannelType="stereo">
						<masterclipid>masterclip-70</masterclipid>
						<name>Whoosh%20By%2003.wav</name>
						<enabled>TRUE</enabled>
						<duration>71</duration>
						<rate>
							<timebase>25</timebase>
							<ntsc>FALSE</ntsc>
						</rate>
						<start>49827</start>
						<end>49897</end>
						<in>0</in>
						<out>70</out>
						<pproTicksIn>0</pproTicksIn>
						<pproTicksOut>711244800000</pproTicksOut>
						<file id="file-66"/>
						<sourcetrack>
							<mediatype>audio</mediatype>
							<trackindex>1</trackindex>
						</sourcetrack>
							<filter>
								<effect>
									<name>Audio Levels</name>
									<effectid>audiolevels</effectid>
									<effectcategory>audiolevels</effectcategory>
									<effecttype>audiolevels</effecttype>
									<mediatype>audio</mediatype>
									<parameter authoringApp="PremierePro">
										<parameterid>level</parameterid>
										<name>Level</name>
										<valuemin>0</valuemin>
										<valuemax>3.98109</valuemax>
										<value>0.105998</value>
									</parameter>
								</effect>
							</filter>
						<link>
							<linkclipref>clipitem-2798</linkclipref>
							<mediatype>audio</mediatype>
							<trackindex>19</trackindex>
							<clipindex>95</clipindex>
							<groupindex>1</groupindex>
						</link>
						<link>
							<linkclipref>clipitem-2895</linkclipref>
							<mediatype>audio</mediatype>
							<trackindex>20</trackindex>
							<clipindex>88</clipindex>
							<groupindex>1</groupindex>
						</link>
						<logginginfo>
							<description></description>
							<scene></scene>
							<shottake></shottake>
							<lognote></lognote>
						</logginginfo>
						<labels>
							<label2>Caribbean</label2>
						</labels>
					</clipitem>
					<clipitem id="clipitem-2799" premiereChannelType="stereo">
						<masterclipid>masterclip-118</masterclipid>
						<name>Kort spredt latter.wav</name>
						<enabled>TRUE</enabled>
						<duration>64</duration>
						<rate>
							<timebase>25</timebase>
							<ntsc>FALSE</ntsc>
						</rate>
						<start>50250</start>
						<end>50314</end>
						<in>0</in>
						<out>64</out>
						<pproTicksIn>0</pproTicksIn>
						<pproTicksOut>650280960000</pproTicksOut>
						<file id="file-114"/>
						<sourcetrack>
							<mediatype>audio</mediatype>
							<trackindex>1</trackindex>
						</sourcetrack>
						<link>
							<linkclipref>clipitem-2799</linkclipref>
							<mediatype>audio</mediatype>
							<trackindex>19</trackindex>
							<clipindex>96</clipindex>
							<groupindex>1</groupindex>
						</link>
						<link>
							<linkclipref>clipitem-2896</linkclipref>
							<mediatype>audio</mediatype>
							<trackindex>20</trackindex>
							<clipindex>89</clipindex>
							<groupindex>1</groupindex>
						</link>
						<logginginfo>
							<description></description>
							<scene></scene>
							<shottake></shottake>
							<lognote></lognote>
						</logginginfo>
						<labels>
							<label2>Caribbean</label2>
						</labels>
					</clipitem>
					<clipitem id="clipitem-2800" premiereChannelType="stereo">
						<masterclipid>masterclip-156</masterclipid>
						<name>058786970-correct-tone-02.wav</name>
						<enabled>TRUE</enabled>
						<duration>64</duration>
						<rate>
							<timebase>25</timebase>
							<ntsc>FALSE</ntsc>
						</rate>
						<start>51617</start>
						<end>51681</end>
						<in>0</in>
						<out>64</out>
						<pproTicksIn>0</pproTicksIn>
						<pproTicksOut>650280960000</pproTicksOut>
						<file id="file-152">
							<name>058786970-correct-tone-02.wav</name>
							<pathurl>file://localhost/Volumes/Brakka/AdobeLager/QUIZ%20-%20brakka/Musikk/Sound%20FX/Poeng/058786970-correct-tone-02.wav</pathurl>
							<rate>
								<timebase>30</timebase>
								<ntsc>TRUE</ntsc>
							</rate>
							<duration>76</duration>
							<timecode>
								<rate>
									<timebase>30</timebase>
									<ntsc>TRUE</ntsc>
								</rate>
								<string>00;00;00;00</string>
								<frame>0</frame>
								<displayformat>DF</displayformat>
								<reel>
									<name></name>
								</reel>
							</timecode>
							<media>
								<audio>
									<samplecharacteristics>
										<depth>16</depth>
										<samplerate>44100</samplerate>
									</samplecharacteristics>
									<channelcount>2</channelcount>
								</audio>
							</media>
						</file>
						<sourcetrack>
							<mediatype>audio</mediatype>
							<trackindex>1</trackindex>
						</sourcetrack>
							<filter>
								<effect>
									<name>Audio Levels</name>
									<effectid>audiolevels</effectid>
									<effectcategory>audiolevels</effectcategory>
									<effecttype>audiolevels</effecttype>
									<mediatype>audio</mediatype>
									<parameter authoringApp="PremierePro">
										<parameterid>level</parameterid>
										<name>Level</name>
										<valuemin>0</valuemin>
										<valuemax>3.98109</valuemax>
										<value>0.140919</value>
									</parameter>
								</effect>
							</filter>
						<link>
							<linkclipref>clipitem-2800</linkclipref>
							<mediatype>audio</mediatype>
							<trackindex>19</trackindex>
							<clipindex>97</clipindex>
							<groupindex>1</groupindex>
						</link>
						<link>
							<linkclipref>clipitem-2897</linkclipref>
							<mediatype>audio</mediatype>
							<trackindex>20</trackindex>
							<clipindex>90</clipindex>
							<groupindex>1</groupindex>
						</link>
						<logginginfo>
							<description></description>
							<scene></scene>
							<shottake></shottake>
							<lognote></lognote>
						</logginginfo>
					</clipitem>
					<clipitem id="clipitem-2801" premiereChannelType="stereo">
						<masterclipid>masterclip-156</masterclipid>
						<name>058786970-correct-tone-02.wav</name>
						<enabled>TRUE</enabled>
						<duration>64</duration>
						<rate>
							<timebase>25</timebase>
							<ntsc>FALSE</ntsc>
						</rate>
						<start>51730</start>
						<end>51794</end>
						<in>0</in>
						<out>64</out>
						<pproTicksIn>0</pproTicksIn>
						<pproTicksOut>650280960000</pproTicksOut>
						<file id="file-152"/>
						<sourcetrack>
							<mediatype>audio</mediatype>
							<trackindex>1</trackindex>
						</sourcetrack>
							<filter>
								<effect>
									<name>Audio Levels</name>
									<effectid>audiolevels</effectid>
									<effectcategory>audiolevels</effectcategory>
									<effecttype>audiolevels</effecttype>
									<mediatype>audio</mediatype>
									<parameter authoringApp="PremierePro">
										<parameterid>level</parameterid>
										<name>Level</name>
										<valuemin>0</valuemin>
										<valuemax>3.98109</valuemax>
										<value>0.140919</value>
									</parameter>
								</effect>
							</filter>
						<link>
							<linkclipref>clipitem-2801</linkclipref>
							<mediatype>audio</mediatype>
							<trackindex>19</trackindex>
							<clipindex>98</clipindex>
							<groupindex>1</groupindex>
						</link>
						<link>
							<linkclipref>clipitem-2898</linkclipref>
							<mediatype>audio</mediatype>
							<trackindex>20</trackindex>
							<clipindex>91</clipindex>
							<groupindex>1</groupindex>
						</link>
						<logginginfo>
							<description></description>
							<scene></scene>
							<shottake></shottake>
							<lognote></lognote>
						</logginginfo>
					</clipitem>
					<clipitem id="clipitem-2802" premiereChannelType="stereo">
						<masterclipid>masterclip-156</masterclipid>
						<name>058786970-correct-tone-02.wav</name>
						<enabled>TRUE</enabled>
						<duration>64</duration>
						<rate>
							<timebase>25</timebase>
							<ntsc>FALSE</ntsc>
						</rate>
						<start>51976</start>
						<end>52040</end>
						<in>0</in>
						<out>64</out>
						<pproTicksIn>0</pproTicksIn>
						<pproTicksOut>650280960000</pproTicksOut>
						<file id="file-152"/>
						<sourcetrack>
							<mediatype>audio</mediatype>
							<trackindex>1</trackindex>
						</sourcetrack>
							<filter>
								<effect>
									<name>Audio Levels</name>
									<effectid>audiolevels</effectid>
									<effectcategory>audiolevels</effectcategory>
									<effecttype>audiolevels</effecttype>
									<mediatype>audio</mediatype>
									<parameter authoringApp="PremierePro">
										<parameterid>level</parameterid>
										<name>Level</name>
										<valuemin>0</valuemin>
										<valuemax>3.98109</valuemax>
										<value>0.140919</value>
									</parameter>
								</effect>
							</filter>
						<link>
							<linkclipref>clipitem-2802</linkclipref>
							<mediatype>audio</mediatype>
							<trackindex>19</trackindex>
							<clipindex>99</clipindex>
							<groupindex>1</groupindex>
						</link>
						<link>
							<linkclipref>clipitem-2899</linkclipref>
							<mediatype>audio</mediatype>
							<trackindex>20</trackindex>
							<clipindex>92</clipindex>
							<groupindex>1</groupindex>
						</link>
						<logginginfo>
							<description></description>
							<scene></scene>
							<shottake></shottake>
							<lognote></lognote>
						</logginginfo>
					</clipitem>
					<clipitem id="clipitem-2803" premiereChannelType="stereo">
						<masterclipid>masterclip-156</masterclipid>
						<name>058786970-correct-tone-02.wav</name>
						<enabled>TRUE</enabled>
						<duration>64</duration>
						<rate>
							<timebase>25</timebase>
							<ntsc>FALSE</ntsc>
						</rate>
						<start>52268</start>
						<end>52332</end>
						<in>0</in>
						<out>64</out>
						<pproTicksIn>0</pproTicksIn>
						<pproTicksOut>650280960000</pproTicksOut>
						<file id="file-152"/>
						<sourcetrack>
							<mediatype>audio</mediatype>
							<trackindex>1</trackindex>
						</sourcetrack>
							<filter>
								<effect>
									<name>Audio Levels</name>
									<effectid>audiolevels</effectid>
									<effectcategory>audiolevels</effectcategory>
									<effecttype>audiolevels</effecttype>
									<mediatype>audio</mediatype>
									<parameter authoringApp="PremierePro">
										<parameterid>level</parameterid>
										<name>Level</name>
										<valuemin>0</valuemin>
										<valuemax>3.98109</valuemax>
										<value>0.140919</value>
									</parameter>
								</effect>
							</filter>
						<link>
							<linkclipref>clipitem-2803</linkclipref>
							<mediatype>audio</mediatype>
							<trackindex>19</trackindex>
							<clipindex>100</clipindex>
							<groupindex>1</groupindex>
						</link>
						<link>
							<linkclipref>clipitem-2900</linkclipref>
							<mediatype>audio</mediatype>
							<trackindex>20</trackindex>
							<clipindex>93</clipindex>
							<groupindex>1</groupindex>
						</link>
						<logginginfo>
							<description></description>
							<scene></scene>
							<shottake></shottake>
							<lognote></lognote>
						</logginginfo>
					</clipitem>
					<clipitem id="clipitem-2804" premiereChannelType="stereo">
						<masterclipid>masterclip-156</masterclipid>
						<name>058786970-correct-tone-02.wav</name>
						<enabled>TRUE</enabled>
						<duration>64</duration>
						<rate>
							<timebase>25</timebase>
							<ntsc>FALSE</ntsc>
						</rate>
						<start>52389</start>
						<end>52453</end>
						<in>0</in>
						<out>64</out>
						<pproTicksIn>0</pproTicksIn>
						<pproTicksOut>650280960000</pproTicksOut>
						<file id="file-152"/>
						<sourcetrack>
							<mediatype>audio</mediatype>
							<trackindex>1</trackindex>
						</sourcetrack>
							<filter>
								<effect>
									<name>Audio Levels</name>
									<effectid>audiolevels</effectid>
									<effectcategory>audiolevels</effectcategory>
									<effecttype>audiolevels</effecttype>
									<mediatype>audio</mediatype>
									<parameter authoringApp="PremierePro">
										<parameterid>level</parameterid>
										<name>Level</name>
										<valuemin>0</valuemin>
										<valuemax>3.98109</valuemax>
										<value>0.140919</value>
									</parameter>
								</effect>
							</filter>
						<link>
							<linkclipref>clipitem-2804</linkclipref>
							<mediatype>audio</mediatype>
							<trackindex>19</trackindex>
							<clipindex>101</clipindex>
							<groupindex>1</groupindex>
						</link>
						<link>
							<linkclipref>clipitem-2901</linkclipref>
							<mediatype>audio</mediatype>
							<trackindex>20</trackindex>
							<clipindex>94</clipindex>
							<groupindex>1</groupindex>
						</link>
						<logginginfo>
							<description></description>
							<scene></scene>
							<shottake></shottake>
							<lognote></lognote>
						</logginginfo>
					</clipitem>
					<clipitem id="clipitem-2805" premiereChannelType="stereo">
						<masterclipid>masterclip-156</masterclipid>
						<name>058786970-correct-tone-02.wav</name>
						<enabled>TRUE</enabled>
						<duration>64</duration>
						<rate>
							<timebase>25</timebase>
							<ntsc>FALSE</ntsc>
						</rate>
						<start>52533</start>
						<end>52597</end>
						<in>0</in>
						<out>64</out>
						<pproTicksIn>0</pproTicksIn>
						<pproTicksOut>650280960000</pproTicksOut>
						<file id="file-152"/>
						<sourcetrack>
							<mediatype>audio</mediatype>
							<trackindex>1</trackindex>
						</sourcetrack>
							<filter>
								<effect>
									<name>Audio Levels</name>
									<effectid>audiolevels</effectid>
									<effectcategory>audiolevels</effectcategory>
									<effecttype>audiolevels</effecttype>
									<mediatype>audio</mediatype>
									<parameter authoringApp="PremierePro">
										<parameterid>level</parameterid>
										<name>Level</name>
										<valuemin>0</valuemin>
										<valuemax>3.98109</valuemax>
										<value>0.140919</value>
									</parameter>
								</effect>
							</filter>
						<link>
							<linkclipref>clipitem-2805</linkclipref>
							<mediatype>audio</mediatype>
							<trackindex>19</trackindex>
							<clipindex>102</clipindex>
							<groupindex>1</groupindex>
						</link>
						<link>
							<linkclipref>clipitem-2902</linkclipref>
							<mediatype>audio</mediatype>
							<trackindex>20</trackindex>
							<clipindex>95</clipindex>
							<groupindex>1</groupindex>
						</link>
						<logginginfo>
							<description></description>
							<scene></scene>
							<shottake></shottake>
							<lognote></lognote>
						</logginginfo>
					</clipitem>
					<clipitem id="clipitem-2806" premiereChannelType="stereo">
						<masterclipid>masterclip-100</masterclipid>
						<name>Latter spredt.wav</name>
						<enabled>TRUE</enabled>
						<duration>91</duration>
						<rate>
							<timebase>25</timebase>
							<ntsc>FALSE</ntsc>
						</rate>
						<start>53336</start>
						<end>53427</end>
						<in>0</in>
						<out>91</out>
						<pproTicksIn>0</pproTicksIn>
						<pproTicksOut>924618240000</pproTicksOut>
						<file id="file-96"/>
						<sourcetrack>
							<mediatype>audio</mediatype>
							<trackindex>1</trackindex>
						</sourcetrack>
						<link>
							<linkclipref>clipitem-2806</linkclipref>
							<mediatype>audio</mediatype>
							<trackindex>19</trackindex>
							<clipindex>103</clipindex>
							<groupindex>1</groupindex>
						</link>
						<link>
							<linkclipref>clipitem-2903</linkclipref>
							<mediatype>audio</mediatype>
							<trackindex>20</trackindex>
							<clipindex>96</clipindex>
							<groupindex>1</groupindex>
						</link>
						<logginginfo>
							<description></description>
							<scene></scene>
							<shottake></shottake>
							<lognote></lognote>
						</logginginfo>
						<labels>
							<label2>Caribbean</label2>
						</labels>
					</clipitem>
					<clipitem id="clipitem-2807" premiereChannelType="stereo">
						<masterclipid>masterclip-156</masterclipid>
						<name>058786970-correct-tone-02.wav</name>
						<enabled>TRUE</enabled>
						<duration>64</duration>
						<rate>
							<timebase>25</timebase>
							<ntsc>FALSE</ntsc>
						</rate>
						<start>53984</start>
						<end>54048</end>
						<in>0</in>
						<out>64</out>
						<pproTicksIn>0</pproTicksIn>
						<pproTicksOut>650280960000</pproTicksOut>
						<file id="file-152"/>
						<sourcetrack>
							<mediatype>audio</mediatype>
							<trackindex>1</trackindex>
						</sourcetrack>
							<filter>
								<effect>
									<name>Audio Levels</name>
									<effectid>audiolevels</effectid>
									<effectcategory>audiolevels</effectcategory>
									<effecttype>audiolevels</effecttype>
									<mediatype>audio</mediatype>
									<parameter authoringApp="PremierePro">
										<parameterid>level</parameterid>
										<name>Level</name>
										<valuemin>0</valuemin>
										<valuemax>3.98109</valuemax>
										<value>0.140919</value>
									</parameter>
								</effect>
							</filter>
						<link>
							<linkclipref>clipitem-2807</linkclipref>
							<mediatype>audio</mediatype>
							<trackindex>19</trackindex>
							<clipindex>104</clipindex>
							<groupindex>1</groupindex>
						</link>
						<link>
							<linkclipref>clipitem-2904</linkclipref>
							<mediatype>audio</mediatype>
							<trackindex>20</trackindex>
							<clipindex>97</clipindex>
							<groupindex>1</groupindex>
						</link>
						<logginginfo>
							<description></description>
							<scene></scene>
							<shottake></shottake>
							<lognote></lognote>
						</logginginfo>
					</clipitem>
					<clipitem id="clipitem-2808" premiereChannelType="stereo">
						<masterclipid>masterclip-156</masterclipid>
						<name>058786970-correct-tone-02.wav</name>
						<enabled>TRUE</enabled>
						<duration>64</duration>
						<rate>
							<timebase>25</timebase>
							<ntsc>FALSE</ntsc>
						</rate>
						<start>54355</start>
						<end>54419</end>
						<in>0</in>
						<out>64</out>
						<pproTicksIn>0</pproTicksIn>
						<pproTicksOut>650280960000</pproTicksOut>
						<file id="file-152"/>
						<sourcetrack>
							<mediatype>audio</mediatype>
							<trackindex>1</trackindex>
						</sourcetrack>
							<filter>
								<effect>
									<name>Audio Levels</name>
									<effectid>audiolevels</effectid>
									<effectcategory>audiolevels</effectcategory>
									<effecttype>audiolevels</effecttype>
									<mediatype>audio</mediatype>
									<parameter authoringApp="PremierePro">
										<parameterid>level</parameterid>
										<name>Level</name>
										<valuemin>0</valuemin>
										<valuemax>3.98109</valuemax>
										<value>0.140919</value>
									</parameter>
								</effect>
							</filter>
						<link>
							<linkclipref>clipitem-2808</linkclipref>
							<mediatype>audio</mediatype>
							<trackindex>19</trackindex>
							<clipindex>105</clipindex>
							<groupindex>1</groupindex>
						</link>
						<link>
							<linkclipref>clipitem-2905</linkclipref>
							<mediatype>audio</mediatype>
							<trackindex>20</trackindex>
							<clipindex>98</clipindex>
							<groupindex>1</groupindex>
						</link>
						<logginginfo>
							<description></description>
							<scene></scene>
							<shottake></shottake>
							<lognote></lognote>
						</logginginfo>
					</clipitem>
					<clipitem id="clipitem-2809" premiereChannelType="stereo">
						<masterclipid>masterclip-156</masterclipid>
						<name>058786970-correct-tone-02.wav</name>
						<enabled>TRUE</enabled>
						<duration>64</duration>
						<rate>
							<timebase>25</timebase>
							<ntsc>FALSE</ntsc>
						</rate>
						<start>54498</start>
						<end>54562</end>
						<in>0</in>
						<out>64</out>
						<pproTicksIn>0</pproTicksIn>
						<pproTicksOut>650280960000</pproTicksOut>
						<file id="file-152"/>
						<sourcetrack>
							<mediatype>audio</mediatype>
							<trackindex>1</trackindex>
						</sourcetrack>
							<filter>
								<effect>
									<name>Audio Levels</name>
									<effectid>audiolevels</effectid>
									<effectcategory>audiolevels</effectcategory>
									<effecttype>audiolevels</effecttype>
									<mediatype>audio</mediatype>
									<parameter authoringApp="PremierePro">
										<parameterid>level</parameterid>
										<name>Level</name>
										<valuemin>0</valuemin>
										<valuemax>3.98109</valuemax>
										<value>0.140919</value>
									</parameter>
								</effect>
							</filter>
						<link>
							<linkclipref>clipitem-2809</linkclipref>
							<mediatype>audio</mediatype>
							<trackindex>19</trackindex>
							<clipindex>106</clipindex>
							<groupindex>1</groupindex>
						</link>
						<link>
							<linkclipref>clipitem-2906</linkclipref>
							<mediatype>audio</mediatype>
							<trackindex>20</trackindex>
							<clipindex>99</clipindex>
							<groupindex>1</groupindex>
						</link>
						<logginginfo>
							<description></description>
							<scene></scene>
							<shottake></shottake>
							<lognote></lognote>
						</logginginfo>
					</clipitem>
					<clipitem id="clipitem-2810" premiereChannelType="stereo">
						<masterclipid>masterclip-156</masterclipid>
						<name>058786970-correct-tone-02.wav</name>
						<enabled>TRUE</enabled>
						<duration>64</duration>
						<rate>
							<timebase>25</timebase>
							<ntsc>FALSE</ntsc>
						</rate>
						<start>54987</start>
						<end>55051</end>
						<in>0</in>
						<out>64</out>
						<pproTicksIn>0</pproTicksIn>
						<pproTicksOut>650280960000</pproTicksOut>
						<file id="file-152"/>
						<sourcetrack>
							<mediatype>audio</mediatype>
							<trackindex>1</trackindex>
						</sourcetrack>
							<filter>
								<effect>
									<name>Audio Levels</name>
									<effectid>audiolevels</effectid>
									<effectcategory>audiolevels</effectcategory>
									<effecttype>audiolevels</effecttype>
									<mediatype>audio</mediatype>
									<parameter authoringApp="PremierePro">
										<parameterid>level</parameterid>
										<name>Level</name>
										<valuemin>0</valuemin>
										<valuemax>3.98109</valuemax>
										<value>0.140919</value>
									</parameter>
								</effect>
							</filter>
						<link>
							<linkclipref>clipitem-2810</linkclipref>
							<mediatype>audio</mediatype>
							<trackindex>19</trackindex>
							<clipindex>107</clipindex>
							<groupindex>1</groupindex>
						</link>
						<link>
							<linkclipref>clipitem-2907</linkclipref>
							<mediatype>audio</mediatype>
							<trackindex>20</trackindex>
							<clipindex>100</clipindex>
							<groupindex>1</groupindex>
						</link>
						<logginginfo>
							<description></description>
							<scene></scene>
							<shottake></shottake>
							<lognote></lognote>
						</logginginfo>
					</clipitem>
					<clipitem id="clipitem-2811" premiereChannelType="stereo">
						<masterclipid>masterclip-156</masterclipid>
						<name>058786970-correct-tone-02.wav</name>
						<enabled>TRUE</enabled>
						<duration>64</duration>
						<rate>
							<timebase>25</timebase>
							<ntsc>FALSE</ntsc>
						</rate>
						<start>55107</start>
						<end>55171</end>
						<in>0</in>
						<out>64</out>
						<pproTicksIn>0</pproTicksIn>
						<pproTicksOut>650280960000</pproTicksOut>
						<file id="file-152"/>
						<sourcetrack>
							<mediatype>audio</mediatype>
							<trackindex>1</trackindex>
						</sourcetrack>
							<filter>
								<effect>
									<name>Audio Levels</name>
									<effectid>audiolevels</effectid>
									<effectcategory>audiolevels</effectcategory>
									<effecttype>audiolevels</effecttype>
									<mediatype>audio</mediatype>
									<parameter authoringApp="PremierePro">
										<parameterid>level</parameterid>
										<name>Level</name>
										<valuemin>0</valuemin>
										<valuemax>3.98109</valuemax>
										<value>0.140919</value>
									</parameter>
								</effect>
							</filter>
						<link>
							<linkclipref>clipitem-2811</linkclipref>
							<mediatype>audio</mediatype>
							<trackindex>19</trackindex>
							<clipindex>108</clipindex>
							<groupindex>1</groupindex>
						</link>
						<link>
							<linkclipref>clipitem-2908</linkclipref>
							<mediatype>audio</mediatype>
							<trackindex>20</trackindex>
							<clipindex>101</clipindex>
							<groupindex>1</groupindex>
						</link>
						<logginginfo>
							<description></description>
							<scene></scene>
							<shottake></shottake>
							<lognote></lognote>
						</logginginfo>
					</clipitem>
					<clipitem id="clipitem-2812" premiereChannelType="stereo">
						<masterclipid>masterclip-156</masterclipid>
						<name>058786970-correct-tone-02.wav</name>
						<enabled>TRUE</enabled>
						<duration>64</duration>
						<rate>
							<timebase>25</timebase>
							<ntsc>FALSE</ntsc>
						</rate>
						<start>55228</start>
						<end>55292</end>
						<in>0</in>
						<out>64</out>
						<pproTicksIn>0</pproTicksIn>
						<pproTicksOut>650280960000</pproTicksOut>
						<file id="file-152"/>
						<sourcetrack>
							<mediatype>audio</mediatype>
							<trackindex>1</trackindex>
						</sourcetrack>
							<filter>
								<effect>
									<name>Audio Levels</name>
									<effectid>audiolevels</effectid>
									<effectcategory>audiolevels</effectcategory>
									<effecttype>audiolevels</effecttype>
									<mediatype>audio</mediatype>
									<parameter authoringApp="PremierePro">
										<parameterid>level</parameterid>
										<name>Level</name>
										<valuemin>0</valuemin>
										<valuemax>3.98109</valuemax>
										<value>0.140919</value>
									</parameter>
								</effect>
							</filter>
						<link>
							<linkclipref>clipitem-2812</linkclipref>
							<mediatype>audio</mediatype>
							<trackindex>19</trackindex>
							<clipindex>109</clipindex>
							<groupindex>1</groupindex>
						</link>
						<link>
							<linkclipref>clipitem-2909</linkclipref>
							<mediatype>audio</mediatype>
							<trackindex>20</trackindex>
							<clipindex>102</clipindex>
							<groupindex>1</groupindex>
						</link>
						<logginginfo>
							<description></description>
							<scene></scene>
							<shottake></shottake>
							<lognote></lognote>
						</logginginfo>
					</clipitem>
					<clipitem id="clipitem-2813" premiereChannelType="stereo">
						<masterclipid>masterclip-156</masterclipid>
						<name>058786970-correct-tone-02.wav</name>
						<enabled>TRUE</enabled>
						<duration>64</duration>
						<rate>
							<timebase>25</timebase>
							<ntsc>FALSE</ntsc>
						</rate>
						<start>55348</start>
						<end>55412</end>
						<in>0</in>
						<out>64</out>
						<pproTicksIn>0</pproTicksIn>
						<pproTicksOut>650280960000</pproTicksOut>
						<file id="file-152"/>
						<sourcetrack>
							<mediatype>audio</mediatype>
							<trackindex>1</trackindex>
						</sourcetrack>
							<filter>
								<effect>
									<name>Audio Levels</name>
									<effectid>audiolevels</effectid>
									<effectcategory>audiolevels</effectcategory>
									<effecttype>audiolevels</effecttype>
									<mediatype>audio</mediatype>
									<parameter authoringApp="PremierePro">
										<parameterid>level</parameterid>
										<name>Level</name>
										<valuemin>0</valuemin>
										<valuemax>3.98109</valuemax>
										<value>0.140919</value>
									</parameter>
								</effect>
							</filter>
						<link>
							<linkclipref>clipitem-2813</linkclipref>
							<mediatype>audio</mediatype>
							<trackindex>19</trackindex>
							<clipindex>110</clipindex>
							<groupindex>1</groupindex>
						</link>
						<link>
							<linkclipref>clipitem-2910</linkclipref>
							<mediatype>audio</mediatype>
							<trackindex>20</trackindex>
							<clipindex>103</clipindex>
							<groupindex>1</groupindex>
						</link>
						<logginginfo>
							<description></description>
							<scene></scene>
							<shottake></shottake>
							<lognote></lognote>
						</logginginfo>
					</clipitem>
					<clipitem id="clipitem-2814" premiereChannelType="stereo">
						<masterclipid>masterclip-157</masterclipid>
						<name>Applaus med plystring 2.wav</name>
						<enabled>TRUE</enabled>
						<duration>218</duration>
						<rate>
							<timebase>25</timebase>
							<ntsc>FALSE</ntsc>
						</rate>
						<start>55895</start>
						<end>56113</end>
						<in>0</in>
						<out>218</out>
						<pproTicksIn>0</pproTicksIn>
						<pproTicksOut>2215019520000</pproTicksOut>
						<file id="file-153">
							<name>Applaus med plystring 2.wav</name>
							<pathurl>file://localhost/Volumes/Brakka/AdobeLager/QUIZ%20-%20brakka/RA%cc%8aSTOFF%20LYD/Publikumsreaksjoner/Fra%201984/Applaus%20med%20plystring%202.wav</pathurl>
							<rate>
								<timebase>30</timebase>
								<ntsc>TRUE</ntsc>
							</rate>
							<duration>261</duration>
							<timecode>
								<rate>
									<timebase>30</timebase>
									<ntsc>TRUE</ntsc>
								</rate>
								<string>15;03;33;12</string>
								<frame>1624776</frame>
								<displayformat>DF</displayformat>
								<reel>
									<name></name>
								</reel>
							</timecode>
							<media>
								<audio>
									<samplecharacteristics>
										<depth>16</depth>
										<samplerate>48000</samplerate>
									</samplecharacteristics>
									<channelcount>2</channelcount>
								</audio>
							</media>
						</file>
						<sourcetrack>
							<mediatype>audio</mediatype>
							<trackindex>1</trackindex>
						</sourcetrack>
							<filter>
								<effect>
									<name>Audio Levels</name>
									<effectid>audiolevels</effectid>
									<effectcategory>audiolevels</effectcategory>
									<effecttype>audiolevels</effecttype>
									<mediatype>audio</mediatype>
									<parameter authoringApp="PremierePro">
										<parameterid>level</parameterid>
										<name>Level</name>
										<valuemin>0</valuemin>
										<valuemax>3.98109</valuemax>
										<value>0.28117</value>
									</parameter>
								</effect>
							</filter>
						<link>
							<linkclipref>clipitem-2814</linkclipref>
							<mediatype>audio</mediatype>
							<trackindex>19</trackindex>
							<clipindex>111</clipindex>
							<groupindex>1</groupindex>
						</link>
						<link>
							<linkclipref>clipitem-2911</linkclipref>
							<mediatype>audio</mediatype>
							<trackindex>20</trackindex>
							<clipindex>104</clipindex>
							<groupindex>1</groupindex>
						</link>
						<logginginfo>
							<description></description>
							<scene></scene>
							<shottake></shottake>
							<lognote></lognote>
						</logginginfo>
						<labels>
							<label2>Caribbean</label2>
						</labels>
					</clipitem>
					<clipitem id="clipitem-2815" premiereChannelType="stereo">
						<masterclipid>masterclip-86</masterclipid>
						<name>Latter liten kort 1 sek.wav</name>
						<enabled>TRUE</enabled>
						<duration>42</duration>
						<rate>
							<timebase>25</timebase>
							<ntsc>FALSE</ntsc>
						</rate>
						<start>56214</start>
						<end>56256</end>
						<in>0</in>
						<out>42</out>
						<pproTicksIn>0</pproTicksIn>
						<pproTicksOut>426746880000</pproTicksOut>
						<file id="file-82"/>
						<sourcetrack>
							<mediatype>audio</mediatype>
							<trackindex>1</trackindex>
						</sourcetrack>
						<link>
							<linkclipref>clipitem-2815</linkclipref>
							<mediatype>audio</mediatype>
							<trackindex>19</trackindex>
							<clipindex>112</clipindex>
							<groupindex>1</groupindex>
						</link>
						<link>
							<linkclipref>clipitem-2912</linkclipref>
							<mediatype>audio</mediatype>
							<trackindex>20</trackindex>
							<clipindex>105</clipindex>
							<groupindex>1</groupindex>
						</link>
						<logginginfo>
							<description></description>
							<scene></scene>
							<shottake></shottake>
							<lognote></lognote>
						</logginginfo>
						<labels>
							<label2>Caribbean</label2>
						</labels>
					</clipitem>
					<clipitem id="clipitem-2816" premiereChannelType="stereo">
						<masterclipid>masterclip-158</masterclipid>
						<name>Applaus kort med plystring.wav</name>
						<enabled>TRUE</enabled>
						<duration>144</duration>
						<rate>
							<timebase>25</timebase>
							<ntsc>FALSE</ntsc>
						</rate>
						<start>56444</start>
						<end>56588</end>
						<in>0</in>
						<out>144</out>
						<pproTicksIn>0</pproTicksIn>
						<pproTicksOut>1463132160000</pproTicksOut>
						<file id="file-154">
							<name>Applaus kort med plystring.wav</name>
							<pathurl>file://localhost/Volumes/Brakka/AdobeLager/QUIZ%20-%20brakka/RA%cc%8aSTOFF%20LYD/Publikumsreaksjoner/Fra%201996/Applaus%20kort%20med%20plystring.wav</pathurl>
							<rate>
								<timebase>30</timebase>
								<ntsc>TRUE</ntsc>
							</rate>
							<duration>172</duration>
							<timecode>
								<rate>
									<timebase>30</timebase>
									<ntsc>TRUE</ntsc>
								</rate>
								<string>14;07;18;20</string>
								<frame>1523634</frame>
								<displayformat>DF</displayformat>
								<reel>
									<name></name>
								</reel>
							</timecode>
							<media>
								<audio>
									<samplecharacteristics>
										<depth>16</depth>
										<samplerate>48000</samplerate>
									</samplecharacteristics>
									<channelcount>2</channelcount>
								</audio>
							</media>
						</file>
						<sourcetrack>
							<mediatype>audio</mediatype>
							<trackindex>1</trackindex>
						</sourcetrack>
						<link>
							<linkclipref>clipitem-2816</linkclipref>
							<mediatype>audio</mediatype>
							<trackindex>19</trackindex>
							<clipindex>113</clipindex>
							<groupindex>1</groupindex>
						</link>
						<link>
							<linkclipref>clipitem-2913</linkclipref>
							<mediatype>audio</mediatype>
							<trackindex>20</trackindex>
							<clipindex>106</clipindex>
							<groupindex>1</groupindex>
						</link>
						<logginginfo>
							<description></description>
							<scene></scene>
							<shottake></shottake>
							<lognote></lognote>
						</logginginfo>
						<labels>
							<label2>Caribbean</label2>
						</labels>
					</clipitem>
					<clipitem id="clipitem-2817" premiereChannelType="stereo">
						<masterclipid>masterclip-116</masterclipid>
						<name>Latterkule kort.wav</name>
						<enabled>TRUE</enabled>
						<duration>205</duration>
						<rate>
							<timebase>25</timebase>
							<ntsc>FALSE</ntsc>
						</rate>
						<start>56788</start>
						<end>56993</end>
						<in>0</in>
						<out>205</out>
						<pproTicksIn>0</pproTicksIn>
						<pproTicksOut>2082931200000</pproTicksOut>
						<file id="file-112"/>
						<sourcetrack>
							<mediatype>audio</mediatype>
							<trackindex>1</trackindex>
						</sourcetrack>
						<link>
							<linkclipref>clipitem-2817</linkclipref>
							<mediatype>audio</mediatype>
							<trackindex>19</trackindex>
							<clipindex>114</clipindex>
							<groupindex>1</groupindex>
						</link>
						<link>
							<linkclipref>clipitem-2914</linkclipref>
							<mediatype>audio</mediatype>
							<trackindex>20</trackindex>
							<clipindex>107</clipindex>
							<groupindex>1</groupindex>
						</link>
						<logginginfo>
							<description></description>
							<scene></scene>
							<shottake></shottake>
							<lognote></lognote>
						</logginginfo>
						<labels>
							<label2>Caribbean</label2>
						</labels>
					</clipitem>
					<clipitem id="clipitem-2818" premiereChannelType="mono">
						<masterclipid>masterclip-159</masterclipid>
						<name>MAIN MIX_02.L.wav</name>
						<enabled>TRUE</enabled>
						<duration>178584</duration>
						<rate>
							<timebase>25</timebase>
							<ntsc>FALSE</ntsc>
						</rate>
						<start>57554</start>
						<end>58055</end>
						<in>163654</in>
						<out>164155</out>
						<pproTicksIn>1662829378560000</pproTicksIn>
						<pproTicksOut>1667919859200000</pproTicksOut>
						<file id="file-155">
							<name>MAIN MIX_02.L.wav</name>
							<pathurl>file://localhost/Volumes/Brakka/AdobeLager/QUIZ%20-%20brakka/RA%cc%8aSTOFF%20LYD/1992/MAIN%20MIX_02.L.wav</pathurl>
							<rate>
								<timebase>30</timebase>
								<ntsc>TRUE</ntsc>
							</rate>
							<duration>214087</duration>
							<timecode>
								<rate>
									<timebase>30</timebase>
									<ntsc>TRUE</ntsc>
								</rate>
								<string>12;53;21;24</string>
								<frame>1390662</frame>
								<displayformat>DF</displayformat>
								<reel>
									<name></name>
								</reel>
							</timecode>
							<media>
								<audio>
									<samplecharacteristics>
										<depth>16</depth>
										<samplerate>48000</samplerate>
									</samplecharacteristics>
									<channelcount>1</channelcount>
									<audiochannel>
										<sourcechannel>1</sourcechannel>
									</audiochannel>
								</audio>
							</media>
						</file>
						<sourcetrack>
							<mediatype>audio</mediatype>
							<trackindex>1</trackindex>
						</sourcetrack>
						<logginginfo>
							<description></description>
							<scene></scene>
							<shottake></shottake>
							<lognote></lognote>
						</logginginfo>
						<labels>
							<label2>Caribbean</label2>
						</labels>
					</clipitem>
					<clipitem id="clipitem-2819" premiereChannelType="mono">
						<masterclipid>masterclip-159</masterclipid>
						<name>MAIN MIX_02.L.wav</name>
						<enabled>TRUE</enabled>
						<duration>178584</duration>
						<rate>
							<timebase>25</timebase>
							<ntsc>FALSE</ntsc>
						</rate>
						<start>58055</start>
						<end>58157</end>
						<in>164206</in>
						<out>164308</out>
						<pproTicksIn>1668438051840000</pproTicksIn>
						<pproTicksOut>1669474437120000</pproTicksOut>
						<file id="file-155"/>
						<sourcetrack>
							<mediatype>audio</mediatype>
							<trackindex>1</trackindex>
						</sourcetrack>
							<filter>
								<effect>
									<name>Audio Levels</name>
									<effectid>audiolevels</effectid>
									<effectcategory>audiolevels</effectcategory>
									<effecttype>audiolevels</effecttype>
									<mediatype>audio</mediatype>
									<parameter authoringApp="PremierePro">
										<parameterid>level</parameterid>
										<name>Level</name>
										<valuemin>0</valuemin>
										<valuemax>3.98109</valuemax>
										<value>0.99763</value>
										<keyframe>
											<when>164251</when>
											<value>0.99763</value>
										</keyframe>
										<keyframe>
											<when>164295</when>
											<value>0.780754</value>
										</keyframe>
									</parameter>
								</effect>
							</filter>
						<logginginfo>
							<description></description>
							<scene></scene>
							<shottake></shottake>
							<lognote></lognote>
						</logginginfo>
						<labels>
							<label2>Caribbean</label2>
						</labels>
					</clipitem>
					<enabled>TRUE</enabled>
					<locked>FALSE</locked>
					<outputchannelindex>1</outputchannelindex>
				</track>
				<track TL.SQTrackAudioKeyframeStyle="0" TL.SQTrackShy="0" TL.SQTrackExpandedHeight="140" TL.SQTrackExpanded="1" MZ.TrackTargeted="1" PannerCurrentValue="0.5" PannerIsInverted="true" PannerStartKeyframe="-91445760000000000,0.5,0,0,0,0,0,0" PannerName="Balance" currentExplodedTrackIndex="1" totalExplodedTrackCount="2" premiereTrackType="Stereo">
					<clipitem id="clipitem-2820" premiereChannelType="stereo">
						<masterclipid>masterclip-123</masterclipid>
						<name>90MONAGRUDT.mov</name>
						<enabled>TRUE</enabled>
						<duration>227</duration>
						<rate>
							<timebase>25</timebase>
							<ntsc>FALSE</ntsc>
						</rate>
						<start>107</start>
						<end>142</end>
						<in>62</in>
						<out>97</out>
						<pproTicksIn>629959680000</pproTicksIn>
						<pproTicksOut>985582080000</pproTicksOut>
						<file id="file-119"/>
						<sourcetrack>
							<mediatype>audio</mediatype>
							<trackindex>2</trackindex>
						</sourcetrack>
							<filter>
								<effect>
									<name>Audio Levels</name>
									<effectid>audiolevels</effectid>
									<effectcategory>audiolevels</effectcategory>
									<effecttype>audiolevels</effecttype>
									<mediatype>audio</mediatype>
									<parameter authoringApp="PremierePro">
										<parameterid>level</parameterid>
										<name>Level</name>
										<valuemin>0</valuemin>
										<valuemax>3.98109</valuemax>
										<value>0.499999</value>
									</parameter>
								</effect>
							</filter>
						<link>
							<linkclipref>clipitem-2719</linkclipref>
							<mediatype>audio</mediatype>
							<trackindex>19</trackindex>
							<clipindex>1</clipindex>
							<groupindex>1</groupindex>
						</link>
						<link>
							<linkclipref>clipitem-2820</linkclipref>
							<mediatype>audio</mediatype>
							<trackindex>20</trackindex>
							<clipindex>1</clipindex>
							<groupindex>1</groupindex>
						</link>
						<logginginfo>
							<description></description>
							<scene></scene>
							<shottake></shottake>
							<lognote></lognote>
						</logginginfo>
						<labels>
							<label2>Iris</label2>
						</labels>
					</clipitem>
					<clipitem id="clipitem-2821" premiereChannelType="stereo">
						<masterclipid>masterclip-123</masterclipid>
						<name>90MONAGRUDT.mov</name>
						<enabled>TRUE</enabled>
						<duration>227</duration>
						<rate>
							<timebase>25</timebase>
							<ntsc>FALSE</ntsc>
						</rate>
						<start>142</start>
						<end>169</end>
						<in>118</in>
						<out>145</out>
						<pproTicksIn>1198955520000</pproTicksIn>
						<pproTicksOut>1473292800000</pproTicksOut>
						<file id="file-119"/>
						<sourcetrack>
							<mediatype>audio</mediatype>
							<trackindex>2</trackindex>
						</sourcetrack>
							<filter>
								<effect>
									<name>Audio Levels</name>
									<effectid>audiolevels</effectid>
									<effectcategory>audiolevels</effectcategory>
									<effecttype>audiolevels</effecttype>
									<mediatype>audio</mediatype>
									<parameter authoringApp="PremierePro">
										<parameterid>level</parameterid>
										<name>Level</name>
										<valuemin>0</valuemin>
										<valuemax>3.98109</valuemax>
										<value>0.629462</value>
									</parameter>
								</effect>
							</filter>
						<link>
							<linkclipref>clipitem-2720</linkclipref>
							<mediatype>audio</mediatype>
							<trackindex>19</trackindex>
							<clipindex>2</clipindex>
							<groupindex>1</groupindex>
						</link>
						<link>
							<linkclipref>clipitem-2821</linkclipref>
							<mediatype>audio</mediatype>
							<trackindex>20</trackindex>
							<clipindex>2</clipindex>
							<groupindex>1</groupindex>
						</link>
						<logginginfo>
							<description></description>
							<scene></scene>
							<shottake></shottake>
							<lognote></lognote>
						</logginginfo>
						<labels>
							<label2>Iris</label2>
						</labels>
					</clipitem>
					<clipitem id="clipitem-2822" premiereChannelType="stereo">
						<masterclipid>masterclip-124</masterclipid>
						<name>Applaus høflig men med plystring.wav</name>
						<enabled>TRUE</enabled>
						<duration>141</duration>
						<rate>
							<timebase>25</timebase>
							<ntsc>FALSE</ntsc>
						</rate>
						<start>335</start>
						<end>-1</end>
						<in>0</in>
						<out>142</out>
						<pproTicksIn>0</pproTicksIn>
						<pproTicksOut>1442810880000</pproTicksOut>
						<file id="file-120"/>
						<sourcetrack>
							<mediatype>audio</mediatype>
							<trackindex>2</trackindex>
						</sourcetrack>
						<link>
							<linkclipref>clipitem-2721</linkclipref>
							<mediatype>audio</mediatype>
							<trackindex>19</trackindex>
							<clipindex>3</clipindex>
							<groupindex>1</groupindex>
						</link>
						<link>
							<linkclipref>clipitem-2822</linkclipref>
							<mediatype>audio</mediatype>
							<trackindex>20</trackindex>
							<clipindex>3</clipindex>
							<groupindex>1</groupindex>
						</link>
						<logginginfo>
							<description></description>
							<scene></scene>
							<shottake></shottake>
							<lognote></lognote>
						</logginginfo>
						<labels>
							<label2>Caribbean</label2>
						</labels>
					</clipitem>
					<transitionitem>
						<start>464</start>
						<end>477</end>
						<alignment>end-black</alignment>
						<cutPointTicks>132088320000</cutPointTicks>
						<rate>
							<timebase>25</timebase>
							<ntsc>FALSE</ntsc>
						</rate>
						<effect>
							<name>Cross Fade (+3dB)</name>
							<effectid>KGAudioTransCrossFade3dB</effectid>
							<effecttype>transition</effecttype>
							<mediatype>audio</mediatype>
							<wipecode>0</wipecode>
							<wipeaccuracy>100</wipeaccuracy>
							<startratio>0</startratio>
							<endratio>1</endratio>
							<reverse>FALSE</reverse>
						</effect>
					</transitionitem>
					<transitionitem>
						<start>1086</start>
						<end>1099</end>
						<alignment>start-black</alignment>
						<cutPointTicks>0</cutPointTicks>
						<rate>
							<timebase>25</timebase>
							<ntsc>FALSE</ntsc>
						</rate>
						<effect>
							<name>Cross Fade (+3dB)</name>
							<effectid>KGAudioTransCrossFade3dB</effectid>
							<effecttype>transition</effecttype>
							<mediatype>audio</mediatype>
							<wipecode>0</wipecode>
							<wipeaccuracy>100</wipeaccuracy>
							<startratio>0</startratio>
							<endratio>1</endratio>
							<reverse>FALSE</reverse>
						</effect>
					</transitionitem>
					<clipitem id="clipitem-2823" premiereChannelType="stereo">
						<masterclipid>masterclip-2</masterclipid>
						<name>obub05000303aa-p1-060416r.mxf</name>
						<enabled>TRUE</enabled>
						<duration>6466</duration>
						<rate>
							<timebase>25</timebase>
							<ntsc>FALSE</ntsc>
						</rate>
						<start>-1</start>
						<end>-1</end>
						<in>3109</in>
						<out>3311</out>
						<pproTicksIn>31589429760000</pproTicksIn>
						<pproTicksOut>33641879040000</pproTicksOut>
						<file id="file-1"/>
						<sourcetrack>
							<mediatype>audio</mediatype>
							<trackindex>2</trackindex>
						</sourcetrack>
							<filter>
								<effect>
									<name>Audio Levels</name>
									<effectid>audiolevels</effectid>
									<effectcategory>audiolevels</effectcategory>
									<effecttype>audiolevels</effecttype>
									<mediatype>audio</mediatype>
									<parameter authoringApp="PremierePro">
										<parameterid>level</parameterid>
										<name>Level</name>
										<valuemin>0</valuemin>
										<valuemax>3.98109</valuemax>
										<value>0.133866</value>
										<keyframe>
											<when>3101</when>
											<value>0.247023</value>
										</keyframe>
										<keyframe>
											<when>3153</when>
											<value>0.247023</value>
										</keyframe>
										<keyframe>
											<when>3164</when>
											<value>0.133866</value>
										</keyframe>
									</parameter>
								</effect>
							</filter>
						<link>
							<linkclipref>clipitem-2722</linkclipref>
							<mediatype>audio</mediatype>
							<trackindex>19</trackindex>
							<clipindex>6</clipindex>
							<groupindex>1</groupindex>
						</link>
						<link>
							<linkclipref>clipitem-2823</linkclipref>
							<mediatype>audio</mediatype>
							<trackindex>20</trackindex>
							<clipindex>6</clipindex>
							<groupindex>1</groupindex>
						</link>
						<logginginfo>
							<description></description>
							<scene></scene>
							<shottake></shottake>
							<lognote></lognote>
						</logginginfo>
						<labels>
							<label2>Iris</label2>
						</labels>
					</clipitem>
					<transitionitem>
						<start>1190</start>
						<end>1288</end>
						<alignment>end-black</alignment>
						<cutPointTicks>995742720000</cutPointTicks>
						<rate>
							<timebase>25</timebase>
							<ntsc>FALSE</ntsc>
						</rate>
						<effect>
							<name>Cross Fade (+3dB)</name>
							<effectid>KGAudioTransCrossFade3dB</effectid>
							<effecttype>transition</effecttype>
							<mediatype>audio</mediatype>
							<wipecode>0</wipecode>
							<wipeaccuracy>100</wipeaccuracy>
							<startratio>0</startratio>
							<endratio>1</endratio>
							<reverse>FALSE</reverse>
						</effect>
					</transitionitem>
					<clipitem id="clipitem-2824" premiereChannelType="stereo">
						<masterclipid>masterclip-10</masterclipid>
						<name>NNFA80750005AA.mxf</name>
						<enabled>FALSE</enabled>
						<duration>81126</duration>
						<rate>
							<timebase>25</timebase>
							<ntsc>FALSE</ntsc>
						</rate>
						<start>1680</start>
						<end>-1</end>
						<in>19140</in>
						<out>19238</out>
						<pproTicksIn>194474649600000</pproTicksIn>
						<pproTicksOut>195470392320000</pproTicksOut>
						<file id="file-8"/>
						<sourcetrack>
							<mediatype>audio</mediatype>
							<trackindex>2</trackindex>
						</sourcetrack>
							<filter>
								<effect>
									<name>Audio Levels</name>
									<effectid>audiolevels</effectid>
									<effectcategory>audiolevels</effectcategory>
									<effecttype>audiolevels</effecttype>
									<mediatype>audio</mediatype>
									<parameter authoringApp="PremierePro">
										<parameterid>level</parameterid>
										<name>Level</name>
										<valuemin>0</valuemin>
										<valuemax>3.98109</valuemax>
										<value>0.792446</value>
									</parameter>
								</effect>
							</filter>
						<link>
							<linkclipref>clipitem-2726</linkclipref>
							<mediatype>audio</mediatype>
							<trackindex>19</trackindex>
							<clipindex>13</clipindex>
							<groupindex>1</groupindex>
						</link>
						<link>
							<linkclipref>clipitem-2824</linkclipref>
							<mediatype>audio</mediatype>
							<trackindex>20</trackindex>
							<clipindex>8</clipindex>
							<groupindex>1</groupindex>
						</link>
						<logginginfo>
							<description></description>
							<scene></scene>
							<shottake></shottake>
							<lognote></lognote>
						</logginginfo>
						<labels>
							<label2>Iris</label2>
						</labels>
					</clipitem>
					<transitionitem>
						<start>1753</start>
						<end>1778</end>
						<alignment>end-black</alignment>
						<cutPointTicks>254016000000</cutPointTicks>
						<rate>
							<timebase>25</timebase>
							<ntsc>FALSE</ntsc>
						</rate>
						<effect>
							<name>Cross Fade (+3dB)</name>
							<effectid>KGAudioTransCrossFade3dB</effectid>
							<effecttype>transition</effecttype>
							<mediatype>audio</mediatype>
							<wipecode>0</wipecode>
							<wipeaccuracy>100</wipeaccuracy>
							<startratio>0</startratio>
							<endratio>1</endratio>
							<reverse>FALSE</reverse>
						</effect>
					</transitionitem>
					<transitionitem>
						<start>2483</start>
						<end>2496</end>
						<alignment>start-black</alignment>
						<cutPointTicks>0</cutPointTicks>
						<rate>
							<timebase>25</timebase>
							<ntsc>FALSE</ntsc>
						</rate>
						<effect>
							<name>Cross Fade (+3dB)</name>
							<effectid>KGAudioTransCrossFade3dB</effectid>
							<effecttype>transition</effecttype>
							<mediatype>audio</mediatype>
							<wipecode>0</wipecode>
							<wipeaccuracy>100</wipeaccuracy>
							<startratio>0</startratio>
							<endratio>1</endratio>
							<reverse>FALSE</reverse>
						</effect>
					</transitionitem>
					<clipitem id="clipitem-2825" premiereChannelType="stereo">
						<masterclipid>masterclip-18</masterclipid>
						<name>ofaa21000105aa-p1-110416r.mxf</name>
						<enabled>TRUE</enabled>
						<duration>6745</duration>
						<rate>
							<timebase>25</timebase>
							<ntsc>FALSE</ntsc>
						</rate>
						<start>-1</start>
						<end>-1</end>
						<in>3495</in>
						<out>3711</out>
						<pproTicksIn>35511436800000</pproTicksIn>
						<pproTicksOut>37706135040000</pproTicksOut>
						<file id="file-15"/>
						<sourcetrack>
							<mediatype>audio</mediatype>
							<trackindex>2</trackindex>
						</sourcetrack>
						<link>
							<linkclipref>clipitem-2727</linkclipref>
							<mediatype>audio</mediatype>
							<trackindex>19</trackindex>
							<clipindex>16</clipindex>
							<groupindex>1</groupindex>
						</link>
						<link>
							<linkclipref>clipitem-2825</linkclipref>
							<mediatype>audio</mediatype>
							<trackindex>20</trackindex>
							<clipindex>11</clipindex>
							<groupindex>1</groupindex>
						</link>
						<logginginfo>
							<description></description>
							<scene></scene>
							<shottake></shottake>
							<lognote></lognote>
						</logginginfo>
						<labels>
							<label2>Iris</label2>
						</labels>
					</clipitem>
					<transitionitem>
						<start>2686</start>
						<end>2699</end>
						<alignment>end-black</alignment>
						<cutPointTicks>132088320000</cutPointTicks>
						<rate>
							<timebase>25</timebase>
							<ntsc>FALSE</ntsc>
						</rate>
						<effect>
							<name>Cross Fade (+3dB)</name>
							<effectid>KGAudioTransCrossFade3dB</effectid>
							<effecttype>transition</effecttype>
							<mediatype>audio</mediatype>
							<wipecode>0</wipecode>
							<wipeaccuracy>100</wipeaccuracy>
							<startratio>0</startratio>
							<endratio>1</endratio>
							<reverse>FALSE</reverse>
						</effect>
					</transitionitem>
					<clipitem id="clipitem-2826" premiereChannelType="stereo">
						<masterclipid>masterclip-10</masterclipid>
						<name>NNFA80750005AA.mxf</name>
						<enabled>FALSE</enabled>
						<duration>81126</duration>
						<rate>
							<timebase>25</timebase>
							<ntsc>FALSE</ntsc>
						</rate>
						<start>2872</start>
						<end>-1</end>
						<in>58775</in>
						<out>58958</out>
						<pproTicksIn>597191616000000</pproTicksIn>
						<pproTicksOut>599051013120000</pproTicksOut>
						<file id="file-8"/>
						<sourcetrack>
							<mediatype>audio</mediatype>
							<trackindex>2</trackindex>
						</sourcetrack>
						<link>
							<linkclipref>clipitem-2728</linkclipref>
							<mediatype>audio</mediatype>
							<trackindex>19</trackindex>
							<clipindex>18</clipindex>
							<groupindex>1</groupindex>
						</link>
						<link>
							<linkclipref>clipitem-2826</linkclipref>
							<mediatype>audio</mediatype>
							<trackindex>20</trackindex>
							<clipindex>13</clipindex>
							<groupindex>1</groupindex>
						</link>
						<logginginfo>
							<description></description>
							<scene></scene>
							<shottake></shottake>
							<lognote></lognote>
						</logginginfo>
						<labels>
							<label2>Iris</label2>
						</labels>
					</clipitem>
					<transitionitem>
						<start>3047</start>
						<end>3055</end>
						<alignment>end-black</alignment>
						<cutPointTicks>81285120000</cutPointTicks>
						<rate>
							<timebase>25</timebase>
							<ntsc>FALSE</ntsc>
						</rate>
						<effect>
							<name>Cross Fade (+3dB)</name>
							<effectid>KGAudioTransCrossFade3dB</effectid>
							<effecttype>transition</effecttype>
							<mediatype>audio</mediatype>
							<wipecode>0</wipecode>
							<wipeaccuracy>100</wipeaccuracy>
							<startratio>0</startratio>
							<endratio>1</endratio>
							<reverse>FALSE</reverse>
						</effect>
					</transitionitem>
					<clipitem id="clipitem-2827" premiereChannelType="stereo">
						<masterclipid>masterclip-125</masterclipid>
						<name>Apollo_ASPML_1011_1__Destination_Unknown__Mark_Plati_(BMI).mp3</name>
						<enabled>TRUE</enabled>
						<duration>4554</duration>
						<rate>
							<timebase>25</timebase>
							<ntsc>FALSE</ntsc>
						</rate>
						<start>4548</start>
						<end>-1</end>
						<in>0</in>
						<out>215</out>
						<pproTicksIn>0</pproTicksIn>
						<pproTicksOut>2184537600000</pproTicksOut>
						<file id="file-121"/>
						<sourcetrack>
							<mediatype>audio</mediatype>
							<trackindex>2</trackindex>
						</sourcetrack>
							<filter>
								<effect>
									<name>Audio Levels</name>
									<effectid>audiolevels</effectid>
									<effectcategory>audiolevels</effectcategory>
									<effecttype>audiolevels</effecttype>
									<mediatype>audio</mediatype>
									<parameter authoringApp="PremierePro">
										<parameterid>level</parameterid>
										<name>Level</name>
										<valuemin>0</valuemin>
										<valuemax>3.98109</valuemax>
										<value>0.099763</value>
									</parameter>
								</effect>
							</filter>
						<link>
							<linkclipref>clipitem-2729</linkclipref>
							<mediatype>audio</mediatype>
							<trackindex>19</trackindex>
							<clipindex>20</clipindex>
							<groupindex>1</groupindex>
						</link>
						<link>
							<linkclipref>clipitem-2827</linkclipref>
							<mediatype>audio</mediatype>
							<trackindex>20</trackindex>
							<clipindex>15</clipindex>
							<groupindex>1</groupindex>
						</link>
						<logginginfo>
							<description></description>
							<scene></scene>
							<shottake></shottake>
							<lognote></lognote>
						</logginginfo>
						<labels>
							<label2>Caribbean</label2>
						</labels>
					</clipitem>
					<transitionitem>
						<start>4750</start>
						<end>4763</end>
						<alignment>center</alignment>
						<cutPointTicks>60963840000</cutPointTicks>
						<rate>
							<timebase>25</timebase>
							<ntsc>FALSE</ntsc>
						</rate>
						<effect>
							<name>Cross Fade (+3dB)</name>
							<effectid>KGAudioTransCrossFade3dB</effectid>
							<effecttype>transition</effecttype>
							<mediatype>audio</mediatype>
							<wipecode>0</wipecode>
							<wipeaccuracy>100</wipeaccuracy>
							<startratio>0</startratio>
							<endratio>1</endratio>
							<reverse>FALSE</reverse>
						</effect>
					</transitionitem>
					<clipitem id="clipitem-2828" premiereChannelType="stereo">
						<masterclipid>masterclip-125</masterclipid>
						<name>Apollo_ASPML_1011_1__Destination_Unknown__Mark_Plati_(BMI).mp3</name>
						<enabled>TRUE</enabled>
						<duration>4554</duration>
						<rate>
							<timebase>25</timebase>
							<ntsc>FALSE</ntsc>
						</rate>
						<start>-1</start>
						<end>4968</end>
						<in>202</in>
						<out>420</out>
						<pproTicksIn>2052449280000</pproTicksIn>
						<pproTicksOut>4267468800000</pproTicksOut>
						<file id="file-121"/>
						<sourcetrack>
							<mediatype>audio</mediatype>
							<trackindex>2</trackindex>
						</sourcetrack>
							<filter>
								<effect>
									<name>Audio Levels</name>
									<effectid>audiolevels</effectid>
									<effectcategory>audiolevels</effectcategory>
									<effecttype>audiolevels</effecttype>
									<mediatype>audio</mediatype>
									<parameter authoringApp="PremierePro">
										<parameterid>level</parameterid>
										<name>Level</name>
										<valuemin>0</valuemin>
										<valuemax>3.98109</valuemax>
										<value>0</value>
										<keyframe>
											<when>298</when>
											<value>0.28117</value>
										</keyframe>
										<keyframe>
											<when>418</when>
											<value>0</value>
										</keyframe>
									</parameter>
								</effect>
							</filter>
						<link>
							<linkclipref>clipitem-2730</linkclipref>
							<mediatype>audio</mediatype>
							<trackindex>19</trackindex>
							<clipindex>22</clipindex>
							<groupindex>1</groupindex>
						</link>
						<link>
							<linkclipref>clipitem-2828</linkclipref>
							<mediatype>audio</mediatype>
							<trackindex>20</trackindex>
							<clipindex>17</clipindex>
							<groupindex>1</groupindex>
						</link>
						<logginginfo>
							<description></description>
							<scene></scene>
							<shottake></shottake>
							<lognote></lognote>
						</logginginfo>
						<labels>
							<label2>Caribbean</label2>
						</labels>
					</clipitem>
					<clipitem id="clipitem-2829" premiereChannelType="stereo">
						<masterclipid>masterclip-81</masterclipid>
						<name>Appalus anerkjennende med hoi.wav</name>
						<enabled>TRUE</enabled>
						<duration>168</duration>
						<rate>
							<timebase>25</timebase>
							<ntsc>FALSE</ntsc>
						</rate>
						<start>5253</start>
						<end>5340</end>
						<in>0</in>
						<out>87</out>
						<pproTicksIn>0</pproTicksIn>
						<pproTicksOut>883975680000</pproTicksOut>
						<file id="file-77"/>
						<sourcetrack>
							<mediatype>audio</mediatype>
							<trackindex>2</trackindex>
						</sourcetrack>
						<link>
							<linkclipref>clipitem-2731</linkclipref>
							<mediatype>audio</mediatype>
							<trackindex>19</trackindex>
							<clipindex>23</clipindex>
							<groupindex>1</groupindex>
						</link>
						<link>
							<linkclipref>clipitem-2829</linkclipref>
							<mediatype>audio</mediatype>
							<trackindex>20</trackindex>
							<clipindex>18</clipindex>
							<groupindex>1</groupindex>
						</link>
						<logginginfo>
							<description></description>
							<scene></scene>
							<shottake></shottake>
							<lognote></lognote>
						</logginginfo>
						<labels>
							<label2>Caribbean</label2>
						</labels>
					</clipitem>
					<clipitem id="clipitem-2830" premiereChannelType="stereo">
						<masterclipid>masterclip-81</masterclipid>
						<name>Appalus anerkjennende med hoi.wav</name>
						<enabled>TRUE</enabled>
						<duration>168</duration>
						<rate>
							<timebase>25</timebase>
							<ntsc>FALSE</ntsc>
						</rate>
						<start>5340</start>
						<end>5402</end>
						<in>87</in>
						<out>149</out>
						<pproTicksIn>883975680000</pproTicksIn>
						<pproTicksOut>1513935360000</pproTicksOut>
						<file id="file-77"/>
						<sourcetrack>
							<mediatype>audio</mediatype>
							<trackindex>2</trackindex>
						</sourcetrack>
						<link>
							<linkclipref>clipitem-2732</linkclipref>
							<mediatype>audio</mediatype>
							<trackindex>19</trackindex>
							<clipindex>24</clipindex>
							<groupindex>1</groupindex>
						</link>
						<link>
							<linkclipref>clipitem-2830</linkclipref>
							<mediatype>audio</mediatype>
							<trackindex>20</trackindex>
							<clipindex>19</clipindex>
							<groupindex>1</groupindex>
						</link>
						<logginginfo>
							<description></description>
							<scene></scene>
							<shottake></shottake>
							<lognote></lognote>
						</logginginfo>
						<labels>
							<label2>Caribbean</label2>
						</labels>
					</clipitem>
					<clipitem id="clipitem-2831" premiereChannelType="stereo">
						<masterclipid>masterclip-81</masterclipid>
						<name>Appalus anerkjennende med hoi.wav</name>
						<enabled>TRUE</enabled>
						<duration>168</duration>
						<rate>
							<timebase>25</timebase>
							<ntsc>FALSE</ntsc>
						</rate>
						<start>5544</start>
						<end>5712</end>
						<in>0</in>
						<out>168</out>
						<pproTicksIn>0</pproTicksIn>
						<pproTicksOut>1706987520000</pproTicksOut>
						<file id="file-77"/>
						<sourcetrack>
							<mediatype>audio</mediatype>
							<trackindex>2</trackindex>
						</sourcetrack>
						<link>
							<linkclipref>clipitem-2733</linkclipref>
							<mediatype>audio</mediatype>
							<trackindex>19</trackindex>
							<clipindex>25</clipindex>
							<groupindex>1</groupindex>
						</link>
						<link>
							<linkclipref>clipitem-2831</linkclipref>
							<mediatype>audio</mediatype>
							<trackindex>20</trackindex>
							<clipindex>20</clipindex>
							<groupindex>1</groupindex>
						</link>
						<logginginfo>
							<description></description>
							<scene></scene>
							<shottake></shottake>
							<lognote></lognote>
						</logginginfo>
						<labels>
							<label2>Caribbean</label2>
						</labels>
					</clipitem>
					<clipitem id="clipitem-2832" premiereChannelType="stereo">
						<masterclipid>masterclip-73</masterclipid>
						<name>Klukklatter, kort.wav</name>
						<enabled>TRUE</enabled>
						<duration>56</duration>
						<rate>
							<timebase>25</timebase>
							<ntsc>FALSE</ntsc>
						</rate>
						<start>5794</start>
						<end>5850</end>
						<in>0</in>
						<out>56</out>
						<pproTicksIn>0</pproTicksIn>
						<pproTicksOut>568995840000</pproTicksOut>
						<file id="file-69"/>
						<sourcetrack>
							<mediatype>audio</mediatype>
							<trackindex>2</trackindex>
						</sourcetrack>
							<filter>
								<effect>
									<name>Audio Levels</name>
									<effectid>audiolevels</effectid>
									<effectcategory>audiolevels</effectcategory>
									<effecttype>audiolevels</effecttype>
									<mediatype>audio</mediatype>
									<parameter authoringApp="PremierePro">
										<parameterid>level</parameterid>
										<name>Level</name>
										<valuemin>0</valuemin>
										<valuemax>3.98109</valuemax>
										<value>0.99763</value>
									</parameter>
								</effect>
							</filter>
						<link>
							<linkclipref>clipitem-2734</linkclipref>
							<mediatype>audio</mediatype>
							<trackindex>19</trackindex>
							<clipindex>26</clipindex>
							<groupindex>1</groupindex>
						</link>
						<link>
							<linkclipref>clipitem-2832</linkclipref>
							<mediatype>audio</mediatype>
							<trackindex>20</trackindex>
							<clipindex>21</clipindex>
							<groupindex>1</groupindex>
						</link>
						<logginginfo>
							<description></description>
							<scene></scene>
							<shottake></shottake>
							<lognote></lognote>
						</logginginfo>
						<labels>
							<label2>Caribbean</label2>
						</labels>
					</clipitem>
					<clipitem id="clipitem-2833" premiereChannelType="stereo">
						<masterclipid>masterclip-126</masterclipid>
						<name>Enkeltlatter, dame.wav</name>
						<enabled>TRUE</enabled>
						<duration>44</duration>
						<rate>
							<timebase>25</timebase>
							<ntsc>FALSE</ntsc>
						</rate>
						<start>5924</start>
						<end>5968</end>
						<in>0</in>
						<out>44</out>
						<pproTicksIn>0</pproTicksIn>
						<pproTicksOut>447068160000</pproTicksOut>
						<file id="file-122"/>
						<sourcetrack>
							<mediatype>audio</mediatype>
							<trackindex>2</trackindex>
						</sourcetrack>
						<link>
							<linkclipref>clipitem-2735</linkclipref>
							<mediatype>audio</mediatype>
							<trackindex>19</trackindex>
							<clipindex>27</clipindex>
							<groupindex>1</groupindex>
						</link>
						<link>
							<linkclipref>clipitem-2833</linkclipref>
							<mediatype>audio</mediatype>
							<trackindex>20</trackindex>
							<clipindex>22</clipindex>
							<groupindex>1</groupindex>
						</link>
						<logginginfo>
							<description></description>
							<scene></scene>
							<shottake></shottake>
							<lognote></lognote>
						</logginginfo>
						<labels>
							<label2>Caribbean</label2>
						</labels>
					</clipitem>
					<clipitem id="clipitem-2834" premiereChannelType="stereo">
						<masterclipid>masterclip-81</masterclipid>
						<name>Appalus anerkjennende med hoi.wav</name>
						<enabled>TRUE</enabled>
						<duration>168</duration>
						<rate>
							<timebase>25</timebase>
							<ntsc>FALSE</ntsc>
						</rate>
						<start>6399</start>
						<end>6447</end>
						<in>0</in>
						<out>48</out>
						<pproTicksIn>0</pproTicksIn>
						<pproTicksOut>487710720000</pproTicksOut>
						<file id="file-77"/>
						<sourcetrack>
							<mediatype>audio</mediatype>
							<trackindex>2</trackindex>
						</sourcetrack>
						<link>
							<linkclipref>clipitem-2736</linkclipref>
							<mediatype>audio</mediatype>
							<trackindex>19</trackindex>
							<clipindex>28</clipindex>
							<groupindex>1</groupindex>
						</link>
						<link>
							<linkclipref>clipitem-2834</linkclipref>
							<mediatype>audio</mediatype>
							<trackindex>20</trackindex>
							<clipindex>23</clipindex>
							<groupindex>1</groupindex>
						</link>
						<logginginfo>
							<description></description>
							<scene></scene>
							<shottake></shottake>
							<lognote></lognote>
						</logginginfo>
						<labels>
							<label2>Caribbean</label2>
						</labels>
					</clipitem>
					<clipitem id="clipitem-2835" premiereChannelType="stereo">
						<masterclipid>masterclip-81</masterclipid>
						<name>Appalus anerkjennende med hoi.wav</name>
						<enabled>TRUE</enabled>
						<duration>168</duration>
						<rate>
							<timebase>25</timebase>
							<ntsc>FALSE</ntsc>
						</rate>
						<start>6447</start>
						<end>6519</end>
						<in>96</in>
						<out>168</out>
						<pproTicksIn>975421440000</pproTicksIn>
						<pproTicksOut>1706987520000</pproTicksOut>
						<file id="file-77"/>
						<sourcetrack>
							<mediatype>audio</mediatype>
							<trackindex>2</trackindex>
						</sourcetrack>
						<link>
							<linkclipref>clipitem-2737</linkclipref>
							<mediatype>audio</mediatype>
							<trackindex>19</trackindex>
							<clipindex>29</clipindex>
							<groupindex>1</groupindex>
						</link>
						<link>
							<linkclipref>clipitem-2835</linkclipref>
							<mediatype>audio</mediatype>
							<trackindex>20</trackindex>
							<clipindex>24</clipindex>
							<groupindex>1</groupindex>
						</link>
						<logginginfo>
							<description></description>
							<scene></scene>
							<shottake></shottake>
							<lognote></lognote>
						</logginginfo>
						<labels>
							<label2>Caribbean</label2>
						</labels>
					</clipitem>
					<clipitem id="clipitem-2836" premiereChannelType="stereo">
						<masterclipid>masterclip-75</masterclipid>
						<name>Latter avmålt.wav</name>
						<enabled>TRUE</enabled>
						<duration>60</duration>
						<rate>
							<timebase>25</timebase>
							<ntsc>FALSE</ntsc>
						</rate>
						<start>6733</start>
						<end>6793</end>
						<in>0</in>
						<out>60</out>
						<pproTicksIn>0</pproTicksIn>
						<pproTicksOut>609638400000</pproTicksOut>
						<file id="file-71"/>
						<sourcetrack>
							<mediatype>audio</mediatype>
							<trackindex>2</trackindex>
						</sourcetrack>
						<link>
							<linkclipref>clipitem-2738</linkclipref>
							<mediatype>audio</mediatype>
							<trackindex>19</trackindex>
							<clipindex>30</clipindex>
							<groupindex>1</groupindex>
						</link>
						<link>
							<linkclipref>clipitem-2836</linkclipref>
							<mediatype>audio</mediatype>
							<trackindex>20</trackindex>
							<clipindex>25</clipindex>
							<groupindex>1</groupindex>
						</link>
						<logginginfo>
							<description></description>
							<scene></scene>
							<shottake></shottake>
							<lognote></lognote>
						</logginginfo>
						<labels>
							<label2>Caribbean</label2>
						</labels>
					</clipitem>
					<clipitem id="clipitem-2837" premiereChannelType="stereo">
						<masterclipid>masterclip-127</masterclipid>
						<name>Latter brå og kort.wav</name>
						<enabled>TRUE</enabled>
						<duration>75</duration>
						<rate>
							<timebase>25</timebase>
							<ntsc>FALSE</ntsc>
						</rate>
						<start>7293</start>
						<end>7368</end>
						<in>0</in>
						<out>75</out>
						<pproTicksIn>0</pproTicksIn>
						<pproTicksOut>762048000000</pproTicksOut>
						<file id="file-123"/>
						<sourcetrack>
							<mediatype>audio</mediatype>
							<trackindex>2</trackindex>
						</sourcetrack>
						<link>
							<linkclipref>clipitem-2739</linkclipref>
							<mediatype>audio</mediatype>
							<trackindex>19</trackindex>
							<clipindex>31</clipindex>
							<groupindex>1</groupindex>
						</link>
						<link>
							<linkclipref>clipitem-2837</linkclipref>
							<mediatype>audio</mediatype>
							<trackindex>20</trackindex>
							<clipindex>26</clipindex>
							<groupindex>1</groupindex>
						</link>
						<logginginfo>
							<description></description>
							<scene></scene>
							<shottake></shottake>
							<lognote></lognote>
						</logginginfo>
						<labels>
							<label2>Caribbean</label2>
						</labels>
					</clipitem>
					<clipitem id="clipitem-2838" premiereChannelType="stereo">
						<masterclipid>masterclip-128</masterclipid>
						<name>Latter kort høflig etter dårlig vits.wav</name>
						<enabled>TRUE</enabled>
						<duration>89</duration>
						<rate>
							<timebase>25</timebase>
							<ntsc>FALSE</ntsc>
						</rate>
						<start>8138</start>
						<end>8227</end>
						<in>0</in>
						<out>89</out>
						<pproTicksIn>0</pproTicksIn>
						<pproTicksOut>904296960000</pproTicksOut>
						<file id="file-124"/>
						<sourcetrack>
							<mediatype>audio</mediatype>
							<trackindex>2</trackindex>
						</sourcetrack>
						<link>
							<linkclipref>clipitem-2740</linkclipref>
							<mediatype>audio</mediatype>
							<trackindex>19</trackindex>
							<clipindex>32</clipindex>
							<groupindex>1</groupindex>
						</link>
						<link>
							<linkclipref>clipitem-2838</linkclipref>
							<mediatype>audio</mediatype>
							<trackindex>20</trackindex>
							<clipindex>27</clipindex>
							<groupindex>1</groupindex>
						</link>
						<logginginfo>
							<description></description>
							<scene></scene>
							<shottake></shottake>
							<lognote></lognote>
						</logginginfo>
						<labels>
							<label2>Caribbean</label2>
						</labels>
					</clipitem>
					<clipitem id="clipitem-2839" premiereChannelType="stereo">
						<masterclipid>masterclip-129</masterclipid>
						<name>Kort behersket latter.wav</name>
						<enabled>TRUE</enabled>
						<duration>89</duration>
						<rate>
							<timebase>25</timebase>
							<ntsc>FALSE</ntsc>
						</rate>
						<start>10231</start>
						<end>10320</end>
						<in>0</in>
						<out>89</out>
						<pproTicksIn>0</pproTicksIn>
						<pproTicksOut>904296960000</pproTicksOut>
						<file id="file-125"/>
						<sourcetrack>
							<mediatype>audio</mediatype>
							<trackindex>2</trackindex>
						</sourcetrack>
						<link>
							<linkclipref>clipitem-2741</linkclipref>
							<mediatype>audio</mediatype>
							<trackindex>19</trackindex>
							<clipindex>33</clipindex>
							<groupindex>1</groupindex>
						</link>
						<link>
							<linkclipref>clipitem-2839</linkclipref>
							<mediatype>audio</mediatype>
							<trackindex>20</trackindex>
							<clipindex>28</clipindex>
							<groupindex>1</groupindex>
						</link>
						<logginginfo>
							<description></description>
							<scene></scene>
							<shottake></shottake>
							<lognote></lognote>
						</logginginfo>
						<labels>
							<label2>Caribbean</label2>
						</labels>
					</clipitem>
					<clipitem id="clipitem-2840" premiereChannelType="stereo">
						<masterclipid>masterclip-130</masterclipid>
						<name>Behersket latter, litt applaus.wav</name>
						<enabled>TRUE</enabled>
						<duration>129</duration>
						<rate>
							<timebase>25</timebase>
							<ntsc>FALSE</ntsc>
						</rate>
						<start>10877</start>
						<end>11006</end>
						<in>0</in>
						<out>129</out>
						<pproTicksIn>0</pproTicksIn>
						<pproTicksOut>1310722560000</pproTicksOut>
						<file id="file-126"/>
						<sourcetrack>
							<mediatype>audio</mediatype>
							<trackindex>2</trackindex>
						</sourcetrack>
						<link>
							<linkclipref>clipitem-2742</linkclipref>
							<mediatype>audio</mediatype>
							<trackindex>19</trackindex>
							<clipindex>34</clipindex>
							<groupindex>1</groupindex>
						</link>
						<link>
							<linkclipref>clipitem-2840</linkclipref>
							<mediatype>audio</mediatype>
							<trackindex>20</trackindex>
							<clipindex>29</clipindex>
							<groupindex>1</groupindex>
						</link>
						<logginginfo>
							<description></description>
							<scene></scene>
							<shottake></shottake>
							<lognote></lognote>
						</logginginfo>
						<labels>
							<label2>Caribbean</label2>
						</labels>
					</clipitem>
					<clipitem id="clipitem-2841" premiereChannelType="stereo">
						<masterclipid>masterclip-81</masterclipid>
						<name>Appalus anerkjennende med hoi.wav</name>
						<enabled>TRUE</enabled>
						<duration>168</duration>
						<rate>
							<timebase>25</timebase>
							<ntsc>FALSE</ntsc>
						</rate>
						<start>12450</start>
						<end>12618</end>
						<in>0</in>
						<out>168</out>
						<pproTicksIn>0</pproTicksIn>
						<pproTicksOut>1706987520000</pproTicksOut>
						<file id="file-77"/>
						<sourcetrack>
							<mediatype>audio</mediatype>
							<trackindex>2</trackindex>
						</sourcetrack>
							<filter>
								<effect>
									<name>Audio Levels</name>
									<effectid>audiolevels</effectid>
									<effectcategory>audiolevels</effectcategory>
									<effecttype>audiolevels</effecttype>
									<mediatype>audio</mediatype>
									<parameter authoringApp="PremierePro">
										<parameterid>level</parameterid>
										<name>Level</name>
										<valuemin>0</valuemin>
										<valuemax>3.98109</valuemax>
										<value>0.445625</value>
									</parameter>
								</effect>
							</filter>
						<link>
							<linkclipref>clipitem-2743</linkclipref>
							<mediatype>audio</mediatype>
							<trackindex>19</trackindex>
							<clipindex>35</clipindex>
							<groupindex>1</groupindex>
						</link>
						<link>
							<linkclipref>clipitem-2841</linkclipref>
							<mediatype>audio</mediatype>
							<trackindex>20</trackindex>
							<clipindex>30</clipindex>
							<groupindex>1</groupindex>
						</link>
						<logginginfo>
							<description></description>
							<scene></scene>
							<shottake></shottake>
							<lognote></lognote>
						</logginginfo>
						<labels>
							<label2>Caribbean</label2>
						</labels>
					</clipitem>
					<clipitem id="clipitem-2842" premiereChannelType="stereo">
						<masterclipid>masterclip-131</masterclipid>
						<name>Solveig H og Lars A.wav</name>
						<enabled>TRUE</enabled>
						<duration>72</duration>
						<rate>
							<timebase>25</timebase>
							<ntsc>FALSE</ntsc>
						</rate>
						<start>12618</start>
						<end>12690</end>
						<in>0</in>
						<out>72</out>
						<pproTicksIn>0</pproTicksIn>
						<pproTicksOut>731566080000</pproTicksOut>
						<file id="file-127"/>
						<sourcetrack>
							<mediatype>audio</mediatype>
							<trackindex>2</trackindex>
						</sourcetrack>
						<link>
							<linkclipref>clipitem-2744</linkclipref>
							<mediatype>audio</mediatype>
							<trackindex>19</trackindex>
							<clipindex>36</clipindex>
							<groupindex>1</groupindex>
						</link>
						<link>
							<linkclipref>clipitem-2842</linkclipref>
							<mediatype>audio</mediatype>
							<trackindex>20</trackindex>
							<clipindex>31</clipindex>
							<groupindex>1</groupindex>
						</link>
						<logginginfo>
							<description></description>
							<scene></scene>
							<shottake></shottake>
							<lognote></lognote>
						</logginginfo>
						<labels>
							<label2>Caribbean</label2>
						</labels>
					</clipitem>
					<clipitem id="clipitem-2843" premiereChannelType="stereo">
						<masterclipid>masterclip-86</masterclipid>
						<name>Latter liten kort 1 sek.wav</name>
						<enabled>TRUE</enabled>
						<duration>42</duration>
						<rate>
							<timebase>25</timebase>
							<ntsc>FALSE</ntsc>
						</rate>
						<start>12779</start>
						<end>12821</end>
						<in>0</in>
						<out>42</out>
						<pproTicksIn>0</pproTicksIn>
						<pproTicksOut>426746880000</pproTicksOut>
						<file id="file-82"/>
						<sourcetrack>
							<mediatype>audio</mediatype>
							<trackindex>2</trackindex>
						</sourcetrack>
						<link>
							<linkclipref>clipitem-2745</linkclipref>
							<mediatype>audio</mediatype>
							<trackindex>19</trackindex>
							<clipindex>37</clipindex>
							<groupindex>1</groupindex>
						</link>
						<link>
							<linkclipref>clipitem-2843</linkclipref>
							<mediatype>audio</mediatype>
							<trackindex>20</trackindex>
							<clipindex>32</clipindex>
							<groupindex>1</groupindex>
						</link>
						<logginginfo>
							<description></description>
							<scene></scene>
							<shottake></shottake>
							<lognote></lognote>
						</logginginfo>
						<labels>
							<label2>Caribbean</label2>
						</labels>
					</clipitem>
					<clipitem id="clipitem-2844" premiereChannelType="stereo">
						<masterclipid>masterclip-114</masterclipid>
						<name>Latterkule bitteliten.wav</name>
						<enabled>TRUE</enabled>
						<duration>74</duration>
						<rate>
							<timebase>25</timebase>
							<ntsc>FALSE</ntsc>
						</rate>
						<start>12858</start>
						<end>12932</end>
						<in>0</in>
						<out>74</out>
						<pproTicksIn>0</pproTicksIn>
						<pproTicksOut>751887360000</pproTicksOut>
						<file id="file-110"/>
						<sourcetrack>
							<mediatype>audio</mediatype>
							<trackindex>2</trackindex>
						</sourcetrack>
						<link>
							<linkclipref>clipitem-2746</linkclipref>
							<mediatype>audio</mediatype>
							<trackindex>19</trackindex>
							<clipindex>38</clipindex>
							<groupindex>1</groupindex>
						</link>
						<link>
							<linkclipref>clipitem-2844</linkclipref>
							<mediatype>audio</mediatype>
							<trackindex>20</trackindex>
							<clipindex>33</clipindex>
							<groupindex>1</groupindex>
						</link>
						<logginginfo>
							<description></description>
							<scene></scene>
							<shottake></shottake>
							<lognote></lognote>
						</logginginfo>
						<labels>
							<label2>Caribbean</label2>
						</labels>
					</clipitem>
					<clipitem id="clipitem-2845" premiereChannelType="stereo">
						<masterclipid>masterclip-132</masterclipid>
						<name>Latter noe overrasket (etter babampitsj).wav</name>
						<enabled>TRUE</enabled>
						<duration>227</duration>
						<rate>
							<timebase>25</timebase>
							<ntsc>FALSE</ntsc>
						</rate>
						<start>13177</start>
						<end>13212</end>
						<in>0</in>
						<out>35</out>
						<pproTicksIn>0</pproTicksIn>
						<pproTicksOut>355622400000</pproTicksOut>
						<file id="file-128"/>
						<sourcetrack>
							<mediatype>audio</mediatype>
							<trackindex>2</trackindex>
						</sourcetrack>
						<link>
							<linkclipref>clipitem-2747</linkclipref>
							<mediatype>audio</mediatype>
							<trackindex>19</trackindex>
							<clipindex>39</clipindex>
							<groupindex>1</groupindex>
						</link>
						<link>
							<linkclipref>clipitem-2845</linkclipref>
							<mediatype>audio</mediatype>
							<trackindex>20</trackindex>
							<clipindex>34</clipindex>
							<groupindex>1</groupindex>
						</link>
						<logginginfo>
							<description></description>
							<scene></scene>
							<shottake></shottake>
							<lognote></lognote>
						</logginginfo>
						<labels>
							<label2>Caribbean</label2>
						</labels>
					</clipitem>
					<clipitem id="clipitem-2846" premiereChannelType="stereo">
						<masterclipid>masterclip-132</masterclipid>
						<name>Latter noe overrasket (etter babampitsj).wav</name>
						<enabled>TRUE</enabled>
						<duration>227</duration>
						<rate>
							<timebase>25</timebase>
							<ntsc>FALSE</ntsc>
						</rate>
						<start>13212</start>
						<end>13251</end>
						<in>35</in>
						<out>74</out>
						<pproTicksIn>355622400000</pproTicksIn>
						<pproTicksOut>751887360000</pproTicksOut>
						<file id="file-128"/>
						<sourcetrack>
							<mediatype>audio</mediatype>
							<trackindex>2</trackindex>
						</sourcetrack>
						<link>
							<linkclipref>clipitem-2748</linkclipref>
							<mediatype>audio</mediatype>
							<trackindex>19</trackindex>
							<clipindex>40</clipindex>
							<groupindex>1</groupindex>
						</link>
						<link>
							<linkclipref>clipitem-2846</linkclipref>
							<mediatype>audio</mediatype>
							<trackindex>20</trackindex>
							<clipindex>35</clipindex>
							<groupindex>1</groupindex>
						</link>
						<logginginfo>
							<description></description>
							<scene></scene>
							<shottake></shottake>
							<lognote></lognote>
						</logginginfo>
						<labels>
							<label2>Caribbean</label2>
						</labels>
					</clipitem>
					<clipitem id="clipitem-2847" premiereChannelType="stereo">
						<masterclipid>masterclip-132</masterclipid>
						<name>Latter noe overrasket (etter babampitsj).wav</name>
						<enabled>TRUE</enabled>
						<duration>227</duration>
						<rate>
							<timebase>25</timebase>
							<ntsc>FALSE</ntsc>
						</rate>
						<start>13251</start>
						<end>13394</end>
						<in>74</in>
						<out>217</out>
						<pproTicksIn>751887360000</pproTicksIn>
						<pproTicksOut>2204858880000</pproTicksOut>
						<file id="file-128"/>
						<sourcetrack>
							<mediatype>audio</mediatype>
							<trackindex>2</trackindex>
						</sourcetrack>
						<link>
							<linkclipref>clipitem-2749</linkclipref>
							<mediatype>audio</mediatype>
							<trackindex>19</trackindex>
							<clipindex>41</clipindex>
							<groupindex>1</groupindex>
						</link>
						<link>
							<linkclipref>clipitem-2847</linkclipref>
							<mediatype>audio</mediatype>
							<trackindex>20</trackindex>
							<clipindex>36</clipindex>
							<groupindex>1</groupindex>
						</link>
						<logginginfo>
							<description></description>
							<scene></scene>
							<shottake></shottake>
							<lognote></lognote>
						</logginginfo>
						<labels>
							<label2>Caribbean</label2>
						</labels>
					</clipitem>
					<clipitem id="clipitem-2848" premiereChannelType="stereo">
						<masterclipid>masterclip-133</masterclipid>
						<name>Fireworks Sound Effect #3.mp3</name>
						<enabled>TRUE</enabled>
						<duration>161</duration>
						<rate>
							<timebase>25</timebase>
							<ntsc>FALSE</ntsc>
						</rate>
						<start>13394</start>
						<end>13418</end>
						<in>0</in>
						<out>24</out>
						<pproTicksIn>0</pproTicksIn>
						<pproTicksOut>243855360000</pproTicksOut>
						<file id="file-129"/>
						<sourcetrack>
							<mediatype>audio</mediatype>
							<trackindex>2</trackindex>
						</sourcetrack>
							<filter>
								<effect>
									<name>Audio Levels</name>
									<effectid>audiolevels</effectid>
									<effectcategory>audiolevels</effectcategory>
									<effecttype>audiolevels</effecttype>
									<mediatype>audio</mediatype>
									<parameter authoringApp="PremierePro">
										<parameterid>level</parameterid>
										<name>Level</name>
										<valuemin>0</valuemin>
										<valuemax>3.98109</valuemax>
										<value>0.199053</value>
									</parameter>
								</effect>
							</filter>
						<link>
							<linkclipref>clipitem-2750</linkclipref>
							<mediatype>audio</mediatype>
							<trackindex>19</trackindex>
							<clipindex>42</clipindex>
							<groupindex>1</groupindex>
						</link>
						<link>
							<linkclipref>clipitem-2848</linkclipref>
							<mediatype>audio</mediatype>
							<trackindex>20</trackindex>
							<clipindex>37</clipindex>
							<groupindex>1</groupindex>
						</link>
						<logginginfo>
							<description></description>
							<scene></scene>
							<shottake></shottake>
							<lognote></lognote>
						</logginginfo>
						<labels>
							<label2>Caribbean</label2>
						</labels>
					</clipitem>
					<clipitem id="clipitem-2849" premiereChannelType="stereo">
						<masterclipid>masterclip-133</masterclipid>
						<name>Fireworks Sound Effect #3.mp3</name>
						<enabled>TRUE</enabled>
						<duration>161</duration>
						<rate>
							<timebase>25</timebase>
							<ntsc>FALSE</ntsc>
						</rate>
						<start>13418</start>
						<end>13494</end>
						<in>65</in>
						<out>141</out>
						<pproTicksIn>660441600000</pproTicksIn>
						<pproTicksOut>1432650240000</pproTicksOut>
						<file id="file-129"/>
						<sourcetrack>
							<mediatype>audio</mediatype>
							<trackindex>2</trackindex>
						</sourcetrack>
							<filter>
								<effect>
									<name>Audio Levels</name>
									<effectid>audiolevels</effectid>
									<effectcategory>audiolevels</effectcategory>
									<effecttype>audiolevels</effecttype>
									<mediatype>audio</mediatype>
									<parameter authoringApp="PremierePro">
										<parameterid>level</parameterid>
										<name>Level</name>
										<valuemin>0</valuemin>
										<valuemax>3.98109</valuemax>
										<value>0.629462</value>
									</parameter>
								</effect>
							</filter>
						<link>
							<linkclipref>clipitem-2751</linkclipref>
							<mediatype>audio</mediatype>
							<trackindex>19</trackindex>
							<clipindex>43</clipindex>
							<groupindex>1</groupindex>
						</link>
						<link>
							<linkclipref>clipitem-2849</linkclipref>
							<mediatype>audio</mediatype>
							<trackindex>20</trackindex>
							<clipindex>38</clipindex>
							<groupindex>1</groupindex>
						</link>
						<logginginfo>
							<description></description>
							<scene></scene>
							<shottake></shottake>
							<lognote></lognote>
						</logginginfo>
						<labels>
							<label2>Caribbean</label2>
						</labels>
					</clipitem>
					<clipitem id="clipitem-2850" premiereChannelType="stereo">
						<masterclipid>masterclip-134</masterclipid>
						<name>Applaus høflig.wav</name>
						<enabled>TRUE</enabled>
						<duration>225</duration>
						<rate>
							<timebase>25</timebase>
							<ntsc>FALSE</ntsc>
						</rate>
						<start>13835</start>
						<end>13916</end>
						<in>0</in>
						<out>81</out>
						<pproTicksIn>0</pproTicksIn>
						<pproTicksOut>823011840000</pproTicksOut>
						<file id="file-130"/>
						<sourcetrack>
							<mediatype>audio</mediatype>
							<trackindex>2</trackindex>
						</sourcetrack>
						<link>
							<linkclipref>clipitem-2752</linkclipref>
							<mediatype>audio</mediatype>
							<trackindex>19</trackindex>
							<clipindex>44</clipindex>
							<groupindex>1</groupindex>
						</link>
						<link>
							<linkclipref>clipitem-2850</linkclipref>
							<mediatype>audio</mediatype>
							<trackindex>20</trackindex>
							<clipindex>39</clipindex>
							<groupindex>1</groupindex>
						</link>
						<logginginfo>
							<description></description>
							<scene></scene>
							<shottake></shottake>
							<lognote></lognote>
						</logginginfo>
						<labels>
							<label2>Caribbean</label2>
						</labels>
					</clipitem>
					<clipitem id="clipitem-2851" premiereChannelType="stereo">
						<masterclipid>masterclip-134</masterclipid>
						<name>Applaus høflig.wav</name>
						<enabled>TRUE</enabled>
						<duration>225</duration>
						<rate>
							<timebase>25</timebase>
							<ntsc>FALSE</ntsc>
						</rate>
						<start>13916</start>
						<end>13988</end>
						<in>153</in>
						<out>225</out>
						<pproTicksIn>1554577920000</pproTicksIn>
						<pproTicksOut>2286144000000</pproTicksOut>
						<file id="file-130"/>
						<sourcetrack>
							<mediatype>audio</mediatype>
							<trackindex>2</trackindex>
						</sourcetrack>
						<link>
							<linkclipref>clipitem-2753</linkclipref>
							<mediatype>audio</mediatype>
							<trackindex>19</trackindex>
							<clipindex>45</clipindex>
							<groupindex>1</groupindex>
						</link>
						<link>
							<linkclipref>clipitem-2851</linkclipref>
							<mediatype>audio</mediatype>
							<trackindex>20</trackindex>
							<clipindex>40</clipindex>
							<groupindex>1</groupindex>
						</link>
						<logginginfo>
							<description></description>
							<scene></scene>
							<shottake></shottake>
							<lognote></lognote>
						</logginginfo>
						<labels>
							<label2>Caribbean</label2>
						</labels>
					</clipitem>
					<clipitem id="clipitem-2852" premiereChannelType="stereo">
						<masterclipid>masterclip-101</masterclipid>
						<name>Latter kort litt klapping.wav</name>
						<enabled>TRUE</enabled>
						<duration>68</duration>
						<rate>
							<timebase>25</timebase>
							<ntsc>FALSE</ntsc>
						</rate>
						<start>15173</start>
						<end>15241</end>
						<in>0</in>
						<out>68</out>
						<pproTicksIn>0</pproTicksIn>
						<pproTicksOut>690923520000</pproTicksOut>
						<file id="file-97"/>
						<sourcetrack>
							<mediatype>audio</mediatype>
							<trackindex>2</trackindex>
						</sourcetrack>
						<link>
							<linkclipref>clipitem-2754</linkclipref>
							<mediatype>audio</mediatype>
							<trackindex>19</trackindex>
							<clipindex>46</clipindex>
							<groupindex>1</groupindex>
						</link>
						<link>
							<linkclipref>clipitem-2852</linkclipref>
							<mediatype>audio</mediatype>
							<trackindex>20</trackindex>
							<clipindex>41</clipindex>
							<groupindex>1</groupindex>
						</link>
						<logginginfo>
							<description></description>
							<scene></scene>
							<shottake></shottake>
							<lognote></lognote>
						</logginginfo>
						<labels>
							<label2>Caribbean</label2>
						</labels>
					</clipitem>
					<clipitem id="clipitem-2853" premiereChannelType="stereo">
						<masterclipid>masterclip-135</masterclipid>
						<name>Overrasket latter, applaus.wav</name>
						<enabled>TRUE</enabled>
						<duration>189</duration>
						<rate>
							<timebase>25</timebase>
							<ntsc>FALSE</ntsc>
						</rate>
						<start>16185</start>
						<end>16204</end>
						<in>75</in>
						<out>94</out>
						<pproTicksIn>762048000000</pproTicksIn>
						<pproTicksOut>955100160000</pproTicksOut>
						<file id="file-131"/>
						<sourcetrack>
							<mediatype>audio</mediatype>
							<trackindex>2</trackindex>
						</sourcetrack>
						<link>
							<linkclipref>clipitem-2755</linkclipref>
							<mediatype>audio</mediatype>
							<trackindex>19</trackindex>
							<clipindex>47</clipindex>
							<groupindex>1</groupindex>
						</link>
						<link>
							<linkclipref>clipitem-2853</linkclipref>
							<mediatype>audio</mediatype>
							<trackindex>20</trackindex>
							<clipindex>42</clipindex>
							<groupindex>1</groupindex>
						</link>
						<logginginfo>
							<description></description>
							<scene></scene>
							<shottake></shottake>
							<lognote></lognote>
						</logginginfo>
						<labels>
							<label2>Caribbean</label2>
						</labels>
					</clipitem>
					<clipitem id="clipitem-2854" premiereChannelType="stereo">
						<masterclipid>masterclip-135</masterclipid>
						<name>Overrasket latter, applaus.wav</name>
						<enabled>TRUE</enabled>
						<duration>189</duration>
						<rate>
							<timebase>25</timebase>
							<ntsc>FALSE</ntsc>
						</rate>
						<start>16204</start>
						<end>16300</end>
						<in>94</in>
						<out>190</out>
						<pproTicksIn>955100160000</pproTicksIn>
						<pproTicksOut>1930521600000</pproTicksOut>
						<file id="file-131"/>
						<sourcetrack>
							<mediatype>audio</mediatype>
							<trackindex>2</trackindex>
						</sourcetrack>
						<link>
							<linkclipref>clipitem-2756</linkclipref>
							<mediatype>audio</mediatype>
							<trackindex>19</trackindex>
							<clipindex>48</clipindex>
							<groupindex>1</groupindex>
						</link>
						<link>
							<linkclipref>clipitem-2854</linkclipref>
							<mediatype>audio</mediatype>
							<trackindex>20</trackindex>
							<clipindex>43</clipindex>
							<groupindex>1</groupindex>
						</link>
						<logginginfo>
							<description></description>
							<scene></scene>
							<shottake></shottake>
							<lognote></lognote>
						</logginginfo>
						<labels>
							<label2>Caribbean</label2>
						</labels>
					</clipitem>
					<clipitem id="clipitem-2855" premiereChannelType="stereo">
						<masterclipid>masterclip-92</masterclipid>
						<name>Hjertelig klukklatter.wav</name>
						<enabled>TRUE</enabled>
						<duration>55</duration>
						<rate>
							<timebase>25</timebase>
							<ntsc>FALSE</ntsc>
						</rate>
						<start>17389</start>
						<end>17444</end>
						<in>0</in>
						<out>55</out>
						<pproTicksIn>0</pproTicksIn>
						<pproTicksOut>558835200000</pproTicksOut>
						<file id="file-88"/>
						<sourcetrack>
							<mediatype>audio</mediatype>
							<trackindex>2</trackindex>
						</sourcetrack>
							<filter>
								<effect>
									<name>Audio Levels</name>
									<effectid>audiolevels</effectid>
									<effectcategory>audiolevels</effectcategory>
									<effecttype>audiolevels</effecttype>
									<mediatype>audio</mediatype>
									<parameter authoringApp="PremierePro">
										<parameterid>level</parameterid>
										<name>Level</name>
										<valuemin>0</valuemin>
										<valuemax>3.98109</valuemax>
										<value>0.99763</value>
									</parameter>
								</effect>
							</filter>
						<link>
							<linkclipref>clipitem-2757</linkclipref>
							<mediatype>audio</mediatype>
							<trackindex>19</trackindex>
							<clipindex>49</clipindex>
							<groupindex>1</groupindex>
						</link>
						<link>
							<linkclipref>clipitem-2855</linkclipref>
							<mediatype>audio</mediatype>
							<trackindex>20</trackindex>
							<clipindex>44</clipindex>
							<groupindex>1</groupindex>
						</link>
						<logginginfo>
							<description></description>
							<scene></scene>
							<shottake></shottake>
							<lognote></lognote>
						</logginginfo>
						<labels>
							<label2>Caribbean</label2>
						</labels>
					</clipitem>
					<clipitem id="clipitem-2856" premiereChannelType="stereo">
						<masterclipid>masterclip-136</masterclipid>
						<name>Gøyal latter med medium applaus.wav</name>
						<enabled>TRUE</enabled>
						<duration>221</duration>
						<rate>
							<timebase>25</timebase>
							<ntsc>FALSE</ntsc>
						</rate>
						<start>17751</start>
						<end>17783</end>
						<in>0</in>
						<out>32</out>
						<pproTicksIn>0</pproTicksIn>
						<pproTicksOut>325140480000</pproTicksOut>
						<file id="file-132"/>
						<sourcetrack>
							<mediatype>audio</mediatype>
							<trackindex>2</trackindex>
						</sourcetrack>
						<link>
							<linkclipref>clipitem-2758</linkclipref>
							<mediatype>audio</mediatype>
							<trackindex>19</trackindex>
							<clipindex>50</clipindex>
							<groupindex>1</groupindex>
						</link>
						<link>
							<linkclipref>clipitem-2856</linkclipref>
							<mediatype>audio</mediatype>
							<trackindex>20</trackindex>
							<clipindex>45</clipindex>
							<groupindex>1</groupindex>
						</link>
						<logginginfo>
							<description></description>
							<scene></scene>
							<shottake></shottake>
							<lognote></lognote>
						</logginginfo>
						<labels>
							<label2>Caribbean</label2>
						</labels>
					</clipitem>
					<clipitem id="clipitem-2857" premiereChannelType="stereo">
						<masterclipid>masterclip-93</masterclipid>
						<name>Kort artigere latterkule.wav</name>
						<enabled>TRUE</enabled>
						<duration>57</duration>
						<rate>
							<timebase>25</timebase>
							<ntsc>FALSE</ntsc>
						</rate>
						<start>17893</start>
						<end>17950</end>
						<in>0</in>
						<out>57</out>
						<pproTicksIn>0</pproTicksIn>
						<pproTicksOut>579156480000</pproTicksOut>
						<file id="file-89"/>
						<sourcetrack>
							<mediatype>audio</mediatype>
							<trackindex>2</trackindex>
						</sourcetrack>
							<filter>
								<effect>
									<name>Audio Levels</name>
									<effectid>audiolevels</effectid>
									<effectcategory>audiolevels</effectcategory>
									<effecttype>audiolevels</effecttype>
									<mediatype>audio</mediatype>
									<parameter authoringApp="PremierePro">
										<parameterid>level</parameterid>
										<name>Level</name>
										<valuemin>0</valuemin>
										<valuemax>3.98109</valuemax>
										<value>0.99763</value>
									</parameter>
								</effect>
							</filter>
						<link>
							<linkclipref>clipitem-2759</linkclipref>
							<mediatype>audio</mediatype>
							<trackindex>19</trackindex>
							<clipindex>51</clipindex>
							<groupindex>1</groupindex>
						</link>
						<link>
							<linkclipref>clipitem-2857</linkclipref>
							<mediatype>audio</mediatype>
							<trackindex>20</trackindex>
							<clipindex>46</clipindex>
							<groupindex>1</groupindex>
						</link>
						<logginginfo>
							<description></description>
							<scene></scene>
							<shottake></shottake>
							<lognote></lognote>
						</logginginfo>
						<labels>
							<label2>Caribbean</label2>
						</labels>
					</clipitem>
					<clipitem id="clipitem-2858" premiereChannelType="stereo">
						<masterclipid>masterclip-136</masterclipid>
						<name>Gøyal latter med medium applaus.wav</name>
						<enabled>TRUE</enabled>
						<duration>221</duration>
						<rate>
							<timebase>25</timebase>
							<ntsc>FALSE</ntsc>
						</rate>
						<start>22094</start>
						<end>22315</end>
						<in>0</in>
						<out>221</out>
						<pproTicksIn>0</pproTicksIn>
						<pproTicksOut>2245501440000</pproTicksOut>
						<file id="file-132"/>
						<sourcetrack>
							<mediatype>audio</mediatype>
							<trackindex>2</trackindex>
						</sourcetrack>
							<filter>
								<effect>
									<name>Audio Levels</name>
									<effectid>audiolevels</effectid>
									<effectcategory>audiolevels</effectcategory>
									<effecttype>audiolevels</effecttype>
									<mediatype>audio</mediatype>
									<parameter authoringApp="PremierePro">
										<parameterid>level</parameterid>
										<name>Level</name>
										<valuemin>0</valuemin>
										<valuemax>3.98109</valuemax>
										<value>1.24195</value>
									</parameter>
								</effect>
							</filter>
						<link>
							<linkclipref>clipitem-2761</linkclipref>
							<mediatype>audio</mediatype>
							<trackindex>19</trackindex>
							<clipindex>54</clipindex>
							<groupindex>1</groupindex>
						</link>
						<link>
							<linkclipref>clipitem-2858</linkclipref>
							<mediatype>audio</mediatype>
							<trackindex>20</trackindex>
							<clipindex>47</clipindex>
							<groupindex>1</groupindex>
						</link>
						<logginginfo>
							<description></description>
							<scene></scene>
							<shottake></shottake>
							<lognote></lognote>
						</logginginfo>
						<labels>
							<label2>Caribbean</label2>
						</labels>
					</clipitem>
					<clipitem id="clipitem-2859" premiereChannelType="stereo">
						<masterclipid>masterclip-96</masterclipid>
						<name>Klukking, humring.wav</name>
						<enabled>TRUE</enabled>
						<duration>61</duration>
						<rate>
							<timebase>25</timebase>
							<ntsc>FALSE</ntsc>
						</rate>
						<start>22714</start>
						<end>22775</end>
						<in>0</in>
						<out>61</out>
						<pproTicksIn>0</pproTicksIn>
						<pproTicksOut>619799040000</pproTicksOut>
						<file id="file-92"/>
						<sourcetrack>
							<mediatype>audio</mediatype>
							<trackindex>2</trackindex>
						</sourcetrack>
							<filter>
								<effect>
									<name>Audio Levels</name>
									<effectid>audiolevels</effectid>
									<effectcategory>audiolevels</effectcategory>
									<effecttype>audiolevels</effecttype>
									<mediatype>audio</mediatype>
									<parameter authoringApp="PremierePro">
										<parameterid>level</parameterid>
										<name>Level</name>
										<valuemin>0</valuemin>
										<valuemax>3.98109</valuemax>
										<value>0.99763</value>
									</parameter>
								</effect>
							</filter>
						<link>
							<linkclipref>clipitem-2762</linkclipref>
							<mediatype>audio</mediatype>
							<trackindex>19</trackindex>
							<clipindex>55</clipindex>
							<groupindex>1</groupindex>
						</link>
						<link>
							<linkclipref>clipitem-2859</linkclipref>
							<mediatype>audio</mediatype>
							<trackindex>20</trackindex>
							<clipindex>48</clipindex>
							<groupindex>1</groupindex>
						</link>
						<logginginfo>
							<description></description>
							<scene></scene>
							<shottake></shottake>
							<lognote></lognote>
						</logginginfo>
						<labels>
							<label2>Caribbean</label2>
						</labels>
					</clipitem>
					<clipitem id="clipitem-2860" premiereChannelType="stereo">
						<masterclipid>masterclip-112</masterclipid>
						<name>Latter uryddig med litt applaus 9sek.wav</name>
						<enabled>TRUE</enabled>
						<duration>234</duration>
						<rate>
							<timebase>25</timebase>
							<ntsc>FALSE</ntsc>
						</rate>
						<start>23877</start>
						<end>24111</end>
						<in>0</in>
						<out>234</out>
						<pproTicksIn>0</pproTicksIn>
						<pproTicksOut>2377589760000</pproTicksOut>
						<file id="file-108"/>
						<sourcetrack>
							<mediatype>audio</mediatype>
							<trackindex>2</trackindex>
						</sourcetrack>
						<link>
							<linkclipref>clipitem-2763</linkclipref>
							<mediatype>audio</mediatype>
							<trackindex>19</trackindex>
							<clipindex>56</clipindex>
							<groupindex>1</groupindex>
						</link>
						<link>
							<linkclipref>clipitem-2860</linkclipref>
							<mediatype>audio</mediatype>
							<trackindex>20</trackindex>
							<clipindex>49</clipindex>
							<groupindex>1</groupindex>
						</link>
						<logginginfo>
							<description></description>
							<scene></scene>
							<shottake></shottake>
							<lognote></lognote>
						</logginginfo>
						<labels>
							<label2>Caribbean</label2>
						</labels>
					</clipitem>
					<clipitem id="clipitem-2861" premiereChannelType="stereo">
						<masterclipid>masterclip-137</masterclipid>
						<name>Lett latter, applaus.wav</name>
						<enabled>TRUE</enabled>
						<duration>154</duration>
						<rate>
							<timebase>25</timebase>
							<ntsc>FALSE</ntsc>
						</rate>
						<start>24136</start>
						<end>24290</end>
						<in>0</in>
						<out>154</out>
						<pproTicksIn>0</pproTicksIn>
						<pproTicksOut>1564738560000</pproTicksOut>
						<file id="file-133"/>
						<sourcetrack>
							<mediatype>audio</mediatype>
							<trackindex>2</trackindex>
						</sourcetrack>
						<link>
							<linkclipref>clipitem-2764</linkclipref>
							<mediatype>audio</mediatype>
							<trackindex>19</trackindex>
							<clipindex>57</clipindex>
							<groupindex>1</groupindex>
						</link>
						<link>
							<linkclipref>clipitem-2861</linkclipref>
							<mediatype>audio</mediatype>
							<trackindex>20</trackindex>
							<clipindex>50</clipindex>
							<groupindex>1</groupindex>
						</link>
						<logginginfo>
							<description></description>
							<scene></scene>
							<shottake></shottake>
							<lognote></lognote>
						</logginginfo>
						<labels>
							<label2>Caribbean</label2>
						</labels>
					</clipitem>
					<clipitem id="clipitem-2862" premiereChannelType="stereo">
						<masterclipid>masterclip-120</masterclipid>
						<name>Applaus 7 sek.wav</name>
						<enabled>TRUE</enabled>
						<duration>182</duration>
						<rate>
							<timebase>25</timebase>
							<ntsc>FALSE</ntsc>
						</rate>
						<start>25273</start>
						<end>25455</end>
						<in>0</in>
						<out>182</out>
						<pproTicksIn>0</pproTicksIn>
						<pproTicksOut>1849236480000</pproTicksOut>
						<file id="file-116"/>
						<sourcetrack>
							<mediatype>audio</mediatype>
							<trackindex>2</trackindex>
						</sourcetrack>
						<link>
							<linkclipref>clipitem-2765</linkclipref>
							<mediatype>audio</mediatype>
							<trackindex>19</trackindex>
							<clipindex>58</clipindex>
							<groupindex>1</groupindex>
						</link>
						<link>
							<linkclipref>clipitem-2862</linkclipref>
							<mediatype>audio</mediatype>
							<trackindex>20</trackindex>
							<clipindex>51</clipindex>
							<groupindex>1</groupindex>
						</link>
						<logginginfo>
							<description></description>
							<scene></scene>
							<shottake></shottake>
							<lognote></lognote>
						</logginginfo>
						<labels>
							<label2>Caribbean</label2>
						</labels>
					</clipitem>
					<clipitem id="clipitem-2863" premiereChannelType="stereo">
						<masterclipid>masterclip-138</masterclipid>
						<name>Latter kort 2.wav</name>
						<enabled>TRUE</enabled>
						<duration>87</duration>
						<rate>
							<timebase>25</timebase>
							<ntsc>FALSE</ntsc>
						</rate>
						<start>25719</start>
						<end>25806</end>
						<in>0</in>
						<out>87</out>
						<pproTicksIn>0</pproTicksIn>
						<pproTicksOut>883975680000</pproTicksOut>
						<file id="file-134"/>
						<sourcetrack>
							<mediatype>audio</mediatype>
							<trackindex>2</trackindex>
						</sourcetrack>
						<link>
							<linkclipref>clipitem-2766</linkclipref>
							<mediatype>audio</mediatype>
							<trackindex>19</trackindex>
							<clipindex>59</clipindex>
							<groupindex>1</groupindex>
						</link>
						<link>
							<linkclipref>clipitem-2863</linkclipref>
							<mediatype>audio</mediatype>
							<trackindex>20</trackindex>
							<clipindex>52</clipindex>
							<groupindex>1</groupindex>
						</link>
						<logginginfo>
							<description></description>
							<scene></scene>
							<shottake></shottake>
							<lognote></lognote>
						</logginginfo>
						<labels>
							<label2>Caribbean</label2>
						</labels>
					</clipitem>
					<clipitem id="clipitem-2864" premiereChannelType="stereo">
						<masterclipid>masterclip-139</masterclipid>
						<name>Applaus, litt plystring.wav</name>
						<enabled>TRUE</enabled>
						<duration>177</duration>
						<rate>
							<timebase>25</timebase>
							<ntsc>FALSE</ntsc>
						</rate>
						<start>27433</start>
						<end>27610</end>
						<in>0</in>
						<out>177</out>
						<pproTicksIn>0</pproTicksIn>
						<pproTicksOut>1798433280000</pproTicksOut>
						<file id="file-135"/>
						<sourcetrack>
							<mediatype>audio</mediatype>
							<trackindex>2</trackindex>
						</sourcetrack>
							<filter>
								<effect>
									<name>Audio Levels</name>
									<effectid>audiolevels</effectid>
									<effectcategory>audiolevels</effectcategory>
									<effecttype>audiolevels</effecttype>
									<mediatype>audio</mediatype>
									<parameter authoringApp="PremierePro">
										<parameterid>level</parameterid>
										<name>Level</name>
										<valuemin>0</valuemin>
										<valuemax>3.98109</valuemax>
										<value>1.08077</value>
									</parameter>
								</effect>
							</filter>
						<link>
							<linkclipref>clipitem-2767</linkclipref>
							<mediatype>audio</mediatype>
							<trackindex>19</trackindex>
							<clipindex>60</clipindex>
							<groupindex>1</groupindex>
						</link>
						<link>
							<linkclipref>clipitem-2864</linkclipref>
							<mediatype>audio</mediatype>
							<trackindex>20</trackindex>
							<clipindex>53</clipindex>
							<groupindex>1</groupindex>
						</link>
						<logginginfo>
							<description></description>
							<scene></scene>
							<shottake></shottake>
							<lognote></lognote>
						</logginginfo>
						<labels>
							<label2>Caribbean</label2>
						</labels>
					</clipitem>
					<clipitem id="clipitem-2865" premiereChannelType="stereo">
						<masterclipid>masterclip-140</masterclipid>
						<name>Mellomlang liten latter.wav</name>
						<enabled>TRUE</enabled>
						<duration>105</duration>
						<rate>
							<timebase>25</timebase>
							<ntsc>FALSE</ntsc>
						</rate>
						<start>28403</start>
						<end>28508</end>
						<in>0</in>
						<out>105</out>
						<pproTicksIn>0</pproTicksIn>
						<pproTicksOut>1066867200000</pproTicksOut>
						<file id="file-136"/>
						<sourcetrack>
							<mediatype>audio</mediatype>
							<trackindex>2</trackindex>
						</sourcetrack>
						<link>
							<linkclipref>clipitem-2768</linkclipref>
							<mediatype>audio</mediatype>
							<trackindex>19</trackindex>
							<clipindex>61</clipindex>
							<groupindex>1</groupindex>
						</link>
						<link>
							<linkclipref>clipitem-2865</linkclipref>
							<mediatype>audio</mediatype>
							<trackindex>20</trackindex>
							<clipindex>54</clipindex>
							<groupindex>1</groupindex>
						</link>
						<logginginfo>
							<description></description>
							<scene></scene>
							<shottake></shottake>
							<lognote></lognote>
						</logginginfo>
						<labels>
							<label2>Caribbean</label2>
						</labels>
					</clipitem>
					<clipitem id="clipitem-2866" premiereChannelType="stereo">
						<masterclipid>masterclip-141</masterclipid>
						<name>Spredt overbærende latter.wav</name>
						<enabled>TRUE</enabled>
						<duration>81</duration>
						<rate>
							<timebase>25</timebase>
							<ntsc>FALSE</ntsc>
						</rate>
						<start>28537</start>
						<end>28618</end>
						<in>0</in>
						<out>81</out>
						<pproTicksIn>0</pproTicksIn>
						<pproTicksOut>823011840000</pproTicksOut>
						<file id="file-137"/>
						<sourcetrack>
							<mediatype>audio</mediatype>
							<trackindex>2</trackindex>
						</sourcetrack>
						<link>
							<linkclipref>clipitem-2769</linkclipref>
							<mediatype>audio</mediatype>
							<trackindex>19</trackindex>
							<clipindex>62</clipindex>
							<groupindex>1</groupindex>
						</link>
						<link>
							<linkclipref>clipitem-2866</linkclipref>
							<mediatype>audio</mediatype>
							<trackindex>20</trackindex>
							<clipindex>55</clipindex>
							<groupindex>1</groupindex>
						</link>
						<logginginfo>
							<description></description>
							<scene></scene>
							<shottake></shottake>
							<lognote></lognote>
						</logginginfo>
						<labels>
							<label2>Caribbean</label2>
						</labels>
					</clipitem>
					<clipitem id="clipitem-2867" premiereChannelType="stereo">
						<masterclipid>masterclip-142</masterclipid>
						<name>Kort artigere latterkule.wav</name>
						<enabled>TRUE</enabled>
						<duration>57</duration>
						<rate>
							<timebase>25</timebase>
							<ntsc>FALSE</ntsc>
						</rate>
						<start>29576</start>
						<end>29633</end>
						<in>0</in>
						<out>57</out>
						<pproTicksIn>0</pproTicksIn>
						<pproTicksOut>579156480000</pproTicksOut>
						<file id="file-138"/>
						<sourcetrack>
							<mediatype>audio</mediatype>
							<trackindex>2</trackindex>
						</sourcetrack>
						<link>
							<linkclipref>clipitem-2770</linkclipref>
							<mediatype>audio</mediatype>
							<trackindex>19</trackindex>
							<clipindex>63</clipindex>
							<groupindex>1</groupindex>
						</link>
						<link>
							<linkclipref>clipitem-2867</linkclipref>
							<mediatype>audio</mediatype>
							<trackindex>20</trackindex>
							<clipindex>56</clipindex>
							<groupindex>1</groupindex>
						</link>
						<logginginfo>
							<description></description>
							<scene></scene>
							<shottake></shottake>
							<lognote></lognote>
						</logginginfo>
						<labels>
							<label2>Caribbean</label2>
						</labels>
					</clipitem>
					<clipitem id="clipitem-2868" premiereChannelType="stereo">
						<masterclipid>masterclip-143</masterclipid>
						<name>Whoosh%20By%2007.wav</name>
						<enabled>TRUE</enabled>
						<duration>42</duration>
						<rate>
							<timebase>25</timebase>
							<ntsc>FALSE</ntsc>
						</rate>
						<start>29862</start>
						<end>29904</end>
						<in>0</in>
						<out>42</out>
						<pproTicksIn>0</pproTicksIn>
						<pproTicksOut>426746880000</pproTicksOut>
						<file id="file-139"/>
						<sourcetrack>
							<mediatype>audio</mediatype>
							<trackindex>2</trackindex>
						</sourcetrack>
							<filter>
								<effect>
									<name>Audio Levels</name>
									<effectid>audiolevels</effectid>
									<effectcategory>audiolevels</effectcategory>
									<effecttype>audiolevels</effecttype>
									<mediatype>audio</mediatype>
									<parameter authoringApp="PremierePro">
										<parameterid>level</parameterid>
										<name>Level</name>
										<valuemin>0</valuemin>
										<valuemax>3.98109</valuemax>
										<value>0.177406</value>
									</parameter>
								</effect>
							</filter>
						<link>
							<linkclipref>clipitem-2771</linkclipref>
							<mediatype>audio</mediatype>
							<trackindex>19</trackindex>
							<clipindex>64</clipindex>
							<groupindex>1</groupindex>
						</link>
						<link>
							<linkclipref>clipitem-2868</linkclipref>
							<mediatype>audio</mediatype>
							<trackindex>20</trackindex>
							<clipindex>57</clipindex>
							<groupindex>1</groupindex>
						</link>
						<logginginfo>
							<description></description>
							<scene></scene>
							<shottake></shottake>
							<lognote></lognote>
						</logginginfo>
						<labels>
							<label2>Caribbean</label2>
						</labels>
					</clipitem>
					<clipitem id="clipitem-2869" premiereChannelType="stereo">
						<masterclipid>masterclip-144</masterclipid>
						<name>Enkel, kort latter.wav</name>
						<enabled>TRUE</enabled>
						<duration>69</duration>
						<rate>
							<timebase>25</timebase>
							<ntsc>FALSE</ntsc>
						</rate>
						<start>30767</start>
						<end>30836</end>
						<in>0</in>
						<out>69</out>
						<pproTicksIn>0</pproTicksIn>
						<pproTicksOut>701084160000</pproTicksOut>
						<file id="file-140"/>
						<sourcetrack>
							<mediatype>audio</mediatype>
							<trackindex>2</trackindex>
						</sourcetrack>
						<link>
							<linkclipref>clipitem-2772</linkclipref>
							<mediatype>audio</mediatype>
							<trackindex>19</trackindex>
							<clipindex>65</clipindex>
							<groupindex>1</groupindex>
						</link>
						<link>
							<linkclipref>clipitem-2869</linkclipref>
							<mediatype>audio</mediatype>
							<trackindex>20</trackindex>
							<clipindex>58</clipindex>
							<groupindex>1</groupindex>
						</link>
						<logginginfo>
							<description></description>
							<scene></scene>
							<shottake></shottake>
							<lognote></lognote>
						</logginginfo>
						<labels>
							<label2>Caribbean</label2>
						</labels>
					</clipitem>
					<clipitem id="clipitem-2870" premiereChannelType="stereo">
						<masterclipid>masterclip-145</masterclipid>
						<name>Kort latter Hege.wav</name>
						<enabled>TRUE</enabled>
						<duration>77</duration>
						<rate>
							<timebase>25</timebase>
							<ntsc>FALSE</ntsc>
						</rate>
						<start>30836</start>
						<end>30914</end>
						<in>0</in>
						<out>78</out>
						<pproTicksIn>0</pproTicksIn>
						<pproTicksOut>792529920000</pproTicksOut>
						<file id="file-141"/>
						<sourcetrack>
							<mediatype>audio</mediatype>
							<trackindex>2</trackindex>
						</sourcetrack>
							<filter>
								<effect>
									<name>Audio Levels</name>
									<effectid>audiolevels</effectid>
									<effectcategory>audiolevels</effectcategory>
									<effecttype>audiolevels</effecttype>
									<mediatype>audio</mediatype>
									<parameter authoringApp="PremierePro">
										<parameterid>level</parameterid>
										<name>Level</name>
										<valuemin>0</valuemin>
										<valuemax>3.98109</valuemax>
										<value>0.99763</value>
									</parameter>
								</effect>
							</filter>
						<link>
							<linkclipref>clipitem-2773</linkclipref>
							<mediatype>audio</mediatype>
							<trackindex>19</trackindex>
							<clipindex>66</clipindex>
							<groupindex>1</groupindex>
						</link>
						<link>
							<linkclipref>clipitem-2870</linkclipref>
							<mediatype>audio</mediatype>
							<trackindex>20</trackindex>
							<clipindex>59</clipindex>
							<groupindex>1</groupindex>
						</link>
						<logginginfo>
							<description></description>
							<scene></scene>
							<shottake></shottake>
							<lognote></lognote>
						</logginginfo>
						<labels>
							<label2>Caribbean</label2>
						</labels>
					</clipitem>
					<clipitem id="clipitem-2871" premiereChannelType="stereo">
						<masterclipid>masterclip-146</masterclipid>
						<name>Brå liten latter HÆHÆ.wav</name>
						<enabled>TRUE</enabled>
						<duration>114</duration>
						<rate>
							<timebase>25</timebase>
							<ntsc>FALSE</ntsc>
						</rate>
						<start>31006</start>
						<end>31120</end>
						<in>0</in>
						<out>114</out>
						<pproTicksIn>0</pproTicksIn>
						<pproTicksOut>1158312960000</pproTicksOut>
						<file id="file-142"/>
						<sourcetrack>
							<mediatype>audio</mediatype>
							<trackindex>2</trackindex>
						</sourcetrack>
							<filter>
								<effect>
									<name>Audio Levels</name>
									<effectid>audiolevels</effectid>
									<effectcategory>audiolevels</effectcategory>
									<effecttype>audiolevels</effecttype>
									<mediatype>audio</mediatype>
									<parameter authoringApp="PremierePro">
										<parameterid>level</parameterid>
										<name>Level</name>
										<valuemin>0</valuemin>
										<valuemax>3.98109</valuemax>
										<value>0.99763</value>
									</parameter>
								</effect>
							</filter>
						<link>
							<linkclipref>clipitem-2774</linkclipref>
							<mediatype>audio</mediatype>
							<trackindex>19</trackindex>
							<clipindex>67</clipindex>
							<groupindex>1</groupindex>
						</link>
						<link>
							<linkclipref>clipitem-2871</linkclipref>
							<mediatype>audio</mediatype>
							<trackindex>20</trackindex>
							<clipindex>60</clipindex>
							<groupindex>1</groupindex>
						</link>
						<logginginfo>
							<description></description>
							<scene></scene>
							<shottake></shottake>
							<lognote></lognote>
						</logginginfo>
						<labels>
							<label2>Caribbean</label2>
						</labels>
					</clipitem>
					<clipitem id="clipitem-2872" premiereChannelType="stereo">
						<masterclipid>masterclip-145</masterclipid>
						<name>Kort latter Hege.wav</name>
						<enabled>TRUE</enabled>
						<duration>77</duration>
						<rate>
							<timebase>25</timebase>
							<ntsc>FALSE</ntsc>
						</rate>
						<start>31273</start>
						<end>31350</end>
						<in>0</in>
						<out>77</out>
						<pproTicksIn>0</pproTicksIn>
						<pproTicksOut>782369280000</pproTicksOut>
						<file id="file-141"/>
						<sourcetrack>
							<mediatype>audio</mediatype>
							<trackindex>2</trackindex>
						</sourcetrack>
							<filter>
								<effect>
									<name>Audio Levels</name>
									<effectid>audiolevels</effectid>
									<effectcategory>audiolevels</effectcategory>
									<effecttype>audiolevels</effecttype>
									<mediatype>audio</mediatype>
									<parameter authoringApp="PremierePro">
										<parameterid>level</parameterid>
										<name>Level</name>
										<valuemin>0</valuemin>
										<valuemax>3.98109</valuemax>
										<value>0.99763</value>
									</parameter>
								</effect>
							</filter>
						<link>
							<linkclipref>clipitem-2775</linkclipref>
							<mediatype>audio</mediatype>
							<trackindex>19</trackindex>
							<clipindex>68</clipindex>
							<groupindex>1</groupindex>
						</link>
						<link>
							<linkclipref>clipitem-2872</linkclipref>
							<mediatype>audio</mediatype>
							<trackindex>20</trackindex>
							<clipindex>61</clipindex>
							<groupindex>1</groupindex>
						</link>
						<logginginfo>
							<description></description>
							<scene></scene>
							<shottake></shottake>
							<lognote></lognote>
						</logginginfo>
						<labels>
							<label2>Caribbean</label2>
						</labels>
					</clipitem>
					<clipitem id="clipitem-2873" premiereChannelType="stereo">
						<masterclipid>masterclip-147</masterclipid>
						<name>Kort, litt brå latter.wav</name>
						<enabled>TRUE</enabled>
						<duration>53</duration>
						<rate>
							<timebase>25</timebase>
							<ntsc>FALSE</ntsc>
						</rate>
						<start>31477</start>
						<end>31513</end>
						<in>0</in>
						<out>36</out>
						<pproTicksIn>0</pproTicksIn>
						<pproTicksOut>365783040000</pproTicksOut>
						<file id="file-143"/>
						<sourcetrack>
							<mediatype>audio</mediatype>
							<trackindex>2</trackindex>
						</sourcetrack>
							<filter>
								<effect>
									<name>Audio Levels</name>
									<effectid>audiolevels</effectid>
									<effectcategory>audiolevels</effectcategory>
									<effecttype>audiolevels</effecttype>
									<mediatype>audio</mediatype>
									<parameter authoringApp="PremierePro">
										<parameterid>level</parameterid>
										<name>Level</name>
										<valuemin>0</valuemin>
										<valuemax>3.98109</valuemax>
										<value>0.99763</value>
									</parameter>
								</effect>
							</filter>
						<link>
							<linkclipref>clipitem-2776</linkclipref>
							<mediatype>audio</mediatype>
							<trackindex>19</trackindex>
							<clipindex>69</clipindex>
							<groupindex>1</groupindex>
						</link>
						<link>
							<linkclipref>clipitem-2873</linkclipref>
							<mediatype>audio</mediatype>
							<trackindex>20</trackindex>
							<clipindex>62</clipindex>
							<groupindex>1</groupindex>
						</link>
						<logginginfo>
							<description></description>
							<scene></scene>
							<shottake></shottake>
							<lognote></lognote>
						</logginginfo>
						<labels>
							<label2>Caribbean</label2>
						</labels>
					</clipitem>
					<clipitem id="clipitem-2874" premiereChannelType="stereo">
						<masterclipid>masterclip-148</masterclipid>
						<name>Latter, så applaus.wav</name>
						<enabled>TRUE</enabled>
						<duration>241</duration>
						<rate>
							<timebase>25</timebase>
							<ntsc>FALSE</ntsc>
						</rate>
						<start>32241</start>
						<end>32298</end>
						<in>0</in>
						<out>57</out>
						<pproTicksIn>0</pproTicksIn>
						<pproTicksOut>579156480000</pproTicksOut>
						<file id="file-144"/>
						<sourcetrack>
							<mediatype>audio</mediatype>
							<trackindex>2</trackindex>
						</sourcetrack>
							<filter>
								<effect>
									<name>Audio Levels</name>
									<effectid>audiolevels</effectid>
									<effectcategory>audiolevels</effectcategory>
									<effecttype>audiolevels</effecttype>
									<mediatype>audio</mediatype>
									<parameter authoringApp="PremierePro">
										<parameterid>level</parameterid>
										<name>Level</name>
										<valuemin>0</valuemin>
										<valuemax>3.98109</valuemax>
										<value>0.99763</value>
									</parameter>
								</effect>
							</filter>
						<link>
							<linkclipref>clipitem-2777</linkclipref>
							<mediatype>audio</mediatype>
							<trackindex>19</trackindex>
							<clipindex>70</clipindex>
							<groupindex>1</groupindex>
						</link>
						<link>
							<linkclipref>clipitem-2874</linkclipref>
							<mediatype>audio</mediatype>
							<trackindex>20</trackindex>
							<clipindex>63</clipindex>
							<groupindex>1</groupindex>
						</link>
						<logginginfo>
							<description></description>
							<scene></scene>
							<shottake></shottake>
							<lognote></lognote>
						</logginginfo>
						<labels>
							<label2>Caribbean</label2>
						</labels>
					</clipitem>
					<clipitem id="clipitem-2875" premiereChannelType="stereo">
						<masterclipid>masterclip-148</masterclipid>
						<name>Latter, så applaus.wav</name>
						<enabled>TRUE</enabled>
						<duration>241</duration>
						<rate>
							<timebase>25</timebase>
							<ntsc>FALSE</ntsc>
						</rate>
						<start>32298</start>
						<end>32451</end>
						<in>88</in>
						<out>241</out>
						<pproTicksIn>894136320000</pproTicksIn>
						<pproTicksOut>2448714240000</pproTicksOut>
						<file id="file-144"/>
						<sourcetrack>
							<mediatype>audio</mediatype>
							<trackindex>2</trackindex>
						</sourcetrack>
							<filter>
								<effect>
									<name>Audio Levels</name>
									<effectid>audiolevels</effectid>
									<effectcategory>audiolevels</effectcategory>
									<effecttype>audiolevels</effecttype>
									<mediatype>audio</mediatype>
									<parameter authoringApp="PremierePro">
										<parameterid>level</parameterid>
										<name>Level</name>
										<valuemin>0</valuemin>
										<valuemax>3.98109</valuemax>
										<value>0.99763</value>
									</parameter>
								</effect>
							</filter>
						<link>
							<linkclipref>clipitem-2778</linkclipref>
							<mediatype>audio</mediatype>
							<trackindex>19</trackindex>
							<clipindex>71</clipindex>
							<groupindex>1</groupindex>
						</link>
						<link>
							<linkclipref>clipitem-2875</linkclipref>
							<mediatype>audio</mediatype>
							<trackindex>20</trackindex>
							<clipindex>64</clipindex>
							<groupindex>1</groupindex>
						</link>
						<logginginfo>
							<description></description>
							<scene></scene>
							<shottake></shottake>
							<lognote></lognote>
						</logginginfo>
						<labels>
							<label2>Caribbean</label2>
						</labels>
					</clipitem>
					<clipitem id="clipitem-2876" premiereChannelType="stereo">
						<masterclipid>masterclip-149</masterclipid>
						<name>Kort latter blaut vits.wav</name>
						<enabled>TRUE</enabled>
						<duration>116</duration>
						<rate>
							<timebase>25</timebase>
							<ntsc>FALSE</ntsc>
						</rate>
						<start>32646</start>
						<end>32762</end>
						<in>0</in>
						<out>116</out>
						<pproTicksIn>0</pproTicksIn>
						<pproTicksOut>1178634240000</pproTicksOut>
						<file id="file-145"/>
						<sourcetrack>
							<mediatype>audio</mediatype>
							<trackindex>2</trackindex>
						</sourcetrack>
						<link>
							<linkclipref>clipitem-2779</linkclipref>
							<mediatype>audio</mediatype>
							<trackindex>19</trackindex>
							<clipindex>72</clipindex>
							<groupindex>1</groupindex>
						</link>
						<link>
							<linkclipref>clipitem-2876</linkclipref>
							<mediatype>audio</mediatype>
							<trackindex>20</trackindex>
							<clipindex>65</clipindex>
							<groupindex>1</groupindex>
						</link>
						<logginginfo>
							<description></description>
							<scene></scene>
							<shottake></shottake>
							<lognote></lognote>
						</logginginfo>
						<labels>
							<label2>Caribbean</label2>
						</labels>
					</clipitem>
					<clipitem id="clipitem-2877" premiereChannelType="stereo">
						<masterclipid>masterclip-150</masterclipid>
						<name>Avmålt, kort HEHEHE.wav</name>
						<enabled>TRUE</enabled>
						<duration>51</duration>
						<rate>
							<timebase>25</timebase>
							<ntsc>FALSE</ntsc>
						</rate>
						<start>32872</start>
						<end>32923</end>
						<in>0</in>
						<out>51</out>
						<pproTicksIn>0</pproTicksIn>
						<pproTicksOut>518192640000</pproTicksOut>
						<file id="file-146"/>
						<sourcetrack>
							<mediatype>audio</mediatype>
							<trackindex>2</trackindex>
						</sourcetrack>
							<filter>
								<effect>
									<name>Audio Levels</name>
									<effectid>audiolevels</effectid>
									<effectcategory>audiolevels</effectcategory>
									<effecttype>audiolevels</effecttype>
									<mediatype>audio</mediatype>
									<parameter authoringApp="PremierePro">
										<parameterid>level</parameterid>
										<name>Level</name>
										<valuemin>0</valuemin>
										<valuemax>3.98109</valuemax>
										<value>0.99763</value>
									</parameter>
								</effect>
							</filter>
						<link>
							<linkclipref>clipitem-2780</linkclipref>
							<mediatype>audio</mediatype>
							<trackindex>19</trackindex>
							<clipindex>73</clipindex>
							<groupindex>1</groupindex>
						</link>
						<link>
							<linkclipref>clipitem-2877</linkclipref>
							<mediatype>audio</mediatype>
							<trackindex>20</trackindex>
							<clipindex>66</clipindex>
							<groupindex>1</groupindex>
						</link>
						<logginginfo>
							<description></description>
							<scene></scene>
							<shottake></shottake>
							<lognote></lognote>
						</logginginfo>
						<labels>
							<label2>Caribbean</label2>
						</labels>
					</clipitem>
					<clipitem id="clipitem-2878" premiereChannelType="stereo">
						<masterclipid>masterclip-91</masterclipid>
						<name>Medium latterkule.wav</name>
						<enabled>TRUE</enabled>
						<duration>121</duration>
						<rate>
							<timebase>25</timebase>
							<ntsc>FALSE</ntsc>
						</rate>
						<start>33732</start>
						<end>33766</end>
						<in>0</in>
						<out>34</out>
						<pproTicksIn>0</pproTicksIn>
						<pproTicksOut>345461760000</pproTicksOut>
						<file id="file-87"/>
						<sourcetrack>
							<mediatype>audio</mediatype>
							<trackindex>2</trackindex>
						</sourcetrack>
							<filter>
								<effect>
									<name>Audio Levels</name>
									<effectid>audiolevels</effectid>
									<effectcategory>audiolevels</effectcategory>
									<effecttype>audiolevels</effecttype>
									<mediatype>audio</mediatype>
									<parameter authoringApp="PremierePro">
										<parameterid>level</parameterid>
										<name>Level</name>
										<valuemin>0</valuemin>
										<valuemax>3.98109</valuemax>
										<value>0.99763</value>
									</parameter>
								</effect>
							</filter>
						<link>
							<linkclipref>clipitem-2781</linkclipref>
							<mediatype>audio</mediatype>
							<trackindex>19</trackindex>
							<clipindex>74</clipindex>
							<groupindex>1</groupindex>
						</link>
						<link>
							<linkclipref>clipitem-2878</linkclipref>
							<mediatype>audio</mediatype>
							<trackindex>20</trackindex>
							<clipindex>67</clipindex>
							<groupindex>1</groupindex>
						</link>
						<logginginfo>
							<description></description>
							<scene></scene>
							<shottake></shottake>
							<lognote></lognote>
						</logginginfo>
						<labels>
							<label2>Caribbean</label2>
						</labels>
					</clipitem>
					<clipitem id="clipitem-2879" premiereChannelType="stereo">
						<masterclipid>masterclip-91</masterclipid>
						<name>Medium latterkule.wav</name>
						<enabled>TRUE</enabled>
						<duration>121</duration>
						<rate>
							<timebase>25</timebase>
							<ntsc>FALSE</ntsc>
						</rate>
						<start>33766</start>
						<end>33853</end>
						<in>34</in>
						<out>121</out>
						<pproTicksIn>345461760000</pproTicksIn>
						<pproTicksOut>1229437440000</pproTicksOut>
						<file id="file-87"/>
						<sourcetrack>
							<mediatype>audio</mediatype>
							<trackindex>2</trackindex>
						</sourcetrack>
							<filter>
								<effect>
									<name>Audio Levels</name>
									<effectid>audiolevels</effectid>
									<effectcategory>audiolevels</effectcategory>
									<effecttype>audiolevels</effecttype>
									<mediatype>audio</mediatype>
									<parameter authoringApp="PremierePro">
										<parameterid>level</parameterid>
										<name>Level</name>
										<valuemin>0</valuemin>
										<valuemax>3.98109</valuemax>
										<value>0.99763</value>
									</parameter>
								</effect>
							</filter>
						<link>
							<linkclipref>clipitem-2782</linkclipref>
							<mediatype>audio</mediatype>
							<trackindex>19</trackindex>
							<clipindex>75</clipindex>
							<groupindex>1</groupindex>
						</link>
						<link>
							<linkclipref>clipitem-2879</linkclipref>
							<mediatype>audio</mediatype>
							<trackindex>20</trackindex>
							<clipindex>68</clipindex>
							<groupindex>1</groupindex>
						</link>
						<logginginfo>
							<description></description>
							<scene></scene>
							<shottake></shottake>
							<lognote></lognote>
						</logginginfo>
						<labels>
							<label2>Caribbean</label2>
						</labels>
					</clipitem>
					<clipitem id="clipitem-2880" premiereChannelType="stereo">
						<masterclipid>masterclip-135</masterclipid>
						<name>Overrasket latter, applaus.wav</name>
						<enabled>TRUE</enabled>
						<duration>189</duration>
						<rate>
							<timebase>25</timebase>
							<ntsc>FALSE</ntsc>
						</rate>
						<start>35434</start>
						<end>35624</end>
						<in>0</in>
						<out>190</out>
						<pproTicksIn>0</pproTicksIn>
						<pproTicksOut>1930521600000</pproTicksOut>
						<file id="file-131"/>
						<sourcetrack>
							<mediatype>audio</mediatype>
							<trackindex>2</trackindex>
						</sourcetrack>
							<filter>
								<effect>
									<name>Audio Levels</name>
									<effectid>audiolevels</effectid>
									<effectcategory>audiolevels</effectcategory>
									<effecttype>audiolevels</effecttype>
									<mediatype>audio</mediatype>
									<parameter authoringApp="PremierePro">
										<parameterid>level</parameterid>
										<name>Level</name>
										<valuemin>0</valuemin>
										<valuemax>3.98109</valuemax>
										<value>0.99763</value>
									</parameter>
								</effect>
							</filter>
						<link>
							<linkclipref>clipitem-2783</linkclipref>
							<mediatype>audio</mediatype>
							<trackindex>19</trackindex>
							<clipindex>76</clipindex>
							<groupindex>1</groupindex>
						</link>
						<link>
							<linkclipref>clipitem-2880</linkclipref>
							<mediatype>audio</mediatype>
							<trackindex>20</trackindex>
							<clipindex>69</clipindex>
							<groupindex>1</groupindex>
						</link>
						<logginginfo>
							<description></description>
							<scene></scene>
							<shottake></shottake>
							<lognote></lognote>
						</logginginfo>
						<labels>
							<label2>Caribbean</label2>
						</labels>
					</clipitem>
					<clipitem id="clipitem-2881" premiereChannelType="stereo">
						<masterclipid>masterclip-151</masterclipid>
						<name>Applaus 6 sek.wav</name>
						<enabled>TRUE</enabled>
						<duration>151</duration>
						<rate>
							<timebase>25</timebase>
							<ntsc>FALSE</ntsc>
						</rate>
						<start>36430</start>
						<end>36581</end>
						<in>0</in>
						<out>151</out>
						<pproTicksIn>0</pproTicksIn>
						<pproTicksOut>1534256640000</pproTicksOut>
						<file id="file-147"/>
						<sourcetrack>
							<mediatype>audio</mediatype>
							<trackindex>2</trackindex>
						</sourcetrack>
						<link>
							<linkclipref>clipitem-2784</linkclipref>
							<mediatype>audio</mediatype>
							<trackindex>19</trackindex>
							<clipindex>77</clipindex>
							<groupindex>1</groupindex>
						</link>
						<link>
							<linkclipref>clipitem-2881</linkclipref>
							<mediatype>audio</mediatype>
							<trackindex>20</trackindex>
							<clipindex>70</clipindex>
							<groupindex>1</groupindex>
						</link>
						<logginginfo>
							<description></description>
							<scene></scene>
							<shottake></shottake>
							<lognote></lognote>
						</logginginfo>
						<labels>
							<label2>Caribbean</label2>
						</labels>
					</clipitem>
					<clipitem id="clipitem-2882" premiereChannelType="stereo">
						<masterclipid>masterclip-6</masterclipid>
						<name>NSPO30604105AA.mxf</name>
						<enabled>TRUE</enabled>
						<duration>89255</duration>
						<rate>
							<timebase>25</timebase>
							<ntsc>FALSE</ntsc>
						</rate>
						<start>36700</start>
						<end>-1</end>
						<in>60104</in>
						<out>60151</out>
						<pproTicksIn>610695106560000</pproTicksIn>
						<pproTicksOut>611172656640000</pproTicksOut>
						<file id="file-5"/>
						<sourcetrack>
							<mediatype>audio</mediatype>
							<trackindex>2</trackindex>
						</sourcetrack>
							<filter>
								<effect>
									<name>Audio Levels</name>
									<effectid>audiolevels</effectid>
									<effectcategory>audiolevels</effectcategory>
									<effecttype>audiolevels</effecttype>
									<mediatype>audio</mediatype>
									<parameter authoringApp="PremierePro">
										<parameterid>level</parameterid>
										<name>Level</name>
										<valuemin>0</valuemin>
										<valuemax>3.98109</valuemax>
										<value>1.06414</value>
									</parameter>
								</effect>
							</filter>
						<link>
							<linkclipref>clipitem-2785</linkclipref>
							<mediatype>audio</mediatype>
							<trackindex>19</trackindex>
							<clipindex>78</clipindex>
							<groupindex>1</groupindex>
						</link>
						<link>
							<linkclipref>clipitem-2882</linkclipref>
							<mediatype>audio</mediatype>
							<trackindex>20</trackindex>
							<clipindex>71</clipindex>
							<groupindex>1</groupindex>
						</link>
						<logginginfo>
							<description></description>
							<scene></scene>
							<shottake></shottake>
							<lognote></lognote>
						</logginginfo>
						<labels>
							<label2>Iris</label2>
						</labels>
					</clipitem>
					<transitionitem>
						<start>36734</start>
						<end>36747</end>
						<alignment>center</alignment>
						<cutPointTicks>60963840000</cutPointTicks>
						<rate>
							<timebase>25</timebase>
							<ntsc>FALSE</ntsc>
						</rate>
						<effect>
							<name>Cross Fade (+3dB)</name>
							<effectid>KGAudioTransCrossFade3dB</effectid>
							<effecttype>transition</effecttype>
							<mediatype>audio</mediatype>
							<wipecode>0</wipecode>
							<wipeaccuracy>100</wipeaccuracy>
							<startratio>0</startratio>
							<endratio>1</endratio>
							<reverse>FALSE</reverse>
						</effect>
					</transitionitem>
					<clipitem id="clipitem-2883" premiereChannelType="stereo">
						<masterclipid>masterclip-6</masterclipid>
						<name>NSPO30604105AA.mxf</name>
						<enabled>TRUE</enabled>
						<duration>89255</duration>
						<rate>
							<timebase>25</timebase>
							<ntsc>FALSE</ntsc>
						</rate>
						<start>-1</start>
						<end>-1</end>
						<in>60138</in>
						<out>60328</out>
						<pproTicksIn>611040568320000</pproTicksIn>
						<pproTicksOut>612971089920000</pproTicksOut>
						<file id="file-5"/>
						<sourcetrack>
							<mediatype>audio</mediatype>
							<trackindex>2</trackindex>
						</sourcetrack>
							<filter>
								<effect>
									<name>Audio Levels</name>
									<effectid>audiolevels</effectid>
									<effectcategory>audiolevels</effectcategory>
									<effecttype>audiolevels</effecttype>
									<mediatype>audio</mediatype>
									<parameter authoringApp="PremierePro">
										<parameterid>level</parameterid>
										<name>Level</name>
										<valuemin>0</valuemin>
										<valuemax>3.98109</valuemax>
										<value>0.264149</value>
									</parameter>
								</effect>
							</filter>
						<link>
							<linkclipref>clipitem-2786</linkclipref>
							<mediatype>audio</mediatype>
							<trackindex>19</trackindex>
							<clipindex>80</clipindex>
							<groupindex>1</groupindex>
						</link>
						<link>
							<linkclipref>clipitem-2883</linkclipref>
							<mediatype>audio</mediatype>
							<trackindex>20</trackindex>
							<clipindex>73</clipindex>
							<groupindex>1</groupindex>
						</link>
						<logginginfo>
							<description></description>
							<scene></scene>
							<shottake></shottake>
							<lognote></lognote>
						</logginginfo>
						<labels>
							<label2>Iris</label2>
						</labels>
					</clipitem>
					<transitionitem>
						<start>36911</start>
						<end>36924</end>
						<alignment>center</alignment>
						<cutPointTicks>60963840000</cutPointTicks>
						<rate>
							<timebase>25</timebase>
							<ntsc>FALSE</ntsc>
						</rate>
						<effect>
							<name>Cross Fade (+3dB)</name>
							<effectid>KGAudioTransCrossFade3dB</effectid>
							<effecttype>transition</effecttype>
							<mediatype>audio</mediatype>
							<wipecode>0</wipecode>
							<wipeaccuracy>100</wipeaccuracy>
							<startratio>0</startratio>
							<endratio>1</endratio>
							<reverse>FALSE</reverse>
						</effect>
					</transitionitem>
					<clipitem id="clipitem-2884" premiereChannelType="stereo">
						<masterclipid>masterclip-6</masterclipid>
						<name>NSPO30604105AA.mxf</name>
						<enabled>TRUE</enabled>
						<duration>89255</duration>
						<rate>
							<timebase>25</timebase>
							<ntsc>FALSE</ntsc>
						</rate>
						<start>-1</start>
						<end>-1</end>
						<in>60315</in>
						<out>60494</out>
						<pproTicksIn>612839001600000</pproTicksIn>
						<pproTicksOut>614657756160000</pproTicksOut>
						<file id="file-5"/>
						<sourcetrack>
							<mediatype>audio</mediatype>
							<trackindex>2</trackindex>
						</sourcetrack>
							<filter>
								<effect>
									<name>Audio Levels</name>
									<effectid>audiolevels</effectid>
									<effectcategory>audiolevels</effectcategory>
									<effecttype>audiolevels</effecttype>
									<mediatype>audio</mediatype>
									<parameter authoringApp="PremierePro">
										<parameterid>level</parameterid>
										<name>Level</name>
										<valuemin>0</valuemin>
										<valuemax>3.98109</valuemax>
										<value>1.25892</value>
									</parameter>
								</effect>
							</filter>
						<link>
							<linkclipref>clipitem-2787</linkclipref>
							<mediatype>audio</mediatype>
							<trackindex>19</trackindex>
							<clipindex>82</clipindex>
							<groupindex>1</groupindex>
						</link>
						<link>
							<linkclipref>clipitem-2884</linkclipref>
							<mediatype>audio</mediatype>
							<trackindex>20</trackindex>
							<clipindex>75</clipindex>
							<groupindex>1</groupindex>
						</link>
						<logginginfo>
							<description></description>
							<scene></scene>
							<shottake></shottake>
							<lognote></lognote>
						</logginginfo>
						<labels>
							<label2>Iris</label2>
						</labels>
					</clipitem>
					<transitionitem>
						<start>37077</start>
						<end>37090</end>
						<alignment>center</alignment>
						<cutPointTicks>60963840000</cutPointTicks>
						<rate>
							<timebase>25</timebase>
							<ntsc>FALSE</ntsc>
						</rate>
						<effect>
							<name>Cross Fade (+3dB)</name>
							<effectid>KGAudioTransCrossFade3dB</effectid>
							<effecttype>transition</effecttype>
							<mediatype>audio</mediatype>
							<wipecode>0</wipecode>
							<wipeaccuracy>100</wipeaccuracy>
							<startratio>0</startratio>
							<endratio>1</endratio>
							<reverse>FALSE</reverse>
						</effect>
					</transitionitem>
					<clipitem id="clipitem-2885" premiereChannelType="stereo">
						<masterclipid>masterclip-6</masterclipid>
						<name>NSPO30604105AA.mxf</name>
						<enabled>TRUE</enabled>
						<duration>89255</duration>
						<rate>
							<timebase>25</timebase>
							<ntsc>FALSE</ntsc>
						</rate>
						<start>-1</start>
						<end>37140</end>
						<in>60481</in>
						<out>60544</out>
						<pproTicksIn>614525667840000</pproTicksIn>
						<pproTicksOut>615165788160000</pproTicksOut>
						<file id="file-5"/>
						<sourcetrack>
							<mediatype>audio</mediatype>
							<trackindex>2</trackindex>
						</sourcetrack>
							<filter>
								<effect>
									<name>Audio Levels</name>
									<effectid>audiolevels</effectid>
									<effectcategory>audiolevels</effectcategory>
									<effecttype>audiolevels</effecttype>
									<mediatype>audio</mediatype>
									<parameter authoringApp="PremierePro">
										<parameterid>level</parameterid>
										<name>Level</name>
										<valuemin>0</valuemin>
										<valuemax>3.98109</valuemax>
										<value>0.532069</value>
									</parameter>
								</effect>
							</filter>
						<link>
							<linkclipref>clipitem-2788</linkclipref>
							<mediatype>audio</mediatype>
							<trackindex>19</trackindex>
							<clipindex>84</clipindex>
							<groupindex>1</groupindex>
						</link>
						<link>
							<linkclipref>clipitem-2885</linkclipref>
							<mediatype>audio</mediatype>
							<trackindex>20</trackindex>
							<clipindex>77</clipindex>
							<groupindex>1</groupindex>
						</link>
						<logginginfo>
							<description></description>
							<scene></scene>
							<shottake></shottake>
							<lognote></lognote>
						</logginginfo>
						<labels>
							<label2>Iris</label2>
						</labels>
					</clipitem>
					<clipitem id="clipitem-2886" premiereChannelType="stereo">
						<masterclipid>masterclip-6</masterclipid>
						<name>NSPO30604105AA.mxf</name>
						<enabled>TRUE</enabled>
						<duration>89255</duration>
						<rate>
							<timebase>25</timebase>
							<ntsc>FALSE</ntsc>
						</rate>
						<start>37140</start>
						<end>37155</end>
						<in>60544</in>
						<out>60559</out>
						<pproTicksIn>615165788160000</pproTicksIn>
						<pproTicksOut>615318197760000</pproTicksOut>
						<file id="file-5"/>
						<sourcetrack>
							<mediatype>audio</mediatype>
							<trackindex>2</trackindex>
						</sourcetrack>
							<filter>
								<effect>
									<name>Audio Levels</name>
									<effectid>audiolevels</effectid>
									<effectcategory>audiolevels</effectcategory>
									<effecttype>audiolevels</effecttype>
									<mediatype>audio</mediatype>
									<parameter authoringApp="PremierePro">
										<parameterid>level</parameterid>
										<name>Level</name>
										<valuemin>0</valuemin>
										<valuemax>3.98109</valuemax>
										<value>0.532069</value>
									</parameter>
								</effect>
							</filter>
						<link>
							<linkclipref>clipitem-2789</linkclipref>
							<mediatype>audio</mediatype>
							<trackindex>19</trackindex>
							<clipindex>85</clipindex>
							<groupindex>1</groupindex>
						</link>
						<link>
							<linkclipref>clipitem-2886</linkclipref>
							<mediatype>audio</mediatype>
							<trackindex>20</trackindex>
							<clipindex>78</clipindex>
							<groupindex>1</groupindex>
						</link>
						<logginginfo>
							<description></description>
							<scene></scene>
							<shottake></shottake>
							<lognote></lognote>
						</logginginfo>
						<labels>
							<label2>Iris</label2>
						</labels>
					</clipitem>
					<clipitem id="clipitem-2887" premiereChannelType="stereo">
						<masterclipid>masterclip-152</masterclipid>
						<name>Apollo_DIN_31_241__Water_Slide_Slip__Joel_P.W._Dean.mp3</name>
						<enabled>TRUE</enabled>
						<duration>386</duration>
						<rate>
							<timebase>25</timebase>
							<ntsc>FALSE</ntsc>
						</rate>
						<start>39412</start>
						<end>-1</end>
						<in>0</in>
						<out>132</out>
						<pproTicksIn>0</pproTicksIn>
						<pproTicksOut>1341204480000</pproTicksOut>
						<file id="file-148"/>
						<sourcetrack>
							<mediatype>audio</mediatype>
							<trackindex>2</trackindex>
						</sourcetrack>
							<filter>
								<effect>
									<name>Audio Levels</name>
									<effectid>audiolevels</effectid>
									<effectcategory>audiolevels</effectcategory>
									<effecttype>audiolevels</effecttype>
									<mediatype>audio</mediatype>
									<parameter authoringApp="PremierePro">
										<parameterid>level</parameterid>
										<name>Level</name>
										<valuemin>0</valuemin>
										<valuemax>3.98109</valuemax>
										<value>0.158114</value>
									</parameter>
								</effect>
							</filter>
						<link>
							<linkclipref>clipitem-2790</linkclipref>
							<mediatype>audio</mediatype>
							<trackindex>19</trackindex>
							<clipindex>86</clipindex>
							<groupindex>1</groupindex>
						</link>
						<link>
							<linkclipref>clipitem-2887</linkclipref>
							<mediatype>audio</mediatype>
							<trackindex>20</trackindex>
							<clipindex>79</clipindex>
							<groupindex>1</groupindex>
						</link>
						<logginginfo>
							<description></description>
							<scene></scene>
							<shottake></shottake>
							<lognote></lognote>
						</logginginfo>
						<labels>
							<label2>Caribbean</label2>
						</labels>
					</clipitem>
					<transitionitem>
						<start>39531</start>
						<end>39544</end>
						<alignment>center</alignment>
						<cutPointTicks>60963840000</cutPointTicks>
						<rate>
							<timebase>25</timebase>
							<ntsc>FALSE</ntsc>
						</rate>
						<effect>
							<name>Cross Fade (+3dB)</name>
							<effectid>KGAudioTransCrossFade3dB</effectid>
							<effecttype>transition</effecttype>
							<mediatype>audio</mediatype>
							<wipecode>0</wipecode>
							<wipeaccuracy>100</wipeaccuracy>
							<startratio>0</startratio>
							<endratio>1</endratio>
							<reverse>FALSE</reverse>
						</effect>
					</transitionitem>
					<clipitem id="clipitem-2888" premiereChannelType="stereo">
						<masterclipid>masterclip-152</masterclipid>
						<name>Apollo_DIN_31_241__Water_Slide_Slip__Joel_P.W._Dean.mp3</name>
						<enabled>TRUE</enabled>
						<duration>386</duration>
						<rate>
							<timebase>25</timebase>
							<ntsc>FALSE</ntsc>
						</rate>
						<start>-1</start>
						<end>39799</end>
						<in>119</in>
						<out>387</out>
						<pproTicksIn>1209116160000</pproTicksIn>
						<pproTicksOut>3932167680000</pproTicksOut>
						<file id="file-148"/>
						<sourcetrack>
							<mediatype>audio</mediatype>
							<trackindex>2</trackindex>
						</sourcetrack>
							<filter>
								<effect>
									<name>Audio Levels</name>
									<effectid>audiolevels</effectid>
									<effectcategory>audiolevels</effectcategory>
									<effecttype>audiolevels</effecttype>
									<mediatype>audio</mediatype>
									<parameter authoringApp="PremierePro">
										<parameterid>level</parameterid>
										<name>Level</name>
										<valuemin>0</valuemin>
										<valuemax>3.98109</valuemax>
										<value>0.0629462</value>
									</parameter>
								</effect>
							</filter>
						<link>
							<linkclipref>clipitem-2791</linkclipref>
							<mediatype>audio</mediatype>
							<trackindex>19</trackindex>
							<clipindex>88</clipindex>
							<groupindex>1</groupindex>
						</link>
						<link>
							<linkclipref>clipitem-2888</linkclipref>
							<mediatype>audio</mediatype>
							<trackindex>20</trackindex>
							<clipindex>81</clipindex>
							<groupindex>1</groupindex>
						</link>
						<logginginfo>
							<description></description>
							<scene></scene>
							<shottake></shottake>
							<lognote></lognote>
						</logginginfo>
						<labels>
							<label2>Caribbean</label2>
						</labels>
					</clipitem>
					<clipitem id="clipitem-2889" premiereChannelType="stereo">
						<masterclipid>masterclip-103</masterclipid>
						<name>Latter brå.wav</name>
						<enabled>TRUE</enabled>
						<duration>87</duration>
						<rate>
							<timebase>25</timebase>
							<ntsc>FALSE</ntsc>
						</rate>
						<start>41784</start>
						<end>41871</end>
						<in>0</in>
						<out>87</out>
						<pproTicksIn>0</pproTicksIn>
						<pproTicksOut>883975680000</pproTicksOut>
						<file id="file-99"/>
						<sourcetrack>
							<mediatype>audio</mediatype>
							<trackindex>2</trackindex>
						</sourcetrack>
						<link>
							<linkclipref>clipitem-2792</linkclipref>
							<mediatype>audio</mediatype>
							<trackindex>19</trackindex>
							<clipindex>89</clipindex>
							<groupindex>1</groupindex>
						</link>
						<link>
							<linkclipref>clipitem-2889</linkclipref>
							<mediatype>audio</mediatype>
							<trackindex>20</trackindex>
							<clipindex>82</clipindex>
							<groupindex>1</groupindex>
						</link>
						<logginginfo>
							<description></description>
							<scene></scene>
							<shottake></shottake>
							<lognote></lognote>
						</logginginfo>
						<labels>
							<label2>Caribbean</label2>
						</labels>
					</clipitem>
					<clipitem id="clipitem-2890" premiereChannelType="stereo">
						<masterclipid>masterclip-100</masterclipid>
						<name>Latter spredt.wav</name>
						<enabled>TRUE</enabled>
						<duration>91</duration>
						<rate>
							<timebase>25</timebase>
							<ntsc>FALSE</ntsc>
						</rate>
						<start>42064</start>
						<end>42155</end>
						<in>0</in>
						<out>91</out>
						<pproTicksIn>0</pproTicksIn>
						<pproTicksOut>924618240000</pproTicksOut>
						<file id="file-96"/>
						<sourcetrack>
							<mediatype>audio</mediatype>
							<trackindex>2</trackindex>
						</sourcetrack>
						<link>
							<linkclipref>clipitem-2793</linkclipref>
							<mediatype>audio</mediatype>
							<trackindex>19</trackindex>
							<clipindex>90</clipindex>
							<groupindex>1</groupindex>
						</link>
						<link>
							<linkclipref>clipitem-2890</linkclipref>
							<mediatype>audio</mediatype>
							<trackindex>20</trackindex>
							<clipindex>83</clipindex>
							<groupindex>1</groupindex>
						</link>
						<logginginfo>
							<description></description>
							<scene></scene>
							<shottake></shottake>
							<lognote></lognote>
						</logginginfo>
						<labels>
							<label2>Caribbean</label2>
						</labels>
					</clipitem>
					<clipitem id="clipitem-2891" premiereChannelType="stereo">
						<masterclipid>masterclip-153</masterclipid>
						<name>Liten latter, applaus.wav</name>
						<enabled>TRUE</enabled>
						<duration>241</duration>
						<rate>
							<timebase>25</timebase>
							<ntsc>FALSE</ntsc>
						</rate>
						<start>46249</start>
						<end>46490</end>
						<in>0</in>
						<out>241</out>
						<pproTicksIn>0</pproTicksIn>
						<pproTicksOut>2448714240000</pproTicksOut>
						<file id="file-149"/>
						<sourcetrack>
							<mediatype>audio</mediatype>
							<trackindex>2</trackindex>
						</sourcetrack>
						<link>
							<linkclipref>clipitem-2794</linkclipref>
							<mediatype>audio</mediatype>
							<trackindex>19</trackindex>
							<clipindex>91</clipindex>
							<groupindex>1</groupindex>
						</link>
						<link>
							<linkclipref>clipitem-2891</linkclipref>
							<mediatype>audio</mediatype>
							<trackindex>20</trackindex>
							<clipindex>84</clipindex>
							<groupindex>1</groupindex>
						</link>
						<logginginfo>
							<description></description>
							<scene></scene>
							<shottake></shottake>
							<lognote></lognote>
						</logginginfo>
						<labels>
							<label2>Caribbean</label2>
						</labels>
					</clipitem>
					<clipitem id="clipitem-2892" premiereChannelType="stereo">
						<masterclipid>masterclip-104</masterclipid>
						<name>Latter klukking.wav</name>
						<enabled>TRUE</enabled>
						<duration>129</duration>
						<rate>
							<timebase>25</timebase>
							<ntsc>FALSE</ntsc>
						</rate>
						<start>47479</start>
						<end>47608</end>
						<in>0</in>
						<out>129</out>
						<pproTicksIn>0</pproTicksIn>
						<pproTicksOut>1310722560000</pproTicksOut>
						<file id="file-100"/>
						<sourcetrack>
							<mediatype>audio</mediatype>
							<trackindex>2</trackindex>
						</sourcetrack>
						<link>
							<linkclipref>clipitem-2795</linkclipref>
							<mediatype>audio</mediatype>
							<trackindex>19</trackindex>
							<clipindex>92</clipindex>
							<groupindex>1</groupindex>
						</link>
						<link>
							<linkclipref>clipitem-2892</linkclipref>
							<mediatype>audio</mediatype>
							<trackindex>20</trackindex>
							<clipindex>85</clipindex>
							<groupindex>1</groupindex>
						</link>
						<logginginfo>
							<description></description>
							<scene></scene>
							<shottake></shottake>
							<lognote></lognote>
						</logginginfo>
						<labels>
							<label2>Caribbean</label2>
						</labels>
					</clipitem>
					<clipitem id="clipitem-2893" premiereChannelType="stereo">
						<masterclipid>masterclip-154</masterclipid>
						<name>Overrasket latter, applaus.wav</name>
						<enabled>TRUE</enabled>
						<duration>189</duration>
						<rate>
							<timebase>25</timebase>
							<ntsc>FALSE</ntsc>
						</rate>
						<start>49474</start>
						<end>49660</end>
						<in>4</in>
						<out>190</out>
						<pproTicksIn>40642560000</pproTicksIn>
						<pproTicksOut>1930521600000</pproTicksOut>
						<file id="file-150"/>
						<sourcetrack>
							<mediatype>audio</mediatype>
							<trackindex>2</trackindex>
						</sourcetrack>
						<link>
							<linkclipref>clipitem-2796</linkclipref>
							<mediatype>audio</mediatype>
							<trackindex>19</trackindex>
							<clipindex>93</clipindex>
							<groupindex>1</groupindex>
						</link>
						<link>
							<linkclipref>clipitem-2893</linkclipref>
							<mediatype>audio</mediatype>
							<trackindex>20</trackindex>
							<clipindex>86</clipindex>
							<groupindex>1</groupindex>
						</link>
						<logginginfo>
							<description></description>
							<scene></scene>
							<shottake></shottake>
							<lognote></lognote>
						</logginginfo>
						<labels>
							<label2>Caribbean</label2>
						</labels>
					</clipitem>
					<clipitem id="clipitem-2894" premiereChannelType="stereo">
						<masterclipid>masterclip-155</masterclipid>
						<name>Whoosh%20By%2006.wav</name>
						<enabled>TRUE</enabled>
						<duration>19</duration>
						<rate>
							<timebase>25</timebase>
							<ntsc>FALSE</ntsc>
						</rate>
						<start>49786</start>
						<end>49805</end>
						<in>0</in>
						<out>19</out>
						<pproTicksIn>0</pproTicksIn>
						<pproTicksOut>193052160000</pproTicksOut>
						<file id="file-151"/>
						<sourcetrack>
							<mediatype>audio</mediatype>
							<trackindex>2</trackindex>
						</sourcetrack>
							<filter>
								<effect>
									<name>Audio Levels</name>
									<effectid>audiolevels</effectid>
									<effectcategory>audiolevels</effectcategory>
									<effecttype>audiolevels</effecttype>
									<mediatype>audio</mediatype>
									<parameter authoringApp="PremierePro">
										<parameterid>level</parameterid>
										<name>Level</name>
										<valuemin>0</valuemin>
										<valuemax>3.98109</valuemax>
										<value>0.199053</value>
									</parameter>
								</effect>
							</filter>
						<link>
							<linkclipref>clipitem-2797</linkclipref>
							<mediatype>audio</mediatype>
							<trackindex>19</trackindex>
							<clipindex>94</clipindex>
							<groupindex>1</groupindex>
						</link>
						<link>
							<linkclipref>clipitem-2894</linkclipref>
							<mediatype>audio</mediatype>
							<trackindex>20</trackindex>
							<clipindex>87</clipindex>
							<groupindex>1</groupindex>
						</link>
						<logginginfo>
							<description></description>
							<scene></scene>
							<shottake></shottake>
							<lognote></lognote>
						</logginginfo>
						<labels>
							<label2>Caribbean</label2>
						</labels>
					</clipitem>
					<clipitem id="clipitem-2895" premiereChannelType="stereo">
						<masterclipid>masterclip-70</masterclipid>
						<name>Whoosh%20By%2003.wav</name>
						<enabled>TRUE</enabled>
						<duration>71</duration>
						<rate>
							<timebase>25</timebase>
							<ntsc>FALSE</ntsc>
						</rate>
						<start>49827</start>
						<end>49897</end>
						<in>0</in>
						<out>70</out>
						<pproTicksIn>0</pproTicksIn>
						<pproTicksOut>711244800000</pproTicksOut>
						<file id="file-66"/>
						<sourcetrack>
							<mediatype>audio</mediatype>
							<trackindex>1</trackindex>
						</sourcetrack>
							<filter>
								<effect>
									<name>Audio Levels</name>
									<effectid>audiolevels</effectid>
									<effectcategory>audiolevels</effectcategory>
									<effecttype>audiolevels</effecttype>
									<mediatype>audio</mediatype>
									<parameter authoringApp="PremierePro">
										<parameterid>level</parameterid>
										<name>Level</name>
										<valuemin>0</valuemin>
										<valuemax>3.98109</valuemax>
										<value>0.105998</value>
									</parameter>
								</effect>
							</filter>
						<link>
							<linkclipref>clipitem-2798</linkclipref>
							<mediatype>audio</mediatype>
							<trackindex>19</trackindex>
							<clipindex>95</clipindex>
							<groupindex>1</groupindex>
						</link>
						<link>
							<linkclipref>clipitem-2895</linkclipref>
							<mediatype>audio</mediatype>
							<trackindex>20</trackindex>
							<clipindex>88</clipindex>
							<groupindex>1</groupindex>
						</link>
						<logginginfo>
							<description></description>
							<scene></scene>
							<shottake></shottake>
							<lognote></lognote>
						</logginginfo>
						<labels>
							<label2>Caribbean</label2>
						</labels>
					</clipitem>
					<clipitem id="clipitem-2896" premiereChannelType="stereo">
						<masterclipid>masterclip-118</masterclipid>
						<name>Kort spredt latter.wav</name>
						<enabled>TRUE</enabled>
						<duration>64</duration>
						<rate>
							<timebase>25</timebase>
							<ntsc>FALSE</ntsc>
						</rate>
						<start>50250</start>
						<end>50314</end>
						<in>0</in>
						<out>64</out>
						<pproTicksIn>0</pproTicksIn>
						<pproTicksOut>650280960000</pproTicksOut>
						<file id="file-114"/>
						<sourcetrack>
							<mediatype>audio</mediatype>
							<trackindex>2</trackindex>
						</sourcetrack>
						<link>
							<linkclipref>clipitem-2799</linkclipref>
							<mediatype>audio</mediatype>
							<trackindex>19</trackindex>
							<clipindex>96</clipindex>
							<groupindex>1</groupindex>
						</link>
						<link>
							<linkclipref>clipitem-2896</linkclipref>
							<mediatype>audio</mediatype>
							<trackindex>20</trackindex>
							<clipindex>89</clipindex>
							<groupindex>1</groupindex>
						</link>
						<logginginfo>
							<description></description>
							<scene></scene>
							<shottake></shottake>
							<lognote></lognote>
						</logginginfo>
						<labels>
							<label2>Caribbean</label2>
						</labels>
					</clipitem>
					<clipitem id="clipitem-2897" premiereChannelType="stereo">
						<masterclipid>masterclip-156</masterclipid>
						<name>058786970-correct-tone-02.wav</name>
						<enabled>TRUE</enabled>
						<duration>64</duration>
						<rate>
							<timebase>25</timebase>
							<ntsc>FALSE</ntsc>
						</rate>
						<start>51617</start>
						<end>51681</end>
						<in>0</in>
						<out>64</out>
						<pproTicksIn>0</pproTicksIn>
						<pproTicksOut>650280960000</pproTicksOut>
						<file id="file-152"/>
						<sourcetrack>
							<mediatype>audio</mediatype>
							<trackindex>2</trackindex>
						</sourcetrack>
							<filter>
								<effect>
									<name>Audio Levels</name>
									<effectid>audiolevels</effectid>
									<effectcategory>audiolevels</effectcategory>
									<effecttype>audiolevels</effecttype>
									<mediatype>audio</mediatype>
									<parameter authoringApp="PremierePro">
										<parameterid>level</parameterid>
										<name>Level</name>
										<valuemin>0</valuemin>
										<valuemax>3.98109</valuemax>
										<value>0.140919</value>
									</parameter>
								</effect>
							</filter>
						<link>
							<linkclipref>clipitem-2800</linkclipref>
							<mediatype>audio</mediatype>
							<trackindex>19</trackindex>
							<clipindex>97</clipindex>
							<groupindex>1</groupindex>
						</link>
						<link>
							<linkclipref>clipitem-2897</linkclipref>
							<mediatype>audio</mediatype>
							<trackindex>20</trackindex>
							<clipindex>90</clipindex>
							<groupindex>1</groupindex>
						</link>
						<logginginfo>
							<description></description>
							<scene></scene>
							<shottake></shottake>
							<lognote></lognote>
						</logginginfo>
					</clipitem>
					<clipitem id="clipitem-2898" premiereChannelType="stereo">
						<masterclipid>masterclip-156</masterclipid>
						<name>058786970-correct-tone-02.wav</name>
						<enabled>TRUE</enabled>
						<duration>64</duration>
						<rate>
							<timebase>25</timebase>
							<ntsc>FALSE</ntsc>
						</rate>
						<start>51730</start>
						<end>51794</end>
						<in>0</in>
						<out>64</out>
						<pproTicksIn>0</pproTicksIn>
						<pproTicksOut>650280960000</pproTicksOut>
						<file id="file-152"/>
						<sourcetrack>
							<mediatype>audio</mediatype>
							<trackindex>2</trackindex>
						</sourcetrack>
							<filter>
								<effect>
									<name>Audio Levels</name>
									<effectid>audiolevels</effectid>
									<effectcategory>audiolevels</effectcategory>
									<effecttype>audiolevels</effecttype>
									<mediatype>audio</mediatype>
									<parameter authoringApp="PremierePro">
										<parameterid>level</parameterid>
										<name>Level</name>
										<valuemin>0</valuemin>
										<valuemax>3.98109</valuemax>
										<value>0.140919</value>
									</parameter>
								</effect>
							</filter>
						<link>
							<linkclipref>clipitem-2801</linkclipref>
							<mediatype>audio</mediatype>
							<trackindex>19</trackindex>
							<clipindex>98</clipindex>
							<groupindex>1</groupindex>
						</link>
						<link>
							<linkclipref>clipitem-2898</linkclipref>
							<mediatype>audio</mediatype>
							<trackindex>20</trackindex>
							<clipindex>91</clipindex>
							<groupindex>1</groupindex>
						</link>
						<logginginfo>
							<description></description>
							<scene></scene>
							<shottake></shottake>
							<lognote></lognote>
						</logginginfo>
					</clipitem>
					<clipitem id="clipitem-2899" premiereChannelType="stereo">
						<masterclipid>masterclip-156</masterclipid>
						<name>058786970-correct-tone-02.wav</name>
						<enabled>TRUE</enabled>
						<duration>64</duration>
						<rate>
							<timebase>25</timebase>
							<ntsc>FALSE</ntsc>
						</rate>
						<start>51976</start>
						<end>52040</end>
						<in>0</in>
						<out>64</out>
						<pproTicksIn>0</pproTicksIn>
						<pproTicksOut>650280960000</pproTicksOut>
						<file id="file-152"/>
						<sourcetrack>
							<mediatype>audio</mediatype>
							<trackindex>2</trackindex>
						</sourcetrack>
							<filter>
								<effect>
									<name>Audio Levels</name>
									<effectid>audiolevels</effectid>
									<effectcategory>audiolevels</effectcategory>
									<effecttype>audiolevels</effecttype>
									<mediatype>audio</mediatype>
									<parameter authoringApp="PremierePro">
										<parameterid>level</parameterid>
										<name>Level</name>
										<valuemin>0</valuemin>
										<valuemax>3.98109</valuemax>
										<value>0.140919</value>
									</parameter>
								</effect>
							</filter>
						<link>
							<linkclipref>clipitem-2802</linkclipref>
							<mediatype>audio</mediatype>
							<trackindex>19</trackindex>
							<clipindex>99</clipindex>
							<groupindex>1</groupindex>
						</link>
						<link>
							<linkclipref>clipitem-2899</linkclipref>
							<mediatype>audio</mediatype>
							<trackindex>20</trackindex>
							<clipindex>92</clipindex>
							<groupindex>1</groupindex>
						</link>
						<logginginfo>
							<description></description>
							<scene></scene>
							<shottake></shottake>
							<lognote></lognote>
						</logginginfo>
					</clipitem>
					<clipitem id="clipitem-2900" premiereChannelType="stereo">
						<masterclipid>masterclip-156</masterclipid>
						<name>058786970-correct-tone-02.wav</name>
						<enabled>TRUE</enabled>
						<duration>64</duration>
						<rate>
							<timebase>25</timebase>
							<ntsc>FALSE</ntsc>
						</rate>
						<start>52268</start>
						<end>52332</end>
						<in>0</in>
						<out>64</out>
						<pproTicksIn>0</pproTicksIn>
						<pproTicksOut>650280960000</pproTicksOut>
						<file id="file-152"/>
						<sourcetrack>
							<mediatype>audio</mediatype>
							<trackindex>2</trackindex>
						</sourcetrack>
							<filter>
								<effect>
									<name>Audio Levels</name>
									<effectid>audiolevels</effectid>
									<effectcategory>audiolevels</effectcategory>
									<effecttype>audiolevels</effecttype>
									<mediatype>audio</mediatype>
									<parameter authoringApp="PremierePro">
										<parameterid>level</parameterid>
										<name>Level</name>
										<valuemin>0</valuemin>
										<valuemax>3.98109</valuemax>
										<value>0.140919</value>
									</parameter>
								</effect>
							</filter>
						<link>
							<linkclipref>clipitem-2803</linkclipref>
							<mediatype>audio</mediatype>
							<trackindex>19</trackindex>
							<clipindex>100</clipindex>
							<groupindex>1</groupindex>
						</link>
						<link>
							<linkclipref>clipitem-2900</linkclipref>
							<mediatype>audio</mediatype>
							<trackindex>20</trackindex>
							<clipindex>93</clipindex>
							<groupindex>1</groupindex>
						</link>
						<logginginfo>
							<description></description>
							<scene></scene>
							<shottake></shottake>
							<lognote></lognote>
						</logginginfo>
					</clipitem>
					<clipitem id="clipitem-2901" premiereChannelType="stereo">
						<masterclipid>masterclip-156</masterclipid>
						<name>058786970-correct-tone-02.wav</name>
						<enabled>TRUE</enabled>
						<duration>64</duration>
						<rate>
							<timebase>25</timebase>
							<ntsc>FALSE</ntsc>
						</rate>
						<start>52389</start>
						<end>52453</end>
						<in>0</in>
						<out>64</out>
						<pproTicksIn>0</pproTicksIn>
						<pproTicksOut>650280960000</pproTicksOut>
						<file id="file-152"/>
						<sourcetrack>
							<mediatype>audio</mediatype>
							<trackindex>2</trackindex>
						</sourcetrack>
							<filter>
								<effect>
									<name>Audio Levels</name>
									<effectid>audiolevels</effectid>
									<effectcategory>audiolevels</effectcategory>
									<effecttype>audiolevels</effecttype>
									<mediatype>audio</mediatype>
									<parameter authoringApp="PremierePro">
										<parameterid>level</parameterid>
										<name>Level</name>
										<valuemin>0</valuemin>
										<valuemax>3.98109</valuemax>
										<value>0.140919</value>
									</parameter>
								</effect>
							</filter>
						<link>
							<linkclipref>clipitem-2804</linkclipref>
							<mediatype>audio</mediatype>
							<trackindex>19</trackindex>
							<clipindex>101</clipindex>
							<groupindex>1</groupindex>
						</link>
						<link>
							<linkclipref>clipitem-2901</linkclipref>
							<mediatype>audio</mediatype>
							<trackindex>20</trackindex>
							<clipindex>94</clipindex>
							<groupindex>1</groupindex>
						</link>
						<logginginfo>
							<description></description>
							<scene></scene>
							<shottake></shottake>
							<lognote></lognote>
						</logginginfo>
					</clipitem>
					<clipitem id="clipitem-2902" premiereChannelType="stereo">
						<masterclipid>masterclip-156</masterclipid>
						<name>058786970-correct-tone-02.wav</name>
						<enabled>TRUE</enabled>
						<duration>64</duration>
						<rate>
							<timebase>25</timebase>
							<ntsc>FALSE</ntsc>
						</rate>
						<start>52533</start>
						<end>52597</end>
						<in>0</in>
						<out>64</out>
						<pproTicksIn>0</pproTicksIn>
						<pproTicksOut>650280960000</pproTicksOut>
						<file id="file-152"/>
						<sourcetrack>
							<mediatype>audio</mediatype>
							<trackindex>2</trackindex>
						</sourcetrack>
							<filter>
								<effect>
									<name>Audio Levels</name>
									<effectid>audiolevels</effectid>
									<effectcategory>audiolevels</effectcategory>
									<effecttype>audiolevels</effecttype>
									<mediatype>audio</mediatype>
									<parameter authoringApp="PremierePro">
										<parameterid>level</parameterid>
										<name>Level</name>
										<valuemin>0</valuemin>
										<valuemax>3.98109</valuemax>
										<value>0.140919</value>
									</parameter>
								</effect>
							</filter>
						<link>
							<linkclipref>clipitem-2805</linkclipref>
							<mediatype>audio</mediatype>
							<trackindex>19</trackindex>
							<clipindex>102</clipindex>
							<groupindex>1</groupindex>
						</link>
						<link>
							<linkclipref>clipitem-2902</linkclipref>
							<mediatype>audio</mediatype>
							<trackindex>20</trackindex>
							<clipindex>95</clipindex>
							<groupindex>1</groupindex>
						</link>
						<logginginfo>
							<description></description>
							<scene></scene>
							<shottake></shottake>
							<lognote></lognote>
						</logginginfo>
					</clipitem>
					<clipitem id="clipitem-2903" premiereChannelType="stereo">
						<masterclipid>masterclip-100</masterclipid>
						<name>Latter spredt.wav</name>
						<enabled>TRUE</enabled>
						<duration>91</duration>
						<rate>
							<timebase>25</timebase>
							<ntsc>FALSE</ntsc>
						</rate>
						<start>53336</start>
						<end>53427</end>
						<in>0</in>
						<out>91</out>
						<pproTicksIn>0</pproTicksIn>
						<pproTicksOut>924618240000</pproTicksOut>
						<file id="file-96"/>
						<sourcetrack>
							<mediatype>audio</mediatype>
							<trackindex>2</trackindex>
						</sourcetrack>
						<link>
							<linkclipref>clipitem-2806</linkclipref>
							<mediatype>audio</mediatype>
							<trackindex>19</trackindex>
							<clipindex>103</clipindex>
							<groupindex>1</groupindex>
						</link>
						<link>
							<linkclipref>clipitem-2903</linkclipref>
							<mediatype>audio</mediatype>
							<trackindex>20</trackindex>
							<clipindex>96</clipindex>
							<groupindex>1</groupindex>
						</link>
						<logginginfo>
							<description></description>
							<scene></scene>
							<shottake></shottake>
							<lognote></lognote>
						</logginginfo>
						<labels>
							<label2>Caribbean</label2>
						</labels>
					</clipitem>
					<clipitem id="clipitem-2904" premiereChannelType="stereo">
						<masterclipid>masterclip-156</masterclipid>
						<name>058786970-correct-tone-02.wav</name>
						<enabled>TRUE</enabled>
						<duration>64</duration>
						<rate>
							<timebase>25</timebase>
							<ntsc>FALSE</ntsc>
						</rate>
						<start>53984</start>
						<end>54048</end>
						<in>0</in>
						<out>64</out>
						<pproTicksIn>0</pproTicksIn>
						<pproTicksOut>650280960000</pproTicksOut>
						<file id="file-152"/>
						<sourcetrack>
							<mediatype>audio</mediatype>
							<trackindex>2</trackindex>
						</sourcetrack>
							<filter>
								<effect>
									<name>Audio Levels</name>
									<effectid>audiolevels</effectid>
									<effectcategory>audiolevels</effectcategory>
									<effecttype>audiolevels</effecttype>
									<mediatype>audio</mediatype>
									<parameter authoringApp="PremierePro">
										<parameterid>level</parameterid>
										<name>Level</name>
										<valuemin>0</valuemin>
										<valuemax>3.98109</valuemax>
										<value>0.140919</value>
									</parameter>
								</effect>
							</filter>
						<link>
							<linkclipref>clipitem-2807</linkclipref>
							<mediatype>audio</mediatype>
							<trackindex>19</trackindex>
							<clipindex>104</clipindex>
							<groupindex>1</groupindex>
						</link>
						<link>
							<linkclipref>clipitem-2904</linkclipref>
							<mediatype>audio</mediatype>
							<trackindex>20</trackindex>
							<clipindex>97</clipindex>
							<groupindex>1</groupindex>
						</link>
						<logginginfo>
							<description></description>
							<scene></scene>
							<shottake></shottake>
							<lognote></lognote>
						</logginginfo>
					</clipitem>
					<clipitem id="clipitem-2905" premiereChannelType="stereo">
						<masterclipid>masterclip-156</masterclipid>
						<name>058786970-correct-tone-02.wav</name>
						<enabled>TRUE</enabled>
						<duration>64</duration>
						<rate>
							<timebase>25</timebase>
							<ntsc>FALSE</ntsc>
						</rate>
						<start>54355</start>
						<end>54419</end>
						<in>0</in>
						<out>64</out>
						<pproTicksIn>0</pproTicksIn>
						<pproTicksOut>650280960000</pproTicksOut>
						<file id="file-152"/>
						<sourcetrack>
							<mediatype>audio</mediatype>
							<trackindex>2</trackindex>
						</sourcetrack>
							<filter>
								<effect>
									<name>Audio Levels</name>
									<effectid>audiolevels</effectid>
									<effectcategory>audiolevels</effectcategory>
									<effecttype>audiolevels</effecttype>
									<mediatype>audio</mediatype>
									<parameter authoringApp="PremierePro">
										<parameterid>level</parameterid>
										<name>Level</name>
										<valuemin>0</valuemin>
										<valuemax>3.98109</valuemax>
										<value>0.140919</value>
									</parameter>
								</effect>
							</filter>
						<link>
							<linkclipref>clipitem-2808</linkclipref>
							<mediatype>audio</mediatype>
							<trackindex>19</trackindex>
							<clipindex>105</clipindex>
							<groupindex>1</groupindex>
						</link>
						<link>
							<linkclipref>clipitem-2905</linkclipref>
							<mediatype>audio</mediatype>
							<trackindex>20</trackindex>
							<clipindex>98</clipindex>
							<groupindex>1</groupindex>
						</link>
						<logginginfo>
							<description></description>
							<scene></scene>
							<shottake></shottake>
							<lognote></lognote>
						</logginginfo>
					</clipitem>
					<clipitem id="clipitem-2906" premiereChannelType="stereo">
						<masterclipid>masterclip-156</masterclipid>
						<name>058786970-correct-tone-02.wav</name>
						<enabled>TRUE</enabled>
						<duration>64</duration>
						<rate>
							<timebase>25</timebase>
							<ntsc>FALSE</ntsc>
						</rate>
						<start>54498</start>
						<end>54562</end>
						<in>0</in>
						<out>64</out>
						<pproTicksIn>0</pproTicksIn>
						<pproTicksOut>650280960000</pproTicksOut>
						<file id="file-152"/>
						<sourcetrack>
							<mediatype>audio</mediatype>
							<trackindex>2</trackindex>
						</sourcetrack>
							<filter>
								<effect>
									<name>Audio Levels</name>
									<effectid>audiolevels</effectid>
									<effectcategory>audiolevels</effectcategory>
									<effecttype>audiolevels</effecttype>
									<mediatype>audio</mediatype>
									<parameter authoringApp="PremierePro">
										<parameterid>level</parameterid>
										<name>Level</name>
										<valuemin>0</valuemin>
										<valuemax>3.98109</valuemax>
										<value>0.140919</value>
									</parameter>
								</effect>
							</filter>
						<link>
							<linkclipref>clipitem-2809</linkclipref>
							<mediatype>audio</mediatype>
							<trackindex>19</trackindex>
							<clipindex>106</clipindex>
							<groupindex>1</groupindex>
						</link>
						<link>
							<linkclipref>clipitem-2906</linkclipref>
							<mediatype>audio</mediatype>
							<trackindex>20</trackindex>
							<clipindex>99</clipindex>
							<groupindex>1</groupindex>
						</link>
						<logginginfo>
							<description></description>
							<scene></scene>
							<shottake></shottake>
							<lognote></lognote>
						</logginginfo>
					</clipitem>
					<clipitem id="clipitem-2907" premiereChannelType="stereo">
						<masterclipid>masterclip-156</masterclipid>
						<name>058786970-correct-tone-02.wav</name>
						<enabled>TRUE</enabled>
						<duration>64</duration>
						<rate>
							<timebase>25</timebase>
							<ntsc>FALSE</ntsc>
						</rate>
						<start>54987</start>
						<end>55051</end>
						<in>0</in>
						<out>64</out>
						<pproTicksIn>0</pproTicksIn>
						<pproTicksOut>650280960000</pproTicksOut>
						<file id="file-152"/>
						<sourcetrack>
							<mediatype>audio</mediatype>
							<trackindex>2</trackindex>
						</sourcetrack>
							<filter>
								<effect>
									<name>Audio Levels</name>
									<effectid>audiolevels</effectid>
									<effectcategory>audiolevels</effectcategory>
									<effecttype>audiolevels</effecttype>
									<mediatype>audio</mediatype>
									<parameter authoringApp="PremierePro">
										<parameterid>level</parameterid>
										<name>Level</name>
										<valuemin>0</valuemin>
										<valuemax>3.98109</valuemax>
										<value>0.140919</value>
									</parameter>
								</effect>
							</filter>
						<link>
							<linkclipref>clipitem-2810</linkclipref>
							<mediatype>audio</mediatype>
							<trackindex>19</trackindex>
							<clipindex>107</clipindex>
							<groupindex>1</groupindex>
						</link>
						<link>
							<linkclipref>clipitem-2907</linkclipref>
							<mediatype>audio</mediatype>
							<trackindex>20</trackindex>
							<clipindex>100</clipindex>
							<groupindex>1</groupindex>
						</link>
						<logginginfo>
							<description></description>
							<scene></scene>
							<shottake></shottake>
							<lognote></lognote>
						</logginginfo>
					</clipitem>
					<clipitem id="clipitem-2908" premiereChannelType="stereo">
						<masterclipid>masterclip-156</masterclipid>
						<name>058786970-correct-tone-02.wav</name>
						<enabled>TRUE</enabled>
						<duration>64</duration>
						<rate>
							<timebase>25</timebase>
							<ntsc>FALSE</ntsc>
						</rate>
						<start>55107</start>
						<end>55171</end>
						<in>0</in>
						<out>64</out>
						<pproTicksIn>0</pproTicksIn>
						<pproTicksOut>650280960000</pproTicksOut>
						<file id="file-152"/>
						<sourcetrack>
							<mediatype>audio</mediatype>
							<trackindex>2</trackindex>
						</sourcetrack>
							<filter>
								<effect>
									<name>Audio Levels</name>
									<effectid>audiolevels</effectid>
									<effectcategory>audiolevels</effectcategory>
									<effecttype>audiolevels</effecttype>
									<mediatype>audio</mediatype>
									<parameter authoringApp="PremierePro">
										<parameterid>level</parameterid>
										<name>Level</name>
										<valuemin>0</valuemin>
										<valuemax>3.98109</valuemax>
										<value>0.140919</value>
									</parameter>
								</effect>
							</filter>
						<link>
							<linkclipref>clipitem-2811</linkclipref>
							<mediatype>audio</mediatype>
							<trackindex>19</trackindex>
							<clipindex>108</clipindex>
							<groupindex>1</groupindex>
						</link>
						<link>
							<linkclipref>clipitem-2908</linkclipref>
							<mediatype>audio</mediatype>
							<trackindex>20</trackindex>
							<clipindex>101</clipindex>
							<groupindex>1</groupindex>
						</link>
						<logginginfo>
							<description></description>
							<scene></scene>
							<shottake></shottake>
							<lognote></lognote>
						</logginginfo>
					</clipitem>
					<clipitem id="clipitem-2909" premiereChannelType="stereo">
						<masterclipid>masterclip-156</masterclipid>
						<name>058786970-correct-tone-02.wav</name>
						<enabled>TRUE</enabled>
						<duration>64</duration>
						<rate>
							<timebase>25</timebase>
							<ntsc>FALSE</ntsc>
						</rate>
						<start>55228</start>
						<end>55292</end>
						<in>0</in>
						<out>64</out>
						<pproTicksIn>0</pproTicksIn>
						<pproTicksOut>650280960000</pproTicksOut>
						<file id="file-152"/>
						<sourcetrack>
							<mediatype>audio</mediatype>
							<trackindex>2</trackindex>
						</sourcetrack>
							<filter>
								<effect>
									<name>Audio Levels</name>
									<effectid>audiolevels</effectid>
									<effectcategory>audiolevels</effectcategory>
									<effecttype>audiolevels</effecttype>
									<mediatype>audio</mediatype>
									<parameter authoringApp="PremierePro">
										<parameterid>level</parameterid>
										<name>Level</name>
										<valuemin>0</valuemin>
										<valuemax>3.98109</valuemax>
										<value>0.140919</value>
									</parameter>
								</effect>
							</filter>
						<link>
							<linkclipref>clipitem-2812</linkclipref>
							<mediatype>audio</mediatype>
							<trackindex>19</trackindex>
							<clipindex>109</clipindex>
							<groupindex>1</groupindex>
						</link>
						<link>
							<linkclipref>clipitem-2909</linkclipref>
							<mediatype>audio</mediatype>
							<trackindex>20</trackindex>
							<clipindex>102</clipindex>
							<groupindex>1</groupindex>
						</link>
						<logginginfo>
							<description></description>
							<scene></scene>
							<shottake></shottake>
							<lognote></lognote>
						</logginginfo>
					</clipitem>
					<clipitem id="clipitem-2910" premiereChannelType="stereo">
						<masterclipid>masterclip-156</masterclipid>
						<name>058786970-correct-tone-02.wav</name>
						<enabled>TRUE</enabled>
						<duration>64</duration>
						<rate>
							<timebase>25</timebase>
							<ntsc>FALSE</ntsc>
						</rate>
						<start>55348</start>
						<end>55412</end>
						<in>0</in>
						<out>64</out>
						<pproTicksIn>0</pproTicksIn>
						<pproTicksOut>650280960000</pproTicksOut>
						<file id="file-152"/>
						<sourcetrack>
							<mediatype>audio</mediatype>
							<trackindex>2</trackindex>
						</sourcetrack>
							<filter>
								<effect>
									<name>Audio Levels</name>
									<effectid>audiolevels</effectid>
									<effectcategory>audiolevels</effectcategory>
									<effecttype>audiolevels</effecttype>
									<mediatype>audio</mediatype>
									<parameter authoringApp="PremierePro">
										<parameterid>level</parameterid>
										<name>Level</name>
										<valuemin>0</valuemin>
										<valuemax>3.98109</valuemax>
										<value>0.140919</value>
									</parameter>
								</effect>
							</filter>
						<link>
							<linkclipref>clipitem-2813</linkclipref>
							<mediatype>audio</mediatype>
							<trackindex>19</trackindex>
							<clipindex>110</clipindex>
							<groupindex>1</groupindex>
						</link>
						<link>
							<linkclipref>clipitem-2910</linkclipref>
							<mediatype>audio</mediatype>
							<trackindex>20</trackindex>
							<clipindex>103</clipindex>
							<groupindex>1</groupindex>
						</link>
						<logginginfo>
							<description></description>
							<scene></scene>
							<shottake></shottake>
							<lognote></lognote>
						</logginginfo>
					</clipitem>
					<clipitem id="clipitem-2911" premiereChannelType="stereo">
						<masterclipid>masterclip-157</masterclipid>
						<name>Applaus med plystring 2.wav</name>
						<enabled>TRUE</enabled>
						<duration>218</duration>
						<rate>
							<timebase>25</timebase>
							<ntsc>FALSE</ntsc>
						</rate>
						<start>55895</start>
						<end>56113</end>
						<in>0</in>
						<out>218</out>
						<pproTicksIn>0</pproTicksIn>
						<pproTicksOut>2215019520000</pproTicksOut>
						<file id="file-153"/>
						<sourcetrack>
							<mediatype>audio</mediatype>
							<trackindex>2</trackindex>
						</sourcetrack>
							<filter>
								<effect>
									<name>Audio Levels</name>
									<effectid>audiolevels</effectid>
									<effectcategory>audiolevels</effectcategory>
									<effecttype>audiolevels</effecttype>
									<mediatype>audio</mediatype>
									<parameter authoringApp="PremierePro">
										<parameterid>level</parameterid>
										<name>Level</name>
										<valuemin>0</valuemin>
										<valuemax>3.98109</valuemax>
										<value>0.28117</value>
									</parameter>
								</effect>
							</filter>
						<link>
							<linkclipref>clipitem-2814</linkclipref>
							<mediatype>audio</mediatype>
							<trackindex>19</trackindex>
							<clipindex>111</clipindex>
							<groupindex>1</groupindex>
						</link>
						<link>
							<linkclipref>clipitem-2911</linkclipref>
							<mediatype>audio</mediatype>
							<trackindex>20</trackindex>
							<clipindex>104</clipindex>
							<groupindex>1</groupindex>
						</link>
						<logginginfo>
							<description></description>
							<scene></scene>
							<shottake></shottake>
							<lognote></lognote>
						</logginginfo>
						<labels>
							<label2>Caribbean</label2>
						</labels>
					</clipitem>
					<clipitem id="clipitem-2912" premiereChannelType="stereo">
						<masterclipid>masterclip-86</masterclipid>
						<name>Latter liten kort 1 sek.wav</name>
						<enabled>TRUE</enabled>
						<duration>42</duration>
						<rate>
							<timebase>25</timebase>
							<ntsc>FALSE</ntsc>
						</rate>
						<start>56214</start>
						<end>56256</end>
						<in>0</in>
						<out>42</out>
						<pproTicksIn>0</pproTicksIn>
						<pproTicksOut>426746880000</pproTicksOut>
						<file id="file-82"/>
						<sourcetrack>
							<mediatype>audio</mediatype>
							<trackindex>2</trackindex>
						</sourcetrack>
						<link>
							<linkclipref>clipitem-2815</linkclipref>
							<mediatype>audio</mediatype>
							<trackindex>19</trackindex>
							<clipindex>112</clipindex>
							<groupindex>1</groupindex>
						</link>
						<link>
							<linkclipref>clipitem-2912</linkclipref>
							<mediatype>audio</mediatype>
							<trackindex>20</trackindex>
							<clipindex>105</clipindex>
							<groupindex>1</groupindex>
						</link>
						<logginginfo>
							<description></description>
							<scene></scene>
							<shottake></shottake>
							<lognote></lognote>
						</logginginfo>
						<labels>
							<label2>Caribbean</label2>
						</labels>
					</clipitem>
					<clipitem id="clipitem-2913" premiereChannelType="stereo">
						<masterclipid>masterclip-158</masterclipid>
						<name>Applaus kort med plystring.wav</name>
						<enabled>TRUE</enabled>
						<duration>144</duration>
						<rate>
							<timebase>25</timebase>
							<ntsc>FALSE</ntsc>
						</rate>
						<start>56444</start>
						<end>56588</end>
						<in>0</in>
						<out>144</out>
						<pproTicksIn>0</pproTicksIn>
						<pproTicksOut>1463132160000</pproTicksOut>
						<file id="file-154"/>
						<sourcetrack>
							<mediatype>audio</mediatype>
							<trackindex>2</trackindex>
						</sourcetrack>
						<link>
							<linkclipref>clipitem-2816</linkclipref>
							<mediatype>audio</mediatype>
							<trackindex>19</trackindex>
							<clipindex>113</clipindex>
							<groupindex>1</groupindex>
						</link>
						<link>
							<linkclipref>clipitem-2913</linkclipref>
							<mediatype>audio</mediatype>
							<trackindex>20</trackindex>
							<clipindex>106</clipindex>
							<groupindex>1</groupindex>
						</link>
						<logginginfo>
							<description></description>
							<scene></scene>
							<shottake></shottake>
							<lognote></lognote>
						</logginginfo>
						<labels>
							<label2>Caribbean</label2>
						</labels>
					</clipitem>
					<clipitem id="clipitem-2914" premiereChannelType="stereo">
						<masterclipid>masterclip-116</masterclipid>
						<name>Latterkule kort.wav</name>
						<enabled>TRUE</enabled>
						<duration>205</duration>
						<rate>
							<timebase>25</timebase>
							<ntsc>FALSE</ntsc>
						</rate>
						<start>56788</start>
						<end>56993</end>
						<in>0</in>
						<out>205</out>
						<pproTicksIn>0</pproTicksIn>
						<pproTicksOut>2082931200000</pproTicksOut>
						<file id="file-112"/>
						<sourcetrack>
							<mediatype>audio</mediatype>
							<trackindex>2</trackindex>
						</sourcetrack>
						<link>
							<linkclipref>clipitem-2817</linkclipref>
							<mediatype>audio</mediatype>
							<trackindex>19</trackindex>
							<clipindex>114</clipindex>
							<groupindex>1</groupindex>
						</link>
						<link>
							<linkclipref>clipitem-2914</linkclipref>
							<mediatype>audio</mediatype>
							<trackindex>20</trackindex>
							<clipindex>107</clipindex>
							<groupindex>1</groupindex>
						</link>
						<logginginfo>
							<description></description>
							<scene></scene>
							<shottake></shottake>
							<lognote></lognote>
						</logginginfo>
						<labels>
							<label2>Caribbean</label2>
						</labels>
					</clipitem>
					<enabled>TRUE</enabled>
					<locked>FALSE</locked>
					<outputchannelindex>2</outputchannelindex>
				</track>
				<track TL.SQTrackAudioKeyframeStyle="0" TL.SQTrackShy="0" TL.SQTrackExpandedHeight="25" TL.SQTrackExpanded="0" MZ.TrackTargeted="1" PannerCurrentValue="0.5" PannerIsInverted="true" PannerStartKeyframe="-91445760000000000,0.5,0,0,0,0,0,0" PannerName="Balance" currentExplodedTrackIndex="0" totalExplodedTrackCount="2" premiereTrackType="Stereo">
					<clipitem id="clipitem-2915" premiereChannelType="stereo">
						<masterclipid>masterclip-68</masterclipid>
						<name>Super%20Jets%20Overhead%2004.wav</name>
						<enabled>TRUE</enabled>
						<duration>295</duration>
						<rate>
							<timebase>25</timebase>
							<ntsc>FALSE</ntsc>
						</rate>
						<start>66</start>
						<end>99</end>
						<in>262</in>
						<out>295</out>
						<pproTicksIn>2662087680000</pproTicksIn>
						<pproTicksOut>2997388800000</pproTicksOut>
						<file id="file-64"/>
						<sourcetrack>
							<mediatype>audio</mediatype>
							<trackindex>1</trackindex>
						</sourcetrack>
							<filter>
								<effect>
									<name>Audio Levels</name>
									<effectid>audiolevels</effectid>
									<effectcategory>audiolevels</effectcategory>
									<effecttype>audiolevels</effecttype>
									<mediatype>audio</mediatype>
									<parameter authoringApp="PremierePro">
										<parameterid>level</parameterid>
										<name>Level</name>
										<valuemin>0</valuemin>
										<valuemax>3.98109</valuemax>
										<value>0.099763</value>
									</parameter>
								</effect>
							</filter>
						<link>
							<linkclipref>clipitem-2915</linkclipref>
							<mediatype>audio</mediatype>
							<trackindex>21</trackindex>
							<clipindex>1</clipindex>
							<groupindex>1</groupindex>
						</link>
						<link>
							<linkclipref>clipitem-3004</linkclipref>
							<mediatype>audio</mediatype>
							<trackindex>22</trackindex>
							<clipindex>1</clipindex>
							<groupindex>1</groupindex>
						</link>
						<logginginfo>
							<description></description>
							<scene></scene>
							<shottake></shottake>
							<lognote></lognote>
						</logginginfo>
						<labels>
							<label2>Caribbean</label2>
						</labels>
					</clipitem>
					<clipitem id="clipitem-2916" premiereChannelType="mono">
						<masterclipid>masterclip-160</masterclipid>
						<name>fotball-vm-1998-videovers.mxf</name>
						<enabled>TRUE</enabled>
						<duration>129000</duration>
						<rate>
							<timebase>25</timebase>
							<ntsc>FALSE</ntsc>
						</rate>
						<start>170</start>
						<end>242</end>
						<in>64067</in>
						<out>64139</out>
						<pproTicksIn>650961722880000</pproTicksIn>
						<pproTicksOut>651693288960000</pproTicksOut>
						<pixelaspectratio>PAL-601</pixelaspectratio>
						<anamorphic>FALSE</anamorphic>
						<file id="file-156">
							<name>fotball-vm-1998-videovers.mxf</name>
							<pathurl>file://localhost/Volumes/Brakka/AdobeLager/QUIZ%20-%20brakka/Arkivstoff/1998/1998-Sport/fotball-vm-1998-videovers.mxf</pathurl>
							<rate>
								<timebase>25</timebase>
								<ntsc>FALSE</ntsc>
							</rate>
							<duration>129000</duration>
							<timecode>
								<rate>
									<timebase>25</timebase>
									<ntsc>FALSE</ntsc>
								</rate>
								<string>20:54:51:12</string>
								<frame>1882287</frame>
								<displayformat>NDF</displayformat>
								<reel>
									<name></name>
								</reel>
							</timecode>
							<media>
								<video>
									<samplecharacteristics>
										<rate>
											<timebase>25</timebase>
											<ntsc>FALSE</ntsc>
										</rate>
										<width>720</width>
										<height>576</height>
										<anamorphic>FALSE</anamorphic>
										<pixelaspectratio>PAL-601</pixelaspectratio>
										<fielddominance>upper</fielddominance>
									</samplecharacteristics>
								</video>
								<audio>
									<samplecharacteristics>
										<depth>16</depth>
										<samplerate>48000</samplerate>
									</samplecharacteristics>
									<channelcount>8</channelcount>
								</audio>
							</media>
						</file>
						<sourcetrack>
							<mediatype>audio</mediatype>
							<trackindex>2</trackindex>
						</sourcetrack>
							<filter>
								<effect>
									<name>Audio Levels</name>
									<effectid>audiolevels</effectid>
									<effectcategory>audiolevels</effectcategory>
									<effecttype>audiolevels</effecttype>
									<mediatype>audio</mediatype>
									<parameter authoringApp="PremierePro">
										<parameterid>level</parameterid>
										<name>Level</name>
										<valuemin>0</valuemin>
										<valuemax>3.98109</valuemax>
										<value>0.353972</value>
									</parameter>
								</effect>
							</filter>
						<logginginfo>
							<description></description>
							<scene></scene>
							<shottake></shottake>
							<lognote></lognote>
						</logginginfo>
						<labels>
							<label2>Iris</label2>
						</labels>
					</clipitem>
					<clipitem id="clipitem-2917" premiereChannelType="stereo">
						<masterclipid>masterclip-157</masterclipid>
						<name>Applaus med plystring 2.wav</name>
						<enabled>TRUE</enabled>
						<duration>218</duration>
						<rate>
							<timebase>25</timebase>
							<ntsc>FALSE</ntsc>
						</rate>
						<start>330</start>
						<end>436</end>
						<in>0</in>
						<out>106</out>
						<pproTicksIn>0</pproTicksIn>
						<pproTicksOut>1077027840000</pproTicksOut>
						<file id="file-153"/>
						<sourcetrack>
							<mediatype>audio</mediatype>
							<trackindex>1</trackindex>
						</sourcetrack>
						<link>
							<linkclipref>clipitem-2917</linkclipref>
							<mediatype>audio</mediatype>
							<trackindex>21</trackindex>
							<clipindex>3</clipindex>
							<groupindex>1</groupindex>
						</link>
						<link>
							<linkclipref>clipitem-3005</linkclipref>
							<mediatype>audio</mediatype>
							<trackindex>22</trackindex>
							<clipindex>2</clipindex>
							<groupindex>1</groupindex>
						</link>
						<logginginfo>
							<description></description>
							<scene></scene>
							<shottake></shottake>
							<lognote></lognote>
						</logginginfo>
						<labels>
							<label2>Caribbean</label2>
						</labels>
					</clipitem>
					<clipitem id="clipitem-2918" premiereChannelType="stereo">
						<masterclipid>masterclip-157</masterclipid>
						<name>Applaus med plystring 2.wav</name>
						<enabled>TRUE</enabled>
						<duration>218</duration>
						<rate>
							<timebase>25</timebase>
							<ntsc>FALSE</ntsc>
						</rate>
						<start>436</start>
						<end>506</end>
						<in>148</in>
						<out>218</out>
						<pproTicksIn>1503774720000</pproTicksIn>
						<pproTicksOut>2215019520000</pproTicksOut>
						<file id="file-153"/>
						<sourcetrack>
							<mediatype>audio</mediatype>
							<trackindex>1</trackindex>
						</sourcetrack>
						<link>
							<linkclipref>clipitem-2918</linkclipref>
							<mediatype>audio</mediatype>
							<trackindex>21</trackindex>
							<clipindex>4</clipindex>
							<groupindex>1</groupindex>
						</link>
						<link>
							<linkclipref>clipitem-3006</linkclipref>
							<mediatype>audio</mediatype>
							<trackindex>22</trackindex>
							<clipindex>3</clipindex>
							<groupindex>1</groupindex>
						</link>
						<logginginfo>
							<description></description>
							<scene></scene>
							<shottake></shottake>
							<lognote></lognote>
						</logginginfo>
						<labels>
							<label2>Caribbean</label2>
						</labels>
					</clipitem>
					<clipitem id="clipitem-2919" premiereChannelType="stereo">
						<masterclipid>masterclip-2</masterclipid>
						<name>obub05000303aa-p1-060416r.mxf</name>
						<enabled>TRUE</enabled>
						<duration>6466</duration>
						<rate>
							<timebase>25</timebase>
							<ntsc>FALSE</ntsc>
						</rate>
						<start>861</start>
						<end>1094</end>
						<in>846</in>
						<out>1079</out>
						<pproTicksIn>8595901440000</pproTicksIn>
						<pproTicksOut>10963330560000</pproTicksOut>
						<file id="file-1"/>
						<sourcetrack>
							<mediatype>audio</mediatype>
							<trackindex>1</trackindex>
						</sourcetrack>
						<link>
							<linkclipref>clipitem-2919</linkclipref>
							<mediatype>audio</mediatype>
							<trackindex>21</trackindex>
							<clipindex>5</clipindex>
							<groupindex>1</groupindex>
						</link>
						<link>
							<linkclipref>clipitem-3007</linkclipref>
							<mediatype>audio</mediatype>
							<trackindex>22</trackindex>
							<clipindex>4</clipindex>
							<groupindex>1</groupindex>
						</link>
						<logginginfo>
							<description></description>
							<scene></scene>
							<shottake></shottake>
							<lognote></lognote>
						</logginginfo>
						<labels>
							<label2>Iris</label2>
						</labels>
					</clipitem>
					<clipitem id="clipitem-2920" premiereChannelType="stereo">
						<masterclipid>masterclip-161</masterclipid>
						<name>Apollo_ASPML_1011_24__Newest_Wave__Mark_Plati_(BMI).mp3</name>
						<enabled>TRUE</enabled>
						<duration>4824</duration>
						<rate>
							<timebase>25</timebase>
							<ntsc>FALSE</ntsc>
						</rate>
						<start>1236</start>
						<end>-1</end>
						<in>0</in>
						<out>150</out>
						<pproTicksIn>0</pproTicksIn>
						<pproTicksOut>1524096000000</pproTicksOut>
						<file id="file-157">
							<name>Apollo_ASPML_1011_24__Newest_Wave__Mark_Plati_(BMI).mp3</name>
							<pathurl>file://localhost/Volumes/Brakka/AdobeLager/QUIZ%20-%20brakka/Arkivstoff/2005/2005%20Musikk-teppe/Apollo/Apollo_ASPML_1011_24__Newest_Wave__Mark_Plati_(BMI).mp3</pathurl>
							<rate>
								<timebase>30</timebase>
								<ntsc>TRUE</ntsc>
							</rate>
							<duration>5783</duration>
							<timecode>
								<rate>
									<timebase>30</timebase>
									<ntsc>TRUE</ntsc>
								</rate>
								<string>00;00;00;00</string>
								<frame>0</frame>
								<displayformat>DF</displayformat>
								<reel>
									<name></name>
								</reel>
							</timecode>
							<media>
								<audio>
									<samplecharacteristics>
										<depth>16</depth>
										<samplerate>44100</samplerate>
									</samplecharacteristics>
									<channelcount>2</channelcount>
								</audio>
							</media>
						</file>
						<sourcetrack>
							<mediatype>audio</mediatype>
							<trackindex>1</trackindex>
						</sourcetrack>
							<filter>
								<effect>
									<name>Audio Levels</name>
									<effectid>audiolevels</effectid>
									<effectcategory>audiolevels</effectcategory>
									<effecttype>audiolevels</effecttype>
									<mediatype>audio</mediatype>
									<parameter authoringApp="PremierePro">
										<parameterid>level</parameterid>
										<name>Level</name>
										<valuemin>0</valuemin>
										<valuemax>3.98109</valuemax>
										<value>0.181676</value>
										<keyframe>
											<when>146</when>
											<value>0.181676</value>
										</keyframe>
									</parameter>
								</effect>
							</filter>
						<link>
							<linkclipref>clipitem-2920</linkclipref>
							<mediatype>audio</mediatype>
							<trackindex>21</trackindex>
							<clipindex>6</clipindex>
							<groupindex>1</groupindex>
						</link>
						<link>
							<linkclipref>clipitem-3008</linkclipref>
							<mediatype>audio</mediatype>
							<trackindex>22</trackindex>
							<clipindex>5</clipindex>
							<groupindex>1</groupindex>
						</link>
						<logginginfo>
							<description></description>
							<scene></scene>
							<shottake></shottake>
							<lognote></lognote>
						</logginginfo>
						<labels>
							<label2>Caribbean</label2>
						</labels>
					</clipitem>
					<transitionitem>
						<start>1356</start>
						<end>1386</end>
						<alignment>center</alignment>
						<cutPointTicks>152409600000</cutPointTicks>
						<rate>
							<timebase>25</timebase>
							<ntsc>FALSE</ntsc>
						</rate>
						<effect>
							<name>Cross Fade (+3dB)</name>
							<effectid>KGAudioTransCrossFade3dB</effectid>
							<effecttype>transition</effecttype>
							<mediatype>audio</mediatype>
							<wipecode>0</wipecode>
							<wipeaccuracy>100</wipeaccuracy>
							<startratio>0</startratio>
							<endratio>1</endratio>
							<reverse>FALSE</reverse>
						</effect>
					</transitionitem>
					<clipitem id="clipitem-2921" premiereChannelType="stereo">
						<masterclipid>masterclip-161</masterclipid>
						<name>Apollo_ASPML_1011_24__Newest_Wave__Mark_Plati_(BMI).mp3</name>
						<enabled>TRUE</enabled>
						<duration>4824</duration>
						<rate>
							<timebase>25</timebase>
							<ntsc>FALSE</ntsc>
						</rate>
						<start>-1</start>
						<end>1522</end>
						<in>120</in>
						<out>286</out>
						<pproTicksIn>1219276800000</pproTicksIn>
						<pproTicksOut>2905943040000</pproTicksOut>
						<file id="file-157"/>
						<sourcetrack>
							<mediatype>audio</mediatype>
							<trackindex>1</trackindex>
						</sourcetrack>
							<filter>
								<effect>
									<name>Audio Levels</name>
									<effectid>audiolevels</effectid>
									<effectcategory>audiolevels</effectcategory>
									<effecttype>audiolevels</effecttype>
									<mediatype>audio</mediatype>
									<parameter authoringApp="PremierePro">
										<parameterid>level</parameterid>
										<name>Level</name>
										<valuemin>0</valuemin>
										<valuemax>3.98109</valuemax>
										<value>0</value>
										<keyframe>
											<when>126</when>
											<value>0.463856</value>
										</keyframe>
										<keyframe>
											<when>222</when>
											<value>0.463856</value>
										</keyframe>
										<keyframe>
											<when>284</when>
											<value>0</value>
										</keyframe>
									</parameter>
								</effect>
							</filter>
						<link>
							<linkclipref>clipitem-2921</linkclipref>
							<mediatype>audio</mediatype>
							<trackindex>21</trackindex>
							<clipindex>8</clipindex>
							<groupindex>1</groupindex>
						</link>
						<link>
							<linkclipref>clipitem-3009</linkclipref>
							<mediatype>audio</mediatype>
							<trackindex>22</trackindex>
							<clipindex>7</clipindex>
							<groupindex>1</groupindex>
						</link>
						<logginginfo>
							<description></description>
							<scene></scene>
							<shottake></shottake>
							<lognote></lognote>
						</logginginfo>
						<labels>
							<label2>Caribbean</label2>
						</labels>
					</clipitem>
					<clipitem id="clipitem-2922" premiereChannelType="stereo">
						<masterclipid>masterclip-162</masterclipid>
						<name>Apollo_DIN_6_40__Domenico_Zipoli_-_Verso_in_E_minor_-_Sonate_dIntavolatura_-_No_1__Andy_Grainger.mp3</name>
						<enabled>TRUE</enabled>
						<duration>1604</duration>
						<rate>
							<timebase>25</timebase>
							<ntsc>FALSE</ntsc>
						</rate>
						<start>1927</start>
						<end>-1</end>
						<in>0</in>
						<out>270</out>
						<pproTicksIn>0</pproTicksIn>
						<pproTicksOut>2743372800000</pproTicksOut>
						<file id="file-158">
							<name>Apollo_DIN_6_40__Domenico_Zipoli_-_Verso_in_E_minor_-_Sonate_dIntavolatura_-_No_1__Andy_Grainger.mp3</name>
							<pathurl>file://localhost/Volumes/Brakka/AdobeLager/QUIZ%20-%20brakka/Arkivstoff/2005/2005%20Musikk-teppe/Apollo/Apollo_DIN_6_40__Domenico_Zipoli_-_Verso_in_E_minor_-_Sonate_dIntavolatura_-_No_1__Andy_Grainger.mp3</pathurl>
							<rate>
								<timebase>30</timebase>
								<ntsc>TRUE</ntsc>
							</rate>
							<duration>1923</duration>
							<timecode>
								<rate>
									<timebase>30</timebase>
									<ntsc>TRUE</ntsc>
								</rate>
								<string>00;00;00;00</string>
								<frame>0</frame>
								<displayformat>DF</displayformat>
								<reel>
									<name></name>
								</reel>
							</timecode>
							<media>
								<audio>
									<samplecharacteristics>
										<depth>16</depth>
										<samplerate>44100</samplerate>
									</samplecharacteristics>
									<channelcount>2</channelcount>
								</audio>
							</media>
						</file>
						<sourcetrack>
							<mediatype>audio</mediatype>
							<trackindex>1</trackindex>
						</sourcetrack>
							<filter>
								<effect>
									<name>Audio Levels</name>
									<effectid>audiolevels</effectid>
									<effectcategory>audiolevels</effectcategory>
									<effecttype>audiolevels</effecttype>
									<mediatype>audio</mediatype>
									<parameter authoringApp="PremierePro">
										<parameterid>level</parameterid>
										<name>Level</name>
										<valuemin>0</valuemin>
										<valuemax>3.98109</valuemax>
										<value>0.099763</value>
									</parameter>
								</effect>
							</filter>
						<link>
							<linkclipref>clipitem-2922</linkclipref>
							<mediatype>audio</mediatype>
							<trackindex>21</trackindex>
							<clipindex>9</clipindex>
							<groupindex>1</groupindex>
						</link>
						<link>
							<linkclipref>clipitem-3010</linkclipref>
							<mediatype>audio</mediatype>
							<trackindex>22</trackindex>
							<clipindex>8</clipindex>
							<groupindex>1</groupindex>
						</link>
						<logginginfo>
							<description></description>
							<scene></scene>
							<shottake></shottake>
							<lognote></lognote>
						</logginginfo>
						<labels>
							<label2>Caribbean</label2>
						</labels>
					</clipitem>
					<transitionitem>
						<start>2144</start>
						<end>2197</end>
						<alignment>end-black</alignment>
						<cutPointTicks>538513920000</cutPointTicks>
						<rate>
							<timebase>25</timebase>
							<ntsc>FALSE</ntsc>
						</rate>
						<effect>
							<name>Cross Fade (+3dB)</name>
							<effectid>KGAudioTransCrossFade3dB</effectid>
							<effecttype>transition</effecttype>
							<mediatype>audio</mediatype>
							<wipecode>0</wipecode>
							<wipeaccuracy>100</wipeaccuracy>
							<startratio>0</startratio>
							<endratio>1</endratio>
							<reverse>FALSE</reverse>
						</effect>
					</transitionitem>
					<transitionitem>
						<start>3079</start>
						<end>3092</end>
						<alignment>start-black</alignment>
						<cutPointTicks>0</cutPointTicks>
						<rate>
							<timebase>25</timebase>
							<ntsc>FALSE</ntsc>
						</rate>
						<effect>
							<name>Cross Fade (+3dB)</name>
							<effectid>KGAudioTransCrossFade3dB</effectid>
							<effecttype>transition</effecttype>
							<mediatype>audio</mediatype>
							<wipecode>0</wipecode>
							<wipeaccuracy>100</wipeaccuracy>
							<startratio>0</startratio>
							<endratio>1</endratio>
							<reverse>FALSE</reverse>
						</effect>
					</transitionitem>
					<clipitem id="clipitem-2923" premiereChannelType="stereo">
						<masterclipid>masterclip-163</masterclipid>
						<name>Apollo_DWCD_182_12__COURT_OF_APPEAL__IVOR_SLANEY.mp3</name>
						<enabled>TRUE</enabled>
						<duration>1846</duration>
						<rate>
							<timebase>25</timebase>
							<ntsc>FALSE</ntsc>
						</rate>
						<start>-1</start>
						<end>-1</end>
						<in>238</in>
						<out>737</out>
						<pproTicksIn>2418232320000</pproTicksIn>
						<pproTicksOut>7488391680000</pproTicksOut>
						<file id="file-159">
							<name>Apollo_DWCD_182_12__COURT_OF_APPEAL__IVOR_SLANEY.mp3</name>
							<pathurl>file://localhost/Volumes/Brakka/AdobeLager/QUIZ%20-%20brakka/Arkivstoff/2005/2005%20Musikk-teppe/Apollo/Apollo_DWCD_182_12__COURT_OF_APPEAL__IVOR_SLANEY.mp3</pathurl>
							<rate>
								<timebase>30</timebase>
								<ntsc>TRUE</ntsc>
							</rate>
							<duration>2214</duration>
							<timecode>
								<rate>
									<timebase>30</timebase>
									<ntsc>TRUE</ntsc>
								</rate>
								<string>00;00;00;00</string>
								<frame>0</frame>
								<displayformat>DF</displayformat>
								<reel>
									<name></name>
								</reel>
							</timecode>
							<media>
								<audio>
									<samplecharacteristics>
										<depth>16</depth>
										<samplerate>44100</samplerate>
									</samplecharacteristics>
									<channelcount>2</channelcount>
								</audio>
							</media>
						</file>
						<sourcetrack>
							<mediatype>audio</mediatype>
							<trackindex>1</trackindex>
						</sourcetrack>
							<filter>
								<effect>
									<name>Audio Levels</name>
									<effectid>audiolevels</effectid>
									<effectcategory>audiolevels</effectcategory>
									<effecttype>audiolevels</effecttype>
									<mediatype>audio</mediatype>
									<parameter authoringApp="PremierePro">
										<parameterid>level</parameterid>
										<name>Level</name>
										<valuemin>0</valuemin>
										<valuemax>3.98109</valuemax>
										<value>0.177406</value>
									</parameter>
								</effect>
							</filter>
						<link>
							<linkclipref>clipitem-2923</linkclipref>
							<mediatype>audio</mediatype>
							<trackindex>21</trackindex>
							<clipindex>12</clipindex>
							<groupindex>1</groupindex>
						</link>
						<link>
							<linkclipref>clipitem-3011</linkclipref>
							<mediatype>audio</mediatype>
							<trackindex>22</trackindex>
							<clipindex>11</clipindex>
							<groupindex>1</groupindex>
						</link>
						<logginginfo>
							<description></description>
							<scene></scene>
							<shottake></shottake>
							<lognote></lognote>
						</logginginfo>
						<labels>
							<label2>Caribbean</label2>
						</labels>
					</clipitem>
					<transitionitem>
						<start>3539</start>
						<end>3578</end>
						<alignment>end-black</alignment>
						<cutPointTicks>396264960000</cutPointTicks>
						<rate>
							<timebase>25</timebase>
							<ntsc>FALSE</ntsc>
						</rate>
						<effect>
							<name>Cross Fade (+3dB)</name>
							<effectid>KGAudioTransCrossFade3dB</effectid>
							<effecttype>transition</effecttype>
							<mediatype>audio</mediatype>
							<wipecode>0</wipecode>
							<wipeaccuracy>100</wipeaccuracy>
							<startratio>0</startratio>
							<endratio>1</endratio>
							<reverse>FALSE</reverse>
						</effect>
					</transitionitem>
					<clipitem id="clipitem-2924" premiereChannelType="stereo">
						<masterclipid>masterclip-152</masterclipid>
						<name>Apollo_DIN_31_241__Water_Slide_Slip__Joel_P.W._Dean.mp3</name>
						<enabled>TRUE</enabled>
						<duration>386</duration>
						<rate>
							<timebase>25</timebase>
							<ntsc>FALSE</ntsc>
						</rate>
						<start>4119</start>
						<end>4505</end>
						<in>0</in>
						<out>386</out>
						<pproTicksIn>0</pproTicksIn>
						<pproTicksOut>3922007040000</pproTicksOut>
						<file id="file-148"/>
						<sourcetrack>
							<mediatype>audio</mediatype>
							<trackindex>1</trackindex>
						</sourcetrack>
							<filter>
								<effect>
									<name>Audio Levels</name>
									<effectid>audiolevels</effectid>
									<effectcategory>audiolevels</effectcategory>
									<effecttype>audiolevels</effecttype>
									<mediatype>audio</mediatype>
									<parameter authoringApp="PremierePro">
										<parameterid>level</parameterid>
										<name>Level</name>
										<valuemin>0</valuemin>
										<valuemax>3.98109</valuemax>
										<value>0.099763</value>
									</parameter>
								</effect>
							</filter>
						<link>
							<linkclipref>clipitem-2924</linkclipref>
							<mediatype>audio</mediatype>
							<trackindex>21</trackindex>
							<clipindex>14</clipindex>
							<groupindex>1</groupindex>
						</link>
						<link>
							<linkclipref>clipitem-3012</linkclipref>
							<mediatype>audio</mediatype>
							<trackindex>22</trackindex>
							<clipindex>13</clipindex>
							<groupindex>1</groupindex>
						</link>
						<logginginfo>
							<description></description>
							<scene></scene>
							<shottake></shottake>
							<lognote></lognote>
						</logginginfo>
						<labels>
							<label2>Caribbean</label2>
						</labels>
					</clipitem>
					<clipitem id="clipitem-2925" premiereChannelType="stereo">
						<masterclipid>masterclip-164</masterclipid>
						<name>Lang applaus.wav</name>
						<enabled>TRUE</enabled>
						<duration>466</duration>
						<rate>
							<timebase>25</timebase>
							<ntsc>FALSE</ntsc>
						</rate>
						<start>4809</start>
						<end>-1</end>
						<in>0</in>
						<out>109</out>
						<pproTicksIn>0</pproTicksIn>
						<pproTicksOut>1107509760000</pproTicksOut>
						<file id="file-160">
							<name>Lang applaus.wav</name>
							<pathurl>file://localhost/Volumes/Brakka/AdobeLager/QUIZ%20-%20brakka/RA%cc%8aSTOFF%20LYD/Publikumsreaksjoner/Fra%201980/Lang%20applaus.wav</pathurl>
							<rate>
								<timebase>30</timebase>
								<ntsc>TRUE</ntsc>
							</rate>
							<duration>558</duration>
							<timecode>
								<rate>
									<timebase>30</timebase>
									<ntsc>TRUE</ntsc>
								</rate>
								<string>14;43;11;07</string>
								<frame>1588147</frame>
								<displayformat>DF</displayformat>
								<reel>
									<name></name>
								</reel>
							</timecode>
							<media>
								<audio>
									<samplecharacteristics>
										<depth>16</depth>
										<samplerate>48000</samplerate>
									</samplecharacteristics>
									<channelcount>2</channelcount>
								</audio>
							</media>
						</file>
						<sourcetrack>
							<mediatype>audio</mediatype>
							<trackindex>1</trackindex>
						</sourcetrack>
						<link>
							<linkclipref>clipitem-2925</linkclipref>
							<mediatype>audio</mediatype>
							<trackindex>21</trackindex>
							<clipindex>15</clipindex>
							<groupindex>1</groupindex>
						</link>
						<link>
							<linkclipref>clipitem-3013</linkclipref>
							<mediatype>audio</mediatype>
							<trackindex>22</trackindex>
							<clipindex>14</clipindex>
							<groupindex>1</groupindex>
						</link>
						<logginginfo>
							<description></description>
							<scene></scene>
							<shottake></shottake>
							<lognote></lognote>
						</logginginfo>
						<labels>
							<label2>Caribbean</label2>
						</labels>
					</clipitem>
					<transitionitem>
						<start>4905</start>
						<end>4918</end>
						<alignment>end-black</alignment>
						<cutPointTicks>132088320000</cutPointTicks>
						<rate>
							<timebase>25</timebase>
							<ntsc>FALSE</ntsc>
						</rate>
						<effect>
							<name>Cross Fade (+3dB)</name>
							<effectid>KGAudioTransCrossFade3dB</effectid>
							<effecttype>transition</effecttype>
							<mediatype>audio</mediatype>
							<wipecode>0</wipecode>
							<wipeaccuracy>100</wipeaccuracy>
							<startratio>0</startratio>
							<endratio>1</endratio>
							<reverse>FALSE</reverse>
						</effect>
					</transitionitem>
					<clipitem id="clipitem-2926" premiereChannelType="stereo">
						<masterclipid>masterclip-139</masterclipid>
						<name>Applaus, litt plystring.wav</name>
						<enabled>TRUE</enabled>
						<duration>177</duration>
						<rate>
							<timebase>25</timebase>
							<ntsc>FALSE</ntsc>
						</rate>
						<start>5249</start>
						<end>5340</end>
						<in>0</in>
						<out>91</out>
						<pproTicksIn>0</pproTicksIn>
						<pproTicksOut>924618240000</pproTicksOut>
						<file id="file-135"/>
						<sourcetrack>
							<mediatype>audio</mediatype>
							<trackindex>1</trackindex>
						</sourcetrack>
						<link>
							<linkclipref>clipitem-2926</linkclipref>
							<mediatype>audio</mediatype>
							<trackindex>21</trackindex>
							<clipindex>17</clipindex>
							<groupindex>1</groupindex>
						</link>
						<link>
							<linkclipref>clipitem-3014</linkclipref>
							<mediatype>audio</mediatype>
							<trackindex>22</trackindex>
							<clipindex>16</clipindex>
							<groupindex>1</groupindex>
						</link>
						<logginginfo>
							<description></description>
							<scene></scene>
							<shottake></shottake>
							<lognote></lognote>
						</logginginfo>
						<labels>
							<label2>Caribbean</label2>
						</labels>
					</clipitem>
					<clipitem id="clipitem-2927" premiereChannelType="stereo">
						<masterclipid>masterclip-139</masterclipid>
						<name>Applaus, litt plystring.wav</name>
						<enabled>TRUE</enabled>
						<duration>177</duration>
						<rate>
							<timebase>25</timebase>
							<ntsc>FALSE</ntsc>
						</rate>
						<start>5340</start>
						<end>5352</end>
						<in>91</in>
						<out>103</out>
						<pproTicksIn>924618240000</pproTicksIn>
						<pproTicksOut>1046545920000</pproTicksOut>
						<file id="file-135"/>
						<sourcetrack>
							<mediatype>audio</mediatype>
							<trackindex>1</trackindex>
						</sourcetrack>
						<link>
							<linkclipref>clipitem-2927</linkclipref>
							<mediatype>audio</mediatype>
							<trackindex>21</trackindex>
							<clipindex>18</clipindex>
							<groupindex>1</groupindex>
						</link>
						<link>
							<linkclipref>clipitem-3015</linkclipref>
							<mediatype>audio</mediatype>
							<trackindex>22</trackindex>
							<clipindex>17</clipindex>
							<groupindex>1</groupindex>
						</link>
						<logginginfo>
							<description></description>
							<scene></scene>
							<shottake></shottake>
							<lognote></lognote>
						</logginginfo>
						<labels>
							<label2>Caribbean</label2>
						</labels>
					</clipitem>
					<clipitem id="clipitem-2928" premiereChannelType="stereo">
						<masterclipid>masterclip-139</masterclipid>
						<name>Applaus, litt plystring.wav</name>
						<enabled>TRUE</enabled>
						<duration>177</duration>
						<rate>
							<timebase>25</timebase>
							<ntsc>FALSE</ntsc>
						</rate>
						<start>5352</start>
						<end>5397</end>
						<in>133</in>
						<out>178</out>
						<pproTicksIn>1351365120000</pproTicksIn>
						<pproTicksOut>1808593920000</pproTicksOut>
						<file id="file-135"/>
						<sourcetrack>
							<mediatype>audio</mediatype>
							<trackindex>1</trackindex>
						</sourcetrack>
						<link>
							<linkclipref>clipitem-2928</linkclipref>
							<mediatype>audio</mediatype>
							<trackindex>21</trackindex>
							<clipindex>19</clipindex>
							<groupindex>1</groupindex>
						</link>
						<link>
							<linkclipref>clipitem-3016</linkclipref>
							<mediatype>audio</mediatype>
							<trackindex>22</trackindex>
							<clipindex>18</clipindex>
							<groupindex>1</groupindex>
						</link>
						<logginginfo>
							<description></description>
							<scene></scene>
							<shottake></shottake>
							<lognote></lognote>
						</logginginfo>
						<labels>
							<label2>Caribbean</label2>
						</labels>
					</clipitem>
					<clipitem id="clipitem-2929" premiereChannelType="stereo">
						<masterclipid>masterclip-165</masterclipid>
						<name>_Jeeee..._ applaus.wav</name>
						<enabled>TRUE</enabled>
						<duration>129</duration>
						<rate>
							<timebase>25</timebase>
							<ntsc>FALSE</ntsc>
						</rate>
						<start>5557</start>
						<end>5687</end>
						<in>0</in>
						<out>130</out>
						<pproTicksIn>0</pproTicksIn>
						<pproTicksOut>1320883200000</pproTicksOut>
						<file id="file-161">
							<name>_Jeeee..._ applaus.wav</name>
							<pathurl>file://localhost/Volumes/Brakka/AdobeLager/QUIZ%20-%20brakka/RA%cc%8aSTOFF%20LYD/Publikumsreaksjoner/Fra%201980/_Jeeee..._%20applaus.wav</pathurl>
							<rate>
								<timebase>30</timebase>
								<ntsc>TRUE</ntsc>
							</rate>
							<duration>155</duration>
							<timecode>
								<rate>
									<timebase>30</timebase>
									<ntsc>TRUE</ntsc>
								</rate>
								<string>12;57;50;18</string>
								<frame>1398718</frame>
								<displayformat>DF</displayformat>
								<reel>
									<name></name>
								</reel>
							</timecode>
							<media>
								<audio>
									<samplecharacteristics>
										<depth>16</depth>
										<samplerate>48000</samplerate>
									</samplecharacteristics>
									<channelcount>2</channelcount>
								</audio>
							</media>
						</file>
						<sourcetrack>
							<mediatype>audio</mediatype>
							<trackindex>1</trackindex>
						</sourcetrack>
						<link>
							<linkclipref>clipitem-2929</linkclipref>
							<mediatype>audio</mediatype>
							<trackindex>21</trackindex>
							<clipindex>20</clipindex>
							<groupindex>1</groupindex>
						</link>
						<link>
							<linkclipref>clipitem-3017</linkclipref>
							<mediatype>audio</mediatype>
							<trackindex>22</trackindex>
							<clipindex>19</clipindex>
							<groupindex>1</groupindex>
						</link>
						<logginginfo>
							<description></description>
							<scene></scene>
							<shottake></shottake>
							<lognote></lognote>
						</logginginfo>
						<labels>
							<label2>Caribbean</label2>
						</labels>
					</clipitem>
					<clipitem id="clipitem-2930" premiereChannelType="stereo">
						<masterclipid>masterclip-140</masterclipid>
						<name>Mellomlang liten latter.wav</name>
						<enabled>TRUE</enabled>
						<duration>105</duration>
						<rate>
							<timebase>25</timebase>
							<ntsc>FALSE</ntsc>
						</rate>
						<start>5950</start>
						<end>6055</end>
						<in>0</in>
						<out>105</out>
						<pproTicksIn>0</pproTicksIn>
						<pproTicksOut>1066867200000</pproTicksOut>
						<file id="file-136"/>
						<sourcetrack>
							<mediatype>audio</mediatype>
							<trackindex>1</trackindex>
						</sourcetrack>
						<link>
							<linkclipref>clipitem-2930</linkclipref>
							<mediatype>audio</mediatype>
							<trackindex>21</trackindex>
							<clipindex>21</clipindex>
							<groupindex>1</groupindex>
						</link>
						<link>
							<linkclipref>clipitem-3018</linkclipref>
							<mediatype>audio</mediatype>
							<trackindex>22</trackindex>
							<clipindex>20</clipindex>
							<groupindex>1</groupindex>
						</link>
						<logginginfo>
							<description></description>
							<scene></scene>
							<shottake></shottake>
							<lognote></lognote>
						</logginginfo>
						<labels>
							<label2>Caribbean</label2>
						</labels>
					</clipitem>
					<clipitem id="clipitem-2931" premiereChannelType="stereo">
						<masterclipid>masterclip-140</masterclipid>
						<name>Mellomlang liten latter.wav</name>
						<enabled>TRUE</enabled>
						<duration>105</duration>
						<rate>
							<timebase>25</timebase>
							<ntsc>FALSE</ntsc>
						</rate>
						<start>6732</start>
						<end>6837</end>
						<in>0</in>
						<out>105</out>
						<pproTicksIn>0</pproTicksIn>
						<pproTicksOut>1066867200000</pproTicksOut>
						<file id="file-136"/>
						<sourcetrack>
							<mediatype>audio</mediatype>
							<trackindex>1</trackindex>
						</sourcetrack>
						<link>
							<linkclipref>clipitem-2931</linkclipref>
							<mediatype>audio</mediatype>
							<trackindex>21</trackindex>
							<clipindex>22</clipindex>
							<groupindex>1</groupindex>
						</link>
						<link>
							<linkclipref>clipitem-3019</linkclipref>
							<mediatype>audio</mediatype>
							<trackindex>22</trackindex>
							<clipindex>21</clipindex>
							<groupindex>1</groupindex>
						</link>
						<logginginfo>
							<description></description>
							<scene></scene>
							<shottake></shottake>
							<lognote></lognote>
						</logginginfo>
						<labels>
							<label2>Caribbean</label2>
						</labels>
					</clipitem>
					<clipitem id="clipitem-2932" premiereChannelType="stereo">
						<masterclipid>masterclip-101</masterclipid>
						<name>Latter kort litt klapping.wav</name>
						<enabled>TRUE</enabled>
						<duration>68</duration>
						<rate>
							<timebase>25</timebase>
							<ntsc>FALSE</ntsc>
						</rate>
						<start>7293</start>
						<end>7354</end>
						<in>0</in>
						<out>61</out>
						<pproTicksIn>0</pproTicksIn>
						<pproTicksOut>619799040000</pproTicksOut>
						<file id="file-97"/>
						<sourcetrack>
							<mediatype>audio</mediatype>
							<trackindex>1</trackindex>
						</sourcetrack>
						<link>
							<linkclipref>clipitem-2932</linkclipref>
							<mediatype>audio</mediatype>
							<trackindex>21</trackindex>
							<clipindex>23</clipindex>
							<groupindex>1</groupindex>
						</link>
						<link>
							<linkclipref>clipitem-3020</linkclipref>
							<mediatype>audio</mediatype>
							<trackindex>22</trackindex>
							<clipindex>22</clipindex>
							<groupindex>1</groupindex>
						</link>
						<logginginfo>
							<description></description>
							<scene></scene>
							<shottake></shottake>
							<lognote></lognote>
						</logginginfo>
						<labels>
							<label2>Caribbean</label2>
						</labels>
					</clipitem>
					<clipitem id="clipitem-2933" premiereChannelType="stereo">
						<masterclipid>masterclip-101</masterclipid>
						<name>Latter kort litt klapping.wav</name>
						<enabled>TRUE</enabled>
						<duration>68</duration>
						<rate>
							<timebase>25</timebase>
							<ntsc>FALSE</ntsc>
						</rate>
						<start>8982</start>
						<end>9050</end>
						<in>0</in>
						<out>68</out>
						<pproTicksIn>0</pproTicksIn>
						<pproTicksOut>690923520000</pproTicksOut>
						<file id="file-97"/>
						<sourcetrack>
							<mediatype>audio</mediatype>
							<trackindex>1</trackindex>
						</sourcetrack>
						<link>
							<linkclipref>clipitem-2933</linkclipref>
							<mediatype>audio</mediatype>
							<trackindex>21</trackindex>
							<clipindex>24</clipindex>
							<groupindex>1</groupindex>
						</link>
						<link>
							<linkclipref>clipitem-3021</linkclipref>
							<mediatype>audio</mediatype>
							<trackindex>22</trackindex>
							<clipindex>23</clipindex>
							<groupindex>1</groupindex>
						</link>
						<logginginfo>
							<description></description>
							<scene></scene>
							<shottake></shottake>
							<lognote></lognote>
						</logginginfo>
						<labels>
							<label2>Caribbean</label2>
						</labels>
					</clipitem>
					<clipitem id="clipitem-2934" premiereChannelType="stereo">
						<masterclipid>masterclip-109</masterclipid>
						<name>Kort brå klukkende latter.wav</name>
						<enabled>TRUE</enabled>
						<duration>98</duration>
						<rate>
							<timebase>25</timebase>
							<ntsc>FALSE</ntsc>
						</rate>
						<start>10928</start>
						<end>11026</end>
						<in>0</in>
						<out>98</out>
						<pproTicksIn>0</pproTicksIn>
						<pproTicksOut>995742720000</pproTicksOut>
						<file id="file-105"/>
						<sourcetrack>
							<mediatype>audio</mediatype>
							<trackindex>1</trackindex>
						</sourcetrack>
						<link>
							<linkclipref>clipitem-2934</linkclipref>
							<mediatype>audio</mediatype>
							<trackindex>21</trackindex>
							<clipindex>25</clipindex>
							<groupindex>1</groupindex>
						</link>
						<link>
							<linkclipref>clipitem-3022</linkclipref>
							<mediatype>audio</mediatype>
							<trackindex>22</trackindex>
							<clipindex>24</clipindex>
							<groupindex>1</groupindex>
						</link>
						<logginginfo>
							<description></description>
							<scene></scene>
							<shottake></shottake>
							<lognote></lognote>
						</logginginfo>
						<labels>
							<label2>Caribbean</label2>
						</labels>
					</clipitem>
					<clipitem id="clipitem-2935" premiereChannelType="stereo">
						<masterclipid>masterclip-105</masterclipid>
						<name>Latter kort.wav</name>
						<enabled>TRUE</enabled>
						<duration>64</duration>
						<rate>
							<timebase>25</timebase>
							<ntsc>FALSE</ntsc>
						</rate>
						<start>12984</start>
						<end>13048</end>
						<in>0</in>
						<out>64</out>
						<pproTicksIn>0</pproTicksIn>
						<pproTicksOut>650280960000</pproTicksOut>
						<file id="file-101"/>
						<sourcetrack>
							<mediatype>audio</mediatype>
							<trackindex>1</trackindex>
						</sourcetrack>
						<link>
							<linkclipref>clipitem-2935</linkclipref>
							<mediatype>audio</mediatype>
							<trackindex>21</trackindex>
							<clipindex>26</clipindex>
							<groupindex>1</groupindex>
						</link>
						<link>
							<linkclipref>clipitem-3023</linkclipref>
							<mediatype>audio</mediatype>
							<trackindex>22</trackindex>
							<clipindex>25</clipindex>
							<groupindex>1</groupindex>
						</link>
						<logginginfo>
							<description></description>
							<scene></scene>
							<shottake></shottake>
							<lognote></lognote>
						</logginginfo>
						<labels>
							<label2>Caribbean</label2>
						</labels>
					</clipitem>
					<clipitem id="clipitem-2936" premiereChannelType="stereo">
						<masterclipid>masterclip-116</masterclipid>
						<name>Latterkule kort.wav</name>
						<enabled>TRUE</enabled>
						<duration>205</duration>
						<rate>
							<timebase>25</timebase>
							<ntsc>FALSE</ntsc>
						</rate>
						<start>13048</start>
						<end>13177</end>
						<in>76</in>
						<out>205</out>
						<pproTicksIn>772208640000</pproTicksIn>
						<pproTicksOut>2082931200000</pproTicksOut>
						<file id="file-112"/>
						<sourcetrack>
							<mediatype>audio</mediatype>
							<trackindex>1</trackindex>
						</sourcetrack>
						<link>
							<linkclipref>clipitem-2936</linkclipref>
							<mediatype>audio</mediatype>
							<trackindex>21</trackindex>
							<clipindex>27</clipindex>
							<groupindex>1</groupindex>
						</link>
						<link>
							<linkclipref>clipitem-3024</linkclipref>
							<mediatype>audio</mediatype>
							<trackindex>22</trackindex>
							<clipindex>26</clipindex>
							<groupindex>1</groupindex>
						</link>
						<logginginfo>
							<description></description>
							<scene></scene>
							<shottake></shottake>
							<lognote></lognote>
						</logginginfo>
						<labels>
							<label2>Caribbean</label2>
						</labels>
					</clipitem>
					<clipitem id="clipitem-2937" premiereChannelType="stereo">
						<masterclipid>masterclip-70</masterclipid>
						<name>Whoosh%20By%2003.wav</name>
						<enabled>TRUE</enabled>
						<duration>71</duration>
						<rate>
							<timebase>25</timebase>
							<ntsc>FALSE</ntsc>
						</rate>
						<start>13370</start>
						<end>13441</end>
						<in>0</in>
						<out>71</out>
						<pproTicksIn>0</pproTicksIn>
						<pproTicksOut>721405440000</pproTicksOut>
						<file id="file-66"/>
						<sourcetrack>
							<mediatype>audio</mediatype>
							<trackindex>1</trackindex>
						</sourcetrack>
							<filter>
								<effect>
									<name>Audio Levels</name>
									<effectid>audiolevels</effectid>
									<effectcategory>audiolevels</effectcategory>
									<effecttype>audiolevels</effecttype>
									<mediatype>audio</mediatype>
									<parameter authoringApp="PremierePro">
										<parameterid>level</parameterid>
										<name>Level</name>
										<valuemin>0</valuemin>
										<valuemax>3.98109</valuemax>
										<value>0.155914</value>
									</parameter>
								</effect>
							</filter>
						<link>
							<linkclipref>clipitem-2937</linkclipref>
							<mediatype>audio</mediatype>
							<trackindex>21</trackindex>
							<clipindex>28</clipindex>
							<groupindex>1</groupindex>
						</link>
						<link>
							<linkclipref>clipitem-3025</linkclipref>
							<mediatype>audio</mediatype>
							<trackindex>22</trackindex>
							<clipindex>27</clipindex>
							<groupindex>1</groupindex>
						</link>
						<logginginfo>
							<description></description>
							<scene></scene>
							<shottake></shottake>
							<lognote></lognote>
						</logginginfo>
						<labels>
							<label2>Caribbean</label2>
						</labels>
					</clipitem>
					<clipitem id="clipitem-2938" premiereChannelType="stereo">
						<masterclipid>masterclip-165</masterclipid>
						<name>_Jeeee..._ applaus.wav</name>
						<enabled>TRUE</enabled>
						<duration>129</duration>
						<rate>
							<timebase>25</timebase>
							<ntsc>FALSE</ntsc>
						</rate>
						<start>16185</start>
						<end>16204</end>
						<in>0</in>
						<out>19</out>
						<pproTicksIn>0</pproTicksIn>
						<pproTicksOut>193052160000</pproTicksOut>
						<file id="file-161"/>
						<sourcetrack>
							<mediatype>audio</mediatype>
							<trackindex>1</trackindex>
						</sourcetrack>
						<link>
							<linkclipref>clipitem-2938</linkclipref>
							<mediatype>audio</mediatype>
							<trackindex>21</trackindex>
							<clipindex>29</clipindex>
							<groupindex>1</groupindex>
						</link>
						<link>
							<linkclipref>clipitem-3026</linkclipref>
							<mediatype>audio</mediatype>
							<trackindex>22</trackindex>
							<clipindex>28</clipindex>
							<groupindex>1</groupindex>
						</link>
						<logginginfo>
							<description></description>
							<scene></scene>
							<shottake></shottake>
							<lognote></lognote>
						</logginginfo>
						<labels>
							<label2>Caribbean</label2>
						</labels>
					</clipitem>
					<clipitem id="clipitem-2939" premiereChannelType="stereo">
						<masterclipid>masterclip-165</masterclipid>
						<name>_Jeeee..._ applaus.wav</name>
						<enabled>TRUE</enabled>
						<duration>129</duration>
						<rate>
							<timebase>25</timebase>
							<ntsc>FALSE</ntsc>
						</rate>
						<start>16204</start>
						<end>16315</end>
						<in>19</in>
						<out>130</out>
						<pproTicksIn>193052160000</pproTicksIn>
						<pproTicksOut>1320883200000</pproTicksOut>
						<file id="file-161"/>
						<sourcetrack>
							<mediatype>audio</mediatype>
							<trackindex>1</trackindex>
						</sourcetrack>
						<link>
							<linkclipref>clipitem-2939</linkclipref>
							<mediatype>audio</mediatype>
							<trackindex>21</trackindex>
							<clipindex>30</clipindex>
							<groupindex>1</groupindex>
						</link>
						<link>
							<linkclipref>clipitem-3027</linkclipref>
							<mediatype>audio</mediatype>
							<trackindex>22</trackindex>
							<clipindex>29</clipindex>
							<groupindex>1</groupindex>
						</link>
						<logginginfo>
							<description></description>
							<scene></scene>
							<shottake></shottake>
							<lognote></lognote>
						</logginginfo>
						<labels>
							<label2>Caribbean</label2>
						</labels>
					</clipitem>
					<clipitem id="clipitem-2940" premiereChannelType="stereo">
						<masterclipid>masterclip-166</masterclipid>
						<name>Solveig H og Lars A.wav</name>
						<enabled>TRUE</enabled>
						<duration>72</duration>
						<rate>
							<timebase>25</timebase>
							<ntsc>FALSE</ntsc>
						</rate>
						<start>17908</start>
						<end>17980</end>
						<in>0</in>
						<out>72</out>
						<pproTicksIn>0</pproTicksIn>
						<pproTicksOut>731566080000</pproTicksOut>
						<file id="file-162">
							<name>Solveig H og Lars A.wav</name>
							<pathurl>file://localhost/Volumes/Brakka/AdobeLager/QUIZ%20-%20brakka/RA%cc%8aSTOFF%20LYD/Publikumsreaksjoner/Fra%201998/Solveig%20H%20og%20Lars%20A.wav</pathurl>
							<rate>
								<timebase>30</timebase>
								<ntsc>TRUE</ntsc>
							</rate>
							<duration>86</duration>
							<timecode>
								<rate>
									<timebase>30</timebase>
									<ntsc>TRUE</ntsc>
								</rate>
								<string>14;32;39;16</string>
								<frame>1569216</frame>
								<displayformat>DF</displayformat>
								<reel>
									<name></name>
								</reel>
							</timecode>
							<media>
								<audio>
									<samplecharacteristics>
										<depth>16</depth>
										<samplerate>48000</samplerate>
									</samplecharacteristics>
									<channelcount>2</channelcount>
								</audio>
							</media>
						</file>
						<sourcetrack>
							<mediatype>audio</mediatype>
							<trackindex>1</trackindex>
						</sourcetrack>
							<filter>
								<effect>
									<name>Audio Levels</name>
									<effectid>audiolevels</effectid>
									<effectcategory>audiolevels</effectcategory>
									<effecttype>audiolevels</effecttype>
									<mediatype>audio</mediatype>
									<parameter authoringApp="PremierePro">
										<parameterid>level</parameterid>
										<name>Level</name>
										<valuemin>0</valuemin>
										<valuemax>3.98109</valuemax>
										<value>0.99763</value>
									</parameter>
								</effect>
							</filter>
						<link>
							<linkclipref>clipitem-2940</linkclipref>
							<mediatype>audio</mediatype>
							<trackindex>21</trackindex>
							<clipindex>31</clipindex>
							<groupindex>1</groupindex>
						</link>
						<link>
							<linkclipref>clipitem-3028</linkclipref>
							<mediatype>audio</mediatype>
							<trackindex>22</trackindex>
							<clipindex>30</clipindex>
							<groupindex>1</groupindex>
						</link>
						<logginginfo>
							<description></description>
							<scene></scene>
							<shottake></shottake>
							<lognote></lognote>
						</logginginfo>
						<labels>
							<label2>Caribbean</label2>
						</labels>
					</clipitem>
					<clipitem id="clipitem-2941" premiereChannelType="stereo">
						<masterclipid>masterclip-81</masterclipid>
						<name>Appalus anerkjennende med hoi.wav</name>
						<enabled>TRUE</enabled>
						<duration>168</duration>
						<rate>
							<timebase>25</timebase>
							<ntsc>FALSE</ntsc>
						</rate>
						<start>18066</start>
						<end>18234</end>
						<in>0</in>
						<out>168</out>
						<pproTicksIn>0</pproTicksIn>
						<pproTicksOut>1706987520000</pproTicksOut>
						<file id="file-77"/>
						<sourcetrack>
							<mediatype>audio</mediatype>
							<trackindex>1</trackindex>
						</sourcetrack>
						<link>
							<linkclipref>clipitem-2941</linkclipref>
							<mediatype>audio</mediatype>
							<trackindex>21</trackindex>
							<clipindex>32</clipindex>
							<groupindex>1</groupindex>
						</link>
						<link>
							<linkclipref>clipitem-3029</linkclipref>
							<mediatype>audio</mediatype>
							<trackindex>22</trackindex>
							<clipindex>31</clipindex>
							<groupindex>1</groupindex>
						</link>
						<logginginfo>
							<description></description>
							<scene></scene>
							<shottake></shottake>
							<lognote></lognote>
						</logginginfo>
						<labels>
							<label2>Caribbean</label2>
						</labels>
					</clipitem>
					<clipitem id="clipitem-2942" premiereChannelType="stereo">
						<masterclipid>masterclip-102</masterclipid>
						<name>Applaus 7 sek høflig.wav</name>
						<enabled>TRUE</enabled>
						<duration>189</duration>
						<rate>
							<timebase>25</timebase>
							<ntsc>FALSE</ntsc>
						</rate>
						<start>22788</start>
						<end>22977</end>
						<in>0</in>
						<out>189</out>
						<pproTicksIn>0</pproTicksIn>
						<pproTicksOut>1920360960000</pproTicksOut>
						<file id="file-98"/>
						<sourcetrack>
							<mediatype>audio</mediatype>
							<trackindex>1</trackindex>
						</sourcetrack>
						<link>
							<linkclipref>clipitem-2942</linkclipref>
							<mediatype>audio</mediatype>
							<trackindex>21</trackindex>
							<clipindex>33</clipindex>
							<groupindex>1</groupindex>
						</link>
						<link>
							<linkclipref>clipitem-3030</linkclipref>
							<mediatype>audio</mediatype>
							<trackindex>22</trackindex>
							<clipindex>32</clipindex>
							<groupindex>1</groupindex>
						</link>
						<logginginfo>
							<description></description>
							<scene></scene>
							<shottake></shottake>
							<lognote></lognote>
						</logginginfo>
						<labels>
							<label2>Caribbean</label2>
						</labels>
					</clipitem>
					<clipitem id="clipitem-2943" premiereChannelType="stereo">
						<masterclipid>masterclip-84</masterclipid>
						<name>Kort moderat latter.wav</name>
						<enabled>TRUE</enabled>
						<duration>45</duration>
						<rate>
							<timebase>25</timebase>
							<ntsc>FALSE</ntsc>
						</rate>
						<start>23864</start>
						<end>23909</end>
						<in>0</in>
						<out>45</out>
						<pproTicksIn>0</pproTicksIn>
						<pproTicksOut>457228800000</pproTicksOut>
						<file id="file-80"/>
						<sourcetrack>
							<mediatype>audio</mediatype>
							<trackindex>1</trackindex>
						</sourcetrack>
						<link>
							<linkclipref>clipitem-2943</linkclipref>
							<mediatype>audio</mediatype>
							<trackindex>21</trackindex>
							<clipindex>34</clipindex>
							<groupindex>1</groupindex>
						</link>
						<link>
							<linkclipref>clipitem-3031</linkclipref>
							<mediatype>audio</mediatype>
							<trackindex>22</trackindex>
							<clipindex>33</clipindex>
							<groupindex>1</groupindex>
						</link>
						<logginginfo>
							<description></description>
							<scene></scene>
							<shottake></shottake>
							<lognote></lognote>
						</logginginfo>
						<labels>
							<label2>Caribbean</label2>
						</labels>
					</clipitem>
					<clipitem id="clipitem-2944" premiereChannelType="stereo">
						<masterclipid>masterclip-117</masterclipid>
						<name>Applaus behersket et hoi.wav</name>
						<enabled>TRUE</enabled>
						<duration>159</duration>
						<rate>
							<timebase>25</timebase>
							<ntsc>FALSE</ntsc>
						</rate>
						<start>24136</start>
						<end>24277</end>
						<in>0</in>
						<out>141</out>
						<pproTicksIn>0</pproTicksIn>
						<pproTicksOut>1432650240000</pproTicksOut>
						<file id="file-113"/>
						<sourcetrack>
							<mediatype>audio</mediatype>
							<trackindex>1</trackindex>
						</sourcetrack>
						<link>
							<linkclipref>clipitem-2944</linkclipref>
							<mediatype>audio</mediatype>
							<trackindex>21</trackindex>
							<clipindex>35</clipindex>
							<groupindex>1</groupindex>
						</link>
						<link>
							<linkclipref>clipitem-3032</linkclipref>
							<mediatype>audio</mediatype>
							<trackindex>22</trackindex>
							<clipindex>34</clipindex>
							<groupindex>1</groupindex>
						</link>
						<logginginfo>
							<description></description>
							<scene></scene>
							<shottake></shottake>
							<lognote></lognote>
						</logginginfo>
						<labels>
							<label2>Caribbean</label2>
						</labels>
					</clipitem>
					<clipitem id="clipitem-2945" premiereChannelType="mono">
						<masterclipid>masterclip-41</masterclipid>
						<name>OUHA09000305AA.mxf</name>
						<enabled>TRUE</enabled>
						<duration>68435</duration>
						<rate>
							<timebase>25</timebase>
							<ntsc>FALSE</ntsc>
						</rate>
						<start>24867</start>
						<end>25402</end>
						<in>17874</in>
						<out>18409</out>
						<pproTicksIn>181611279360000</pproTicksIn>
						<pproTicksOut>187047221760000</pproTicksOut>
						<file id="file-37"/>
						<sourcetrack>
							<mediatype>audio</mediatype>
							<trackindex>1</trackindex>
						</sourcetrack>
							<filter>
								<effect>
									<name>Audio Levels</name>
									<effectid>audiolevels</effectid>
									<effectcategory>audiolevels</effectcategory>
									<effecttype>audiolevels</effecttype>
									<mediatype>audio</mediatype>
									<parameter authoringApp="PremierePro">
										<parameterid>level</parameterid>
										<name>Level</name>
										<valuemin>0</valuemin>
										<valuemax>3.98109</valuemax>
										<value>0</value>
										<keyframe>
											<when>18276</when>
											<value>0.199053</value>
										</keyframe>
										<keyframe>
											<when>18403</when>
											<value>0</value>
										</keyframe>
									</parameter>
								</effect>
							</filter>
						<logginginfo>
							<description></description>
							<scene></scene>
							<shottake></shottake>
							<lognote></lognote>
						</logginginfo>
						<labels>
							<label2>Iris</label2>
						</labels>
					</clipitem>
					<clipitem id="clipitem-2946" premiereChannelType="stereo">
						<masterclipid>masterclip-116</masterclipid>
						<name>Latterkule kort.wav</name>
						<enabled>TRUE</enabled>
						<duration>205</duration>
						<rate>
							<timebase>25</timebase>
							<ntsc>FALSE</ntsc>
						</rate>
						<start>27405</start>
						<end>27610</end>
						<in>0</in>
						<out>205</out>
						<pproTicksIn>0</pproTicksIn>
						<pproTicksOut>2082931200000</pproTicksOut>
						<file id="file-112"/>
						<sourcetrack>
							<mediatype>audio</mediatype>
							<trackindex>1</trackindex>
						</sourcetrack>
						<link>
							<linkclipref>clipitem-2946</linkclipref>
							<mediatype>audio</mediatype>
							<trackindex>21</trackindex>
							<clipindex>37</clipindex>
							<groupindex>1</groupindex>
						</link>
						<link>
							<linkclipref>clipitem-3033</linkclipref>
							<mediatype>audio</mediatype>
							<trackindex>22</trackindex>
							<clipindex>35</clipindex>
							<groupindex>1</groupindex>
						</link>
						<logginginfo>
							<description></description>
							<scene></scene>
							<shottake></shottake>
							<lognote></lognote>
						</logginginfo>
						<labels>
							<label2>Caribbean</label2>
						</labels>
					</clipitem>
					<clipitem id="clipitem-2947" premiereChannelType="stereo">
						<masterclipid>masterclip-167</masterclipid>
						<name>Middles lang energisk applaus med plystring og rop.wav</name>
						<enabled>TRUE</enabled>
						<duration>243</duration>
						<rate>
							<timebase>25</timebase>
							<ntsc>FALSE</ntsc>
						</rate>
						<start>29721</start>
						<end>29964</end>
						<in>0</in>
						<out>243</out>
						<pproTicksIn>0</pproTicksIn>
						<pproTicksOut>2469035520000</pproTicksOut>
						<file id="file-163">
							<name>Middles lang energisk applaus med plystring og rop.wav</name>
							<pathurl>file://localhost/Volumes/Brakka/AdobeLager/QUIZ%20-%20brakka/RA%cc%8aSTOFF%20LYD/Publikumsreaksjoner/Fra%201998/Middles%20lang%20energisk%20applaus%20med%20plystring%20og%20rop.wav</pathurl>
							<rate>
								<timebase>30</timebase>
								<ntsc>TRUE</ntsc>
							</rate>
							<duration>291</duration>
							<timecode>
								<rate>
									<timebase>30</timebase>
									<ntsc>TRUE</ntsc>
								</rate>
								<string>14;34;34;08</string>
								<frame>1572654</frame>
								<displayformat>DF</displayformat>
								<reel>
									<name></name>
								</reel>
							</timecode>
							<media>
								<audio>
									<samplecharacteristics>
										<depth>16</depth>
										<samplerate>48000</samplerate>
									</samplecharacteristics>
									<channelcount>2</channelcount>
								</audio>
							</media>
						</file>
						<sourcetrack>
							<mediatype>audio</mediatype>
							<trackindex>1</trackindex>
						</sourcetrack>
						<link>
							<linkclipref>clipitem-2947</linkclipref>
							<mediatype>audio</mediatype>
							<trackindex>21</trackindex>
							<clipindex>38</clipindex>
							<groupindex>1</groupindex>
						</link>
						<link>
							<linkclipref>clipitem-3034</linkclipref>
							<mediatype>audio</mediatype>
							<trackindex>22</trackindex>
							<clipindex>36</clipindex>
							<groupindex>1</groupindex>
						</link>
						<logginginfo>
							<description></description>
							<scene></scene>
							<shottake></shottake>
							<lognote></lognote>
						</logginginfo>
						<labels>
							<label2>Caribbean</label2>
						</labels>
					</clipitem>
					<clipitem id="clipitem-2948" premiereChannelType="stereo">
						<masterclipid>masterclip-150</masterclipid>
						<name>Avmålt, kort HEHEHE.wav</name>
						<enabled>TRUE</enabled>
						<duration>51</duration>
						<rate>
							<timebase>25</timebase>
							<ntsc>FALSE</ntsc>
						</rate>
						<start>31496</start>
						<end>31547</end>
						<in>0</in>
						<out>51</out>
						<pproTicksIn>0</pproTicksIn>
						<pproTicksOut>518192640000</pproTicksOut>
						<file id="file-146"/>
						<sourcetrack>
							<mediatype>audio</mediatype>
							<trackindex>1</trackindex>
						</sourcetrack>
							<filter>
								<effect>
									<name>Audio Levels</name>
									<effectid>audiolevels</effectid>
									<effectcategory>audiolevels</effectcategory>
									<effecttype>audiolevels</effecttype>
									<mediatype>audio</mediatype>
									<parameter authoringApp="PremierePro">
										<parameterid>level</parameterid>
										<name>Level</name>
										<valuemin>0</valuemin>
										<valuemax>3.98109</valuemax>
										<value>0.99763</value>
									</parameter>
								</effect>
							</filter>
						<link>
							<linkclipref>clipitem-2948</linkclipref>
							<mediatype>audio</mediatype>
							<trackindex>21</trackindex>
							<clipindex>39</clipindex>
							<groupindex>1</groupindex>
						</link>
						<link>
							<linkclipref>clipitem-3035</linkclipref>
							<mediatype>audio</mediatype>
							<trackindex>22</trackindex>
							<clipindex>37</clipindex>
							<groupindex>1</groupindex>
						</link>
						<logginginfo>
							<description></description>
							<scene></scene>
							<shottake></shottake>
							<lognote></lognote>
						</logginginfo>
						<labels>
							<label2>Caribbean</label2>
						</labels>
					</clipitem>
					<clipitem id="clipitem-2949" premiereChannelType="stereo">
						<masterclipid>masterclip-118</masterclipid>
						<name>Kort spredt latter.wav</name>
						<enabled>TRUE</enabled>
						<duration>64</duration>
						<rate>
							<timebase>25</timebase>
							<ntsc>FALSE</ntsc>
						</rate>
						<start>31600</start>
						<end>31664</end>
						<in>0</in>
						<out>64</out>
						<pproTicksIn>0</pproTicksIn>
						<pproTicksOut>650280960000</pproTicksOut>
						<file id="file-114"/>
						<sourcetrack>
							<mediatype>audio</mediatype>
							<trackindex>1</trackindex>
						</sourcetrack>
							<filter>
								<effect>
									<name>Audio Levels</name>
									<effectid>audiolevels</effectid>
									<effectcategory>audiolevels</effectcategory>
									<effecttype>audiolevels</effecttype>
									<mediatype>audio</mediatype>
									<parameter authoringApp="PremierePro">
										<parameterid>level</parameterid>
										<name>Level</name>
										<valuemin>0</valuemin>
										<valuemax>3.98109</valuemax>
										<value>0.99763</value>
									</parameter>
								</effect>
							</filter>
						<link>
							<linkclipref>clipitem-2949</linkclipref>
							<mediatype>audio</mediatype>
							<trackindex>21</trackindex>
							<clipindex>40</clipindex>
							<groupindex>1</groupindex>
						</link>
						<link>
							<linkclipref>clipitem-3036</linkclipref>
							<mediatype>audio</mediatype>
							<trackindex>22</trackindex>
							<clipindex>38</clipindex>
							<groupindex>1</groupindex>
						</link>
						<logginginfo>
							<description></description>
							<scene></scene>
							<shottake></shottake>
							<lognote></lognote>
						</logginginfo>
						<labels>
							<label2>Caribbean</label2>
						</labels>
					</clipitem>
					<clipitem id="clipitem-2950" premiereChannelType="stereo">
						<masterclipid>masterclip-168</masterclipid>
						<name>Kort brå latter.wav</name>
						<enabled>TRUE</enabled>
						<duration>53</duration>
						<rate>
							<timebase>25</timebase>
							<ntsc>FALSE</ntsc>
						</rate>
						<start>31821</start>
						<end>31874</end>
						<in>0</in>
						<out>53</out>
						<pproTicksIn>0</pproTicksIn>
						<pproTicksOut>538513920000</pproTicksOut>
						<file id="file-164">
							<name>Kort brå latter.wav</name>
							<pathurl>file://localhost/Volumes/Brakka/AdobeLager/QUIZ%20-%20brakka/RA%cc%8aSTOFF%20LYD/Publikumsreaksjoner/Fra%201980/Kort%20bra%cc%8a%20latter.wav</pathurl>
							<rate>
								<timebase>30</timebase>
								<ntsc>TRUE</ntsc>
							</rate>
							<duration>64</duration>
							<timecode>
								<rate>
									<timebase>30</timebase>
									<ntsc>TRUE</ntsc>
								</rate>
								<string>13;47;16;16</string>
								<frame>1487606</frame>
								<displayformat>DF</displayformat>
								<reel>
									<name></name>
								</reel>
							</timecode>
							<media>
								<audio>
									<samplecharacteristics>
										<depth>16</depth>
										<samplerate>48000</samplerate>
									</samplecharacteristics>
									<channelcount>2</channelcount>
								</audio>
							</media>
						</file>
						<sourcetrack>
							<mediatype>audio</mediatype>
							<trackindex>1</trackindex>
						</sourcetrack>
							<filter>
								<effect>
									<name>Audio Levels</name>
									<effectid>audiolevels</effectid>
									<effectcategory>audiolevels</effectcategory>
									<effecttype>audiolevels</effecttype>
									<mediatype>audio</mediatype>
									<parameter authoringApp="PremierePro">
										<parameterid>level</parameterid>
										<name>Level</name>
										<valuemin>0</valuemin>
										<valuemax>3.98109</valuemax>
										<value>0.99763</value>
									</parameter>
								</effect>
							</filter>
						<link>
							<linkclipref>clipitem-2950</linkclipref>
							<mediatype>audio</mediatype>
							<trackindex>21</trackindex>
							<clipindex>41</clipindex>
							<groupindex>1</groupindex>
						</link>
						<link>
							<linkclipref>clipitem-3037</linkclipref>
							<mediatype>audio</mediatype>
							<trackindex>22</trackindex>
							<clipindex>39</clipindex>
							<groupindex>1</groupindex>
						</link>
						<logginginfo>
							<description></description>
							<scene></scene>
							<shottake></shottake>
							<lognote></lognote>
						</logginginfo>
						<labels>
							<label2>Caribbean</label2>
						</labels>
					</clipitem>
					<clipitem id="clipitem-2951" premiereChannelType="stereo">
						<masterclipid>masterclip-169</masterclipid>
						<name>Kort brå latter.wav</name>
						<enabled>TRUE</enabled>
						<duration>62</duration>
						<rate>
							<timebase>25</timebase>
							<ntsc>FALSE</ntsc>
						</rate>
						<start>32406</start>
						<end>32468</end>
						<in>0</in>
						<out>62</out>
						<pproTicksIn>0</pproTicksIn>
						<pproTicksOut>629959680000</pproTicksOut>
						<file id="file-165">
							<name>Kort brå latter.wav</name>
							<pathurl>file://localhost/Volumes/Brakka/AdobeLager/QUIZ%20-%20brakka/RA%cc%8aSTOFF%20LYD/Publikumsreaksjoner/Fra%201998/Kort%20bra%cc%8a%20latter.wav</pathurl>
							<rate>
								<timebase>30</timebase>
								<ntsc>TRUE</ntsc>
							</rate>
							<duration>74</duration>
							<timecode>
								<rate>
									<timebase>30</timebase>
									<ntsc>TRUE</ntsc>
								</rate>
								<string>13;17;59;05</string>
								<frame>1434939</frame>
								<displayformat>DF</displayformat>
								<reel>
									<name></name>
								</reel>
							</timecode>
							<media>
								<audio>
									<samplecharacteristics>
										<depth>16</depth>
										<samplerate>48000</samplerate>
									</samplecharacteristics>
									<channelcount>2</channelcount>
								</audio>
							</media>
						</file>
						<sourcetrack>
							<mediatype>audio</mediatype>
							<trackindex>1</trackindex>
						</sourcetrack>
							<filter>
								<effect>
									<name>Audio Levels</name>
									<effectid>audiolevels</effectid>
									<effectcategory>audiolevels</effectcategory>
									<effecttype>audiolevels</effecttype>
									<mediatype>audio</mediatype>
									<parameter authoringApp="PremierePro">
										<parameterid>level</parameterid>
										<name>Level</name>
										<valuemin>0</valuemin>
										<valuemax>3.98109</valuemax>
										<value>0.99763</value>
									</parameter>
								</effect>
							</filter>
						<link>
							<linkclipref>clipitem-2951</linkclipref>
							<mediatype>audio</mediatype>
							<trackindex>21</trackindex>
							<clipindex>42</clipindex>
							<groupindex>1</groupindex>
						</link>
						<link>
							<linkclipref>clipitem-3038</linkclipref>
							<mediatype>audio</mediatype>
							<trackindex>22</trackindex>
							<clipindex>40</clipindex>
							<groupindex>1</groupindex>
						</link>
						<logginginfo>
							<description></description>
							<scene></scene>
							<shottake></shottake>
							<lognote></lognote>
						</logginginfo>
						<labels>
							<label2>Caribbean</label2>
						</labels>
					</clipitem>
					<clipitem id="clipitem-2952" premiereChannelType="stereo">
						<masterclipid>masterclip-144</masterclipid>
						<name>Enkel, kort latter.wav</name>
						<enabled>TRUE</enabled>
						<duration>69</duration>
						<rate>
							<timebase>25</timebase>
							<ntsc>FALSE</ntsc>
						</rate>
						<start>32623</start>
						<end>32692</end>
						<in>0</in>
						<out>69</out>
						<pproTicksIn>0</pproTicksIn>
						<pproTicksOut>701084160000</pproTicksOut>
						<file id="file-140"/>
						<sourcetrack>
							<mediatype>audio</mediatype>
							<trackindex>1</trackindex>
						</sourcetrack>
							<filter>
								<effect>
									<name>Audio Levels</name>
									<effectid>audiolevels</effectid>
									<effectcategory>audiolevels</effectcategory>
									<effecttype>audiolevels</effecttype>
									<mediatype>audio</mediatype>
									<parameter authoringApp="PremierePro">
										<parameterid>level</parameterid>
										<name>Level</name>
										<valuemin>0</valuemin>
										<valuemax>3.98109</valuemax>
										<value>1.54472</value>
									</parameter>
								</effect>
							</filter>
						<link>
							<linkclipref>clipitem-2952</linkclipref>
							<mediatype>audio</mediatype>
							<trackindex>21</trackindex>
							<clipindex>43</clipindex>
							<groupindex>1</groupindex>
						</link>
						<link>
							<linkclipref>clipitem-3039</linkclipref>
							<mediatype>audio</mediatype>
							<trackindex>22</trackindex>
							<clipindex>41</clipindex>
							<groupindex>1</groupindex>
						</link>
						<logginginfo>
							<description></description>
							<scene></scene>
							<shottake></shottake>
							<lognote></lognote>
						</logginginfo>
						<labels>
							<label2>Caribbean</label2>
						</labels>
					</clipitem>
					<clipitem id="clipitem-2953" premiereChannelType="stereo">
						<masterclipid>masterclip-170</masterclipid>
						<name>Gøyal latter med medium applaus.wav</name>
						<enabled>TRUE</enabled>
						<duration>221</duration>
						<rate>
							<timebase>25</timebase>
							<ntsc>FALSE</ntsc>
						</rate>
						<start>32707</start>
						<end>32918</end>
						<in>10</in>
						<out>221</out>
						<pproTicksIn>101606400000</pproTicksIn>
						<pproTicksOut>2245501440000</pproTicksOut>
						<file id="file-166">
							<name>Gøyal latter med medium applaus.wav</name>
							<pathurl>file://localhost/Volumes/Brakka/AdobeLager/QUIZ%20-%20brakka/RA%cc%8aSTOFF%20LYD/Publikumsreaksjoner/Fra%201998/G%c3%b8yal%20latter%20med%20medium%20applaus.wav</pathurl>
							<rate>
								<timebase>30</timebase>
								<ntsc>TRUE</ntsc>
							</rate>
							<duration>265</duration>
							<timecode>
								<rate>
									<timebase>30</timebase>
									<ntsc>TRUE</ntsc>
								</rate>
								<string>12;52;56;16</string>
								<frame>1389906</frame>
								<displayformat>DF</displayformat>
								<reel>
									<name></name>
								</reel>
							</timecode>
							<media>
								<audio>
									<samplecharacteristics>
										<depth>16</depth>
										<samplerate>48000</samplerate>
									</samplecharacteristics>
									<channelcount>2</channelcount>
								</audio>
							</media>
						</file>
						<sourcetrack>
							<mediatype>audio</mediatype>
							<trackindex>1</trackindex>
						</sourcetrack>
						<link>
							<linkclipref>clipitem-2953</linkclipref>
							<mediatype>audio</mediatype>
							<trackindex>21</trackindex>
							<clipindex>44</clipindex>
							<groupindex>1</groupindex>
						</link>
						<link>
							<linkclipref>clipitem-3040</linkclipref>
							<mediatype>audio</mediatype>
							<trackindex>22</trackindex>
							<clipindex>42</clipindex>
							<groupindex>1</groupindex>
						</link>
						<logginginfo>
							<description></description>
							<scene></scene>
							<shottake></shottake>
							<lognote></lognote>
						</logginginfo>
						<labels>
							<label2>Caribbean</label2>
						</labels>
					</clipitem>
					<clipitem id="clipitem-2954" premiereChannelType="stereo">
						<masterclipid>masterclip-135</masterclipid>
						<name>Overrasket latter, applaus.wav</name>
						<enabled>TRUE</enabled>
						<duration>189</duration>
						<rate>
							<timebase>25</timebase>
							<ntsc>FALSE</ntsc>
						</rate>
						<start>33404</start>
						<end>33594</end>
						<in>0</in>
						<out>190</out>
						<pproTicksIn>0</pproTicksIn>
						<pproTicksOut>1930521600000</pproTicksOut>
						<file id="file-131"/>
						<sourcetrack>
							<mediatype>audio</mediatype>
							<trackindex>1</trackindex>
						</sourcetrack>
							<filter>
								<effect>
									<name>Audio Levels</name>
									<effectid>audiolevels</effectid>
									<effectcategory>audiolevels</effectcategory>
									<effecttype>audiolevels</effecttype>
									<mediatype>audio</mediatype>
									<parameter authoringApp="PremierePro">
										<parameterid>level</parameterid>
										<name>Level</name>
										<valuemin>0</valuemin>
										<valuemax>3.98109</valuemax>
										<value>0.99763</value>
									</parameter>
								</effect>
							</filter>
						<link>
							<linkclipref>clipitem-2954</linkclipref>
							<mediatype>audio</mediatype>
							<trackindex>21</trackindex>
							<clipindex>45</clipindex>
							<groupindex>1</groupindex>
						</link>
						<link>
							<linkclipref>clipitem-3041</linkclipref>
							<mediatype>audio</mediatype>
							<trackindex>22</trackindex>
							<clipindex>43</clipindex>
							<groupindex>1</groupindex>
						</link>
						<logginginfo>
							<description></description>
							<scene></scene>
							<shottake></shottake>
							<lognote></lognote>
						</logginginfo>
						<labels>
							<label2>Caribbean</label2>
						</labels>
					</clipitem>
					<clipitem id="clipitem-2955" premiereChannelType="stereo">
						<masterclipid>masterclip-81</masterclipid>
						<name>Appalus anerkjennende med hoi.wav</name>
						<enabled>TRUE</enabled>
						<duration>168</duration>
						<rate>
							<timebase>25</timebase>
							<ntsc>FALSE</ntsc>
						</rate>
						<start>33820</start>
						<end>33988</end>
						<in>0</in>
						<out>168</out>
						<pproTicksIn>0</pproTicksIn>
						<pproTicksOut>1706987520000</pproTicksOut>
						<file id="file-77"/>
						<sourcetrack>
							<mediatype>audio</mediatype>
							<trackindex>1</trackindex>
						</sourcetrack>
						<link>
							<linkclipref>clipitem-2955</linkclipref>
							<mediatype>audio</mediatype>
							<trackindex>21</trackindex>
							<clipindex>46</clipindex>
							<groupindex>1</groupindex>
						</link>
						<link>
							<linkclipref>clipitem-3042</linkclipref>
							<mediatype>audio</mediatype>
							<trackindex>22</trackindex>
							<clipindex>44</clipindex>
							<groupindex>1</groupindex>
						</link>
						<logginginfo>
							<description></description>
							<scene></scene>
							<shottake></shottake>
							<lognote></lognote>
						</logginginfo>
						<labels>
							<label2>Caribbean</label2>
						</labels>
					</clipitem>
					<clipitem id="clipitem-2956" premiereChannelType="stereo">
						<masterclipid>masterclip-171</masterclipid>
						<name>Kort artig latterkule.wav</name>
						<enabled>TRUE</enabled>
						<duration>72</duration>
						<rate>
							<timebase>25</timebase>
							<ntsc>FALSE</ntsc>
						</rate>
						<start>34008</start>
						<end>34080</end>
						<in>0</in>
						<out>72</out>
						<pproTicksIn>0</pproTicksIn>
						<pproTicksOut>731566080000</pproTicksOut>
						<file id="file-167">
							<name>Kort artig latterkule.wav</name>
							<pathurl>file://localhost/Volumes/Brakka/AdobeLager/QUIZ%20-%20brakka/RA%cc%8aSTOFF%20LYD/Publikumsreaksjoner/Fra%201998/Kort%20artig%20latterkule.wav</pathurl>
							<rate>
								<timebase>30</timebase>
								<ntsc>TRUE</ntsc>
							</rate>
							<duration>86</duration>
							<timecode>
								<rate>
									<timebase>30</timebase>
									<ntsc>TRUE</ntsc>
								</rate>
								<string>14;03;56;06</string>
								<frame>1517568</frame>
								<displayformat>DF</displayformat>
								<reel>
									<name></name>
								</reel>
							</timecode>
							<media>
								<audio>
									<samplecharacteristics>
										<depth>16</depth>
										<samplerate>48000</samplerate>
									</samplecharacteristics>
									<channelcount>2</channelcount>
								</audio>
							</media>
						</file>
						<sourcetrack>
							<mediatype>audio</mediatype>
							<trackindex>1</trackindex>
						</sourcetrack>
							<filter>
								<effect>
									<name>Audio Levels</name>
									<effectid>audiolevels</effectid>
									<effectcategory>audiolevels</effectcategory>
									<effecttype>audiolevels</effecttype>
									<mediatype>audio</mediatype>
									<parameter authoringApp="PremierePro">
										<parameterid>level</parameterid>
										<name>Level</name>
										<valuemin>0</valuemin>
										<valuemax>3.98109</valuemax>
										<value>0.99763</value>
									</parameter>
								</effect>
							</filter>
						<link>
							<linkclipref>clipitem-2956</linkclipref>
							<mediatype>audio</mediatype>
							<trackindex>21</trackindex>
							<clipindex>47</clipindex>
							<groupindex>1</groupindex>
						</link>
						<link>
							<linkclipref>clipitem-3043</linkclipref>
							<mediatype>audio</mediatype>
							<trackindex>22</trackindex>
							<clipindex>45</clipindex>
							<groupindex>1</groupindex>
						</link>
						<logginginfo>
							<description></description>
							<scene></scene>
							<shottake></shottake>
							<lognote></lognote>
						</logginginfo>
						<labels>
							<label2>Caribbean</label2>
						</labels>
					</clipitem>
					<clipitem id="clipitem-2957" premiereChannelType="stereo">
						<masterclipid>masterclip-90</masterclipid>
						<name>Liten behersket latter.wav</name>
						<enabled>TRUE</enabled>
						<duration>60</duration>
						<rate>
							<timebase>25</timebase>
							<ntsc>FALSE</ntsc>
						</rate>
						<start>34118</start>
						<end>34178</end>
						<in>0</in>
						<out>60</out>
						<pproTicksIn>0</pproTicksIn>
						<pproTicksOut>609638400000</pproTicksOut>
						<file id="file-86"/>
						<sourcetrack>
							<mediatype>audio</mediatype>
							<trackindex>1</trackindex>
						</sourcetrack>
						<link>
							<linkclipref>clipitem-2957</linkclipref>
							<mediatype>audio</mediatype>
							<trackindex>21</trackindex>
							<clipindex>48</clipindex>
							<groupindex>1</groupindex>
						</link>
						<link>
							<linkclipref>clipitem-3044</linkclipref>
							<mediatype>audio</mediatype>
							<trackindex>22</trackindex>
							<clipindex>46</clipindex>
							<groupindex>1</groupindex>
						</link>
						<logginginfo>
							<description></description>
							<scene></scene>
							<shottake></shottake>
							<lognote></lognote>
						</logginginfo>
						<labels>
							<label2>Caribbean</label2>
						</labels>
					</clipitem>
					<clipitem id="clipitem-2958" premiereChannelType="stereo">
						<masterclipid>masterclip-169</masterclipid>
						<name>Kort brå latter.wav</name>
						<enabled>TRUE</enabled>
						<duration>62</duration>
						<rate>
							<timebase>25</timebase>
							<ntsc>FALSE</ntsc>
						</rate>
						<start>34528</start>
						<end>34590</end>
						<in>0</in>
						<out>62</out>
						<pproTicksIn>0</pproTicksIn>
						<pproTicksOut>629959680000</pproTicksOut>
						<file id="file-165"/>
						<sourcetrack>
							<mediatype>audio</mediatype>
							<trackindex>1</trackindex>
						</sourcetrack>
							<filter>
								<effect>
									<name>Audio Levels</name>
									<effectid>audiolevels</effectid>
									<effectcategory>audiolevels</effectcategory>
									<effecttype>audiolevels</effecttype>
									<mediatype>audio</mediatype>
									<parameter authoringApp="PremierePro">
										<parameterid>level</parameterid>
										<name>Level</name>
										<valuemin>0</valuemin>
										<valuemax>3.98109</valuemax>
										<value>0.99763</value>
									</parameter>
								</effect>
							</filter>
						<link>
							<linkclipref>clipitem-2958</linkclipref>
							<mediatype>audio</mediatype>
							<trackindex>21</trackindex>
							<clipindex>49</clipindex>
							<groupindex>1</groupindex>
						</link>
						<link>
							<linkclipref>clipitem-3045</linkclipref>
							<mediatype>audio</mediatype>
							<trackindex>22</trackindex>
							<clipindex>47</clipindex>
							<groupindex>1</groupindex>
						</link>
						<logginginfo>
							<description></description>
							<scene></scene>
							<shottake></shottake>
							<lognote></lognote>
						</logginginfo>
						<labels>
							<label2>Caribbean</label2>
						</labels>
					</clipitem>
					<clipitem id="clipitem-2959" premiereChannelType="stereo">
						<masterclipid>masterclip-135</masterclipid>
						<name>Overrasket latter, applaus.wav</name>
						<enabled>TRUE</enabled>
						<duration>189</duration>
						<rate>
							<timebase>25</timebase>
							<ntsc>FALSE</ntsc>
						</rate>
						<start>34777</start>
						<end>34796</end>
						<in>0</in>
						<out>19</out>
						<pproTicksIn>0</pproTicksIn>
						<pproTicksOut>193052160000</pproTicksOut>
						<file id="file-131"/>
						<sourcetrack>
							<mediatype>audio</mediatype>
							<trackindex>1</trackindex>
						</sourcetrack>
							<filter>
								<effect>
									<name>Audio Levels</name>
									<effectid>audiolevels</effectid>
									<effectcategory>audiolevels</effectcategory>
									<effecttype>audiolevels</effecttype>
									<mediatype>audio</mediatype>
									<parameter authoringApp="PremierePro">
										<parameterid>level</parameterid>
										<name>Level</name>
										<valuemin>0</valuemin>
										<valuemax>3.98109</valuemax>
										<value>0.99763</value>
									</parameter>
								</effect>
							</filter>
						<link>
							<linkclipref>clipitem-2959</linkclipref>
							<mediatype>audio</mediatype>
							<trackindex>21</trackindex>
							<clipindex>50</clipindex>
							<groupindex>1</groupindex>
						</link>
						<link>
							<linkclipref>clipitem-3046</linkclipref>
							<mediatype>audio</mediatype>
							<trackindex>22</trackindex>
							<clipindex>48</clipindex>
							<groupindex>1</groupindex>
						</link>
						<logginginfo>
							<description></description>
							<scene></scene>
							<shottake></shottake>
							<lognote></lognote>
						</logginginfo>
						<labels>
							<label2>Caribbean</label2>
						</labels>
					</clipitem>
					<clipitem id="clipitem-2960" premiereChannelType="stereo">
						<masterclipid>masterclip-135</masterclipid>
						<name>Overrasket latter, applaus.wav</name>
						<enabled>TRUE</enabled>
						<duration>189</duration>
						<rate>
							<timebase>25</timebase>
							<ntsc>FALSE</ntsc>
						</rate>
						<start>34796</start>
						<end>34834</end>
						<in>19</in>
						<out>57</out>
						<pproTicksIn>193052160000</pproTicksIn>
						<pproTicksOut>579156480000</pproTicksOut>
						<file id="file-131"/>
						<sourcetrack>
							<mediatype>audio</mediatype>
							<trackindex>1</trackindex>
						</sourcetrack>
							<filter>
								<effect>
									<name>Audio Levels</name>
									<effectid>audiolevels</effectid>
									<effectcategory>audiolevels</effectcategory>
									<effecttype>audiolevels</effecttype>
									<mediatype>audio</mediatype>
									<parameter authoringApp="PremierePro">
										<parameterid>level</parameterid>
										<name>Level</name>
										<valuemin>0</valuemin>
										<valuemax>3.98109</valuemax>
										<value>0.99763</value>
									</parameter>
								</effect>
							</filter>
						<link>
							<linkclipref>clipitem-2960</linkclipref>
							<mediatype>audio</mediatype>
							<trackindex>21</trackindex>
							<clipindex>51</clipindex>
							<groupindex>1</groupindex>
						</link>
						<link>
							<linkclipref>clipitem-3047</linkclipref>
							<mediatype>audio</mediatype>
							<trackindex>22</trackindex>
							<clipindex>49</clipindex>
							<groupindex>1</groupindex>
						</link>
						<logginginfo>
							<description></description>
							<scene></scene>
							<shottake></shottake>
							<lognote></lognote>
						</logginginfo>
						<labels>
							<label2>Caribbean</label2>
						</labels>
					</clipitem>
					<clipitem id="clipitem-2961" premiereChannelType="stereo">
						<masterclipid>masterclip-90</masterclipid>
						<name>Liten behersket latter.wav</name>
						<enabled>TRUE</enabled>
						<duration>60</duration>
						<rate>
							<timebase>25</timebase>
							<ntsc>FALSE</ntsc>
						</rate>
						<start>34943</start>
						<end>35003</end>
						<in>0</in>
						<out>60</out>
						<pproTicksIn>0</pproTicksIn>
						<pproTicksOut>609638400000</pproTicksOut>
						<file id="file-86"/>
						<sourcetrack>
							<mediatype>audio</mediatype>
							<trackindex>1</trackindex>
						</sourcetrack>
						<link>
							<linkclipref>clipitem-2961</linkclipref>
							<mediatype>audio</mediatype>
							<trackindex>21</trackindex>
							<clipindex>52</clipindex>
							<groupindex>1</groupindex>
						</link>
						<link>
							<linkclipref>clipitem-3048</linkclipref>
							<mediatype>audio</mediatype>
							<trackindex>22</trackindex>
							<clipindex>50</clipindex>
							<groupindex>1</groupindex>
						</link>
						<logginginfo>
							<description></description>
							<scene></scene>
							<shottake></shottake>
							<lognote></lognote>
						</logginginfo>
						<labels>
							<label2>Caribbean</label2>
						</labels>
					</clipitem>
					<clipitem id="clipitem-2962" premiereChannelType="stereo">
						<masterclipid>masterclip-146</masterclipid>
						<name>Brå liten latter HÆHÆ.wav</name>
						<enabled>TRUE</enabled>
						<duration>114</duration>
						<rate>
							<timebase>25</timebase>
							<ntsc>FALSE</ntsc>
						</rate>
						<start>35278</start>
						<end>35392</end>
						<in>0</in>
						<out>114</out>
						<pproTicksIn>0</pproTicksIn>
						<pproTicksOut>1158312960000</pproTicksOut>
						<file id="file-142"/>
						<sourcetrack>
							<mediatype>audio</mediatype>
							<trackindex>1</trackindex>
						</sourcetrack>
							<filter>
								<effect>
									<name>Audio Levels</name>
									<effectid>audiolevels</effectid>
									<effectcategory>audiolevels</effectcategory>
									<effecttype>audiolevels</effecttype>
									<mediatype>audio</mediatype>
									<parameter authoringApp="PremierePro">
										<parameterid>level</parameterid>
										<name>Level</name>
										<valuemin>0</valuemin>
										<valuemax>3.98109</valuemax>
										<value>0.99763</value>
									</parameter>
								</effect>
							</filter>
						<link>
							<linkclipref>clipitem-2962</linkclipref>
							<mediatype>audio</mediatype>
							<trackindex>21</trackindex>
							<clipindex>53</clipindex>
							<groupindex>1</groupindex>
						</link>
						<link>
							<linkclipref>clipitem-3049</linkclipref>
							<mediatype>audio</mediatype>
							<trackindex>22</trackindex>
							<clipindex>51</clipindex>
							<groupindex>1</groupindex>
						</link>
						<logginginfo>
							<description></description>
							<scene></scene>
							<shottake></shottake>
							<lognote></lognote>
						</logginginfo>
						<labels>
							<label2>Caribbean</label2>
						</labels>
					</clipitem>
					<clipitem id="clipitem-2963" premiereChannelType="stereo">
						<masterclipid>masterclip-168</masterclipid>
						<name>Kort brå latter.wav</name>
						<enabled>TRUE</enabled>
						<duration>53</duration>
						<rate>
							<timebase>25</timebase>
							<ntsc>FALSE</ntsc>
						</rate>
						<start>35434</start>
						<end>35487</end>
						<in>0</in>
						<out>53</out>
						<pproTicksIn>0</pproTicksIn>
						<pproTicksOut>538513920000</pproTicksOut>
						<file id="file-164"/>
						<sourcetrack>
							<mediatype>audio</mediatype>
							<trackindex>1</trackindex>
						</sourcetrack>
							<filter>
								<effect>
									<name>Audio Levels</name>
									<effectid>audiolevels</effectid>
									<effectcategory>audiolevels</effectcategory>
									<effecttype>audiolevels</effecttype>
									<mediatype>audio</mediatype>
									<parameter authoringApp="PremierePro">
										<parameterid>level</parameterid>
										<name>Level</name>
										<valuemin>0</valuemin>
										<valuemax>3.98109</valuemax>
										<value>0.99763</value>
									</parameter>
								</effect>
							</filter>
						<link>
							<linkclipref>clipitem-2963</linkclipref>
							<mediatype>audio</mediatype>
							<trackindex>21</trackindex>
							<clipindex>54</clipindex>
							<groupindex>1</groupindex>
						</link>
						<link>
							<linkclipref>clipitem-3050</linkclipref>
							<mediatype>audio</mediatype>
							<trackindex>22</trackindex>
							<clipindex>52</clipindex>
							<groupindex>1</groupindex>
						</link>
						<logginginfo>
							<description></description>
							<scene></scene>
							<shottake></shottake>
							<lognote></lognote>
						</logginginfo>
						<labels>
							<label2>Caribbean</label2>
						</labels>
					</clipitem>
					<clipitem id="clipitem-2964" premiereChannelType="stereo">
						<masterclipid>masterclip-95</masterclipid>
						<name>Kort rask latter.wav</name>
						<enabled>TRUE</enabled>
						<duration>80</duration>
						<rate>
							<timebase>25</timebase>
							<ntsc>FALSE</ntsc>
						</rate>
						<start>35487</start>
						<end>35567</end>
						<in>0</in>
						<out>80</out>
						<pproTicksIn>0</pproTicksIn>
						<pproTicksOut>812851200000</pproTicksOut>
						<file id="file-91"/>
						<sourcetrack>
							<mediatype>audio</mediatype>
							<trackindex>1</trackindex>
						</sourcetrack>
						<link>
							<linkclipref>clipitem-2964</linkclipref>
							<mediatype>audio</mediatype>
							<trackindex>21</trackindex>
							<clipindex>55</clipindex>
							<groupindex>1</groupindex>
						</link>
						<link>
							<linkclipref>clipitem-3051</linkclipref>
							<mediatype>audio</mediatype>
							<trackindex>22</trackindex>
							<clipindex>53</clipindex>
							<groupindex>1</groupindex>
						</link>
						<logginginfo>
							<description></description>
							<scene></scene>
							<shottake></shottake>
							<lognote></lognote>
						</logginginfo>
						<labels>
							<label2>Caribbean</label2>
						</labels>
					</clipitem>
					<clipitem id="clipitem-2965" premiereChannelType="stereo">
						<masterclipid>masterclip-92</masterclipid>
						<name>Hjertelig klukklatter.wav</name>
						<enabled>TRUE</enabled>
						<duration>55</duration>
						<rate>
							<timebase>25</timebase>
							<ntsc>FALSE</ntsc>
						</rate>
						<start>35624</start>
						<end>35679</end>
						<in>0</in>
						<out>55</out>
						<pproTicksIn>0</pproTicksIn>
						<pproTicksOut>558835200000</pproTicksOut>
						<file id="file-88"/>
						<sourcetrack>
							<mediatype>audio</mediatype>
							<trackindex>1</trackindex>
						</sourcetrack>
							<filter>
								<effect>
									<name>Audio Levels</name>
									<effectid>audiolevels</effectid>
									<effectcategory>audiolevels</effectcategory>
									<effecttype>audiolevels</effecttype>
									<mediatype>audio</mediatype>
									<parameter authoringApp="PremierePro">
										<parameterid>level</parameterid>
										<name>Level</name>
										<valuemin>0</valuemin>
										<valuemax>3.98109</valuemax>
										<value>0.99763</value>
									</parameter>
								</effect>
							</filter>
						<link>
							<linkclipref>clipitem-2965</linkclipref>
							<mediatype>audio</mediatype>
							<trackindex>21</trackindex>
							<clipindex>56</clipindex>
							<groupindex>1</groupindex>
						</link>
						<link>
							<linkclipref>clipitem-3052</linkclipref>
							<mediatype>audio</mediatype>
							<trackindex>22</trackindex>
							<clipindex>54</clipindex>
							<groupindex>1</groupindex>
						</link>
						<logginginfo>
							<description></description>
							<scene></scene>
							<shottake></shottake>
							<lognote></lognote>
						</logginginfo>
						<labels>
							<label2>Caribbean</label2>
						</labels>
					</clipitem>
					<clipitem id="clipitem-2966" premiereChannelType="stereo">
						<masterclipid>masterclip-98</masterclipid>
						<name>Noen få ler kort.wav</name>
						<enabled>TRUE</enabled>
						<duration>43</duration>
						<rate>
							<timebase>25</timebase>
							<ntsc>FALSE</ntsc>
						</rate>
						<start>35828</start>
						<end>35871</end>
						<in>0</in>
						<out>43</out>
						<pproTicksIn>0</pproTicksIn>
						<pproTicksOut>436907520000</pproTicksOut>
						<file id="file-94"/>
						<sourcetrack>
							<mediatype>audio</mediatype>
							<trackindex>1</trackindex>
						</sourcetrack>
							<filter>
								<effect>
									<name>Audio Levels</name>
									<effectid>audiolevels</effectid>
									<effectcategory>audiolevels</effectcategory>
									<effecttype>audiolevels</effecttype>
									<mediatype>audio</mediatype>
									<parameter authoringApp="PremierePro">
										<parameterid>level</parameterid>
										<name>Level</name>
										<valuemin>0</valuemin>
										<valuemax>3.98109</valuemax>
										<value>0.99763</value>
									</parameter>
								</effect>
							</filter>
						<link>
							<linkclipref>clipitem-2966</linkclipref>
							<mediatype>audio</mediatype>
							<trackindex>21</trackindex>
							<clipindex>57</clipindex>
							<groupindex>1</groupindex>
						</link>
						<link>
							<linkclipref>clipitem-3053</linkclipref>
							<mediatype>audio</mediatype>
							<trackindex>22</trackindex>
							<clipindex>55</clipindex>
							<groupindex>1</groupindex>
						</link>
						<logginginfo>
							<description></description>
							<scene></scene>
							<shottake></shottake>
							<lognote></lognote>
						</logginginfo>
						<labels>
							<label2>Caribbean</label2>
						</labels>
					</clipitem>
					<clipitem id="clipitem-2967" premiereChannelType="stereo">
						<masterclipid>masterclip-168</masterclipid>
						<name>Kort brå latter.wav</name>
						<enabled>TRUE</enabled>
						<duration>53</duration>
						<rate>
							<timebase>25</timebase>
							<ntsc>FALSE</ntsc>
						</rate>
						<start>35939</start>
						<end>35992</end>
						<in>0</in>
						<out>53</out>
						<pproTicksIn>0</pproTicksIn>
						<pproTicksOut>538513920000</pproTicksOut>
						<file id="file-164"/>
						<sourcetrack>
							<mediatype>audio</mediatype>
							<trackindex>1</trackindex>
						</sourcetrack>
							<filter>
								<effect>
									<name>Audio Levels</name>
									<effectid>audiolevels</effectid>
									<effectcategory>audiolevels</effectcategory>
									<effecttype>audiolevels</effecttype>
									<mediatype>audio</mediatype>
									<parameter authoringApp="PremierePro">
										<parameterid>level</parameterid>
										<name>Level</name>
										<valuemin>0</valuemin>
										<valuemax>3.98109</valuemax>
										<value>0.99763</value>
									</parameter>
								</effect>
							</filter>
						<link>
							<linkclipref>clipitem-2967</linkclipref>
							<mediatype>audio</mediatype>
							<trackindex>21</trackindex>
							<clipindex>58</clipindex>
							<groupindex>1</groupindex>
						</link>
						<link>
							<linkclipref>clipitem-3054</linkclipref>
							<mediatype>audio</mediatype>
							<trackindex>22</trackindex>
							<clipindex>56</clipindex>
							<groupindex>1</groupindex>
						</link>
						<logginginfo>
							<description></description>
							<scene></scene>
							<shottake></shottake>
							<lognote></lognote>
						</logginginfo>
						<labels>
							<label2>Caribbean</label2>
						</labels>
					</clipitem>
					<clipitem id="clipitem-2968" premiereChannelType="stereo">
						<masterclipid>masterclip-92</masterclipid>
						<name>Hjertelig klukklatter.wav</name>
						<enabled>TRUE</enabled>
						<duration>55</duration>
						<rate>
							<timebase>25</timebase>
							<ntsc>FALSE</ntsc>
						</rate>
						<start>36116</start>
						<end>36171</end>
						<in>0</in>
						<out>55</out>
						<pproTicksIn>0</pproTicksIn>
						<pproTicksOut>558835200000</pproTicksOut>
						<file id="file-88"/>
						<sourcetrack>
							<mediatype>audio</mediatype>
							<trackindex>1</trackindex>
						</sourcetrack>
							<filter>
								<effect>
									<name>Audio Levels</name>
									<effectid>audiolevels</effectid>
									<effectcategory>audiolevels</effectcategory>
									<effecttype>audiolevels</effecttype>
									<mediatype>audio</mediatype>
									<parameter authoringApp="PremierePro">
										<parameterid>level</parameterid>
										<name>Level</name>
										<valuemin>0</valuemin>
										<valuemax>3.98109</valuemax>
										<value>0.99763</value>
									</parameter>
								</effect>
							</filter>
						<link>
							<linkclipref>clipitem-2968</linkclipref>
							<mediatype>audio</mediatype>
							<trackindex>21</trackindex>
							<clipindex>59</clipindex>
							<groupindex>1</groupindex>
						</link>
						<link>
							<linkclipref>clipitem-3055</linkclipref>
							<mediatype>audio</mediatype>
							<trackindex>22</trackindex>
							<clipindex>57</clipindex>
							<groupindex>1</groupindex>
						</link>
						<logginginfo>
							<description></description>
							<scene></scene>
							<shottake></shottake>
							<lognote></lognote>
						</logginginfo>
						<labels>
							<label2>Caribbean</label2>
						</labels>
					</clipitem>
					<clipitem id="clipitem-2969" premiereChannelType="stereo">
						<masterclipid>masterclip-98</masterclipid>
						<name>Noen få ler kort.wav</name>
						<enabled>TRUE</enabled>
						<duration>43</duration>
						<rate>
							<timebase>25</timebase>
							<ntsc>FALSE</ntsc>
						</rate>
						<start>36226</start>
						<end>36269</end>
						<in>0</in>
						<out>43</out>
						<pproTicksIn>0</pproTicksIn>
						<pproTicksOut>436907520000</pproTicksOut>
						<file id="file-94"/>
						<sourcetrack>
							<mediatype>audio</mediatype>
							<trackindex>1</trackindex>
						</sourcetrack>
							<filter>
								<effect>
									<name>Audio Levels</name>
									<effectid>audiolevels</effectid>
									<effectcategory>audiolevels</effectcategory>
									<effecttype>audiolevels</effecttype>
									<mediatype>audio</mediatype>
									<parameter authoringApp="PremierePro">
										<parameterid>level</parameterid>
										<name>Level</name>
										<valuemin>0</valuemin>
										<valuemax>3.98109</valuemax>
										<value>0.99763</value>
									</parameter>
								</effect>
							</filter>
						<link>
							<linkclipref>clipitem-2969</linkclipref>
							<mediatype>audio</mediatype>
							<trackindex>21</trackindex>
							<clipindex>60</clipindex>
							<groupindex>1</groupindex>
						</link>
						<link>
							<linkclipref>clipitem-3056</linkclipref>
							<mediatype>audio</mediatype>
							<trackindex>22</trackindex>
							<clipindex>58</clipindex>
							<groupindex>1</groupindex>
						</link>
						<logginginfo>
							<description></description>
							<scene></scene>
							<shottake></shottake>
							<lognote></lognote>
						</logginginfo>
						<labels>
							<label2>Caribbean</label2>
						</labels>
					</clipitem>
					<clipitem id="clipitem-2970" premiereChannelType="stereo">
						<masterclipid>masterclip-95</masterclipid>
						<name>Kort rask latter.wav</name>
						<enabled>TRUE</enabled>
						<duration>80</duration>
						<rate>
							<timebase>25</timebase>
							<ntsc>FALSE</ntsc>
						</rate>
						<start>36269</start>
						<end>36349</end>
						<in>0</in>
						<out>80</out>
						<pproTicksIn>0</pproTicksIn>
						<pproTicksOut>812851200000</pproTicksOut>
						<file id="file-91"/>
						<sourcetrack>
							<mediatype>audio</mediatype>
							<trackindex>1</trackindex>
						</sourcetrack>
						<link>
							<linkclipref>clipitem-2970</linkclipref>
							<mediatype>audio</mediatype>
							<trackindex>21</trackindex>
							<clipindex>61</clipindex>
							<groupindex>1</groupindex>
						</link>
						<link>
							<linkclipref>clipitem-3057</linkclipref>
							<mediatype>audio</mediatype>
							<trackindex>22</trackindex>
							<clipindex>59</clipindex>
							<groupindex>1</groupindex>
						</link>
						<logginginfo>
							<description></description>
							<scene></scene>
							<shottake></shottake>
							<lognote></lognote>
						</logginginfo>
						<labels>
							<label2>Caribbean</label2>
						</labels>
					</clipitem>
					<clipitem id="clipitem-2971" premiereChannelType="stereo">
						<masterclipid>masterclip-172</masterclipid>
						<name>Middles lang applaus, energisk med plystring.wav</name>
						<enabled>TRUE</enabled>
						<duration>166</duration>
						<rate>
							<timebase>25</timebase>
							<ntsc>FALSE</ntsc>
						</rate>
						<start>36411</start>
						<end>36524</end>
						<in>0</in>
						<out>113</out>
						<pproTicksIn>0</pproTicksIn>
						<pproTicksOut>1148152320000</pproTicksOut>
						<file id="file-168">
							<name>Middles lang applaus, energisk med plystring.wav</name>
							<pathurl>file://localhost/Volumes/Brakka/AdobeLager/QUIZ%20-%20brakka/RA%cc%8aSTOFF%20LYD/Publikumsreaksjoner/Fra%201998/Middles%20lang%20applaus,%20energisk%20med%20plystring.wav</pathurl>
							<rate>
								<timebase>30</timebase>
								<ntsc>TRUE</ntsc>
							</rate>
							<duration>199</duration>
							<timecode>
								<rate>
									<timebase>30</timebase>
									<ntsc>TRUE</ntsc>
								</rate>
								<string>13;10;18;23</string>
								<frame>1421141</frame>
								<displayformat>DF</displayformat>
								<reel>
									<name></name>
								</reel>
							</timecode>
							<media>
								<audio>
									<samplecharacteristics>
										<depth>16</depth>
										<samplerate>48000</samplerate>
									</samplecharacteristics>
									<channelcount>2</channelcount>
								</audio>
							</media>
						</file>
						<sourcetrack>
							<mediatype>audio</mediatype>
							<trackindex>1</trackindex>
						</sourcetrack>
							<filter>
								<effect>
									<name>Audio Levels</name>
									<effectid>audiolevels</effectid>
									<effectcategory>audiolevels</effectcategory>
									<effecttype>audiolevels</effecttype>
									<mediatype>audio</mediatype>
									<parameter authoringApp="PremierePro">
										<parameterid>level</parameterid>
										<name>Level</name>
										<valuemin>0</valuemin>
										<valuemax>3.98109</valuemax>
										<value>0.695987</value>
									</parameter>
								</effect>
							</filter>
						<link>
							<linkclipref>clipitem-2971</linkclipref>
							<mediatype>audio</mediatype>
							<trackindex>21</trackindex>
							<clipindex>62</clipindex>
							<groupindex>1</groupindex>
						</link>
						<link>
							<linkclipref>clipitem-3058</linkclipref>
							<mediatype>audio</mediatype>
							<trackindex>22</trackindex>
							<clipindex>60</clipindex>
							<groupindex>1</groupindex>
						</link>
						<logginginfo>
							<description></description>
							<scene></scene>
							<shottake></shottake>
							<lognote></lognote>
						</logginginfo>
						<labels>
							<label2>Caribbean</label2>
						</labels>
					</clipitem>
					<clipitem id="clipitem-2972" premiereChannelType="stereo">
						<masterclipid>masterclip-172</masterclipid>
						<name>Middles lang applaus, energisk med plystring.wav</name>
						<enabled>TRUE</enabled>
						<duration>166</duration>
						<rate>
							<timebase>25</timebase>
							<ntsc>FALSE</ntsc>
						</rate>
						<start>36524</start>
						<end>36577</end>
						<in>113</in>
						<out>166</out>
						<pproTicksIn>1148152320000</pproTicksIn>
						<pproTicksOut>1686666240000</pproTicksOut>
						<file id="file-168"/>
						<sourcetrack>
							<mediatype>audio</mediatype>
							<trackindex>1</trackindex>
						</sourcetrack>
							<filter>
								<effect>
									<name>Audio Levels</name>
									<effectid>audiolevels</effectid>
									<effectcategory>audiolevels</effectcategory>
									<effecttype>audiolevels</effecttype>
									<mediatype>audio</mediatype>
									<parameter authoringApp="PremierePro">
										<parameterid>level</parameterid>
										<name>Level</name>
										<valuemin>0</valuemin>
										<valuemax>3.98109</valuemax>
										<value>0.695987</value>
									</parameter>
								</effect>
							</filter>
						<link>
							<linkclipref>clipitem-2972</linkclipref>
							<mediatype>audio</mediatype>
							<trackindex>21</trackindex>
							<clipindex>63</clipindex>
							<groupindex>1</groupindex>
						</link>
						<link>
							<linkclipref>clipitem-3059</linkclipref>
							<mediatype>audio</mediatype>
							<trackindex>22</trackindex>
							<clipindex>61</clipindex>
							<groupindex>1</groupindex>
						</link>
						<logginginfo>
							<description></description>
							<scene></scene>
							<shottake></shottake>
							<lognote></lognote>
						</logginginfo>
						<labels>
							<label2>Caribbean</label2>
						</labels>
					</clipitem>
					<clipitem id="clipitem-2973" premiereChannelType="stereo">
						<masterclipid>masterclip-173</masterclipid>
						<name>Apollo_NJT_6_51__Change_Is_Inevitable__Kaveh_Cohen_Michael_David_Nielsen.mp3</name>
						<enabled>TRUE</enabled>
						<duration>5493</duration>
						<rate>
							<timebase>25</timebase>
							<ntsc>FALSE</ntsc>
						</rate>
						<start>37732</start>
						<end>-1</end>
						<in>1328</in>
						<out>1455</out>
						<pproTicksIn>13493329920000</pproTicksIn>
						<pproTicksOut>14783731200000</pproTicksOut>
						<file id="file-169">
							<name>Apollo_NJT_6_51__Change_Is_Inevitable__Kaveh_Cohen_Michael_David_Nielsen.mp3</name>
							<pathurl>file://localhost/Volumes/Brakka/AdobeLager/QUIZ%20-%20brakka/Arkivstoff/2005/2005%20Musikk-teppe/Apollo/Apollo_NJT_6_51__Change_Is_Inevitable__Kaveh_Cohen_Michael_David_Nielsen.mp3</pathurl>
							<rate>
								<timebase>30</timebase>
								<ntsc>TRUE</ntsc>
							</rate>
							<duration>6585</duration>
							<timecode>
								<rate>
									<timebase>30</timebase>
									<ntsc>TRUE</ntsc>
								</rate>
								<string>00;00;00;00</string>
								<frame>0</frame>
								<displayformat>DF</displayformat>
								<reel>
									<name></name>
								</reel>
							</timecode>
							<media>
								<audio>
									<samplecharacteristics>
										<depth>16</depth>
										<samplerate>48000</samplerate>
									</samplecharacteristics>
									<channelcount>2</channelcount>
								</audio>
							</media>
						</file>
						<sourcetrack>
							<mediatype>audio</mediatype>
							<trackindex>1</trackindex>
						</sourcetrack>
							<filter>
								<effect>
									<name>Audio Levels</name>
									<effectid>audiolevels</effectid>
									<effectcategory>audiolevels</effectcategory>
									<effecttype>audiolevels</effecttype>
									<mediatype>audio</mediatype>
									<parameter authoringApp="PremierePro">
										<parameterid>level</parameterid>
										<name>Level</name>
										<valuemin>0</valuemin>
										<valuemax>3.98109</valuemax>
										<value>0.099763</value>
									</parameter>
								</effect>
							</filter>
						<link>
							<linkclipref>clipitem-2973</linkclipref>
							<mediatype>audio</mediatype>
							<trackindex>21</trackindex>
							<clipindex>64</clipindex>
							<groupindex>1</groupindex>
						</link>
						<link>
							<linkclipref>clipitem-3060</linkclipref>
							<mediatype>audio</mediatype>
							<trackindex>22</trackindex>
							<clipindex>62</clipindex>
							<groupindex>1</groupindex>
						</link>
						<logginginfo>
							<description></description>
							<scene></scene>
							<shottake></shottake>
							<lognote>Epic, Action, Dramatic, Percussive, Hybrid, Modern, Gritty, Slow Burn, Heroic, Intense, Gripping, Powerful, Driving, Apocalyptic, Battle, Chase, Huge, Drums, Percussion, Guitar, Bass, Synths, Piano, Orchestra, Choir, Sound Design</lognote>
						</logginginfo>
						<labels>
							<label2>Caribbean</label2>
						</labels>
					</clipitem>
					<transitionitem>
						<start>37846</start>
						<end>37859</end>
						<alignment>center</alignment>
						<cutPointTicks>60963840000</cutPointTicks>
						<rate>
							<timebase>25</timebase>
							<ntsc>FALSE</ntsc>
						</rate>
						<effect>
							<name>Cross Fade (+3dB)</name>
							<effectid>KGAudioTransCrossFade3dB</effectid>
							<effecttype>transition</effecttype>
							<mediatype>audio</mediatype>
							<wipecode>0</wipecode>
							<wipeaccuracy>100</wipeaccuracy>
							<startratio>0</startratio>
							<endratio>1</endratio>
							<reverse>FALSE</reverse>
						</effect>
					</transitionitem>
					<clipitem id="clipitem-2974" premiereChannelType="stereo">
						<masterclipid>masterclip-173</masterclipid>
						<name>Apollo_NJT_6_51__Change_Is_Inevitable__Kaveh_Cohen_Michael_David_Nielsen.mp3</name>
						<enabled>TRUE</enabled>
						<duration>5493</duration>
						<rate>
							<timebase>25</timebase>
							<ntsc>FALSE</ntsc>
						</rate>
						<start>-1</start>
						<end>-1</end>
						<in>1442</in>
						<out>1605</out>
						<pproTicksIn>14651642880000</pproTicksIn>
						<pproTicksOut>16307827200000</pproTicksOut>
						<file id="file-169"/>
						<sourcetrack>
							<mediatype>audio</mediatype>
							<trackindex>1</trackindex>
						</sourcetrack>
							<filter>
								<effect>
									<name>Audio Levels</name>
									<effectid>audiolevels</effectid>
									<effectcategory>audiolevels</effectcategory>
									<effecttype>audiolevels</effecttype>
									<mediatype>audio</mediatype>
									<parameter authoringApp="PremierePro">
										<parameterid>level</parameterid>
										<name>Level</name>
										<valuemin>0</valuemin>
										<valuemax>3.98109</valuemax>
										<value>0.353972</value>
									</parameter>
								</effect>
							</filter>
						<link>
							<linkclipref>clipitem-2974</linkclipref>
							<mediatype>audio</mediatype>
							<trackindex>21</trackindex>
							<clipindex>66</clipindex>
							<groupindex>1</groupindex>
						</link>
						<link>
							<linkclipref>clipitem-3061</linkclipref>
							<mediatype>audio</mediatype>
							<trackindex>22</trackindex>
							<clipindex>64</clipindex>
							<groupindex>1</groupindex>
						</link>
						<logginginfo>
							<description></description>
							<scene></scene>
							<shottake></shottake>
							<lognote>Epic, Action, Dramatic, Percussive, Hybrid, Modern, Gritty, Slow Burn, Heroic, Intense, Gripping, Powerful, Driving, Apocalyptic, Battle, Chase, Huge, Drums, Percussion, Guitar, Bass, Synths, Piano, Orchestra, Choir, Sound Design</lognote>
						</logginginfo>
						<labels>
							<label2>Caribbean</label2>
						</labels>
					</clipitem>
					<transitionitem>
						<start>37996</start>
						<end>38009</end>
						<alignment>center</alignment>
						<cutPointTicks>60963840000</cutPointTicks>
						<rate>
							<timebase>25</timebase>
							<ntsc>FALSE</ntsc>
						</rate>
						<effect>
							<name>Cross Fade (+3dB)</name>
							<effectid>KGAudioTransCrossFade3dB</effectid>
							<effecttype>transition</effecttype>
							<mediatype>audio</mediatype>
							<wipecode>0</wipecode>
							<wipeaccuracy>100</wipeaccuracy>
							<startratio>0</startratio>
							<endratio>1</endratio>
							<reverse>FALSE</reverse>
						</effect>
					</transitionitem>
					<clipitem id="clipitem-2975" premiereChannelType="stereo">
						<masterclipid>masterclip-173</masterclipid>
						<name>Apollo_NJT_6_51__Change_Is_Inevitable__Kaveh_Cohen_Michael_David_Nielsen.mp3</name>
						<enabled>TRUE</enabled>
						<duration>5493</duration>
						<rate>
							<timebase>25</timebase>
							<ntsc>FALSE</ntsc>
						</rate>
						<start>-1</start>
						<end>-1</end>
						<in>1592</in>
						<out>1797</out>
						<pproTicksIn>16175738880000</pproTicksIn>
						<pproTicksOut>18258670080000</pproTicksOut>
						<file id="file-169"/>
						<sourcetrack>
							<mediatype>audio</mediatype>
							<trackindex>1</trackindex>
						</sourcetrack>
							<filter>
								<effect>
									<name>Audio Levels</name>
									<effectid>audiolevels</effectid>
									<effectcategory>audiolevels</effectcategory>
									<effecttype>audiolevels</effecttype>
									<mediatype>audio</mediatype>
									<parameter authoringApp="PremierePro">
										<parameterid>level</parameterid>
										<name>Level</name>
										<valuemin>0</valuemin>
										<valuemax>3.98109</valuemax>
										<value>0.125594</value>
									</parameter>
								</effect>
							</filter>
						<link>
							<linkclipref>clipitem-2975</linkclipref>
							<mediatype>audio</mediatype>
							<trackindex>21</trackindex>
							<clipindex>68</clipindex>
							<groupindex>1</groupindex>
						</link>
						<link>
							<linkclipref>clipitem-3062</linkclipref>
							<mediatype>audio</mediatype>
							<trackindex>22</trackindex>
							<clipindex>66</clipindex>
							<groupindex>1</groupindex>
						</link>
						<logginginfo>
							<description></description>
							<scene></scene>
							<shottake></shottake>
							<lognote>Epic, Action, Dramatic, Percussive, Hybrid, Modern, Gritty, Slow Burn, Heroic, Intense, Gripping, Powerful, Driving, Apocalyptic, Battle, Chase, Huge, Drums, Percussion, Guitar, Bass, Synths, Piano, Orchestra, Choir, Sound Design</lognote>
						</logginginfo>
						<labels>
							<label2>Caribbean</label2>
						</labels>
					</clipitem>
					<transitionitem>
						<start>38178</start>
						<end>38201</end>
						<alignment>center</alignment>
						<cutPointTicks>111767040000</cutPointTicks>
						<rate>
							<timebase>25</timebase>
							<ntsc>FALSE</ntsc>
						</rate>
						<effect>
							<name>Cross Fade (+3dB)</name>
							<effectid>KGAudioTransCrossFade3dB</effectid>
							<effecttype>transition</effecttype>
							<mediatype>audio</mediatype>
							<wipecode>0</wipecode>
							<wipeaccuracy>100</wipeaccuracy>
							<startratio>0</startratio>
							<endratio>1</endratio>
							<reverse>FALSE</reverse>
						</effect>
					</transitionitem>
					<clipitem id="clipitem-2976" premiereChannelType="stereo">
						<masterclipid>masterclip-173</masterclipid>
						<name>Apollo_NJT_6_51__Change_Is_Inevitable__Kaveh_Cohen_Michael_David_Nielsen.mp3</name>
						<enabled>TRUE</enabled>
						<duration>5493</duration>
						<rate>
							<timebase>25</timebase>
							<ntsc>FALSE</ntsc>
						</rate>
						<start>-1</start>
						<end>-1</end>
						<in>1774</in>
						<out>1858</out>
						<pproTicksIn>18024975360000</pproTicksIn>
						<pproTicksOut>18878469120000</pproTicksOut>
						<file id="file-169"/>
						<sourcetrack>
							<mediatype>audio</mediatype>
							<trackindex>1</trackindex>
						</sourcetrack>
							<filter>
								<effect>
									<name>Audio Levels</name>
									<effectid>audiolevels</effectid>
									<effectcategory>audiolevels</effectcategory>
									<effecttype>audiolevels</effecttype>
									<mediatype>audio</mediatype>
									<parameter authoringApp="PremierePro">
										<parameterid>level</parameterid>
										<name>Level</name>
										<valuemin>0</valuemin>
										<valuemax>3.98109</valuemax>
										<value>0.28117</value>
									</parameter>
								</effect>
							</filter>
						<link>
							<linkclipref>clipitem-2976</linkclipref>
							<mediatype>audio</mediatype>
							<trackindex>21</trackindex>
							<clipindex>70</clipindex>
							<groupindex>1</groupindex>
						</link>
						<link>
							<linkclipref>clipitem-3063</linkclipref>
							<mediatype>audio</mediatype>
							<trackindex>22</trackindex>
							<clipindex>68</clipindex>
							<groupindex>1</groupindex>
						</link>
						<logginginfo>
							<description></description>
							<scene></scene>
							<shottake></shottake>
							<lognote>Epic, Action, Dramatic, Percussive, Hybrid, Modern, Gritty, Slow Burn, Heroic, Intense, Gripping, Powerful, Driving, Apocalyptic, Battle, Chase, Huge, Drums, Percussion, Guitar, Bass, Synths, Piano, Orchestra, Choir, Sound Design</lognote>
						</logginginfo>
						<labels>
							<label2>Caribbean</label2>
						</labels>
					</clipitem>
					<transitionitem>
						<start>38259</start>
						<end>38262</end>
						<alignment>end-black</alignment>
						<cutPointTicks>30481920000</cutPointTicks>
						<rate>
							<timebase>25</timebase>
							<ntsc>FALSE</ntsc>
						</rate>
						<effect>
							<name>Cross Fade (+3dB)</name>
							<effectid>KGAudioTransCrossFade3dB</effectid>
							<effecttype>transition</effecttype>
							<mediatype>audio</mediatype>
							<wipecode>0</wipecode>
							<wipeaccuracy>100</wipeaccuracy>
							<startratio>0</startratio>
							<endratio>1</endratio>
							<reverse>FALSE</reverse>
						</effect>
					</transitionitem>
					<transitionitem>
						<start>38387</start>
						<end>38400</end>
						<alignment>start-black</alignment>
						<cutPointTicks>0</cutPointTicks>
						<rate>
							<timebase>25</timebase>
							<ntsc>FALSE</ntsc>
						</rate>
						<effect>
							<name>Cross Fade (+3dB)</name>
							<effectid>KGAudioTransCrossFade3dB</effectid>
							<effecttype>transition</effecttype>
							<mediatype>audio</mediatype>
							<wipecode>0</wipecode>
							<wipeaccuracy>100</wipeaccuracy>
							<startratio>0</startratio>
							<endratio>1</endratio>
							<reverse>FALSE</reverse>
						</effect>
					</transitionitem>
					<clipitem id="clipitem-2977" premiereChannelType="stereo">
						<masterclipid>masterclip-174</masterclipid>
						<name>NONRO136048CD0002 Les Champs Élysées.wav</name>
						<enabled>TRUE</enabled>
						<duration>3971</duration>
						<rate>
							<timebase>25</timebase>
							<ntsc>FALSE</ntsc>
						</rate>
						<start>-1</start>
						<end>-1</end>
						<in>664</in>
						<out>1367</out>
						<pproTicksIn>6746664960000</pproTicksIn>
						<pproTicksOut>13889594880000</pproTicksOut>
						<file id="file-170">
							<name>NONRO136048CD0002 Les Champs Élysées.wav</name>
							<pathurl>file://localhost/Volumes/Brakka/AdobeLager/QUIZ%20-%20brakka/Arkivstoff/2005/2005%20Musikk-teppe/NONRO136048CD0002%20Les%20Champs%20E%cc%81lyse%cc%81es.wav</pathurl>
							<rate>
								<timebase>30</timebase>
								<ntsc>TRUE</ntsc>
							</rate>
							<duration>4761</duration>
							<timecode>
								<rate>
									<timebase>30</timebase>
									<ntsc>TRUE</ntsc>
								</rate>
								<string>00;00;00;00</string>
								<frame>0</frame>
								<displayformat>DF</displayformat>
								<reel>
									<name></name>
								</reel>
							</timecode>
							<media>
								<audio>
									<samplecharacteristics>
										<depth>16</depth>
										<samplerate>48000</samplerate>
									</samplecharacteristics>
									<channelcount>2</channelcount>
								</audio>
							</media>
						</file>
						<sourcetrack>
							<mediatype>audio</mediatype>
							<trackindex>1</trackindex>
						</sourcetrack>
							<filter>
								<effect>
									<name>Audio Levels</name>
									<effectid>audiolevels</effectid>
									<effectcategory>audiolevels</effectcategory>
									<effecttype>audiolevels</effecttype>
									<mediatype>audio</mediatype>
									<parameter authoringApp="PremierePro">
										<parameterid>level</parameterid>
										<name>Level</name>
										<valuemin>0</valuemin>
										<valuemax>3.98109</valuemax>
										<value>0.099763</value>
									</parameter>
								</effect>
							</filter>
						<link>
							<linkclipref>clipitem-2977</linkclipref>
							<mediatype>audio</mediatype>
							<trackindex>21</trackindex>
							<clipindex>73</clipindex>
							<groupindex>1</groupindex>
						</link>
						<link>
							<linkclipref>clipitem-3064</linkclipref>
							<mediatype>audio</mediatype>
							<trackindex>22</trackindex>
							<clipindex>71</clipindex>
							<groupindex>1</groupindex>
						</link>
						<logginginfo>
							<description></description>
							<scene></scene>
							<shottake></shottake>
							<lognote>CD Track 2 archiveNo[136048014]</lognote>
						</logginginfo>
						<labels>
							<label2>Caribbean</label2>
						</labels>
					</clipitem>
					<transitionitem>
						<start>38899</start>
						<end>39090</end>
						<alignment>end-black</alignment>
						<cutPointTicks>1940682240000</cutPointTicks>
						<rate>
							<timebase>25</timebase>
							<ntsc>FALSE</ntsc>
						</rate>
						<effect>
							<name>Cross Fade (+3dB)</name>
							<effectid>KGAudioTransCrossFade3dB</effectid>
							<effecttype>transition</effecttype>
							<mediatype>audio</mediatype>
							<wipecode>0</wipecode>
							<wipeaccuracy>100</wipeaccuracy>
							<startratio>0</startratio>
							<endratio>1</endratio>
							<reverse>FALSE</reverse>
						</effect>
					</transitionitem>
					<transitionitem>
						<start>39799</start>
						<end>39851</end>
						<alignment>start-black</alignment>
						<cutPointTicks>0</cutPointTicks>
						<rate>
							<timebase>25</timebase>
							<ntsc>FALSE</ntsc>
						</rate>
						<effect>
							<name>Cross Fade (+3dB)</name>
							<effectid>KGAudioTransCrossFade3dB</effectid>
							<effecttype>transition</effecttype>
							<mediatype>audio</mediatype>
							<wipecode>0</wipecode>
							<wipeaccuracy>100</wipeaccuracy>
							<startratio>0</startratio>
							<endratio>1</endratio>
							<reverse>FALSE</reverse>
						</effect>
					</transitionitem>
					<clipitem id="clipitem-2978" premiereChannelType="stereo">
						<masterclipid>masterclip-175</masterclipid>
						<name>NONRO164516CD0001 Heia tufte! (fra reality-serie.wav</name>
						<enabled>TRUE</enabled>
						<duration>3182</duration>
						<rate>
							<timebase>25</timebase>
							<ntsc>FALSE</ntsc>
						</rate>
						<start>-1</start>
						<end>-1</end>
						<in>959</in>
						<out>1078</out>
						<pproTicksIn>9744053760000</pproTicksIn>
						<pproTicksOut>10953169920000</pproTicksOut>
						<file id="file-171">
							<name>NONRO164516CD0001 Heia tufte! (fra reality-serie.wav</name>
							<pathurl>file://localhost/Volumes/Brakka/AdobeLager/QUIZ%20-%20brakka/Arkivstoff/2005/2005%20Musikk-teppe/NONRO164516CD0001%20Heia%20tufte!%20(fra%20reality-serie.wav</pathurl>
							<rate>
								<timebase>30</timebase>
								<ntsc>TRUE</ntsc>
							</rate>
							<duration>3814</duration>
							<timecode>
								<rate>
									<timebase>30</timebase>
									<ntsc>TRUE</ntsc>
								</rate>
								<string>00;00;00;00</string>
								<frame>0</frame>
								<displayformat>DF</displayformat>
								<reel>
									<name></name>
								</reel>
							</timecode>
							<media>
								<audio>
									<samplecharacteristics>
										<depth>16</depth>
										<samplerate>48000</samplerate>
									</samplecharacteristics>
									<channelcount>2</channelcount>
								</audio>
							</media>
						</file>
						<sourcetrack>
							<mediatype>audio</mediatype>
							<trackindex>1</trackindex>
						</sourcetrack>
							<filter>
								<effect>
									<name>Audio Levels</name>
									<effectid>audiolevels</effectid>
									<effectcategory>audiolevels</effectcategory>
									<effecttype>audiolevels</effecttype>
									<mediatype>audio</mediatype>
									<parameter authoringApp="PremierePro">
										<parameterid>level</parameterid>
										<name>Level</name>
										<valuemin>0</valuemin>
										<valuemax>3.98109</valuemax>
										<value>0.28117</value>
									</parameter>
								</effect>
							</filter>
						<link>
							<linkclipref>clipitem-2978</linkclipref>
							<mediatype>audio</mediatype>
							<trackindex>21</trackindex>
							<clipindex>76</clipindex>
							<groupindex>1</groupindex>
						</link>
						<link>
							<linkclipref>clipitem-3065</linkclipref>
							<mediatype>audio</mediatype>
							<trackindex>22</trackindex>
							<clipindex>74</clipindex>
							<groupindex>1</groupindex>
						</link>
						<logginginfo>
							<description></description>
							<scene></scene>
							<shottake></shottake>
							<lognote>CD Track 1 archiveNo[164516015]</lognote>
						</logginginfo>
						<labels>
							<label2>Caribbean</label2>
						</labels>
					</clipitem>
					<transitionitem>
						<start>39895</start>
						<end>39918</end>
						<alignment>center</alignment>
						<cutPointTicks>111767040000</cutPointTicks>
						<rate>
							<timebase>25</timebase>
							<ntsc>FALSE</ntsc>
						</rate>
						<effect>
							<name>Cross Fade (+3dB)</name>
							<effectid>KGAudioTransCrossFade3dB</effectid>
							<effecttype>transition</effecttype>
							<mediatype>audio</mediatype>
							<wipecode>0</wipecode>
							<wipeaccuracy>100</wipeaccuracy>
							<startratio>0</startratio>
							<endratio>1</endratio>
							<reverse>FALSE</reverse>
						</effect>
					</transitionitem>
					<clipitem id="clipitem-2979" premiereChannelType="stereo">
						<masterclipid>masterclip-175</masterclipid>
						<name>NONRO164516CD0001 Heia tufte! (fra reality-serie.wav</name>
						<enabled>TRUE</enabled>
						<duration>3182</duration>
						<rate>
							<timebase>25</timebase>
							<ntsc>FALSE</ntsc>
						</rate>
						<start>-1</start>
						<end>-1</end>
						<in>1055</in>
						<out>1282</out>
						<pproTicksIn>10719475200000</pproTicksIn>
						<pproTicksOut>13025940480000</pproTicksOut>
						<file id="file-171"/>
						<sourcetrack>
							<mediatype>audio</mediatype>
							<trackindex>1</trackindex>
						</sourcetrack>
							<filter>
								<effect>
									<name>Audio Levels</name>
									<effectid>audiolevels</effectid>
									<effectcategory>audiolevels</effectcategory>
									<effecttype>audiolevels</effecttype>
									<mediatype>audio</mediatype>
									<parameter authoringApp="PremierePro">
										<parameterid>level</parameterid>
										<name>Level</name>
										<valuemin>0</valuemin>
										<valuemax>3.98109</valuemax>
										<value>0.0353972</value>
									</parameter>
								</effect>
							</filter>
						<link>
							<linkclipref>clipitem-2979</linkclipref>
							<mediatype>audio</mediatype>
							<trackindex>21</trackindex>
							<clipindex>78</clipindex>
							<groupindex>1</groupindex>
						</link>
						<link>
							<linkclipref>clipitem-3066</linkclipref>
							<mediatype>audio</mediatype>
							<trackindex>22</trackindex>
							<clipindex>76</clipindex>
							<groupindex>1</groupindex>
						</link>
						<logginginfo>
							<description></description>
							<scene></scene>
							<shottake></shottake>
							<lognote>CD Track 1 archiveNo[164516015]</lognote>
						</logginginfo>
						<labels>
							<label2>Caribbean</label2>
						</labels>
					</clipitem>
					<transitionitem>
						<start>40071</start>
						<end>40122</end>
						<alignment>end-black</alignment>
						<cutPointTicks>518192640000</cutPointTicks>
						<rate>
							<timebase>25</timebase>
							<ntsc>FALSE</ntsc>
						</rate>
						<effect>
							<name>Cross Fade (+3dB)</name>
							<effectid>KGAudioTransCrossFade3dB</effectid>
							<effecttype>transition</effecttype>
							<mediatype>audio</mediatype>
							<wipecode>0</wipecode>
							<wipeaccuracy>100</wipeaccuracy>
							<startratio>0</startratio>
							<endratio>1</endratio>
							<reverse>FALSE</reverse>
						</effect>
					</transitionitem>
					<transitionitem>
						<start>40218</start>
						<end>40266</end>
						<alignment>start-black</alignment>
						<cutPointTicks>0</cutPointTicks>
						<rate>
							<timebase>25</timebase>
							<ntsc>FALSE</ntsc>
						</rate>
						<effect>
							<name>Cross Fade (+3dB)</name>
							<effectid>KGAudioTransCrossFade3dB</effectid>
							<effecttype>transition</effecttype>
							<mediatype>audio</mediatype>
							<wipecode>0</wipecode>
							<wipeaccuracy>100</wipeaccuracy>
							<startratio>0</startratio>
							<endratio>1</endratio>
							<reverse>FALSE</reverse>
						</effect>
					</transitionitem>
					<clipitem id="clipitem-2980" premiereChannelType="stereo">
						<masterclipid>masterclip-175</masterclipid>
						<name>NONRO164516CD0001 Heia tufte! (fra reality-serie.wav</name>
						<enabled>TRUE</enabled>
						<duration>3182</duration>
						<rate>
							<timebase>25</timebase>
							<ntsc>FALSE</ntsc>
						</rate>
						<start>-1</start>
						<end>-1</end>
						<in>1413</in>
						<out>1655</out>
						<pproTicksIn>14356984320000</pproTicksIn>
						<pproTicksOut>16815859200000</pproTicksOut>
						<file id="file-171"/>
						<sourcetrack>
							<mediatype>audio</mediatype>
							<trackindex>1</trackindex>
						</sourcetrack>
							<filter>
								<effect>
									<name>Audio Levels</name>
									<effectid>audiolevels</effectid>
									<effectcategory>audiolevels</effectcategory>
									<effecttype>audiolevels</effecttype>
									<mediatype>audio</mediatype>
									<parameter authoringApp="PremierePro">
										<parameterid>level</parameterid>
										<name>Level</name>
										<valuemin>0</valuemin>
										<valuemax>3.98109</valuemax>
										<value>0.0629462</value>
									</parameter>
								</effect>
							</filter>
						<link>
							<linkclipref>clipitem-2980</linkclipref>
							<mediatype>audio</mediatype>
							<trackindex>21</trackindex>
							<clipindex>81</clipindex>
							<groupindex>1</groupindex>
						</link>
						<link>
							<linkclipref>clipitem-3067</linkclipref>
							<mediatype>audio</mediatype>
							<trackindex>22</trackindex>
							<clipindex>79</clipindex>
							<groupindex>1</groupindex>
						</link>
						<logginginfo>
							<description></description>
							<scene></scene>
							<shottake></shottake>
							<lognote>CD Track 1 archiveNo[164516015]</lognote>
						</logginginfo>
						<labels>
							<label2>Caribbean</label2>
						</labels>
					</clipitem>
					<transitionitem>
						<start>40431</start>
						<end>40460</end>
						<alignment>center</alignment>
						<cutPointTicks>142248960000</cutPointTicks>
						<rate>
							<timebase>25</timebase>
							<ntsc>FALSE</ntsc>
						</rate>
						<effect>
							<name>Cross Fade (+3dB)</name>
							<effectid>KGAudioTransCrossFade3dB</effectid>
							<effecttype>transition</effecttype>
							<mediatype>audio</mediatype>
							<wipecode>0</wipecode>
							<wipeaccuracy>100</wipeaccuracy>
							<startratio>0</startratio>
							<endratio>1</endratio>
							<reverse>FALSE</reverse>
						</effect>
					</transitionitem>
					<clipitem id="clipitem-2981" premiereChannelType="stereo">
						<masterclipid>masterclip-175</masterclipid>
						<name>NONRO164516CD0001 Heia tufte! (fra reality-serie.wav</name>
						<enabled>TRUE</enabled>
						<duration>3182</duration>
						<rate>
							<timebase>25</timebase>
							<ntsc>FALSE</ntsc>
						</rate>
						<start>-1</start>
						<end>40850</end>
						<in>1626</in>
						<out>2045</out>
						<pproTicksIn>16521200640000</pproTicksIn>
						<pproTicksOut>20778508800000</pproTicksOut>
						<file id="file-171"/>
						<sourcetrack>
							<mediatype>audio</mediatype>
							<trackindex>1</trackindex>
						</sourcetrack>
							<filter>
								<effect>
									<name>Audio Levels</name>
									<effectid>audiolevels</effectid>
									<effectcategory>audiolevels</effectcategory>
									<effecttype>audiolevels</effecttype>
									<mediatype>audio</mediatype>
									<parameter authoringApp="PremierePro">
										<parameterid>level</parameterid>
										<name>Level</name>
										<valuemin>0</valuemin>
										<valuemax>3.98109</valuemax>
										<value>0</value>
										<keyframe>
											<when>1693</when>
											<value>0.28117</value>
										</keyframe>
										<keyframe>
											<when>1760</when>
											<value>0.0560637</value>
										</keyframe>
										<keyframe>
											<when>1978</when>
											<value>0</value>
										</keyframe>
									</parameter>
								</effect>
							</filter>
						<link>
							<linkclipref>clipitem-2981</linkclipref>
							<mediatype>audio</mediatype>
							<trackindex>21</trackindex>
							<clipindex>83</clipindex>
							<groupindex>1</groupindex>
						</link>
						<link>
							<linkclipref>clipitem-3068</linkclipref>
							<mediatype>audio</mediatype>
							<trackindex>22</trackindex>
							<clipindex>81</clipindex>
							<groupindex>1</groupindex>
						</link>
						<logginginfo>
							<description></description>
							<scene></scene>
							<shottake></shottake>
							<lognote>CD Track 1 archiveNo[164516015]</lognote>
						</logginginfo>
						<labels>
							<label2>Caribbean</label2>
						</labels>
					</clipitem>
					<clipitem id="clipitem-2982" premiereChannelType="stereo">
						<masterclipid>masterclip-176</masterclipid>
						<name>Latter kort dempet.wav</name>
						<enabled>TRUE</enabled>
						<duration>47</duration>
						<rate>
							<timebase>25</timebase>
							<ntsc>FALSE</ntsc>
						</rate>
						<start>41074</start>
						<end>41121</end>
						<in>0</in>
						<out>47</out>
						<pproTicksIn>0</pproTicksIn>
						<pproTicksOut>477550080000</pproTicksOut>
						<file id="file-172">
							<name>Latter kort dempet.wav</name>
							<pathurl>file://localhost/Volumes/Brakka/AdobeLager/QUIZ%20-%20brakka/RA%cc%8aSTOFF%20LYD/Publikumsreaksjoner/Fra%201986/Latter%20kort%20dempet.wav</pathurl>
							<rate>
								<timebase>30</timebase>
								<ntsc>TRUE</ntsc>
							</rate>
							<duration>56</duration>
							<timecode>
								<rate>
									<timebase>30</timebase>
									<ntsc>TRUE</ntsc>
								</rate>
								<string>14;06;51;19</string>
								<frame>1522825</frame>
								<displayformat>DF</displayformat>
								<reel>
									<name></name>
								</reel>
							</timecode>
							<media>
								<audio>
									<samplecharacteristics>
										<depth>16</depth>
										<samplerate>48000</samplerate>
									</samplecharacteristics>
									<channelcount>2</channelcount>
								</audio>
							</media>
						</file>
						<sourcetrack>
							<mediatype>audio</mediatype>
							<trackindex>1</trackindex>
						</sourcetrack>
						<link>
							<linkclipref>clipitem-2982</linkclipref>
							<mediatype>audio</mediatype>
							<trackindex>21</trackindex>
							<clipindex>84</clipindex>
							<groupindex>1</groupindex>
						</link>
						<link>
							<linkclipref>clipitem-3069</linkclipref>
							<mediatype>audio</mediatype>
							<trackindex>22</trackindex>
							<clipindex>82</clipindex>
							<groupindex>1</groupindex>
						</link>
						<logginginfo>
							<description></description>
							<scene></scene>
							<shottake></shottake>
							<lognote></lognote>
						</logginginfo>
						<labels>
							<label2>Caribbean</label2>
						</labels>
					</clipitem>
					<clipitem id="clipitem-2983" premiereChannelType="stereo">
						<masterclipid>masterclip-88</masterclipid>
						<name>Latter hehehe.wav</name>
						<enabled>TRUE</enabled>
						<duration>30</duration>
						<rate>
							<timebase>25</timebase>
							<ntsc>FALSE</ntsc>
						</rate>
						<start>41305</start>
						<end>41335</end>
						<in>0</in>
						<out>30</out>
						<pproTicksIn>0</pproTicksIn>
						<pproTicksOut>304819200000</pproTicksOut>
						<file id="file-84"/>
						<sourcetrack>
							<mediatype>audio</mediatype>
							<trackindex>1</trackindex>
						</sourcetrack>
						<link>
							<linkclipref>clipitem-2983</linkclipref>
							<mediatype>audio</mediatype>
							<trackindex>21</trackindex>
							<clipindex>85</clipindex>
							<groupindex>1</groupindex>
						</link>
						<link>
							<linkclipref>clipitem-3070</linkclipref>
							<mediatype>audio</mediatype>
							<trackindex>22</trackindex>
							<clipindex>83</clipindex>
							<groupindex>1</groupindex>
						</link>
						<logginginfo>
							<description></description>
							<scene></scene>
							<shottake></shottake>
							<lognote></lognote>
						</logginginfo>
						<labels>
							<label2>Caribbean</label2>
						</labels>
					</clipitem>
					<clipitem id="clipitem-2984" premiereChannelType="stereo">
						<masterclipid>masterclip-104</masterclipid>
						<name>Latter klukking.wav</name>
						<enabled>TRUE</enabled>
						<duration>129</duration>
						<rate>
							<timebase>25</timebase>
							<ntsc>FALSE</ntsc>
						</rate>
						<start>41642</start>
						<end>41771</end>
						<in>0</in>
						<out>129</out>
						<pproTicksIn>0</pproTicksIn>
						<pproTicksOut>1310722560000</pproTicksOut>
						<file id="file-100"/>
						<sourcetrack>
							<mediatype>audio</mediatype>
							<trackindex>1</trackindex>
						</sourcetrack>
						<link>
							<linkclipref>clipitem-2984</linkclipref>
							<mediatype>audio</mediatype>
							<trackindex>21</trackindex>
							<clipindex>86</clipindex>
							<groupindex>1</groupindex>
						</link>
						<link>
							<linkclipref>clipitem-3071</linkclipref>
							<mediatype>audio</mediatype>
							<trackindex>22</trackindex>
							<clipindex>84</clipindex>
							<groupindex>1</groupindex>
						</link>
						<logginginfo>
							<description></description>
							<scene></scene>
							<shottake></shottake>
							<lognote></lognote>
						</logginginfo>
						<labels>
							<label2>Caribbean</label2>
						</labels>
					</clipitem>
					<clipitem id="clipitem-2985" premiereChannelType="stereo">
						<masterclipid>masterclip-177</masterclipid>
						<name>Applaus kraftig.wav</name>
						<enabled>TRUE</enabled>
						<duration>206</duration>
						<rate>
							<timebase>25</timebase>
							<ntsc>FALSE</ntsc>
						</rate>
						<start>41808</start>
						<end>42014</end>
						<in>0</in>
						<out>206</out>
						<pproTicksIn>0</pproTicksIn>
						<pproTicksOut>2093091840000</pproTicksOut>
						<file id="file-173">
							<name>Applaus kraftig.wav</name>
							<pathurl>file://localhost/Volumes/Brakka/AdobeLager/QUIZ%20-%20brakka/RA%cc%8aSTOFF%20LYD/Publikumsreaksjoner/Fra%201990/Applaus%20kraftig.wav</pathurl>
							<rate>
								<timebase>30</timebase>
								<ntsc>TRUE</ntsc>
							</rate>
							<duration>247</duration>
							<timecode>
								<rate>
									<timebase>30</timebase>
									<ntsc>TRUE</ntsc>
								</rate>
								<string>13;02;48;25</string>
								<frame>1407657</frame>
								<displayformat>DF</displayformat>
								<reel>
									<name></name>
								</reel>
							</timecode>
							<media>
								<audio>
									<samplecharacteristics>
										<depth>16</depth>
										<samplerate>48000</samplerate>
									</samplecharacteristics>
									<channelcount>2</channelcount>
								</audio>
							</media>
						</file>
						<sourcetrack>
							<mediatype>audio</mediatype>
							<trackindex>1</trackindex>
						</sourcetrack>
						<link>
							<linkclipref>clipitem-2985</linkclipref>
							<mediatype>audio</mediatype>
							<trackindex>21</trackindex>
							<clipindex>87</clipindex>
							<groupindex>1</groupindex>
						</link>
						<link>
							<linkclipref>clipitem-3072</linkclipref>
							<mediatype>audio</mediatype>
							<trackindex>22</trackindex>
							<clipindex>85</clipindex>
							<groupindex>1</groupindex>
						</link>
						<logginginfo>
							<description></description>
							<scene></scene>
							<shottake></shottake>
							<lognote></lognote>
						</logginginfo>
						<labels>
							<label2>Caribbean</label2>
						</labels>
					</clipitem>
					<clipitem id="clipitem-2986" premiereChannelType="stereo">
						<masterclipid>masterclip-178</masterclipid>
						<name>Latter kort med humring.wav</name>
						<enabled>TRUE</enabled>
						<duration>104</duration>
						<rate>
							<timebase>25</timebase>
							<ntsc>FALSE</ntsc>
						</rate>
						<start>42427</start>
						<end>42494</end>
						<in>37</in>
						<out>104</out>
						<pproTicksIn>375943680000</pproTicksIn>
						<pproTicksOut>1056706560000</pproTicksOut>
						<file id="file-174">
							<name>Latter kort med humring.wav</name>
							<pathurl>file://localhost/Volumes/Brakka/AdobeLager/QUIZ%20-%20brakka/RA%cc%8aSTOFF%20LYD/Publikumsreaksjoner/Fra%201990/Latter%20kort%20med%20humring.wav</pathurl>
							<rate>
								<timebase>30</timebase>
								<ntsc>TRUE</ntsc>
							</rate>
							<duration>125</duration>
							<timecode>
								<rate>
									<timebase>30</timebase>
									<ntsc>TRUE</ntsc>
								</rate>
								<string>13;00;36;23</string>
								<frame>1403699</frame>
								<displayformat>DF</displayformat>
								<reel>
									<name></name>
								</reel>
							</timecode>
							<media>
								<audio>
									<samplecharacteristics>
										<depth>16</depth>
										<samplerate>48000</samplerate>
									</samplecharacteristics>
									<channelcount>2</channelcount>
								</audio>
							</media>
						</file>
						<sourcetrack>
							<mediatype>audio</mediatype>
							<trackindex>1</trackindex>
						</sourcetrack>
						<link>
							<linkclipref>clipitem-2986</linkclipref>
							<mediatype>audio</mediatype>
							<trackindex>21</trackindex>
							<clipindex>88</clipindex>
							<groupindex>1</groupindex>
						</link>
						<link>
							<linkclipref>clipitem-3073</linkclipref>
							<mediatype>audio</mediatype>
							<trackindex>22</trackindex>
							<clipindex>86</clipindex>
							<groupindex>1</groupindex>
						</link>
						<logginginfo>
							<description></description>
							<scene></scene>
							<shottake></shottake>
							<lognote></lognote>
						</logginginfo>
						<labels>
							<label2>Caribbean</label2>
						</labels>
					</clipitem>
					<clipitem id="clipitem-2987" premiereChannelType="stereo">
						<masterclipid>masterclip-179</masterclipid>
						<name>Latter reservert går over i applaus.wav</name>
						<enabled>TRUE</enabled>
						<duration>316</duration>
						<rate>
							<timebase>25</timebase>
							<ntsc>FALSE</ntsc>
						</rate>
						<start>42955</start>
						<end>43041</end>
						<in>0</in>
						<out>86</out>
						<pproTicksIn>0</pproTicksIn>
						<pproTicksOut>873815040000</pproTicksOut>
						<file id="file-175">
							<name>Latter reservert går over i applaus.wav</name>
							<pathurl>file://localhost/Volumes/Brakka/AdobeLager/QUIZ%20-%20brakka/RA%cc%8aSTOFF%20LYD/Publikumsreaksjoner/Fra%201986/Latter%20reservert%20ga%cc%8ar%20over%20i%20applaus.wav</pathurl>
							<rate>
								<timebase>30</timebase>
								<ntsc>TRUE</ntsc>
							</rate>
							<duration>379</duration>
							<timecode>
								<rate>
									<timebase>30</timebase>
									<ntsc>TRUE</ntsc>
								</rate>
								<string>14;23;31;24</string>
								<frame>1552800</frame>
								<displayformat>DF</displayformat>
								<reel>
									<name></name>
								</reel>
							</timecode>
							<media>
								<audio>
									<samplecharacteristics>
										<depth>16</depth>
										<samplerate>48000</samplerate>
									</samplecharacteristics>
									<channelcount>2</channelcount>
								</audio>
							</media>
						</file>
						<sourcetrack>
							<mediatype>audio</mediatype>
							<trackindex>1</trackindex>
						</sourcetrack>
						<link>
							<linkclipref>clipitem-2987</linkclipref>
							<mediatype>audio</mediatype>
							<trackindex>21</trackindex>
							<clipindex>89</clipindex>
							<groupindex>1</groupindex>
						</link>
						<link>
							<linkclipref>clipitem-3074</linkclipref>
							<mediatype>audio</mediatype>
							<trackindex>22</trackindex>
							<clipindex>87</clipindex>
							<groupindex>1</groupindex>
						</link>
						<logginginfo>
							<description></description>
							<scene></scene>
							<shottake></shottake>
							<lognote></lognote>
						</logginginfo>
						<labels>
							<label2>Caribbean</label2>
						</labels>
					</clipitem>
					<clipitem id="clipitem-2988" premiereChannelType="stereo">
						<masterclipid>masterclip-176</masterclipid>
						<name>Latter kort dempet.wav</name>
						<enabled>TRUE</enabled>
						<duration>47</duration>
						<rate>
							<timebase>25</timebase>
							<ntsc>FALSE</ntsc>
						</rate>
						<start>43347</start>
						<end>43394</end>
						<in>0</in>
						<out>47</out>
						<pproTicksIn>0</pproTicksIn>
						<pproTicksOut>477550080000</pproTicksOut>
						<file id="file-172"/>
						<sourcetrack>
							<mediatype>audio</mediatype>
							<trackindex>1</trackindex>
						</sourcetrack>
						<link>
							<linkclipref>clipitem-2988</linkclipref>
							<mediatype>audio</mediatype>
							<trackindex>21</trackindex>
							<clipindex>90</clipindex>
							<groupindex>1</groupindex>
						</link>
						<link>
							<linkclipref>clipitem-3075</linkclipref>
							<mediatype>audio</mediatype>
							<trackindex>22</trackindex>
							<clipindex>88</clipindex>
							<groupindex>1</groupindex>
						</link>
						<logginginfo>
							<description></description>
							<scene></scene>
							<shottake></shottake>
							<lognote></lognote>
						</logginginfo>
						<labels>
							<label2>Caribbean</label2>
						</labels>
					</clipitem>
					<clipitem id="clipitem-2989" premiereChannelType="stereo">
						<masterclipid>masterclip-102</masterclipid>
						<name>Applaus 7 sek høflig.wav</name>
						<enabled>TRUE</enabled>
						<duration>189</duration>
						<rate>
							<timebase>25</timebase>
							<ntsc>FALSE</ntsc>
						</rate>
						<start>46501</start>
						<end>46690</end>
						<in>0</in>
						<out>189</out>
						<pproTicksIn>0</pproTicksIn>
						<pproTicksOut>1920360960000</pproTicksOut>
						<file id="file-98"/>
						<sourcetrack>
							<mediatype>audio</mediatype>
							<trackindex>1</trackindex>
						</sourcetrack>
						<link>
							<linkclipref>clipitem-2989</linkclipref>
							<mediatype>audio</mediatype>
							<trackindex>21</trackindex>
							<clipindex>91</clipindex>
							<groupindex>1</groupindex>
						</link>
						<link>
							<linkclipref>clipitem-3076</linkclipref>
							<mediatype>audio</mediatype>
							<trackindex>22</trackindex>
							<clipindex>89</clipindex>
							<groupindex>1</groupindex>
						</link>
						<logginginfo>
							<description></description>
							<scene></scene>
							<shottake></shottake>
							<lognote></lognote>
						</logginginfo>
						<labels>
							<label2>Caribbean</label2>
						</labels>
					</clipitem>
					<clipitem id="clipitem-2990" premiereChannelType="stereo">
						<masterclipid>masterclip-180</masterclipid>
						<name>Kort middels latterkule.wav</name>
						<enabled>TRUE</enabled>
						<duration>76</duration>
						<rate>
							<timebase>25</timebase>
							<ntsc>FALSE</ntsc>
						</rate>
						<start>49430</start>
						<end>49506</end>
						<in>0</in>
						<out>76</out>
						<pproTicksIn>0</pproTicksIn>
						<pproTicksOut>772208640000</pproTicksOut>
						<file id="file-176">
							<name>Kort middels latterkule.wav</name>
							<pathurl>file://localhost/Volumes/Brakka/AdobeLager/QUIZ%20-%20brakka/RA%cc%8aSTOFF%20LYD/Publikumsreaksjoner/Fra%201994/Kort%20middels%20latterkule.wav</pathurl>
							<rate>
								<timebase>30</timebase>
								<ntsc>TRUE</ntsc>
							</rate>
							<duration>91</duration>
							<timecode>
								<rate>
									<timebase>30</timebase>
									<ntsc>TRUE</ntsc>
								</rate>
								<string>14;05;32;10</string>
								<frame>1520448</frame>
								<displayformat>DF</displayformat>
								<reel>
									<name></name>
								</reel>
							</timecode>
							<media>
								<audio>
									<samplecharacteristics>
										<depth>16</depth>
										<samplerate>48000</samplerate>
									</samplecharacteristics>
									<channelcount>2</channelcount>
								</audio>
							</media>
						</file>
						<sourcetrack>
							<mediatype>audio</mediatype>
							<trackindex>1</trackindex>
						</sourcetrack>
						<link>
							<linkclipref>clipitem-2990</linkclipref>
							<mediatype>audio</mediatype>
							<trackindex>21</trackindex>
							<clipindex>92</clipindex>
							<groupindex>1</groupindex>
						</link>
						<link>
							<linkclipref>clipitem-3077</linkclipref>
							<mediatype>audio</mediatype>
							<trackindex>22</trackindex>
							<clipindex>90</clipindex>
							<groupindex>1</groupindex>
						</link>
						<logginginfo>
							<description></description>
							<scene></scene>
							<shottake></shottake>
							<lognote></lognote>
						</logginginfo>
						<labels>
							<label2>Caribbean</label2>
						</labels>
					</clipitem>
					<clipitem id="clipitem-2991" PannerCurrentValue="0" PannerKeyframes="" PannerStartKeyframe="-91445760000000000,0.,0,0,0,0,0,0" PannerIsInverted="true" PannerName="Pan" premiereChannelType="mono">
						<masterclipid>masterclip-181</masterclipid>
						<name>Whoosh%20By%2001.wav</name>
						<enabled>TRUE</enabled>
						<duration>158</duration>
						<rate>
							<timebase>25</timebase>
							<ntsc>FALSE</ntsc>
						</rate>
						<start>49757</start>
						<end>49915</end>
						<in>0</in>
						<out>158</out>
						<pproTicksIn>0</pproTicksIn>
						<pproTicksOut>1605381120000</pproTicksOut>
						<file id="file-177">
							<name>Whoosh%20By%2001.wav</name>
							<pathurl>file://localhost/Volumes/Brakka/AdobeLager/QUIZ%20-%20brakka/Musikk/Sound%20FX/Vignett/Whoosh%2520By%252001.wav</pathurl>
							<rate>
								<timebase>30</timebase>
								<ntsc>TRUE</ntsc>
							</rate>
							<duration>190</duration>
							<timecode>
								<rate>
									<timebase>30</timebase>
									<ntsc>TRUE</ntsc>
								</rate>
								<string>01;16;44;05</string>
								<frame>137987</frame>
								<displayformat>DF</displayformat>
								<reel>
									<name></name>
								</reel>
							</timecode>
							<media>
								<audio>
									<samplecharacteristics>
										<depth>16</depth>
										<samplerate>44100</samplerate>
									</samplecharacteristics>
									<channelcount>1</channelcount>
									<audiochannel>
										<sourcechannel>1</sourcechannel>
									</audiochannel>
								</audio>
							</media>
						</file>
						<sourcetrack>
							<mediatype>audio</mediatype>
							<trackindex>1</trackindex>
						</sourcetrack>
							<filter>
								<effect>
									<name>Audio Levels</name>
									<effectid>audiolevels</effectid>
									<effectcategory>audiolevels</effectcategory>
									<effecttype>audiolevels</effecttype>
									<mediatype>audio</mediatype>
									<parameter authoringApp="PremierePro">
										<parameterid>level</parameterid>
										<name>Level</name>
										<valuemin>0</valuemin>
										<valuemax>3.98109</valuemax>
										<value>0.353972</value>
									</parameter>
								</effect>
							</filter>
							<filter>
								<effect>
									<name>Audio Pan</name>
									<effectid>audiopan</effectid>
									<effectcategory>audiopan</effectcategory>
									<effecttype>audiopan</effecttype>
									<mediatype>audio</mediatype>
									<parameter authoringApp="PremierePro">
										<parameterid>pan</parameterid>
										<name>Pan</name>
										<valuemin>-1</valuemin>
										<valuemax>1</valuemax>
										<value>-1</value>
									</parameter>
								</effect>
							</filter>
						<logginginfo>
							<description></description>
							<scene></scene>
							<shottake></shottake>
							<lognote></lognote>
						</logginginfo>
						<labels>
							<label2>Caribbean</label2>
						</labels>
					</clipitem>
					<clipitem id="clipitem-2992" premiereChannelType="stereo">
						<masterclipid>masterclip-145</masterclipid>
						<name>Kort latter Hege.wav</name>
						<enabled>TRUE</enabled>
						<duration>77</duration>
						<rate>
							<timebase>25</timebase>
							<ntsc>FALSE</ntsc>
						</rate>
						<start>51164</start>
						<end>51241</end>
						<in>0</in>
						<out>77</out>
						<pproTicksIn>0</pproTicksIn>
						<pproTicksOut>782369280000</pproTicksOut>
						<file id="file-141"/>
						<sourcetrack>
							<mediatype>audio</mediatype>
							<trackindex>1</trackindex>
						</sourcetrack>
						<link>
							<linkclipref>clipitem-2992</linkclipref>
							<mediatype>audio</mediatype>
							<trackindex>21</trackindex>
							<clipindex>94</clipindex>
							<groupindex>1</groupindex>
						</link>
						<link>
							<linkclipref>clipitem-3078</linkclipref>
							<mediatype>audio</mediatype>
							<trackindex>22</trackindex>
							<clipindex>91</clipindex>
							<groupindex>1</groupindex>
						</link>
						<logginginfo>
							<description></description>
							<scene></scene>
							<shottake></shottake>
							<lognote></lognote>
						</logginginfo>
						<labels>
							<label2>Caribbean</label2>
						</labels>
					</clipitem>
					<clipitem id="clipitem-2993" premiereChannelType="stereo">
						<masterclipid>masterclip-144</masterclipid>
						<name>Enkel, kort latter.wav</name>
						<enabled>TRUE</enabled>
						<duration>69</duration>
						<rate>
							<timebase>25</timebase>
							<ntsc>FALSE</ntsc>
						</rate>
						<start>52102</start>
						<end>52171</end>
						<in>0</in>
						<out>69</out>
						<pproTicksIn>0</pproTicksIn>
						<pproTicksOut>701084160000</pproTicksOut>
						<file id="file-140"/>
						<sourcetrack>
							<mediatype>audio</mediatype>
							<trackindex>1</trackindex>
						</sourcetrack>
						<link>
							<linkclipref>clipitem-2993</linkclipref>
							<mediatype>audio</mediatype>
							<trackindex>21</trackindex>
							<clipindex>95</clipindex>
							<groupindex>1</groupindex>
						</link>
						<link>
							<linkclipref>clipitem-3079</linkclipref>
							<mediatype>audio</mediatype>
							<trackindex>22</trackindex>
							<clipindex>92</clipindex>
							<groupindex>1</groupindex>
						</link>
						<logginginfo>
							<description></description>
							<scene></scene>
							<shottake></shottake>
							<lognote></lognote>
						</logginginfo>
						<labels>
							<label2>Caribbean</label2>
						</labels>
					</clipitem>
					<clipitem id="clipitem-2994" premiereChannelType="stereo">
						<masterclipid>masterclip-151</masterclipid>
						<name>Applaus 6 sek.wav</name>
						<enabled>TRUE</enabled>
						<duration>151</duration>
						<rate>
							<timebase>25</timebase>
							<ntsc>FALSE</ntsc>
						</rate>
						<start>52628</start>
						<end>52779</end>
						<in>0</in>
						<out>151</out>
						<pproTicksIn>0</pproTicksIn>
						<pproTicksOut>1534256640000</pproTicksOut>
						<file id="file-147"/>
						<sourcetrack>
							<mediatype>audio</mediatype>
							<trackindex>1</trackindex>
						</sourcetrack>
						<link>
							<linkclipref>clipitem-2994</linkclipref>
							<mediatype>audio</mediatype>
							<trackindex>21</trackindex>
							<clipindex>96</clipindex>
							<groupindex>1</groupindex>
						</link>
						<link>
							<linkclipref>clipitem-3080</linkclipref>
							<mediatype>audio</mediatype>
							<trackindex>22</trackindex>
							<clipindex>93</clipindex>
							<groupindex>1</groupindex>
						</link>
						<logginginfo>
							<description></description>
							<scene></scene>
							<shottake></shottake>
							<lognote></lognote>
						</logginginfo>
						<labels>
							<label2>Caribbean</label2>
						</labels>
					</clipitem>
					<clipitem id="clipitem-2995" premiereChannelType="stereo">
						<masterclipid>masterclip-157</masterclipid>
						<name>Applaus med plystring 2.wav</name>
						<enabled>TRUE</enabled>
						<duration>218</duration>
						<rate>
							<timebase>25</timebase>
							<ntsc>FALSE</ntsc>
						</rate>
						<start>53090</start>
						<end>53308</end>
						<in>0</in>
						<out>218</out>
						<pproTicksIn>0</pproTicksIn>
						<pproTicksOut>2215019520000</pproTicksOut>
						<file id="file-153"/>
						<sourcetrack>
							<mediatype>audio</mediatype>
							<trackindex>1</trackindex>
						</sourcetrack>
							<filter>
								<effect>
									<name>Audio Levels</name>
									<effectid>audiolevels</effectid>
									<effectcategory>audiolevels</effectcategory>
									<effecttype>audiolevels</effecttype>
									<mediatype>audio</mediatype>
									<parameter authoringApp="PremierePro">
										<parameterid>level</parameterid>
										<name>Level</name>
										<valuemin>0</valuemin>
										<valuemax>3.98109</valuemax>
										<value>0.28117</value>
									</parameter>
								</effect>
							</filter>
						<link>
							<linkclipref>clipitem-2995</linkclipref>
							<mediatype>audio</mediatype>
							<trackindex>21</trackindex>
							<clipindex>97</clipindex>
							<groupindex>1</groupindex>
						</link>
						<link>
							<linkclipref>clipitem-3081</linkclipref>
							<mediatype>audio</mediatype>
							<trackindex>22</trackindex>
							<clipindex>94</clipindex>
							<groupindex>1</groupindex>
						</link>
						<logginginfo>
							<description></description>
							<scene></scene>
							<shottake></shottake>
							<lognote></lognote>
						</logginginfo>
						<labels>
							<label2>Caribbean</label2>
						</labels>
					</clipitem>
					<clipitem id="clipitem-2996" premiereChannelType="stereo">
						<masterclipid>masterclip-105</masterclipid>
						<name>Latter kort.wav</name>
						<enabled>TRUE</enabled>
						<duration>64</duration>
						<rate>
							<timebase>25</timebase>
							<ntsc>FALSE</ntsc>
						</rate>
						<start>53533</start>
						<end>53597</end>
						<in>0</in>
						<out>64</out>
						<pproTicksIn>0</pproTicksIn>
						<pproTicksOut>650280960000</pproTicksOut>
						<file id="file-101"/>
						<sourcetrack>
							<mediatype>audio</mediatype>
							<trackindex>1</trackindex>
						</sourcetrack>
						<link>
							<linkclipref>clipitem-2996</linkclipref>
							<mediatype>audio</mediatype>
							<trackindex>21</trackindex>
							<clipindex>98</clipindex>
							<groupindex>1</groupindex>
						</link>
						<link>
							<linkclipref>clipitem-3082</linkclipref>
							<mediatype>audio</mediatype>
							<trackindex>22</trackindex>
							<clipindex>95</clipindex>
							<groupindex>1</groupindex>
						</link>
						<logginginfo>
							<description></description>
							<scene></scene>
							<shottake></shottake>
							<lognote></lognote>
						</logginginfo>
						<labels>
							<label2>Caribbean</label2>
						</labels>
					</clipitem>
					<clipitem id="clipitem-2997" premiereChannelType="stereo">
						<masterclipid>masterclip-145</masterclipid>
						<name>Kort latter Hege.wav</name>
						<enabled>TRUE</enabled>
						<duration>77</duration>
						<rate>
							<timebase>25</timebase>
							<ntsc>FALSE</ntsc>
						</rate>
						<start>54123</start>
						<end>54200</end>
						<in>0</in>
						<out>77</out>
						<pproTicksIn>0</pproTicksIn>
						<pproTicksOut>782369280000</pproTicksOut>
						<file id="file-141"/>
						<sourcetrack>
							<mediatype>audio</mediatype>
							<trackindex>1</trackindex>
						</sourcetrack>
						<link>
							<linkclipref>clipitem-2997</linkclipref>
							<mediatype>audio</mediatype>
							<trackindex>21</trackindex>
							<clipindex>99</clipindex>
							<groupindex>1</groupindex>
						</link>
						<link>
							<linkclipref>clipitem-3083</linkclipref>
							<mediatype>audio</mediatype>
							<trackindex>22</trackindex>
							<clipindex>96</clipindex>
							<groupindex>1</groupindex>
						</link>
						<logginginfo>
							<description></description>
							<scene></scene>
							<shottake></shottake>
							<lognote></lognote>
						</logginginfo>
						<labels>
							<label2>Caribbean</label2>
						</labels>
					</clipitem>
					<clipitem id="clipitem-2998" premiereChannelType="stereo">
						<masterclipid>masterclip-102</masterclipid>
						<name>Applaus 7 sek høflig.wav</name>
						<enabled>TRUE</enabled>
						<duration>189</duration>
						<rate>
							<timebase>25</timebase>
							<ntsc>FALSE</ntsc>
						</rate>
						<start>55397</start>
						<end>55546</end>
						<in>0</in>
						<out>149</out>
						<pproTicksIn>0</pproTicksIn>
						<pproTicksOut>1513935360000</pproTicksOut>
						<file id="file-98"/>
						<sourcetrack>
							<mediatype>audio</mediatype>
							<trackindex>1</trackindex>
						</sourcetrack>
						<link>
							<linkclipref>clipitem-2998</linkclipref>
							<mediatype>audio</mediatype>
							<trackindex>21</trackindex>
							<clipindex>100</clipindex>
							<groupindex>1</groupindex>
						</link>
						<link>
							<linkclipref>clipitem-3084</linkclipref>
							<mediatype>audio</mediatype>
							<trackindex>22</trackindex>
							<clipindex>97</clipindex>
							<groupindex>1</groupindex>
						</link>
						<logginginfo>
							<description></description>
							<scene></scene>
							<shottake></shottake>
							<lognote></lognote>
						</logginginfo>
						<labels>
							<label2>Caribbean</label2>
						</labels>
					</clipitem>
					<clipitem id="clipitem-2999" premiereChannelType="stereo">
						<masterclipid>masterclip-179</masterclipid>
						<name>Latter reservert går over i applaus.wav</name>
						<enabled>TRUE</enabled>
						<duration>316</duration>
						<rate>
							<timebase>25</timebase>
							<ntsc>FALSE</ntsc>
						</rate>
						<start>56113</start>
						<end>56344</end>
						<in>86</in>
						<out>317</out>
						<pproTicksIn>873815040000</pproTicksIn>
						<pproTicksOut>3220922880000</pproTicksOut>
						<file id="file-175"/>
						<sourcetrack>
							<mediatype>audio</mediatype>
							<trackindex>1</trackindex>
						</sourcetrack>
						<link>
							<linkclipref>clipitem-2999</linkclipref>
							<mediatype>audio</mediatype>
							<trackindex>21</trackindex>
							<clipindex>101</clipindex>
							<groupindex>1</groupindex>
						</link>
						<link>
							<linkclipref>clipitem-3085</linkclipref>
							<mediatype>audio</mediatype>
							<trackindex>22</trackindex>
							<clipindex>98</clipindex>
							<groupindex>1</groupindex>
						</link>
						<logginginfo>
							<description></description>
							<scene></scene>
							<shottake></shottake>
							<lognote></lognote>
						</logginginfo>
						<labels>
							<label2>Caribbean</label2>
						</labels>
					</clipitem>
					<clipitem id="clipitem-3000" premiereChannelType="stereo">
						<masterclipid>masterclip-76</masterclipid>
						<name>Latter går over i applaus plystring brå slutt.wav</name>
						<enabled>TRUE</enabled>
						<duration>232</duration>
						<rate>
							<timebase>25</timebase>
							<ntsc>FALSE</ntsc>
						</rate>
						<start>56746</start>
						<end>56979</end>
						<in>0</in>
						<out>233</out>
						<pproTicksIn>0</pproTicksIn>
						<pproTicksOut>2367429120000</pproTicksOut>
						<file id="file-72"/>
						<sourcetrack>
							<mediatype>audio</mediatype>
							<trackindex>1</trackindex>
						</sourcetrack>
						<link>
							<linkclipref>clipitem-3000</linkclipref>
							<mediatype>audio</mediatype>
							<trackindex>21</trackindex>
							<clipindex>102</clipindex>
							<groupindex>1</groupindex>
						</link>
						<link>
							<linkclipref>clipitem-3086</linkclipref>
							<mediatype>audio</mediatype>
							<trackindex>22</trackindex>
							<clipindex>99</clipindex>
							<groupindex>1</groupindex>
						</link>
						<logginginfo>
							<description></description>
							<scene></scene>
							<shottake></shottake>
							<lognote></lognote>
						</logginginfo>
						<labels>
							<label2>Caribbean</label2>
						</labels>
					</clipitem>
					<clipitem id="clipitem-3001" premiereChannelType="stereo">
						<masterclipid>masterclip-100</masterclipid>
						<name>Latter spredt.wav</name>
						<enabled>TRUE</enabled>
						<duration>91</duration>
						<rate>
							<timebase>25</timebase>
							<ntsc>FALSE</ntsc>
						</rate>
						<start>57228</start>
						<end>57319</end>
						<in>0</in>
						<out>91</out>
						<pproTicksIn>0</pproTicksIn>
						<pproTicksOut>924618240000</pproTicksOut>
						<file id="file-96"/>
						<sourcetrack>
							<mediatype>audio</mediatype>
							<trackindex>1</trackindex>
						</sourcetrack>
							<filter>
								<effect>
									<name>Audio Levels</name>
									<effectid>audiolevels</effectid>
									<effectcategory>audiolevels</effectcategory>
									<effecttype>audiolevels</effecttype>
									<mediatype>audio</mediatype>
									<parameter authoringApp="PremierePro">
										<parameterid>level</parameterid>
										<name>Level</name>
										<valuemin>0</valuemin>
										<valuemax>3.98109</valuemax>
										<value>0.99763</value>
									</parameter>
								</effect>
							</filter>
						<link>
							<linkclipref>clipitem-3001</linkclipref>
							<mediatype>audio</mediatype>
							<trackindex>21</trackindex>
							<clipindex>103</clipindex>
							<groupindex>1</groupindex>
						</link>
						<link>
							<linkclipref>clipitem-3087</linkclipref>
							<mediatype>audio</mediatype>
							<trackindex>22</trackindex>
							<clipindex>100</clipindex>
							<groupindex>1</groupindex>
						</link>
						<logginginfo>
							<description></description>
							<scene></scene>
							<shottake></shottake>
							<lognote></lognote>
						</logginginfo>
						<labels>
							<label2>Caribbean</label2>
						</labels>
					</clipitem>
					<clipitem id="clipitem-3002" premiereChannelType="mono">
						<masterclipid>masterclip-182</masterclipid>
						<name>MAIN MIX_02.R.wav</name>
						<enabled>TRUE</enabled>
						<duration>178584</duration>
						<rate>
							<timebase>25</timebase>
							<ntsc>FALSE</ntsc>
						</rate>
						<start>57554</start>
						<end>58055</end>
						<in>163654</in>
						<out>164155</out>
						<pproTicksIn>1662829378560000</pproTicksIn>
						<pproTicksOut>1667919859200000</pproTicksOut>
						<file id="file-178">
							<name>MAIN MIX_02.R.wav</name>
							<pathurl>file://localhost/Volumes/Brakka/AdobeLager/QUIZ%20-%20brakka/RA%cc%8aSTOFF%20LYD/1992/MAIN%20MIX_02.R.wav</pathurl>
							<rate>
								<timebase>30</timebase>
								<ntsc>TRUE</ntsc>
							</rate>
							<duration>214087</duration>
							<timecode>
								<rate>
									<timebase>30</timebase>
									<ntsc>TRUE</ntsc>
								</rate>
								<string>12;53;21;24</string>
								<frame>1390662</frame>
								<displayformat>DF</displayformat>
								<reel>
									<name></name>
								</reel>
							</timecode>
							<media>
								<audio>
									<samplecharacteristics>
										<depth>16</depth>
										<samplerate>48000</samplerate>
									</samplecharacteristics>
									<channelcount>1</channelcount>
									<audiochannel>
										<sourcechannel>1</sourcechannel>
									</audiochannel>
								</audio>
							</media>
						</file>
						<sourcetrack>
							<mediatype>audio</mediatype>
							<trackindex>1</trackindex>
						</sourcetrack>
						<logginginfo>
							<description></description>
							<scene></scene>
							<shottake></shottake>
							<lognote></lognote>
						</logginginfo>
						<labels>
							<label2>Caribbean</label2>
						</labels>
					</clipitem>
					<clipitem id="clipitem-3003" premiereChannelType="mono">
						<masterclipid>masterclip-182</masterclipid>
						<name>MAIN MIX_02.R.wav</name>
						<enabled>TRUE</enabled>
						<duration>178584</duration>
						<rate>
							<timebase>25</timebase>
							<ntsc>FALSE</ntsc>
						</rate>
						<start>58055</start>
						<end>58157</end>
						<in>164206</in>
						<out>164308</out>
						<pproTicksIn>1668438051840000</pproTicksIn>
						<pproTicksOut>1669474437120000</pproTicksOut>
						<file id="file-178"/>
						<sourcetrack>
							<mediatype>audio</mediatype>
							<trackindex>1</trackindex>
						</sourcetrack>
							<filter>
								<effect>
									<name>Audio Levels</name>
									<effectid>audiolevels</effectid>
									<effectcategory>audiolevels</effectcategory>
									<effecttype>audiolevels</effecttype>
									<mediatype>audio</mediatype>
									<parameter authoringApp="PremierePro">
										<parameterid>level</parameterid>
										<name>Level</name>
										<valuemin>0</valuemin>
										<valuemax>3.98109</valuemax>
										<value>0.99763</value>
										<keyframe>
											<when>164251</when>
											<value>0.99763</value>
										</keyframe>
										<keyframe>
											<when>164289</when>
											<value>0.901085</value>
										</keyframe>
									</parameter>
								</effect>
							</filter>
						<logginginfo>
							<description></description>
							<scene></scene>
							<shottake></shottake>
							<lognote></lognote>
						</logginginfo>
						<labels>
							<label2>Caribbean</label2>
						</labels>
					</clipitem>
					<enabled>TRUE</enabled>
					<locked>FALSE</locked>
					<outputchannelindex>1</outputchannelindex>
				</track>
				<track TL.SQTrackAudioKeyframeStyle="0" TL.SQTrackShy="0" TL.SQTrackExpandedHeight="25" TL.SQTrackExpanded="0" MZ.TrackTargeted="1" PannerCurrentValue="0.5" PannerIsInverted="true" PannerStartKeyframe="-91445760000000000,0.5,0,0,0,0,0,0" PannerName="Balance" currentExplodedTrackIndex="1" totalExplodedTrackCount="2" premiereTrackType="Stereo">
					<clipitem id="clipitem-3004" premiereChannelType="stereo">
						<masterclipid>masterclip-68</masterclipid>
						<name>Super%20Jets%20Overhead%2004.wav</name>
						<enabled>TRUE</enabled>
						<duration>295</duration>
						<rate>
							<timebase>25</timebase>
							<ntsc>FALSE</ntsc>
						</rate>
						<start>66</start>
						<end>99</end>
						<in>262</in>
						<out>295</out>
						<pproTicksIn>2662087680000</pproTicksIn>
						<pproTicksOut>2997388800000</pproTicksOut>
						<file id="file-64"/>
						<sourcetrack>
							<mediatype>audio</mediatype>
							<trackindex>2</trackindex>
						</sourcetrack>
							<filter>
								<effect>
									<name>Audio Levels</name>
									<effectid>audiolevels</effectid>
									<effectcategory>audiolevels</effectcategory>
									<effecttype>audiolevels</effecttype>
									<mediatype>audio</mediatype>
									<parameter authoringApp="PremierePro">
										<parameterid>level</parameterid>
										<name>Level</name>
										<valuemin>0</valuemin>
										<valuemax>3.98109</valuemax>
										<value>0.099763</value>
									</parameter>
								</effect>
							</filter>
						<link>
							<linkclipref>clipitem-2915</linkclipref>
							<mediatype>audio</mediatype>
							<trackindex>21</trackindex>
							<clipindex>1</clipindex>
							<groupindex>1</groupindex>
						</link>
						<link>
							<linkclipref>clipitem-3004</linkclipref>
							<mediatype>audio</mediatype>
							<trackindex>22</trackindex>
							<clipindex>1</clipindex>
							<groupindex>1</groupindex>
						</link>
						<logginginfo>
							<description></description>
							<scene></scene>
							<shottake></shottake>
							<lognote></lognote>
						</logginginfo>
						<labels>
							<label2>Caribbean</label2>
						</labels>
					</clipitem>
					<clipitem id="clipitem-3005" premiereChannelType="stereo">
						<masterclipid>masterclip-157</masterclipid>
						<name>Applaus med plystring 2.wav</name>
						<enabled>TRUE</enabled>
						<duration>218</duration>
						<rate>
							<timebase>25</timebase>
							<ntsc>FALSE</ntsc>
						</rate>
						<start>330</start>
						<end>436</end>
						<in>0</in>
						<out>106</out>
						<pproTicksIn>0</pproTicksIn>
						<pproTicksOut>1077027840000</pproTicksOut>
						<file id="file-153"/>
						<sourcetrack>
							<mediatype>audio</mediatype>
							<trackindex>2</trackindex>
						</sourcetrack>
						<link>
							<linkclipref>clipitem-2917</linkclipref>
							<mediatype>audio</mediatype>
							<trackindex>21</trackindex>
							<clipindex>3</clipindex>
							<groupindex>1</groupindex>
						</link>
						<link>
							<linkclipref>clipitem-3005</linkclipref>
							<mediatype>audio</mediatype>
							<trackindex>22</trackindex>
							<clipindex>2</clipindex>
							<groupindex>1</groupindex>
						</link>
						<logginginfo>
							<description></description>
							<scene></scene>
							<shottake></shottake>
							<lognote></lognote>
						</logginginfo>
						<labels>
							<label2>Caribbean</label2>
						</labels>
					</clipitem>
					<clipitem id="clipitem-3006" premiereChannelType="stereo">
						<masterclipid>masterclip-157</masterclipid>
						<name>Applaus med plystring 2.wav</name>
						<enabled>TRUE</enabled>
						<duration>218</duration>
						<rate>
							<timebase>25</timebase>
							<ntsc>FALSE</ntsc>
						</rate>
						<start>436</start>
						<end>506</end>
						<in>148</in>
						<out>218</out>
						<pproTicksIn>1503774720000</pproTicksIn>
						<pproTicksOut>2215019520000</pproTicksOut>
						<file id="file-153"/>
						<sourcetrack>
							<mediatype>audio</mediatype>
							<trackindex>2</trackindex>
						</sourcetrack>
						<link>
							<linkclipref>clipitem-2918</linkclipref>
							<mediatype>audio</mediatype>
							<trackindex>21</trackindex>
							<clipindex>4</clipindex>
							<groupindex>1</groupindex>
						</link>
						<link>
							<linkclipref>clipitem-3006</linkclipref>
							<mediatype>audio</mediatype>
							<trackindex>22</trackindex>
							<clipindex>3</clipindex>
							<groupindex>1</groupindex>
						</link>
						<logginginfo>
							<description></description>
							<scene></scene>
							<shottake></shottake>
							<lognote></lognote>
						</logginginfo>
						<labels>
							<label2>Caribbean</label2>
						</labels>
					</clipitem>
					<clipitem id="clipitem-3007" premiereChannelType="stereo">
						<masterclipid>masterclip-2</masterclipid>
						<name>obub05000303aa-p1-060416r.mxf</name>
						<enabled>TRUE</enabled>
						<duration>6466</duration>
						<rate>
							<timebase>25</timebase>
							<ntsc>FALSE</ntsc>
						</rate>
						<start>861</start>
						<end>1094</end>
						<in>846</in>
						<out>1079</out>
						<pproTicksIn>8595901440000</pproTicksIn>
						<pproTicksOut>10963330560000</pproTicksOut>
						<file id="file-1"/>
						<sourcetrack>
							<mediatype>audio</mediatype>
							<trackindex>2</trackindex>
						</sourcetrack>
						<link>
							<linkclipref>clipitem-2919</linkclipref>
							<mediatype>audio</mediatype>
							<trackindex>21</trackindex>
							<clipindex>5</clipindex>
							<groupindex>1</groupindex>
						</link>
						<link>
							<linkclipref>clipitem-3007</linkclipref>
							<mediatype>audio</mediatype>
							<trackindex>22</trackindex>
							<clipindex>4</clipindex>
							<groupindex>1</groupindex>
						</link>
						<logginginfo>
							<description></description>
							<scene></scene>
							<shottake></shottake>
							<lognote></lognote>
						</logginginfo>
						<labels>
							<label2>Iris</label2>
						</labels>
					</clipitem>
					<clipitem id="clipitem-3008" premiereChannelType="stereo">
						<masterclipid>masterclip-161</masterclipid>
						<name>Apollo_ASPML_1011_24__Newest_Wave__Mark_Plati_(BMI).mp3</name>
						<enabled>TRUE</enabled>
						<duration>4824</duration>
						<rate>
							<timebase>25</timebase>
							<ntsc>FALSE</ntsc>
						</rate>
						<start>1236</start>
						<end>-1</end>
						<in>0</in>
						<out>150</out>
						<pproTicksIn>0</pproTicksIn>
						<pproTicksOut>1524096000000</pproTicksOut>
						<file id="file-157"/>
						<sourcetrack>
							<mediatype>audio</mediatype>
							<trackindex>2</trackindex>
						</sourcetrack>
							<filter>
								<effect>
									<name>Audio Levels</name>
									<effectid>audiolevels</effectid>
									<effectcategory>audiolevels</effectcategory>
									<effecttype>audiolevels</effecttype>
									<mediatype>audio</mediatype>
									<parameter authoringApp="PremierePro">
										<parameterid>level</parameterid>
										<name>Level</name>
										<valuemin>0</valuemin>
										<valuemax>3.98109</valuemax>
										<value>0.181676</value>
										<keyframe>
											<when>146</when>
											<value>0.181676</value>
										</keyframe>
									</parameter>
								</effect>
							</filter>
						<link>
							<linkclipref>clipitem-2920</linkclipref>
							<mediatype>audio</mediatype>
							<trackindex>21</trackindex>
							<clipindex>6</clipindex>
							<groupindex>1</groupindex>
						</link>
						<link>
							<linkclipref>clipitem-3008</linkclipref>
							<mediatype>audio</mediatype>
							<trackindex>22</trackindex>
							<clipindex>5</clipindex>
							<groupindex>1</groupindex>
						</link>
						<logginginfo>
							<description></description>
							<scene></scene>
							<shottake></shottake>
							<lognote></lognote>
						</logginginfo>
						<labels>
							<label2>Caribbean</label2>
						</labels>
					</clipitem>
					<transitionitem>
						<start>1356</start>
						<end>1386</end>
						<alignment>center</alignment>
						<cutPointTicks>152409600000</cutPointTicks>
						<rate>
							<timebase>25</timebase>
							<ntsc>FALSE</ntsc>
						</rate>
						<effect>
							<name>Cross Fade (+3dB)</name>
							<effectid>KGAudioTransCrossFade3dB</effectid>
							<effecttype>transition</effecttype>
							<mediatype>audio</mediatype>
							<wipecode>0</wipecode>
							<wipeaccuracy>100</wipeaccuracy>
							<startratio>0</startratio>
							<endratio>1</endratio>
							<reverse>FALSE</reverse>
						</effect>
					</transitionitem>
					<clipitem id="clipitem-3009" premiereChannelType="stereo">
						<masterclipid>masterclip-161</masterclipid>
						<name>Apollo_ASPML_1011_24__Newest_Wave__Mark_Plati_(BMI).mp3</name>
						<enabled>TRUE</enabled>
						<duration>4824</duration>
						<rate>
							<timebase>25</timebase>
							<ntsc>FALSE</ntsc>
						</rate>
						<start>-1</start>
						<end>1522</end>
						<in>120</in>
						<out>286</out>
						<pproTicksIn>1219276800000</pproTicksIn>
						<pproTicksOut>2905943040000</pproTicksOut>
						<file id="file-157"/>
						<sourcetrack>
							<mediatype>audio</mediatype>
							<trackindex>2</trackindex>
						</sourcetrack>
							<filter>
								<effect>
									<name>Audio Levels</name>
									<effectid>audiolevels</effectid>
									<effectcategory>audiolevels</effectcategory>
									<effecttype>audiolevels</effecttype>
									<mediatype>audio</mediatype>
									<parameter authoringApp="PremierePro">
										<parameterid>level</parameterid>
										<name>Level</name>
										<valuemin>0</valuemin>
										<valuemax>3.98109</valuemax>
										<value>0</value>
										<keyframe>
											<when>126</when>
											<value>0.463856</value>
										</keyframe>
										<keyframe>
											<when>222</when>
											<value>0.463856</value>
										</keyframe>
										<keyframe>
											<when>284</when>
											<value>0</value>
										</keyframe>
									</parameter>
								</effect>
							</filter>
						<link>
							<linkclipref>clipitem-2921</linkclipref>
							<mediatype>audio</mediatype>
							<trackindex>21</trackindex>
							<clipindex>8</clipindex>
							<groupindex>1</groupindex>
						</link>
						<link>
							<linkclipref>clipitem-3009</linkclipref>
							<mediatype>audio</mediatype>
							<trackindex>22</trackindex>
							<clipindex>7</clipindex>
							<groupindex>1</groupindex>
						</link>
						<logginginfo>
							<description></description>
							<scene></scene>
							<shottake></shottake>
							<lognote></lognote>
						</logginginfo>
						<labels>
							<label2>Caribbean</label2>
						</labels>
					</clipitem>
					<clipitem id="clipitem-3010" premiereChannelType="stereo">
						<masterclipid>masterclip-162</masterclipid>
						<name>Apollo_DIN_6_40__Domenico_Zipoli_-_Verso_in_E_minor_-_Sonate_dIntavolatura_-_No_1__Andy_Grainger.mp3</name>
						<enabled>TRUE</enabled>
						<duration>1604</duration>
						<rate>
							<timebase>25</timebase>
							<ntsc>FALSE</ntsc>
						</rate>
						<start>1927</start>
						<end>-1</end>
						<in>0</in>
						<out>270</out>
						<pproTicksIn>0</pproTicksIn>
						<pproTicksOut>2743372800000</pproTicksOut>
						<file id="file-158"/>
						<sourcetrack>
							<mediatype>audio</mediatype>
							<trackindex>2</trackindex>
						</sourcetrack>
							<filter>
								<effect>
									<name>Audio Levels</name>
									<effectid>audiolevels</effectid>
									<effectcategory>audiolevels</effectcategory>
									<effecttype>audiolevels</effecttype>
									<mediatype>audio</mediatype>
									<parameter authoringApp="PremierePro">
										<parameterid>level</parameterid>
										<name>Level</name>
										<valuemin>0</valuemin>
										<valuemax>3.98109</valuemax>
										<value>0.099763</value>
									</parameter>
								</effect>
							</filter>
						<link>
							<linkclipref>clipitem-2922</linkclipref>
							<mediatype>audio</mediatype>
							<trackindex>21</trackindex>
							<clipindex>9</clipindex>
							<groupindex>1</groupindex>
						</link>
						<link>
							<linkclipref>clipitem-3010</linkclipref>
							<mediatype>audio</mediatype>
							<trackindex>22</trackindex>
							<clipindex>8</clipindex>
							<groupindex>1</groupindex>
						</link>
						<logginginfo>
							<description></description>
							<scene></scene>
							<shottake></shottake>
							<lognote></lognote>
						</logginginfo>
						<labels>
							<label2>Caribbean</label2>
						</labels>
					</clipitem>
					<transitionitem>
						<start>2144</start>
						<end>2197</end>
						<alignment>end-black</alignment>
						<cutPointTicks>538513920000</cutPointTicks>
						<rate>
							<timebase>25</timebase>
							<ntsc>FALSE</ntsc>
						</rate>
						<effect>
							<name>Cross Fade (+3dB)</name>
							<effectid>KGAudioTransCrossFade3dB</effectid>
							<effecttype>transition</effecttype>
							<mediatype>audio</mediatype>
							<wipecode>0</wipecode>
							<wipeaccuracy>100</wipeaccuracy>
							<startratio>0</startratio>
							<endratio>1</endratio>
							<reverse>FALSE</reverse>
						</effect>
					</transitionitem>
					<transitionitem>
						<start>3079</start>
						<end>3092</end>
						<alignment>start-black</alignment>
						<cutPointTicks>0</cutPointTicks>
						<rate>
							<timebase>25</timebase>
							<ntsc>FALSE</ntsc>
						</rate>
						<effect>
							<name>Cross Fade (+3dB)</name>
							<effectid>KGAudioTransCrossFade3dB</effectid>
							<effecttype>transition</effecttype>
							<mediatype>audio</mediatype>
							<wipecode>0</wipecode>
							<wipeaccuracy>100</wipeaccuracy>
							<startratio>0</startratio>
							<endratio>1</endratio>
							<reverse>FALSE</reverse>
						</effect>
					</transitionitem>
					<clipitem id="clipitem-3011" premiereChannelType="stereo">
						<masterclipid>masterclip-163</masterclipid>
						<name>Apollo_DWCD_182_12__COURT_OF_APPEAL__IVOR_SLANEY.mp3</name>
						<enabled>TRUE</enabled>
						<duration>1846</duration>
						<rate>
							<timebase>25</timebase>
							<ntsc>FALSE</ntsc>
						</rate>
						<start>-1</start>
						<end>-1</end>
						<in>238</in>
						<out>737</out>
						<pproTicksIn>2418232320000</pproTicksIn>
						<pproTicksOut>7488391680000</pproTicksOut>
						<file id="file-159"/>
						<sourcetrack>
							<mediatype>audio</mediatype>
							<trackindex>2</trackindex>
						</sourcetrack>
							<filter>
								<effect>
									<name>Audio Levels</name>
									<effectid>audiolevels</effectid>
									<effectcategory>audiolevels</effectcategory>
									<effecttype>audiolevels</effecttype>
									<mediatype>audio</mediatype>
									<parameter authoringApp="PremierePro">
										<parameterid>level</parameterid>
										<name>Level</name>
										<valuemin>0</valuemin>
										<valuemax>3.98109</valuemax>
										<value>0.177406</value>
									</parameter>
								</effect>
							</filter>
						<link>
							<linkclipref>clipitem-2923</linkclipref>
							<mediatype>audio</mediatype>
							<trackindex>21</trackindex>
							<clipindex>12</clipindex>
							<groupindex>1</groupindex>
						</link>
						<link>
							<linkclipref>clipitem-3011</linkclipref>
							<mediatype>audio</mediatype>
							<trackindex>22</trackindex>
							<clipindex>11</clipindex>
							<groupindex>1</groupindex>
						</link>
						<logginginfo>
							<description></description>
							<scene></scene>
							<shottake></shottake>
							<lognote></lognote>
						</logginginfo>
						<labels>
							<label2>Caribbean</label2>
						</labels>
					</clipitem>
					<transitionitem>
						<start>3539</start>
						<end>3578</end>
						<alignment>end-black</alignment>
						<cutPointTicks>396264960000</cutPointTicks>
						<rate>
							<timebase>25</timebase>
							<ntsc>FALSE</ntsc>
						</rate>
						<effect>
							<name>Cross Fade (+3dB)</name>
							<effectid>KGAudioTransCrossFade3dB</effectid>
							<effecttype>transition</effecttype>
							<mediatype>audio</mediatype>
							<wipecode>0</wipecode>
							<wipeaccuracy>100</wipeaccuracy>
							<startratio>0</startratio>
							<endratio>1</endratio>
							<reverse>FALSE</reverse>
						</effect>
					</transitionitem>
					<clipitem id="clipitem-3012" premiereChannelType="stereo">
						<masterclipid>masterclip-152</masterclipid>
						<name>Apollo_DIN_31_241__Water_Slide_Slip__Joel_P.W._Dean.mp3</name>
						<enabled>TRUE</enabled>
						<duration>386</duration>
						<rate>
							<timebase>25</timebase>
							<ntsc>FALSE</ntsc>
						</rate>
						<start>4119</start>
						<end>4505</end>
						<in>0</in>
						<out>386</out>
						<pproTicksIn>0</pproTicksIn>
						<pproTicksOut>3922007040000</pproTicksOut>
						<file id="file-148"/>
						<sourcetrack>
							<mediatype>audio</mediatype>
							<trackindex>2</trackindex>
						</sourcetrack>
							<filter>
								<effect>
									<name>Audio Levels</name>
									<effectid>audiolevels</effectid>
									<effectcategory>audiolevels</effectcategory>
									<effecttype>audiolevels</effecttype>
									<mediatype>audio</mediatype>
									<parameter authoringApp="PremierePro">
										<parameterid>level</parameterid>
										<name>Level</name>
										<valuemin>0</valuemin>
										<valuemax>3.98109</valuemax>
										<value>0.099763</value>
									</parameter>
								</effect>
							</filter>
						<link>
							<linkclipref>clipitem-2924</linkclipref>
							<mediatype>audio</mediatype>
							<trackindex>21</trackindex>
							<clipindex>14</clipindex>
							<groupindex>1</groupindex>
						</link>
						<link>
							<linkclipref>clipitem-3012</linkclipref>
							<mediatype>audio</mediatype>
							<trackindex>22</trackindex>
							<clipindex>13</clipindex>
							<groupindex>1</groupindex>
						</link>
						<logginginfo>
							<description></description>
							<scene></scene>
							<shottake></shottake>
							<lognote></lognote>
						</logginginfo>
						<labels>
							<label2>Caribbean</label2>
						</labels>
					</clipitem>
					<clipitem id="clipitem-3013" premiereChannelType="stereo">
						<masterclipid>masterclip-164</masterclipid>
						<name>Lang applaus.wav</name>
						<enabled>TRUE</enabled>
						<duration>466</duration>
						<rate>
							<timebase>25</timebase>
							<ntsc>FALSE</ntsc>
						</rate>
						<start>4809</start>
						<end>-1</end>
						<in>0</in>
						<out>109</out>
						<pproTicksIn>0</pproTicksIn>
						<pproTicksOut>1107509760000</pproTicksOut>
						<file id="file-160"/>
						<sourcetrack>
							<mediatype>audio</mediatype>
							<trackindex>2</trackindex>
						</sourcetrack>
						<link>
							<linkclipref>clipitem-2925</linkclipref>
							<mediatype>audio</mediatype>
							<trackindex>21</trackindex>
							<clipindex>15</clipindex>
							<groupindex>1</groupindex>
						</link>
						<link>
							<linkclipref>clipitem-3013</linkclipref>
							<mediatype>audio</mediatype>
							<trackindex>22</trackindex>
							<clipindex>14</clipindex>
							<groupindex>1</groupindex>
						</link>
						<logginginfo>
							<description></description>
							<scene></scene>
							<shottake></shottake>
							<lognote></lognote>
						</logginginfo>
						<labels>
							<label2>Caribbean</label2>
						</labels>
					</clipitem>
					<transitionitem>
						<start>4905</start>
						<end>4918</end>
						<alignment>end-black</alignment>
						<cutPointTicks>132088320000</cutPointTicks>
						<rate>
							<timebase>25</timebase>
							<ntsc>FALSE</ntsc>
						</rate>
						<effect>
							<name>Cross Fade (+3dB)</name>
							<effectid>KGAudioTransCrossFade3dB</effectid>
							<effecttype>transition</effecttype>
							<mediatype>audio</mediatype>
							<wipecode>0</wipecode>
							<wipeaccuracy>100</wipeaccuracy>
							<startratio>0</startratio>
							<endratio>1</endratio>
							<reverse>FALSE</reverse>
						</effect>
					</transitionitem>
					<clipitem id="clipitem-3014" premiereChannelType="stereo">
						<masterclipid>masterclip-139</masterclipid>
						<name>Applaus, litt plystring.wav</name>
						<enabled>TRUE</enabled>
						<duration>177</duration>
						<rate>
							<timebase>25</timebase>
							<ntsc>FALSE</ntsc>
						</rate>
						<start>5249</start>
						<end>5340</end>
						<in>0</in>
						<out>91</out>
						<pproTicksIn>0</pproTicksIn>
						<pproTicksOut>924618240000</pproTicksOut>
						<file id="file-135"/>
						<sourcetrack>
							<mediatype>audio</mediatype>
							<trackindex>2</trackindex>
						</sourcetrack>
						<link>
							<linkclipref>clipitem-2926</linkclipref>
							<mediatype>audio</mediatype>
							<trackindex>21</trackindex>
							<clipindex>17</clipindex>
							<groupindex>1</groupindex>
						</link>
						<link>
							<linkclipref>clipitem-3014</linkclipref>
							<mediatype>audio</mediatype>
							<trackindex>22</trackindex>
							<clipindex>16</clipindex>
							<groupindex>1</groupindex>
						</link>
						<logginginfo>
							<description></description>
							<scene></scene>
							<shottake></shottake>
							<lognote></lognote>
						</logginginfo>
						<labels>
							<label2>Caribbean</label2>
						</labels>
					</clipitem>
					<clipitem id="clipitem-3015" premiereChannelType="stereo">
						<masterclipid>masterclip-139</masterclipid>
						<name>Applaus, litt plystring.wav</name>
						<enabled>TRUE</enabled>
						<duration>177</duration>
						<rate>
							<timebase>25</timebase>
							<ntsc>FALSE</ntsc>
						</rate>
						<start>5340</start>
						<end>5352</end>
						<in>91</in>
						<out>103</out>
						<pproTicksIn>924618240000</pproTicksIn>
						<pproTicksOut>1046545920000</pproTicksOut>
						<file id="file-135"/>
						<sourcetrack>
							<mediatype>audio</mediatype>
							<trackindex>2</trackindex>
						</sourcetrack>
						<link>
							<linkclipref>clipitem-2927</linkclipref>
							<mediatype>audio</mediatype>
							<trackindex>21</trackindex>
							<clipindex>18</clipindex>
							<groupindex>1</groupindex>
						</link>
						<link>
							<linkclipref>clipitem-3015</linkclipref>
							<mediatype>audio</mediatype>
							<trackindex>22</trackindex>
							<clipindex>17</clipindex>
							<groupindex>1</groupindex>
						</link>
						<logginginfo>
							<description></description>
							<scene></scene>
							<shottake></shottake>
							<lognote></lognote>
						</logginginfo>
						<labels>
							<label2>Caribbean</label2>
						</labels>
					</clipitem>
					<clipitem id="clipitem-3016" premiereChannelType="stereo">
						<masterclipid>masterclip-139</masterclipid>
						<name>Applaus, litt plystring.wav</name>
						<enabled>TRUE</enabled>
						<duration>177</duration>
						<rate>
							<timebase>25</timebase>
							<ntsc>FALSE</ntsc>
						</rate>
						<start>5352</start>
						<end>5397</end>
						<in>133</in>
						<out>178</out>
						<pproTicksIn>1351365120000</pproTicksIn>
						<pproTicksOut>1808593920000</pproTicksOut>
						<file id="file-135"/>
						<sourcetrack>
							<mediatype>audio</mediatype>
							<trackindex>2</trackindex>
						</sourcetrack>
						<link>
							<linkclipref>clipitem-2928</linkclipref>
							<mediatype>audio</mediatype>
							<trackindex>21</trackindex>
							<clipindex>19</clipindex>
							<groupindex>1</groupindex>
						</link>
						<link>
							<linkclipref>clipitem-3016</linkclipref>
							<mediatype>audio</mediatype>
							<trackindex>22</trackindex>
							<clipindex>18</clipindex>
							<groupindex>1</groupindex>
						</link>
						<logginginfo>
							<description></description>
							<scene></scene>
							<shottake></shottake>
							<lognote></lognote>
						</logginginfo>
						<labels>
							<label2>Caribbean</label2>
						</labels>
					</clipitem>
					<clipitem id="clipitem-3017" premiereChannelType="stereo">
						<masterclipid>masterclip-165</masterclipid>
						<name>_Jeeee..._ applaus.wav</name>
						<enabled>TRUE</enabled>
						<duration>129</duration>
						<rate>
							<timebase>25</timebase>
							<ntsc>FALSE</ntsc>
						</rate>
						<start>5557</start>
						<end>5687</end>
						<in>0</in>
						<out>130</out>
						<pproTicksIn>0</pproTicksIn>
						<pproTicksOut>1320883200000</pproTicksOut>
						<file id="file-161"/>
						<sourcetrack>
							<mediatype>audio</mediatype>
							<trackindex>2</trackindex>
						</sourcetrack>
						<link>
							<linkclipref>clipitem-2929</linkclipref>
							<mediatype>audio</mediatype>
							<trackindex>21</trackindex>
							<clipindex>20</clipindex>
							<groupindex>1</groupindex>
						</link>
						<link>
							<linkclipref>clipitem-3017</linkclipref>
							<mediatype>audio</mediatype>
							<trackindex>22</trackindex>
							<clipindex>19</clipindex>
							<groupindex>1</groupindex>
						</link>
						<logginginfo>
							<description></description>
							<scene></scene>
							<shottake></shottake>
							<lognote></lognote>
						</logginginfo>
						<labels>
							<label2>Caribbean</label2>
						</labels>
					</clipitem>
					<clipitem id="clipitem-3018" premiereChannelType="stereo">
						<masterclipid>masterclip-140</masterclipid>
						<name>Mellomlang liten latter.wav</name>
						<enabled>TRUE</enabled>
						<duration>105</duration>
						<rate>
							<timebase>25</timebase>
							<ntsc>FALSE</ntsc>
						</rate>
						<start>5950</start>
						<end>6055</end>
						<in>0</in>
						<out>105</out>
						<pproTicksIn>0</pproTicksIn>
						<pproTicksOut>1066867200000</pproTicksOut>
						<file id="file-136"/>
						<sourcetrack>
							<mediatype>audio</mediatype>
							<trackindex>2</trackindex>
						</sourcetrack>
						<link>
							<linkclipref>clipitem-2930</linkclipref>
							<mediatype>audio</mediatype>
							<trackindex>21</trackindex>
							<clipindex>21</clipindex>
							<groupindex>1</groupindex>
						</link>
						<link>
							<linkclipref>clipitem-3018</linkclipref>
							<mediatype>audio</mediatype>
							<trackindex>22</trackindex>
							<clipindex>20</clipindex>
							<groupindex>1</groupindex>
						</link>
						<logginginfo>
							<description></description>
							<scene></scene>
							<shottake></shottake>
							<lognote></lognote>
						</logginginfo>
						<labels>
							<label2>Caribbean</label2>
						</labels>
					</clipitem>
					<clipitem id="clipitem-3019" premiereChannelType="stereo">
						<masterclipid>masterclip-140</masterclipid>
						<name>Mellomlang liten latter.wav</name>
						<enabled>TRUE</enabled>
						<duration>105</duration>
						<rate>
							<timebase>25</timebase>
							<ntsc>FALSE</ntsc>
						</rate>
						<start>6732</start>
						<end>6837</end>
						<in>0</in>
						<out>105</out>
						<pproTicksIn>0</pproTicksIn>
						<pproTicksOut>1066867200000</pproTicksOut>
						<file id="file-136"/>
						<sourcetrack>
							<mediatype>audio</mediatype>
							<trackindex>2</trackindex>
						</sourcetrack>
						<link>
							<linkclipref>clipitem-2931</linkclipref>
							<mediatype>audio</mediatype>
							<trackindex>21</trackindex>
							<clipindex>22</clipindex>
							<groupindex>1</groupindex>
						</link>
						<link>
							<linkclipref>clipitem-3019</linkclipref>
							<mediatype>audio</mediatype>
							<trackindex>22</trackindex>
							<clipindex>21</clipindex>
							<groupindex>1</groupindex>
						</link>
						<logginginfo>
							<description></description>
							<scene></scene>
							<shottake></shottake>
							<lognote></lognote>
						</logginginfo>
						<labels>
							<label2>Caribbean</label2>
						</labels>
					</clipitem>
					<clipitem id="clipitem-3020" premiereChannelType="stereo">
						<masterclipid>masterclip-101</masterclipid>
						<name>Latter kort litt klapping.wav</name>
						<enabled>TRUE</enabled>
						<duration>68</duration>
						<rate>
							<timebase>25</timebase>
							<ntsc>FALSE</ntsc>
						</rate>
						<start>7293</start>
						<end>7354</end>
						<in>0</in>
						<out>61</out>
						<pproTicksIn>0</pproTicksIn>
						<pproTicksOut>619799040000</pproTicksOut>
						<file id="file-97"/>
						<sourcetrack>
							<mediatype>audio</mediatype>
							<trackindex>2</trackindex>
						</sourcetrack>
						<link>
							<linkclipref>clipitem-2932</linkclipref>
							<mediatype>audio</mediatype>
							<trackindex>21</trackindex>
							<clipindex>23</clipindex>
							<groupindex>1</groupindex>
						</link>
						<link>
							<linkclipref>clipitem-3020</linkclipref>
							<mediatype>audio</mediatype>
							<trackindex>22</trackindex>
							<clipindex>22</clipindex>
							<groupindex>1</groupindex>
						</link>
						<logginginfo>
							<description></description>
							<scene></scene>
							<shottake></shottake>
							<lognote></lognote>
						</logginginfo>
						<labels>
							<label2>Caribbean</label2>
						</labels>
					</clipitem>
					<clipitem id="clipitem-3021" premiereChannelType="stereo">
						<masterclipid>masterclip-101</masterclipid>
						<name>Latter kort litt klapping.wav</name>
						<enabled>TRUE</enabled>
						<duration>68</duration>
						<rate>
							<timebase>25</timebase>
							<ntsc>FALSE</ntsc>
						</rate>
						<start>8982</start>
						<end>9050</end>
						<in>0</in>
						<out>68</out>
						<pproTicksIn>0</pproTicksIn>
						<pproTicksOut>690923520000</pproTicksOut>
						<file id="file-97"/>
						<sourcetrack>
							<mediatype>audio</mediatype>
							<trackindex>2</trackindex>
						</sourcetrack>
						<link>
							<linkclipref>clipitem-2933</linkclipref>
							<mediatype>audio</mediatype>
							<trackindex>21</trackindex>
							<clipindex>24</clipindex>
							<groupindex>1</groupindex>
						</link>
						<link>
							<linkclipref>clipitem-3021</linkclipref>
							<mediatype>audio</mediatype>
							<trackindex>22</trackindex>
							<clipindex>23</clipindex>
							<groupindex>1</groupindex>
						</link>
						<logginginfo>
							<description></description>
							<scene></scene>
							<shottake></shottake>
							<lognote></lognote>
						</logginginfo>
						<labels>
							<label2>Caribbean</label2>
						</labels>
					</clipitem>
					<clipitem id="clipitem-3022" premiereChannelType="stereo">
						<masterclipid>masterclip-109</masterclipid>
						<name>Kort brå klukkende latter.wav</name>
						<enabled>TRUE</enabled>
						<duration>98</duration>
						<rate>
							<timebase>25</timebase>
							<ntsc>FALSE</ntsc>
						</rate>
						<start>10928</start>
						<end>11026</end>
						<in>0</in>
						<out>98</out>
						<pproTicksIn>0</pproTicksIn>
						<pproTicksOut>995742720000</pproTicksOut>
						<file id="file-105"/>
						<sourcetrack>
							<mediatype>audio</mediatype>
							<trackindex>2</trackindex>
						</sourcetrack>
						<link>
							<linkclipref>clipitem-2934</linkclipref>
							<mediatype>audio</mediatype>
							<trackindex>21</trackindex>
							<clipindex>25</clipindex>
							<groupindex>1</groupindex>
						</link>
						<link>
							<linkclipref>clipitem-3022</linkclipref>
							<mediatype>audio</mediatype>
							<trackindex>22</trackindex>
							<clipindex>24</clipindex>
							<groupindex>1</groupindex>
						</link>
						<logginginfo>
							<description></description>
							<scene></scene>
							<shottake></shottake>
							<lognote></lognote>
						</logginginfo>
						<labels>
							<label2>Caribbean</label2>
						</labels>
					</clipitem>
					<clipitem id="clipitem-3023" premiereChannelType="stereo">
						<masterclipid>masterclip-105</masterclipid>
						<name>Latter kort.wav</name>
						<enabled>TRUE</enabled>
						<duration>64</duration>
						<rate>
							<timebase>25</timebase>
							<ntsc>FALSE</ntsc>
						</rate>
						<start>12984</start>
						<end>13048</end>
						<in>0</in>
						<out>64</out>
						<pproTicksIn>0</pproTicksIn>
						<pproTicksOut>650280960000</pproTicksOut>
						<file id="file-101"/>
						<sourcetrack>
							<mediatype>audio</mediatype>
							<trackindex>2</trackindex>
						</sourcetrack>
						<link>
							<linkclipref>clipitem-2935</linkclipref>
							<mediatype>audio</mediatype>
							<trackindex>21</trackindex>
							<clipindex>26</clipindex>
							<groupindex>1</groupindex>
						</link>
						<link>
							<linkclipref>clipitem-3023</linkclipref>
							<mediatype>audio</mediatype>
							<trackindex>22</trackindex>
							<clipindex>25</clipindex>
							<groupindex>1</groupindex>
						</link>
						<logginginfo>
							<description></description>
							<scene></scene>
							<shottake></shottake>
							<lognote></lognote>
						</logginginfo>
						<labels>
							<label2>Caribbean</label2>
						</labels>
					</clipitem>
					<clipitem id="clipitem-3024" premiereChannelType="stereo">
						<masterclipid>masterclip-116</masterclipid>
						<name>Latterkule kort.wav</name>
						<enabled>TRUE</enabled>
						<duration>205</duration>
						<rate>
							<timebase>25</timebase>
							<ntsc>FALSE</ntsc>
						</rate>
						<start>13048</start>
						<end>13177</end>
						<in>76</in>
						<out>205</out>
						<pproTicksIn>772208640000</pproTicksIn>
						<pproTicksOut>2082931200000</pproTicksOut>
						<file id="file-112"/>
						<sourcetrack>
							<mediatype>audio</mediatype>
							<trackindex>2</trackindex>
						</sourcetrack>
						<link>
							<linkclipref>clipitem-2936</linkclipref>
							<mediatype>audio</mediatype>
							<trackindex>21</trackindex>
							<clipindex>27</clipindex>
							<groupindex>1</groupindex>
						</link>
						<link>
							<linkclipref>clipitem-3024</linkclipref>
							<mediatype>audio</mediatype>
							<trackindex>22</trackindex>
							<clipindex>26</clipindex>
							<groupindex>1</groupindex>
						</link>
						<logginginfo>
							<description></description>
							<scene></scene>
							<shottake></shottake>
							<lognote></lognote>
						</logginginfo>
						<labels>
							<label2>Caribbean</label2>
						</labels>
					</clipitem>
					<clipitem id="clipitem-3025" premiereChannelType="stereo">
						<masterclipid>masterclip-70</masterclipid>
						<name>Whoosh%20By%2003.wav</name>
						<enabled>TRUE</enabled>
						<duration>71</duration>
						<rate>
							<timebase>25</timebase>
							<ntsc>FALSE</ntsc>
						</rate>
						<start>13370</start>
						<end>13441</end>
						<in>0</in>
						<out>71</out>
						<pproTicksIn>0</pproTicksIn>
						<pproTicksOut>721405440000</pproTicksOut>
						<file id="file-66"/>
						<sourcetrack>
							<mediatype>audio</mediatype>
							<trackindex>1</trackindex>
						</sourcetrack>
							<filter>
								<effect>
									<name>Audio Levels</name>
									<effectid>audiolevels</effectid>
									<effectcategory>audiolevels</effectcategory>
									<effecttype>audiolevels</effecttype>
									<mediatype>audio</mediatype>
									<parameter authoringApp="PremierePro">
										<parameterid>level</parameterid>
										<name>Level</name>
										<valuemin>0</valuemin>
										<valuemax>3.98109</valuemax>
										<value>0.155914</value>
									</parameter>
								</effect>
							</filter>
						<link>
							<linkclipref>clipitem-2937</linkclipref>
							<mediatype>audio</mediatype>
							<trackindex>21</trackindex>
							<clipindex>28</clipindex>
							<groupindex>1</groupindex>
						</link>
						<link>
							<linkclipref>clipitem-3025</linkclipref>
							<mediatype>audio</mediatype>
							<trackindex>22</trackindex>
							<clipindex>27</clipindex>
							<groupindex>1</groupindex>
						</link>
						<logginginfo>
							<description></description>
							<scene></scene>
							<shottake></shottake>
							<lognote></lognote>
						</logginginfo>
						<labels>
							<label2>Caribbean</label2>
						</labels>
					</clipitem>
					<clipitem id="clipitem-3026" premiereChannelType="stereo">
						<masterclipid>masterclip-165</masterclipid>
						<name>_Jeeee..._ applaus.wav</name>
						<enabled>TRUE</enabled>
						<duration>129</duration>
						<rate>
							<timebase>25</timebase>
							<ntsc>FALSE</ntsc>
						</rate>
						<start>16185</start>
						<end>16204</end>
						<in>0</in>
						<out>19</out>
						<pproTicksIn>0</pproTicksIn>
						<pproTicksOut>193052160000</pproTicksOut>
						<file id="file-161"/>
						<sourcetrack>
							<mediatype>audio</mediatype>
							<trackindex>2</trackindex>
						</sourcetrack>
						<link>
							<linkclipref>clipitem-2938</linkclipref>
							<mediatype>audio</mediatype>
							<trackindex>21</trackindex>
							<clipindex>29</clipindex>
							<groupindex>1</groupindex>
						</link>
						<link>
							<linkclipref>clipitem-3026</linkclipref>
							<mediatype>audio</mediatype>
							<trackindex>22</trackindex>
							<clipindex>28</clipindex>
							<groupindex>1</groupindex>
						</link>
						<logginginfo>
							<description></description>
							<scene></scene>
							<shottake></shottake>
							<lognote></lognote>
						</logginginfo>
						<labels>
							<label2>Caribbean</label2>
						</labels>
					</clipitem>
					<clipitem id="clipitem-3027" premiereChannelType="stereo">
						<masterclipid>masterclip-165</masterclipid>
						<name>_Jeeee..._ applaus.wav</name>
						<enabled>TRUE</enabled>
						<duration>129</duration>
						<rate>
							<timebase>25</timebase>
							<ntsc>FALSE</ntsc>
						</rate>
						<start>16204</start>
						<end>16315</end>
						<in>19</in>
						<out>130</out>
						<pproTicksIn>193052160000</pproTicksIn>
						<pproTicksOut>1320883200000</pproTicksOut>
						<file id="file-161"/>
						<sourcetrack>
							<mediatype>audio</mediatype>
							<trackindex>2</trackindex>
						</sourcetrack>
						<link>
							<linkclipref>clipitem-2939</linkclipref>
							<mediatype>audio</mediatype>
							<trackindex>21</trackindex>
							<clipindex>30</clipindex>
							<groupindex>1</groupindex>
						</link>
						<link>
							<linkclipref>clipitem-3027</linkclipref>
							<mediatype>audio</mediatype>
							<trackindex>22</trackindex>
							<clipindex>29</clipindex>
							<groupindex>1</groupindex>
						</link>
						<logginginfo>
							<description></description>
							<scene></scene>
							<shottake></shottake>
							<lognote></lognote>
						</logginginfo>
						<labels>
							<label2>Caribbean</label2>
						</labels>
					</clipitem>
					<clipitem id="clipitem-3028" premiereChannelType="stereo">
						<masterclipid>masterclip-166</masterclipid>
						<name>Solveig H og Lars A.wav</name>
						<enabled>TRUE</enabled>
						<duration>72</duration>
						<rate>
							<timebase>25</timebase>
							<ntsc>FALSE</ntsc>
						</rate>
						<start>17908</start>
						<end>17980</end>
						<in>0</in>
						<out>72</out>
						<pproTicksIn>0</pproTicksIn>
						<pproTicksOut>731566080000</pproTicksOut>
						<file id="file-162"/>
						<sourcetrack>
							<mediatype>audio</mediatype>
							<trackindex>2</trackindex>
						</sourcetrack>
							<filter>
								<effect>
									<name>Audio Levels</name>
									<effectid>audiolevels</effectid>
									<effectcategory>audiolevels</effectcategory>
									<effecttype>audiolevels</effecttype>
									<mediatype>audio</mediatype>
									<parameter authoringApp="PremierePro">
										<parameterid>level</parameterid>
										<name>Level</name>
										<valuemin>0</valuemin>
										<valuemax>3.98109</valuemax>
										<value>0.99763</value>
									</parameter>
								</effect>
							</filter>
						<link>
							<linkclipref>clipitem-2940</linkclipref>
							<mediatype>audio</mediatype>
							<trackindex>21</trackindex>
							<clipindex>31</clipindex>
							<groupindex>1</groupindex>
						</link>
						<link>
							<linkclipref>clipitem-3028</linkclipref>
							<mediatype>audio</mediatype>
							<trackindex>22</trackindex>
							<clipindex>30</clipindex>
							<groupindex>1</groupindex>
						</link>
						<logginginfo>
							<description></description>
							<scene></scene>
							<shottake></shottake>
							<lognote></lognote>
						</logginginfo>
						<labels>
							<label2>Caribbean</label2>
						</labels>
					</clipitem>
					<clipitem id="clipitem-3029" premiereChannelType="stereo">
						<masterclipid>masterclip-81</masterclipid>
						<name>Appalus anerkjennende med hoi.wav</name>
						<enabled>TRUE</enabled>
						<duration>168</duration>
						<rate>
							<timebase>25</timebase>
							<ntsc>FALSE</ntsc>
						</rate>
						<start>18066</start>
						<end>18234</end>
						<in>0</in>
						<out>168</out>
						<pproTicksIn>0</pproTicksIn>
						<pproTicksOut>1706987520000</pproTicksOut>
						<file id="file-77"/>
						<sourcetrack>
							<mediatype>audio</mediatype>
							<trackindex>2</trackindex>
						</sourcetrack>
						<link>
							<linkclipref>clipitem-2941</linkclipref>
							<mediatype>audio</mediatype>
							<trackindex>21</trackindex>
							<clipindex>32</clipindex>
							<groupindex>1</groupindex>
						</link>
						<link>
							<linkclipref>clipitem-3029</linkclipref>
							<mediatype>audio</mediatype>
							<trackindex>22</trackindex>
							<clipindex>31</clipindex>
							<groupindex>1</groupindex>
						</link>
						<logginginfo>
							<description></description>
							<scene></scene>
							<shottake></shottake>
							<lognote></lognote>
						</logginginfo>
						<labels>
							<label2>Caribbean</label2>
						</labels>
					</clipitem>
					<clipitem id="clipitem-3030" premiereChannelType="stereo">
						<masterclipid>masterclip-102</masterclipid>
						<name>Applaus 7 sek høflig.wav</name>
						<enabled>TRUE</enabled>
						<duration>189</duration>
						<rate>
							<timebase>25</timebase>
							<ntsc>FALSE</ntsc>
						</rate>
						<start>22788</start>
						<end>22977</end>
						<in>0</in>
						<out>189</out>
						<pproTicksIn>0</pproTicksIn>
						<pproTicksOut>1920360960000</pproTicksOut>
						<file id="file-98"/>
						<sourcetrack>
							<mediatype>audio</mediatype>
							<trackindex>2</trackindex>
						</sourcetrack>
						<link>
							<linkclipref>clipitem-2942</linkclipref>
							<mediatype>audio</mediatype>
							<trackindex>21</trackindex>
							<clipindex>33</clipindex>
							<groupindex>1</groupindex>
						</link>
						<link>
							<linkclipref>clipitem-3030</linkclipref>
							<mediatype>audio</mediatype>
							<trackindex>22</trackindex>
							<clipindex>32</clipindex>
							<groupindex>1</groupindex>
						</link>
						<logginginfo>
							<description></description>
							<scene></scene>
							<shottake></shottake>
							<lognote></lognote>
						</logginginfo>
						<labels>
							<label2>Caribbean</label2>
						</labels>
					</clipitem>
					<clipitem id="clipitem-3031" premiereChannelType="stereo">
						<masterclipid>masterclip-84</masterclipid>
						<name>Kort moderat latter.wav</name>
						<enabled>TRUE</enabled>
						<duration>45</duration>
						<rate>
							<timebase>25</timebase>
							<ntsc>FALSE</ntsc>
						</rate>
						<start>23864</start>
						<end>23909</end>
						<in>0</in>
						<out>45</out>
						<pproTicksIn>0</pproTicksIn>
						<pproTicksOut>457228800000</pproTicksOut>
						<file id="file-80"/>
						<sourcetrack>
							<mediatype>audio</mediatype>
							<trackindex>2</trackindex>
						</sourcetrack>
						<link>
							<linkclipref>clipitem-2943</linkclipref>
							<mediatype>audio</mediatype>
							<trackindex>21</trackindex>
							<clipindex>34</clipindex>
							<groupindex>1</groupindex>
						</link>
						<link>
							<linkclipref>clipitem-3031</linkclipref>
							<mediatype>audio</mediatype>
							<trackindex>22</trackindex>
							<clipindex>33</clipindex>
							<groupindex>1</groupindex>
						</link>
						<logginginfo>
							<description></description>
							<scene></scene>
							<shottake></shottake>
							<lognote></lognote>
						</logginginfo>
						<labels>
							<label2>Caribbean</label2>
						</labels>
					</clipitem>
					<clipitem id="clipitem-3032" premiereChannelType="stereo">
						<masterclipid>masterclip-117</masterclipid>
						<name>Applaus behersket et hoi.wav</name>
						<enabled>TRUE</enabled>
						<duration>159</duration>
						<rate>
							<timebase>25</timebase>
							<ntsc>FALSE</ntsc>
						</rate>
						<start>24136</start>
						<end>24277</end>
						<in>0</in>
						<out>141</out>
						<pproTicksIn>0</pproTicksIn>
						<pproTicksOut>1432650240000</pproTicksOut>
						<file id="file-113"/>
						<sourcetrack>
							<mediatype>audio</mediatype>
							<trackindex>2</trackindex>
						</sourcetrack>
						<link>
							<linkclipref>clipitem-2944</linkclipref>
							<mediatype>audio</mediatype>
							<trackindex>21</trackindex>
							<clipindex>35</clipindex>
							<groupindex>1</groupindex>
						</link>
						<link>
							<linkclipref>clipitem-3032</linkclipref>
							<mediatype>audio</mediatype>
							<trackindex>22</trackindex>
							<clipindex>34</clipindex>
							<groupindex>1</groupindex>
						</link>
						<logginginfo>
							<description></description>
							<scene></scene>
							<shottake></shottake>
							<lognote></lognote>
						</logginginfo>
						<labels>
							<label2>Caribbean</label2>
						</labels>
					</clipitem>
					<clipitem id="clipitem-3033" premiereChannelType="stereo">
						<masterclipid>masterclip-116</masterclipid>
						<name>Latterkule kort.wav</name>
						<enabled>TRUE</enabled>
						<duration>205</duration>
						<rate>
							<timebase>25</timebase>
							<ntsc>FALSE</ntsc>
						</rate>
						<start>27405</start>
						<end>27610</end>
						<in>0</in>
						<out>205</out>
						<pproTicksIn>0</pproTicksIn>
						<pproTicksOut>2082931200000</pproTicksOut>
						<file id="file-112"/>
						<sourcetrack>
							<mediatype>audio</mediatype>
							<trackindex>2</trackindex>
						</sourcetrack>
						<link>
							<linkclipref>clipitem-2946</linkclipref>
							<mediatype>audio</mediatype>
							<trackindex>21</trackindex>
							<clipindex>37</clipindex>
							<groupindex>1</groupindex>
						</link>
						<link>
							<linkclipref>clipitem-3033</linkclipref>
							<mediatype>audio</mediatype>
							<trackindex>22</trackindex>
							<clipindex>35</clipindex>
							<groupindex>1</groupindex>
						</link>
						<logginginfo>
							<description></description>
							<scene></scene>
							<shottake></shottake>
							<lognote></lognote>
						</logginginfo>
						<labels>
							<label2>Caribbean</label2>
						</labels>
					</clipitem>
					<clipitem id="clipitem-3034" premiereChannelType="stereo">
						<masterclipid>masterclip-167</masterclipid>
						<name>Middles lang energisk applaus med plystring og rop.wav</name>
						<enabled>TRUE</enabled>
						<duration>243</duration>
						<rate>
							<timebase>25</timebase>
							<ntsc>FALSE</ntsc>
						</rate>
						<start>29721</start>
						<end>29964</end>
						<in>0</in>
						<out>243</out>
						<pproTicksIn>0</pproTicksIn>
						<pproTicksOut>2469035520000</pproTicksOut>
						<file id="file-163"/>
						<sourcetrack>
							<mediatype>audio</mediatype>
							<trackindex>2</trackindex>
						</sourcetrack>
						<link>
							<linkclipref>clipitem-2947</linkclipref>
							<mediatype>audio</mediatype>
							<trackindex>21</trackindex>
							<clipindex>38</clipindex>
							<groupindex>1</groupindex>
						</link>
						<link>
							<linkclipref>clipitem-3034</linkclipref>
							<mediatype>audio</mediatype>
							<trackindex>22</trackindex>
							<clipindex>36</clipindex>
							<groupindex>1</groupindex>
						</link>
						<logginginfo>
							<description></description>
							<scene></scene>
							<shottake></shottake>
							<lognote></lognote>
						</logginginfo>
						<labels>
							<label2>Caribbean</label2>
						</labels>
					</clipitem>
					<clipitem id="clipitem-3035" premiereChannelType="stereo">
						<masterclipid>masterclip-150</masterclipid>
						<name>Avmålt, kort HEHEHE.wav</name>
						<enabled>TRUE</enabled>
						<duration>51</duration>
						<rate>
							<timebase>25</timebase>
							<ntsc>FALSE</ntsc>
						</rate>
						<start>31496</start>
						<end>31547</end>
						<in>0</in>
						<out>51</out>
						<pproTicksIn>0</pproTicksIn>
						<pproTicksOut>518192640000</pproTicksOut>
						<file id="file-146"/>
						<sourcetrack>
							<mediatype>audio</mediatype>
							<trackindex>2</trackindex>
						</sourcetrack>
							<filter>
								<effect>
									<name>Audio Levels</name>
									<effectid>audiolevels</effectid>
									<effectcategory>audiolevels</effectcategory>
									<effecttype>audiolevels</effecttype>
									<mediatype>audio</mediatype>
									<parameter authoringApp="PremierePro">
										<parameterid>level</parameterid>
										<name>Level</name>
										<valuemin>0</valuemin>
										<valuemax>3.98109</valuemax>
										<value>0.99763</value>
									</parameter>
								</effect>
							</filter>
						<link>
							<linkclipref>clipitem-2948</linkclipref>
							<mediatype>audio</mediatype>
							<trackindex>21</trackindex>
							<clipindex>39</clipindex>
							<groupindex>1</groupindex>
						</link>
						<link>
							<linkclipref>clipitem-3035</linkclipref>
							<mediatype>audio</mediatype>
							<trackindex>22</trackindex>
							<clipindex>37</clipindex>
							<groupindex>1</groupindex>
						</link>
						<logginginfo>
							<description></description>
							<scene></scene>
							<shottake></shottake>
							<lognote></lognote>
						</logginginfo>
						<labels>
							<label2>Caribbean</label2>
						</labels>
					</clipitem>
					<clipitem id="clipitem-3036" premiereChannelType="stereo">
						<masterclipid>masterclip-118</masterclipid>
						<name>Kort spredt latter.wav</name>
						<enabled>TRUE</enabled>
						<duration>64</duration>
						<rate>
							<timebase>25</timebase>
							<ntsc>FALSE</ntsc>
						</rate>
						<start>31600</start>
						<end>31664</end>
						<in>0</in>
						<out>64</out>
						<pproTicksIn>0</pproTicksIn>
						<pproTicksOut>650280960000</pproTicksOut>
						<file id="file-114"/>
						<sourcetrack>
							<mediatype>audio</mediatype>
							<trackindex>2</trackindex>
						</sourcetrack>
							<filter>
								<effect>
									<name>Audio Levels</name>
									<effectid>audiolevels</effectid>
									<effectcategory>audiolevels</effectcategory>
									<effecttype>audiolevels</effecttype>
									<mediatype>audio</mediatype>
									<parameter authoringApp="PremierePro">
										<parameterid>level</parameterid>
										<name>Level</name>
										<valuemin>0</valuemin>
										<valuemax>3.98109</valuemax>
										<value>0.99763</value>
									</parameter>
								</effect>
							</filter>
						<link>
							<linkclipref>clipitem-2949</linkclipref>
							<mediatype>audio</mediatype>
							<trackindex>21</trackindex>
							<clipindex>40</clipindex>
							<groupindex>1</groupindex>
						</link>
						<link>
							<linkclipref>clipitem-3036</linkclipref>
							<mediatype>audio</mediatype>
							<trackindex>22</trackindex>
							<clipindex>38</clipindex>
							<groupindex>1</groupindex>
						</link>
						<logginginfo>
							<description></description>
							<scene></scene>
							<shottake></shottake>
							<lognote></lognote>
						</logginginfo>
						<labels>
							<label2>Caribbean</label2>
						</labels>
					</clipitem>
					<clipitem id="clipitem-3037" premiereChannelType="stereo">
						<masterclipid>masterclip-168</masterclipid>
						<name>Kort brå latter.wav</name>
						<enabled>TRUE</enabled>
						<duration>53</duration>
						<rate>
							<timebase>25</timebase>
							<ntsc>FALSE</ntsc>
						</rate>
						<start>31821</start>
						<end>31874</end>
						<in>0</in>
						<out>53</out>
						<pproTicksIn>0</pproTicksIn>
						<pproTicksOut>538513920000</pproTicksOut>
						<file id="file-164"/>
						<sourcetrack>
							<mediatype>audio</mediatype>
							<trackindex>2</trackindex>
						</sourcetrack>
							<filter>
								<effect>
									<name>Audio Levels</name>
									<effectid>audiolevels</effectid>
									<effectcategory>audiolevels</effectcategory>
									<effecttype>audiolevels</effecttype>
									<mediatype>audio</mediatype>
									<parameter authoringApp="PremierePro">
										<parameterid>level</parameterid>
										<name>Level</name>
										<valuemin>0</valuemin>
										<valuemax>3.98109</valuemax>
										<value>0.99763</value>
									</parameter>
								</effect>
							</filter>
						<link>
							<linkclipref>clipitem-2950</linkclipref>
							<mediatype>audio</mediatype>
							<trackindex>21</trackindex>
							<clipindex>41</clipindex>
							<groupindex>1</groupindex>
						</link>
						<link>
							<linkclipref>clipitem-3037</linkclipref>
							<mediatype>audio</mediatype>
							<trackindex>22</trackindex>
							<clipindex>39</clipindex>
							<groupindex>1</groupindex>
						</link>
						<logginginfo>
							<description></description>
							<scene></scene>
							<shottake></shottake>
							<lognote></lognote>
						</logginginfo>
						<labels>
							<label2>Caribbean</label2>
						</labels>
					</clipitem>
					<clipitem id="clipitem-3038" premiereChannelType="stereo">
						<masterclipid>masterclip-169</masterclipid>
						<name>Kort brå latter.wav</name>
						<enabled>TRUE</enabled>
						<duration>62</duration>
						<rate>
							<timebase>25</timebase>
							<ntsc>FALSE</ntsc>
						</rate>
						<start>32406</start>
						<end>32468</end>
						<in>0</in>
						<out>62</out>
						<pproTicksIn>0</pproTicksIn>
						<pproTicksOut>629959680000</pproTicksOut>
						<file id="file-165"/>
						<sourcetrack>
							<mediatype>audio</mediatype>
							<trackindex>2</trackindex>
						</sourcetrack>
							<filter>
								<effect>
									<name>Audio Levels</name>
									<effectid>audiolevels</effectid>
									<effectcategory>audiolevels</effectcategory>
									<effecttype>audiolevels</effecttype>
									<mediatype>audio</mediatype>
									<parameter authoringApp="PremierePro">
										<parameterid>level</parameterid>
										<name>Level</name>
										<valuemin>0</valuemin>
										<valuemax>3.98109</valuemax>
										<value>0.99763</value>
									</parameter>
								</effect>
							</filter>
						<link>
							<linkclipref>clipitem-2951</linkclipref>
							<mediatype>audio</mediatype>
							<trackindex>21</trackindex>
							<clipindex>42</clipindex>
							<groupindex>1</groupindex>
						</link>
						<link>
							<linkclipref>clipitem-3038</linkclipref>
							<mediatype>audio</mediatype>
							<trackindex>22</trackindex>
							<clipindex>40</clipindex>
							<groupindex>1</groupindex>
						</link>
						<logginginfo>
							<description></description>
							<scene></scene>
							<shottake></shottake>
							<lognote></lognote>
						</logginginfo>
						<labels>
							<label2>Caribbean</label2>
						</labels>
					</clipitem>
					<clipitem id="clipitem-3039" premiereChannelType="stereo">
						<masterclipid>masterclip-144</masterclipid>
						<name>Enkel, kort latter.wav</name>
						<enabled>TRUE</enabled>
						<duration>69</duration>
						<rate>
							<timebase>25</timebase>
							<ntsc>FALSE</ntsc>
						</rate>
						<start>32623</start>
						<end>32692</end>
						<in>0</in>
						<out>69</out>
						<pproTicksIn>0</pproTicksIn>
						<pproTicksOut>701084160000</pproTicksOut>
						<file id="file-140"/>
						<sourcetrack>
							<mediatype>audio</mediatype>
							<trackindex>2</trackindex>
						</sourcetrack>
							<filter>
								<effect>
									<name>Audio Levels</name>
									<effectid>audiolevels</effectid>
									<effectcategory>audiolevels</effectcategory>
									<effecttype>audiolevels</effecttype>
									<mediatype>audio</mediatype>
									<parameter authoringApp="PremierePro">
										<parameterid>level</parameterid>
										<name>Level</name>
										<valuemin>0</valuemin>
										<valuemax>3.98109</valuemax>
										<value>1.54472</value>
									</parameter>
								</effect>
							</filter>
						<link>
							<linkclipref>clipitem-2952</linkclipref>
							<mediatype>audio</mediatype>
							<trackindex>21</trackindex>
							<clipindex>43</clipindex>
							<groupindex>1</groupindex>
						</link>
						<link>
							<linkclipref>clipitem-3039</linkclipref>
							<mediatype>audio</mediatype>
							<trackindex>22</trackindex>
							<clipindex>41</clipindex>
							<groupindex>1</groupindex>
						</link>
						<logginginfo>
							<description></description>
							<scene></scene>
							<shottake></shottake>
							<lognote></lognote>
						</logginginfo>
						<labels>
							<label2>Caribbean</label2>
						</labels>
					</clipitem>
					<clipitem id="clipitem-3040" premiereChannelType="stereo">
						<masterclipid>masterclip-170</masterclipid>
						<name>Gøyal latter med medium applaus.wav</name>
						<enabled>TRUE</enabled>
						<duration>221</duration>
						<rate>
							<timebase>25</timebase>
							<ntsc>FALSE</ntsc>
						</rate>
						<start>32707</start>
						<end>32918</end>
						<in>10</in>
						<out>221</out>
						<pproTicksIn>101606400000</pproTicksIn>
						<pproTicksOut>2245501440000</pproTicksOut>
						<file id="file-166"/>
						<sourcetrack>
							<mediatype>audio</mediatype>
							<trackindex>2</trackindex>
						</sourcetrack>
						<link>
							<linkclipref>clipitem-2953</linkclipref>
							<mediatype>audio</mediatype>
							<trackindex>21</trackindex>
							<clipindex>44</clipindex>
							<groupindex>1</groupindex>
						</link>
						<link>
							<linkclipref>clipitem-3040</linkclipref>
							<mediatype>audio</mediatype>
							<trackindex>22</trackindex>
							<clipindex>42</clipindex>
							<groupindex>1</groupindex>
						</link>
						<logginginfo>
							<description></description>
							<scene></scene>
							<shottake></shottake>
							<lognote></lognote>
						</logginginfo>
						<labels>
							<label2>Caribbean</label2>
						</labels>
					</clipitem>
					<clipitem id="clipitem-3041" premiereChannelType="stereo">
						<masterclipid>masterclip-135</masterclipid>
						<name>Overrasket latter, applaus.wav</name>
						<enabled>TRUE</enabled>
						<duration>189</duration>
						<rate>
							<timebase>25</timebase>
							<ntsc>FALSE</ntsc>
						</rate>
						<start>33404</start>
						<end>33594</end>
						<in>0</in>
						<out>190</out>
						<pproTicksIn>0</pproTicksIn>
						<pproTicksOut>1930521600000</pproTicksOut>
						<file id="file-131"/>
						<sourcetrack>
							<mediatype>audio</mediatype>
							<trackindex>2</trackindex>
						</sourcetrack>
							<filter>
								<effect>
									<name>Audio Levels</name>
									<effectid>audiolevels</effectid>
									<effectcategory>audiolevels</effectcategory>
									<effecttype>audiolevels</effecttype>
									<mediatype>audio</mediatype>
									<parameter authoringApp="PremierePro">
										<parameterid>level</parameterid>
										<name>Level</name>
										<valuemin>0</valuemin>
										<valuemax>3.98109</valuemax>
										<value>0.99763</value>
									</parameter>
								</effect>
							</filter>
						<link>
							<linkclipref>clipitem-2954</linkclipref>
							<mediatype>audio</mediatype>
							<trackindex>21</trackindex>
							<clipindex>45</clipindex>
							<groupindex>1</groupindex>
						</link>
						<link>
							<linkclipref>clipitem-3041</linkclipref>
							<mediatype>audio</mediatype>
							<trackindex>22</trackindex>
							<clipindex>43</clipindex>
							<groupindex>1</groupindex>
						</link>
						<logginginfo>
							<description></description>
							<scene></scene>
							<shottake></shottake>
							<lognote></lognote>
						</logginginfo>
						<labels>
							<label2>Caribbean</label2>
						</labels>
					</clipitem>
					<clipitem id="clipitem-3042" premiereChannelType="stereo">
						<masterclipid>masterclip-81</masterclipid>
						<name>Appalus anerkjennende med hoi.wav</name>
						<enabled>TRUE</enabled>
						<duration>168</duration>
						<rate>
							<timebase>25</timebase>
							<ntsc>FALSE</ntsc>
						</rate>
						<start>33820</start>
						<end>33988</end>
						<in>0</in>
						<out>168</out>
						<pproTicksIn>0</pproTicksIn>
						<pproTicksOut>1706987520000</pproTicksOut>
						<file id="file-77"/>
						<sourcetrack>
							<mediatype>audio</mediatype>
							<trackindex>2</trackindex>
						</sourcetrack>
						<link>
							<linkclipref>clipitem-2955</linkclipref>
							<mediatype>audio</mediatype>
							<trackindex>21</trackindex>
							<clipindex>46</clipindex>
							<groupindex>1</groupindex>
						</link>
						<link>
							<linkclipref>clipitem-3042</linkclipref>
							<mediatype>audio</mediatype>
							<trackindex>22</trackindex>
							<clipindex>44</clipindex>
							<groupindex>1</groupindex>
						</link>
						<logginginfo>
							<description></description>
							<scene></scene>
							<shottake></shottake>
							<lognote></lognote>
						</logginginfo>
						<labels>
							<label2>Caribbean</label2>
						</labels>
					</clipitem>
					<clipitem id="clipitem-3043" premiereChannelType="stereo">
						<masterclipid>masterclip-171</masterclipid>
						<name>Kort artig latterkule.wav</name>
						<enabled>TRUE</enabled>
						<duration>72</duration>
						<rate>
							<timebase>25</timebase>
							<ntsc>FALSE</ntsc>
						</rate>
						<start>34008</start>
						<end>34080</end>
						<in>0</in>
						<out>72</out>
						<pproTicksIn>0</pproTicksIn>
						<pproTicksOut>731566080000</pproTicksOut>
						<file id="file-167"/>
						<sourcetrack>
							<mediatype>audio</mediatype>
							<trackindex>2</trackindex>
						</sourcetrack>
							<filter>
								<effect>
									<name>Audio Levels</name>
									<effectid>audiolevels</effectid>
									<effectcategory>audiolevels</effectcategory>
									<effecttype>audiolevels</effecttype>
									<mediatype>audio</mediatype>
									<parameter authoringApp="PremierePro">
										<parameterid>level</parameterid>
										<name>Level</name>
										<valuemin>0</valuemin>
										<valuemax>3.98109</valuemax>
										<value>0.99763</value>
									</parameter>
								</effect>
							</filter>
						<link>
							<linkclipref>clipitem-2956</linkclipref>
							<mediatype>audio</mediatype>
							<trackindex>21</trackindex>
							<clipindex>47</clipindex>
							<groupindex>1</groupindex>
						</link>
						<link>
							<linkclipref>clipitem-3043</linkclipref>
							<mediatype>audio</mediatype>
							<trackindex>22</trackindex>
							<clipindex>45</clipindex>
							<groupindex>1</groupindex>
						</link>
						<logginginfo>
							<description></description>
							<scene></scene>
							<shottake></shottake>
							<lognote></lognote>
						</logginginfo>
						<labels>
							<label2>Caribbean</label2>
						</labels>
					</clipitem>
					<clipitem id="clipitem-3044" premiereChannelType="stereo">
						<masterclipid>masterclip-90</masterclipid>
						<name>Liten behersket latter.wav</name>
						<enabled>TRUE</enabled>
						<duration>60</duration>
						<rate>
							<timebase>25</timebase>
							<ntsc>FALSE</ntsc>
						</rate>
						<start>34118</start>
						<end>34178</end>
						<in>0</in>
						<out>60</out>
						<pproTicksIn>0</pproTicksIn>
						<pproTicksOut>609638400000</pproTicksOut>
						<file id="file-86"/>
						<sourcetrack>
							<mediatype>audio</mediatype>
							<trackindex>2</trackindex>
						</sourcetrack>
						<link>
							<linkclipref>clipitem-2957</linkclipref>
							<mediatype>audio</mediatype>
							<trackindex>21</trackindex>
							<clipindex>48</clipindex>
							<groupindex>1</groupindex>
						</link>
						<link>
							<linkclipref>clipitem-3044</linkclipref>
							<mediatype>audio</mediatype>
							<trackindex>22</trackindex>
							<clipindex>46</clipindex>
							<groupindex>1</groupindex>
						</link>
						<logginginfo>
							<description></description>
							<scene></scene>
							<shottake></shottake>
							<lognote></lognote>
						</logginginfo>
						<labels>
							<label2>Caribbean</label2>
						</labels>
					</clipitem>
					<clipitem id="clipitem-3045" premiereChannelType="stereo">
						<masterclipid>masterclip-169</masterclipid>
						<name>Kort brå latter.wav</name>
						<enabled>TRUE</enabled>
						<duration>62</duration>
						<rate>
							<timebase>25</timebase>
							<ntsc>FALSE</ntsc>
						</rate>
						<start>34528</start>
						<end>34590</end>
						<in>0</in>
						<out>62</out>
						<pproTicksIn>0</pproTicksIn>
						<pproTicksOut>629959680000</pproTicksOut>
						<file id="file-165"/>
						<sourcetrack>
							<mediatype>audio</mediatype>
							<trackindex>2</trackindex>
						</sourcetrack>
							<filter>
								<effect>
									<name>Audio Levels</name>
									<effectid>audiolevels</effectid>
									<effectcategory>audiolevels</effectcategory>
									<effecttype>audiolevels</effecttype>
									<mediatype>audio</mediatype>
									<parameter authoringApp="PremierePro">
										<parameterid>level</parameterid>
										<name>Level</name>
										<valuemin>0</valuemin>
										<valuemax>3.98109</valuemax>
										<value>0.99763</value>
									</parameter>
								</effect>
							</filter>
						<link>
							<linkclipref>clipitem-2958</linkclipref>
							<mediatype>audio</mediatype>
							<trackindex>21</trackindex>
							<clipindex>49</clipindex>
							<groupindex>1</groupindex>
						</link>
						<link>
							<linkclipref>clipitem-3045</linkclipref>
							<mediatype>audio</mediatype>
							<trackindex>22</trackindex>
							<clipindex>47</clipindex>
							<groupindex>1</groupindex>
						</link>
						<logginginfo>
							<description></description>
							<scene></scene>
							<shottake></shottake>
							<lognote></lognote>
						</logginginfo>
						<labels>
							<label2>Caribbean</label2>
						</labels>
					</clipitem>
					<clipitem id="clipitem-3046" premiereChannelType="stereo">
						<masterclipid>masterclip-135</masterclipid>
						<name>Overrasket latter, applaus.wav</name>
						<enabled>TRUE</enabled>
						<duration>189</duration>
						<rate>
							<timebase>25</timebase>
							<ntsc>FALSE</ntsc>
						</rate>
						<start>34777</start>
						<end>34796</end>
						<in>0</in>
						<out>19</out>
						<pproTicksIn>0</pproTicksIn>
						<pproTicksOut>193052160000</pproTicksOut>
						<file id="file-131"/>
						<sourcetrack>
							<mediatype>audio</mediatype>
							<trackindex>2</trackindex>
						</sourcetrack>
							<filter>
								<effect>
									<name>Audio Levels</name>
									<effectid>audiolevels</effectid>
									<effectcategory>audiolevels</effectcategory>
									<effecttype>audiolevels</effecttype>
									<mediatype>audio</mediatype>
									<parameter authoringApp="PremierePro">
										<parameterid>level</parameterid>
										<name>Level</name>
										<valuemin>0</valuemin>
										<valuemax>3.98109</valuemax>
										<value>0.99763</value>
									</parameter>
								</effect>
							</filter>
						<link>
							<linkclipref>clipitem-2959</linkclipref>
							<mediatype>audio</mediatype>
							<trackindex>21</trackindex>
							<clipindex>50</clipindex>
							<groupindex>1</groupindex>
						</link>
						<link>
							<linkclipref>clipitem-3046</linkclipref>
							<mediatype>audio</mediatype>
							<trackindex>22</trackindex>
							<clipindex>48</clipindex>
							<groupindex>1</groupindex>
						</link>
						<logginginfo>
							<description></description>
							<scene></scene>
							<shottake></shottake>
							<lognote></lognote>
						</logginginfo>
						<labels>
							<label2>Caribbean</label2>
						</labels>
					</clipitem>
					<clipitem id="clipitem-3047" premiereChannelType="stereo">
						<masterclipid>masterclip-135</masterclipid>
						<name>Overrasket latter, applaus.wav</name>
						<enabled>TRUE</enabled>
						<duration>189</duration>
						<rate>
							<timebase>25</timebase>
							<ntsc>FALSE</ntsc>
						</rate>
						<start>34796</start>
						<end>34834</end>
						<in>19</in>
						<out>57</out>
						<pproTicksIn>193052160000</pproTicksIn>
						<pproTicksOut>579156480000</pproTicksOut>
						<file id="file-131"/>
						<sourcetrack>
							<mediatype>audio</mediatype>
							<trackindex>2</trackindex>
						</sourcetrack>
							<filter>
								<effect>
									<name>Audio Levels</name>
									<effectid>audiolevels</effectid>
									<effectcategory>audiolevels</effectcategory>
									<effecttype>audiolevels</effecttype>
									<mediatype>audio</mediatype>
									<parameter authoringApp="PremierePro">
										<parameterid>level</parameterid>
										<name>Level</name>
										<valuemin>0</valuemin>
										<valuemax>3.98109</valuemax>
										<value>0.99763</value>
									</parameter>
								</effect>
							</filter>
						<link>
							<linkclipref>clipitem-2960</linkclipref>
							<mediatype>audio</mediatype>
							<trackindex>21</trackindex>
							<clipindex>51</clipindex>
							<groupindex>1</groupindex>
						</link>
						<link>
							<linkclipref>clipitem-3047</linkclipref>
							<mediatype>audio</mediatype>
							<trackindex>22</trackindex>
							<clipindex>49</clipindex>
							<groupindex>1</groupindex>
						</link>
						<logginginfo>
							<description></description>
							<scene></scene>
							<shottake></shottake>
							<lognote></lognote>
						</logginginfo>
						<labels>
							<label2>Caribbean</label2>
						</labels>
					</clipitem>
					<clipitem id="clipitem-3048" premiereChannelType="stereo">
						<masterclipid>masterclip-90</masterclipid>
						<name>Liten behersket latter.wav</name>
						<enabled>TRUE</enabled>
						<duration>60</duration>
						<rate>
							<timebase>25</timebase>
							<ntsc>FALSE</ntsc>
						</rate>
						<start>34943</start>
						<end>35003</end>
						<in>0</in>
						<out>60</out>
						<pproTicksIn>0</pproTicksIn>
						<pproTicksOut>609638400000</pproTicksOut>
						<file id="file-86"/>
						<sourcetrack>
							<mediatype>audio</mediatype>
							<trackindex>2</trackindex>
						</sourcetrack>
						<link>
							<linkclipref>clipitem-2961</linkclipref>
							<mediatype>audio</mediatype>
							<trackindex>21</trackindex>
							<clipindex>52</clipindex>
							<groupindex>1</groupindex>
						</link>
						<link>
							<linkclipref>clipitem-3048</linkclipref>
							<mediatype>audio</mediatype>
							<trackindex>22</trackindex>
							<clipindex>50</clipindex>
							<groupindex>1</groupindex>
						</link>
						<logginginfo>
							<description></description>
							<scene></scene>
							<shottake></shottake>
							<lognote></lognote>
						</logginginfo>
						<labels>
							<label2>Caribbean</label2>
						</labels>
					</clipitem>
					<clipitem id="clipitem-3049" premiereChannelType="stereo">
						<masterclipid>masterclip-146</masterclipid>
						<name>Brå liten latter HÆHÆ.wav</name>
						<enabled>TRUE</enabled>
						<duration>114</duration>
						<rate>
							<timebase>25</timebase>
							<ntsc>FALSE</ntsc>
						</rate>
						<start>35278</start>
						<end>35392</end>
						<in>0</in>
						<out>114</out>
						<pproTicksIn>0</pproTicksIn>
						<pproTicksOut>1158312960000</pproTicksOut>
						<file id="file-142"/>
						<sourcetrack>
							<mediatype>audio</mediatype>
							<trackindex>2</trackindex>
						</sourcetrack>
							<filter>
								<effect>
									<name>Audio Levels</name>
									<effectid>audiolevels</effectid>
									<effectcategory>audiolevels</effectcategory>
									<effecttype>audiolevels</effecttype>
									<mediatype>audio</mediatype>
									<parameter authoringApp="PremierePro">
										<parameterid>level</parameterid>
										<name>Level</name>
										<valuemin>0</valuemin>
										<valuemax>3.98109</valuemax>
										<value>0.99763</value>
									</parameter>
								</effect>
							</filter>
						<link>
							<linkclipref>clipitem-2962</linkclipref>
							<mediatype>audio</mediatype>
							<trackindex>21</trackindex>
							<clipindex>53</clipindex>
							<groupindex>1</groupindex>
						</link>
						<link>
							<linkclipref>clipitem-3049</linkclipref>
							<mediatype>audio</mediatype>
							<trackindex>22</trackindex>
							<clipindex>51</clipindex>
							<groupindex>1</groupindex>
						</link>
						<logginginfo>
							<description></description>
							<scene></scene>
							<shottake></shottake>
							<lognote></lognote>
						</logginginfo>
						<labels>
							<label2>Caribbean</label2>
						</labels>
					</clipitem>
					<clipitem id="clipitem-3050" premiereChannelType="stereo">
						<masterclipid>masterclip-168</masterclipid>
						<name>Kort brå latter.wav</name>
						<enabled>TRUE</enabled>
						<duration>53</duration>
						<rate>
							<timebase>25</timebase>
							<ntsc>FALSE</ntsc>
						</rate>
						<start>35434</start>
						<end>35487</end>
						<in>0</in>
						<out>53</out>
						<pproTicksIn>0</pproTicksIn>
						<pproTicksOut>538513920000</pproTicksOut>
						<file id="file-164"/>
						<sourcetrack>
							<mediatype>audio</mediatype>
							<trackindex>2</trackindex>
						</sourcetrack>
							<filter>
								<effect>
									<name>Audio Levels</name>
									<effectid>audiolevels</effectid>
									<effectcategory>audiolevels</effectcategory>
									<effecttype>audiolevels</effecttype>
									<mediatype>audio</mediatype>
									<parameter authoringApp="PremierePro">
										<parameterid>level</parameterid>
										<name>Level</name>
										<valuemin>0</valuemin>
										<valuemax>3.98109</valuemax>
										<value>0.99763</value>
									</parameter>
								</effect>
							</filter>
						<link>
							<linkclipref>clipitem-2963</linkclipref>
							<mediatype>audio</mediatype>
							<trackindex>21</trackindex>
							<clipindex>54</clipindex>
							<groupindex>1</groupindex>
						</link>
						<link>
							<linkclipref>clipitem-3050</linkclipref>
							<mediatype>audio</mediatype>
							<trackindex>22</trackindex>
							<clipindex>52</clipindex>
							<groupindex>1</groupindex>
						</link>
						<logginginfo>
							<description></description>
							<scene></scene>
							<shottake></shottake>
							<lognote></lognote>
						</logginginfo>
						<labels>
							<label2>Caribbean</label2>
						</labels>
					</clipitem>
					<clipitem id="clipitem-3051" premiereChannelType="stereo">
						<masterclipid>masterclip-95</masterclipid>
						<name>Kort rask latter.wav</name>
						<enabled>TRUE</enabled>
						<duration>80</duration>
						<rate>
							<timebase>25</timebase>
							<ntsc>FALSE</ntsc>
						</rate>
						<start>35487</start>
						<end>35567</end>
						<in>0</in>
						<out>80</out>
						<pproTicksIn>0</pproTicksIn>
						<pproTicksOut>812851200000</pproTicksOut>
						<file id="file-91"/>
						<sourcetrack>
							<mediatype>audio</mediatype>
							<trackindex>2</trackindex>
						</sourcetrack>
						<link>
							<linkclipref>clipitem-2964</linkclipref>
							<mediatype>audio</mediatype>
							<trackindex>21</trackindex>
							<clipindex>55</clipindex>
							<groupindex>1</groupindex>
						</link>
						<link>
							<linkclipref>clipitem-3051</linkclipref>
							<mediatype>audio</mediatype>
							<trackindex>22</trackindex>
							<clipindex>53</clipindex>
							<groupindex>1</groupindex>
						</link>
						<logginginfo>
							<description></description>
							<scene></scene>
							<shottake></shottake>
							<lognote></lognote>
						</logginginfo>
						<labels>
							<label2>Caribbean</label2>
						</labels>
					</clipitem>
					<clipitem id="clipitem-3052" premiereChannelType="stereo">
						<masterclipid>masterclip-92</masterclipid>
						<name>Hjertelig klukklatter.wav</name>
						<enabled>TRUE</enabled>
						<duration>55</duration>
						<rate>
							<timebase>25</timebase>
							<ntsc>FALSE</ntsc>
						</rate>
						<start>35624</start>
						<end>35679</end>
						<in>0</in>
						<out>55</out>
						<pproTicksIn>0</pproTicksIn>
						<pproTicksOut>558835200000</pproTicksOut>
						<file id="file-88"/>
						<sourcetrack>
							<mediatype>audio</mediatype>
							<trackindex>2</trackindex>
						</sourcetrack>
							<filter>
								<effect>
									<name>Audio Levels</name>
									<effectid>audiolevels</effectid>
									<effectcategory>audiolevels</effectcategory>
									<effecttype>audiolevels</effecttype>
									<mediatype>audio</mediatype>
									<parameter authoringApp="PremierePro">
										<parameterid>level</parameterid>
										<name>Level</name>
										<valuemin>0</valuemin>
										<valuemax>3.98109</valuemax>
										<value>0.99763</value>
									</parameter>
								</effect>
							</filter>
						<link>
							<linkclipref>clipitem-2965</linkclipref>
							<mediatype>audio</mediatype>
							<trackindex>21</trackindex>
							<clipindex>56</clipindex>
							<groupindex>1</groupindex>
						</link>
						<link>
							<linkclipref>clipitem-3052</linkclipref>
							<mediatype>audio</mediatype>
							<trackindex>22</trackindex>
							<clipindex>54</clipindex>
							<groupindex>1</groupindex>
						</link>
						<logginginfo>
							<description></description>
							<scene></scene>
							<shottake></shottake>
							<lognote></lognote>
						</logginginfo>
						<labels>
							<label2>Caribbean</label2>
						</labels>
					</clipitem>
					<clipitem id="clipitem-3053" premiereChannelType="stereo">
						<masterclipid>masterclip-98</masterclipid>
						<name>Noen få ler kort.wav</name>
						<enabled>TRUE</enabled>
						<duration>43</duration>
						<rate>
							<timebase>25</timebase>
							<ntsc>FALSE</ntsc>
						</rate>
						<start>35828</start>
						<end>35871</end>
						<in>0</in>
						<out>43</out>
						<pproTicksIn>0</pproTicksIn>
						<pproTicksOut>436907520000</pproTicksOut>
						<file id="file-94"/>
						<sourcetrack>
							<mediatype>audio</mediatype>
							<trackindex>2</trackindex>
						</sourcetrack>
							<filter>
								<effect>
									<name>Audio Levels</name>
									<effectid>audiolevels</effectid>
									<effectcategory>audiolevels</effectcategory>
									<effecttype>audiolevels</effecttype>
									<mediatype>audio</mediatype>
									<parameter authoringApp="PremierePro">
										<parameterid>level</parameterid>
										<name>Level</name>
										<valuemin>0</valuemin>
										<valuemax>3.98109</valuemax>
										<value>0.99763</value>
									</parameter>
								</effect>
							</filter>
						<link>
							<linkclipref>clipitem-2966</linkclipref>
							<mediatype>audio</mediatype>
							<trackindex>21</trackindex>
							<clipindex>57</clipindex>
							<groupindex>1</groupindex>
						</link>
						<link>
							<linkclipref>clipitem-3053</linkclipref>
							<mediatype>audio</mediatype>
							<trackindex>22</trackindex>
							<clipindex>55</clipindex>
							<groupindex>1</groupindex>
						</link>
						<logginginfo>
							<description></description>
							<scene></scene>
							<shottake></shottake>
							<lognote></lognote>
						</logginginfo>
						<labels>
							<label2>Caribbean</label2>
						</labels>
					</clipitem>
					<clipitem id="clipitem-3054" premiereChannelType="stereo">
						<masterclipid>masterclip-168</masterclipid>
						<name>Kort brå latter.wav</name>
						<enabled>TRUE</enabled>
						<duration>53</duration>
						<rate>
							<timebase>25</timebase>
							<ntsc>FALSE</ntsc>
						</rate>
						<start>35939</start>
						<end>35992</end>
						<in>0</in>
						<out>53</out>
						<pproTicksIn>0</pproTicksIn>
						<pproTicksOut>538513920000</pproTicksOut>
						<file id="file-164"/>
						<sourcetrack>
							<mediatype>audio</mediatype>
							<trackindex>2</trackindex>
						</sourcetrack>
							<filter>
								<effect>
									<name>Audio Levels</name>
									<effectid>audiolevels</effectid>
									<effectcategory>audiolevels</effectcategory>
									<effecttype>audiolevels</effecttype>
									<mediatype>audio</mediatype>
									<parameter authoringApp="PremierePro">
										<parameterid>level</parameterid>
										<name>Level</name>
										<valuemin>0</valuemin>
										<valuemax>3.98109</valuemax>
										<value>0.99763</value>
									</parameter>
								</effect>
							</filter>
						<link>
							<linkclipref>clipitem-2967</linkclipref>
							<mediatype>audio</mediatype>
							<trackindex>21</trackindex>
							<clipindex>58</clipindex>
							<groupindex>1</groupindex>
						</link>
						<link>
							<linkclipref>clipitem-3054</linkclipref>
							<mediatype>audio</mediatype>
							<trackindex>22</trackindex>
							<clipindex>56</clipindex>
							<groupindex>1</groupindex>
						</link>
						<logginginfo>
							<description></description>
							<scene></scene>
							<shottake></shottake>
							<lognote></lognote>
						</logginginfo>
						<labels>
							<label2>Caribbean</label2>
						</labels>
					</clipitem>
					<clipitem id="clipitem-3055" premiereChannelType="stereo">
						<masterclipid>masterclip-92</masterclipid>
						<name>Hjertelig klukklatter.wav</name>
						<enabled>TRUE</enabled>
						<duration>55</duration>
						<rate>
							<timebase>25</timebase>
							<ntsc>FALSE</ntsc>
						</rate>
						<start>36116</start>
						<end>36171</end>
						<in>0</in>
						<out>55</out>
						<pproTicksIn>0</pproTicksIn>
						<pproTicksOut>558835200000</pproTicksOut>
						<file id="file-88"/>
						<sourcetrack>
							<mediatype>audio</mediatype>
							<trackindex>2</trackindex>
						</sourcetrack>
							<filter>
								<effect>
									<name>Audio Levels</name>
									<effectid>audiolevels</effectid>
									<effectcategory>audiolevels</effectcategory>
									<effecttype>audiolevels</effecttype>
									<mediatype>audio</mediatype>
									<parameter authoringApp="PremierePro">
										<parameterid>level</parameterid>
										<name>Level</name>
										<valuemin>0</valuemin>
										<valuemax>3.98109</valuemax>
										<value>0.99763</value>
									</parameter>
								</effect>
							</filter>
						<link>
							<linkclipref>clipitem-2968</linkclipref>
							<mediatype>audio</mediatype>
							<trackindex>21</trackindex>
							<clipindex>59</clipindex>
							<groupindex>1</groupindex>
						</link>
						<link>
							<linkclipref>clipitem-3055</linkclipref>
							<mediatype>audio</mediatype>
							<trackindex>22</trackindex>
							<clipindex>57</clipindex>
							<groupindex>1</groupindex>
						</link>
						<logginginfo>
							<description></description>
							<scene></scene>
							<shottake></shottake>
							<lognote></lognote>
						</logginginfo>
						<labels>
							<label2>Caribbean</label2>
						</labels>
					</clipitem>
					<clipitem id="clipitem-3056" premiereChannelType="stereo">
						<masterclipid>masterclip-98</masterclipid>
						<name>Noen få ler kort.wav</name>
						<enabled>TRUE</enabled>
						<duration>43</duration>
						<rate>
							<timebase>25</timebase>
							<ntsc>FALSE</ntsc>
						</rate>
						<start>36226</start>
						<end>36269</end>
						<in>0</in>
						<out>43</out>
						<pproTicksIn>0</pproTicksIn>
						<pproTicksOut>436907520000</pproTicksOut>
						<file id="file-94"/>
						<sourcetrack>
							<mediatype>audio</mediatype>
							<trackindex>2</trackindex>
						</sourcetrack>
							<filter>
								<effect>
									<name>Audio Levels</name>
									<effectid>audiolevels</effectid>
									<effectcategory>audiolevels</effectcategory>
									<effecttype>audiolevels</effecttype>
									<mediatype>audio</mediatype>
									<parameter authoringApp="PremierePro">
										<parameterid>level</parameterid>
										<name>Level</name>
										<valuemin>0</valuemin>
										<valuemax>3.98109</valuemax>
										<value>0.99763</value>
									</parameter>
								</effect>
							</filter>
						<link>
							<linkclipref>clipitem-2969</linkclipref>
							<mediatype>audio</mediatype>
							<trackindex>21</trackindex>
							<clipindex>60</clipindex>
							<groupindex>1</groupindex>
						</link>
						<link>
							<linkclipref>clipitem-3056</linkclipref>
							<mediatype>audio</mediatype>
							<trackindex>22</trackindex>
							<clipindex>58</clipindex>
							<groupindex>1</groupindex>
						</link>
						<logginginfo>
							<description></description>
							<scene></scene>
							<shottake></shottake>
							<lognote></lognote>
						</logginginfo>
						<labels>
							<label2>Caribbean</label2>
						</labels>
					</clipitem>
					<clipitem id="clipitem-3057" premiereChannelType="stereo">
						<masterclipid>masterclip-95</masterclipid>
						<name>Kort rask latter.wav</name>
						<enabled>TRUE</enabled>
						<duration>80</duration>
						<rate>
							<timebase>25</timebase>
							<ntsc>FALSE</ntsc>
						</rate>
						<start>36269</start>
						<end>36349</end>
						<in>0</in>
						<out>80</out>
						<pproTicksIn>0</pproTicksIn>
						<pproTicksOut>812851200000</pproTicksOut>
						<file id="file-91"/>
						<sourcetrack>
							<mediatype>audio</mediatype>
							<trackindex>2</trackindex>
						</sourcetrack>
						<link>
							<linkclipref>clipitem-2970</linkclipref>
							<mediatype>audio</mediatype>
							<trackindex>21</trackindex>
							<clipindex>61</clipindex>
							<groupindex>1</groupindex>
						</link>
						<link>
							<linkclipref>clipitem-3057</linkclipref>
							<mediatype>audio</mediatype>
							<trackindex>22</trackindex>
							<clipindex>59</clipindex>
							<groupindex>1</groupindex>
						</link>
						<logginginfo>
							<description></description>
							<scene></scene>
							<shottake></shottake>
							<lognote></lognote>
						</logginginfo>
						<labels>
							<label2>Caribbean</label2>
						</labels>
					</clipitem>
					<clipitem id="clipitem-3058" premiereChannelType="stereo">
						<masterclipid>masterclip-172</masterclipid>
						<name>Middles lang applaus, energisk med plystring.wav</name>
						<enabled>TRUE</enabled>
						<duration>166</duration>
						<rate>
							<timebase>25</timebase>
							<ntsc>FALSE</ntsc>
						</rate>
						<start>36411</start>
						<end>36524</end>
						<in>0</in>
						<out>113</out>
						<pproTicksIn>0</pproTicksIn>
						<pproTicksOut>1148152320000</pproTicksOut>
						<file id="file-168"/>
						<sourcetrack>
							<mediatype>audio</mediatype>
							<trackindex>2</trackindex>
						</sourcetrack>
							<filter>
								<effect>
									<name>Audio Levels</name>
									<effectid>audiolevels</effectid>
									<effectcategory>audiolevels</effectcategory>
									<effecttype>audiolevels</effecttype>
									<mediatype>audio</mediatype>
									<parameter authoringApp="PremierePro">
										<parameterid>level</parameterid>
										<name>Level</name>
										<valuemin>0</valuemin>
										<valuemax>3.98109</valuemax>
										<value>0.695987</value>
									</parameter>
								</effect>
							</filter>
						<link>
							<linkclipref>clipitem-2971</linkclipref>
							<mediatype>audio</mediatype>
							<trackindex>21</trackindex>
							<clipindex>62</clipindex>
							<groupindex>1</groupindex>
						</link>
						<link>
							<linkclipref>clipitem-3058</linkclipref>
							<mediatype>audio</mediatype>
							<trackindex>22</trackindex>
							<clipindex>60</clipindex>
							<groupindex>1</groupindex>
						</link>
						<logginginfo>
							<description></description>
							<scene></scene>
							<shottake></shottake>
							<lognote></lognote>
						</logginginfo>
						<labels>
							<label2>Caribbean</label2>
						</labels>
					</clipitem>
					<clipitem id="clipitem-3059" premiereChannelType="stereo">
						<masterclipid>masterclip-172</masterclipid>
						<name>Middles lang applaus, energisk med plystring.wav</name>
						<enabled>TRUE</enabled>
						<duration>166</duration>
						<rate>
							<timebase>25</timebase>
							<ntsc>FALSE</ntsc>
						</rate>
						<start>36524</start>
						<end>36577</end>
						<in>113</in>
						<out>166</out>
						<pproTicksIn>1148152320000</pproTicksIn>
						<pproTicksOut>1686666240000</pproTicksOut>
						<file id="file-168"/>
						<sourcetrack>
							<mediatype>audio</mediatype>
							<trackindex>2</trackindex>
						</sourcetrack>
							<filter>
								<effect>
									<name>Audio Levels</name>
									<effectid>audiolevels</effectid>
									<effectcategory>audiolevels</effectcategory>
									<effecttype>audiolevels</effecttype>
									<mediatype>audio</mediatype>
									<parameter authoringApp="PremierePro">
										<parameterid>level</parameterid>
										<name>Level</name>
										<valuemin>0</valuemin>
										<valuemax>3.98109</valuemax>
										<value>0.695987</value>
									</parameter>
								</effect>
							</filter>
						<link>
							<linkclipref>clipitem-2972</linkclipref>
							<mediatype>audio</mediatype>
							<trackindex>21</trackindex>
							<clipindex>63</clipindex>
							<groupindex>1</groupindex>
						</link>
						<link>
							<linkclipref>clipitem-3059</linkclipref>
							<mediatype>audio</mediatype>
							<trackindex>22</trackindex>
							<clipindex>61</clipindex>
							<groupindex>1</groupindex>
						</link>
						<logginginfo>
							<description></description>
							<scene></scene>
							<shottake></shottake>
							<lognote></lognote>
						</logginginfo>
						<labels>
							<label2>Caribbean</label2>
						</labels>
					</clipitem>
					<clipitem id="clipitem-3060" premiereChannelType="stereo">
						<masterclipid>masterclip-173</masterclipid>
						<name>Apollo_NJT_6_51__Change_Is_Inevitable__Kaveh_Cohen_Michael_David_Nielsen.mp3</name>
						<enabled>TRUE</enabled>
						<duration>5493</duration>
						<rate>
							<timebase>25</timebase>
							<ntsc>FALSE</ntsc>
						</rate>
						<start>37732</start>
						<end>-1</end>
						<in>1328</in>
						<out>1455</out>
						<pproTicksIn>13493329920000</pproTicksIn>
						<pproTicksOut>14783731200000</pproTicksOut>
						<file id="file-169"/>
						<sourcetrack>
							<mediatype>audio</mediatype>
							<trackindex>2</trackindex>
						</sourcetrack>
							<filter>
								<effect>
									<name>Audio Levels</name>
									<effectid>audiolevels</effectid>
									<effectcategory>audiolevels</effectcategory>
									<effecttype>audiolevels</effecttype>
									<mediatype>audio</mediatype>
									<parameter authoringApp="PremierePro">
										<parameterid>level</parameterid>
										<name>Level</name>
										<valuemin>0</valuemin>
										<valuemax>3.98109</valuemax>
										<value>0.099763</value>
									</parameter>
								</effect>
							</filter>
						<link>
							<linkclipref>clipitem-2973</linkclipref>
							<mediatype>audio</mediatype>
							<trackindex>21</trackindex>
							<clipindex>64</clipindex>
							<groupindex>1</groupindex>
						</link>
						<link>
							<linkclipref>clipitem-3060</linkclipref>
							<mediatype>audio</mediatype>
							<trackindex>22</trackindex>
							<clipindex>62</clipindex>
							<groupindex>1</groupindex>
						</link>
						<logginginfo>
							<description></description>
							<scene></scene>
							<shottake></shottake>
							<lognote>Epic, Action, Dramatic, Percussive, Hybrid, Modern, Gritty, Slow Burn, Heroic, Intense, Gripping, Powerful, Driving, Apocalyptic, Battle, Chase, Huge, Drums, Percussion, Guitar, Bass, Synths, Piano, Orchestra, Choir, Sound Design</lognote>
						</logginginfo>
						<labels>
							<label2>Caribbean</label2>
						</labels>
					</clipitem>
					<transitionitem>
						<start>37846</start>
						<end>37859</end>
						<alignment>center</alignment>
						<cutPointTicks>60963840000</cutPointTicks>
						<rate>
							<timebase>25</timebase>
							<ntsc>FALSE</ntsc>
						</rate>
						<effect>
							<name>Cross Fade (+3dB)</name>
							<effectid>KGAudioTransCrossFade3dB</effectid>
							<effecttype>transition</effecttype>
							<mediatype>audio</mediatype>
							<wipecode>0</wipecode>
							<wipeaccuracy>100</wipeaccuracy>
							<startratio>0</startratio>
							<endratio>1</endratio>
							<reverse>FALSE</reverse>
						</effect>
					</transitionitem>
					<clipitem id="clipitem-3061" premiereChannelType="stereo">
						<masterclipid>masterclip-173</masterclipid>
						<name>Apollo_NJT_6_51__Change_Is_Inevitable__Kaveh_Cohen_Michael_David_Nielsen.mp3</name>
						<enabled>TRUE</enabled>
						<duration>5493</duration>
						<rate>
							<timebase>25</timebase>
							<ntsc>FALSE</ntsc>
						</rate>
						<start>-1</start>
						<end>-1</end>
						<in>1442</in>
						<out>1605</out>
						<pproTicksIn>14651642880000</pproTicksIn>
						<pproTicksOut>16307827200000</pproTicksOut>
						<file id="file-169"/>
						<sourcetrack>
							<mediatype>audio</mediatype>
							<trackindex>2</trackindex>
						</sourcetrack>
							<filter>
								<effect>
									<name>Audio Levels</name>
									<effectid>audiolevels</effectid>
									<effectcategory>audiolevels</effectcategory>
									<effecttype>audiolevels</effecttype>
									<mediatype>audio</mediatype>
									<parameter authoringApp="PremierePro">
										<parameterid>level</parameterid>
										<name>Level</name>
										<valuemin>0</valuemin>
										<valuemax>3.98109</valuemax>
										<value>0.353972</value>
									</parameter>
								</effect>
							</filter>
						<link>
							<linkclipref>clipitem-2974</linkclipref>
							<mediatype>audio</mediatype>
							<trackindex>21</trackindex>
							<clipindex>66</clipindex>
							<groupindex>1</groupindex>
						</link>
						<link>
							<linkclipref>clipitem-3061</linkclipref>
							<mediatype>audio</mediatype>
							<trackindex>22</trackindex>
							<clipindex>64</clipindex>
							<groupindex>1</groupindex>
						</link>
						<logginginfo>
							<description></description>
							<scene></scene>
							<shottake></shottake>
							<lognote>Epic, Action, Dramatic, Percussive, Hybrid, Modern, Gritty, Slow Burn, Heroic, Intense, Gripping, Powerful, Driving, Apocalyptic, Battle, Chase, Huge, Drums, Percussion, Guitar, Bass, Synths, Piano, Orchestra, Choir, Sound Design</lognote>
						</logginginfo>
						<labels>
							<label2>Caribbean</label2>
						</labels>
					</clipitem>
					<transitionitem>
						<start>37996</start>
						<end>38009</end>
						<alignment>center</alignment>
						<cutPointTicks>60963840000</cutPointTicks>
						<rate>
							<timebase>25</timebase>
							<ntsc>FALSE</ntsc>
						</rate>
						<effect>
							<name>Cross Fade (+3dB)</name>
							<effectid>KGAudioTransCrossFade3dB</effectid>
							<effecttype>transition</effecttype>
							<mediatype>audio</mediatype>
							<wipecode>0</wipecode>
							<wipeaccuracy>100</wipeaccuracy>
							<startratio>0</startratio>
							<endratio>1</endratio>
							<reverse>FALSE</reverse>
						</effect>
					</transitionitem>
					<clipitem id="clipitem-3062" premiereChannelType="stereo">
						<masterclipid>masterclip-173</masterclipid>
						<name>Apollo_NJT_6_51__Change_Is_Inevitable__Kaveh_Cohen_Michael_David_Nielsen.mp3</name>
						<enabled>TRUE</enabled>
						<duration>5493</duration>
						<rate>
							<timebase>25</timebase>
							<ntsc>FALSE</ntsc>
						</rate>
						<start>-1</start>
						<end>-1</end>
						<in>1592</in>
						<out>1797</out>
						<pproTicksIn>16175738880000</pproTicksIn>
						<pproTicksOut>18258670080000</pproTicksOut>
						<file id="file-169"/>
						<sourcetrack>
							<mediatype>audio</mediatype>
							<trackindex>2</trackindex>
						</sourcetrack>
							<filter>
								<effect>
									<name>Audio Levels</name>
									<effectid>audiolevels</effectid>
									<effectcategory>audiolevels</effectcategory>
									<effecttype>audiolevels</effecttype>
									<mediatype>audio</mediatype>
									<parameter authoringApp="PremierePro">
										<parameterid>level</parameterid>
										<name>Level</name>
										<valuemin>0</valuemin>
										<valuemax>3.98109</valuemax>
										<value>0.125594</value>
									</parameter>
								</effect>
							</filter>
						<link>
							<linkclipref>clipitem-2975</linkclipref>
							<mediatype>audio</mediatype>
							<trackindex>21</trackindex>
							<clipindex>68</clipindex>
							<groupindex>1</groupindex>
						</link>
						<link>
							<linkclipref>clipitem-3062</linkclipref>
							<mediatype>audio</mediatype>
							<trackindex>22</trackindex>
							<clipindex>66</clipindex>
							<groupindex>1</groupindex>
						</link>
						<logginginfo>
							<description></description>
							<scene></scene>
							<shottake></shottake>
							<lognote>Epic, Action, Dramatic, Percussive, Hybrid, Modern, Gritty, Slow Burn, Heroic, Intense, Gripping, Powerful, Driving, Apocalyptic, Battle, Chase, Huge, Drums, Percussion, Guitar, Bass, Synths, Piano, Orchestra, Choir, Sound Design</lognote>
						</logginginfo>
						<labels>
							<label2>Caribbean</label2>
						</labels>
					</clipitem>
					<transitionitem>
						<start>38178</start>
						<end>38201</end>
						<alignment>center</alignment>
						<cutPointTicks>111767040000</cutPointTicks>
						<rate>
							<timebase>25</timebase>
							<ntsc>FALSE</ntsc>
						</rate>
						<effect>
							<name>Cross Fade (+3dB)</name>
							<effectid>KGAudioTransCrossFade3dB</effectid>
							<effecttype>transition</effecttype>
							<mediatype>audio</mediatype>
							<wipecode>0</wipecode>
							<wipeaccuracy>100</wipeaccuracy>
							<startratio>0</startratio>
							<endratio>1</endratio>
							<reverse>FALSE</reverse>
						</effect>
					</transitionitem>
					<clipitem id="clipitem-3063" premiereChannelType="stereo">
						<masterclipid>masterclip-173</masterclipid>
						<name>Apollo_NJT_6_51__Change_Is_Inevitable__Kaveh_Cohen_Michael_David_Nielsen.mp3</name>
						<enabled>TRUE</enabled>
						<duration>5493</duration>
						<rate>
							<timebase>25</timebase>
							<ntsc>FALSE</ntsc>
						</rate>
						<start>-1</start>
						<end>-1</end>
						<in>1774</in>
						<out>1858</out>
						<pproTicksIn>18024975360000</pproTicksIn>
						<pproTicksOut>18878469120000</pproTicksOut>
						<file id="file-169"/>
						<sourcetrack>
							<mediatype>audio</mediatype>
							<trackindex>2</trackindex>
						</sourcetrack>
							<filter>
								<effect>
									<name>Audio Levels</name>
									<effectid>audiolevels</effectid>
									<effectcategory>audiolevels</effectcategory>
									<effecttype>audiolevels</effecttype>
									<mediatype>audio</mediatype>
									<parameter authoringApp="PremierePro">
										<parameterid>level</parameterid>
										<name>Level</name>
										<valuemin>0</valuemin>
										<valuemax>3.98109</valuemax>
										<value>0.28117</value>
									</parameter>
								</effect>
							</filter>
						<link>
							<linkclipref>clipitem-2976</linkclipref>
							<mediatype>audio</mediatype>
							<trackindex>21</trackindex>
							<clipindex>70</clipindex>
							<groupindex>1</groupindex>
						</link>
						<link>
							<linkclipref>clipitem-3063</linkclipref>
							<mediatype>audio</mediatype>
							<trackindex>22</trackindex>
							<clipindex>68</clipindex>
							<groupindex>1</groupindex>
						</link>
						<logginginfo>
							<description></description>
							<scene></scene>
							<shottake></shottake>
							<lognote>Epic, Action, Dramatic, Percussive, Hybrid, Modern, Gritty, Slow Burn, Heroic, Intense, Gripping, Powerful, Driving, Apocalyptic, Battle, Chase, Huge, Drums, Percussion, Guitar, Bass, Synths, Piano, Orchestra, Choir, Sound Design</lognote>
						</logginginfo>
						<labels>
							<label2>Caribbean</label2>
						</labels>
					</clipitem>
					<transitionitem>
						<start>38259</start>
						<end>38262</end>
						<alignment>end-black</alignment>
						<cutPointTicks>30481920000</cutPointTicks>
						<rate>
							<timebase>25</timebase>
							<ntsc>FALSE</ntsc>
						</rate>
						<effect>
							<name>Cross Fade (+3dB)</name>
							<effectid>KGAudioTransCrossFade3dB</effectid>
							<effecttype>transition</effecttype>
							<mediatype>audio</mediatype>
							<wipecode>0</wipecode>
							<wipeaccuracy>100</wipeaccuracy>
							<startratio>0</startratio>
							<endratio>1</endratio>
							<reverse>FALSE</reverse>
						</effect>
					</transitionitem>
					<transitionitem>
						<start>38387</start>
						<end>38400</end>
						<alignment>start-black</alignment>
						<cutPointTicks>0</cutPointTicks>
						<rate>
							<timebase>25</timebase>
							<ntsc>FALSE</ntsc>
						</rate>
						<effect>
							<name>Cross Fade (+3dB)</name>
							<effectid>KGAudioTransCrossFade3dB</effectid>
							<effecttype>transition</effecttype>
							<mediatype>audio</mediatype>
							<wipecode>0</wipecode>
							<wipeaccuracy>100</wipeaccuracy>
							<startratio>0</startratio>
							<endratio>1</endratio>
							<reverse>FALSE</reverse>
						</effect>
					</transitionitem>
					<clipitem id="clipitem-3064" premiereChannelType="stereo">
						<masterclipid>masterclip-174</masterclipid>
						<name>NONRO136048CD0002 Les Champs Élysées.wav</name>
						<enabled>TRUE</enabled>
						<duration>3971</duration>
						<rate>
							<timebase>25</timebase>
							<ntsc>FALSE</ntsc>
						</rate>
						<start>-1</start>
						<end>-1</end>
						<in>664</in>
						<out>1367</out>
						<pproTicksIn>6746664960000</pproTicksIn>
						<pproTicksOut>13889594880000</pproTicksOut>
						<file id="file-170"/>
						<sourcetrack>
							<mediatype>audio</mediatype>
							<trackindex>2</trackindex>
						</sourcetrack>
							<filter>
								<effect>
									<name>Audio Levels</name>
									<effectid>audiolevels</effectid>
									<effectcategory>audiolevels</effectcategory>
									<effecttype>audiolevels</effecttype>
									<mediatype>audio</mediatype>
									<parameter authoringApp="PremierePro">
										<parameterid>level</parameterid>
										<name>Level</name>
										<valuemin>0</valuemin>
										<valuemax>3.98109</valuemax>
										<value>0.099763</value>
									</parameter>
								</effect>
							</filter>
						<link>
							<linkclipref>clipitem-2977</linkclipref>
							<mediatype>audio</mediatype>
							<trackindex>21</trackindex>
							<clipindex>73</clipindex>
							<groupindex>1</groupindex>
						</link>
						<link>
							<linkclipref>clipitem-3064</linkclipref>
							<mediatype>audio</mediatype>
							<trackindex>22</trackindex>
							<clipindex>71</clipindex>
							<groupindex>1</groupindex>
						</link>
						<logginginfo>
							<description></description>
							<scene></scene>
							<shottake></shottake>
							<lognote>CD Track 2 archiveNo[136048014]</lognote>
						</logginginfo>
						<labels>
							<label2>Caribbean</label2>
						</labels>
					</clipitem>
					<transitionitem>
						<start>38899</start>
						<end>39090</end>
						<alignment>end-black</alignment>
						<cutPointTicks>1940682240000</cutPointTicks>
						<rate>
							<timebase>25</timebase>
							<ntsc>FALSE</ntsc>
						</rate>
						<effect>
							<name>Cross Fade (+3dB)</name>
							<effectid>KGAudioTransCrossFade3dB</effectid>
							<effecttype>transition</effecttype>
							<mediatype>audio</mediatype>
							<wipecode>0</wipecode>
							<wipeaccuracy>100</wipeaccuracy>
							<startratio>0</startratio>
							<endratio>1</endratio>
							<reverse>FALSE</reverse>
						</effect>
					</transitionitem>
					<transitionitem>
						<start>39799</start>
						<end>39851</end>
						<alignment>start-black</alignment>
						<cutPointTicks>0</cutPointTicks>
						<rate>
							<timebase>25</timebase>
							<ntsc>FALSE</ntsc>
						</rate>
						<effect>
							<name>Cross Fade (+3dB)</name>
							<effectid>KGAudioTransCrossFade3dB</effectid>
							<effecttype>transition</effecttype>
							<mediatype>audio</mediatype>
							<wipecode>0</wipecode>
							<wipeaccuracy>100</wipeaccuracy>
							<startratio>0</startratio>
							<endratio>1</endratio>
							<reverse>FALSE</reverse>
						</effect>
					</transitionitem>
					<clipitem id="clipitem-3065" premiereChannelType="stereo">
						<masterclipid>masterclip-175</masterclipid>
						<name>NONRO164516CD0001 Heia tufte! (fra reality-serie.wav</name>
						<enabled>TRUE</enabled>
						<duration>3182</duration>
						<rate>
							<timebase>25</timebase>
							<ntsc>FALSE</ntsc>
						</rate>
						<start>-1</start>
						<end>-1</end>
						<in>959</in>
						<out>1078</out>
						<pproTicksIn>9744053760000</pproTicksIn>
						<pproTicksOut>10953169920000</pproTicksOut>
						<file id="file-171"/>
						<sourcetrack>
							<mediatype>audio</mediatype>
							<trackindex>2</trackindex>
						</sourcetrack>
							<filter>
								<effect>
									<name>Audio Levels</name>
									<effectid>audiolevels</effectid>
									<effectcategory>audiolevels</effectcategory>
									<effecttype>audiolevels</effecttype>
									<mediatype>audio</mediatype>
									<parameter authoringApp="PremierePro">
										<parameterid>level</parameterid>
										<name>Level</name>
										<valuemin>0</valuemin>
										<valuemax>3.98109</valuemax>
										<value>0.28117</value>
									</parameter>
								</effect>
							</filter>
						<link>
							<linkclipref>clipitem-2978</linkclipref>
							<mediatype>audio</mediatype>
							<trackindex>21</trackindex>
							<clipindex>76</clipindex>
							<groupindex>1</groupindex>
						</link>
						<link>
							<linkclipref>clipitem-3065</linkclipref>
							<mediatype>audio</mediatype>
							<trackindex>22</trackindex>
							<clipindex>74</clipindex>
							<groupindex>1</groupindex>
						</link>
						<logginginfo>
							<description></description>
							<scene></scene>
							<shottake></shottake>
							<lognote>CD Track 1 archiveNo[164516015]</lognote>
						</logginginfo>
						<labels>
							<label2>Caribbean</label2>
						</labels>
					</clipitem>
					<transitionitem>
						<start>39895</start>
						<end>39918</end>
						<alignment>center</alignment>
						<cutPointTicks>111767040000</cutPointTicks>
						<rate>
							<timebase>25</timebase>
							<ntsc>FALSE</ntsc>
						</rate>
						<effect>
							<name>Cross Fade (+3dB)</name>
							<effectid>KGAudioTransCrossFade3dB</effectid>
							<effecttype>transition</effecttype>
							<mediatype>audio</mediatype>
							<wipecode>0</wipecode>
							<wipeaccuracy>100</wipeaccuracy>
							<startratio>0</startratio>
							<endratio>1</endratio>
							<reverse>FALSE</reverse>
						</effect>
					</transitionitem>
					<clipitem id="clipitem-3066" premiereChannelType="stereo">
						<masterclipid>masterclip-175</masterclipid>
						<name>NONRO164516CD0001 Heia tufte! (fra reality-serie.wav</name>
						<enabled>TRUE</enabled>
						<duration>3182</duration>
						<rate>
							<timebase>25</timebase>
							<ntsc>FALSE</ntsc>
						</rate>
						<start>-1</start>
						<end>-1</end>
						<in>1055</in>
						<out>1282</out>
						<pproTicksIn>10719475200000</pproTicksIn>
						<pproTicksOut>13025940480000</pproTicksOut>
						<file id="file-171"/>
						<sourcetrack>
							<mediatype>audio</mediatype>
							<trackindex>2</trackindex>
						</sourcetrack>
							<filter>
								<effect>
									<name>Audio Levels</name>
									<effectid>audiolevels</effectid>
									<effectcategory>audiolevels</effectcategory>
									<effecttype>audiolevels</effecttype>
									<mediatype>audio</mediatype>
									<parameter authoringApp="PremierePro">
										<parameterid>level</parameterid>
										<name>Level</name>
										<valuemin>0</valuemin>
										<valuemax>3.98109</valuemax>
										<value>0.0353972</value>
									</parameter>
								</effect>
							</filter>
						<link>
							<linkclipref>clipitem-2979</linkclipref>
							<mediatype>audio</mediatype>
							<trackindex>21</trackindex>
							<clipindex>78</clipindex>
							<groupindex>1</groupindex>
						</link>
						<link>
							<linkclipref>clipitem-3066</linkclipref>
							<mediatype>audio</mediatype>
							<trackindex>22</trackindex>
							<clipindex>76</clipindex>
							<groupindex>1</groupindex>
						</link>
						<logginginfo>
							<description></description>
							<scene></scene>
							<shottake></shottake>
							<lognote>CD Track 1 archiveNo[164516015]</lognote>
						</logginginfo>
						<labels>
							<label2>Caribbean</label2>
						</labels>
					</clipitem>
					<transitionitem>
						<start>40071</start>
						<end>40122</end>
						<alignment>end-black</alignment>
						<cutPointTicks>518192640000</cutPointTicks>
						<rate>
							<timebase>25</timebase>
							<ntsc>FALSE</ntsc>
						</rate>
						<effect>
							<name>Cross Fade (+3dB)</name>
							<effectid>KGAudioTransCrossFade3dB</effectid>
							<effecttype>transition</effecttype>
							<mediatype>audio</mediatype>
							<wipecode>0</wipecode>
							<wipeaccuracy>100</wipeaccuracy>
							<startratio>0</startratio>
							<endratio>1</endratio>
							<reverse>FALSE</reverse>
						</effect>
					</transitionitem>
					<transitionitem>
						<start>40218</start>
						<end>40266</end>
						<alignment>start-black</alignment>
						<cutPointTicks>0</cutPointTicks>
						<rate>
							<timebase>25</timebase>
							<ntsc>FALSE</ntsc>
						</rate>
						<effect>
							<name>Cross Fade (+3dB)</name>
							<effectid>KGAudioTransCrossFade3dB</effectid>
							<effecttype>transition</effecttype>
							<mediatype>audio</mediatype>
							<wipecode>0</wipecode>
							<wipeaccuracy>100</wipeaccuracy>
							<startratio>0</startratio>
							<endratio>1</endratio>
							<reverse>FALSE</reverse>
						</effect>
					</transitionitem>
					<clipitem id="clipitem-3067" premiereChannelType="stereo">
						<masterclipid>masterclip-175</masterclipid>
						<name>NONRO164516CD0001 Heia tufte! (fra reality-serie.wav</name>
						<enabled>TRUE</enabled>
						<duration>3182</duration>
						<rate>
							<timebase>25</timebase>
							<ntsc>FALSE</ntsc>
						</rate>
						<start>-1</start>
						<end>-1</end>
						<in>1413</in>
						<out>1655</out>
						<pproTicksIn>14356984320000</pproTicksIn>
						<pproTicksOut>16815859200000</pproTicksOut>
						<file id="file-171"/>
						<sourcetrack>
							<mediatype>audio</mediatype>
							<trackindex>2</trackindex>
						</sourcetrack>
							<filter>
								<effect>
									<name>Audio Levels</name>
									<effectid>audiolevels</effectid>
									<effectcategory>audiolevels</effectcategory>
									<effecttype>audiolevels</effecttype>
									<mediatype>audio</mediatype>
									<parameter authoringApp="PremierePro">
										<parameterid>level</parameterid>
										<name>Level</name>
										<valuemin>0</valuemin>
										<valuemax>3.98109</valuemax>
										<value>0.0629462</value>
									</parameter>
								</effect>
							</filter>
						<link>
							<linkclipref>clipitem-2980</linkclipref>
							<mediatype>audio</mediatype>
							<trackindex>21</trackindex>
							<clipindex>81</clipindex>
							<groupindex>1</groupindex>
						</link>
						<link>
							<linkclipref>clipitem-3067</linkclipref>
							<mediatype>audio</mediatype>
							<trackindex>22</trackindex>
							<clipindex>79</clipindex>
							<groupindex>1</groupindex>
						</link>
						<logginginfo>
							<description></description>
							<scene></scene>
							<shottake></shottake>
							<lognote>CD Track 1 archiveNo[164516015]</lognote>
						</logginginfo>
						<labels>
							<label2>Caribbean</label2>
						</labels>
					</clipitem>
					<transitionitem>
						<start>40431</start>
						<end>40460</end>
						<alignment>center</alignment>
						<cutPointTicks>142248960000</cutPointTicks>
						<rate>
							<timebase>25</timebase>
							<ntsc>FALSE</ntsc>
						</rate>
						<effect>
							<name>Cross Fade (+3dB)</name>
							<effectid>KGAudioTransCrossFade3dB</effectid>
							<effecttype>transition</effecttype>
							<mediatype>audio</mediatype>
							<wipecode>0</wipecode>
							<wipeaccuracy>100</wipeaccuracy>
							<startratio>0</startratio>
							<endratio>1</endratio>
							<reverse>FALSE</reverse>
						</effect>
					</transitionitem>
					<clipitem id="clipitem-3068" premiereChannelType="stereo">
						<masterclipid>masterclip-175</masterclipid>
						<name>NONRO164516CD0001 Heia tufte! (fra reality-serie.wav</name>
						<enabled>TRUE</enabled>
						<duration>3182</duration>
						<rate>
							<timebase>25</timebase>
							<ntsc>FALSE</ntsc>
						</rate>
						<start>-1</start>
						<end>40850</end>
						<in>1626</in>
						<out>2045</out>
						<pproTicksIn>16521200640000</pproTicksIn>
						<pproTicksOut>20778508800000</pproTicksOut>
						<file id="file-171"/>
						<sourcetrack>
							<mediatype>audio</mediatype>
							<trackindex>2</trackindex>
						</sourcetrack>
							<filter>
								<effect>
									<name>Audio Levels</name>
									<effectid>audiolevels</effectid>
									<effectcategory>audiolevels</effectcategory>
									<effecttype>audiolevels</effecttype>
									<mediatype>audio</mediatype>
									<parameter authoringApp="PremierePro">
										<parameterid>level</parameterid>
										<name>Level</name>
										<valuemin>0</valuemin>
										<valuemax>3.98109</valuemax>
										<value>0</value>
										<keyframe>
											<when>1693</when>
											<value>0.28117</value>
										</keyframe>
										<keyframe>
											<when>1760</when>
											<value>0.0560637</value>
										</keyframe>
										<keyframe>
											<when>1978</when>
											<value>0</value>
										</keyframe>
									</parameter>
								</effect>
							</filter>
						<link>
							<linkclipref>clipitem-2981</linkclipref>
							<mediatype>audio</mediatype>
							<trackindex>21</trackindex>
							<clipindex>83</clipindex>
							<groupindex>1</groupindex>
						</link>
						<link>
							<linkclipref>clipitem-3068</linkclipref>
							<mediatype>audio</mediatype>
							<trackindex>22</trackindex>
							<clipindex>81</clipindex>
							<groupindex>1</groupindex>
						</link>
						<logginginfo>
							<description></description>
							<scene></scene>
							<shottake></shottake>
							<lognote>CD Track 1 archiveNo[164516015]</lognote>
						</logginginfo>
						<labels>
							<label2>Caribbean</label2>
						</labels>
					</clipitem>
					<clipitem id="clipitem-3069" premiereChannelType="stereo">
						<masterclipid>masterclip-176</masterclipid>
						<name>Latter kort dempet.wav</name>
						<enabled>TRUE</enabled>
						<duration>47</duration>
						<rate>
							<timebase>25</timebase>
							<ntsc>FALSE</ntsc>
						</rate>
						<start>41074</start>
						<end>41121</end>
						<in>0</in>
						<out>47</out>
						<pproTicksIn>0</pproTicksIn>
						<pproTicksOut>477550080000</pproTicksOut>
						<file id="file-172"/>
						<sourcetrack>
							<mediatype>audio</mediatype>
							<trackindex>2</trackindex>
						</sourcetrack>
						<link>
							<linkclipref>clipitem-2982</linkclipref>
							<mediatype>audio</mediatype>
							<trackindex>21</trackindex>
							<clipindex>84</clipindex>
							<groupindex>1</groupindex>
						</link>
						<link>
							<linkclipref>clipitem-3069</linkclipref>
							<mediatype>audio</mediatype>
							<trackindex>22</trackindex>
							<clipindex>82</clipindex>
							<groupindex>1</groupindex>
						</link>
						<logginginfo>
							<description></description>
							<scene></scene>
							<shottake></shottake>
							<lognote></lognote>
						</logginginfo>
						<labels>
							<label2>Caribbean</label2>
						</labels>
					</clipitem>
					<clipitem id="clipitem-3070" premiereChannelType="stereo">
						<masterclipid>masterclip-88</masterclipid>
						<name>Latter hehehe.wav</name>
						<enabled>TRUE</enabled>
						<duration>30</duration>
						<rate>
							<timebase>25</timebase>
							<ntsc>FALSE</ntsc>
						</rate>
						<start>41305</start>
						<end>41335</end>
						<in>0</in>
						<out>30</out>
						<pproTicksIn>0</pproTicksIn>
						<pproTicksOut>304819200000</pproTicksOut>
						<file id="file-84"/>
						<sourcetrack>
							<mediatype>audio</mediatype>
							<trackindex>2</trackindex>
						</sourcetrack>
						<link>
							<linkclipref>clipitem-2983</linkclipref>
							<mediatype>audio</mediatype>
							<trackindex>21</trackindex>
							<clipindex>85</clipindex>
							<groupindex>1</groupindex>
						</link>
						<link>
							<linkclipref>clipitem-3070</linkclipref>
							<mediatype>audio</mediatype>
							<trackindex>22</trackindex>
							<clipindex>83</clipindex>
							<groupindex>1</groupindex>
						</link>
						<logginginfo>
							<description></description>
							<scene></scene>
							<shottake></shottake>
							<lognote></lognote>
						</logginginfo>
						<labels>
							<label2>Caribbean</label2>
						</labels>
					</clipitem>
					<clipitem id="clipitem-3071" premiereChannelType="stereo">
						<masterclipid>masterclip-104</masterclipid>
						<name>Latter klukking.wav</name>
						<enabled>TRUE</enabled>
						<duration>129</duration>
						<rate>
							<timebase>25</timebase>
							<ntsc>FALSE</ntsc>
						</rate>
						<start>41642</start>
						<end>41771</end>
						<in>0</in>
						<out>129</out>
						<pproTicksIn>0</pproTicksIn>
						<pproTicksOut>1310722560000</pproTicksOut>
						<file id="file-100"/>
						<sourcetrack>
							<mediatype>audio</mediatype>
							<trackindex>2</trackindex>
						</sourcetrack>
						<link>
							<linkclipref>clipitem-2984</linkclipref>
							<mediatype>audio</mediatype>
							<trackindex>21</trackindex>
							<clipindex>86</clipindex>
							<groupindex>1</groupindex>
						</link>
						<link>
							<linkclipref>clipitem-3071</linkclipref>
							<mediatype>audio</mediatype>
							<trackindex>22</trackindex>
							<clipindex>84</clipindex>
							<groupindex>1</groupindex>
						</link>
						<logginginfo>
							<description></description>
							<scene></scene>
							<shottake></shottake>
							<lognote></lognote>
						</logginginfo>
						<labels>
							<label2>Caribbean</label2>
						</labels>
					</clipitem>
					<clipitem id="clipitem-3072" premiereChannelType="stereo">
						<masterclipid>masterclip-177</masterclipid>
						<name>Applaus kraftig.wav</name>
						<enabled>TRUE</enabled>
						<duration>206</duration>
						<rate>
							<timebase>25</timebase>
							<ntsc>FALSE</ntsc>
						</rate>
						<start>41808</start>
						<end>42014</end>
						<in>0</in>
						<out>206</out>
						<pproTicksIn>0</pproTicksIn>
						<pproTicksOut>2093091840000</pproTicksOut>
						<file id="file-173"/>
						<sourcetrack>
							<mediatype>audio</mediatype>
							<trackindex>2</trackindex>
						</sourcetrack>
						<link>
							<linkclipref>clipitem-2985</linkclipref>
							<mediatype>audio</mediatype>
							<trackindex>21</trackindex>
							<clipindex>87</clipindex>
							<groupindex>1</groupindex>
						</link>
						<link>
							<linkclipref>clipitem-3072</linkclipref>
							<mediatype>audio</mediatype>
							<trackindex>22</trackindex>
							<clipindex>85</clipindex>
							<groupindex>1</groupindex>
						</link>
						<logginginfo>
							<description></description>
							<scene></scene>
							<shottake></shottake>
							<lognote></lognote>
						</logginginfo>
						<labels>
							<label2>Caribbean</label2>
						</labels>
					</clipitem>
					<clipitem id="clipitem-3073" premiereChannelType="stereo">
						<masterclipid>masterclip-178</masterclipid>
						<name>Latter kort med humring.wav</name>
						<enabled>TRUE</enabled>
						<duration>104</duration>
						<rate>
							<timebase>25</timebase>
							<ntsc>FALSE</ntsc>
						</rate>
						<start>42427</start>
						<end>42494</end>
						<in>37</in>
						<out>104</out>
						<pproTicksIn>375943680000</pproTicksIn>
						<pproTicksOut>1056706560000</pproTicksOut>
						<file id="file-174"/>
						<sourcetrack>
							<mediatype>audio</mediatype>
							<trackindex>2</trackindex>
						</sourcetrack>
						<link>
							<linkclipref>clipitem-2986</linkclipref>
							<mediatype>audio</mediatype>
							<trackindex>21</trackindex>
							<clipindex>88</clipindex>
							<groupindex>1</groupindex>
						</link>
						<link>
							<linkclipref>clipitem-3073</linkclipref>
							<mediatype>audio</mediatype>
							<trackindex>22</trackindex>
							<clipindex>86</clipindex>
							<groupindex>1</groupindex>
						</link>
						<logginginfo>
							<description></description>
							<scene></scene>
							<shottake></shottake>
							<lognote></lognote>
						</logginginfo>
						<labels>
							<label2>Caribbean</label2>
						</labels>
					</clipitem>
					<clipitem id="clipitem-3074" premiereChannelType="stereo">
						<masterclipid>masterclip-179</masterclipid>
						<name>Latter reservert går over i applaus.wav</name>
						<enabled>TRUE</enabled>
						<duration>316</duration>
						<rate>
							<timebase>25</timebase>
							<ntsc>FALSE</ntsc>
						</rate>
						<start>42955</start>
						<end>43041</end>
						<in>0</in>
						<out>86</out>
						<pproTicksIn>0</pproTicksIn>
						<pproTicksOut>873815040000</pproTicksOut>
						<file id="file-175"/>
						<sourcetrack>
							<mediatype>audio</mediatype>
							<trackindex>2</trackindex>
						</sourcetrack>
						<link>
							<linkclipref>clipitem-2987</linkclipref>
							<mediatype>audio</mediatype>
							<trackindex>21</trackindex>
							<clipindex>89</clipindex>
							<groupindex>1</groupindex>
						</link>
						<link>
							<linkclipref>clipitem-3074</linkclipref>
							<mediatype>audio</mediatype>
							<trackindex>22</trackindex>
							<clipindex>87</clipindex>
							<groupindex>1</groupindex>
						</link>
						<logginginfo>
							<description></description>
							<scene></scene>
							<shottake></shottake>
							<lognote></lognote>
						</logginginfo>
						<labels>
							<label2>Caribbean</label2>
						</labels>
					</clipitem>
					<clipitem id="clipitem-3075" premiereChannelType="stereo">
						<masterclipid>masterclip-176</masterclipid>
						<name>Latter kort dempet.wav</name>
						<enabled>TRUE</enabled>
						<duration>47</duration>
						<rate>
							<timebase>25</timebase>
							<ntsc>FALSE</ntsc>
						</rate>
						<start>43347</start>
						<end>43394</end>
						<in>0</in>
						<out>47</out>
						<pproTicksIn>0</pproTicksIn>
						<pproTicksOut>477550080000</pproTicksOut>
						<file id="file-172"/>
						<sourcetrack>
							<mediatype>audio</mediatype>
							<trackindex>2</trackindex>
						</sourcetrack>
						<link>
							<linkclipref>clipitem-2988</linkclipref>
							<mediatype>audio</mediatype>
							<trackindex>21</trackindex>
							<clipindex>90</clipindex>
							<groupindex>1</groupindex>
						</link>
						<link>
							<linkclipref>clipitem-3075</linkclipref>
							<mediatype>audio</mediatype>
							<trackindex>22</trackindex>
							<clipindex>88</clipindex>
							<groupindex>1</groupindex>
						</link>
						<logginginfo>
							<description></description>
							<scene></scene>
							<shottake></shottake>
							<lognote></lognote>
						</logginginfo>
						<labels>
							<label2>Caribbean</label2>
						</labels>
					</clipitem>
					<clipitem id="clipitem-3076" premiereChannelType="stereo">
						<masterclipid>masterclip-102</masterclipid>
						<name>Applaus 7 sek høflig.wav</name>
						<enabled>TRUE</enabled>
						<duration>189</duration>
						<rate>
							<timebase>25</timebase>
							<ntsc>FALSE</ntsc>
						</rate>
						<start>46501</start>
						<end>46690</end>
						<in>0</in>
						<out>189</out>
						<pproTicksIn>0</pproTicksIn>
						<pproTicksOut>1920360960000</pproTicksOut>
						<file id="file-98"/>
						<sourcetrack>
							<mediatype>audio</mediatype>
							<trackindex>2</trackindex>
						</sourcetrack>
						<link>
							<linkclipref>clipitem-2989</linkclipref>
							<mediatype>audio</mediatype>
							<trackindex>21</trackindex>
							<clipindex>91</clipindex>
							<groupindex>1</groupindex>
						</link>
						<link>
							<linkclipref>clipitem-3076</linkclipref>
							<mediatype>audio</mediatype>
							<trackindex>22</trackindex>
							<clipindex>89</clipindex>
							<groupindex>1</groupindex>
						</link>
						<logginginfo>
							<description></description>
							<scene></scene>
							<shottake></shottake>
							<lognote></lognote>
						</logginginfo>
						<labels>
							<label2>Caribbean</label2>
						</labels>
					</clipitem>
					<clipitem id="clipitem-3077" premiereChannelType="stereo">
						<masterclipid>masterclip-180</masterclipid>
						<name>Kort middels latterkule.wav</name>
						<enabled>TRUE</enabled>
						<duration>76</duration>
						<rate>
							<timebase>25</timebase>
							<ntsc>FALSE</ntsc>
						</rate>
						<start>49430</start>
						<end>49506</end>
						<in>0</in>
						<out>76</out>
						<pproTicksIn>0</pproTicksIn>
						<pproTicksOut>772208640000</pproTicksOut>
						<file id="file-176"/>
						<sourcetrack>
							<mediatype>audio</mediatype>
							<trackindex>2</trackindex>
						</sourcetrack>
						<link>
							<linkclipref>clipitem-2990</linkclipref>
							<mediatype>audio</mediatype>
							<trackindex>21</trackindex>
							<clipindex>92</clipindex>
							<groupindex>1</groupindex>
						</link>
						<link>
							<linkclipref>clipitem-3077</linkclipref>
							<mediatype>audio</mediatype>
							<trackindex>22</trackindex>
							<clipindex>90</clipindex>
							<groupindex>1</groupindex>
						</link>
						<logginginfo>
							<description></description>
							<scene></scene>
							<shottake></shottake>
							<lognote></lognote>
						</logginginfo>
						<labels>
							<label2>Caribbean</label2>
						</labels>
					</clipitem>
					<clipitem id="clipitem-3078" premiereChannelType="stereo">
						<masterclipid>masterclip-145</masterclipid>
						<name>Kort latter Hege.wav</name>
						<enabled>TRUE</enabled>
						<duration>77</duration>
						<rate>
							<timebase>25</timebase>
							<ntsc>FALSE</ntsc>
						</rate>
						<start>51164</start>
						<end>51241</end>
						<in>0</in>
						<out>77</out>
						<pproTicksIn>0</pproTicksIn>
						<pproTicksOut>782369280000</pproTicksOut>
						<file id="file-141"/>
						<sourcetrack>
							<mediatype>audio</mediatype>
							<trackindex>2</trackindex>
						</sourcetrack>
						<link>
							<linkclipref>clipitem-2992</linkclipref>
							<mediatype>audio</mediatype>
							<trackindex>21</trackindex>
							<clipindex>94</clipindex>
							<groupindex>1</groupindex>
						</link>
						<link>
							<linkclipref>clipitem-3078</linkclipref>
							<mediatype>audio</mediatype>
							<trackindex>22</trackindex>
							<clipindex>91</clipindex>
							<groupindex>1</groupindex>
						</link>
						<logginginfo>
							<description></description>
							<scene></scene>
							<shottake></shottake>
							<lognote></lognote>
						</logginginfo>
						<labels>
							<label2>Caribbean</label2>
						</labels>
					</clipitem>
					<clipitem id="clipitem-3079" premiereChannelType="stereo">
						<masterclipid>masterclip-144</masterclipid>
						<name>Enkel, kort latter.wav</name>
						<enabled>TRUE</enabled>
						<duration>69</duration>
						<rate>
							<timebase>25</timebase>
							<ntsc>FALSE</ntsc>
						</rate>
						<start>52102</start>
						<end>52171</end>
						<in>0</in>
						<out>69</out>
						<pproTicksIn>0</pproTicksIn>
						<pproTicksOut>701084160000</pproTicksOut>
						<file id="file-140"/>
						<sourcetrack>
							<mediatype>audio</mediatype>
							<trackindex>2</trackindex>
						</sourcetrack>
						<link>
							<linkclipref>clipitem-2993</linkclipref>
							<mediatype>audio</mediatype>
							<trackindex>21</trackindex>
							<clipindex>95</clipindex>
							<groupindex>1</groupindex>
						</link>
						<link>
							<linkclipref>clipitem-3079</linkclipref>
							<mediatype>audio</mediatype>
							<trackindex>22</trackindex>
							<clipindex>92</clipindex>
							<groupindex>1</groupindex>
						</link>
						<logginginfo>
							<description></description>
							<scene></scene>
							<shottake></shottake>
							<lognote></lognote>
						</logginginfo>
						<labels>
							<label2>Caribbean</label2>
						</labels>
					</clipitem>
					<clipitem id="clipitem-3080" premiereChannelType="stereo">
						<masterclipid>masterclip-151</masterclipid>
						<name>Applaus 6 sek.wav</name>
						<enabled>TRUE</enabled>
						<duration>151</duration>
						<rate>
							<timebase>25</timebase>
							<ntsc>FALSE</ntsc>
						</rate>
						<start>52628</start>
						<end>52779</end>
						<in>0</in>
						<out>151</out>
						<pproTicksIn>0</pproTicksIn>
						<pproTicksOut>1534256640000</pproTicksOut>
						<file id="file-147"/>
						<sourcetrack>
							<mediatype>audio</mediatype>
							<trackindex>2</trackindex>
						</sourcetrack>
						<link>
							<linkclipref>clipitem-2994</linkclipref>
							<mediatype>audio</mediatype>
							<trackindex>21</trackindex>
							<clipindex>96</clipindex>
							<groupindex>1</groupindex>
						</link>
						<link>
							<linkclipref>clipitem-3080</linkclipref>
							<mediatype>audio</mediatype>
							<trackindex>22</trackindex>
							<clipindex>93</clipindex>
							<groupindex>1</groupindex>
						</link>
						<logginginfo>
							<description></description>
							<scene></scene>
							<shottake></shottake>
							<lognote></lognote>
						</logginginfo>
						<labels>
							<label2>Caribbean</label2>
						</labels>
					</clipitem>
					<clipitem id="clipitem-3081" premiereChannelType="stereo">
						<masterclipid>masterclip-157</masterclipid>
						<name>Applaus med plystring 2.wav</name>
						<enabled>TRUE</enabled>
						<duration>218</duration>
						<rate>
							<timebase>25</timebase>
							<ntsc>FALSE</ntsc>
						</rate>
						<start>53090</start>
						<end>53308</end>
						<in>0</in>
						<out>218</out>
						<pproTicksIn>0</pproTicksIn>
						<pproTicksOut>2215019520000</pproTicksOut>
						<file id="file-153"/>
						<sourcetrack>
							<mediatype>audio</mediatype>
							<trackindex>2</trackindex>
						</sourcetrack>
							<filter>
								<effect>
									<name>Audio Levels</name>
									<effectid>audiolevels</effectid>
									<effectcategory>audiolevels</effectcategory>
									<effecttype>audiolevels</effecttype>
									<mediatype>audio</mediatype>
									<parameter authoringApp="PremierePro">
										<parameterid>level</parameterid>
										<name>Level</name>
										<valuemin>0</valuemin>
										<valuemax>3.98109</valuemax>
										<value>0.28117</value>
									</parameter>
								</effect>
							</filter>
						<link>
							<linkclipref>clipitem-2995</linkclipref>
							<mediatype>audio</mediatype>
							<trackindex>21</trackindex>
							<clipindex>97</clipindex>
							<groupindex>1</groupindex>
						</link>
						<link>
							<linkclipref>clipitem-3081</linkclipref>
							<mediatype>audio</mediatype>
							<trackindex>22</trackindex>
							<clipindex>94</clipindex>
							<groupindex>1</groupindex>
						</link>
						<logginginfo>
							<description></description>
							<scene></scene>
							<shottake></shottake>
							<lognote></lognote>
						</logginginfo>
						<labels>
							<label2>Caribbean</label2>
						</labels>
					</clipitem>
					<clipitem id="clipitem-3082" premiereChannelType="stereo">
						<masterclipid>masterclip-105</masterclipid>
						<name>Latter kort.wav</name>
						<enabled>TRUE</enabled>
						<duration>64</duration>
						<rate>
							<timebase>25</timebase>
							<ntsc>FALSE</ntsc>
						</rate>
						<start>53533</start>
						<end>53597</end>
						<in>0</in>
						<out>64</out>
						<pproTicksIn>0</pproTicksIn>
						<pproTicksOut>650280960000</pproTicksOut>
						<file id="file-101"/>
						<sourcetrack>
							<mediatype>audio</mediatype>
							<trackindex>2</trackindex>
						</sourcetrack>
						<link>
							<linkclipref>clipitem-2996</linkclipref>
							<mediatype>audio</mediatype>
							<trackindex>21</trackindex>
							<clipindex>98</clipindex>
							<groupindex>1</groupindex>
						</link>
						<link>
							<linkclipref>clipitem-3082</linkclipref>
							<mediatype>audio</mediatype>
							<trackindex>22</trackindex>
							<clipindex>95</clipindex>
							<groupindex>1</groupindex>
						</link>
						<logginginfo>
							<description></description>
							<scene></scene>
							<shottake></shottake>
							<lognote></lognote>
						</logginginfo>
						<labels>
							<label2>Caribbean</label2>
						</labels>
					</clipitem>
					<clipitem id="clipitem-3083" premiereChannelType="stereo">
						<masterclipid>masterclip-145</masterclipid>
						<name>Kort latter Hege.wav</name>
						<enabled>TRUE</enabled>
						<duration>77</duration>
						<rate>
							<timebase>25</timebase>
							<ntsc>FALSE</ntsc>
						</rate>
						<start>54123</start>
						<end>54200</end>
						<in>0</in>
						<out>77</out>
						<pproTicksIn>0</pproTicksIn>
						<pproTicksOut>782369280000</pproTicksOut>
						<file id="file-141"/>
						<sourcetrack>
							<mediatype>audio</mediatype>
							<trackindex>2</trackindex>
						</sourcetrack>
						<link>
							<linkclipref>clipitem-2997</linkclipref>
							<mediatype>audio</mediatype>
							<trackindex>21</trackindex>
							<clipindex>99</clipindex>
							<groupindex>1</groupindex>
						</link>
						<link>
							<linkclipref>clipitem-3083</linkclipref>
							<mediatype>audio</mediatype>
							<trackindex>22</trackindex>
							<clipindex>96</clipindex>
							<groupindex>1</groupindex>
						</link>
						<logginginfo>
							<description></description>
							<scene></scene>
							<shottake></shottake>
							<lognote></lognote>
						</logginginfo>
						<labels>
							<label2>Caribbean</label2>
						</labels>
					</clipitem>
					<clipitem id="clipitem-3084" premiereChannelType="stereo">
						<masterclipid>masterclip-102</masterclipid>
						<name>Applaus 7 sek høflig.wav</name>
						<enabled>TRUE</enabled>
						<duration>189</duration>
						<rate>
							<timebase>25</timebase>
							<ntsc>FALSE</ntsc>
						</rate>
						<start>55397</start>
						<end>55546</end>
						<in>0</in>
						<out>149</out>
						<pproTicksIn>0</pproTicksIn>
						<pproTicksOut>1513935360000</pproTicksOut>
						<file id="file-98"/>
						<sourcetrack>
							<mediatype>audio</mediatype>
							<trackindex>2</trackindex>
						</sourcetrack>
						<link>
							<linkclipref>clipitem-2998</linkclipref>
							<mediatype>audio</mediatype>
							<trackindex>21</trackindex>
							<clipindex>100</clipindex>
							<groupindex>1</groupindex>
						</link>
						<link>
							<linkclipref>clipitem-3084</linkclipref>
							<mediatype>audio</mediatype>
							<trackindex>22</trackindex>
							<clipindex>97</clipindex>
							<groupindex>1</groupindex>
						</link>
						<logginginfo>
							<description></description>
							<scene></scene>
							<shottake></shottake>
							<lognote></lognote>
						</logginginfo>
						<labels>
							<label2>Caribbean</label2>
						</labels>
					</clipitem>
					<clipitem id="clipitem-3085" premiereChannelType="stereo">
						<masterclipid>masterclip-179</masterclipid>
						<name>Latter reservert går over i applaus.wav</name>
						<enabled>TRUE</enabled>
						<duration>316</duration>
						<rate>
							<timebase>25</timebase>
							<ntsc>FALSE</ntsc>
						</rate>
						<start>56113</start>
						<end>56344</end>
						<in>86</in>
						<out>317</out>
						<pproTicksIn>873815040000</pproTicksIn>
						<pproTicksOut>3220922880000</pproTicksOut>
						<file id="file-175"/>
						<sourcetrack>
							<mediatype>audio</mediatype>
							<trackindex>2</trackindex>
						</sourcetrack>
						<link>
							<linkclipref>clipitem-2999</linkclipref>
							<mediatype>audio</mediatype>
							<trackindex>21</trackindex>
							<clipindex>101</clipindex>
							<groupindex>1</groupindex>
						</link>
						<link>
							<linkclipref>clipitem-3085</linkclipref>
							<mediatype>audio</mediatype>
							<trackindex>22</trackindex>
							<clipindex>98</clipindex>
							<groupindex>1</groupindex>
						</link>
						<logginginfo>
							<description></description>
							<scene></scene>
							<shottake></shottake>
							<lognote></lognote>
						</logginginfo>
						<labels>
							<label2>Caribbean</label2>
						</labels>
					</clipitem>
					<clipitem id="clipitem-3086" premiereChannelType="stereo">
						<masterclipid>masterclip-76</masterclipid>
						<name>Latter går over i applaus plystring brå slutt.wav</name>
						<enabled>TRUE</enabled>
						<duration>232</duration>
						<rate>
							<timebase>25</timebase>
							<ntsc>FALSE</ntsc>
						</rate>
						<start>56746</start>
						<end>56979</end>
						<in>0</in>
						<out>233</out>
						<pproTicksIn>0</pproTicksIn>
						<pproTicksOut>2367429120000</pproTicksOut>
						<file id="file-72"/>
						<sourcetrack>
							<mediatype>audio</mediatype>
							<trackindex>2</trackindex>
						</sourcetrack>
						<link>
							<linkclipref>clipitem-3000</linkclipref>
							<mediatype>audio</mediatype>
							<trackindex>21</trackindex>
							<clipindex>102</clipindex>
							<groupindex>1</groupindex>
						</link>
						<link>
							<linkclipref>clipitem-3086</linkclipref>
							<mediatype>audio</mediatype>
							<trackindex>22</trackindex>
							<clipindex>99</clipindex>
							<groupindex>1</groupindex>
						</link>
						<logginginfo>
							<description></description>
							<scene></scene>
							<shottake></shottake>
							<lognote></lognote>
						</logginginfo>
						<labels>
							<label2>Caribbean</label2>
						</labels>
					</clipitem>
					<clipitem id="clipitem-3087" premiereChannelType="stereo">
						<masterclipid>masterclip-100</masterclipid>
						<name>Latter spredt.wav</name>
						<enabled>TRUE</enabled>
						<duration>91</duration>
						<rate>
							<timebase>25</timebase>
							<ntsc>FALSE</ntsc>
						</rate>
						<start>57228</start>
						<end>57319</end>
						<in>0</in>
						<out>91</out>
						<pproTicksIn>0</pproTicksIn>
						<pproTicksOut>924618240000</pproTicksOut>
						<file id="file-96"/>
						<sourcetrack>
							<mediatype>audio</mediatype>
							<trackindex>2</trackindex>
						</sourcetrack>
							<filter>
								<effect>
									<name>Audio Levels</name>
									<effectid>audiolevels</effectid>
									<effectcategory>audiolevels</effectcategory>
									<effecttype>audiolevels</effecttype>
									<mediatype>audio</mediatype>
									<parameter authoringApp="PremierePro">
										<parameterid>level</parameterid>
										<name>Level</name>
										<valuemin>0</valuemin>
										<valuemax>3.98109</valuemax>
										<value>0.99763</value>
									</parameter>
								</effect>
							</filter>
						<link>
							<linkclipref>clipitem-3001</linkclipref>
							<mediatype>audio</mediatype>
							<trackindex>21</trackindex>
							<clipindex>103</clipindex>
							<groupindex>1</groupindex>
						</link>
						<link>
							<linkclipref>clipitem-3087</linkclipref>
							<mediatype>audio</mediatype>
							<trackindex>22</trackindex>
							<clipindex>100</clipindex>
							<groupindex>1</groupindex>
						</link>
						<logginginfo>
							<description></description>
							<scene></scene>
							<shottake></shottake>
							<lognote></lognote>
						</logginginfo>
						<labels>
							<label2>Caribbean</label2>
						</labels>
					</clipitem>
					<enabled>TRUE</enabled>
					<locked>FALSE</locked>
					<outputchannelindex>2</outputchannelindex>
				</track>
				<track TL.SQTrackAudioKeyframeStyle="0" TL.SQTrackShy="0" TL.SQTrackExpandedHeight="25" TL.SQTrackExpanded="0" MZ.TrackTargeted="1" PannerCurrentValue="0.5" PannerIsInverted="true" PannerStartKeyframe="-91445760000000000,0.5,0,0,0,0,0,0" PannerName="Balance" currentExplodedTrackIndex="0" totalExplodedTrackCount="2" premiereTrackType="Stereo">
					<clipitem id="clipitem-3088" premiereChannelType="stereo">
						<masterclipid>masterclip-183</masterclipid>
						<name>051222163-message-or-correct-answer-win-.wav</name>
						<enabled>TRUE</enabled>
						<duration>81</duration>
						<rate>
							<timebase>25</timebase>
							<ntsc>FALSE</ntsc>
						</rate>
						<start>2</start>
						<end>83</end>
						<in>0</in>
						<out>81</out>
						<pproTicksIn>0</pproTicksIn>
						<pproTicksOut>823011840000</pproTicksOut>
						<file id="file-179">
							<name>051222163-message-or-correct-answer-win-.wav</name>
							<pathurl>file://localhost/Volumes/Brakka/AdobeLager/QUIZ%20-%20brakka/Musikk/Sound%20FX/Poeng/051222163-message-or-correct-answer-win-.wav</pathurl>
							<rate>
								<timebase>30</timebase>
								<ntsc>TRUE</ntsc>
							</rate>
							<duration>97</duration>
							<timecode>
								<rate>
									<timebase>30</timebase>
									<ntsc>TRUE</ntsc>
								</rate>
								<string>00;00;00;00</string>
								<frame>0</frame>
								<displayformat>DF</displayformat>
								<reel>
									<name></name>
								</reel>
							</timecode>
							<media>
								<audio>
									<samplecharacteristics>
										<depth>16</depth>
										<samplerate>44100</samplerate>
									</samplecharacteristics>
									<channelcount>2</channelcount>
								</audio>
							</media>
						</file>
						<sourcetrack>
							<mediatype>audio</mediatype>
							<trackindex>1</trackindex>
						</sourcetrack>
							<filter>
								<effect>
									<name>Audio Levels</name>
									<effectid>audiolevels</effectid>
									<effectcategory>audiolevels</effectcategory>
									<effecttype>audiolevels</effecttype>
									<mediatype>audio</mediatype>
									<parameter authoringApp="PremierePro">
										<parameterid>level</parameterid>
										<name>Level</name>
										<valuemin>0</valuemin>
										<valuemax>3.98109</valuemax>
										<value>0.629462</value>
									</parameter>
								</effect>
							</filter>
						<link>
							<linkclipref>clipitem-3088</linkclipref>
							<mediatype>audio</mediatype>
							<trackindex>23</trackindex>
							<clipindex>1</clipindex>
							<groupindex>1</groupindex>
						</link>
						<link>
							<linkclipref>clipitem-3133</linkclipref>
							<mediatype>audio</mediatype>
							<trackindex>24</trackindex>
							<clipindex>1</clipindex>
							<groupindex>1</groupindex>
						</link>
						<logginginfo>
							<description></description>
							<scene></scene>
							<shottake></shottake>
							<lognote></lognote>
						</logginginfo>
						<labels>
							<label2>Caribbean</label2>
						</labels>
					</clipitem>
					<clipitem id="clipitem-3089" premiereChannelType="stereo">
						<masterclipid>masterclip-68</masterclipid>
						<name>Super%20Jets%20Overhead%2004.wav</name>
						<enabled>TRUE</enabled>
						<duration>295</duration>
						<rate>
							<timebase>25</timebase>
							<ntsc>FALSE</ntsc>
						</rate>
						<start>266</start>
						<end>299</end>
						<in>262</in>
						<out>295</out>
						<pproTicksIn>2662087680000</pproTicksIn>
						<pproTicksOut>2997388800000</pproTicksOut>
						<file id="file-64"/>
						<sourcetrack>
							<mediatype>audio</mediatype>
							<trackindex>1</trackindex>
						</sourcetrack>
							<filter>
								<effect>
									<name>Audio Levels</name>
									<effectid>audiolevels</effectid>
									<effectcategory>audiolevels</effectcategory>
									<effecttype>audiolevels</effecttype>
									<mediatype>audio</mediatype>
									<parameter authoringApp="PremierePro">
										<parameterid>level</parameterid>
										<name>Level</name>
										<valuemin>0</valuemin>
										<valuemax>3.98109</valuemax>
										<value>0.099763</value>
									</parameter>
								</effect>
							</filter>
						<link>
							<linkclipref>clipitem-3089</linkclipref>
							<mediatype>audio</mediatype>
							<trackindex>23</trackindex>
							<clipindex>2</clipindex>
							<groupindex>1</groupindex>
						</link>
						<link>
							<linkclipref>clipitem-3134</linkclipref>
							<mediatype>audio</mediatype>
							<trackindex>24</trackindex>
							<clipindex>2</clipindex>
							<groupindex>1</groupindex>
						</link>
						<logginginfo>
							<description></description>
							<scene></scene>
							<shottake></shottake>
							<lognote></lognote>
						</logginginfo>
						<labels>
							<label2>Caribbean</label2>
						</labels>
					</clipitem>
					<clipitem id="clipitem-3090" premiereChannelType="stereo">
						<masterclipid>masterclip-81</masterclipid>
						<name>Appalus anerkjennende med hoi.wav</name>
						<enabled>TRUE</enabled>
						<duration>168</duration>
						<rate>
							<timebase>25</timebase>
							<ntsc>FALSE</ntsc>
						</rate>
						<start>369</start>
						<end>-1</end>
						<in>0</in>
						<out>168</out>
						<pproTicksIn>0</pproTicksIn>
						<pproTicksOut>1706987520000</pproTicksOut>
						<file id="file-77"/>
						<sourcetrack>
							<mediatype>audio</mediatype>
							<trackindex>1</trackindex>
						</sourcetrack>
						<link>
							<linkclipref>clipitem-3090</linkclipref>
							<mediatype>audio</mediatype>
							<trackindex>23</trackindex>
							<clipindex>3</clipindex>
							<groupindex>1</groupindex>
						</link>
						<link>
							<linkclipref>clipitem-3135</linkclipref>
							<mediatype>audio</mediatype>
							<trackindex>24</trackindex>
							<clipindex>3</clipindex>
							<groupindex>1</groupindex>
						</link>
						<logginginfo>
							<description></description>
							<scene></scene>
							<shottake></shottake>
							<lognote></lognote>
						</logginginfo>
						<labels>
							<label2>Caribbean</label2>
						</labels>
					</clipitem>
					<transitionitem>
						<start>481</start>
						<end>537</end>
						<alignment>end-black</alignment>
						<cutPointTicks>568995840000</cutPointTicks>
						<rate>
							<timebase>25</timebase>
							<ntsc>FALSE</ntsc>
						</rate>
						<effect>
							<name>Cross Fade (+3dB)</name>
							<effectid>KGAudioTransCrossFade3dB</effectid>
							<effecttype>transition</effecttype>
							<mediatype>audio</mediatype>
							<wipecode>0</wipecode>
							<wipeaccuracy>100</wipeaccuracy>
							<startratio>0</startratio>
							<endratio>1</endratio>
							<reverse>FALSE</reverse>
						</effect>
					</transitionitem>
					<clipitem id="clipitem-3091" premiereChannelType="stereo">
						<masterclipid>masterclip-184</masterclipid>
						<name>Apollo_NVS_102_27__Unyielding__Dan_Elias_Brevig.mp3</name>
						<enabled>TRUE</enabled>
						<duration>2460</duration>
						<rate>
							<timebase>25</timebase>
							<ntsc>FALSE</ntsc>
						</rate>
						<start>1449</start>
						<end>-1</end>
						<in>9</in>
						<out>99</out>
						<pproTicksIn>91445760000</pproTicksIn>
						<pproTicksOut>1005903360000</pproTicksOut>
						<file id="file-180">
							<name>Apollo_NVS_102_27__Unyielding__Dan_Elias_Brevig.mp3</name>
							<pathurl>file://localhost/Volumes/Brakka/AdobeLager/QUIZ%20-%20brakka/Arkivstoff/2005/2005%20Musikk-teppe/Apollo/Apollo_NVS_102_27__Unyielding__Dan_Elias_Brevig.mp3</pathurl>
							<rate>
								<timebase>30</timebase>
								<ntsc>TRUE</ntsc>
							</rate>
							<duration>2949</duration>
							<timecode>
								<rate>
									<timebase>30</timebase>
									<ntsc>TRUE</ntsc>
								</rate>
								<string>00;00;00;00</string>
								<frame>0</frame>
								<displayformat>DF</displayformat>
								<reel>
									<name></name>
								</reel>
							</timecode>
							<media>
								<audio>
									<samplecharacteristics>
										<depth>16</depth>
										<samplerate>48000</samplerate>
									</samplecharacteristics>
									<channelcount>2</channelcount>
								</audio>
							</media>
						</file>
						<sourcetrack>
							<mediatype>audio</mediatype>
							<trackindex>1</trackindex>
						</sourcetrack>
							<filter>
								<effect>
									<name>Audio Levels</name>
									<effectid>audiolevels</effectid>
									<effectcategory>audiolevels</effectcategory>
									<effecttype>audiolevels</effecttype>
									<mediatype>audio</mediatype>
									<parameter authoringApp="PremierePro">
										<parameterid>level</parameterid>
										<name>Level</name>
										<valuemin>0</valuemin>
										<valuemax>3.98109</valuemax>
										<value>0.376863</value>
									</parameter>
								</effect>
							</filter>
						<link>
							<linkclipref>clipitem-3091</linkclipref>
							<mediatype>audio</mediatype>
							<trackindex>23</trackindex>
							<clipindex>5</clipindex>
							<groupindex>1</groupindex>
						</link>
						<link>
							<linkclipref>clipitem-3136</linkclipref>
							<mediatype>audio</mediatype>
							<trackindex>24</trackindex>
							<clipindex>5</clipindex>
							<groupindex>1</groupindex>
						</link>
						<logginginfo>
							<description></description>
							<scene></scene>
							<shottake></shottake>
							<lognote></lognote>
						</logginginfo>
						<labels>
							<label2>Caribbean</label2>
						</labels>
					</clipitem>
					<transitionitem>
						<start>1491</start>
						<end>1539</end>
						<alignment>center</alignment>
						<cutPointTicks>243855360000</cutPointTicks>
						<rate>
							<timebase>25</timebase>
							<ntsc>FALSE</ntsc>
						</rate>
						<effect>
							<name>Cross Fade (+3dB)</name>
							<effectid>KGAudioTransCrossFade3dB</effectid>
							<effecttype>transition</effecttype>
							<mediatype>audio</mediatype>
							<wipecode>0</wipecode>
							<wipeaccuracy>100</wipeaccuracy>
							<startratio>0</startratio>
							<endratio>1</endratio>
							<reverse>FALSE</reverse>
						</effect>
					</transitionitem>
					<clipitem id="clipitem-3092" premiereChannelType="stereo">
						<masterclipid>masterclip-184</masterclipid>
						<name>Apollo_NVS_102_27__Unyielding__Dan_Elias_Brevig.mp3</name>
						<enabled>TRUE</enabled>
						<duration>2460</duration>
						<rate>
							<timebase>25</timebase>
							<ntsc>FALSE</ntsc>
						</rate>
						<start>-1</start>
						<end>-1</end>
						<in>51</in>
						<out>509</out>
						<pproTicksIn>518192640000</pproTicksIn>
						<pproTicksOut>5171765760000</pproTicksOut>
						<file id="file-180"/>
						<sourcetrack>
							<mediatype>audio</mediatype>
							<trackindex>1</trackindex>
						</sourcetrack>
							<filter>
								<effect>
									<name>Audio Levels</name>
									<effectid>audiolevels</effectid>
									<effectcategory>audiolevels</effectcategory>
									<effecttype>audiolevels</effecttype>
									<mediatype>audio</mediatype>
									<parameter authoringApp="PremierePro">
										<parameterid>level</parameterid>
										<name>Level</name>
										<valuemin>0</valuemin>
										<valuemax>3.98109</valuemax>
										<value>0.0946638</value>
									</parameter>
								</effect>
							</filter>
						<link>
							<linkclipref>clipitem-3092</linkclipref>
							<mediatype>audio</mediatype>
							<trackindex>23</trackindex>
							<clipindex>7</clipindex>
							<groupindex>1</groupindex>
						</link>
						<link>
							<linkclipref>clipitem-3137</linkclipref>
							<mediatype>audio</mediatype>
							<trackindex>24</trackindex>
							<clipindex>7</clipindex>
							<groupindex>1</groupindex>
						</link>
						<logginginfo>
							<description></description>
							<scene></scene>
							<shottake></shottake>
							<lognote></lognote>
						</logginginfo>
						<labels>
							<label2>Caribbean</label2>
						</labels>
					</clipitem>
					<transitionitem>
						<start>1815</start>
						<end>1949</end>
						<alignment>end-black</alignment>
						<cutPointTicks>1361525760000</cutPointTicks>
						<rate>
							<timebase>25</timebase>
							<ntsc>FALSE</ntsc>
						</rate>
						<effect>
							<name>Cross Fade (+3dB)</name>
							<effectid>KGAudioTransCrossFade3dB</effectid>
							<effecttype>transition</effecttype>
							<mediatype>audio</mediatype>
							<wipecode>0</wipecode>
							<wipeaccuracy>100</wipeaccuracy>
							<startratio>0</startratio>
							<endratio>1</endratio>
							<reverse>FALSE</reverse>
						</effect>
					</transitionitem>
					<clipitem id="clipitem-3093" premiereChannelType="stereo">
						<masterclipid>masterclip-185</masterclipid>
						<name>Apollo_SMX_126_54__Trials_And_Tribulations__Jeremy_A._Sweet_(Arranger).mp3</name>
						<enabled>TRUE</enabled>
						<duration>2343</duration>
						<rate>
							<timebase>25</timebase>
							<ntsc>FALSE</ntsc>
						</rate>
						<start>2171</start>
						<end>-1</end>
						<in>0</in>
						<out>408</out>
						<pproTicksIn>0</pproTicksIn>
						<pproTicksOut>4145541120000</pproTicksOut>
						<file id="file-181">
							<name>Apollo_SMX_126_54__Trials_And_Tribulations__Jeremy_A._Sweet_(Arranger).mp3</name>
							<pathurl>file://localhost/Volumes/Brakka/AdobeLager/QUIZ%20-%20brakka/Arkivstoff/2005/2005%20Musikk-teppe/Apollo/Apollo_SMX_126_54__Trials_And_Tribulations__Jeremy_A._Sweet_(Arranger).mp3</pathurl>
							<rate>
								<timebase>30</timebase>
								<ntsc>TRUE</ntsc>
							</rate>
							<duration>2809</duration>
							<timecode>
								<rate>
									<timebase>30</timebase>
									<ntsc>TRUE</ntsc>
								</rate>
								<string>00;00;00;00</string>
								<frame>0</frame>
								<displayformat>DF</displayformat>
								<reel>
									<name></name>
								</reel>
							</timecode>
							<media>
								<audio>
									<samplecharacteristics>
										<depth>16</depth>
										<samplerate>44100</samplerate>
									</samplecharacteristics>
									<channelcount>2</channelcount>
								</audio>
							</media>
						</file>
						<sourcetrack>
							<mediatype>audio</mediatype>
							<trackindex>1</trackindex>
						</sourcetrack>
							<filter>
								<effect>
									<name>Audio Levels</name>
									<effectid>audiolevels</effectid>
									<effectcategory>audiolevels</effectcategory>
									<effecttype>audiolevels</effecttype>
									<mediatype>audio</mediatype>
									<parameter authoringApp="PremierePro">
										<parameterid>level</parameterid>
										<name>Level</name>
										<valuemin>0</valuemin>
										<valuemax>3.98109</valuemax>
										<value>0.00596369</value>
										<keyframe>
											<when>326</when>
											<value>0.199053</value>
										</keyframe>
										<keyframe>
											<when>335</when>
											<value>0.00596369</value>
										</keyframe>
									</parameter>
								</effect>
							</filter>
						<link>
							<linkclipref>clipitem-3093</linkclipref>
							<mediatype>audio</mediatype>
							<trackindex>23</trackindex>
							<clipindex>9</clipindex>
							<groupindex>1</groupindex>
						</link>
						<link>
							<linkclipref>clipitem-3138</linkclipref>
							<mediatype>audio</mediatype>
							<trackindex>24</trackindex>
							<clipindex>9</clipindex>
							<groupindex>1</groupindex>
						</link>
						<logginginfo>
							<description></description>
							<scene></scene>
							<shottake></shottake>
							<lognote></lognote>
						</logginginfo>
						<labels>
							<label2>Caribbean</label2>
						</labels>
					</clipitem>
					<transitionitem>
						<start>2463</start>
						<end>2579</end>
						<alignment>end-black</alignment>
						<cutPointTicks>1178634240000</cutPointTicks>
						<rate>
							<timebase>25</timebase>
							<ntsc>FALSE</ntsc>
						</rate>
						<effect>
							<name>Cross Fade (+3dB)</name>
							<effectid>KGAudioTransCrossFade3dB</effectid>
							<effecttype>transition</effecttype>
							<mediatype>audio</mediatype>
							<wipecode>0</wipecode>
							<wipeaccuracy>100</wipeaccuracy>
							<startratio>0</startratio>
							<endratio>1</endratio>
							<reverse>FALSE</reverse>
						</effect>
					</transitionitem>
					<transitionitem>
						<start>2872</start>
						<end>2885</end>
						<alignment>start-black</alignment>
						<cutPointTicks>0</cutPointTicks>
						<rate>
							<timebase>25</timebase>
							<ntsc>FALSE</ntsc>
						</rate>
						<effect>
							<name>Cross Fade (+3dB)</name>
							<effectid>KGAudioTransCrossFade3dB</effectid>
							<effecttype>transition</effecttype>
							<mediatype>audio</mediatype>
							<wipecode>0</wipecode>
							<wipeaccuracy>100</wipeaccuracy>
							<startratio>0</startratio>
							<endratio>1</endratio>
							<reverse>FALSE</reverse>
						</effect>
					</transitionitem>
					<clipitem id="clipitem-3094" premiereChannelType="stereo">
						<masterclipid>masterclip-186</masterclipid>
						<name>Apollo_ATO_1305_9__Beautiful_Tension__Max_DiCarlo.mp3</name>
						<enabled>TRUE</enabled>
						<duration>3177</duration>
						<rate>
							<timebase>25</timebase>
							<ntsc>FALSE</ntsc>
						</rate>
						<start>-1</start>
						<end>-1</end>
						<in>0</in>
						<out>202</out>
						<pproTicksIn>0</pproTicksIn>
						<pproTicksOut>2052449280000</pproTicksOut>
						<file id="file-182">
							<name>Apollo_ATO_1305_9__Beautiful_Tension__Max_DiCarlo.mp3</name>
							<pathurl>file://localhost/Volumes/Brakka/AdobeLager/QUIZ%20-%20brakka/Arkivstoff/2005/2005%20Musikk-teppe/Apollo/Apollo_ATO_1305_9__Beautiful_Tension__Max_DiCarlo.mp3</pathurl>
							<rate>
								<timebase>30</timebase>
								<ntsc>TRUE</ntsc>
							</rate>
							<duration>3809</duration>
							<timecode>
								<rate>
									<timebase>30</timebase>
									<ntsc>TRUE</ntsc>
								</rate>
								<string>00;00;00;00</string>
								<frame>0</frame>
								<displayformat>DF</displayformat>
								<reel>
									<name></name>
								</reel>
							</timecode>
							<media>
								<audio>
									<samplecharacteristics>
										<depth>16</depth>
										<samplerate>44100</samplerate>
									</samplecharacteristics>
									<channelcount>2</channelcount>
								</audio>
							</media>
						</file>
						<sourcetrack>
							<mediatype>audio</mediatype>
							<trackindex>1</trackindex>
						</sourcetrack>
							<filter>
								<effect>
									<name>Audio Levels</name>
									<effectid>audiolevels</effectid>
									<effectcategory>audiolevels</effectcategory>
									<effecttype>audiolevels</effecttype>
									<mediatype>audio</mediatype>
									<parameter authoringApp="PremierePro">
										<parameterid>level</parameterid>
										<name>Level</name>
										<valuemin>0</valuemin>
										<valuemax>3.98109</valuemax>
										<value>0.099763</value>
									</parameter>
								</effect>
							</filter>
						<link>
							<linkclipref>clipitem-3094</linkclipref>
							<mediatype>audio</mediatype>
							<trackindex>23</trackindex>
							<clipindex>12</clipindex>
							<groupindex>1</groupindex>
						</link>
						<link>
							<linkclipref>clipitem-3139</linkclipref>
							<mediatype>audio</mediatype>
							<trackindex>24</trackindex>
							<clipindex>12</clipindex>
							<groupindex>1</groupindex>
						</link>
						<logginginfo>
							<description></description>
							<scene></scene>
							<shottake></shottake>
							<lognote></lognote>
						</logginginfo>
						<labels>
							<label2>Caribbean</label2>
						</labels>
					</clipitem>
					<transitionitem>
						<start>2930</start>
						<end>3074</end>
						<alignment>end-black</alignment>
						<cutPointTicks>1463132160000</cutPointTicks>
						<rate>
							<timebase>25</timebase>
							<ntsc>FALSE</ntsc>
						</rate>
						<effect>
							<name>Cross Fade (+3dB)</name>
							<effectid>KGAudioTransCrossFade3dB</effectid>
							<effecttype>transition</effecttype>
							<mediatype>audio</mediatype>
							<wipecode>0</wipecode>
							<wipeaccuracy>100</wipeaccuracy>
							<startratio>0</startratio>
							<endratio>1</endratio>
							<reverse>FALSE</reverse>
						</effect>
					</transitionitem>
					<clipitem id="clipitem-3095" premiereChannelType="stereo">
						<masterclipid>masterclip-187</masterclipid>
						<name>Apollo_ASPML_1011_16__All_in_Good_Fun__Mark_Plati_(BMI).mp3</name>
						<enabled>TRUE</enabled>
						<duration>2617</duration>
						<rate>
							<timebase>25</timebase>
							<ntsc>FALSE</ntsc>
						</rate>
						<start>3557</start>
						<end>4129</end>
						<in>0</in>
						<out>572</out>
						<pproTicksIn>0</pproTicksIn>
						<pproTicksOut>5811886080000</pproTicksOut>
						<file id="file-183">
							<name>Apollo_ASPML_1011_16__All_in_Good_Fun__Mark_Plati_(BMI).mp3</name>
							<pathurl>file://localhost/Volumes/Brakka/AdobeLager/QUIZ%20-%20brakka/Arkivstoff/2005/2005%20Musikk-teppe/Apollo/Apollo_ASPML_1011_16__All_in_Good_Fun__Mark_Plati_(BMI).mp3</pathurl>
							<rate>
								<timebase>30</timebase>
								<ntsc>TRUE</ntsc>
							</rate>
							<duration>3137</duration>
							<timecode>
								<rate>
									<timebase>30</timebase>
									<ntsc>TRUE</ntsc>
								</rate>
								<string>00;00;00;00</string>
								<frame>0</frame>
								<displayformat>DF</displayformat>
								<reel>
									<name></name>
								</reel>
							</timecode>
							<media>
								<audio>
									<samplecharacteristics>
										<depth>16</depth>
										<samplerate>44100</samplerate>
									</samplecharacteristics>
									<channelcount>2</channelcount>
								</audio>
							</media>
						</file>
						<sourcetrack>
							<mediatype>audio</mediatype>
							<trackindex>1</trackindex>
						</sourcetrack>
							<filter>
								<effect>
									<name>Audio Levels</name>
									<effectid>audiolevels</effectid>
									<effectcategory>audiolevels</effectcategory>
									<effecttype>audiolevels</effecttype>
									<mediatype>audio</mediatype>
									<parameter authoringApp="PremierePro">
										<parameterid>level</parameterid>
										<name>Level</name>
										<valuemin>0</valuemin>
										<valuemax>3.98109</valuemax>
										<value>0</value>
										<keyframe>
											<when>848</when>
											<value>0.177406</value>
										</keyframe>
										<keyframe>
											<when>911</when>
											<value>0</value>
										</keyframe>
									</parameter>
								</effect>
							</filter>
						<link>
							<linkclipref>clipitem-3095</linkclipref>
							<mediatype>audio</mediatype>
							<trackindex>23</trackindex>
							<clipindex>14</clipindex>
							<groupindex>1</groupindex>
						</link>
						<link>
							<linkclipref>clipitem-3140</linkclipref>
							<mediatype>audio</mediatype>
							<trackindex>24</trackindex>
							<clipindex>14</clipindex>
							<groupindex>1</groupindex>
						</link>
						<logginginfo>
							<description></description>
							<scene></scene>
							<shottake></shottake>
							<lognote></lognote>
						</logginginfo>
						<labels>
							<label2>Caribbean</label2>
						</labels>
					</clipitem>
					<clipitem id="clipitem-3096" premiereChannelType="stereo">
						<masterclipid>masterclip-112</masterclipid>
						<name>Latter uryddig med litt applaus 9sek.wav</name>
						<enabled>TRUE</enabled>
						<duration>234</duration>
						<rate>
							<timebase>25</timebase>
							<ntsc>FALSE</ntsc>
						</rate>
						<start>6780</start>
						<end>6890</end>
						<in>124</in>
						<out>234</out>
						<pproTicksIn>1259919360000</pproTicksIn>
						<pproTicksOut>2377589760000</pproTicksOut>
						<file id="file-108"/>
						<sourcetrack>
							<mediatype>audio</mediatype>
							<trackindex>1</trackindex>
						</sourcetrack>
						<link>
							<linkclipref>clipitem-3096</linkclipref>
							<mediatype>audio</mediatype>
							<trackindex>23</trackindex>
							<clipindex>15</clipindex>
							<groupindex>1</groupindex>
						</link>
						<link>
							<linkclipref>clipitem-3141</linkclipref>
							<mediatype>audio</mediatype>
							<trackindex>24</trackindex>
							<clipindex>15</clipindex>
							<groupindex>1</groupindex>
						</link>
						<logginginfo>
							<description></description>
							<scene></scene>
							<shottake></shottake>
							<lognote></lognote>
						</logginginfo>
						<labels>
							<label2>Caribbean</label2>
						</labels>
					</clipitem>
					<clipitem id="clipitem-3097" premiereChannelType="stereo">
						<masterclipid>masterclip-188</masterclipid>
						<name>_Juhu_ applaus.wav</name>
						<enabled>TRUE</enabled>
						<duration>158</duration>
						<rate>
							<timebase>25</timebase>
							<ntsc>FALSE</ntsc>
						</rate>
						<start>10891</start>
						<end>11005</end>
						<in>44</in>
						<out>158</out>
						<pproTicksIn>447068160000</pproTicksIn>
						<pproTicksOut>1605381120000</pproTicksOut>
						<file id="file-184">
							<name>_Juhu_ applaus.wav</name>
							<pathurl>file://localhost/Volumes/Brakka/AdobeLager/QUIZ%20-%20brakka/RA%cc%8aSTOFF%20LYD/Publikumsreaksjoner/Fra%201984/_Juhu_%20applaus.wav</pathurl>
							<rate>
								<timebase>30</timebase>
								<ntsc>TRUE</ntsc>
							</rate>
							<duration>189</duration>
							<timecode>
								<rate>
									<timebase>30</timebase>
									<ntsc>TRUE</ntsc>
								</rate>
								<string>15;55;44;20</string>
								<frame>1718620</frame>
								<displayformat>DF</displayformat>
								<reel>
									<name></name>
								</reel>
							</timecode>
							<media>
								<audio>
									<samplecharacteristics>
										<depth>16</depth>
										<samplerate>48000</samplerate>
									</samplecharacteristics>
									<channelcount>2</channelcount>
								</audio>
							</media>
						</file>
						<sourcetrack>
							<mediatype>audio</mediatype>
							<trackindex>1</trackindex>
						</sourcetrack>
						<link>
							<linkclipref>clipitem-3097</linkclipref>
							<mediatype>audio</mediatype>
							<trackindex>23</trackindex>
							<clipindex>16</clipindex>
							<groupindex>1</groupindex>
						</link>
						<link>
							<linkclipref>clipitem-3142</linkclipref>
							<mediatype>audio</mediatype>
							<trackindex>24</trackindex>
							<clipindex>16</clipindex>
							<groupindex>1</groupindex>
						</link>
						<logginginfo>
							<description></description>
							<scene></scene>
							<shottake></shottake>
							<lognote></lognote>
						</logginginfo>
						<labels>
							<label2>Caribbean</label2>
						</labels>
					</clipitem>
					<clipitem id="clipitem-3098" premiereChannelType="stereo">
						<masterclipid>masterclip-151</masterclipid>
						<name>Applaus 6 sek.wav</name>
						<enabled>TRUE</enabled>
						<duration>151</duration>
						<rate>
							<timebase>25</timebase>
							<ntsc>FALSE</ntsc>
						</rate>
						<start>13265</start>
						<end>13411</end>
						<in>0</in>
						<out>146</out>
						<pproTicksIn>0</pproTicksIn>
						<pproTicksOut>1483453440000</pproTicksOut>
						<file id="file-147"/>
						<sourcetrack>
							<mediatype>audio</mediatype>
							<trackindex>1</trackindex>
						</sourcetrack>
						<link>
							<linkclipref>clipitem-3098</linkclipref>
							<mediatype>audio</mediatype>
							<trackindex>23</trackindex>
							<clipindex>17</clipindex>
							<groupindex>1</groupindex>
						</link>
						<link>
							<linkclipref>clipitem-3143</linkclipref>
							<mediatype>audio</mediatype>
							<trackindex>24</trackindex>
							<clipindex>17</clipindex>
							<groupindex>1</groupindex>
						</link>
						<logginginfo>
							<description></description>
							<scene></scene>
							<shottake></shottake>
							<lognote></lognote>
						</logginginfo>
						<labels>
							<label2>Caribbean</label2>
						</labels>
					</clipitem>
					<clipitem id="clipitem-3099" premiereChannelType="stereo">
						<masterclipid>masterclip-120</masterclipid>
						<name>Applaus 7 sek.wav</name>
						<enabled>TRUE</enabled>
						<duration>182</duration>
						<rate>
							<timebase>25</timebase>
							<ntsc>FALSE</ntsc>
						</rate>
						<start>13466</start>
						<end>13534</end>
						<in>114</in>
						<out>182</out>
						<pproTicksIn>1158312960000</pproTicksIn>
						<pproTicksOut>1849236480000</pproTicksOut>
						<file id="file-116"/>
						<sourcetrack>
							<mediatype>audio</mediatype>
							<trackindex>1</trackindex>
						</sourcetrack>
						<link>
							<linkclipref>clipitem-3099</linkclipref>
							<mediatype>audio</mediatype>
							<trackindex>23</trackindex>
							<clipindex>18</clipindex>
							<groupindex>1</groupindex>
						</link>
						<link>
							<linkclipref>clipitem-3144</linkclipref>
							<mediatype>audio</mediatype>
							<trackindex>24</trackindex>
							<clipindex>18</clipindex>
							<groupindex>1</groupindex>
						</link>
						<logginginfo>
							<description></description>
							<scene></scene>
							<shottake></shottake>
							<lognote></lognote>
						</logginginfo>
						<labels>
							<label2>Caribbean</label2>
						</labels>
					</clipitem>
					<clipitem id="clipitem-3100" premiereChannelType="stereo">
						<masterclipid>masterclip-183</masterclipid>
						<name>051222163-message-or-correct-answer-win-.wav</name>
						<enabled>TRUE</enabled>
						<duration>81</duration>
						<rate>
							<timebase>25</timebase>
							<ntsc>FALSE</ntsc>
						</rate>
						<start>15126</start>
						<end>15203</end>
						<in>4</in>
						<out>81</out>
						<pproTicksIn>40642560000</pproTicksIn>
						<pproTicksOut>823011840000</pproTicksOut>
						<file id="file-179"/>
						<sourcetrack>
							<mediatype>audio</mediatype>
							<trackindex>1</trackindex>
						</sourcetrack>
							<filter>
								<effect>
									<name>Audio Levels</name>
									<effectid>audiolevels</effectid>
									<effectcategory>audiolevels</effectcategory>
									<effecttype>audiolevels</effecttype>
									<mediatype>audio</mediatype>
									<parameter authoringApp="PremierePro">
										<parameterid>level</parameterid>
										<name>Level</name>
										<valuemin>0</valuemin>
										<valuemax>3.98109</valuemax>
										<value>0.706268</value>
									</parameter>
								</effect>
							</filter>
						<link>
							<linkclipref>clipitem-3100</linkclipref>
							<mediatype>audio</mediatype>
							<trackindex>23</trackindex>
							<clipindex>19</clipindex>
							<groupindex>1</groupindex>
						</link>
						<link>
							<linkclipref>clipitem-3145</linkclipref>
							<mediatype>audio</mediatype>
							<trackindex>24</trackindex>
							<clipindex>19</clipindex>
							<groupindex>1</groupindex>
						</link>
						<logginginfo>
							<description></description>
							<scene></scene>
							<shottake></shottake>
							<lognote></lognote>
						</logginginfo>
						<labels>
							<label2>Caribbean</label2>
						</labels>
					</clipitem>
					<clipitem id="clipitem-3101" premiereChannelType="stereo">
						<masterclipid>masterclip-183</masterclipid>
						<name>051222163-message-or-correct-answer-win-.wav</name>
						<enabled>TRUE</enabled>
						<duration>81</duration>
						<rate>
							<timebase>25</timebase>
							<ntsc>FALSE</ntsc>
						</rate>
						<start>16143</start>
						<end>16206</end>
						<in>4</in>
						<out>67</out>
						<pproTicksIn>40642560000</pproTicksIn>
						<pproTicksOut>680762880000</pproTicksOut>
						<file id="file-179"/>
						<sourcetrack>
							<mediatype>audio</mediatype>
							<trackindex>1</trackindex>
						</sourcetrack>
							<filter>
								<effect>
									<name>Audio Levels</name>
									<effectid>audiolevels</effectid>
									<effectcategory>audiolevels</effectcategory>
									<effecttype>audiolevels</effecttype>
									<mediatype>audio</mediatype>
									<parameter authoringApp="PremierePro">
										<parameterid>level</parameterid>
										<name>Level</name>
										<valuemin>0</valuemin>
										<valuemax>3.98109</valuemax>
										<value>0.706268</value>
									</parameter>
								</effect>
							</filter>
						<link>
							<linkclipref>clipitem-3101</linkclipref>
							<mediatype>audio</mediatype>
							<trackindex>23</trackindex>
							<clipindex>20</clipindex>
							<groupindex>1</groupindex>
						</link>
						<link>
							<linkclipref>clipitem-3146</linkclipref>
							<mediatype>audio</mediatype>
							<trackindex>24</trackindex>
							<clipindex>20</clipindex>
							<groupindex>1</groupindex>
						</link>
						<logginginfo>
							<description></description>
							<scene></scene>
							<shottake></shottake>
							<lognote></lognote>
						</logginginfo>
						<labels>
							<label2>Caribbean</label2>
						</labels>
					</clipitem>
					<clipitem id="clipitem-3102" premiereChannelType="stereo">
						<masterclipid>masterclip-183</masterclipid>
						<name>051222163-message-or-correct-answer-win-.wav</name>
						<enabled>TRUE</enabled>
						<duration>81</duration>
						<rate>
							<timebase>25</timebase>
							<ntsc>FALSE</ntsc>
						</rate>
						<start>16206</start>
						<end>16220</end>
						<in>67</in>
						<out>81</out>
						<pproTicksIn>680762880000</pproTicksIn>
						<pproTicksOut>823011840000</pproTicksOut>
						<file id="file-179"/>
						<sourcetrack>
							<mediatype>audio</mediatype>
							<trackindex>1</trackindex>
						</sourcetrack>
							<filter>
								<effect>
									<name>Audio Levels</name>
									<effectid>audiolevels</effectid>
									<effectcategory>audiolevels</effectcategory>
									<effecttype>audiolevels</effecttype>
									<mediatype>audio</mediatype>
									<parameter authoringApp="PremierePro">
										<parameterid>level</parameterid>
										<name>Level</name>
										<valuemin>0</valuemin>
										<valuemax>3.98109</valuemax>
										<value>0.706268</value>
									</parameter>
								</effect>
							</filter>
						<link>
							<linkclipref>clipitem-3102</linkclipref>
							<mediatype>audio</mediatype>
							<trackindex>23</trackindex>
							<clipindex>21</clipindex>
							<groupindex>1</groupindex>
						</link>
						<link>
							<linkclipref>clipitem-3147</linkclipref>
							<mediatype>audio</mediatype>
							<trackindex>24</trackindex>
							<clipindex>21</clipindex>
							<groupindex>1</groupindex>
						</link>
						<logginginfo>
							<description></description>
							<scene></scene>
							<shottake></shottake>
							<lognote></lognote>
						</logginginfo>
						<labels>
							<label2>Caribbean</label2>
						</labels>
					</clipitem>
					<clipitem id="clipitem-3103" premiereChannelType="stereo">
						<masterclipid>masterclip-189</masterclipid>
						<name>056152016-softy-confirm-sound-4-accept-c.wav</name>
						<enabled>TRUE</enabled>
						<duration>46</duration>
						<rate>
							<timebase>25</timebase>
							<ntsc>FALSE</ntsc>
						</rate>
						<start>17726</start>
						<end>17772</end>
						<in>0</in>
						<out>46</out>
						<pproTicksIn>0</pproTicksIn>
						<pproTicksOut>467389440000</pproTicksOut>
						<file id="file-185">
							<name>056152016-softy-confirm-sound-4-accept-c.wav</name>
							<pathurl>file://localhost/Volumes/Brakka/AdobeLager/QUIZ%20-%20brakka/Musikk/Sound%20FX/Poeng/mappe%20uten%20navn/056152016-softy-confirm-sound-4-accept-c.wav</pathurl>
							<rate>
								<timebase>30</timebase>
								<ntsc>TRUE</ntsc>
							</rate>
							<duration>55</duration>
							<timecode>
								<rate>
									<timebase>30</timebase>
									<ntsc>TRUE</ntsc>
								</rate>
								<string>00;00;00;00</string>
								<frame>0</frame>
								<displayformat>DF</displayformat>
								<reel>
									<name></name>
								</reel>
							</timecode>
							<media>
								<audio>
									<samplecharacteristics>
										<depth>16</depth>
										<samplerate>44100</samplerate>
									</samplecharacteristics>
									<channelcount>2</channelcount>
								</audio>
							</media>
						</file>
						<sourcetrack>
							<mediatype>audio</mediatype>
							<trackindex>1</trackindex>
						</sourcetrack>
							<filter>
								<effect>
									<name>Audio Levels</name>
									<effectid>audiolevels</effectid>
									<effectcategory>audiolevels</effectcategory>
									<effecttype>audiolevels</effecttype>
									<mediatype>audio</mediatype>
									<parameter authoringApp="PremierePro">
										<parameterid>level</parameterid>
										<name>Level</name>
										<valuemin>0</valuemin>
										<valuemax>3.98109</valuemax>
										<value>0.561009</value>
									</parameter>
								</effect>
							</filter>
						<link>
							<linkclipref>clipitem-3103</linkclipref>
							<mediatype>audio</mediatype>
							<trackindex>23</trackindex>
							<clipindex>22</clipindex>
							<groupindex>1</groupindex>
						</link>
						<link>
							<linkclipref>clipitem-3148</linkclipref>
							<mediatype>audio</mediatype>
							<trackindex>24</trackindex>
							<clipindex>22</clipindex>
							<groupindex>1</groupindex>
						</link>
						<logginginfo>
							<description></description>
							<scene></scene>
							<shottake></shottake>
							<lognote></lognote>
						</logginginfo>
						<labels>
							<label2>Caribbean</label2>
						</labels>
					</clipitem>
					<clipitem id="clipitem-3104" premiereChannelType="stereo">
						<masterclipid>masterclip-183</masterclipid>
						<name>051222163-message-or-correct-answer-win-.wav</name>
						<enabled>TRUE</enabled>
						<duration>81</duration>
						<rate>
							<timebase>25</timebase>
							<ntsc>FALSE</ntsc>
						</rate>
						<start>17855</start>
						<end>17932</end>
						<in>4</in>
						<out>81</out>
						<pproTicksIn>40642560000</pproTicksIn>
						<pproTicksOut>823011840000</pproTicksOut>
						<file id="file-179"/>
						<sourcetrack>
							<mediatype>audio</mediatype>
							<trackindex>1</trackindex>
						</sourcetrack>
							<filter>
								<effect>
									<name>Audio Levels</name>
									<effectid>audiolevels</effectid>
									<effectcategory>audiolevels</effectcategory>
									<effecttype>audiolevels</effecttype>
									<mediatype>audio</mediatype>
									<parameter authoringApp="PremierePro">
										<parameterid>level</parameterid>
										<name>Level</name>
										<valuemin>0</valuemin>
										<valuemax>3.98109</valuemax>
										<value>0.706268</value>
									</parameter>
								</effect>
							</filter>
						<link>
							<linkclipref>clipitem-3104</linkclipref>
							<mediatype>audio</mediatype>
							<trackindex>23</trackindex>
							<clipindex>23</clipindex>
							<groupindex>1</groupindex>
						</link>
						<link>
							<linkclipref>clipitem-3149</linkclipref>
							<mediatype>audio</mediatype>
							<trackindex>24</trackindex>
							<clipindex>23</clipindex>
							<groupindex>1</groupindex>
						</link>
						<logginginfo>
							<description></description>
							<scene></scene>
							<shottake></shottake>
							<lognote></lognote>
						</logginginfo>
						<labels>
							<label2>Caribbean</label2>
						</labels>
					</clipitem>
					<clipitem id="clipitem-3105" premiereChannelType="stereo">
						<masterclipid>masterclip-102</masterclipid>
						<name>Applaus 7 sek høflig.wav</name>
						<enabled>TRUE</enabled>
						<duration>189</duration>
						<rate>
							<timebase>25</timebase>
							<ntsc>FALSE</ntsc>
						</rate>
						<start>17950</start>
						<end>18139</end>
						<in>0</in>
						<out>189</out>
						<pproTicksIn>0</pproTicksIn>
						<pproTicksOut>1920360960000</pproTicksOut>
						<file id="file-98"/>
						<sourcetrack>
							<mediatype>audio</mediatype>
							<trackindex>1</trackindex>
						</sourcetrack>
						<link>
							<linkclipref>clipitem-3105</linkclipref>
							<mediatype>audio</mediatype>
							<trackindex>23</trackindex>
							<clipindex>24</clipindex>
							<groupindex>1</groupindex>
						</link>
						<link>
							<linkclipref>clipitem-3150</linkclipref>
							<mediatype>audio</mediatype>
							<trackindex>24</trackindex>
							<clipindex>24</clipindex>
							<groupindex>1</groupindex>
						</link>
						<logginginfo>
							<description></description>
							<scene></scene>
							<shottake></shottake>
							<lognote></lognote>
						</logginginfo>
						<labels>
							<label2>Caribbean</label2>
						</labels>
					</clipitem>
					<clipitem id="clipitem-3106" premiereChannelType="stereo">
						<masterclipid>masterclip-190</masterclipid>
						<name>2005-musikk-v2.WAV</name>
						<enabled>TRUE</enabled>
						<duration>1483</duration>
						<rate>
							<timebase>25</timebase>
							<ntsc>FALSE</ntsc>
						</rate>
						<start>18798</start>
						<end>18918</end>
						<in>16</in>
						<out>136</out>
						<pproTicksIn>162570240000</pproTicksIn>
						<pproTicksOut>1381847040000</pproTicksOut>
						<file id="file-186">
							<name>2005-musikk-v2.WAV</name>
							<pathurl>file://localhost/Volumes/Brakka/AdobeLager/QUIZ%20-%20brakka/Arkivstoff/2005/Voice/2005-musikk-v2.WAV</pathurl>
							<rate>
								<timebase>30</timebase>
								<ntsc>TRUE</ntsc>
							</rate>
							<duration>1778</duration>
							<timecode>
								<rate>
									<timebase>30</timebase>
									<ntsc>TRUE</ntsc>
								</rate>
								<string>00;00;00;00</string>
								<frame>0</frame>
								<displayformat>DF</displayformat>
								<reel>
									<name></name>
								</reel>
							</timecode>
							<media>
								<audio>
									<samplecharacteristics>
										<depth>16</depth>
										<samplerate>48000</samplerate>
									</samplecharacteristics>
									<channelcount>2</channelcount>
								</audio>
							</media>
						</file>
						<sourcetrack>
							<mediatype>audio</mediatype>
							<trackindex>1</trackindex>
						</sourcetrack>
						<link>
							<linkclipref>clipitem-3106</linkclipref>
							<mediatype>audio</mediatype>
							<trackindex>23</trackindex>
							<clipindex>25</clipindex>
							<groupindex>1</groupindex>
						</link>
						<link>
							<linkclipref>clipitem-3151</linkclipref>
							<mediatype>audio</mediatype>
							<trackindex>24</trackindex>
							<clipindex>25</clipindex>
							<groupindex>1</groupindex>
						</link>
						<logginginfo>
							<description></description>
							<scene></scene>
							<shottake></shottake>
							<lognote></lognote>
						</logginginfo>
						<labels>
							<label2>Caribbean</label2>
						</labels>
					</clipitem>
					<clipitem id="clipitem-3107" premiereChannelType="stereo">
						<masterclipid>masterclip-190</masterclipid>
						<name>2005-musikk-v2.WAV</name>
						<enabled>TRUE</enabled>
						<duration>1483</duration>
						<rate>
							<timebase>25</timebase>
							<ntsc>FALSE</ntsc>
						</rate>
						<start>19080</start>
						<end>19195</end>
						<in>147</in>
						<out>262</out>
						<pproTicksIn>1493614080000</pproTicksIn>
						<pproTicksOut>2662087680000</pproTicksOut>
						<file id="file-186"/>
						<sourcetrack>
							<mediatype>audio</mediatype>
							<trackindex>1</trackindex>
						</sourcetrack>
						<link>
							<linkclipref>clipitem-3107</linkclipref>
							<mediatype>audio</mediatype>
							<trackindex>23</trackindex>
							<clipindex>26</clipindex>
							<groupindex>1</groupindex>
						</link>
						<link>
							<linkclipref>clipitem-3152</linkclipref>
							<mediatype>audio</mediatype>
							<trackindex>24</trackindex>
							<clipindex>26</clipindex>
							<groupindex>1</groupindex>
						</link>
						<logginginfo>
							<description></description>
							<scene></scene>
							<shottake></shottake>
							<lognote></lognote>
						</logginginfo>
						<labels>
							<label2>Caribbean</label2>
						</labels>
					</clipitem>
					<clipitem id="clipitem-3108" premiereChannelType="stereo">
						<masterclipid>masterclip-191</masterclipid>
						<name>2005-musikk ekstra.WAV</name>
						<enabled>TRUE</enabled>
						<duration>672</duration>
						<rate>
							<timebase>25</timebase>
							<ntsc>FALSE</ntsc>
						</rate>
						<start>19340</start>
						<end>19671</end>
						<in>13</in>
						<out>344</out>
						<pproTicksIn>132088320000</pproTicksIn>
						<pproTicksOut>3495260160000</pproTicksOut>
						<file id="file-187">
							<name>2005-musikk ekstra.WAV</name>
							<pathurl>file://localhost/Volumes/Brakka/AdobeLager/QUIZ%20-%20brakka/Arkivstoff/2005/Voice/2005-musikk%20ekstra.WAV</pathurl>
							<rate>
								<timebase>30</timebase>
								<ntsc>TRUE</ntsc>
							</rate>
							<duration>806</duration>
							<timecode>
								<rate>
									<timebase>30</timebase>
									<ntsc>TRUE</ntsc>
								</rate>
								<string>00;00;00;00</string>
								<frame>0</frame>
								<displayformat>DF</displayformat>
								<reel>
									<name></name>
								</reel>
							</timecode>
							<media>
								<audio>
									<samplecharacteristics>
										<depth>16</depth>
										<samplerate>48000</samplerate>
									</samplecharacteristics>
									<channelcount>2</channelcount>
								</audio>
							</media>
						</file>
						<sourcetrack>
							<mediatype>audio</mediatype>
							<trackindex>1</trackindex>
						</sourcetrack>
						<link>
							<linkclipref>clipitem-3108</linkclipref>
							<mediatype>audio</mediatype>
							<trackindex>23</trackindex>
							<clipindex>27</clipindex>
							<groupindex>1</groupindex>
						</link>
						<link>
							<linkclipref>clipitem-3153</linkclipref>
							<mediatype>audio</mediatype>
							<trackindex>24</trackindex>
							<clipindex>27</clipindex>
							<groupindex>1</groupindex>
						</link>
						<logginginfo>
							<description></description>
							<scene></scene>
							<shottake></shottake>
							<lognote></lognote>
						</logginginfo>
						<labels>
							<label2>Caribbean</label2>
						</labels>
					</clipitem>
					<clipitem id="clipitem-3109" premiereChannelType="stereo">
						<masterclipid>masterclip-191</masterclipid>
						<name>2005-musikk ekstra.WAV</name>
						<enabled>TRUE</enabled>
						<duration>672</duration>
						<rate>
							<timebase>25</timebase>
							<ntsc>FALSE</ntsc>
						</rate>
						<start>19687</start>
						<end>19754</end>
						<in>344</in>
						<out>411</out>
						<pproTicksIn>3495260160000</pproTicksIn>
						<pproTicksOut>4176023040000</pproTicksOut>
						<file id="file-187"/>
						<sourcetrack>
							<mediatype>audio</mediatype>
							<trackindex>1</trackindex>
						</sourcetrack>
						<link>
							<linkclipref>clipitem-3109</linkclipref>
							<mediatype>audio</mediatype>
							<trackindex>23</trackindex>
							<clipindex>28</clipindex>
							<groupindex>1</groupindex>
						</link>
						<link>
							<linkclipref>clipitem-3154</linkclipref>
							<mediatype>audio</mediatype>
							<trackindex>24</trackindex>
							<clipindex>28</clipindex>
							<groupindex>1</groupindex>
						</link>
						<logginginfo>
							<description></description>
							<scene></scene>
							<shottake></shottake>
							<lognote></lognote>
						</logginginfo>
						<labels>
							<label2>Caribbean</label2>
						</labels>
					</clipitem>
					<clipitem id="clipitem-3110" premiereChannelType="stereo">
						<masterclipid>masterclip-190</masterclipid>
						<name>2005-musikk-v2.WAV</name>
						<enabled>TRUE</enabled>
						<duration>1483</duration>
						<rate>
							<timebase>25</timebase>
							<ntsc>FALSE</ntsc>
						</rate>
						<start>19972</start>
						<end>20075</end>
						<in>367</in>
						<out>470</out>
						<pproTicksIn>3728954880000</pproTicksIn>
						<pproTicksOut>4775500800000</pproTicksOut>
						<file id="file-186"/>
						<sourcetrack>
							<mediatype>audio</mediatype>
							<trackindex>1</trackindex>
						</sourcetrack>
						<link>
							<linkclipref>clipitem-3110</linkclipref>
							<mediatype>audio</mediatype>
							<trackindex>23</trackindex>
							<clipindex>29</clipindex>
							<groupindex>1</groupindex>
						</link>
						<link>
							<linkclipref>clipitem-3155</linkclipref>
							<mediatype>audio</mediatype>
							<trackindex>24</trackindex>
							<clipindex>29</clipindex>
							<groupindex>1</groupindex>
						</link>
						<logginginfo>
							<description></description>
							<scene></scene>
							<shottake></shottake>
							<lognote></lognote>
						</logginginfo>
						<labels>
							<label2>Caribbean</label2>
						</labels>
					</clipitem>
					<clipitem id="clipitem-3111" premiereChannelType="stereo">
						<masterclipid>masterclip-190</masterclipid>
						<name>2005-musikk-v2.WAV</name>
						<enabled>TRUE</enabled>
						<duration>1483</duration>
						<rate>
							<timebase>25</timebase>
							<ntsc>FALSE</ntsc>
						</rate>
						<start>20159</start>
						<end>20307</end>
						<in>489</in>
						<out>637</out>
						<pproTicksIn>4968552960000</pproTicksIn>
						<pproTicksOut>6472327680000</pproTicksOut>
						<file id="file-186"/>
						<sourcetrack>
							<mediatype>audio</mediatype>
							<trackindex>1</trackindex>
						</sourcetrack>
						<link>
							<linkclipref>clipitem-3111</linkclipref>
							<mediatype>audio</mediatype>
							<trackindex>23</trackindex>
							<clipindex>30</clipindex>
							<groupindex>1</groupindex>
						</link>
						<link>
							<linkclipref>clipitem-3156</linkclipref>
							<mediatype>audio</mediatype>
							<trackindex>24</trackindex>
							<clipindex>30</clipindex>
							<groupindex>1</groupindex>
						</link>
						<logginginfo>
							<description></description>
							<scene></scene>
							<shottake></shottake>
							<lognote></lognote>
						</logginginfo>
						<labels>
							<label2>Caribbean</label2>
						</labels>
					</clipitem>
					<clipitem id="clipitem-3112" premiereChannelType="stereo">
						<masterclipid>masterclip-190</masterclipid>
						<name>2005-musikk-v2.WAV</name>
						<enabled>TRUE</enabled>
						<duration>1483</duration>
						<rate>
							<timebase>25</timebase>
							<ntsc>FALSE</ntsc>
						</rate>
						<start>20609</start>
						<end>20789</end>
						<in>659</in>
						<out>839</out>
						<pproTicksIn>6695861760000</pproTicksIn>
						<pproTicksOut>8524776960000</pproTicksOut>
						<file id="file-186"/>
						<sourcetrack>
							<mediatype>audio</mediatype>
							<trackindex>1</trackindex>
						</sourcetrack>
						<link>
							<linkclipref>clipitem-3112</linkclipref>
							<mediatype>audio</mediatype>
							<trackindex>23</trackindex>
							<clipindex>31</clipindex>
							<groupindex>1</groupindex>
						</link>
						<link>
							<linkclipref>clipitem-3157</linkclipref>
							<mediatype>audio</mediatype>
							<trackindex>24</trackindex>
							<clipindex>31</clipindex>
							<groupindex>1</groupindex>
						</link>
						<logginginfo>
							<description></description>
							<scene></scene>
							<shottake></shottake>
							<lognote></lognote>
						</logginginfo>
						<labels>
							<label2>Caribbean</label2>
						</labels>
					</clipitem>
					<clipitem id="clipitem-3113" premiereChannelType="stereo">
						<masterclipid>masterclip-190</masterclipid>
						<name>2005-musikk-v2.WAV</name>
						<enabled>TRUE</enabled>
						<duration>1483</duration>
						<rate>
							<timebase>25</timebase>
							<ntsc>FALSE</ntsc>
						</rate>
						<start>21079</start>
						<end>21186</end>
						<in>1110</in>
						<out>1217</out>
						<pproTicksIn>11278310400000</pproTicksIn>
						<pproTicksOut>12365498880000</pproTicksOut>
						<file id="file-186"/>
						<sourcetrack>
							<mediatype>audio</mediatype>
							<trackindex>1</trackindex>
						</sourcetrack>
						<link>
							<linkclipref>clipitem-3113</linkclipref>
							<mediatype>audio</mediatype>
							<trackindex>23</trackindex>
							<clipindex>32</clipindex>
							<groupindex>1</groupindex>
						</link>
						<link>
							<linkclipref>clipitem-3158</linkclipref>
							<mediatype>audio</mediatype>
							<trackindex>24</trackindex>
							<clipindex>32</clipindex>
							<groupindex>1</groupindex>
						</link>
						<logginginfo>
							<description></description>
							<scene></scene>
							<shottake></shottake>
							<lognote></lognote>
						</logginginfo>
						<labels>
							<label2>Caribbean</label2>
						</labels>
					</clipitem>
					<clipitem id="clipitem-3114" premiereChannelType="stereo">
						<masterclipid>masterclip-190</masterclipid>
						<name>2005-musikk-v2.WAV</name>
						<enabled>TRUE</enabled>
						<duration>1483</duration>
						<rate>
							<timebase>25</timebase>
							<ntsc>FALSE</ntsc>
						</rate>
						<start>21537</start>
						<end>21716</end>
						<in>1247</in>
						<out>1426</out>
						<pproTicksIn>12670318080000</pproTicksIn>
						<pproTicksOut>14489072640000</pproTicksOut>
						<file id="file-186"/>
						<sourcetrack>
							<mediatype>audio</mediatype>
							<trackindex>1</trackindex>
						</sourcetrack>
						<link>
							<linkclipref>clipitem-3114</linkclipref>
							<mediatype>audio</mediatype>
							<trackindex>23</trackindex>
							<clipindex>33</clipindex>
							<groupindex>1</groupindex>
						</link>
						<link>
							<linkclipref>clipitem-3159</linkclipref>
							<mediatype>audio</mediatype>
							<trackindex>24</trackindex>
							<clipindex>33</clipindex>
							<groupindex>1</groupindex>
						</link>
						<logginginfo>
							<description></description>
							<scene></scene>
							<shottake></shottake>
							<lognote></lognote>
						</logginginfo>
						<labels>
							<label2>Caribbean</label2>
						</labels>
					</clipitem>
					<clipitem id="clipitem-3115" premiereChannelType="mono">
						<masterclipid>masterclip-41</masterclipid>
						<name>OUHA09000305AA.mxf</name>
						<enabled>TRUE</enabled>
						<duration>68435</duration>
						<rate>
							<timebase>25</timebase>
							<ntsc>FALSE</ntsc>
						</rate>
						<start>24867</start>
						<end>25402</end>
						<in>17874</in>
						<out>18409</out>
						<pproTicksIn>181611279360000</pproTicksIn>
						<pproTicksOut>187047221760000</pproTicksOut>
						<file id="file-37"/>
						<sourcetrack>
							<mediatype>audio</mediatype>
							<trackindex>2</trackindex>
						</sourcetrack>
							<filter>
								<effect>
									<name>Audio Levels</name>
									<effectid>audiolevels</effectid>
									<effectcategory>audiolevels</effectcategory>
									<effecttype>audiolevels</effecttype>
									<mediatype>audio</mediatype>
									<parameter authoringApp="PremierePro">
										<parameterid>level</parameterid>
										<name>Level</name>
										<valuemin>0</valuemin>
										<valuemax>3.98109</valuemax>
										<value>0</value>
										<keyframe>
											<when>18276</when>
											<value>0.199053</value>
										</keyframe>
										<keyframe>
											<when>18409</when>
											<value>0</value>
										</keyframe>
									</parameter>
								</effect>
							</filter>
						<logginginfo>
							<description></description>
							<scene></scene>
							<shottake></shottake>
							<lognote></lognote>
						</logginginfo>
						<labels>
							<label2>Iris</label2>
						</labels>
					</clipitem>
					<clipitem id="clipitem-3116" premiereChannelType="stereo">
						<masterclipid>masterclip-97</masterclipid>
						<name>Enkelt latterkule hele publikum.wav</name>
						<enabled>TRUE</enabled>
						<duration>95</duration>
						<rate>
							<timebase>25</timebase>
							<ntsc>FALSE</ntsc>
						</rate>
						<start>32207</start>
						<end>32299</end>
						<in>3</in>
						<out>95</out>
						<pproTicksIn>30481920000</pproTicksIn>
						<pproTicksOut>965260800000</pproTicksOut>
						<file id="file-93"/>
						<sourcetrack>
							<mediatype>audio</mediatype>
							<trackindex>1</trackindex>
						</sourcetrack>
							<filter>
								<effect>
									<name>Audio Levels</name>
									<effectid>audiolevels</effectid>
									<effectcategory>audiolevels</effectcategory>
									<effecttype>audiolevels</effecttype>
									<mediatype>audio</mediatype>
									<parameter authoringApp="PremierePro">
										<parameterid>level</parameterid>
										<name>Level</name>
										<valuemin>0</valuemin>
										<valuemax>3.98109</valuemax>
										<value>1.1289</value>
									</parameter>
								</effect>
							</filter>
						<link>
							<linkclipref>clipitem-3116</linkclipref>
							<mediatype>audio</mediatype>
							<trackindex>23</trackindex>
							<clipindex>35</clipindex>
							<groupindex>1</groupindex>
						</link>
						<link>
							<linkclipref>clipitem-3160</linkclipref>
							<mediatype>audio</mediatype>
							<trackindex>24</trackindex>
							<clipindex>34</clipindex>
							<groupindex>1</groupindex>
						</link>
						<logginginfo>
							<description></description>
							<scene></scene>
							<shottake></shottake>
							<lognote></lognote>
						</logginginfo>
						<labels>
							<label2>Caribbean</label2>
						</labels>
					</clipitem>
					<clipitem id="clipitem-3117" premiereChannelType="stereo">
						<masterclipid>masterclip-192</masterclipid>
						<name>Liten latter 2.wav</name>
						<enabled>TRUE</enabled>
						<duration>147</duration>
						<rate>
							<timebase>25</timebase>
							<ntsc>FALSE</ntsc>
						</rate>
						<start>33035</start>
						<end>33182</end>
						<in>0</in>
						<out>147</out>
						<pproTicksIn>0</pproTicksIn>
						<pproTicksOut>1493614080000</pproTicksOut>
						<file id="file-188">
							<name>Liten latter 2.wav</name>
							<pathurl>file://localhost/Volumes/Brakka/AdobeLager/QUIZ%20-%20brakka/RA%cc%8aSTOFF%20LYD/Publikumsreaksjoner/Fra%201980/Liten%20latter%202.wav</pathurl>
							<rate>
								<timebase>30</timebase>
								<ntsc>TRUE</ntsc>
							</rate>
							<duration>176</duration>
							<timecode>
								<rate>
									<timebase>30</timebase>
									<ntsc>TRUE</ntsc>
								</rate>
								<string>13;01;34;23</string>
								<frame>1405437</frame>
								<displayformat>DF</displayformat>
								<reel>
									<name></name>
								</reel>
							</timecode>
							<media>
								<audio>
									<samplecharacteristics>
										<depth>16</depth>
										<samplerate>48000</samplerate>
									</samplecharacteristics>
									<channelcount>2</channelcount>
								</audio>
							</media>
						</file>
						<sourcetrack>
							<mediatype>audio</mediatype>
							<trackindex>1</trackindex>
						</sourcetrack>
							<filter>
								<effect>
									<name>Audio Levels</name>
									<effectid>audiolevels</effectid>
									<effectcategory>audiolevels</effectcategory>
									<effecttype>audiolevels</effecttype>
									<mediatype>audio</mediatype>
									<parameter authoringApp="PremierePro">
										<parameterid>level</parameterid>
										<name>Level</name>
										<valuemin>0</valuemin>
										<valuemax>3.98109</valuemax>
										<value>0.99763</value>
									</parameter>
								</effect>
							</filter>
						<link>
							<linkclipref>clipitem-3117</linkclipref>
							<mediatype>audio</mediatype>
							<trackindex>23</trackindex>
							<clipindex>36</clipindex>
							<groupindex>1</groupindex>
						</link>
						<link>
							<linkclipref>clipitem-3161</linkclipref>
							<mediatype>audio</mediatype>
							<trackindex>24</trackindex>
							<clipindex>35</clipindex>
							<groupindex>1</groupindex>
						</link>
						<logginginfo>
							<description></description>
							<scene></scene>
							<shottake></shottake>
							<lognote></lognote>
						</logginginfo>
						<labels>
							<label2>Caribbean</label2>
						</labels>
					</clipitem>
					<clipitem id="clipitem-3118" premiereChannelType="stereo">
						<masterclipid>masterclip-150</masterclipid>
						<name>Avmålt, kort HEHEHE.wav</name>
						<enabled>TRUE</enabled>
						<duration>51</duration>
						<rate>
							<timebase>25</timebase>
							<ntsc>FALSE</ntsc>
						</rate>
						<start>33254</start>
						<end>33305</end>
						<in>0</in>
						<out>51</out>
						<pproTicksIn>0</pproTicksIn>
						<pproTicksOut>518192640000</pproTicksOut>
						<file id="file-146"/>
						<sourcetrack>
							<mediatype>audio</mediatype>
							<trackindex>1</trackindex>
						</sourcetrack>
							<filter>
								<effect>
									<name>Audio Levels</name>
									<effectid>audiolevels</effectid>
									<effectcategory>audiolevels</effectcategory>
									<effecttype>audiolevels</effecttype>
									<mediatype>audio</mediatype>
									<parameter authoringApp="PremierePro">
										<parameterid>level</parameterid>
										<name>Level</name>
										<valuemin>0</valuemin>
										<valuemax>3.98109</valuemax>
										<value>0.99763</value>
									</parameter>
								</effect>
							</filter>
						<link>
							<linkclipref>clipitem-3118</linkclipref>
							<mediatype>audio</mediatype>
							<trackindex>23</trackindex>
							<clipindex>37</clipindex>
							<groupindex>1</groupindex>
						</link>
						<link>
							<linkclipref>clipitem-3162</linkclipref>
							<mediatype>audio</mediatype>
							<trackindex>24</trackindex>
							<clipindex>36</clipindex>
							<groupindex>1</groupindex>
						</link>
						<logginginfo>
							<description></description>
							<scene></scene>
							<shottake></shottake>
							<lognote></lognote>
						</logginginfo>
						<labels>
							<label2>Caribbean</label2>
						</labels>
					</clipitem>
					<clipitem id="clipitem-3119" premiereChannelType="stereo">
						<masterclipid>masterclip-94</masterclipid>
						<name>Kort fnis, klukking.wav</name>
						<enabled>TRUE</enabled>
						<duration>68</duration>
						<rate>
							<timebase>25</timebase>
							<ntsc>FALSE</ntsc>
						</rate>
						<start>33305</start>
						<end>33372</end>
						<in>1</in>
						<out>68</out>
						<pproTicksIn>10160640000</pproTicksIn>
						<pproTicksOut>690923520000</pproTicksOut>
						<file id="file-90"/>
						<sourcetrack>
							<mediatype>audio</mediatype>
							<trackindex>1</trackindex>
						</sourcetrack>
							<filter>
								<effect>
									<name>Audio Levels</name>
									<effectid>audiolevels</effectid>
									<effectcategory>audiolevels</effectcategory>
									<effecttype>audiolevels</effecttype>
									<mediatype>audio</mediatype>
									<parameter authoringApp="PremierePro">
										<parameterid>level</parameterid>
										<name>Level</name>
										<valuemin>0</valuemin>
										<valuemax>3.98109</valuemax>
										<value>0.99763</value>
									</parameter>
								</effect>
							</filter>
						<link>
							<linkclipref>clipitem-3119</linkclipref>
							<mediatype>audio</mediatype>
							<trackindex>23</trackindex>
							<clipindex>38</clipindex>
							<groupindex>1</groupindex>
						</link>
						<link>
							<linkclipref>clipitem-3163</linkclipref>
							<mediatype>audio</mediatype>
							<trackindex>24</trackindex>
							<clipindex>37</clipindex>
							<groupindex>1</groupindex>
						</link>
						<logginginfo>
							<description></description>
							<scene></scene>
							<shottake></shottake>
							<lognote></lognote>
						</logginginfo>
						<labels>
							<label2>Caribbean</label2>
						</labels>
					</clipitem>
					<clipitem id="clipitem-3120" premiereChannelType="stereo">
						<masterclipid>masterclip-94</masterclipid>
						<name>Kort fnis, klukking.wav</name>
						<enabled>TRUE</enabled>
						<duration>68</duration>
						<rate>
							<timebase>25</timebase>
							<ntsc>FALSE</ntsc>
						</rate>
						<start>33745</start>
						<end>33766</end>
						<in>0</in>
						<out>21</out>
						<pproTicksIn>0</pproTicksIn>
						<pproTicksOut>213373440000</pproTicksOut>
						<file id="file-90"/>
						<sourcetrack>
							<mediatype>audio</mediatype>
							<trackindex>1</trackindex>
						</sourcetrack>
							<filter>
								<effect>
									<name>Audio Levels</name>
									<effectid>audiolevels</effectid>
									<effectcategory>audiolevels</effectcategory>
									<effecttype>audiolevels</effecttype>
									<mediatype>audio</mediatype>
									<parameter authoringApp="PremierePro">
										<parameterid>level</parameterid>
										<name>Level</name>
										<valuemin>0</valuemin>
										<valuemax>3.98109</valuemax>
										<value>0.99763</value>
									</parameter>
								</effect>
							</filter>
						<link>
							<linkclipref>clipitem-3120</linkclipref>
							<mediatype>audio</mediatype>
							<trackindex>23</trackindex>
							<clipindex>39</clipindex>
							<groupindex>1</groupindex>
						</link>
						<link>
							<linkclipref>clipitem-3164</linkclipref>
							<mediatype>audio</mediatype>
							<trackindex>24</trackindex>
							<clipindex>38</clipindex>
							<groupindex>1</groupindex>
						</link>
						<logginginfo>
							<description></description>
							<scene></scene>
							<shottake></shottake>
							<lognote></lognote>
						</logginginfo>
						<labels>
							<label2>Caribbean</label2>
						</labels>
					</clipitem>
					<clipitem id="clipitem-3121" premiereChannelType="stereo">
						<masterclipid>masterclip-94</masterclipid>
						<name>Kort fnis, klukking.wav</name>
						<enabled>TRUE</enabled>
						<duration>68</duration>
						<rate>
							<timebase>25</timebase>
							<ntsc>FALSE</ntsc>
						</rate>
						<start>33766</start>
						<end>33813</end>
						<in>21</in>
						<out>68</out>
						<pproTicksIn>213373440000</pproTicksIn>
						<pproTicksOut>690923520000</pproTicksOut>
						<file id="file-90"/>
						<sourcetrack>
							<mediatype>audio</mediatype>
							<trackindex>1</trackindex>
						</sourcetrack>
							<filter>
								<effect>
									<name>Audio Levels</name>
									<effectid>audiolevels</effectid>
									<effectcategory>audiolevels</effectcategory>
									<effecttype>audiolevels</effecttype>
									<mediatype>audio</mediatype>
									<parameter authoringApp="PremierePro">
										<parameterid>level</parameterid>
										<name>Level</name>
										<valuemin>0</valuemin>
										<valuemax>3.98109</valuemax>
										<value>0.99763</value>
									</parameter>
								</effect>
							</filter>
						<link>
							<linkclipref>clipitem-3121</linkclipref>
							<mediatype>audio</mediatype>
							<trackindex>23</trackindex>
							<clipindex>40</clipindex>
							<groupindex>1</groupindex>
						</link>
						<link>
							<linkclipref>clipitem-3165</linkclipref>
							<mediatype>audio</mediatype>
							<trackindex>24</trackindex>
							<clipindex>39</clipindex>
							<groupindex>1</groupindex>
						</link>
						<logginginfo>
							<description></description>
							<scene></scene>
							<shottake></shottake>
							<lognote></lognote>
						</logginginfo>
						<labels>
							<label2>Caribbean</label2>
						</labels>
					</clipitem>
					<clipitem id="clipitem-3122" premiereChannelType="stereo">
						<masterclipid>masterclip-97</masterclipid>
						<name>Enkelt latterkule hele publikum.wav</name>
						<enabled>TRUE</enabled>
						<duration>95</duration>
						<rate>
							<timebase>25</timebase>
							<ntsc>FALSE</ntsc>
						</rate>
						<start>35204</start>
						<end>35299</end>
						<in>0</in>
						<out>95</out>
						<pproTicksIn>0</pproTicksIn>
						<pproTicksOut>965260800000</pproTicksOut>
						<file id="file-93"/>
						<sourcetrack>
							<mediatype>audio</mediatype>
							<trackindex>1</trackindex>
						</sourcetrack>
							<filter>
								<effect>
									<name>Audio Levels</name>
									<effectid>audiolevels</effectid>
									<effectcategory>audiolevels</effectcategory>
									<effecttype>audiolevels</effecttype>
									<mediatype>audio</mediatype>
									<parameter authoringApp="PremierePro">
										<parameterid>level</parameterid>
										<name>Level</name>
										<valuemin>0</valuemin>
										<valuemax>3.98109</valuemax>
										<value>0.99763</value>
									</parameter>
								</effect>
							</filter>
						<link>
							<linkclipref>clipitem-3122</linkclipref>
							<mediatype>audio</mediatype>
							<trackindex>23</trackindex>
							<clipindex>41</clipindex>
							<groupindex>1</groupindex>
						</link>
						<link>
							<linkclipref>clipitem-3166</linkclipref>
							<mediatype>audio</mediatype>
							<trackindex>24</trackindex>
							<clipindex>40</clipindex>
							<groupindex>1</groupindex>
						</link>
						<logginginfo>
							<description></description>
							<scene></scene>
							<shottake></shottake>
							<lognote></lognote>
						</logginginfo>
						<labels>
							<label2>Caribbean</label2>
						</labels>
					</clipitem>
					<clipitem id="clipitem-3123" premiereChannelType="stereo">
						<masterclipid>masterclip-146</masterclipid>
						<name>Brå liten latter HÆHÆ.wav</name>
						<enabled>TRUE</enabled>
						<duration>114</duration>
						<rate>
							<timebase>25</timebase>
							<ntsc>FALSE</ntsc>
						</rate>
						<start>35434</start>
						<end>35548</end>
						<in>0</in>
						<out>114</out>
						<pproTicksIn>0</pproTicksIn>
						<pproTicksOut>1158312960000</pproTicksOut>
						<file id="file-142"/>
						<sourcetrack>
							<mediatype>audio</mediatype>
							<trackindex>1</trackindex>
						</sourcetrack>
						<link>
							<linkclipref>clipitem-3123</linkclipref>
							<mediatype>audio</mediatype>
							<trackindex>23</trackindex>
							<clipindex>42</clipindex>
							<groupindex>1</groupindex>
						</link>
						<link>
							<linkclipref>clipitem-3167</linkclipref>
							<mediatype>audio</mediatype>
							<trackindex>24</trackindex>
							<clipindex>41</clipindex>
							<groupindex>1</groupindex>
						</link>
						<logginginfo>
							<description></description>
							<scene></scene>
							<shottake></shottake>
							<lognote></lognote>
						</logginginfo>
						<labels>
							<label2>Caribbean</label2>
						</labels>
					</clipitem>
					<clipitem id="clipitem-3124" premiereChannelType="stereo">
						<masterclipid>masterclip-146</masterclipid>
						<name>Brå liten latter HÆHÆ.wav</name>
						<enabled>TRUE</enabled>
						<duration>114</duration>
						<rate>
							<timebase>25</timebase>
							<ntsc>FALSE</ntsc>
						</rate>
						<start>36383</start>
						<end>36497</end>
						<in>0</in>
						<out>114</out>
						<pproTicksIn>0</pproTicksIn>
						<pproTicksOut>1158312960000</pproTicksOut>
						<file id="file-142"/>
						<sourcetrack>
							<mediatype>audio</mediatype>
							<trackindex>1</trackindex>
						</sourcetrack>
							<filter>
								<effect>
									<name>Audio Levels</name>
									<effectid>audiolevels</effectid>
									<effectcategory>audiolevels</effectcategory>
									<effecttype>audiolevels</effecttype>
									<mediatype>audio</mediatype>
									<parameter authoringApp="PremierePro">
										<parameterid>level</parameterid>
										<name>Level</name>
										<valuemin>0</valuemin>
										<valuemax>3.98109</valuemax>
										<value>0.99763</value>
									</parameter>
								</effect>
							</filter>
						<link>
							<linkclipref>clipitem-3124</linkclipref>
							<mediatype>audio</mediatype>
							<trackindex>23</trackindex>
							<clipindex>43</clipindex>
							<groupindex>1</groupindex>
						</link>
						<link>
							<linkclipref>clipitem-3168</linkclipref>
							<mediatype>audio</mediatype>
							<trackindex>24</trackindex>
							<clipindex>42</clipindex>
							<groupindex>1</groupindex>
						</link>
						<logginginfo>
							<description></description>
							<scene></scene>
							<shottake></shottake>
							<lognote></lognote>
						</logginginfo>
						<labels>
							<label2>Caribbean</label2>
						</labels>
					</clipitem>
					<transitionitem>
						<start>38256</start>
						<end>38264</end>
						<alignment>start-black</alignment>
						<cutPointTicks>0</cutPointTicks>
						<rate>
							<timebase>25</timebase>
							<ntsc>FALSE</ntsc>
						</rate>
						<effect>
							<name>Cross Fade (+3dB)</name>
							<effectid>KGAudioTransCrossFade3dB</effectid>
							<effecttype>transition</effecttype>
							<mediatype>audio</mediatype>
							<wipecode>0</wipecode>
							<wipeaccuracy>100</wipeaccuracy>
							<startratio>0</startratio>
							<endratio>1</endratio>
							<reverse>FALSE</reverse>
						</effect>
					</transitionitem>
					<clipitem id="clipitem-3125" premiereChannelType="stereo">
						<masterclipid>masterclip-173</masterclipid>
						<name>Apollo_NJT_6_51__Change_Is_Inevitable__Kaveh_Cohen_Michael_David_Nielsen.mp3</name>
						<enabled>TRUE</enabled>
						<duration>5493</duration>
						<rate>
							<timebase>25</timebase>
							<ntsc>FALSE</ntsc>
						</rate>
						<start>-1</start>
						<end>-1</end>
						<in>4871</in>
						<out>5050</out>
						<pproTicksIn>49492477440000</pproTicksIn>
						<pproTicksOut>51311232000000</pproTicksOut>
						<file id="file-169"/>
						<sourcetrack>
							<mediatype>audio</mediatype>
							<trackindex>1</trackindex>
						</sourcetrack>
							<filter>
								<effect>
									<name>Audio Levels</name>
									<effectid>audiolevels</effectid>
									<effectcategory>audiolevels</effectcategory>
									<effecttype>audiolevels</effecttype>
									<mediatype>audio</mediatype>
									<parameter authoringApp="PremierePro">
										<parameterid>level</parameterid>
										<name>Level</name>
										<valuemin>0</valuemin>
										<valuemax>3.98109</valuemax>
										<value>0.223342</value>
									</parameter>
								</effect>
							</filter>
						<link>
							<linkclipref>clipitem-3125</linkclipref>
							<mediatype>audio</mediatype>
							<trackindex>23</trackindex>
							<clipindex>45</clipindex>
							<groupindex>1</groupindex>
						</link>
						<link>
							<linkclipref>clipitem-3169</linkclipref>
							<mediatype>audio</mediatype>
							<trackindex>24</trackindex>
							<clipindex>44</clipindex>
							<groupindex>1</groupindex>
						</link>
						<logginginfo>
							<description></description>
							<scene></scene>
							<shottake></shottake>
							<lognote>Epic, Action, Dramatic, Percussive, Hybrid, Modern, Gritty, Slow Burn, Heroic, Intense, Gripping, Powerful, Driving, Apocalyptic, Battle, Chase, Huge, Drums, Percussion, Guitar, Bass, Synths, Piano, Orchestra, Choir, Sound Design</lognote>
						</logginginfo>
						<labels>
							<label2>Caribbean</label2>
						</labels>
					</clipitem>
					<transitionitem>
						<start>38422</start>
						<end>38435</end>
						<alignment>end-black</alignment>
						<cutPointTicks>132088320000</cutPointTicks>
						<rate>
							<timebase>25</timebase>
							<ntsc>FALSE</ntsc>
						</rate>
						<effect>
							<name>Cross Fade (+3dB)</name>
							<effectid>KGAudioTransCrossFade3dB</effectid>
							<effecttype>transition</effecttype>
							<mediatype>audio</mediatype>
							<wipecode>0</wipecode>
							<wipeaccuracy>100</wipeaccuracy>
							<startratio>0</startratio>
							<endratio>1</endratio>
							<reverse>FALSE</reverse>
						</effect>
					</transitionitem>
					<clipitem id="clipitem-3126" premiereChannelType="stereo">
						<masterclipid>masterclip-102</masterclipid>
						<name>Applaus 7 sek høflig.wav</name>
						<enabled>TRUE</enabled>
						<duration>189</duration>
						<rate>
							<timebase>25</timebase>
							<ntsc>FALSE</ntsc>
						</rate>
						<start>40460</start>
						<end>40649</end>
						<in>0</in>
						<out>189</out>
						<pproTicksIn>0</pproTicksIn>
						<pproTicksOut>1920360960000</pproTicksOut>
						<file id="file-98"/>
						<sourcetrack>
							<mediatype>audio</mediatype>
							<trackindex>1</trackindex>
						</sourcetrack>
						<link>
							<linkclipref>clipitem-3126</linkclipref>
							<mediatype>audio</mediatype>
							<trackindex>23</trackindex>
							<clipindex>47</clipindex>
							<groupindex>1</groupindex>
						</link>
						<link>
							<linkclipref>clipitem-3170</linkclipref>
							<mediatype>audio</mediatype>
							<trackindex>24</trackindex>
							<clipindex>46</clipindex>
							<groupindex>1</groupindex>
						</link>
						<logginginfo>
							<description></description>
							<scene></scene>
							<shottake></shottake>
							<lognote></lognote>
						</logginginfo>
						<labels>
							<label2>Caribbean</label2>
						</labels>
					</clipitem>
					<clipitem id="clipitem-3127" premiereChannelType="stereo">
						<masterclipid>masterclip-80</masterclipid>
						<name>Latter behersket.wav</name>
						<enabled>TRUE</enabled>
						<duration>124</duration>
						<rate>
							<timebase>25</timebase>
							<ntsc>FALSE</ntsc>
						</rate>
						<start>40683</start>
						<end>40807</end>
						<in>0</in>
						<out>124</out>
						<pproTicksIn>0</pproTicksIn>
						<pproTicksOut>1259919360000</pproTicksOut>
						<file id="file-76"/>
						<sourcetrack>
							<mediatype>audio</mediatype>
							<trackindex>1</trackindex>
						</sourcetrack>
						<link>
							<linkclipref>clipitem-3127</linkclipref>
							<mediatype>audio</mediatype>
							<trackindex>23</trackindex>
							<clipindex>48</clipindex>
							<groupindex>1</groupindex>
						</link>
						<link>
							<linkclipref>clipitem-3171</linkclipref>
							<mediatype>audio</mediatype>
							<trackindex>24</trackindex>
							<clipindex>47</clipindex>
							<groupindex>1</groupindex>
						</link>
						<logginginfo>
							<description></description>
							<scene></scene>
							<shottake></shottake>
							<lognote></lognote>
						</logginginfo>
						<labels>
							<label2>Caribbean</label2>
						</labels>
					</clipitem>
					<clipitem id="clipitem-3128" premiereChannelType="stereo">
						<masterclipid>masterclip-89</masterclipid>
						<name>Applaus behersket litt hoi 5 sek.wav</name>
						<enabled>TRUE</enabled>
						<duration>125</duration>
						<rate>
							<timebase>25</timebase>
							<ntsc>FALSE</ntsc>
						</rate>
						<start>49474</start>
						<end>49599</end>
						<in>0</in>
						<out>125</out>
						<pproTicksIn>0</pproTicksIn>
						<pproTicksOut>1270080000000</pproTicksOut>
						<file id="file-85"/>
						<sourcetrack>
							<mediatype>audio</mediatype>
							<trackindex>1</trackindex>
						</sourcetrack>
						<link>
							<linkclipref>clipitem-3128</linkclipref>
							<mediatype>audio</mediatype>
							<trackindex>23</trackindex>
							<clipindex>49</clipindex>
							<groupindex>1</groupindex>
						</link>
						<link>
							<linkclipref>clipitem-3172</linkclipref>
							<mediatype>audio</mediatype>
							<trackindex>24</trackindex>
							<clipindex>48</clipindex>
							<groupindex>1</groupindex>
						</link>
						<logginginfo>
							<description></description>
							<scene></scene>
							<shottake></shottake>
							<lognote></lognote>
						</logginginfo>
						<labels>
							<label2>Caribbean</label2>
						</labels>
					</clipitem>
					<clipitem id="clipitem-3129" premiereChannelType="stereo">
						<masterclipid>masterclip-102</masterclipid>
						<name>Applaus 7 sek høflig.wav</name>
						<enabled>TRUE</enabled>
						<duration>189</duration>
						<rate>
							<timebase>25</timebase>
							<ntsc>FALSE</ntsc>
						</rate>
						<start>49616</start>
						<end>49805</end>
						<in>0</in>
						<out>189</out>
						<pproTicksIn>0</pproTicksIn>
						<pproTicksOut>1920360960000</pproTicksOut>
						<file id="file-98"/>
						<sourcetrack>
							<mediatype>audio</mediatype>
							<trackindex>1</trackindex>
						</sourcetrack>
						<link>
							<linkclipref>clipitem-3129</linkclipref>
							<mediatype>audio</mediatype>
							<trackindex>23</trackindex>
							<clipindex>50</clipindex>
							<groupindex>1</groupindex>
						</link>
						<link>
							<linkclipref>clipitem-3173</linkclipref>
							<mediatype>audio</mediatype>
							<trackindex>24</trackindex>
							<clipindex>49</clipindex>
							<groupindex>1</groupindex>
						</link>
						<logginginfo>
							<description></description>
							<scene></scene>
							<shottake></shottake>
							<lognote></lognote>
						</logginginfo>
						<labels>
							<label2>Caribbean</label2>
						</labels>
					</clipitem>
					<clipitem id="clipitem-3130" premiereChannelType="stereo">
						<masterclipid>masterclip-193</masterclipid>
						<name>Stopwatch Sound Effect.mp3</name>
						<enabled>TRUE</enabled>
						<duration>102</duration>
						<rate>
							<timebase>25</timebase>
							<ntsc>FALSE</ntsc>
						</rate>
						<start>49851</start>
						<end>49933</end>
						<in>14</in>
						<out>96</out>
						<pproTicksIn>142248960000</pproTicksIn>
						<pproTicksOut>975421440000</pproTicksOut>
						<file id="file-189">
							<name>Stopwatch Sound Effect.mp3</name>
							<pathurl>file://localhost/Volumes/Brakka/AdobeLager/QUIZ%20-%20brakka/Musikk/Sound%20FX/Stopwatch%20Sound%20Effect.mp3</pathurl>
							<rate>
								<timebase>30</timebase>
								<ntsc>TRUE</ntsc>
							</rate>
							<duration>122</duration>
							<timecode>
								<rate>
									<timebase>30</timebase>
									<ntsc>TRUE</ntsc>
								</rate>
								<string>00;00;00;00</string>
								<frame>0</frame>
								<displayformat>DF</displayformat>
								<reel>
									<name></name>
								</reel>
							</timecode>
							<media>
								<audio>
									<samplecharacteristics>
										<depth>16</depth>
										<samplerate>44100</samplerate>
									</samplecharacteristics>
									<channelcount>2</channelcount>
								</audio>
							</media>
						</file>
						<sourcetrack>
							<mediatype>audio</mediatype>
							<trackindex>1</trackindex>
						</sourcetrack>
							<filter>
								<effect>
									<name>Audio Levels</name>
									<effectid>audiolevels</effectid>
									<effectcategory>audiolevels</effectcategory>
									<effecttype>audiolevels</effecttype>
									<mediatype>audio</mediatype>
									<parameter authoringApp="PremierePro">
										<parameterid>level</parameterid>
										<name>Level</name>
										<valuemin>0</valuemin>
										<valuemax>3.98109</valuemax>
										<value>0.499999</value>
									</parameter>
								</effect>
							</filter>
						<link>
							<linkclipref>clipitem-3130</linkclipref>
							<mediatype>audio</mediatype>
							<trackindex>23</trackindex>
							<clipindex>51</clipindex>
							<groupindex>1</groupindex>
						</link>
						<link>
							<linkclipref>clipitem-3174</linkclipref>
							<mediatype>audio</mediatype>
							<trackindex>24</trackindex>
							<clipindex>50</clipindex>
							<groupindex>1</groupindex>
						</link>
						<logginginfo>
							<description></description>
							<scene></scene>
							<shottake></shottake>
							<lognote></lognote>
						</logginginfo>
						<labels>
							<label2>Caribbean</label2>
						</labels>
					</clipitem>
					<clipitem id="clipitem-3131" premiereChannelType="stereo">
						<masterclipid>masterclip-102</masterclipid>
						<name>Applaus 7 sek høflig.wav</name>
						<enabled>TRUE</enabled>
						<duration>189</duration>
						<rate>
							<timebase>25</timebase>
							<ntsc>FALSE</ntsc>
						</rate>
						<start>56919</start>
						<end>57108</end>
						<in>0</in>
						<out>189</out>
						<pproTicksIn>0</pproTicksIn>
						<pproTicksOut>1920360960000</pproTicksOut>
						<file id="file-98"/>
						<sourcetrack>
							<mediatype>audio</mediatype>
							<trackindex>1</trackindex>
						</sourcetrack>
						<link>
							<linkclipref>clipitem-3131</linkclipref>
							<mediatype>audio</mediatype>
							<trackindex>23</trackindex>
							<clipindex>52</clipindex>
							<groupindex>1</groupindex>
						</link>
						<link>
							<linkclipref>clipitem-3175</linkclipref>
							<mediatype>audio</mediatype>
							<trackindex>24</trackindex>
							<clipindex>51</clipindex>
							<groupindex>1</groupindex>
						</link>
						<logginginfo>
							<description></description>
							<scene></scene>
							<shottake></shottake>
							<lognote></lognote>
						</logginginfo>
						<labels>
							<label2>Caribbean</label2>
						</labels>
					</clipitem>
					<clipitem id="clipitem-3132" premiereChannelType="stereo">
						<masterclipid>masterclip-76</masterclipid>
						<name>Latter går over i applaus plystring brå slutt.wav</name>
						<enabled>TRUE</enabled>
						<duration>232</duration>
						<rate>
							<timebase>25</timebase>
							<ntsc>FALSE</ntsc>
						</rate>
						<start>57455</start>
						<end>57688</end>
						<in>0</in>
						<out>233</out>
						<pproTicksIn>0</pproTicksIn>
						<pproTicksOut>2367429120000</pproTicksOut>
						<file id="file-72"/>
						<sourcetrack>
							<mediatype>audio</mediatype>
							<trackindex>1</trackindex>
						</sourcetrack>
						<link>
							<linkclipref>clipitem-3132</linkclipref>
							<mediatype>audio</mediatype>
							<trackindex>23</trackindex>
							<clipindex>53</clipindex>
							<groupindex>1</groupindex>
						</link>
						<link>
							<linkclipref>clipitem-3176</linkclipref>
							<mediatype>audio</mediatype>
							<trackindex>24</trackindex>
							<clipindex>52</clipindex>
							<groupindex>1</groupindex>
						</link>
						<logginginfo>
							<description></description>
							<scene></scene>
							<shottake></shottake>
							<lognote></lognote>
						</logginginfo>
						<labels>
							<label2>Caribbean</label2>
						</labels>
					</clipitem>
					<enabled>TRUE</enabled>
					<locked>FALSE</locked>
					<outputchannelindex>1</outputchannelindex>
				</track>
				<track TL.SQTrackAudioKeyframeStyle="0" TL.SQTrackShy="0" TL.SQTrackExpandedHeight="25" TL.SQTrackExpanded="0" MZ.TrackTargeted="1" PannerCurrentValue="0.5" PannerIsInverted="true" PannerStartKeyframe="-91445760000000000,0.5,0,0,0,0,0,0" PannerName="Balance" currentExplodedTrackIndex="1" totalExplodedTrackCount="2" premiereTrackType="Stereo">
					<clipitem id="clipitem-3133" premiereChannelType="stereo">
						<masterclipid>masterclip-183</masterclipid>
						<name>051222163-message-or-correct-answer-win-.wav</name>
						<enabled>TRUE</enabled>
						<duration>81</duration>
						<rate>
							<timebase>25</timebase>
							<ntsc>FALSE</ntsc>
						</rate>
						<start>2</start>
						<end>83</end>
						<in>0</in>
						<out>81</out>
						<pproTicksIn>0</pproTicksIn>
						<pproTicksOut>823011840000</pproTicksOut>
						<file id="file-179"/>
						<sourcetrack>
							<mediatype>audio</mediatype>
							<trackindex>2</trackindex>
						</sourcetrack>
							<filter>
								<effect>
									<name>Audio Levels</name>
									<effectid>audiolevels</effectid>
									<effectcategory>audiolevels</effectcategory>
									<effecttype>audiolevels</effecttype>
									<mediatype>audio</mediatype>
									<parameter authoringApp="PremierePro">
										<parameterid>level</parameterid>
										<name>Level</name>
										<valuemin>0</valuemin>
										<valuemax>3.98109</valuemax>
										<value>0.629462</value>
									</parameter>
								</effect>
							</filter>
						<link>
							<linkclipref>clipitem-3088</linkclipref>
							<mediatype>audio</mediatype>
							<trackindex>23</trackindex>
							<clipindex>1</clipindex>
							<groupindex>1</groupindex>
						</link>
						<link>
							<linkclipref>clipitem-3133</linkclipref>
							<mediatype>audio</mediatype>
							<trackindex>24</trackindex>
							<clipindex>1</clipindex>
							<groupindex>1</groupindex>
						</link>
						<logginginfo>
							<description></description>
							<scene></scene>
							<shottake></shottake>
							<lognote></lognote>
						</logginginfo>
						<labels>
							<label2>Caribbean</label2>
						</labels>
					</clipitem>
					<clipitem id="clipitem-3134" premiereChannelType="stereo">
						<masterclipid>masterclip-68</masterclipid>
						<name>Super%20Jets%20Overhead%2004.wav</name>
						<enabled>TRUE</enabled>
						<duration>295</duration>
						<rate>
							<timebase>25</timebase>
							<ntsc>FALSE</ntsc>
						</rate>
						<start>266</start>
						<end>299</end>
						<in>262</in>
						<out>295</out>
						<pproTicksIn>2662087680000</pproTicksIn>
						<pproTicksOut>2997388800000</pproTicksOut>
						<file id="file-64"/>
						<sourcetrack>
							<mediatype>audio</mediatype>
							<trackindex>2</trackindex>
						</sourcetrack>
							<filter>
								<effect>
									<name>Audio Levels</name>
									<effectid>audiolevels</effectid>
									<effectcategory>audiolevels</effectcategory>
									<effecttype>audiolevels</effecttype>
									<mediatype>audio</mediatype>
									<parameter authoringApp="PremierePro">
										<parameterid>level</parameterid>
										<name>Level</name>
										<valuemin>0</valuemin>
										<valuemax>3.98109</valuemax>
										<value>0.099763</value>
									</parameter>
								</effect>
							</filter>
						<link>
							<linkclipref>clipitem-3089</linkclipref>
							<mediatype>audio</mediatype>
							<trackindex>23</trackindex>
							<clipindex>2</clipindex>
							<groupindex>1</groupindex>
						</link>
						<link>
							<linkclipref>clipitem-3134</linkclipref>
							<mediatype>audio</mediatype>
							<trackindex>24</trackindex>
							<clipindex>2</clipindex>
							<groupindex>1</groupindex>
						</link>
						<logginginfo>
							<description></description>
							<scene></scene>
							<shottake></shottake>
							<lognote></lognote>
						</logginginfo>
						<labels>
							<label2>Caribbean</label2>
						</labels>
					</clipitem>
					<clipitem id="clipitem-3135" premiereChannelType="stereo">
						<masterclipid>masterclip-81</masterclipid>
						<name>Appalus anerkjennende med hoi.wav</name>
						<enabled>TRUE</enabled>
						<duration>168</duration>
						<rate>
							<timebase>25</timebase>
							<ntsc>FALSE</ntsc>
						</rate>
						<start>369</start>
						<end>-1</end>
						<in>0</in>
						<out>168</out>
						<pproTicksIn>0</pproTicksIn>
						<pproTicksOut>1706987520000</pproTicksOut>
						<file id="file-77"/>
						<sourcetrack>
							<mediatype>audio</mediatype>
							<trackindex>2</trackindex>
						</sourcetrack>
						<link>
							<linkclipref>clipitem-3090</linkclipref>
							<mediatype>audio</mediatype>
							<trackindex>23</trackindex>
							<clipindex>3</clipindex>
							<groupindex>1</groupindex>
						</link>
						<link>
							<linkclipref>clipitem-3135</linkclipref>
							<mediatype>audio</mediatype>
							<trackindex>24</trackindex>
							<clipindex>3</clipindex>
							<groupindex>1</groupindex>
						</link>
						<logginginfo>
							<description></description>
							<scene></scene>
							<shottake></shottake>
							<lognote></lognote>
						</logginginfo>
						<labels>
							<label2>Caribbean</label2>
						</labels>
					</clipitem>
					<transitionitem>
						<start>481</start>
						<end>537</end>
						<alignment>end-black</alignment>
						<cutPointTicks>568995840000</cutPointTicks>
						<rate>
							<timebase>25</timebase>
							<ntsc>FALSE</ntsc>
						</rate>
						<effect>
							<name>Cross Fade (+3dB)</name>
							<effectid>KGAudioTransCrossFade3dB</effectid>
							<effecttype>transition</effecttype>
							<mediatype>audio</mediatype>
							<wipecode>0</wipecode>
							<wipeaccuracy>100</wipeaccuracy>
							<startratio>0</startratio>
							<endratio>1</endratio>
							<reverse>FALSE</reverse>
						</effect>
					</transitionitem>
					<clipitem id="clipitem-3136" premiereChannelType="stereo">
						<masterclipid>masterclip-184</masterclipid>
						<name>Apollo_NVS_102_27__Unyielding__Dan_Elias_Brevig.mp3</name>
						<enabled>TRUE</enabled>
						<duration>2460</duration>
						<rate>
							<timebase>25</timebase>
							<ntsc>FALSE</ntsc>
						</rate>
						<start>1449</start>
						<end>-1</end>
						<in>9</in>
						<out>99</out>
						<pproTicksIn>91445760000</pproTicksIn>
						<pproTicksOut>1005903360000</pproTicksOut>
						<file id="file-180"/>
						<sourcetrack>
							<mediatype>audio</mediatype>
							<trackindex>2</trackindex>
						</sourcetrack>
							<filter>
								<effect>
									<name>Audio Levels</name>
									<effectid>audiolevels</effectid>
									<effectcategory>audiolevels</effectcategory>
									<effecttype>audiolevels</effecttype>
									<mediatype>audio</mediatype>
									<parameter authoringApp="PremierePro">
										<parameterid>level</parameterid>
										<name>Level</name>
										<valuemin>0</valuemin>
										<valuemax>3.98109</valuemax>
										<value>0.376863</value>
									</parameter>
								</effect>
							</filter>
						<link>
							<linkclipref>clipitem-3091</linkclipref>
							<mediatype>audio</mediatype>
							<trackindex>23</trackindex>
							<clipindex>5</clipindex>
							<groupindex>1</groupindex>
						</link>
						<link>
							<linkclipref>clipitem-3136</linkclipref>
							<mediatype>audio</mediatype>
							<trackindex>24</trackindex>
							<clipindex>5</clipindex>
							<groupindex>1</groupindex>
						</link>
						<logginginfo>
							<description></description>
							<scene></scene>
							<shottake></shottake>
							<lognote></lognote>
						</logginginfo>
						<labels>
							<label2>Caribbean</label2>
						</labels>
					</clipitem>
					<transitionitem>
						<start>1491</start>
						<end>1539</end>
						<alignment>center</alignment>
						<cutPointTicks>243855360000</cutPointTicks>
						<rate>
							<timebase>25</timebase>
							<ntsc>FALSE</ntsc>
						</rate>
						<effect>
							<name>Cross Fade (+3dB)</name>
							<effectid>KGAudioTransCrossFade3dB</effectid>
							<effecttype>transition</effecttype>
							<mediatype>audio</mediatype>
							<wipecode>0</wipecode>
							<wipeaccuracy>100</wipeaccuracy>
							<startratio>0</startratio>
							<endratio>1</endratio>
							<reverse>FALSE</reverse>
						</effect>
					</transitionitem>
					<clipitem id="clipitem-3137" premiereChannelType="stereo">
						<masterclipid>masterclip-184</masterclipid>
						<name>Apollo_NVS_102_27__Unyielding__Dan_Elias_Brevig.mp3</name>
						<enabled>TRUE</enabled>
						<duration>2460</duration>
						<rate>
							<timebase>25</timebase>
							<ntsc>FALSE</ntsc>
						</rate>
						<start>-1</start>
						<end>-1</end>
						<in>51</in>
						<out>509</out>
						<pproTicksIn>518192640000</pproTicksIn>
						<pproTicksOut>5171765760000</pproTicksOut>
						<file id="file-180"/>
						<sourcetrack>
							<mediatype>audio</mediatype>
							<trackindex>2</trackindex>
						</sourcetrack>
							<filter>
								<effect>
									<name>Audio Levels</name>
									<effectid>audiolevels</effectid>
									<effectcategory>audiolevels</effectcategory>
									<effecttype>audiolevels</effecttype>
									<mediatype>audio</mediatype>
									<parameter authoringApp="PremierePro">
										<parameterid>level</parameterid>
										<name>Level</name>
										<valuemin>0</valuemin>
										<valuemax>3.98109</valuemax>
										<value>0.0946638</value>
									</parameter>
								</effect>
							</filter>
						<link>
							<linkclipref>clipitem-3092</linkclipref>
							<mediatype>audio</mediatype>
							<trackindex>23</trackindex>
							<clipindex>7</clipindex>
							<groupindex>1</groupindex>
						</link>
						<link>
							<linkclipref>clipitem-3137</linkclipref>
							<mediatype>audio</mediatype>
							<trackindex>24</trackindex>
							<clipindex>7</clipindex>
							<groupindex>1</groupindex>
						</link>
						<logginginfo>
							<description></description>
							<scene></scene>
							<shottake></shottake>
							<lognote></lognote>
						</logginginfo>
						<labels>
							<label2>Caribbean</label2>
						</labels>
					</clipitem>
					<transitionitem>
						<start>1815</start>
						<end>1949</end>
						<alignment>end-black</alignment>
						<cutPointTicks>1361525760000</cutPointTicks>
						<rate>
							<timebase>25</timebase>
							<ntsc>FALSE</ntsc>
						</rate>
						<effect>
							<name>Cross Fade (+3dB)</name>
							<effectid>KGAudioTransCrossFade3dB</effectid>
							<effecttype>transition</effecttype>
							<mediatype>audio</mediatype>
							<wipecode>0</wipecode>
							<wipeaccuracy>100</wipeaccuracy>
							<startratio>0</startratio>
							<endratio>1</endratio>
							<reverse>FALSE</reverse>
						</effect>
					</transitionitem>
					<clipitem id="clipitem-3138" premiereChannelType="stereo">
						<masterclipid>masterclip-185</masterclipid>
						<name>Apollo_SMX_126_54__Trials_And_Tribulations__Jeremy_A._Sweet_(Arranger).mp3</name>
						<enabled>TRUE</enabled>
						<duration>2343</duration>
						<rate>
							<timebase>25</timebase>
							<ntsc>FALSE</ntsc>
						</rate>
						<start>2171</start>
						<end>-1</end>
						<in>0</in>
						<out>408</out>
						<pproTicksIn>0</pproTicksIn>
						<pproTicksOut>4145541120000</pproTicksOut>
						<file id="file-181"/>
						<sourcetrack>
							<mediatype>audio</mediatype>
							<trackindex>2</trackindex>
						</sourcetrack>
							<filter>
								<effect>
									<name>Audio Levels</name>
									<effectid>audiolevels</effectid>
									<effectcategory>audiolevels</effectcategory>
									<effecttype>audiolevels</effecttype>
									<mediatype>audio</mediatype>
									<parameter authoringApp="PremierePro">
										<parameterid>level</parameterid>
										<name>Level</name>
										<valuemin>0</valuemin>
										<valuemax>3.98109</valuemax>
										<value>0.00596369</value>
										<keyframe>
											<when>326</when>
											<value>0.199053</value>
										</keyframe>
										<keyframe>
											<when>335</when>
											<value>0.00596369</value>
										</keyframe>
									</parameter>
								</effect>
							</filter>
						<link>
							<linkclipref>clipitem-3093</linkclipref>
							<mediatype>audio</mediatype>
							<trackindex>23</trackindex>
							<clipindex>9</clipindex>
							<groupindex>1</groupindex>
						</link>
						<link>
							<linkclipref>clipitem-3138</linkclipref>
							<mediatype>audio</mediatype>
							<trackindex>24</trackindex>
							<clipindex>9</clipindex>
							<groupindex>1</groupindex>
						</link>
						<logginginfo>
							<description></description>
							<scene></scene>
							<shottake></shottake>
							<lognote></lognote>
						</logginginfo>
						<labels>
							<label2>Caribbean</label2>
						</labels>
					</clipitem>
					<transitionitem>
						<start>2463</start>
						<end>2579</end>
						<alignment>end-black</alignment>
						<cutPointTicks>1178634240000</cutPointTicks>
						<rate>
							<timebase>25</timebase>
							<ntsc>FALSE</ntsc>
						</rate>
						<effect>
							<name>Cross Fade (+3dB)</name>
							<effectid>KGAudioTransCrossFade3dB</effectid>
							<effecttype>transition</effecttype>
							<mediatype>audio</mediatype>
							<wipecode>0</wipecode>
							<wipeaccuracy>100</wipeaccuracy>
							<startratio>0</startratio>
							<endratio>1</endratio>
							<reverse>FALSE</reverse>
						</effect>
					</transitionitem>
					<transitionitem>
						<start>2872</start>
						<end>2885</end>
						<alignment>start-black</alignment>
						<cutPointTicks>0</cutPointTicks>
						<rate>
							<timebase>25</timebase>
							<ntsc>FALSE</ntsc>
						</rate>
						<effect>
							<name>Cross Fade (+3dB)</name>
							<effectid>KGAudioTransCrossFade3dB</effectid>
							<effecttype>transition</effecttype>
							<mediatype>audio</mediatype>
							<wipecode>0</wipecode>
							<wipeaccuracy>100</wipeaccuracy>
							<startratio>0</startratio>
							<endratio>1</endratio>
							<reverse>FALSE</reverse>
						</effect>
					</transitionitem>
					<clipitem id="clipitem-3139" premiereChannelType="stereo">
						<masterclipid>masterclip-186</masterclipid>
						<name>Apollo_ATO_1305_9__Beautiful_Tension__Max_DiCarlo.mp3</name>
						<enabled>TRUE</enabled>
						<duration>3177</duration>
						<rate>
							<timebase>25</timebase>
							<ntsc>FALSE</ntsc>
						</rate>
						<start>-1</start>
						<end>-1</end>
						<in>0</in>
						<out>202</out>
						<pproTicksIn>0</pproTicksIn>
						<pproTicksOut>2052449280000</pproTicksOut>
						<file id="file-182"/>
						<sourcetrack>
							<mediatype>audio</mediatype>
							<trackindex>2</trackindex>
						</sourcetrack>
							<filter>
								<effect>
									<name>Audio Levels</name>
									<effectid>audiolevels</effectid>
									<effectcategory>audiolevels</effectcategory>
									<effecttype>audiolevels</effecttype>
									<mediatype>audio</mediatype>
									<parameter authoringApp="PremierePro">
										<parameterid>level</parameterid>
										<name>Level</name>
										<valuemin>0</valuemin>
										<valuemax>3.98109</valuemax>
										<value>0.099763</value>
									</parameter>
								</effect>
							</filter>
						<link>
							<linkclipref>clipitem-3094</linkclipref>
							<mediatype>audio</mediatype>
							<trackindex>23</trackindex>
							<clipindex>12</clipindex>
							<groupindex>1</groupindex>
						</link>
						<link>
							<linkclipref>clipitem-3139</linkclipref>
							<mediatype>audio</mediatype>
							<trackindex>24</trackindex>
							<clipindex>12</clipindex>
							<groupindex>1</groupindex>
						</link>
						<logginginfo>
							<description></description>
							<scene></scene>
							<shottake></shottake>
							<lognote></lognote>
						</logginginfo>
						<labels>
							<label2>Caribbean</label2>
						</labels>
					</clipitem>
					<transitionitem>
						<start>2930</start>
						<end>3074</end>
						<alignment>end-black</alignment>
						<cutPointTicks>1463132160000</cutPointTicks>
						<rate>
							<timebase>25</timebase>
							<ntsc>FALSE</ntsc>
						</rate>
						<effect>
							<name>Cross Fade (+3dB)</name>
							<effectid>KGAudioTransCrossFade3dB</effectid>
							<effecttype>transition</effecttype>
							<mediatype>audio</mediatype>
							<wipecode>0</wipecode>
							<wipeaccuracy>100</wipeaccuracy>
							<startratio>0</startratio>
							<endratio>1</endratio>
							<reverse>FALSE</reverse>
						</effect>
					</transitionitem>
					<clipitem id="clipitem-3140" premiereChannelType="stereo">
						<masterclipid>masterclip-187</masterclipid>
						<name>Apollo_ASPML_1011_16__All_in_Good_Fun__Mark_Plati_(BMI).mp3</name>
						<enabled>TRUE</enabled>
						<duration>2617</duration>
						<rate>
							<timebase>25</timebase>
							<ntsc>FALSE</ntsc>
						</rate>
						<start>3557</start>
						<end>4129</end>
						<in>0</in>
						<out>572</out>
						<pproTicksIn>0</pproTicksIn>
						<pproTicksOut>5811886080000</pproTicksOut>
						<file id="file-183"/>
						<sourcetrack>
							<mediatype>audio</mediatype>
							<trackindex>2</trackindex>
						</sourcetrack>
							<filter>
								<effect>
									<name>Audio Levels</name>
									<effectid>audiolevels</effectid>
									<effectcategory>audiolevels</effectcategory>
									<effecttype>audiolevels</effecttype>
									<mediatype>audio</mediatype>
									<parameter authoringApp="PremierePro">
										<parameterid>level</parameterid>
										<name>Level</name>
										<valuemin>0</valuemin>
										<valuemax>3.98109</valuemax>
										<value>0</value>
										<keyframe>
											<when>848</when>
											<value>0.177406</value>
										</keyframe>
										<keyframe>
											<when>911</when>
											<value>0</value>
										</keyframe>
									</parameter>
								</effect>
							</filter>
						<link>
							<linkclipref>clipitem-3095</linkclipref>
							<mediatype>audio</mediatype>
							<trackindex>23</trackindex>
							<clipindex>14</clipindex>
							<groupindex>1</groupindex>
						</link>
						<link>
							<linkclipref>clipitem-3140</linkclipref>
							<mediatype>audio</mediatype>
							<trackindex>24</trackindex>
							<clipindex>14</clipindex>
							<groupindex>1</groupindex>
						</link>
						<logginginfo>
							<description></description>
							<scene></scene>
							<shottake></shottake>
							<lognote></lognote>
						</logginginfo>
						<labels>
							<label2>Caribbean</label2>
						</labels>
					</clipitem>
					<clipitem id="clipitem-3141" premiereChannelType="stereo">
						<masterclipid>masterclip-112</masterclipid>
						<name>Latter uryddig med litt applaus 9sek.wav</name>
						<enabled>TRUE</enabled>
						<duration>234</duration>
						<rate>
							<timebase>25</timebase>
							<ntsc>FALSE</ntsc>
						</rate>
						<start>6780</start>
						<end>6890</end>
						<in>124</in>
						<out>234</out>
						<pproTicksIn>1259919360000</pproTicksIn>
						<pproTicksOut>2377589760000</pproTicksOut>
						<file id="file-108"/>
						<sourcetrack>
							<mediatype>audio</mediatype>
							<trackindex>2</trackindex>
						</sourcetrack>
						<link>
							<linkclipref>clipitem-3096</linkclipref>
							<mediatype>audio</mediatype>
							<trackindex>23</trackindex>
							<clipindex>15</clipindex>
							<groupindex>1</groupindex>
						</link>
						<link>
							<linkclipref>clipitem-3141</linkclipref>
							<mediatype>audio</mediatype>
							<trackindex>24</trackindex>
							<clipindex>15</clipindex>
							<groupindex>1</groupindex>
						</link>
						<logginginfo>
							<description></description>
							<scene></scene>
							<shottake></shottake>
							<lognote></lognote>
						</logginginfo>
						<labels>
							<label2>Caribbean</label2>
						</labels>
					</clipitem>
					<clipitem id="clipitem-3142" premiereChannelType="stereo">
						<masterclipid>masterclip-188</masterclipid>
						<name>_Juhu_ applaus.wav</name>
						<enabled>TRUE</enabled>
						<duration>158</duration>
						<rate>
							<timebase>25</timebase>
							<ntsc>FALSE</ntsc>
						</rate>
						<start>10891</start>
						<end>11005</end>
						<in>44</in>
						<out>158</out>
						<pproTicksIn>447068160000</pproTicksIn>
						<pproTicksOut>1605381120000</pproTicksOut>
						<file id="file-184"/>
						<sourcetrack>
							<mediatype>audio</mediatype>
							<trackindex>2</trackindex>
						</sourcetrack>
						<link>
							<linkclipref>clipitem-3097</linkclipref>
							<mediatype>audio</mediatype>
							<trackindex>23</trackindex>
							<clipindex>16</clipindex>
							<groupindex>1</groupindex>
						</link>
						<link>
							<linkclipref>clipitem-3142</linkclipref>
							<mediatype>audio</mediatype>
							<trackindex>24</trackindex>
							<clipindex>16</clipindex>
							<groupindex>1</groupindex>
						</link>
						<logginginfo>
							<description></description>
							<scene></scene>
							<shottake></shottake>
							<lognote></lognote>
						</logginginfo>
						<labels>
							<label2>Caribbean</label2>
						</labels>
					</clipitem>
					<clipitem id="clipitem-3143" premiereChannelType="stereo">
						<masterclipid>masterclip-151</masterclipid>
						<name>Applaus 6 sek.wav</name>
						<enabled>TRUE</enabled>
						<duration>151</duration>
						<rate>
							<timebase>25</timebase>
							<ntsc>FALSE</ntsc>
						</rate>
						<start>13265</start>
						<end>13411</end>
						<in>0</in>
						<out>146</out>
						<pproTicksIn>0</pproTicksIn>
						<pproTicksOut>1483453440000</pproTicksOut>
						<file id="file-147"/>
						<sourcetrack>
							<mediatype>audio</mediatype>
							<trackindex>2</trackindex>
						</sourcetrack>
						<link>
							<linkclipref>clipitem-3098</linkclipref>
							<mediatype>audio</mediatype>
							<trackindex>23</trackindex>
							<clipindex>17</clipindex>
							<groupindex>1</groupindex>
						</link>
						<link>
							<linkclipref>clipitem-3143</linkclipref>
							<mediatype>audio</mediatype>
							<trackindex>24</trackindex>
							<clipindex>17</clipindex>
							<groupindex>1</groupindex>
						</link>
						<logginginfo>
							<description></description>
							<scene></scene>
							<shottake></shottake>
							<lognote></lognote>
						</logginginfo>
						<labels>
							<label2>Caribbean</label2>
						</labels>
					</clipitem>
					<clipitem id="clipitem-3144" premiereChannelType="stereo">
						<masterclipid>masterclip-120</masterclipid>
						<name>Applaus 7 sek.wav</name>
						<enabled>TRUE</enabled>
						<duration>182</duration>
						<rate>
							<timebase>25</timebase>
							<ntsc>FALSE</ntsc>
						</rate>
						<start>13466</start>
						<end>13534</end>
						<in>114</in>
						<out>182</out>
						<pproTicksIn>1158312960000</pproTicksIn>
						<pproTicksOut>1849236480000</pproTicksOut>
						<file id="file-116"/>
						<sourcetrack>
							<mediatype>audio</mediatype>
							<trackindex>2</trackindex>
						</sourcetrack>
						<link>
							<linkclipref>clipitem-3099</linkclipref>
							<mediatype>audio</mediatype>
							<trackindex>23</trackindex>
							<clipindex>18</clipindex>
							<groupindex>1</groupindex>
						</link>
						<link>
							<linkclipref>clipitem-3144</linkclipref>
							<mediatype>audio</mediatype>
							<trackindex>24</trackindex>
							<clipindex>18</clipindex>
							<groupindex>1</groupindex>
						</link>
						<logginginfo>
							<description></description>
							<scene></scene>
							<shottake></shottake>
							<lognote></lognote>
						</logginginfo>
						<labels>
							<label2>Caribbean</label2>
						</labels>
					</clipitem>
					<clipitem id="clipitem-3145" premiereChannelType="stereo">
						<masterclipid>masterclip-183</masterclipid>
						<name>051222163-message-or-correct-answer-win-.wav</name>
						<enabled>TRUE</enabled>
						<duration>81</duration>
						<rate>
							<timebase>25</timebase>
							<ntsc>FALSE</ntsc>
						</rate>
						<start>15126</start>
						<end>15203</end>
						<in>4</in>
						<out>81</out>
						<pproTicksIn>40642560000</pproTicksIn>
						<pproTicksOut>823011840000</pproTicksOut>
						<file id="file-179"/>
						<sourcetrack>
							<mediatype>audio</mediatype>
							<trackindex>2</trackindex>
						</sourcetrack>
							<filter>
								<effect>
									<name>Audio Levels</name>
									<effectid>audiolevels</effectid>
									<effectcategory>audiolevels</effectcategory>
									<effecttype>audiolevels</effecttype>
									<mediatype>audio</mediatype>
									<parameter authoringApp="PremierePro">
										<parameterid>level</parameterid>
										<name>Level</name>
										<valuemin>0</valuemin>
										<valuemax>3.98109</valuemax>
										<value>0.706268</value>
									</parameter>
								</effect>
							</filter>
						<link>
							<linkclipref>clipitem-3100</linkclipref>
							<mediatype>audio</mediatype>
							<trackindex>23</trackindex>
							<clipindex>19</clipindex>
							<groupindex>1</groupindex>
						</link>
						<link>
							<linkclipref>clipitem-3145</linkclipref>
							<mediatype>audio</mediatype>
							<trackindex>24</trackindex>
							<clipindex>19</clipindex>
							<groupindex>1</groupindex>
						</link>
						<logginginfo>
							<description></description>
							<scene></scene>
							<shottake></shottake>
							<lognote></lognote>
						</logginginfo>
						<labels>
							<label2>Caribbean</label2>
						</labels>
					</clipitem>
					<clipitem id="clipitem-3146" premiereChannelType="stereo">
						<masterclipid>masterclip-183</masterclipid>
						<name>051222163-message-or-correct-answer-win-.wav</name>
						<enabled>TRUE</enabled>
						<duration>81</duration>
						<rate>
							<timebase>25</timebase>
							<ntsc>FALSE</ntsc>
						</rate>
						<start>16143</start>
						<end>16206</end>
						<in>4</in>
						<out>67</out>
						<pproTicksIn>40642560000</pproTicksIn>
						<pproTicksOut>680762880000</pproTicksOut>
						<file id="file-179"/>
						<sourcetrack>
							<mediatype>audio</mediatype>
							<trackindex>2</trackindex>
						</sourcetrack>
							<filter>
								<effect>
									<name>Audio Levels</name>
									<effectid>audiolevels</effectid>
									<effectcategory>audiolevels</effectcategory>
									<effecttype>audiolevels</effecttype>
									<mediatype>audio</mediatype>
									<parameter authoringApp="PremierePro">
										<parameterid>level</parameterid>
										<name>Level</name>
										<valuemin>0</valuemin>
										<valuemax>3.98109</valuemax>
										<value>0.706268</value>
									</parameter>
								</effect>
							</filter>
						<link>
							<linkclipref>clipitem-3101</linkclipref>
							<mediatype>audio</mediatype>
							<trackindex>23</trackindex>
							<clipindex>20</clipindex>
							<groupindex>1</groupindex>
						</link>
						<link>
							<linkclipref>clipitem-3146</linkclipref>
							<mediatype>audio</mediatype>
							<trackindex>24</trackindex>
							<clipindex>20</clipindex>
							<groupindex>1</groupindex>
						</link>
						<logginginfo>
							<description></description>
							<scene></scene>
							<shottake></shottake>
							<lognote></lognote>
						</logginginfo>
						<labels>
							<label2>Caribbean</label2>
						</labels>
					</clipitem>
					<clipitem id="clipitem-3147" premiereChannelType="stereo">
						<masterclipid>masterclip-183</masterclipid>
						<name>051222163-message-or-correct-answer-win-.wav</name>
						<enabled>TRUE</enabled>
						<duration>81</duration>
						<rate>
							<timebase>25</timebase>
							<ntsc>FALSE</ntsc>
						</rate>
						<start>16206</start>
						<end>16220</end>
						<in>67</in>
						<out>81</out>
						<pproTicksIn>680762880000</pproTicksIn>
						<pproTicksOut>823011840000</pproTicksOut>
						<file id="file-179"/>
						<sourcetrack>
							<mediatype>audio</mediatype>
							<trackindex>2</trackindex>
						</sourcetrack>
							<filter>
								<effect>
									<name>Audio Levels</name>
									<effectid>audiolevels</effectid>
									<effectcategory>audiolevels</effectcategory>
									<effecttype>audiolevels</effecttype>
									<mediatype>audio</mediatype>
									<parameter authoringApp="PremierePro">
										<parameterid>level</parameterid>
										<name>Level</name>
										<valuemin>0</valuemin>
										<valuemax>3.98109</valuemax>
										<value>0.706268</value>
									</parameter>
								</effect>
							</filter>
						<link>
							<linkclipref>clipitem-3102</linkclipref>
							<mediatype>audio</mediatype>
							<trackindex>23</trackindex>
							<clipindex>21</clipindex>
							<groupindex>1</groupindex>
						</link>
						<link>
							<linkclipref>clipitem-3147</linkclipref>
							<mediatype>audio</mediatype>
							<trackindex>24</trackindex>
							<clipindex>21</clipindex>
							<groupindex>1</groupindex>
						</link>
						<logginginfo>
							<description></description>
							<scene></scene>
							<shottake></shottake>
							<lognote></lognote>
						</logginginfo>
						<labels>
							<label2>Caribbean</label2>
						</labels>
					</clipitem>
					<clipitem id="clipitem-3148" premiereChannelType="stereo">
						<masterclipid>masterclip-189</masterclipid>
						<name>056152016-softy-confirm-sound-4-accept-c.wav</name>
						<enabled>TRUE</enabled>
						<duration>46</duration>
						<rate>
							<timebase>25</timebase>
							<ntsc>FALSE</ntsc>
						</rate>
						<start>17726</start>
						<end>17772</end>
						<in>0</in>
						<out>46</out>
						<pproTicksIn>0</pproTicksIn>
						<pproTicksOut>467389440000</pproTicksOut>
						<file id="file-185"/>
						<sourcetrack>
							<mediatype>audio</mediatype>
							<trackindex>2</trackindex>
						</sourcetrack>
							<filter>
								<effect>
									<name>Audio Levels</name>
									<effectid>audiolevels</effectid>
									<effectcategory>audiolevels</effectcategory>
									<effecttype>audiolevels</effecttype>
									<mediatype>audio</mediatype>
									<parameter authoringApp="PremierePro">
										<parameterid>level</parameterid>
										<name>Level</name>
										<valuemin>0</valuemin>
										<valuemax>3.98109</valuemax>
										<value>0.561009</value>
									</parameter>
								</effect>
							</filter>
						<link>
							<linkclipref>clipitem-3103</linkclipref>
							<mediatype>audio</mediatype>
							<trackindex>23</trackindex>
							<clipindex>22</clipindex>
							<groupindex>1</groupindex>
						</link>
						<link>
							<linkclipref>clipitem-3148</linkclipref>
							<mediatype>audio</mediatype>
							<trackindex>24</trackindex>
							<clipindex>22</clipindex>
							<groupindex>1</groupindex>
						</link>
						<logginginfo>
							<description></description>
							<scene></scene>
							<shottake></shottake>
							<lognote></lognote>
						</logginginfo>
						<labels>
							<label2>Caribbean</label2>
						</labels>
					</clipitem>
					<clipitem id="clipitem-3149" premiereChannelType="stereo">
						<masterclipid>masterclip-183</masterclipid>
						<name>051222163-message-or-correct-answer-win-.wav</name>
						<enabled>TRUE</enabled>
						<duration>81</duration>
						<rate>
							<timebase>25</timebase>
							<ntsc>FALSE</ntsc>
						</rate>
						<start>17855</start>
						<end>17932</end>
						<in>4</in>
						<out>81</out>
						<pproTicksIn>40642560000</pproTicksIn>
						<pproTicksOut>823011840000</pproTicksOut>
						<file id="file-179"/>
						<sourcetrack>
							<mediatype>audio</mediatype>
							<trackindex>2</trackindex>
						</sourcetrack>
							<filter>
								<effect>
									<name>Audio Levels</name>
									<effectid>audiolevels</effectid>
									<effectcategory>audiolevels</effectcategory>
									<effecttype>audiolevels</effecttype>
									<mediatype>audio</mediatype>
									<parameter authoringApp="PremierePro">
										<parameterid>level</parameterid>
										<name>Level</name>
										<valuemin>0</valuemin>
										<valuemax>3.98109</valuemax>
										<value>0.706268</value>
									</parameter>
								</effect>
							</filter>
						<link>
							<linkclipref>clipitem-3104</linkclipref>
							<mediatype>audio</mediatype>
							<trackindex>23</trackindex>
							<clipindex>23</clipindex>
							<groupindex>1</groupindex>
						</link>
						<link>
							<linkclipref>clipitem-3149</linkclipref>
							<mediatype>audio</mediatype>
							<trackindex>24</trackindex>
							<clipindex>23</clipindex>
							<groupindex>1</groupindex>
						</link>
						<logginginfo>
							<description></description>
							<scene></scene>
							<shottake></shottake>
							<lognote></lognote>
						</logginginfo>
						<labels>
							<label2>Caribbean</label2>
						</labels>
					</clipitem>
					<clipitem id="clipitem-3150" premiereChannelType="stereo">
						<masterclipid>masterclip-102</masterclipid>
						<name>Applaus 7 sek høflig.wav</name>
						<enabled>TRUE</enabled>
						<duration>189</duration>
						<rate>
							<timebase>25</timebase>
							<ntsc>FALSE</ntsc>
						</rate>
						<start>17950</start>
						<end>18139</end>
						<in>0</in>
						<out>189</out>
						<pproTicksIn>0</pproTicksIn>
						<pproTicksOut>1920360960000</pproTicksOut>
						<file id="file-98"/>
						<sourcetrack>
							<mediatype>audio</mediatype>
							<trackindex>2</trackindex>
						</sourcetrack>
						<link>
							<linkclipref>clipitem-3105</linkclipref>
							<mediatype>audio</mediatype>
							<trackindex>23</trackindex>
							<clipindex>24</clipindex>
							<groupindex>1</groupindex>
						</link>
						<link>
							<linkclipref>clipitem-3150</linkclipref>
							<mediatype>audio</mediatype>
							<trackindex>24</trackindex>
							<clipindex>24</clipindex>
							<groupindex>1</groupindex>
						</link>
						<logginginfo>
							<description></description>
							<scene></scene>
							<shottake></shottake>
							<lognote></lognote>
						</logginginfo>
						<labels>
							<label2>Caribbean</label2>
						</labels>
					</clipitem>
					<clipitem id="clipitem-3151" premiereChannelType="stereo">
						<masterclipid>masterclip-190</masterclipid>
						<name>2005-musikk-v2.WAV</name>
						<enabled>TRUE</enabled>
						<duration>1483</duration>
						<rate>
							<timebase>25</timebase>
							<ntsc>FALSE</ntsc>
						</rate>
						<start>18798</start>
						<end>18918</end>
						<in>16</in>
						<out>136</out>
						<pproTicksIn>162570240000</pproTicksIn>
						<pproTicksOut>1381847040000</pproTicksOut>
						<file id="file-186"/>
						<sourcetrack>
							<mediatype>audio</mediatype>
							<trackindex>2</trackindex>
						</sourcetrack>
						<link>
							<linkclipref>clipitem-3106</linkclipref>
							<mediatype>audio</mediatype>
							<trackindex>23</trackindex>
							<clipindex>25</clipindex>
							<groupindex>1</groupindex>
						</link>
						<link>
							<linkclipref>clipitem-3151</linkclipref>
							<mediatype>audio</mediatype>
							<trackindex>24</trackindex>
							<clipindex>25</clipindex>
							<groupindex>1</groupindex>
						</link>
						<logginginfo>
							<description></description>
							<scene></scene>
							<shottake></shottake>
							<lognote></lognote>
						</logginginfo>
						<labels>
							<label2>Caribbean</label2>
						</labels>
					</clipitem>
					<clipitem id="clipitem-3152" premiereChannelType="stereo">
						<masterclipid>masterclip-190</masterclipid>
						<name>2005-musikk-v2.WAV</name>
						<enabled>TRUE</enabled>
						<duration>1483</duration>
						<rate>
							<timebase>25</timebase>
							<ntsc>FALSE</ntsc>
						</rate>
						<start>19080</start>
						<end>19195</end>
						<in>147</in>
						<out>262</out>
						<pproTicksIn>1493614080000</pproTicksIn>
						<pproTicksOut>2662087680000</pproTicksOut>
						<file id="file-186"/>
						<sourcetrack>
							<mediatype>audio</mediatype>
							<trackindex>2</trackindex>
						</sourcetrack>
						<link>
							<linkclipref>clipitem-3107</linkclipref>
							<mediatype>audio</mediatype>
							<trackindex>23</trackindex>
							<clipindex>26</clipindex>
							<groupindex>1</groupindex>
						</link>
						<link>
							<linkclipref>clipitem-3152</linkclipref>
							<mediatype>audio</mediatype>
							<trackindex>24</trackindex>
							<clipindex>26</clipindex>
							<groupindex>1</groupindex>
						</link>
						<logginginfo>
							<description></description>
							<scene></scene>
							<shottake></shottake>
							<lognote></lognote>
						</logginginfo>
						<labels>
							<label2>Caribbean</label2>
						</labels>
					</clipitem>
					<clipitem id="clipitem-3153" premiereChannelType="stereo">
						<masterclipid>masterclip-191</masterclipid>
						<name>2005-musikk ekstra.WAV</name>
						<enabled>TRUE</enabled>
						<duration>672</duration>
						<rate>
							<timebase>25</timebase>
							<ntsc>FALSE</ntsc>
						</rate>
						<start>19340</start>
						<end>19671</end>
						<in>13</in>
						<out>344</out>
						<pproTicksIn>132088320000</pproTicksIn>
						<pproTicksOut>3495260160000</pproTicksOut>
						<file id="file-187"/>
						<sourcetrack>
							<mediatype>audio</mediatype>
							<trackindex>2</trackindex>
						</sourcetrack>
						<link>
							<linkclipref>clipitem-3108</linkclipref>
							<mediatype>audio</mediatype>
							<trackindex>23</trackindex>
							<clipindex>27</clipindex>
							<groupindex>1</groupindex>
						</link>
						<link>
							<linkclipref>clipitem-3153</linkclipref>
							<mediatype>audio</mediatype>
							<trackindex>24</trackindex>
							<clipindex>27</clipindex>
							<groupindex>1</groupindex>
						</link>
						<logginginfo>
							<description></description>
							<scene></scene>
							<shottake></shottake>
							<lognote></lognote>
						</logginginfo>
						<labels>
							<label2>Caribbean</label2>
						</labels>
					</clipitem>
					<clipitem id="clipitem-3154" premiereChannelType="stereo">
						<masterclipid>masterclip-191</masterclipid>
						<name>2005-musikk ekstra.WAV</name>
						<enabled>TRUE</enabled>
						<duration>672</duration>
						<rate>
							<timebase>25</timebase>
							<ntsc>FALSE</ntsc>
						</rate>
						<start>19687</start>
						<end>19754</end>
						<in>344</in>
						<out>411</out>
						<pproTicksIn>3495260160000</pproTicksIn>
						<pproTicksOut>4176023040000</pproTicksOut>
						<file id="file-187"/>
						<sourcetrack>
							<mediatype>audio</mediatype>
							<trackindex>2</trackindex>
						</sourcetrack>
						<link>
							<linkclipref>clipitem-3109</linkclipref>
							<mediatype>audio</mediatype>
							<trackindex>23</trackindex>
							<clipindex>28</clipindex>
							<groupindex>1</groupindex>
						</link>
						<link>
							<linkclipref>clipitem-3154</linkclipref>
							<mediatype>audio</mediatype>
							<trackindex>24</trackindex>
							<clipindex>28</clipindex>
							<groupindex>1</groupindex>
						</link>
						<logginginfo>
							<description></description>
							<scene></scene>
							<shottake></shottake>
							<lognote></lognote>
						</logginginfo>
						<labels>
							<label2>Caribbean</label2>
						</labels>
					</clipitem>
					<clipitem id="clipitem-3155" premiereChannelType="stereo">
						<masterclipid>masterclip-190</masterclipid>
						<name>2005-musikk-v2.WAV</name>
						<enabled>TRUE</enabled>
						<duration>1483</duration>
						<rate>
							<timebase>25</timebase>
							<ntsc>FALSE</ntsc>
						</rate>
						<start>19972</start>
						<end>20075</end>
						<in>367</in>
						<out>470</out>
						<pproTicksIn>3728954880000</pproTicksIn>
						<pproTicksOut>4775500800000</pproTicksOut>
						<file id="file-186"/>
						<sourcetrack>
							<mediatype>audio</mediatype>
							<trackindex>2</trackindex>
						</sourcetrack>
						<link>
							<linkclipref>clipitem-3110</linkclipref>
							<mediatype>audio</mediatype>
							<trackindex>23</trackindex>
							<clipindex>29</clipindex>
							<groupindex>1</groupindex>
						</link>
						<link>
							<linkclipref>clipitem-3155</linkclipref>
							<mediatype>audio</mediatype>
							<trackindex>24</trackindex>
							<clipindex>29</clipindex>
							<groupindex>1</groupindex>
						</link>
						<logginginfo>
							<description></description>
							<scene></scene>
							<shottake></shottake>
							<lognote></lognote>
						</logginginfo>
						<labels>
							<label2>Caribbean</label2>
						</labels>
					</clipitem>
					<clipitem id="clipitem-3156" premiereChannelType="stereo">
						<masterclipid>masterclip-190</masterclipid>
						<name>2005-musikk-v2.WAV</name>
						<enabled>TRUE</enabled>
						<duration>1483</duration>
						<rate>
							<timebase>25</timebase>
							<ntsc>FALSE</ntsc>
						</rate>
						<start>20159</start>
						<end>20307</end>
						<in>489</in>
						<out>637</out>
						<pproTicksIn>4968552960000</pproTicksIn>
						<pproTicksOut>6472327680000</pproTicksOut>
						<file id="file-186"/>
						<sourcetrack>
							<mediatype>audio</mediatype>
							<trackindex>2</trackindex>
						</sourcetrack>
						<link>
							<linkclipref>clipitem-3111</linkclipref>
							<mediatype>audio</mediatype>
							<trackindex>23</trackindex>
							<clipindex>30</clipindex>
							<groupindex>1</groupindex>
						</link>
						<link>
							<linkclipref>clipitem-3156</linkclipref>
							<mediatype>audio</mediatype>
							<trackindex>24</trackindex>
							<clipindex>30</clipindex>
							<groupindex>1</groupindex>
						</link>
						<logginginfo>
							<description></description>
							<scene></scene>
							<shottake></shottake>
							<lognote></lognote>
						</logginginfo>
						<labels>
							<label2>Caribbean</label2>
						</labels>
					</clipitem>
					<clipitem id="clipitem-3157" premiereChannelType="stereo">
						<masterclipid>masterclip-190</masterclipid>
						<name>2005-musikk-v2.WAV</name>
						<enabled>TRUE</enabled>
						<duration>1483</duration>
						<rate>
							<timebase>25</timebase>
							<ntsc>FALSE</ntsc>
						</rate>
						<start>20609</start>
						<end>20789</end>
						<in>659</in>
						<out>839</out>
						<pproTicksIn>6695861760000</pproTicksIn>
						<pproTicksOut>8524776960000</pproTicksOut>
						<file id="file-186"/>
						<sourcetrack>
							<mediatype>audio</mediatype>
							<trackindex>2</trackindex>
						</sourcetrack>
						<link>
							<linkclipref>clipitem-3112</linkclipref>
							<mediatype>audio</mediatype>
							<trackindex>23</trackindex>
							<clipindex>31</clipindex>
							<groupindex>1</groupindex>
						</link>
						<link>
							<linkclipref>clipitem-3157</linkclipref>
							<mediatype>audio</mediatype>
							<trackindex>24</trackindex>
							<clipindex>31</clipindex>
							<groupindex>1</groupindex>
						</link>
						<logginginfo>
							<description></description>
							<scene></scene>
							<shottake></shottake>
							<lognote></lognote>
						</logginginfo>
						<labels>
							<label2>Caribbean</label2>
						</labels>
					</clipitem>
					<clipitem id="clipitem-3158" premiereChannelType="stereo">
						<masterclipid>masterclip-190</masterclipid>
						<name>2005-musikk-v2.WAV</name>
						<enabled>TRUE</enabled>
						<duration>1483</duration>
						<rate>
							<timebase>25</timebase>
							<ntsc>FALSE</ntsc>
						</rate>
						<start>21079</start>
						<end>21186</end>
						<in>1110</in>
						<out>1217</out>
						<pproTicksIn>11278310400000</pproTicksIn>
						<pproTicksOut>12365498880000</pproTicksOut>
						<file id="file-186"/>
						<sourcetrack>
							<mediatype>audio</mediatype>
							<trackindex>2</trackindex>
						</sourcetrack>
						<link>
							<linkclipref>clipitem-3113</linkclipref>
							<mediatype>audio</mediatype>
							<trackindex>23</trackindex>
							<clipindex>32</clipindex>
							<groupindex>1</groupindex>
						</link>
						<link>
							<linkclipref>clipitem-3158</linkclipref>
							<mediatype>audio</mediatype>
							<trackindex>24</trackindex>
							<clipindex>32</clipindex>
							<groupindex>1</groupindex>
						</link>
						<logginginfo>
							<description></description>
							<scene></scene>
							<shottake></shottake>
							<lognote></lognote>
						</logginginfo>
						<labels>
							<label2>Caribbean</label2>
						</labels>
					</clipitem>
					<clipitem id="clipitem-3159" premiereChannelType="stereo">
						<masterclipid>masterclip-190</masterclipid>
						<name>2005-musikk-v2.WAV</name>
						<enabled>TRUE</enabled>
						<duration>1483</duration>
						<rate>
							<timebase>25</timebase>
							<ntsc>FALSE</ntsc>
						</rate>
						<start>21537</start>
						<end>21716</end>
						<in>1247</in>
						<out>1426</out>
						<pproTicksIn>12670318080000</pproTicksIn>
						<pproTicksOut>14489072640000</pproTicksOut>
						<file id="file-186"/>
						<sourcetrack>
							<mediatype>audio</mediatype>
							<trackindex>2</trackindex>
						</sourcetrack>
						<link>
							<linkclipref>clipitem-3114</linkclipref>
							<mediatype>audio</mediatype>
							<trackindex>23</trackindex>
							<clipindex>33</clipindex>
							<groupindex>1</groupindex>
						</link>
						<link>
							<linkclipref>clipitem-3159</linkclipref>
							<mediatype>audio</mediatype>
							<trackindex>24</trackindex>
							<clipindex>33</clipindex>
							<groupindex>1</groupindex>
						</link>
						<logginginfo>
							<description></description>
							<scene></scene>
							<shottake></shottake>
							<lognote></lognote>
						</logginginfo>
						<labels>
							<label2>Caribbean</label2>
						</labels>
					</clipitem>
					<clipitem id="clipitem-3160" premiereChannelType="stereo">
						<masterclipid>masterclip-97</masterclipid>
						<name>Enkelt latterkule hele publikum.wav</name>
						<enabled>TRUE</enabled>
						<duration>95</duration>
						<rate>
							<timebase>25</timebase>
							<ntsc>FALSE</ntsc>
						</rate>
						<start>32207</start>
						<end>32299</end>
						<in>3</in>
						<out>95</out>
						<pproTicksIn>30481920000</pproTicksIn>
						<pproTicksOut>965260800000</pproTicksOut>
						<file id="file-93"/>
						<sourcetrack>
							<mediatype>audio</mediatype>
							<trackindex>2</trackindex>
						</sourcetrack>
							<filter>
								<effect>
									<name>Audio Levels</name>
									<effectid>audiolevels</effectid>
									<effectcategory>audiolevels</effectcategory>
									<effecttype>audiolevels</effecttype>
									<mediatype>audio</mediatype>
									<parameter authoringApp="PremierePro">
										<parameterid>level</parameterid>
										<name>Level</name>
										<valuemin>0</valuemin>
										<valuemax>3.98109</valuemax>
										<value>1.1289</value>
									</parameter>
								</effect>
							</filter>
						<link>
							<linkclipref>clipitem-3116</linkclipref>
							<mediatype>audio</mediatype>
							<trackindex>23</trackindex>
							<clipindex>35</clipindex>
							<groupindex>1</groupindex>
						</link>
						<link>
							<linkclipref>clipitem-3160</linkclipref>
							<mediatype>audio</mediatype>
							<trackindex>24</trackindex>
							<clipindex>34</clipindex>
							<groupindex>1</groupindex>
						</link>
						<logginginfo>
							<description></description>
							<scene></scene>
							<shottake></shottake>
							<lognote></lognote>
						</logginginfo>
						<labels>
							<label2>Caribbean</label2>
						</labels>
					</clipitem>
					<clipitem id="clipitem-3161" premiereChannelType="stereo">
						<masterclipid>masterclip-192</masterclipid>
						<name>Liten latter 2.wav</name>
						<enabled>TRUE</enabled>
						<duration>147</duration>
						<rate>
							<timebase>25</timebase>
							<ntsc>FALSE</ntsc>
						</rate>
						<start>33035</start>
						<end>33182</end>
						<in>0</in>
						<out>147</out>
						<pproTicksIn>0</pproTicksIn>
						<pproTicksOut>1493614080000</pproTicksOut>
						<file id="file-188"/>
						<sourcetrack>
							<mediatype>audio</mediatype>
							<trackindex>2</trackindex>
						</sourcetrack>
							<filter>
								<effect>
									<name>Audio Levels</name>
									<effectid>audiolevels</effectid>
									<effectcategory>audiolevels</effectcategory>
									<effecttype>audiolevels</effecttype>
									<mediatype>audio</mediatype>
									<parameter authoringApp="PremierePro">
										<parameterid>level</parameterid>
										<name>Level</name>
										<valuemin>0</valuemin>
										<valuemax>3.98109</valuemax>
										<value>0.99763</value>
									</parameter>
								</effect>
							</filter>
						<link>
							<linkclipref>clipitem-3117</linkclipref>
							<mediatype>audio</mediatype>
							<trackindex>23</trackindex>
							<clipindex>36</clipindex>
							<groupindex>1</groupindex>
						</link>
						<link>
							<linkclipref>clipitem-3161</linkclipref>
							<mediatype>audio</mediatype>
							<trackindex>24</trackindex>
							<clipindex>35</clipindex>
							<groupindex>1</groupindex>
						</link>
						<logginginfo>
							<description></description>
							<scene></scene>
							<shottake></shottake>
							<lognote></lognote>
						</logginginfo>
						<labels>
							<label2>Caribbean</label2>
						</labels>
					</clipitem>
					<clipitem id="clipitem-3162" premiereChannelType="stereo">
						<masterclipid>masterclip-150</masterclipid>
						<name>Avmålt, kort HEHEHE.wav</name>
						<enabled>TRUE</enabled>
						<duration>51</duration>
						<rate>
							<timebase>25</timebase>
							<ntsc>FALSE</ntsc>
						</rate>
						<start>33254</start>
						<end>33305</end>
						<in>0</in>
						<out>51</out>
						<pproTicksIn>0</pproTicksIn>
						<pproTicksOut>518192640000</pproTicksOut>
						<file id="file-146"/>
						<sourcetrack>
							<mediatype>audio</mediatype>
							<trackindex>2</trackindex>
						</sourcetrack>
							<filter>
								<effect>
									<name>Audio Levels</name>
									<effectid>audiolevels</effectid>
									<effectcategory>audiolevels</effectcategory>
									<effecttype>audiolevels</effecttype>
									<mediatype>audio</mediatype>
									<parameter authoringApp="PremierePro">
										<parameterid>level</parameterid>
										<name>Level</name>
										<valuemin>0</valuemin>
										<valuemax>3.98109</valuemax>
										<value>0.99763</value>
									</parameter>
								</effect>
							</filter>
						<link>
							<linkclipref>clipitem-3118</linkclipref>
							<mediatype>audio</mediatype>
							<trackindex>23</trackindex>
							<clipindex>37</clipindex>
							<groupindex>1</groupindex>
						</link>
						<link>
							<linkclipref>clipitem-3162</linkclipref>
							<mediatype>audio</mediatype>
							<trackindex>24</trackindex>
							<clipindex>36</clipindex>
							<groupindex>1</groupindex>
						</link>
						<logginginfo>
							<description></description>
							<scene></scene>
							<shottake></shottake>
							<lognote></lognote>
						</logginginfo>
						<labels>
							<label2>Caribbean</label2>
						</labels>
					</clipitem>
					<clipitem id="clipitem-3163" premiereChannelType="stereo">
						<masterclipid>masterclip-94</masterclipid>
						<name>Kort fnis, klukking.wav</name>
						<enabled>TRUE</enabled>
						<duration>68</duration>
						<rate>
							<timebase>25</timebase>
							<ntsc>FALSE</ntsc>
						</rate>
						<start>33305</start>
						<end>33372</end>
						<in>1</in>
						<out>68</out>
						<pproTicksIn>10160640000</pproTicksIn>
						<pproTicksOut>690923520000</pproTicksOut>
						<file id="file-90"/>
						<sourcetrack>
							<mediatype>audio</mediatype>
							<trackindex>2</trackindex>
						</sourcetrack>
							<filter>
								<effect>
									<name>Audio Levels</name>
									<effectid>audiolevels</effectid>
									<effectcategory>audiolevels</effectcategory>
									<effecttype>audiolevels</effecttype>
									<mediatype>audio</mediatype>
									<parameter authoringApp="PremierePro">
										<parameterid>level</parameterid>
										<name>Level</name>
										<valuemin>0</valuemin>
										<valuemax>3.98109</valuemax>
										<value>0.99763</value>
									</parameter>
								</effect>
							</filter>
						<link>
							<linkclipref>clipitem-3119</linkclipref>
							<mediatype>audio</mediatype>
							<trackindex>23</trackindex>
							<clipindex>38</clipindex>
							<groupindex>1</groupindex>
						</link>
						<link>
							<linkclipref>clipitem-3163</linkclipref>
							<mediatype>audio</mediatype>
							<trackindex>24</trackindex>
							<clipindex>37</clipindex>
							<groupindex>1</groupindex>
						</link>
						<logginginfo>
							<description></description>
							<scene></scene>
							<shottake></shottake>
							<lognote></lognote>
						</logginginfo>
						<labels>
							<label2>Caribbean</label2>
						</labels>
					</clipitem>
					<clipitem id="clipitem-3164" premiereChannelType="stereo">
						<masterclipid>masterclip-94</masterclipid>
						<name>Kort fnis, klukking.wav</name>
						<enabled>TRUE</enabled>
						<duration>68</duration>
						<rate>
							<timebase>25</timebase>
							<ntsc>FALSE</ntsc>
						</rate>
						<start>33745</start>
						<end>33766</end>
						<in>0</in>
						<out>21</out>
						<pproTicksIn>0</pproTicksIn>
						<pproTicksOut>213373440000</pproTicksOut>
						<file id="file-90"/>
						<sourcetrack>
							<mediatype>audio</mediatype>
							<trackindex>2</trackindex>
						</sourcetrack>
							<filter>
								<effect>
									<name>Audio Levels</name>
									<effectid>audiolevels</effectid>
									<effectcategory>audiolevels</effectcategory>
									<effecttype>audiolevels</effecttype>
									<mediatype>audio</mediatype>
									<parameter authoringApp="PremierePro">
										<parameterid>level</parameterid>
										<name>Level</name>
										<valuemin>0</valuemin>
										<valuemax>3.98109</valuemax>
										<value>0.99763</value>
									</parameter>
								</effect>
							</filter>
						<link>
							<linkclipref>clipitem-3120</linkclipref>
							<mediatype>audio</mediatype>
							<trackindex>23</trackindex>
							<clipindex>39</clipindex>
							<groupindex>1</groupindex>
						</link>
						<link>
							<linkclipref>clipitem-3164</linkclipref>
							<mediatype>audio</mediatype>
							<trackindex>24</trackindex>
							<clipindex>38</clipindex>
							<groupindex>1</groupindex>
						</link>
						<logginginfo>
							<description></description>
							<scene></scene>
							<shottake></shottake>
							<lognote></lognote>
						</logginginfo>
						<labels>
							<label2>Caribbean</label2>
						</labels>
					</clipitem>
					<clipitem id="clipitem-3165" premiereChannelType="stereo">
						<masterclipid>masterclip-94</masterclipid>
						<name>Kort fnis, klukking.wav</name>
						<enabled>TRUE</enabled>
						<duration>68</duration>
						<rate>
							<timebase>25</timebase>
							<ntsc>FALSE</ntsc>
						</rate>
						<start>33766</start>
						<end>33813</end>
						<in>21</in>
						<out>68</out>
						<pproTicksIn>213373440000</pproTicksIn>
						<pproTicksOut>690923520000</pproTicksOut>
						<file id="file-90"/>
						<sourcetrack>
							<mediatype>audio</mediatype>
							<trackindex>2</trackindex>
						</sourcetrack>
							<filter>
								<effect>
									<name>Audio Levels</name>
									<effectid>audiolevels</effectid>
									<effectcategory>audiolevels</effectcategory>
									<effecttype>audiolevels</effecttype>
									<mediatype>audio</mediatype>
									<parameter authoringApp="PremierePro">
										<parameterid>level</parameterid>
										<name>Level</name>
										<valuemin>0</valuemin>
										<valuemax>3.98109</valuemax>
										<value>0.99763</value>
									</parameter>
								</effect>
							</filter>
						<link>
							<linkclipref>clipitem-3121</linkclipref>
							<mediatype>audio</mediatype>
							<trackindex>23</trackindex>
							<clipindex>40</clipindex>
							<groupindex>1</groupindex>
						</link>
						<link>
							<linkclipref>clipitem-3165</linkclipref>
							<mediatype>audio</mediatype>
							<trackindex>24</trackindex>
							<clipindex>39</clipindex>
							<groupindex>1</groupindex>
						</link>
						<logginginfo>
							<description></description>
							<scene></scene>
							<shottake></shottake>
							<lognote></lognote>
						</logginginfo>
						<labels>
							<label2>Caribbean</label2>
						</labels>
					</clipitem>
					<clipitem id="clipitem-3166" premiereChannelType="stereo">
						<masterclipid>masterclip-97</masterclipid>
						<name>Enkelt latterkule hele publikum.wav</name>
						<enabled>TRUE</enabled>
						<duration>95</duration>
						<rate>
							<timebase>25</timebase>
							<ntsc>FALSE</ntsc>
						</rate>
						<start>35204</start>
						<end>35299</end>
						<in>0</in>
						<out>95</out>
						<pproTicksIn>0</pproTicksIn>
						<pproTicksOut>965260800000</pproTicksOut>
						<file id="file-93"/>
						<sourcetrack>
							<mediatype>audio</mediatype>
							<trackindex>2</trackindex>
						</sourcetrack>
							<filter>
								<effect>
									<name>Audio Levels</name>
									<effectid>audiolevels</effectid>
									<effectcategory>audiolevels</effectcategory>
									<effecttype>audiolevels</effecttype>
									<mediatype>audio</mediatype>
									<parameter authoringApp="PremierePro">
										<parameterid>level</parameterid>
										<name>Level</name>
										<valuemin>0</valuemin>
										<valuemax>3.98109</valuemax>
										<value>0.99763</value>
									</parameter>
								</effect>
							</filter>
						<link>
							<linkclipref>clipitem-3122</linkclipref>
							<mediatype>audio</mediatype>
							<trackindex>23</trackindex>
							<clipindex>41</clipindex>
							<groupindex>1</groupindex>
						</link>
						<link>
							<linkclipref>clipitem-3166</linkclipref>
							<mediatype>audio</mediatype>
							<trackindex>24</trackindex>
							<clipindex>40</clipindex>
							<groupindex>1</groupindex>
						</link>
						<logginginfo>
							<description></description>
							<scene></scene>
							<shottake></shottake>
							<lognote></lognote>
						</logginginfo>
						<labels>
							<label2>Caribbean</label2>
						</labels>
					</clipitem>
					<clipitem id="clipitem-3167" premiereChannelType="stereo">
						<masterclipid>masterclip-146</masterclipid>
						<name>Brå liten latter HÆHÆ.wav</name>
						<enabled>TRUE</enabled>
						<duration>114</duration>
						<rate>
							<timebase>25</timebase>
							<ntsc>FALSE</ntsc>
						</rate>
						<start>35434</start>
						<end>35548</end>
						<in>0</in>
						<out>114</out>
						<pproTicksIn>0</pproTicksIn>
						<pproTicksOut>1158312960000</pproTicksOut>
						<file id="file-142"/>
						<sourcetrack>
							<mediatype>audio</mediatype>
							<trackindex>2</trackindex>
						</sourcetrack>
						<link>
							<linkclipref>clipitem-3123</linkclipref>
							<mediatype>audio</mediatype>
							<trackindex>23</trackindex>
							<clipindex>42</clipindex>
							<groupindex>1</groupindex>
						</link>
						<link>
							<linkclipref>clipitem-3167</linkclipref>
							<mediatype>audio</mediatype>
							<trackindex>24</trackindex>
							<clipindex>41</clipindex>
							<groupindex>1</groupindex>
						</link>
						<logginginfo>
							<description></description>
							<scene></scene>
							<shottake></shottake>
							<lognote></lognote>
						</logginginfo>
						<labels>
							<label2>Caribbean</label2>
						</labels>
					</clipitem>
					<clipitem id="clipitem-3168" premiereChannelType="stereo">
						<masterclipid>masterclip-146</masterclipid>
						<name>Brå liten latter HÆHÆ.wav</name>
						<enabled>TRUE</enabled>
						<duration>114</duration>
						<rate>
							<timebase>25</timebase>
							<ntsc>FALSE</ntsc>
						</rate>
						<start>36383</start>
						<end>36497</end>
						<in>0</in>
						<out>114</out>
						<pproTicksIn>0</pproTicksIn>
						<pproTicksOut>1158312960000</pproTicksOut>
						<file id="file-142"/>
						<sourcetrack>
							<mediatype>audio</mediatype>
							<trackindex>2</trackindex>
						</sourcetrack>
							<filter>
								<effect>
									<name>Audio Levels</name>
									<effectid>audiolevels</effectid>
									<effectcategory>audiolevels</effectcategory>
									<effecttype>audiolevels</effecttype>
									<mediatype>audio</mediatype>
									<parameter authoringApp="PremierePro">
										<parameterid>level</parameterid>
										<name>Level</name>
										<valuemin>0</valuemin>
										<valuemax>3.98109</valuemax>
										<value>0.99763</value>
									</parameter>
								</effect>
							</filter>
						<link>
							<linkclipref>clipitem-3124</linkclipref>
							<mediatype>audio</mediatype>
							<trackindex>23</trackindex>
							<clipindex>43</clipindex>
							<groupindex>1</groupindex>
						</link>
						<link>
							<linkclipref>clipitem-3168</linkclipref>
							<mediatype>audio</mediatype>
							<trackindex>24</trackindex>
							<clipindex>42</clipindex>
							<groupindex>1</groupindex>
						</link>
						<logginginfo>
							<description></description>
							<scene></scene>
							<shottake></shottake>
							<lognote></lognote>
						</logginginfo>
						<labels>
							<label2>Caribbean</label2>
						</labels>
					</clipitem>
					<transitionitem>
						<start>38256</start>
						<end>38264</end>
						<alignment>start-black</alignment>
						<cutPointTicks>0</cutPointTicks>
						<rate>
							<timebase>25</timebase>
							<ntsc>FALSE</ntsc>
						</rate>
						<effect>
							<name>Cross Fade (+3dB)</name>
							<effectid>KGAudioTransCrossFade3dB</effectid>
							<effecttype>transition</effecttype>
							<mediatype>audio</mediatype>
							<wipecode>0</wipecode>
							<wipeaccuracy>100</wipeaccuracy>
							<startratio>0</startratio>
							<endratio>1</endratio>
							<reverse>FALSE</reverse>
						</effect>
					</transitionitem>
					<clipitem id="clipitem-3169" premiereChannelType="stereo">
						<masterclipid>masterclip-173</masterclipid>
						<name>Apollo_NJT_6_51__Change_Is_Inevitable__Kaveh_Cohen_Michael_David_Nielsen.mp3</name>
						<enabled>TRUE</enabled>
						<duration>5493</duration>
						<rate>
							<timebase>25</timebase>
							<ntsc>FALSE</ntsc>
						</rate>
						<start>-1</start>
						<end>-1</end>
						<in>4871</in>
						<out>5050</out>
						<pproTicksIn>49492477440000</pproTicksIn>
						<pproTicksOut>51311232000000</pproTicksOut>
						<file id="file-169"/>
						<sourcetrack>
							<mediatype>audio</mediatype>
							<trackindex>2</trackindex>
						</sourcetrack>
							<filter>
								<effect>
									<name>Audio Levels</name>
									<effectid>audiolevels</effectid>
									<effectcategory>audiolevels</effectcategory>
									<effecttype>audiolevels</effecttype>
									<mediatype>audio</mediatype>
									<parameter authoringApp="PremierePro">
										<parameterid>level</parameterid>
										<name>Level</name>
										<valuemin>0</valuemin>
										<valuemax>3.98109</valuemax>
										<value>0.223342</value>
									</parameter>
								</effect>
							</filter>
						<link>
							<linkclipref>clipitem-3125</linkclipref>
							<mediatype>audio</mediatype>
							<trackindex>23</trackindex>
							<clipindex>45</clipindex>
							<groupindex>1</groupindex>
						</link>
						<link>
							<linkclipref>clipitem-3169</linkclipref>
							<mediatype>audio</mediatype>
							<trackindex>24</trackindex>
							<clipindex>44</clipindex>
							<groupindex>1</groupindex>
						</link>
						<logginginfo>
							<description></description>
							<scene></scene>
							<shottake></shottake>
							<lognote>Epic, Action, Dramatic, Percussive, Hybrid, Modern, Gritty, Slow Burn, Heroic, Intense, Gripping, Powerful, Driving, Apocalyptic, Battle, Chase, Huge, Drums, Percussion, Guitar, Bass, Synths, Piano, Orchestra, Choir, Sound Design</lognote>
						</logginginfo>
						<labels>
							<label2>Caribbean</label2>
						</labels>
					</clipitem>
					<transitionitem>
						<start>38422</start>
						<end>38435</end>
						<alignment>end-black</alignment>
						<cutPointTicks>132088320000</cutPointTicks>
						<rate>
							<timebase>25</timebase>
							<ntsc>FALSE</ntsc>
						</rate>
						<effect>
							<name>Cross Fade (+3dB)</name>
							<effectid>KGAudioTransCrossFade3dB</effectid>
							<effecttype>transition</effecttype>
							<mediatype>audio</mediatype>
							<wipecode>0</wipecode>
							<wipeaccuracy>100</wipeaccuracy>
							<startratio>0</startratio>
							<endratio>1</endratio>
							<reverse>FALSE</reverse>
						</effect>
					</transitionitem>
					<clipitem id="clipitem-3170" premiereChannelType="stereo">
						<masterclipid>masterclip-102</masterclipid>
						<name>Applaus 7 sek høflig.wav</name>
						<enabled>TRUE</enabled>
						<duration>189</duration>
						<rate>
							<timebase>25</timebase>
							<ntsc>FALSE</ntsc>
						</rate>
						<start>40460</start>
						<end>40649</end>
						<in>0</in>
						<out>189</out>
						<pproTicksIn>0</pproTicksIn>
						<pproTicksOut>1920360960000</pproTicksOut>
						<file id="file-98"/>
						<sourcetrack>
							<mediatype>audio</mediatype>
							<trackindex>2</trackindex>
						</sourcetrack>
						<link>
							<linkclipref>clipitem-3126</linkclipref>
							<mediatype>audio</mediatype>
							<trackindex>23</trackindex>
							<clipindex>47</clipindex>
							<groupindex>1</groupindex>
						</link>
						<link>
							<linkclipref>clipitem-3170</linkclipref>
							<mediatype>audio</mediatype>
							<trackindex>24</trackindex>
							<clipindex>46</clipindex>
							<groupindex>1</groupindex>
						</link>
						<logginginfo>
							<description></description>
							<scene></scene>
							<shottake></shottake>
							<lognote></lognote>
						</logginginfo>
						<labels>
							<label2>Caribbean</label2>
						</labels>
					</clipitem>
					<clipitem id="clipitem-3171" premiereChannelType="stereo">
						<masterclipid>masterclip-80</masterclipid>
						<name>Latter behersket.wav</name>
						<enabled>TRUE</enabled>
						<duration>124</duration>
						<rate>
							<timebase>25</timebase>
							<ntsc>FALSE</ntsc>
						</rate>
						<start>40683</start>
						<end>40807</end>
						<in>0</in>
						<out>124</out>
						<pproTicksIn>0</pproTicksIn>
						<pproTicksOut>1259919360000</pproTicksOut>
						<file id="file-76"/>
						<sourcetrack>
							<mediatype>audio</mediatype>
							<trackindex>2</trackindex>
						</sourcetrack>
						<link>
							<linkclipref>clipitem-3127</linkclipref>
							<mediatype>audio</mediatype>
							<trackindex>23</trackindex>
							<clipindex>48</clipindex>
							<groupindex>1</groupindex>
						</link>
						<link>
							<linkclipref>clipitem-3171</linkclipref>
							<mediatype>audio</mediatype>
							<trackindex>24</trackindex>
							<clipindex>47</clipindex>
							<groupindex>1</groupindex>
						</link>
						<logginginfo>
							<description></description>
							<scene></scene>
							<shottake></shottake>
							<lognote></lognote>
						</logginginfo>
						<labels>
							<label2>Caribbean</label2>
						</labels>
					</clipitem>
					<clipitem id="clipitem-3172" premiereChannelType="stereo">
						<masterclipid>masterclip-89</masterclipid>
						<name>Applaus behersket litt hoi 5 sek.wav</name>
						<enabled>TRUE</enabled>
						<duration>125</duration>
						<rate>
							<timebase>25</timebase>
							<ntsc>FALSE</ntsc>
						</rate>
						<start>49474</start>
						<end>49599</end>
						<in>0</in>
						<out>125</out>
						<pproTicksIn>0</pproTicksIn>
						<pproTicksOut>1270080000000</pproTicksOut>
						<file id="file-85"/>
						<sourcetrack>
							<mediatype>audio</mediatype>
							<trackindex>2</trackindex>
						</sourcetrack>
						<link>
							<linkclipref>clipitem-3128</linkclipref>
							<mediatype>audio</mediatype>
							<trackindex>23</trackindex>
							<clipindex>49</clipindex>
							<groupindex>1</groupindex>
						</link>
						<link>
							<linkclipref>clipitem-3172</linkclipref>
							<mediatype>audio</mediatype>
							<trackindex>24</trackindex>
							<clipindex>48</clipindex>
							<groupindex>1</groupindex>
						</link>
						<logginginfo>
							<description></description>
							<scene></scene>
							<shottake></shottake>
							<lognote></lognote>
						</logginginfo>
						<labels>
							<label2>Caribbean</label2>
						</labels>
					</clipitem>
					<clipitem id="clipitem-3173" premiereChannelType="stereo">
						<masterclipid>masterclip-102</masterclipid>
						<name>Applaus 7 sek høflig.wav</name>
						<enabled>TRUE</enabled>
						<duration>189</duration>
						<rate>
							<timebase>25</timebase>
							<ntsc>FALSE</ntsc>
						</rate>
						<start>49616</start>
						<end>49805</end>
						<in>0</in>
						<out>189</out>
						<pproTicksIn>0</pproTicksIn>
						<pproTicksOut>1920360960000</pproTicksOut>
						<file id="file-98"/>
						<sourcetrack>
							<mediatype>audio</mediatype>
							<trackindex>2</trackindex>
						</sourcetrack>
						<link>
							<linkclipref>clipitem-3129</linkclipref>
							<mediatype>audio</mediatype>
							<trackindex>23</trackindex>
							<clipindex>50</clipindex>
							<groupindex>1</groupindex>
						</link>
						<link>
							<linkclipref>clipitem-3173</linkclipref>
							<mediatype>audio</mediatype>
							<trackindex>24</trackindex>
							<clipindex>49</clipindex>
							<groupindex>1</groupindex>
						</link>
						<logginginfo>
							<description></description>
							<scene></scene>
							<shottake></shottake>
							<lognote></lognote>
						</logginginfo>
						<labels>
							<label2>Caribbean</label2>
						</labels>
					</clipitem>
					<clipitem id="clipitem-3174" premiereChannelType="stereo">
						<masterclipid>masterclip-193</masterclipid>
						<name>Stopwatch Sound Effect.mp3</name>
						<enabled>TRUE</enabled>
						<duration>102</duration>
						<rate>
							<timebase>25</timebase>
							<ntsc>FALSE</ntsc>
						</rate>
						<start>49851</start>
						<end>49933</end>
						<in>14</in>
						<out>96</out>
						<pproTicksIn>142248960000</pproTicksIn>
						<pproTicksOut>975421440000</pproTicksOut>
						<file id="file-189"/>
						<sourcetrack>
							<mediatype>audio</mediatype>
							<trackindex>2</trackindex>
						</sourcetrack>
							<filter>
								<effect>
									<name>Audio Levels</name>
									<effectid>audiolevels</effectid>
									<effectcategory>audiolevels</effectcategory>
									<effecttype>audiolevels</effecttype>
									<mediatype>audio</mediatype>
									<parameter authoringApp="PremierePro">
										<parameterid>level</parameterid>
										<name>Level</name>
										<valuemin>0</valuemin>
										<valuemax>3.98109</valuemax>
										<value>0.499999</value>
									</parameter>
								</effect>
							</filter>
						<link>
							<linkclipref>clipitem-3130</linkclipref>
							<mediatype>audio</mediatype>
							<trackindex>23</trackindex>
							<clipindex>51</clipindex>
							<groupindex>1</groupindex>
						</link>
						<link>
							<linkclipref>clipitem-3174</linkclipref>
							<mediatype>audio</mediatype>
							<trackindex>24</trackindex>
							<clipindex>50</clipindex>
							<groupindex>1</groupindex>
						</link>
						<logginginfo>
							<description></description>
							<scene></scene>
							<shottake></shottake>
							<lognote></lognote>
						</logginginfo>
						<labels>
							<label2>Caribbean</label2>
						</labels>
					</clipitem>
					<clipitem id="clipitem-3175" premiereChannelType="stereo">
						<masterclipid>masterclip-102</masterclipid>
						<name>Applaus 7 sek høflig.wav</name>
						<enabled>TRUE</enabled>
						<duration>189</duration>
						<rate>
							<timebase>25</timebase>
							<ntsc>FALSE</ntsc>
						</rate>
						<start>56919</start>
						<end>57108</end>
						<in>0</in>
						<out>189</out>
						<pproTicksIn>0</pproTicksIn>
						<pproTicksOut>1920360960000</pproTicksOut>
						<file id="file-98"/>
						<sourcetrack>
							<mediatype>audio</mediatype>
							<trackindex>2</trackindex>
						</sourcetrack>
						<link>
							<linkclipref>clipitem-3131</linkclipref>
							<mediatype>audio</mediatype>
							<trackindex>23</trackindex>
							<clipindex>52</clipindex>
							<groupindex>1</groupindex>
						</link>
						<link>
							<linkclipref>clipitem-3175</linkclipref>
							<mediatype>audio</mediatype>
							<trackindex>24</trackindex>
							<clipindex>51</clipindex>
							<groupindex>1</groupindex>
						</link>
						<logginginfo>
							<description></description>
							<scene></scene>
							<shottake></shottake>
							<lognote></lognote>
						</logginginfo>
						<labels>
							<label2>Caribbean</label2>
						</labels>
					</clipitem>
					<clipitem id="clipitem-3176" premiereChannelType="stereo">
						<masterclipid>masterclip-76</masterclipid>
						<name>Latter går over i applaus plystring brå slutt.wav</name>
						<enabled>TRUE</enabled>
						<duration>232</duration>
						<rate>
							<timebase>25</timebase>
							<ntsc>FALSE</ntsc>
						</rate>
						<start>57455</start>
						<end>57688</end>
						<in>0</in>
						<out>233</out>
						<pproTicksIn>0</pproTicksIn>
						<pproTicksOut>2367429120000</pproTicksOut>
						<file id="file-72"/>
						<sourcetrack>
							<mediatype>audio</mediatype>
							<trackindex>2</trackindex>
						</sourcetrack>
						<link>
							<linkclipref>clipitem-3132</linkclipref>
							<mediatype>audio</mediatype>
							<trackindex>23</trackindex>
							<clipindex>53</clipindex>
							<groupindex>1</groupindex>
						</link>
						<link>
							<linkclipref>clipitem-3176</linkclipref>
							<mediatype>audio</mediatype>
							<trackindex>24</trackindex>
							<clipindex>52</clipindex>
							<groupindex>1</groupindex>
						</link>
						<logginginfo>
							<description></description>
							<scene></scene>
							<shottake></shottake>
							<lognote></lognote>
						</logginginfo>
						<labels>
							<label2>Caribbean</label2>
						</labels>
					</clipitem>
					<enabled>TRUE</enabled>
					<locked>FALSE</locked>
					<outputchannelindex>2</outputchannelindex>
				</track>
				<track TL.SQTrackAudioKeyframeStyle="0" TL.SQTrackShy="0" TL.SQTrackExpandedHeight="25" TL.SQTrackExpanded="0" MZ.TrackTargeted="1" PannerCurrentValue="0.5" PannerIsInverted="true" PannerStartKeyframe="-91445760000000000,0.5,0,0,0,0,0,0" PannerName="Balance" currentExplodedTrackIndex="0" totalExplodedTrackCount="2" premiereTrackType="Stereo">
					<clipitem id="clipitem-3177" premiereChannelType="stereo">
						<masterclipid>masterclip-194</masterclipid>
						<name>sound and camera flashes from paparazzi.mp3</name>
						<enabled>TRUE</enabled>
						<duration>941</duration>
						<rate>
							<timebase>25</timebase>
							<ntsc>FALSE</ntsc>
						</rate>
						<start>41</start>
						<end>97</end>
						<in>444</in>
						<out>500</out>
						<pproTicksIn>4511324160000</pproTicksIn>
						<pproTicksOut>5080320000000</pproTicksOut>
						<file id="file-190">
							<name>sound and camera flashes from paparazzi.mp3</name>
							<pathurl>file://localhost/Volumes/Brakka/AdobeLager/QUIZ%20-%20brakka/Musikk/Sound%20FX/sound%20and%20camera%20flashes%20from%20paparazzi.mp3</pathurl>
							<rate>
								<timebase>30</timebase>
								<ntsc>TRUE</ntsc>
							</rate>
							<duration>1128</duration>
							<timecode>
								<rate>
									<timebase>30</timebase>
									<ntsc>TRUE</ntsc>
								</rate>
								<string>00;00;00;00</string>
								<frame>0</frame>
								<displayformat>DF</displayformat>
								<reel>
									<name></name>
								</reel>
							</timecode>
							<media>
								<audio>
									<samplecharacteristics>
										<depth>16</depth>
										<samplerate>44100</samplerate>
									</samplecharacteristics>
									<channelcount>2</channelcount>
								</audio>
							</media>
						</file>
						<sourcetrack>
							<mediatype>audio</mediatype>
							<trackindex>1</trackindex>
						</sourcetrack>
							<filter>
								<effect>
									<name>Audio Levels</name>
									<effectid>audiolevels</effectid>
									<effectcategory>audiolevels</effectcategory>
									<effecttype>audiolevels</effecttype>
									<mediatype>audio</mediatype>
									<parameter authoringApp="PremierePro">
										<parameterid>level</parameterid>
										<name>Level</name>
										<valuemin>0</valuemin>
										<valuemax>3.98109</valuemax>
										<value>0.199053</value>
									</parameter>
								</effect>
							</filter>
						<link>
							<linkclipref>clipitem-3177</linkclipref>
							<mediatype>audio</mediatype>
							<trackindex>25</trackindex>
							<clipindex>1</clipindex>
							<groupindex>1</groupindex>
						</link>
						<link>
							<linkclipref>clipitem-3208</linkclipref>
							<mediatype>audio</mediatype>
							<trackindex>26</trackindex>
							<clipindex>1</clipindex>
							<groupindex>1</groupindex>
						</link>
						<logginginfo>
							<description></description>
							<scene></scene>
							<shottake></shottake>
							<lognote></lognote>
						</logginginfo>
						<labels>
							<label2>Caribbean</label2>
						</labels>
					</clipitem>
					<clipitem id="clipitem-3178" premiereChannelType="stereo">
						<masterclipid>masterclip-143</masterclipid>
						<name>Whoosh%20By%2007.wav</name>
						<enabled>TRUE</enabled>
						<duration>42</duration>
						<rate>
							<timebase>25</timebase>
							<ntsc>FALSE</ntsc>
						</rate>
						<start>236</start>
						<end>278</end>
						<in>0</in>
						<out>42</out>
						<pproTicksIn>0</pproTicksIn>
						<pproTicksOut>426746880000</pproTicksOut>
						<file id="file-139"/>
						<sourcetrack>
							<mediatype>audio</mediatype>
							<trackindex>1</trackindex>
						</sourcetrack>
							<filter>
								<effect>
									<name>Audio Levels</name>
									<effectid>audiolevels</effectid>
									<effectcategory>audiolevels</effectcategory>
									<effecttype>audiolevels</effecttype>
									<mediatype>audio</mediatype>
									<parameter authoringApp="PremierePro">
										<parameterid>level</parameterid>
										<name>Level</name>
										<valuemin>0</valuemin>
										<valuemax>3.98109</valuemax>
										<value>0.111936</value>
									</parameter>
								</effect>
							</filter>
						<link>
							<linkclipref>clipitem-3178</linkclipref>
							<mediatype>audio</mediatype>
							<trackindex>25</trackindex>
							<clipindex>2</clipindex>
							<groupindex>1</groupindex>
						</link>
						<link>
							<linkclipref>clipitem-3209</linkclipref>
							<mediatype>audio</mediatype>
							<trackindex>26</trackindex>
							<clipindex>2</clipindex>
							<groupindex>1</groupindex>
						</link>
						<logginginfo>
							<description></description>
							<scene></scene>
							<shottake></shottake>
							<lognote></lognote>
						</logginginfo>
						<labels>
							<label2>Caribbean</label2>
						</labels>
					</clipitem>
					<clipitem id="clipitem-3179" premiereChannelType="stereo">
						<masterclipid>masterclip-165</masterclipid>
						<name>_Jeeee..._ applaus.wav</name>
						<enabled>TRUE</enabled>
						<duration>129</duration>
						<rate>
							<timebase>25</timebase>
							<ntsc>FALSE</ntsc>
						</rate>
						<start>332</start>
						<end>335</end>
						<in>0</in>
						<out>3</out>
						<pproTicksIn>0</pproTicksIn>
						<pproTicksOut>30481920000</pproTicksOut>
						<file id="file-161"/>
						<sourcetrack>
							<mediatype>audio</mediatype>
							<trackindex>1</trackindex>
						</sourcetrack>
						<link>
							<linkclipref>clipitem-3179</linkclipref>
							<mediatype>audio</mediatype>
							<trackindex>25</trackindex>
							<clipindex>3</clipindex>
							<groupindex>1</groupindex>
						</link>
						<link>
							<linkclipref>clipitem-3210</linkclipref>
							<mediatype>audio</mediatype>
							<trackindex>26</trackindex>
							<clipindex>3</clipindex>
							<groupindex>1</groupindex>
						</link>
						<logginginfo>
							<description></description>
							<scene></scene>
							<shottake></shottake>
							<lognote></lognote>
						</logginginfo>
						<labels>
							<label2>Caribbean</label2>
						</labels>
					</clipitem>
					<clipitem id="clipitem-3180" premiereChannelType="stereo">
						<masterclipid>masterclip-195</masterclipid>
						<name>Kort moderat applaus.wav</name>
						<enabled>TRUE</enabled>
						<duration>148</duration>
						<rate>
							<timebase>25</timebase>
							<ntsc>FALSE</ntsc>
						</rate>
						<start>335</start>
						<end>-1</end>
						<in>0</in>
						<out>96</out>
						<pproTicksIn>0</pproTicksIn>
						<pproTicksOut>975421440000</pproTicksOut>
						<file id="file-191">
							<name>Kort moderat applaus.wav</name>
							<pathurl>file://localhost/Volumes/Brakka/AdobeLager/QUIZ%20-%20brakka/RA%cc%8aSTOFF%20LYD/Publikumsreaksjoner/Fra%201998/Kort%20moderat%20applaus.wav</pathurl>
							<rate>
								<timebase>30</timebase>
								<ntsc>TRUE</ntsc>
							</rate>
							<duration>178</duration>
							<timecode>
								<rate>
									<timebase>30</timebase>
									<ntsc>TRUE</ntsc>
								</rate>
								<string>13;45;38;20</string>
								<frame>1484674</frame>
								<displayformat>DF</displayformat>
								<reel>
									<name></name>
								</reel>
							</timecode>
							<media>
								<audio>
									<samplecharacteristics>
										<depth>16</depth>
										<samplerate>48000</samplerate>
									</samplecharacteristics>
									<channelcount>2</channelcount>
								</audio>
							</media>
						</file>
						<sourcetrack>
							<mediatype>audio</mediatype>
							<trackindex>1</trackindex>
						</sourcetrack>
						<link>
							<linkclipref>clipitem-3180</linkclipref>
							<mediatype>audio</mediatype>
							<trackindex>25</trackindex>
							<clipindex>4</clipindex>
							<groupindex>1</groupindex>
						</link>
						<link>
							<linkclipref>clipitem-3211</linkclipref>
							<mediatype>audio</mediatype>
							<trackindex>26</trackindex>
							<clipindex>4</clipindex>
							<groupindex>1</groupindex>
						</link>
						<logginginfo>
							<description></description>
							<scene></scene>
							<shottake></shottake>
							<lognote></lognote>
						</logginginfo>
						<labels>
							<label2>Caribbean</label2>
						</labels>
					</clipitem>
					<transitionitem>
						<start>374</start>
						<end>431</end>
						<alignment>center</alignment>
						<cutPointTicks>284497920000</cutPointTicks>
						<rate>
							<timebase>25</timebase>
							<ntsc>FALSE</ntsc>
						</rate>
						<effect>
							<name>Cross Fade (+3dB)</name>
							<effectid>KGAudioTransCrossFade3dB</effectid>
							<effecttype>transition</effecttype>
							<mediatype>audio</mediatype>
							<wipecode>0</wipecode>
							<wipeaccuracy>100</wipeaccuracy>
							<startratio>0</startratio>
							<endratio>1</endratio>
							<reverse>FALSE</reverse>
						</effect>
					</transitionitem>
					<clipitem id="clipitem-3181" premiereChannelType="stereo">
						<masterclipid>masterclip-195</masterclipid>
						<name>Kort moderat applaus.wav</name>
						<enabled>TRUE</enabled>
						<duration>148</duration>
						<rate>
							<timebase>25</timebase>
							<ntsc>FALSE</ntsc>
						</rate>
						<start>-1</start>
						<end>513</end>
						<in>9</in>
						<out>148</out>
						<pproTicksIn>91445760000</pproTicksIn>
						<pproTicksOut>1503774720000</pproTicksOut>
						<file id="file-191"/>
						<sourcetrack>
							<mediatype>audio</mediatype>
							<trackindex>1</trackindex>
						</sourcetrack>
						<link>
							<linkclipref>clipitem-3181</linkclipref>
							<mediatype>audio</mediatype>
							<trackindex>25</trackindex>
							<clipindex>6</clipindex>
							<groupindex>1</groupindex>
						</link>
						<link>
							<linkclipref>clipitem-3212</linkclipref>
							<mediatype>audio</mediatype>
							<trackindex>26</trackindex>
							<clipindex>6</clipindex>
							<groupindex>1</groupindex>
						</link>
						<logginginfo>
							<description></description>
							<scene></scene>
							<shottake></shottake>
							<lognote></lognote>
						</logginginfo>
						<labels>
							<label2>Caribbean</label2>
						</labels>
					</clipitem>
					<clipitem id="clipitem-3182" premiereChannelType="stereo">
						<masterclipid>masterclip-196</masterclipid>
						<name>restvoice2005.WAV</name>
						<enabled>TRUE</enabled>
						<duration>3731</duration>
						<rate>
							<timebase>25</timebase>
							<ntsc>FALSE</ntsc>
						</rate>
						<start>946</start>
						<end>1142</end>
						<in>622</in>
						<out>818</out>
						<pproTicksIn>6319918080000</pproTicksIn>
						<pproTicksOut>8311403520000</pproTicksOut>
						<file id="file-192">
							<name>restvoice2005.WAV</name>
							<pathurl>file://localhost/Volumes/Brakka/AdobeLager/QUIZ%20-%20brakka/Arkivstoff/2005/Voice/restvoice2005.WAV</pathurl>
							<rate>
								<timebase>30</timebase>
								<ntsc>TRUE</ntsc>
							</rate>
							<duration>4472</duration>
							<timecode>
								<rate>
									<timebase>30</timebase>
									<ntsc>TRUE</ntsc>
								</rate>
								<string>00;00;00;00</string>
								<frame>0</frame>
								<displayformat>DF</displayformat>
								<reel>
									<name></name>
								</reel>
							</timecode>
							<media>
								<audio>
									<samplecharacteristics>
										<depth>16</depth>
										<samplerate>48000</samplerate>
									</samplecharacteristics>
									<channelcount>2</channelcount>
								</audio>
							</media>
						</file>
						<sourcetrack>
							<mediatype>audio</mediatype>
							<trackindex>1</trackindex>
						</sourcetrack>
						<link>
							<linkclipref>clipitem-3182</linkclipref>
							<mediatype>audio</mediatype>
							<trackindex>25</trackindex>
							<clipindex>7</clipindex>
							<groupindex>1</groupindex>
						</link>
						<link>
							<linkclipref>clipitem-3213</linkclipref>
							<mediatype>audio</mediatype>
							<trackindex>26</trackindex>
							<clipindex>7</clipindex>
							<groupindex>1</groupindex>
						</link>
						<logginginfo>
							<description></description>
							<scene></scene>
							<shottake></shottake>
							<lognote></lognote>
						</logginginfo>
					</clipitem>
					<clipitem id="clipitem-3183" premiereChannelType="stereo">
						<masterclipid>masterclip-197</masterclipid>
						<name>2005-kavalkade-v4.WAV</name>
						<enabled>TRUE</enabled>
						<duration>4221</duration>
						<rate>
							<timebase>25</timebase>
							<ntsc>FALSE</ntsc>
						</rate>
						<start>1249</start>
						<end>1379</end>
						<in>145</in>
						<out>275</out>
						<pproTicksIn>1473292800000</pproTicksIn>
						<pproTicksOut>2794176000000</pproTicksOut>
						<file id="file-193">
							<name>2005-kavalkade-v4.WAV</name>
							<pathurl>file://localhost/Volumes/Brakka/AdobeLager/QUIZ%20-%20brakka/Arkivstoff/2005/Voice/2005-kavalkade-v4.WAV</pathurl>
							<rate>
								<timebase>30</timebase>
								<ntsc>TRUE</ntsc>
							</rate>
							<duration>5060</duration>
							<timecode>
								<rate>
									<timebase>30</timebase>
									<ntsc>TRUE</ntsc>
								</rate>
								<string>00;00;00;00</string>
								<frame>0</frame>
								<displayformat>DF</displayformat>
								<reel>
									<name></name>
								</reel>
							</timecode>
							<media>
								<audio>
									<samplecharacteristics>
										<depth>16</depth>
										<samplerate>48000</samplerate>
									</samplecharacteristics>
									<channelcount>2</channelcount>
								</audio>
							</media>
						</file>
						<sourcetrack>
							<mediatype>audio</mediatype>
							<trackindex>1</trackindex>
						</sourcetrack>
							<filter>
								<effect>
									<name>Audio Levels</name>
									<effectid>audiolevels</effectid>
									<effectcategory>audiolevels</effectcategory>
									<effecttype>audiolevels</effecttype>
									<mediatype>audio</mediatype>
									<parameter authoringApp="PremierePro">
										<parameterid>level</parameterid>
										<name>Level</name>
										<valuemin>0</valuemin>
										<valuemax>3.98109</valuemax>
										<value>0.792446</value>
									</parameter>
								</effect>
							</filter>
						<link>
							<linkclipref>clipitem-3183</linkclipref>
							<mediatype>audio</mediatype>
							<trackindex>25</trackindex>
							<clipindex>8</clipindex>
							<groupindex>1</groupindex>
						</link>
						<link>
							<linkclipref>clipitem-3214</linkclipref>
							<mediatype>audio</mediatype>
							<trackindex>26</trackindex>
							<clipindex>8</clipindex>
							<groupindex>1</groupindex>
						</link>
						<logginginfo>
							<description></description>
							<scene></scene>
							<shottake></shottake>
							<lognote></lognote>
						</logginginfo>
						<labels>
							<label2>Caribbean</label2>
						</labels>
					</clipitem>
					<clipitem id="clipitem-3184" premiereChannelType="stereo">
						<masterclipid>masterclip-198</masterclipid>
						<name>2005-kavalkade-vb-v2.WAV</name>
						<enabled>TRUE</enabled>
						<duration>5988</duration>
						<rate>
							<timebase>25</timebase>
							<ntsc>FALSE</ntsc>
						</rate>
						<start>1542</start>
						<end>2163</end>
						<in>366</in>
						<out>987</out>
						<pproTicksIn>3718794240000</pproTicksIn>
						<pproTicksOut>10028551680000</pproTicksOut>
						<file id="file-194">
							<name>2005-kavalkade-vb-v2.WAV</name>
							<pathurl>file://localhost/Volumes/Brakka/AdobeLager/QUIZ%20-%20brakka/Arkivstoff/2005/Voice/2005-kavalkade-vb-v2.WAV</pathurl>
							<rate>
								<timebase>30</timebase>
								<ntsc>TRUE</ntsc>
							</rate>
							<duration>7179</duration>
							<timecode>
								<rate>
									<timebase>30</timebase>
									<ntsc>TRUE</ntsc>
								</rate>
								<string>00;00;00;00</string>
								<frame>0</frame>
								<displayformat>DF</displayformat>
								<reel>
									<name></name>
								</reel>
							</timecode>
							<media>
								<audio>
									<samplecharacteristics>
										<depth>16</depth>
										<samplerate>48000</samplerate>
									</samplecharacteristics>
									<channelcount>2</channelcount>
								</audio>
							</media>
						</file>
						<sourcetrack>
							<mediatype>audio</mediatype>
							<trackindex>1</trackindex>
						</sourcetrack>
							<filter>
								<effect>
									<name>Audio Levels</name>
									<effectid>audiolevels</effectid>
									<effectcategory>audiolevels</effectcategory>
									<effecttype>audiolevels</effecttype>
									<mediatype>audio</mediatype>
									<parameter authoringApp="PremierePro">
										<parameterid>level</parameterid>
										<name>Level</name>
										<valuemin>0</valuemin>
										<valuemax>3.98109</valuemax>
										<value>0.889139</value>
									</parameter>
								</effect>
							</filter>
						<link>
							<linkclipref>clipitem-3184</linkclipref>
							<mediatype>audio</mediatype>
							<trackindex>25</trackindex>
							<clipindex>9</clipindex>
							<groupindex>1</groupindex>
						</link>
						<link>
							<linkclipref>clipitem-3215</linkclipref>
							<mediatype>audio</mediatype>
							<trackindex>26</trackindex>
							<clipindex>9</clipindex>
							<groupindex>1</groupindex>
						</link>
						<logginginfo>
							<description></description>
							<scene></scene>
							<shottake></shottake>
							<lognote></lognote>
						</logginginfo>
						<labels>
							<label2>Caribbean</label2>
						</labels>
					</clipitem>
					<clipitem id="clipitem-3185" premiereChannelType="stereo">
						<masterclipid>masterclip-197</masterclipid>
						<name>2005-kavalkade-v4.WAV</name>
						<enabled>TRUE</enabled>
						<duration>4221</duration>
						<rate>
							<timebase>25</timebase>
							<ntsc>FALSE</ntsc>
						</rate>
						<start>2223</start>
						<end>2503</end>
						<in>1236</in>
						<out>1516</out>
						<pproTicksIn>12558551040000</pproTicksIn>
						<pproTicksOut>15403530240000</pproTicksOut>
						<file id="file-193"/>
						<sourcetrack>
							<mediatype>audio</mediatype>
							<trackindex>1</trackindex>
						</sourcetrack>
							<filter>
								<effect>
									<name>Audio Levels</name>
									<effectid>audiolevels</effectid>
									<effectcategory>audiolevels</effectcategory>
									<effecttype>audiolevels</effecttype>
									<mediatype>audio</mediatype>
									<parameter authoringApp="PremierePro">
										<parameterid>level</parameterid>
										<name>Level</name>
										<valuemin>0</valuemin>
										<valuemax>3.98109</valuemax>
										<value>0.792446</value>
									</parameter>
								</effect>
							</filter>
						<link>
							<linkclipref>clipitem-3185</linkclipref>
							<mediatype>audio</mediatype>
							<trackindex>25</trackindex>
							<clipindex>10</clipindex>
							<groupindex>1</groupindex>
						</link>
						<link>
							<linkclipref>clipitem-3216</linkclipref>
							<mediatype>audio</mediatype>
							<trackindex>26</trackindex>
							<clipindex>10</clipindex>
							<groupindex>1</groupindex>
						</link>
						<logginginfo>
							<description></description>
							<scene></scene>
							<shottake></shottake>
							<lognote></lognote>
						</logginginfo>
						<labels>
							<label2>Caribbean</label2>
						</labels>
					</clipitem>
					<clipitem id="clipitem-3186" premiereChannelType="stereo">
						<masterclipid>masterclip-198</masterclipid>
						<name>2005-kavalkade-vb-v2.WAV</name>
						<enabled>TRUE</enabled>
						<duration>5988</duration>
						<rate>
							<timebase>25</timebase>
							<ntsc>FALSE</ntsc>
						</rate>
						<start>2633</start>
						<end>2830</end>
						<in>1306</in>
						<out>1503</out>
						<pproTicksIn>13269795840000</pproTicksIn>
						<pproTicksOut>15271441920000</pproTicksOut>
						<file id="file-194"/>
						<sourcetrack>
							<mediatype>audio</mediatype>
							<trackindex>1</trackindex>
						</sourcetrack>
							<filter>
								<effect>
									<name>Audio Levels</name>
									<effectid>audiolevels</effectid>
									<effectcategory>audiolevels</effectcategory>
									<effecttype>audiolevels</effecttype>
									<mediatype>audio</mediatype>
									<parameter authoringApp="PremierePro">
										<parameterid>level</parameterid>
										<name>Level</name>
										<valuemin>0</valuemin>
										<valuemax>3.98109</valuemax>
										<value>0.792446</value>
									</parameter>
								</effect>
							</filter>
						<link>
							<linkclipref>clipitem-3186</linkclipref>
							<mediatype>audio</mediatype>
							<trackindex>25</trackindex>
							<clipindex>11</clipindex>
							<groupindex>1</groupindex>
						</link>
						<link>
							<linkclipref>clipitem-3217</linkclipref>
							<mediatype>audio</mediatype>
							<trackindex>26</trackindex>
							<clipindex>11</clipindex>
							<groupindex>1</groupindex>
						</link>
						<logginginfo>
							<description></description>
							<scene></scene>
							<shottake></shottake>
							<lognote></lognote>
						</logginginfo>
						<labels>
							<label2>Caribbean</label2>
						</labels>
					</clipitem>
					<clipitem id="clipitem-3187" premiereChannelType="stereo">
						<masterclipid>masterclip-197</masterclipid>
						<name>2005-kavalkade-v4.WAV</name>
						<enabled>TRUE</enabled>
						<duration>4221</duration>
						<rate>
							<timebase>25</timebase>
							<ntsc>FALSE</ntsc>
						</rate>
						<start>2891</start>
						<end>3036</end>
						<in>1704</in>
						<out>1849</out>
						<pproTicksIn>17313730560000</pproTicksIn>
						<pproTicksOut>18787023360000</pproTicksOut>
						<file id="file-193"/>
						<sourcetrack>
							<mediatype>audio</mediatype>
							<trackindex>1</trackindex>
						</sourcetrack>
							<filter>
								<effect>
									<name>Audio Levels</name>
									<effectid>audiolevels</effectid>
									<effectcategory>audiolevels</effectcategory>
									<effecttype>audiolevels</effecttype>
									<mediatype>audio</mediatype>
									<parameter authoringApp="PremierePro">
										<parameterid>level</parameterid>
										<name>Level</name>
										<valuemin>0</valuemin>
										<valuemax>3.98109</valuemax>
										<value>0.792446</value>
									</parameter>
								</effect>
							</filter>
						<link>
							<linkclipref>clipitem-3187</linkclipref>
							<mediatype>audio</mediatype>
							<trackindex>25</trackindex>
							<clipindex>12</clipindex>
							<groupindex>1</groupindex>
						</link>
						<link>
							<linkclipref>clipitem-3218</linkclipref>
							<mediatype>audio</mediatype>
							<trackindex>26</trackindex>
							<clipindex>12</clipindex>
							<groupindex>1</groupindex>
						</link>
						<logginginfo>
							<description></description>
							<scene></scene>
							<shottake></shottake>
							<lognote></lognote>
						</logginginfo>
						<labels>
							<label2>Caribbean</label2>
						</labels>
					</clipitem>
					<clipitem id="clipitem-3188" premiereChannelType="stereo">
						<masterclipid>masterclip-197</masterclipid>
						<name>2005-kavalkade-v4.WAV</name>
						<enabled>TRUE</enabled>
						<duration>4221</duration>
						<rate>
							<timebase>25</timebase>
							<ntsc>FALSE</ntsc>
						</rate>
						<start>3079</start>
						<end>3331</end>
						<in>2066</in>
						<out>2318</out>
						<pproTicksIn>20991882240000</pproTicksIn>
						<pproTicksOut>23552363520000</pproTicksOut>
						<file id="file-193"/>
						<sourcetrack>
							<mediatype>audio</mediatype>
							<trackindex>1</trackindex>
						</sourcetrack>
							<filter>
								<effect>
									<name>Audio Levels</name>
									<effectid>audiolevels</effectid>
									<effectcategory>audiolevels</effectcategory>
									<effecttype>audiolevels</effecttype>
									<mediatype>audio</mediatype>
									<parameter authoringApp="PremierePro">
										<parameterid>level</parameterid>
										<name>Level</name>
										<valuemin>0</valuemin>
										<valuemax>3.98109</valuemax>
										<value>0.792446</value>
									</parameter>
								</effect>
							</filter>
						<link>
							<linkclipref>clipitem-3188</linkclipref>
							<mediatype>audio</mediatype>
							<trackindex>25</trackindex>
							<clipindex>13</clipindex>
							<groupindex>1</groupindex>
						</link>
						<link>
							<linkclipref>clipitem-3219</linkclipref>
							<mediatype>audio</mediatype>
							<trackindex>26</trackindex>
							<clipindex>13</clipindex>
							<groupindex>1</groupindex>
						</link>
						<logginginfo>
							<description></description>
							<scene></scene>
							<shottake></shottake>
							<lognote></lognote>
						</logginginfo>
						<labels>
							<label2>Caribbean</label2>
						</labels>
					</clipitem>
					<clipitem id="clipitem-3189" premiereChannelType="stereo">
						<masterclipid>masterclip-197</masterclipid>
						<name>2005-kavalkade-v4.WAV</name>
						<enabled>TRUE</enabled>
						<duration>4221</duration>
						<rate>
							<timebase>25</timebase>
							<ntsc>FALSE</ntsc>
						</rate>
						<start>3360</start>
						<end>3524</end>
						<in>2332</in>
						<out>2496</out>
						<pproTicksIn>23694612480000</pproTicksIn>
						<pproTicksOut>25360957440000</pproTicksOut>
						<file id="file-193"/>
						<sourcetrack>
							<mediatype>audio</mediatype>
							<trackindex>1</trackindex>
						</sourcetrack>
							<filter>
								<effect>
									<name>Audio Levels</name>
									<effectid>audiolevels</effectid>
									<effectcategory>audiolevels</effectcategory>
									<effecttype>audiolevels</effecttype>
									<mediatype>audio</mediatype>
									<parameter authoringApp="PremierePro">
										<parameterid>level</parameterid>
										<name>Level</name>
										<valuemin>0</valuemin>
										<valuemax>3.98109</valuemax>
										<value>0.792446</value>
									</parameter>
								</effect>
							</filter>
						<link>
							<linkclipref>clipitem-3189</linkclipref>
							<mediatype>audio</mediatype>
							<trackindex>25</trackindex>
							<clipindex>14</clipindex>
							<groupindex>1</groupindex>
						</link>
						<link>
							<linkclipref>clipitem-3220</linkclipref>
							<mediatype>audio</mediatype>
							<trackindex>26</trackindex>
							<clipindex>14</clipindex>
							<groupindex>1</groupindex>
						</link>
						<logginginfo>
							<description></description>
							<scene></scene>
							<shottake></shottake>
							<lognote></lognote>
						</logginginfo>
						<labels>
							<label2>Caribbean</label2>
						</labels>
					</clipitem>
					<clipitem id="clipitem-3190" premiereChannelType="stereo">
						<masterclipid>masterclip-197</masterclipid>
						<name>2005-kavalkade-v4.WAV</name>
						<enabled>TRUE</enabled>
						<duration>4221</duration>
						<rate>
							<timebase>25</timebase>
							<ntsc>FALSE</ntsc>
						</rate>
						<start>3590</start>
						<end>3713</end>
						<in>2675</in>
						<out>2798</out>
						<pproTicksIn>27179712000000</pproTicksIn>
						<pproTicksOut>28429470720000</pproTicksOut>
						<file id="file-193"/>
						<sourcetrack>
							<mediatype>audio</mediatype>
							<trackindex>1</trackindex>
						</sourcetrack>
							<filter>
								<effect>
									<name>Audio Levels</name>
									<effectid>audiolevels</effectid>
									<effectcategory>audiolevels</effectcategory>
									<effecttype>audiolevels</effecttype>
									<mediatype>audio</mediatype>
									<parameter authoringApp="PremierePro">
										<parameterid>level</parameterid>
										<name>Level</name>
										<valuemin>0</valuemin>
										<valuemax>3.98109</valuemax>
										<value>0.792446</value>
									</parameter>
								</effect>
							</filter>
						<link>
							<linkclipref>clipitem-3190</linkclipref>
							<mediatype>audio</mediatype>
							<trackindex>25</trackindex>
							<clipindex>15</clipindex>
							<groupindex>1</groupindex>
						</link>
						<link>
							<linkclipref>clipitem-3221</linkclipref>
							<mediatype>audio</mediatype>
							<trackindex>26</trackindex>
							<clipindex>15</clipindex>
							<groupindex>1</groupindex>
						</link>
						<logginginfo>
							<description></description>
							<scene></scene>
							<shottake></shottake>
							<lognote></lognote>
						</logginginfo>
						<labels>
							<label2>Caribbean</label2>
						</labels>
					</clipitem>
					<clipitem id="clipitem-3191" premiereChannelType="stereo">
						<masterclipid>masterclip-198</masterclipid>
						<name>2005-kavalkade-vb-v2.WAV</name>
						<enabled>TRUE</enabled>
						<duration>5988</duration>
						<rate>
							<timebase>25</timebase>
							<ntsc>FALSE</ntsc>
						</rate>
						<start>3713</start>
						<end>4111</end>
						<in>2685</in>
						<out>3083</out>
						<pproTicksIn>27281318400000</pproTicksIn>
						<pproTicksOut>31325253120000</pproTicksOut>
						<file id="file-194"/>
						<sourcetrack>
							<mediatype>audio</mediatype>
							<trackindex>1</trackindex>
						</sourcetrack>
							<filter>
								<effect>
									<name>Audio Levels</name>
									<effectid>audiolevels</effectid>
									<effectcategory>audiolevels</effectcategory>
									<effecttype>audiolevels</effecttype>
									<mediatype>audio</mediatype>
									<parameter authoringApp="PremierePro">
										<parameterid>level</parameterid>
										<name>Level</name>
										<valuemin>0</valuemin>
										<valuemax>3.98109</valuemax>
										<value>0.889139</value>
									</parameter>
								</effect>
							</filter>
						<link>
							<linkclipref>clipitem-3191</linkclipref>
							<mediatype>audio</mediatype>
							<trackindex>25</trackindex>
							<clipindex>16</clipindex>
							<groupindex>1</groupindex>
						</link>
						<link>
							<linkclipref>clipitem-3222</linkclipref>
							<mediatype>audio</mediatype>
							<trackindex>26</trackindex>
							<clipindex>16</clipindex>
							<groupindex>1</groupindex>
						</link>
						<logginginfo>
							<description></description>
							<scene></scene>
							<shottake></shottake>
							<lognote></lognote>
						</logginginfo>
						<labels>
							<label2>Caribbean</label2>
						</labels>
					</clipitem>
					<clipitem id="clipitem-3192" premiereChannelType="stereo">
						<masterclipid>masterclip-196</masterclipid>
						<name>restvoice2005.WAV</name>
						<enabled>TRUE</enabled>
						<duration>3731</duration>
						<rate>
							<timebase>25</timebase>
							<ntsc>FALSE</ntsc>
						</rate>
						<start>4126</start>
						<end>4403</end>
						<in>1117</in>
						<out>1394</out>
						<pproTicksIn>11349434880000</pproTicksIn>
						<pproTicksOut>14163932160000</pproTicksOut>
						<file id="file-192"/>
						<sourcetrack>
							<mediatype>audio</mediatype>
							<trackindex>1</trackindex>
						</sourcetrack>
						<link>
							<linkclipref>clipitem-3192</linkclipref>
							<mediatype>audio</mediatype>
							<trackindex>25</trackindex>
							<clipindex>17</clipindex>
							<groupindex>1</groupindex>
						</link>
						<link>
							<linkclipref>clipitem-3223</linkclipref>
							<mediatype>audio</mediatype>
							<trackindex>26</trackindex>
							<clipindex>17</clipindex>
							<groupindex>1</groupindex>
						</link>
						<logginginfo>
							<description></description>
							<scene></scene>
							<shottake></shottake>
							<lognote></lognote>
						</logginginfo>
					</clipitem>
					<clipitem id="clipitem-3193" premiereChannelType="stereo">
						<masterclipid>masterclip-196</masterclipid>
						<name>restvoice2005.WAV</name>
						<enabled>TRUE</enabled>
						<duration>3731</duration>
						<rate>
							<timebase>25</timebase>
							<ntsc>FALSE</ntsc>
						</rate>
						<start>4576</start>
						<end>4780</end>
						<in>3507</in>
						<out>3711</out>
						<pproTicksIn>35633364480000</pproTicksIn>
						<pproTicksOut>37706135040000</pproTicksOut>
						<file id="file-192"/>
						<sourcetrack>
							<mediatype>audio</mediatype>
							<trackindex>1</trackindex>
						</sourcetrack>
						<link>
							<linkclipref>clipitem-3193</linkclipref>
							<mediatype>audio</mediatype>
							<trackindex>25</trackindex>
							<clipindex>18</clipindex>
							<groupindex>1</groupindex>
						</link>
						<link>
							<linkclipref>clipitem-3224</linkclipref>
							<mediatype>audio</mediatype>
							<trackindex>26</trackindex>
							<clipindex>18</clipindex>
							<groupindex>1</groupindex>
						</link>
						<logginginfo>
							<description></description>
							<scene></scene>
							<shottake></shottake>
							<lognote></lognote>
						</logginginfo>
					</clipitem>
					<clipitem id="clipitem-3194" premiereChannelType="stereo">
						<masterclipid>masterclip-116</masterclipid>
						<name>Latterkule kort.wav</name>
						<enabled>TRUE</enabled>
						<duration>205</duration>
						<rate>
							<timebase>25</timebase>
							<ntsc>FALSE</ntsc>
						</rate>
						<start>17885</start>
						<end>18090</end>
						<in>0</in>
						<out>205</out>
						<pproTicksIn>0</pproTicksIn>
						<pproTicksOut>2082931200000</pproTicksOut>
						<file id="file-112"/>
						<sourcetrack>
							<mediatype>audio</mediatype>
							<trackindex>1</trackindex>
						</sourcetrack>
						<link>
							<linkclipref>clipitem-3194</linkclipref>
							<mediatype>audio</mediatype>
							<trackindex>25</trackindex>
							<clipindex>19</clipindex>
							<groupindex>1</groupindex>
						</link>
						<link>
							<linkclipref>clipitem-3225</linkclipref>
							<mediatype>audio</mediatype>
							<trackindex>26</trackindex>
							<clipindex>19</clipindex>
							<groupindex>1</groupindex>
						</link>
						<logginginfo>
							<description></description>
							<scene></scene>
							<shottake></shottake>
							<lognote></lognote>
						</logginginfo>
						<labels>
							<label2>Caribbean</label2>
						</labels>
					</clipitem>
					<clipitem id="clipitem-3195" premiereChannelType="stereo">
						<masterclipid>masterclip-199</masterclipid>
						<name>Avmålt latter med applaus.wav</name>
						<enabled>TRUE</enabled>
						<duration>188</duration>
						<rate>
							<timebase>25</timebase>
							<ntsc>FALSE</ntsc>
						</rate>
						<start>32225</start>
						<end>32413</end>
						<in>0</in>
						<out>188</out>
						<pproTicksIn>0</pproTicksIn>
						<pproTicksOut>1910200320000</pproTicksOut>
						<file id="file-195">
							<name>Avmålt latter med applaus.wav</name>
							<pathurl>file://localhost/Volumes/Brakka/AdobeLager/QUIZ%20-%20brakka/RA%cc%8aSTOFF%20LYD/Publikumsreaksjoner/Fra%201994/Avma%cc%8alt%20latter%20med%20applaus.wav</pathurl>
							<rate>
								<timebase>30</timebase>
								<ntsc>TRUE</ntsc>
							</rate>
							<duration>225</duration>
							<timecode>
								<rate>
									<timebase>30</timebase>
									<ntsc>TRUE</ntsc>
								</rate>
								<string>12;58;54;03</string>
								<frame>1400621</frame>
								<displayformat>DF</displayformat>
								<reel>
									<name></name>
								</reel>
							</timecode>
							<media>
								<audio>
									<samplecharacteristics>
										<depth>16</depth>
										<samplerate>48000</samplerate>
									</samplecharacteristics>
									<channelcount>2</channelcount>
								</audio>
							</media>
						</file>
						<sourcetrack>
							<mediatype>audio</mediatype>
							<trackindex>1</trackindex>
						</sourcetrack>
							<filter>
								<effect>
									<name>Audio Levels</name>
									<effectid>audiolevels</effectid>
									<effectcategory>audiolevels</effectcategory>
									<effecttype>audiolevels</effecttype>
									<mediatype>audio</mediatype>
									<parameter authoringApp="PremierePro">
										<parameterid>level</parameterid>
										<name>Level</name>
										<valuemin>0</valuemin>
										<valuemax>3.98109</valuemax>
										<value>0.99763</value>
									</parameter>
								</effect>
							</filter>
						<link>
							<linkclipref>clipitem-3195</linkclipref>
							<mediatype>audio</mediatype>
							<trackindex>25</trackindex>
							<clipindex>20</clipindex>
							<groupindex>1</groupindex>
						</link>
						<link>
							<linkclipref>clipitem-3226</linkclipref>
							<mediatype>audio</mediatype>
							<trackindex>26</trackindex>
							<clipindex>20</clipindex>
							<groupindex>1</groupindex>
						</link>
						<logginginfo>
							<description></description>
							<scene></scene>
							<shottake></shottake>
							<lognote></lognote>
						</logginginfo>
						<labels>
							<label2>Caribbean</label2>
						</labels>
					</clipitem>
					<clipitem id="clipitem-3196" premiereChannelType="stereo">
						<masterclipid>masterclip-200</masterclipid>
						<name>2005-sportv1.WAV</name>
						<enabled>TRUE</enabled>
						<duration>3786</duration>
						<rate>
							<timebase>25</timebase>
							<ntsc>FALSE</ntsc>
						</rate>
						<start>36742</start>
						<end>36910</end>
						<in>11</in>
						<out>179</out>
						<pproTicksIn>111767040000</pproTicksIn>
						<pproTicksOut>1818754560000</pproTicksOut>
						<file id="file-196">
							<name>2005-sportv1.WAV</name>
							<pathurl>file://localhost/Volumes/Brakka/AdobeLager/QUIZ%20-%20brakka/Arkivstoff/2005/Voice/2005-sportv1.WAV</pathurl>
							<rate>
								<timebase>30</timebase>
								<ntsc>TRUE</ntsc>
							</rate>
							<duration>4538</duration>
							<timecode>
								<rate>
									<timebase>30</timebase>
									<ntsc>TRUE</ntsc>
								</rate>
								<string>00;00;00;00</string>
								<frame>0</frame>
								<displayformat>DF</displayformat>
								<reel>
									<name></name>
								</reel>
							</timecode>
							<media>
								<audio>
									<samplecharacteristics>
										<depth>16</depth>
										<samplerate>48000</samplerate>
									</samplecharacteristics>
									<channelcount>2</channelcount>
								</audio>
							</media>
						</file>
						<sourcetrack>
							<mediatype>audio</mediatype>
							<trackindex>1</trackindex>
						</sourcetrack>
							<filter>
								<effect>
									<name>Audio Levels</name>
									<effectid>audiolevels</effectid>
									<effectcategory>audiolevels</effectcategory>
									<effecttype>audiolevels</effecttype>
									<mediatype>audio</mediatype>
									<parameter authoringApp="PremierePro">
										<parameterid>level</parameterid>
										<name>Level</name>
										<valuemin>0</valuemin>
										<valuemax>3.98109</valuemax>
										<value>0.792446</value>
									</parameter>
								</effect>
							</filter>
						<link>
							<linkclipref>clipitem-3196</linkclipref>
							<mediatype>audio</mediatype>
							<trackindex>25</trackindex>
							<clipindex>21</clipindex>
							<groupindex>1</groupindex>
						</link>
						<link>
							<linkclipref>clipitem-3227</linkclipref>
							<mediatype>audio</mediatype>
							<trackindex>26</trackindex>
							<clipindex>21</clipindex>
							<groupindex>1</groupindex>
						</link>
						<logginginfo>
							<description></description>
							<scene></scene>
							<shottake></shottake>
							<lognote></lognote>
						</logginginfo>
						<labels>
							<label2>Caribbean</label2>
						</labels>
					</clipitem>
					<clipitem id="clipitem-3197" premiereChannelType="stereo">
						<masterclipid>masterclip-200</masterclipid>
						<name>2005-sportv1.WAV</name>
						<enabled>TRUE</enabled>
						<duration>3786</duration>
						<rate>
							<timebase>25</timebase>
							<ntsc>FALSE</ntsc>
						</rate>
						<start>37732</start>
						<end>37852</end>
						<in>811</in>
						<out>931</out>
						<pproTicksIn>8240279040000</pproTicksIn>
						<pproTicksOut>9459555840000</pproTicksOut>
						<file id="file-196"/>
						<sourcetrack>
							<mediatype>audio</mediatype>
							<trackindex>1</trackindex>
						</sourcetrack>
							<filter>
								<effect>
									<name>Audio Levels</name>
									<effectid>audiolevels</effectid>
									<effectcategory>audiolevels</effectcategory>
									<effecttype>audiolevels</effecttype>
									<mediatype>audio</mediatype>
									<parameter authoringApp="PremierePro">
										<parameterid>level</parameterid>
										<name>Level</name>
										<valuemin>0</valuemin>
										<valuemax>3.98109</valuemax>
										<value>0.792446</value>
									</parameter>
								</effect>
							</filter>
						<link>
							<linkclipref>clipitem-3197</linkclipref>
							<mediatype>audio</mediatype>
							<trackindex>25</trackindex>
							<clipindex>22</clipindex>
							<groupindex>1</groupindex>
						</link>
						<link>
							<linkclipref>clipitem-3228</linkclipref>
							<mediatype>audio</mediatype>
							<trackindex>26</trackindex>
							<clipindex>22</clipindex>
							<groupindex>1</groupindex>
						</link>
						<logginginfo>
							<description></description>
							<scene></scene>
							<shottake></shottake>
							<lognote></lognote>
						</logginginfo>
						<labels>
							<label2>Caribbean</label2>
						</labels>
					</clipitem>
					<clipitem id="clipitem-3198" premiereChannelType="stereo">
						<masterclipid>masterclip-201</masterclipid>
						<name>restvoice 1996.WAV</name>
						<enabled>TRUE</enabled>
						<duration>4134</duration>
						<rate>
							<timebase>25</timebase>
							<ntsc>FALSE</ntsc>
						</rate>
						<start>38018</start>
						<end>38212</end>
						<in>257</in>
						<out>451</out>
						<pproTicksIn>2611284480000</pproTicksIn>
						<pproTicksOut>4582448640000</pproTicksOut>
						<file id="file-197">
							<name>restvoice 1996.WAV</name>
							<pathurl>file://localhost/Volumes/Brakka/AdobeLager/QUIZ%20-%20brakka/Arkivstoff/1996/VoiceOver/restvoice%201996.WAV</pathurl>
							<rate>
								<timebase>30</timebase>
								<ntsc>TRUE</ntsc>
							</rate>
							<duration>4956</duration>
							<timecode>
								<rate>
									<timebase>30</timebase>
									<ntsc>TRUE</ntsc>
								</rate>
								<string>00;00;00;00</string>
								<frame>0</frame>
								<displayformat>DF</displayformat>
								<reel>
									<name></name>
								</reel>
							</timecode>
							<media>
								<audio>
									<samplecharacteristics>
										<depth>16</depth>
										<samplerate>48000</samplerate>
									</samplecharacteristics>
									<channelcount>2</channelcount>
								</audio>
							</media>
						</file>
						<sourcetrack>
							<mediatype>audio</mediatype>
							<trackindex>1</trackindex>
						</sourcetrack>
						<link>
							<linkclipref>clipitem-3198</linkclipref>
							<mediatype>audio</mediatype>
							<trackindex>25</trackindex>
							<clipindex>23</clipindex>
							<groupindex>1</groupindex>
						</link>
						<link>
							<linkclipref>clipitem-3229</linkclipref>
							<mediatype>audio</mediatype>
							<trackindex>26</trackindex>
							<clipindex>23</clipindex>
							<groupindex>1</groupindex>
						</link>
						<logginginfo>
							<description></description>
							<scene></scene>
							<shottake></shottake>
							<lognote></lognote>
						</logginginfo>
						<labels>
							<label2>Caribbean</label2>
						</labels>
					</clipitem>
					<clipitem id="clipitem-3199" premiereChannelType="stereo">
						<masterclipid>masterclip-200</masterclipid>
						<name>2005-sportv1.WAV</name>
						<enabled>TRUE</enabled>
						<duration>3786</duration>
						<rate>
							<timebase>25</timebase>
							<ntsc>FALSE</ntsc>
						</rate>
						<start>38404</start>
						<end>38485</end>
						<in>1152</in>
						<out>1233</out>
						<pproTicksIn>11705057280000</pproTicksIn>
						<pproTicksOut>12528069120000</pproTicksOut>
						<file id="file-196"/>
						<sourcetrack>
							<mediatype>audio</mediatype>
							<trackindex>1</trackindex>
						</sourcetrack>
							<filter>
								<effect>
									<name>Audio Levels</name>
									<effectid>audiolevels</effectid>
									<effectcategory>audiolevels</effectcategory>
									<effecttype>audiolevels</effecttype>
									<mediatype>audio</mediatype>
									<parameter authoringApp="PremierePro">
										<parameterid>level</parameterid>
										<name>Level</name>
										<valuemin>0</valuemin>
										<valuemax>3.98109</valuemax>
										<value>0.792446</value>
									</parameter>
								</effect>
							</filter>
						<link>
							<linkclipref>clipitem-3199</linkclipref>
							<mediatype>audio</mediatype>
							<trackindex>25</trackindex>
							<clipindex>24</clipindex>
							<groupindex>1</groupindex>
						</link>
						<link>
							<linkclipref>clipitem-3230</linkclipref>
							<mediatype>audio</mediatype>
							<trackindex>26</trackindex>
							<clipindex>24</clipindex>
							<groupindex>1</groupindex>
						</link>
						<logginginfo>
							<description></description>
							<scene></scene>
							<shottake></shottake>
							<lognote></lognote>
						</logginginfo>
						<labels>
							<label2>Caribbean</label2>
						</labels>
					</clipitem>
					<clipitem id="clipitem-3200" premiereChannelType="stereo">
						<masterclipid>masterclip-200</masterclipid>
						<name>2005-sportv1.WAV</name>
						<enabled>TRUE</enabled>
						<duration>3786</duration>
						<rate>
							<timebase>25</timebase>
							<ntsc>FALSE</ntsc>
						</rate>
						<start>38658</start>
						<end>38929</end>
						<in>1248</in>
						<out>1519</out>
						<pproTicksIn>12680478720000</pproTicksIn>
						<pproTicksOut>15434012160000</pproTicksOut>
						<file id="file-196"/>
						<sourcetrack>
							<mediatype>audio</mediatype>
							<trackindex>1</trackindex>
						</sourcetrack>
							<filter>
								<effect>
									<name>Audio Levels</name>
									<effectid>audiolevels</effectid>
									<effectcategory>audiolevels</effectcategory>
									<effecttype>audiolevels</effecttype>
									<mediatype>audio</mediatype>
									<parameter authoringApp="PremierePro">
										<parameterid>level</parameterid>
										<name>Level</name>
										<valuemin>0</valuemin>
										<valuemax>3.98109</valuemax>
										<value>0.792446</value>
									</parameter>
								</effect>
							</filter>
						<link>
							<linkclipref>clipitem-3200</linkclipref>
							<mediatype>audio</mediatype>
							<trackindex>25</trackindex>
							<clipindex>25</clipindex>
							<groupindex>1</groupindex>
						</link>
						<link>
							<linkclipref>clipitem-3231</linkclipref>
							<mediatype>audio</mediatype>
							<trackindex>26</trackindex>
							<clipindex>25</clipindex>
							<groupindex>1</groupindex>
						</link>
						<logginginfo>
							<description></description>
							<scene></scene>
							<shottake></shottake>
							<lognote></lognote>
						</logginginfo>
						<labels>
							<label2>Caribbean</label2>
						</labels>
					</clipitem>
					<clipitem id="clipitem-3201" premiereChannelType="stereo">
						<masterclipid>masterclip-200</masterclipid>
						<name>2005-sportv1.WAV</name>
						<enabled>TRUE</enabled>
						<duration>3786</duration>
						<rate>
							<timebase>25</timebase>
							<ntsc>FALSE</ntsc>
						</rate>
						<start>38978</start>
						<end>39072</end>
						<in>1984</in>
						<out>2078</out>
						<pproTicksIn>20158709760000</pproTicksIn>
						<pproTicksOut>21113809920000</pproTicksOut>
						<file id="file-196"/>
						<sourcetrack>
							<mediatype>audio</mediatype>
							<trackindex>1</trackindex>
						</sourcetrack>
							<filter>
								<effect>
									<name>Audio Levels</name>
									<effectid>audiolevels</effectid>
									<effectcategory>audiolevels</effectcategory>
									<effecttype>audiolevels</effecttype>
									<mediatype>audio</mediatype>
									<parameter authoringApp="PremierePro">
										<parameterid>level</parameterid>
										<name>Level</name>
										<valuemin>0</valuemin>
										<valuemax>3.98109</valuemax>
										<value>0.792446</value>
									</parameter>
								</effect>
							</filter>
						<link>
							<linkclipref>clipitem-3201</linkclipref>
							<mediatype>audio</mediatype>
							<trackindex>25</trackindex>
							<clipindex>26</clipindex>
							<groupindex>1</groupindex>
						</link>
						<link>
							<linkclipref>clipitem-3232</linkclipref>
							<mediatype>audio</mediatype>
							<trackindex>26</trackindex>
							<clipindex>26</clipindex>
							<groupindex>1</groupindex>
						</link>
						<logginginfo>
							<description></description>
							<scene></scene>
							<shottake></shottake>
							<lognote></lognote>
						</logginginfo>
						<labels>
							<label2>Caribbean</label2>
						</labels>
					</clipitem>
					<clipitem id="clipitem-3202" premiereChannelType="stereo">
						<masterclipid>masterclip-200</masterclipid>
						<name>2005-sportv1.WAV</name>
						<enabled>TRUE</enabled>
						<duration>3786</duration>
						<rate>
							<timebase>25</timebase>
							<ntsc>FALSE</ntsc>
						</rate>
						<start>39270</start>
						<end>39417</end>
						<in>2078</in>
						<out>2225</out>
						<pproTicksIn>21113809920000</pproTicksIn>
						<pproTicksOut>22607424000000</pproTicksOut>
						<file id="file-196"/>
						<sourcetrack>
							<mediatype>audio</mediatype>
							<trackindex>1</trackindex>
						</sourcetrack>
							<filter>
								<effect>
									<name>Audio Levels</name>
									<effectid>audiolevels</effectid>
									<effectcategory>audiolevels</effectcategory>
									<effecttype>audiolevels</effecttype>
									<mediatype>audio</mediatype>
									<parameter authoringApp="PremierePro">
										<parameterid>level</parameterid>
										<name>Level</name>
										<valuemin>0</valuemin>
										<valuemax>3.98109</valuemax>
										<value>0.792446</value>
									</parameter>
								</effect>
							</filter>
						<link>
							<linkclipref>clipitem-3202</linkclipref>
							<mediatype>audio</mediatype>
							<trackindex>25</trackindex>
							<clipindex>27</clipindex>
							<groupindex>1</groupindex>
						</link>
						<link>
							<linkclipref>clipitem-3233</linkclipref>
							<mediatype>audio</mediatype>
							<trackindex>26</trackindex>
							<clipindex>27</clipindex>
							<groupindex>1</groupindex>
						</link>
						<logginginfo>
							<description></description>
							<scene></scene>
							<shottake></shottake>
							<lognote></lognote>
						</logginginfo>
						<labels>
							<label2>Caribbean</label2>
						</labels>
					</clipitem>
					<clipitem id="clipitem-3203" premiereChannelType="stereo">
						<masterclipid>masterclip-200</masterclipid>
						<name>2005-sportv1.WAV</name>
						<enabled>TRUE</enabled>
						<duration>3786</duration>
						<rate>
							<timebase>25</timebase>
							<ntsc>FALSE</ntsc>
						</rate>
						<start>39631</start>
						<end>39810</end>
						<in>2243</in>
						<out>2422</out>
						<pproTicksIn>22790315520000</pproTicksIn>
						<pproTicksOut>24609070080000</pproTicksOut>
						<file id="file-196"/>
						<sourcetrack>
							<mediatype>audio</mediatype>
							<trackindex>1</trackindex>
						</sourcetrack>
							<filter>
								<effect>
									<name>Audio Levels</name>
									<effectid>audiolevels</effectid>
									<effectcategory>audiolevels</effectcategory>
									<effecttype>audiolevels</effecttype>
									<mediatype>audio</mediatype>
									<parameter authoringApp="PremierePro">
										<parameterid>level</parameterid>
										<name>Level</name>
										<valuemin>0</valuemin>
										<valuemax>3.98109</valuemax>
										<value>0.792446</value>
									</parameter>
								</effect>
							</filter>
						<link>
							<linkclipref>clipitem-3203</linkclipref>
							<mediatype>audio</mediatype>
							<trackindex>25</trackindex>
							<clipindex>28</clipindex>
							<groupindex>1</groupindex>
						</link>
						<link>
							<linkclipref>clipitem-3234</linkclipref>
							<mediatype>audio</mediatype>
							<trackindex>26</trackindex>
							<clipindex>28</clipindex>
							<groupindex>1</groupindex>
						</link>
						<logginginfo>
							<description></description>
							<scene></scene>
							<shottake></shottake>
							<lognote></lognote>
						</logginginfo>
						<labels>
							<label2>Caribbean</label2>
						</labels>
					</clipitem>
					<clipitem id="clipitem-3204" premiereChannelType="stereo">
						<masterclipid>masterclip-200</masterclipid>
						<name>2005-sportv1.WAV</name>
						<enabled>TRUE</enabled>
						<duration>3786</duration>
						<rate>
							<timebase>25</timebase>
							<ntsc>FALSE</ntsc>
						</rate>
						<start>39913</start>
						<end>40095</end>
						<in>2491</in>
						<out>2673</out>
						<pproTicksIn>25310154240000</pproTicksIn>
						<pproTicksOut>27159390720000</pproTicksOut>
						<file id="file-196"/>
						<sourcetrack>
							<mediatype>audio</mediatype>
							<trackindex>1</trackindex>
						</sourcetrack>
							<filter>
								<effect>
									<name>Audio Levels</name>
									<effectid>audiolevels</effectid>
									<effectcategory>audiolevels</effectcategory>
									<effecttype>audiolevels</effecttype>
									<mediatype>audio</mediatype>
									<parameter authoringApp="PremierePro">
										<parameterid>level</parameterid>
										<name>Level</name>
										<valuemin>0</valuemin>
										<valuemax>3.98109</valuemax>
										<value>0.889139</value>
									</parameter>
								</effect>
							</filter>
						<link>
							<linkclipref>clipitem-3204</linkclipref>
							<mediatype>audio</mediatype>
							<trackindex>25</trackindex>
							<clipindex>29</clipindex>
							<groupindex>1</groupindex>
						</link>
						<link>
							<linkclipref>clipitem-3235</linkclipref>
							<mediatype>audio</mediatype>
							<trackindex>26</trackindex>
							<clipindex>29</clipindex>
							<groupindex>1</groupindex>
						</link>
						<logginginfo>
							<description></description>
							<scene></scene>
							<shottake></shottake>
							<lognote></lognote>
						</logginginfo>
						<labels>
							<label2>Caribbean</label2>
						</labels>
					</clipitem>
					<clipitem id="clipitem-3205" premiereChannelType="stereo">
						<masterclipid>masterclip-200</masterclipid>
						<name>2005-sportv1.WAV</name>
						<enabled>TRUE</enabled>
						<duration>3786</duration>
						<rate>
							<timebase>25</timebase>
							<ntsc>FALSE</ntsc>
						</rate>
						<start>40223</start>
						<end>40423</end>
						<in>3046</in>
						<out>3246</out>
						<pproTicksIn>30949309440000</pproTicksIn>
						<pproTicksOut>32981437440000</pproTicksOut>
						<file id="file-196"/>
						<sourcetrack>
							<mediatype>audio</mediatype>
							<trackindex>1</trackindex>
						</sourcetrack>
							<filter>
								<effect>
									<name>Audio Levels</name>
									<effectid>audiolevels</effectid>
									<effectcategory>audiolevels</effectcategory>
									<effecttype>audiolevels</effecttype>
									<mediatype>audio</mediatype>
									<parameter authoringApp="PremierePro">
										<parameterid>level</parameterid>
										<name>Level</name>
										<valuemin>0</valuemin>
										<valuemax>3.98109</valuemax>
										<value>0.792446</value>
									</parameter>
								</effect>
							</filter>
						<link>
							<linkclipref>clipitem-3205</linkclipref>
							<mediatype>audio</mediatype>
							<trackindex>25</trackindex>
							<clipindex>30</clipindex>
							<groupindex>1</groupindex>
						</link>
						<link>
							<linkclipref>clipitem-3236</linkclipref>
							<mediatype>audio</mediatype>
							<trackindex>26</trackindex>
							<clipindex>30</clipindex>
							<groupindex>1</groupindex>
						</link>
						<logginginfo>
							<description></description>
							<scene></scene>
							<shottake></shottake>
							<lognote></lognote>
						</logginginfo>
						<labels>
							<label2>Caribbean</label2>
						</labels>
					</clipitem>
					<clipitem id="clipitem-3206" premiereChannelType="stereo">
						<masterclipid>masterclip-202</masterclipid>
						<name>Applaus noe hoi.wav</name>
						<enabled>TRUE</enabled>
						<duration>186</duration>
						<rate>
							<timebase>25</timebase>
							<ntsc>FALSE</ntsc>
						</rate>
						<start>49897</start>
						<end>49957</end>
						<in>0</in>
						<out>60</out>
						<pproTicksIn>0</pproTicksIn>
						<pproTicksOut>609638400000</pproTicksOut>
						<file id="file-198">
							<name>Applaus noe hoi.wav</name>
							<pathurl>file://localhost/Volumes/Brakka/AdobeLager/QUIZ%20-%20brakka/RA%cc%8aSTOFF%20LYD/Publikumsreaksjoner/Fra%201996/Applaus%20noe%20hoi.wav</pathurl>
							<rate>
								<timebase>30</timebase>
								<ntsc>TRUE</ntsc>
							</rate>
							<duration>223</duration>
							<timecode>
								<rate>
									<timebase>30</timebase>
									<ntsc>TRUE</ntsc>
								</rate>
								<string>13;11;43;16</string>
								<frame>1423682</frame>
								<displayformat>DF</displayformat>
								<reel>
									<name></name>
								</reel>
							</timecode>
							<media>
								<audio>
									<samplecharacteristics>
										<depth>16</depth>
										<samplerate>48000</samplerate>
									</samplecharacteristics>
									<channelcount>2</channelcount>
								</audio>
							</media>
						</file>
						<sourcetrack>
							<mediatype>audio</mediatype>
							<trackindex>1</trackindex>
						</sourcetrack>
						<link>
							<linkclipref>clipitem-3206</linkclipref>
							<mediatype>audio</mediatype>
							<trackindex>25</trackindex>
							<clipindex>31</clipindex>
							<groupindex>1</groupindex>
						</link>
						<link>
							<linkclipref>clipitem-3237</linkclipref>
							<mediatype>audio</mediatype>
							<trackindex>26</trackindex>
							<clipindex>31</clipindex>
							<groupindex>1</groupindex>
						</link>
						<logginginfo>
							<description></description>
							<scene></scene>
							<shottake></shottake>
							<lognote></lognote>
						</logginginfo>
						<labels>
							<label2>Caribbean</label2>
						</labels>
					</clipitem>
					<clipitem id="clipitem-3207" premiereChannelType="stereo">
						<masterclipid>masterclip-202</masterclipid>
						<name>Applaus noe hoi.wav</name>
						<enabled>TRUE</enabled>
						<duration>186</duration>
						<rate>
							<timebase>25</timebase>
							<ntsc>FALSE</ntsc>
						</rate>
						<start>49957</start>
						<end>50022</end>
						<in>121</in>
						<out>186</out>
						<pproTicksIn>1229437440000</pproTicksIn>
						<pproTicksOut>1889879040000</pproTicksOut>
						<file id="file-198"/>
						<sourcetrack>
							<mediatype>audio</mediatype>
							<trackindex>1</trackindex>
						</sourcetrack>
						<link>
							<linkclipref>clipitem-3207</linkclipref>
							<mediatype>audio</mediatype>
							<trackindex>25</trackindex>
							<clipindex>32</clipindex>
							<groupindex>1</groupindex>
						</link>
						<link>
							<linkclipref>clipitem-3238</linkclipref>
							<mediatype>audio</mediatype>
							<trackindex>26</trackindex>
							<clipindex>32</clipindex>
							<groupindex>1</groupindex>
						</link>
						<logginginfo>
							<description></description>
							<scene></scene>
							<shottake></shottake>
							<lognote></lognote>
						</logginginfo>
						<labels>
							<label2>Caribbean</label2>
						</labels>
					</clipitem>
					<enabled>TRUE</enabled>
					<locked>FALSE</locked>
					<outputchannelindex>1</outputchannelindex>
				</track>
				<track TL.SQTrackAudioKeyframeStyle="0" TL.SQTrackShy="0" TL.SQTrackExpandedHeight="25" TL.SQTrackExpanded="0" MZ.TrackTargeted="1" PannerCurrentValue="0.5" PannerIsInverted="true" PannerStartKeyframe="-91445760000000000,0.5,0,0,0,0,0,0" PannerName="Balance" currentExplodedTrackIndex="1" totalExplodedTrackCount="2" premiereTrackType="Stereo">
					<clipitem id="clipitem-3208" premiereChannelType="stereo">
						<masterclipid>masterclip-194</masterclipid>
						<name>sound and camera flashes from paparazzi.mp3</name>
						<enabled>TRUE</enabled>
						<duration>941</duration>
						<rate>
							<timebase>25</timebase>
							<ntsc>FALSE</ntsc>
						</rate>
						<start>41</start>
						<end>97</end>
						<in>444</in>
						<out>500</out>
						<pproTicksIn>4511324160000</pproTicksIn>
						<pproTicksOut>5080320000000</pproTicksOut>
						<file id="file-190"/>
						<sourcetrack>
							<mediatype>audio</mediatype>
							<trackindex>2</trackindex>
						</sourcetrack>
							<filter>
								<effect>
									<name>Audio Levels</name>
									<effectid>audiolevels</effectid>
									<effectcategory>audiolevels</effectcategory>
									<effecttype>audiolevels</effecttype>
									<mediatype>audio</mediatype>
									<parameter authoringApp="PremierePro">
										<parameterid>level</parameterid>
										<name>Level</name>
										<valuemin>0</valuemin>
										<valuemax>3.98109</valuemax>
										<value>0.199053</value>
									</parameter>
								</effect>
							</filter>
						<link>
							<linkclipref>clipitem-3177</linkclipref>
							<mediatype>audio</mediatype>
							<trackindex>25</trackindex>
							<clipindex>1</clipindex>
							<groupindex>1</groupindex>
						</link>
						<link>
							<linkclipref>clipitem-3208</linkclipref>
							<mediatype>audio</mediatype>
							<trackindex>26</trackindex>
							<clipindex>1</clipindex>
							<groupindex>1</groupindex>
						</link>
						<logginginfo>
							<description></description>
							<scene></scene>
							<shottake></shottake>
							<lognote></lognote>
						</logginginfo>
						<labels>
							<label2>Caribbean</label2>
						</labels>
					</clipitem>
					<clipitem id="clipitem-3209" premiereChannelType="stereo">
						<masterclipid>masterclip-143</masterclipid>
						<name>Whoosh%20By%2007.wav</name>
						<enabled>TRUE</enabled>
						<duration>42</duration>
						<rate>
							<timebase>25</timebase>
							<ntsc>FALSE</ntsc>
						</rate>
						<start>236</start>
						<end>278</end>
						<in>0</in>
						<out>42</out>
						<pproTicksIn>0</pproTicksIn>
						<pproTicksOut>426746880000</pproTicksOut>
						<file id="file-139"/>
						<sourcetrack>
							<mediatype>audio</mediatype>
							<trackindex>2</trackindex>
						</sourcetrack>
							<filter>
								<effect>
									<name>Audio Levels</name>
									<effectid>audiolevels</effectid>
									<effectcategory>audiolevels</effectcategory>
									<effecttype>audiolevels</effecttype>
									<mediatype>audio</mediatype>
									<parameter authoringApp="PremierePro">
										<parameterid>level</parameterid>
										<name>Level</name>
										<valuemin>0</valuemin>
										<valuemax>3.98109</valuemax>
										<value>0.111936</value>
									</parameter>
								</effect>
							</filter>
						<link>
							<linkclipref>clipitem-3178</linkclipref>
							<mediatype>audio</mediatype>
							<trackindex>25</trackindex>
							<clipindex>2</clipindex>
							<groupindex>1</groupindex>
						</link>
						<link>
							<linkclipref>clipitem-3209</linkclipref>
							<mediatype>audio</mediatype>
							<trackindex>26</trackindex>
							<clipindex>2</clipindex>
							<groupindex>1</groupindex>
						</link>
						<logginginfo>
							<description></description>
							<scene></scene>
							<shottake></shottake>
							<lognote></lognote>
						</logginginfo>
						<labels>
							<label2>Caribbean</label2>
						</labels>
					</clipitem>
					<clipitem id="clipitem-3210" premiereChannelType="stereo">
						<masterclipid>masterclip-165</masterclipid>
						<name>_Jeeee..._ applaus.wav</name>
						<enabled>TRUE</enabled>
						<duration>129</duration>
						<rate>
							<timebase>25</timebase>
							<ntsc>FALSE</ntsc>
						</rate>
						<start>332</start>
						<end>335</end>
						<in>0</in>
						<out>3</out>
						<pproTicksIn>0</pproTicksIn>
						<pproTicksOut>30481920000</pproTicksOut>
						<file id="file-161"/>
						<sourcetrack>
							<mediatype>audio</mediatype>
							<trackindex>2</trackindex>
						</sourcetrack>
						<link>
							<linkclipref>clipitem-3179</linkclipref>
							<mediatype>audio</mediatype>
							<trackindex>25</trackindex>
							<clipindex>3</clipindex>
							<groupindex>1</groupindex>
						</link>
						<link>
							<linkclipref>clipitem-3210</linkclipref>
							<mediatype>audio</mediatype>
							<trackindex>26</trackindex>
							<clipindex>3</clipindex>
							<groupindex>1</groupindex>
						</link>
						<logginginfo>
							<description></description>
							<scene></scene>
							<shottake></shottake>
							<lognote></lognote>
						</logginginfo>
						<labels>
							<label2>Caribbean</label2>
						</labels>
					</clipitem>
					<clipitem id="clipitem-3211" premiereChannelType="stereo">
						<masterclipid>masterclip-195</masterclipid>
						<name>Kort moderat applaus.wav</name>
						<enabled>TRUE</enabled>
						<duration>148</duration>
						<rate>
							<timebase>25</timebase>
							<ntsc>FALSE</ntsc>
						</rate>
						<start>335</start>
						<end>-1</end>
						<in>0</in>
						<out>96</out>
						<pproTicksIn>0</pproTicksIn>
						<pproTicksOut>975421440000</pproTicksOut>
						<file id="file-191"/>
						<sourcetrack>
							<mediatype>audio</mediatype>
							<trackindex>2</trackindex>
						</sourcetrack>
						<link>
							<linkclipref>clipitem-3180</linkclipref>
							<mediatype>audio</mediatype>
							<trackindex>25</trackindex>
							<clipindex>4</clipindex>
							<groupindex>1</groupindex>
						</link>
						<link>
							<linkclipref>clipitem-3211</linkclipref>
							<mediatype>audio</mediatype>
							<trackindex>26</trackindex>
							<clipindex>4</clipindex>
							<groupindex>1</groupindex>
						</link>
						<logginginfo>
							<description></description>
							<scene></scene>
							<shottake></shottake>
							<lognote></lognote>
						</logginginfo>
						<labels>
							<label2>Caribbean</label2>
						</labels>
					</clipitem>
					<transitionitem>
						<start>374</start>
						<end>431</end>
						<alignment>center</alignment>
						<cutPointTicks>284497920000</cutPointTicks>
						<rate>
							<timebase>25</timebase>
							<ntsc>FALSE</ntsc>
						</rate>
						<effect>
							<name>Cross Fade (+3dB)</name>
							<effectid>KGAudioTransCrossFade3dB</effectid>
							<effecttype>transition</effecttype>
							<mediatype>audio</mediatype>
							<wipecode>0</wipecode>
							<wipeaccuracy>100</wipeaccuracy>
							<startratio>0</startratio>
							<endratio>1</endratio>
							<reverse>FALSE</reverse>
						</effect>
					</transitionitem>
					<clipitem id="clipitem-3212" premiereChannelType="stereo">
						<masterclipid>masterclip-195</masterclipid>
						<name>Kort moderat applaus.wav</name>
						<enabled>TRUE</enabled>
						<duration>148</duration>
						<rate>
							<timebase>25</timebase>
							<ntsc>FALSE</ntsc>
						</rate>
						<start>-1</start>
						<end>513</end>
						<in>9</in>
						<out>148</out>
						<pproTicksIn>91445760000</pproTicksIn>
						<pproTicksOut>1503774720000</pproTicksOut>
						<file id="file-191"/>
						<sourcetrack>
							<mediatype>audio</mediatype>
							<trackindex>2</trackindex>
						</sourcetrack>
						<link>
							<linkclipref>clipitem-3181</linkclipref>
							<mediatype>audio</mediatype>
							<trackindex>25</trackindex>
							<clipindex>6</clipindex>
							<groupindex>1</groupindex>
						</link>
						<link>
							<linkclipref>clipitem-3212</linkclipref>
							<mediatype>audio</mediatype>
							<trackindex>26</trackindex>
							<clipindex>6</clipindex>
							<groupindex>1</groupindex>
						</link>
						<logginginfo>
							<description></description>
							<scene></scene>
							<shottake></shottake>
							<lognote></lognote>
						</logginginfo>
						<labels>
							<label2>Caribbean</label2>
						</labels>
					</clipitem>
					<clipitem id="clipitem-3213" premiereChannelType="stereo">
						<masterclipid>masterclip-196</masterclipid>
						<name>restvoice2005.WAV</name>
						<enabled>TRUE</enabled>
						<duration>3731</duration>
						<rate>
							<timebase>25</timebase>
							<ntsc>FALSE</ntsc>
						</rate>
						<start>946</start>
						<end>1142</end>
						<in>622</in>
						<out>818</out>
						<pproTicksIn>6319918080000</pproTicksIn>
						<pproTicksOut>8311403520000</pproTicksOut>
						<file id="file-192"/>
						<sourcetrack>
							<mediatype>audio</mediatype>
							<trackindex>2</trackindex>
						</sourcetrack>
						<link>
							<linkclipref>clipitem-3182</linkclipref>
							<mediatype>audio</mediatype>
							<trackindex>25</trackindex>
							<clipindex>7</clipindex>
							<groupindex>1</groupindex>
						</link>
						<link>
							<linkclipref>clipitem-3213</linkclipref>
							<mediatype>audio</mediatype>
							<trackindex>26</trackindex>
							<clipindex>7</clipindex>
							<groupindex>1</groupindex>
						</link>
						<logginginfo>
							<description></description>
							<scene></scene>
							<shottake></shottake>
							<lognote></lognote>
						</logginginfo>
					</clipitem>
					<clipitem id="clipitem-3214" premiereChannelType="stereo">
						<masterclipid>masterclip-197</masterclipid>
						<name>2005-kavalkade-v4.WAV</name>
						<enabled>TRUE</enabled>
						<duration>4221</duration>
						<rate>
							<timebase>25</timebase>
							<ntsc>FALSE</ntsc>
						</rate>
						<start>1249</start>
						<end>1379</end>
						<in>145</in>
						<out>275</out>
						<pproTicksIn>1473292800000</pproTicksIn>
						<pproTicksOut>2794176000000</pproTicksOut>
						<file id="file-193"/>
						<sourcetrack>
							<mediatype>audio</mediatype>
							<trackindex>2</trackindex>
						</sourcetrack>
							<filter>
								<effect>
									<name>Audio Levels</name>
									<effectid>audiolevels</effectid>
									<effectcategory>audiolevels</effectcategory>
									<effecttype>audiolevels</effecttype>
									<mediatype>audio</mediatype>
									<parameter authoringApp="PremierePro">
										<parameterid>level</parameterid>
										<name>Level</name>
										<valuemin>0</valuemin>
										<valuemax>3.98109</valuemax>
										<value>0.792446</value>
									</parameter>
								</effect>
							</filter>
						<link>
							<linkclipref>clipitem-3183</linkclipref>
							<mediatype>audio</mediatype>
							<trackindex>25</trackindex>
							<clipindex>8</clipindex>
							<groupindex>1</groupindex>
						</link>
						<link>
							<linkclipref>clipitem-3214</linkclipref>
							<mediatype>audio</mediatype>
							<trackindex>26</trackindex>
							<clipindex>8</clipindex>
							<groupindex>1</groupindex>
						</link>
						<logginginfo>
							<description></description>
							<scene></scene>
							<shottake></shottake>
							<lognote></lognote>
						</logginginfo>
						<labels>
							<label2>Caribbean</label2>
						</labels>
					</clipitem>
					<clipitem id="clipitem-3215" premiereChannelType="stereo">
						<masterclipid>masterclip-198</masterclipid>
						<name>2005-kavalkade-vb-v2.WAV</name>
						<enabled>TRUE</enabled>
						<duration>5988</duration>
						<rate>
							<timebase>25</timebase>
							<ntsc>FALSE</ntsc>
						</rate>
						<start>1542</start>
						<end>2163</end>
						<in>366</in>
						<out>987</out>
						<pproTicksIn>3718794240000</pproTicksIn>
						<pproTicksOut>10028551680000</pproTicksOut>
						<file id="file-194"/>
						<sourcetrack>
							<mediatype>audio</mediatype>
							<trackindex>2</trackindex>
						</sourcetrack>
							<filter>
								<effect>
									<name>Audio Levels</name>
									<effectid>audiolevels</effectid>
									<effectcategory>audiolevels</effectcategory>
									<effecttype>audiolevels</effecttype>
									<mediatype>audio</mediatype>
									<parameter authoringApp="PremierePro">
										<parameterid>level</parameterid>
										<name>Level</name>
										<valuemin>0</valuemin>
										<valuemax>3.98109</valuemax>
										<value>0.889139</value>
									</parameter>
								</effect>
							</filter>
						<link>
							<linkclipref>clipitem-3184</linkclipref>
							<mediatype>audio</mediatype>
							<trackindex>25</trackindex>
							<clipindex>9</clipindex>
							<groupindex>1</groupindex>
						</link>
						<link>
							<linkclipref>clipitem-3215</linkclipref>
							<mediatype>audio</mediatype>
							<trackindex>26</trackindex>
							<clipindex>9</clipindex>
							<groupindex>1</groupindex>
						</link>
						<logginginfo>
							<description></description>
							<scene></scene>
							<shottake></shottake>
							<lognote></lognote>
						</logginginfo>
						<labels>
							<label2>Caribbean</label2>
						</labels>
					</clipitem>
					<clipitem id="clipitem-3216" premiereChannelType="stereo">
						<masterclipid>masterclip-197</masterclipid>
						<name>2005-kavalkade-v4.WAV</name>
						<enabled>TRUE</enabled>
						<duration>4221</duration>
						<rate>
							<timebase>25</timebase>
							<ntsc>FALSE</ntsc>
						</rate>
						<start>2223</start>
						<end>2503</end>
						<in>1236</in>
						<out>1516</out>
						<pproTicksIn>12558551040000</pproTicksIn>
						<pproTicksOut>15403530240000</pproTicksOut>
						<file id="file-193"/>
						<sourcetrack>
							<mediatype>audio</mediatype>
							<trackindex>2</trackindex>
						</sourcetrack>
							<filter>
								<effect>
									<name>Audio Levels</name>
									<effectid>audiolevels</effectid>
									<effectcategory>audiolevels</effectcategory>
									<effecttype>audiolevels</effecttype>
									<mediatype>audio</mediatype>
									<parameter authoringApp="PremierePro">
										<parameterid>level</parameterid>
										<name>Level</name>
										<valuemin>0</valuemin>
										<valuemax>3.98109</valuemax>
										<value>0.792446</value>
									</parameter>
								</effect>
							</filter>
						<link>
							<linkclipref>clipitem-3185</linkclipref>
							<mediatype>audio</mediatype>
							<trackindex>25</trackindex>
							<clipindex>10</clipindex>
							<groupindex>1</groupindex>
						</link>
						<link>
							<linkclipref>clipitem-3216</linkclipref>
							<mediatype>audio</mediatype>
							<trackindex>26</trackindex>
							<clipindex>10</clipindex>
							<groupindex>1</groupindex>
						</link>
						<logginginfo>
							<description></description>
							<scene></scene>
							<shottake></shottake>
							<lognote></lognote>
						</logginginfo>
						<labels>
							<label2>Caribbean</label2>
						</labels>
					</clipitem>
					<clipitem id="clipitem-3217" premiereChannelType="stereo">
						<masterclipid>masterclip-198</masterclipid>
						<name>2005-kavalkade-vb-v2.WAV</name>
						<enabled>TRUE</enabled>
						<duration>5988</duration>
						<rate>
							<timebase>25</timebase>
							<ntsc>FALSE</ntsc>
						</rate>
						<start>2633</start>
						<end>2830</end>
						<in>1306</in>
						<out>1503</out>
						<pproTicksIn>13269795840000</pproTicksIn>
						<pproTicksOut>15271441920000</pproTicksOut>
						<file id="file-194"/>
						<sourcetrack>
							<mediatype>audio</mediatype>
							<trackindex>2</trackindex>
						</sourcetrack>
							<filter>
								<effect>
									<name>Audio Levels</name>
									<effectid>audiolevels</effectid>
									<effectcategory>audiolevels</effectcategory>
									<effecttype>audiolevels</effecttype>
									<mediatype>audio</mediatype>
									<parameter authoringApp="PremierePro">
										<parameterid>level</parameterid>
										<name>Level</name>
										<valuemin>0</valuemin>
										<valuemax>3.98109</valuemax>
										<value>0.792446</value>
									</parameter>
								</effect>
							</filter>
						<link>
							<linkclipref>clipitem-3186</linkclipref>
							<mediatype>audio</mediatype>
							<trackindex>25</trackindex>
							<clipindex>11</clipindex>
							<groupindex>1</groupindex>
						</link>
						<link>
							<linkclipref>clipitem-3217</linkclipref>
							<mediatype>audio</mediatype>
							<trackindex>26</trackindex>
							<clipindex>11</clipindex>
							<groupindex>1</groupindex>
						</link>
						<logginginfo>
							<description></description>
							<scene></scene>
							<shottake></shottake>
							<lognote></lognote>
						</logginginfo>
						<labels>
							<label2>Caribbean</label2>
						</labels>
					</clipitem>
					<clipitem id="clipitem-3218" premiereChannelType="stereo">
						<masterclipid>masterclip-197</masterclipid>
						<name>2005-kavalkade-v4.WAV</name>
						<enabled>TRUE</enabled>
						<duration>4221</duration>
						<rate>
							<timebase>25</timebase>
							<ntsc>FALSE</ntsc>
						</rate>
						<start>2891</start>
						<end>3036</end>
						<in>1704</in>
						<out>1849</out>
						<pproTicksIn>17313730560000</pproTicksIn>
						<pproTicksOut>18787023360000</pproTicksOut>
						<file id="file-193"/>
						<sourcetrack>
							<mediatype>audio</mediatype>
							<trackindex>2</trackindex>
						</sourcetrack>
							<filter>
								<effect>
									<name>Audio Levels</name>
									<effectid>audiolevels</effectid>
									<effectcategory>audiolevels</effectcategory>
									<effecttype>audiolevels</effecttype>
									<mediatype>audio</mediatype>
									<parameter authoringApp="PremierePro">
										<parameterid>level</parameterid>
										<name>Level</name>
										<valuemin>0</valuemin>
										<valuemax>3.98109</valuemax>
										<value>0.792446</value>
									</parameter>
								</effect>
							</filter>
						<link>
							<linkclipref>clipitem-3187</linkclipref>
							<mediatype>audio</mediatype>
							<trackindex>25</trackindex>
							<clipindex>12</clipindex>
							<groupindex>1</groupindex>
						</link>
						<link>
							<linkclipref>clipitem-3218</linkclipref>
							<mediatype>audio</mediatype>
							<trackindex>26</trackindex>
							<clipindex>12</clipindex>
							<groupindex>1</groupindex>
						</link>
						<logginginfo>
							<description></description>
							<scene></scene>
							<shottake></shottake>
							<lognote></lognote>
						</logginginfo>
						<labels>
							<label2>Caribbean</label2>
						</labels>
					</clipitem>
					<clipitem id="clipitem-3219" premiereChannelType="stereo">
						<masterclipid>masterclip-197</masterclipid>
						<name>2005-kavalkade-v4.WAV</name>
						<enabled>TRUE</enabled>
						<duration>4221</duration>
						<rate>
							<timebase>25</timebase>
							<ntsc>FALSE</ntsc>
						</rate>
						<start>3079</start>
						<end>3331</end>
						<in>2066</in>
						<out>2318</out>
						<pproTicksIn>20991882240000</pproTicksIn>
						<pproTicksOut>23552363520000</pproTicksOut>
						<file id="file-193"/>
						<sourcetrack>
							<mediatype>audio</mediatype>
							<trackindex>2</trackindex>
						</sourcetrack>
							<filter>
								<effect>
									<name>Audio Levels</name>
									<effectid>audiolevels</effectid>
									<effectcategory>audiolevels</effectcategory>
									<effecttype>audiolevels</effecttype>
									<mediatype>audio</mediatype>
									<parameter authoringApp="PremierePro">
										<parameterid>level</parameterid>
										<name>Level</name>
										<valuemin>0</valuemin>
										<valuemax>3.98109</valuemax>
										<value>0.792446</value>
									</parameter>
								</effect>
							</filter>
						<link>
							<linkclipref>clipitem-3188</linkclipref>
							<mediatype>audio</mediatype>
							<trackindex>25</trackindex>
							<clipindex>13</clipindex>
							<groupindex>1</groupindex>
						</link>
						<link>
							<linkclipref>clipitem-3219</linkclipref>
							<mediatype>audio</mediatype>
							<trackindex>26</trackindex>
							<clipindex>13</clipindex>
							<groupindex>1</groupindex>
						</link>
						<logginginfo>
							<description></description>
							<scene></scene>
							<shottake></shottake>
							<lognote></lognote>
						</logginginfo>
						<labels>
							<label2>Caribbean</label2>
						</labels>
					</clipitem>
					<clipitem id="clipitem-3220" premiereChannelType="stereo">
						<masterclipid>masterclip-197</masterclipid>
						<name>2005-kavalkade-v4.WAV</name>
						<enabled>TRUE</enabled>
						<duration>4221</duration>
						<rate>
							<timebase>25</timebase>
							<ntsc>FALSE</ntsc>
						</rate>
						<start>3360</start>
						<end>3524</end>
						<in>2332</in>
						<out>2496</out>
						<pproTicksIn>23694612480000</pproTicksIn>
						<pproTicksOut>25360957440000</pproTicksOut>
						<file id="file-193"/>
						<sourcetrack>
							<mediatype>audio</mediatype>
							<trackindex>2</trackindex>
						</sourcetrack>
							<filter>
								<effect>
									<name>Audio Levels</name>
									<effectid>audiolevels</effectid>
									<effectcategory>audiolevels</effectcategory>
									<effecttype>audiolevels</effecttype>
									<mediatype>audio</mediatype>
									<parameter authoringApp="PremierePro">
										<parameterid>level</parameterid>
										<name>Level</name>
										<valuemin>0</valuemin>
										<valuemax>3.98109</valuemax>
										<value>0.792446</value>
									</parameter>
								</effect>
							</filter>
						<link>
							<linkclipref>clipitem-3189</linkclipref>
							<mediatype>audio</mediatype>
							<trackindex>25</trackindex>
							<clipindex>14</clipindex>
							<groupindex>1</groupindex>
						</link>
						<link>
							<linkclipref>clipitem-3220</linkclipref>
							<mediatype>audio</mediatype>
							<trackindex>26</trackindex>
							<clipindex>14</clipindex>
							<groupindex>1</groupindex>
						</link>
						<logginginfo>
							<description></description>
							<scene></scene>
							<shottake></shottake>
							<lognote></lognote>
						</logginginfo>
						<labels>
							<label2>Caribbean</label2>
						</labels>
					</clipitem>
					<clipitem id="clipitem-3221" premiereChannelType="stereo">
						<masterclipid>masterclip-197</masterclipid>
						<name>2005-kavalkade-v4.WAV</name>
						<enabled>TRUE</enabled>
						<duration>4221</duration>
						<rate>
							<timebase>25</timebase>
							<ntsc>FALSE</ntsc>
						</rate>
						<start>3590</start>
						<end>3713</end>
						<in>2675</in>
						<out>2798</out>
						<pproTicksIn>27179712000000</pproTicksIn>
						<pproTicksOut>28429470720000</pproTicksOut>
						<file id="file-193"/>
						<sourcetrack>
							<mediatype>audio</mediatype>
							<trackindex>2</trackindex>
						</sourcetrack>
							<filter>
								<effect>
									<name>Audio Levels</name>
									<effectid>audiolevels</effectid>
									<effectcategory>audiolevels</effectcategory>
									<effecttype>audiolevels</effecttype>
									<mediatype>audio</mediatype>
									<parameter authoringApp="PremierePro">
										<parameterid>level</parameterid>
										<name>Level</name>
										<valuemin>0</valuemin>
										<valuemax>3.98109</valuemax>
										<value>0.792446</value>
									</parameter>
								</effect>
							</filter>
						<link>
							<linkclipref>clipitem-3190</linkclipref>
							<mediatype>audio</mediatype>
							<trackindex>25</trackindex>
							<clipindex>15</clipindex>
							<groupindex>1</groupindex>
						</link>
						<link>
							<linkclipref>clipitem-3221</linkclipref>
							<mediatype>audio</mediatype>
							<trackindex>26</trackindex>
							<clipindex>15</clipindex>
							<groupindex>1</groupindex>
						</link>
						<logginginfo>
							<description></description>
							<scene></scene>
							<shottake></shottake>
							<lognote></lognote>
						</logginginfo>
						<labels>
							<label2>Caribbean</label2>
						</labels>
					</clipitem>
					<clipitem id="clipitem-3222" premiereChannelType="stereo">
						<masterclipid>masterclip-198</masterclipid>
						<name>2005-kavalkade-vb-v2.WAV</name>
						<enabled>TRUE</enabled>
						<duration>5988</duration>
						<rate>
							<timebase>25</timebase>
							<ntsc>FALSE</ntsc>
						</rate>
						<start>3713</start>
						<end>4111</end>
						<in>2685</in>
						<out>3083</out>
						<pproTicksIn>27281318400000</pproTicksIn>
						<pproTicksOut>31325253120000</pproTicksOut>
						<file id="file-194"/>
						<sourcetrack>
							<mediatype>audio</mediatype>
							<trackindex>2</trackindex>
						</sourcetrack>
							<filter>
								<effect>
									<name>Audio Levels</name>
									<effectid>audiolevels</effectid>
									<effectcategory>audiolevels</effectcategory>
									<effecttype>audiolevels</effecttype>
									<mediatype>audio</mediatype>
									<parameter authoringApp="PremierePro">
										<parameterid>level</parameterid>
										<name>Level</name>
										<valuemin>0</valuemin>
										<valuemax>3.98109</valuemax>
										<value>0.889139</value>
									</parameter>
								</effect>
							</filter>
						<link>
							<linkclipref>clipitem-3191</linkclipref>
							<mediatype>audio</mediatype>
							<trackindex>25</trackindex>
							<clipindex>16</clipindex>
							<groupindex>1</groupindex>
						</link>
						<link>
							<linkclipref>clipitem-3222</linkclipref>
							<mediatype>audio</mediatype>
							<trackindex>26</trackindex>
							<clipindex>16</clipindex>
							<groupindex>1</groupindex>
						</link>
						<logginginfo>
							<description></description>
							<scene></scene>
							<shottake></shottake>
							<lognote></lognote>
						</logginginfo>
						<labels>
							<label2>Caribbean</label2>
						</labels>
					</clipitem>
					<clipitem id="clipitem-3223" premiereChannelType="stereo">
						<masterclipid>masterclip-196</masterclipid>
						<name>restvoice2005.WAV</name>
						<enabled>TRUE</enabled>
						<duration>3731</duration>
						<rate>
							<timebase>25</timebase>
							<ntsc>FALSE</ntsc>
						</rate>
						<start>4126</start>
						<end>4403</end>
						<in>1117</in>
						<out>1394</out>
						<pproTicksIn>11349434880000</pproTicksIn>
						<pproTicksOut>14163932160000</pproTicksOut>
						<file id="file-192"/>
						<sourcetrack>
							<mediatype>audio</mediatype>
							<trackindex>2</trackindex>
						</sourcetrack>
						<link>
							<linkclipref>clipitem-3192</linkclipref>
							<mediatype>audio</mediatype>
							<trackindex>25</trackindex>
							<clipindex>17</clipindex>
							<groupindex>1</groupindex>
						</link>
						<link>
							<linkclipref>clipitem-3223</linkclipref>
							<mediatype>audio</mediatype>
							<trackindex>26</trackindex>
							<clipindex>17</clipindex>
							<groupindex>1</groupindex>
						</link>
						<logginginfo>
							<description></description>
							<scene></scene>
							<shottake></shottake>
							<lognote></lognote>
						</logginginfo>
					</clipitem>
					<clipitem id="clipitem-3224" premiereChannelType="stereo">
						<masterclipid>masterclip-196</masterclipid>
						<name>restvoice2005.WAV</name>
						<enabled>TRUE</enabled>
						<duration>3731</duration>
						<rate>
							<timebase>25</timebase>
							<ntsc>FALSE</ntsc>
						</rate>
						<start>4576</start>
						<end>4780</end>
						<in>3507</in>
						<out>3711</out>
						<pproTicksIn>35633364480000</pproTicksIn>
						<pproTicksOut>37706135040000</pproTicksOut>
						<file id="file-192"/>
						<sourcetrack>
							<mediatype>audio</mediatype>
							<trackindex>2</trackindex>
						</sourcetrack>
						<link>
							<linkclipref>clipitem-3193</linkclipref>
							<mediatype>audio</mediatype>
							<trackindex>25</trackindex>
							<clipindex>18</clipindex>
							<groupindex>1</groupindex>
						</link>
						<link>
							<linkclipref>clipitem-3224</linkclipref>
							<mediatype>audio</mediatype>
							<trackindex>26</trackindex>
							<clipindex>18</clipindex>
							<groupindex>1</groupindex>
						</link>
						<logginginfo>
							<description></description>
							<scene></scene>
							<shottake></shottake>
							<lognote></lognote>
						</logginginfo>
					</clipitem>
					<clipitem id="clipitem-3225" premiereChannelType="stereo">
						<masterclipid>masterclip-116</masterclipid>
						<name>Latterkule kort.wav</name>
						<enabled>TRUE</enabled>
						<duration>205</duration>
						<rate>
							<timebase>25</timebase>
							<ntsc>FALSE</ntsc>
						</rate>
						<start>17885</start>
						<end>18090</end>
						<in>0</in>
						<out>205</out>
						<pproTicksIn>0</pproTicksIn>
						<pproTicksOut>2082931200000</pproTicksOut>
						<file id="file-112"/>
						<sourcetrack>
							<mediatype>audio</mediatype>
							<trackindex>2</trackindex>
						</sourcetrack>
						<link>
							<linkclipref>clipitem-3194</linkclipref>
							<mediatype>audio</mediatype>
							<trackindex>25</trackindex>
							<clipindex>19</clipindex>
							<groupindex>1</groupindex>
						</link>
						<link>
							<linkclipref>clipitem-3225</linkclipref>
							<mediatype>audio</mediatype>
							<trackindex>26</trackindex>
							<clipindex>19</clipindex>
							<groupindex>1</groupindex>
						</link>
						<logginginfo>
							<description></description>
							<scene></scene>
							<shottake></shottake>
							<lognote></lognote>
						</logginginfo>
						<labels>
							<label2>Caribbean</label2>
						</labels>
					</clipitem>
					<clipitem id="clipitem-3226" premiereChannelType="stereo">
						<masterclipid>masterclip-199</masterclipid>
						<name>Avmålt latter med applaus.wav</name>
						<enabled>TRUE</enabled>
						<duration>188</duration>
						<rate>
							<timebase>25</timebase>
							<ntsc>FALSE</ntsc>
						</rate>
						<start>32225</start>
						<end>32413</end>
						<in>0</in>
						<out>188</out>
						<pproTicksIn>0</pproTicksIn>
						<pproTicksOut>1910200320000</pproTicksOut>
						<file id="file-195"/>
						<sourcetrack>
							<mediatype>audio</mediatype>
							<trackindex>2</trackindex>
						</sourcetrack>
							<filter>
								<effect>
									<name>Audio Levels</name>
									<effectid>audiolevels</effectid>
									<effectcategory>audiolevels</effectcategory>
									<effecttype>audiolevels</effecttype>
									<mediatype>audio</mediatype>
									<parameter authoringApp="PremierePro">
										<parameterid>level</parameterid>
										<name>Level</name>
										<valuemin>0</valuemin>
										<valuemax>3.98109</valuemax>
										<value>0.99763</value>
									</parameter>
								</effect>
							</filter>
						<link>
							<linkclipref>clipitem-3195</linkclipref>
							<mediatype>audio</mediatype>
							<trackindex>25</trackindex>
							<clipindex>20</clipindex>
							<groupindex>1</groupindex>
						</link>
						<link>
							<linkclipref>clipitem-3226</linkclipref>
							<mediatype>audio</mediatype>
							<trackindex>26</trackindex>
							<clipindex>20</clipindex>
							<groupindex>1</groupindex>
						</link>
						<logginginfo>
							<description></description>
							<scene></scene>
							<shottake></shottake>
							<lognote></lognote>
						</logginginfo>
						<labels>
							<label2>Caribbean</label2>
						</labels>
					</clipitem>
					<clipitem id="clipitem-3227" premiereChannelType="stereo">
						<masterclipid>masterclip-200</masterclipid>
						<name>2005-sportv1.WAV</name>
						<enabled>TRUE</enabled>
						<duration>3786</duration>
						<rate>
							<timebase>25</timebase>
							<ntsc>FALSE</ntsc>
						</rate>
						<start>36742</start>
						<end>36910</end>
						<in>11</in>
						<out>179</out>
						<pproTicksIn>111767040000</pproTicksIn>
						<pproTicksOut>1818754560000</pproTicksOut>
						<file id="file-196"/>
						<sourcetrack>
							<mediatype>audio</mediatype>
							<trackindex>2</trackindex>
						</sourcetrack>
							<filter>
								<effect>
									<name>Audio Levels</name>
									<effectid>audiolevels</effectid>
									<effectcategory>audiolevels</effectcategory>
									<effecttype>audiolevels</effecttype>
									<mediatype>audio</mediatype>
									<parameter authoringApp="PremierePro">
										<parameterid>level</parameterid>
										<name>Level</name>
										<valuemin>0</valuemin>
										<valuemax>3.98109</valuemax>
										<value>0.792446</value>
									</parameter>
								</effect>
							</filter>
						<link>
							<linkclipref>clipitem-3196</linkclipref>
							<mediatype>audio</mediatype>
							<trackindex>25</trackindex>
							<clipindex>21</clipindex>
							<groupindex>1</groupindex>
						</link>
						<link>
							<linkclipref>clipitem-3227</linkclipref>
							<mediatype>audio</mediatype>
							<trackindex>26</trackindex>
							<clipindex>21</clipindex>
							<groupindex>1</groupindex>
						</link>
						<logginginfo>
							<description></description>
							<scene></scene>
							<shottake></shottake>
							<lognote></lognote>
						</logginginfo>
						<labels>
							<label2>Caribbean</label2>
						</labels>
					</clipitem>
					<clipitem id="clipitem-3228" premiereChannelType="stereo">
						<masterclipid>masterclip-200</masterclipid>
						<name>2005-sportv1.WAV</name>
						<enabled>TRUE</enabled>
						<duration>3786</duration>
						<rate>
							<timebase>25</timebase>
							<ntsc>FALSE</ntsc>
						</rate>
						<start>37732</start>
						<end>37852</end>
						<in>811</in>
						<out>931</out>
						<pproTicksIn>8240279040000</pproTicksIn>
						<pproTicksOut>9459555840000</pproTicksOut>
						<file id="file-196"/>
						<sourcetrack>
							<mediatype>audio</mediatype>
							<trackindex>2</trackindex>
						</sourcetrack>
							<filter>
								<effect>
									<name>Audio Levels</name>
									<effectid>audiolevels</effectid>
									<effectcategory>audiolevels</effectcategory>
									<effecttype>audiolevels</effecttype>
									<mediatype>audio</mediatype>
									<parameter authoringApp="PremierePro">
										<parameterid>level</parameterid>
										<name>Level</name>
										<valuemin>0</valuemin>
										<valuemax>3.98109</valuemax>
										<value>0.792446</value>
									</parameter>
								</effect>
							</filter>
						<link>
							<linkclipref>clipitem-3197</linkclipref>
							<mediatype>audio</mediatype>
							<trackindex>25</trackindex>
							<clipindex>22</clipindex>
							<groupindex>1</groupindex>
						</link>
						<link>
							<linkclipref>clipitem-3228</linkclipref>
							<mediatype>audio</mediatype>
							<trackindex>26</trackindex>
							<clipindex>22</clipindex>
							<groupindex>1</groupindex>
						</link>
						<logginginfo>
							<description></description>
							<scene></scene>
							<shottake></shottake>
							<lognote></lognote>
						</logginginfo>
						<labels>
							<label2>Caribbean</label2>
						</labels>
					</clipitem>
					<clipitem id="clipitem-3229" premiereChannelType="stereo">
						<masterclipid>masterclip-201</masterclipid>
						<name>restvoice 1996.WAV</name>
						<enabled>TRUE</enabled>
						<duration>4134</duration>
						<rate>
							<timebase>25</timebase>
							<ntsc>FALSE</ntsc>
						</rate>
						<start>38018</start>
						<end>38212</end>
						<in>257</in>
						<out>451</out>
						<pproTicksIn>2611284480000</pproTicksIn>
						<pproTicksOut>4582448640000</pproTicksOut>
						<file id="file-197"/>
						<sourcetrack>
							<mediatype>audio</mediatype>
							<trackindex>2</trackindex>
						</sourcetrack>
						<link>
							<linkclipref>clipitem-3198</linkclipref>
							<mediatype>audio</mediatype>
							<trackindex>25</trackindex>
							<clipindex>23</clipindex>
							<groupindex>1</groupindex>
						</link>
						<link>
							<linkclipref>clipitem-3229</linkclipref>
							<mediatype>audio</mediatype>
							<trackindex>26</trackindex>
							<clipindex>23</clipindex>
							<groupindex>1</groupindex>
						</link>
						<logginginfo>
							<description></description>
							<scene></scene>
							<shottake></shottake>
							<lognote></lognote>
						</logginginfo>
						<labels>
							<label2>Caribbean</label2>
						</labels>
					</clipitem>
					<clipitem id="clipitem-3230" premiereChannelType="stereo">
						<masterclipid>masterclip-200</masterclipid>
						<name>2005-sportv1.WAV</name>
						<enabled>TRUE</enabled>
						<duration>3786</duration>
						<rate>
							<timebase>25</timebase>
							<ntsc>FALSE</ntsc>
						</rate>
						<start>38404</start>
						<end>38485</end>
						<in>1152</in>
						<out>1233</out>
						<pproTicksIn>11705057280000</pproTicksIn>
						<pproTicksOut>12528069120000</pproTicksOut>
						<file id="file-196"/>
						<sourcetrack>
							<mediatype>audio</mediatype>
							<trackindex>2</trackindex>
						</sourcetrack>
							<filter>
								<effect>
									<name>Audio Levels</name>
									<effectid>audiolevels</effectid>
									<effectcategory>audiolevels</effectcategory>
									<effecttype>audiolevels</effecttype>
									<mediatype>audio</mediatype>
									<parameter authoringApp="PremierePro">
										<parameterid>level</parameterid>
										<name>Level</name>
										<valuemin>0</valuemin>
										<valuemax>3.98109</valuemax>
										<value>0.792446</value>
									</parameter>
								</effect>
							</filter>
						<link>
							<linkclipref>clipitem-3199</linkclipref>
							<mediatype>audio</mediatype>
							<trackindex>25</trackindex>
							<clipindex>24</clipindex>
							<groupindex>1</groupindex>
						</link>
						<link>
							<linkclipref>clipitem-3230</linkclipref>
							<mediatype>audio</mediatype>
							<trackindex>26</trackindex>
							<clipindex>24</clipindex>
							<groupindex>1</groupindex>
						</link>
						<logginginfo>
							<description></description>
							<scene></scene>
							<shottake></shottake>
							<lognote></lognote>
						</logginginfo>
						<labels>
							<label2>Caribbean</label2>
						</labels>
					</clipitem>
					<clipitem id="clipitem-3231" premiereChannelType="stereo">
						<masterclipid>masterclip-200</masterclipid>
						<name>2005-sportv1.WAV</name>
						<enabled>TRUE</enabled>
						<duration>3786</duration>
						<rate>
							<timebase>25</timebase>
							<ntsc>FALSE</ntsc>
						</rate>
						<start>38658</start>
						<end>38929</end>
						<in>1248</in>
						<out>1519</out>
						<pproTicksIn>12680478720000</pproTicksIn>
						<pproTicksOut>15434012160000</pproTicksOut>
						<file id="file-196"/>
						<sourcetrack>
							<mediatype>audio</mediatype>
							<trackindex>2</trackindex>
						</sourcetrack>
							<filter>
								<effect>
									<name>Audio Levels</name>
									<effectid>audiolevels</effectid>
									<effectcategory>audiolevels</effectcategory>
									<effecttype>audiolevels</effecttype>
									<mediatype>audio</mediatype>
									<parameter authoringApp="PremierePro">
										<parameterid>level</parameterid>
										<name>Level</name>
										<valuemin>0</valuemin>
										<valuemax>3.98109</valuemax>
										<value>0.792446</value>
									</parameter>
								</effect>
							</filter>
						<link>
							<linkclipref>clipitem-3200</linkclipref>
							<mediatype>audio</mediatype>
							<trackindex>25</trackindex>
							<clipindex>25</clipindex>
							<groupindex>1</groupindex>
						</link>
						<link>
							<linkclipref>clipitem-3231</linkclipref>
							<mediatype>audio</mediatype>
							<trackindex>26</trackindex>
							<clipindex>25</clipindex>
							<groupindex>1</groupindex>
						</link>
						<logginginfo>
							<description></description>
							<scene></scene>
							<shottake></shottake>
							<lognote></lognote>
						</logginginfo>
						<labels>
							<label2>Caribbean</label2>
						</labels>
					</clipitem>
					<clipitem id="clipitem-3232" premiereChannelType="stereo">
						<masterclipid>masterclip-200</masterclipid>
						<name>2005-sportv1.WAV</name>
						<enabled>TRUE</enabled>
						<duration>3786</duration>
						<rate>
							<timebase>25</timebase>
							<ntsc>FALSE</ntsc>
						</rate>
						<start>38978</start>
						<end>39072</end>
						<in>1984</in>
						<out>2078</out>
						<pproTicksIn>20158709760000</pproTicksIn>
						<pproTicksOut>21113809920000</pproTicksOut>
						<file id="file-196"/>
						<sourcetrack>
							<mediatype>audio</mediatype>
							<trackindex>2</trackindex>
						</sourcetrack>
							<filter>
								<effect>
									<name>Audio Levels</name>
									<effectid>audiolevels</effectid>
									<effectcategory>audiolevels</effectcategory>
									<effecttype>audiolevels</effecttype>
									<mediatype>audio</mediatype>
									<parameter authoringApp="PremierePro">
										<parameterid>level</parameterid>
										<name>Level</name>
										<valuemin>0</valuemin>
										<valuemax>3.98109</valuemax>
										<value>0.792446</value>
									</parameter>
								</effect>
							</filter>
						<link>
							<linkclipref>clipitem-3201</linkclipref>
							<mediatype>audio</mediatype>
							<trackindex>25</trackindex>
							<clipindex>26</clipindex>
							<groupindex>1</groupindex>
						</link>
						<link>
							<linkclipref>clipitem-3232</linkclipref>
							<mediatype>audio</mediatype>
							<trackindex>26</trackindex>
							<clipindex>26</clipindex>
							<groupindex>1</groupindex>
						</link>
						<logginginfo>
							<description></description>
							<scene></scene>
							<shottake></shottake>
							<lognote></lognote>
						</logginginfo>
						<labels>
							<label2>Caribbean</label2>
						</labels>
					</clipitem>
					<clipitem id="clipitem-3233" premiereChannelType="stereo">
						<masterclipid>masterclip-200</masterclipid>
						<name>2005-sportv1.WAV</name>
						<enabled>TRUE</enabled>
						<duration>3786</duration>
						<rate>
							<timebase>25</timebase>
							<ntsc>FALSE</ntsc>
						</rate>
						<start>39270</start>
						<end>39417</end>
						<in>2078</in>
						<out>2225</out>
						<pproTicksIn>21113809920000</pproTicksIn>
						<pproTicksOut>22607424000000</pproTicksOut>
						<file id="file-196"/>
						<sourcetrack>
							<mediatype>audio</mediatype>
							<trackindex>2</trackindex>
						</sourcetrack>
							<filter>
								<effect>
									<name>Audio Levels</name>
									<effectid>audiolevels</effectid>
									<effectcategory>audiolevels</effectcategory>
									<effecttype>audiolevels</effecttype>
									<mediatype>audio</mediatype>
									<parameter authoringApp="PremierePro">
										<parameterid>level</parameterid>
										<name>Level</name>
										<valuemin>0</valuemin>
										<valuemax>3.98109</valuemax>
										<value>0.792446</value>
									</parameter>
								</effect>
							</filter>
						<link>
							<linkclipref>clipitem-3202</linkclipref>
							<mediatype>audio</mediatype>
							<trackindex>25</trackindex>
							<clipindex>27</clipindex>
							<groupindex>1</groupindex>
						</link>
						<link>
							<linkclipref>clipitem-3233</linkclipref>
							<mediatype>audio</mediatype>
							<trackindex>26</trackindex>
							<clipindex>27</clipindex>
							<groupindex>1</groupindex>
						</link>
						<logginginfo>
							<description></description>
							<scene></scene>
							<shottake></shottake>
							<lognote></lognote>
						</logginginfo>
						<labels>
							<label2>Caribbean</label2>
						</labels>
					</clipitem>
					<clipitem id="clipitem-3234" premiereChannelType="stereo">
						<masterclipid>masterclip-200</masterclipid>
						<name>2005-sportv1.WAV</name>
						<enabled>TRUE</enabled>
						<duration>3786</duration>
						<rate>
							<timebase>25</timebase>
							<ntsc>FALSE</ntsc>
						</rate>
						<start>39631</start>
						<end>39810</end>
						<in>2243</in>
						<out>2422</out>
						<pproTicksIn>22790315520000</pproTicksIn>
						<pproTicksOut>24609070080000</pproTicksOut>
						<file id="file-196"/>
						<sourcetrack>
							<mediatype>audio</mediatype>
							<trackindex>2</trackindex>
						</sourcetrack>
							<filter>
								<effect>
									<name>Audio Levels</name>
									<effectid>audiolevels</effectid>
									<effectcategory>audiolevels</effectcategory>
									<effecttype>audiolevels</effecttype>
									<mediatype>audio</mediatype>
									<parameter authoringApp="PremierePro">
										<parameterid>level</parameterid>
										<name>Level</name>
										<valuemin>0</valuemin>
										<valuemax>3.98109</valuemax>
										<value>0.792446</value>
									</parameter>
								</effect>
							</filter>
						<link>
							<linkclipref>clipitem-3203</linkclipref>
							<mediatype>audio</mediatype>
							<trackindex>25</trackindex>
							<clipindex>28</clipindex>
							<groupindex>1</groupindex>
						</link>
						<link>
							<linkclipref>clipitem-3234</linkclipref>
							<mediatype>audio</mediatype>
							<trackindex>26</trackindex>
							<clipindex>28</clipindex>
							<groupindex>1</groupindex>
						</link>
						<logginginfo>
							<description></description>
							<scene></scene>
							<shottake></shottake>
							<lognote></lognote>
						</logginginfo>
						<labels>
							<label2>Caribbean</label2>
						</labels>
					</clipitem>
					<clipitem id="clipitem-3235" premiereChannelType="stereo">
						<masterclipid>masterclip-200</masterclipid>
						<name>2005-sportv1.WAV</name>
						<enabled>TRUE</enabled>
						<duration>3786</duration>
						<rate>
							<timebase>25</timebase>
							<ntsc>FALSE</ntsc>
						</rate>
						<start>39913</start>
						<end>40095</end>
						<in>2491</in>
						<out>2673</out>
						<pproTicksIn>25310154240000</pproTicksIn>
						<pproTicksOut>27159390720000</pproTicksOut>
						<file id="file-196"/>
						<sourcetrack>
							<mediatype>audio</mediatype>
							<trackindex>2</trackindex>
						</sourcetrack>
							<filter>
								<effect>
									<name>Audio Levels</name>
									<effectid>audiolevels</effectid>
									<effectcategory>audiolevels</effectcategory>
									<effecttype>audiolevels</effecttype>
									<mediatype>audio</mediatype>
									<parameter authoringApp="PremierePro">
										<parameterid>level</parameterid>
										<name>Level</name>
										<valuemin>0</valuemin>
										<valuemax>3.98109</valuemax>
										<value>0.889139</value>
									</parameter>
								</effect>
							</filter>
						<link>
							<linkclipref>clipitem-3204</linkclipref>
							<mediatype>audio</mediatype>
							<trackindex>25</trackindex>
							<clipindex>29</clipindex>
							<groupindex>1</groupindex>
						</link>
						<link>
							<linkclipref>clipitem-3235</linkclipref>
							<mediatype>audio</mediatype>
							<trackindex>26</trackindex>
							<clipindex>29</clipindex>
							<groupindex>1</groupindex>
						</link>
						<logginginfo>
							<description></description>
							<scene></scene>
							<shottake></shottake>
							<lognote></lognote>
						</logginginfo>
						<labels>
							<label2>Caribbean</label2>
						</labels>
					</clipitem>
					<clipitem id="clipitem-3236" premiereChannelType="stereo">
						<masterclipid>masterclip-200</masterclipid>
						<name>2005-sportv1.WAV</name>
						<enabled>TRUE</enabled>
						<duration>3786</duration>
						<rate>
							<timebase>25</timebase>
							<ntsc>FALSE</ntsc>
						</rate>
						<start>40223</start>
						<end>40423</end>
						<in>3046</in>
						<out>3246</out>
						<pproTicksIn>30949309440000</pproTicksIn>
						<pproTicksOut>32981437440000</pproTicksOut>
						<file id="file-196"/>
						<sourcetrack>
							<mediatype>audio</mediatype>
							<trackindex>2</trackindex>
						</sourcetrack>
							<filter>
								<effect>
									<name>Audio Levels</name>
									<effectid>audiolevels</effectid>
									<effectcategory>audiolevels</effectcategory>
									<effecttype>audiolevels</effecttype>
									<mediatype>audio</mediatype>
									<parameter authoringApp="PremierePro">
										<parameterid>level</parameterid>
										<name>Level</name>
										<valuemin>0</valuemin>
										<valuemax>3.98109</valuemax>
										<value>0.792446</value>
									</parameter>
								</effect>
							</filter>
						<link>
							<linkclipref>clipitem-3205</linkclipref>
							<mediatype>audio</mediatype>
							<trackindex>25</trackindex>
							<clipindex>30</clipindex>
							<groupindex>1</groupindex>
						</link>
						<link>
							<linkclipref>clipitem-3236</linkclipref>
							<mediatype>audio</mediatype>
							<trackindex>26</trackindex>
							<clipindex>30</clipindex>
							<groupindex>1</groupindex>
						</link>
						<logginginfo>
							<description></description>
							<scene></scene>
							<shottake></shottake>
							<lognote></lognote>
						</logginginfo>
						<labels>
							<label2>Caribbean</label2>
						</labels>
					</clipitem>
					<clipitem id="clipitem-3237" premiereChannelType="stereo">
						<masterclipid>masterclip-202</masterclipid>
						<name>Applaus noe hoi.wav</name>
						<enabled>TRUE</enabled>
						<duration>186</duration>
						<rate>
							<timebase>25</timebase>
							<ntsc>FALSE</ntsc>
						</rate>
						<start>49897</start>
						<end>49957</end>
						<in>0</in>
						<out>60</out>
						<pproTicksIn>0</pproTicksIn>
						<pproTicksOut>609638400000</pproTicksOut>
						<file id="file-198"/>
						<sourcetrack>
							<mediatype>audio</mediatype>
							<trackindex>2</trackindex>
						</sourcetrack>
						<link>
							<linkclipref>clipitem-3206</linkclipref>
							<mediatype>audio</mediatype>
							<trackindex>25</trackindex>
							<clipindex>31</clipindex>
							<groupindex>1</groupindex>
						</link>
						<link>
							<linkclipref>clipitem-3237</linkclipref>
							<mediatype>audio</mediatype>
							<trackindex>26</trackindex>
							<clipindex>31</clipindex>
							<groupindex>1</groupindex>
						</link>
						<logginginfo>
							<description></description>
							<scene></scene>
							<shottake></shottake>
							<lognote></lognote>
						</logginginfo>
						<labels>
							<label2>Caribbean</label2>
						</labels>
					</clipitem>
					<clipitem id="clipitem-3238" premiereChannelType="stereo">
						<masterclipid>masterclip-202</masterclipid>
						<name>Applaus noe hoi.wav</name>
						<enabled>TRUE</enabled>
						<duration>186</duration>
						<rate>
							<timebase>25</timebase>
							<ntsc>FALSE</ntsc>
						</rate>
						<start>49957</start>
						<end>50022</end>
						<in>121</in>
						<out>186</out>
						<pproTicksIn>1229437440000</pproTicksIn>
						<pproTicksOut>1889879040000</pproTicksOut>
						<file id="file-198"/>
						<sourcetrack>
							<mediatype>audio</mediatype>
							<trackindex>2</trackindex>
						</sourcetrack>
						<link>
							<linkclipref>clipitem-3207</linkclipref>
							<mediatype>audio</mediatype>
							<trackindex>25</trackindex>
							<clipindex>32</clipindex>
							<groupindex>1</groupindex>
						</link>
						<link>
							<linkclipref>clipitem-3238</linkclipref>
							<mediatype>audio</mediatype>
							<trackindex>26</trackindex>
							<clipindex>32</clipindex>
							<groupindex>1</groupindex>
						</link>
						<logginginfo>
							<description></description>
							<scene></scene>
							<shottake></shottake>
							<lognote></lognote>
						</logginginfo>
						<labels>
							<label2>Caribbean</label2>
						</labels>
					</clipitem>
					<enabled>TRUE</enabled>
					<locked>FALSE</locked>
					<outputchannelindex>2</outputchannelindex>
				</track>
			</audio>
		</media>
		<timecode>
			<rate>
				<timebase>25</timebase>
				<ntsc>FALSE</ntsc>
			</rate>
			<string>00:00:00:00</string>
			<frame>0</frame>
			<displayformat>NDF</displayformat>
		</timecode>
		<labels>
			<label2>Forest</label2>
		</labels>
	</sequence>
</xmeml>
