<?xml version="1.0" encoding="UTF-8"?>
<!DOCTYPE xmeml>
<xmeml version="4">
	<sequence id="sequence-1" TL.SQAudioVisibleBase="239" TL.SQVideoVisibleBase="0" TL.SQVisibleBaseTime="0" TL.SQAVDividerPosition="0.3647541105747222900390625" TL.SQHideShyTracks="0" TL.SQHeaderWidth="188" Monitor.ProgramZoomOut="442262177280000" Monitor.ProgramZoomIn="0" TL.SQTimePerPixel="1.2745827232796484995702712695" AM.TrackVScrollPosition="0" AM.TrackScrollPosition="0" MZ.EditLine="93234032640000" MZ.Sequence.PreviewFrameSizeHeight="1080" MZ.Sequence.PreviewFrameSizeWidth="1920" MZ.Sequence.AudioTimeDisplayFormat="200" MZ.Sequence.PreviewRenderingClassID="1297106761" MZ.Sequence.PreviewRenderingPresetCodec="1297107278" MZ.Sequence.PreviewRenderingPresetPath="EncoderPresets/SequencePreview/bcb27263-0b7a-406f-bda9-3d3796f18c3a/I-Frame Only MPEG.epr" MZ.Sequence.PreviewUseMaxRenderQuality="false" MZ.Sequence.PreviewUseMaxBitDepth="false" MZ.Sequence.EditingModeGUID="bcb27263-0b7a-406f-bda9-3d3796f18c3a" MZ.Sequence.VideoTimeDisplayFormat="101" MZ.WorkOutPoint="152206387200000" MZ.WorkInPoint="133256793600000">
		<uuid>ac92af58-1615-4e8f-a44e-3e51f048617f</uuid>
		<duration>43527</duration>
		<rate>
			<timebase>25</timebase>
			<ntsc>FALSE</ntsc>
		</rate>
		<name>Master Filmbonanza Program 6 Visjonæren</name>
		<media>
			<video>
				<format>
					<samplecharacteristics>
						<rate>
							<timebase>25</timebase>
							<ntsc>FALSE</ntsc>
						</rate>
						<codec>
							<name>Apple ProRes 422</name>
							<appspecificdata>
								<appname>Final Cut Pro</appname>
								<appmanufacturer>Apple Inc.</appmanufacturer>
								<appversion>7.0</appversion>
								<data>
									<qtcodec>
										<codecname>Apple ProRes 422</codecname>
										<codectypename>Apple ProRes 422</codectypename>
										<codectypecode>apcn</codectypecode>
										<codecvendorcode>appl</codecvendorcode>
										<spatialquality>1024</spatialquality>
										<temporalquality>0</temporalquality>
										<keyframerate>0</keyframerate>
										<datarate>0</datarate>
									</qtcodec>
								</data>
							</appspecificdata>
						</codec>
						<width>1920</width>
						<height>1080</height>
						<anamorphic>FALSE</anamorphic>
						<pixelaspectratio>square</pixelaspectratio>
						<fielddominance>upper</fielddominance>
						<colordepth>24</colordepth>
					</samplecharacteristics>
				</format>
				<track TL.SQTrackShy="0" TL.SQTrackExpandedHeight="25" TL.SQTrackExpanded="1" MZ.TrackTargeted="1">
					<clipitem id="clipitem-1" frameBlend="FALSE">
						<masterclipid>masterclip-1</masterclipid>
						<name>Clip #4.mov</name>
						<enabled>TRUE</enabled>
						<duration>1469</duration>
						<rate>
							<timebase>25</timebase>
							<ntsc>FALSE</ntsc>
						</rate>
						<start>77</start>
						<end>139</end>
						<in>656</in>
						<out>718</out>
						<alphatype>none</alphatype>
						<pixelaspectratio>square</pixelaspectratio>
						<anamorphic>FALSE</anamorphic>
						<file id="file-1">
							<name>Clip #4.mov</name>
							<pathurl>file://localhost/Volumes/Scenen/Prosjekter/FILM/FILM%201413%20Master%20Filmbonanza%20Program%206%20H%c3%b8sten%202013/Video/NRK%20Luftfoto%20Sukkerbiten/Capture%20Scratch/Import%20Sukkerbiten%20helikopterbilder/Clip%20#4.mov</pathurl>
							<rate>
								<timebase>25</timebase>
								<ntsc>FALSE</ntsc>
							</rate>
							<duration>1469</duration>
							<timecode>
								<rate>
									<timebase>25</timebase>
									<ntsc>FALSE</ntsc>
								</rate>
								<string>00:00:00:00</string>
								<frame>0</frame>
								<displayformat>NDF</displayformat>
							</timecode>
							<media>
								<video>
									<duration>18000</duration>
									<samplecharacteristics>
										<rate>
											<timebase>25</timebase>
											<ntsc>FALSE</ntsc>
										</rate>
										<width>1920</width>
										<height>1080</height>
										<anamorphic>FALSE</anamorphic>
										<pixelaspectratio>square</pixelaspectratio>
										<fielddominance>none</fielddominance>
									</samplecharacteristics>
								</video>
								<audio>
									<samplecharacteristics>
										<depth>16</depth>
										<samplerate>48000</samplerate>
									</samplecharacteristics>
									<channelcount>2</channelcount>
								</audio>
							</media>
						</file>
							<filter>
								<effect>
									<name>Crop</name>
									<effectid>crop</effectid>
									<effectcategory>motion</effectcategory>
									<effecttype>motion</effecttype>
									<mediatype>video</mediatype>
									<parameter authoringApp="PremierePro">
										<parameterid>left</parameterid>
										<name>left</name>
										<valuemin>0</valuemin>
										<valuemax>100</valuemax>
										<value>45</value>
									</parameter>
									<parameter authoringApp="PremierePro">
										<parameterid>right</parameterid>
										<name>right</name>
										<valuemin>0</valuemin>
										<valuemax>100</valuemax>
										<value>45</value>
									</parameter>
									<parameter authoringApp="PremierePro">
										<parameterid>top</parameterid>
										<name>top</name>
										<valuemin>0</valuemin>
										<valuemax>100</valuemax>
										<value>41</value>
									</parameter>
									<parameter authoringApp="PremierePro">
										<parameterid>bottom</parameterid>
										<name>bottom</name>
										<valuemin>0</valuemin>
										<valuemax>100</valuemax>
										<value>41</value>
									</parameter>
								</effect>
							</filter>
					</clipitem>
					<clipitem id="clipitem-2" frameBlend="FALSE">
						<masterclipid>masterclip-2</masterclipid>
						<name>mktf-film-visjonar-r08.MXF</name>
						<enabled>TRUE</enabled>
						<duration>1404</duration>
						<rate>
							<timebase>25</timebase>
							<ntsc>FALSE</ntsc>
						</rate>
						<start>139</start>
						<end>198</end>
						<in>758</in>
						<out>817</out>
						<alphatype>none</alphatype>
						<pixelaspectratio>square</pixelaspectratio>
						<anamorphic>FALSE</anamorphic>
						<file id="file-2">
							<name>mktf-film-visjonar-r08.MXF</name>
							<pathurl>file://localhost/Volumes/omfs/clip.dir/MXF/1080i/mktf-film-visjonar-r08.MXF</pathurl>
							<rate>
								<timebase>25</timebase>
								<ntsc>FALSE</ntsc>
							</rate>
							<duration>1404</duration>
							<timecode>
								<rate>
									<timebase>25</timebase>
									<ntsc>FALSE</ntsc>
								</rate>
								<string>08:03:20:16</string>
								<frame>725016</frame>
								<displayformat>NDF</displayformat>
							</timecode>
							<media>
								<video>
									<duration>18000</duration>
									<samplecharacteristics>
										<rate>
											<timebase>25</timebase>
											<ntsc>FALSE</ntsc>
										</rate>
										<width>1920</width>
										<height>1080</height>
										<anamorphic>FALSE</anamorphic>
										<pixelaspectratio>square</pixelaspectratio>
										<fielddominance>none</fielddominance>
									</samplecharacteristics>
								</video>
								<audio>
									<samplecharacteristics>
										<depth>16</depth>
										<samplerate>48000</samplerate>
									</samplecharacteristics>
									<channelcount>1</channelcount>
									<layout>mono</layout>
									<audiochannel>
										<sourcechannel>1</sourcechannel>
										<channellabel>discrete</channellabel>
									</audiochannel>
								</audio>
								<audio>
									<samplecharacteristics>
										<depth>16</depth>
										<samplerate>48000</samplerate>
									</samplecharacteristics>
									<channelcount>1</channelcount>
									<layout>mono</layout>
									<audiochannel>
										<sourcechannel>2</sourcechannel>
										<channellabel>discrete</channellabel>
									</audiochannel>
								</audio>
								<audio>
									<samplecharacteristics>
										<depth>16</depth>
										<samplerate>48000</samplerate>
									</samplecharacteristics>
									<channelcount>1</channelcount>
									<layout>mono</layout>
									<audiochannel>
										<sourcechannel>3</sourcechannel>
										<channellabel>discrete</channellabel>
									</audiochannel>
								</audio>
								<audio>
									<samplecharacteristics>
										<depth>16</depth>
										<samplerate>48000</samplerate>
									</samplecharacteristics>
									<channelcount>1</channelcount>
									<layout>mono</layout>
									<audiochannel>
										<sourcechannel>4</sourcechannel>
										<channellabel>discrete</channellabel>
									</audiochannel>
								</audio>
								<audio>
									<samplecharacteristics>
										<depth>16</depth>
										<samplerate>48000</samplerate>
									</samplecharacteristics>
									<channelcount>1</channelcount>
									<layout>mono</layout>
									<audiochannel>
										<sourcechannel>5</sourcechannel>
										<channellabel>discrete</channellabel>
									</audiochannel>
								</audio>
								<audio>
									<samplecharacteristics>
										<depth>16</depth>
										<samplerate>48000</samplerate>
									</samplecharacteristics>
									<channelcount>1</channelcount>
									<layout>mono</layout>
									<audiochannel>
										<sourcechannel>6</sourcechannel>
										<channellabel>discrete</channellabel>
									</audiochannel>
								</audio>
								<audio>
									<samplecharacteristics>
										<depth>16</depth>
										<samplerate>48000</samplerate>
									</samplecharacteristics>
									<channelcount>1</channelcount>
									<layout>mono</layout>
									<audiochannel>
										<sourcechannel>7</sourcechannel>
										<channellabel>discrete</channellabel>
									</audiochannel>
								</audio>
								<audio>
									<samplecharacteristics>
										<depth>16</depth>
										<samplerate>48000</samplerate>
									</samplecharacteristics>
									<channelcount>1</channelcount>
									<layout>mono</layout>
									<audiochannel>
										<sourcechannel>8</sourcechannel>
										<channellabel>discrete</channellabel>
									</audiochannel>
								</audio>
							</media>
						</file>
							<filter>
								<effect>
									<name>Crop</name>
									<effectid>crop</effectid>
									<effectcategory>motion</effectcategory>
									<effecttype>motion</effecttype>
									<mediatype>video</mediatype>
									<parameter authoringApp="PremierePro">
										<parameterid>left</parameterid>
										<name>left</name>
										<valuemin>0</valuemin>
										<valuemax>100</valuemax>
										<value>45</value>
									</parameter>
									<parameter authoringApp="PremierePro">
										<parameterid>right</parameterid>
										<name>right</name>
										<valuemin>0</valuemin>
										<valuemax>100</valuemax>
										<value>45</value>
									</parameter>
									<parameter authoringApp="PremierePro">
										<parameterid>top</parameterid>
										<name>top</name>
										<valuemin>0</valuemin>
										<valuemax>100</valuemax>
										<value>41</value>
									</parameter>
									<parameter authoringApp="PremierePro">
										<parameterid>bottom</parameterid>
										<name>bottom</name>
										<valuemin>0</valuemin>
										<valuemax>100</valuemax>
										<value>41</value>
									</parameter>
								</effect>
							</filter>
					</clipitem>
					<clipitem id="clipitem-3" frameBlend="FALSE">
						<masterclipid>masterclip-1</masterclipid>
						<name>Clip #4.mov</name>
						<enabled>TRUE</enabled>
						<duration>1469</duration>
						<rate>
							<ntsc>TRUE</ntsc>
							<timebase>30</timebase>
						</rate>
						<start>198</start>
						<end>279</end>
						<in>777</in>
						<out>858</out>
						<alphatype>none</alphatype>
						<file id="file-1"/>
					</clipitem>
					<clipitem id="clipitem-4" frameBlend="FALSE">
						<masterclipid>masterclip-3</masterclipid>
						<name>mktf-film-visjonar-r14.MXF</name>
						<enabled>TRUE</enabled>
						<duration>493</duration>
						<rate>
							<timebase>25</timebase>
							<ntsc>FALSE</ntsc>
						</rate>
						<start>1294</start>
						<end>1317</end>
						<in>132</in>
						<out>155</out>
						<alphatype>none</alphatype>
						<pixelaspectratio>square</pixelaspectratio>
						<anamorphic>FALSE</anamorphic>
						<file id="file-3">
							<name>mktf-film-visjonar-r14.MXF</name>
							<pathurl>file://localhost/Volumes/omfs/clip.dir/MXF/1080i/mktf-film-visjonar-r14.MXF</pathurl>
							<rate>
								<timebase>25</timebase>
								<ntsc>FALSE</ntsc>
							</rate>
							<duration>888</duration>
							<timecode>
								<rate>
									<timebase>25</timebase>
									<ntsc>FALSE</ntsc>
								</rate>
								<string>08:08:28:20</string>
								<frame>732720</frame>
								<displayformat>NDF</displayformat>
							</timecode>
							<media>
								<video>
									<duration>18000</duration>
									<samplecharacteristics>
										<rate>
											<timebase>25</timebase>
											<ntsc>FALSE</ntsc>
										</rate>
										<width>1920</width>
										<height>1080</height>
										<anamorphic>FALSE</anamorphic>
										<pixelaspectratio>square</pixelaspectratio>
										<fielddominance>none</fielddominance>
									</samplecharacteristics>
								</video>
								<audio>
									<samplecharacteristics>
										<depth>16</depth>
										<samplerate>48000</samplerate>
									</samplecharacteristics>
									<channelcount>1</channelcount>
									<layout>mono</layout>
									<audiochannel>
										<sourcechannel>1</sourcechannel>
										<channellabel>discrete</channellabel>
									</audiochannel>
								</audio>
								<audio>
									<samplecharacteristics>
										<depth>16</depth>
										<samplerate>48000</samplerate>
									</samplecharacteristics>
									<channelcount>1</channelcount>
									<layout>mono</layout>
									<audiochannel>
										<sourcechannel>2</sourcechannel>
										<channellabel>discrete</channellabel>
									</audiochannel>
								</audio>
								<audio>
									<samplecharacteristics>
										<depth>16</depth>
										<samplerate>48000</samplerate>
									</samplecharacteristics>
									<channelcount>1</channelcount>
									<layout>mono</layout>
									<audiochannel>
										<sourcechannel>3</sourcechannel>
										<channellabel>discrete</channellabel>
									</audiochannel>
								</audio>
								<audio>
									<samplecharacteristics>
										<depth>16</depth>
										<samplerate>48000</samplerate>
									</samplecharacteristics>
									<channelcount>1</channelcount>
									<layout>mono</layout>
									<audiochannel>
										<sourcechannel>4</sourcechannel>
										<channellabel>discrete</channellabel>
									</audiochannel>
								</audio>
								<audio>
									<samplecharacteristics>
										<depth>16</depth>
										<samplerate>48000</samplerate>
									</samplecharacteristics>
									<channelcount>1</channelcount>
									<layout>mono</layout>
									<audiochannel>
										<sourcechannel>5</sourcechannel>
										<channellabel>discrete</channellabel>
									</audiochannel>
								</audio>
								<audio>
									<samplecharacteristics>
										<depth>16</depth>
										<samplerate>48000</samplerate>
									</samplecharacteristics>
									<channelcount>1</channelcount>
									<layout>mono</layout>
									<audiochannel>
										<sourcechannel>6</sourcechannel>
										<channellabel>discrete</channellabel>
									</audiochannel>
								</audio>
								<audio>
									<samplecharacteristics>
										<depth>16</depth>
										<samplerate>48000</samplerate>
									</samplecharacteristics>
									<channelcount>1</channelcount>
									<layout>mono</layout>
									<audiochannel>
										<sourcechannel>7</sourcechannel>
										<channellabel>discrete</channellabel>
									</audiochannel>
								</audio>
								<audio>
									<samplecharacteristics>
										<depth>16</depth>
										<samplerate>48000</samplerate>
									</samplecharacteristics>
									<channelcount>1</channelcount>
									<layout>mono</layout>
									<audiochannel>
										<sourcechannel>8</sourcechannel>
										<channellabel>discrete</channellabel>
									</audiochannel>
								</audio>
							</media>
						</file>
							<filter>
								<effect>
									<name>Time Remap</name>
									<effectid>timeremap</effectid>
									<effectcategory>motion</effectcategory>
									<effecttype>motion</effecttype>
									<mediatype>video</mediatype>
									<parameter authoringApp="PremierePro">
										<parameterid>variablespeed</parameterid>
										<name>variablespeed</name>
										<valuemin>0</valuemin>
										<valuemax>1</valuemax>
										<value>0</value>
									</parameter>
									<parameter authoringApp="PremierePro">
										<parameterid>mappedduration</parameterid>
										<name>mappedduration</name>
										<value>
											<timecode>
												<rate>
													<timebase>0</timebase>
												</rate>
												<string>0</string>
												<frame>0</frame>
												<displayformat>NDF</displayformat>
											</timecode>
										</value>
									</parameter>
									<parameter authoringApp="PremierePro">
										<parameterid>speed</parameterid>
										<name>speed</name>
										<valuemin>-100000</valuemin>
										<valuemax>100000</valuemax>
										<value>180</value>
									</parameter>
									<parameter authoringApp="PremierePro">
										<parameterid>reverse</parameterid>
										<name>reverse</name>
										<value>FALSE</value>
									</parameter>
									<parameter authoringApp="PremierePro">
										<parameterid>frameblending</parameterid>
										<name>frameblending</name>
										<value>FALSE</value>
									</parameter>
								</effect>
							</filter>
						<link>
							<linkclipref>clipitem-4</linkclipref>
							<mediatype>video</mediatype>
							<trackindex>1</trackindex>
							<clipindex>4</clipindex>
						</link>
						<link>
							<linkclipref>clipitem-403</linkclipref>
							<mediatype>audio</mediatype>
							<trackindex>1</trackindex>
							<clipindex>4</clipindex>
							<groupindex>1</groupindex>
						</link>
					</clipitem>
					<clipitem id="clipitem-5" frameBlend="FALSE">
						<masterclipid>masterclip-3</masterclipid>
						<name>mktf-film-visjonar-r14.MXF</name>
						<enabled>TRUE</enabled>
						<duration>888</duration>
						<rate>
							<ntsc>TRUE</ntsc>
							<timebase>30</timebase>
						</rate>
						<start>1317</start>
						<end>1749</end>
						<in>279</in>
						<out>711</out>
						<alphatype>none</alphatype>
						<file id="file-3"/>
							<filter>
								<effect>
									<name>Opacity</name>
									<effectid>opacity</effectid>
									<effectcategory>motion</effectcategory>
									<effecttype>motion</effecttype>
									<mediatype>video</mediatype>
									<parameter authoringApp="PremierePro">
										<parameterid>opacity</parameterid>
										<name>opacity</name>
										<valuemin>0</valuemin>
										<valuemax>100</valuemax>
										<value>100</value>
										<keyframe>
											<when>705</when>
											<value>100</value>
										</keyframe>
										<keyframe>
											<when>710</when>
											<value>0</value>
										</keyframe>
									</parameter>
								</effect>
							</filter>
					</clipitem>
					<clipitem id="clipitem-6" frameBlend="FALSE">
						<masterclipid>masterclip-4</masterclipid>
						<name>t2.mov</name>
						<enabled>TRUE</enabled>
						<duration>5950</duration>
						<rate>
							<timebase>25</timebase>
							<ntsc>FALSE</ntsc>
						</rate>
						<start>9427</start>
						<end>-1</end>
						<in>2361</in>
						<out>2579</out>
						<alphatype>none</alphatype>
						<pixelaspectratio>square</pixelaspectratio>
						<anamorphic>FALSE</anamorphic>
						<file id="file-4">
							<name>t2.mov</name>
							<pathurl>file://localhost/Volumes/Scenen/Utveksling/FILM/DVD%20rip%20og%20EPK/t2.mov</pathurl>
							<rate>
								<timebase>25</timebase>
								<ntsc>FALSE</ntsc>
							</rate>
							<duration>5950</duration>
							<timecode>
								<rate>
									<timebase>25</timebase>
									<ntsc>FALSE</ntsc>
								</rate>
								<string>00:00:00:00</string>
								<frame>0</frame>
								<displayformat>NDF</displayformat>
							</timecode>
							<media>
								<video>
									<duration>18000</duration>
									<samplecharacteristics>
										<rate>
											<timebase>25</timebase>
											<ntsc>FALSE</ntsc>
										</rate>
										<width>1920</width>
										<height>1080</height>
										<anamorphic>FALSE</anamorphic>
										<pixelaspectratio>square</pixelaspectratio>
										<fielddominance>none</fielddominance>
									</samplecharacteristics>
								</video>
								<audio>
									<samplecharacteristics>
										<depth>16</depth>
										<samplerate>48000</samplerate>
									</samplecharacteristics>
									<channelcount>2</channelcount>
								</audio>
							</media>
						</file>
						<link>
							<linkclipref>clipitem-6</linkclipref>
							<mediatype>video</mediatype>
							<trackindex>1</trackindex>
							<clipindex>6</clipindex>
						</link>
						<link>
							<linkclipref>clipitem-719</linkclipref>
							<mediatype>audio</mediatype>
							<trackindex>12</trackindex>
							<clipindex>14</clipindex>
							<groupindex>1</groupindex>
						</link>
						<link>
							<linkclipref>clipitem-729</linkclipref>
							<mediatype>audio</mediatype>
							<trackindex>13</trackindex>
							<clipindex>14</clipindex>
							<groupindex>1</groupindex>
						</link>
					</clipitem>
					<transitionitem>
						<start>9620</start>
						<end>9645</end>
						<alignment>end-black</alignment>
						<cutPoint>25</cutPoint>
						<rate>
							<timebase>25</timebase>
							<ntsc>FALSE</ntsc>
						</rate>
						<effect>
							<name>Cross Dissolve</name>
							<effectid>Cross Dissolve</effectid>
							<effectcategory>Dissolve</effectcategory>
							<effecttype>transition</effecttype>
							<mediatype>video</mediatype>
							<wipecode>0</wipecode>
							<wipeaccuracy>100</wipeaccuracy>
							<startratio>0</startratio>
							<endratio>1</endratio>
							<reverse>FALSE</reverse>
						</effect>
					</transitionitem>
					<clipitem id="clipitem-7" frameBlend="FALSE">
						<masterclipid>masterclip-5</masterclipid>
						<name>mktf-film-visjonar-r27.MXF</name>
						<enabled>TRUE</enabled>
						<duration>600</duration>
						<rate>
							<timebase>25</timebase>
							<ntsc>FALSE</ntsc>
						</rate>
						<start>11601</start>
						<end>12049</end>
						<in>95</in>
						<out>543</out>
						<alphatype>none</alphatype>
						<pixelaspectratio>square</pixelaspectratio>
						<anamorphic>FALSE</anamorphic>
						<file id="file-5">
							<name>mktf-film-visjonar-r27.MXF</name>
							<pathurl>file://localhost/Volumes/omfs/clip.dir/MXF/1080i/mktf-film-visjonar-r27.MXF</pathurl>
							<rate>
								<timebase>25</timebase>
								<ntsc>FALSE</ntsc>
							</rate>
							<duration>600</duration>
							<timecode>
								<rate>
									<timebase>25</timebase>
									<ntsc>FALSE</ntsc>
								</rate>
								<string>08:17:45:03</string>
								<frame>746628</frame>
								<displayformat>NDF</displayformat>
							</timecode>
							<media>
								<video>
									<duration>18000</duration>
									<samplecharacteristics>
										<rate>
											<timebase>25</timebase>
											<ntsc>FALSE</ntsc>
										</rate>
										<width>1920</width>
										<height>1080</height>
										<anamorphic>FALSE</anamorphic>
										<pixelaspectratio>square</pixelaspectratio>
										<fielddominance>none</fielddominance>
									</samplecharacteristics>
								</video>
								<audio>
									<samplecharacteristics>
										<depth>16</depth>
										<samplerate>48000</samplerate>
									</samplecharacteristics>
									<channelcount>1</channelcount>
									<layout>mono</layout>
									<audiochannel>
										<sourcechannel>1</sourcechannel>
										<channellabel>discrete</channellabel>
									</audiochannel>
								</audio>
								<audio>
									<samplecharacteristics>
										<depth>16</depth>
										<samplerate>48000</samplerate>
									</samplecharacteristics>
									<channelcount>1</channelcount>
									<layout>mono</layout>
									<audiochannel>
										<sourcechannel>2</sourcechannel>
										<channellabel>discrete</channellabel>
									</audiochannel>
								</audio>
								<audio>
									<samplecharacteristics>
										<depth>16</depth>
										<samplerate>48000</samplerate>
									</samplecharacteristics>
									<channelcount>1</channelcount>
									<layout>mono</layout>
									<audiochannel>
										<sourcechannel>3</sourcechannel>
										<channellabel>discrete</channellabel>
									</audiochannel>
								</audio>
								<audio>
									<samplecharacteristics>
										<depth>16</depth>
										<samplerate>48000</samplerate>
									</samplecharacteristics>
									<channelcount>1</channelcount>
									<layout>mono</layout>
									<audiochannel>
										<sourcechannel>4</sourcechannel>
										<channellabel>discrete</channellabel>
									</audiochannel>
								</audio>
								<audio>
									<samplecharacteristics>
										<depth>16</depth>
										<samplerate>48000</samplerate>
									</samplecharacteristics>
									<channelcount>1</channelcount>
									<layout>mono</layout>
									<audiochannel>
										<sourcechannel>5</sourcechannel>
										<channellabel>discrete</channellabel>
									</audiochannel>
								</audio>
								<audio>
									<samplecharacteristics>
										<depth>16</depth>
										<samplerate>48000</samplerate>
									</samplecharacteristics>
									<channelcount>1</channelcount>
									<layout>mono</layout>
									<audiochannel>
										<sourcechannel>6</sourcechannel>
										<channellabel>discrete</channellabel>
									</audiochannel>
								</audio>
								<audio>
									<samplecharacteristics>
										<depth>16</depth>
										<samplerate>48000</samplerate>
									</samplecharacteristics>
									<channelcount>1</channelcount>
									<layout>mono</layout>
									<audiochannel>
										<sourcechannel>7</sourcechannel>
										<channellabel>discrete</channellabel>
									</audiochannel>
								</audio>
								<audio>
									<samplecharacteristics>
										<depth>16</depth>
										<samplerate>48000</samplerate>
									</samplecharacteristics>
									<channelcount>1</channelcount>
									<layout>mono</layout>
									<audiochannel>
										<sourcechannel>8</sourcechannel>
										<channellabel>discrete</channellabel>
									</audiochannel>
								</audio>
							</media>
						</file>
					</clipitem>
					<clipitem id="clipitem-8" frameBlend="FALSE">
						<masterclipid>masterclip-6</masterclipid>
						<name>mktf-film-munchen-A03.MXF</name>
						<enabled>TRUE</enabled>
						<duration>26784</duration>
						<rate>
							<timebase>25</timebase>
							<ntsc>FALSE</ntsc>
						</rate>
						<start>12049</start>
						<end>12214</end>
						<in>975</in>
						<out>1140</out>
						<alphatype>none</alphatype>
						<pixelaspectratio>square</pixelaspectratio>
						<anamorphic>FALSE</anamorphic>
						<file id="file-6">
							<name>mktf-film-munchen-A03.MXF</name>
							<pathurl>file://localhost/Volumes/omfs/clip.dir/MXF/1080i/mktf-film-munchen-A03.MXF</pathurl>
							<rate>
								<timebase>25</timebase>
								<ntsc>FALSE</ntsc>
							</rate>
							<duration>26784</duration>
							<timecode>
								<rate>
									<timebase>25</timebase>
									<ntsc>FALSE</ntsc>
								</rate>
								<string>15:07:12:13</string>
								<frame>1360813</frame>
								<displayformat>NDF</displayformat>
							</timecode>
							<media>
								<video>
									<duration>18000</duration>
									<samplecharacteristics>
										<rate>
											<timebase>25</timebase>
											<ntsc>FALSE</ntsc>
										</rate>
										<width>1920</width>
										<height>1080</height>
										<anamorphic>FALSE</anamorphic>
										<pixelaspectratio>square</pixelaspectratio>
										<fielddominance>none</fielddominance>
									</samplecharacteristics>
								</video>
								<audio>
									<samplecharacteristics>
										<depth>16</depth>
										<samplerate>48000</samplerate>
									</samplecharacteristics>
									<channelcount>1</channelcount>
									<layout>mono</layout>
									<audiochannel>
										<sourcechannel>1</sourcechannel>
										<channellabel>discrete</channellabel>
									</audiochannel>
								</audio>
								<audio>
									<samplecharacteristics>
										<depth>16</depth>
										<samplerate>48000</samplerate>
									</samplecharacteristics>
									<channelcount>1</channelcount>
									<layout>mono</layout>
									<audiochannel>
										<sourcechannel>2</sourcechannel>
										<channellabel>discrete</channellabel>
									</audiochannel>
								</audio>
							</media>
						</file>
						<link>
							<linkclipref>clipitem-8</linkclipref>
							<mediatype>video</mediatype>
							<trackindex>1</trackindex>
							<clipindex>9</clipindex>
						</link>
						<link>
							<linkclipref>clipitem-406</linkclipref>
							<mediatype>audio</mediatype>
							<trackindex>1</trackindex>
							<clipindex>8</clipindex>
							<groupindex>1</groupindex>
						</link>
						<link>
							<linkclipref>clipitem-474</linkclipref>
							<mediatype>audio</mediatype>
							<trackindex>2</trackindex>
							<clipindex>2</clipindex>
							<groupindex>1</groupindex>
						</link>
					</clipitem>
					<clipitem id="clipitem-9" frameBlend="FALSE">
						<masterclipid>masterclip-6</masterclipid>
						<name>mktf-film-munchen-A03.MXF</name>
						<enabled>TRUE</enabled>
						<duration>26784</duration>
						<rate>
							<ntsc>TRUE</ntsc>
							<timebase>30</timebase>
						</rate>
						<start>12236</start>
						<end>-1</end>
						<in>1197</in>
						<out>1328</out>
						<alphatype>none</alphatype>
						<file id="file-6"/>
						<link>
							<linkclipref>clipitem-9</linkclipref>
							<mediatype>video</mediatype>
							<trackindex>1</trackindex>
							<clipindex>10</clipindex>
						</link>
						<link>
							<linkclipref>clipitem-408</linkclipref>
							<mediatype>audio</mediatype>
							<trackindex>1</trackindex>
							<clipindex>11</clipindex>
							<groupindex>1</groupindex>
						</link>
						<link>
							<linkclipref>clipitem-476</linkclipref>
							<mediatype>audio</mediatype>
							<trackindex>2</trackindex>
							<clipindex>5</clipindex>
							<groupindex>1</groupindex>
						</link>
					</clipitem>
					<transitionitem>
						<start>12342</start>
						<end>12367</end>
						<alignment>center</alignment>
						<cutPoint>12</cutPoint>
						<rate>
							<timebase>25</timebase>
							<ntsc>FALSE</ntsc>
						</rate>
						<effect>
							<name>Cross Dissolve</name>
							<effectid>Cross Dissolve</effectid>
							<effectcategory>Dissolve</effectcategory>
							<effecttype>transition</effecttype>
							<mediatype>video</mediatype>
							<wipecode>0</wipecode>
							<wipeaccuracy>100</wipeaccuracy>
							<startratio>0</startratio>
							<endratio>1</endratio>
							<reverse>FALSE</reverse>
						</effect>
					</transitionitem>
					<clipitem id="clipitem-10" frameBlend="FALSE">
						<masterclipid>masterclip-7</masterclipid>
						<name>FILM_Loop_Grønn.mov</name>
						<enabled>TRUE</enabled>
						<duration>1000</duration>
						<rate>
							<timebase>25</timebase>
							<ntsc>FALSE</ntsc>
						</rate>
						<start>-1</start>
						<end>12538</end>
						<in>508</in>
						<out>704</out>
						<alphatype>none</alphatype>
						<pixelaspectratio>square</pixelaspectratio>
						<anamorphic>FALSE</anamorphic>
						<file id="file-7">
							<name>FILM_Loop_Grønn.mov</name>
							<pathurl>file://localhost/Volumes/Scenen/Prosjekter/FILM/FILM%200110%20Mastere%20Grafikk%20og%20Lyd%20Filmbonanza%20GI%20010112/Video/Filmbonanza%20Mastere/FILM_Loop_Gr%c3%b8nn.mov</pathurl>
							<rate>
								<timebase>25</timebase>
								<ntsc>FALSE</ntsc>
							</rate>
							<duration>1000</duration>
							<timecode>
								<rate>
									<timebase>25</timebase>
									<ntsc>FALSE</ntsc>
								</rate>
								<string>00:00:00:00</string>
								<frame>0</frame>
								<displayformat>NDF</displayformat>
							</timecode>
							<media>
								<video>
									<duration>18000</duration>
									<samplecharacteristics>
										<rate>
											<timebase>25</timebase>
											<ntsc>FALSE</ntsc>
										</rate>
										<width>1920</width>
										<height>1080</height>
										<anamorphic>FALSE</anamorphic>
										<pixelaspectratio>square</pixelaspectratio>
										<fielddominance>none</fielddominance>
									</samplecharacteristics>
								</video>
								<audio>
									<samplecharacteristics>
										<depth>16</depth>
										<samplerate>48000</samplerate>
									</samplecharacteristics>
									<channelcount>2</channelcount>
								</audio>
							</media>
						</file>
					</clipitem>
					<clipitem id="clipitem-11" frameBlend="FALSE">
						<masterclipid>masterclip-6</masterclipid>
						<name>mktf-film-munchen-A03.MXF</name>
						<enabled>TRUE</enabled>
						<duration>26784</duration>
						<rate>
							<ntsc>TRUE</ntsc>
							<timebase>30</timebase>
						</rate>
						<start>15168</start>
						<end>15384</end>
						<in>2407</in>
						<out>2623</out>
						<alphatype>none</alphatype>
						<file id="file-6"/>
						<link>
							<linkclipref>clipitem-11</linkclipref>
							<mediatype>video</mediatype>
							<trackindex>1</trackindex>
							<clipindex>13</clipindex>
						</link>
						<link>
							<linkclipref>clipitem-409</linkclipref>
							<mediatype>audio</mediatype>
							<trackindex>1</trackindex>
							<clipindex>12</clipindex>
							<groupindex>1</groupindex>
						</link>
						<link>
							<linkclipref>clipitem-477</linkclipref>
							<mediatype>audio</mediatype>
							<trackindex>2</trackindex>
							<clipindex>6</clipindex>
							<groupindex>1</groupindex>
						</link>
					</clipitem>
					<clipitem id="clipitem-12" frameBlend="FALSE">
						<masterclipid>masterclip-6</masterclipid>
						<name>mktf-film-munchen-A03.MXF</name>
						<enabled>TRUE</enabled>
						<duration>26784</duration>
						<rate>
							<ntsc>TRUE</ntsc>
							<timebase>30</timebase>
						</rate>
						<start>15417</start>
						<end>-1</end>
						<in>2656</in>
						<out>3247</out>
						<alphatype>none</alphatype>
						<file id="file-6"/>
					</clipitem>
					<transitionitem>
						<start>15983</start>
						<end>16008</end>
						<alignment>center</alignment>
						<cutPoint>12</cutPoint>
						<rate>
							<timebase>25</timebase>
							<ntsc>FALSE</ntsc>
						</rate>
						<effect>
							<name>Cross Dissolve</name>
							<effectid>Cross Dissolve</effectid>
							<effectcategory>Dissolve</effectcategory>
							<effecttype>transition</effecttype>
							<mediatype>video</mediatype>
							<wipecode>0</wipecode>
							<wipeaccuracy>100</wipeaccuracy>
							<startratio>0</startratio>
							<endratio>1</endratio>
							<reverse>FALSE</reverse>
						</effect>
					</transitionitem>
					<clipitem id="clipitem-13" frameBlend="FALSE">
						<masterclipid>masterclip-6</masterclipid>
						<name>mktf-film-munchen-A03.MXF</name>
						<enabled>TRUE</enabled>
						<duration>26784</duration>
						<rate>
							<ntsc>TRUE</ntsc>
							<timebase>30</timebase>
						</rate>
						<start>-1</start>
						<end>-1</end>
						<in>3222</in>
						<out>3317</out>
						<alphatype>none</alphatype>
						<file id="file-6"/>
					</clipitem>
					<transitionitem>
						<start>16053</start>
						<end>16078</end>
						<alignment>center</alignment>
						<cutPoint>12</cutPoint>
						<rate>
							<timebase>25</timebase>
							<ntsc>FALSE</ntsc>
						</rate>
						<effect>
							<name>Cross Dissolve</name>
							<effectid>Cross Dissolve</effectid>
							<effectcategory>Dissolve</effectcategory>
							<effecttype>transition</effecttype>
							<mediatype>video</mediatype>
							<wipecode>0</wipecode>
							<wipeaccuracy>100</wipeaccuracy>
							<startratio>0</startratio>
							<endratio>1</endratio>
							<reverse>FALSE</reverse>
						</effect>
					</transitionitem>
					<clipitem id="clipitem-14" frameBlend="FALSE">
						<masterclipid>masterclip-6</masterclipid>
						<name>mktf-film-munchen-A03.MXF</name>
						<enabled>TRUE</enabled>
						<duration>26784</duration>
						<rate>
							<ntsc>TRUE</ntsc>
							<timebase>30</timebase>
						</rate>
						<start>-1</start>
						<end>16147</end>
						<in>3292</in>
						<out>3386</out>
						<alphatype>none</alphatype>
						<file id="file-6"/>
					</clipitem>
					<clipitem id="clipitem-15" frameBlend="FALSE">
						<masterclipid>masterclip-8</masterclipid>
						<name>mktf-film-munchen-A01.MXF</name>
						<enabled>TRUE</enabled>
						<duration>21900</duration>
						<rate>
							<timebase>25</timebase>
							<ntsc>FALSE</ntsc>
						</rate>
						<start>16619</start>
						<end>16699</end>
						<in>15332</in>
						<out>15412</out>
						<alphatype>none</alphatype>
						<pixelaspectratio>square</pixelaspectratio>
						<anamorphic>FALSE</anamorphic>
						<file id="file-8">
							<name>mktf-film-munchen-A01.MXF</name>
							<pathurl>file://localhost/Volumes/omfs/clip.dir/MXF/1080i/mktf-film-munchen-A01.MXF</pathurl>
							<rate>
								<timebase>25</timebase>
								<ntsc>FALSE</ntsc>
							</rate>
							<duration>21900</duration>
							<timecode>
								<rate>
									<timebase>25</timebase>
									<ntsc>FALSE</ntsc>
								</rate>
								<string>14:40:13:10</string>
								<frame>1320335</frame>
								<displayformat>NDF</displayformat>
							</timecode>
							<media>
								<video>
									<duration>18000</duration>
									<samplecharacteristics>
										<rate>
											<timebase>25</timebase>
											<ntsc>FALSE</ntsc>
										</rate>
										<width>1920</width>
										<height>1080</height>
										<anamorphic>FALSE</anamorphic>
										<pixelaspectratio>square</pixelaspectratio>
										<fielddominance>none</fielddominance>
									</samplecharacteristics>
								</video>
								<audio>
									<samplecharacteristics>
										<depth>16</depth>
										<samplerate>48000</samplerate>
									</samplecharacteristics>
									<channelcount>1</channelcount>
									<layout>mono</layout>
									<audiochannel>
										<sourcechannel>1</sourcechannel>
										<channellabel>discrete</channellabel>
									</audiochannel>
								</audio>
								<audio>
									<samplecharacteristics>
										<depth>16</depth>
										<samplerate>48000</samplerate>
									</samplecharacteristics>
									<channelcount>1</channelcount>
									<layout>mono</layout>
									<audiochannel>
										<sourcechannel>2</sourcechannel>
										<channellabel>discrete</channellabel>
									</audiochannel>
								</audio>
								<audio>
									<samplecharacteristics>
										<depth>16</depth>
										<samplerate>48000</samplerate>
									</samplecharacteristics>
									<channelcount>1</channelcount>
									<layout>mono</layout>
									<audiochannel>
										<sourcechannel>3</sourcechannel>
										<channellabel>discrete</channellabel>
									</audiochannel>
								</audio>
								<audio>
									<samplecharacteristics>
										<depth>16</depth>
										<samplerate>48000</samplerate>
									</samplecharacteristics>
									<channelcount>1</channelcount>
									<layout>mono</layout>
									<audiochannel>
										<sourcechannel>4</sourcechannel>
										<channellabel>discrete</channellabel>
									</audiochannel>
								</audio>
								<audio>
									<samplecharacteristics>
										<depth>16</depth>
										<samplerate>48000</samplerate>
									</samplecharacteristics>
									<channelcount>1</channelcount>
									<layout>mono</layout>
									<audiochannel>
										<sourcechannel>5</sourcechannel>
										<channellabel>discrete</channellabel>
									</audiochannel>
								</audio>
								<audio>
									<samplecharacteristics>
										<depth>16</depth>
										<samplerate>48000</samplerate>
									</samplecharacteristics>
									<channelcount>1</channelcount>
									<layout>mono</layout>
									<audiochannel>
										<sourcechannel>6</sourcechannel>
										<channellabel>discrete</channellabel>
									</audiochannel>
								</audio>
								<audio>
									<samplecharacteristics>
										<depth>16</depth>
										<samplerate>48000</samplerate>
									</samplecharacteristics>
									<channelcount>1</channelcount>
									<layout>mono</layout>
									<audiochannel>
										<sourcechannel>7</sourcechannel>
										<channellabel>discrete</channellabel>
									</audiochannel>
								</audio>
								<audio>
									<samplecharacteristics>
										<depth>16</depth>
										<samplerate>48000</samplerate>
									</samplecharacteristics>
									<channelcount>1</channelcount>
									<layout>mono</layout>
									<audiochannel>
										<sourcechannel>8</sourcechannel>
										<channellabel>discrete</channellabel>
									</audiochannel>
								</audio>
							</media>
						</file>
					</clipitem>
					<clipitem id="clipitem-16" frameBlend="FALSE">
						<masterclipid>masterclip-8</masterclipid>
						<name>mktf-film-munchen-A01.MXF</name>
						<enabled>TRUE</enabled>
						<duration>21900</duration>
						<rate>
							<ntsc>TRUE</ntsc>
							<timebase>30</timebase>
						</rate>
						<start>16771</start>
						<end>16796</end>
						<in>15424</in>
						<out>15449</out>
						<alphatype>none</alphatype>
						<file id="file-8"/>
					</clipitem>
					<clipitem id="clipitem-17" frameBlend="FALSE">
						<masterclipid>masterclip-8</masterclipid>
						<name>mktf-film-munchen-A01.MXF</name>
						<enabled>TRUE</enabled>
						<duration>21900</duration>
						<rate>
							<ntsc>TRUE</ntsc>
							<timebase>30</timebase>
						</rate>
						<start>16899</start>
						<end>18393</end>
						<in>15607</in>
						<out>17101</out>
						<alphatype>none</alphatype>
						<file id="file-8"/>
					</clipitem>
					<clipitem id="clipitem-18" frameBlend="FALSE">
						<masterclipid>masterclip-8</masterclipid>
						<name>mktf-film-munchen-A01.MXF</name>
						<enabled>TRUE</enabled>
						<duration>21900</duration>
						<rate>
							<ntsc>TRUE</ntsc>
							<timebase>30</timebase>
						</rate>
						<start>18394</start>
						<end>18538</end>
						<in>17389</in>
						<out>17533</out>
						<alphatype>none</alphatype>
						<file id="file-8"/>
						<link>
							<linkclipref>clipitem-18</linkclipref>
							<mediatype>video</mediatype>
							<trackindex>1</trackindex>
							<clipindex>22</clipindex>
						</link>
						<link>
							<linkclipref>clipitem-413</linkclipref>
							<mediatype>audio</mediatype>
							<trackindex>1</trackindex>
							<clipindex>16</clipindex>
							<groupindex>1</groupindex>
						</link>
						<link>
							<linkclipref>clipitem-481</linkclipref>
							<mediatype>audio</mediatype>
							<trackindex>2</trackindex>
							<clipindex>10</clipindex>
							<groupindex>1</groupindex>
						</link>
					</clipitem>
					<clipitem id="clipitem-19" frameBlend="FALSE">
						<masterclipid>masterclip-8</masterclipid>
						<name>mktf-film-munchen-A01.MXF</name>
						<enabled>TRUE</enabled>
						<duration>21900</duration>
						<rate>
							<ntsc>TRUE</ntsc>
							<timebase>30</timebase>
						</rate>
						<start>18538</start>
						<end>18737</end>
						<in>18407</in>
						<out>18606</out>
						<alphatype>none</alphatype>
						<file id="file-8"/>
						<link>
							<linkclipref>clipitem-19</linkclipref>
							<mediatype>video</mediatype>
							<trackindex>1</trackindex>
							<clipindex>23</clipindex>
						</link>
						<link>
							<linkclipref>clipitem-414</linkclipref>
							<mediatype>audio</mediatype>
							<trackindex>1</trackindex>
							<clipindex>17</clipindex>
							<groupindex>1</groupindex>
						</link>
						<link>
							<linkclipref>clipitem-482</linkclipref>
							<mediatype>audio</mediatype>
							<trackindex>2</trackindex>
							<clipindex>11</clipindex>
							<groupindex>1</groupindex>
						</link>
					</clipitem>
					<clipitem id="clipitem-20" frameBlend="FALSE">
						<masterclipid>masterclip-8</masterclipid>
						<name>mktf-film-munchen-A01.MXF</name>
						<enabled>FALSE</enabled>
						<duration>21900</duration>
						<rate>
							<ntsc>TRUE</ntsc>
							<timebase>30</timebase>
						</rate>
						<start>18737</start>
						<end>18778</end>
						<in>18641</in>
						<out>18682</out>
						<alphatype>none</alphatype>
						<file id="file-8"/>
						<link>
							<linkclipref>clipitem-20</linkclipref>
							<mediatype>video</mediatype>
							<trackindex>1</trackindex>
							<clipindex>24</clipindex>
						</link>
						<link>
							<linkclipref>clipitem-415</linkclipref>
							<mediatype>audio</mediatype>
							<trackindex>1</trackindex>
							<clipindex>18</clipindex>
							<groupindex>1</groupindex>
						</link>
						<link>
							<linkclipref>clipitem-483</linkclipref>
							<mediatype>audio</mediatype>
							<trackindex>2</trackindex>
							<clipindex>12</clipindex>
							<groupindex>1</groupindex>
						</link>
					</clipitem>
					<clipitem id="clipitem-21" frameBlend="FALSE">
						<masterclipid>masterclip-8</masterclipid>
						<name>mktf-film-munchen-A01.MXF</name>
						<enabled>FALSE</enabled>
						<duration>21900</duration>
						<rate>
							<ntsc>TRUE</ntsc>
							<timebase>30</timebase>
						</rate>
						<start>18778</start>
						<end>18831</end>
						<in>18780</in>
						<out>18833</out>
						<alphatype>none</alphatype>
						<file id="file-8"/>
						<link>
							<linkclipref>clipitem-21</linkclipref>
							<mediatype>video</mediatype>
							<trackindex>1</trackindex>
							<clipindex>25</clipindex>
						</link>
						<link>
							<linkclipref>clipitem-416</linkclipref>
							<mediatype>audio</mediatype>
							<trackindex>1</trackindex>
							<clipindex>19</clipindex>
							<groupindex>1</groupindex>
						</link>
						<link>
							<linkclipref>clipitem-484</linkclipref>
							<mediatype>audio</mediatype>
							<trackindex>2</trackindex>
							<clipindex>13</clipindex>
							<groupindex>1</groupindex>
						</link>
					</clipitem>
					<clipitem id="clipitem-22" frameBlend="FALSE">
						<masterclipid>masterclip-8</masterclipid>
						<name>mktf-film-munchen-A01.MXF</name>
						<enabled>FALSE</enabled>
						<duration>21900</duration>
						<rate>
							<ntsc>TRUE</ntsc>
							<timebase>30</timebase>
						</rate>
						<start>18831</start>
						<end>19033</end>
						<in>18893</in>
						<out>19095</out>
						<alphatype>none</alphatype>
						<file id="file-8"/>
						<link>
							<linkclipref>clipitem-22</linkclipref>
							<mediatype>video</mediatype>
							<trackindex>1</trackindex>
							<clipindex>26</clipindex>
						</link>
						<link>
							<linkclipref>clipitem-417</linkclipref>
							<mediatype>audio</mediatype>
							<trackindex>1</trackindex>
							<clipindex>20</clipindex>
							<groupindex>1</groupindex>
						</link>
						<link>
							<linkclipref>clipitem-485</linkclipref>
							<mediatype>audio</mediatype>
							<trackindex>2</trackindex>
							<clipindex>14</clipindex>
							<groupindex>1</groupindex>
						</link>
					</clipitem>
					<clipitem id="clipitem-23" frameBlend="FALSE">
						<masterclipid>masterclip-8</masterclipid>
						<name>mktf-film-munchen-A01.MXF</name>
						<enabled>TRUE</enabled>
						<duration>21900</duration>
						<rate>
							<ntsc>TRUE</ntsc>
							<timebase>30</timebase>
						</rate>
						<start>19080</start>
						<end>19235</end>
						<in>19166</in>
						<out>19321</out>
						<alphatype>none</alphatype>
						<file id="file-8"/>
						<link>
							<linkclipref>clipitem-23</linkclipref>
							<mediatype>video</mediatype>
							<trackindex>1</trackindex>
							<clipindex>27</clipindex>
						</link>
						<link>
							<linkclipref>clipitem-418</linkclipref>
							<mediatype>audio</mediatype>
							<trackindex>1</trackindex>
							<clipindex>21</clipindex>
							<groupindex>1</groupindex>
						</link>
						<link>
							<linkclipref>clipitem-486</linkclipref>
							<mediatype>audio</mediatype>
							<trackindex>2</trackindex>
							<clipindex>15</clipindex>
							<groupindex>1</groupindex>
						</link>
					</clipitem>
					<clipitem id="clipitem-24" frameBlend="FALSE">
						<masterclipid>masterclip-9</masterclipid>
						<name>MVI_1583.mov</name>
						<enabled>TRUE</enabled>
						<duration>18696</duration>
						<rate>
							<timebase>25</timebase>
							<ntsc>FALSE</ntsc>
						</rate>
						<start>19735</start>
						<end>19792</end>
						<in>17169</in>
						<out>17226</out>
						<alphatype>none</alphatype>
						<pixelaspectratio>square</pixelaspectratio>
						<anamorphic>FALSE</anamorphic>
						<file id="file-9">
							<name>MVI_1583.mov</name>
							<pathurl>file://localhost/Volumes/Scenen/Prosjekter/FILM/FILM%201413%20Jodorowsky%20BW/Video/MVI_1583.mov</pathurl>
							<rate>
								<timebase>25</timebase>
								<ntsc>FALSE</ntsc>
							</rate>
							<duration>18696</duration>
							<timecode>
								<rate>
									<timebase>25</timebase>
									<ntsc>FALSE</ntsc>
								</rate>
								<string>15:07:28:00</string>
								<frame>1361200</frame>
								<displayformat>NDF</displayformat>
							</timecode>
							<media>
								<video>
									<duration>18000</duration>
									<samplecharacteristics>
										<rate>
											<timebase>25</timebase>
											<ntsc>FALSE</ntsc>
										</rate>
										<width>1920</width>
										<height>1080</height>
										<anamorphic>FALSE</anamorphic>
										<pixelaspectratio>square</pixelaspectratio>
										<fielddominance>none</fielddominance>
									</samplecharacteristics>
								</video>
								<audio>
									<samplecharacteristics>
										<depth>16</depth>
										<samplerate>48000</samplerate>
									</samplecharacteristics>
									<channelcount>1</channelcount>
									<layout>mono</layout>
									<audiochannel>
										<sourcechannel>1</sourcechannel>
										<channellabel>discrete</channellabel>
									</audiochannel>
								</audio>
								<audio>
									<samplecharacteristics>
										<depth>16</depth>
										<samplerate>48000</samplerate>
									</samplecharacteristics>
									<channelcount>1</channelcount>
									<layout>mono</layout>
									<audiochannel>
										<sourcechannel>2</sourcechannel>
										<channellabel>discrete</channellabel>
									</audiochannel>
								</audio>
							</media>
						</file>
					</clipitem>
					<clipitem id="clipitem-25" frameBlend="FALSE">
						<masterclipid>masterclip-9</masterclipid>
						<name>MVI_1583.mov</name>
						<enabled>TRUE</enabled>
						<duration>18696</duration>
						<rate>
							<ntsc>TRUE</ntsc>
							<timebase>30</timebase>
						</rate>
						<start>19792</start>
						<end>19914</end>
						<in>17778</in>
						<out>17900</out>
						<alphatype>none</alphatype>
						<file id="file-9"/>
					</clipitem>
					<clipitem id="clipitem-26" frameBlend="FALSE">
						<masterclipid>masterclip-8</masterclipid>
						<name>mktf-film-munchen-A01.MXF</name>
						<enabled>TRUE</enabled>
						<duration>21900</duration>
						<rate>
							<ntsc>TRUE</ntsc>
							<timebase>30</timebase>
						</rate>
						<start>20457</start>
						<end>20851</end>
						<in>5489</in>
						<out>5883</out>
						<alphatype>none</alphatype>
						<file id="file-8"/>
					</clipitem>
					<clipitem id="clipitem-27" frameBlend="FALSE">
						<masterclipid>masterclip-8</masterclipid>
						<name>mktf-film-munchen-A01.MXF</name>
						<enabled>TRUE</enabled>
						<duration>21900</duration>
						<rate>
							<ntsc>TRUE</ntsc>
							<timebase>30</timebase>
						</rate>
						<start>21027</start>
						<end>21085</end>
						<in>6102</in>
						<out>6160</out>
						<alphatype>none</alphatype>
						<file id="file-8"/>
					</clipitem>
					<clipitem id="clipitem-28" frameBlend="FALSE">
						<masterclipid>masterclip-8</masterclipid>
						<name>mktf-film-munchen-A01.MXF</name>
						<enabled>TRUE</enabled>
						<duration>21900</duration>
						<rate>
							<ntsc>TRUE</ntsc>
							<timebase>30</timebase>
						</rate>
						<start>21085</start>
						<end>21129</end>
						<in>6417</in>
						<out>6461</out>
						<alphatype>none</alphatype>
						<file id="file-8"/>
					</clipitem>
					<clipitem id="clipitem-29" frameBlend="FALSE">
						<masterclipid>masterclip-8</masterclipid>
						<name>mktf-film-munchen-A01.MXF</name>
						<enabled>TRUE</enabled>
						<duration>21900</duration>
						<rate>
							<ntsc>TRUE</ntsc>
							<timebase>30</timebase>
						</rate>
						<start>21129</start>
						<end>21176</end>
						<in>6479</in>
						<out>6526</out>
						<alphatype>none</alphatype>
						<file id="file-8"/>
					</clipitem>
					<clipitem id="clipitem-30" frameBlend="FALSE">
						<masterclipid>masterclip-8</masterclipid>
						<name>mktf-film-munchen-A01.MXF</name>
						<enabled>TRUE</enabled>
						<duration>21900</duration>
						<rate>
							<ntsc>TRUE</ntsc>
							<timebase>30</timebase>
						</rate>
						<start>21176</start>
						<end>21366</end>
						<in>6650</in>
						<out>6840</out>
						<alphatype>none</alphatype>
						<file id="file-8"/>
					</clipitem>
					<clipitem id="clipitem-31" frameBlend="FALSE">
						<masterclipid>masterclip-8</masterclipid>
						<name>mktf-film-munchen-A01.MXF</name>
						<enabled>TRUE</enabled>
						<duration>21900</duration>
						<rate>
							<ntsc>TRUE</ntsc>
							<timebase>30</timebase>
						</rate>
						<start>21545</start>
						<end>21942</end>
						<in>7032</in>
						<out>7429</out>
						<alphatype>none</alphatype>
						<file id="file-8"/>
					</clipitem>
					<clipitem id="clipitem-32" frameBlend="FALSE">
						<masterclipid>masterclip-6</masterclipid>
						<name>mktf-film-munchen-A03.MXF</name>
						<enabled>TRUE</enabled>
						<duration>26784</duration>
						<rate>
							<ntsc>TRUE</ntsc>
							<timebase>30</timebase>
						</rate>
						<start>21942</start>
						<end>22016</end>
						<in>6043</in>
						<out>6117</out>
						<alphatype>none</alphatype>
						<file id="file-6"/>
					</clipitem>
					<clipitem id="clipitem-33" frameBlend="FALSE">
						<masterclipid>masterclip-6</masterclipid>
						<name>mktf-film-munchen-A03.MXF</name>
						<enabled>TRUE</enabled>
						<duration>26784</duration>
						<rate>
							<ntsc>TRUE</ntsc>
							<timebase>30</timebase>
						</rate>
						<start>22016</start>
						<end>22059</end>
						<in>6117</in>
						<out>6160</out>
						<alphatype>none</alphatype>
						<file id="file-6"/>
						<link>
							<linkclipref>clipitem-33</linkclipref>
							<mediatype>video</mediatype>
							<trackindex>1</trackindex>
							<clipindex>37</clipindex>
						</link>
						<link>
							<linkclipref>clipitem-429</linkclipref>
							<mediatype>audio</mediatype>
							<trackindex>1</trackindex>
							<clipindex>33</clipindex>
							<groupindex>1</groupindex>
						</link>
						<link>
							<linkclipref>clipitem-497</linkclipref>
							<mediatype>audio</mediatype>
							<trackindex>2</trackindex>
							<clipindex>29</clipindex>
							<groupindex>1</groupindex>
						</link>
					</clipitem>
					<clipitem id="clipitem-34" frameBlend="FALSE">
						<masterclipid>masterclip-6</masterclipid>
						<name>mktf-film-munchen-A03.MXF</name>
						<enabled>TRUE</enabled>
						<duration>26784</duration>
						<rate>
							<ntsc>TRUE</ntsc>
							<timebase>30</timebase>
						</rate>
						<start>22059</start>
						<end>22418</end>
						<in>6169</in>
						<out>6528</out>
						<alphatype>none</alphatype>
						<file id="file-6"/>
						<link>
							<linkclipref>clipitem-34</linkclipref>
							<mediatype>video</mediatype>
							<trackindex>1</trackindex>
							<clipindex>38</clipindex>
						</link>
						<link>
							<linkclipref>clipitem-430</linkclipref>
							<mediatype>audio</mediatype>
							<trackindex>1</trackindex>
							<clipindex>34</clipindex>
							<groupindex>1</groupindex>
						</link>
						<link>
							<linkclipref>clipitem-498</linkclipref>
							<mediatype>audio</mediatype>
							<trackindex>2</trackindex>
							<clipindex>30</clipindex>
							<groupindex>1</groupindex>
						</link>
					</clipitem>
					<clipitem id="clipitem-35" frameBlend="FALSE">
						<masterclipid>masterclip-6</masterclipid>
						<name>mktf-film-munchen-A03.MXF</name>
						<enabled>TRUE</enabled>
						<duration>26784</duration>
						<rate>
							<ntsc>TRUE</ntsc>
							<timebase>30</timebase>
						</rate>
						<start>22418</start>
						<end>22671</end>
						<in>6581</in>
						<out>6834</out>
						<alphatype>none</alphatype>
						<file id="file-6"/>
						<link>
							<linkclipref>clipitem-35</linkclipref>
							<mediatype>video</mediatype>
							<trackindex>1</trackindex>
							<clipindex>39</clipindex>
						</link>
						<link>
							<linkclipref>clipitem-431</linkclipref>
							<mediatype>audio</mediatype>
							<trackindex>1</trackindex>
							<clipindex>35</clipindex>
							<groupindex>1</groupindex>
						</link>
						<link>
							<linkclipref>clipitem-499</linkclipref>
							<mediatype>audio</mediatype>
							<trackindex>2</trackindex>
							<clipindex>31</clipindex>
							<groupindex>1</groupindex>
						</link>
					</clipitem>
					<clipitem id="clipitem-36" frameBlend="FALSE">
						<masterclipid>masterclip-6</masterclipid>
						<name>mktf-film-munchen-A03.MXF</name>
						<enabled>TRUE</enabled>
						<duration>26784</duration>
						<rate>
							<ntsc>TRUE</ntsc>
							<timebase>30</timebase>
						</rate>
						<start>22671</start>
						<end>22773</end>
						<in>7153</in>
						<out>7255</out>
						<alphatype>none</alphatype>
						<file id="file-6"/>
						<link>
							<linkclipref>clipitem-36</linkclipref>
							<mediatype>video</mediatype>
							<trackindex>1</trackindex>
							<clipindex>40</clipindex>
						</link>
						<link>
							<linkclipref>clipitem-432</linkclipref>
							<mediatype>audio</mediatype>
							<trackindex>1</trackindex>
							<clipindex>36</clipindex>
							<groupindex>1</groupindex>
						</link>
						<link>
							<linkclipref>clipitem-500</linkclipref>
							<mediatype>audio</mediatype>
							<trackindex>2</trackindex>
							<clipindex>32</clipindex>
							<groupindex>1</groupindex>
						</link>
					</clipitem>
					<clipitem id="clipitem-37" frameBlend="FALSE">
						<masterclipid>masterclip-6</masterclipid>
						<name>mktf-film-munchen-A03.MXF</name>
						<enabled>TRUE</enabled>
						<duration>26784</duration>
						<rate>
							<ntsc>TRUE</ntsc>
							<timebase>30</timebase>
						</rate>
						<start>22773</start>
						<end>22836</end>
						<in>7356</in>
						<out>7419</out>
						<alphatype>none</alphatype>
						<file id="file-6"/>
						<link>
							<linkclipref>clipitem-37</linkclipref>
							<mediatype>video</mediatype>
							<trackindex>1</trackindex>
							<clipindex>41</clipindex>
						</link>
						<link>
							<linkclipref>clipitem-433</linkclipref>
							<mediatype>audio</mediatype>
							<trackindex>1</trackindex>
							<clipindex>37</clipindex>
							<groupindex>1</groupindex>
						</link>
						<link>
							<linkclipref>clipitem-501</linkclipref>
							<mediatype>audio</mediatype>
							<trackindex>2</trackindex>
							<clipindex>33</clipindex>
							<groupindex>1</groupindex>
						</link>
					</clipitem>
					<clipitem id="clipitem-38" frameBlend="FALSE">
						<masterclipid>masterclip-8</masterclipid>
						<name>mktf-film-munchen-A01.MXF</name>
						<enabled>TRUE</enabled>
						<duration>21900</duration>
						<rate>
							<ntsc>TRUE</ntsc>
							<timebase>30</timebase>
						</rate>
						<start>22836</start>
						<end>22880</end>
						<in>20208</in>
						<out>20252</out>
						<alphatype>none</alphatype>
						<file id="file-8"/>
					</clipitem>
					<clipitem id="clipitem-39" frameBlend="FALSE">
						<masterclipid>masterclip-8</masterclipid>
						<name>mktf-film-munchen-A01.MXF</name>
						<enabled>TRUE</enabled>
						<duration>21900</duration>
						<rate>
							<ntsc>TRUE</ntsc>
							<timebase>30</timebase>
						</rate>
						<start>22884</start>
						<end>23437</end>
						<in>20292</in>
						<out>20845</out>
						<alphatype>none</alphatype>
						<file id="file-8"/>
					</clipitem>
					<clipitem id="clipitem-40" frameBlend="FALSE">
						<masterclipid>masterclip-8</masterclipid>
						<name>mktf-film-munchen-A01.MXF</name>
						<enabled>TRUE</enabled>
						<duration>21900</duration>
						<rate>
							<ntsc>TRUE</ntsc>
							<timebase>30</timebase>
						</rate>
						<start>23437</start>
						<end>23469</end>
						<in>21440</in>
						<out>21472</out>
						<alphatype>none</alphatype>
						<file id="file-8"/>
					</clipitem>
					<clipitem id="clipitem-41" frameBlend="FALSE">
						<masterclipid>masterclip-8</masterclipid>
						<name>mktf-film-munchen-A01.MXF</name>
						<enabled>TRUE</enabled>
						<duration>21900</duration>
						<rate>
							<ntsc>TRUE</ntsc>
							<timebase>30</timebase>
						</rate>
						<start>23469</start>
						<end>23744</end>
						<in>21508</in>
						<out>21783</out>
						<alphatype>none</alphatype>
						<file id="file-8"/>
					</clipitem>
					<clipitem id="clipitem-42" frameBlend="FALSE">
						<masterclipid>masterclip-10</masterclipid>
						<name>mktf-film-erikpoppe-r01.MXF</name>
						<enabled>TRUE</enabled>
						<duration>3060</duration>
						<rate>
							<timebase>25</timebase>
							<ntsc>FALSE</ntsc>
						</rate>
						<start>24728</start>
						<end>24806</end>
						<in>788</in>
						<out>866</out>
						<alphatype>none</alphatype>
						<pixelaspectratio>square</pixelaspectratio>
						<anamorphic>FALSE</anamorphic>
						<file id="file-10">
							<name>mktf-film-erikpoppe-r01.MXF</name>
							<pathurl>file://localhost/Volumes/omfs/clip.dir/MXF/1080i/mktf-film-erikpoppe-r01.MXF</pathurl>
							<rate>
								<timebase>25</timebase>
								<ntsc>FALSE</ntsc>
							</rate>
							<duration>3060</duration>
							<timecode>
								<rate>
									<timebase>25</timebase>
									<ntsc>FALSE</ntsc>
								</rate>
								<string>00:24:15:09</string>
								<frame>36384</frame>
								<displayformat>NDF</displayformat>
							</timecode>
							<media>
								<video>
									<duration>18000</duration>
									<samplecharacteristics>
										<rate>
											<timebase>25</timebase>
											<ntsc>FALSE</ntsc>
										</rate>
										<width>1920</width>
										<height>1080</height>
										<anamorphic>FALSE</anamorphic>
										<pixelaspectratio>square</pixelaspectratio>
										<fielddominance>none</fielddominance>
									</samplecharacteristics>
								</video>
								<audio>
									<samplecharacteristics>
										<depth>16</depth>
										<samplerate>48000</samplerate>
									</samplecharacteristics>
									<channelcount>1</channelcount>
									<layout>mono</layout>
									<audiochannel>
										<sourcechannel>1</sourcechannel>
										<channellabel>discrete</channellabel>
									</audiochannel>
								</audio>
								<audio>
									<samplecharacteristics>
										<depth>16</depth>
										<samplerate>48000</samplerate>
									</samplecharacteristics>
									<channelcount>1</channelcount>
									<layout>mono</layout>
									<audiochannel>
										<sourcechannel>2</sourcechannel>
										<channellabel>discrete</channellabel>
									</audiochannel>
								</audio>
							</media>
						</file>
						<link>
							<linkclipref>clipitem-42</linkclipref>
							<mediatype>video</mediatype>
							<trackindex>1</trackindex>
							<clipindex>46</clipindex>
						</link>
						<link>
							<linkclipref>clipitem-440</linkclipref>
							<mediatype>audio</mediatype>
							<trackindex>1</trackindex>
							<clipindex>45</clipindex>
							<groupindex>1</groupindex>
						</link>
						<link>
							<linkclipref>clipitem-508</linkclipref>
							<mediatype>audio</mediatype>
							<trackindex>2</trackindex>
							<clipindex>41</clipindex>
							<groupindex>1</groupindex>
						</link>
					</clipitem>
					<clipitem id="clipitem-43" frameBlend="FALSE">
						<masterclipid>masterclip-10</masterclipid>
						<name>mktf-film-erikpoppe-r01.MXF</name>
						<enabled>TRUE</enabled>
						<duration>3060</duration>
						<rate>
							<ntsc>TRUE</ntsc>
							<timebase>30</timebase>
						</rate>
						<start>24806</start>
						<end>24868</end>
						<in>2872</in>
						<out>2934</out>
						<alphatype>none</alphatype>
						<file id="file-10"/>
						<link>
							<linkclipref>clipitem-43</linkclipref>
							<mediatype>video</mediatype>
							<trackindex>1</trackindex>
							<clipindex>47</clipindex>
						</link>
						<link>
							<linkclipref>clipitem-441</linkclipref>
							<mediatype>audio</mediatype>
							<trackindex>1</trackindex>
							<clipindex>46</clipindex>
							<groupindex>1</groupindex>
						</link>
						<link>
							<linkclipref>clipitem-509</linkclipref>
							<mediatype>audio</mediatype>
							<trackindex>2</trackindex>
							<clipindex>42</clipindex>
							<groupindex>1</groupindex>
						</link>
					</clipitem>
					<clipitem id="clipitem-44" frameBlend="FALSE">
						<masterclipid>masterclip-11</masterclipid>
						<name>mktf-film-erikpoppe-r02.MXF</name>
						<enabled>TRUE</enabled>
						<duration>4548</duration>
						<rate>
							<timebase>25</timebase>
							<ntsc>FALSE</ntsc>
						</rate>
						<start>24868</start>
						<end>-1</end>
						<in>426</in>
						<out>553</out>
						<alphatype>none</alphatype>
						<pixelaspectratio>square</pixelaspectratio>
						<anamorphic>FALSE</anamorphic>
						<file id="file-11">
							<name>mktf-film-erikpoppe-r02.MXF</name>
							<pathurl>file://localhost/Volumes/omfs/clip.dir/MXF/1080i/mktf-film-erikpoppe-r02.MXF</pathurl>
							<rate>
								<timebase>25</timebase>
								<ntsc>FALSE</ntsc>
							</rate>
							<duration>4548</duration>
							<timecode>
								<rate>
									<timebase>25</timebase>
									<ntsc>FALSE</ntsc>
								</rate>
								<string>00:26:17:19</string>
								<frame>39444</frame>
								<displayformat>NDF</displayformat>
							</timecode>
							<media>
								<video>
									<duration>18000</duration>
									<samplecharacteristics>
										<rate>
											<timebase>25</timebase>
											<ntsc>FALSE</ntsc>
										</rate>
										<width>1920</width>
										<height>1080</height>
										<anamorphic>FALSE</anamorphic>
										<pixelaspectratio>square</pixelaspectratio>
										<fielddominance>none</fielddominance>
									</samplecharacteristics>
								</video>
								<audio>
									<samplecharacteristics>
										<depth>16</depth>
										<samplerate>48000</samplerate>
									</samplecharacteristics>
									<channelcount>1</channelcount>
									<layout>mono</layout>
									<audiochannel>
										<sourcechannel>1</sourcechannel>
										<channellabel>discrete</channellabel>
									</audiochannel>
								</audio>
								<audio>
									<samplecharacteristics>
										<depth>16</depth>
										<samplerate>48000</samplerate>
									</samplecharacteristics>
									<channelcount>1</channelcount>
									<layout>mono</layout>
									<audiochannel>
										<sourcechannel>2</sourcechannel>
										<channellabel>discrete</channellabel>
									</audiochannel>
								</audio>
							</media>
						</file>
						<link>
							<linkclipref>clipitem-44</linkclipref>
							<mediatype>video</mediatype>
							<trackindex>1</trackindex>
							<clipindex>48</clipindex>
						</link>
						<link>
							<linkclipref>clipitem-442</linkclipref>
							<mediatype>audio</mediatype>
							<trackindex>1</trackindex>
							<clipindex>47</clipindex>
							<groupindex>1</groupindex>
						</link>
						<link>
							<linkclipref>clipitem-510</linkclipref>
							<mediatype>audio</mediatype>
							<trackindex>2</trackindex>
							<clipindex>43</clipindex>
							<groupindex>1</groupindex>
						</link>
					</clipitem>
					<transitionitem>
						<start>24981</start>
						<end>24995</end>
						<alignment>start</alignment>
						<cutPoint>1</cutPoint>
						<rate>
							<timebase>25</timebase>
							<ntsc>FALSE</ntsc>
						</rate>
						<effect>
							<name>Cross Dissolve</name>
							<effectid>Cross Dissolve</effectid>
							<effectcategory>Dissolve</effectcategory>
							<effecttype>transition</effecttype>
							<mediatype>video</mediatype>
							<wipecode>0</wipecode>
							<wipeaccuracy>100</wipeaccuracy>
							<startratio>0</startratio>
							<endratio>1</endratio>
							<reverse>FALSE</reverse>
						</effect>
					</transitionitem>
					<clipitem id="clipitem-45" frameBlend="FALSE">
						<masterclipid>masterclip-11</masterclipid>
						<name>mktf-film-erikpoppe-r02.MXF</name>
						<enabled>TRUE</enabled>
						<duration>4548</duration>
						<rate>
							<ntsc>TRUE</ntsc>
							<timebase>30</timebase>
						</rate>
						<start>-1</start>
						<end>25312</end>
						<in>539</in>
						<out>870</out>
						<alphatype>none</alphatype>
						<file id="file-11"/>
							<filter>
								<effect>
									<name>Gaussian Blur</name>
									<effectid>Gaussian Blur</effectid>
									<effectcategory>Blur</effectcategory>
									<effecttype>motion</effecttype>
									<mediatype>video</mediatype>
									<parameter authoringApp="PremierePro">
										<parameterid>radius</parameterid>
										<name>Radius</name>
										<valuemin>0</valuemin>
										<valuemax>100</valuemax>
										<value>0</value>
									</parameter>
								</effect>
							</filter>
					</clipitem>
					<clipitem id="clipitem-46" frameBlend="FALSE">
						<masterclipid>masterclip-12</masterclipid>
						<name>mktf-film-erikpoppe-r03.MXF</name>
						<enabled>TRUE</enabled>
						<duration>35028</duration>
						<rate>
							<timebase>25</timebase>
							<ntsc>FALSE</ntsc>
						</rate>
						<start>25312</start>
						<end>25901</end>
						<in>8225</in>
						<out>8814</out>
						<alphatype>none</alphatype>
						<pixelaspectratio>square</pixelaspectratio>
						<anamorphic>FALSE</anamorphic>
						<file id="file-12">
							<name>mktf-film-erikpoppe-r03.MXF</name>
							<pathurl>file://localhost/Volumes/omfs/clip.dir/MXF/1080i/mktf-film-erikpoppe-r03.MXF</pathurl>
							<rate>
								<timebase>25</timebase>
								<ntsc>FALSE</ntsc>
							</rate>
							<duration>35028</duration>
							<timecode>
								<rate>
									<timebase>25</timebase>
									<ntsc>FALSE</ntsc>
								</rate>
								<string>00:29:19:17</string>
								<frame>43992</frame>
								<displayformat>NDF</displayformat>
							</timecode>
							<media>
								<video>
									<duration>18000</duration>
									<samplecharacteristics>
										<rate>
											<timebase>25</timebase>
											<ntsc>FALSE</ntsc>
										</rate>
										<width>1920</width>
										<height>1080</height>
										<anamorphic>FALSE</anamorphic>
										<pixelaspectratio>square</pixelaspectratio>
										<fielddominance>none</fielddominance>
									</samplecharacteristics>
								</video>
								<audio>
									<samplecharacteristics>
										<depth>16</depth>
										<samplerate>48000</samplerate>
									</samplecharacteristics>
									<channelcount>1</channelcount>
									<layout>mono</layout>
									<audiochannel>
										<sourcechannel>1</sourcechannel>
										<channellabel>discrete</channellabel>
									</audiochannel>
								</audio>
								<audio>
									<samplecharacteristics>
										<depth>16</depth>
										<samplerate>48000</samplerate>
									</samplecharacteristics>
									<channelcount>1</channelcount>
									<layout>mono</layout>
									<audiochannel>
										<sourcechannel>2</sourcechannel>
										<channellabel>discrete</channellabel>
									</audiochannel>
								</audio>
							</media>
						</file>
						<link>
							<linkclipref>clipitem-46</linkclipref>
							<mediatype>video</mediatype>
							<trackindex>1</trackindex>
							<clipindex>51</clipindex>
						</link>
						<link>
							<linkclipref>clipitem-445</linkclipref>
							<mediatype>audio</mediatype>
							<trackindex>1</trackindex>
							<clipindex>50</clipindex>
							<groupindex>1</groupindex>
						</link>
						<link>
							<linkclipref>clipitem-513</linkclipref>
							<mediatype>audio</mediatype>
							<trackindex>2</trackindex>
							<clipindex>46</clipindex>
							<groupindex>1</groupindex>
						</link>
					</clipitem>
					<clipitem id="clipitem-47" frameBlend="FALSE">
						<masterclipid>masterclip-12</masterclipid>
						<name>mktf-film-erikpoppe-r03.MXF</name>
						<enabled>TRUE</enabled>
						<duration>35028</duration>
						<rate>
							<ntsc>TRUE</ntsc>
							<timebase>30</timebase>
						</rate>
						<start>25940</start>
						<end>26000</end>
						<in>10182</in>
						<out>10242</out>
						<alphatype>none</alphatype>
						<file id="file-12"/>
						<link>
							<linkclipref>clipitem-47</linkclipref>
							<mediatype>video</mediatype>
							<trackindex>1</trackindex>
							<clipindex>52</clipindex>
						</link>
						<link>
							<linkclipref>clipitem-446</linkclipref>
							<mediatype>audio</mediatype>
							<trackindex>1</trackindex>
							<clipindex>51</clipindex>
							<groupindex>1</groupindex>
						</link>
						<link>
							<linkclipref>clipitem-514</linkclipref>
							<mediatype>audio</mediatype>
							<trackindex>2</trackindex>
							<clipindex>47</clipindex>
							<groupindex>1</groupindex>
						</link>
					</clipitem>
					<clipitem id="clipitem-48" frameBlend="FALSE">
						<masterclipid>masterclip-12</masterclipid>
						<name>mktf-film-erikpoppe-r03.MXF</name>
						<enabled>TRUE</enabled>
						<duration>35028</duration>
						<rate>
							<ntsc>TRUE</ntsc>
							<timebase>30</timebase>
						</rate>
						<start>26273</start>
						<end>27914</end>
						<in>10515</in>
						<out>12156</out>
						<alphatype>none</alphatype>
						<file id="file-12"/>
					</clipitem>
					<clipitem id="clipitem-49" frameBlend="FALSE">
						<masterclipid>masterclip-12</masterclipid>
						<name>mktf-film-erikpoppe-r03.MXF</name>
						<enabled>TRUE</enabled>
						<duration>35028</duration>
						<rate>
							<ntsc>TRUE</ntsc>
							<timebase>30</timebase>
						</rate>
						<start>28733</start>
						<end>28831</end>
						<in>19705</in>
						<out>19803</out>
						<alphatype>none</alphatype>
						<file id="file-12"/>
						<link>
							<linkclipref>clipitem-49</linkclipref>
							<mediatype>video</mediatype>
							<trackindex>1</trackindex>
							<clipindex>54</clipindex>
						</link>
						<link>
							<linkclipref>clipitem-447</linkclipref>
							<mediatype>audio</mediatype>
							<trackindex>1</trackindex>
							<clipindex>52</clipindex>
							<groupindex>1</groupindex>
						</link>
						<link>
							<linkclipref>clipitem-515</linkclipref>
							<mediatype>audio</mediatype>
							<trackindex>2</trackindex>
							<clipindex>48</clipindex>
							<groupindex>1</groupindex>
						</link>
					</clipitem>
					<clipitem id="clipitem-50" frameBlend="FALSE">
						<masterclipid>masterclip-12</masterclipid>
						<name>mktf-film-erikpoppe-r03.MXF</name>
						<enabled>TRUE</enabled>
						<duration>35028</duration>
						<rate>
							<ntsc>TRUE</ntsc>
							<timebase>30</timebase>
						</rate>
						<start>28831</start>
						<end>29382</end>
						<in>19803</in>
						<out>20354</out>
						<alphatype>none</alphatype>
						<file id="file-12"/>
					</clipitem>
					<clipitem id="clipitem-51" frameBlend="FALSE">
						<masterclipid>masterclip-12</masterclipid>
						<name>mktf-film-erikpoppe-r03.MXF</name>
						<enabled>TRUE</enabled>
						<duration>35028</duration>
						<rate>
							<ntsc>TRUE</ntsc>
							<timebase>30</timebase>
						</rate>
						<start>29393</start>
						<end>29424</end>
						<in>23530</in>
						<out>23561</out>
						<alphatype>none</alphatype>
						<file id="file-12"/>
						<link>
							<linkclipref>clipitem-51</linkclipref>
							<mediatype>video</mediatype>
							<trackindex>1</trackindex>
							<clipindex>56</clipindex>
						</link>
						<link>
							<linkclipref>clipitem-450</linkclipref>
							<mediatype>audio</mediatype>
							<trackindex>1</trackindex>
							<clipindex>56</clipindex>
							<groupindex>1</groupindex>
						</link>
						<link>
							<linkclipref>clipitem-517</linkclipref>
							<mediatype>audio</mediatype>
							<trackindex>2</trackindex>
							<clipindex>51</clipindex>
							<groupindex>1</groupindex>
						</link>
					</clipitem>
					<clipitem id="clipitem-52" frameBlend="FALSE">
						<masterclipid>masterclip-12</masterclipid>
						<name>mktf-film-erikpoppe-r03.MXF</name>
						<enabled>TRUE</enabled>
						<duration>35028</duration>
						<rate>
							<ntsc>TRUE</ntsc>
							<timebase>30</timebase>
						</rate>
						<start>29424</start>
						<end>29531</end>
						<in>23561</in>
						<out>23668</out>
						<alphatype>none</alphatype>
						<file id="file-12"/>
					</clipitem>
					<clipitem id="clipitem-53" frameBlend="FALSE">
						<masterclipid>masterclip-12</masterclipid>
						<name>mktf-film-erikpoppe-r03.MXF</name>
						<enabled>TRUE</enabled>
						<duration>35028</duration>
						<rate>
							<ntsc>TRUE</ntsc>
							<timebase>30</timebase>
						</rate>
						<start>29531</start>
						<end>31005</end>
						<in>23720</in>
						<out>25194</out>
						<alphatype>none</alphatype>
						<file id="file-12"/>
						<link>
							<linkclipref>clipitem-53</linkclipref>
							<mediatype>video</mediatype>
							<trackindex>1</trackindex>
							<clipindex>58</clipindex>
						</link>
						<link>
							<linkclipref>clipitem-451</linkclipref>
							<mediatype>audio</mediatype>
							<trackindex>1</trackindex>
							<clipindex>57</clipindex>
							<groupindex>1</groupindex>
						</link>
						<link>
							<linkclipref>clipitem-519</linkclipref>
							<mediatype>audio</mediatype>
							<trackindex>2</trackindex>
							<clipindex>53</clipindex>
							<groupindex>1</groupindex>
						</link>
					</clipitem>
					<clipitem id="clipitem-54" frameBlend="FALSE">
						<masterclipid>masterclip-12</masterclipid>
						<name>mktf-film-erikpoppe-r03.MXF</name>
						<enabled>TRUE</enabled>
						<duration>35028</duration>
						<rate>
							<ntsc>TRUE</ntsc>
							<timebase>30</timebase>
						</rate>
						<start>31228</start>
						<end>32368</end>
						<in>25453</in>
						<out>26593</out>
						<alphatype>none</alphatype>
						<file id="file-12"/>
					</clipitem>
					<clipitem id="clipitem-55" frameBlend="FALSE">
						<masterclipid>masterclip-12</masterclipid>
						<name>mktf-film-erikpoppe-r03.MXF</name>
						<enabled>TRUE</enabled>
						<duration>35028</duration>
						<rate>
							<ntsc>TRUE</ntsc>
							<timebase>30</timebase>
						</rate>
						<start>32368</start>
						<end>33799</end>
						<in>28498</in>
						<out>29929</out>
						<alphatype>none</alphatype>
						<file id="file-12"/>
						<link>
							<linkclipref>clipitem-55</linkclipref>
							<mediatype>video</mediatype>
							<trackindex>1</trackindex>
							<clipindex>60</clipindex>
						</link>
						<link>
							<linkclipref>clipitem-453</linkclipref>
							<mediatype>audio</mediatype>
							<trackindex>1</trackindex>
							<clipindex>59</clipindex>
							<groupindex>1</groupindex>
						</link>
						<link>
							<linkclipref>clipitem-521</linkclipref>
							<mediatype>audio</mediatype>
							<trackindex>2</trackindex>
							<clipindex>55</clipindex>
							<groupindex>1</groupindex>
						</link>
					</clipitem>
					<clipitem id="clipitem-56" frameBlend="FALSE">
						<masterclipid>masterclip-13</masterclipid>
						<name>mktf-film-visjonar-r30.MXF</name>
						<enabled>TRUE</enabled>
						<duration>1116</duration>
						<rate>
							<timebase>25</timebase>
							<ntsc>FALSE</ntsc>
						</rate>
						<start>33937</start>
						<end>34174</end>
						<in>127</in>
						<out>364</out>
						<alphatype>none</alphatype>
						<pixelaspectratio>square</pixelaspectratio>
						<anamorphic>FALSE</anamorphic>
						<file id="file-13">
							<name>mktf-film-visjonar-r30.MXF</name>
							<pathurl>file://localhost/Volumes/omfs/clip.dir/MXF/1080i/mktf-film-visjonar-r30.MXF</pathurl>
							<rate>
								<timebase>25</timebase>
								<ntsc>FALSE</ntsc>
							</rate>
							<duration>1116</duration>
							<timecode>
								<rate>
									<timebase>25</timebase>
									<ntsc>FALSE</ntsc>
								</rate>
								<string>08:21:56:16</string>
								<frame>752916</frame>
								<displayformat>NDF</displayformat>
							</timecode>
							<media>
								<video>
									<duration>18000</duration>
									<samplecharacteristics>
										<rate>
											<timebase>25</timebase>
											<ntsc>FALSE</ntsc>
										</rate>
										<width>1920</width>
										<height>1080</height>
										<anamorphic>FALSE</anamorphic>
										<pixelaspectratio>square</pixelaspectratio>
										<fielddominance>none</fielddominance>
									</samplecharacteristics>
								</video>
								<audio>
									<samplecharacteristics>
										<depth>16</depth>
										<samplerate>48000</samplerate>
									</samplecharacteristics>
									<channelcount>1</channelcount>
									<layout>mono</layout>
									<audiochannel>
										<sourcechannel>1</sourcechannel>
										<channellabel>discrete</channellabel>
									</audiochannel>
								</audio>
								<audio>
									<samplecharacteristics>
										<depth>16</depth>
										<samplerate>48000</samplerate>
									</samplecharacteristics>
									<channelcount>1</channelcount>
									<layout>mono</layout>
									<audiochannel>
										<sourcechannel>2</sourcechannel>
										<channellabel>discrete</channellabel>
									</audiochannel>
								</audio>
								<audio>
									<samplecharacteristics>
										<depth>16</depth>
										<samplerate>48000</samplerate>
									</samplecharacteristics>
									<channelcount>1</channelcount>
									<layout>mono</layout>
									<audiochannel>
										<sourcechannel>3</sourcechannel>
										<channellabel>discrete</channellabel>
									</audiochannel>
								</audio>
								<audio>
									<samplecharacteristics>
										<depth>16</depth>
										<samplerate>48000</samplerate>
									</samplecharacteristics>
									<channelcount>1</channelcount>
									<layout>mono</layout>
									<audiochannel>
										<sourcechannel>4</sourcechannel>
										<channellabel>discrete</channellabel>
									</audiochannel>
								</audio>
								<audio>
									<samplecharacteristics>
										<depth>16</depth>
										<samplerate>48000</samplerate>
									</samplecharacteristics>
									<channelcount>1</channelcount>
									<layout>mono</layout>
									<audiochannel>
										<sourcechannel>5</sourcechannel>
										<channellabel>discrete</channellabel>
									</audiochannel>
								</audio>
								<audio>
									<samplecharacteristics>
										<depth>16</depth>
										<samplerate>48000</samplerate>
									</samplecharacteristics>
									<channelcount>1</channelcount>
									<layout>mono</layout>
									<audiochannel>
										<sourcechannel>6</sourcechannel>
										<channellabel>discrete</channellabel>
									</audiochannel>
								</audio>
								<audio>
									<samplecharacteristics>
										<depth>16</depth>
										<samplerate>48000</samplerate>
									</samplecharacteristics>
									<channelcount>1</channelcount>
									<layout>mono</layout>
									<audiochannel>
										<sourcechannel>7</sourcechannel>
										<channellabel>discrete</channellabel>
									</audiochannel>
								</audio>
								<audio>
									<samplecharacteristics>
										<depth>16</depth>
										<samplerate>48000</samplerate>
									</samplecharacteristics>
									<channelcount>1</channelcount>
									<layout>mono</layout>
									<audiochannel>
										<sourcechannel>8</sourcechannel>
										<channellabel>discrete</channellabel>
									</audiochannel>
								</audio>
							</media>
						</file>
					</clipitem>
					<clipitem id="clipitem-57" frameBlend="FALSE">
						<masterclipid>masterclip-13</masterclipid>
						<name>mktf-film-visjonar-r30.MXF</name>
						<enabled>TRUE</enabled>
						<duration>1116</duration>
						<rate>
							<ntsc>TRUE</ntsc>
							<timebase>30</timebase>
						</rate>
						<start>34174</start>
						<end>34679</end>
						<in>485</in>
						<out>990</out>
						<alphatype>none</alphatype>
						<file id="file-13"/>
					</clipitem>
					<clipitem id="clipitem-58" frameBlend="FALSE">
						<masterclipid>masterclip-14</masterclipid>
						<name>C0091.mov</name>
						<enabled>TRUE</enabled>
						<duration>42484</duration>
						<rate>
							<timebase>25</timebase>
							<ntsc>FALSE</ntsc>
						</rate>
						<start>35284</start>
						<end>35558</end>
						<in>2655</in>
						<out>2929</out>
						<alphatype>black</alphatype>
						<pixelaspectratio>square</pixelaspectratio>
						<anamorphic>FALSE</anamorphic>
						<file id="file-14">
							<name>C0091.mov</name>
							<pathurl>file://localhost/Volumes/Scenen/Prosjekter/FILM/FILM%20XX13%20Kjartan%20Opptak%20Russland%20Oktober%202013/Video/Disk%201/C0091.mov</pathurl>
							<rate>
								<timebase>25</timebase>
								<ntsc>FALSE</ntsc>
							</rate>
							<duration>42484</duration>
							<timecode>
								<rate>
									<timebase>25</timebase>
									<ntsc>FALSE</ntsc>
								</rate>
								<string>00:12:17:20</string>
								<frame>18445</frame>
								<displayformat>NDF</displayformat>
							</timecode>
							<media>
								<video>
									<duration>18000</duration>
									<samplecharacteristics>
										<rate>
											<timebase>25</timebase>
											<ntsc>FALSE</ntsc>
										</rate>
										<width>1920</width>
										<height>1080</height>
										<anamorphic>FALSE</anamorphic>
										<pixelaspectratio>square</pixelaspectratio>
										<fielddominance>upper</fielddominance>
									</samplecharacteristics>
								</video>
								<audio>
									<samplecharacteristics>
										<depth>16</depth>
										<samplerate>48000</samplerate>
									</samplecharacteristics>
									<channelcount>1</channelcount>
									<layout>mono</layout>
									<audiochannel>
										<sourcechannel>1</sourcechannel>
										<channellabel>discrete</channellabel>
									</audiochannel>
								</audio>
								<audio>
									<samplecharacteristics>
										<depth>16</depth>
										<samplerate>48000</samplerate>
									</samplecharacteristics>
									<channelcount>1</channelcount>
									<layout>mono</layout>
									<audiochannel>
										<sourcechannel>2</sourcechannel>
										<channellabel>discrete</channellabel>
									</audiochannel>
								</audio>
								<audio>
									<samplecharacteristics>
										<depth>16</depth>
										<samplerate>48000</samplerate>
									</samplecharacteristics>
									<channelcount>1</channelcount>
									<layout>mono</layout>
									<audiochannel>
										<sourcechannel>3</sourcechannel>
										<channellabel>discrete</channellabel>
									</audiochannel>
								</audio>
								<audio>
									<samplecharacteristics>
										<depth>16</depth>
										<samplerate>48000</samplerate>
									</samplecharacteristics>
									<channelcount>1</channelcount>
									<layout>mono</layout>
									<audiochannel>
										<sourcechannel>4</sourcechannel>
										<channellabel>discrete</channellabel>
									</audiochannel>
								</audio>
								<audio>
									<samplecharacteristics>
										<depth>16</depth>
										<samplerate>48000</samplerate>
									</samplecharacteristics>
									<channelcount>1</channelcount>
									<layout>mono</layout>
									<audiochannel>
										<sourcechannel>5</sourcechannel>
										<channellabel>discrete</channellabel>
									</audiochannel>
								</audio>
								<audio>
									<samplecharacteristics>
										<depth>16</depth>
										<samplerate>48000</samplerate>
									</samplecharacteristics>
									<channelcount>1</channelcount>
									<layout>mono</layout>
									<audiochannel>
										<sourcechannel>6</sourcechannel>
										<channellabel>discrete</channellabel>
									</audiochannel>
								</audio>
								<audio>
									<samplecharacteristics>
										<depth>16</depth>
										<samplerate>48000</samplerate>
									</samplecharacteristics>
									<channelcount>1</channelcount>
									<layout>mono</layout>
									<audiochannel>
										<sourcechannel>7</sourcechannel>
										<channellabel>discrete</channellabel>
									</audiochannel>
								</audio>
								<audio>
									<samplecharacteristics>
										<depth>16</depth>
										<samplerate>48000</samplerate>
									</samplecharacteristics>
									<channelcount>1</channelcount>
									<layout>mono</layout>
									<audiochannel>
										<sourcechannel>8</sourcechannel>
										<channellabel>discrete</channellabel>
									</audiochannel>
								</audio>
							</media>
						</file>
							<filter>
								<effect>
									<name>Crop</name>
									<effectid>crop</effectid>
									<effectcategory>motion</effectcategory>
									<effecttype>motion</effecttype>
									<mediatype>video</mediatype>
									<parameter authoringApp="PremierePro">
										<parameterid>left</parameterid>
										<name>left</name>
										<valuemin>0</valuemin>
										<valuemax>100</valuemax>
										<value>45</value>
									</parameter>
									<parameter authoringApp="PremierePro">
										<parameterid>right</parameterid>
										<name>right</name>
										<valuemin>0</valuemin>
										<valuemax>100</valuemax>
										<value>45</value>
									</parameter>
									<parameter authoringApp="PremierePro">
										<parameterid>top</parameterid>
										<name>top</name>
										<valuemin>0</valuemin>
										<valuemax>100</valuemax>
										<value>41</value>
									</parameter>
									<parameter authoringApp="PremierePro">
										<parameterid>bottom</parameterid>
										<name>bottom</name>
										<valuemin>0</valuemin>
										<valuemax>100</valuemax>
										<value>41</value>
									</parameter>
								</effect>
							</filter>
						<link>
							<linkclipref>clipitem-58</linkclipref>
							<mediatype>video</mediatype>
							<trackindex>1</trackindex>
							<clipindex>63</clipindex>
						</link>
						<link>
							<linkclipref>clipitem-456</linkclipref>
							<mediatype>audio</mediatype>
							<trackindex>1</trackindex>
							<clipindex>62</clipindex>
							<groupindex>1</groupindex>
						</link>
						<link>
							<linkclipref>clipitem-523</linkclipref>
							<mediatype>audio</mediatype>
							<trackindex>2</trackindex>
							<clipindex>58</clipindex>
							<groupindex>1</groupindex>
						</link>
						<link>
							<linkclipref>clipitem-539</linkclipref>
							<mediatype>audio</mediatype>
							<trackindex>3</trackindex>
							<clipindex>4</clipindex>
							<groupindex>1</groupindex>
						</link>
					</clipitem>
					<clipitem id="clipitem-59" frameBlend="FALSE">
						<masterclipid>masterclip-15</masterclipid>
						<name>JX4A6001.MOV</name>
						<enabled>TRUE</enabled>
						<duration>5245</duration>
						<rate>
							<timebase>24</timebase>
							<ntsc>TRUE</ntsc>
						</rate>
						<start>35558</start>
						<end>35790</end>
						<in>535</in>
						<out>767</out>
						<alphatype>black</alphatype>
						<pixelaspectratio>square</pixelaspectratio>
						<anamorphic>FALSE</anamorphic>
						<file id="file-15">
							<name>JX4A6001.MOV</name>
							<pathurl>file://localhost/Volumes/Scenen/Utveksling/FILM/FILM%20xx14%20Russland%20Alexander%20Rodnyanskyy%20KAA%20010115/Video/EOS5D-2/JX4A6001.MOV</pathurl>
							<rate>
								<timebase>24</timebase>
								<ntsc>TRUE</ntsc>
							</rate>
							<duration>5031</duration>
							<timecode>
								<rate>
									<timebase>24</timebase>
									<ntsc>TRUE</ntsc>
								</rate>
								<string>02:48:45:00</string>
								<frame>243000</frame>
								<displayformat>NDF</displayformat>
							</timecode>
							<media>
								<video>
									<duration>18000</duration>
									<samplecharacteristics>
										<rate>
											<timebase>24</timebase>
											<ntsc>TRUE</ntsc>
										</rate>
										<width>1920</width>
										<height>1080</height>
										<anamorphic>FALSE</anamorphic>
										<pixelaspectratio>square</pixelaspectratio>
										<fielddominance>none</fielddominance>
									</samplecharacteristics>
								</video>
								<audio>
									<samplecharacteristics>
										<depth>16</depth>
										<samplerate>48000</samplerate>
									</samplecharacteristics>
									<channelcount>2</channelcount>
								</audio>
							</media>
						</file>
						<link>
							<linkclipref>clipitem-59</linkclipref>
							<mediatype>video</mediatype>
							<trackindex>1</trackindex>
							<clipindex>64</clipindex>
						</link>
						<link>
							<linkclipref>clipitem-457</linkclipref>
							<mediatype>audio</mediatype>
							<trackindex>1</trackindex>
							<clipindex>63</clipindex>
							<groupindex>1</groupindex>
						</link>
					</clipitem>
					<transitionitem>
						<start>36442</start>
						<end>36454</end>
						<alignment>start-black</alignment>
						<cutPoint>0</cutPoint>
						<rate>
							<timebase>25</timebase>
							<ntsc>FALSE</ntsc>
						</rate>
						<effect>
							<name>Cross Dissolve</name>
							<effectid>Cross Dissolve</effectid>
							<effectcategory>Dissolve</effectcategory>
							<effecttype>transition</effecttype>
							<mediatype>video</mediatype>
							<wipecode>0</wipecode>
							<wipeaccuracy>100</wipeaccuracy>
							<startratio>0</startratio>
							<endratio>1</endratio>
							<reverse>FALSE</reverse>
						</effect>
					</transitionitem>
					<clipitem id="clipitem-60" frameBlend="FALSE">
						<masterclipid>masterclip-16</masterclipid>
						<name>C0075.mov</name>
						<enabled>TRUE</enabled>
						<duration>195</duration>
						<rate>
							<timebase>25</timebase>
							<ntsc>FALSE</ntsc>
						</rate>
						<start>-1</start>
						<end>36522</end>
						<in>100</in>
						<out>180</out>
						<alphatype>black</alphatype>
						<pixelaspectratio>square</pixelaspectratio>
						<anamorphic>FALSE</anamorphic>
						<file id="file-16">
							<name>C0075.mov</name>
							<pathurl>file://localhost/Volumes/Scenen/Prosjekter/FILM/FILM%20XX13%20Kjartan%20Opptak%20Russland%20Oktober%202013/Video/Disk%201/C0075.mov</pathurl>
							<rate>
								<timebase>25</timebase>
								<ntsc>FALSE</ntsc>
							</rate>
							<duration>195</duration>
							<timecode>
								<rate>
									<timebase>25</timebase>
									<ntsc>FALSE</ntsc>
								</rate>
								<string>00:09:20:10</string>
								<frame>14010</frame>
								<displayformat>NDF</displayformat>
							</timecode>
							<media>
								<video>
									<duration>18000</duration>
									<samplecharacteristics>
										<rate>
											<timebase>25</timebase>
											<ntsc>FALSE</ntsc>
										</rate>
										<width>1920</width>
										<height>1080</height>
										<anamorphic>FALSE</anamorphic>
										<pixelaspectratio>square</pixelaspectratio>
										<fielddominance>upper</fielddominance>
									</samplecharacteristics>
								</video>
								<audio>
									<samplecharacteristics>
										<depth>16</depth>
										<samplerate>48000</samplerate>
									</samplecharacteristics>
									<channelcount>1</channelcount>
									<layout>mono</layout>
									<audiochannel>
										<sourcechannel>1</sourcechannel>
										<channellabel>discrete</channellabel>
									</audiochannel>
								</audio>
								<audio>
									<samplecharacteristics>
										<depth>16</depth>
										<samplerate>48000</samplerate>
									</samplecharacteristics>
									<channelcount>1</channelcount>
									<layout>mono</layout>
									<audiochannel>
										<sourcechannel>2</sourcechannel>
										<channellabel>discrete</channellabel>
									</audiochannel>
								</audio>
								<audio>
									<samplecharacteristics>
										<depth>16</depth>
										<samplerate>48000</samplerate>
									</samplecharacteristics>
									<channelcount>1</channelcount>
									<layout>mono</layout>
									<audiochannel>
										<sourcechannel>3</sourcechannel>
										<channellabel>discrete</channellabel>
									</audiochannel>
								</audio>
								<audio>
									<samplecharacteristics>
										<depth>16</depth>
										<samplerate>48000</samplerate>
									</samplecharacteristics>
									<channelcount>1</channelcount>
									<layout>mono</layout>
									<audiochannel>
										<sourcechannel>4</sourcechannel>
										<channellabel>discrete</channellabel>
									</audiochannel>
								</audio>
								<audio>
									<samplecharacteristics>
										<depth>16</depth>
										<samplerate>48000</samplerate>
									</samplecharacteristics>
									<channelcount>1</channelcount>
									<layout>mono</layout>
									<audiochannel>
										<sourcechannel>5</sourcechannel>
										<channellabel>discrete</channellabel>
									</audiochannel>
								</audio>
								<audio>
									<samplecharacteristics>
										<depth>16</depth>
										<samplerate>48000</samplerate>
									</samplecharacteristics>
									<channelcount>1</channelcount>
									<layout>mono</layout>
									<audiochannel>
										<sourcechannel>6</sourcechannel>
										<channellabel>discrete</channellabel>
									</audiochannel>
								</audio>
								<audio>
									<samplecharacteristics>
										<depth>16</depth>
										<samplerate>48000</samplerate>
									</samplecharacteristics>
									<channelcount>1</channelcount>
									<layout>mono</layout>
									<audiochannel>
										<sourcechannel>7</sourcechannel>
										<channellabel>discrete</channellabel>
									</audiochannel>
								</audio>
								<audio>
									<samplecharacteristics>
										<depth>16</depth>
										<samplerate>48000</samplerate>
									</samplecharacteristics>
									<channelcount>1</channelcount>
									<layout>mono</layout>
									<audiochannel>
										<sourcechannel>8</sourcechannel>
										<channellabel>discrete</channellabel>
									</audiochannel>
								</audio>
							</media>
						</file>
						<link>
							<linkclipref>clipitem-60</linkclipref>
							<mediatype>video</mediatype>
							<trackindex>1</trackindex>
							<clipindex>66</clipindex>
						</link>
						<link>
							<linkclipref>clipitem-458</linkclipref>
							<mediatype>audio</mediatype>
							<trackindex>1</trackindex>
							<clipindex>65</clipindex>
							<groupindex>1</groupindex>
						</link>
					</clipitem>
					<clipitem id="clipitem-61" frameBlend="FALSE">
						<masterclipid>masterclip-17</masterclipid>
						<name>C0076.mov</name>
						<enabled>TRUE</enabled>
						<duration>228</duration>
						<rate>
							<timebase>25</timebase>
							<ntsc>FALSE</ntsc>
						</rate>
						<start>36522</start>
						<end>36577</end>
						<in>51</in>
						<out>106</out>
						<alphatype>black</alphatype>
						<pixelaspectratio>square</pixelaspectratio>
						<anamorphic>FALSE</anamorphic>
						<file id="file-17">
							<name>C0076.mov</name>
							<pathurl>file://localhost/Volumes/Scenen/Prosjekter/FILM/FILM%20XX13%20Kjartan%20Opptak%20Russland%20Oktober%202013/Video/Disk%201/C0076.mov</pathurl>
							<rate>
								<timebase>25</timebase>
								<ntsc>FALSE</ntsc>
							</rate>
							<duration>228</duration>
							<timecode>
								<rate>
									<timebase>25</timebase>
									<ntsc>FALSE</ntsc>
								</rate>
								<string>00:09:28:05</string>
								<frame>14205</frame>
								<displayformat>NDF</displayformat>
							</timecode>
							<media>
								<video>
									<duration>18000</duration>
									<samplecharacteristics>
										<rate>
											<timebase>25</timebase>
											<ntsc>FALSE</ntsc>
										</rate>
										<width>1920</width>
										<height>1080</height>
										<anamorphic>FALSE</anamorphic>
										<pixelaspectratio>square</pixelaspectratio>
										<fielddominance>upper</fielddominance>
									</samplecharacteristics>
								</video>
								<audio>
									<samplecharacteristics>
										<depth>16</depth>
										<samplerate>48000</samplerate>
									</samplecharacteristics>
									<channelcount>1</channelcount>
									<layout>mono</layout>
									<audiochannel>
										<sourcechannel>1</sourcechannel>
										<channellabel>discrete</channellabel>
									</audiochannel>
								</audio>
								<audio>
									<samplecharacteristics>
										<depth>16</depth>
										<samplerate>48000</samplerate>
									</samplecharacteristics>
									<channelcount>1</channelcount>
									<layout>mono</layout>
									<audiochannel>
										<sourcechannel>2</sourcechannel>
										<channellabel>discrete</channellabel>
									</audiochannel>
								</audio>
								<audio>
									<samplecharacteristics>
										<depth>16</depth>
										<samplerate>48000</samplerate>
									</samplecharacteristics>
									<channelcount>1</channelcount>
									<layout>mono</layout>
									<audiochannel>
										<sourcechannel>3</sourcechannel>
										<channellabel>discrete</channellabel>
									</audiochannel>
								</audio>
								<audio>
									<samplecharacteristics>
										<depth>16</depth>
										<samplerate>48000</samplerate>
									</samplecharacteristics>
									<channelcount>1</channelcount>
									<layout>mono</layout>
									<audiochannel>
										<sourcechannel>4</sourcechannel>
										<channellabel>discrete</channellabel>
									</audiochannel>
								</audio>
								<audio>
									<samplecharacteristics>
										<depth>16</depth>
										<samplerate>48000</samplerate>
									</samplecharacteristics>
									<channelcount>1</channelcount>
									<layout>mono</layout>
									<audiochannel>
										<sourcechannel>5</sourcechannel>
										<channellabel>discrete</channellabel>
									</audiochannel>
								</audio>
								<audio>
									<samplecharacteristics>
										<depth>16</depth>
										<samplerate>48000</samplerate>
									</samplecharacteristics>
									<channelcount>1</channelcount>
									<layout>mono</layout>
									<audiochannel>
										<sourcechannel>6</sourcechannel>
										<channellabel>discrete</channellabel>
									</audiochannel>
								</audio>
								<audio>
									<samplecharacteristics>
										<depth>16</depth>
										<samplerate>48000</samplerate>
									</samplecharacteristics>
									<channelcount>1</channelcount>
									<layout>mono</layout>
									<audiochannel>
										<sourcechannel>7</sourcechannel>
										<channellabel>discrete</channellabel>
									</audiochannel>
								</audio>
								<audio>
									<samplecharacteristics>
										<depth>16</depth>
										<samplerate>48000</samplerate>
									</samplecharacteristics>
									<channelcount>1</channelcount>
									<layout>mono</layout>
									<audiochannel>
										<sourcechannel>8</sourcechannel>
										<channellabel>discrete</channellabel>
									</audiochannel>
								</audio>
							</media>
						</file>
						<link>
							<linkclipref>clipitem-61</linkclipref>
							<mediatype>video</mediatype>
							<trackindex>1</trackindex>
							<clipindex>67</clipindex>
						</link>
						<link>
							<linkclipref>clipitem-459</linkclipref>
							<mediatype>audio</mediatype>
							<trackindex>1</trackindex>
							<clipindex>66</clipindex>
							<groupindex>1</groupindex>
						</link>
					</clipitem>
					<clipitem id="clipitem-62" frameBlend="FALSE">
						<masterclipid>masterclip-18</masterclipid>
						<name>C0088.mov</name>
						<enabled>TRUE</enabled>
						<duration>272</duration>
						<rate>
							<timebase>25</timebase>
							<ntsc>FALSE</ntsc>
						</rate>
						<start>36577</start>
						<end>36625</end>
						<in>81</in>
						<out>129</out>
						<alphatype>black</alphatype>
						<pixelaspectratio>square</pixelaspectratio>
						<anamorphic>FALSE</anamorphic>
						<file id="file-18">
							<name>C0088.mov</name>
							<pathurl>file://localhost/Volumes/Scenen/Prosjekter/FILM/FILM%20XX13%20Kjartan%20Opptak%20Russland%20Oktober%202013/Video/Disk%201/C0088.mov</pathurl>
							<rate>
								<timebase>25</timebase>
								<ntsc>FALSE</ntsc>
							</rate>
							<duration>272</duration>
							<timecode>
								<rate>
									<timebase>25</timebase>
									<ntsc>FALSE</ntsc>
								</rate>
								<string>00:11:38:08</string>
								<frame>17458</frame>
								<displayformat>NDF</displayformat>
							</timecode>
							<media>
								<video>
									<duration>18000</duration>
									<samplecharacteristics>
										<rate>
											<timebase>25</timebase>
											<ntsc>FALSE</ntsc>
										</rate>
										<width>1920</width>
										<height>1080</height>
										<anamorphic>FALSE</anamorphic>
										<pixelaspectratio>square</pixelaspectratio>
										<fielddominance>upper</fielddominance>
									</samplecharacteristics>
								</video>
								<audio>
									<samplecharacteristics>
										<depth>16</depth>
										<samplerate>48000</samplerate>
									</samplecharacteristics>
									<channelcount>1</channelcount>
									<layout>mono</layout>
									<audiochannel>
										<sourcechannel>1</sourcechannel>
										<channellabel>discrete</channellabel>
									</audiochannel>
								</audio>
								<audio>
									<samplecharacteristics>
										<depth>16</depth>
										<samplerate>48000</samplerate>
									</samplecharacteristics>
									<channelcount>1</channelcount>
									<layout>mono</layout>
									<audiochannel>
										<sourcechannel>2</sourcechannel>
										<channellabel>discrete</channellabel>
									</audiochannel>
								</audio>
								<audio>
									<samplecharacteristics>
										<depth>16</depth>
										<samplerate>48000</samplerate>
									</samplecharacteristics>
									<channelcount>1</channelcount>
									<layout>mono</layout>
									<audiochannel>
										<sourcechannel>3</sourcechannel>
										<channellabel>discrete</channellabel>
									</audiochannel>
								</audio>
								<audio>
									<samplecharacteristics>
										<depth>16</depth>
										<samplerate>48000</samplerate>
									</samplecharacteristics>
									<channelcount>1</channelcount>
									<layout>mono</layout>
									<audiochannel>
										<sourcechannel>4</sourcechannel>
										<channellabel>discrete</channellabel>
									</audiochannel>
								</audio>
								<audio>
									<samplecharacteristics>
										<depth>16</depth>
										<samplerate>48000</samplerate>
									</samplecharacteristics>
									<channelcount>1</channelcount>
									<layout>mono</layout>
									<audiochannel>
										<sourcechannel>5</sourcechannel>
										<channellabel>discrete</channellabel>
									</audiochannel>
								</audio>
								<audio>
									<samplecharacteristics>
										<depth>16</depth>
										<samplerate>48000</samplerate>
									</samplecharacteristics>
									<channelcount>1</channelcount>
									<layout>mono</layout>
									<audiochannel>
										<sourcechannel>6</sourcechannel>
										<channellabel>discrete</channellabel>
									</audiochannel>
								</audio>
								<audio>
									<samplecharacteristics>
										<depth>16</depth>
										<samplerate>48000</samplerate>
									</samplecharacteristics>
									<channelcount>1</channelcount>
									<layout>mono</layout>
									<audiochannel>
										<sourcechannel>7</sourcechannel>
										<channellabel>discrete</channellabel>
									</audiochannel>
								</audio>
								<audio>
									<samplecharacteristics>
										<depth>16</depth>
										<samplerate>48000</samplerate>
									</samplecharacteristics>
									<channelcount>1</channelcount>
									<layout>mono</layout>
									<audiochannel>
										<sourcechannel>8</sourcechannel>
										<channellabel>discrete</channellabel>
									</audiochannel>
								</audio>
							</media>
						</file>
						<link>
							<linkclipref>clipitem-62</linkclipref>
							<mediatype>video</mediatype>
							<trackindex>1</trackindex>
							<clipindex>68</clipindex>
						</link>
						<link>
							<linkclipref>clipitem-460</linkclipref>
							<mediatype>audio</mediatype>
							<trackindex>1</trackindex>
							<clipindex>67</clipindex>
							<groupindex>1</groupindex>
						</link>
					</clipitem>
					<clipitem id="clipitem-63" frameBlend="FALSE">
						<masterclipid>masterclip-19</masterclipid>
						<name>C0054.mov</name>
						<enabled>TRUE</enabled>
						<duration>130</duration>
						<rate>
							<timebase>25</timebase>
							<ntsc>FALSE</ntsc>
						</rate>
						<start>36625</start>
						<end>36685</end>
						<in>42</in>
						<out>102</out>
						<alphatype>black</alphatype>
						<pixelaspectratio>square</pixelaspectratio>
						<anamorphic>FALSE</anamorphic>
						<file id="file-19">
							<name>C0054.mov</name>
							<pathurl>file://localhost/Volumes/Scenen/Prosjekter/FILM/FILM%20XX13%20Kjartan%20Opptak%20Russland%20Oktober%202013/Video/Disk%201/C0054.mov</pathurl>
							<rate>
								<timebase>25</timebase>
								<ntsc>FALSE</ntsc>
							</rate>
							<duration>130</duration>
							<timecode>
								<rate>
									<timebase>25</timebase>
									<ntsc>FALSE</ntsc>
								</rate>
								<string>00:07:09:08</string>
								<frame>10733</frame>
								<displayformat>NDF</displayformat>
							</timecode>
							<media>
								<video>
									<duration>18000</duration>
									<samplecharacteristics>
										<rate>
											<timebase>25</timebase>
											<ntsc>FALSE</ntsc>
										</rate>
										<width>1920</width>
										<height>1080</height>
										<anamorphic>FALSE</anamorphic>
										<pixelaspectratio>square</pixelaspectratio>
										<fielddominance>upper</fielddominance>
									</samplecharacteristics>
								</video>
								<audio>
									<samplecharacteristics>
										<depth>16</depth>
										<samplerate>48000</samplerate>
									</samplecharacteristics>
									<channelcount>1</channelcount>
									<layout>mono</layout>
									<audiochannel>
										<sourcechannel>1</sourcechannel>
										<channellabel>discrete</channellabel>
									</audiochannel>
								</audio>
								<audio>
									<samplecharacteristics>
										<depth>16</depth>
										<samplerate>48000</samplerate>
									</samplecharacteristics>
									<channelcount>1</channelcount>
									<layout>mono</layout>
									<audiochannel>
										<sourcechannel>2</sourcechannel>
										<channellabel>discrete</channellabel>
									</audiochannel>
								</audio>
								<audio>
									<samplecharacteristics>
										<depth>16</depth>
										<samplerate>48000</samplerate>
									</samplecharacteristics>
									<channelcount>1</channelcount>
									<layout>mono</layout>
									<audiochannel>
										<sourcechannel>3</sourcechannel>
										<channellabel>discrete</channellabel>
									</audiochannel>
								</audio>
								<audio>
									<samplecharacteristics>
										<depth>16</depth>
										<samplerate>48000</samplerate>
									</samplecharacteristics>
									<channelcount>1</channelcount>
									<layout>mono</layout>
									<audiochannel>
										<sourcechannel>4</sourcechannel>
										<channellabel>discrete</channellabel>
									</audiochannel>
								</audio>
								<audio>
									<samplecharacteristics>
										<depth>16</depth>
										<samplerate>48000</samplerate>
									</samplecharacteristics>
									<channelcount>1</channelcount>
									<layout>mono</layout>
									<audiochannel>
										<sourcechannel>5</sourcechannel>
										<channellabel>discrete</channellabel>
									</audiochannel>
								</audio>
								<audio>
									<samplecharacteristics>
										<depth>16</depth>
										<samplerate>48000</samplerate>
									</samplecharacteristics>
									<channelcount>1</channelcount>
									<layout>mono</layout>
									<audiochannel>
										<sourcechannel>6</sourcechannel>
										<channellabel>discrete</channellabel>
									</audiochannel>
								</audio>
								<audio>
									<samplecharacteristics>
										<depth>16</depth>
										<samplerate>48000</samplerate>
									</samplecharacteristics>
									<channelcount>1</channelcount>
									<layout>mono</layout>
									<audiochannel>
										<sourcechannel>7</sourcechannel>
										<channellabel>discrete</channellabel>
									</audiochannel>
								</audio>
								<audio>
									<samplecharacteristics>
										<depth>16</depth>
										<samplerate>48000</samplerate>
									</samplecharacteristics>
									<channelcount>1</channelcount>
									<layout>mono</layout>
									<audiochannel>
										<sourcechannel>8</sourcechannel>
										<channellabel>discrete</channellabel>
									</audiochannel>
								</audio>
							</media>
						</file>
						<link>
							<linkclipref>clipitem-63</linkclipref>
							<mediatype>video</mediatype>
							<trackindex>1</trackindex>
							<clipindex>69</clipindex>
						</link>
						<link>
							<linkclipref>clipitem-461</linkclipref>
							<mediatype>audio</mediatype>
							<trackindex>1</trackindex>
							<clipindex>68</clipindex>
							<groupindex>1</groupindex>
						</link>
					</clipitem>
					<clipitem id="clipitem-64" frameBlend="FALSE">
						<masterclipid>masterclip-20</masterclipid>
						<name>C0034.mov</name>
						<enabled>TRUE</enabled>
						<duration>354</duration>
						<rate>
							<timebase>25</timebase>
							<ntsc>FALSE</ntsc>
						</rate>
						<start>36891</start>
						<end>36980</end>
						<in>37</in>
						<out>126</out>
						<alphatype>black</alphatype>
						<pixelaspectratio>square</pixelaspectratio>
						<anamorphic>FALSE</anamorphic>
						<file id="file-20">
							<name>C0034.mov</name>
							<pathurl>file://localhost/Volumes/Scenen/Prosjekter/FILM/FILM%20XX13%20Kjartan%20Opptak%20Russland%20Oktober%202013/Video/Disk%202/C0034.mov</pathurl>
							<rate>
								<timebase>25</timebase>
								<ntsc>FALSE</ntsc>
							</rate>
							<duration>354</duration>
							<timecode>
								<rate>
									<timebase>25</timebase>
									<ntsc>FALSE</ntsc>
								</rate>
								<string>00:06:20:22</string>
								<frame>9522</frame>
								<displayformat>NDF</displayformat>
							</timecode>
							<media>
								<video>
									<duration>18000</duration>
									<samplecharacteristics>
										<rate>
											<timebase>25</timebase>
											<ntsc>FALSE</ntsc>
										</rate>
										<width>1920</width>
										<height>1080</height>
										<anamorphic>FALSE</anamorphic>
										<pixelaspectratio>square</pixelaspectratio>
										<fielddominance>upper</fielddominance>
									</samplecharacteristics>
								</video>
								<audio>
									<samplecharacteristics>
										<depth>16</depth>
										<samplerate>48000</samplerate>
									</samplecharacteristics>
									<channelcount>1</channelcount>
									<layout>mono</layout>
									<audiochannel>
										<sourcechannel>1</sourcechannel>
										<channellabel>discrete</channellabel>
									</audiochannel>
								</audio>
								<audio>
									<samplecharacteristics>
										<depth>16</depth>
										<samplerate>48000</samplerate>
									</samplecharacteristics>
									<channelcount>1</channelcount>
									<layout>mono</layout>
									<audiochannel>
										<sourcechannel>2</sourcechannel>
										<channellabel>discrete</channellabel>
									</audiochannel>
								</audio>
								<audio>
									<samplecharacteristics>
										<depth>16</depth>
										<samplerate>48000</samplerate>
									</samplecharacteristics>
									<channelcount>1</channelcount>
									<layout>mono</layout>
									<audiochannel>
										<sourcechannel>3</sourcechannel>
										<channellabel>discrete</channellabel>
									</audiochannel>
								</audio>
								<audio>
									<samplecharacteristics>
										<depth>16</depth>
										<samplerate>48000</samplerate>
									</samplecharacteristics>
									<channelcount>1</channelcount>
									<layout>mono</layout>
									<audiochannel>
										<sourcechannel>4</sourcechannel>
										<channellabel>discrete</channellabel>
									</audiochannel>
								</audio>
								<audio>
									<samplecharacteristics>
										<depth>16</depth>
										<samplerate>48000</samplerate>
									</samplecharacteristics>
									<channelcount>1</channelcount>
									<layout>mono</layout>
									<audiochannel>
										<sourcechannel>5</sourcechannel>
										<channellabel>discrete</channellabel>
									</audiochannel>
								</audio>
								<audio>
									<samplecharacteristics>
										<depth>16</depth>
										<samplerate>48000</samplerate>
									</samplecharacteristics>
									<channelcount>1</channelcount>
									<layout>mono</layout>
									<audiochannel>
										<sourcechannel>6</sourcechannel>
										<channellabel>discrete</channellabel>
									</audiochannel>
								</audio>
								<audio>
									<samplecharacteristics>
										<depth>16</depth>
										<samplerate>48000</samplerate>
									</samplecharacteristics>
									<channelcount>1</channelcount>
									<layout>mono</layout>
									<audiochannel>
										<sourcechannel>7</sourcechannel>
										<channellabel>discrete</channellabel>
									</audiochannel>
								</audio>
								<audio>
									<samplecharacteristics>
										<depth>16</depth>
										<samplerate>48000</samplerate>
									</samplecharacteristics>
									<channelcount>1</channelcount>
									<layout>mono</layout>
									<audiochannel>
										<sourcechannel>8</sourcechannel>
										<channellabel>discrete</channellabel>
									</audiochannel>
								</audio>
							</media>
						</file>
							<filter>
								<effect>
									<name>Crop</name>
									<effectid>crop</effectid>
									<effectcategory>motion</effectcategory>
									<effecttype>motion</effecttype>
									<mediatype>video</mediatype>
									<parameter authoringApp="PremierePro">
										<parameterid>left</parameterid>
										<name>left</name>
										<valuemin>0</valuemin>
										<valuemax>100</valuemax>
										<value>45</value>
									</parameter>
									<parameter authoringApp="PremierePro">
										<parameterid>right</parameterid>
										<name>right</name>
										<valuemin>0</valuemin>
										<valuemax>100</valuemax>
										<value>45</value>
									</parameter>
									<parameter authoringApp="PremierePro">
										<parameterid>top</parameterid>
										<name>top</name>
										<valuemin>0</valuemin>
										<valuemax>100</valuemax>
										<value>41</value>
									</parameter>
									<parameter authoringApp="PremierePro">
										<parameterid>bottom</parameterid>
										<name>bottom</name>
										<valuemin>0</valuemin>
										<valuemax>100</valuemax>
										<value>41</value>
									</parameter>
								</effect>
							</filter>
						<link>
							<linkclipref>clipitem-64</linkclipref>
							<mediatype>video</mediatype>
							<trackindex>1</trackindex>
							<clipindex>70</clipindex>
						</link>
						<link>
							<linkclipref>clipitem-462</linkclipref>
							<mediatype>audio</mediatype>
							<trackindex>1</trackindex>
							<clipindex>69</clipindex>
							<groupindex>1</groupindex>
						</link>
						<link>
							<linkclipref>clipitem-528</linkclipref>
							<mediatype>audio</mediatype>
							<trackindex>2</trackindex>
							<clipindex>64</clipindex>
							<groupindex>1</groupindex>
						</link>
					</clipitem>
					<clipitem id="clipitem-65" frameBlend="FALSE">
						<masterclipid>masterclip-21</masterclipid>
						<name>C0005.mov</name>
						<enabled>TRUE</enabled>
						<duration>158</duration>
						<rate>
							<timebase>25</timebase>
							<ntsc>FALSE</ntsc>
						</rate>
						<start>36980</start>
						<end>37024</end>
						<in>94</in>
						<out>138</out>
						<alphatype>black</alphatype>
						<pixelaspectratio>square</pixelaspectratio>
						<anamorphic>FALSE</anamorphic>
						<file id="file-21">
							<name>C0005.mov</name>
							<pathurl>file://localhost/Volumes/Scenen/Prosjekter/FILM/FILM%20XX13%20Kjartan%20Opptak%20Russland%20Oktober%202013/Video/Disk%202/C0005.mov</pathurl>
							<rate>
								<timebase>25</timebase>
								<ntsc>FALSE</ntsc>
							</rate>
							<duration>158</duration>
							<timecode>
								<rate>
									<timebase>25</timebase>
									<ntsc>FALSE</ntsc>
								</rate>
								<string>00:00:24:14</string>
								<frame>614</frame>
								<displayformat>NDF</displayformat>
							</timecode>
							<media>
								<video>
									<duration>18000</duration>
									<samplecharacteristics>
										<rate>
											<timebase>25</timebase>
											<ntsc>FALSE</ntsc>
										</rate>
										<width>1920</width>
										<height>1080</height>
										<anamorphic>FALSE</anamorphic>
										<pixelaspectratio>square</pixelaspectratio>
										<fielddominance>upper</fielddominance>
									</samplecharacteristics>
								</video>
								<audio>
									<samplecharacteristics>
										<depth>16</depth>
										<samplerate>48000</samplerate>
									</samplecharacteristics>
									<channelcount>1</channelcount>
									<layout>mono</layout>
									<audiochannel>
										<sourcechannel>1</sourcechannel>
										<channellabel>discrete</channellabel>
									</audiochannel>
								</audio>
								<audio>
									<samplecharacteristics>
										<depth>16</depth>
										<samplerate>48000</samplerate>
									</samplecharacteristics>
									<channelcount>1</channelcount>
									<layout>mono</layout>
									<audiochannel>
										<sourcechannel>2</sourcechannel>
										<channellabel>discrete</channellabel>
									</audiochannel>
								</audio>
								<audio>
									<samplecharacteristics>
										<depth>16</depth>
										<samplerate>48000</samplerate>
									</samplecharacteristics>
									<channelcount>1</channelcount>
									<layout>mono</layout>
									<audiochannel>
										<sourcechannel>3</sourcechannel>
										<channellabel>discrete</channellabel>
									</audiochannel>
								</audio>
								<audio>
									<samplecharacteristics>
										<depth>16</depth>
										<samplerate>48000</samplerate>
									</samplecharacteristics>
									<channelcount>1</channelcount>
									<layout>mono</layout>
									<audiochannel>
										<sourcechannel>4</sourcechannel>
										<channellabel>discrete</channellabel>
									</audiochannel>
								</audio>
								<audio>
									<samplecharacteristics>
										<depth>16</depth>
										<samplerate>48000</samplerate>
									</samplecharacteristics>
									<channelcount>1</channelcount>
									<layout>mono</layout>
									<audiochannel>
										<sourcechannel>5</sourcechannel>
										<channellabel>discrete</channellabel>
									</audiochannel>
								</audio>
								<audio>
									<samplecharacteristics>
										<depth>16</depth>
										<samplerate>48000</samplerate>
									</samplecharacteristics>
									<channelcount>1</channelcount>
									<layout>mono</layout>
									<audiochannel>
										<sourcechannel>6</sourcechannel>
										<channellabel>discrete</channellabel>
									</audiochannel>
								</audio>
								<audio>
									<samplecharacteristics>
										<depth>16</depth>
										<samplerate>48000</samplerate>
									</samplecharacteristics>
									<channelcount>1</channelcount>
									<layout>mono</layout>
									<audiochannel>
										<sourcechannel>7</sourcechannel>
										<channellabel>discrete</channellabel>
									</audiochannel>
								</audio>
								<audio>
									<samplecharacteristics>
										<depth>16</depth>
										<samplerate>48000</samplerate>
									</samplecharacteristics>
									<channelcount>1</channelcount>
									<layout>mono</layout>
									<audiochannel>
										<sourcechannel>8</sourcechannel>
										<channellabel>discrete</channellabel>
									</audiochannel>
								</audio>
							</media>
						</file>
							<filter>
								<effect>
									<name>Crop</name>
									<effectid>crop</effectid>
									<effectcategory>motion</effectcategory>
									<effecttype>motion</effecttype>
									<mediatype>video</mediatype>
									<parameter authoringApp="PremierePro">
										<parameterid>left</parameterid>
										<name>left</name>
										<valuemin>0</valuemin>
										<valuemax>100</valuemax>
										<value>45</value>
									</parameter>
									<parameter authoringApp="PremierePro">
										<parameterid>right</parameterid>
										<name>right</name>
										<valuemin>0</valuemin>
										<valuemax>100</valuemax>
										<value>45</value>
									</parameter>
									<parameter authoringApp="PremierePro">
										<parameterid>top</parameterid>
										<name>top</name>
										<valuemin>0</valuemin>
										<valuemax>100</valuemax>
										<value>41</value>
									</parameter>
									<parameter authoringApp="PremierePro">
										<parameterid>bottom</parameterid>
										<name>bottom</name>
										<valuemin>0</valuemin>
										<valuemax>100</valuemax>
										<value>41</value>
									</parameter>
								</effect>
							</filter>
						<link>
							<linkclipref>clipitem-65</linkclipref>
							<mediatype>video</mediatype>
							<trackindex>1</trackindex>
							<clipindex>71</clipindex>
						</link>
						<link>
							<linkclipref>clipitem-463</linkclipref>
							<mediatype>audio</mediatype>
							<trackindex>1</trackindex>
							<clipindex>70</clipindex>
							<groupindex>1</groupindex>
						</link>
						<link>
							<linkclipref>clipitem-529</linkclipref>
							<mediatype>audio</mediatype>
							<trackindex>2</trackindex>
							<clipindex>65</clipindex>
							<groupindex>1</groupindex>
						</link>
					</clipitem>
					<clipitem id="clipitem-66" frameBlend="FALSE">
						<masterclipid>masterclip-22</masterclipid>
						<name>C0003.mov</name>
						<enabled>TRUE</enabled>
						<duration>160</duration>
						<rate>
							<timebase>25</timebase>
							<ntsc>FALSE</ntsc>
						</rate>
						<start>37024</start>
						<end>37102</end>
						<in>53</in>
						<out>131</out>
						<alphatype>black</alphatype>
						<pixelaspectratio>square</pixelaspectratio>
						<anamorphic>FALSE</anamorphic>
						<file id="file-22">
							<name>C0003.mov</name>
							<pathurl>file://localhost/Volumes/Scenen/Prosjekter/FILM/FILM%20XX13%20Kjartan%20Opptak%20Russland%20Oktober%202013/Video/Disk%202/C0003.mov</pathurl>
							<rate>
								<timebase>25</timebase>
								<ntsc>FALSE</ntsc>
							</rate>
							<duration>160</duration>
							<timecode>
								<rate>
									<timebase>25</timebase>
									<ntsc>FALSE</ntsc>
								</rate>
								<string>00:00:11:07</string>
								<frame>282</frame>
								<displayformat>NDF</displayformat>
							</timecode>
							<media>
								<video>
									<duration>18000</duration>
									<samplecharacteristics>
										<rate>
											<timebase>25</timebase>
											<ntsc>FALSE</ntsc>
										</rate>
										<width>1920</width>
										<height>1080</height>
										<anamorphic>FALSE</anamorphic>
										<pixelaspectratio>square</pixelaspectratio>
										<fielddominance>upper</fielddominance>
									</samplecharacteristics>
								</video>
								<audio>
									<samplecharacteristics>
										<depth>16</depth>
										<samplerate>48000</samplerate>
									</samplecharacteristics>
									<channelcount>1</channelcount>
									<layout>mono</layout>
									<audiochannel>
										<sourcechannel>1</sourcechannel>
										<channellabel>discrete</channellabel>
									</audiochannel>
								</audio>
								<audio>
									<samplecharacteristics>
										<depth>16</depth>
										<samplerate>48000</samplerate>
									</samplecharacteristics>
									<channelcount>1</channelcount>
									<layout>mono</layout>
									<audiochannel>
										<sourcechannel>2</sourcechannel>
										<channellabel>discrete</channellabel>
									</audiochannel>
								</audio>
								<audio>
									<samplecharacteristics>
										<depth>16</depth>
										<samplerate>48000</samplerate>
									</samplecharacteristics>
									<channelcount>1</channelcount>
									<layout>mono</layout>
									<audiochannel>
										<sourcechannel>3</sourcechannel>
										<channellabel>discrete</channellabel>
									</audiochannel>
								</audio>
								<audio>
									<samplecharacteristics>
										<depth>16</depth>
										<samplerate>48000</samplerate>
									</samplecharacteristics>
									<channelcount>1</channelcount>
									<layout>mono</layout>
									<audiochannel>
										<sourcechannel>4</sourcechannel>
										<channellabel>discrete</channellabel>
									</audiochannel>
								</audio>
								<audio>
									<samplecharacteristics>
										<depth>16</depth>
										<samplerate>48000</samplerate>
									</samplecharacteristics>
									<channelcount>1</channelcount>
									<layout>mono</layout>
									<audiochannel>
										<sourcechannel>5</sourcechannel>
										<channellabel>discrete</channellabel>
									</audiochannel>
								</audio>
								<audio>
									<samplecharacteristics>
										<depth>16</depth>
										<samplerate>48000</samplerate>
									</samplecharacteristics>
									<channelcount>1</channelcount>
									<layout>mono</layout>
									<audiochannel>
										<sourcechannel>6</sourcechannel>
										<channellabel>discrete</channellabel>
									</audiochannel>
								</audio>
								<audio>
									<samplecharacteristics>
										<depth>16</depth>
										<samplerate>48000</samplerate>
									</samplecharacteristics>
									<channelcount>1</channelcount>
									<layout>mono</layout>
									<audiochannel>
										<sourcechannel>7</sourcechannel>
										<channellabel>discrete</channellabel>
									</audiochannel>
								</audio>
								<audio>
									<samplecharacteristics>
										<depth>16</depth>
										<samplerate>48000</samplerate>
									</samplecharacteristics>
									<channelcount>1</channelcount>
									<layout>mono</layout>
									<audiochannel>
										<sourcechannel>8</sourcechannel>
										<channellabel>discrete</channellabel>
									</audiochannel>
								</audio>
							</media>
						</file>
							<filter>
								<effect>
									<name>Crop</name>
									<effectid>crop</effectid>
									<effectcategory>motion</effectcategory>
									<effecttype>motion</effecttype>
									<mediatype>video</mediatype>
									<parameter authoringApp="PremierePro">
										<parameterid>left</parameterid>
										<name>left</name>
										<valuemin>0</valuemin>
										<valuemax>100</valuemax>
										<value>45</value>
									</parameter>
									<parameter authoringApp="PremierePro">
										<parameterid>right</parameterid>
										<name>right</name>
										<valuemin>0</valuemin>
										<valuemax>100</valuemax>
										<value>45</value>
									</parameter>
									<parameter authoringApp="PremierePro">
										<parameterid>top</parameterid>
										<name>top</name>
										<valuemin>0</valuemin>
										<valuemax>100</valuemax>
										<value>41</value>
									</parameter>
									<parameter authoringApp="PremierePro">
										<parameterid>bottom</parameterid>
										<name>bottom</name>
										<valuemin>0</valuemin>
										<valuemax>100</valuemax>
										<value>41</value>
									</parameter>
								</effect>
							</filter>
						<link>
							<linkclipref>clipitem-66</linkclipref>
							<mediatype>video</mediatype>
							<trackindex>1</trackindex>
							<clipindex>72</clipindex>
						</link>
						<link>
							<linkclipref>clipitem-464</linkclipref>
							<mediatype>audio</mediatype>
							<trackindex>1</trackindex>
							<clipindex>71</clipindex>
							<groupindex>1</groupindex>
						</link>
						<link>
							<linkclipref>clipitem-530</linkclipref>
							<mediatype>audio</mediatype>
							<trackindex>2</trackindex>
							<clipindex>66</clipindex>
							<groupindex>1</groupindex>
						</link>
					</clipitem>
					<clipitem id="clipitem-67" frameBlend="FALSE">
						<masterclipid>masterclip-23</masterclipid>
						<name>C0011.mov</name>
						<enabled>TRUE</enabled>
						<duration>159</duration>
						<rate>
							<timebase>25</timebase>
							<ntsc>FALSE</ntsc>
						</rate>
						<start>37102</start>
						<end>37193</end>
						<in>4</in>
						<out>95</out>
						<alphatype>black</alphatype>
						<pixelaspectratio>square</pixelaspectratio>
						<anamorphic>FALSE</anamorphic>
						<file id="file-23">
							<name>C0011.mov</name>
							<pathurl>file://localhost/Volumes/Scenen/Prosjekter/FILM/FILM%20XX13%20Kjartan%20Opptak%20Russland%20Oktober%202013/Video/Disk%202/C0011.mov</pathurl>
							<rate>
								<timebase>25</timebase>
								<ntsc>FALSE</ntsc>
							</rate>
							<duration>159</duration>
							<timecode>
								<rate>
									<timebase>25</timebase>
									<ntsc>FALSE</ntsc>
								</rate>
								<string>00:01:17:18</string>
								<frame>1943</frame>
								<displayformat>NDF</displayformat>
							</timecode>
							<media>
								<video>
									<duration>18000</duration>
									<samplecharacteristics>
										<rate>
											<timebase>25</timebase>
											<ntsc>FALSE</ntsc>
										</rate>
										<width>1920</width>
										<height>1080</height>
										<anamorphic>FALSE</anamorphic>
										<pixelaspectratio>square</pixelaspectratio>
										<fielddominance>upper</fielddominance>
									</samplecharacteristics>
								</video>
								<audio>
									<samplecharacteristics>
										<depth>16</depth>
										<samplerate>48000</samplerate>
									</samplecharacteristics>
									<channelcount>1</channelcount>
									<layout>mono</layout>
									<audiochannel>
										<sourcechannel>1</sourcechannel>
										<channellabel>discrete</channellabel>
									</audiochannel>
								</audio>
								<audio>
									<samplecharacteristics>
										<depth>16</depth>
										<samplerate>48000</samplerate>
									</samplecharacteristics>
									<channelcount>1</channelcount>
									<layout>mono</layout>
									<audiochannel>
										<sourcechannel>2</sourcechannel>
										<channellabel>discrete</channellabel>
									</audiochannel>
								</audio>
								<audio>
									<samplecharacteristics>
										<depth>16</depth>
										<samplerate>48000</samplerate>
									</samplecharacteristics>
									<channelcount>1</channelcount>
									<layout>mono</layout>
									<audiochannel>
										<sourcechannel>3</sourcechannel>
										<channellabel>discrete</channellabel>
									</audiochannel>
								</audio>
								<audio>
									<samplecharacteristics>
										<depth>16</depth>
										<samplerate>48000</samplerate>
									</samplecharacteristics>
									<channelcount>1</channelcount>
									<layout>mono</layout>
									<audiochannel>
										<sourcechannel>4</sourcechannel>
										<channellabel>discrete</channellabel>
									</audiochannel>
								</audio>
								<audio>
									<samplecharacteristics>
										<depth>16</depth>
										<samplerate>48000</samplerate>
									</samplecharacteristics>
									<channelcount>1</channelcount>
									<layout>mono</layout>
									<audiochannel>
										<sourcechannel>5</sourcechannel>
										<channellabel>discrete</channellabel>
									</audiochannel>
								</audio>
								<audio>
									<samplecharacteristics>
										<depth>16</depth>
										<samplerate>48000</samplerate>
									</samplecharacteristics>
									<channelcount>1</channelcount>
									<layout>mono</layout>
									<audiochannel>
										<sourcechannel>6</sourcechannel>
										<channellabel>discrete</channellabel>
									</audiochannel>
								</audio>
								<audio>
									<samplecharacteristics>
										<depth>16</depth>
										<samplerate>48000</samplerate>
									</samplecharacteristics>
									<channelcount>1</channelcount>
									<layout>mono</layout>
									<audiochannel>
										<sourcechannel>7</sourcechannel>
										<channellabel>discrete</channellabel>
									</audiochannel>
								</audio>
								<audio>
									<samplecharacteristics>
										<depth>16</depth>
										<samplerate>48000</samplerate>
									</samplecharacteristics>
									<channelcount>1</channelcount>
									<layout>mono</layout>
									<audiochannel>
										<sourcechannel>8</sourcechannel>
										<channellabel>discrete</channellabel>
									</audiochannel>
								</audio>
							</media>
						</file>
							<filter>
								<effect>
									<name>Crop</name>
									<effectid>crop</effectid>
									<effectcategory>motion</effectcategory>
									<effecttype>motion</effecttype>
									<mediatype>video</mediatype>
									<parameter authoringApp="PremierePro">
										<parameterid>left</parameterid>
										<name>left</name>
										<valuemin>0</valuemin>
										<valuemax>100</valuemax>
										<value>45</value>
									</parameter>
									<parameter authoringApp="PremierePro">
										<parameterid>right</parameterid>
										<name>right</name>
										<valuemin>0</valuemin>
										<valuemax>100</valuemax>
										<value>45</value>
									</parameter>
									<parameter authoringApp="PremierePro">
										<parameterid>top</parameterid>
										<name>top</name>
										<valuemin>0</valuemin>
										<valuemax>100</valuemax>
										<value>41</value>
									</parameter>
									<parameter authoringApp="PremierePro">
										<parameterid>bottom</parameterid>
										<name>bottom</name>
										<valuemin>0</valuemin>
										<valuemax>100</valuemax>
										<value>41</value>
									</parameter>
								</effect>
							</filter>
						<link>
							<linkclipref>clipitem-67</linkclipref>
							<mediatype>video</mediatype>
							<trackindex>1</trackindex>
							<clipindex>73</clipindex>
						</link>
						<link>
							<linkclipref>clipitem-465</linkclipref>
							<mediatype>audio</mediatype>
							<trackindex>1</trackindex>
							<clipindex>72</clipindex>
							<groupindex>1</groupindex>
						</link>
						<link>
							<linkclipref>clipitem-531</linkclipref>
							<mediatype>audio</mediatype>
							<trackindex>2</trackindex>
							<clipindex>67</clipindex>
							<groupindex>1</groupindex>
						</link>
					</clipitem>
					<clipitem id="clipitem-68" frameBlend="FALSE">
						<masterclipid>masterclip-14</masterclipid>
						<name>C0091.mov</name>
						<enabled>TRUE</enabled>
						<duration>42484</duration>
						<rate>
							<ntsc>TRUE</ntsc>
							<timebase>30</timebase>
						</rate>
						<start>37322</start>
						<end>37560</end>
						<in>1247</in>
						<out>1485</out>
						<alphatype>black</alphatype>
						<file id="file-14"/>
							<filter>
								<effect>
									<name>Crop</name>
									<effectid>crop</effectid>
									<effectcategory>motion</effectcategory>
									<effecttype>motion</effecttype>
									<mediatype>video</mediatype>
									<parameter authoringApp="PremierePro">
										<parameterid>left</parameterid>
										<name>left</name>
										<valuemin>0</valuemin>
										<valuemax>100</valuemax>
										<value>45</value>
									</parameter>
									<parameter authoringApp="PremierePro">
										<parameterid>right</parameterid>
										<name>right</name>
										<valuemin>0</valuemin>
										<valuemax>100</valuemax>
										<value>45</value>
									</parameter>
									<parameter authoringApp="PremierePro">
										<parameterid>top</parameterid>
										<name>top</name>
										<valuemin>0</valuemin>
										<valuemax>100</valuemax>
										<value>41</value>
									</parameter>
									<parameter authoringApp="PremierePro">
										<parameterid>bottom</parameterid>
										<name>bottom</name>
										<valuemin>0</valuemin>
										<valuemax>100</valuemax>
										<value>41</value>
									</parameter>
								</effect>
							</filter>
						<link>
							<linkclipref>clipitem-68</linkclipref>
							<mediatype>video</mediatype>
							<trackindex>1</trackindex>
							<clipindex>74</clipindex>
						</link>
						<link>
							<linkclipref>clipitem-466</linkclipref>
							<mediatype>audio</mediatype>
							<trackindex>1</trackindex>
							<clipindex>73</clipindex>
							<groupindex>1</groupindex>
						</link>
					</clipitem>
					<clipitem id="clipitem-69" frameBlend="FALSE">
						<masterclipid>masterclip-14</masterclipid>
						<name>C0091.mov</name>
						<enabled>TRUE</enabled>
						<duration>42484</duration>
						<rate>
							<ntsc>TRUE</ntsc>
							<timebase>30</timebase>
						</rate>
						<start>37898</start>
						<end>38173</end>
						<in>2175</in>
						<out>2450</out>
						<alphatype>black</alphatype>
						<file id="file-14"/>
							<filter>
								<effect>
									<name>Crop</name>
									<effectid>crop</effectid>
									<effectcategory>motion</effectcategory>
									<effecttype>motion</effecttype>
									<mediatype>video</mediatype>
									<parameter authoringApp="PremierePro">
										<parameterid>left</parameterid>
										<name>left</name>
										<valuemin>0</valuemin>
										<valuemax>100</valuemax>
										<value>67.9407</value>
									</parameter>
									<parameter authoringApp="PremierePro">
										<parameterid>right</parameterid>
										<name>right</name>
										<valuemin>0</valuemin>
										<valuemax>100</valuemax>
										<value>29.0593</value>
									</parameter>
									<parameter authoringApp="PremierePro">
										<parameterid>top</parameterid>
										<name>top</name>
										<valuemin>0</valuemin>
										<valuemax>100</valuemax>
										<value>29.9622</value>
									</parameter>
									<parameter authoringApp="PremierePro">
										<parameterid>bottom</parameterid>
										<name>bottom</name>
										<valuemin>0</valuemin>
										<valuemax>100</valuemax>
										<value>41</value>
									</parameter>
								</effect>
							</filter>
						<link>
							<linkclipref>clipitem-69</linkclipref>
							<mediatype>video</mediatype>
							<trackindex>1</trackindex>
							<clipindex>75</clipindex>
						</link>
						<link>
							<linkclipref>clipitem-532</linkclipref>
							<mediatype>audio</mediatype>
							<trackindex>2</trackindex>
							<clipindex>69</clipindex>
							<groupindex>1</groupindex>
						</link>
					</clipitem>
					<clipitem id="clipitem-70" frameBlend="FALSE">
						<masterclipid>masterclip-24</masterclipid>
						<name>JX4A6025.MOV</name>
						<enabled>TRUE</enabled>
						<duration>227</duration>
						<rate>
							<timebase>24</timebase>
							<ntsc>TRUE</ntsc>
						</rate>
						<start>38173</start>
						<end>38323</end>
						<in>11</in>
						<out>161</out>
						<alphatype>black</alphatype>
						<pixelaspectratio>square</pixelaspectratio>
						<anamorphic>FALSE</anamorphic>
						<file id="file-24">
							<name>JX4A6025.MOV</name>
							<pathurl>file://localhost/Volumes/Scenen/Utveksling/FILM/FILM%20xx14%20Russland%20Alexander%20Rodnyanskyy%20KAA%20010115/Video/EOS5D-2/JX4A6025.MOV</pathurl>
							<rate>
								<timebase>24</timebase>
								<ntsc>TRUE</ntsc>
							</rate>
							<duration>218</duration>
							<timecode>
								<rate>
									<timebase>24</timebase>
									<ntsc>TRUE</ntsc>
								</rate>
								<string>03:07:41:16</string>
								<frame>270280</frame>
								<displayformat>NDF</displayformat>
							</timecode>
							<media>
								<video>
									<duration>18000</duration>
									<samplecharacteristics>
										<rate>
											<timebase>24</timebase>
											<ntsc>TRUE</ntsc>
										</rate>
										<width>1920</width>
										<height>1080</height>
										<anamorphic>FALSE</anamorphic>
										<pixelaspectratio>square</pixelaspectratio>
										<fielddominance>none</fielddominance>
									</samplecharacteristics>
								</video>
								<audio>
									<samplecharacteristics>
										<depth>16</depth>
										<samplerate>48000</samplerate>
									</samplecharacteristics>
									<channelcount>2</channelcount>
								</audio>
							</media>
						</file>
					</clipitem>
					<clipitem id="clipitem-71" frameBlend="FALSE">
						<masterclipid>masterclip-25</masterclipid>
						<name>JX4A6027.MOV</name>
						<enabled>TRUE</enabled>
						<duration>208</duration>
						<rate>
							<timebase>24</timebase>
							<ntsc>TRUE</ntsc>
						</rate>
						<start>38323</start>
						<end>38422</end>
						<in>26</in>
						<out>125</out>
						<alphatype>black</alphatype>
						<pixelaspectratio>square</pixelaspectratio>
						<anamorphic>FALSE</anamorphic>
						<file id="file-25">
							<name>JX4A6027.MOV</name>
							<pathurl>file://localhost/Volumes/Scenen/Utveksling/FILM/FILM%20xx14%20Russland%20Alexander%20Rodnyanskyy%20KAA%20010115/Video/EOS5D-2/JX4A6027.MOV</pathurl>
							<rate>
								<timebase>24</timebase>
								<ntsc>TRUE</ntsc>
							</rate>
							<duration>200</duration>
							<timecode>
								<rate>
									<timebase>24</timebase>
									<ntsc>TRUE</ntsc>
								</rate>
								<string>03:07:58:00</string>
								<frame>270672</frame>
								<displayformat>NDF</displayformat>
							</timecode>
							<media>
								<video>
									<duration>18000</duration>
									<samplecharacteristics>
										<rate>
											<timebase>24</timebase>
											<ntsc>TRUE</ntsc>
										</rate>
										<width>1920</width>
										<height>1080</height>
										<anamorphic>FALSE</anamorphic>
										<pixelaspectratio>square</pixelaspectratio>
										<fielddominance>none</fielddominance>
									</samplecharacteristics>
								</video>
								<audio>
									<samplecharacteristics>
										<depth>16</depth>
										<samplerate>48000</samplerate>
									</samplecharacteristics>
									<channelcount>2</channelcount>
								</audio>
							</media>
						</file>
					</clipitem>
					<clipitem id="clipitem-72" frameBlend="FALSE">
						<masterclipid>masterclip-26</masterclipid>
						<name>JX4A6000.MOV</name>
						<enabled>TRUE</enabled>
						<duration>6801</duration>
						<rate>
							<timebase>24</timebase>
							<ntsc>TRUE</ntsc>
						</rate>
						<start>38422</start>
						<end>38903</end>
						<in>2817</in>
						<out>3298</out>
						<alphatype>black</alphatype>
						<pixelaspectratio>square</pixelaspectratio>
						<anamorphic>FALSE</anamorphic>
						<file id="file-26">
							<name>JX4A6000.MOV</name>
							<pathurl>file://localhost/Volumes/Scenen/Utveksling/FILM/FILM%20xx14%20Russland%20Alexander%20Rodnyanskyy%20KAA%20010115/Video/EOS5D-2/JX4A6000.MOV</pathurl>
							<rate>
								<timebase>24</timebase>
								<ntsc>TRUE</ntsc>
							</rate>
							<duration>6523</duration>
							<timecode>
								<rate>
									<timebase>24</timebase>
									<ntsc>TRUE</ntsc>
								</rate>
								<string>02:44:13:05</string>
								<frame>236477</frame>
								<displayformat>NDF</displayformat>
							</timecode>
							<media>
								<video>
									<duration>18000</duration>
									<samplecharacteristics>
										<rate>
											<timebase>24</timebase>
											<ntsc>TRUE</ntsc>
										</rate>
										<width>1920</width>
										<height>1080</height>
										<anamorphic>FALSE</anamorphic>
										<pixelaspectratio>square</pixelaspectratio>
										<fielddominance>none</fielddominance>
									</samplecharacteristics>
								</video>
								<audio>
									<samplecharacteristics>
										<depth>16</depth>
										<samplerate>48000</samplerate>
									</samplecharacteristics>
									<channelcount>2</channelcount>
								</audio>
							</media>
						</file>
							<filter>
								<effect>
									<name>Crop</name>
									<effectid>crop</effectid>
									<effectcategory>motion</effectcategory>
									<effecttype>motion</effecttype>
									<mediatype>video</mediatype>
									<parameter authoringApp="PremierePro">
										<parameterid>left</parameterid>
										<name>left</name>
										<valuemin>0</valuemin>
										<valuemax>100</valuemax>
										<value>45</value>
									</parameter>
									<parameter authoringApp="PremierePro">
										<parameterid>right</parameterid>
										<name>right</name>
										<valuemin>0</valuemin>
										<valuemax>100</valuemax>
										<value>45</value>
									</parameter>
									<parameter authoringApp="PremierePro">
										<parameterid>top</parameterid>
										<name>top</name>
										<valuemin>0</valuemin>
										<valuemax>100</valuemax>
										<value>41</value>
									</parameter>
									<parameter authoringApp="PremierePro">
										<parameterid>bottom</parameterid>
										<name>bottom</name>
										<valuemin>0</valuemin>
										<valuemax>100</valuemax>
										<value>41</value>
									</parameter>
								</effect>
							</filter>
						<link>
							<linkclipref>clipitem-72</linkclipref>
							<mediatype>video</mediatype>
							<trackindex>1</trackindex>
							<clipindex>78</clipindex>
						</link>
						<link>
							<linkclipref>clipitem-467</linkclipref>
							<mediatype>audio</mediatype>
							<trackindex>1</trackindex>
							<clipindex>74</clipindex>
							<groupindex>1</groupindex>
						</link>
					</clipitem>
					<clipitem id="clipitem-73" frameBlend="FALSE">
						<masterclipid>masterclip-26</masterclipid>
						<name>JX4A6000.MOV</name>
						<enabled>TRUE</enabled>
						<duration>6801</duration>
						<rate>
							<ntsc>TRUE</ntsc>
							<timebase>30</timebase>
						</rate>
						<start>39211</start>
						<end>39520</end>
						<in>3702</in>
						<out>4011</out>
						<alphatype>black</alphatype>
						<file id="file-26"/>
						<link>
							<linkclipref>clipitem-73</linkclipref>
							<mediatype>video</mediatype>
							<trackindex>1</trackindex>
							<clipindex>79</clipindex>
						</link>
						<link>
							<linkclipref>clipitem-468</linkclipref>
							<mediatype>audio</mediatype>
							<trackindex>1</trackindex>
							<clipindex>75</clipindex>
							<groupindex>1</groupindex>
						</link>
					</clipitem>
					<clipitem id="clipitem-74" frameBlend="FALSE">
						<masterclipid>masterclip-14</masterclipid>
						<name>C0091.mov</name>
						<enabled>TRUE</enabled>
						<duration>42484</duration>
						<rate>
							<ntsc>TRUE</ntsc>
							<timebase>30</timebase>
						</rate>
						<start>39520</start>
						<end>41000</end>
						<in>10035</in>
						<out>11515</out>
						<alphatype>black</alphatype>
						<file id="file-14"/>
						<link>
							<linkclipref>clipitem-74</linkclipref>
							<mediatype>video</mediatype>
							<trackindex>1</trackindex>
							<clipindex>80</clipindex>
						</link>
						<link>
							<linkclipref>clipitem-469</linkclipref>
							<mediatype>audio</mediatype>
							<trackindex>1</trackindex>
							<clipindex>76</clipindex>
							<groupindex>1</groupindex>
						</link>
					</clipitem>
					<clipitem id="clipitem-75" frameBlend="FALSE">
						<masterclipid>masterclip-14</masterclipid>
						<name>C0091.mov</name>
						<enabled>TRUE</enabled>
						<duration>42484</duration>
						<rate>
							<ntsc>TRUE</ntsc>
							<timebase>30</timebase>
						</rate>
						<start>41326</start>
						<end>42375</end>
						<in>4702</in>
						<out>5751</out>
						<alphatype>black</alphatype>
						<file id="file-14"/>
						<link>
							<linkclipref>clipitem-75</linkclipref>
							<mediatype>video</mediatype>
							<trackindex>1</trackindex>
							<clipindex>81</clipindex>
						</link>
						<link>
							<linkclipref>clipitem-470</linkclipref>
							<mediatype>audio</mediatype>
							<trackindex>1</trackindex>
							<clipindex>77</clipindex>
							<groupindex>1</groupindex>
						</link>
					</clipitem>
					<clipitem id="clipitem-76" frameBlend="FALSE">
						<masterclipid>masterclip-27</masterclipid>
						<name>mktf-film-visjonar-r19.MXF</name>
						<enabled>TRUE</enabled>
						<duration>1980</duration>
						<rate>
							<timebase>25</timebase>
							<ntsc>FALSE</ntsc>
						</rate>
						<start>42551</start>
						<end>42906</end>
						<in>1549</in>
						<out>1904</out>
						<alphatype>none</alphatype>
						<pixelaspectratio>square</pixelaspectratio>
						<anamorphic>FALSE</anamorphic>
						<file id="file-27">
							<name>mktf-film-visjonar-r19.MXF</name>
							<pathurl>file://localhost/Volumes/omfs/clip.dir/MXF/1080i/mktf-film-visjonar-r19.MXF</pathurl>
							<rate>
								<timebase>25</timebase>
								<ntsc>FALSE</ntsc>
							</rate>
							<duration>1980</duration>
							<timecode>
								<rate>
									<timebase>25</timebase>
									<ntsc>FALSE</ntsc>
								</rate>
								<string>08:10:55:17</string>
								<frame>736392</frame>
								<displayformat>NDF</displayformat>
							</timecode>
							<media>
								<video>
									<duration>18000</duration>
									<samplecharacteristics>
										<rate>
											<timebase>25</timebase>
											<ntsc>FALSE</ntsc>
										</rate>
										<width>1920</width>
										<height>1080</height>
										<anamorphic>FALSE</anamorphic>
										<pixelaspectratio>square</pixelaspectratio>
										<fielddominance>none</fielddominance>
									</samplecharacteristics>
								</video>
								<audio>
									<samplecharacteristics>
										<depth>16</depth>
										<samplerate>48000</samplerate>
									</samplecharacteristics>
									<channelcount>1</channelcount>
									<layout>mono</layout>
									<audiochannel>
										<sourcechannel>1</sourcechannel>
										<channellabel>discrete</channellabel>
									</audiochannel>
								</audio>
								<audio>
									<samplecharacteristics>
										<depth>16</depth>
										<samplerate>48000</samplerate>
									</samplecharacteristics>
									<channelcount>1</channelcount>
									<layout>mono</layout>
									<audiochannel>
										<sourcechannel>2</sourcechannel>
										<channellabel>discrete</channellabel>
									</audiochannel>
								</audio>
								<audio>
									<samplecharacteristics>
										<depth>16</depth>
										<samplerate>48000</samplerate>
									</samplecharacteristics>
									<channelcount>1</channelcount>
									<layout>mono</layout>
									<audiochannel>
										<sourcechannel>3</sourcechannel>
										<channellabel>discrete</channellabel>
									</audiochannel>
								</audio>
								<audio>
									<samplecharacteristics>
										<depth>16</depth>
										<samplerate>48000</samplerate>
									</samplecharacteristics>
									<channelcount>1</channelcount>
									<layout>mono</layout>
									<audiochannel>
										<sourcechannel>4</sourcechannel>
										<channellabel>discrete</channellabel>
									</audiochannel>
								</audio>
								<audio>
									<samplecharacteristics>
										<depth>16</depth>
										<samplerate>48000</samplerate>
									</samplecharacteristics>
									<channelcount>1</channelcount>
									<layout>mono</layout>
									<audiochannel>
										<sourcechannel>5</sourcechannel>
										<channellabel>discrete</channellabel>
									</audiochannel>
								</audio>
								<audio>
									<samplecharacteristics>
										<depth>16</depth>
										<samplerate>48000</samplerate>
									</samplecharacteristics>
									<channelcount>1</channelcount>
									<layout>mono</layout>
									<audiochannel>
										<sourcechannel>6</sourcechannel>
										<channellabel>discrete</channellabel>
									</audiochannel>
								</audio>
								<audio>
									<samplecharacteristics>
										<depth>16</depth>
										<samplerate>48000</samplerate>
									</samplecharacteristics>
									<channelcount>1</channelcount>
									<layout>mono</layout>
									<audiochannel>
										<sourcechannel>7</sourcechannel>
										<channellabel>discrete</channellabel>
									</audiochannel>
								</audio>
								<audio>
									<samplecharacteristics>
										<depth>16</depth>
										<samplerate>48000</samplerate>
									</samplecharacteristics>
									<channelcount>1</channelcount>
									<layout>mono</layout>
									<audiochannel>
										<sourcechannel>8</sourcechannel>
										<channellabel>discrete</channellabel>
									</audiochannel>
								</audio>
							</media>
						</file>
						<link>
							<linkclipref>clipitem-76</linkclipref>
							<mediatype>video</mediatype>
							<trackindex>1</trackindex>
							<clipindex>82</clipindex>
						</link>
						<link>
							<linkclipref>clipitem-471</linkclipref>
							<mediatype>audio</mediatype>
							<trackindex>1</trackindex>
							<clipindex>78</clipindex>
							<groupindex>1</groupindex>
						</link>
					</clipitem>
					<clipitem id="clipitem-77" frameBlend="FALSE">
						<masterclipid>masterclip-28</masterclipid>
						<name>MKTF-FILM-Buljo2-319.MXF</name>
						<enabled>TRUE</enabled>
						<duration>5664</duration>
						<rate>
							<timebase>25</timebase>
							<ntsc>FALSE</ntsc>
						</rate>
						<start>42906</start>
						<end>42964</end>
						<in>3906</in>
						<out>3964</out>
						<alphatype>none</alphatype>
						<pixelaspectratio>square</pixelaspectratio>
						<anamorphic>FALSE</anamorphic>
						<file id="file-28">
							<name>MKTF-FILM-Buljo2-319.MXF</name>
							<pathurl>file://localhost/Volumes/omfs/clip.dir/MXF/1080i/MKTF-FILM-Buljo2-319.MXF</pathurl>
							<rate>
								<timebase>25</timebase>
								<ntsc>FALSE</ntsc>
							</rate>
							<duration>5664</duration>
							<timecode>
								<rate>
									<timebase>25</timebase>
									<ntsc>FALSE</ntsc>
								</rate>
								<string>10:22:56:07</string>
								<frame>934407</frame>
								<displayformat>NDF</displayformat>
							</timecode>
							<media>
								<video>
									<duration>18000</duration>
									<samplecharacteristics>
										<rate>
											<timebase>25</timebase>
											<ntsc>FALSE</ntsc>
										</rate>
										<width>1920</width>
										<height>1080</height>
										<anamorphic>FALSE</anamorphic>
										<pixelaspectratio>square</pixelaspectratio>
										<fielddominance>upper</fielddominance>
									</samplecharacteristics>
								</video>
								<audio>
									<samplecharacteristics>
										<depth>16</depth>
										<samplerate>48000</samplerate>
									</samplecharacteristics>
									<channelcount>1</channelcount>
									<layout>mono</layout>
									<audiochannel>
										<sourcechannel>1</sourcechannel>
										<channellabel>discrete</channellabel>
									</audiochannel>
								</audio>
								<audio>
									<samplecharacteristics>
										<depth>16</depth>
										<samplerate>48000</samplerate>
									</samplecharacteristics>
									<channelcount>1</channelcount>
									<layout>mono</layout>
									<audiochannel>
										<sourcechannel>2</sourcechannel>
										<channellabel>discrete</channellabel>
									</audiochannel>
								</audio>
								<audio>
									<samplecharacteristics>
										<depth>16</depth>
										<samplerate>48000</samplerate>
									</samplecharacteristics>
									<channelcount>1</channelcount>
									<layout>mono</layout>
									<audiochannel>
										<sourcechannel>3</sourcechannel>
										<channellabel>discrete</channellabel>
									</audiochannel>
								</audio>
								<audio>
									<samplecharacteristics>
										<depth>16</depth>
										<samplerate>48000</samplerate>
									</samplecharacteristics>
									<channelcount>1</channelcount>
									<layout>mono</layout>
									<audiochannel>
										<sourcechannel>4</sourcechannel>
										<channellabel>discrete</channellabel>
									</audiochannel>
								</audio>
								<audio>
									<samplecharacteristics>
										<depth>16</depth>
										<samplerate>48000</samplerate>
									</samplecharacteristics>
									<channelcount>1</channelcount>
									<layout>mono</layout>
									<audiochannel>
										<sourcechannel>5</sourcechannel>
										<channellabel>discrete</channellabel>
									</audiochannel>
								</audio>
								<audio>
									<samplecharacteristics>
										<depth>16</depth>
										<samplerate>48000</samplerate>
									</samplecharacteristics>
									<channelcount>1</channelcount>
									<layout>mono</layout>
									<audiochannel>
										<sourcechannel>6</sourcechannel>
										<channellabel>discrete</channellabel>
									</audiochannel>
								</audio>
								<audio>
									<samplecharacteristics>
										<depth>16</depth>
										<samplerate>48000</samplerate>
									</samplecharacteristics>
									<channelcount>1</channelcount>
									<layout>mono</layout>
									<audiochannel>
										<sourcechannel>7</sourcechannel>
										<channellabel>discrete</channellabel>
									</audiochannel>
								</audio>
								<audio>
									<samplecharacteristics>
										<depth>16</depth>
										<samplerate>48000</samplerate>
									</samplecharacteristics>
									<channelcount>1</channelcount>
									<layout>mono</layout>
									<audiochannel>
										<sourcechannel>8</sourcechannel>
										<channellabel>discrete</channellabel>
									</audiochannel>
								</audio>
							</media>
						</file>
						<link>
							<linkclipref>clipitem-77</linkclipref>
							<mediatype>video</mediatype>
							<trackindex>1</trackindex>
							<clipindex>83</clipindex>
						</link>
						<link>
							<linkclipref>clipitem-472</linkclipref>
							<mediatype>audio</mediatype>
							<trackindex>1</trackindex>
							<clipindex>79</clipindex>
							<groupindex>1</groupindex>
						</link>
						<link>
							<linkclipref>clipitem-535</linkclipref>
							<mediatype>audio</mediatype>
							<trackindex>2</trackindex>
							<clipindex>72</clipindex>
							<groupindex>1</groupindex>
						</link>
					</clipitem>
					<clipitem id="clipitem-78" frameBlend="FALSE">
						<masterclipid>masterclip-28</masterclipid>
						<name>MKTF-FILM-Buljo2-319.MXF</name>
						<enabled>TRUE</enabled>
						<duration>5664</duration>
						<rate>
							<ntsc>TRUE</ntsc>
							<timebase>30</timebase>
						</rate>
						<start>42964</start>
						<end>43221</end>
						<in>4380</in>
						<out>4637</out>
						<alphatype>none</alphatype>
						<file id="file-28"/>
					</clipitem>
					<enabled>TRUE</enabled>
					<locked>FALSE</locked>
				</track>
				<track TL.SQTrackShy="0" TL.SQTrackExpandedHeight="25" TL.SQTrackExpanded="1" MZ.TrackTargeted="1">
					<clipitem id="clipitem-79" frameBlend="FALSE">
						<masterclipid>masterclip-9</masterclipid>
						<name>MVI_1583.mov</name>
						<enabled>TRUE</enabled>
						<duration>18696</duration>
						<rate>
							<ntsc>TRUE</ntsc>
							<timebase>30</timebase>
						</rate>
						<start>12128</start>
						<end>12177</end>
						<in>2182</in>
						<out>2231</out>
						<alphatype>none</alphatype>
						<file id="file-9"/>
					</clipitem>
					<transitionitem>
						<start>12193</start>
						<end>12214</end>
						<alignment>start-black</alignment>
						<cutPoint>0</cutPoint>
						<rate>
							<timebase>25</timebase>
							<ntsc>FALSE</ntsc>
						</rate>
						<effect>
							<name>Cross Dissolve</name>
							<effectid>Cross Dissolve</effectid>
							<effectcategory>Dissolve</effectcategory>
							<effecttype>transition</effecttype>
							<mediatype>video</mediatype>
							<wipecode>0</wipecode>
							<wipeaccuracy>100</wipeaccuracy>
							<startratio>0</startratio>
							<endratio>1</endratio>
							<reverse>FALSE</reverse>
						</effect>
					</transitionitem>
					<clipitem id="clipitem-80" frameBlend="FALSE">
						<masterclipid>masterclip-6</masterclipid>
						<name>mktf-film-munchen-A03.MXF</name>
						<enabled>TRUE</enabled>
						<duration>26784</duration>
						<rate>
							<ntsc>TRUE</ntsc>
							<timebase>30</timebase>
						</rate>
						<start>-1</start>
						<end>12214</end>
						<in>1119</in>
						<out>1140</out>
						<alphatype>none</alphatype>
						<file id="file-6"/>
					</clipitem>
					<clipitem id="clipitem-81" frameBlend="FALSE">
						<masterclipid>masterclip-9</masterclipid>
						<name>MVI_1583.mov</name>
						<enabled>TRUE</enabled>
						<duration>18696</duration>
						<rate>
							<ntsc>TRUE</ntsc>
							<timebase>30</timebase>
						</rate>
						<start>12214</start>
						<end>12236</end>
						<in>2335</in>
						<out>2357</out>
						<alphatype>none</alphatype>
						<file id="file-9"/>
					</clipitem>
					<clipitem id="clipitem-82" frameBlend="FALSE">
						<masterclipid>masterclip-9</masterclipid>
						<name>MVI_1583.mov</name>
						<enabled>FALSE</enabled>
						<duration>18696</duration>
						<rate>
							<ntsc>TRUE</ntsc>
							<timebase>30</timebase>
						</rate>
						<start>15180</start>
						<end>15384</end>
						<in>3547</in>
						<out>3751</out>
						<alphatype>none</alphatype>
						<file id="file-9"/>
					</clipitem>
					<clipitem id="clipitem-83" frameBlend="FALSE">
						<masterclipid>masterclip-9</masterclipid>
						<name>MVI_1583.mov</name>
						<enabled>TRUE</enabled>
						<duration>18696</duration>
						<rate>
							<ntsc>TRUE</ntsc>
							<timebase>30</timebase>
						</rate>
						<start>15384</start>
						<end>15417</end>
						<in>3751</in>
						<out>3784</out>
						<alphatype>none</alphatype>
						<file id="file-9"/>
					</clipitem>
					<clipitem id="clipitem-84" frameBlend="FALSE">
						<masterclipid>masterclip-9</masterclipid>
						<name>MVI_1583.mov</name>
						<enabled>FALSE</enabled>
						<duration>18696</duration>
						<rate>
							<ntsc>TRUE</ntsc>
							<timebase>30</timebase>
						</rate>
						<start>15417</start>
						<end>15637</end>
						<in>3784</in>
						<out>4004</out>
						<alphatype>none</alphatype>
						<file id="file-9"/>
					</clipitem>
					<clipitem id="clipitem-85" frameBlend="FALSE">
						<masterclipid>masterclip-9</masterclipid>
						<name>MVI_1583.mov</name>
						<enabled>TRUE</enabled>
						<duration>18696</duration>
						<rate>
							<ntsc>TRUE</ntsc>
							<timebase>30</timebase>
						</rate>
						<start>15637</start>
						<end>15658</end>
						<in>4004</in>
						<out>4025</out>
						<alphatype>none</alphatype>
						<file id="file-9"/>
					</clipitem>
					<clipitem id="clipitem-86" frameBlend="FALSE">
						<masterclipid>masterclip-9</masterclipid>
						<name>MVI_1583.mov</name>
						<enabled>FALSE</enabled>
						<duration>18696</duration>
						<rate>
							<ntsc>TRUE</ntsc>
							<timebase>30</timebase>
						</rate>
						<start>15658</start>
						<end>15823</end>
						<in>4025</in>
						<out>4190</out>
						<alphatype>none</alphatype>
						<file id="file-9"/>
					</clipitem>
					<clipitem id="clipitem-87" frameBlend="FALSE">
						<masterclipid>masterclip-9</masterclipid>
						<name>MVI_1583.mov</name>
						<enabled>FALSE</enabled>
						<duration>18696</duration>
						<rate>
							<ntsc>TRUE</ntsc>
							<timebase>30</timebase>
						</rate>
						<start>15823</start>
						<end>15848</end>
						<in>4190</in>
						<out>4215</out>
						<alphatype>none</alphatype>
						<file id="file-9"/>
					</clipitem>
					<clipitem id="clipitem-88" frameBlend="FALSE">
						<masterclipid>masterclip-9</masterclipid>
						<name>MVI_1583.mov</name>
						<enabled>FALSE</enabled>
						<duration>18696</duration>
						<rate>
							<ntsc>TRUE</ntsc>
							<timebase>30</timebase>
						</rate>
						<start>15848</start>
						<end>16107</end>
						<in>4215</in>
						<out>4474</out>
						<alphatype>none</alphatype>
						<file id="file-9"/>
					</clipitem>
					<clipitem id="clipitem-89" frameBlend="FALSE">
						<masterclipid>masterclip-29</masterclipid>
						<name>MVI_1581.mov</name>
						<enabled>TRUE</enabled>
						<duration>18456</duration>
						<rate>
							<timebase>25</timebase>
							<ntsc>FALSE</ntsc>
						</rate>
						<start>16796</start>
						<end>16899</end>
						<in>16192</in>
						<out>16295</out>
						<alphatype>none</alphatype>
						<pixelaspectratio>square</pixelaspectratio>
						<anamorphic>FALSE</anamorphic>
						<file id="file-29">
							<name>MVI_1581.mov</name>
							<pathurl>file://localhost/Volumes/Scenen/Prosjekter/FILM/FILM%201413%20Jodorowsky%20BW/Video/MVI_1581.mov</pathurl>
							<rate>
								<timebase>25</timebase>
								<ntsc>FALSE</ntsc>
							</rate>
							<duration>18456</duration>
							<timecode>
								<rate>
									<timebase>25</timebase>
									<ntsc>FALSE</ntsc>
								</rate>
								<string>14:40:46:00</string>
								<frame>1321150</frame>
								<displayformat>NDF</displayformat>
							</timecode>
							<media>
								<video>
									<duration>18000</duration>
									<samplecharacteristics>
										<rate>
											<timebase>25</timebase>
											<ntsc>FALSE</ntsc>
										</rate>
										<width>1920</width>
										<height>1080</height>
										<anamorphic>FALSE</anamorphic>
										<pixelaspectratio>square</pixelaspectratio>
										<fielddominance>none</fielddominance>
									</samplecharacteristics>
								</video>
								<audio>
									<samplecharacteristics>
										<depth>16</depth>
										<samplerate>48000</samplerate>
									</samplecharacteristics>
									<channelcount>1</channelcount>
									<layout>mono</layout>
									<audiochannel>
										<sourcechannel>1</sourcechannel>
										<channellabel>discrete</channellabel>
									</audiochannel>
								</audio>
								<audio>
									<samplecharacteristics>
										<depth>16</depth>
										<samplerate>48000</samplerate>
									</samplecharacteristics>
									<channelcount>1</channelcount>
									<layout>mono</layout>
									<audiochannel>
										<sourcechannel>2</sourcechannel>
										<channellabel>discrete</channellabel>
									</audiochannel>
								</audio>
							</media>
						</file>
					</clipitem>
					<clipitem id="clipitem-90" frameBlend="FALSE">
						<masterclipid>masterclip-29</masterclipid>
						<name>MVI_1581.mov</name>
						<enabled>FALSE</enabled>
						<duration>18456</duration>
						<rate>
							<ntsc>TRUE</ntsc>
							<timebase>30</timebase>
						</rate>
						<start>16899</start>
						<end>17784</end>
						<in>16295</in>
						<out>17180</out>
						<alphatype>none</alphatype>
						<file id="file-29"/>
					</clipitem>
					<clipitem id="clipitem-91" frameBlend="FALSE">
						<masterclipid>masterclip-29</masterclipid>
						<name>MVI_1581.mov</name>
						<enabled>FALSE</enabled>
						<duration>18456</duration>
						<rate>
							<ntsc>TRUE</ntsc>
							<timebase>30</timebase>
						</rate>
						<start>17784</start>
						<end>17811</end>
						<in>17180</in>
						<out>17207</out>
						<alphatype>none</alphatype>
						<file id="file-29"/>
					</clipitem>
					<clipitem id="clipitem-92" frameBlend="FALSE">
						<masterclipid>masterclip-29</masterclipid>
						<name>MVI_1581.mov</name>
						<enabled>FALSE</enabled>
						<duration>18456</duration>
						<rate>
							<ntsc>TRUE</ntsc>
							<timebase>30</timebase>
						</rate>
						<start>17811</start>
						<end>18196</end>
						<in>17207</in>
						<out>17592</out>
						<alphatype>none</alphatype>
						<file id="file-29"/>
					</clipitem>
					<clipitem id="clipitem-93" frameBlend="FALSE">
						<masterclipid>masterclip-29</masterclipid>
						<name>MVI_1581.mov</name>
						<enabled>TRUE</enabled>
						<duration>18456</duration>
						<rate>
							<ntsc>TRUE</ntsc>
							<timebase>30</timebase>
						</rate>
						<start>18196</start>
						<end>18249</end>
						<in>17592</in>
						<out>17645</out>
						<alphatype>none</alphatype>
						<file id="file-29"/>
					</clipitem>
					<clipitem id="clipitem-94" frameBlend="FALSE">
						<masterclipid>masterclip-29</masterclipid>
						<name>MVI_1581.mov</name>
						<enabled>FALSE</enabled>
						<duration>18456</duration>
						<rate>
							<ntsc>TRUE</ntsc>
							<timebase>30</timebase>
						</rate>
						<start>18249</start>
						<end>18357</end>
						<in>17645</in>
						<out>17753</out>
						<alphatype>none</alphatype>
						<file id="file-29"/>
					</clipitem>
					<clipitem id="clipitem-95" frameBlend="FALSE">
						<masterclipid>masterclip-29</masterclipid>
						<name>MVI_1581.mov</name>
						<enabled>TRUE</enabled>
						<duration>18456</duration>
						<rate>
							<ntsc>TRUE</ntsc>
							<timebase>30</timebase>
						</rate>
						<start>18357</start>
						<end>18400</end>
						<in>17753</in>
						<out>17796</out>
						<alphatype>none</alphatype>
						<file id="file-29"/>
					</clipitem>
					<clipitem id="clipitem-96" frameBlend="FALSE">
						<masterclipid>masterclip-29</masterclipid>
						<name>MVI_1581.mov</name>
						<enabled>FALSE</enabled>
						<duration>18456</duration>
						<rate>
							<ntsc>TRUE</ntsc>
							<timebase>30</timebase>
						</rate>
						<start>18400</start>
						<end>18513</end>
						<in>18083</in>
						<out>18196</out>
						<alphatype>none</alphatype>
						<file id="file-29"/>
					</clipitem>
					<clipitem id="clipitem-97" frameBlend="FALSE">
						<masterclipid>masterclip-29</masterclipid>
						<name>MVI_1581.mov</name>
						<enabled>TRUE</enabled>
						<duration>18456</duration>
						<rate>
							<ntsc>TRUE</ntsc>
							<timebase>30</timebase>
						</rate>
						<start>18513</start>
						<end>18572</end>
						<in>18196</in>
						<out>18255</out>
						<alphatype>none</alphatype>
						<file id="file-29"/>
					</clipitem>
					<clipitem id="clipitem-98" frameBlend="FALSE">
						<masterclipid>masterclip-6</masterclipid>
						<name>mktf-film-munchen-A03.MXF</name>
						<enabled>TRUE</enabled>
						<duration>26784</duration>
						<rate>
							<ntsc>TRUE</ntsc>
							<timebase>30</timebase>
						</rate>
						<start>19700</start>
						<end>19735</end>
						<in>16006</in>
						<out>16041</out>
						<alphatype>none</alphatype>
						<file id="file-6"/>
					</clipitem>
					<clipitem id="clipitem-99" frameBlend="FALSE">
						<masterclipid>masterclip-6</masterclipid>
						<name>mktf-film-munchen-A03.MXF</name>
						<enabled>TRUE</enabled>
						<duration>26784</duration>
						<rate>
							<ntsc>TRUE</ntsc>
							<timebase>30</timebase>
						</rate>
						<start>19792</start>
						<end>19914</end>
						<in>16650</in>
						<out>16772</out>
						<alphatype>none</alphatype>
						<file id="file-6"/>
					</clipitem>
					<clipitem id="clipitem-100" frameBlend="FALSE">
						<masterclipid>masterclip-29</masterclipid>
						<name>MVI_1581.mov</name>
						<enabled>FALSE</enabled>
						<duration>18456</duration>
						<rate>
							<ntsc>TRUE</ntsc>
							<timebase>30</timebase>
						</rate>
						<start>20457</start>
						<end>20851</end>
						<in>6177</in>
						<out>6571</out>
						<alphatype>none</alphatype>
						<file id="file-29"/>
					</clipitem>
					<clipitem id="clipitem-101" frameBlend="FALSE">
						<masterclipid>masterclip-29</masterclipid>
						<name>MVI_1581.mov</name>
						<enabled>FALSE</enabled>
						<duration>18456</duration>
						<rate>
							<ntsc>TRUE</ntsc>
							<timebase>30</timebase>
						</rate>
						<start>21027</start>
						<end>21047</end>
						<in>6790</in>
						<out>6810</out>
						<alphatype>none</alphatype>
						<file id="file-29"/>
					</clipitem>
					<clipitem id="clipitem-102" frameBlend="FALSE">
						<masterclipid>masterclip-29</masterclipid>
						<name>MVI_1581.mov</name>
						<enabled>TRUE</enabled>
						<duration>18456</duration>
						<rate>
							<ntsc>TRUE</ntsc>
							<timebase>30</timebase>
						</rate>
						<start>21079</start>
						<end>21129</end>
						<in>6842</in>
						<out>6892</out>
						<alphatype>none</alphatype>
						<file id="file-29"/>
					</clipitem>
					<clipitem id="clipitem-103" frameBlend="FALSE">
						<masterclipid>masterclip-29</masterclipid>
						<name>MVI_1581.mov</name>
						<enabled>TRUE</enabled>
						<duration>18456</duration>
						<rate>
							<ntsc>TRUE</ntsc>
							<timebase>30</timebase>
						</rate>
						<start>21162</start>
						<end>21211</end>
						<in>7200</in>
						<out>7249</out>
						<alphatype>none</alphatype>
						<file id="file-29"/>
					</clipitem>
					<clipitem id="clipitem-104" frameBlend="FALSE">
						<masterclipid>masterclip-29</masterclipid>
						<name>MVI_1581.mov</name>
						<enabled>FALSE</enabled>
						<duration>18456</duration>
						<rate>
							<ntsc>TRUE</ntsc>
							<timebase>30</timebase>
						</rate>
						<start>21211</start>
						<end>21292</end>
						<in>7373</in>
						<out>7454</out>
						<alphatype>none</alphatype>
						<file id="file-29"/>
					</clipitem>
					<clipitem id="clipitem-105" frameBlend="FALSE">
						<masterclipid>masterclip-29</masterclipid>
						<name>MVI_1581.mov</name>
						<enabled>FALSE</enabled>
						<duration>18456</duration>
						<rate>
							<ntsc>TRUE</ntsc>
							<timebase>30</timebase>
						</rate>
						<start>21654</start>
						<end>21942</end>
						<in>7829</in>
						<out>8117</out>
						<alphatype>none</alphatype>
						<file id="file-29"/>
					</clipitem>
					<clipitem id="clipitem-106" frameBlend="FALSE">
						<masterclipid>masterclip-9</masterclipid>
						<name>MVI_1583.mov</name>
						<enabled>TRUE</enabled>
						<duration>18696</duration>
						<rate>
							<ntsc>TRUE</ntsc>
							<timebase>30</timebase>
						</rate>
						<start>21962</start>
						<end>22016</end>
						<in>7191</in>
						<out>7245</out>
						<alphatype>none</alphatype>
						<file id="file-9"/>
					</clipitem>
					<clipitem id="clipitem-107" frameBlend="FALSE">
						<masterclipid>masterclip-9</masterclipid>
						<name>MVI_1583.mov</name>
						<enabled>TRUE</enabled>
						<duration>18696</duration>
						<rate>
							<ntsc>TRUE</ntsc>
							<timebase>30</timebase>
						</rate>
						<start>22053</start>
						<end>22072</end>
						<in>7291</in>
						<out>7310</out>
						<alphatype>none</alphatype>
						<file id="file-9"/>
					</clipitem>
					<clipitem id="clipitem-108" frameBlend="FALSE">
						<masterclipid>masterclip-9</masterclipid>
						<name>MVI_1583.mov</name>
						<enabled>FALSE</enabled>
						<duration>18696</duration>
						<rate>
							<ntsc>TRUE</ntsc>
							<timebase>30</timebase>
						</rate>
						<start>22072</start>
						<end>22395</end>
						<in>7310</in>
						<out>7633</out>
						<alphatype>none</alphatype>
						<file id="file-9"/>
					</clipitem>
					<clipitem id="clipitem-109" frameBlend="FALSE">
						<masterclipid>masterclip-9</masterclipid>
						<name>MVI_1583.mov</name>
						<enabled>TRUE</enabled>
						<duration>18696</duration>
						<rate>
							<ntsc>TRUE</ntsc>
							<timebase>30</timebase>
						</rate>
						<start>22395</start>
						<end>22418</end>
						<in>7633</in>
						<out>7656</out>
						<alphatype>none</alphatype>
						<file id="file-9"/>
					</clipitem>
					<clipitem id="clipitem-110" frameBlend="FALSE">
						<masterclipid>masterclip-9</masterclipid>
						<name>MVI_1583.mov</name>
						<enabled>FALSE</enabled>
						<duration>18696</duration>
						<rate>
							<ntsc>TRUE</ntsc>
							<timebase>30</timebase>
						</rate>
						<start>22418</start>
						<end>22644</end>
						<in>7709</in>
						<out>7935</out>
						<alphatype>none</alphatype>
						<file id="file-9"/>
					</clipitem>
					<clipitem id="clipitem-111" frameBlend="FALSE">
						<masterclipid>masterclip-9</masterclipid>
						<name>MVI_1583.mov</name>
						<enabled>TRUE</enabled>
						<duration>18696</duration>
						<rate>
							<ntsc>TRUE</ntsc>
							<timebase>30</timebase>
						</rate>
						<start>22644</start>
						<end>22685</end>
						<in>8119</in>
						<out>8160</out>
						<alphatype>none</alphatype>
						<file id="file-9"/>
					</clipitem>
					<clipitem id="clipitem-112" frameBlend="FALSE">
						<masterclipid>masterclip-9</masterclipid>
						<name>MVI_1583.mov</name>
						<enabled>FALSE</enabled>
						<duration>18696</duration>
						<rate>
							<ntsc>TRUE</ntsc>
							<timebase>30</timebase>
						</rate>
						<start>22685</start>
						<end>22749</end>
						<in>8295</in>
						<out>8359</out>
						<alphatype>none</alphatype>
						<file id="file-9"/>
					</clipitem>
					<clipitem id="clipitem-113" frameBlend="FALSE">
						<masterclipid>masterclip-9</masterclipid>
						<name>MVI_1583.mov</name>
						<enabled>TRUE</enabled>
						<duration>18696</duration>
						<rate>
							<ntsc>TRUE</ntsc>
							<timebase>30</timebase>
						</rate>
						<start>22749</start>
						<end>22788</end>
						<in>8359</in>
						<out>8398</out>
						<alphatype>none</alphatype>
						<file id="file-9"/>
					</clipitem>
					<clipitem id="clipitem-114" frameBlend="FALSE">
						<masterclipid>masterclip-9</masterclipid>
						<name>MVI_1583.mov</name>
						<enabled>FALSE</enabled>
						<duration>18696</duration>
						<rate>
							<ntsc>TRUE</ntsc>
							<timebase>30</timebase>
						</rate>
						<start>22788</start>
						<end>22836</end>
						<in>8499</in>
						<out>8547</out>
						<alphatype>none</alphatype>
						<file id="file-9"/>
					</clipitem>
					<clipitem id="clipitem-115" frameBlend="FALSE">
						<masterclipid>masterclip-8</masterclipid>
						<name>mktf-film-munchen-A01.MXF</name>
						<enabled>TRUE</enabled>
						<duration>21900</duration>
						<rate>
							<ntsc>TRUE</ntsc>
							<timebase>30</timebase>
						</rate>
						<start>22836</start>
						<end>22893</end>
						<in>20238</in>
						<out>20295</out>
						<alphatype>none</alphatype>
						<file id="file-8"/>
					</clipitem>
					<clipitem id="clipitem-116" frameBlend="FALSE">
						<masterclipid>masterclip-30</masterclipid>
						<name>MVI_1582.mov</name>
						<enabled>TRUE</enabled>
						<duration>2526</duration>
						<rate>
							<timebase>25</timebase>
							<ntsc>FALSE</ntsc>
						</rate>
						<start>22893</start>
						<end>22956</end>
						<in>613</in>
						<out>676</out>
						<alphatype>none</alphatype>
						<pixelaspectratio>square</pixelaspectratio>
						<anamorphic>FALSE</anamorphic>
						<file id="file-30">
							<name>MVI_1582.mov</name>
							<pathurl>file://localhost/Volumes/Scenen/Prosjekter/FILM/FILM%201413%20Jodorowsky%20BW/Video/MVI_1582.mov</pathurl>
							<rate>
								<timebase>25</timebase>
								<ntsc>FALSE</ntsc>
							</rate>
							<duration>2526</duration>
							<timecode>
								<rate>
									<timebase>25</timebase>
									<ntsc>FALSE</ntsc>
								</rate>
								<string>14:54:21:00</string>
								<frame>1341525</frame>
								<displayformat>NDF</displayformat>
							</timecode>
							<media>
								<video>
									<duration>18000</duration>
									<samplecharacteristics>
										<rate>
											<timebase>25</timebase>
											<ntsc>FALSE</ntsc>
										</rate>
										<width>1920</width>
										<height>1080</height>
										<anamorphic>FALSE</anamorphic>
										<pixelaspectratio>square</pixelaspectratio>
										<fielddominance>none</fielddominance>
									</samplecharacteristics>
								</video>
								<audio>
									<samplecharacteristics>
										<depth>16</depth>
										<samplerate>48000</samplerate>
									</samplecharacteristics>
									<channelcount>1</channelcount>
									<layout>mono</layout>
									<audiochannel>
										<sourcechannel>1</sourcechannel>
										<channellabel>discrete</channellabel>
									</audiochannel>
								</audio>
								<audio>
									<samplecharacteristics>
										<depth>16</depth>
										<samplerate>48000</samplerate>
									</samplecharacteristics>
									<channelcount>1</channelcount>
									<layout>mono</layout>
									<audiochannel>
										<sourcechannel>2</sourcechannel>
										<channellabel>discrete</channellabel>
									</audiochannel>
								</audio>
							</media>
						</file>
					</clipitem>
					<clipitem id="clipitem-117" frameBlend="FALSE">
						<masterclipid>masterclip-30</masterclipid>
						<name>MVI_1582.mov</name>
						<enabled>FALSE</enabled>
						<duration>2526</duration>
						<rate>
							<ntsc>TRUE</ntsc>
							<timebase>30</timebase>
						</rate>
						<start>22956</start>
						<end>23392</end>
						<in>676</in>
						<out>1112</out>
						<alphatype>none</alphatype>
						<file id="file-30"/>
					</clipitem>
					<clipitem id="clipitem-118" frameBlend="FALSE">
						<masterclipid>masterclip-30</masterclipid>
						<name>MVI_1582.mov</name>
						<enabled>FALSE</enabled>
						<duration>2526</duration>
						<rate>
							<ntsc>TRUE</ntsc>
							<timebase>30</timebase>
						</rate>
						<start>23392</start>
						<end>23426</end>
						<in>1112</in>
						<out>1146</out>
						<alphatype>none</alphatype>
						<file id="file-30"/>
					</clipitem>
					<clipitem id="clipitem-119" frameBlend="FALSE">
						<masterclipid>masterclip-30</masterclipid>
						<name>MVI_1582.mov</name>
						<enabled>FALSE</enabled>
						<duration>2526</duration>
						<rate>
							<ntsc>TRUE</ntsc>
							<timebase>30</timebase>
						</rate>
						<start>23426</start>
						<end>23437</end>
						<in>1146</in>
						<out>1157</out>
						<alphatype>none</alphatype>
						<file id="file-30"/>
					</clipitem>
					<clipitem id="clipitem-120" frameBlend="FALSE">
						<masterclipid>masterclip-30</masterclipid>
						<name>MVI_1582.mov</name>
						<enabled>TRUE</enabled>
						<duration>2526</duration>
						<rate>
							<ntsc>TRUE</ntsc>
							<timebase>30</timebase>
						</rate>
						<start>23437</start>
						<end>23478</end>
						<in>1470</in>
						<out>1511</out>
						<alphatype>none</alphatype>
						<file id="file-30"/>
					</clipitem>
					<clipitem id="clipitem-121" frameBlend="FALSE">
						<masterclipid>masterclip-30</masterclipid>
						<name>MVI_1582.mov</name>
						<enabled>FALSE</enabled>
						<duration>2526</duration>
						<rate>
							<ntsc>TRUE</ntsc>
							<timebase>30</timebase>
						</rate>
						<start>23478</start>
						<end>23744</end>
						<in>1829</in>
						<out>2095</out>
						<alphatype>none</alphatype>
						<file id="file-30"/>
					</clipitem>
					<clipitem id="clipitem-122" frameBlend="FALSE">
						<masterclipid>masterclip-11</masterclipid>
						<name>mktf-film-erikpoppe-r02.MXF</name>
						<enabled>FALSE</enabled>
						<duration>4548</duration>
						<rate>
							<ntsc>TRUE</ntsc>
							<timebase>30</timebase>
						</rate>
						<start>24984</start>
						<end>25021</end>
						<in>1026</in>
						<out>1063</out>
						<alphatype>none</alphatype>
						<file id="file-11"/>
						<link>
							<linkclipref>clipitem-122</linkclipref>
							<mediatype>video</mediatype>
							<trackindex>2</trackindex>
							<clipindex>45</clipindex>
						</link>
						<link>
							<linkclipref>clipitem-443</linkclipref>
							<mediatype>audio</mediatype>
							<trackindex>1</trackindex>
							<clipindex>48</clipindex>
							<groupindex>1</groupindex>
						</link>
						<link>
							<linkclipref>clipitem-511</linkclipref>
							<mediatype>audio</mediatype>
							<trackindex>2</trackindex>
							<clipindex>44</clipindex>
							<groupindex>1</groupindex>
						</link>
					</clipitem>
					<clipitem id="clipitem-123" frameBlend="FALSE">
						<masterclipid>masterclip-11</masterclipid>
						<name>mktf-film-erikpoppe-r02.MXF</name>
						<enabled>FALSE</enabled>
						<duration>4548</duration>
						<rate>
							<ntsc>TRUE</ntsc>
							<timebase>30</timebase>
						</rate>
						<start>25021</start>
						<end>25102</end>
						<in>4210</in>
						<out>4291</out>
						<alphatype>none</alphatype>
						<file id="file-11"/>
						<link>
							<linkclipref>clipitem-123</linkclipref>
							<mediatype>video</mediatype>
							<trackindex>2</trackindex>
							<clipindex>46</clipindex>
						</link>
						<link>
							<linkclipref>clipitem-444</linkclipref>
							<mediatype>audio</mediatype>
							<trackindex>1</trackindex>
							<clipindex>49</clipindex>
							<groupindex>1</groupindex>
						</link>
						<link>
							<linkclipref>clipitem-512</linkclipref>
							<mediatype>audio</mediatype>
							<trackindex>2</trackindex>
							<clipindex>45</clipindex>
							<groupindex>1</groupindex>
						</link>
					</clipitem>
					<clipitem id="clipitem-124" frameBlend="FALSE">
						<masterclipid>masterclip-31</masterclipid>
						<name>mktf-film-erikpoppe-r10.MXF</name>
						<enabled>FALSE</enabled>
						<duration>4764</duration>
						<rate>
							<timebase>25</timebase>
							<ntsc>FALSE</ntsc>
						</rate>
						<start>25133</start>
						<end>25175</end>
						<in>3459</in>
						<out>3501</out>
						<alphatype>none</alphatype>
						<pixelaspectratio>square</pixelaspectratio>
						<anamorphic>FALSE</anamorphic>
						<file id="file-31">
							<name>mktf-film-erikpoppe-r10.MXF</name>
							<pathurl>file://localhost/Volumes/omfs/clip.dir/MXF/1080i/mktf-film-erikpoppe-r10.MXF</pathurl>
							<rate>
								<timebase>25</timebase>
								<ntsc>FALSE</ntsc>
							</rate>
							<duration>4764</duration>
							<timecode>
								<rate>
									<timebase>25</timebase>
									<ntsc>FALSE</ntsc>
								</rate>
								<string>12:27:27:02</string>
								<frame>1121177</frame>
								<displayformat>NDF</displayformat>
							</timecode>
							<media>
								<video>
									<duration>18000</duration>
									<samplecharacteristics>
										<rate>
											<timebase>25</timebase>
											<ntsc>FALSE</ntsc>
										</rate>
										<width>1920</width>
										<height>1080</height>
										<anamorphic>FALSE</anamorphic>
										<pixelaspectratio>square</pixelaspectratio>
										<fielddominance>none</fielddominance>
									</samplecharacteristics>
								</video>
								<audio>
									<samplecharacteristics>
										<depth>16</depth>
										<samplerate>48000</samplerate>
									</samplecharacteristics>
									<channelcount>1</channelcount>
									<layout>mono</layout>
									<audiochannel>
										<sourcechannel>1</sourcechannel>
										<channellabel>discrete</channellabel>
									</audiochannel>
								</audio>
								<audio>
									<samplecharacteristics>
										<depth>16</depth>
										<samplerate>48000</samplerate>
									</samplecharacteristics>
									<channelcount>1</channelcount>
									<layout>mono</layout>
									<audiochannel>
										<sourcechannel>2</sourcechannel>
										<channellabel>discrete</channellabel>
									</audiochannel>
								</audio>
							</media>
						</file>
					</clipitem>
					<clipitem id="clipitem-125" frameBlend="FALSE">
						<masterclipid>masterclip-32</masterclipid>
						<name>mktf-film-erikpoppe-r09.MXF</name>
						<enabled>FALSE</enabled>
						<duration>37380</duration>
						<rate>
							<timebase>25</timebase>
							<ntsc>FALSE</ntsc>
						</rate>
						<start>25229</start>
						<end>25901</end>
						<in>12795</in>
						<out>13467</out>
						<alphatype>none</alphatype>
						<pixelaspectratio>square</pixelaspectratio>
						<anamorphic>FALSE</anamorphic>
						<file id="file-32">
							<name>mktf-film-erikpoppe-r09.MXF</name>
							<pathurl>file://localhost/Volumes/omfs/clip.dir/MXF/1080i/mktf-film-erikpoppe-r09.MXF</pathurl>
							<rate>
								<timebase>25</timebase>
								<ntsc>FALSE</ntsc>
							</rate>
							<duration>37380</duration>
							<timecode>
								<rate>
									<timebase>25</timebase>
									<ntsc>FALSE</ntsc>
								</rate>
								<string>12:02:13:23</string>
								<frame>1083348</frame>
								<displayformat>NDF</displayformat>
							</timecode>
							<media>
								<video>
									<duration>18000</duration>
									<samplecharacteristics>
										<rate>
											<timebase>25</timebase>
											<ntsc>FALSE</ntsc>
										</rate>
										<width>1920</width>
										<height>1080</height>
										<anamorphic>FALSE</anamorphic>
										<pixelaspectratio>square</pixelaspectratio>
										<fielddominance>none</fielddominance>
									</samplecharacteristics>
								</video>
								<audio>
									<samplecharacteristics>
										<depth>16</depth>
										<samplerate>48000</samplerate>
									</samplecharacteristics>
									<channelcount>1</channelcount>
									<layout>mono</layout>
									<audiochannel>
										<sourcechannel>1</sourcechannel>
										<channellabel>discrete</channellabel>
									</audiochannel>
								</audio>
								<audio>
									<samplecharacteristics>
										<depth>16</depth>
										<samplerate>48000</samplerate>
									</samplecharacteristics>
									<channelcount>1</channelcount>
									<layout>mono</layout>
									<audiochannel>
										<sourcechannel>2</sourcechannel>
										<channellabel>discrete</channellabel>
									</audiochannel>
								</audio>
							</media>
						</file>
							<filter>
								<effect>
									<name>Basic Motion</name>
									<effectid>basic</effectid>
									<effectcategory>motion</effectcategory>
									<effecttype>motion</effecttype>
									<mediatype>video</mediatype>
									<parameter authoringApp="PremierePro">
										<parameterid>scale</parameterid>
										<name>Scale</name>
										<valuemin>0</valuemin>
										<valuemax>1000</valuemax>
										<value>50</value>
									</parameter>
									<parameter authoringApp="PremierePro">
										<parameterid>rotation</parameterid>
										<name>Rotation</name>
										<valuemin>-8640</valuemin>
										<valuemax>8640</valuemax>
										<value>0</value>
									</parameter>
									<parameter authoringApp="PremierePro">
										<parameterid>center</parameterid>
										<name>Center</name>
										<value>
											<horiz>-0.247985</horiz>
											<vert>-0.0283505</vert>
										</value>
									</parameter>
									<parameter authoringApp="PremierePro">
										<parameterid>centerOffset</parameterid>
										<name>Anchor Point</name>
										<value>
											<horiz>0</horiz>
											<vert>0</vert>
										</value>
									</parameter>
								</effect>
							</filter>
					</clipitem>
					<clipitem id="clipitem-126" frameBlend="FALSE">
						<masterclipid>masterclip-32</masterclipid>
						<name>mktf-film-erikpoppe-r09.MXF</name>
						<enabled>TRUE</enabled>
						<duration>37380</duration>
						<rate>
							<ntsc>TRUE</ntsc>
							<timebase>30</timebase>
						</rate>
						<start>25901</start>
						<end>25940</end>
						<in>14796</in>
						<out>14835</out>
						<alphatype>none</alphatype>
						<file id="file-32"/>
					</clipitem>
					<clipitem id="clipitem-127" frameBlend="FALSE">
						<masterclipid>masterclip-32</masterclipid>
						<name>mktf-film-erikpoppe-r09.MXF</name>
						<enabled>TRUE</enabled>
						<duration>37380</duration>
						<rate>
							<ntsc>TRUE</ntsc>
							<timebase>30</timebase>
						</rate>
						<start>26807</start>
						<end>26864</end>
						<in>15702</in>
						<out>15759</out>
						<alphatype>none</alphatype>
						<file id="file-32"/>
					</clipitem>
					<clipitem id="clipitem-128" frameBlend="FALSE">
						<masterclipid>masterclip-32</masterclipid>
						<name>mktf-film-erikpoppe-r09.MXF</name>
						<enabled>FALSE</enabled>
						<duration>37380</duration>
						<rate>
							<ntsc>TRUE</ntsc>
							<timebase>30</timebase>
						</rate>
						<start>27049</start>
						<end>27085</end>
						<in>15944</in>
						<out>15980</out>
						<alphatype>none</alphatype>
						<file id="file-32"/>
					</clipitem>
					<clipitem id="clipitem-129" frameBlend="FALSE">
						<masterclipid>masterclip-32</masterclipid>
						<name>mktf-film-erikpoppe-r09.MXF</name>
						<enabled>TRUE</enabled>
						<duration>37380</duration>
						<rate>
							<ntsc>TRUE</ntsc>
							<timebase>30</timebase>
						</rate>
						<start>27290</start>
						<end>27321</end>
						<in>16185</in>
						<out>16216</out>
						<alphatype>none</alphatype>
						<file id="file-32"/>
					</clipitem>
					<clipitem id="clipitem-130" frameBlend="FALSE">
						<masterclipid>masterclip-32</masterclipid>
						<name>mktf-film-erikpoppe-r09.MXF</name>
						<enabled>FALSE</enabled>
						<duration>37380</duration>
						<rate>
							<ntsc>TRUE</ntsc>
							<timebase>30</timebase>
						</rate>
						<start>27321</start>
						<end>27888</end>
						<in>16216</in>
						<out>16783</out>
						<alphatype>none</alphatype>
						<file id="file-32"/>
					</clipitem>
					<clipitem id="clipitem-131" frameBlend="FALSE">
						<masterclipid>masterclip-32</masterclipid>
						<name>mktf-film-erikpoppe-r09.MXF</name>
						<enabled>FALSE</enabled>
						<duration>37380</duration>
						<rate>
							<ntsc>TRUE</ntsc>
							<timebase>30</timebase>
						</rate>
						<start>27888</start>
						<end>27914</end>
						<in>16783</in>
						<out>16809</out>
						<alphatype>none</alphatype>
						<file id="file-32"/>
					</clipitem>
					<clipitem id="clipitem-132" frameBlend="FALSE">
						<masterclipid>masterclip-32</masterclipid>
						<name>mktf-film-erikpoppe-r09.MXF</name>
						<enabled>TRUE</enabled>
						<duration>37380</duration>
						<rate>
							<ntsc>TRUE</ntsc>
							<timebase>30</timebase>
						</rate>
						<start>28788</start>
						<end>28825</end>
						<in>24413</in>
						<out>24450</out>
						<alphatype>none</alphatype>
						<file id="file-32"/>
					</clipitem>
					<clipitem id="clipitem-133" frameBlend="FALSE">
						<masterclipid>masterclip-32</masterclipid>
						<name>mktf-film-erikpoppe-r09.MXF</name>
						<enabled>FALSE</enabled>
						<duration>37380</duration>
						<rate>
							<ntsc>TRUE</ntsc>
							<timebase>30</timebase>
						</rate>
						<start>28825</start>
						<end>29221</end>
						<in>24450</in>
						<out>24846</out>
						<alphatype>none</alphatype>
						<file id="file-32"/>
					</clipitem>
					<clipitem id="clipitem-134" frameBlend="FALSE">
						<masterclipid>masterclip-32</masterclipid>
						<name>mktf-film-erikpoppe-r09.MXF</name>
						<enabled>FALSE</enabled>
						<duration>37380</duration>
						<rate>
							<ntsc>TRUE</ntsc>
							<timebase>30</timebase>
						</rate>
						<start>29221</start>
						<end>29267</end>
						<in>24846</in>
						<out>24892</out>
						<alphatype>none</alphatype>
						<file id="file-32"/>
					</clipitem>
					<clipitem id="clipitem-135" frameBlend="FALSE">
						<masterclipid>masterclip-32</masterclipid>
						<name>mktf-film-erikpoppe-r09.MXF</name>
						<enabled>FALSE</enabled>
						<duration>37380</duration>
						<rate>
							<ntsc>TRUE</ntsc>
							<timebase>30</timebase>
						</rate>
						<start>29267</start>
						<end>29361</end>
						<in>24892</in>
						<out>24986</out>
						<alphatype>none</alphatype>
						<file id="file-32"/>
					</clipitem>
					<clipitem id="clipitem-136" frameBlend="FALSE">
						<masterclipid>masterclip-32</masterclipid>
						<name>mktf-film-erikpoppe-r09.MXF</name>
						<enabled>FALSE</enabled>
						<duration>37380</duration>
						<rate>
							<ntsc>TRUE</ntsc>
							<timebase>30</timebase>
						</rate>
						<start>29361</start>
						<end>29378</end>
						<in>24986</in>
						<out>25003</out>
						<alphatype>none</alphatype>
						<file id="file-32"/>
					</clipitem>
					<clipitem id="clipitem-137" frameBlend="FALSE">
						<masterclipid>masterclip-32</masterclipid>
						<name>mktf-film-erikpoppe-r09.MXF</name>
						<enabled>TRUE</enabled>
						<duration>37380</duration>
						<rate>
							<ntsc>TRUE</ntsc>
							<timebase>30</timebase>
						</rate>
						<start>29382</start>
						<end>29425</end>
						<in>28172</in>
						<out>28215</out>
						<alphatype>none</alphatype>
						<file id="file-32"/>
					</clipitem>
					<clipitem id="clipitem-138" frameBlend="FALSE">
						<masterclipid>masterclip-32</masterclipid>
						<name>mktf-film-erikpoppe-r09.MXF</name>
						<enabled>TRUE</enabled>
						<duration>37380</duration>
						<rate>
							<ntsc>TRUE</ntsc>
							<timebase>30</timebase>
						</rate>
						<start>29496</start>
						<end>29531</end>
						<in>28286</in>
						<out>28321</out>
						<alphatype>none</alphatype>
						<file id="file-32"/>
					</clipitem>
					<clipitem id="clipitem-139" frameBlend="FALSE">
						<masterclipid>masterclip-32</masterclipid>
						<name>mktf-film-erikpoppe-r09.MXF</name>
						<enabled>FALSE</enabled>
						<duration>37380</duration>
						<rate>
							<ntsc>TRUE</ntsc>
							<timebase>30</timebase>
						</rate>
						<start>29577</start>
						<end>29697</end>
						<in>28419</in>
						<out>28539</out>
						<alphatype>none</alphatype>
						<file id="file-32"/>
					</clipitem>
					<clipitem id="clipitem-140" frameBlend="FALSE">
						<masterclipid>masterclip-32</masterclipid>
						<name>mktf-film-erikpoppe-r09.MXF</name>
						<enabled>FALSE</enabled>
						<duration>37380</duration>
						<rate>
							<ntsc>TRUE</ntsc>
							<timebase>30</timebase>
						</rate>
						<start>29697</start>
						<end>29772</end>
						<in>28539</in>
						<out>28614</out>
						<alphatype>none</alphatype>
						<file id="file-32"/>
					</clipitem>
					<clipitem id="clipitem-141" frameBlend="FALSE">
						<masterclipid>masterclip-32</masterclipid>
						<name>mktf-film-erikpoppe-r09.MXF</name>
						<enabled>FALSE</enabled>
						<duration>37380</duration>
						<rate>
							<ntsc>TRUE</ntsc>
							<timebase>30</timebase>
						</rate>
						<start>29794</start>
						<end>29859</end>
						<in>28636</in>
						<out>28701</out>
						<alphatype>none</alphatype>
						<file id="file-32"/>
					</clipitem>
					<clipitem id="clipitem-142" frameBlend="FALSE">
						<masterclipid>masterclip-32</masterclipid>
						<name>mktf-film-erikpoppe-r09.MXF</name>
						<enabled>FALSE</enabled>
						<duration>37380</duration>
						<rate>
							<ntsc>TRUE</ntsc>
							<timebase>30</timebase>
						</rate>
						<start>29889</start>
						<end>29922</end>
						<in>28731</in>
						<out>28764</out>
						<alphatype>none</alphatype>
						<file id="file-32"/>
					</clipitem>
					<clipitem id="clipitem-143" frameBlend="FALSE">
						<masterclipid>masterclip-32</masterclipid>
						<name>mktf-film-erikpoppe-r09.MXF</name>
						<enabled>TRUE</enabled>
						<duration>37380</duration>
						<rate>
							<ntsc>TRUE</ntsc>
							<timebase>30</timebase>
						</rate>
						<start>29922</start>
						<end>29960</end>
						<in>28764</in>
						<out>28802</out>
						<alphatype>none</alphatype>
						<file id="file-32"/>
					</clipitem>
					<clipitem id="clipitem-144" frameBlend="FALSE">
						<masterclipid>masterclip-32</masterclipid>
						<name>mktf-film-erikpoppe-r09.MXF</name>
						<enabled>FALSE</enabled>
						<duration>37380</duration>
						<rate>
							<ntsc>TRUE</ntsc>
							<timebase>30</timebase>
						</rate>
						<start>29960</start>
						<end>31005</end>
						<in>28802</in>
						<out>29847</out>
						<alphatype>none</alphatype>
						<file id="file-32"/>
					</clipitem>
					<clipitem id="clipitem-145" frameBlend="FALSE">
						<masterclipid>masterclip-32</masterclipid>
						<name>mktf-film-erikpoppe-r09.MXF</name>
						<enabled>FALSE</enabled>
						<duration>37380</duration>
						<rate>
							<ntsc>TRUE</ntsc>
							<timebase>30</timebase>
						</rate>
						<start>31518</start>
						<end>31557</end>
						<in>30396</in>
						<out>30435</out>
						<alphatype>none</alphatype>
						<file id="file-32"/>
					</clipitem>
					<clipitem id="clipitem-146" frameBlend="FALSE">
						<masterclipid>masterclip-32</masterclipid>
						<name>mktf-film-erikpoppe-r09.MXF</name>
						<enabled>FALSE</enabled>
						<duration>37380</duration>
						<rate>
							<ntsc>TRUE</ntsc>
							<timebase>30</timebase>
						</rate>
						<start>31979</start>
						<end>32368</end>
						<in>30857</in>
						<out>31246</out>
						<alphatype>none</alphatype>
						<file id="file-32"/>
					</clipitem>
					<clipitem id="clipitem-147" frameBlend="FALSE">
						<masterclipid>masterclip-32</masterclipid>
						<name>mktf-film-erikpoppe-r09.MXF</name>
						<enabled>TRUE</enabled>
						<duration>37380</duration>
						<rate>
							<ntsc>TRUE</ntsc>
							<timebase>30</timebase>
						</rate>
						<start>32368</start>
						<end>32481</end>
						<in>33151</in>
						<out>33264</out>
						<alphatype>none</alphatype>
						<file id="file-32"/>
					</clipitem>
					<clipitem id="clipitem-148" frameBlend="FALSE">
						<masterclipid>masterclip-32</masterclipid>
						<name>mktf-film-erikpoppe-r09.MXF</name>
						<enabled>TRUE</enabled>
						<duration>37380</duration>
						<rate>
							<ntsc>TRUE</ntsc>
							<timebase>30</timebase>
						</rate>
						<start>33426</start>
						<end>33542</end>
						<in>34209</in>
						<out>34325</out>
						<alphatype>none</alphatype>
						<file id="file-32"/>
					</clipitem>
					<clipitem id="clipitem-149" frameBlend="FALSE">
						<masterclipid>masterclip-32</masterclipid>
						<name>mktf-film-erikpoppe-r09.MXF</name>
						<enabled>FALSE</enabled>
						<duration>37380</duration>
						<rate>
							<ntsc>TRUE</ntsc>
							<timebase>30</timebase>
						</rate>
						<start>33618</start>
						<end>33799</end>
						<in>34401</in>
						<out>34582</out>
						<alphatype>none</alphatype>
						<file id="file-32"/>
					</clipitem>
					<clipitem id="clipitem-150" frameBlend="FALSE">
						<masterclipid>masterclip-33</masterclipid>
						<name>FILM_Loop_Rød.mov</name>
						<enabled>TRUE</enabled>
						<duration>1000</duration>
						<rate>
							<timebase>25</timebase>
							<ntsc>FALSE</ntsc>
						</rate>
						<start>34134</start>
						<end>34214</end>
						<in>70</in>
						<out>150</out>
						<alphatype>none</alphatype>
						<pixelaspectratio>square</pixelaspectratio>
						<anamorphic>FALSE</anamorphic>
						<file id="file-33">
							<name>FILM_Loop_Rød.mov</name>
							<pathurl>file://localhost/Volumes/Scenen/Utveksling/FILM/_Filmbonanza%20Mastere/FILM_Loop_R%c3%b8d.mov</pathurl>
							<rate>
								<timebase>25</timebase>
								<ntsc>FALSE</ntsc>
							</rate>
							<duration>1000</duration>
							<timecode>
								<rate>
									<timebase>25</timebase>
									<ntsc>FALSE</ntsc>
								</rate>
								<string>00:00:00:00</string>
								<frame>0</frame>
								<displayformat>NDF</displayformat>
							</timecode>
							<media>
								<video>
									<duration>18000</duration>
									<samplecharacteristics>
										<rate>
											<timebase>25</timebase>
											<ntsc>FALSE</ntsc>
										</rate>
										<width>1920</width>
										<height>1080</height>
										<anamorphic>FALSE</anamorphic>
										<pixelaspectratio>square</pixelaspectratio>
										<fielddominance>none</fielddominance>
									</samplecharacteristics>
								</video>
								<audio>
									<samplecharacteristics>
										<depth>16</depth>
										<samplerate>48000</samplerate>
									</samplecharacteristics>
									<channelcount>2</channelcount>
								</audio>
							</media>
						</file>
					</clipitem>
					<transitionitem>
						<start>35306</start>
						<end>35331</end>
						<alignment>start-black</alignment>
						<cutPoint>0</cutPoint>
						<rate>
							<timebase>25</timebase>
							<ntsc>FALSE</ntsc>
						</rate>
						<effect>
							<name>Cross Dissolve</name>
							<effectid>Cross Dissolve</effectid>
							<effectcategory>Dissolve</effectcategory>
							<effecttype>transition</effecttype>
							<mediatype>video</mediatype>
							<wipecode>0</wipecode>
							<wipeaccuracy>100</wipeaccuracy>
							<startratio>0</startratio>
							<endratio>1</endratio>
							<reverse>FALSE</reverse>
						</effect>
					</transitionitem>
					<clipitem id="clipitem-151" frameBlend="FALSE">
						<masterclipid>masterclip-14</masterclipid>
						<name>C0091.mov</name>
						<enabled>TRUE</enabled>
						<duration>42484</duration>
						<rate>
							<ntsc>TRUE</ntsc>
							<timebase>30</timebase>
						</rate>
						<start>-1</start>
						<end>-1</end>
						<in>2677</in>
						<out>2822</out>
						<alphatype>black</alphatype>
						<file id="file-14"/>
							<filter>
								<effect>
									<name>Crop</name>
									<effectid>crop</effectid>
									<effectcategory>motion</effectcategory>
									<effecttype>motion</effecttype>
									<mediatype>video</mediatype>
									<parameter authoringApp="PremierePro">
										<parameterid>left</parameterid>
										<name>left</name>
										<valuemin>0</valuemin>
										<valuemax>100</valuemax>
										<value>45</value>
									</parameter>
									<parameter authoringApp="PremierePro">
										<parameterid>right</parameterid>
										<name>right</name>
										<valuemin>0</valuemin>
										<valuemax>100</valuemax>
										<value>45</value>
									</parameter>
									<parameter authoringApp="PremierePro">
										<parameterid>top</parameterid>
										<name>top</name>
										<valuemin>0</valuemin>
										<valuemax>100</valuemax>
										<value>41</value>
									</parameter>
									<parameter authoringApp="PremierePro">
										<parameterid>bottom</parameterid>
										<name>bottom</name>
										<valuemin>0</valuemin>
										<valuemax>100</valuemax>
										<value>41</value>
									</parameter>
								</effect>
							</filter>
							<filter>
								<effect>
									<name>Gaussian Blur</name>
									<effectid>Gaussian Blur</effectid>
									<effectcategory>Blur</effectcategory>
									<effecttype>motion</effecttype>
									<mediatype>video</mediatype>
									<parameter authoringApp="PremierePro">
										<parameterid>radius</parameterid>
										<name>Radius</name>
										<valuemin>0</valuemin>
										<valuemax>100</valuemax>
										<value>0</value>
									</parameter>
								</effect>
							</filter>
					</clipitem>
					<transitionitem>
						<start>35426</start>
						<end>35451</end>
						<alignment>end-black</alignment>
						<cutPoint>25</cutPoint>
						<rate>
							<timebase>25</timebase>
							<ntsc>FALSE</ntsc>
						</rate>
						<effect>
							<name>Cross Dissolve</name>
							<effectid>Cross Dissolve</effectid>
							<effectcategory>Dissolve</effectcategory>
							<effecttype>transition</effecttype>
							<mediatype>video</mediatype>
							<wipecode>0</wipecode>
							<wipeaccuracy>100</wipeaccuracy>
							<startratio>0</startratio>
							<endratio>1</endratio>
							<reverse>FALSE</reverse>
						</effect>
					</transitionitem>
					<enabled>TRUE</enabled>
					<locked>FALSE</locked>
				</track>
				<track TL.SQTrackShy="0" TL.SQTrackExpandedHeight="25" TL.SQTrackExpanded="1" MZ.TrackTargeted="1">
					<clipitem id="clipitem-152" frameBlend="FALSE">
						<masterclipid>masterclip-34</masterclipid>
						<name>Kulturstripa_master.mov</name>
						<enabled>TRUE</enabled>
						<duration>101</duration>
						<rate>
							<timebase>25</timebase>
							<ntsc>FALSE</ntsc>
						</rate>
						<start>0</start>
						<end>77</end>
						<in>0</in>
						<out>77</out>
						<alphatype>none</alphatype>
						<pixelaspectratio>square</pixelaspectratio>
						<anamorphic>FALSE</anamorphic>
						<file id="file-34">
							<name>Kulturstripa_master.mov</name>
							<pathurl>file://localhost/Volumes/Scenen/Prosjekter/FILM/FILM%200110%20Mastere%20Grafikk%20og%20Lyd%20Filmbonanza%20GI%20010112/Video/Filmbonanza%20Mastere/Kulturstripa_master.mov</pathurl>
							<rate>
								<timebase>25</timebase>
								<ntsc>FALSE</ntsc>
							</rate>
							<duration>101</duration>
							<timecode>
								<rate>
									<timebase>25</timebase>
									<ntsc>FALSE</ntsc>
								</rate>
								<string>00:00:00:00</string>
								<frame>0</frame>
								<displayformat>NDF</displayformat>
							</timecode>
							<media>
								<video>
									<duration>18000</duration>
									<samplecharacteristics>
										<rate>
											<timebase>25</timebase>
											<ntsc>FALSE</ntsc>
										</rate>
										<width>1920</width>
										<height>1080</height>
										<anamorphic>FALSE</anamorphic>
										<pixelaspectratio>square</pixelaspectratio>
										<fielddominance>none</fielddominance>
									</samplecharacteristics>
								</video>
								<audio>
									<samplecharacteristics>
										<depth>16</depth>
										<samplerate>48000</samplerate>
									</samplecharacteristics>
									<channelcount>2</channelcount>
								</audio>
							</media>
						</file>
						<link>
							<linkclipref>clipitem-152</linkclipref>
							<mediatype>video</mediatype>
							<trackindex>3</trackindex>
							<clipindex>1</clipindex>
						</link>
						<link>
							<linkclipref>clipitem-592</linkclipref>
							<mediatype>audio</mediatype>
							<trackindex>8</trackindex>
							<clipindex>1</clipindex>
							<groupindex>1</groupindex>
						</link>
						<link>
							<linkclipref>clipitem-613</linkclipref>
							<mediatype>audio</mediatype>
							<trackindex>9</trackindex>
							<clipindex>1</clipindex>
							<groupindex>1</groupindex>
						</link>
					</clipitem>
					<clipitem id="clipitem-153" frameBlend="FALSE">
						<masterclipid>masterclip-35</masterclipid>
						<name>apocalypse_now_begynnelsen</name>
						<enabled>TRUE</enabled>
						<duration>9005</duration>
						<rate>
							<timebase>25</timebase>
							<ntsc>FALSE</ntsc>
						</rate>
						<start>279</start>
						<end>357</end>
						<in>3523</in>
						<out>3601</out>
						<alphatype>none</alphatype>
						<pixelaspectratio>square</pixelaspectratio>
						<anamorphic>FALSE</anamorphic>
						<file id="file-35">
							<name>apocalypse_now_begynnelsen.mov</name>
							<pathurl>file://localhost/Volumes/Scenen/Utveksling/FILM/DVD%20rip%20og%20EPK/Apocalypse%20Now/apocalypse_now_begynnelsen.mov</pathurl>
							<rate>
								<timebase>25</timebase>
								<ntsc>FALSE</ntsc>
							</rate>
							<duration>9005</duration>
							<timecode>
								<rate>
									<timebase>25</timebase>
									<ntsc>FALSE</ntsc>
								</rate>
								<string>00:00:00:00</string>
								<frame>0</frame>
								<displayformat>NDF</displayformat>
							</timecode>
							<media>
								<video>
									<duration>18000</duration>
									<samplecharacteristics>
										<rate>
											<timebase>25</timebase>
											<ntsc>FALSE</ntsc>
										</rate>
										<width>1920</width>
										<height>1080</height>
										<anamorphic>FALSE</anamorphic>
										<pixelaspectratio>square</pixelaspectratio>
										<fielddominance>none</fielddominance>
									</samplecharacteristics>
								</video>
								<audio>
									<samplecharacteristics>
										<depth>16</depth>
										<samplerate>48000</samplerate>
									</samplecharacteristics>
									<channelcount>2</channelcount>
								</audio>
							</media>
						</file>
					</clipitem>
					<clipitem id="clipitem-154" frameBlend="FALSE">
						<masterclipid>masterclip-36</masterclipid>
						<name>filmb-apocalypsenow_1.mxf</name>
						<enabled>TRUE</enabled>
						<duration>9706</duration>
						<rate>
							<timebase>25</timebase>
							<ntsc>FALSE</ntsc>
						</rate>
						<start>357</start>
						<end>429</end>
						<in>3852</in>
						<out>3924</out>
						<alphatype>none</alphatype>
						<pixelaspectratio>square</pixelaspectratio>
						<anamorphic>FALSE</anamorphic>
						<file id="file-36">
							<name>filmb-apocalypsenow_1.mxf</name>
							<pathurl>file://localhost/Volumes/Scenen/Prosjekter/FILM/FILM%201413%20Stormannsgalskap/Filmrips/filmb-apocalypsenow_1.mxf</pathurl>
							<rate>
								<timebase>25</timebase>
								<ntsc>FALSE</ntsc>
							</rate>
							<duration>9706</duration>
							<timecode>
								<rate>
									<timebase>25</timebase>
									<ntsc>FALSE</ntsc>
								</rate>
								<string>00:15:37:16</string>
								<frame>23441</frame>
								<displayformat>NDF</displayformat>
							</timecode>
							<media>
								<video>
									<duration>18000</duration>
									<samplecharacteristics>
										<rate>
											<timebase>25</timebase>
											<ntsc>FALSE</ntsc>
										</rate>
										<width>1920</width>
										<height>1080</height>
										<anamorphic>FALSE</anamorphic>
										<pixelaspectratio>square</pixelaspectratio>
										<fielddominance>upper</fielddominance>
									</samplecharacteristics>
								</video>
								<audio>
									<samplecharacteristics>
										<depth>16</depth>
										<samplerate>48000</samplerate>
									</samplecharacteristics>
									<channelcount>1</channelcount>
									<layout>mono</layout>
									<audiochannel>
										<sourcechannel>1</sourcechannel>
										<channellabel>discrete</channellabel>
									</audiochannel>
								</audio>
							</media>
						</file>
							<filter>
								<effect>
									<name>Opacity</name>
									<effectid>opacity</effectid>
									<effectcategory>motion</effectcategory>
									<effecttype>motion</effecttype>
									<mediatype>video</mediatype>
									<parameter authoringApp="PremierePro">
										<parameterid>opacity</parameterid>
										<name>opacity</name>
										<valuemin>0</valuemin>
										<valuemax>100</valuemax>
										<value>100</value>
										<keyframe>
											<when>0</when>
											<value>100</value>
										</keyframe>
									</parameter>
								</effect>
							</filter>
						<link>
							<linkclipref>clipitem-154</linkclipref>
							<mediatype>video</mediatype>
							<trackindex>3</trackindex>
							<clipindex>3</clipindex>
						</link>
						<link>
							<linkclipref>clipitem-401</linkclipref>
							<mediatype>audio</mediatype>
							<trackindex>1</trackindex>
							<clipindex>2</clipindex>
							<groupindex>1</groupindex>
						</link>
					</clipitem>
					<clipitem id="clipitem-155" frameBlend="FALSE">
						<masterclipid>masterclip-6</masterclipid>
						<name>mktf-film-munchen-A03.MXF</name>
						<enabled>TRUE</enabled>
						<duration>26784</duration>
						<rate>
							<ntsc>TRUE</ntsc>
							<timebase>30</timebase>
						</rate>
						<start>435</start>
						<end>501</end>
						<in>2556</in>
						<out>2622</out>
						<alphatype>none</alphatype>
						<file id="file-6"/>
						<link>
							<linkclipref>clipitem-155</linkclipref>
							<mediatype>video</mediatype>
							<trackindex>3</trackindex>
							<clipindex>4</clipindex>
						</link>
						<link>
							<linkclipref>clipitem-402</linkclipref>
							<mediatype>audio</mediatype>
							<trackindex>1</trackindex>
							<clipindex>3</clipindex>
							<groupindex>1</groupindex>
						</link>
					</clipitem>
					<clipitem id="clipitem-156" frameBlend="FALSE">
						<masterclipid>masterclip-37</masterclipid>
						<name>El Topo.mov</name>
						<enabled>TRUE</enabled>
						<duration>3224</duration>
						<rate>
							<timebase>25</timebase>
							<ntsc>FALSE</ntsc>
						</rate>
						<start>501</start>
						<end>542</end>
						<in>2982</in>
						<out>3023</out>
						<alphatype>none</alphatype>
						<pixelaspectratio>square</pixelaspectratio>
						<anamorphic>FALSE</anamorphic>
						<file id="file-37">
							<name>El Topo.mov</name>
							<pathurl>file://localhost/Volumes/Scenen/Prosjekter/FILM/FILM%201413%20Jodorowsky%20BW/DVD%20rips/El%20Topo.mov</pathurl>
							<rate>
								<timebase>25</timebase>
								<ntsc>FALSE</ntsc>
							</rate>
							<duration>3224</duration>
							<timecode>
								<rate>
									<timebase>25</timebase>
									<ntsc>FALSE</ntsc>
								</rate>
								<string>00:03:51:14</string>
								<frame>5789</frame>
								<displayformat>NDF</displayformat>
							</timecode>
							<media>
								<video>
									<duration>18000</duration>
									<samplecharacteristics>
										<rate>
											<timebase>25</timebase>
											<ntsc>FALSE</ntsc>
										</rate>
										<width>1920</width>
										<height>1080</height>
										<anamorphic>FALSE</anamorphic>
										<pixelaspectratio>square</pixelaspectratio>
										<fielddominance>none</fielddominance>
									</samplecharacteristics>
								</video>
								<audio>
									<samplecharacteristics>
										<depth>16</depth>
										<samplerate>48000</samplerate>
									</samplecharacteristics>
									<channelcount>2</channelcount>
								</audio>
							</media>
						</file>
					</clipitem>
					<clipitem id="clipitem-157" frameBlend="FALSE">
						<masterclipid>masterclip-38</masterclipid>
						<name>Cleopatra</name>
						<enabled>TRUE</enabled>
						<duration>10842</duration>
						<rate>
							<timebase>25</timebase>
							<ntsc>FALSE</ntsc>
						</rate>
						<start>542</start>
						<end>730</end>
						<in>7178</in>
						<out>7366</out>
						<alphatype>none</alphatype>
						<pixelaspectratio>square</pixelaspectratio>
						<anamorphic>FALSE</anamorphic>
						<file id="file-38">
							<name>Cleopatra.mov</name>
							<pathurl>file://localhost/Volumes/Scenen/Prosjekter/FILM/FILM%201413%20Stormannsgalskap/Filmrips/Cleopatra.mov</pathurl>
							<rate>
								<timebase>25</timebase>
								<ntsc>FALSE</ntsc>
							</rate>
							<duration>10842</duration>
							<timecode>
								<rate>
									<timebase>25</timebase>
									<ntsc>FALSE</ntsc>
								</rate>
								<string>00:00:00:00</string>
								<frame>0</frame>
								<displayformat>NDF</displayformat>
							</timecode>
							<media>
								<video>
									<duration>18000</duration>
									<samplecharacteristics>
										<rate>
											<timebase>25</timebase>
											<ntsc>FALSE</ntsc>
										</rate>
										<width>1920</width>
										<height>1080</height>
										<anamorphic>FALSE</anamorphic>
										<pixelaspectratio>square</pixelaspectratio>
										<fielddominance>none</fielddominance>
									</samplecharacteristics>
								</video>
								<audio>
									<samplecharacteristics>
										<depth>16</depth>
										<samplerate>44100</samplerate>
									</samplecharacteristics>
									<channelcount>2</channelcount>
								</audio>
							</media>
						</file>
					</clipitem>
					<clipitem id="clipitem-158" frameBlend="FALSE">
						<masterclipid>masterclip-39</masterclipid>
						<name>Vignett vår 2013 merged.mov</name>
						<enabled>TRUE</enabled>
						<duration>881</duration>
						<rate>
							<timebase>25</timebase>
							<ntsc>FALSE</ntsc>
						</rate>
						<start>730</start>
						<end>1294</end>
						<in>0</in>
						<out>564</out>
						<alphatype>none</alphatype>
						<pixelaspectratio>square</pixelaspectratio>
						<anamorphic>FALSE</anamorphic>
						<file id="file-39">
							<name>Vignett vår 2013 merged.mov</name>
							<pathurl>file://localhost/Volumes/Scenen/Prosjekter/FILM/AA%20FILM%20Grafikk%20Premiere%20Pro%20haust%202013%20BW/Video/Ny%20Vignett%2028.01.2013/Vignett%20va%cc%8ar%202013%20merged.mov</pathurl>
							<rate>
								<timebase>25</timebase>
								<ntsc>FALSE</ntsc>
							</rate>
							<duration>881</duration>
							<timecode>
								<rate>
									<timebase>25</timebase>
									<ntsc>FALSE</ntsc>
								</rate>
								<string>00:00:50:15</string>
								<frame>1265</frame>
								<displayformat>NDF</displayformat>
							</timecode>
							<media>
								<video>
									<duration>18000</duration>
									<samplecharacteristics>
										<rate>
											<timebase>25</timebase>
											<ntsc>FALSE</ntsc>
										</rate>
										<width>1920</width>
										<height>1080</height>
										<anamorphic>FALSE</anamorphic>
										<pixelaspectratio>square</pixelaspectratio>
										<fielddominance>lower</fielddominance>
									</samplecharacteristics>
								</video>
								<audio>
									<samplecharacteristics>
										<depth>16</depth>
										<samplerate>48000</samplerate>
									</samplecharacteristics>
									<channelcount>2</channelcount>
								</audio>
							</media>
						</file>
						<link>
							<linkclipref>clipitem-158</linkclipref>
							<mediatype>video</mediatype>
							<trackindex>3</trackindex>
							<clipindex>7</clipindex>
						</link>
						<link>
							<linkclipref>clipitem-595</linkclipref>
							<mediatype>audio</mediatype>
							<trackindex>8</trackindex>
							<clipindex>5</clipindex>
							<groupindex>1</groupindex>
						</link>
						<link>
							<linkclipref>clipitem-616</linkclipref>
							<mediatype>audio</mediatype>
							<trackindex>9</trackindex>
							<clipindex>5</clipindex>
							<groupindex>1</groupindex>
						</link>
					</clipitem>
					<transitionitem>
						<start>1372</start>
						<end>1397</end>
						<alignment>start-black</alignment>
						<cutPoint>0</cutPoint>
						<rate>
							<timebase>25</timebase>
							<ntsc>FALSE</ntsc>
						</rate>
						<effect>
							<name>Cross Dissolve</name>
							<effectid>Cross Dissolve</effectid>
							<effectcategory>Dissolve</effectcategory>
							<effecttype>transition</effecttype>
							<mediatype>video</mediatype>
							<wipecode>0</wipecode>
							<wipeaccuracy>100</wipeaccuracy>
							<startratio>0</startratio>
							<endratio>1</endratio>
							<reverse>FALSE</reverse>
						</effect>
					</transitionitem>
					<clipitem id="clipitem-159" frameBlend="FALSE">
						<masterclipid>masterclip-40</masterclipid>
						<name>Vegard Copy 08</name>
						<enabled>TRUE</enabled>
						<duration>1080000</duration>
						<rate>
							<timebase>30</timebase>
							<ntsc>TRUE</ntsc>
						</rate>
						<start>-1</start>
						<end>-1</end>
						<in>271582</in>
						<out>271746</out>
						<alphatype>straight</alphatype>
						<pixelaspectratio>square</pixelaspectratio>
						<anamorphic>FALSE</anamorphic>
						<file id="file-40">
							<name>Internal Title</name>
							<mediaSource>Slug</mediaSource>
							<rate>
								<timebase>30</timebase>
								<ntsc>TRUE</ntsc>
							</rate>
							<timecode>
								<rate>
									<timebase>30</timebase>
									<ntsc>TRUE</ntsc>
								</rate>
								<string>00;00;00;00</string>
								<frame>0</frame>
								<displayformat>DF</displayformat>
							</timecode>
							<media>
								<video>
									<duration>18000</duration>
									<samplecharacteristics>
										<rate>
											<timebase>30</timebase>
											<ntsc>TRUE</ntsc>
										</rate>
										<width>1920</width>
										<height>1080</height>
										<anamorphic>FALSE</anamorphic>
										<pixelaspectratio>square</pixelaspectratio>
										<fielddominance>none</fielddominance>
									</samplecharacteristics>
								</video>
							</media>
						</file>
					</clipitem>
					<transitionitem>
						<start>1511</start>
						<end>1536</end>
						<alignment>end-black</alignment>
						<cutPoint>25</cutPoint>
						<rate>
							<timebase>25</timebase>
							<ntsc>FALSE</ntsc>
						</rate>
						<effect>
							<name>Cross Dissolve</name>
							<effectid>Cross Dissolve</effectid>
							<effectcategory>Dissolve</effectcategory>
							<effecttype>transition</effecttype>
							<mediatype>video</mediatype>
							<wipecode>0</wipecode>
							<wipeaccuracy>100</wipeaccuracy>
							<startratio>0</startratio>
							<endratio>1</endratio>
							<reverse>FALSE</reverse>
						</effect>
					</transitionitem>
					<transitionitem>
						<start>1743</start>
						<end>1749</end>
						<alignment>start-black</alignment>
						<cutPoint>0</cutPoint>
						<rate>
							<timebase>25</timebase>
							<ntsc>FALSE</ntsc>
						</rate>
						<effect>
							<name>Dip to Color Dissolve</name>
							<effectid>Dip to Color Dissolve</effectid>
							<effectcategory>Dissolve</effectcategory>
							<effecttype>transition</effecttype>
							<mediatype>video</mediatype>
							<wipecode>0</wipecode>
							<wipeaccuracy>100</wipeaccuracy>
							<startratio>0</startratio>
							<endratio>1</endratio>
							<reverse>FALSE</reverse>
							<parameter authoringApp="PremierePro">
								<parameterid>dipcolor</parameterid>
								<name>Color</name>
								<value>
									<alpha>255</alpha>
									<red>255</red>
									<green>255</green>
									<blue>255</blue>
								</value>
							</parameter>
						</effect>
					</transitionitem>
					<clipitem id="clipitem-160" frameBlend="FALSE">
						<masterclipid>masterclip-41</masterclipid>
						<name>filmb-birth1_p0</name>
						<enabled>TRUE</enabled>
						<duration>5275</duration>
						<rate>
							<timebase>25</timebase>
							<ntsc>FALSE</ntsc>
						</rate>
						<start>-1</start>
						<end>2040</end>
						<in>1528</in>
						<out>1825</out>
						<alphatype>none</alphatype>
						<pixelaspectratio>PAL-601</pixelaspectratio>
						<anamorphic>FALSE</anamorphic>
						<file id="file-41">
							<name>filmb-birth1_p0.mxf</name>
							<pathurl>file://localhost/Volumes/omfs/clip.dir/MXF/576i/filmb-birth1_p0.mxf</pathurl>
							<rate>
								<timebase>25</timebase>
								<ntsc>FALSE</ntsc>
							</rate>
							<duration>5275</duration>
							<timecode>
								<rate>
									<timebase>25</timebase>
									<ntsc>FALSE</ntsc>
								</rate>
								<string>00:30:55:18</string>
								<frame>46393</frame>
								<displayformat>NDF</displayformat>
							</timecode>
							<media>
								<video>
									<duration>18000</duration>
									<samplecharacteristics>
										<rate>
											<timebase>25</timebase>
											<ntsc>FALSE</ntsc>
										</rate>
										<width>720</width>
										<height>576</height>
										<anamorphic>FALSE</anamorphic>
										<pixelaspectratio>PAL-601</pixelaspectratio>
										<fielddominance>upper</fielddominance>
									</samplecharacteristics>
								</video>
								<audio>
									<samplecharacteristics>
										<depth>16</depth>
										<samplerate>48000</samplerate>
									</samplecharacteristics>
									<channelcount>1</channelcount>
									<layout>mono</layout>
									<audiochannel>
										<sourcechannel>1</sourcechannel>
										<channellabel>discrete</channellabel>
									</audiochannel>
								</audio>
								<audio>
									<samplecharacteristics>
										<depth>16</depth>
										<samplerate>48000</samplerate>
									</samplecharacteristics>
									<channelcount>1</channelcount>
									<layout>mono</layout>
									<audiochannel>
										<sourcechannel>2</sourcechannel>
										<channellabel>discrete</channellabel>
									</audiochannel>
								</audio>
								<audio>
									<samplecharacteristics>
										<depth>16</depth>
										<samplerate>48000</samplerate>
									</samplecharacteristics>
									<channelcount>1</channelcount>
									<layout>mono</layout>
									<audiochannel>
										<sourcechannel>3</sourcechannel>
										<channellabel>discrete</channellabel>
									</audiochannel>
								</audio>
								<audio>
									<samplecharacteristics>
										<depth>16</depth>
										<samplerate>48000</samplerate>
									</samplecharacteristics>
									<channelcount>1</channelcount>
									<layout>mono</layout>
									<audiochannel>
										<sourcechannel>4</sourcechannel>
										<channellabel>discrete</channellabel>
									</audiochannel>
								</audio>
							</media>
						</file>
							<filter>
								<effect>
									<name>Basic Motion</name>
									<effectid>basic</effectid>
									<effectcategory>motion</effectcategory>
									<effecttype>motion</effecttype>
									<mediatype>video</mediatype>
									<parameter authoringApp="PremierePro">
										<parameterid>scale</parameterid>
										<name>Scale</name>
										<valuemin>0</valuemin>
										<valuemax>1000</valuemax>
										<value>188</value>
									</parameter>
									<parameter authoringApp="PremierePro">
										<parameterid>rotation</parameterid>
										<name>Rotation</name>
										<valuemin>-8640</valuemin>
										<valuemax>8640</valuemax>
										<value>0</value>
									</parameter>
									<parameter authoringApp="PremierePro">
										<parameterid>center</parameterid>
										<name>Center</name>
										<value>
											<horiz>0</horiz>
											<vert>0</vert>
										</value>
									</parameter>
									<parameter authoringApp="PremierePro">
										<parameterid>centerOffset</parameterid>
										<name>Anchor Point</name>
										<value>
											<horiz>0</horiz>
											<vert>0</vert>
										</value>
									</parameter>
								</effect>
							</filter>
							<filter>
								<effect>
									<name>Opacity</name>
									<effectid>opacity</effectid>
									<effectcategory>motion</effectcategory>
									<effecttype>motion</effecttype>
									<mediatype>video</mediatype>
									<parameter authoringApp="PremierePro">
										<parameterid>opacity</parameterid>
										<name>opacity</name>
										<valuemin>0</valuemin>
										<valuemax>100</valuemax>
										<value>100</value>
										<keyframe>
											<when>-1608</when>
											<value>100</value>
										</keyframe>
									</parameter>
								</effect>
							</filter>
							<filter>
								<effect>
									<name>Distort</name>
									<effectid>deformation</effectid>
									<effectcategory>motion</effectcategory>
									<effecttype>motion</effecttype>
									<mediatype>video</mediatype>
									<parameter authoringApp="PremierePro">
										<parameterid>aspect</parameterid>
										<name>Aspect</name>
										<valuemin>-10000</valuemin>
										<valuemax>10000</valuemax>
										<value>-9.40171</value>
									</parameter>
								</effect>
							</filter>
					</clipitem>
					<clipitem id="clipitem-161" frameBlend="FALSE">
						<masterclipid>masterclip-41</masterclipid>
						<name>filmb-birth1_p0</name>
						<enabled>TRUE</enabled>
						<duration>5275</duration>
						<rate>
							<ntsc>TRUE</ntsc>
							<timebase>30</timebase>
						</rate>
						<start>2040</start>
						<end>2235</end>
						<in>2059</in>
						<out>2254</out>
						<alphatype>none</alphatype>
						<file id="file-41"/>
							<filter>
								<effect>
									<name>Basic Motion</name>
									<effectid>basic</effectid>
									<effectcategory>motion</effectcategory>
									<effecttype>motion</effecttype>
									<mediatype>video</mediatype>
									<parameter authoringApp="PremierePro">
										<parameterid>scale</parameterid>
										<name>Scale</name>
										<valuemin>0</valuemin>
										<valuemax>1000</valuemax>
										<value>188</value>
									</parameter>
									<parameter authoringApp="PremierePro">
										<parameterid>rotation</parameterid>
										<name>Rotation</name>
										<valuemin>-8640</valuemin>
										<valuemax>8640</valuemax>
										<value>0</value>
									</parameter>
									<parameter authoringApp="PremierePro">
										<parameterid>center</parameterid>
										<name>Center</name>
										<value>
											<horiz>0</horiz>
											<vert>0</vert>
										</value>
									</parameter>
									<parameter authoringApp="PremierePro">
										<parameterid>centerOffset</parameterid>
										<name>Anchor Point</name>
										<value>
											<horiz>0</horiz>
											<vert>0</vert>
										</value>
									</parameter>
								</effect>
							</filter>
							<filter>
								<effect>
									<name>Opacity</name>
									<effectid>opacity</effectid>
									<effectcategory>motion</effectcategory>
									<effecttype>motion</effecttype>
									<mediatype>video</mediatype>
									<parameter authoringApp="PremierePro">
										<parameterid>opacity</parameterid>
										<name>opacity</name>
										<valuemin>0</valuemin>
										<valuemax>100</valuemax>
										<value>100</value>
										<keyframe>
											<when>0</when>
											<value>100</value>
										</keyframe>
									</parameter>
								</effect>
							</filter>
							<filter>
								<effect>
									<name>Distort</name>
									<effectid>deformation</effectid>
									<effectcategory>motion</effectcategory>
									<effecttype>motion</effecttype>
									<mediatype>video</mediatype>
									<parameter authoringApp="PremierePro">
										<parameterid>aspect</parameterid>
										<name>Aspect</name>
										<valuemin>-10000</valuemin>
										<valuemax>10000</valuemax>
										<value>-9.40171</value>
									</parameter>
								</effect>
							</filter>
					</clipitem>
					<clipitem id="clipitem-162" frameBlend="FALSE">
						<masterclipid>masterclip-42</masterclipid>
						<name>intolerance</name>
						<enabled>TRUE</enabled>
						<duration>276109</duration>
						<rate>
							<timebase>25</timebase>
							<ntsc>FALSE</ntsc>
						</rate>
						<start>2235</start>
						<end>2445</end>
						<in>154274</in>
						<out>154484</out>
						<alphatype>none</alphatype>
						<pixelaspectratio>PAL-601</pixelaspectratio>
						<anamorphic>FALSE</anamorphic>
						<file id="file-42">
							<name>DVD 1.mov</name>
							<pathurl>file://localhost/Volumes/Scenen/Utveksling/FILM/DVD%20rip%20og%20EPK/Intolerance/DVD%201.mov</pathurl>
							<rate>
								<timebase>25</timebase>
								<ntsc>FALSE</ntsc>
							</rate>
							<duration>276109</duration>
							<timecode>
								<rate>
									<timebase>25</timebase>
									<ntsc>FALSE</ntsc>
								</rate>
								<string>00:00:00:00</string>
								<frame>0</frame>
								<displayformat>NDF</displayformat>
							</timecode>
							<media>
								<video>
									<duration>18000</duration>
									<samplecharacteristics>
										<rate>
											<timebase>25</timebase>
											<ntsc>FALSE</ntsc>
										</rate>
										<width>720</width>
										<height>576</height>
										<anamorphic>FALSE</anamorphic>
										<pixelaspectratio>PAL-601</pixelaspectratio>
										<fielddominance>upper</fielddominance>
									</samplecharacteristics>
								</video>
								<audio>
									<samplecharacteristics>
										<depth>16</depth>
										<samplerate>48000</samplerate>
									</samplecharacteristics>
									<channelcount>1</channelcount>
									<layout>mono</layout>
									<audiochannel>
										<sourcechannel>1</sourcechannel>
										<channellabel>discrete</channellabel>
									</audiochannel>
								</audio>
								<audio>
									<samplecharacteristics>
										<depth>16</depth>
										<samplerate>48000</samplerate>
									</samplecharacteristics>
									<channelcount>1</channelcount>
									<layout>mono</layout>
									<audiochannel>
										<sourcechannel>2</sourcechannel>
										<channellabel>discrete</channellabel>
									</audiochannel>
								</audio>
							</media>
						</file>
							<filter>
								<effect>
									<name>Basic Motion</name>
									<effectid>basic</effectid>
									<effectcategory>motion</effectcategory>
									<effecttype>motion</effecttype>
									<mediatype>video</mediatype>
									<parameter authoringApp="PremierePro">
										<parameterid>scale</parameterid>
										<name>Scale</name>
										<valuemin>0</valuemin>
										<valuemax>1000</valuemax>
										<value>182.812</value>
									</parameter>
									<parameter authoringApp="PremierePro">
										<parameterid>rotation</parameterid>
										<name>Rotation</name>
										<valuemin>-8640</valuemin>
										<valuemax>8640</valuemax>
										<value>0</value>
									</parameter>
									<parameter authoringApp="PremierePro">
										<parameterid>center</parameterid>
										<name>Center</name>
										<value>
											<horiz>0</horiz>
											<vert>0</vert>
										</value>
									</parameter>
									<parameter authoringApp="PremierePro">
										<parameterid>centerOffset</parameterid>
										<name>Anchor Point</name>
										<value>
											<horiz>0</horiz>
											<vert>0</vert>
										</value>
									</parameter>
								</effect>
							</filter>
							<filter>
								<effect>
									<name>Distort</name>
									<effectid>deformation</effectid>
									<effectcategory>motion</effectcategory>
									<effecttype>motion</effecttype>
									<mediatype>video</mediatype>
									<parameter authoringApp="PremierePro">
										<parameterid>aspect</parameterid>
										<name>Aspect</name>
										<valuemin>-10000</valuemin>
										<valuemax>10000</valuemax>
										<value>-9.40171</value>
									</parameter>
								</effect>
							</filter>
					</clipitem>
					<clipitem id="clipitem-163" frameBlend="FALSE">
						<masterclipid>masterclip-42</masterclipid>
						<name>intolerance</name>
						<enabled>TRUE</enabled>
						<duration>276109</duration>
						<rate>
							<ntsc>TRUE</ntsc>
							<timebase>30</timebase>
						</rate>
						<start>2445</start>
						<end>2467</end>
						<in>143971</in>
						<out>143993</out>
						<alphatype>none</alphatype>
						<file id="file-42"/>
							<filter>
								<effect>
									<name>Basic Motion</name>
									<effectid>basic</effectid>
									<effectcategory>motion</effectcategory>
									<effecttype>motion</effecttype>
									<mediatype>video</mediatype>
									<parameter authoringApp="PremierePro">
										<parameterid>scale</parameterid>
										<name>Scale</name>
										<valuemin>0</valuemin>
										<valuemax>1000</valuemax>
										<value>182.812</value>
									</parameter>
									<parameter authoringApp="PremierePro">
										<parameterid>rotation</parameterid>
										<name>Rotation</name>
										<valuemin>-8640</valuemin>
										<valuemax>8640</valuemax>
										<value>0</value>
									</parameter>
									<parameter authoringApp="PremierePro">
										<parameterid>center</parameterid>
										<name>Center</name>
										<value>
											<horiz>0</horiz>
											<vert>0</vert>
										</value>
									</parameter>
									<parameter authoringApp="PremierePro">
										<parameterid>centerOffset</parameterid>
										<name>Anchor Point</name>
										<value>
											<horiz>0</horiz>
											<vert>0</vert>
										</value>
									</parameter>
								</effect>
							</filter>
							<filter>
								<effect>
									<name>Distort</name>
									<effectid>deformation</effectid>
									<effectcategory>motion</effectcategory>
									<effecttype>motion</effecttype>
									<mediatype>video</mediatype>
									<parameter authoringApp="PremierePro">
										<parameterid>aspect</parameterid>
										<name>Aspect</name>
										<valuemin>-10000</valuemin>
										<valuemax>10000</valuemax>
										<value>-9.40171</value>
									</parameter>
								</effect>
							</filter>
					</clipitem>
					<clipitem id="clipitem-164" frameBlend="FALSE">
						<masterclipid>masterclip-42</masterclipid>
						<name>intolerance</name>
						<enabled>TRUE</enabled>
						<duration>276109</duration>
						<rate>
							<ntsc>TRUE</ntsc>
							<timebase>30</timebase>
						</rate>
						<start>2467</start>
						<end>-1</end>
						<in>144132</in>
						<out>144209</out>
						<alphatype>none</alphatype>
						<file id="file-42"/>
							<filter>
								<effect>
									<name>Basic Motion</name>
									<effectid>basic</effectid>
									<effectcategory>motion</effectcategory>
									<effecttype>motion</effecttype>
									<mediatype>video</mediatype>
									<parameter authoringApp="PremierePro">
										<parameterid>scale</parameterid>
										<name>Scale</name>
										<valuemin>0</valuemin>
										<valuemax>1000</valuemax>
										<value>182.812</value>
									</parameter>
									<parameter authoringApp="PremierePro">
										<parameterid>rotation</parameterid>
										<name>Rotation</name>
										<valuemin>-8640</valuemin>
										<valuemax>8640</valuemax>
										<value>0</value>
									</parameter>
									<parameter authoringApp="PremierePro">
										<parameterid>center</parameterid>
										<name>Center</name>
										<value>
											<horiz>0</horiz>
											<vert>0</vert>
										</value>
									</parameter>
									<parameter authoringApp="PremierePro">
										<parameterid>centerOffset</parameterid>
										<name>Anchor Point</name>
										<value>
											<horiz>0</horiz>
											<vert>0</vert>
										</value>
									</parameter>
								</effect>
							</filter>
							<filter>
								<effect>
									<name>Distort</name>
									<effectid>deformation</effectid>
									<effectcategory>motion</effectcategory>
									<effecttype>motion</effecttype>
									<mediatype>video</mediatype>
									<parameter authoringApp="PremierePro">
										<parameterid>aspect</parameterid>
										<name>Aspect</name>
										<valuemin>-10000</valuemin>
										<valuemax>10000</valuemax>
										<value>-9.40171</value>
									</parameter>
								</effect>
							</filter>
					</clipitem>
					<transitionitem>
						<start>2519</start>
						<end>2544</end>
						<alignment>center</alignment>
						<cutPoint>12</cutPoint>
						<rate>
							<timebase>25</timebase>
							<ntsc>FALSE</ntsc>
						</rate>
						<effect>
							<name>Cross Dissolve</name>
							<effectid>Cross Dissolve</effectid>
							<effectcategory>Dissolve</effectcategory>
							<effecttype>transition</effecttype>
							<mediatype>video</mediatype>
							<wipecode>0</wipecode>
							<wipeaccuracy>100</wipeaccuracy>
							<startratio>0</startratio>
							<endratio>1</endratio>
							<reverse>FALSE</reverse>
						</effect>
					</transitionitem>
					<clipitem id="clipitem-165" frameBlend="FALSE">
						<masterclipid>masterclip-42</masterclipid>
						<name>intolerance</name>
						<enabled>TRUE</enabled>
						<duration>276109</duration>
						<rate>
							<ntsc>TRUE</ntsc>
							<timebase>30</timebase>
						</rate>
						<start>-1</start>
						<end>2567</end>
						<in>144184</in>
						<out>144232</out>
						<alphatype>none</alphatype>
						<file id="file-42"/>
							<filter>
								<effect>
									<name>Basic Motion</name>
									<effectid>basic</effectid>
									<effectcategory>motion</effectcategory>
									<effecttype>motion</effecttype>
									<mediatype>video</mediatype>
									<parameter authoringApp="PremierePro">
										<parameterid>scale</parameterid>
										<name>Scale</name>
										<valuemin>0</valuemin>
										<valuemax>1000</valuemax>
										<value>182.812</value>
									</parameter>
									<parameter authoringApp="PremierePro">
										<parameterid>rotation</parameterid>
										<name>Rotation</name>
										<valuemin>-8640</valuemin>
										<valuemax>8640</valuemax>
										<value>0</value>
									</parameter>
									<parameter authoringApp="PremierePro">
										<parameterid>center</parameterid>
										<name>Center</name>
										<value>
											<horiz>0</horiz>
											<vert>0</vert>
										</value>
									</parameter>
									<parameter authoringApp="PremierePro">
										<parameterid>centerOffset</parameterid>
										<name>Anchor Point</name>
										<value>
											<horiz>0</horiz>
											<vert>0</vert>
										</value>
									</parameter>
								</effect>
							</filter>
							<filter>
								<effect>
									<name>Gaussian Blur</name>
									<effectid>Gaussian Blur</effectid>
									<effectcategory>Blur</effectcategory>
									<effecttype>motion</effecttype>
									<mediatype>video</mediatype>
									<parameter authoringApp="PremierePro">
										<parameterid>radius</parameterid>
										<name>Radius</name>
										<valuemin>0</valuemin>
										<valuemax>100</valuemax>
										<value>0</value>
									</parameter>
								</effect>
							</filter>
							<filter>
								<effect>
									<name>Distort</name>
									<effectid>deformation</effectid>
									<effectcategory>motion</effectcategory>
									<effecttype>motion</effecttype>
									<mediatype>video</mediatype>
									<parameter authoringApp="PremierePro">
										<parameterid>aspect</parameterid>
										<name>Aspect</name>
										<valuemin>-10000</valuemin>
										<valuemax>10000</valuemax>
										<value>-9.40171</value>
									</parameter>
								</effect>
							</filter>
					</clipitem>
					<clipitem id="clipitem-166" frameBlend="FALSE">
						<masterclipid>masterclip-42</masterclipid>
						<name>intolerance</name>
						<enabled>TRUE</enabled>
						<duration>276109</duration>
						<rate>
							<ntsc>TRUE</ntsc>
							<timebase>30</timebase>
						</rate>
						<start>2567</start>
						<end>-1</end>
						<in>148303</in>
						<out>148356</out>
						<alphatype>none</alphatype>
						<file id="file-42"/>
							<filter>
								<effect>
									<name>Basic Motion</name>
									<effectid>basic</effectid>
									<effectcategory>motion</effectcategory>
									<effecttype>motion</effecttype>
									<mediatype>video</mediatype>
									<parameter authoringApp="PremierePro">
										<parameterid>scale</parameterid>
										<name>Scale</name>
										<valuemin>0</valuemin>
										<valuemax>1000</valuemax>
										<value>182.812</value>
									</parameter>
									<parameter authoringApp="PremierePro">
										<parameterid>rotation</parameterid>
										<name>Rotation</name>
										<valuemin>-8640</valuemin>
										<valuemax>8640</valuemax>
										<value>0</value>
									</parameter>
									<parameter authoringApp="PremierePro">
										<parameterid>center</parameterid>
										<name>Center</name>
										<value>
											<horiz>0</horiz>
											<vert>0</vert>
										</value>
									</parameter>
									<parameter authoringApp="PremierePro">
										<parameterid>centerOffset</parameterid>
										<name>Anchor Point</name>
										<value>
											<horiz>0</horiz>
											<vert>0</vert>
										</value>
									</parameter>
								</effect>
							</filter>
							<filter>
								<effect>
									<name>Gaussian Blur</name>
									<effectid>Gaussian Blur</effectid>
									<effectcategory>Blur</effectcategory>
									<effecttype>motion</effecttype>
									<mediatype>video</mediatype>
									<parameter authoringApp="PremierePro">
										<parameterid>radius</parameterid>
										<name>Radius</name>
										<valuemin>0</valuemin>
										<valuemax>100</valuemax>
										<value>0</value>
									</parameter>
								</effect>
							</filter>
							<filter>
								<effect>
									<name>Distort</name>
									<effectid>deformation</effectid>
									<effectcategory>motion</effectcategory>
									<effecttype>motion</effecttype>
									<mediatype>video</mediatype>
									<parameter authoringApp="PremierePro">
										<parameterid>aspect</parameterid>
										<name>Aspect</name>
										<valuemin>-10000</valuemin>
										<valuemax>10000</valuemax>
										<value>-9.40171</value>
									</parameter>
								</effect>
							</filter>
					</clipitem>
					<transitionitem>
						<start>2595</start>
						<end>2620</end>
						<alignment>center</alignment>
						<cutPoint>12</cutPoint>
						<rate>
							<timebase>25</timebase>
							<ntsc>FALSE</ntsc>
						</rate>
						<effect>
							<name>Cross Dissolve</name>
							<effectid>Cross Dissolve</effectid>
							<effectcategory>Dissolve</effectcategory>
							<effecttype>transition</effecttype>
							<mediatype>video</mediatype>
							<wipecode>0</wipecode>
							<wipeaccuracy>100</wipeaccuracy>
							<startratio>0</startratio>
							<endratio>1</endratio>
							<reverse>FALSE</reverse>
						</effect>
					</transitionitem>
					<clipitem id="clipitem-167" frameBlend="FALSE">
						<masterclipid>masterclip-42</masterclipid>
						<name>intolerance</name>
						<enabled>TRUE</enabled>
						<duration>276109</duration>
						<rate>
							<ntsc>TRUE</ntsc>
							<timebase>30</timebase>
						</rate>
						<start>-1</start>
						<end>2623</end>
						<in>144338</in>
						<out>144366</out>
						<alphatype>none</alphatype>
						<file id="file-42"/>
							<filter>
								<effect>
									<name>Basic Motion</name>
									<effectid>basic</effectid>
									<effectcategory>motion</effectcategory>
									<effecttype>motion</effecttype>
									<mediatype>video</mediatype>
									<parameter authoringApp="PremierePro">
										<parameterid>scale</parameterid>
										<name>Scale</name>
										<valuemin>0</valuemin>
										<valuemax>1000</valuemax>
										<value>182.812</value>
									</parameter>
									<parameter authoringApp="PremierePro">
										<parameterid>rotation</parameterid>
										<name>Rotation</name>
										<valuemin>-8640</valuemin>
										<valuemax>8640</valuemax>
										<value>0</value>
									</parameter>
									<parameter authoringApp="PremierePro">
										<parameterid>center</parameterid>
										<name>Center</name>
										<value>
											<horiz>0</horiz>
											<vert>0</vert>
										</value>
									</parameter>
									<parameter authoringApp="PremierePro">
										<parameterid>centerOffset</parameterid>
										<name>Anchor Point</name>
										<value>
											<horiz>0</horiz>
											<vert>0</vert>
										</value>
									</parameter>
								</effect>
							</filter>
							<filter>
								<effect>
									<name>Distort</name>
									<effectid>deformation</effectid>
									<effectcategory>motion</effectcategory>
									<effecttype>motion</effecttype>
									<mediatype>video</mediatype>
									<parameter authoringApp="PremierePro">
										<parameterid>aspect</parameterid>
										<name>Aspect</name>
										<valuemin>-10000</valuemin>
										<valuemax>10000</valuemax>
										<value>-9.40171</value>
									</parameter>
								</effect>
							</filter>
					</clipitem>
					<clipitem id="clipitem-168" frameBlend="FALSE">
						<masterclipid>masterclip-42</masterclipid>
						<name>intolerance</name>
						<enabled>TRUE</enabled>
						<duration>276109</duration>
						<rate>
							<ntsc>TRUE</ntsc>
							<timebase>30</timebase>
						</rate>
						<start>2623</start>
						<end>2654</end>
						<in>144366</in>
						<out>144397</out>
						<alphatype>none</alphatype>
						<file id="file-42"/>
							<filter>
								<effect>
									<name>Basic Motion</name>
									<effectid>basic</effectid>
									<effectcategory>motion</effectcategory>
									<effecttype>motion</effecttype>
									<mediatype>video</mediatype>
									<parameter authoringApp="PremierePro">
										<parameterid>scale</parameterid>
										<name>Scale</name>
										<valuemin>0</valuemin>
										<valuemax>1000</valuemax>
										<value>182.812</value>
									</parameter>
									<parameter authoringApp="PremierePro">
										<parameterid>rotation</parameterid>
										<name>Rotation</name>
										<valuemin>-8640</valuemin>
										<valuemax>8640</valuemax>
										<value>0</value>
									</parameter>
									<parameter authoringApp="PremierePro">
										<parameterid>center</parameterid>
										<name>Center</name>
										<value>
											<horiz>0</horiz>
											<vert>0</vert>
										</value>
									</parameter>
									<parameter authoringApp="PremierePro">
										<parameterid>centerOffset</parameterid>
										<name>Anchor Point</name>
										<value>
											<horiz>0</horiz>
											<vert>0</vert>
										</value>
									</parameter>
								</effect>
							</filter>
							<filter>
								<effect>
									<name>Distort</name>
									<effectid>deformation</effectid>
									<effectcategory>motion</effectcategory>
									<effecttype>motion</effecttype>
									<mediatype>video</mediatype>
									<parameter authoringApp="PremierePro">
										<parameterid>aspect</parameterid>
										<name>Aspect</name>
										<valuemin>-10000</valuemin>
										<valuemax>10000</valuemax>
										<value>-9.40171</value>
									</parameter>
								</effect>
							</filter>
					</clipitem>
					<clipitem id="clipitem-169" frameBlend="FALSE">
						<masterclipid>masterclip-42</masterclipid>
						<name>intolerance</name>
						<enabled>TRUE</enabled>
						<duration>276109</duration>
						<rate>
							<ntsc>TRUE</ntsc>
							<timebase>30</timebase>
						</rate>
						<start>2654</start>
						<end>2678</end>
						<in>144525</in>
						<out>144549</out>
						<alphatype>none</alphatype>
						<file id="file-42"/>
							<filter>
								<effect>
									<name>Basic Motion</name>
									<effectid>basic</effectid>
									<effectcategory>motion</effectcategory>
									<effecttype>motion</effecttype>
									<mediatype>video</mediatype>
									<parameter authoringApp="PremierePro">
										<parameterid>scale</parameterid>
										<name>Scale</name>
										<valuemin>0</valuemin>
										<valuemax>1000</valuemax>
										<value>182.812</value>
									</parameter>
									<parameter authoringApp="PremierePro">
										<parameterid>rotation</parameterid>
										<name>Rotation</name>
										<valuemin>-8640</valuemin>
										<valuemax>8640</valuemax>
										<value>0</value>
									</parameter>
									<parameter authoringApp="PremierePro">
										<parameterid>center</parameterid>
										<name>Center</name>
										<value>
											<horiz>0</horiz>
											<vert>0</vert>
										</value>
									</parameter>
									<parameter authoringApp="PremierePro">
										<parameterid>centerOffset</parameterid>
										<name>Anchor Point</name>
										<value>
											<horiz>0</horiz>
											<vert>0</vert>
										</value>
									</parameter>
								</effect>
							</filter>
							<filter>
								<effect>
									<name>Distort</name>
									<effectid>deformation</effectid>
									<effectcategory>motion</effectcategory>
									<effecttype>motion</effecttype>
									<mediatype>video</mediatype>
									<parameter authoringApp="PremierePro">
										<parameterid>aspect</parameterid>
										<name>Aspect</name>
										<valuemin>-10000</valuemin>
										<valuemax>10000</valuemax>
										<value>-9.40171</value>
									</parameter>
								</effect>
							</filter>
					</clipitem>
					<clipitem id="clipitem-170" frameBlend="FALSE">
						<masterclipid>masterclip-42</masterclipid>
						<name>intolerance</name>
						<enabled>TRUE</enabled>
						<duration>276109</duration>
						<rate>
							<ntsc>TRUE</ntsc>
							<timebase>30</timebase>
						</rate>
						<start>2678</start>
						<end>2707</end>
						<in>144573</in>
						<out>144602</out>
						<alphatype>none</alphatype>
						<file id="file-42"/>
							<filter>
								<effect>
									<name>Basic Motion</name>
									<effectid>basic</effectid>
									<effectcategory>motion</effectcategory>
									<effecttype>motion</effecttype>
									<mediatype>video</mediatype>
									<parameter authoringApp="PremierePro">
										<parameterid>scale</parameterid>
										<name>Scale</name>
										<valuemin>0</valuemin>
										<valuemax>1000</valuemax>
										<value>182.812</value>
									</parameter>
									<parameter authoringApp="PremierePro">
										<parameterid>rotation</parameterid>
										<name>Rotation</name>
										<valuemin>-8640</valuemin>
										<valuemax>8640</valuemax>
										<value>0</value>
									</parameter>
									<parameter authoringApp="PremierePro">
										<parameterid>center</parameterid>
										<name>Center</name>
										<value>
											<horiz>0</horiz>
											<vert>0</vert>
										</value>
									</parameter>
									<parameter authoringApp="PremierePro">
										<parameterid>centerOffset</parameterid>
										<name>Anchor Point</name>
										<value>
											<horiz>0</horiz>
											<vert>0</vert>
										</value>
									</parameter>
								</effect>
							</filter>
							<filter>
								<effect>
									<name>Distort</name>
									<effectid>deformation</effectid>
									<effectcategory>motion</effectcategory>
									<effecttype>motion</effecttype>
									<mediatype>video</mediatype>
									<parameter authoringApp="PremierePro">
										<parameterid>aspect</parameterid>
										<name>Aspect</name>
										<valuemin>-10000</valuemin>
										<valuemax>10000</valuemax>
										<value>-9.40171</value>
									</parameter>
								</effect>
							</filter>
					</clipitem>
					<clipitem id="clipitem-171" frameBlend="FALSE">
						<masterclipid>masterclip-42</masterclipid>
						<name>intolerance</name>
						<enabled>TRUE</enabled>
						<duration>276109</duration>
						<rate>
							<ntsc>TRUE</ntsc>
							<timebase>30</timebase>
						</rate>
						<start>2707</start>
						<end>2767</end>
						<in>156309</in>
						<out>156369</out>
						<alphatype>none</alphatype>
						<file id="file-42"/>
							<filter>
								<effect>
									<name>Basic Motion</name>
									<effectid>basic</effectid>
									<effectcategory>motion</effectcategory>
									<effecttype>motion</effecttype>
									<mediatype>video</mediatype>
									<parameter authoringApp="PremierePro">
										<parameterid>scale</parameterid>
										<name>Scale</name>
										<valuemin>0</valuemin>
										<valuemax>1000</valuemax>
										<value>182.812</value>
									</parameter>
									<parameter authoringApp="PremierePro">
										<parameterid>rotation</parameterid>
										<name>Rotation</name>
										<valuemin>-8640</valuemin>
										<valuemax>8640</valuemax>
										<value>0</value>
									</parameter>
									<parameter authoringApp="PremierePro">
										<parameterid>center</parameterid>
										<name>Center</name>
										<value>
											<horiz>0</horiz>
											<vert>0</vert>
										</value>
									</parameter>
									<parameter authoringApp="PremierePro">
										<parameterid>centerOffset</parameterid>
										<name>Anchor Point</name>
										<value>
											<horiz>0</horiz>
											<vert>0</vert>
										</value>
									</parameter>
								</effect>
							</filter>
							<filter>
								<effect>
									<name>Distort</name>
									<effectid>deformation</effectid>
									<effectcategory>motion</effectcategory>
									<effecttype>motion</effecttype>
									<mediatype>video</mediatype>
									<parameter authoringApp="PremierePro">
										<parameterid>aspect</parameterid>
										<name>Aspect</name>
										<valuemin>-10000</valuemin>
										<valuemax>10000</valuemax>
										<value>-9.40171</value>
									</parameter>
								</effect>
							</filter>
					</clipitem>
					<clipitem id="clipitem-172" frameBlend="FALSE">
						<masterclipid>masterclip-42</masterclipid>
						<name>intolerance</name>
						<enabled>TRUE</enabled>
						<duration>276109</duration>
						<rate>
							<ntsc>TRUE</ntsc>
							<timebase>30</timebase>
						</rate>
						<start>2767</start>
						<end>2799</end>
						<in>156460</in>
						<out>156492</out>
						<alphatype>none</alphatype>
						<file id="file-42"/>
							<filter>
								<effect>
									<name>Basic Motion</name>
									<effectid>basic</effectid>
									<effectcategory>motion</effectcategory>
									<effecttype>motion</effecttype>
									<mediatype>video</mediatype>
									<parameter authoringApp="PremierePro">
										<parameterid>scale</parameterid>
										<name>Scale</name>
										<valuemin>0</valuemin>
										<valuemax>1000</valuemax>
										<value>182.812</value>
									</parameter>
									<parameter authoringApp="PremierePro">
										<parameterid>rotation</parameterid>
										<name>Rotation</name>
										<valuemin>-8640</valuemin>
										<valuemax>8640</valuemax>
										<value>0</value>
									</parameter>
									<parameter authoringApp="PremierePro">
										<parameterid>center</parameterid>
										<name>Center</name>
										<value>
											<horiz>0</horiz>
											<vert>0</vert>
										</value>
									</parameter>
									<parameter authoringApp="PremierePro">
										<parameterid>centerOffset</parameterid>
										<name>Anchor Point</name>
										<value>
											<horiz>0</horiz>
											<vert>0</vert>
										</value>
									</parameter>
								</effect>
							</filter>
							<filter>
								<effect>
									<name>Distort</name>
									<effectid>deformation</effectid>
									<effectcategory>motion</effectcategory>
									<effecttype>motion</effecttype>
									<mediatype>video</mediatype>
									<parameter authoringApp="PremierePro">
										<parameterid>aspect</parameterid>
										<name>Aspect</name>
										<valuemin>-10000</valuemin>
										<valuemax>10000</valuemax>
										<value>-9.40171</value>
									</parameter>
								</effect>
							</filter>
					</clipitem>
					<clipitem id="clipitem-173" frameBlend="FALSE">
						<masterclipid>masterclip-42</masterclipid>
						<name>intolerance</name>
						<enabled>TRUE</enabled>
						<duration>276109</duration>
						<rate>
							<ntsc>TRUE</ntsc>
							<timebase>30</timebase>
						</rate>
						<start>2799</start>
						<end>2823</end>
						<in>156401</in>
						<out>156425</out>
						<alphatype>none</alphatype>
						<file id="file-42"/>
							<filter>
								<effect>
									<name>Basic Motion</name>
									<effectid>basic</effectid>
									<effectcategory>motion</effectcategory>
									<effecttype>motion</effecttype>
									<mediatype>video</mediatype>
									<parameter authoringApp="PremierePro">
										<parameterid>scale</parameterid>
										<name>Scale</name>
										<valuemin>0</valuemin>
										<valuemax>1000</valuemax>
										<value>182.812</value>
									</parameter>
									<parameter authoringApp="PremierePro">
										<parameterid>rotation</parameterid>
										<name>Rotation</name>
										<valuemin>-8640</valuemin>
										<valuemax>8640</valuemax>
										<value>0</value>
									</parameter>
									<parameter authoringApp="PremierePro">
										<parameterid>center</parameterid>
										<name>Center</name>
										<value>
											<horiz>0</horiz>
											<vert>0</vert>
										</value>
									</parameter>
									<parameter authoringApp="PremierePro">
										<parameterid>centerOffset</parameterid>
										<name>Anchor Point</name>
										<value>
											<horiz>0</horiz>
											<vert>0</vert>
										</value>
									</parameter>
								</effect>
							</filter>
							<filter>
								<effect>
									<name>Distort</name>
									<effectid>deformation</effectid>
									<effectcategory>motion</effectcategory>
									<effecttype>motion</effecttype>
									<mediatype>video</mediatype>
									<parameter authoringApp="PremierePro">
										<parameterid>aspect</parameterid>
										<name>Aspect</name>
										<valuemin>-10000</valuemin>
										<valuemax>10000</valuemax>
										<value>-9.40171</value>
									</parameter>
								</effect>
							</filter>
					</clipitem>
					<clipitem id="clipitem-174" frameBlend="FALSE">
						<masterclipid>masterclip-42</masterclipid>
						<name>intolerance</name>
						<enabled>TRUE</enabled>
						<duration>276109</duration>
						<rate>
							<ntsc>TRUE</ntsc>
							<timebase>30</timebase>
						</rate>
						<start>2823</start>
						<end>-1</end>
						<in>157691</in>
						<out>157831</out>
						<alphatype>none</alphatype>
						<file id="file-42"/>
							<filter>
								<effect>
									<name>Basic Motion</name>
									<effectid>basic</effectid>
									<effectcategory>motion</effectcategory>
									<effecttype>motion</effecttype>
									<mediatype>video</mediatype>
									<parameter authoringApp="PremierePro">
										<parameterid>scale</parameterid>
										<name>Scale</name>
										<valuemin>0</valuemin>
										<valuemax>1000</valuemax>
										<value>182.812</value>
									</parameter>
									<parameter authoringApp="PremierePro">
										<parameterid>rotation</parameterid>
										<name>Rotation</name>
										<valuemin>-8640</valuemin>
										<valuemax>8640</valuemax>
										<value>0</value>
									</parameter>
									<parameter authoringApp="PremierePro">
										<parameterid>center</parameterid>
										<name>Center</name>
										<value>
											<horiz>0</horiz>
											<vert>0</vert>
										</value>
									</parameter>
									<parameter authoringApp="PremierePro">
										<parameterid>centerOffset</parameterid>
										<name>Anchor Point</name>
										<value>
											<horiz>0</horiz>
											<vert>0</vert>
										</value>
									</parameter>
								</effect>
							</filter>
							<filter>
								<effect>
									<name>Distort</name>
									<effectid>deformation</effectid>
									<effectcategory>motion</effectcategory>
									<effecttype>motion</effecttype>
									<mediatype>video</mediatype>
									<parameter authoringApp="PremierePro">
										<parameterid>aspect</parameterid>
										<name>Aspect</name>
										<valuemin>-10000</valuemin>
										<valuemax>10000</valuemax>
										<value>-9.40171</value>
									</parameter>
								</effect>
							</filter>
					</clipitem>
					<transitionitem>
						<start>2951</start>
						<end>2963</end>
						<alignment>end-black</alignment>
						<cutPoint>12</cutPoint>
						<rate>
							<timebase>25</timebase>
							<ntsc>FALSE</ntsc>
						</rate>
						<effect>
							<name>Cross Dissolve</name>
							<effectid>Cross Dissolve</effectid>
							<effectcategory>Dissolve</effectcategory>
							<effecttype>transition</effecttype>
							<mediatype>video</mediatype>
							<wipecode>0</wipecode>
							<wipeaccuracy>100</wipeaccuracy>
							<startratio>0</startratio>
							<endratio>1</endratio>
							<reverse>FALSE</reverse>
						</effect>
					</transitionitem>
					<transitionitem>
						<start>2967</start>
						<end>2992</end>
						<alignment>start-black</alignment>
						<cutPoint>0</cutPoint>
						<rate>
							<timebase>25</timebase>
							<ntsc>FALSE</ntsc>
						</rate>
						<effect>
							<name>Cross Dissolve</name>
							<effectid>Cross Dissolve</effectid>
							<effectcategory>Dissolve</effectcategory>
							<effecttype>transition</effecttype>
							<mediatype>video</mediatype>
							<wipecode>0</wipecode>
							<wipeaccuracy>100</wipeaccuracy>
							<startratio>0</startratio>
							<endratio>1</endratio>
							<reverse>FALSE</reverse>
						</effect>
					</transitionitem>
					<clipitem id="clipitem-175" frameBlend="FALSE">
						<masterclipid>masterclip-43</masterclipid>
						<name>Ben-Hur (1925 de Fred Niblo)</name>
						<enabled>TRUE</enabled>
						<duration>3293</duration>
						<rate>
							<timebase>24</timebase>
							<ntsc>TRUE</ntsc>
						</rate>
						<start>-1</start>
						<end>-1</end>
						<in>260</in>
						<out>392</out>
						<alphatype>none</alphatype>
						<pixelaspectratio>square</pixelaspectratio>
						<anamorphic>FALSE</anamorphic>
						<file id="file-43">
							<name>Ben-Hur (1925 de Fred Niblo).mov</name>
							<pathurl>file://localhost/Volumes/Scenen/Prosjekter/FILM/FILM%201413%20Stormannsgalskap/Filmrips/Ben-Hur%20(1925%20de%20Fred%20Niblo).mov</pathurl>
							<rate>
								<timebase>24</timebase>
								<ntsc>TRUE</ntsc>
							</rate>
							<duration>3159</duration>
							<timecode>
								<rate>
									<timebase>24</timebase>
									<ntsc>TRUE</ntsc>
								</rate>
								<string>00:02:27:18</string>
								<frame>3546</frame>
								<displayformat>NDF</displayformat>
							</timecode>
							<media>
								<video>
									<duration>18000</duration>
									<samplecharacteristics>
										<rate>
											<timebase>24</timebase>
											<ntsc>TRUE</ntsc>
										</rate>
										<width>1280</width>
										<height>720</height>
										<anamorphic>FALSE</anamorphic>
										<pixelaspectratio>square</pixelaspectratio>
										<fielddominance>none</fielddominance>
									</samplecharacteristics>
								</video>
								<audio>
									<samplecharacteristics>
										<depth>16</depth>
										<samplerate>44100</samplerate>
									</samplecharacteristics>
									<channelcount>1</channelcount>
									<layout>mono</layout>
									<audiochannel>
										<sourcechannel>1</sourcechannel>
										<channellabel>discrete</channellabel>
									</audiochannel>
								</audio>
								<audio>
									<samplecharacteristics>
										<depth>16</depth>
										<samplerate>44100</samplerate>
									</samplecharacteristics>
									<channelcount>1</channelcount>
									<layout>mono</layout>
									<audiochannel>
										<sourcechannel>2</sourcechannel>
										<channellabel>discrete</channellabel>
									</audiochannel>
								</audio>
							</media>
						</file>
							<filter>
								<effect>
									<name>Basic Motion</name>
									<effectid>basic</effectid>
									<effectcategory>motion</effectcategory>
									<effecttype>motion</effecttype>
									<mediatype>video</mediatype>
									<parameter authoringApp="PremierePro">
										<parameterid>scale</parameterid>
										<name>Scale</name>
										<valuemin>0</valuemin>
										<valuemax>1000</valuemax>
										<value>149</value>
									</parameter>
									<parameter authoringApp="PremierePro">
										<parameterid>rotation</parameterid>
										<name>Rotation</name>
										<valuemin>-8640</valuemin>
										<valuemax>8640</valuemax>
										<value>0</value>
									</parameter>
									<parameter authoringApp="PremierePro">
										<parameterid>center</parameterid>
										<name>Center</name>
										<value>
											<horiz>0</horiz>
											<vert>0</vert>
										</value>
									</parameter>
									<parameter authoringApp="PremierePro">
										<parameterid>centerOffset</parameterid>
										<name>Anchor Point</name>
										<value>
											<horiz>0</horiz>
											<vert>0</vert>
										</value>
									</parameter>
								</effect>
							</filter>
					</clipitem>
					<transitionitem>
						<start>3068</start>
						<end>3099</end>
						<alignment>center</alignment>
						<cutPoint>18</cutPoint>
						<rate>
							<timebase>25</timebase>
							<ntsc>FALSE</ntsc>
						</rate>
						<effect>
							<name>Cross Dissolve</name>
							<effectid>Cross Dissolve</effectid>
							<effectcategory>Dissolve</effectcategory>
							<effecttype>transition</effecttype>
							<mediatype>video</mediatype>
							<wipecode>0</wipecode>
							<wipeaccuracy>100</wipeaccuracy>
							<startratio>0</startratio>
							<endratio>1</endratio>
							<reverse>FALSE</reverse>
						</effect>
					</transitionitem>
					<clipitem id="clipitem-176" frameBlend="FALSE">
						<masterclipid>masterclip-43</masterclipid>
						<name>Ben-Hur (1925 de Fred Niblo)</name>
						<enabled>TRUE</enabled>
						<duration>3293</duration>
						<rate>
							<ntsc>TRUE</ntsc>
							<timebase>30</timebase>
						</rate>
						<start>-1</start>
						<end>-1</end>
						<in>361</in>
						<out>427</out>
						<alphatype>none</alphatype>
						<file id="file-43"/>
							<filter>
								<effect>
									<name>Basic Motion</name>
									<effectid>basic</effectid>
									<effectcategory>motion</effectcategory>
									<effecttype>motion</effecttype>
									<mediatype>video</mediatype>
									<parameter authoringApp="PremierePro">
										<parameterid>scale</parameterid>
										<name>Scale</name>
										<valuemin>0</valuemin>
										<valuemax>1000</valuemax>
										<value>149</value>
									</parameter>
									<parameter authoringApp="PremierePro">
										<parameterid>rotation</parameterid>
										<name>Rotation</name>
										<valuemin>-8640</valuemin>
										<valuemax>8640</valuemax>
										<value>0</value>
									</parameter>
									<parameter authoringApp="PremierePro">
										<parameterid>center</parameterid>
										<name>Center</name>
										<value>
											<horiz>0</horiz>
											<vert>0</vert>
										</value>
									</parameter>
									<parameter authoringApp="PremierePro">
										<parameterid>centerOffset</parameterid>
										<name>Anchor Point</name>
										<value>
											<horiz>0</horiz>
											<vert>0</vert>
										</value>
									</parameter>
								</effect>
							</filter>
							<filter>
								<effect>
									<name>Gaussian Blur</name>
									<effectid>Gaussian Blur</effectid>
									<effectcategory>Blur</effectcategory>
									<effecttype>motion</effecttype>
									<mediatype>video</mediatype>
									<parameter authoringApp="PremierePro">
										<parameterid>radius</parameterid>
										<name>Radius</name>
										<valuemin>0</valuemin>
										<valuemax>100</valuemax>
										<value>0</value>
									</parameter>
								</effect>
							</filter>
					</clipitem>
					<transitionitem>
						<start>3109</start>
						<end>3134</end>
						<alignment>center</alignment>
						<cutPoint>12</cutPoint>
						<rate>
							<timebase>25</timebase>
							<ntsc>FALSE</ntsc>
						</rate>
						<effect>
							<name>Cross Dissolve</name>
							<effectid>Cross Dissolve</effectid>
							<effectcategory>Dissolve</effectcategory>
							<effecttype>transition</effecttype>
							<mediatype>video</mediatype>
							<wipecode>0</wipecode>
							<wipeaccuracy>100</wipeaccuracy>
							<startratio>0</startratio>
							<endratio>1</endratio>
							<reverse>FALSE</reverse>
						</effect>
					</transitionitem>
					<clipitem id="clipitem-177" frameBlend="FALSE">
						<masterclipid>masterclip-43</masterclipid>
						<name>Ben-Hur (1925 de Fred Niblo)</name>
						<enabled>TRUE</enabled>
						<duration>3293</duration>
						<rate>
							<ntsc>TRUE</ntsc>
							<timebase>30</timebase>
						</rate>
						<start>-1</start>
						<end>-1</end>
						<in>326</in>
						<out>379</out>
						<alphatype>none</alphatype>
						<file id="file-43"/>
							<filter>
								<effect>
									<name>Basic Motion</name>
									<effectid>basic</effectid>
									<effectcategory>motion</effectcategory>
									<effecttype>motion</effecttype>
									<mediatype>video</mediatype>
									<parameter authoringApp="PremierePro">
										<parameterid>scale</parameterid>
										<name>Scale</name>
										<valuemin>0</valuemin>
										<valuemax>1000</valuemax>
										<value>149</value>
									</parameter>
									<parameter authoringApp="PremierePro">
										<parameterid>rotation</parameterid>
										<name>Rotation</name>
										<valuemin>-8640</valuemin>
										<valuemax>8640</valuemax>
										<value>0</value>
									</parameter>
									<parameter authoringApp="PremierePro">
										<parameterid>center</parameterid>
										<name>Center</name>
										<value>
											<horiz>0</horiz>
											<vert>0</vert>
										</value>
									</parameter>
									<parameter authoringApp="PremierePro">
										<parameterid>centerOffset</parameterid>
										<name>Anchor Point</name>
										<value>
											<horiz>0</horiz>
											<vert>0</vert>
										</value>
									</parameter>
								</effect>
							</filter>
							<filter>
								<effect>
									<name>Gaussian Blur</name>
									<effectid>Gaussian Blur</effectid>
									<effectcategory>Blur</effectcategory>
									<effecttype>motion</effecttype>
									<mediatype>video</mediatype>
									<parameter authoringApp="PremierePro">
										<parameterid>radius</parameterid>
										<name>Radius</name>
										<valuemin>0</valuemin>
										<valuemax>100</valuemax>
										<value>0</value>
									</parameter>
								</effect>
							</filter>
					</clipitem>
					<transitionitem>
						<start>3141</start>
						<end>3162</end>
						<alignment>center</alignment>
						<cutPoint>10</cutPoint>
						<rate>
							<timebase>25</timebase>
							<ntsc>FALSE</ntsc>
						</rate>
						<effect>
							<name>Cross Dissolve</name>
							<effectid>Cross Dissolve</effectid>
							<effectcategory>Dissolve</effectcategory>
							<effecttype>transition</effecttype>
							<mediatype>video</mediatype>
							<wipecode>0</wipecode>
							<wipeaccuracy>100</wipeaccuracy>
							<startratio>0</startratio>
							<endratio>1</endratio>
							<reverse>FALSE</reverse>
						</effect>
					</transitionitem>
					<clipitem id="clipitem-178" frameBlend="FALSE">
						<masterclipid>masterclip-43</masterclipid>
						<name>Ben-Hur (1925 de Fred Niblo)</name>
						<enabled>TRUE</enabled>
						<duration>3293</duration>
						<rate>
							<ntsc>TRUE</ntsc>
							<timebase>30</timebase>
						</rate>
						<start>-1</start>
						<end>3197</end>
						<in>358</in>
						<out>414</out>
						<alphatype>none</alphatype>
						<file id="file-43"/>
							<filter>
								<effect>
									<name>Basic Motion</name>
									<effectid>basic</effectid>
									<effectcategory>motion</effectcategory>
									<effecttype>motion</effecttype>
									<mediatype>video</mediatype>
									<parameter authoringApp="PremierePro">
										<parameterid>scale</parameterid>
										<name>Scale</name>
										<valuemin>0</valuemin>
										<valuemax>1000</valuemax>
										<value>149</value>
									</parameter>
									<parameter authoringApp="PremierePro">
										<parameterid>rotation</parameterid>
										<name>Rotation</name>
										<valuemin>-8640</valuemin>
										<valuemax>8640</valuemax>
										<value>0</value>
									</parameter>
									<parameter authoringApp="PremierePro">
										<parameterid>center</parameterid>
										<name>Center</name>
										<value>
											<horiz>0</horiz>
											<vert>0</vert>
										</value>
									</parameter>
									<parameter authoringApp="PremierePro">
										<parameterid>centerOffset</parameterid>
										<name>Anchor Point</name>
										<value>
											<horiz>0</horiz>
											<vert>0</vert>
										</value>
									</parameter>
								</effect>
							</filter>
					</clipitem>
					<clipitem id="clipitem-179" frameBlend="FALSE">
						<masterclipid>masterclip-43</masterclipid>
						<name>Ben-Hur (1925 de Fred Niblo)</name>
						<enabled>TRUE</enabled>
						<duration>3293</duration>
						<rate>
							<ntsc>TRUE</ntsc>
							<timebase>30</timebase>
						</rate>
						<start>3197</start>
						<end>3221</end>
						<in>447</in>
						<out>471</out>
						<alphatype>none</alphatype>
						<file id="file-43"/>
							<filter>
								<effect>
									<name>Basic Motion</name>
									<effectid>basic</effectid>
									<effectcategory>motion</effectcategory>
									<effecttype>motion</effecttype>
									<mediatype>video</mediatype>
									<parameter authoringApp="PremierePro">
										<parameterid>scale</parameterid>
										<name>Scale</name>
										<valuemin>0</valuemin>
										<valuemax>1000</valuemax>
										<value>149</value>
									</parameter>
									<parameter authoringApp="PremierePro">
										<parameterid>rotation</parameterid>
										<name>Rotation</name>
										<valuemin>-8640</valuemin>
										<valuemax>8640</valuemax>
										<value>0</value>
									</parameter>
									<parameter authoringApp="PremierePro">
										<parameterid>center</parameterid>
										<name>Center</name>
										<value>
											<horiz>0</horiz>
											<vert>0</vert>
										</value>
									</parameter>
									<parameter authoringApp="PremierePro">
										<parameterid>centerOffset</parameterid>
										<name>Anchor Point</name>
										<value>
											<horiz>0</horiz>
											<vert>0</vert>
										</value>
									</parameter>
								</effect>
							</filter>
					</clipitem>
					<clipitem id="clipitem-180" frameBlend="FALSE">
						<masterclipid>masterclip-43</masterclipid>
						<name>Ben-Hur (1925 de Fred Niblo)</name>
						<enabled>TRUE</enabled>
						<duration>3293</duration>
						<rate>
							<ntsc>TRUE</ntsc>
							<timebase>30</timebase>
						</rate>
						<start>3221</start>
						<end>3261</end>
						<in>506</in>
						<out>546</out>
						<alphatype>none</alphatype>
						<file id="file-43"/>
							<filter>
								<effect>
									<name>Basic Motion</name>
									<effectid>basic</effectid>
									<effectcategory>motion</effectcategory>
									<effecttype>motion</effecttype>
									<mediatype>video</mediatype>
									<parameter authoringApp="PremierePro">
										<parameterid>scale</parameterid>
										<name>Scale</name>
										<valuemin>0</valuemin>
										<valuemax>1000</valuemax>
										<value>149</value>
									</parameter>
									<parameter authoringApp="PremierePro">
										<parameterid>rotation</parameterid>
										<name>Rotation</name>
										<valuemin>-8640</valuemin>
										<valuemax>8640</valuemax>
										<value>0</value>
									</parameter>
									<parameter authoringApp="PremierePro">
										<parameterid>center</parameterid>
										<name>Center</name>
										<value>
											<horiz>0</horiz>
											<vert>0</vert>
										</value>
									</parameter>
									<parameter authoringApp="PremierePro">
										<parameterid>centerOffset</parameterid>
										<name>Anchor Point</name>
										<value>
											<horiz>0</horiz>
											<vert>0</vert>
										</value>
									</parameter>
								</effect>
							</filter>
					</clipitem>
					<clipitem id="clipitem-181" frameBlend="FALSE">
						<masterclipid>masterclip-43</masterclipid>
						<name>Ben-Hur (1925 de Fred Niblo)</name>
						<enabled>TRUE</enabled>
						<duration>3293</duration>
						<rate>
							<ntsc>TRUE</ntsc>
							<timebase>30</timebase>
						</rate>
						<start>3261</start>
						<end>3358</end>
						<in>619</in>
						<out>716</out>
						<alphatype>none</alphatype>
						<file id="file-43"/>
							<filter>
								<effect>
									<name>Basic Motion</name>
									<effectid>basic</effectid>
									<effectcategory>motion</effectcategory>
									<effecttype>motion</effecttype>
									<mediatype>video</mediatype>
									<parameter authoringApp="PremierePro">
										<parameterid>scale</parameterid>
										<name>Scale</name>
										<valuemin>0</valuemin>
										<valuemax>1000</valuemax>
										<value>149</value>
									</parameter>
									<parameter authoringApp="PremierePro">
										<parameterid>rotation</parameterid>
										<name>Rotation</name>
										<valuemin>-8640</valuemin>
										<valuemax>8640</valuemax>
										<value>0</value>
									</parameter>
									<parameter authoringApp="PremierePro">
										<parameterid>center</parameterid>
										<name>Center</name>
										<value>
											<horiz>0</horiz>
											<vert>0</vert>
										</value>
									</parameter>
									<parameter authoringApp="PremierePro">
										<parameterid>centerOffset</parameterid>
										<name>Anchor Point</name>
										<value>
											<horiz>0</horiz>
											<vert>0</vert>
										</value>
									</parameter>
								</effect>
							</filter>
					</clipitem>
					<clipitem id="clipitem-182" frameBlend="FALSE">
						<masterclipid>masterclip-43</masterclipid>
						<name>Ben-Hur (1925 de Fred Niblo)</name>
						<enabled>TRUE</enabled>
						<duration>3293</duration>
						<rate>
							<ntsc>TRUE</ntsc>
							<timebase>30</timebase>
						</rate>
						<start>3358</start>
						<end>3416</end>
						<in>1372</in>
						<out>1430</out>
						<alphatype>none</alphatype>
						<file id="file-43"/>
							<filter>
								<effect>
									<name>Basic Motion</name>
									<effectid>basic</effectid>
									<effectcategory>motion</effectcategory>
									<effecttype>motion</effecttype>
									<mediatype>video</mediatype>
									<parameter authoringApp="PremierePro">
										<parameterid>scale</parameterid>
										<name>Scale</name>
										<valuemin>0</valuemin>
										<valuemax>1000</valuemax>
										<value>150</value>
									</parameter>
									<parameter authoringApp="PremierePro">
										<parameterid>rotation</parameterid>
										<name>Rotation</name>
										<valuemin>-8640</valuemin>
										<valuemax>8640</valuemax>
										<value>0</value>
									</parameter>
									<parameter authoringApp="PremierePro">
										<parameterid>center</parameterid>
										<name>Center</name>
										<value>
											<horiz>0</horiz>
											<vert>0</vert>
										</value>
									</parameter>
									<parameter authoringApp="PremierePro">
										<parameterid>centerOffset</parameterid>
										<name>Anchor Point</name>
										<value>
											<horiz>0</horiz>
											<vert>0</vert>
										</value>
									</parameter>
								</effect>
							</filter>
					</clipitem>
					<clipitem id="clipitem-183" frameBlend="FALSE">
						<masterclipid>masterclip-43</masterclipid>
						<name>Ben-Hur (1925 de Fred Niblo)</name>
						<enabled>TRUE</enabled>
						<duration>3293</duration>
						<rate>
							<ntsc>TRUE</ntsc>
							<timebase>30</timebase>
						</rate>
						<start>3416</start>
						<end>3585</end>
						<in>2047</in>
						<out>2216</out>
						<alphatype>none</alphatype>
						<file id="file-43"/>
							<filter>
								<effect>
									<name>Basic Motion</name>
									<effectid>basic</effectid>
									<effectcategory>motion</effectcategory>
									<effecttype>motion</effecttype>
									<mediatype>video</mediatype>
									<parameter authoringApp="PremierePro">
										<parameterid>scale</parameterid>
										<name>Scale</name>
										<valuemin>0</valuemin>
										<valuemax>1000</valuemax>
										<value>149</value>
									</parameter>
									<parameter authoringApp="PremierePro">
										<parameterid>rotation</parameterid>
										<name>Rotation</name>
										<valuemin>-8640</valuemin>
										<valuemax>8640</valuemax>
										<value>0</value>
									</parameter>
									<parameter authoringApp="PremierePro">
										<parameterid>center</parameterid>
										<name>Center</name>
										<value>
											<horiz>0</horiz>
											<vert>0</vert>
										</value>
									</parameter>
									<parameter authoringApp="PremierePro">
										<parameterid>centerOffset</parameterid>
										<name>Anchor Point</name>
										<value>
											<horiz>0</horiz>
											<vert>0</vert>
										</value>
									</parameter>
								</effect>
							</filter>
							<filter>
								<effect>
									<name>Opacity</name>
									<effectid>opacity</effectid>
									<effectcategory>motion</effectcategory>
									<effecttype>motion</effecttype>
									<mediatype>video</mediatype>
									<parameter authoringApp="PremierePro">
										<parameterid>opacity</parameterid>
										<name>opacity</name>
										<valuemin>0</valuemin>
										<valuemax>100</valuemax>
										<value>100</value>
										<keyframe>
											<when>0</when>
											<value>100</value>
										</keyframe>
									</parameter>
								</effect>
							</filter>
					</clipitem>
					<clipitem id="clipitem-184" frameBlend="FALSE">
						<masterclipid>masterclip-44</masterclipid>
						<name>filmb-filmprod_p0</name>
						<enabled>TRUE</enabled>
						<duration>768</duration>
						<rate>
							<timebase>25</timebase>
							<ntsc>FALSE</ntsc>
						</rate>
						<start>3585</start>
						<end>3696</end>
						<in>424</in>
						<out>535</out>
						<alphatype>none</alphatype>
						<pixelaspectratio>PAL-601</pixelaspectratio>
						<anamorphic>FALSE</anamorphic>
						<file id="file-44">
							<name>filmb-filmprod_p0.mxf</name>
							<pathurl>file://localhost/Volumes/omfs/clip.dir/MXF/576i/filmb-filmprod_p0.mxf</pathurl>
							<rate>
								<timebase>25</timebase>
								<ntsc>FALSE</ntsc>
							</rate>
							<duration>768</duration>
							<timecode>
								<rate>
									<timebase>25</timebase>
									<ntsc>FALSE</ntsc>
								</rate>
								<string>00:00:00:08</string>
								<frame>8</frame>
								<displayformat>NDF</displayformat>
							</timecode>
							<media>
								<video>
									<duration>18000</duration>
									<samplecharacteristics>
										<rate>
											<timebase>25</timebase>
											<ntsc>FALSE</ntsc>
										</rate>
										<width>720</width>
										<height>576</height>
										<anamorphic>FALSE</anamorphic>
										<pixelaspectratio>PAL-601</pixelaspectratio>
										<fielddominance>upper</fielddominance>
									</samplecharacteristics>
								</video>
								<audio>
									<samplecharacteristics>
										<depth>16</depth>
										<samplerate>48000</samplerate>
									</samplecharacteristics>
									<channelcount>1</channelcount>
									<layout>mono</layout>
									<audiochannel>
										<sourcechannel>1</sourcechannel>
										<channellabel>discrete</channellabel>
									</audiochannel>
								</audio>
								<audio>
									<samplecharacteristics>
										<depth>16</depth>
										<samplerate>48000</samplerate>
									</samplecharacteristics>
									<channelcount>1</channelcount>
									<layout>mono</layout>
									<audiochannel>
										<sourcechannel>2</sourcechannel>
										<channellabel>discrete</channellabel>
									</audiochannel>
								</audio>
								<audio>
									<samplecharacteristics>
										<depth>16</depth>
										<samplerate>48000</samplerate>
									</samplecharacteristics>
									<channelcount>1</channelcount>
									<layout>mono</layout>
									<audiochannel>
										<sourcechannel>3</sourcechannel>
										<channellabel>discrete</channellabel>
									</audiochannel>
								</audio>
								<audio>
									<samplecharacteristics>
										<depth>16</depth>
										<samplerate>48000</samplerate>
									</samplecharacteristics>
									<channelcount>1</channelcount>
									<layout>mono</layout>
									<audiochannel>
										<sourcechannel>4</sourcechannel>
										<channellabel>discrete</channellabel>
									</audiochannel>
								</audio>
							</media>
						</file>
							<filter>
								<effect>
									<name>Basic Motion</name>
									<effectid>basic</effectid>
									<effectcategory>motion</effectcategory>
									<effecttype>motion</effecttype>
									<mediatype>video</mediatype>
									<parameter authoringApp="PremierePro">
										<parameterid>scale</parameterid>
										<name>Scale</name>
										<valuemin>0</valuemin>
										<valuemax>1000</valuemax>
										<value>187</value>
									</parameter>
									<parameter authoringApp="PremierePro">
										<parameterid>rotation</parameterid>
										<name>Rotation</name>
										<valuemin>-8640</valuemin>
										<valuemax>8640</valuemax>
										<value>0</value>
									</parameter>
									<parameter authoringApp="PremierePro">
										<parameterid>center</parameterid>
										<name>Center</name>
										<value>
											<horiz>0</horiz>
											<vert>0</vert>
										</value>
									</parameter>
									<parameter authoringApp="PremierePro">
										<parameterid>centerOffset</parameterid>
										<name>Anchor Point</name>
										<value>
											<horiz>0</horiz>
											<vert>0</vert>
										</value>
									</parameter>
								</effect>
							</filter>
							<filter>
								<effect>
									<name>Distort</name>
									<effectid>deformation</effectid>
									<effectcategory>motion</effectcategory>
									<effecttype>motion</effecttype>
									<mediatype>video</mediatype>
									<parameter authoringApp="PremierePro">
										<parameterid>aspect</parameterid>
										<name>Aspect</name>
										<valuemin>-10000</valuemin>
										<valuemax>10000</valuemax>
										<value>-9.40171</value>
									</parameter>
								</effect>
							</filter>
					</clipitem>
					<clipitem id="clipitem-185" frameBlend="FALSE">
						<masterclipid>masterclip-44</masterclipid>
						<name>filmb-filmprod_p0</name>
						<enabled>TRUE</enabled>
						<duration>768</duration>
						<rate>
							<ntsc>TRUE</ntsc>
							<timebase>30</timebase>
						</rate>
						<start>3696</start>
						<end>3775</end>
						<in>619</in>
						<out>698</out>
						<alphatype>none</alphatype>
						<file id="file-44"/>
							<filter>
								<effect>
									<name>Basic Motion</name>
									<effectid>basic</effectid>
									<effectcategory>motion</effectcategory>
									<effecttype>motion</effecttype>
									<mediatype>video</mediatype>
									<parameter authoringApp="PremierePro">
										<parameterid>scale</parameterid>
										<name>Scale</name>
										<valuemin>0</valuemin>
										<valuemax>1000</valuemax>
										<value>187</value>
									</parameter>
									<parameter authoringApp="PremierePro">
										<parameterid>rotation</parameterid>
										<name>Rotation</name>
										<valuemin>-8640</valuemin>
										<valuemax>8640</valuemax>
										<value>0</value>
									</parameter>
									<parameter authoringApp="PremierePro">
										<parameterid>center</parameterid>
										<name>Center</name>
										<value>
											<horiz>0</horiz>
											<vert>0</vert>
										</value>
									</parameter>
									<parameter authoringApp="PremierePro">
										<parameterid>centerOffset</parameterid>
										<name>Anchor Point</name>
										<value>
											<horiz>0</horiz>
											<vert>0</vert>
										</value>
									</parameter>
								</effect>
							</filter>
							<filter>
								<effect>
									<name>Opacity</name>
									<effectid>opacity</effectid>
									<effectcategory>motion</effectcategory>
									<effecttype>motion</effecttype>
									<mediatype>video</mediatype>
									<parameter authoringApp="PremierePro">
										<parameterid>opacity</parameterid>
										<name>opacity</name>
										<valuemin>0</valuemin>
										<valuemax>100</valuemax>
										<value>100</value>
										<keyframe>
											<when>168</when>
											<value>100</value>
										</keyframe>
									</parameter>
								</effect>
							</filter>
							<filter>
								<effect>
									<name>Distort</name>
									<effectid>deformation</effectid>
									<effectcategory>motion</effectcategory>
									<effecttype>motion</effecttype>
									<mediatype>video</mediatype>
									<parameter authoringApp="PremierePro">
										<parameterid>aspect</parameterid>
										<name>Aspect</name>
										<valuemin>-10000</valuemin>
										<valuemax>10000</valuemax>
										<value>-9.40171</value>
									</parameter>
								</effect>
							</filter>
					</clipitem>
					<clipitem id="clipitem-186" frameBlend="FALSE">
						<masterclipid>masterclip-45</masterclipid>
						<name>Ben Hur</name>
						<enabled>TRUE</enabled>
						<duration>22984</duration>
						<rate>
							<timebase>25</timebase>
							<ntsc>FALSE</ntsc>
						</rate>
						<start>3775</start>
						<end>4051</end>
						<in>563</in>
						<out>839</out>
						<alphatype>none</alphatype>
						<pixelaspectratio>square</pixelaspectratio>
						<anamorphic>FALSE</anamorphic>
						<file id="file-45">
							<name>Ben Hur.mov</name>
							<pathurl>file://localhost/Volumes/Scenen/Prosjekter/FILM/FILM%201413%20Stormannsgalskap/Filmrips/Ben%20Hur.mov</pathurl>
							<rate>
								<timebase>25</timebase>
								<ntsc>FALSE</ntsc>
							</rate>
							<duration>22984</duration>
							<timecode>
								<rate>
									<timebase>25</timebase>
									<ntsc>FALSE</ntsc>
								</rate>
								<string>00:00:00:00</string>
								<frame>0</frame>
								<displayformat>NDF</displayformat>
							</timecode>
							<media>
								<video>
									<duration>18000</duration>
									<samplecharacteristics>
										<rate>
											<timebase>25</timebase>
											<ntsc>FALSE</ntsc>
										</rate>
										<width>1920</width>
										<height>1080</height>
										<anamorphic>FALSE</anamorphic>
										<pixelaspectratio>square</pixelaspectratio>
										<fielddominance>none</fielddominance>
									</samplecharacteristics>
								</video>
								<audio>
									<samplecharacteristics>
										<depth>16</depth>
										<samplerate>48000</samplerate>
									</samplecharacteristics>
									<channelcount>2</channelcount>
								</audio>
							</media>
						</file>
					</clipitem>
					<clipitem id="clipitem-187" frameBlend="FALSE">
						<masterclipid>masterclip-45</masterclipid>
						<name>Ben Hur</name>
						<enabled>TRUE</enabled>
						<duration>22984</duration>
						<rate>
							<ntsc>TRUE</ntsc>
							<timebase>30</timebase>
						</rate>
						<start>4051</start>
						<end>4206</end>
						<in>3388</in>
						<out>3543</out>
						<alphatype>none</alphatype>
						<file id="file-45"/>
					</clipitem>
					<clipitem id="clipitem-188" frameBlend="FALSE">
						<masterclipid>masterclip-45</masterclipid>
						<name>Ben Hur</name>
						<enabled>TRUE</enabled>
						<duration>22984</duration>
						<rate>
							<ntsc>TRUE</ntsc>
							<timebase>30</timebase>
						</rate>
						<start>4206</start>
						<end>4268</end>
						<in>5524</in>
						<out>5586</out>
						<alphatype>none</alphatype>
						<file id="file-45"/>
					</clipitem>
					<clipitem id="clipitem-189" frameBlend="FALSE">
						<masterclipid>masterclip-45</masterclipid>
						<name>Ben Hur</name>
						<enabled>TRUE</enabled>
						<duration>22984</duration>
						<rate>
							<ntsc>TRUE</ntsc>
							<timebase>30</timebase>
						</rate>
						<start>4268</start>
						<end>-1</end>
						<in>3657</in>
						<out>3733</out>
						<alphatype>none</alphatype>
						<file id="file-45"/>
					</clipitem>
					<transitionitem>
						<start>4319</start>
						<end>4344</end>
						<alignment>end-black</alignment>
						<cutPoint>25</cutPoint>
						<rate>
							<timebase>25</timebase>
							<ntsc>FALSE</ntsc>
						</rate>
						<effect>
							<name>Cross Dissolve</name>
							<effectid>Cross Dissolve</effectid>
							<effectcategory>Dissolve</effectcategory>
							<effecttype>transition</effecttype>
							<mediatype>video</mediatype>
							<wipecode>0</wipecode>
							<wipeaccuracy>100</wipeaccuracy>
							<startratio>0</startratio>
							<endratio>1</endratio>
							<reverse>FALSE</reverse>
						</effect>
					</transitionitem>
					<transitionitem>
						<start>4357</start>
						<end>4382</end>
						<alignment>start-black</alignment>
						<cutPoint>0</cutPoint>
						<rate>
							<timebase>25</timebase>
							<ntsc>FALSE</ntsc>
						</rate>
						<effect>
							<name>Cross Dissolve</name>
							<effectid>Cross Dissolve</effectid>
							<effectcategory>Dissolve</effectcategory>
							<effecttype>transition</effecttype>
							<mediatype>video</mediatype>
							<wipecode>0</wipecode>
							<wipeaccuracy>100</wipeaccuracy>
							<startratio>0</startratio>
							<endratio>1</endratio>
							<reverse>FALSE</reverse>
						</effect>
					</transitionitem>
					<clipitem id="clipitem-190" frameBlend="FALSE">
						<masterclipid>masterclip-38</masterclipid>
						<name>Cleopatra</name>
						<enabled>TRUE</enabled>
						<duration>10842</duration>
						<rate>
							<ntsc>TRUE</ntsc>
							<timebase>30</timebase>
						</rate>
						<start>-1</start>
						<end>4648</end>
						<in>5679</in>
						<out>5970</out>
						<alphatype>none</alphatype>
						<file id="file-38"/>
							<filter>
								<effect>
									<name>Basic Motion</name>
									<effectid>basic</effectid>
									<effectcategory>motion</effectcategory>
									<effecttype>motion</effecttype>
									<mediatype>video</mediatype>
									<parameter authoringApp="PremierePro">
										<parameterid>scale</parameterid>
										<name>Scale</name>
										<valuemin>0</valuemin>
										<valuemax>1000</valuemax>
										<value>100</value>
									</parameter>
									<parameter authoringApp="PremierePro">
										<parameterid>rotation</parameterid>
										<name>Rotation</name>
										<valuemin>-8640</valuemin>
										<valuemax>8640</valuemax>
										<value>0</value>
									</parameter>
									<parameter authoringApp="PremierePro">
										<parameterid>center</parameterid>
										<name>Center</name>
										<value>
											<horiz>0</horiz>
											<vert>0.0435185</vert>
										</value>
									</parameter>
									<parameter authoringApp="PremierePro">
										<parameterid>centerOffset</parameterid>
										<name>Anchor Point</name>
										<value>
											<horiz>0</horiz>
											<vert>0</vert>
										</value>
									</parameter>
								</effect>
							</filter>
					</clipitem>
					<clipitem id="clipitem-191" frameBlend="FALSE">
						<masterclipid>masterclip-38</masterclipid>
						<name>Cleopatra</name>
						<enabled>TRUE</enabled>
						<duration>10842</duration>
						<rate>
							<ntsc>TRUE</ntsc>
							<timebase>30</timebase>
						</rate>
						<start>4648</start>
						<end>4750</end>
						<in>6630</in>
						<out>6732</out>
						<alphatype>none</alphatype>
						<file id="file-38"/>
							<filter>
								<effect>
									<name>Basic Motion</name>
									<effectid>basic</effectid>
									<effectcategory>motion</effectcategory>
									<effecttype>motion</effecttype>
									<mediatype>video</mediatype>
									<parameter authoringApp="PremierePro">
										<parameterid>scale</parameterid>
										<name>Scale</name>
										<valuemin>0</valuemin>
										<valuemax>1000</valuemax>
										<value>100</value>
									</parameter>
									<parameter authoringApp="PremierePro">
										<parameterid>rotation</parameterid>
										<name>Rotation</name>
										<valuemin>-8640</valuemin>
										<valuemax>8640</valuemax>
										<value>0</value>
									</parameter>
									<parameter authoringApp="PremierePro">
										<parameterid>center</parameterid>
										<name>Center</name>
										<value>
											<horiz>0</horiz>
											<vert>0.0435185</vert>
										</value>
									</parameter>
									<parameter authoringApp="PremierePro">
										<parameterid>centerOffset</parameterid>
										<name>Anchor Point</name>
										<value>
											<horiz>0</horiz>
											<vert>0</vert>
										</value>
									</parameter>
								</effect>
							</filter>
							<filter>
								<effect>
									<name>Opacity</name>
									<effectid>opacity</effectid>
									<effectcategory>motion</effectcategory>
									<effecttype>motion</effecttype>
									<mediatype>video</mediatype>
									<parameter authoringApp="PremierePro">
										<parameterid>opacity</parameterid>
										<name>opacity</name>
										<valuemin>0</valuemin>
										<valuemax>100</valuemax>
										<value>100</value>
										<keyframe>
											<when>0</when>
											<value>100</value>
										</keyframe>
									</parameter>
								</effect>
							</filter>
					</clipitem>
					<clipitem id="clipitem-192" frameBlend="FALSE">
						<masterclipid>masterclip-38</masterclipid>
						<name>Cleopatra</name>
						<enabled>TRUE</enabled>
						<duration>10842</duration>
						<rate>
							<ntsc>TRUE</ntsc>
							<timebase>30</timebase>
						</rate>
						<start>4750</start>
						<end>4951</end>
						<in>7194</in>
						<out>7395</out>
						<alphatype>none</alphatype>
						<file id="file-38"/>
							<filter>
								<effect>
									<name>Basic Motion</name>
									<effectid>basic</effectid>
									<effectcategory>motion</effectcategory>
									<effecttype>motion</effecttype>
									<mediatype>video</mediatype>
									<parameter authoringApp="PremierePro">
										<parameterid>scale</parameterid>
										<name>Scale</name>
										<valuemin>0</valuemin>
										<valuemax>1000</valuemax>
										<value>100</value>
									</parameter>
									<parameter authoringApp="PremierePro">
										<parameterid>rotation</parameterid>
										<name>Rotation</name>
										<valuemin>-8640</valuemin>
										<valuemax>8640</valuemax>
										<value>0</value>
									</parameter>
									<parameter authoringApp="PremierePro">
										<parameterid>center</parameterid>
										<name>Center</name>
										<value>
											<horiz>0</horiz>
											<vert>0.0435185</vert>
										</value>
										<keyframe>
											<when>7238</when>
											<value>
												<horiz>0</horiz>
												<vert>0.0435185</vert>
											</value>
										</keyframe>
										<keyframe>
											<when>7285</when>
											<value>
												<horiz>0</horiz>
												<vert>0.0435185</vert>
											</value>
										</keyframe>
										<keyframe>
											<when>7308</when>
											<value>
												<horiz>0</horiz>
												<vert>0</vert>
											</value>
										</keyframe>
									</parameter>
									<parameter authoringApp="PremierePro">
										<parameterid>centerOffset</parameterid>
										<name>Anchor Point</name>
										<value>
											<horiz>0</horiz>
											<vert>0</vert>
										</value>
									</parameter>
								</effect>
							</filter>
					</clipitem>
					<clipitem id="clipitem-193" frameBlend="FALSE">
						<masterclipid>masterclip-38</masterclipid>
						<name>Cleopatra</name>
						<enabled>TRUE</enabled>
						<duration>10842</duration>
						<rate>
							<ntsc>TRUE</ntsc>
							<timebase>30</timebase>
						</rate>
						<start>4951</start>
						<end>5188</end>
						<in>7757</in>
						<out>7994</out>
						<alphatype>none</alphatype>
						<file id="file-38"/>
					</clipitem>
					<clipitem id="clipitem-194" frameBlend="FALSE">
						<masterclipid>masterclip-38</masterclipid>
						<name>Cleopatra</name>
						<enabled>TRUE</enabled>
						<duration>10842</duration>
						<rate>
							<ntsc>TRUE</ntsc>
							<timebase>30</timebase>
						</rate>
						<start>5188</start>
						<end>5312</end>
						<in>9510</in>
						<out>9634</out>
						<alphatype>none</alphatype>
						<file id="file-38"/>
					</clipitem>
					<clipitem id="clipitem-195" frameBlend="FALSE">
						<masterclipid>masterclip-36</masterclipid>
						<name>filmb-apocalypsenow_1.mxf</name>
						<enabled>TRUE</enabled>
						<duration>9706</duration>
						<rate>
							<ntsc>TRUE</ntsc>
							<timebase>30</timebase>
						</rate>
						<start>5312</start>
						<end>5391</end>
						<in>3565</in>
						<out>3644</out>
						<alphatype>none</alphatype>
						<file id="file-36"/>
							<filter>
								<effect>
									<name>Opacity</name>
									<effectid>opacity</effectid>
									<effectcategory>motion</effectcategory>
									<effecttype>motion</effecttype>
									<mediatype>video</mediatype>
									<parameter authoringApp="PremierePro">
										<parameterid>opacity</parameterid>
										<name>opacity</name>
										<valuemin>0</valuemin>
										<valuemax>100</valuemax>
										<value>100</value>
										<keyframe>
											<when>1146</when>
											<value>100</value>
										</keyframe>
									</parameter>
								</effect>
							</filter>
					</clipitem>
					<clipitem id="clipitem-196" frameBlend="FALSE">
						<masterclipid>masterclip-36</masterclipid>
						<name>filmb-apocalypsenow_1.mxf</name>
						<enabled>TRUE</enabled>
						<duration>9706</duration>
						<rate>
							<ntsc>TRUE</ntsc>
							<timebase>30</timebase>
						</rate>
						<start>5391</start>
						<end>5423</end>
						<in>3436</in>
						<out>3468</out>
						<alphatype>none</alphatype>
						<file id="file-36"/>
							<filter>
								<effect>
									<name>Opacity</name>
									<effectid>opacity</effectid>
									<effectcategory>motion</effectcategory>
									<effecttype>motion</effecttype>
									<mediatype>video</mediatype>
									<parameter authoringApp="PremierePro">
										<parameterid>opacity</parameterid>
										<name>opacity</name>
										<valuemin>0</valuemin>
										<valuemax>100</valuemax>
										<value>100</value>
										<keyframe>
											<when>2456</when>
											<value>100</value>
										</keyframe>
									</parameter>
								</effect>
							</filter>
					</clipitem>
					<clipitem id="clipitem-197" frameBlend="FALSE">
						<masterclipid>masterclip-36</masterclipid>
						<name>filmb-apocalypsenow_1.mxf</name>
						<enabled>TRUE</enabled>
						<duration>9706</duration>
						<rate>
							<ntsc>TRUE</ntsc>
							<timebase>30</timebase>
						</rate>
						<start>5423</start>
						<end>5511</end>
						<in>3821</in>
						<out>3909</out>
						<alphatype>none</alphatype>
						<file id="file-36"/>
							<filter>
								<effect>
									<name>Opacity</name>
									<effectid>opacity</effectid>
									<effectcategory>motion</effectcategory>
									<effecttype>motion</effecttype>
									<mediatype>video</mediatype>
									<parameter authoringApp="PremierePro">
										<parameterid>opacity</parameterid>
										<name>opacity</name>
										<valuemin>0</valuemin>
										<valuemax>100</valuemax>
										<value>100</value>
										<keyframe>
											<when>0</when>
											<value>100</value>
										</keyframe>
									</parameter>
								</effect>
							</filter>
					</clipitem>
					<clipitem id="clipitem-198" frameBlend="FALSE">
						<masterclipid>masterclip-35</masterclipid>
						<name>apocalypse_now_begynnelsen</name>
						<enabled>TRUE</enabled>
						<duration>9005</duration>
						<rate>
							<ntsc>TRUE</ntsc>
							<timebase>30</timebase>
						</rate>
						<start>5511</start>
						<end>6277</end>
						<in>3523</in>
						<out>4289</out>
						<alphatype>none</alphatype>
						<file id="file-35"/>
					</clipitem>
					<clipitem id="clipitem-199" frameBlend="FALSE">
						<masterclipid>masterclip-46</masterclipid>
						<name>Hearts of darknes</name>
						<enabled>TRUE</enabled>
						<duration>14260</duration>
						<rate>
							<timebase>30</timebase>
							<ntsc>TRUE</ntsc>
						</rate>
						<start>6277</start>
						<end>6735</end>
						<in>6059</in>
						<out>6517</out>
						<alphatype>none</alphatype>
						<pixelaspectratio>square</pixelaspectratio>
						<anamorphic>FALSE</anamorphic>
						<file id="file-46">
							<name>Hearts of darknes.mov</name>
							<pathurl>file://localhost/Volumes/Scenen/Prosjekter/FILM/FILM%201413%20Stormannsgalskap/Filmrips/Hearts%20of%20darknes.mov</pathurl>
							<rate>
								<timebase>30</timebase>
								<ntsc>TRUE</ntsc>
							</rate>
							<duration>14261</duration>
							<timecode>
								<rate>
									<timebase>30</timebase>
									<ntsc>TRUE</ntsc>
								</rate>
								<string>00;00;00;00</string>
								<frame>0</frame>
								<displayformat>DF</displayformat>
							</timecode>
							<media>
								<video>
									<duration>18000</duration>
									<samplecharacteristics>
										<rate>
											<timebase>30</timebase>
											<ntsc>TRUE</ntsc>
										</rate>
										<width>1920</width>
										<height>1080</height>
										<anamorphic>FALSE</anamorphic>
										<pixelaspectratio>square</pixelaspectratio>
										<fielddominance>none</fielddominance>
									</samplecharacteristics>
								</video>
								<audio>
									<samplecharacteristics>
										<depth>16</depth>
										<samplerate>48000</samplerate>
									</samplecharacteristics>
									<channelcount>2</channelcount>
								</audio>
							</media>
						</file>
					</clipitem>
					<clipitem id="clipitem-200" frameBlend="FALSE">
						<masterclipid>masterclip-46</masterclipid>
						<name>Hearts of darknes</name>
						<enabled>TRUE</enabled>
						<duration>14260</duration>
						<rate>
							<ntsc>TRUE</ntsc>
							<timebase>30</timebase>
						</rate>
						<start>6735</start>
						<end>6826</end>
						<in>2413</in>
						<out>2504</out>
						<alphatype>none</alphatype>
						<file id="file-46"/>
							<filter>
								<effect>
									<name>Basic Motion</name>
									<effectid>basic</effectid>
									<effectcategory>motion</effectcategory>
									<effecttype>motion</effecttype>
									<mediatype>video</mediatype>
									<parameter authoringApp="PremierePro">
										<parameterid>scale</parameterid>
										<name>Scale</name>
										<valuemin>0</valuemin>
										<valuemax>1000</valuemax>
										<value>124</value>
									</parameter>
									<parameter authoringApp="PremierePro">
										<parameterid>rotation</parameterid>
										<name>Rotation</name>
										<valuemin>-8640</valuemin>
										<valuemax>8640</valuemax>
										<value>0</value>
									</parameter>
									<parameter authoringApp="PremierePro">
										<parameterid>center</parameterid>
										<name>Center</name>
										<value>
											<horiz>0</horiz>
											<vert>0</vert>
										</value>
									</parameter>
									<parameter authoringApp="PremierePro">
										<parameterid>centerOffset</parameterid>
										<name>Anchor Point</name>
										<value>
											<horiz>0</horiz>
											<vert>0</vert>
										</value>
									</parameter>
								</effect>
							</filter>
							<filter>
								<effect>
									<name>Distort</name>
									<effectid>deformation</effectid>
									<effectcategory>motion</effectcategory>
									<effecttype>motion</effecttype>
									<mediatype>video</mediatype>
									<parameter authoringApp="PremierePro">
										<parameterid>aspect</parameterid>
										<name>Aspect</name>
										<valuemin>-10000</valuemin>
										<valuemax>10000</valuemax>
										<value>20.0004</value>
									</parameter>
								</effect>
							</filter>
					</clipitem>
					<clipitem id="clipitem-201" frameBlend="FALSE">
						<masterclipid>masterclip-46</masterclipid>
						<name>Hearts of darknes</name>
						<enabled>TRUE</enabled>
						<duration>14260</duration>
						<rate>
							<ntsc>TRUE</ntsc>
							<timebase>30</timebase>
						</rate>
						<start>6826</start>
						<end>6876</end>
						<in>1119</in>
						<out>1169</out>
						<alphatype>none</alphatype>
						<file id="file-46"/>
							<filter>
								<effect>
									<name>Basic Motion</name>
									<effectid>basic</effectid>
									<effectcategory>motion</effectcategory>
									<effecttype>motion</effecttype>
									<mediatype>video</mediatype>
									<parameter authoringApp="PremierePro">
										<parameterid>scale</parameterid>
										<name>Scale</name>
										<valuemin>0</valuemin>
										<valuemax>1000</valuemax>
										<value>186</value>
									</parameter>
									<parameter authoringApp="PremierePro">
										<parameterid>rotation</parameterid>
										<name>Rotation</name>
										<valuemin>-8640</valuemin>
										<valuemax>8640</valuemax>
										<value>0</value>
									</parameter>
									<parameter authoringApp="PremierePro">
										<parameterid>center</parameterid>
										<name>Center</name>
										<value>
											<horiz>0.203975</horiz>
											<vert>0.319703</vert>
										</value>
									</parameter>
									<parameter authoringApp="PremierePro">
										<parameterid>centerOffset</parameterid>
										<name>Anchor Point</name>
										<value>
											<horiz>0</horiz>
											<vert>0</vert>
										</value>
									</parameter>
								</effect>
							</filter>
							<filter>
								<effect>
									<name>Distort</name>
									<effectid>deformation</effectid>
									<effectcategory>motion</effectcategory>
									<effecttype>motion</effecttype>
									<mediatype>video</mediatype>
									<parameter authoringApp="PremierePro">
										<parameterid>aspect</parameterid>
										<name>Aspect</name>
										<valuemin>-10000</valuemin>
										<valuemax>10000</valuemax>
										<value>26</value>
									</parameter>
								</effect>
							</filter>
							<filter>
								<effect>
									<name>Opacity</name>
									<effectid>opacity</effectid>
									<effectcategory>motion</effectcategory>
									<effecttype>motion</effecttype>
									<mediatype>video</mediatype>
									<parameter authoringApp="PremierePro">
										<parameterid>opacity</parameterid>
										<name>opacity</name>
										<valuemin>0</valuemin>
										<valuemax>100</valuemax>
										<value>100</value>
										<keyframe>
											<when>0</when>
											<value>100</value>
										</keyframe>
									</parameter>
								</effect>
							</filter>
					</clipitem>
					<clipitem id="clipitem-202" frameBlend="FALSE">
						<masterclipid>masterclip-47</masterclipid>
						<name>Hearts of darkness2</name>
						<enabled>TRUE</enabled>
						<duration>4970</duration>
						<rate>
							<timebase>30</timebase>
							<ntsc>TRUE</ntsc>
						</rate>
						<start>6876</start>
						<end>6969</end>
						<in>88</in>
						<out>181</out>
						<alphatype>none</alphatype>
						<pixelaspectratio>square</pixelaspectratio>
						<anamorphic>FALSE</anamorphic>
						<file id="file-47">
							<name>Hearts of darkness2.mov</name>
							<pathurl>file://localhost/Volumes/Scenen/Prosjekter/FILM/FILM%201413%20Stormannsgalskap/Filmrips/Hearts%20of%20darkness2.mov</pathurl>
							<rate>
								<timebase>30</timebase>
								<ntsc>TRUE</ntsc>
							</rate>
							<duration>4971</duration>
							<timecode>
								<rate>
									<timebase>30</timebase>
									<ntsc>TRUE</ntsc>
								</rate>
								<string>00;00;00;00</string>
								<frame>0</frame>
								<displayformat>DF</displayformat>
							</timecode>
							<media>
								<video>
									<duration>18000</duration>
									<samplecharacteristics>
										<rate>
											<timebase>30</timebase>
											<ntsc>TRUE</ntsc>
										</rate>
										<width>1920</width>
										<height>1080</height>
										<anamorphic>FALSE</anamorphic>
										<pixelaspectratio>square</pixelaspectratio>
										<fielddominance>none</fielddominance>
									</samplecharacteristics>
								</video>
								<audio>
									<samplecharacteristics>
										<depth>16</depth>
										<samplerate>48000</samplerate>
									</samplecharacteristics>
									<channelcount>2</channelcount>
								</audio>
							</media>
						</file>
							<filter>
								<effect>
									<name>Basic Motion</name>
									<effectid>basic</effectid>
									<effectcategory>motion</effectcategory>
									<effecttype>motion</effecttype>
									<mediatype>video</mediatype>
									<parameter authoringApp="PremierePro">
										<parameterid>scale</parameterid>
										<name>Scale</name>
										<valuemin>0</valuemin>
										<valuemax>1000</valuemax>
										<value>124</value>
									</parameter>
									<parameter authoringApp="PremierePro">
										<parameterid>rotation</parameterid>
										<name>Rotation</name>
										<valuemin>-8640</valuemin>
										<valuemax>8640</valuemax>
										<value>0</value>
									</parameter>
									<parameter authoringApp="PremierePro">
										<parameterid>center</parameterid>
										<name>Center</name>
										<value>
											<horiz>0</horiz>
											<vert>0</vert>
										</value>
									</parameter>
									<parameter authoringApp="PremierePro">
										<parameterid>centerOffset</parameterid>
										<name>Anchor Point</name>
										<value>
											<horiz>0</horiz>
											<vert>0</vert>
										</value>
									</parameter>
								</effect>
							</filter>
							<filter>
								<effect>
									<name>Distort</name>
									<effectid>deformation</effectid>
									<effectcategory>motion</effectcategory>
									<effecttype>motion</effecttype>
									<mediatype>video</mediatype>
									<parameter authoringApp="PremierePro">
										<parameterid>aspect</parameterid>
										<name>Aspect</name>
										<valuemin>-10000</valuemin>
										<valuemax>10000</valuemax>
										<value>20.0004</value>
									</parameter>
								</effect>
							</filter>
					</clipitem>
					<clipitem id="clipitem-203" frameBlend="FALSE">
						<masterclipid>masterclip-48</masterclipid>
						<name>Hearts of darkness3</name>
						<enabled>TRUE</enabled>
						<duration>431</duration>
						<rate>
							<timebase>30</timebase>
							<ntsc>TRUE</ntsc>
						</rate>
						<start>6969</start>
						<end>7055</end>
						<in>0</in>
						<out>86</out>
						<alphatype>none</alphatype>
						<pixelaspectratio>square</pixelaspectratio>
						<anamorphic>FALSE</anamorphic>
						<file id="file-48">
							<name>VTS_08_1.mov</name>
							<pathurl>file://localhost/Volumes/Scenen/Prosjekter/FILM/FILM%201413%20Stormannsgalskap/Filmrips/VTS_08_1.mov</pathurl>
							<rate>
								<timebase>30</timebase>
								<ntsc>TRUE</ntsc>
							</rate>
							<duration>432</duration>
							<timecode>
								<rate>
									<timebase>30</timebase>
									<ntsc>TRUE</ntsc>
								</rate>
								<string>00;00;00;00</string>
								<frame>0</frame>
								<displayformat>DF</displayformat>
							</timecode>
							<media>
								<video>
									<duration>18000</duration>
									<samplecharacteristics>
										<rate>
											<timebase>30</timebase>
											<ntsc>TRUE</ntsc>
										</rate>
										<width>1920</width>
										<height>1080</height>
										<anamorphic>FALSE</anamorphic>
										<pixelaspectratio>square</pixelaspectratio>
										<fielddominance>none</fielddominance>
									</samplecharacteristics>
								</video>
								<audio>
									<samplecharacteristics>
										<depth>16</depth>
										<samplerate>48000</samplerate>
									</samplecharacteristics>
									<channelcount>1</channelcount>
									<layout>mono</layout>
									<audiochannel>
										<sourcechannel>1</sourcechannel>
										<channellabel>discrete</channellabel>
									</audiochannel>
								</audio>
								<audio>
									<samplecharacteristics>
										<depth>16</depth>
										<samplerate>48000</samplerate>
									</samplecharacteristics>
									<channelcount>1</channelcount>
									<layout>mono</layout>
									<audiochannel>
										<sourcechannel>2</sourcechannel>
										<channellabel>discrete</channellabel>
									</audiochannel>
								</audio>
							</media>
						</file>
							<filter>
								<effect>
									<name>Basic Motion</name>
									<effectid>basic</effectid>
									<effectcategory>motion</effectcategory>
									<effecttype>motion</effecttype>
									<mediatype>video</mediatype>
									<parameter authoringApp="PremierePro">
										<parameterid>scale</parameterid>
										<name>Scale</name>
										<valuemin>0</valuemin>
										<valuemax>1000</valuemax>
										<value>124</value>
									</parameter>
									<parameter authoringApp="PremierePro">
										<parameterid>rotation</parameterid>
										<name>Rotation</name>
										<valuemin>-8640</valuemin>
										<valuemax>8640</valuemax>
										<value>0</value>
									</parameter>
									<parameter authoringApp="PremierePro">
										<parameterid>center</parameterid>
										<name>Center</name>
										<value>
											<horiz>0</horiz>
											<vert>0</vert>
										</value>
									</parameter>
									<parameter authoringApp="PremierePro">
										<parameterid>centerOffset</parameterid>
										<name>Anchor Point</name>
										<value>
											<horiz>0</horiz>
											<vert>0</vert>
										</value>
									</parameter>
								</effect>
							</filter>
							<filter>
								<effect>
									<name>Distort</name>
									<effectid>deformation</effectid>
									<effectcategory>motion</effectcategory>
									<effecttype>motion</effecttype>
									<mediatype>video</mediatype>
									<parameter authoringApp="PremierePro">
										<parameterid>aspect</parameterid>
										<name>Aspect</name>
										<valuemin>-10000</valuemin>
										<valuemax>10000</valuemax>
										<value>20.0004</value>
									</parameter>
								</effect>
							</filter>
					</clipitem>
					<clipitem id="clipitem-204" frameBlend="FALSE">
						<masterclipid>masterclip-47</masterclipid>
						<name>Hearts of darkness2</name>
						<enabled>TRUE</enabled>
						<duration>4970</duration>
						<rate>
							<ntsc>TRUE</ntsc>
							<timebase>30</timebase>
						</rate>
						<start>7055</start>
						<end>7135</end>
						<in>1437</in>
						<out>1517</out>
						<alphatype>none</alphatype>
						<file id="file-47"/>
							<filter>
								<effect>
									<name>Basic Motion</name>
									<effectid>basic</effectid>
									<effectcategory>motion</effectcategory>
									<effecttype>motion</effecttype>
									<mediatype>video</mediatype>
									<parameter authoringApp="PremierePro">
										<parameterid>scale</parameterid>
										<name>Scale</name>
										<valuemin>0</valuemin>
										<valuemax>1000</valuemax>
										<value>124</value>
									</parameter>
									<parameter authoringApp="PremierePro">
										<parameterid>rotation</parameterid>
										<name>Rotation</name>
										<valuemin>-8640</valuemin>
										<valuemax>8640</valuemax>
										<value>0</value>
									</parameter>
									<parameter authoringApp="PremierePro">
										<parameterid>center</parameterid>
										<name>Center</name>
										<value>
											<horiz>0</horiz>
											<vert>0</vert>
										</value>
									</parameter>
									<parameter authoringApp="PremierePro">
										<parameterid>centerOffset</parameterid>
										<name>Anchor Point</name>
										<value>
											<horiz>0</horiz>
											<vert>0</vert>
										</value>
									</parameter>
								</effect>
							</filter>
							<filter>
								<effect>
									<name>Distort</name>
									<effectid>deformation</effectid>
									<effectcategory>motion</effectcategory>
									<effecttype>motion</effecttype>
									<mediatype>video</mediatype>
									<parameter authoringApp="PremierePro">
										<parameterid>aspect</parameterid>
										<name>Aspect</name>
										<valuemin>-10000</valuemin>
										<valuemax>10000</valuemax>
										<value>20.0004</value>
									</parameter>
								</effect>
							</filter>
					</clipitem>
					<clipitem id="clipitem-205" frameBlend="FALSE">
						<masterclipid>masterclip-47</masterclipid>
						<name>Hearts of darkness2</name>
						<enabled>TRUE</enabled>
						<duration>4970</duration>
						<rate>
							<ntsc>TRUE</ntsc>
							<timebase>30</timebase>
						</rate>
						<start>7135</start>
						<end>7288</end>
						<in>3791</in>
						<out>3944</out>
						<alphatype>none</alphatype>
						<file id="file-47"/>
							<filter>
								<effect>
									<name>Basic Motion</name>
									<effectid>basic</effectid>
									<effectcategory>motion</effectcategory>
									<effecttype>motion</effecttype>
									<mediatype>video</mediatype>
									<parameter authoringApp="PremierePro">
										<parameterid>scale</parameterid>
										<name>Scale</name>
										<valuemin>0</valuemin>
										<valuemax>1000</valuemax>
										<value>124</value>
									</parameter>
									<parameter authoringApp="PremierePro">
										<parameterid>rotation</parameterid>
										<name>Rotation</name>
										<valuemin>-8640</valuemin>
										<valuemax>8640</valuemax>
										<value>0</value>
									</parameter>
									<parameter authoringApp="PremierePro">
										<parameterid>center</parameterid>
										<name>Center</name>
										<value>
											<horiz>0</horiz>
											<vert>0</vert>
										</value>
									</parameter>
									<parameter authoringApp="PremierePro">
										<parameterid>centerOffset</parameterid>
										<name>Anchor Point</name>
										<value>
											<horiz>0</horiz>
											<vert>0</vert>
										</value>
									</parameter>
								</effect>
							</filter>
							<filter>
								<effect>
									<name>Distort</name>
									<effectid>deformation</effectid>
									<effectcategory>motion</effectcategory>
									<effecttype>motion</effecttype>
									<mediatype>video</mediatype>
									<parameter authoringApp="PremierePro">
										<parameterid>aspect</parameterid>
										<name>Aspect</name>
										<valuemin>-10000</valuemin>
										<valuemax>10000</valuemax>
										<value>20.0004</value>
									</parameter>
								</effect>
							</filter>
							<filter>
								<effect>
									<name>Opacity</name>
									<effectid>opacity</effectid>
									<effectcategory>motion</effectcategory>
									<effecttype>motion</effecttype>
									<mediatype>video</mediatype>
									<parameter authoringApp="PremierePro">
										<parameterid>opacity</parameterid>
										<name>opacity</name>
										<valuemin>0</valuemin>
										<valuemax>100</valuemax>
										<value>100</value>
										<keyframe>
											<when>0</when>
											<value>100</value>
										</keyframe>
									</parameter>
								</effect>
							</filter>
					</clipitem>
					<clipitem id="clipitem-206" frameBlend="FALSE">
						<masterclipid>masterclip-47</masterclipid>
						<name>Hearts of darkness2</name>
						<enabled>TRUE</enabled>
						<duration>4970</duration>
						<rate>
							<ntsc>TRUE</ntsc>
							<timebase>30</timebase>
						</rate>
						<start>7288</start>
						<end>7355</end>
						<in>3526</in>
						<out>3593</out>
						<alphatype>none</alphatype>
						<file id="file-47"/>
							<filter>
								<effect>
									<name>Basic Motion</name>
									<effectid>basic</effectid>
									<effectcategory>motion</effectcategory>
									<effecttype>motion</effecttype>
									<mediatype>video</mediatype>
									<parameter authoringApp="PremierePro">
										<parameterid>scale</parameterid>
										<name>Scale</name>
										<valuemin>0</valuemin>
										<valuemax>1000</valuemax>
										<value>124</value>
									</parameter>
									<parameter authoringApp="PremierePro">
										<parameterid>rotation</parameterid>
										<name>Rotation</name>
										<valuemin>-8640</valuemin>
										<valuemax>8640</valuemax>
										<value>0</value>
									</parameter>
									<parameter authoringApp="PremierePro">
										<parameterid>center</parameterid>
										<name>Center</name>
										<value>
											<horiz>0</horiz>
											<vert>0</vert>
										</value>
									</parameter>
									<parameter authoringApp="PremierePro">
										<parameterid>centerOffset</parameterid>
										<name>Anchor Point</name>
										<value>
											<horiz>0</horiz>
											<vert>0</vert>
										</value>
									</parameter>
								</effect>
							</filter>
							<filter>
								<effect>
									<name>Distort</name>
									<effectid>deformation</effectid>
									<effectcategory>motion</effectcategory>
									<effecttype>motion</effecttype>
									<mediatype>video</mediatype>
									<parameter authoringApp="PremierePro">
										<parameterid>aspect</parameterid>
										<name>Aspect</name>
										<valuemin>-10000</valuemin>
										<valuemax>10000</valuemax>
										<value>20.0004</value>
									</parameter>
								</effect>
							</filter>
					</clipitem>
					<clipitem id="clipitem-207" frameBlend="FALSE">
						<masterclipid>masterclip-49</masterclipid>
						<name>filmb-heavensgate_1_1.mxf</name>
						<enabled>TRUE</enabled>
						<duration>15828</duration>
						<rate>
							<timebase>25</timebase>
							<ntsc>FALSE</ntsc>
						</rate>
						<start>7355</start>
						<end>7517</end>
						<in>1911</in>
						<out>2073</out>
						<alphatype>none</alphatype>
						<pixelaspectratio>square</pixelaspectratio>
						<anamorphic>FALSE</anamorphic>
						<file id="file-49">
							<name>filmb-heavensgate_1_1.mxf</name>
							<pathurl>file://localhost/Volumes/Scenen/Prosjekter/FILM/FILM%201413%20Stormannsgalskap/Filmrips/filmb-heavensgate_1_1.mxf</pathurl>
							<rate>
								<timebase>25</timebase>
								<ntsc>FALSE</ntsc>
							</rate>
							<duration>15828</duration>
							<timecode>
								<rate>
									<timebase>25</timebase>
									<ntsc>FALSE</ntsc>
								</rate>
								<string>00:02:15:15</string>
								<frame>3390</frame>
								<displayformat>NDF</displayformat>
							</timecode>
							<media>
								<video>
									<duration>18000</duration>
									<samplecharacteristics>
										<rate>
											<timebase>25</timebase>
											<ntsc>FALSE</ntsc>
										</rate>
										<width>1920</width>
										<height>1080</height>
										<anamorphic>FALSE</anamorphic>
										<pixelaspectratio>square</pixelaspectratio>
										<fielddominance>upper</fielddominance>
									</samplecharacteristics>
								</video>
								<audio>
									<samplecharacteristics>
										<depth>16</depth>
										<samplerate>48000</samplerate>
									</samplecharacteristics>
									<channelcount>2</channelcount>
								</audio>
							</media>
						</file>
					</clipitem>
					<clipitem id="clipitem-208" frameBlend="FALSE">
						<masterclipid>masterclip-50</masterclipid>
						<name>heavens_gate</name>
						<enabled>TRUE</enabled>
						<duration>10420</duration>
						<rate>
							<timebase>25</timebase>
							<ntsc>FALSE</ntsc>
						</rate>
						<start>7517</start>
						<end>-1</end>
						<in>8766</in>
						<out>9168</out>
						<alphatype>none</alphatype>
						<pixelaspectratio>square</pixelaspectratio>
						<anamorphic>FALSE</anamorphic>
						<file id="file-50">
							<name>heavens_gate.mov</name>
							<pathurl>file://localhost/Volumes/Scenen/Prosjekter/FILM/FILM%201413%20Stormannsgalskap/Filmrips/heavens_gate.mov</pathurl>
							<rate>
								<timebase>25</timebase>
								<ntsc>FALSE</ntsc>
							</rate>
							<duration>10420</duration>
							<timecode>
								<rate>
									<timebase>25</timebase>
									<ntsc>FALSE</ntsc>
								</rate>
								<string>00:27:02:05</string>
								<frame>40555</frame>
								<displayformat>NDF</displayformat>
							</timecode>
							<media>
								<video>
									<duration>18000</duration>
									<samplecharacteristics>
										<rate>
											<timebase>25</timebase>
											<ntsc>FALSE</ntsc>
										</rate>
										<width>1920</width>
										<height>1080</height>
										<anamorphic>FALSE</anamorphic>
										<pixelaspectratio>square</pixelaspectratio>
										<fielddominance>none</fielddominance>
									</samplecharacteristics>
								</video>
								<audio>
									<samplecharacteristics>
										<depth>16</depth>
										<samplerate>48000</samplerate>
									</samplecharacteristics>
									<channelcount>2</channelcount>
								</audio>
							</media>
						</file>
					</clipitem>
					<transitionitem>
						<start>7894</start>
						<end>7919</end>
						<alignment>center</alignment>
						<cutPoint>12</cutPoint>
						<rate>
							<timebase>25</timebase>
							<ntsc>FALSE</ntsc>
						</rate>
						<effect>
							<name>Dip to Color Dissolve</name>
							<effectid>Dip to Color Dissolve</effectid>
							<effectcategory>Dissolve</effectcategory>
							<effecttype>transition</effecttype>
							<mediatype>video</mediatype>
							<wipecode>0</wipecode>
							<wipeaccuracy>100</wipeaccuracy>
							<startratio>0</startratio>
							<endratio>1</endratio>
							<reverse>FALSE</reverse>
							<parameter authoringApp="PremierePro">
								<parameterid>dipcolor</parameterid>
								<name>Color</name>
								<value>
									<alpha>255</alpha>
									<red>0</red>
									<green>0</green>
									<blue>0</blue>
								</value>
							</parameter>
						</effect>
					</transitionitem>
					<clipitem id="clipitem-209" frameBlend="FALSE">
						<masterclipid>masterclip-51</masterclipid>
						<name>heavens_gate_bakomfilm_1</name>
						<enabled>TRUE</enabled>
						<duration>1765</duration>
						<rate>
							<timebase>25</timebase>
							<ntsc>FALSE</ntsc>
						</rate>
						<start>-1</start>
						<end>7965</end>
						<in>63</in>
						<out>134</out>
						<alphatype>none</alphatype>
						<pixelaspectratio>square</pixelaspectratio>
						<anamorphic>FALSE</anamorphic>
						<file id="file-51">
							<name>heavens_gate_bakomfilm_1.mov</name>
							<pathurl>file://localhost/Volumes/Scenen/Utveksling/FILM/DVD%20rip%20og%20EPK/Heaven's%20Gate/heavens_gate_bakomfilm_1.mov</pathurl>
							<rate>
								<timebase>25</timebase>
								<ntsc>FALSE</ntsc>
							</rate>
							<duration>1765</duration>
							<timecode>
								<rate>
									<timebase>25</timebase>
									<ntsc>FALSE</ntsc>
								</rate>
								<string>00:00:57:21</string>
								<frame>1446</frame>
								<displayformat>NDF</displayformat>
							</timecode>
							<media>
								<video>
									<duration>18000</duration>
									<samplecharacteristics>
										<rate>
											<timebase>25</timebase>
											<ntsc>FALSE</ntsc>
										</rate>
										<width>1920</width>
										<height>1080</height>
										<anamorphic>FALSE</anamorphic>
										<pixelaspectratio>square</pixelaspectratio>
										<fielddominance>none</fielddominance>
									</samplecharacteristics>
								</video>
								<audio>
									<samplecharacteristics>
										<depth>16</depth>
										<samplerate>48000</samplerate>
									</samplecharacteristics>
									<channelcount>2</channelcount>
								</audio>
							</media>
						</file>
					</clipitem>
					<clipitem id="clipitem-210" frameBlend="FALSE">
						<masterclipid>masterclip-52</masterclipid>
						<name>heavens_gate_bakomfilm_3</name>
						<enabled>TRUE</enabled>
						<duration>3196</duration>
						<rate>
							<timebase>25</timebase>
							<ntsc>FALSE</ntsc>
						</rate>
						<start>7965</start>
						<end>8041</end>
						<in>1123</in>
						<out>1199</out>
						<alphatype>none</alphatype>
						<pixelaspectratio>square</pixelaspectratio>
						<anamorphic>FALSE</anamorphic>
						<file id="file-52">
							<name>heavens_gate_bakomfilm_3.mov</name>
							<pathurl>file://localhost/Volumes/Scenen/Utveksling/FILM/DVD%20rip%20og%20EPK/Heaven's%20Gate/heavens_gate_bakomfilm_3.mov</pathurl>
							<rate>
								<timebase>25</timebase>
								<ntsc>FALSE</ntsc>
							</rate>
							<duration>3196</duration>
							<timecode>
								<rate>
									<timebase>25</timebase>
									<ntsc>FALSE</ntsc>
								</rate>
								<string>00:15:50:23</string>
								<frame>23773</frame>
								<displayformat>NDF</displayformat>
							</timecode>
							<media>
								<video>
									<duration>18000</duration>
									<samplecharacteristics>
										<rate>
											<timebase>25</timebase>
											<ntsc>FALSE</ntsc>
										</rate>
										<width>1920</width>
										<height>1080</height>
										<anamorphic>FALSE</anamorphic>
										<pixelaspectratio>square</pixelaspectratio>
										<fielddominance>none</fielddominance>
									</samplecharacteristics>
								</video>
								<audio>
									<samplecharacteristics>
										<depth>16</depth>
										<samplerate>48000</samplerate>
									</samplecharacteristics>
									<channelcount>2</channelcount>
								</audio>
							</media>
						</file>
							<filter>
								<effect>
									<name>Basic Motion</name>
									<effectid>basic</effectid>
									<effectcategory>motion</effectcategory>
									<effecttype>motion</effecttype>
									<mediatype>video</mediatype>
									<parameter authoringApp="PremierePro">
										<parameterid>scale</parameterid>
										<name>Scale</name>
										<valuemin>0</valuemin>
										<valuemax>1000</valuemax>
										<value>133</value>
										<keyframe>
											<when>1125</when>
											<value>121</value>
										</keyframe>
										<keyframe>
											<when>1195</when>
											<value>133</value>
										</keyframe>
									</parameter>
									<parameter authoringApp="PremierePro">
										<parameterid>rotation</parameterid>
										<name>Rotation</name>
										<valuemin>-8640</valuemin>
										<valuemax>8640</valuemax>
										<value>0</value>
									</parameter>
									<parameter authoringApp="PremierePro">
										<parameterid>center</parameterid>
										<name>Center</name>
										<value>
											<horiz>0.363021</horiz>
											<vert>-0.0481482</vert>
										</value>
									</parameter>
									<parameter authoringApp="PremierePro">
										<parameterid>centerOffset</parameterid>
										<name>Anchor Point</name>
										<value>
											<horiz>0.297917</horiz>
											<vert>-0.0722222</vert>
										</value>
									</parameter>
								</effect>
							</filter>
					</clipitem>
					<clipitem id="clipitem-211" frameBlend="FALSE">
						<masterclipid>masterclip-53</masterclipid>
						<name>heavens_gate_hest_sklir</name>
						<enabled>TRUE</enabled>
						<duration>1710</duration>
						<rate>
							<timebase>25</timebase>
							<ntsc>FALSE</ntsc>
						</rate>
						<start>8041</start>
						<end>8080</end>
						<in>1167</in>
						<out>1206</out>
						<alphatype>none</alphatype>
						<pixelaspectratio>square</pixelaspectratio>
						<anamorphic>FALSE</anamorphic>
						<file id="file-53">
							<name>heavens_gate_hest_sklir.mov</name>
							<pathurl>file://localhost/Volumes/Scenen/Utveksling/FILM/DVD%20rip%20og%20EPK/Heaven's%20Gate/heavens_gate_hest_sklir.mov</pathurl>
							<rate>
								<timebase>25</timebase>
								<ntsc>FALSE</ntsc>
							</rate>
							<duration>1710</duration>
							<timecode>
								<rate>
									<timebase>25</timebase>
									<ntsc>FALSE</ntsc>
								</rate>
								<string>02:06:13:23</string>
								<frame>189348</frame>
								<displayformat>NDF</displayformat>
							</timecode>
							<media>
								<video>
									<duration>18000</duration>
									<samplecharacteristics>
										<rate>
											<timebase>25</timebase>
											<ntsc>FALSE</ntsc>
										</rate>
										<width>1920</width>
										<height>1080</height>
										<anamorphic>FALSE</anamorphic>
										<pixelaspectratio>square</pixelaspectratio>
										<fielddominance>none</fielddominance>
									</samplecharacteristics>
								</video>
								<audio>
									<samplecharacteristics>
										<depth>16</depth>
										<samplerate>48000</samplerate>
									</samplecharacteristics>
									<channelcount>2</channelcount>
								</audio>
							</media>
						</file>
					</clipitem>
					<clipitem id="clipitem-212" frameBlend="FALSE">
						<masterclipid>masterclip-54</masterclipid>
						<name>heavens_gate_hest_skutt</name>
						<enabled>TRUE</enabled>
						<duration>1972</duration>
						<rate>
							<timebase>25</timebase>
							<ntsc>FALSE</ntsc>
						</rate>
						<start>8080</start>
						<end>8106</end>
						<in>982</in>
						<out>1008</out>
						<alphatype>none</alphatype>
						<pixelaspectratio>square</pixelaspectratio>
						<anamorphic>FALSE</anamorphic>
						<file id="file-54">
							<name>heavens_gate_hest_skutt.mov</name>
							<pathurl>file://localhost/Volumes/Scenen/Utveksling/FILM/DVD%20rip%20og%20EPK/Heaven's%20Gate/heavens_gate_hest_skutt.mov</pathurl>
							<rate>
								<timebase>25</timebase>
								<ntsc>FALSE</ntsc>
							</rate>
							<duration>1972</duration>
							<timecode>
								<rate>
									<timebase>25</timebase>
									<ntsc>FALSE</ntsc>
								</rate>
								<string>02:09:03:08</string>
								<frame>193583</frame>
								<displayformat>NDF</displayformat>
							</timecode>
							<media>
								<video>
									<duration>18000</duration>
									<samplecharacteristics>
										<rate>
											<timebase>25</timebase>
											<ntsc>FALSE</ntsc>
										</rate>
										<width>1920</width>
										<height>1080</height>
										<anamorphic>FALSE</anamorphic>
										<pixelaspectratio>square</pixelaspectratio>
										<fielddominance>none</fielddominance>
									</samplecharacteristics>
								</video>
								<audio>
									<samplecharacteristics>
										<depth>16</depth>
										<samplerate>48000</samplerate>
									</samplecharacteristics>
									<channelcount>2</channelcount>
								</audio>
							</media>
						</file>
					</clipitem>
					<clipitem id="clipitem-213" frameBlend="FALSE">
						<masterclipid>masterclip-55</masterclipid>
						<name>heavens_gate_willem_dafoe</name>
						<enabled>TRUE</enabled>
						<duration>2291</duration>
						<rate>
							<timebase>25</timebase>
							<ntsc>FALSE</ntsc>
						</rate>
						<start>8106</start>
						<end>8134</end>
						<in>907</in>
						<out>935</out>
						<alphatype>none</alphatype>
						<pixelaspectratio>square</pixelaspectratio>
						<anamorphic>FALSE</anamorphic>
						<file id="file-55">
							<name>heavens_gate_willem_dafoe.mov</name>
							<pathurl>file://localhost/Volumes/Scenen/Utveksling/FILM/DVD%20rip%20og%20EPK/Heaven's%20Gate/heavens_gate_willem_dafoe.mov</pathurl>
							<rate>
								<timebase>25</timebase>
								<ntsc>FALSE</ntsc>
							</rate>
							<duration>2291</duration>
							<timecode>
								<rate>
									<timebase>25</timebase>
									<ntsc>FALSE</ntsc>
								</rate>
								<string>00:58:56:09</string>
								<frame>88409</frame>
								<displayformat>NDF</displayformat>
							</timecode>
							<media>
								<video>
									<duration>18000</duration>
									<samplecharacteristics>
										<rate>
											<timebase>25</timebase>
											<ntsc>FALSE</ntsc>
										</rate>
										<width>1920</width>
										<height>1080</height>
										<anamorphic>FALSE</anamorphic>
										<pixelaspectratio>square</pixelaspectratio>
										<fielddominance>none</fielddominance>
									</samplecharacteristics>
								</video>
								<audio>
									<samplecharacteristics>
										<depth>16</depth>
										<samplerate>48000</samplerate>
									</samplecharacteristics>
									<channelcount>2</channelcount>
								</audio>
							</media>
						</file>
					</clipitem>
					<clipitem id="clipitem-214" frameBlend="FALSE">
						<masterclipid>masterclip-55</masterclipid>
						<name>heavens_gate_willem_dafoe</name>
						<enabled>TRUE</enabled>
						<duration>2291</duration>
						<rate>
							<ntsc>TRUE</ntsc>
							<timebase>30</timebase>
						</rate>
						<start>8134</start>
						<end>8513</end>
						<in>1340</in>
						<out>1719</out>
						<alphatype>none</alphatype>
						<file id="file-55"/>
					</clipitem>
					<clipitem id="clipitem-215" frameBlend="FALSE">
						<masterclipid>masterclip-56</masterclipid>
						<name>abyss</name>
						<enabled>TRUE</enabled>
						<duration>2922</duration>
						<rate>
							<timebase>25</timebase>
							<ntsc>FALSE</ntsc>
						</rate>
						<start>8513</start>
						<end>8826</end>
						<in>684</in>
						<out>997</out>
						<alphatype>none</alphatype>
						<pixelaspectratio>PAL-601</pixelaspectratio>
						<anamorphic>FALSE</anamorphic>
						<file id="file-56">
							<name>abyss.mov</name>
							<pathurl>file://localhost/Volumes/Scenen/Prosjekter/FILM/FILM%201413%20Stormannsgalskap/Filmrips/abyss.mov</pathurl>
							<rate>
								<timebase>25</timebase>
								<ntsc>FALSE</ntsc>
							</rate>
							<duration>2922</duration>
							<timecode>
								<rate>
									<timebase>25</timebase>
									<ntsc>FALSE</ntsc>
								</rate>
								<string>00:00:00:00</string>
								<frame>0</frame>
								<displayformat>NDF</displayformat>
							</timecode>
							<media>
								<video>
									<duration>18000</duration>
									<samplecharacteristics>
										<rate>
											<timebase>25</timebase>
											<ntsc>FALSE</ntsc>
										</rate>
										<width>720</width>
										<height>576</height>
										<anamorphic>FALSE</anamorphic>
										<pixelaspectratio>PAL-601</pixelaspectratio>
										<fielddominance>upper</fielddominance>
									</samplecharacteristics>
								</video>
								<audio>
									<samplecharacteristics>
										<depth>16</depth>
										<samplerate>48000</samplerate>
									</samplecharacteristics>
									<channelcount>2</channelcount>
								</audio>
							</media>
						</file>
							<filter>
								<effect>
									<name>Basic Motion</name>
									<effectid>basic</effectid>
									<effectcategory>motion</effectcategory>
									<effecttype>motion</effecttype>
									<mediatype>video</mediatype>
									<parameter authoringApp="PremierePro">
										<parameterid>scale</parameterid>
										<name>Scale</name>
										<valuemin>0</valuemin>
										<valuemax>1000</valuemax>
										<value>246.797</value>
									</parameter>
									<parameter authoringApp="PremierePro">
										<parameterid>rotation</parameterid>
										<name>Rotation</name>
										<valuemin>-8640</valuemin>
										<valuemax>8640</valuemax>
										<value>0</value>
									</parameter>
									<parameter authoringApp="PremierePro">
										<parameterid>center</parameterid>
										<name>Center</name>
										<value>
											<horiz>0</horiz>
											<vert>0</vert>
										</value>
									</parameter>
									<parameter authoringApp="PremierePro">
										<parameterid>centerOffset</parameterid>
										<name>Anchor Point</name>
										<value>
											<horiz>0</horiz>
											<vert>0</vert>
										</value>
									</parameter>
								</effect>
							</filter>
							<filter>
								<effect>
									<name>Opacity</name>
									<effectid>opacity</effectid>
									<effectcategory>motion</effectcategory>
									<effecttype>motion</effecttype>
									<mediatype>video</mediatype>
									<parameter authoringApp="PremierePro">
										<parameterid>opacity</parameterid>
										<name>opacity</name>
										<valuemin>0</valuemin>
										<valuemax>100</valuemax>
										<value>100</value>
										<keyframe>
											<when>0</when>
											<value>100</value>
										</keyframe>
									</parameter>
								</effect>
							</filter>
							<filter>
								<effect>
									<name>Distort</name>
									<effectid>deformation</effectid>
									<effectcategory>motion</effectcategory>
									<effecttype>motion</effecttype>
									<mediatype>video</mediatype>
									<parameter authoringApp="PremierePro">
										<parameterid>aspect</parameterid>
										<name>Aspect</name>
										<valuemin>-10000</valuemin>
										<valuemax>10000</valuemax>
										<value>-9.40171</value>
									</parameter>
								</effect>
							</filter>
					</clipitem>
					<clipitem id="clipitem-216" frameBlend="FALSE">
						<masterclipid>masterclip-57</masterclipid>
						<name>making_the_abyss</name>
						<enabled>TRUE</enabled>
						<duration>89425</duration>
						<rate>
							<timebase>25</timebase>
							<ntsc>FALSE</ntsc>
						</rate>
						<start>8826</start>
						<end>8944</end>
						<in>21271</in>
						<out>21389</out>
						<alphatype>none</alphatype>
						<pixelaspectratio>PAL-601</pixelaspectratio>
						<anamorphic>FALSE</anamorphic>
						<file id="file-57">
							<name>making_the_abyss.mov</name>
							<pathurl>file://localhost/Volumes/Scenen/Utveksling/FILM/DVD%20rip%20og%20EPK/Abyss/making_the_abyss.mov</pathurl>
							<rate>
								<timebase>25</timebase>
								<ntsc>FALSE</ntsc>
							</rate>
							<duration>89425</duration>
							<timecode>
								<rate>
									<timebase>25</timebase>
									<ntsc>FALSE</ntsc>
								</rate>
								<string>00:00:00:00</string>
								<frame>0</frame>
								<displayformat>NDF</displayformat>
							</timecode>
							<media>
								<video>
									<duration>18000</duration>
									<samplecharacteristics>
										<rate>
											<timebase>25</timebase>
											<ntsc>FALSE</ntsc>
										</rate>
										<width>720</width>
										<height>576</height>
										<anamorphic>FALSE</anamorphic>
										<pixelaspectratio>PAL-601</pixelaspectratio>
										<fielddominance>upper</fielddominance>
									</samplecharacteristics>
								</video>
								<audio>
									<samplecharacteristics>
										<depth>16</depth>
										<samplerate>48000</samplerate>
									</samplecharacteristics>
									<channelcount>1</channelcount>
									<layout>mono</layout>
									<audiochannel>
										<sourcechannel>1</sourcechannel>
										<channellabel>discrete</channellabel>
									</audiochannel>
								</audio>
								<audio>
									<samplecharacteristics>
										<depth>16</depth>
										<samplerate>48000</samplerate>
									</samplecharacteristics>
									<channelcount>1</channelcount>
									<layout>mono</layout>
									<audiochannel>
										<sourcechannel>2</sourcechannel>
										<channellabel>discrete</channellabel>
									</audiochannel>
								</audio>
							</media>
						</file>
							<filter>
								<effect>
									<name>Basic Motion</name>
									<effectid>basic</effectid>
									<effectcategory>motion</effectcategory>
									<effecttype>motion</effecttype>
									<mediatype>video</mediatype>
									<parameter authoringApp="PremierePro">
										<parameterid>scale</parameterid>
										<name>Scale</name>
										<valuemin>0</valuemin>
										<valuemax>1000</valuemax>
										<value>182.812</value>
									</parameter>
									<parameter authoringApp="PremierePro">
										<parameterid>rotation</parameterid>
										<name>Rotation</name>
										<valuemin>-8640</valuemin>
										<valuemax>8640</valuemax>
										<value>0</value>
									</parameter>
									<parameter authoringApp="PremierePro">
										<parameterid>center</parameterid>
										<name>Center</name>
										<value>
											<horiz>0</horiz>
											<vert>0</vert>
										</value>
									</parameter>
									<parameter authoringApp="PremierePro">
										<parameterid>centerOffset</parameterid>
										<name>Anchor Point</name>
										<value>
											<horiz>0</horiz>
											<vert>0</vert>
										</value>
									</parameter>
								</effect>
							</filter>
							<filter>
								<effect>
									<name>Opacity</name>
									<effectid>opacity</effectid>
									<effectcategory>motion</effectcategory>
									<effecttype>motion</effecttype>
									<mediatype>video</mediatype>
									<parameter authoringApp="PremierePro">
										<parameterid>opacity</parameterid>
										<name>opacity</name>
										<valuemin>0</valuemin>
										<valuemax>100</valuemax>
										<value>100</value>
										<keyframe>
											<when>0</when>
											<value>100</value>
										</keyframe>
									</parameter>
								</effect>
							</filter>
							<filter>
								<effect>
									<name>Distort</name>
									<effectid>deformation</effectid>
									<effectcategory>motion</effectcategory>
									<effecttype>motion</effecttype>
									<mediatype>video</mediatype>
									<parameter authoringApp="PremierePro">
										<parameterid>aspect</parameterid>
										<name>Aspect</name>
										<valuemin>-10000</valuemin>
										<valuemax>10000</valuemax>
										<value>-9.40171</value>
									</parameter>
								</effect>
							</filter>
					</clipitem>
					<clipitem id="clipitem-217" frameBlend="FALSE">
						<masterclipid>masterclip-57</masterclipid>
						<name>making_the_abyss</name>
						<enabled>TRUE</enabled>
						<duration>178850</duration>
						<rate>
							<ntsc>TRUE</ntsc>
							<timebase>30</timebase>
						</rate>
						<start>8944</start>
						<end>9096</end>
						<in>42778</in>
						<out>42930</out>
						<alphatype>none</alphatype>
						<file id="file-57"/>
							<filter>
								<effect>
									<name>Basic Motion</name>
									<effectid>basic</effectid>
									<effectcategory>motion</effectcategory>
									<effecttype>motion</effecttype>
									<mediatype>video</mediatype>
									<parameter authoringApp="PremierePro">
										<parameterid>scale</parameterid>
										<name>Scale</name>
										<valuemin>0</valuemin>
										<valuemax>1000</valuemax>
										<value>182.812</value>
									</parameter>
									<parameter authoringApp="PremierePro">
										<parameterid>rotation</parameterid>
										<name>Rotation</name>
										<valuemin>-8640</valuemin>
										<valuemax>8640</valuemax>
										<value>0</value>
									</parameter>
									<parameter authoringApp="PremierePro">
										<parameterid>center</parameterid>
										<name>Center</name>
										<value>
											<horiz>0</horiz>
											<vert>0</vert>
										</value>
									</parameter>
									<parameter authoringApp="PremierePro">
										<parameterid>centerOffset</parameterid>
										<name>Anchor Point</name>
										<value>
											<horiz>0</horiz>
											<vert>0</vert>
										</value>
									</parameter>
								</effect>
							</filter>
							<filter>
								<effect>
									<name>Opacity</name>
									<effectid>opacity</effectid>
									<effectcategory>motion</effectcategory>
									<effecttype>motion</effecttype>
									<mediatype>video</mediatype>
									<parameter authoringApp="PremierePro">
										<parameterid>opacity</parameterid>
										<name>opacity</name>
										<valuemin>0</valuemin>
										<valuemax>100</valuemax>
										<value>100</value>
										<keyframe>
											<when>0</when>
											<value>100</value>
										</keyframe>
									</parameter>
								</effect>
							</filter>
							<filter>
								<effect>
									<name>Time Remap</name>
									<effectid>timeremap</effectid>
									<effectcategory>motion</effectcategory>
									<effecttype>motion</effecttype>
									<mediatype>video</mediatype>
									<parameter authoringApp="PremierePro">
										<parameterid>variablespeed</parameterid>
										<name>variablespeed</name>
										<valuemin>0</valuemin>
										<valuemax>1</valuemax>
										<value>0</value>
									</parameter>
									<parameter authoringApp="PremierePro">
										<parameterid>mappedduration</parameterid>
										<name>mappedduration</name>
										<value>
											<timecode>
												<rate>
													<timebase>0</timebase>
												</rate>
												<string>0</string>
												<frame>0</frame>
												<displayformat>NDF</displayformat>
											</timecode>
										</value>
									</parameter>
									<parameter authoringApp="PremierePro">
										<parameterid>speed</parameterid>
										<name>speed</name>
										<valuemin>-100000</valuemin>
										<valuemax>100000</valuemax>
										<value>50</value>
									</parameter>
									<parameter authoringApp="PremierePro">
										<parameterid>reverse</parameterid>
										<name>reverse</name>
										<value>FALSE</value>
									</parameter>
									<parameter authoringApp="PremierePro">
										<parameterid>frameblending</parameterid>
										<name>frameblending</name>
										<value>FALSE</value>
									</parameter>
								</effect>
							</filter>
							<filter>
								<effect>
									<name>Distort</name>
									<effectid>deformation</effectid>
									<effectcategory>motion</effectcategory>
									<effecttype>motion</effecttype>
									<mediatype>video</mediatype>
									<parameter authoringApp="PremierePro">
										<parameterid>aspect</parameterid>
										<name>Aspect</name>
										<valuemin>-10000</valuemin>
										<valuemax>10000</valuemax>
										<value>-9.40171</value>
									</parameter>
								</effect>
							</filter>
					</clipitem>
					<clipitem id="clipitem-218" frameBlend="FALSE">
						<masterclipid>masterclip-57</masterclipid>
						<name>making_the_abyss</name>
						<enabled>TRUE</enabled>
						<duration>89425</duration>
						<rate>
							<ntsc>TRUE</ntsc>
							<timebase>30</timebase>
						</rate>
						<start>9096</start>
						<end>9169</end>
						<in>58609</in>
						<out>58682</out>
						<alphatype>none</alphatype>
						<file id="file-57"/>
							<filter>
								<effect>
									<name>Basic Motion</name>
									<effectid>basic</effectid>
									<effectcategory>motion</effectcategory>
									<effecttype>motion</effecttype>
									<mediatype>video</mediatype>
									<parameter authoringApp="PremierePro">
										<parameterid>scale</parameterid>
										<name>Scale</name>
										<valuemin>0</valuemin>
										<valuemax>1000</valuemax>
										<value>182.812</value>
									</parameter>
									<parameter authoringApp="PremierePro">
										<parameterid>rotation</parameterid>
										<name>Rotation</name>
										<valuemin>-8640</valuemin>
										<valuemax>8640</valuemax>
										<value>0</value>
									</parameter>
									<parameter authoringApp="PremierePro">
										<parameterid>center</parameterid>
										<name>Center</name>
										<value>
											<horiz>0</horiz>
											<vert>0</vert>
										</value>
									</parameter>
									<parameter authoringApp="PremierePro">
										<parameterid>centerOffset</parameterid>
										<name>Anchor Point</name>
										<value>
											<horiz>0</horiz>
											<vert>0</vert>
										</value>
									</parameter>
								</effect>
							</filter>
							<filter>
								<effect>
									<name>Distort</name>
									<effectid>deformation</effectid>
									<effectcategory>motion</effectcategory>
									<effecttype>motion</effecttype>
									<mediatype>video</mediatype>
									<parameter authoringApp="PremierePro">
										<parameterid>aspect</parameterid>
										<name>Aspect</name>
										<valuemin>-10000</valuemin>
										<valuemax>10000</valuemax>
										<value>-9.40171</value>
									</parameter>
								</effect>
							</filter>
					</clipitem>
					<clipitem id="clipitem-219" frameBlend="FALSE">
						<masterclipid>masterclip-57</masterclipid>
						<name>making_the_abyss</name>
						<enabled>TRUE</enabled>
						<duration>89425</duration>
						<rate>
							<ntsc>TRUE</ntsc>
							<timebase>30</timebase>
						</rate>
						<start>9169</start>
						<end>9269</end>
						<in>17312</in>
						<out>17412</out>
						<alphatype>none</alphatype>
						<file id="file-57"/>
							<filter>
								<effect>
									<name>Basic Motion</name>
									<effectid>basic</effectid>
									<effectcategory>motion</effectcategory>
									<effecttype>motion</effecttype>
									<mediatype>video</mediatype>
									<parameter authoringApp="PremierePro">
										<parameterid>scale</parameterid>
										<name>Scale</name>
										<valuemin>0</valuemin>
										<valuemax>1000</valuemax>
										<value>182.812</value>
									</parameter>
									<parameter authoringApp="PremierePro">
										<parameterid>rotation</parameterid>
										<name>Rotation</name>
										<valuemin>-8640</valuemin>
										<valuemax>8640</valuemax>
										<value>0</value>
									</parameter>
									<parameter authoringApp="PremierePro">
										<parameterid>center</parameterid>
										<name>Center</name>
										<value>
											<horiz>0</horiz>
											<vert>0</vert>
										</value>
									</parameter>
									<parameter authoringApp="PremierePro">
										<parameterid>centerOffset</parameterid>
										<name>Anchor Point</name>
										<value>
											<horiz>0</horiz>
											<vert>0</vert>
										</value>
									</parameter>
								</effect>
							</filter>
							<filter>
								<effect>
									<name>Distort</name>
									<effectid>deformation</effectid>
									<effectcategory>motion</effectcategory>
									<effecttype>motion</effecttype>
									<mediatype>video</mediatype>
									<parameter authoringApp="PremierePro">
										<parameterid>aspect</parameterid>
										<name>Aspect</name>
										<valuemin>-10000</valuemin>
										<valuemax>10000</valuemax>
										<value>-9.40171</value>
									</parameter>
								</effect>
							</filter>
					</clipitem>
					<clipitem id="clipitem-220" frameBlend="FALSE">
						<masterclipid>masterclip-57</masterclipid>
						<name>making_the_abyss</name>
						<enabled>TRUE</enabled>
						<duration>89425</duration>
						<rate>
							<ntsc>TRUE</ntsc>
							<timebase>30</timebase>
						</rate>
						<start>9269</start>
						<end>9276</end>
						<in>17413</in>
						<out>17420</out>
						<alphatype>none</alphatype>
						<file id="file-57"/>
							<filter>
								<effect>
									<name>Basic Motion</name>
									<effectid>basic</effectid>
									<effectcategory>motion</effectcategory>
									<effecttype>motion</effecttype>
									<mediatype>video</mediatype>
									<parameter authoringApp="PremierePro">
										<parameterid>scale</parameterid>
										<name>Scale</name>
										<valuemin>0</valuemin>
										<valuemax>1000</valuemax>
										<value>182.812</value>
									</parameter>
									<parameter authoringApp="PremierePro">
										<parameterid>rotation</parameterid>
										<name>Rotation</name>
										<valuemin>-8640</valuemin>
										<valuemax>8640</valuemax>
										<value>0</value>
									</parameter>
									<parameter authoringApp="PremierePro">
										<parameterid>center</parameterid>
										<name>Center</name>
										<value>
											<horiz>0</horiz>
											<vert>0</vert>
										</value>
									</parameter>
									<parameter authoringApp="PremierePro">
										<parameterid>centerOffset</parameterid>
										<name>Anchor Point</name>
										<value>
											<horiz>0</horiz>
											<vert>0</vert>
										</value>
									</parameter>
								</effect>
							</filter>
							<filter>
								<effect>
									<name>Distort</name>
									<effectid>deformation</effectid>
									<effectcategory>motion</effectcategory>
									<effecttype>motion</effecttype>
									<mediatype>video</mediatype>
									<parameter authoringApp="PremierePro">
										<parameterid>aspect</parameterid>
										<name>Aspect</name>
										<valuemin>-10000</valuemin>
										<valuemax>10000</valuemax>
										<value>-9.40171</value>
									</parameter>
								</effect>
							</filter>
					</clipitem>
					<clipitem id="clipitem-221" frameBlend="FALSE">
						<masterclipid>masterclip-57</masterclipid>
						<name>making_the_abyss</name>
						<enabled>TRUE</enabled>
						<duration>89425</duration>
						<rate>
							<ntsc>TRUE</ntsc>
							<timebase>30</timebase>
						</rate>
						<start>9276</start>
						<end>-1</end>
						<in>58911</in>
						<out>59008</out>
						<alphatype>none</alphatype>
						<file id="file-57"/>
							<filter>
								<effect>
									<name>Basic Motion</name>
									<effectid>basic</effectid>
									<effectcategory>motion</effectcategory>
									<effecttype>motion</effecttype>
									<mediatype>video</mediatype>
									<parameter authoringApp="PremierePro">
										<parameterid>scale</parameterid>
										<name>Scale</name>
										<valuemin>0</valuemin>
										<valuemax>1000</valuemax>
										<value>182.812</value>
									</parameter>
									<parameter authoringApp="PremierePro">
										<parameterid>rotation</parameterid>
										<name>Rotation</name>
										<valuemin>-8640</valuemin>
										<valuemax>8640</valuemax>
										<value>0</value>
									</parameter>
									<parameter authoringApp="PremierePro">
										<parameterid>center</parameterid>
										<name>Center</name>
										<value>
											<horiz>0</horiz>
											<vert>0</vert>
										</value>
									</parameter>
									<parameter authoringApp="PremierePro">
										<parameterid>centerOffset</parameterid>
										<name>Anchor Point</name>
										<value>
											<horiz>0</horiz>
											<vert>0</vert>
										</value>
									</parameter>
								</effect>
							</filter>
							<filter>
								<effect>
									<name>Distort</name>
									<effectid>deformation</effectid>
									<effectcategory>motion</effectcategory>
									<effecttype>motion</effecttype>
									<mediatype>video</mediatype>
									<parameter authoringApp="PremierePro">
										<parameterid>aspect</parameterid>
										<name>Aspect</name>
										<valuemin>-10000</valuemin>
										<valuemax>10000</valuemax>
										<value>-9.40171</value>
									</parameter>
								</effect>
							</filter>
					</clipitem>
					<transitionitem>
						<start>9356</start>
						<end>9373</end>
						<alignment>center</alignment>
						<cutPoint>8</cutPoint>
						<rate>
							<timebase>25</timebase>
							<ntsc>FALSE</ntsc>
						</rate>
						<effect>
							<name>Cross Dissolve</name>
							<effectid>Cross Dissolve</effectid>
							<effectcategory>Dissolve</effectcategory>
							<effecttype>transition</effecttype>
							<mediatype>video</mediatype>
							<wipecode>0</wipecode>
							<wipeaccuracy>100</wipeaccuracy>
							<startratio>0</startratio>
							<endratio>1</endratio>
							<reverse>FALSE</reverse>
						</effect>
					</transitionitem>
					<clipitem id="clipitem-222" frameBlend="FALSE">
						<masterclipid>masterclip-57</masterclipid>
						<name>making_the_abyss</name>
						<enabled>TRUE</enabled>
						<duration>89425</duration>
						<rate>
							<ntsc>TRUE</ntsc>
							<timebase>30</timebase>
						</rate>
						<start>-1</start>
						<end>9427</end>
						<in>58991</in>
						<out>59062</out>
						<alphatype>none</alphatype>
						<file id="file-57"/>
							<filter>
								<effect>
									<name>Basic Motion</name>
									<effectid>basic</effectid>
									<effectcategory>motion</effectcategory>
									<effecttype>motion</effecttype>
									<mediatype>video</mediatype>
									<parameter authoringApp="PremierePro">
										<parameterid>scale</parameterid>
										<name>Scale</name>
										<valuemin>0</valuemin>
										<valuemax>1000</valuemax>
										<value>182.812</value>
									</parameter>
									<parameter authoringApp="PremierePro">
										<parameterid>rotation</parameterid>
										<name>Rotation</name>
										<valuemin>-8640</valuemin>
										<valuemax>8640</valuemax>
										<value>0</value>
									</parameter>
									<parameter authoringApp="PremierePro">
										<parameterid>center</parameterid>
										<name>Center</name>
										<value>
											<horiz>0</horiz>
											<vert>0</vert>
										</value>
									</parameter>
									<parameter authoringApp="PremierePro">
										<parameterid>centerOffset</parameterid>
										<name>Anchor Point</name>
										<value>
											<horiz>0</horiz>
											<vert>0</vert>
										</value>
									</parameter>
								</effect>
							</filter>
							<filter>
								<effect>
									<name>Gaussian Blur</name>
									<effectid>Gaussian Blur</effectid>
									<effectcategory>Blur</effectcategory>
									<effecttype>motion</effecttype>
									<mediatype>video</mediatype>
									<parameter authoringApp="PremierePro">
										<parameterid>radius</parameterid>
										<name>Radius</name>
										<valuemin>0</valuemin>
										<valuemax>100</valuemax>
										<value>0</value>
									</parameter>
								</effect>
							</filter>
							<filter>
								<effect>
									<name>Distort</name>
									<effectid>deformation</effectid>
									<effectcategory>motion</effectcategory>
									<effecttype>motion</effecttype>
									<mediatype>video</mediatype>
									<parameter authoringApp="PremierePro">
										<parameterid>aspect</parameterid>
										<name>Aspect</name>
										<valuemin>-10000</valuemin>
										<valuemax>10000</valuemax>
										<value>-9.40171</value>
									</parameter>
								</effect>
							</filter>
					</clipitem>
					<clipitem id="clipitem-223" frameBlend="FALSE">
						<masterclipid>masterclip-58</masterclipid>
						<name>filmb-terminator_p0</name>
						<enabled>FALSE</enabled>
						<duration>5341</duration>
						<rate>
							<timebase>25</timebase>
							<ntsc>FALSE</ntsc>
						</rate>
						<start>9568</start>
						<end>-1</end>
						<in>3081</in>
						<out>3158</out>
						<alphatype>none</alphatype>
						<pixelaspectratio>PAL-601</pixelaspectratio>
						<anamorphic>FALSE</anamorphic>
						<file id="file-58">
							<name>filmb-terminator_p0.mxf</name>
							<pathurl>file://localhost/Volumes/omfs/clip.dir/MXF/576i/filmb-terminator_p0.mxf</pathurl>
							<rate>
								<timebase>25</timebase>
								<ntsc>FALSE</ntsc>
							</rate>
							<duration>5341</duration>
							<timecode>
								<rate>
									<timebase>25</timebase>
									<ntsc>FALSE</ntsc>
								</rate>
								<string>00:12:30:01</string>
								<frame>18751</frame>
								<displayformat>NDF</displayformat>
							</timecode>
							<media>
								<video>
									<duration>18000</duration>
									<samplecharacteristics>
										<rate>
											<timebase>25</timebase>
											<ntsc>FALSE</ntsc>
										</rate>
										<width>720</width>
										<height>576</height>
										<anamorphic>FALSE</anamorphic>
										<pixelaspectratio>PAL-601</pixelaspectratio>
										<fielddominance>upper</fielddominance>
									</samplecharacteristics>
								</video>
								<audio>
									<samplecharacteristics>
										<depth>16</depth>
										<samplerate>48000</samplerate>
									</samplecharacteristics>
									<channelcount>2</channelcount>
								</audio>
							</media>
						</file>
							<filter>
								<effect>
									<name>Basic Motion</name>
									<effectid>basic</effectid>
									<effectcategory>motion</effectcategory>
									<effecttype>motion</effecttype>
									<mediatype>video</mediatype>
									<parameter authoringApp="PremierePro">
										<parameterid>scale</parameterid>
										<name>Scale</name>
										<valuemin>0</valuemin>
										<valuemax>1000</valuemax>
										<value>259</value>
									</parameter>
									<parameter authoringApp="PremierePro">
										<parameterid>rotation</parameterid>
										<name>Rotation</name>
										<valuemin>-8640</valuemin>
										<valuemax>8640</valuemax>
										<value>0</value>
									</parameter>
									<parameter authoringApp="PremierePro">
										<parameterid>center</parameterid>
										<name>Center</name>
										<value>
											<horiz>0</horiz>
											<vert>0</vert>
										</value>
									</parameter>
									<parameter authoringApp="PremierePro">
										<parameterid>centerOffset</parameterid>
										<name>Anchor Point</name>
										<value>
											<horiz>0</horiz>
											<vert>0</vert>
										</value>
									</parameter>
								</effect>
							</filter>
							<filter>
								<effect>
									<name>Opacity</name>
									<effectid>opacity</effectid>
									<effectcategory>motion</effectcategory>
									<effecttype>motion</effecttype>
									<mediatype>video</mediatype>
									<parameter authoringApp="PremierePro">
										<parameterid>opacity</parameterid>
										<name>opacity</name>
										<valuemin>0</valuemin>
										<valuemax>100</valuemax>
										<value>100</value>
										<keyframe>
											<when>0</when>
											<value>100</value>
										</keyframe>
									</parameter>
								</effect>
							</filter>
							<filter>
								<effect>
									<name>Gaussian Blur</name>
									<effectid>Gaussian Blur</effectid>
									<effectcategory>Blur</effectcategory>
									<effecttype>motion</effecttype>
									<mediatype>video</mediatype>
									<parameter authoringApp="PremierePro">
										<parameterid>radius</parameterid>
										<name>Radius</name>
										<valuemin>0</valuemin>
										<valuemax>100</valuemax>
										<value>0</value>
									</parameter>
								</effect>
							</filter>
							<filter>
								<effect>
									<name>Distort</name>
									<effectid>deformation</effectid>
									<effectcategory>motion</effectcategory>
									<effecttype>motion</effecttype>
									<mediatype>video</mediatype>
									<parameter authoringApp="PremierePro">
										<parameterid>aspect</parameterid>
										<name>Aspect</name>
										<valuemin>-10000</valuemin>
										<valuemax>10000</valuemax>
										<value>-9.40171</value>
									</parameter>
								</effect>
							</filter>
					</clipitem>
					<transitionitem>
						<start>9620</start>
						<end>9645</end>
						<alignment>center</alignment>
						<cutPoint>12</cutPoint>
						<rate>
							<timebase>25</timebase>
							<ntsc>FALSE</ntsc>
						</rate>
						<effect>
							<name>Cross Dissolve</name>
							<effectid>Cross Dissolve</effectid>
							<effectcategory>Dissolve</effectcategory>
							<effecttype>transition</effecttype>
							<mediatype>video</mediatype>
							<wipecode>0</wipecode>
							<wipeaccuracy>100</wipeaccuracy>
							<startratio>0</startratio>
							<endratio>1</endratio>
							<reverse>FALSE</reverse>
						</effect>
					</transitionitem>
					<clipitem id="clipitem-224" frameBlend="FALSE">
						<masterclipid>masterclip-59</masterclipid>
						<name>Titanic</name>
						<enabled>TRUE</enabled>
						<duration>1458</duration>
						<rate>
							<timebase>25</timebase>
							<ntsc>FALSE</ntsc>
						</rate>
						<start>-1</start>
						<end>-1</end>
						<in>211</in>
						<out>328</out>
						<alphatype>none</alphatype>
						<pixelaspectratio>square</pixelaspectratio>
						<anamorphic>FALSE</anamorphic>
						<file id="file-59">
							<name>titanic.mov</name>
							<pathurl>file://localhost/Volumes/Scenen/Prosjekter/FILM/FILM%201413%20Stormannsgalskap/Filmrips/titanic.mov</pathurl>
							<rate>
								<timebase>25</timebase>
								<ntsc>FALSE</ntsc>
							</rate>
							<duration>1458</duration>
							<timecode>
								<rate>
									<timebase>25</timebase>
									<ntsc>FALSE</ntsc>
								</rate>
								<string>00:00:00:00</string>
								<frame>0</frame>
								<displayformat>NDF</displayformat>
							</timecode>
							<media>
								<video>
									<duration>18000</duration>
									<samplecharacteristics>
										<rate>
											<timebase>25</timebase>
											<ntsc>FALSE</ntsc>
										</rate>
										<width>1920</width>
										<height>1080</height>
										<anamorphic>FALSE</anamorphic>
										<pixelaspectratio>square</pixelaspectratio>
										<fielddominance>lower</fielddominance>
									</samplecharacteristics>
								</video>
								<audio>
									<samplecharacteristics>
										<depth>16</depth>
										<samplerate>48000</samplerate>
									</samplecharacteristics>
									<channelcount>2</channelcount>
								</audio>
							</media>
						</file>
							<filter>
								<effect>
									<name>Basic Motion</name>
									<effectid>basic</effectid>
									<effectcategory>motion</effectcategory>
									<effecttype>motion</effecttype>
									<mediatype>video</mediatype>
									<parameter authoringApp="PremierePro">
										<parameterid>scale</parameterid>
										<name>Scale</name>
										<valuemin>0</valuemin>
										<valuemax>1000</valuemax>
										<value>100</value>
									</parameter>
									<parameter authoringApp="PremierePro">
										<parameterid>rotation</parameterid>
										<name>Rotation</name>
										<valuemin>-8640</valuemin>
										<valuemax>8640</valuemax>
										<value>0</value>
									</parameter>
									<parameter authoringApp="PremierePro">
										<parameterid>center</parameterid>
										<name>Center</name>
										<value>
											<horiz>0</horiz>
											<vert>0.05</vert>
										</value>
									</parameter>
									<parameter authoringApp="PremierePro">
										<parameterid>centerOffset</parameterid>
										<name>Anchor Point</name>
										<value>
											<horiz>0</horiz>
											<vert>0</vert>
										</value>
									</parameter>
								</effect>
							</filter>
							<filter>
								<effect>
									<name>Gaussian Blur</name>
									<effectid>Gaussian Blur</effectid>
									<effectcategory>Blur</effectcategory>
									<effecttype>motion</effecttype>
									<mediatype>video</mediatype>
									<parameter authoringApp="PremierePro">
										<parameterid>radius</parameterid>
										<name>Radius</name>
										<valuemin>0</valuemin>
										<valuemax>100</valuemax>
										<value>0</value>
									</parameter>
								</effect>
							</filter>
					</clipitem>
					<transitionitem>
						<start>9712</start>
						<end>9737</end>
						<alignment>center</alignment>
						<cutPoint>12</cutPoint>
						<rate>
							<timebase>25</timebase>
							<ntsc>FALSE</ntsc>
						</rate>
						<effect>
							<name>Cross Dissolve</name>
							<effectid>Cross Dissolve</effectid>
							<effectcategory>Dissolve</effectcategory>
							<effecttype>transition</effecttype>
							<mediatype>video</mediatype>
							<wipecode>0</wipecode>
							<wipeaccuracy>100</wipeaccuracy>
							<startratio>0</startratio>
							<endratio>1</endratio>
							<reverse>FALSE</reverse>
						</effect>
					</transitionitem>
					<clipitem id="clipitem-225" frameBlend="FALSE">
						<masterclipid>masterclip-59</masterclipid>
						<name>Titanic</name>
						<enabled>TRUE</enabled>
						<duration>1458</duration>
						<rate>
							<ntsc>TRUE</ntsc>
							<timebase>30</timebase>
						</rate>
						<start>-1</start>
						<end>-1</end>
						<in>303</in>
						<out>462</out>
						<alphatype>none</alphatype>
						<file id="file-59"/>
							<filter>
								<effect>
									<name>Basic Motion</name>
									<effectid>basic</effectid>
									<effectcategory>motion</effectcategory>
									<effecttype>motion</effecttype>
									<mediatype>video</mediatype>
									<parameter authoringApp="PremierePro">
										<parameterid>scale</parameterid>
										<name>Scale</name>
										<valuemin>0</valuemin>
										<valuemax>1000</valuemax>
										<value>100</value>
									</parameter>
									<parameter authoringApp="PremierePro">
										<parameterid>rotation</parameterid>
										<name>Rotation</name>
										<valuemin>-8640</valuemin>
										<valuemax>8640</valuemax>
										<value>0</value>
									</parameter>
									<parameter authoringApp="PremierePro">
										<parameterid>center</parameterid>
										<name>Center</name>
										<value>
											<horiz>0</horiz>
											<vert>0.05</vert>
										</value>
									</parameter>
									<parameter authoringApp="PremierePro">
										<parameterid>centerOffset</parameterid>
										<name>Anchor Point</name>
										<value>
											<horiz>0</horiz>
											<vert>0</vert>
										</value>
									</parameter>
								</effect>
							</filter>
					</clipitem>
					<transitionitem>
						<start>9865</start>
						<end>9871</end>
						<alignment>center</alignment>
						<cutPoint>3</cutPoint>
						<rate>
							<timebase>25</timebase>
							<ntsc>FALSE</ntsc>
						</rate>
						<effect>
							<name>Dip to Color Dissolve</name>
							<effectid>Dip to Color Dissolve</effectid>
							<effectcategory>Dissolve</effectcategory>
							<effecttype>transition</effecttype>
							<mediatype>video</mediatype>
							<wipecode>0</wipecode>
							<wipeaccuracy>100</wipeaccuracy>
							<startratio>0</startratio>
							<endratio>1</endratio>
							<reverse>FALSE</reverse>
							<parameter authoringApp="PremierePro">
								<parameterid>dipcolor</parameterid>
								<name>Color</name>
								<value>
									<alpha>255</alpha>
									<red>255</red>
									<green>255</green>
									<blue>255</blue>
								</value>
							</parameter>
						</effect>
					</transitionitem>
					<clipitem id="clipitem-226" frameBlend="FALSE">
						<masterclipid>masterclip-60</masterclipid>
						<name>filmb-titanicdok_p0</name>
						<enabled>TRUE</enabled>
						<duration>1851</duration>
						<rate>
							<timebase>25</timebase>
							<ntsc>FALSE</ntsc>
						</rate>
						<start>-1</start>
						<end>-1</end>
						<in>316</in>
						<out>407</out>
						<alphatype>none</alphatype>
						<pixelaspectratio>PAL-601</pixelaspectratio>
						<anamorphic>TRUE</anamorphic>
						<file id="file-60">
							<name>filmb-titanicdok_p0.mxf</name>
							<pathurl>file://localhost/Volumes/omfs/clip.dir/MXF/576i/filmb-titanicdok_p0.mxf</pathurl>
							<rate>
								<timebase>25</timebase>
								<ntsc>FALSE</ntsc>
							</rate>
							<duration>1851</duration>
							<timecode>
								<rate>
									<timebase>25</timebase>
									<ntsc>FALSE</ntsc>
								</rate>
								<string>00:00:22:00</string>
								<frame>550</frame>
								<displayformat>NDF</displayformat>
							</timecode>
							<media>
								<video>
									<duration>18000</duration>
									<samplecharacteristics>
										<rate>
											<timebase>25</timebase>
											<ntsc>FALSE</ntsc>
										</rate>
										<width>720</width>
										<height>576</height>
										<anamorphic>TRUE</anamorphic>
										<pixelaspectratio>PAL-601</pixelaspectratio>
										<fielddominance>upper</fielddominance>
									</samplecharacteristics>
								</video>
								<audio>
									<samplecharacteristics>
										<depth>16</depth>
										<samplerate>48000</samplerate>
									</samplecharacteristics>
									<channelcount>1</channelcount>
									<layout>mono</layout>
									<audiochannel>
										<sourcechannel>1</sourcechannel>
										<channellabel>discrete</channellabel>
									</audiochannel>
								</audio>
								<audio>
									<samplecharacteristics>
										<depth>16</depth>
										<samplerate>48000</samplerate>
									</samplecharacteristics>
									<channelcount>1</channelcount>
									<layout>mono</layout>
									<audiochannel>
										<sourcechannel>2</sourcechannel>
										<channellabel>discrete</channellabel>
									</audiochannel>
								</audio>
								<audio>
									<samplecharacteristics>
										<depth>16</depth>
										<samplerate>48000</samplerate>
									</samplecharacteristics>
									<channelcount>1</channelcount>
									<layout>mono</layout>
									<audiochannel>
										<sourcechannel>3</sourcechannel>
										<channellabel>discrete</channellabel>
									</audiochannel>
								</audio>
								<audio>
									<samplecharacteristics>
										<depth>16</depth>
										<samplerate>48000</samplerate>
									</samplecharacteristics>
									<channelcount>1</channelcount>
									<layout>mono</layout>
									<audiochannel>
										<sourcechannel>4</sourcechannel>
										<channellabel>discrete</channellabel>
									</audiochannel>
								</audio>
							</media>
						</file>
							<filter>
								<effect>
									<name>Basic Motion</name>
									<effectid>basic</effectid>
									<effectcategory>motion</effectcategory>
									<effecttype>motion</effecttype>
									<mediatype>video</mediatype>
									<parameter authoringApp="PremierePro">
										<parameterid>scale</parameterid>
										<name>Scale</name>
										<valuemin>0</valuemin>
										<valuemax>1000</valuemax>
										<value>182.813</value>
									</parameter>
									<parameter authoringApp="PremierePro">
										<parameterid>rotation</parameterid>
										<name>Rotation</name>
										<valuemin>-8640</valuemin>
										<valuemax>8640</valuemax>
										<value>0</value>
									</parameter>
									<parameter authoringApp="PremierePro">
										<parameterid>center</parameterid>
										<name>Center</name>
										<value>
											<horiz>0</horiz>
											<vert>0</vert>
										</value>
									</parameter>
									<parameter authoringApp="PremierePro">
										<parameterid>centerOffset</parameterid>
										<name>Anchor Point</name>
										<value>
											<horiz>0</horiz>
											<vert>0</vert>
										</value>
									</parameter>
								</effect>
							</filter>
							<filter>
								<effect>
									<name>Distort</name>
									<effectid>deformation</effectid>
									<effectcategory>motion</effectcategory>
									<effecttype>motion</effecttype>
									<mediatype>video</mediatype>
									<parameter authoringApp="PremierePro">
										<parameterid>aspect</parameterid>
										<name>Aspect</name>
										<valuemin>-10000</valuemin>
										<valuemax>10000</valuemax>
										<value>-45.8689</value>
									</parameter>
								</effect>
							</filter>
					</clipitem>
					<transitionitem>
						<start>9950</start>
						<end>9956</end>
						<alignment>center</alignment>
						<cutPoint>3</cutPoint>
						<rate>
							<timebase>25</timebase>
							<ntsc>FALSE</ntsc>
						</rate>
						<effect>
							<name>Dip to Color Dissolve</name>
							<effectid>Dip to Color Dissolve</effectid>
							<effectcategory>Dissolve</effectcategory>
							<effecttype>transition</effecttype>
							<mediatype>video</mediatype>
							<wipecode>0</wipecode>
							<wipeaccuracy>100</wipeaccuracy>
							<startratio>0</startratio>
							<endratio>1</endratio>
							<reverse>FALSE</reverse>
							<parameter authoringApp="PremierePro">
								<parameterid>dipcolor</parameterid>
								<name>Color</name>
								<value>
									<alpha>255</alpha>
									<red>255</red>
									<green>255</green>
									<blue>255</blue>
								</value>
							</parameter>
						</effect>
					</transitionitem>
					<clipitem id="clipitem-227" frameBlend="FALSE">
						<masterclipid>masterclip-61</masterclipid>
						<name>Titanic</name>
						<enabled>TRUE</enabled>
						<duration>2524</duration>
						<rate>
							<timebase>25</timebase>
							<ntsc>FALSE</ntsc>
						</rate>
						<start>-1</start>
						<end>-1</end>
						<in>252</in>
						<out>292</out>
						<alphatype>none</alphatype>
						<pixelaspectratio>square</pixelaspectratio>
						<anamorphic>FALSE</anamorphic>
						<file id="file-61">
							<name>Titanic.mov</name>
							<pathurl>file://localhost/Volumes/Scenen/Prosjekter/FILM/FILM%201413%20Stormannsgalskap/Filmrips/Titanic.mov</pathurl>
							<rate>
								<timebase>25</timebase>
								<ntsc>FALSE</ntsc>
							</rate>
							<duration>2524</duration>
							<timecode>
								<rate>
									<timebase>25</timebase>
									<ntsc>FALSE</ntsc>
								</rate>
								<string>00:00:00:00</string>
								<frame>0</frame>
								<displayformat>NDF</displayformat>
							</timecode>
							<media>
								<video>
									<duration>18000</duration>
									<samplecharacteristics>
										<rate>
											<timebase>25</timebase>
											<ntsc>FALSE</ntsc>
										</rate>
										<width>1920</width>
										<height>1080</height>
										<anamorphic>FALSE</anamorphic>
										<pixelaspectratio>square</pixelaspectratio>
										<fielddominance>lower</fielddominance>
									</samplecharacteristics>
								</video>
								<audio>
									<samplecharacteristics>
										<depth>16</depth>
										<samplerate>48000</samplerate>
									</samplecharacteristics>
									<channelcount>2</channelcount>
								</audio>
							</media>
						</file>
							<filter>
								<effect>
									<name>Basic Motion</name>
									<effectid>basic</effectid>
									<effectcategory>motion</effectcategory>
									<effecttype>motion</effecttype>
									<mediatype>video</mediatype>
									<parameter authoringApp="PremierePro">
										<parameterid>scale</parameterid>
										<name>Scale</name>
										<valuemin>0</valuemin>
										<valuemax>1000</valuemax>
										<value>122</value>
									</parameter>
									<parameter authoringApp="PremierePro">
										<parameterid>rotation</parameterid>
										<name>Rotation</name>
										<valuemin>-8640</valuemin>
										<valuemax>8640</valuemax>
										<value>0</value>
									</parameter>
									<parameter authoringApp="PremierePro">
										<parameterid>center</parameterid>
										<name>Center</name>
										<value>
											<horiz>0.004184</horiz>
											<vert>0.066914</vert>
										</value>
									</parameter>
									<parameter authoringApp="PremierePro">
										<parameterid>centerOffset</parameterid>
										<name>Anchor Point</name>
										<value>
											<horiz>0</horiz>
											<vert>0</vert>
										</value>
									</parameter>
								</effect>
							</filter>
							<filter>
								<effect>
									<name>Opacity</name>
									<effectid>opacity</effectid>
									<effectcategory>motion</effectcategory>
									<effecttype>motion</effecttype>
									<mediatype>video</mediatype>
									<parameter authoringApp="PremierePro">
										<parameterid>opacity</parameterid>
										<name>opacity</name>
										<valuemin>0</valuemin>
										<valuemax>100</valuemax>
										<value>100</value>
										<keyframe>
											<when>0</when>
											<value>100</value>
										</keyframe>
									</parameter>
								</effect>
							</filter>
						<link>
							<linkclipref>clipitem-227</linkclipref>
							<mediatype>video</mediatype>
							<trackindex>3</trackindex>
							<clipindex>94</clipindex>
						</link>
						<link>
							<linkclipref>clipitem-404</linkclipref>
							<mediatype>audio</mediatype>
							<trackindex>1</trackindex>
							<clipindex>6</clipindex>
							<groupindex>1</groupindex>
						</link>
					</clipitem>
					<transitionitem>
						<start>9984</start>
						<end>9990</end>
						<alignment>center</alignment>
						<cutPoint>3</cutPoint>
						<rate>
							<timebase>25</timebase>
							<ntsc>FALSE</ntsc>
						</rate>
						<effect>
							<name>Dip to Color Dissolve</name>
							<effectid>Dip to Color Dissolve</effectid>
							<effectcategory>Dissolve</effectcategory>
							<effecttype>transition</effecttype>
							<mediatype>video</mediatype>
							<wipecode>0</wipecode>
							<wipeaccuracy>100</wipeaccuracy>
							<startratio>0</startratio>
							<endratio>1</endratio>
							<reverse>FALSE</reverse>
							<parameter authoringApp="PremierePro">
								<parameterid>dipcolor</parameterid>
								<name>Color</name>
								<value>
									<alpha>255</alpha>
									<red>255</red>
									<green>255</green>
									<blue>255</blue>
								</value>
							</parameter>
						</effect>
					</transitionitem>
					<clipitem id="clipitem-228" frameBlend="FALSE">
						<masterclipid>masterclip-61</masterclipid>
						<name>Titanic</name>
						<enabled>TRUE</enabled>
						<duration>2524</duration>
						<rate>
							<ntsc>TRUE</ntsc>
							<timebase>30</timebase>
						</rate>
						<start>-1</start>
						<end>10079</end>
						<in>353</in>
						<out>448</out>
						<alphatype>none</alphatype>
						<file id="file-61"/>
							<filter>
								<effect>
									<name>Basic Motion</name>
									<effectid>basic</effectid>
									<effectcategory>motion</effectcategory>
									<effecttype>motion</effecttype>
									<mediatype>video</mediatype>
									<parameter authoringApp="PremierePro">
										<parameterid>scale</parameterid>
										<name>Scale</name>
										<valuemin>0</valuemin>
										<valuemax>1000</valuemax>
										<value>122</value>
									</parameter>
									<parameter authoringApp="PremierePro">
										<parameterid>rotation</parameterid>
										<name>Rotation</name>
										<valuemin>-8640</valuemin>
										<valuemax>8640</valuemax>
										<value>0</value>
									</parameter>
									<parameter authoringApp="PremierePro">
										<parameterid>center</parameterid>
										<name>Center</name>
										<value>
											<horiz>0.004184</horiz>
											<vert>0.066914</vert>
										</value>
									</parameter>
									<parameter authoringApp="PremierePro">
										<parameterid>centerOffset</parameterid>
										<name>Anchor Point</name>
										<value>
											<horiz>0</horiz>
											<vert>0</vert>
										</value>
									</parameter>
								</effect>
							</filter>
							<filter>
								<effect>
									<name>Opacity</name>
									<effectid>opacity</effectid>
									<effectcategory>motion</effectcategory>
									<effecttype>motion</effecttype>
									<mediatype>video</mediatype>
									<parameter authoringApp="PremierePro">
										<parameterid>opacity</parameterid>
										<name>opacity</name>
										<valuemin>0</valuemin>
										<valuemax>100</valuemax>
										<value>100</value>
										<keyframe>
											<when>0</when>
											<value>100</value>
										</keyframe>
									</parameter>
								</effect>
							</filter>
					</clipitem>
					<clipitem id="clipitem-229" frameBlend="FALSE">
						<masterclipid>masterclip-61</masterclipid>
						<name>Titanic</name>
						<enabled>TRUE</enabled>
						<duration>2524</duration>
						<rate>
							<ntsc>TRUE</ntsc>
							<timebase>30</timebase>
						</rate>
						<start>10079</start>
						<end>-1</end>
						<in>1668</in>
						<out>1766</out>
						<alphatype>none</alphatype>
						<file id="file-61"/>
					</clipitem>
					<transitionitem>
						<start>10159</start>
						<end>10177</end>
						<alignment>center</alignment>
						<cutPoint>12</cutPoint>
						<rate>
							<timebase>25</timebase>
							<ntsc>FALSE</ntsc>
						</rate>
						<effect>
							<name>Cross Dissolve</name>
							<effectid>Cross Dissolve</effectid>
							<effectcategory>Dissolve</effectcategory>
							<effecttype>transition</effecttype>
							<mediatype>video</mediatype>
							<wipecode>0</wipecode>
							<wipeaccuracy>100</wipeaccuracy>
							<startratio>0</startratio>
							<endratio>1</endratio>
							<reverse>FALSE</reverse>
						</effect>
					</transitionitem>
					<clipitem id="clipitem-230" frameBlend="FALSE">
						<masterclipid>masterclip-61</masterclipid>
						<name>Titanic</name>
						<enabled>TRUE</enabled>
						<duration>2524</duration>
						<rate>
							<ntsc>TRUE</ntsc>
							<timebase>30</timebase>
						</rate>
						<start>-1</start>
						<end>-1</end>
						<in>1748</in>
						<out>1784</out>
						<alphatype>none</alphatype>
						<file id="file-61"/>
							<filter>
								<effect>
									<name>Gaussian Blur</name>
									<effectid>Gaussian Blur</effectid>
									<effectcategory>Blur</effectcategory>
									<effecttype>motion</effecttype>
									<mediatype>video</mediatype>
									<parameter authoringApp="PremierePro">
										<parameterid>radius</parameterid>
										<name>Radius</name>
										<valuemin>0</valuemin>
										<valuemax>100</valuemax>
										<value>0</value>
									</parameter>
								</effect>
							</filter>
					</clipitem>
					<transitionitem>
						<start>10184</start>
						<end>10195</end>
						<alignment>center</alignment>
						<cutPoint>5</cutPoint>
						<rate>
							<timebase>25</timebase>
							<ntsc>FALSE</ntsc>
						</rate>
						<effect>
							<name>Dip to Color Dissolve</name>
							<effectid>Dip to Color Dissolve</effectid>
							<effectcategory>Dissolve</effectcategory>
							<effecttype>transition</effecttype>
							<mediatype>video</mediatype>
							<wipecode>0</wipecode>
							<wipeaccuracy>100</wipeaccuracy>
							<startratio>0</startratio>
							<endratio>1</endratio>
							<reverse>FALSE</reverse>
							<parameter authoringApp="PremierePro">
								<parameterid>dipcolor</parameterid>
								<name>Color</name>
								<value>
									<alpha>255</alpha>
									<red>0</red>
									<green>0</green>
									<blue>0</blue>
								</value>
							</parameter>
						</effect>
					</transitionitem>
					<clipitem id="clipitem-231" frameBlend="FALSE">
						<masterclipid>masterclip-62</masterclipid>
						<name>avatar</name>
						<enabled>TRUE</enabled>
						<duration>5131</duration>
						<rate>
							<timebase>25</timebase>
							<ntsc>FALSE</ntsc>
						</rate>
						<start>-1</start>
						<end>-1</end>
						<in>2863</in>
						<out>2913</out>
						<alphatype>none</alphatype>
						<pixelaspectratio>square</pixelaspectratio>
						<anamorphic>FALSE</anamorphic>
						<file id="file-62">
							<name>avatar.mov</name>
							<pathurl>file://localhost/Volumes/Scenen/Prosjekter/FILM/FILM%201413%20Stormannsgalskap/Filmrips/avatar.mov</pathurl>
							<rate>
								<timebase>25</timebase>
								<ntsc>FALSE</ntsc>
							</rate>
							<duration>5131</duration>
							<timecode>
								<rate>
									<timebase>25</timebase>
									<ntsc>FALSE</ntsc>
								</rate>
								<string>00:23:38:05</string>
								<frame>35455</frame>
								<displayformat>NDF</displayformat>
							</timecode>
							<media>
								<video>
									<duration>18000</duration>
									<samplecharacteristics>
										<rate>
											<timebase>25</timebase>
											<ntsc>FALSE</ntsc>
										</rate>
										<width>1920</width>
										<height>1080</height>
										<anamorphic>FALSE</anamorphic>
										<pixelaspectratio>square</pixelaspectratio>
										<fielddominance>none</fielddominance>
									</samplecharacteristics>
								</video>
								<audio>
									<samplecharacteristics>
										<depth>16</depth>
										<samplerate>48000</samplerate>
									</samplecharacteristics>
									<channelcount>2</channelcount>
								</audio>
							</media>
						</file>
							<filter>
								<effect>
									<name>Gaussian Blur</name>
									<effectid>Gaussian Blur</effectid>
									<effectcategory>Blur</effectcategory>
									<effecttype>motion</effecttype>
									<mediatype>video</mediatype>
									<parameter authoringApp="PremierePro">
										<parameterid>radius</parameterid>
										<name>Radius</name>
										<valuemin>0</valuemin>
										<valuemax>100</valuemax>
										<value>0</value>
									</parameter>
								</effect>
							</filter>
					</clipitem>
					<transitionitem>
						<start>10209</start>
						<end>10234</end>
						<alignment>center</alignment>
						<cutPoint>12</cutPoint>
						<rate>
							<timebase>25</timebase>
							<ntsc>FALSE</ntsc>
						</rate>
						<effect>
							<name>Cross Dissolve</name>
							<effectid>Cross Dissolve</effectid>
							<effectcategory>Dissolve</effectcategory>
							<effecttype>transition</effecttype>
							<mediatype>video</mediatype>
							<wipecode>0</wipecode>
							<wipeaccuracy>100</wipeaccuracy>
							<startratio>0</startratio>
							<endratio>1</endratio>
							<reverse>FALSE</reverse>
						</effect>
					</transitionitem>
					<clipitem id="clipitem-232" frameBlend="FALSE">
						<masterclipid>masterclip-62</masterclipid>
						<name>avatar</name>
						<enabled>TRUE</enabled>
						<duration>5131</duration>
						<rate>
							<ntsc>TRUE</ntsc>
							<timebase>30</timebase>
						</rate>
						<start>-1</start>
						<end>10586</end>
						<in>2888</in>
						<out>3265</out>
						<alphatype>none</alphatype>
						<file id="file-62"/>
					</clipitem>
					<clipitem id="clipitem-233" frameBlend="FALSE">
						<masterclipid>masterclip-63</masterclipid>
						<name>avatar_2</name>
						<enabled>TRUE</enabled>
						<duration>3026</duration>
						<rate>
							<timebase>25</timebase>
							<ntsc>FALSE</ntsc>
						</rate>
						<start>10586</start>
						<end>10655</end>
						<in>570</in>
						<out>639</out>
						<alphatype>none</alphatype>
						<pixelaspectratio>square</pixelaspectratio>
						<anamorphic>FALSE</anamorphic>
						<file id="file-63">
							<name>avatar_2.mov</name>
							<pathurl>file://localhost/Volumes/Scenen/Utveksling/FILM/DVD%20rip%20og%20EPK/Avatar/avatar_2.mov</pathurl>
							<rate>
								<timebase>25</timebase>
								<ntsc>FALSE</ntsc>
							</rate>
							<duration>3026</duration>
							<timecode>
								<rate>
									<timebase>25</timebase>
									<ntsc>FALSE</ntsc>
								</rate>
								<string>00:09:42:15</string>
								<frame>14565</frame>
								<displayformat>NDF</displayformat>
							</timecode>
							<media>
								<video>
									<duration>18000</duration>
									<samplecharacteristics>
										<rate>
											<timebase>25</timebase>
											<ntsc>FALSE</ntsc>
										</rate>
										<width>1920</width>
										<height>1080</height>
										<anamorphic>FALSE</anamorphic>
										<pixelaspectratio>square</pixelaspectratio>
										<fielddominance>none</fielddominance>
									</samplecharacteristics>
								</video>
								<audio>
									<samplecharacteristics>
										<depth>16</depth>
										<samplerate>48000</samplerate>
									</samplecharacteristics>
									<channelcount>2</channelcount>
								</audio>
							</media>
						</file>
					</clipitem>
					<clipitem id="clipitem-234" frameBlend="FALSE">
						<masterclipid>masterclip-63</masterclipid>
						<name>avatar_2</name>
						<enabled>TRUE</enabled>
						<duration>3026</duration>
						<rate>
							<ntsc>TRUE</ntsc>
							<timebase>30</timebase>
						</rate>
						<start>10655</start>
						<end>10803</end>
						<in>2878</in>
						<out>3026</out>
						<alphatype>none</alphatype>
						<file id="file-63"/>
					</clipitem>
					<clipitem id="clipitem-235" frameBlend="FALSE">
						<masterclipid>masterclip-64</masterclipid>
						<name>filmb-sandalfilmer_p0</name>
						<enabled>TRUE</enabled>
						<duration>8701</duration>
						<rate>
							<timebase>25</timebase>
							<ntsc>FALSE</ntsc>
						</rate>
						<start>10883</start>
						<end>10966</end>
						<in>758</in>
						<out>841</out>
						<alphatype>none</alphatype>
						<pixelaspectratio>PAL-601</pixelaspectratio>
						<anamorphic>FALSE</anamorphic>
						<file id="file-64">
							<name>filmb-sandalfilmer_p0.mxf</name>
							<pathurl>file://localhost/Volumes/omfs/clip.dir/MXF/576i/filmb-sandalfilmer_p0.mxf</pathurl>
							<rate>
								<timebase>25</timebase>
								<ntsc>FALSE</ntsc>
							</rate>
							<duration>8701</duration>
							<timecode>
								<rate>
									<timebase>25</timebase>
									<ntsc>FALSE</ntsc>
								</rate>
								<string>10:00:58:04</string>
								<frame>901454</frame>
								<displayformat>NDF</displayformat>
							</timecode>
							<media>
								<video>
									<duration>18000</duration>
									<samplecharacteristics>
										<rate>
											<timebase>25</timebase>
											<ntsc>FALSE</ntsc>
										</rate>
										<width>720</width>
										<height>576</height>
										<anamorphic>FALSE</anamorphic>
										<pixelaspectratio>PAL-601</pixelaspectratio>
										<fielddominance>upper</fielddominance>
									</samplecharacteristics>
								</video>
								<audio>
									<samplecharacteristics>
										<depth>16</depth>
										<samplerate>48000</samplerate>
									</samplecharacteristics>
									<channelcount>1</channelcount>
									<layout>mono</layout>
									<audiochannel>
										<sourcechannel>1</sourcechannel>
										<channellabel>discrete</channellabel>
									</audiochannel>
								</audio>
								<audio>
									<samplecharacteristics>
										<depth>16</depth>
										<samplerate>48000</samplerate>
									</samplecharacteristics>
									<channelcount>1</channelcount>
									<layout>mono</layout>
									<audiochannel>
										<sourcechannel>2</sourcechannel>
										<channellabel>discrete</channellabel>
									</audiochannel>
								</audio>
								<audio>
									<samplecharacteristics>
										<depth>16</depth>
										<samplerate>48000</samplerate>
									</samplecharacteristics>
									<channelcount>1</channelcount>
									<layout>mono</layout>
									<audiochannel>
										<sourcechannel>3</sourcechannel>
										<channellabel>discrete</channellabel>
									</audiochannel>
								</audio>
								<audio>
									<samplecharacteristics>
										<depth>16</depth>
										<samplerate>48000</samplerate>
									</samplecharacteristics>
									<channelcount>1</channelcount>
									<layout>mono</layout>
									<audiochannel>
										<sourcechannel>4</sourcechannel>
										<channellabel>discrete</channellabel>
									</audiochannel>
								</audio>
							</media>
						</file>
							<filter>
								<effect>
									<name>Basic Motion</name>
									<effectid>basic</effectid>
									<effectcategory>motion</effectcategory>
									<effecttype>motion</effecttype>
									<mediatype>video</mediatype>
									<parameter authoringApp="PremierePro">
										<parameterid>scale</parameterid>
										<name>Scale</name>
										<valuemin>0</valuemin>
										<valuemax>1000</valuemax>
										<value>187</value>
									</parameter>
									<parameter authoringApp="PremierePro">
										<parameterid>rotation</parameterid>
										<name>Rotation</name>
										<valuemin>-8640</valuemin>
										<valuemax>8640</valuemax>
										<value>0</value>
									</parameter>
									<parameter authoringApp="PremierePro">
										<parameterid>center</parameterid>
										<name>Center</name>
										<value>
											<horiz>0</horiz>
											<vert>0</vert>
										</value>
									</parameter>
									<parameter authoringApp="PremierePro">
										<parameterid>centerOffset</parameterid>
										<name>Anchor Point</name>
										<value>
											<horiz>0</horiz>
											<vert>0</vert>
										</value>
									</parameter>
								</effect>
							</filter>
							<filter>
								<effect>
									<name>Distort</name>
									<effectid>deformation</effectid>
									<effectcategory>motion</effectcategory>
									<effecttype>motion</effecttype>
									<mediatype>video</mediatype>
									<parameter authoringApp="PremierePro">
										<parameterid>aspect</parameterid>
										<name>Aspect</name>
										<valuemin>-10000</valuemin>
										<valuemax>10000</valuemax>
										<value>-9.40171</value>
									</parameter>
								</effect>
							</filter>
					</clipitem>
					<clipitem id="clipitem-236" frameBlend="FALSE">
						<masterclipid>masterclip-65</masterclipid>
						<name>filmb-avatar_p0</name>
						<enabled>TRUE</enabled>
						<duration>2614</duration>
						<rate>
							<timebase>25</timebase>
							<ntsc>FALSE</ntsc>
						</rate>
						<start>10966</start>
						<end>11124</end>
						<in>805</in>
						<out>963</out>
						<alphatype>none</alphatype>
						<pixelaspectratio>PAL-601</pixelaspectratio>
						<anamorphic>FALSE</anamorphic>
						<file id="file-65">
							<name>filmb-avatar_p0.mxf</name>
							<pathurl>file://localhost/Volumes/omfs/clip.dir/MXF/576i/filmb-avatar_p0.mxf</pathurl>
							<rate>
								<timebase>25</timebase>
								<ntsc>FALSE</ntsc>
							</rate>
							<duration>2614</duration>
							<timecode>
								<rate>
									<timebase>25</timebase>
									<ntsc>FALSE</ntsc>
								</rate>
								<string>00:00:00:06</string>
								<frame>6</frame>
								<displayformat>NDF</displayformat>
							</timecode>
							<media>
								<video>
									<duration>18000</duration>
									<samplecharacteristics>
										<rate>
											<timebase>25</timebase>
											<ntsc>FALSE</ntsc>
										</rate>
										<width>720</width>
										<height>576</height>
										<anamorphic>FALSE</anamorphic>
										<pixelaspectratio>PAL-601</pixelaspectratio>
										<fielddominance>upper</fielddominance>
									</samplecharacteristics>
								</video>
								<audio>
									<samplecharacteristics>
										<depth>16</depth>
										<samplerate>48000</samplerate>
									</samplecharacteristics>
									<channelcount>1</channelcount>
									<layout>mono</layout>
									<audiochannel>
										<sourcechannel>1</sourcechannel>
										<channellabel>discrete</channellabel>
									</audiochannel>
								</audio>
								<audio>
									<samplecharacteristics>
										<depth>16</depth>
										<samplerate>48000</samplerate>
									</samplecharacteristics>
									<channelcount>1</channelcount>
									<layout>mono</layout>
									<audiochannel>
										<sourcechannel>2</sourcechannel>
										<channellabel>discrete</channellabel>
									</audiochannel>
								</audio>
								<audio>
									<samplecharacteristics>
										<depth>16</depth>
										<samplerate>48000</samplerate>
									</samplecharacteristics>
									<channelcount>1</channelcount>
									<layout>mono</layout>
									<audiochannel>
										<sourcechannel>3</sourcechannel>
										<channellabel>discrete</channellabel>
									</audiochannel>
								</audio>
								<audio>
									<samplecharacteristics>
										<depth>16</depth>
										<samplerate>48000</samplerate>
									</samplecharacteristics>
									<channelcount>1</channelcount>
									<layout>mono</layout>
									<audiochannel>
										<sourcechannel>4</sourcechannel>
										<channellabel>discrete</channellabel>
									</audiochannel>
								</audio>
							</media>
						</file>
							<filter>
								<effect>
									<name>Basic Motion</name>
									<effectid>basic</effectid>
									<effectcategory>motion</effectcategory>
									<effecttype>motion</effecttype>
									<mediatype>video</mediatype>
									<parameter authoringApp="PremierePro">
										<parameterid>scale</parameterid>
										<name>Scale</name>
										<valuemin>0</valuemin>
										<valuemax>1000</valuemax>
										<value>248</value>
									</parameter>
									<parameter authoringApp="PremierePro">
										<parameterid>rotation</parameterid>
										<name>Rotation</name>
										<valuemin>-8640</valuemin>
										<valuemax>8640</valuemax>
										<value>0</value>
									</parameter>
									<parameter authoringApp="PremierePro">
										<parameterid>center</parameterid>
										<name>Center</name>
										<value>
											<horiz>0</horiz>
											<vert>0</vert>
										</value>
									</parameter>
									<parameter authoringApp="PremierePro">
										<parameterid>centerOffset</parameterid>
										<name>Anchor Point</name>
										<value>
											<horiz>0</horiz>
											<vert>0</vert>
										</value>
									</parameter>
								</effect>
							</filter>
							<filter>
								<effect>
									<name>Distort</name>
									<effectid>deformation</effectid>
									<effectcategory>motion</effectcategory>
									<effecttype>motion</effecttype>
									<mediatype>video</mediatype>
									<parameter authoringApp="PremierePro">
										<parameterid>aspect</parameterid>
										<name>Aspect</name>
										<valuemin>-10000</valuemin>
										<valuemax>10000</valuemax>
										<value>-39.1365</value>
									</parameter>
								</effect>
							</filter>
					</clipitem>
					<clipitem id="clipitem-237" frameBlend="FALSE">
						<masterclipid>masterclip-66</masterclipid>
						<name>avatar_29,97_1_1080i2997_to_1080i25_XDCAMHD422.mxf</name>
						<enabled>TRUE</enabled>
						<duration>3002</duration>
						<rate>
							<timebase>25</timebase>
							<ntsc>FALSE</ntsc>
						</rate>
						<start>11124</start>
						<end>-1</end>
						<in>721</in>
						<out>1023</out>
						<alphatype>none</alphatype>
						<pixelaspectratio>square</pixelaspectratio>
						<anamorphic>FALSE</anamorphic>
						<file id="file-66">
							<name>avatar_29,97_1_1080i2997_to_1080i25_XDCAMHD422.mxf</name>
							<pathurl>file://localhost/Volumes/Scenen/Prosjekter/FILM/FILM%201413%20Stormannsgalskap/Filmrips/avatar_29,97_1_1080i2997_to_1080i25_XDCAMHD422.mxf</pathurl>
							<rate>
								<timebase>25</timebase>
								<ntsc>FALSE</ntsc>
							</rate>
							<duration>3002</duration>
							<timecode>
								<rate>
									<timebase>25</timebase>
									<ntsc>FALSE</ntsc>
								</rate>
								<string>00:00:00:00</string>
								<frame>0</frame>
								<displayformat>NDF</displayformat>
							</timecode>
							<media>
								<video>
									<duration>18000</duration>
									<samplecharacteristics>
										<rate>
											<timebase>25</timebase>
											<ntsc>FALSE</ntsc>
										</rate>
										<width>1920</width>
										<height>1080</height>
										<anamorphic>FALSE</anamorphic>
										<pixelaspectratio>square</pixelaspectratio>
										<fielddominance>upper</fielddominance>
									</samplecharacteristics>
								</video>
								<audio>
									<samplecharacteristics>
										<depth>16</depth>
										<samplerate>48000</samplerate>
									</samplecharacteristics>
									<channelcount>1</channelcount>
									<layout>mono</layout>
									<audiochannel>
										<sourcechannel>1</sourcechannel>
										<channellabel>discrete</channellabel>
									</audiochannel>
								</audio>
								<audio>
									<samplecharacteristics>
										<depth>16</depth>
										<samplerate>48000</samplerate>
									</samplecharacteristics>
									<channelcount>1</channelcount>
									<layout>mono</layout>
									<audiochannel>
										<sourcechannel>2</sourcechannel>
										<channellabel>discrete</channellabel>
									</audiochannel>
								</audio>
								<audio>
									<samplecharacteristics>
										<depth>16</depth>
										<samplerate>48000</samplerate>
									</samplecharacteristics>
									<channelcount>1</channelcount>
									<layout>mono</layout>
									<audiochannel>
										<sourcechannel>3</sourcechannel>
										<channellabel>discrete</channellabel>
									</audiochannel>
								</audio>
								<audio>
									<samplecharacteristics>
										<depth>16</depth>
										<samplerate>48000</samplerate>
									</samplecharacteristics>
									<channelcount>1</channelcount>
									<layout>mono</layout>
									<audiochannel>
										<sourcechannel>4</sourcechannel>
										<channellabel>discrete</channellabel>
									</audiochannel>
								</audio>
								<audio>
									<samplecharacteristics>
										<depth>16</depth>
										<samplerate>48000</samplerate>
									</samplecharacteristics>
									<channelcount>1</channelcount>
									<layout>mono</layout>
									<audiochannel>
										<sourcechannel>5</sourcechannel>
										<channellabel>discrete</channellabel>
									</audiochannel>
								</audio>
								<audio>
									<samplecharacteristics>
										<depth>16</depth>
										<samplerate>48000</samplerate>
									</samplecharacteristics>
									<channelcount>1</channelcount>
									<layout>mono</layout>
									<audiochannel>
										<sourcechannel>6</sourcechannel>
										<channellabel>discrete</channellabel>
									</audiochannel>
								</audio>
								<audio>
									<samplecharacteristics>
										<depth>16</depth>
										<samplerate>48000</samplerate>
									</samplecharacteristics>
									<channelcount>1</channelcount>
									<layout>mono</layout>
									<audiochannel>
										<sourcechannel>7</sourcechannel>
										<channellabel>discrete</channellabel>
									</audiochannel>
								</audio>
								<audio>
									<samplecharacteristics>
										<depth>16</depth>
										<samplerate>48000</samplerate>
									</samplecharacteristics>
									<channelcount>1</channelcount>
									<layout>mono</layout>
									<audiochannel>
										<sourcechannel>8</sourcechannel>
										<channellabel>discrete</channellabel>
									</audiochannel>
								</audio>
							</media>
						</file>
					</clipitem>
					<transitionitem>
						<start>11403</start>
						<end>11426</end>
						<alignment>end-black</alignment>
						<cutPoint>23</cutPoint>
						<rate>
							<timebase>25</timebase>
							<ntsc>FALSE</ntsc>
						</rate>
						<effect>
							<name>Cross Dissolve</name>
							<effectid>Cross Dissolve</effectid>
							<effectcategory>Dissolve</effectcategory>
							<effecttype>transition</effecttype>
							<mediatype>video</mediatype>
							<wipecode>0</wipecode>
							<wipeaccuracy>100</wipeaccuracy>
							<startratio>0</startratio>
							<endratio>1</endratio>
							<reverse>FALSE</reverse>
						</effect>
					</transitionitem>
					<transitionitem>
						<start>11434</start>
						<end>11459</end>
						<alignment>start-black</alignment>
						<cutPoint>0</cutPoint>
						<rate>
							<timebase>25</timebase>
							<ntsc>FALSE</ntsc>
						</rate>
						<effect>
							<name>Cross Dissolve</name>
							<effectid>Cross Dissolve</effectid>
							<effectcategory>Dissolve</effectcategory>
							<effecttype>transition</effecttype>
							<mediatype>video</mediatype>
							<wipecode>0</wipecode>
							<wipeaccuracy>100</wipeaccuracy>
							<startratio>0</startratio>
							<endratio>1</endratio>
							<reverse>FALSE</reverse>
						</effect>
					</transitionitem>
					<clipitem id="clipitem-238" frameBlend="FALSE">
						<masterclipid>masterclip-67</masterclipid>
						<name>FILM_Break_kingkong3.mov</name>
						<enabled>TRUE</enabled>
						<duration>274</duration>
						<rate>
							<timebase>25</timebase>
							<ntsc>FALSE</ntsc>
						</rate>
						<start>-1</start>
						<end>11601</end>
						<in>8</in>
						<out>175</out>
						<alphatype>none</alphatype>
						<pixelaspectratio>square</pixelaspectratio>
						<anamorphic>FALSE</anamorphic>
						<file id="file-67">
							<name>FILM_Break_kingkong3.mov</name>
							<pathurl>file://localhost/Volumes/Scenen/Prosjekter/FILM/FILM%200110%20Mastere%20Grafikk%20og%20Lyd%20Filmbonanza%20GI%20010112/Video/Filmbonanza%20Bumpere%20H%c3%b8st%202011/FILM_Break_kingkong3.mov</pathurl>
							<rate>
								<timebase>25</timebase>
								<ntsc>FALSE</ntsc>
							</rate>
							<duration>274</duration>
							<timecode>
								<rate>
									<timebase>25</timebase>
									<ntsc>FALSE</ntsc>
								</rate>
								<string>00:01:57:06</string>
								<frame>2931</frame>
								<displayformat>NDF</displayformat>
							</timecode>
							<media>
								<video>
									<duration>18000</duration>
									<samplecharacteristics>
										<rate>
											<timebase>25</timebase>
											<ntsc>FALSE</ntsc>
										</rate>
										<width>1920</width>
										<height>1080</height>
										<anamorphic>FALSE</anamorphic>
										<pixelaspectratio>square</pixelaspectratio>
										<fielddominance>none</fielddominance>
									</samplecharacteristics>
								</video>
								<audio>
									<samplecharacteristics>
										<depth>16</depth>
										<samplerate>48000</samplerate>
									</samplecharacteristics>
									<channelcount>2</channelcount>
								</audio>
							</media>
						</file>
						<link>
							<linkclipref>clipitem-238</linkclipref>
							<mediatype>video</mediatype>
							<trackindex>3</trackindex>
							<clipindex>111</clipindex>
						</link>
						<link>
							<linkclipref>clipitem-721</linkclipref>
							<mediatype>audio</mediatype>
							<trackindex>12</trackindex>
							<clipindex>20</clipindex>
							<groupindex>1</groupindex>
						</link>
						<link>
							<linkclipref>clipitem-731</linkclipref>
							<mediatype>audio</mediatype>
							<trackindex>13</trackindex>
							<clipindex>20</clipindex>
							<groupindex>1</groupindex>
						</link>
					</clipitem>
					<transitionitem>
						<start>12365</start>
						<end>12374</end>
						<alignment>start-black</alignment>
						<cutPoint>0</cutPoint>
						<rate>
							<timebase>25</timebase>
							<ntsc>FALSE</ntsc>
						</rate>
						<effect>
							<name>Cross Dissolve</name>
							<effectid>Cross Dissolve</effectid>
							<effectcategory>Dissolve</effectcategory>
							<effecttype>transition</effecttype>
							<mediatype>video</mediatype>
							<wipecode>0</wipecode>
							<wipeaccuracy>100</wipeaccuracy>
							<startratio>0</startratio>
							<endratio>1</endratio>
							<reverse>FALSE</reverse>
						</effect>
					</transitionitem>
					<clipitem id="clipitem-239" frameBlend="FALSE">
						<masterclipid>masterclip-68</masterclipid>
						<name>yo-el-tarot-alejandro-jodorowsky-mdn_MLM-O-3200383731_092012.jpg</name>
						<enabled>TRUE</enabled>
						<duration>1080000</duration>
						<rate>
							<timebase>30</timebase>
							<ntsc>TRUE</ntsc>
						</rate>
						<start>-1</start>
						<end>12450</end>
						<in>90017</in>
						<out>90102</out>
						<alphatype>none</alphatype>
						<pixelaspectratio>square</pixelaspectratio>
						<anamorphic>FALSE</anamorphic>
						<file id="file-68">
							<name>yo-el-tarot-alejandro-jodorowsky-mdn_MLM-O-3200383731_092012.jpg</name>
							<pathurl>file://localhost/Volumes/Scenen/Prosjekter/FILM/FILM%201413%20Jodorowsky%20BW/Grafikk/yo-el-tarot-alejandro-jodorowsky-mdn_MLM-O-3200383731_092012.jpg</pathurl>
							<rate>
								<timebase>30</timebase>
								<ntsc>TRUE</ntsc>
							</rate>
							<timecode>
								<rate>
									<timebase>30</timebase>
									<ntsc>TRUE</ntsc>
								</rate>
								<string>00;00;00;00</string>
								<frame>0</frame>
								<displayformat>DF</displayformat>
							</timecode>
							<media>
								<video>
									<duration>18000</duration>
									<samplecharacteristics>
										<rate>
											<timebase>30</timebase>
											<ntsc>TRUE</ntsc>
										</rate>
										<width>314</width>
										<height>478</height>
										<anamorphic>FALSE</anamorphic>
										<pixelaspectratio>square</pixelaspectratio>
										<fielddominance>none</fielddominance>
									</samplecharacteristics>
								</video>
							</media>
						</file>
							<filter>
								<effect>
									<name>Basic Motion</name>
									<effectid>basic</effectid>
									<effectcategory>motion</effectcategory>
									<effecttype>motion</effecttype>
									<mediatype>video</mediatype>
									<parameter authoringApp="PremierePro">
										<parameterid>scale</parameterid>
										<name>Scale</name>
										<valuemin>0</valuemin>
										<valuemax>1000</valuemax>
										<value>169.444</value>
										<keyframe>
											<when>90021</when>
											<value>154.444</value>
										</keyframe>
										<keyframe>
											<when>90101</when>
											<value>169.444</value>
										</keyframe>
									</parameter>
									<parameter authoringApp="PremierePro">
										<parameterid>rotation</parameterid>
										<name>Rotation</name>
										<valuemin>-8640</valuemin>
										<valuemax>8640</valuemax>
										<value>0</value>
									</parameter>
									<parameter authoringApp="PremierePro">
										<parameterid>center</parameterid>
										<name>Center</name>
										<value>
											<horiz>-1.94149</horiz>
											<vert>-0.0907395</vert>
										</value>
										<keyframe>
											<when>90021</when>
											<value>
												<horiz>-1.94149</horiz>
												<vert>-0.0907395</vert>
											</value>
										</keyframe>
										<keyframe>
											<when>90101</when>
											<value>
												<horiz>-1.94149</horiz>
												<vert>-0.0907395</vert>
											</value>
										</keyframe>
									</parameter>
									<parameter authoringApp="PremierePro">
										<parameterid>centerOffset</parameterid>
										<name>Anchor Point</name>
										<value>
											<horiz>0</horiz>
											<vert>0</vert>
										</value>
									</parameter>
								</effect>
							</filter>
					</clipitem>
					<clipitem id="clipitem-240" frameBlend="FALSE">
						<masterclipid>masterclip-69</masterclipid>
						<name>Jodorowsky_and_Moebius_Le_Coeur_Couronn_vol_1_cover.jpg</name>
						<enabled>TRUE</enabled>
						<duration>1080000</duration>
						<rate>
							<timebase>30</timebase>
							<ntsc>TRUE</ntsc>
						</rate>
						<start>12450</start>
						<end>12538</end>
						<in>90001</in>
						<out>90089</out>
						<alphatype>none</alphatype>
						<pixelaspectratio>square</pixelaspectratio>
						<anamorphic>FALSE</anamorphic>
						<file id="file-69">
							<name>Jodorowsky_and_Moebius_Le_Coeur_Couronn_vol_1_cover.jpg</name>
							<pathurl>file://localhost/Volumes/Scenen/Prosjekter/FILM/FILM%201413%20Jodorowsky%20BW/Grafikk/Jodorowsky_and_Moebius_Le_Coeur_Couronn_vol_1_cover.jpg</pathurl>
							<rate>
								<timebase>30</timebase>
								<ntsc>TRUE</ntsc>
							</rate>
							<timecode>
								<rate>
									<timebase>30</timebase>
									<ntsc>TRUE</ntsc>
								</rate>
								<string>00;00;00;00</string>
								<frame>0</frame>
								<displayformat>DF</displayformat>
							</timecode>
							<media>
								<video>
									<duration>18000</duration>
									<samplecharacteristics>
										<rate>
											<timebase>30</timebase>
											<ntsc>TRUE</ntsc>
										</rate>
										<width>1184</width>
										<height>1600</height>
										<anamorphic>FALSE</anamorphic>
										<pixelaspectratio>square</pixelaspectratio>
										<fielddominance>none</fielddominance>
									</samplecharacteristics>
								</video>
							</media>
						</file>
							<filter>
								<effect>
									<name>Basic Motion</name>
									<effectid>basic</effectid>
									<effectcategory>motion</effectcategory>
									<effecttype>motion</effecttype>
									<mediatype>video</mediatype>
									<parameter authoringApp="PremierePro">
										<parameterid>scale</parameterid>
										<name>Scale</name>
										<valuemin>0</valuemin>
										<valuemax>1000</valuemax>
										<value>50.4214</value>
										<keyframe>
											<when>90000</when>
											<value>50.4214</value>
										</keyframe>
										<keyframe>
											<when>90088</when>
											<value>60.4214</value>
										</keyframe>
									</parameter>
									<parameter authoringApp="PremierePro">
										<parameterid>rotation</parameterid>
										<name>Rotation</name>
										<valuemin>-8640</valuemin>
										<valuemax>8640</valuemax>
										<value>0</value>
									</parameter>
									<parameter authoringApp="PremierePro">
										<parameterid>center</parameterid>
										<name>Center</name>
										<value>
											<horiz>-0.439762</horiz>
											<vert>-0.0203313</vert>
										</value>
										<keyframe>
											<when>90000</when>
											<value>
												<horiz>-0.439762</horiz>
												<vert>-0.0203313</vert>
											</value>
										</keyframe>
										<keyframe>
											<when>90088</when>
											<value>
												<horiz>-0.439762</horiz>
												<vert>-0.0203313</vert>
											</value>
										</keyframe>
									</parameter>
									<parameter authoringApp="PremierePro">
										<parameterid>centerOffset</parameterid>
										<name>Anchor Point</name>
										<value>
											<horiz>0</horiz>
											<vert>0</vert>
										</value>
									</parameter>
								</effect>
							</filter>
					</clipitem>
					<clipitem id="clipitem-241" frameBlend="FALSE">
						<masterclipid>masterclip-37</masterclipid>
						<name>El Topo.mov</name>
						<enabled>TRUE</enabled>
						<duration>3224</duration>
						<rate>
							<ntsc>TRUE</ntsc>
							<timebase>30</timebase>
						</rate>
						<start>12538</start>
						<end>12888</end>
						<in>2632</in>
						<out>2982</out>
						<alphatype>none</alphatype>
						<file id="file-37"/>
						<link>
							<linkclipref>clipitem-241</linkclipref>
							<mediatype>video</mediatype>
							<trackindex>3</trackindex>
							<clipindex>115</clipindex>
						</link>
						<link>
							<linkclipref>clipitem-658</linkclipref>
							<mediatype>audio</mediatype>
							<trackindex>10</trackindex>
							<clipindex>49</clipindex>
							<groupindex>1</groupindex>
						</link>
						<link>
							<linkclipref>clipitem-698</linkclipref>
							<mediatype>audio</mediatype>
							<trackindex>11</trackindex>
							<clipindex>49</clipindex>
							<groupindex>1</groupindex>
						</link>
					</clipitem>
					<clipitem id="clipitem-242" frameBlend="FALSE">
						<masterclipid>masterclip-37</masterclipid>
						<name>El Topo.mov</name>
						<enabled>TRUE</enabled>
						<duration>3224</duration>
						<rate>
							<ntsc>TRUE</ntsc>
							<timebase>30</timebase>
						</rate>
						<start>12888</start>
						<end>12920</end>
						<in>2982</in>
						<out>3014</out>
						<alphatype>none</alphatype>
						<file id="file-37"/>
					</clipitem>
					<clipitem id="clipitem-243" frameBlend="FALSE">
						<masterclipid>masterclip-37</masterclipid>
						<name>El Topo.mov</name>
						<enabled>TRUE</enabled>
						<duration>3224</duration>
						<rate>
							<ntsc>TRUE</ntsc>
							<timebase>30</timebase>
						</rate>
						<start>12920</start>
						<end>12970</end>
						<in>3014</in>
						<out>3064</out>
						<alphatype>none</alphatype>
						<file id="file-37"/>
					</clipitem>
					<clipitem id="clipitem-244" frameBlend="FALSE">
						<masterclipid>masterclip-70</masterclipid>
						<name>The Holy Mountain.mov</name>
						<enabled>TRUE</enabled>
						<duration>5112</duration>
						<rate>
							<timebase>25</timebase>
							<ntsc>FALSE</ntsc>
						</rate>
						<start>12970</start>
						<end>13299</end>
						<in>895</in>
						<out>1224</out>
						<alphatype>none</alphatype>
						<pixelaspectratio>square</pixelaspectratio>
						<anamorphic>FALSE</anamorphic>
						<file id="file-70">
							<name>The Holy Mountain.mov</name>
							<pathurl>file://localhost/Volumes/Scenen/Prosjekter/FILM/FILM%201413%20Jodorowsky%20BW/DVD%20rips/The%20Holy%20Mountain.mov</pathurl>
							<rate>
								<timebase>25</timebase>
								<ntsc>FALSE</ntsc>
							</rate>
							<duration>5112</duration>
							<timecode>
								<rate>
									<timebase>25</timebase>
									<ntsc>FALSE</ntsc>
								</rate>
								<string>00:24:04:14</string>
								<frame>36114</frame>
								<displayformat>NDF</displayformat>
							</timecode>
							<media>
								<video>
									<duration>18000</duration>
									<samplecharacteristics>
										<rate>
											<timebase>25</timebase>
											<ntsc>FALSE</ntsc>
										</rate>
										<width>1920</width>
										<height>1080</height>
										<anamorphic>FALSE</anamorphic>
										<pixelaspectratio>square</pixelaspectratio>
										<fielddominance>none</fielddominance>
									</samplecharacteristics>
								</video>
								<audio>
									<samplecharacteristics>
										<depth>16</depth>
										<samplerate>48000</samplerate>
									</samplecharacteristics>
									<channelcount>2</channelcount>
								</audio>
							</media>
						</file>
						<link>
							<linkclipref>clipitem-244</linkclipref>
							<mediatype>video</mediatype>
							<trackindex>3</trackindex>
							<clipindex>118</clipindex>
						</link>
						<link>
							<linkclipref>clipitem-722</linkclipref>
							<mediatype>audio</mediatype>
							<trackindex>12</trackindex>
							<clipindex>21</clipindex>
							<groupindex>1</groupindex>
						</link>
						<link>
							<linkclipref>clipitem-732</linkclipref>
							<mediatype>audio</mediatype>
							<trackindex>13</trackindex>
							<clipindex>21</clipindex>
							<groupindex>1</groupindex>
						</link>
					</clipitem>
					<clipitem id="clipitem-245" frameBlend="FALSE">
						<masterclipid>masterclip-71</masterclipid>
						<name>DUNE PROMO TRAILER JAPAN.mov</name>
						<enabled>TRUE</enabled>
						<duration>3053</duration>
						<rate>
							<timebase>24</timebase>
							<ntsc>TRUE</ntsc>
						</rate>
						<start>13299</start>
						<end>14716</end>
						<in>0</in>
						<out>1417</out>
						<alphatype>none</alphatype>
						<pixelaspectratio>square</pixelaspectratio>
						<anamorphic>FALSE</anamorphic>
						<file id="file-71">
							<name>DUNE PROMO TRAILER JAPAN.mov</name>
							<pathurl>file://localhost/Volumes/Scenen/Prosjekter/FILM/FILM%201413%20Jodorowsky%20BW/DVD%20rips/DUNE%20PROMO%20TRAILER%20JAPAN.mov</pathurl>
							<rate>
								<timebase>24</timebase>
								<ntsc>TRUE</ntsc>
							</rate>
							<duration>2928</duration>
							<timecode>
								<rate>
									<timebase>24</timebase>
									<ntsc>TRUE</ntsc>
								</rate>
								<string>00:59:55:00</string>
								<frame>86280</frame>
								<displayformat>NDF</displayformat>
							</timecode>
							<media>
								<video>
									<duration>18000</duration>
									<samplecharacteristics>
										<rate>
											<timebase>24</timebase>
											<ntsc>TRUE</ntsc>
										</rate>
										<width>1920</width>
										<height>1080</height>
										<anamorphic>FALSE</anamorphic>
										<pixelaspectratio>square</pixelaspectratio>
										<fielddominance>none</fielddominance>
									</samplecharacteristics>
								</video>
								<audio>
									<samplecharacteristics>
										<depth>16</depth>
										<samplerate>48000</samplerate>
									</samplecharacteristics>
									<channelcount>2</channelcount>
								</audio>
							</media>
						</file>
						<link>
							<linkclipref>clipitem-245</linkclipref>
							<mediatype>video</mediatype>
							<trackindex>3</trackindex>
							<clipindex>119</clipindex>
						</link>
						<link>
							<linkclipref>clipitem-661</linkclipref>
							<mediatype>audio</mediatype>
							<trackindex>10</trackindex>
							<clipindex>53</clipindex>
							<groupindex>1</groupindex>
						</link>
						<link>
							<linkclipref>clipitem-701</linkclipref>
							<mediatype>audio</mediatype>
							<trackindex>11</trackindex>
							<clipindex>53</clipindex>
							<groupindex>1</groupindex>
						</link>
					</clipitem>
					<clipitem id="clipitem-246" frameBlend="FALSE">
						<masterclipid>masterclip-72</masterclipid>
						<name>DUNE-HEADLINE.jpg</name>
						<enabled>TRUE</enabled>
						<duration>1080000</duration>
						<rate>
							<timebase>30</timebase>
							<ntsc>TRUE</ntsc>
						</rate>
						<start>14716</start>
						<end>14865</end>
						<in>89968</in>
						<out>90117</out>
						<alphatype>none</alphatype>
						<pixelaspectratio>square</pixelaspectratio>
						<anamorphic>FALSE</anamorphic>
						<file id="file-72">
							<name>DUNE-HEADLINE.jpg</name>
							<pathurl>file://localhost/Volumes/Scenen/Prosjekter/FILM/FILM%201413%20Jodorowsky%20BW/Grafikk/DUNE-HEADLINE.jpg</pathurl>
							<rate>
								<timebase>30</timebase>
								<ntsc>TRUE</ntsc>
							</rate>
							<timecode>
								<rate>
									<timebase>30</timebase>
									<ntsc>TRUE</ntsc>
								</rate>
								<string>00;00;00;00</string>
								<frame>0</frame>
								<displayformat>DF</displayformat>
							</timecode>
							<media>
								<video>
									<duration>18000</duration>
									<samplecharacteristics>
										<rate>
											<timebase>30</timebase>
											<ntsc>TRUE</ntsc>
										</rate>
										<width>1199</width>
										<height>717</height>
										<anamorphic>FALSE</anamorphic>
										<pixelaspectratio>square</pixelaspectratio>
										<fielddominance>none</fielddominance>
									</samplecharacteristics>
								</video>
							</media>
						</file>
							<filter>
								<effect>
									<name>Basic Motion</name>
									<effectid>basic</effectid>
									<effectcategory>motion</effectcategory>
									<effecttype>motion</effecttype>
									<mediatype>video</mediatype>
									<parameter authoringApp="PremierePro">
										<parameterid>scale</parameterid>
										<name>Scale</name>
										<valuemin>0</valuemin>
										<valuemax>1000</valuemax>
										<value>161.073</value>
										<keyframe>
											<when>89983</when>
											<value>277.073</value>
										</keyframe>
										<keyframe>
											<when>90095</when>
											<value>161.073</value>
										</keyframe>
									</parameter>
									<parameter authoringApp="PremierePro">
										<parameterid>rotation</parameterid>
										<name>Rotation</name>
										<valuemin>-8640</valuemin>
										<valuemax>8640</valuemax>
										<value>0</value>
									</parameter>
									<parameter authoringApp="PremierePro">
										<parameterid>center</parameterid>
										<name>Center</name>
										<value>
											<horiz>-0.00904709</horiz>
											<vert>0.0241972</vert>
										</value>
										<keyframe>
											<when>89983</when>
											<value>
												<horiz>-0.605377</horiz>
												<vert>0.206903</vert>
											</value>
										</keyframe>
										<keyframe>
											<when>90095</when>
											<value>
												<horiz>-0.00320897</horiz>
												<vert>-0.000907372</vert>
											</value>
										</keyframe>
									</parameter>
									<parameter authoringApp="PremierePro">
										<parameterid>centerOffset</parameterid>
										<name>Anchor Point</name>
										<value>
											<horiz>0</horiz>
											<vert>0</vert>
										</value>
									</parameter>
								</effect>
							</filter>
					</clipitem>
					<clipitem id="clipitem-247" frameBlend="FALSE">
						<masterclipid>masterclip-7</masterclipid>
						<name>FILM_Loop_Grønn.mov</name>
						<enabled>TRUE</enabled>
						<duration>1000</duration>
						<rate>
							<ntsc>TRUE</ntsc>
							<timebase>30</timebase>
						</rate>
						<start>14865</start>
						<end>15168</end>
						<in>483</in>
						<out>786</out>
						<alphatype>none</alphatype>
						<file id="file-7"/>
					</clipitem>
					<transitionitem>
						<start>15207</start>
						<end>15232</end>
						<alignment>start-black</alignment>
						<cutPoint>0</cutPoint>
						<rate>
							<timebase>25</timebase>
							<ntsc>FALSE</ntsc>
						</rate>
						<effect>
							<name>Cross Dissolve</name>
							<effectid>Cross Dissolve</effectid>
							<effectcategory>Dissolve</effectcategory>
							<effecttype>transition</effecttype>
							<mediatype>video</mediatype>
							<wipecode>0</wipecode>
							<wipeaccuracy>100</wipeaccuracy>
							<startratio>0</startratio>
							<endratio>1</endratio>
							<reverse>FALSE</reverse>
						</effect>
					</transitionitem>
					<clipitem id="clipitem-248" frameBlend="FALSE">
						<masterclipid>masterclip-73</masterclipid>
						<name>Vegard Copy 03</name>
						<enabled>TRUE</enabled>
						<duration>1080000</duration>
						<rate>
							<timebase>30</timebase>
							<ntsc>TRUE</ntsc>
						</rate>
						<start>-1</start>
						<end>-1</end>
						<in>271372</in>
						<out>271534</out>
						<alphatype>straight</alphatype>
						<pixelaspectratio>square</pixelaspectratio>
						<anamorphic>FALSE</anamorphic>
						<file id="file-73">
							<name>Internal Title</name>
							<mediaSource>Slug</mediaSource>
							<rate>
								<timebase>30</timebase>
								<ntsc>TRUE</ntsc>
							</rate>
							<timecode>
								<rate>
									<timebase>30</timebase>
									<ntsc>TRUE</ntsc>
								</rate>
								<string>00;00;00;00</string>
								<frame>0</frame>
								<displayformat>DF</displayformat>
							</timecode>
							<media>
								<video>
									<duration>18000</duration>
									<samplecharacteristics>
										<rate>
											<timebase>30</timebase>
											<ntsc>TRUE</ntsc>
										</rate>
										<width>1920</width>
										<height>1080</height>
										<anamorphic>FALSE</anamorphic>
										<pixelaspectratio>square</pixelaspectratio>
										<fielddominance>none</fielddominance>
									</samplecharacteristics>
								</video>
							</media>
						</file>
					</clipitem>
					<transitionitem>
						<start>15344</start>
						<end>15369</end>
						<alignment>end-black</alignment>
						<cutPoint>25</cutPoint>
						<rate>
							<timebase>25</timebase>
							<ntsc>FALSE</ntsc>
						</rate>
						<effect>
							<name>Cross Dissolve</name>
							<effectid>Cross Dissolve</effectid>
							<effectcategory>Dissolve</effectcategory>
							<effecttype>transition</effecttype>
							<mediatype>video</mediatype>
							<wipecode>0</wipecode>
							<wipeaccuracy>100</wipeaccuracy>
							<startratio>0</startratio>
							<endratio>1</endratio>
							<reverse>FALSE</reverse>
						</effect>
					</transitionitem>
					<clipitem id="clipitem-249" frameBlend="FALSE">
						<masterclipid>masterclip-7</masterclipid>
						<name>FILM_Loop_Grønn.mov</name>
						<enabled>TRUE</enabled>
						<duration>1000</duration>
						<rate>
							<ntsc>TRUE</ntsc>
							<timebase>30</timebase>
						</rate>
						<start>16147</start>
						<end>16619</end>
						<in>278</in>
						<out>750</out>
						<alphatype>none</alphatype>
						<file id="file-7"/>
					</clipitem>
					<clipitem id="clipitem-250" frameBlend="FALSE">
						<masterclipid>masterclip-71</masterclipid>
						<name>DUNE PROMO TRAILER JAPAN.mov</name>
						<enabled>TRUE</enabled>
						<duration>3053</duration>
						<rate>
							<ntsc>TRUE</ntsc>
							<timebase>30</timebase>
						</rate>
						<start>16699</start>
						<end>16796</end>
						<in>2679</in>
						<out>2776</out>
						<alphatype>none</alphatype>
						<file id="file-71"/>
						<link>
							<linkclipref>clipitem-250</linkclipref>
							<mediatype>video</mediatype>
							<trackindex>3</trackindex>
							<clipindex>126</clipindex>
						</link>
						<link>
							<linkclipref>clipitem-662</linkclipref>
							<mediatype>audio</mediatype>
							<trackindex>10</trackindex>
							<clipindex>55</clipindex>
							<groupindex>1</groupindex>
						</link>
						<link>
							<linkclipref>clipitem-702</linkclipref>
							<mediatype>audio</mediatype>
							<trackindex>11</trackindex>
							<clipindex>55</clipindex>
							<groupindex>1</groupindex>
						</link>
					</clipitem>
					<transitionitem>
						<start>16958</start>
						<end>16983</end>
						<alignment>start-black</alignment>
						<cutPoint>0</cutPoint>
						<rate>
							<timebase>25</timebase>
							<ntsc>FALSE</ntsc>
						</rate>
						<effect>
							<name>Cross Dissolve</name>
							<effectid>Cross Dissolve</effectid>
							<effectcategory>Dissolve</effectcategory>
							<effecttype>transition</effecttype>
							<mediatype>video</mediatype>
							<wipecode>0</wipecode>
							<wipeaccuracy>100</wipeaccuracy>
							<startratio>0</startratio>
							<endratio>1</endratio>
							<reverse>FALSE</reverse>
						</effect>
					</transitionitem>
					<clipitem id="clipitem-251" frameBlend="FALSE">
						<masterclipid>masterclip-74</masterclipid>
						<name>Vegard</name>
						<enabled>TRUE</enabled>
						<duration>1080000</duration>
						<rate>
							<timebase>30</timebase>
							<ntsc>TRUE</ntsc>
						</rate>
						<start>-1</start>
						<end>-1</end>
						<in>271372</in>
						<out>271534</out>
						<alphatype>straight</alphatype>
						<pixelaspectratio>square</pixelaspectratio>
						<anamorphic>FALSE</anamorphic>
						<file id="file-74">
							<name>Internal Title</name>
							<mediaSource>Slug</mediaSource>
							<rate>
								<timebase>30</timebase>
								<ntsc>TRUE</ntsc>
							</rate>
							<timecode>
								<rate>
									<timebase>30</timebase>
									<ntsc>TRUE</ntsc>
								</rate>
								<string>00;00;00;00</string>
								<frame>0</frame>
								<displayformat>DF</displayformat>
							</timecode>
							<media>
								<video>
									<duration>18000</duration>
									<samplecharacteristics>
										<rate>
											<timebase>30</timebase>
											<ntsc>TRUE</ntsc>
										</rate>
										<width>1920</width>
										<height>1080</height>
										<anamorphic>FALSE</anamorphic>
										<pixelaspectratio>square</pixelaspectratio>
										<fielddominance>none</fielddominance>
									</samplecharacteristics>
								</video>
							</media>
						</file>
					</clipitem>
					<transitionitem>
						<start>17095</start>
						<end>17120</end>
						<alignment>end-black</alignment>
						<cutPoint>25</cutPoint>
						<rate>
							<timebase>25</timebase>
							<ntsc>FALSE</ntsc>
						</rate>
						<effect>
							<name>Cross Dissolve</name>
							<effectid>Cross Dissolve</effectid>
							<effectcategory>Dissolve</effectcategory>
							<effecttype>transition</effecttype>
							<mediatype>video</mediatype>
							<wipecode>0</wipecode>
							<wipeaccuracy>100</wipeaccuracy>
							<startratio>0</startratio>
							<endratio>1</endratio>
							<reverse>FALSE</reverse>
						</effect>
					</transitionitem>
					<clipitem id="clipitem-252" frameBlend="FALSE">
						<masterclipid>masterclip-70</masterclipid>
						<name>The Holy Mountain.mov</name>
						<enabled>TRUE</enabled>
						<duration>5112</duration>
						<rate>
							<ntsc>TRUE</ntsc>
							<timebase>30</timebase>
						</rate>
						<start>18737</start>
						<end>19080</end>
						<in>2532</in>
						<out>2875</out>
						<alphatype>none</alphatype>
						<file id="file-70"/>
							<filter>
								<effect>
									<name>Basic Motion</name>
									<effectid>basic</effectid>
									<effectcategory>motion</effectcategory>
									<effecttype>motion</effecttype>
									<mediatype>video</mediatype>
									<parameter authoringApp="PremierePro">
										<parameterid>scale</parameterid>
										<name>Scale</name>
										<valuemin>0</valuemin>
										<valuemax>1000</valuemax>
										<value>100</value>
									</parameter>
									<parameter authoringApp="PremierePro">
										<parameterid>rotation</parameterid>
										<name>Rotation</name>
										<valuemin>-8640</valuemin>
										<valuemax>8640</valuemax>
										<value>0</value>
									</parameter>
									<parameter authoringApp="PremierePro">
										<parameterid>center</parameterid>
										<name>Center</name>
										<value>
											<horiz>0</horiz>
											<vert>0.0129629</vert>
										</value>
									</parameter>
									<parameter authoringApp="PremierePro">
										<parameterid>centerOffset</parameterid>
										<name>Anchor Point</name>
										<value>
											<horiz>0</horiz>
											<vert>0</vert>
										</value>
									</parameter>
								</effect>
							</filter>
						<link>
							<linkclipref>clipitem-252</linkclipref>
							<mediatype>video</mediatype>
							<trackindex>3</trackindex>
							<clipindex>130</clipindex>
						</link>
						<link>
							<linkclipref>clipitem-663</linkclipref>
							<mediatype>audio</mediatype>
							<trackindex>10</trackindex>
							<clipindex>56</clipindex>
							<groupindex>1</groupindex>
						</link>
						<link>
							<linkclipref>clipitem-703</linkclipref>
							<mediatype>audio</mediatype>
							<trackindex>11</trackindex>
							<clipindex>56</clipindex>
							<groupindex>1</groupindex>
						</link>
					</clipitem>
					<clipitem id="clipitem-253" frameBlend="FALSE">
						<masterclipid>masterclip-7</masterclipid>
						<name>FILM_Loop_Grønn.mov</name>
						<enabled>TRUE</enabled>
						<duration>1000</duration>
						<rate>
							<ntsc>TRUE</ntsc>
							<timebase>30</timebase>
						</rate>
						<start>19235</start>
						<end>19569</end>
						<in>278</in>
						<out>612</out>
						<alphatype>none</alphatype>
						<file id="file-7"/>
					</clipitem>
					<clipitem id="clipitem-254" frameBlend="FALSE">
						<masterclipid>masterclip-75</masterclipid>
						<name>Jodorowsky_s Dune Trailer.mov</name>
						<enabled>TRUE</enabled>
						<duration>2835</duration>
						<rate>
							<timebase>25</timebase>
							<ntsc>FALSE</ntsc>
						</rate>
						<start>19569</start>
						<end>19700</end>
						<in>1650</in>
						<out>1781</out>
						<alphatype>none</alphatype>
						<pixelaspectratio>square</pixelaspectratio>
						<anamorphic>FALSE</anamorphic>
						<file id="file-75">
							<name>Jodorowsky_s Dune Trailer.mov</name>
							<pathurl>file://localhost/Volumes/Scenen/Prosjekter/FILM/FILM%201413%20Jodorowsky%20BW/DVD%20rips/Jodorowsky_s%20Dune%20Trailer.mov</pathurl>
							<rate>
								<timebase>25</timebase>
								<ntsc>FALSE</ntsc>
							</rate>
							<duration>2835</duration>
							<timecode>
								<rate>
									<timebase>25</timebase>
									<ntsc>FALSE</ntsc>
								</rate>
								<string>00:00:00:00</string>
								<frame>0</frame>
								<displayformat>NDF</displayformat>
							</timecode>
							<media>
								<video>
									<duration>18000</duration>
									<samplecharacteristics>
										<rate>
											<timebase>25</timebase>
											<ntsc>FALSE</ntsc>
										</rate>
										<width>1920</width>
										<height>1080</height>
										<anamorphic>FALSE</anamorphic>
										<pixelaspectratio>square</pixelaspectratio>
										<fielddominance>lower</fielddominance>
									</samplecharacteristics>
								</video>
								<audio>
									<samplecharacteristics>
										<depth>16</depth>
										<samplerate>48000</samplerate>
									</samplecharacteristics>
									<channelcount>2</channelcount>
								</audio>
							</media>
						</file>
					</clipitem>
					<clipitem id="clipitem-255" frameBlend="FALSE">
						<masterclipid>masterclip-76</masterclipid>
						<name>alien_åpningsscene.mov</name>
						<enabled>TRUE</enabled>
						<duration>5256</duration>
						<rate>
							<timebase>25</timebase>
							<ntsc>FALSE</ntsc>
						</rate>
						<start>19914</start>
						<end>20457</end>
						<in>244</in>
						<out>787</out>
						<alphatype>none</alphatype>
						<pixelaspectratio>square</pixelaspectratio>
						<anamorphic>FALSE</anamorphic>
						<file id="file-76">
							<name>alien_åpningsscene.mov</name>
							<pathurl>file://localhost/Volumes/Scenen/Utveksling/FILM/DVD%20rip%20og%20EPK/Alien/alien_a%cc%8apningsscene.mov</pathurl>
							<rate>
								<timebase>25</timebase>
								<ntsc>FALSE</ntsc>
							</rate>
							<duration>5256</duration>
							<timecode>
								<rate>
									<timebase>25</timebase>
									<ntsc>FALSE</ntsc>
								</rate>
								<string>00:02:29:13</string>
								<frame>3738</frame>
								<displayformat>NDF</displayformat>
							</timecode>
							<media>
								<video>
									<duration>18000</duration>
									<samplecharacteristics>
										<rate>
											<timebase>25</timebase>
											<ntsc>FALSE</ntsc>
										</rate>
										<width>1920</width>
										<height>1080</height>
										<anamorphic>FALSE</anamorphic>
										<pixelaspectratio>square</pixelaspectratio>
										<fielddominance>none</fielddominance>
									</samplecharacteristics>
								</video>
								<audio>
									<samplecharacteristics>
										<depth>16</depth>
										<samplerate>48000</samplerate>
									</samplecharacteristics>
									<channelcount>2</channelcount>
								</audio>
							</media>
						</file>
						<link>
							<linkclipref>clipitem-255</linkclipref>
							<mediatype>video</mediatype>
							<trackindex>3</trackindex>
							<clipindex>133</clipindex>
						</link>
						<link>
							<linkclipref>clipitem-664</linkclipref>
							<mediatype>audio</mediatype>
							<trackindex>10</trackindex>
							<clipindex>59</clipindex>
							<groupindex>1</groupindex>
						</link>
						<link>
							<linkclipref>clipitem-704</linkclipref>
							<mediatype>audio</mediatype>
							<trackindex>11</trackindex>
							<clipindex>59</clipindex>
							<groupindex>1</groupindex>
						</link>
					</clipitem>
					<clipitem id="clipitem-256" frameBlend="FALSE">
						<masterclipid>masterclip-77</masterclipid>
						<name>star_wars_25fps.mov</name>
						<enabled>TRUE</enabled>
						<duration>5377</duration>
						<rate>
							<timebase>25</timebase>
							<ntsc>FALSE</ntsc>
						</rate>
						<start>20851</start>
						<end>21027</end>
						<in>355</in>
						<out>531</out>
						<alphatype>none</alphatype>
						<pixelaspectratio>square</pixelaspectratio>
						<anamorphic>FALSE</anamorphic>
						<file id="file-77">
							<name>star_wars_25fps.mov</name>
							<pathurl>file://localhost/Volumes/Scenen/Utveksling/FILM/DVD%20rip%20og%20EPK/Star%20Wars/star_wars_25fps.mov</pathurl>
							<rate>
								<timebase>25</timebase>
								<ntsc>FALSE</ntsc>
							</rate>
							<duration>5377</duration>
							<timecode>
								<rate>
									<timebase>25</timebase>
									<ntsc>FALSE</ntsc>
								</rate>
								<string>00:23:02:00</string>
								<frame>34550</frame>
								<displayformat>NDF</displayformat>
							</timecode>
							<media>
								<video>
									<duration>18000</duration>
									<samplecharacteristics>
										<rate>
											<timebase>25</timebase>
											<ntsc>FALSE</ntsc>
										</rate>
										<width>1920</width>
										<height>1080</height>
										<anamorphic>FALSE</anamorphic>
										<pixelaspectratio>square</pixelaspectratio>
										<fielddominance>none</fielddominance>
									</samplecharacteristics>
								</video>
								<audio>
									<samplecharacteristics>
										<depth>16</depth>
										<samplerate>88200</samplerate>
									</samplecharacteristics>
									<channelcount>2</channelcount>
								</audio>
							</media>
						</file>
						<link>
							<linkclipref>clipitem-256</linkclipref>
							<mediatype>video</mediatype>
							<trackindex>3</trackindex>
							<clipindex>134</clipindex>
						</link>
						<link>
							<linkclipref>clipitem-665</linkclipref>
							<mediatype>audio</mediatype>
							<trackindex>10</trackindex>
							<clipindex>62</clipindex>
							<groupindex>1</groupindex>
						</link>
						<link>
							<linkclipref>clipitem-705</linkclipref>
							<mediatype>audio</mediatype>
							<trackindex>11</trackindex>
							<clipindex>62</clipindex>
							<groupindex>1</groupindex>
						</link>
					</clipitem>
					<clipitem id="clipitem-257" frameBlend="FALSE">
						<masterclipid>masterclip-7</masterclipid>
						<name>FILM_Loop_Grønn.mov</name>
						<enabled>TRUE</enabled>
						<duration>1000</duration>
						<rate>
							<ntsc>TRUE</ntsc>
							<timebase>30</timebase>
						</rate>
						<start>21366</start>
						<end>21545</end>
						<in>517</in>
						<out>696</out>
						<alphatype>none</alphatype>
						<file id="file-7"/>
					</clipitem>
					<clipitem id="clipitem-258" frameBlend="FALSE">
						<masterclipid>masterclip-78</masterclipid>
						<name>dune_25fps.mov</name>
						<enabled>TRUE</enabled>
						<duration>22506</duration>
						<rate>
							<timebase>24</timebase>
							<ntsc>TRUE</ntsc>
						</rate>
						<start>23744</start>
						<end>24552</end>
						<in>17066</in>
						<out>17874</out>
						<alphatype>none</alphatype>
						<pixelaspectratio>square</pixelaspectratio>
						<anamorphic>FALSE</anamorphic>
						<file id="file-78">
							<name>dune_25fps.mov</name>
							<pathurl>file://localhost/Volumes/Scenen/Utveksling/FILM/DVD%20rip%20og%20EPK/dune_25fps.mov</pathurl>
							<rate>
								<timebase>24</timebase>
								<ntsc>TRUE</ntsc>
							</rate>
							<duration>21585</duration>
							<timecode>
								<rate>
									<timebase>24</timebase>
									<ntsc>TRUE</ntsc>
								</rate>
								<string>00:00:00:00</string>
								<frame>0</frame>
								<displayformat>NDF</displayformat>
							</timecode>
							<media>
								<video>
									<duration>18000</duration>
									<samplecharacteristics>
										<rate>
											<timebase>24</timebase>
											<ntsc>TRUE</ntsc>
										</rate>
										<width>1920</width>
										<height>1080</height>
										<anamorphic>FALSE</anamorphic>
										<pixelaspectratio>square</pixelaspectratio>
										<fielddominance>none</fielddominance>
									</samplecharacteristics>
								</video>
								<audio>
									<samplecharacteristics>
										<depth>16</depth>
										<samplerate>48000</samplerate>
									</samplecharacteristics>
									<channelcount>2</channelcount>
								</audio>
							</media>
						</file>
							<filter>
								<effect>
									<name>Basic Motion</name>
									<effectid>basic</effectid>
									<effectcategory>motion</effectcategory>
									<effecttype>motion</effecttype>
									<mediatype>video</mediatype>
									<parameter authoringApp="PremierePro">
										<parameterid>scale</parameterid>
										<name>Scale</name>
										<valuemin>0</valuemin>
										<valuemax>1000</valuemax>
										<value>100</value>
									</parameter>
									<parameter authoringApp="PremierePro">
										<parameterid>rotation</parameterid>
										<name>Rotation</name>
										<valuemin>-8640</valuemin>
										<valuemax>8640</valuemax>
										<value>0</value>
									</parameter>
									<parameter authoringApp="PremierePro">
										<parameterid>center</parameterid>
										<name>Center</name>
										<value>
											<horiz>-1.18424e-16</horiz>
											<vert>0.0518868</vert>
										</value>
									</parameter>
									<parameter authoringApp="PremierePro">
										<parameterid>centerOffset</parameterid>
										<name>Anchor Point</name>
										<value>
											<horiz>0</horiz>
											<vert>0</vert>
										</value>
									</parameter>
								</effect>
							</filter>
						<link>
							<linkclipref>clipitem-258</linkclipref>
							<mediatype>video</mediatype>
							<trackindex>3</trackindex>
							<clipindex>136</clipindex>
						</link>
						<link>
							<linkclipref>clipitem-666</linkclipref>
							<mediatype>audio</mediatype>
							<trackindex>10</trackindex>
							<clipindex>64</clipindex>
							<groupindex>1</groupindex>
						</link>
						<link>
							<linkclipref>clipitem-706</linkclipref>
							<mediatype>audio</mediatype>
							<trackindex>11</trackindex>
							<clipindex>64</clipindex>
							<groupindex>1</groupindex>
						</link>
					</clipitem>
					<clipitem id="clipitem-259" frameBlend="FALSE">
						<masterclipid>masterclip-79</masterclipid>
						<name>FILM_Break_ufo.mov</name>
						<enabled>TRUE</enabled>
						<duration>201</duration>
						<rate>
							<timebase>25</timebase>
							<ntsc>FALSE</ntsc>
						</rate>
						<start>24552</start>
						<end>24728</end>
						<in>0</in>
						<out>176</out>
						<alphatype>none</alphatype>
						<pixelaspectratio>square</pixelaspectratio>
						<anamorphic>FALSE</anamorphic>
						<file id="file-79">
							<name>FILM_Break_ufo.mov</name>
							<pathurl>file://localhost/Volumes/Scenen/Prosjekter/FILM/AA%20FILM%20Grafikk%20Premiere%20Pro%20haust%202013%20BW/Video/Filmbonanza%20Bumpere%20H%c3%b8st%202011/FILM_Break_ufo.mov</pathurl>
							<rate>
								<timebase>25</timebase>
								<ntsc>FALSE</ntsc>
							</rate>
							<duration>201</duration>
							<timecode>
								<rate>
									<timebase>25</timebase>
									<ntsc>FALSE</ntsc>
								</rate>
								<string>00:00:12:10</string>
								<frame>310</frame>
								<displayformat>NDF</displayformat>
							</timecode>
							<media>
								<video>
									<duration>18000</duration>
									<samplecharacteristics>
										<rate>
											<timebase>25</timebase>
											<ntsc>FALSE</ntsc>
										</rate>
										<width>1920</width>
										<height>1080</height>
										<anamorphic>FALSE</anamorphic>
										<pixelaspectratio>square</pixelaspectratio>
										<fielddominance>none</fielddominance>
									</samplecharacteristics>
								</video>
								<audio>
									<samplecharacteristics>
										<depth>16</depth>
										<samplerate>48000</samplerate>
									</samplecharacteristics>
									<channelcount>2</channelcount>
								</audio>
							</media>
						</file>
						<link>
							<linkclipref>clipitem-259</linkclipref>
							<mediatype>video</mediatype>
							<trackindex>3</trackindex>
							<clipindex>137</clipindex>
						</link>
						<link>
							<linkclipref>clipitem-723</linkclipref>
							<mediatype>audio</mediatype>
							<trackindex>12</trackindex>
							<clipindex>22</clipindex>
							<groupindex>1</groupindex>
						</link>
						<link>
							<linkclipref>clipitem-733</linkclipref>
							<mediatype>audio</mediatype>
							<trackindex>13</trackindex>
							<clipindex>22</clipindex>
							<groupindex>1</groupindex>
						</link>
					</clipitem>
					<clipitem id="clipitem-260" frameBlend="FALSE">
						<masterclipid>masterclip-80</masterclipid>
						<name>mktf-film-erikpoppe-r11.MXF</name>
						<enabled>FALSE</enabled>
						<duration>4596</duration>
						<rate>
							<timebase>25</timebase>
							<ntsc>FALSE</ntsc>
						</rate>
						<start>25229</start>
						<end>25304</end>
						<in>450</in>
						<out>525</out>
						<alphatype>none</alphatype>
						<pixelaspectratio>square</pixelaspectratio>
						<anamorphic>FALSE</anamorphic>
						<file id="file-80">
							<name>mktf-film-erikpoppe-r11.MXF</name>
							<pathurl>file://localhost/Volumes/omfs/clip.dir/MXF/1080i/mktf-film-erikpoppe-r11.MXF</pathurl>
							<rate>
								<timebase>25</timebase>
								<ntsc>FALSE</ntsc>
							</rate>
							<duration>4596</duration>
							<timecode>
								<rate>
									<timebase>25</timebase>
									<ntsc>FALSE</ntsc>
								</rate>
								<string>12:35:16:10</string>
								<frame>1132910</frame>
								<displayformat>NDF</displayformat>
							</timecode>
							<media>
								<video>
									<duration>18000</duration>
									<samplecharacteristics>
										<rate>
											<timebase>25</timebase>
											<ntsc>FALSE</ntsc>
										</rate>
										<width>1920</width>
										<height>1080</height>
										<anamorphic>FALSE</anamorphic>
										<pixelaspectratio>square</pixelaspectratio>
										<fielddominance>none</fielddominance>
									</samplecharacteristics>
								</video>
								<audio>
									<samplecharacteristics>
										<depth>16</depth>
										<samplerate>48000</samplerate>
									</samplecharacteristics>
									<channelcount>1</channelcount>
									<layout>mono</layout>
									<audiochannel>
										<sourcechannel>1</sourcechannel>
										<channellabel>discrete</channellabel>
									</audiochannel>
								</audio>
								<audio>
									<samplecharacteristics>
										<depth>16</depth>
										<samplerate>48000</samplerate>
									</samplecharacteristics>
									<channelcount>1</channelcount>
									<layout>mono</layout>
									<audiochannel>
										<sourcechannel>2</sourcechannel>
										<channellabel>discrete</channellabel>
									</audiochannel>
								</audio>
							</media>
						</file>
					</clipitem>
					<transitionitem>
						<start>25498</start>
						<end>25523</end>
						<alignment>start-black</alignment>
						<cutPoint>0</cutPoint>
						<rate>
							<timebase>25</timebase>
							<ntsc>FALSE</ntsc>
						</rate>
						<effect>
							<name>Cross Dissolve</name>
							<effectid>Cross Dissolve</effectid>
							<effectcategory>Dissolve</effectcategory>
							<effecttype>transition</effecttype>
							<mediatype>video</mediatype>
							<wipecode>0</wipecode>
							<wipeaccuracy>100</wipeaccuracy>
							<startratio>0</startratio>
							<endratio>1</endratio>
							<reverse>FALSE</reverse>
						</effect>
					</transitionitem>
					<clipitem id="clipitem-261" frameBlend="FALSE">
						<masterclipid>masterclip-81</masterclipid>
						<name>Supermal Høst 2013 Copy 14</name>
						<enabled>TRUE</enabled>
						<duration>1080000</duration>
						<rate>
							<timebase>30</timebase>
							<ntsc>TRUE</ntsc>
						</rate>
						<start>-1</start>
						<end>-1</end>
						<in>91374</in>
						<out>91519</out>
						<alphatype>straight</alphatype>
						<pixelaspectratio>square</pixelaspectratio>
						<anamorphic>FALSE</anamorphic>
						<file id="file-81">
							<name>Internal Title</name>
							<mediaSource>Slug</mediaSource>
							<rate>
								<timebase>30</timebase>
								<ntsc>TRUE</ntsc>
							</rate>
							<timecode>
								<rate>
									<timebase>30</timebase>
									<ntsc>TRUE</ntsc>
								</rate>
								<string>00;00;00;00</string>
								<frame>0</frame>
								<displayformat>DF</displayformat>
							</timecode>
							<media>
								<video>
									<duration>18000</duration>
									<samplecharacteristics>
										<rate>
											<timebase>30</timebase>
											<ntsc>TRUE</ntsc>
										</rate>
										<width>1920</width>
										<height>1080</height>
										<anamorphic>FALSE</anamorphic>
										<pixelaspectratio>square</pixelaspectratio>
										<fielddominance>none</fielddominance>
									</samplecharacteristics>
								</video>
							</media>
						</file>
					</clipitem>
					<transitionitem>
						<start>25618</start>
						<end>25643</end>
						<alignment>end-black</alignment>
						<cutPoint>25</cutPoint>
						<rate>
							<timebase>25</timebase>
							<ntsc>FALSE</ntsc>
						</rate>
						<effect>
							<name>Cross Dissolve</name>
							<effectid>Cross Dissolve</effectid>
							<effectcategory>Dissolve</effectcategory>
							<effecttype>transition</effecttype>
							<mediatype>video</mediatype>
							<wipecode>0</wipecode>
							<wipeaccuracy>100</wipeaccuracy>
							<startratio>0</startratio>
							<endratio>1</endratio>
							<reverse>FALSE</reverse>
						</effect>
					</transitionitem>
					<clipitem id="clipitem-262" frameBlend="FALSE">
						<masterclipid>masterclip-82</masterclipid>
						<name>KOIF40000007AA.mxf</name>
						<enabled>TRUE</enabled>
						<duration>173875</duration>
						<rate>
							<timebase>25</timebase>
							<ntsc>FALSE</ntsc>
						</rate>
						<start>26000</start>
						<end>26273</end>
						<in>64702</in>
						<out>64975</out>
						<alphatype>none</alphatype>
						<pixelaspectratio>PAL-601</pixelaspectratio>
						<anamorphic>FALSE</anamorphic>
						<file id="file-82">
							<name>KOIF40000007AA.mxf</name>
							<pathurl>file://localhost/Volumes/omfs/clip.dir/MXF/576i/KOIF40000007AA.mxf</pathurl>
							<rate>
								<timebase>25</timebase>
								<ntsc>FALSE</ntsc>
							</rate>
							<duration>173875</duration>
							<timecode>
								<rate>
									<timebase>25</timebase>
									<ntsc>FALSE</ntsc>
								</rate>
								<string>00:01:58:00</string>
								<frame>2950</frame>
								<displayformat>NDF</displayformat>
							</timecode>
							<media>
								<video>
									<duration>18000</duration>
									<samplecharacteristics>
										<rate>
											<timebase>25</timebase>
											<ntsc>FALSE</ntsc>
										</rate>
										<width>720</width>
										<height>576</height>
										<anamorphic>FALSE</anamorphic>
										<pixelaspectratio>PAL-601</pixelaspectratio>
										<fielddominance>upper</fielddominance>
									</samplecharacteristics>
								</video>
								<audio>
									<samplecharacteristics>
										<depth>16</depth>
										<samplerate>48000</samplerate>
									</samplecharacteristics>
									<channelcount>2</channelcount>
								</audio>
							</media>
						</file>
							<filter>
								<effect>
									<name>Basic Motion</name>
									<effectid>basic</effectid>
									<effectcategory>motion</effectcategory>
									<effecttype>motion</effecttype>
									<mediatype>video</mediatype>
									<parameter authoringApp="PremierePro">
										<parameterid>scale</parameterid>
										<name>Scale</name>
										<valuemin>0</valuemin>
										<valuemax>1000</valuemax>
										<value>250</value>
									</parameter>
									<parameter authoringApp="PremierePro">
										<parameterid>rotation</parameterid>
										<name>Rotation</name>
										<valuemin>-8640</valuemin>
										<valuemax>8640</valuemax>
										<value>0</value>
									</parameter>
									<parameter authoringApp="PremierePro">
										<parameterid>center</parameterid>
										<name>Center</name>
										<value>
											<horiz>0</horiz>
											<vert>0</vert>
										</value>
									</parameter>
									<parameter authoringApp="PremierePro">
										<parameterid>centerOffset</parameterid>
										<name>Anchor Point</name>
										<value>
											<horiz>0</horiz>
											<vert>0</vert>
										</value>
									</parameter>
								</effect>
							</filter>
							<filter>
								<effect>
									<name>Distort</name>
									<effectid>deformation</effectid>
									<effectcategory>motion</effectcategory>
									<effecttype>motion</effecttype>
									<mediatype>video</mediatype>
									<parameter authoringApp="PremierePro">
										<parameterid>aspect</parameterid>
										<name>Aspect</name>
										<valuemin>-10000</valuemin>
										<valuemax>10000</valuemax>
										<value>-9.40171</value>
									</parameter>
								</effect>
							</filter>
					</clipitem>
					<clipitem id="clipitem-263" frameBlend="FALSE">
						<masterclipid>masterclip-83</masterclipid>
						<name>1000 ganger godnatt klipp3.mov</name>
						<enabled>TRUE</enabled>
						<duration>6215</duration>
						<rate>
							<timebase>24</timebase>
							<ntsc>FALSE</ntsc>
						</rate>
						<start>27914</start>
						<end>28733</end>
						<in>214</in>
						<out>1033</out>
						<alphatype>none</alphatype>
						<pixelaspectratio>square</pixelaspectratio>
						<anamorphic>FALSE</anamorphic>
						<file id="file-83">
							<name>1000 ganger godnatt klipp3.mov</name>
							<pathurl>file://localhost/Volumes/Scenen/Utveksling/FILM/DVD%20rip%20og%20EPK/1000%20ganger%20godnatt/1000%20ganger%20godnatt%20klipp3.mov</pathurl>
							<rate>
								<timebase>24</timebase>
								<ntsc>FALSE</ntsc>
							</rate>
							<duration>5967</duration>
							<timecode>
								<rate>
									<timebase>24</timebase>
									<ntsc>FALSE</ntsc>
								</rate>
								<string>03:38:56:20</string>
								<frame>315284</frame>
								<displayformat>NDF</displayformat>
							</timecode>
							<media>
								<video>
									<duration>18000</duration>
									<samplecharacteristics>
										<rate>
											<timebase>24</timebase>
											<ntsc>FALSE</ntsc>
										</rate>
										<width>1920</width>
										<height>1080</height>
										<anamorphic>FALSE</anamorphic>
										<pixelaspectratio>square</pixelaspectratio>
										<fielddominance>none</fielddominance>
									</samplecharacteristics>
								</video>
								<audio>
									<samplecharacteristics>
										<depth>16</depth>
										<samplerate>48000</samplerate>
									</samplecharacteristics>
									<channelcount>2</channelcount>
								</audio>
							</media>
						</file>
							<filter>
								<effect>
									<name>Crop</name>
									<effectid>crop</effectid>
									<effectcategory>motion</effectcategory>
									<effecttype>motion</effecttype>
									<mediatype>video</mediatype>
									<parameter authoringApp="PremierePro">
										<parameterid>left</parameterid>
										<name>left</name>
										<valuemin>0</valuemin>
										<valuemax>100</valuemax>
										<value>0</value>
									</parameter>
									<parameter authoringApp="PremierePro">
										<parameterid>right</parameterid>
										<name>right</name>
										<valuemin>0</valuemin>
										<valuemax>100</valuemax>
										<value>0</value>
									</parameter>
									<parameter authoringApp="PremierePro">
										<parameterid>top</parameterid>
										<name>top</name>
										<valuemin>0</valuemin>
										<valuemax>100</valuemax>
										<value>0</value>
									</parameter>
									<parameter authoringApp="PremierePro">
										<parameterid>bottom</parameterid>
										<name>bottom</name>
										<valuemin>0</valuemin>
										<valuemax>100</valuemax>
										<value>12</value>
									</parameter>
								</effect>
							</filter>
						<link>
							<linkclipref>clipitem-263</linkclipref>
							<mediatype>video</mediatype>
							<trackindex>3</trackindex>
							<clipindex>143</clipindex>
						</link>
						<link>
							<linkclipref>clipitem-667</linkclipref>
							<mediatype>audio</mediatype>
							<trackindex>10</trackindex>
							<clipindex>66</clipindex>
							<groupindex>1</groupindex>
						</link>
						<link>
							<linkclipref>clipitem-707</linkclipref>
							<mediatype>audio</mediatype>
							<trackindex>11</trackindex>
							<clipindex>66</clipindex>
							<groupindex>1</groupindex>
						</link>
					</clipitem>
					<clipitem id="clipitem-264" frameBlend="FALSE">
						<masterclipid>masterclip-83</masterclipid>
						<name>1000 ganger godnatt klipp3.mov</name>
						<enabled>TRUE</enabled>
						<duration>6215</duration>
						<rate>
							<ntsc>TRUE</ntsc>
							<timebase>30</timebase>
						</rate>
						<start>31005</start>
						<end>31228</end>
						<in>5605</in>
						<out>5828</out>
						<alphatype>none</alphatype>
						<file id="file-83"/>
							<filter>
								<effect>
									<name>Crop</name>
									<effectid>crop</effectid>
									<effectcategory>motion</effectcategory>
									<effecttype>motion</effecttype>
									<mediatype>video</mediatype>
									<parameter authoringApp="PremierePro">
										<parameterid>left</parameterid>
										<name>left</name>
										<valuemin>0</valuemin>
										<valuemax>100</valuemax>
										<value>0</value>
									</parameter>
									<parameter authoringApp="PremierePro">
										<parameterid>right</parameterid>
										<name>right</name>
										<valuemin>0</valuemin>
										<valuemax>100</valuemax>
										<value>0</value>
									</parameter>
									<parameter authoringApp="PremierePro">
										<parameterid>top</parameterid>
										<name>top</name>
										<valuemin>0</valuemin>
										<valuemax>100</valuemax>
										<value>0</value>
									</parameter>
									<parameter authoringApp="PremierePro">
										<parameterid>bottom</parameterid>
										<name>bottom</name>
										<valuemin>0</valuemin>
										<valuemax>100</valuemax>
										<value>12</value>
									</parameter>
								</effect>
							</filter>
						<link>
							<linkclipref>clipitem-264</linkclipref>
							<mediatype>video</mediatype>
							<trackindex>3</trackindex>
							<clipindex>144</clipindex>
						</link>
						<link>
							<linkclipref>clipitem-668</linkclipref>
							<mediatype>audio</mediatype>
							<trackindex>10</trackindex>
							<clipindex>68</clipindex>
							<groupindex>1</groupindex>
						</link>
						<link>
							<linkclipref>clipitem-708</linkclipref>
							<mediatype>audio</mediatype>
							<trackindex>11</trackindex>
							<clipindex>68</clipindex>
							<groupindex>1</groupindex>
						</link>
					</clipitem>
					<clipitem id="clipitem-265" frameBlend="FALSE">
						<masterclipid>masterclip-84</masterclipid>
						<name>FILM_Break_up.mov</name>
						<enabled>TRUE</enabled>
						<duration>242</duration>
						<rate>
							<timebase>25</timebase>
							<ntsc>FALSE</ntsc>
						</rate>
						<start>33799</start>
						<end>33937</end>
						<in>35</in>
						<out>173</out>
						<alphatype>none</alphatype>
						<pixelaspectratio>square</pixelaspectratio>
						<anamorphic>FALSE</anamorphic>
						<file id="file-84">
							<name>FILM_Break_up.mov</name>
							<pathurl>file://localhost/Volumes/Scenen/Prosjekter/FILM/FILM%200110%20Mastere%20Grafikk%20og%20Lyd%20Filmbonanza%20GI%20010112/Video/Filmbonanza%20Bumpere%20H%c3%b8st%202011/FILM_Break_up.mov</pathurl>
							<rate>
								<timebase>25</timebase>
								<ntsc>FALSE</ntsc>
							</rate>
							<duration>242</duration>
							<timecode>
								<rate>
									<timebase>25</timebase>
									<ntsc>FALSE</ntsc>
								</rate>
								<string>00:00:29:03</string>
								<frame>728</frame>
								<displayformat>NDF</displayformat>
							</timecode>
							<media>
								<video>
									<duration>18000</duration>
									<samplecharacteristics>
										<rate>
											<timebase>25</timebase>
											<ntsc>FALSE</ntsc>
										</rate>
										<width>1920</width>
										<height>1080</height>
										<anamorphic>FALSE</anamorphic>
										<pixelaspectratio>square</pixelaspectratio>
										<fielddominance>none</fielddominance>
									</samplecharacteristics>
								</video>
								<audio>
									<samplecharacteristics>
										<depth>16</depth>
										<samplerate>48000</samplerate>
									</samplecharacteristics>
									<channelcount>2</channelcount>
								</audio>
							</media>
						</file>
						<link>
							<linkclipref>clipitem-265</linkclipref>
							<mediatype>video</mediatype>
							<trackindex>3</trackindex>
							<clipindex>145</clipindex>
						</link>
						<link>
							<linkclipref>clipitem-538</linkclipref>
							<mediatype>audio</mediatype>
							<trackindex>3</trackindex>
							<clipindex>3</clipindex>
							<groupindex>1</groupindex>
						</link>
						<link>
							<linkclipref>clipitem-541</linkclipref>
							<mediatype>audio</mediatype>
							<trackindex>4</trackindex>
							<clipindex>3</clipindex>
							<groupindex>1</groupindex>
						</link>
					</clipitem>
					<clipitem id="clipitem-266" frameBlend="FALSE">
						<masterclipid>masterclip-85</masterclipid>
						<name>lev-landau-03.jpg</name>
						<enabled>TRUE</enabled>
						<duration>1080000</duration>
						<rate>
							<timebase>30</timebase>
							<ntsc>TRUE</ntsc>
						</rate>
						<start>34134</start>
						<end>34214</end>
						<in>90044</in>
						<out>90124</out>
						<alphatype>none</alphatype>
						<pixelaspectratio>square</pixelaspectratio>
						<anamorphic>FALSE</anamorphic>
						<file id="file-85">
							<name>lev-landau-03.jpg</name>
							<pathurl>file://localhost/Volumes/Scenen/Prosjekter/FILM/FILM%20XX13%20Kjartan%20Opptak%20Russland%20Oktober%202013/Photoshop%20%3a%20Bilder/lev-landau-03.jpg</pathurl>
							<rate>
								<timebase>30</timebase>
								<ntsc>TRUE</ntsc>
							</rate>
							<timecode>
								<rate>
									<timebase>30</timebase>
									<ntsc>TRUE</ntsc>
								</rate>
								<string>00;00;00;00</string>
								<frame>0</frame>
								<displayformat>DF</displayformat>
							</timecode>
							<media>
								<video>
									<duration>18000</duration>
									<samplecharacteristics>
										<rate>
											<timebase>30</timebase>
											<ntsc>TRUE</ntsc>
										</rate>
										<width>548</width>
										<height>768</height>
										<anamorphic>FALSE</anamorphic>
										<pixelaspectratio>square</pixelaspectratio>
										<fielddominance>none</fielddominance>
									</samplecharacteristics>
								</video>
							</media>
						</file>
							<filter>
								<effect>
									<name>Basic Motion</name>
									<effectid>basic</effectid>
									<effectcategory>motion</effectcategory>
									<effecttype>motion</effecttype>
									<mediatype>video</mediatype>
									<parameter authoringApp="PremierePro">
										<parameterid>scale</parameterid>
										<name>Scale</name>
										<valuemin>0</valuemin>
										<valuemax>1000</valuemax>
										<value>118</value>
									</parameter>
									<parameter authoringApp="PremierePro">
										<parameterid>rotation</parameterid>
										<name>Rotation</name>
										<valuemin>-8640</valuemin>
										<valuemax>8640</valuemax>
										<value>0</value>
									</parameter>
									<parameter authoringApp="PremierePro">
										<parameterid>center</parameterid>
										<name>Center</name>
										<value>
											<horiz>0</horiz>
											<vert>0</vert>
										</value>
									</parameter>
									<parameter authoringApp="PremierePro">
										<parameterid>centerOffset</parameterid>
										<name>Anchor Point</name>
										<value>
											<horiz>0</horiz>
											<vert>0</vert>
										</value>
									</parameter>
								</effect>
							</filter>
					</clipitem>
					<clipitem id="clipitem-267" frameBlend="FALSE">
						<masterclipid>masterclip-33</masterclipid>
						<name>FILM_Loop_Rød.mov</name>
						<enabled>TRUE</enabled>
						<duration>1000</duration>
						<rate>
							<ntsc>TRUE</ntsc>
							<timebase>30</timebase>
						</rate>
						<start>34679</start>
						<end>35284</end>
						<in>70</in>
						<out>675</out>
						<alphatype>none</alphatype>
						<file id="file-33"/>
					</clipitem>
					<transitionitem>
						<start>35306</start>
						<end>35331</end>
						<alignment>start-black</alignment>
						<cutPoint>0</cutPoint>
						<rate>
							<timebase>25</timebase>
							<ntsc>FALSE</ntsc>
						</rate>
						<effect>
							<name>Cross Dissolve</name>
							<effectid>Cross Dissolve</effectid>
							<effectcategory>Dissolve</effectcategory>
							<effecttype>transition</effecttype>
							<mediatype>video</mediatype>
							<wipecode>0</wipecode>
							<wipeaccuracy>100</wipeaccuracy>
							<startratio>0</startratio>
							<endratio>1</endratio>
							<reverse>FALSE</reverse>
						</effect>
					</transitionitem>
					<clipitem id="clipitem-268" frameBlend="FALSE">
						<masterclipid>masterclip-86</masterclipid>
						<name>Supermal Høst 2013 Copy 10</name>
						<enabled>TRUE</enabled>
						<duration>1080000</duration>
						<rate>
							<timebase>30</timebase>
							<ntsc>TRUE</ntsc>
						</rate>
						<start>-1</start>
						<end>-1</end>
						<in>91374</in>
						<out>91519</out>
						<alphatype>straight</alphatype>
						<pixelaspectratio>square</pixelaspectratio>
						<anamorphic>FALSE</anamorphic>
						<file id="file-86">
							<name>Internal Title</name>
							<mediaSource>Slug</mediaSource>
							<rate>
								<timebase>30</timebase>
								<ntsc>TRUE</ntsc>
							</rate>
							<timecode>
								<rate>
									<timebase>30</timebase>
									<ntsc>TRUE</ntsc>
								</rate>
								<string>00;00;00;00</string>
								<frame>0</frame>
								<displayformat>DF</displayformat>
							</timecode>
							<media>
								<video>
									<duration>18000</duration>
									<samplecharacteristics>
										<rate>
											<timebase>30</timebase>
											<ntsc>TRUE</ntsc>
										</rate>
										<width>1920</width>
										<height>1080</height>
										<anamorphic>FALSE</anamorphic>
										<pixelaspectratio>square</pixelaspectratio>
										<fielddominance>none</fielddominance>
									</samplecharacteristics>
								</video>
							</media>
						</file>
					</clipitem>
					<transitionitem>
						<start>35426</start>
						<end>35451</end>
						<alignment>end-black</alignment>
						<cutPoint>25</cutPoint>
						<rate>
							<timebase>25</timebase>
							<ntsc>FALSE</ntsc>
						</rate>
						<effect>
							<name>Cross Dissolve</name>
							<effectid>Cross Dissolve</effectid>
							<effectcategory>Dissolve</effectcategory>
							<effecttype>transition</effecttype>
							<mediatype>video</mediatype>
							<wipecode>0</wipecode>
							<wipeaccuracy>100</wipeaccuracy>
							<startratio>0</startratio>
							<endratio>1</endratio>
							<reverse>FALSE</reverse>
						</effect>
					</transitionitem>
					<transitionitem>
						<start>35598</start>
						<end>35623</end>
						<alignment>start-black</alignment>
						<cutPoint>0</cutPoint>
						<rate>
							<timebase>25</timebase>
							<ntsc>FALSE</ntsc>
						</rate>
						<effect>
							<name>Cross Dissolve</name>
							<effectid>Cross Dissolve</effectid>
							<effectcategory>Dissolve</effectcategory>
							<effecttype>transition</effecttype>
							<mediatype>video</mediatype>
							<wipecode>0</wipecode>
							<wipeaccuracy>100</wipeaccuracy>
							<startratio>0</startratio>
							<endratio>1</endratio>
							<reverse>FALSE</reverse>
						</effect>
					</transitionitem>
					<clipitem id="clipitem-269" frameBlend="FALSE">
						<masterclipid>masterclip-87</masterclipid>
						<name>Supermal Høst 2013 Copy 13</name>
						<enabled>TRUE</enabled>
						<duration>1080000</duration>
						<rate>
							<timebase>30</timebase>
							<ntsc>TRUE</ntsc>
						</rate>
						<start>-1</start>
						<end>-1</end>
						<in>91374</in>
						<out>91519</out>
						<alphatype>straight</alphatype>
						<pixelaspectratio>square</pixelaspectratio>
						<anamorphic>FALSE</anamorphic>
						<file id="file-87">
							<name>Internal Title</name>
							<mediaSource>Slug</mediaSource>
							<rate>
								<timebase>30</timebase>
								<ntsc>TRUE</ntsc>
							</rate>
							<timecode>
								<rate>
									<timebase>30</timebase>
									<ntsc>TRUE</ntsc>
								</rate>
								<string>00;00;00;00</string>
								<frame>0</frame>
								<displayformat>DF</displayformat>
							</timecode>
							<media>
								<video>
									<duration>18000</duration>
									<samplecharacteristics>
										<rate>
											<timebase>30</timebase>
											<ntsc>TRUE</ntsc>
										</rate>
										<width>1920</width>
										<height>1080</height>
										<anamorphic>FALSE</anamorphic>
										<pixelaspectratio>square</pixelaspectratio>
										<fielddominance>none</fielddominance>
									</samplecharacteristics>
								</video>
							</media>
						</file>
					</clipitem>
					<transitionitem>
						<start>35718</start>
						<end>35743</end>
						<alignment>end-black</alignment>
						<cutPoint>25</cutPoint>
						<rate>
							<timebase>25</timebase>
							<ntsc>FALSE</ntsc>
						</rate>
						<effect>
							<name>Cross Dissolve</name>
							<effectid>Cross Dissolve</effectid>
							<effectcategory>Dissolve</effectcategory>
							<effecttype>transition</effecttype>
							<mediatype>video</mediatype>
							<wipecode>0</wipecode>
							<wipeaccuracy>100</wipeaccuracy>
							<startratio>0</startratio>
							<endratio>1</endratio>
							<reverse>FALSE</reverse>
						</effect>
					</transitionitem>
					<clipitem id="clipitem-270" frameBlend="FALSE">
						<masterclipid>masterclip-33</masterclipid>
						<name>FILM_Loop_Rød.mov</name>
						<enabled>TRUE</enabled>
						<duration>1000</duration>
						<rate>
							<ntsc>TRUE</ntsc>
							<timebase>30</timebase>
						</rate>
						<start>35790</start>
						<end>-1</end>
						<in>0</in>
						<out>652</out>
						<alphatype>none</alphatype>
						<file id="file-33"/>
					</clipitem>
					<transitionitem>
						<start>36429</start>
						<end>36442</end>
						<alignment>end-black</alignment>
						<cutPoint>13</cutPoint>
						<rate>
							<timebase>25</timebase>
							<ntsc>FALSE</ntsc>
						</rate>
						<effect>
							<name>Cross Dissolve</name>
							<effectid>Cross Dissolve</effectid>
							<effectcategory>Dissolve</effectcategory>
							<effecttype>transition</effecttype>
							<mediatype>video</mediatype>
							<wipecode>0</wipecode>
							<wipeaccuracy>100</wipeaccuracy>
							<startratio>0</startratio>
							<endratio>1</endratio>
							<reverse>FALSE</reverse>
						</effect>
					</transitionitem>
					<transitionitem>
						<start>36455</start>
						<end>36480</end>
						<alignment>start-black</alignment>
						<cutPoint>0</cutPoint>
						<rate>
							<timebase>25</timebase>
							<ntsc>FALSE</ntsc>
						</rate>
						<effect>
							<name>Cross Dissolve</name>
							<effectid>Cross Dissolve</effectid>
							<effectcategory>Dissolve</effectcategory>
							<effecttype>transition</effecttype>
							<mediatype>video</mediatype>
							<wipecode>0</wipecode>
							<wipeaccuracy>100</wipeaccuracy>
							<startratio>0</startratio>
							<endratio>1</endratio>
							<reverse>FALSE</reverse>
						</effect>
					</transitionitem>
					<clipitem id="clipitem-271" frameBlend="FALSE">
						<masterclipid>masterclip-88</masterclipid>
						<name>Supermal Høst 2013 Copy 16</name>
						<enabled>TRUE</enabled>
						<duration>1080000</duration>
						<rate>
							<timebase>30</timebase>
							<ntsc>TRUE</ntsc>
						</rate>
						<start>-1</start>
						<end>-1</end>
						<in>91387</in>
						<out>91504</out>
						<alphatype>straight</alphatype>
						<pixelaspectratio>square</pixelaspectratio>
						<anamorphic>FALSE</anamorphic>
						<file id="file-88">
							<name>Internal Title</name>
							<mediaSource>Slug</mediaSource>
							<rate>
								<timebase>30</timebase>
								<ntsc>TRUE</ntsc>
							</rate>
							<timecode>
								<rate>
									<timebase>30</timebase>
									<ntsc>TRUE</ntsc>
								</rate>
								<string>00;00;00;00</string>
								<frame>0</frame>
								<displayformat>DF</displayformat>
							</timecode>
							<media>
								<video>
									<duration>18000</duration>
									<samplecharacteristics>
										<rate>
											<timebase>30</timebase>
											<ntsc>TRUE</ntsc>
										</rate>
										<width>1920</width>
										<height>1080</height>
										<anamorphic>FALSE</anamorphic>
										<pixelaspectratio>square</pixelaspectratio>
										<fielddominance>none</fielddominance>
									</samplecharacteristics>
								</video>
							</media>
						</file>
					</clipitem>
					<transitionitem>
						<start>36547</start>
						<end>36572</end>
						<alignment>end-black</alignment>
						<cutPoint>25</cutPoint>
						<rate>
							<timebase>25</timebase>
							<ntsc>FALSE</ntsc>
						</rate>
						<effect>
							<name>Cross Dissolve</name>
							<effectid>Cross Dissolve</effectid>
							<effectcategory>Dissolve</effectcategory>
							<effecttype>transition</effecttype>
							<mediatype>video</mediatype>
							<wipecode>0</wipecode>
							<wipeaccuracy>100</wipeaccuracy>
							<startratio>0</startratio>
							<endratio>1</endratio>
							<reverse>FALSE</reverse>
						</effect>
					</transitionitem>
					<clipitem id="clipitem-272" frameBlend="FALSE">
						<masterclipid>masterclip-89</masterclipid>
						<name>Trappescenen Potemkin.mov</name>
						<enabled>TRUE</enabled>
						<duration>4632</duration>
						<rate>
							<timebase>25</timebase>
							<ntsc>FALSE</ntsc>
						</rate>
						<start>36685</start>
						<end>36891</end>
						<in>2984</in>
						<out>3190</out>
						<alphatype>none</alphatype>
						<pixelaspectratio>square</pixelaspectratio>
						<anamorphic>FALSE</anamorphic>
						<file id="file-89">
							<name>Trappescenen Potemkin.mov</name>
							<pathurl>file://localhost/Volumes/Scenen/Prosjekter/FILM/FILM%20XX13%20Kjartan%20Opptak%20Russland%20Oktober%202013/Video/Trappescenen%20Potemkin.mov</pathurl>
							<rate>
								<timebase>25</timebase>
								<ntsc>FALSE</ntsc>
							</rate>
							<duration>4632</duration>
							<timecode>
								<rate>
									<timebase>25</timebase>
									<ntsc>FALSE</ntsc>
								</rate>
								<string>00:00:00:00</string>
								<frame>0</frame>
								<displayformat>NDF</displayformat>
							</timecode>
							<media>
								<video>
									<duration>18000</duration>
									<samplecharacteristics>
										<rate>
											<timebase>25</timebase>
											<ntsc>FALSE</ntsc>
										</rate>
										<width>1920</width>
										<height>1080</height>
										<anamorphic>FALSE</anamorphic>
										<pixelaspectratio>square</pixelaspectratio>
										<fielddominance>lower</fielddominance>
									</samplecharacteristics>
								</video>
								<audio>
									<samplecharacteristics>
										<depth>16</depth>
										<samplerate>48000</samplerate>
									</samplecharacteristics>
									<channelcount>2</channelcount>
								</audio>
							</media>
						</file>
							<filter>
								<effect>
									<name>Basic Motion</name>
									<effectid>basic</effectid>
									<effectcategory>motion</effectcategory>
									<effecttype>motion</effecttype>
									<mediatype>video</mediatype>
									<parameter authoringApp="PremierePro">
										<parameterid>scale</parameterid>
										<name>Scale</name>
										<valuemin>0</valuemin>
										<valuemax>1000</valuemax>
										<value>100</value>
									</parameter>
									<parameter authoringApp="PremierePro">
										<parameterid>rotation</parameterid>
										<name>Rotation</name>
										<valuemin>-8640</valuemin>
										<valuemax>8640</valuemax>
										<value>0</value>
									</parameter>
									<parameter authoringApp="PremierePro">
										<parameterid>center</parameterid>
										<name>Center</name>
										<value>
											<horiz>0</horiz>
											<vert>0</vert>
										</value>
									</parameter>
									<parameter authoringApp="PremierePro">
										<parameterid>centerOffset</parameterid>
										<name>Anchor Point</name>
										<value>
											<horiz>0</horiz>
											<vert>0</vert>
										</value>
									</parameter>
								</effect>
							</filter>
							<filter>
								<effect>
									<name>Distort</name>
									<effectid>deformation</effectid>
									<effectcategory>motion</effectcategory>
									<effecttype>motion</effecttype>
									<mediatype>video</mediatype>
									<parameter authoringApp="PremierePro">
										<parameterid>aspect</parameterid>
										<name>Aspect</name>
										<valuemin>-10000</valuemin>
										<valuemax>10000</valuemax>
										<value>33.3333</value>
									</parameter>
								</effect>
							</filter>
						<link>
							<linkclipref>clipitem-272</linkclipref>
							<mediatype>video</mediatype>
							<trackindex>3</trackindex>
							<clipindex>159</clipindex>
						</link>
						<link>
							<linkclipref>clipitem-669</linkclipref>
							<mediatype>audio</mediatype>
							<trackindex>10</trackindex>
							<clipindex>70</clipindex>
							<groupindex>1</groupindex>
						</link>
						<link>
							<linkclipref>clipitem-709</linkclipref>
							<mediatype>audio</mediatype>
							<trackindex>11</trackindex>
							<clipindex>70</clipindex>
							<groupindex>1</groupindex>
						</link>
					</clipitem>
					<clipitem id="clipitem-273" frameBlend="FALSE">
						<masterclipid>masterclip-33</masterclipid>
						<name>FILM_Loop_Rød.mov</name>
						<enabled>TRUE</enabled>
						<duration>1000</duration>
						<rate>
							<ntsc>TRUE</ntsc>
							<timebase>30</timebase>
						</rate>
						<start>37193</start>
						<end>37322</end>
						<in>699</in>
						<out>828</out>
						<alphatype>none</alphatype>
						<file id="file-33"/>
					</clipitem>
					<clipitem id="clipitem-274" frameBlend="FALSE">
						<masterclipid>masterclip-33</masterclipid>
						<name>FILM_Loop_Rød.mov</name>
						<enabled>TRUE</enabled>
						<duration>1000</duration>
						<rate>
							<ntsc>TRUE</ntsc>
							<timebase>30</timebase>
						</rate>
						<start>37560</start>
						<end>37898</end>
						<in>655</in>
						<out>993</out>
						<alphatype>none</alphatype>
						<file id="file-33"/>
					</clipitem>
					<clipitem id="clipitem-275" frameBlend="FALSE">
						<masterclipid>masterclip-33</masterclipid>
						<name>FILM_Loop_Rød.mov</name>
						<enabled>TRUE</enabled>
						<duration>1000</duration>
						<rate>
							<ntsc>TRUE</ntsc>
							<timebase>30</timebase>
						</rate>
						<start>38903</start>
						<end>39211</end>
						<in>687</in>
						<out>995</out>
						<alphatype>none</alphatype>
						<file id="file-33"/>
					</clipitem>
					<transitionitem>
						<start>41000</start>
						<end>41025</end>
						<alignment>start-black</alignment>
						<cutPoint>0</cutPoint>
						<rate>
							<timebase>25</timebase>
							<ntsc>FALSE</ntsc>
						</rate>
						<effect>
							<name>Cross Dissolve</name>
							<effectid>Cross Dissolve</effectid>
							<effectcategory>Dissolve</effectcategory>
							<effecttype>transition</effecttype>
							<mediatype>video</mediatype>
							<wipecode>0</wipecode>
							<wipeaccuracy>100</wipeaccuracy>
							<startratio>0</startratio>
							<endratio>1</endratio>
							<reverse>FALSE</reverse>
						</effect>
					</transitionitem>
					<clipitem id="clipitem-276" frameBlend="FALSE">
						<masterclipid>masterclip-90</masterclipid>
						<name>4_2.mov</name>
						<enabled>TRUE</enabled>
						<duration>2400</duration>
						<rate>
							<timebase>25</timebase>
							<ntsc>FALSE</ntsc>
						</rate>
						<start>-1</start>
						<end>41326</end>
						<in>693</in>
						<out>1019</out>
						<alphatype>none</alphatype>
						<pixelaspectratio>square</pixelaspectratio>
						<anamorphic>FALSE</anamorphic>
						<file id="file-90">
							<name>4_2.mov</name>
							<pathurl>file://localhost/Volumes/Scenen/Utveksling/FILM/DVD%20rip%20og%20EPK/4/4_2.mov</pathurl>
							<rate>
								<timebase>25</timebase>
								<ntsc>FALSE</ntsc>
							</rate>
							<duration>2400</duration>
							<timecode>
								<rate>
									<timebase>25</timebase>
									<ntsc>FALSE</ntsc>
								</rate>
								<string>00:00:00:00</string>
								<frame>0</frame>
								<displayformat>NDF</displayformat>
							</timecode>
							<media>
								<video>
									<duration>18000</duration>
									<samplecharacteristics>
										<rate>
											<timebase>25</timebase>
											<ntsc>FALSE</ntsc>
										</rate>
										<width>1920</width>
										<height>1080</height>
										<anamorphic>FALSE</anamorphic>
										<pixelaspectratio>square</pixelaspectratio>
										<fielddominance>lower</fielddominance>
									</samplecharacteristics>
								</video>
								<audio>
									<samplecharacteristics>
										<depth>16</depth>
										<samplerate>48000</samplerate>
									</samplecharacteristics>
									<channelcount>2</channelcount>
								</audio>
							</media>
						</file>
						<link>
							<linkclipref>clipitem-276</linkclipref>
							<mediatype>video</mediatype>
							<trackindex>3</trackindex>
							<clipindex>164</clipindex>
						</link>
						<link>
							<linkclipref>clipitem-671</linkclipref>
							<mediatype>audio</mediatype>
							<trackindex>10</trackindex>
							<clipindex>74</clipindex>
							<groupindex>1</groupindex>
						</link>
						<link>
							<linkclipref>clipitem-711</linkclipref>
							<mediatype>audio</mediatype>
							<trackindex>11</trackindex>
							<clipindex>74</clipindex>
							<groupindex>1</groupindex>
						</link>
					</clipitem>
					<clipitem id="clipitem-277" frameBlend="FALSE">
						<masterclipid>masterclip-91</masterclipid>
						<name>FILM_Break_kaleido.mov</name>
						<enabled>TRUE</enabled>
						<duration>197</duration>
						<rate>
							<timebase>25</timebase>
							<ntsc>FALSE</ntsc>
						</rate>
						<start>42375</start>
						<end>42551</end>
						<in>0</in>
						<out>176</out>
						<alphatype>none</alphatype>
						<pixelaspectratio>square</pixelaspectratio>
						<anamorphic>FALSE</anamorphic>
						<file id="file-91">
							<name>FILM_Break_kaleido.mov</name>
							<pathurl>file://localhost/Volumes/Scenen/Prosjekter/FILM/AA%20FILM%20Grafikk%20Premiere%20Pro%20haust%202013%20BW/Video/Filmbonanza%20Bumpere%20H%c3%b8st%202011/FILM_Break_kaleido.mov</pathurl>
							<rate>
								<timebase>25</timebase>
								<ntsc>FALSE</ntsc>
							</rate>
							<duration>197</duration>
							<timecode>
								<rate>
									<timebase>25</timebase>
									<ntsc>FALSE</ntsc>
								</rate>
								<string>00:00:57:05</string>
								<frame>1430</frame>
								<displayformat>NDF</displayformat>
							</timecode>
							<media>
								<video>
									<duration>18000</duration>
									<samplecharacteristics>
										<rate>
											<timebase>25</timebase>
											<ntsc>FALSE</ntsc>
										</rate>
										<width>1920</width>
										<height>1080</height>
										<anamorphic>FALSE</anamorphic>
										<pixelaspectratio>square</pixelaspectratio>
										<fielddominance>none</fielddominance>
									</samplecharacteristics>
								</video>
								<audio>
									<samplecharacteristics>
										<depth>16</depth>
										<samplerate>48000</samplerate>
									</samplecharacteristics>
									<channelcount>2</channelcount>
								</audio>
							</media>
						</file>
						<link>
							<linkclipref>clipitem-277</linkclipref>
							<mediatype>video</mediatype>
							<trackindex>3</trackindex>
							<clipindex>165</clipindex>
						</link>
						<link>
							<linkclipref>clipitem-672</linkclipref>
							<mediatype>audio</mediatype>
							<trackindex>10</trackindex>
							<clipindex>75</clipindex>
							<groupindex>1</groupindex>
						</link>
						<link>
							<linkclipref>clipitem-712</linkclipref>
							<mediatype>audio</mediatype>
							<trackindex>11</trackindex>
							<clipindex>75</clipindex>
							<groupindex>1</groupindex>
						</link>
					</clipitem>
					<clipitem id="clipitem-278" frameBlend="FALSE">
						<masterclipid>masterclip-92</masterclipid>
						<name>Clip #2.mov</name>
						<enabled>TRUE</enabled>
						<duration>3445</duration>
						<rate>
							<timebase>25</timebase>
							<ntsc>FALSE</ntsc>
						</rate>
						<start>42551</start>
						<end>42596</end>
						<in>1087</in>
						<out>1132</out>
						<alphatype>none</alphatype>
						<pixelaspectratio>square</pixelaspectratio>
						<anamorphic>FALSE</anamorphic>
						<file id="file-92">
							<name>Clip #2.mov</name>
							<pathurl>file://localhost/Volumes/Scenen/Prosjekter/FILM/FILM%201413%20Master%20Filmbonanza%20Program%206%20H%c3%b8sten%202013/Video/NRK%20Luftfoto%20Sukkerbiten/Capture%20Scratch/Import%20Sukkerbiten%20helikopterbilder/Clip%20#2.mov</pathurl>
							<rate>
								<timebase>25</timebase>
								<ntsc>FALSE</ntsc>
							</rate>
							<duration>3445</duration>
							<timecode>
								<rate>
									<timebase>25</timebase>
									<ntsc>FALSE</ntsc>
								</rate>
								<string>00:00:00:00</string>
								<frame>0</frame>
								<displayformat>NDF</displayformat>
							</timecode>
							<media>
								<video>
									<duration>18000</duration>
									<samplecharacteristics>
										<rate>
											<timebase>25</timebase>
											<ntsc>FALSE</ntsc>
										</rate>
										<width>1920</width>
										<height>1080</height>
										<anamorphic>FALSE</anamorphic>
										<pixelaspectratio>square</pixelaspectratio>
										<fielddominance>none</fielddominance>
									</samplecharacteristics>
								</video>
								<audio>
									<samplecharacteristics>
										<depth>16</depth>
										<samplerate>48000</samplerate>
									</samplecharacteristics>
									<channelcount>2</channelcount>
								</audio>
							</media>
						</file>
					</clipitem>
					<clipitem id="clipitem-279" frameBlend="FALSE">
						<masterclipid>masterclip-93</masterclipid>
						<name>KIDS Copy 16</name>
						<enabled>TRUE</enabled>
						<duration>1080000</duration>
						<rate>
							<timebase>30</timebase>
							<ntsc>TRUE</ntsc>
						</rate>
						<start>42906</start>
						<end>43221</end>
						<in>90018</in>
						<out>90333</out>
						<alphatype>straight</alphatype>
						<pixelaspectratio>square</pixelaspectratio>
						<anamorphic>FALSE</anamorphic>
						<file id="file-93">
							<name>Title 01</name>
							<mediaSource>Slug</mediaSource>
							<rate>
								<timebase>30</timebase>
								<ntsc>TRUE</ntsc>
							</rate>
							<timecode>
								<rate>
									<timebase>30</timebase>
									<ntsc>TRUE</ntsc>
								</rate>
								<string>00;00;00;00</string>
								<frame>0</frame>
								<displayformat>DF</displayformat>
							</timecode>
							<media>
								<video>
									<duration>18000</duration>
									<samplecharacteristics>
										<rate>
											<timebase>30</timebase>
											<ntsc>TRUE</ntsc>
										</rate>
										<width>1920</width>
										<height>1080</height>
										<anamorphic>FALSE</anamorphic>
										<pixelaspectratio>square</pixelaspectratio>
										<fielddominance>none</fielddominance>
									</samplecharacteristics>
								</video>
							</media>
						</file>
					</clipitem>
					<clipitem id="clipitem-280" frameBlend="FALSE">
						<masterclipid>masterclip-94</masterclipid>
						<name>sluttplak_2012_1920x1080_HD.tiff</name>
						<enabled>TRUE</enabled>
						<duration>1080000</duration>
						<rate>
							<timebase>30</timebase>
							<ntsc>TRUE</ntsc>
						</rate>
						<start>43432</start>
						<end>-1</end>
						<in>1590</in>
						<out>1685</out>
						<alphatype>straight</alphatype>
						<pixelaspectratio>square</pixelaspectratio>
						<anamorphic>FALSE</anamorphic>
						<file id="file-94">
							<name>NRK_Copyright_2013_1920x1080.tiff</name>
							<pathurl>file://localhost/Volumes/Scenen/Prosjekter/FILM/AA%20FILM%20Grafikk%20Premiere%20Pro%20haust%202013%20BW/Grafikk/NRK_Copyright_2013_1920x1080.tiff</pathurl>
							<rate>
								<timebase>30</timebase>
								<ntsc>TRUE</ntsc>
							</rate>
							<timecode>
								<rate>
									<timebase>30</timebase>
									<ntsc>TRUE</ntsc>
								</rate>
								<string>00;00;00;00</string>
								<frame>0</frame>
								<displayformat>DF</displayformat>
							</timecode>
							<media>
								<video>
									<duration>18000</duration>
									<samplecharacteristics>
										<rate>
											<timebase>30</timebase>
											<ntsc>TRUE</ntsc>
										</rate>
										<width>1920</width>
										<height>1080</height>
										<anamorphic>FALSE</anamorphic>
										<pixelaspectratio>square</pixelaspectratio>
										<fielddominance>none</fielddominance>
									</samplecharacteristics>
								</video>
							</media>
						</file>
					</clipitem>
					<transitionitem>
						<start>43502</start>
						<end>43527</end>
						<alignment>end-black</alignment>
						<cutPoint>25</cutPoint>
						<rate>
							<timebase>25</timebase>
							<ntsc>FALSE</ntsc>
						</rate>
						<effect>
							<name>Cross Dissolve</name>
							<effectid>Cross Dissolve</effectid>
							<effectcategory>Dissolve</effectcategory>
							<effecttype>transition</effecttype>
							<mediatype>video</mediatype>
							<wipecode>0</wipecode>
							<wipeaccuracy>100</wipeaccuracy>
							<startratio>0</startratio>
							<endratio>1</endratio>
							<reverse>FALSE</reverse>
						</effect>
					</transitionitem>
					<enabled>TRUE</enabled>
					<locked>FALSE</locked>
				</track>
				<track TL.SQTrackShy="0" TL.SQTrackExpandedHeight="25" TL.SQTrackExpanded="1" MZ.TrackTargeted="1">
					<clipitem id="clipitem-281" frameBlend="FALSE">
						<masterclipid>masterclip-95</masterclipid>
						<name>Wipe03_Kort_Rød.mov</name>
						<enabled>TRUE</enabled>
						<duration>61</duration>
						<rate>
							<timebase>25</timebase>
							<ntsc>FALSE</ntsc>
						</rate>
						<start>262</start>
						<end>301</end>
						<in>1</in>
						<out>40</out>
						<alphatype>none</alphatype>
						<pixelaspectratio>square</pixelaspectratio>
						<anamorphic>FALSE</anamorphic>
						<file id="file-95">
							<name>Wipe03_Kort_Rød.mov</name>
							<pathurl>file://localhost/Volumes/Scenen/Prosjekter/FILM/FILM%200110%20Mastere%20Grafikk%20og%20Lyd%20Filmbonanza%20GI%20010112/Video/Wipes%20Overganger%20med%20Alpha%20fra%2001.09.12/Wipe03_Kort_R%c3%b8d.mov</pathurl>
							<rate>
								<timebase>25</timebase>
								<ntsc>FALSE</ntsc>
							</rate>
							<duration>61</duration>
							<timecode>
								<rate>
									<timebase>25</timebase>
									<ntsc>FALSE</ntsc>
								</rate>
								<string>00:00:00:00</string>
								<frame>0</frame>
								<displayformat>NDF</displayformat>
							</timecode>
							<media>
								<video>
									<duration>18000</duration>
									<samplecharacteristics>
										<rate>
											<timebase>25</timebase>
											<ntsc>FALSE</ntsc>
										</rate>
										<width>1920</width>
										<height>1080</height>
										<anamorphic>FALSE</anamorphic>
										<pixelaspectratio>square</pixelaspectratio>
										<fielddominance>none</fielddominance>
									</samplecharacteristics>
								</video>
								<audio>
									<samplecharacteristics>
										<depth>16</depth>
										<samplerate>48000</samplerate>
									</samplecharacteristics>
									<channelcount>2</channelcount>
								</audio>
							</media>
						</file>
					</clipitem>
					<clipitem id="clipitem-282" frameBlend="FALSE">
						<masterclipid>masterclip-95</masterclipid>
						<name>Wipe03_Kort_Rød.mov</name>
						<enabled>TRUE</enabled>
						<duration>61</duration>
						<rate>
							<ntsc>TRUE</ntsc>
							<timebase>30</timebase>
						</rate>
						<start>413</start>
						<end>452</end>
						<in>1</in>
						<out>40</out>
						<alphatype>none</alphatype>
						<file id="file-95"/>
					</clipitem>
					<clipitem id="clipitem-283" frameBlend="FALSE">
						<masterclipid>masterclip-95</masterclipid>
						<name>Wipe03_Kort_Rød.mov</name>
						<enabled>TRUE</enabled>
						<duration>61</duration>
						<rate>
							<ntsc>TRUE</ntsc>
							<timebase>30</timebase>
						</rate>
						<start>522</start>
						<end>561</end>
						<in>1</in>
						<out>40</out>
						<alphatype>none</alphatype>
						<file id="file-95"/>
					</clipitem>
					<transitionitem>
						<start>1989</start>
						<end>2014</end>
						<alignment>start-black</alignment>
						<cutPoint>0</cutPoint>
						<rate>
							<timebase>25</timebase>
							<ntsc>FALSE</ntsc>
						</rate>
						<effect>
							<name>Cross Dissolve</name>
							<effectid>Cross Dissolve</effectid>
							<effectcategory>Dissolve</effectcategory>
							<effecttype>transition</effecttype>
							<mediatype>video</mediatype>
							<wipecode>0</wipecode>
							<wipeaccuracy>100</wipeaccuracy>
							<startratio>0</startratio>
							<endratio>1</endratio>
							<reverse>FALSE</reverse>
						</effect>
					</transitionitem>
					<clipitem id="clipitem-284" frameBlend="FALSE">
						<masterclipid>masterclip-96</masterclipid>
						<name>Supermal Høst 2013 Copy 22</name>
						<enabled>TRUE</enabled>
						<duration>1080000</duration>
						<rate>
							<timebase>30</timebase>
							<ntsc>TRUE</ntsc>
						</rate>
						<start>-1</start>
						<end>-1</end>
						<in>91401</in>
						<out>91519</out>
						<alphatype>straight</alphatype>
						<pixelaspectratio>square</pixelaspectratio>
						<anamorphic>FALSE</anamorphic>
						<file id="file-96">
							<name>Internal Title</name>
							<mediaSource>Slug</mediaSource>
							<rate>
								<timebase>30</timebase>
								<ntsc>TRUE</ntsc>
							</rate>
							<timecode>
								<rate>
									<timebase>30</timebase>
									<ntsc>TRUE</ntsc>
								</rate>
								<string>00;00;00;00</string>
								<frame>0</frame>
								<displayformat>DF</displayformat>
							</timecode>
							<media>
								<video>
									<duration>18000</duration>
									<samplecharacteristics>
										<rate>
											<timebase>30</timebase>
											<ntsc>TRUE</ntsc>
										</rate>
										<width>1920</width>
										<height>1080</height>
										<anamorphic>FALSE</anamorphic>
										<pixelaspectratio>square</pixelaspectratio>
										<fielddominance>none</fielddominance>
									</samplecharacteristics>
								</video>
							</media>
						</file>
					</clipitem>
					<transitionitem>
						<start>2082</start>
						<end>2107</end>
						<alignment>end-black</alignment>
						<cutPoint>25</cutPoint>
						<rate>
							<timebase>25</timebase>
							<ntsc>FALSE</ntsc>
						</rate>
						<effect>
							<name>Cross Dissolve</name>
							<effectid>Cross Dissolve</effectid>
							<effectcategory>Dissolve</effectcategory>
							<effecttype>transition</effecttype>
							<mediatype>video</mediatype>
							<wipecode>0</wipecode>
							<wipeaccuracy>100</wipeaccuracy>
							<startratio>0</startratio>
							<endratio>1</endratio>
							<reverse>FALSE</reverse>
						</effect>
					</transitionitem>
					<transitionitem>
						<start>2519</start>
						<end>2544</end>
						<alignment>start-black</alignment>
						<cutPoint>0</cutPoint>
						<rate>
							<timebase>25</timebase>
							<ntsc>FALSE</ntsc>
						</rate>
						<effect>
							<name>Cross Dissolve</name>
							<effectid>Cross Dissolve</effectid>
							<effectcategory>Dissolve</effectcategory>
							<effecttype>transition</effecttype>
							<mediatype>video</mediatype>
							<wipecode>0</wipecode>
							<wipeaccuracy>100</wipeaccuracy>
							<startratio>0</startratio>
							<endratio>1</endratio>
							<reverse>FALSE</reverse>
						</effect>
					</transitionitem>
					<clipitem id="clipitem-285" frameBlend="FALSE">
						<masterclipid>masterclip-97</masterclipid>
						<name>intolerance</name>
						<enabled>TRUE</enabled>
						<duration>1080000</duration>
						<rate>
							<timebase>30</timebase>
							<ntsc>TRUE</ntsc>
						</rate>
						<start>-1</start>
						<end>-1</end>
						<in>1478</in>
						<out>1581</out>
						<alphatype>none</alphatype>
						<pixelaspectratio>square</pixelaspectratio>
						<anamorphic>FALSE</anamorphic>
						<file id="file-97">
							<name>Skjermbilde 2013-11-01 kl. 10.45.17.png</name>
							<pathurl>file://localhost/Volumes/Scenen/Prosjekter/FILM/FILM%201413%20Stormannsgalskap/stills/Skjermbilde%202013-11-01%20kl.%2010.45.17.png</pathurl>
							<rate>
								<timebase>30</timebase>
								<ntsc>TRUE</ntsc>
							</rate>
							<timecode>
								<rate>
									<timebase>30</timebase>
									<ntsc>TRUE</ntsc>
								</rate>
								<string>00;00;00;00</string>
								<frame>0</frame>
								<displayformat>DF</displayformat>
							</timecode>
							<media>
								<video>
									<duration>18000</duration>
									<samplecharacteristics>
										<rate>
											<timebase>30</timebase>
											<ntsc>TRUE</ntsc>
										</rate>
										<width>622</width>
										<height>894</height>
										<anamorphic>FALSE</anamorphic>
										<pixelaspectratio>square</pixelaspectratio>
										<fielddominance>none</fielddominance>
									</samplecharacteristics>
								</video>
							</media>
						</file>
							<filter>
								<effect>
									<name>Basic Motion</name>
									<effectid>basic</effectid>
									<effectcategory>motion</effectcategory>
									<effecttype>motion</effecttype>
									<mediatype>video</mediatype>
									<parameter authoringApp="PremierePro">
										<parameterid>scale</parameterid>
										<name>Scale</name>
										<valuemin>0</valuemin>
										<valuemax>1000</valuemax>
										<value>103.805</value>
										<keyframe>
											<when>1478</when>
											<value>0</value>
										</keyframe>
										<keyframe>
											<when>1515</when>
											<value>103.805</value>
										</keyframe>
									</parameter>
									<parameter authoringApp="PremierePro">
										<parameterid>rotation</parameterid>
										<name>Rotation</name>
										<valuemin>-8640</valuemin>
										<valuemax>8640</valuemax>
										<value>0</value>
									</parameter>
									<parameter authoringApp="PremierePro">
										<parameterid>center</parameterid>
										<name>Center</name>
										<value>
											<horiz>0</horiz>
											<vert>0</vert>
										</value>
										<keyframe>
											<when>1478</when>
											<value>
												<horiz>0</horiz>
												<vert>0</vert>
											</value>
										</keyframe>
										<keyframe>
											<when>1515</when>
											<value>
												<horiz>0</horiz>
												<vert>-0.0246085</vert>
											</value>
										</keyframe>
									</parameter>
									<parameter authoringApp="PremierePro">
										<parameterid>centerOffset</parameterid>
										<name>Anchor Point</name>
										<value>
											<horiz>0</horiz>
											<vert>0</vert>
										</value>
									</parameter>
								</effect>
							</filter>
					</clipitem>
					<transitionitem>
						<start>2595</start>
						<end>2622</end>
						<alignment>end-black</alignment>
						<cutPoint>27</cutPoint>
						<rate>
							<timebase>25</timebase>
							<ntsc>FALSE</ntsc>
						</rate>
						<effect>
							<name>Cross Dissolve</name>
							<effectid>Cross Dissolve</effectid>
							<effectcategory>Dissolve</effectcategory>
							<effecttype>transition</effecttype>
							<mediatype>video</mediatype>
							<wipecode>0</wipecode>
							<wipeaccuracy>100</wipeaccuracy>
							<startratio>0</startratio>
							<endratio>1</endratio>
							<reverse>FALSE</reverse>
						</effect>
					</transitionitem>
					<transitionitem>
						<start>3068</start>
						<end>3099</end>
						<alignment>start-black</alignment>
						<cutPoint>0</cutPoint>
						<rate>
							<timebase>25</timebase>
							<ntsc>FALSE</ntsc>
						</rate>
						<effect>
							<name>Cross Dissolve</name>
							<effectid>Cross Dissolve</effectid>
							<effectcategory>Dissolve</effectcategory>
							<effecttype>transition</effecttype>
							<mediatype>video</mediatype>
							<wipecode>0</wipecode>
							<wipeaccuracy>100</wipeaccuracy>
							<startratio>0</startratio>
							<endratio>1</endratio>
							<reverse>FALSE</reverse>
						</effect>
					</transitionitem>
					<clipitem id="clipitem-286" frameBlend="FALSE">
						<masterclipid>masterclip-98</masterclipid>
						<name>Ben Hur</name>
						<enabled>TRUE</enabled>
						<duration>1080000</duration>
						<rate>
							<timebase>30</timebase>
							<ntsc>TRUE</ntsc>
						</rate>
						<start>-1</start>
						<end>-1</end>
						<in>1529</in>
						<out>1623</out>
						<alphatype>none</alphatype>
						<pixelaspectratio>square</pixelaspectratio>
						<anamorphic>FALSE</anamorphic>
						<file id="file-98">
							<name>Ben Hur.png</name>
							<pathurl>file://localhost/Volumes/Scenen/Prosjekter/FILM/FILM%201413%20Stormannsgalskap/stills/Ben%20Hur.png</pathurl>
							<rate>
								<timebase>30</timebase>
								<ntsc>TRUE</ntsc>
							</rate>
							<timecode>
								<rate>
									<timebase>30</timebase>
									<ntsc>TRUE</ntsc>
								</rate>
								<string>00;00;00;00</string>
								<frame>0</frame>
								<displayformat>DF</displayformat>
							</timecode>
							<media>
								<video>
									<duration>18000</duration>
									<samplecharacteristics>
										<rate>
											<timebase>30</timebase>
											<ntsc>TRUE</ntsc>
										</rate>
										<width>1303</width>
										<height>771</height>
										<anamorphic>FALSE</anamorphic>
										<pixelaspectratio>square</pixelaspectratio>
										<fielddominance>none</fielddominance>
									</samplecharacteristics>
								</video>
							</media>
						</file>
							<filter>
								<effect>
									<name>Basic Motion</name>
									<effectid>basic</effectid>
									<effectcategory>motion</effectcategory>
									<effecttype>motion</effecttype>
									<mediatype>video</mediatype>
									<parameter authoringApp="PremierePro">
										<parameterid>scale</parameterid>
										<name>Scale</name>
										<valuemin>0</valuemin>
										<valuemax>1000</valuemax>
										<value>120.078</value>
									</parameter>
									<parameter authoringApp="PremierePro">
										<parameterid>rotation</parameterid>
										<name>Rotation</name>
										<valuemin>-8640</valuemin>
										<valuemax>8640</valuemax>
										<value>0</value>
									</parameter>
									<parameter authoringApp="PremierePro">
										<parameterid>center</parameterid>
										<name>Center</name>
										<value>
											<horiz>0</horiz>
											<vert>0</vert>
										</value>
									</parameter>
									<parameter authoringApp="PremierePro">
										<parameterid>centerOffset</parameterid>
										<name>Anchor Point</name>
										<value>
											<horiz>0</horiz>
											<vert>0</vert>
										</value>
									</parameter>
								</effect>
							</filter>
					</clipitem>
					<transitionitem>
						<start>3142</start>
						<end>3162</end>
						<alignment>end-black</alignment>
						<cutPoint>20</cutPoint>
						<rate>
							<timebase>25</timebase>
							<ntsc>FALSE</ntsc>
						</rate>
						<effect>
							<name>Cross Dissolve</name>
							<effectid>Cross Dissolve</effectid>
							<effectcategory>Dissolve</effectcategory>
							<effecttype>transition</effecttype>
							<mediatype>video</mediatype>
							<wipecode>0</wipecode>
							<wipeaccuracy>100</wipeaccuracy>
							<startratio>0</startratio>
							<endratio>1</endratio>
							<reverse>FALSE</reverse>
						</effect>
					</transitionitem>
					<transitionitem>
						<start>4461</start>
						<end>4486</end>
						<alignment>start-black</alignment>
						<cutPoint>0</cutPoint>
						<rate>
							<timebase>25</timebase>
							<ntsc>FALSE</ntsc>
						</rate>
						<effect>
							<name>Cross Dissolve</name>
							<effectid>Cross Dissolve</effectid>
							<effectcategory>Dissolve</effectcategory>
							<effecttype>transition</effecttype>
							<mediatype>video</mediatype>
							<wipecode>0</wipecode>
							<wipeaccuracy>100</wipeaccuracy>
							<startratio>0</startratio>
							<endratio>1</endratio>
							<reverse>FALSE</reverse>
						</effect>
					</transitionitem>
					<clipitem id="clipitem-287" frameBlend="FALSE">
						<masterclipid>masterclip-99</masterclipid>
						<name>cleopatra_ver2_xlg.jpg</name>
						<enabled>TRUE</enabled>
						<duration>1080000</duration>
						<rate>
							<timebase>30</timebase>
							<ntsc>TRUE</ntsc>
						</rate>
						<start>-1</start>
						<end>-1</end>
						<in>1464</in>
						<out>1575</out>
						<alphatype>none</alphatype>
						<pixelaspectratio>square</pixelaspectratio>
						<anamorphic>FALSE</anamorphic>
						<file id="file-99">
							<name>cleopatra_ver2_xlg.jpg</name>
							<pathurl>file://localhost/Volumes/Scenen/Prosjekter/FILM/FILM%201413%20Stormannsgalskap/stills/cleopatra_ver2_xlg.jpg</pathurl>
							<rate>
								<timebase>30</timebase>
								<ntsc>TRUE</ntsc>
							</rate>
							<timecode>
								<rate>
									<timebase>30</timebase>
									<ntsc>TRUE</ntsc>
								</rate>
								<string>00;00;00;00</string>
								<frame>0</frame>
								<displayformat>DF</displayformat>
							</timecode>
							<media>
								<video>
									<duration>18000</duration>
									<samplecharacteristics>
										<rate>
											<timebase>30</timebase>
											<ntsc>TRUE</ntsc>
										</rate>
										<width>1500</width>
										<height>1058</height>
										<anamorphic>FALSE</anamorphic>
										<pixelaspectratio>square</pixelaspectratio>
										<fielddominance>none</fielddominance>
									</samplecharacteristics>
								</video>
							</media>
						</file>
							<filter>
								<effect>
									<name>Basic Motion</name>
									<effectid>basic</effectid>
									<effectcategory>motion</effectcategory>
									<effecttype>motion</effecttype>
									<mediatype>video</mediatype>
									<parameter authoringApp="PremierePro">
										<parameterid>scale</parameterid>
										<name>Scale</name>
										<valuemin>0</valuemin>
										<valuemax>1000</valuemax>
										<value>129</value>
									</parameter>
									<parameter authoringApp="PremierePro">
										<parameterid>rotation</parameterid>
										<name>Rotation</name>
										<valuemin>-8640</valuemin>
										<valuemax>8640</valuemax>
										<value>0</value>
									</parameter>
									<parameter authoringApp="PremierePro">
										<parameterid>center</parameterid>
										<name>Center</name>
										<value>
											<horiz>-0.00267776</horiz>
											<vert>0</vert>
										</value>
									</parameter>
									<parameter authoringApp="PremierePro">
										<parameterid>centerOffset</parameterid>
										<name>Anchor Point</name>
										<value>
											<horiz>0</horiz>
											<vert>0</vert>
										</value>
									</parameter>
								</effect>
							</filter>
							<filter>
								<effect>
									<name>Opacity</name>
									<effectid>opacity</effectid>
									<effectcategory>motion</effectcategory>
									<effecttype>motion</effecttype>
									<mediatype>video</mediatype>
									<parameter authoringApp="PremierePro">
										<parameterid>opacity</parameterid>
										<name>opacity</name>
										<valuemin>0</valuemin>
										<valuemax>100</valuemax>
										<value>100</value>
										<keyframe>
											<when>0</when>
											<value>100</value>
										</keyframe>
									</parameter>
								</effect>
							</filter>
					</clipitem>
					<transitionitem>
						<start>4547</start>
						<end>4572</end>
						<alignment>end-black</alignment>
						<cutPoint>25</cutPoint>
						<rate>
							<timebase>25</timebase>
							<ntsc>FALSE</ntsc>
						</rate>
						<effect>
							<name>Cross Dissolve</name>
							<effectid>Cross Dissolve</effectid>
							<effectcategory>Dissolve</effectcategory>
							<effecttype>transition</effecttype>
							<mediatype>video</mediatype>
							<wipecode>0</wipecode>
							<wipeaccuracy>100</wipeaccuracy>
							<startratio>0</startratio>
							<endratio>1</endratio>
							<reverse>FALSE</reverse>
						</effect>
					</transitionitem>
					<transitionitem>
						<start>8900</start>
						<end>8925</end>
						<alignment>start-black</alignment>
						<cutPoint>0</cutPoint>
						<rate>
							<timebase>25</timebase>
							<ntsc>FALSE</ntsc>
						</rate>
						<effect>
							<name>Cross Dissolve</name>
							<effectid>Cross Dissolve</effectid>
							<effectcategory>Dissolve</effectcategory>
							<effecttype>transition</effecttype>
							<mediatype>video</mediatype>
							<wipecode>0</wipecode>
							<wipeaccuracy>100</wipeaccuracy>
							<startratio>0</startratio>
							<endratio>1</endratio>
							<reverse>FALSE</reverse>
						</effect>
					</transitionitem>
					<clipitem id="clipitem-288" frameBlend="FALSE">
						<masterclipid>masterclip-100</masterclipid>
						<name>Overgang Cameron fra FX_1.mov</name>
						<enabled>TRUE</enabled>
						<duration>343</duration>
						<rate>
							<timebase>25</timebase>
							<ntsc>FALSE</ntsc>
						</rate>
						<start>-1</start>
						<end>-1</end>
						<in>47</in>
						<out>291</out>
						<alphatype>none</alphatype>
						<pixelaspectratio>square</pixelaspectratio>
						<anamorphic>FALSE</anamorphic>
						<file id="file-100">
							<name>Overgang Cameron fra FX_1.mov</name>
							<pathurl>file://localhost/Volumes/Scenen/Prosjekter/FILM/FILM%201413%20Stormannsgalskap/Grafikk/Overgang%20Cameron%20fra%20FX_1.mov</pathurl>
							<rate>
								<timebase>25</timebase>
								<ntsc>FALSE</ntsc>
							</rate>
							<duration>343</duration>
							<timecode>
								<rate>
									<timebase>25</timebase>
									<ntsc>FALSE</ntsc>
								</rate>
								<string>00:00:00:00</string>
								<frame>0</frame>
								<displayformat>NDF</displayformat>
							</timecode>
							<media>
								<video>
									<duration>18000</duration>
									<samplecharacteristics>
										<rate>
											<timebase>25</timebase>
											<ntsc>FALSE</ntsc>
										</rate>
										<width>1920</width>
										<height>1080</height>
										<anamorphic>FALSE</anamorphic>
										<pixelaspectratio>square</pixelaspectratio>
										<fielddominance>upper</fielddominance>
									</samplecharacteristics>
								</video>
							</media>
						</file>
					</clipitem>
					<transitionitem>
						<start>9119</start>
						<end>9144</end>
						<alignment>end-black</alignment>
						<cutPoint>25</cutPoint>
						<rate>
							<timebase>25</timebase>
							<ntsc>FALSE</ntsc>
						</rate>
						<effect>
							<name>Cross Dissolve</name>
							<effectid>Cross Dissolve</effectid>
							<effectcategory>Dissolve</effectcategory>
							<effecttype>transition</effecttype>
							<mediatype>video</mediatype>
							<wipecode>0</wipecode>
							<wipeaccuracy>100</wipeaccuracy>
							<startratio>0</startratio>
							<endratio>1</endratio>
							<reverse>FALSE</reverse>
						</effect>
					</transitionitem>
					<transitionitem>
						<start>9356</start>
						<end>9373</end>
						<alignment>start-black</alignment>
						<cutPoint>0</cutPoint>
						<rate>
							<timebase>25</timebase>
							<ntsc>FALSE</ntsc>
						</rate>
						<effect>
							<name>Cross Dissolve</name>
							<effectid>Cross Dissolve</effectid>
							<effectcategory>Dissolve</effectcategory>
							<effecttype>transition</effecttype>
							<mediatype>video</mediatype>
							<wipecode>0</wipecode>
							<wipeaccuracy>100</wipeaccuracy>
							<startratio>0</startratio>
							<endratio>1</endratio>
							<reverse>FALSE</reverse>
						</effect>
					</transitionitem>
					<clipitem id="clipitem-289" frameBlend="FALSE">
						<masterclipid>masterclip-101</masterclipid>
						<name>Abyss.png</name>
						<enabled>TRUE</enabled>
						<duration>1080000</duration>
						<rate>
							<timebase>30</timebase>
							<ntsc>TRUE</ntsc>
						</rate>
						<start>-1</start>
						<end>9427</end>
						<in>1500</in>
						<out>1571</out>
						<alphatype>none</alphatype>
						<pixelaspectratio>square</pixelaspectratio>
						<anamorphic>FALSE</anamorphic>
						<file id="file-101">
							<name>Abyss.png</name>
							<pathurl>file://localhost/Volumes/Scenen/Prosjekter/FILM/FILM%201413%20Stormannsgalskap/stills/Abyss.png</pathurl>
							<rate>
								<timebase>30</timebase>
								<ntsc>TRUE</ntsc>
							</rate>
							<timecode>
								<rate>
									<timebase>30</timebase>
									<ntsc>TRUE</ntsc>
								</rate>
								<string>00;00;00;00</string>
								<frame>0</frame>
								<displayformat>DF</displayformat>
							</timecode>
							<media>
								<video>
									<duration>18000</duration>
									<samplecharacteristics>
										<rate>
											<timebase>30</timebase>
											<ntsc>TRUE</ntsc>
										</rate>
										<width>792</width>
										<height>990</height>
										<anamorphic>FALSE</anamorphic>
										<pixelaspectratio>square</pixelaspectratio>
										<fielddominance>none</fielddominance>
									</samplecharacteristics>
								</video>
							</media>
						</file>
							<filter>
								<effect>
									<name>Basic Motion</name>
									<effectid>basic</effectid>
									<effectcategory>motion</effectcategory>
									<effecttype>motion</effecttype>
									<mediatype>video</mediatype>
									<parameter authoringApp="PremierePro">
										<parameterid>scale</parameterid>
										<name>Scale</name>
										<valuemin>0</valuemin>
										<valuemax>1000</valuemax>
										<value>95.091</value>
									</parameter>
									<parameter authoringApp="PremierePro">
										<parameterid>rotation</parameterid>
										<name>Rotation</name>
										<valuemin>-8640</valuemin>
										<valuemax>8640</valuemax>
										<value>0</value>
									</parameter>
									<parameter authoringApp="PremierePro">
										<parameterid>center</parameterid>
										<name>Center</name>
										<value>
											<horiz>0</horiz>
											<vert>0</vert>
										</value>
									</parameter>
									<parameter authoringApp="PremierePro">
										<parameterid>centerOffset</parameterid>
										<name>Anchor Point</name>
										<value>
											<horiz>0</horiz>
											<vert>0</vert>
										</value>
									</parameter>
								</effect>
							</filter>
							<filter>
								<effect>
									<name>Crop</name>
									<effectid>crop</effectid>
									<effectcategory>motion</effectcategory>
									<effecttype>motion</effecttype>
									<mediatype>video</mediatype>
									<parameter authoringApp="PremierePro">
										<parameterid>left</parameterid>
										<name>left</name>
										<valuemin>0</valuemin>
										<valuemax>100</valuemax>
										<value>2</value>
									</parameter>
									<parameter authoringApp="PremierePro">
										<parameterid>right</parameterid>
										<name>right</name>
										<valuemin>0</valuemin>
										<valuemax>100</valuemax>
										<value>1.72414</value>
									</parameter>
									<parameter authoringApp="PremierePro">
										<parameterid>top</parameterid>
										<name>top</name>
										<valuemin>0</valuemin>
										<valuemax>100</valuemax>
										<value>0</value>
									</parameter>
									<parameter authoringApp="PremierePro">
										<parameterid>bottom</parameterid>
										<name>bottom</name>
										<valuemin>0</valuemin>
										<valuemax>100</valuemax>
										<value>0</value>
									</parameter>
								</effect>
							</filter>
					</clipitem>
					<transitionitem>
						<start>9583</start>
						<end>9608</end>
						<alignment>start-black</alignment>
						<cutPoint>0</cutPoint>
						<rate>
							<timebase>25</timebase>
							<ntsc>FALSE</ntsc>
						</rate>
						<effect>
							<name>Cross Dissolve</name>
							<effectid>Cross Dissolve</effectid>
							<effectcategory>Dissolve</effectcategory>
							<effecttype>transition</effecttype>
							<mediatype>video</mediatype>
							<wipecode>0</wipecode>
							<wipeaccuracy>100</wipeaccuracy>
							<startratio>0</startratio>
							<endratio>1</endratio>
							<reverse>FALSE</reverse>
						</effect>
					</transitionitem>
					<clipitem id="clipitem-290" frameBlend="FALSE">
						<masterclipid>masterclip-102</masterclipid>
						<name>T2.png</name>
						<enabled>TRUE</enabled>
						<duration>1080000</duration>
						<rate>
							<timebase>30</timebase>
							<ntsc>TRUE</ntsc>
						</rate>
						<start>-1</start>
						<end>-1</end>
						<in>1515</in>
						<out>1675</out>
						<alphatype>none</alphatype>
						<pixelaspectratio>square</pixelaspectratio>
						<anamorphic>FALSE</anamorphic>
						<file id="file-102">
							<name>T2.png</name>
							<pathurl>file://localhost/Volumes/Scenen/Prosjekter/FILM/FILM%201413%20Stormannsgalskap/stills/T2.png</pathurl>
							<rate>
								<timebase>30</timebase>
								<ntsc>TRUE</ntsc>
							</rate>
							<timecode>
								<rate>
									<timebase>30</timebase>
									<ntsc>TRUE</ntsc>
								</rate>
								<string>00;00;00;00</string>
								<frame>0</frame>
								<displayformat>DF</displayformat>
							</timecode>
							<media>
								<video>
									<duration>18000</duration>
									<samplecharacteristics>
										<rate>
											<timebase>30</timebase>
											<ntsc>TRUE</ntsc>
										</rate>
										<width>664</width>
										<height>993</height>
										<anamorphic>FALSE</anamorphic>
										<pixelaspectratio>square</pixelaspectratio>
										<fielddominance>none</fielddominance>
									</samplecharacteristics>
								</video>
							</media>
						</file>
							<filter>
								<effect>
									<name>Basic Motion</name>
									<effectid>basic</effectid>
									<effectcategory>motion</effectcategory>
									<effecttype>motion</effecttype>
									<mediatype>video</mediatype>
									<parameter authoringApp="PremierePro">
										<parameterid>scale</parameterid>
										<name>Scale</name>
										<valuemin>0</valuemin>
										<valuemax>1000</valuemax>
										<value>108.761</value>
										<keyframe>
											<when>1515</when>
											<value>0</value>
										</keyframe>
										<keyframe>
											<when>1566</when>
											<value>96.761</value>
										</keyframe>
									</parameter>
									<parameter authoringApp="PremierePro">
										<parameterid>rotation</parameterid>
										<name>Rotation</name>
										<valuemin>-8640</valuemin>
										<valuemax>8640</valuemax>
										<value>0</value>
									</parameter>
									<parameter authoringApp="PremierePro">
										<parameterid>center</parameterid>
										<name>Center</name>
										<value>
											<horiz>-0.5</horiz>
											<vert>0</vert>
										</value>
									</parameter>
									<parameter authoringApp="PremierePro">
										<parameterid>centerOffset</parameterid>
										<name>Anchor Point</name>
										<value>
											<horiz>0</horiz>
											<vert>0</vert>
										</value>
									</parameter>
								</effect>
							</filter>
							<filter>
								<effect>
									<name>Crop</name>
									<effectid>crop</effectid>
									<effectcategory>motion</effectcategory>
									<effecttype>motion</effecttype>
									<mediatype>video</mediatype>
									<parameter authoringApp="PremierePro">
										<parameterid>left</parameterid>
										<name>left</name>
										<valuemin>0</valuemin>
										<valuemax>100</valuemax>
										<value>0</value>
									</parameter>
									<parameter authoringApp="PremierePro">
										<parameterid>right</parameterid>
										<name>right</name>
										<valuemin>0</valuemin>
										<valuemax>100</valuemax>
										<value>2</value>
									</parameter>
									<parameter authoringApp="PremierePro">
										<parameterid>top</parameterid>
										<name>top</name>
										<valuemin>0</valuemin>
										<valuemax>100</valuemax>
										<value>0</value>
									</parameter>
									<parameter authoringApp="PremierePro">
										<parameterid>bottom</parameterid>
										<name>bottom</name>
										<valuemin>0</valuemin>
										<valuemax>100</valuemax>
										<value>0</value>
									</parameter>
								</effect>
							</filter>
					</clipitem>
					<transitionitem>
						<start>9718</start>
						<end>9743</end>
						<alignment>end-black</alignment>
						<cutPoint>25</cutPoint>
						<rate>
							<timebase>25</timebase>
							<ntsc>FALSE</ntsc>
						</rate>
						<effect>
							<name>Cross Dissolve</name>
							<effectid>Cross Dissolve</effectid>
							<effectcategory>Dissolve</effectcategory>
							<effecttype>transition</effecttype>
							<mediatype>video</mediatype>
							<wipecode>0</wipecode>
							<wipeaccuracy>100</wipeaccuracy>
							<startratio>0</startratio>
							<endratio>1</endratio>
							<reverse>FALSE</reverse>
						</effect>
					</transitionitem>
					<clipitem id="clipitem-291" frameBlend="FALSE">
						<masterclipid>masterclip-103</masterclipid>
						<name>Avatar.png</name>
						<enabled>TRUE</enabled>
						<duration>1080000</duration>
						<rate>
							<timebase>30</timebase>
							<ntsc>TRUE</ntsc>
						</rate>
						<start>10171</start>
						<end>-1</end>
						<in>1545</in>
						<out>1595</out>
						<alphatype>none</alphatype>
						<pixelaspectratio>square</pixelaspectratio>
						<anamorphic>FALSE</anamorphic>
						<file id="file-103">
							<name>Avatar.png</name>
							<pathurl>file://localhost/Volumes/Scenen/Prosjekter/FILM/FILM%201413%20Stormannsgalskap/stills/Avatar.png</pathurl>
							<rate>
								<timebase>30</timebase>
								<ntsc>TRUE</ntsc>
							</rate>
							<timecode>
								<rate>
									<timebase>30</timebase>
									<ntsc>TRUE</ntsc>
								</rate>
								<string>00;00;00;00</string>
								<frame>0</frame>
								<displayformat>DF</displayformat>
							</timecode>
							<media>
								<video>
									<duration>18000</duration>
									<samplecharacteristics>
										<rate>
											<timebase>30</timebase>
											<ntsc>TRUE</ntsc>
										</rate>
										<width>673</width>
										<height>990</height>
										<anamorphic>FALSE</anamorphic>
										<pixelaspectratio>square</pixelaspectratio>
										<fielddominance>none</fielddominance>
									</samplecharacteristics>
								</video>
							</media>
						</file>
							<filter>
								<effect>
									<name>Basic Motion</name>
									<effectid>basic</effectid>
									<effectcategory>motion</effectcategory>
									<effecttype>motion</effecttype>
									<mediatype>video</mediatype>
									<parameter authoringApp="PremierePro">
										<parameterid>scale</parameterid>
										<name>Scale</name>
										<valuemin>0</valuemin>
										<valuemax>1000</valuemax>
										<value>98</value>
										<keyframe>
											<when>1545</when>
											<value>0</value>
										</keyframe>
										<keyframe>
											<when>1571</when>
											<value>98</value>
										</keyframe>
									</parameter>
									<parameter authoringApp="PremierePro">
										<parameterid>rotation</parameterid>
										<name>Rotation</name>
										<valuemin>-8640</valuemin>
										<valuemax>8640</valuemax>
										<value>0</value>
									</parameter>
									<parameter authoringApp="PremierePro">
										<parameterid>center</parameterid>
										<name>Center</name>
										<value>
											<horiz>0</horiz>
											<vert>0</vert>
										</value>
									</parameter>
									<parameter authoringApp="PremierePro">
										<parameterid>centerOffset</parameterid>
										<name>Anchor Point</name>
										<value>
											<horiz>0</horiz>
											<vert>0</vert>
										</value>
									</parameter>
								</effect>
							</filter>
							<filter>
								<effect>
									<name>Crop</name>
									<effectid>crop</effectid>
									<effectcategory>motion</effectcategory>
									<effecttype>motion</effecttype>
									<mediatype>video</mediatype>
									<parameter authoringApp="PremierePro">
										<parameterid>left</parameterid>
										<name>left</name>
										<valuemin>0</valuemin>
										<valuemax>100</valuemax>
										<value>0</value>
									</parameter>
									<parameter authoringApp="PremierePro">
										<parameterid>right</parameterid>
										<name>right</name>
										<valuemin>0</valuemin>
										<valuemax>100</valuemax>
										<value>2</value>
									</parameter>
									<parameter authoringApp="PremierePro">
										<parameterid>top</parameterid>
										<name>top</name>
										<valuemin>0</valuemin>
										<valuemax>100</valuemax>
										<value>0</value>
									</parameter>
									<parameter authoringApp="PremierePro">
										<parameterid>bottom</parameterid>
										<name>bottom</name>
										<valuemin>0</valuemin>
										<valuemax>100</valuemax>
										<value>0</value>
									</parameter>
								</effect>
							</filter>
							<filter>
								<effect>
									<name>Opacity</name>
									<effectid>opacity</effectid>
									<effectcategory>motion</effectcategory>
									<effecttype>motion</effecttype>
									<mediatype>video</mediatype>
									<parameter authoringApp="PremierePro">
										<parameterid>opacity</parameterid>
										<name>opacity</name>
										<valuemin>0</valuemin>
										<valuemax>100</valuemax>
										<value>100</value>
										<keyframe>
											<when>0</when>
											<value>100</value>
										</keyframe>
									</parameter>
								</effect>
							</filter>
					</clipitem>
					<transitionitem>
						<start>10215</start>
						<end>10221</end>
						<alignment>end-black</alignment>
						<cutPoint>6</cutPoint>
						<rate>
							<timebase>25</timebase>
							<ntsc>FALSE</ntsc>
						</rate>
						<effect>
							<name>Dip to Color Dissolve</name>
							<effectid>Dip to Color Dissolve</effectid>
							<effectcategory>Dissolve</effectcategory>
							<effecttype>transition</effecttype>
							<mediatype>video</mediatype>
							<wipecode>0</wipecode>
							<wipeaccuracy>100</wipeaccuracy>
							<startratio>0</startratio>
							<endratio>1</endratio>
							<reverse>FALSE</reverse>
							<parameter authoringApp="PremierePro">
								<parameterid>dipcolor</parameterid>
								<name>Color</name>
								<value>
									<alpha>255</alpha>
									<red>255</red>
									<green>255</green>
									<blue>255</blue>
								</value>
							</parameter>
						</effect>
					</transitionitem>
					<transitionitem>
						<start>10800</start>
						<end>10806</end>
						<alignment>start-black</alignment>
						<cutPoint>0</cutPoint>
						<rate>
							<timebase>25</timebase>
							<ntsc>FALSE</ntsc>
						</rate>
						<effect>
							<name>Dip to Color Dissolve</name>
							<effectid>Dip to Color Dissolve</effectid>
							<effectcategory>Dissolve</effectcategory>
							<effecttype>transition</effecttype>
							<mediatype>video</mediatype>
							<wipecode>0</wipecode>
							<wipeaccuracy>100</wipeaccuracy>
							<startratio>0</startratio>
							<endratio>1</endratio>
							<reverse>FALSE</reverse>
							<parameter authoringApp="PremierePro">
								<parameterid>dipcolor</parameterid>
								<name>Color</name>
								<value>
									<alpha>255</alpha>
									<red>255</red>
									<green>255</green>
									<blue>255</blue>
								</value>
							</parameter>
						</effect>
					</transitionitem>
					<clipitem id="clipitem-292" frameBlend="FALSE">
						<masterclipid>masterclip-64</masterclipid>
						<name>filmb-sandalfilmer_p0</name>
						<enabled>TRUE</enabled>
						<duration>8701</duration>
						<rate>
							<ntsc>TRUE</ntsc>
							<timebase>30</timebase>
						</rate>
						<start>-1</start>
						<end>10883</end>
						<in>618</in>
						<out>701</out>
						<alphatype>none</alphatype>
						<file id="file-64"/>
							<filter>
								<effect>
									<name>Basic Motion</name>
									<effectid>basic</effectid>
									<effectcategory>motion</effectcategory>
									<effecttype>motion</effecttype>
									<mediatype>video</mediatype>
									<parameter authoringApp="PremierePro">
										<parameterid>scale</parameterid>
										<name>Scale</name>
										<valuemin>0</valuemin>
										<valuemax>1000</valuemax>
										<value>187</value>
									</parameter>
									<parameter authoringApp="PremierePro">
										<parameterid>rotation</parameterid>
										<name>Rotation</name>
										<valuemin>-8640</valuemin>
										<valuemax>8640</valuemax>
										<value>0</value>
									</parameter>
									<parameter authoringApp="PremierePro">
										<parameterid>center</parameterid>
										<name>Center</name>
										<value>
											<horiz>0</horiz>
											<vert>0</vert>
										</value>
									</parameter>
									<parameter authoringApp="PremierePro">
										<parameterid>centerOffset</parameterid>
										<name>Anchor Point</name>
										<value>
											<horiz>0</horiz>
											<vert>0</vert>
										</value>
									</parameter>
								</effect>
							</filter>
							<filter>
								<effect>
									<name>Distort</name>
									<effectid>deformation</effectid>
									<effectcategory>motion</effectcategory>
									<effecttype>motion</effecttype>
									<mediatype>video</mediatype>
									<parameter authoringApp="PremierePro">
										<parameterid>aspect</parameterid>
										<name>Aspect</name>
										<valuemin>-10000</valuemin>
										<valuemax>10000</valuemax>
										<value>-9.40171</value>
									</parameter>
								</effect>
							</filter>
					</clipitem>
					<clipitem id="clipitem-293" frameBlend="FALSE">
						<masterclipid>masterclip-104</masterclipid>
						<name>evangelios-para-sanar-alejandro-jodorowsky_MLU-F-26782866_7727.jpg</name>
						<enabled>TRUE</enabled>
						<duration>1080000</duration>
						<rate>
							<timebase>30</timebase>
							<ntsc>TRUE</ntsc>
						</rate>
						<start>12389</start>
						<end>12450</end>
						<in>89982</in>
						<out>90043</out>
						<alphatype>none</alphatype>
						<pixelaspectratio>square</pixelaspectratio>
						<anamorphic>FALSE</anamorphic>
						<file id="file-104">
							<name>evangelios-para-sanar-alejandro-jodorowsky_MLU-F-26782866_7727.jpg</name>
							<pathurl>file://localhost/Volumes/Scenen/Prosjekter/FILM/FILM%201413%20Jodorowsky%20BW/Grafikk/evangelios-para-sanar-alejandro-jodorowsky_MLU-F-26782866_7727.jpg</pathurl>
							<rate>
								<timebase>30</timebase>
								<ntsc>TRUE</ntsc>
							</rate>
							<timecode>
								<rate>
									<timebase>30</timebase>
									<ntsc>TRUE</ntsc>
								</rate>
								<string>00;00;00;00</string>
								<frame>0</frame>
								<displayformat>DF</displayformat>
							</timecode>
							<media>
								<video>
									<duration>18000</duration>
									<samplecharacteristics>
										<rate>
											<timebase>30</timebase>
											<ntsc>TRUE</ntsc>
										</rate>
										<width>718</width>
										<height>1106</height>
										<anamorphic>FALSE</anamorphic>
										<pixelaspectratio>square</pixelaspectratio>
										<fielddominance>none</fielddominance>
									</samplecharacteristics>
								</video>
							</media>
						</file>
							<filter>
								<effect>
									<name>Basic Motion</name>
									<effectid>basic</effectid>
									<effectcategory>motion</effectcategory>
									<effecttype>motion</effecttype>
									<mediatype>video</mediatype>
									<parameter authoringApp="PremierePro">
										<parameterid>scale</parameterid>
										<name>Scale</name>
										<valuemin>0</valuemin>
										<valuemax>1000</valuemax>
										<value>73.3604</value>
										<keyframe>
											<when>89986</when>
											<value>67.3604</value>
										</keyframe>
										<keyframe>
											<when>90042</when>
											<value>73.3604</value>
										</keyframe>
									</parameter>
									<parameter authoringApp="PremierePro">
										<parameterid>rotation</parameterid>
										<name>Rotation</name>
										<valuemin>-8640</valuemin>
										<valuemax>8640</valuemax>
										<value>0</value>
									</parameter>
									<parameter authoringApp="PremierePro">
										<parameterid>center</parameterid>
										<name>Center</name>
										<value>
											<horiz>-0.0302158</horiz>
											<vert>-0.0411774</vert>
										</value>
										<keyframe>
											<when>89986</when>
											<value>
												<horiz>-0.0302158</horiz>
												<vert>-0.0411774</vert>
											</value>
										</keyframe>
										<keyframe>
											<when>90042</when>
											<value>
												<horiz>-0.0302158</horiz>
												<vert>-0.0411774</vert>
											</value>
										</keyframe>
									</parameter>
									<parameter authoringApp="PremierePro">
										<parameterid>centerOffset</parameterid>
										<name>Anchor Point</name>
										<value>
											<horiz>0</horiz>
											<vert>0</vert>
										</value>
									</parameter>
								</effect>
							</filter>
					</clipitem>
					<clipitem id="clipitem-294" frameBlend="FALSE">
						<masterclipid>masterclip-105</masterclipid>
						<name>01203314201_g.jpg</name>
						<enabled>TRUE</enabled>
						<duration>1080000</duration>
						<rate>
							<timebase>30</timebase>
							<ntsc>TRUE</ntsc>
						</rate>
						<start>12462</start>
						<end>12538</end>
						<in>89991</in>
						<out>90067</out>
						<alphatype>none</alphatype>
						<pixelaspectratio>square</pixelaspectratio>
						<anamorphic>FALSE</anamorphic>
						<file id="file-105">
							<name>01203314201_g.jpg</name>
							<pathurl>file://localhost/Volumes/Scenen/Prosjekter/FILM/FILM%201413%20Jodorowsky%20BW/Grafikk/01203314201_g.jpg</pathurl>
							<rate>
								<timebase>30</timebase>
								<ntsc>TRUE</ntsc>
							</rate>
							<timecode>
								<rate>
									<timebase>30</timebase>
									<ntsc>TRUE</ntsc>
								</rate>
								<string>00;00;00;00</string>
								<frame>0</frame>
								<displayformat>DF</displayformat>
							</timecode>
							<media>
								<video>
									<duration>18000</duration>
									<samplecharacteristics>
										<rate>
											<timebase>30</timebase>
											<ntsc>TRUE</ntsc>
										</rate>
										<width>439</width>
										<height>600</height>
										<anamorphic>FALSE</anamorphic>
										<pixelaspectratio>square</pixelaspectratio>
										<fielddominance>none</fielddominance>
									</samplecharacteristics>
								</video>
							</media>
						</file>
							<filter>
								<effect>
									<name>Basic Motion</name>
									<effectid>basic</effectid>
									<effectcategory>motion</effectcategory>
									<effecttype>motion</effecttype>
									<mediatype>video</mediatype>
									<parameter authoringApp="PremierePro">
										<parameterid>scale</parameterid>
										<name>Scale</name>
										<valuemin>0</valuemin>
										<valuemax>1000</valuemax>
										<value>140.446</value>
										<keyframe>
											<when>89995</when>
											<value>140.446</value>
										</keyframe>
										<keyframe>
											<when>90066</when>
											<value>161.446</value>
										</keyframe>
									</parameter>
									<parameter authoringApp="PremierePro">
										<parameterid>rotation</parameterid>
										<name>Rotation</name>
										<valuemin>-8640</valuemin>
										<valuemax>8640</valuemax>
										<value>0</value>
									</parameter>
									<parameter authoringApp="PremierePro">
										<parameterid>center</parameterid>
										<name>Center</name>
										<value>
											<horiz>1.27501</horiz>
											<vert>-0.0542169</vert>
										</value>
										<keyframe>
											<when>89995</when>
											<value>
												<horiz>1.27501</horiz>
												<vert>-0.0542169</vert>
											</value>
										</keyframe>
										<keyframe>
											<when>90066</when>
											<value>
												<horiz>1.27501</horiz>
												<vert>-0.0542169</vert>
											</value>
										</keyframe>
									</parameter>
									<parameter authoringApp="PremierePro">
										<parameterid>centerOffset</parameterid>
										<name>Anchor Point</name>
										<value>
											<horiz>0</horiz>
											<vert>0</vert>
										</value>
									</parameter>
								</effect>
							</filter>
					</clipitem>
					<transitionitem>
						<start>12697</start>
						<end>12722</end>
						<alignment>start-black</alignment>
						<cutPoint>0</cutPoint>
						<rate>
							<timebase>25</timebase>
							<ntsc>FALSE</ntsc>
						</rate>
						<effect>
							<name>Cross Dissolve</name>
							<effectid>Cross Dissolve</effectid>
							<effectcategory>Dissolve</effectcategory>
							<effecttype>transition</effecttype>
							<mediatype>video</mediatype>
							<wipecode>0</wipecode>
							<wipeaccuracy>100</wipeaccuracy>
							<startratio>0</startratio>
							<endratio>1</endratio>
							<reverse>FALSE</reverse>
						</effect>
					</transitionitem>
					<clipitem id="clipitem-295" frameBlend="FALSE">
						<masterclipid>masterclip-106</masterclipid>
						<name>Vegard Copy 02</name>
						<enabled>TRUE</enabled>
						<duration>1080000</duration>
						<rate>
							<timebase>30</timebase>
							<ntsc>TRUE</ntsc>
						</rate>
						<start>-1</start>
						<end>-1</end>
						<in>271372</in>
						<out>271534</out>
						<alphatype>straight</alphatype>
						<pixelaspectratio>square</pixelaspectratio>
						<anamorphic>FALSE</anamorphic>
						<file id="file-106">
							<name>Internal Title</name>
							<mediaSource>Slug</mediaSource>
							<rate>
								<timebase>30</timebase>
								<ntsc>TRUE</ntsc>
							</rate>
							<timecode>
								<rate>
									<timebase>30</timebase>
									<ntsc>TRUE</ntsc>
								</rate>
								<string>00;00;00;00</string>
								<frame>0</frame>
								<displayformat>DF</displayformat>
							</timecode>
							<media>
								<video>
									<duration>18000</duration>
									<samplecharacteristics>
										<rate>
											<timebase>30</timebase>
											<ntsc>TRUE</ntsc>
										</rate>
										<width>1920</width>
										<height>1080</height>
										<anamorphic>FALSE</anamorphic>
										<pixelaspectratio>square</pixelaspectratio>
										<fielddominance>none</fielddominance>
									</samplecharacteristics>
								</video>
							</media>
						</file>
					</clipitem>
					<transitionitem>
						<start>12834</start>
						<end>12859</end>
						<alignment>end-black</alignment>
						<cutPoint>25</cutPoint>
						<rate>
							<timebase>25</timebase>
							<ntsc>FALSE</ntsc>
						</rate>
						<effect>
							<name>Cross Dissolve</name>
							<effectid>Cross Dissolve</effectid>
							<effectcategory>Dissolve</effectcategory>
							<effecttype>transition</effecttype>
							<mediatype>video</mediatype>
							<wipecode>0</wipecode>
							<wipeaccuracy>100</wipeaccuracy>
							<startratio>0</startratio>
							<endratio>1</endratio>
							<reverse>FALSE</reverse>
						</effect>
					</transitionitem>
					<transitionitem>
						<start>12999</start>
						<end>13024</end>
						<alignment>start-black</alignment>
						<cutPoint>0</cutPoint>
						<rate>
							<timebase>25</timebase>
							<ntsc>FALSE</ntsc>
						</rate>
						<effect>
							<name>Cross Dissolve</name>
							<effectid>Cross Dissolve</effectid>
							<effectcategory>Dissolve</effectcategory>
							<effecttype>transition</effecttype>
							<mediatype>video</mediatype>
							<wipecode>0</wipecode>
							<wipeaccuracy>100</wipeaccuracy>
							<startratio>0</startratio>
							<endratio>1</endratio>
							<reverse>FALSE</reverse>
						</effect>
					</transitionitem>
					<clipitem id="clipitem-296" frameBlend="FALSE">
						<masterclipid>masterclip-107</masterclipid>
						<name>Vegard Copy 01</name>
						<enabled>FALSE</enabled>
						<duration>1080000</duration>
						<rate>
							<timebase>30</timebase>
							<ntsc>TRUE</ntsc>
						</rate>
						<start>-1</start>
						<end>-1</end>
						<in>271372</in>
						<out>271534</out>
						<alphatype>straight</alphatype>
						<pixelaspectratio>square</pixelaspectratio>
						<anamorphic>FALSE</anamorphic>
						<file id="file-107">
							<name>Internal Title</name>
							<mediaSource>Slug</mediaSource>
							<rate>
								<timebase>30</timebase>
								<ntsc>TRUE</ntsc>
							</rate>
							<timecode>
								<rate>
									<timebase>30</timebase>
									<ntsc>TRUE</ntsc>
								</rate>
								<string>00;00;00;00</string>
								<frame>0</frame>
								<displayformat>DF</displayformat>
							</timecode>
							<media>
								<video>
									<duration>18000</duration>
									<samplecharacteristics>
										<rate>
											<timebase>30</timebase>
											<ntsc>TRUE</ntsc>
										</rate>
										<width>1920</width>
										<height>1080</height>
										<anamorphic>FALSE</anamorphic>
										<pixelaspectratio>square</pixelaspectratio>
										<fielddominance>none</fielddominance>
									</samplecharacteristics>
								</video>
							</media>
						</file>
					</clipitem>
					<transitionitem>
						<start>13136</start>
						<end>13161</end>
						<alignment>end-black</alignment>
						<cutPoint>25</cutPoint>
						<rate>
							<timebase>25</timebase>
							<ntsc>FALSE</ntsc>
						</rate>
						<effect>
							<name>Cross Dissolve</name>
							<effectid>Cross Dissolve</effectid>
							<effectcategory>Dissolve</effectcategory>
							<effecttype>transition</effecttype>
							<mediatype>video</mediatype>
							<wipecode>0</wipecode>
							<wipeaccuracy>100</wipeaccuracy>
							<startratio>0</startratio>
							<endratio>1</endratio>
							<reverse>FALSE</reverse>
						</effect>
					</transitionitem>
					<clipitem id="clipitem-297" frameBlend="FALSE">
						<masterclipid>masterclip-71</masterclipid>
						<name>DUNE PROMO TRAILER JAPAN.mov</name>
						<enabled>TRUE</enabled>
						<duration>3053</duration>
						<rate>
							<ntsc>TRUE</ntsc>
							<timebase>30</timebase>
						</rate>
						<start>13451</start>
						<end>13596</end>
						<in>152</in>
						<out>297</out>
						<alphatype>none</alphatype>
						<file id="file-71"/>
							<filter>
								<effect>
									<name>Crop</name>
									<effectid>crop</effectid>
									<effectcategory>motion</effectcategory>
									<effecttype>motion</effecttype>
									<mediatype>video</mediatype>
									<parameter authoringApp="PremierePro">
										<parameterid>left</parameterid>
										<name>left</name>
										<valuemin>0</valuemin>
										<valuemax>100</valuemax>
										<value>33</value>
									</parameter>
									<parameter authoringApp="PremierePro">
										<parameterid>right</parameterid>
										<name>right</name>
										<valuemin>0</valuemin>
										<valuemax>100</valuemax>
										<value>34</value>
									</parameter>
									<parameter authoringApp="PremierePro">
										<parameterid>top</parameterid>
										<name>top</name>
										<valuemin>0</valuemin>
										<valuemax>100</valuemax>
										<value>88</value>
									</parameter>
									<parameter authoringApp="PremierePro">
										<parameterid>bottom</parameterid>
										<name>bottom</name>
										<valuemin>0</valuemin>
										<valuemax>100</valuemax>
										<value>5</value>
									</parameter>
								</effect>
							</filter>
							<filter>
								<effect>
									<name>Gaussian Blur</name>
									<effectid>Gaussian Blur</effectid>
									<effectcategory>Blur</effectcategory>
									<effecttype>motion</effecttype>
									<mediatype>video</mediatype>
									<parameter authoringApp="PremierePro">
										<parameterid>radius</parameterid>
										<name>Radius</name>
										<valuemin>0</valuemin>
										<valuemax>100</valuemax>
										<value>0</value>
									</parameter>
								</effect>
							</filter>
					</clipitem>
					<clipitem id="clipitem-298" frameBlend="FALSE">
						<masterclipid>masterclip-71</masterclipid>
						<name>DUNE PROMO TRAILER JAPAN.mov</name>
						<enabled>TRUE</enabled>
						<duration>3053</duration>
						<rate>
							<ntsc>TRUE</ntsc>
							<timebase>30</timebase>
						</rate>
						<start>13596</start>
						<end>13738</end>
						<in>297</in>
						<out>439</out>
						<alphatype>none</alphatype>
						<file id="file-71"/>
							<filter>
								<effect>
									<name>Crop</name>
									<effectid>crop</effectid>
									<effectcategory>motion</effectcategory>
									<effecttype>motion</effecttype>
									<mediatype>video</mediatype>
									<parameter authoringApp="PremierePro">
										<parameterid>left</parameterid>
										<name>left</name>
										<valuemin>0</valuemin>
										<valuemax>100</valuemax>
										<value>30</value>
									</parameter>
									<parameter authoringApp="PremierePro">
										<parameterid>right</parameterid>
										<name>right</name>
										<valuemin>0</valuemin>
										<valuemax>100</valuemax>
										<value>31</value>
									</parameter>
									<parameter authoringApp="PremierePro">
										<parameterid>top</parameterid>
										<name>top</name>
										<valuemin>0</valuemin>
										<valuemax>100</valuemax>
										<value>81</value>
									</parameter>
									<parameter authoringApp="PremierePro">
										<parameterid>bottom</parameterid>
										<name>bottom</name>
										<valuemin>0</valuemin>
										<valuemax>100</valuemax>
										<value>5</value>
									</parameter>
								</effect>
							</filter>
							<filter>
								<effect>
									<name>Gaussian Blur</name>
									<effectid>Gaussian Blur</effectid>
									<effectcategory>Blur</effectcategory>
									<effecttype>motion</effecttype>
									<mediatype>video</mediatype>
									<parameter authoringApp="PremierePro">
										<parameterid>radius</parameterid>
										<name>Radius</name>
										<valuemin>0</valuemin>
										<valuemax>100</valuemax>
										<value>0</value>
									</parameter>
								</effect>
							</filter>
					</clipitem>
					<clipitem id="clipitem-299" frameBlend="FALSE">
						<masterclipid>masterclip-71</masterclipid>
						<name>DUNE PROMO TRAILER JAPAN.mov</name>
						<enabled>TRUE</enabled>
						<duration>3053</duration>
						<rate>
							<ntsc>TRUE</ntsc>
							<timebase>30</timebase>
						</rate>
						<start>13738</start>
						<end>13868</end>
						<in>439</in>
						<out>569</out>
						<alphatype>none</alphatype>
						<file id="file-71"/>
							<filter>
								<effect>
									<name>Crop</name>
									<effectid>crop</effectid>
									<effectcategory>motion</effectcategory>
									<effecttype>motion</effecttype>
									<mediatype>video</mediatype>
									<parameter authoringApp="PremierePro">
										<parameterid>left</parameterid>
										<name>left</name>
										<valuemin>0</valuemin>
										<valuemax>100</valuemax>
										<value>24</value>
									</parameter>
									<parameter authoringApp="PremierePro">
										<parameterid>right</parameterid>
										<name>right</name>
										<valuemin>0</valuemin>
										<valuemax>100</valuemax>
										<value>24</value>
									</parameter>
									<parameter authoringApp="PremierePro">
										<parameterid>top</parameterid>
										<name>top</name>
										<valuemin>0</valuemin>
										<valuemax>100</valuemax>
										<value>81</value>
									</parameter>
									<parameter authoringApp="PremierePro">
										<parameterid>bottom</parameterid>
										<name>bottom</name>
										<valuemin>0</valuemin>
										<valuemax>100</valuemax>
										<value>5</value>
									</parameter>
								</effect>
							</filter>
							<filter>
								<effect>
									<name>Gaussian Blur</name>
									<effectid>Gaussian Blur</effectid>
									<effectcategory>Blur</effectcategory>
									<effecttype>motion</effecttype>
									<mediatype>video</mediatype>
									<parameter authoringApp="PremierePro">
										<parameterid>radius</parameterid>
										<name>Radius</name>
										<valuemin>0</valuemin>
										<valuemax>100</valuemax>
										<value>0</value>
									</parameter>
								</effect>
							</filter>
					</clipitem>
					<clipitem id="clipitem-300" frameBlend="FALSE">
						<masterclipid>masterclip-71</masterclipid>
						<name>DUNE PROMO TRAILER JAPAN.mov</name>
						<enabled>TRUE</enabled>
						<duration>3053</duration>
						<rate>
							<ntsc>TRUE</ntsc>
							<timebase>30</timebase>
						</rate>
						<start>13868</start>
						<end>14001</end>
						<in>569</in>
						<out>702</out>
						<alphatype>none</alphatype>
						<file id="file-71"/>
							<filter>
								<effect>
									<name>Crop</name>
									<effectid>crop</effectid>
									<effectcategory>motion</effectcategory>
									<effecttype>motion</effecttype>
									<mediatype>video</mediatype>
									<parameter authoringApp="PremierePro">
										<parameterid>left</parameterid>
										<name>left</name>
										<valuemin>0</valuemin>
										<valuemax>100</valuemax>
										<value>22</value>
									</parameter>
									<parameter authoringApp="PremierePro">
										<parameterid>right</parameterid>
										<name>right</name>
										<valuemin>0</valuemin>
										<valuemax>100</valuemax>
										<value>22</value>
									</parameter>
									<parameter authoringApp="PremierePro">
										<parameterid>top</parameterid>
										<name>top</name>
										<valuemin>0</valuemin>
										<valuemax>100</valuemax>
										<value>80</value>
									</parameter>
									<parameter authoringApp="PremierePro">
										<parameterid>bottom</parameterid>
										<name>bottom</name>
										<valuemin>0</valuemin>
										<valuemax>100</valuemax>
										<value>5</value>
									</parameter>
								</effect>
							</filter>
							<filter>
								<effect>
									<name>Gaussian Blur</name>
									<effectid>Gaussian Blur</effectid>
									<effectcategory>Blur</effectcategory>
									<effecttype>motion</effecttype>
									<mediatype>video</mediatype>
									<parameter authoringApp="PremierePro">
										<parameterid>radius</parameterid>
										<name>Radius</name>
										<valuemin>0</valuemin>
										<valuemax>100</valuemax>
										<value>0</value>
									</parameter>
								</effect>
							</filter>
					</clipitem>
					<clipitem id="clipitem-301" frameBlend="FALSE">
						<masterclipid>masterclip-71</masterclipid>
						<name>DUNE PROMO TRAILER JAPAN.mov</name>
						<enabled>TRUE</enabled>
						<duration>3053</duration>
						<rate>
							<ntsc>TRUE</ntsc>
							<timebase>30</timebase>
						</rate>
						<start>14001</start>
						<end>14122</end>
						<in>702</in>
						<out>823</out>
						<alphatype>none</alphatype>
						<file id="file-71"/>
							<filter>
								<effect>
									<name>Crop</name>
									<effectid>crop</effectid>
									<effectcategory>motion</effectcategory>
									<effecttype>motion</effecttype>
									<mediatype>video</mediatype>
									<parameter authoringApp="PremierePro">
										<parameterid>left</parameterid>
										<name>left</name>
										<valuemin>0</valuemin>
										<valuemax>100</valuemax>
										<value>28</value>
									</parameter>
									<parameter authoringApp="PremierePro">
										<parameterid>right</parameterid>
										<name>right</name>
										<valuemin>0</valuemin>
										<valuemax>100</valuemax>
										<value>28</value>
									</parameter>
									<parameter authoringApp="PremierePro">
										<parameterid>top</parameterid>
										<name>top</name>
										<valuemin>0</valuemin>
										<valuemax>100</valuemax>
										<value>81</value>
									</parameter>
									<parameter authoringApp="PremierePro">
										<parameterid>bottom</parameterid>
										<name>bottom</name>
										<valuemin>0</valuemin>
										<valuemax>100</valuemax>
										<value>5</value>
									</parameter>
								</effect>
							</filter>
							<filter>
								<effect>
									<name>Gaussian Blur</name>
									<effectid>Gaussian Blur</effectid>
									<effectcategory>Blur</effectcategory>
									<effecttype>motion</effecttype>
									<mediatype>video</mediatype>
									<parameter authoringApp="PremierePro">
										<parameterid>radius</parameterid>
										<name>Radius</name>
										<valuemin>0</valuemin>
										<valuemax>100</valuemax>
										<value>0</value>
									</parameter>
								</effect>
							</filter>
					</clipitem>
					<clipitem id="clipitem-302" frameBlend="FALSE">
						<masterclipid>masterclip-71</masterclipid>
						<name>DUNE PROMO TRAILER JAPAN.mov</name>
						<enabled>TRUE</enabled>
						<duration>3053</duration>
						<rate>
							<ntsc>TRUE</ntsc>
							<timebase>30</timebase>
						</rate>
						<start>14142</start>
						<end>14250</end>
						<in>843</in>
						<out>951</out>
						<alphatype>none</alphatype>
						<file id="file-71"/>
							<filter>
								<effect>
									<name>Crop</name>
									<effectid>crop</effectid>
									<effectcategory>motion</effectcategory>
									<effecttype>motion</effecttype>
									<mediatype>video</mediatype>
									<parameter authoringApp="PremierePro">
										<parameterid>left</parameterid>
										<name>left</name>
										<valuemin>0</valuemin>
										<valuemax>100</valuemax>
										<value>21</value>
									</parameter>
									<parameter authoringApp="PremierePro">
										<parameterid>right</parameterid>
										<name>right</name>
										<valuemin>0</valuemin>
										<valuemax>100</valuemax>
										<value>20</value>
									</parameter>
									<parameter authoringApp="PremierePro">
										<parameterid>top</parameterid>
										<name>top</name>
										<valuemin>0</valuemin>
										<valuemax>100</valuemax>
										<value>87</value>
									</parameter>
									<parameter authoringApp="PremierePro">
										<parameterid>bottom</parameterid>
										<name>bottom</name>
										<valuemin>0</valuemin>
										<valuemax>100</valuemax>
										<value>5</value>
									</parameter>
								</effect>
							</filter>
							<filter>
								<effect>
									<name>Gaussian Blur</name>
									<effectid>Gaussian Blur</effectid>
									<effectcategory>Blur</effectcategory>
									<effecttype>motion</effecttype>
									<mediatype>video</mediatype>
									<parameter authoringApp="PremierePro">
										<parameterid>radius</parameterid>
										<name>Radius</name>
										<valuemin>0</valuemin>
										<valuemax>100</valuemax>
										<value>0</value>
									</parameter>
								</effect>
							</filter>
					</clipitem>
					<clipitem id="clipitem-303" frameBlend="FALSE">
						<masterclipid>masterclip-71</masterclipid>
						<name>DUNE PROMO TRAILER JAPAN.mov</name>
						<enabled>TRUE</enabled>
						<duration>3053</duration>
						<rate>
							<ntsc>TRUE</ntsc>
							<timebase>30</timebase>
						</rate>
						<start>14270</start>
						<end>14379</end>
						<in>971</in>
						<out>1080</out>
						<alphatype>none</alphatype>
						<file id="file-71"/>
							<filter>
								<effect>
									<name>Crop</name>
									<effectid>crop</effectid>
									<effectcategory>motion</effectcategory>
									<effecttype>motion</effecttype>
									<mediatype>video</mediatype>
									<parameter authoringApp="PremierePro">
										<parameterid>left</parameterid>
										<name>left</name>
										<valuemin>0</valuemin>
										<valuemax>100</valuemax>
										<value>24</value>
									</parameter>
									<parameter authoringApp="PremierePro">
										<parameterid>right</parameterid>
										<name>right</name>
										<valuemin>0</valuemin>
										<valuemax>100</valuemax>
										<value>26</value>
									</parameter>
									<parameter authoringApp="PremierePro">
										<parameterid>top</parameterid>
										<name>top</name>
										<valuemin>0</valuemin>
										<valuemax>100</valuemax>
										<value>81</value>
									</parameter>
									<parameter authoringApp="PremierePro">
										<parameterid>bottom</parameterid>
										<name>bottom</name>
										<valuemin>0</valuemin>
										<valuemax>100</valuemax>
										<value>5</value>
									</parameter>
								</effect>
							</filter>
							<filter>
								<effect>
									<name>Gaussian Blur</name>
									<effectid>Gaussian Blur</effectid>
									<effectcategory>Blur</effectcategory>
									<effecttype>motion</effecttype>
									<mediatype>video</mediatype>
									<parameter authoringApp="PremierePro">
										<parameterid>radius</parameterid>
										<name>Radius</name>
										<valuemin>0</valuemin>
										<valuemax>100</valuemax>
										<value>0</value>
									</parameter>
								</effect>
							</filter>
					</clipitem>
					<clipitem id="clipitem-304" frameBlend="FALSE">
						<masterclipid>masterclip-71</masterclipid>
						<name>DUNE PROMO TRAILER JAPAN.mov</name>
						<enabled>TRUE</enabled>
						<duration>3053</duration>
						<rate>
							<ntsc>TRUE</ntsc>
							<timebase>30</timebase>
						</rate>
						<start>14407</start>
						<end>14507</end>
						<in>1108</in>
						<out>1208</out>
						<alphatype>none</alphatype>
						<file id="file-71"/>
							<filter>
								<effect>
									<name>Crop</name>
									<effectid>crop</effectid>
									<effectcategory>motion</effectcategory>
									<effecttype>motion</effecttype>
									<mediatype>video</mediatype>
									<parameter authoringApp="PremierePro">
										<parameterid>left</parameterid>
										<name>left</name>
										<valuemin>0</valuemin>
										<valuemax>100</valuemax>
										<value>21</value>
									</parameter>
									<parameter authoringApp="PremierePro">
										<parameterid>right</parameterid>
										<name>right</name>
										<valuemin>0</valuemin>
										<valuemax>100</valuemax>
										<value>20</value>
									</parameter>
									<parameter authoringApp="PremierePro">
										<parameterid>top</parameterid>
										<name>top</name>
										<valuemin>0</valuemin>
										<valuemax>100</valuemax>
										<value>81</value>
									</parameter>
									<parameter authoringApp="PremierePro">
										<parameterid>bottom</parameterid>
										<name>bottom</name>
										<valuemin>0</valuemin>
										<valuemax>100</valuemax>
										<value>5</value>
									</parameter>
								</effect>
							</filter>
							<filter>
								<effect>
									<name>Gaussian Blur</name>
									<effectid>Gaussian Blur</effectid>
									<effectcategory>Blur</effectcategory>
									<effecttype>motion</effecttype>
									<mediatype>video</mediatype>
									<parameter authoringApp="PremierePro">
										<parameterid>radius</parameterid>
										<name>Radius</name>
										<valuemin>0</valuemin>
										<valuemax>100</valuemax>
										<value>0</value>
									</parameter>
								</effect>
							</filter>
					</clipitem>
					<clipitem id="clipitem-305" frameBlend="FALSE">
						<masterclipid>masterclip-71</masterclipid>
						<name>DUNE PROMO TRAILER JAPAN.mov</name>
						<enabled>TRUE</enabled>
						<duration>3053</duration>
						<rate>
							<ntsc>TRUE</ntsc>
							<timebase>30</timebase>
						</rate>
						<start>14509</start>
						<end>14582</end>
						<in>1210</in>
						<out>1283</out>
						<alphatype>none</alphatype>
						<file id="file-71"/>
							<filter>
								<effect>
									<name>Crop</name>
									<effectid>crop</effectid>
									<effectcategory>motion</effectcategory>
									<effecttype>motion</effecttype>
									<mediatype>video</mediatype>
									<parameter authoringApp="PremierePro">
										<parameterid>left</parameterid>
										<name>left</name>
										<valuemin>0</valuemin>
										<valuemax>100</valuemax>
										<value>31</value>
									</parameter>
									<parameter authoringApp="PremierePro">
										<parameterid>right</parameterid>
										<name>right</name>
										<valuemin>0</valuemin>
										<valuemax>100</valuemax>
										<value>31</value>
									</parameter>
									<parameter authoringApp="PremierePro">
										<parameterid>top</parameterid>
										<name>top</name>
										<valuemin>0</valuemin>
										<valuemax>100</valuemax>
										<value>81</value>
									</parameter>
									<parameter authoringApp="PremierePro">
										<parameterid>bottom</parameterid>
										<name>bottom</name>
										<valuemin>0</valuemin>
										<valuemax>100</valuemax>
										<value>5</value>
									</parameter>
								</effect>
							</filter>
							<filter>
								<effect>
									<name>Gaussian Blur</name>
									<effectid>Gaussian Blur</effectid>
									<effectcategory>Blur</effectcategory>
									<effecttype>motion</effecttype>
									<mediatype>video</mediatype>
									<parameter authoringApp="PremierePro">
										<parameterid>radius</parameterid>
										<name>Radius</name>
										<valuemin>0</valuemin>
										<valuemax>100</valuemax>
										<value>0</value>
									</parameter>
								</effect>
							</filter>
					</clipitem>
					<clipitem id="clipitem-306" frameBlend="FALSE">
						<masterclipid>masterclip-71</masterclipid>
						<name>DUNE PROMO TRAILER JAPAN.mov</name>
						<enabled>TRUE</enabled>
						<duration>3053</duration>
						<rate>
							<ntsc>TRUE</ntsc>
							<timebase>30</timebase>
						</rate>
						<start>14584</start>
						<end>14716</end>
						<in>1285</in>
						<out>1417</out>
						<alphatype>none</alphatype>
						<file id="file-71"/>
							<filter>
								<effect>
									<name>Crop</name>
									<effectid>crop</effectid>
									<effectcategory>motion</effectcategory>
									<effecttype>motion</effecttype>
									<mediatype>video</mediatype>
									<parameter authoringApp="PremierePro">
										<parameterid>left</parameterid>
										<name>left</name>
										<valuemin>0</valuemin>
										<valuemax>100</valuemax>
										<value>20</value>
									</parameter>
									<parameter authoringApp="PremierePro">
										<parameterid>right</parameterid>
										<name>right</name>
										<valuemin>0</valuemin>
										<valuemax>100</valuemax>
										<value>16</value>
									</parameter>
									<parameter authoringApp="PremierePro">
										<parameterid>top</parameterid>
										<name>top</name>
										<valuemin>0</valuemin>
										<valuemax>100</valuemax>
										<value>81</value>
									</parameter>
									<parameter authoringApp="PremierePro">
										<parameterid>bottom</parameterid>
										<name>bottom</name>
										<valuemin>0</valuemin>
										<valuemax>100</valuemax>
										<value>5</value>
									</parameter>
								</effect>
							</filter>
							<filter>
								<effect>
									<name>Gaussian Blur</name>
									<effectid>Gaussian Blur</effectid>
									<effectcategory>Blur</effectcategory>
									<effecttype>motion</effecttype>
									<mediatype>video</mediatype>
									<parameter authoringApp="PremierePro">
										<parameterid>radius</parameterid>
										<name>Radius</name>
										<valuemin>0</valuemin>
										<valuemax>100</valuemax>
										<value>0</value>
									</parameter>
								</effect>
							</filter>
					</clipitem>
					<clipitem id="clipitem-307" frameBlend="FALSE">
						<masterclipid>masterclip-108</masterclipid>
						<name>dune book.jpg</name>
						<enabled>TRUE</enabled>
						<duration>1080000</duration>
						<rate>
							<timebase>30</timebase>
							<ntsc>TRUE</ntsc>
						</rate>
						<start>14865</start>
						<end>15007</end>
						<in>90000</in>
						<out>90142</out>
						<alphatype>none</alphatype>
						<pixelaspectratio>square</pixelaspectratio>
						<anamorphic>FALSE</anamorphic>
						<file id="file-108">
							<name>dune book.jpg</name>
							<pathurl>file://localhost/Volumes/Scenen/Prosjekter/FILM/FILM%201413%20Jodorowsky%20BW/Grafikk/dune%20book.jpg</pathurl>
							<rate>
								<timebase>30</timebase>
								<ntsc>TRUE</ntsc>
							</rate>
							<timecode>
								<rate>
									<timebase>30</timebase>
									<ntsc>TRUE</ntsc>
								</rate>
								<string>00;00;00;00</string>
								<frame>0</frame>
								<displayformat>DF</displayformat>
							</timecode>
							<media>
								<video>
									<duration>18000</duration>
									<samplecharacteristics>
										<rate>
											<timebase>30</timebase>
											<ntsc>TRUE</ntsc>
										</rate>
										<width>857</width>
										<height>1280</height>
										<anamorphic>FALSE</anamorphic>
										<pixelaspectratio>square</pixelaspectratio>
										<fielddominance>none</fielddominance>
									</samplecharacteristics>
								</video>
							</media>
						</file>
							<filter>
								<effect>
									<name>Basic Motion</name>
									<effectid>basic</effectid>
									<effectcategory>motion</effectcategory>
									<effecttype>motion</effecttype>
									<mediatype>video</mediatype>
									<parameter authoringApp="PremierePro">
										<parameterid>scale</parameterid>
										<name>Scale</name>
										<valuemin>0</valuemin>
										<valuemax>1000</valuemax>
										<value>102</value>
										<keyframe>
											<when>90000</when>
											<value>81</value>
										</keyframe>
										<keyframe>
											<when>90113</when>
											<value>102</value>
										</keyframe>
									</parameter>
									<parameter authoringApp="PremierePro">
										<parameterid>rotation</parameterid>
										<name>Rotation</name>
										<valuemin>-8640</valuemin>
										<valuemax>8640</valuemax>
										<value>0</value>
									</parameter>
									<parameter authoringApp="PremierePro">
										<parameterid>center</parameterid>
										<name>Center</name>
										<value>
											<horiz>0</horiz>
											<vert>0</vert>
										</value>
										<keyframe>
											<when>90000</when>
											<value>
												<horiz>0</horiz>
												<vert>0</vert>
											</value>
										</keyframe>
										<keyframe>
											<when>90113</when>
											<value>
												<horiz>0</horiz>
												<vert>0</vert>
											</value>
										</keyframe>
									</parameter>
									<parameter authoringApp="PremierePro">
										<parameterid>centerOffset</parameterid>
										<name>Anchor Point</name>
										<value>
											<horiz>0</horiz>
											<vert>0</vert>
										</value>
									</parameter>
								</effect>
							</filter>
							<filter>
								<effect>
									<name>Crop</name>
									<effectid>crop</effectid>
									<effectcategory>motion</effectcategory>
									<effecttype>motion</effecttype>
									<mediatype>video</mediatype>
									<parameter authoringApp="PremierePro">
										<parameterid>left</parameterid>
										<name>left</name>
										<valuemin>0</valuemin>
										<valuemax>100</valuemax>
										<value>0</value>
									</parameter>
									<parameter authoringApp="PremierePro">
										<parameterid>right</parameterid>
										<name>right</name>
										<valuemin>0</valuemin>
										<valuemax>100</valuemax>
										<value>0</value>
									</parameter>
									<parameter authoringApp="PremierePro">
										<parameterid>top</parameterid>
										<name>top</name>
										<valuemin>0</valuemin>
										<valuemax>100</valuemax>
										<value>1</value>
									</parameter>
									<parameter authoringApp="PremierePro">
										<parameterid>bottom</parameterid>
										<name>bottom</name>
										<valuemin>0</valuemin>
										<valuemax>100</valuemax>
										<value>0</value>
									</parameter>
								</effect>
							</filter>
					</clipitem>
					<clipitem id="clipitem-308" frameBlend="FALSE">
						<masterclipid>masterclip-109</masterclipid>
						<name>Moebius_Duncan_Gurney.jpg</name>
						<enabled>TRUE</enabled>
						<duration>1080000</duration>
						<rate>
							<timebase>30</timebase>
							<ntsc>TRUE</ntsc>
						</rate>
						<start>15007</start>
						<end>15168</end>
						<in>90015</in>
						<out>90176</out>
						<alphatype>none</alphatype>
						<pixelaspectratio>square</pixelaspectratio>
						<anamorphic>FALSE</anamorphic>
						<file id="file-109">
							<name>Moebius_Duncan_Gurney.jpg</name>
							<pathurl>file://localhost/Volumes/Scenen/Utveksling/FILM/Bilder/Dune_bilder/Moebius_Duncan_Gurney.jpg</pathurl>
							<rate>
								<timebase>30</timebase>
								<ntsc>TRUE</ntsc>
							</rate>
							<timecode>
								<rate>
									<timebase>30</timebase>
									<ntsc>TRUE</ntsc>
								</rate>
								<string>00;00;00;00</string>
								<frame>0</frame>
								<displayformat>DF</displayformat>
							</timecode>
							<media>
								<video>
									<duration>18000</duration>
									<samplecharacteristics>
										<rate>
											<timebase>30</timebase>
											<ntsc>TRUE</ntsc>
										</rate>
										<width>550</width>
										<height>883</height>
										<anamorphic>FALSE</anamorphic>
										<pixelaspectratio>square</pixelaspectratio>
										<fielddominance>none</fielddominance>
									</samplecharacteristics>
								</video>
							</media>
						</file>
							<filter>
								<effect>
									<name>Basic Motion</name>
									<effectid>basic</effectid>
									<effectcategory>motion</effectcategory>
									<effecttype>motion</effecttype>
									<mediatype>video</mediatype>
									<parameter authoringApp="PremierePro">
										<parameterid>scale</parameterid>
										<name>Scale</name>
										<valuemin>0</valuemin>
										<valuemax>1000</valuemax>
										<value>75</value>
									</parameter>
									<parameter authoringApp="PremierePro">
										<parameterid>rotation</parameterid>
										<name>Rotation</name>
										<valuemin>-8640</valuemin>
										<valuemax>8640</valuemax>
										<value>0</value>
									</parameter>
									<parameter authoringApp="PremierePro">
										<parameterid>center</parameterid>
										<name>Center</name>
										<value>
											<horiz>-1.26364</horiz>
											<vert>0</vert>
										</value>
									</parameter>
									<parameter authoringApp="PremierePro">
										<parameterid>centerOffset</parameterid>
										<name>Anchor Point</name>
										<value>
											<horiz>0</horiz>
											<vert>0</vert>
										</value>
									</parameter>
								</effect>
							</filter>
					</clipitem>
					<transitionitem>
						<start>16147</start>
						<end>16172</end>
						<alignment>start-black</alignment>
						<cutPoint>0</cutPoint>
						<rate>
							<timebase>25</timebase>
							<ntsc>FALSE</ntsc>
						</rate>
						<effect>
							<name>Cross Dissolve</name>
							<effectid>Cross Dissolve</effectid>
							<effectcategory>Dissolve</effectcategory>
							<effecttype>transition</effecttype>
							<mediatype>video</mediatype>
							<wipecode>0</wipecode>
							<wipeaccuracy>100</wipeaccuracy>
							<startratio>0</startratio>
							<endratio>1</endratio>
							<reverse>FALSE</reverse>
						</effect>
					</transitionitem>
					<clipitem id="clipitem-309" frameBlend="FALSE">
						<masterclipid>masterclip-110</masterclipid>
						<name>sp046aaa.jpg</name>
						<enabled>TRUE</enabled>
						<duration>1080000</duration>
						<rate>
							<timebase>30</timebase>
							<ntsc>TRUE</ntsc>
						</rate>
						<start>-1</start>
						<end>16520</end>
						<in>89972</in>
						<out>90345</out>
						<alphatype>none</alphatype>
						<pixelaspectratio>square</pixelaspectratio>
						<anamorphic>FALSE</anamorphic>
						<file id="file-110">
							<name>sp046aaa.jpg</name>
							<pathurl>file://localhost/Volumes/Scenen/Prosjekter/FILM/FILM%201413%20Master%20Filmbonanza%20Program%206%20H%c3%b8sten%202013/Grafikk/sp046aaa.jpg</pathurl>
							<rate>
								<timebase>30</timebase>
								<ntsc>TRUE</ntsc>
							</rate>
							<timecode>
								<rate>
									<timebase>30</timebase>
									<ntsc>TRUE</ntsc>
								</rate>
								<string>00;00;00;00</string>
								<frame>0</frame>
								<displayformat>DF</displayformat>
							</timecode>
							<media>
								<video>
									<duration>18000</duration>
									<samplecharacteristics>
										<rate>
											<timebase>30</timebase>
											<ntsc>TRUE</ntsc>
										</rate>
										<width>1536</width>
										<height>2221</height>
										<anamorphic>FALSE</anamorphic>
										<pixelaspectratio>square</pixelaspectratio>
										<fielddominance>none</fielddominance>
									</samplecharacteristics>
								</video>
							</media>
						</file>
							<filter>
								<effect>
									<name>Basic Motion</name>
									<effectid>basic</effectid>
									<effectcategory>motion</effectcategory>
									<effecttype>motion</effecttype>
									<mediatype>video</mediatype>
									<parameter authoringApp="PremierePro">
										<parameterid>scale</parameterid>
										<name>Scale</name>
										<valuemin>0</valuemin>
										<valuemax>1000</valuemax>
										<value>32</value>
										<keyframe>
											<when>89972</when>
											<value>29</value>
										</keyframe>
										<keyframe>
											<when>90097</when>
											<value>32</value>
										</keyframe>
									</parameter>
									<parameter authoringApp="PremierePro">
										<parameterid>rotation</parameterid>
										<name>Rotation</name>
										<valuemin>-8640</valuemin>
										<valuemax>8640</valuemax>
										<value>0</value>
									</parameter>
									<parameter authoringApp="PremierePro">
										<parameterid>center</parameterid>
										<name>Center</name>
										<value>
											<horiz>-0.0514933</horiz>
											<vert>0.0053436</vert>
										</value>
										<keyframe>
											<when>89972</when>
											<value>
												<horiz>-0.300191</horiz>
												<vert>0.0053436</vert>
											</value>
										</keyframe>
										<keyframe>
											<when>90097</when>
											<value>
												<horiz>-0.323629</horiz>
												<vert>0.00939582</vert>
											</value>
										</keyframe>
									</parameter>
									<parameter authoringApp="PremierePro">
										<parameterid>centerOffset</parameterid>
										<name>Anchor Point</name>
										<value>
											<horiz>0</horiz>
											<vert>0</vert>
										</value>
									</parameter>
								</effect>
							</filter>
					</clipitem>
					<transitionitem>
						<start>18779</start>
						<end>18804</end>
						<alignment>start-black</alignment>
						<cutPoint>0</cutPoint>
						<rate>
							<timebase>25</timebase>
							<ntsc>FALSE</ntsc>
						</rate>
						<effect>
							<name>Cross Dissolve</name>
							<effectid>Cross Dissolve</effectid>
							<effectcategory>Dissolve</effectcategory>
							<effecttype>transition</effecttype>
							<mediatype>video</mediatype>
							<wipecode>0</wipecode>
							<wipeaccuracy>100</wipeaccuracy>
							<startratio>0</startratio>
							<endratio>1</endratio>
							<reverse>FALSE</reverse>
						</effect>
					</transitionitem>
					<clipitem id="clipitem-310" frameBlend="FALSE">
						<masterclipid>masterclip-111</masterclipid>
						<name>Vegard Copy 34</name>
						<enabled>TRUE</enabled>
						<duration>1080000</duration>
						<rate>
							<timebase>30</timebase>
							<ntsc>TRUE</ntsc>
						</rate>
						<start>-1</start>
						<end>-1</end>
						<in>271372</in>
						<out>271534</out>
						<alphatype>straight</alphatype>
						<pixelaspectratio>square</pixelaspectratio>
						<anamorphic>FALSE</anamorphic>
						<file id="file-111">
							<name>Internal Title</name>
							<mediaSource>Slug</mediaSource>
							<rate>
								<timebase>30</timebase>
								<ntsc>TRUE</ntsc>
							</rate>
							<timecode>
								<rate>
									<timebase>30</timebase>
									<ntsc>TRUE</ntsc>
								</rate>
								<string>00;00;00;00</string>
								<frame>0</frame>
								<displayformat>DF</displayformat>
							</timecode>
							<media>
								<video>
									<duration>18000</duration>
									<samplecharacteristics>
										<rate>
											<timebase>30</timebase>
											<ntsc>TRUE</ntsc>
										</rate>
										<width>1920</width>
										<height>1080</height>
										<anamorphic>FALSE</anamorphic>
										<pixelaspectratio>square</pixelaspectratio>
										<fielddominance>none</fielddominance>
									</samplecharacteristics>
								</video>
							</media>
						</file>
					</clipitem>
					<transitionitem>
						<start>18916</start>
						<end>18941</end>
						<alignment>end-black</alignment>
						<cutPoint>25</cutPoint>
						<rate>
							<timebase>25</timebase>
							<ntsc>FALSE</ntsc>
						</rate>
						<effect>
							<name>Cross Dissolve</name>
							<effectid>Cross Dissolve</effectid>
							<effectcategory>Dissolve</effectcategory>
							<effecttype>transition</effecttype>
							<mediatype>video</mediatype>
							<wipecode>0</wipecode>
							<wipeaccuracy>100</wipeaccuracy>
							<startratio>0</startratio>
							<endratio>1</endratio>
							<reverse>FALSE</reverse>
						</effect>
					</transitionitem>
					<clipitem id="clipitem-311" frameBlend="FALSE">
						<masterclipid>masterclip-112</masterclipid>
						<name>dunehr_giger_dune_I.jpg</name>
						<enabled>TRUE</enabled>
						<duration>1080000</duration>
						<rate>
							<timebase>30</timebase>
							<ntsc>TRUE</ntsc>
						</rate>
						<start>19235</start>
						<end>-1</end>
						<in>90000</in>
						<out>90082</out>
						<alphatype>none</alphatype>
						<pixelaspectratio>square</pixelaspectratio>
						<anamorphic>FALSE</anamorphic>
						<file id="file-112">
							<name>dunehr_giger_dune_I.jpg</name>
							<pathurl>file://localhost/Volumes/Scenen/Utveksling/FILM/Bilder/Dune_bilder/dunehr_giger_dune_I.jpg</pathurl>
							<rate>
								<timebase>30</timebase>
								<ntsc>TRUE</ntsc>
							</rate>
							<timecode>
								<rate>
									<timebase>30</timebase>
									<ntsc>TRUE</ntsc>
								</rate>
								<string>00;00;00;00</string>
								<frame>0</frame>
								<displayformat>DF</displayformat>
							</timecode>
							<media>
								<video>
									<duration>18000</duration>
									<samplecharacteristics>
										<rate>
											<timebase>30</timebase>
											<ntsc>TRUE</ntsc>
										</rate>
										<width>1200</width>
										<height>845</height>
										<anamorphic>FALSE</anamorphic>
										<pixelaspectratio>square</pixelaspectratio>
										<fielddominance>none</fielddominance>
									</samplecharacteristics>
								</video>
							</media>
						</file>
							<filter>
								<effect>
									<name>Basic Motion</name>
									<effectid>basic</effectid>
									<effectcategory>motion</effectcategory>
									<effecttype>motion</effecttype>
									<mediatype>video</mediatype>
									<parameter authoringApp="PremierePro">
										<parameterid>scale</parameterid>
										<name>Scale</name>
										<valuemin>0</valuemin>
										<valuemax>1000</valuemax>
										<value>106</value>
										<keyframe>
											<when>90000</when>
											<value>100</value>
										</keyframe>
										<keyframe>
											<when>90068</when>
											<value>106</value>
										</keyframe>
									</parameter>
									<parameter authoringApp="PremierePro">
										<parameterid>rotation</parameterid>
										<name>Rotation</name>
										<valuemin>-8640</valuemin>
										<valuemax>8640</valuemax>
										<value>0</value>
									</parameter>
									<parameter authoringApp="PremierePro">
										<parameterid>center</parameterid>
										<name>Center</name>
										<value>
											<horiz>0</horiz>
											<vert>0</vert>
										</value>
										<keyframe>
											<when>90000</when>
											<value>
												<horiz>0</horiz>
												<vert>0</vert>
											</value>
										</keyframe>
										<keyframe>
											<when>90068</when>
											<value>
												<horiz>0</horiz>
												<vert>0</vert>
											</value>
										</keyframe>
									</parameter>
									<parameter authoringApp="PremierePro">
										<parameterid>centerOffset</parameterid>
										<name>Anchor Point</name>
										<value>
											<horiz>0</horiz>
											<vert>0</vert>
										</value>
									</parameter>
								</effect>
							</filter>
							<filter>
								<effect>
									<name>Crop</name>
									<effectid>crop</effectid>
									<effectcategory>motion</effectcategory>
									<effecttype>motion</effecttype>
									<mediatype>video</mediatype>
									<parameter authoringApp="PremierePro">
										<parameterid>left</parameterid>
										<name>left</name>
										<valuemin>0</valuemin>
										<valuemax>100</valuemax>
										<value>0</value>
									</parameter>
									<parameter authoringApp="PremierePro">
										<parameterid>right</parameterid>
										<name>right</name>
										<valuemin>0</valuemin>
										<valuemax>100</valuemax>
										<value>0</value>
									</parameter>
									<parameter authoringApp="PremierePro">
										<parameterid>top</parameterid>
										<name>top</name>
										<valuemin>0</valuemin>
										<valuemax>100</valuemax>
										<value>1</value>
									</parameter>
									<parameter authoringApp="PremierePro">
										<parameterid>bottom</parameterid>
										<name>bottom</name>
										<valuemin>0</valuemin>
										<valuemax>100</valuemax>
										<value>3</value>
									</parameter>
								</effect>
							</filter>
					</clipitem>
					<transitionitem>
						<start>19292</start>
						<end>19317</end>
						<alignment>center</alignment>
						<cutPoint>12</cutPoint>
						<rate>
							<timebase>25</timebase>
							<ntsc>FALSE</ntsc>
						</rate>
						<effect>
							<name>Cross Dissolve</name>
							<effectid>Cross Dissolve</effectid>
							<effectcategory>Dissolve</effectcategory>
							<effecttype>transition</effecttype>
							<mediatype>video</mediatype>
							<wipecode>0</wipecode>
							<wipeaccuracy>100</wipeaccuracy>
							<startratio>0</startratio>
							<endratio>1</endratio>
							<reverse>FALSE</reverse>
						</effect>
					</transitionitem>
					<clipitem id="clipitem-312" frameBlend="FALSE">
						<masterclipid>masterclip-113</masterclipid>
						<name>hr_giger_dune_ii_1280x1024.jpg</name>
						<enabled>TRUE</enabled>
						<duration>1080000</duration>
						<rate>
							<timebase>30</timebase>
							<ntsc>TRUE</ntsc>
						</rate>
						<start>-1</start>
						<end>19365</end>
						<in>89988</in>
						<out>90061</out>
						<alphatype>none</alphatype>
						<pixelaspectratio>square</pixelaspectratio>
						<anamorphic>FALSE</anamorphic>
						<file id="file-113">
							<name>hr_giger_dune_ii_1280x1024.jpg</name>
							<pathurl>file://localhost/Volumes/Scenen/Utveksling/FILM/Bilder/Dune_bilder/hr_giger_dune_ii_1280x1024.jpg</pathurl>
							<rate>
								<timebase>30</timebase>
								<ntsc>TRUE</ntsc>
							</rate>
							<timecode>
								<rate>
									<timebase>30</timebase>
									<ntsc>TRUE</ntsc>
								</rate>
								<string>00;00;00;00</string>
								<frame>0</frame>
								<displayformat>DF</displayformat>
							</timecode>
							<media>
								<video>
									<duration>18000</duration>
									<samplecharacteristics>
										<rate>
											<timebase>30</timebase>
											<ntsc>TRUE</ntsc>
										</rate>
										<width>1280</width>
										<height>1024</height>
										<anamorphic>FALSE</anamorphic>
										<pixelaspectratio>square</pixelaspectratio>
										<fielddominance>none</fielddominance>
									</samplecharacteristics>
								</video>
							</media>
						</file>
							<filter>
								<effect>
									<name>Basic Motion</name>
									<effectid>basic</effectid>
									<effectcategory>motion</effectcategory>
									<effecttype>motion</effecttype>
									<mediatype>video</mediatype>
									<parameter authoringApp="PremierePro">
										<parameterid>scale</parameterid>
										<name>Scale</name>
										<valuemin>0</valuemin>
										<valuemax>1000</valuemax>
										<value>90</value>
										<keyframe>
											<when>90000</when>
											<value>86</value>
										</keyframe>
										<keyframe>
											<when>90060</when>
											<value>90</value>
										</keyframe>
									</parameter>
									<parameter authoringApp="PremierePro">
										<parameterid>rotation</parameterid>
										<name>Rotation</name>
										<valuemin>-8640</valuemin>
										<valuemax>8640</valuemax>
										<value>0</value>
									</parameter>
									<parameter authoringApp="PremierePro">
										<parameterid>center</parameterid>
										<name>Center</name>
										<value>
											<horiz>0</horiz>
											<vert>0</vert>
										</value>
										<keyframe>
											<when>90000</when>
											<value>
												<horiz>0</horiz>
												<vert>0</vert>
											</value>
										</keyframe>
										<keyframe>
											<when>90060</when>
											<value>
												<horiz>0</horiz>
												<vert>0</vert>
											</value>
										</keyframe>
									</parameter>
									<parameter authoringApp="PremierePro">
										<parameterid>centerOffset</parameterid>
										<name>Anchor Point</name>
										<value>
											<horiz>0</horiz>
											<vert>0</vert>
										</value>
									</parameter>
								</effect>
							</filter>
					</clipitem>
					<clipitem id="clipitem-313" frameBlend="FALSE">
						<masterclipid>masterclip-114</masterclipid>
						<name>tumblr_ltnx5n7FyR1qghqpno1_1280 copy.png</name>
						<enabled>TRUE</enabled>
						<duration>1080000</duration>
						<rate>
							<timebase>30</timebase>
							<ntsc>TRUE</ntsc>
						</rate>
						<start>19365</start>
						<end>19431</end>
						<in>90000</in>
						<out>90066</out>
						<alphatype>straight</alphatype>
						<pixelaspectratio>square</pixelaspectratio>
						<anamorphic>FALSE</anamorphic>
						<file id="file-114">
							<name>tumblr_ltnx5n7FyR1qghqpno1_1280 copy.png</name>
							<pathurl>file://localhost/Volumes/Scenen/Utveksling/FILM/Bilder/Dune_bilder/tumblr_ltnx5n7FyR1qghqpno1_1280%20copy.png</pathurl>
							<rate>
								<timebase>30</timebase>
								<ntsc>TRUE</ntsc>
							</rate>
							<timecode>
								<rate>
									<timebase>30</timebase>
									<ntsc>TRUE</ntsc>
								</rate>
								<string>00;00;00;00</string>
								<frame>0</frame>
								<displayformat>DF</displayformat>
							</timecode>
							<media>
								<video>
									<duration>18000</duration>
									<samplecharacteristics>
										<rate>
											<timebase>30</timebase>
											<ntsc>TRUE</ntsc>
										</rate>
										<width>1280</width>
										<height>704</height>
										<anamorphic>FALSE</anamorphic>
										<pixelaspectratio>square</pixelaspectratio>
										<fielddominance>none</fielddominance>
									</samplecharacteristics>
								</video>
							</media>
						</file>
							<filter>
								<effect>
									<name>Basic Motion</name>
									<effectid>basic</effectid>
									<effectcategory>motion</effectcategory>
									<effecttype>motion</effecttype>
									<mediatype>video</mediatype>
									<parameter authoringApp="PremierePro">
										<parameterid>scale</parameterid>
										<name>Scale</name>
										<valuemin>0</valuemin>
										<valuemax>1000</valuemax>
										<value>107</value>
										<keyframe>
											<when>90000</when>
											<value>100</value>
										</keyframe>
										<keyframe>
											<when>90066</when>
											<value>107</value>
										</keyframe>
									</parameter>
									<parameter authoringApp="PremierePro">
										<parameterid>rotation</parameterid>
										<name>Rotation</name>
										<valuemin>-8640</valuemin>
										<valuemax>8640</valuemax>
										<value>0</value>
									</parameter>
									<parameter authoringApp="PremierePro">
										<parameterid>center</parameterid>
										<name>Center</name>
										<value>
											<horiz>0</horiz>
											<vert>0</vert>
										</value>
										<keyframe>
											<when>90000</when>
											<value>
												<horiz>0</horiz>
												<vert>0</vert>
											</value>
										</keyframe>
										<keyframe>
											<when>90066</when>
											<value>
												<horiz>0</horiz>
												<vert>0</vert>
											</value>
										</keyframe>
									</parameter>
									<parameter authoringApp="PremierePro">
										<parameterid>centerOffset</parameterid>
										<name>Anchor Point</name>
										<value>
											<horiz>0</horiz>
											<vert>0</vert>
										</value>
									</parameter>
								</effect>
							</filter>
					</clipitem>
					<clipitem id="clipitem-314" frameBlend="FALSE">
						<masterclipid>masterclip-115</masterclipid>
						<name>jodorowskykostyme.bmp</name>
						<enabled>TRUE</enabled>
						<duration>1080000</duration>
						<rate>
							<timebase>30</timebase>
							<ntsc>TRUE</ntsc>
						</rate>
						<start>19431</start>
						<end>19488</end>
						<in>90057</in>
						<out>90114</out>
						<alphatype>none</alphatype>
						<pixelaspectratio>square</pixelaspectratio>
						<anamorphic>FALSE</anamorphic>
						<file id="file-115">
							<name>jodorowskykostyme.bmp</name>
							<pathurl>file://localhost/Volumes/Scenen/Prosjekter/FILM/FILM%201413%20Master%20Filmbonanza%20Program%206%20H%c3%b8sten%202013/Grafikk/jodorowskykostyme.bmp</pathurl>
							<rate>
								<timebase>30</timebase>
								<ntsc>TRUE</ntsc>
							</rate>
							<timecode>
								<rate>
									<timebase>30</timebase>
									<ntsc>TRUE</ntsc>
								</rate>
								<string>00;00;00;00</string>
								<frame>0</frame>
								<displayformat>DF</displayformat>
							</timecode>
							<media>
								<video>
									<duration>18000</duration>
									<samplecharacteristics>
										<rate>
											<timebase>30</timebase>
											<ntsc>TRUE</ntsc>
										</rate>
										<width>2515</width>
										<height>3660</height>
										<anamorphic>FALSE</anamorphic>
										<pixelaspectratio>square</pixelaspectratio>
										<fielddominance>none</fielddominance>
									</samplecharacteristics>
								</video>
							</media>
						</file>
							<filter>
								<effect>
									<name>Basic Motion</name>
									<effectid>basic</effectid>
									<effectcategory>motion</effectcategory>
									<effecttype>motion</effecttype>
									<mediatype>video</mediatype>
									<parameter authoringApp="PremierePro">
										<parameterid>scale</parameterid>
										<name>Scale</name>
										<valuemin>0</valuemin>
										<valuemax>1000</valuemax>
										<value>42</value>
										<keyframe>
											<when>90045</when>
											<value>28</value>
										</keyframe>
										<keyframe>
											<when>90124</when>
											<value>42</value>
										</keyframe>
									</parameter>
									<parameter authoringApp="PremierePro">
										<parameterid>rotation</parameterid>
										<name>Rotation</name>
										<valuemin>-8640</valuemin>
										<valuemax>8640</valuemax>
										<value>0</value>
									</parameter>
									<parameter authoringApp="PremierePro">
										<parameterid>center</parameterid>
										<name>Center</name>
										<value>
											<horiz>0</horiz>
											<vert>0</vert>
										</value>
										<keyframe>
											<when>90045</when>
											<value>
												<horiz>0</horiz>
												<vert>0</vert>
											</value>
										</keyframe>
										<keyframe>
											<when>90124</when>
											<value>
												<horiz>0</horiz>
												<vert>0.0428962</vert>
											</value>
										</keyframe>
									</parameter>
									<parameter authoringApp="PremierePro">
										<parameterid>centerOffset</parameterid>
										<name>Anchor Point</name>
										<value>
											<horiz>0</horiz>
											<vert>0</vert>
										</value>
									</parameter>
								</effect>
							</filter>
							<filter>
								<effect>
									<name>Crop</name>
									<effectid>crop</effectid>
									<effectcategory>motion</effectcategory>
									<effecttype>motion</effecttype>
									<mediatype>video</mediatype>
									<parameter authoringApp="PremierePro">
										<parameterid>left</parameterid>
										<name>left</name>
										<valuemin>0</valuemin>
										<valuemax>100</valuemax>
										<value>0</value>
									</parameter>
									<parameter authoringApp="PremierePro">
										<parameterid>right</parameterid>
										<name>right</name>
										<valuemin>0</valuemin>
										<valuemax>100</valuemax>
										<value>0</value>
									</parameter>
									<parameter authoringApp="PremierePro">
										<parameterid>top</parameterid>
										<name>top</name>
										<valuemin>0</valuemin>
										<valuemax>100</valuemax>
										<value>0.5</value>
									</parameter>
									<parameter authoringApp="PremierePro">
										<parameterid>bottom</parameterid>
										<name>bottom</name>
										<valuemin>0</valuemin>
										<valuemax>100</valuemax>
										<value>0</value>
									</parameter>
								</effect>
							</filter>
					</clipitem>
					<clipitem id="clipitem-315" frameBlend="FALSE">
						<masterclipid>masterclip-116</masterclipid>
						<name>dunesketchbook.psd</name>
						<enabled>TRUE</enabled>
						<duration>1080000</duration>
						<rate>
							<timebase>30</timebase>
							<ntsc>TRUE</ntsc>
						</rate>
						<start>19488</start>
						<end>19569</end>
						<in>89995</in>
						<out>90076</out>
						<alphatype>straight</alphatype>
						<pixelaspectratio>square</pixelaspectratio>
						<anamorphic>FALSE</anamorphic>
						<file id="file-116">
							<name>dunesketchbook.psd</name>
							<pathurl>file://localhost/Volumes/Scenen/Prosjekter/FILM/FILM%201413%20Master%20Filmbonanza%20Program%206%20H%c3%b8sten%202013/Grafikk/dunesketchbook.psd</pathurl>
							<rate>
								<timebase>30</timebase>
								<ntsc>TRUE</ntsc>
							</rate>
							<timecode>
								<rate>
									<timebase>30</timebase>
									<ntsc>TRUE</ntsc>
								</rate>
								<string>00;00;00;00</string>
								<frame>0</frame>
								<displayformat>DF</displayformat>
							</timecode>
							<media>
								<video>
									<duration>18000</duration>
									<samplecharacteristics>
										<rate>
											<timebase>30</timebase>
											<ntsc>TRUE</ntsc>
										</rate>
										<width>2592</width>
										<height>1936</height>
										<anamorphic>FALSE</anamorphic>
										<pixelaspectratio>square</pixelaspectratio>
										<fielddominance>none</fielddominance>
									</samplecharacteristics>
								</video>
							</media>
						</file>
							<filter>
								<effect>
									<name>Basic Motion</name>
									<effectid>basic</effectid>
									<effectcategory>motion</effectcategory>
									<effecttype>motion</effecttype>
									<mediatype>video</mediatype>
									<parameter authoringApp="PremierePro">
										<parameterid>scale</parameterid>
										<name>Scale</name>
										<valuemin>0</valuemin>
										<valuemax>1000</valuemax>
										<value>85</value>
										<keyframe>
											<when>89990</when>
											<value>85</value>
										</keyframe>
										<keyframe>
											<when>90055</when>
											<value>117</value>
										</keyframe>
									</parameter>
									<parameter authoringApp="PremierePro">
										<parameterid>rotation</parameterid>
										<name>Rotation</name>
										<valuemin>-8640</valuemin>
										<valuemax>8640</valuemax>
										<value>0</value>
										<keyframe>
											<when>89990</when>
											<value>-19</value>
										</keyframe>
										<keyframe>
											<when>90055</when>
											<value>-17</value>
										</keyframe>
									</parameter>
									<parameter authoringApp="PremierePro">
										<parameterid>center</parameterid>
										<name>Center</name>
										<value>
											<horiz>0</horiz>
											<vert>0</vert>
										</value>
										<keyframe>
											<when>89990</when>
											<value>
												<horiz>0</horiz>
												<vert>0</vert>
											</value>
										</keyframe>
										<keyframe>
											<when>90055</when>
											<value>
												<horiz>-0.119985</horiz>
												<vert>0.036157</vert>
											</value>
										</keyframe>
									</parameter>
									<parameter authoringApp="PremierePro">
										<parameterid>centerOffset</parameterid>
										<name>Anchor Point</name>
										<value>
											<horiz>0</horiz>
											<vert>0</vert>
										</value>
									</parameter>
								</effect>
							</filter>
					</clipitem>
					<transitionitem>
						<start>20066</start>
						<end>20091</end>
						<alignment>start-black</alignment>
						<cutPoint>0</cutPoint>
						<rate>
							<timebase>25</timebase>
							<ntsc>FALSE</ntsc>
						</rate>
						<effect>
							<name>Cross Dissolve</name>
							<effectid>Cross Dissolve</effectid>
							<effectcategory>Dissolve</effectcategory>
							<effecttype>transition</effecttype>
							<mediatype>video</mediatype>
							<wipecode>0</wipecode>
							<wipeaccuracy>100</wipeaccuracy>
							<startratio>0</startratio>
							<endratio>1</endratio>
							<reverse>FALSE</reverse>
						</effect>
					</transitionitem>
					<clipitem id="clipitem-316" frameBlend="FALSE">
						<masterclipid>masterclip-117</masterclipid>
						<name>Vegard Copy 36</name>
						<enabled>TRUE</enabled>
						<duration>1080000</duration>
						<rate>
							<timebase>30</timebase>
							<ntsc>TRUE</ntsc>
						</rate>
						<start>-1</start>
						<end>-1</end>
						<in>271372</in>
						<out>271534</out>
						<alphatype>straight</alphatype>
						<pixelaspectratio>square</pixelaspectratio>
						<anamorphic>FALSE</anamorphic>
						<file id="file-117">
							<name>Internal Title</name>
							<mediaSource>Slug</mediaSource>
							<rate>
								<timebase>30</timebase>
								<ntsc>TRUE</ntsc>
							</rate>
							<timecode>
								<rate>
									<timebase>30</timebase>
									<ntsc>TRUE</ntsc>
								</rate>
								<string>00;00;00;00</string>
								<frame>0</frame>
								<displayformat>DF</displayformat>
							</timecode>
							<media>
								<video>
									<duration>18000</duration>
									<samplecharacteristics>
										<rate>
											<timebase>30</timebase>
											<ntsc>TRUE</ntsc>
										</rate>
										<width>1920</width>
										<height>1080</height>
										<anamorphic>FALSE</anamorphic>
										<pixelaspectratio>square</pixelaspectratio>
										<fielddominance>none</fielddominance>
									</samplecharacteristics>
								</video>
							</media>
						</file>
					</clipitem>
					<transitionitem>
						<start>20203</start>
						<end>20228</end>
						<alignment>end-black</alignment>
						<cutPoint>25</cutPoint>
						<rate>
							<timebase>25</timebase>
							<ntsc>FALSE</ntsc>
						</rate>
						<effect>
							<name>Cross Dissolve</name>
							<effectid>Cross Dissolve</effectid>
							<effectcategory>Dissolve</effectcategory>
							<effecttype>transition</effecttype>
							<mediatype>video</mediatype>
							<wipecode>0</wipecode>
							<wipeaccuracy>100</wipeaccuracy>
							<startratio>0</startratio>
							<endratio>1</endratio>
							<reverse>FALSE</reverse>
						</effect>
					</transitionitem>
					<transitionitem>
						<start>20853</start>
						<end>20878</end>
						<alignment>start-black</alignment>
						<cutPoint>0</cutPoint>
						<rate>
							<timebase>25</timebase>
							<ntsc>FALSE</ntsc>
						</rate>
						<effect>
							<name>Cross Dissolve</name>
							<effectid>Cross Dissolve</effectid>
							<effectcategory>Dissolve</effectcategory>
							<effecttype>transition</effecttype>
							<mediatype>video</mediatype>
							<wipecode>0</wipecode>
							<wipeaccuracy>100</wipeaccuracy>
							<startratio>0</startratio>
							<endratio>1</endratio>
							<reverse>FALSE</reverse>
						</effect>
					</transitionitem>
					<clipitem id="clipitem-317" frameBlend="FALSE">
						<masterclipid>masterclip-118</masterclipid>
						<name>Vegard Copy 38</name>
						<enabled>TRUE</enabled>
						<duration>1080000</duration>
						<rate>
							<timebase>30</timebase>
							<ntsc>TRUE</ntsc>
						</rate>
						<start>-1</start>
						<end>-1</end>
						<in>271372</in>
						<out>271534</out>
						<alphatype>straight</alphatype>
						<pixelaspectratio>square</pixelaspectratio>
						<anamorphic>FALSE</anamorphic>
						<file id="file-118">
							<name>Internal Title</name>
							<mediaSource>Slug</mediaSource>
							<rate>
								<timebase>30</timebase>
								<ntsc>TRUE</ntsc>
							</rate>
							<timecode>
								<rate>
									<timebase>30</timebase>
									<ntsc>TRUE</ntsc>
								</rate>
								<string>00;00;00;00</string>
								<frame>0</frame>
								<displayformat>DF</displayformat>
							</timecode>
							<media>
								<video>
									<duration>18000</duration>
									<samplecharacteristics>
										<rate>
											<timebase>30</timebase>
											<ntsc>TRUE</ntsc>
										</rate>
										<width>1920</width>
										<height>1080</height>
										<anamorphic>FALSE</anamorphic>
										<pixelaspectratio>square</pixelaspectratio>
										<fielddominance>none</fielddominance>
									</samplecharacteristics>
								</video>
							</media>
						</file>
					</clipitem>
					<transitionitem>
						<start>20990</start>
						<end>21015</end>
						<alignment>end-black</alignment>
						<cutPoint>25</cutPoint>
						<rate>
							<timebase>25</timebase>
							<ntsc>FALSE</ntsc>
						</rate>
						<effect>
							<name>Cross Dissolve</name>
							<effectid>Cross Dissolve</effectid>
							<effectcategory>Dissolve</effectcategory>
							<effecttype>transition</effecttype>
							<mediatype>video</mediatype>
							<wipecode>0</wipecode>
							<wipeaccuracy>100</wipeaccuracy>
							<startratio>0</startratio>
							<endratio>1</endratio>
							<reverse>FALSE</reverse>
						</effect>
					</transitionitem>
					<clipitem id="clipitem-318" frameBlend="FALSE">
						<masterclipid>masterclip-119</masterclipid>
						<name>alien_el_octavo_pasajero_1979_4.jpg</name>
						<enabled>TRUE</enabled>
						<duration>1080000</duration>
						<rate>
							<timebase>30</timebase>
							<ntsc>TRUE</ntsc>
						</rate>
						<start>21366</start>
						<end>21425</end>
						<in>90000</in>
						<out>90059</out>
						<alphatype>none</alphatype>
						<pixelaspectratio>square</pixelaspectratio>
						<anamorphic>FALSE</anamorphic>
						<file id="file-119">
							<name>alien_el_octavo_pasajero_1979_4.jpg</name>
							<pathurl>file://localhost/Volumes/Scenen/Prosjekter/FILM/FILM%201413%20Jodorowsky%20BW/Grafikk/alien_el_octavo_pasajero_1979_4.jpg</pathurl>
							<rate>
								<timebase>30</timebase>
								<ntsc>TRUE</ntsc>
							</rate>
							<timecode>
								<rate>
									<timebase>30</timebase>
									<ntsc>TRUE</ntsc>
								</rate>
								<string>00;00;00;00</string>
								<frame>0</frame>
								<displayformat>DF</displayformat>
							</timecode>
							<media>
								<video>
									<duration>18000</duration>
									<samplecharacteristics>
										<rate>
											<timebase>30</timebase>
											<ntsc>TRUE</ntsc>
										</rate>
										<width>1000</width>
										<height>1545</height>
										<anamorphic>FALSE</anamorphic>
										<pixelaspectratio>square</pixelaspectratio>
										<fielddominance>none</fielddominance>
									</samplecharacteristics>
								</video>
							</media>
						</file>
							<filter>
								<effect>
									<name>Basic Motion</name>
									<effectid>basic</effectid>
									<effectcategory>motion</effectcategory>
									<effecttype>motion</effecttype>
									<mediatype>video</mediatype>
									<parameter authoringApp="PremierePro">
										<parameterid>scale</parameterid>
										<name>Scale</name>
										<valuemin>0</valuemin>
										<valuemax>1000</valuemax>
										<value>94.2688</value>
										<keyframe>
											<when>90000</when>
											<value>72.2688</value>
										</keyframe>
										<keyframe>
											<when>90059</when>
											<value>94.2688</value>
										</keyframe>
									</parameter>
									<parameter authoringApp="PremierePro">
										<parameterid>rotation</parameterid>
										<name>Rotation</name>
										<valuemin>-8640</valuemin>
										<valuemax>8640</valuemax>
										<value>0</value>
									</parameter>
									<parameter authoringApp="PremierePro">
										<parameterid>center</parameterid>
										<name>Center</name>
										<value>
											<horiz>0</horiz>
											<vert>0</vert>
										</value>
										<keyframe>
											<when>90000</when>
											<value>
												<horiz>0</horiz>
												<vert>0</vert>
											</value>
										</keyframe>
										<keyframe>
											<when>90059</when>
											<value>
												<horiz>0</horiz>
												<vert>0.0815534</vert>
											</value>
										</keyframe>
									</parameter>
									<parameter authoringApp="PremierePro">
										<parameterid>centerOffset</parameterid>
										<name>Anchor Point</name>
										<value>
											<horiz>0</horiz>
											<vert>0</vert>
										</value>
									</parameter>
								</effect>
							</filter>
					</clipitem>
					<transitionitem>
						<start>24995</start>
						<end>25006</end>
						<alignment>start-black</alignment>
						<cutPoint>0</cutPoint>
						<rate>
							<timebase>25</timebase>
							<ntsc>FALSE</ntsc>
						</rate>
						<effect>
							<name>Cross Dissolve</name>
							<effectid>Cross Dissolve</effectid>
							<effectcategory>Dissolve</effectcategory>
							<effecttype>transition</effecttype>
							<mediatype>video</mediatype>
							<wipecode>0</wipecode>
							<wipeaccuracy>100</wipeaccuracy>
							<startratio>0</startratio>
							<endratio>1</endratio>
							<reverse>FALSE</reverse>
						</effect>
					</transitionitem>
					<clipitem id="clipitem-319" frameBlend="FALSE">
						<masterclipid>masterclip-120</masterclipid>
						<name>VG Usynlige.png</name>
						<enabled>TRUE</enabled>
						<duration>1080000</duration>
						<rate>
							<timebase>30</timebase>
							<ntsc>TRUE</ntsc>
						</rate>
						<start>-1</start>
						<end>-1</end>
						<in>90000</in>
						<out>90041</out>
						<alphatype>none</alphatype>
						<pixelaspectratio>square</pixelaspectratio>
						<anamorphic>FALSE</anamorphic>
						<file id="file-120">
							<name>VG Usynlige.png</name>
							<pathurl>file://localhost/Volumes/Scenen/Prosjekter/FILM/FILM%201413%20Master%20Filmbonanza%20Program%206%20H%c3%b8sten%202013/Grafikk/VG%20Usynlige.png</pathurl>
							<rate>
								<timebase>30</timebase>
								<ntsc>TRUE</ntsc>
							</rate>
							<timecode>
								<rate>
									<timebase>30</timebase>
									<ntsc>TRUE</ntsc>
								</rate>
								<string>00;00;00;00</string>
								<frame>0</frame>
								<displayformat>DF</displayformat>
							</timecode>
							<media>
								<video>
									<duration>18000</duration>
									<samplecharacteristics>
										<rate>
											<timebase>30</timebase>
											<ntsc>TRUE</ntsc>
										</rate>
										<width>476</width>
										<height>415</height>
										<anamorphic>FALSE</anamorphic>
										<pixelaspectratio>square</pixelaspectratio>
										<fielddominance>none</fielddominance>
									</samplecharacteristics>
								</video>
							</media>
						</file>
							<filter>
								<effect>
									<name>Basic Motion</name>
									<effectid>basic</effectid>
									<effectcategory>motion</effectcategory>
									<effecttype>motion</effecttype>
									<mediatype>video</mediatype>
									<parameter authoringApp="PremierePro">
										<parameterid>scale</parameterid>
										<name>Scale</name>
										<valuemin>0</valuemin>
										<valuemax>1000</valuemax>
										<value>234</value>
									</parameter>
									<parameter authoringApp="PremierePro">
										<parameterid>rotation</parameterid>
										<name>Rotation</name>
										<valuemin>-8640</valuemin>
										<valuemax>8640</valuemax>
										<value>0</value>
									</parameter>
									<parameter authoringApp="PremierePro">
										<parameterid>center</parameterid>
										<name>Center</name>
										<value>
											<horiz>0</horiz>
											<vert>0</vert>
										</value>
									</parameter>
									<parameter authoringApp="PremierePro">
										<parameterid>centerOffset</parameterid>
										<name>Anchor Point</name>
										<value>
											<horiz>0</horiz>
											<vert>0</vert>
										</value>
									</parameter>
								</effect>
							</filter>
					</clipitem>
					<transitionitem>
						<start>25013</start>
						<end>25036</end>
						<alignment>start</alignment>
						<cutPoint>1</cutPoint>
						<rate>
							<timebase>25</timebase>
							<ntsc>FALSE</ntsc>
						</rate>
						<effect>
							<name>Cross Dissolve</name>
							<effectid>Cross Dissolve</effectid>
							<effectcategory>Dissolve</effectcategory>
							<effecttype>transition</effecttype>
							<mediatype>video</mediatype>
							<wipecode>0</wipecode>
							<wipeaccuracy>100</wipeaccuracy>
							<startratio>0</startratio>
							<endratio>1</endratio>
							<reverse>FALSE</reverse>
						</effect>
					</transitionitem>
					<clipitem id="clipitem-320" frameBlend="FALSE">
						<masterclipid>masterclip-120</masterclipid>
						<name>VG Usynlige.png</name>
						<enabled>TRUE</enabled>
						<duration>1080000</duration>
						<rate>
							<ntsc>TRUE</ntsc>
							<timebase>30</timebase>
						</rate>
						<start>-1</start>
						<end>-1</end>
						<in>90018</in>
						<out>90108</out>
						<alphatype>none</alphatype>
						<file id="file-120"/>
							<filter>
								<effect>
									<name>Basic Motion</name>
									<effectid>basic</effectid>
									<effectcategory>motion</effectcategory>
									<effecttype>motion</effecttype>
									<mediatype>video</mediatype>
									<parameter authoringApp="PremierePro">
										<parameterid>scale</parameterid>
										<name>Scale</name>
										<valuemin>0</valuemin>
										<valuemax>1000</valuemax>
										<value>234</value>
									</parameter>
									<parameter authoringApp="PremierePro">
										<parameterid>rotation</parameterid>
										<name>Rotation</name>
										<valuemin>-8640</valuemin>
										<valuemax>8640</valuemax>
										<value>0</value>
									</parameter>
									<parameter authoringApp="PremierePro">
										<parameterid>center</parameterid>
										<name>Center</name>
										<value>
											<horiz>0</horiz>
											<vert>0</vert>
										</value>
									</parameter>
									<parameter authoringApp="PremierePro">
										<parameterid>centerOffset</parameterid>
										<name>Anchor Point</name>
										<value>
											<horiz>0</horiz>
											<vert>0</vert>
										</value>
									</parameter>
								</effect>
							</filter>
							<filter>
								<effect>
									<name>Gaussian Blur</name>
									<effectid>Gaussian Blur</effectid>
									<effectcategory>Blur</effectcategory>
									<effecttype>motion</effecttype>
									<mediatype>video</mediatype>
									<parameter authoringApp="PremierePro">
										<parameterid>radius</parameterid>
										<name>Radius</name>
										<valuemin>0</valuemin>
										<valuemax>100</valuemax>
										<value>0</value>
									</parameter>
								</effect>
							</filter>
					</clipitem>
					<transitionitem>
						<start>25098</start>
						<end>25103</end>
						<alignment>center</alignment>
						<cutPoint>2</cutPoint>
						<rate>
							<timebase>25</timebase>
							<ntsc>FALSE</ntsc>
						</rate>
						<effect>
							<name>Cross Dissolve</name>
							<effectid>Cross Dissolve</effectid>
							<effectcategory>Dissolve</effectcategory>
							<effecttype>transition</effecttype>
							<mediatype>video</mediatype>
							<wipecode>0</wipecode>
							<wipeaccuracy>100</wipeaccuracy>
							<startratio>0</startratio>
							<endratio>1</endratio>
							<reverse>FALSE</reverse>
						</effect>
					</transitionitem>
					<clipitem id="clipitem-321" frameBlend="FALSE">
						<masterclipid>masterclip-121</masterclipid>
						<name>P3 anmeldelse.png</name>
						<enabled>TRUE</enabled>
						<duration>1080000</duration>
						<rate>
							<timebase>30</timebase>
							<ntsc>TRUE</ntsc>
						</rate>
						<start>-1</start>
						<end>-1</end>
						<in>89994</in>
						<out>90091</out>
						<alphatype>none</alphatype>
						<pixelaspectratio>square</pixelaspectratio>
						<anamorphic>FALSE</anamorphic>
						<file id="file-121">
							<name>P3 anmeldelse.png</name>
							<pathurl>file://localhost/Volumes/Scenen/Prosjekter/FILM/FILM%201413%20Master%20Filmbonanza%20Program%206%20H%c3%b8sten%202013/Grafikk/P3%20anmeldelse.png</pathurl>
							<rate>
								<timebase>30</timebase>
								<ntsc>TRUE</ntsc>
							</rate>
							<timecode>
								<rate>
									<timebase>30</timebase>
									<ntsc>TRUE</ntsc>
								</rate>
								<string>00;00;00;00</string>
								<frame>0</frame>
								<displayformat>DF</displayformat>
							</timecode>
							<media>
								<video>
									<duration>18000</duration>
									<samplecharacteristics>
										<rate>
											<timebase>30</timebase>
											<ntsc>TRUE</ntsc>
										</rate>
										<width>849</width>
										<height>533</height>
										<anamorphic>FALSE</anamorphic>
										<pixelaspectratio>square</pixelaspectratio>
										<fielddominance>none</fielddominance>
									</samplecharacteristics>
								</video>
							</media>
						</file>
							<filter>
								<effect>
									<name>Basic Motion</name>
									<effectid>basic</effectid>
									<effectcategory>motion</effectcategory>
									<effecttype>motion</effecttype>
									<mediatype>video</mediatype>
									<parameter authoringApp="PremierePro">
										<parameterid>scale</parameterid>
										<name>Scale</name>
										<valuemin>0</valuemin>
										<valuemax>1000</valuemax>
										<value>163</value>
									</parameter>
									<parameter authoringApp="PremierePro">
										<parameterid>rotation</parameterid>
										<name>Rotation</name>
										<valuemin>-8640</valuemin>
										<valuemax>8640</valuemax>
										<value>0</value>
									</parameter>
									<parameter authoringApp="PremierePro">
										<parameterid>center</parameterid>
										<name>Center</name>
										<value>
											<horiz>0</horiz>
											<vert>0</vert>
										</value>
									</parameter>
									<parameter authoringApp="PremierePro">
										<parameterid>centerOffset</parameterid>
										<name>Anchor Point</name>
										<value>
											<horiz>0</horiz>
											<vert>0</vert>
										</value>
									</parameter>
								</effect>
							</filter>
							<filter>
								<effect>
									<name>Gaussian Blur</name>
									<effectid>Gaussian Blur</effectid>
									<effectcategory>Blur</effectcategory>
									<effecttype>motion</effecttype>
									<mediatype>video</mediatype>
									<parameter authoringApp="PremierePro">
										<parameterid>radius</parameterid>
										<name>Radius</name>
										<valuemin>0</valuemin>
										<valuemax>100</valuemax>
										<value>0</value>
									</parameter>
								</effect>
							</filter>
					</clipitem>
					<transitionitem>
						<start>25190</start>
						<end>25195</end>
						<alignment>center</alignment>
						<cutPoint>2</cutPoint>
						<rate>
							<timebase>25</timebase>
							<ntsc>FALSE</ntsc>
						</rate>
						<effect>
							<name>Cross Dissolve</name>
							<effectid>Cross Dissolve</effectid>
							<effectcategory>Dissolve</effectcategory>
							<effecttype>transition</effecttype>
							<mediatype>video</mediatype>
							<wipecode>0</wipecode>
							<wipeaccuracy>100</wipeaccuracy>
							<startratio>0</startratio>
							<endratio>1</endratio>
							<reverse>FALSE</reverse>
						</effect>
					</transitionitem>
					<clipitem id="clipitem-322" frameBlend="FALSE">
						<masterclipid>masterclip-122</masterclipid>
						<name>BT 1000.png</name>
						<enabled>TRUE</enabled>
						<duration>1080000</duration>
						<rate>
							<timebase>30</timebase>
							<ntsc>TRUE</ntsc>
						</rate>
						<start>-1</start>
						<end>25312</end>
						<in>90067</in>
						<out>90189</out>
						<alphatype>straight</alphatype>
						<pixelaspectratio>square</pixelaspectratio>
						<anamorphic>FALSE</anamorphic>
						<file id="file-122">
							<name>BT 1000.png</name>
							<pathurl>file://localhost/Volumes/Scenen/Prosjekter/FILM/FILM%201413%20Master%20Filmbonanza%20Program%206%20H%c3%b8sten%202013/Grafikk/BT%201000.png</pathurl>
							<rate>
								<timebase>30</timebase>
								<ntsc>TRUE</ntsc>
							</rate>
							<timecode>
								<rate>
									<timebase>30</timebase>
									<ntsc>TRUE</ntsc>
								</rate>
								<string>00;00;00;00</string>
								<frame>0</frame>
								<displayformat>DF</displayformat>
							</timecode>
							<media>
								<video>
									<duration>18000</duration>
									<samplecharacteristics>
										<rate>
											<timebase>30</timebase>
											<ntsc>TRUE</ntsc>
										</rate>
										<width>1282</width>
										<height>955</height>
										<anamorphic>FALSE</anamorphic>
										<pixelaspectratio>square</pixelaspectratio>
										<fielddominance>none</fielddominance>
									</samplecharacteristics>
								</video>
							</media>
						</file>
							<filter>
								<effect>
									<name>Basic Motion</name>
									<effectid>basic</effectid>
									<effectcategory>motion</effectcategory>
									<effecttype>motion</effecttype>
									<mediatype>video</mediatype>
									<parameter authoringApp="PremierePro">
										<parameterid>scale</parameterid>
										<name>Scale</name>
										<valuemin>0</valuemin>
										<valuemax>1000</valuemax>
										<value>203.993</value>
									</parameter>
									<parameter authoringApp="PremierePro">
										<parameterid>rotation</parameterid>
										<name>Rotation</name>
										<valuemin>-8640</valuemin>
										<valuemax>8640</valuemax>
										<value>0</value>
									</parameter>
									<parameter authoringApp="PremierePro">
										<parameterid>center</parameterid>
										<name>Center</name>
										<value>
											<horiz>0.159906</horiz>
											<vert>-0.347644</vert>
										</value>
									</parameter>
									<parameter authoringApp="PremierePro">
										<parameterid>centerOffset</parameterid>
										<name>Anchor Point</name>
										<value>
											<horiz>0</horiz>
											<vert>0</vert>
										</value>
									</parameter>
								</effect>
							</filter>
							<filter>
								<effect>
									<name>Crop</name>
									<effectid>crop</effectid>
									<effectcategory>motion</effectcategory>
									<effecttype>motion</effecttype>
									<mediatype>video</mediatype>
									<parameter authoringApp="PremierePro">
										<parameterid>left</parameterid>
										<name>left</name>
										<valuemin>0</valuemin>
										<valuemax>100</valuemax>
										<value>45</value>
									</parameter>
									<parameter authoringApp="PremierePro">
										<parameterid>right</parameterid>
										<name>right</name>
										<valuemin>0</valuemin>
										<valuemax>100</valuemax>
										<value>45</value>
									</parameter>
									<parameter authoringApp="PremierePro">
										<parameterid>top</parameterid>
										<name>top</name>
										<valuemin>0</valuemin>
										<valuemax>100</valuemax>
										<value>41</value>
									</parameter>
									<parameter authoringApp="PremierePro">
										<parameterid>bottom</parameterid>
										<name>bottom</name>
										<valuemin>0</valuemin>
										<valuemax>100</valuemax>
										<value>41</value>
									</parameter>
								</effect>
							</filter>
							<filter>
								<effect>
									<name>Gaussian Blur</name>
									<effectid>Gaussian Blur</effectid>
									<effectcategory>Blur</effectcategory>
									<effecttype>motion</effecttype>
									<mediatype>video</mediatype>
									<parameter authoringApp="PremierePro">
										<parameterid>radius</parameterid>
										<name>Radius</name>
										<valuemin>0</valuemin>
										<valuemax>100</valuemax>
										<value>0</value>
									</parameter>
								</effect>
							</filter>
					</clipitem>
					<transitionitem>
						<start>26037</start>
						<end>26074</end>
						<alignment>start-black</alignment>
						<cutPoint>0</cutPoint>
						<rate>
							<timebase>25</timebase>
							<ntsc>FALSE</ntsc>
						</rate>
						<effect>
							<name>Cross Dissolve</name>
							<effectid>Cross Dissolve</effectid>
							<effectcategory>Dissolve</effectcategory>
							<effecttype>transition</effecttype>
							<mediatype>video</mediatype>
							<wipecode>0</wipecode>
							<wipeaccuracy>100</wipeaccuracy>
							<startratio>0</startratio>
							<endratio>1</endratio>
							<reverse>FALSE</reverse>
						</effect>
					</transitionitem>
					<clipitem id="clipitem-323" frameBlend="FALSE">
						<masterclipid>masterclip-123</masterclipid>
						<name>Supermal Høst 2013 Copy 23</name>
						<enabled>TRUE</enabled>
						<duration>1080000</duration>
						<rate>
							<timebase>30</timebase>
							<ntsc>TRUE</ntsc>
						</rate>
						<start>-1</start>
						<end>-1</end>
						<in>91428</in>
						<out>91621</out>
						<alphatype>straight</alphatype>
						<pixelaspectratio>square</pixelaspectratio>
						<anamorphic>FALSE</anamorphic>
						<file id="file-123">
							<name>Internal Title</name>
							<mediaSource>Slug</mediaSource>
							<rate>
								<timebase>30</timebase>
								<ntsc>TRUE</ntsc>
							</rate>
							<timecode>
								<rate>
									<timebase>30</timebase>
									<ntsc>TRUE</ntsc>
								</rate>
								<string>00;00;00;00</string>
								<frame>0</frame>
								<displayformat>DF</displayformat>
							</timecode>
							<media>
								<video>
									<duration>18000</duration>
									<samplecharacteristics>
										<rate>
											<timebase>30</timebase>
											<ntsc>TRUE</ntsc>
										</rate>
										<width>1920</width>
										<height>1080</height>
										<anamorphic>FALSE</anamorphic>
										<pixelaspectratio>square</pixelaspectratio>
										<fielddominance>none</fielddominance>
									</samplecharacteristics>
								</video>
							</media>
						</file>
					</clipitem>
					<transitionitem>
						<start>26205</start>
						<end>26230</end>
						<alignment>end-black</alignment>
						<cutPoint>25</cutPoint>
						<rate>
							<timebase>25</timebase>
							<ntsc>FALSE</ntsc>
						</rate>
						<effect>
							<name>Cross Dissolve</name>
							<effectid>Cross Dissolve</effectid>
							<effectcategory>Dissolve</effectcategory>
							<effecttype>transition</effecttype>
							<mediatype>video</mediatype>
							<wipecode>0</wipecode>
							<wipeaccuracy>100</wipeaccuracy>
							<startratio>0</startratio>
							<endratio>1</endratio>
							<reverse>FALSE</reverse>
						</effect>
					</transitionitem>
					<transitionitem>
						<start>27996</start>
						<end>28033</end>
						<alignment>start-black</alignment>
						<cutPoint>0</cutPoint>
						<rate>
							<timebase>25</timebase>
							<ntsc>FALSE</ntsc>
						</rate>
						<effect>
							<name>Cross Dissolve</name>
							<effectid>Cross Dissolve</effectid>
							<effectcategory>Dissolve</effectcategory>
							<effecttype>transition</effecttype>
							<mediatype>video</mediatype>
							<wipecode>0</wipecode>
							<wipeaccuracy>100</wipeaccuracy>
							<startratio>0</startratio>
							<endratio>1</endratio>
							<reverse>FALSE</reverse>
						</effect>
					</transitionitem>
					<clipitem id="clipitem-324" frameBlend="FALSE">
						<masterclipid>masterclip-124</masterclipid>
						<name>Supermal Høst 2013 Copy 20</name>
						<enabled>TRUE</enabled>
						<duration>1080000</duration>
						<rate>
							<timebase>30</timebase>
							<ntsc>TRUE</ntsc>
						</rate>
						<start>-1</start>
						<end>-1</end>
						<in>91391</in>
						<out>91621</out>
						<alphatype>straight</alphatype>
						<pixelaspectratio>square</pixelaspectratio>
						<anamorphic>FALSE</anamorphic>
						<file id="file-124">
							<name>Internal Title</name>
							<mediaSource>Slug</mediaSource>
							<rate>
								<timebase>30</timebase>
								<ntsc>TRUE</ntsc>
							</rate>
							<timecode>
								<rate>
									<timebase>30</timebase>
									<ntsc>TRUE</ntsc>
								</rate>
								<string>00;00;00;00</string>
								<frame>0</frame>
								<displayformat>DF</displayformat>
							</timecode>
							<media>
								<video>
									<duration>18000</duration>
									<samplecharacteristics>
										<rate>
											<timebase>30</timebase>
											<ntsc>TRUE</ntsc>
										</rate>
										<width>1920</width>
										<height>1080</height>
										<anamorphic>FALSE</anamorphic>
										<pixelaspectratio>square</pixelaspectratio>
										<fielddominance>none</fielddominance>
									</samplecharacteristics>
								</video>
							</media>
						</file>
					</clipitem>
					<transitionitem>
						<start>28201</start>
						<end>28226</end>
						<alignment>end-black</alignment>
						<cutPoint>25</cutPoint>
						<rate>
							<timebase>25</timebase>
							<ntsc>FALSE</ntsc>
						</rate>
						<effect>
							<name>Cross Dissolve</name>
							<effectid>Cross Dissolve</effectid>
							<effectcategory>Dissolve</effectcategory>
							<effecttype>transition</effecttype>
							<mediatype>video</mediatype>
							<wipecode>0</wipecode>
							<wipeaccuracy>100</wipeaccuracy>
							<startratio>0</startratio>
							<endratio>1</endratio>
							<reverse>FALSE</reverse>
						</effect>
					</transitionitem>
					<clipitem id="clipitem-325" frameBlend="FALSE">
						<masterclipid>masterclip-125</masterclipid>
						<name>Kharkov_027.jpg</name>
						<enabled>TRUE</enabled>
						<duration>1080000</duration>
						<rate>
							<timebase>30</timebase>
							<ntsc>TRUE</ntsc>
						</rate>
						<start>34679</start>
						<end>34728</end>
						<in>90038</in>
						<out>90087</out>
						<alphatype>none</alphatype>
						<pixelaspectratio>square</pixelaspectratio>
						<anamorphic>FALSE</anamorphic>
						<file id="file-125">
							<name>Kharkov_027.jpg</name>
							<pathurl>file://localhost/Volumes/Scenen/Prosjekter/FILM/FILM%20XX13%20Kjartan%20Opptak%20Russland%20Oktober%202013/Photoshop%20%3a%20Bilder/Kharkov%20stills/Kharkov_027.jpg</pathurl>
							<rate>
								<timebase>30</timebase>
								<ntsc>TRUE</ntsc>
							</rate>
							<timecode>
								<rate>
									<timebase>30</timebase>
									<ntsc>TRUE</ntsc>
								</rate>
								<string>00;00;00;00</string>
								<frame>0</frame>
								<displayformat>DF</displayformat>
							</timecode>
							<media>
								<video>
									<duration>18000</duration>
									<samplecharacteristics>
										<rate>
											<timebase>30</timebase>
											<ntsc>TRUE</ntsc>
										</rate>
										<width>1200</width>
										<height>800</height>
										<anamorphic>FALSE</anamorphic>
										<pixelaspectratio>square</pixelaspectratio>
										<fielddominance>none</fielddominance>
									</samplecharacteristics>
								</video>
							</media>
						</file>
							<filter>
								<effect>
									<name>Basic Motion</name>
									<effectid>basic</effectid>
									<effectcategory>motion</effectcategory>
									<effecttype>motion</effecttype>
									<mediatype>video</mediatype>
									<parameter authoringApp="PremierePro">
										<parameterid>scale</parameterid>
										<name>Scale</name>
										<valuemin>0</valuemin>
										<valuemax>1000</valuemax>
										<value>115</value>
									</parameter>
									<parameter authoringApp="PremierePro">
										<parameterid>rotation</parameterid>
										<name>Rotation</name>
										<valuemin>-8640</valuemin>
										<valuemax>8640</valuemax>
										<value>0</value>
									</parameter>
									<parameter authoringApp="PremierePro">
										<parameterid>center</parameterid>
										<name>Center</name>
										<value>
											<horiz>0</horiz>
											<vert>0</vert>
										</value>
									</parameter>
									<parameter authoringApp="PremierePro">
										<parameterid>centerOffset</parameterid>
										<name>Anchor Point</name>
										<value>
											<horiz>0</horiz>
											<vert>0</vert>
										</value>
									</parameter>
								</effect>
							</filter>
					</clipitem>
					<clipitem id="clipitem-326" frameBlend="FALSE">
						<masterclipid>masterclip-126</masterclipid>
						<name>Kharkov_025.jpg</name>
						<enabled>TRUE</enabled>
						<duration>1080000</duration>
						<rate>
							<timebase>30</timebase>
							<ntsc>TRUE</ntsc>
						</rate>
						<start>34728</start>
						<end>34840</end>
						<in>90000</in>
						<out>90112</out>
						<alphatype>none</alphatype>
						<pixelaspectratio>square</pixelaspectratio>
						<anamorphic>FALSE</anamorphic>
						<file id="file-126">
							<name>Kharkov_025.jpg</name>
							<pathurl>file://localhost/Volumes/Scenen/Prosjekter/FILM/FILM%20XX13%20Kjartan%20Opptak%20Russland%20Oktober%202013/Photoshop%20%3a%20Bilder/Kharkov%20stills/Kharkov_025.jpg</pathurl>
							<rate>
								<timebase>30</timebase>
								<ntsc>TRUE</ntsc>
							</rate>
							<timecode>
								<rate>
									<timebase>30</timebase>
									<ntsc>TRUE</ntsc>
								</rate>
								<string>00;00;00;00</string>
								<frame>0</frame>
								<displayformat>DF</displayformat>
							</timecode>
							<media>
								<video>
									<duration>18000</duration>
									<samplecharacteristics>
										<rate>
											<timebase>30</timebase>
											<ntsc>TRUE</ntsc>
										</rate>
										<width>1200</width>
										<height>800</height>
										<anamorphic>FALSE</anamorphic>
										<pixelaspectratio>square</pixelaspectratio>
										<fielddominance>none</fielddominance>
									</samplecharacteristics>
								</video>
							</media>
						</file>
							<filter>
								<effect>
									<name>Basic Motion</name>
									<effectid>basic</effectid>
									<effectcategory>motion</effectcategory>
									<effecttype>motion</effecttype>
									<mediatype>video</mediatype>
									<parameter authoringApp="PremierePro">
										<parameterid>scale</parameterid>
										<name>Scale</name>
										<valuemin>0</valuemin>
										<valuemax>1000</valuemax>
										<value>115</value>
									</parameter>
									<parameter authoringApp="PremierePro">
										<parameterid>rotation</parameterid>
										<name>Rotation</name>
										<valuemin>-8640</valuemin>
										<valuemax>8640</valuemax>
										<value>0</value>
									</parameter>
									<parameter authoringApp="PremierePro">
										<parameterid>center</parameterid>
										<name>Center</name>
										<value>
											<horiz>0</horiz>
											<vert>0</vert>
										</value>
									</parameter>
									<parameter authoringApp="PremierePro">
										<parameterid>centerOffset</parameterid>
										<name>Anchor Point</name>
										<value>
											<horiz>0</horiz>
											<vert>0</vert>
										</value>
									</parameter>
								</effect>
							</filter>
					</clipitem>
					<clipitem id="clipitem-327" frameBlend="FALSE">
						<masterclipid>masterclip-127</masterclipid>
						<name>Kharkov_048.jpg</name>
						<enabled>TRUE</enabled>
						<duration>1080000</duration>
						<rate>
							<timebase>30</timebase>
							<ntsc>TRUE</ntsc>
						</rate>
						<start>34840</start>
						<end>34953</end>
						<in>90054</in>
						<out>90167</out>
						<alphatype>none</alphatype>
						<pixelaspectratio>square</pixelaspectratio>
						<anamorphic>FALSE</anamorphic>
						<file id="file-127">
							<name>Kharkov_048.jpg</name>
							<pathurl>file://localhost/Volumes/Scenen/Prosjekter/FILM/FILM%20XX13%20Kjartan%20Opptak%20Russland%20Oktober%202013/Photoshop%20%3a%20Bilder/Kharkov%20stills/Kharkov_048.jpg</pathurl>
							<rate>
								<timebase>30</timebase>
								<ntsc>TRUE</ntsc>
							</rate>
							<timecode>
								<rate>
									<timebase>30</timebase>
									<ntsc>TRUE</ntsc>
								</rate>
								<string>00;00;00;00</string>
								<frame>0</frame>
								<displayformat>DF</displayformat>
							</timecode>
							<media>
								<video>
									<duration>18000</duration>
									<samplecharacteristics>
										<rate>
											<timebase>30</timebase>
											<ntsc>TRUE</ntsc>
										</rate>
										<width>1200</width>
										<height>800</height>
										<anamorphic>FALSE</anamorphic>
										<pixelaspectratio>square</pixelaspectratio>
										<fielddominance>none</fielddominance>
									</samplecharacteristics>
								</video>
							</media>
						</file>
							<filter>
								<effect>
									<name>Basic Motion</name>
									<effectid>basic</effectid>
									<effectcategory>motion</effectcategory>
									<effecttype>motion</effecttype>
									<mediatype>video</mediatype>
									<parameter authoringApp="PremierePro">
										<parameterid>scale</parameterid>
										<name>Scale</name>
										<valuemin>0</valuemin>
										<valuemax>1000</valuemax>
										<value>115</value>
									</parameter>
									<parameter authoringApp="PremierePro">
										<parameterid>rotation</parameterid>
										<name>Rotation</name>
										<valuemin>-8640</valuemin>
										<valuemax>8640</valuemax>
										<value>0</value>
									</parameter>
									<parameter authoringApp="PremierePro">
										<parameterid>center</parameterid>
										<name>Center</name>
										<value>
											<horiz>0</horiz>
											<vert>0</vert>
										</value>
									</parameter>
									<parameter authoringApp="PremierePro">
										<parameterid>centerOffset</parameterid>
										<name>Anchor Point</name>
										<value>
											<horiz>0</horiz>
											<vert>0</vert>
										</value>
									</parameter>
								</effect>
							</filter>
					</clipitem>
					<clipitem id="clipitem-328" frameBlend="FALSE">
						<masterclipid>masterclip-128</masterclipid>
						<name>Kharkov_034.jpg</name>
						<enabled>TRUE</enabled>
						<duration>1080000</duration>
						<rate>
							<timebase>30</timebase>
							<ntsc>TRUE</ntsc>
						</rate>
						<start>34953</start>
						<end>35139</end>
						<in>89996</in>
						<out>90182</out>
						<alphatype>none</alphatype>
						<pixelaspectratio>square</pixelaspectratio>
						<anamorphic>FALSE</anamorphic>
						<file id="file-128">
							<name>Kharkov_034.jpg</name>
							<pathurl>file://localhost/Volumes/Scenen/Prosjekter/FILM/FILM%20XX13%20Kjartan%20Opptak%20Russland%20Oktober%202013/Photoshop%20%3a%20Bilder/Kharkov%20stills/Kharkov_034.jpg</pathurl>
							<rate>
								<timebase>30</timebase>
								<ntsc>TRUE</ntsc>
							</rate>
							<timecode>
								<rate>
									<timebase>30</timebase>
									<ntsc>TRUE</ntsc>
								</rate>
								<string>00;00;00;00</string>
								<frame>0</frame>
								<displayformat>DF</displayformat>
							</timecode>
							<media>
								<video>
									<duration>18000</duration>
									<samplecharacteristics>
										<rate>
											<timebase>30</timebase>
											<ntsc>TRUE</ntsc>
										</rate>
										<width>1200</width>
										<height>800</height>
										<anamorphic>FALSE</anamorphic>
										<pixelaspectratio>square</pixelaspectratio>
										<fielddominance>none</fielddominance>
									</samplecharacteristics>
								</video>
							</media>
						</file>
							<filter>
								<effect>
									<name>Basic Motion</name>
									<effectid>basic</effectid>
									<effectcategory>motion</effectcategory>
									<effecttype>motion</effecttype>
									<mediatype>video</mediatype>
									<parameter authoringApp="PremierePro">
										<parameterid>scale</parameterid>
										<name>Scale</name>
										<valuemin>0</valuemin>
										<valuemax>1000</valuemax>
										<value>115</value>
									</parameter>
									<parameter authoringApp="PremierePro">
										<parameterid>rotation</parameterid>
										<name>Rotation</name>
										<valuemin>-8640</valuemin>
										<valuemax>8640</valuemax>
										<value>0</value>
									</parameter>
									<parameter authoringApp="PremierePro">
										<parameterid>center</parameterid>
										<name>Center</name>
										<value>
											<horiz>0</horiz>
											<vert>0</vert>
										</value>
									</parameter>
									<parameter authoringApp="PremierePro">
										<parameterid>centerOffset</parameterid>
										<name>Anchor Point</name>
										<value>
											<horiz>0</horiz>
											<vert>0</vert>
										</value>
									</parameter>
								</effect>
							</filter>
					</clipitem>
					<clipitem id="clipitem-329" frameBlend="FALSE">
						<masterclipid>masterclip-129</masterclipid>
						<name>Kharkov_093.jpg</name>
						<enabled>TRUE</enabled>
						<duration>1080000</duration>
						<rate>
							<timebase>30</timebase>
							<ntsc>TRUE</ntsc>
						</rate>
						<start>35139</start>
						<end>35284</end>
						<in>89973</in>
						<out>90118</out>
						<alphatype>none</alphatype>
						<pixelaspectratio>square</pixelaspectratio>
						<anamorphic>FALSE</anamorphic>
						<file id="file-129">
							<name>Kharkov_093.jpg</name>
							<pathurl>file://localhost/Volumes/Scenen/Prosjekter/FILM/FILM%20XX13%20Kjartan%20Opptak%20Russland%20Oktober%202013/Photoshop%20%3a%20Bilder/Kharkov%20stills/Kharkov_093.jpg</pathurl>
							<rate>
								<timebase>30</timebase>
								<ntsc>TRUE</ntsc>
							</rate>
							<timecode>
								<rate>
									<timebase>30</timebase>
									<ntsc>TRUE</ntsc>
								</rate>
								<string>00;00;00;00</string>
								<frame>0</frame>
								<displayformat>DF</displayformat>
							</timecode>
							<media>
								<video>
									<duration>18000</duration>
									<samplecharacteristics>
										<rate>
											<timebase>30</timebase>
											<ntsc>TRUE</ntsc>
										</rate>
										<width>1200</width>
										<height>800</height>
										<anamorphic>FALSE</anamorphic>
										<pixelaspectratio>square</pixelaspectratio>
										<fielddominance>none</fielddominance>
									</samplecharacteristics>
								</video>
							</media>
						</file>
							<filter>
								<effect>
									<name>Basic Motion</name>
									<effectid>basic</effectid>
									<effectcategory>motion</effectcategory>
									<effecttype>motion</effecttype>
									<mediatype>video</mediatype>
									<parameter authoringApp="PremierePro">
										<parameterid>scale</parameterid>
										<name>Scale</name>
										<valuemin>0</valuemin>
										<valuemax>1000</valuemax>
										<value>115</value>
									</parameter>
									<parameter authoringApp="PremierePro">
										<parameterid>rotation</parameterid>
										<name>Rotation</name>
										<valuemin>-8640</valuemin>
										<valuemax>8640</valuemax>
										<value>0</value>
									</parameter>
									<parameter authoringApp="PremierePro">
										<parameterid>center</parameterid>
										<name>Center</name>
										<value>
											<horiz>0</horiz>
											<vert>0</vert>
										</value>
									</parameter>
									<parameter authoringApp="PremierePro">
										<parameterid>centerOffset</parameterid>
										<name>Anchor Point</name>
										<value>
											<horiz>0</horiz>
											<vert>0</vert>
										</value>
									</parameter>
								</effect>
							</filter>
					</clipitem>
					<transitionitem>
						<start>35790</start>
						<end>35805</end>
						<alignment>start-black</alignment>
						<cutPoint>0</cutPoint>
						<rate>
							<timebase>25</timebase>
							<ntsc>FALSE</ntsc>
						</rate>
						<effect>
							<name>Cross Dissolve</name>
							<effectid>Cross Dissolve</effectid>
							<effectcategory>Dissolve</effectcategory>
							<effecttype>transition</effecttype>
							<mediatype>video</mediatype>
							<wipecode>0</wipecode>
							<wipeaccuracy>100</wipeaccuracy>
							<startratio>0</startratio>
							<endratio>1</endratio>
							<reverse>FALSE</reverse>
						</effect>
					</transitionitem>
					<clipitem id="clipitem-330" frameBlend="FALSE">
						<masterclipid>masterclip-85</masterclipid>
						<name>lev-landau-03.jpg</name>
						<enabled>TRUE</enabled>
						<duration>1080000</duration>
						<rate>
							<ntsc>TRUE</ntsc>
							<timebase>30</timebase>
						</rate>
						<start>-1</start>
						<end>-1</end>
						<in>90029</in>
						<out>90170</out>
						<alphatype>none</alphatype>
						<file id="file-85"/>
					</clipitem>
					<transitionitem>
						<start>35916</start>
						<end>35931</end>
						<alignment>end-black</alignment>
						<cutPoint>15</cutPoint>
						<rate>
							<timebase>25</timebase>
							<ntsc>FALSE</ntsc>
						</rate>
						<effect>
							<name>Cross Dissolve</name>
							<effectid>Cross Dissolve</effectid>
							<effectcategory>Dissolve</effectcategory>
							<effecttype>transition</effecttype>
							<mediatype>video</mediatype>
							<wipecode>0</wipecode>
							<wipeaccuracy>100</wipeaccuracy>
							<startratio>0</startratio>
							<endratio>1</endratio>
							<reverse>FALSE</reverse>
						</effect>
					</transitionitem>
					<clipitem id="clipitem-331" frameBlend="FALSE">
						<masterclipid>masterclip-130</masterclipid>
						<name>Kharkov_004.jpg</name>
						<enabled>TRUE</enabled>
						<duration>1080000</duration>
						<rate>
							<timebase>30</timebase>
							<ntsc>TRUE</ntsc>
						</rate>
						<start>35931</start>
						<end>36062</end>
						<in>90009</in>
						<out>90140</out>
						<alphatype>none</alphatype>
						<pixelaspectratio>square</pixelaspectratio>
						<anamorphic>FALSE</anamorphic>
						<file id="file-130">
							<name>Kharkov_004.jpg</name>
							<pathurl>file://localhost/Volumes/Scenen/Prosjekter/FILM/FILM%20XX13%20Kjartan%20Opptak%20Russland%20Oktober%202013/Photoshop%20%3a%20Bilder/Kharkov%20stills/Kharkov_004.jpg</pathurl>
							<rate>
								<timebase>30</timebase>
								<ntsc>TRUE</ntsc>
							</rate>
							<timecode>
								<rate>
									<timebase>30</timebase>
									<ntsc>TRUE</ntsc>
								</rate>
								<string>00;00;00;00</string>
								<frame>0</frame>
								<displayformat>DF</displayformat>
							</timecode>
							<media>
								<video>
									<duration>18000</duration>
									<samplecharacteristics>
										<rate>
											<timebase>30</timebase>
											<ntsc>TRUE</ntsc>
										</rate>
										<width>1200</width>
										<height>800</height>
										<anamorphic>FALSE</anamorphic>
										<pixelaspectratio>square</pixelaspectratio>
										<fielddominance>none</fielddominance>
									</samplecharacteristics>
								</video>
							</media>
						</file>
					</clipitem>
					<clipitem id="clipitem-332" frameBlend="FALSE">
						<masterclipid>masterclip-131</masterclipid>
						<name>Kharkov_040.jpg</name>
						<enabled>TRUE</enabled>
						<duration>1080000</duration>
						<rate>
							<timebase>30</timebase>
							<ntsc>TRUE</ntsc>
						</rate>
						<start>36062</start>
						<end>36215</end>
						<in>89921</in>
						<out>90074</out>
						<alphatype>none</alphatype>
						<pixelaspectratio>square</pixelaspectratio>
						<anamorphic>FALSE</anamorphic>
						<file id="file-131">
							<name>Kharkov_040.jpg</name>
							<pathurl>file://localhost/Volumes/Scenen/Prosjekter/FILM/FILM%20XX13%20Kjartan%20Opptak%20Russland%20Oktober%202013/Photoshop%20%3a%20Bilder/Kharkov%20stills/Kharkov_040.jpg</pathurl>
							<rate>
								<timebase>30</timebase>
								<ntsc>TRUE</ntsc>
							</rate>
							<timecode>
								<rate>
									<timebase>30</timebase>
									<ntsc>TRUE</ntsc>
								</rate>
								<string>00;00;00;00</string>
								<frame>0</frame>
								<displayformat>DF</displayformat>
							</timecode>
							<media>
								<video>
									<duration>18000</duration>
									<samplecharacteristics>
										<rate>
											<timebase>30</timebase>
											<ntsc>TRUE</ntsc>
										</rate>
										<width>1200</width>
										<height>800</height>
										<anamorphic>FALSE</anamorphic>
										<pixelaspectratio>square</pixelaspectratio>
										<fielddominance>none</fielddominance>
									</samplecharacteristics>
								</video>
							</media>
						</file>
					</clipitem>
					<clipitem id="clipitem-333" frameBlend="FALSE">
						<masterclipid>masterclip-132</masterclipid>
						<name>Kharkov_020.jpg</name>
						<enabled>TRUE</enabled>
						<duration>1080000</duration>
						<rate>
							<timebase>30</timebase>
							<ntsc>TRUE</ntsc>
						</rate>
						<start>36215</start>
						<end>36318</end>
						<in>90036</in>
						<out>90139</out>
						<alphatype>none</alphatype>
						<pixelaspectratio>square</pixelaspectratio>
						<anamorphic>FALSE</anamorphic>
						<file id="file-132">
							<name>Kharkov_020.jpg</name>
							<pathurl>file://localhost/Volumes/Scenen/Prosjekter/FILM/FILM%20XX13%20Kjartan%20Opptak%20Russland%20Oktober%202013/Photoshop%20%3a%20Bilder/Kharkov%20stills/Kharkov_020.jpg</pathurl>
							<rate>
								<timebase>30</timebase>
								<ntsc>TRUE</ntsc>
							</rate>
							<timecode>
								<rate>
									<timebase>30</timebase>
									<ntsc>TRUE</ntsc>
								</rate>
								<string>00;00;00;00</string>
								<frame>0</frame>
								<displayformat>DF</displayformat>
							</timecode>
							<media>
								<video>
									<duration>18000</duration>
									<samplecharacteristics>
										<rate>
											<timebase>30</timebase>
											<ntsc>TRUE</ntsc>
										</rate>
										<width>1200</width>
										<height>800</height>
										<anamorphic>FALSE</anamorphic>
										<pixelaspectratio>square</pixelaspectratio>
										<fielddominance>none</fielddominance>
									</samplecharacteristics>
								</video>
							</media>
						</file>
					</clipitem>
					<clipitem id="clipitem-334" frameBlend="FALSE">
						<masterclipid>masterclip-133</masterclipid>
						<name>Kharkov_112.jpg</name>
						<enabled>TRUE</enabled>
						<duration>1080000</duration>
						<rate>
							<timebase>30</timebase>
							<ntsc>TRUE</ntsc>
						</rate>
						<start>36318</start>
						<end>-1</end>
						<in>90000</in>
						<out>90124</out>
						<alphatype>none</alphatype>
						<pixelaspectratio>square</pixelaspectratio>
						<anamorphic>FALSE</anamorphic>
						<file id="file-133">
							<name>Kharkov_112.jpg</name>
							<pathurl>file://localhost/Volumes/Scenen/Prosjekter/FILM/FILM%20XX13%20Kjartan%20Opptak%20Russland%20Oktober%202013/Photoshop%20%3a%20Bilder/Kharkov%20stills/Kharkov_112.jpg</pathurl>
							<rate>
								<timebase>30</timebase>
								<ntsc>TRUE</ntsc>
							</rate>
							<timecode>
								<rate>
									<timebase>30</timebase>
									<ntsc>TRUE</ntsc>
								</rate>
								<string>00;00;00;00</string>
								<frame>0</frame>
								<displayformat>DF</displayformat>
							</timecode>
							<media>
								<video>
									<duration>18000</duration>
									<samplecharacteristics>
										<rate>
											<timebase>30</timebase>
											<ntsc>TRUE</ntsc>
										</rate>
										<width>1200</width>
										<height>800</height>
										<anamorphic>FALSE</anamorphic>
										<pixelaspectratio>square</pixelaspectratio>
										<fielddominance>none</fielddominance>
									</samplecharacteristics>
								</video>
							</media>
						</file>
					</clipitem>
					<transitionitem>
						<start>36429</start>
						<end>36442</end>
						<alignment>end-black</alignment>
						<cutPoint>13</cutPoint>
						<rate>
							<timebase>25</timebase>
							<ntsc>FALSE</ntsc>
						</rate>
						<effect>
							<name>Cross Dissolve</name>
							<effectid>Cross Dissolve</effectid>
							<effectcategory>Dissolve</effectcategory>
							<effecttype>transition</effecttype>
							<mediatype>video</mediatype>
							<wipecode>0</wipecode>
							<wipeaccuracy>100</wipeaccuracy>
							<startratio>0</startratio>
							<endratio>1</endratio>
							<reverse>FALSE</reverse>
						</effect>
					</transitionitem>
					<transitionitem>
						<start>36723</start>
						<end>36748</end>
						<alignment>start-black</alignment>
						<cutPoint>0</cutPoint>
						<rate>
							<timebase>25</timebase>
							<ntsc>FALSE</ntsc>
						</rate>
						<effect>
							<name>Cross Dissolve</name>
							<effectid>Cross Dissolve</effectid>
							<effectcategory>Dissolve</effectcategory>
							<effecttype>transition</effecttype>
							<mediatype>video</mediatype>
							<wipecode>0</wipecode>
							<wipeaccuracy>100</wipeaccuracy>
							<startratio>0</startratio>
							<endratio>1</endratio>
							<reverse>FALSE</reverse>
						</effect>
					</transitionitem>
					<clipitem id="clipitem-335" frameBlend="FALSE">
						<masterclipid>masterclip-134</masterclipid>
						<name>Supermal Høst 2013 Copy 12</name>
						<enabled>TRUE</enabled>
						<duration>1080000</duration>
						<rate>
							<timebase>30</timebase>
							<ntsc>TRUE</ntsc>
						</rate>
						<start>-1</start>
						<end>-1</end>
						<in>91387</in>
						<out>91519</out>
						<alphatype>straight</alphatype>
						<pixelaspectratio>square</pixelaspectratio>
						<anamorphic>FALSE</anamorphic>
						<file id="file-134">
							<name>Internal Title</name>
							<mediaSource>Slug</mediaSource>
							<rate>
								<timebase>30</timebase>
								<ntsc>TRUE</ntsc>
							</rate>
							<timecode>
								<rate>
									<timebase>30</timebase>
									<ntsc>TRUE</ntsc>
								</rate>
								<string>00;00;00;00</string>
								<frame>0</frame>
								<displayformat>DF</displayformat>
							</timecode>
							<media>
								<video>
									<duration>18000</duration>
									<samplecharacteristics>
										<rate>
											<timebase>30</timebase>
											<ntsc>TRUE</ntsc>
										</rate>
										<width>1920</width>
										<height>1080</height>
										<anamorphic>FALSE</anamorphic>
										<pixelaspectratio>square</pixelaspectratio>
										<fielddominance>none</fielddominance>
									</samplecharacteristics>
								</video>
							</media>
						</file>
					</clipitem>
					<transitionitem>
						<start>36830</start>
						<end>36855</end>
						<alignment>end-black</alignment>
						<cutPoint>25</cutPoint>
						<rate>
							<timebase>25</timebase>
							<ntsc>FALSE</ntsc>
						</rate>
						<effect>
							<name>Cross Dissolve</name>
							<effectid>Cross Dissolve</effectid>
							<effectcategory>Dissolve</effectcategory>
							<effecttype>transition</effecttype>
							<mediatype>video</mediatype>
							<wipecode>0</wipecode>
							<wipeaccuracy>100</wipeaccuracy>
							<startratio>0</startratio>
							<endratio>1</endratio>
							<reverse>FALSE</reverse>
						</effect>
					</transitionitem>
					<transitionitem>
						<start>37193</start>
						<end>37208</end>
						<alignment>start-black</alignment>
						<cutPoint>0</cutPoint>
						<rate>
							<timebase>25</timebase>
							<ntsc>FALSE</ntsc>
						</rate>
						<effect>
							<name>Cross Dissolve</name>
							<effectid>Cross Dissolve</effectid>
							<effectcategory>Dissolve</effectcategory>
							<effecttype>transition</effecttype>
							<mediatype>video</mediatype>
							<wipecode>0</wipecode>
							<wipeaccuracy>100</wipeaccuracy>
							<startratio>0</startratio>
							<endratio>1</endratio>
							<reverse>FALSE</reverse>
						</effect>
					</transitionitem>
					<clipitem id="clipitem-336" frameBlend="FALSE">
						<masterclipid>masterclip-135</masterclipid>
						<name>Kharkov_095.jpg</name>
						<enabled>TRUE</enabled>
						<duration>1080000</duration>
						<rate>
							<timebase>30</timebase>
							<ntsc>TRUE</ntsc>
						</rate>
						<start>-1</start>
						<end>-1</end>
						<in>90076</in>
						<out>90205</out>
						<alphatype>none</alphatype>
						<pixelaspectratio>square</pixelaspectratio>
						<anamorphic>FALSE</anamorphic>
						<file id="file-135">
							<name>Kharkov_095.jpg</name>
							<pathurl>file://localhost/Volumes/Scenen/Prosjekter/FILM/FILM%20XX13%20Kjartan%20Opptak%20Russland%20Oktober%202013/Photoshop%20%3a%20Bilder/Kharkov%20stills/Kharkov_095.jpg</pathurl>
							<rate>
								<timebase>30</timebase>
								<ntsc>TRUE</ntsc>
							</rate>
							<timecode>
								<rate>
									<timebase>30</timebase>
									<ntsc>TRUE</ntsc>
								</rate>
								<string>00;00;00;00</string>
								<frame>0</frame>
								<displayformat>DF</displayformat>
							</timecode>
							<media>
								<video>
									<duration>18000</duration>
									<samplecharacteristics>
										<rate>
											<timebase>30</timebase>
											<ntsc>TRUE</ntsc>
										</rate>
										<width>1200</width>
										<height>800</height>
										<anamorphic>FALSE</anamorphic>
										<pixelaspectratio>square</pixelaspectratio>
										<fielddominance>none</fielddominance>
									</samplecharacteristics>
								</video>
							</media>
						</file>
							<filter>
								<effect>
									<name>Basic Motion</name>
									<effectid>basic</effectid>
									<effectcategory>motion</effectcategory>
									<effecttype>motion</effecttype>
									<mediatype>video</mediatype>
									<parameter authoringApp="PremierePro">
										<parameterid>scale</parameterid>
										<name>Scale</name>
										<valuemin>0</valuemin>
										<valuemax>1000</valuemax>
										<value>128</value>
										<keyframe>
											<when>90076</when>
											<value>121</value>
										</keyframe>
										<keyframe>
											<when>90204</when>
											<value>128</value>
										</keyframe>
									</parameter>
									<parameter authoringApp="PremierePro">
										<parameterid>rotation</parameterid>
										<name>Rotation</name>
										<valuemin>-8640</valuemin>
										<valuemax>8640</valuemax>
										<value>0</value>
									</parameter>
									<parameter authoringApp="PremierePro">
										<parameterid>center</parameterid>
										<name>Center</name>
										<value>
											<horiz>0</horiz>
											<vert>0</vert>
										</value>
									</parameter>
									<parameter authoringApp="PremierePro">
										<parameterid>centerOffset</parameterid>
										<name>Anchor Point</name>
										<value>
											<horiz>0</horiz>
											<vert>0</vert>
										</value>
									</parameter>
								</effect>
							</filter>
					</clipitem>
					<transitionitem>
						<start>37307</start>
						<end>37322</end>
						<alignment>end-black</alignment>
						<cutPoint>15</cutPoint>
						<rate>
							<timebase>25</timebase>
							<ntsc>FALSE</ntsc>
						</rate>
						<effect>
							<name>Cross Dissolve</name>
							<effectid>Cross Dissolve</effectid>
							<effectcategory>Dissolve</effectcategory>
							<effecttype>transition</effecttype>
							<mediatype>video</mediatype>
							<wipecode>0</wipecode>
							<wipeaccuracy>100</wipeaccuracy>
							<startratio>0</startratio>
							<endratio>1</endratio>
							<reverse>FALSE</reverse>
						</effect>
					</transitionitem>
					<transitionitem>
						<start>37560</start>
						<end>37575</end>
						<alignment>start-black</alignment>
						<cutPoint>0</cutPoint>
						<rate>
							<timebase>25</timebase>
							<ntsc>FALSE</ntsc>
						</rate>
						<effect>
							<name>Cross Dissolve</name>
							<effectid>Cross Dissolve</effectid>
							<effectcategory>Dissolve</effectcategory>
							<effecttype>transition</effecttype>
							<mediatype>video</mediatype>
							<wipecode>0</wipecode>
							<wipeaccuracy>100</wipeaccuracy>
							<startratio>0</startratio>
							<endratio>1</endratio>
							<reverse>FALSE</reverse>
						</effect>
					</transitionitem>
					<clipitem id="clipitem-337" frameBlend="FALSE">
						<masterclipid>masterclip-136</masterclipid>
						<name>Kharkov_100.jpg</name>
						<enabled>TRUE</enabled>
						<duration>1080000</duration>
						<rate>
							<timebase>30</timebase>
							<ntsc>TRUE</ntsc>
						</rate>
						<start>-1</start>
						<end>-1</end>
						<in>90034</in>
						<out>90202</out>
						<alphatype>none</alphatype>
						<pixelaspectratio>square</pixelaspectratio>
						<anamorphic>FALSE</anamorphic>
						<file id="file-136">
							<name>Kharkov_100.jpg</name>
							<pathurl>file://localhost/Volumes/Scenen/Prosjekter/FILM/FILM%20XX13%20Kjartan%20Opptak%20Russland%20Oktober%202013/Photoshop%20%3a%20Bilder/Kharkov%20stills/Kharkov_100.jpg</pathurl>
							<rate>
								<timebase>30</timebase>
								<ntsc>TRUE</ntsc>
							</rate>
							<timecode>
								<rate>
									<timebase>30</timebase>
									<ntsc>TRUE</ntsc>
								</rate>
								<string>00;00;00;00</string>
								<frame>0</frame>
								<displayformat>DF</displayformat>
							</timecode>
							<media>
								<video>
									<duration>18000</duration>
									<samplecharacteristics>
										<rate>
											<timebase>30</timebase>
											<ntsc>TRUE</ntsc>
										</rate>
										<width>1200</width>
										<height>800</height>
										<anamorphic>FALSE</anamorphic>
										<pixelaspectratio>square</pixelaspectratio>
										<fielddominance>none</fielddominance>
									</samplecharacteristics>
								</video>
							</media>
						</file>
					</clipitem>
					<transitionitem>
						<start>37713</start>
						<end>37728</end>
						<alignment>center</alignment>
						<cutPoint>7</cutPoint>
						<rate>
							<timebase>25</timebase>
							<ntsc>FALSE</ntsc>
						</rate>
						<effect>
							<name>Cross Dissolve</name>
							<effectid>Cross Dissolve</effectid>
							<effectcategory>Dissolve</effectcategory>
							<effecttype>transition</effecttype>
							<mediatype>video</mediatype>
							<wipecode>0</wipecode>
							<wipeaccuracy>100</wipeaccuracy>
							<startratio>0</startratio>
							<endratio>1</endratio>
							<reverse>FALSE</reverse>
						</effect>
					</transitionitem>
					<clipitem id="clipitem-338" frameBlend="FALSE">
						<masterclipid>masterclip-137</masterclipid>
						<name>Kharkov_102.jpg</name>
						<enabled>TRUE</enabled>
						<duration>1080000</duration>
						<rate>
							<timebase>30</timebase>
							<ntsc>TRUE</ntsc>
						</rate>
						<start>-1</start>
						<end>-1</end>
						<in>89940</in>
						<out>90125</out>
						<alphatype>none</alphatype>
						<pixelaspectratio>square</pixelaspectratio>
						<anamorphic>FALSE</anamorphic>
						<file id="file-137">
							<name>Kharkov_102.jpg</name>
							<pathurl>file://localhost/Volumes/Scenen/Prosjekter/FILM/FILM%20XX13%20Kjartan%20Opptak%20Russland%20Oktober%202013/Photoshop%20%3a%20Bilder/Kharkov%20stills/Kharkov_102.jpg</pathurl>
							<rate>
								<timebase>30</timebase>
								<ntsc>TRUE</ntsc>
							</rate>
							<timecode>
								<rate>
									<timebase>30</timebase>
									<ntsc>TRUE</ntsc>
								</rate>
								<string>00;00;00;00</string>
								<frame>0</frame>
								<displayformat>DF</displayformat>
							</timecode>
							<media>
								<video>
									<duration>18000</duration>
									<samplecharacteristics>
										<rate>
											<timebase>30</timebase>
											<ntsc>TRUE</ntsc>
										</rate>
										<width>1200</width>
										<height>800</height>
										<anamorphic>FALSE</anamorphic>
										<pixelaspectratio>square</pixelaspectratio>
										<fielddominance>none</fielddominance>
									</samplecharacteristics>
								</video>
							</media>
						</file>
					</clipitem>
					<transitionitem>
						<start>37883</start>
						<end>37898</end>
						<alignment>end-black</alignment>
						<cutPoint>15</cutPoint>
						<rate>
							<timebase>25</timebase>
							<ntsc>FALSE</ntsc>
						</rate>
						<effect>
							<name>Cross Dissolve</name>
							<effectid>Cross Dissolve</effectid>
							<effectcategory>Dissolve</effectcategory>
							<effecttype>transition</effecttype>
							<mediatype>video</mediatype>
							<wipecode>0</wipecode>
							<wipeaccuracy>100</wipeaccuracy>
							<startratio>0</startratio>
							<endratio>1</endratio>
							<reverse>FALSE</reverse>
						</effect>
					</transitionitem>
					<transitionitem>
						<start>38903</start>
						<end>38918</end>
						<alignment>start-black</alignment>
						<cutPoint>0</cutPoint>
						<rate>
							<timebase>25</timebase>
							<ntsc>FALSE</ntsc>
						</rate>
						<effect>
							<name>Cross Dissolve</name>
							<effectid>Cross Dissolve</effectid>
							<effectcategory>Dissolve</effectcategory>
							<effecttype>transition</effecttype>
							<mediatype>video</mediatype>
							<wipecode>0</wipecode>
							<wipeaccuracy>100</wipeaccuracy>
							<startratio>0</startratio>
							<endratio>1</endratio>
							<reverse>FALSE</reverse>
						</effect>
					</transitionitem>
					<clipitem id="clipitem-339" frameBlend="FALSE">
						<masterclipid>masterclip-138</masterclipid>
						<name>Kharkov_068.jpg</name>
						<enabled>TRUE</enabled>
						<duration>1080000</duration>
						<rate>
							<timebase>30</timebase>
							<ntsc>TRUE</ntsc>
						</rate>
						<start>-1</start>
						<end>-1</end>
						<in>90008</in>
						<out>90170</out>
						<alphatype>none</alphatype>
						<pixelaspectratio>square</pixelaspectratio>
						<anamorphic>FALSE</anamorphic>
						<file id="file-138">
							<name>Kharkov_068.jpg</name>
							<pathurl>file://localhost/Volumes/Scenen/Prosjekter/FILM/FILM%20XX13%20Kjartan%20Opptak%20Russland%20Oktober%202013/Photoshop%20%3a%20Bilder/Kharkov%20stills/Kharkov_068.jpg</pathurl>
							<rate>
								<timebase>30</timebase>
								<ntsc>TRUE</ntsc>
							</rate>
							<timecode>
								<rate>
									<timebase>30</timebase>
									<ntsc>TRUE</ntsc>
								</rate>
								<string>00;00;00;00</string>
								<frame>0</frame>
								<displayformat>DF</displayformat>
							</timecode>
							<media>
								<video>
									<duration>18000</duration>
									<samplecharacteristics>
										<rate>
											<timebase>30</timebase>
											<ntsc>TRUE</ntsc>
										</rate>
										<width>1200</width>
										<height>800</height>
										<anamorphic>FALSE</anamorphic>
										<pixelaspectratio>square</pixelaspectratio>
										<fielddominance>none</fielddominance>
									</samplecharacteristics>
								</video>
							</media>
						</file>
					</clipitem>
					<transitionitem>
						<start>39040</start>
						<end>39065</end>
						<alignment>center</alignment>
						<cutPoint>12</cutPoint>
						<rate>
							<timebase>25</timebase>
							<ntsc>FALSE</ntsc>
						</rate>
						<effect>
							<name>Cross Dissolve</name>
							<effectid>Cross Dissolve</effectid>
							<effectcategory>Dissolve</effectcategory>
							<effecttype>transition</effecttype>
							<mediatype>video</mediatype>
							<wipecode>0</wipecode>
							<wipeaccuracy>100</wipeaccuracy>
							<startratio>0</startratio>
							<endratio>1</endratio>
							<reverse>FALSE</reverse>
						</effect>
					</transitionitem>
					<clipitem id="clipitem-340" frameBlend="FALSE">
						<masterclipid>masterclip-139</masterclipid>
						<name>Kharkov_107.jpg</name>
						<enabled>TRUE</enabled>
						<duration>1080000</duration>
						<rate>
							<timebase>30</timebase>
							<ntsc>TRUE</ntsc>
						</rate>
						<start>-1</start>
						<end>-1</end>
						<in>89960</in>
						<out>90131</out>
						<alphatype>none</alphatype>
						<pixelaspectratio>square</pixelaspectratio>
						<anamorphic>FALSE</anamorphic>
						<file id="file-139">
							<name>Kharkov_107.jpg</name>
							<pathurl>file://localhost/Volumes/Scenen/Prosjekter/FILM/FILM%20XX13%20Kjartan%20Opptak%20Russland%20Oktober%202013/Photoshop%20%3a%20Bilder/Kharkov%20stills/Kharkov_107.jpg</pathurl>
							<rate>
								<timebase>30</timebase>
								<ntsc>TRUE</ntsc>
							</rate>
							<timecode>
								<rate>
									<timebase>30</timebase>
									<ntsc>TRUE</ntsc>
								</rate>
								<string>00;00;00;00</string>
								<frame>0</frame>
								<displayformat>DF</displayformat>
							</timecode>
							<media>
								<video>
									<duration>18000</duration>
									<samplecharacteristics>
										<rate>
											<timebase>30</timebase>
											<ntsc>TRUE</ntsc>
										</rate>
										<width>1200</width>
										<height>800</height>
										<anamorphic>FALSE</anamorphic>
										<pixelaspectratio>square</pixelaspectratio>
										<fielddominance>none</fielddominance>
									</samplecharacteristics>
								</video>
							</media>
						</file>
					</clipitem>
					<transitionitem>
						<start>39196</start>
						<end>39211</end>
						<alignment>end-black</alignment>
						<cutPoint>15</cutPoint>
						<rate>
							<timebase>25</timebase>
							<ntsc>FALSE</ntsc>
						</rate>
						<effect>
							<name>Cross Dissolve</name>
							<effectid>Cross Dissolve</effectid>
							<effectcategory>Dissolve</effectcategory>
							<effecttype>transition</effecttype>
							<mediatype>video</mediatype>
							<wipecode>0</wipecode>
							<wipeaccuracy>100</wipeaccuracy>
							<startratio>0</startratio>
							<endratio>1</endratio>
							<reverse>FALSE</reverse>
						</effect>
					</transitionitem>
					<transitionitem>
						<start>41078</start>
						<end>41103</end>
						<alignment>start-black</alignment>
						<cutPoint>0</cutPoint>
						<rate>
							<timebase>25</timebase>
							<ntsc>FALSE</ntsc>
						</rate>
						<effect>
							<name>Cross Dissolve</name>
							<effectid>Cross Dissolve</effectid>
							<effectcategory>Dissolve</effectcategory>
							<effecttype>transition</effecttype>
							<mediatype>video</mediatype>
							<wipecode>0</wipecode>
							<wipeaccuracy>100</wipeaccuracy>
							<startratio>0</startratio>
							<endratio>1</endratio>
							<reverse>FALSE</reverse>
						</effect>
					</transitionitem>
					<clipitem id="clipitem-341" frameBlend="FALSE">
						<masterclipid>masterclip-140</masterclipid>
						<name>Supermal Høst 2013 Copy 09</name>
						<enabled>TRUE</enabled>
						<duration>1080000</duration>
						<rate>
							<timebase>30</timebase>
							<ntsc>TRUE</ntsc>
						</rate>
						<start>-1</start>
						<end>-1</end>
						<in>91374</in>
						<out>91519</out>
						<alphatype>straight</alphatype>
						<pixelaspectratio>square</pixelaspectratio>
						<anamorphic>FALSE</anamorphic>
						<file id="file-140">
							<name>Internal Title</name>
							<mediaSource>Slug</mediaSource>
							<rate>
								<timebase>30</timebase>
								<ntsc>TRUE</ntsc>
							</rate>
							<timecode>
								<rate>
									<timebase>30</timebase>
									<ntsc>TRUE</ntsc>
								</rate>
								<string>00;00;00;00</string>
								<frame>0</frame>
								<displayformat>DF</displayformat>
							</timecode>
							<media>
								<video>
									<duration>18000</duration>
									<samplecharacteristics>
										<rate>
											<timebase>30</timebase>
											<ntsc>TRUE</ntsc>
										</rate>
										<width>1920</width>
										<height>1080</height>
										<anamorphic>FALSE</anamorphic>
										<pixelaspectratio>square</pixelaspectratio>
										<fielddominance>none</fielddominance>
									</samplecharacteristics>
								</video>
							</media>
						</file>
					</clipitem>
					<transitionitem>
						<start>41198</start>
						<end>41223</end>
						<alignment>end-black</alignment>
						<cutPoint>25</cutPoint>
						<rate>
							<timebase>25</timebase>
							<ntsc>FALSE</ntsc>
						</rate>
						<effect>
							<name>Cross Dissolve</name>
							<effectid>Cross Dissolve</effectid>
							<effectcategory>Dissolve</effectcategory>
							<effecttype>transition</effecttype>
							<mediatype>video</mediatype>
							<wipecode>0</wipecode>
							<wipeaccuracy>100</wipeaccuracy>
							<startratio>0</startratio>
							<endratio>1</endratio>
							<reverse>FALSE</reverse>
						</effect>
					</transitionitem>
					<clipitem id="clipitem-342" frameBlend="FALSE">
						<masterclipid>masterclip-141</masterclipid>
						<name>Rulletekst_plaket02.mov</name>
						<enabled>TRUE</enabled>
						<duration>200</duration>
						<rate>
							<timebase>25</timebase>
							<ntsc>FALSE</ntsc>
						</rate>
						<start>43221</start>
						<end>43283</end>
						<in>23</in>
						<out>85</out>
						<alphatype>none</alphatype>
						<pixelaspectratio>square</pixelaspectratio>
						<anamorphic>FALSE</anamorphic>
						<file id="file-141">
							<name>Rulletekst_plaket02.mov</name>
							<pathurl>file://localhost/Volumes/Scenen/Prosjekter/FILM/FILM%201413%20Master%20Filmbonanza%20Program%206%20H%c3%b8sten%202013/Eksport/Rulletekst_plaket02.mov</pathurl>
							<rate>
								<timebase>25</timebase>
								<ntsc>FALSE</ntsc>
							</rate>
							<duration>200</duration>
							<timecode>
								<rate>
									<timebase>25</timebase>
									<ntsc>FALSE</ntsc>
								</rate>
								<string>00:00:00:00</string>
								<frame>0</frame>
								<displayformat>NDF</displayformat>
							</timecode>
							<media>
								<video>
									<duration>18000</duration>
									<samplecharacteristics>
										<rate>
											<timebase>25</timebase>
											<ntsc>FALSE</ntsc>
										</rate>
										<width>1920</width>
										<height>1080</height>
										<anamorphic>FALSE</anamorphic>
										<pixelaspectratio>square</pixelaspectratio>
										<fielddominance>upper</fielddominance>
									</samplecharacteristics>
								</video>
							</media>
						</file>
					</clipitem>
					<clipitem id="clipitem-343" frameBlend="FALSE">
						<masterclipid>masterclip-142</masterclipid>
						<name>Foto og stills siste.mov</name>
						<enabled>TRUE</enabled>
						<duration>196</duration>
						<rate>
							<timebase>25</timebase>
							<ntsc>FALSE</ntsc>
						</rate>
						<start>43283</start>
						<end>43339</end>
						<in>74</in>
						<out>130</out>
						<alphatype>none</alphatype>
						<pixelaspectratio>square</pixelaspectratio>
						<anamorphic>FALSE</anamorphic>
						<file id="file-142">
							<name>Foto og stills siste.mov</name>
							<pathurl>file://localhost/Volumes/Scenen/Prosjekter/FILM/FILM%201413%20Master%20Filmbonanza%20Program%206%20H%c3%b8sten%202013/Eksport/Foto%20og%20stills%20siste.mov</pathurl>
							<rate>
								<timebase>25</timebase>
								<ntsc>FALSE</ntsc>
							</rate>
							<duration>196</duration>
							<timecode>
								<rate>
									<timebase>25</timebase>
									<ntsc>FALSE</ntsc>
								</rate>
								<string>00:00:00:00</string>
								<frame>0</frame>
								<displayformat>NDF</displayformat>
							</timecode>
							<media>
								<video>
									<duration>18000</duration>
									<samplecharacteristics>
										<rate>
											<timebase>25</timebase>
											<ntsc>FALSE</ntsc>
										</rate>
										<width>1920</width>
										<height>1080</height>
										<anamorphic>FALSE</anamorphic>
										<pixelaspectratio>square</pixelaspectratio>
										<fielddominance>upper</fielddominance>
									</samplecharacteristics>
								</video>
							</media>
						</file>
					</clipitem>
					<clipitem id="clipitem-344" frameBlend="FALSE">
						<masterclipid>masterclip-143</masterclipid>
						<name>Musikkoversikt Brekk onsdag.mov</name>
						<enabled>TRUE</enabled>
						<duration>196</duration>
						<rate>
							<timebase>25</timebase>
							<ntsc>FALSE</ntsc>
						</rate>
						<start>43339</start>
						<end>43375</end>
						<in>118</in>
						<out>154</out>
						<alphatype>none</alphatype>
						<pixelaspectratio>square</pixelaspectratio>
						<anamorphic>FALSE</anamorphic>
						<file id="file-143">
							<name>Musikkoversikt Brekk onsdag.mov</name>
							<pathurl>file://localhost/Volumes/Scenen/Prosjekter/FILM/FILM%201413%20Master%20Filmbonanza%20Program%206%20H%c3%b8sten%202013/Eksport/Musikkoversikt%20Brekk%20onsdag.mov</pathurl>
							<rate>
								<timebase>25</timebase>
								<ntsc>FALSE</ntsc>
							</rate>
							<duration>196</duration>
							<timecode>
								<rate>
									<timebase>25</timebase>
									<ntsc>FALSE</ntsc>
								</rate>
								<string>00:00:00:00</string>
								<frame>0</frame>
								<displayformat>NDF</displayformat>
							</timecode>
							<media>
								<video>
									<duration>18000</duration>
									<samplecharacteristics>
										<rate>
											<timebase>25</timebase>
											<ntsc>FALSE</ntsc>
										</rate>
										<width>1920</width>
										<height>1080</height>
										<anamorphic>FALSE</anamorphic>
										<pixelaspectratio>square</pixelaspectratio>
										<fielddominance>upper</fielddominance>
									</samplecharacteristics>
								</video>
							</media>
						</file>
					</clipitem>
					<clipitem id="clipitem-345" frameBlend="FALSE">
						<masterclipid>masterclip-144</masterclipid>
						<name>Rulletekst_plaket06.mov</name>
						<enabled>TRUE</enabled>
						<duration>200</duration>
						<rate>
							<timebase>25</timebase>
							<ntsc>FALSE</ntsc>
						</rate>
						<start>43375</start>
						<end>43432</end>
						<in>99</in>
						<out>156</out>
						<alphatype>none</alphatype>
						<pixelaspectratio>square</pixelaspectratio>
						<anamorphic>FALSE</anamorphic>
						<file id="file-144">
							<name>Rulletekst_plaket06.mov</name>
							<pathurl>file://localhost/Volumes/Scenen/Prosjekter/FILM/FILM%201413%20Master%20Filmbonanza%20Program%206%20H%c3%b8sten%202013/Eksport/Rulletekst_plaket06.mov</pathurl>
							<rate>
								<timebase>25</timebase>
								<ntsc>FALSE</ntsc>
							</rate>
							<duration>200</duration>
							<timecode>
								<rate>
									<timebase>25</timebase>
									<ntsc>FALSE</ntsc>
								</rate>
								<string>00:00:00:00</string>
								<frame>0</frame>
								<displayformat>NDF</displayformat>
							</timecode>
							<media>
								<video>
									<duration>18000</duration>
									<samplecharacteristics>
										<rate>
											<timebase>25</timebase>
											<ntsc>FALSE</ntsc>
										</rate>
										<width>1920</width>
										<height>1080</height>
										<anamorphic>FALSE</anamorphic>
										<pixelaspectratio>square</pixelaspectratio>
										<fielddominance>upper</fielddominance>
									</samplecharacteristics>
								</video>
							</media>
						</file>
					</clipitem>
					<enabled>TRUE</enabled>
					<locked>FALSE</locked>
				</track>
				<track TL.SQTrackShy="0" TL.SQTrackExpandedHeight="25" TL.SQTrackExpanded="1" MZ.TrackTargeted="1">
					<transitionitem>
						<start>1790</start>
						<end>1815</end>
						<alignment>start-black</alignment>
						<cutPoint>0</cutPoint>
						<rate>
							<timebase>25</timebase>
							<ntsc>FALSE</ntsc>
						</rate>
						<effect>
							<name>Cross Dissolve</name>
							<effectid>Cross Dissolve</effectid>
							<effectcategory>Dissolve</effectcategory>
							<effecttype>transition</effecttype>
							<mediatype>video</mediatype>
							<wipecode>0</wipecode>
							<wipeaccuracy>100</wipeaccuracy>
							<startratio>0</startratio>
							<endratio>1</endratio>
							<reverse>FALSE</reverse>
						</effect>
					</transitionitem>
					<clipitem id="clipitem-346" frameBlend="FALSE">
						<masterclipid>masterclip-145</masterclipid>
						<name>Vegard Copy 13</name>
						<enabled>TRUE</enabled>
						<duration>1080000</duration>
						<rate>
							<timebase>30</timebase>
							<ntsc>TRUE</ntsc>
						</rate>
						<start>-1</start>
						<end>-1</end>
						<in>271372</in>
						<out>271534</out>
						<alphatype>straight</alphatype>
						<pixelaspectratio>square</pixelaspectratio>
						<anamorphic>FALSE</anamorphic>
						<file id="file-145">
							<name>Internal Title</name>
							<mediaSource>Slug</mediaSource>
							<rate>
								<timebase>30</timebase>
								<ntsc>TRUE</ntsc>
							</rate>
							<timecode>
								<rate>
									<timebase>30</timebase>
									<ntsc>TRUE</ntsc>
								</rate>
								<string>00;00;00;00</string>
								<frame>0</frame>
								<displayformat>DF</displayformat>
							</timecode>
							<media>
								<video>
									<duration>18000</duration>
									<samplecharacteristics>
										<rate>
											<timebase>30</timebase>
											<ntsc>TRUE</ntsc>
										</rate>
										<width>1920</width>
										<height>1080</height>
										<anamorphic>FALSE</anamorphic>
										<pixelaspectratio>square</pixelaspectratio>
										<fielddominance>none</fielddominance>
									</samplecharacteristics>
								</video>
							</media>
						</file>
					</clipitem>
					<transitionitem>
						<start>1927</start>
						<end>1952</end>
						<alignment>end-black</alignment>
						<cutPoint>25</cutPoint>
						<rate>
							<timebase>25</timebase>
							<ntsc>FALSE</ntsc>
						</rate>
						<effect>
							<name>Cross Dissolve</name>
							<effectid>Cross Dissolve</effectid>
							<effectcategory>Dissolve</effectcategory>
							<effecttype>transition</effecttype>
							<mediatype>video</mediatype>
							<wipecode>0</wipecode>
							<wipeaccuracy>100</wipeaccuracy>
							<startratio>0</startratio>
							<endratio>1</endratio>
							<reverse>FALSE</reverse>
						</effect>
					</transitionitem>
					<transitionitem>
						<start>2248</start>
						<end>2273</end>
						<alignment>start-black</alignment>
						<cutPoint>0</cutPoint>
						<rate>
							<timebase>25</timebase>
							<ntsc>FALSE</ntsc>
						</rate>
						<effect>
							<name>Cross Dissolve</name>
							<effectid>Cross Dissolve</effectid>
							<effectcategory>Dissolve</effectcategory>
							<effecttype>transition</effecttype>
							<mediatype>video</mediatype>
							<wipecode>0</wipecode>
							<wipeaccuracy>100</wipeaccuracy>
							<startratio>0</startratio>
							<endratio>1</endratio>
							<reverse>FALSE</reverse>
						</effect>
					</transitionitem>
					<clipitem id="clipitem-347" frameBlend="FALSE">
						<masterclipid>masterclip-146</masterclipid>
						<name>Vegard Copy 14</name>
						<enabled>TRUE</enabled>
						<duration>1080000</duration>
						<rate>
							<timebase>30</timebase>
							<ntsc>TRUE</ntsc>
						</rate>
						<start>-1</start>
						<end>-1</end>
						<in>271372</in>
						<out>271534</out>
						<alphatype>straight</alphatype>
						<pixelaspectratio>square</pixelaspectratio>
						<anamorphic>FALSE</anamorphic>
						<file id="file-146">
							<name>Internal Title</name>
							<mediaSource>Slug</mediaSource>
							<rate>
								<timebase>30</timebase>
								<ntsc>TRUE</ntsc>
							</rate>
							<timecode>
								<rate>
									<timebase>30</timebase>
									<ntsc>TRUE</ntsc>
								</rate>
								<string>00;00;00;00</string>
								<frame>0</frame>
								<displayformat>DF</displayformat>
							</timecode>
							<media>
								<video>
									<duration>18000</duration>
									<samplecharacteristics>
										<rate>
											<timebase>30</timebase>
											<ntsc>TRUE</ntsc>
										</rate>
										<width>1920</width>
										<height>1080</height>
										<anamorphic>FALSE</anamorphic>
										<pixelaspectratio>square</pixelaspectratio>
										<fielddominance>none</fielddominance>
									</samplecharacteristics>
								</video>
							</media>
						</file>
					</clipitem>
					<transitionitem>
						<start>2385</start>
						<end>2410</end>
						<alignment>end-black</alignment>
						<cutPoint>25</cutPoint>
						<rate>
							<timebase>25</timebase>
							<ntsc>FALSE</ntsc>
						</rate>
						<effect>
							<name>Cross Dissolve</name>
							<effectid>Cross Dissolve</effectid>
							<effectcategory>Dissolve</effectcategory>
							<effecttype>transition</effecttype>
							<mediatype>video</mediatype>
							<wipecode>0</wipecode>
							<wipeaccuracy>100</wipeaccuracy>
							<startratio>0</startratio>
							<endratio>1</endratio>
							<reverse>FALSE</reverse>
						</effect>
					</transitionitem>
					<transitionitem>
						<start>9636</start>
						<end>9661</end>
						<alignment>start-black</alignment>
						<cutPoint>0</cutPoint>
						<rate>
							<timebase>25</timebase>
							<ntsc>FALSE</ntsc>
						</rate>
						<effect>
							<name>Cross Dissolve</name>
							<effectid>Cross Dissolve</effectid>
							<effectcategory>Dissolve</effectcategory>
							<effecttype>transition</effecttype>
							<mediatype>video</mediatype>
							<wipecode>0</wipecode>
							<wipeaccuracy>100</wipeaccuracy>
							<startratio>0</startratio>
							<endratio>1</endratio>
							<reverse>FALSE</reverse>
						</effect>
					</transitionitem>
					<clipitem id="clipitem-348" frameBlend="FALSE">
						<masterclipid>masterclip-147</masterclipid>
						<name>Titanic.png</name>
						<enabled>TRUE</enabled>
						<duration>1080000</duration>
						<rate>
							<timebase>30</timebase>
							<ntsc>TRUE</ntsc>
						</rate>
						<start>-1</start>
						<end>-1</end>
						<in>1441</in>
						<out>1548</out>
						<alphatype>none</alphatype>
						<pixelaspectratio>square</pixelaspectratio>
						<anamorphic>FALSE</anamorphic>
						<file id="file-147">
							<name>Titanic.png</name>
							<pathurl>file://localhost/Volumes/Scenen/Prosjekter/FILM/FILM%201413%20Stormannsgalskap/stills/Titanic.png</pathurl>
							<rate>
								<timebase>30</timebase>
								<ntsc>TRUE</ntsc>
							</rate>
							<timecode>
								<rate>
									<timebase>30</timebase>
									<ntsc>TRUE</ntsc>
								</rate>
								<string>00;00;00;00</string>
								<frame>0</frame>
								<displayformat>DF</displayformat>
							</timecode>
							<media>
								<video>
									<duration>18000</duration>
									<samplecharacteristics>
										<rate>
											<timebase>30</timebase>
											<ntsc>TRUE</ntsc>
										</rate>
										<width>654</width>
										<height>982</height>
										<anamorphic>FALSE</anamorphic>
										<pixelaspectratio>square</pixelaspectratio>
										<fielddominance>none</fielddominance>
									</samplecharacteristics>
								</video>
							</media>
						</file>
							<filter>
								<effect>
									<name>Basic Motion</name>
									<effectid>basic</effectid>
									<effectcategory>motion</effectcategory>
									<effecttype>motion</effecttype>
									<mediatype>video</mediatype>
									<parameter authoringApp="PremierePro">
										<parameterid>scale</parameterid>
										<name>Scale</name>
										<valuemin>0</valuemin>
										<valuemax>1000</valuemax>
										<value>109</value>
										<keyframe>
											<when>1441</when>
											<value>0</value>
										</keyframe>
										<keyframe>
											<when>1493</when>
											<value>109</value>
										</keyframe>
									</parameter>
									<parameter authoringApp="PremierePro">
										<parameterid>rotation</parameterid>
										<name>Rotation</name>
										<valuemin>-8640</valuemin>
										<valuemax>8640</valuemax>
										<value>0</value>
									</parameter>
									<parameter authoringApp="PremierePro">
										<parameterid>center</parameterid>
										<name>Center</name>
										<value>
											<horiz>0.662361</horiz>
											<vert>0.00341282</vert>
										</value>
									</parameter>
									<parameter authoringApp="PremierePro">
										<parameterid>centerOffset</parameterid>
										<name>Anchor Point</name>
										<value>
											<horiz>0</horiz>
											<vert>0</vert>
										</value>
									</parameter>
								</effect>
							</filter>
							<filter>
								<effect>
									<name>Crop</name>
									<effectid>crop</effectid>
									<effectcategory>motion</effectcategory>
									<effecttype>motion</effecttype>
									<mediatype>video</mediatype>
									<parameter authoringApp="PremierePro">
										<parameterid>left</parameterid>
										<name>left</name>
										<valuemin>0</valuemin>
										<valuemax>100</valuemax>
										<value>1</value>
									</parameter>
									<parameter authoringApp="PremierePro">
										<parameterid>right</parameterid>
										<name>right</name>
										<valuemin>0</valuemin>
										<valuemax>100</valuemax>
										<value>0.9</value>
									</parameter>
									<parameter authoringApp="PremierePro">
										<parameterid>top</parameterid>
										<name>top</name>
										<valuemin>0</valuemin>
										<valuemax>100</valuemax>
										<value>0</value>
									</parameter>
									<parameter authoringApp="PremierePro">
										<parameterid>bottom</parameterid>
										<name>bottom</name>
										<valuemin>0</valuemin>
										<valuemax>100</valuemax>
										<value>0</value>
									</parameter>
								</effect>
							</filter>
							<filter>
								<effect>
									<name>Opacity</name>
									<effectid>opacity</effectid>
									<effectcategory>motion</effectcategory>
									<effecttype>motion</effecttype>
									<mediatype>video</mediatype>
									<parameter authoringApp="PremierePro">
										<parameterid>opacity</parameterid>
										<name>opacity</name>
										<valuemin>0</valuemin>
										<valuemax>100</valuemax>
										<value>100</value>
										<keyframe>
											<when>0</when>
											<value>100</value>
										</keyframe>
									</parameter>
								</effect>
							</filter>
					</clipitem>
					<transitionitem>
						<start>9718</start>
						<end>9743</end>
						<alignment>end-black</alignment>
						<cutPoint>25</cutPoint>
						<rate>
							<timebase>25</timebase>
							<ntsc>FALSE</ntsc>
						</rate>
						<effect>
							<name>Cross Dissolve</name>
							<effectid>Cross Dissolve</effectid>
							<effectcategory>Dissolve</effectcategory>
							<effecttype>transition</effecttype>
							<mediatype>video</mediatype>
							<wipecode>0</wipecode>
							<wipeaccuracy>100</wipeaccuracy>
							<startratio>0</startratio>
							<endratio>1</endratio>
							<reverse>FALSE</reverse>
						</effect>
					</transitionitem>
					<clipitem id="clipitem-349" frameBlend="FALSE">
						<masterclipid>masterclip-148</masterclipid>
						<name>via-tarocchi-1.jpg</name>
						<enabled>TRUE</enabled>
						<duration>1080000</duration>
						<rate>
							<timebase>30</timebase>
							<ntsc>TRUE</ntsc>
						</rate>
						<start>12406</start>
						<end>12450</end>
						<in>90014</in>
						<out>90058</out>
						<alphatype>none</alphatype>
						<pixelaspectratio>square</pixelaspectratio>
						<anamorphic>FALSE</anamorphic>
						<file id="file-148">
							<name>via-tarocchi-1.jpg</name>
							<pathurl>file://localhost/Volumes/Scenen/Prosjekter/FILM/FILM%201413%20Jodorowsky%20BW/Grafikk/via-tarocchi-1.jpg</pathurl>
							<rate>
								<timebase>30</timebase>
								<ntsc>TRUE</ntsc>
							</rate>
							<timecode>
								<rate>
									<timebase>30</timebase>
									<ntsc>TRUE</ntsc>
								</rate>
								<string>00;00;00;00</string>
								<frame>0</frame>
								<displayformat>DF</displayformat>
							</timecode>
							<media>
								<video>
									<duration>18000</duration>
									<samplecharacteristics>
										<rate>
											<timebase>30</timebase>
											<ntsc>TRUE</ntsc>
										</rate>
										<width>1129</width>
										<height>1731</height>
										<anamorphic>FALSE</anamorphic>
										<pixelaspectratio>square</pixelaspectratio>
										<fielddominance>none</fielddominance>
									</samplecharacteristics>
								</video>
							</media>
						</file>
							<filter>
								<effect>
									<name>Basic Motion</name>
									<effectid>basic</effectid>
									<effectcategory>motion</effectcategory>
									<effecttype>motion</effecttype>
									<mediatype>video</mediatype>
									<parameter authoringApp="PremierePro">
										<parameterid>scale</parameterid>
										<name>Scale</name>
										<valuemin>0</valuemin>
										<valuemax>1000</valuemax>
										<value>46.7362</value>
										<keyframe>
											<when>90018</when>
											<value>42.7362</value>
										</keyframe>
										<keyframe>
											<when>90057</when>
											<value>46.7362</value>
										</keyframe>
									</parameter>
									<parameter authoringApp="PremierePro">
										<parameterid>rotation</parameterid>
										<name>Rotation</name>
										<valuemin>-8640</valuemin>
										<valuemax>8640</valuemax>
										<value>0</value>
									</parameter>
									<parameter authoringApp="PremierePro">
										<parameterid>center</parameterid>
										<name>Center</name>
										<value>
											<horiz>0.499617</horiz>
											<vert>-0.0275626</vert>
										</value>
										<keyframe>
											<when>90018</when>
											<value>
												<horiz>0.499617</horiz>
												<vert>-0.0275626</vert>
											</value>
										</keyframe>
										<keyframe>
											<when>90057</when>
											<value>
												<horiz>0.499617</horiz>
												<vert>-0.0275626</vert>
											</value>
										</keyframe>
									</parameter>
									<parameter authoringApp="PremierePro">
										<parameterid>centerOffset</parameterid>
										<name>Anchor Point</name>
										<value>
											<horiz>0</horiz>
											<vert>0</vert>
										</value>
									</parameter>
								</effect>
							</filter>
					</clipitem>
					<clipitem id="clipitem-350" frameBlend="FALSE">
						<masterclipid>masterclip-149</masterclipid>
						<name>pietrolino.jpg</name>
						<enabled>TRUE</enabled>
						<duration>1080000</duration>
						<rate>
							<timebase>30</timebase>
							<ntsc>TRUE</ntsc>
						</rate>
						<start>12484</start>
						<end>12538</end>
						<in>89995</in>
						<out>90049</out>
						<alphatype>none</alphatype>
						<pixelaspectratio>square</pixelaspectratio>
						<anamorphic>FALSE</anamorphic>
						<file id="file-149">
							<name>pietrolino.jpg</name>
							<pathurl>file://localhost/Volumes/Scenen/Prosjekter/FILM/FILM%201413%20Jodorowsky%20BW/Grafikk/pietrolino.jpg</pathurl>
							<rate>
								<timebase>30</timebase>
								<ntsc>TRUE</ntsc>
							</rate>
							<timecode>
								<rate>
									<timebase>30</timebase>
									<ntsc>TRUE</ntsc>
								</rate>
								<string>00;00;00;00</string>
								<frame>0</frame>
								<displayformat>DF</displayformat>
							</timecode>
							<media>
								<video>
									<duration>18000</duration>
									<samplecharacteristics>
										<rate>
											<timebase>30</timebase>
											<ntsc>TRUE</ntsc>
										</rate>
										<width>500</width>
										<height>669</height>
										<anamorphic>FALSE</anamorphic>
										<pixelaspectratio>square</pixelaspectratio>
										<fielddominance>none</fielddominance>
									</samplecharacteristics>
								</video>
							</media>
						</file>
							<filter>
								<effect>
									<name>Basic Motion</name>
									<effectid>basic</effectid>
									<effectcategory>motion</effectcategory>
									<effecttype>motion</effecttype>
									<mediatype>video</mediatype>
									<parameter authoringApp="PremierePro">
										<parameterid>scale</parameterid>
										<name>Scale</name>
										<valuemin>0</valuemin>
										<valuemax>1000</valuemax>
										<value>146.539</value>
										<keyframe>
											<when>89995</when>
											<value>131.539</value>
										</keyframe>
										<keyframe>
											<when>90048</when>
											<value>146.539</value>
										</keyframe>
									</parameter>
									<parameter authoringApp="PremierePro">
										<parameterid>rotation</parameterid>
										<name>Rotation</name>
										<valuemin>-8640</valuemin>
										<valuemax>8640</valuemax>
										<value>0</value>
									</parameter>
									<parameter authoringApp="PremierePro">
										<parameterid>center</parameterid>
										<name>Center</name>
										<value>
											<horiz>0.0564068</horiz>
											<vert>-0.009725</vert>
										</value>
										<keyframe>
											<when>89995</when>
											<value>
												<horiz>0.0564068</horiz>
												<vert>-0.00823027</vert>
											</value>
										</keyframe>
										<keyframe>
											<when>90048</when>
											<value>
												<horiz>0.0564068</horiz>
												<vert>-0.0366308</vert>
											</value>
										</keyframe>
									</parameter>
									<parameter authoringApp="PremierePro">
										<parameterid>centerOffset</parameterid>
										<name>Anchor Point</name>
										<value>
											<horiz>0</horiz>
											<vert>0</vert>
										</value>
									</parameter>
								</effect>
							</filter>
					</clipitem>
					<transitionitem>
						<start>13596</start>
						<end>13621</end>
						<alignment>start-black</alignment>
						<cutPoint>0</cutPoint>
						<rate>
							<timebase>25</timebase>
							<ntsc>FALSE</ntsc>
						</rate>
						<effect>
							<name>Cross Dissolve</name>
							<effectid>Cross Dissolve</effectid>
							<effectcategory>Dissolve</effectcategory>
							<effecttype>transition</effecttype>
							<mediatype>video</mediatype>
							<wipecode>0</wipecode>
							<wipeaccuracy>100</wipeaccuracy>
							<startratio>0</startratio>
							<endratio>1</endratio>
							<reverse>FALSE</reverse>
						</effect>
					</transitionitem>
					<clipitem id="clipitem-351" frameBlend="FALSE">
						<masterclipid>masterclip-107</masterclipid>
						<name>Vegard Copy 01</name>
						<enabled>TRUE</enabled>
						<duration>1080000</duration>
						<rate>
							<ntsc>TRUE</ntsc>
							<timebase>30</timebase>
						</rate>
						<start>-1</start>
						<end>-1</end>
						<in>271372</in>
						<out>271575</out>
						<alphatype>straight</alphatype>
						<file id="file-107"/>
					</clipitem>
					<transitionitem>
						<start>13774</start>
						<end>13799</end>
						<alignment>end-black</alignment>
						<cutPoint>25</cutPoint>
						<rate>
							<timebase>25</timebase>
							<ntsc>FALSE</ntsc>
						</rate>
						<effect>
							<name>Cross Dissolve</name>
							<effectid>Cross Dissolve</effectid>
							<effectcategory>Dissolve</effectcategory>
							<effecttype>transition</effecttype>
							<mediatype>video</mediatype>
							<wipecode>0</wipecode>
							<wipeaccuracy>100</wipeaccuracy>
							<startratio>0</startratio>
							<endratio>1</endratio>
							<reverse>FALSE</reverse>
						</effect>
					</transitionitem>
					<clipitem id="clipitem-352" frameBlend="FALSE">
						<masterclipid>masterclip-150</masterclipid>
						<name>Moebius_Leto_Atreides-1.jpg</name>
						<enabled>TRUE</enabled>
						<duration>1080000</duration>
						<rate>
							<timebase>30</timebase>
							<ntsc>TRUE</ntsc>
						</rate>
						<start>15036</start>
						<end>15168</end>
						<in>90017</in>
						<out>90149</out>
						<alphatype>none</alphatype>
						<pixelaspectratio>square</pixelaspectratio>
						<anamorphic>FALSE</anamorphic>
						<file id="file-150">
							<name>Moebius_Leto_Atreides-1.jpg</name>
							<pathurl>file://localhost/Volumes/Scenen/Utveksling/FILM/Bilder/Dune_bilder/Moebius_Leto_Atreides-1.jpg</pathurl>
							<rate>
								<timebase>30</timebase>
								<ntsc>TRUE</ntsc>
							</rate>
							<timecode>
								<rate>
									<timebase>30</timebase>
									<ntsc>TRUE</ntsc>
								</rate>
								<string>00;00;00;00</string>
								<frame>0</frame>
								<displayformat>DF</displayformat>
							</timecode>
							<media>
								<video>
									<duration>18000</duration>
									<samplecharacteristics>
										<rate>
											<timebase>30</timebase>
											<ntsc>TRUE</ntsc>
										</rate>
										<width>550</width>
										<height>910</height>
										<anamorphic>FALSE</anamorphic>
										<pixelaspectratio>square</pixelaspectratio>
										<fielddominance>none</fielddominance>
									</samplecharacteristics>
								</video>
							</media>
						</file>
							<filter>
								<effect>
									<name>Basic Motion</name>
									<effectid>basic</effectid>
									<effectcategory>motion</effectcategory>
									<effecttype>motion</effecttype>
									<mediatype>video</mediatype>
									<parameter authoringApp="PremierePro">
										<parameterid>scale</parameterid>
										<name>Scale</name>
										<valuemin>0</valuemin>
										<valuemax>1000</valuemax>
										<value>75</value>
									</parameter>
									<parameter authoringApp="PremierePro">
										<parameterid>rotation</parameterid>
										<name>Rotation</name>
										<valuemin>-8640</valuemin>
										<valuemax>8640</valuemax>
										<value>0</value>
									</parameter>
									<parameter authoringApp="PremierePro">
										<parameterid>center</parameterid>
										<name>Center</name>
										<value>
											<horiz>-0.494546</horiz>
											<vert>0</vert>
										</value>
									</parameter>
									<parameter authoringApp="PremierePro">
										<parameterid>centerOffset</parameterid>
										<name>Anchor Point</name>
										<value>
											<horiz>0</horiz>
											<vert>0</vert>
										</value>
									</parameter>
								</effect>
							</filter>
					</clipitem>
					<transitionitem>
						<start>16300</start>
						<end>16325</end>
						<alignment>start-black</alignment>
						<cutPoint>0</cutPoint>
						<rate>
							<timebase>25</timebase>
							<ntsc>FALSE</ntsc>
						</rate>
						<effect>
							<name>Cross Dissolve</name>
							<effectid>Cross Dissolve</effectid>
							<effectcategory>Dissolve</effectcategory>
							<effecttype>transition</effecttype>
							<mediatype>video</mediatype>
							<wipecode>0</wipecode>
							<wipeaccuracy>100</wipeaccuracy>
							<startratio>0</startratio>
							<endratio>1</endratio>
							<reverse>FALSE</reverse>
						</effect>
					</transitionitem>
					<clipitem id="clipitem-353" frameBlend="FALSE">
						<masterclipid>masterclip-151</masterclipid>
						<name>Mick Jagger frys.png</name>
						<enabled>TRUE</enabled>
						<duration>1080000</duration>
						<rate>
							<timebase>30</timebase>
							<ntsc>TRUE</ntsc>
						</rate>
						<start>-1</start>
						<end>16520</end>
						<in>90000</in>
						<out>90220</out>
						<alphatype>none</alphatype>
						<pixelaspectratio>square</pixelaspectratio>
						<anamorphic>FALSE</anamorphic>
						<file id="file-151">
							<name>Mick Jagger frys.png</name>
							<pathurl>file://localhost/Volumes/Scenen/Prosjekter/FILM/FILM%201413%20Master%20Filmbonanza%20Program%206%20H%c3%b8sten%202013/Grafikk/Mick%20Jagger%20frys.png</pathurl>
							<rate>
								<timebase>30</timebase>
								<ntsc>TRUE</ntsc>
							</rate>
							<timecode>
								<rate>
									<timebase>30</timebase>
									<ntsc>TRUE</ntsc>
								</rate>
								<string>00;00;00;00</string>
								<frame>0</frame>
								<displayformat>DF</displayformat>
							</timecode>
							<media>
								<video>
									<duration>18000</duration>
									<samplecharacteristics>
										<rate>
											<timebase>30</timebase>
											<ntsc>TRUE</ntsc>
										</rate>
										<width>375</width>
										<height>614</height>
										<anamorphic>FALSE</anamorphic>
										<pixelaspectratio>square</pixelaspectratio>
										<fielddominance>none</fielddominance>
									</samplecharacteristics>
								</video>
							</media>
						</file>
							<filter>
								<effect>
									<name>Basic Motion</name>
									<effectid>basic</effectid>
									<effectcategory>motion</effectcategory>
									<effecttype>motion</effecttype>
									<mediatype>video</mediatype>
									<parameter authoringApp="PremierePro">
										<parameterid>scale</parameterid>
										<name>Scale</name>
										<valuemin>0</valuemin>
										<valuemax>1000</valuemax>
										<value>115</value>
										<keyframe>
											<when>90000</when>
											<value>100</value>
										</keyframe>
										<keyframe>
											<when>90073</when>
											<value>115</value>
										</keyframe>
									</parameter>
									<parameter authoringApp="PremierePro">
										<parameterid>rotation</parameterid>
										<name>Rotation</name>
										<valuemin>-8640</valuemin>
										<valuemax>8640</valuemax>
										<value>0</value>
									</parameter>
									<parameter authoringApp="PremierePro">
										<parameterid>center</parameterid>
										<name>Center</name>
										<value>
											<horiz>0</horiz>
											<vert>0</vert>
										</value>
										<keyframe>
											<when>90000</when>
											<value>
												<horiz>0</horiz>
												<vert>0</vert>
											</value>
										</keyframe>
										<keyframe>
											<when>90073</when>
											<value>
												<horiz>0</horiz>
												<vert>0.0309445</vert>
											</value>
										</keyframe>
									</parameter>
									<parameter authoringApp="PremierePro">
										<parameterid>centerOffset</parameterid>
										<name>Anchor Point</name>
										<value>
											<horiz>0</horiz>
											<vert>0</vert>
										</value>
									</parameter>
								</effect>
							</filter>
					</clipitem>
					<transitionitem>
						<start>19257</start>
						<end>19282</end>
						<alignment>start-black</alignment>
						<cutPoint>0</cutPoint>
						<rate>
							<timebase>25</timebase>
							<ntsc>FALSE</ntsc>
						</rate>
						<effect>
							<name>Cross Dissolve</name>
							<effectid>Cross Dissolve</effectid>
							<effectcategory>Dissolve</effectcategory>
							<effecttype>transition</effecttype>
							<mediatype>video</mediatype>
							<wipecode>0</wipecode>
							<wipeaccuracy>100</wipeaccuracy>
							<startratio>0</startratio>
							<endratio>1</endratio>
							<reverse>FALSE</reverse>
						</effect>
					</transitionitem>
					<clipitem id="clipitem-354" frameBlend="FALSE">
						<masterclipid>masterclip-152</masterclipid>
						<name>Vegard Copy 30</name>
						<enabled>TRUE</enabled>
						<duration>1080000</duration>
						<rate>
							<timebase>30</timebase>
							<ntsc>TRUE</ntsc>
						</rate>
						<start>-1</start>
						<end>-1</end>
						<in>271372</in>
						<out>271480</out>
						<alphatype>straight</alphatype>
						<pixelaspectratio>square</pixelaspectratio>
						<anamorphic>FALSE</anamorphic>
						<file id="file-152">
							<name>Internal Title</name>
							<mediaSource>Slug</mediaSource>
							<rate>
								<timebase>30</timebase>
								<ntsc>TRUE</ntsc>
							</rate>
							<timecode>
								<rate>
									<timebase>30</timebase>
									<ntsc>TRUE</ntsc>
								</rate>
								<string>00;00;00;00</string>
								<frame>0</frame>
								<displayformat>DF</displayformat>
							</timecode>
							<media>
								<video>
									<duration>18000</duration>
									<samplecharacteristics>
										<rate>
											<timebase>30</timebase>
											<ntsc>TRUE</ntsc>
										</rate>
										<width>1920</width>
										<height>1080</height>
										<anamorphic>FALSE</anamorphic>
										<pixelaspectratio>square</pixelaspectratio>
										<fielddominance>none</fielddominance>
									</samplecharacteristics>
								</video>
							</media>
						</file>
					</clipitem>
					<transitionitem>
						<start>19340</start>
						<end>19365</end>
						<alignment>end-black</alignment>
						<cutPoint>25</cutPoint>
						<rate>
							<timebase>25</timebase>
							<ntsc>FALSE</ntsc>
						</rate>
						<effect>
							<name>Cross Dissolve</name>
							<effectid>Cross Dissolve</effectid>
							<effectcategory>Dissolve</effectcategory>
							<effecttype>transition</effecttype>
							<mediatype>video</mediatype>
							<wipecode>0</wipecode>
							<wipeaccuracy>100</wipeaccuracy>
							<startratio>0</startratio>
							<endratio>1</endratio>
							<reverse>FALSE</reverse>
						</effect>
					</transitionitem>
					<clipitem id="clipitem-355" frameBlend="FALSE">
						<masterclipid>masterclip-153</masterclipid>
						<name>Vegard Copy 35</name>
						<enabled>TRUE</enabled>
						<duration>1080000</duration>
						<rate>
							<timebase>30</timebase>
							<ntsc>TRUE</ntsc>
						</rate>
						<start>19365</start>
						<end>19431</end>
						<in>271362</in>
						<out>271428</out>
						<alphatype>straight</alphatype>
						<pixelaspectratio>square</pixelaspectratio>
						<anamorphic>FALSE</anamorphic>
						<file id="file-153">
							<name>Internal Title</name>
							<mediaSource>Slug</mediaSource>
							<rate>
								<timebase>30</timebase>
								<ntsc>TRUE</ntsc>
							</rate>
							<timecode>
								<rate>
									<timebase>30</timebase>
									<ntsc>TRUE</ntsc>
								</rate>
								<string>00;00;00;00</string>
								<frame>0</frame>
								<displayformat>DF</displayformat>
							</timecode>
							<media>
								<video>
									<duration>18000</duration>
									<samplecharacteristics>
										<rate>
											<timebase>30</timebase>
											<ntsc>TRUE</ntsc>
										</rate>
										<width>1920</width>
										<height>1080</height>
										<anamorphic>FALSE</anamorphic>
										<pixelaspectratio>square</pixelaspectratio>
										<fielddominance>none</fielddominance>
									</samplecharacteristics>
								</video>
							</media>
						</file>
					</clipitem>
					<transitionitem>
						<start>21416</start>
						<end>21425</end>
						<alignment>start-black</alignment>
						<cutPoint>0</cutPoint>
						<rate>
							<timebase>25</timebase>
							<ntsc>FALSE</ntsc>
						</rate>
						<effect>
							<name>Cross Dissolve</name>
							<effectid>Cross Dissolve</effectid>
							<effectcategory>Dissolve</effectcategory>
							<effecttype>transition</effecttype>
							<mediatype>video</mediatype>
							<wipecode>0</wipecode>
							<wipeaccuracy>100</wipeaccuracy>
							<startratio>0</startratio>
							<endratio>1</endratio>
							<reverse>FALSE</reverse>
						</effect>
					</transitionitem>
					<clipitem id="clipitem-356" frameBlend="FALSE">
						<masterclipid>masterclip-154</masterclipid>
						<name>poster13 tron.jpg</name>
						<enabled>TRUE</enabled>
						<duration>1080000</duration>
						<rate>
							<timebase>30</timebase>
							<ntsc>TRUE</ntsc>
						</rate>
						<start>-1</start>
						<end>21471</end>
						<in>90040</in>
						<out>90095</out>
						<alphatype>none</alphatype>
						<pixelaspectratio>square</pixelaspectratio>
						<anamorphic>FALSE</anamorphic>
						<file id="file-154">
							<name>poster13 tron.jpg</name>
							<pathurl>file://localhost/Volumes/Scenen/Prosjekter/FILM/FILM%201413%20Jodorowsky%20BW/Grafikk/poster13%20tron.jpg</pathurl>
							<rate>
								<timebase>30</timebase>
								<ntsc>TRUE</ntsc>
							</rate>
							<timecode>
								<rate>
									<timebase>30</timebase>
									<ntsc>TRUE</ntsc>
								</rate>
								<string>00;00;00;00</string>
								<frame>0</frame>
								<displayformat>DF</displayformat>
							</timecode>
							<media>
								<video>
									<duration>18000</duration>
									<samplecharacteristics>
										<rate>
											<timebase>30</timebase>
											<ntsc>TRUE</ntsc>
										</rate>
										<width>834</width>
										<height>1100</height>
										<anamorphic>FALSE</anamorphic>
										<pixelaspectratio>square</pixelaspectratio>
										<fielddominance>none</fielddominance>
									</samplecharacteristics>
								</video>
							</media>
						</file>
							<filter>
								<effect>
									<name>Basic Motion</name>
									<effectid>basic</effectid>
									<effectcategory>motion</effectcategory>
									<effecttype>motion</effecttype>
									<mediatype>video</mediatype>
									<parameter authoringApp="PremierePro">
										<parameterid>scale</parameterid>
										<name>Scale</name>
										<valuemin>0</valuemin>
										<valuemax>1000</valuemax>
										<value>123.469</value>
										<keyframe>
											<when>90040</when>
											<value>112.469</value>
										</keyframe>
										<keyframe>
											<when>90097</when>
											<value>123.469</value>
										</keyframe>
									</parameter>
									<parameter authoringApp="PremierePro">
										<parameterid>rotation</parameterid>
										<name>Rotation</name>
										<valuemin>-8640</valuemin>
										<valuemax>8640</valuemax>
										<value>0</value>
									</parameter>
									<parameter authoringApp="PremierePro">
										<parameterid>center</parameterid>
										<name>Center</name>
										<value>
											<horiz>0</horiz>
											<vert>0</vert>
										</value>
										<keyframe>
											<when>90040</when>
											<value>
												<horiz>0</horiz>
												<vert>0</vert>
											</value>
										</keyframe>
										<keyframe>
											<when>90097</when>
											<value>
												<horiz>0</horiz>
												<vert>0.0263636</vert>
											</value>
										</keyframe>
									</parameter>
									<parameter authoringApp="PremierePro">
										<parameterid>centerOffset</parameterid>
										<name>Anchor Point</name>
										<value>
											<horiz>0</horiz>
											<vert>0</vert>
										</value>
									</parameter>
								</effect>
							</filter>
					</clipitem>
					<transitionitem>
						<start>25098</start>
						<end>25103</end>
						<alignment>start-black</alignment>
						<cutPoint>0</cutPoint>
						<rate>
							<timebase>25</timebase>
							<ntsc>FALSE</ntsc>
						</rate>
						<effect>
							<name>Cross Dissolve</name>
							<effectid>Cross Dissolve</effectid>
							<effectcategory>Dissolve</effectcategory>
							<effecttype>transition</effecttype>
							<mediatype>video</mediatype>
							<wipecode>0</wipecode>
							<wipeaccuracy>100</wipeaccuracy>
							<startratio>0</startratio>
							<endratio>1</endratio>
							<reverse>FALSE</reverse>
						</effect>
					</transitionitem>
					<clipitem id="clipitem-357" frameBlend="FALSE">
						<masterclipid>masterclip-155</masterclipid>
						<name>P3 terning.png</name>
						<enabled>TRUE</enabled>
						<duration>1080000</duration>
						<rate>
							<timebase>30</timebase>
							<ntsc>TRUE</ntsc>
						</rate>
						<start>-1</start>
						<end>-1</end>
						<in>89994</in>
						<out>90091</out>
						<alphatype>none</alphatype>
						<pixelaspectratio>square</pixelaspectratio>
						<anamorphic>FALSE</anamorphic>
						<file id="file-155">
							<name>P3 terning.png</name>
							<pathurl>file://localhost/Volumes/Scenen/Prosjekter/FILM/FILM%201413%20Master%20Filmbonanza%20Program%206%20H%c3%b8sten%202013/Grafikk/P3%20terning.png</pathurl>
							<rate>
								<timebase>30</timebase>
								<ntsc>TRUE</ntsc>
							</rate>
							<timecode>
								<rate>
									<timebase>30</timebase>
									<ntsc>TRUE</ntsc>
								</rate>
								<string>00;00;00;00</string>
								<frame>0</frame>
								<displayformat>DF</displayformat>
							</timecode>
							<media>
								<video>
									<duration>18000</duration>
									<samplecharacteristics>
										<rate>
											<timebase>30</timebase>
											<ntsc>TRUE</ntsc>
										</rate>
										<width>235</width>
										<height>130</height>
										<anamorphic>FALSE</anamorphic>
										<pixelaspectratio>square</pixelaspectratio>
										<fielddominance>none</fielddominance>
									</samplecharacteristics>
								</video>
							</media>
						</file>
							<filter>
								<effect>
									<name>Basic Motion</name>
									<effectid>basic</effectid>
									<effectcategory>motion</effectcategory>
									<effecttype>motion</effecttype>
									<mediatype>video</mediatype>
									<parameter authoringApp="PremierePro">
										<parameterid>scale</parameterid>
										<name>Scale</name>
										<valuemin>0</valuemin>
										<valuemax>1000</valuemax>
										<value>207</value>
									</parameter>
									<parameter authoringApp="PremierePro">
										<parameterid>rotation</parameterid>
										<name>Rotation</name>
										<valuemin>-8640</valuemin>
										<valuemax>8640</valuemax>
										<value>0</value>
									</parameter>
									<parameter authoringApp="PremierePro">
										<parameterid>center</parameterid>
										<name>Center</name>
										<value>
											<horiz>1.3589</horiz>
											<vert>-2.08453</vert>
										</value>
									</parameter>
									<parameter authoringApp="PremierePro">
										<parameterid>centerOffset</parameterid>
										<name>Anchor Point</name>
										<value>
											<horiz>0</horiz>
											<vert>0</vert>
										</value>
									</parameter>
								</effect>
							</filter>
							<filter>
								<effect>
									<name>Gaussian Blur</name>
									<effectid>Gaussian Blur</effectid>
									<effectcategory>Blur</effectcategory>
									<effecttype>motion</effecttype>
									<mediatype>video</mediatype>
									<parameter authoringApp="PremierePro">
										<parameterid>radius</parameterid>
										<name>Radius</name>
										<valuemin>0</valuemin>
										<valuemax>100</valuemax>
										<value>0</value>
									</parameter>
								</effect>
							</filter>
					</clipitem>
					<transitionitem>
						<start>25190</start>
						<end>25195</end>
						<alignment>end-black</alignment>
						<cutPoint>5</cutPoint>
						<rate>
							<timebase>25</timebase>
							<ntsc>FALSE</ntsc>
						</rate>
						<effect>
							<name>Cross Dissolve</name>
							<effectid>Cross Dissolve</effectid>
							<effectcategory>Dissolve</effectcategory>
							<effecttype>transition</effecttype>
							<mediatype>video</mediatype>
							<wipecode>0</wipecode>
							<wipeaccuracy>100</wipeaccuracy>
							<startratio>0</startratio>
							<endratio>1</endratio>
							<reverse>FALSE</reverse>
						</effect>
					</transitionitem>
					<clipitem id="clipitem-358" frameBlend="FALSE">
						<masterclipid>masterclip-122</masterclipid>
						<name>BT 1000.png</name>
						<enabled>FALSE</enabled>
						<duration>1080000</duration>
						<rate>
							<ntsc>TRUE</ntsc>
							<timebase>30</timebase>
						</rate>
						<start>25198</start>
						<end>25236</end>
						<in>90075</in>
						<out>90113</out>
						<alphatype>straight</alphatype>
						<file id="file-122"/>
							<filter>
								<effect>
									<name>Basic Motion</name>
									<effectid>basic</effectid>
									<effectcategory>motion</effectcategory>
									<effecttype>motion</effecttype>
									<mediatype>video</mediatype>
									<parameter authoringApp="PremierePro">
										<parameterid>scale</parameterid>
										<name>Scale</name>
										<valuemin>0</valuemin>
										<valuemax>1000</valuemax>
										<value>488.993</value>
									</parameter>
									<parameter authoringApp="PremierePro">
										<parameterid>rotation</parameterid>
										<name>Rotation</name>
										<valuemin>-8640</valuemin>
										<valuemax>8640</valuemax>
										<value>0</value>
									</parameter>
									<parameter authoringApp="PremierePro">
										<parameterid>center</parameterid>
										<name>Center</name>
										<value>
											<horiz>0.828393</horiz>
											<vert>-1.61361</vert>
										</value>
									</parameter>
									<parameter authoringApp="PremierePro">
										<parameterid>centerOffset</parameterid>
										<name>Anchor Point</name>
										<value>
											<horiz>0</horiz>
											<vert>0</vert>
										</value>
									</parameter>
								</effect>
							</filter>
							<filter>
								<effect>
									<name>Crop</name>
									<effectid>crop</effectid>
									<effectcategory>motion</effectcategory>
									<effecttype>motion</effecttype>
									<mediatype>video</mediatype>
									<parameter authoringApp="PremierePro">
										<parameterid>left</parameterid>
										<name>left</name>
										<valuemin>0</valuemin>
										<valuemax>100</valuemax>
										<value>45</value>
									</parameter>
									<parameter authoringApp="PremierePro">
										<parameterid>right</parameterid>
										<name>right</name>
										<valuemin>0</valuemin>
										<valuemax>100</valuemax>
										<value>45</value>
									</parameter>
									<parameter authoringApp="PremierePro">
										<parameterid>top</parameterid>
										<name>top</name>
										<valuemin>0</valuemin>
										<valuemax>100</valuemax>
										<value>41</value>
									</parameter>
									<parameter authoringApp="PremierePro">
										<parameterid>bottom</parameterid>
										<name>bottom</name>
										<valuemin>0</valuemin>
										<valuemax>100</valuemax>
										<value>16</value>
									</parameter>
								</effect>
							</filter>
					</clipitem>
					<transitionitem>
						<start>35790</start>
						<end>35815</end>
						<alignment>start-black</alignment>
						<cutPoint>0</cutPoint>
						<rate>
							<timebase>25</timebase>
							<ntsc>FALSE</ntsc>
						</rate>
						<effect>
							<name>Cross Dissolve</name>
							<effectid>Cross Dissolve</effectid>
							<effectcategory>Dissolve</effectcategory>
							<effecttype>transition</effecttype>
							<mediatype>video</mediatype>
							<wipecode>0</wipecode>
							<wipeaccuracy>100</wipeaccuracy>
							<startratio>0</startratio>
							<endratio>1</endratio>
							<reverse>FALSE</reverse>
						</effect>
					</transitionitem>
					<clipitem id="clipitem-359" frameBlend="FALSE">
						<masterclipid>masterclip-156</masterclipid>
						<name>Supermal Høst 2013 Copy 18</name>
						<enabled>TRUE</enabled>
						<duration>1080000</duration>
						<rate>
							<timebase>30</timebase>
							<ntsc>TRUE</ntsc>
						</rate>
						<start>-1</start>
						<end>-1</end>
						<in>91404</in>
						<out>91545</out>
						<alphatype>straight</alphatype>
						<pixelaspectratio>square</pixelaspectratio>
						<anamorphic>FALSE</anamorphic>
						<file id="file-156">
							<name>Internal Title</name>
							<mediaSource>Slug</mediaSource>
							<rate>
								<timebase>30</timebase>
								<ntsc>TRUE</ntsc>
							</rate>
							<timecode>
								<rate>
									<timebase>30</timebase>
									<ntsc>TRUE</ntsc>
								</rate>
								<string>00;00;00;00</string>
								<frame>0</frame>
								<displayformat>DF</displayformat>
							</timecode>
							<media>
								<video>
									<duration>18000</duration>
									<samplecharacteristics>
										<rate>
											<timebase>30</timebase>
											<ntsc>TRUE</ntsc>
										</rate>
										<width>1920</width>
										<height>1080</height>
										<anamorphic>FALSE</anamorphic>
										<pixelaspectratio>square</pixelaspectratio>
										<fielddominance>none</fielddominance>
									</samplecharacteristics>
								</video>
							</media>
						</file>
					</clipitem>
					<transitionitem>
						<start>35906</start>
						<end>35931</end>
						<alignment>end-black</alignment>
						<cutPoint>25</cutPoint>
						<rate>
							<timebase>25</timebase>
							<ntsc>FALSE</ntsc>
						</rate>
						<effect>
							<name>Cross Dissolve</name>
							<effectid>Cross Dissolve</effectid>
							<effectcategory>Dissolve</effectcategory>
							<effecttype>transition</effecttype>
							<mediatype>video</mediatype>
							<wipecode>0</wipecode>
							<wipeaccuracy>100</wipeaccuracy>
							<startratio>0</startratio>
							<endratio>1</endratio>
							<reverse>FALSE</reverse>
						</effect>
					</transitionitem>
					<enabled>TRUE</enabled>
					<locked>FALSE</locked>
				</track>
				<track TL.SQTrackShy="0" TL.SQTrackExpandedHeight="25" TL.SQTrackExpanded="1" MZ.TrackTargeted="1">
					<transitionitem>
						<start>3173</start>
						<end>3198</end>
						<alignment>start-black</alignment>
						<cutPoint>0</cutPoint>
						<rate>
							<timebase>25</timebase>
							<ntsc>FALSE</ntsc>
						</rate>
						<effect>
							<name>Cross Dissolve</name>
							<effectid>Cross Dissolve</effectid>
							<effectcategory>Dissolve</effectcategory>
							<effecttype>transition</effecttype>
							<mediatype>video</mediatype>
							<wipecode>0</wipecode>
							<wipeaccuracy>100</wipeaccuracy>
							<startratio>0</startratio>
							<endratio>1</endratio>
							<reverse>FALSE</reverse>
						</effect>
					</transitionitem>
					<clipitem id="clipitem-360" frameBlend="FALSE">
						<masterclipid>masterclip-157</masterclipid>
						<name>Vegard Copy 15</name>
						<enabled>TRUE</enabled>
						<duration>1080000</duration>
						<rate>
							<timebase>30</timebase>
							<ntsc>TRUE</ntsc>
						</rate>
						<start>-1</start>
						<end>-1</end>
						<in>271372</in>
						<out>271524</out>
						<alphatype>straight</alphatype>
						<pixelaspectratio>square</pixelaspectratio>
						<anamorphic>FALSE</anamorphic>
						<file id="file-157">
							<name>Internal Title</name>
							<mediaSource>Slug</mediaSource>
							<rate>
								<timebase>30</timebase>
								<ntsc>TRUE</ntsc>
							</rate>
							<timecode>
								<rate>
									<timebase>30</timebase>
									<ntsc>TRUE</ntsc>
								</rate>
								<string>00;00;00;00</string>
								<frame>0</frame>
								<displayformat>DF</displayformat>
							</timecode>
							<media>
								<video>
									<duration>18000</duration>
									<samplecharacteristics>
										<rate>
											<timebase>30</timebase>
											<ntsc>TRUE</ntsc>
										</rate>
										<width>1920</width>
										<height>1080</height>
										<anamorphic>FALSE</anamorphic>
										<pixelaspectratio>square</pixelaspectratio>
										<fielddominance>none</fielddominance>
									</samplecharacteristics>
								</video>
							</media>
						</file>
					</clipitem>
					<transitionitem>
						<start>3300</start>
						<end>3325</end>
						<alignment>end-black</alignment>
						<cutPoint>25</cutPoint>
						<rate>
							<timebase>25</timebase>
							<ntsc>FALSE</ntsc>
						</rate>
						<effect>
							<name>Cross Dissolve</name>
							<effectid>Cross Dissolve</effectid>
							<effectcategory>Dissolve</effectcategory>
							<effecttype>transition</effecttype>
							<mediatype>video</mediatype>
							<wipecode>0</wipecode>
							<wipeaccuracy>100</wipeaccuracy>
							<startratio>0</startratio>
							<endratio>1</endratio>
							<reverse>FALSE</reverse>
						</effect>
					</transitionitem>
					<transitionitem>
						<start>3948</start>
						<end>3973</end>
						<alignment>start-black</alignment>
						<cutPoint>0</cutPoint>
						<rate>
							<timebase>25</timebase>
							<ntsc>FALSE</ntsc>
						</rate>
						<effect>
							<name>Cross Dissolve</name>
							<effectid>Cross Dissolve</effectid>
							<effectcategory>Dissolve</effectcategory>
							<effecttype>transition</effecttype>
							<mediatype>video</mediatype>
							<wipecode>0</wipecode>
							<wipeaccuracy>100</wipeaccuracy>
							<startratio>0</startratio>
							<endratio>1</endratio>
							<reverse>FALSE</reverse>
						</effect>
					</transitionitem>
					<clipitem id="clipitem-361" frameBlend="FALSE">
						<masterclipid>masterclip-158</masterclipid>
						<name>Vegard Copy 16</name>
						<enabled>TRUE</enabled>
						<duration>1080000</duration>
						<rate>
							<timebase>30</timebase>
							<ntsc>TRUE</ntsc>
						</rate>
						<start>-1</start>
						<end>-1</end>
						<in>271372</in>
						<out>271534</out>
						<alphatype>straight</alphatype>
						<pixelaspectratio>square</pixelaspectratio>
						<anamorphic>FALSE</anamorphic>
						<file id="file-158">
							<name>Internal Title</name>
							<mediaSource>Slug</mediaSource>
							<rate>
								<timebase>30</timebase>
								<ntsc>TRUE</ntsc>
							</rate>
							<timecode>
								<rate>
									<timebase>30</timebase>
									<ntsc>TRUE</ntsc>
								</rate>
								<string>00;00;00;00</string>
								<frame>0</frame>
								<displayformat>DF</displayformat>
							</timecode>
							<media>
								<video>
									<duration>18000</duration>
									<samplecharacteristics>
										<rate>
											<timebase>30</timebase>
											<ntsc>TRUE</ntsc>
										</rate>
										<width>1920</width>
										<height>1080</height>
										<anamorphic>FALSE</anamorphic>
										<pixelaspectratio>square</pixelaspectratio>
										<fielddominance>none</fielddominance>
									</samplecharacteristics>
								</video>
							</media>
						</file>
					</clipitem>
					<transitionitem>
						<start>4085</start>
						<end>4110</end>
						<alignment>end-black</alignment>
						<cutPoint>25</cutPoint>
						<rate>
							<timebase>25</timebase>
							<ntsc>FALSE</ntsc>
						</rate>
						<effect>
							<name>Cross Dissolve</name>
							<effectid>Cross Dissolve</effectid>
							<effectcategory>Dissolve</effectcategory>
							<effecttype>transition</effecttype>
							<mediatype>video</mediatype>
							<wipecode>0</wipecode>
							<wipeaccuracy>100</wipeaccuracy>
							<startratio>0</startratio>
							<endratio>1</endratio>
							<reverse>FALSE</reverse>
						</effect>
					</transitionitem>
					<transitionitem>
						<start>4596</start>
						<end>4621</end>
						<alignment>start-black</alignment>
						<cutPoint>0</cutPoint>
						<rate>
							<timebase>25</timebase>
							<ntsc>FALSE</ntsc>
						</rate>
						<effect>
							<name>Cross Dissolve</name>
							<effectid>Cross Dissolve</effectid>
							<effectcategory>Dissolve</effectcategory>
							<effecttype>transition</effecttype>
							<mediatype>video</mediatype>
							<wipecode>0</wipecode>
							<wipeaccuracy>100</wipeaccuracy>
							<startratio>0</startratio>
							<endratio>1</endratio>
							<reverse>FALSE</reverse>
						</effect>
					</transitionitem>
					<clipitem id="clipitem-362" frameBlend="FALSE">
						<masterclipid>masterclip-159</masterclipid>
						<name>Vegard Copy 17</name>
						<enabled>TRUE</enabled>
						<duration>1080000</duration>
						<rate>
							<timebase>30</timebase>
							<ntsc>TRUE</ntsc>
						</rate>
						<start>-1</start>
						<end>-1</end>
						<in>271395</in>
						<out>271534</out>
						<alphatype>straight</alphatype>
						<pixelaspectratio>square</pixelaspectratio>
						<anamorphic>FALSE</anamorphic>
						<file id="file-159">
							<name>Internal Title</name>
							<mediaSource>Slug</mediaSource>
							<rate>
								<timebase>30</timebase>
								<ntsc>TRUE</ntsc>
							</rate>
							<timecode>
								<rate>
									<timebase>30</timebase>
									<ntsc>TRUE</ntsc>
								</rate>
								<string>00;00;00;00</string>
								<frame>0</frame>
								<displayformat>DF</displayformat>
							</timecode>
							<media>
								<video>
									<duration>18000</duration>
									<samplecharacteristics>
										<rate>
											<timebase>30</timebase>
											<ntsc>TRUE</ntsc>
										</rate>
										<width>1920</width>
										<height>1080</height>
										<anamorphic>FALSE</anamorphic>
										<pixelaspectratio>square</pixelaspectratio>
										<fielddominance>none</fielddominance>
									</samplecharacteristics>
								</video>
							</media>
						</file>
					</clipitem>
					<transitionitem>
						<start>4710</start>
						<end>4735</end>
						<alignment>end-black</alignment>
						<cutPoint>25</cutPoint>
						<rate>
							<timebase>25</timebase>
							<ntsc>FALSE</ntsc>
						</rate>
						<effect>
							<name>Cross Dissolve</name>
							<effectid>Cross Dissolve</effectid>
							<effectcategory>Dissolve</effectcategory>
							<effecttype>transition</effecttype>
							<mediatype>video</mediatype>
							<wipecode>0</wipecode>
							<wipeaccuracy>100</wipeaccuracy>
							<startratio>0</startratio>
							<endratio>1</endratio>
							<reverse>FALSE</reverse>
						</effect>
					</transitionitem>
					<transitionitem>
						<start>5391</start>
						<end>5416</end>
						<alignment>start-black</alignment>
						<cutPoint>0</cutPoint>
						<rate>
							<timebase>25</timebase>
							<ntsc>FALSE</ntsc>
						</rate>
						<effect>
							<name>Cross Dissolve</name>
							<effectid>Cross Dissolve</effectid>
							<effectcategory>Dissolve</effectcategory>
							<effecttype>transition</effecttype>
							<mediatype>video</mediatype>
							<wipecode>0</wipecode>
							<wipeaccuracy>100</wipeaccuracy>
							<startratio>0</startratio>
							<endratio>1</endratio>
							<reverse>FALSE</reverse>
						</effect>
					</transitionitem>
					<clipitem id="clipitem-363" frameBlend="FALSE">
						<masterclipid>masterclip-160</masterclipid>
						<name>Vegard Copy 19</name>
						<enabled>TRUE</enabled>
						<duration>1080000</duration>
						<rate>
							<timebase>30</timebase>
							<ntsc>TRUE</ntsc>
						</rate>
						<start>-1</start>
						<end>-1</end>
						<in>271403</in>
						<out>271523</out>
						<alphatype>straight</alphatype>
						<pixelaspectratio>square</pixelaspectratio>
						<anamorphic>FALSE</anamorphic>
						<file id="file-160">
							<name>Internal Title</name>
							<mediaSource>Slug</mediaSource>
							<rate>
								<timebase>30</timebase>
								<ntsc>TRUE</ntsc>
							</rate>
							<timecode>
								<rate>
									<timebase>30</timebase>
									<ntsc>TRUE</ntsc>
								</rate>
								<string>00;00;00;00</string>
								<frame>0</frame>
								<displayformat>DF</displayformat>
							</timecode>
							<media>
								<video>
									<duration>18000</duration>
									<samplecharacteristics>
										<rate>
											<timebase>30</timebase>
											<ntsc>TRUE</ntsc>
										</rate>
										<width>1920</width>
										<height>1080</height>
										<anamorphic>FALSE</anamorphic>
										<pixelaspectratio>square</pixelaspectratio>
										<fielddominance>none</fielddominance>
									</samplecharacteristics>
								</video>
							</media>
						</file>
					</clipitem>
					<transitionitem>
						<start>5486</start>
						<end>5511</end>
						<alignment>end-black</alignment>
						<cutPoint>25</cutPoint>
						<rate>
							<timebase>25</timebase>
							<ntsc>FALSE</ntsc>
						</rate>
						<effect>
							<name>Cross Dissolve</name>
							<effectid>Cross Dissolve</effectid>
							<effectcategory>Dissolve</effectcategory>
							<effecttype>transition</effecttype>
							<mediatype>video</mediatype>
							<wipecode>0</wipecode>
							<wipeaccuracy>100</wipeaccuracy>
							<startratio>0</startratio>
							<endratio>1</endratio>
							<reverse>FALSE</reverse>
						</effect>
					</transitionitem>
					<transitionitem>
						<start>5770</start>
						<end>5795</end>
						<alignment>start-black</alignment>
						<cutPoint>0</cutPoint>
						<rate>
							<timebase>25</timebase>
							<ntsc>FALSE</ntsc>
						</rate>
						<effect>
							<name>Cross Dissolve</name>
							<effectid>Cross Dissolve</effectid>
							<effectcategory>Dissolve</effectcategory>
							<effecttype>transition</effecttype>
							<mediatype>video</mediatype>
							<wipecode>0</wipecode>
							<wipeaccuracy>100</wipeaccuracy>
							<startratio>0</startratio>
							<endratio>1</endratio>
							<reverse>FALSE</reverse>
						</effect>
					</transitionitem>
					<clipitem id="clipitem-364" frameBlend="FALSE">
						<masterclipid>masterclip-161</masterclipid>
						<name>Vegard Copy 18</name>
						<enabled>TRUE</enabled>
						<duration>1080000</duration>
						<rate>
							<timebase>30</timebase>
							<ntsc>TRUE</ntsc>
						</rate>
						<start>-1</start>
						<end>-1</end>
						<in>271372</in>
						<out>271534</out>
						<alphatype>straight</alphatype>
						<pixelaspectratio>square</pixelaspectratio>
						<anamorphic>FALSE</anamorphic>
						<file id="file-161">
							<name>Internal Title</name>
							<mediaSource>Slug</mediaSource>
							<rate>
								<timebase>30</timebase>
								<ntsc>TRUE</ntsc>
							</rate>
							<timecode>
								<rate>
									<timebase>30</timebase>
									<ntsc>TRUE</ntsc>
								</rate>
								<string>00;00;00;00</string>
								<frame>0</frame>
								<displayformat>DF</displayformat>
							</timecode>
							<media>
								<video>
									<duration>18000</duration>
									<samplecharacteristics>
										<rate>
											<timebase>30</timebase>
											<ntsc>TRUE</ntsc>
										</rate>
										<width>1920</width>
										<height>1080</height>
										<anamorphic>FALSE</anamorphic>
										<pixelaspectratio>square</pixelaspectratio>
										<fielddominance>none</fielddominance>
									</samplecharacteristics>
								</video>
							</media>
						</file>
					</clipitem>
					<transitionitem>
						<start>5907</start>
						<end>5932</end>
						<alignment>end-black</alignment>
						<cutPoint>25</cutPoint>
						<rate>
							<timebase>25</timebase>
							<ntsc>FALSE</ntsc>
						</rate>
						<effect>
							<name>Cross Dissolve</name>
							<effectid>Cross Dissolve</effectid>
							<effectcategory>Dissolve</effectcategory>
							<effecttype>transition</effecttype>
							<mediatype>video</mediatype>
							<wipecode>0</wipecode>
							<wipeaccuracy>100</wipeaccuracy>
							<startratio>0</startratio>
							<endratio>1</endratio>
							<reverse>FALSE</reverse>
						</effect>
					</transitionitem>
					<transitionitem>
						<start>6695</start>
						<end>6720</end>
						<alignment>start-black</alignment>
						<cutPoint>0</cutPoint>
						<rate>
							<timebase>25</timebase>
							<ntsc>FALSE</ntsc>
						</rate>
						<effect>
							<name>Cross Dissolve</name>
							<effectid>Cross Dissolve</effectid>
							<effectcategory>Dissolve</effectcategory>
							<effecttype>transition</effecttype>
							<mediatype>video</mediatype>
							<wipecode>0</wipecode>
							<wipeaccuracy>100</wipeaccuracy>
							<startratio>0</startratio>
							<endratio>1</endratio>
							<reverse>FALSE</reverse>
						</effect>
					</transitionitem>
					<clipitem id="clipitem-365" frameBlend="FALSE">
						<masterclipid>masterclip-162</masterclipid>
						<name>Vegard Copy 20</name>
						<enabled>TRUE</enabled>
						<duration>1080000</duration>
						<rate>
							<timebase>30</timebase>
							<ntsc>TRUE</ntsc>
						</rate>
						<start>-1</start>
						<end>-1</end>
						<in>271372</in>
						<out>271503</out>
						<alphatype>straight</alphatype>
						<pixelaspectratio>square</pixelaspectratio>
						<anamorphic>FALSE</anamorphic>
						<file id="file-162">
							<name>Internal Title</name>
							<mediaSource>Slug</mediaSource>
							<rate>
								<timebase>30</timebase>
								<ntsc>TRUE</ntsc>
							</rate>
							<timecode>
								<rate>
									<timebase>30</timebase>
									<ntsc>TRUE</ntsc>
								</rate>
								<string>00;00;00;00</string>
								<frame>0</frame>
								<displayformat>DF</displayformat>
							</timecode>
							<media>
								<video>
									<duration>18000</duration>
									<samplecharacteristics>
										<rate>
											<timebase>30</timebase>
											<ntsc>TRUE</ntsc>
										</rate>
										<width>1920</width>
										<height>1080</height>
										<anamorphic>FALSE</anamorphic>
										<pixelaspectratio>square</pixelaspectratio>
										<fielddominance>none</fielddominance>
									</samplecharacteristics>
								</video>
							</media>
						</file>
					</clipitem>
					<transitionitem>
						<start>6801</start>
						<end>6826</end>
						<alignment>end-black</alignment>
						<cutPoint>25</cutPoint>
						<rate>
							<timebase>25</timebase>
							<ntsc>FALSE</ntsc>
						</rate>
						<effect>
							<name>Cross Dissolve</name>
							<effectid>Cross Dissolve</effectid>
							<effectcategory>Dissolve</effectcategory>
							<effecttype>transition</effecttype>
							<mediatype>video</mediatype>
							<wipecode>0</wipecode>
							<wipeaccuracy>100</wipeaccuracy>
							<startratio>0</startratio>
							<endratio>1</endratio>
							<reverse>FALSE</reverse>
						</effect>
					</transitionitem>
					<transitionitem>
						<start>7638</start>
						<end>7663</end>
						<alignment>start-black</alignment>
						<cutPoint>0</cutPoint>
						<rate>
							<timebase>25</timebase>
							<ntsc>FALSE</ntsc>
						</rate>
						<effect>
							<name>Cross Dissolve</name>
							<effectid>Cross Dissolve</effectid>
							<effectcategory>Dissolve</effectcategory>
							<effecttype>transition</effecttype>
							<mediatype>video</mediatype>
							<wipecode>0</wipecode>
							<wipeaccuracy>100</wipeaccuracy>
							<startratio>0</startratio>
							<endratio>1</endratio>
							<reverse>FALSE</reverse>
						</effect>
					</transitionitem>
					<clipitem id="clipitem-366" frameBlend="FALSE">
						<masterclipid>masterclip-163</masterclipid>
						<name>Vegard Copy 21</name>
						<enabled>TRUE</enabled>
						<duration>1080000</duration>
						<rate>
							<timebase>30</timebase>
							<ntsc>TRUE</ntsc>
						</rate>
						<start>-1</start>
						<end>-1</end>
						<in>271372</in>
						<out>271503</out>
						<alphatype>straight</alphatype>
						<pixelaspectratio>square</pixelaspectratio>
						<anamorphic>FALSE</anamorphic>
						<file id="file-163">
							<name>Internal Title</name>
							<mediaSource>Slug</mediaSource>
							<rate>
								<timebase>30</timebase>
								<ntsc>TRUE</ntsc>
							</rate>
							<timecode>
								<rate>
									<timebase>30</timebase>
									<ntsc>TRUE</ntsc>
								</rate>
								<string>00;00;00;00</string>
								<frame>0</frame>
								<displayformat>DF</displayformat>
							</timecode>
							<media>
								<video>
									<duration>18000</duration>
									<samplecharacteristics>
										<rate>
											<timebase>30</timebase>
											<ntsc>TRUE</ntsc>
										</rate>
										<width>1920</width>
										<height>1080</height>
										<anamorphic>FALSE</anamorphic>
										<pixelaspectratio>square</pixelaspectratio>
										<fielddominance>none</fielddominance>
									</samplecharacteristics>
								</video>
							</media>
						</file>
					</clipitem>
					<transitionitem>
						<start>7744</start>
						<end>7769</end>
						<alignment>end-black</alignment>
						<cutPoint>25</cutPoint>
						<rate>
							<timebase>25</timebase>
							<ntsc>FALSE</ntsc>
						</rate>
						<effect>
							<name>Cross Dissolve</name>
							<effectid>Cross Dissolve</effectid>
							<effectcategory>Dissolve</effectcategory>
							<effecttype>transition</effecttype>
							<mediatype>video</mediatype>
							<wipecode>0</wipecode>
							<wipeaccuracy>100</wipeaccuracy>
							<startratio>0</startratio>
							<endratio>1</endratio>
							<reverse>FALSE</reverse>
						</effect>
					</transitionitem>
					<transitionitem>
						<start>7910</start>
						<end>7935</end>
						<alignment>start-black</alignment>
						<cutPoint>0</cutPoint>
						<rate>
							<timebase>25</timebase>
							<ntsc>FALSE</ntsc>
						</rate>
						<effect>
							<name>Cross Dissolve</name>
							<effectid>Cross Dissolve</effectid>
							<effectcategory>Dissolve</effectcategory>
							<effecttype>transition</effecttype>
							<mediatype>video</mediatype>
							<wipecode>0</wipecode>
							<wipeaccuracy>100</wipeaccuracy>
							<startratio>0</startratio>
							<endratio>1</endratio>
							<reverse>FALSE</reverse>
						</effect>
					</transitionitem>
					<clipitem id="clipitem-367" frameBlend="FALSE">
						<masterclipid>masterclip-164</masterclipid>
						<name>Vegard Copy 40</name>
						<enabled>TRUE</enabled>
						<duration>1080000</duration>
						<rate>
							<timebase>30</timebase>
							<ntsc>TRUE</ntsc>
						</rate>
						<start>-1</start>
						<end>-1</end>
						<in>271372</in>
						<out>271503</out>
						<alphatype>straight</alphatype>
						<pixelaspectratio>square</pixelaspectratio>
						<anamorphic>FALSE</anamorphic>
						<file id="file-164">
							<name>Internal Title</name>
							<mediaSource>Slug</mediaSource>
							<rate>
								<timebase>30</timebase>
								<ntsc>TRUE</ntsc>
							</rate>
							<timecode>
								<rate>
									<timebase>30</timebase>
									<ntsc>TRUE</ntsc>
								</rate>
								<string>00;00;00;00</string>
								<frame>0</frame>
								<displayformat>DF</displayformat>
							</timecode>
							<media>
								<video>
									<duration>18000</duration>
									<samplecharacteristics>
										<rate>
											<timebase>30</timebase>
											<ntsc>TRUE</ntsc>
										</rate>
										<width>1920</width>
										<height>1080</height>
										<anamorphic>FALSE</anamorphic>
										<pixelaspectratio>square</pixelaspectratio>
										<fielddominance>none</fielddominance>
									</samplecharacteristics>
								</video>
							</media>
						</file>
					</clipitem>
					<transitionitem>
						<start>8016</start>
						<end>8041</end>
						<alignment>end-black</alignment>
						<cutPoint>25</cutPoint>
						<rate>
							<timebase>25</timebase>
							<ntsc>FALSE</ntsc>
						</rate>
						<effect>
							<name>Cross Dissolve</name>
							<effectid>Cross Dissolve</effectid>
							<effectcategory>Dissolve</effectcategory>
							<effecttype>transition</effecttype>
							<mediatype>video</mediatype>
							<wipecode>0</wipecode>
							<wipeaccuracy>100</wipeaccuracy>
							<startratio>0</startratio>
							<endratio>1</endratio>
							<reverse>FALSE</reverse>
						</effect>
					</transitionitem>
					<transitionitem>
						<start>8646</start>
						<end>8671</end>
						<alignment>start-black</alignment>
						<cutPoint>0</cutPoint>
						<rate>
							<timebase>25</timebase>
							<ntsc>FALSE</ntsc>
						</rate>
						<effect>
							<name>Cross Dissolve</name>
							<effectid>Cross Dissolve</effectid>
							<effectcategory>Dissolve</effectcategory>
							<effecttype>transition</effecttype>
							<mediatype>video</mediatype>
							<wipecode>0</wipecode>
							<wipeaccuracy>100</wipeaccuracy>
							<startratio>0</startratio>
							<endratio>1</endratio>
							<reverse>FALSE</reverse>
						</effect>
					</transitionitem>
					<clipitem id="clipitem-368" frameBlend="FALSE">
						<masterclipid>masterclip-165</masterclipid>
						<name>Vegard Copy 22</name>
						<enabled>TRUE</enabled>
						<duration>1080000</duration>
						<rate>
							<timebase>30</timebase>
							<ntsc>TRUE</ntsc>
						</rate>
						<start>-1</start>
						<end>-1</end>
						<in>271372</in>
						<out>271503</out>
						<alphatype>straight</alphatype>
						<pixelaspectratio>square</pixelaspectratio>
						<anamorphic>FALSE</anamorphic>
						<file id="file-165">
							<name>Internal Title</name>
							<mediaSource>Slug</mediaSource>
							<rate>
								<timebase>30</timebase>
								<ntsc>TRUE</ntsc>
							</rate>
							<timecode>
								<rate>
									<timebase>30</timebase>
									<ntsc>TRUE</ntsc>
								</rate>
								<string>00;00;00;00</string>
								<frame>0</frame>
								<displayformat>DF</displayformat>
							</timecode>
							<media>
								<video>
									<duration>18000</duration>
									<samplecharacteristics>
										<rate>
											<timebase>30</timebase>
											<ntsc>TRUE</ntsc>
										</rate>
										<width>1920</width>
										<height>1080</height>
										<anamorphic>FALSE</anamorphic>
										<pixelaspectratio>square</pixelaspectratio>
										<fielddominance>none</fielddominance>
									</samplecharacteristics>
								</video>
							</media>
						</file>
					</clipitem>
					<transitionitem>
						<start>8752</start>
						<end>8777</end>
						<alignment>end-black</alignment>
						<cutPoint>25</cutPoint>
						<rate>
							<timebase>25</timebase>
							<ntsc>FALSE</ntsc>
						</rate>
						<effect>
							<name>Cross Dissolve</name>
							<effectid>Cross Dissolve</effectid>
							<effectcategory>Dissolve</effectcategory>
							<effecttype>transition</effecttype>
							<mediatype>video</mediatype>
							<wipecode>0</wipecode>
							<wipeaccuracy>100</wipeaccuracy>
							<startratio>0</startratio>
							<endratio>1</endratio>
							<reverse>FALSE</reverse>
						</effect>
					</transitionitem>
					<transitionitem>
						<start>9169</start>
						<end>9194</end>
						<alignment>start-black</alignment>
						<cutPoint>0</cutPoint>
						<rate>
							<timebase>25</timebase>
							<ntsc>FALSE</ntsc>
						</rate>
						<effect>
							<name>Cross Dissolve</name>
							<effectid>Cross Dissolve</effectid>
							<effectcategory>Dissolve</effectcategory>
							<effecttype>transition</effecttype>
							<mediatype>video</mediatype>
							<wipecode>0</wipecode>
							<wipeaccuracy>100</wipeaccuracy>
							<startratio>0</startratio>
							<endratio>1</endratio>
							<reverse>FALSE</reverse>
						</effect>
					</transitionitem>
					<clipitem id="clipitem-369" frameBlend="FALSE">
						<masterclipid>masterclip-166</masterclipid>
						<name>Vegard Copy 23</name>
						<enabled>TRUE</enabled>
						<duration>1080000</duration>
						<rate>
							<timebase>30</timebase>
							<ntsc>TRUE</ntsc>
						</rate>
						<start>-1</start>
						<end>-1</end>
						<in>271372</in>
						<out>271528</out>
						<alphatype>straight</alphatype>
						<pixelaspectratio>square</pixelaspectratio>
						<anamorphic>FALSE</anamorphic>
						<file id="file-166">
							<name>Internal Title</name>
							<mediaSource>Slug</mediaSource>
							<rate>
								<timebase>30</timebase>
								<ntsc>TRUE</ntsc>
							</rate>
							<timecode>
								<rate>
									<timebase>30</timebase>
									<ntsc>TRUE</ntsc>
								</rate>
								<string>00;00;00;00</string>
								<frame>0</frame>
								<displayformat>DF</displayformat>
							</timecode>
							<media>
								<video>
									<duration>18000</duration>
									<samplecharacteristics>
										<rate>
											<timebase>30</timebase>
											<ntsc>TRUE</ntsc>
										</rate>
										<width>1920</width>
										<height>1080</height>
										<anamorphic>FALSE</anamorphic>
										<pixelaspectratio>square</pixelaspectratio>
										<fielddominance>none</fielddominance>
									</samplecharacteristics>
								</video>
							</media>
						</file>
					</clipitem>
					<transitionitem>
						<start>9300</start>
						<end>9325</end>
						<alignment>end-black</alignment>
						<cutPoint>25</cutPoint>
						<rate>
							<timebase>25</timebase>
							<ntsc>FALSE</ntsc>
						</rate>
						<effect>
							<name>Cross Dissolve</name>
							<effectid>Cross Dissolve</effectid>
							<effectcategory>Dissolve</effectcategory>
							<effecttype>transition</effecttype>
							<mediatype>video</mediatype>
							<wipecode>0</wipecode>
							<wipeaccuracy>100</wipeaccuracy>
							<startratio>0</startratio>
							<endratio>1</endratio>
							<reverse>FALSE</reverse>
						</effect>
					</transitionitem>
					<transitionitem>
						<start>9432</start>
						<end>9457</end>
						<alignment>start-black</alignment>
						<cutPoint>0</cutPoint>
						<rate>
							<timebase>25</timebase>
							<ntsc>FALSE</ntsc>
						</rate>
						<effect>
							<name>Cross Dissolve</name>
							<effectid>Cross Dissolve</effectid>
							<effectcategory>Dissolve</effectcategory>
							<effecttype>transition</effecttype>
							<mediatype>video</mediatype>
							<wipecode>0</wipecode>
							<wipeaccuracy>100</wipeaccuracy>
							<startratio>0</startratio>
							<endratio>1</endratio>
							<reverse>FALSE</reverse>
						</effect>
					</transitionitem>
					<clipitem id="clipitem-370" frameBlend="FALSE">
						<masterclipid>masterclip-167</masterclipid>
						<name>Vegard Copy 24</name>
						<enabled>TRUE</enabled>
						<duration>1080000</duration>
						<rate>
							<timebase>30</timebase>
							<ntsc>TRUE</ntsc>
						</rate>
						<start>-1</start>
						<end>-1</end>
						<in>271379</in>
						<out>271503</out>
						<alphatype>straight</alphatype>
						<pixelaspectratio>square</pixelaspectratio>
						<anamorphic>FALSE</anamorphic>
						<file id="file-167">
							<name>Internal Title</name>
							<mediaSource>Slug</mediaSource>
							<rate>
								<timebase>30</timebase>
								<ntsc>TRUE</ntsc>
							</rate>
							<timecode>
								<rate>
									<timebase>30</timebase>
									<ntsc>TRUE</ntsc>
								</rate>
								<string>00;00;00;00</string>
								<frame>0</frame>
								<displayformat>DF</displayformat>
							</timecode>
							<media>
								<video>
									<duration>18000</duration>
									<samplecharacteristics>
										<rate>
											<timebase>30</timebase>
											<ntsc>TRUE</ntsc>
										</rate>
										<width>1920</width>
										<height>1080</height>
										<anamorphic>FALSE</anamorphic>
										<pixelaspectratio>square</pixelaspectratio>
										<fielddominance>none</fielddominance>
									</samplecharacteristics>
								</video>
							</media>
						</file>
					</clipitem>
					<transitionitem>
						<start>9531</start>
						<end>9556</end>
						<alignment>end-black</alignment>
						<cutPoint>25</cutPoint>
						<rate>
							<timebase>25</timebase>
							<ntsc>FALSE</ntsc>
						</rate>
						<effect>
							<name>Cross Dissolve</name>
							<effectid>Cross Dissolve</effectid>
							<effectcategory>Dissolve</effectcategory>
							<effecttype>transition</effecttype>
							<mediatype>video</mediatype>
							<wipecode>0</wipecode>
							<wipeaccuracy>100</wipeaccuracy>
							<startratio>0</startratio>
							<endratio>1</endratio>
							<reverse>FALSE</reverse>
						</effect>
					</transitionitem>
					<transitionitem>
						<start>9756</start>
						<end>9781</end>
						<alignment>start-black</alignment>
						<cutPoint>0</cutPoint>
						<rate>
							<timebase>25</timebase>
							<ntsc>FALSE</ntsc>
						</rate>
						<effect>
							<name>Cross Dissolve</name>
							<effectid>Cross Dissolve</effectid>
							<effectcategory>Dissolve</effectcategory>
							<effecttype>transition</effecttype>
							<mediatype>video</mediatype>
							<wipecode>0</wipecode>
							<wipeaccuracy>100</wipeaccuracy>
							<startratio>0</startratio>
							<endratio>1</endratio>
							<reverse>FALSE</reverse>
						</effect>
					</transitionitem>
					<clipitem id="clipitem-371" frameBlend="FALSE">
						<masterclipid>masterclip-168</masterclipid>
						<name>Vegard Copy 25</name>
						<enabled>TRUE</enabled>
						<duration>1080000</duration>
						<rate>
							<timebase>30</timebase>
							<ntsc>TRUE</ntsc>
						</rate>
						<start>-1</start>
						<end>-1</end>
						<in>271372</in>
						<out>271481</out>
						<alphatype>straight</alphatype>
						<pixelaspectratio>square</pixelaspectratio>
						<anamorphic>FALSE</anamorphic>
						<file id="file-168">
							<name>Internal Title</name>
							<mediaSource>Slug</mediaSource>
							<rate>
								<timebase>30</timebase>
								<ntsc>TRUE</ntsc>
							</rate>
							<timecode>
								<rate>
									<timebase>30</timebase>
									<ntsc>TRUE</ntsc>
								</rate>
								<string>00;00;00;00</string>
								<frame>0</frame>
								<displayformat>DF</displayformat>
							</timecode>
							<media>
								<video>
									<duration>18000</duration>
									<samplecharacteristics>
										<rate>
											<timebase>30</timebase>
											<ntsc>TRUE</ntsc>
										</rate>
										<width>1920</width>
										<height>1080</height>
										<anamorphic>FALSE</anamorphic>
										<pixelaspectratio>square</pixelaspectratio>
										<fielddominance>none</fielddominance>
									</samplecharacteristics>
								</video>
							</media>
						</file>
					</clipitem>
					<transitionitem>
						<start>9840</start>
						<end>9865</end>
						<alignment>end-black</alignment>
						<cutPoint>25</cutPoint>
						<rate>
							<timebase>25</timebase>
							<ntsc>FALSE</ntsc>
						</rate>
						<effect>
							<name>Cross Dissolve</name>
							<effectid>Cross Dissolve</effectid>
							<effectcategory>Dissolve</effectcategory>
							<effecttype>transition</effecttype>
							<mediatype>video</mediatype>
							<wipecode>0</wipecode>
							<wipeaccuracy>100</wipeaccuracy>
							<startratio>0</startratio>
							<endratio>1</endratio>
							<reverse>FALSE</reverse>
						</effect>
					</transitionitem>
					<transitionitem>
						<start>10023</start>
						<end>10048</end>
						<alignment>start-black</alignment>
						<cutPoint>0</cutPoint>
						<rate>
							<timebase>25</timebase>
							<ntsc>FALSE</ntsc>
						</rate>
						<effect>
							<name>Cross Dissolve</name>
							<effectid>Cross Dissolve</effectid>
							<effectcategory>Dissolve</effectcategory>
							<effecttype>transition</effecttype>
							<mediatype>video</mediatype>
							<wipecode>0</wipecode>
							<wipeaccuracy>100</wipeaccuracy>
							<startratio>0</startratio>
							<endratio>1</endratio>
							<reverse>FALSE</reverse>
						</effect>
					</transitionitem>
					<clipitem id="clipitem-372" frameBlend="FALSE">
						<masterclipid>masterclip-169</masterclipid>
						<name>Vegard Copy 26</name>
						<enabled>TRUE</enabled>
						<duration>1080000</duration>
						<rate>
							<timebase>30</timebase>
							<ntsc>TRUE</ntsc>
						</rate>
						<start>-1</start>
						<end>-1</end>
						<in>271372</in>
						<out>271481</out>
						<alphatype>straight</alphatype>
						<pixelaspectratio>square</pixelaspectratio>
						<anamorphic>FALSE</anamorphic>
						<file id="file-169">
							<name>Internal Title</name>
							<mediaSource>Slug</mediaSource>
							<rate>
								<timebase>30</timebase>
								<ntsc>TRUE</ntsc>
							</rate>
							<timecode>
								<rate>
									<timebase>30</timebase>
									<ntsc>TRUE</ntsc>
								</rate>
								<string>00;00;00;00</string>
								<frame>0</frame>
								<displayformat>DF</displayformat>
							</timecode>
							<media>
								<video>
									<duration>18000</duration>
									<samplecharacteristics>
										<rate>
											<timebase>30</timebase>
											<ntsc>TRUE</ntsc>
										</rate>
										<width>1920</width>
										<height>1080</height>
										<anamorphic>FALSE</anamorphic>
										<pixelaspectratio>square</pixelaspectratio>
										<fielddominance>none</fielddominance>
									</samplecharacteristics>
								</video>
							</media>
						</file>
					</clipitem>
					<transitionitem>
						<start>10107</start>
						<end>10132</end>
						<alignment>end-black</alignment>
						<cutPoint>25</cutPoint>
						<rate>
							<timebase>25</timebase>
							<ntsc>FALSE</ntsc>
						</rate>
						<effect>
							<name>Cross Dissolve</name>
							<effectid>Cross Dissolve</effectid>
							<effectcategory>Dissolve</effectcategory>
							<effecttype>transition</effecttype>
							<mediatype>video</mediatype>
							<wipecode>0</wipecode>
							<wipeaccuracy>100</wipeaccuracy>
							<startratio>0</startratio>
							<endratio>1</endratio>
							<reverse>FALSE</reverse>
						</effect>
					</transitionitem>
					<transitionitem>
						<start>10246</start>
						<end>10271</end>
						<alignment>start-black</alignment>
						<cutPoint>0</cutPoint>
						<rate>
							<timebase>25</timebase>
							<ntsc>FALSE</ntsc>
						</rate>
						<effect>
							<name>Cross Dissolve</name>
							<effectid>Cross Dissolve</effectid>
							<effectcategory>Dissolve</effectcategory>
							<effecttype>transition</effecttype>
							<mediatype>video</mediatype>
							<wipecode>0</wipecode>
							<wipeaccuracy>100</wipeaccuracy>
							<startratio>0</startratio>
							<endratio>1</endratio>
							<reverse>FALSE</reverse>
						</effect>
					</transitionitem>
					<clipitem id="clipitem-373" frameBlend="FALSE">
						<masterclipid>masterclip-170</masterclipid>
						<name>Vegard Copy 28</name>
						<enabled>TRUE</enabled>
						<duration>1080000</duration>
						<rate>
							<timebase>30</timebase>
							<ntsc>TRUE</ntsc>
						</rate>
						<start>-1</start>
						<end>-1</end>
						<in>271372</in>
						<out>271481</out>
						<alphatype>straight</alphatype>
						<pixelaspectratio>square</pixelaspectratio>
						<anamorphic>FALSE</anamorphic>
						<file id="file-170">
							<name>Internal Title</name>
							<mediaSource>Slug</mediaSource>
							<rate>
								<timebase>30</timebase>
								<ntsc>TRUE</ntsc>
							</rate>
							<timecode>
								<rate>
									<timebase>30</timebase>
									<ntsc>TRUE</ntsc>
								</rate>
								<string>00;00;00;00</string>
								<frame>0</frame>
								<displayformat>DF</displayformat>
							</timecode>
							<media>
								<video>
									<duration>18000</duration>
									<samplecharacteristics>
										<rate>
											<timebase>30</timebase>
											<ntsc>TRUE</ntsc>
										</rate>
										<width>1920</width>
										<height>1080</height>
										<anamorphic>FALSE</anamorphic>
										<pixelaspectratio>square</pixelaspectratio>
										<fielddominance>none</fielddominance>
									</samplecharacteristics>
								</video>
							</media>
						</file>
					</clipitem>
					<transitionitem>
						<start>10330</start>
						<end>10355</end>
						<alignment>end-black</alignment>
						<cutPoint>25</cutPoint>
						<rate>
							<timebase>25</timebase>
							<ntsc>FALSE</ntsc>
						</rate>
						<effect>
							<name>Cross Dissolve</name>
							<effectid>Cross Dissolve</effectid>
							<effectcategory>Dissolve</effectcategory>
							<effecttype>transition</effecttype>
							<mediatype>video</mediatype>
							<wipecode>0</wipecode>
							<wipeaccuracy>100</wipeaccuracy>
							<startratio>0</startratio>
							<endratio>1</endratio>
							<reverse>FALSE</reverse>
						</effect>
					</transitionitem>
					<transitionitem>
						<start>12999</start>
						<end>13024</end>
						<alignment>start-black</alignment>
						<cutPoint>0</cutPoint>
						<rate>
							<timebase>25</timebase>
							<ntsc>FALSE</ntsc>
						</rate>
						<effect>
							<name>Cross Dissolve</name>
							<effectid>Cross Dissolve</effectid>
							<effectcategory>Dissolve</effectcategory>
							<effecttype>transition</effecttype>
							<mediatype>video</mediatype>
							<wipecode>0</wipecode>
							<wipeaccuracy>100</wipeaccuracy>
							<startratio>0</startratio>
							<endratio>1</endratio>
							<reverse>FALSE</reverse>
						</effect>
					</transitionitem>
					<clipitem id="clipitem-374" frameBlend="FALSE">
						<masterclipid>masterclip-171</masterclipid>
						<name>Vegard Copy 39</name>
						<enabled>TRUE</enabled>
						<duration>1080000</duration>
						<rate>
							<timebase>30</timebase>
							<ntsc>TRUE</ntsc>
						</rate>
						<start>-1</start>
						<end>-1</end>
						<in>271372</in>
						<out>271534</out>
						<alphatype>straight</alphatype>
						<pixelaspectratio>square</pixelaspectratio>
						<anamorphic>FALSE</anamorphic>
						<file id="file-171">
							<name>Internal Title</name>
							<mediaSource>Slug</mediaSource>
							<rate>
								<timebase>30</timebase>
								<ntsc>TRUE</ntsc>
							</rate>
							<timecode>
								<rate>
									<timebase>30</timebase>
									<ntsc>TRUE</ntsc>
								</rate>
								<string>00;00;00;00</string>
								<frame>0</frame>
								<displayformat>DF</displayformat>
							</timecode>
							<media>
								<video>
									<duration>18000</duration>
									<samplecharacteristics>
										<rate>
											<timebase>30</timebase>
											<ntsc>TRUE</ntsc>
										</rate>
										<width>1920</width>
										<height>1080</height>
										<anamorphic>FALSE</anamorphic>
										<pixelaspectratio>square</pixelaspectratio>
										<fielddominance>none</fielddominance>
									</samplecharacteristics>
								</video>
							</media>
						</file>
					</clipitem>
					<transitionitem>
						<start>13136</start>
						<end>13161</end>
						<alignment>end-black</alignment>
						<cutPoint>25</cutPoint>
						<rate>
							<timebase>25</timebase>
							<ntsc>FALSE</ntsc>
						</rate>
						<effect>
							<name>Cross Dissolve</name>
							<effectid>Cross Dissolve</effectid>
							<effectcategory>Dissolve</effectcategory>
							<effecttype>transition</effecttype>
							<mediatype>video</mediatype>
							<wipecode>0</wipecode>
							<wipeaccuracy>100</wipeaccuracy>
							<startratio>0</startratio>
							<endratio>1</endratio>
							<reverse>FALSE</reverse>
						</effect>
					</transitionitem>
					<clipitem id="clipitem-375" frameBlend="FALSE">
						<masterclipid>masterclip-172</masterclipid>
						<name>Moebius_Feyd_Rautha.jpg</name>
						<enabled>TRUE</enabled>
						<duration>1080000</duration>
						<rate>
							<timebase>30</timebase>
							<ntsc>TRUE</ntsc>
						</rate>
						<start>15073</start>
						<end>15168</end>
						<in>90011</in>
						<out>90106</out>
						<alphatype>none</alphatype>
						<pixelaspectratio>square</pixelaspectratio>
						<anamorphic>FALSE</anamorphic>
						<file id="file-172">
							<name>Moebius_Feyd_Rautha.jpg</name>
							<pathurl>file://localhost/Volumes/Scenen/Utveksling/FILM/Bilder/Dune_bilder/Moebius_Feyd_Rautha.jpg</pathurl>
							<rate>
								<timebase>30</timebase>
								<ntsc>TRUE</ntsc>
							</rate>
							<timecode>
								<rate>
									<timebase>30</timebase>
									<ntsc>TRUE</ntsc>
								</rate>
								<string>00;00;00;00</string>
								<frame>0</frame>
								<displayformat>DF</displayformat>
							</timecode>
							<media>
								<video>
									<duration>18000</duration>
									<samplecharacteristics>
										<rate>
											<timebase>30</timebase>
											<ntsc>TRUE</ntsc>
										</rate>
										<width>550</width>
										<height>927</height>
										<anamorphic>FALSE</anamorphic>
										<pixelaspectratio>square</pixelaspectratio>
										<fielddominance>none</fielddominance>
									</samplecharacteristics>
								</video>
							</media>
						</file>
							<filter>
								<effect>
									<name>Basic Motion</name>
									<effectid>basic</effectid>
									<effectcategory>motion</effectcategory>
									<effecttype>motion</effecttype>
									<mediatype>video</mediatype>
									<parameter authoringApp="PremierePro">
										<parameterid>scale</parameterid>
										<name>Scale</name>
										<valuemin>0</valuemin>
										<valuemax>1000</valuemax>
										<value>75</value>
									</parameter>
									<parameter authoringApp="PremierePro">
										<parameterid>rotation</parameterid>
										<name>Rotation</name>
										<valuemin>-8640</valuemin>
										<valuemax>8640</valuemax>
										<value>0</value>
									</parameter>
									<parameter authoringApp="PremierePro">
										<parameterid>center</parameterid>
										<name>Center</name>
										<value>
											<horiz>0.272727</horiz>
											<vert>0</vert>
										</value>
									</parameter>
									<parameter authoringApp="PremierePro">
										<parameterid>centerOffset</parameterid>
										<name>Anchor Point</name>
										<value>
											<horiz>0</horiz>
											<vert>0</vert>
										</value>
									</parameter>
								</effect>
							</filter>
					</clipitem>
					<transitionitem>
						<start>16375</start>
						<end>16400</end>
						<alignment>start-black</alignment>
						<cutPoint>0</cutPoint>
						<rate>
							<timebase>25</timebase>
							<ntsc>FALSE</ntsc>
						</rate>
						<effect>
							<name>Cross Dissolve</name>
							<effectid>Cross Dissolve</effectid>
							<effectcategory>Dissolve</effectcategory>
							<effecttype>transition</effecttype>
							<mediatype>video</mediatype>
							<wipecode>0</wipecode>
							<wipeaccuracy>100</wipeaccuracy>
							<startratio>0</startratio>
							<endratio>1</endratio>
							<reverse>FALSE</reverse>
						</effect>
					</transitionitem>
					<clipitem id="clipitem-376" frameBlend="FALSE">
						<masterclipid>masterclip-173</masterclipid>
						<name>sp436f94.jpg</name>
						<enabled>TRUE</enabled>
						<duration>1080000</duration>
						<rate>
							<timebase>30</timebase>
							<ntsc>TRUE</ntsc>
						</rate>
						<start>-1</start>
						<end>16520</end>
						<in>89992</in>
						<out>90137</out>
						<alphatype>none</alphatype>
						<pixelaspectratio>square</pixelaspectratio>
						<anamorphic>FALSE</anamorphic>
						<file id="file-173">
							<name>sp436f94.jpg</name>
							<pathurl>file://localhost/Volumes/Scenen/Prosjekter/FILM/FILM%201413%20Jodorowsky%20BW/Grafikk/sp436f94.jpg</pathurl>
							<rate>
								<timebase>30</timebase>
								<ntsc>TRUE</ntsc>
							</rate>
							<timecode>
								<rate>
									<timebase>30</timebase>
									<ntsc>TRUE</ntsc>
								</rate>
								<string>00;00;00;00</string>
								<frame>0</frame>
								<displayformat>DF</displayformat>
							</timecode>
							<media>
								<video>
									<duration>18000</duration>
									<samplecharacteristics>
										<rate>
											<timebase>30</timebase>
											<ntsc>TRUE</ntsc>
										</rate>
										<width>2048</width>
										<height>1480</height>
										<anamorphic>FALSE</anamorphic>
										<pixelaspectratio>square</pixelaspectratio>
										<fielddominance>none</fielddominance>
									</samplecharacteristics>
								</video>
							</media>
						</file>
							<filter>
								<effect>
									<name>Basic Motion</name>
									<effectid>basic</effectid>
									<effectcategory>motion</effectcategory>
									<effecttype>motion</effecttype>
									<mediatype>video</mediatype>
									<parameter authoringApp="PremierePro">
										<parameterid>scale</parameterid>
										<name>Scale</name>
										<valuemin>0</valuemin>
										<valuemax>1000</valuemax>
										<value>36</value>
										<keyframe>
											<when>90000</when>
											<value>32.7625</value>
										</keyframe>
										<keyframe>
											<when>90060</when>
											<value>36</value>
										</keyframe>
									</parameter>
									<parameter authoringApp="PremierePro">
										<parameterid>rotation</parameterid>
										<name>Rotation</name>
										<valuemin>-8640</valuemin>
										<valuemax>8640</valuemax>
										<value>0</value>
									</parameter>
									<parameter authoringApp="PremierePro">
										<parameterid>center</parameterid>
										<name>Center</name>
										<value>
											<horiz>0.0418667</horiz>
											<vert>-0.00890464</vert>
										</value>
										<keyframe>
											<when>90000</when>
											<value>
												<horiz>0.298214</horiz>
												<vert>0.0059602</vert>
											</value>
										</keyframe>
										<keyframe>
											<when>90060</when>
											<value>
												<horiz>0.298214</horiz>
												<vert>0.0059602</vert>
											</value>
										</keyframe>
									</parameter>
									<parameter authoringApp="PremierePro">
										<parameterid>centerOffset</parameterid>
										<name>Anchor Point</name>
										<value>
											<horiz>0</horiz>
											<vert>0</vert>
										</value>
									</parameter>
								</effect>
							</filter>
							<filter>
								<effect>
									<name>Crop</name>
									<effectid>crop</effectid>
									<effectcategory>motion</effectcategory>
									<effecttype>motion</effecttype>
									<mediatype>video</mediatype>
									<parameter authoringApp="PremierePro">
										<parameterid>left</parameterid>
										<name>left</name>
										<valuemin>0</valuemin>
										<valuemax>100</valuemax>
										<value>45</value>
									</parameter>
									<parameter authoringApp="PremierePro">
										<parameterid>right</parameterid>
										<name>right</name>
										<valuemin>0</valuemin>
										<valuemax>100</valuemax>
										<value>45</value>
									</parameter>
									<parameter authoringApp="PremierePro">
										<parameterid>top</parameterid>
										<name>top</name>
										<valuemin>0</valuemin>
										<valuemax>100</valuemax>
										<value>41</value>
									</parameter>
									<parameter authoringApp="PremierePro">
										<parameterid>bottom</parameterid>
										<name>bottom</name>
										<valuemin>0</valuemin>
										<valuemax>100</valuemax>
										<value>41</value>
									</parameter>
								</effect>
							</filter>
					</clipitem>
					<clipitem id="clipitem-377" frameBlend="FALSE">
						<masterclipid>masterclip-174</masterclipid>
						<name>Pink Floyd.png</name>
						<enabled>TRUE</enabled>
						<duration>1080000</duration>
						<rate>
							<timebase>30</timebase>
							<ntsc>TRUE</ntsc>
						</rate>
						<start>16520</start>
						<end>16619</end>
						<in>90000</in>
						<out>90099</out>
						<alphatype>none</alphatype>
						<pixelaspectratio>square</pixelaspectratio>
						<anamorphic>FALSE</anamorphic>
						<file id="file-174">
							<name>Pink Floyd.png</name>
							<pathurl>file://localhost/Volumes/Scenen/Prosjekter/FILM/FILM%201413%20Master%20Filmbonanza%20Program%206%20H%c3%b8sten%202013/Grafikk/Pink%20Floyd.png</pathurl>
							<rate>
								<timebase>30</timebase>
								<ntsc>TRUE</ntsc>
							</rate>
							<timecode>
								<rate>
									<timebase>30</timebase>
									<ntsc>TRUE</ntsc>
								</rate>
								<string>00;00;00;00</string>
								<frame>0</frame>
								<displayformat>DF</displayformat>
							</timecode>
							<media>
								<video>
									<duration>18000</duration>
									<samplecharacteristics>
										<rate>
											<timebase>30</timebase>
											<ntsc>TRUE</ntsc>
										</rate>
										<width>1034</width>
										<height>451</height>
										<anamorphic>FALSE</anamorphic>
										<pixelaspectratio>square</pixelaspectratio>
										<fielddominance>none</fielddominance>
									</samplecharacteristics>
								</video>
							</media>
						</file>
							<filter>
								<effect>
									<name>Basic Motion</name>
									<effectid>basic</effectid>
									<effectcategory>motion</effectcategory>
									<effecttype>motion</effecttype>
									<mediatype>video</mediatype>
									<parameter authoringApp="PremierePro">
										<parameterid>scale</parameterid>
										<name>Scale</name>
										<valuemin>0</valuemin>
										<valuemax>1000</valuemax>
										<value>138</value>
										<keyframe>
											<when>90000</when>
											<value>100</value>
										</keyframe>
										<keyframe>
											<when>90009</when>
											<value>100</value>
										</keyframe>
										<keyframe>
											<when>90051</when>
											<value>138</value>
										</keyframe>
									</parameter>
									<parameter authoringApp="PremierePro">
										<parameterid>rotation</parameterid>
										<name>Rotation</name>
										<valuemin>-8640</valuemin>
										<valuemax>8640</valuemax>
										<value>0</value>
									</parameter>
									<parameter authoringApp="PremierePro">
										<parameterid>center</parameterid>
										<name>Center</name>
										<value>
											<horiz>0</horiz>
											<vert>0</vert>
										</value>
										<keyframe>
											<when>90000</when>
											<value>
												<horiz>0</horiz>
												<vert>0</vert>
											</value>
										</keyframe>
										<keyframe>
											<when>90009</when>
											<value>
												<horiz>0</horiz>
												<vert>0</vert>
											</value>
										</keyframe>
										<keyframe>
											<when>90051</when>
											<value>
												<horiz>0</horiz>
												<vert>0</vert>
											</value>
										</keyframe>
									</parameter>
									<parameter authoringApp="PremierePro">
										<parameterid>centerOffset</parameterid>
										<name>Anchor Point</name>
										<value>
											<horiz>0</horiz>
											<vert>0</vert>
										</value>
									</parameter>
								</effect>
							</filter>
					</clipitem>
					<clipitem id="clipitem-378" frameBlend="FALSE">
						<masterclipid>masterclip-7</masterclipid>
						<name>FILM_Loop_Grønn.mov</name>
						<enabled>TRUE</enabled>
						<duration>1000</duration>
						<rate>
							<ntsc>TRUE</ntsc>
							<timebase>30</timebase>
						</rate>
						<start>19365</start>
						<end>19431</end>
						<in>408</in>
						<out>474</out>
						<alphatype>none</alphatype>
						<file id="file-7"/>
							<filter>
								<effect>
									<name>Crop</name>
									<effectid>crop</effectid>
									<effectcategory>motion</effectcategory>
									<effecttype>motion</effecttype>
									<mediatype>video</mediatype>
									<parameter authoringApp="PremierePro">
										<parameterid>left</parameterid>
										<name>left</name>
										<valuemin>0</valuemin>
										<valuemax>100</valuemax>
										<value>0</value>
									</parameter>
									<parameter authoringApp="PremierePro">
										<parameterid>right</parameterid>
										<name>right</name>
										<valuemin>0</valuemin>
										<valuemax>100</valuemax>
										<value>0</value>
									</parameter>
									<parameter authoringApp="PremierePro">
										<parameterid>top</parameterid>
										<name>top</name>
										<valuemin>0</valuemin>
										<valuemax>100</valuemax>
										<value>90</value>
									</parameter>
									<parameter authoringApp="PremierePro">
										<parameterid>bottom</parameterid>
										<name>bottom</name>
										<valuemin>0</valuemin>
										<valuemax>100</valuemax>
										<value>0</value>
									</parameter>
								</effect>
							</filter>
					</clipitem>
					<transitionitem>
						<start>21462</start>
						<end>21471</end>
						<alignment>start-black</alignment>
						<cutPoint>0</cutPoint>
						<rate>
							<timebase>25</timebase>
							<ntsc>FALSE</ntsc>
						</rate>
						<effect>
							<name>Cross Dissolve</name>
							<effectid>Cross Dissolve</effectid>
							<effectcategory>Dissolve</effectcategory>
							<effecttype>transition</effecttype>
							<mediatype>video</mediatype>
							<wipecode>0</wipecode>
							<wipeaccuracy>100</wipeaccuracy>
							<startratio>0</startratio>
							<endratio>1</endratio>
							<reverse>FALSE</reverse>
						</effect>
					</transitionitem>
					<clipitem id="clipitem-379" frameBlend="FALSE">
						<masterclipid>masterclip-175</masterclipid>
						<name>flash_gordon_xlg.jpg</name>
						<enabled>TRUE</enabled>
						<duration>1080000</duration>
						<rate>
							<timebase>30</timebase>
							<ntsc>TRUE</ntsc>
						</rate>
						<start>-1</start>
						<end>21545</end>
						<in>90000</in>
						<out>90083</out>
						<alphatype>none</alphatype>
						<pixelaspectratio>square</pixelaspectratio>
						<anamorphic>FALSE</anamorphic>
						<file id="file-175">
							<name>flash_gordon_xlg.jpg</name>
							<pathurl>file://localhost/Volumes/Scenen/Prosjekter/FILM/FILM%201413%20Jodorowsky%20BW/Grafikk/flash_gordon_xlg.jpg</pathurl>
							<rate>
								<timebase>30</timebase>
								<ntsc>TRUE</ntsc>
							</rate>
							<timecode>
								<rate>
									<timebase>30</timebase>
									<ntsc>TRUE</ntsc>
								</rate>
								<string>00;00;00;00</string>
								<frame>0</frame>
								<displayformat>DF</displayformat>
							</timecode>
							<media>
								<video>
									<duration>18000</duration>
									<samplecharacteristics>
										<rate>
											<timebase>30</timebase>
											<ntsc>TRUE</ntsc>
										</rate>
										<width>998</width>
										<height>1500</height>
										<anamorphic>FALSE</anamorphic>
										<pixelaspectratio>square</pixelaspectratio>
										<fielddominance>none</fielddominance>
									</samplecharacteristics>
								</video>
							</media>
						</file>
							<filter>
								<effect>
									<name>Basic Motion</name>
									<effectid>basic</effectid>
									<effectcategory>motion</effectcategory>
									<effecttype>motion</effecttype>
									<mediatype>video</mediatype>
									<parameter authoringApp="PremierePro">
										<parameterid>scale</parameterid>
										<name>Scale</name>
										<valuemin>0</valuemin>
										<valuemax>1000</valuemax>
										<value>112</value>
										<keyframe>
											<when>90000</when>
											<value>102</value>
										</keyframe>
										<keyframe>
											<when>90083</when>
											<value>112</value>
										</keyframe>
									</parameter>
									<parameter authoringApp="PremierePro">
										<parameterid>rotation</parameterid>
										<name>Rotation</name>
										<valuemin>-8640</valuemin>
										<valuemax>8640</valuemax>
										<value>0</value>
									</parameter>
									<parameter authoringApp="PremierePro">
										<parameterid>center</parameterid>
										<name>Center</name>
										<value>
											<horiz>0</horiz>
											<vert>0</vert>
										</value>
										<keyframe>
											<when>90000</when>
											<value>
												<horiz>0</horiz>
												<vert>0</vert>
											</value>
										</keyframe>
										<keyframe>
											<when>90083</when>
											<value>
												<horiz>0</horiz>
												<vert>-0.0373333</vert>
											</value>
										</keyframe>
									</parameter>
									<parameter authoringApp="PremierePro">
										<parameterid>centerOffset</parameterid>
										<name>Anchor Point</name>
										<value>
											<horiz>0</horiz>
											<vert>0</vert>
										</value>
									</parameter>
								</effect>
							</filter>
					</clipitem>
					<transitionitem>
						<start>23882</start>
						<end>23907</end>
						<alignment>start-black</alignment>
						<cutPoint>0</cutPoint>
						<rate>
							<timebase>25</timebase>
							<ntsc>FALSE</ntsc>
						</rate>
						<effect>
							<name>Cross Dissolve</name>
							<effectid>Cross Dissolve</effectid>
							<effectcategory>Dissolve</effectcategory>
							<effecttype>transition</effecttype>
							<mediatype>video</mediatype>
							<wipecode>0</wipecode>
							<wipeaccuracy>100</wipeaccuracy>
							<startratio>0</startratio>
							<endratio>1</endratio>
							<reverse>FALSE</reverse>
						</effect>
					</transitionitem>
					<clipitem id="clipitem-380" frameBlend="FALSE">
						<masterclipid>masterclip-176</masterclipid>
						<name>Vegard Copy 27</name>
						<enabled>TRUE</enabled>
						<duration>1080000</duration>
						<rate>
							<timebase>30</timebase>
							<ntsc>TRUE</ntsc>
						</rate>
						<start>-1</start>
						<end>-1</end>
						<in>271372</in>
						<out>271512</out>
						<alphatype>straight</alphatype>
						<pixelaspectratio>square</pixelaspectratio>
						<anamorphic>FALSE</anamorphic>
						<file id="file-176">
							<name>Internal Title</name>
							<mediaSource>Slug</mediaSource>
							<rate>
								<timebase>30</timebase>
								<ntsc>TRUE</ntsc>
							</rate>
							<timecode>
								<rate>
									<timebase>30</timebase>
									<ntsc>TRUE</ntsc>
								</rate>
								<string>00;00;00;00</string>
								<frame>0</frame>
								<displayformat>DF</displayformat>
							</timecode>
							<media>
								<video>
									<duration>18000</duration>
									<samplecharacteristics>
										<rate>
											<timebase>30</timebase>
											<ntsc>TRUE</ntsc>
										</rate>
										<width>1920</width>
										<height>1080</height>
										<anamorphic>FALSE</anamorphic>
										<pixelaspectratio>square</pixelaspectratio>
										<fielddominance>none</fielddominance>
									</samplecharacteristics>
								</video>
							</media>
						</file>
					</clipitem>
					<transitionitem>
						<start>23997</start>
						<end>24022</end>
						<alignment>end-black</alignment>
						<cutPoint>25</cutPoint>
						<rate>
							<timebase>25</timebase>
							<ntsc>FALSE</ntsc>
						</rate>
						<effect>
							<name>Cross Dissolve</name>
							<effectid>Cross Dissolve</effectid>
							<effectcategory>Dissolve</effectcategory>
							<effecttype>transition</effecttype>
							<mediatype>video</mediatype>
							<wipecode>0</wipecode>
							<wipeaccuracy>100</wipeaccuracy>
							<startratio>0</startratio>
							<endratio>1</endratio>
							<reverse>FALSE</reverse>
						</effect>
					</transitionitem>
					<transitionitem>
						<start>25014</start>
						<end>25018</end>
						<alignment>start-black</alignment>
						<cutPoint>0</cutPoint>
						<rate>
							<timebase>25</timebase>
							<ntsc>FALSE</ntsc>
						</rate>
						<effect>
							<name>Cross Dissolve</name>
							<effectid>Cross Dissolve</effectid>
							<effectcategory>Dissolve</effectcategory>
							<effecttype>transition</effecttype>
							<mediatype>video</mediatype>
							<wipecode>0</wipecode>
							<wipeaccuracy>100</wipeaccuracy>
							<startratio>0</startratio>
							<endratio>1</endratio>
							<reverse>FALSE</reverse>
						</effect>
					</transitionitem>
					<generatoritem id="clipitem-381">
						<enabled>FALSE</enabled>
						<duration>1080000</duration>
						<start>-1</start>
						<end>25100</end>
						<in>90069</in>
						<out>90155</out>
						<effect>
							<name>Color</name>
							<effectid>Color</effectid>
							<effectcategory>Matte</effectcategory>
							<effecttype>generator</effecttype>
							<mediatype>video</mediatype>
							<parameter authoringApp="PremierePro">
								<parameterid>fillcolor</parameterid>
								<name>Color</name>
								<value>
									<alpha>0</alpha>
									<red>254</red>
									<green>251</green>
									<blue>251</blue>
								</value>
							</parameter>
						</effect>
							<filter>
								<effect>
									<name>Crop</name>
									<effectid>crop</effectid>
									<effectcategory>motion</effectcategory>
									<effecttype>motion</effecttype>
									<mediatype>video</mediatype>
									<parameter authoringApp="PremierePro">
										<parameterid>left</parameterid>
										<name>left</name>
										<valuemin>0</valuemin>
										<valuemax>100</valuemax>
										<value>45</value>
									</parameter>
									<parameter authoringApp="PremierePro">
										<parameterid>right</parameterid>
										<name>right</name>
										<valuemin>0</valuemin>
										<valuemax>100</valuemax>
										<value>45</value>
									</parameter>
									<parameter authoringApp="PremierePro">
										<parameterid>top</parameterid>
										<name>top</name>
										<valuemin>0</valuemin>
										<valuemax>100</valuemax>
										<value>41</value>
									</parameter>
									<parameter authoringApp="PremierePro">
										<parameterid>bottom</parameterid>
										<name>bottom</name>
										<valuemin>0</valuemin>
										<valuemax>100</valuemax>
										<value>41</value>
									</parameter>
								</effect>
							</filter>
					</generatoritem>
					<generatoritem id="clipitem-382">
						<enabled>FALSE</enabled>
						<duration>1080000</duration>
						<start>25100</start>
						<end>25192</end>
						<in>90069</in>
						<out>90161</out>
						<effect>
							<name>Color</name>
							<effectid>Color</effectid>
							<effectcategory>Matte</effectcategory>
							<effecttype>generator</effecttype>
							<mediatype>video</mediatype>
							<parameter authoringApp="PremierePro">
								<parameterid>fillcolor</parameterid>
								<name>Color</name>
								<value>
									<alpha>0</alpha>
									<red>254</red>
									<green>251</green>
									<blue>251</blue>
								</value>
							</parameter>
						</effect>
							<filter>
								<effect>
									<name>Basic Motion</name>
									<effectid>basic</effectid>
									<effectcategory>motion</effectcategory>
									<effecttype>motion</effecttype>
									<mediatype>video</mediatype>
									<parameter authoringApp="PremierePro">
										<parameterid>scale</parameterid>
										<name>Scale</name>
										<valuemin>0</valuemin>
										<valuemax>1000</valuemax>
										<value>100</value>
									</parameter>
									<parameter authoringApp="PremierePro">
										<parameterid>rotation</parameterid>
										<name>Rotation</name>
										<valuemin>-8640</valuemin>
										<valuemax>8640</valuemax>
										<value>0</value>
									</parameter>
									<parameter authoringApp="PremierePro">
										<parameterid>center</parameterid>
										<name>Center</name>
										<value>
											<horiz>-0.00624999</horiz>
											<vert>0.0157408</vert>
										</value>
									</parameter>
									<parameter authoringApp="PremierePro">
										<parameterid>centerOffset</parameterid>
										<name>Anchor Point</name>
										<value>
											<horiz>0</horiz>
											<vert>0</vert>
										</value>
									</parameter>
								</effect>
							</filter>
							<filter>
								<effect>
									<name>Crop</name>
									<effectid>crop</effectid>
									<effectcategory>motion</effectcategory>
									<effecttype>motion</effecttype>
									<mediatype>video</mediatype>
									<parameter authoringApp="PremierePro">
										<parameterid>left</parameterid>
										<name>left</name>
										<valuemin>0</valuemin>
										<valuemax>100</valuemax>
										<value>6</value>
									</parameter>
									<parameter authoringApp="PremierePro">
										<parameterid>right</parameterid>
										<name>right</name>
										<valuemin>0</valuemin>
										<valuemax>100</valuemax>
										<value>4.12997</value>
									</parameter>
									<parameter authoringApp="PremierePro">
										<parameterid>top</parameterid>
										<name>top</name>
										<valuemin>0</valuemin>
										<valuemax>100</valuemax>
										<value>34.0189</value>
									</parameter>
									<parameter authoringApp="PremierePro">
										<parameterid>bottom</parameterid>
										<name>bottom</name>
										<valuemin>0</valuemin>
										<valuemax>100</valuemax>
										<value>41</value>
									</parameter>
								</effect>
							</filter>
					</generatoritem>
					<generatoritem id="clipitem-383">
						<enabled>FALSE</enabled>
						<duration>1080000</duration>
						<start>25192</start>
						<end>25312</end>
						<in>90069</in>
						<out>90189</out>
						<effect>
							<name>Color</name>
							<effectid>Color</effectid>
							<effectcategory>Matte</effectcategory>
							<effecttype>generator</effecttype>
							<mediatype>video</mediatype>
							<parameter authoringApp="PremierePro">
								<parameterid>fillcolor</parameterid>
								<name>Color</name>
								<value>
									<alpha>0</alpha>
									<red>254</red>
									<green>251</green>
									<blue>251</blue>
								</value>
							</parameter>
						</effect>
							<filter>
								<effect>
									<name>Basic Motion</name>
									<effectid>basic</effectid>
									<effectcategory>motion</effectcategory>
									<effecttype>motion</effecttype>
									<mediatype>video</mediatype>
									<parameter authoringApp="PremierePro">
										<parameterid>scale</parameterid>
										<name>Scale</name>
										<valuemin>0</valuemin>
										<valuemax>1000</valuemax>
										<value>100</value>
									</parameter>
									<parameter authoringApp="PremierePro">
										<parameterid>rotation</parameterid>
										<name>Rotation</name>
										<valuemin>-8640</valuemin>
										<valuemax>8640</valuemax>
										<value>0</value>
									</parameter>
									<parameter authoringApp="PremierePro">
										<parameterid>center</parameterid>
										<name>Center</name>
										<value>
											<horiz>0.158333</horiz>
											<vert>0.128704</vert>
										</value>
									</parameter>
									<parameter authoringApp="PremierePro">
										<parameterid>centerOffset</parameterid>
										<name>Anchor Point</name>
										<value>
											<horiz>0</horiz>
											<vert>0</vert>
										</value>
									</parameter>
								</effect>
							</filter>
							<filter>
								<effect>
									<name>Crop</name>
									<effectid>crop</effectid>
									<effectcategory>motion</effectcategory>
									<effecttype>motion</effecttype>
									<mediatype>video</mediatype>
									<parameter authoringApp="PremierePro">
										<parameterid>left</parameterid>
										<name>left</name>
										<valuemin>0</valuemin>
										<valuemax>100</valuemax>
										<value>0</value>
									</parameter>
									<parameter authoringApp="PremierePro">
										<parameterid>right</parameterid>
										<name>right</name>
										<valuemin>0</valuemin>
										<valuemax>100</valuemax>
										<value>27.13</value>
									</parameter>
									<parameter authoringApp="PremierePro">
										<parameterid>top</parameterid>
										<name>top</name>
										<valuemin>0</valuemin>
										<valuemax>100</valuemax>
										<value>28.0189</value>
									</parameter>
									<parameter authoringApp="PremierePro">
										<parameterid>bottom</parameterid>
										<name>bottom</name>
										<valuemin>0</valuemin>
										<valuemax>100</valuemax>
										<value>56.4906</value>
									</parameter>
								</effect>
							</filter>
					</generatoritem>
					<transitionitem>
						<start>34728</start>
						<end>34753</end>
						<alignment>start-black</alignment>
						<cutPoint>0</cutPoint>
						<rate>
							<timebase>25</timebase>
							<ntsc>FALSE</ntsc>
						</rate>
						<effect>
							<name>Cross Dissolve</name>
							<effectid>Cross Dissolve</effectid>
							<effectcategory>Dissolve</effectcategory>
							<effecttype>transition</effecttype>
							<mediatype>video</mediatype>
							<wipecode>0</wipecode>
							<wipeaccuracy>100</wipeaccuracy>
							<startratio>0</startratio>
							<endratio>1</endratio>
							<reverse>FALSE</reverse>
						</effect>
					</transitionitem>
					<clipitem id="clipitem-384" frameBlend="FALSE">
						<masterclipid>masterclip-178</masterclipid>
						<name>Supermal Høst 2013 Copy 15</name>
						<enabled>TRUE</enabled>
						<duration>1080000</duration>
						<rate>
							<timebase>30</timebase>
							<ntsc>TRUE</ntsc>
						</rate>
						<start>-1</start>
						<end>-1</end>
						<in>91391</in>
						<out>91642</out>
						<alphatype>straight</alphatype>
						<pixelaspectratio>square</pixelaspectratio>
						<anamorphic>FALSE</anamorphic>
						<file id="file-177">
							<name>Internal Title</name>
							<mediaSource>Slug</mediaSource>
							<rate>
								<timebase>30</timebase>
								<ntsc>TRUE</ntsc>
							</rate>
							<timecode>
								<rate>
									<timebase>30</timebase>
									<ntsc>TRUE</ntsc>
								</rate>
								<string>00;00;00;00</string>
								<frame>0</frame>
								<displayformat>DF</displayformat>
							</timecode>
							<media>
								<video>
									<duration>18000</duration>
									<samplecharacteristics>
										<rate>
											<timebase>30</timebase>
											<ntsc>TRUE</ntsc>
										</rate>
										<width>1920</width>
										<height>1080</height>
										<anamorphic>FALSE</anamorphic>
										<pixelaspectratio>square</pixelaspectratio>
										<fielddominance>none</fielddominance>
									</samplecharacteristics>
								</video>
							</media>
						</file>
					</clipitem>
					<transitionitem>
						<start>34954</start>
						<end>34979</end>
						<alignment>end-black</alignment>
						<cutPoint>25</cutPoint>
						<rate>
							<timebase>25</timebase>
							<ntsc>FALSE</ntsc>
						</rate>
						<effect>
							<name>Cross Dissolve</name>
							<effectid>Cross Dissolve</effectid>
							<effectcategory>Dissolve</effectcategory>
							<effecttype>transition</effecttype>
							<mediatype>video</mediatype>
							<wipecode>0</wipecode>
							<wipeaccuracy>100</wipeaccuracy>
							<startratio>0</startratio>
							<endratio>1</endratio>
							<reverse>FALSE</reverse>
						</effect>
					</transitionitem>
					<transitionitem>
						<start>35002</start>
						<end>35027</end>
						<alignment>start-black</alignment>
						<cutPoint>0</cutPoint>
						<rate>
							<timebase>25</timebase>
							<ntsc>FALSE</ntsc>
						</rate>
						<effect>
							<name>Cross Dissolve</name>
							<effectid>Cross Dissolve</effectid>
							<effectcategory>Dissolve</effectcategory>
							<effecttype>transition</effecttype>
							<mediatype>video</mediatype>
							<wipecode>0</wipecode>
							<wipeaccuracy>100</wipeaccuracy>
							<startratio>0</startratio>
							<endratio>1</endratio>
							<reverse>FALSE</reverse>
						</effect>
					</transitionitem>
					<clipitem id="clipitem-385" frameBlend="FALSE">
						<masterclipid>masterclip-179</masterclipid>
						<name>Supermal Høst 2013 Copy 17</name>
						<enabled>TRUE</enabled>
						<duration>1080000</duration>
						<rate>
							<timebase>30</timebase>
							<ntsc>TRUE</ntsc>
						</rate>
						<start>-1</start>
						<end>-1</end>
						<in>91401</in>
						<out>91519</out>
						<alphatype>straight</alphatype>
						<pixelaspectratio>square</pixelaspectratio>
						<anamorphic>FALSE</anamorphic>
						<file id="file-178">
							<name>Internal Title</name>
							<mediaSource>Slug</mediaSource>
							<rate>
								<timebase>30</timebase>
								<ntsc>TRUE</ntsc>
							</rate>
							<timecode>
								<rate>
									<timebase>30</timebase>
									<ntsc>TRUE</ntsc>
								</rate>
								<string>00;00;00;00</string>
								<frame>0</frame>
								<displayformat>DF</displayformat>
							</timecode>
							<media>
								<video>
									<duration>18000</duration>
									<samplecharacteristics>
										<rate>
											<timebase>30</timebase>
											<ntsc>TRUE</ntsc>
										</rate>
										<width>1920</width>
										<height>1080</height>
										<anamorphic>FALSE</anamorphic>
										<pixelaspectratio>square</pixelaspectratio>
										<fielddominance>none</fielddominance>
									</samplecharacteristics>
								</video>
							</media>
						</file>
					</clipitem>
					<transitionitem>
						<start>35095</start>
						<end>35120</end>
						<alignment>end-black</alignment>
						<cutPoint>25</cutPoint>
						<rate>
							<timebase>25</timebase>
							<ntsc>FALSE</ntsc>
						</rate>
						<effect>
							<name>Cross Dissolve</name>
							<effectid>Cross Dissolve</effectid>
							<effectcategory>Dissolve</effectcategory>
							<effecttype>transition</effecttype>
							<mediatype>video</mediatype>
							<wipecode>0</wipecode>
							<wipeaccuracy>100</wipeaccuracy>
							<startratio>0</startratio>
							<endratio>1</endratio>
							<reverse>FALSE</reverse>
						</effect>
					</transitionitem>
					<enabled>TRUE</enabled>
					<locked>FALSE</locked>
				</track>
				<track TL.SQTrackShy="0" TL.SQTrackExpandedHeight="25" TL.SQTrackExpanded="1" MZ.TrackTargeted="1">
					<clipitem id="clipitem-386" frameBlend="FALSE">
						<masterclipid>masterclip-180</masterclipid>
						<name>Moebius_Sardaukar.jpg</name>
						<enabled>TRUE</enabled>
						<duration>1080000</duration>
						<rate>
							<timebase>30</timebase>
							<ntsc>TRUE</ntsc>
						</rate>
						<start>15110</start>
						<end>15168</end>
						<in>89978</in>
						<out>90036</out>
						<alphatype>none</alphatype>
						<pixelaspectratio>square</pixelaspectratio>
						<anamorphic>FALSE</anamorphic>
						<file id="file-179">
							<name>Moebius_Sardaukar.jpg</name>
							<pathurl>file://localhost/Volumes/Scenen/Utveksling/FILM/Bilder/Dune_bilder/Moebius_Sardaukar.jpg</pathurl>
							<rate>
								<timebase>30</timebase>
								<ntsc>TRUE</ntsc>
							</rate>
							<timecode>
								<rate>
									<timebase>30</timebase>
									<ntsc>TRUE</ntsc>
								</rate>
								<string>00;00;00;00</string>
								<frame>0</frame>
								<displayformat>DF</displayformat>
							</timecode>
							<media>
								<video>
									<duration>18000</duration>
									<samplecharacteristics>
										<rate>
											<timebase>30</timebase>
											<ntsc>TRUE</ntsc>
										</rate>
										<width>550</width>
										<height>905</height>
										<anamorphic>FALSE</anamorphic>
										<pixelaspectratio>square</pixelaspectratio>
										<fielddominance>none</fielddominance>
									</samplecharacteristics>
								</video>
							</media>
						</file>
							<filter>
								<effect>
									<name>Basic Motion</name>
									<effectid>basic</effectid>
									<effectcategory>motion</effectcategory>
									<effecttype>motion</effecttype>
									<mediatype>video</mediatype>
									<parameter authoringApp="PremierePro">
										<parameterid>scale</parameterid>
										<name>Scale</name>
										<valuemin>0</valuemin>
										<valuemax>1000</valuemax>
										<value>75</value>
									</parameter>
									<parameter authoringApp="PremierePro">
										<parameterid>rotation</parameterid>
										<name>Rotation</name>
										<valuemin>-8640</valuemin>
										<valuemax>8640</valuemax>
										<value>0</value>
									</parameter>
									<parameter authoringApp="PremierePro">
										<parameterid>center</parameterid>
										<name>Center</name>
										<value>
											<horiz>1.04</horiz>
											<vert>0</vert>
										</value>
									</parameter>
									<parameter authoringApp="PremierePro">
										<parameterid>centerOffset</parameterid>
										<name>Anchor Point</name>
										<value>
											<horiz>0</horiz>
											<vert>0</vert>
										</value>
									</parameter>
								</effect>
							</filter>
					</clipitem>
					<transitionitem>
						<start>16217</start>
						<end>16242</end>
						<alignment>start-black</alignment>
						<cutPoint>0</cutPoint>
						<rate>
							<timebase>25</timebase>
							<ntsc>FALSE</ntsc>
						</rate>
						<effect>
							<name>Cross Dissolve</name>
							<effectid>Cross Dissolve</effectid>
							<effectcategory>Dissolve</effectcategory>
							<effecttype>transition</effecttype>
							<mediatype>video</mediatype>
							<wipecode>0</wipecode>
							<wipeaccuracy>100</wipeaccuracy>
							<startratio>0</startratio>
							<endratio>1</endratio>
							<reverse>FALSE</reverse>
						</effect>
					</transitionitem>
					<clipitem id="clipitem-387" frameBlend="FALSE">
						<masterclipid>masterclip-181</masterclipid>
						<name>Vegard Copy 11</name>
						<enabled>TRUE</enabled>
						<duration>1080000</duration>
						<rate>
							<timebase>30</timebase>
							<ntsc>TRUE</ntsc>
						</rate>
						<start>-1</start>
						<end>16520</end>
						<in>271451</in>
						<out>271754</out>
						<alphatype>straight</alphatype>
						<pixelaspectratio>square</pixelaspectratio>
						<anamorphic>FALSE</anamorphic>
						<file id="file-180">
							<name>Internal Title</name>
							<mediaSource>Slug</mediaSource>
							<rate>
								<timebase>30</timebase>
								<ntsc>TRUE</ntsc>
							</rate>
							<timecode>
								<rate>
									<timebase>30</timebase>
									<ntsc>TRUE</ntsc>
								</rate>
								<string>00;00;00;00</string>
								<frame>0</frame>
								<displayformat>DF</displayformat>
							</timecode>
							<media>
								<video>
									<duration>18000</duration>
									<samplecharacteristics>
										<rate>
											<timebase>30</timebase>
											<ntsc>TRUE</ntsc>
										</rate>
										<width>1920</width>
										<height>1080</height>
										<anamorphic>FALSE</anamorphic>
										<pixelaspectratio>square</pixelaspectratio>
										<fielddominance>none</fielddominance>
									</samplecharacteristics>
								</video>
							</media>
						</file>
					</clipitem>
					<clipitem id="clipitem-388" frameBlend="FALSE">
						<masterclipid>masterclip-182</masterclipid>
						<name>Vegard Copy 10</name>
						<enabled>TRUE</enabled>
						<duration>1080000</duration>
						<rate>
							<timebase>30</timebase>
							<ntsc>TRUE</ntsc>
						</rate>
						<start>16520</start>
						<end>16619</end>
						<in>271397</in>
						<out>271496</out>
						<alphatype>straight</alphatype>
						<pixelaspectratio>square</pixelaspectratio>
						<anamorphic>FALSE</anamorphic>
						<file id="file-181">
							<name>Internal Title</name>
							<mediaSource>Slug</mediaSource>
							<rate>
								<timebase>30</timebase>
								<ntsc>TRUE</ntsc>
							</rate>
							<timecode>
								<rate>
									<timebase>30</timebase>
									<ntsc>TRUE</ntsc>
								</rate>
								<string>00;00;00;00</string>
								<frame>0</frame>
								<displayformat>DF</displayformat>
							</timecode>
							<media>
								<video>
									<duration>18000</duration>
									<samplecharacteristics>
										<rate>
											<timebase>30</timebase>
											<ntsc>TRUE</ntsc>
										</rate>
										<width>1920</width>
										<height>1080</height>
										<anamorphic>FALSE</anamorphic>
										<pixelaspectratio>square</pixelaspectratio>
										<fielddominance>none</fielddominance>
									</samplecharacteristics>
								</video>
							</media>
						</file>
					</clipitem>
					<transitionitem>
						<start>25014</start>
						<end>25023</end>
						<alignment>start-black</alignment>
						<cutPoint>0</cutPoint>
						<rate>
							<timebase>25</timebase>
							<ntsc>FALSE</ntsc>
						</rate>
						<effect>
							<name>Cross Dissolve</name>
							<effectid>Cross Dissolve</effectid>
							<effectcategory>Dissolve</effectcategory>
							<effecttype>transition</effecttype>
							<mediatype>video</mediatype>
							<wipecode>0</wipecode>
							<wipeaccuracy>100</wipeaccuracy>
							<startratio>0</startratio>
							<endratio>1</endratio>
							<reverse>FALSE</reverse>
						</effect>
					</transitionitem>
					<clipitem id="clipitem-389" frameBlend="FALSE">
						<masterclipid>masterclip-183</masterclipid>
						<name>Det er en film om de aller største</name>
						<enabled>FALSE</enabled>
						<duration>1080000</duration>
						<rate>
							<timebase>30</timebase>
							<ntsc>TRUE</ntsc>
						</rate>
						<start>-1</start>
						<end>25100</end>
						<in>89982</in>
						<out>90068</out>
						<alphatype>straight</alphatype>
						<pixelaspectratio>square</pixelaspectratio>
						<anamorphic>FALSE</anamorphic>
						<file id="file-182">
							<name>Det er en film om de aller største</name>
							<mediaSource>Slug</mediaSource>
							<rate>
								<timebase>30</timebase>
								<ntsc>TRUE</ntsc>
							</rate>
							<timecode>
								<rate>
									<timebase>30</timebase>
									<ntsc>TRUE</ntsc>
								</rate>
								<string>00;00;00;00</string>
								<frame>0</frame>
								<displayformat>DF</displayformat>
							</timecode>
							<media>
								<video>
									<duration>18000</duration>
									<samplecharacteristics>
										<rate>
											<timebase>30</timebase>
											<ntsc>TRUE</ntsc>
										</rate>
										<width>1920</width>
										<height>1080</height>
										<anamorphic>FALSE</anamorphic>
										<pixelaspectratio>square</pixelaspectratio>
										<fielddominance>none</fielddominance>
									</samplecharacteristics>
								</video>
							</media>
						</file>
							<filter>
								<effect>
									<name>Basic Motion</name>
									<effectid>basic</effectid>
									<effectcategory>motion</effectcategory>
									<effecttype>motion</effecttype>
									<mediatype>video</mediatype>
									<parameter authoringApp="PremierePro">
										<parameterid>scale</parameterid>
										<name>Scale</name>
										<valuemin>0</valuemin>
										<valuemax>1000</valuemax>
										<value>104</value>
										<keyframe>
											<when>89982</when>
											<value>100</value>
										</keyframe>
										<keyframe>
											<when>90071</when>
											<value>100</value>
										</keyframe>
									</parameter>
									<parameter authoringApp="PremierePro">
										<parameterid>rotation</parameterid>
										<name>Rotation</name>
										<valuemin>-8640</valuemin>
										<valuemax>8640</valuemax>
										<value>0</value>
									</parameter>
									<parameter authoringApp="PremierePro">
										<parameterid>center</parameterid>
										<name>Center</name>
										<value>
											<horiz>0</horiz>
											<vert>0</vert>
										</value>
										<keyframe>
											<when>89982</when>
											<value>
												<horiz>0</horiz>
												<vert>0</vert>
											</value>
										</keyframe>
										<keyframe>
											<when>90071</when>
											<value>
												<horiz>0</horiz>
												<vert>0</vert>
											</value>
										</keyframe>
									</parameter>
									<parameter authoringApp="PremierePro">
										<parameterid>centerOffset</parameterid>
										<name>Anchor Point</name>
										<value>
											<horiz>0</horiz>
											<vert>0</vert>
										</value>
									</parameter>
								</effect>
							</filter>
					</clipitem>
					<clipitem id="clipitem-390" frameBlend="FALSE">
						<masterclipid>masterclip-184</masterclipid>
						<name>Det er en film om de aller største Copy 01</name>
						<enabled>FALSE</enabled>
						<duration>1080000</duration>
						<rate>
							<timebase>30</timebase>
							<ntsc>TRUE</ntsc>
						</rate>
						<start>25100</start>
						<end>25192</end>
						<in>89982</in>
						<out>90074</out>
						<alphatype>straight</alphatype>
						<pixelaspectratio>square</pixelaspectratio>
						<anamorphic>FALSE</anamorphic>
						<file id="file-183">
							<name>Det er en film om de aller største</name>
							<mediaSource>Slug</mediaSource>
							<rate>
								<timebase>30</timebase>
								<ntsc>TRUE</ntsc>
							</rate>
							<timecode>
								<rate>
									<timebase>30</timebase>
									<ntsc>TRUE</ntsc>
								</rate>
								<string>00;00;00;00</string>
								<frame>0</frame>
								<displayformat>DF</displayformat>
							</timecode>
							<media>
								<video>
									<duration>18000</duration>
									<samplecharacteristics>
										<rate>
											<timebase>30</timebase>
											<ntsc>TRUE</ntsc>
										</rate>
										<width>1920</width>
										<height>1080</height>
										<anamorphic>FALSE</anamorphic>
										<pixelaspectratio>square</pixelaspectratio>
										<fielddominance>none</fielddominance>
									</samplecharacteristics>
								</video>
							</media>
						</file>
					</clipitem>
					<clipitem id="clipitem-391" frameBlend="FALSE">
						<masterclipid>masterclip-185</masterclipid>
						<name>Det er en film om de aller største Copy 02</name>
						<enabled>FALSE</enabled>
						<duration>1080000</duration>
						<rate>
							<timebase>30</timebase>
							<ntsc>TRUE</ntsc>
						</rate>
						<start>25192</start>
						<end>25312</end>
						<in>89982</in>
						<out>90102</out>
						<alphatype>straight</alphatype>
						<pixelaspectratio>square</pixelaspectratio>
						<anamorphic>FALSE</anamorphic>
						<file id="file-184">
							<name>Det er en film om de aller største</name>
							<mediaSource>Slug</mediaSource>
							<rate>
								<timebase>30</timebase>
								<ntsc>TRUE</ntsc>
							</rate>
							<timecode>
								<rate>
									<timebase>30</timebase>
									<ntsc>TRUE</ntsc>
								</rate>
								<string>00;00;00;00</string>
								<frame>0</frame>
								<displayformat>DF</displayformat>
							</timecode>
							<media>
								<video>
									<duration>18000</duration>
									<samplecharacteristics>
										<rate>
											<timebase>30</timebase>
											<ntsc>TRUE</ntsc>
										</rate>
										<width>1920</width>
										<height>1080</height>
										<anamorphic>FALSE</anamorphic>
										<pixelaspectratio>square</pixelaspectratio>
										<fielddominance>none</fielddominance>
									</samplecharacteristics>
								</video>
							</media>
						</file>
					</clipitem>
					<enabled>TRUE</enabled>
					<locked>FALSE</locked>
				</track>
				<track TL.SQTrackShy="0" TL.SQTrackExpandedHeight="25" TL.SQTrackExpanded="1" MZ.TrackTargeted="1">
					<clipitem id="clipitem-392" frameBlend="FALSE">
						<masterclipid>masterclip-7</masterclipid>
						<name>FILM_Loop_Grønn.mov</name>
						<enabled>TRUE</enabled>
						<duration>1000</duration>
						<rate>
							<ntsc>TRUE</ntsc>
							<timebase>30</timebase>
						</rate>
						<start>15007</start>
						<end>15168</end>
						<in>625</in>
						<out>786</out>
						<alphatype>none</alphatype>
						<file id="file-7"/>
							<filter>
								<effect>
									<name>Crop</name>
									<effectid>crop</effectid>
									<effectcategory>motion</effectcategory>
									<effecttype>motion</effecttype>
									<mediatype>video</mediatype>
									<parameter authoringApp="PremierePro">
										<parameterid>left</parameterid>
										<name>left</name>
										<valuemin>0</valuemin>
										<valuemax>100</valuemax>
										<value>45</value>
									</parameter>
									<parameter authoringApp="PremierePro">
										<parameterid>right</parameterid>
										<name>right</name>
										<valuemin>0</valuemin>
										<valuemax>100</valuemax>
										<value>45</value>
									</parameter>
									<parameter authoringApp="PremierePro">
										<parameterid>top</parameterid>
										<name>top</name>
										<valuemin>0</valuemin>
										<valuemax>100</valuemax>
										<value>41</value>
									</parameter>
									<parameter authoringApp="PremierePro">
										<parameterid>bottom</parameterid>
										<name>bottom</name>
										<valuemin>0</valuemin>
										<valuemax>100</valuemax>
										<value>41</value>
									</parameter>
								</effect>
							</filter>
					</clipitem>
					<transitionitem>
						<start>16300</start>
						<end>16325</end>
						<alignment>start-black</alignment>
						<cutPoint>0</cutPoint>
						<rate>
							<timebase>25</timebase>
							<ntsc>FALSE</ntsc>
						</rate>
						<effect>
							<name>Cross Dissolve</name>
							<effectid>Cross Dissolve</effectid>
							<effectcategory>Dissolve</effectcategory>
							<effecttype>transition</effecttype>
							<mediatype>video</mediatype>
							<wipecode>0</wipecode>
							<wipeaccuracy>100</wipeaccuracy>
							<startratio>0</startratio>
							<endratio>1</endratio>
							<reverse>FALSE</reverse>
						</effect>
					</transitionitem>
					<clipitem id="clipitem-393" frameBlend="FALSE">
						<masterclipid>masterclip-186</masterclipid>
						<name>Vegard Copy 12</name>
						<enabled>TRUE</enabled>
						<duration>1080000</duration>
						<rate>
							<timebase>30</timebase>
							<ntsc>TRUE</ntsc>
						</rate>
						<start>-1</start>
						<end>16520</end>
						<in>271409</in>
						<out>271629</out>
						<alphatype>straight</alphatype>
						<pixelaspectratio>square</pixelaspectratio>
						<anamorphic>FALSE</anamorphic>
						<file id="file-185">
							<name>Internal Title</name>
							<mediaSource>Slug</mediaSource>
							<rate>
								<timebase>30</timebase>
								<ntsc>TRUE</ntsc>
							</rate>
							<timecode>
								<rate>
									<timebase>30</timebase>
									<ntsc>TRUE</ntsc>
								</rate>
								<string>00;00;00;00</string>
								<frame>0</frame>
								<displayformat>DF</displayformat>
							</timecode>
							<media>
								<video>
									<duration>18000</duration>
									<samplecharacteristics>
										<rate>
											<timebase>30</timebase>
											<ntsc>TRUE</ntsc>
										</rate>
										<width>1920</width>
										<height>1080</height>
										<anamorphic>FALSE</anamorphic>
										<pixelaspectratio>square</pixelaspectratio>
										<fielddominance>none</fielddominance>
									</samplecharacteristics>
								</video>
							</media>
						</file>
					</clipitem>
					<clipitem id="clipitem-394" frameBlend="FALSE">
						<masterclipid>masterclip-187</masterclipid>
						<name>faksimiler poppe.mov</name>
						<enabled>TRUE</enabled>
						<duration>302</duration>
						<rate>
							<timebase>25</timebase>
							<ntsc>FALSE</ntsc>
						</rate>
						<start>25014</start>
						<end>25100</end>
						<in>0</in>
						<out>86</out>
						<alphatype>none</alphatype>
						<pixelaspectratio>square</pixelaspectratio>
						<anamorphic>FALSE</anamorphic>
						<file id="file-186">
							<name>faksimiler poppe.mov</name>
							<pathurl>file://localhost/Volumes/Scenen/Prosjekter/FILM/FILM%201413%20Master%20Filmbonanza%20Program%206%20H%c3%b8sten%202013/Eksport/faksimiler%20poppe.mov</pathurl>
							<rate>
								<timebase>25</timebase>
								<ntsc>FALSE</ntsc>
							</rate>
							<duration>302</duration>
							<timecode>
								<rate>
									<timebase>25</timebase>
									<ntsc>FALSE</ntsc>
								</rate>
								<string>00:29:25:01</string>
								<frame>44126</frame>
								<displayformat>NDF</displayformat>
							</timecode>
							<media>
								<video>
									<duration>18000</duration>
									<samplecharacteristics>
										<rate>
											<timebase>25</timebase>
											<ntsc>FALSE</ntsc>
										</rate>
										<width>1920</width>
										<height>1080</height>
										<anamorphic>FALSE</anamorphic>
										<pixelaspectratio>square</pixelaspectratio>
										<fielddominance>upper</fielddominance>
									</samplecharacteristics>
								</video>
							</media>
						</file>
							<filter>
								<effect>
									<name>Basic Motion</name>
									<effectid>basic</effectid>
									<effectcategory>motion</effectcategory>
									<effecttype>motion</effecttype>
									<mediatype>video</mediatype>
									<parameter authoringApp="PremierePro">
										<parameterid>scale</parameterid>
										<name>Scale</name>
										<valuemin>0</valuemin>
										<valuemax>1000</valuemax>
										<value>108</value>
										<keyframe>
											<when>0</when>
											<value>100</value>
										</keyframe>
										<keyframe>
											<when>85</when>
											<value>108</value>
										</keyframe>
									</parameter>
									<parameter authoringApp="PremierePro">
										<parameterid>rotation</parameterid>
										<name>Rotation</name>
										<valuemin>-8640</valuemin>
										<valuemax>8640</valuemax>
										<value>0</value>
									</parameter>
									<parameter authoringApp="PremierePro">
										<parameterid>center</parameterid>
										<name>Center</name>
										<value>
											<horiz>0</horiz>
											<vert>0</vert>
										</value>
										<keyframe>
											<when>0</when>
											<value>
												<horiz>0</horiz>
												<vert>0</vert>
											</value>
										</keyframe>
										<keyframe>
											<when>85</when>
											<value>
												<horiz>0</horiz>
												<vert>0.0305555</vert>
											</value>
										</keyframe>
									</parameter>
									<parameter authoringApp="PremierePro">
										<parameterid>centerOffset</parameterid>
										<name>Anchor Point</name>
										<value>
											<horiz>0</horiz>
											<vert>0</vert>
										</value>
									</parameter>
								</effect>
							</filter>
							<filter>
								<effect>
									<name>Crop</name>
									<effectid>crop</effectid>
									<effectcategory>motion</effectcategory>
									<effecttype>motion</effecttype>
									<mediatype>video</mediatype>
									<parameter authoringApp="PremierePro">
										<parameterid>left</parameterid>
										<name>left</name>
										<valuemin>0</valuemin>
										<valuemax>100</valuemax>
										<value>13</value>
									</parameter>
									<parameter authoringApp="PremierePro">
										<parameterid>right</parameterid>
										<name>right</name>
										<valuemin>0</valuemin>
										<valuemax>100</valuemax>
										<value>12</value>
									</parameter>
									<parameter authoringApp="PremierePro">
										<parameterid>top</parameterid>
										<name>top</name>
										<valuemin>0</valuemin>
										<valuemax>100</valuemax>
										<value>31</value>
									</parameter>
									<parameter authoringApp="PremierePro">
										<parameterid>bottom</parameterid>
										<name>bottom</name>
										<valuemin>0</valuemin>
										<valuemax>100</valuemax>
										<value>57</value>
									</parameter>
								</effect>
							</filter>
					</clipitem>
					<clipitem id="clipitem-395" frameBlend="FALSE">
						<masterclipid>masterclip-187</masterclipid>
						<name>faksimiler poppe.mov</name>
						<enabled>TRUE</enabled>
						<duration>302</duration>
						<rate>
							<ntsc>TRUE</ntsc>
							<timebase>30</timebase>
						</rate>
						<start>25100</start>
						<end>25192</end>
						<in>90</in>
						<out>182</out>
						<alphatype>none</alphatype>
						<file id="file-186"/>
							<filter>
								<effect>
									<name>Basic Motion</name>
									<effectid>basic</effectid>
									<effectcategory>motion</effectcategory>
									<effecttype>motion</effecttype>
									<mediatype>video</mediatype>
									<parameter authoringApp="PremierePro">
										<parameterid>scale</parameterid>
										<name>Scale</name>
										<valuemin>0</valuemin>
										<valuemax>1000</valuemax>
										<value>108</value>
										<keyframe>
											<when>90</when>
											<value>100</value>
										</keyframe>
										<keyframe>
											<when>180</when>
											<value>108</value>
										</keyframe>
									</parameter>
									<parameter authoringApp="PremierePro">
										<parameterid>rotation</parameterid>
										<name>Rotation</name>
										<valuemin>-8640</valuemin>
										<valuemax>8640</valuemax>
										<value>0</value>
									</parameter>
									<parameter authoringApp="PremierePro">
										<parameterid>center</parameterid>
										<name>Center</name>
										<value>
											<horiz>0</horiz>
											<vert>0</vert>
										</value>
										<keyframe>
											<when>90</when>
											<value>
												<horiz>0</horiz>
												<vert>0.0185185</vert>
											</value>
										</keyframe>
										<keyframe>
											<when>180</when>
											<value>
												<horiz>0</horiz>
												<vert>0.0305555</vert>
											</value>
										</keyframe>
									</parameter>
									<parameter authoringApp="PremierePro">
										<parameterid>centerOffset</parameterid>
										<name>Anchor Point</name>
										<value>
											<horiz>0</horiz>
											<vert>0</vert>
										</value>
									</parameter>
								</effect>
							</filter>
							<filter>
								<effect>
									<name>Crop</name>
									<effectid>crop</effectid>
									<effectcategory>motion</effectcategory>
									<effecttype>motion</effecttype>
									<mediatype>video</mediatype>
									<parameter authoringApp="PremierePro">
										<parameterid>left</parameterid>
										<name>left</name>
										<valuemin>0</valuemin>
										<valuemax>100</valuemax>
										<value>5</value>
									</parameter>
									<parameter authoringApp="PremierePro">
										<parameterid>right</parameterid>
										<name>right</name>
										<valuemin>0</valuemin>
										<valuemax>100</valuemax>
										<value>6</value>
									</parameter>
									<parameter authoringApp="PremierePro">
										<parameterid>top</parameterid>
										<name>top</name>
										<valuemin>0</valuemin>
										<valuemax>100</valuemax>
										<value>31</value>
									</parameter>
									<parameter authoringApp="PremierePro">
										<parameterid>bottom</parameterid>
										<name>bottom</name>
										<valuemin>0</valuemin>
										<valuemax>100</valuemax>
										<value>57</value>
									</parameter>
								</effect>
							</filter>
					</clipitem>
					<clipitem id="clipitem-396" frameBlend="FALSE">
						<masterclipid>masterclip-187</masterclipid>
						<name>faksimiler poppe.mov</name>
						<enabled>TRUE</enabled>
						<duration>302</duration>
						<rate>
							<ntsc>TRUE</ntsc>
							<timebase>30</timebase>
						</rate>
						<start>25192</start>
						<end>25312</end>
						<in>182</in>
						<out>302</out>
						<alphatype>none</alphatype>
						<file id="file-186"/>
							<filter>
								<effect>
									<name>Basic Motion</name>
									<effectid>basic</effectid>
									<effectcategory>motion</effectcategory>
									<effecttype>motion</effecttype>
									<mediatype>video</mediatype>
									<parameter authoringApp="PremierePro">
										<parameterid>scale</parameterid>
										<name>Scale</name>
										<valuemin>0</valuemin>
										<valuemax>1000</valuemax>
										<value>108</value>
										<keyframe>
											<when>182</when>
											<value>100</value>
										</keyframe>
										<keyframe>
											<when>300</when>
											<value>108</value>
										</keyframe>
									</parameter>
									<parameter authoringApp="PremierePro">
										<parameterid>rotation</parameterid>
										<name>Rotation</name>
										<valuemin>-8640</valuemin>
										<valuemax>8640</valuemax>
										<value>0</value>
									</parameter>
									<parameter authoringApp="PremierePro">
										<parameterid>center</parameterid>
										<name>Center</name>
										<value>
											<horiz>0</horiz>
											<vert>0</vert>
										</value>
										<keyframe>
											<when>182</when>
											<value>
												<horiz>0</horiz>
												<vert>-0.117593</vert>
											</value>
										</keyframe>
										<keyframe>
											<when>300</when>
											<value>
												<horiz>0</horiz>
												<vert>-0.117593</vert>
											</value>
										</keyframe>
									</parameter>
									<parameter authoringApp="PremierePro">
										<parameterid>centerOffset</parameterid>
										<name>Anchor Point</name>
										<value>
											<horiz>0</horiz>
											<vert>0</vert>
										</value>
									</parameter>
								</effect>
							</filter>
							<filter>
								<effect>
									<name>Crop</name>
									<effectid>crop</effectid>
									<effectcategory>motion</effectcategory>
									<effecttype>motion</effecttype>
									<mediatype>video</mediatype>
									<parameter authoringApp="PremierePro">
										<parameterid>left</parameterid>
										<name>left</name>
										<valuemin>0</valuemin>
										<valuemax>100</valuemax>
										<value>15</value>
									</parameter>
									<parameter authoringApp="PremierePro">
										<parameterid>right</parameterid>
										<name>right</name>
										<valuemin>0</valuemin>
										<valuemax>100</valuemax>
										<value>12</value>
									</parameter>
									<parameter authoringApp="PremierePro">
										<parameterid>top</parameterid>
										<name>top</name>
										<valuemin>0</valuemin>
										<valuemax>100</valuemax>
										<value>40</value>
									</parameter>
									<parameter authoringApp="PremierePro">
										<parameterid>bottom</parameterid>
										<name>bottom</name>
										<valuemin>0</valuemin>
										<valuemax>100</valuemax>
										<value>43</value>
									</parameter>
								</effect>
							</filter>
					</clipitem>
					<enabled>TRUE</enabled>
					<locked>FALSE</locked>
				</track>
				<track TL.SQTrackShy="0" TL.SQTrackExpandedHeight="25" TL.SQTrackExpanded="0" MZ.TrackTargeted="0">
					<clipitem id="clipitem-397" frameBlend="FALSE">
						<masterclipid>masterclip-7</masterclipid>
						<name>FILM_Loop_Grønn.mov</name>
						<enabled>TRUE</enabled>
						<duration>1000</duration>
						<rate>
							<ntsc>TRUE</ntsc>
							<timebase>30</timebase>
						</rate>
						<start>15007</start>
						<end>15168</end>
						<in>625</in>
						<out>786</out>
						<alphatype>none</alphatype>
						<file id="file-7"/>
							<filter>
								<effect>
									<name>Crop</name>
									<effectid>crop</effectid>
									<effectcategory>motion</effectcategory>
									<effecttype>motion</effecttype>
									<mediatype>video</mediatype>
									<parameter authoringApp="PremierePro">
										<parameterid>left</parameterid>
										<name>left</name>
										<valuemin>0</valuemin>
										<valuemax>100</valuemax>
										<value>0</value>
									</parameter>
									<parameter authoringApp="PremierePro">
										<parameterid>right</parameterid>
										<name>right</name>
										<valuemin>0</valuemin>
										<valuemax>100</valuemax>
										<value>45</value>
									</parameter>
									<parameter authoringApp="PremierePro">
										<parameterid>top</parameterid>
										<name>top</name>
										<valuemin>0</valuemin>
										<valuemax>100</valuemax>
										<value>80</value>
									</parameter>
									<parameter authoringApp="PremierePro">
										<parameterid>bottom</parameterid>
										<name>bottom</name>
										<valuemin>0</valuemin>
										<valuemax>100</valuemax>
										<value>0</value>
									</parameter>
								</effect>
							</filter>
					</clipitem>
					<transitionitem>
						<start>16375</start>
						<end>16400</end>
						<alignment>start-black</alignment>
						<cutPoint>0</cutPoint>
						<rate>
							<timebase>25</timebase>
							<ntsc>FALSE</ntsc>
						</rate>
						<effect>
							<name>Cross Dissolve</name>
							<effectid>Cross Dissolve</effectid>
							<effectcategory>Dissolve</effectcategory>
							<effecttype>transition</effecttype>
							<mediatype>video</mediatype>
							<wipecode>0</wipecode>
							<wipeaccuracy>100</wipeaccuracy>
							<startratio>0</startratio>
							<endratio>1</endratio>
							<reverse>FALSE</reverse>
						</effect>
					</transitionitem>
					<clipitem id="clipitem-398" frameBlend="FALSE">
						<masterclipid>masterclip-188</masterclipid>
						<name>Vegard Copy 09</name>
						<enabled>TRUE</enabled>
						<duration>1080000</duration>
						<rate>
							<timebase>30</timebase>
							<ntsc>TRUE</ntsc>
						</rate>
						<start>-1</start>
						<end>16520</end>
						<in>271389</in>
						<out>271534</out>
						<alphatype>straight</alphatype>
						<pixelaspectratio>square</pixelaspectratio>
						<anamorphic>FALSE</anamorphic>
						<file id="file-187">
							<name>Internal Title</name>
							<mediaSource>Slug</mediaSource>
							<rate>
								<timebase>30</timebase>
								<ntsc>TRUE</ntsc>
							</rate>
							<timecode>
								<rate>
									<timebase>30</timebase>
									<ntsc>TRUE</ntsc>
								</rate>
								<string>00;00;00;00</string>
								<frame>0</frame>
								<displayformat>DF</displayformat>
							</timecode>
							<media>
								<video>
									<duration>18000</duration>
									<samplecharacteristics>
										<rate>
											<timebase>30</timebase>
											<ntsc>TRUE</ntsc>
										</rate>
										<width>1920</width>
										<height>1080</height>
										<anamorphic>FALSE</anamorphic>
										<pixelaspectratio>square</pixelaspectratio>
										<fielddominance>none</fielddominance>
									</samplecharacteristics>
								</video>
							</media>
						</file>
					</clipitem>
					<enabled>TRUE</enabled>
					<locked>FALSE</locked>
				</track>
				<track TL.SQTrackShy="0" TL.SQTrackExpandedHeight="25" TL.SQTrackExpanded="0" MZ.TrackTargeted="0">
					<transitionitem>
						<start>15016</start>
						<end>15036</end>
						<alignment>start-black</alignment>
						<cutPoint>0</cutPoint>
						<rate>
							<timebase>25</timebase>
							<ntsc>FALSE</ntsc>
						</rate>
						<effect>
							<name>Cross Dissolve</name>
							<effectid>Cross Dissolve</effectid>
							<effectcategory>Dissolve</effectcategory>
							<effecttype>transition</effecttype>
							<mediatype>video</mediatype>
							<wipecode>0</wipecode>
							<wipeaccuracy>100</wipeaccuracy>
							<startratio>0</startratio>
							<endratio>1</endratio>
							<reverse>FALSE</reverse>
						</effect>
					</transitionitem>
					<clipitem id="clipitem-399" frameBlend="FALSE">
						<masterclipid>masterclip-153</masterclipid>
						<name>Vegard Copy 40</name>
						<enabled>TRUE</enabled>
						<duration>1080000</duration>
						<rate>
							<ntsc>TRUE</ntsc>
							<timebase>30</timebase>
						</rate>
						<start>-1</start>
						<end>15168</end>
						<in>271362</in>
						<out>271514</out>
						<alphatype>straight</alphatype>
						<file id="file-153"/>
							<filter>
								<effect>
									<name>Basic Motion</name>
									<effectid>basic</effectid>
									<effectcategory>motion</effectcategory>
									<effecttype>motion</effecttype>
									<mediatype>video</mediatype>
									<parameter authoringApp="PremierePro">
										<parameterid>scale</parameterid>
										<name>Scale</name>
										<valuemin>0</valuemin>
										<valuemax>1000</valuemax>
										<value>100</value>
									</parameter>
									<parameter authoringApp="PremierePro">
										<parameterid>rotation</parameterid>
										<name>Rotation</name>
										<valuemin>-8640</valuemin>
										<valuemax>8640</valuemax>
										<value>0</value>
									</parameter>
									<parameter authoringApp="PremierePro">
										<parameterid>center</parameterid>
										<name>Center</name>
										<value>
											<horiz>0</horiz>
											<vert>0.0444444</vert>
										</value>
									</parameter>
									<parameter authoringApp="PremierePro">
										<parameterid>centerOffset</parameterid>
										<name>Anchor Point</name>
										<value>
											<horiz>0</horiz>
											<vert>0</vert>
										</value>
									</parameter>
								</effect>
							</filter>
					</clipitem>
					<enabled>TRUE</enabled>
					<locked>FALSE</locked>
				</track>
			</video>
			<audio>
				<format>
					<samplecharacteristics>
						<depth>16</depth>
						<samplerate>48000</samplerate>
					</samplecharacteristics>
				</format>
				<outputs>
					<group>
						<index>1</index>
						<numchannels>1</numchannels>
						<downmix>0</downmix>
						<channel>
							<index>1</index>
						</channel>
					</group>
					<group>
						<index>2</index>
						<numchannels>1</numchannels>
						<downmix>0</downmix>
						<channel>
							<index>2</index>
						</channel>
					</group>
					<group>
						<index>3</index>
						<numchannels>1</numchannels>
						<downmix>0</downmix>
						<channel>
							<index>3</index>
						</channel>
					</group>
					<group>
						<index>4</index>
						<numchannels>1</numchannels>
						<downmix>0</downmix>
						<channel>
							<index>4</index>
						</channel>
					</group>
				</outputs>
				<track TL.SQTrackAudioKeyframeStyle="0" TL.SQTrackShy="0" TL.SQTrackExpandedHeight="285" TL.SQTrackExpanded="1" MZ.TrackTargeted="1" MZ.TrackName="Audio 1" PannerCurrentValue="0.5" PannerIsInverted="true" PannerStartKeyframe="-91445760000000000,0.5,0,0,0,0,0,0" PannerName="Balance" currentExplodedTrackIndex="0" totalExplodedTrackCount="1" premiereTrackType="Stereo">
					<clipitem id="clipitem-400" frameBlend="FALSE" PannerCurrentValue="0.5" PannerKeyframes="" PannerStartKeyframe="-91445760000000000,0.5,0,0,0,0,0,0" PannerIsInverted="true" PannerName="Pan">
						<masterclipid>masterclip-2</masterclipid>
						<name>mktf-film-visjonar-r08.MXF</name>
						<enabled>TRUE</enabled>
						<duration>1404</duration>
						<rate>
							<ntsc>TRUE</ntsc>
							<timebase>30</timebase>
						</rate>
						<start>77</start>
						<end>268</end>
						<in>696</in>
						<out>887</out>
						<file id="file-2"/>
						<sourcetrack>
							<mediatype>audio</mediatype>
							<trackindex>1</trackindex>
						</sourcetrack>
							<filter>
								<effect>
									<name>Gain</name>
									<effectid>{61756678, 4761696e, 4b657947}</effectid>
									<effecttype>filter</effecttype>
									<mediatype>audio</mediatype>
									<parameter authoringApp="PremierePro">
										<parameterid>Gain(dB)</parameterid>
										<name>Gain(dB)</name>
										<valuemin>-96</valuemin>
										<valuemax>96</valuemax>
										<value>12</value>
									</parameter>
								</effect>
							</filter>
							<filter>
								<effect>
									<name>Audio Levels</name>
									<effectid>audiolevels</effectid>
									<effectcategory>audiolevels</effectcategory>
									<effecttype>audiolevels</effecttype>
									<mediatype>audio</mediatype>
									<parameter authoringApp="PremierePro">
										<parameterid>level</parameterid>
										<name>Level</name>
										<valuemin>0</valuemin>
										<valuemax>3.98109</valuemax>
										<value>0</value>
										<keyframe>
											<when>846</when>
											<value>0.930374</value>
										</keyframe>
										<keyframe>
											<when>854</when>
											<value>1.50037</value>
										</keyframe>
										<keyframe>
											<when>863</when>
											<value>1.50037</value>
										</keyframe>
										<keyframe>
											<when>886</when>
											<value>0</value>
										</keyframe>
									</parameter>
								</effect>
							</filter>
							<filter>
								<effect>
									<name>Audio Pan</name>
									<effectid>audiopan</effectid>
									<effectcategory>audiopan</effectcategory>
									<effecttype>audiopan</effecttype>
									<mediatype>audio</mediatype>
									<parameter authoringApp="PremierePro">
										<parameterid>pan</parameterid>
										<name>Pan</name>
										<valuemin>-1</valuemin>
										<valuemax>1</valuemax>
										<value>0</value>
									</parameter>
								</effect>
							</filter>
					</clipitem>
					<clipitem id="clipitem-401" frameBlend="FALSE" PannerCurrentValue="0.5" PannerKeyframes="" PannerStartKeyframe="-91445760000000000,0.5,0,0,0,0,0,0" PannerIsInverted="true" PannerName="Pan">
						<masterclipid>masterclip-36</masterclipid>
						<name>filmb-apocalypsenow_1.mxf</name>
						<enabled>TRUE</enabled>
						<duration>9706</duration>
						<rate>
							<ntsc>TRUE</ntsc>
							<timebase>30</timebase>
						</rate>
						<start>301</start>
						<end>427</end>
						<in>3796</in>
						<out>3922</out>
						<file id="file-36"/>
						<sourcetrack>
							<mediatype>audio</mediatype>
							<trackindex>1</trackindex>
						</sourcetrack>
							<filter>
								<effect>
									<name>Gain</name>
									<effectid>{61756678, 4761696e, 4b657947}</effectid>
									<effecttype>filter</effecttype>
									<mediatype>audio</mediatype>
									<parameter authoringApp="PremierePro">
										<parameterid>Gain(dB)</parameterid>
										<name>Gain(dB)</name>
										<valuemin>-96</valuemin>
										<valuemax>96</valuemax>
										<value>6</value>
									</parameter>
								</effect>
							</filter>
							<filter>
								<effect>
									<name>Audio Levels</name>
									<effectid>audiolevels</effectid>
									<effectcategory>audiolevels</effectcategory>
									<effecttype>audiolevels</effecttype>
									<mediatype>audio</mediatype>
									<parameter authoringApp="PremierePro">
										<parameterid>level</parameterid>
										<name>Level</name>
										<valuemin>0</valuemin>
										<valuemax>3.98109</valuemax>
										<value>1.22929</value>
									</parameter>
								</effect>
							</filter>
							<filter>
								<effect>
									<name>Audio Pan</name>
									<effectid>audiopan</effectid>
									<effectcategory>audiopan</effectcategory>
									<effecttype>audiopan</effecttype>
									<mediatype>audio</mediatype>
									<parameter authoringApp="PremierePro">
										<parameterid>pan</parameterid>
										<name>Pan</name>
										<valuemin>-1</valuemin>
										<valuemax>1</valuemax>
										<value>0</value>
									</parameter>
								</effect>
							</filter>
						<link>
							<linkclipref>clipitem-154</linkclipref>
							<mediatype>video</mediatype>
							<trackindex>3</trackindex>
							<clipindex>3</clipindex>
						</link>
						<link>
							<linkclipref>clipitem-401</linkclipref>
							<mediatype>audio</mediatype>
							<trackindex>1</trackindex>
							<clipindex>2</clipindex>
							<groupindex>1</groupindex>
						</link>
					</clipitem>
					<clipitem id="clipitem-402" frameBlend="FALSE" PannerCurrentValue="0.5" PannerKeyframes="" PannerStartKeyframe="-91445760000000000,0.5,0,0,0,0,0,0" PannerIsInverted="true" PannerName="Pan">
						<masterclipid>masterclip-6</masterclipid>
						<name>mktf-film-munchen-A03.MXF</name>
						<enabled>TRUE</enabled>
						<duration>26784</duration>
						<rate>
							<ntsc>TRUE</ntsc>
							<timebase>30</timebase>
						</rate>
						<start>445</start>
						<end>532</end>
						<in>2566</in>
						<out>2653</out>
						<file id="file-6"/>
						<sourcetrack>
							<mediatype>audio</mediatype>
							<trackindex>2</trackindex>
						</sourcetrack>
							<filter>
								<effect>
									<name>Gain</name>
									<effectid>{61756678, 4761696e, 4b657947}</effectid>
									<effecttype>filter</effecttype>
									<mediatype>audio</mediatype>
									<parameter authoringApp="PremierePro">
										<parameterid>Gain(dB)</parameterid>
										<name>Gain(dB)</name>
										<valuemin>-96</valuemin>
										<valuemax>96</valuemax>
										<value>-6</value>
									</parameter>
								</effect>
							</filter>
							<filter>
								<effect>
									<name>Audio Levels</name>
									<effectid>audiolevels</effectid>
									<effectcategory>audiolevels</effectcategory>
									<effecttype>audiolevels</effecttype>
									<mediatype>audio</mediatype>
									<parameter authoringApp="PremierePro">
										<parameterid>level</parameterid>
										<name>Level</name>
										<valuemin>0</valuemin>
										<valuemax>3.98109</valuemax>
										<value>0.99763</value>
										<keyframe>
											<when>2353</when>
											<value>0</value>
										</keyframe>
										<keyframe>
											<when>2357</when>
											<value>0.99763</value>
										</keyframe>
										<keyframe>
											<when>2364</when>
											<value>0.99763</value>
										</keyframe>
										<keyframe>
											<when>2366</when>
											<value>0</value>
										</keyframe>
										<keyframe>
											<when>2408</when>
											<value>0</value>
										</keyframe>
										<keyframe>
											<when>2411</when>
											<value>0.99763</value>
										</keyframe>
										<keyframe>
											<when>3382</when>
											<value>0.99763</value>
										</keyframe>
										<keyframe>
											<when>3395</when>
											<value>0</value>
										</keyframe>
									</parameter>
								</effect>
							</filter>
							<filter>
								<effect>
									<name>Audio Pan</name>
									<effectid>audiopan</effectid>
									<effectcategory>audiopan</effectcategory>
									<effecttype>audiopan</effecttype>
									<mediatype>audio</mediatype>
									<parameter authoringApp="PremierePro">
										<parameterid>pan</parameterid>
										<name>Pan</name>
										<valuemin>-1</valuemin>
										<valuemax>1</valuemax>
										<value>0</value>
									</parameter>
								</effect>
							</filter>
						<link>
							<linkclipref>clipitem-155</linkclipref>
							<mediatype>video</mediatype>
							<trackindex>3</trackindex>
							<clipindex>4</clipindex>
						</link>
						<link>
							<linkclipref>clipitem-402</linkclipref>
							<mediatype>audio</mediatype>
							<trackindex>1</trackindex>
							<clipindex>3</clipindex>
							<groupindex>1</groupindex>
						</link>
					</clipitem>
					<clipitem id="clipitem-403" frameBlend="FALSE" PannerCurrentValue="0.5" PannerKeyframes="" PannerStartKeyframe="-91445760000000000,0.5,0,0,0,0,0,0" PannerIsInverted="true" PannerName="Pan">
						<masterclipid>masterclip-3</masterclipid>
						<name>mktf-film-visjonar-r14.MXF</name>
						<enabled>TRUE</enabled>
						<duration>888</duration>
						<rate>
							<ntsc>TRUE</ntsc>
							<timebase>30</timebase>
						</rate>
						<start>1276</start>
						<end>1759</end>
						<in>238</in>
						<out>721</out>
						<file id="file-3"/>
						<sourcetrack>
							<mediatype>audio</mediatype>
							<trackindex>1</trackindex>
						</sourcetrack>
							<filter>
								<effect>
									<name>Gain</name>
									<effectid>{61756678, 4761696e, 4b657947}</effectid>
									<effecttype>filter</effecttype>
									<mediatype>audio</mediatype>
									<parameter authoringApp="PremierePro">
										<parameterid>Gain(dB)</parameterid>
										<name>Gain(dB)</name>
										<valuemin>-96</valuemin>
										<valuemax>96</valuemax>
										<value>6</value>
									</parameter>
								</effect>
							</filter>
							<filter>
								<effect>
									<name>Audio Levels</name>
									<effectid>audiolevels</effectid>
									<effectcategory>audiolevels</effectcategory>
									<effecttype>audiolevels</effecttype>
									<mediatype>audio</mediatype>
									<parameter authoringApp="PremierePro">
										<parameterid>level</parameterid>
										<name>Level</name>
										<valuemin>0</valuemin>
										<valuemax>3.98109</valuemax>
										<value>0</value>
										<keyframe>
											<when>259</when>
											<value>0</value>
										</keyframe>
										<keyframe>
											<when>278</when>
											<value>0.99763</value>
										</keyframe>
										<keyframe>
											<when>706</when>
											<value>0.99763</value>
										</keyframe>
										<keyframe>
											<when>719</when>
											<value>0</value>
										</keyframe>
									</parameter>
								</effect>
							</filter>
							<filter>
								<effect>
									<name>Audio Pan</name>
									<effectid>audiopan</effectid>
									<effectcategory>audiopan</effectcategory>
									<effecttype>audiopan</effecttype>
									<mediatype>audio</mediatype>
									<parameter authoringApp="PremierePro">
										<parameterid>pan</parameterid>
										<name>Pan</name>
										<valuemin>-1</valuemin>
										<valuemax>1</valuemax>
										<value>0</value>
									</parameter>
								</effect>
							</filter>
						<link>
							<linkclipref>clipitem-4</linkclipref>
							<mediatype>video</mediatype>
							<trackindex>1</trackindex>
							<clipindex>4</clipindex>
						</link>
						<link>
							<linkclipref>clipitem-403</linkclipref>
							<mediatype>audio</mediatype>
							<trackindex>1</trackindex>
							<clipindex>4</clipindex>
							<groupindex>1</groupindex>
						</link>
					</clipitem>
					<transitionitem>
						<start>9962</start>
						<end>9987</end>
						<alignment>start-black</alignment>
						<cutPoint>0</cutPoint>
						<rate>
							<timebase>25</timebase>
							<ntsc>FALSE</ntsc>
						</rate>
						<effect>
							<name>Cross Fade (+3dB)</name>
							<effectid>KGAudioTransCrossFade3dB</effectid>
							<effecttype>transition</effecttype>
							<mediatype>audio</mediatype>
							<wipecode>0</wipecode>
							<wipeaccuracy>100</wipeaccuracy>
							<startratio>0</startratio>
							<endratio>1</endratio>
							<reverse>FALSE</reverse>
						</effect>
					</transitionitem>
					<clipitem id="clipitem-404" frameBlend="FALSE" PannerCurrentValue="" PannerKeyframes="" PannerStartKeyframe="-91445760000000000,1.,0,0,0,0,0,0" PannerIsInverted="true" PannerName="Pan">
						<masterclipid>masterclip-61</masterclipid>
						<name>Titanic</name>
						<enabled>TRUE</enabled>
						<duration>2524</duration>
						<rate>
							<ntsc>TRUE</ntsc>
							<timebase>30</timebase>
						</rate>
						<start>-1</start>
						<end>10063</end>
						<in>237</in>
						<out>338</out>
						<file id="file-61"/>
						<sourcetrack>
							<mediatype>audio</mediatype>
							<trackindex>2</trackindex>
						</sourcetrack>
							<filter>
								<effect>
									<name>Audio Levels</name>
									<effectid>audiolevels</effectid>
									<effectcategory>audiolevels</effectcategory>
									<effecttype>audiolevels</effecttype>
									<mediatype>audio</mediatype>
									<parameter authoringApp="PremierePro">
										<parameterid>level</parameterid>
										<name>Level</name>
										<valuemin>0</valuemin>
										<valuemax>3.98109</valuemax>
										<value>1.00237</value>
									</parameter>
								</effect>
							</filter>
							<filter>
								<effect>
									<name>Audio Pan</name>
									<effectid>audiopan</effectid>
									<effectcategory>audiopan</effectcategory>
									<effecttype>audiopan</effecttype>
									<mediatype>audio</mediatype>
									<parameter authoringApp="PremierePro">
										<parameterid>pan</parameterid>
										<name>Pan</name>
										<valuemin>-1</valuemin>
										<valuemax>1</valuemax>
										<value>1</value>
									</parameter>
								</effect>
							</filter>
						<link>
							<linkclipref>clipitem-227</linkclipref>
							<mediatype>video</mediatype>
							<trackindex>3</trackindex>
							<clipindex>94</clipindex>
						</link>
						<link>
							<linkclipref>clipitem-404</linkclipref>
							<mediatype>audio</mediatype>
							<trackindex>1</trackindex>
							<clipindex>6</clipindex>
							<groupindex>1</groupindex>
						</link>
					</clipitem>
					<clipitem id="clipitem-405" frameBlend="FALSE" PannerCurrentValue="0.5" PannerKeyframes="" PannerStartKeyframe="-91445760000000000,0.5,0,0,0,0,0,0" PannerIsInverted="true" PannerName="Pan">
						<masterclipid>masterclip-5</masterclipid>
						<name>mktf-film-visjonar-r27.MXF</name>
						<enabled>TRUE</enabled>
						<duration>600</duration>
						<rate>
							<ntsc>TRUE</ntsc>
							<timebase>30</timebase>
						</rate>
						<start>11601</start>
						<end>12049</end>
						<in>95</in>
						<out>543</out>
						<file id="file-5"/>
						<sourcetrack>
							<mediatype>audio</mediatype>
							<trackindex>1</trackindex>
						</sourcetrack>
							<filter>
								<effect>
									<name>Gain</name>
									<effectid>{61756678, 4761696e, 4b657947}</effectid>
									<effecttype>filter</effecttype>
									<mediatype>audio</mediatype>
									<parameter authoringApp="PremierePro">
										<parameterid>Gain(dB)</parameterid>
										<name>Gain(dB)</name>
										<valuemin>-96</valuemin>
										<valuemax>96</valuemax>
										<value>7</value>
									</parameter>
								</effect>
							</filter>
							<filter>
								<effect>
									<name>Audio Pan</name>
									<effectid>audiopan</effectid>
									<effectcategory>audiopan</effectcategory>
									<effecttype>audiopan</effecttype>
									<mediatype>audio</mediatype>
									<parameter authoringApp="PremierePro">
										<parameterid>pan</parameterid>
										<name>Pan</name>
										<valuemin>-1</valuemin>
										<valuemax>1</valuemax>
										<value>0</value>
									</parameter>
								</effect>
							</filter>
					</clipitem>
					<clipitem id="clipitem-406" frameBlend="FALSE" PannerCurrentValue="0.5" PannerKeyframes="" PannerStartKeyframe="-91445760000000000,0.5,0,0,0,0,0,0" PannerIsInverted="true" PannerName="Pan">
						<masterclipid>masterclip-6</masterclipid>
						<name>mktf-film-munchen-A03.MXF</name>
						<enabled>TRUE</enabled>
						<duration>26784</duration>
						<rate>
							<ntsc>TRUE</ntsc>
							<timebase>30</timebase>
						</rate>
						<start>12049</start>
						<end>12193</end>
						<in>975</in>
						<out>1119</out>
						<file id="file-6"/>
						<sourcetrack>
							<mediatype>audio</mediatype>
							<trackindex>1</trackindex>
						</sourcetrack>
							<filter>
								<effect>
									<name>Gain</name>
									<effectid>{61756678, 4761696e, 4b657947}</effectid>
									<effecttype>filter</effecttype>
									<mediatype>audio</mediatype>
									<parameter authoringApp="PremierePro">
										<parameterid>Gain(dB)</parameterid>
										<name>Gain(dB)</name>
										<valuemin>-96</valuemin>
										<valuemax>96</valuemax>
										<value>-6</value>
									</parameter>
								</effect>
							</filter>
							<filter>
								<effect>
									<name>Audio Levels</name>
									<effectid>audiolevels</effectid>
									<effectcategory>audiolevels</effectcategory>
									<effecttype>audiolevels</effecttype>
									<mediatype>audio</mediatype>
									<parameter authoringApp="PremierePro">
										<parameterid>level</parameterid>
										<name>Level</name>
										<valuemin>0</valuemin>
										<valuemax>3.98109</valuemax>
										<value>0</value>
										<keyframe>
											<when>1045</when>
											<value>0</value>
										</keyframe>
										<keyframe>
											<when>1048</when>
											<value>0.99763</value>
										</keyframe>
										<keyframe>
											<when>1108</when>
											<value>0.99763</value>
										</keyframe>
										<keyframe>
											<when>1110</when>
											<value>0</value>
										</keyframe>
									</parameter>
								</effect>
							</filter>
							<filter>
								<effect>
									<name>Audio Pan</name>
									<effectid>audiopan</effectid>
									<effectcategory>audiopan</effectcategory>
									<effecttype>audiopan</effecttype>
									<mediatype>audio</mediatype>
									<parameter authoringApp="PremierePro">
										<parameterid>pan</parameterid>
										<name>Pan</name>
										<valuemin>-1</valuemin>
										<valuemax>1</valuemax>
										<value>0</value>
									</parameter>
								</effect>
							</filter>
						<link>
							<linkclipref>clipitem-8</linkclipref>
							<mediatype>video</mediatype>
							<trackindex>1</trackindex>
							<clipindex>9</clipindex>
						</link>
						<link>
							<linkclipref>clipitem-406</linkclipref>
							<mediatype>audio</mediatype>
							<trackindex>1</trackindex>
							<clipindex>8</clipindex>
							<groupindex>1</groupindex>
						</link>
						<link>
							<linkclipref>clipitem-474</linkclipref>
							<mediatype>audio</mediatype>
							<trackindex>2</trackindex>
							<clipindex>2</clipindex>
							<groupindex>1</groupindex>
						</link>
					</clipitem>
					<clipitem id="clipitem-407" frameBlend="FALSE" PannerCurrentValue="0.5" PannerKeyframes="" PannerStartKeyframe="-91445760000000000,0.5,0,0,0,0,0,0" PannerIsInverted="true" PannerName="Pan">
						<masterclipid>masterclip-6</masterclipid>
						<name>mktf-film-munchen-A03.MXF</name>
						<enabled>TRUE</enabled>
						<duration>26784</duration>
						<rate>
							<ntsc>TRUE</ntsc>
							<timebase>30</timebase>
						</rate>
						<start>12193</start>
						<end>-1</end>
						<in>1119</in>
						<out>1161</out>
						<file id="file-6"/>
						<sourcetrack>
							<mediatype>audio</mediatype>
							<trackindex>1</trackindex>
						</sourcetrack>
							<filter>
								<effect>
									<name>Gain</name>
									<effectid>{61756678, 4761696e, 4b657947}</effectid>
									<effecttype>filter</effecttype>
									<mediatype>audio</mediatype>
									<parameter authoringApp="PremierePro">
										<parameterid>Gain(dB)</parameterid>
										<name>Gain(dB)</name>
										<valuemin>-96</valuemin>
										<valuemax>96</valuemax>
										<value>-6</value>
									</parameter>
								</effect>
							</filter>
							<filter>
								<effect>
									<name>Audio Levels</name>
									<effectid>audiolevels</effectid>
									<effectcategory>audiolevels</effectcategory>
									<effecttype>audiolevels</effecttype>
									<mediatype>audio</mediatype>
									<parameter authoringApp="PremierePro">
										<parameterid>level</parameterid>
										<name>Level</name>
										<valuemin>0</valuemin>
										<valuemax>3.98109</valuemax>
										<value>0</value>
										<keyframe>
											<when>1045</when>
											<value>0</value>
										</keyframe>
										<keyframe>
											<when>1048</when>
											<value>0.99763</value>
										</keyframe>
										<keyframe>
											<when>1108</when>
											<value>0.99763</value>
										</keyframe>
										<keyframe>
											<when>1110</when>
											<value>0</value>
										</keyframe>
									</parameter>
								</effect>
							</filter>
							<filter>
								<effect>
									<name>Audio Pan</name>
									<effectid>audiopan</effectid>
									<effectcategory>audiopan</effectcategory>
									<effecttype>audiopan</effecttype>
									<mediatype>audio</mediatype>
									<parameter authoringApp="PremierePro">
										<parameterid>pan</parameterid>
										<name>Pan</name>
										<valuemin>-1</valuemin>
										<valuemax>1</valuemax>
										<value>0</value>
									</parameter>
								</effect>
							</filter>
						<link>
							<linkclipref>clipitem-407</linkclipref>
							<mediatype>audio</mediatype>
							<trackindex>1</trackindex>
							<clipindex>9</clipindex>
							<groupindex>1</groupindex>
						</link>
						<link>
							<linkclipref>clipitem-475</linkclipref>
							<mediatype>audio</mediatype>
							<trackindex>2</trackindex>
							<clipindex>3</clipindex>
							<groupindex>1</groupindex>
						</link>
					</clipitem>
					<transitionitem>
						<start>12233</start>
						<end>12235</end>
						<alignment>center</alignment>
						<cutPoint>1</cutPoint>
						<rate>
							<timebase>25</timebase>
							<ntsc>FALSE</ntsc>
						</rate>
						<effect>
							<name>Cross Fade (+3dB)</name>
							<effectid>KGAudioTransCrossFade3dB</effectid>
							<effecttype>transition</effecttype>
							<mediatype>audio</mediatype>
							<wipecode>0</wipecode>
							<wipeaccuracy>100</wipeaccuracy>
							<startratio>0</startratio>
							<endratio>1</endratio>
							<reverse>FALSE</reverse>
						</effect>
					</transitionitem>
					<clipitem id="clipitem-408" frameBlend="FALSE" PannerCurrentValue="0.5" PannerKeyframes="" PannerStartKeyframe="-91445760000000000,0.5,0,0,0,0,0,0" PannerIsInverted="true" PannerName="Pan">
						<masterclipid>masterclip-6</masterclipid>
						<name>mktf-film-munchen-A03.MXF</name>
						<enabled>TRUE</enabled>
						<duration>26784</duration>
						<rate>
							<ntsc>TRUE</ntsc>
							<timebase>30</timebase>
						</rate>
						<start>-1</start>
						<end>12279</end>
						<in>1194</in>
						<out>1240</out>
						<file id="file-6"/>
						<sourcetrack>
							<mediatype>audio</mediatype>
							<trackindex>1</trackindex>
						</sourcetrack>
							<filter>
								<effect>
									<name>Gain</name>
									<effectid>{61756678, 4761696e, 4b657947}</effectid>
									<effecttype>filter</effecttype>
									<mediatype>audio</mediatype>
									<parameter authoringApp="PremierePro">
										<parameterid>Gain(dB)</parameterid>
										<name>Gain(dB)</name>
										<valuemin>-96</valuemin>
										<valuemax>96</valuemax>
										<value>-6</value>
									</parameter>
								</effect>
							</filter>
							<filter>
								<effect>
									<name>Audio Levels</name>
									<effectid>audiolevels</effectid>
									<effectcategory>audiolevels</effectcategory>
									<effecttype>audiolevels</effecttype>
									<mediatype>audio</mediatype>
									<parameter authoringApp="PremierePro">
										<parameterid>level</parameterid>
										<name>Level</name>
										<valuemin>0</valuemin>
										<valuemax>3.98109</valuemax>
										<value>0</value>
										<keyframe>
											<when>1204</when>
											<value>0</value>
										</keyframe>
										<keyframe>
											<when>1206</when>
											<value>0.99763</value>
										</keyframe>
										<keyframe>
											<when>1215</when>
											<value>0.99763</value>
										</keyframe>
										<keyframe>
											<when>1221</when>
											<value>0</value>
										</keyframe>
									</parameter>
								</effect>
							</filter>
							<filter>
								<effect>
									<name>Audio Pan</name>
									<effectid>audiopan</effectid>
									<effectcategory>audiopan</effectcategory>
									<effecttype>audiopan</effecttype>
									<mediatype>audio</mediatype>
									<parameter authoringApp="PremierePro">
										<parameterid>pan</parameterid>
										<name>Pan</name>
										<valuemin>-1</valuemin>
										<valuemax>1</valuemax>
										<value>0</value>
									</parameter>
								</effect>
							</filter>
						<link>
							<linkclipref>clipitem-9</linkclipref>
							<mediatype>video</mediatype>
							<trackindex>1</trackindex>
							<clipindex>10</clipindex>
						</link>
						<link>
							<linkclipref>clipitem-408</linkclipref>
							<mediatype>audio</mediatype>
							<trackindex>1</trackindex>
							<clipindex>11</clipindex>
							<groupindex>1</groupindex>
						</link>
						<link>
							<linkclipref>clipitem-476</linkclipref>
							<mediatype>audio</mediatype>
							<trackindex>2</trackindex>
							<clipindex>5</clipindex>
							<groupindex>1</groupindex>
						</link>
					</clipitem>
					<clipitem id="clipitem-409" frameBlend="FALSE" PannerCurrentValue="0.5" PannerKeyframes="" PannerStartKeyframe="-91445760000000000,0.5,0,0,0,0,0,0" PannerIsInverted="true" PannerName="Pan">
						<masterclipid>masterclip-6</masterclipid>
						<name>mktf-film-munchen-A03.MXF</name>
						<enabled>TRUE</enabled>
						<duration>26784</duration>
						<rate>
							<ntsc>TRUE</ntsc>
							<timebase>30</timebase>
						</rate>
						<start>15180</start>
						<end>15327</end>
						<in>2419</in>
						<out>2566</out>
						<file id="file-6"/>
						<sourcetrack>
							<mediatype>audio</mediatype>
							<trackindex>1</trackindex>
						</sourcetrack>
							<filter>
								<effect>
									<name>Audio Levels</name>
									<effectid>audiolevels</effectid>
									<effectcategory>audiolevels</effectcategory>
									<effecttype>audiolevels</effecttype>
									<mediatype>audio</mediatype>
									<parameter authoringApp="PremierePro">
										<parameterid>level</parameterid>
										<name>Level</name>
										<valuemin>0</valuemin>
										<valuemax>3.98109</valuemax>
										<value>0</value>
										<keyframe>
											<when>2411</when>
											<value>0.99763</value>
										</keyframe>
										<keyframe>
											<when>2417</when>
											<value>0</value>
										</keyframe>
										<keyframe>
											<when>2623</when>
											<value>0</value>
										</keyframe>
										<keyframe>
											<when>2628</when>
											<value>0.988703</value>
										</keyframe>
										<keyframe>
											<when>2640</when>
											<value>1.00074</value>
										</keyframe>
										<keyframe>
											<when>2653</when>
											<value>0</value>
										</keyframe>
										<keyframe>
											<when>2873</when>
											<value>0</value>
										</keyframe>
										<keyframe>
											<when>2878</when>
											<value>0.980128</value>
										</keyframe>
										<keyframe>
											<when>2887</when>
											<value>0.980128</value>
										</keyframe>
										<keyframe>
											<when>2891</when>
											<value>0</value>
										</keyframe>
										<keyframe>
											<when>3026</when>
											<value>0</value>
										</keyframe>
										<keyframe>
											<when>3064</when>
											<value>0</value>
										</keyframe>
										<keyframe>
											<when>3068</when>
											<value>0.888897</value>
										</keyframe>
										<keyframe>
											<when>3079</when>
											<value>0.918438</value>
										</keyframe>
										<keyframe>
											<when>3086</when>
											<value>0</value>
										</keyframe>
										<keyframe>
											<when>3382</when>
											<value>0</value>
										</keyframe>
										<keyframe>
											<when>3393</when>
											<value>0</value>
										</keyframe>
									</parameter>
								</effect>
							</filter>
							<filter>
								<effect>
									<name>Audio Pan</name>
									<effectid>audiopan</effectid>
									<effectcategory>audiopan</effectcategory>
									<effecttype>audiopan</effecttype>
									<mediatype>audio</mediatype>
									<parameter authoringApp="PremierePro">
										<parameterid>pan</parameterid>
										<name>Pan</name>
										<valuemin>-1</valuemin>
										<valuemax>1</valuemax>
										<value>0</value>
									</parameter>
								</effect>
							</filter>
						<link>
							<linkclipref>clipitem-11</linkclipref>
							<mediatype>video</mediatype>
							<trackindex>1</trackindex>
							<clipindex>13</clipindex>
						</link>
						<link>
							<linkclipref>clipitem-409</linkclipref>
							<mediatype>audio</mediatype>
							<trackindex>1</trackindex>
							<clipindex>12</clipindex>
							<groupindex>1</groupindex>
						</link>
						<link>
							<linkclipref>clipitem-477</linkclipref>
							<mediatype>audio</mediatype>
							<trackindex>2</trackindex>
							<clipindex>6</clipindex>
							<groupindex>1</groupindex>
						</link>
					</clipitem>
					<clipitem id="clipitem-410" frameBlend="FALSE" PannerCurrentValue="0.5" PannerKeyframes="" PannerStartKeyframe="-91445760000000000,0.5,0,0,0,0,0,0" PannerIsInverted="true" PannerName="Pan">
						<masterclipid>masterclip-6</masterclipid>
						<name>mktf-film-munchen-A03.MXF</name>
						<enabled>TRUE</enabled>
						<duration>26784</duration>
						<rate>
							<ntsc>TRUE</ntsc>
							<timebase>30</timebase>
						</rate>
						<start>15327</start>
						<end>15414</end>
						<in>2566</in>
						<out>2653</out>
						<file id="file-6"/>
						<sourcetrack>
							<mediatype>audio</mediatype>
							<trackindex>1</trackindex>
						</sourcetrack>
							<filter>
								<effect>
									<name>Audio Levels</name>
									<effectid>audiolevels</effectid>
									<effectcategory>audiolevels</effectcategory>
									<effecttype>audiolevels</effecttype>
									<mediatype>audio</mediatype>
									<parameter authoringApp="PremierePro">
										<parameterid>level</parameterid>
										<name>Level</name>
										<valuemin>0</valuemin>
										<valuemax>3.98109</valuemax>
										<value>0.00663005</value>
										<keyframe>
											<when>2411</when>
											<value>0.99763</value>
										</keyframe>
										<keyframe>
											<when>2417</when>
											<value>0</value>
										</keyframe>
										<keyframe>
											<when>2623</when>
											<value>0</value>
										</keyframe>
										<keyframe>
											<when>2628</when>
											<value>0.627357</value>
										</keyframe>
										<keyframe>
											<when>2640</when>
											<value>0.639395</value>
										</keyframe>
										<keyframe>
											<when>2653</when>
											<value>0</value>
										</keyframe>
										<keyframe>
											<when>2873</when>
											<value>0</value>
										</keyframe>
										<keyframe>
											<when>2878</when>
											<value>0.980128</value>
										</keyframe>
										<keyframe>
											<when>2887</when>
											<value>0.980128</value>
										</keyframe>
										<keyframe>
											<when>2891</when>
											<value>0</value>
										</keyframe>
										<keyframe>
											<when>3026</when>
											<value>0</value>
										</keyframe>
										<keyframe>
											<when>3064</when>
											<value>0</value>
										</keyframe>
										<keyframe>
											<when>3068</when>
											<value>0.888897</value>
										</keyframe>
										<keyframe>
											<when>3079</when>
											<value>0.918438</value>
										</keyframe>
										<keyframe>
											<when>3086</when>
											<value>0</value>
										</keyframe>
										<keyframe>
											<when>3382</when>
											<value>0</value>
										</keyframe>
										<keyframe>
											<when>3393</when>
											<value>0</value>
										</keyframe>
									</parameter>
								</effect>
							</filter>
							<filter>
								<effect>
									<name>Audio Pan</name>
									<effectid>audiopan</effectid>
									<effectcategory>audiopan</effectcategory>
									<effecttype>audiopan</effecttype>
									<mediatype>audio</mediatype>
									<parameter authoringApp="PremierePro">
										<parameterid>pan</parameterid>
										<name>Pan</name>
										<valuemin>-1</valuemin>
										<valuemax>1</valuemax>
										<value>0</value>
									</parameter>
								</effect>
							</filter>
						<link>
							<linkclipref>clipitem-410</linkclipref>
							<mediatype>audio</mediatype>
							<trackindex>1</trackindex>
							<clipindex>13</clipindex>
							<groupindex>1</groupindex>
						</link>
						<link>
							<linkclipref>clipitem-478</linkclipref>
							<mediatype>audio</mediatype>
							<trackindex>2</trackindex>
							<clipindex>7</clipindex>
							<groupindex>1</groupindex>
						</link>
					</clipitem>
					<clipitem id="clipitem-411" frameBlend="FALSE" PannerCurrentValue="0.5" PannerKeyframes="" PannerStartKeyframe="-91445760000000000,0.5,0,0,0,0,0,0" PannerIsInverted="true" PannerName="Pan">
						<masterclipid>masterclip-6</masterclipid>
						<name>mktf-film-munchen-A03.MXF</name>
						<enabled>TRUE</enabled>
						<duration>26784</duration>
						<rate>
							<ntsc>TRUE</ntsc>
							<timebase>30</timebase>
						</rate>
						<start>15414</start>
						<end>16147</end>
						<in>2653</in>
						<out>3386</out>
						<file id="file-6"/>
						<sourcetrack>
							<mediatype>audio</mediatype>
							<trackindex>1</trackindex>
						</sourcetrack>
							<filter>
								<effect>
									<name>Audio Levels</name>
									<effectid>audiolevels</effectid>
									<effectcategory>audiolevels</effectcategory>
									<effecttype>audiolevels</effecttype>
									<mediatype>audio</mediatype>
									<parameter authoringApp="PremierePro">
										<parameterid>level</parameterid>
										<name>Level</name>
										<valuemin>0</valuemin>
										<valuemax>3.98109</valuemax>
										<value>0</value>
										<keyframe>
											<when>2411</when>
											<value>0.99763</value>
										</keyframe>
										<keyframe>
											<when>2417</when>
											<value>0</value>
										</keyframe>
										<keyframe>
											<when>2623</when>
											<value>0</value>
										</keyframe>
										<keyframe>
											<when>2628</when>
											<value>0.988703</value>
										</keyframe>
										<keyframe>
											<when>2640</when>
											<value>1.00074</value>
										</keyframe>
										<keyframe>
											<when>2653</when>
											<value>0</value>
										</keyframe>
										<keyframe>
											<when>2873</when>
											<value>0</value>
										</keyframe>
										<keyframe>
											<when>2878</when>
											<value>0.603071</value>
										</keyframe>
										<keyframe>
											<when>2887</when>
											<value>0.603071</value>
										</keyframe>
										<keyframe>
											<when>2891</when>
											<value>0</value>
										</keyframe>
										<keyframe>
											<when>3026</when>
											<value>0</value>
										</keyframe>
										<keyframe>
											<when>3064</when>
											<value>0</value>
										</keyframe>
										<keyframe>
											<when>3068</when>
											<value>0.684658</value>
										</keyframe>
										<keyframe>
											<when>3079</when>
											<value>0.714199</value>
										</keyframe>
										<keyframe>
											<when>3086</when>
											<value>0</value>
										</keyframe>
										<keyframe>
											<when>3382</when>
											<value>0</value>
										</keyframe>
										<keyframe>
											<when>3393</when>
											<value>0</value>
										</keyframe>
									</parameter>
								</effect>
							</filter>
							<filter>
								<effect>
									<name>Audio Pan</name>
									<effectid>audiopan</effectid>
									<effectcategory>audiopan</effectcategory>
									<effecttype>audiopan</effecttype>
									<mediatype>audio</mediatype>
									<parameter authoringApp="PremierePro">
										<parameterid>pan</parameterid>
										<name>Pan</name>
										<valuemin>-1</valuemin>
										<valuemax>1</valuemax>
										<value>0</value>
									</parameter>
								</effect>
							</filter>
						<link>
							<linkclipref>clipitem-411</linkclipref>
							<mediatype>audio</mediatype>
							<trackindex>1</trackindex>
							<clipindex>14</clipindex>
							<groupindex>1</groupindex>
						</link>
						<link>
							<linkclipref>clipitem-479</linkclipref>
							<mediatype>audio</mediatype>
							<trackindex>2</trackindex>
							<clipindex>8</clipindex>
							<groupindex>1</groupindex>
						</link>
					</clipitem>
					<clipitem id="clipitem-412" frameBlend="FALSE" PannerCurrentValue="0.5" PannerKeyframes="" PannerStartKeyframe="-91445760000000000,0.5,0,0,0,0,0,0" PannerIsInverted="true" PannerName="Pan">
						<masterclipid>masterclip-8</masterclipid>
						<name>mktf-film-munchen-A01.MXF</name>
						<enabled>TRUE</enabled>
						<duration>21900</duration>
						<rate>
							<ntsc>TRUE</ntsc>
							<timebase>30</timebase>
						</rate>
						<start>16784</start>
						<end>18393</end>
						<in>15492</in>
						<out>17101</out>
						<file id="file-8"/>
						<sourcetrack>
							<mediatype>audio</mediatype>
							<trackindex>1</trackindex>
						</sourcetrack>
							<filter>
								<effect>
									<name>Gain</name>
									<effectid>{61756678, 4761696e, 4b657947}</effectid>
									<effecttype>filter</effecttype>
									<mediatype>audio</mediatype>
									<parameter authoringApp="PremierePro">
										<parameterid>Gain(dB)</parameterid>
										<name>Gain(dB)</name>
										<valuemin>-96</valuemin>
										<valuemax>96</valuemax>
										<value>-3</value>
									</parameter>
								</effect>
							</filter>
							<filter>
								<effect>
									<name>Audio Levels</name>
									<effectid>audiolevels</effectid>
									<effectcategory>audiolevels</effectcategory>
									<effecttype>audiolevels</effecttype>
									<mediatype>audio</mediatype>
									<parameter authoringApp="PremierePro">
										<parameterid>level</parameterid>
										<name>Level</name>
										<valuemin>0</valuemin>
										<valuemax>3.98109</valuemax>
										<value>1.64521</value>
										<keyframe>
											<when>2851</when>
											<value>0.980128</value>
										</keyframe>
										<keyframe>
											<when>2862</when>
											<value>0.998491</value>
										</keyframe>
										<keyframe>
											<when>4861</when>
											<value>1.99526</value>
										</keyframe>
										<keyframe>
											<when>4919</when>
											<value>1.99526</value>
										</keyframe>
										<keyframe>
											<when>4932</when>
											<value>0</value>
										</keyframe>
										<keyframe>
											<when>7371</when>
											<value>0</value>
										</keyframe>
										<keyframe>
											<when>7411</when>
											<value>1.64521</value>
										</keyframe>
										<keyframe>
											<when>15615</when>
											<value>1.64521</value>
										</keyframe>
										<keyframe>
											<when>15640</when>
											<value>0</value>
										</keyframe>
										<keyframe>
											<when>16492</when>
											<value>0</value>
										</keyframe>
										<keyframe>
											<when>16497</when>
											<value>1.01513</value>
										</keyframe>
										<keyframe>
											<when>16510</when>
											<value>1.01513</value>
										</keyframe>
										<keyframe>
											<when>16515</when>
											<value>0</value>
										</keyframe>
										<keyframe>
											<when>16819</when>
											<value>0</value>
										</keyframe>
										<keyframe>
											<when>16829</when>
											<value>1.05014</value>
										</keyframe>
										<keyframe>
											<when>16843</when>
											<value>1.05014</value>
										</keyframe>
										<keyframe>
											<when>16854</when>
											<value>0</value>
										</keyframe>
										<keyframe>
											<when>16890</when>
											<value>0</value>
										</keyframe>
										<keyframe>
											<when>16908</when>
											<value>1.75023</value>
										</keyframe>
										<keyframe>
											<when>16957</when>
											<value>1.75023</value>
										</keyframe>
										<keyframe>
											<when>16968</when>
											<value>0</value>
										</keyframe>
										<keyframe>
											<when>17056</when>
											<value>0</value>
										</keyframe>
										<keyframe>
											<when>17064</when>
											<value>1.12377</value>
										</keyframe>
										<keyframe>
											<when>17091</when>
											<value>1.12377</value>
										</keyframe>
										<keyframe>
											<when>17099</when>
											<value>0</value>
										</keyframe>
									</parameter>
								</effect>
							</filter>
							<filter>
								<effect>
									<name>Audio Pan</name>
									<effectid>audiopan</effectid>
									<effectcategory>audiopan</effectcategory>
									<effecttype>audiopan</effecttype>
									<mediatype>audio</mediatype>
									<parameter authoringApp="PremierePro">
										<parameterid>pan</parameterid>
										<name>Pan</name>
										<valuemin>-1</valuemin>
										<valuemax>1</valuemax>
										<value>0</value>
									</parameter>
								</effect>
							</filter>
						<link>
							<linkclipref>clipitem-412</linkclipref>
							<mediatype>audio</mediatype>
							<trackindex>1</trackindex>
							<clipindex>15</clipindex>
							<groupindex>1</groupindex>
						</link>
						<link>
							<linkclipref>clipitem-480</linkclipref>
							<mediatype>audio</mediatype>
							<trackindex>2</trackindex>
							<clipindex>9</clipindex>
							<groupindex>1</groupindex>
						</link>
					</clipitem>
					<clipitem id="clipitem-413" frameBlend="FALSE" PannerCurrentValue="0.5" PannerKeyframes="" PannerStartKeyframe="-91445760000000000,0.5,0,0,0,0,0,0" PannerIsInverted="true" PannerName="Pan">
						<masterclipid>masterclip-8</masterclipid>
						<name>mktf-film-munchen-A01.MXF</name>
						<enabled>TRUE</enabled>
						<duration>21900</duration>
						<rate>
							<ntsc>TRUE</ntsc>
							<timebase>30</timebase>
						</rate>
						<start>18393</start>
						<end>18536</end>
						<in>17388</in>
						<out>17531</out>
						<file id="file-8"/>
						<sourcetrack>
							<mediatype>audio</mediatype>
							<trackindex>1</trackindex>
						</sourcetrack>
							<filter>
								<effect>
									<name>Gain</name>
									<effectid>{61756678, 4761696e, 4b657947}</effectid>
									<effecttype>filter</effecttype>
									<mediatype>audio</mediatype>
									<parameter authoringApp="PremierePro">
										<parameterid>Gain(dB)</parameterid>
										<name>Gain(dB)</name>
										<valuemin>-96</valuemin>
										<valuemax>96</valuemax>
										<value>3</value>
									</parameter>
								</effect>
							</filter>
							<filter>
								<effect>
									<name>Audio Levels</name>
									<effectid>audiolevels</effectid>
									<effectcategory>audiolevels</effectcategory>
									<effecttype>audiolevels</effecttype>
									<mediatype>audio</mediatype>
									<parameter authoringApp="PremierePro">
										<parameterid>level</parameterid>
										<name>Level</name>
										<valuemin>0</valuemin>
										<valuemax>3.98109</valuemax>
										<value>0</value>
										<keyframe>
											<when>2851</when>
											<value>0.980128</value>
										</keyframe>
										<keyframe>
											<when>2862</when>
											<value>0.998491</value>
										</keyframe>
										<keyframe>
											<when>4861</when>
											<value>1.99526</value>
										</keyframe>
										<keyframe>
											<when>4919</when>
											<value>1.99526</value>
										</keyframe>
										<keyframe>
											<when>4932</when>
											<value>0</value>
										</keyframe>
										<keyframe>
											<when>7371</when>
											<value>0</value>
										</keyframe>
										<keyframe>
											<when>7411</when>
											<value>1.64521</value>
										</keyframe>
										<keyframe>
											<when>15615</when>
											<value>1.64521</value>
										</keyframe>
										<keyframe>
											<when>15640</when>
											<value>0</value>
										</keyframe>
										<keyframe>
											<when>16492</when>
											<value>0</value>
										</keyframe>
										<keyframe>
											<when>16497</when>
											<value>1.01513</value>
										</keyframe>
										<keyframe>
											<when>16510</when>
											<value>1.01513</value>
										</keyframe>
										<keyframe>
											<when>16515</when>
											<value>0</value>
										</keyframe>
										<keyframe>
											<when>16819</when>
											<value>0</value>
										</keyframe>
										<keyframe>
											<when>16829</when>
											<value>1.05014</value>
										</keyframe>
										<keyframe>
											<when>16843</when>
											<value>1.05014</value>
										</keyframe>
										<keyframe>
											<when>16854</when>
											<value>0</value>
										</keyframe>
										<keyframe>
											<when>16890</when>
											<value>0</value>
										</keyframe>
										<keyframe>
											<when>16908</when>
											<value>1.75023</value>
										</keyframe>
										<keyframe>
											<when>16957</when>
											<value>1.75023</value>
										</keyframe>
										<keyframe>
											<when>16968</when>
											<value>0</value>
										</keyframe>
										<keyframe>
											<when>17056</when>
											<value>0</value>
										</keyframe>
										<keyframe>
											<when>17064</when>
											<value>1.12377</value>
										</keyframe>
										<keyframe>
											<when>17091</when>
											<value>1.12377</value>
										</keyframe>
										<keyframe>
											<when>17099</when>
											<value>0</value>
										</keyframe>
									</parameter>
								</effect>
							</filter>
							<filter>
								<effect>
									<name>Audio Pan</name>
									<effectid>audiopan</effectid>
									<effectcategory>audiopan</effectcategory>
									<effecttype>audiopan</effecttype>
									<mediatype>audio</mediatype>
									<parameter authoringApp="PremierePro">
										<parameterid>pan</parameterid>
										<name>Pan</name>
										<valuemin>-1</valuemin>
										<valuemax>1</valuemax>
										<value>0</value>
									</parameter>
								</effect>
							</filter>
						<link>
							<linkclipref>clipitem-18</linkclipref>
							<mediatype>video</mediatype>
							<trackindex>1</trackindex>
							<clipindex>22</clipindex>
						</link>
						<link>
							<linkclipref>clipitem-413</linkclipref>
							<mediatype>audio</mediatype>
							<trackindex>1</trackindex>
							<clipindex>16</clipindex>
							<groupindex>1</groupindex>
						</link>
						<link>
							<linkclipref>clipitem-481</linkclipref>
							<mediatype>audio</mediatype>
							<trackindex>2</trackindex>
							<clipindex>10</clipindex>
							<groupindex>1</groupindex>
						</link>
					</clipitem>
					<clipitem id="clipitem-414" frameBlend="FALSE" PannerCurrentValue="0.5" PannerKeyframes="" PannerStartKeyframe="-91445760000000000,0.5,0,0,0,0,0,0" PannerIsInverted="true" PannerName="Pan">
						<masterclipid>masterclip-8</masterclipid>
						<name>mktf-film-munchen-A01.MXF</name>
						<enabled>TRUE</enabled>
						<duration>21900</duration>
						<rate>
							<ntsc>TRUE</ntsc>
							<timebase>30</timebase>
						</rate>
						<start>18538</start>
						<end>18737</end>
						<in>18407</in>
						<out>18606</out>
						<file id="file-8"/>
						<sourcetrack>
							<mediatype>audio</mediatype>
							<trackindex>1</trackindex>
						</sourcetrack>
							<filter>
								<effect>
									<name>Gain</name>
									<effectid>{61756678, 4761696e, 4b657947}</effectid>
									<effecttype>filter</effecttype>
									<mediatype>audio</mediatype>
									<parameter authoringApp="PremierePro">
										<parameterid>Gain(dB)</parameterid>
										<name>Gain(dB)</name>
										<valuemin>-96</valuemin>
										<valuemax>96</valuemax>
										<value>3</value>
									</parameter>
								</effect>
							</filter>
							<filter>
								<effect>
									<name>Audio Levels</name>
									<effectid>audiolevels</effectid>
									<effectcategory>audiolevels</effectcategory>
									<effecttype>audiolevels</effecttype>
									<mediatype>audio</mediatype>
									<parameter authoringApp="PremierePro">
										<parameterid>level</parameterid>
										<name>Level</name>
										<valuemin>0</valuemin>
										<valuemax>3.98109</valuemax>
										<value>0</value>
										<keyframe>
											<when>2851</when>
											<value>0.980128</value>
										</keyframe>
										<keyframe>
											<when>2862</when>
											<value>0.998491</value>
										</keyframe>
										<keyframe>
											<when>4861</when>
											<value>1.99526</value>
										</keyframe>
										<keyframe>
											<when>4919</when>
											<value>1.99526</value>
										</keyframe>
										<keyframe>
											<when>4932</when>
											<value>0</value>
										</keyframe>
										<keyframe>
											<when>7371</when>
											<value>0</value>
										</keyframe>
										<keyframe>
											<when>7411</when>
											<value>1.64521</value>
										</keyframe>
										<keyframe>
											<when>15615</when>
											<value>1.64521</value>
										</keyframe>
										<keyframe>
											<when>15640</when>
											<value>0</value>
										</keyframe>
										<keyframe>
											<when>16492</when>
											<value>0</value>
										</keyframe>
										<keyframe>
											<when>16497</when>
											<value>1.01513</value>
										</keyframe>
										<keyframe>
											<when>16510</when>
											<value>1.01513</value>
										</keyframe>
										<keyframe>
											<when>16515</when>
											<value>0</value>
										</keyframe>
										<keyframe>
											<when>16819</when>
											<value>0</value>
										</keyframe>
										<keyframe>
											<when>16829</when>
											<value>1.05014</value>
										</keyframe>
										<keyframe>
											<when>16843</when>
											<value>1.05014</value>
										</keyframe>
										<keyframe>
											<when>16854</when>
											<value>0</value>
										</keyframe>
										<keyframe>
											<when>16890</when>
											<value>0</value>
										</keyframe>
										<keyframe>
											<when>16908</when>
											<value>1.75023</value>
										</keyframe>
										<keyframe>
											<when>16957</when>
											<value>1.75023</value>
										</keyframe>
										<keyframe>
											<when>16968</when>
											<value>0</value>
										</keyframe>
										<keyframe>
											<when>17056</when>
											<value>0</value>
										</keyframe>
										<keyframe>
											<when>17064</when>
											<value>1.12377</value>
										</keyframe>
										<keyframe>
											<when>17091</when>
											<value>1.12377</value>
										</keyframe>
										<keyframe>
											<when>17099</when>
											<value>0</value>
										</keyframe>
										<keyframe>
											<when>18475</when>
											<value>0</value>
										</keyframe>
										<keyframe>
											<when>18483</when>
											<value>0.565586</value>
										</keyframe>
										<keyframe>
											<when>18501</when>
											<value>0.565586</value>
										</keyframe>
										<keyframe>
											<when>18507</when>
											<value>0</value>
										</keyframe>
									</parameter>
								</effect>
							</filter>
							<filter>
								<effect>
									<name>Audio Pan</name>
									<effectid>audiopan</effectid>
									<effectcategory>audiopan</effectcategory>
									<effecttype>audiopan</effecttype>
									<mediatype>audio</mediatype>
									<parameter authoringApp="PremierePro">
										<parameterid>pan</parameterid>
										<name>Pan</name>
										<valuemin>-1</valuemin>
										<valuemax>1</valuemax>
										<value>0</value>
									</parameter>
								</effect>
							</filter>
						<link>
							<linkclipref>clipitem-19</linkclipref>
							<mediatype>video</mediatype>
							<trackindex>1</trackindex>
							<clipindex>23</clipindex>
						</link>
						<link>
							<linkclipref>clipitem-414</linkclipref>
							<mediatype>audio</mediatype>
							<trackindex>1</trackindex>
							<clipindex>17</clipindex>
							<groupindex>1</groupindex>
						</link>
						<link>
							<linkclipref>clipitem-482</linkclipref>
							<mediatype>audio</mediatype>
							<trackindex>2</trackindex>
							<clipindex>11</clipindex>
							<groupindex>1</groupindex>
						</link>
					</clipitem>
					<clipitem id="clipitem-415" frameBlend="FALSE" PannerCurrentValue="0.5" PannerKeyframes="" PannerStartKeyframe="-91445760000000000,0.5,0,0,0,0,0,0" PannerIsInverted="true" PannerName="Pan">
						<masterclipid>masterclip-8</masterclipid>
						<name>mktf-film-munchen-A01.MXF</name>
						<enabled>TRUE</enabled>
						<duration>21900</duration>
						<rate>
							<ntsc>TRUE</ntsc>
							<timebase>30</timebase>
						</rate>
						<start>18737</start>
						<end>18778</end>
						<in>18641</in>
						<out>18682</out>
						<file id="file-8"/>
						<sourcetrack>
							<mediatype>audio</mediatype>
							<trackindex>1</trackindex>
						</sourcetrack>
							<filter>
								<effect>
									<name>Gain</name>
									<effectid>{61756678, 4761696e, 4b657947}</effectid>
									<effecttype>filter</effecttype>
									<mediatype>audio</mediatype>
									<parameter authoringApp="PremierePro">
										<parameterid>Gain(dB)</parameterid>
										<name>Gain(dB)</name>
										<valuemin>-96</valuemin>
										<valuemax>96</valuemax>
										<value>3</value>
									</parameter>
								</effect>
							</filter>
							<filter>
								<effect>
									<name>Audio Levels</name>
									<effectid>audiolevels</effectid>
									<effectcategory>audiolevels</effectcategory>
									<effecttype>audiolevels</effecttype>
									<mediatype>audio</mediatype>
									<parameter authoringApp="PremierePro">
										<parameterid>level</parameterid>
										<name>Level</name>
										<valuemin>0</valuemin>
										<valuemax>3.98109</valuemax>
										<value>0</value>
										<keyframe>
											<when>2851</when>
											<value>0.980128</value>
										</keyframe>
										<keyframe>
											<when>2862</when>
											<value>0.998491</value>
										</keyframe>
										<keyframe>
											<when>4861</when>
											<value>1.99526</value>
										</keyframe>
										<keyframe>
											<when>4919</when>
											<value>1.99526</value>
										</keyframe>
										<keyframe>
											<when>4932</when>
											<value>0</value>
										</keyframe>
										<keyframe>
											<when>7371</when>
											<value>0</value>
										</keyframe>
										<keyframe>
											<when>7411</when>
											<value>1.64521</value>
										</keyframe>
										<keyframe>
											<when>15615</when>
											<value>1.64521</value>
										</keyframe>
										<keyframe>
											<when>15640</when>
											<value>0</value>
										</keyframe>
										<keyframe>
											<when>16492</when>
											<value>0</value>
										</keyframe>
										<keyframe>
											<when>16497</when>
											<value>1.01513</value>
										</keyframe>
										<keyframe>
											<when>16510</when>
											<value>1.01513</value>
										</keyframe>
										<keyframe>
											<when>16515</when>
											<value>0</value>
										</keyframe>
										<keyframe>
											<when>16819</when>
											<value>0</value>
										</keyframe>
										<keyframe>
											<when>16829</when>
											<value>1.05014</value>
										</keyframe>
										<keyframe>
											<when>16843</when>
											<value>1.05014</value>
										</keyframe>
										<keyframe>
											<when>16854</when>
											<value>0</value>
										</keyframe>
										<keyframe>
											<when>16890</when>
											<value>0</value>
										</keyframe>
										<keyframe>
											<when>16908</when>
											<value>1.75023</value>
										</keyframe>
										<keyframe>
											<when>16957</when>
											<value>1.75023</value>
										</keyframe>
										<keyframe>
											<when>16968</when>
											<value>0</value>
										</keyframe>
										<keyframe>
											<when>17056</when>
											<value>0</value>
										</keyframe>
										<keyframe>
											<when>17064</when>
											<value>1.12377</value>
										</keyframe>
										<keyframe>
											<when>17091</when>
											<value>1.12377</value>
										</keyframe>
										<keyframe>
											<when>17099</when>
											<value>0</value>
										</keyframe>
									</parameter>
								</effect>
							</filter>
							<filter>
								<effect>
									<name>Audio Pan</name>
									<effectid>audiopan</effectid>
									<effectcategory>audiopan</effectcategory>
									<effecttype>audiopan</effecttype>
									<mediatype>audio</mediatype>
									<parameter authoringApp="PremierePro">
										<parameterid>pan</parameterid>
										<name>Pan</name>
										<valuemin>-1</valuemin>
										<valuemax>1</valuemax>
										<value>0</value>
									</parameter>
								</effect>
							</filter>
						<link>
							<linkclipref>clipitem-20</linkclipref>
							<mediatype>video</mediatype>
							<trackindex>1</trackindex>
							<clipindex>24</clipindex>
						</link>
						<link>
							<linkclipref>clipitem-415</linkclipref>
							<mediatype>audio</mediatype>
							<trackindex>1</trackindex>
							<clipindex>18</clipindex>
							<groupindex>1</groupindex>
						</link>
						<link>
							<linkclipref>clipitem-483</linkclipref>
							<mediatype>audio</mediatype>
							<trackindex>2</trackindex>
							<clipindex>12</clipindex>
							<groupindex>1</groupindex>
						</link>
					</clipitem>
					<clipitem id="clipitem-416" frameBlend="FALSE" PannerCurrentValue="0.5" PannerKeyframes="" PannerStartKeyframe="-91445760000000000,0.5,0,0,0,0,0,0" PannerIsInverted="true" PannerName="Pan">
						<masterclipid>masterclip-8</masterclipid>
						<name>mktf-film-munchen-A01.MXF</name>
						<enabled>TRUE</enabled>
						<duration>21900</duration>
						<rate>
							<ntsc>TRUE</ntsc>
							<timebase>30</timebase>
						</rate>
						<start>18778</start>
						<end>18831</end>
						<in>18780</in>
						<out>18833</out>
						<file id="file-8"/>
						<sourcetrack>
							<mediatype>audio</mediatype>
							<trackindex>1</trackindex>
						</sourcetrack>
							<filter>
								<effect>
									<name>Gain</name>
									<effectid>{61756678, 4761696e, 4b657947}</effectid>
									<effecttype>filter</effecttype>
									<mediatype>audio</mediatype>
									<parameter authoringApp="PremierePro">
										<parameterid>Gain(dB)</parameterid>
										<name>Gain(dB)</name>
										<valuemin>-96</valuemin>
										<valuemax>96</valuemax>
										<value>3</value>
									</parameter>
								</effect>
							</filter>
							<filter>
								<effect>
									<name>Audio Levels</name>
									<effectid>audiolevels</effectid>
									<effectcategory>audiolevels</effectcategory>
									<effecttype>audiolevels</effecttype>
									<mediatype>audio</mediatype>
									<parameter authoringApp="PremierePro">
										<parameterid>level</parameterid>
										<name>Level</name>
										<valuemin>0</valuemin>
										<valuemax>3.98109</valuemax>
										<value>0</value>
										<keyframe>
											<when>2851</when>
											<value>0.980128</value>
										</keyframe>
										<keyframe>
											<when>2862</when>
											<value>0.998491</value>
										</keyframe>
										<keyframe>
											<when>4861</when>
											<value>1.99526</value>
										</keyframe>
										<keyframe>
											<when>4919</when>
											<value>1.99526</value>
										</keyframe>
										<keyframe>
											<when>4932</when>
											<value>0</value>
										</keyframe>
										<keyframe>
											<when>7371</when>
											<value>0</value>
										</keyframe>
										<keyframe>
											<when>7411</when>
											<value>1.64521</value>
										</keyframe>
										<keyframe>
											<when>15615</when>
											<value>1.64521</value>
										</keyframe>
										<keyframe>
											<when>15640</when>
											<value>0</value>
										</keyframe>
										<keyframe>
											<when>16492</when>
											<value>0</value>
										</keyframe>
										<keyframe>
											<when>16497</when>
											<value>1.01513</value>
										</keyframe>
										<keyframe>
											<when>16510</when>
											<value>1.01513</value>
										</keyframe>
										<keyframe>
											<when>16515</when>
											<value>0</value>
										</keyframe>
										<keyframe>
											<when>16819</when>
											<value>0</value>
										</keyframe>
										<keyframe>
											<when>16829</when>
											<value>1.05014</value>
										</keyframe>
										<keyframe>
											<when>16843</when>
											<value>1.05014</value>
										</keyframe>
										<keyframe>
											<when>16854</when>
											<value>0</value>
										</keyframe>
										<keyframe>
											<when>16890</when>
											<value>0</value>
										</keyframe>
										<keyframe>
											<when>16908</when>
											<value>1.75023</value>
										</keyframe>
										<keyframe>
											<when>16957</when>
											<value>1.75023</value>
										</keyframe>
										<keyframe>
											<when>16968</when>
											<value>0</value>
										</keyframe>
										<keyframe>
											<when>17056</when>
											<value>0</value>
										</keyframe>
										<keyframe>
											<when>17064</when>
											<value>1.12377</value>
										</keyframe>
										<keyframe>
											<when>17091</when>
											<value>1.12377</value>
										</keyframe>
										<keyframe>
											<when>17099</when>
											<value>0</value>
										</keyframe>
									</parameter>
								</effect>
							</filter>
							<filter>
								<effect>
									<name>Audio Pan</name>
									<effectid>audiopan</effectid>
									<effectcategory>audiopan</effectcategory>
									<effecttype>audiopan</effecttype>
									<mediatype>audio</mediatype>
									<parameter authoringApp="PremierePro">
										<parameterid>pan</parameterid>
										<name>Pan</name>
										<valuemin>-1</valuemin>
										<valuemax>1</valuemax>
										<value>0</value>
									</parameter>
								</effect>
							</filter>
						<link>
							<linkclipref>clipitem-21</linkclipref>
							<mediatype>video</mediatype>
							<trackindex>1</trackindex>
							<clipindex>25</clipindex>
						</link>
						<link>
							<linkclipref>clipitem-416</linkclipref>
							<mediatype>audio</mediatype>
							<trackindex>1</trackindex>
							<clipindex>19</clipindex>
							<groupindex>1</groupindex>
						</link>
						<link>
							<linkclipref>clipitem-484</linkclipref>
							<mediatype>audio</mediatype>
							<trackindex>2</trackindex>
							<clipindex>13</clipindex>
							<groupindex>1</groupindex>
						</link>
					</clipitem>
					<clipitem id="clipitem-417" frameBlend="FALSE" PannerCurrentValue="0.5" PannerKeyframes="" PannerStartKeyframe="-91445760000000000,0.5,0,0,0,0,0,0" PannerIsInverted="true" PannerName="Pan">
						<masterclipid>masterclip-8</masterclipid>
						<name>mktf-film-munchen-A01.MXF</name>
						<enabled>TRUE</enabled>
						<duration>21900</duration>
						<rate>
							<ntsc>TRUE</ntsc>
							<timebase>30</timebase>
						</rate>
						<start>18831</start>
						<end>19033</end>
						<in>18893</in>
						<out>19095</out>
						<file id="file-8"/>
						<sourcetrack>
							<mediatype>audio</mediatype>
							<trackindex>1</trackindex>
						</sourcetrack>
							<filter>
								<effect>
									<name>Gain</name>
									<effectid>{61756678, 4761696e, 4b657947}</effectid>
									<effecttype>filter</effecttype>
									<mediatype>audio</mediatype>
									<parameter authoringApp="PremierePro">
										<parameterid>Gain(dB)</parameterid>
										<name>Gain(dB)</name>
										<valuemin>-96</valuemin>
										<valuemax>96</valuemax>
										<value>3</value>
									</parameter>
								</effect>
							</filter>
							<filter>
								<effect>
									<name>Audio Levels</name>
									<effectid>audiolevels</effectid>
									<effectcategory>audiolevels</effectcategory>
									<effecttype>audiolevels</effecttype>
									<mediatype>audio</mediatype>
									<parameter authoringApp="PremierePro">
										<parameterid>level</parameterid>
										<name>Level</name>
										<valuemin>0</valuemin>
										<valuemax>3.98109</valuemax>
										<value>0</value>
										<keyframe>
											<when>2851</when>
											<value>0.980128</value>
										</keyframe>
										<keyframe>
											<when>2862</when>
											<value>0.998491</value>
										</keyframe>
										<keyframe>
											<when>4861</when>
											<value>1.99526</value>
										</keyframe>
										<keyframe>
											<when>4919</when>
											<value>1.99526</value>
										</keyframe>
										<keyframe>
											<when>4932</when>
											<value>0</value>
										</keyframe>
										<keyframe>
											<when>7371</when>
											<value>0</value>
										</keyframe>
										<keyframe>
											<when>7411</when>
											<value>1.64521</value>
										</keyframe>
										<keyframe>
											<when>15615</when>
											<value>1.64521</value>
										</keyframe>
										<keyframe>
											<when>15640</when>
											<value>0</value>
										</keyframe>
										<keyframe>
											<when>16492</when>
											<value>0</value>
										</keyframe>
										<keyframe>
											<when>16497</when>
											<value>1.01513</value>
										</keyframe>
										<keyframe>
											<when>16510</when>
											<value>1.01513</value>
										</keyframe>
										<keyframe>
											<when>16515</when>
											<value>0</value>
										</keyframe>
										<keyframe>
											<when>16819</when>
											<value>0</value>
										</keyframe>
										<keyframe>
											<when>16829</when>
											<value>1.05014</value>
										</keyframe>
										<keyframe>
											<when>16843</when>
											<value>1.05014</value>
										</keyframe>
										<keyframe>
											<when>16854</when>
											<value>0</value>
										</keyframe>
										<keyframe>
											<when>16890</when>
											<value>0</value>
										</keyframe>
										<keyframe>
											<when>16908</when>
											<value>1.75023</value>
										</keyframe>
										<keyframe>
											<when>16957</when>
											<value>1.75023</value>
										</keyframe>
										<keyframe>
											<when>16968</when>
											<value>0</value>
										</keyframe>
										<keyframe>
											<when>17056</when>
											<value>0</value>
										</keyframe>
										<keyframe>
											<when>17064</when>
											<value>1.12377</value>
										</keyframe>
										<keyframe>
											<when>17091</when>
											<value>1.12377</value>
										</keyframe>
										<keyframe>
											<when>17099</when>
											<value>0</value>
										</keyframe>
										<keyframe>
											<when>18938</when>
											<value>0</value>
										</keyframe>
										<keyframe>
											<when>18945</when>
											<value>0.612718</value>
										</keyframe>
										<keyframe>
											<when>18953</when>
											<value>0.612718</value>
										</keyframe>
										<keyframe>
											<when>18961</when>
											<value>0</value>
										</keyframe>
									</parameter>
								</effect>
							</filter>
							<filter>
								<effect>
									<name>Audio Pan</name>
									<effectid>audiopan</effectid>
									<effectcategory>audiopan</effectcategory>
									<effecttype>audiopan</effecttype>
									<mediatype>audio</mediatype>
									<parameter authoringApp="PremierePro">
										<parameterid>pan</parameterid>
										<name>Pan</name>
										<valuemin>-1</valuemin>
										<valuemax>1</valuemax>
										<value>0</value>
									</parameter>
								</effect>
							</filter>
						<link>
							<linkclipref>clipitem-22</linkclipref>
							<mediatype>video</mediatype>
							<trackindex>1</trackindex>
							<clipindex>26</clipindex>
						</link>
						<link>
							<linkclipref>clipitem-417</linkclipref>
							<mediatype>audio</mediatype>
							<trackindex>1</trackindex>
							<clipindex>20</clipindex>
							<groupindex>1</groupindex>
						</link>
						<link>
							<linkclipref>clipitem-485</linkclipref>
							<mediatype>audio</mediatype>
							<trackindex>2</trackindex>
							<clipindex>14</clipindex>
							<groupindex>1</groupindex>
						</link>
					</clipitem>
					<clipitem id="clipitem-418" frameBlend="FALSE" PannerCurrentValue="0.5" PannerKeyframes="" PannerStartKeyframe="-91445760000000000,0.5,0,0,0,0,0,0" PannerIsInverted="true" PannerName="Pan">
						<masterclipid>masterclip-8</masterclipid>
						<name>mktf-film-munchen-A01.MXF</name>
						<enabled>TRUE</enabled>
						<duration>21900</duration>
						<rate>
							<ntsc>TRUE</ntsc>
							<timebase>30</timebase>
						</rate>
						<start>19033</start>
						<end>19235</end>
						<in>19119</in>
						<out>19321</out>
						<file id="file-8"/>
						<sourcetrack>
							<mediatype>audio</mediatype>
							<trackindex>1</trackindex>
						</sourcetrack>
							<filter>
								<effect>
									<name>Gain</name>
									<effectid>{61756678, 4761696e, 4b657947}</effectid>
									<effecttype>filter</effecttype>
									<mediatype>audio</mediatype>
									<parameter authoringApp="PremierePro">
										<parameterid>Gain(dB)</parameterid>
										<name>Gain(dB)</name>
										<valuemin>-96</valuemin>
										<valuemax>96</valuemax>
										<value>3</value>
									</parameter>
								</effect>
							</filter>
							<filter>
								<effect>
									<name>Audio Levels</name>
									<effectid>audiolevels</effectid>
									<effectcategory>audiolevels</effectcategory>
									<effecttype>audiolevels</effecttype>
									<mediatype>audio</mediatype>
									<parameter authoringApp="PremierePro">
										<parameterid>level</parameterid>
										<name>Level</name>
										<valuemin>0</valuemin>
										<valuemax>3.98109</valuemax>
										<value>0</value>
										<keyframe>
											<when>2851</when>
											<value>0.980128</value>
										</keyframe>
										<keyframe>
											<when>2862</when>
											<value>0.998491</value>
										</keyframe>
										<keyframe>
											<when>4861</when>
											<value>1.99526</value>
										</keyframe>
										<keyframe>
											<when>4919</when>
											<value>1.99526</value>
										</keyframe>
										<keyframe>
											<when>4932</when>
											<value>0</value>
										</keyframe>
										<keyframe>
											<when>7371</when>
											<value>0</value>
										</keyframe>
										<keyframe>
											<when>7411</when>
											<value>1.64521</value>
										</keyframe>
										<keyframe>
											<when>15615</when>
											<value>1.64521</value>
										</keyframe>
										<keyframe>
											<when>15640</when>
											<value>0</value>
										</keyframe>
										<keyframe>
											<when>16492</when>
											<value>0</value>
										</keyframe>
										<keyframe>
											<when>16497</when>
											<value>1.01513</value>
										</keyframe>
										<keyframe>
											<when>16510</when>
											<value>1.01513</value>
										</keyframe>
										<keyframe>
											<when>16515</when>
											<value>0</value>
										</keyframe>
										<keyframe>
											<when>16819</when>
											<value>0</value>
										</keyframe>
										<keyframe>
											<when>16829</when>
											<value>1.05014</value>
										</keyframe>
										<keyframe>
											<when>16843</when>
											<value>1.05014</value>
										</keyframe>
										<keyframe>
											<when>16854</when>
											<value>0</value>
										</keyframe>
										<keyframe>
											<when>16890</when>
											<value>0</value>
										</keyframe>
										<keyframe>
											<when>16908</when>
											<value>1.75023</value>
										</keyframe>
										<keyframe>
											<when>16957</when>
											<value>1.75023</value>
										</keyframe>
										<keyframe>
											<when>16968</when>
											<value>0</value>
										</keyframe>
										<keyframe>
											<when>17056</when>
											<value>0</value>
										</keyframe>
										<keyframe>
											<when>17064</when>
											<value>1.12377</value>
										</keyframe>
										<keyframe>
											<when>17091</when>
											<value>1.12377</value>
										</keyframe>
										<keyframe>
											<when>17099</when>
											<value>0</value>
										</keyframe>
									</parameter>
								</effect>
							</filter>
							<filter>
								<effect>
									<name>Audio Pan</name>
									<effectid>audiopan</effectid>
									<effectcategory>audiopan</effectcategory>
									<effecttype>audiopan</effecttype>
									<mediatype>audio</mediatype>
									<parameter authoringApp="PremierePro">
										<parameterid>pan</parameterid>
										<name>Pan</name>
										<valuemin>-1</valuemin>
										<valuemax>1</valuemax>
										<value>0</value>
									</parameter>
								</effect>
							</filter>
						<link>
							<linkclipref>clipitem-23</linkclipref>
							<mediatype>video</mediatype>
							<trackindex>1</trackindex>
							<clipindex>27</clipindex>
						</link>
						<link>
							<linkclipref>clipitem-418</linkclipref>
							<mediatype>audio</mediatype>
							<trackindex>1</trackindex>
							<clipindex>21</clipindex>
							<groupindex>1</groupindex>
						</link>
						<link>
							<linkclipref>clipitem-486</linkclipref>
							<mediatype>audio</mediatype>
							<trackindex>2</trackindex>
							<clipindex>15</clipindex>
							<groupindex>1</groupindex>
						</link>
					</clipitem>
					<transitionitem>
						<start>19715</start>
						<end>19716</end>
						<alignment>start-black</alignment>
						<cutPoint>0</cutPoint>
						<rate>
							<timebase>25</timebase>
							<ntsc>FALSE</ntsc>
						</rate>
						<effect>
							<name>Cross Fade (+3dB)</name>
							<effectid>KGAudioTransCrossFade3dB</effectid>
							<effecttype>transition</effecttype>
							<mediatype>audio</mediatype>
							<wipecode>0</wipecode>
							<wipeaccuracy>100</wipeaccuracy>
							<startratio>0</startratio>
							<endratio>1</endratio>
							<reverse>FALSE</reverse>
						</effect>
					</transitionitem>
					<clipitem id="clipitem-419" frameBlend="FALSE" PannerCurrentValue="0.5" PannerKeyframes="" PannerStartKeyframe="-91445760000000000,0.5,0,0,0,0,0,0" PannerIsInverted="true" PannerName="Pan">
						<masterclipid>masterclip-6</masterclipid>
						<name>mktf-film-munchen-A03.MXF</name>
						<enabled>TRUE</enabled>
						<duration>26784</duration>
						<rate>
							<ntsc>TRUE</ntsc>
							<timebase>30</timebase>
						</rate>
						<start>-1</start>
						<end>19792</end>
						<in>16021</in>
						<out>16098</out>
						<file id="file-6"/>
						<sourcetrack>
							<mediatype>audio</mediatype>
							<trackindex>1</trackindex>
						</sourcetrack>
							<filter>
								<effect>
									<name>Gain</name>
									<effectid>{61756678, 4761696e, 4b657947}</effectid>
									<effecttype>filter</effecttype>
									<mediatype>audio</mediatype>
									<parameter authoringApp="PremierePro">
										<parameterid>Gain(dB)</parameterid>
										<name>Gain(dB)</name>
										<valuemin>-96</valuemin>
										<valuemax>96</valuemax>
										<value>-6</value>
									</parameter>
								</effect>
							</filter>
							<filter>
								<effect>
									<name>Audio Pan</name>
									<effectid>audiopan</effectid>
									<effectcategory>audiopan</effectcategory>
									<effecttype>audiopan</effecttype>
									<mediatype>audio</mediatype>
									<parameter authoringApp="PremierePro">
										<parameterid>pan</parameterid>
										<name>Pan</name>
										<valuemin>-1</valuemin>
										<valuemax>1</valuemax>
										<value>0</value>
									</parameter>
								</effect>
							</filter>
					</clipitem>
					<clipitem id="clipitem-420" frameBlend="FALSE" PannerCurrentValue="0.5" PannerKeyframes="" PannerStartKeyframe="-91445760000000000,0.5,0,0,0,0,0,0" PannerIsInverted="true" PannerName="Pan">
						<masterclipid>masterclip-6</masterclipid>
						<name>mktf-film-munchen-A03.MXF</name>
						<enabled>TRUE</enabled>
						<duration>26784</duration>
						<rate>
							<ntsc>TRUE</ntsc>
							<timebase>30</timebase>
						</rate>
						<start>19792</start>
						<end>19914</end>
						<in>16650</in>
						<out>16772</out>
						<file id="file-6"/>
						<sourcetrack>
							<mediatype>audio</mediatype>
							<trackindex>1</trackindex>
						</sourcetrack>
							<filter>
								<effect>
									<name>Gain</name>
									<effectid>{61756678, 4761696e, 4b657947}</effectid>
									<effecttype>filter</effecttype>
									<mediatype>audio</mediatype>
									<parameter authoringApp="PremierePro">
										<parameterid>Gain(dB)</parameterid>
										<name>Gain(dB)</name>
										<valuemin>-96</valuemin>
										<valuemax>96</valuemax>
										<value>-6</value>
									</parameter>
								</effect>
							</filter>
							<filter>
								<effect>
									<name>Audio Levels</name>
									<effectid>audiolevels</effectid>
									<effectcategory>audiolevels</effectcategory>
									<effecttype>audiolevels</effecttype>
									<mediatype>audio</mediatype>
									<parameter authoringApp="PremierePro">
										<parameterid>level</parameterid>
										<name>Level</name>
										<valuemin>0</valuemin>
										<valuemax>3.98109</valuemax>
										<value>0</value>
										<keyframe>
											<when>16677</when>
											<value>0</value>
										</keyframe>
										<keyframe>
											<when>16680</when>
											<value>0.970205</value>
										</keyframe>
										<keyframe>
											<when>16692</when>
											<value>0.970205</value>
										</keyframe>
										<keyframe>
											<when>16699</when>
											<value>0</value>
										</keyframe>
										<keyframe>
											<when>16739</when>
											<value>0</value>
										</keyframe>
										<keyframe>
											<when>16746</when>
											<value>0</value>
										</keyframe>
									</parameter>
								</effect>
							</filter>
							<filter>
								<effect>
									<name>Audio Pan</name>
									<effectid>audiopan</effectid>
									<effectcategory>audiopan</effectcategory>
									<effecttype>audiopan</effecttype>
									<mediatype>audio</mediatype>
									<parameter authoringApp="PremierePro">
										<parameterid>pan</parameterid>
										<name>Pan</name>
										<valuemin>-1</valuemin>
										<valuemax>1</valuemax>
										<value>0</value>
									</parameter>
								</effect>
							</filter>
					</clipitem>
					<clipitem id="clipitem-421" frameBlend="FALSE" PannerCurrentValue="0.5" PannerKeyframes="" PannerStartKeyframe="-91445760000000000,0.5,0,0,0,0,0,0" PannerIsInverted="true" PannerName="Pan">
						<masterclipid>masterclip-8</masterclipid>
						<name>mktf-film-munchen-A01.MXF</name>
						<enabled>TRUE</enabled>
						<duration>21900</duration>
						<rate>
							<ntsc>TRUE</ntsc>
							<timebase>30</timebase>
						</rate>
						<start>20250</start>
						<end>20878</end>
						<in>5282</in>
						<out>5910</out>
						<file id="file-8"/>
						<sourcetrack>
							<mediatype>audio</mediatype>
							<trackindex>1</trackindex>
						</sourcetrack>
							<filter>
								<effect>
									<name>Gain</name>
									<effectid>{61756678, 4761696e, 4b657947}</effectid>
									<effecttype>filter</effecttype>
									<mediatype>audio</mediatype>
									<parameter authoringApp="PremierePro">
										<parameterid>Gain(dB)</parameterid>
										<name>Gain(dB)</name>
										<valuemin>-96</valuemin>
										<valuemax>96</valuemax>
										<value>9</value>
									</parameter>
								</effect>
							</filter>
							<filter>
								<effect>
									<name>Audio Levels</name>
									<effectid>audiolevels</effectid>
									<effectcategory>audiolevels</effectcategory>
									<effecttype>audiolevels</effecttype>
									<mediatype>audio</mediatype>
									<parameter authoringApp="PremierePro">
										<parameterid>level</parameterid>
										<name>Level</name>
										<valuemin>0</valuemin>
										<valuemax>3.98109</valuemax>
										<value>0</value>
										<keyframe>
											<when>2851</when>
											<value>0.980128</value>
										</keyframe>
										<keyframe>
											<when>2862</when>
											<value>0.998491</value>
										</keyframe>
										<keyframe>
											<when>4861</when>
											<value>1.99526</value>
										</keyframe>
										<keyframe>
											<when>4919</when>
											<value>1.99526</value>
										</keyframe>
										<keyframe>
											<when>4932</when>
											<value>0</value>
										</keyframe>
										<keyframe>
											<when>5265</when>
											<value>0</value>
										</keyframe>
										<keyframe>
											<when>5270</when>
											<value>1.81179</value>
										</keyframe>
										<keyframe>
											<when>5277</when>
											<value>1.81179</value>
										</keyframe>
										<keyframe>
											<when>5280</when>
											<value>0</value>
										</keyframe>
										<keyframe>
											<when>6336</when>
											<value>0</value>
										</keyframe>
										<keyframe>
											<when>6338</when>
											<value>1.99526</value>
										</keyframe>
										<keyframe>
											<when>6349</when>
											<value>1.99526</value>
										</keyframe>
										<keyframe>
											<when>6353</when>
											<value>0</value>
										</keyframe>
										<keyframe>
											<when>7010</when>
											<value>0</value>
										</keyframe>
										<keyframe>
											<when>7013</when>
											<value>1.99526</value>
										</keyframe>
										<keyframe>
											<when>7020</when>
											<value>1.99526</value>
										</keyframe>
										<keyframe>
											<when>7021</when>
											<value>0</value>
										</keyframe>
										<keyframe>
											<when>7371</when>
											<value>0</value>
										</keyframe>
										<keyframe>
											<when>7414</when>
											<value>0</value>
										</keyframe>
									</parameter>
								</effect>
							</filter>
							<filter>
								<effect>
									<name>Audio Pan</name>
									<effectid>audiopan</effectid>
									<effectcategory>audiopan</effectcategory>
									<effecttype>audiopan</effecttype>
									<mediatype>audio</mediatype>
									<parameter authoringApp="PremierePro">
										<parameterid>pan</parameterid>
										<name>Pan</name>
										<valuemin>-1</valuemin>
										<valuemax>1</valuemax>
										<value>0</value>
									</parameter>
								</effect>
							</filter>
						<link>
							<linkclipref>clipitem-421</linkclipref>
							<mediatype>audio</mediatype>
							<trackindex>1</trackindex>
							<clipindex>25</clipindex>
							<groupindex>1</groupindex>
						</link>
						<link>
							<linkclipref>clipitem-489</linkclipref>
							<mediatype>audio</mediatype>
							<trackindex>2</trackindex>
							<clipindex>18</clipindex>
							<groupindex>1</groupindex>
						</link>
					</clipitem>
					<clipitem id="clipitem-422" frameBlend="FALSE" PannerCurrentValue="0.5" PannerKeyframes="" PannerStartKeyframe="-91445760000000000,0.5,0,0,0,0,0,0" PannerIsInverted="true" PannerName="Pan">
						<masterclipid>masterclip-8</masterclipid>
						<name>mktf-film-munchen-A01.MXF</name>
						<enabled>TRUE</enabled>
						<duration>21900</duration>
						<rate>
							<ntsc>TRUE</ntsc>
							<timebase>30</timebase>
						</rate>
						<start>20878</start>
						<end>20943</end>
						<in>5931</in>
						<out>5996</out>
						<file id="file-8"/>
						<sourcetrack>
							<mediatype>audio</mediatype>
							<trackindex>1</trackindex>
						</sourcetrack>
							<filter>
								<effect>
									<name>Gain</name>
									<effectid>{61756678, 4761696e, 4b657947}</effectid>
									<effecttype>filter</effecttype>
									<mediatype>audio</mediatype>
									<parameter authoringApp="PremierePro">
										<parameterid>Gain(dB)</parameterid>
										<name>Gain(dB)</name>
										<valuemin>-96</valuemin>
										<valuemax>96</valuemax>
										<value>9</value>
									</parameter>
								</effect>
							</filter>
							<filter>
								<effect>
									<name>Audio Levels</name>
									<effectid>audiolevels</effectid>
									<effectcategory>audiolevels</effectcategory>
									<effecttype>audiolevels</effecttype>
									<mediatype>audio</mediatype>
									<parameter authoringApp="PremierePro">
										<parameterid>level</parameterid>
										<name>Level</name>
										<valuemin>0</valuemin>
										<valuemax>3.98109</valuemax>
										<value>0</value>
										<keyframe>
											<when>2851</when>
											<value>0.980128</value>
										</keyframe>
										<keyframe>
											<when>2862</when>
											<value>0.998491</value>
										</keyframe>
										<keyframe>
											<when>4861</when>
											<value>1.99526</value>
										</keyframe>
										<keyframe>
											<when>4919</when>
											<value>1.99526</value>
										</keyframe>
										<keyframe>
											<when>4932</when>
											<value>0</value>
										</keyframe>
										<keyframe>
											<when>5265</when>
											<value>0</value>
										</keyframe>
										<keyframe>
											<when>5270</when>
											<value>1.81179</value>
										</keyframe>
										<keyframe>
											<when>5277</when>
											<value>1.81179</value>
										</keyframe>
										<keyframe>
											<when>5280</when>
											<value>0</value>
										</keyframe>
										<keyframe>
											<when>6336</when>
											<value>0</value>
										</keyframe>
										<keyframe>
											<when>6338</when>
											<value>1.99526</value>
										</keyframe>
										<keyframe>
											<when>6349</when>
											<value>1.99526</value>
										</keyframe>
										<keyframe>
											<when>6353</when>
											<value>0</value>
										</keyframe>
										<keyframe>
											<when>7010</when>
											<value>0</value>
										</keyframe>
										<keyframe>
											<when>7013</when>
											<value>1.99526</value>
										</keyframe>
										<keyframe>
											<when>7020</when>
											<value>1.99526</value>
										</keyframe>
										<keyframe>
											<when>7021</when>
											<value>0</value>
										</keyframe>
										<keyframe>
											<when>7371</when>
											<value>0</value>
										</keyframe>
										<keyframe>
											<when>7414</when>
											<value>0</value>
										</keyframe>
									</parameter>
								</effect>
							</filter>
							<filter>
								<effect>
									<name>Audio Pan</name>
									<effectid>audiopan</effectid>
									<effectcategory>audiopan</effectcategory>
									<effecttype>audiopan</effecttype>
									<mediatype>audio</mediatype>
									<parameter authoringApp="PremierePro">
										<parameterid>pan</parameterid>
										<name>Pan</name>
										<valuemin>-1</valuemin>
										<valuemax>1</valuemax>
										<value>0</value>
									</parameter>
								</effect>
							</filter>
					</clipitem>
					<clipitem id="clipitem-423" frameBlend="FALSE" PannerCurrentValue="0.5" PannerKeyframes="" PannerStartKeyframe="-91445760000000000,0.5,0,0,0,0,0,0" PannerIsInverted="true" PannerName="Pan">
						<masterclipid>masterclip-8</masterclipid>
						<name>mktf-film-munchen-A01.MXF</name>
						<enabled>TRUE</enabled>
						<duration>21900</duration>
						<rate>
							<ntsc>TRUE</ntsc>
							<timebase>30</timebase>
						</rate>
						<start>20943</start>
						<end>21085</end>
						<in>6018</in>
						<out>6160</out>
						<file id="file-8"/>
						<sourcetrack>
							<mediatype>audio</mediatype>
							<trackindex>1</trackindex>
						</sourcetrack>
							<filter>
								<effect>
									<name>Gain</name>
									<effectid>{61756678, 4761696e, 4b657947}</effectid>
									<effecttype>filter</effecttype>
									<mediatype>audio</mediatype>
									<parameter authoringApp="PremierePro">
										<parameterid>Gain(dB)</parameterid>
										<name>Gain(dB)</name>
										<valuemin>-96</valuemin>
										<valuemax>96</valuemax>
										<value>9</value>
									</parameter>
								</effect>
							</filter>
							<filter>
								<effect>
									<name>Audio Levels</name>
									<effectid>audiolevels</effectid>
									<effectcategory>audiolevels</effectcategory>
									<effecttype>audiolevels</effecttype>
									<mediatype>audio</mediatype>
									<parameter authoringApp="PremierePro">
										<parameterid>level</parameterid>
										<name>Level</name>
										<valuemin>0</valuemin>
										<valuemax>3.98109</valuemax>
										<value>0</value>
										<keyframe>
											<when>2851</when>
											<value>0.980128</value>
										</keyframe>
										<keyframe>
											<when>2862</when>
											<value>0.998491</value>
										</keyframe>
										<keyframe>
											<when>4861</when>
											<value>1.99526</value>
										</keyframe>
										<keyframe>
											<when>4919</when>
											<value>1.99526</value>
										</keyframe>
										<keyframe>
											<when>4932</when>
											<value>0</value>
										</keyframe>
										<keyframe>
											<when>5265</when>
											<value>0</value>
										</keyframe>
										<keyframe>
											<when>5270</when>
											<value>1.81179</value>
										</keyframe>
										<keyframe>
											<when>5277</when>
											<value>1.81179</value>
										</keyframe>
										<keyframe>
											<when>5280</when>
											<value>0</value>
										</keyframe>
										<keyframe>
											<when>6336</when>
											<value>0</value>
										</keyframe>
										<keyframe>
											<when>6338</when>
											<value>1.99526</value>
										</keyframe>
										<keyframe>
											<when>6349</when>
											<value>1.99526</value>
										</keyframe>
										<keyframe>
											<when>6353</when>
											<value>0</value>
										</keyframe>
										<keyframe>
											<when>7010</when>
											<value>0</value>
										</keyframe>
										<keyframe>
											<when>7013</when>
											<value>1.99526</value>
										</keyframe>
										<keyframe>
											<when>7020</when>
											<value>1.99526</value>
										</keyframe>
										<keyframe>
											<when>7021</when>
											<value>0</value>
										</keyframe>
										<keyframe>
											<when>7371</when>
											<value>0</value>
										</keyframe>
										<keyframe>
											<when>7414</when>
											<value>0</value>
										</keyframe>
									</parameter>
								</effect>
							</filter>
							<filter>
								<effect>
									<name>Audio Pan</name>
									<effectid>audiopan</effectid>
									<effectcategory>audiopan</effectcategory>
									<effecttype>audiopan</effecttype>
									<mediatype>audio</mediatype>
									<parameter authoringApp="PremierePro">
										<parameterid>pan</parameterid>
										<name>Pan</name>
										<valuemin>-1</valuemin>
										<valuemax>1</valuemax>
										<value>0</value>
									</parameter>
								</effect>
							</filter>
					</clipitem>
					<clipitem id="clipitem-424" frameBlend="FALSE" PannerCurrentValue="0.5" PannerKeyframes="" PannerStartKeyframe="-91445760000000000,0.5,0,0,0,0,0,0" PannerIsInverted="true" PannerName="Pan">
						<masterclipid>masterclip-8</masterclipid>
						<name>mktf-film-munchen-A01.MXF</name>
						<enabled>TRUE</enabled>
						<duration>21900</duration>
						<rate>
							<ntsc>TRUE</ntsc>
							<timebase>30</timebase>
						</rate>
						<start>21085</start>
						<end>21128</end>
						<in>6417</in>
						<out>6460</out>
						<file id="file-8"/>
						<sourcetrack>
							<mediatype>audio</mediatype>
							<trackindex>1</trackindex>
						</sourcetrack>
							<filter>
								<effect>
									<name>Gain</name>
									<effectid>{61756678, 4761696e, 4b657947}</effectid>
									<effecttype>filter</effecttype>
									<mediatype>audio</mediatype>
									<parameter authoringApp="PremierePro">
										<parameterid>Gain(dB)</parameterid>
										<name>Gain(dB)</name>
										<valuemin>-96</valuemin>
										<valuemax>96</valuemax>
										<value>9</value>
									</parameter>
								</effect>
							</filter>
							<filter>
								<effect>
									<name>Audio Levels</name>
									<effectid>audiolevels</effectid>
									<effectcategory>audiolevels</effectcategory>
									<effecttype>audiolevels</effecttype>
									<mediatype>audio</mediatype>
									<parameter authoringApp="PremierePro">
										<parameterid>level</parameterid>
										<name>Level</name>
										<valuemin>0</valuemin>
										<valuemax>3.98109</valuemax>
										<value>0</value>
										<keyframe>
											<when>2851</when>
											<value>0.980128</value>
										</keyframe>
										<keyframe>
											<when>2862</when>
											<value>0.998491</value>
										</keyframe>
										<keyframe>
											<when>4861</when>
											<value>1.99526</value>
										</keyframe>
										<keyframe>
											<when>4919</when>
											<value>1.99526</value>
										</keyframe>
										<keyframe>
											<when>4932</when>
											<value>0</value>
										</keyframe>
										<keyframe>
											<when>5265</when>
											<value>0</value>
										</keyframe>
										<keyframe>
											<when>5270</when>
											<value>1.81179</value>
										</keyframe>
										<keyframe>
											<when>5277</when>
											<value>1.81179</value>
										</keyframe>
										<keyframe>
											<when>5280</when>
											<value>0</value>
										</keyframe>
										<keyframe>
											<when>6336</when>
											<value>0</value>
										</keyframe>
										<keyframe>
											<when>6338</when>
											<value>1.99526</value>
										</keyframe>
										<keyframe>
											<when>6349</when>
											<value>1.99526</value>
										</keyframe>
										<keyframe>
											<when>6353</when>
											<value>0</value>
										</keyframe>
										<keyframe>
											<when>7010</when>
											<value>0</value>
										</keyframe>
										<keyframe>
											<when>7013</when>
											<value>1.99526</value>
										</keyframe>
										<keyframe>
											<when>7020</when>
											<value>1.99526</value>
										</keyframe>
										<keyframe>
											<when>7021</when>
											<value>0</value>
										</keyframe>
										<keyframe>
											<when>7371</when>
											<value>0</value>
										</keyframe>
										<keyframe>
											<when>7414</when>
											<value>0</value>
										</keyframe>
									</parameter>
								</effect>
							</filter>
							<filter>
								<effect>
									<name>Audio Pan</name>
									<effectid>audiopan</effectid>
									<effectcategory>audiopan</effectcategory>
									<effecttype>audiopan</effecttype>
									<mediatype>audio</mediatype>
									<parameter authoringApp="PremierePro">
										<parameterid>pan</parameterid>
										<name>Pan</name>
										<valuemin>-1</valuemin>
										<valuemax>1</valuemax>
										<value>0</value>
									</parameter>
								</effect>
							</filter>
						<link>
							<linkclipref>clipitem-424</linkclipref>
							<mediatype>audio</mediatype>
							<trackindex>1</trackindex>
							<clipindex>28</clipindex>
							<groupindex>1</groupindex>
						</link>
						<link>
							<linkclipref>clipitem-492</linkclipref>
							<mediatype>audio</mediatype>
							<trackindex>2</trackindex>
							<clipindex>22</clipindex>
							<groupindex>1</groupindex>
						</link>
					</clipitem>
					<clipitem id="clipitem-425" frameBlend="FALSE" PannerCurrentValue="0.5" PannerKeyframes="" PannerStartKeyframe="-91445760000000000,0.5,0,0,0,0,0,0" PannerIsInverted="true" PannerName="Pan">
						<masterclipid>masterclip-8</masterclipid>
						<name>mktf-film-munchen-A01.MXF</name>
						<enabled>TRUE</enabled>
						<duration>21900</duration>
						<rate>
							<ntsc>TRUE</ntsc>
							<timebase>30</timebase>
						</rate>
						<start>21128</start>
						<end>21176</end>
						<in>6478</in>
						<out>6526</out>
						<file id="file-8"/>
						<sourcetrack>
							<mediatype>audio</mediatype>
							<trackindex>1</trackindex>
						</sourcetrack>
							<filter>
								<effect>
									<name>Gain</name>
									<effectid>{61756678, 4761696e, 4b657947}</effectid>
									<effecttype>filter</effecttype>
									<mediatype>audio</mediatype>
									<parameter authoringApp="PremierePro">
										<parameterid>Gain(dB)</parameterid>
										<name>Gain(dB)</name>
										<valuemin>-96</valuemin>
										<valuemax>96</valuemax>
										<value>9</value>
									</parameter>
								</effect>
							</filter>
							<filter>
								<effect>
									<name>Audio Levels</name>
									<effectid>audiolevels</effectid>
									<effectcategory>audiolevels</effectcategory>
									<effecttype>audiolevels</effecttype>
									<mediatype>audio</mediatype>
									<parameter authoringApp="PremierePro">
										<parameterid>level</parameterid>
										<name>Level</name>
										<valuemin>0</valuemin>
										<valuemax>3.98109</valuemax>
										<value>0</value>
										<keyframe>
											<when>2851</when>
											<value>0.980128</value>
										</keyframe>
										<keyframe>
											<when>2862</when>
											<value>0.998491</value>
										</keyframe>
										<keyframe>
											<when>4861</when>
											<value>1.99526</value>
										</keyframe>
										<keyframe>
											<when>4919</when>
											<value>1.99526</value>
										</keyframe>
										<keyframe>
											<when>4932</when>
											<value>0</value>
										</keyframe>
										<keyframe>
											<when>5265</when>
											<value>0</value>
										</keyframe>
										<keyframe>
											<when>5270</when>
											<value>1.81179</value>
										</keyframe>
										<keyframe>
											<when>5277</when>
											<value>1.81179</value>
										</keyframe>
										<keyframe>
											<when>5280</when>
											<value>0</value>
										</keyframe>
										<keyframe>
											<when>6336</when>
											<value>0</value>
										</keyframe>
										<keyframe>
											<when>6338</when>
											<value>1.99526</value>
										</keyframe>
										<keyframe>
											<when>6349</when>
											<value>1.99526</value>
										</keyframe>
										<keyframe>
											<when>6353</when>
											<value>0</value>
										</keyframe>
										<keyframe>
											<when>7010</when>
											<value>0</value>
										</keyframe>
										<keyframe>
											<when>7013</when>
											<value>1.99526</value>
										</keyframe>
										<keyframe>
											<when>7020</when>
											<value>1.99526</value>
										</keyframe>
										<keyframe>
											<when>7021</when>
											<value>0</value>
										</keyframe>
										<keyframe>
											<when>7371</when>
											<value>0</value>
										</keyframe>
										<keyframe>
											<when>7414</when>
											<value>0</value>
										</keyframe>
									</parameter>
								</effect>
							</filter>
							<filter>
								<effect>
									<name>Audio Pan</name>
									<effectid>audiopan</effectid>
									<effectcategory>audiopan</effectcategory>
									<effecttype>audiopan</effecttype>
									<mediatype>audio</mediatype>
									<parameter authoringApp="PremierePro">
										<parameterid>pan</parameterid>
										<name>Pan</name>
										<valuemin>-1</valuemin>
										<valuemax>1</valuemax>
										<value>0</value>
									</parameter>
								</effect>
							</filter>
						<link>
							<linkclipref>clipitem-425</linkclipref>
							<mediatype>audio</mediatype>
							<trackindex>1</trackindex>
							<clipindex>29</clipindex>
							<groupindex>1</groupindex>
						</link>
						<link>
							<linkclipref>clipitem-493</linkclipref>
							<mediatype>audio</mediatype>
							<trackindex>2</trackindex>
							<clipindex>23</clipindex>
							<groupindex>1</groupindex>
						</link>
					</clipitem>
					<clipitem id="clipitem-426" frameBlend="FALSE" PannerCurrentValue="0.5" PannerKeyframes="" PannerStartKeyframe="-91445760000000000,0.5,0,0,0,0,0,0" PannerIsInverted="true" PannerName="Pan">
						<masterclipid>masterclip-8</masterclipid>
						<name>mktf-film-munchen-A01.MXF</name>
						<enabled>TRUE</enabled>
						<duration>21900</duration>
						<rate>
							<ntsc>TRUE</ntsc>
							<timebase>30</timebase>
						</rate>
						<start>21176</start>
						<end>21449</end>
						<in>6650</in>
						<out>6923</out>
						<file id="file-8"/>
						<sourcetrack>
							<mediatype>audio</mediatype>
							<trackindex>1</trackindex>
						</sourcetrack>
							<filter>
								<effect>
									<name>Gain</name>
									<effectid>{61756678, 4761696e, 4b657947}</effectid>
									<effecttype>filter</effecttype>
									<mediatype>audio</mediatype>
									<parameter authoringApp="PremierePro">
										<parameterid>Gain(dB)</parameterid>
										<name>Gain(dB)</name>
										<valuemin>-96</valuemin>
										<valuemax>96</valuemax>
										<value>9</value>
									</parameter>
								</effect>
							</filter>
							<filter>
								<effect>
									<name>Audio Levels</name>
									<effectid>audiolevels</effectid>
									<effectcategory>audiolevels</effectcategory>
									<effecttype>audiolevels</effecttype>
									<mediatype>audio</mediatype>
									<parameter authoringApp="PremierePro">
										<parameterid>level</parameterid>
										<name>Level</name>
										<valuemin>0</valuemin>
										<valuemax>3.98109</valuemax>
										<value>0</value>
										<keyframe>
											<when>2851</when>
											<value>0.980128</value>
										</keyframe>
										<keyframe>
											<when>2862</when>
											<value>0.998491</value>
										</keyframe>
										<keyframe>
											<when>4861</when>
											<value>1.99526</value>
										</keyframe>
										<keyframe>
											<when>4919</when>
											<value>1.99526</value>
										</keyframe>
										<keyframe>
											<when>4932</when>
											<value>0</value>
										</keyframe>
										<keyframe>
											<when>5265</when>
											<value>0</value>
										</keyframe>
										<keyframe>
											<when>5270</when>
											<value>1.81179</value>
										</keyframe>
										<keyframe>
											<when>5277</when>
											<value>1.81179</value>
										</keyframe>
										<keyframe>
											<when>5280</when>
											<value>0</value>
										</keyframe>
										<keyframe>
											<when>6336</when>
											<value>0</value>
										</keyframe>
										<keyframe>
											<when>6338</when>
											<value>1.99526</value>
										</keyframe>
										<keyframe>
											<when>6349</when>
											<value>1.99526</value>
										</keyframe>
										<keyframe>
											<when>6353</when>
											<value>0</value>
										</keyframe>
										<keyframe>
											<when>7010</when>
											<value>0</value>
										</keyframe>
										<keyframe>
											<when>7013</when>
											<value>1.99526</value>
										</keyframe>
										<keyframe>
											<when>7020</when>
											<value>1.99526</value>
										</keyframe>
										<keyframe>
											<when>7021</when>
											<value>0</value>
										</keyframe>
										<keyframe>
											<when>7371</when>
											<value>0</value>
										</keyframe>
										<keyframe>
											<when>7414</when>
											<value>0</value>
										</keyframe>
									</parameter>
								</effect>
							</filter>
							<filter>
								<effect>
									<name>Audio Pan</name>
									<effectid>audiopan</effectid>
									<effectcategory>audiopan</effectcategory>
									<effecttype>audiopan</effecttype>
									<mediatype>audio</mediatype>
									<parameter authoringApp="PremierePro">
										<parameterid>pan</parameterid>
										<name>Pan</name>
										<valuemin>-1</valuemin>
										<valuemax>1</valuemax>
										<value>0</value>
									</parameter>
								</effect>
							</filter>
						<link>
							<linkclipref>clipitem-426</linkclipref>
							<mediatype>audio</mediatype>
							<trackindex>1</trackindex>
							<clipindex>30</clipindex>
							<groupindex>1</groupindex>
						</link>
						<link>
							<linkclipref>clipitem-494</linkclipref>
							<mediatype>audio</mediatype>
							<trackindex>2</trackindex>
							<clipindex>25</clipindex>
							<groupindex>1</groupindex>
						</link>
					</clipitem>
					<clipitem id="clipitem-427" frameBlend="FALSE" PannerCurrentValue="0.5" PannerKeyframes="" PannerStartKeyframe="-91445760000000000,0.5,0,0,0,0,0,0" PannerIsInverted="true" PannerName="Pan">
						<masterclipid>masterclip-8</masterclipid>
						<name>mktf-film-munchen-A01.MXF</name>
						<enabled>TRUE</enabled>
						<duration>21900</duration>
						<rate>
							<ntsc>TRUE</ntsc>
							<timebase>30</timebase>
						</rate>
						<start>21449</start>
						<end>21942</end>
						<in>6936</in>
						<out>7429</out>
						<file id="file-8"/>
						<sourcetrack>
							<mediatype>audio</mediatype>
							<trackindex>1</trackindex>
						</sourcetrack>
							<filter>
								<effect>
									<name>Gain</name>
									<effectid>{61756678, 4761696e, 4b657947}</effectid>
									<effecttype>filter</effecttype>
									<mediatype>audio</mediatype>
									<parameter authoringApp="PremierePro">
										<parameterid>Gain(dB)</parameterid>
										<name>Gain(dB)</name>
										<valuemin>-96</valuemin>
										<valuemax>96</valuemax>
										<value>9</value>
									</parameter>
								</effect>
							</filter>
							<filter>
								<effect>
									<name>Audio Levels</name>
									<effectid>audiolevels</effectid>
									<effectcategory>audiolevels</effectcategory>
									<effecttype>audiolevels</effecttype>
									<mediatype>audio</mediatype>
									<parameter authoringApp="PremierePro">
										<parameterid>level</parameterid>
										<name>Level</name>
										<valuemin>0</valuemin>
										<valuemax>3.98109</valuemax>
										<value>0</value>
										<keyframe>
											<when>2851</when>
											<value>0.980128</value>
										</keyframe>
										<keyframe>
											<when>2862</when>
											<value>0.998491</value>
										</keyframe>
										<keyframe>
											<when>4861</when>
											<value>1.99526</value>
										</keyframe>
										<keyframe>
											<when>4919</when>
											<value>1.99526</value>
										</keyframe>
										<keyframe>
											<when>4932</when>
											<value>0</value>
										</keyframe>
										<keyframe>
											<when>5265</when>
											<value>0</value>
										</keyframe>
										<keyframe>
											<when>5270</when>
											<value>1.81179</value>
										</keyframe>
										<keyframe>
											<when>5277</when>
											<value>1.81179</value>
										</keyframe>
										<keyframe>
											<when>5280</when>
											<value>0</value>
										</keyframe>
										<keyframe>
											<when>6336</when>
											<value>0</value>
										</keyframe>
										<keyframe>
											<when>6338</when>
											<value>1.99526</value>
										</keyframe>
										<keyframe>
											<when>6349</when>
											<value>1.99526</value>
										</keyframe>
										<keyframe>
											<when>6353</when>
											<value>0</value>
										</keyframe>
										<keyframe>
											<when>7010</when>
											<value>0</value>
										</keyframe>
										<keyframe>
											<when>7013</when>
											<value>0.170535</value>
										</keyframe>
										<keyframe>
											<when>7020</when>
											<value>0.170535</value>
										</keyframe>
										<keyframe>
											<when>7021</when>
											<value>0</value>
										</keyframe>
										<keyframe>
											<when>7371</when>
											<value>0</value>
										</keyframe>
										<keyframe>
											<when>7414</when>
											<value>0</value>
										</keyframe>
									</parameter>
								</effect>
							</filter>
							<filter>
								<effect>
									<name>Audio Pan</name>
									<effectid>audiopan</effectid>
									<effectcategory>audiopan</effectcategory>
									<effecttype>audiopan</effecttype>
									<mediatype>audio</mediatype>
									<parameter authoringApp="PremierePro">
										<parameterid>pan</parameterid>
										<name>Pan</name>
										<valuemin>-1</valuemin>
										<valuemax>1</valuemax>
										<value>0</value>
									</parameter>
								</effect>
							</filter>
						<link>
							<linkclipref>clipitem-427</linkclipref>
							<mediatype>audio</mediatype>
							<trackindex>1</trackindex>
							<clipindex>31</clipindex>
							<groupindex>1</groupindex>
						</link>
						<link>
							<linkclipref>clipitem-495</linkclipref>
							<mediatype>audio</mediatype>
							<trackindex>2</trackindex>
							<clipindex>27</clipindex>
							<groupindex>1</groupindex>
						</link>
					</clipitem>
					<clipitem id="clipitem-428" frameBlend="FALSE" PannerCurrentValue="0.5" PannerKeyframes="" PannerStartKeyframe="-91445760000000000,0.5,0,0,0,0,0,0" PannerIsInverted="true" PannerName="Pan">
						<masterclipid>masterclip-6</masterclipid>
						<name>mktf-film-munchen-A03.MXF</name>
						<enabled>TRUE</enabled>
						<duration>26784</duration>
						<rate>
							<ntsc>TRUE</ntsc>
							<timebase>30</timebase>
						</rate>
						<start>21942</start>
						<end>22028</end>
						<in>6043</in>
						<out>6129</out>
						<file id="file-6"/>
						<sourcetrack>
							<mediatype>audio</mediatype>
							<trackindex>1</trackindex>
						</sourcetrack>
							<filter>
								<effect>
									<name>Audio Levels</name>
									<effectid>audiolevels</effectid>
									<effectcategory>audiolevels</effectcategory>
									<effecttype>audiolevels</effecttype>
									<mediatype>audio</mediatype>
									<parameter authoringApp="PremierePro">
										<parameterid>level</parameterid>
										<name>Level</name>
										<valuemin>0</valuemin>
										<valuemax>3.98109</valuemax>
										<value>0.99763</value>
										<keyframe>
											<when>5416</when>
											<value>0.99763</value>
										</keyframe>
										<keyframe>
											<when>5439</when>
											<value>0</value>
										</keyframe>
										<keyframe>
											<when>5736</when>
											<value>0</value>
										</keyframe>
										<keyframe>
											<when>5752</when>
											<value>0.99763</value>
										</keyframe>
										<keyframe>
											<when>6029</when>
											<value>0</value>
										</keyframe>
										<keyframe>
											<when>6042</when>
											<value>0</value>
										</keyframe>
										<keyframe>
											<when>6045</when>
											<value>0.99763</value>
										</keyframe>
									</parameter>
								</effect>
							</filter>
							<filter>
								<effect>
									<name>Audio Pan</name>
									<effectid>audiopan</effectid>
									<effectcategory>audiopan</effectcategory>
									<effecttype>audiopan</effecttype>
									<mediatype>audio</mediatype>
									<parameter authoringApp="PremierePro">
										<parameterid>pan</parameterid>
										<name>Pan</name>
										<valuemin>-1</valuemin>
										<valuemax>1</valuemax>
										<value>0</value>
									</parameter>
								</effect>
							</filter>
					</clipitem>
					<clipitem id="clipitem-429" frameBlend="FALSE" PannerCurrentValue="0.5" PannerKeyframes="" PannerStartKeyframe="-91445760000000000,0.5,0,0,0,0,0,0" PannerIsInverted="true" PannerName="Pan">
						<masterclipid>masterclip-6</masterclipid>
						<name>mktf-film-munchen-A03.MXF</name>
						<enabled>TRUE</enabled>
						<duration>26784</duration>
						<rate>
							<ntsc>TRUE</ntsc>
							<timebase>30</timebase>
						</rate>
						<start>22028</start>
						<end>22033</end>
						<in>6129</in>
						<out>6134</out>
						<file id="file-6"/>
						<sourcetrack>
							<mediatype>audio</mediatype>
							<trackindex>1</trackindex>
						</sourcetrack>
							<filter>
								<effect>
									<name>Audio Levels</name>
									<effectid>audiolevels</effectid>
									<effectcategory>audiolevels</effectcategory>
									<effecttype>audiolevels</effecttype>
									<mediatype>audio</mediatype>
									<parameter authoringApp="PremierePro">
										<parameterid>level</parameterid>
										<name>Level</name>
										<valuemin>0</valuemin>
										<valuemax>3.98109</valuemax>
										<value>0.432044</value>
										<keyframe>
											<when>5416</when>
											<value>0.99763</value>
										</keyframe>
										<keyframe>
											<when>5439</when>
											<value>0</value>
										</keyframe>
										<keyframe>
											<when>5736</when>
											<value>0</value>
										</keyframe>
										<keyframe>
											<when>5752</when>
											<value>0.99763</value>
										</keyframe>
										<keyframe>
											<when>6029</when>
											<value>0</value>
										</keyframe>
										<keyframe>
											<when>6042</when>
											<value>0</value>
										</keyframe>
										<keyframe>
											<when>6045</when>
											<value>0.432044</value>
										</keyframe>
									</parameter>
								</effect>
							</filter>
							<filter>
								<effect>
									<name>Audio Pan</name>
									<effectid>audiopan</effectid>
									<effectcategory>audiopan</effectcategory>
									<effecttype>audiopan</effecttype>
									<mediatype>audio</mediatype>
									<parameter authoringApp="PremierePro">
										<parameterid>pan</parameterid>
										<name>Pan</name>
										<valuemin>-1</valuemin>
										<valuemax>1</valuemax>
										<value>0</value>
									</parameter>
								</effect>
							</filter>
						<link>
							<linkclipref>clipitem-33</linkclipref>
							<mediatype>video</mediatype>
							<trackindex>1</trackindex>
							<clipindex>37</clipindex>
						</link>
						<link>
							<linkclipref>clipitem-429</linkclipref>
							<mediatype>audio</mediatype>
							<trackindex>1</trackindex>
							<clipindex>33</clipindex>
							<groupindex>1</groupindex>
						</link>
						<link>
							<linkclipref>clipitem-497</linkclipref>
							<mediatype>audio</mediatype>
							<trackindex>2</trackindex>
							<clipindex>29</clipindex>
							<groupindex>1</groupindex>
						</link>
					</clipitem>
					<clipitem id="clipitem-430" frameBlend="FALSE" PannerCurrentValue="0.5" PannerKeyframes="" PannerStartKeyframe="-91445760000000000,0.5,0,0,0,0,0,0" PannerIsInverted="true" PannerName="Pan">
						<masterclipid>masterclip-6</masterclipid>
						<name>mktf-film-munchen-A03.MXF</name>
						<enabled>TRUE</enabled>
						<duration>26784</duration>
						<rate>
							<ntsc>TRUE</ntsc>
							<timebase>30</timebase>
						</rate>
						<start>22033</start>
						<end>22418</end>
						<in>6143</in>
						<out>6528</out>
						<file id="file-6"/>
						<sourcetrack>
							<mediatype>audio</mediatype>
							<trackindex>1</trackindex>
						</sourcetrack>
							<filter>
								<effect>
									<name>Audio Levels</name>
									<effectid>audiolevels</effectid>
									<effectcategory>audiolevels</effectcategory>
									<effecttype>audiolevels</effecttype>
									<mediatype>audio</mediatype>
									<parameter authoringApp="PremierePro">
										<parameterid>level</parameterid>
										<name>Level</name>
										<valuemin>0</valuemin>
										<valuemax>3.98109</valuemax>
										<value>0</value>
										<keyframe>
											<when>5416</when>
											<value>0.99763</value>
										</keyframe>
										<keyframe>
											<when>5439</when>
											<value>0</value>
										</keyframe>
										<keyframe>
											<when>5736</when>
											<value>0</value>
										</keyframe>
										<keyframe>
											<when>5752</when>
											<value>0.99763</value>
										</keyframe>
										<keyframe>
											<when>6029</when>
											<value>0</value>
										</keyframe>
										<keyframe>
											<when>6042</when>
											<value>0</value>
										</keyframe>
										<keyframe>
											<when>6045</when>
											<value>0.447755</value>
										</keyframe>
										<keyframe>
											<when>6155</when>
											<value>0.447755</value>
										</keyframe>
										<keyframe>
											<when>6165</when>
											<value>0</value>
										</keyframe>
										<keyframe>
											<when>6266</when>
											<value>0</value>
										</keyframe>
										<keyframe>
											<when>6270</when>
											<value>0.401863</value>
										</keyframe>
										<keyframe>
											<when>6277</when>
											<value>0.401863</value>
										</keyframe>
										<keyframe>
											<when>6280</when>
											<value>0</value>
										</keyframe>
									</parameter>
								</effect>
							</filter>
							<filter>
								<effect>
									<name>Audio Pan</name>
									<effectid>audiopan</effectid>
									<effectcategory>audiopan</effectcategory>
									<effecttype>audiopan</effecttype>
									<mediatype>audio</mediatype>
									<parameter authoringApp="PremierePro">
										<parameterid>pan</parameterid>
										<name>Pan</name>
										<valuemin>-1</valuemin>
										<valuemax>1</valuemax>
										<value>0</value>
									</parameter>
								</effect>
							</filter>
						<link>
							<linkclipref>clipitem-34</linkclipref>
							<mediatype>video</mediatype>
							<trackindex>1</trackindex>
							<clipindex>38</clipindex>
						</link>
						<link>
							<linkclipref>clipitem-430</linkclipref>
							<mediatype>audio</mediatype>
							<trackindex>1</trackindex>
							<clipindex>34</clipindex>
							<groupindex>1</groupindex>
						</link>
						<link>
							<linkclipref>clipitem-498</linkclipref>
							<mediatype>audio</mediatype>
							<trackindex>2</trackindex>
							<clipindex>30</clipindex>
							<groupindex>1</groupindex>
						</link>
					</clipitem>
					<clipitem id="clipitem-431" frameBlend="FALSE" PannerCurrentValue="0.5" PannerKeyframes="" PannerStartKeyframe="-91445760000000000,0.5,0,0,0,0,0,0" PannerIsInverted="true" PannerName="Pan">
						<masterclipid>masterclip-6</masterclipid>
						<name>mktf-film-munchen-A03.MXF</name>
						<enabled>TRUE</enabled>
						<duration>26784</duration>
						<rate>
							<ntsc>TRUE</ntsc>
							<timebase>30</timebase>
						</rate>
						<start>22418</start>
						<end>22671</end>
						<in>6581</in>
						<out>6834</out>
						<file id="file-6"/>
						<sourcetrack>
							<mediatype>audio</mediatype>
							<trackindex>1</trackindex>
						</sourcetrack>
							<filter>
								<effect>
									<name>Audio Levels</name>
									<effectid>audiolevels</effectid>
									<effectcategory>audiolevels</effectcategory>
									<effecttype>audiolevels</effecttype>
									<mediatype>audio</mediatype>
									<parameter authoringApp="PremierePro">
										<parameterid>level</parameterid>
										<name>Level</name>
										<valuemin>0</valuemin>
										<valuemax>3.98109</valuemax>
										<value>0</value>
										<keyframe>
											<when>5416</when>
											<value>0.99763</value>
										</keyframe>
										<keyframe>
											<when>5439</when>
											<value>0</value>
										</keyframe>
										<keyframe>
											<when>5736</when>
											<value>0</value>
										</keyframe>
										<keyframe>
											<when>5752</when>
											<value>0.99763</value>
										</keyframe>
										<keyframe>
											<when>6029</when>
											<value>0</value>
										</keyframe>
										<keyframe>
											<when>6042</when>
											<value>0</value>
										</keyframe>
										<keyframe>
											<when>6045</when>
											<value>0.99763</value>
										</keyframe>
										<keyframe>
											<when>6155</when>
											<value>0.99763</value>
										</keyframe>
										<keyframe>
											<when>6165</when>
											<value>0</value>
										</keyframe>
										<keyframe>
											<when>6266</when>
											<value>0</value>
										</keyframe>
										<keyframe>
											<when>6270</when>
											<value>1.47019</value>
										</keyframe>
										<keyframe>
											<when>6277</when>
											<value>1.47019</value>
										</keyframe>
										<keyframe>
											<when>6280</when>
											<value>0</value>
										</keyframe>
										<keyframe>
											<when>6713</when>
											<value>0</value>
										</keyframe>
										<keyframe>
											<when>6715</when>
											<value>0.37182</value>
										</keyframe>
										<keyframe>
											<when>6720</when>
											<value>0.37182</value>
										</keyframe>
										<keyframe>
											<when>6722</when>
											<value>0</value>
										</keyframe>
									</parameter>
								</effect>
							</filter>
							<filter>
								<effect>
									<name>Audio Pan</name>
									<effectid>audiopan</effectid>
									<effectcategory>audiopan</effectcategory>
									<effecttype>audiopan</effecttype>
									<mediatype>audio</mediatype>
									<parameter authoringApp="PremierePro">
										<parameterid>pan</parameterid>
										<name>Pan</name>
										<valuemin>-1</valuemin>
										<valuemax>1</valuemax>
										<value>0</value>
									</parameter>
								</effect>
							</filter>
						<link>
							<linkclipref>clipitem-35</linkclipref>
							<mediatype>video</mediatype>
							<trackindex>1</trackindex>
							<clipindex>39</clipindex>
						</link>
						<link>
							<linkclipref>clipitem-431</linkclipref>
							<mediatype>audio</mediatype>
							<trackindex>1</trackindex>
							<clipindex>35</clipindex>
							<groupindex>1</groupindex>
						</link>
						<link>
							<linkclipref>clipitem-499</linkclipref>
							<mediatype>audio</mediatype>
							<trackindex>2</trackindex>
							<clipindex>31</clipindex>
							<groupindex>1</groupindex>
						</link>
					</clipitem>
					<clipitem id="clipitem-432" frameBlend="FALSE" PannerCurrentValue="0.5" PannerKeyframes="" PannerStartKeyframe="-91445760000000000,0.5,0,0,0,0,0,0" PannerIsInverted="true" PannerName="Pan">
						<masterclipid>masterclip-6</masterclipid>
						<name>mktf-film-munchen-A03.MXF</name>
						<enabled>TRUE</enabled>
						<duration>26784</duration>
						<rate>
							<ntsc>TRUE</ntsc>
							<timebase>30</timebase>
						</rate>
						<start>22671</start>
						<end>22773</end>
						<in>7153</in>
						<out>7255</out>
						<file id="file-6"/>
						<sourcetrack>
							<mediatype>audio</mediatype>
							<trackindex>1</trackindex>
						</sourcetrack>
							<filter>
								<effect>
									<name>Audio Levels</name>
									<effectid>audiolevels</effectid>
									<effectcategory>audiolevels</effectcategory>
									<effecttype>audiolevels</effecttype>
									<mediatype>audio</mediatype>
									<parameter authoringApp="PremierePro">
										<parameterid>level</parameterid>
										<name>Level</name>
										<valuemin>0</valuemin>
										<valuemax>3.98109</valuemax>
										<value>0</value>
										<keyframe>
											<when>5416</when>
											<value>0.99763</value>
										</keyframe>
										<keyframe>
											<when>5439</when>
											<value>0</value>
										</keyframe>
										<keyframe>
											<when>5736</when>
											<value>0</value>
										</keyframe>
										<keyframe>
											<when>5752</when>
											<value>0.99763</value>
										</keyframe>
										<keyframe>
											<when>6029</when>
											<value>0</value>
										</keyframe>
										<keyframe>
											<when>6042</when>
											<value>0</value>
										</keyframe>
										<keyframe>
											<when>6045</when>
											<value>0.99763</value>
										</keyframe>
										<keyframe>
											<when>6155</when>
											<value>0.99763</value>
										</keyframe>
										<keyframe>
											<when>6165</when>
											<value>0</value>
										</keyframe>
										<keyframe>
											<when>6266</when>
											<value>0</value>
										</keyframe>
										<keyframe>
											<when>6270</when>
											<value>1.47019</value>
										</keyframe>
										<keyframe>
											<when>6277</when>
											<value>1.47019</value>
										</keyframe>
										<keyframe>
											<when>6280</when>
											<value>0</value>
										</keyframe>
										<keyframe>
											<when>6713</when>
											<value>0</value>
										</keyframe>
										<keyframe>
											<when>6715</when>
											<value>1.33017</value>
										</keyframe>
										<keyframe>
											<when>6720</when>
											<value>1.33017</value>
										</keyframe>
										<keyframe>
											<when>6722</when>
											<value>0</value>
										</keyframe>
										<keyframe>
											<when>7228</when>
											<value>0</value>
										</keyframe>
										<keyframe>
											<when>7233</when>
											<value>0.418952</value>
										</keyframe>
										<keyframe>
											<when>7244</when>
											<value>0.418952</value>
										</keyframe>
										<keyframe>
											<when>7250</when>
											<value>0</value>
										</keyframe>
									</parameter>
								</effect>
							</filter>
							<filter>
								<effect>
									<name>Audio Pan</name>
									<effectid>audiopan</effectid>
									<effectcategory>audiopan</effectcategory>
									<effecttype>audiopan</effecttype>
									<mediatype>audio</mediatype>
									<parameter authoringApp="PremierePro">
										<parameterid>pan</parameterid>
										<name>Pan</name>
										<valuemin>-1</valuemin>
										<valuemax>1</valuemax>
										<value>0</value>
									</parameter>
								</effect>
							</filter>
						<link>
							<linkclipref>clipitem-36</linkclipref>
							<mediatype>video</mediatype>
							<trackindex>1</trackindex>
							<clipindex>40</clipindex>
						</link>
						<link>
							<linkclipref>clipitem-432</linkclipref>
							<mediatype>audio</mediatype>
							<trackindex>1</trackindex>
							<clipindex>36</clipindex>
							<groupindex>1</groupindex>
						</link>
						<link>
							<linkclipref>clipitem-500</linkclipref>
							<mediatype>audio</mediatype>
							<trackindex>2</trackindex>
							<clipindex>32</clipindex>
							<groupindex>1</groupindex>
						</link>
					</clipitem>
					<clipitem id="clipitem-433" frameBlend="FALSE" PannerCurrentValue="0.5" PannerKeyframes="" PannerStartKeyframe="-91445760000000000,0.5,0,0,0,0,0,0" PannerIsInverted="true" PannerName="Pan">
						<masterclipid>masterclip-6</masterclipid>
						<name>mktf-film-munchen-A03.MXF</name>
						<enabled>TRUE</enabled>
						<duration>26784</duration>
						<rate>
							<ntsc>TRUE</ntsc>
							<timebase>30</timebase>
						</rate>
						<start>22773</start>
						<end>22836</end>
						<in>7356</in>
						<out>7419</out>
						<file id="file-6"/>
						<sourcetrack>
							<mediatype>audio</mediatype>
							<trackindex>1</trackindex>
						</sourcetrack>
							<filter>
								<effect>
									<name>Audio Levels</name>
									<effectid>audiolevels</effectid>
									<effectcategory>audiolevels</effectcategory>
									<effecttype>audiolevels</effecttype>
									<mediatype>audio</mediatype>
									<parameter authoringApp="PremierePro">
										<parameterid>level</parameterid>
										<name>Level</name>
										<valuemin>0</valuemin>
										<valuemax>3.98109</valuemax>
										<value>1.0031</value>
										<keyframe>
											<when>5416</when>
											<value>0.99763</value>
										</keyframe>
										<keyframe>
											<when>5439</when>
											<value>0</value>
										</keyframe>
										<keyframe>
											<when>5736</when>
											<value>0</value>
										</keyframe>
										<keyframe>
											<when>5752</when>
											<value>0.99763</value>
										</keyframe>
										<keyframe>
											<when>6029</when>
											<value>0</value>
										</keyframe>
										<keyframe>
											<when>6042</when>
											<value>0</value>
										</keyframe>
										<keyframe>
											<when>6045</when>
											<value>0.99763</value>
										</keyframe>
										<keyframe>
											<when>6155</when>
											<value>0.99763</value>
										</keyframe>
										<keyframe>
											<when>6165</when>
											<value>0</value>
										</keyframe>
										<keyframe>
											<when>6266</when>
											<value>0</value>
										</keyframe>
										<keyframe>
											<when>6270</when>
											<value>1.47019</value>
										</keyframe>
										<keyframe>
											<when>6277</when>
											<value>1.47019</value>
										</keyframe>
										<keyframe>
											<when>6280</when>
											<value>0</value>
										</keyframe>
										<keyframe>
											<when>6713</when>
											<value>0</value>
										</keyframe>
										<keyframe>
											<when>6715</when>
											<value>1.33017</value>
										</keyframe>
										<keyframe>
											<when>6720</when>
											<value>1.33017</value>
										</keyframe>
										<keyframe>
											<when>6722</when>
											<value>0</value>
										</keyframe>
										<keyframe>
											<when>7228</when>
											<value>0</value>
										</keyframe>
										<keyframe>
											<when>7233</when>
											<value>1.33017</value>
										</keyframe>
										<keyframe>
											<when>7244</when>
											<value>1.33017</value>
										</keyframe>
										<keyframe>
											<when>7250</when>
											<value>0</value>
										</keyframe>
										<keyframe>
											<when>7415</when>
											<value>0</value>
										</keyframe>
										<keyframe>
											<when>7420</when>
											<value>1.36518</value>
										</keyframe>
										<keyframe>
											<when>7574</when>
											<value>1.36518</value>
										</keyframe>
										<keyframe>
											<when>7584</when>
											<value>0</value>
										</keyframe>
										<keyframe>
											<when>7637</when>
											<value>0</value>
										</keyframe>
										<keyframe>
											<when>7643</when>
											<value>0</value>
										</keyframe>
										<keyframe>
											<when>7689</when>
											<value>0</value>
										</keyframe>
										<keyframe>
											<when>7693</when>
											<value>1.22516</value>
										</keyframe>
										<keyframe>
											<when>7730</when>
											<value>1.22516</value>
										</keyframe>
										<keyframe>
											<when>7745</when>
											<value>0</value>
										</keyframe>
										<keyframe>
											<when>7899</when>
											<value>0</value>
										</keyframe>
										<keyframe>
											<when>7904</when>
											<value>1.29517</value>
										</keyframe>
										<keyframe>
											<when>7917</when>
											<value>1.29517</value>
										</keyframe>
										<keyframe>
											<when>7922</when>
											<value>0</value>
										</keyframe>
									</parameter>
								</effect>
							</filter>
							<filter>
								<effect>
									<name>Audio Pan</name>
									<effectid>audiopan</effectid>
									<effectcategory>audiopan</effectcategory>
									<effecttype>audiopan</effecttype>
									<mediatype>audio</mediatype>
									<parameter authoringApp="PremierePro">
										<parameterid>pan</parameterid>
										<name>Pan</name>
										<valuemin>-1</valuemin>
										<valuemax>1</valuemax>
										<value>0</value>
									</parameter>
								</effect>
							</filter>
						<link>
							<linkclipref>clipitem-37</linkclipref>
							<mediatype>video</mediatype>
							<trackindex>1</trackindex>
							<clipindex>41</clipindex>
						</link>
						<link>
							<linkclipref>clipitem-433</linkclipref>
							<mediatype>audio</mediatype>
							<trackindex>1</trackindex>
							<clipindex>37</clipindex>
							<groupindex>1</groupindex>
						</link>
						<link>
							<linkclipref>clipitem-501</linkclipref>
							<mediatype>audio</mediatype>
							<trackindex>2</trackindex>
							<clipindex>33</clipindex>
							<groupindex>1</groupindex>
						</link>
					</clipitem>
					<clipitem id="clipitem-434" frameBlend="FALSE" PannerCurrentValue="0.5" PannerKeyframes="" PannerStartKeyframe="-91445760000000000,0.5,0,0,0,0,0,0" PannerIsInverted="true" PannerName="Pan">
						<masterclipid>masterclip-8</masterclipid>
						<name>mktf-film-munchen-A01.MXF</name>
						<enabled>TRUE</enabled>
						<duration>21900</duration>
						<rate>
							<ntsc>TRUE</ntsc>
							<timebase>30</timebase>
						</rate>
						<start>22836</start>
						<end>22880</end>
						<in>20228</in>
						<out>20272</out>
						<file id="file-8"/>
						<sourcetrack>
							<mediatype>audio</mediatype>
							<trackindex>1</trackindex>
						</sourcetrack>
							<filter>
								<effect>
									<name>Gain</name>
									<effectid>{61756678, 4761696e, 4b657947}</effectid>
									<effecttype>filter</effecttype>
									<mediatype>audio</mediatype>
									<parameter authoringApp="PremierePro">
										<parameterid>Gain(dB)</parameterid>
										<name>Gain(dB)</name>
										<valuemin>-96</valuemin>
										<valuemax>96</valuemax>
										<value>7</value>
									</parameter>
								</effect>
							</filter>
							<filter>
								<effect>
									<name>Audio Levels</name>
									<effectid>audiolevels</effectid>
									<effectcategory>audiolevels</effectcategory>
									<effecttype>audiolevels</effecttype>
									<mediatype>audio</mediatype>
									<parameter authoringApp="PremierePro">
										<parameterid>level</parameterid>
										<name>Level</name>
										<valuemin>0</valuemin>
										<valuemax>3.98109</valuemax>
										<value>1.05014</value>
										<keyframe>
											<when>2851</when>
											<value>0.980128</value>
										</keyframe>
										<keyframe>
											<when>2862</when>
											<value>0.998491</value>
										</keyframe>
										<keyframe>
											<when>4861</when>
											<value>1.99526</value>
										</keyframe>
										<keyframe>
											<when>4919</when>
											<value>1.99526</value>
										</keyframe>
										<keyframe>
											<when>4932</when>
											<value>0</value>
										</keyframe>
										<keyframe>
											<when>7371</when>
											<value>0</value>
										</keyframe>
										<keyframe>
											<when>7411</when>
											<value>0</value>
										</keyframe>
										<keyframe>
											<when>20225</when>
											<value>0</value>
										</keyframe>
										<keyframe>
											<when>20228</when>
											<value>1.05014</value>
										</keyframe>
									</parameter>
								</effect>
							</filter>
							<filter>
								<effect>
									<name>Audio Pan</name>
									<effectid>audiopan</effectid>
									<effectcategory>audiopan</effectcategory>
									<effecttype>audiopan</effecttype>
									<mediatype>audio</mediatype>
									<parameter authoringApp="PremierePro">
										<parameterid>pan</parameterid>
										<name>Pan</name>
										<valuemin>-1</valuemin>
										<valuemax>1</valuemax>
										<value>0</value>
									</parameter>
								</effect>
							</filter>
					</clipitem>
					<clipitem id="clipitem-435" frameBlend="FALSE" PannerCurrentValue="0.5" PannerKeyframes="" PannerStartKeyframe="-91445760000000000,0.5,0,0,0,0,0,0" PannerIsInverted="true" PannerName="Pan">
						<masterclipid>masterclip-8</masterclipid>
						<name>mktf-film-munchen-A01.MXF</name>
						<enabled>TRUE</enabled>
						<duration>21900</duration>
						<rate>
							<ntsc>TRUE</ntsc>
							<timebase>30</timebase>
						</rate>
						<start>22880</start>
						<end>22985</end>
						<in>20288</in>
						<out>20393</out>
						<file id="file-8"/>
						<sourcetrack>
							<mediatype>audio</mediatype>
							<trackindex>1</trackindex>
						</sourcetrack>
							<filter>
								<effect>
									<name>Gain</name>
									<effectid>{61756678, 4761696e, 4b657947}</effectid>
									<effecttype>filter</effecttype>
									<mediatype>audio</mediatype>
									<parameter authoringApp="PremierePro">
										<parameterid>Gain(dB)</parameterid>
										<name>Gain(dB)</name>
										<valuemin>-96</valuemin>
										<valuemax>96</valuemax>
										<value>6</value>
									</parameter>
								</effect>
							</filter>
							<filter>
								<effect>
									<name>Audio Levels</name>
									<effectid>audiolevels</effectid>
									<effectcategory>audiolevels</effectcategory>
									<effecttype>audiolevels</effecttype>
									<mediatype>audio</mediatype>
									<parameter authoringApp="PremierePro">
										<parameterid>level</parameterid>
										<name>Level</name>
										<valuemin>0</valuemin>
										<valuemax>3.98109</valuemax>
										<value>0</value>
										<keyframe>
											<when>2851</when>
											<value>0.980128</value>
										</keyframe>
										<keyframe>
											<when>2862</when>
											<value>0.998491</value>
										</keyframe>
										<keyframe>
											<when>4861</when>
											<value>1.99526</value>
										</keyframe>
										<keyframe>
											<when>4919</when>
											<value>1.99526</value>
										</keyframe>
										<keyframe>
											<when>4932</when>
											<value>0</value>
										</keyframe>
										<keyframe>
											<when>7371</when>
											<value>0</value>
										</keyframe>
										<keyframe>
											<when>7411</when>
											<value>1.05014</value>
										</keyframe>
										<keyframe>
											<when>20378</when>
											<value>1.05014</value>
										</keyframe>
										<keyframe>
											<when>20380</when>
											<value>0</value>
										</keyframe>
										<keyframe>
											<when>20801</when>
											<value>0</value>
										</keyframe>
										<keyframe>
											<when>20803</when>
											<value>1.19016</value>
										</keyframe>
										<keyframe>
											<when>20810</when>
											<value>1.19016</value>
										</keyframe>
										<keyframe>
											<when>20813</when>
											<value>0</value>
										</keyframe>
										<keyframe>
											<when>20964</when>
											<value>0</value>
										</keyframe>
										<keyframe>
											<when>20966</when>
											<value>1.05014</value>
										</keyframe>
										<keyframe>
											<when>20970</when>
											<value>1.05014</value>
										</keyframe>
										<keyframe>
											<when>20972</when>
											<value>0</value>
										</keyframe>
									</parameter>
								</effect>
							</filter>
							<filter>
								<effect>
									<name>Audio Pan</name>
									<effectid>audiopan</effectid>
									<effectcategory>audiopan</effectcategory>
									<effecttype>audiopan</effecttype>
									<mediatype>audio</mediatype>
									<parameter authoringApp="PremierePro">
										<parameterid>pan</parameterid>
										<name>Pan</name>
										<valuemin>-1</valuemin>
										<valuemax>1</valuemax>
										<value>0</value>
									</parameter>
								</effect>
							</filter>
						<link>
							<linkclipref>clipitem-435</linkclipref>
							<mediatype>audio</mediatype>
							<trackindex>1</trackindex>
							<clipindex>39</clipindex>
							<groupindex>1</groupindex>
						</link>
						<link>
							<linkclipref>clipitem-503</linkclipref>
							<mediatype>audio</mediatype>
							<trackindex>2</trackindex>
							<clipindex>35</clipindex>
							<groupindex>1</groupindex>
						</link>
					</clipitem>
					<clipitem id="clipitem-436" frameBlend="FALSE" PannerCurrentValue="0.5" PannerKeyframes="" PannerStartKeyframe="-91445760000000000,0.5,0,0,0,0,0,0" PannerIsInverted="true" PannerName="Pan">
						<masterclipid>masterclip-8</masterclipid>
						<name>mktf-film-munchen-A01.MXF</name>
						<enabled>TRUE</enabled>
						<duration>21900</duration>
						<rate>
							<ntsc>TRUE</ntsc>
							<timebase>30</timebase>
						</rate>
						<start>22985</start>
						<end>23018</end>
						<in>20393</in>
						<out>20426</out>
						<file id="file-8"/>
						<sourcetrack>
							<mediatype>audio</mediatype>
							<trackindex>1</trackindex>
						</sourcetrack>
							<filter>
								<effect>
									<name>Gain</name>
									<effectid>{61756678, 4761696e, 4b657947}</effectid>
									<effecttype>filter</effecttype>
									<mediatype>audio</mediatype>
									<parameter authoringApp="PremierePro">
										<parameterid>Gain(dB)</parameterid>
										<name>Gain(dB)</name>
										<valuemin>-96</valuemin>
										<valuemax>96</valuemax>
										<value>9</value>
									</parameter>
								</effect>
							</filter>
							<filter>
								<effect>
									<name>Audio Levels</name>
									<effectid>audiolevels</effectid>
									<effectcategory>audiolevels</effectcategory>
									<effecttype>audiolevels</effecttype>
									<mediatype>audio</mediatype>
									<parameter authoringApp="PremierePro">
										<parameterid>level</parameterid>
										<name>Level</name>
										<valuemin>0</valuemin>
										<valuemax>3.98109</valuemax>
										<value>0</value>
										<keyframe>
											<when>2851</when>
											<value>0.980128</value>
										</keyframe>
										<keyframe>
											<when>2862</when>
											<value>0.998491</value>
										</keyframe>
										<keyframe>
											<when>4861</when>
											<value>1.99526</value>
										</keyframe>
										<keyframe>
											<when>4919</when>
											<value>1.99526</value>
										</keyframe>
										<keyframe>
											<when>4932</when>
											<value>0</value>
										</keyframe>
										<keyframe>
											<when>7371</when>
											<value>0</value>
										</keyframe>
										<keyframe>
											<when>7411</when>
											<value>1.05014</value>
										</keyframe>
										<keyframe>
											<when>20378</when>
											<value>1.05014</value>
										</keyframe>
										<keyframe>
											<when>20380</when>
											<value>0</value>
										</keyframe>
										<keyframe>
											<when>20801</when>
											<value>0</value>
										</keyframe>
										<keyframe>
											<when>20803</when>
											<value>1.19016</value>
										</keyframe>
										<keyframe>
											<when>20810</when>
											<value>1.19016</value>
										</keyframe>
										<keyframe>
											<when>20813</when>
											<value>0</value>
										</keyframe>
										<keyframe>
											<when>20964</when>
											<value>0</value>
										</keyframe>
										<keyframe>
											<when>20966</when>
											<value>1.05014</value>
										</keyframe>
										<keyframe>
											<when>20970</when>
											<value>1.05014</value>
										</keyframe>
										<keyframe>
											<when>20972</when>
											<value>0</value>
										</keyframe>
									</parameter>
								</effect>
							</filter>
							<filter>
								<effect>
									<name>Audio Pan</name>
									<effectid>audiopan</effectid>
									<effectcategory>audiopan</effectcategory>
									<effecttype>audiopan</effecttype>
									<mediatype>audio</mediatype>
									<parameter authoringApp="PremierePro">
										<parameterid>pan</parameterid>
										<name>Pan</name>
										<valuemin>-1</valuemin>
										<valuemax>1</valuemax>
										<value>0</value>
									</parameter>
								</effect>
							</filter>
						<link>
							<linkclipref>clipitem-436</linkclipref>
							<mediatype>audio</mediatype>
							<trackindex>1</trackindex>
							<clipindex>40</clipindex>
							<groupindex>1</groupindex>
						</link>
						<link>
							<linkclipref>clipitem-504</linkclipref>
							<mediatype>audio</mediatype>
							<trackindex>2</trackindex>
							<clipindex>36</clipindex>
							<groupindex>1</groupindex>
						</link>
					</clipitem>
					<clipitem id="clipitem-437" frameBlend="FALSE" PannerCurrentValue="0.5" PannerKeyframes="" PannerStartKeyframe="-91445760000000000,0.5,0,0,0,0,0,0" PannerIsInverted="true" PannerName="Pan">
						<masterclipid>masterclip-8</masterclipid>
						<name>mktf-film-munchen-A01.MXF</name>
						<enabled>TRUE</enabled>
						<duration>21900</duration>
						<rate>
							<ntsc>TRUE</ntsc>
							<timebase>30</timebase>
						</rate>
						<start>23018</start>
						<end>23437</end>
						<in>20426</in>
						<out>20845</out>
						<file id="file-8"/>
						<sourcetrack>
							<mediatype>audio</mediatype>
							<trackindex>1</trackindex>
						</sourcetrack>
							<filter>
								<effect>
									<name>Gain</name>
									<effectid>{61756678, 4761696e, 4b657947}</effectid>
									<effecttype>filter</effecttype>
									<mediatype>audio</mediatype>
									<parameter authoringApp="PremierePro">
										<parameterid>Gain(dB)</parameterid>
										<name>Gain(dB)</name>
										<valuemin>-96</valuemin>
										<valuemax>96</valuemax>
										<value>9</value>
									</parameter>
								</effect>
							</filter>
							<filter>
								<effect>
									<name>Audio Levels</name>
									<effectid>audiolevels</effectid>
									<effectcategory>audiolevels</effectcategory>
									<effecttype>audiolevels</effecttype>
									<mediatype>audio</mediatype>
									<parameter authoringApp="PremierePro">
										<parameterid>level</parameterid>
										<name>Level</name>
										<valuemin>0</valuemin>
										<valuemax>3.98109</valuemax>
										<value>0</value>
										<keyframe>
											<when>2851</when>
											<value>0.980128</value>
										</keyframe>
										<keyframe>
											<when>2862</when>
											<value>0.998491</value>
										</keyframe>
										<keyframe>
											<when>4861</when>
											<value>1.99526</value>
										</keyframe>
										<keyframe>
											<when>4919</when>
											<value>1.99526</value>
										</keyframe>
										<keyframe>
											<when>4932</when>
											<value>0</value>
										</keyframe>
										<keyframe>
											<when>7371</when>
											<value>0</value>
										</keyframe>
										<keyframe>
											<when>7411</when>
											<value>1.05014</value>
										</keyframe>
										<keyframe>
											<when>20378</when>
											<value>1.05014</value>
										</keyframe>
										<keyframe>
											<when>20380</when>
											<value>0</value>
										</keyframe>
										<keyframe>
											<when>20801</when>
											<value>0</value>
										</keyframe>
										<keyframe>
											<when>20803</when>
											<value>0.263223</value>
										</keyframe>
										<keyframe>
											<when>20810</when>
											<value>0.263223</value>
										</keyframe>
										<keyframe>
											<when>20813</when>
											<value>0</value>
										</keyframe>
										<keyframe>
											<when>20964</when>
											<value>0</value>
										</keyframe>
										<keyframe>
											<when>20966</when>
											<value>1.05014</value>
										</keyframe>
										<keyframe>
											<when>20970</when>
											<value>1.05014</value>
										</keyframe>
										<keyframe>
											<when>20972</when>
											<value>0</value>
										</keyframe>
									</parameter>
								</effect>
							</filter>
							<filter>
								<effect>
									<name>Audio Pan</name>
									<effectid>audiopan</effectid>
									<effectcategory>audiopan</effectcategory>
									<effecttype>audiopan</effecttype>
									<mediatype>audio</mediatype>
									<parameter authoringApp="PremierePro">
										<parameterid>pan</parameterid>
										<name>Pan</name>
										<valuemin>-1</valuemin>
										<valuemax>1</valuemax>
										<value>0</value>
									</parameter>
								</effect>
							</filter>
						<link>
							<linkclipref>clipitem-437</linkclipref>
							<mediatype>audio</mediatype>
							<trackindex>1</trackindex>
							<clipindex>41</clipindex>
							<groupindex>1</groupindex>
						</link>
						<link>
							<linkclipref>clipitem-505</linkclipref>
							<mediatype>audio</mediatype>
							<trackindex>2</trackindex>
							<clipindex>37</clipindex>
							<groupindex>1</groupindex>
						</link>
					</clipitem>
					<clipitem id="clipitem-438" frameBlend="FALSE" PannerCurrentValue="0.5" PannerKeyframes="" PannerStartKeyframe="-91445760000000000,0.5,0,0,0,0,0,0" PannerIsInverted="true" PannerName="Pan">
						<masterclipid>masterclip-8</masterclipid>
						<name>mktf-film-munchen-A01.MXF</name>
						<enabled>TRUE</enabled>
						<duration>21900</duration>
						<rate>
							<ntsc>TRUE</ntsc>
							<timebase>30</timebase>
						</rate>
						<start>23437</start>
						<end>23469</end>
						<in>21440</in>
						<out>21472</out>
						<file id="file-8"/>
						<sourcetrack>
							<mediatype>audio</mediatype>
							<trackindex>1</trackindex>
						</sourcetrack>
							<filter>
								<effect>
									<name>Gain</name>
									<effectid>{61756678, 4761696e, 4b657947}</effectid>
									<effecttype>filter</effecttype>
									<mediatype>audio</mediatype>
									<parameter authoringApp="PremierePro">
										<parameterid>Gain(dB)</parameterid>
										<name>Gain(dB)</name>
										<valuemin>-96</valuemin>
										<valuemax>96</valuemax>
										<value>9</value>
									</parameter>
								</effect>
							</filter>
							<filter>
								<effect>
									<name>Audio Levels</name>
									<effectid>audiolevels</effectid>
									<effectcategory>audiolevels</effectcategory>
									<effecttype>audiolevels</effecttype>
									<mediatype>audio</mediatype>
									<parameter authoringApp="PremierePro">
										<parameterid>level</parameterid>
										<name>Level</name>
										<valuemin>0</valuemin>
										<valuemax>3.98109</valuemax>
										<value>0</value>
										<keyframe>
											<when>2851</when>
											<value>0.980128</value>
										</keyframe>
										<keyframe>
											<when>2862</when>
											<value>0.998491</value>
										</keyframe>
										<keyframe>
											<when>4861</when>
											<value>1.99526</value>
										</keyframe>
										<keyframe>
											<when>4919</when>
											<value>1.99526</value>
										</keyframe>
										<keyframe>
											<when>4932</when>
											<value>0</value>
										</keyframe>
										<keyframe>
											<when>7371</when>
											<value>0</value>
										</keyframe>
										<keyframe>
											<when>7411</when>
											<value>1.05014</value>
										</keyframe>
										<keyframe>
											<when>20378</when>
											<value>1.05014</value>
										</keyframe>
										<keyframe>
											<when>20380</when>
											<value>0</value>
										</keyframe>
										<keyframe>
											<when>20801</when>
											<value>0</value>
										</keyframe>
										<keyframe>
											<when>20803</when>
											<value>1.19016</value>
										</keyframe>
										<keyframe>
											<when>20810</when>
											<value>1.19016</value>
										</keyframe>
										<keyframe>
											<when>20813</when>
											<value>0</value>
										</keyframe>
										<keyframe>
											<when>20964</when>
											<value>0</value>
										</keyframe>
										<keyframe>
											<when>20966</when>
											<value>1.05014</value>
										</keyframe>
										<keyframe>
											<when>20970</when>
											<value>1.05014</value>
										</keyframe>
										<keyframe>
											<when>20972</when>
											<value>0</value>
										</keyframe>
									</parameter>
								</effect>
							</filter>
							<filter>
								<effect>
									<name>Audio Pan</name>
									<effectid>audiopan</effectid>
									<effectcategory>audiopan</effectcategory>
									<effecttype>audiopan</effecttype>
									<mediatype>audio</mediatype>
									<parameter authoringApp="PremierePro">
										<parameterid>pan</parameterid>
										<name>Pan</name>
										<valuemin>-1</valuemin>
										<valuemax>1</valuemax>
										<value>0</value>
									</parameter>
								</effect>
							</filter>
						<link>
							<linkclipref>clipitem-438</linkclipref>
							<mediatype>audio</mediatype>
							<trackindex>1</trackindex>
							<clipindex>42</clipindex>
							<groupindex>1</groupindex>
						</link>
						<link>
							<linkclipref>clipitem-506</linkclipref>
							<mediatype>audio</mediatype>
							<trackindex>2</trackindex>
							<clipindex>38</clipindex>
							<groupindex>1</groupindex>
						</link>
					</clipitem>
					<clipitem id="clipitem-439" frameBlend="FALSE" PannerCurrentValue="0.5" PannerKeyframes="" PannerStartKeyframe="-91445760000000000,0.5,0,0,0,0,0,0" PannerIsInverted="true" PannerName="Pan">
						<masterclipid>masterclip-8</masterclipid>
						<name>mktf-film-munchen-A01.MXF</name>
						<enabled>TRUE</enabled>
						<duration>21900</duration>
						<rate>
							<ntsc>TRUE</ntsc>
							<timebase>30</timebase>
						</rate>
						<start>23469</start>
						<end>-1</end>
						<in>21508</in>
						<out>21783</out>
						<file id="file-8"/>
						<sourcetrack>
							<mediatype>audio</mediatype>
							<trackindex>1</trackindex>
						</sourcetrack>
							<filter>
								<effect>
									<name>Gain</name>
									<effectid>{61756678, 4761696e, 4b657947}</effectid>
									<effecttype>filter</effecttype>
									<mediatype>audio</mediatype>
									<parameter authoringApp="PremierePro">
										<parameterid>Gain(dB)</parameterid>
										<name>Gain(dB)</name>
										<valuemin>-96</valuemin>
										<valuemax>96</valuemax>
										<value>9</value>
									</parameter>
								</effect>
							</filter>
							<filter>
								<effect>
									<name>Audio Levels</name>
									<effectid>audiolevels</effectid>
									<effectcategory>audiolevels</effectcategory>
									<effecttype>audiolevels</effecttype>
									<mediatype>audio</mediatype>
									<parameter authoringApp="PremierePro">
										<parameterid>level</parameterid>
										<name>Level</name>
										<valuemin>0</valuemin>
										<valuemax>3.98109</valuemax>
										<value>0</value>
										<keyframe>
											<when>2851</when>
											<value>0.980128</value>
										</keyframe>
										<keyframe>
											<when>2862</when>
											<value>0.998491</value>
										</keyframe>
										<keyframe>
											<when>4861</when>
											<value>1.99526</value>
										</keyframe>
										<keyframe>
											<when>4919</when>
											<value>1.99526</value>
										</keyframe>
										<keyframe>
											<when>4932</when>
											<value>0</value>
										</keyframe>
										<keyframe>
											<when>7371</when>
											<value>0</value>
										</keyframe>
										<keyframe>
											<when>7411</when>
											<value>1.05014</value>
										</keyframe>
										<keyframe>
											<when>20378</when>
											<value>1.05014</value>
										</keyframe>
										<keyframe>
											<when>20380</when>
											<value>0</value>
										</keyframe>
										<keyframe>
											<when>20801</when>
											<value>0</value>
										</keyframe>
										<keyframe>
											<when>20803</when>
											<value>1.19016</value>
										</keyframe>
										<keyframe>
											<when>20810</when>
											<value>1.19016</value>
										</keyframe>
										<keyframe>
											<when>20813</when>
											<value>0</value>
										</keyframe>
										<keyframe>
											<when>20964</when>
											<value>0</value>
										</keyframe>
										<keyframe>
											<when>20966</when>
											<value>1.05014</value>
										</keyframe>
										<keyframe>
											<when>20970</when>
											<value>1.05014</value>
										</keyframe>
										<keyframe>
											<when>20972</when>
											<value>0</value>
										</keyframe>
									</parameter>
								</effect>
							</filter>
							<filter>
								<effect>
									<name>Audio Pan</name>
									<effectid>audiopan</effectid>
									<effectcategory>audiopan</effectcategory>
									<effecttype>audiopan</effecttype>
									<mediatype>audio</mediatype>
									<parameter authoringApp="PremierePro">
										<parameterid>pan</parameterid>
										<name>Pan</name>
										<valuemin>-1</valuemin>
										<valuemax>1</valuemax>
										<value>0</value>
									</parameter>
								</effect>
							</filter>
						<link>
							<linkclipref>clipitem-439</linkclipref>
							<mediatype>audio</mediatype>
							<trackindex>1</trackindex>
							<clipindex>43</clipindex>
							<groupindex>1</groupindex>
						</link>
						<link>
							<linkclipref>clipitem-507</linkclipref>
							<mediatype>audio</mediatype>
							<trackindex>2</trackindex>
							<clipindex>39</clipindex>
							<groupindex>1</groupindex>
						</link>
					</clipitem>
					<transitionitem>
						<start>23719</start>
						<end>23744</end>
						<alignment>end-black</alignment>
						<cutPoint>25</cutPoint>
						<rate>
							<timebase>25</timebase>
							<ntsc>FALSE</ntsc>
						</rate>
						<effect>
							<name>Cross Fade (+3dB)</name>
							<effectid>KGAudioTransCrossFade3dB</effectid>
							<effecttype>transition</effecttype>
							<mediatype>audio</mediatype>
							<wipecode>0</wipecode>
							<wipeaccuracy>100</wipeaccuracy>
							<startratio>0</startratio>
							<endratio>1</endratio>
							<reverse>FALSE</reverse>
						</effect>
					</transitionitem>
					<clipitem id="clipitem-440" frameBlend="FALSE" PannerCurrentValue="0.5" PannerKeyframes="" PannerStartKeyframe="-91445760000000000,0.5,0,0,0,0,0,0" PannerIsInverted="true" PannerName="Pan">
						<masterclipid>masterclip-10</masterclipid>
						<name>mktf-film-erikpoppe-r01.MXF</name>
						<enabled>TRUE</enabled>
						<duration>3060</duration>
						<rate>
							<ntsc>TRUE</ntsc>
							<timebase>30</timebase>
						</rate>
						<start>24728</start>
						<end>24806</end>
						<in>788</in>
						<out>866</out>
						<file id="file-10"/>
						<sourcetrack>
							<mediatype>audio</mediatype>
							<trackindex>1</trackindex>
						</sourcetrack>
							<filter>
								<effect>
									<name>Audio Levels</name>
									<effectid>audiolevels</effectid>
									<effectcategory>audiolevels</effectcategory>
									<effecttype>audiolevels</effecttype>
									<mediatype>audio</mediatype>
									<parameter authoringApp="PremierePro">
										<parameterid>level</parameterid>
										<name>Level</name>
										<valuemin>0</valuemin>
										<valuemax>3.98109</valuemax>
										<value>0.99763</value>
										<keyframe>
											<when>819</when>
											<value>0.99763</value>
										</keyframe>
										<keyframe>
											<when>824</when>
											<value>0.126137</value>
										</keyframe>
									</parameter>
								</effect>
							</filter>
							<filter>
								<effect>
									<name>Audio Pan</name>
									<effectid>audiopan</effectid>
									<effectcategory>audiopan</effectcategory>
									<effecttype>audiopan</effecttype>
									<mediatype>audio</mediatype>
									<parameter authoringApp="PremierePro">
										<parameterid>pan</parameterid>
										<name>Pan</name>
										<valuemin>-1</valuemin>
										<valuemax>1</valuemax>
										<value>0</value>
									</parameter>
								</effect>
							</filter>
						<link>
							<linkclipref>clipitem-42</linkclipref>
							<mediatype>video</mediatype>
							<trackindex>1</trackindex>
							<clipindex>46</clipindex>
						</link>
						<link>
							<linkclipref>clipitem-440</linkclipref>
							<mediatype>audio</mediatype>
							<trackindex>1</trackindex>
							<clipindex>45</clipindex>
							<groupindex>1</groupindex>
						</link>
						<link>
							<linkclipref>clipitem-508</linkclipref>
							<mediatype>audio</mediatype>
							<trackindex>2</trackindex>
							<clipindex>41</clipindex>
							<groupindex>1</groupindex>
						</link>
					</clipitem>
					<clipitem id="clipitem-441" frameBlend="FALSE" PannerCurrentValue="0.5" PannerKeyframes="" PannerStartKeyframe="-91445760000000000,0.5,0,0,0,0,0,0" PannerIsInverted="true" PannerName="Pan">
						<masterclipid>masterclip-10</masterclipid>
						<name>mktf-film-erikpoppe-r01.MXF</name>
						<enabled>TRUE</enabled>
						<duration>3060</duration>
						<rate>
							<ntsc>TRUE</ntsc>
							<timebase>30</timebase>
						</rate>
						<start>24806</start>
						<end>24868</end>
						<in>2872</in>
						<out>2934</out>
						<file id="file-10"/>
						<sourcetrack>
							<mediatype>audio</mediatype>
							<trackindex>1</trackindex>
						</sourcetrack>
							<filter>
								<effect>
									<name>Audio Levels</name>
									<effectid>audiolevels</effectid>
									<effectcategory>audiolevels</effectcategory>
									<effecttype>audiolevels</effecttype>
									<mediatype>audio</mediatype>
									<parameter authoringApp="PremierePro">
										<parameterid>level</parameterid>
										<name>Level</name>
										<valuemin>0</valuemin>
										<valuemax>3.98109</valuemax>
										<value>0</value>
									</parameter>
								</effect>
							</filter>
							<filter>
								<effect>
									<name>Audio Pan</name>
									<effectid>audiopan</effectid>
									<effectcategory>audiopan</effectcategory>
									<effecttype>audiopan</effecttype>
									<mediatype>audio</mediatype>
									<parameter authoringApp="PremierePro">
										<parameterid>pan</parameterid>
										<name>Pan</name>
										<valuemin>-1</valuemin>
										<valuemax>1</valuemax>
										<value>0</value>
									</parameter>
								</effect>
							</filter>
						<link>
							<linkclipref>clipitem-43</linkclipref>
							<mediatype>video</mediatype>
							<trackindex>1</trackindex>
							<clipindex>47</clipindex>
						</link>
						<link>
							<linkclipref>clipitem-441</linkclipref>
							<mediatype>audio</mediatype>
							<trackindex>1</trackindex>
							<clipindex>46</clipindex>
							<groupindex>1</groupindex>
						</link>
						<link>
							<linkclipref>clipitem-509</linkclipref>
							<mediatype>audio</mediatype>
							<trackindex>2</trackindex>
							<clipindex>42</clipindex>
							<groupindex>1</groupindex>
						</link>
					</clipitem>
					<clipitem id="clipitem-442" frameBlend="FALSE" PannerCurrentValue="0.5" PannerKeyframes="" PannerStartKeyframe="-91445760000000000,0.5,0,0,0,0,0,0" PannerIsInverted="true" PannerName="Pan">
						<masterclipid>masterclip-11</masterclipid>
						<name>mktf-film-erikpoppe-r02.MXF</name>
						<enabled>TRUE</enabled>
						<duration>4548</duration>
						<rate>
							<ntsc>TRUE</ntsc>
							<timebase>30</timebase>
						</rate>
						<start>24868</start>
						<end>24979</end>
						<in>426</in>
						<out>537</out>
						<file id="file-11"/>
						<sourcetrack>
							<mediatype>audio</mediatype>
							<trackindex>1</trackindex>
						</sourcetrack>
							<filter>
								<effect>
									<name>Gain</name>
									<effectid>{61756678, 4761696e, 4b657947}</effectid>
									<effecttype>filter</effecttype>
									<mediatype>audio</mediatype>
									<parameter authoringApp="PremierePro">
										<parameterid>Gain(dB)</parameterid>
										<name>Gain(dB)</name>
										<valuemin>-96</valuemin>
										<valuemax>96</valuemax>
										<value>-21</value>
									</parameter>
								</effect>
							</filter>
							<filter>
								<effect>
									<name>Audio Pan</name>
									<effectid>audiopan</effectid>
									<effectcategory>audiopan</effectcategory>
									<effecttype>audiopan</effecttype>
									<mediatype>audio</mediatype>
									<parameter authoringApp="PremierePro">
										<parameterid>pan</parameterid>
										<name>Pan</name>
										<valuemin>-1</valuemin>
										<valuemax>1</valuemax>
										<value>0</value>
									</parameter>
								</effect>
							</filter>
						<link>
							<linkclipref>clipitem-44</linkclipref>
							<mediatype>video</mediatype>
							<trackindex>1</trackindex>
							<clipindex>48</clipindex>
						</link>
						<link>
							<linkclipref>clipitem-442</linkclipref>
							<mediatype>audio</mediatype>
							<trackindex>1</trackindex>
							<clipindex>47</clipindex>
							<groupindex>1</groupindex>
						</link>
						<link>
							<linkclipref>clipitem-510</linkclipref>
							<mediatype>audio</mediatype>
							<trackindex>2</trackindex>
							<clipindex>43</clipindex>
							<groupindex>1</groupindex>
						</link>
					</clipitem>
					<clipitem id="clipitem-443" frameBlend="FALSE" PannerCurrentValue="0.5" PannerKeyframes="" PannerStartKeyframe="-91445760000000000,0.5,0,0,0,0,0,0" PannerIsInverted="true" PannerName="Pan">
						<masterclipid>masterclip-11</masterclipid>
						<name>mktf-film-erikpoppe-r02.MXF</name>
						<enabled>TRUE</enabled>
						<duration>4548</duration>
						<rate>
							<ntsc>TRUE</ntsc>
							<timebase>30</timebase>
						</rate>
						<start>24989</start>
						<end>25021</end>
						<in>1031</in>
						<out>1063</out>
						<file id="file-11"/>
						<sourcetrack>
							<mediatype>audio</mediatype>
							<trackindex>1</trackindex>
						</sourcetrack>
							<filter>
								<effect>
									<name>Gain</name>
									<effectid>{61756678, 4761696e, 4b657947}</effectid>
									<effecttype>filter</effecttype>
									<mediatype>audio</mediatype>
									<parameter authoringApp="PremierePro">
										<parameterid>Gain(dB)</parameterid>
										<name>Gain(dB)</name>
										<valuemin>-96</valuemin>
										<valuemax>96</valuemax>
										<value>-21</value>
									</parameter>
								</effect>
							</filter>
							<filter>
								<effect>
									<name>Audio Pan</name>
									<effectid>audiopan</effectid>
									<effectcategory>audiopan</effectcategory>
									<effecttype>audiopan</effecttype>
									<mediatype>audio</mediatype>
									<parameter authoringApp="PremierePro">
										<parameterid>pan</parameterid>
										<name>Pan</name>
										<valuemin>-1</valuemin>
										<valuemax>1</valuemax>
										<value>0</value>
									</parameter>
								</effect>
							</filter>
						<link>
							<linkclipref>clipitem-122</linkclipref>
							<mediatype>video</mediatype>
							<trackindex>2</trackindex>
							<clipindex>45</clipindex>
						</link>
						<link>
							<linkclipref>clipitem-443</linkclipref>
							<mediatype>audio</mediatype>
							<trackindex>1</trackindex>
							<clipindex>48</clipindex>
							<groupindex>1</groupindex>
						</link>
						<link>
							<linkclipref>clipitem-511</linkclipref>
							<mediatype>audio</mediatype>
							<trackindex>2</trackindex>
							<clipindex>44</clipindex>
							<groupindex>1</groupindex>
						</link>
					</clipitem>
					<clipitem id="clipitem-444" frameBlend="FALSE" PannerCurrentValue="0.5" PannerKeyframes="" PannerStartKeyframe="-91445760000000000,0.5,0,0,0,0,0,0" PannerIsInverted="true" PannerName="Pan">
						<masterclipid>masterclip-11</masterclipid>
						<name>mktf-film-erikpoppe-r02.MXF</name>
						<enabled>TRUE</enabled>
						<duration>4548</duration>
						<rate>
							<ntsc>TRUE</ntsc>
							<timebase>30</timebase>
						</rate>
						<start>25021</start>
						<end>25102</end>
						<in>4210</in>
						<out>4291</out>
						<file id="file-11"/>
						<sourcetrack>
							<mediatype>audio</mediatype>
							<trackindex>1</trackindex>
						</sourcetrack>
							<filter>
								<effect>
									<name>Gain</name>
									<effectid>{61756678, 4761696e, 4b657947}</effectid>
									<effecttype>filter</effecttype>
									<mediatype>audio</mediatype>
									<parameter authoringApp="PremierePro">
										<parameterid>Gain(dB)</parameterid>
										<name>Gain(dB)</name>
										<valuemin>-96</valuemin>
										<valuemax>96</valuemax>
										<value>-21</value>
									</parameter>
								</effect>
							</filter>
							<filter>
								<effect>
									<name>Audio Pan</name>
									<effectid>audiopan</effectid>
									<effectcategory>audiopan</effectcategory>
									<effecttype>audiopan</effecttype>
									<mediatype>audio</mediatype>
									<parameter authoringApp="PremierePro">
										<parameterid>pan</parameterid>
										<name>Pan</name>
										<valuemin>-1</valuemin>
										<valuemax>1</valuemax>
										<value>0</value>
									</parameter>
								</effect>
							</filter>
						<link>
							<linkclipref>clipitem-123</linkclipref>
							<mediatype>video</mediatype>
							<trackindex>2</trackindex>
							<clipindex>46</clipindex>
						</link>
						<link>
							<linkclipref>clipitem-444</linkclipref>
							<mediatype>audio</mediatype>
							<trackindex>1</trackindex>
							<clipindex>49</clipindex>
							<groupindex>1</groupindex>
						</link>
						<link>
							<linkclipref>clipitem-512</linkclipref>
							<mediatype>audio</mediatype>
							<trackindex>2</trackindex>
							<clipindex>45</clipindex>
							<groupindex>1</groupindex>
						</link>
					</clipitem>
					<clipitem id="clipitem-445" frameBlend="FALSE" PannerCurrentValue="0.5" PannerKeyframes="" PannerStartKeyframe="-91445760000000000,0.5,0,0,0,0,0,0" PannerIsInverted="true" PannerName="Pan">
						<masterclipid>masterclip-12</masterclipid>
						<name>mktf-film-erikpoppe-r03.MXF</name>
						<enabled>TRUE</enabled>
						<duration>35028</duration>
						<rate>
							<ntsc>TRUE</ntsc>
							<timebase>30</timebase>
						</rate>
						<start>25229</start>
						<end>25901</end>
						<in>8142</in>
						<out>8814</out>
						<file id="file-12"/>
						<sourcetrack>
							<mediatype>audio</mediatype>
							<trackindex>1</trackindex>
						</sourcetrack>
							<filter>
								<effect>
									<name>Gain</name>
									<effectid>{61756678, 4761696e, 4b657947}</effectid>
									<effecttype>filter</effecttype>
									<mediatype>audio</mediatype>
									<parameter authoringApp="PremierePro">
										<parameterid>Gain(dB)</parameterid>
										<name>Gain(dB)</name>
										<valuemin>-96</valuemin>
										<valuemax>96</valuemax>
										<value>1</value>
									</parameter>
								</effect>
							</filter>
							<filter>
								<effect>
									<name>Audio Levels</name>
									<effectid>audiolevels</effectid>
									<effectcategory>audiolevels</effectcategory>
									<effecttype>audiolevels</effecttype>
									<mediatype>audio</mediatype>
									<parameter authoringApp="PremierePro">
										<parameterid>level</parameterid>
										<name>Level</name>
										<valuemin>0</valuemin>
										<valuemax>3.98109</valuemax>
										<value>0</value>
										<keyframe>
											<when>5835</when>
											<value>0</value>
										</keyframe>
										<keyframe>
											<when>5845</when>
											<value>0.99763</value>
										</keyframe>
										<keyframe>
											<when>5858</when>
											<value>0.99763</value>
										</keyframe>
										<keyframe>
											<when>5867</when>
											<value>0</value>
										</keyframe>
										<keyframe>
											<when>5952</when>
											<value>0</value>
										</keyframe>
										<keyframe>
											<when>5957</when>
											<value>1.01513</value>
										</keyframe>
										<keyframe>
											<when>6434</when>
											<value>1.01513</value>
										</keyframe>
										<keyframe>
											<when>6451</when>
											<value>0</value>
										</keyframe>
										<keyframe>
											<when>6636</when>
											<value>0</value>
										</keyframe>
										<keyframe>
											<when>6645</when>
											<value>1.01513</value>
										</keyframe>
										<keyframe>
											<when>7558</when>
											<value>1.01513</value>
										</keyframe>
										<keyframe>
											<when>7567</when>
											<value>0</value>
										</keyframe>
										<keyframe>
											<when>8340</when>
											<value>0</value>
										</keyframe>
										<keyframe>
											<when>8352</when>
											<value>0.99863</value>
										</keyframe>
										<keyframe>
											<when>10138</when>
											<value>0.99863</value>
										</keyframe>
										<keyframe>
											<when>10146</when>
											<value>0.578575</value>
										</keyframe>
										<keyframe>
											<when>10185</when>
											<value>0.578575</value>
										</keyframe>
										<keyframe>
											<when>10196</when>
											<value>0.99863</value>
										</keyframe>
										<keyframe>
											<when>12159</when>
											<value>0.998643</value>
										</keyframe>
										<keyframe>
											<when>12173</when>
											<value>0</value>
										</keyframe>
										<keyframe>
											<when>12516</when>
											<value>0</value>
										</keyframe>
										<keyframe>
											<when>12528</when>
											<value>1.22516</value>
										</keyframe>
										<keyframe>
											<when>12542</when>
											<value>1.22516</value>
										</keyframe>
										<keyframe>
											<when>12551</when>
											<value>0</value>
										</keyframe>
										<keyframe>
											<when>12646</when>
											<value>0</value>
										</keyframe>
										<keyframe>
											<when>12660</when>
											<value>1.01288</value>
										</keyframe>
										<keyframe>
											<when>14407</when>
											<value>1.01288</value>
										</keyframe>
										<keyframe>
											<when>14442</when>
											<value>0</value>
										</keyframe>
										<keyframe>
											<when>14796</when>
											<value>0</value>
										</keyframe>
										<keyframe>
											<when>14861</when>
											<value>1.05014</value>
										</keyframe>
										<keyframe>
											<when>15586</when>
											<value>1.05014</value>
										</keyframe>
										<keyframe>
											<when>15614</when>
											<value>0</value>
										</keyframe>
										<keyframe>
											<when>15812</when>
											<value>0</value>
										</keyframe>
										<keyframe>
											<when>15841</when>
											<value>1.05014</value>
										</keyframe>
										<keyframe>
											<when>17970</when>
											<value>1.05014</value>
										</keyframe>
										<keyframe>
											<when>18005</when>
											<value>0</value>
										</keyframe>
										<keyframe>
											<when>18257</when>
											<value>0</value>
										</keyframe>
										<keyframe>
											<when>18268</when>
											<value>1.18605</value>
										</keyframe>
										<keyframe>
											<when>18285</when>
											<value>1.16439</value>
										</keyframe>
										<keyframe>
											<when>18295</when>
											<value>0</value>
										</keyframe>
										<keyframe>
											<when>18487</when>
											<value>0</value>
										</keyframe>
										<keyframe>
											<when>18491</when>
											<value>1.24937</value>
										</keyframe>
										<keyframe>
											<when>18499</when>
											<value>1.24937</value>
										</keyframe>
										<keyframe>
											<when>18504</when>
											<value>0</value>
										</keyframe>
										<keyframe>
											<when>18544</when>
											<value>0</value>
										</keyframe>
										<keyframe>
											<when>18587</when>
											<value>0</value>
										</keyframe>
										<keyframe>
											<when>18591</when>
											<value>0.96606</value>
										</keyframe>
										<keyframe>
											<when>20345</when>
											<value>0.96606</value>
										</keyframe>
										<keyframe>
											<when>20352</when>
											<value>0.238816</value>
										</keyframe>
										<keyframe>
											<when>20424</when>
											<value>0.238816</value>
										</keyframe>
										<keyframe>
											<when>20433</when>
											<value>0.96606</value>
										</keyframe>
									</parameter>
								</effect>
							</filter>
							<filter>
								<effect>
									<name>Audio Pan</name>
									<effectid>audiopan</effectid>
									<effectcategory>audiopan</effectcategory>
									<effecttype>audiopan</effecttype>
									<mediatype>audio</mediatype>
									<parameter authoringApp="PremierePro">
										<parameterid>pan</parameterid>
										<name>Pan</name>
										<valuemin>-1</valuemin>
										<valuemax>1</valuemax>
										<value>0</value>
									</parameter>
								</effect>
							</filter>
						<link>
							<linkclipref>clipitem-46</linkclipref>
							<mediatype>video</mediatype>
							<trackindex>1</trackindex>
							<clipindex>51</clipindex>
						</link>
						<link>
							<linkclipref>clipitem-445</linkclipref>
							<mediatype>audio</mediatype>
							<trackindex>1</trackindex>
							<clipindex>50</clipindex>
							<groupindex>1</groupindex>
						</link>
						<link>
							<linkclipref>clipitem-513</linkclipref>
							<mediatype>audio</mediatype>
							<trackindex>2</trackindex>
							<clipindex>46</clipindex>
							<groupindex>1</groupindex>
						</link>
					</clipitem>
					<clipitem id="clipitem-446" frameBlend="FALSE" PannerCurrentValue="0.5" PannerKeyframes="" PannerStartKeyframe="-91445760000000000,0.5,0,0,0,0,0,0" PannerIsInverted="true" PannerName="Pan">
						<masterclipid>masterclip-12</masterclipid>
						<name>mktf-film-erikpoppe-r03.MXF</name>
						<enabled>TRUE</enabled>
						<duration>35028</duration>
						<rate>
							<ntsc>TRUE</ntsc>
							<timebase>30</timebase>
						</rate>
						<start>25901</start>
						<end>27922</end>
						<in>10143</in>
						<out>12164</out>
						<file id="file-12"/>
						<sourcetrack>
							<mediatype>audio</mediatype>
							<trackindex>1</trackindex>
						</sourcetrack>
							<filter>
								<effect>
									<name>Gain</name>
									<effectid>{61756678, 4761696e, 4b657947}</effectid>
									<effecttype>filter</effecttype>
									<mediatype>audio</mediatype>
									<parameter authoringApp="PremierePro">
										<parameterid>Gain(dB)</parameterid>
										<name>Gain(dB)</name>
										<valuemin>-96</valuemin>
										<valuemax>96</valuemax>
										<value>1</value>
									</parameter>
								</effect>
							</filter>
							<filter>
								<effect>
									<name>Audio Levels</name>
									<effectid>audiolevels</effectid>
									<effectcategory>audiolevels</effectcategory>
									<effecttype>audiolevels</effecttype>
									<mediatype>audio</mediatype>
									<parameter authoringApp="PremierePro">
										<parameterid>level</parameterid>
										<name>Level</name>
										<valuemin>0</valuemin>
										<valuemax>3.98109</valuemax>
										<value>0.775596</value>
										<keyframe>
											<when>5835</when>
											<value>0</value>
										</keyframe>
										<keyframe>
											<when>5845</when>
											<value>0.99763</value>
										</keyframe>
										<keyframe>
											<when>5858</when>
											<value>0.99763</value>
										</keyframe>
										<keyframe>
											<when>5867</when>
											<value>0</value>
										</keyframe>
										<keyframe>
											<when>5952</when>
											<value>0</value>
										</keyframe>
										<keyframe>
											<when>5957</when>
											<value>1.01513</value>
										</keyframe>
										<keyframe>
											<when>6434</when>
											<value>1.01513</value>
										</keyframe>
										<keyframe>
											<when>6451</when>
											<value>0</value>
										</keyframe>
										<keyframe>
											<when>6636</when>
											<value>0</value>
										</keyframe>
										<keyframe>
											<when>6645</when>
											<value>1.01513</value>
										</keyframe>
										<keyframe>
											<when>7558</when>
											<value>1.01513</value>
										</keyframe>
										<keyframe>
											<when>7567</when>
											<value>0</value>
										</keyframe>
										<keyframe>
											<when>8340</when>
											<value>0</value>
										</keyframe>
										<keyframe>
											<when>8352</when>
											<value>0.99863</value>
										</keyframe>
										<keyframe>
											<when>10138</when>
											<value>0.99863</value>
										</keyframe>
										<keyframe>
											<when>10146</when>
											<value>0.578575</value>
										</keyframe>
										<keyframe>
											<when>10185</when>
											<value>0.578575</value>
										</keyframe>
										<keyframe>
											<when>10196</when>
											<value>0.99863</value>
										</keyframe>
										<keyframe>
											<when>12134</when>
											<value>0.998643</value>
										</keyframe>
										<keyframe>
											<when>12137</when>
											<value>0</value>
										</keyframe>
										<keyframe>
											<when>12159</when>
											<value>0</value>
										</keyframe>
										<keyframe>
											<when>12173</when>
											<value>0</value>
										</keyframe>
										<keyframe>
											<when>12516</when>
											<value>0</value>
										</keyframe>
										<keyframe>
											<when>12528</when>
											<value>1.22516</value>
										</keyframe>
										<keyframe>
											<when>12542</when>
											<value>1.22516</value>
										</keyframe>
										<keyframe>
											<when>12551</when>
											<value>0</value>
										</keyframe>
										<keyframe>
											<when>12646</when>
											<value>0</value>
										</keyframe>
										<keyframe>
											<when>12660</when>
											<value>1.01288</value>
										</keyframe>
										<keyframe>
											<when>14407</when>
											<value>1.01288</value>
										</keyframe>
										<keyframe>
											<when>14442</when>
											<value>0</value>
										</keyframe>
										<keyframe>
											<when>14796</when>
											<value>0</value>
										</keyframe>
										<keyframe>
											<when>14861</when>
											<value>1.05014</value>
										</keyframe>
										<keyframe>
											<when>15586</when>
											<value>1.05014</value>
										</keyframe>
										<keyframe>
											<when>15614</when>
											<value>0</value>
										</keyframe>
										<keyframe>
											<when>15812</when>
											<value>0</value>
										</keyframe>
										<keyframe>
											<when>15841</when>
											<value>1.05014</value>
										</keyframe>
										<keyframe>
											<when>17970</when>
											<value>1.05014</value>
										</keyframe>
										<keyframe>
											<when>18005</when>
											<value>0</value>
										</keyframe>
										<keyframe>
											<when>18257</when>
											<value>0</value>
										</keyframe>
										<keyframe>
											<when>18268</when>
											<value>1.18605</value>
										</keyframe>
										<keyframe>
											<when>18285</when>
											<value>1.16439</value>
										</keyframe>
										<keyframe>
											<when>18295</when>
											<value>0</value>
										</keyframe>
										<keyframe>
											<when>18487</when>
											<value>0</value>
										</keyframe>
										<keyframe>
											<when>18491</when>
											<value>1.24937</value>
										</keyframe>
										<keyframe>
											<when>18499</when>
											<value>1.24937</value>
										</keyframe>
										<keyframe>
											<when>18504</when>
											<value>0</value>
										</keyframe>
										<keyframe>
											<when>18544</when>
											<value>0</value>
										</keyframe>
										<keyframe>
											<when>18587</when>
											<value>0</value>
										</keyframe>
										<keyframe>
											<when>18591</when>
											<value>0.96606</value>
										</keyframe>
										<keyframe>
											<when>20345</when>
											<value>0.96606</value>
										</keyframe>
										<keyframe>
											<when>20352</when>
											<value>0.238816</value>
										</keyframe>
										<keyframe>
											<when>20424</when>
											<value>0.238816</value>
										</keyframe>
										<keyframe>
											<when>20433</when>
											<value>0.96606</value>
										</keyframe>
									</parameter>
								</effect>
							</filter>
							<filter>
								<effect>
									<name>Audio Pan</name>
									<effectid>audiopan</effectid>
									<effectcategory>audiopan</effectcategory>
									<effecttype>audiopan</effecttype>
									<mediatype>audio</mediatype>
									<parameter authoringApp="PremierePro">
										<parameterid>pan</parameterid>
										<name>Pan</name>
										<valuemin>-1</valuemin>
										<valuemax>1</valuemax>
										<value>0</value>
									</parameter>
								</effect>
							</filter>
						<link>
							<linkclipref>clipitem-47</linkclipref>
							<mediatype>video</mediatype>
							<trackindex>1</trackindex>
							<clipindex>52</clipindex>
						</link>
						<link>
							<linkclipref>clipitem-446</linkclipref>
							<mediatype>audio</mediatype>
							<trackindex>1</trackindex>
							<clipindex>51</clipindex>
							<groupindex>1</groupindex>
						</link>
						<link>
							<linkclipref>clipitem-514</linkclipref>
							<mediatype>audio</mediatype>
							<trackindex>2</trackindex>
							<clipindex>47</clipindex>
							<groupindex>1</groupindex>
						</link>
					</clipitem>
					<clipitem id="clipitem-447" frameBlend="FALSE" PannerCurrentValue="0.5" PannerKeyframes="" PannerStartKeyframe="-91445760000000000,0.5,0,0,0,0,0,0" PannerIsInverted="true" PannerName="Pan">
						<masterclipid>masterclip-12</masterclipid>
						<name>mktf-film-erikpoppe-r03.MXF</name>
						<enabled>TRUE</enabled>
						<duration>35028</duration>
						<rate>
							<ntsc>TRUE</ntsc>
							<timebase>30</timebase>
						</rate>
						<start>28733</start>
						<end>28831</end>
						<in>19705</in>
						<out>19803</out>
						<file id="file-12"/>
						<sourcetrack>
							<mediatype>audio</mediatype>
							<trackindex>1</trackindex>
						</sourcetrack>
							<filter>
								<effect>
									<name>Gain</name>
									<effectid>{61756678, 4761696e, 4b657947}</effectid>
									<effecttype>filter</effecttype>
									<mediatype>audio</mediatype>
									<parameter authoringApp="PremierePro">
										<parameterid>Gain(dB)</parameterid>
										<name>Gain(dB)</name>
										<valuemin>-96</valuemin>
										<valuemax>96</valuemax>
										<value>3</value>
									</parameter>
								</effect>
							</filter>
							<filter>
								<effect>
									<name>Audio Levels</name>
									<effectid>audiolevels</effectid>
									<effectcategory>audiolevels</effectcategory>
									<effecttype>audiolevels</effecttype>
									<mediatype>audio</mediatype>
									<parameter authoringApp="PremierePro">
										<parameterid>level</parameterid>
										<name>Level</name>
										<valuemin>0</valuemin>
										<valuemax>3.98109</valuemax>
										<value>0.96606</value>
										<keyframe>
											<when>5835</when>
											<value>0</value>
										</keyframe>
										<keyframe>
											<when>5845</when>
											<value>0.99763</value>
										</keyframe>
										<keyframe>
											<when>5858</when>
											<value>0.99763</value>
										</keyframe>
										<keyframe>
											<when>5867</when>
											<value>0</value>
										</keyframe>
										<keyframe>
											<when>5952</when>
											<value>0</value>
										</keyframe>
										<keyframe>
											<when>5957</when>
											<value>1.01513</value>
										</keyframe>
										<keyframe>
											<when>6434</when>
											<value>1.01513</value>
										</keyframe>
										<keyframe>
											<when>6451</when>
											<value>0</value>
										</keyframe>
										<keyframe>
											<when>6636</when>
											<value>0</value>
										</keyframe>
										<keyframe>
											<when>6645</when>
											<value>1.01513</value>
										</keyframe>
										<keyframe>
											<when>7558</when>
											<value>1.01513</value>
										</keyframe>
										<keyframe>
											<when>7567</when>
											<value>0</value>
										</keyframe>
										<keyframe>
											<when>8340</when>
											<value>0</value>
										</keyframe>
										<keyframe>
											<when>8352</when>
											<value>0.99863</value>
										</keyframe>
										<keyframe>
											<when>10138</when>
											<value>0.99863</value>
										</keyframe>
										<keyframe>
											<when>10146</when>
											<value>0.578575</value>
										</keyframe>
										<keyframe>
											<when>10185</when>
											<value>0.578575</value>
										</keyframe>
										<keyframe>
											<when>10196</when>
											<value>0.99863</value>
										</keyframe>
										<keyframe>
											<when>12159</when>
											<value>0.998643</value>
										</keyframe>
										<keyframe>
											<when>12173</when>
											<value>0</value>
										</keyframe>
										<keyframe>
											<when>12516</when>
											<value>0</value>
										</keyframe>
										<keyframe>
											<when>12528</when>
											<value>1.22516</value>
										</keyframe>
										<keyframe>
											<when>12542</when>
											<value>1.22516</value>
										</keyframe>
										<keyframe>
											<when>12551</when>
											<value>0</value>
										</keyframe>
										<keyframe>
											<when>12646</when>
											<value>0</value>
										</keyframe>
										<keyframe>
											<when>12660</when>
											<value>1.01288</value>
										</keyframe>
										<keyframe>
											<when>14407</when>
											<value>1.01288</value>
										</keyframe>
										<keyframe>
											<when>14442</when>
											<value>0</value>
										</keyframe>
										<keyframe>
											<when>14796</when>
											<value>0</value>
										</keyframe>
										<keyframe>
											<when>14861</when>
											<value>1.05014</value>
										</keyframe>
										<keyframe>
											<when>15586</when>
											<value>1.05014</value>
										</keyframe>
										<keyframe>
											<when>15614</when>
											<value>0</value>
										</keyframe>
										<keyframe>
											<when>15812</when>
											<value>0</value>
										</keyframe>
										<keyframe>
											<when>15841</when>
											<value>1.05014</value>
										</keyframe>
										<keyframe>
											<when>17970</when>
											<value>1.05014</value>
										</keyframe>
										<keyframe>
											<when>18005</when>
											<value>0</value>
										</keyframe>
										<keyframe>
											<when>18257</when>
											<value>0</value>
										</keyframe>
										<keyframe>
											<when>18268</when>
											<value>1.18605</value>
										</keyframe>
										<keyframe>
											<when>18285</when>
											<value>1.16439</value>
										</keyframe>
										<keyframe>
											<when>18295</when>
											<value>0</value>
										</keyframe>
										<keyframe>
											<when>18487</when>
											<value>0</value>
										</keyframe>
										<keyframe>
											<when>18491</when>
											<value>1.24937</value>
										</keyframe>
										<keyframe>
											<when>18499</when>
											<value>1.24937</value>
										</keyframe>
										<keyframe>
											<when>18504</when>
											<value>0</value>
										</keyframe>
										<keyframe>
											<when>18544</when>
											<value>0</value>
										</keyframe>
										<keyframe>
											<when>18587</when>
											<value>0</value>
										</keyframe>
										<keyframe>
											<when>18591</when>
											<value>0.96606</value>
										</keyframe>
										<keyframe>
											<when>20345</when>
											<value>0.96606</value>
										</keyframe>
										<keyframe>
											<when>20352</when>
											<value>0.238816</value>
										</keyframe>
										<keyframe>
											<when>20424</when>
											<value>0.238816</value>
										</keyframe>
										<keyframe>
											<when>20433</when>
											<value>0.96606</value>
										</keyframe>
									</parameter>
								</effect>
							</filter>
							<filter>
								<effect>
									<name>Audio Pan</name>
									<effectid>audiopan</effectid>
									<effectcategory>audiopan</effectcategory>
									<effecttype>audiopan</effecttype>
									<mediatype>audio</mediatype>
									<parameter authoringApp="PremierePro">
										<parameterid>pan</parameterid>
										<name>Pan</name>
										<valuemin>-1</valuemin>
										<valuemax>1</valuemax>
										<value>0</value>
									</parameter>
								</effect>
							</filter>
						<link>
							<linkclipref>clipitem-49</linkclipref>
							<mediatype>video</mediatype>
							<trackindex>1</trackindex>
							<clipindex>54</clipindex>
						</link>
						<link>
							<linkclipref>clipitem-447</linkclipref>
							<mediatype>audio</mediatype>
							<trackindex>1</trackindex>
							<clipindex>52</clipindex>
							<groupindex>1</groupindex>
						</link>
						<link>
							<linkclipref>clipitem-515</linkclipref>
							<mediatype>audio</mediatype>
							<trackindex>2</trackindex>
							<clipindex>48</clipindex>
							<groupindex>1</groupindex>
						</link>
					</clipitem>
					<clipitem id="clipitem-448" frameBlend="FALSE" PannerCurrentValue="0.5" PannerKeyframes="" PannerStartKeyframe="-91445760000000000,0.5,0,0,0,0,0,0" PannerIsInverted="true" PannerName="Pan">
						<masterclipid>masterclip-12</masterclipid>
						<name>mktf-film-erikpoppe-r03.MXF</name>
						<enabled>TRUE</enabled>
						<duration>35028</duration>
						<rate>
							<ntsc>TRUE</ntsc>
							<timebase>30</timebase>
						</rate>
						<start>28831</start>
						<end>29378</end>
						<in>19803</in>
						<out>20350</out>
						<file id="file-12"/>
						<sourcetrack>
							<mediatype>audio</mediatype>
							<trackindex>1</trackindex>
						</sourcetrack>
							<filter>
								<effect>
									<name>Gain</name>
									<effectid>{61756678, 4761696e, 4b657947}</effectid>
									<effecttype>filter</effecttype>
									<mediatype>audio</mediatype>
									<parameter authoringApp="PremierePro">
										<parameterid>Gain(dB)</parameterid>
										<name>Gain(dB)</name>
										<valuemin>-96</valuemin>
										<valuemax>96</valuemax>
										<value>3</value>
									</parameter>
								</effect>
							</filter>
							<filter>
								<effect>
									<name>Audio Levels</name>
									<effectid>audiolevels</effectid>
									<effectcategory>audiolevels</effectcategory>
									<effecttype>audiolevels</effecttype>
									<mediatype>audio</mediatype>
									<parameter authoringApp="PremierePro">
										<parameterid>level</parameterid>
										<name>Level</name>
										<valuemin>0</valuemin>
										<valuemax>3.98109</valuemax>
										<value>0.96606</value>
										<keyframe>
											<when>5835</when>
											<value>0</value>
										</keyframe>
										<keyframe>
											<when>5845</when>
											<value>0.99763</value>
										</keyframe>
										<keyframe>
											<when>5858</when>
											<value>0.99763</value>
										</keyframe>
										<keyframe>
											<when>5867</when>
											<value>0</value>
										</keyframe>
										<keyframe>
											<when>5952</when>
											<value>0</value>
										</keyframe>
										<keyframe>
											<when>5957</when>
											<value>1.01513</value>
										</keyframe>
										<keyframe>
											<when>6434</when>
											<value>1.01513</value>
										</keyframe>
										<keyframe>
											<when>6451</when>
											<value>0</value>
										</keyframe>
										<keyframe>
											<when>6636</when>
											<value>0</value>
										</keyframe>
										<keyframe>
											<when>6645</when>
											<value>1.01513</value>
										</keyframe>
										<keyframe>
											<when>7558</when>
											<value>1.01513</value>
										</keyframe>
										<keyframe>
											<when>7567</when>
											<value>0</value>
										</keyframe>
										<keyframe>
											<when>8340</when>
											<value>0</value>
										</keyframe>
										<keyframe>
											<when>8352</when>
											<value>0.99863</value>
										</keyframe>
										<keyframe>
											<when>10138</when>
											<value>0.99863</value>
										</keyframe>
										<keyframe>
											<when>10146</when>
											<value>0.578575</value>
										</keyframe>
										<keyframe>
											<when>10185</when>
											<value>0.578575</value>
										</keyframe>
										<keyframe>
											<when>10196</when>
											<value>0.99863</value>
										</keyframe>
										<keyframe>
											<when>12159</when>
											<value>0.998643</value>
										</keyframe>
										<keyframe>
											<when>12173</when>
											<value>0</value>
										</keyframe>
										<keyframe>
											<when>12516</when>
											<value>0</value>
										</keyframe>
										<keyframe>
											<when>12528</when>
											<value>1.22516</value>
										</keyframe>
										<keyframe>
											<when>12542</when>
											<value>1.22516</value>
										</keyframe>
										<keyframe>
											<when>12551</when>
											<value>0</value>
										</keyframe>
										<keyframe>
											<when>12646</when>
											<value>0</value>
										</keyframe>
										<keyframe>
											<when>12660</when>
											<value>1.01288</value>
										</keyframe>
										<keyframe>
											<when>14407</when>
											<value>1.01288</value>
										</keyframe>
										<keyframe>
											<when>14442</when>
											<value>0</value>
										</keyframe>
										<keyframe>
											<when>14796</when>
											<value>0</value>
										</keyframe>
										<keyframe>
											<when>14861</when>
											<value>1.05014</value>
										</keyframe>
										<keyframe>
											<when>15586</when>
											<value>1.05014</value>
										</keyframe>
										<keyframe>
											<when>15614</when>
											<value>0</value>
										</keyframe>
										<keyframe>
											<when>15812</when>
											<value>0</value>
										</keyframe>
										<keyframe>
											<when>15841</when>
											<value>1.05014</value>
										</keyframe>
										<keyframe>
											<when>17970</when>
											<value>1.05014</value>
										</keyframe>
										<keyframe>
											<when>18005</when>
											<value>0</value>
										</keyframe>
										<keyframe>
											<when>18257</when>
											<value>0</value>
										</keyframe>
										<keyframe>
											<when>18268</when>
											<value>1.18605</value>
										</keyframe>
										<keyframe>
											<when>18285</when>
											<value>1.16439</value>
										</keyframe>
										<keyframe>
											<when>18295</when>
											<value>0</value>
										</keyframe>
										<keyframe>
											<when>18487</when>
											<value>0</value>
										</keyframe>
										<keyframe>
											<when>18491</when>
											<value>1.24937</value>
										</keyframe>
										<keyframe>
											<when>18499</when>
											<value>1.24937</value>
										</keyframe>
										<keyframe>
											<when>18504</when>
											<value>0</value>
										</keyframe>
										<keyframe>
											<when>18544</when>
											<value>0</value>
										</keyframe>
										<keyframe>
											<when>18587</when>
											<value>0</value>
										</keyframe>
										<keyframe>
											<when>18591</when>
											<value>0.96606</value>
										</keyframe>
										<keyframe>
											<when>20345</when>
											<value>0.96606</value>
										</keyframe>
										<keyframe>
											<when>20352</when>
											<value>0.238816</value>
										</keyframe>
										<keyframe>
											<when>20424</when>
											<value>0.238816</value>
										</keyframe>
										<keyframe>
											<when>20433</when>
											<value>0.96606</value>
										</keyframe>
									</parameter>
								</effect>
							</filter>
							<filter>
								<effect>
									<name>Audio Pan</name>
									<effectid>audiopan</effectid>
									<effectcategory>audiopan</effectcategory>
									<effecttype>audiopan</effecttype>
									<mediatype>audio</mediatype>
									<parameter authoringApp="PremierePro">
										<parameterid>pan</parameterid>
										<name>Pan</name>
										<valuemin>-1</valuemin>
										<valuemax>1</valuemax>
										<value>0</value>
									</parameter>
								</effect>
							</filter>
					</clipitem>
					<clipitem id="clipitem-449" frameBlend="FALSE" PannerCurrentValue="0.5" PannerKeyframes="" PannerStartKeyframe="-91445760000000000,0.5,0,0,0,0,0,0" PannerIsInverted="true" PannerName="Pan">
						<masterclipid>masterclip-12</masterclipid>
						<name>mktf-film-erikpoppe-r03.MXF</name>
						<enabled>TRUE</enabled>
						<duration>35028</duration>
						<rate>
							<ntsc>TRUE</ntsc>
							<timebase>30</timebase>
						</rate>
						<start>29378</start>
						<end>-1</end>
						<in>23392</in>
						<out>23407</out>
						<file id="file-12"/>
						<sourcetrack>
							<mediatype>audio</mediatype>
							<trackindex>1</trackindex>
						</sourcetrack>
							<filter>
								<effect>
									<name>Gain</name>
									<effectid>{61756678, 4761696e, 4b657947}</effectid>
									<effecttype>filter</effecttype>
									<mediatype>audio</mediatype>
									<parameter authoringApp="PremierePro">
										<parameterid>Gain(dB)</parameterid>
										<name>Gain(dB)</name>
										<valuemin>-96</valuemin>
										<valuemax>96</valuemax>
										<value>3</value>
									</parameter>
								</effect>
							</filter>
							<filter>
								<effect>
									<name>Audio Levels</name>
									<effectid>audiolevels</effectid>
									<effectcategory>audiolevels</effectcategory>
									<effecttype>audiolevels</effecttype>
									<mediatype>audio</mediatype>
									<parameter authoringApp="PremierePro">
										<parameterid>level</parameterid>
										<name>Level</name>
										<valuemin>0</valuemin>
										<valuemax>3.98109</valuemax>
										<value>0.141396</value>
										<keyframe>
											<when>5835</when>
											<value>0</value>
										</keyframe>
										<keyframe>
											<when>5845</when>
											<value>0.99763</value>
										</keyframe>
										<keyframe>
											<when>5858</when>
											<value>0.99763</value>
										</keyframe>
										<keyframe>
											<when>5867</when>
											<value>0</value>
										</keyframe>
										<keyframe>
											<when>5952</when>
											<value>0</value>
										</keyframe>
										<keyframe>
											<when>5957</when>
											<value>1.01513</value>
										</keyframe>
										<keyframe>
											<when>6434</when>
											<value>1.01513</value>
										</keyframe>
										<keyframe>
											<when>6451</when>
											<value>0</value>
										</keyframe>
										<keyframe>
											<when>6636</when>
											<value>0</value>
										</keyframe>
										<keyframe>
											<when>6645</when>
											<value>1.01513</value>
										</keyframe>
										<keyframe>
											<when>7558</when>
											<value>1.01513</value>
										</keyframe>
										<keyframe>
											<when>7567</when>
											<value>0</value>
										</keyframe>
										<keyframe>
											<when>8340</when>
											<value>0</value>
										</keyframe>
										<keyframe>
											<when>8352</when>
											<value>0.99863</value>
										</keyframe>
										<keyframe>
											<when>10138</when>
											<value>0.99863</value>
										</keyframe>
										<keyframe>
											<when>10146</when>
											<value>0.578575</value>
										</keyframe>
										<keyframe>
											<when>10185</when>
											<value>0.578575</value>
										</keyframe>
										<keyframe>
											<when>10196</when>
											<value>0.99863</value>
										</keyframe>
										<keyframe>
											<when>12159</when>
											<value>0.998643</value>
										</keyframe>
										<keyframe>
											<when>12173</when>
											<value>0</value>
										</keyframe>
										<keyframe>
											<when>12516</when>
											<value>0</value>
										</keyframe>
										<keyframe>
											<when>12528</when>
											<value>1.22516</value>
										</keyframe>
										<keyframe>
											<when>12542</when>
											<value>1.22516</value>
										</keyframe>
										<keyframe>
											<when>12551</when>
											<value>0</value>
										</keyframe>
										<keyframe>
											<when>12646</when>
											<value>0</value>
										</keyframe>
										<keyframe>
											<when>12660</when>
											<value>1.01288</value>
										</keyframe>
										<keyframe>
											<when>14407</when>
											<value>1.01288</value>
										</keyframe>
										<keyframe>
											<when>14442</when>
											<value>0</value>
										</keyframe>
										<keyframe>
											<when>14796</when>
											<value>0</value>
										</keyframe>
										<keyframe>
											<when>14861</when>
											<value>1.05014</value>
										</keyframe>
										<keyframe>
											<when>15586</when>
											<value>1.05014</value>
										</keyframe>
										<keyframe>
											<when>15614</when>
											<value>0</value>
										</keyframe>
										<keyframe>
											<when>15812</when>
											<value>0</value>
										</keyframe>
										<keyframe>
											<when>15841</when>
											<value>1.05014</value>
										</keyframe>
										<keyframe>
											<when>17970</when>
											<value>1.05014</value>
										</keyframe>
										<keyframe>
											<when>18005</when>
											<value>0</value>
										</keyframe>
										<keyframe>
											<when>18257</when>
											<value>0</value>
										</keyframe>
										<keyframe>
											<when>18268</when>
											<value>1.18605</value>
										</keyframe>
										<keyframe>
											<when>18285</when>
											<value>1.16439</value>
										</keyframe>
										<keyframe>
											<when>18295</when>
											<value>0</value>
										</keyframe>
										<keyframe>
											<when>18487</when>
											<value>0</value>
										</keyframe>
										<keyframe>
											<when>18491</when>
											<value>1.24937</value>
										</keyframe>
										<keyframe>
											<when>18499</when>
											<value>1.24937</value>
										</keyframe>
										<keyframe>
											<when>18504</when>
											<value>0</value>
										</keyframe>
										<keyframe>
											<when>18544</when>
											<value>0</value>
										</keyframe>
										<keyframe>
											<when>18587</when>
											<value>0</value>
										</keyframe>
										<keyframe>
											<when>18591</when>
											<value>0.96606</value>
										</keyframe>
										<keyframe>
											<when>20345</when>
											<value>0.96606</value>
										</keyframe>
										<keyframe>
											<when>20352</when>
											<value>0.238816</value>
										</keyframe>
										<keyframe>
											<when>20424</when>
											<value>0.238816</value>
										</keyframe>
										<keyframe>
											<when>20433</when>
											<value>0.141396</value>
										</keyframe>
									</parameter>
								</effect>
							</filter>
							<filter>
								<effect>
									<name>Audio Pan</name>
									<effectid>audiopan</effectid>
									<effectcategory>audiopan</effectcategory>
									<effecttype>audiopan</effecttype>
									<mediatype>audio</mediatype>
									<parameter authoringApp="PremierePro">
										<parameterid>pan</parameterid>
										<name>Pan</name>
										<valuemin>-1</valuemin>
										<valuemax>1</valuemax>
										<value>0</value>
									</parameter>
								</effect>
							</filter>
					</clipitem>
					<transitionitem>
						<start>29390</start>
						<end>29393</end>
						<alignment>center</alignment>
						<cutPoint>1</cutPoint>
						<rate>
							<timebase>25</timebase>
							<ntsc>FALSE</ntsc>
						</rate>
						<effect>
							<name>Cross Fade (+3dB)</name>
							<effectid>KGAudioTransCrossFade3dB</effectid>
							<effecttype>transition</effecttype>
							<mediatype>audio</mediatype>
							<wipecode>0</wipecode>
							<wipeaccuracy>100</wipeaccuracy>
							<startratio>0</startratio>
							<endratio>1</endratio>
							<reverse>FALSE</reverse>
						</effect>
					</transitionitem>
					<clipitem id="clipitem-450" frameBlend="FALSE" PannerCurrentValue="0.5" PannerKeyframes="" PannerStartKeyframe="-91445760000000000,0.5,0,0,0,0,0,0" PannerIsInverted="true" PannerName="Pan">
						<masterclipid>masterclip-12</masterclipid>
						<name>mktf-film-erikpoppe-r03.MXF</name>
						<enabled>TRUE</enabled>
						<duration>35028</duration>
						<rate>
							<ntsc>TRUE</ntsc>
							<timebase>30</timebase>
						</rate>
						<start>-1</start>
						<end>29531</end>
						<in>23527</in>
						<out>23668</out>
						<file id="file-12"/>
						<sourcetrack>
							<mediatype>audio</mediatype>
							<trackindex>1</trackindex>
						</sourcetrack>
							<filter>
								<effect>
									<name>Gain</name>
									<effectid>{61756678, 4761696e, 4b657947}</effectid>
									<effecttype>filter</effecttype>
									<mediatype>audio</mediatype>
									<parameter authoringApp="PremierePro">
										<parameterid>Gain(dB)</parameterid>
										<name>Gain(dB)</name>
										<valuemin>-96</valuemin>
										<valuemax>96</valuemax>
										<value>3</value>
									</parameter>
								</effect>
							</filter>
							<filter>
								<effect>
									<name>Audio Levels</name>
									<effectid>audiolevels</effectid>
									<effectcategory>audiolevels</effectcategory>
									<effecttype>audiolevels</effecttype>
									<mediatype>audio</mediatype>
									<parameter authoringApp="PremierePro">
										<parameterid>level</parameterid>
										<name>Level</name>
										<valuemin>0</valuemin>
										<valuemax>3.98109</valuemax>
										<value>0.157107</value>
										<keyframe>
											<when>5835</when>
											<value>0</value>
										</keyframe>
										<keyframe>
											<when>5845</when>
											<value>0.99763</value>
										</keyframe>
										<keyframe>
											<when>5858</when>
											<value>0.99763</value>
										</keyframe>
										<keyframe>
											<when>5867</when>
											<value>0</value>
										</keyframe>
										<keyframe>
											<when>5952</when>
											<value>0</value>
										</keyframe>
										<keyframe>
											<when>5957</when>
											<value>1.01513</value>
										</keyframe>
										<keyframe>
											<when>6434</when>
											<value>1.01513</value>
										</keyframe>
										<keyframe>
											<when>6451</when>
											<value>0</value>
										</keyframe>
										<keyframe>
											<when>6636</when>
											<value>0</value>
										</keyframe>
										<keyframe>
											<when>6645</when>
											<value>1.01513</value>
										</keyframe>
										<keyframe>
											<when>7558</when>
											<value>1.01513</value>
										</keyframe>
										<keyframe>
											<when>7567</when>
											<value>0</value>
										</keyframe>
										<keyframe>
											<when>8340</when>
											<value>0</value>
										</keyframe>
										<keyframe>
											<when>8352</when>
											<value>0.99863</value>
										</keyframe>
										<keyframe>
											<when>10138</when>
											<value>0.99863</value>
										</keyframe>
										<keyframe>
											<when>10146</when>
											<value>0.578575</value>
										</keyframe>
										<keyframe>
											<when>10185</when>
											<value>0.578575</value>
										</keyframe>
										<keyframe>
											<when>10196</when>
											<value>0.99863</value>
										</keyframe>
										<keyframe>
											<when>12159</when>
											<value>0.998643</value>
										</keyframe>
										<keyframe>
											<when>12173</when>
											<value>0</value>
										</keyframe>
										<keyframe>
											<when>12516</when>
											<value>0</value>
										</keyframe>
										<keyframe>
											<when>12528</when>
											<value>1.22516</value>
										</keyframe>
										<keyframe>
											<when>12542</when>
											<value>1.22516</value>
										</keyframe>
										<keyframe>
											<when>12551</when>
											<value>0</value>
										</keyframe>
										<keyframe>
											<when>12646</when>
											<value>0</value>
										</keyframe>
										<keyframe>
											<when>12660</when>
											<value>1.01288</value>
										</keyframe>
										<keyframe>
											<when>14407</when>
											<value>1.01288</value>
										</keyframe>
										<keyframe>
											<when>14442</when>
											<value>0</value>
										</keyframe>
										<keyframe>
											<when>14796</when>
											<value>0</value>
										</keyframe>
										<keyframe>
											<when>14861</when>
											<value>1.05014</value>
										</keyframe>
										<keyframe>
											<when>15586</when>
											<value>1.05014</value>
										</keyframe>
										<keyframe>
											<when>15614</when>
											<value>0</value>
										</keyframe>
										<keyframe>
											<when>15812</when>
											<value>0</value>
										</keyframe>
										<keyframe>
											<when>15841</when>
											<value>1.05014</value>
										</keyframe>
										<keyframe>
											<when>17970</when>
											<value>1.05014</value>
										</keyframe>
										<keyframe>
											<when>18005</when>
											<value>0</value>
										</keyframe>
										<keyframe>
											<when>18257</when>
											<value>0</value>
										</keyframe>
										<keyframe>
											<when>18268</when>
											<value>1.18605</value>
										</keyframe>
										<keyframe>
											<when>18285</when>
											<value>1.16439</value>
										</keyframe>
										<keyframe>
											<when>18295</when>
											<value>0</value>
										</keyframe>
										<keyframe>
											<when>18487</when>
											<value>0</value>
										</keyframe>
										<keyframe>
											<when>18491</when>
											<value>1.24937</value>
										</keyframe>
										<keyframe>
											<when>18499</when>
											<value>1.24937</value>
										</keyframe>
										<keyframe>
											<when>18504</when>
											<value>0</value>
										</keyframe>
										<keyframe>
											<when>18544</when>
											<value>0</value>
										</keyframe>
										<keyframe>
											<when>18587</when>
											<value>0</value>
										</keyframe>
										<keyframe>
											<when>18591</when>
											<value>0.96606</value>
										</keyframe>
										<keyframe>
											<when>20345</when>
											<value>0.96606</value>
										</keyframe>
										<keyframe>
											<when>20352</when>
											<value>0.238816</value>
										</keyframe>
										<keyframe>
											<when>20424</when>
											<value>0.238816</value>
										</keyframe>
										<keyframe>
											<when>20433</when>
											<value>0.157107</value>
										</keyframe>
										<keyframe>
											<when>23553</when>
											<value>0.157107</value>
										</keyframe>
										<keyframe>
											<when>23560</when>
											<value>0</value>
										</keyframe>
										<keyframe>
											<when>23889</when>
											<value>0</value>
										</keyframe>
										<keyframe>
											<when>23896</when>
											<value>1.0256</value>
										</keyframe>
										<keyframe>
											<when>23907</when>
											<value>1.0256</value>
										</keyframe>
										<keyframe>
											<when>23918</when>
											<value>0</value>
										</keyframe>
										<keyframe>
											<when>23940</when>
											<value>0</value>
										</keyframe>
										<keyframe>
											<when>23943</when>
											<value>1.10019</value>
										</keyframe>
										<keyframe>
											<when>23951</when>
											<value>1.10019</value>
										</keyframe>
										<keyframe>
											<when>23955</when>
											<value>0</value>
										</keyframe>
										<keyframe>
											<when>24039</when>
											<value>0</value>
										</keyframe>
										<keyframe>
											<when>24044</when>
											<value>0.988306</value>
										</keyframe>
										<keyframe>
											<when>24063</when>
											<value>0.988306</value>
										</keyframe>
										<keyframe>
											<when>24066</when>
											<value>0.988306</value>
										</keyframe>
										<keyframe>
											<when>24068</when>
											<value>0.298357</value>
										</keyframe>
										<keyframe>
											<when>24083</when>
											<value>0.298357</value>
										</keyframe>
										<keyframe>
											<when>24086</when>
											<value>0.988306</value>
										</keyframe>
										<keyframe>
											<when>26589</when>
											<value>0.988306</value>
										</keyframe>
										<keyframe>
											<when>26632</when>
											<value>0</value>
										</keyframe>
										<keyframe>
											<when>27027</when>
											<value>0</value>
										</keyframe>
										<keyframe>
											<when>27058</when>
											<value>1.0256</value>
										</keyframe>
									</parameter>
								</effect>
							</filter>
							<filter>
								<effect>
									<name>Audio Pan</name>
									<effectid>audiopan</effectid>
									<effectcategory>audiopan</effectcategory>
									<effecttype>audiopan</effecttype>
									<mediatype>audio</mediatype>
									<parameter authoringApp="PremierePro">
										<parameterid>pan</parameterid>
										<name>Pan</name>
										<valuemin>-1</valuemin>
										<valuemax>1</valuemax>
										<value>0</value>
									</parameter>
								</effect>
							</filter>
						<link>
							<linkclipref>clipitem-51</linkclipref>
							<mediatype>video</mediatype>
							<trackindex>1</trackindex>
							<clipindex>56</clipindex>
						</link>
						<link>
							<linkclipref>clipitem-450</linkclipref>
							<mediatype>audio</mediatype>
							<trackindex>1</trackindex>
							<clipindex>56</clipindex>
							<groupindex>1</groupindex>
						</link>
						<link>
							<linkclipref>clipitem-517</linkclipref>
							<mediatype>audio</mediatype>
							<trackindex>2</trackindex>
							<clipindex>51</clipindex>
							<groupindex>1</groupindex>
						</link>
					</clipitem>
					<clipitem id="clipitem-451" frameBlend="FALSE" PannerCurrentValue="0.5" PannerKeyframes="" PannerStartKeyframe="-91445760000000000,0.5,0,0,0,0,0,0" PannerIsInverted="true" PannerName="Pan">
						<masterclipid>masterclip-12</masterclipid>
						<name>mktf-film-erikpoppe-r03.MXF</name>
						<enabled>TRUE</enabled>
						<duration>35028</duration>
						<rate>
							<ntsc>TRUE</ntsc>
							<timebase>30</timebase>
						</rate>
						<start>29531</start>
						<end>31117</end>
						<in>23720</in>
						<out>25306</out>
						<file id="file-12"/>
						<sourcetrack>
							<mediatype>audio</mediatype>
							<trackindex>1</trackindex>
						</sourcetrack>
							<filter>
								<effect>
									<name>Gain</name>
									<effectid>{61756678, 4761696e, 4b657947}</effectid>
									<effecttype>filter</effecttype>
									<mediatype>audio</mediatype>
									<parameter authoringApp="PremierePro">
										<parameterid>Gain(dB)</parameterid>
										<name>Gain(dB)</name>
										<valuemin>-96</valuemin>
										<valuemax>96</valuemax>
										<value>3</value>
									</parameter>
								</effect>
							</filter>
							<filter>
								<effect>
									<name>Audio Levels</name>
									<effectid>audiolevels</effectid>
									<effectcategory>audiolevels</effectcategory>
									<effecttype>audiolevels</effecttype>
									<mediatype>audio</mediatype>
									<parameter authoringApp="PremierePro">
										<parameterid>level</parameterid>
										<name>Level</name>
										<valuemin>0</valuemin>
										<valuemax>3.98109</valuemax>
										<value>0</value>
										<keyframe>
											<when>5835</when>
											<value>0</value>
										</keyframe>
										<keyframe>
											<when>5845</when>
											<value>0.99763</value>
										</keyframe>
										<keyframe>
											<when>5858</when>
											<value>0.99763</value>
										</keyframe>
										<keyframe>
											<when>5867</when>
											<value>0</value>
										</keyframe>
										<keyframe>
											<when>5952</when>
											<value>0</value>
										</keyframe>
										<keyframe>
											<when>5957</when>
											<value>1.01513</value>
										</keyframe>
										<keyframe>
											<when>6434</when>
											<value>1.01513</value>
										</keyframe>
										<keyframe>
											<when>6451</when>
											<value>0</value>
										</keyframe>
										<keyframe>
											<when>6636</when>
											<value>0</value>
										</keyframe>
										<keyframe>
											<when>6645</when>
											<value>1.01513</value>
										</keyframe>
										<keyframe>
											<when>7558</when>
											<value>1.01513</value>
										</keyframe>
										<keyframe>
											<when>7567</when>
											<value>0</value>
										</keyframe>
										<keyframe>
											<when>8340</when>
											<value>0</value>
										</keyframe>
										<keyframe>
											<when>8352</when>
											<value>0.99863</value>
										</keyframe>
										<keyframe>
											<when>10138</when>
											<value>0.99863</value>
										</keyframe>
										<keyframe>
											<when>10146</when>
											<value>0.578575</value>
										</keyframe>
										<keyframe>
											<when>10185</when>
											<value>0.578575</value>
										</keyframe>
										<keyframe>
											<when>10196</when>
											<value>0.99863</value>
										</keyframe>
										<keyframe>
											<when>12159</when>
											<value>0.998643</value>
										</keyframe>
										<keyframe>
											<when>12173</when>
											<value>0</value>
										</keyframe>
										<keyframe>
											<when>12516</when>
											<value>0</value>
										</keyframe>
										<keyframe>
											<when>12528</when>
											<value>1.22516</value>
										</keyframe>
										<keyframe>
											<when>12542</when>
											<value>1.22516</value>
										</keyframe>
										<keyframe>
											<when>12551</when>
											<value>0</value>
										</keyframe>
										<keyframe>
											<when>12646</when>
											<value>0</value>
										</keyframe>
										<keyframe>
											<when>12660</when>
											<value>1.01288</value>
										</keyframe>
										<keyframe>
											<when>14407</when>
											<value>1.01288</value>
										</keyframe>
										<keyframe>
											<when>14442</when>
											<value>0</value>
										</keyframe>
										<keyframe>
											<when>14796</when>
											<value>0</value>
										</keyframe>
										<keyframe>
											<when>14861</when>
											<value>1.05014</value>
										</keyframe>
										<keyframe>
											<when>15586</when>
											<value>1.05014</value>
										</keyframe>
										<keyframe>
											<when>15614</when>
											<value>0</value>
										</keyframe>
										<keyframe>
											<when>15812</when>
											<value>0</value>
										</keyframe>
										<keyframe>
											<when>15841</when>
											<value>1.05014</value>
										</keyframe>
										<keyframe>
											<when>17970</when>
											<value>1.05014</value>
										</keyframe>
										<keyframe>
											<when>18005</when>
											<value>0</value>
										</keyframe>
										<keyframe>
											<when>18257</when>
											<value>0</value>
										</keyframe>
										<keyframe>
											<when>18268</when>
											<value>1.18605</value>
										</keyframe>
										<keyframe>
											<when>18285</when>
											<value>1.16439</value>
										</keyframe>
										<keyframe>
											<when>18295</when>
											<value>0</value>
										</keyframe>
										<keyframe>
											<when>18487</when>
											<value>0</value>
										</keyframe>
										<keyframe>
											<when>18491</when>
											<value>1.24937</value>
										</keyframe>
										<keyframe>
											<when>18499</when>
											<value>1.24937</value>
										</keyframe>
										<keyframe>
											<when>18504</when>
											<value>0</value>
										</keyframe>
										<keyframe>
											<when>18544</when>
											<value>0</value>
										</keyframe>
										<keyframe>
											<when>18587</when>
											<value>0</value>
										</keyframe>
										<keyframe>
											<when>18591</when>
											<value>0.96606</value>
										</keyframe>
										<keyframe>
											<when>20345</when>
											<value>0.96606</value>
										</keyframe>
										<keyframe>
											<when>20352</when>
											<value>0.238816</value>
										</keyframe>
										<keyframe>
											<when>20424</when>
											<value>0.238816</value>
										</keyframe>
										<keyframe>
											<when>20433</when>
											<value>0</value>
										</keyframe>
										<keyframe>
											<when>23879</when>
											<value>0</value>
										</keyframe>
										<keyframe>
											<when>23896</when>
											<value>0.852783</value>
										</keyframe>
										<keyframe>
											<when>23907</when>
											<value>0.852783</value>
										</keyframe>
										<keyframe>
											<when>23923</when>
											<value>0</value>
										</keyframe>
										<keyframe>
											<when>23931</when>
											<value>0.0157107</value>
										</keyframe>
										<keyframe>
											<when>23943</when>
											<value>0.785976</value>
										</keyframe>
										<keyframe>
											<when>23951</when>
											<value>0.785976</value>
										</keyframe>
										<keyframe>
											<when>23955</when>
											<value>0</value>
										</keyframe>
										<keyframe>
											<when>24039</when>
											<value>0</value>
										</keyframe>
										<keyframe>
											<when>24044</when>
											<value>0.988306</value>
										</keyframe>
										<keyframe>
											<when>24063</when>
											<value>0.988306</value>
										</keyframe>
										<keyframe>
											<when>24066</when>
											<value>0.988306</value>
										</keyframe>
										<keyframe>
											<when>24068</when>
											<value>0.298357</value>
										</keyframe>
										<keyframe>
											<when>24083</when>
											<value>0.298357</value>
										</keyframe>
										<keyframe>
											<when>24086</when>
											<value>0.988306</value>
										</keyframe>
										<keyframe>
											<when>24324</when>
											<value>0.988306</value>
										</keyframe>
										<keyframe>
											<when>24327</when>
											<value>0.721224</value>
										</keyframe>
										<keyframe>
											<when>24387</when>
											<value>0.721224</value>
										</keyframe>
										<keyframe>
											<when>24392</when>
											<value>0.988306</value>
										</keyframe>
										<keyframe>
											<when>26589</when>
											<value>0.988306</value>
										</keyframe>
										<keyframe>
											<when>26632</when>
											<value>0</value>
										</keyframe>
										<keyframe>
											<when>27027</when>
											<value>0</value>
										</keyframe>
										<keyframe>
											<when>27058</when>
											<value>1.0256</value>
										</keyframe>
									</parameter>
								</effect>
							</filter>
							<filter>
								<effect>
									<name>Audio Pan</name>
									<effectid>audiopan</effectid>
									<effectcategory>audiopan</effectcategory>
									<effecttype>audiopan</effecttype>
									<mediatype>audio</mediatype>
									<parameter authoringApp="PremierePro">
										<parameterid>pan</parameterid>
										<name>Pan</name>
										<valuemin>-1</valuemin>
										<valuemax>1</valuemax>
										<value>0</value>
									</parameter>
								</effect>
							</filter>
						<link>
							<linkclipref>clipitem-53</linkclipref>
							<mediatype>video</mediatype>
							<trackindex>1</trackindex>
							<clipindex>58</clipindex>
						</link>
						<link>
							<linkclipref>clipitem-451</linkclipref>
							<mediatype>audio</mediatype>
							<trackindex>1</trackindex>
							<clipindex>57</clipindex>
							<groupindex>1</groupindex>
						</link>
						<link>
							<linkclipref>clipitem-519</linkclipref>
							<mediatype>audio</mediatype>
							<trackindex>2</trackindex>
							<clipindex>53</clipindex>
							<groupindex>1</groupindex>
						</link>
					</clipitem>
					<clipitem id="clipitem-452" frameBlend="FALSE" PannerCurrentValue="0.5" PannerKeyframes="" PannerStartKeyframe="-91445760000000000,0.5,0,0,0,0,0,0" PannerIsInverted="true" PannerName="Pan">
						<masterclipid>masterclip-12</masterclipid>
						<name>mktf-film-erikpoppe-r03.MXF</name>
						<enabled>TRUE</enabled>
						<duration>35028</duration>
						<rate>
							<ntsc>TRUE</ntsc>
							<timebase>30</timebase>
						</rate>
						<start>31117</start>
						<end>32368</end>
						<in>25342</in>
						<out>26593</out>
						<file id="file-12"/>
						<sourcetrack>
							<mediatype>audio</mediatype>
							<trackindex>1</trackindex>
						</sourcetrack>
							<filter>
								<effect>
									<name>Gain</name>
									<effectid>{61756678, 4761696e, 4b657947}</effectid>
									<effecttype>filter</effecttype>
									<mediatype>audio</mediatype>
									<parameter authoringApp="PremierePro">
										<parameterid>Gain(dB)</parameterid>
										<name>Gain(dB)</name>
										<valuemin>-96</valuemin>
										<valuemax>96</valuemax>
										<value>3</value>
									</parameter>
								</effect>
							</filter>
							<filter>
								<effect>
									<name>Audio Levels</name>
									<effectid>audiolevels</effectid>
									<effectcategory>audiolevels</effectcategory>
									<effecttype>audiolevels</effecttype>
									<mediatype>audio</mediatype>
									<parameter authoringApp="PremierePro">
										<parameterid>level</parameterid>
										<name>Level</name>
										<valuemin>0</valuemin>
										<valuemax>3.98109</valuemax>
										<value>0.988306</value>
										<keyframe>
											<when>5835</when>
											<value>0</value>
										</keyframe>
										<keyframe>
											<when>5845</when>
											<value>0.99763</value>
										</keyframe>
										<keyframe>
											<when>5858</when>
											<value>0.99763</value>
										</keyframe>
										<keyframe>
											<when>5867</when>
											<value>0</value>
										</keyframe>
										<keyframe>
											<when>5952</when>
											<value>0</value>
										</keyframe>
										<keyframe>
											<when>5957</when>
											<value>1.01513</value>
										</keyframe>
										<keyframe>
											<when>6434</when>
											<value>1.01513</value>
										</keyframe>
										<keyframe>
											<when>6451</when>
											<value>0</value>
										</keyframe>
										<keyframe>
											<when>6636</when>
											<value>0</value>
										</keyframe>
										<keyframe>
											<when>6645</when>
											<value>1.01513</value>
										</keyframe>
										<keyframe>
											<when>7558</when>
											<value>1.01513</value>
										</keyframe>
										<keyframe>
											<when>7567</when>
											<value>0</value>
										</keyframe>
										<keyframe>
											<when>8340</when>
											<value>0</value>
										</keyframe>
										<keyframe>
											<when>8352</when>
											<value>0.99863</value>
										</keyframe>
										<keyframe>
											<when>10138</when>
											<value>0.99863</value>
										</keyframe>
										<keyframe>
											<when>10146</when>
											<value>0.578575</value>
										</keyframe>
										<keyframe>
											<when>10185</when>
											<value>0.578575</value>
										</keyframe>
										<keyframe>
											<when>10196</when>
											<value>0.99863</value>
										</keyframe>
										<keyframe>
											<when>12159</when>
											<value>0.998643</value>
										</keyframe>
										<keyframe>
											<when>12173</when>
											<value>0</value>
										</keyframe>
										<keyframe>
											<when>12516</when>
											<value>0</value>
										</keyframe>
										<keyframe>
											<when>12528</when>
											<value>1.22516</value>
										</keyframe>
										<keyframe>
											<when>12542</when>
											<value>1.22516</value>
										</keyframe>
										<keyframe>
											<when>12551</when>
											<value>0</value>
										</keyframe>
										<keyframe>
											<when>12646</when>
											<value>0</value>
										</keyframe>
										<keyframe>
											<when>12660</when>
											<value>1.01288</value>
										</keyframe>
										<keyframe>
											<when>14407</when>
											<value>1.01288</value>
										</keyframe>
										<keyframe>
											<when>14442</when>
											<value>0</value>
										</keyframe>
										<keyframe>
											<when>14796</when>
											<value>0</value>
										</keyframe>
										<keyframe>
											<when>14861</when>
											<value>1.05014</value>
										</keyframe>
										<keyframe>
											<when>15586</when>
											<value>1.05014</value>
										</keyframe>
										<keyframe>
											<when>15614</when>
											<value>0</value>
										</keyframe>
										<keyframe>
											<when>15812</when>
											<value>0</value>
										</keyframe>
										<keyframe>
											<when>15841</when>
											<value>1.05014</value>
										</keyframe>
										<keyframe>
											<when>17970</when>
											<value>1.05014</value>
										</keyframe>
										<keyframe>
											<when>18005</when>
											<value>0</value>
										</keyframe>
										<keyframe>
											<when>18257</when>
											<value>0</value>
										</keyframe>
										<keyframe>
											<when>18268</when>
											<value>1.18605</value>
										</keyframe>
										<keyframe>
											<when>18285</when>
											<value>1.16439</value>
										</keyframe>
										<keyframe>
											<when>18295</when>
											<value>0</value>
										</keyframe>
										<keyframe>
											<when>18487</when>
											<value>0</value>
										</keyframe>
										<keyframe>
											<when>18491</when>
											<value>1.24937</value>
										</keyframe>
										<keyframe>
											<when>18499</when>
											<value>1.24937</value>
										</keyframe>
										<keyframe>
											<when>18504</when>
											<value>0</value>
										</keyframe>
										<keyframe>
											<when>18544</when>
											<value>0</value>
										</keyframe>
										<keyframe>
											<when>18587</when>
											<value>0</value>
										</keyframe>
										<keyframe>
											<when>18591</when>
											<value>0.96606</value>
										</keyframe>
										<keyframe>
											<when>20345</when>
											<value>0.96606</value>
										</keyframe>
										<keyframe>
											<when>20352</when>
											<value>0.238816</value>
										</keyframe>
										<keyframe>
											<when>20424</when>
											<value>0.238816</value>
										</keyframe>
										<keyframe>
											<when>20433</when>
											<value>0</value>
										</keyframe>
										<keyframe>
											<when>23889</when>
											<value>0</value>
										</keyframe>
										<keyframe>
											<when>23896</when>
											<value>1.0256</value>
										</keyframe>
										<keyframe>
											<when>23907</when>
											<value>1.0256</value>
										</keyframe>
										<keyframe>
											<when>23918</when>
											<value>0</value>
										</keyframe>
										<keyframe>
											<when>23940</when>
											<value>0</value>
										</keyframe>
										<keyframe>
											<when>23943</when>
											<value>1.10019</value>
										</keyframe>
										<keyframe>
											<when>23951</when>
											<value>1.10019</value>
										</keyframe>
										<keyframe>
											<when>23955</when>
											<value>0</value>
										</keyframe>
										<keyframe>
											<when>24039</when>
											<value>0</value>
										</keyframe>
										<keyframe>
											<when>24044</when>
											<value>0.988306</value>
										</keyframe>
										<keyframe>
											<when>24063</when>
											<value>0.988306</value>
										</keyframe>
										<keyframe>
											<when>24066</when>
											<value>0.988306</value>
										</keyframe>
										<keyframe>
											<when>24068</when>
											<value>0.298357</value>
										</keyframe>
										<keyframe>
											<when>24083</when>
											<value>0.298357</value>
										</keyframe>
										<keyframe>
											<when>24086</when>
											<value>0.988306</value>
										</keyframe>
										<keyframe>
											<when>26589</when>
											<value>0.988306</value>
										</keyframe>
										<keyframe>
											<when>26632</when>
											<value>0</value>
										</keyframe>
										<keyframe>
											<when>27027</when>
											<value>0</value>
										</keyframe>
										<keyframe>
											<when>27058</when>
											<value>1.0256</value>
										</keyframe>
									</parameter>
								</effect>
							</filter>
							<filter>
								<effect>
									<name>Audio Pan</name>
									<effectid>audiopan</effectid>
									<effectcategory>audiopan</effectcategory>
									<effecttype>audiopan</effecttype>
									<mediatype>audio</mediatype>
									<parameter authoringApp="PremierePro">
										<parameterid>pan</parameterid>
										<name>Pan</name>
										<valuemin>-1</valuemin>
										<valuemax>1</valuemax>
										<value>0</value>
									</parameter>
								</effect>
							</filter>
					</clipitem>
					<clipitem id="clipitem-453" frameBlend="FALSE" PannerCurrentValue="0.5" PannerKeyframes="" PannerStartKeyframe="-91445760000000000,0.5,0,0,0,0,0,0" PannerIsInverted="true" PannerName="Pan">
						<masterclipid>masterclip-12</masterclipid>
						<name>mktf-film-erikpoppe-r03.MXF</name>
						<enabled>TRUE</enabled>
						<duration>35028</duration>
						<rate>
							<ntsc>TRUE</ntsc>
							<timebase>30</timebase>
						</rate>
						<start>32368</start>
						<end>33807</end>
						<in>28498</in>
						<out>29937</out>
						<file id="file-12"/>
						<sourcetrack>
							<mediatype>audio</mediatype>
							<trackindex>1</trackindex>
						</sourcetrack>
							<filter>
								<effect>
									<name>Gain</name>
									<effectid>{61756678, 4761696e, 4b657947}</effectid>
									<effecttype>filter</effecttype>
									<mediatype>audio</mediatype>
									<parameter authoringApp="PremierePro">
										<parameterid>Gain(dB)</parameterid>
										<name>Gain(dB)</name>
										<valuemin>-96</valuemin>
										<valuemax>96</valuemax>
										<value>3</value>
									</parameter>
								</effect>
							</filter>
							<filter>
								<effect>
									<name>Audio Levels</name>
									<effectid>audiolevels</effectid>
									<effectcategory>audiolevels</effectcategory>
									<effecttype>audiolevels</effecttype>
									<mediatype>audio</mediatype>
									<parameter authoringApp="PremierePro">
										<parameterid>level</parameterid>
										<name>Level</name>
										<valuemin>0</valuemin>
										<valuemax>3.98109</valuemax>
										<value>1.0256</value>
										<keyframe>
											<when>5835</when>
											<value>0</value>
										</keyframe>
										<keyframe>
											<when>5845</when>
											<value>0.99763</value>
										</keyframe>
										<keyframe>
											<when>5858</when>
											<value>0.99763</value>
										</keyframe>
										<keyframe>
											<when>5867</when>
											<value>0</value>
										</keyframe>
										<keyframe>
											<when>5952</when>
											<value>0</value>
										</keyframe>
										<keyframe>
											<when>5957</when>
											<value>1.01513</value>
										</keyframe>
										<keyframe>
											<when>6434</when>
											<value>1.01513</value>
										</keyframe>
										<keyframe>
											<when>6451</when>
											<value>0</value>
										</keyframe>
										<keyframe>
											<when>6636</when>
											<value>0</value>
										</keyframe>
										<keyframe>
											<when>6645</when>
											<value>1.01513</value>
										</keyframe>
										<keyframe>
											<when>7558</when>
											<value>1.01513</value>
										</keyframe>
										<keyframe>
											<when>7567</when>
											<value>0</value>
										</keyframe>
										<keyframe>
											<when>8340</when>
											<value>0</value>
										</keyframe>
										<keyframe>
											<when>8352</when>
											<value>0.99863</value>
										</keyframe>
										<keyframe>
											<when>10138</when>
											<value>0.99863</value>
										</keyframe>
										<keyframe>
											<when>10146</when>
											<value>0.578575</value>
										</keyframe>
										<keyframe>
											<when>10185</when>
											<value>0.578575</value>
										</keyframe>
										<keyframe>
											<when>10196</when>
											<value>0.99863</value>
										</keyframe>
										<keyframe>
											<when>12159</when>
											<value>0.998643</value>
										</keyframe>
										<keyframe>
											<when>12173</when>
											<value>0</value>
										</keyframe>
										<keyframe>
											<when>12516</when>
											<value>0</value>
										</keyframe>
										<keyframe>
											<when>12528</when>
											<value>1.22516</value>
										</keyframe>
										<keyframe>
											<when>12542</when>
											<value>1.22516</value>
										</keyframe>
										<keyframe>
											<when>12551</when>
											<value>0</value>
										</keyframe>
										<keyframe>
											<when>12646</when>
											<value>0</value>
										</keyframe>
										<keyframe>
											<when>12660</when>
											<value>1.01288</value>
										</keyframe>
										<keyframe>
											<when>14407</when>
											<value>1.01288</value>
										</keyframe>
										<keyframe>
											<when>14442</when>
											<value>0</value>
										</keyframe>
										<keyframe>
											<when>14796</when>
											<value>0</value>
										</keyframe>
										<keyframe>
											<when>14861</when>
											<value>1.05014</value>
										</keyframe>
										<keyframe>
											<when>15586</when>
											<value>1.05014</value>
										</keyframe>
										<keyframe>
											<when>15614</when>
											<value>0</value>
										</keyframe>
										<keyframe>
											<when>15812</when>
											<value>0</value>
										</keyframe>
										<keyframe>
											<when>15841</when>
											<value>1.05014</value>
										</keyframe>
										<keyframe>
											<when>17970</when>
											<value>1.05014</value>
										</keyframe>
										<keyframe>
											<when>18005</when>
											<value>0</value>
										</keyframe>
										<keyframe>
											<when>18257</when>
											<value>0</value>
										</keyframe>
										<keyframe>
											<when>18268</when>
											<value>1.18605</value>
										</keyframe>
										<keyframe>
											<when>18285</when>
											<value>1.16439</value>
										</keyframe>
										<keyframe>
											<when>18295</when>
											<value>0</value>
										</keyframe>
										<keyframe>
											<when>18487</when>
											<value>0</value>
										</keyframe>
										<keyframe>
											<when>18491</when>
											<value>1.24937</value>
										</keyframe>
										<keyframe>
											<when>18499</when>
											<value>1.24937</value>
										</keyframe>
										<keyframe>
											<when>18504</when>
											<value>0</value>
										</keyframe>
										<keyframe>
											<when>18544</when>
											<value>0</value>
										</keyframe>
										<keyframe>
											<when>18587</when>
											<value>0</value>
										</keyframe>
										<keyframe>
											<when>18591</when>
											<value>0.96606</value>
										</keyframe>
										<keyframe>
											<when>20345</when>
											<value>0.96606</value>
										</keyframe>
										<keyframe>
											<when>20352</when>
											<value>0.238816</value>
										</keyframe>
										<keyframe>
											<when>20424</when>
											<value>0.238816</value>
										</keyframe>
										<keyframe>
											<when>20433</when>
											<value>0</value>
										</keyframe>
										<keyframe>
											<when>23889</when>
											<value>0</value>
										</keyframe>
										<keyframe>
											<when>23896</when>
											<value>1.0256</value>
										</keyframe>
										<keyframe>
											<when>23907</when>
											<value>1.0256</value>
										</keyframe>
										<keyframe>
											<when>23918</when>
											<value>0</value>
										</keyframe>
										<keyframe>
											<when>23940</when>
											<value>0</value>
										</keyframe>
										<keyframe>
											<when>23943</when>
											<value>1.10019</value>
										</keyframe>
										<keyframe>
											<when>23951</when>
											<value>1.10019</value>
										</keyframe>
										<keyframe>
											<when>23955</when>
											<value>0</value>
										</keyframe>
										<keyframe>
											<when>24039</when>
											<value>0</value>
										</keyframe>
										<keyframe>
											<when>24044</when>
											<value>0.988306</value>
										</keyframe>
										<keyframe>
											<when>24063</when>
											<value>0.988306</value>
										</keyframe>
										<keyframe>
											<when>24066</when>
											<value>0.988306</value>
										</keyframe>
										<keyframe>
											<when>24068</when>
											<value>0.298357</value>
										</keyframe>
										<keyframe>
											<when>24083</when>
											<value>0.298357</value>
										</keyframe>
										<keyframe>
											<when>24086</when>
											<value>0.988306</value>
										</keyframe>
										<keyframe>
											<when>26589</when>
											<value>0.988306</value>
										</keyframe>
										<keyframe>
											<when>26632</when>
											<value>0</value>
										</keyframe>
										<keyframe>
											<when>27027</when>
											<value>0</value>
										</keyframe>
										<keyframe>
											<when>27058</when>
											<value>1.0256</value>
										</keyframe>
										<keyframe>
											<when>29897</when>
											<value>1.0256</value>
										</keyframe>
										<keyframe>
											<when>29899</when>
											<value>0</value>
										</keyframe>
										<keyframe>
											<when>29915</when>
											<value>0</value>
										</keyframe>
										<keyframe>
											<when>29924</when>
											<value>0</value>
										</keyframe>
									</parameter>
								</effect>
							</filter>
							<filter>
								<effect>
									<name>Audio Pan</name>
									<effectid>audiopan</effectid>
									<effectcategory>audiopan</effectcategory>
									<effecttype>audiopan</effecttype>
									<mediatype>audio</mediatype>
									<parameter authoringApp="PremierePro">
										<parameterid>pan</parameterid>
										<name>Pan</name>
										<valuemin>-1</valuemin>
										<valuemax>1</valuemax>
										<value>0</value>
									</parameter>
								</effect>
							</filter>
						<link>
							<linkclipref>clipitem-55</linkclipref>
							<mediatype>video</mediatype>
							<trackindex>1</trackindex>
							<clipindex>60</clipindex>
						</link>
						<link>
							<linkclipref>clipitem-453</linkclipref>
							<mediatype>audio</mediatype>
							<trackindex>1</trackindex>
							<clipindex>59</clipindex>
							<groupindex>1</groupindex>
						</link>
						<link>
							<linkclipref>clipitem-521</linkclipref>
							<mediatype>audio</mediatype>
							<trackindex>2</trackindex>
							<clipindex>55</clipindex>
							<groupindex>1</groupindex>
						</link>
					</clipitem>
					<clipitem id="clipitem-454" frameBlend="FALSE" PannerCurrentValue="0.5" PannerKeyframes="" PannerStartKeyframe="-91445760000000000,0.5,0,0,0,0,0,0" PannerIsInverted="true" PannerName="Pan">
						<masterclipid>masterclip-13</masterclipid>
						<name>mktf-film-visjonar-r30.MXF</name>
						<enabled>TRUE</enabled>
						<duration>1116</duration>
						<rate>
							<ntsc>TRUE</ntsc>
							<timebase>30</timebase>
						</rate>
						<start>33937</start>
						<end>34174</end>
						<in>127</in>
						<out>364</out>
						<file id="file-13"/>
						<sourcetrack>
							<mediatype>audio</mediatype>
							<trackindex>1</trackindex>
						</sourcetrack>
							<filter>
								<effect>
									<name>Gain</name>
									<effectid>{61756678, 4761696e, 4b657947}</effectid>
									<effecttype>filter</effecttype>
									<mediatype>audio</mediatype>
									<parameter authoringApp="PremierePro">
										<parameterid>Gain(dB)</parameterid>
										<name>Gain(dB)</name>
										<valuemin>-96</valuemin>
										<valuemax>96</valuemax>
										<value>6</value>
									</parameter>
								</effect>
							</filter>
							<filter>
								<effect>
									<name>Audio Pan</name>
									<effectid>audiopan</effectid>
									<effectcategory>audiopan</effectcategory>
									<effecttype>audiopan</effecttype>
									<mediatype>audio</mediatype>
									<parameter authoringApp="PremierePro">
										<parameterid>pan</parameterid>
										<name>Pan</name>
										<valuemin>-1</valuemin>
										<valuemax>1</valuemax>
										<value>0</value>
									</parameter>
								</effect>
							</filter>
					</clipitem>
					<clipitem id="clipitem-455" frameBlend="FALSE" PannerCurrentValue="0.5" PannerKeyframes="" PannerStartKeyframe="-91445760000000000,0.5,0,0,0,0,0,0" PannerIsInverted="true" PannerName="Pan">
						<masterclipid>masterclip-13</masterclipid>
						<name>mktf-film-visjonar-r30.MXF</name>
						<enabled>TRUE</enabled>
						<duration>1116</duration>
						<rate>
							<ntsc>TRUE</ntsc>
							<timebase>30</timebase>
						</rate>
						<start>34174</start>
						<end>34689</end>
						<in>485</in>
						<out>1000</out>
						<file id="file-13"/>
						<sourcetrack>
							<mediatype>audio</mediatype>
							<trackindex>1</trackindex>
						</sourcetrack>
							<filter>
								<effect>
									<name>Gain</name>
									<effectid>{61756678, 4761696e, 4b657947}</effectid>
									<effecttype>filter</effecttype>
									<mediatype>audio</mediatype>
									<parameter authoringApp="PremierePro">
										<parameterid>Gain(dB)</parameterid>
										<name>Gain(dB)</name>
										<valuemin>-96</valuemin>
										<valuemax>96</valuemax>
										<value>6</value>
									</parameter>
								</effect>
							</filter>
							<filter>
								<effect>
									<name>Audio Levels</name>
									<effectid>audiolevels</effectid>
									<effectcategory>audiolevels</effectcategory>
									<effecttype>audiolevels</effecttype>
									<mediatype>audio</mediatype>
									<parameter authoringApp="PremierePro">
										<parameterid>level</parameterid>
										<name>Level</name>
										<valuemin>0</valuemin>
										<valuemax>3.98109</valuemax>
										<value>0.99763</value>
										<keyframe>
											<when>988</when>
											<value>0.99763</value>
										</keyframe>
										<keyframe>
											<when>999</when>
											<value>0</value>
										</keyframe>
									</parameter>
								</effect>
							</filter>
							<filter>
								<effect>
									<name>Audio Pan</name>
									<effectid>audiopan</effectid>
									<effectcategory>audiopan</effectcategory>
									<effecttype>audiopan</effecttype>
									<mediatype>audio</mediatype>
									<parameter authoringApp="PremierePro">
										<parameterid>pan</parameterid>
										<name>Pan</name>
										<valuemin>-1</valuemin>
										<valuemax>1</valuemax>
										<value>0</value>
									</parameter>
								</effect>
							</filter>
					</clipitem>
					<clipitem id="clipitem-456" frameBlend="FALSE" PannerCurrentValue="0.5" PannerKeyframes="" PannerStartKeyframe="-91445760000000000,0.5,0,0,0,0,0,0" PannerIsInverted="true" PannerName="Pan">
						<masterclipid>masterclip-14</masterclipid>
						<name>C0091.mov</name>
						<enabled>TRUE</enabled>
						<duration>42484</duration>
						<rate>
							<ntsc>TRUE</ntsc>
							<timebase>30</timebase>
						</rate>
						<start>35226</start>
						<end>35558</end>
						<in>2597</in>
						<out>2929</out>
						<file id="file-14"/>
						<sourcetrack>
							<mediatype>audio</mediatype>
							<trackindex>1</trackindex>
						</sourcetrack>
							<filter>
								<effect>
									<name>Gain</name>
									<effectid>{61756678, 4761696e, 4b657947}</effectid>
									<effecttype>filter</effecttype>
									<mediatype>audio</mediatype>
									<parameter authoringApp="PremierePro">
										<parameterid>Gain(dB)</parameterid>
										<name>Gain(dB)</name>
										<valuemin>-96</valuemin>
										<valuemax>96</valuemax>
										<value>7</value>
									</parameter>
								</effect>
							</filter>
							<filter>
								<effect>
									<name>Audio Levels</name>
									<effectid>audiolevels</effectid>
									<effectcategory>audiolevels</effectcategory>
									<effecttype>audiolevels</effecttype>
									<mediatype>audio</mediatype>
									<parameter authoringApp="PremierePro">
										<parameterid>level</parameterid>
										<name>Level</name>
										<valuemin>0</valuemin>
										<valuemax>3.98109</valuemax>
										<value>1.23596</value>
									</parameter>
								</effect>
							</filter>
							<filter>
								<effect>
									<name>Audio Pan</name>
									<effectid>audiopan</effectid>
									<effectcategory>audiopan</effectcategory>
									<effecttype>audiopan</effecttype>
									<mediatype>audio</mediatype>
									<parameter authoringApp="PremierePro">
										<parameterid>pan</parameterid>
										<name>Pan</name>
										<valuemin>-1</valuemin>
										<valuemax>1</valuemax>
										<value>0</value>
									</parameter>
								</effect>
							</filter>
						<link>
							<linkclipref>clipitem-58</linkclipref>
							<mediatype>video</mediatype>
							<trackindex>1</trackindex>
							<clipindex>63</clipindex>
						</link>
						<link>
							<linkclipref>clipitem-456</linkclipref>
							<mediatype>audio</mediatype>
							<trackindex>1</trackindex>
							<clipindex>62</clipindex>
							<groupindex>1</groupindex>
						</link>
						<link>
							<linkclipref>clipitem-523</linkclipref>
							<mediatype>audio</mediatype>
							<trackindex>2</trackindex>
							<clipindex>58</clipindex>
							<groupindex>1</groupindex>
						</link>
						<link>
							<linkclipref>clipitem-539</linkclipref>
							<mediatype>audio</mediatype>
							<trackindex>3</trackindex>
							<clipindex>4</clipindex>
							<groupindex>1</groupindex>
						</link>
					</clipitem>
					<clipitem id="clipitem-457" frameBlend="FALSE" PannerCurrentValue="0.5" PannerKeyframes="" PannerStartKeyframe="-91445760000000000,0.5,0,0,0,0,0,0" PannerIsInverted="true" PannerName="Pan">
						<masterclipid>masterclip-15</masterclipid>
						<name>JX4A6001.MOV</name>
						<enabled>TRUE</enabled>
						<duration>5245</duration>
						<rate>
							<ntsc>TRUE</ntsc>
							<timebase>30</timebase>
						</rate>
						<start>35558</start>
						<end>35790</end>
						<in>535</in>
						<out>767</out>
						<file id="file-15"/>
						<sourcetrack>
							<mediatype>audio</mediatype>
							<trackindex>1</trackindex>
						</sourcetrack>
							<filter>
								<effect>
									<name>Gain</name>
									<effectid>{61756678, 4761696e, 4b657947}</effectid>
									<effecttype>filter</effecttype>
									<mediatype>audio</mediatype>
									<parameter authoringApp="PremierePro">
										<parameterid>Gain(dB)</parameterid>
										<name>Gain(dB)</name>
										<valuemin>-96</valuemin>
										<valuemax>96</valuemax>
										<value>4</value>
									</parameter>
								</effect>
							</filter>
							<filter>
								<effect>
									<name>Audio Levels</name>
									<effectid>audiolevels</effectid>
									<effectcategory>audiolevels</effectcategory>
									<effecttype>audiolevels</effecttype>
									<mediatype>audio</mediatype>
									<parameter authoringApp="PremierePro">
										<parameterid>level</parameterid>
										<name>Level</name>
										<valuemin>0</valuemin>
										<valuemax>3.98109</valuemax>
										<value>0</value>
										<keyframe>
											<when>640</when>
											<value>0.658011</value>
										</keyframe>
										<keyframe>
											<when>683</when>
											<value>1.16744</value>
										</keyframe>
										<keyframe>
											<when>762</when>
											<value>1.12499</value>
										</keyframe>
										<keyframe>
											<when>764</when>
											<value>0</value>
										</keyframe>
									</parameter>
								</effect>
							</filter>
							<filter>
								<effect>
									<name>Audio Pan</name>
									<effectid>audiopan</effectid>
									<effectcategory>audiopan</effectcategory>
									<effecttype>audiopan</effecttype>
									<mediatype>audio</mediatype>
									<parameter authoringApp="PremierePro">
										<parameterid>pan</parameterid>
										<name>Pan</name>
										<valuemin>-1</valuemin>
										<valuemax>1</valuemax>
										<value>0</value>
									</parameter>
								</effect>
							</filter>
						<link>
							<linkclipref>clipitem-59</linkclipref>
							<mediatype>video</mediatype>
							<trackindex>1</trackindex>
							<clipindex>64</clipindex>
						</link>
						<link>
							<linkclipref>clipitem-457</linkclipref>
							<mediatype>audio</mediatype>
							<trackindex>1</trackindex>
							<clipindex>63</clipindex>
							<groupindex>1</groupindex>
						</link>
					</clipitem>
					<transitionitem>
						<start>36434</start>
						<end>36459</end>
						<alignment>start-black</alignment>
						<cutPoint>0</cutPoint>
						<rate>
							<timebase>25</timebase>
							<ntsc>FALSE</ntsc>
						</rate>
						<effect>
							<name>Cross Fade (+3dB)</name>
							<effectid>KGAudioTransCrossFade3dB</effectid>
							<effecttype>transition</effecttype>
							<mediatype>audio</mediatype>
							<wipecode>0</wipecode>
							<wipeaccuracy>100</wipeaccuracy>
							<startratio>0</startratio>
							<endratio>1</endratio>
							<reverse>FALSE</reverse>
						</effect>
					</transitionitem>
					<clipitem id="clipitem-458" frameBlend="FALSE" PannerCurrentValue="" PannerKeyframes="934778880000,1.,0,0,0,0.16666666666666665741480812812,0,0.16666666666666665741480812812;" PannerStartKeyframe="-91445760000000000,0.5,0,0,0,0,0,0" PannerIsInverted="true" PannerName="Pan">
						<masterclipid>masterclip-16</masterclipid>
						<name>C0075.mov</name>
						<enabled>TRUE</enabled>
						<duration>195</duration>
						<rate>
							<ntsc>TRUE</ntsc>
							<timebase>30</timebase>
						</rate>
						<start>-1</start>
						<end>36503</end>
						<in>92</in>
						<out>161</out>
						<file id="file-16"/>
						<sourcetrack>
							<mediatype>audio</mediatype>
							<trackindex>4</trackindex>
						</sourcetrack>
							<filter>
								<effect>
									<name>Audio Levels</name>
									<effectid>audiolevels</effectid>
									<effectcategory>audiolevels</effectcategory>
									<effecttype>audiolevels</effecttype>
									<mediatype>audio</mediatype>
									<parameter authoringApp="PremierePro">
										<parameterid>level</parameterid>
										<name>Level</name>
										<valuemin>0</valuemin>
										<valuemax>3.98109</valuemax>
										<value>0.0504604</value>
									</parameter>
								</effect>
							</filter>
							<filter>
								<effect>
									<name>Audio Pan</name>
									<effectid>audiopan</effectid>
									<effectcategory>audiopan</effectcategory>
									<effecttype>audiopan</effecttype>
									<mediatype>audio</mediatype>
									<parameter authoringApp="PremierePro">
										<parameterid>pan</parameterid>
										<name>Pan</name>
										<valuemin>-1</valuemin>
										<valuemax>1</valuemax>
										<value>0</value>
										<keyframe>
											<when>92</when>
											<value>1</value>
										</keyframe>
									</parameter>
								</effect>
							</filter>
						<link>
							<linkclipref>clipitem-60</linkclipref>
							<mediatype>video</mediatype>
							<trackindex>1</trackindex>
							<clipindex>66</clipindex>
						</link>
						<link>
							<linkclipref>clipitem-458</linkclipref>
							<mediatype>audio</mediatype>
							<trackindex>1</trackindex>
							<clipindex>65</clipindex>
							<groupindex>1</groupindex>
						</link>
					</clipitem>
					<clipitem id="clipitem-459" frameBlend="FALSE" PannerCurrentValue="" PannerKeyframes="325140480000,1.,0,0,0,0.16666666666666665741480812812,0,0.16666666666666665741480812812;" PannerStartKeyframe="-91445760000000000,0.5,0,0,0,0,0,0" PannerIsInverted="true" PannerName="Pan">
						<masterclipid>masterclip-17</masterclipid>
						<name>C0076.mov</name>
						<enabled>TRUE</enabled>
						<duration>228</duration>
						<rate>
							<ntsc>TRUE</ntsc>
							<timebase>30</timebase>
						</rate>
						<start>36503</start>
						<end>36544</end>
						<in>32</in>
						<out>73</out>
						<file id="file-17"/>
						<sourcetrack>
							<mediatype>audio</mediatype>
							<trackindex>4</trackindex>
						</sourcetrack>
							<filter>
								<effect>
									<name>Audio Levels</name>
									<effectid>audiolevels</effectid>
									<effectcategory>audiolevels</effectcategory>
									<effecttype>audiolevels</effecttype>
									<mediatype>audio</mediatype>
									<parameter authoringApp="PremierePro">
										<parameterid>level</parameterid>
										<name>Level</name>
										<valuemin>0</valuemin>
										<valuemax>3.98109</valuemax>
										<value>0.0429101</value>
									</parameter>
								</effect>
							</filter>
							<filter>
								<effect>
									<name>Audio Pan</name>
									<effectid>audiopan</effectid>
									<effectcategory>audiopan</effectcategory>
									<effecttype>audiopan</effecttype>
									<mediatype>audio</mediatype>
									<parameter authoringApp="PremierePro">
										<parameterid>pan</parameterid>
										<name>Pan</name>
										<valuemin>-1</valuemin>
										<valuemax>1</valuemax>
										<value>0</value>
										<keyframe>
											<when>32</when>
											<value>1</value>
										</keyframe>
									</parameter>
								</effect>
							</filter>
						<link>
							<linkclipref>clipitem-61</linkclipref>
							<mediatype>video</mediatype>
							<trackindex>1</trackindex>
							<clipindex>67</clipindex>
						</link>
						<link>
							<linkclipref>clipitem-459</linkclipref>
							<mediatype>audio</mediatype>
							<trackindex>1</trackindex>
							<clipindex>66</clipindex>
							<groupindex>1</groupindex>
						</link>
					</clipitem>
					<clipitem id="clipitem-460" frameBlend="FALSE" PannerCurrentValue="" PannerKeyframes="680762880000,1.,0,0,0,0.16666666666666665741480812812,0,0.16666666666666665741480812812;" PannerStartKeyframe="-91445760000000000,0.5,0,0,0,0,0,0" PannerIsInverted="true" PannerName="Pan">
						<masterclipid>masterclip-18</masterclipid>
						<name>C0088.mov</name>
						<enabled>TRUE</enabled>
						<duration>272</duration>
						<rate>
							<ntsc>TRUE</ntsc>
							<timebase>30</timebase>
						</rate>
						<start>36544</start>
						<end>36598</end>
						<in>67</in>
						<out>121</out>
						<file id="file-18"/>
						<sourcetrack>
							<mediatype>audio</mediatype>
							<trackindex>4</trackindex>
						</sourcetrack>
							<filter>
								<effect>
									<name>Audio Levels</name>
									<effectid>audiolevels</effectid>
									<effectcategory>audiolevels</effectcategory>
									<effecttype>audiolevels</effecttype>
									<mediatype>audio</mediatype>
									<parameter authoringApp="PremierePro">
										<parameterid>level</parameterid>
										<name>Level</name>
										<valuemin>0</valuemin>
										<valuemax>3.98109</valuemax>
										<value>0.0429101</value>
									</parameter>
								</effect>
							</filter>
							<filter>
								<effect>
									<name>Audio Pan</name>
									<effectid>audiopan</effectid>
									<effectcategory>audiopan</effectcategory>
									<effecttype>audiopan</effecttype>
									<mediatype>audio</mediatype>
									<parameter authoringApp="PremierePro">
										<parameterid>pan</parameterid>
										<name>Pan</name>
										<valuemin>-1</valuemin>
										<valuemax>1</valuemax>
										<value>0</value>
										<keyframe>
											<when>67</when>
											<value>1</value>
										</keyframe>
									</parameter>
								</effect>
							</filter>
						<link>
							<linkclipref>clipitem-62</linkclipref>
							<mediatype>video</mediatype>
							<trackindex>1</trackindex>
							<clipindex>68</clipindex>
						</link>
						<link>
							<linkclipref>clipitem-460</linkclipref>
							<mediatype>audio</mediatype>
							<trackindex>1</trackindex>
							<clipindex>67</clipindex>
							<groupindex>1</groupindex>
						</link>
					</clipitem>
					<clipitem id="clipitem-461" frameBlend="FALSE" PannerCurrentValue="" PannerKeyframes="152409600000,1.,0,0,0,0.16666666666666665741480812812,0,0.16666666666666665741480812812;" PannerStartKeyframe="-91445760000000000,0.5,0,0,0,0,0,0" PannerIsInverted="true" PannerName="Pan">
						<masterclipid>masterclip-19</masterclipid>
						<name>C0054.mov</name>
						<enabled>TRUE</enabled>
						<duration>130</duration>
						<rate>
							<ntsc>TRUE</ntsc>
							<timebase>30</timebase>
						</rate>
						<start>36598</start>
						<end>36685</end>
						<in>15</in>
						<out>102</out>
						<file id="file-19"/>
						<sourcetrack>
							<mediatype>audio</mediatype>
							<trackindex>4</trackindex>
						</sourcetrack>
							<filter>
								<effect>
									<name>Audio Levels</name>
									<effectid>audiolevels</effectid>
									<effectcategory>audiolevels</effectcategory>
									<effecttype>audiolevels</effecttype>
									<mediatype>audio</mediatype>
									<parameter authoringApp="PremierePro">
										<parameterid>level</parameterid>
										<name>Level</name>
										<valuemin>0</valuemin>
										<valuemax>3.98109</valuemax>
										<value>0.0429101</value>
									</parameter>
								</effect>
							</filter>
							<filter>
								<effect>
									<name>Audio Pan</name>
									<effectid>audiopan</effectid>
									<effectcategory>audiopan</effectcategory>
									<effecttype>audiopan</effecttype>
									<mediatype>audio</mediatype>
									<parameter authoringApp="PremierePro">
										<parameterid>pan</parameterid>
										<name>Pan</name>
										<valuemin>-1</valuemin>
										<valuemax>1</valuemax>
										<value>0</value>
										<keyframe>
											<when>15</when>
											<value>1</value>
										</keyframe>
									</parameter>
								</effect>
							</filter>
						<link>
							<linkclipref>clipitem-63</linkclipref>
							<mediatype>video</mediatype>
							<trackindex>1</trackindex>
							<clipindex>69</clipindex>
						</link>
						<link>
							<linkclipref>clipitem-461</linkclipref>
							<mediatype>audio</mediatype>
							<trackindex>1</trackindex>
							<clipindex>68</clipindex>
							<groupindex>1</groupindex>
						</link>
					</clipitem>
					<clipitem id="clipitem-462" frameBlend="FALSE" PannerCurrentValue="0.5" PannerKeyframes="" PannerStartKeyframe="-91445760000000000,0.5,0,0,0,0,0,0" PannerIsInverted="true" PannerName="Pan">
						<masterclipid>masterclip-20</masterclipid>
						<name>C0034.mov</name>
						<enabled>TRUE</enabled>
						<duration>354</duration>
						<rate>
							<ntsc>TRUE</ntsc>
							<timebase>30</timebase>
						</rate>
						<start>36891</start>
						<end>36980</end>
						<in>37</in>
						<out>126</out>
						<file id="file-20"/>
						<sourcetrack>
							<mediatype>audio</mediatype>
							<trackindex>3</trackindex>
						</sourcetrack>
							<filter>
								<effect>
									<name>Audio Levels</name>
									<effectid>audiolevels</effectid>
									<effectcategory>audiolevels</effectcategory>
									<effecttype>audiolevels</effecttype>
									<mediatype>audio</mediatype>
									<parameter authoringApp="PremierePro">
										<parameterid>level</parameterid>
										<name>Level</name>
										<valuemin>0</valuemin>
										<valuemax>3.98109</valuemax>
										<value>0.0920923</value>
									</parameter>
								</effect>
							</filter>
							<filter>
								<effect>
									<name>Audio Pan</name>
									<effectid>audiopan</effectid>
									<effectcategory>audiopan</effectcategory>
									<effecttype>audiopan</effecttype>
									<mediatype>audio</mediatype>
									<parameter authoringApp="PremierePro">
										<parameterid>pan</parameterid>
										<name>Pan</name>
										<valuemin>-1</valuemin>
										<valuemax>1</valuemax>
										<value>0</value>
									</parameter>
								</effect>
							</filter>
						<link>
							<linkclipref>clipitem-64</linkclipref>
							<mediatype>video</mediatype>
							<trackindex>1</trackindex>
							<clipindex>70</clipindex>
						</link>
						<link>
							<linkclipref>clipitem-462</linkclipref>
							<mediatype>audio</mediatype>
							<trackindex>1</trackindex>
							<clipindex>69</clipindex>
							<groupindex>1</groupindex>
						</link>
						<link>
							<linkclipref>clipitem-528</linkclipref>
							<mediatype>audio</mediatype>
							<trackindex>2</trackindex>
							<clipindex>64</clipindex>
							<groupindex>1</groupindex>
						</link>
					</clipitem>
					<clipitem id="clipitem-463" frameBlend="FALSE" PannerCurrentValue="0.5" PannerKeyframes="" PannerStartKeyframe="-91445760000000000,0.5,0,0,0,0,0,0" PannerIsInverted="true" PannerName="Pan">
						<masterclipid>masterclip-21</masterclipid>
						<name>C0005.mov</name>
						<enabled>TRUE</enabled>
						<duration>158</duration>
						<rate>
							<ntsc>TRUE</ntsc>
							<timebase>30</timebase>
						</rate>
						<start>36980</start>
						<end>37024</end>
						<in>94</in>
						<out>138</out>
						<file id="file-21"/>
						<sourcetrack>
							<mediatype>audio</mediatype>
							<trackindex>3</trackindex>
						</sourcetrack>
							<filter>
								<effect>
									<name>Audio Levels</name>
									<effectid>audiolevels</effectid>
									<effectcategory>audiolevels</effectcategory>
									<effecttype>audiolevels</effecttype>
									<mediatype>audio</mediatype>
									<parameter authoringApp="PremierePro">
										<parameterid>level</parameterid>
										<name>Level</name>
										<valuemin>0</valuemin>
										<valuemax>3.98109</valuemax>
										<value>0.0920923</value>
									</parameter>
								</effect>
							</filter>
							<filter>
								<effect>
									<name>Audio Pan</name>
									<effectid>audiopan</effectid>
									<effectcategory>audiopan</effectcategory>
									<effecttype>audiopan</effecttype>
									<mediatype>audio</mediatype>
									<parameter authoringApp="PremierePro">
										<parameterid>pan</parameterid>
										<name>Pan</name>
										<valuemin>-1</valuemin>
										<valuemax>1</valuemax>
										<value>0</value>
									</parameter>
								</effect>
							</filter>
						<link>
							<linkclipref>clipitem-65</linkclipref>
							<mediatype>video</mediatype>
							<trackindex>1</trackindex>
							<clipindex>71</clipindex>
						</link>
						<link>
							<linkclipref>clipitem-463</linkclipref>
							<mediatype>audio</mediatype>
							<trackindex>1</trackindex>
							<clipindex>70</clipindex>
							<groupindex>1</groupindex>
						</link>
						<link>
							<linkclipref>clipitem-529</linkclipref>
							<mediatype>audio</mediatype>
							<trackindex>2</trackindex>
							<clipindex>65</clipindex>
							<groupindex>1</groupindex>
						</link>
					</clipitem>
					<clipitem id="clipitem-464" frameBlend="FALSE" PannerCurrentValue="0.5" PannerKeyframes="" PannerStartKeyframe="-91445760000000000,0.5,0,0,0,0,0,0" PannerIsInverted="true" PannerName="Pan">
						<masterclipid>masterclip-22</masterclipid>
						<name>C0003.mov</name>
						<enabled>TRUE</enabled>
						<duration>160</duration>
						<rate>
							<ntsc>TRUE</ntsc>
							<timebase>30</timebase>
						</rate>
						<start>37024</start>
						<end>37102</end>
						<in>53</in>
						<out>131</out>
						<file id="file-22"/>
						<sourcetrack>
							<mediatype>audio</mediatype>
							<trackindex>3</trackindex>
						</sourcetrack>
							<filter>
								<effect>
									<name>Audio Levels</name>
									<effectid>audiolevels</effectid>
									<effectcategory>audiolevels</effectcategory>
									<effecttype>audiolevels</effecttype>
									<mediatype>audio</mediatype>
									<parameter authoringApp="PremierePro">
										<parameterid>level</parameterid>
										<name>Level</name>
										<valuemin>0</valuemin>
										<valuemax>3.98109</valuemax>
										<value>0.0988598</value>
									</parameter>
								</effect>
							</filter>
							<filter>
								<effect>
									<name>Audio Pan</name>
									<effectid>audiopan</effectid>
									<effectcategory>audiopan</effectcategory>
									<effecttype>audiopan</effecttype>
									<mediatype>audio</mediatype>
									<parameter authoringApp="PremierePro">
										<parameterid>pan</parameterid>
										<name>Pan</name>
										<valuemin>-1</valuemin>
										<valuemax>1</valuemax>
										<value>0</value>
									</parameter>
								</effect>
							</filter>
						<link>
							<linkclipref>clipitem-66</linkclipref>
							<mediatype>video</mediatype>
							<trackindex>1</trackindex>
							<clipindex>72</clipindex>
						</link>
						<link>
							<linkclipref>clipitem-464</linkclipref>
							<mediatype>audio</mediatype>
							<trackindex>1</trackindex>
							<clipindex>71</clipindex>
							<groupindex>1</groupindex>
						</link>
						<link>
							<linkclipref>clipitem-530</linkclipref>
							<mediatype>audio</mediatype>
							<trackindex>2</trackindex>
							<clipindex>66</clipindex>
							<groupindex>1</groupindex>
						</link>
					</clipitem>
					<clipitem id="clipitem-465" frameBlend="FALSE" PannerCurrentValue="0.5" PannerKeyframes="" PannerStartKeyframe="-91445760000000000,0.5,0,0,0,0,0,0" PannerIsInverted="true" PannerName="Pan">
						<masterclipid>masterclip-23</masterclipid>
						<name>C0011.mov</name>
						<enabled>TRUE</enabled>
						<duration>159</duration>
						<rate>
							<ntsc>TRUE</ntsc>
							<timebase>30</timebase>
						</rate>
						<start>37102</start>
						<end>37229</end>
						<in>4</in>
						<out>131</out>
						<file id="file-23"/>
						<sourcetrack>
							<mediatype>audio</mediatype>
							<trackindex>3</trackindex>
						</sourcetrack>
							<filter>
								<effect>
									<name>Audio Levels</name>
									<effectid>audiolevels</effectid>
									<effectcategory>audiolevels</effectcategory>
									<effecttype>audiolevels</effecttype>
									<mediatype>audio</mediatype>
									<parameter authoringApp="PremierePro">
										<parameterid>level</parameterid>
										<name>Level</name>
										<valuemin>0</valuemin>
										<valuemax>3.98109</valuemax>
										<value>0.0791581</value>
									</parameter>
								</effect>
							</filter>
							<filter>
								<effect>
									<name>Audio Pan</name>
									<effectid>audiopan</effectid>
									<effectcategory>audiopan</effectcategory>
									<effecttype>audiopan</effecttype>
									<mediatype>audio</mediatype>
									<parameter authoringApp="PremierePro">
										<parameterid>pan</parameterid>
										<name>Pan</name>
										<valuemin>-1</valuemin>
										<valuemax>1</valuemax>
										<value>0</value>
									</parameter>
								</effect>
							</filter>
						<link>
							<linkclipref>clipitem-67</linkclipref>
							<mediatype>video</mediatype>
							<trackindex>1</trackindex>
							<clipindex>73</clipindex>
						</link>
						<link>
							<linkclipref>clipitem-465</linkclipref>
							<mediatype>audio</mediatype>
							<trackindex>1</trackindex>
							<clipindex>72</clipindex>
							<groupindex>1</groupindex>
						</link>
						<link>
							<linkclipref>clipitem-531</linkclipref>
							<mediatype>audio</mediatype>
							<trackindex>2</trackindex>
							<clipindex>67</clipindex>
							<groupindex>1</groupindex>
						</link>
					</clipitem>
					<clipitem id="clipitem-466" frameBlend="FALSE" PannerCurrentValue="0.5" PannerKeyframes="" PannerStartKeyframe="-91445760000000000,0.5,0,0,0,0,0,0" PannerIsInverted="true" PannerName="Pan">
						<masterclipid>masterclip-14</masterclipid>
						<name>C0091.mov</name>
						<enabled>TRUE</enabled>
						<duration>42484</duration>
						<rate>
							<ntsc>TRUE</ntsc>
							<timebase>30</timebase>
						</rate>
						<start>37267</start>
						<end>37587</end>
						<in>1192</in>
						<out>1512</out>
						<file id="file-14"/>
						<sourcetrack>
							<mediatype>audio</mediatype>
							<trackindex>1</trackindex>
						</sourcetrack>
							<filter>
								<effect>
									<name>Gain</name>
									<effectid>{61756678, 4761696e, 4b657947}</effectid>
									<effecttype>filter</effecttype>
									<mediatype>audio</mediatype>
									<parameter authoringApp="PremierePro">
										<parameterid>Gain(dB)</parameterid>
										<name>Gain(dB)</name>
										<valuemin>-96</valuemin>
										<valuemax>96</valuemax>
										<value>9</value>
									</parameter>
								</effect>
							</filter>
							<filter>
								<effect>
									<name>Audio Levels</name>
									<effectid>audiolevels</effectid>
									<effectcategory>audiolevels</effectcategory>
									<effecttype>audiolevels</effecttype>
									<mediatype>audio</mediatype>
									<parameter authoringApp="PremierePro">
										<parameterid>level</parameterid>
										<name>Level</name>
										<valuemin>0</valuemin>
										<valuemax>3.98109</valuemax>
										<value>1.23596</value>
										<keyframe>
											<when>1500</when>
											<value>1.23596</value>
										</keyframe>
										<keyframe>
											<when>1501</when>
											<value>0</value>
										</keyframe>
									</parameter>
								</effect>
							</filter>
							<filter>
								<effect>
									<name>Audio Pan</name>
									<effectid>audiopan</effectid>
									<effectcategory>audiopan</effectcategory>
									<effecttype>audiopan</effecttype>
									<mediatype>audio</mediatype>
									<parameter authoringApp="PremierePro">
										<parameterid>pan</parameterid>
										<name>Pan</name>
										<valuemin>-1</valuemin>
										<valuemax>1</valuemax>
										<value>0</value>
									</parameter>
								</effect>
							</filter>
						<link>
							<linkclipref>clipitem-68</linkclipref>
							<mediatype>video</mediatype>
							<trackindex>1</trackindex>
							<clipindex>74</clipindex>
						</link>
						<link>
							<linkclipref>clipitem-466</linkclipref>
							<mediatype>audio</mediatype>
							<trackindex>1</trackindex>
							<clipindex>73</clipindex>
							<groupindex>1</groupindex>
						</link>
					</clipitem>
					<clipitem id="clipitem-467" frameBlend="FALSE" PannerCurrentValue="0.5" PannerKeyframes="" PannerStartKeyframe="-91445760000000000,0.5,0,0,0,0,0,0" PannerIsInverted="true" PannerName="Pan">
						<masterclipid>masterclip-26</masterclipid>
						<name>JX4A6000.MOV</name>
						<enabled>TRUE</enabled>
						<duration>6801</duration>
						<rate>
							<ntsc>TRUE</ntsc>
							<timebase>30</timebase>
						</rate>
						<start>38398</start>
						<end>39211</end>
						<in>2793</in>
						<out>3606</out>
						<file id="file-26"/>
						<sourcetrack>
							<mediatype>audio</mediatype>
							<trackindex>1</trackindex>
						</sourcetrack>
							<filter>
								<effect>
									<name>Gain</name>
									<effectid>{61756678, 4761696e, 4b657947}</effectid>
									<effecttype>filter</effecttype>
									<mediatype>audio</mediatype>
									<parameter authoringApp="PremierePro">
										<parameterid>Gain(dB)</parameterid>
										<name>Gain(dB)</name>
										<valuemin>-96</valuemin>
										<valuemax>96</valuemax>
										<value>3</value>
									</parameter>
								</effect>
							</filter>
							<filter>
								<effect>
									<name>Audio Pan</name>
									<effectid>audiopan</effectid>
									<effectcategory>audiopan</effectcategory>
									<effecttype>audiopan</effecttype>
									<mediatype>audio</mediatype>
									<parameter authoringApp="PremierePro">
										<parameterid>pan</parameterid>
										<name>Pan</name>
										<valuemin>-1</valuemin>
										<valuemax>1</valuemax>
										<value>0</value>
									</parameter>
								</effect>
							</filter>
						<link>
							<linkclipref>clipitem-72</linkclipref>
							<mediatype>video</mediatype>
							<trackindex>1</trackindex>
							<clipindex>78</clipindex>
						</link>
						<link>
							<linkclipref>clipitem-467</linkclipref>
							<mediatype>audio</mediatype>
							<trackindex>1</trackindex>
							<clipindex>74</clipindex>
							<groupindex>1</groupindex>
						</link>
					</clipitem>
					<clipitem id="clipitem-468" frameBlend="FALSE" PannerCurrentValue="0.5" PannerKeyframes="" PannerStartKeyframe="-91445760000000000,0.5,0,0,0,0,0,0" PannerIsInverted="true" PannerName="Pan">
						<masterclipid>masterclip-26</masterclipid>
						<name>JX4A6000.MOV</name>
						<enabled>TRUE</enabled>
						<duration>6801</duration>
						<rate>
							<ntsc>TRUE</ntsc>
							<timebase>30</timebase>
						</rate>
						<start>39211</start>
						<end>39520</end>
						<in>3702</in>
						<out>4011</out>
						<file id="file-26"/>
						<sourcetrack>
							<mediatype>audio</mediatype>
							<trackindex>1</trackindex>
						</sourcetrack>
							<filter>
								<effect>
									<name>Gain</name>
									<effectid>{61756678, 4761696e, 4b657947}</effectid>
									<effecttype>filter</effecttype>
									<mediatype>audio</mediatype>
									<parameter authoringApp="PremierePro">
										<parameterid>Gain(dB)</parameterid>
										<name>Gain(dB)</name>
										<valuemin>-96</valuemin>
										<valuemax>96</valuemax>
										<value>2</value>
									</parameter>
								</effect>
							</filter>
							<filter>
								<effect>
									<name>Audio Pan</name>
									<effectid>audiopan</effectid>
									<effectcategory>audiopan</effectcategory>
									<effecttype>audiopan</effecttype>
									<mediatype>audio</mediatype>
									<parameter authoringApp="PremierePro">
										<parameterid>pan</parameterid>
										<name>Pan</name>
										<valuemin>-1</valuemin>
										<valuemax>1</valuemax>
										<value>0</value>
									</parameter>
								</effect>
							</filter>
						<link>
							<linkclipref>clipitem-73</linkclipref>
							<mediatype>video</mediatype>
							<trackindex>1</trackindex>
							<clipindex>79</clipindex>
						</link>
						<link>
							<linkclipref>clipitem-468</linkclipref>
							<mediatype>audio</mediatype>
							<trackindex>1</trackindex>
							<clipindex>75</clipindex>
							<groupindex>1</groupindex>
						</link>
					</clipitem>
					<clipitem id="clipitem-469" frameBlend="FALSE" PannerCurrentValue="0.5" PannerKeyframes="" PannerStartKeyframe="-91445760000000000,0.5,0,0,0,0,0,0" PannerIsInverted="true" PannerName="Pan">
						<masterclipid>masterclip-14</masterclipid>
						<name>C0091.mov</name>
						<enabled>TRUE</enabled>
						<duration>42484</duration>
						<rate>
							<ntsc>TRUE</ntsc>
							<timebase>30</timebase>
						</rate>
						<start>39520</start>
						<end>41000</end>
						<in>10035</in>
						<out>11515</out>
						<file id="file-14"/>
						<sourcetrack>
							<mediatype>audio</mediatype>
							<trackindex>1</trackindex>
						</sourcetrack>
							<filter>
								<effect>
									<name>Gain</name>
									<effectid>{61756678, 4761696e, 4b657947}</effectid>
									<effecttype>filter</effecttype>
									<mediatype>audio</mediatype>
									<parameter authoringApp="PremierePro">
										<parameterid>Gain(dB)</parameterid>
										<name>Gain(dB)</name>
										<valuemin>-96</valuemin>
										<valuemax>96</valuemax>
										<value>8</value>
									</parameter>
								</effect>
							</filter>
							<filter>
								<effect>
									<name>Audio Levels</name>
									<effectid>audiolevels</effectid>
									<effectcategory>audiolevels</effectcategory>
									<effecttype>audiolevels</effecttype>
									<mediatype>audio</mediatype>
									<parameter authoringApp="PremierePro">
										<parameterid>level</parameterid>
										<name>Level</name>
										<valuemin>0</valuemin>
										<valuemax>3.98109</valuemax>
										<value>1.23596</value>
									</parameter>
								</effect>
							</filter>
							<filter>
								<effect>
									<name>Audio Pan</name>
									<effectid>audiopan</effectid>
									<effectcategory>audiopan</effectcategory>
									<effecttype>audiopan</effecttype>
									<mediatype>audio</mediatype>
									<parameter authoringApp="PremierePro">
										<parameterid>pan</parameterid>
										<name>Pan</name>
										<valuemin>-1</valuemin>
										<valuemax>1</valuemax>
										<value>0</value>
									</parameter>
								</effect>
							</filter>
						<link>
							<linkclipref>clipitem-74</linkclipref>
							<mediatype>video</mediatype>
							<trackindex>1</trackindex>
							<clipindex>80</clipindex>
						</link>
						<link>
							<linkclipref>clipitem-469</linkclipref>
							<mediatype>audio</mediatype>
							<trackindex>1</trackindex>
							<clipindex>76</clipindex>
							<groupindex>1</groupindex>
						</link>
					</clipitem>
					<clipitem id="clipitem-470" frameBlend="FALSE" PannerCurrentValue="0.5" PannerKeyframes="" PannerStartKeyframe="-91445760000000000,0.5,0,0,0,0,0,0" PannerIsInverted="true" PannerName="Pan">
						<masterclipid>masterclip-14</masterclipid>
						<name>C0091.mov</name>
						<enabled>TRUE</enabled>
						<duration>42484</duration>
						<rate>
							<ntsc>TRUE</ntsc>
							<timebase>30</timebase>
						</rate>
						<start>41326</start>
						<end>42375</end>
						<in>4702</in>
						<out>5751</out>
						<file id="file-14"/>
						<sourcetrack>
							<mediatype>audio</mediatype>
							<trackindex>1</trackindex>
						</sourcetrack>
							<filter>
								<effect>
									<name>Gain</name>
									<effectid>{61756678, 4761696e, 4b657947}</effectid>
									<effecttype>filter</effecttype>
									<mediatype>audio</mediatype>
									<parameter authoringApp="PremierePro">
										<parameterid>Gain(dB)</parameterid>
										<name>Gain(dB)</name>
										<valuemin>-96</valuemin>
										<valuemax>96</valuemax>
										<value>9</value>
									</parameter>
								</effect>
							</filter>
							<filter>
								<effect>
									<name>Audio Levels</name>
									<effectid>audiolevels</effectid>
									<effectcategory>audiolevels</effectcategory>
									<effecttype>audiolevels</effecttype>
									<mediatype>audio</mediatype>
									<parameter authoringApp="PremierePro">
										<parameterid>level</parameterid>
										<name>Level</name>
										<valuemin>0</valuemin>
										<valuemax>3.98109</valuemax>
										<value>1.23596</value>
										<keyframe>
											<when>6051</when>
											<value>1.23596</value>
										</keyframe>
										<keyframe>
											<when>6055</when>
											<value>0</value>
										</keyframe>
									</parameter>
								</effect>
							</filter>
							<filter>
								<effect>
									<name>Audio Pan</name>
									<effectid>audiopan</effectid>
									<effectcategory>audiopan</effectcategory>
									<effecttype>audiopan</effecttype>
									<mediatype>audio</mediatype>
									<parameter authoringApp="PremierePro">
										<parameterid>pan</parameterid>
										<name>Pan</name>
										<valuemin>-1</valuemin>
										<valuemax>1</valuemax>
										<value>0</value>
									</parameter>
								</effect>
							</filter>
						<link>
							<linkclipref>clipitem-75</linkclipref>
							<mediatype>video</mediatype>
							<trackindex>1</trackindex>
							<clipindex>81</clipindex>
						</link>
						<link>
							<linkclipref>clipitem-470</linkclipref>
							<mediatype>audio</mediatype>
							<trackindex>1</trackindex>
							<clipindex>77</clipindex>
							<groupindex>1</groupindex>
						</link>
					</clipitem>
					<clipitem id="clipitem-471" frameBlend="FALSE" PannerCurrentValue="0.5" PannerKeyframes="" PannerStartKeyframe="-91445760000000000,0.5,0,0,0,0,0,0" PannerIsInverted="true" PannerName="Pan">
						<masterclipid>masterclip-27</masterclipid>
						<name>mktf-film-visjonar-r19.MXF</name>
						<enabled>TRUE</enabled>
						<duration>1980</duration>
						<rate>
							<ntsc>TRUE</ntsc>
							<timebase>30</timebase>
						</rate>
						<start>42551</start>
						<end>42906</end>
						<in>1549</in>
						<out>1904</out>
						<file id="file-27"/>
						<sourcetrack>
							<mediatype>audio</mediatype>
							<trackindex>1</trackindex>
						</sourcetrack>
							<filter>
								<effect>
									<name>Gain</name>
									<effectid>{61756678, 4761696e, 4b657947}</effectid>
									<effecttype>filter</effecttype>
									<mediatype>audio</mediatype>
									<parameter authoringApp="PremierePro">
										<parameterid>Gain(dB)</parameterid>
										<name>Gain(dB)</name>
										<valuemin>-96</valuemin>
										<valuemax>96</valuemax>
										<value>9</value>
									</parameter>
								</effect>
							</filter>
							<filter>
								<effect>
									<name>Audio Levels</name>
									<effectid>audiolevels</effectid>
									<effectcategory>audiolevels</effectcategory>
									<effecttype>audiolevels</effecttype>
									<mediatype>audio</mediatype>
									<parameter authoringApp="PremierePro">
										<parameterid>level</parameterid>
										<name>Level</name>
										<valuemin>0</valuemin>
										<valuemax>3.98109</valuemax>
										<value>0.840109</value>
									</parameter>
								</effect>
							</filter>
							<filter>
								<effect>
									<name>Audio Pan</name>
									<effectid>audiopan</effectid>
									<effectcategory>audiopan</effectcategory>
									<effecttype>audiopan</effecttype>
									<mediatype>audio</mediatype>
									<parameter authoringApp="PremierePro">
										<parameterid>pan</parameterid>
										<name>Pan</name>
										<valuemin>-1</valuemin>
										<valuemax>1</valuemax>
										<value>0</value>
									</parameter>
								</effect>
							</filter>
						<link>
							<linkclipref>clipitem-76</linkclipref>
							<mediatype>video</mediatype>
							<trackindex>1</trackindex>
							<clipindex>82</clipindex>
						</link>
						<link>
							<linkclipref>clipitem-471</linkclipref>
							<mediatype>audio</mediatype>
							<trackindex>1</trackindex>
							<clipindex>78</clipindex>
							<groupindex>1</groupindex>
						</link>
					</clipitem>
					<clipitem id="clipitem-472" frameBlend="FALSE" PannerCurrentValue="0.5" PannerKeyframes="" PannerStartKeyframe="-91445760000000000,0.5,0,0,0,0,0,0" PannerIsInverted="true" PannerName="Pan">
						<masterclipid>masterclip-28</masterclipid>
						<name>MKTF-FILM-Buljo2-319.MXF</name>
						<enabled>TRUE</enabled>
						<duration>5664</duration>
						<rate>
							<ntsc>TRUE</ntsc>
							<timebase>30</timebase>
						</rate>
						<start>42906</start>
						<end>-1</end>
						<in>3906</in>
						<out>3978</out>
						<file id="file-28"/>
						<sourcetrack>
							<mediatype>audio</mediatype>
							<trackindex>1</trackindex>
						</sourcetrack>
							<filter>
								<effect>
									<name>Audio Levels</name>
									<effectid>audiolevels</effectid>
									<effectcategory>audiolevels</effectcategory>
									<effecttype>audiolevels</effecttype>
									<mediatype>audio</mediatype>
									<parameter authoringApp="PremierePro">
										<parameterid>level</parameterid>
										<name>Level</name>
										<valuemin>0</valuemin>
										<valuemax>3.98109</valuemax>
										<value>1.99526</value>
										<keyframe>
											<when>3790</when>
											<value>1.99526</value>
										</keyframe>
										<keyframe>
											<when>3792</when>
											<value>1.58864</value>
										</keyframe>
										<keyframe>
											<when>3793</when>
											<value>1.58864</value>
										</keyframe>
										<keyframe>
											<when>3794</when>
											<value>1.99526</value>
										</keyframe>
									</parameter>
								</effect>
							</filter>
							<filter>
								<effect>
									<name>Audio Pan</name>
									<effectid>audiopan</effectid>
									<effectcategory>audiopan</effectcategory>
									<effecttype>audiopan</effecttype>
									<mediatype>audio</mediatype>
									<parameter authoringApp="PremierePro">
										<parameterid>pan</parameterid>
										<name>Pan</name>
										<valuemin>-1</valuemin>
										<valuemax>1</valuemax>
										<value>0</value>
									</parameter>
								</effect>
							</filter>
						<link>
							<linkclipref>clipitem-77</linkclipref>
							<mediatype>video</mediatype>
							<trackindex>1</trackindex>
							<clipindex>83</clipindex>
						</link>
						<link>
							<linkclipref>clipitem-472</linkclipref>
							<mediatype>audio</mediatype>
							<trackindex>1</trackindex>
							<clipindex>79</clipindex>
							<groupindex>1</groupindex>
						</link>
						<link>
							<linkclipref>clipitem-535</linkclipref>
							<mediatype>audio</mediatype>
							<trackindex>2</trackindex>
							<clipindex>72</clipindex>
							<groupindex>1</groupindex>
						</link>
					</clipitem>
					<transitionitem>
						<start>42962</start>
						<end>42977</end>
						<alignment>center</alignment>
						<cutPoint>7</cutPoint>
						<rate>
							<timebase>25</timebase>
							<ntsc>FALSE</ntsc>
						</rate>
						<effect>
							<name>Cross Fade ( 0dB)</name>
							<effectid>KGAudioTransCrossFade0dB</effectid>
							<effecttype>transition</effecttype>
							<mediatype>audio</mediatype>
							<wipecode>0</wipecode>
							<wipeaccuracy>100</wipeaccuracy>
							<startratio>0</startratio>
							<endratio>1</endratio>
							<reverse>FALSE</reverse>
						</effect>
					</transitionitem>
					<clipitem id="clipitem-473" frameBlend="FALSE" PannerCurrentValue="0.5" PannerKeyframes="" PannerStartKeyframe="-91445760000000000,0.5,0,0,0,0,0,0" PannerIsInverted="true" PannerName="Pan">
						<masterclipid>masterclip-28</masterclipid>
						<name>MKTF-FILM-Buljo2-319.MXF</name>
						<enabled>TRUE</enabled>
						<duration>5664</duration>
						<rate>
							<ntsc>TRUE</ntsc>
							<timebase>30</timebase>
						</rate>
						<start>-1</start>
						<end>43221</end>
						<in>4378</in>
						<out>4637</out>
						<file id="file-28"/>
						<sourcetrack>
							<mediatype>audio</mediatype>
							<trackindex>1</trackindex>
						</sourcetrack>
							<filter>
								<effect>
									<name>Audio Levels</name>
									<effectid>audiolevels</effectid>
									<effectcategory>audiolevels</effectcategory>
									<effecttype>audiolevels</effecttype>
									<mediatype>audio</mediatype>
									<parameter authoringApp="PremierePro">
										<parameterid>level</parameterid>
										<name>Level</name>
										<valuemin>0</valuemin>
										<valuemax>3.98109</valuemax>
										<value>1.52828</value>
										<keyframe>
											<when>4491</when>
											<value>1.52828</value>
										</keyframe>
										<keyframe>
											<when>4521</when>
											<value>1.99526</value>
										</keyframe>
									</parameter>
								</effect>
							</filter>
							<filter>
								<effect>
									<name>Audio Pan</name>
									<effectid>audiopan</effectid>
									<effectcategory>audiopan</effectcategory>
									<effecttype>audiopan</effecttype>
									<mediatype>audio</mediatype>
									<parameter authoringApp="PremierePro">
										<parameterid>pan</parameterid>
										<name>Pan</name>
										<valuemin>-1</valuemin>
										<valuemax>1</valuemax>
										<value>0</value>
									</parameter>
								</effect>
							</filter>
					</clipitem>
					<enabled>TRUE</enabled>
					<locked>FALSE</locked>
					<outputchannelindex>1</outputchannelindex>
				</track>
				<track TL.SQTrackAudioKeyframeStyle="0" TL.SQTrackShy="0" TL.SQTrackExpandedHeight="25" TL.SQTrackExpanded="1" MZ.TrackTargeted="1" MZ.TrackName="Audio 2" PannerCurrentValue="0.5" PannerIsInverted="true" PannerStartKeyframe="-91445760000000000,0.5,0,0,0,0,0,0" PannerName="Balance" currentExplodedTrackIndex="0" totalExplodedTrackCount="1" premiereTrackType="Stereo">
					<transitionitem>
						<start>12045</start>
						<end>12056</end>
						<alignment>start-black</alignment>
						<cutPoint>0</cutPoint>
						<rate>
							<timebase>25</timebase>
							<ntsc>FALSE</ntsc>
						</rate>
						<effect>
							<name>Cross Fade (+3dB)</name>
							<effectid>KGAudioTransCrossFade3dB</effectid>
							<effecttype>transition</effecttype>
							<mediatype>audio</mediatype>
							<wipecode>0</wipecode>
							<wipeaccuracy>100</wipeaccuracy>
							<startratio>0</startratio>
							<endratio>1</endratio>
							<reverse>FALSE</reverse>
						</effect>
					</transitionitem>
					<clipitem id="clipitem-474" frameBlend="FALSE" PannerCurrentValue="0.5" PannerKeyframes="" PannerStartKeyframe="-91445760000000000,0.5,0,0,0,0,0,0" PannerIsInverted="true" PannerName="Pan">
						<masterclipid>masterclip-6</masterclipid>
						<name>mktf-film-munchen-A03.MXF</name>
						<enabled>TRUE</enabled>
						<duration>26784</duration>
						<rate>
							<ntsc>TRUE</ntsc>
							<timebase>30</timebase>
						</rate>
						<start>-1</start>
						<end>12193</end>
						<in>971</in>
						<out>1119</out>
						<file id="file-6"/>
						<sourcetrack>
							<mediatype>audio</mediatype>
							<trackindex>2</trackindex>
						</sourcetrack>
							<filter>
								<effect>
									<name>Gain</name>
									<effectid>{61756678, 4761696e, 4b657947}</effectid>
									<effecttype>filter</effecttype>
									<mediatype>audio</mediatype>
									<parameter authoringApp="PremierePro">
										<parameterid>Gain(dB)</parameterid>
										<name>Gain(dB)</name>
										<valuemin>-96</valuemin>
										<valuemax>96</valuemax>
										<value>-6</value>
									</parameter>
								</effect>
							</filter>
							<filter>
								<effect>
									<name>Audio Levels</name>
									<effectid>audiolevels</effectid>
									<effectcategory>audiolevels</effectcategory>
									<effecttype>audiolevels</effecttype>
									<mediatype>audio</mediatype>
									<parameter authoringApp="PremierePro">
										<parameterid>level</parameterid>
										<name>Level</name>
										<valuemin>0</valuemin>
										<valuemax>3.98109</valuemax>
										<value>0.99763</value>
										<keyframe>
											<when>1049</when>
											<value>0.99763</value>
										</keyframe>
										<keyframe>
											<when>1051</when>
											<value>0</value>
										</keyframe>
										<keyframe>
											<when>1105</when>
											<value>0</value>
										</keyframe>
										<keyframe>
											<when>1108</when>
											<value>0.99763</value>
										</keyframe>
									</parameter>
								</effect>
							</filter>
							<filter>
								<effect>
									<name>Audio Pan</name>
									<effectid>audiopan</effectid>
									<effectcategory>audiopan</effectcategory>
									<effecttype>audiopan</effecttype>
									<mediatype>audio</mediatype>
									<parameter authoringApp="PremierePro">
										<parameterid>pan</parameterid>
										<name>Pan</name>
										<valuemin>-1</valuemin>
										<valuemax>1</valuemax>
										<value>0</value>
									</parameter>
								</effect>
							</filter>
						<link>
							<linkclipref>clipitem-8</linkclipref>
							<mediatype>video</mediatype>
							<trackindex>1</trackindex>
							<clipindex>9</clipindex>
						</link>
						<link>
							<linkclipref>clipitem-406</linkclipref>
							<mediatype>audio</mediatype>
							<trackindex>1</trackindex>
							<clipindex>8</clipindex>
							<groupindex>1</groupindex>
						</link>
						<link>
							<linkclipref>clipitem-474</linkclipref>
							<mediatype>audio</mediatype>
							<trackindex>2</trackindex>
							<clipindex>2</clipindex>
							<groupindex>1</groupindex>
						</link>
					</clipitem>
					<clipitem id="clipitem-475" frameBlend="FALSE" PannerCurrentValue="0.5" PannerKeyframes="" PannerStartKeyframe="-91445760000000000,0.5,0,0,0,0,0,0" PannerIsInverted="true" PannerName="Pan">
						<masterclipid>masterclip-6</masterclipid>
						<name>mktf-film-munchen-A03.MXF</name>
						<enabled>TRUE</enabled>
						<duration>26784</duration>
						<rate>
							<ntsc>TRUE</ntsc>
							<timebase>30</timebase>
						</rate>
						<start>12193</start>
						<end>-1</end>
						<in>1119</in>
						<out>1161</out>
						<file id="file-6"/>
						<sourcetrack>
							<mediatype>audio</mediatype>
							<trackindex>2</trackindex>
						</sourcetrack>
							<filter>
								<effect>
									<name>Gain</name>
									<effectid>{61756678, 4761696e, 4b657947}</effectid>
									<effecttype>filter</effecttype>
									<mediatype>audio</mediatype>
									<parameter authoringApp="PremierePro">
										<parameterid>Gain(dB)</parameterid>
										<name>Gain(dB)</name>
										<valuemin>-96</valuemin>
										<valuemax>96</valuemax>
										<value>-6</value>
									</parameter>
								</effect>
							</filter>
							<filter>
								<effect>
									<name>Audio Levels</name>
									<effectid>audiolevels</effectid>
									<effectcategory>audiolevels</effectcategory>
									<effecttype>audiolevels</effecttype>
									<mediatype>audio</mediatype>
									<parameter authoringApp="PremierePro">
										<parameterid>level</parameterid>
										<name>Level</name>
										<valuemin>0</valuemin>
										<valuemax>3.98109</valuemax>
										<value>0.99763</value>
										<keyframe>
											<when>1049</when>
											<value>0.99763</value>
										</keyframe>
										<keyframe>
											<when>1051</when>
											<value>0</value>
										</keyframe>
										<keyframe>
											<when>1105</when>
											<value>0</value>
										</keyframe>
										<keyframe>
											<when>1108</when>
											<value>0.99763</value>
										</keyframe>
									</parameter>
								</effect>
							</filter>
							<filter>
								<effect>
									<name>Audio Pan</name>
									<effectid>audiopan</effectid>
									<effectcategory>audiopan</effectcategory>
									<effecttype>audiopan</effecttype>
									<mediatype>audio</mediatype>
									<parameter authoringApp="PremierePro">
										<parameterid>pan</parameterid>
										<name>Pan</name>
										<valuemin>-1</valuemin>
										<valuemax>1</valuemax>
										<value>0</value>
									</parameter>
								</effect>
							</filter>
						<link>
							<linkclipref>clipitem-407</linkclipref>
							<mediatype>audio</mediatype>
							<trackindex>1</trackindex>
							<clipindex>9</clipindex>
							<groupindex>1</groupindex>
						</link>
						<link>
							<linkclipref>clipitem-475</linkclipref>
							<mediatype>audio</mediatype>
							<trackindex>2</trackindex>
							<clipindex>3</clipindex>
							<groupindex>1</groupindex>
						</link>
					</clipitem>
					<transitionitem>
						<start>12233</start>
						<end>12235</end>
						<alignment>center</alignment>
						<cutPoint>1</cutPoint>
						<rate>
							<timebase>25</timebase>
							<ntsc>FALSE</ntsc>
						</rate>
						<effect>
							<name>Cross Fade (+3dB)</name>
							<effectid>KGAudioTransCrossFade3dB</effectid>
							<effecttype>transition</effecttype>
							<mediatype>audio</mediatype>
							<wipecode>0</wipecode>
							<wipeaccuracy>100</wipeaccuracy>
							<startratio>0</startratio>
							<endratio>1</endratio>
							<reverse>FALSE</reverse>
						</effect>
					</transitionitem>
					<clipitem id="clipitem-476" frameBlend="FALSE" PannerCurrentValue="0.5" PannerKeyframes="" PannerStartKeyframe="-91445760000000000,0.5,0,0,0,0,0,0" PannerIsInverted="true" PannerName="Pan">
						<masterclipid>masterclip-6</masterclipid>
						<name>mktf-film-munchen-A03.MXF</name>
						<enabled>TRUE</enabled>
						<duration>26784</duration>
						<rate>
							<ntsc>TRUE</ntsc>
							<timebase>30</timebase>
						</rate>
						<start>-1</start>
						<end>12279</end>
						<in>1194</in>
						<out>1240</out>
						<file id="file-6"/>
						<sourcetrack>
							<mediatype>audio</mediatype>
							<trackindex>2</trackindex>
						</sourcetrack>
							<filter>
								<effect>
									<name>Gain</name>
									<effectid>{61756678, 4761696e, 4b657947}</effectid>
									<effecttype>filter</effecttype>
									<mediatype>audio</mediatype>
									<parameter authoringApp="PremierePro">
										<parameterid>Gain(dB)</parameterid>
										<name>Gain(dB)</name>
										<valuemin>-96</valuemin>
										<valuemax>96</valuemax>
										<value>-6</value>
									</parameter>
								</effect>
							</filter>
							<filter>
								<effect>
									<name>Audio Pan</name>
									<effectid>audiopan</effectid>
									<effectcategory>audiopan</effectcategory>
									<effecttype>audiopan</effecttype>
									<mediatype>audio</mediatype>
									<parameter authoringApp="PremierePro">
										<parameterid>pan</parameterid>
										<name>Pan</name>
										<valuemin>-1</valuemin>
										<valuemax>1</valuemax>
										<value>0</value>
									</parameter>
								</effect>
							</filter>
						<link>
							<linkclipref>clipitem-9</linkclipref>
							<mediatype>video</mediatype>
							<trackindex>1</trackindex>
							<clipindex>10</clipindex>
						</link>
						<link>
							<linkclipref>clipitem-408</linkclipref>
							<mediatype>audio</mediatype>
							<trackindex>1</trackindex>
							<clipindex>11</clipindex>
							<groupindex>1</groupindex>
						</link>
						<link>
							<linkclipref>clipitem-476</linkclipref>
							<mediatype>audio</mediatype>
							<trackindex>2</trackindex>
							<clipindex>5</clipindex>
							<groupindex>1</groupindex>
						</link>
					</clipitem>
					<clipitem id="clipitem-477" frameBlend="FALSE" PannerCurrentValue="0.5" PannerKeyframes="" PannerStartKeyframe="-91445760000000000,0.5,0,0,0,0,0,0" PannerIsInverted="true" PannerName="Pan">
						<masterclipid>masterclip-6</masterclipid>
						<name>mktf-film-munchen-A03.MXF</name>
						<enabled>TRUE</enabled>
						<duration>26784</duration>
						<rate>
							<ntsc>TRUE</ntsc>
							<timebase>30</timebase>
						</rate>
						<start>15167</start>
						<end>15327</end>
						<in>2406</in>
						<out>2566</out>
						<file id="file-6"/>
						<sourcetrack>
							<mediatype>audio</mediatype>
							<trackindex>2</trackindex>
						</sourcetrack>
							<filter>
								<effect>
									<name>Gain</name>
									<effectid>{61756678, 4761696e, 4b657947}</effectid>
									<effecttype>filter</effecttype>
									<mediatype>audio</mediatype>
									<parameter authoringApp="PremierePro">
										<parameterid>Gain(dB)</parameterid>
										<name>Gain(dB)</name>
										<valuemin>-96</valuemin>
										<valuemax>96</valuemax>
										<value>-5</value>
									</parameter>
								</effect>
							</filter>
							<filter>
								<effect>
									<name>Audio Levels</name>
									<effectid>audiolevels</effectid>
									<effectcategory>audiolevels</effectcategory>
									<effecttype>audiolevels</effecttype>
									<mediatype>audio</mediatype>
									<parameter authoringApp="PremierePro">
										<parameterid>level</parameterid>
										<name>Level</name>
										<valuemin>0</valuemin>
										<valuemax>3.98109</valuemax>
										<value>0.99763</value>
										<keyframe>
											<when>2353</when>
											<value>0</value>
										</keyframe>
										<keyframe>
											<when>2357</when>
											<value>0.99763</value>
										</keyframe>
										<keyframe>
											<when>2364</when>
											<value>0.99763</value>
										</keyframe>
										<keyframe>
											<when>2366</when>
											<value>0</value>
										</keyframe>
										<keyframe>
											<when>2408</when>
											<value>0</value>
										</keyframe>
										<keyframe>
											<when>2411</when>
											<value>0.99763</value>
										</keyframe>
										<keyframe>
											<when>3382</when>
											<value>0.99763</value>
										</keyframe>
										<keyframe>
											<when>3395</when>
											<value>0</value>
										</keyframe>
									</parameter>
								</effect>
							</filter>
							<filter>
								<effect>
									<name>Audio Pan</name>
									<effectid>audiopan</effectid>
									<effectcategory>audiopan</effectcategory>
									<effecttype>audiopan</effecttype>
									<mediatype>audio</mediatype>
									<parameter authoringApp="PremierePro">
										<parameterid>pan</parameterid>
										<name>Pan</name>
										<valuemin>-1</valuemin>
										<valuemax>1</valuemax>
										<value>0</value>
									</parameter>
								</effect>
							</filter>
						<link>
							<linkclipref>clipitem-11</linkclipref>
							<mediatype>video</mediatype>
							<trackindex>1</trackindex>
							<clipindex>13</clipindex>
						</link>
						<link>
							<linkclipref>clipitem-409</linkclipref>
							<mediatype>audio</mediatype>
							<trackindex>1</trackindex>
							<clipindex>12</clipindex>
							<groupindex>1</groupindex>
						</link>
						<link>
							<linkclipref>clipitem-477</linkclipref>
							<mediatype>audio</mediatype>
							<trackindex>2</trackindex>
							<clipindex>6</clipindex>
							<groupindex>1</groupindex>
						</link>
					</clipitem>
					<clipitem id="clipitem-478" frameBlend="FALSE" PannerCurrentValue="0.5" PannerKeyframes="" PannerStartKeyframe="-91445760000000000,0.5,0,0,0,0,0,0" PannerIsInverted="true" PannerName="Pan">
						<masterclipid>masterclip-6</masterclipid>
						<name>mktf-film-munchen-A03.MXF</name>
						<enabled>TRUE</enabled>
						<duration>26784</duration>
						<rate>
							<ntsc>TRUE</ntsc>
							<timebase>30</timebase>
						</rate>
						<start>15327</start>
						<end>15414</end>
						<in>2566</in>
						<out>2653</out>
						<file id="file-6"/>
						<sourcetrack>
							<mediatype>audio</mediatype>
							<trackindex>2</trackindex>
						</sourcetrack>
							<filter>
								<effect>
									<name>Gain</name>
									<effectid>{61756678, 4761696e, 4b657947}</effectid>
									<effecttype>filter</effecttype>
									<mediatype>audio</mediatype>
									<parameter authoringApp="PremierePro">
										<parameterid>Gain(dB)</parameterid>
										<name>Gain(dB)</name>
										<valuemin>-96</valuemin>
										<valuemax>96</valuemax>
										<value>-5</value>
									</parameter>
								</effect>
							</filter>
							<filter>
								<effect>
									<name>Audio Levels</name>
									<effectid>audiolevels</effectid>
									<effectcategory>audiolevels</effectcategory>
									<effecttype>audiolevels</effecttype>
									<mediatype>audio</mediatype>
									<parameter authoringApp="PremierePro">
										<parameterid>level</parameterid>
										<name>Level</name>
										<valuemin>0</valuemin>
										<valuemax>3.98109</valuemax>
										<value>0.99763</value>
										<keyframe>
											<when>2353</when>
											<value>0</value>
										</keyframe>
										<keyframe>
											<when>2357</when>
											<value>0.99763</value>
										</keyframe>
										<keyframe>
											<when>2364</when>
											<value>0.99763</value>
										</keyframe>
										<keyframe>
											<when>2366</when>
											<value>0</value>
										</keyframe>
										<keyframe>
											<when>2408</when>
											<value>0</value>
										</keyframe>
										<keyframe>
											<when>2411</when>
											<value>0.99763</value>
										</keyframe>
										<keyframe>
											<when>3382</when>
											<value>0.99763</value>
										</keyframe>
										<keyframe>
											<when>3395</when>
											<value>0</value>
										</keyframe>
									</parameter>
								</effect>
							</filter>
							<filter>
								<effect>
									<name>Audio Pan</name>
									<effectid>audiopan</effectid>
									<effectcategory>audiopan</effectcategory>
									<effecttype>audiopan</effecttype>
									<mediatype>audio</mediatype>
									<parameter authoringApp="PremierePro">
										<parameterid>pan</parameterid>
										<name>Pan</name>
										<valuemin>-1</valuemin>
										<valuemax>1</valuemax>
										<value>0</value>
									</parameter>
								</effect>
							</filter>
						<link>
							<linkclipref>clipitem-410</linkclipref>
							<mediatype>audio</mediatype>
							<trackindex>1</trackindex>
							<clipindex>13</clipindex>
							<groupindex>1</groupindex>
						</link>
						<link>
							<linkclipref>clipitem-478</linkclipref>
							<mediatype>audio</mediatype>
							<trackindex>2</trackindex>
							<clipindex>7</clipindex>
							<groupindex>1</groupindex>
						</link>
					</clipitem>
					<clipitem id="clipitem-479" frameBlend="FALSE" PannerCurrentValue="0.5" PannerKeyframes="" PannerStartKeyframe="-91445760000000000,0.5,0,0,0,0,0,0" PannerIsInverted="true" PannerName="Pan">
						<masterclipid>masterclip-6</masterclipid>
						<name>mktf-film-munchen-A03.MXF</name>
						<enabled>TRUE</enabled>
						<duration>26784</duration>
						<rate>
							<ntsc>TRUE</ntsc>
							<timebase>30</timebase>
						</rate>
						<start>15414</start>
						<end>16147</end>
						<in>2653</in>
						<out>3386</out>
						<file id="file-6"/>
						<sourcetrack>
							<mediatype>audio</mediatype>
							<trackindex>2</trackindex>
						</sourcetrack>
							<filter>
								<effect>
									<name>Gain</name>
									<effectid>{61756678, 4761696e, 4b657947}</effectid>
									<effecttype>filter</effecttype>
									<mediatype>audio</mediatype>
									<parameter authoringApp="PremierePro">
										<parameterid>Gain(dB)</parameterid>
										<name>Gain(dB)</name>
										<valuemin>-96</valuemin>
										<valuemax>96</valuemax>
										<value>-5</value>
									</parameter>
								</effect>
							</filter>
							<filter>
								<effect>
									<name>Audio Levels</name>
									<effectid>audiolevels</effectid>
									<effectcategory>audiolevels</effectcategory>
									<effecttype>audiolevels</effecttype>
									<mediatype>audio</mediatype>
									<parameter authoringApp="PremierePro">
										<parameterid>level</parameterid>
										<name>Level</name>
										<valuemin>0</valuemin>
										<valuemax>3.98109</valuemax>
										<value>0.99763</value>
										<keyframe>
											<when>2353</when>
											<value>0</value>
										</keyframe>
										<keyframe>
											<when>2357</when>
											<value>0.99763</value>
										</keyframe>
										<keyframe>
											<when>2364</when>
											<value>0.99763</value>
										</keyframe>
										<keyframe>
											<when>2366</when>
											<value>0</value>
										</keyframe>
										<keyframe>
											<when>2408</when>
											<value>0</value>
										</keyframe>
										<keyframe>
											<when>2411</when>
											<value>0.99763</value>
										</keyframe>
										<keyframe>
											<when>3382</when>
											<value>0.99763</value>
										</keyframe>
										<keyframe>
											<when>3395</when>
											<value>0</value>
										</keyframe>
									</parameter>
								</effect>
							</filter>
							<filter>
								<effect>
									<name>Audio Pan</name>
									<effectid>audiopan</effectid>
									<effectcategory>audiopan</effectcategory>
									<effecttype>audiopan</effecttype>
									<mediatype>audio</mediatype>
									<parameter authoringApp="PremierePro">
										<parameterid>pan</parameterid>
										<name>Pan</name>
										<valuemin>-1</valuemin>
										<valuemax>1</valuemax>
										<value>0</value>
									</parameter>
								</effect>
							</filter>
						<link>
							<linkclipref>clipitem-411</linkclipref>
							<mediatype>audio</mediatype>
							<trackindex>1</trackindex>
							<clipindex>14</clipindex>
							<groupindex>1</groupindex>
						</link>
						<link>
							<linkclipref>clipitem-479</linkclipref>
							<mediatype>audio</mediatype>
							<trackindex>2</trackindex>
							<clipindex>8</clipindex>
							<groupindex>1</groupindex>
						</link>
					</clipitem>
					<clipitem id="clipitem-480" frameBlend="FALSE" PannerCurrentValue="0.5" PannerKeyframes="" PannerStartKeyframe="-91445760000000000,0.5,0,0,0,0,0,0" PannerIsInverted="true" PannerName="Pan">
						<masterclipid>masterclip-8</masterclipid>
						<name>mktf-film-munchen-A01.MXF</name>
						<enabled>TRUE</enabled>
						<duration>21900</duration>
						<rate>
							<ntsc>TRUE</ntsc>
							<timebase>30</timebase>
						</rate>
						<start>16784</start>
						<end>18393</end>
						<in>15492</in>
						<out>17101</out>
						<file id="file-8"/>
						<sourcetrack>
							<mediatype>audio</mediatype>
							<trackindex>2</trackindex>
						</sourcetrack>
							<filter>
								<effect>
									<name>Gain</name>
									<effectid>{61756678, 4761696e, 4b657947}</effectid>
									<effecttype>filter</effecttype>
									<mediatype>audio</mediatype>
									<parameter authoringApp="PremierePro">
										<parameterid>Gain(dB)</parameterid>
										<name>Gain(dB)</name>
										<valuemin>-96</valuemin>
										<valuemax>96</valuemax>
										<value>-7</value>
									</parameter>
								</effect>
							</filter>
							<filter>
								<effect>
									<name>Audio Levels</name>
									<effectid>audiolevels</effectid>
									<effectcategory>audiolevels</effectcategory>
									<effecttype>audiolevels</effecttype>
									<mediatype>audio</mediatype>
									<parameter authoringApp="PremierePro">
										<parameterid>level</parameterid>
										<name>Level</name>
										<valuemin>0</valuemin>
										<valuemax>3.98109</valuemax>
										<value>0</value>
										<keyframe>
											<when>4918</when>
											<value>0.262534</value>
										</keyframe>
										<keyframe>
											<when>4924</when>
											<value>0.99763</value>
										</keyframe>
										<keyframe>
											<when>15423</when>
											<value>0</value>
										</keyframe>
										<keyframe>
											<when>15425</when>
											<value>0.99763</value>
										</keyframe>
										<keyframe>
											<when>15492</when>
											<value>0</value>
										</keyframe>
										<keyframe>
											<when>15501</when>
											<value>0</value>
										</keyframe>
										<keyframe>
											<when>15612</when>
											<value>0</value>
										</keyframe>
										<keyframe>
											<when>15639</when>
											<value>0.99763</value>
										</keyframe>
										<keyframe>
											<when>16890</when>
											<value>0.99763</value>
										</keyframe>
										<keyframe>
											<when>16909</when>
											<value>0</value>
										</keyframe>
										<keyframe>
											<when>16927</when>
											<value>0</value>
										</keyframe>
										<keyframe>
											<when>16935</when>
											<value>0.99763</value>
										</keyframe>
										<keyframe>
											<when>17520</when>
											<value>0.99763</value>
										</keyframe>
										<keyframe>
											<when>17526</when>
											<value>0</value>
										</keyframe>
									</parameter>
								</effect>
							</filter>
							<filter>
								<effect>
									<name>Audio Pan</name>
									<effectid>audiopan</effectid>
									<effectcategory>audiopan</effectcategory>
									<effecttype>audiopan</effecttype>
									<mediatype>audio</mediatype>
									<parameter authoringApp="PremierePro">
										<parameterid>pan</parameterid>
										<name>Pan</name>
										<valuemin>-1</valuemin>
										<valuemax>1</valuemax>
										<value>0</value>
									</parameter>
								</effect>
							</filter>
						<link>
							<linkclipref>clipitem-412</linkclipref>
							<mediatype>audio</mediatype>
							<trackindex>1</trackindex>
							<clipindex>15</clipindex>
							<groupindex>1</groupindex>
						</link>
						<link>
							<linkclipref>clipitem-480</linkclipref>
							<mediatype>audio</mediatype>
							<trackindex>2</trackindex>
							<clipindex>9</clipindex>
							<groupindex>1</groupindex>
						</link>
					</clipitem>
					<clipitem id="clipitem-481" frameBlend="FALSE" PannerCurrentValue="0.5" PannerKeyframes="" PannerStartKeyframe="-91445760000000000,0.5,0,0,0,0,0,0" PannerIsInverted="true" PannerName="Pan">
						<masterclipid>masterclip-8</masterclipid>
						<name>mktf-film-munchen-A01.MXF</name>
						<enabled>TRUE</enabled>
						<duration>21900</duration>
						<rate>
							<ntsc>TRUE</ntsc>
							<timebase>30</timebase>
						</rate>
						<start>18393</start>
						<end>18538</end>
						<in>17388</in>
						<out>17533</out>
						<file id="file-8"/>
						<sourcetrack>
							<mediatype>audio</mediatype>
							<trackindex>2</trackindex>
						</sourcetrack>
							<filter>
								<effect>
									<name>Gain</name>
									<effectid>{61756678, 4761696e, 4b657947}</effectid>
									<effecttype>filter</effecttype>
									<mediatype>audio</mediatype>
									<parameter authoringApp="PremierePro">
										<parameterid>Gain(dB)</parameterid>
										<name>Gain(dB)</name>
										<valuemin>-96</valuemin>
										<valuemax>96</valuemax>
										<value>-7</value>
									</parameter>
								</effect>
							</filter>
							<filter>
								<effect>
									<name>Audio Levels</name>
									<effectid>audiolevels</effectid>
									<effectcategory>audiolevels</effectcategory>
									<effecttype>audiolevels</effecttype>
									<mediatype>audio</mediatype>
									<parameter authoringApp="PremierePro">
										<parameterid>level</parameterid>
										<name>Level</name>
										<valuemin>0</valuemin>
										<valuemax>3.98109</valuemax>
										<value>0.975288</value>
										<keyframe>
											<when>4918</when>
											<value>0.262534</value>
										</keyframe>
										<keyframe>
											<when>4924</when>
											<value>0.99763</value>
										</keyframe>
										<keyframe>
											<when>15423</when>
											<value>0</value>
										</keyframe>
										<keyframe>
											<when>15425</when>
											<value>0.99763</value>
										</keyframe>
										<keyframe>
											<when>15492</when>
											<value>0</value>
										</keyframe>
										<keyframe>
											<when>15501</when>
											<value>0</value>
										</keyframe>
										<keyframe>
											<when>15612</when>
											<value>0</value>
										</keyframe>
										<keyframe>
											<when>15639</when>
											<value>0.99763</value>
										</keyframe>
										<keyframe>
											<when>16890</when>
											<value>0.99763</value>
										</keyframe>
										<keyframe>
											<when>16909</when>
											<value>0</value>
										</keyframe>
										<keyframe>
											<when>16927</when>
											<value>0</value>
										</keyframe>
										<keyframe>
											<when>16935</when>
											<value>0.99763</value>
										</keyframe>
										<keyframe>
											<when>17520</when>
											<value>0.99763</value>
										</keyframe>
										<keyframe>
											<when>18064</when>
											<value>0</value>
										</keyframe>
										<keyframe>
											<when>18076</when>
											<value>0.97205</value>
										</keyframe>
									</parameter>
								</effect>
							</filter>
							<filter>
								<effect>
									<name>Audio Pan</name>
									<effectid>audiopan</effectid>
									<effectcategory>audiopan</effectcategory>
									<effecttype>audiopan</effecttype>
									<mediatype>audio</mediatype>
									<parameter authoringApp="PremierePro">
										<parameterid>pan</parameterid>
										<name>Pan</name>
										<valuemin>-1</valuemin>
										<valuemax>1</valuemax>
										<value>0</value>
									</parameter>
								</effect>
							</filter>
						<link>
							<linkclipref>clipitem-18</linkclipref>
							<mediatype>video</mediatype>
							<trackindex>1</trackindex>
							<clipindex>22</clipindex>
						</link>
						<link>
							<linkclipref>clipitem-413</linkclipref>
							<mediatype>audio</mediatype>
							<trackindex>1</trackindex>
							<clipindex>16</clipindex>
							<groupindex>1</groupindex>
						</link>
						<link>
							<linkclipref>clipitem-481</linkclipref>
							<mediatype>audio</mediatype>
							<trackindex>2</trackindex>
							<clipindex>10</clipindex>
							<groupindex>1</groupindex>
						</link>
					</clipitem>
					<clipitem id="clipitem-482" frameBlend="FALSE" PannerCurrentValue="0.5" PannerKeyframes="" PannerStartKeyframe="-91445760000000000,0.5,0,0,0,0,0,0" PannerIsInverted="true" PannerName="Pan">
						<masterclipid>masterclip-8</masterclipid>
						<name>mktf-film-munchen-A01.MXF</name>
						<enabled>TRUE</enabled>
						<duration>21900</duration>
						<rate>
							<ntsc>TRUE</ntsc>
							<timebase>30</timebase>
						</rate>
						<start>18538</start>
						<end>18737</end>
						<in>18407</in>
						<out>18606</out>
						<file id="file-8"/>
						<sourcetrack>
							<mediatype>audio</mediatype>
							<trackindex>2</trackindex>
						</sourcetrack>
							<filter>
								<effect>
									<name>Gain</name>
									<effectid>{61756678, 4761696e, 4b657947}</effectid>
									<effecttype>filter</effecttype>
									<mediatype>audio</mediatype>
									<parameter authoringApp="PremierePro">
										<parameterid>Gain(dB)</parameterid>
										<name>Gain(dB)</name>
										<valuemin>-96</valuemin>
										<valuemax>96</valuemax>
										<value>-7</value>
									</parameter>
								</effect>
							</filter>
							<filter>
								<effect>
									<name>Audio Levels</name>
									<effectid>audiolevels</effectid>
									<effectcategory>audiolevels</effectcategory>
									<effecttype>audiolevels</effecttype>
									<mediatype>audio</mediatype>
									<parameter authoringApp="PremierePro">
										<parameterid>level</parameterid>
										<name>Level</name>
										<valuemin>0</valuemin>
										<valuemax>3.98109</valuemax>
										<value>0.97205</value>
										<keyframe>
											<when>4918</when>
											<value>0.262534</value>
										</keyframe>
										<keyframe>
											<when>4924</when>
											<value>0.99763</value>
										</keyframe>
										<keyframe>
											<when>15423</when>
											<value>0</value>
										</keyframe>
										<keyframe>
											<when>15425</when>
											<value>0.99763</value>
										</keyframe>
										<keyframe>
											<when>15492</when>
											<value>0</value>
										</keyframe>
										<keyframe>
											<when>15501</when>
											<value>0</value>
										</keyframe>
										<keyframe>
											<when>15612</when>
											<value>0</value>
										</keyframe>
										<keyframe>
											<when>15639</when>
											<value>0.99763</value>
										</keyframe>
										<keyframe>
											<when>16890</when>
											<value>0.99763</value>
										</keyframe>
										<keyframe>
											<when>16909</when>
											<value>0</value>
										</keyframe>
										<keyframe>
											<when>16927</when>
											<value>0</value>
										</keyframe>
										<keyframe>
											<when>16935</when>
											<value>0.99763</value>
										</keyframe>
										<keyframe>
											<when>17520</when>
											<value>0.99763</value>
										</keyframe>
										<keyframe>
											<when>17526</when>
											<value>0</value>
										</keyframe>
										<keyframe>
											<when>18064</when>
											<value>0</value>
										</keyframe>
										<keyframe>
											<when>18076</when>
											<value>0.97205</value>
										</keyframe>
									</parameter>
								</effect>
							</filter>
							<filter>
								<effect>
									<name>Audio Pan</name>
									<effectid>audiopan</effectid>
									<effectcategory>audiopan</effectcategory>
									<effecttype>audiopan</effecttype>
									<mediatype>audio</mediatype>
									<parameter authoringApp="PremierePro">
										<parameterid>pan</parameterid>
										<name>Pan</name>
										<valuemin>-1</valuemin>
										<valuemax>1</valuemax>
										<value>0</value>
									</parameter>
								</effect>
							</filter>
						<link>
							<linkclipref>clipitem-19</linkclipref>
							<mediatype>video</mediatype>
							<trackindex>1</trackindex>
							<clipindex>23</clipindex>
						</link>
						<link>
							<linkclipref>clipitem-414</linkclipref>
							<mediatype>audio</mediatype>
							<trackindex>1</trackindex>
							<clipindex>17</clipindex>
							<groupindex>1</groupindex>
						</link>
						<link>
							<linkclipref>clipitem-482</linkclipref>
							<mediatype>audio</mediatype>
							<trackindex>2</trackindex>
							<clipindex>11</clipindex>
							<groupindex>1</groupindex>
						</link>
					</clipitem>
					<clipitem id="clipitem-483" frameBlend="FALSE" PannerCurrentValue="0.5" PannerKeyframes="" PannerStartKeyframe="-91445760000000000,0.5,0,0,0,0,0,0" PannerIsInverted="true" PannerName="Pan">
						<masterclipid>masterclip-8</masterclipid>
						<name>mktf-film-munchen-A01.MXF</name>
						<enabled>TRUE</enabled>
						<duration>21900</duration>
						<rate>
							<ntsc>TRUE</ntsc>
							<timebase>30</timebase>
						</rate>
						<start>18737</start>
						<end>18779</end>
						<in>18641</in>
						<out>18683</out>
						<file id="file-8"/>
						<sourcetrack>
							<mediatype>audio</mediatype>
							<trackindex>2</trackindex>
						</sourcetrack>
							<filter>
								<effect>
									<name>Gain</name>
									<effectid>{61756678, 4761696e, 4b657947}</effectid>
									<effecttype>filter</effecttype>
									<mediatype>audio</mediatype>
									<parameter authoringApp="PremierePro">
										<parameterid>Gain(dB)</parameterid>
										<name>Gain(dB)</name>
										<valuemin>-96</valuemin>
										<valuemax>96</valuemax>
										<value>-7</value>
									</parameter>
								</effect>
							</filter>
							<filter>
								<effect>
									<name>Audio Levels</name>
									<effectid>audiolevels</effectid>
									<effectcategory>audiolevels</effectcategory>
									<effecttype>audiolevels</effecttype>
									<mediatype>audio</mediatype>
									<parameter authoringApp="PremierePro">
										<parameterid>level</parameterid>
										<name>Level</name>
										<valuemin>0</valuemin>
										<valuemax>3.98109</valuemax>
										<value>0.97205</value>
										<keyframe>
											<when>4918</when>
											<value>0.262534</value>
										</keyframe>
										<keyframe>
											<when>4924</when>
											<value>0.99763</value>
										</keyframe>
										<keyframe>
											<when>15423</when>
											<value>0</value>
										</keyframe>
										<keyframe>
											<when>15425</when>
											<value>0.99763</value>
										</keyframe>
										<keyframe>
											<when>15492</when>
											<value>0</value>
										</keyframe>
										<keyframe>
											<when>15501</when>
											<value>0</value>
										</keyframe>
										<keyframe>
											<when>15612</when>
											<value>0</value>
										</keyframe>
										<keyframe>
											<when>15639</when>
											<value>0.99763</value>
										</keyframe>
										<keyframe>
											<when>16890</when>
											<value>0.99763</value>
										</keyframe>
										<keyframe>
											<when>16909</when>
											<value>0</value>
										</keyframe>
										<keyframe>
											<when>16927</when>
											<value>0</value>
										</keyframe>
										<keyframe>
											<when>16935</when>
											<value>0.99763</value>
										</keyframe>
										<keyframe>
											<when>17520</when>
											<value>0.99763</value>
										</keyframe>
										<keyframe>
											<when>17526</when>
											<value>0</value>
										</keyframe>
										<keyframe>
											<when>18064</when>
											<value>0</value>
										</keyframe>
										<keyframe>
											<when>18076</when>
											<value>0.97205</value>
										</keyframe>
									</parameter>
								</effect>
							</filter>
							<filter>
								<effect>
									<name>Audio Pan</name>
									<effectid>audiopan</effectid>
									<effectcategory>audiopan</effectcategory>
									<effecttype>audiopan</effecttype>
									<mediatype>audio</mediatype>
									<parameter authoringApp="PremierePro">
										<parameterid>pan</parameterid>
										<name>Pan</name>
										<valuemin>-1</valuemin>
										<valuemax>1</valuemax>
										<value>0</value>
									</parameter>
								</effect>
							</filter>
						<link>
							<linkclipref>clipitem-20</linkclipref>
							<mediatype>video</mediatype>
							<trackindex>1</trackindex>
							<clipindex>24</clipindex>
						</link>
						<link>
							<linkclipref>clipitem-415</linkclipref>
							<mediatype>audio</mediatype>
							<trackindex>1</trackindex>
							<clipindex>18</clipindex>
							<groupindex>1</groupindex>
						</link>
						<link>
							<linkclipref>clipitem-483</linkclipref>
							<mediatype>audio</mediatype>
							<trackindex>2</trackindex>
							<clipindex>12</clipindex>
							<groupindex>1</groupindex>
						</link>
					</clipitem>
					<clipitem id="clipitem-484" frameBlend="FALSE" PannerCurrentValue="0.5" PannerKeyframes="" PannerStartKeyframe="-91445760000000000,0.5,0,0,0,0,0,0" PannerIsInverted="true" PannerName="Pan">
						<masterclipid>masterclip-8</masterclipid>
						<name>mktf-film-munchen-A01.MXF</name>
						<enabled>TRUE</enabled>
						<duration>21900</duration>
						<rate>
							<ntsc>TRUE</ntsc>
							<timebase>30</timebase>
						</rate>
						<start>18779</start>
						<end>18831</end>
						<in>18781</in>
						<out>18833</out>
						<file id="file-8"/>
						<sourcetrack>
							<mediatype>audio</mediatype>
							<trackindex>2</trackindex>
						</sourcetrack>
							<filter>
								<effect>
									<name>Gain</name>
									<effectid>{61756678, 4761696e, 4b657947}</effectid>
									<effecttype>filter</effecttype>
									<mediatype>audio</mediatype>
									<parameter authoringApp="PremierePro">
										<parameterid>Gain(dB)</parameterid>
										<name>Gain(dB)</name>
										<valuemin>-96</valuemin>
										<valuemax>96</valuemax>
										<value>-7</value>
									</parameter>
								</effect>
							</filter>
							<filter>
								<effect>
									<name>Audio Levels</name>
									<effectid>audiolevels</effectid>
									<effectcategory>audiolevels</effectcategory>
									<effecttype>audiolevels</effecttype>
									<mediatype>audio</mediatype>
									<parameter authoringApp="PremierePro">
										<parameterid>level</parameterid>
										<name>Level</name>
										<valuemin>0</valuemin>
										<valuemax>3.98109</valuemax>
										<value>0.97205</value>
										<keyframe>
											<when>4918</when>
											<value>0.262534</value>
										</keyframe>
										<keyframe>
											<when>4924</when>
											<value>0.99763</value>
										</keyframe>
										<keyframe>
											<when>15423</when>
											<value>0</value>
										</keyframe>
										<keyframe>
											<when>15425</when>
											<value>0.99763</value>
										</keyframe>
										<keyframe>
											<when>15492</when>
											<value>0</value>
										</keyframe>
										<keyframe>
											<when>15501</when>
											<value>0</value>
										</keyframe>
										<keyframe>
											<when>15612</when>
											<value>0</value>
										</keyframe>
										<keyframe>
											<when>15639</when>
											<value>0.99763</value>
										</keyframe>
										<keyframe>
											<when>16890</when>
											<value>0.99763</value>
										</keyframe>
										<keyframe>
											<when>16909</when>
											<value>0</value>
										</keyframe>
										<keyframe>
											<when>16927</when>
											<value>0</value>
										</keyframe>
										<keyframe>
											<when>16935</when>
											<value>0.99763</value>
										</keyframe>
										<keyframe>
											<when>17520</when>
											<value>0.99763</value>
										</keyframe>
										<keyframe>
											<when>17526</when>
											<value>0</value>
										</keyframe>
										<keyframe>
											<when>18064</when>
											<value>0</value>
										</keyframe>
										<keyframe>
											<when>18076</when>
											<value>0.97205</value>
										</keyframe>
									</parameter>
								</effect>
							</filter>
							<filter>
								<effect>
									<name>Audio Pan</name>
									<effectid>audiopan</effectid>
									<effectcategory>audiopan</effectcategory>
									<effecttype>audiopan</effecttype>
									<mediatype>audio</mediatype>
									<parameter authoringApp="PremierePro">
										<parameterid>pan</parameterid>
										<name>Pan</name>
										<valuemin>-1</valuemin>
										<valuemax>1</valuemax>
										<value>0</value>
									</parameter>
								</effect>
							</filter>
						<link>
							<linkclipref>clipitem-21</linkclipref>
							<mediatype>video</mediatype>
							<trackindex>1</trackindex>
							<clipindex>25</clipindex>
						</link>
						<link>
							<linkclipref>clipitem-416</linkclipref>
							<mediatype>audio</mediatype>
							<trackindex>1</trackindex>
							<clipindex>19</clipindex>
							<groupindex>1</groupindex>
						</link>
						<link>
							<linkclipref>clipitem-484</linkclipref>
							<mediatype>audio</mediatype>
							<trackindex>2</trackindex>
							<clipindex>13</clipindex>
							<groupindex>1</groupindex>
						</link>
					</clipitem>
					<clipitem id="clipitem-485" frameBlend="FALSE" PannerCurrentValue="0.5" PannerKeyframes="" PannerStartKeyframe="-91445760000000000,0.5,0,0,0,0,0,0" PannerIsInverted="true" PannerName="Pan">
						<masterclipid>masterclip-8</masterclipid>
						<name>mktf-film-munchen-A01.MXF</name>
						<enabled>TRUE</enabled>
						<duration>21900</duration>
						<rate>
							<ntsc>TRUE</ntsc>
							<timebase>30</timebase>
						</rate>
						<start>18831</start>
						<end>19033</end>
						<in>18893</in>
						<out>19095</out>
						<file id="file-8"/>
						<sourcetrack>
							<mediatype>audio</mediatype>
							<trackindex>2</trackindex>
						</sourcetrack>
							<filter>
								<effect>
									<name>Gain</name>
									<effectid>{61756678, 4761696e, 4b657947}</effectid>
									<effecttype>filter</effecttype>
									<mediatype>audio</mediatype>
									<parameter authoringApp="PremierePro">
										<parameterid>Gain(dB)</parameterid>
										<name>Gain(dB)</name>
										<valuemin>-96</valuemin>
										<valuemax>96</valuemax>
										<value>-7</value>
									</parameter>
								</effect>
							</filter>
							<filter>
								<effect>
									<name>Audio Levels</name>
									<effectid>audiolevels</effectid>
									<effectcategory>audiolevels</effectcategory>
									<effecttype>audiolevels</effecttype>
									<mediatype>audio</mediatype>
									<parameter authoringApp="PremierePro">
										<parameterid>level</parameterid>
										<name>Level</name>
										<valuemin>0</valuemin>
										<valuemax>3.98109</valuemax>
										<value>0.97205</value>
										<keyframe>
											<when>4918</when>
											<value>0.262534</value>
										</keyframe>
										<keyframe>
											<when>4924</when>
											<value>0.99763</value>
										</keyframe>
										<keyframe>
											<when>15423</when>
											<value>0</value>
										</keyframe>
										<keyframe>
											<when>15425</when>
											<value>0.99763</value>
										</keyframe>
										<keyframe>
											<when>15492</when>
											<value>0</value>
										</keyframe>
										<keyframe>
											<when>15501</when>
											<value>0</value>
										</keyframe>
										<keyframe>
											<when>15612</when>
											<value>0</value>
										</keyframe>
										<keyframe>
											<when>15639</when>
											<value>0.99763</value>
										</keyframe>
										<keyframe>
											<when>16890</when>
											<value>0.99763</value>
										</keyframe>
										<keyframe>
											<when>16909</when>
											<value>0</value>
										</keyframe>
										<keyframe>
											<when>16927</when>
											<value>0</value>
										</keyframe>
										<keyframe>
											<when>16935</when>
											<value>0.99763</value>
										</keyframe>
										<keyframe>
											<when>17520</when>
											<value>0.99763</value>
										</keyframe>
										<keyframe>
											<when>17526</when>
											<value>0</value>
										</keyframe>
										<keyframe>
											<when>18064</when>
											<value>0</value>
										</keyframe>
										<keyframe>
											<when>18076</when>
											<value>0.97205</value>
										</keyframe>
									</parameter>
								</effect>
							</filter>
							<filter>
								<effect>
									<name>Audio Pan</name>
									<effectid>audiopan</effectid>
									<effectcategory>audiopan</effectcategory>
									<effecttype>audiopan</effecttype>
									<mediatype>audio</mediatype>
									<parameter authoringApp="PremierePro">
										<parameterid>pan</parameterid>
										<name>Pan</name>
										<valuemin>-1</valuemin>
										<valuemax>1</valuemax>
										<value>0</value>
									</parameter>
								</effect>
							</filter>
						<link>
							<linkclipref>clipitem-22</linkclipref>
							<mediatype>video</mediatype>
							<trackindex>1</trackindex>
							<clipindex>26</clipindex>
						</link>
						<link>
							<linkclipref>clipitem-417</linkclipref>
							<mediatype>audio</mediatype>
							<trackindex>1</trackindex>
							<clipindex>20</clipindex>
							<groupindex>1</groupindex>
						</link>
						<link>
							<linkclipref>clipitem-485</linkclipref>
							<mediatype>audio</mediatype>
							<trackindex>2</trackindex>
							<clipindex>14</clipindex>
							<groupindex>1</groupindex>
						</link>
					</clipitem>
					<clipitem id="clipitem-486" frameBlend="FALSE" PannerCurrentValue="0.5" PannerKeyframes="" PannerStartKeyframe="-91445760000000000,0.5,0,0,0,0,0,0" PannerIsInverted="true" PannerName="Pan">
						<masterclipid>masterclip-8</masterclipid>
						<name>mktf-film-munchen-A01.MXF</name>
						<enabled>TRUE</enabled>
						<duration>21900</duration>
						<rate>
							<ntsc>TRUE</ntsc>
							<timebase>30</timebase>
						</rate>
						<start>19033</start>
						<end>19235</end>
						<in>19119</in>
						<out>19321</out>
						<file id="file-8"/>
						<sourcetrack>
							<mediatype>audio</mediatype>
							<trackindex>2</trackindex>
						</sourcetrack>
							<filter>
								<effect>
									<name>Gain</name>
									<effectid>{61756678, 4761696e, 4b657947}</effectid>
									<effecttype>filter</effecttype>
									<mediatype>audio</mediatype>
									<parameter authoringApp="PremierePro">
										<parameterid>Gain(dB)</parameterid>
										<name>Gain(dB)</name>
										<valuemin>-96</valuemin>
										<valuemax>96</valuemax>
										<value>-7</value>
									</parameter>
								</effect>
							</filter>
							<filter>
								<effect>
									<name>Audio Levels</name>
									<effectid>audiolevels</effectid>
									<effectcategory>audiolevels</effectcategory>
									<effecttype>audiolevels</effecttype>
									<mediatype>audio</mediatype>
									<parameter authoringApp="PremierePro">
										<parameterid>level</parameterid>
										<name>Level</name>
										<valuemin>0</valuemin>
										<valuemax>3.98109</valuemax>
										<value>0.97205</value>
										<keyframe>
											<when>4918</when>
											<value>0.262534</value>
										</keyframe>
										<keyframe>
											<when>4924</when>
											<value>0.99763</value>
										</keyframe>
										<keyframe>
											<when>15423</when>
											<value>0</value>
										</keyframe>
										<keyframe>
											<when>15425</when>
											<value>0.99763</value>
										</keyframe>
										<keyframe>
											<when>15492</when>
											<value>0</value>
										</keyframe>
										<keyframe>
											<when>15501</when>
											<value>0</value>
										</keyframe>
										<keyframe>
											<when>15612</when>
											<value>0</value>
										</keyframe>
										<keyframe>
											<when>15639</when>
											<value>0.99763</value>
										</keyframe>
										<keyframe>
											<when>16890</when>
											<value>0.99763</value>
										</keyframe>
										<keyframe>
											<when>16909</when>
											<value>0</value>
										</keyframe>
										<keyframe>
											<when>16927</when>
											<value>0</value>
										</keyframe>
										<keyframe>
											<when>16935</when>
											<value>0.99763</value>
										</keyframe>
										<keyframe>
											<when>17520</when>
											<value>0.99763</value>
										</keyframe>
										<keyframe>
											<when>17526</when>
											<value>0</value>
										</keyframe>
										<keyframe>
											<when>18064</when>
											<value>0</value>
										</keyframe>
										<keyframe>
											<when>18076</when>
											<value>0.97205</value>
										</keyframe>
									</parameter>
								</effect>
							</filter>
							<filter>
								<effect>
									<name>Audio Pan</name>
									<effectid>audiopan</effectid>
									<effectcategory>audiopan</effectcategory>
									<effecttype>audiopan</effecttype>
									<mediatype>audio</mediatype>
									<parameter authoringApp="PremierePro">
										<parameterid>pan</parameterid>
										<name>Pan</name>
										<valuemin>-1</valuemin>
										<valuemax>1</valuemax>
										<value>0</value>
									</parameter>
								</effect>
							</filter>
						<link>
							<linkclipref>clipitem-23</linkclipref>
							<mediatype>video</mediatype>
							<trackindex>1</trackindex>
							<clipindex>27</clipindex>
						</link>
						<link>
							<linkclipref>clipitem-418</linkclipref>
							<mediatype>audio</mediatype>
							<trackindex>1</trackindex>
							<clipindex>21</clipindex>
							<groupindex>1</groupindex>
						</link>
						<link>
							<linkclipref>clipitem-486</linkclipref>
							<mediatype>audio</mediatype>
							<trackindex>2</trackindex>
							<clipindex>15</clipindex>
							<groupindex>1</groupindex>
						</link>
					</clipitem>
					<clipitem id="clipitem-487" frameBlend="FALSE" PannerCurrentValue="0.5" PannerKeyframes="" PannerStartKeyframe="-91445760000000000,0.5,0,0,0,0,0,0" PannerIsInverted="true" PannerName="Pan">
						<masterclipid>masterclip-6</masterclipid>
						<name>mktf-film-munchen-A03.MXF</name>
						<enabled>TRUE</enabled>
						<duration>26784</duration>
						<rate>
							<ntsc>TRUE</ntsc>
							<timebase>30</timebase>
						</rate>
						<start>19715</start>
						<end>19792</end>
						<in>16021</in>
						<out>16098</out>
						<file id="file-6"/>
						<sourcetrack>
							<mediatype>audio</mediatype>
							<trackindex>2</trackindex>
						</sourcetrack>
							<filter>
								<effect>
									<name>Audio Levels</name>
									<effectid>audiolevels</effectid>
									<effectcategory>audiolevels</effectcategory>
									<effecttype>audiolevels</effecttype>
									<mediatype>audio</mediatype>
									<parameter authoringApp="PremierePro">
										<parameterid>level</parameterid>
										<name>Level</name>
										<valuemin>0</valuemin>
										<valuemax>3.98109</valuemax>
										<value>0.142519</value>
									</parameter>
								</effect>
							</filter>
							<filter>
								<effect>
									<name>Audio Pan</name>
									<effectid>audiopan</effectid>
									<effectcategory>audiopan</effectcategory>
									<effecttype>audiopan</effecttype>
									<mediatype>audio</mediatype>
									<parameter authoringApp="PremierePro">
										<parameterid>pan</parameterid>
										<name>Pan</name>
										<valuemin>-1</valuemin>
										<valuemax>1</valuemax>
										<value>0</value>
									</parameter>
								</effect>
							</filter>
					</clipitem>
					<clipitem id="clipitem-488" frameBlend="FALSE" PannerCurrentValue="0.5" PannerKeyframes="" PannerStartKeyframe="-91445760000000000,0.5,0,0,0,0,0,0" PannerIsInverted="true" PannerName="Pan">
						<masterclipid>masterclip-6</masterclipid>
						<name>mktf-film-munchen-A03.MXF</name>
						<enabled>TRUE</enabled>
						<duration>26784</duration>
						<rate>
							<ntsc>TRUE</ntsc>
							<timebase>30</timebase>
						</rate>
						<start>19792</start>
						<end>19914</end>
						<in>16650</in>
						<out>16772</out>
						<file id="file-6"/>
						<sourcetrack>
							<mediatype>audio</mediatype>
							<trackindex>2</trackindex>
						</sourcetrack>
							<filter>
								<effect>
									<name>Gain</name>
									<effectid>{61756678, 4761696e, 4b657947}</effectid>
									<effecttype>filter</effecttype>
									<mediatype>audio</mediatype>
									<parameter authoringApp="PremierePro">
										<parameterid>Gain(dB)</parameterid>
										<name>Gain(dB)</name>
										<valuemin>-96</valuemin>
										<valuemax>96</valuemax>
										<value>-6</value>
									</parameter>
								</effect>
							</filter>
							<filter>
								<effect>
									<name>Audio Levels</name>
									<effectid>audiolevels</effectid>
									<effectcategory>audiolevels</effectcategory>
									<effecttype>audiolevels</effecttype>
									<mediatype>audio</mediatype>
									<parameter authoringApp="PremierePro">
										<parameterid>level</parameterid>
										<name>Level</name>
										<valuemin>0</valuemin>
										<valuemax>3.98109</valuemax>
										<value>0.99763</value>
										<keyframe>
											<when>16739</when>
											<value>0.99763</value>
										</keyframe>
										<keyframe>
											<when>16746</when>
											<value>0</value>
										</keyframe>
									</parameter>
								</effect>
							</filter>
							<filter>
								<effect>
									<name>Audio Pan</name>
									<effectid>audiopan</effectid>
									<effectcategory>audiopan</effectcategory>
									<effecttype>audiopan</effecttype>
									<mediatype>audio</mediatype>
									<parameter authoringApp="PremierePro">
										<parameterid>pan</parameterid>
										<name>Pan</name>
										<valuemin>-1</valuemin>
										<valuemax>1</valuemax>
										<value>0</value>
									</parameter>
								</effect>
							</filter>
					</clipitem>
					<clipitem id="clipitem-489" frameBlend="FALSE" PannerCurrentValue="0.5" PannerKeyframes="" PannerStartKeyframe="-91445760000000000,0.5,0,0,0,0,0,0" PannerIsInverted="true" PannerName="Pan">
						<masterclipid>masterclip-8</masterclipid>
						<name>mktf-film-munchen-A01.MXF</name>
						<enabled>TRUE</enabled>
						<duration>21900</duration>
						<rate>
							<ntsc>TRUE</ntsc>
							<timebase>30</timebase>
						</rate>
						<start>20250</start>
						<end>-1</end>
						<in>5282</in>
						<out>5912</out>
						<file id="file-8"/>
						<sourcetrack>
							<mediatype>audio</mediatype>
							<trackindex>2</trackindex>
						</sourcetrack>
							<filter>
								<effect>
									<name>Gain</name>
									<effectid>{61756678, 4761696e, 4b657947}</effectid>
									<effecttype>filter</effecttype>
									<mediatype>audio</mediatype>
									<parameter authoringApp="PremierePro">
										<parameterid>Gain(dB)</parameterid>
										<name>Gain(dB)</name>
										<valuemin>-96</valuemin>
										<valuemax>96</valuemax>
										<value>-6</value>
									</parameter>
								</effect>
							</filter>
							<filter>
								<effect>
									<name>Audio Levels</name>
									<effectid>audiolevels</effectid>
									<effectcategory>audiolevels</effectcategory>
									<effecttype>audiolevels</effecttype>
									<mediatype>audio</mediatype>
									<parameter authoringApp="PremierePro">
										<parameterid>level</parameterid>
										<name>Level</name>
										<valuemin>0</valuemin>
										<valuemax>3.98109</valuemax>
										<value>0.99763</value>
										<keyframe>
											<when>4918</when>
											<value>0</value>
										</keyframe>
										<keyframe>
											<when>4924</when>
											<value>0.99763</value>
										</keyframe>
									</parameter>
								</effect>
							</filter>
							<filter>
								<effect>
									<name>Audio Pan</name>
									<effectid>audiopan</effectid>
									<effectcategory>audiopan</effectcategory>
									<effecttype>audiopan</effecttype>
									<mediatype>audio</mediatype>
									<parameter authoringApp="PremierePro">
										<parameterid>pan</parameterid>
										<name>Pan</name>
										<valuemin>-1</valuemin>
										<valuemax>1</valuemax>
										<value>0</value>
									</parameter>
								</effect>
							</filter>
						<link>
							<linkclipref>clipitem-421</linkclipref>
							<mediatype>audio</mediatype>
							<trackindex>1</trackindex>
							<clipindex>25</clipindex>
							<groupindex>1</groupindex>
						</link>
						<link>
							<linkclipref>clipitem-489</linkclipref>
							<mediatype>audio</mediatype>
							<trackindex>2</trackindex>
							<clipindex>18</clipindex>
							<groupindex>1</groupindex>
						</link>
					</clipitem>
					<transitionitem>
						<start>20877</start>
						<end>20880</end>
						<alignment>center</alignment>
						<cutPoint>1</cutPoint>
						<rate>
							<timebase>25</timebase>
							<ntsc>FALSE</ntsc>
						</rate>
						<effect>
							<name>Cross Fade (+3dB)</name>
							<effectid>KGAudioTransCrossFade3dB</effectid>
							<effecttype>transition</effecttype>
							<mediatype>audio</mediatype>
							<wipecode>0</wipecode>
							<wipeaccuracy>100</wipeaccuracy>
							<startratio>0</startratio>
							<endratio>1</endratio>
							<reverse>FALSE</reverse>
						</effect>
					</transitionitem>
					<clipitem id="clipitem-490" frameBlend="FALSE" PannerCurrentValue="0.5" PannerKeyframes="" PannerStartKeyframe="-91445760000000000,0.5,0,0,0,0,0,0" PannerIsInverted="true" PannerName="Pan">
						<masterclipid>masterclip-8</masterclipid>
						<name>mktf-film-munchen-A01.MXF</name>
						<enabled>TRUE</enabled>
						<duration>21900</duration>
						<rate>
							<ntsc>TRUE</ntsc>
							<timebase>30</timebase>
						</rate>
						<start>-1</start>
						<end>20943</end>
						<in>5930</in>
						<out>5996</out>
						<file id="file-8"/>
						<sourcetrack>
							<mediatype>audio</mediatype>
							<trackindex>2</trackindex>
						</sourcetrack>
							<filter>
								<effect>
									<name>Gain</name>
									<effectid>{61756678, 4761696e, 4b657947}</effectid>
									<effecttype>filter</effecttype>
									<mediatype>audio</mediatype>
									<parameter authoringApp="PremierePro">
										<parameterid>Gain(dB)</parameterid>
										<name>Gain(dB)</name>
										<valuemin>-96</valuemin>
										<valuemax>96</valuemax>
										<value>-6</value>
									</parameter>
								</effect>
							</filter>
							<filter>
								<effect>
									<name>Audio Levels</name>
									<effectid>audiolevels</effectid>
									<effectcategory>audiolevels</effectcategory>
									<effecttype>audiolevels</effecttype>
									<mediatype>audio</mediatype>
									<parameter authoringApp="PremierePro">
										<parameterid>level</parameterid>
										<name>Level</name>
										<valuemin>0</valuemin>
										<valuemax>3.98109</valuemax>
										<value>0.99763</value>
										<keyframe>
											<when>4918</when>
											<value>0</value>
										</keyframe>
										<keyframe>
											<when>4924</when>
											<value>0.99763</value>
										</keyframe>
									</parameter>
								</effect>
							</filter>
							<filter>
								<effect>
									<name>Audio Pan</name>
									<effectid>audiopan</effectid>
									<effectcategory>audiopan</effectcategory>
									<effecttype>audiopan</effecttype>
									<mediatype>audio</mediatype>
									<parameter authoringApp="PremierePro">
										<parameterid>pan</parameterid>
										<name>Pan</name>
										<valuemin>-1</valuemin>
										<valuemax>1</valuemax>
										<value>0</value>
									</parameter>
								</effect>
							</filter>
					</clipitem>
					<clipitem id="clipitem-491" frameBlend="FALSE" PannerCurrentValue="0.5" PannerKeyframes="" PannerStartKeyframe="-91445760000000000,0.5,0,0,0,0,0,0" PannerIsInverted="true" PannerName="Pan">
						<masterclipid>masterclip-8</masterclipid>
						<name>mktf-film-munchen-A01.MXF</name>
						<enabled>TRUE</enabled>
						<duration>21900</duration>
						<rate>
							<ntsc>TRUE</ntsc>
							<timebase>30</timebase>
						</rate>
						<start>20943</start>
						<end>21085</end>
						<in>6018</in>
						<out>6160</out>
						<file id="file-8"/>
						<sourcetrack>
							<mediatype>audio</mediatype>
							<trackindex>2</trackindex>
						</sourcetrack>
							<filter>
								<effect>
									<name>Gain</name>
									<effectid>{61756678, 4761696e, 4b657947}</effectid>
									<effecttype>filter</effecttype>
									<mediatype>audio</mediatype>
									<parameter authoringApp="PremierePro">
										<parameterid>Gain(dB)</parameterid>
										<name>Gain(dB)</name>
										<valuemin>-96</valuemin>
										<valuemax>96</valuemax>
										<value>-6</value>
									</parameter>
								</effect>
							</filter>
							<filter>
								<effect>
									<name>Audio Levels</name>
									<effectid>audiolevels</effectid>
									<effectcategory>audiolevels</effectcategory>
									<effecttype>audiolevels</effecttype>
									<mediatype>audio</mediatype>
									<parameter authoringApp="PremierePro">
										<parameterid>level</parameterid>
										<name>Level</name>
										<valuemin>0</valuemin>
										<valuemax>3.98109</valuemax>
										<value>0.99763</value>
										<keyframe>
											<when>4918</when>
											<value>0</value>
										</keyframe>
										<keyframe>
											<when>4924</when>
											<value>0.99763</value>
										</keyframe>
									</parameter>
								</effect>
							</filter>
							<filter>
								<effect>
									<name>Audio Pan</name>
									<effectid>audiopan</effectid>
									<effectcategory>audiopan</effectcategory>
									<effecttype>audiopan</effecttype>
									<mediatype>audio</mediatype>
									<parameter authoringApp="PremierePro">
										<parameterid>pan</parameterid>
										<name>Pan</name>
										<valuemin>-1</valuemin>
										<valuemax>1</valuemax>
										<value>0</value>
									</parameter>
								</effect>
							</filter>
					</clipitem>
					<clipitem id="clipitem-492" frameBlend="FALSE" PannerCurrentValue="0.5" PannerKeyframes="" PannerStartKeyframe="-91445760000000000,0.5,0,0,0,0,0,0" PannerIsInverted="true" PannerName="Pan">
						<masterclipid>masterclip-8</masterclipid>
						<name>mktf-film-munchen-A01.MXF</name>
						<enabled>TRUE</enabled>
						<duration>21900</duration>
						<rate>
							<ntsc>TRUE</ntsc>
							<timebase>30</timebase>
						</rate>
						<start>21085</start>
						<end>21128</end>
						<in>6417</in>
						<out>6460</out>
						<file id="file-8"/>
						<sourcetrack>
							<mediatype>audio</mediatype>
							<trackindex>2</trackindex>
						</sourcetrack>
							<filter>
								<effect>
									<name>Gain</name>
									<effectid>{61756678, 4761696e, 4b657947}</effectid>
									<effecttype>filter</effecttype>
									<mediatype>audio</mediatype>
									<parameter authoringApp="PremierePro">
										<parameterid>Gain(dB)</parameterid>
										<name>Gain(dB)</name>
										<valuemin>-96</valuemin>
										<valuemax>96</valuemax>
										<value>-6</value>
									</parameter>
								</effect>
							</filter>
							<filter>
								<effect>
									<name>Audio Levels</name>
									<effectid>audiolevels</effectid>
									<effectcategory>audiolevels</effectcategory>
									<effecttype>audiolevels</effecttype>
									<mediatype>audio</mediatype>
									<parameter authoringApp="PremierePro">
										<parameterid>level</parameterid>
										<name>Level</name>
										<valuemin>0</valuemin>
										<valuemax>3.98109</valuemax>
										<value>0.99763</value>
										<keyframe>
											<when>4918</when>
											<value>0</value>
										</keyframe>
										<keyframe>
											<when>4924</when>
											<value>0.99763</value>
										</keyframe>
									</parameter>
								</effect>
							</filter>
							<filter>
								<effect>
									<name>Audio Pan</name>
									<effectid>audiopan</effectid>
									<effectcategory>audiopan</effectcategory>
									<effecttype>audiopan</effecttype>
									<mediatype>audio</mediatype>
									<parameter authoringApp="PremierePro">
										<parameterid>pan</parameterid>
										<name>Pan</name>
										<valuemin>-1</valuemin>
										<valuemax>1</valuemax>
										<value>0</value>
									</parameter>
								</effect>
							</filter>
						<link>
							<linkclipref>clipitem-424</linkclipref>
							<mediatype>audio</mediatype>
							<trackindex>1</trackindex>
							<clipindex>28</clipindex>
							<groupindex>1</groupindex>
						</link>
						<link>
							<linkclipref>clipitem-492</linkclipref>
							<mediatype>audio</mediatype>
							<trackindex>2</trackindex>
							<clipindex>22</clipindex>
							<groupindex>1</groupindex>
						</link>
					</clipitem>
					<clipitem id="clipitem-493" frameBlend="FALSE" PannerCurrentValue="0.5" PannerKeyframes="" PannerStartKeyframe="-91445760000000000,0.5,0,0,0,0,0,0" PannerIsInverted="true" PannerName="Pan">
						<masterclipid>masterclip-8</masterclipid>
						<name>mktf-film-munchen-A01.MXF</name>
						<enabled>TRUE</enabled>
						<duration>21900</duration>
						<rate>
							<ntsc>TRUE</ntsc>
							<timebase>30</timebase>
						</rate>
						<start>21128</start>
						<end>-1</end>
						<in>6478</in>
						<out>6526</out>
						<file id="file-8"/>
						<sourcetrack>
							<mediatype>audio</mediatype>
							<trackindex>2</trackindex>
						</sourcetrack>
							<filter>
								<effect>
									<name>Gain</name>
									<effectid>{61756678, 4761696e, 4b657947}</effectid>
									<effecttype>filter</effecttype>
									<mediatype>audio</mediatype>
									<parameter authoringApp="PremierePro">
										<parameterid>Gain(dB)</parameterid>
										<name>Gain(dB)</name>
										<valuemin>-96</valuemin>
										<valuemax>96</valuemax>
										<value>-6</value>
									</parameter>
								</effect>
							</filter>
							<filter>
								<effect>
									<name>Audio Levels</name>
									<effectid>audiolevels</effectid>
									<effectcategory>audiolevels</effectcategory>
									<effecttype>audiolevels</effecttype>
									<mediatype>audio</mediatype>
									<parameter authoringApp="PremierePro">
										<parameterid>level</parameterid>
										<name>Level</name>
										<valuemin>0</valuemin>
										<valuemax>3.98109</valuemax>
										<value>0.99763</value>
										<keyframe>
											<when>4918</when>
											<value>0</value>
										</keyframe>
										<keyframe>
											<when>4924</when>
											<value>0.99763</value>
										</keyframe>
									</parameter>
								</effect>
							</filter>
							<filter>
								<effect>
									<name>Audio Pan</name>
									<effectid>audiopan</effectid>
									<effectcategory>audiopan</effectcategory>
									<effecttype>audiopan</effecttype>
									<mediatype>audio</mediatype>
									<parameter authoringApp="PremierePro">
										<parameterid>pan</parameterid>
										<name>Pan</name>
										<valuemin>-1</valuemin>
										<valuemax>1</valuemax>
										<value>0</value>
									</parameter>
								</effect>
							</filter>
						<link>
							<linkclipref>clipitem-425</linkclipref>
							<mediatype>audio</mediatype>
							<trackindex>1</trackindex>
							<clipindex>29</clipindex>
							<groupindex>1</groupindex>
						</link>
						<link>
							<linkclipref>clipitem-493</linkclipref>
							<mediatype>audio</mediatype>
							<trackindex>2</trackindex>
							<clipindex>23</clipindex>
							<groupindex>1</groupindex>
						</link>
					</clipitem>
					<transitionitem>
						<start>21174</start>
						<end>21176</end>
						<alignment>end</alignment>
						<cutPoint>2</cutPoint>
						<rate>
							<timebase>25</timebase>
							<ntsc>FALSE</ntsc>
						</rate>
						<effect>
							<name>Cross Fade (+3dB)</name>
							<effectid>KGAudioTransCrossFade3dB</effectid>
							<effecttype>transition</effecttype>
							<mediatype>audio</mediatype>
							<wipecode>0</wipecode>
							<wipeaccuracy>100</wipeaccuracy>
							<startratio>0</startratio>
							<endratio>1</endratio>
							<reverse>FALSE</reverse>
						</effect>
					</transitionitem>
					<clipitem id="clipitem-494" frameBlend="FALSE" PannerCurrentValue="0.5" PannerKeyframes="" PannerStartKeyframe="-91445760000000000,0.5,0,0,0,0,0,0" PannerIsInverted="true" PannerName="Pan">
						<masterclipid>masterclip-8</masterclipid>
						<name>mktf-film-munchen-A01.MXF</name>
						<enabled>TRUE</enabled>
						<duration>21900</duration>
						<rate>
							<ntsc>TRUE</ntsc>
							<timebase>30</timebase>
						</rate>
						<start>-1</start>
						<end>-1</end>
						<in>6648</in>
						<out>6925</out>
						<file id="file-8"/>
						<sourcetrack>
							<mediatype>audio</mediatype>
							<trackindex>2</trackindex>
						</sourcetrack>
							<filter>
								<effect>
									<name>Gain</name>
									<effectid>{61756678, 4761696e, 4b657947}</effectid>
									<effecttype>filter</effecttype>
									<mediatype>audio</mediatype>
									<parameter authoringApp="PremierePro">
										<parameterid>Gain(dB)</parameterid>
										<name>Gain(dB)</name>
										<valuemin>-96</valuemin>
										<valuemax>96</valuemax>
										<value>-6</value>
									</parameter>
								</effect>
							</filter>
							<filter>
								<effect>
									<name>Audio Levels</name>
									<effectid>audiolevels</effectid>
									<effectcategory>audiolevels</effectcategory>
									<effecttype>audiolevels</effecttype>
									<mediatype>audio</mediatype>
									<parameter authoringApp="PremierePro">
										<parameterid>level</parameterid>
										<name>Level</name>
										<valuemin>0</valuemin>
										<valuemax>3.98109</valuemax>
										<value>0.99763</value>
										<keyframe>
											<when>4918</when>
											<value>0</value>
										</keyframe>
										<keyframe>
											<when>4924</when>
											<value>0.99763</value>
										</keyframe>
									</parameter>
								</effect>
							</filter>
							<filter>
								<effect>
									<name>Audio Pan</name>
									<effectid>audiopan</effectid>
									<effectcategory>audiopan</effectcategory>
									<effecttype>audiopan</effecttype>
									<mediatype>audio</mediatype>
									<parameter authoringApp="PremierePro">
										<parameterid>pan</parameterid>
										<name>Pan</name>
										<valuemin>-1</valuemin>
										<valuemax>1</valuemax>
										<value>0</value>
									</parameter>
								</effect>
							</filter>
						<link>
							<linkclipref>clipitem-426</linkclipref>
							<mediatype>audio</mediatype>
							<trackindex>1</trackindex>
							<clipindex>30</clipindex>
							<groupindex>1</groupindex>
						</link>
						<link>
							<linkclipref>clipitem-494</linkclipref>
							<mediatype>audio</mediatype>
							<trackindex>2</trackindex>
							<clipindex>25</clipindex>
							<groupindex>1</groupindex>
						</link>
					</clipitem>
					<transitionitem>
						<start>21448</start>
						<end>21451</end>
						<alignment>center</alignment>
						<cutPoint>1</cutPoint>
						<rate>
							<timebase>25</timebase>
							<ntsc>FALSE</ntsc>
						</rate>
						<effect>
							<name>Cross Fade (+3dB)</name>
							<effectid>KGAudioTransCrossFade3dB</effectid>
							<effecttype>transition</effecttype>
							<mediatype>audio</mediatype>
							<wipecode>0</wipecode>
							<wipeaccuracy>100</wipeaccuracy>
							<startratio>0</startratio>
							<endratio>1</endratio>
							<reverse>FALSE</reverse>
						</effect>
					</transitionitem>
					<clipitem id="clipitem-495" frameBlend="FALSE" PannerCurrentValue="0.5" PannerKeyframes="" PannerStartKeyframe="-91445760000000000,0.5,0,0,0,0,0,0" PannerIsInverted="true" PannerName="Pan">
						<masterclipid>masterclip-8</masterclipid>
						<name>mktf-film-munchen-A01.MXF</name>
						<enabled>TRUE</enabled>
						<duration>21900</duration>
						<rate>
							<ntsc>TRUE</ntsc>
							<timebase>30</timebase>
						</rate>
						<start>-1</start>
						<end>21942</end>
						<in>6935</in>
						<out>7429</out>
						<file id="file-8"/>
						<sourcetrack>
							<mediatype>audio</mediatype>
							<trackindex>2</trackindex>
						</sourcetrack>
							<filter>
								<effect>
									<name>Gain</name>
									<effectid>{61756678, 4761696e, 4b657947}</effectid>
									<effecttype>filter</effecttype>
									<mediatype>audio</mediatype>
									<parameter authoringApp="PremierePro">
										<parameterid>Gain(dB)</parameterid>
										<name>Gain(dB)</name>
										<valuemin>-96</valuemin>
										<valuemax>96</valuemax>
										<value>-6</value>
									</parameter>
								</effect>
							</filter>
							<filter>
								<effect>
									<name>Audio Levels</name>
									<effectid>audiolevels</effectid>
									<effectcategory>audiolevels</effectcategory>
									<effecttype>audiolevels</effecttype>
									<mediatype>audio</mediatype>
									<parameter authoringApp="PremierePro">
										<parameterid>level</parameterid>
										<name>Level</name>
										<valuemin>0</valuemin>
										<valuemax>3.98109</valuemax>
										<value>0.99763</value>
										<keyframe>
											<when>4918</when>
											<value>0</value>
										</keyframe>
										<keyframe>
											<when>4924</when>
											<value>0.99763</value>
										</keyframe>
									</parameter>
								</effect>
							</filter>
							<filter>
								<effect>
									<name>Audio Pan</name>
									<effectid>audiopan</effectid>
									<effectcategory>audiopan</effectcategory>
									<effecttype>audiopan</effecttype>
									<mediatype>audio</mediatype>
									<parameter authoringApp="PremierePro">
										<parameterid>pan</parameterid>
										<name>Pan</name>
										<valuemin>-1</valuemin>
										<valuemax>1</valuemax>
										<value>0</value>
									</parameter>
								</effect>
							</filter>
						<link>
							<linkclipref>clipitem-427</linkclipref>
							<mediatype>audio</mediatype>
							<trackindex>1</trackindex>
							<clipindex>31</clipindex>
							<groupindex>1</groupindex>
						</link>
						<link>
							<linkclipref>clipitem-495</linkclipref>
							<mediatype>audio</mediatype>
							<trackindex>2</trackindex>
							<clipindex>27</clipindex>
							<groupindex>1</groupindex>
						</link>
					</clipitem>
					<clipitem id="clipitem-496" frameBlend="FALSE" PannerCurrentValue="0.5" PannerKeyframes="" PannerStartKeyframe="-91445760000000000,0.5,0,0,0,0,0,0" PannerIsInverted="true" PannerName="Pan">
						<masterclipid>masterclip-6</masterclipid>
						<name>mktf-film-munchen-A03.MXF</name>
						<enabled>TRUE</enabled>
						<duration>26784</duration>
						<rate>
							<ntsc>TRUE</ntsc>
							<timebase>30</timebase>
						</rate>
						<start>21942</start>
						<end>22028</end>
						<in>6043</in>
						<out>6129</out>
						<file id="file-6"/>
						<sourcetrack>
							<mediatype>audio</mediatype>
							<trackindex>2</trackindex>
						</sourcetrack>
							<filter>
								<effect>
									<name>Gain</name>
									<effectid>{61756678, 4761696e, 4b657947}</effectid>
									<effecttype>filter</effecttype>
									<mediatype>audio</mediatype>
									<parameter authoringApp="PremierePro">
										<parameterid>Gain(dB)</parameterid>
										<name>Gain(dB)</name>
										<valuemin>-96</valuemin>
										<valuemax>96</valuemax>
										<value>-6</value>
									</parameter>
								</effect>
							</filter>
							<filter>
								<effect>
									<name>Audio Levels</name>
									<effectid>audiolevels</effectid>
									<effectcategory>audiolevels</effectcategory>
									<effecttype>audiolevels</effecttype>
									<mediatype>audio</mediatype>
									<parameter authoringApp="PremierePro">
										<parameterid>level</parameterid>
										<name>Level</name>
										<valuemin>0</valuemin>
										<valuemax>3.98109</valuemax>
										<value>0</value>
										<keyframe>
											<when>6029</when>
											<value>0</value>
										</keyframe>
										<keyframe>
											<when>6042</when>
											<value>0</value>
										</keyframe>
										<keyframe>
											<when>6045</when>
											<value>0</value>
										</keyframe>
									</parameter>
								</effect>
							</filter>
							<filter>
								<effect>
									<name>Audio Pan</name>
									<effectid>audiopan</effectid>
									<effectcategory>audiopan</effectcategory>
									<effecttype>audiopan</effecttype>
									<mediatype>audio</mediatype>
									<parameter authoringApp="PremierePro">
										<parameterid>pan</parameterid>
										<name>Pan</name>
										<valuemin>-1</valuemin>
										<valuemax>1</valuemax>
										<value>0</value>
									</parameter>
								</effect>
							</filter>
					</clipitem>
					<clipitem id="clipitem-497" frameBlend="FALSE" PannerCurrentValue="0.5" PannerKeyframes="" PannerStartKeyframe="-91445760000000000,0.5,0,0,0,0,0,0" PannerIsInverted="true" PannerName="Pan">
						<masterclipid>masterclip-6</masterclipid>
						<name>mktf-film-munchen-A03.MXF</name>
						<enabled>TRUE</enabled>
						<duration>26784</duration>
						<rate>
							<ntsc>TRUE</ntsc>
							<timebase>30</timebase>
						</rate>
						<start>22028</start>
						<end>22033</end>
						<in>6129</in>
						<out>6134</out>
						<file id="file-6"/>
						<sourcetrack>
							<mediatype>audio</mediatype>
							<trackindex>2</trackindex>
						</sourcetrack>
							<filter>
								<effect>
									<name>Gain</name>
									<effectid>{61756678, 4761696e, 4b657947}</effectid>
									<effecttype>filter</effecttype>
									<mediatype>audio</mediatype>
									<parameter authoringApp="PremierePro">
										<parameterid>Gain(dB)</parameterid>
										<name>Gain(dB)</name>
										<valuemin>-96</valuemin>
										<valuemax>96</valuemax>
										<value>-6</value>
									</parameter>
								</effect>
							</filter>
							<filter>
								<effect>
									<name>Audio Levels</name>
									<effectid>audiolevels</effectid>
									<effectcategory>audiolevels</effectcategory>
									<effecttype>audiolevels</effecttype>
									<mediatype>audio</mediatype>
									<parameter authoringApp="PremierePro">
										<parameterid>level</parameterid>
										<name>Level</name>
										<valuemin>0</valuemin>
										<valuemax>3.98109</valuemax>
										<value>0</value>
										<keyframe>
											<when>6029</when>
											<value>0</value>
										</keyframe>
										<keyframe>
											<when>6042</when>
											<value>0</value>
										</keyframe>
										<keyframe>
											<when>6045</when>
											<value>0</value>
										</keyframe>
									</parameter>
								</effect>
							</filter>
							<filter>
								<effect>
									<name>Audio Pan</name>
									<effectid>audiopan</effectid>
									<effectcategory>audiopan</effectcategory>
									<effecttype>audiopan</effecttype>
									<mediatype>audio</mediatype>
									<parameter authoringApp="PremierePro">
										<parameterid>pan</parameterid>
										<name>Pan</name>
										<valuemin>-1</valuemin>
										<valuemax>1</valuemax>
										<value>0</value>
									</parameter>
								</effect>
							</filter>
						<link>
							<linkclipref>clipitem-33</linkclipref>
							<mediatype>video</mediatype>
							<trackindex>1</trackindex>
							<clipindex>37</clipindex>
						</link>
						<link>
							<linkclipref>clipitem-429</linkclipref>
							<mediatype>audio</mediatype>
							<trackindex>1</trackindex>
							<clipindex>33</clipindex>
							<groupindex>1</groupindex>
						</link>
						<link>
							<linkclipref>clipitem-497</linkclipref>
							<mediatype>audio</mediatype>
							<trackindex>2</trackindex>
							<clipindex>29</clipindex>
							<groupindex>1</groupindex>
						</link>
					</clipitem>
					<clipitem id="clipitem-498" frameBlend="FALSE" PannerCurrentValue="0.5" PannerKeyframes="" PannerStartKeyframe="-91445760000000000,0.5,0,0,0,0,0,0" PannerIsInverted="true" PannerName="Pan">
						<masterclipid>masterclip-6</masterclipid>
						<name>mktf-film-munchen-A03.MXF</name>
						<enabled>TRUE</enabled>
						<duration>26784</duration>
						<rate>
							<ntsc>TRUE</ntsc>
							<timebase>30</timebase>
						</rate>
						<start>22033</start>
						<end>22418</end>
						<in>6143</in>
						<out>6528</out>
						<file id="file-6"/>
						<sourcetrack>
							<mediatype>audio</mediatype>
							<trackindex>2</trackindex>
						</sourcetrack>
							<filter>
								<effect>
									<name>Gain</name>
									<effectid>{61756678, 4761696e, 4b657947}</effectid>
									<effecttype>filter</effecttype>
									<mediatype>audio</mediatype>
									<parameter authoringApp="PremierePro">
										<parameterid>Gain(dB)</parameterid>
										<name>Gain(dB)</name>
										<valuemin>-96</valuemin>
										<valuemax>96</valuemax>
										<value>-6</value>
									</parameter>
								</effect>
							</filter>
							<filter>
								<effect>
									<name>Audio Levels</name>
									<effectid>audiolevels</effectid>
									<effectcategory>audiolevels</effectcategory>
									<effecttype>audiolevels</effecttype>
									<mediatype>audio</mediatype>
									<parameter authoringApp="PremierePro">
										<parameterid>level</parameterid>
										<name>Level</name>
										<valuemin>0</valuemin>
										<valuemax>3.98109</valuemax>
										<value>0.99763</value>
										<keyframe>
											<when>6029</when>
											<value>0</value>
										</keyframe>
										<keyframe>
											<when>6042</when>
											<value>0</value>
										</keyframe>
										<keyframe>
											<when>6045</when>
											<value>0</value>
										</keyframe>
										<keyframe>
											<when>6156</when>
											<value>0</value>
										</keyframe>
										<keyframe>
											<when>6163</when>
											<value>0.99763</value>
										</keyframe>
									</parameter>
								</effect>
							</filter>
							<filter>
								<effect>
									<name>Audio Pan</name>
									<effectid>audiopan</effectid>
									<effectcategory>audiopan</effectcategory>
									<effecttype>audiopan</effecttype>
									<mediatype>audio</mediatype>
									<parameter authoringApp="PremierePro">
										<parameterid>pan</parameterid>
										<name>Pan</name>
										<valuemin>-1</valuemin>
										<valuemax>1</valuemax>
										<value>0</value>
									</parameter>
								</effect>
							</filter>
						<link>
							<linkclipref>clipitem-34</linkclipref>
							<mediatype>video</mediatype>
							<trackindex>1</trackindex>
							<clipindex>38</clipindex>
						</link>
						<link>
							<linkclipref>clipitem-430</linkclipref>
							<mediatype>audio</mediatype>
							<trackindex>1</trackindex>
							<clipindex>34</clipindex>
							<groupindex>1</groupindex>
						</link>
						<link>
							<linkclipref>clipitem-498</linkclipref>
							<mediatype>audio</mediatype>
							<trackindex>2</trackindex>
							<clipindex>30</clipindex>
							<groupindex>1</groupindex>
						</link>
					</clipitem>
					<clipitem id="clipitem-499" frameBlend="FALSE" PannerCurrentValue="0.5" PannerKeyframes="" PannerStartKeyframe="-91445760000000000,0.5,0,0,0,0,0,0" PannerIsInverted="true" PannerName="Pan">
						<masterclipid>masterclip-6</masterclipid>
						<name>mktf-film-munchen-A03.MXF</name>
						<enabled>TRUE</enabled>
						<duration>26784</duration>
						<rate>
							<ntsc>TRUE</ntsc>
							<timebase>30</timebase>
						</rate>
						<start>22418</start>
						<end>22671</end>
						<in>6581</in>
						<out>6834</out>
						<file id="file-6"/>
						<sourcetrack>
							<mediatype>audio</mediatype>
							<trackindex>2</trackindex>
						</sourcetrack>
							<filter>
								<effect>
									<name>Gain</name>
									<effectid>{61756678, 4761696e, 4b657947}</effectid>
									<effecttype>filter</effecttype>
									<mediatype>audio</mediatype>
									<parameter authoringApp="PremierePro">
										<parameterid>Gain(dB)</parameterid>
										<name>Gain(dB)</name>
										<valuemin>-96</valuemin>
										<valuemax>96</valuemax>
										<value>-6</value>
									</parameter>
								</effect>
							</filter>
							<filter>
								<effect>
									<name>Audio Levels</name>
									<effectid>audiolevels</effectid>
									<effectcategory>audiolevels</effectcategory>
									<effecttype>audiolevels</effecttype>
									<mediatype>audio</mediatype>
									<parameter authoringApp="PremierePro">
										<parameterid>level</parameterid>
										<name>Level</name>
										<valuemin>0</valuemin>
										<valuemax>3.98109</valuemax>
										<value>0.99763</value>
										<keyframe>
											<when>6029</when>
											<value>0</value>
										</keyframe>
										<keyframe>
											<when>6042</when>
											<value>0</value>
										</keyframe>
										<keyframe>
											<when>6045</when>
											<value>0.99763</value>
										</keyframe>
									</parameter>
								</effect>
							</filter>
							<filter>
								<effect>
									<name>Audio Pan</name>
									<effectid>audiopan</effectid>
									<effectcategory>audiopan</effectcategory>
									<effecttype>audiopan</effecttype>
									<mediatype>audio</mediatype>
									<parameter authoringApp="PremierePro">
										<parameterid>pan</parameterid>
										<name>Pan</name>
										<valuemin>-1</valuemin>
										<valuemax>1</valuemax>
										<value>0</value>
									</parameter>
								</effect>
							</filter>
						<link>
							<linkclipref>clipitem-35</linkclipref>
							<mediatype>video</mediatype>
							<trackindex>1</trackindex>
							<clipindex>39</clipindex>
						</link>
						<link>
							<linkclipref>clipitem-431</linkclipref>
							<mediatype>audio</mediatype>
							<trackindex>1</trackindex>
							<clipindex>35</clipindex>
							<groupindex>1</groupindex>
						</link>
						<link>
							<linkclipref>clipitem-499</linkclipref>
							<mediatype>audio</mediatype>
							<trackindex>2</trackindex>
							<clipindex>31</clipindex>
							<groupindex>1</groupindex>
						</link>
					</clipitem>
					<clipitem id="clipitem-500" frameBlend="FALSE" PannerCurrentValue="0.5" PannerKeyframes="" PannerStartKeyframe="-91445760000000000,0.5,0,0,0,0,0,0" PannerIsInverted="true" PannerName="Pan">
						<masterclipid>masterclip-6</masterclipid>
						<name>mktf-film-munchen-A03.MXF</name>
						<enabled>TRUE</enabled>
						<duration>26784</duration>
						<rate>
							<ntsc>TRUE</ntsc>
							<timebase>30</timebase>
						</rate>
						<start>22671</start>
						<end>22773</end>
						<in>7153</in>
						<out>7255</out>
						<file id="file-6"/>
						<sourcetrack>
							<mediatype>audio</mediatype>
							<trackindex>2</trackindex>
						</sourcetrack>
							<filter>
								<effect>
									<name>Gain</name>
									<effectid>{61756678, 4761696e, 4b657947}</effectid>
									<effecttype>filter</effecttype>
									<mediatype>audio</mediatype>
									<parameter authoringApp="PremierePro">
										<parameterid>Gain(dB)</parameterid>
										<name>Gain(dB)</name>
										<valuemin>-96</valuemin>
										<valuemax>96</valuemax>
										<value>-6</value>
									</parameter>
								</effect>
							</filter>
							<filter>
								<effect>
									<name>Audio Levels</name>
									<effectid>audiolevels</effectid>
									<effectcategory>audiolevels</effectcategory>
									<effecttype>audiolevels</effecttype>
									<mediatype>audio</mediatype>
									<parameter authoringApp="PremierePro">
										<parameterid>level</parameterid>
										<name>Level</name>
										<valuemin>0</valuemin>
										<valuemax>3.98109</valuemax>
										<value>0.99763</value>
										<keyframe>
											<when>6029</when>
											<value>0</value>
										</keyframe>
										<keyframe>
											<when>6042</when>
											<value>0</value>
										</keyframe>
										<keyframe>
											<when>6045</when>
											<value>0.99763</value>
										</keyframe>
									</parameter>
								</effect>
							</filter>
							<filter>
								<effect>
									<name>Audio Pan</name>
									<effectid>audiopan</effectid>
									<effectcategory>audiopan</effectcategory>
									<effecttype>audiopan</effecttype>
									<mediatype>audio</mediatype>
									<parameter authoringApp="PremierePro">
										<parameterid>pan</parameterid>
										<name>Pan</name>
										<valuemin>-1</valuemin>
										<valuemax>1</valuemax>
										<value>0</value>
									</parameter>
								</effect>
							</filter>
						<link>
							<linkclipref>clipitem-36</linkclipref>
							<mediatype>video</mediatype>
							<trackindex>1</trackindex>
							<clipindex>40</clipindex>
						</link>
						<link>
							<linkclipref>clipitem-432</linkclipref>
							<mediatype>audio</mediatype>
							<trackindex>1</trackindex>
							<clipindex>36</clipindex>
							<groupindex>1</groupindex>
						</link>
						<link>
							<linkclipref>clipitem-500</linkclipref>
							<mediatype>audio</mediatype>
							<trackindex>2</trackindex>
							<clipindex>32</clipindex>
							<groupindex>1</groupindex>
						</link>
					</clipitem>
					<clipitem id="clipitem-501" frameBlend="FALSE" PannerCurrentValue="0.5" PannerKeyframes="" PannerStartKeyframe="-91445760000000000,0.5,0,0,0,0,0,0" PannerIsInverted="true" PannerName="Pan">
						<masterclipid>masterclip-6</masterclipid>
						<name>mktf-film-munchen-A03.MXF</name>
						<enabled>TRUE</enabled>
						<duration>26784</duration>
						<rate>
							<ntsc>TRUE</ntsc>
							<timebase>30</timebase>
						</rate>
						<start>22773</start>
						<end>22836</end>
						<in>7356</in>
						<out>7419</out>
						<file id="file-6"/>
						<sourcetrack>
							<mediatype>audio</mediatype>
							<trackindex>2</trackindex>
						</sourcetrack>
							<filter>
								<effect>
									<name>Gain</name>
									<effectid>{61756678, 4761696e, 4b657947}</effectid>
									<effecttype>filter</effecttype>
									<mediatype>audio</mediatype>
									<parameter authoringApp="PremierePro">
										<parameterid>Gain(dB)</parameterid>
										<name>Gain(dB)</name>
										<valuemin>-96</valuemin>
										<valuemax>96</valuemax>
										<value>-6</value>
									</parameter>
								</effect>
							</filter>
							<filter>
								<effect>
									<name>Audio Levels</name>
									<effectid>audiolevels</effectid>
									<effectcategory>audiolevels</effectcategory>
									<effecttype>audiolevels</effecttype>
									<mediatype>audio</mediatype>
									<parameter authoringApp="PremierePro">
										<parameterid>level</parameterid>
										<name>Level</name>
										<valuemin>0</valuemin>
										<valuemax>3.98109</valuemax>
										<value>0.33689</value>
										<keyframe>
											<when>6029</when>
											<value>0</value>
										</keyframe>
										<keyframe>
											<when>6042</when>
											<value>0</value>
										</keyframe>
										<keyframe>
											<when>6045</when>
											<value>0.99763</value>
										</keyframe>
										<keyframe>
											<when>7417</when>
											<value>0.99763</value>
										</keyframe>
										<keyframe>
											<when>7419</when>
											<value>0</value>
										</keyframe>
										<keyframe>
											<when>7535</when>
											<value>0</value>
										</keyframe>
										<keyframe>
											<when>7536</when>
											<value>1.08404</value>
										</keyframe>
										<keyframe>
											<when>7556</when>
											<value>1.03691</value>
										</keyframe>
										<keyframe>
											<when>7560</when>
											<value>0</value>
										</keyframe>
										<keyframe>
											<when>7571</when>
											<value>0</value>
										</keyframe>
										<keyframe>
											<when>7577</when>
											<value>1.08514</value>
										</keyframe>
									</parameter>
								</effect>
							</filter>
							<filter>
								<effect>
									<name>Audio Pan</name>
									<effectid>audiopan</effectid>
									<effectcategory>audiopan</effectcategory>
									<effecttype>audiopan</effecttype>
									<mediatype>audio</mediatype>
									<parameter authoringApp="PremierePro">
										<parameterid>pan</parameterid>
										<name>Pan</name>
										<valuemin>-1</valuemin>
										<valuemax>1</valuemax>
										<value>0</value>
									</parameter>
								</effect>
							</filter>
						<link>
							<linkclipref>clipitem-37</linkclipref>
							<mediatype>video</mediatype>
							<trackindex>1</trackindex>
							<clipindex>41</clipindex>
						</link>
						<link>
							<linkclipref>clipitem-433</linkclipref>
							<mediatype>audio</mediatype>
							<trackindex>1</trackindex>
							<clipindex>37</clipindex>
							<groupindex>1</groupindex>
						</link>
						<link>
							<linkclipref>clipitem-501</linkclipref>
							<mediatype>audio</mediatype>
							<trackindex>2</trackindex>
							<clipindex>33</clipindex>
							<groupindex>1</groupindex>
						</link>
					</clipitem>
					<clipitem id="clipitem-502" frameBlend="FALSE" PannerCurrentValue="0.5" PannerKeyframes="" PannerStartKeyframe="-91445760000000000,0.5,0,0,0,0,0,0" PannerIsInverted="true" PannerName="Pan">
						<masterclipid>masterclip-8</masterclipid>
						<name>mktf-film-munchen-A01.MXF</name>
						<enabled>TRUE</enabled>
						<duration>21900</duration>
						<rate>
							<ntsc>TRUE</ntsc>
							<timebase>30</timebase>
						</rate>
						<start>22836</start>
						<end>22880</end>
						<in>20228</in>
						<out>20272</out>
						<file id="file-8"/>
						<sourcetrack>
							<mediatype>audio</mediatype>
							<trackindex>2</trackindex>
						</sourcetrack>
							<filter>
								<effect>
									<name>Gain</name>
									<effectid>{61756678, 4761696e, 4b657947}</effectid>
									<effecttype>filter</effecttype>
									<mediatype>audio</mediatype>
									<parameter authoringApp="PremierePro">
										<parameterid>Gain(dB)</parameterid>
										<name>Gain(dB)</name>
										<valuemin>-96</valuemin>
										<valuemax>96</valuemax>
										<value>-6</value>
									</parameter>
								</effect>
							</filter>
							<filter>
								<effect>
									<name>Audio Levels</name>
									<effectid>audiolevels</effectid>
									<effectcategory>audiolevels</effectcategory>
									<effecttype>audiolevels</effecttype>
									<mediatype>audio</mediatype>
									<parameter authoringApp="PremierePro">
										<parameterid>level</parameterid>
										<name>Level</name>
										<valuemin>0</valuemin>
										<valuemax>3.98109</valuemax>
										<value>0</value>
										<keyframe>
											<when>4918</when>
											<value>0.262534</value>
										</keyframe>
										<keyframe>
											<when>4924</when>
											<value>0</value>
										</keyframe>
										<keyframe>
											<when>20154</when>
											<value>0</value>
										</keyframe>
										<keyframe>
											<when>20161</when>
											<value>0</value>
										</keyframe>
									</parameter>
								</effect>
							</filter>
							<filter>
								<effect>
									<name>Audio Pan</name>
									<effectid>audiopan</effectid>
									<effectcategory>audiopan</effectcategory>
									<effecttype>audiopan</effecttype>
									<mediatype>audio</mediatype>
									<parameter authoringApp="PremierePro">
										<parameterid>pan</parameterid>
										<name>Pan</name>
										<valuemin>-1</valuemin>
										<valuemax>1</valuemax>
										<value>0</value>
									</parameter>
								</effect>
							</filter>
					</clipitem>
					<clipitem id="clipitem-503" frameBlend="FALSE" PannerCurrentValue="0.5" PannerKeyframes="" PannerStartKeyframe="-91445760000000000,0.5,0,0,0,0,0,0" PannerIsInverted="true" PannerName="Pan">
						<masterclipid>masterclip-8</masterclipid>
						<name>mktf-film-munchen-A01.MXF</name>
						<enabled>TRUE</enabled>
						<duration>21900</duration>
						<rate>
							<ntsc>TRUE</ntsc>
							<timebase>30</timebase>
						</rate>
						<start>22880</start>
						<end>22985</end>
						<in>20288</in>
						<out>20393</out>
						<file id="file-8"/>
						<sourcetrack>
							<mediatype>audio</mediatype>
							<trackindex>2</trackindex>
						</sourcetrack>
							<filter>
								<effect>
									<name>Gain</name>
									<effectid>{61756678, 4761696e, 4b657947}</effectid>
									<effecttype>filter</effecttype>
									<mediatype>audio</mediatype>
									<parameter authoringApp="PremierePro">
										<parameterid>Gain(dB)</parameterid>
										<name>Gain(dB)</name>
										<valuemin>-96</valuemin>
										<valuemax>96</valuemax>
										<value>-6</value>
									</parameter>
								</effect>
							</filter>
							<filter>
								<effect>
									<name>Audio Levels</name>
									<effectid>audiolevels</effectid>
									<effectcategory>audiolevels</effectcategory>
									<effecttype>audiolevels</effecttype>
									<mediatype>audio</mediatype>
									<parameter authoringApp="PremierePro">
										<parameterid>level</parameterid>
										<name>Level</name>
										<valuemin>0</valuemin>
										<valuemax>3.98109</valuemax>
										<value>0.65945</value>
										<keyframe>
											<when>4918</when>
											<value>0.262534</value>
										</keyframe>
										<keyframe>
											<when>4924</when>
											<value>0</value>
										</keyframe>
										<keyframe>
											<when>20154</when>
											<value>0</value>
										</keyframe>
										<keyframe>
											<when>20161</when>
											<value>0.99763</value>
										</keyframe>
										<keyframe>
											<when>20288</when>
											<value>0</value>
										</keyframe>
										<keyframe>
											<when>20377</when>
											<value>0</value>
										</keyframe>
										<keyframe>
											<when>20379</when>
											<value>0.65945</value>
										</keyframe>
									</parameter>
								</effect>
							</filter>
							<filter>
								<effect>
									<name>Audio Pan</name>
									<effectid>audiopan</effectid>
									<effectcategory>audiopan</effectcategory>
									<effecttype>audiopan</effecttype>
									<mediatype>audio</mediatype>
									<parameter authoringApp="PremierePro">
										<parameterid>pan</parameterid>
										<name>Pan</name>
										<valuemin>-1</valuemin>
										<valuemax>1</valuemax>
										<value>0</value>
									</parameter>
								</effect>
							</filter>
						<link>
							<linkclipref>clipitem-435</linkclipref>
							<mediatype>audio</mediatype>
							<trackindex>1</trackindex>
							<clipindex>39</clipindex>
							<groupindex>1</groupindex>
						</link>
						<link>
							<linkclipref>clipitem-503</linkclipref>
							<mediatype>audio</mediatype>
							<trackindex>2</trackindex>
							<clipindex>35</clipindex>
							<groupindex>1</groupindex>
						</link>
					</clipitem>
					<clipitem id="clipitem-504" frameBlend="FALSE" PannerCurrentValue="0.5" PannerKeyframes="" PannerStartKeyframe="-91445760000000000,0.5,0,0,0,0,0,0" PannerIsInverted="true" PannerName="Pan">
						<masterclipid>masterclip-8</masterclipid>
						<name>mktf-film-munchen-A01.MXF</name>
						<enabled>TRUE</enabled>
						<duration>21900</duration>
						<rate>
							<ntsc>TRUE</ntsc>
							<timebase>30</timebase>
						</rate>
						<start>22985</start>
						<end>23018</end>
						<in>20393</in>
						<out>20426</out>
						<file id="file-8"/>
						<sourcetrack>
							<mediatype>audio</mediatype>
							<trackindex>2</trackindex>
						</sourcetrack>
							<filter>
								<effect>
									<name>Gain</name>
									<effectid>{61756678, 4761696e, 4b657947}</effectid>
									<effecttype>filter</effecttype>
									<mediatype>audio</mediatype>
									<parameter authoringApp="PremierePro">
										<parameterid>Gain(dB)</parameterid>
										<name>Gain(dB)</name>
										<valuemin>-96</valuemin>
										<valuemax>96</valuemax>
										<value>-6</value>
									</parameter>
								</effect>
							</filter>
							<filter>
								<effect>
									<name>Audio Levels</name>
									<effectid>audiolevels</effectid>
									<effectcategory>audiolevels</effectcategory>
									<effecttype>audiolevels</effecttype>
									<mediatype>audio</mediatype>
									<parameter authoringApp="PremierePro">
										<parameterid>level</parameterid>
										<name>Level</name>
										<valuemin>0</valuemin>
										<valuemax>3.98109</valuemax>
										<value>0.670723</value>
										<keyframe>
											<when>4918</when>
											<value>0.262534</value>
										</keyframe>
										<keyframe>
											<when>4924</when>
											<value>0</value>
										</keyframe>
										<keyframe>
											<when>20154</when>
											<value>0</value>
										</keyframe>
										<keyframe>
											<when>20161</when>
											<value>0.99763</value>
										</keyframe>
										<keyframe>
											<when>20288</when>
											<value>0</value>
										</keyframe>
										<keyframe>
											<when>20377</when>
											<value>0</value>
										</keyframe>
										<keyframe>
											<when>20379</when>
											<value>0.670723</value>
										</keyframe>
									</parameter>
								</effect>
							</filter>
							<filter>
								<effect>
									<name>Audio Pan</name>
									<effectid>audiopan</effectid>
									<effectcategory>audiopan</effectcategory>
									<effecttype>audiopan</effecttype>
									<mediatype>audio</mediatype>
									<parameter authoringApp="PremierePro">
										<parameterid>pan</parameterid>
										<name>Pan</name>
										<valuemin>-1</valuemin>
										<valuemax>1</valuemax>
										<value>0</value>
									</parameter>
								</effect>
							</filter>
						<link>
							<linkclipref>clipitem-436</linkclipref>
							<mediatype>audio</mediatype>
							<trackindex>1</trackindex>
							<clipindex>40</clipindex>
							<groupindex>1</groupindex>
						</link>
						<link>
							<linkclipref>clipitem-504</linkclipref>
							<mediatype>audio</mediatype>
							<trackindex>2</trackindex>
							<clipindex>36</clipindex>
							<groupindex>1</groupindex>
						</link>
					</clipitem>
					<clipitem id="clipitem-505" frameBlend="FALSE" PannerCurrentValue="0.5" PannerKeyframes="" PannerStartKeyframe="-91445760000000000,0.5,0,0,0,0,0,0" PannerIsInverted="true" PannerName="Pan">
						<masterclipid>masterclip-8</masterclipid>
						<name>mktf-film-munchen-A01.MXF</name>
						<enabled>TRUE</enabled>
						<duration>21900</duration>
						<rate>
							<ntsc>TRUE</ntsc>
							<timebase>30</timebase>
						</rate>
						<start>23018</start>
						<end>23437</end>
						<in>20426</in>
						<out>20845</out>
						<file id="file-8"/>
						<sourcetrack>
							<mediatype>audio</mediatype>
							<trackindex>2</trackindex>
						</sourcetrack>
							<filter>
								<effect>
									<name>Gain</name>
									<effectid>{61756678, 4761696e, 4b657947}</effectid>
									<effecttype>filter</effecttype>
									<mediatype>audio</mediatype>
									<parameter authoringApp="PremierePro">
										<parameterid>Gain(dB)</parameterid>
										<name>Gain(dB)</name>
										<valuemin>-96</valuemin>
										<valuemax>96</valuemax>
										<value>-6</value>
									</parameter>
								</effect>
							</filter>
							<filter>
								<effect>
									<name>Audio Levels</name>
									<effectid>audiolevels</effectid>
									<effectcategory>audiolevels</effectcategory>
									<effecttype>audiolevels</effecttype>
									<mediatype>audio</mediatype>
									<parameter authoringApp="PremierePro">
										<parameterid>level</parameterid>
										<name>Level</name>
										<valuemin>0</valuemin>
										<valuemax>3.98109</valuemax>
										<value>0.99763</value>
										<keyframe>
											<when>4918</when>
											<value>0.262534</value>
										</keyframe>
										<keyframe>
											<when>4924</when>
											<value>0</value>
										</keyframe>
										<keyframe>
											<when>20154</when>
											<value>0</value>
										</keyframe>
										<keyframe>
											<when>20161</when>
											<value>0.99763</value>
										</keyframe>
										<keyframe>
											<when>20288</when>
											<value>0</value>
										</keyframe>
										<keyframe>
											<when>20377</when>
											<value>0</value>
										</keyframe>
										<keyframe>
											<when>20379</when>
											<value>0.99763</value>
										</keyframe>
									</parameter>
								</effect>
							</filter>
							<filter>
								<effect>
									<name>Audio Pan</name>
									<effectid>audiopan</effectid>
									<effectcategory>audiopan</effectcategory>
									<effecttype>audiopan</effecttype>
									<mediatype>audio</mediatype>
									<parameter authoringApp="PremierePro">
										<parameterid>pan</parameterid>
										<name>Pan</name>
										<valuemin>-1</valuemin>
										<valuemax>1</valuemax>
										<value>0</value>
									</parameter>
								</effect>
							</filter>
						<link>
							<linkclipref>clipitem-437</linkclipref>
							<mediatype>audio</mediatype>
							<trackindex>1</trackindex>
							<clipindex>41</clipindex>
							<groupindex>1</groupindex>
						</link>
						<link>
							<linkclipref>clipitem-505</linkclipref>
							<mediatype>audio</mediatype>
							<trackindex>2</trackindex>
							<clipindex>37</clipindex>
							<groupindex>1</groupindex>
						</link>
					</clipitem>
					<clipitem id="clipitem-506" frameBlend="FALSE" PannerCurrentValue="0.5" PannerKeyframes="" PannerStartKeyframe="-91445760000000000,0.5,0,0,0,0,0,0" PannerIsInverted="true" PannerName="Pan">
						<masterclipid>masterclip-8</masterclipid>
						<name>mktf-film-munchen-A01.MXF</name>
						<enabled>TRUE</enabled>
						<duration>21900</duration>
						<rate>
							<ntsc>TRUE</ntsc>
							<timebase>30</timebase>
						</rate>
						<start>23437</start>
						<end>23469</end>
						<in>21440</in>
						<out>21472</out>
						<file id="file-8"/>
						<sourcetrack>
							<mediatype>audio</mediatype>
							<trackindex>2</trackindex>
						</sourcetrack>
							<filter>
								<effect>
									<name>Gain</name>
									<effectid>{61756678, 4761696e, 4b657947}</effectid>
									<effecttype>filter</effecttype>
									<mediatype>audio</mediatype>
									<parameter authoringApp="PremierePro">
										<parameterid>Gain(dB)</parameterid>
										<name>Gain(dB)</name>
										<valuemin>-96</valuemin>
										<valuemax>96</valuemax>
										<value>-6</value>
									</parameter>
								</effect>
							</filter>
							<filter>
								<effect>
									<name>Audio Levels</name>
									<effectid>audiolevels</effectid>
									<effectcategory>audiolevels</effectcategory>
									<effecttype>audiolevels</effecttype>
									<mediatype>audio</mediatype>
									<parameter authoringApp="PremierePro">
										<parameterid>level</parameterid>
										<name>Level</name>
										<valuemin>0</valuemin>
										<valuemax>3.98109</valuemax>
										<value>0.99763</value>
										<keyframe>
											<when>4918</when>
											<value>0.262534</value>
										</keyframe>
										<keyframe>
											<when>4924</when>
											<value>0</value>
										</keyframe>
										<keyframe>
											<when>20154</when>
											<value>0</value>
										</keyframe>
										<keyframe>
											<when>20161</when>
											<value>0.99763</value>
										</keyframe>
										<keyframe>
											<when>20288</when>
											<value>0</value>
										</keyframe>
										<keyframe>
											<when>20377</when>
											<value>0</value>
										</keyframe>
										<keyframe>
											<when>20379</when>
											<value>0.99763</value>
										</keyframe>
									</parameter>
								</effect>
							</filter>
							<filter>
								<effect>
									<name>Audio Pan</name>
									<effectid>audiopan</effectid>
									<effectcategory>audiopan</effectcategory>
									<effecttype>audiopan</effecttype>
									<mediatype>audio</mediatype>
									<parameter authoringApp="PremierePro">
										<parameterid>pan</parameterid>
										<name>Pan</name>
										<valuemin>-1</valuemin>
										<valuemax>1</valuemax>
										<value>0</value>
									</parameter>
								</effect>
							</filter>
						<link>
							<linkclipref>clipitem-438</linkclipref>
							<mediatype>audio</mediatype>
							<trackindex>1</trackindex>
							<clipindex>42</clipindex>
							<groupindex>1</groupindex>
						</link>
						<link>
							<linkclipref>clipitem-506</linkclipref>
							<mediatype>audio</mediatype>
							<trackindex>2</trackindex>
							<clipindex>38</clipindex>
							<groupindex>1</groupindex>
						</link>
					</clipitem>
					<clipitem id="clipitem-507" frameBlend="FALSE" PannerCurrentValue="0.5" PannerKeyframes="" PannerStartKeyframe="-91445760000000000,0.5,0,0,0,0,0,0" PannerIsInverted="true" PannerName="Pan">
						<masterclipid>masterclip-8</masterclipid>
						<name>mktf-film-munchen-A01.MXF</name>
						<enabled>TRUE</enabled>
						<duration>21900</duration>
						<rate>
							<ntsc>TRUE</ntsc>
							<timebase>30</timebase>
						</rate>
						<start>23469</start>
						<end>-1</end>
						<in>21508</in>
						<out>21783</out>
						<file id="file-8"/>
						<sourcetrack>
							<mediatype>audio</mediatype>
							<trackindex>2</trackindex>
						</sourcetrack>
							<filter>
								<effect>
									<name>Gain</name>
									<effectid>{61756678, 4761696e, 4b657947}</effectid>
									<effecttype>filter</effecttype>
									<mediatype>audio</mediatype>
									<parameter authoringApp="PremierePro">
										<parameterid>Gain(dB)</parameterid>
										<name>Gain(dB)</name>
										<valuemin>-96</valuemin>
										<valuemax>96</valuemax>
										<value>-6</value>
									</parameter>
								</effect>
							</filter>
							<filter>
								<effect>
									<name>Audio Levels</name>
									<effectid>audiolevels</effectid>
									<effectcategory>audiolevels</effectcategory>
									<effecttype>audiolevels</effecttype>
									<mediatype>audio</mediatype>
									<parameter authoringApp="PremierePro">
										<parameterid>level</parameterid>
										<name>Level</name>
										<valuemin>0</valuemin>
										<valuemax>3.98109</valuemax>
										<value>0.99763</value>
										<keyframe>
											<when>4918</when>
											<value>0.262534</value>
										</keyframe>
										<keyframe>
											<when>4924</when>
											<value>0</value>
										</keyframe>
										<keyframe>
											<when>20154</when>
											<value>0</value>
										</keyframe>
										<keyframe>
											<when>20161</when>
											<value>0.99763</value>
										</keyframe>
										<keyframe>
											<when>20288</when>
											<value>0</value>
										</keyframe>
										<keyframe>
											<when>20377</when>
											<value>0</value>
										</keyframe>
										<keyframe>
											<when>20379</when>
											<value>0.99763</value>
										</keyframe>
									</parameter>
								</effect>
							</filter>
							<filter>
								<effect>
									<name>Audio Pan</name>
									<effectid>audiopan</effectid>
									<effectcategory>audiopan</effectcategory>
									<effecttype>audiopan</effecttype>
									<mediatype>audio</mediatype>
									<parameter authoringApp="PremierePro">
										<parameterid>pan</parameterid>
										<name>Pan</name>
										<valuemin>-1</valuemin>
										<valuemax>1</valuemax>
										<value>0</value>
									</parameter>
								</effect>
							</filter>
						<link>
							<linkclipref>clipitem-439</linkclipref>
							<mediatype>audio</mediatype>
							<trackindex>1</trackindex>
							<clipindex>43</clipindex>
							<groupindex>1</groupindex>
						</link>
						<link>
							<linkclipref>clipitem-507</linkclipref>
							<mediatype>audio</mediatype>
							<trackindex>2</trackindex>
							<clipindex>39</clipindex>
							<groupindex>1</groupindex>
						</link>
					</clipitem>
					<transitionitem>
						<start>23719</start>
						<end>23744</end>
						<alignment>end-black</alignment>
						<cutPoint>25</cutPoint>
						<rate>
							<timebase>25</timebase>
							<ntsc>FALSE</ntsc>
						</rate>
						<effect>
							<name>Cross Fade (+3dB)</name>
							<effectid>KGAudioTransCrossFade3dB</effectid>
							<effecttype>transition</effecttype>
							<mediatype>audio</mediatype>
							<wipecode>0</wipecode>
							<wipeaccuracy>100</wipeaccuracy>
							<startratio>0</startratio>
							<endratio>1</endratio>
							<reverse>FALSE</reverse>
						</effect>
					</transitionitem>
					<clipitem id="clipitem-508" frameBlend="FALSE" PannerCurrentValue="0.5" PannerKeyframes="" PannerStartKeyframe="-91445760000000000,0.5,0,0,0,0,0,0" PannerIsInverted="true" PannerName="Pan">
						<masterclipid>masterclip-10</masterclipid>
						<name>mktf-film-erikpoppe-r01.MXF</name>
						<enabled>TRUE</enabled>
						<duration>3060</duration>
						<rate>
							<ntsc>TRUE</ntsc>
							<timebase>30</timebase>
						</rate>
						<start>24728</start>
						<end>24806</end>
						<in>788</in>
						<out>866</out>
						<file id="file-10"/>
						<sourcetrack>
							<mediatype>audio</mediatype>
							<trackindex>2</trackindex>
						</sourcetrack>
							<filter>
								<effect>
									<name>Audio Levels</name>
									<effectid>audiolevels</effectid>
									<effectcategory>audiolevels</effectcategory>
									<effecttype>audiolevels</effecttype>
									<mediatype>audio</mediatype>
									<parameter authoringApp="PremierePro">
										<parameterid>level</parameterid>
										<name>Level</name>
										<valuemin>0</valuemin>
										<valuemax>3.98109</valuemax>
										<value>0.99763</value>
										<keyframe>
											<when>821</when>
											<value>0.99763</value>
										</keyframe>
										<keyframe>
											<when>826</when>
											<value>0.0596873</value>
										</keyframe>
									</parameter>
								</effect>
							</filter>
							<filter>
								<effect>
									<name>Audio Pan</name>
									<effectid>audiopan</effectid>
									<effectcategory>audiopan</effectcategory>
									<effecttype>audiopan</effecttype>
									<mediatype>audio</mediatype>
									<parameter authoringApp="PremierePro">
										<parameterid>pan</parameterid>
										<name>Pan</name>
										<valuemin>-1</valuemin>
										<valuemax>1</valuemax>
										<value>0</value>
									</parameter>
								</effect>
							</filter>
						<link>
							<linkclipref>clipitem-42</linkclipref>
							<mediatype>video</mediatype>
							<trackindex>1</trackindex>
							<clipindex>46</clipindex>
						</link>
						<link>
							<linkclipref>clipitem-440</linkclipref>
							<mediatype>audio</mediatype>
							<trackindex>1</trackindex>
							<clipindex>45</clipindex>
							<groupindex>1</groupindex>
						</link>
						<link>
							<linkclipref>clipitem-508</linkclipref>
							<mediatype>audio</mediatype>
							<trackindex>2</trackindex>
							<clipindex>41</clipindex>
							<groupindex>1</groupindex>
						</link>
					</clipitem>
					<clipitem id="clipitem-509" frameBlend="FALSE" PannerCurrentValue="0.5" PannerKeyframes="" PannerStartKeyframe="-91445760000000000,0.5,0,0,0,0,0,0" PannerIsInverted="true" PannerName="Pan">
						<masterclipid>masterclip-10</masterclipid>
						<name>mktf-film-erikpoppe-r01.MXF</name>
						<enabled>TRUE</enabled>
						<duration>3060</duration>
						<rate>
							<ntsc>TRUE</ntsc>
							<timebase>30</timebase>
						</rate>
						<start>24806</start>
						<end>24868</end>
						<in>2872</in>
						<out>2934</out>
						<file id="file-10"/>
						<sourcetrack>
							<mediatype>audio</mediatype>
							<trackindex>2</trackindex>
						</sourcetrack>
							<filter>
								<effect>
									<name>Audio Pan</name>
									<effectid>audiopan</effectid>
									<effectcategory>audiopan</effectcategory>
									<effecttype>audiopan</effecttype>
									<mediatype>audio</mediatype>
									<parameter authoringApp="PremierePro">
										<parameterid>pan</parameterid>
										<name>Pan</name>
										<valuemin>-1</valuemin>
										<valuemax>1</valuemax>
										<value>0</value>
									</parameter>
								</effect>
							</filter>
						<link>
							<linkclipref>clipitem-43</linkclipref>
							<mediatype>video</mediatype>
							<trackindex>1</trackindex>
							<clipindex>47</clipindex>
						</link>
						<link>
							<linkclipref>clipitem-441</linkclipref>
							<mediatype>audio</mediatype>
							<trackindex>1</trackindex>
							<clipindex>46</clipindex>
							<groupindex>1</groupindex>
						</link>
						<link>
							<linkclipref>clipitem-509</linkclipref>
							<mediatype>audio</mediatype>
							<trackindex>2</trackindex>
							<clipindex>42</clipindex>
							<groupindex>1</groupindex>
						</link>
					</clipitem>
					<clipitem id="clipitem-510" frameBlend="FALSE" PannerCurrentValue="0.5" PannerKeyframes="" PannerStartKeyframe="-91445760000000000,0.5,0,0,0,0,0,0" PannerIsInverted="true" PannerName="Pan">
						<masterclipid>masterclip-11</masterclipid>
						<name>mktf-film-erikpoppe-r02.MXF</name>
						<enabled>TRUE</enabled>
						<duration>4548</duration>
						<rate>
							<ntsc>TRUE</ntsc>
							<timebase>30</timebase>
						</rate>
						<start>24868</start>
						<end>24979</end>
						<in>426</in>
						<out>537</out>
						<file id="file-11"/>
						<sourcetrack>
							<mediatype>audio</mediatype>
							<trackindex>2</trackindex>
						</sourcetrack>
							<filter>
								<effect>
									<name>Gain</name>
									<effectid>{61756678, 4761696e, 4b657947}</effectid>
									<effecttype>filter</effecttype>
									<mediatype>audio</mediatype>
									<parameter authoringApp="PremierePro">
										<parameterid>Gain(dB)</parameterid>
										<name>Gain(dB)</name>
										<valuemin>-96</valuemin>
										<valuemax>96</valuemax>
										<value>-21</value>
									</parameter>
								</effect>
							</filter>
							<filter>
								<effect>
									<name>Audio Levels</name>
									<effectid>audiolevels</effectid>
									<effectcategory>audiolevels</effectcategory>
									<effecttype>audiolevels</effecttype>
									<mediatype>audio</mediatype>
									<parameter authoringApp="PremierePro">
										<parameterid>level</parameterid>
										<name>Level</name>
										<valuemin>0</valuemin>
										<valuemax>3.98109</valuemax>
										<value>0.133703</value>
									</parameter>
								</effect>
							</filter>
							<filter>
								<effect>
									<name>Audio Pan</name>
									<effectid>audiopan</effectid>
									<effectcategory>audiopan</effectcategory>
									<effecttype>audiopan</effecttype>
									<mediatype>audio</mediatype>
									<parameter authoringApp="PremierePro">
										<parameterid>pan</parameterid>
										<name>Pan</name>
										<valuemin>-1</valuemin>
										<valuemax>1</valuemax>
										<value>0</value>
									</parameter>
								</effect>
							</filter>
						<link>
							<linkclipref>clipitem-44</linkclipref>
							<mediatype>video</mediatype>
							<trackindex>1</trackindex>
							<clipindex>48</clipindex>
						</link>
						<link>
							<linkclipref>clipitem-442</linkclipref>
							<mediatype>audio</mediatype>
							<trackindex>1</trackindex>
							<clipindex>47</clipindex>
							<groupindex>1</groupindex>
						</link>
						<link>
							<linkclipref>clipitem-510</linkclipref>
							<mediatype>audio</mediatype>
							<trackindex>2</trackindex>
							<clipindex>43</clipindex>
							<groupindex>1</groupindex>
						</link>
					</clipitem>
					<clipitem id="clipitem-511" frameBlend="FALSE" PannerCurrentValue="0.5" PannerKeyframes="" PannerStartKeyframe="-91445760000000000,0.5,0,0,0,0,0,0" PannerIsInverted="true" PannerName="Pan">
						<masterclipid>masterclip-11</masterclipid>
						<name>mktf-film-erikpoppe-r02.MXF</name>
						<enabled>TRUE</enabled>
						<duration>4548</duration>
						<rate>
							<ntsc>TRUE</ntsc>
							<timebase>30</timebase>
						</rate>
						<start>24989</start>
						<end>25021</end>
						<in>1031</in>
						<out>1063</out>
						<file id="file-11"/>
						<sourcetrack>
							<mediatype>audio</mediatype>
							<trackindex>2</trackindex>
						</sourcetrack>
							<filter>
								<effect>
									<name>Gain</name>
									<effectid>{61756678, 4761696e, 4b657947}</effectid>
									<effecttype>filter</effecttype>
									<mediatype>audio</mediatype>
									<parameter authoringApp="PremierePro">
										<parameterid>Gain(dB)</parameterid>
										<name>Gain(dB)</name>
										<valuemin>-96</valuemin>
										<valuemax>96</valuemax>
										<value>-21</value>
									</parameter>
								</effect>
							</filter>
							<filter>
								<effect>
									<name>Audio Pan</name>
									<effectid>audiopan</effectid>
									<effectcategory>audiopan</effectcategory>
									<effecttype>audiopan</effecttype>
									<mediatype>audio</mediatype>
									<parameter authoringApp="PremierePro">
										<parameterid>pan</parameterid>
										<name>Pan</name>
										<valuemin>-1</valuemin>
										<valuemax>1</valuemax>
										<value>0</value>
									</parameter>
								</effect>
							</filter>
						<link>
							<linkclipref>clipitem-122</linkclipref>
							<mediatype>video</mediatype>
							<trackindex>2</trackindex>
							<clipindex>45</clipindex>
						</link>
						<link>
							<linkclipref>clipitem-443</linkclipref>
							<mediatype>audio</mediatype>
							<trackindex>1</trackindex>
							<clipindex>48</clipindex>
							<groupindex>1</groupindex>
						</link>
						<link>
							<linkclipref>clipitem-511</linkclipref>
							<mediatype>audio</mediatype>
							<trackindex>2</trackindex>
							<clipindex>44</clipindex>
							<groupindex>1</groupindex>
						</link>
					</clipitem>
					<clipitem id="clipitem-512" frameBlend="FALSE" PannerCurrentValue="0.5" PannerKeyframes="" PannerStartKeyframe="-91445760000000000,0.5,0,0,0,0,0,0" PannerIsInverted="true" PannerName="Pan">
						<masterclipid>masterclip-11</masterclipid>
						<name>mktf-film-erikpoppe-r02.MXF</name>
						<enabled>TRUE</enabled>
						<duration>4548</duration>
						<rate>
							<ntsc>TRUE</ntsc>
							<timebase>30</timebase>
						</rate>
						<start>25021</start>
						<end>25102</end>
						<in>4210</in>
						<out>4291</out>
						<file id="file-11"/>
						<sourcetrack>
							<mediatype>audio</mediatype>
							<trackindex>2</trackindex>
						</sourcetrack>
							<filter>
								<effect>
									<name>Gain</name>
									<effectid>{61756678, 4761696e, 4b657947}</effectid>
									<effecttype>filter</effecttype>
									<mediatype>audio</mediatype>
									<parameter authoringApp="PremierePro">
										<parameterid>Gain(dB)</parameterid>
										<name>Gain(dB)</name>
										<valuemin>-96</valuemin>
										<valuemax>96</valuemax>
										<value>-21</value>
									</parameter>
								</effect>
							</filter>
							<filter>
								<effect>
									<name>Audio Pan</name>
									<effectid>audiopan</effectid>
									<effectcategory>audiopan</effectcategory>
									<effecttype>audiopan</effecttype>
									<mediatype>audio</mediatype>
									<parameter authoringApp="PremierePro">
										<parameterid>pan</parameterid>
										<name>Pan</name>
										<valuemin>-1</valuemin>
										<valuemax>1</valuemax>
										<value>0</value>
									</parameter>
								</effect>
							</filter>
						<link>
							<linkclipref>clipitem-123</linkclipref>
							<mediatype>video</mediatype>
							<trackindex>2</trackindex>
							<clipindex>46</clipindex>
						</link>
						<link>
							<linkclipref>clipitem-444</linkclipref>
							<mediatype>audio</mediatype>
							<trackindex>1</trackindex>
							<clipindex>49</clipindex>
							<groupindex>1</groupindex>
						</link>
						<link>
							<linkclipref>clipitem-512</linkclipref>
							<mediatype>audio</mediatype>
							<trackindex>2</trackindex>
							<clipindex>45</clipindex>
							<groupindex>1</groupindex>
						</link>
					</clipitem>
					<clipitem id="clipitem-513" frameBlend="FALSE" PannerCurrentValue="0.5" PannerKeyframes="" PannerStartKeyframe="-91445760000000000,0.5,0,0,0,0,0,0" PannerIsInverted="true" PannerName="Pan">
						<masterclipid>masterclip-12</masterclipid>
						<name>mktf-film-erikpoppe-r03.MXF</name>
						<enabled>TRUE</enabled>
						<duration>35028</duration>
						<rate>
							<ntsc>TRUE</ntsc>
							<timebase>30</timebase>
						</rate>
						<start>25229</start>
						<end>25901</end>
						<in>8142</in>
						<out>8814</out>
						<file id="file-12"/>
						<sourcetrack>
							<mediatype>audio</mediatype>
							<trackindex>2</trackindex>
						</sourcetrack>
							<filter>
								<effect>
									<name>Gain</name>
									<effectid>{61756678, 4761696e, 4b657947}</effectid>
									<effecttype>filter</effecttype>
									<mediatype>audio</mediatype>
									<parameter authoringApp="PremierePro">
										<parameterid>Gain(dB)</parameterid>
										<name>Gain(dB)</name>
										<valuemin>-96</valuemin>
										<valuemax>96</valuemax>
										<value>6</value>
									</parameter>
								</effect>
							</filter>
							<filter>
								<effect>
									<name>Audio Levels</name>
									<effectid>audiolevels</effectid>
									<effectcategory>audiolevels</effectcategory>
									<effecttype>audiolevels</effecttype>
									<mediatype>audio</mediatype>
									<parameter authoringApp="PremierePro">
										<parameterid>level</parameterid>
										<name>Level</name>
										<valuemin>0</valuemin>
										<valuemax>3.98109</valuemax>
										<value>1.19304</value>
										<keyframe>
											<when>5980</when>
											<value>0.99763</value>
										</keyframe>
										<keyframe>
											<when>5988</when>
											<value>0</value>
										</keyframe>
										<keyframe>
											<when>6426</when>
											<value>0</value>
										</keyframe>
										<keyframe>
											<when>6429</when>
											<value>1.04905</value>
										</keyframe>
										<keyframe>
											<when>6644</when>
											<value>1.04905</value>
										</keyframe>
										<keyframe>
											<when>6649</when>
											<value>0</value>
										</keyframe>
										<keyframe>
											<when>7050</when>
											<value>0</value>
										</keyframe>
										<keyframe>
											<when>7058</when>
											<value>1.11076</value>
										</keyframe>
										<keyframe>
											<when>7070</when>
											<value>1.11076</value>
										</keyframe>
										<keyframe>
											<when>7076</when>
											<value>0</value>
										</keyframe>
										<keyframe>
											<when>7451</when>
											<value>0</value>
										</keyframe>
										<keyframe>
											<when>7457</when>
											<value>1.19304</value>
										</keyframe>
										<keyframe>
											<when>8344</when>
											<value>1.19304</value>
										</keyframe>
										<keyframe>
											<when>8371</when>
											<value>0</value>
										</keyframe>
										<keyframe>
											<when>9252</when>
											<value>0</value>
										</keyframe>
										<keyframe>
											<when>9260</when>
											<value>1.02848</value>
										</keyframe>
										<keyframe>
											<when>9270</when>
											<value>1.04905</value>
										</keyframe>
										<keyframe>
											<when>9278</when>
											<value>0</value>
										</keyframe>
										<keyframe>
											<when>9500</when>
											<value>0</value>
										</keyframe>
										<keyframe>
											<when>9508</when>
											<value>0.987345</value>
										</keyframe>
										<keyframe>
											<when>9542</when>
											<value>0.987345</value>
										</keyframe>
										<keyframe>
											<when>9556</when>
											<value>0</value>
										</keyframe>
										<keyframe>
											<when>9757</when>
											<value>0</value>
										</keyframe>
										<keyframe>
											<when>9765</when>
											<value>1.13133</value>
										</keyframe>
										<keyframe>
											<when>9779</when>
											<value>1.13133</value>
										</keyframe>
										<keyframe>
											<when>9787</when>
											<value>0</value>
										</keyframe>
										<keyframe>
											<when>10138</when>
											<value>0</value>
										</keyframe>
										<keyframe>
											<when>10146</when>
											<value>1.47393</value>
										</keyframe>
										<keyframe>
											<when>10188</when>
											<value>1.47393</value>
										</keyframe>
										<keyframe>
											<when>10195</when>
											<value>0</value>
										</keyframe>
										<keyframe>
											<when>10280</when>
											<value>0</value>
										</keyframe>
										<keyframe>
											<when>10292</when>
											<value>1.11076</value>
										</keyframe>
										<keyframe>
											<when>10300</when>
											<value>1.13133</value>
										</keyframe>
										<keyframe>
											<when>10305</when>
											<value>0</value>
										</keyframe>
										<keyframe>
											<when>10367</when>
											<value>0</value>
										</keyframe>
										<keyframe>
											<when>10374</when>
											<value>1.02848</value>
										</keyframe>
										<keyframe>
											<when>10417</when>
											<value>1.02848</value>
										</keyframe>
										<keyframe>
											<when>10429</when>
											<value>0</value>
										</keyframe>
										<keyframe>
											<when>10994</when>
											<value>0</value>
										</keyframe>
										<keyframe>
											<when>11005</when>
											<value>1.19304</value>
										</keyframe>
										<keyframe>
											<when>11022</when>
											<value>0</value>
										</keyframe>
										<keyframe>
											<when>11296</when>
											<value>0</value>
										</keyframe>
										<keyframe>
											<when>11305</when>
											<value>0.884497</value>
										</keyframe>
										<keyframe>
											<when>11320</when>
											<value>0.884497</value>
										</keyframe>
										<keyframe>
											<when>11327</when>
											<value>0</value>
										</keyframe>
										<keyframe>
											<when>11511</when>
											<value>0</value>
										</keyframe>
										<keyframe>
											<when>11526</when>
											<value>1.43988</value>
										</keyframe>
										<keyframe>
											<when>11565</when>
											<value>1.43988</value>
										</keyframe>
										<keyframe>
											<when>11577</when>
											<value>0</value>
										</keyframe>
										<keyframe>
											<when>12119</when>
											<value>0</value>
										</keyframe>
										<keyframe>
											<when>12135</when>
											<value>1.17247</value>
										</keyframe>
										<keyframe>
											<when>12216</when>
											<value>1.21361</value>
										</keyframe>
										<keyframe>
											<when>12651</when>
											<value>1.21361</value>
										</keyframe>
										<keyframe>
											<when>12675</when>
											<value>0</value>
										</keyframe>
										<keyframe>
											<when>13218</when>
											<value>0</value>
										</keyframe>
										<keyframe>
											<when>13227</when>
											<value>1.52216</value>
										</keyframe>
										<keyframe>
											<when>13245</when>
											<value>1.52216</value>
										</keyframe>
										<keyframe>
											<when>13251</when>
											<value>0</value>
										</keyframe>
										<keyframe>
											<when>13613</when>
											<value>0</value>
										</keyframe>
										<keyframe>
											<when>13621</when>
											<value>1.52216</value>
										</keyframe>
										<keyframe>
											<when>13638</when>
											<value>1.52216</value>
										</keyframe>
										<keyframe>
											<when>13647</when>
											<value>0</value>
										</keyframe>
										<keyframe>
											<when>14115</when>
											<value>0</value>
										</keyframe>
										<keyframe>
											<when>14133</when>
											<value>1.11076</value>
										</keyframe>
										<keyframe>
											<when>14172</when>
											<value>1.11076</value>
										</keyframe>
										<keyframe>
											<when>14183</when>
											<value>0</value>
										</keyframe>
										<keyframe>
											<when>14395</when>
											<value>0</value>
										</keyframe>
										<keyframe>
											<when>14411</when>
											<value>0.999979</value>
										</keyframe>
										<keyframe>
											<when>14833</when>
											<value>0.999979</value>
										</keyframe>
										<keyframe>
											<when>14908</when>
											<value>0</value>
										</keyframe>
										<keyframe>
											<when>15471</when>
											<value>0</value>
										</keyframe>
										<keyframe>
											<when>15485</when>
											<value>1.25475</value>
										</keyframe>
										<keyframe>
											<when>15504</when>
											<value>1.25475</value>
										</keyframe>
										<keyframe>
											<when>15515</when>
											<value>0</value>
										</keyframe>
										<keyframe>
											<when>15566</when>
											<value>0</value>
										</keyframe>
										<keyframe>
											<when>15585</when>
											<value>1.13133</value>
										</keyframe>
										<keyframe>
											<when>15827</when>
											<value>1.13133</value>
										</keyframe>
										<keyframe>
											<when>15854</when>
											<value>0</value>
										</keyframe>
										<keyframe>
											<when>16217</when>
											<value>0</value>
										</keyframe>
										<keyframe>
											<when>16230</when>
											<value>1.41931</value>
										</keyframe>
										<keyframe>
											<when>16255</when>
											<value>1.41931</value>
										</keyframe>
										<keyframe>
											<when>16271</when>
											<value>0</value>
										</keyframe>
										<keyframe>
											<when>16514</when>
											<value>0</value>
										</keyframe>
										<keyframe>
											<when>16541</when>
											<value>1.43988</value>
										</keyframe>
										<keyframe>
											<when>16571</when>
											<value>1.43988</value>
										</keyframe>
										<keyframe>
											<when>16585</when>
											<value>0</value>
										</keyframe>
										<keyframe>
											<when>16722</when>
											<value>0</value>
										</keyframe>
										<keyframe>
											<when>16750</when>
											<value>1.3576</value>
										</keyframe>
										<keyframe>
											<when>16784</when>
											<value>1.3576</value>
										</keyframe>
										<keyframe>
											<when>16808</when>
											<value>0</value>
										</keyframe>
										<keyframe>
											<when>17950</when>
											<value>0</value>
										</keyframe>
										<keyframe>
											<when>17957</when>
											<value>0.966775</value>
										</keyframe>
										<keyframe>
											<when>18605</when>
											<value>0.966775</value>
										</keyframe>
										<keyframe>
											<when>18641</when>
											<value>0</value>
										</keyframe>
										<keyframe>
											<when>18871</when>
											<value>0</value>
										</keyframe>
										<keyframe>
											<when>18880</when>
											<value>1.39874</value>
										</keyframe>
										<keyframe>
											<when>18901</when>
											<value>1.39874</value>
										</keyframe>
										<keyframe>
											<when>18909</when>
											<value>0</value>
										</keyframe>
										<keyframe>
											<when>19214</when>
											<value>0</value>
										</keyframe>
										<keyframe>
											<when>19222</when>
											<value>1.27532</value>
										</keyframe>
										<keyframe>
											<when>19238</when>
											<value>1.27532</value>
										</keyframe>
										<keyframe>
											<when>19246</when>
											<value>0</value>
										</keyframe>
										<keyframe>
											<when>19759</when>
											<value>0</value>
										</keyframe>
										<keyframe>
											<when>19768</when>
											<value>1.27532</value>
										</keyframe>
										<keyframe>
											<when>19785</when>
											<value>1.27532</value>
										</keyframe>
										<keyframe>
											<when>19793</when>
											<value>0</value>
										</keyframe>
										<keyframe>
											<when>20201</when>
											<value>0</value>
										</keyframe>
										<keyframe>
											<when>20213</when>
											<value>1.27532</value>
										</keyframe>
										<keyframe>
											<when>20230</when>
											<value>1.27532</value>
										</keyframe>
										<keyframe>
											<when>20239</when>
											<value>0</value>
										</keyframe>
										<keyframe>
											<when>20343</when>
											<value>0</value>
										</keyframe>
										<keyframe>
											<when>20354</when>
											<value>1.02848</value>
										</keyframe>
										<keyframe>
											<when>20444</when>
											<value>1.02848</value>
										</keyframe>
										<keyframe>
											<when>20468</when>
											<value>0</value>
										</keyframe>
										<keyframe>
											<when>21283</when>
											<value>0</value>
										</keyframe>
										<keyframe>
											<when>21298</when>
											<value>1.13133</value>
										</keyframe>
										<keyframe>
											<when>21322</when>
											<value>1.13133</value>
										</keyframe>
										<keyframe>
											<when>21343</when>
											<value>0</value>
										</keyframe>
										<keyframe>
											<when>21562</when>
											<value>0</value>
										</keyframe>
										<keyframe>
											<when>21577</when>
											<value>1.3576</value>
										</keyframe>
										<keyframe>
											<when>21593</when>
											<value>1.3576</value>
										</keyframe>
										<keyframe>
											<when>21610</when>
											<value>0</value>
										</keyframe>
										<keyframe>
											<when>21922</when>
											<value>0</value>
										</keyframe>
										<keyframe>
											<when>21935</when>
											<value>1.29589</value>
										</keyframe>
										<keyframe>
											<when>21963</when>
											<value>1.29589</value>
										</keyframe>
										<keyframe>
											<when>21978</when>
											<value>0</value>
										</keyframe>
										<keyframe>
											<when>22025</when>
											<value>0</value>
										</keyframe>
										<keyframe>
											<when>22044</when>
											<value>1.17247</value>
										</keyframe>
										<keyframe>
											<when>22082</when>
											<value>1.17247</value>
										</keyframe>
										<keyframe>
											<when>22099</when>
											<value>0</value>
										</keyframe>
										<keyframe>
											<when>22416</when>
											<value>0</value>
										</keyframe>
										<keyframe>
											<when>22434</when>
											<value>1.25475</value>
										</keyframe>
										<keyframe>
											<when>22478</when>
											<value>1.25475</value>
										</keyframe>
										<keyframe>
											<when>22495</when>
											<value>0</value>
										</keyframe>
										<keyframe>
											<when>22652</when>
											<value>0</value>
										</keyframe>
										<keyframe>
											<when>22667</when>
											<value>1.29589</value>
										</keyframe>
										<keyframe>
											<when>22690</when>
											<value>1.29589</value>
										</keyframe>
										<keyframe>
											<when>22700</when>
											<value>0</value>
										</keyframe>
									</parameter>
								</effect>
							</filter>
							<filter>
								<effect>
									<name>Audio Pan</name>
									<effectid>audiopan</effectid>
									<effectcategory>audiopan</effectcategory>
									<effecttype>audiopan</effecttype>
									<mediatype>audio</mediatype>
									<parameter authoringApp="PremierePro">
										<parameterid>pan</parameterid>
										<name>Pan</name>
										<valuemin>-1</valuemin>
										<valuemax>1</valuemax>
										<value>0</value>
									</parameter>
								</effect>
							</filter>
						<link>
							<linkclipref>clipitem-46</linkclipref>
							<mediatype>video</mediatype>
							<trackindex>1</trackindex>
							<clipindex>51</clipindex>
						</link>
						<link>
							<linkclipref>clipitem-445</linkclipref>
							<mediatype>audio</mediatype>
							<trackindex>1</trackindex>
							<clipindex>50</clipindex>
							<groupindex>1</groupindex>
						</link>
						<link>
							<linkclipref>clipitem-513</linkclipref>
							<mediatype>audio</mediatype>
							<trackindex>2</trackindex>
							<clipindex>46</clipindex>
							<groupindex>1</groupindex>
						</link>
					</clipitem>
					<clipitem id="clipitem-514" frameBlend="FALSE" PannerCurrentValue="0.5" PannerKeyframes="" PannerStartKeyframe="-91445760000000000,0.5,0,0,0,0,0,0" PannerIsInverted="true" PannerName="Pan">
						<masterclipid>masterclip-12</masterclipid>
						<name>mktf-film-erikpoppe-r03.MXF</name>
						<enabled>TRUE</enabled>
						<duration>35028</duration>
						<rate>
							<ntsc>TRUE</ntsc>
							<timebase>30</timebase>
						</rate>
						<start>25901</start>
						<end>27922</end>
						<in>10143</in>
						<out>12164</out>
						<file id="file-12"/>
						<sourcetrack>
							<mediatype>audio</mediatype>
							<trackindex>2</trackindex>
						</sourcetrack>
							<filter>
								<effect>
									<name>Gain</name>
									<effectid>{61756678, 4761696e, 4b657947}</effectid>
									<effecttype>filter</effecttype>
									<mediatype>audio</mediatype>
									<parameter authoringApp="PremierePro">
										<parameterid>Gain(dB)</parameterid>
										<name>Gain(dB)</name>
										<valuemin>-96</valuemin>
										<valuemax>96</valuemax>
										<value>2</value>
									</parameter>
								</effect>
							</filter>
							<filter>
								<effect>
									<name>Audio Levels</name>
									<effectid>audiolevels</effectid>
									<effectcategory>audiolevels</effectcategory>
									<effecttype>audiolevels</effecttype>
									<mediatype>audio</mediatype>
									<parameter authoringApp="PremierePro">
										<parameterid>level</parameterid>
										<name>Level</name>
										<valuemin>0</valuemin>
										<valuemax>3.98109</valuemax>
										<value>0.89598</value>
										<keyframe>
											<when>5980</when>
											<value>0.99763</value>
										</keyframe>
										<keyframe>
											<when>5988</when>
											<value>0</value>
										</keyframe>
										<keyframe>
											<when>6426</when>
											<value>0</value>
										</keyframe>
										<keyframe>
											<when>6429</when>
											<value>1.04905</value>
										</keyframe>
										<keyframe>
											<when>6644</when>
											<value>1.04905</value>
										</keyframe>
										<keyframe>
											<when>6649</when>
											<value>0</value>
										</keyframe>
										<keyframe>
											<when>7050</when>
											<value>0</value>
										</keyframe>
										<keyframe>
											<when>7058</when>
											<value>1.11076</value>
										</keyframe>
										<keyframe>
											<when>7070</when>
											<value>1.11076</value>
										</keyframe>
										<keyframe>
											<when>7076</when>
											<value>0</value>
										</keyframe>
										<keyframe>
											<when>7451</when>
											<value>0</value>
										</keyframe>
										<keyframe>
											<when>7457</when>
											<value>1.19304</value>
										</keyframe>
										<keyframe>
											<when>8344</when>
											<value>1.19304</value>
										</keyframe>
										<keyframe>
											<when>8371</when>
											<value>0</value>
										</keyframe>
										<keyframe>
											<when>9252</when>
											<value>0</value>
										</keyframe>
										<keyframe>
											<when>9260</when>
											<value>1.02848</value>
										</keyframe>
										<keyframe>
											<when>9270</when>
											<value>1.04905</value>
										</keyframe>
										<keyframe>
											<when>9278</when>
											<value>0</value>
										</keyframe>
										<keyframe>
											<when>9500</when>
											<value>0</value>
										</keyframe>
										<keyframe>
											<when>9508</when>
											<value>0.987345</value>
										</keyframe>
										<keyframe>
											<when>9542</when>
											<value>0.987345</value>
										</keyframe>
										<keyframe>
											<when>9556</when>
											<value>0</value>
										</keyframe>
										<keyframe>
											<when>9757</when>
											<value>0</value>
										</keyframe>
										<keyframe>
											<when>9765</when>
											<value>1.13133</value>
										</keyframe>
										<keyframe>
											<when>9779</when>
											<value>1.13133</value>
										</keyframe>
										<keyframe>
											<when>9787</when>
											<value>0</value>
										</keyframe>
										<keyframe>
											<when>10138</when>
											<value>0</value>
										</keyframe>
										<keyframe>
											<when>10146</when>
											<value>1.47393</value>
										</keyframe>
										<keyframe>
											<when>10188</when>
											<value>1.47393</value>
										</keyframe>
										<keyframe>
											<when>10195</when>
											<value>0</value>
										</keyframe>
										<keyframe>
											<when>10280</when>
											<value>0</value>
										</keyframe>
										<keyframe>
											<when>10292</when>
											<value>1.11076</value>
										</keyframe>
										<keyframe>
											<when>10300</when>
											<value>1.13133</value>
										</keyframe>
										<keyframe>
											<when>10305</when>
											<value>0</value>
										</keyframe>
										<keyframe>
											<when>10367</when>
											<value>0</value>
										</keyframe>
										<keyframe>
											<when>10374</when>
											<value>1.02848</value>
										</keyframe>
										<keyframe>
											<when>10417</when>
											<value>1.02848</value>
										</keyframe>
										<keyframe>
											<when>10429</when>
											<value>0</value>
										</keyframe>
										<keyframe>
											<when>10994</when>
											<value>0</value>
										</keyframe>
										<keyframe>
											<when>11005</when>
											<value>1.19304</value>
										</keyframe>
										<keyframe>
											<when>11022</when>
											<value>0</value>
										</keyframe>
										<keyframe>
											<when>11296</when>
											<value>0</value>
										</keyframe>
										<keyframe>
											<when>11305</when>
											<value>0.884497</value>
										</keyframe>
										<keyframe>
											<when>11320</when>
											<value>0.884497</value>
										</keyframe>
										<keyframe>
											<when>11327</when>
											<value>0</value>
										</keyframe>
										<keyframe>
											<when>11511</when>
											<value>0</value>
										</keyframe>
										<keyframe>
											<when>11526</when>
											<value>1.43988</value>
										</keyframe>
										<keyframe>
											<when>11565</when>
											<value>1.43988</value>
										</keyframe>
										<keyframe>
											<when>11577</when>
											<value>0</value>
										</keyframe>
										<keyframe>
											<when>12119</when>
											<value>0</value>
										</keyframe>
										<keyframe>
											<when>12164</when>
											<value>0</value>
										</keyframe>
										<keyframe>
											<when>12216</when>
											<value>1.21361</value>
										</keyframe>
										<keyframe>
											<when>12651</when>
											<value>1.21361</value>
										</keyframe>
										<keyframe>
											<when>12675</when>
											<value>0</value>
										</keyframe>
										<keyframe>
											<when>13218</when>
											<value>0</value>
										</keyframe>
										<keyframe>
											<when>13227</when>
											<value>1.52216</value>
										</keyframe>
										<keyframe>
											<when>13245</when>
											<value>1.52216</value>
										</keyframe>
										<keyframe>
											<when>13251</when>
											<value>0</value>
										</keyframe>
										<keyframe>
											<when>13613</when>
											<value>0</value>
										</keyframe>
										<keyframe>
											<when>13621</when>
											<value>1.52216</value>
										</keyframe>
										<keyframe>
											<when>13638</when>
											<value>1.52216</value>
										</keyframe>
										<keyframe>
											<when>13647</when>
											<value>0</value>
										</keyframe>
										<keyframe>
											<when>14115</when>
											<value>0</value>
										</keyframe>
										<keyframe>
											<when>14133</when>
											<value>1.11076</value>
										</keyframe>
										<keyframe>
											<when>14172</when>
											<value>1.11076</value>
										</keyframe>
										<keyframe>
											<when>14183</when>
											<value>0</value>
										</keyframe>
										<keyframe>
											<when>14395</when>
											<value>0</value>
										</keyframe>
										<keyframe>
											<when>14411</when>
											<value>0.999979</value>
										</keyframe>
										<keyframe>
											<when>14833</when>
											<value>0.999979</value>
										</keyframe>
										<keyframe>
											<when>14908</when>
											<value>0</value>
										</keyframe>
										<keyframe>
											<when>15471</when>
											<value>0</value>
										</keyframe>
										<keyframe>
											<when>15485</when>
											<value>1.25475</value>
										</keyframe>
										<keyframe>
											<when>15504</when>
											<value>1.25475</value>
										</keyframe>
										<keyframe>
											<when>15515</when>
											<value>0</value>
										</keyframe>
										<keyframe>
											<when>15566</when>
											<value>0</value>
										</keyframe>
										<keyframe>
											<when>15585</when>
											<value>1.13133</value>
										</keyframe>
										<keyframe>
											<when>15827</when>
											<value>1.13133</value>
										</keyframe>
										<keyframe>
											<when>15854</when>
											<value>0</value>
										</keyframe>
										<keyframe>
											<when>16217</when>
											<value>0</value>
										</keyframe>
										<keyframe>
											<when>16230</when>
											<value>1.41931</value>
										</keyframe>
										<keyframe>
											<when>16255</when>
											<value>1.41931</value>
										</keyframe>
										<keyframe>
											<when>16271</when>
											<value>0</value>
										</keyframe>
										<keyframe>
											<when>16514</when>
											<value>0</value>
										</keyframe>
										<keyframe>
											<when>16541</when>
											<value>1.43988</value>
										</keyframe>
										<keyframe>
											<when>16571</when>
											<value>1.43988</value>
										</keyframe>
										<keyframe>
											<when>16585</when>
											<value>0</value>
										</keyframe>
										<keyframe>
											<when>16722</when>
											<value>0</value>
										</keyframe>
										<keyframe>
											<when>16750</when>
											<value>1.3576</value>
										</keyframe>
										<keyframe>
											<when>16784</when>
											<value>1.3576</value>
										</keyframe>
										<keyframe>
											<when>16808</when>
											<value>0</value>
										</keyframe>
										<keyframe>
											<when>17950</when>
											<value>0</value>
										</keyframe>
										<keyframe>
											<when>17957</when>
											<value>0.966775</value>
										</keyframe>
										<keyframe>
											<when>18605</when>
											<value>0.966775</value>
										</keyframe>
										<keyframe>
											<when>18641</when>
											<value>0</value>
										</keyframe>
										<keyframe>
											<when>18871</when>
											<value>0</value>
										</keyframe>
										<keyframe>
											<when>18880</when>
											<value>1.39874</value>
										</keyframe>
										<keyframe>
											<when>18901</when>
											<value>1.39874</value>
										</keyframe>
										<keyframe>
											<when>18909</when>
											<value>0</value>
										</keyframe>
										<keyframe>
											<when>19214</when>
											<value>0</value>
										</keyframe>
										<keyframe>
											<when>19222</when>
											<value>1.27532</value>
										</keyframe>
										<keyframe>
											<when>19238</when>
											<value>1.27532</value>
										</keyframe>
										<keyframe>
											<when>19246</when>
											<value>0</value>
										</keyframe>
										<keyframe>
											<when>19759</when>
											<value>0</value>
										</keyframe>
										<keyframe>
											<when>19768</when>
											<value>1.27532</value>
										</keyframe>
										<keyframe>
											<when>19785</when>
											<value>1.27532</value>
										</keyframe>
										<keyframe>
											<when>19793</when>
											<value>0</value>
										</keyframe>
										<keyframe>
											<when>20201</when>
											<value>0</value>
										</keyframe>
										<keyframe>
											<when>20213</when>
											<value>1.27532</value>
										</keyframe>
										<keyframe>
											<when>20230</when>
											<value>1.27532</value>
										</keyframe>
										<keyframe>
											<when>20239</when>
											<value>0</value>
										</keyframe>
										<keyframe>
											<when>20343</when>
											<value>0</value>
										</keyframe>
										<keyframe>
											<when>20354</when>
											<value>1.02848</value>
										</keyframe>
										<keyframe>
											<when>20444</when>
											<value>1.02848</value>
										</keyframe>
										<keyframe>
											<when>20468</when>
											<value>0</value>
										</keyframe>
										<keyframe>
											<when>21283</when>
											<value>0</value>
										</keyframe>
										<keyframe>
											<when>21298</when>
											<value>1.13133</value>
										</keyframe>
										<keyframe>
											<when>21322</when>
											<value>1.13133</value>
										</keyframe>
										<keyframe>
											<when>21343</when>
											<value>0</value>
										</keyframe>
										<keyframe>
											<when>21562</when>
											<value>0</value>
										</keyframe>
										<keyframe>
											<when>21577</when>
											<value>1.3576</value>
										</keyframe>
										<keyframe>
											<when>21593</when>
											<value>1.3576</value>
										</keyframe>
										<keyframe>
											<when>21610</when>
											<value>0</value>
										</keyframe>
										<keyframe>
											<when>21922</when>
											<value>0</value>
										</keyframe>
										<keyframe>
											<when>21935</when>
											<value>1.29589</value>
										</keyframe>
										<keyframe>
											<when>21963</when>
											<value>1.29589</value>
										</keyframe>
										<keyframe>
											<when>21978</when>
											<value>0</value>
										</keyframe>
										<keyframe>
											<when>22025</when>
											<value>0</value>
										</keyframe>
										<keyframe>
											<when>22044</when>
											<value>1.17247</value>
										</keyframe>
										<keyframe>
											<when>22082</when>
											<value>1.17247</value>
										</keyframe>
										<keyframe>
											<when>22099</when>
											<value>0</value>
										</keyframe>
										<keyframe>
											<when>22416</when>
											<value>0</value>
										</keyframe>
										<keyframe>
											<when>22434</when>
											<value>1.25475</value>
										</keyframe>
										<keyframe>
											<when>22478</when>
											<value>1.25475</value>
										</keyframe>
										<keyframe>
											<when>22495</when>
											<value>0</value>
										</keyframe>
										<keyframe>
											<when>22652</when>
											<value>0</value>
										</keyframe>
										<keyframe>
											<when>22667</when>
											<value>1.29589</value>
										</keyframe>
										<keyframe>
											<when>22690</when>
											<value>1.29589</value>
										</keyframe>
										<keyframe>
											<when>22700</when>
											<value>0</value>
										</keyframe>
									</parameter>
								</effect>
							</filter>
							<filter>
								<effect>
									<name>Audio Pan</name>
									<effectid>audiopan</effectid>
									<effectcategory>audiopan</effectcategory>
									<effecttype>audiopan</effecttype>
									<mediatype>audio</mediatype>
									<parameter authoringApp="PremierePro">
										<parameterid>pan</parameterid>
										<name>Pan</name>
										<valuemin>-1</valuemin>
										<valuemax>1</valuemax>
										<value>0</value>
									</parameter>
								</effect>
							</filter>
						<link>
							<linkclipref>clipitem-47</linkclipref>
							<mediatype>video</mediatype>
							<trackindex>1</trackindex>
							<clipindex>52</clipindex>
						</link>
						<link>
							<linkclipref>clipitem-446</linkclipref>
							<mediatype>audio</mediatype>
							<trackindex>1</trackindex>
							<clipindex>51</clipindex>
							<groupindex>1</groupindex>
						</link>
						<link>
							<linkclipref>clipitem-514</linkclipref>
							<mediatype>audio</mediatype>
							<trackindex>2</trackindex>
							<clipindex>47</clipindex>
							<groupindex>1</groupindex>
						</link>
					</clipitem>
					<clipitem id="clipitem-515" frameBlend="FALSE" PannerCurrentValue="0.5" PannerKeyframes="" PannerStartKeyframe="-91445760000000000,0.5,0,0,0,0,0,0" PannerIsInverted="true" PannerName="Pan">
						<masterclipid>masterclip-12</masterclipid>
						<name>mktf-film-erikpoppe-r03.MXF</name>
						<enabled>TRUE</enabled>
						<duration>35028</duration>
						<rate>
							<ntsc>TRUE</ntsc>
							<timebase>30</timebase>
						</rate>
						<start>28733</start>
						<end>29378</end>
						<in>19705</in>
						<out>20350</out>
						<file id="file-12"/>
						<sourcetrack>
							<mediatype>audio</mediatype>
							<trackindex>2</trackindex>
						</sourcetrack>
							<filter>
								<effect>
									<name>Gain</name>
									<effectid>{61756678, 4761696e, 4b657947}</effectid>
									<effecttype>filter</effecttype>
									<mediatype>audio</mediatype>
									<parameter authoringApp="PremierePro">
										<parameterid>Gain(dB)</parameterid>
										<name>Gain(dB)</name>
										<valuemin>-96</valuemin>
										<valuemax>96</valuemax>
										<value>3</value>
									</parameter>
								</effect>
							</filter>
							<filter>
								<effect>
									<name>Audio Levels</name>
									<effectid>audiolevels</effectid>
									<effectcategory>audiolevels</effectcategory>
									<effecttype>audiolevels</effecttype>
									<mediatype>audio</mediatype>
									<parameter authoringApp="PremierePro">
										<parameterid>level</parameterid>
										<name>Level</name>
										<valuemin>0</valuemin>
										<valuemax>3.98109</valuemax>
										<value>0</value>
										<keyframe>
											<when>5980</when>
											<value>0.99763</value>
										</keyframe>
										<keyframe>
											<when>5988</when>
											<value>0</value>
										</keyframe>
										<keyframe>
											<when>6426</when>
											<value>0</value>
										</keyframe>
										<keyframe>
											<when>6429</when>
											<value>1.04905</value>
										</keyframe>
										<keyframe>
											<when>6644</when>
											<value>1.04905</value>
										</keyframe>
										<keyframe>
											<when>6649</when>
											<value>0</value>
										</keyframe>
										<keyframe>
											<when>7050</when>
											<value>0</value>
										</keyframe>
										<keyframe>
											<when>7058</when>
											<value>1.11076</value>
										</keyframe>
										<keyframe>
											<when>7070</when>
											<value>1.11076</value>
										</keyframe>
										<keyframe>
											<when>7076</when>
											<value>0</value>
										</keyframe>
										<keyframe>
											<when>7451</when>
											<value>0</value>
										</keyframe>
										<keyframe>
											<when>7457</when>
											<value>1.19304</value>
										</keyframe>
										<keyframe>
											<when>8344</when>
											<value>1.19304</value>
										</keyframe>
										<keyframe>
											<when>8371</when>
											<value>0</value>
										</keyframe>
										<keyframe>
											<when>9252</when>
											<value>0</value>
										</keyframe>
										<keyframe>
											<when>9260</when>
											<value>1.02848</value>
										</keyframe>
										<keyframe>
											<when>9270</when>
											<value>1.04905</value>
										</keyframe>
										<keyframe>
											<when>9278</when>
											<value>0</value>
										</keyframe>
										<keyframe>
											<when>9500</when>
											<value>0</value>
										</keyframe>
										<keyframe>
											<when>9508</when>
											<value>0.987345</value>
										</keyframe>
										<keyframe>
											<when>9542</when>
											<value>0.987345</value>
										</keyframe>
										<keyframe>
											<when>9556</when>
											<value>0</value>
										</keyframe>
										<keyframe>
											<when>9757</when>
											<value>0</value>
										</keyframe>
										<keyframe>
											<when>9765</when>
											<value>1.13133</value>
										</keyframe>
										<keyframe>
											<when>9779</when>
											<value>1.13133</value>
										</keyframe>
										<keyframe>
											<when>9787</when>
											<value>0</value>
										</keyframe>
										<keyframe>
											<when>10138</when>
											<value>0</value>
										</keyframe>
										<keyframe>
											<when>10146</when>
											<value>1.47393</value>
										</keyframe>
										<keyframe>
											<when>10188</when>
											<value>1.47393</value>
										</keyframe>
										<keyframe>
											<when>10195</when>
											<value>0</value>
										</keyframe>
										<keyframe>
											<when>10280</when>
											<value>0</value>
										</keyframe>
										<keyframe>
											<when>10292</when>
											<value>1.11076</value>
										</keyframe>
										<keyframe>
											<when>10300</when>
											<value>1.13133</value>
										</keyframe>
										<keyframe>
											<when>10305</when>
											<value>0</value>
										</keyframe>
										<keyframe>
											<when>10367</when>
											<value>0</value>
										</keyframe>
										<keyframe>
											<when>10374</when>
											<value>1.02848</value>
										</keyframe>
										<keyframe>
											<when>10417</when>
											<value>1.02848</value>
										</keyframe>
										<keyframe>
											<when>10429</when>
											<value>0</value>
										</keyframe>
										<keyframe>
											<when>10994</when>
											<value>0</value>
										</keyframe>
										<keyframe>
											<when>11005</when>
											<value>1.19304</value>
										</keyframe>
										<keyframe>
											<when>11022</when>
											<value>0</value>
										</keyframe>
										<keyframe>
											<when>11296</when>
											<value>0</value>
										</keyframe>
										<keyframe>
											<when>11305</when>
											<value>0.884497</value>
										</keyframe>
										<keyframe>
											<when>11320</when>
											<value>0.884497</value>
										</keyframe>
										<keyframe>
											<when>11327</when>
											<value>0</value>
										</keyframe>
										<keyframe>
											<when>11511</when>
											<value>0</value>
										</keyframe>
										<keyframe>
											<when>11526</when>
											<value>1.43988</value>
										</keyframe>
										<keyframe>
											<when>11565</when>
											<value>1.43988</value>
										</keyframe>
										<keyframe>
											<when>11577</when>
											<value>0</value>
										</keyframe>
										<keyframe>
											<when>12119</when>
											<value>0</value>
										</keyframe>
										<keyframe>
											<when>12135</when>
											<value>1.17247</value>
										</keyframe>
										<keyframe>
											<when>12216</when>
											<value>1.21361</value>
										</keyframe>
										<keyframe>
											<when>12651</when>
											<value>1.21361</value>
										</keyframe>
										<keyframe>
											<when>12675</when>
											<value>0</value>
										</keyframe>
										<keyframe>
											<when>13218</when>
											<value>0</value>
										</keyframe>
										<keyframe>
											<when>13227</when>
											<value>1.52216</value>
										</keyframe>
										<keyframe>
											<when>13245</when>
											<value>1.52216</value>
										</keyframe>
										<keyframe>
											<when>13251</when>
											<value>0</value>
										</keyframe>
										<keyframe>
											<when>13613</when>
											<value>0</value>
										</keyframe>
										<keyframe>
											<when>13621</when>
											<value>1.52216</value>
										</keyframe>
										<keyframe>
											<when>13638</when>
											<value>1.52216</value>
										</keyframe>
										<keyframe>
											<when>13647</when>
											<value>0</value>
										</keyframe>
										<keyframe>
											<when>14115</when>
											<value>0</value>
										</keyframe>
										<keyframe>
											<when>14133</when>
											<value>1.11076</value>
										</keyframe>
										<keyframe>
											<when>14172</when>
											<value>1.11076</value>
										</keyframe>
										<keyframe>
											<when>14183</when>
											<value>0</value>
										</keyframe>
										<keyframe>
											<when>14395</when>
											<value>0</value>
										</keyframe>
										<keyframe>
											<when>14411</when>
											<value>0.999979</value>
										</keyframe>
										<keyframe>
											<when>14833</when>
											<value>0.999979</value>
										</keyframe>
										<keyframe>
											<when>14908</when>
											<value>0</value>
										</keyframe>
										<keyframe>
											<when>15471</when>
											<value>0</value>
										</keyframe>
										<keyframe>
											<when>15485</when>
											<value>1.25475</value>
										</keyframe>
										<keyframe>
											<when>15504</when>
											<value>1.25475</value>
										</keyframe>
										<keyframe>
											<when>15515</when>
											<value>0</value>
										</keyframe>
										<keyframe>
											<when>15566</when>
											<value>0</value>
										</keyframe>
										<keyframe>
											<when>15585</when>
											<value>1.13133</value>
										</keyframe>
										<keyframe>
											<when>15827</when>
											<value>1.13133</value>
										</keyframe>
										<keyframe>
											<when>15854</when>
											<value>0</value>
										</keyframe>
										<keyframe>
											<when>16217</when>
											<value>0</value>
										</keyframe>
										<keyframe>
											<when>16230</when>
											<value>1.41931</value>
										</keyframe>
										<keyframe>
											<when>16255</when>
											<value>1.41931</value>
										</keyframe>
										<keyframe>
											<when>16271</when>
											<value>0</value>
										</keyframe>
										<keyframe>
											<when>16514</when>
											<value>0</value>
										</keyframe>
										<keyframe>
											<when>16541</when>
											<value>1.43988</value>
										</keyframe>
										<keyframe>
											<when>16571</when>
											<value>1.43988</value>
										</keyframe>
										<keyframe>
											<when>16585</when>
											<value>0</value>
										</keyframe>
										<keyframe>
											<when>16722</when>
											<value>0</value>
										</keyframe>
										<keyframe>
											<when>16750</when>
											<value>1.3576</value>
										</keyframe>
										<keyframe>
											<when>16784</when>
											<value>1.3576</value>
										</keyframe>
										<keyframe>
											<when>16808</when>
											<value>0</value>
										</keyframe>
										<keyframe>
											<when>17950</when>
											<value>0</value>
										</keyframe>
										<keyframe>
											<when>17957</when>
											<value>0.966775</value>
										</keyframe>
										<keyframe>
											<when>18605</when>
											<value>0.966775</value>
										</keyframe>
										<keyframe>
											<when>18641</when>
											<value>0</value>
										</keyframe>
										<keyframe>
											<when>18871</when>
											<value>0</value>
										</keyframe>
										<keyframe>
											<when>18880</when>
											<value>1.39874</value>
										</keyframe>
										<keyframe>
											<when>18901</when>
											<value>1.39874</value>
										</keyframe>
										<keyframe>
											<when>18909</when>
											<value>0</value>
										</keyframe>
										<keyframe>
											<when>19214</when>
											<value>0</value>
										</keyframe>
										<keyframe>
											<when>19222</when>
											<value>1.27532</value>
										</keyframe>
										<keyframe>
											<when>19238</when>
											<value>1.27532</value>
										</keyframe>
										<keyframe>
											<when>19246</when>
											<value>0</value>
										</keyframe>
										<keyframe>
											<when>19759</when>
											<value>0</value>
										</keyframe>
										<keyframe>
											<when>19768</when>
											<value>1.27532</value>
										</keyframe>
										<keyframe>
											<when>19785</when>
											<value>1.27532</value>
										</keyframe>
										<keyframe>
											<when>19793</when>
											<value>0</value>
										</keyframe>
										<keyframe>
											<when>20201</when>
											<value>0</value>
										</keyframe>
										<keyframe>
											<when>20213</when>
											<value>1.27532</value>
										</keyframe>
										<keyframe>
											<when>20230</when>
											<value>1.27532</value>
										</keyframe>
										<keyframe>
											<when>20239</when>
											<value>0</value>
										</keyframe>
										<keyframe>
											<when>20343</when>
											<value>0</value>
										</keyframe>
										<keyframe>
											<when>20354</when>
											<value>1.02848</value>
										</keyframe>
										<keyframe>
											<when>20444</when>
											<value>1.02848</value>
										</keyframe>
										<keyframe>
											<when>20468</when>
											<value>0</value>
										</keyframe>
										<keyframe>
											<when>21283</when>
											<value>0</value>
										</keyframe>
										<keyframe>
											<when>21298</when>
											<value>1.13133</value>
										</keyframe>
										<keyframe>
											<when>21322</when>
											<value>1.13133</value>
										</keyframe>
										<keyframe>
											<when>21343</when>
											<value>0</value>
										</keyframe>
										<keyframe>
											<when>21562</when>
											<value>0</value>
										</keyframe>
										<keyframe>
											<when>21577</when>
											<value>1.3576</value>
										</keyframe>
										<keyframe>
											<when>21593</when>
											<value>1.3576</value>
										</keyframe>
										<keyframe>
											<when>21610</when>
											<value>0</value>
										</keyframe>
										<keyframe>
											<when>21922</when>
											<value>0</value>
										</keyframe>
										<keyframe>
											<when>21935</when>
											<value>1.29589</value>
										</keyframe>
										<keyframe>
											<when>21963</when>
											<value>1.29589</value>
										</keyframe>
										<keyframe>
											<when>21978</when>
											<value>0</value>
										</keyframe>
										<keyframe>
											<when>22025</when>
											<value>0</value>
										</keyframe>
										<keyframe>
											<when>22044</when>
											<value>1.17247</value>
										</keyframe>
										<keyframe>
											<when>22082</when>
											<value>1.17247</value>
										</keyframe>
										<keyframe>
											<when>22099</when>
											<value>0</value>
										</keyframe>
										<keyframe>
											<when>22416</when>
											<value>0</value>
										</keyframe>
										<keyframe>
											<when>22434</when>
											<value>1.25475</value>
										</keyframe>
										<keyframe>
											<when>22478</when>
											<value>1.25475</value>
										</keyframe>
										<keyframe>
											<when>22495</when>
											<value>0</value>
										</keyframe>
										<keyframe>
											<when>22652</when>
											<value>0</value>
										</keyframe>
										<keyframe>
											<when>22667</when>
											<value>1.29589</value>
										</keyframe>
										<keyframe>
											<when>22690</when>
											<value>1.29589</value>
										</keyframe>
										<keyframe>
											<when>22700</when>
											<value>0</value>
										</keyframe>
									</parameter>
								</effect>
							</filter>
							<filter>
								<effect>
									<name>Audio Pan</name>
									<effectid>audiopan</effectid>
									<effectcategory>audiopan</effectcategory>
									<effecttype>audiopan</effecttype>
									<mediatype>audio</mediatype>
									<parameter authoringApp="PremierePro">
										<parameterid>pan</parameterid>
										<name>Pan</name>
										<valuemin>-1</valuemin>
										<valuemax>1</valuemax>
										<value>0</value>
									</parameter>
								</effect>
							</filter>
						<link>
							<linkclipref>clipitem-49</linkclipref>
							<mediatype>video</mediatype>
							<trackindex>1</trackindex>
							<clipindex>54</clipindex>
						</link>
						<link>
							<linkclipref>clipitem-447</linkclipref>
							<mediatype>audio</mediatype>
							<trackindex>1</trackindex>
							<clipindex>52</clipindex>
							<groupindex>1</groupindex>
						</link>
						<link>
							<linkclipref>clipitem-515</linkclipref>
							<mediatype>audio</mediatype>
							<trackindex>2</trackindex>
							<clipindex>48</clipindex>
							<groupindex>1</groupindex>
						</link>
					</clipitem>
					<clipitem id="clipitem-516" frameBlend="FALSE" PannerCurrentValue="0.5" PannerKeyframes="" PannerStartKeyframe="-91445760000000000,0.5,0,0,0,0,0,0" PannerIsInverted="true" PannerName="Pan">
						<masterclipid>masterclip-12</masterclipid>
						<name>mktf-film-erikpoppe-r03.MXF</name>
						<enabled>TRUE</enabled>
						<duration>35028</duration>
						<rate>
							<ntsc>TRUE</ntsc>
							<timebase>30</timebase>
						</rate>
						<start>29378</start>
						<end>-1</end>
						<in>23391</in>
						<out>23405</out>
						<file id="file-12"/>
						<sourcetrack>
							<mediatype>audio</mediatype>
							<trackindex>2</trackindex>
						</sourcetrack>
							<filter>
								<effect>
									<name>Gain</name>
									<effectid>{61756678, 4761696e, 4b657947}</effectid>
									<effecttype>filter</effecttype>
									<mediatype>audio</mediatype>
									<parameter authoringApp="PremierePro">
										<parameterid>Gain(dB)</parameterid>
										<name>Gain(dB)</name>
										<valuemin>-96</valuemin>
										<valuemax>96</valuemax>
										<value>6</value>
									</parameter>
								</effect>
							</filter>
							<filter>
								<effect>
									<name>Audio Pan</name>
									<effectid>audiopan</effectid>
									<effectcategory>audiopan</effectcategory>
									<effecttype>audiopan</effecttype>
									<mediatype>audio</mediatype>
									<parameter authoringApp="PremierePro">
										<parameterid>pan</parameterid>
										<name>Pan</name>
										<valuemin>-1</valuemin>
										<valuemax>1</valuemax>
										<value>0</value>
									</parameter>
								</effect>
							</filter>
					</clipitem>
					<transitionitem>
						<start>29390</start>
						<end>29392</end>
						<alignment>center</alignment>
						<cutPoint>1</cutPoint>
						<rate>
							<timebase>25</timebase>
							<ntsc>FALSE</ntsc>
						</rate>
						<effect>
							<name>Cross Fade (+3dB)</name>
							<effectid>KGAudioTransCrossFade3dB</effectid>
							<effecttype>transition</effecttype>
							<mediatype>audio</mediatype>
							<wipecode>0</wipecode>
							<wipeaccuracy>100</wipeaccuracy>
							<startratio>0</startratio>
							<endratio>1</endratio>
							<reverse>FALSE</reverse>
						</effect>
					</transitionitem>
					<clipitem id="clipitem-517" frameBlend="FALSE" PannerCurrentValue="0.5" PannerKeyframes="" PannerStartKeyframe="-91445760000000000,0.5,0,0,0,0,0,0" PannerIsInverted="true" PannerName="Pan">
						<masterclipid>masterclip-12</masterclipid>
						<name>mktf-film-erikpoppe-r03.MXF</name>
						<enabled>TRUE</enabled>
						<duration>35028</duration>
						<rate>
							<ntsc>TRUE</ntsc>
							<timebase>30</timebase>
						</rate>
						<start>-1</start>
						<end>29437</end>
						<in>23527</in>
						<out>23574</out>
						<file id="file-12"/>
						<sourcetrack>
							<mediatype>audio</mediatype>
							<trackindex>2</trackindex>
						</sourcetrack>
							<filter>
								<effect>
									<name>Gain</name>
									<effectid>{61756678, 4761696e, 4b657947}</effectid>
									<effecttype>filter</effecttype>
									<mediatype>audio</mediatype>
									<parameter authoringApp="PremierePro">
										<parameterid>Gain(dB)</parameterid>
										<name>Gain(dB)</name>
										<valuemin>-96</valuemin>
										<valuemax>96</valuemax>
										<value>6</value>
									</parameter>
								</effect>
							</filter>
							<filter>
								<effect>
									<name>Audio Levels</name>
									<effectid>audiolevels</effectid>
									<effectcategory>audiolevels</effectcategory>
									<effecttype>audiolevels</effecttype>
									<mediatype>audio</mediatype>
									<parameter authoringApp="PremierePro">
										<parameterid>level</parameterid>
										<name>Level</name>
										<valuemin>0</valuemin>
										<valuemax>3.98109</valuemax>
										<value>0.99763</value>
										<keyframe>
											<when>24091</when>
											<value>0.99763</value>
										</keyframe>
										<keyframe>
											<when>24117</when>
											<value>0</value>
										</keyframe>
										<keyframe>
											<when>25272</when>
											<value>0</value>
										</keyframe>
										<keyframe>
											<when>25282</when>
											<value>1.33703</value>
										</keyframe>
										<keyframe>
											<when>25297</when>
											<value>1.31646</value>
										</keyframe>
										<keyframe>
											<when>25308</when>
											<value>0</value>
										</keyframe>
										<keyframe>
											<when>25754</when>
											<value>0</value>
										</keyframe>
										<keyframe>
											<when>25760</when>
											<value>1.46045</value>
										</keyframe>
										<keyframe>
											<when>25774</when>
											<value>1.46045</value>
										</keyframe>
										<keyframe>
											<when>25779</when>
											<value>0</value>
										</keyframe>
										<keyframe>
											<when>26581</when>
											<value>0</value>
										</keyframe>
										<keyframe>
											<when>26593</when>
											<value>1.25475</value>
										</keyframe>
										<keyframe>
											<when>27050</when>
											<value>1.25475</value>
										</keyframe>
										<keyframe>
											<when>27098</when>
											<value>0</value>
										</keyframe>
										<keyframe>
											<when>27175</when>
											<value>0</value>
										</keyframe>
										<keyframe>
											<when>27188</when>
											<value>1.27532</value>
										</keyframe>
										<keyframe>
											<when>27213</when>
											<value>1.27532</value>
										</keyframe>
										<keyframe>
											<when>27229</when>
											<value>0</value>
										</keyframe>
										<keyframe>
											<when>27545</when>
											<value>0</value>
										</keyframe>
										<keyframe>
											<when>27556</when>
											<value>1.72785</value>
										</keyframe>
										<keyframe>
											<when>27577</when>
											<value>1.72785</value>
										</keyframe>
										<keyframe>
											<when>27587</when>
											<value>0</value>
										</keyframe>
										<keyframe>
											<when>27895</when>
											<value>0</value>
										</keyframe>
										<keyframe>
											<when>27908</when>
											<value>1.58387</value>
										</keyframe>
										<keyframe>
											<when>27932</when>
											<value>1.58387</value>
										</keyframe>
										<keyframe>
											<when>27949</when>
											<value>0</value>
										</keyframe>
										<keyframe>
											<when>28001</when>
											<value>0</value>
										</keyframe>
										<keyframe>
											<when>28011</when>
											<value>1.37817</value>
										</keyframe>
										<keyframe>
											<when>28031</when>
											<value>1.37817</value>
										</keyframe>
										<keyframe>
											<when>28043</when>
											<value>0</value>
										</keyframe>
										<keyframe>
											<when>28482</when>
											<value>0</value>
										</keyframe>
										<keyframe>
											<when>28496</when>
											<value>1.09019</value>
										</keyframe>
										<keyframe>
											<when>28551</when>
											<value>1.09019</value>
										</keyframe>
										<keyframe>
											<when>28572</when>
											<value>0</value>
										</keyframe>
										<keyframe>
											<when>29573</when>
											<value>0</value>
										</keyframe>
										<keyframe>
											<when>29596</when>
											<value>1.06962</value>
										</keyframe>
										<keyframe>
											<when>29653</when>
											<value>1.06962</value>
										</keyframe>
										<keyframe>
											<when>29675</when>
											<value>0</value>
										</keyframe>
									</parameter>
								</effect>
							</filter>
							<filter>
								<effect>
									<name>Audio Pan</name>
									<effectid>audiopan</effectid>
									<effectcategory>audiopan</effectcategory>
									<effecttype>audiopan</effecttype>
									<mediatype>audio</mediatype>
									<parameter authoringApp="PremierePro">
										<parameterid>pan</parameterid>
										<name>Pan</name>
										<valuemin>-1</valuemin>
										<valuemax>1</valuemax>
										<value>0</value>
									</parameter>
								</effect>
							</filter>
						<link>
							<linkclipref>clipitem-51</linkclipref>
							<mediatype>video</mediatype>
							<trackindex>1</trackindex>
							<clipindex>56</clipindex>
						</link>
						<link>
							<linkclipref>clipitem-450</linkclipref>
							<mediatype>audio</mediatype>
							<trackindex>1</trackindex>
							<clipindex>56</clipindex>
							<groupindex>1</groupindex>
						</link>
						<link>
							<linkclipref>clipitem-517</linkclipref>
							<mediatype>audio</mediatype>
							<trackindex>2</trackindex>
							<clipindex>51</clipindex>
							<groupindex>1</groupindex>
						</link>
					</clipitem>
					<clipitem id="clipitem-518" frameBlend="FALSE" PannerCurrentValue="0.5" PannerKeyframes="" PannerStartKeyframe="-91445760000000000,0.5,0,0,0,0,0,0" PannerIsInverted="true" PannerName="Pan">
						<masterclipid>masterclip-12</masterclipid>
						<name>mktf-film-erikpoppe-r03.MXF</name>
						<enabled>TRUE</enabled>
						<duration>35028</duration>
						<rate>
							<ntsc>TRUE</ntsc>
							<timebase>30</timebase>
						</rate>
						<start>29437</start>
						<end>29531</end>
						<in>23574</in>
						<out>23668</out>
						<file id="file-12"/>
						<sourcetrack>
							<mediatype>audio</mediatype>
							<trackindex>2</trackindex>
						</sourcetrack>
							<filter>
								<effect>
									<name>Gain</name>
									<effectid>{61756678, 4761696e, 4b657947}</effectid>
									<effecttype>filter</effecttype>
									<mediatype>audio</mediatype>
									<parameter authoringApp="PremierePro">
										<parameterid>Gain(dB)</parameterid>
										<name>Gain(dB)</name>
										<valuemin>-96</valuemin>
										<valuemax>96</valuemax>
										<value>6</value>
									</parameter>
								</effect>
							</filter>
							<filter>
								<effect>
									<name>Audio Levels</name>
									<effectid>audiolevels</effectid>
									<effectcategory>audiolevels</effectcategory>
									<effecttype>audiolevels</effecttype>
									<mediatype>audio</mediatype>
									<parameter authoringApp="PremierePro">
										<parameterid>level</parameterid>
										<name>Level</name>
										<valuemin>0</valuemin>
										<valuemax>3.98109</valuemax>
										<value>0.99763</value>
										<keyframe>
											<when>24091</when>
											<value>0.99763</value>
										</keyframe>
										<keyframe>
											<when>24117</when>
											<value>0</value>
										</keyframe>
										<keyframe>
											<when>25272</when>
											<value>0</value>
										</keyframe>
										<keyframe>
											<when>25282</when>
											<value>1.33703</value>
										</keyframe>
										<keyframe>
											<when>25297</when>
											<value>1.31646</value>
										</keyframe>
										<keyframe>
											<when>25308</when>
											<value>0</value>
										</keyframe>
										<keyframe>
											<when>25754</when>
											<value>0</value>
										</keyframe>
										<keyframe>
											<when>25760</when>
											<value>1.46045</value>
										</keyframe>
										<keyframe>
											<when>25774</when>
											<value>1.46045</value>
										</keyframe>
										<keyframe>
											<when>25779</when>
											<value>0</value>
										</keyframe>
										<keyframe>
											<when>26581</when>
											<value>0</value>
										</keyframe>
										<keyframe>
											<when>26593</when>
											<value>1.25475</value>
										</keyframe>
										<keyframe>
											<when>27050</when>
											<value>1.25475</value>
										</keyframe>
										<keyframe>
											<when>27098</when>
											<value>0</value>
										</keyframe>
										<keyframe>
											<when>27175</when>
											<value>0</value>
										</keyframe>
										<keyframe>
											<when>27188</when>
											<value>1.27532</value>
										</keyframe>
										<keyframe>
											<when>27213</when>
											<value>1.27532</value>
										</keyframe>
										<keyframe>
											<when>27229</when>
											<value>0</value>
										</keyframe>
										<keyframe>
											<when>27545</when>
											<value>0</value>
										</keyframe>
										<keyframe>
											<when>27556</when>
											<value>1.72785</value>
										</keyframe>
										<keyframe>
											<when>27577</when>
											<value>1.72785</value>
										</keyframe>
										<keyframe>
											<when>27587</when>
											<value>0</value>
										</keyframe>
										<keyframe>
											<when>27895</when>
											<value>0</value>
										</keyframe>
										<keyframe>
											<when>27908</when>
											<value>1.58387</value>
										</keyframe>
										<keyframe>
											<when>27932</when>
											<value>1.58387</value>
										</keyframe>
										<keyframe>
											<when>27949</when>
											<value>0</value>
										</keyframe>
										<keyframe>
											<when>28001</when>
											<value>0</value>
										</keyframe>
										<keyframe>
											<when>28011</when>
											<value>1.37817</value>
										</keyframe>
										<keyframe>
											<when>28031</when>
											<value>1.37817</value>
										</keyframe>
										<keyframe>
											<when>28043</when>
											<value>0</value>
										</keyframe>
										<keyframe>
											<when>28482</when>
											<value>0</value>
										</keyframe>
										<keyframe>
											<when>28496</when>
											<value>1.09019</value>
										</keyframe>
										<keyframe>
											<when>28551</when>
											<value>1.09019</value>
										</keyframe>
										<keyframe>
											<when>28572</when>
											<value>0</value>
										</keyframe>
										<keyframe>
											<when>29573</when>
											<value>0</value>
										</keyframe>
										<keyframe>
											<when>29596</when>
											<value>1.06962</value>
										</keyframe>
										<keyframe>
											<when>29653</when>
											<value>1.06962</value>
										</keyframe>
										<keyframe>
											<when>29675</when>
											<value>0</value>
										</keyframe>
									</parameter>
								</effect>
							</filter>
							<filter>
								<effect>
									<name>Audio Pan</name>
									<effectid>audiopan</effectid>
									<effectcategory>audiopan</effectcategory>
									<effecttype>audiopan</effecttype>
									<mediatype>audio</mediatype>
									<parameter authoringApp="PremierePro">
										<parameterid>pan</parameterid>
										<name>Pan</name>
										<valuemin>-1</valuemin>
										<valuemax>1</valuemax>
										<value>0</value>
									</parameter>
								</effect>
							</filter>
					</clipitem>
					<clipitem id="clipitem-519" frameBlend="FALSE" PannerCurrentValue="0.5" PannerKeyframes="" PannerStartKeyframe="-91445760000000000,0.5,0,0,0,0,0,0" PannerIsInverted="true" PannerName="Pan">
						<masterclipid>masterclip-12</masterclipid>
						<name>mktf-film-erikpoppe-r03.MXF</name>
						<enabled>TRUE</enabled>
						<duration>35028</duration>
						<rate>
							<ntsc>TRUE</ntsc>
							<timebase>30</timebase>
						</rate>
						<start>29531</start>
						<end>31117</end>
						<in>23720</in>
						<out>25306</out>
						<file id="file-12"/>
						<sourcetrack>
							<mediatype>audio</mediatype>
							<trackindex>2</trackindex>
						</sourcetrack>
							<filter>
								<effect>
									<name>Gain</name>
									<effectid>{61756678, 4761696e, 4b657947}</effectid>
									<effecttype>filter</effecttype>
									<mediatype>audio</mediatype>
									<parameter authoringApp="PremierePro">
										<parameterid>Gain(dB)</parameterid>
										<name>Gain(dB)</name>
										<valuemin>-96</valuemin>
										<valuemax>96</valuemax>
										<value>8</value>
									</parameter>
								</effect>
							</filter>
							<filter>
								<effect>
									<name>Audio Levels</name>
									<effectid>audiolevels</effectid>
									<effectcategory>audiolevels</effectcategory>
									<effecttype>audiolevels</effecttype>
									<mediatype>audio</mediatype>
									<parameter authoringApp="PremierePro">
										<parameterid>level</parameterid>
										<name>Level</name>
										<valuemin>0</valuemin>
										<valuemax>3.98109</valuemax>
										<value>0.99763</value>
										<keyframe>
											<when>24091</when>
											<value>0.99763</value>
										</keyframe>
										<keyframe>
											<when>24117</when>
											<value>0</value>
										</keyframe>
										<keyframe>
											<when>25272</when>
											<value>0</value>
										</keyframe>
										<keyframe>
											<when>25282</when>
											<value>1.33703</value>
										</keyframe>
										<keyframe>
											<when>25297</when>
											<value>1.31646</value>
										</keyframe>
										<keyframe>
											<when>25308</when>
											<value>0</value>
										</keyframe>
										<keyframe>
											<when>25754</when>
											<value>0</value>
										</keyframe>
										<keyframe>
											<when>25760</when>
											<value>1.46045</value>
										</keyframe>
										<keyframe>
											<when>25774</when>
											<value>1.46045</value>
										</keyframe>
										<keyframe>
											<when>25779</when>
											<value>0</value>
										</keyframe>
										<keyframe>
											<when>26581</when>
											<value>0</value>
										</keyframe>
										<keyframe>
											<when>26593</when>
											<value>1.25475</value>
										</keyframe>
										<keyframe>
											<when>27050</when>
											<value>1.25475</value>
										</keyframe>
										<keyframe>
											<when>27098</when>
											<value>0</value>
										</keyframe>
										<keyframe>
											<when>27175</when>
											<value>0</value>
										</keyframe>
										<keyframe>
											<when>27188</when>
											<value>1.27532</value>
										</keyframe>
										<keyframe>
											<when>27213</when>
											<value>1.27532</value>
										</keyframe>
										<keyframe>
											<when>27229</when>
											<value>0</value>
										</keyframe>
										<keyframe>
											<when>27545</when>
											<value>0</value>
										</keyframe>
										<keyframe>
											<when>27556</when>
											<value>1.72785</value>
										</keyframe>
										<keyframe>
											<when>27577</when>
											<value>1.72785</value>
										</keyframe>
										<keyframe>
											<when>27587</when>
											<value>0</value>
										</keyframe>
										<keyframe>
											<when>27895</when>
											<value>0</value>
										</keyframe>
										<keyframe>
											<when>27908</when>
											<value>1.58387</value>
										</keyframe>
										<keyframe>
											<when>27932</when>
											<value>1.58387</value>
										</keyframe>
										<keyframe>
											<when>27949</when>
											<value>0</value>
										</keyframe>
										<keyframe>
											<when>28001</when>
											<value>0</value>
										</keyframe>
										<keyframe>
											<when>28011</when>
											<value>1.37817</value>
										</keyframe>
										<keyframe>
											<when>28031</when>
											<value>1.37817</value>
										</keyframe>
										<keyframe>
											<when>28043</when>
											<value>0</value>
										</keyframe>
										<keyframe>
											<when>28482</when>
											<value>0</value>
										</keyframe>
										<keyframe>
											<when>28496</when>
											<value>1.09019</value>
										</keyframe>
										<keyframe>
											<when>28551</when>
											<value>1.09019</value>
										</keyframe>
										<keyframe>
											<when>28572</when>
											<value>0</value>
										</keyframe>
										<keyframe>
											<when>29573</when>
											<value>0</value>
										</keyframe>
										<keyframe>
											<when>29596</when>
											<value>1.06962</value>
										</keyframe>
										<keyframe>
											<when>29653</when>
											<value>1.06962</value>
										</keyframe>
										<keyframe>
											<when>29675</when>
											<value>0</value>
										</keyframe>
									</parameter>
								</effect>
							</filter>
							<filter>
								<effect>
									<name>Audio Pan</name>
									<effectid>audiopan</effectid>
									<effectcategory>audiopan</effectcategory>
									<effecttype>audiopan</effecttype>
									<mediatype>audio</mediatype>
									<parameter authoringApp="PremierePro">
										<parameterid>pan</parameterid>
										<name>Pan</name>
										<valuemin>-1</valuemin>
										<valuemax>1</valuemax>
										<value>0</value>
									</parameter>
								</effect>
							</filter>
						<link>
							<linkclipref>clipitem-53</linkclipref>
							<mediatype>video</mediatype>
							<trackindex>1</trackindex>
							<clipindex>58</clipindex>
						</link>
						<link>
							<linkclipref>clipitem-451</linkclipref>
							<mediatype>audio</mediatype>
							<trackindex>1</trackindex>
							<clipindex>57</clipindex>
							<groupindex>1</groupindex>
						</link>
						<link>
							<linkclipref>clipitem-519</linkclipref>
							<mediatype>audio</mediatype>
							<trackindex>2</trackindex>
							<clipindex>53</clipindex>
							<groupindex>1</groupindex>
						</link>
					</clipitem>
					<clipitem id="clipitem-520" frameBlend="FALSE" PannerCurrentValue="0.5" PannerKeyframes="" PannerStartKeyframe="-91445760000000000,0.5,0,0,0,0,0,0" PannerIsInverted="true" PannerName="Pan">
						<masterclipid>masterclip-12</masterclipid>
						<name>mktf-film-erikpoppe-r03.MXF</name>
						<enabled>TRUE</enabled>
						<duration>35028</duration>
						<rate>
							<ntsc>TRUE</ntsc>
							<timebase>30</timebase>
						</rate>
						<start>31117</start>
						<end>32368</end>
						<in>25342</in>
						<out>26593</out>
						<file id="file-12"/>
						<sourcetrack>
							<mediatype>audio</mediatype>
							<trackindex>2</trackindex>
						</sourcetrack>
							<filter>
								<effect>
									<name>Gain</name>
									<effectid>{61756678, 4761696e, 4b657947}</effectid>
									<effecttype>filter</effecttype>
									<mediatype>audio</mediatype>
									<parameter authoringApp="PremierePro">
										<parameterid>Gain(dB)</parameterid>
										<name>Gain(dB)</name>
										<valuemin>-96</valuemin>
										<valuemax>96</valuemax>
										<value>3</value>
									</parameter>
								</effect>
							</filter>
							<filter>
								<effect>
									<name>Audio Levels</name>
									<effectid>audiolevels</effectid>
									<effectcategory>audiolevels</effectcategory>
									<effecttype>audiolevels</effecttype>
									<mediatype>audio</mediatype>
									<parameter authoringApp="PremierePro">
										<parameterid>level</parameterid>
										<name>Level</name>
										<valuemin>0</valuemin>
										<valuemax>3.98109</valuemax>
										<value>0</value>
										<keyframe>
											<when>24091</when>
											<value>0.99763</value>
										</keyframe>
										<keyframe>
											<when>24117</when>
											<value>0</value>
										</keyframe>
										<keyframe>
											<when>25272</when>
											<value>0</value>
										</keyframe>
										<keyframe>
											<when>25282</when>
											<value>1.33703</value>
										</keyframe>
										<keyframe>
											<when>25297</when>
											<value>1.31646</value>
										</keyframe>
										<keyframe>
											<when>25308</when>
											<value>0</value>
										</keyframe>
										<keyframe>
											<when>25754</when>
											<value>0</value>
										</keyframe>
										<keyframe>
											<when>25760</when>
											<value>1.46045</value>
										</keyframe>
										<keyframe>
											<when>25774</when>
											<value>1.46045</value>
										</keyframe>
										<keyframe>
											<when>25779</when>
											<value>0</value>
										</keyframe>
										<keyframe>
											<when>26581</when>
											<value>0</value>
										</keyframe>
										<keyframe>
											<when>26593</when>
											<value>1.25475</value>
										</keyframe>
										<keyframe>
											<when>27050</when>
											<value>1.25475</value>
										</keyframe>
										<keyframe>
											<when>27098</when>
											<value>0</value>
										</keyframe>
										<keyframe>
											<when>27175</when>
											<value>0</value>
										</keyframe>
										<keyframe>
											<when>27188</when>
											<value>1.27532</value>
										</keyframe>
										<keyframe>
											<when>27213</when>
											<value>1.27532</value>
										</keyframe>
										<keyframe>
											<when>27229</when>
											<value>0</value>
										</keyframe>
										<keyframe>
											<when>27545</when>
											<value>0</value>
										</keyframe>
										<keyframe>
											<when>27556</when>
											<value>1.72785</value>
										</keyframe>
										<keyframe>
											<when>27577</when>
											<value>1.72785</value>
										</keyframe>
										<keyframe>
											<when>27587</when>
											<value>0</value>
										</keyframe>
										<keyframe>
											<when>27895</when>
											<value>0</value>
										</keyframe>
										<keyframe>
											<when>27908</when>
											<value>1.58387</value>
										</keyframe>
										<keyframe>
											<when>27932</when>
											<value>1.58387</value>
										</keyframe>
										<keyframe>
											<when>27949</when>
											<value>0</value>
										</keyframe>
										<keyframe>
											<when>28001</when>
											<value>0</value>
										</keyframe>
										<keyframe>
											<when>28011</when>
											<value>1.37817</value>
										</keyframe>
										<keyframe>
											<when>28031</when>
											<value>1.37817</value>
										</keyframe>
										<keyframe>
											<when>28043</when>
											<value>0</value>
										</keyframe>
										<keyframe>
											<when>28482</when>
											<value>0</value>
										</keyframe>
										<keyframe>
											<when>28496</when>
											<value>1.09019</value>
										</keyframe>
										<keyframe>
											<when>28551</when>
											<value>1.09019</value>
										</keyframe>
										<keyframe>
											<when>28572</when>
											<value>0</value>
										</keyframe>
										<keyframe>
											<when>29573</when>
											<value>0</value>
										</keyframe>
										<keyframe>
											<when>29596</when>
											<value>1.06962</value>
										</keyframe>
										<keyframe>
											<when>29653</when>
											<value>1.06962</value>
										</keyframe>
										<keyframe>
											<when>29675</when>
											<value>0</value>
										</keyframe>
									</parameter>
								</effect>
							</filter>
							<filter>
								<effect>
									<name>Audio Pan</name>
									<effectid>audiopan</effectid>
									<effectcategory>audiopan</effectcategory>
									<effecttype>audiopan</effecttype>
									<mediatype>audio</mediatype>
									<parameter authoringApp="PremierePro">
										<parameterid>pan</parameterid>
										<name>Pan</name>
										<valuemin>-1</valuemin>
										<valuemax>1</valuemax>
										<value>0</value>
									</parameter>
								</effect>
							</filter>
					</clipitem>
					<clipitem id="clipitem-521" frameBlend="FALSE" PannerCurrentValue="0.5" PannerKeyframes="" PannerStartKeyframe="-91445760000000000,0.5,0,0,0,0,0,0" PannerIsInverted="true" PannerName="Pan">
						<masterclipid>masterclip-12</masterclipid>
						<name>mktf-film-erikpoppe-r03.MXF</name>
						<enabled>TRUE</enabled>
						<duration>35028</duration>
						<rate>
							<ntsc>TRUE</ntsc>
							<timebase>30</timebase>
						</rate>
						<start>32368</start>
						<end>-1</end>
						<in>28498</in>
						<out>29884</out>
						<file id="file-12"/>
						<sourcetrack>
							<mediatype>audio</mediatype>
							<trackindex>2</trackindex>
						</sourcetrack>
							<filter>
								<effect>
									<name>Gain</name>
									<effectid>{61756678, 4761696e, 4b657947}</effectid>
									<effecttype>filter</effecttype>
									<mediatype>audio</mediatype>
									<parameter authoringApp="PremierePro">
										<parameterid>Gain(dB)</parameterid>
										<name>Gain(dB)</name>
										<valuemin>-96</valuemin>
										<valuemax>96</valuemax>
										<value>3</value>
									</parameter>
								</effect>
							</filter>
							<filter>
								<effect>
									<name>Audio Levels</name>
									<effectid>audiolevels</effectid>
									<effectcategory>audiolevels</effectcategory>
									<effecttype>audiolevels</effecttype>
									<mediatype>audio</mediatype>
									<parameter authoringApp="PremierePro">
										<parameterid>level</parameterid>
										<name>Level</name>
										<valuemin>0</valuemin>
										<valuemax>3.98109</valuemax>
										<value>1.09019</value>
										<keyframe>
											<when>24091</when>
											<value>0.99763</value>
										</keyframe>
										<keyframe>
											<when>24117</when>
											<value>0</value>
										</keyframe>
										<keyframe>
											<when>25272</when>
											<value>0</value>
										</keyframe>
										<keyframe>
											<when>25282</when>
											<value>1.33703</value>
										</keyframe>
										<keyframe>
											<when>25297</when>
											<value>1.31646</value>
										</keyframe>
										<keyframe>
											<when>25308</when>
											<value>0</value>
										</keyframe>
										<keyframe>
											<when>25754</when>
											<value>0</value>
										</keyframe>
										<keyframe>
											<when>25760</when>
											<value>1.46045</value>
										</keyframe>
										<keyframe>
											<when>25774</when>
											<value>1.46045</value>
										</keyframe>
										<keyframe>
											<when>25779</when>
											<value>0</value>
										</keyframe>
										<keyframe>
											<when>26581</when>
											<value>0</value>
										</keyframe>
										<keyframe>
											<when>26593</when>
											<value>1.25475</value>
										</keyframe>
										<keyframe>
											<when>27050</when>
											<value>1.25475</value>
										</keyframe>
										<keyframe>
											<when>27098</when>
											<value>0</value>
										</keyframe>
										<keyframe>
											<when>27175</when>
											<value>0</value>
										</keyframe>
										<keyframe>
											<when>27188</when>
											<value>1.27532</value>
										</keyframe>
										<keyframe>
											<when>27213</when>
											<value>1.27532</value>
										</keyframe>
										<keyframe>
											<when>27229</when>
											<value>0</value>
										</keyframe>
										<keyframe>
											<when>27545</when>
											<value>0</value>
										</keyframe>
										<keyframe>
											<when>27556</when>
											<value>1.72785</value>
										</keyframe>
										<keyframe>
											<when>27577</when>
											<value>1.72785</value>
										</keyframe>
										<keyframe>
											<when>27587</when>
											<value>0</value>
										</keyframe>
										<keyframe>
											<when>27895</when>
											<value>0</value>
										</keyframe>
										<keyframe>
											<when>27908</when>
											<value>1.58387</value>
										</keyframe>
										<keyframe>
											<when>27932</when>
											<value>1.58387</value>
										</keyframe>
										<keyframe>
											<when>27949</when>
											<value>0</value>
										</keyframe>
										<keyframe>
											<when>28001</when>
											<value>0</value>
										</keyframe>
										<keyframe>
											<when>28011</when>
											<value>1.37817</value>
										</keyframe>
										<keyframe>
											<when>28031</when>
											<value>1.37817</value>
										</keyframe>
										<keyframe>
											<when>28043</when>
											<value>0</value>
										</keyframe>
										<keyframe>
											<when>28482</when>
											<value>0</value>
										</keyframe>
										<keyframe>
											<when>28496</when>
											<value>1.09019</value>
										</keyframe>
										<keyframe>
											<when>28551</when>
											<value>1.09019</value>
										</keyframe>
										<keyframe>
											<when>28572</when>
											<value>0</value>
										</keyframe>
										<keyframe>
											<when>29573</when>
											<value>0</value>
										</keyframe>
										<keyframe>
											<when>29596</when>
											<value>1.06962</value>
										</keyframe>
										<keyframe>
											<when>29653</when>
											<value>1.06962</value>
										</keyframe>
										<keyframe>
											<when>29675</when>
											<value>0</value>
										</keyframe>
									</parameter>
								</effect>
							</filter>
							<filter>
								<effect>
									<name>Audio Pan</name>
									<effectid>audiopan</effectid>
									<effectcategory>audiopan</effectcategory>
									<effecttype>audiopan</effecttype>
									<mediatype>audio</mediatype>
									<parameter authoringApp="PremierePro">
										<parameterid>pan</parameterid>
										<name>Pan</name>
										<valuemin>-1</valuemin>
										<valuemax>1</valuemax>
										<value>0</value>
									</parameter>
								</effect>
							</filter>
						<link>
							<linkclipref>clipitem-55</linkclipref>
							<mediatype>video</mediatype>
							<trackindex>1</trackindex>
							<clipindex>60</clipindex>
						</link>
						<link>
							<linkclipref>clipitem-453</linkclipref>
							<mediatype>audio</mediatype>
							<trackindex>1</trackindex>
							<clipindex>59</clipindex>
							<groupindex>1</groupindex>
						</link>
						<link>
							<linkclipref>clipitem-521</linkclipref>
							<mediatype>audio</mediatype>
							<trackindex>2</trackindex>
							<clipindex>55</clipindex>
							<groupindex>1</groupindex>
						</link>
					</clipitem>
					<transitionitem>
						<start>33747</start>
						<end>33754</end>
						<alignment>center</alignment>
						<cutPoint>3</cutPoint>
						<rate>
							<timebase>25</timebase>
							<ntsc>FALSE</ntsc>
						</rate>
						<effect>
							<name>Cross Fade (+3dB)</name>
							<effectid>KGAudioTransCrossFade3dB</effectid>
							<effecttype>transition</effecttype>
							<mediatype>audio</mediatype>
							<wipecode>0</wipecode>
							<wipeaccuracy>100</wipeaccuracy>
							<startratio>0</startratio>
							<endratio>1</endratio>
							<reverse>FALSE</reverse>
						</effect>
					</transitionitem>
					<clipitem id="clipitem-522" frameBlend="FALSE" PannerCurrentValue="0.5" PannerKeyframes="" PannerStartKeyframe="-91445760000000000,0.5,0,0,0,0,0,0" PannerIsInverted="true" PannerName="Pan">
						<masterclipid>masterclip-32</masterclipid>
						<name>mktf-film-erikpoppe-r09.MXF</name>
						<enabled>TRUE</enabled>
						<duration>37380</duration>
						<rate>
							<ntsc>TRUE</ntsc>
							<timebase>30</timebase>
						</rate>
						<start>-1</start>
						<end>33821</end>
						<in>3253</in>
						<out>3327</out>
						<file id="file-32"/>
						<sourcetrack>
							<mediatype>audio</mediatype>
							<trackindex>1</trackindex>
						</sourcetrack>
							<filter>
								<effect>
									<name>Audio Levels</name>
									<effectid>audiolevels</effectid>
									<effectcategory>audiolevels</effectcategory>
									<effecttype>audiolevels</effecttype>
									<mediatype>audio</mediatype>
									<parameter authoringApp="PremierePro">
										<parameterid>level</parameterid>
										<name>Level</name>
										<valuemin>0</valuemin>
										<valuemax>3.98109</valuemax>
										<value>0</value>
										<keyframe>
											<when>3263</when>
											<value>1.0089</value>
										</keyframe>
										<keyframe>
											<when>3288</when>
											<value>0.99763</value>
										</keyframe>
										<keyframe>
											<when>3319</when>
											<value>0</value>
										</keyframe>
									</parameter>
								</effect>
							</filter>
							<filter>
								<effect>
									<name>Audio Pan</name>
									<effectid>audiopan</effectid>
									<effectcategory>audiopan</effectcategory>
									<effecttype>audiopan</effecttype>
									<mediatype>audio</mediatype>
									<parameter authoringApp="PremierePro">
										<parameterid>pan</parameterid>
										<name>Pan</name>
										<valuemin>-1</valuemin>
										<valuemax>1</valuemax>
										<value>0</value>
									</parameter>
								</effect>
							</filter>
					</clipitem>
					<clipitem id="clipitem-523" frameBlend="FALSE" PannerCurrentValue="0.5" PannerKeyframes="" PannerStartKeyframe="-91445760000000000,0.5,0,0,0,0,0,0" PannerIsInverted="true" PannerName="Pan">
						<masterclipid>masterclip-14</masterclipid>
						<name>C0091.mov</name>
						<enabled>TRUE</enabled>
						<duration>42484</duration>
						<rate>
							<ntsc>TRUE</ntsc>
							<timebase>30</timebase>
						</rate>
						<start>35226</start>
						<end>35558</end>
						<in>2597</in>
						<out>2929</out>
						<file id="file-14"/>
						<sourcetrack>
							<mediatype>audio</mediatype>
							<trackindex>2</trackindex>
						</sourcetrack>
							<filter>
								<effect>
									<name>Audio Levels</name>
									<effectid>audiolevels</effectid>
									<effectcategory>audiolevels</effectcategory>
									<effecttype>audiolevels</effecttype>
									<mediatype>audio</mediatype>
									<parameter authoringApp="PremierePro">
										<parameterid>level</parameterid>
										<name>Level</name>
										<valuemin>0</valuemin>
										<valuemax>3.98109</valuemax>
										<value>0</value>
									</parameter>
								</effect>
							</filter>
							<filter>
								<effect>
									<name>Audio Pan</name>
									<effectid>audiopan</effectid>
									<effectcategory>audiopan</effectcategory>
									<effecttype>audiopan</effecttype>
									<mediatype>audio</mediatype>
									<parameter authoringApp="PremierePro">
										<parameterid>pan</parameterid>
										<name>Pan</name>
										<valuemin>-1</valuemin>
										<valuemax>1</valuemax>
										<value>0</value>
									</parameter>
								</effect>
							</filter>
						<link>
							<linkclipref>clipitem-58</linkclipref>
							<mediatype>video</mediatype>
							<trackindex>1</trackindex>
							<clipindex>63</clipindex>
						</link>
						<link>
							<linkclipref>clipitem-456</linkclipref>
							<mediatype>audio</mediatype>
							<trackindex>1</trackindex>
							<clipindex>62</clipindex>
							<groupindex>1</groupindex>
						</link>
						<link>
							<linkclipref>clipitem-523</linkclipref>
							<mediatype>audio</mediatype>
							<trackindex>2</trackindex>
							<clipindex>58</clipindex>
							<groupindex>1</groupindex>
						</link>
						<link>
							<linkclipref>clipitem-539</linkclipref>
							<mediatype>audio</mediatype>
							<trackindex>3</trackindex>
							<clipindex>4</clipindex>
							<groupindex>1</groupindex>
						</link>
					</clipitem>
					<transitionitem>
						<start>36434</start>
						<end>36459</end>
						<alignment>start-black</alignment>
						<cutPoint>0</cutPoint>
						<rate>
							<timebase>25</timebase>
							<ntsc>FALSE</ntsc>
						</rate>
						<effect>
							<name>Cross Fade (+3dB)</name>
							<effectid>KGAudioTransCrossFade3dB</effectid>
							<effecttype>transition</effecttype>
							<mediatype>audio</mediatype>
							<wipecode>0</wipecode>
							<wipeaccuracy>100</wipeaccuracy>
							<startratio>0</startratio>
							<endratio>1</endratio>
							<reverse>FALSE</reverse>
						</effect>
					</transitionitem>
					<clipitem id="clipitem-524" frameBlend="FALSE" PannerCurrentValue="0" PannerKeyframes="1280240640000,0.,0,0,0,0.16666666666666665741480812812,0,0.16666666666666665741480812812;" PannerStartKeyframe="-91445760000000000,0.5,0,0,0,0,0,0" PannerIsInverted="true" PannerName="Pan">
						<masterclipid>masterclip-16</masterclipid>
						<name>C0075.mov</name>
						<enabled>TRUE</enabled>
						<duration>195</duration>
						<rate>
							<ntsc>TRUE</ntsc>
							<timebase>30</timebase>
						</rate>
						<start>-1</start>
						<end>36503</end>
						<in>0</in>
						<out>69</out>
						<file id="file-16"/>
						<sourcetrack>
							<mediatype>audio</mediatype>
							<trackindex>4</trackindex>
						</sourcetrack>
							<filter>
								<effect>
									<name>Audio Levels</name>
									<effectid>audiolevels</effectid>
									<effectcategory>audiolevels</effectcategory>
									<effecttype>audiolevels</effecttype>
									<mediatype>audio</mediatype>
									<parameter authoringApp="PremierePro">
										<parameterid>level</parameterid>
										<name>Level</name>
										<valuemin>0</valuemin>
										<valuemax>3.98109</valuemax>
										<value>0.0504604</value>
									</parameter>
								</effect>
							</filter>
							<filter>
								<effect>
									<name>Audio Pan</name>
									<effectid>audiopan</effectid>
									<effectcategory>audiopan</effectcategory>
									<effecttype>audiopan</effecttype>
									<mediatype>audio</mediatype>
									<parameter authoringApp="PremierePro">
										<parameterid>pan</parameterid>
										<name>Pan</name>
										<valuemin>-1</valuemin>
										<valuemax>1</valuemax>
										<value>-1</value>
										<keyframe>
											<when>126</when>
											<value>-1</value>
										</keyframe>
									</parameter>
								</effect>
							</filter>
					</clipitem>
					<clipitem id="clipitem-525" frameBlend="FALSE" PannerCurrentValue="0" PannerKeyframes="325140480000,0.,0,0,0,0.16666666666666665741480812812,0,0.16666666666666665741480812812;" PannerStartKeyframe="-91445760000000000,0.5,0,0,0,0,0,0" PannerIsInverted="true" PannerName="Pan">
						<masterclipid>masterclip-17</masterclipid>
						<name>C0076.mov</name>
						<enabled>TRUE</enabled>
						<duration>228</duration>
						<rate>
							<ntsc>TRUE</ntsc>
							<timebase>30</timebase>
						</rate>
						<start>36503</start>
						<end>36544</end>
						<in>139</in>
						<out>180</out>
						<file id="file-17"/>
						<sourcetrack>
							<mediatype>audio</mediatype>
							<trackindex>4</trackindex>
						</sourcetrack>
							<filter>
								<effect>
									<name>Audio Levels</name>
									<effectid>audiolevels</effectid>
									<effectcategory>audiolevels</effectcategory>
									<effecttype>audiolevels</effecttype>
									<mediatype>audio</mediatype>
									<parameter authoringApp="PremierePro">
										<parameterid>level</parameterid>
										<name>Level</name>
										<valuemin>0</valuemin>
										<valuemax>3.98109</valuemax>
										<value>0.0429101</value>
									</parameter>
								</effect>
							</filter>
							<filter>
								<effect>
									<name>Audio Pan</name>
									<effectid>audiopan</effectid>
									<effectcategory>audiopan</effectcategory>
									<effecttype>audiopan</effecttype>
									<mediatype>audio</mediatype>
									<parameter authoringApp="PremierePro">
										<parameterid>pan</parameterid>
										<name>Pan</name>
										<valuemin>-1</valuemin>
										<valuemax>1</valuemax>
										<value>-1</value>
										<keyframe>
											<when>32</when>
											<value>-1</value>
										</keyframe>
									</parameter>
								</effect>
							</filter>
					</clipitem>
					<clipitem id="clipitem-526" frameBlend="FALSE" PannerCurrentValue="0" PannerKeyframes="680762880000,0.,0,0,0,0.16666666666666665741480812812,0,0.16666666666666665741480812812;" PannerStartKeyframe="-91445760000000000,0.5,0,0,0,0,0,0" PannerIsInverted="true" PannerName="Pan">
						<masterclipid>masterclip-18</masterclipid>
						<name>C0088.mov</name>
						<enabled>TRUE</enabled>
						<duration>272</duration>
						<rate>
							<ntsc>TRUE</ntsc>
							<timebase>30</timebase>
						</rate>
						<start>36544</start>
						<end>36598</end>
						<in>142</in>
						<out>196</out>
						<file id="file-18"/>
						<sourcetrack>
							<mediatype>audio</mediatype>
							<trackindex>4</trackindex>
						</sourcetrack>
							<filter>
								<effect>
									<name>Audio Levels</name>
									<effectid>audiolevels</effectid>
									<effectcategory>audiolevels</effectcategory>
									<effecttype>audiolevels</effecttype>
									<mediatype>audio</mediatype>
									<parameter authoringApp="PremierePro">
										<parameterid>level</parameterid>
										<name>Level</name>
										<valuemin>0</valuemin>
										<valuemax>3.98109</valuemax>
										<value>0.0429101</value>
									</parameter>
								</effect>
							</filter>
							<filter>
								<effect>
									<name>Audio Pan</name>
									<effectid>audiopan</effectid>
									<effectcategory>audiopan</effectcategory>
									<effecttype>audiopan</effecttype>
									<mediatype>audio</mediatype>
									<parameter authoringApp="PremierePro">
										<parameterid>pan</parameterid>
										<name>Pan</name>
										<valuemin>-1</valuemin>
										<valuemax>1</valuemax>
										<value>-1</value>
										<keyframe>
											<when>67</when>
											<value>-1</value>
										</keyframe>
									</parameter>
								</effect>
							</filter>
					</clipitem>
					<clipitem id="clipitem-527" frameBlend="FALSE" PannerCurrentValue="0" PannerKeyframes="152409600000,0.,0,0,0,0.16666666666666665741480812812,0,0.16666666666666665741480812812;" PannerStartKeyframe="-91445760000000000,0.5,0,0,0,0,0,0" PannerIsInverted="true" PannerName="Pan">
						<masterclipid>masterclip-19</masterclipid>
						<name>C0054.mov</name>
						<enabled>TRUE</enabled>
						<duration>130</duration>
						<rate>
							<ntsc>TRUE</ntsc>
							<timebase>30</timebase>
						</rate>
						<start>36598</start>
						<end>36685</end>
						<in>43</in>
						<out>130</out>
						<file id="file-19"/>
						<sourcetrack>
							<mediatype>audio</mediatype>
							<trackindex>4</trackindex>
						</sourcetrack>
							<filter>
								<effect>
									<name>Audio Levels</name>
									<effectid>audiolevels</effectid>
									<effectcategory>audiolevels</effectcategory>
									<effecttype>audiolevels</effecttype>
									<mediatype>audio</mediatype>
									<parameter authoringApp="PremierePro">
										<parameterid>level</parameterid>
										<name>Level</name>
										<valuemin>0</valuemin>
										<valuemax>3.98109</valuemax>
										<value>0.0429101</value>
									</parameter>
								</effect>
							</filter>
							<filter>
								<effect>
									<name>Audio Pan</name>
									<effectid>audiopan</effectid>
									<effectcategory>audiopan</effectcategory>
									<effecttype>audiopan</effecttype>
									<mediatype>audio</mediatype>
									<parameter authoringApp="PremierePro">
										<parameterid>pan</parameterid>
										<name>Pan</name>
										<valuemin>-1</valuemin>
										<valuemax>1</valuemax>
										<value>-1</value>
										<keyframe>
											<when>15</when>
											<value>-1</value>
										</keyframe>
									</parameter>
								</effect>
							</filter>
					</clipitem>
					<clipitem id="clipitem-528" frameBlend="FALSE" PannerCurrentValue="0.5" PannerKeyframes="" PannerStartKeyframe="-91445760000000000,0.5,0,0,0,0,0,0" PannerIsInverted="true" PannerName="Pan">
						<masterclipid>masterclip-20</masterclipid>
						<name>C0034.mov</name>
						<enabled>TRUE</enabled>
						<duration>354</duration>
						<rate>
							<ntsc>TRUE</ntsc>
							<timebase>30</timebase>
						</rate>
						<start>36891</start>
						<end>36980</end>
						<in>37</in>
						<out>126</out>
						<file id="file-20"/>
						<sourcetrack>
							<mediatype>audio</mediatype>
							<trackindex>4</trackindex>
						</sourcetrack>
							<filter>
								<effect>
									<name>Audio Levels</name>
									<effectid>audiolevels</effectid>
									<effectcategory>audiolevels</effectcategory>
									<effecttype>audiolevels</effecttype>
									<mediatype>audio</mediatype>
									<parameter authoringApp="PremierePro">
										<parameterid>level</parameterid>
										<name>Level</name>
										<valuemin>0</valuemin>
										<valuemax>3.98109</valuemax>
										<value>0.0887832</value>
									</parameter>
								</effect>
							</filter>
							<filter>
								<effect>
									<name>Audio Pan</name>
									<effectid>audiopan</effectid>
									<effectcategory>audiopan</effectcategory>
									<effecttype>audiopan</effecttype>
									<mediatype>audio</mediatype>
									<parameter authoringApp="PremierePro">
										<parameterid>pan</parameterid>
										<name>Pan</name>
										<valuemin>-1</valuemin>
										<valuemax>1</valuemax>
										<value>0</value>
									</parameter>
								</effect>
							</filter>
						<link>
							<linkclipref>clipitem-64</linkclipref>
							<mediatype>video</mediatype>
							<trackindex>1</trackindex>
							<clipindex>70</clipindex>
						</link>
						<link>
							<linkclipref>clipitem-462</linkclipref>
							<mediatype>audio</mediatype>
							<trackindex>1</trackindex>
							<clipindex>69</clipindex>
							<groupindex>1</groupindex>
						</link>
						<link>
							<linkclipref>clipitem-528</linkclipref>
							<mediatype>audio</mediatype>
							<trackindex>2</trackindex>
							<clipindex>64</clipindex>
							<groupindex>1</groupindex>
						</link>
					</clipitem>
					<clipitem id="clipitem-529" frameBlend="FALSE" PannerCurrentValue="0.5" PannerKeyframes="" PannerStartKeyframe="-91445760000000000,0.5,0,0,0,0,0,0" PannerIsInverted="true" PannerName="Pan">
						<masterclipid>masterclip-21</masterclipid>
						<name>C0005.mov</name>
						<enabled>TRUE</enabled>
						<duration>158</duration>
						<rate>
							<ntsc>TRUE</ntsc>
							<timebase>30</timebase>
						</rate>
						<start>36980</start>
						<end>37024</end>
						<in>94</in>
						<out>138</out>
						<file id="file-21"/>
						<sourcetrack>
							<mediatype>audio</mediatype>
							<trackindex>4</trackindex>
						</sourcetrack>
							<filter>
								<effect>
									<name>Audio Levels</name>
									<effectid>audiolevels</effectid>
									<effectcategory>audiolevels</effectcategory>
									<effecttype>audiolevels</effecttype>
									<mediatype>audio</mediatype>
									<parameter authoringApp="PremierePro">
										<parameterid>level</parameterid>
										<name>Level</name>
										<valuemin>0</valuemin>
										<valuemax>3.98109</valuemax>
										<value>0.0855242</value>
									</parameter>
								</effect>
							</filter>
							<filter>
								<effect>
									<name>Audio Pan</name>
									<effectid>audiopan</effectid>
									<effectcategory>audiopan</effectcategory>
									<effecttype>audiopan</effecttype>
									<mediatype>audio</mediatype>
									<parameter authoringApp="PremierePro">
										<parameterid>pan</parameterid>
										<name>Pan</name>
										<valuemin>-1</valuemin>
										<valuemax>1</valuemax>
										<value>0</value>
									</parameter>
								</effect>
							</filter>
						<link>
							<linkclipref>clipitem-65</linkclipref>
							<mediatype>video</mediatype>
							<trackindex>1</trackindex>
							<clipindex>71</clipindex>
						</link>
						<link>
							<linkclipref>clipitem-463</linkclipref>
							<mediatype>audio</mediatype>
							<trackindex>1</trackindex>
							<clipindex>70</clipindex>
							<groupindex>1</groupindex>
						</link>
						<link>
							<linkclipref>clipitem-529</linkclipref>
							<mediatype>audio</mediatype>
							<trackindex>2</trackindex>
							<clipindex>65</clipindex>
							<groupindex>1</groupindex>
						</link>
					</clipitem>
					<clipitem id="clipitem-530" frameBlend="FALSE" PannerCurrentValue="0.5" PannerKeyframes="" PannerStartKeyframe="-91445760000000000,0.5,0,0,0,0,0,0" PannerIsInverted="true" PannerName="Pan">
						<masterclipid>masterclip-22</masterclipid>
						<name>C0003.mov</name>
						<enabled>TRUE</enabled>
						<duration>160</duration>
						<rate>
							<ntsc>TRUE</ntsc>
							<timebase>30</timebase>
						</rate>
						<start>37024</start>
						<end>37102</end>
						<in>53</in>
						<out>131</out>
						<file id="file-22"/>
						<sourcetrack>
							<mediatype>audio</mediatype>
							<trackindex>4</trackindex>
						</sourcetrack>
							<filter>
								<effect>
									<name>Audio Levels</name>
									<effectid>audiolevels</effectid>
									<effectcategory>audiolevels</effectcategory>
									<effecttype>audiolevels</effecttype>
									<mediatype>audio</mediatype>
									<parameter authoringApp="PremierePro">
										<parameterid>level</parameterid>
										<name>Level</name>
										<valuemin>0</valuemin>
										<valuemax>3.98109</valuemax>
										<value>0.0887832</value>
									</parameter>
								</effect>
							</filter>
							<filter>
								<effect>
									<name>Audio Pan</name>
									<effectid>audiopan</effectid>
									<effectcategory>audiopan</effectcategory>
									<effecttype>audiopan</effecttype>
									<mediatype>audio</mediatype>
									<parameter authoringApp="PremierePro">
										<parameterid>pan</parameterid>
										<name>Pan</name>
										<valuemin>-1</valuemin>
										<valuemax>1</valuemax>
										<value>0</value>
									</parameter>
								</effect>
							</filter>
						<link>
							<linkclipref>clipitem-66</linkclipref>
							<mediatype>video</mediatype>
							<trackindex>1</trackindex>
							<clipindex>72</clipindex>
						</link>
						<link>
							<linkclipref>clipitem-464</linkclipref>
							<mediatype>audio</mediatype>
							<trackindex>1</trackindex>
							<clipindex>71</clipindex>
							<groupindex>1</groupindex>
						</link>
						<link>
							<linkclipref>clipitem-530</linkclipref>
							<mediatype>audio</mediatype>
							<trackindex>2</trackindex>
							<clipindex>66</clipindex>
							<groupindex>1</groupindex>
						</link>
					</clipitem>
					<clipitem id="clipitem-531" frameBlend="FALSE" PannerCurrentValue="0.5" PannerKeyframes="" PannerStartKeyframe="-91445760000000000,0.5,0,0,0,0,0,0" PannerIsInverted="true" PannerName="Pan">
						<masterclipid>masterclip-23</masterclipid>
						<name>C0011.mov</name>
						<enabled>TRUE</enabled>
						<duration>159</duration>
						<rate>
							<ntsc>TRUE</ntsc>
							<timebase>30</timebase>
						</rate>
						<start>37102</start>
						<end>37229</end>
						<in>4</in>
						<out>159</out>
						<file id="file-23"/>
						<sourcetrack>
							<mediatype>audio</mediatype>
							<trackindex>4</trackindex>
						</sourcetrack>
							<filter>
								<effect>
									<name>Audio Levels</name>
									<effectid>audiolevels</effectid>
									<effectcategory>audiolevels</effectcategory>
									<effecttype>audiolevels</effecttype>
									<mediatype>audio</mediatype>
									<parameter authoringApp="PremierePro">
										<parameterid>level</parameterid>
										<name>Level</name>
										<valuemin>0</valuemin>
										<valuemax>3.98109</valuemax>
										<value>0.0855242</value>
									</parameter>
								</effect>
							</filter>
							<filter>
								<effect>
									<name>Audio Pan</name>
									<effectid>audiopan</effectid>
									<effectcategory>audiopan</effectcategory>
									<effecttype>audiopan</effecttype>
									<mediatype>audio</mediatype>
									<parameter authoringApp="PremierePro">
										<parameterid>pan</parameterid>
										<name>Pan</name>
										<valuemin>-1</valuemin>
										<valuemax>1</valuemax>
										<value>0</value>
									</parameter>
								</effect>
							</filter>
						<link>
							<linkclipref>clipitem-67</linkclipref>
							<mediatype>video</mediatype>
							<trackindex>1</trackindex>
							<clipindex>73</clipindex>
						</link>
						<link>
							<linkclipref>clipitem-465</linkclipref>
							<mediatype>audio</mediatype>
							<trackindex>1</trackindex>
							<clipindex>72</clipindex>
							<groupindex>1</groupindex>
						</link>
						<link>
							<linkclipref>clipitem-531</linkclipref>
							<mediatype>audio</mediatype>
							<trackindex>2</trackindex>
							<clipindex>67</clipindex>
							<groupindex>1</groupindex>
						</link>
					</clipitem>
					<transitionitem>
						<start>37575</start>
						<end>37576</end>
						<alignment>start-black</alignment>
						<cutPoint>0</cutPoint>
						<rate>
							<timebase>25</timebase>
							<ntsc>FALSE</ntsc>
						</rate>
						<effect>
							<name>Cross Fade (+3dB)</name>
							<effectid>KGAudioTransCrossFade3dB</effectid>
							<effecttype>transition</effecttype>
							<mediatype>audio</mediatype>
							<wipecode>0</wipecode>
							<wipeaccuracy>100</wipeaccuracy>
							<startratio>0</startratio>
							<endratio>1</endratio>
							<reverse>FALSE</reverse>
						</effect>
					</transitionitem>
					<clipitem id="clipitem-532" frameBlend="FALSE" PannerCurrentValue="0.5" PannerKeyframes="" PannerStartKeyframe="-91445760000000000,0.5,0,0,0,0,0,0" PannerIsInverted="true" PannerName="Pan">
						<masterclipid>masterclip-14</masterclipid>
						<name>C0091.mov</name>
						<enabled>TRUE</enabled>
						<duration>42484</duration>
						<rate>
							<ntsc>TRUE</ntsc>
							<timebase>30</timebase>
						</rate>
						<start>-1</start>
						<end>38173</end>
						<in>1852</in>
						<out>2450</out>
						<file id="file-14"/>
						<sourcetrack>
							<mediatype>audio</mediatype>
							<trackindex>1</trackindex>
						</sourcetrack>
							<filter>
								<effect>
									<name>Gain</name>
									<effectid>{61756678, 4761696e, 4b657947}</effectid>
									<effecttype>filter</effecttype>
									<mediatype>audio</mediatype>
									<parameter authoringApp="PremierePro">
										<parameterid>Gain(dB)</parameterid>
										<name>Gain(dB)</name>
										<valuemin>-96</valuemin>
										<valuemax>96</valuemax>
										<value>9</value>
									</parameter>
								</effect>
							</filter>
							<filter>
								<effect>
									<name>Audio Levels</name>
									<effectid>audiolevels</effectid>
									<effectcategory>audiolevels</effectcategory>
									<effecttype>audiolevels</effecttype>
									<mediatype>audio</mediatype>
									<parameter authoringApp="PremierePro">
										<parameterid>level</parameterid>
										<name>Level</name>
										<valuemin>0</valuemin>
										<valuemax>3.98109</valuemax>
										<value>1.23596</value>
									</parameter>
								</effect>
							</filter>
							<filter>
								<effect>
									<name>Audio Pan</name>
									<effectid>audiopan</effectid>
									<effectcategory>audiopan</effectcategory>
									<effecttype>audiopan</effecttype>
									<mediatype>audio</mediatype>
									<parameter authoringApp="PremierePro">
										<parameterid>pan</parameterid>
										<name>Pan</name>
										<valuemin>-1</valuemin>
										<valuemax>1</valuemax>
										<value>0</value>
									</parameter>
								</effect>
							</filter>
						<link>
							<linkclipref>clipitem-69</linkclipref>
							<mediatype>video</mediatype>
							<trackindex>1</trackindex>
							<clipindex>75</clipindex>
						</link>
						<link>
							<linkclipref>clipitem-532</linkclipref>
							<mediatype>audio</mediatype>
							<trackindex>2</trackindex>
							<clipindex>69</clipindex>
							<groupindex>1</groupindex>
						</link>
					</clipitem>
					<clipitem id="clipitem-533" frameBlend="FALSE" PannerCurrentValue="0.5" PannerKeyframes="" PannerStartKeyframe="-91445760000000000,0.5,0,0,0,0,0,0" PannerIsInverted="true" PannerName="Pan">
						<masterclipid>masterclip-24</masterclipid>
						<name>JX4A6025.MOV</name>
						<enabled>TRUE</enabled>
						<duration>227</duration>
						<rate>
							<ntsc>TRUE</ntsc>
							<timebase>30</timebase>
						</rate>
						<start>38173</start>
						<end>38323</end>
						<in>11</in>
						<out>161</out>
						<file id="file-24"/>
						<sourcetrack>
							<mediatype>audio</mediatype>
							<trackindex>1</trackindex>
						</sourcetrack>
							<filter>
								<effect>
									<name>Audio Levels</name>
									<effectid>audiolevels</effectid>
									<effectcategory>audiolevels</effectcategory>
									<effecttype>audiolevels</effecttype>
									<mediatype>audio</mediatype>
									<parameter authoringApp="PremierePro">
										<parameterid>level</parameterid>
										<name>Level</name>
										<valuemin>0</valuemin>
										<valuemax>3.98109</valuemax>
										<value>0.16412</value>
									</parameter>
								</effect>
							</filter>
							<filter>
								<effect>
									<name>Audio Pan</name>
									<effectid>audiopan</effectid>
									<effectcategory>audiopan</effectcategory>
									<effecttype>audiopan</effecttype>
									<mediatype>audio</mediatype>
									<parameter authoringApp="PremierePro">
										<parameterid>pan</parameterid>
										<name>Pan</name>
										<valuemin>-1</valuemin>
										<valuemax>1</valuemax>
										<value>0</value>
									</parameter>
								</effect>
							</filter>
					</clipitem>
					<clipitem id="clipitem-534" frameBlend="FALSE" PannerCurrentValue="0.5" PannerKeyframes="" PannerStartKeyframe="-91445760000000000,0.5,0,0,0,0,0,0" PannerIsInverted="true" PannerName="Pan">
						<masterclipid>masterclip-25</masterclipid>
						<name>JX4A6027.MOV</name>
						<enabled>TRUE</enabled>
						<duration>208</duration>
						<rate>
							<ntsc>TRUE</ntsc>
							<timebase>30</timebase>
						</rate>
						<start>38323</start>
						<end>38398</end>
						<in>26</in>
						<out>101</out>
						<file id="file-25"/>
						<sourcetrack>
							<mediatype>audio</mediatype>
							<trackindex>1</trackindex>
						</sourcetrack>
							<filter>
								<effect>
									<name>Audio Levels</name>
									<effectid>audiolevels</effectid>
									<effectcategory>audiolevels</effectcategory>
									<effecttype>audiolevels</effecttype>
									<mediatype>audio</mediatype>
									<parameter authoringApp="PremierePro">
										<parameterid>level</parameterid>
										<name>Level</name>
										<valuemin>0</valuemin>
										<valuemax>3.98109</valuemax>
										<value>0.0855242</value>
										<keyframe>
											<when>101</when>
											<value>0.0855242</value>
										</keyframe>
										<keyframe>
											<when>105</when>
											<value>0</value>
										</keyframe>
									</parameter>
								</effect>
							</filter>
							<filter>
								<effect>
									<name>Audio Pan</name>
									<effectid>audiopan</effectid>
									<effectcategory>audiopan</effectcategory>
									<effecttype>audiopan</effecttype>
									<mediatype>audio</mediatype>
									<parameter authoringApp="PremierePro">
										<parameterid>pan</parameterid>
										<name>Pan</name>
										<valuemin>-1</valuemin>
										<valuemax>1</valuemax>
										<value>0</value>
									</parameter>
								</effect>
							</filter>
					</clipitem>
					<clipitem id="clipitem-535" frameBlend="FALSE" PannerCurrentValue="0.5" PannerKeyframes="" PannerStartKeyframe="-91445760000000000,0.5,0,0,0,0,0,0" PannerIsInverted="true" PannerName="Pan">
						<masterclipid>masterclip-28</masterclipid>
						<name>MKTF-FILM-Buljo2-319.MXF</name>
						<enabled>TRUE</enabled>
						<duration>5664</duration>
						<rate>
							<ntsc>TRUE</ntsc>
							<timebase>30</timebase>
						</rate>
						<start>42906</start>
						<end>42964</end>
						<in>3906</in>
						<out>3964</out>
						<file id="file-28"/>
						<sourcetrack>
							<mediatype>audio</mediatype>
							<trackindex>1</trackindex>
						</sourcetrack>
							<filter>
								<effect>
									<name>Audio Levels</name>
									<effectid>audiolevels</effectid>
									<effectcategory>audiolevels</effectcategory>
									<effecttype>audiolevels</effecttype>
									<mediatype>audio</mediatype>
									<parameter authoringApp="PremierePro">
										<parameterid>level</parameterid>
										<name>Level</name>
										<valuemin>0</valuemin>
										<valuemax>3.98109</valuemax>
										<value>0</value>
									</parameter>
								</effect>
							</filter>
							<filter>
								<effect>
									<name>Audio Pan</name>
									<effectid>audiopan</effectid>
									<effectcategory>audiopan</effectcategory>
									<effecttype>audiopan</effecttype>
									<mediatype>audio</mediatype>
									<parameter authoringApp="PremierePro">
										<parameterid>pan</parameterid>
										<name>Pan</name>
										<valuemin>-1</valuemin>
										<valuemax>1</valuemax>
										<value>0</value>
									</parameter>
								</effect>
							</filter>
						<link>
							<linkclipref>clipitem-77</linkclipref>
							<mediatype>video</mediatype>
							<trackindex>1</trackindex>
							<clipindex>83</clipindex>
						</link>
						<link>
							<linkclipref>clipitem-472</linkclipref>
							<mediatype>audio</mediatype>
							<trackindex>1</trackindex>
							<clipindex>79</clipindex>
							<groupindex>1</groupindex>
						</link>
						<link>
							<linkclipref>clipitem-535</linkclipref>
							<mediatype>audio</mediatype>
							<trackindex>2</trackindex>
							<clipindex>72</clipindex>
							<groupindex>1</groupindex>
						</link>
					</clipitem>
					<clipitem id="clipitem-536" frameBlend="FALSE" PannerCurrentValue="0.5" PannerKeyframes="" PannerStartKeyframe="-91445760000000000,0.5,0,0,0,0,0,0" PannerIsInverted="true" PannerName="Pan">
						<masterclipid>masterclip-28</masterclipid>
						<name>MKTF-FILM-Buljo2-319.MXF</name>
						<enabled>TRUE</enabled>
						<duration>5664</duration>
						<rate>
							<ntsc>TRUE</ntsc>
							<timebase>30</timebase>
						</rate>
						<start>42964</start>
						<end>43221</end>
						<in>4380</in>
						<out>4637</out>
						<file id="file-28"/>
						<sourcetrack>
							<mediatype>audio</mediatype>
							<trackindex>1</trackindex>
						</sourcetrack>
							<filter>
								<effect>
									<name>Audio Levels</name>
									<effectid>audiolevels</effectid>
									<effectcategory>audiolevels</effectcategory>
									<effecttype>audiolevels</effecttype>
									<mediatype>audio</mediatype>
									<parameter authoringApp="PremierePro">
										<parameterid>level</parameterid>
										<name>Level</name>
										<valuemin>0</valuemin>
										<valuemax>3.98109</valuemax>
										<value>0</value>
									</parameter>
								</effect>
							</filter>
							<filter>
								<effect>
									<name>Audio Pan</name>
									<effectid>audiopan</effectid>
									<effectcategory>audiopan</effectcategory>
									<effecttype>audiopan</effecttype>
									<mediatype>audio</mediatype>
									<parameter authoringApp="PremierePro">
										<parameterid>pan</parameterid>
										<name>Pan</name>
										<valuemin>-1</valuemin>
										<valuemax>1</valuemax>
										<value>0</value>
									</parameter>
								</effect>
							</filter>
					</clipitem>
					<enabled>TRUE</enabled>
					<locked>FALSE</locked>
					<outputchannelindex>2</outputchannelindex>
				</track>
				<track TL.SQTrackAudioKeyframeStyle="0" TL.SQTrackShy="0" TL.SQTrackExpandedHeight="25" TL.SQTrackExpanded="1" MZ.TrackTargeted="1" MZ.TrackName="Audio 3" PannerCurrentValue="0.5" PannerIsInverted="true" PannerStartKeyframe="-91445760000000000,0.5,0,0,0,0,0,0" PannerName="Balance" currentExplodedTrackIndex="0" totalExplodedTrackCount="2" premiereTrackType="Stereo">
					<clipitem id="clipitem-537" frameBlend="FALSE" PannerCurrentValue="0.5" PannerKeyframes="" PannerStartKeyframe="-91445760000000000,0.5,0,0,0,0,0,0" PannerIsInverted="true" PannerName="Balance">
						<masterclipid>masterclip-82</masterclipid>
						<name>KOIF40000007AA.mxf</name>
						<enabled>TRUE</enabled>
						<duration>173875</duration>
						<rate>
							<ntsc>TRUE</ntsc>
							<timebase>30</timebase>
						</rate>
						<start>25961</start>
						<end>26466</end>
						<in>64663</in>
						<out>65168</out>
						<file id="file-82"/>
						<sourcetrack>
							<mediatype>audio</mediatype>
							<trackindex>1</trackindex>
						</sourcetrack>
							<filter>
								<effect>
									<name>Audio Levels</name>
									<effectid>audiolevels</effectid>
									<effectcategory>audiolevels</effectcategory>
									<effecttype>audiolevels</effecttype>
									<mediatype>audio</mediatype>
									<parameter authoringApp="PremierePro">
										<parameterid>level</parameterid>
										<name>Level</name>
										<valuemin>0</valuemin>
										<valuemax>3.98109</valuemax>
										<value>0.99763</value>
										<keyframe>
											<when>64964</when>
											<value>0.99763</value>
										</keyframe>
										<keyframe>
											<when>64995</when>
											<value>0</value>
										</keyframe>
									</parameter>
								</effect>
							</filter>
							<filter>
								<effect>
									<name>Audio Pan</name>
									<effectid>audiopan</effectid>
									<effectcategory>audiopan</effectcategory>
									<effecttype>audiopan</effecttype>
									<mediatype>audio</mediatype>
									<parameter authoringApp="PremierePro">
										<parameterid>pan</parameterid>
										<name>Pan</name>
										<valuemin>-1</valuemin>
										<valuemax>1</valuemax>
										<value>0</value>
									</parameter>
								</effect>
							</filter>
						<link>
							<linkclipref>clipitem-537</linkclipref>
							<mediatype>audio</mediatype>
							<trackindex>3</trackindex>
							<clipindex>1</clipindex>
							<groupindex>1</groupindex>
						</link>
						<link>
							<linkclipref>clipitem-540</linkclipref>
							<mediatype>audio</mediatype>
							<trackindex>4</trackindex>
							<clipindex>1</clipindex>
							<groupindex>1</groupindex>
						</link>
					</clipitem>
					<transitionitem>
						<start>33764</start>
						<end>33789</end>
						<alignment>start-black</alignment>
						<cutPoint>0</cutPoint>
						<rate>
							<timebase>25</timebase>
							<ntsc>FALSE</ntsc>
						</rate>
						<effect>
							<name>Cross Fade (+3dB)</name>
							<effectid>KGAudioTransCrossFade3dB</effectid>
							<effecttype>transition</effecttype>
							<mediatype>audio</mediatype>
							<wipecode>0</wipecode>
							<wipeaccuracy>100</wipeaccuracy>
							<startratio>0</startratio>
							<endratio>1</endratio>
							<reverse>FALSE</reverse>
						</effect>
					</transitionitem>
					<clipitem id="clipitem-538" frameBlend="FALSE" PannerCurrentValue="0.5" PannerKeyframes="" PannerStartKeyframe="-91445760000000000,0.5,0,0,0,0,0,0" PannerIsInverted="true" PannerName="Balance">
						<masterclipid>masterclip-84</masterclipid>
						<name>FILM_Break_up.mov</name>
						<enabled>TRUE</enabled>
						<duration>242</duration>
						<rate>
							<ntsc>TRUE</ntsc>
							<timebase>30</timebase>
						</rate>
						<start>-1</start>
						<end>34006</end>
						<in>0</in>
						<out>242</out>
						<file id="file-84"/>
						<sourcetrack>
							<mediatype>audio</mediatype>
							<trackindex>1</trackindex>
						</sourcetrack>
							<filter>
								<effect>
									<name>Audio Pan</name>
									<effectid>audiopan</effectid>
									<effectcategory>audiopan</effectcategory>
									<effecttype>audiopan</effecttype>
									<mediatype>audio</mediatype>
									<parameter authoringApp="PremierePro">
										<parameterid>pan</parameterid>
										<name>Pan</name>
										<valuemin>-1</valuemin>
										<valuemax>1</valuemax>
										<value>0</value>
									</parameter>
								</effect>
							</filter>
						<link>
							<linkclipref>clipitem-265</linkclipref>
							<mediatype>video</mediatype>
							<trackindex>3</trackindex>
							<clipindex>145</clipindex>
						</link>
						<link>
							<linkclipref>clipitem-538</linkclipref>
							<mediatype>audio</mediatype>
							<trackindex>3</trackindex>
							<clipindex>3</clipindex>
							<groupindex>1</groupindex>
						</link>
						<link>
							<linkclipref>clipitem-541</linkclipref>
							<mediatype>audio</mediatype>
							<trackindex>4</trackindex>
							<clipindex>3</clipindex>
							<groupindex>1</groupindex>
						</link>
					</clipitem>
					<clipitem id="clipitem-539" frameBlend="FALSE" PannerCurrentValue="0.5" PannerKeyframes="" PannerStartKeyframe="-91445760000000000,0.5,0,0,0,0,0,0" PannerIsInverted="true" PannerName="Pan">
						<masterclipid>masterclip-14</masterclipid>
						<name>C0091.mov</name>
						<enabled>TRUE</enabled>
						<duration>42484</duration>
						<rate>
							<ntsc>TRUE</ntsc>
							<timebase>30</timebase>
						</rate>
						<start>35226</start>
						<end>35558</end>
						<in>2597</in>
						<out>2929</out>
						<file id="file-14"/>
						<sourcetrack>
							<mediatype>audio</mediatype>
							<trackindex>4</trackindex>
						</sourcetrack>
							<filter>
								<effect>
									<name>Audio Levels</name>
									<effectid>audiolevels</effectid>
									<effectcategory>audiolevels</effectcategory>
									<effecttype>audiolevels</effecttype>
									<mediatype>audio</mediatype>
									<parameter authoringApp="PremierePro">
										<parameterid>level</parameterid>
										<name>Level</name>
										<valuemin>0</valuemin>
										<valuemax>3.98109</valuemax>
										<value>0.172676</value>
									</parameter>
								</effect>
							</filter>
							<filter>
								<effect>
									<name>Audio Pan</name>
									<effectid>audiopan</effectid>
									<effectcategory>audiopan</effectcategory>
									<effecttype>audiopan</effecttype>
									<mediatype>audio</mediatype>
									<parameter authoringApp="PremierePro">
										<parameterid>pan</parameterid>
										<name>Pan</name>
										<valuemin>-1</valuemin>
										<valuemax>1</valuemax>
										<value>0</value>
									</parameter>
								</effect>
							</filter>
						<link>
							<linkclipref>clipitem-58</linkclipref>
							<mediatype>video</mediatype>
							<trackindex>1</trackindex>
							<clipindex>63</clipindex>
						</link>
						<link>
							<linkclipref>clipitem-456</linkclipref>
							<mediatype>audio</mediatype>
							<trackindex>1</trackindex>
							<clipindex>62</clipindex>
							<groupindex>1</groupindex>
						</link>
						<link>
							<linkclipref>clipitem-523</linkclipref>
							<mediatype>audio</mediatype>
							<trackindex>2</trackindex>
							<clipindex>58</clipindex>
							<groupindex>1</groupindex>
						</link>
						<link>
							<linkclipref>clipitem-539</linkclipref>
							<mediatype>audio</mediatype>
							<trackindex>3</trackindex>
							<clipindex>4</clipindex>
							<groupindex>1</groupindex>
						</link>
					</clipitem>
					<enabled>TRUE</enabled>
					<locked>FALSE</locked>
					<outputchannelindex>1</outputchannelindex>
				</track>
				<track TL.SQTrackAudioKeyframeStyle="0" TL.SQTrackShy="0" TL.SQTrackExpandedHeight="25" TL.SQTrackExpanded="1" MZ.TrackTargeted="1" MZ.TrackName="Audio 3" PannerCurrentValue="0.5" PannerIsInverted="true" PannerStartKeyframe="-91445760000000000,0.5,0,0,0,0,0,0" PannerName="Balance" currentExplodedTrackIndex="1" totalExplodedTrackCount="2" premiereTrackType="Stereo">
					<clipitem id="clipitem-540" frameBlend="FALSE" PannerCurrentValue="0.5" PannerKeyframes="" PannerStartKeyframe="-91445760000000000,0.5,0,0,0,0,0,0" PannerIsInverted="true" PannerName="Balance">
						<masterclipid>masterclip-82</masterclipid>
						<name>KOIF40000007AA.mxf</name>
						<enabled>TRUE</enabled>
						<duration>173875</duration>
						<rate>
							<ntsc>TRUE</ntsc>
							<timebase>30</timebase>
						</rate>
						<start>25961</start>
						<end>26466</end>
						<in>64663</in>
						<out>65168</out>
						<file id="file-82"/>
						<sourcetrack>
							<mediatype>audio</mediatype>
							<trackindex>2</trackindex>
						</sourcetrack>
							<filter>
								<effect>
									<name>Audio Levels</name>
									<effectid>audiolevels</effectid>
									<effectcategory>audiolevels</effectcategory>
									<effecttype>audiolevels</effecttype>
									<mediatype>audio</mediatype>
									<parameter authoringApp="PremierePro">
										<parameterid>level</parameterid>
										<name>Level</name>
										<valuemin>0</valuemin>
										<valuemax>3.98109</valuemax>
										<value>0.99763</value>
										<keyframe>
											<when>64964</when>
											<value>0.99763</value>
										</keyframe>
										<keyframe>
											<when>64995</when>
											<value>0</value>
										</keyframe>
									</parameter>
								</effect>
							</filter>
							<filter>
								<effect>
									<name>Audio Pan</name>
									<effectid>audiopan</effectid>
									<effectcategory>audiopan</effectcategory>
									<effecttype>audiopan</effecttype>
									<mediatype>audio</mediatype>
									<parameter authoringApp="PremierePro">
										<parameterid>pan</parameterid>
										<name>Pan</name>
										<valuemin>-1</valuemin>
										<valuemax>1</valuemax>
										<value>0</value>
									</parameter>
								</effect>
							</filter>
						<link>
							<linkclipref>clipitem-537</linkclipref>
							<mediatype>audio</mediatype>
							<trackindex>3</trackindex>
							<clipindex>1</clipindex>
							<groupindex>1</groupindex>
						</link>
						<link>
							<linkclipref>clipitem-540</linkclipref>
							<mediatype>audio</mediatype>
							<trackindex>4</trackindex>
							<clipindex>1</clipindex>
							<groupindex>1</groupindex>
						</link>
					</clipitem>
					<transitionitem>
						<start>33764</start>
						<end>33789</end>
						<alignment>start-black</alignment>
						<cutPoint>0</cutPoint>
						<rate>
							<timebase>25</timebase>
							<ntsc>FALSE</ntsc>
						</rate>
						<effect>
							<name>Cross Fade (+3dB)</name>
							<effectid>KGAudioTransCrossFade3dB</effectid>
							<effecttype>transition</effecttype>
							<mediatype>audio</mediatype>
							<wipecode>0</wipecode>
							<wipeaccuracy>100</wipeaccuracy>
							<startratio>0</startratio>
							<endratio>1</endratio>
							<reverse>FALSE</reverse>
						</effect>
					</transitionitem>
					<clipitem id="clipitem-541" frameBlend="FALSE" PannerCurrentValue="0.5" PannerKeyframes="" PannerStartKeyframe="-91445760000000000,0.5,0,0,0,0,0,0" PannerIsInverted="true" PannerName="Balance">
						<masterclipid>masterclip-84</masterclipid>
						<name>FILM_Break_up.mov</name>
						<enabled>TRUE</enabled>
						<duration>242</duration>
						<rate>
							<ntsc>TRUE</ntsc>
							<timebase>30</timebase>
						</rate>
						<start>-1</start>
						<end>34006</end>
						<in>0</in>
						<out>242</out>
						<file id="file-84"/>
						<sourcetrack>
							<mediatype>audio</mediatype>
							<trackindex>2</trackindex>
						</sourcetrack>
							<filter>
								<effect>
									<name>Audio Pan</name>
									<effectid>audiopan</effectid>
									<effectcategory>audiopan</effectcategory>
									<effecttype>audiopan</effecttype>
									<mediatype>audio</mediatype>
									<parameter authoringApp="PremierePro">
										<parameterid>pan</parameterid>
										<name>Pan</name>
										<valuemin>-1</valuemin>
										<valuemax>1</valuemax>
										<value>0</value>
									</parameter>
								</effect>
							</filter>
						<link>
							<linkclipref>clipitem-265</linkclipref>
							<mediatype>video</mediatype>
							<trackindex>3</trackindex>
							<clipindex>145</clipindex>
						</link>
						<link>
							<linkclipref>clipitem-538</linkclipref>
							<mediatype>audio</mediatype>
							<trackindex>3</trackindex>
							<clipindex>3</clipindex>
							<groupindex>1</groupindex>
						</link>
						<link>
							<linkclipref>clipitem-541</linkclipref>
							<mediatype>audio</mediatype>
							<trackindex>4</trackindex>
							<clipindex>3</clipindex>
							<groupindex>1</groupindex>
						</link>
					</clipitem>
					<enabled>TRUE</enabled>
					<locked>FALSE</locked>
					<outputchannelindex>3</outputchannelindex>
				</track>
				<track TL.SQTrackAudioKeyframeStyle="0" TL.SQTrackShy="0" TL.SQTrackExpandedHeight="25" TL.SQTrackExpanded="1" MZ.TrackTargeted="1" MZ.TrackName="Audio 4" PannerCurrentValue="0.5" PannerIsInverted="true" PannerKeyframes="383462468928000,0.5,0,0,0,0.16666666666666665741480812812,0,0.16666666666666665741480812812;386725389120000,0.5,0,0,0,0.16666666666666665741480812812,0,0.16666666666666665741480812812;" PannerStartKeyframe="-91445760000000000,0.5,0,0,0,0,0,0" PannerName="Balance" currentExplodedTrackIndex="0" totalExplodedTrackCount="2" premiereTrackType="Stereo">
					<enabled>TRUE</enabled>
					<locked>FALSE</locked>
					<outputchannelindex>1</outputchannelindex>
				</track>
				<track TL.SQTrackAudioKeyframeStyle="0" TL.SQTrackShy="0" TL.SQTrackExpandedHeight="25" TL.SQTrackExpanded="1" MZ.TrackTargeted="1" MZ.TrackName="Audio 4" PannerCurrentValue="0.5" PannerIsInverted="true" PannerKeyframes="383462468928000,0.5,0,0,0,0.16666666666666665741480812812,0,0.16666666666666665741480812812;386725389120000,0.5,0,0,0,0.16666666666666665741480812812,0,0.16666666666666665741480812812;" PannerStartKeyframe="-91445760000000000,0.5,0,0,0,0,0,0" PannerName="Balance" currentExplodedTrackIndex="1" totalExplodedTrackCount="2" premiereTrackType="Stereo">
					<enabled>TRUE</enabled>
					<locked>FALSE</locked>
					<outputchannelindex>3</outputchannelindex>
				</track>
				<track TL.SQTrackAudioKeyframeStyle="0" TL.SQTrackShy="0" TL.SQTrackExpandedHeight="135" TL.SQTrackExpanded="1" MZ.TrackTargeted="1" MZ.TrackName="Speak" PannerCurrentValue="0.5" PannerIsInverted="true" PannerKeyframes="13818385728000,0.5,0,0,0,0.16666666666666665741480812812,0,0.16666666666666665741480812812;18339870528000,0.5,0,0,0,0.16666666666666665741480812812,0,0.16666666666666665741480812812;19727136576000,0.5,0,0,0,0.16666666666666665741480812812,0,0.16666666666666665741480812812;23269135680000,0.5,0,0,0,0.16666666666666665741480812812,0,0.16666666666666665741480812812;83642303808000,0.5,0,0,0,0.16666666666666665741480812812,0,0.16666666666666665741480812812;86032679040000,0.5,0,0,0,0.16666666666666665741480812812,0,0.16666666666666665741480812812;126093457728000,0.5,0,0,0,0.16666666666666665741480812812,0,0.16666666666666665741480812812;141265918080000,0.5,0,0,0,0.16666666666666665741480812812,0,0.16666666666666665741480812812;259705873728000,0.5,0,0,0,0.16666666666666665741480812812,0,0.16666666666666665741480812812;297433007424000,0.5,0,0,0,0.16666666666666665741480812812,0,0.16666666666666665741480812812;372265443648000,0.5,0,0,0,0.16666666666666665741480812812,0,0.16666666666666665741480812812;377002926720000,0.5,0,0,0,0.16666666666666665741480812812,0,0.16666666666666665741480812812;" PannerStartKeyframe="-91445760000000000,0.5,0,0,0,0,0,0" PannerName="Balance" currentExplodedTrackIndex="0" totalExplodedTrackCount="1" premiereTrackType="Stereo">
					<clipitem id="clipitem-542" frameBlend="FALSE" PannerCurrentValue="0.5" PannerKeyframes="" PannerStartKeyframe="-91445760000000000,0.5,0,0,0,0,0,0" PannerIsInverted="true" PannerName="Pan">
						<masterclipid>masterclip-189</masterclipid>
						<name>Voice Stormannsgalskap.WAV</name>
						<enabled>TRUE</enabled>
						<duration>6756</duration>
						<rate>
							<timebase>30</timebase>
							<ntsc>TRUE</ntsc>
						</rate>
						<start>553</start>
						<end>734</end>
						<in>2618</in>
						<out>2799</out>
						<file id="file-188">
							<name>Voice Stormannsgalskap.WAV</name>
							<pathurl>file://localhost/Volumes/Scenen/Prosjekter/FILM/FILM%201413%20Stormannsgalskap/Voice%20Stormannsgalskap.WAV</pathurl>
							<rate>
								<timebase>30</timebase>
								<ntsc>TRUE</ntsc>
							</rate>
							<duration>8099</duration>
							<timecode>
								<rate>
									<timebase>30</timebase>
									<ntsc>TRUE</ntsc>
								</rate>
								<string>00;00;00;00</string>
								<frame>0</frame>
								<displayformat>DF</displayformat>
							</timecode>
							<media>
								<audio>
									<samplecharacteristics>
										<depth>16</depth>
										<samplerate>48000</samplerate>
									</samplecharacteristics>
									<channelcount>1</channelcount>
									<layout>mono</layout>
									<audiochannel>
										<sourcechannel>1</sourcechannel>
										<channellabel>discrete</channellabel>
									</audiochannel>
								</audio>
							</media>
						</file>
						<sourcetrack>
							<mediatype>audio</mediatype>
							<trackindex>1</trackindex>
						</sourcetrack>
							<filter>
								<effect>
									<name>Gain</name>
									<effectid>{61756678, 4761696e, 4b657947}</effectid>
									<effecttype>filter</effecttype>
									<mediatype>audio</mediatype>
									<parameter authoringApp="PremierePro">
										<parameterid>Gain(dB)</parameterid>
										<name>Gain(dB)</name>
										<valuemin>-96</valuemin>
										<valuemax>96</valuemax>
										<value>3</value>
									</parameter>
								</effect>
							</filter>
							<filter>
								<effect>
									<name>Audio Levels</name>
									<effectid>audiolevels</effectid>
									<effectcategory>audiolevels</effectcategory>
									<effecttype>audiolevels</effecttype>
									<mediatype>audio</mediatype>
									<parameter authoringApp="PremierePro">
										<parameterid>level</parameterid>
										<name>Level</name>
										<valuemin>0</valuemin>
										<valuemax>3.98109</valuemax>
										<value>1.0365</value>
									</parameter>
								</effect>
							</filter>
							<filter>
								<effect>
									<name>Audio Pan</name>
									<effectid>audiopan</effectid>
									<effectcategory>audiopan</effectcategory>
									<effecttype>audiopan</effecttype>
									<mediatype>audio</mediatype>
									<parameter authoringApp="PremierePro">
										<parameterid>pan</parameterid>
										<name>Pan</name>
										<valuemin>-1</valuemin>
										<valuemax>1</valuemax>
										<value>0</value>
									</parameter>
								</effect>
							</filter>
					</clipitem>
					<clipitem id="clipitem-543" frameBlend="FALSE" PannerCurrentValue="0.5" PannerKeyframes="" PannerStartKeyframe="-91445760000000000,0.5,0,0,0,0,0,0" PannerIsInverted="true" PannerName="Pan">
						<masterclipid>masterclip-189</masterclipid>
						<name>Voice Stormannsgalskap.WAV</name>
						<enabled>TRUE</enabled>
						<duration>6756</duration>
						<rate>
							<ntsc>TRUE</ntsc>
							<timebase>30</timebase>
						</rate>
						<start>1919</start>
						<end>2194</end>
						<in>5</in>
						<out>280</out>
						<file id="file-188"/>
						<sourcetrack>
							<mediatype>audio</mediatype>
							<trackindex>1</trackindex>
						</sourcetrack>
							<filter>
								<effect>
									<name>Gain</name>
									<effectid>{61756678, 4761696e, 4b657947}</effectid>
									<effecttype>filter</effecttype>
									<mediatype>audio</mediatype>
									<parameter authoringApp="PremierePro">
										<parameterid>Gain(dB)</parameterid>
										<name>Gain(dB)</name>
										<valuemin>-96</valuemin>
										<valuemax>96</valuemax>
										<value>3</value>
									</parameter>
								</effect>
							</filter>
							<filter>
								<effect>
									<name>Audio Levels</name>
									<effectid>audiolevels</effectid>
									<effectcategory>audiolevels</effectcategory>
									<effecttype>audiolevels</effecttype>
									<mediatype>audio</mediatype>
									<parameter authoringApp="PremierePro">
										<parameterid>level</parameterid>
										<name>Level</name>
										<valuemin>0</valuemin>
										<valuemax>3.98109</valuemax>
										<value>1.0365</value>
									</parameter>
								</effect>
							</filter>
							<filter>
								<effect>
									<name>Audio Pan</name>
									<effectid>audiopan</effectid>
									<effectcategory>audiopan</effectcategory>
									<effecttype>audiopan</effecttype>
									<mediatype>audio</mediatype>
									<parameter authoringApp="PremierePro">
										<parameterid>pan</parameterid>
										<name>Pan</name>
										<valuemin>-1</valuemin>
										<valuemax>1</valuemax>
										<value>0</value>
									</parameter>
								</effect>
							</filter>
					</clipitem>
					<clipitem id="clipitem-544" frameBlend="FALSE" PannerCurrentValue="0.5" PannerKeyframes="" PannerStartKeyframe="-91445760000000000,0.5,0,0,0,0,0,0" PannerIsInverted="true" PannerName="Pan">
						<masterclipid>masterclip-189</masterclipid>
						<name>Voice Stormannsgalskap.WAV</name>
						<enabled>TRUE</enabled>
						<duration>6756</duration>
						<rate>
							<ntsc>TRUE</ntsc>
							<timebase>30</timebase>
						</rate>
						<start>2235</start>
						<end>2668</end>
						<in>344</in>
						<out>777</out>
						<file id="file-188"/>
						<sourcetrack>
							<mediatype>audio</mediatype>
							<trackindex>1</trackindex>
						</sourcetrack>
							<filter>
								<effect>
									<name>Gain</name>
									<effectid>{61756678, 4761696e, 4b657947}</effectid>
									<effecttype>filter</effecttype>
									<mediatype>audio</mediatype>
									<parameter authoringApp="PremierePro">
										<parameterid>Gain(dB)</parameterid>
										<name>Gain(dB)</name>
										<valuemin>-96</valuemin>
										<valuemax>96</valuemax>
										<value>3</value>
									</parameter>
								</effect>
							</filter>
							<filter>
								<effect>
									<name>Audio Levels</name>
									<effectid>audiolevels</effectid>
									<effectcategory>audiolevels</effectcategory>
									<effecttype>audiolevels</effecttype>
									<mediatype>audio</mediatype>
									<parameter authoringApp="PremierePro">
										<parameterid>level</parameterid>
										<name>Level</name>
										<valuemin>0</valuemin>
										<valuemax>3.98109</valuemax>
										<value>1.0365</value>
									</parameter>
								</effect>
							</filter>
							<filter>
								<effect>
									<name>Audio Pan</name>
									<effectid>audiopan</effectid>
									<effectcategory>audiopan</effectcategory>
									<effecttype>audiopan</effecttype>
									<mediatype>audio</mediatype>
									<parameter authoringApp="PremierePro">
										<parameterid>pan</parameterid>
										<name>Pan</name>
										<valuemin>-1</valuemin>
										<valuemax>1</valuemax>
										<value>0</value>
									</parameter>
								</effect>
							</filter>
					</clipitem>
					<clipitem id="clipitem-545" frameBlend="FALSE" PannerCurrentValue="0.5" PannerKeyframes="" PannerStartKeyframe="-91445760000000000,0.5,0,0,0,0,0,0" PannerIsInverted="true" PannerName="Pan">
						<masterclipid>masterclip-189</masterclipid>
						<name>Voice Stormannsgalskap.WAV</name>
						<enabled>TRUE</enabled>
						<duration>6756</duration>
						<rate>
							<ntsc>TRUE</ntsc>
							<timebase>30</timebase>
						</rate>
						<start>2683</start>
						<end>2790</end>
						<in>783</in>
						<out>890</out>
						<file id="file-188"/>
						<sourcetrack>
							<mediatype>audio</mediatype>
							<trackindex>1</trackindex>
						</sourcetrack>
							<filter>
								<effect>
									<name>Gain</name>
									<effectid>{61756678, 4761696e, 4b657947}</effectid>
									<effecttype>filter</effecttype>
									<mediatype>audio</mediatype>
									<parameter authoringApp="PremierePro">
										<parameterid>Gain(dB)</parameterid>
										<name>Gain(dB)</name>
										<valuemin>-96</valuemin>
										<valuemax>96</valuemax>
										<value>3</value>
									</parameter>
								</effect>
							</filter>
							<filter>
								<effect>
									<name>Audio Levels</name>
									<effectid>audiolevels</effectid>
									<effectcategory>audiolevels</effectcategory>
									<effecttype>audiolevels</effecttype>
									<mediatype>audio</mediatype>
									<parameter authoringApp="PremierePro">
										<parameterid>level</parameterid>
										<name>Level</name>
										<valuemin>0</valuemin>
										<valuemax>3.98109</valuemax>
										<value>1.0365</value>
									</parameter>
								</effect>
							</filter>
							<filter>
								<effect>
									<name>Audio Pan</name>
									<effectid>audiopan</effectid>
									<effectcategory>audiopan</effectcategory>
									<effecttype>audiopan</effecttype>
									<mediatype>audio</mediatype>
									<parameter authoringApp="PremierePro">
										<parameterid>pan</parameterid>
										<name>Pan</name>
										<valuemin>-1</valuemin>
										<valuemax>1</valuemax>
										<value>0</value>
									</parameter>
								</effect>
							</filter>
					</clipitem>
					<clipitem id="clipitem-546" frameBlend="FALSE" PannerCurrentValue="0.5" PannerKeyframes="" PannerStartKeyframe="-91445760000000000,0.5,0,0,0,0,0,0" PannerIsInverted="true" PannerName="Pan">
						<masterclipid>masterclip-189</masterclipid>
						<name>Voice Stormannsgalskap.WAV</name>
						<enabled>TRUE</enabled>
						<duration>6756</duration>
						<rate>
							<ntsc>TRUE</ntsc>
							<timebase>30</timebase>
						</rate>
						<start>2858</start>
						<end>3001</end>
						<in>916</in>
						<out>1059</out>
						<file id="file-188"/>
						<sourcetrack>
							<mediatype>audio</mediatype>
							<trackindex>1</trackindex>
						</sourcetrack>
							<filter>
								<effect>
									<name>Gain</name>
									<effectid>{61756678, 4761696e, 4b657947}</effectid>
									<effecttype>filter</effecttype>
									<mediatype>audio</mediatype>
									<parameter authoringApp="PremierePro">
										<parameterid>Gain(dB)</parameterid>
										<name>Gain(dB)</name>
										<valuemin>-96</valuemin>
										<valuemax>96</valuemax>
										<value>3</value>
									</parameter>
								</effect>
							</filter>
							<filter>
								<effect>
									<name>Audio Levels</name>
									<effectid>audiolevels</effectid>
									<effectcategory>audiolevels</effectcategory>
									<effecttype>audiolevels</effecttype>
									<mediatype>audio</mediatype>
									<parameter authoringApp="PremierePro">
										<parameterid>level</parameterid>
										<name>Level</name>
										<valuemin>0</valuemin>
										<valuemax>3.98109</valuemax>
										<value>1.0365</value>
									</parameter>
								</effect>
							</filter>
							<filter>
								<effect>
									<name>Audio Pan</name>
									<effectid>audiopan</effectid>
									<effectcategory>audiopan</effectcategory>
									<effecttype>audiopan</effecttype>
									<mediatype>audio</mediatype>
									<parameter authoringApp="PremierePro">
										<parameterid>pan</parameterid>
										<name>Pan</name>
										<valuemin>-1</valuemin>
										<valuemax>1</valuemax>
										<value>0</value>
									</parameter>
								</effect>
							</filter>
					</clipitem>
					<transitionitem>
						<start>3093</start>
						<end>3118</end>
						<alignment>start-black</alignment>
						<cutPoint>0</cutPoint>
						<rate>
							<timebase>25</timebase>
							<ntsc>FALSE</ntsc>
						</rate>
						<effect>
							<name>Cross Fade (+3dB)</name>
							<effectid>KGAudioTransCrossFade3dB</effectid>
							<effecttype>transition</effecttype>
							<mediatype>audio</mediatype>
							<wipecode>0</wipecode>
							<wipeaccuracy>100</wipeaccuracy>
							<startratio>0</startratio>
							<endratio>1</endratio>
							<reverse>FALSE</reverse>
						</effect>
					</transitionitem>
					<clipitem id="clipitem-547" frameBlend="FALSE" PannerCurrentValue="0.5" PannerKeyframes="" PannerStartKeyframe="-91445760000000000,0.5,0,0,0,0,0,0" PannerIsInverted="true" PannerName="Pan">
						<masterclipid>masterclip-189</masterclipid>
						<name>Voice Stormannsgalskap.WAV</name>
						<enabled>TRUE</enabled>
						<duration>6756</duration>
						<rate>
							<ntsc>TRUE</ntsc>
							<timebase>30</timebase>
						</rate>
						<start>-1</start>
						<end>3780</end>
						<in>1051</in>
						<out>1738</out>
						<file id="file-188"/>
						<sourcetrack>
							<mediatype>audio</mediatype>
							<trackindex>1</trackindex>
						</sourcetrack>
							<filter>
								<effect>
									<name>Gain</name>
									<effectid>{61756678, 4761696e, 4b657947}</effectid>
									<effecttype>filter</effecttype>
									<mediatype>audio</mediatype>
									<parameter authoringApp="PremierePro">
										<parameterid>Gain(dB)</parameterid>
										<name>Gain(dB)</name>
										<valuemin>-96</valuemin>
										<valuemax>96</valuemax>
										<value>3</value>
									</parameter>
								</effect>
							</filter>
							<filter>
								<effect>
									<name>Audio Levels</name>
									<effectid>audiolevels</effectid>
									<effectcategory>audiolevels</effectcategory>
									<effecttype>audiolevels</effecttype>
									<mediatype>audio</mediatype>
									<parameter authoringApp="PremierePro">
										<parameterid>level</parameterid>
										<name>Level</name>
										<valuemin>0</valuemin>
										<valuemax>3.98109</valuemax>
										<value>1.0365</value>
									</parameter>
								</effect>
							</filter>
							<filter>
								<effect>
									<name>Audio Pan</name>
									<effectid>audiopan</effectid>
									<effectcategory>audiopan</effectcategory>
									<effecttype>audiopan</effecttype>
									<mediatype>audio</mediatype>
									<parameter authoringApp="PremierePro">
										<parameterid>pan</parameterid>
										<name>Pan</name>
										<valuemin>-1</valuemin>
										<valuemax>1</valuemax>
										<value>0</value>
									</parameter>
								</effect>
							</filter>
					</clipitem>
					<clipitem id="clipitem-548" frameBlend="FALSE" PannerCurrentValue="0.5" PannerKeyframes="" PannerStartKeyframe="-91445760000000000,0.5,0,0,0,0,0,0" PannerIsInverted="true" PannerName="Pan">
						<masterclipid>masterclip-189</masterclipid>
						<name>Voice Stormannsgalskap.WAV</name>
						<enabled>TRUE</enabled>
						<duration>6756</duration>
						<rate>
							<ntsc>TRUE</ntsc>
							<timebase>30</timebase>
						</rate>
						<start>3921</start>
						<end>4217</end>
						<in>1745</in>
						<out>2041</out>
						<file id="file-188"/>
						<sourcetrack>
							<mediatype>audio</mediatype>
							<trackindex>1</trackindex>
						</sourcetrack>
							<filter>
								<effect>
									<name>Gain</name>
									<effectid>{61756678, 4761696e, 4b657947}</effectid>
									<effecttype>filter</effecttype>
									<mediatype>audio</mediatype>
									<parameter authoringApp="PremierePro">
										<parameterid>Gain(dB)</parameterid>
										<name>Gain(dB)</name>
										<valuemin>-96</valuemin>
										<valuemax>96</valuemax>
										<value>3</value>
									</parameter>
								</effect>
							</filter>
							<filter>
								<effect>
									<name>Audio Levels</name>
									<effectid>audiolevels</effectid>
									<effectcategory>audiolevels</effectcategory>
									<effecttype>audiolevels</effecttype>
									<mediatype>audio</mediatype>
									<parameter authoringApp="PremierePro">
										<parameterid>level</parameterid>
										<name>Level</name>
										<valuemin>0</valuemin>
										<valuemax>3.98109</valuemax>
										<value>1.13969</value>
										<keyframe>
											<when>1841</when>
											<value>1.0365</value>
										</keyframe>
										<keyframe>
											<when>1893</when>
											<value>1.20432</value>
										</keyframe>
									</parameter>
								</effect>
							</filter>
							<filter>
								<effect>
									<name>Audio Pan</name>
									<effectid>audiopan</effectid>
									<effectcategory>audiopan</effectcategory>
									<effecttype>audiopan</effecttype>
									<mediatype>audio</mediatype>
									<parameter authoringApp="PremierePro">
										<parameterid>pan</parameterid>
										<name>Pan</name>
										<valuemin>-1</valuemin>
										<valuemax>1</valuemax>
										<value>0</value>
									</parameter>
								</effect>
							</filter>
					</clipitem>
					<clipitem id="clipitem-549" frameBlend="FALSE" PannerCurrentValue="0.5" PannerKeyframes="" PannerStartKeyframe="-91445760000000000,0.5,0,0,0,0,0,0" PannerIsInverted="true" PannerName="Pan">
						<masterclipid>masterclip-189</masterclipid>
						<name>Voice Stormannsgalskap.WAV</name>
						<enabled>TRUE</enabled>
						<duration>6756</duration>
						<rate>
							<ntsc>TRUE</ntsc>
							<timebase>30</timebase>
						</rate>
						<start>4471</start>
						<end>4750</end>
						<in>2063</in>
						<out>2342</out>
						<file id="file-188"/>
						<sourcetrack>
							<mediatype>audio</mediatype>
							<trackindex>1</trackindex>
						</sourcetrack>
							<filter>
								<effect>
									<name>Gain</name>
									<effectid>{61756678, 4761696e, 4b657947}</effectid>
									<effecttype>filter</effecttype>
									<mediatype>audio</mediatype>
									<parameter authoringApp="PremierePro">
										<parameterid>Gain(dB)</parameterid>
										<name>Gain(dB)</name>
										<valuemin>-96</valuemin>
										<valuemax>96</valuemax>
										<value>8</value>
									</parameter>
								</effect>
							</filter>
							<filter>
								<effect>
									<name>Audio Levels</name>
									<effectid>audiolevels</effectid>
									<effectcategory>audiolevels</effectcategory>
									<effecttype>audiolevels</effecttype>
									<mediatype>audio</mediatype>
									<parameter authoringApp="PremierePro">
										<parameterid>level</parameterid>
										<name>Level</name>
										<valuemin>0</valuemin>
										<valuemax>3.98109</valuemax>
										<value>1.31621</value>
										<keyframe>
											<when>2068</when>
											<value>1.51336</value>
										</keyframe>
										<keyframe>
											<when>2082</when>
											<value>1.42809</value>
										</keyframe>
										<keyframe>
											<when>2100</when>
											<value>1.31621</value>
										</keyframe>
									</parameter>
								</effect>
							</filter>
							<filter>
								<effect>
									<name>Audio Pan</name>
									<effectid>audiopan</effectid>
									<effectcategory>audiopan</effectcategory>
									<effecttype>audiopan</effecttype>
									<mediatype>audio</mediatype>
									<parameter authoringApp="PremierePro">
										<parameterid>pan</parameterid>
										<name>Pan</name>
										<valuemin>-1</valuemin>
										<valuemax>1</valuemax>
										<value>0</value>
									</parameter>
								</effect>
							</filter>
					</clipitem>
					<clipitem id="clipitem-550" frameBlend="FALSE" PannerCurrentValue="0.5" PannerKeyframes="" PannerStartKeyframe="-91445760000000000,0.5,0,0,0,0,0,0" PannerIsInverted="true" PannerName="Pan">
						<masterclipid>masterclip-189</masterclipid>
						<name>Voice Stormannsgalskap.WAV</name>
						<enabled>TRUE</enabled>
						<duration>6756</duration>
						<rate>
							<ntsc>TRUE</ntsc>
							<timebase>30</timebase>
						</rate>
						<start>4770</start>
						<end>4988</end>
						<in>2400</in>
						<out>2618</out>
						<file id="file-188"/>
						<sourcetrack>
							<mediatype>audio</mediatype>
							<trackindex>1</trackindex>
						</sourcetrack>
							<filter>
								<effect>
									<name>Gain</name>
									<effectid>{61756678, 4761696e, 4b657947}</effectid>
									<effecttype>filter</effecttype>
									<mediatype>audio</mediatype>
									<parameter authoringApp="PremierePro">
										<parameterid>Gain(dB)</parameterid>
										<name>Gain(dB)</name>
										<valuemin>-96</valuemin>
										<valuemax>96</valuemax>
										<value>4</value>
									</parameter>
								</effect>
							</filter>
							<filter>
								<effect>
									<name>Audio Levels</name>
									<effectid>audiolevels</effectid>
									<effectcategory>audiolevels</effectcategory>
									<effecttype>audiolevels</effecttype>
									<mediatype>audio</mediatype>
									<parameter authoringApp="PremierePro">
										<parameterid>level</parameterid>
										<name>Level</name>
										<valuemin>0</valuemin>
										<valuemax>3.98109</valuemax>
										<value>1.0365</value>
									</parameter>
								</effect>
							</filter>
							<filter>
								<effect>
									<name>Audio Pan</name>
									<effectid>audiopan</effectid>
									<effectcategory>audiopan</effectcategory>
									<effecttype>audiopan</effecttype>
									<mediatype>audio</mediatype>
									<parameter authoringApp="PremierePro">
										<parameterid>pan</parameterid>
										<name>Pan</name>
										<valuemin>-1</valuemin>
										<valuemax>1</valuemax>
										<value>0</value>
									</parameter>
								</effect>
							</filter>
					</clipitem>
					<clipitem id="clipitem-551" frameBlend="FALSE" PannerCurrentValue="0.5" PannerKeyframes="" PannerStartKeyframe="-91445760000000000,0.5,0,0,0,0,0,0" PannerIsInverted="true" PannerName="Pan">
						<masterclipid>masterclip-189</masterclipid>
						<name>Voice Stormannsgalskap.WAV</name>
						<enabled>TRUE</enabled>
						<duration>6756</duration>
						<rate>
							<ntsc>TRUE</ntsc>
							<timebase>30</timebase>
						</rate>
						<start>4988</start>
						<end>5182</end>
						<in>2618</in>
						<out>2812</out>
						<file id="file-188"/>
						<sourcetrack>
							<mediatype>audio</mediatype>
							<trackindex>1</trackindex>
						</sourcetrack>
							<filter>
								<effect>
									<name>Gain</name>
									<effectid>{61756678, 4761696e, 4b657947}</effectid>
									<effecttype>filter</effecttype>
									<mediatype>audio</mediatype>
									<parameter authoringApp="PremierePro">
										<parameterid>Gain(dB)</parameterid>
										<name>Gain(dB)</name>
										<valuemin>-96</valuemin>
										<valuemax>96</valuemax>
										<value>4</value>
									</parameter>
								</effect>
							</filter>
							<filter>
								<effect>
									<name>Audio Levels</name>
									<effectid>audiolevels</effectid>
									<effectcategory>audiolevels</effectcategory>
									<effecttype>audiolevels</effecttype>
									<mediatype>audio</mediatype>
									<parameter authoringApp="PremierePro">
										<parameterid>level</parameterid>
										<name>Level</name>
										<valuemin>0</valuemin>
										<valuemax>3.98109</valuemax>
										<value>1.0365</value>
									</parameter>
								</effect>
							</filter>
							<filter>
								<effect>
									<name>Audio Pan</name>
									<effectid>audiopan</effectid>
									<effectcategory>audiopan</effectcategory>
									<effecttype>audiopan</effecttype>
									<mediatype>audio</mediatype>
									<parameter authoringApp="PremierePro">
										<parameterid>pan</parameterid>
										<name>Pan</name>
										<valuemin>-1</valuemin>
										<valuemax>1</valuemax>
										<value>0</value>
									</parameter>
								</effect>
							</filter>
					</clipitem>
					<clipitem id="clipitem-552" frameBlend="FALSE" PannerCurrentValue="0.5" PannerKeyframes="" PannerStartKeyframe="-91445760000000000,0.5,0,0,0,0,0,0" PannerIsInverted="true" PannerName="Pan">
						<masterclipid>masterclip-190</masterclipid>
						<name>Nye voicer stormannsgalskap.WAV</name>
						<enabled>TRUE</enabled>
						<duration>1708</duration>
						<rate>
							<timebase>30</timebase>
							<ntsc>TRUE</ntsc>
						</rate>
						<start>5182</start>
						<end>5391</end>
						<in>0</in>
						<out>209</out>
						<file id="file-189">
							<name>Nye voicer stormannsgalskap.WAV</name>
							<pathurl>file://localhost/Volumes/Scenen/Prosjekter/FILM/FILM%201413%20Stormannsgalskap/Nye%20Voicer%2007.10/Nye%20voicer%20stormannsgalskap.WAV</pathurl>
							<rate>
								<timebase>30</timebase>
								<ntsc>TRUE</ntsc>
							</rate>
							<duration>2047</duration>
							<timecode>
								<rate>
									<timebase>30</timebase>
									<ntsc>TRUE</ntsc>
								</rate>
								<string>00;00;00;00</string>
								<frame>0</frame>
								<displayformat>DF</displayformat>
							</timecode>
							<media>
								<audio>
									<samplecharacteristics>
										<depth>16</depth>
										<samplerate>48000</samplerate>
									</samplecharacteristics>
									<channelcount>1</channelcount>
									<layout>mono</layout>
									<audiochannel>
										<sourcechannel>1</sourcechannel>
										<channellabel>discrete</channellabel>
									</audiochannel>
								</audio>
							</media>
						</file>
						<sourcetrack>
							<mediatype>audio</mediatype>
							<trackindex>1</trackindex>
						</sourcetrack>
							<filter>
								<effect>
									<name>Gain</name>
									<effectid>{61756678, 4761696e, 4b657947}</effectid>
									<effecttype>filter</effecttype>
									<mediatype>audio</mediatype>
									<parameter authoringApp="PremierePro">
										<parameterid>Gain(dB)</parameterid>
										<name>Gain(dB)</name>
										<valuemin>-96</valuemin>
										<valuemax>96</valuemax>
										<value>3</value>
									</parameter>
								</effect>
							</filter>
							<filter>
								<effect>
									<name>Audio Levels</name>
									<effectid>audiolevels</effectid>
									<effectcategory>audiolevels</effectcategory>
									<effecttype>audiolevels</effecttype>
									<mediatype>audio</mediatype>
									<parameter authoringApp="PremierePro">
										<parameterid>level</parameterid>
										<name>Level</name>
										<valuemin>0</valuemin>
										<valuemax>3.98109</valuemax>
										<value>1.0365</value>
									</parameter>
								</effect>
							</filter>
							<filter>
								<effect>
									<name>Audio Pan</name>
									<effectid>audiopan</effectid>
									<effectcategory>audiopan</effectcategory>
									<effecttype>audiopan</effecttype>
									<mediatype>audio</mediatype>
									<parameter authoringApp="PremierePro">
										<parameterid>pan</parameterid>
										<name>Pan</name>
										<valuemin>-1</valuemin>
										<valuemax>1</valuemax>
										<value>0</value>
									</parameter>
								</effect>
							</filter>
					</clipitem>
					<clipitem id="clipitem-553" frameBlend="FALSE" PannerCurrentValue="0.5" PannerKeyframes="" PannerStartKeyframe="-91445760000000000,0.5,0,0,0,0,0,0" PannerIsInverted="true" PannerName="Pan">
						<masterclipid>masterclip-190</masterclipid>
						<name>Nye voicer stormannsgalskap.WAV</name>
						<enabled>TRUE</enabled>
						<duration>1708</duration>
						<rate>
							<ntsc>TRUE</ntsc>
							<timebase>30</timebase>
						</rate>
						<start>6407</start>
						<end>6733</end>
						<in>232</in>
						<out>558</out>
						<file id="file-189"/>
						<sourcetrack>
							<mediatype>audio</mediatype>
							<trackindex>1</trackindex>
						</sourcetrack>
							<filter>
								<effect>
									<name>Gain</name>
									<effectid>{61756678, 4761696e, 4b657947}</effectid>
									<effecttype>filter</effecttype>
									<mediatype>audio</mediatype>
									<parameter authoringApp="PremierePro">
										<parameterid>Gain(dB)</parameterid>
										<name>Gain(dB)</name>
										<valuemin>-96</valuemin>
										<valuemax>96</valuemax>
										<value>3</value>
									</parameter>
								</effect>
							</filter>
							<filter>
								<effect>
									<name>Audio Levels</name>
									<effectid>audiolevels</effectid>
									<effectcategory>audiolevels</effectcategory>
									<effecttype>audiolevels</effecttype>
									<mediatype>audio</mediatype>
									<parameter authoringApp="PremierePro">
										<parameterid>level</parameterid>
										<name>Level</name>
										<valuemin>0</valuemin>
										<valuemax>3.98109</valuemax>
										<value>1.0365</value>
									</parameter>
								</effect>
							</filter>
							<filter>
								<effect>
									<name>Audio Pan</name>
									<effectid>audiopan</effectid>
									<effectcategory>audiopan</effectcategory>
									<effecttype>audiopan</effecttype>
									<mediatype>audio</mediatype>
									<parameter authoringApp="PremierePro">
										<parameterid>pan</parameterid>
										<name>Pan</name>
										<valuemin>-1</valuemin>
										<valuemax>1</valuemax>
										<value>0</value>
									</parameter>
								</effect>
							</filter>
					</clipitem>
					<clipitem id="clipitem-554" frameBlend="FALSE" PannerCurrentValue="0.5" PannerKeyframes="" PannerStartKeyframe="-91445760000000000,0.5,0,0,0,0,0,0" PannerIsInverted="true" PannerName="Pan">
						<masterclipid>masterclip-189</masterclipid>
						<name>Voice Stormannsgalskap.WAV</name>
						<enabled>TRUE</enabled>
						<duration>6756</duration>
						<rate>
							<ntsc>TRUE</ntsc>
							<timebase>30</timebase>
						</rate>
						<start>6883</start>
						<end>7409</end>
						<in>3284</in>
						<out>3810</out>
						<file id="file-188"/>
						<sourcetrack>
							<mediatype>audio</mediatype>
							<trackindex>1</trackindex>
						</sourcetrack>
							<filter>
								<effect>
									<name>Gain</name>
									<effectid>{61756678, 4761696e, 4b657947}</effectid>
									<effecttype>filter</effecttype>
									<mediatype>audio</mediatype>
									<parameter authoringApp="PremierePro">
										<parameterid>Gain(dB)</parameterid>
										<name>Gain(dB)</name>
										<valuemin>-96</valuemin>
										<valuemax>96</valuemax>
										<value>3</value>
									</parameter>
								</effect>
							</filter>
							<filter>
								<effect>
									<name>Audio Levels</name>
									<effectid>audiolevels</effectid>
									<effectcategory>audiolevels</effectcategory>
									<effecttype>audiolevels</effecttype>
									<mediatype>audio</mediatype>
									<parameter authoringApp="PremierePro">
										<parameterid>level</parameterid>
										<name>Level</name>
										<valuemin>0</valuemin>
										<valuemax>3.98109</valuemax>
										<value>1.0365</value>
									</parameter>
								</effect>
							</filter>
							<filter>
								<effect>
									<name>Audio Pan</name>
									<effectid>audiopan</effectid>
									<effectcategory>audiopan</effectcategory>
									<effecttype>audiopan</effecttype>
									<mediatype>audio</mediatype>
									<parameter authoringApp="PremierePro">
										<parameterid>pan</parameterid>
										<name>Pan</name>
										<valuemin>-1</valuemin>
										<valuemax>1</valuemax>
										<value>0</value>
									</parameter>
								</effect>
							</filter>
					</clipitem>
					<clipitem id="clipitem-555" frameBlend="FALSE" PannerCurrentValue="0.5" PannerKeyframes="" PannerStartKeyframe="-91445760000000000,0.5,0,0,0,0,0,0" PannerIsInverted="true" PannerName="Pan">
						<masterclipid>masterclip-189</masterclipid>
						<name>Voice Stormannsgalskap.WAV</name>
						<enabled>TRUE</enabled>
						<duration>6756</duration>
						<rate>
							<ntsc>TRUE</ntsc>
							<timebase>30</timebase>
						</rate>
						<start>7634</start>
						<end>8017</end>
						<in>3821</in>
						<out>4204</out>
						<file id="file-188"/>
						<sourcetrack>
							<mediatype>audio</mediatype>
							<trackindex>1</trackindex>
						</sourcetrack>
							<filter>
								<effect>
									<name>Gain</name>
									<effectid>{61756678, 4761696e, 4b657947}</effectid>
									<effecttype>filter</effecttype>
									<mediatype>audio</mediatype>
									<parameter authoringApp="PremierePro">
										<parameterid>Gain(dB)</parameterid>
										<name>Gain(dB)</name>
										<valuemin>-96</valuemin>
										<valuemax>96</valuemax>
										<value>3</value>
									</parameter>
								</effect>
							</filter>
							<filter>
								<effect>
									<name>Audio Levels</name>
									<effectid>audiolevels</effectid>
									<effectcategory>audiolevels</effectcategory>
									<effecttype>audiolevels</effecttype>
									<mediatype>audio</mediatype>
									<parameter authoringApp="PremierePro">
										<parameterid>level</parameterid>
										<name>Level</name>
										<valuemin>0</valuemin>
										<valuemax>3.98109</valuemax>
										<value>1.0365</value>
									</parameter>
								</effect>
							</filter>
							<filter>
								<effect>
									<name>Audio Pan</name>
									<effectid>audiopan</effectid>
									<effectcategory>audiopan</effectcategory>
									<effecttype>audiopan</effecttype>
									<mediatype>audio</mediatype>
									<parameter authoringApp="PremierePro">
										<parameterid>pan</parameterid>
										<name>Pan</name>
										<valuemin>-1</valuemin>
										<valuemax>1</valuemax>
										<value>0</value>
									</parameter>
								</effect>
							</filter>
					</clipitem>
					<clipitem id="clipitem-556" frameBlend="FALSE" PannerCurrentValue="0.5" PannerKeyframes="" PannerStartKeyframe="-91445760000000000,0.5,0,0,0,0,0,0" PannerIsInverted="true" PannerName="Pan">
						<masterclipid>masterclip-189</masterclipid>
						<name>Voice Stormannsgalskap.WAV</name>
						<enabled>TRUE</enabled>
						<duration>6756</duration>
						<rate>
							<ntsc>TRUE</ntsc>
							<timebase>30</timebase>
						</rate>
						<start>8038</start>
						<end>8106</end>
						<in>4204</in>
						<out>4272</out>
						<file id="file-188"/>
						<sourcetrack>
							<mediatype>audio</mediatype>
							<trackindex>1</trackindex>
						</sourcetrack>
							<filter>
								<effect>
									<name>Gain</name>
									<effectid>{61756678, 4761696e, 4b657947}</effectid>
									<effecttype>filter</effecttype>
									<mediatype>audio</mediatype>
									<parameter authoringApp="PremierePro">
										<parameterid>Gain(dB)</parameterid>
										<name>Gain(dB)</name>
										<valuemin>-96</valuemin>
										<valuemax>96</valuemax>
										<value>3</value>
									</parameter>
								</effect>
							</filter>
							<filter>
								<effect>
									<name>Audio Levels</name>
									<effectid>audiolevels</effectid>
									<effectcategory>audiolevels</effectcategory>
									<effecttype>audiolevels</effecttype>
									<mediatype>audio</mediatype>
									<parameter authoringApp="PremierePro">
										<parameterid>level</parameterid>
										<name>Level</name>
										<valuemin>0</valuemin>
										<valuemax>3.98109</valuemax>
										<value>1.0365</value>
									</parameter>
								</effect>
							</filter>
							<filter>
								<effect>
									<name>Audio Pan</name>
									<effectid>audiopan</effectid>
									<effectcategory>audiopan</effectcategory>
									<effecttype>audiopan</effecttype>
									<mediatype>audio</mediatype>
									<parameter authoringApp="PremierePro">
										<parameterid>pan</parameterid>
										<name>Pan</name>
										<valuemin>-1</valuemin>
										<valuemax>1</valuemax>
										<value>0</value>
									</parameter>
								</effect>
							</filter>
					</clipitem>
					<clipitem id="clipitem-557" frameBlend="FALSE" PannerCurrentValue="0.5" PannerKeyframes="" PannerStartKeyframe="-91445760000000000,0.5,0,0,0,0,0,0" PannerIsInverted="true" PannerName="Pan">
						<masterclipid>masterclip-189</masterclipid>
						<name>Voice Stormannsgalskap.WAV</name>
						<enabled>TRUE</enabled>
						<duration>6756</duration>
						<rate>
							<ntsc>TRUE</ntsc>
							<timebase>30</timebase>
						</rate>
						<start>8110</start>
						<end>8499</end>
						<in>4272</in>
						<out>4661</out>
						<file id="file-188"/>
						<sourcetrack>
							<mediatype>audio</mediatype>
							<trackindex>1</trackindex>
						</sourcetrack>
							<filter>
								<effect>
									<name>Gain</name>
									<effectid>{61756678, 4761696e, 4b657947}</effectid>
									<effecttype>filter</effecttype>
									<mediatype>audio</mediatype>
									<parameter authoringApp="PremierePro">
										<parameterid>Gain(dB)</parameterid>
										<name>Gain(dB)</name>
										<valuemin>-96</valuemin>
										<valuemax>96</valuemax>
										<value>3</value>
									</parameter>
								</effect>
							</filter>
							<filter>
								<effect>
									<name>Audio Levels</name>
									<effectid>audiolevels</effectid>
									<effectcategory>audiolevels</effectcategory>
									<effecttype>audiolevels</effecttype>
									<mediatype>audio</mediatype>
									<parameter authoringApp="PremierePro">
										<parameterid>level</parameterid>
										<name>Level</name>
										<valuemin>0</valuemin>
										<valuemax>3.98109</valuemax>
										<value>1.0365</value>
									</parameter>
								</effect>
							</filter>
							<filter>
								<effect>
									<name>Audio Pan</name>
									<effectid>audiopan</effectid>
									<effectcategory>audiopan</effectcategory>
									<effecttype>audiopan</effecttype>
									<mediatype>audio</mediatype>
									<parameter authoringApp="PremierePro">
										<parameterid>pan</parameterid>
										<name>Pan</name>
										<valuemin>-1</valuemin>
										<valuemax>1</valuemax>
										<value>0</value>
									</parameter>
								</effect>
							</filter>
					</clipitem>
					<clipitem id="clipitem-558" frameBlend="FALSE" PannerCurrentValue="0.5" PannerKeyframes="" PannerStartKeyframe="-91445760000000000,0.5,0,0,0,0,0,0" PannerIsInverted="true" PannerName="Pan">
						<masterclipid>masterclip-189</masterclipid>
						<name>Voice Stormannsgalskap.WAV</name>
						<enabled>TRUE</enabled>
						<duration>6756</duration>
						<rate>
							<ntsc>TRUE</ntsc>
							<timebase>30</timebase>
						</rate>
						<start>8611</start>
						<end>8826</end>
						<in>4698</in>
						<out>4913</out>
						<file id="file-188"/>
						<sourcetrack>
							<mediatype>audio</mediatype>
							<trackindex>1</trackindex>
						</sourcetrack>
							<filter>
								<effect>
									<name>Gain</name>
									<effectid>{61756678, 4761696e, 4b657947}</effectid>
									<effecttype>filter</effecttype>
									<mediatype>audio</mediatype>
									<parameter authoringApp="PremierePro">
										<parameterid>Gain(dB)</parameterid>
										<name>Gain(dB)</name>
										<valuemin>-96</valuemin>
										<valuemax>96</valuemax>
										<value>3</value>
									</parameter>
								</effect>
							</filter>
							<filter>
								<effect>
									<name>Audio Levels</name>
									<effectid>audiolevels</effectid>
									<effectcategory>audiolevels</effectcategory>
									<effecttype>audiolevels</effecttype>
									<mediatype>audio</mediatype>
									<parameter authoringApp="PremierePro">
										<parameterid>level</parameterid>
										<name>Level</name>
										<valuemin>0</valuemin>
										<valuemax>3.98109</valuemax>
										<value>1.22409</value>
										<keyframe>
											<when>4868</when>
											<value>1.0365</value>
										</keyframe>
										<keyframe>
											<when>4892</when>
											<value>1.22409</value>
										</keyframe>
									</parameter>
								</effect>
							</filter>
							<filter>
								<effect>
									<name>Audio Pan</name>
									<effectid>audiopan</effectid>
									<effectcategory>audiopan</effectcategory>
									<effecttype>audiopan</effecttype>
									<mediatype>audio</mediatype>
									<parameter authoringApp="PremierePro">
										<parameterid>pan</parameterid>
										<name>Pan</name>
										<valuemin>-1</valuemin>
										<valuemax>1</valuemax>
										<value>0</value>
									</parameter>
								</effect>
							</filter>
					</clipitem>
					<clipitem id="clipitem-559" frameBlend="FALSE" PannerCurrentValue="0.5" PannerKeyframes="" PannerStartKeyframe="-91445760000000000,0.5,0,0,0,0,0,0" PannerIsInverted="true" PannerName="Pan">
						<masterclipid>masterclip-189</masterclipid>
						<name>Voice Stormannsgalskap.WAV</name>
						<enabled>TRUE</enabled>
						<duration>6756</duration>
						<rate>
							<ntsc>TRUE</ntsc>
							<timebase>30</timebase>
						</rate>
						<start>8826</start>
						<end>9107</end>
						<in>4927</in>
						<out>5208</out>
						<file id="file-188"/>
						<sourcetrack>
							<mediatype>audio</mediatype>
							<trackindex>1</trackindex>
						</sourcetrack>
							<filter>
								<effect>
									<name>Gain</name>
									<effectid>{61756678, 4761696e, 4b657947}</effectid>
									<effecttype>filter</effecttype>
									<mediatype>audio</mediatype>
									<parameter authoringApp="PremierePro">
										<parameterid>Gain(dB)</parameterid>
										<name>Gain(dB)</name>
										<valuemin>-96</valuemin>
										<valuemax>96</valuemax>
										<value>3</value>
									</parameter>
								</effect>
							</filter>
							<filter>
								<effect>
									<name>Audio Levels</name>
									<effectid>audiolevels</effectid>
									<effectcategory>audiolevels</effectcategory>
									<effecttype>audiolevels</effecttype>
									<mediatype>audio</mediatype>
									<parameter authoringApp="PremierePro">
										<parameterid>level</parameterid>
										<name>Level</name>
										<valuemin>0</valuemin>
										<valuemax>3.98109</valuemax>
										<value>1.0365</value>
										<keyframe>
											<when>4956</when>
											<value>0.89648</value>
										</keyframe>
										<keyframe>
											<when>4975</when>
											<value>1.0365</value>
										</keyframe>
									</parameter>
								</effect>
							</filter>
							<filter>
								<effect>
									<name>Audio Pan</name>
									<effectid>audiopan</effectid>
									<effectcategory>audiopan</effectcategory>
									<effecttype>audiopan</effecttype>
									<mediatype>audio</mediatype>
									<parameter authoringApp="PremierePro">
										<parameterid>pan</parameterid>
										<name>Pan</name>
										<valuemin>-1</valuemin>
										<valuemax>1</valuemax>
										<value>0</value>
									</parameter>
								</effect>
							</filter>
					</clipitem>
					<clipitem id="clipitem-560" frameBlend="FALSE" PannerCurrentValue="0.5" PannerKeyframes="" PannerStartKeyframe="-91445760000000000,0.5,0,0,0,0,0,0" PannerIsInverted="true" PannerName="Pan">
						<masterclipid>masterclip-189</masterclipid>
						<name>Voice Stormannsgalskap.WAV</name>
						<enabled>TRUE</enabled>
						<duration>6756</duration>
						<rate>
							<ntsc>TRUE</ntsc>
							<timebase>30</timebase>
						</rate>
						<start>9136</start>
						<end>9384</end>
						<in>5212</in>
						<out>5460</out>
						<file id="file-188"/>
						<sourcetrack>
							<mediatype>audio</mediatype>
							<trackindex>1</trackindex>
						</sourcetrack>
							<filter>
								<effect>
									<name>Gain</name>
									<effectid>{61756678, 4761696e, 4b657947}</effectid>
									<effecttype>filter</effecttype>
									<mediatype>audio</mediatype>
									<parameter authoringApp="PremierePro">
										<parameterid>Gain(dB)</parameterid>
										<name>Gain(dB)</name>
										<valuemin>-96</valuemin>
										<valuemax>96</valuemax>
										<value>3</value>
									</parameter>
								</effect>
							</filter>
							<filter>
								<effect>
									<name>Audio Levels</name>
									<effectid>audiolevels</effectid>
									<effectcategory>audiolevels</effectcategory>
									<effecttype>audiolevels</effecttype>
									<mediatype>audio</mediatype>
									<parameter authoringApp="PremierePro">
										<parameterid>level</parameterid>
										<name>Level</name>
										<valuemin>0</valuemin>
										<valuemax>3.98109</valuemax>
										<value>1.0365</value>
									</parameter>
								</effect>
							</filter>
							<filter>
								<effect>
									<name>Audio Pan</name>
									<effectid>audiopan</effectid>
									<effectcategory>audiopan</effectcategory>
									<effecttype>audiopan</effecttype>
									<mediatype>audio</mediatype>
									<parameter authoringApp="PremierePro">
										<parameterid>pan</parameterid>
										<name>Pan</name>
										<valuemin>-1</valuemin>
										<valuemax>1</valuemax>
										<value>0</value>
									</parameter>
								</effect>
							</filter>
					</clipitem>
					<clipitem id="clipitem-561" frameBlend="FALSE" PannerCurrentValue="0.5" PannerKeyframes="" PannerStartKeyframe="-91445760000000000,0.5,0,0,0,0,0,0" PannerIsInverted="true" PannerName="Pan">
						<masterclipid>masterclip-189</masterclipid>
						<name>Voice Stormannsgalskap.WAV</name>
						<enabled>TRUE</enabled>
						<duration>6756</duration>
						<rate>
							<ntsc>TRUE</ntsc>
							<timebase>30</timebase>
						</rate>
						<start>9530</start>
						<end>9628</end>
						<in>5468</in>
						<out>5566</out>
						<file id="file-188"/>
						<sourcetrack>
							<mediatype>audio</mediatype>
							<trackindex>1</trackindex>
						</sourcetrack>
							<filter>
								<effect>
									<name>Gain</name>
									<effectid>{61756678, 4761696e, 4b657947}</effectid>
									<effecttype>filter</effecttype>
									<mediatype>audio</mediatype>
									<parameter authoringApp="PremierePro">
										<parameterid>Gain(dB)</parameterid>
										<name>Gain(dB)</name>
										<valuemin>-96</valuemin>
										<valuemax>96</valuemax>
										<value>3</value>
									</parameter>
								</effect>
							</filter>
							<filter>
								<effect>
									<name>Audio Levels</name>
									<effectid>audiolevels</effectid>
									<effectcategory>audiolevels</effectcategory>
									<effecttype>audiolevels</effecttype>
									<mediatype>audio</mediatype>
									<parameter authoringApp="PremierePro">
										<parameterid>level</parameterid>
										<name>Level</name>
										<valuemin>0</valuemin>
										<valuemax>3.98109</valuemax>
										<value>1.0365</value>
									</parameter>
								</effect>
							</filter>
							<filter>
								<effect>
									<name>Audio Pan</name>
									<effectid>audiopan</effectid>
									<effectcategory>audiopan</effectcategory>
									<effecttype>audiopan</effecttype>
									<mediatype>audio</mediatype>
									<parameter authoringApp="PremierePro">
										<parameterid>pan</parameterid>
										<name>Pan</name>
										<valuemin>-1</valuemin>
										<valuemax>1</valuemax>
										<value>0</value>
									</parameter>
								</effect>
							</filter>
					</clipitem>
					<clipitem id="clipitem-562" frameBlend="FALSE" PannerCurrentValue="0.5" PannerKeyframes="" PannerStartKeyframe="-91445760000000000,0.5,0,0,0,0,0,0" PannerIsInverted="true" PannerName="Pan">
						<masterclipid>masterclip-189</masterclipid>
						<name>Voice Stormannsgalskap.WAV</name>
						<enabled>TRUE</enabled>
						<duration>6756</duration>
						<rate>
							<ntsc>TRUE</ntsc>
							<timebase>30</timebase>
						</rate>
						<start>9637</start>
						<end>9908</end>
						<in>5576</in>
						<out>5847</out>
						<file id="file-188"/>
						<sourcetrack>
							<mediatype>audio</mediatype>
							<trackindex>1</trackindex>
						</sourcetrack>
							<filter>
								<effect>
									<name>Gain</name>
									<effectid>{61756678, 4761696e, 4b657947}</effectid>
									<effecttype>filter</effecttype>
									<mediatype>audio</mediatype>
									<parameter authoringApp="PremierePro">
										<parameterid>Gain(dB)</parameterid>
										<name>Gain(dB)</name>
										<valuemin>-96</valuemin>
										<valuemax>96</valuemax>
										<value>3</value>
									</parameter>
								</effect>
							</filter>
							<filter>
								<effect>
									<name>Audio Levels</name>
									<effectid>audiolevels</effectid>
									<effectcategory>audiolevels</effectcategory>
									<effecttype>audiolevels</effecttype>
									<mediatype>audio</mediatype>
									<parameter authoringApp="PremierePro">
										<parameterid>level</parameterid>
										<name>Level</name>
										<valuemin>0</valuemin>
										<valuemax>3.98109</valuemax>
										<value>1.0365</value>
									</parameter>
								</effect>
							</filter>
							<filter>
								<effect>
									<name>Audio Pan</name>
									<effectid>audiopan</effectid>
									<effectcategory>audiopan</effectcategory>
									<effecttype>audiopan</effecttype>
									<mediatype>audio</mediatype>
									<parameter authoringApp="PremierePro">
										<parameterid>pan</parameterid>
										<name>Pan</name>
										<valuemin>-1</valuemin>
										<valuemax>1</valuemax>
										<value>0</value>
									</parameter>
								</effect>
							</filter>
					</clipitem>
					<clipitem id="clipitem-563" frameBlend="FALSE" PannerCurrentValue="0.5" PannerKeyframes="" PannerStartKeyframe="-91445760000000000,0.5,0,0,0,0,0,0" PannerIsInverted="true" PannerName="Pan">
						<masterclipid>masterclip-189</masterclipid>
						<name>Voice Stormannsgalskap.WAV</name>
						<enabled>TRUE</enabled>
						<duration>6756</duration>
						<rate>
							<ntsc>TRUE</ntsc>
							<timebase>30</timebase>
						</rate>
						<start>9926</start>
						<end>10226</end>
						<in>5848</in>
						<out>6148</out>
						<file id="file-188"/>
						<sourcetrack>
							<mediatype>audio</mediatype>
							<trackindex>1</trackindex>
						</sourcetrack>
							<filter>
								<effect>
									<name>Gain</name>
									<effectid>{61756678, 4761696e, 4b657947}</effectid>
									<effecttype>filter</effecttype>
									<mediatype>audio</mediatype>
									<parameter authoringApp="PremierePro">
										<parameterid>Gain(dB)</parameterid>
										<name>Gain(dB)</name>
										<valuemin>-96</valuemin>
										<valuemax>96</valuemax>
										<value>3</value>
									</parameter>
								</effect>
							</filter>
							<filter>
								<effect>
									<name>Audio Levels</name>
									<effectid>audiolevels</effectid>
									<effectcategory>audiolevels</effectcategory>
									<effecttype>audiolevels</effecttype>
									<mediatype>audio</mediatype>
									<parameter authoringApp="PremierePro">
										<parameterid>level</parameterid>
										<name>Level</name>
										<valuemin>0</valuemin>
										<valuemax>3.98109</valuemax>
										<value>1.0365</value>
									</parameter>
								</effect>
							</filter>
							<filter>
								<effect>
									<name>Audio Pan</name>
									<effectid>audiopan</effectid>
									<effectcategory>audiopan</effectcategory>
									<effecttype>audiopan</effecttype>
									<mediatype>audio</mediatype>
									<parameter authoringApp="PremierePro">
										<parameterid>pan</parameterid>
										<name>Pan</name>
										<valuemin>-1</valuemin>
										<valuemax>1</valuemax>
										<value>0</value>
									</parameter>
								</effect>
							</filter>
					</clipitem>
					<clipitem id="clipitem-564" frameBlend="FALSE" PannerCurrentValue="0.5" PannerKeyframes="" PannerStartKeyframe="-91445760000000000,0.5,0,0,0,0,0,0" PannerIsInverted="true" PannerName="Pan">
						<masterclipid>masterclip-190</masterclipid>
						<name>Nye voicer stormannsgalskap.WAV</name>
						<enabled>TRUE</enabled>
						<duration>1708</duration>
						<rate>
							<ntsc>TRUE</ntsc>
							<timebase>30</timebase>
						</rate>
						<start>10388</start>
						<end>10733</end>
						<in>643</in>
						<out>988</out>
						<file id="file-189"/>
						<sourcetrack>
							<mediatype>audio</mediatype>
							<trackindex>1</trackindex>
						</sourcetrack>
							<filter>
								<effect>
									<name>Gain</name>
									<effectid>{61756678, 4761696e, 4b657947}</effectid>
									<effecttype>filter</effecttype>
									<mediatype>audio</mediatype>
									<parameter authoringApp="PremierePro">
										<parameterid>Gain(dB)</parameterid>
										<name>Gain(dB)</name>
										<valuemin>-96</valuemin>
										<valuemax>96</valuemax>
										<value>1</value>
									</parameter>
								</effect>
							</filter>
							<filter>
								<effect>
									<name>Audio Levels</name>
									<effectid>audiolevels</effectid>
									<effectcategory>audiolevels</effectcategory>
									<effecttype>audiolevels</effecttype>
									<mediatype>audio</mediatype>
									<parameter authoringApp="PremierePro">
										<parameterid>level</parameterid>
										<name>Level</name>
										<valuemin>0</valuemin>
										<valuemax>3.98109</valuemax>
										<value>1.0365</value>
									</parameter>
								</effect>
							</filter>
							<filter>
								<effect>
									<name>Audio Pan</name>
									<effectid>audiopan</effectid>
									<effectcategory>audiopan</effectcategory>
									<effecttype>audiopan</effecttype>
									<mediatype>audio</mediatype>
									<parameter authoringApp="PremierePro">
										<parameterid>pan</parameterid>
										<name>Pan</name>
										<valuemin>-1</valuemin>
										<valuemax>1</valuemax>
										<value>0</value>
									</parameter>
								</effect>
							</filter>
					</clipitem>
					<clipitem id="clipitem-565" frameBlend="FALSE" PannerCurrentValue="0.5" PannerKeyframes="" PannerStartKeyframe="-91445760000000000,0.5,0,0,0,0,0,0" PannerIsInverted="true" PannerName="Pan">
						<masterclipid>masterclip-190</masterclipid>
						<name>Nye voicer stormannsgalskap.WAV</name>
						<enabled>TRUE</enabled>
						<duration>1708</duration>
						<rate>
							<ntsc>TRUE</ntsc>
							<timebase>30</timebase>
						</rate>
						<start>10752</start>
						<end>10784</end>
						<in>1031</in>
						<out>1063</out>
						<file id="file-189"/>
						<sourcetrack>
							<mediatype>audio</mediatype>
							<trackindex>1</trackindex>
						</sourcetrack>
							<filter>
								<effect>
									<name>Gain</name>
									<effectid>{61756678, 4761696e, 4b657947}</effectid>
									<effecttype>filter</effecttype>
									<mediatype>audio</mediatype>
									<parameter authoringApp="PremierePro">
										<parameterid>Gain(dB)</parameterid>
										<name>Gain(dB)</name>
										<valuemin>-96</valuemin>
										<valuemax>96</valuemax>
										<value>1</value>
									</parameter>
								</effect>
							</filter>
							<filter>
								<effect>
									<name>Audio Levels</name>
									<effectid>audiolevels</effectid>
									<effectcategory>audiolevels</effectcategory>
									<effecttype>audiolevels</effecttype>
									<mediatype>audio</mediatype>
									<parameter authoringApp="PremierePro">
										<parameterid>level</parameterid>
										<name>Level</name>
										<valuemin>0</valuemin>
										<valuemax>3.98109</valuemax>
										<value>1.0365</value>
									</parameter>
								</effect>
							</filter>
							<filter>
								<effect>
									<name>Audio Pan</name>
									<effectid>audiopan</effectid>
									<effectcategory>audiopan</effectcategory>
									<effecttype>audiopan</effecttype>
									<mediatype>audio</mediatype>
									<parameter authoringApp="PremierePro">
										<parameterid>pan</parameterid>
										<name>Pan</name>
										<valuemin>-1</valuemin>
										<valuemax>1</valuemax>
										<value>0</value>
									</parameter>
								</effect>
							</filter>
					</clipitem>
					<clipitem id="clipitem-566" frameBlend="FALSE" PannerCurrentValue="0.5" PannerKeyframes="" PannerStartKeyframe="-91445760000000000,0.5,0,0,0,0,0,0" PannerIsInverted="true" PannerName="Pan">
						<masterclipid>masterclip-190</masterclipid>
						<name>Nye voicer stormannsgalskap.WAV</name>
						<enabled>TRUE</enabled>
						<duration>1708</duration>
						<rate>
							<ntsc>TRUE</ntsc>
							<timebase>30</timebase>
						</rate>
						<start>10784</start>
						<end>10966</end>
						<in>1062</in>
						<out>1244</out>
						<file id="file-189"/>
						<sourcetrack>
							<mediatype>audio</mediatype>
							<trackindex>1</trackindex>
						</sourcetrack>
							<filter>
								<effect>
									<name>Gain</name>
									<effectid>{61756678, 4761696e, 4b657947}</effectid>
									<effecttype>filter</effecttype>
									<mediatype>audio</mediatype>
									<parameter authoringApp="PremierePro">
										<parameterid>Gain(dB)</parameterid>
										<name>Gain(dB)</name>
										<valuemin>-96</valuemin>
										<valuemax>96</valuemax>
										<value>1</value>
									</parameter>
								</effect>
							</filter>
							<filter>
								<effect>
									<name>Audio Levels</name>
									<effectid>audiolevels</effectid>
									<effectcategory>audiolevels</effectcategory>
									<effecttype>audiolevels</effecttype>
									<mediatype>audio</mediatype>
									<parameter authoringApp="PremierePro">
										<parameterid>level</parameterid>
										<name>Level</name>
										<valuemin>0</valuemin>
										<valuemax>3.98109</valuemax>
										<value>1.0365</value>
									</parameter>
								</effect>
							</filter>
							<filter>
								<effect>
									<name>Audio Pan</name>
									<effectid>audiopan</effectid>
									<effectcategory>audiopan</effectcategory>
									<effecttype>audiopan</effecttype>
									<mediatype>audio</mediatype>
									<parameter authoringApp="PremierePro">
										<parameterid>pan</parameterid>
										<name>Pan</name>
										<valuemin>-1</valuemin>
										<valuemax>1</valuemax>
										<value>0</value>
									</parameter>
								</effect>
							</filter>
					</clipitem>
					<clipitem id="clipitem-567" frameBlend="FALSE" PannerCurrentValue="0.5" PannerKeyframes="" PannerStartKeyframe="-91445760000000000,0.5,0,0,0,0,0,0" PannerIsInverted="true" PannerName="Pan">
						<masterclipid>masterclip-190</masterclipid>
						<name>Nye voicer stormannsgalskap.WAV</name>
						<enabled>TRUE</enabled>
						<duration>1708</duration>
						<rate>
							<ntsc>TRUE</ntsc>
							<timebase>30</timebase>
						</rate>
						<start>10966</start>
						<end>11199</end>
						<in>1253</in>
						<out>1486</out>
						<file id="file-189"/>
						<sourcetrack>
							<mediatype>audio</mediatype>
							<trackindex>1</trackindex>
						</sourcetrack>
							<filter>
								<effect>
									<name>Gain</name>
									<effectid>{61756678, 4761696e, 4b657947}</effectid>
									<effecttype>filter</effecttype>
									<mediatype>audio</mediatype>
									<parameter authoringApp="PremierePro">
										<parameterid>Gain(dB)</parameterid>
										<name>Gain(dB)</name>
										<valuemin>-96</valuemin>
										<valuemax>96</valuemax>
										<value>1</value>
									</parameter>
								</effect>
							</filter>
							<filter>
								<effect>
									<name>Audio Levels</name>
									<effectid>audiolevels</effectid>
									<effectcategory>audiolevels</effectcategory>
									<effecttype>audiolevels</effecttype>
									<mediatype>audio</mediatype>
									<parameter authoringApp="PremierePro">
										<parameterid>level</parameterid>
										<name>Level</name>
										<valuemin>0</valuemin>
										<valuemax>3.98109</valuemax>
										<value>1.0365</value>
									</parameter>
								</effect>
							</filter>
							<filter>
								<effect>
									<name>Audio Pan</name>
									<effectid>audiopan</effectid>
									<effectcategory>audiopan</effectcategory>
									<effecttype>audiopan</effecttype>
									<mediatype>audio</mediatype>
									<parameter authoringApp="PremierePro">
										<parameterid>pan</parameterid>
										<name>Pan</name>
										<valuemin>-1</valuemin>
										<valuemax>1</valuemax>
										<value>0</value>
									</parameter>
								</effect>
							</filter>
					</clipitem>
					<clipitem id="clipitem-568" frameBlend="FALSE" PannerCurrentValue="0.5" PannerKeyframes="" PannerStartKeyframe="-91445760000000000,0.5,0,0,0,0,0,0" PannerIsInverted="true" PannerName="Pan">
						<masterclipid>masterclip-190</masterclipid>
						<name>Nye voicer stormannsgalskap.WAV</name>
						<enabled>TRUE</enabled>
						<duration>1708</duration>
						<rate>
							<ntsc>TRUE</ntsc>
							<timebase>30</timebase>
						</rate>
						<start>11199</start>
						<end>11403</end>
						<in>1504</in>
						<out>1708</out>
						<file id="file-189"/>
						<sourcetrack>
							<mediatype>audio</mediatype>
							<trackindex>1</trackindex>
						</sourcetrack>
							<filter>
								<effect>
									<name>Gain</name>
									<effectid>{61756678, 4761696e, 4b657947}</effectid>
									<effecttype>filter</effecttype>
									<mediatype>audio</mediatype>
									<parameter authoringApp="PremierePro">
										<parameterid>Gain(dB)</parameterid>
										<name>Gain(dB)</name>
										<valuemin>-96</valuemin>
										<valuemax>96</valuemax>
										<value>1</value>
									</parameter>
								</effect>
							</filter>
							<filter>
								<effect>
									<name>Audio Levels</name>
									<effectid>audiolevels</effectid>
									<effectcategory>audiolevels</effectcategory>
									<effecttype>audiolevels</effecttype>
									<mediatype>audio</mediatype>
									<parameter authoringApp="PremierePro">
										<parameterid>level</parameterid>
										<name>Level</name>
										<valuemin>0</valuemin>
										<valuemax>3.98109</valuemax>
										<value>1.42155</value>
										<keyframe>
											<when>1619</when>
											<value>1.0365</value>
										</keyframe>
										<keyframe>
											<when>1644</when>
											<value>1.17652</value>
										</keyframe>
										<keyframe>
											<when>1665</when>
											<value>1.42155</value>
										</keyframe>
									</parameter>
								</effect>
							</filter>
							<filter>
								<effect>
									<name>Audio Pan</name>
									<effectid>audiopan</effectid>
									<effectcategory>audiopan</effectcategory>
									<effecttype>audiopan</effecttype>
									<mediatype>audio</mediatype>
									<parameter authoringApp="PremierePro">
										<parameterid>pan</parameterid>
										<name>Pan</name>
										<valuemin>-1</valuemin>
										<valuemax>1</valuemax>
										<value>0</value>
									</parameter>
								</effect>
							</filter>
					</clipitem>
					<clipitem id="clipitem-569" frameBlend="FALSE" PannerCurrentValue="0.5" PannerKeyframes="" PannerStartKeyframe="-91445760000000000,0.5,0,0,0,0,0,0" PannerIsInverted="true" PannerName="Pan">
						<masterclipid>masterclip-191</masterclipid>
						<name>Speak_7.wav</name>
						<enabled>TRUE</enabled>
						<duration>2247</duration>
						<rate>
							<timebase>30</timebase>
							<ntsc>TRUE</ntsc>
						</rate>
						<start>12268</start>
						<end>12697</end>
						<in>60</in>
						<out>489</out>
						<file id="file-190">
							<name>Speak_7.wav</name>
							<pathurl>file://localhost/Users/n14288/Documents/Adobe/Premiere%20Pro/7.0/Speak_7.wav</pathurl>
							<rate>
								<timebase>30</timebase>
								<ntsc>TRUE</ntsc>
							</rate>
							<duration>2694</duration>
							<timecode>
								<rate>
									<timebase>30</timebase>
									<ntsc>TRUE</ntsc>
								</rate>
								<string>00;00;00;00</string>
								<frame>0</frame>
								<displayformat>DF</displayformat>
							</timecode>
							<media>
								<audio>
									<samplecharacteristics>
										<depth>16</depth>
										<samplerate>48000</samplerate>
									</samplecharacteristics>
									<channelcount>1</channelcount>
									<layout>mono</layout>
									<audiochannel>
										<sourcechannel>1</sourcechannel>
										<channellabel>discrete</channellabel>
									</audiochannel>
								</audio>
							</media>
						</file>
						<sourcetrack>
							<mediatype>audio</mediatype>
							<trackindex>1</trackindex>
						</sourcetrack>
							<filter>
								<effect>
									<name>Audio Pan</name>
									<effectid>audiopan</effectid>
									<effectcategory>audiopan</effectcategory>
									<effecttype>audiopan</effecttype>
									<mediatype>audio</mediatype>
									<parameter authoringApp="PremierePro">
										<parameterid>pan</parameterid>
										<name>Pan</name>
										<valuemin>-1</valuemin>
										<valuemax>1</valuemax>
										<value>0</value>
									</parameter>
								</effect>
							</filter>
					</clipitem>
					<clipitem id="clipitem-570" frameBlend="FALSE" PannerCurrentValue="0.5" PannerKeyframes="" PannerStartKeyframe="-91445760000000000,0.5,0,0,0,0,0,0" PannerIsInverted="true" PannerName="Pan">
						<masterclipid>masterclip-191</masterclipid>
						<name>Speak_7.wav</name>
						<enabled>TRUE</enabled>
						<duration>2247</duration>
						<rate>
							<ntsc>TRUE</ntsc>
							<timebase>30</timebase>
						</rate>
						<start>12975</start>
						<end>13044</end>
						<in>634</in>
						<out>703</out>
						<file id="file-190"/>
						<sourcetrack>
							<mediatype>audio</mediatype>
							<trackindex>1</trackindex>
						</sourcetrack>
							<filter>
								<effect>
									<name>Audio Pan</name>
									<effectid>audiopan</effectid>
									<effectcategory>audiopan</effectcategory>
									<effecttype>audiopan</effecttype>
									<mediatype>audio</mediatype>
									<parameter authoringApp="PremierePro">
										<parameterid>pan</parameterid>
										<name>Pan</name>
										<valuemin>-1</valuemin>
										<valuemax>1</valuemax>
										<value>0</value>
									</parameter>
								</effect>
							</filter>
					</clipitem>
					<clipitem id="clipitem-571" frameBlend="FALSE" PannerCurrentValue="0.5" PannerKeyframes="" PannerStartKeyframe="-91445760000000000,0.5,0,0,0,0,0,0" PannerIsInverted="true" PannerName="Pan">
						<masterclipid>masterclip-191</masterclipid>
						<name>Speak_7.wav</name>
						<enabled>TRUE</enabled>
						<duration>2247</duration>
						<rate>
							<ntsc>TRUE</ntsc>
							<timebase>30</timebase>
						</rate>
						<start>13267</start>
						<end>13457</end>
						<in>703</in>
						<out>893</out>
						<file id="file-190"/>
						<sourcetrack>
							<mediatype>audio</mediatype>
							<trackindex>1</trackindex>
						</sourcetrack>
							<filter>
								<effect>
									<name>Audio Pan</name>
									<effectid>audiopan</effectid>
									<effectcategory>audiopan</effectcategory>
									<effecttype>audiopan</effecttype>
									<mediatype>audio</mediatype>
									<parameter authoringApp="PremierePro">
										<parameterid>pan</parameterid>
										<name>Pan</name>
										<valuemin>-1</valuemin>
										<valuemax>1</valuemax>
										<value>0</value>
									</parameter>
								</effect>
							</filter>
					</clipitem>
					<clipitem id="clipitem-572" frameBlend="FALSE" PannerCurrentValue="0.5" PannerKeyframes="" PannerStartKeyframe="-91445760000000000,0.5,0,0,0,0,0,0" PannerIsInverted="true" PannerName="Pan">
						<masterclipid>masterclip-191</masterclipid>
						<name>Speak_7.wav</name>
						<enabled>TRUE</enabled>
						<duration>2247</duration>
						<rate>
							<ntsc>TRUE</ntsc>
							<timebase>30</timebase>
						</rate>
						<start>14716</start>
						<end>15062</end>
						<in>1185</in>
						<out>1531</out>
						<file id="file-190"/>
						<sourcetrack>
							<mediatype>audio</mediatype>
							<trackindex>1</trackindex>
						</sourcetrack>
							<filter>
								<effect>
									<name>Gain</name>
									<effectid>{61756678, 4761696e, 4b657947}</effectid>
									<effecttype>filter</effecttype>
									<mediatype>audio</mediatype>
									<parameter authoringApp="PremierePro">
										<parameterid>Gain(dB)</parameterid>
										<name>Gain(dB)</name>
										<valuemin>-96</valuemin>
										<valuemax>96</valuemax>
										<value>5</value>
									</parameter>
								</effect>
							</filter>
							<filter>
								<effect>
									<name>Audio Levels</name>
									<effectid>audiolevels</effectid>
									<effectcategory>audiolevels</effectcategory>
									<effecttype>audiolevels</effecttype>
									<mediatype>audio</mediatype>
									<parameter authoringApp="PremierePro">
										<parameterid>level</parameterid>
										<name>Level</name>
										<valuemin>0</valuemin>
										<valuemax>3.98109</valuemax>
										<value>0.99763</value>
										<keyframe>
											<when>1284</when>
											<value>0.99763</value>
										</keyframe>
										<keyframe>
											<when>1287</when>
											<value>0.867099</value>
										</keyframe>
										<keyframe>
											<when>1297</when>
											<value>0.867099</value>
										</keyframe>
										<keyframe>
											<when>1301</when>
											<value>0.99763</value>
										</keyframe>
										<keyframe>
											<when>1378</when>
											<value>0.99763</value>
										</keyframe>
										<keyframe>
											<when>1387</when>
											<value>1.12816</value>
										</keyframe>
										<keyframe>
											<when>1519</when>
											<value>1.12816</value>
										</keyframe>
										<keyframe>
											<when>1527</when>
											<value>0.904394</value>
										</keyframe>
									</parameter>
								</effect>
							</filter>
							<filter>
								<effect>
									<name>Audio Pan</name>
									<effectid>audiopan</effectid>
									<effectcategory>audiopan</effectcategory>
									<effecttype>audiopan</effecttype>
									<mediatype>audio</mediatype>
									<parameter authoringApp="PremierePro">
										<parameterid>pan</parameterid>
										<name>Pan</name>
										<valuemin>-1</valuemin>
										<valuemax>1</valuemax>
										<value>0</value>
									</parameter>
								</effect>
							</filter>
					</clipitem>
					<clipitem id="clipitem-573" frameBlend="FALSE" PannerCurrentValue="0.5" PannerKeyframes="" PannerStartKeyframe="-91445760000000000,0.5,0,0,0,0,0,0" PannerIsInverted="true" PannerName="Pan">
						<masterclipid>masterclip-192</masterclipid>
						<name>Speak_16.wav</name>
						<enabled>TRUE</enabled>
						<duration>199</duration>
						<rate>
							<timebase>30</timebase>
							<ntsc>TRUE</ntsc>
						</rate>
						<start>15062</start>
						<end>15168</end>
						<in>65</in>
						<out>171</out>
						<file id="file-191">
							<name>Speak_16.wav</name>
							<pathurl>file://localhost/Users/n14288/Documents/Adobe/Premiere%20Pro/7.0/Speak_16.wav</pathurl>
							<rate>
								<timebase>30</timebase>
								<ntsc>TRUE</ntsc>
							</rate>
							<duration>238</duration>
							<timecode>
								<rate>
									<timebase>30</timebase>
									<ntsc>TRUE</ntsc>
								</rate>
								<string>00;00;00;00</string>
								<frame>0</frame>
								<displayformat>DF</displayformat>
							</timecode>
							<media>
								<audio>
									<samplecharacteristics>
										<depth>16</depth>
										<samplerate>48000</samplerate>
									</samplecharacteristics>
									<channelcount>1</channelcount>
									<layout>mono</layout>
									<audiochannel>
										<sourcechannel>1</sourcechannel>
										<channellabel>discrete</channellabel>
									</audiochannel>
								</audio>
							</media>
						</file>
						<sourcetrack>
							<mediatype>audio</mediatype>
							<trackindex>1</trackindex>
						</sourcetrack>
							<filter>
								<effect>
									<name>Gain</name>
									<effectid>{61756678, 4761696e, 4b657947}</effectid>
									<effecttype>filter</effecttype>
									<mediatype>audio</mediatype>
									<parameter authoringApp="PremierePro">
										<parameterid>Gain(dB)</parameterid>
										<name>Gain(dB)</name>
										<valuemin>-96</valuemin>
										<valuemax>96</valuemax>
										<value>3</value>
									</parameter>
								</effect>
							</filter>
							<filter>
								<effect>
									<name>Audio Levels</name>
									<effectid>audiolevels</effectid>
									<effectcategory>audiolevels</effectcategory>
									<effecttype>audiolevels</effecttype>
									<mediatype>audio</mediatype>
									<parameter authoringApp="PremierePro">
										<parameterid>level</parameterid>
										<name>Level</name>
										<valuemin>0</valuemin>
										<valuemax>3.98109</valuemax>
										<value>0.941688</value>
									</parameter>
								</effect>
							</filter>
							<filter>
								<effect>
									<name>Audio Pan</name>
									<effectid>audiopan</effectid>
									<effectcategory>audiopan</effectcategory>
									<effecttype>audiopan</effecttype>
									<mediatype>audio</mediatype>
									<parameter authoringApp="PremierePro">
										<parameterid>pan</parameterid>
										<name>Pan</name>
										<valuemin>-1</valuemin>
										<valuemax>1</valuemax>
										<value>0</value>
									</parameter>
								</effect>
							</filter>
					</clipitem>
					<clipitem id="clipitem-574" frameBlend="FALSE" PannerCurrentValue="0.5" PannerKeyframes="" PannerStartKeyframe="-91445760000000000,0.5,0,0,0,0,0,0" PannerIsInverted="true" PannerName="Pan">
						<masterclipid>masterclip-193</masterclipid>
						<name>Speak_11.wav</name>
						<enabled>TRUE</enabled>
						<duration>1540</duration>
						<rate>
							<timebase>30</timebase>
							<ntsc>TRUE</ntsc>
						</rate>
						<start>16127</start>
						<end>16158</end>
						<in>82</in>
						<out>113</out>
						<file id="file-192">
							<name>Speak_11.wav</name>
							<pathurl>file://localhost/Users/n14288/Documents/Adobe/Premiere%20Pro/7.0/Speak_11.wav</pathurl>
							<rate>
								<timebase>30</timebase>
								<ntsc>TRUE</ntsc>
							</rate>
							<duration>1847</duration>
							<timecode>
								<rate>
									<timebase>30</timebase>
									<ntsc>TRUE</ntsc>
								</rate>
								<string>00;00;00;00</string>
								<frame>0</frame>
								<displayformat>DF</displayformat>
							</timecode>
							<media>
								<audio>
									<samplecharacteristics>
										<depth>16</depth>
										<samplerate>48000</samplerate>
									</samplecharacteristics>
									<channelcount>1</channelcount>
									<layout>mono</layout>
									<audiochannel>
										<sourcechannel>1</sourcechannel>
										<channellabel>discrete</channellabel>
									</audiochannel>
								</audio>
							</media>
						</file>
						<sourcetrack>
							<mediatype>audio</mediatype>
							<trackindex>1</trackindex>
						</sourcetrack>
							<filter>
								<effect>
									<name>Gain</name>
									<effectid>{61756678, 4761696e, 4b657947}</effectid>
									<effecttype>filter</effecttype>
									<mediatype>audio</mediatype>
									<parameter authoringApp="PremierePro">
										<parameterid>Gain(dB)</parameterid>
										<name>Gain(dB)</name>
										<valuemin>-96</valuemin>
										<valuemax>96</valuemax>
										<value>3</value>
									</parameter>
								</effect>
							</filter>
							<filter>
								<effect>
									<name>Audio Pan</name>
									<effectid>audiopan</effectid>
									<effectcategory>audiopan</effectcategory>
									<effecttype>audiopan</effecttype>
									<mediatype>audio</mediatype>
									<parameter authoringApp="PremierePro">
										<parameterid>pan</parameterid>
										<name>Pan</name>
										<valuemin>-1</valuemin>
										<valuemax>1</valuemax>
										<value>0</value>
									</parameter>
								</effect>
							</filter>
					</clipitem>
					<clipitem id="clipitem-575" frameBlend="FALSE" PannerCurrentValue="0.5" PannerKeyframes="" PannerStartKeyframe="-91445760000000000,0.5,0,0,0,0,0,0" PannerIsInverted="true" PannerName="Pan">
						<masterclipid>masterclip-193</masterclipid>
						<name>Speak_11.wav</name>
						<enabled>TRUE</enabled>
						<duration>1540</duration>
						<rate>
							<ntsc>TRUE</ntsc>
							<timebase>30</timebase>
						</rate>
						<start>16158</start>
						<end>16266</end>
						<in>1050</in>
						<out>1158</out>
						<file id="file-192"/>
						<sourcetrack>
							<mediatype>audio</mediatype>
							<trackindex>1</trackindex>
						</sourcetrack>
							<filter>
								<effect>
									<name>Gain</name>
									<effectid>{61756678, 4761696e, 4b657947}</effectid>
									<effecttype>filter</effecttype>
									<mediatype>audio</mediatype>
									<parameter authoringApp="PremierePro">
										<parameterid>Gain(dB)</parameterid>
										<name>Gain(dB)</name>
										<valuemin>-96</valuemin>
										<valuemax>96</valuemax>
										<value>3</value>
									</parameter>
								</effect>
							</filter>
							<filter>
								<effect>
									<name>Audio Pan</name>
									<effectid>audiopan</effectid>
									<effectcategory>audiopan</effectcategory>
									<effecttype>audiopan</effecttype>
									<mediatype>audio</mediatype>
									<parameter authoringApp="PremierePro">
										<parameterid>pan</parameterid>
										<name>Pan</name>
										<valuemin>-1</valuemin>
										<valuemax>1</valuemax>
										<value>0</value>
									</parameter>
								</effect>
							</filter>
					</clipitem>
					<clipitem id="clipitem-576" frameBlend="FALSE" PannerCurrentValue="0.5" PannerKeyframes="" PannerStartKeyframe="-91445760000000000,0.5,0,0,0,0,0,0" PannerIsInverted="true" PannerName="Pan">
						<masterclipid>masterclip-193</masterclipid>
						<name>Speak_11.wav</name>
						<enabled>TRUE</enabled>
						<duration>1540</duration>
						<rate>
							<ntsc>TRUE</ntsc>
							<timebase>30</timebase>
						</rate>
						<start>16272</start>
						<end>16579</end>
						<in>1196</in>
						<out>1503</out>
						<file id="file-192"/>
						<sourcetrack>
							<mediatype>audio</mediatype>
							<trackindex>1</trackindex>
						</sourcetrack>
							<filter>
								<effect>
									<name>Gain</name>
									<effectid>{61756678, 4761696e, 4b657947}</effectid>
									<effecttype>filter</effecttype>
									<mediatype>audio</mediatype>
									<parameter authoringApp="PremierePro">
										<parameterid>Gain(dB)</parameterid>
										<name>Gain(dB)</name>
										<valuemin>-96</valuemin>
										<valuemax>96</valuemax>
										<value>3</value>
									</parameter>
								</effect>
							</filter>
							<filter>
								<effect>
									<name>Audio Pan</name>
									<effectid>audiopan</effectid>
									<effectcategory>audiopan</effectcategory>
									<effecttype>audiopan</effecttype>
									<mediatype>audio</mediatype>
									<parameter authoringApp="PremierePro">
										<parameterid>pan</parameterid>
										<name>Pan</name>
										<valuemin>-1</valuemin>
										<valuemax>1</valuemax>
										<value>0</value>
									</parameter>
								</effect>
							</filter>
					</clipitem>
					<clipitem id="clipitem-577" frameBlend="FALSE" PannerCurrentValue="0.5" PannerKeyframes="" PannerStartKeyframe="-91445760000000000,0.5,0,0,0,0,0,0" PannerIsInverted="true" PannerName="Pan">
						<masterclipid>masterclip-194</masterclipid>
						<name>Speak_13.wav</name>
						<enabled>TRUE</enabled>
						<duration>432</duration>
						<rate>
							<timebase>30</timebase>
							<ntsc>TRUE</ntsc>
						</rate>
						<start>16625</start>
						<end>16811</end>
						<in>246</in>
						<out>432</out>
						<file id="file-193">
							<name>Speak_13.wav</name>
							<pathurl>file://localhost/Users/n14288/Documents/Adobe/Premiere%20Pro/7.0/Speak_13.wav</pathurl>
							<rate>
								<timebase>30</timebase>
								<ntsc>TRUE</ntsc>
							</rate>
							<duration>518</duration>
							<timecode>
								<rate>
									<timebase>30</timebase>
									<ntsc>TRUE</ntsc>
								</rate>
								<string>00;00;00;00</string>
								<frame>0</frame>
								<displayformat>DF</displayformat>
							</timecode>
							<media>
								<audio>
									<samplecharacteristics>
										<depth>16</depth>
										<samplerate>48000</samplerate>
									</samplecharacteristics>
									<channelcount>1</channelcount>
									<layout>mono</layout>
									<audiochannel>
										<sourcechannel>1</sourcechannel>
										<channellabel>discrete</channellabel>
									</audiochannel>
								</audio>
							</media>
						</file>
						<sourcetrack>
							<mediatype>audio</mediatype>
							<trackindex>1</trackindex>
						</sourcetrack>
							<filter>
								<effect>
									<name>Gain</name>
									<effectid>{61756678, 4761696e, 4b657947}</effectid>
									<effecttype>filter</effecttype>
									<mediatype>audio</mediatype>
									<parameter authoringApp="PremierePro">
										<parameterid>Gain(dB)</parameterid>
										<name>Gain(dB)</name>
										<valuemin>-96</valuemin>
										<valuemax>96</valuemax>
										<value>3</value>
									</parameter>
								</effect>
							</filter>
							<filter>
								<effect>
									<name>Audio Pan</name>
									<effectid>audiopan</effectid>
									<effectcategory>audiopan</effectcategory>
									<effecttype>audiopan</effecttype>
									<mediatype>audio</mediatype>
									<parameter authoringApp="PremierePro">
										<parameterid>pan</parameterid>
										<name>Pan</name>
										<valuemin>-1</valuemin>
										<valuemax>1</valuemax>
										<value>0</value>
									</parameter>
								</effect>
							</filter>
					</clipitem>
					<clipitem id="clipitem-578" frameBlend="FALSE" PannerCurrentValue="0.5" PannerKeyframes="" PannerStartKeyframe="-91445760000000000,0.5,0,0,0,0,0,0" PannerIsInverted="true" PannerName="Pan">
						<masterclipid>masterclip-195</masterclipid>
						<name>Speak_12.wav</name>
						<enabled>TRUE</enabled>
						<duration>904</duration>
						<rate>
							<timebase>30</timebase>
							<ntsc>TRUE</ntsc>
						</rate>
						<start>19235</start>
						<end>19483</end>
						<in>91</in>
						<out>339</out>
						<file id="file-194">
							<name>Speak_12.wav</name>
							<pathurl>file://localhost/Users/n14288/Documents/Adobe/Premiere%20Pro/7.0/Speak_12.wav</pathurl>
							<rate>
								<timebase>30</timebase>
								<ntsc>TRUE</ntsc>
							</rate>
							<duration>1084</duration>
							<timecode>
								<rate>
									<timebase>30</timebase>
									<ntsc>TRUE</ntsc>
								</rate>
								<string>00;00;00;00</string>
								<frame>0</frame>
								<displayformat>DF</displayformat>
							</timecode>
							<media>
								<audio>
									<samplecharacteristics>
										<depth>16</depth>
										<samplerate>48000</samplerate>
									</samplecharacteristics>
									<channelcount>1</channelcount>
									<layout>mono</layout>
									<audiochannel>
										<sourcechannel>1</sourcechannel>
										<channellabel>discrete</channellabel>
									</audiochannel>
								</audio>
							</media>
						</file>
						<sourcetrack>
							<mediatype>audio</mediatype>
							<trackindex>1</trackindex>
						</sourcetrack>
							<filter>
								<effect>
									<name>Audio Levels</name>
									<effectid>audiolevels</effectid>
									<effectcategory>audiolevels</effectcategory>
									<effecttype>audiolevels</effecttype>
									<mediatype>audio</mediatype>
									<parameter authoringApp="PremierePro">
										<parameterid>level</parameterid>
										<name>Level</name>
										<valuemin>0</valuemin>
										<valuemax>3.98109</valuemax>
										<value>0.99763</value>
										<keyframe>
											<when>213</when>
											<value>0.99763</value>
										</keyframe>
										<keyframe>
											<when>231</when>
											<value>1.25869</value>
										</keyframe>
									</parameter>
								</effect>
							</filter>
							<filter>
								<effect>
									<name>Audio Pan</name>
									<effectid>audiopan</effectid>
									<effectcategory>audiopan</effectcategory>
									<effecttype>audiopan</effecttype>
									<mediatype>audio</mediatype>
									<parameter authoringApp="PremierePro">
										<parameterid>pan</parameterid>
										<name>Pan</name>
										<valuemin>-1</valuemin>
										<valuemax>1</valuemax>
										<value>0</value>
									</parameter>
								</effect>
							</filter>
					</clipitem>
					<clipitem id="clipitem-579" frameBlend="FALSE" PannerCurrentValue="0.5" PannerKeyframes="" PannerStartKeyframe="-91445760000000000,0.5,0,0,0,0,0,0" PannerIsInverted="true" PannerName="Pan">
						<masterclipid>masterclip-195</masterclipid>
						<name>Speak_12.wav</name>
						<enabled>TRUE</enabled>
						<duration>904</duration>
						<rate>
							<ntsc>TRUE</ntsc>
							<timebase>30</timebase>
						</rate>
						<start>19493</start>
						<end>19684</end>
						<in>339</in>
						<out>530</out>
						<file id="file-194"/>
						<sourcetrack>
							<mediatype>audio</mediatype>
							<trackindex>1</trackindex>
						</sourcetrack>
							<filter>
								<effect>
									<name>Audio Levels</name>
									<effectid>audiolevels</effectid>
									<effectcategory>audiolevels</effectcategory>
									<effecttype>audiolevels</effecttype>
									<mediatype>audio</mediatype>
									<parameter authoringApp="PremierePro">
										<parameterid>level</parameterid>
										<name>Level</name>
										<valuemin>0</valuemin>
										<valuemax>3.98109</valuemax>
										<value>1.27734</value>
									</parameter>
								</effect>
							</filter>
							<filter>
								<effect>
									<name>Audio Pan</name>
									<effectid>audiopan</effectid>
									<effectcategory>audiopan</effectcategory>
									<effecttype>audiopan</effecttype>
									<mediatype>audio</mediatype>
									<parameter authoringApp="PremierePro">
										<parameterid>pan</parameterid>
										<name>Pan</name>
										<valuemin>-1</valuemin>
										<valuemax>1</valuemax>
										<value>0</value>
									</parameter>
								</effect>
							</filter>
					</clipitem>
					<clipitem id="clipitem-580" frameBlend="FALSE" PannerCurrentValue="0.5" PannerKeyframes="" PannerStartKeyframe="-91445760000000000,0.5,0,0,0,0,0,0" PannerIsInverted="true" PannerName="Pan">
						<masterclipid>masterclip-195</masterclipid>
						<name>Speak_12.wav</name>
						<enabled>TRUE</enabled>
						<duration>904</duration>
						<rate>
							<ntsc>TRUE</ntsc>
							<timebase>30</timebase>
						</rate>
						<start>19914</start>
						<end>20256</end>
						<in>562</in>
						<out>904</out>
						<file id="file-194"/>
						<sourcetrack>
							<mediatype>audio</mediatype>
							<trackindex>1</trackindex>
						</sourcetrack>
							<filter>
								<effect>
									<name>Gain</name>
									<effectid>{61756678, 4761696e, 4b657947}</effectid>
									<effecttype>filter</effecttype>
									<mediatype>audio</mediatype>
									<parameter authoringApp="PremierePro">
										<parameterid>Gain(dB)</parameterid>
										<name>Gain(dB)</name>
										<valuemin>-96</valuemin>
										<valuemax>96</valuemax>
										<value>2</value>
									</parameter>
								</effect>
							</filter>
							<filter>
								<effect>
									<name>Audio Pan</name>
									<effectid>audiopan</effectid>
									<effectcategory>audiopan</effectcategory>
									<effecttype>audiopan</effecttype>
									<mediatype>audio</mediatype>
									<parameter authoringApp="PremierePro">
										<parameterid>pan</parameterid>
										<name>Pan</name>
										<valuemin>-1</valuemin>
										<valuemax>1</valuemax>
										<value>0</value>
									</parameter>
								</effect>
							</filter>
					</clipitem>
					<clipitem id="clipitem-581" frameBlend="FALSE" PannerCurrentValue="0.5" PannerKeyframes="" PannerStartKeyframe="-91445760000000000,0.5,0,0,0,0,0,0" PannerIsInverted="true" PannerName="Pan">
						<masterclipid>masterclip-196</masterclipid>
						<name>Speak_19.wav</name>
						<enabled>TRUE</enabled>
						<duration>462</duration>
						<rate>
							<timebase>30</timebase>
							<ntsc>TRUE</ntsc>
						</rate>
						<start>23866</start>
						<end>-1</end>
						<in>78</in>
						<out>367</out>
						<file id="file-195">
							<name>Speak_19.wav</name>
							<pathurl>file://localhost/Users/n14288/Documents/Adobe/Premiere%20Pro/7.0/Speak_19.wav</pathurl>
							<rate>
								<timebase>30</timebase>
								<ntsc>TRUE</ntsc>
							</rate>
							<duration>554</duration>
							<timecode>
								<rate>
									<timebase>30</timebase>
									<ntsc>TRUE</ntsc>
								</rate>
								<string>00;00;00;00</string>
								<frame>0</frame>
								<displayformat>DF</displayformat>
							</timecode>
							<media>
								<audio>
									<samplecharacteristics>
										<depth>16</depth>
										<samplerate>48000</samplerate>
									</samplecharacteristics>
									<channelcount>1</channelcount>
									<layout>mono</layout>
									<audiochannel>
										<sourcechannel>1</sourcechannel>
										<channellabel>discrete</channellabel>
									</audiochannel>
								</audio>
							</media>
						</file>
						<sourcetrack>
							<mediatype>audio</mediatype>
							<trackindex>1</trackindex>
						</sourcetrack>
							<filter>
								<effect>
									<name>Gain</name>
									<effectid>{61756678, 4761696e, 4b657947}</effectid>
									<effecttype>filter</effecttype>
									<mediatype>audio</mediatype>
									<parameter authoringApp="PremierePro">
										<parameterid>Gain(dB)</parameterid>
										<name>Gain(dB)</name>
										<valuemin>-96</valuemin>
										<valuemax>96</valuemax>
										<value>4</value>
									</parameter>
								</effect>
							</filter>
							<filter>
								<effect>
									<name>Audio Levels</name>
									<effectid>audiolevels</effectid>
									<effectcategory>audiolevels</effectcategory>
									<effecttype>audiolevels</effecttype>
									<mediatype>audio</mediatype>
									<parameter authoringApp="PremierePro">
										<parameterid>level</parameterid>
										<name>Level</name>
										<valuemin>0</valuemin>
										<valuemax>3.98109</valuemax>
										<value>1.2214</value>
										<keyframe>
											<when>258</when>
											<value>1.2214</value>
										</keyframe>
										<keyframe>
											<when>277</when>
											<value>1.1841</value>
										</keyframe>
										<keyframe>
											<when>305</when>
											<value>1.50111</value>
										</keyframe>
									</parameter>
								</effect>
							</filter>
							<filter>
								<effect>
									<name>Audio Pan</name>
									<effectid>audiopan</effectid>
									<effectcategory>audiopan</effectcategory>
									<effecttype>audiopan</effecttype>
									<mediatype>audio</mediatype>
									<parameter authoringApp="PremierePro">
										<parameterid>pan</parameterid>
										<name>Pan</name>
										<valuemin>-1</valuemin>
										<valuemax>1</valuemax>
										<value>0</value>
									</parameter>
								</effect>
							</filter>
					</clipitem>
					<transitionitem>
						<start>24152</start>
						<end>24155</end>
						<alignment>center</alignment>
						<cutPoint>1</cutPoint>
						<rate>
							<timebase>25</timebase>
							<ntsc>FALSE</ntsc>
						</rate>
						<effect>
							<name>Cross Fade (+3dB)</name>
							<effectid>KGAudioTransCrossFade3dB</effectid>
							<effecttype>transition</effecttype>
							<mediatype>audio</mediatype>
							<wipecode>0</wipecode>
							<wipeaccuracy>100</wipeaccuracy>
							<startratio>0</startratio>
							<endratio>1</endratio>
							<reverse>FALSE</reverse>
						</effect>
					</transitionitem>
					<clipitem id="clipitem-582" frameBlend="FALSE" PannerCurrentValue="0.5" PannerKeyframes="" PannerStartKeyframe="-91445760000000000,0.5,0,0,0,0,0,0" PannerIsInverted="true" PannerName="Pan">
						<masterclipid>masterclip-196</masterclipid>
						<name>Speak_19.wav</name>
						<enabled>TRUE</enabled>
						<duration>462</duration>
						<rate>
							<ntsc>TRUE</ntsc>
							<timebase>30</timebase>
						</rate>
						<start>-1</start>
						<end>24244</end>
						<in>370</in>
						<out>462</out>
						<file id="file-195"/>
						<sourcetrack>
							<mediatype>audio</mediatype>
							<trackindex>1</trackindex>
						</sourcetrack>
							<filter>
								<effect>
									<name>Gain</name>
									<effectid>{61756678, 4761696e, 4b657947}</effectid>
									<effecttype>filter</effecttype>
									<mediatype>audio</mediatype>
									<parameter authoringApp="PremierePro">
										<parameterid>Gain(dB)</parameterid>
										<name>Gain(dB)</name>
										<valuemin>-96</valuemin>
										<valuemax>96</valuemax>
										<value>6</value>
									</parameter>
								</effect>
							</filter>
							<filter>
								<effect>
									<name>Audio Levels</name>
									<effectid>audiolevels</effectid>
									<effectcategory>audiolevels</effectcategory>
									<effecttype>audiolevels</effecttype>
									<mediatype>audio</mediatype>
									<parameter authoringApp="PremierePro">
										<parameterid>level</parameterid>
										<name>Level</name>
										<valuemin>0</valuemin>
										<valuemax>3.98109</valuemax>
										<value>0.885746</value>
									</parameter>
								</effect>
							</filter>
							<filter>
								<effect>
									<name>Audio Pan</name>
									<effectid>audiopan</effectid>
									<effectcategory>audiopan</effectcategory>
									<effecttype>audiopan</effecttype>
									<mediatype>audio</mediatype>
									<parameter authoringApp="PremierePro">
										<parameterid>pan</parameterid>
										<name>Pan</name>
										<valuemin>-1</valuemin>
										<valuemax>1</valuemax>
										<value>0</value>
									</parameter>
								</effect>
							</filter>
					</clipitem>
					<clipitem id="clipitem-583" frameBlend="FALSE" PannerCurrentValue="0.5" PannerKeyframes="" PannerStartKeyframe="-91445760000000000,0.5,0,0,0,0,0,0" PannerIsInverted="true" PannerName="Pan">
						<masterclipid>masterclip-197</masterclipid>
						<name>Speak_17.wav</name>
						<enabled>TRUE</enabled>
						<duration>1824</duration>
						<rate>
							<timebase>30</timebase>
							<ntsc>TRUE</ntsc>
						</rate>
						<start>24753</start>
						<end>25223</end>
						<in>1251</in>
						<out>1721</out>
						<file id="file-196">
							<name>Speak_17.wav</name>
							<pathurl>file://localhost/Users/n14288/Documents/Adobe/Premiere%20Pro/7.0/Speak_17.wav</pathurl>
							<rate>
								<timebase>30</timebase>
								<ntsc>TRUE</ntsc>
							</rate>
							<duration>2186</duration>
							<timecode>
								<rate>
									<timebase>30</timebase>
									<ntsc>TRUE</ntsc>
								</rate>
								<string>00;00;00;00</string>
								<frame>0</frame>
								<displayformat>DF</displayformat>
							</timecode>
							<media>
								<audio>
									<samplecharacteristics>
										<depth>16</depth>
										<samplerate>48000</samplerate>
									</samplecharacteristics>
									<channelcount>1</channelcount>
									<layout>mono</layout>
									<audiochannel>
										<sourcechannel>1</sourcechannel>
										<channellabel>discrete</channellabel>
									</audiochannel>
								</audio>
							</media>
						</file>
						<sourcetrack>
							<mediatype>audio</mediatype>
							<trackindex>1</trackindex>
						</sourcetrack>
							<filter>
								<effect>
									<name>Gain</name>
									<effectid>{61756678, 4761696e, 4b657947}</effectid>
									<effecttype>filter</effecttype>
									<mediatype>audio</mediatype>
									<parameter authoringApp="PremierePro">
										<parameterid>Gain(dB)</parameterid>
										<name>Gain(dB)</name>
										<valuemin>-96</valuemin>
										<valuemax>96</valuemax>
										<value>6</value>
									</parameter>
								</effect>
							</filter>
							<filter>
								<effect>
									<name>Audio Pan</name>
									<effectid>audiopan</effectid>
									<effectcategory>audiopan</effectcategory>
									<effecttype>audiopan</effecttype>
									<mediatype>audio</mediatype>
									<parameter authoringApp="PremierePro">
										<parameterid>pan</parameterid>
										<name>Pan</name>
										<valuemin>-1</valuemin>
										<valuemax>1</valuemax>
										<value>0</value>
									</parameter>
								</effect>
							</filter>
					</clipitem>
					<clipitem id="clipitem-584" frameBlend="FALSE" PannerCurrentValue="0.5" PannerKeyframes="" PannerStartKeyframe="-91445760000000000,0.5,0,0,0,0,0,0" PannerIsInverted="true" PannerName="Pan">
						<masterclipid>masterclip-198</masterclipid>
						<name>Audio 5_5.wav</name>
						<enabled>TRUE</enabled>
						<duration>1732</duration>
						<rate>
							<timebase>30</timebase>
							<ntsc>TRUE</ntsc>
						</rate>
						<start>34784</start>
						<end>34977</end>
						<in>897</in>
						<out>1090</out>
						<file id="file-197">
							<name>Audio 5_5.wav</name>
							<pathurl>file://localhost/Volumes/Scenen/Prosjekter/FILM/FILM%20XX13%20Kjartan%20Opptak%20Russland%20Oktober%202013/Prosjektfiler/Adobe%20Premiere%20CC/Audio%205_5.wav</pathurl>
							<rate>
								<timebase>30</timebase>
								<ntsc>TRUE</ntsc>
							</rate>
							<duration>2076</duration>
							<timecode>
								<rate>
									<timebase>30</timebase>
									<ntsc>TRUE</ntsc>
								</rate>
								<string>00;00;00;00</string>
								<frame>0</frame>
								<displayformat>DF</displayformat>
							</timecode>
							<media>
								<audio>
									<samplecharacteristics>
										<depth>16</depth>
										<samplerate>48000</samplerate>
									</samplecharacteristics>
									<channelcount>1</channelcount>
									<layout>mono</layout>
									<audiochannel>
										<sourcechannel>1</sourcechannel>
										<channellabel>discrete</channellabel>
									</audiochannel>
								</audio>
							</media>
						</file>
						<sourcetrack>
							<mediatype>audio</mediatype>
							<trackindex>1</trackindex>
						</sourcetrack>
							<filter>
								<effect>
									<name>Gain</name>
									<effectid>{61756678, 4761696e, 4b657947}</effectid>
									<effecttype>filter</effecttype>
									<mediatype>audio</mediatype>
									<parameter authoringApp="PremierePro">
										<parameterid>Gain(dB)</parameterid>
										<name>Gain(dB)</name>
										<valuemin>-96</valuemin>
										<valuemax>96</valuemax>
										<value>5</value>
									</parameter>
								</effect>
							</filter>
							<filter>
								<effect>
									<name>Audio Pan</name>
									<effectid>audiopan</effectid>
									<effectcategory>audiopan</effectcategory>
									<effecttype>audiopan</effecttype>
									<mediatype>audio</mediatype>
									<parameter authoringApp="PremierePro">
										<parameterid>pan</parameterid>
										<name>Pan</name>
										<valuemin>-1</valuemin>
										<valuemax>1</valuemax>
										<value>0</value>
									</parameter>
								</effect>
							</filter>
					</clipitem>
					<clipitem id="clipitem-585" frameBlend="FALSE" PannerCurrentValue="0.5" PannerKeyframes="" PannerStartKeyframe="-91445760000000000,0.5,0,0,0,0,0,0" PannerIsInverted="true" PannerName="Pan">
						<masterclipid>masterclip-198</masterclipid>
						<name>Audio 5_5.wav</name>
						<enabled>TRUE</enabled>
						<duration>1732</duration>
						<rate>
							<ntsc>TRUE</ntsc>
							<timebase>30</timebase>
						</rate>
						<start>34995</start>
						<end>35220</end>
						<in>1108</in>
						<out>1333</out>
						<file id="file-197"/>
						<sourcetrack>
							<mediatype>audio</mediatype>
							<trackindex>1</trackindex>
						</sourcetrack>
							<filter>
								<effect>
									<name>Gain</name>
									<effectid>{61756678, 4761696e, 4b657947}</effectid>
									<effecttype>filter</effecttype>
									<mediatype>audio</mediatype>
									<parameter authoringApp="PremierePro">
										<parameterid>Gain(dB)</parameterid>
										<name>Gain(dB)</name>
										<valuemin>-96</valuemin>
										<valuemax>96</valuemax>
										<value>5</value>
									</parameter>
								</effect>
							</filter>
							<filter>
								<effect>
									<name>Audio Pan</name>
									<effectid>audiopan</effectid>
									<effectcategory>audiopan</effectcategory>
									<effecttype>audiopan</effecttype>
									<mediatype>audio</mediatype>
									<parameter authoringApp="PremierePro">
										<parameterid>pan</parameterid>
										<name>Pan</name>
										<valuemin>-1</valuemin>
										<valuemax>1</valuemax>
										<value>0</value>
									</parameter>
								</effect>
							</filter>
					</clipitem>
					<clipitem id="clipitem-586" frameBlend="FALSE" PannerCurrentValue="0.5" PannerKeyframes="" PannerStartKeyframe="-91445760000000000,0.5,0,0,0,0,0,0" PannerIsInverted="true" PannerName="Pan">
						<masterclipid>masterclip-199</masterclipid>
						<name>Audio 5_9.wav</name>
						<enabled>TRUE</enabled>
						<duration>2166</duration>
						<rate>
							<timebase>30</timebase>
							<ntsc>TRUE</ntsc>
						</rate>
						<start>35794</start>
						<end>36072</end>
						<in>971</in>
						<out>1249</out>
						<file id="file-198">
							<name>Audio 5_9.wav</name>
							<pathurl>file://localhost/Volumes/Scenen/Prosjekter/FILM/FILM%20XX13%20Kjartan%20Opptak%20Russland%20Oktober%202013/Prosjektfiler/Adobe%20Premiere%20CC/Audio%205_9.wav</pathurl>
							<rate>
								<timebase>30</timebase>
								<ntsc>TRUE</ntsc>
							</rate>
							<duration>2596</duration>
							<timecode>
								<rate>
									<timebase>30</timebase>
									<ntsc>TRUE</ntsc>
								</rate>
								<string>00;00;00;00</string>
								<frame>0</frame>
								<displayformat>DF</displayformat>
							</timecode>
							<media>
								<audio>
									<samplecharacteristics>
										<depth>16</depth>
										<samplerate>48000</samplerate>
									</samplecharacteristics>
									<channelcount>1</channelcount>
									<layout>mono</layout>
									<audiochannel>
										<sourcechannel>1</sourcechannel>
										<channellabel>discrete</channellabel>
									</audiochannel>
								</audio>
							</media>
						</file>
						<sourcetrack>
							<mediatype>audio</mediatype>
							<trackindex>1</trackindex>
						</sourcetrack>
							<filter>
								<effect>
									<name>Gain</name>
									<effectid>{61756678, 4761696e, 4b657947}</effectid>
									<effecttype>filter</effecttype>
									<mediatype>audio</mediatype>
									<parameter authoringApp="PremierePro">
										<parameterid>Gain(dB)</parameterid>
										<name>Gain(dB)</name>
										<valuemin>-96</valuemin>
										<valuemax>96</valuemax>
										<value>6</value>
									</parameter>
								</effect>
							</filter>
							<filter>
								<effect>
									<name>Audio Levels</name>
									<effectid>audiolevels</effectid>
									<effectcategory>audiolevels</effectcategory>
									<effecttype>audiolevels</effecttype>
									<mediatype>audio</mediatype>
									<parameter authoringApp="PremierePro">
										<parameterid>level</parameterid>
										<name>Level</name>
										<valuemin>0</valuemin>
										<valuemax>3.98109</valuemax>
										<value>0.746729</value>
										<keyframe>
											<when>990</when>
											<value>0.746729</value>
										</keyframe>
										<keyframe>
											<when>1016</when>
											<value>0.99763</value>
										</keyframe>
									</parameter>
								</effect>
							</filter>
							<filter>
								<effect>
									<name>Audio Pan</name>
									<effectid>audiopan</effectid>
									<effectcategory>audiopan</effectcategory>
									<effecttype>audiopan</effecttype>
									<mediatype>audio</mediatype>
									<parameter authoringApp="PremierePro">
										<parameterid>pan</parameterid>
										<name>Pan</name>
										<valuemin>-1</valuemin>
										<valuemax>1</valuemax>
										<value>0</value>
									</parameter>
								</effect>
							</filter>
					</clipitem>
					<clipitem id="clipitem-587" frameBlend="FALSE" PannerCurrentValue="0.5" PannerKeyframes="" PannerStartKeyframe="-91445760000000000,0.5,0,0,0,0,0,0" PannerIsInverted="true" PannerName="Pan">
						<masterclipid>masterclip-199</masterclipid>
						<name>Audio 5_9.wav</name>
						<enabled>TRUE</enabled>
						<duration>2166</duration>
						<rate>
							<ntsc>TRUE</ntsc>
							<timebase>30</timebase>
						</rate>
						<start>36072</start>
						<end>36429</end>
						<in>1318</in>
						<out>1675</out>
						<file id="file-198"/>
						<sourcetrack>
							<mediatype>audio</mediatype>
							<trackindex>1</trackindex>
						</sourcetrack>
							<filter>
								<effect>
									<name>Gain</name>
									<effectid>{61756678, 4761696e, 4b657947}</effectid>
									<effecttype>filter</effecttype>
									<mediatype>audio</mediatype>
									<parameter authoringApp="PremierePro">
										<parameterid>Gain(dB)</parameterid>
										<name>Gain(dB)</name>
										<valuemin>-96</valuemin>
										<valuemax>96</valuemax>
										<value>6</value>
									</parameter>
								</effect>
							</filter>
							<filter>
								<effect>
									<name>Audio Levels</name>
									<effectid>audiolevels</effectid>
									<effectcategory>audiolevels</effectcategory>
									<effecttype>audiolevels</effecttype>
									<mediatype>audio</mediatype>
									<parameter authoringApp="PremierePro">
										<parameterid>level</parameterid>
										<name>Level</name>
										<valuemin>0</valuemin>
										<valuemax>3.98109</valuemax>
										<value>0.99763</value>
										<keyframe>
											<when>1562</when>
											<value>0.99763</value>
										</keyframe>
										<keyframe>
											<when>1566</when>
											<value>0.902049</value>
										</keyframe>
										<keyframe>
											<when>1594</when>
											<value>0.902049</value>
										</keyframe>
										<keyframe>
											<when>1600</when>
											<value>0.99763</value>
										</keyframe>
										<keyframe>
											<when>1746</when>
											<value>0.99763</value>
										</keyframe>
										<keyframe>
											<when>1753</when>
											<value>1.39273</value>
										</keyframe>
									</parameter>
								</effect>
							</filter>
							<filter>
								<effect>
									<name>Audio Pan</name>
									<effectid>audiopan</effectid>
									<effectcategory>audiopan</effectcategory>
									<effecttype>audiopan</effecttype>
									<mediatype>audio</mediatype>
									<parameter authoringApp="PremierePro">
										<parameterid>pan</parameterid>
										<name>Pan</name>
										<valuemin>-1</valuemin>
										<valuemax>1</valuemax>
										<value>0</value>
									</parameter>
								</effect>
							</filter>
					</clipitem>
					<clipitem id="clipitem-588" frameBlend="FALSE" PannerCurrentValue="0.5" PannerKeyframes="" PannerStartKeyframe="-91445760000000000,0.5,0,0,0,0,0,0" PannerIsInverted="true" PannerName="Pan">
						<masterclipid>masterclip-198</masterclipid>
						<name>Audio 5_5.wav</name>
						<enabled>TRUE</enabled>
						<duration>1732</duration>
						<rate>
							<ntsc>TRUE</ntsc>
							<timebase>30</timebase>
						</rate>
						<start>36470</start>
						<end>36723</end>
						<in>1452</in>
						<out>1705</out>
						<file id="file-197"/>
						<sourcetrack>
							<mediatype>audio</mediatype>
							<trackindex>1</trackindex>
						</sourcetrack>
							<filter>
								<effect>
									<name>Gain</name>
									<effectid>{61756678, 4761696e, 4b657947}</effectid>
									<effecttype>filter</effecttype>
									<mediatype>audio</mediatype>
									<parameter authoringApp="PremierePro">
										<parameterid>Gain(dB)</parameterid>
										<name>Gain(dB)</name>
										<valuemin>-96</valuemin>
										<valuemax>96</valuemax>
										<value>6</value>
									</parameter>
								</effect>
							</filter>
							<filter>
								<effect>
									<name>Audio Levels</name>
									<effectid>audiolevels</effectid>
									<effectcategory>audiolevels</effectcategory>
									<effecttype>audiolevels</effecttype>
									<mediatype>audio</mediatype>
									<parameter authoringApp="PremierePro">
										<parameterid>level</parameterid>
										<name>Level</name>
										<valuemin>0</valuemin>
										<valuemax>3.98109</valuemax>
										<value>0.99763</value>
										<keyframe>
											<when>1686</when>
											<value>0.99763</value>
										</keyframe>
										<keyframe>
											<when>1688</when>
											<value>1.47175</value>
										</keyframe>
									</parameter>
								</effect>
							</filter>
							<filter>
								<effect>
									<name>Audio Pan</name>
									<effectid>audiopan</effectid>
									<effectcategory>audiopan</effectcategory>
									<effecttype>audiopan</effecttype>
									<mediatype>audio</mediatype>
									<parameter authoringApp="PremierePro">
										<parameterid>pan</parameterid>
										<name>Pan</name>
										<valuemin>-1</valuemin>
										<valuemax>1</valuemax>
										<value>0</value>
									</parameter>
								</effect>
							</filter>
					</clipitem>
					<clipitem id="clipitem-589" frameBlend="FALSE" PannerCurrentValue="0.5" PannerKeyframes="" PannerStartKeyframe="-91445760000000000,0.5,0,0,0,0,0,0" PannerIsInverted="true" PannerName="Pan">
						<masterclipid>masterclip-200</masterclipid>
						<name>Speak_18.wav</name>
						<enabled>TRUE</enabled>
						<duration>466</duration>
						<rate>
							<timebase>30</timebase>
							<ntsc>TRUE</ntsc>
						</rate>
						<start>36889</start>
						<end>37279</end>
						<in>76</in>
						<out>466</out>
						<file id="file-199">
							<name>Speak_18.wav</name>
							<pathurl>file://localhost/Users/n14288/Documents/Adobe/Premiere%20Pro/7.0/Speak_18.wav</pathurl>
							<rate>
								<timebase>30</timebase>
								<ntsc>TRUE</ntsc>
							</rate>
							<duration>558</duration>
							<timecode>
								<rate>
									<timebase>30</timebase>
									<ntsc>TRUE</ntsc>
								</rate>
								<string>00;00;00;00</string>
								<frame>0</frame>
								<displayformat>DF</displayformat>
							</timecode>
							<media>
								<audio>
									<samplecharacteristics>
										<depth>16</depth>
										<samplerate>48000</samplerate>
									</samplecharacteristics>
									<channelcount>1</channelcount>
									<layout>mono</layout>
									<audiochannel>
										<sourcechannel>1</sourcechannel>
										<channellabel>discrete</channellabel>
									</audiochannel>
								</audio>
							</media>
						</file>
						<sourcetrack>
							<mediatype>audio</mediatype>
							<trackindex>1</trackindex>
						</sourcetrack>
							<filter>
								<effect>
									<name>Gain</name>
									<effectid>{61756678, 4761696e, 4b657947}</effectid>
									<effecttype>filter</effecttype>
									<mediatype>audio</mediatype>
									<parameter authoringApp="PremierePro">
										<parameterid>Gain(dB)</parameterid>
										<name>Gain(dB)</name>
										<valuemin>-96</valuemin>
										<valuemax>96</valuemax>
										<value>-2</value>
									</parameter>
								</effect>
							</filter>
							<filter>
								<effect>
									<name>Audio Levels</name>
									<effectid>audiolevels</effectid>
									<effectcategory>audiolevels</effectcategory>
									<effecttype>audiolevels</effecttype>
									<mediatype>audio</mediatype>
									<parameter authoringApp="PremierePro">
										<parameterid>level</parameterid>
										<name>Level</name>
										<valuemin>0</valuemin>
										<valuemax>3.98109</valuemax>
										<value>0.99763</value>
										<keyframe>
											<when>232</when>
											<value>0.99763</value>
										</keyframe>
										<keyframe>
											<when>242</when>
											<value>1.09321</value>
										</keyframe>
										<keyframe>
											<when>318</when>
											<value>1.09321</value>
										</keyframe>
										<keyframe>
											<when>327</when>
											<value>0.99763</value>
										</keyframe>
									</parameter>
								</effect>
							</filter>
							<filter>
								<effect>
									<name>Audio Pan</name>
									<effectid>audiopan</effectid>
									<effectcategory>audiopan</effectcategory>
									<effecttype>audiopan</effecttype>
									<mediatype>audio</mediatype>
									<parameter authoringApp="PremierePro">
										<parameterid>pan</parameterid>
										<name>Pan</name>
										<valuemin>-1</valuemin>
										<valuemax>1</valuemax>
										<value>0</value>
									</parameter>
								</effect>
							</filter>
					</clipitem>
					<clipitem id="clipitem-590" frameBlend="FALSE" PannerCurrentValue="0.5" PannerKeyframes="" PannerStartKeyframe="-91445760000000000,0.5,0,0,0,0,0,0" PannerIsInverted="true" PannerName="Pan">
						<masterclipid>masterclip-201</masterclipid>
						<name>Audio 5_6.wav</name>
						<enabled>TRUE</enabled>
						<duration>1259</duration>
						<rate>
							<timebase>30</timebase>
							<ntsc>TRUE</ntsc>
						</rate>
						<start>38190</start>
						<end>38410</end>
						<in>1039</in>
						<out>1259</out>
						<file id="file-200">
							<name>Audio 5_6.wav</name>
							<pathurl>file://localhost/Volumes/Scenen/Prosjekter/FILM/FILM%20XX13%20Kjartan%20Opptak%20Russland%20Oktober%202013/Prosjektfiler/Adobe%20Premiere%20CC/Audio%205_6.wav</pathurl>
							<rate>
								<timebase>30</timebase>
								<ntsc>TRUE</ntsc>
							</rate>
							<duration>1509</duration>
							<timecode>
								<rate>
									<timebase>30</timebase>
									<ntsc>TRUE</ntsc>
								</rate>
								<string>00;00;00;00</string>
								<frame>0</frame>
								<displayformat>DF</displayformat>
							</timecode>
							<media>
								<audio>
									<samplecharacteristics>
										<depth>16</depth>
										<samplerate>48000</samplerate>
									</samplecharacteristics>
									<channelcount>1</channelcount>
									<layout>mono</layout>
									<audiochannel>
										<sourcechannel>1</sourcechannel>
										<channellabel>discrete</channellabel>
									</audiochannel>
								</audio>
							</media>
						</file>
						<sourcetrack>
							<mediatype>audio</mediatype>
							<trackindex>1</trackindex>
						</sourcetrack>
							<filter>
								<effect>
									<name>Gain</name>
									<effectid>{61756678, 4761696e, 4b657947}</effectid>
									<effecttype>filter</effecttype>
									<mediatype>audio</mediatype>
									<parameter authoringApp="PremierePro">
										<parameterid>Gain(dB)</parameterid>
										<name>Gain(dB)</name>
										<valuemin>-96</valuemin>
										<valuemax>96</valuemax>
										<value>3</value>
									</parameter>
								</effect>
							</filter>
							<filter>
								<effect>
									<name>Audio Pan</name>
									<effectid>audiopan</effectid>
									<effectcategory>audiopan</effectcategory>
									<effecttype>audiopan</effecttype>
									<mediatype>audio</mediatype>
									<parameter authoringApp="PremierePro">
										<parameterid>pan</parameterid>
										<name>Pan</name>
										<valuemin>-1</valuemin>
										<valuemax>1</valuemax>
										<value>0</value>
									</parameter>
								</effect>
							</filter>
					</clipitem>
					<clipitem id="clipitem-591" frameBlend="FALSE" PannerCurrentValue="0.5" PannerKeyframes="" PannerStartKeyframe="-91445760000000000,0.5,0,0,0,0,0,0" PannerIsInverted="true" PannerName="Pan">
						<masterclipid>masterclip-199</masterclipid>
						<name>Audio 5_9.wav</name>
						<enabled>TRUE</enabled>
						<duration>2166</duration>
						<rate>
							<ntsc>TRUE</ntsc>
							<timebase>30</timebase>
						</rate>
						<start>41065</start>
						<end>41326</end>
						<in>1848</in>
						<out>2109</out>
						<file id="file-198"/>
						<sourcetrack>
							<mediatype>audio</mediatype>
							<trackindex>1</trackindex>
						</sourcetrack>
							<filter>
								<effect>
									<name>Gain</name>
									<effectid>{61756678, 4761696e, 4b657947}</effectid>
									<effecttype>filter</effecttype>
									<mediatype>audio</mediatype>
									<parameter authoringApp="PremierePro">
										<parameterid>Gain(dB)</parameterid>
										<name>Gain(dB)</name>
										<valuemin>-96</valuemin>
										<valuemax>96</valuemax>
										<value>2</value>
									</parameter>
								</effect>
							</filter>
							<filter>
								<effect>
									<name>Audio Pan</name>
									<effectid>audiopan</effectid>
									<effectcategory>audiopan</effectcategory>
									<effecttype>audiopan</effecttype>
									<mediatype>audio</mediatype>
									<parameter authoringApp="PremierePro">
										<parameterid>pan</parameterid>
										<name>Pan</name>
										<valuemin>-1</valuemin>
										<valuemax>1</valuemax>
										<value>0</value>
									</parameter>
								</effect>
							</filter>
					</clipitem>
					<enabled>TRUE</enabled>
					<locked>FALSE</locked>
					<outputchannelindex>1</outputchannelindex>
				</track>
				<track TL.SQTrackAudioKeyframeStyle="0" TL.SQTrackShy="0" TL.SQTrackExpandedHeight="95" TL.SQTrackExpanded="1" MZ.TrackTargeted="1" MZ.TrackName="Musikk" PannerCurrentValue="0.5" PannerIsInverted="true" PannerKeyframes="22282198848000,0.5,0,0,0,0.16666666666666665741480812812,0,0.16666666666666665741480812812;26215721280000,0.5,0,0,0,0.16666666666666665741480812812,0,0.16666666666666665741480812812;82626239808000,0.5,0,0,0,0.16666666666666665741480812812,0,0.16666666666666665741480812812;90655770240000,0.5,0,0,0,0.16666666666666665741480812812,0,0.16666666666666665741480812812;" PannerStartKeyframe="-91445760000000000,0.5,0,0,0,0,0,0" PannerName="Balance" currentExplodedTrackIndex="0" totalExplodedTrackCount="2" premiereTrackType="Stereo">
					<clipitem id="clipitem-592" frameBlend="FALSE" PannerCurrentValue="0.5" PannerKeyframes="" PannerStartKeyframe="-91445760000000000,0.5,0,0,0,0,0,0" PannerIsInverted="true" PannerName="Balance">
						<masterclipid>masterclip-34</masterclipid>
						<name>Kulturstripa_master.mov</name>
						<enabled>TRUE</enabled>
						<duration>101</duration>
						<rate>
							<ntsc>TRUE</ntsc>
							<timebase>30</timebase>
						</rate>
						<start>0</start>
						<end>-1</end>
						<in>0</in>
						<out>91</out>
						<file id="file-34"/>
						<sourcetrack>
							<mediatype>audio</mediatype>
							<trackindex>1</trackindex>
						</sourcetrack>
							<filter>
								<effect>
									<name>Audio Pan</name>
									<effectid>audiopan</effectid>
									<effectcategory>audiopan</effectcategory>
									<effecttype>audiopan</effecttype>
									<mediatype>audio</mediatype>
									<parameter authoringApp="PremierePro">
										<parameterid>pan</parameterid>
										<name>Pan</name>
										<valuemin>-1</valuemin>
										<valuemax>1</valuemax>
										<value>0</value>
									</parameter>
								</effect>
							</filter>
						<link>
							<linkclipref>clipitem-152</linkclipref>
							<mediatype>video</mediatype>
							<trackindex>3</trackindex>
							<clipindex>1</clipindex>
						</link>
						<link>
							<linkclipref>clipitem-592</linkclipref>
							<mediatype>audio</mediatype>
							<trackindex>8</trackindex>
							<clipindex>1</clipindex>
							<groupindex>1</groupindex>
						</link>
						<link>
							<linkclipref>clipitem-613</linkclipref>
							<mediatype>audio</mediatype>
							<trackindex>9</trackindex>
							<clipindex>1</clipindex>
							<groupindex>1</groupindex>
						</link>
					</clipitem>
					<transitionitem>
						<start>67</start>
						<end>91</end>
						<alignment>center</alignment>
						<cutPoint>11</cutPoint>
						<rate>
							<timebase>25</timebase>
							<ntsc>FALSE</ntsc>
						</rate>
						<effect>
							<name>Cross Fade (+3dB)</name>
							<effectid>KGAudioTransCrossFade3dB</effectid>
							<effecttype>transition</effecttype>
							<mediatype>audio</mediatype>
							<wipecode>0</wipecode>
							<wipeaccuracy>100</wipeaccuracy>
							<startratio>0</startratio>
							<endratio>1</endratio>
							<reverse>FALSE</reverse>
						</effect>
					</transitionitem>
					<clipitem id="clipitem-593" frameBlend="FALSE" PannerCurrentValue="0.5" PannerKeyframes="" PannerStartKeyframe="-91445760000000000,0.5,0,0,0,0,0,0" PannerIsInverted="true" PannerName="Balance">
						<masterclipid>masterclip-202</masterclipid>
						<name>FB Generell Bakgrunn.aif</name>
						<enabled>TRUE</enabled>
						<duration>1148</duration>
						<rate>
							<timebase>30</timebase>
							<ntsc>TRUE</ntsc>
						</rate>
						<start>-1</start>
						<end>352</end>
						<in>0</in>
						<out>285</out>
						<file id="file-201">
							<name>FB Generell Bakgrunn.wav</name>
							<pathurl>file://localhost/Volumes/Scenen/Prosjekter/FILM/AA%20FILM%20Grafikk%20Premiere%20Pro%20haust%202013%20BW/Musikk/Ny%20Musikk%20fra%20Va%cc%8aren%202013/Med%20Sax/FB%20Generell%20Bakgrunn.wav</pathurl>
							<rate>
								<timebase>30</timebase>
								<ntsc>TRUE</ntsc>
							</rate>
							<duration>1376</duration>
							<timecode>
								<rate>
									<timebase>30</timebase>
									<ntsc>TRUE</ntsc>
								</rate>
								<string>00;00;00;00</string>
								<frame>0</frame>
								<displayformat>DF</displayformat>
							</timecode>
							<media>
								<audio>
									<samplecharacteristics>
										<depth>16</depth>
										<samplerate>48000</samplerate>
									</samplecharacteristics>
									<channelcount>2</channelcount>
								</audio>
							</media>
						</file>
						<sourcetrack>
							<mediatype>audio</mediatype>
							<trackindex>1</trackindex>
						</sourcetrack>
							<filter>
								<effect>
									<name>Audio Levels</name>
									<effectid>audiolevels</effectid>
									<effectcategory>audiolevels</effectcategory>
									<effecttype>audiolevels</effecttype>
									<mediatype>audio</mediatype>
									<parameter authoringApp="PremierePro">
										<parameterid>level</parameterid>
										<name>Level</name>
										<valuemin>0</valuemin>
										<valuemax>3.98109</valuemax>
										<value>0</value>
										<keyframe>
											<when>210</when>
											<value>0.12133</value>
										</keyframe>
										<keyframe>
											<when>226</when>
											<value>0</value>
										</keyframe>
										<keyframe>
											<when>350</when>
											<value>0</value>
										</keyframe>
										<keyframe>
											<when>361</when>
											<value>0.157107</value>
										</keyframe>
									</parameter>
								</effect>
							</filter>
							<filter>
								<effect>
									<name>Audio Pan</name>
									<effectid>audiopan</effectid>
									<effectcategory>audiopan</effectcategory>
									<effecttype>audiopan</effecttype>
									<mediatype>audio</mediatype>
									<parameter authoringApp="PremierePro">
										<parameterid>pan</parameterid>
										<name>Pan</name>
										<valuemin>-1</valuemin>
										<valuemax>1</valuemax>
										<value>0</value>
									</parameter>
								</effect>
							</filter>
						<link>
							<linkclipref>clipitem-593</linkclipref>
							<mediatype>audio</mediatype>
							<trackindex>8</trackindex>
							<clipindex>3</clipindex>
							<groupindex>1</groupindex>
						</link>
						<link>
							<linkclipref>clipitem-614</linkclipref>
							<mediatype>audio</mediatype>
							<trackindex>9</trackindex>
							<clipindex>3</clipindex>
							<groupindex>1</groupindex>
						</link>
					</clipitem>
					<clipitem id="clipitem-594" frameBlend="FALSE" PannerCurrentValue="0.5" PannerKeyframes="" PannerStartKeyframe="-91445760000000000,0.5,0,0,0,0,0,0" PannerIsInverted="true" PannerName="Balance">
						<masterclipid>masterclip-202</masterclipid>
						<name>FB Generell Bakgrunn.aif</name>
						<enabled>TRUE</enabled>
						<duration>1148</duration>
						<rate>
							<ntsc>TRUE</ntsc>
							<timebase>30</timebase>
						</rate>
						<start>429</start>
						<end>589</end>
						<in>313</in>
						<out>473</out>
						<file id="file-201"/>
						<sourcetrack>
							<mediatype>audio</mediatype>
							<trackindex>1</trackindex>
						</sourcetrack>
							<filter>
								<effect>
									<name>Audio Levels</name>
									<effectid>audiolevels</effectid>
									<effectcategory>audiolevels</effectcategory>
									<effecttype>audiolevels</effecttype>
									<mediatype>audio</mediatype>
									<parameter authoringApp="PremierePro">
										<parameterid>level</parameterid>
										<name>Level</name>
										<valuemin>0</valuemin>
										<valuemax>3.98109</valuemax>
										<value>0.0347749</value>
										<keyframe>
											<when>210</when>
											<value>0.12133</value>
										</keyframe>
										<keyframe>
											<when>226</when>
											<value>0</value>
										</keyframe>
										<keyframe>
											<when>285</when>
											<value>0</value>
										</keyframe>
										<keyframe>
											<when>296</when>
											<value>0.125686</value>
										</keyframe>
										<keyframe>
											<when>313</when>
											<value>0</value>
										</keyframe>
										<keyframe>
											<when>321</when>
											<value>0</value>
										</keyframe>
										<keyframe>
											<when>365</when>
											<value>0.109975</value>
										</keyframe>
										<keyframe>
											<when>381</when>
											<value>0.125686</value>
										</keyframe>
										<keyframe>
											<when>393</when>
											<value>0</value>
										</keyframe>
										<keyframe>
											<when>415</when>
											<value>0.157107</value>
										</keyframe>
										<keyframe>
											<when>444</when>
											<value>0.157107</value>
										</keyframe>
										<keyframe>
											<when>460</when>
											<value>0</value>
										</keyframe>
									</parameter>
								</effect>
							</filter>
							<filter>
								<effect>
									<name>Audio Pan</name>
									<effectid>audiopan</effectid>
									<effectcategory>audiopan</effectcategory>
									<effecttype>audiopan</effecttype>
									<mediatype>audio</mediatype>
									<parameter authoringApp="PremierePro">
										<parameterid>pan</parameterid>
										<name>Pan</name>
										<valuemin>-1</valuemin>
										<valuemax>1</valuemax>
										<value>0</value>
									</parameter>
								</effect>
							</filter>
						<link>
							<linkclipref>clipitem-594</linkclipref>
							<mediatype>audio</mediatype>
							<trackindex>8</trackindex>
							<clipindex>4</clipindex>
							<groupindex>1</groupindex>
						</link>
						<link>
							<linkclipref>clipitem-615</linkclipref>
							<mediatype>audio</mediatype>
							<trackindex>9</trackindex>
							<clipindex>4</clipindex>
							<groupindex>1</groupindex>
						</link>
					</clipitem>
					<clipitem id="clipitem-595" frameBlend="FALSE" PannerCurrentValue="0.5" PannerKeyframes="" PannerStartKeyframe="-91445760000000000,0.5,0,0,0,0,0,0" PannerIsInverted="true" PannerName="Balance">
						<masterclipid>masterclip-39</masterclipid>
						<name>Vignett vår 2013 merged.mov</name>
						<enabled>TRUE</enabled>
						<duration>881</duration>
						<rate>
							<ntsc>TRUE</ntsc>
							<timebase>30</timebase>
						</rate>
						<start>730</start>
						<end>-1</end>
						<in>0</in>
						<out>596</out>
						<file id="file-39"/>
						<sourcetrack>
							<mediatype>audio</mediatype>
							<trackindex>1</trackindex>
						</sourcetrack>
							<filter>
								<effect>
									<name>Audio Pan</name>
									<effectid>audiopan</effectid>
									<effectcategory>audiopan</effectcategory>
									<effecttype>audiopan</effecttype>
									<mediatype>audio</mediatype>
									<parameter authoringApp="PremierePro">
										<parameterid>pan</parameterid>
										<name>Pan</name>
										<valuemin>-1</valuemin>
										<valuemax>1</valuemax>
										<value>0</value>
									</parameter>
								</effect>
							</filter>
						<link>
							<linkclipref>clipitem-158</linkclipref>
							<mediatype>video</mediatype>
							<trackindex>3</trackindex>
							<clipindex>7</clipindex>
						</link>
						<link>
							<linkclipref>clipitem-595</linkclipref>
							<mediatype>audio</mediatype>
							<trackindex>8</trackindex>
							<clipindex>5</clipindex>
							<groupindex>1</groupindex>
						</link>
						<link>
							<linkclipref>clipitem-616</linkclipref>
							<mediatype>audio</mediatype>
							<trackindex>9</trackindex>
							<clipindex>5</clipindex>
							<groupindex>1</groupindex>
						</link>
					</clipitem>
					<transitionitem>
						<start>1263</start>
						<end>1326</end>
						<alignment>center</alignment>
						<cutPoint>31</cutPoint>
						<rate>
							<timebase>25</timebase>
							<ntsc>FALSE</ntsc>
						</rate>
						<effect>
							<name>Cross Fade (+3dB)</name>
							<effectid>KGAudioTransCrossFade3dB</effectid>
							<effecttype>transition</effecttype>
							<mediatype>audio</mediatype>
							<wipecode>0</wipecode>
							<wipeaccuracy>100</wipeaccuracy>
							<startratio>0</startratio>
							<endratio>1</endratio>
							<reverse>FALSE</reverse>
						</effect>
					</transitionitem>
					<clipitem id="clipitem-596" frameBlend="FALSE" PannerCurrentValue="0.5" PannerKeyframes="" PannerStartKeyframe="-91445760000000000,0.5,0,0,0,0,0,0" PannerIsInverted="true" PannerName="Balance">
						<masterclipid>masterclip-39</masterclipid>
						<name>Vignett vår 2013 merged.mov</name>
						<enabled>TRUE</enabled>
						<duration>881</duration>
						<rate>
							<ntsc>TRUE</ntsc>
							<timebase>30</timebase>
						</rate>
						<start>-1</start>
						<end>-1</end>
						<in>533</in>
						<out>743</out>
						<file id="file-39"/>
						<sourcetrack>
							<mediatype>audio</mediatype>
							<trackindex>1</trackindex>
						</sourcetrack>
							<filter>
								<effect>
									<name>Audio Levels</name>
									<effectid>audiolevels</effectid>
									<effectcategory>audiolevels</effectcategory>
									<effecttype>audiolevels</effecttype>
									<mediatype>audio</mediatype>
									<parameter authoringApp="PremierePro">
										<parameterid>level</parameterid>
										<name>Level</name>
										<valuemin>0</valuemin>
										<valuemax>3.98109</valuemax>
										<value>0.187056</value>
										<keyframe>
											<when>612</when>
											<value>0.187056</value>
										</keyframe>
									</parameter>
								</effect>
							</filter>
							<filter>
								<effect>
									<name>Audio Pan</name>
									<effectid>audiopan</effectid>
									<effectcategory>audiopan</effectcategory>
									<effecttype>audiopan</effecttype>
									<mediatype>audio</mediatype>
									<parameter authoringApp="PremierePro">
										<parameterid>pan</parameterid>
										<name>Pan</name>
										<valuemin>-1</valuemin>
										<valuemax>1</valuemax>
										<value>0</value>
									</parameter>
								</effect>
							</filter>
						<link>
							<linkclipref>clipitem-596</linkclipref>
							<mediatype>audio</mediatype>
							<trackindex>8</trackindex>
							<clipindex>7</clipindex>
							<groupindex>1</groupindex>
						</link>
						<link>
							<linkclipref>clipitem-617</linkclipref>
							<mediatype>audio</mediatype>
							<trackindex>9</trackindex>
							<clipindex>7</clipindex>
							<groupindex>1</groupindex>
						</link>
					</clipitem>
					<transitionitem>
						<start>1410</start>
						<end>1473</end>
						<alignment>end-black</alignment>
						<cutPoint>63</cutPoint>
						<rate>
							<timebase>25</timebase>
							<ntsc>FALSE</ntsc>
						</rate>
						<effect>
							<name>Cross Fade (+3dB)</name>
							<effectid>KGAudioTransCrossFade3dB</effectid>
							<effecttype>transition</effecttype>
							<mediatype>audio</mediatype>
							<wipecode>0</wipecode>
							<wipeaccuracy>100</wipeaccuracy>
							<startratio>0</startratio>
							<endratio>1</endratio>
							<reverse>FALSE</reverse>
						</effect>
					</transitionitem>
					<clipitem id="clipitem-597" frameBlend="FALSE" PannerCurrentValue="0.5" PannerKeyframes="" PannerStartKeyframe="-91445760000000000,0.5,0,0,0,0,0,0" PannerIsInverted="true" PannerName="Balance">
						<masterclipid>masterclip-203</masterclipid>
						<name>The Birth of A Nation [ 1_4 ]. Music by Joseph Carl Breil.mp4</name>
						<enabled>TRUE</enabled>
						<duration>6124</duration>
						<rate>
							<timebase>23</timebase>
							<ntsc>FALSE</ntsc>
						</rate>
						<start>1743</start>
						<end>-1</end>
						<in>9</in>
						<out>187</out>
						<pixelaspectratio>square</pixelaspectratio>
						<anamorphic>FALSE</anamorphic>
						<file id="file-202">
							<name>The Birth of A Nation [ 1_4 ]. Music by Joseph Carl Breil.mp4</name>
							<pathurl>file://localhost/Volumes/Scenen/Prosjekter/FILM/FILM%201413%20Stormannsgalskap/musikk/The%20Birth%20of%20A%20Nation%20[%201_4%20].%20Music%20by%20Joseph%20Carl%20Breil.mp4</pathurl>
							<rate>
								<timebase>23</timebase>
								<ntsc>FALSE</ntsc>
							</rate>
							<duration>5879</duration>
							<timecode>
								<rate>
									<timebase>23</timebase>
									<ntsc>FALSE</ntsc>
								</rate>
								<string>00:00:00:00</string>
								<frame>0</frame>
								<displayformat>NDF</displayformat>
							</timecode>
							<media>
								<video>
									<duration>18000</duration>
									<samplecharacteristics>
										<rate>
											<timebase>23</timebase>
											<ntsc>FALSE</ntsc>
										</rate>
										<width>640</width>
										<height>360</height>
										<anamorphic>FALSE</anamorphic>
										<pixelaspectratio>square</pixelaspectratio>
										<fielddominance>none</fielddominance>
									</samplecharacteristics>
								</video>
								<audio>
									<samplecharacteristics>
										<depth>16</depth>
										<samplerate>44100</samplerate>
									</samplecharacteristics>
									<channelcount>2</channelcount>
								</audio>
							</media>
						</file>
						<sourcetrack>
							<mediatype>audio</mediatype>
							<trackindex>1</trackindex>
						</sourcetrack>
							<filter>
								<effect>
									<name>Audio Levels</name>
									<effectid>audiolevels</effectid>
									<effectcategory>audiolevels</effectcategory>
									<effecttype>audiolevels</effecttype>
									<mediatype>audio</mediatype>
									<parameter authoringApp="PremierePro">
										<parameterid>level</parameterid>
										<name>Level</name>
										<valuemin>0</valuemin>
										<valuemax>3.98109</valuemax>
										<value>1.48922</value>
									</parameter>
								</effect>
							</filter>
							<filter>
								<effect>
									<name>Audio Pan</name>
									<effectid>audiopan</effectid>
									<effectcategory>audiopan</effectcategory>
									<effecttype>audiopan</effecttype>
									<mediatype>audio</mediatype>
									<parameter authoringApp="PremierePro">
										<parameterid>pan</parameterid>
										<name>Pan</name>
										<valuemin>-1</valuemin>
										<valuemax>1</valuemax>
										<value>0</value>
									</parameter>
								</effect>
							</filter>
						<link>
							<linkclipref>clipitem-597</linkclipref>
							<mediatype>audio</mediatype>
							<trackindex>8</trackindex>
							<clipindex>9</clipindex>
							<groupindex>1</groupindex>
						</link>
						<link>
							<linkclipref>clipitem-618</linkclipref>
							<mediatype>audio</mediatype>
							<trackindex>9</trackindex>
							<clipindex>9</clipindex>
							<groupindex>1</groupindex>
						</link>
					</clipitem>
					<transitionitem>
						<start>1917</start>
						<end>1921</end>
						<alignment>center</alignment>
						<cutPoint>2</cutPoint>
						<rate>
							<timebase>25</timebase>
							<ntsc>FALSE</ntsc>
						</rate>
						<effect>
							<name>Cross Fade (+3dB)</name>
							<effectid>KGAudioTransCrossFade3dB</effectid>
							<effecttype>transition</effecttype>
							<mediatype>audio</mediatype>
							<wipecode>0</wipecode>
							<wipeaccuracy>100</wipeaccuracy>
							<startratio>0</startratio>
							<endratio>1</endratio>
							<reverse>FALSE</reverse>
						</effect>
					</transitionitem>
					<clipitem id="clipitem-598" frameBlend="FALSE" PannerCurrentValue="0.5" PannerKeyframes="" PannerStartKeyframe="-91445760000000000,0.5,0,0,0,0,0,0" PannerIsInverted="true" PannerName="Balance">
						<masterclipid>masterclip-203</masterclipid>
						<name>The Birth of A Nation [ 1_4 ]. Music by Joseph Carl Breil.mp4</name>
						<enabled>TRUE</enabled>
						<duration>6124</duration>
						<rate>
							<ntsc>TRUE</ntsc>
							<timebase>30</timebase>
						</rate>
						<start>-1</start>
						<end>-1</end>
						<in>183</in>
						<out>460</out>
						<file id="file-202"/>
						<sourcetrack>
							<mediatype>audio</mediatype>
							<trackindex>1</trackindex>
						</sourcetrack>
							<filter>
								<effect>
									<name>Audio Levels</name>
									<effectid>audiolevels</effectid>
									<effectcategory>audiolevels</effectcategory>
									<effecttype>audiolevels</effecttype>
									<mediatype>audio</mediatype>
									<parameter authoringApp="PremierePro">
										<parameterid>level</parameterid>
										<name>Level</name>
										<valuemin>0</valuemin>
										<valuemax>3.98109</valuemax>
										<value>0.756277</value>
									</parameter>
								</effect>
							</filter>
							<filter>
								<effect>
									<name>Audio Pan</name>
									<effectid>audiopan</effectid>
									<effectcategory>audiopan</effectcategory>
									<effecttype>audiopan</effecttype>
									<mediatype>audio</mediatype>
									<parameter authoringApp="PremierePro">
										<parameterid>pan</parameterid>
										<name>Pan</name>
										<valuemin>-1</valuemin>
										<valuemax>1</valuemax>
										<value>0</value>
									</parameter>
								</effect>
							</filter>
						<link>
							<linkclipref>clipitem-598</linkclipref>
							<mediatype>audio</mediatype>
							<trackindex>8</trackindex>
							<clipindex>11</clipindex>
							<groupindex>1</groupindex>
						</link>
						<link>
							<linkclipref>clipitem-619</linkclipref>
							<mediatype>audio</mediatype>
							<trackindex>9</trackindex>
							<clipindex>11</clipindex>
							<groupindex>1</groupindex>
						</link>
					</clipitem>
					<transitionitem>
						<start>2124</start>
						<end>2194</end>
						<alignment>end-black</alignment>
						<cutPoint>70</cutPoint>
						<rate>
							<timebase>25</timebase>
							<ntsc>FALSE</ntsc>
						</rate>
						<effect>
							<name>Cross Fade (+3dB)</name>
							<effectid>KGAudioTransCrossFade3dB</effectid>
							<effecttype>transition</effecttype>
							<mediatype>audio</mediatype>
							<wipecode>0</wipecode>
							<wipeaccuracy>100</wipeaccuracy>
							<startratio>0</startratio>
							<endratio>1</endratio>
							<reverse>FALSE</reverse>
						</effect>
					</transitionitem>
					<transitionitem>
						<start>2983</start>
						<end>3008</end>
						<alignment>start-black</alignment>
						<cutPoint>0</cutPoint>
						<rate>
							<timebase>25</timebase>
							<ntsc>FALSE</ntsc>
						</rate>
						<effect>
							<name>Cross Fade (+3dB)</name>
							<effectid>KGAudioTransCrossFade3dB</effectid>
							<effecttype>transition</effecttype>
							<mediatype>audio</mediatype>
							<wipecode>0</wipecode>
							<wipeaccuracy>100</wipeaccuracy>
							<startratio>0</startratio>
							<endratio>1</endratio>
							<reverse>FALSE</reverse>
						</effect>
					</transitionitem>
					<clipitem id="clipitem-599" frameBlend="FALSE" PannerCurrentValue="0.5" PannerKeyframes="" PannerStartKeyframe="-91445760000000000,0.5,0,0,0,0,0,0" PannerIsInverted="true" PannerName="Balance">
						<masterclipid>masterclip-204</masterclipid>
						<name>NONRO199063CD0002 The Vintner's Daughter, op. 23.wav</name>
						<enabled>TRUE</enabled>
						<duration>25141</duration>
						<rate>
							<timebase>30</timebase>
							<ntsc>TRUE</ntsc>
						</rate>
						<start>-1</start>
						<end>-1</end>
						<in>7720</in>
						<out>8526</out>
						<file id="file-203">
							<name>NONRO199063CD0002 The Vintner's Daughter, op. 23.wav</name>
							<pathurl>file://localhost/Volumes/Scenen/Prosjekter/FILM/FILM%201413%20Master%20Filmbonanza%20Program%206%20H%c3%b8sten%202013/Musikk/NONRO199063CD0002%20The%20Vintner's%20Daughter,%20op.%2023.wav</pathurl>
							<rate>
								<timebase>30</timebase>
								<ntsc>TRUE</ntsc>
							</rate>
							<duration>30139</duration>
							<timecode>
								<rate>
									<timebase>30</timebase>
									<ntsc>TRUE</ntsc>
								</rate>
								<string>00;00;00;00</string>
								<frame>0</frame>
								<displayformat>DF</displayformat>
							</timecode>
							<media>
								<audio>
									<samplecharacteristics>
										<depth>16</depth>
										<samplerate>48000</samplerate>
									</samplecharacteristics>
									<channelcount>2</channelcount>
								</audio>
							</media>
						</file>
						<sourcetrack>
							<mediatype>audio</mediatype>
							<trackindex>1</trackindex>
						</sourcetrack>
							<filter>
								<effect>
									<name>Audio Levels</name>
									<effectid>audiolevels</effectid>
									<effectcategory>audiolevels</effectcategory>
									<effecttype>audiolevels</effecttype>
									<mediatype>audio</mediatype>
									<parameter authoringApp="PremierePro">
										<parameterid>level</parameterid>
										<name>Level</name>
										<valuemin>0</valuemin>
										<valuemax>3.98109</valuemax>
										<value>0.434864</value>
										<keyframe>
											<when>7856</when>
											<value>0.808299</value>
										</keyframe>
										<keyframe>
											<when>7861</when>
											<value>0.247276</value>
										</keyframe>
										<keyframe>
											<when>8068</when>
											<value>0.247276</value>
										</keyframe>
										<keyframe>
											<when>8100</when>
											<value>0.792988</value>
										</keyframe>
										<keyframe>
											<when>8120</when>
											<value>0.792988</value>
										</keyframe>
										<keyframe>
											<when>8125</when>
											<value>0.434864</value>
										</keyframe>
									</parameter>
								</effect>
							</filter>
							<filter>
								<effect>
									<name>Audio Pan</name>
									<effectid>audiopan</effectid>
									<effectcategory>audiopan</effectcategory>
									<effecttype>audiopan</effecttype>
									<mediatype>audio</mediatype>
									<parameter authoringApp="PremierePro">
										<parameterid>pan</parameterid>
										<name>Pan</name>
										<valuemin>-1</valuemin>
										<valuemax>1</valuemax>
										<value>0</value>
									</parameter>
								</effect>
							</filter>
						<link>
							<linkclipref>clipitem-599</linkclipref>
							<mediatype>audio</mediatype>
							<trackindex>8</trackindex>
							<clipindex>14</clipindex>
							<groupindex>1</groupindex>
						</link>
						<link>
							<linkclipref>clipitem-620</linkclipref>
							<mediatype>audio</mediatype>
							<trackindex>9</trackindex>
							<clipindex>14</clipindex>
							<groupindex>1</groupindex>
						</link>
					</clipitem>
					<transitionitem>
						<start>3764</start>
						<end>3789</end>
						<alignment>end-black</alignment>
						<cutPoint>25</cutPoint>
						<rate>
							<timebase>25</timebase>
							<ntsc>FALSE</ntsc>
						</rate>
						<effect>
							<name>Cross Fade (+3dB)</name>
							<effectid>KGAudioTransCrossFade3dB</effectid>
							<effecttype>transition</effecttype>
							<mediatype>audio</mediatype>
							<wipecode>0</wipecode>
							<wipeaccuracy>100</wipeaccuracy>
							<startratio>0</startratio>
							<endratio>1</endratio>
							<reverse>FALSE</reverse>
						</effect>
					</transitionitem>
					<clipitem id="clipitem-600" frameBlend="FALSE" PannerCurrentValue="0.5" PannerKeyframes="" PannerStartKeyframe="-91445760000000000,0.5,0,0,0,0,0,0" PannerIsInverted="true" PannerName="Balance">
						<masterclipid>masterclip-59</masterclipid>
						<name>Titanic</name>
						<enabled>TRUE</enabled>
						<duration>1458</duration>
						<rate>
							<ntsc>TRUE</ntsc>
							<timebase>30</timebase>
						</rate>
						<start>9633</start>
						<end>-1</end>
						<in>224</in>
						<out>496</out>
						<file id="file-59"/>
						<sourcetrack>
							<mediatype>audio</mediatype>
							<trackindex>1</trackindex>
						</sourcetrack>
							<filter>
								<effect>
									<name>Gain</name>
									<effectid>{61756678, 4761696e, 4b657947}</effectid>
									<effecttype>filter</effecttype>
									<mediatype>audio</mediatype>
									<parameter authoringApp="PremierePro">
										<parameterid>Gain(dB)</parameterid>
										<name>Gain(dB)</name>
										<valuemin>-96</valuemin>
										<valuemax>96</valuemax>
										<value>-4</value>
									</parameter>
								</effect>
							</filter>
							<filter>
								<effect>
									<name>Audio Levels</name>
									<effectid>audiolevels</effectid>
									<effectcategory>audiolevels</effectcategory>
									<effecttype>audiolevels</effecttype>
									<mediatype>audio</mediatype>
									<parameter authoringApp="PremierePro">
										<parameterid>level</parameterid>
										<name>Level</name>
										<valuemin>0</valuemin>
										<valuemax>3.98109</valuemax>
										<value>0.650628</value>
									</parameter>
								</effect>
							</filter>
							<filter>
								<effect>
									<name>Audio Pan</name>
									<effectid>audiopan</effectid>
									<effectcategory>audiopan</effectcategory>
									<effecttype>audiopan</effecttype>
									<mediatype>audio</mediatype>
									<parameter authoringApp="PremierePro">
										<parameterid>pan</parameterid>
										<name>Pan</name>
										<valuemin>-1</valuemin>
										<valuemax>1</valuemax>
										<value>0</value>
									</parameter>
								</effect>
							</filter>
						<link>
							<linkclipref>clipitem-600</linkclipref>
							<mediatype>audio</mediatype>
							<trackindex>8</trackindex>
							<clipindex>16</clipindex>
							<groupindex>1</groupindex>
						</link>
						<link>
							<linkclipref>clipitem-621</linkclipref>
							<mediatype>audio</mediatype>
							<trackindex>9</trackindex>
							<clipindex>16</clipindex>
							<groupindex>1</groupindex>
						</link>
					</clipitem>
					<transitionitem>
						<start>9837</start>
						<end>9905</end>
						<alignment>end-black</alignment>
						<cutPoint>68</cutPoint>
						<rate>
							<timebase>25</timebase>
							<ntsc>FALSE</ntsc>
						</rate>
						<effect>
							<name>Cross Fade (+3dB)</name>
							<effectid>KGAudioTransCrossFade3dB</effectid>
							<effecttype>transition</effecttype>
							<mediatype>audio</mediatype>
							<wipecode>0</wipecode>
							<wipeaccuracy>100</wipeaccuracy>
							<startratio>0</startratio>
							<endratio>1</endratio>
							<reverse>FALSE</reverse>
						</effect>
					</transitionitem>
					<clipitem id="clipitem-601" frameBlend="FALSE" PannerCurrentValue="0.5" PannerKeyframes="" PannerStartKeyframe="-91445760000000000,0.5,0,0,0,0,0,0" PannerIsInverted="true" PannerName="Balance">
						<masterclipid>masterclip-61</masterclipid>
						<name>Titanic</name>
						<enabled>TRUE</enabled>
						<duration>2524</duration>
						<rate>
							<ntsc>TRUE</ntsc>
							<timebase>30</timebase>
						</rate>
						<start>9980</start>
						<end>10063</end>
						<in>255</in>
						<out>338</out>
						<file id="file-61"/>
						<sourcetrack>
							<mediatype>audio</mediatype>
							<trackindex>1</trackindex>
						</sourcetrack>
							<filter>
								<effect>
									<name>Audio Levels</name>
									<effectid>audiolevels</effectid>
									<effectcategory>audiolevels</effectcategory>
									<effecttype>audiolevels</effecttype>
									<mediatype>audio</mediatype>
									<parameter authoringApp="PremierePro">
										<parameterid>level</parameterid>
										<name>Level</name>
										<valuemin>0</valuemin>
										<valuemax>3.98109</valuemax>
										<value>0.0802691</value>
									</parameter>
								</effect>
							</filter>
							<filter>
								<effect>
									<name>Audio Pan</name>
									<effectid>audiopan</effectid>
									<effectcategory>audiopan</effectcategory>
									<effecttype>audiopan</effecttype>
									<mediatype>audio</mediatype>
									<parameter authoringApp="PremierePro">
										<parameterid>pan</parameterid>
										<name>Pan</name>
										<valuemin>-1</valuemin>
										<valuemax>1</valuemax>
										<value>0</value>
									</parameter>
								</effect>
							</filter>
						<link>
							<linkclipref>clipitem-601</linkclipref>
							<mediatype>audio</mediatype>
							<trackindex>8</trackindex>
							<clipindex>18</clipindex>
							<groupindex>1</groupindex>
						</link>
						<link>
							<linkclipref>clipitem-622</linkclipref>
							<mediatype>audio</mediatype>
							<trackindex>9</trackindex>
							<clipindex>18</clipindex>
							<groupindex>1</groupindex>
						</link>
					</clipitem>
					<clipitem id="clipitem-602" frameBlend="FALSE" PannerCurrentValue="0.5" PannerKeyframes="" PannerStartKeyframe="-91445760000000000,0.5,0,0,0,0,0,0" PannerIsInverted="true" PannerName="Balance">
						<masterclipid>masterclip-61</masterclipid>
						<name>Titanic</name>
						<enabled>TRUE</enabled>
						<duration>2524</duration>
						<rate>
							<ntsc>TRUE</ntsc>
							<timebase>30</timebase>
						</rate>
						<start>10063</start>
						<end>10191</end>
						<in>1652</in>
						<out>1780</out>
						<file id="file-61"/>
						<sourcetrack>
							<mediatype>audio</mediatype>
							<trackindex>1</trackindex>
						</sourcetrack>
							<filter>
								<effect>
									<name>Gain</name>
									<effectid>{61756678, 4761696e, 4b657947}</effectid>
									<effecttype>filter</effecttype>
									<mediatype>audio</mediatype>
									<parameter authoringApp="PremierePro">
										<parameterid>Gain(dB)</parameterid>
										<name>Gain(dB)</name>
										<valuemin>-96</valuemin>
										<valuemax>96</valuemax>
										<value>-6</value>
									</parameter>
								</effect>
							</filter>
							<filter>
								<effect>
									<name>Audio Levels</name>
									<effectid>audiolevels</effectid>
									<effectcategory>audiolevels</effectcategory>
									<effecttype>audiolevels</effecttype>
									<mediatype>audio</mediatype>
									<parameter authoringApp="PremierePro">
										<parameterid>level</parameterid>
										<name>Level</name>
										<valuemin>0</valuemin>
										<valuemax>3.98109</valuemax>
										<value>0.27471</value>
									</parameter>
								</effect>
							</filter>
							<filter>
								<effect>
									<name>Audio Pan</name>
									<effectid>audiopan</effectid>
									<effectcategory>audiopan</effectcategory>
									<effecttype>audiopan</effecttype>
									<mediatype>audio</mediatype>
									<parameter authoringApp="PremierePro">
										<parameterid>pan</parameterid>
										<name>Pan</name>
										<valuemin>-1</valuemin>
										<valuemax>1</valuemax>
										<value>0</value>
									</parameter>
								</effect>
							</filter>
						<link>
							<linkclipref>clipitem-602</linkclipref>
							<mediatype>audio</mediatype>
							<trackindex>8</trackindex>
							<clipindex>19</clipindex>
							<groupindex>1</groupindex>
						</link>
						<link>
							<linkclipref>clipitem-623</linkclipref>
							<mediatype>audio</mediatype>
							<trackindex>9</trackindex>
							<clipindex>19</clipindex>
							<groupindex>1</groupindex>
						</link>
					</clipitem>
					<transitionitem>
						<start>10796</start>
						<end>10821</end>
						<alignment>start-black</alignment>
						<cutPoint>0</cutPoint>
						<rate>
							<timebase>25</timebase>
							<ntsc>FALSE</ntsc>
						</rate>
						<effect>
							<name>Cross Fade (+3dB)</name>
							<effectid>KGAudioTransCrossFade3dB</effectid>
							<effecttype>transition</effecttype>
							<mediatype>audio</mediatype>
							<wipecode>0</wipecode>
							<wipeaccuracy>100</wipeaccuracy>
							<startratio>0</startratio>
							<endratio>1</endratio>
							<reverse>FALSE</reverse>
						</effect>
					</transitionitem>
					<clipitem id="clipitem-603" frameBlend="FALSE" PannerCurrentValue="0.5" PannerKeyframes="" PannerStartKeyframe="-91445760000000000,0.5,0,0,0,0,0,0" PannerIsInverted="true" PannerName="Balance">
						<masterclipid>masterclip-205</masterclipid>
						<name>NONRO000131CD0004 The Planets, op. 32_ Jupiter -.wav</name>
						<enabled>TRUE</enabled>
						<duration>11268</duration>
						<rate>
							<timebase>30</timebase>
							<ntsc>TRUE</ntsc>
						</rate>
						<start>-1</start>
						<end>11483</end>
						<in>10581</in>
						<out>11268</out>
						<file id="file-204">
							<name>NONRO000131CD0004 The Planets, op. 32_ Jupiter -.wav</name>
							<pathurl>file://localhost/Volumes/Scenen/Prosjekter/FILM/FILM%201413%20Master%20Filmbonanza%20Program%206%20H%c3%b8sten%202013/Lydffekter/NONRO000131CD0004%20The%20Planets,%20op.%2032_%20Jupiter%20-.wav</pathurl>
							<rate>
								<timebase>30</timebase>
								<ntsc>TRUE</ntsc>
							</rate>
							<duration>13508</duration>
							<timecode>
								<rate>
									<timebase>30</timebase>
									<ntsc>TRUE</ntsc>
								</rate>
								<string>00;00;00;00</string>
								<frame>0</frame>
								<displayformat>DF</displayformat>
							</timecode>
							<media>
								<audio>
									<samplecharacteristics>
										<depth>16</depth>
										<samplerate>48000</samplerate>
									</samplecharacteristics>
									<channelcount>2</channelcount>
								</audio>
							</media>
						</file>
						<sourcetrack>
							<mediatype>audio</mediatype>
							<trackindex>1</trackindex>
						</sourcetrack>
							<filter>
								<effect>
									<name>Gain</name>
									<effectid>{61756678, 4761696e, 4b657947}</effectid>
									<effecttype>filter</effecttype>
									<mediatype>audio</mediatype>
									<parameter authoringApp="PremierePro">
										<parameterid>Gain(dB)</parameterid>
										<name>Gain(dB)</name>
										<valuemin>-96</valuemin>
										<valuemax>96</valuemax>
										<value>-11</value>
									</parameter>
								</effect>
							</filter>
							<filter>
								<effect>
									<name>Audio Levels</name>
									<effectid>audiolevels</effectid>
									<effectcategory>audiolevels</effectcategory>
									<effecttype>audiolevels</effecttype>
									<mediatype>audio</mediatype>
									<parameter authoringApp="PremierePro">
										<parameterid>level</parameterid>
										<name>Level</name>
										<valuemin>0</valuemin>
										<valuemax>3.98109</valuemax>
										<value>0.662659</value>
										<keyframe>
											<when>10860</when>
											<value>0.4442</value>
										</keyframe>
										<keyframe>
											<when>11021</when>
											<value>0.429636</value>
										</keyframe>
										<keyframe>
											<when>11129</when>
											<value>0.662659</value>
										</keyframe>
									</parameter>
								</effect>
							</filter>
							<filter>
								<effect>
									<name>Audio Pan</name>
									<effectid>audiopan</effectid>
									<effectcategory>audiopan</effectcategory>
									<effecttype>audiopan</effecttype>
									<mediatype>audio</mediatype>
									<parameter authoringApp="PremierePro">
										<parameterid>pan</parameterid>
										<name>Pan</name>
										<valuemin>-1</valuemin>
										<valuemax>1</valuemax>
										<value>0</value>
									</parameter>
								</effect>
							</filter>
						<link>
							<linkclipref>clipitem-603</linkclipref>
							<mediatype>audio</mediatype>
							<trackindex>8</trackindex>
							<clipindex>21</clipindex>
							<groupindex>1</groupindex>
						</link>
						<link>
							<linkclipref>clipitem-624</linkclipref>
							<mediatype>audio</mediatype>
							<trackindex>9</trackindex>
							<clipindex>21</clipindex>
							<groupindex>1</groupindex>
						</link>
					</clipitem>
					<clipitem id="clipitem-604" frameBlend="FALSE" PannerCurrentValue="0.5" PannerKeyframes="" PannerStartKeyframe="-91445760000000000,0.5,0,0,0,0,0,0" PannerIsInverted="true" PannerName="Balance">
						<masterclipid>masterclip-206</masterclipid>
						<name>NONRO197406CD0003 On the Run.wav</name>
						<enabled>TRUE</enabled>
						<duration>7109</duration>
						<rate>
							<timebase>30</timebase>
							<ntsc>TRUE</ntsc>
						</rate>
						<start>16122</start>
						<end>16676</end>
						<in>0</in>
						<out>554</out>
						<file id="file-205">
							<name>NONRO197406CD0003 On the Run.wav</name>
							<pathurl>file://localhost/Volumes/Scenen/Prosjekter/FILM/FILM%201413%20Master%20Filmbonanza%20Program%206%20H%c3%b8sten%202013/Musikk/NONRO197406CD0003%20On%20the%20Run.wav</pathurl>
							<rate>
								<timebase>30</timebase>
								<ntsc>TRUE</ntsc>
							</rate>
							<duration>8523</duration>
							<timecode>
								<rate>
									<timebase>30</timebase>
									<ntsc>TRUE</ntsc>
								</rate>
								<string>00;00;00;00</string>
								<frame>0</frame>
								<displayformat>DF</displayformat>
							</timecode>
							<media>
								<audio>
									<samplecharacteristics>
										<depth>16</depth>
										<samplerate>48000</samplerate>
									</samplecharacteristics>
									<channelcount>2</channelcount>
								</audio>
							</media>
						</file>
						<sourcetrack>
							<mediatype>audio</mediatype>
							<trackindex>1</trackindex>
						</sourcetrack>
							<filter>
								<effect>
									<name>Gain</name>
									<effectid>{61756678, 4761696e, 4b657947}</effectid>
									<effecttype>filter</effecttype>
									<mediatype>audio</mediatype>
									<parameter authoringApp="PremierePro">
										<parameterid>Gain(dB)</parameterid>
										<name>Gain(dB)</name>
										<valuemin>-96</valuemin>
										<valuemax>96</valuemax>
										<value>-6</value>
									</parameter>
								</effect>
							</filter>
							<filter>
								<effect>
									<name>Audio Levels</name>
									<effectid>audiolevels</effectid>
									<effectcategory>audiolevels</effectcategory>
									<effecttype>audiolevels</effecttype>
									<mediatype>audio</mediatype>
									<parameter authoringApp="PremierePro">
										<parameterid>level</parameterid>
										<name>Level</name>
										<valuemin>0</valuemin>
										<valuemax>3.98109</valuemax>
										<value>0.424389</value>
										<keyframe>
											<when>506</when>
											<value>0.424389</value>
										</keyframe>
										<keyframe>
											<when>548</when>
											<value>0</value>
										</keyframe>
										<keyframe>
											<when>685</when>
											<value>0.424389</value>
										</keyframe>
										<keyframe>
											<when>1132</when>
											<value>0.276037</value>
										</keyframe>
										<keyframe>
											<when>1187</when>
											<value>0.022934</value>
										</keyframe>
										<keyframe>
											<when>1214</when>
											<value>0</value>
										</keyframe>
										<keyframe>
											<when>1376</when>
											<value>1.23775</value>
										</keyframe>
										<keyframe>
											<when>1376</when>
											<value>0</value>
										</keyframe>
										<keyframe>
											<when>1447</when>
											<value>0.0239736</value>
										</keyframe>
										<keyframe>
											<when>1822</when>
											<value>0.149983</value>
										</keyframe>
										<keyframe>
											<when>1832</when>
											<value>0.72961</value>
										</keyframe>
										<keyframe>
											<when>1863</when>
											<value>0.72961</value>
										</keyframe>
										<keyframe>
											<when>1866</when>
											<value>0.233972</value>
										</keyframe>
										<keyframe>
											<when>1894</when>
											<value>0.01489</value>
										</keyframe>
										<keyframe>
											<when>1907</when>
											<value>0</value>
										</keyframe>
									</parameter>
								</effect>
							</filter>
							<filter>
								<effect>
									<name>Audio Pan</name>
									<effectid>audiopan</effectid>
									<effectcategory>audiopan</effectcategory>
									<effecttype>audiopan</effecttype>
									<mediatype>audio</mediatype>
									<parameter authoringApp="PremierePro">
										<parameterid>pan</parameterid>
										<name>Pan</name>
										<valuemin>-1</valuemin>
										<valuemax>1</valuemax>
										<value>0</value>
									</parameter>
								</effect>
							</filter>
						<link>
							<linkclipref>clipitem-604</linkclipref>
							<mediatype>audio</mediatype>
							<trackindex>8</trackindex>
							<clipindex>22</clipindex>
							<groupindex>1</groupindex>
						</link>
						<link>
							<linkclipref>clipitem-625</linkclipref>
							<mediatype>audio</mediatype>
							<trackindex>9</trackindex>
							<clipindex>22</clipindex>
							<groupindex>1</groupindex>
						</link>
					</clipitem>
					<clipitem id="clipitem-605" frameBlend="FALSE" PannerCurrentValue="0.5" PannerKeyframes="" PannerStartKeyframe="-91445760000000000,0.5,0,0,0,0,0,0" PannerIsInverted="true" PannerName="Balance">
						<masterclipid>masterclip-206</masterclipid>
						<name>NONRO197406CD0003 On the Run.wav</name>
						<enabled>TRUE</enabled>
						<duration>7109</duration>
						<rate>
							<ntsc>TRUE</ntsc>
							<timebase>30</timebase>
						</rate>
						<start>19140</start>
						<end>19792</end>
						<in>562</in>
						<out>1214</out>
						<file id="file-205"/>
						<sourcetrack>
							<mediatype>audio</mediatype>
							<trackindex>1</trackindex>
						</sourcetrack>
							<filter>
								<effect>
									<name>Gain</name>
									<effectid>{61756678, 4761696e, 4b657947}</effectid>
									<effecttype>filter</effecttype>
									<mediatype>audio</mediatype>
									<parameter authoringApp="PremierePro">
										<parameterid>Gain(dB)</parameterid>
										<name>Gain(dB)</name>
										<valuemin>-96</valuemin>
										<valuemax>96</valuemax>
										<value>-6</value>
									</parameter>
								</effect>
							</filter>
							<filter>
								<effect>
									<name>Audio Levels</name>
									<effectid>audiolevels</effectid>
									<effectcategory>audiolevels</effectcategory>
									<effecttype>audiolevels</effecttype>
									<mediatype>audio</mediatype>
									<parameter authoringApp="PremierePro">
										<parameterid>level</parameterid>
										<name>Level</name>
										<valuemin>0</valuemin>
										<valuemax>3.98109</valuemax>
										<value>0</value>
										<keyframe>
											<when>562</when>
											<value>0</value>
										</keyframe>
										<keyframe>
											<when>685</when>
											<value>0.337005</value>
										</keyframe>
										<keyframe>
											<when>1132</when>
											<value>0.276037</value>
										</keyframe>
										<keyframe>
											<when>1187</when>
											<value>0.022934</value>
										</keyframe>
										<keyframe>
											<when>1214</when>
											<value>0</value>
										</keyframe>
										<keyframe>
											<when>1376</when>
											<value>1.23775</value>
										</keyframe>
										<keyframe>
											<when>1376</when>
											<value>0</value>
										</keyframe>
										<keyframe>
											<when>1447</when>
											<value>0.0239736</value>
										</keyframe>
										<keyframe>
											<when>1822</when>
											<value>0.149983</value>
										</keyframe>
										<keyframe>
											<when>1832</when>
											<value>0.72961</value>
										</keyframe>
										<keyframe>
											<when>1863</when>
											<value>0.72961</value>
										</keyframe>
										<keyframe>
											<when>1866</when>
											<value>0.233972</value>
										</keyframe>
										<keyframe>
											<when>1894</when>
											<value>0.01489</value>
										</keyframe>
										<keyframe>
											<when>1907</when>
											<value>0</value>
										</keyframe>
									</parameter>
								</effect>
							</filter>
							<filter>
								<effect>
									<name>Audio Pan</name>
									<effectid>audiopan</effectid>
									<effectcategory>audiopan</effectcategory>
									<effecttype>audiopan</effecttype>
									<mediatype>audio</mediatype>
									<parameter authoringApp="PremierePro">
										<parameterid>pan</parameterid>
										<name>Pan</name>
										<valuemin>-1</valuemin>
										<valuemax>1</valuemax>
										<value>0</value>
									</parameter>
								</effect>
							</filter>
						<link>
							<linkclipref>clipitem-605</linkclipref>
							<mediatype>audio</mediatype>
							<trackindex>8</trackindex>
							<clipindex>23</clipindex>
							<groupindex>1</groupindex>
						</link>
						<link>
							<linkclipref>clipitem-626</linkclipref>
							<mediatype>audio</mediatype>
							<trackindex>9</trackindex>
							<clipindex>23</clipindex>
							<groupindex>1</groupindex>
						</link>
					</clipitem>
					<clipitem id="clipitem-606" frameBlend="FALSE" PannerCurrentValue="0.5" PannerKeyframes="" PannerStartKeyframe="-91445760000000000,0.5,0,0,0,0,0,0" PannerIsInverted="true" PannerName="Balance">
						<masterclipid>masterclip-207</masterclipid>
						<name>NONRT004980CD0008 Kamarinskaja.wav</name>
						<enabled>TRUE</enabled>
						<duration>11137</duration>
						<rate>
							<timebase>30</timebase>
							<ntsc>TRUE</ntsc>
						</rate>
						<start>34679</start>
						<end>-1</end>
						<in>118</in>
						<out>238</out>
						<file id="file-206">
							<name>NONRT004980CD0008 Kamarinskaja.wav</name>
							<pathurl>file://localhost/Volumes/Scenen/Prosjekter/FILM/FILM%20XX13%20Kjartan%20Opptak%20Russland%20Oktober%202013/Musikk/NONRT004980CD0008%20Kamarinskaja.wav</pathurl>
							<rate>
								<timebase>30</timebase>
								<ntsc>TRUE</ntsc>
							</rate>
							<duration>13351</duration>
							<timecode>
								<rate>
									<timebase>30</timebase>
									<ntsc>TRUE</ntsc>
								</rate>
								<string>00;00;00;00</string>
								<frame>0</frame>
								<displayformat>DF</displayformat>
							</timecode>
							<media>
								<audio>
									<samplecharacteristics>
										<depth>16</depth>
										<samplerate>48000</samplerate>
									</samplecharacteristics>
									<channelcount>2</channelcount>
								</audio>
							</media>
						</file>
						<sourcetrack>
							<mediatype>audio</mediatype>
							<trackindex>1</trackindex>
						</sourcetrack>
							<filter>
								<effect>
									<name>Gain</name>
									<effectid>{61756678, 4761696e, 4b657947}</effectid>
									<effecttype>filter</effecttype>
									<mediatype>audio</mediatype>
									<parameter authoringApp="PremierePro">
										<parameterid>Gain(dB)</parameterid>
										<name>Gain(dB)</name>
										<valuemin>-96</valuemin>
										<valuemax>96</valuemax>
										<value>3</value>
									</parameter>
								</effect>
							</filter>
							<filter>
								<effect>
									<name>Audio Levels</name>
									<effectid>audiolevels</effectid>
									<effectcategory>audiolevels</effectcategory>
									<effecttype>audiolevels</effecttype>
									<mediatype>audio</mediatype>
									<parameter authoringApp="PremierePro">
										<parameterid>level</parameterid>
										<name>Level</name>
										<valuemin>0</valuemin>
										<valuemax>3.98109</valuemax>
										<value>0.350137</value>
									</parameter>
								</effect>
							</filter>
							<filter>
								<effect>
									<name>Audio Pan</name>
									<effectid>audiopan</effectid>
									<effectcategory>audiopan</effectcategory>
									<effecttype>audiopan</effecttype>
									<mediatype>audio</mediatype>
									<parameter authoringApp="PremierePro">
										<parameterid>pan</parameterid>
										<name>Pan</name>
										<valuemin>-1</valuemin>
										<valuemax>1</valuemax>
										<value>0</value>
									</parameter>
								</effect>
							</filter>
						<link>
							<linkclipref>clipitem-606</linkclipref>
							<mediatype>audio</mediatype>
							<trackindex>8</trackindex>
							<clipindex>24</clipindex>
							<groupindex>1</groupindex>
						</link>
						<link>
							<linkclipref>clipitem-627</linkclipref>
							<mediatype>audio</mediatype>
							<trackindex>9</trackindex>
							<clipindex>24</clipindex>
							<groupindex>1</groupindex>
						</link>
					</clipitem>
					<transitionitem>
						<start>34762</start>
						<end>34799</end>
						<alignment>center</alignment>
						<cutPoint>18</cutPoint>
						<rate>
							<timebase>25</timebase>
							<ntsc>FALSE</ntsc>
						</rate>
						<effect>
							<name>Cross Fade (+3dB)</name>
							<effectid>KGAudioTransCrossFade3dB</effectid>
							<effecttype>transition</effecttype>
							<mediatype>audio</mediatype>
							<wipecode>0</wipecode>
							<wipeaccuracy>100</wipeaccuracy>
							<startratio>0</startratio>
							<endratio>1</endratio>
							<reverse>FALSE</reverse>
						</effect>
					</transitionitem>
					<clipitem id="clipitem-607" frameBlend="FALSE" PannerCurrentValue="0.5" PannerKeyframes="" PannerStartKeyframe="-91445760000000000,0.5,0,0,0,0,0,0" PannerIsInverted="true" PannerName="Balance">
						<masterclipid>masterclip-207</masterclipid>
						<name>NONRT004980CD0008 Kamarinskaja.wav</name>
						<enabled>TRUE</enabled>
						<duration>11137</duration>
						<rate>
							<ntsc>TRUE</ntsc>
							<timebase>30</timebase>
						</rate>
						<start>-1</start>
						<end>-1</end>
						<in>201</in>
						<out>668</out>
						<file id="file-206"/>
						<sourcetrack>
							<mediatype>audio</mediatype>
							<trackindex>1</trackindex>
						</sourcetrack>
							<filter>
								<effect>
									<name>Audio Levels</name>
									<effectid>audiolevels</effectid>
									<effectcategory>audiolevels</effectcategory>
									<effecttype>audiolevels</effecttype>
									<mediatype>audio</mediatype>
									<parameter authoringApp="PremierePro">
										<parameterid>level</parameterid>
										<name>Level</name>
										<valuemin>0</valuemin>
										<valuemax>3.98109</valuemax>
										<value>0.0641452</value>
									</parameter>
								</effect>
							</filter>
							<filter>
								<effect>
									<name>Audio Pan</name>
									<effectid>audiopan</effectid>
									<effectcategory>audiopan</effectcategory>
									<effecttype>audiopan</effecttype>
									<mediatype>audio</mediatype>
									<parameter authoringApp="PremierePro">
										<parameterid>pan</parameterid>
										<name>Pan</name>
										<valuemin>-1</valuemin>
										<valuemax>1</valuemax>
										<value>0</value>
									</parameter>
								</effect>
							</filter>
						<link>
							<linkclipref>clipitem-607</linkclipref>
							<mediatype>audio</mediatype>
							<trackindex>8</trackindex>
							<clipindex>26</clipindex>
							<groupindex>1</groupindex>
						</link>
						<link>
							<linkclipref>clipitem-628</linkclipref>
							<mediatype>audio</mediatype>
							<trackindex>9</trackindex>
							<clipindex>26</clipindex>
							<groupindex>1</groupindex>
						</link>
					</clipitem>
					<transitionitem>
						<start>35200</start>
						<end>35229</end>
						<alignment>center</alignment>
						<cutPoint>14</cutPoint>
						<rate>
							<timebase>25</timebase>
							<ntsc>FALSE</ntsc>
						</rate>
						<effect>
							<name>Cross Fade (+3dB)</name>
							<effectid>KGAudioTransCrossFade3dB</effectid>
							<effecttype>transition</effecttype>
							<mediatype>audio</mediatype>
							<wipecode>0</wipecode>
							<wipeaccuracy>100</wipeaccuracy>
							<startratio>0</startratio>
							<endratio>1</endratio>
							<reverse>FALSE</reverse>
						</effect>
					</transitionitem>
					<clipitem id="clipitem-608" frameBlend="FALSE" PannerCurrentValue="0.5" PannerKeyframes="" PannerStartKeyframe="-91445760000000000,0.5,0,0,0,0,0,0" PannerIsInverted="true" PannerName="Balance">
						<masterclipid>masterclip-207</masterclipid>
						<name>NONRT004980CD0008 Kamarinskaja.wav</name>
						<enabled>TRUE</enabled>
						<duration>11137</duration>
						<rate>
							<ntsc>TRUE</ntsc>
							<timebase>30</timebase>
						</rate>
						<start>-1</start>
						<end>35422</end>
						<in>639</in>
						<out>861</out>
						<file id="file-206"/>
						<sourcetrack>
							<mediatype>audio</mediatype>
							<trackindex>1</trackindex>
						</sourcetrack>
							<filter>
								<effect>
									<name>Audio Levels</name>
									<effectid>audiolevels</effectid>
									<effectcategory>audiolevels</effectcategory>
									<effecttype>audiolevels</effecttype>
									<mediatype>audio</mediatype>
									<parameter authoringApp="PremierePro">
										<parameterid>level</parameterid>
										<name>Level</name>
										<valuemin>0</valuemin>
										<valuemax>3.98109</valuemax>
										<value>0.0273147</value>
									</parameter>
								</effect>
							</filter>
							<filter>
								<effect>
									<name>Audio Pan</name>
									<effectid>audiopan</effectid>
									<effectcategory>audiopan</effectcategory>
									<effecttype>audiopan</effecttype>
									<mediatype>audio</mediatype>
									<parameter authoringApp="PremierePro">
										<parameterid>pan</parameterid>
										<name>Pan</name>
										<valuemin>-1</valuemin>
										<valuemax>1</valuemax>
										<value>0</value>
									</parameter>
								</effect>
							</filter>
						<link>
							<linkclipref>clipitem-608</linkclipref>
							<mediatype>audio</mediatype>
							<trackindex>8</trackindex>
							<clipindex>28</clipindex>
							<groupindex>1</groupindex>
						</link>
						<link>
							<linkclipref>clipitem-629</linkclipref>
							<mediatype>audio</mediatype>
							<trackindex>9</trackindex>
							<clipindex>28</clipindex>
							<groupindex>1</groupindex>
						</link>
					</clipitem>
					<clipitem id="clipitem-609" frameBlend="FALSE" PannerCurrentValue="0.5" PannerKeyframes="" PannerStartKeyframe="-91445760000000000,0.5,0,0,0,0,0,0" PannerIsInverted="true" PannerName="Balance">
						<masterclipid>masterclip-207</masterclipid>
						<name>NONRT004980CD0008 Kamarinskaja.wav</name>
						<enabled>TRUE</enabled>
						<duration>11137</duration>
						<rate>
							<ntsc>TRUE</ntsc>
							<timebase>30</timebase>
						</rate>
						<start>35779</start>
						<end>36723</end>
						<in>1113</in>
						<out>2057</out>
						<file id="file-206"/>
						<sourcetrack>
							<mediatype>audio</mediatype>
							<trackindex>1</trackindex>
						</sourcetrack>
							<filter>
								<effect>
									<name>Audio Levels</name>
									<effectid>audiolevels</effectid>
									<effectcategory>audiolevels</effectcategory>
									<effecttype>audiolevels</effecttype>
									<mediatype>audio</mediatype>
									<parameter authoringApp="PremierePro">
										<parameterid>level</parameterid>
										<name>Level</name>
										<valuemin>0</valuemin>
										<valuemax>3.98109</valuemax>
										<value>0.252469</value>
									</parameter>
								</effect>
							</filter>
							<filter>
								<effect>
									<name>Audio Pan</name>
									<effectid>audiopan</effectid>
									<effectcategory>audiopan</effectcategory>
									<effecttype>audiopan</effecttype>
									<mediatype>audio</mediatype>
									<parameter authoringApp="PremierePro">
										<parameterid>pan</parameterid>
										<name>Pan</name>
										<valuemin>-1</valuemin>
										<valuemax>1</valuemax>
										<value>0</value>
									</parameter>
								</effect>
							</filter>
						<link>
							<linkclipref>clipitem-609</linkclipref>
							<mediatype>audio</mediatype>
							<trackindex>8</trackindex>
							<clipindex>29</clipindex>
							<groupindex>1</groupindex>
						</link>
						<link>
							<linkclipref>clipitem-630</linkclipref>
							<mediatype>audio</mediatype>
							<trackindex>9</trackindex>
							<clipindex>29</clipindex>
							<groupindex>1</groupindex>
						</link>
					</clipitem>
					<clipitem id="clipitem-610" frameBlend="FALSE" PannerCurrentValue="0.5" PannerKeyframes="" PannerStartKeyframe="-91445760000000000,0.5,0,0,0,0,0,0" PannerIsInverted="true" PannerName="Balance">
						<masterclipid>masterclip-208</masterclipid>
						<name>Film Bonanza 2013 Rulletext Hammond.wav</name>
						<enabled>TRUE</enabled>
						<duration>1111</duration>
						<rate>
							<timebase>30</timebase>
							<ntsc>TRUE</ntsc>
						</rate>
						<start>42793</start>
						<end>-1</end>
						<in>0</in>
						<out>185</out>
						<file id="file-207">
							<name>Film Bonanza 2013 Rulletext Hammond.wav</name>
							<pathurl>file://localhost/Volumes/Scenen/Prosjekter/FILM/AA%20FILM%20Grafikk%20Premiere%20Pro%20haust%202013%20BW/Musikk/Ny%20Musikk%20fra%20Va%cc%8aren%202013/Uten%20Sax/Film%20Bonanza%202013%20Rulletext%20Hammond.wav</pathurl>
							<rate>
								<timebase>30</timebase>
								<ntsc>TRUE</ntsc>
							</rate>
							<duration>1332</duration>
							<timecode>
								<rate>
									<timebase>30</timebase>
									<ntsc>TRUE</ntsc>
								</rate>
								<string>00;00;00;00</string>
								<frame>0</frame>
								<displayformat>DF</displayformat>
							</timecode>
							<media>
								<audio>
									<samplecharacteristics>
										<depth>16</depth>
										<samplerate>48000</samplerate>
									</samplecharacteristics>
									<channelcount>2</channelcount>
								</audio>
							</media>
						</file>
						<sourcetrack>
							<mediatype>audio</mediatype>
							<trackindex>1</trackindex>
						</sourcetrack>
							<filter>
								<effect>
									<name>Audio Levels</name>
									<effectid>audiolevels</effectid>
									<effectcategory>audiolevels</effectcategory>
									<effecttype>audiolevels</effecttype>
									<mediatype>audio</mediatype>
									<parameter authoringApp="PremierePro">
										<parameterid>level</parameterid>
										<name>Level</name>
										<valuemin>0</valuemin>
										<valuemax>3.98109</valuemax>
										<value>0.264432</value>
									</parameter>
								</effect>
							</filter>
							<filter>
								<effect>
									<name>Audio Pan</name>
									<effectid>audiopan</effectid>
									<effectcategory>audiopan</effectcategory>
									<effecttype>audiopan</effecttype>
									<mediatype>audio</mediatype>
									<parameter authoringApp="PremierePro">
										<parameterid>pan</parameterid>
										<name>Pan</name>
										<valuemin>-1</valuemin>
										<valuemax>1</valuemax>
										<value>0</value>
									</parameter>
								</effect>
							</filter>
						<link>
							<linkclipref>clipitem-610</linkclipref>
							<mediatype>audio</mediatype>
							<trackindex>8</trackindex>
							<clipindex>30</clipindex>
							<groupindex>1</groupindex>
						</link>
						<link>
							<linkclipref>clipitem-631</linkclipref>
							<mediatype>audio</mediatype>
							<trackindex>9</trackindex>
							<clipindex>30</clipindex>
							<groupindex>1</groupindex>
						</link>
					</clipitem>
					<transitionitem>
						<start>42953</start>
						<end>42978</end>
						<alignment>center</alignment>
						<cutPoint>12</cutPoint>
						<rate>
							<timebase>25</timebase>
							<ntsc>FALSE</ntsc>
						</rate>
						<effect>
							<name>Cross Fade (+3dB)</name>
							<effectid>KGAudioTransCrossFade3dB</effectid>
							<effecttype>transition</effecttype>
							<mediatype>audio</mediatype>
							<wipecode>0</wipecode>
							<wipeaccuracy>100</wipeaccuracy>
							<startratio>0</startratio>
							<endratio>1</endratio>
							<reverse>FALSE</reverse>
						</effect>
					</transitionitem>
					<clipitem id="clipitem-611" frameBlend="FALSE" PannerCurrentValue="0.5" PannerKeyframes="" PannerStartKeyframe="-91445760000000000,0.5,0,0,0,0,0,0" PannerIsInverted="true" PannerName="Balance">
						<masterclipid>masterclip-208</masterclipid>
						<name>Film Bonanza 2013 Rulletext Hammond.wav</name>
						<enabled>TRUE</enabled>
						<duration>1111</duration>
						<rate>
							<ntsc>TRUE</ntsc>
							<timebase>30</timebase>
						</rate>
						<start>-1</start>
						<end>-1</end>
						<in>160</in>
						<out>437</out>
						<file id="file-207"/>
						<sourcetrack>
							<mediatype>audio</mediatype>
							<trackindex>1</trackindex>
						</sourcetrack>
							<filter>
								<effect>
									<name>Audio Levels</name>
									<effectid>audiolevels</effectid>
									<effectcategory>audiolevels</effectcategory>
									<effecttype>audiolevels</effecttype>
									<mediatype>audio</mediatype>
									<parameter authoringApp="PremierePro">
										<parameterid>level</parameterid>
										<name>Level</name>
										<valuemin>0</valuemin>
										<valuemax>3.98109</valuemax>
										<value>0.132216</value>
									</parameter>
								</effect>
							</filter>
							<filter>
								<effect>
									<name>Audio Pan</name>
									<effectid>audiopan</effectid>
									<effectcategory>audiopan</effectcategory>
									<effecttype>audiopan</effecttype>
									<mediatype>audio</mediatype>
									<parameter authoringApp="PremierePro">
										<parameterid>pan</parameterid>
										<name>Pan</name>
										<valuemin>-1</valuemin>
										<valuemax>1</valuemax>
										<value>0</value>
									</parameter>
								</effect>
							</filter>
						<link>
							<linkclipref>clipitem-611</linkclipref>
							<mediatype>audio</mediatype>
							<trackindex>8</trackindex>
							<clipindex>32</clipindex>
							<groupindex>1</groupindex>
						</link>
						<link>
							<linkclipref>clipitem-632</linkclipref>
							<mediatype>audio</mediatype>
							<trackindex>9</trackindex>
							<clipindex>32</clipindex>
							<groupindex>1</groupindex>
						</link>
					</clipitem>
					<transitionitem>
						<start>43205</start>
						<end>43230</end>
						<alignment>center</alignment>
						<cutPoint>12</cutPoint>
						<rate>
							<timebase>25</timebase>
							<ntsc>FALSE</ntsc>
						</rate>
						<effect>
							<name>Cross Fade (+3dB)</name>
							<effectid>KGAudioTransCrossFade3dB</effectid>
							<effecttype>transition</effecttype>
							<mediatype>audio</mediatype>
							<wipecode>0</wipecode>
							<wipeaccuracy>100</wipeaccuracy>
							<startratio>0</startratio>
							<endratio>1</endratio>
							<reverse>FALSE</reverse>
						</effect>
					</transitionitem>
					<clipitem id="clipitem-612" frameBlend="FALSE" PannerCurrentValue="0.5" PannerKeyframes="" PannerStartKeyframe="-91445760000000000,0.5,0,0,0,0,0,0" PannerIsInverted="true" PannerName="Balance">
						<masterclipid>masterclip-208</masterclipid>
						<name>Film Bonanza 2013 Rulletext Hammond.wav</name>
						<enabled>FALSE</enabled>
						<duration>1111</duration>
						<rate>
							<ntsc>TRUE</ntsc>
							<timebase>30</timebase>
						</rate>
						<start>-1</start>
						<end>43410</end>
						<in>412</in>
						<out>617</out>
						<file id="file-207"/>
						<sourcetrack>
							<mediatype>audio</mediatype>
							<trackindex>1</trackindex>
						</sourcetrack>
							<filter>
								<effect>
									<name>Gain</name>
									<effectid>{61756678, 4761696e, 4b657947}</effectid>
									<effecttype>filter</effecttype>
									<mediatype>audio</mediatype>
									<parameter authoringApp="PremierePro">
										<parameterid>Gain(dB)</parameterid>
										<name>Gain(dB)</name>
										<valuemin>-96</valuemin>
										<valuemax>96</valuemax>
										<value>-9</value>
									</parameter>
								</effect>
							</filter>
							<filter>
								<effect>
									<name>Audio Pan</name>
									<effectid>audiopan</effectid>
									<effectcategory>audiopan</effectcategory>
									<effecttype>audiopan</effecttype>
									<mediatype>audio</mediatype>
									<parameter authoringApp="PremierePro">
										<parameterid>pan</parameterid>
										<name>Pan</name>
										<valuemin>-1</valuemin>
										<valuemax>1</valuemax>
										<value>0</value>
									</parameter>
								</effect>
							</filter>
						<link>
							<linkclipref>clipitem-612</linkclipref>
							<mediatype>audio</mediatype>
							<trackindex>8</trackindex>
							<clipindex>34</clipindex>
							<groupindex>1</groupindex>
						</link>
						<link>
							<linkclipref>clipitem-633</linkclipref>
							<mediatype>audio</mediatype>
							<trackindex>9</trackindex>
							<clipindex>34</clipindex>
							<groupindex>1</groupindex>
						</link>
					</clipitem>
					<enabled>TRUE</enabled>
					<locked>FALSE</locked>
					<outputchannelindex>2</outputchannelindex>
				</track>
				<track TL.SQTrackAudioKeyframeStyle="0" TL.SQTrackShy="0" TL.SQTrackExpandedHeight="95" TL.SQTrackExpanded="1" MZ.TrackTargeted="1" MZ.TrackName="Musikk" PannerCurrentValue="0.5" PannerIsInverted="true" PannerKeyframes="22282198848000,0.5,0,0,0,0.16666666666666665741480812812,0,0.16666666666666665741480812812;26215721280000,0.5,0,0,0,0.16666666666666665741480812812,0,0.16666666666666665741480812812;82626239808000,0.5,0,0,0,0.16666666666666665741480812812,0,0.16666666666666665741480812812;90655770240000,0.5,0,0,0,0.16666666666666665741480812812,0,0.16666666666666665741480812812;" PannerStartKeyframe="-91445760000000000,0.5,0,0,0,0,0,0" PannerName="Balance" currentExplodedTrackIndex="1" totalExplodedTrackCount="2" premiereTrackType="Stereo">
					<clipitem id="clipitem-613" frameBlend="FALSE" PannerCurrentValue="0.5" PannerKeyframes="" PannerStartKeyframe="-91445760000000000,0.5,0,0,0,0,0,0" PannerIsInverted="true" PannerName="Balance">
						<masterclipid>masterclip-34</masterclipid>
						<name>Kulturstripa_master.mov</name>
						<enabled>TRUE</enabled>
						<duration>101</duration>
						<rate>
							<ntsc>TRUE</ntsc>
							<timebase>30</timebase>
						</rate>
						<start>0</start>
						<end>-1</end>
						<in>0</in>
						<out>91</out>
						<file id="file-34"/>
						<sourcetrack>
							<mediatype>audio</mediatype>
							<trackindex>2</trackindex>
						</sourcetrack>
							<filter>
								<effect>
									<name>Audio Pan</name>
									<effectid>audiopan</effectid>
									<effectcategory>audiopan</effectcategory>
									<effecttype>audiopan</effecttype>
									<mediatype>audio</mediatype>
									<parameter authoringApp="PremierePro">
										<parameterid>pan</parameterid>
										<name>Pan</name>
										<valuemin>-1</valuemin>
										<valuemax>1</valuemax>
										<value>0</value>
									</parameter>
								</effect>
							</filter>
						<link>
							<linkclipref>clipitem-152</linkclipref>
							<mediatype>video</mediatype>
							<trackindex>3</trackindex>
							<clipindex>1</clipindex>
						</link>
						<link>
							<linkclipref>clipitem-592</linkclipref>
							<mediatype>audio</mediatype>
							<trackindex>8</trackindex>
							<clipindex>1</clipindex>
							<groupindex>1</groupindex>
						</link>
						<link>
							<linkclipref>clipitem-613</linkclipref>
							<mediatype>audio</mediatype>
							<trackindex>9</trackindex>
							<clipindex>1</clipindex>
							<groupindex>1</groupindex>
						</link>
					</clipitem>
					<transitionitem>
						<start>67</start>
						<end>91</end>
						<alignment>center</alignment>
						<cutPoint>11</cutPoint>
						<rate>
							<timebase>25</timebase>
							<ntsc>FALSE</ntsc>
						</rate>
						<effect>
							<name>Cross Fade (+3dB)</name>
							<effectid>KGAudioTransCrossFade3dB</effectid>
							<effecttype>transition</effecttype>
							<mediatype>audio</mediatype>
							<wipecode>0</wipecode>
							<wipeaccuracy>100</wipeaccuracy>
							<startratio>0</startratio>
							<endratio>1</endratio>
							<reverse>FALSE</reverse>
						</effect>
					</transitionitem>
					<clipitem id="clipitem-614" frameBlend="FALSE" PannerCurrentValue="0.5" PannerKeyframes="" PannerStartKeyframe="-91445760000000000,0.5,0,0,0,0,0,0" PannerIsInverted="true" PannerName="Balance">
						<masterclipid>masterclip-202</masterclipid>
						<name>FB Generell Bakgrunn.aif</name>
						<enabled>TRUE</enabled>
						<duration>1148</duration>
						<rate>
							<ntsc>TRUE</ntsc>
							<timebase>30</timebase>
						</rate>
						<start>-1</start>
						<end>352</end>
						<in>0</in>
						<out>285</out>
						<file id="file-201"/>
						<sourcetrack>
							<mediatype>audio</mediatype>
							<trackindex>2</trackindex>
						</sourcetrack>
							<filter>
								<effect>
									<name>Audio Levels</name>
									<effectid>audiolevels</effectid>
									<effectcategory>audiolevels</effectcategory>
									<effecttype>audiolevels</effecttype>
									<mediatype>audio</mediatype>
									<parameter authoringApp="PremierePro">
										<parameterid>level</parameterid>
										<name>Level</name>
										<valuemin>0</valuemin>
										<valuemax>3.98109</valuemax>
										<value>0</value>
										<keyframe>
											<when>210</when>
											<value>0.12133</value>
										</keyframe>
										<keyframe>
											<when>226</when>
											<value>0</value>
										</keyframe>
										<keyframe>
											<when>350</when>
											<value>0</value>
										</keyframe>
										<keyframe>
											<when>361</when>
											<value>0.157107</value>
										</keyframe>
									</parameter>
								</effect>
							</filter>
							<filter>
								<effect>
									<name>Audio Pan</name>
									<effectid>audiopan</effectid>
									<effectcategory>audiopan</effectcategory>
									<effecttype>audiopan</effecttype>
									<mediatype>audio</mediatype>
									<parameter authoringApp="PremierePro">
										<parameterid>pan</parameterid>
										<name>Pan</name>
										<valuemin>-1</valuemin>
										<valuemax>1</valuemax>
										<value>0</value>
									</parameter>
								</effect>
							</filter>
						<link>
							<linkclipref>clipitem-593</linkclipref>
							<mediatype>audio</mediatype>
							<trackindex>8</trackindex>
							<clipindex>3</clipindex>
							<groupindex>1</groupindex>
						</link>
						<link>
							<linkclipref>clipitem-614</linkclipref>
							<mediatype>audio</mediatype>
							<trackindex>9</trackindex>
							<clipindex>3</clipindex>
							<groupindex>1</groupindex>
						</link>
					</clipitem>
					<clipitem id="clipitem-615" frameBlend="FALSE" PannerCurrentValue="0.5" PannerKeyframes="" PannerStartKeyframe="-91445760000000000,0.5,0,0,0,0,0,0" PannerIsInverted="true" PannerName="Balance">
						<masterclipid>masterclip-202</masterclipid>
						<name>FB Generell Bakgrunn.aif</name>
						<enabled>TRUE</enabled>
						<duration>1148</duration>
						<rate>
							<ntsc>TRUE</ntsc>
							<timebase>30</timebase>
						</rate>
						<start>429</start>
						<end>589</end>
						<in>313</in>
						<out>473</out>
						<file id="file-201"/>
						<sourcetrack>
							<mediatype>audio</mediatype>
							<trackindex>2</trackindex>
						</sourcetrack>
							<filter>
								<effect>
									<name>Audio Levels</name>
									<effectid>audiolevels</effectid>
									<effectcategory>audiolevels</effectcategory>
									<effecttype>audiolevels</effecttype>
									<mediatype>audio</mediatype>
									<parameter authoringApp="PremierePro">
										<parameterid>level</parameterid>
										<name>Level</name>
										<valuemin>0</valuemin>
										<valuemax>3.98109</valuemax>
										<value>0.0347749</value>
										<keyframe>
											<when>210</when>
											<value>0.12133</value>
										</keyframe>
										<keyframe>
											<when>226</when>
											<value>0</value>
										</keyframe>
										<keyframe>
											<when>285</when>
											<value>0</value>
										</keyframe>
										<keyframe>
											<when>296</when>
											<value>0.125686</value>
										</keyframe>
										<keyframe>
											<when>313</when>
											<value>0</value>
										</keyframe>
										<keyframe>
											<when>321</when>
											<value>0</value>
										</keyframe>
										<keyframe>
											<when>365</when>
											<value>0.109975</value>
										</keyframe>
										<keyframe>
											<when>381</when>
											<value>0.125686</value>
										</keyframe>
										<keyframe>
											<when>393</when>
											<value>0</value>
										</keyframe>
										<keyframe>
											<when>415</when>
											<value>0.157107</value>
										</keyframe>
										<keyframe>
											<when>444</when>
											<value>0.157107</value>
										</keyframe>
										<keyframe>
											<when>460</when>
											<value>0</value>
										</keyframe>
									</parameter>
								</effect>
							</filter>
							<filter>
								<effect>
									<name>Audio Pan</name>
									<effectid>audiopan</effectid>
									<effectcategory>audiopan</effectcategory>
									<effecttype>audiopan</effecttype>
									<mediatype>audio</mediatype>
									<parameter authoringApp="PremierePro">
										<parameterid>pan</parameterid>
										<name>Pan</name>
										<valuemin>-1</valuemin>
										<valuemax>1</valuemax>
										<value>0</value>
									</parameter>
								</effect>
							</filter>
						<link>
							<linkclipref>clipitem-594</linkclipref>
							<mediatype>audio</mediatype>
							<trackindex>8</trackindex>
							<clipindex>4</clipindex>
							<groupindex>1</groupindex>
						</link>
						<link>
							<linkclipref>clipitem-615</linkclipref>
							<mediatype>audio</mediatype>
							<trackindex>9</trackindex>
							<clipindex>4</clipindex>
							<groupindex>1</groupindex>
						</link>
					</clipitem>
					<clipitem id="clipitem-616" frameBlend="FALSE" PannerCurrentValue="0.5" PannerKeyframes="" PannerStartKeyframe="-91445760000000000,0.5,0,0,0,0,0,0" PannerIsInverted="true" PannerName="Balance">
						<masterclipid>masterclip-39</masterclipid>
						<name>Vignett vår 2013 merged.mov</name>
						<enabled>TRUE</enabled>
						<duration>881</duration>
						<rate>
							<ntsc>TRUE</ntsc>
							<timebase>30</timebase>
						</rate>
						<start>730</start>
						<end>-1</end>
						<in>0</in>
						<out>596</out>
						<file id="file-39"/>
						<sourcetrack>
							<mediatype>audio</mediatype>
							<trackindex>2</trackindex>
						</sourcetrack>
							<filter>
								<effect>
									<name>Audio Pan</name>
									<effectid>audiopan</effectid>
									<effectcategory>audiopan</effectcategory>
									<effecttype>audiopan</effecttype>
									<mediatype>audio</mediatype>
									<parameter authoringApp="PremierePro">
										<parameterid>pan</parameterid>
										<name>Pan</name>
										<valuemin>-1</valuemin>
										<valuemax>1</valuemax>
										<value>0</value>
									</parameter>
								</effect>
							</filter>
						<link>
							<linkclipref>clipitem-158</linkclipref>
							<mediatype>video</mediatype>
							<trackindex>3</trackindex>
							<clipindex>7</clipindex>
						</link>
						<link>
							<linkclipref>clipitem-595</linkclipref>
							<mediatype>audio</mediatype>
							<trackindex>8</trackindex>
							<clipindex>5</clipindex>
							<groupindex>1</groupindex>
						</link>
						<link>
							<linkclipref>clipitem-616</linkclipref>
							<mediatype>audio</mediatype>
							<trackindex>9</trackindex>
							<clipindex>5</clipindex>
							<groupindex>1</groupindex>
						</link>
					</clipitem>
					<transitionitem>
						<start>1263</start>
						<end>1326</end>
						<alignment>center</alignment>
						<cutPoint>31</cutPoint>
						<rate>
							<timebase>25</timebase>
							<ntsc>FALSE</ntsc>
						</rate>
						<effect>
							<name>Cross Fade (+3dB)</name>
							<effectid>KGAudioTransCrossFade3dB</effectid>
							<effecttype>transition</effecttype>
							<mediatype>audio</mediatype>
							<wipecode>0</wipecode>
							<wipeaccuracy>100</wipeaccuracy>
							<startratio>0</startratio>
							<endratio>1</endratio>
							<reverse>FALSE</reverse>
						</effect>
					</transitionitem>
					<clipitem id="clipitem-617" frameBlend="FALSE" PannerCurrentValue="0.5" PannerKeyframes="" PannerStartKeyframe="-91445760000000000,0.5,0,0,0,0,0,0" PannerIsInverted="true" PannerName="Balance">
						<masterclipid>masterclip-39</masterclipid>
						<name>Vignett vår 2013 merged.mov</name>
						<enabled>TRUE</enabled>
						<duration>881</duration>
						<rate>
							<ntsc>TRUE</ntsc>
							<timebase>30</timebase>
						</rate>
						<start>-1</start>
						<end>-1</end>
						<in>533</in>
						<out>743</out>
						<file id="file-39"/>
						<sourcetrack>
							<mediatype>audio</mediatype>
							<trackindex>2</trackindex>
						</sourcetrack>
							<filter>
								<effect>
									<name>Audio Levels</name>
									<effectid>audiolevels</effectid>
									<effectcategory>audiolevels</effectcategory>
									<effecttype>audiolevels</effecttype>
									<mediatype>audio</mediatype>
									<parameter authoringApp="PremierePro">
										<parameterid>level</parameterid>
										<name>Level</name>
										<valuemin>0</valuemin>
										<valuemax>3.98109</valuemax>
										<value>0.187056</value>
										<keyframe>
											<when>612</when>
											<value>0.187056</value>
										</keyframe>
									</parameter>
								</effect>
							</filter>
							<filter>
								<effect>
									<name>Audio Pan</name>
									<effectid>audiopan</effectid>
									<effectcategory>audiopan</effectcategory>
									<effecttype>audiopan</effecttype>
									<mediatype>audio</mediatype>
									<parameter authoringApp="PremierePro">
										<parameterid>pan</parameterid>
										<name>Pan</name>
										<valuemin>-1</valuemin>
										<valuemax>1</valuemax>
										<value>0</value>
									</parameter>
								</effect>
							</filter>
						<link>
							<linkclipref>clipitem-596</linkclipref>
							<mediatype>audio</mediatype>
							<trackindex>8</trackindex>
							<clipindex>7</clipindex>
							<groupindex>1</groupindex>
						</link>
						<link>
							<linkclipref>clipitem-617</linkclipref>
							<mediatype>audio</mediatype>
							<trackindex>9</trackindex>
							<clipindex>7</clipindex>
							<groupindex>1</groupindex>
						</link>
					</clipitem>
					<transitionitem>
						<start>1410</start>
						<end>1473</end>
						<alignment>end-black</alignment>
						<cutPoint>63</cutPoint>
						<rate>
							<timebase>25</timebase>
							<ntsc>FALSE</ntsc>
						</rate>
						<effect>
							<name>Cross Fade (+3dB)</name>
							<effectid>KGAudioTransCrossFade3dB</effectid>
							<effecttype>transition</effecttype>
							<mediatype>audio</mediatype>
							<wipecode>0</wipecode>
							<wipeaccuracy>100</wipeaccuracy>
							<startratio>0</startratio>
							<endratio>1</endratio>
							<reverse>FALSE</reverse>
						</effect>
					</transitionitem>
					<clipitem id="clipitem-618" frameBlend="FALSE" PannerCurrentValue="0.5" PannerKeyframes="" PannerStartKeyframe="-91445760000000000,0.5,0,0,0,0,0,0" PannerIsInverted="true" PannerName="Balance">
						<masterclipid>masterclip-203</masterclipid>
						<name>The Birth of A Nation [ 1_4 ]. Music by Joseph Carl Breil.mp4</name>
						<enabled>TRUE</enabled>
						<duration>6124</duration>
						<rate>
							<ntsc>TRUE</ntsc>
							<timebase>30</timebase>
						</rate>
						<start>1743</start>
						<end>-1</end>
						<in>9</in>
						<out>187</out>
						<file id="file-202"/>
						<sourcetrack>
							<mediatype>audio</mediatype>
							<trackindex>2</trackindex>
						</sourcetrack>
							<filter>
								<effect>
									<name>Audio Levels</name>
									<effectid>audiolevels</effectid>
									<effectcategory>audiolevels</effectcategory>
									<effecttype>audiolevels</effecttype>
									<mediatype>audio</mediatype>
									<parameter authoringApp="PremierePro">
										<parameterid>level</parameterid>
										<name>Level</name>
										<valuemin>0</valuemin>
										<valuemax>3.98109</valuemax>
										<value>1.48922</value>
									</parameter>
								</effect>
							</filter>
							<filter>
								<effect>
									<name>Audio Pan</name>
									<effectid>audiopan</effectid>
									<effectcategory>audiopan</effectcategory>
									<effecttype>audiopan</effecttype>
									<mediatype>audio</mediatype>
									<parameter authoringApp="PremierePro">
										<parameterid>pan</parameterid>
										<name>Pan</name>
										<valuemin>-1</valuemin>
										<valuemax>1</valuemax>
										<value>0</value>
									</parameter>
								</effect>
							</filter>
						<link>
							<linkclipref>clipitem-597</linkclipref>
							<mediatype>audio</mediatype>
							<trackindex>8</trackindex>
							<clipindex>9</clipindex>
							<groupindex>1</groupindex>
						</link>
						<link>
							<linkclipref>clipitem-618</linkclipref>
							<mediatype>audio</mediatype>
							<trackindex>9</trackindex>
							<clipindex>9</clipindex>
							<groupindex>1</groupindex>
						</link>
					</clipitem>
					<transitionitem>
						<start>1917</start>
						<end>1921</end>
						<alignment>center</alignment>
						<cutPoint>2</cutPoint>
						<rate>
							<timebase>25</timebase>
							<ntsc>FALSE</ntsc>
						</rate>
						<effect>
							<name>Cross Fade (+3dB)</name>
							<effectid>KGAudioTransCrossFade3dB</effectid>
							<effecttype>transition</effecttype>
							<mediatype>audio</mediatype>
							<wipecode>0</wipecode>
							<wipeaccuracy>100</wipeaccuracy>
							<startratio>0</startratio>
							<endratio>1</endratio>
							<reverse>FALSE</reverse>
						</effect>
					</transitionitem>
					<clipitem id="clipitem-619" frameBlend="FALSE" PannerCurrentValue="0.5" PannerKeyframes="" PannerStartKeyframe="-91445760000000000,0.5,0,0,0,0,0,0" PannerIsInverted="true" PannerName="Balance">
						<masterclipid>masterclip-203</masterclipid>
						<name>The Birth of A Nation [ 1_4 ]. Music by Joseph Carl Breil.mp4</name>
						<enabled>TRUE</enabled>
						<duration>6124</duration>
						<rate>
							<ntsc>TRUE</ntsc>
							<timebase>30</timebase>
						</rate>
						<start>-1</start>
						<end>-1</end>
						<in>183</in>
						<out>460</out>
						<file id="file-202"/>
						<sourcetrack>
							<mediatype>audio</mediatype>
							<trackindex>2</trackindex>
						</sourcetrack>
							<filter>
								<effect>
									<name>Audio Levels</name>
									<effectid>audiolevels</effectid>
									<effectcategory>audiolevels</effectcategory>
									<effecttype>audiolevels</effecttype>
									<mediatype>audio</mediatype>
									<parameter authoringApp="PremierePro">
										<parameterid>level</parameterid>
										<name>Level</name>
										<valuemin>0</valuemin>
										<valuemax>3.98109</valuemax>
										<value>0.756277</value>
									</parameter>
								</effect>
							</filter>
							<filter>
								<effect>
									<name>Audio Pan</name>
									<effectid>audiopan</effectid>
									<effectcategory>audiopan</effectcategory>
									<effecttype>audiopan</effecttype>
									<mediatype>audio</mediatype>
									<parameter authoringApp="PremierePro">
										<parameterid>pan</parameterid>
										<name>Pan</name>
										<valuemin>-1</valuemin>
										<valuemax>1</valuemax>
										<value>0</value>
									</parameter>
								</effect>
							</filter>
						<link>
							<linkclipref>clipitem-598</linkclipref>
							<mediatype>audio</mediatype>
							<trackindex>8</trackindex>
							<clipindex>11</clipindex>
							<groupindex>1</groupindex>
						</link>
						<link>
							<linkclipref>clipitem-619</linkclipref>
							<mediatype>audio</mediatype>
							<trackindex>9</trackindex>
							<clipindex>11</clipindex>
							<groupindex>1</groupindex>
						</link>
					</clipitem>
					<transitionitem>
						<start>2124</start>
						<end>2194</end>
						<alignment>end-black</alignment>
						<cutPoint>70</cutPoint>
						<rate>
							<timebase>25</timebase>
							<ntsc>FALSE</ntsc>
						</rate>
						<effect>
							<name>Cross Fade (+3dB)</name>
							<effectid>KGAudioTransCrossFade3dB</effectid>
							<effecttype>transition</effecttype>
							<mediatype>audio</mediatype>
							<wipecode>0</wipecode>
							<wipeaccuracy>100</wipeaccuracy>
							<startratio>0</startratio>
							<endratio>1</endratio>
							<reverse>FALSE</reverse>
						</effect>
					</transitionitem>
					<transitionitem>
						<start>2983</start>
						<end>3008</end>
						<alignment>start-black</alignment>
						<cutPoint>0</cutPoint>
						<rate>
							<timebase>25</timebase>
							<ntsc>FALSE</ntsc>
						</rate>
						<effect>
							<name>Cross Fade (+3dB)</name>
							<effectid>KGAudioTransCrossFade3dB</effectid>
							<effecttype>transition</effecttype>
							<mediatype>audio</mediatype>
							<wipecode>0</wipecode>
							<wipeaccuracy>100</wipeaccuracy>
							<startratio>0</startratio>
							<endratio>1</endratio>
							<reverse>FALSE</reverse>
						</effect>
					</transitionitem>
					<clipitem id="clipitem-620" frameBlend="FALSE" PannerCurrentValue="0.5" PannerKeyframes="" PannerStartKeyframe="-91445760000000000,0.5,0,0,0,0,0,0" PannerIsInverted="true" PannerName="Balance">
						<masterclipid>masterclip-204</masterclipid>
						<name>NONRO199063CD0002 The Vintner's Daughter, op. 23.wav</name>
						<enabled>TRUE</enabled>
						<duration>25141</duration>
						<rate>
							<ntsc>TRUE</ntsc>
							<timebase>30</timebase>
						</rate>
						<start>-1</start>
						<end>-1</end>
						<in>7720</in>
						<out>8526</out>
						<file id="file-203"/>
						<sourcetrack>
							<mediatype>audio</mediatype>
							<trackindex>2</trackindex>
						</sourcetrack>
							<filter>
								<effect>
									<name>Audio Levels</name>
									<effectid>audiolevels</effectid>
									<effectcategory>audiolevels</effectcategory>
									<effecttype>audiolevels</effecttype>
									<mediatype>audio</mediatype>
									<parameter authoringApp="PremierePro">
										<parameterid>level</parameterid>
										<name>Level</name>
										<valuemin>0</valuemin>
										<valuemax>3.98109</valuemax>
										<value>0.434864</value>
										<keyframe>
											<when>7856</when>
											<value>0.808299</value>
										</keyframe>
										<keyframe>
											<when>7861</when>
											<value>0.247276</value>
										</keyframe>
										<keyframe>
											<when>8068</when>
											<value>0.247276</value>
										</keyframe>
										<keyframe>
											<when>8100</when>
											<value>0.792988</value>
										</keyframe>
										<keyframe>
											<when>8120</when>
											<value>0.792988</value>
										</keyframe>
										<keyframe>
											<when>8125</when>
											<value>0.434864</value>
										</keyframe>
									</parameter>
								</effect>
							</filter>
							<filter>
								<effect>
									<name>Audio Pan</name>
									<effectid>audiopan</effectid>
									<effectcategory>audiopan</effectcategory>
									<effecttype>audiopan</effecttype>
									<mediatype>audio</mediatype>
									<parameter authoringApp="PremierePro">
										<parameterid>pan</parameterid>
										<name>Pan</name>
										<valuemin>-1</valuemin>
										<valuemax>1</valuemax>
										<value>0</value>
									</parameter>
								</effect>
							</filter>
						<link>
							<linkclipref>clipitem-599</linkclipref>
							<mediatype>audio</mediatype>
							<trackindex>8</trackindex>
							<clipindex>14</clipindex>
							<groupindex>1</groupindex>
						</link>
						<link>
							<linkclipref>clipitem-620</linkclipref>
							<mediatype>audio</mediatype>
							<trackindex>9</trackindex>
							<clipindex>14</clipindex>
							<groupindex>1</groupindex>
						</link>
					</clipitem>
					<transitionitem>
						<start>3764</start>
						<end>3789</end>
						<alignment>end-black</alignment>
						<cutPoint>25</cutPoint>
						<rate>
							<timebase>25</timebase>
							<ntsc>FALSE</ntsc>
						</rate>
						<effect>
							<name>Cross Fade (+3dB)</name>
							<effectid>KGAudioTransCrossFade3dB</effectid>
							<effecttype>transition</effecttype>
							<mediatype>audio</mediatype>
							<wipecode>0</wipecode>
							<wipeaccuracy>100</wipeaccuracy>
							<startratio>0</startratio>
							<endratio>1</endratio>
							<reverse>FALSE</reverse>
						</effect>
					</transitionitem>
					<clipitem id="clipitem-621" frameBlend="FALSE" PannerCurrentValue="0.5" PannerKeyframes="" PannerStartKeyframe="-91445760000000000,0.5,0,0,0,0,0,0" PannerIsInverted="true" PannerName="Balance">
						<masterclipid>masterclip-59</masterclipid>
						<name>Titanic</name>
						<enabled>TRUE</enabled>
						<duration>1458</duration>
						<rate>
							<ntsc>TRUE</ntsc>
							<timebase>30</timebase>
						</rate>
						<start>9633</start>
						<end>-1</end>
						<in>224</in>
						<out>496</out>
						<file id="file-59"/>
						<sourcetrack>
							<mediatype>audio</mediatype>
							<trackindex>2</trackindex>
						</sourcetrack>
							<filter>
								<effect>
									<name>Gain</name>
									<effectid>{61756678, 4761696e, 4b657947}</effectid>
									<effecttype>filter</effecttype>
									<mediatype>audio</mediatype>
									<parameter authoringApp="PremierePro">
										<parameterid>Gain(dB)</parameterid>
										<name>Gain(dB)</name>
										<valuemin>-96</valuemin>
										<valuemax>96</valuemax>
										<value>-4</value>
									</parameter>
								</effect>
							</filter>
							<filter>
								<effect>
									<name>Audio Levels</name>
									<effectid>audiolevels</effectid>
									<effectcategory>audiolevels</effectcategory>
									<effecttype>audiolevels</effecttype>
									<mediatype>audio</mediatype>
									<parameter authoringApp="PremierePro">
										<parameterid>level</parameterid>
										<name>Level</name>
										<valuemin>0</valuemin>
										<valuemax>3.98109</valuemax>
										<value>0.650628</value>
									</parameter>
								</effect>
							</filter>
							<filter>
								<effect>
									<name>Audio Pan</name>
									<effectid>audiopan</effectid>
									<effectcategory>audiopan</effectcategory>
									<effecttype>audiopan</effecttype>
									<mediatype>audio</mediatype>
									<parameter authoringApp="PremierePro">
										<parameterid>pan</parameterid>
										<name>Pan</name>
										<valuemin>-1</valuemin>
										<valuemax>1</valuemax>
										<value>0</value>
									</parameter>
								</effect>
							</filter>
						<link>
							<linkclipref>clipitem-600</linkclipref>
							<mediatype>audio</mediatype>
							<trackindex>8</trackindex>
							<clipindex>16</clipindex>
							<groupindex>1</groupindex>
						</link>
						<link>
							<linkclipref>clipitem-621</linkclipref>
							<mediatype>audio</mediatype>
							<trackindex>9</trackindex>
							<clipindex>16</clipindex>
							<groupindex>1</groupindex>
						</link>
					</clipitem>
					<transitionitem>
						<start>9837</start>
						<end>9905</end>
						<alignment>end-black</alignment>
						<cutPoint>68</cutPoint>
						<rate>
							<timebase>25</timebase>
							<ntsc>FALSE</ntsc>
						</rate>
						<effect>
							<name>Cross Fade (+3dB)</name>
							<effectid>KGAudioTransCrossFade3dB</effectid>
							<effecttype>transition</effecttype>
							<mediatype>audio</mediatype>
							<wipecode>0</wipecode>
							<wipeaccuracy>100</wipeaccuracy>
							<startratio>0</startratio>
							<endratio>1</endratio>
							<reverse>FALSE</reverse>
						</effect>
					</transitionitem>
					<clipitem id="clipitem-622" frameBlend="FALSE" PannerCurrentValue="0.5" PannerKeyframes="" PannerStartKeyframe="-91445760000000000,0.5,0,0,0,0,0,0" PannerIsInverted="true" PannerName="Balance">
						<masterclipid>masterclip-61</masterclipid>
						<name>Titanic</name>
						<enabled>TRUE</enabled>
						<duration>2524</duration>
						<rate>
							<ntsc>TRUE</ntsc>
							<timebase>30</timebase>
						</rate>
						<start>9980</start>
						<end>10063</end>
						<in>255</in>
						<out>338</out>
						<file id="file-61"/>
						<sourcetrack>
							<mediatype>audio</mediatype>
							<trackindex>2</trackindex>
						</sourcetrack>
							<filter>
								<effect>
									<name>Audio Levels</name>
									<effectid>audiolevels</effectid>
									<effectcategory>audiolevels</effectcategory>
									<effecttype>audiolevels</effecttype>
									<mediatype>audio</mediatype>
									<parameter authoringApp="PremierePro">
										<parameterid>level</parameterid>
										<name>Level</name>
										<valuemin>0</valuemin>
										<valuemax>3.98109</valuemax>
										<value>0.0802691</value>
									</parameter>
								</effect>
							</filter>
							<filter>
								<effect>
									<name>Audio Pan</name>
									<effectid>audiopan</effectid>
									<effectcategory>audiopan</effectcategory>
									<effecttype>audiopan</effecttype>
									<mediatype>audio</mediatype>
									<parameter authoringApp="PremierePro">
										<parameterid>pan</parameterid>
										<name>Pan</name>
										<valuemin>-1</valuemin>
										<valuemax>1</valuemax>
										<value>0</value>
									</parameter>
								</effect>
							</filter>
						<link>
							<linkclipref>clipitem-601</linkclipref>
							<mediatype>audio</mediatype>
							<trackindex>8</trackindex>
							<clipindex>18</clipindex>
							<groupindex>1</groupindex>
						</link>
						<link>
							<linkclipref>clipitem-622</linkclipref>
							<mediatype>audio</mediatype>
							<trackindex>9</trackindex>
							<clipindex>18</clipindex>
							<groupindex>1</groupindex>
						</link>
					</clipitem>
					<clipitem id="clipitem-623" frameBlend="FALSE" PannerCurrentValue="0.5" PannerKeyframes="" PannerStartKeyframe="-91445760000000000,0.5,0,0,0,0,0,0" PannerIsInverted="true" PannerName="Balance">
						<masterclipid>masterclip-61</masterclipid>
						<name>Titanic</name>
						<enabled>TRUE</enabled>
						<duration>2524</duration>
						<rate>
							<ntsc>TRUE</ntsc>
							<timebase>30</timebase>
						</rate>
						<start>10063</start>
						<end>10191</end>
						<in>1652</in>
						<out>1780</out>
						<file id="file-61"/>
						<sourcetrack>
							<mediatype>audio</mediatype>
							<trackindex>2</trackindex>
						</sourcetrack>
							<filter>
								<effect>
									<name>Gain</name>
									<effectid>{61756678, 4761696e, 4b657947}</effectid>
									<effecttype>filter</effecttype>
									<mediatype>audio</mediatype>
									<parameter authoringApp="PremierePro">
										<parameterid>Gain(dB)</parameterid>
										<name>Gain(dB)</name>
										<valuemin>-96</valuemin>
										<valuemax>96</valuemax>
										<value>-6</value>
									</parameter>
								</effect>
							</filter>
							<filter>
								<effect>
									<name>Audio Levels</name>
									<effectid>audiolevels</effectid>
									<effectcategory>audiolevels</effectcategory>
									<effecttype>audiolevels</effecttype>
									<mediatype>audio</mediatype>
									<parameter authoringApp="PremierePro">
										<parameterid>level</parameterid>
										<name>Level</name>
										<valuemin>0</valuemin>
										<valuemax>3.98109</valuemax>
										<value>0.27471</value>
									</parameter>
								</effect>
							</filter>
							<filter>
								<effect>
									<name>Audio Pan</name>
									<effectid>audiopan</effectid>
									<effectcategory>audiopan</effectcategory>
									<effecttype>audiopan</effecttype>
									<mediatype>audio</mediatype>
									<parameter authoringApp="PremierePro">
										<parameterid>pan</parameterid>
										<name>Pan</name>
										<valuemin>-1</valuemin>
										<valuemax>1</valuemax>
										<value>0</value>
									</parameter>
								</effect>
							</filter>
						<link>
							<linkclipref>clipitem-602</linkclipref>
							<mediatype>audio</mediatype>
							<trackindex>8</trackindex>
							<clipindex>19</clipindex>
							<groupindex>1</groupindex>
						</link>
						<link>
							<linkclipref>clipitem-623</linkclipref>
							<mediatype>audio</mediatype>
							<trackindex>9</trackindex>
							<clipindex>19</clipindex>
							<groupindex>1</groupindex>
						</link>
					</clipitem>
					<transitionitem>
						<start>10796</start>
						<end>10821</end>
						<alignment>start-black</alignment>
						<cutPoint>0</cutPoint>
						<rate>
							<timebase>25</timebase>
							<ntsc>FALSE</ntsc>
						</rate>
						<effect>
							<name>Cross Fade (+3dB)</name>
							<effectid>KGAudioTransCrossFade3dB</effectid>
							<effecttype>transition</effecttype>
							<mediatype>audio</mediatype>
							<wipecode>0</wipecode>
							<wipeaccuracy>100</wipeaccuracy>
							<startratio>0</startratio>
							<endratio>1</endratio>
							<reverse>FALSE</reverse>
						</effect>
					</transitionitem>
					<clipitem id="clipitem-624" frameBlend="FALSE" PannerCurrentValue="0.5" PannerKeyframes="" PannerStartKeyframe="-91445760000000000,0.5,0,0,0,0,0,0" PannerIsInverted="true" PannerName="Balance">
						<masterclipid>masterclip-205</masterclipid>
						<name>NONRO000131CD0004 The Planets, op. 32_ Jupiter -.wav</name>
						<enabled>TRUE</enabled>
						<duration>11268</duration>
						<rate>
							<ntsc>TRUE</ntsc>
							<timebase>30</timebase>
						</rate>
						<start>-1</start>
						<end>11483</end>
						<in>10581</in>
						<out>11268</out>
						<file id="file-204"/>
						<sourcetrack>
							<mediatype>audio</mediatype>
							<trackindex>2</trackindex>
						</sourcetrack>
							<filter>
								<effect>
									<name>Gain</name>
									<effectid>{61756678, 4761696e, 4b657947}</effectid>
									<effecttype>filter</effecttype>
									<mediatype>audio</mediatype>
									<parameter authoringApp="PremierePro">
										<parameterid>Gain(dB)</parameterid>
										<name>Gain(dB)</name>
										<valuemin>-96</valuemin>
										<valuemax>96</valuemax>
										<value>-11</value>
									</parameter>
								</effect>
							</filter>
							<filter>
								<effect>
									<name>Audio Levels</name>
									<effectid>audiolevels</effectid>
									<effectcategory>audiolevels</effectcategory>
									<effecttype>audiolevels</effecttype>
									<mediatype>audio</mediatype>
									<parameter authoringApp="PremierePro">
										<parameterid>level</parameterid>
										<name>Level</name>
										<valuemin>0</valuemin>
										<valuemax>3.98109</valuemax>
										<value>0.662659</value>
										<keyframe>
											<when>10860</when>
											<value>0.4442</value>
										</keyframe>
										<keyframe>
											<when>11021</when>
											<value>0.429636</value>
										</keyframe>
										<keyframe>
											<when>11129</when>
											<value>0.662659</value>
										</keyframe>
									</parameter>
								</effect>
							</filter>
							<filter>
								<effect>
									<name>Audio Pan</name>
									<effectid>audiopan</effectid>
									<effectcategory>audiopan</effectcategory>
									<effecttype>audiopan</effecttype>
									<mediatype>audio</mediatype>
									<parameter authoringApp="PremierePro">
										<parameterid>pan</parameterid>
										<name>Pan</name>
										<valuemin>-1</valuemin>
										<valuemax>1</valuemax>
										<value>0</value>
									</parameter>
								</effect>
							</filter>
						<link>
							<linkclipref>clipitem-603</linkclipref>
							<mediatype>audio</mediatype>
							<trackindex>8</trackindex>
							<clipindex>21</clipindex>
							<groupindex>1</groupindex>
						</link>
						<link>
							<linkclipref>clipitem-624</linkclipref>
							<mediatype>audio</mediatype>
							<trackindex>9</trackindex>
							<clipindex>21</clipindex>
							<groupindex>1</groupindex>
						</link>
					</clipitem>
					<clipitem id="clipitem-625" frameBlend="FALSE" PannerCurrentValue="0.5" PannerKeyframes="" PannerStartKeyframe="-91445760000000000,0.5,0,0,0,0,0,0" PannerIsInverted="true" PannerName="Balance">
						<masterclipid>masterclip-206</masterclipid>
						<name>NONRO197406CD0003 On the Run.wav</name>
						<enabled>TRUE</enabled>
						<duration>7109</duration>
						<rate>
							<ntsc>TRUE</ntsc>
							<timebase>30</timebase>
						</rate>
						<start>16122</start>
						<end>16676</end>
						<in>0</in>
						<out>554</out>
						<file id="file-205"/>
						<sourcetrack>
							<mediatype>audio</mediatype>
							<trackindex>2</trackindex>
						</sourcetrack>
							<filter>
								<effect>
									<name>Gain</name>
									<effectid>{61756678, 4761696e, 4b657947}</effectid>
									<effecttype>filter</effecttype>
									<mediatype>audio</mediatype>
									<parameter authoringApp="PremierePro">
										<parameterid>Gain(dB)</parameterid>
										<name>Gain(dB)</name>
										<valuemin>-96</valuemin>
										<valuemax>96</valuemax>
										<value>-6</value>
									</parameter>
								</effect>
							</filter>
							<filter>
								<effect>
									<name>Audio Levels</name>
									<effectid>audiolevels</effectid>
									<effectcategory>audiolevels</effectcategory>
									<effecttype>audiolevels</effecttype>
									<mediatype>audio</mediatype>
									<parameter authoringApp="PremierePro">
										<parameterid>level</parameterid>
										<name>Level</name>
										<valuemin>0</valuemin>
										<valuemax>3.98109</valuemax>
										<value>0.424389</value>
										<keyframe>
											<when>506</when>
											<value>0.424389</value>
										</keyframe>
										<keyframe>
											<when>548</when>
											<value>0</value>
										</keyframe>
										<keyframe>
											<when>685</when>
											<value>0.424389</value>
										</keyframe>
										<keyframe>
											<when>1132</when>
											<value>0.276037</value>
										</keyframe>
										<keyframe>
											<when>1187</when>
											<value>0.022934</value>
										</keyframe>
										<keyframe>
											<when>1214</when>
											<value>0</value>
										</keyframe>
										<keyframe>
											<when>1376</when>
											<value>1.23775</value>
										</keyframe>
										<keyframe>
											<when>1376</when>
											<value>0</value>
										</keyframe>
										<keyframe>
											<when>1447</when>
											<value>0.0239736</value>
										</keyframe>
										<keyframe>
											<when>1822</when>
											<value>0.149983</value>
										</keyframe>
										<keyframe>
											<when>1832</when>
											<value>0.72961</value>
										</keyframe>
										<keyframe>
											<when>1863</when>
											<value>0.72961</value>
										</keyframe>
										<keyframe>
											<when>1866</when>
											<value>0.233972</value>
										</keyframe>
										<keyframe>
											<when>1894</when>
											<value>0.01489</value>
										</keyframe>
										<keyframe>
											<when>1907</when>
											<value>0</value>
										</keyframe>
									</parameter>
								</effect>
							</filter>
							<filter>
								<effect>
									<name>Audio Pan</name>
									<effectid>audiopan</effectid>
									<effectcategory>audiopan</effectcategory>
									<effecttype>audiopan</effecttype>
									<mediatype>audio</mediatype>
									<parameter authoringApp="PremierePro">
										<parameterid>pan</parameterid>
										<name>Pan</name>
										<valuemin>-1</valuemin>
										<valuemax>1</valuemax>
										<value>0</value>
									</parameter>
								</effect>
							</filter>
						<link>
							<linkclipref>clipitem-604</linkclipref>
							<mediatype>audio</mediatype>
							<trackindex>8</trackindex>
							<clipindex>22</clipindex>
							<groupindex>1</groupindex>
						</link>
						<link>
							<linkclipref>clipitem-625</linkclipref>
							<mediatype>audio</mediatype>
							<trackindex>9</trackindex>
							<clipindex>22</clipindex>
							<groupindex>1</groupindex>
						</link>
					</clipitem>
					<clipitem id="clipitem-626" frameBlend="FALSE" PannerCurrentValue="0.5" PannerKeyframes="" PannerStartKeyframe="-91445760000000000,0.5,0,0,0,0,0,0" PannerIsInverted="true" PannerName="Balance">
						<masterclipid>masterclip-206</masterclipid>
						<name>NONRO197406CD0003 On the Run.wav</name>
						<enabled>TRUE</enabled>
						<duration>7109</duration>
						<rate>
							<ntsc>TRUE</ntsc>
							<timebase>30</timebase>
						</rate>
						<start>19140</start>
						<end>19792</end>
						<in>562</in>
						<out>1214</out>
						<file id="file-205"/>
						<sourcetrack>
							<mediatype>audio</mediatype>
							<trackindex>2</trackindex>
						</sourcetrack>
							<filter>
								<effect>
									<name>Gain</name>
									<effectid>{61756678, 4761696e, 4b657947}</effectid>
									<effecttype>filter</effecttype>
									<mediatype>audio</mediatype>
									<parameter authoringApp="PremierePro">
										<parameterid>Gain(dB)</parameterid>
										<name>Gain(dB)</name>
										<valuemin>-96</valuemin>
										<valuemax>96</valuemax>
										<value>-6</value>
									</parameter>
								</effect>
							</filter>
							<filter>
								<effect>
									<name>Audio Levels</name>
									<effectid>audiolevels</effectid>
									<effectcategory>audiolevels</effectcategory>
									<effecttype>audiolevels</effecttype>
									<mediatype>audio</mediatype>
									<parameter authoringApp="PremierePro">
										<parameterid>level</parameterid>
										<name>Level</name>
										<valuemin>0</valuemin>
										<valuemax>3.98109</valuemax>
										<value>0</value>
										<keyframe>
											<when>562</when>
											<value>0</value>
										</keyframe>
										<keyframe>
											<when>685</when>
											<value>0.337005</value>
										</keyframe>
										<keyframe>
											<when>1132</when>
											<value>0.276037</value>
										</keyframe>
										<keyframe>
											<when>1187</when>
											<value>0.022934</value>
										</keyframe>
										<keyframe>
											<when>1214</when>
											<value>0</value>
										</keyframe>
										<keyframe>
											<when>1376</when>
											<value>1.23775</value>
										</keyframe>
										<keyframe>
											<when>1376</when>
											<value>0</value>
										</keyframe>
										<keyframe>
											<when>1447</when>
											<value>0.0239736</value>
										</keyframe>
										<keyframe>
											<when>1822</when>
											<value>0.149983</value>
										</keyframe>
										<keyframe>
											<when>1832</when>
											<value>0.72961</value>
										</keyframe>
										<keyframe>
											<when>1863</when>
											<value>0.72961</value>
										</keyframe>
										<keyframe>
											<when>1866</when>
											<value>0.233972</value>
										</keyframe>
										<keyframe>
											<when>1894</when>
											<value>0.01489</value>
										</keyframe>
										<keyframe>
											<when>1907</when>
											<value>0</value>
										</keyframe>
									</parameter>
								</effect>
							</filter>
							<filter>
								<effect>
									<name>Audio Pan</name>
									<effectid>audiopan</effectid>
									<effectcategory>audiopan</effectcategory>
									<effecttype>audiopan</effecttype>
									<mediatype>audio</mediatype>
									<parameter authoringApp="PremierePro">
										<parameterid>pan</parameterid>
										<name>Pan</name>
										<valuemin>-1</valuemin>
										<valuemax>1</valuemax>
										<value>0</value>
									</parameter>
								</effect>
							</filter>
						<link>
							<linkclipref>clipitem-605</linkclipref>
							<mediatype>audio</mediatype>
							<trackindex>8</trackindex>
							<clipindex>23</clipindex>
							<groupindex>1</groupindex>
						</link>
						<link>
							<linkclipref>clipitem-626</linkclipref>
							<mediatype>audio</mediatype>
							<trackindex>9</trackindex>
							<clipindex>23</clipindex>
							<groupindex>1</groupindex>
						</link>
					</clipitem>
					<clipitem id="clipitem-627" frameBlend="FALSE" PannerCurrentValue="0.5" PannerKeyframes="" PannerStartKeyframe="-91445760000000000,0.5,0,0,0,0,0,0" PannerIsInverted="true" PannerName="Balance">
						<masterclipid>masterclip-207</masterclipid>
						<name>NONRT004980CD0008 Kamarinskaja.wav</name>
						<enabled>TRUE</enabled>
						<duration>11137</duration>
						<rate>
							<ntsc>TRUE</ntsc>
							<timebase>30</timebase>
						</rate>
						<start>34679</start>
						<end>-1</end>
						<in>118</in>
						<out>238</out>
						<file id="file-206"/>
						<sourcetrack>
							<mediatype>audio</mediatype>
							<trackindex>2</trackindex>
						</sourcetrack>
							<filter>
								<effect>
									<name>Gain</name>
									<effectid>{61756678, 4761696e, 4b657947}</effectid>
									<effecttype>filter</effecttype>
									<mediatype>audio</mediatype>
									<parameter authoringApp="PremierePro">
										<parameterid>Gain(dB)</parameterid>
										<name>Gain(dB)</name>
										<valuemin>-96</valuemin>
										<valuemax>96</valuemax>
										<value>3</value>
									</parameter>
								</effect>
							</filter>
							<filter>
								<effect>
									<name>Audio Levels</name>
									<effectid>audiolevels</effectid>
									<effectcategory>audiolevels</effectcategory>
									<effecttype>audiolevels</effecttype>
									<mediatype>audio</mediatype>
									<parameter authoringApp="PremierePro">
										<parameterid>level</parameterid>
										<name>Level</name>
										<valuemin>0</valuemin>
										<valuemax>3.98109</valuemax>
										<value>0.350137</value>
									</parameter>
								</effect>
							</filter>
							<filter>
								<effect>
									<name>Audio Pan</name>
									<effectid>audiopan</effectid>
									<effectcategory>audiopan</effectcategory>
									<effecttype>audiopan</effecttype>
									<mediatype>audio</mediatype>
									<parameter authoringApp="PremierePro">
										<parameterid>pan</parameterid>
										<name>Pan</name>
										<valuemin>-1</valuemin>
										<valuemax>1</valuemax>
										<value>0</value>
									</parameter>
								</effect>
							</filter>
						<link>
							<linkclipref>clipitem-606</linkclipref>
							<mediatype>audio</mediatype>
							<trackindex>8</trackindex>
							<clipindex>24</clipindex>
							<groupindex>1</groupindex>
						</link>
						<link>
							<linkclipref>clipitem-627</linkclipref>
							<mediatype>audio</mediatype>
							<trackindex>9</trackindex>
							<clipindex>24</clipindex>
							<groupindex>1</groupindex>
						</link>
					</clipitem>
					<transitionitem>
						<start>34762</start>
						<end>34799</end>
						<alignment>center</alignment>
						<cutPoint>18</cutPoint>
						<rate>
							<timebase>25</timebase>
							<ntsc>FALSE</ntsc>
						</rate>
						<effect>
							<name>Cross Fade (+3dB)</name>
							<effectid>KGAudioTransCrossFade3dB</effectid>
							<effecttype>transition</effecttype>
							<mediatype>audio</mediatype>
							<wipecode>0</wipecode>
							<wipeaccuracy>100</wipeaccuracy>
							<startratio>0</startratio>
							<endratio>1</endratio>
							<reverse>FALSE</reverse>
						</effect>
					</transitionitem>
					<clipitem id="clipitem-628" frameBlend="FALSE" PannerCurrentValue="0.5" PannerKeyframes="" PannerStartKeyframe="-91445760000000000,0.5,0,0,0,0,0,0" PannerIsInverted="true" PannerName="Balance">
						<masterclipid>masterclip-207</masterclipid>
						<name>NONRT004980CD0008 Kamarinskaja.wav</name>
						<enabled>TRUE</enabled>
						<duration>11137</duration>
						<rate>
							<ntsc>TRUE</ntsc>
							<timebase>30</timebase>
						</rate>
						<start>-1</start>
						<end>-1</end>
						<in>201</in>
						<out>668</out>
						<file id="file-206"/>
						<sourcetrack>
							<mediatype>audio</mediatype>
							<trackindex>2</trackindex>
						</sourcetrack>
							<filter>
								<effect>
									<name>Audio Levels</name>
									<effectid>audiolevels</effectid>
									<effectcategory>audiolevels</effectcategory>
									<effecttype>audiolevels</effecttype>
									<mediatype>audio</mediatype>
									<parameter authoringApp="PremierePro">
										<parameterid>level</parameterid>
										<name>Level</name>
										<valuemin>0</valuemin>
										<valuemax>3.98109</valuemax>
										<value>0.0641452</value>
									</parameter>
								</effect>
							</filter>
							<filter>
								<effect>
									<name>Audio Pan</name>
									<effectid>audiopan</effectid>
									<effectcategory>audiopan</effectcategory>
									<effecttype>audiopan</effecttype>
									<mediatype>audio</mediatype>
									<parameter authoringApp="PremierePro">
										<parameterid>pan</parameterid>
										<name>Pan</name>
										<valuemin>-1</valuemin>
										<valuemax>1</valuemax>
										<value>0</value>
									</parameter>
								</effect>
							</filter>
						<link>
							<linkclipref>clipitem-607</linkclipref>
							<mediatype>audio</mediatype>
							<trackindex>8</trackindex>
							<clipindex>26</clipindex>
							<groupindex>1</groupindex>
						</link>
						<link>
							<linkclipref>clipitem-628</linkclipref>
							<mediatype>audio</mediatype>
							<trackindex>9</trackindex>
							<clipindex>26</clipindex>
							<groupindex>1</groupindex>
						</link>
					</clipitem>
					<transitionitem>
						<start>35200</start>
						<end>35229</end>
						<alignment>center</alignment>
						<cutPoint>14</cutPoint>
						<rate>
							<timebase>25</timebase>
							<ntsc>FALSE</ntsc>
						</rate>
						<effect>
							<name>Cross Fade (+3dB)</name>
							<effectid>KGAudioTransCrossFade3dB</effectid>
							<effecttype>transition</effecttype>
							<mediatype>audio</mediatype>
							<wipecode>0</wipecode>
							<wipeaccuracy>100</wipeaccuracy>
							<startratio>0</startratio>
							<endratio>1</endratio>
							<reverse>FALSE</reverse>
						</effect>
					</transitionitem>
					<clipitem id="clipitem-629" frameBlend="FALSE" PannerCurrentValue="0.5" PannerKeyframes="" PannerStartKeyframe="-91445760000000000,0.5,0,0,0,0,0,0" PannerIsInverted="true" PannerName="Balance">
						<masterclipid>masterclip-207</masterclipid>
						<name>NONRT004980CD0008 Kamarinskaja.wav</name>
						<enabled>TRUE</enabled>
						<duration>11137</duration>
						<rate>
							<ntsc>TRUE</ntsc>
							<timebase>30</timebase>
						</rate>
						<start>-1</start>
						<end>35422</end>
						<in>639</in>
						<out>861</out>
						<file id="file-206"/>
						<sourcetrack>
							<mediatype>audio</mediatype>
							<trackindex>2</trackindex>
						</sourcetrack>
							<filter>
								<effect>
									<name>Audio Levels</name>
									<effectid>audiolevels</effectid>
									<effectcategory>audiolevels</effectcategory>
									<effecttype>audiolevels</effecttype>
									<mediatype>audio</mediatype>
									<parameter authoringApp="PremierePro">
										<parameterid>level</parameterid>
										<name>Level</name>
										<valuemin>0</valuemin>
										<valuemax>3.98109</valuemax>
										<value>0.0273147</value>
									</parameter>
								</effect>
							</filter>
							<filter>
								<effect>
									<name>Audio Pan</name>
									<effectid>audiopan</effectid>
									<effectcategory>audiopan</effectcategory>
									<effecttype>audiopan</effecttype>
									<mediatype>audio</mediatype>
									<parameter authoringApp="PremierePro">
										<parameterid>pan</parameterid>
										<name>Pan</name>
										<valuemin>-1</valuemin>
										<valuemax>1</valuemax>
										<value>0</value>
									</parameter>
								</effect>
							</filter>
						<link>
							<linkclipref>clipitem-608</linkclipref>
							<mediatype>audio</mediatype>
							<trackindex>8</trackindex>
							<clipindex>28</clipindex>
							<groupindex>1</groupindex>
						</link>
						<link>
							<linkclipref>clipitem-629</linkclipref>
							<mediatype>audio</mediatype>
							<trackindex>9</trackindex>
							<clipindex>28</clipindex>
							<groupindex>1</groupindex>
						</link>
					</clipitem>
					<clipitem id="clipitem-630" frameBlend="FALSE" PannerCurrentValue="0.5" PannerKeyframes="" PannerStartKeyframe="-91445760000000000,0.5,0,0,0,0,0,0" PannerIsInverted="true" PannerName="Balance">
						<masterclipid>masterclip-207</masterclipid>
						<name>NONRT004980CD0008 Kamarinskaja.wav</name>
						<enabled>TRUE</enabled>
						<duration>11137</duration>
						<rate>
							<ntsc>TRUE</ntsc>
							<timebase>30</timebase>
						</rate>
						<start>35779</start>
						<end>36723</end>
						<in>1113</in>
						<out>2057</out>
						<file id="file-206"/>
						<sourcetrack>
							<mediatype>audio</mediatype>
							<trackindex>2</trackindex>
						</sourcetrack>
							<filter>
								<effect>
									<name>Audio Levels</name>
									<effectid>audiolevels</effectid>
									<effectcategory>audiolevels</effectcategory>
									<effecttype>audiolevels</effecttype>
									<mediatype>audio</mediatype>
									<parameter authoringApp="PremierePro">
										<parameterid>level</parameterid>
										<name>Level</name>
										<valuemin>0</valuemin>
										<valuemax>3.98109</valuemax>
										<value>0.252469</value>
									</parameter>
								</effect>
							</filter>
							<filter>
								<effect>
									<name>Audio Pan</name>
									<effectid>audiopan</effectid>
									<effectcategory>audiopan</effectcategory>
									<effecttype>audiopan</effecttype>
									<mediatype>audio</mediatype>
									<parameter authoringApp="PremierePro">
										<parameterid>pan</parameterid>
										<name>Pan</name>
										<valuemin>-1</valuemin>
										<valuemax>1</valuemax>
										<value>0</value>
									</parameter>
								</effect>
							</filter>
						<link>
							<linkclipref>clipitem-609</linkclipref>
							<mediatype>audio</mediatype>
							<trackindex>8</trackindex>
							<clipindex>29</clipindex>
							<groupindex>1</groupindex>
						</link>
						<link>
							<linkclipref>clipitem-630</linkclipref>
							<mediatype>audio</mediatype>
							<trackindex>9</trackindex>
							<clipindex>29</clipindex>
							<groupindex>1</groupindex>
						</link>
					</clipitem>
					<clipitem id="clipitem-631" frameBlend="FALSE" PannerCurrentValue="0.5" PannerKeyframes="" PannerStartKeyframe="-91445760000000000,0.5,0,0,0,0,0,0" PannerIsInverted="true" PannerName="Balance">
						<masterclipid>masterclip-208</masterclipid>
						<name>Film Bonanza 2013 Rulletext Hammond.wav</name>
						<enabled>TRUE</enabled>
						<duration>1111</duration>
						<rate>
							<ntsc>TRUE</ntsc>
							<timebase>30</timebase>
						</rate>
						<start>42793</start>
						<end>-1</end>
						<in>0</in>
						<out>185</out>
						<file id="file-207"/>
						<sourcetrack>
							<mediatype>audio</mediatype>
							<trackindex>2</trackindex>
						</sourcetrack>
							<filter>
								<effect>
									<name>Audio Levels</name>
									<effectid>audiolevels</effectid>
									<effectcategory>audiolevels</effectcategory>
									<effecttype>audiolevels</effecttype>
									<mediatype>audio</mediatype>
									<parameter authoringApp="PremierePro">
										<parameterid>level</parameterid>
										<name>Level</name>
										<valuemin>0</valuemin>
										<valuemax>3.98109</valuemax>
										<value>0.264432</value>
									</parameter>
								</effect>
							</filter>
							<filter>
								<effect>
									<name>Audio Pan</name>
									<effectid>audiopan</effectid>
									<effectcategory>audiopan</effectcategory>
									<effecttype>audiopan</effecttype>
									<mediatype>audio</mediatype>
									<parameter authoringApp="PremierePro">
										<parameterid>pan</parameterid>
										<name>Pan</name>
										<valuemin>-1</valuemin>
										<valuemax>1</valuemax>
										<value>0</value>
									</parameter>
								</effect>
							</filter>
						<link>
							<linkclipref>clipitem-610</linkclipref>
							<mediatype>audio</mediatype>
							<trackindex>8</trackindex>
							<clipindex>30</clipindex>
							<groupindex>1</groupindex>
						</link>
						<link>
							<linkclipref>clipitem-631</linkclipref>
							<mediatype>audio</mediatype>
							<trackindex>9</trackindex>
							<clipindex>30</clipindex>
							<groupindex>1</groupindex>
						</link>
					</clipitem>
					<transitionitem>
						<start>42953</start>
						<end>42978</end>
						<alignment>center</alignment>
						<cutPoint>12</cutPoint>
						<rate>
							<timebase>25</timebase>
							<ntsc>FALSE</ntsc>
						</rate>
						<effect>
							<name>Cross Fade (+3dB)</name>
							<effectid>KGAudioTransCrossFade3dB</effectid>
							<effecttype>transition</effecttype>
							<mediatype>audio</mediatype>
							<wipecode>0</wipecode>
							<wipeaccuracy>100</wipeaccuracy>
							<startratio>0</startratio>
							<endratio>1</endratio>
							<reverse>FALSE</reverse>
						</effect>
					</transitionitem>
					<clipitem id="clipitem-632" frameBlend="FALSE" PannerCurrentValue="0.5" PannerKeyframes="" PannerStartKeyframe="-91445760000000000,0.5,0,0,0,0,0,0" PannerIsInverted="true" PannerName="Balance">
						<masterclipid>masterclip-208</masterclipid>
						<name>Film Bonanza 2013 Rulletext Hammond.wav</name>
						<enabled>TRUE</enabled>
						<duration>1111</duration>
						<rate>
							<ntsc>TRUE</ntsc>
							<timebase>30</timebase>
						</rate>
						<start>-1</start>
						<end>-1</end>
						<in>160</in>
						<out>437</out>
						<file id="file-207"/>
						<sourcetrack>
							<mediatype>audio</mediatype>
							<trackindex>2</trackindex>
						</sourcetrack>
							<filter>
								<effect>
									<name>Audio Levels</name>
									<effectid>audiolevels</effectid>
									<effectcategory>audiolevels</effectcategory>
									<effecttype>audiolevels</effecttype>
									<mediatype>audio</mediatype>
									<parameter authoringApp="PremierePro">
										<parameterid>level</parameterid>
										<name>Level</name>
										<valuemin>0</valuemin>
										<valuemax>3.98109</valuemax>
										<value>0.132216</value>
									</parameter>
								</effect>
							</filter>
							<filter>
								<effect>
									<name>Audio Pan</name>
									<effectid>audiopan</effectid>
									<effectcategory>audiopan</effectcategory>
									<effecttype>audiopan</effecttype>
									<mediatype>audio</mediatype>
									<parameter authoringApp="PremierePro">
										<parameterid>pan</parameterid>
										<name>Pan</name>
										<valuemin>-1</valuemin>
										<valuemax>1</valuemax>
										<value>0</value>
									</parameter>
								</effect>
							</filter>
						<link>
							<linkclipref>clipitem-611</linkclipref>
							<mediatype>audio</mediatype>
							<trackindex>8</trackindex>
							<clipindex>32</clipindex>
							<groupindex>1</groupindex>
						</link>
						<link>
							<linkclipref>clipitem-632</linkclipref>
							<mediatype>audio</mediatype>
							<trackindex>9</trackindex>
							<clipindex>32</clipindex>
							<groupindex>1</groupindex>
						</link>
					</clipitem>
					<transitionitem>
						<start>43205</start>
						<end>43230</end>
						<alignment>center</alignment>
						<cutPoint>12</cutPoint>
						<rate>
							<timebase>25</timebase>
							<ntsc>FALSE</ntsc>
						</rate>
						<effect>
							<name>Cross Fade (+3dB)</name>
							<effectid>KGAudioTransCrossFade3dB</effectid>
							<effecttype>transition</effecttype>
							<mediatype>audio</mediatype>
							<wipecode>0</wipecode>
							<wipeaccuracy>100</wipeaccuracy>
							<startratio>0</startratio>
							<endratio>1</endratio>
							<reverse>FALSE</reverse>
						</effect>
					</transitionitem>
					<clipitem id="clipitem-633" frameBlend="FALSE" PannerCurrentValue="0.5" PannerKeyframes="" PannerStartKeyframe="-91445760000000000,0.5,0,0,0,0,0,0" PannerIsInverted="true" PannerName="Balance">
						<masterclipid>masterclip-208</masterclipid>
						<name>Film Bonanza 2013 Rulletext Hammond.wav</name>
						<enabled>FALSE</enabled>
						<duration>1111</duration>
						<rate>
							<ntsc>TRUE</ntsc>
							<timebase>30</timebase>
						</rate>
						<start>-1</start>
						<end>43410</end>
						<in>412</in>
						<out>617</out>
						<file id="file-207"/>
						<sourcetrack>
							<mediatype>audio</mediatype>
							<trackindex>2</trackindex>
						</sourcetrack>
							<filter>
								<effect>
									<name>Gain</name>
									<effectid>{61756678, 4761696e, 4b657947}</effectid>
									<effecttype>filter</effecttype>
									<mediatype>audio</mediatype>
									<parameter authoringApp="PremierePro">
										<parameterid>Gain(dB)</parameterid>
										<name>Gain(dB)</name>
										<valuemin>-96</valuemin>
										<valuemax>96</valuemax>
										<value>-9</value>
									</parameter>
								</effect>
							</filter>
							<filter>
								<effect>
									<name>Audio Pan</name>
									<effectid>audiopan</effectid>
									<effectcategory>audiopan</effectcategory>
									<effecttype>audiopan</effecttype>
									<mediatype>audio</mediatype>
									<parameter authoringApp="PremierePro">
										<parameterid>pan</parameterid>
										<name>Pan</name>
										<valuemin>-1</valuemin>
										<valuemax>1</valuemax>
										<value>0</value>
									</parameter>
								</effect>
							</filter>
						<link>
							<linkclipref>clipitem-612</linkclipref>
							<mediatype>audio</mediatype>
							<trackindex>8</trackindex>
							<clipindex>34</clipindex>
							<groupindex>1</groupindex>
						</link>
						<link>
							<linkclipref>clipitem-633</linkclipref>
							<mediatype>audio</mediatype>
							<trackindex>9</trackindex>
							<clipindex>34</clipindex>
							<groupindex>1</groupindex>
						</link>
					</clipitem>
					<enabled>TRUE</enabled>
					<locked>FALSE</locked>
					<outputchannelindex>2</outputchannelindex>
				</track>
				<track TL.SQTrackAudioKeyframeStyle="0" TL.SQTrackShy="0" TL.SQTrackExpandedHeight="65" TL.SQTrackExpanded="1" MZ.TrackTargeted="1" PannerCurrentValue="0.5" PannerIsInverted="true" PannerStartKeyframe="-91445760000000000,0.5,0,0,0,0,0,0" PannerName="Balance" currentExplodedTrackIndex="0" totalExplodedTrackCount="2" premiereTrackType="Stereo">
					<transitionitem>
						<start>269</start>
						<end>341</end>
						<alignment>start-black</alignment>
						<cutPoint>0</cutPoint>
						<rate>
							<timebase>25</timebase>
							<ntsc>FALSE</ntsc>
						</rate>
						<effect>
							<name>Cross Fade (+3dB)</name>
							<effectid>KGAudioTransCrossFade3dB</effectid>
							<effecttype>transition</effecttype>
							<mediatype>audio</mediatype>
							<wipecode>0</wipecode>
							<wipeaccuracy>100</wipeaccuracy>
							<startratio>0</startratio>
							<endratio>1</endratio>
							<reverse>FALSE</reverse>
						</effect>
					</transitionitem>
					<clipitem id="clipitem-634" frameBlend="FALSE" PannerCurrentValue="0.5" PannerKeyframes="" PannerStartKeyframe="-91445760000000000,0.5,0,0,0,0,0,0" PannerIsInverted="true" PannerName="Balance">
						<masterclipid>masterclip-35</masterclipid>
						<name>apocalypse_now_begynnelsen</name>
						<enabled>TRUE</enabled>
						<duration>9005</duration>
						<rate>
							<ntsc>TRUE</ntsc>
							<timebase>30</timebase>
						</rate>
						<start>-1</start>
						<end>-1</end>
						<in>3516</in>
						<out>3685</out>
						<file id="file-35"/>
						<sourcetrack>
							<mediatype>audio</mediatype>
							<trackindex>1</trackindex>
						</sourcetrack>
							<filter>
								<effect>
									<name>Gain</name>
									<effectid>{61756678, 4761696e, 4b657947}</effectid>
									<effecttype>filter</effecttype>
									<mediatype>audio</mediatype>
									<parameter authoringApp="PremierePro">
										<parameterid>Gain(dB)</parameterid>
										<name>Gain(dB)</name>
										<valuemin>-96</valuemin>
										<valuemax>96</valuemax>
										<value>-6</value>
									</parameter>
								</effect>
							</filter>
							<filter>
								<effect>
									<name>Audio Levels</name>
									<effectid>audiolevels</effectid>
									<effectcategory>audiolevels</effectcategory>
									<effecttype>audiolevels</effecttype>
									<mediatype>audio</mediatype>
									<parameter authoringApp="PremierePro">
										<parameterid>level</parameterid>
										<name>Level</name>
										<valuemin>0</valuemin>
										<valuemax>3.98109</valuemax>
										<value>0.99763</value>
										<keyframe>
											<when>3752</when>
											<value>0.99763</value>
										</keyframe>
										<keyframe>
											<when>3818</when>
											<value>0.250593</value>
										</keyframe>
									</parameter>
								</effect>
							</filter>
							<filter>
								<effect>
									<name>Audio Pan</name>
									<effectid>audiopan</effectid>
									<effectcategory>audiopan</effectcategory>
									<effecttype>audiopan</effecttype>
									<mediatype>audio</mediatype>
									<parameter authoringApp="PremierePro">
										<parameterid>pan</parameterid>
										<name>Pan</name>
										<valuemin>-1</valuemin>
										<valuemax>1</valuemax>
										<value>0</value>
									</parameter>
								</effect>
							</filter>
						<link>
							<linkclipref>clipitem-634</linkclipref>
							<mediatype>audio</mediatype>
							<trackindex>10</trackindex>
							<clipindex>2</clipindex>
							<groupindex>1</groupindex>
						</link>
						<link>
							<linkclipref>clipitem-674</linkclipref>
							<mediatype>audio</mediatype>
							<trackindex>11</trackindex>
							<clipindex>2</clipindex>
							<groupindex>1</groupindex>
						</link>
					</clipitem>
					<transitionitem>
						<start>413</start>
						<end>438</end>
						<alignment>end-black</alignment>
						<cutPoint>25</cutPoint>
						<rate>
							<timebase>25</timebase>
							<ntsc>FALSE</ntsc>
						</rate>
						<effect>
							<name>Cross Fade (+3dB)</name>
							<effectid>KGAudioTransCrossFade3dB</effectid>
							<effecttype>transition</effecttype>
							<mediatype>audio</mediatype>
							<wipecode>0</wipecode>
							<wipeaccuracy>100</wipeaccuracy>
							<startratio>0</startratio>
							<endratio>1</endratio>
							<reverse>FALSE</reverse>
						</effect>
					</transitionitem>
					<transitionitem>
						<start>483</start>
						<end>496</end>
						<alignment>start-black</alignment>
						<cutPoint>0</cutPoint>
						<rate>
							<timebase>25</timebase>
							<ntsc>FALSE</ntsc>
						</rate>
						<effect>
							<name>Cross Fade (+3dB)</name>
							<effectid>KGAudioTransCrossFade3dB</effectid>
							<effecttype>transition</effecttype>
							<mediatype>audio</mediatype>
							<wipecode>0</wipecode>
							<wipeaccuracy>100</wipeaccuracy>
							<startratio>0</startratio>
							<endratio>1</endratio>
							<reverse>FALSE</reverse>
						</effect>
					</transitionitem>
					<clipitem id="clipitem-635" frameBlend="FALSE" PannerCurrentValue="0.5" PannerKeyframes="" PannerStartKeyframe="-91445760000000000,0.5,0,0,0,0,0,0" PannerIsInverted="true" PannerName="Balance">
						<masterclipid>masterclip-202</masterclipid>
						<name>FB Generell Bakgrunn.aif</name>
						<enabled>FALSE</enabled>
						<duration>1148</duration>
						<rate>
							<ntsc>TRUE</ntsc>
							<timebase>30</timebase>
						</rate>
						<start>-1</start>
						<end>542</end>
						<in>11</in>
						<out>70</out>
						<file id="file-201"/>
						<sourcetrack>
							<mediatype>audio</mediatype>
							<trackindex>1</trackindex>
						</sourcetrack>
							<filter>
								<effect>
									<name>Audio Levels</name>
									<effectid>audiolevels</effectid>
									<effectcategory>audiolevels</effectcategory>
									<effecttype>audiolevels</effecttype>
									<mediatype>audio</mediatype>
									<parameter authoringApp="PremierePro">
										<parameterid>level</parameterid>
										<name>Level</name>
										<valuemin>0</valuemin>
										<valuemax>3.98109</valuemax>
										<value>0.12133</value>
										<keyframe>
											<when>118</when>
											<value>0.0408762</value>
										</keyframe>
										<keyframe>
											<when>122</when>
											<value>0.12133</value>
										</keyframe>
									</parameter>
								</effect>
							</filter>
							<filter>
								<effect>
									<name>Audio Pan</name>
									<effectid>audiopan</effectid>
									<effectcategory>audiopan</effectcategory>
									<effecttype>audiopan</effecttype>
									<mediatype>audio</mediatype>
									<parameter authoringApp="PremierePro">
										<parameterid>pan</parameterid>
										<name>Pan</name>
										<valuemin>-1</valuemin>
										<valuemax>1</valuemax>
										<value>0</value>
									</parameter>
								</effect>
							</filter>
						<link>
							<linkclipref>clipitem-635</linkclipref>
							<mediatype>audio</mediatype>
							<trackindex>10</trackindex>
							<clipindex>5</clipindex>
							<groupindex>1</groupindex>
						</link>
						<link>
							<linkclipref>clipitem-675</linkclipref>
							<mediatype>audio</mediatype>
							<trackindex>11</trackindex>
							<clipindex>5</clipindex>
							<groupindex>1</groupindex>
						</link>
					</clipitem>
					<clipitem id="clipitem-636" frameBlend="FALSE" PannerCurrentValue="0.5" PannerKeyframes="" PannerStartKeyframe="-91445760000000000,0.5,0,0,0,0,0,0" PannerIsInverted="true" PannerName="Balance">
						<masterclipid>masterclip-38</masterclipid>
						<name>Cleopatra</name>
						<enabled>TRUE</enabled>
						<duration>10842</duration>
						<rate>
							<ntsc>TRUE</ntsc>
							<timebase>30</timebase>
						</rate>
						<start>542</start>
						<end>-1</end>
						<in>6018</in>
						<out>6206</out>
						<file id="file-38"/>
						<sourcetrack>
							<mediatype>audio</mediatype>
							<trackindex>1</trackindex>
						</sourcetrack>
							<filter>
								<effect>
									<name>Audio Levels</name>
									<effectid>audiolevels</effectid>
									<effectcategory>audiolevels</effectcategory>
									<effecttype>audiolevels</effecttype>
									<mediatype>audio</mediatype>
									<parameter authoringApp="PremierePro">
										<parameterid>level</parameterid>
										<name>Level</name>
										<valuemin>0</valuemin>
										<valuemax>3.98109</valuemax>
										<value>0.110273</value>
										<keyframe>
											<when>5773</when>
											<value>0.64846</value>
										</keyframe>
										<keyframe>
											<when>5799</when>
											<value>0.12918</value>
										</keyframe>
										<keyframe>
											<when>6027</when>
											<value>0</value>
										</keyframe>
										<keyframe>
											<when>6036</when>
											<value>0.110273</value>
										</keyframe>
									</parameter>
								</effect>
							</filter>
							<filter>
								<effect>
									<name>Audio Pan</name>
									<effectid>audiopan</effectid>
									<effectcategory>audiopan</effectcategory>
									<effecttype>audiopan</effecttype>
									<mediatype>audio</mediatype>
									<parameter authoringApp="PremierePro">
										<parameterid>pan</parameterid>
										<name>Pan</name>
										<valuemin>-1</valuemin>
										<valuemax>1</valuemax>
										<value>0</value>
									</parameter>
								</effect>
							</filter>
						<link>
							<linkclipref>clipitem-636</linkclipref>
							<mediatype>audio</mediatype>
							<trackindex>10</trackindex>
							<clipindex>6</clipindex>
							<groupindex>1</groupindex>
						</link>
						<link>
							<linkclipref>clipitem-676</linkclipref>
							<mediatype>audio</mediatype>
							<trackindex>11</trackindex>
							<clipindex>6</clipindex>
							<groupindex>1</groupindex>
						</link>
					</clipitem>
					<transitionitem>
						<start>725</start>
						<end>730</end>
						<alignment>end-black</alignment>
						<cutPoint>5</cutPoint>
						<rate>
							<timebase>25</timebase>
							<ntsc>FALSE</ntsc>
						</rate>
						<effect>
							<name>Cross Fade (+3dB)</name>
							<effectid>KGAudioTransCrossFade3dB</effectid>
							<effecttype>transition</effecttype>
							<mediatype>audio</mediatype>
							<wipecode>0</wipecode>
							<wipeaccuracy>100</wipeaccuracy>
							<startratio>0</startratio>
							<endratio>1</endratio>
							<reverse>FALSE</reverse>
						</effect>
					</transitionitem>
					<transitionitem>
						<start>2126</start>
						<end>2139</end>
						<alignment>start-black</alignment>
						<cutPoint>0</cutPoint>
						<rate>
							<timebase>25</timebase>
							<ntsc>FALSE</ntsc>
						</rate>
						<effect>
							<name>Cross Fade (+3dB)</name>
							<effectid>KGAudioTransCrossFade3dB</effectid>
							<effecttype>transition</effecttype>
							<mediatype>audio</mediatype>
							<wipecode>0</wipecode>
							<wipeaccuracy>100</wipeaccuracy>
							<startratio>0</startratio>
							<endratio>1</endratio>
							<reverse>FALSE</reverse>
						</effect>
					</transitionitem>
					<clipitem id="clipitem-637" frameBlend="FALSE" PannerCurrentValue="0.5" PannerKeyframes="" PannerStartKeyframe="-91445760000000000,0.5,0,0,0,0,0,0" PannerIsInverted="true" PannerName="Balance">
						<masterclipid>masterclip-209</masterclipid>
						<name>NONRO169339CD0001 The Planets Op. 32 = H 125- 1..wav</name>
						<enabled>TRUE</enabled>
						<duration>9242</duration>
						<rate>
							<timebase>30</timebase>
							<ntsc>TRUE</ntsc>
						</rate>
						<start>-1</start>
						<end>-1</end>
						<in>0</in>
						<out>122</out>
						<file id="file-208">
							<name>NONRO169339CD0001 The Planets Op. 32 = H 125- 1..wav</name>
							<pathurl>file://localhost/Volumes/Scenen/Prosjekter/FILM/FILM%201413%20Stormannsgalskap/musikk/NONRO169339CD0001%20The%20Planets%20Op.%2032%20=%20H%20125-%201..wav</pathurl>
							<rate>
								<timebase>30</timebase>
								<ntsc>TRUE</ntsc>
							</rate>
							<duration>11079</duration>
							<timecode>
								<rate>
									<timebase>30</timebase>
									<ntsc>TRUE</ntsc>
								</rate>
								<string>00;00;00;00</string>
								<frame>0</frame>
								<displayformat>DF</displayformat>
							</timecode>
							<media>
								<audio>
									<samplecharacteristics>
										<depth>16</depth>
										<samplerate>48000</samplerate>
									</samplecharacteristics>
									<channelcount>2</channelcount>
								</audio>
							</media>
						</file>
						<sourcetrack>
							<mediatype>audio</mediatype>
							<trackindex>1</trackindex>
						</sourcetrack>
							<filter>
								<effect>
									<name>Audio Levels</name>
									<effectid>audiolevels</effectid>
									<effectcategory>audiolevels</effectcategory>
									<effecttype>audiolevels</effecttype>
									<mediatype>audio</mediatype>
									<parameter authoringApp="PremierePro">
										<parameterid>level</parameterid>
										<name>Level</name>
										<valuemin>0</valuemin>
										<valuemax>3.98109</valuemax>
										<value>0.61283</value>
									</parameter>
								</effect>
							</filter>
							<filter>
								<effect>
									<name>Audio Pan</name>
									<effectid>audiopan</effectid>
									<effectcategory>audiopan</effectcategory>
									<effecttype>audiopan</effecttype>
									<mediatype>audio</mediatype>
									<parameter authoringApp="PremierePro">
										<parameterid>pan</parameterid>
										<name>Pan</name>
										<valuemin>-1</valuemin>
										<valuemax>1</valuemax>
										<value>0</value>
									</parameter>
								</effect>
							</filter>
						<link>
							<linkclipref>clipitem-637</linkclipref>
							<mediatype>audio</mediatype>
							<trackindex>10</trackindex>
							<clipindex>9</clipindex>
							<groupindex>1</groupindex>
						</link>
						<link>
							<linkclipref>clipitem-677</linkclipref>
							<mediatype>audio</mediatype>
							<trackindex>11</trackindex>
							<clipindex>9</clipindex>
							<groupindex>1</groupindex>
						</link>
					</clipitem>
					<transitionitem>
						<start>2223</start>
						<end>2248</end>
						<alignment>center</alignment>
						<cutPoint>12</cutPoint>
						<rate>
							<timebase>25</timebase>
							<ntsc>FALSE</ntsc>
						</rate>
						<effect>
							<name>Cross Fade (+3dB)</name>
							<effectid>KGAudioTransCrossFade3dB</effectid>
							<effecttype>transition</effecttype>
							<mediatype>audio</mediatype>
							<wipecode>0</wipecode>
							<wipeaccuracy>100</wipeaccuracy>
							<startratio>0</startratio>
							<endratio>1</endratio>
							<reverse>FALSE</reverse>
						</effect>
					</transitionitem>
					<clipitem id="clipitem-638" frameBlend="FALSE" PannerCurrentValue="0.5" PannerKeyframes="" PannerStartKeyframe="-91445760000000000,0.5,0,0,0,0,0,0" PannerIsInverted="true" PannerName="Balance">
						<masterclipid>masterclip-209</masterclipid>
						<name>NONRO169339CD0001 The Planets Op. 32 = H 125- 1..wav</name>
						<enabled>TRUE</enabled>
						<duration>9242</duration>
						<rate>
							<ntsc>TRUE</ntsc>
							<timebase>30</timebase>
						</rate>
						<start>-1</start>
						<end>-1</end>
						<in>97</in>
						<out>891</out>
						<file id="file-208"/>
						<sourcetrack>
							<mediatype>audio</mediatype>
							<trackindex>1</trackindex>
						</sourcetrack>
							<filter>
								<effect>
									<name>Audio Levels</name>
									<effectid>audiolevels</effectid>
									<effectcategory>audiolevels</effectcategory>
									<effecttype>audiolevels</effecttype>
									<mediatype>audio</mediatype>
									<parameter authoringApp="PremierePro">
										<parameterid>level</parameterid>
										<name>Level</name>
										<valuemin>0</valuemin>
										<valuemax>3.98109</valuemax>
										<value>0.363422</value>
									</parameter>
								</effect>
							</filter>
							<filter>
								<effect>
									<name>Audio Pan</name>
									<effectid>audiopan</effectid>
									<effectcategory>audiopan</effectcategory>
									<effecttype>audiopan</effecttype>
									<mediatype>audio</mediatype>
									<parameter authoringApp="PremierePro">
										<parameterid>pan</parameterid>
										<name>Pan</name>
										<valuemin>-1</valuemin>
										<valuemax>1</valuemax>
										<value>0</value>
									</parameter>
								</effect>
							</filter>
						<link>
							<linkclipref>clipitem-638</linkclipref>
							<mediatype>audio</mediatype>
							<trackindex>10</trackindex>
							<clipindex>11</clipindex>
							<groupindex>1</groupindex>
						</link>
						<link>
							<linkclipref>clipitem-678</linkclipref>
							<mediatype>audio</mediatype>
							<trackindex>11</trackindex>
							<clipindex>11</clipindex>
							<groupindex>1</groupindex>
						</link>
					</clipitem>
					<transitionitem>
						<start>3004</start>
						<end>3017</end>
						<alignment>end-black</alignment>
						<cutPoint>13</cutPoint>
						<rate>
							<timebase>25</timebase>
							<ntsc>FALSE</ntsc>
						</rate>
						<effect>
							<name>Cross Fade (+3dB)</name>
							<effectid>KGAudioTransCrossFade3dB</effectid>
							<effecttype>transition</effecttype>
							<mediatype>audio</mediatype>
							<wipecode>0</wipecode>
							<wipeaccuracy>100</wipeaccuracy>
							<startratio>0</startratio>
							<endratio>1</endratio>
							<reverse>FALSE</reverse>
						</effect>
					</transitionitem>
					<transitionitem>
						<start>3764</start>
						<end>3789</end>
						<alignment>start-black</alignment>
						<cutPoint>0</cutPoint>
						<rate>
							<timebase>25</timebase>
							<ntsc>FALSE</ntsc>
						</rate>
						<effect>
							<name>Cross Fade (+3dB)</name>
							<effectid>KGAudioTransCrossFade3dB</effectid>
							<effecttype>transition</effecttype>
							<mediatype>audio</mediatype>
							<wipecode>0</wipecode>
							<wipeaccuracy>100</wipeaccuracy>
							<startratio>0</startratio>
							<endratio>1</endratio>
							<reverse>FALSE</reverse>
						</effect>
					</transitionitem>
					<clipitem id="clipitem-639" frameBlend="FALSE" PannerCurrentValue="0.5" PannerKeyframes="" PannerStartKeyframe="-91445760000000000,0.5,0,0,0,0,0,0" PannerIsInverted="true" PannerName="Balance">
						<masterclipid>masterclip-45</masterclipid>
						<name>Ben Hur</name>
						<enabled>TRUE</enabled>
						<duration>22984</duration>
						<rate>
							<ntsc>TRUE</ntsc>
							<timebase>30</timebase>
						</rate>
						<start>-1</start>
						<end>-1</end>
						<in>567</in>
						<out>1022</out>
						<file id="file-45"/>
						<sourcetrack>
							<mediatype>audio</mediatype>
							<trackindex>1</trackindex>
						</sourcetrack>
							<filter>
								<effect>
									<name>Gain</name>
									<effectid>{61756678, 4761696e, 4b657947}</effectid>
									<effecttype>filter</effecttype>
									<mediatype>audio</mediatype>
									<parameter authoringApp="PremierePro">
										<parameterid>Gain(dB)</parameterid>
										<name>Gain(dB)</name>
										<valuemin>-96</valuemin>
										<valuemax>96</valuemax>
										<value>-3</value>
									</parameter>
								</effect>
							</filter>
							<filter>
								<effect>
									<name>Audio Levels</name>
									<effectid>audiolevels</effectid>
									<effectcategory>audiolevels</effectcategory>
									<effecttype>audiolevels</effecttype>
									<mediatype>audio</mediatype>
									<parameter authoringApp="PremierePro">
										<parameterid>level</parameterid>
										<name>Level</name>
										<valuemin>0</valuemin>
										<valuemax>3.98109</valuemax>
										<value>0.889044</value>
										<keyframe>
											<when>723</when>
											<value>0.889044</value>
										</keyframe>
										<keyframe>
											<when>740</when>
											<value>0.853947</value>
										</keyframe>
										<keyframe>
											<when>748</when>
											<value>0.221922</value>
										</keyframe>
									</parameter>
								</effect>
							</filter>
							<filter>
								<effect>
									<name>Audio Pan</name>
									<effectid>audiopan</effectid>
									<effectcategory>audiopan</effectcategory>
									<effecttype>audiopan</effecttype>
									<mediatype>audio</mediatype>
									<parameter authoringApp="PremierePro">
										<parameterid>pan</parameterid>
										<name>Pan</name>
										<valuemin>-1</valuemin>
										<valuemax>1</valuemax>
										<value>0</value>
									</parameter>
								</effect>
							</filter>
						<link>
							<linkclipref>clipitem-639</linkclipref>
							<mediatype>audio</mediatype>
							<trackindex>10</trackindex>
							<clipindex>14</clipindex>
							<groupindex>1</groupindex>
						</link>
						<link>
							<linkclipref>clipitem-679</linkclipref>
							<mediatype>audio</mediatype>
							<trackindex>11</trackindex>
							<clipindex>14</clipindex>
							<groupindex>1</groupindex>
						</link>
					</clipitem>
					<transitionitem>
						<start>4194</start>
						<end>4219</end>
						<alignment>center</alignment>
						<cutPoint>12</cutPoint>
						<rate>
							<timebase>25</timebase>
							<ntsc>FALSE</ntsc>
						</rate>
						<effect>
							<name>Cross Fade (+3dB)</name>
							<effectid>KGAudioTransCrossFade3dB</effectid>
							<effecttype>transition</effecttype>
							<mediatype>audio</mediatype>
							<wipecode>0</wipecode>
							<wipeaccuracy>100</wipeaccuracy>
							<startratio>0</startratio>
							<endratio>1</endratio>
							<reverse>FALSE</reverse>
						</effect>
					</transitionitem>
					<clipitem id="clipitem-640" frameBlend="FALSE" PannerCurrentValue="0.5" PannerKeyframes="" PannerStartKeyframe="-91445760000000000,0.5,0,0,0,0,0,0" PannerIsInverted="true" PannerName="Balance">
						<masterclipid>masterclip-45</masterclipid>
						<name>Ben Hur</name>
						<enabled>TRUE</enabled>
						<duration>22984</duration>
						<rate>
							<ntsc>TRUE</ntsc>
							<timebase>30</timebase>
						</rate>
						<start>-1</start>
						<end>-1</end>
						<in>5512</in>
						<out>5658</out>
						<file id="file-45"/>
						<sourcetrack>
							<mediatype>audio</mediatype>
							<trackindex>1</trackindex>
						</sourcetrack>
							<filter>
								<effect>
									<name>Audio Levels</name>
									<effectid>audiolevels</effectid>
									<effectcategory>audiolevels</effectcategory>
									<effecttype>audiolevels</effecttype>
									<mediatype>audio</mediatype>
									<parameter authoringApp="PremierePro">
										<parameterid>level</parameterid>
										<name>Level</name>
										<valuemin>0</valuemin>
										<valuemax>3.98109</valuemax>
										<value>1.25343</value>
									</parameter>
								</effect>
							</filter>
							<filter>
								<effect>
									<name>Audio Pan</name>
									<effectid>audiopan</effectid>
									<effectcategory>audiopan</effectcategory>
									<effecttype>audiopan</effecttype>
									<mediatype>audio</mediatype>
									<parameter authoringApp="PremierePro">
										<parameterid>pan</parameterid>
										<name>Pan</name>
										<valuemin>-1</valuemin>
										<valuemax>1</valuemax>
										<value>0</value>
									</parameter>
								</effect>
							</filter>
						<link>
							<linkclipref>clipitem-640</linkclipref>
							<mediatype>audio</mediatype>
							<trackindex>10</trackindex>
							<clipindex>16</clipindex>
							<groupindex>1</groupindex>
						</link>
						<link>
							<linkclipref>clipitem-680</linkclipref>
							<mediatype>audio</mediatype>
							<trackindex>11</trackindex>
							<clipindex>16</clipindex>
							<groupindex>1</groupindex>
						</link>
					</clipitem>
					<transitionitem>
						<start>4315</start>
						<end>4340</end>
						<alignment>center</alignment>
						<cutPoint>12</cutPoint>
						<rate>
							<timebase>25</timebase>
							<ntsc>FALSE</ntsc>
						</rate>
						<effect>
							<name>Cross Fade (+3dB)</name>
							<effectid>KGAudioTransCrossFade3dB</effectid>
							<effecttype>transition</effecttype>
							<mediatype>audio</mediatype>
							<wipecode>0</wipecode>
							<wipeaccuracy>100</wipeaccuracy>
							<startratio>0</startratio>
							<endratio>1</endratio>
							<reverse>FALSE</reverse>
						</effect>
					</transitionitem>
					<clipitem id="clipitem-641" frameBlend="FALSE" PannerCurrentValue="0.5" PannerKeyframes="" PannerStartKeyframe="-91445760000000000,0.5,0,0,0,0,0,0" PannerIsInverted="true" PannerName="Balance">
						<masterclipid>masterclip-38</masterclipid>
						<name>Cleopatra</name>
						<enabled>TRUE</enabled>
						<duration>10842</duration>
						<rate>
							<ntsc>TRUE</ntsc>
							<timebase>30</timebase>
						</rate>
						<start>-1</start>
						<end>4734</end>
						<in>5637</in>
						<out>6056</out>
						<file id="file-38"/>
						<sourcetrack>
							<mediatype>audio</mediatype>
							<trackindex>1</trackindex>
						</sourcetrack>
							<filter>
								<effect>
									<name>Gain</name>
									<effectid>{61756678, 4761696e, 4b657947}</effectid>
									<effecttype>filter</effecttype>
									<mediatype>audio</mediatype>
									<parameter authoringApp="PremierePro">
										<parameterid>Gain(dB)</parameterid>
										<name>Gain(dB)</name>
										<valuemin>-96</valuemin>
										<valuemax>96</valuemax>
										<value>-3</value>
									</parameter>
								</effect>
							</filter>
							<filter>
								<effect>
									<name>Audio Levels</name>
									<effectid>audiolevels</effectid>
									<effectcategory>audiolevels</effectcategory>
									<effecttype>audiolevels</effecttype>
									<mediatype>audio</mediatype>
									<parameter authoringApp="PremierePro">
										<parameterid>level</parameterid>
										<name>Level</name>
										<valuemin>0</valuemin>
										<valuemax>3.98109</valuemax>
										<value>0.115607</value>
										<keyframe>
											<when>5773</when>
											<value>0.64846</value>
										</keyframe>
										<keyframe>
											<when>5788</when>
											<value>0.639138</value>
										</keyframe>
										<keyframe>
											<when>5795</when>
											<value>0.122836</value>
										</keyframe>
										<keyframe>
											<when>5799</when>
											<value>0.115607</value>
										</keyframe>
									</parameter>
								</effect>
							</filter>
							<filter>
								<effect>
									<name>Audio Pan</name>
									<effectid>audiopan</effectid>
									<effectcategory>audiopan</effectcategory>
									<effecttype>audiopan</effecttype>
									<mediatype>audio</mediatype>
									<parameter authoringApp="PremierePro">
										<parameterid>pan</parameterid>
										<name>Pan</name>
										<valuemin>-1</valuemin>
										<valuemax>1</valuemax>
										<value>0</value>
									</parameter>
								</effect>
							</filter>
						<link>
							<linkclipref>clipitem-641</linkclipref>
							<mediatype>audio</mediatype>
							<trackindex>10</trackindex>
							<clipindex>18</clipindex>
							<groupindex>1</groupindex>
						</link>
						<link>
							<linkclipref>clipitem-681</linkclipref>
							<mediatype>audio</mediatype>
							<trackindex>11</trackindex>
							<clipindex>18</clipindex>
							<groupindex>1</groupindex>
						</link>
					</clipitem>
					<clipitem id="clipitem-642" frameBlend="FALSE" PannerCurrentValue="0.5" PannerKeyframes="" PannerStartKeyframe="-91445760000000000,0.5,0,0,0,0,0,0" PannerIsInverted="true" PannerName="Balance">
						<masterclipid>masterclip-38</masterclipid>
						<name>Cleopatra</name>
						<enabled>TRUE</enabled>
						<duration>10842</duration>
						<rate>
							<ntsc>TRUE</ntsc>
							<timebase>30</timebase>
						</rate>
						<start>4734</start>
						<end>-1</end>
						<in>6056</in>
						<out>6214</out>
						<file id="file-38"/>
						<sourcetrack>
							<mediatype>audio</mediatype>
							<trackindex>1</trackindex>
						</sourcetrack>
							<filter>
								<effect>
									<name>Audio Levels</name>
									<effectid>audiolevels</effectid>
									<effectcategory>audiolevels</effectcategory>
									<effecttype>audiolevels</effecttype>
									<mediatype>audio</mediatype>
									<parameter authoringApp="PremierePro">
										<parameterid>level</parameterid>
										<name>Level</name>
										<valuemin>0</valuemin>
										<valuemax>3.98109</valuemax>
										<value>0.0748875</value>
										<keyframe>
											<when>5773</when>
											<value>0.64846</value>
										</keyframe>
										<keyframe>
											<when>5799</when>
											<value>0.12918</value>
										</keyframe>
										<keyframe>
											<when>6074</when>
											<value>0.12918</value>
										</keyframe>
										<keyframe>
											<when>6092</when>
											<value>0.0748875</value>
										</keyframe>
									</parameter>
								</effect>
							</filter>
							<filter>
								<effect>
									<name>Audio Pan</name>
									<effectid>audiopan</effectid>
									<effectcategory>audiopan</effectcategory>
									<effecttype>audiopan</effecttype>
									<mediatype>audio</mediatype>
									<parameter authoringApp="PremierePro">
										<parameterid>pan</parameterid>
										<name>Pan</name>
										<valuemin>-1</valuemin>
										<valuemax>1</valuemax>
										<value>0</value>
									</parameter>
								</effect>
							</filter>
						<link>
							<linkclipref>clipitem-642</linkclipref>
							<mediatype>audio</mediatype>
							<trackindex>10</trackindex>
							<clipindex>19</clipindex>
							<groupindex>1</groupindex>
						</link>
						<link>
							<linkclipref>clipitem-682</linkclipref>
							<mediatype>audio</mediatype>
							<trackindex>11</trackindex>
							<clipindex>19</clipindex>
							<groupindex>1</groupindex>
						</link>
					</clipitem>
					<transitionitem>
						<start>4867</start>
						<end>4892</end>
						<alignment>center</alignment>
						<cutPoint>12</cutPoint>
						<rate>
							<timebase>25</timebase>
							<ntsc>FALSE</ntsc>
						</rate>
						<effect>
							<name>Cross Fade (+3dB)</name>
							<effectid>KGAudioTransCrossFade3dB</effectid>
							<effecttype>transition</effecttype>
							<mediatype>audio</mediatype>
							<wipecode>0</wipecode>
							<wipeaccuracy>100</wipeaccuracy>
							<startratio>0</startratio>
							<endratio>1</endratio>
							<reverse>FALSE</reverse>
						</effect>
					</transitionitem>
					<clipitem id="clipitem-643" frameBlend="FALSE" PannerCurrentValue="0.5" PannerKeyframes="" PannerStartKeyframe="-91445760000000000,0.5,0,0,0,0,0,0" PannerIsInverted="true" PannerName="Balance">
						<masterclipid>masterclip-38</masterclipid>
						<name>Cleopatra</name>
						<enabled>TRUE</enabled>
						<duration>10842</duration>
						<rate>
							<ntsc>TRUE</ntsc>
							<timebase>30</timebase>
						</rate>
						<start>-1</start>
						<end>-1</end>
						<in>7708</in>
						<out>8245</out>
						<file id="file-38"/>
						<sourcetrack>
							<mediatype>audio</mediatype>
							<trackindex>1</trackindex>
						</sourcetrack>
							<filter>
								<effect>
									<name>Audio Levels</name>
									<effectid>audiolevels</effectid>
									<effectcategory>audiolevels</effectcategory>
									<effecttype>audiolevels</effecttype>
									<mediatype>audio</mediatype>
									<parameter authoringApp="PremierePro">
										<parameterid>level</parameterid>
										<name>Level</name>
										<valuemin>0</valuemin>
										<valuemax>3.98109</valuemax>
										<value>0.0600353</value>
									</parameter>
								</effect>
							</filter>
							<filter>
								<effect>
									<name>Audio Pan</name>
									<effectid>audiopan</effectid>
									<effectcategory>audiopan</effectcategory>
									<effecttype>audiopan</effecttype>
									<mediatype>audio</mediatype>
									<parameter authoringApp="PremierePro">
										<parameterid>pan</parameterid>
										<name>Pan</name>
										<valuemin>-1</valuemin>
										<valuemax>1</valuemax>
										<value>0</value>
									</parameter>
								</effect>
							</filter>
						<link>
							<linkclipref>clipitem-643</linkclipref>
							<mediatype>audio</mediatype>
							<trackindex>10</trackindex>
							<clipindex>21</clipindex>
							<groupindex>1</groupindex>
						</link>
						<link>
							<linkclipref>clipitem-683</linkclipref>
							<mediatype>audio</mediatype>
							<trackindex>11</trackindex>
							<clipindex>21</clipindex>
							<groupindex>1</groupindex>
						</link>
					</clipitem>
					<transitionitem>
						<start>5379</start>
						<end>5404</end>
						<alignment>center</alignment>
						<cutPoint>12</cutPoint>
						<rate>
							<timebase>25</timebase>
							<ntsc>FALSE</ntsc>
						</rate>
						<effect>
							<name>Cross Fade (+3dB)</name>
							<effectid>KGAudioTransCrossFade3dB</effectid>
							<effecttype>transition</effecttype>
							<mediatype>audio</mediatype>
							<wipecode>0</wipecode>
							<wipeaccuracy>100</wipeaccuracy>
							<startratio>0</startratio>
							<endratio>1</endratio>
							<reverse>FALSE</reverse>
						</effect>
					</transitionitem>
					<clipitem id="clipitem-644" frameBlend="FALSE" PannerCurrentValue="0.5" PannerKeyframes="" PannerStartKeyframe="-91445760000000000,0.5,0,0,0,0,0,0" PannerIsInverted="true" PannerName="Balance">
						<masterclipid>masterclip-36</masterclipid>
						<name>filmb-apocalypsenow_1.mxf</name>
						<enabled>TRUE</enabled>
						<duration>9706</duration>
						<rate>
							<ntsc>TRUE</ntsc>
							<timebase>30</timebase>
						</rate>
						<start>-1</start>
						<end>5522</end>
						<in>3777</in>
						<out>3920</out>
						<file id="file-36"/>
						<sourcetrack>
							<mediatype>audio</mediatype>
							<trackindex>1</trackindex>
						</sourcetrack>
							<filter>
								<effect>
									<name>Gain</name>
									<effectid>{61756678, 4761696e, 4b657947}</effectid>
									<effecttype>filter</effecttype>
									<mediatype>audio</mediatype>
									<parameter authoringApp="PremierePro">
										<parameterid>Gain(dB)</parameterid>
										<name>Gain(dB)</name>
										<valuemin>-96</valuemin>
										<valuemax>96</valuemax>
										<value>6</value>
									</parameter>
								</effect>
							</filter>
							<filter>
								<effect>
									<name>Audio Pan</name>
									<effectid>audiopan</effectid>
									<effectcategory>audiopan</effectcategory>
									<effecttype>audiopan</effecttype>
									<mediatype>audio</mediatype>
									<parameter authoringApp="PremierePro">
										<parameterid>pan</parameterid>
										<name>Pan</name>
										<valuemin>-1</valuemin>
										<valuemax>1</valuemax>
										<value>0</value>
									</parameter>
								</effect>
							</filter>
						<link>
							<linkclipref>clipitem-644</linkclipref>
							<mediatype>audio</mediatype>
							<trackindex>10</trackindex>
							<clipindex>23</clipindex>
							<groupindex>1</groupindex>
						</link>
						<link>
							<linkclipref>clipitem-684</linkclipref>
							<mediatype>audio</mediatype>
							<trackindex>11</trackindex>
							<clipindex>23</clipindex>
							<groupindex>1</groupindex>
						</link>
					</clipitem>
					<clipitem id="clipitem-645" frameBlend="FALSE" PannerCurrentValue="0.5" PannerKeyframes="" PannerStartKeyframe="-91445760000000000,0.5,0,0,0,0,0,0" PannerIsInverted="true" PannerName="Balance">
						<masterclipid>masterclip-46</masterclipid>
						<name>Hearts of darknes</name>
						<enabled>TRUE</enabled>
						<duration>14260</duration>
						<rate>
							<ntsc>TRUE</ntsc>
							<timebase>30</timebase>
						</rate>
						<start>6277</start>
						<end>6882</end>
						<in>6059</in>
						<out>6664</out>
						<file id="file-46"/>
						<sourcetrack>
							<mediatype>audio</mediatype>
							<trackindex>1</trackindex>
						</sourcetrack>
							<filter>
								<effect>
									<name>Audio Levels</name>
									<effectid>audiolevels</effectid>
									<effectcategory>audiolevels</effectcategory>
									<effecttype>audiolevels</effecttype>
									<mediatype>audio</mediatype>
									<parameter authoringApp="PremierePro">
										<parameterid>level</parameterid>
										<name>Level</name>
										<valuemin>0</valuemin>
										<valuemax>3.98109</valuemax>
										<value>0.113133</value>
										<keyframe>
											<when>6114</when>
											<value>0.113133</value>
										</keyframe>
										<keyframe>
											<when>6142</when>
											<value>0.99763</value>
										</keyframe>
										<keyframe>
											<when>6340</when>
											<value>0.99763</value>
										</keyframe>
										<keyframe>
											<when>6365</when>
											<value>0.0951922</value>
										</keyframe>
										<keyframe>
											<when>6476</when>
											<value>0.137644</value>
										</keyframe>
										<keyframe>
											<when>6489</when>
											<value>0.0659585</value>
										</keyframe>
									</parameter>
								</effect>
							</filter>
							<filter>
								<effect>
									<name>Audio Pan</name>
									<effectid>audiopan</effectid>
									<effectcategory>audiopan</effectcategory>
									<effecttype>audiopan</effecttype>
									<mediatype>audio</mediatype>
									<parameter authoringApp="PremierePro">
										<parameterid>pan</parameterid>
										<name>Pan</name>
										<valuemin>-1</valuemin>
										<valuemax>1</valuemax>
										<value>0</value>
									</parameter>
								</effect>
							</filter>
						<link>
							<linkclipref>clipitem-645</linkclipref>
							<mediatype>audio</mediatype>
							<trackindex>10</trackindex>
							<clipindex>24</clipindex>
							<groupindex>1</groupindex>
						</link>
						<link>
							<linkclipref>clipitem-685</linkclipref>
							<mediatype>audio</mediatype>
							<trackindex>11</trackindex>
							<clipindex>24</clipindex>
							<groupindex>1</groupindex>
						</link>
					</clipitem>
					<transitionitem>
						<start>7352</start>
						<end>7377</end>
						<alignment>start-black</alignment>
						<cutPoint>0</cutPoint>
						<rate>
							<timebase>25</timebase>
							<ntsc>FALSE</ntsc>
						</rate>
						<effect>
							<name>Cross Fade (+3dB)</name>
							<effectid>KGAudioTransCrossFade3dB</effectid>
							<effecttype>transition</effecttype>
							<mediatype>audio</mediatype>
							<wipecode>0</wipecode>
							<wipeaccuracy>100</wipeaccuracy>
							<startratio>0</startratio>
							<endratio>1</endratio>
							<reverse>FALSE</reverse>
						</effect>
					</transitionitem>
					<clipitem id="clipitem-646" frameBlend="FALSE" PannerCurrentValue="0.5" PannerKeyframes="" PannerStartKeyframe="-91445760000000000,0.5,0,0,0,0,0,0" PannerIsInverted="true" PannerName="Balance">
						<masterclipid>masterclip-49</masterclipid>
						<name>filmb-heavensgate_1_1.mxf</name>
						<enabled>TRUE</enabled>
						<duration>15828</duration>
						<rate>
							<ntsc>TRUE</ntsc>
							<timebase>30</timebase>
						</rate>
						<start>-1</start>
						<end>-1</end>
						<in>1393</in>
						<out>1533</out>
						<file id="file-49"/>
						<sourcetrack>
							<mediatype>audio</mediatype>
							<trackindex>1</trackindex>
						</sourcetrack>
							<filter>
								<effect>
									<name>Gain</name>
									<effectid>{61756678, 4761696e, 4b657947}</effectid>
									<effecttype>filter</effecttype>
									<mediatype>audio</mediatype>
									<parameter authoringApp="PremierePro">
										<parameterid>Gain(dB)</parameterid>
										<name>Gain(dB)</name>
										<valuemin>-96</valuemin>
										<valuemax>96</valuemax>
										<value>4</value>
									</parameter>
								</effect>
							</filter>
							<filter>
								<effect>
									<name>Audio Levels</name>
									<effectid>audiolevels</effectid>
									<effectcategory>audiolevels</effectcategory>
									<effecttype>audiolevels</effecttype>
									<mediatype>audio</mediatype>
									<parameter authoringApp="PremierePro">
										<parameterid>level</parameterid>
										<name>Level</name>
										<valuemin>0</valuemin>
										<valuemax>3.98109</valuemax>
										<value>0.99763</value>
										<keyframe>
											<when>1430</when>
											<value>0.17238</value>
										</keyframe>
										<keyframe>
											<when>1440</when>
											<value>0.99763</value>
										</keyframe>
									</parameter>
								</effect>
							</filter>
							<filter>
								<effect>
									<name>Audio Pan</name>
									<effectid>audiopan</effectid>
									<effectcategory>audiopan</effectcategory>
									<effecttype>audiopan</effecttype>
									<mediatype>audio</mediatype>
									<parameter authoringApp="PremierePro">
										<parameterid>pan</parameterid>
										<name>Pan</name>
										<valuemin>-1</valuemin>
										<valuemax>1</valuemax>
										<value>0</value>
									</parameter>
								</effect>
							</filter>
						<link>
							<linkclipref>clipitem-646</linkclipref>
							<mediatype>audio</mediatype>
							<trackindex>10</trackindex>
							<clipindex>26</clipindex>
							<groupindex>1</groupindex>
						</link>
						<link>
							<linkclipref>clipitem-686</linkclipref>
							<mediatype>audio</mediatype>
							<trackindex>11</trackindex>
							<clipindex>26</clipindex>
							<groupindex>1</groupindex>
						</link>
					</clipitem>
					<transitionitem>
						<start>7486</start>
						<end>7492</end>
						<alignment>center</alignment>
						<cutPoint>3</cutPoint>
						<rate>
							<timebase>25</timebase>
							<ntsc>FALSE</ntsc>
						</rate>
						<effect>
							<name>Cross Fade (+3dB)</name>
							<effectid>KGAudioTransCrossFade3dB</effectid>
							<effecttype>transition</effecttype>
							<mediatype>audio</mediatype>
							<wipecode>0</wipecode>
							<wipeaccuracy>100</wipeaccuracy>
							<startratio>0</startratio>
							<endratio>1</endratio>
							<reverse>FALSE</reverse>
						</effect>
					</transitionitem>
					<clipitem id="clipitem-647" frameBlend="FALSE" PannerCurrentValue="0.5" PannerKeyframes="" PannerStartKeyframe="-91445760000000000,0.5,0,0,0,0,0,0" PannerIsInverted="true" PannerName="Balance">
						<masterclipid>masterclip-49</masterclipid>
						<name>filmb-heavensgate_1_1.mxf</name>
						<enabled>TRUE</enabled>
						<duration>15828</duration>
						<rate>
							<ntsc>TRUE</ntsc>
							<timebase>30</timebase>
						</rate>
						<start>-1</start>
						<end>7634</end>
						<in>2042</in>
						<out>2190</out>
						<file id="file-49"/>
						<sourcetrack>
							<mediatype>audio</mediatype>
							<trackindex>1</trackindex>
						</sourcetrack>
							<filter>
								<effect>
									<name>Gain</name>
									<effectid>{61756678, 4761696e, 4b657947}</effectid>
									<effecttype>filter</effecttype>
									<mediatype>audio</mediatype>
									<parameter authoringApp="PremierePro">
										<parameterid>Gain(dB)</parameterid>
										<name>Gain(dB)</name>
										<valuemin>-96</valuemin>
										<valuemax>96</valuemax>
										<value>4</value>
									</parameter>
								</effect>
							</filter>
							<filter>
								<effect>
									<name>Audio Pan</name>
									<effectid>audiopan</effectid>
									<effectcategory>audiopan</effectcategory>
									<effecttype>audiopan</effecttype>
									<mediatype>audio</mediatype>
									<parameter authoringApp="PremierePro">
										<parameterid>pan</parameterid>
										<name>Pan</name>
										<valuemin>-1</valuemin>
										<valuemax>1</valuemax>
										<value>0</value>
									</parameter>
								</effect>
							</filter>
						<link>
							<linkclipref>clipitem-647</linkclipref>
							<mediatype>audio</mediatype>
							<trackindex>10</trackindex>
							<clipindex>28</clipindex>
							<groupindex>1</groupindex>
						</link>
						<link>
							<linkclipref>clipitem-687</linkclipref>
							<mediatype>audio</mediatype>
							<trackindex>11</trackindex>
							<clipindex>28</clipindex>
							<groupindex>1</groupindex>
						</link>
					</clipitem>
					<transitionitem>
						<start>8097</start>
						<end>8108</end>
						<alignment>start-black</alignment>
						<cutPoint>0</cutPoint>
						<rate>
							<timebase>25</timebase>
							<ntsc>FALSE</ntsc>
						</rate>
						<effect>
							<name>Cross Fade (+3dB)</name>
							<effectid>KGAudioTransCrossFade3dB</effectid>
							<effecttype>transition</effecttype>
							<mediatype>audio</mediatype>
							<wipecode>0</wipecode>
							<wipeaccuracy>100</wipeaccuracy>
							<startratio>0</startratio>
							<endratio>1</endratio>
							<reverse>FALSE</reverse>
						</effect>
					</transitionitem>
					<clipitem id="clipitem-648" frameBlend="FALSE" PannerCurrentValue="0.5" PannerKeyframes="" PannerStartKeyframe="-91445760000000000,0.5,0,0,0,0,0,0" PannerIsInverted="true" PannerName="Balance">
						<masterclipid>masterclip-55</masterclipid>
						<name>heavens_gate_willem_dafoe</name>
						<enabled>TRUE</enabled>
						<duration>2291</duration>
						<rate>
							<ntsc>TRUE</ntsc>
							<timebase>30</timebase>
						</rate>
						<start>-1</start>
						<end>-1</end>
						<in>898</in>
						<out>939</out>
						<file id="file-55"/>
						<sourcetrack>
							<mediatype>audio</mediatype>
							<trackindex>1</trackindex>
						</sourcetrack>
							<filter>
								<effect>
									<name>Gain</name>
									<effectid>{61756678, 4761696e, 4b657947}</effectid>
									<effecttype>filter</effecttype>
									<mediatype>audio</mediatype>
									<parameter authoringApp="PremierePro">
										<parameterid>Gain(dB)</parameterid>
										<name>Gain(dB)</name>
										<valuemin>-96</valuemin>
										<valuemax>96</valuemax>
										<value>-4</value>
									</parameter>
								</effect>
							</filter>
							<filter>
								<effect>
									<name>Audio Pan</name>
									<effectid>audiopan</effectid>
									<effectcategory>audiopan</effectcategory>
									<effecttype>audiopan</effecttype>
									<mediatype>audio</mediatype>
									<parameter authoringApp="PremierePro">
										<parameterid>pan</parameterid>
										<name>Pan</name>
										<valuemin>-1</valuemin>
										<valuemax>1</valuemax>
										<value>0</value>
									</parameter>
								</effect>
							</filter>
						<link>
							<linkclipref>clipitem-648</linkclipref>
							<mediatype>audio</mediatype>
							<trackindex>10</trackindex>
							<clipindex>30</clipindex>
							<groupindex>1</groupindex>
						</link>
						<link>
							<linkclipref>clipitem-688</linkclipref>
							<mediatype>audio</mediatype>
							<trackindex>11</trackindex>
							<clipindex>30</clipindex>
							<groupindex>1</groupindex>
						</link>
					</clipitem>
					<transitionitem>
						<start>8131</start>
						<end>8138</end>
						<alignment>center</alignment>
						<cutPoint>3</cutPoint>
						<rate>
							<timebase>25</timebase>
							<ntsc>FALSE</ntsc>
						</rate>
						<effect>
							<name>Cross Fade (+3dB)</name>
							<effectid>KGAudioTransCrossFade3dB</effectid>
							<effecttype>transition</effecttype>
							<mediatype>audio</mediatype>
							<wipecode>0</wipecode>
							<wipeaccuracy>100</wipeaccuracy>
							<startratio>0</startratio>
							<endratio>1</endratio>
							<reverse>FALSE</reverse>
						</effect>
					</transitionitem>
					<clipitem id="clipitem-649" frameBlend="FALSE" PannerCurrentValue="0.5" PannerKeyframes="" PannerStartKeyframe="-91445760000000000,0.5,0,0,0,0,0,0" PannerIsInverted="true" PannerName="Balance">
						<masterclipid>masterclip-55</masterclipid>
						<name>heavens_gate_willem_dafoe</name>
						<enabled>TRUE</enabled>
						<duration>2291</duration>
						<rate>
							<ntsc>TRUE</ntsc>
							<timebase>30</timebase>
						</rate>
						<start>-1</start>
						<end>-1</end>
						<in>1337</in>
						<out>1534</out>
						<file id="file-55"/>
						<sourcetrack>
							<mediatype>audio</mediatype>
							<trackindex>1</trackindex>
						</sourcetrack>
							<filter>
								<effect>
									<name>Gain</name>
									<effectid>{61756678, 4761696e, 4b657947}</effectid>
									<effecttype>filter</effecttype>
									<mediatype>audio</mediatype>
									<parameter authoringApp="PremierePro">
										<parameterid>Gain(dB)</parameterid>
										<name>Gain(dB)</name>
										<valuemin>-96</valuemin>
										<valuemax>96</valuemax>
										<value>-5</value>
									</parameter>
								</effect>
							</filter>
							<filter>
								<effect>
									<name>Audio Levels</name>
									<effectid>audiolevels</effectid>
									<effectcategory>audiolevels</effectcategory>
									<effecttype>audiolevels</effecttype>
									<mediatype>audio</mediatype>
									<parameter authoringApp="PremierePro">
										<parameterid>level</parameterid>
										<name>Level</name>
										<valuemin>0</valuemin>
										<valuemax>3.98109</valuemax>
										<value>0.598578</value>
									</parameter>
								</effect>
							</filter>
							<filter>
								<effect>
									<name>Audio Pan</name>
									<effectid>audiopan</effectid>
									<effectcategory>audiopan</effectcategory>
									<effecttype>audiopan</effecttype>
									<mediatype>audio</mediatype>
									<parameter authoringApp="PremierePro">
										<parameterid>pan</parameterid>
										<name>Pan</name>
										<valuemin>-1</valuemin>
										<valuemax>1</valuemax>
										<value>0</value>
									</parameter>
								</effect>
							</filter>
						<link>
							<linkclipref>clipitem-649</linkclipref>
							<mediatype>audio</mediatype>
							<trackindex>10</trackindex>
							<clipindex>32</clipindex>
							<groupindex>1</groupindex>
						</link>
						<link>
							<linkclipref>clipitem-689</linkclipref>
							<mediatype>audio</mediatype>
							<trackindex>11</trackindex>
							<clipindex>32</clipindex>
							<groupindex>1</groupindex>
						</link>
					</clipitem>
					<transitionitem>
						<start>8303</start>
						<end>8328</end>
						<alignment>center</alignment>
						<cutPoint>12</cutPoint>
						<rate>
							<timebase>25</timebase>
							<ntsc>FALSE</ntsc>
						</rate>
						<effect>
							<name>Cross Fade (+3dB)</name>
							<effectid>KGAudioTransCrossFade3dB</effectid>
							<effecttype>transition</effecttype>
							<mediatype>audio</mediatype>
							<wipecode>0</wipecode>
							<wipeaccuracy>100</wipeaccuracy>
							<startratio>0</startratio>
							<endratio>1</endratio>
							<reverse>FALSE</reverse>
						</effect>
					</transitionitem>
					<clipitem id="clipitem-650" frameBlend="FALSE" PannerCurrentValue="0.5" PannerKeyframes="" PannerStartKeyframe="-91445760000000000,0.5,0,0,0,0,0,0" PannerIsInverted="true" PannerName="Balance">
						<masterclipid>masterclip-55</masterclipid>
						<name>heavens_gate_willem_dafoe</name>
						<enabled>TRUE</enabled>
						<duration>2291</duration>
						<rate>
							<ntsc>TRUE</ntsc>
							<timebase>30</timebase>
						</rate>
						<start>-1</start>
						<end>-1</end>
						<in>1509</in>
						<out>1556</out>
						<file id="file-55"/>
						<sourcetrack>
							<mediatype>audio</mediatype>
							<trackindex>1</trackindex>
						</sourcetrack>
							<filter>
								<effect>
									<name>Gain</name>
									<effectid>{61756678, 4761696e, 4b657947}</effectid>
									<effecttype>filter</effecttype>
									<mediatype>audio</mediatype>
									<parameter authoringApp="PremierePro">
										<parameterid>Gain(dB)</parameterid>
										<name>Gain(dB)</name>
										<valuemin>-96</valuemin>
										<valuemax>96</valuemax>
										<value>-2</value>
									</parameter>
								</effect>
							</filter>
							<filter>
								<effect>
									<name>Audio Pan</name>
									<effectid>audiopan</effectid>
									<effectcategory>audiopan</effectcategory>
									<effecttype>audiopan</effecttype>
									<mediatype>audio</mediatype>
									<parameter authoringApp="PremierePro">
										<parameterid>pan</parameterid>
										<name>Pan</name>
										<valuemin>-1</valuemin>
										<valuemax>1</valuemax>
										<value>0</value>
									</parameter>
								</effect>
							</filter>
						<link>
							<linkclipref>clipitem-650</linkclipref>
							<mediatype>audio</mediatype>
							<trackindex>10</trackindex>
							<clipindex>34</clipindex>
							<groupindex>1</groupindex>
						</link>
						<link>
							<linkclipref>clipitem-690</linkclipref>
							<mediatype>audio</mediatype>
							<trackindex>11</trackindex>
							<clipindex>34</clipindex>
							<groupindex>1</groupindex>
						</link>
					</clipitem>
					<transitionitem>
						<start>8334</start>
						<end>8350</end>
						<alignment>end</alignment>
						<cutPoint>12</cutPoint>
						<rate>
							<timebase>25</timebase>
							<ntsc>FALSE</ntsc>
						</rate>
						<effect>
							<name>Cross Fade (+3dB)</name>
							<effectid>KGAudioTransCrossFade3dB</effectid>
							<effecttype>transition</effecttype>
							<mediatype>audio</mediatype>
							<wipecode>0</wipecode>
							<wipeaccuracy>100</wipeaccuracy>
							<startratio>0</startratio>
							<endratio>1</endratio>
							<reverse>FALSE</reverse>
						</effect>
					</transitionitem>
					<clipitem id="clipitem-651" frameBlend="FALSE" PannerCurrentValue="0.5" PannerKeyframes="" PannerStartKeyframe="-91445760000000000,0.5,0,0,0,0,0,0" PannerIsInverted="true" PannerName="Balance">
						<masterclipid>masterclip-55</masterclipid>
						<name>heavens_gate_willem_dafoe</name>
						<enabled>TRUE</enabled>
						<duration>2291</duration>
						<rate>
							<ntsc>TRUE</ntsc>
							<timebase>30</timebase>
						</rate>
						<start>-1</start>
						<end>-1</end>
						<in>1540</in>
						<out>1724</out>
						<file id="file-55"/>
						<sourcetrack>
							<mediatype>audio</mediatype>
							<trackindex>1</trackindex>
						</sourcetrack>
							<filter>
								<effect>
									<name>Gain</name>
									<effectid>{61756678, 4761696e, 4b657947}</effectid>
									<effecttype>filter</effecttype>
									<mediatype>audio</mediatype>
									<parameter authoringApp="PremierePro">
										<parameterid>Gain(dB)</parameterid>
										<name>Gain(dB)</name>
										<valuemin>-96</valuemin>
										<valuemax>96</valuemax>
										<value>-2</value>
									</parameter>
								</effect>
							</filter>
							<filter>
								<effect>
									<name>Audio Levels</name>
									<effectid>audiolevels</effectid>
									<effectcategory>audiolevels</effectcategory>
									<effecttype>audiolevels</effecttype>
									<mediatype>audio</mediatype>
									<parameter authoringApp="PremierePro">
										<parameterid>level</parameterid>
										<name>Level</name>
										<valuemin>0</valuemin>
										<valuemax>3.98109</valuemax>
										<value>0.598578</value>
									</parameter>
								</effect>
							</filter>
							<filter>
								<effect>
									<name>Audio Pan</name>
									<effectid>audiopan</effectid>
									<effectcategory>audiopan</effectcategory>
									<effecttype>audiopan</effecttype>
									<mediatype>audio</mediatype>
									<parameter authoringApp="PremierePro">
										<parameterid>pan</parameterid>
										<name>Pan</name>
										<valuemin>-1</valuemin>
										<valuemax>1</valuemax>
										<value>0</value>
									</parameter>
								</effect>
							</filter>
						<link>
							<linkclipref>clipitem-651</linkclipref>
							<mediatype>audio</mediatype>
							<trackindex>10</trackindex>
							<clipindex>36</clipindex>
							<groupindex>1</groupindex>
						</link>
						<link>
							<linkclipref>clipitem-691</linkclipref>
							<mediatype>audio</mediatype>
							<trackindex>11</trackindex>
							<clipindex>36</clipindex>
							<groupindex>1</groupindex>
						</link>
					</clipitem>
					<transitionitem>
						<start>8459</start>
						<end>8518</end>
						<alignment>end-black</alignment>
						<cutPoint>59</cutPoint>
						<rate>
							<timebase>25</timebase>
							<ntsc>FALSE</ntsc>
						</rate>
						<effect>
							<name>Cross Fade (+3dB)</name>
							<effectid>KGAudioTransCrossFade3dB</effectid>
							<effecttype>transition</effecttype>
							<mediatype>audio</mediatype>
							<wipecode>0</wipecode>
							<wipeaccuracy>100</wipeaccuracy>
							<startratio>0</startratio>
							<endratio>1</endratio>
							<reverse>FALSE</reverse>
						</effect>
					</transitionitem>
					<clipitem id="clipitem-652" frameBlend="FALSE" PannerCurrentValue="0.5" PannerKeyframes="" PannerStartKeyframe="-91445760000000000,0.5,0,0,0,0,0,0" PannerIsInverted="true" PannerName="Balance">
						<masterclipid>masterclip-210</masterclipid>
						<name>Dykking med sonar.WAV</name>
						<enabled>TRUE</enabled>
						<duration>1771</duration>
						<rate>
							<timebase>30</timebase>
							<ntsc>TRUE</ntsc>
						</rate>
						<start>8826</start>
						<end>9215</end>
						<in>0</in>
						<out>389</out>
						<file id="file-209">
							<name>Dykking med sonar.WAV</name>
							<pathurl>file://localhost/Volumes/Scenen/Prosjekter/FILM/FILM%201413%20Master%20Filmbonanza%20Program%206%20H%c3%b8sten%202013/Lydffekter/Dykking%20med%20sonar.WAV</pathurl>
							<rate>
								<timebase>30</timebase>
								<ntsc>TRUE</ntsc>
							</rate>
							<duration>2124</duration>
							<timecode>
								<rate>
									<timebase>30</timebase>
									<ntsc>TRUE</ntsc>
								</rate>
								<string>00;00;00;00</string>
								<frame>0</frame>
								<displayformat>DF</displayformat>
							</timecode>
							<media>
								<audio>
									<samplecharacteristics>
										<depth>16</depth>
										<samplerate>48000</samplerate>
									</samplecharacteristics>
									<channelcount>2</channelcount>
								</audio>
							</media>
						</file>
						<sourcetrack>
							<mediatype>audio</mediatype>
							<trackindex>1</trackindex>
						</sourcetrack>
							<filter>
								<effect>
									<name>Audio Levels</name>
									<effectid>audiolevels</effectid>
									<effectcategory>audiolevels</effectcategory>
									<effecttype>audiolevels</effecttype>
									<mediatype>audio</mediatype>
									<parameter authoringApp="PremierePro">
										<parameterid>level</parameterid>
										<name>Level</name>
										<valuemin>0</valuemin>
										<valuemax>3.98109</valuemax>
										<value>0</value>
										<keyframe>
											<when>212</when>
											<value>0.758677</value>
										</keyframe>
										<keyframe>
											<when>234</when>
											<value>0.244927</value>
										</keyframe>
										<keyframe>
											<when>340</when>
											<value>0.244927</value>
										</keyframe>
										<keyframe>
											<when>350</when>
											<value>0</value>
										</keyframe>
										<keyframe>
											<when>448</when>
											<value>0</value>
										</keyframe>
										<keyframe>
											<when>468</when>
											<value>0.406221</value>
										</keyframe>
									</parameter>
								</effect>
							</filter>
							<filter>
								<effect>
									<name>Audio Pan</name>
									<effectid>audiopan</effectid>
									<effectcategory>audiopan</effectcategory>
									<effecttype>audiopan</effecttype>
									<mediatype>audio</mediatype>
									<parameter authoringApp="PremierePro">
										<parameterid>pan</parameterid>
										<name>Pan</name>
										<valuemin>-1</valuemin>
										<valuemax>1</valuemax>
										<value>0</value>
									</parameter>
								</effect>
							</filter>
						<link>
							<linkclipref>clipitem-652</linkclipref>
							<mediatype>audio</mediatype>
							<trackindex>10</trackindex>
							<clipindex>38</clipindex>
							<groupindex>1</groupindex>
						</link>
						<link>
							<linkclipref>clipitem-692</linkclipref>
							<mediatype>audio</mediatype>
							<trackindex>11</trackindex>
							<clipindex>38</clipindex>
							<groupindex>1</groupindex>
						</link>
					</clipitem>
					<clipitem id="clipitem-653" frameBlend="FALSE" PannerCurrentValue="0.5" PannerKeyframes="" PannerStartKeyframe="-91445760000000000,0.5,0,0,0,0,0,0" PannerIsInverted="true" PannerName="Balance">
						<masterclipid>masterclip-210</masterclipid>
						<name>Dykking med sonar.WAV</name>
						<enabled>TRUE</enabled>
						<duration>1771</duration>
						<rate>
							<ntsc>TRUE</ntsc>
							<timebase>30</timebase>
						</rate>
						<start>9215</start>
						<end>9229</end>
						<in>389</in>
						<out>403</out>
						<file id="file-209"/>
						<sourcetrack>
							<mediatype>audio</mediatype>
							<trackindex>1</trackindex>
						</sourcetrack>
							<filter>
								<effect>
									<name>Audio Levels</name>
									<effectid>audiolevels</effectid>
									<effectcategory>audiolevels</effectcategory>
									<effecttype>audiolevels</effecttype>
									<mediatype>audio</mediatype>
									<parameter authoringApp="PremierePro">
										<parameterid>level</parameterid>
										<name>Level</name>
										<valuemin>0</valuemin>
										<valuemax>3.98109</valuemax>
										<value>0</value>
										<keyframe>
											<when>212</when>
											<value>0.758677</value>
										</keyframe>
										<keyframe>
											<when>234</when>
											<value>0.244927</value>
										</keyframe>
										<keyframe>
											<when>340</when>
											<value>0.244927</value>
										</keyframe>
										<keyframe>
											<when>350</when>
											<value>0</value>
										</keyframe>
										<keyframe>
											<when>448</when>
											<value>0</value>
										</keyframe>
										<keyframe>
											<when>468</when>
											<value>0.406221</value>
										</keyframe>
									</parameter>
								</effect>
							</filter>
							<filter>
								<effect>
									<name>Audio Pan</name>
									<effectid>audiopan</effectid>
									<effectcategory>audiopan</effectcategory>
									<effecttype>audiopan</effecttype>
									<mediatype>audio</mediatype>
									<parameter authoringApp="PremierePro">
										<parameterid>pan</parameterid>
										<name>Pan</name>
										<valuemin>-1</valuemin>
										<valuemax>1</valuemax>
										<value>0</value>
									</parameter>
								</effect>
							</filter>
						<link>
							<linkclipref>clipitem-653</linkclipref>
							<mediatype>audio</mediatype>
							<trackindex>10</trackindex>
							<clipindex>39</clipindex>
							<groupindex>1</groupindex>
						</link>
						<link>
							<linkclipref>clipitem-693</linkclipref>
							<mediatype>audio</mediatype>
							<trackindex>11</trackindex>
							<clipindex>39</clipindex>
							<groupindex>1</groupindex>
						</link>
					</clipitem>
					<clipitem id="clipitem-654" frameBlend="FALSE" PannerCurrentValue="0.5" PannerKeyframes="" PannerStartKeyframe="-91445760000000000,0.5,0,0,0,0,0,0" PannerIsInverted="true" PannerName="Balance">
						<masterclipid>masterclip-210</masterclipid>
						<name>Dykking med sonar.WAV</name>
						<enabled>TRUE</enabled>
						<duration>1771</duration>
						<rate>
							<ntsc>TRUE</ntsc>
							<timebase>30</timebase>
						</rate>
						<start>9229</start>
						<end>-1</end>
						<in>371</in>
						<out>569</out>
						<file id="file-209"/>
						<sourcetrack>
							<mediatype>audio</mediatype>
							<trackindex>1</trackindex>
						</sourcetrack>
							<filter>
								<effect>
									<name>Audio Levels</name>
									<effectid>audiolevels</effectid>
									<effectcategory>audiolevels</effectcategory>
									<effecttype>audiolevels</effecttype>
									<mediatype>audio</mediatype>
									<parameter authoringApp="PremierePro">
										<parameterid>level</parameterid>
										<name>Level</name>
										<valuemin>0</valuemin>
										<valuemax>3.98109</valuemax>
										<value>0.343883</value>
										<keyframe>
											<when>212</when>
											<value>0.758677</value>
										</keyframe>
										<keyframe>
											<when>234</when>
											<value>0.244927</value>
										</keyframe>
										<keyframe>
											<when>340</when>
											<value>0.244927</value>
										</keyframe>
										<keyframe>
											<when>350</when>
											<value>0</value>
										</keyframe>
										<keyframe>
											<when>448</when>
											<value>0</value>
										</keyframe>
										<keyframe>
											<when>468</when>
											<value>0.406221</value>
										</keyframe>
										<keyframe>
											<when>496</when>
											<value>0.406221</value>
										</keyframe>
										<keyframe>
											<when>508</when>
											<value>1.21866</value>
										</keyframe>
									</parameter>
								</effect>
							</filter>
							<filter>
								<effect>
									<name>Audio Pan</name>
									<effectid>audiopan</effectid>
									<effectcategory>audiopan</effectcategory>
									<effecttype>audiopan</effecttype>
									<mediatype>audio</mediatype>
									<parameter authoringApp="PremierePro">
										<parameterid>pan</parameterid>
										<name>Pan</name>
										<valuemin>-1</valuemin>
										<valuemax>1</valuemax>
										<value>0</value>
									</parameter>
								</effect>
							</filter>
						<link>
							<linkclipref>clipitem-654</linkclipref>
							<mediatype>audio</mediatype>
							<trackindex>10</trackindex>
							<clipindex>40</clipindex>
							<groupindex>1</groupindex>
						</link>
						<link>
							<linkclipref>clipitem-694</linkclipref>
							<mediatype>audio</mediatype>
							<trackindex>11</trackindex>
							<clipindex>40</clipindex>
							<groupindex>1</groupindex>
						</link>
					</clipitem>
					<transitionitem>
						<start>9416</start>
						<end>9427</end>
						<alignment>end-black</alignment>
						<cutPoint>11</cutPoint>
						<rate>
							<timebase>25</timebase>
							<ntsc>FALSE</ntsc>
						</rate>
						<effect>
							<name>Cross Fade (+3dB)</name>
							<effectid>KGAudioTransCrossFade3dB</effectid>
							<effecttype>transition</effecttype>
							<mediatype>audio</mediatype>
							<wipecode>0</wipecode>
							<wipeaccuracy>100</wipeaccuracy>
							<startratio>0</startratio>
							<endratio>1</endratio>
							<reverse>FALSE</reverse>
						</effect>
					</transitionitem>
					<transitionitem>
						<start>9842</start>
						<end>9867</end>
						<alignment>start-black</alignment>
						<cutPoint>0</cutPoint>
						<rate>
							<timebase>25</timebase>
							<ntsc>FALSE</ntsc>
						</rate>
						<effect>
							<name>Cross Fade (+3dB)</name>
							<effectid>KGAudioTransCrossFade3dB</effectid>
							<effecttype>transition</effecttype>
							<mediatype>audio</mediatype>
							<wipecode>0</wipecode>
							<wipeaccuracy>100</wipeaccuracy>
							<startratio>0</startratio>
							<endratio>1</endratio>
							<reverse>FALSE</reverse>
						</effect>
					</transitionitem>
					<clipitem id="clipitem-655" frameBlend="FALSE" PannerCurrentValue="0.5" PannerKeyframes="" PannerStartKeyframe="-91445760000000000,0.5,0,0,0,0,0,0" PannerIsInverted="true" PannerName="Balance">
						<masterclipid>masterclip-211</masterclipid>
						<name>NONRO307367CS0001 My Heart Will Go on (love Them.wav</name>
						<enabled>TRUE</enabled>
						<duration>7006</duration>
						<rate>
							<timebase>30</timebase>
							<ntsc>TRUE</ntsc>
						</rate>
						<start>-1</start>
						<end>-1</end>
						<in>6677</in>
						<out>7006</out>
						<file id="file-210">
							<name>NONRO307367CS0001 My Heart Will Go on (love Them.wav</name>
							<pathurl>file://localhost/Volumes/Scenen/Prosjekter/FILM/FILM%201413%20Master%20Filmbonanza%20Program%206%20H%c3%b8sten%202013/Musikk/NONRO307367CS0001%20My%20Heart%20Will%20Go%20on%20(love%20Them.wav</pathurl>
							<rate>
								<timebase>30</timebase>
								<ntsc>TRUE</ntsc>
							</rate>
							<duration>8399</duration>
							<timecode>
								<rate>
									<timebase>30</timebase>
									<ntsc>TRUE</ntsc>
								</rate>
								<string>00;00;00;00</string>
								<frame>0</frame>
								<displayformat>DF</displayformat>
							</timecode>
							<media>
								<audio>
									<samplecharacteristics>
										<depth>16</depth>
										<samplerate>48000</samplerate>
									</samplecharacteristics>
									<channelcount>2</channelcount>
								</audio>
							</media>
						</file>
						<sourcetrack>
							<mediatype>audio</mediatype>
							<trackindex>1</trackindex>
						</sourcetrack>
							<filter>
								<effect>
									<name>Audio Levels</name>
									<effectid>audiolevels</effectid>
									<effectcategory>audiolevels</effectcategory>
									<effecttype>audiolevels</effecttype>
									<mediatype>audio</mediatype>
									<parameter authoringApp="PremierePro">
										<parameterid>level</parameterid>
										<name>Level</name>
										<valuemin>0</valuemin>
										<valuemax>3.98109</valuemax>
										<value>0.792988</value>
									</parameter>
								</effect>
							</filter>
							<filter>
								<effect>
									<name>Audio Pan</name>
									<effectid>audiopan</effectid>
									<effectcategory>audiopan</effectcategory>
									<effecttype>audiopan</effecttype>
									<mediatype>audio</mediatype>
									<parameter authoringApp="PremierePro">
										<parameterid>pan</parameterid>
										<name>Pan</name>
										<valuemin>-1</valuemin>
										<valuemax>1</valuemax>
										<value>0</value>
									</parameter>
								</effect>
							</filter>
						<link>
							<linkclipref>clipitem-655</linkclipref>
							<mediatype>audio</mediatype>
							<trackindex>10</trackindex>
							<clipindex>43</clipindex>
							<groupindex>1</groupindex>
						</link>
						<link>
							<linkclipref>clipitem-695</linkclipref>
							<mediatype>audio</mediatype>
							<trackindex>11</trackindex>
							<clipindex>43</clipindex>
							<groupindex>1</groupindex>
						</link>
					</clipitem>
					<transitionitem>
						<start>10021</start>
						<end>10171</end>
						<alignment>end-black</alignment>
						<cutPoint>150</cutPoint>
						<rate>
							<timebase>25</timebase>
							<ntsc>FALSE</ntsc>
						</rate>
						<effect>
							<name>Cross Fade (+3dB)</name>
							<effectid>KGAudioTransCrossFade3dB</effectid>
							<effecttype>transition</effecttype>
							<mediatype>audio</mediatype>
							<wipecode>0</wipecode>
							<wipeaccuracy>100</wipeaccuracy>
							<startratio>0</startratio>
							<endratio>1</endratio>
							<reverse>FALSE</reverse>
						</effect>
					</transitionitem>
					<transitionitem>
						<start>10586</start>
						<end>10611</end>
						<alignment>start-black</alignment>
						<cutPoint>0</cutPoint>
						<rate>
							<timebase>25</timebase>
							<ntsc>FALSE</ntsc>
						</rate>
						<effect>
							<name>Cross Fade (+3dB)</name>
							<effectid>KGAudioTransCrossFade3dB</effectid>
							<effecttype>transition</effecttype>
							<mediatype>audio</mediatype>
							<wipecode>0</wipecode>
							<wipeaccuracy>100</wipeaccuracy>
							<startratio>0</startratio>
							<endratio>1</endratio>
							<reverse>FALSE</reverse>
						</effect>
					</transitionitem>
					<clipitem id="clipitem-656" frameBlend="FALSE" PannerCurrentValue="0.5" PannerKeyframes="" PannerStartKeyframe="-91445760000000000,0.5,0,0,0,0,0,0" PannerIsInverted="true" PannerName="Balance">
						<masterclipid>masterclip-63</masterclipid>
						<name>avatar_2</name>
						<enabled>TRUE</enabled>
						<duration>3026</duration>
						<rate>
							<ntsc>TRUE</ntsc>
							<timebase>30</timebase>
						</rate>
						<start>-1</start>
						<end>-1</end>
						<in>570</in>
						<out>652</out>
						<file id="file-63"/>
						<sourcetrack>
							<mediatype>audio</mediatype>
							<trackindex>1</trackindex>
						</sourcetrack>
							<filter>
								<effect>
									<name>Gain</name>
									<effectid>{61756678, 4761696e, 4b657947}</effectid>
									<effecttype>filter</effecttype>
									<mediatype>audio</mediatype>
									<parameter authoringApp="PremierePro">
										<parameterid>Gain(dB)</parameterid>
										<name>Gain(dB)</name>
										<valuemin>-96</valuemin>
										<valuemax>96</valuemax>
										<value>-15</value>
									</parameter>
								</effect>
							</filter>
							<filter>
								<effect>
									<name>Audio Pan</name>
									<effectid>audiopan</effectid>
									<effectcategory>audiopan</effectcategory>
									<effecttype>audiopan</effecttype>
									<mediatype>audio</mediatype>
									<parameter authoringApp="PremierePro">
										<parameterid>pan</parameterid>
										<name>Pan</name>
										<valuemin>-1</valuemin>
										<valuemax>1</valuemax>
										<value>0</value>
									</parameter>
								</effect>
							</filter>
						<link>
							<linkclipref>clipitem-656</linkclipref>
							<mediatype>audio</mediatype>
							<trackindex>10</trackindex>
							<clipindex>46</clipindex>
							<groupindex>1</groupindex>
						</link>
						<link>
							<linkclipref>clipitem-696</linkclipref>
							<mediatype>audio</mediatype>
							<trackindex>11</trackindex>
							<clipindex>46</clipindex>
							<groupindex>1</groupindex>
						</link>
					</clipitem>
					<transitionitem>
						<start>10643</start>
						<end>10668</end>
						<alignment>center</alignment>
						<cutPoint>12</cutPoint>
						<rate>
							<timebase>25</timebase>
							<ntsc>FALSE</ntsc>
						</rate>
						<effect>
							<name>Cross Fade (+3dB)</name>
							<effectid>KGAudioTransCrossFade3dB</effectid>
							<effecttype>transition</effecttype>
							<mediatype>audio</mediatype>
							<wipecode>0</wipecode>
							<wipeaccuracy>100</wipeaccuracy>
							<startratio>0</startratio>
							<endratio>1</endratio>
							<reverse>FALSE</reverse>
						</effect>
					</transitionitem>
					<clipitem id="clipitem-657" frameBlend="FALSE" PannerCurrentValue="0.5" PannerKeyframes="" PannerStartKeyframe="-91445760000000000,0.5,0,0,0,0,0,0" PannerIsInverted="true" PannerName="Balance">
						<masterclipid>masterclip-63</masterclipid>
						<name>avatar_2</name>
						<enabled>TRUE</enabled>
						<duration>3026</duration>
						<rate>
							<ntsc>TRUE</ntsc>
							<timebase>30</timebase>
						</rate>
						<start>-1</start>
						<end>10803</end>
						<in>2866</in>
						<out>3026</out>
						<file id="file-63"/>
						<sourcetrack>
							<mediatype>audio</mediatype>
							<trackindex>1</trackindex>
						</sourcetrack>
							<filter>
								<effect>
									<name>Gain</name>
									<effectid>{61756678, 4761696e, 4b657947}</effectid>
									<effecttype>filter</effecttype>
									<mediatype>audio</mediatype>
									<parameter authoringApp="PremierePro">
										<parameterid>Gain(dB)</parameterid>
										<name>Gain(dB)</name>
										<valuemin>-96</valuemin>
										<valuemax>96</valuemax>
										<value>-15</value>
									</parameter>
								</effect>
							</filter>
							<filter>
								<effect>
									<name>Audio Pan</name>
									<effectid>audiopan</effectid>
									<effectcategory>audiopan</effectcategory>
									<effecttype>audiopan</effecttype>
									<mediatype>audio</mediatype>
									<parameter authoringApp="PremierePro">
										<parameterid>pan</parameterid>
										<name>Pan</name>
										<valuemin>-1</valuemin>
										<valuemax>1</valuemax>
										<value>0</value>
									</parameter>
								</effect>
							</filter>
						<link>
							<linkclipref>clipitem-657</linkclipref>
							<mediatype>audio</mediatype>
							<trackindex>10</trackindex>
							<clipindex>48</clipindex>
							<groupindex>1</groupindex>
						</link>
						<link>
							<linkclipref>clipitem-697</linkclipref>
							<mediatype>audio</mediatype>
							<trackindex>11</trackindex>
							<clipindex>48</clipindex>
							<groupindex>1</groupindex>
						</link>
					</clipitem>
					<clipitem id="clipitem-658" frameBlend="FALSE" PannerCurrentValue="0.5" PannerKeyframes="" PannerStartKeyframe="-91445760000000000,0.5,0,0,0,0,0,0" PannerIsInverted="true" PannerName="Balance">
						<masterclipid>masterclip-37</masterclipid>
						<name>El Topo.mov</name>
						<enabled>TRUE</enabled>
						<duration>3224</duration>
						<rate>
							<ntsc>TRUE</ntsc>
							<timebase>30</timebase>
						</rate>
						<start>12538</start>
						<end>12888</end>
						<in>2632</in>
						<out>2982</out>
						<file id="file-37"/>
						<sourcetrack>
							<mediatype>audio</mediatype>
							<trackindex>1</trackindex>
						</sourcetrack>
							<filter>
								<effect>
									<name>Gain</name>
									<effectid>{61756678, 4761696e, 4b657947}</effectid>
									<effecttype>filter</effecttype>
									<mediatype>audio</mediatype>
									<parameter authoringApp="PremierePro">
										<parameterid>Gain(dB)</parameterid>
										<name>Gain(dB)</name>
										<valuemin>-96</valuemin>
										<valuemax>96</valuemax>
										<value>12</value>
									</parameter>
								</effect>
							</filter>
							<filter>
								<effect>
									<name>Audio Levels</name>
									<effectid>audiolevels</effectid>
									<effectcategory>audiolevels</effectcategory>
									<effecttype>audiolevels</effecttype>
									<mediatype>audio</mediatype>
									<parameter authoringApp="PremierePro">
										<parameterid>level</parameterid>
										<name>Level</name>
										<valuemin>0</valuemin>
										<valuemax>3.98109</valuemax>
										<value>0.99763</value>
										<keyframe>
											<when>2431</when>
											<value>0</value>
										</keyframe>
										<keyframe>
											<when>2792</when>
											<value>0.356653</value>
										</keyframe>
										<keyframe>
											<when>2843</when>
											<value>0.99763</value>
										</keyframe>
									</parameter>
								</effect>
							</filter>
							<filter>
								<effect>
									<name>Audio Pan</name>
									<effectid>audiopan</effectid>
									<effectcategory>audiopan</effectcategory>
									<effecttype>audiopan</effecttype>
									<mediatype>audio</mediatype>
									<parameter authoringApp="PremierePro">
										<parameterid>pan</parameterid>
										<name>Pan</name>
										<valuemin>-1</valuemin>
										<valuemax>1</valuemax>
										<value>0</value>
									</parameter>
								</effect>
							</filter>
						<link>
							<linkclipref>clipitem-241</linkclipref>
							<mediatype>video</mediatype>
							<trackindex>3</trackindex>
							<clipindex>115</clipindex>
						</link>
						<link>
							<linkclipref>clipitem-658</linkclipref>
							<mediatype>audio</mediatype>
							<trackindex>10</trackindex>
							<clipindex>49</clipindex>
							<groupindex>1</groupindex>
						</link>
						<link>
							<linkclipref>clipitem-698</linkclipref>
							<mediatype>audio</mediatype>
							<trackindex>11</trackindex>
							<clipindex>49</clipindex>
							<groupindex>1</groupindex>
						</link>
					</clipitem>
					<clipitem id="clipitem-659" frameBlend="FALSE" PannerCurrentValue="0.5" PannerKeyframes="" PannerStartKeyframe="-91445760000000000,0.5,0,0,0,0,0,0" PannerIsInverted="true" PannerName="Balance">
						<masterclipid>masterclip-37</masterclipid>
						<name>El Topo.mov</name>
						<enabled>TRUE</enabled>
						<duration>3224</duration>
						<rate>
							<ntsc>TRUE</ntsc>
							<timebase>30</timebase>
						</rate>
						<start>12888</start>
						<end>12920</end>
						<in>2982</in>
						<out>3014</out>
						<file id="file-37"/>
						<sourcetrack>
							<mediatype>audio</mediatype>
							<trackindex>1</trackindex>
						</sourcetrack>
							<filter>
								<effect>
									<name>Gain</name>
									<effectid>{61756678, 4761696e, 4b657947}</effectid>
									<effecttype>filter</effecttype>
									<mediatype>audio</mediatype>
									<parameter authoringApp="PremierePro">
										<parameterid>Gain(dB)</parameterid>
										<name>Gain(dB)</name>
										<valuemin>-96</valuemin>
										<valuemax>96</valuemax>
										<value>12</value>
									</parameter>
								</effect>
							</filter>
							<filter>
								<effect>
									<name>Audio Levels</name>
									<effectid>audiolevels</effectid>
									<effectcategory>audiolevels</effectcategory>
									<effecttype>audiolevels</effecttype>
									<mediatype>audio</mediatype>
									<parameter authoringApp="PremierePro">
										<parameterid>level</parameterid>
										<name>Level</name>
										<valuemin>0</valuemin>
										<valuemax>3.98109</valuemax>
										<value>0.99763</value>
										<keyframe>
											<when>2431</when>
											<value>0</value>
										</keyframe>
										<keyframe>
											<when>2747</when>
											<value>0.493081</value>
										</keyframe>
										<keyframe>
											<when>2752</when>
											<value>0.99763</value>
										</keyframe>
									</parameter>
								</effect>
							</filter>
							<filter>
								<effect>
									<name>Audio Pan</name>
									<effectid>audiopan</effectid>
									<effectcategory>audiopan</effectcategory>
									<effecttype>audiopan</effecttype>
									<mediatype>audio</mediatype>
									<parameter authoringApp="PremierePro">
										<parameterid>pan</parameterid>
										<name>Pan</name>
										<valuemin>-1</valuemin>
										<valuemax>1</valuemax>
										<value>0</value>
									</parameter>
								</effect>
							</filter>
						<link>
							<linkclipref>clipitem-659</linkclipref>
							<mediatype>audio</mediatype>
							<trackindex>10</trackindex>
							<clipindex>50</clipindex>
							<groupindex>1</groupindex>
						</link>
						<link>
							<linkclipref>clipitem-699</linkclipref>
							<mediatype>audio</mediatype>
							<trackindex>11</trackindex>
							<clipindex>50</clipindex>
							<groupindex>1</groupindex>
						</link>
					</clipitem>
					<clipitem id="clipitem-660" frameBlend="FALSE" PannerCurrentValue="0.5" PannerKeyframes="" PannerStartKeyframe="-91445760000000000,0.5,0,0,0,0,0,0" PannerIsInverted="true" PannerName="Balance">
						<masterclipid>masterclip-37</masterclipid>
						<name>El Topo.mov</name>
						<enabled>TRUE</enabled>
						<duration>3224</duration>
						<rate>
							<ntsc>TRUE</ntsc>
							<timebase>30</timebase>
						</rate>
						<start>12920</start>
						<end>-1</end>
						<in>3014</in>
						<out>3080</out>
						<file id="file-37"/>
						<sourcetrack>
							<mediatype>audio</mediatype>
							<trackindex>1</trackindex>
						</sourcetrack>
							<filter>
								<effect>
									<name>Gain</name>
									<effectid>{61756678, 4761696e, 4b657947}</effectid>
									<effecttype>filter</effecttype>
									<mediatype>audio</mediatype>
									<parameter authoringApp="PremierePro">
										<parameterid>Gain(dB)</parameterid>
										<name>Gain(dB)</name>
										<valuemin>-96</valuemin>
										<valuemax>96</valuemax>
										<value>12</value>
									</parameter>
								</effect>
							</filter>
							<filter>
								<effect>
									<name>Audio Levels</name>
									<effectid>audiolevels</effectid>
									<effectcategory>audiolevels</effectcategory>
									<effecttype>audiolevels</effecttype>
									<mediatype>audio</mediatype>
									<parameter authoringApp="PremierePro">
										<parameterid>level</parameterid>
										<name>Level</name>
										<valuemin>0</valuemin>
										<valuemax>3.98109</valuemax>
										<value>0.99763</value>
										<keyframe>
											<when>2431</when>
											<value>0</value>
										</keyframe>
										<keyframe>
											<when>2747</when>
											<value>0.493081</value>
										</keyframe>
										<keyframe>
											<when>2752</when>
											<value>0.99763</value>
										</keyframe>
									</parameter>
								</effect>
							</filter>
							<filter>
								<effect>
									<name>Audio Pan</name>
									<effectid>audiopan</effectid>
									<effectcategory>audiopan</effectcategory>
									<effecttype>audiopan</effecttype>
									<mediatype>audio</mediatype>
									<parameter authoringApp="PremierePro">
										<parameterid>pan</parameterid>
										<name>Pan</name>
										<valuemin>-1</valuemin>
										<valuemax>1</valuemax>
										<value>0</value>
									</parameter>
								</effect>
							</filter>
						<link>
							<linkclipref>clipitem-660</linkclipref>
							<mediatype>audio</mediatype>
							<trackindex>10</trackindex>
							<clipindex>51</clipindex>
							<groupindex>1</groupindex>
						</link>
						<link>
							<linkclipref>clipitem-700</linkclipref>
							<mediatype>audio</mediatype>
							<trackindex>11</trackindex>
							<clipindex>51</clipindex>
							<groupindex>1</groupindex>
						</link>
					</clipitem>
					<transitionitem>
						<start>12961</start>
						<end>12986</end>
						<alignment>end-black</alignment>
						<cutPoint>25</cutPoint>
						<rate>
							<timebase>25</timebase>
							<ntsc>FALSE</ntsc>
						</rate>
						<effect>
							<name>Cross Fade (+3dB)</name>
							<effectid>KGAudioTransCrossFade3dB</effectid>
							<effecttype>transition</effecttype>
							<mediatype>audio</mediatype>
							<wipecode>0</wipecode>
							<wipeaccuracy>100</wipeaccuracy>
							<startratio>0</startratio>
							<endratio>1</endratio>
							<reverse>FALSE</reverse>
						</effect>
					</transitionitem>
					<clipitem id="clipitem-661" frameBlend="FALSE" PannerCurrentValue="0.5" PannerKeyframes="" PannerStartKeyframe="-91445760000000000,0.5,0,0,0,0,0,0" PannerIsInverted="true" PannerName="Balance">
						<masterclipid>masterclip-71</masterclipid>
						<name>DUNE PROMO TRAILER JAPAN.mov</name>
						<enabled>TRUE</enabled>
						<duration>3053</duration>
						<rate>
							<ntsc>TRUE</ntsc>
							<timebase>30</timebase>
						</rate>
						<start>13299</start>
						<end>14865</end>
						<in>0</in>
						<out>1566</out>
						<file id="file-71"/>
						<sourcetrack>
							<mediatype>audio</mediatype>
							<trackindex>1</trackindex>
						</sourcetrack>
							<filter>
								<effect>
									<name>Audio Levels</name>
									<effectid>audiolevels</effectid>
									<effectcategory>audiolevels</effectcategory>
									<effecttype>audiolevels</effecttype>
									<mediatype>audio</mediatype>
									<parameter authoringApp="PremierePro">
										<parameterid>level</parameterid>
										<name>Level</name>
										<valuemin>0</valuemin>
										<valuemax>3.98109</valuemax>
										<value>0.99763</value>
										<keyframe>
											<when>1415</when>
											<value>0.99763</value>
										</keyframe>
										<keyframe>
											<when>1423</when>
											<value>0.144236</value>
										</keyframe>
										<keyframe>
											<when>1522</when>
											<value>0</value>
										</keyframe>
									</parameter>
								</effect>
							</filter>
							<filter>
								<effect>
									<name>Audio Pan</name>
									<effectid>audiopan</effectid>
									<effectcategory>audiopan</effectcategory>
									<effecttype>audiopan</effecttype>
									<mediatype>audio</mediatype>
									<parameter authoringApp="PremierePro">
										<parameterid>pan</parameterid>
										<name>Pan</name>
										<valuemin>-1</valuemin>
										<valuemax>1</valuemax>
										<value>0</value>
									</parameter>
								</effect>
							</filter>
						<link>
							<linkclipref>clipitem-245</linkclipref>
							<mediatype>video</mediatype>
							<trackindex>3</trackindex>
							<clipindex>119</clipindex>
						</link>
						<link>
							<linkclipref>clipitem-661</linkclipref>
							<mediatype>audio</mediatype>
							<trackindex>10</trackindex>
							<clipindex>53</clipindex>
							<groupindex>1</groupindex>
						</link>
						<link>
							<linkclipref>clipitem-701</linkclipref>
							<mediatype>audio</mediatype>
							<trackindex>11</trackindex>
							<clipindex>53</clipindex>
							<groupindex>1</groupindex>
						</link>
					</clipitem>
					<transitionitem>
						<start>16653</start>
						<end>16737</end>
						<alignment>start-black</alignment>
						<cutPoint>0</cutPoint>
						<rate>
							<timebase>25</timebase>
							<ntsc>FALSE</ntsc>
						</rate>
						<effect>
							<name>Cross Fade (+3dB)</name>
							<effectid>KGAudioTransCrossFade3dB</effectid>
							<effecttype>transition</effecttype>
							<mediatype>audio</mediatype>
							<wipecode>0</wipecode>
							<wipeaccuracy>100</wipeaccuracy>
							<startratio>0</startratio>
							<endratio>1</endratio>
							<reverse>FALSE</reverse>
						</effect>
					</transitionitem>
					<clipitem id="clipitem-662" frameBlend="FALSE" PannerCurrentValue="0.5" PannerKeyframes="" PannerStartKeyframe="-91445760000000000,0.5,0,0,0,0,0,0" PannerIsInverted="true" PannerName="Balance">
						<masterclipid>masterclip-71</masterclipid>
						<name>DUNE PROMO TRAILER JAPAN.mov</name>
						<enabled>TRUE</enabled>
						<duration>3053</duration>
						<rate>
							<ntsc>TRUE</ntsc>
							<timebase>30</timebase>
						</rate>
						<start>-1</start>
						<end>16906</end>
						<in>2633</in>
						<out>2886</out>
						<file id="file-71"/>
						<sourcetrack>
							<mediatype>audio</mediatype>
							<trackindex>1</trackindex>
						</sourcetrack>
							<filter>
								<effect>
									<name>Audio Levels</name>
									<effectid>audiolevels</effectid>
									<effectcategory>audiolevels</effectcategory>
									<effecttype>audiolevels</effecttype>
									<mediatype>audio</mediatype>
									<parameter authoringApp="PremierePro">
										<parameterid>level</parameterid>
										<name>Level</name>
										<valuemin>0</valuemin>
										<valuemax>3.98109</valuemax>
										<value>0</value>
										<keyframe>
											<when>2671</when>
											<value>0.311304</value>
										</keyframe>
										<keyframe>
											<when>2681</when>
											<value>0.352872</value>
										</keyframe>
										<keyframe>
											<when>2724</when>
											<value>0.38973</value>
										</keyframe>
										<keyframe>
											<when>2737</when>
											<value>0.525082</value>
										</keyframe>
										<keyframe>
											<when>2778</when>
											<value>0.560712</value>
										</keyframe>
										<keyframe>
											<when>2783</when>
											<value>0.311304</value>
										</keyframe>
										<keyframe>
											<when>2811</when>
											<value>0.207384</value>
										</keyframe>
										<keyframe>
											<when>2837</when>
											<value>0</value>
										</keyframe>
									</parameter>
								</effect>
							</filter>
							<filter>
								<effect>
									<name>Audio Pan</name>
									<effectid>audiopan</effectid>
									<effectcategory>audiopan</effectcategory>
									<effecttype>audiopan</effecttype>
									<mediatype>audio</mediatype>
									<parameter authoringApp="PremierePro">
										<parameterid>pan</parameterid>
										<name>Pan</name>
										<valuemin>-1</valuemin>
										<valuemax>1</valuemax>
										<value>0</value>
									</parameter>
								</effect>
							</filter>
						<link>
							<linkclipref>clipitem-250</linkclipref>
							<mediatype>video</mediatype>
							<trackindex>3</trackindex>
							<clipindex>126</clipindex>
						</link>
						<link>
							<linkclipref>clipitem-662</linkclipref>
							<mediatype>audio</mediatype>
							<trackindex>10</trackindex>
							<clipindex>55</clipindex>
							<groupindex>1</groupindex>
						</link>
						<link>
							<linkclipref>clipitem-702</linkclipref>
							<mediatype>audio</mediatype>
							<trackindex>11</trackindex>
							<clipindex>55</clipindex>
							<groupindex>1</groupindex>
						</link>
					</clipitem>
					<clipitem id="clipitem-663" frameBlend="FALSE" PannerCurrentValue="0.5" PannerKeyframes="" PannerStartKeyframe="-91445760000000000,0.5,0,0,0,0,0,0" PannerIsInverted="true" PannerName="Balance">
						<masterclipid>masterclip-70</masterclipid>
						<name>The Holy Mountain.mov</name>
						<enabled>TRUE</enabled>
						<duration>5112</duration>
						<rate>
							<ntsc>TRUE</ntsc>
							<timebase>30</timebase>
						</rate>
						<start>18737</start>
						<end>-1</end>
						<in>2532</in>
						<out>2881</out>
						<file id="file-70"/>
						<sourcetrack>
							<mediatype>audio</mediatype>
							<trackindex>1</trackindex>
						</sourcetrack>
							<filter>
								<effect>
									<name>Audio Pan</name>
									<effectid>audiopan</effectid>
									<effectcategory>audiopan</effectcategory>
									<effecttype>audiopan</effecttype>
									<mediatype>audio</mediatype>
									<parameter authoringApp="PremierePro">
										<parameterid>pan</parameterid>
										<name>Pan</name>
										<valuemin>-1</valuemin>
										<valuemax>1</valuemax>
										<value>0</value>
									</parameter>
								</effect>
							</filter>
						<link>
							<linkclipref>clipitem-252</linkclipref>
							<mediatype>video</mediatype>
							<trackindex>3</trackindex>
							<clipindex>130</clipindex>
						</link>
						<link>
							<linkclipref>clipitem-663</linkclipref>
							<mediatype>audio</mediatype>
							<trackindex>10</trackindex>
							<clipindex>56</clipindex>
							<groupindex>1</groupindex>
						</link>
						<link>
							<linkclipref>clipitem-703</linkclipref>
							<mediatype>audio</mediatype>
							<trackindex>11</trackindex>
							<clipindex>56</clipindex>
							<groupindex>1</groupindex>
						</link>
					</clipitem>
					<transitionitem>
						<start>19061</start>
						<end>19086</end>
						<alignment>end-black</alignment>
						<cutPoint>25</cutPoint>
						<rate>
							<timebase>25</timebase>
							<ntsc>FALSE</ntsc>
						</rate>
						<effect>
							<name>Cross Fade (+3dB)</name>
							<effectid>KGAudioTransCrossFade3dB</effectid>
							<effecttype>transition</effecttype>
							<mediatype>audio</mediatype>
							<wipecode>0</wipecode>
							<wipeaccuracy>100</wipeaccuracy>
							<startratio>0</startratio>
							<endratio>1</endratio>
							<reverse>FALSE</reverse>
						</effect>
					</transitionitem>
					<transitionitem>
						<start>19882</start>
						<end>19907</end>
						<alignment>start-black</alignment>
						<cutPoint>0</cutPoint>
						<rate>
							<timebase>25</timebase>
							<ntsc>FALSE</ntsc>
						</rate>
						<effect>
							<name>Cross Fade (+3dB)</name>
							<effectid>KGAudioTransCrossFade3dB</effectid>
							<effecttype>transition</effecttype>
							<mediatype>audio</mediatype>
							<wipecode>0</wipecode>
							<wipeaccuracy>100</wipeaccuracy>
							<startratio>0</startratio>
							<endratio>1</endratio>
							<reverse>FALSE</reverse>
						</effect>
					</transitionitem>
					<clipitem id="clipitem-664" frameBlend="FALSE" PannerCurrentValue="0.5" PannerKeyframes="" PannerStartKeyframe="-91445760000000000,0.5,0,0,0,0,0,0" PannerIsInverted="true" PannerName="Balance">
						<masterclipid>masterclip-76</masterclipid>
						<name>alien_åpningsscene.mov</name>
						<enabled>TRUE</enabled>
						<duration>5256</duration>
						<rate>
							<ntsc>TRUE</ntsc>
							<timebase>30</timebase>
						</rate>
						<start>-1</start>
						<end>-1</end>
						<in>212</in>
						<out>821</out>
						<file id="file-76"/>
						<sourcetrack>
							<mediatype>audio</mediatype>
							<trackindex>1</trackindex>
						</sourcetrack>
							<filter>
								<effect>
									<name>Audio Pan</name>
									<effectid>audiopan</effectid>
									<effectcategory>audiopan</effectcategory>
									<effecttype>audiopan</effecttype>
									<mediatype>audio</mediatype>
									<parameter authoringApp="PremierePro">
										<parameterid>pan</parameterid>
										<name>Pan</name>
										<valuemin>-1</valuemin>
										<valuemax>1</valuemax>
										<value>0</value>
									</parameter>
								</effect>
							</filter>
						<link>
							<linkclipref>clipitem-255</linkclipref>
							<mediatype>video</mediatype>
							<trackindex>3</trackindex>
							<clipindex>133</clipindex>
						</link>
						<link>
							<linkclipref>clipitem-664</linkclipref>
							<mediatype>audio</mediatype>
							<trackindex>10</trackindex>
							<clipindex>59</clipindex>
							<groupindex>1</groupindex>
						</link>
						<link>
							<linkclipref>clipitem-704</linkclipref>
							<mediatype>audio</mediatype>
							<trackindex>11</trackindex>
							<clipindex>59</clipindex>
							<groupindex>1</groupindex>
						</link>
					</clipitem>
					<transitionitem>
						<start>20466</start>
						<end>20491</end>
						<alignment>end-black</alignment>
						<cutPoint>25</cutPoint>
						<rate>
							<timebase>25</timebase>
							<ntsc>FALSE</ntsc>
						</rate>
						<effect>
							<name>Cross Fade (+3dB)</name>
							<effectid>KGAudioTransCrossFade3dB</effectid>
							<effecttype>transition</effecttype>
							<mediatype>audio</mediatype>
							<wipecode>0</wipecode>
							<wipeaccuracy>100</wipeaccuracy>
							<startratio>0</startratio>
							<endratio>1</endratio>
							<reverse>FALSE</reverse>
						</effect>
					</transitionitem>
					<transitionitem>
						<start>20828</start>
						<end>20853</end>
						<alignment>start-black</alignment>
						<cutPoint>0</cutPoint>
						<rate>
							<timebase>25</timebase>
							<ntsc>FALSE</ntsc>
						</rate>
						<effect>
							<name>Cross Fade (+3dB)</name>
							<effectid>KGAudioTransCrossFade3dB</effectid>
							<effecttype>transition</effecttype>
							<mediatype>audio</mediatype>
							<wipecode>0</wipecode>
							<wipeaccuracy>100</wipeaccuracy>
							<startratio>0</startratio>
							<endratio>1</endratio>
							<reverse>FALSE</reverse>
						</effect>
					</transitionitem>
					<clipitem id="clipitem-665" frameBlend="FALSE" PannerCurrentValue="0.5" PannerKeyframes="" PannerStartKeyframe="-91445760000000000,0.5,0,0,0,0,0,0" PannerIsInverted="true" PannerName="Balance">
						<masterclipid>masterclip-77</masterclipid>
						<name>star_wars_25fps.mov</name>
						<enabled>TRUE</enabled>
						<duration>5377</duration>
						<rate>
							<ntsc>TRUE</ntsc>
							<timebase>30</timebase>
						</rate>
						<start>-1</start>
						<end>-1</end>
						<in>332</in>
						<out>556</out>
						<file id="file-77"/>
						<sourcetrack>
							<mediatype>audio</mediatype>
							<trackindex>1</trackindex>
						</sourcetrack>
							<filter>
								<effect>
									<name>Audio Levels</name>
									<effectid>audiolevels</effectid>
									<effectcategory>audiolevels</effectcategory>
									<effecttype>audiolevels</effecttype>
									<mediatype>audio</mediatype>
									<parameter authoringApp="PremierePro">
										<parameterid>level</parameterid>
										<name>Level</name>
										<valuemin>0</valuemin>
										<valuemax>3.98109</valuemax>
										<value>0.215982</value>
									</parameter>
								</effect>
							</filter>
							<filter>
								<effect>
									<name>Audio Pan</name>
									<effectid>audiopan</effectid>
									<effectcategory>audiopan</effectcategory>
									<effecttype>audiopan</effecttype>
									<mediatype>audio</mediatype>
									<parameter authoringApp="PremierePro">
										<parameterid>pan</parameterid>
										<name>Pan</name>
										<valuemin>-1</valuemin>
										<valuemax>1</valuemax>
										<value>0</value>
									</parameter>
								</effect>
							</filter>
						<link>
							<linkclipref>clipitem-256</linkclipref>
							<mediatype>video</mediatype>
							<trackindex>3</trackindex>
							<clipindex>134</clipindex>
						</link>
						<link>
							<linkclipref>clipitem-665</linkclipref>
							<mediatype>audio</mediatype>
							<trackindex>10</trackindex>
							<clipindex>62</clipindex>
							<groupindex>1</groupindex>
						</link>
						<link>
							<linkclipref>clipitem-705</linkclipref>
							<mediatype>audio</mediatype>
							<trackindex>11</trackindex>
							<clipindex>62</clipindex>
							<groupindex>1</groupindex>
						</link>
					</clipitem>
					<transitionitem>
						<start>21027</start>
						<end>21052</end>
						<alignment>end-black</alignment>
						<cutPoint>25</cutPoint>
						<rate>
							<timebase>25</timebase>
							<ntsc>FALSE</ntsc>
						</rate>
						<effect>
							<name>Cross Fade (+3dB)</name>
							<effectid>KGAudioTransCrossFade3dB</effectid>
							<effecttype>transition</effecttype>
							<mediatype>audio</mediatype>
							<wipecode>0</wipecode>
							<wipeaccuracy>100</wipeaccuracy>
							<startratio>0</startratio>
							<endratio>1</endratio>
							<reverse>FALSE</reverse>
						</effect>
					</transitionitem>
					<clipitem id="clipitem-666" frameBlend="FALSE" PannerCurrentValue="0.5" PannerKeyframes="" PannerStartKeyframe="-91445760000000000,0.5,0,0,0,0,0,0" PannerIsInverted="true" PannerName="Balance">
						<masterclipid>masterclip-78</masterclipid>
						<name>dune_25fps.mov</name>
						<enabled>TRUE</enabled>
						<duration>22506</duration>
						<rate>
							<ntsc>TRUE</ntsc>
							<timebase>30</timebase>
						</rate>
						<start>23691</start>
						<end>-1</end>
						<in>17013</in>
						<out>17880</out>
						<file id="file-78"/>
						<sourcetrack>
							<mediatype>audio</mediatype>
							<trackindex>1</trackindex>
						</sourcetrack>
							<filter>
								<effect>
									<name>Gain</name>
									<effectid>{61756678, 4761696e, 4b657947}</effectid>
									<effecttype>filter</effecttype>
									<mediatype>audio</mediatype>
									<parameter authoringApp="PremierePro">
										<parameterid>Gain(dB)</parameterid>
										<name>Gain(dB)</name>
										<valuemin>-96</valuemin>
										<valuemax>96</valuemax>
										<value>6</value>
									</parameter>
								</effect>
							</filter>
							<filter>
								<effect>
									<name>Audio Levels</name>
									<effectid>audiolevels</effectid>
									<effectcategory>audiolevels</effectcategory>
									<effecttype>audiolevels</effecttype>
									<mediatype>audio</mediatype>
									<parameter authoringApp="PremierePro">
										<parameterid>level</parameterid>
										<name>Level</name>
										<valuemin>0</valuemin>
										<valuemax>3.98109</valuemax>
										<value>0.0470352</value>
										<keyframe>
											<when>17026</when>
											<value>0</value>
										</keyframe>
										<keyframe>
											<when>17101</when>
											<value>0.92318</value>
										</keyframe>
										<keyframe>
											<when>17187</when>
											<value>0.95296</value>
										</keyframe>
										<keyframe>
											<when>17197</when>
											<value>0.05956</value>
										</keyframe>
										<keyframe>
											<when>17453</when>
											<value>0</value>
										</keyframe>
										<keyframe>
											<when>17465</when>
											<value>0.13401</value>
										</keyframe>
										<keyframe>
											<when>17545</when>
											<value>0.13401</value>
										</keyframe>
										<keyframe>
											<when>17553</when>
											<value>0.99763</value>
										</keyframe>
									</parameter>
								</effect>
							</filter>
							<filter>
								<effect>
									<name>Audio Pan</name>
									<effectid>audiopan</effectid>
									<effectcategory>audiopan</effectcategory>
									<effecttype>audiopan</effecttype>
									<mediatype>audio</mediatype>
									<parameter authoringApp="PremierePro">
										<parameterid>pan</parameterid>
										<name>Pan</name>
										<valuemin>-1</valuemin>
										<valuemax>1</valuemax>
										<value>0</value>
									</parameter>
								</effect>
							</filter>
						<link>
							<linkclipref>clipitem-258</linkclipref>
							<mediatype>video</mediatype>
							<trackindex>3</trackindex>
							<clipindex>136</clipindex>
						</link>
						<link>
							<linkclipref>clipitem-666</linkclipref>
							<mediatype>audio</mediatype>
							<trackindex>10</trackindex>
							<clipindex>64</clipindex>
							<groupindex>1</groupindex>
						</link>
						<link>
							<linkclipref>clipitem-706</linkclipref>
							<mediatype>audio</mediatype>
							<trackindex>11</trackindex>
							<clipindex>64</clipindex>
							<groupindex>1</groupindex>
						</link>
					</clipitem>
					<transitionitem>
						<start>24548</start>
						<end>24558</end>
						<alignment>end-black</alignment>
						<cutPoint>10</cutPoint>
						<rate>
							<timebase>25</timebase>
							<ntsc>FALSE</ntsc>
						</rate>
						<effect>
							<name>Cross Fade (+3dB)</name>
							<effectid>KGAudioTransCrossFade3dB</effectid>
							<effecttype>transition</effecttype>
							<mediatype>audio</mediatype>
							<wipecode>0</wipecode>
							<wipeaccuracy>100</wipeaccuracy>
							<startratio>0</startratio>
							<endratio>1</endratio>
							<reverse>FALSE</reverse>
						</effect>
					</transitionitem>
					<clipitem id="clipitem-667" frameBlend="FALSE" PannerCurrentValue="0.5" PannerKeyframes="" PannerStartKeyframe="-91445760000000000,0.5,0,0,0,0,0,0" PannerIsInverted="true" PannerName="Balance">
						<masterclipid>masterclip-83</masterclipid>
						<name>1000 ganger godnatt klipp3.mov</name>
						<enabled>TRUE</enabled>
						<duration>6215</duration>
						<rate>
							<ntsc>TRUE</ntsc>
							<timebase>30</timebase>
						</rate>
						<start>27878</start>
						<end>28831</end>
						<in>178</in>
						<out>1131</out>
						<file id="file-83"/>
						<sourcetrack>
							<mediatype>audio</mediatype>
							<trackindex>1</trackindex>
						</sourcetrack>
							<filter>
								<effect>
									<name>Audio Levels</name>
									<effectid>audiolevels</effectid>
									<effectcategory>audiolevels</effectcategory>
									<effecttype>audiolevels</effecttype>
									<mediatype>audio</mediatype>
									<parameter authoringApp="PremierePro">
										<parameterid>level</parameterid>
										<name>Level</name>
										<valuemin>0</valuemin>
										<valuemax>3.98109</valuemax>
										<value>0</value>
										<keyframe>
											<when>178</when>
											<value>0</value>
										</keyframe>
										<keyframe>
											<when>210</when>
											<value>0.721178</value>
										</keyframe>
										<keyframe>
											<when>265</when>
											<value>0.99763</value>
										</keyframe>
										<keyframe>
											<when>1032</when>
											<value>0.99763</value>
										</keyframe>
										<keyframe>
											<when>1036</when>
											<value>0.516844</value>
										</keyframe>
										<keyframe>
											<when>1062</when>
											<value>0</value>
										</keyframe>
									</parameter>
								</effect>
							</filter>
							<filter>
								<effect>
									<name>Audio Pan</name>
									<effectid>audiopan</effectid>
									<effectcategory>audiopan</effectcategory>
									<effecttype>audiopan</effecttype>
									<mediatype>audio</mediatype>
									<parameter authoringApp="PremierePro">
										<parameterid>pan</parameterid>
										<name>Pan</name>
										<valuemin>-1</valuemin>
										<valuemax>1</valuemax>
										<value>0</value>
									</parameter>
								</effect>
							</filter>
						<link>
							<linkclipref>clipitem-263</linkclipref>
							<mediatype>video</mediatype>
							<trackindex>3</trackindex>
							<clipindex>143</clipindex>
						</link>
						<link>
							<linkclipref>clipitem-667</linkclipref>
							<mediatype>audio</mediatype>
							<trackindex>10</trackindex>
							<clipindex>66</clipindex>
							<groupindex>1</groupindex>
						</link>
						<link>
							<linkclipref>clipitem-707</linkclipref>
							<mediatype>audio</mediatype>
							<trackindex>11</trackindex>
							<clipindex>66</clipindex>
							<groupindex>1</groupindex>
						</link>
					</clipitem>
					<transitionitem>
						<start>31005</start>
						<end>31030</end>
						<alignment>start-black</alignment>
						<cutPoint>0</cutPoint>
						<rate>
							<timebase>25</timebase>
							<ntsc>FALSE</ntsc>
						</rate>
						<effect>
							<name>Cross Fade (+3dB)</name>
							<effectid>KGAudioTransCrossFade3dB</effectid>
							<effecttype>transition</effecttype>
							<mediatype>audio</mediatype>
							<wipecode>0</wipecode>
							<wipeaccuracy>100</wipeaccuracy>
							<startratio>0</startratio>
							<endratio>1</endratio>
							<reverse>FALSE</reverse>
						</effect>
					</transitionitem>
					<clipitem id="clipitem-668" frameBlend="FALSE" PannerCurrentValue="0.5" PannerKeyframes="" PannerStartKeyframe="-91445760000000000,0.5,0,0,0,0,0,0" PannerIsInverted="true" PannerName="Balance">
						<masterclipid>masterclip-83</masterclipid>
						<name>1000 ganger godnatt klipp3.mov</name>
						<enabled>TRUE</enabled>
						<duration>6215</duration>
						<rate>
							<ntsc>TRUE</ntsc>
							<timebase>30</timebase>
						</rate>
						<start>-1</start>
						<end>31228</end>
						<in>5605</in>
						<out>5828</out>
						<file id="file-83"/>
						<sourcetrack>
							<mediatype>audio</mediatype>
							<trackindex>1</trackindex>
						</sourcetrack>
							<filter>
								<effect>
									<name>Audio Levels</name>
									<effectid>audiolevels</effectid>
									<effectcategory>audiolevels</effectcategory>
									<effecttype>audiolevels</effecttype>
									<mediatype>audio</mediatype>
									<parameter authoringApp="PremierePro">
										<parameterid>level</parameterid>
										<name>Level</name>
										<valuemin>0</valuemin>
										<valuemax>3.98109</valuemax>
										<value>0</value>
										<keyframe>
											<when>5771</when>
											<value>0.298725</value>
										</keyframe>
										<keyframe>
											<when>5783</when>
											<value>0</value>
										</keyframe>
									</parameter>
								</effect>
							</filter>
							<filter>
								<effect>
									<name>Audio Pan</name>
									<effectid>audiopan</effectid>
									<effectcategory>audiopan</effectcategory>
									<effecttype>audiopan</effecttype>
									<mediatype>audio</mediatype>
									<parameter authoringApp="PremierePro">
										<parameterid>pan</parameterid>
										<name>Pan</name>
										<valuemin>-1</valuemin>
										<valuemax>1</valuemax>
										<value>0</value>
									</parameter>
								</effect>
							</filter>
						<link>
							<linkclipref>clipitem-264</linkclipref>
							<mediatype>video</mediatype>
							<trackindex>3</trackindex>
							<clipindex>144</clipindex>
						</link>
						<link>
							<linkclipref>clipitem-668</linkclipref>
							<mediatype>audio</mediatype>
							<trackindex>10</trackindex>
							<clipindex>68</clipindex>
							<groupindex>1</groupindex>
						</link>
						<link>
							<linkclipref>clipitem-708</linkclipref>
							<mediatype>audio</mediatype>
							<trackindex>11</trackindex>
							<clipindex>68</clipindex>
							<groupindex>1</groupindex>
						</link>
					</clipitem>
					<transitionitem>
						<start>36679</start>
						<end>36699</end>
						<alignment>start-black</alignment>
						<cutPoint>0</cutPoint>
						<rate>
							<timebase>25</timebase>
							<ntsc>FALSE</ntsc>
						</rate>
						<effect>
							<name>Cross Fade (+3dB)</name>
							<effectid>KGAudioTransCrossFade3dB</effectid>
							<effecttype>transition</effecttype>
							<mediatype>audio</mediatype>
							<wipecode>0</wipecode>
							<wipeaccuracy>100</wipeaccuracy>
							<startratio>0</startratio>
							<endratio>1</endratio>
							<reverse>FALSE</reverse>
						</effect>
					</transitionitem>
					<clipitem id="clipitem-669" frameBlend="FALSE" PannerCurrentValue="0.5" PannerKeyframes="" PannerStartKeyframe="-91445760000000000,0.5,0,0,0,0,0,0" PannerIsInverted="true" PannerName="Balance">
						<masterclipid>masterclip-89</masterclipid>
						<name>Trappescenen Potemkin.mov</name>
						<enabled>TRUE</enabled>
						<duration>4632</duration>
						<rate>
							<ntsc>TRUE</ntsc>
							<timebase>30</timebase>
						</rate>
						<start>-1</start>
						<end>-1</end>
						<in>2978</in>
						<out>3212</out>
						<file id="file-89"/>
						<sourcetrack>
							<mediatype>audio</mediatype>
							<trackindex>1</trackindex>
						</sourcetrack>
							<filter>
								<effect>
									<name>Audio Levels</name>
									<effectid>audiolevels</effectid>
									<effectcategory>audiolevels</effectcategory>
									<effecttype>audiolevels</effecttype>
									<mediatype>audio</mediatype>
									<parameter authoringApp="PremierePro">
										<parameterid>level</parameterid>
										<name>Level</name>
										<valuemin>0</valuemin>
										<valuemax>3.98109</valuemax>
										<value>0.730564</value>
										<keyframe>
											<when>3002</when>
											<value>0.0654773</value>
										</keyframe>
										<keyframe>
											<when>3023</when>
											<value>0.144654</value>
										</keyframe>
										<keyframe>
											<when>3042</when>
											<value>0.730564</value>
										</keyframe>
									</parameter>
								</effect>
							</filter>
							<filter>
								<effect>
									<name>Audio Pan</name>
									<effectid>audiopan</effectid>
									<effectcategory>audiopan</effectcategory>
									<effecttype>audiopan</effecttype>
									<mediatype>audio</mediatype>
									<parameter authoringApp="PremierePro">
										<parameterid>pan</parameterid>
										<name>Pan</name>
										<valuemin>-1</valuemin>
										<valuemax>1</valuemax>
										<value>0</value>
									</parameter>
								</effect>
							</filter>
						<link>
							<linkclipref>clipitem-272</linkclipref>
							<mediatype>video</mediatype>
							<trackindex>3</trackindex>
							<clipindex>159</clipindex>
						</link>
						<link>
							<linkclipref>clipitem-669</linkclipref>
							<mediatype>audio</mediatype>
							<trackindex>10</trackindex>
							<clipindex>70</clipindex>
							<groupindex>1</groupindex>
						</link>
						<link>
							<linkclipref>clipitem-709</linkclipref>
							<mediatype>audio</mediatype>
							<trackindex>11</trackindex>
							<clipindex>70</clipindex>
							<groupindex>1</groupindex>
						</link>
					</clipitem>
					<transitionitem>
						<start>36870</start>
						<end>36913</end>
						<alignment>center</alignment>
						<cutPoint>21</cutPoint>
						<rate>
							<timebase>25</timebase>
							<ntsc>FALSE</ntsc>
						</rate>
						<effect>
							<name>Cross Fade (+3dB)</name>
							<effectid>KGAudioTransCrossFade3dB</effectid>
							<effecttype>transition</effecttype>
							<mediatype>audio</mediatype>
							<wipecode>0</wipecode>
							<wipeaccuracy>100</wipeaccuracy>
							<startratio>0</startratio>
							<endratio>1</endratio>
							<reverse>FALSE</reverse>
						</effect>
					</transitionitem>
					<clipitem id="clipitem-670" frameBlend="FALSE" PannerCurrentValue="0.5" PannerKeyframes="" PannerStartKeyframe="-91445760000000000,0.5,0,0,0,0,0,0" PannerIsInverted="true" PannerName="Balance">
						<masterclipid>masterclip-89</masterclipid>
						<name>Trappescenen Potemkin.mov</name>
						<enabled>TRUE</enabled>
						<duration>4632</duration>
						<rate>
							<ntsc>TRUE</ntsc>
							<timebase>30</timebase>
						</rate>
						<start>-1</start>
						<end>-1</end>
						<in>3169</in>
						<out>3279</out>
						<file id="file-89"/>
						<sourcetrack>
							<mediatype>audio</mediatype>
							<trackindex>1</trackindex>
						</sourcetrack>
							<filter>
								<effect>
									<name>Audio Levels</name>
									<effectid>audiolevels</effectid>
									<effectcategory>audiolevels</effectcategory>
									<effecttype>audiolevels</effecttype>
									<mediatype>audio</mediatype>
									<parameter authoringApp="PremierePro">
										<parameterid>level</parameterid>
										<name>Level</name>
										<valuemin>0</valuemin>
										<valuemax>3.98109</valuemax>
										<value>0.0823158</value>
									</parameter>
								</effect>
							</filter>
							<filter>
								<effect>
									<name>Audio Pan</name>
									<effectid>audiopan</effectid>
									<effectcategory>audiopan</effectcategory>
									<effecttype>audiopan</effecttype>
									<mediatype>audio</mediatype>
									<parameter authoringApp="PremierePro">
										<parameterid>pan</parameterid>
										<name>Pan</name>
										<valuemin>-1</valuemin>
										<valuemax>1</valuemax>
										<value>0</value>
									</parameter>
								</effect>
							</filter>
						<link>
							<linkclipref>clipitem-670</linkclipref>
							<mediatype>audio</mediatype>
							<trackindex>10</trackindex>
							<clipindex>72</clipindex>
							<groupindex>1</groupindex>
						</link>
						<link>
							<linkclipref>clipitem-710</linkclipref>
							<mediatype>audio</mediatype>
							<trackindex>11</trackindex>
							<clipindex>72</clipindex>
							<groupindex>1</groupindex>
						</link>
					</clipitem>
					<transitionitem>
						<start>36948</start>
						<end>36980</end>
						<alignment>end-black</alignment>
						<cutPoint>32</cutPoint>
						<rate>
							<timebase>25</timebase>
							<ntsc>FALSE</ntsc>
						</rate>
						<effect>
							<name>Cross Fade (+3dB)</name>
							<effectid>KGAudioTransCrossFade3dB</effectid>
							<effecttype>transition</effecttype>
							<mediatype>audio</mediatype>
							<wipecode>0</wipecode>
							<wipeaccuracy>100</wipeaccuracy>
							<startratio>0</startratio>
							<endratio>1</endratio>
							<reverse>FALSE</reverse>
						</effect>
					</transitionitem>
					<clipitem id="clipitem-671" frameBlend="FALSE" PannerCurrentValue="0.5" PannerKeyframes="" PannerStartKeyframe="-91445760000000000,0.5,0,0,0,0,0,0" PannerIsInverted="true" PannerName="Balance">
						<masterclipid>masterclip-90</masterclipid>
						<name>4_2.mov</name>
						<enabled>TRUE</enabled>
						<duration>2400</duration>
						<rate>
							<ntsc>TRUE</ntsc>
							<timebase>30</timebase>
						</rate>
						<start>40936</start>
						<end>41433</end>
						<in>629</in>
						<out>1126</out>
						<file id="file-90"/>
						<sourcetrack>
							<mediatype>audio</mediatype>
							<trackindex>1</trackindex>
						</sourcetrack>
							<filter>
								<effect>
									<name>Gain</name>
									<effectid>{61756678, 4761696e, 4b657947}</effectid>
									<effecttype>filter</effecttype>
									<mediatype>audio</mediatype>
									<parameter authoringApp="PremierePro">
										<parameterid>Gain(dB)</parameterid>
										<name>Gain(dB)</name>
										<valuemin>-96</valuemin>
										<valuemax>96</valuemax>
										<value>-3</value>
									</parameter>
								</effect>
							</filter>
							<filter>
								<effect>
									<name>Audio Levels</name>
									<effectid>audiolevels</effectid>
									<effectcategory>audiolevels</effectcategory>
									<effecttype>audiolevels</effecttype>
									<mediatype>audio</mediatype>
									<parameter authoringApp="PremierePro">
										<parameterid>level</parameterid>
										<name>Level</name>
										<valuemin>0</valuemin>
										<valuemax>3.98109</valuemax>
										<value>0.0666504</value>
										<keyframe>
											<when>660</when>
											<value>0</value>
										</keyframe>
										<keyframe>
											<when>698</when>
											<value>0.14622</value>
										</keyframe>
										<keyframe>
											<when>724</when>
											<value>0.431258</value>
										</keyframe>
										<keyframe>
											<when>760</when>
											<value>0.440495</value>
										</keyframe>
										<keyframe>
											<when>765</when>
											<value>0.0946699</value>
										</keyframe>
										<keyframe>
											<when>776</when>
											<value>0.0894597</value>
										</keyframe>
										<keyframe>
											<when>1009</when>
											<value>0.0413811</value>
										</keyframe>
										<keyframe>
											<when>1098</when>
											<value>0</value>
										</keyframe>
									</parameter>
								</effect>
							</filter>
							<filter>
								<effect>
									<name>Audio Pan</name>
									<effectid>audiopan</effectid>
									<effectcategory>audiopan</effectcategory>
									<effecttype>audiopan</effecttype>
									<mediatype>audio</mediatype>
									<parameter authoringApp="PremierePro">
										<parameterid>pan</parameterid>
										<name>Pan</name>
										<valuemin>-1</valuemin>
										<valuemax>1</valuemax>
										<value>0</value>
									</parameter>
								</effect>
							</filter>
						<link>
							<linkclipref>clipitem-276</linkclipref>
							<mediatype>video</mediatype>
							<trackindex>3</trackindex>
							<clipindex>164</clipindex>
						</link>
						<link>
							<linkclipref>clipitem-671</linkclipref>
							<mediatype>audio</mediatype>
							<trackindex>10</trackindex>
							<clipindex>74</clipindex>
							<groupindex>1</groupindex>
						</link>
						<link>
							<linkclipref>clipitem-711</linkclipref>
							<mediatype>audio</mediatype>
							<trackindex>11</trackindex>
							<clipindex>74</clipindex>
							<groupindex>1</groupindex>
						</link>
					</clipitem>
					<clipitem id="clipitem-672" frameBlend="FALSE" PannerCurrentValue="0.5" PannerKeyframes="" PannerStartKeyframe="-91445760000000000,0.5,0,0,0,0,0,0" PannerIsInverted="true" PannerName="Balance">
						<masterclipid>masterclip-91</masterclipid>
						<name>FILM_Break_kaleido.mov</name>
						<enabled>TRUE</enabled>
						<duration>197</duration>
						<rate>
							<ntsc>TRUE</ntsc>
							<timebase>30</timebase>
						</rate>
						<start>42375</start>
						<end>42572</end>
						<in>0</in>
						<out>197</out>
						<file id="file-91"/>
						<sourcetrack>
							<mediatype>audio</mediatype>
							<trackindex>1</trackindex>
						</sourcetrack>
							<filter>
								<effect>
									<name>Audio Pan</name>
									<effectid>audiopan</effectid>
									<effectcategory>audiopan</effectcategory>
									<effecttype>audiopan</effecttype>
									<mediatype>audio</mediatype>
									<parameter authoringApp="PremierePro">
										<parameterid>pan</parameterid>
										<name>Pan</name>
										<valuemin>-1</valuemin>
										<valuemax>1</valuemax>
										<value>0</value>
									</parameter>
								</effect>
							</filter>
						<link>
							<linkclipref>clipitem-277</linkclipref>
							<mediatype>video</mediatype>
							<trackindex>3</trackindex>
							<clipindex>165</clipindex>
						</link>
						<link>
							<linkclipref>clipitem-672</linkclipref>
							<mediatype>audio</mediatype>
							<trackindex>10</trackindex>
							<clipindex>75</clipindex>
							<groupindex>1</groupindex>
						</link>
						<link>
							<linkclipref>clipitem-712</linkclipref>
							<mediatype>audio</mediatype>
							<trackindex>11</trackindex>
							<clipindex>75</clipindex>
							<groupindex>1</groupindex>
						</link>
					</clipitem>
					<transitionitem>
						<start>43205</start>
						<end>43230</end>
						<alignment>start-black</alignment>
						<cutPoint>0</cutPoint>
						<rate>
							<timebase>25</timebase>
							<ntsc>FALSE</ntsc>
						</rate>
						<effect>
							<name>Cross Fade (+3dB)</name>
							<effectid>KGAudioTransCrossFade3dB</effectid>
							<effecttype>transition</effecttype>
							<mediatype>audio</mediatype>
							<wipecode>0</wipecode>
							<wipeaccuracy>100</wipeaccuracy>
							<startratio>0</startratio>
							<endratio>1</endratio>
							<reverse>FALSE</reverse>
						</effect>
					</transitionitem>
					<clipitem id="clipitem-673" frameBlend="FALSE" PannerCurrentValue="0.5" PannerKeyframes="" PannerStartKeyframe="-91445760000000000,0.5,0,0,0,0,0,0" PannerIsInverted="true" PannerName="Balance">
						<masterclipid>masterclip-208</masterclipid>
						<name>Film Bonanza 2013 Rulletext Hammond.wav</name>
						<enabled>TRUE</enabled>
						<duration>1111</duration>
						<rate>
							<ntsc>TRUE</ntsc>
							<timebase>30</timebase>
						</rate>
						<start>-1</start>
						<end>-1</end>
						<in>605</in>
						<out>927</out>
						<file id="file-207"/>
						<sourcetrack>
							<mediatype>audio</mediatype>
							<trackindex>1</trackindex>
						</sourcetrack>
							<filter>
								<effect>
									<name>Gain</name>
									<effectid>{61756678, 4761696e, 4b657947}</effectid>
									<effecttype>filter</effecttype>
									<mediatype>audio</mediatype>
									<parameter authoringApp="PremierePro">
										<parameterid>Gain(dB)</parameterid>
										<name>Gain(dB)</name>
										<valuemin>-96</valuemin>
										<valuemax>96</valuemax>
										<value>-9</value>
									</parameter>
								</effect>
							</filter>
							<filter>
								<effect>
									<name>Audio Pan</name>
									<effectid>audiopan</effectid>
									<effectcategory>audiopan</effectcategory>
									<effecttype>audiopan</effecttype>
									<mediatype>audio</mediatype>
									<parameter authoringApp="PremierePro">
										<parameterid>pan</parameterid>
										<name>Pan</name>
										<valuemin>-1</valuemin>
										<valuemax>1</valuemax>
										<value>0</value>
									</parameter>
								</effect>
							</filter>
						<link>
							<linkclipref>clipitem-673</linkclipref>
							<mediatype>audio</mediatype>
							<trackindex>10</trackindex>
							<clipindex>77</clipindex>
							<groupindex>1</groupindex>
						</link>
						<link>
							<linkclipref>clipitem-713</linkclipref>
							<mediatype>audio</mediatype>
							<trackindex>11</trackindex>
							<clipindex>77</clipindex>
							<groupindex>1</groupindex>
						</link>
					</clipitem>
					<transitionitem>
						<start>43502</start>
						<end>43527</end>
						<alignment>end-black</alignment>
						<cutPoint>25</cutPoint>
						<rate>
							<timebase>25</timebase>
							<ntsc>FALSE</ntsc>
						</rate>
						<effect>
							<name>Cross Fade (+3dB)</name>
							<effectid>KGAudioTransCrossFade3dB</effectid>
							<effecttype>transition</effecttype>
							<mediatype>audio</mediatype>
							<wipecode>0</wipecode>
							<wipeaccuracy>100</wipeaccuracy>
							<startratio>0</startratio>
							<endratio>1</endratio>
							<reverse>FALSE</reverse>
						</effect>
					</transitionitem>
					<enabled>TRUE</enabled>
					<locked>FALSE</locked>
					<outputchannelindex>1</outputchannelindex>
				</track>
				<track TL.SQTrackAudioKeyframeStyle="0" TL.SQTrackShy="0" TL.SQTrackExpandedHeight="65" TL.SQTrackExpanded="1" MZ.TrackTargeted="1" PannerCurrentValue="0.5" PannerIsInverted="true" PannerStartKeyframe="-91445760000000000,0.5,0,0,0,0,0,0" PannerName="Balance" currentExplodedTrackIndex="1" totalExplodedTrackCount="2" premiereTrackType="Stereo">
					<transitionitem>
						<start>269</start>
						<end>341</end>
						<alignment>start-black</alignment>
						<cutPoint>0</cutPoint>
						<rate>
							<timebase>25</timebase>
							<ntsc>FALSE</ntsc>
						</rate>
						<effect>
							<name>Cross Fade (+3dB)</name>
							<effectid>KGAudioTransCrossFade3dB</effectid>
							<effecttype>transition</effecttype>
							<mediatype>audio</mediatype>
							<wipecode>0</wipecode>
							<wipeaccuracy>100</wipeaccuracy>
							<startratio>0</startratio>
							<endratio>1</endratio>
							<reverse>FALSE</reverse>
						</effect>
					</transitionitem>
					<clipitem id="clipitem-674" frameBlend="FALSE" PannerCurrentValue="0.5" PannerKeyframes="" PannerStartKeyframe="-91445760000000000,0.5,0,0,0,0,0,0" PannerIsInverted="true" PannerName="Balance">
						<masterclipid>masterclip-35</masterclipid>
						<name>apocalypse_now_begynnelsen</name>
						<enabled>TRUE</enabled>
						<duration>9005</duration>
						<rate>
							<ntsc>TRUE</ntsc>
							<timebase>30</timebase>
						</rate>
						<start>-1</start>
						<end>-1</end>
						<in>3516</in>
						<out>3685</out>
						<file id="file-35"/>
						<sourcetrack>
							<mediatype>audio</mediatype>
							<trackindex>2</trackindex>
						</sourcetrack>
							<filter>
								<effect>
									<name>Gain</name>
									<effectid>{61756678, 4761696e, 4b657947}</effectid>
									<effecttype>filter</effecttype>
									<mediatype>audio</mediatype>
									<parameter authoringApp="PremierePro">
										<parameterid>Gain(dB)</parameterid>
										<name>Gain(dB)</name>
										<valuemin>-96</valuemin>
										<valuemax>96</valuemax>
										<value>-6</value>
									</parameter>
								</effect>
							</filter>
							<filter>
								<effect>
									<name>Audio Levels</name>
									<effectid>audiolevels</effectid>
									<effectcategory>audiolevels</effectcategory>
									<effecttype>audiolevels</effecttype>
									<mediatype>audio</mediatype>
									<parameter authoringApp="PremierePro">
										<parameterid>level</parameterid>
										<name>Level</name>
										<valuemin>0</valuemin>
										<valuemax>3.98109</valuemax>
										<value>0.99763</value>
										<keyframe>
											<when>3752</when>
											<value>0.99763</value>
										</keyframe>
										<keyframe>
											<when>3818</when>
											<value>0.250593</value>
										</keyframe>
									</parameter>
								</effect>
							</filter>
							<filter>
								<effect>
									<name>Audio Pan</name>
									<effectid>audiopan</effectid>
									<effectcategory>audiopan</effectcategory>
									<effecttype>audiopan</effecttype>
									<mediatype>audio</mediatype>
									<parameter authoringApp="PremierePro">
										<parameterid>pan</parameterid>
										<name>Pan</name>
										<valuemin>-1</valuemin>
										<valuemax>1</valuemax>
										<value>0</value>
									</parameter>
								</effect>
							</filter>
						<link>
							<linkclipref>clipitem-634</linkclipref>
							<mediatype>audio</mediatype>
							<trackindex>10</trackindex>
							<clipindex>2</clipindex>
							<groupindex>1</groupindex>
						</link>
						<link>
							<linkclipref>clipitem-674</linkclipref>
							<mediatype>audio</mediatype>
							<trackindex>11</trackindex>
							<clipindex>2</clipindex>
							<groupindex>1</groupindex>
						</link>
					</clipitem>
					<transitionitem>
						<start>413</start>
						<end>438</end>
						<alignment>end-black</alignment>
						<cutPoint>25</cutPoint>
						<rate>
							<timebase>25</timebase>
							<ntsc>FALSE</ntsc>
						</rate>
						<effect>
							<name>Cross Fade (+3dB)</name>
							<effectid>KGAudioTransCrossFade3dB</effectid>
							<effecttype>transition</effecttype>
							<mediatype>audio</mediatype>
							<wipecode>0</wipecode>
							<wipeaccuracy>100</wipeaccuracy>
							<startratio>0</startratio>
							<endratio>1</endratio>
							<reverse>FALSE</reverse>
						</effect>
					</transitionitem>
					<transitionitem>
						<start>483</start>
						<end>496</end>
						<alignment>start-black</alignment>
						<cutPoint>0</cutPoint>
						<rate>
							<timebase>25</timebase>
							<ntsc>FALSE</ntsc>
						</rate>
						<effect>
							<name>Cross Fade (+3dB)</name>
							<effectid>KGAudioTransCrossFade3dB</effectid>
							<effecttype>transition</effecttype>
							<mediatype>audio</mediatype>
							<wipecode>0</wipecode>
							<wipeaccuracy>100</wipeaccuracy>
							<startratio>0</startratio>
							<endratio>1</endratio>
							<reverse>FALSE</reverse>
						</effect>
					</transitionitem>
					<clipitem id="clipitem-675" frameBlend="FALSE" PannerCurrentValue="0.5" PannerKeyframes="" PannerStartKeyframe="-91445760000000000,0.5,0,0,0,0,0,0" PannerIsInverted="true" PannerName="Balance">
						<masterclipid>masterclip-202</masterclipid>
						<name>FB Generell Bakgrunn.aif</name>
						<enabled>FALSE</enabled>
						<duration>1148</duration>
						<rate>
							<ntsc>TRUE</ntsc>
							<timebase>30</timebase>
						</rate>
						<start>-1</start>
						<end>542</end>
						<in>11</in>
						<out>70</out>
						<file id="file-201"/>
						<sourcetrack>
							<mediatype>audio</mediatype>
							<trackindex>2</trackindex>
						</sourcetrack>
							<filter>
								<effect>
									<name>Audio Levels</name>
									<effectid>audiolevels</effectid>
									<effectcategory>audiolevels</effectcategory>
									<effecttype>audiolevels</effecttype>
									<mediatype>audio</mediatype>
									<parameter authoringApp="PremierePro">
										<parameterid>level</parameterid>
										<name>Level</name>
										<valuemin>0</valuemin>
										<valuemax>3.98109</valuemax>
										<value>0.12133</value>
										<keyframe>
											<when>118</when>
											<value>0.0408762</value>
										</keyframe>
										<keyframe>
											<when>122</when>
											<value>0.12133</value>
										</keyframe>
									</parameter>
								</effect>
							</filter>
							<filter>
								<effect>
									<name>Audio Pan</name>
									<effectid>audiopan</effectid>
									<effectcategory>audiopan</effectcategory>
									<effecttype>audiopan</effecttype>
									<mediatype>audio</mediatype>
									<parameter authoringApp="PremierePro">
										<parameterid>pan</parameterid>
										<name>Pan</name>
										<valuemin>-1</valuemin>
										<valuemax>1</valuemax>
										<value>0</value>
									</parameter>
								</effect>
							</filter>
						<link>
							<linkclipref>clipitem-635</linkclipref>
							<mediatype>audio</mediatype>
							<trackindex>10</trackindex>
							<clipindex>5</clipindex>
							<groupindex>1</groupindex>
						</link>
						<link>
							<linkclipref>clipitem-675</linkclipref>
							<mediatype>audio</mediatype>
							<trackindex>11</trackindex>
							<clipindex>5</clipindex>
							<groupindex>1</groupindex>
						</link>
					</clipitem>
					<clipitem id="clipitem-676" frameBlend="FALSE" PannerCurrentValue="0.5" PannerKeyframes="" PannerStartKeyframe="-91445760000000000,0.5,0,0,0,0,0,0" PannerIsInverted="true" PannerName="Balance">
						<masterclipid>masterclip-38</masterclipid>
						<name>Cleopatra</name>
						<enabled>TRUE</enabled>
						<duration>10842</duration>
						<rate>
							<ntsc>TRUE</ntsc>
							<timebase>30</timebase>
						</rate>
						<start>542</start>
						<end>-1</end>
						<in>6018</in>
						<out>6206</out>
						<file id="file-38"/>
						<sourcetrack>
							<mediatype>audio</mediatype>
							<trackindex>2</trackindex>
						</sourcetrack>
							<filter>
								<effect>
									<name>Audio Levels</name>
									<effectid>audiolevels</effectid>
									<effectcategory>audiolevels</effectcategory>
									<effecttype>audiolevels</effecttype>
									<mediatype>audio</mediatype>
									<parameter authoringApp="PremierePro">
										<parameterid>level</parameterid>
										<name>Level</name>
										<valuemin>0</valuemin>
										<valuemax>3.98109</valuemax>
										<value>0.110273</value>
										<keyframe>
											<when>5773</when>
											<value>0.64846</value>
										</keyframe>
										<keyframe>
											<when>5799</when>
											<value>0.12918</value>
										</keyframe>
										<keyframe>
											<when>6027</when>
											<value>0</value>
										</keyframe>
										<keyframe>
											<when>6036</when>
											<value>0.110273</value>
										</keyframe>
									</parameter>
								</effect>
							</filter>
							<filter>
								<effect>
									<name>Audio Pan</name>
									<effectid>audiopan</effectid>
									<effectcategory>audiopan</effectcategory>
									<effecttype>audiopan</effecttype>
									<mediatype>audio</mediatype>
									<parameter authoringApp="PremierePro">
										<parameterid>pan</parameterid>
										<name>Pan</name>
										<valuemin>-1</valuemin>
										<valuemax>1</valuemax>
										<value>0</value>
									</parameter>
								</effect>
							</filter>
						<link>
							<linkclipref>clipitem-636</linkclipref>
							<mediatype>audio</mediatype>
							<trackindex>10</trackindex>
							<clipindex>6</clipindex>
							<groupindex>1</groupindex>
						</link>
						<link>
							<linkclipref>clipitem-676</linkclipref>
							<mediatype>audio</mediatype>
							<trackindex>11</trackindex>
							<clipindex>6</clipindex>
							<groupindex>1</groupindex>
						</link>
					</clipitem>
					<transitionitem>
						<start>725</start>
						<end>730</end>
						<alignment>end-black</alignment>
						<cutPoint>5</cutPoint>
						<rate>
							<timebase>25</timebase>
							<ntsc>FALSE</ntsc>
						</rate>
						<effect>
							<name>Cross Fade (+3dB)</name>
							<effectid>KGAudioTransCrossFade3dB</effectid>
							<effecttype>transition</effecttype>
							<mediatype>audio</mediatype>
							<wipecode>0</wipecode>
							<wipeaccuracy>100</wipeaccuracy>
							<startratio>0</startratio>
							<endratio>1</endratio>
							<reverse>FALSE</reverse>
						</effect>
					</transitionitem>
					<transitionitem>
						<start>2126</start>
						<end>2139</end>
						<alignment>start-black</alignment>
						<cutPoint>0</cutPoint>
						<rate>
							<timebase>25</timebase>
							<ntsc>FALSE</ntsc>
						</rate>
						<effect>
							<name>Cross Fade (+3dB)</name>
							<effectid>KGAudioTransCrossFade3dB</effectid>
							<effecttype>transition</effecttype>
							<mediatype>audio</mediatype>
							<wipecode>0</wipecode>
							<wipeaccuracy>100</wipeaccuracy>
							<startratio>0</startratio>
							<endratio>1</endratio>
							<reverse>FALSE</reverse>
						</effect>
					</transitionitem>
					<clipitem id="clipitem-677" frameBlend="FALSE" PannerCurrentValue="0.5" PannerKeyframes="" PannerStartKeyframe="-91445760000000000,0.5,0,0,0,0,0,0" PannerIsInverted="true" PannerName="Balance">
						<masterclipid>masterclip-209</masterclipid>
						<name>NONRO169339CD0001 The Planets Op. 32 = H 125- 1..wav</name>
						<enabled>TRUE</enabled>
						<duration>9242</duration>
						<rate>
							<ntsc>TRUE</ntsc>
							<timebase>30</timebase>
						</rate>
						<start>-1</start>
						<end>-1</end>
						<in>0</in>
						<out>122</out>
						<file id="file-208"/>
						<sourcetrack>
							<mediatype>audio</mediatype>
							<trackindex>2</trackindex>
						</sourcetrack>
							<filter>
								<effect>
									<name>Audio Levels</name>
									<effectid>audiolevels</effectid>
									<effectcategory>audiolevels</effectcategory>
									<effecttype>audiolevels</effecttype>
									<mediatype>audio</mediatype>
									<parameter authoringApp="PremierePro">
										<parameterid>level</parameterid>
										<name>Level</name>
										<valuemin>0</valuemin>
										<valuemax>3.98109</valuemax>
										<value>0.61283</value>
									</parameter>
								</effect>
							</filter>
							<filter>
								<effect>
									<name>Audio Pan</name>
									<effectid>audiopan</effectid>
									<effectcategory>audiopan</effectcategory>
									<effecttype>audiopan</effecttype>
									<mediatype>audio</mediatype>
									<parameter authoringApp="PremierePro">
										<parameterid>pan</parameterid>
										<name>Pan</name>
										<valuemin>-1</valuemin>
										<valuemax>1</valuemax>
										<value>0</value>
									</parameter>
								</effect>
							</filter>
						<link>
							<linkclipref>clipitem-637</linkclipref>
							<mediatype>audio</mediatype>
							<trackindex>10</trackindex>
							<clipindex>9</clipindex>
							<groupindex>1</groupindex>
						</link>
						<link>
							<linkclipref>clipitem-677</linkclipref>
							<mediatype>audio</mediatype>
							<trackindex>11</trackindex>
							<clipindex>9</clipindex>
							<groupindex>1</groupindex>
						</link>
					</clipitem>
					<transitionitem>
						<start>2223</start>
						<end>2248</end>
						<alignment>center</alignment>
						<cutPoint>12</cutPoint>
						<rate>
							<timebase>25</timebase>
							<ntsc>FALSE</ntsc>
						</rate>
						<effect>
							<name>Cross Fade (+3dB)</name>
							<effectid>KGAudioTransCrossFade3dB</effectid>
							<effecttype>transition</effecttype>
							<mediatype>audio</mediatype>
							<wipecode>0</wipecode>
							<wipeaccuracy>100</wipeaccuracy>
							<startratio>0</startratio>
							<endratio>1</endratio>
							<reverse>FALSE</reverse>
						</effect>
					</transitionitem>
					<clipitem id="clipitem-678" frameBlend="FALSE" PannerCurrentValue="0.5" PannerKeyframes="" PannerStartKeyframe="-91445760000000000,0.5,0,0,0,0,0,0" PannerIsInverted="true" PannerName="Balance">
						<masterclipid>masterclip-209</masterclipid>
						<name>NONRO169339CD0001 The Planets Op. 32 = H 125- 1..wav</name>
						<enabled>TRUE</enabled>
						<duration>9242</duration>
						<rate>
							<ntsc>TRUE</ntsc>
							<timebase>30</timebase>
						</rate>
						<start>-1</start>
						<end>-1</end>
						<in>97</in>
						<out>891</out>
						<file id="file-208"/>
						<sourcetrack>
							<mediatype>audio</mediatype>
							<trackindex>2</trackindex>
						</sourcetrack>
							<filter>
								<effect>
									<name>Audio Levels</name>
									<effectid>audiolevels</effectid>
									<effectcategory>audiolevels</effectcategory>
									<effecttype>audiolevels</effecttype>
									<mediatype>audio</mediatype>
									<parameter authoringApp="PremierePro">
										<parameterid>level</parameterid>
										<name>Level</name>
										<valuemin>0</valuemin>
										<valuemax>3.98109</valuemax>
										<value>0.363422</value>
									</parameter>
								</effect>
							</filter>
							<filter>
								<effect>
									<name>Audio Pan</name>
									<effectid>audiopan</effectid>
									<effectcategory>audiopan</effectcategory>
									<effecttype>audiopan</effecttype>
									<mediatype>audio</mediatype>
									<parameter authoringApp="PremierePro">
										<parameterid>pan</parameterid>
										<name>Pan</name>
										<valuemin>-1</valuemin>
										<valuemax>1</valuemax>
										<value>0</value>
									</parameter>
								</effect>
							</filter>
						<link>
							<linkclipref>clipitem-638</linkclipref>
							<mediatype>audio</mediatype>
							<trackindex>10</trackindex>
							<clipindex>11</clipindex>
							<groupindex>1</groupindex>
						</link>
						<link>
							<linkclipref>clipitem-678</linkclipref>
							<mediatype>audio</mediatype>
							<trackindex>11</trackindex>
							<clipindex>11</clipindex>
							<groupindex>1</groupindex>
						</link>
					</clipitem>
					<transitionitem>
						<start>3004</start>
						<end>3017</end>
						<alignment>end-black</alignment>
						<cutPoint>13</cutPoint>
						<rate>
							<timebase>25</timebase>
							<ntsc>FALSE</ntsc>
						</rate>
						<effect>
							<name>Cross Fade (+3dB)</name>
							<effectid>KGAudioTransCrossFade3dB</effectid>
							<effecttype>transition</effecttype>
							<mediatype>audio</mediatype>
							<wipecode>0</wipecode>
							<wipeaccuracy>100</wipeaccuracy>
							<startratio>0</startratio>
							<endratio>1</endratio>
							<reverse>FALSE</reverse>
						</effect>
					</transitionitem>
					<transitionitem>
						<start>3764</start>
						<end>3789</end>
						<alignment>start-black</alignment>
						<cutPoint>0</cutPoint>
						<rate>
							<timebase>25</timebase>
							<ntsc>FALSE</ntsc>
						</rate>
						<effect>
							<name>Cross Fade (+3dB)</name>
							<effectid>KGAudioTransCrossFade3dB</effectid>
							<effecttype>transition</effecttype>
							<mediatype>audio</mediatype>
							<wipecode>0</wipecode>
							<wipeaccuracy>100</wipeaccuracy>
							<startratio>0</startratio>
							<endratio>1</endratio>
							<reverse>FALSE</reverse>
						</effect>
					</transitionitem>
					<clipitem id="clipitem-679" frameBlend="FALSE" PannerCurrentValue="0.5" PannerKeyframes="" PannerStartKeyframe="-91445760000000000,0.5,0,0,0,0,0,0" PannerIsInverted="true" PannerName="Balance">
						<masterclipid>masterclip-45</masterclipid>
						<name>Ben Hur</name>
						<enabled>TRUE</enabled>
						<duration>22984</duration>
						<rate>
							<ntsc>TRUE</ntsc>
							<timebase>30</timebase>
						</rate>
						<start>-1</start>
						<end>-1</end>
						<in>567</in>
						<out>1022</out>
						<file id="file-45"/>
						<sourcetrack>
							<mediatype>audio</mediatype>
							<trackindex>2</trackindex>
						</sourcetrack>
							<filter>
								<effect>
									<name>Gain</name>
									<effectid>{61756678, 4761696e, 4b657947}</effectid>
									<effecttype>filter</effecttype>
									<mediatype>audio</mediatype>
									<parameter authoringApp="PremierePro">
										<parameterid>Gain(dB)</parameterid>
										<name>Gain(dB)</name>
										<valuemin>-96</valuemin>
										<valuemax>96</valuemax>
										<value>-3</value>
									</parameter>
								</effect>
							</filter>
							<filter>
								<effect>
									<name>Audio Levels</name>
									<effectid>audiolevels</effectid>
									<effectcategory>audiolevels</effectcategory>
									<effecttype>audiolevels</effecttype>
									<mediatype>audio</mediatype>
									<parameter authoringApp="PremierePro">
										<parameterid>level</parameterid>
										<name>Level</name>
										<valuemin>0</valuemin>
										<valuemax>3.98109</valuemax>
										<value>0.889044</value>
										<keyframe>
											<when>723</when>
											<value>0.889044</value>
										</keyframe>
										<keyframe>
											<when>740</when>
											<value>0.853947</value>
										</keyframe>
										<keyframe>
											<when>748</when>
											<value>0.221922</value>
										</keyframe>
									</parameter>
								</effect>
							</filter>
							<filter>
								<effect>
									<name>Audio Pan</name>
									<effectid>audiopan</effectid>
									<effectcategory>audiopan</effectcategory>
									<effecttype>audiopan</effecttype>
									<mediatype>audio</mediatype>
									<parameter authoringApp="PremierePro">
										<parameterid>pan</parameterid>
										<name>Pan</name>
										<valuemin>-1</valuemin>
										<valuemax>1</valuemax>
										<value>0</value>
									</parameter>
								</effect>
							</filter>
						<link>
							<linkclipref>clipitem-639</linkclipref>
							<mediatype>audio</mediatype>
							<trackindex>10</trackindex>
							<clipindex>14</clipindex>
							<groupindex>1</groupindex>
						</link>
						<link>
							<linkclipref>clipitem-679</linkclipref>
							<mediatype>audio</mediatype>
							<trackindex>11</trackindex>
							<clipindex>14</clipindex>
							<groupindex>1</groupindex>
						</link>
					</clipitem>
					<transitionitem>
						<start>4194</start>
						<end>4219</end>
						<alignment>center</alignment>
						<cutPoint>12</cutPoint>
						<rate>
							<timebase>25</timebase>
							<ntsc>FALSE</ntsc>
						</rate>
						<effect>
							<name>Cross Fade (+3dB)</name>
							<effectid>KGAudioTransCrossFade3dB</effectid>
							<effecttype>transition</effecttype>
							<mediatype>audio</mediatype>
							<wipecode>0</wipecode>
							<wipeaccuracy>100</wipeaccuracy>
							<startratio>0</startratio>
							<endratio>1</endratio>
							<reverse>FALSE</reverse>
						</effect>
					</transitionitem>
					<clipitem id="clipitem-680" frameBlend="FALSE" PannerCurrentValue="0.5" PannerKeyframes="" PannerStartKeyframe="-91445760000000000,0.5,0,0,0,0,0,0" PannerIsInverted="true" PannerName="Balance">
						<masterclipid>masterclip-45</masterclipid>
						<name>Ben Hur</name>
						<enabled>TRUE</enabled>
						<duration>22984</duration>
						<rate>
							<ntsc>TRUE</ntsc>
							<timebase>30</timebase>
						</rate>
						<start>-1</start>
						<end>-1</end>
						<in>5512</in>
						<out>5658</out>
						<file id="file-45"/>
						<sourcetrack>
							<mediatype>audio</mediatype>
							<trackindex>2</trackindex>
						</sourcetrack>
							<filter>
								<effect>
									<name>Audio Levels</name>
									<effectid>audiolevels</effectid>
									<effectcategory>audiolevels</effectcategory>
									<effecttype>audiolevels</effecttype>
									<mediatype>audio</mediatype>
									<parameter authoringApp="PremierePro">
										<parameterid>level</parameterid>
										<name>Level</name>
										<valuemin>0</valuemin>
										<valuemax>3.98109</valuemax>
										<value>1.25343</value>
									</parameter>
								</effect>
							</filter>
							<filter>
								<effect>
									<name>Audio Pan</name>
									<effectid>audiopan</effectid>
									<effectcategory>audiopan</effectcategory>
									<effecttype>audiopan</effecttype>
									<mediatype>audio</mediatype>
									<parameter authoringApp="PremierePro">
										<parameterid>pan</parameterid>
										<name>Pan</name>
										<valuemin>-1</valuemin>
										<valuemax>1</valuemax>
										<value>0</value>
									</parameter>
								</effect>
							</filter>
						<link>
							<linkclipref>clipitem-640</linkclipref>
							<mediatype>audio</mediatype>
							<trackindex>10</trackindex>
							<clipindex>16</clipindex>
							<groupindex>1</groupindex>
						</link>
						<link>
							<linkclipref>clipitem-680</linkclipref>
							<mediatype>audio</mediatype>
							<trackindex>11</trackindex>
							<clipindex>16</clipindex>
							<groupindex>1</groupindex>
						</link>
					</clipitem>
					<transitionitem>
						<start>4315</start>
						<end>4340</end>
						<alignment>center</alignment>
						<cutPoint>12</cutPoint>
						<rate>
							<timebase>25</timebase>
							<ntsc>FALSE</ntsc>
						</rate>
						<effect>
							<name>Cross Fade (+3dB)</name>
							<effectid>KGAudioTransCrossFade3dB</effectid>
							<effecttype>transition</effecttype>
							<mediatype>audio</mediatype>
							<wipecode>0</wipecode>
							<wipeaccuracy>100</wipeaccuracy>
							<startratio>0</startratio>
							<endratio>1</endratio>
							<reverse>FALSE</reverse>
						</effect>
					</transitionitem>
					<clipitem id="clipitem-681" frameBlend="FALSE" PannerCurrentValue="0.5" PannerKeyframes="" PannerStartKeyframe="-91445760000000000,0.5,0,0,0,0,0,0" PannerIsInverted="true" PannerName="Balance">
						<masterclipid>masterclip-38</masterclipid>
						<name>Cleopatra</name>
						<enabled>TRUE</enabled>
						<duration>10842</duration>
						<rate>
							<ntsc>TRUE</ntsc>
							<timebase>30</timebase>
						</rate>
						<start>-1</start>
						<end>4734</end>
						<in>5637</in>
						<out>6056</out>
						<file id="file-38"/>
						<sourcetrack>
							<mediatype>audio</mediatype>
							<trackindex>2</trackindex>
						</sourcetrack>
							<filter>
								<effect>
									<name>Gain</name>
									<effectid>{61756678, 4761696e, 4b657947}</effectid>
									<effecttype>filter</effecttype>
									<mediatype>audio</mediatype>
									<parameter authoringApp="PremierePro">
										<parameterid>Gain(dB)</parameterid>
										<name>Gain(dB)</name>
										<valuemin>-96</valuemin>
										<valuemax>96</valuemax>
										<value>-3</value>
									</parameter>
								</effect>
							</filter>
							<filter>
								<effect>
									<name>Audio Levels</name>
									<effectid>audiolevels</effectid>
									<effectcategory>audiolevels</effectcategory>
									<effecttype>audiolevels</effecttype>
									<mediatype>audio</mediatype>
									<parameter authoringApp="PremierePro">
										<parameterid>level</parameterid>
										<name>Level</name>
										<valuemin>0</valuemin>
										<valuemax>3.98109</valuemax>
										<value>0.115607</value>
										<keyframe>
											<when>5773</when>
											<value>0.64846</value>
										</keyframe>
										<keyframe>
											<when>5788</when>
											<value>0.639138</value>
										</keyframe>
										<keyframe>
											<when>5795</when>
											<value>0.122836</value>
										</keyframe>
										<keyframe>
											<when>5799</when>
											<value>0.115607</value>
										</keyframe>
									</parameter>
								</effect>
							</filter>
							<filter>
								<effect>
									<name>Audio Pan</name>
									<effectid>audiopan</effectid>
									<effectcategory>audiopan</effectcategory>
									<effecttype>audiopan</effecttype>
									<mediatype>audio</mediatype>
									<parameter authoringApp="PremierePro">
										<parameterid>pan</parameterid>
										<name>Pan</name>
										<valuemin>-1</valuemin>
										<valuemax>1</valuemax>
										<value>0</value>
									</parameter>
								</effect>
							</filter>
						<link>
							<linkclipref>clipitem-641</linkclipref>
							<mediatype>audio</mediatype>
							<trackindex>10</trackindex>
							<clipindex>18</clipindex>
							<groupindex>1</groupindex>
						</link>
						<link>
							<linkclipref>clipitem-681</linkclipref>
							<mediatype>audio</mediatype>
							<trackindex>11</trackindex>
							<clipindex>18</clipindex>
							<groupindex>1</groupindex>
						</link>
					</clipitem>
					<clipitem id="clipitem-682" frameBlend="FALSE" PannerCurrentValue="0.5" PannerKeyframes="" PannerStartKeyframe="-91445760000000000,0.5,0,0,0,0,0,0" PannerIsInverted="true" PannerName="Balance">
						<masterclipid>masterclip-38</masterclipid>
						<name>Cleopatra</name>
						<enabled>TRUE</enabled>
						<duration>10842</duration>
						<rate>
							<ntsc>TRUE</ntsc>
							<timebase>30</timebase>
						</rate>
						<start>4734</start>
						<end>-1</end>
						<in>6056</in>
						<out>6214</out>
						<file id="file-38"/>
						<sourcetrack>
							<mediatype>audio</mediatype>
							<trackindex>2</trackindex>
						</sourcetrack>
							<filter>
								<effect>
									<name>Audio Levels</name>
									<effectid>audiolevels</effectid>
									<effectcategory>audiolevels</effectcategory>
									<effecttype>audiolevels</effecttype>
									<mediatype>audio</mediatype>
									<parameter authoringApp="PremierePro">
										<parameterid>level</parameterid>
										<name>Level</name>
										<valuemin>0</valuemin>
										<valuemax>3.98109</valuemax>
										<value>0.0748875</value>
										<keyframe>
											<when>5773</when>
											<value>0.64846</value>
										</keyframe>
										<keyframe>
											<when>5799</when>
											<value>0.12918</value>
										</keyframe>
										<keyframe>
											<when>6074</when>
											<value>0.12918</value>
										</keyframe>
										<keyframe>
											<when>6092</when>
											<value>0.0748875</value>
										</keyframe>
									</parameter>
								</effect>
							</filter>
							<filter>
								<effect>
									<name>Audio Pan</name>
									<effectid>audiopan</effectid>
									<effectcategory>audiopan</effectcategory>
									<effecttype>audiopan</effecttype>
									<mediatype>audio</mediatype>
									<parameter authoringApp="PremierePro">
										<parameterid>pan</parameterid>
										<name>Pan</name>
										<valuemin>-1</valuemin>
										<valuemax>1</valuemax>
										<value>0</value>
									</parameter>
								</effect>
							</filter>
						<link>
							<linkclipref>clipitem-642</linkclipref>
							<mediatype>audio</mediatype>
							<trackindex>10</trackindex>
							<clipindex>19</clipindex>
							<groupindex>1</groupindex>
						</link>
						<link>
							<linkclipref>clipitem-682</linkclipref>
							<mediatype>audio</mediatype>
							<trackindex>11</trackindex>
							<clipindex>19</clipindex>
							<groupindex>1</groupindex>
						</link>
					</clipitem>
					<transitionitem>
						<start>4867</start>
						<end>4892</end>
						<alignment>center</alignment>
						<cutPoint>12</cutPoint>
						<rate>
							<timebase>25</timebase>
							<ntsc>FALSE</ntsc>
						</rate>
						<effect>
							<name>Cross Fade (+3dB)</name>
							<effectid>KGAudioTransCrossFade3dB</effectid>
							<effecttype>transition</effecttype>
							<mediatype>audio</mediatype>
							<wipecode>0</wipecode>
							<wipeaccuracy>100</wipeaccuracy>
							<startratio>0</startratio>
							<endratio>1</endratio>
							<reverse>FALSE</reverse>
						</effect>
					</transitionitem>
					<clipitem id="clipitem-683" frameBlend="FALSE" PannerCurrentValue="0.5" PannerKeyframes="" PannerStartKeyframe="-91445760000000000,0.5,0,0,0,0,0,0" PannerIsInverted="true" PannerName="Balance">
						<masterclipid>masterclip-38</masterclipid>
						<name>Cleopatra</name>
						<enabled>TRUE</enabled>
						<duration>10842</duration>
						<rate>
							<ntsc>TRUE</ntsc>
							<timebase>30</timebase>
						</rate>
						<start>-1</start>
						<end>-1</end>
						<in>7708</in>
						<out>8245</out>
						<file id="file-38"/>
						<sourcetrack>
							<mediatype>audio</mediatype>
							<trackindex>2</trackindex>
						</sourcetrack>
							<filter>
								<effect>
									<name>Audio Levels</name>
									<effectid>audiolevels</effectid>
									<effectcategory>audiolevels</effectcategory>
									<effecttype>audiolevels</effecttype>
									<mediatype>audio</mediatype>
									<parameter authoringApp="PremierePro">
										<parameterid>level</parameterid>
										<name>Level</name>
										<valuemin>0</valuemin>
										<valuemax>3.98109</valuemax>
										<value>0.0600353</value>
									</parameter>
								</effect>
							</filter>
							<filter>
								<effect>
									<name>Audio Pan</name>
									<effectid>audiopan</effectid>
									<effectcategory>audiopan</effectcategory>
									<effecttype>audiopan</effecttype>
									<mediatype>audio</mediatype>
									<parameter authoringApp="PremierePro">
										<parameterid>pan</parameterid>
										<name>Pan</name>
										<valuemin>-1</valuemin>
										<valuemax>1</valuemax>
										<value>0</value>
									</parameter>
								</effect>
							</filter>
						<link>
							<linkclipref>clipitem-643</linkclipref>
							<mediatype>audio</mediatype>
							<trackindex>10</trackindex>
							<clipindex>21</clipindex>
							<groupindex>1</groupindex>
						</link>
						<link>
							<linkclipref>clipitem-683</linkclipref>
							<mediatype>audio</mediatype>
							<trackindex>11</trackindex>
							<clipindex>21</clipindex>
							<groupindex>1</groupindex>
						</link>
					</clipitem>
					<transitionitem>
						<start>5379</start>
						<end>5404</end>
						<alignment>center</alignment>
						<cutPoint>12</cutPoint>
						<rate>
							<timebase>25</timebase>
							<ntsc>FALSE</ntsc>
						</rate>
						<effect>
							<name>Cross Fade (+3dB)</name>
							<effectid>KGAudioTransCrossFade3dB</effectid>
							<effecttype>transition</effecttype>
							<mediatype>audio</mediatype>
							<wipecode>0</wipecode>
							<wipeaccuracy>100</wipeaccuracy>
							<startratio>0</startratio>
							<endratio>1</endratio>
							<reverse>FALSE</reverse>
						</effect>
					</transitionitem>
					<clipitem id="clipitem-684" frameBlend="FALSE" PannerCurrentValue="0.5" PannerKeyframes="" PannerStartKeyframe="-91445760000000000,0.5,0,0,0,0,0,0" PannerIsInverted="true" PannerName="Balance">
						<masterclipid>masterclip-36</masterclipid>
						<name>filmb-apocalypsenow_1.mxf</name>
						<enabled>TRUE</enabled>
						<duration>9706</duration>
						<rate>
							<ntsc>TRUE</ntsc>
							<timebase>30</timebase>
						</rate>
						<start>-1</start>
						<end>5522</end>
						<in>3777</in>
						<out>3920</out>
						<file id="file-36"/>
						<sourcetrack>
							<mediatype>audio</mediatype>
							<trackindex>2</trackindex>
						</sourcetrack>
							<filter>
								<effect>
									<name>Gain</name>
									<effectid>{61756678, 4761696e, 4b657947}</effectid>
									<effecttype>filter</effecttype>
									<mediatype>audio</mediatype>
									<parameter authoringApp="PremierePro">
										<parameterid>Gain(dB)</parameterid>
										<name>Gain(dB)</name>
										<valuemin>-96</valuemin>
										<valuemax>96</valuemax>
										<value>6</value>
									</parameter>
								</effect>
							</filter>
							<filter>
								<effect>
									<name>Audio Pan</name>
									<effectid>audiopan</effectid>
									<effectcategory>audiopan</effectcategory>
									<effecttype>audiopan</effecttype>
									<mediatype>audio</mediatype>
									<parameter authoringApp="PremierePro">
										<parameterid>pan</parameterid>
										<name>Pan</name>
										<valuemin>-1</valuemin>
										<valuemax>1</valuemax>
										<value>0</value>
									</parameter>
								</effect>
							</filter>
						<link>
							<linkclipref>clipitem-644</linkclipref>
							<mediatype>audio</mediatype>
							<trackindex>10</trackindex>
							<clipindex>23</clipindex>
							<groupindex>1</groupindex>
						</link>
						<link>
							<linkclipref>clipitem-684</linkclipref>
							<mediatype>audio</mediatype>
							<trackindex>11</trackindex>
							<clipindex>23</clipindex>
							<groupindex>1</groupindex>
						</link>
					</clipitem>
					<clipitem id="clipitem-685" frameBlend="FALSE" PannerCurrentValue="0.5" PannerKeyframes="" PannerStartKeyframe="-91445760000000000,0.5,0,0,0,0,0,0" PannerIsInverted="true" PannerName="Balance">
						<masterclipid>masterclip-46</masterclipid>
						<name>Hearts of darknes</name>
						<enabled>TRUE</enabled>
						<duration>14260</duration>
						<rate>
							<ntsc>TRUE</ntsc>
							<timebase>30</timebase>
						</rate>
						<start>6277</start>
						<end>6882</end>
						<in>6059</in>
						<out>6664</out>
						<file id="file-46"/>
						<sourcetrack>
							<mediatype>audio</mediatype>
							<trackindex>2</trackindex>
						</sourcetrack>
							<filter>
								<effect>
									<name>Audio Levels</name>
									<effectid>audiolevels</effectid>
									<effectcategory>audiolevels</effectcategory>
									<effecttype>audiolevels</effecttype>
									<mediatype>audio</mediatype>
									<parameter authoringApp="PremierePro">
										<parameterid>level</parameterid>
										<name>Level</name>
										<valuemin>0</valuemin>
										<valuemax>3.98109</valuemax>
										<value>0.113133</value>
										<keyframe>
											<when>6114</when>
											<value>0.113133</value>
										</keyframe>
										<keyframe>
											<when>6142</when>
											<value>0.99763</value>
										</keyframe>
										<keyframe>
											<when>6340</when>
											<value>0.99763</value>
										</keyframe>
										<keyframe>
											<when>6365</when>
											<value>0.0951922</value>
										</keyframe>
										<keyframe>
											<when>6476</when>
											<value>0.137644</value>
										</keyframe>
										<keyframe>
											<when>6489</when>
											<value>0.0659585</value>
										</keyframe>
									</parameter>
								</effect>
							</filter>
							<filter>
								<effect>
									<name>Audio Pan</name>
									<effectid>audiopan</effectid>
									<effectcategory>audiopan</effectcategory>
									<effecttype>audiopan</effecttype>
									<mediatype>audio</mediatype>
									<parameter authoringApp="PremierePro">
										<parameterid>pan</parameterid>
										<name>Pan</name>
										<valuemin>-1</valuemin>
										<valuemax>1</valuemax>
										<value>0</value>
									</parameter>
								</effect>
							</filter>
						<link>
							<linkclipref>clipitem-645</linkclipref>
							<mediatype>audio</mediatype>
							<trackindex>10</trackindex>
							<clipindex>24</clipindex>
							<groupindex>1</groupindex>
						</link>
						<link>
							<linkclipref>clipitem-685</linkclipref>
							<mediatype>audio</mediatype>
							<trackindex>11</trackindex>
							<clipindex>24</clipindex>
							<groupindex>1</groupindex>
						</link>
					</clipitem>
					<transitionitem>
						<start>7352</start>
						<end>7377</end>
						<alignment>start-black</alignment>
						<cutPoint>0</cutPoint>
						<rate>
							<timebase>25</timebase>
							<ntsc>FALSE</ntsc>
						</rate>
						<effect>
							<name>Cross Fade (+3dB)</name>
							<effectid>KGAudioTransCrossFade3dB</effectid>
							<effecttype>transition</effecttype>
							<mediatype>audio</mediatype>
							<wipecode>0</wipecode>
							<wipeaccuracy>100</wipeaccuracy>
							<startratio>0</startratio>
							<endratio>1</endratio>
							<reverse>FALSE</reverse>
						</effect>
					</transitionitem>
					<clipitem id="clipitem-686" frameBlend="FALSE" PannerCurrentValue="0.5" PannerKeyframes="" PannerStartKeyframe="-91445760000000000,0.5,0,0,0,0,0,0" PannerIsInverted="true" PannerName="Balance">
						<masterclipid>masterclip-49</masterclipid>
						<name>filmb-heavensgate_1_1.mxf</name>
						<enabled>TRUE</enabled>
						<duration>15828</duration>
						<rate>
							<ntsc>TRUE</ntsc>
							<timebase>30</timebase>
						</rate>
						<start>-1</start>
						<end>-1</end>
						<in>1393</in>
						<out>1533</out>
						<file id="file-49"/>
						<sourcetrack>
							<mediatype>audio</mediatype>
							<trackindex>2</trackindex>
						</sourcetrack>
							<filter>
								<effect>
									<name>Gain</name>
									<effectid>{61756678, 4761696e, 4b657947}</effectid>
									<effecttype>filter</effecttype>
									<mediatype>audio</mediatype>
									<parameter authoringApp="PremierePro">
										<parameterid>Gain(dB)</parameterid>
										<name>Gain(dB)</name>
										<valuemin>-96</valuemin>
										<valuemax>96</valuemax>
										<value>4</value>
									</parameter>
								</effect>
							</filter>
							<filter>
								<effect>
									<name>Audio Levels</name>
									<effectid>audiolevels</effectid>
									<effectcategory>audiolevels</effectcategory>
									<effecttype>audiolevels</effecttype>
									<mediatype>audio</mediatype>
									<parameter authoringApp="PremierePro">
										<parameterid>level</parameterid>
										<name>Level</name>
										<valuemin>0</valuemin>
										<valuemax>3.98109</valuemax>
										<value>0.99763</value>
										<keyframe>
											<when>1430</when>
											<value>0.17238</value>
										</keyframe>
										<keyframe>
											<when>1440</when>
											<value>0.99763</value>
										</keyframe>
									</parameter>
								</effect>
							</filter>
							<filter>
								<effect>
									<name>Audio Pan</name>
									<effectid>audiopan</effectid>
									<effectcategory>audiopan</effectcategory>
									<effecttype>audiopan</effecttype>
									<mediatype>audio</mediatype>
									<parameter authoringApp="PremierePro">
										<parameterid>pan</parameterid>
										<name>Pan</name>
										<valuemin>-1</valuemin>
										<valuemax>1</valuemax>
										<value>0</value>
									</parameter>
								</effect>
							</filter>
						<link>
							<linkclipref>clipitem-646</linkclipref>
							<mediatype>audio</mediatype>
							<trackindex>10</trackindex>
							<clipindex>26</clipindex>
							<groupindex>1</groupindex>
						</link>
						<link>
							<linkclipref>clipitem-686</linkclipref>
							<mediatype>audio</mediatype>
							<trackindex>11</trackindex>
							<clipindex>26</clipindex>
							<groupindex>1</groupindex>
						</link>
					</clipitem>
					<transitionitem>
						<start>7486</start>
						<end>7492</end>
						<alignment>center</alignment>
						<cutPoint>3</cutPoint>
						<rate>
							<timebase>25</timebase>
							<ntsc>FALSE</ntsc>
						</rate>
						<effect>
							<name>Cross Fade (+3dB)</name>
							<effectid>KGAudioTransCrossFade3dB</effectid>
							<effecttype>transition</effecttype>
							<mediatype>audio</mediatype>
							<wipecode>0</wipecode>
							<wipeaccuracy>100</wipeaccuracy>
							<startratio>0</startratio>
							<endratio>1</endratio>
							<reverse>FALSE</reverse>
						</effect>
					</transitionitem>
					<clipitem id="clipitem-687" frameBlend="FALSE" PannerCurrentValue="0.5" PannerKeyframes="" PannerStartKeyframe="-91445760000000000,0.5,0,0,0,0,0,0" PannerIsInverted="true" PannerName="Balance">
						<masterclipid>masterclip-49</masterclipid>
						<name>filmb-heavensgate_1_1.mxf</name>
						<enabled>TRUE</enabled>
						<duration>15828</duration>
						<rate>
							<ntsc>TRUE</ntsc>
							<timebase>30</timebase>
						</rate>
						<start>-1</start>
						<end>7634</end>
						<in>2042</in>
						<out>2190</out>
						<file id="file-49"/>
						<sourcetrack>
							<mediatype>audio</mediatype>
							<trackindex>2</trackindex>
						</sourcetrack>
							<filter>
								<effect>
									<name>Gain</name>
									<effectid>{61756678, 4761696e, 4b657947}</effectid>
									<effecttype>filter</effecttype>
									<mediatype>audio</mediatype>
									<parameter authoringApp="PremierePro">
										<parameterid>Gain(dB)</parameterid>
										<name>Gain(dB)</name>
										<valuemin>-96</valuemin>
										<valuemax>96</valuemax>
										<value>4</value>
									</parameter>
								</effect>
							</filter>
							<filter>
								<effect>
									<name>Audio Pan</name>
									<effectid>audiopan</effectid>
									<effectcategory>audiopan</effectcategory>
									<effecttype>audiopan</effecttype>
									<mediatype>audio</mediatype>
									<parameter authoringApp="PremierePro">
										<parameterid>pan</parameterid>
										<name>Pan</name>
										<valuemin>-1</valuemin>
										<valuemax>1</valuemax>
										<value>0</value>
									</parameter>
								</effect>
							</filter>
						<link>
							<linkclipref>clipitem-647</linkclipref>
							<mediatype>audio</mediatype>
							<trackindex>10</trackindex>
							<clipindex>28</clipindex>
							<groupindex>1</groupindex>
						</link>
						<link>
							<linkclipref>clipitem-687</linkclipref>
							<mediatype>audio</mediatype>
							<trackindex>11</trackindex>
							<clipindex>28</clipindex>
							<groupindex>1</groupindex>
						</link>
					</clipitem>
					<transitionitem>
						<start>8097</start>
						<end>8108</end>
						<alignment>start-black</alignment>
						<cutPoint>0</cutPoint>
						<rate>
							<timebase>25</timebase>
							<ntsc>FALSE</ntsc>
						</rate>
						<effect>
							<name>Cross Fade (+3dB)</name>
							<effectid>KGAudioTransCrossFade3dB</effectid>
							<effecttype>transition</effecttype>
							<mediatype>audio</mediatype>
							<wipecode>0</wipecode>
							<wipeaccuracy>100</wipeaccuracy>
							<startratio>0</startratio>
							<endratio>1</endratio>
							<reverse>FALSE</reverse>
						</effect>
					</transitionitem>
					<clipitem id="clipitem-688" frameBlend="FALSE" PannerCurrentValue="0.5" PannerKeyframes="" PannerStartKeyframe="-91445760000000000,0.5,0,0,0,0,0,0" PannerIsInverted="true" PannerName="Balance">
						<masterclipid>masterclip-55</masterclipid>
						<name>heavens_gate_willem_dafoe</name>
						<enabled>TRUE</enabled>
						<duration>2291</duration>
						<rate>
							<ntsc>TRUE</ntsc>
							<timebase>30</timebase>
						</rate>
						<start>-1</start>
						<end>-1</end>
						<in>898</in>
						<out>939</out>
						<file id="file-55"/>
						<sourcetrack>
							<mediatype>audio</mediatype>
							<trackindex>2</trackindex>
						</sourcetrack>
							<filter>
								<effect>
									<name>Gain</name>
									<effectid>{61756678, 4761696e, 4b657947}</effectid>
									<effecttype>filter</effecttype>
									<mediatype>audio</mediatype>
									<parameter authoringApp="PremierePro">
										<parameterid>Gain(dB)</parameterid>
										<name>Gain(dB)</name>
										<valuemin>-96</valuemin>
										<valuemax>96</valuemax>
										<value>-4</value>
									</parameter>
								</effect>
							</filter>
							<filter>
								<effect>
									<name>Audio Pan</name>
									<effectid>audiopan</effectid>
									<effectcategory>audiopan</effectcategory>
									<effecttype>audiopan</effecttype>
									<mediatype>audio</mediatype>
									<parameter authoringApp="PremierePro">
										<parameterid>pan</parameterid>
										<name>Pan</name>
										<valuemin>-1</valuemin>
										<valuemax>1</valuemax>
										<value>0</value>
									</parameter>
								</effect>
							</filter>
						<link>
							<linkclipref>clipitem-648</linkclipref>
							<mediatype>audio</mediatype>
							<trackindex>10</trackindex>
							<clipindex>30</clipindex>
							<groupindex>1</groupindex>
						</link>
						<link>
							<linkclipref>clipitem-688</linkclipref>
							<mediatype>audio</mediatype>
							<trackindex>11</trackindex>
							<clipindex>30</clipindex>
							<groupindex>1</groupindex>
						</link>
					</clipitem>
					<transitionitem>
						<start>8131</start>
						<end>8138</end>
						<alignment>center</alignment>
						<cutPoint>3</cutPoint>
						<rate>
							<timebase>25</timebase>
							<ntsc>FALSE</ntsc>
						</rate>
						<effect>
							<name>Cross Fade (+3dB)</name>
							<effectid>KGAudioTransCrossFade3dB</effectid>
							<effecttype>transition</effecttype>
							<mediatype>audio</mediatype>
							<wipecode>0</wipecode>
							<wipeaccuracy>100</wipeaccuracy>
							<startratio>0</startratio>
							<endratio>1</endratio>
							<reverse>FALSE</reverse>
						</effect>
					</transitionitem>
					<clipitem id="clipitem-689" frameBlend="FALSE" PannerCurrentValue="0.5" PannerKeyframes="" PannerStartKeyframe="-91445760000000000,0.5,0,0,0,0,0,0" PannerIsInverted="true" PannerName="Balance">
						<masterclipid>masterclip-55</masterclipid>
						<name>heavens_gate_willem_dafoe</name>
						<enabled>TRUE</enabled>
						<duration>2291</duration>
						<rate>
							<ntsc>TRUE</ntsc>
							<timebase>30</timebase>
						</rate>
						<start>-1</start>
						<end>-1</end>
						<in>1337</in>
						<out>1534</out>
						<file id="file-55"/>
						<sourcetrack>
							<mediatype>audio</mediatype>
							<trackindex>2</trackindex>
						</sourcetrack>
							<filter>
								<effect>
									<name>Gain</name>
									<effectid>{61756678, 4761696e, 4b657947}</effectid>
									<effecttype>filter</effecttype>
									<mediatype>audio</mediatype>
									<parameter authoringApp="PremierePro">
										<parameterid>Gain(dB)</parameterid>
										<name>Gain(dB)</name>
										<valuemin>-96</valuemin>
										<valuemax>96</valuemax>
										<value>-5</value>
									</parameter>
								</effect>
							</filter>
							<filter>
								<effect>
									<name>Audio Levels</name>
									<effectid>audiolevels</effectid>
									<effectcategory>audiolevels</effectcategory>
									<effecttype>audiolevels</effecttype>
									<mediatype>audio</mediatype>
									<parameter authoringApp="PremierePro">
										<parameterid>level</parameterid>
										<name>Level</name>
										<valuemin>0</valuemin>
										<valuemax>3.98109</valuemax>
										<value>0.598578</value>
									</parameter>
								</effect>
							</filter>
							<filter>
								<effect>
									<name>Audio Pan</name>
									<effectid>audiopan</effectid>
									<effectcategory>audiopan</effectcategory>
									<effecttype>audiopan</effecttype>
									<mediatype>audio</mediatype>
									<parameter authoringApp="PremierePro">
										<parameterid>pan</parameterid>
										<name>Pan</name>
										<valuemin>-1</valuemin>
										<valuemax>1</valuemax>
										<value>0</value>
									</parameter>
								</effect>
							</filter>
						<link>
							<linkclipref>clipitem-649</linkclipref>
							<mediatype>audio</mediatype>
							<trackindex>10</trackindex>
							<clipindex>32</clipindex>
							<groupindex>1</groupindex>
						</link>
						<link>
							<linkclipref>clipitem-689</linkclipref>
							<mediatype>audio</mediatype>
							<trackindex>11</trackindex>
							<clipindex>32</clipindex>
							<groupindex>1</groupindex>
						</link>
					</clipitem>
					<transitionitem>
						<start>8303</start>
						<end>8328</end>
						<alignment>center</alignment>
						<cutPoint>12</cutPoint>
						<rate>
							<timebase>25</timebase>
							<ntsc>FALSE</ntsc>
						</rate>
						<effect>
							<name>Cross Fade (+3dB)</name>
							<effectid>KGAudioTransCrossFade3dB</effectid>
							<effecttype>transition</effecttype>
							<mediatype>audio</mediatype>
							<wipecode>0</wipecode>
							<wipeaccuracy>100</wipeaccuracy>
							<startratio>0</startratio>
							<endratio>1</endratio>
							<reverse>FALSE</reverse>
						</effect>
					</transitionitem>
					<clipitem id="clipitem-690" frameBlend="FALSE" PannerCurrentValue="0.5" PannerKeyframes="" PannerStartKeyframe="-91445760000000000,0.5,0,0,0,0,0,0" PannerIsInverted="true" PannerName="Balance">
						<masterclipid>masterclip-55</masterclipid>
						<name>heavens_gate_willem_dafoe</name>
						<enabled>TRUE</enabled>
						<duration>2291</duration>
						<rate>
							<ntsc>TRUE</ntsc>
							<timebase>30</timebase>
						</rate>
						<start>-1</start>
						<end>-1</end>
						<in>1509</in>
						<out>1556</out>
						<file id="file-55"/>
						<sourcetrack>
							<mediatype>audio</mediatype>
							<trackindex>2</trackindex>
						</sourcetrack>
							<filter>
								<effect>
									<name>Gain</name>
									<effectid>{61756678, 4761696e, 4b657947}</effectid>
									<effecttype>filter</effecttype>
									<mediatype>audio</mediatype>
									<parameter authoringApp="PremierePro">
										<parameterid>Gain(dB)</parameterid>
										<name>Gain(dB)</name>
										<valuemin>-96</valuemin>
										<valuemax>96</valuemax>
										<value>-2</value>
									</parameter>
								</effect>
							</filter>
							<filter>
								<effect>
									<name>Audio Pan</name>
									<effectid>audiopan</effectid>
									<effectcategory>audiopan</effectcategory>
									<effecttype>audiopan</effecttype>
									<mediatype>audio</mediatype>
									<parameter authoringApp="PremierePro">
										<parameterid>pan</parameterid>
										<name>Pan</name>
										<valuemin>-1</valuemin>
										<valuemax>1</valuemax>
										<value>0</value>
									</parameter>
								</effect>
							</filter>
						<link>
							<linkclipref>clipitem-650</linkclipref>
							<mediatype>audio</mediatype>
							<trackindex>10</trackindex>
							<clipindex>34</clipindex>
							<groupindex>1</groupindex>
						</link>
						<link>
							<linkclipref>clipitem-690</linkclipref>
							<mediatype>audio</mediatype>
							<trackindex>11</trackindex>
							<clipindex>34</clipindex>
							<groupindex>1</groupindex>
						</link>
					</clipitem>
					<transitionitem>
						<start>8334</start>
						<end>8350</end>
						<alignment>end</alignment>
						<cutPoint>12</cutPoint>
						<rate>
							<timebase>25</timebase>
							<ntsc>FALSE</ntsc>
						</rate>
						<effect>
							<name>Cross Fade (+3dB)</name>
							<effectid>KGAudioTransCrossFade3dB</effectid>
							<effecttype>transition</effecttype>
							<mediatype>audio</mediatype>
							<wipecode>0</wipecode>
							<wipeaccuracy>100</wipeaccuracy>
							<startratio>0</startratio>
							<endratio>1</endratio>
							<reverse>FALSE</reverse>
						</effect>
					</transitionitem>
					<clipitem id="clipitem-691" frameBlend="FALSE" PannerCurrentValue="0.5" PannerKeyframes="" PannerStartKeyframe="-91445760000000000,0.5,0,0,0,0,0,0" PannerIsInverted="true" PannerName="Balance">
						<masterclipid>masterclip-55</masterclipid>
						<name>heavens_gate_willem_dafoe</name>
						<enabled>TRUE</enabled>
						<duration>2291</duration>
						<rate>
							<ntsc>TRUE</ntsc>
							<timebase>30</timebase>
						</rate>
						<start>-1</start>
						<end>-1</end>
						<in>1540</in>
						<out>1724</out>
						<file id="file-55"/>
						<sourcetrack>
							<mediatype>audio</mediatype>
							<trackindex>2</trackindex>
						</sourcetrack>
							<filter>
								<effect>
									<name>Gain</name>
									<effectid>{61756678, 4761696e, 4b657947}</effectid>
									<effecttype>filter</effecttype>
									<mediatype>audio</mediatype>
									<parameter authoringApp="PremierePro">
										<parameterid>Gain(dB)</parameterid>
										<name>Gain(dB)</name>
										<valuemin>-96</valuemin>
										<valuemax>96</valuemax>
										<value>-2</value>
									</parameter>
								</effect>
							</filter>
							<filter>
								<effect>
									<name>Audio Levels</name>
									<effectid>audiolevels</effectid>
									<effectcategory>audiolevels</effectcategory>
									<effecttype>audiolevels</effecttype>
									<mediatype>audio</mediatype>
									<parameter authoringApp="PremierePro">
										<parameterid>level</parameterid>
										<name>Level</name>
										<valuemin>0</valuemin>
										<valuemax>3.98109</valuemax>
										<value>0.598578</value>
									</parameter>
								</effect>
							</filter>
							<filter>
								<effect>
									<name>Audio Pan</name>
									<effectid>audiopan</effectid>
									<effectcategory>audiopan</effectcategory>
									<effecttype>audiopan</effecttype>
									<mediatype>audio</mediatype>
									<parameter authoringApp="PremierePro">
										<parameterid>pan</parameterid>
										<name>Pan</name>
										<valuemin>-1</valuemin>
										<valuemax>1</valuemax>
										<value>0</value>
									</parameter>
								</effect>
							</filter>
						<link>
							<linkclipref>clipitem-651</linkclipref>
							<mediatype>audio</mediatype>
							<trackindex>10</trackindex>
							<clipindex>36</clipindex>
							<groupindex>1</groupindex>
						</link>
						<link>
							<linkclipref>clipitem-691</linkclipref>
							<mediatype>audio</mediatype>
							<trackindex>11</trackindex>
							<clipindex>36</clipindex>
							<groupindex>1</groupindex>
						</link>
					</clipitem>
					<transitionitem>
						<start>8459</start>
						<end>8518</end>
						<alignment>end-black</alignment>
						<cutPoint>59</cutPoint>
						<rate>
							<timebase>25</timebase>
							<ntsc>FALSE</ntsc>
						</rate>
						<effect>
							<name>Cross Fade (+3dB)</name>
							<effectid>KGAudioTransCrossFade3dB</effectid>
							<effecttype>transition</effecttype>
							<mediatype>audio</mediatype>
							<wipecode>0</wipecode>
							<wipeaccuracy>100</wipeaccuracy>
							<startratio>0</startratio>
							<endratio>1</endratio>
							<reverse>FALSE</reverse>
						</effect>
					</transitionitem>
					<clipitem id="clipitem-692" frameBlend="FALSE" PannerCurrentValue="0.5" PannerKeyframes="" PannerStartKeyframe="-91445760000000000,0.5,0,0,0,0,0,0" PannerIsInverted="true" PannerName="Balance">
						<masterclipid>masterclip-210</masterclipid>
						<name>Dykking med sonar.WAV</name>
						<enabled>TRUE</enabled>
						<duration>1771</duration>
						<rate>
							<ntsc>TRUE</ntsc>
							<timebase>30</timebase>
						</rate>
						<start>8826</start>
						<end>9215</end>
						<in>0</in>
						<out>389</out>
						<file id="file-209"/>
						<sourcetrack>
							<mediatype>audio</mediatype>
							<trackindex>2</trackindex>
						</sourcetrack>
							<filter>
								<effect>
									<name>Audio Levels</name>
									<effectid>audiolevels</effectid>
									<effectcategory>audiolevels</effectcategory>
									<effecttype>audiolevels</effecttype>
									<mediatype>audio</mediatype>
									<parameter authoringApp="PremierePro">
										<parameterid>level</parameterid>
										<name>Level</name>
										<valuemin>0</valuemin>
										<valuemax>3.98109</valuemax>
										<value>0</value>
										<keyframe>
											<when>212</when>
											<value>0.758677</value>
										</keyframe>
										<keyframe>
											<when>234</when>
											<value>0.244927</value>
										</keyframe>
										<keyframe>
											<when>340</when>
											<value>0.244927</value>
										</keyframe>
										<keyframe>
											<when>350</when>
											<value>0</value>
										</keyframe>
										<keyframe>
											<when>448</when>
											<value>0</value>
										</keyframe>
										<keyframe>
											<when>468</when>
											<value>0.406221</value>
										</keyframe>
									</parameter>
								</effect>
							</filter>
							<filter>
								<effect>
									<name>Audio Pan</name>
									<effectid>audiopan</effectid>
									<effectcategory>audiopan</effectcategory>
									<effecttype>audiopan</effecttype>
									<mediatype>audio</mediatype>
									<parameter authoringApp="PremierePro">
										<parameterid>pan</parameterid>
										<name>Pan</name>
										<valuemin>-1</valuemin>
										<valuemax>1</valuemax>
										<value>0</value>
									</parameter>
								</effect>
							</filter>
						<link>
							<linkclipref>clipitem-652</linkclipref>
							<mediatype>audio</mediatype>
							<trackindex>10</trackindex>
							<clipindex>38</clipindex>
							<groupindex>1</groupindex>
						</link>
						<link>
							<linkclipref>clipitem-692</linkclipref>
							<mediatype>audio</mediatype>
							<trackindex>11</trackindex>
							<clipindex>38</clipindex>
							<groupindex>1</groupindex>
						</link>
					</clipitem>
					<clipitem id="clipitem-693" frameBlend="FALSE" PannerCurrentValue="0.5" PannerKeyframes="" PannerStartKeyframe="-91445760000000000,0.5,0,0,0,0,0,0" PannerIsInverted="true" PannerName="Balance">
						<masterclipid>masterclip-210</masterclipid>
						<name>Dykking med sonar.WAV</name>
						<enabled>TRUE</enabled>
						<duration>1771</duration>
						<rate>
							<ntsc>TRUE</ntsc>
							<timebase>30</timebase>
						</rate>
						<start>9215</start>
						<end>9229</end>
						<in>389</in>
						<out>403</out>
						<file id="file-209"/>
						<sourcetrack>
							<mediatype>audio</mediatype>
							<trackindex>2</trackindex>
						</sourcetrack>
							<filter>
								<effect>
									<name>Audio Levels</name>
									<effectid>audiolevels</effectid>
									<effectcategory>audiolevels</effectcategory>
									<effecttype>audiolevels</effecttype>
									<mediatype>audio</mediatype>
									<parameter authoringApp="PremierePro">
										<parameterid>level</parameterid>
										<name>Level</name>
										<valuemin>0</valuemin>
										<valuemax>3.98109</valuemax>
										<value>0</value>
										<keyframe>
											<when>212</when>
											<value>0.758677</value>
										</keyframe>
										<keyframe>
											<when>234</when>
											<value>0.244927</value>
										</keyframe>
										<keyframe>
											<when>340</when>
											<value>0.244927</value>
										</keyframe>
										<keyframe>
											<when>350</when>
											<value>0</value>
										</keyframe>
										<keyframe>
											<when>448</when>
											<value>0</value>
										</keyframe>
										<keyframe>
											<when>468</when>
											<value>0.406221</value>
										</keyframe>
									</parameter>
								</effect>
							</filter>
							<filter>
								<effect>
									<name>Audio Pan</name>
									<effectid>audiopan</effectid>
									<effectcategory>audiopan</effectcategory>
									<effecttype>audiopan</effecttype>
									<mediatype>audio</mediatype>
									<parameter authoringApp="PremierePro">
										<parameterid>pan</parameterid>
										<name>Pan</name>
										<valuemin>-1</valuemin>
										<valuemax>1</valuemax>
										<value>0</value>
									</parameter>
								</effect>
							</filter>
						<link>
							<linkclipref>clipitem-653</linkclipref>
							<mediatype>audio</mediatype>
							<trackindex>10</trackindex>
							<clipindex>39</clipindex>
							<groupindex>1</groupindex>
						</link>
						<link>
							<linkclipref>clipitem-693</linkclipref>
							<mediatype>audio</mediatype>
							<trackindex>11</trackindex>
							<clipindex>39</clipindex>
							<groupindex>1</groupindex>
						</link>
					</clipitem>
					<clipitem id="clipitem-694" frameBlend="FALSE" PannerCurrentValue="0.5" PannerKeyframes="" PannerStartKeyframe="-91445760000000000,0.5,0,0,0,0,0,0" PannerIsInverted="true" PannerName="Balance">
						<masterclipid>masterclip-210</masterclipid>
						<name>Dykking med sonar.WAV</name>
						<enabled>TRUE</enabled>
						<duration>1771</duration>
						<rate>
							<ntsc>TRUE</ntsc>
							<timebase>30</timebase>
						</rate>
						<start>9229</start>
						<end>-1</end>
						<in>371</in>
						<out>569</out>
						<file id="file-209"/>
						<sourcetrack>
							<mediatype>audio</mediatype>
							<trackindex>2</trackindex>
						</sourcetrack>
							<filter>
								<effect>
									<name>Audio Levels</name>
									<effectid>audiolevels</effectid>
									<effectcategory>audiolevels</effectcategory>
									<effecttype>audiolevels</effecttype>
									<mediatype>audio</mediatype>
									<parameter authoringApp="PremierePro">
										<parameterid>level</parameterid>
										<name>Level</name>
										<valuemin>0</valuemin>
										<valuemax>3.98109</valuemax>
										<value>0.343883</value>
										<keyframe>
											<when>212</when>
											<value>0.758677</value>
										</keyframe>
										<keyframe>
											<when>234</when>
											<value>0.244927</value>
										</keyframe>
										<keyframe>
											<when>340</when>
											<value>0.244927</value>
										</keyframe>
										<keyframe>
											<when>350</when>
											<value>0</value>
										</keyframe>
										<keyframe>
											<when>448</when>
											<value>0</value>
										</keyframe>
										<keyframe>
											<when>468</when>
											<value>0.406221</value>
										</keyframe>
										<keyframe>
											<when>496</when>
											<value>0.406221</value>
										</keyframe>
										<keyframe>
											<when>508</when>
											<value>1.21866</value>
										</keyframe>
									</parameter>
								</effect>
							</filter>
							<filter>
								<effect>
									<name>Audio Pan</name>
									<effectid>audiopan</effectid>
									<effectcategory>audiopan</effectcategory>
									<effecttype>audiopan</effecttype>
									<mediatype>audio</mediatype>
									<parameter authoringApp="PremierePro">
										<parameterid>pan</parameterid>
										<name>Pan</name>
										<valuemin>-1</valuemin>
										<valuemax>1</valuemax>
										<value>0</value>
									</parameter>
								</effect>
							</filter>
						<link>
							<linkclipref>clipitem-654</linkclipref>
							<mediatype>audio</mediatype>
							<trackindex>10</trackindex>
							<clipindex>40</clipindex>
							<groupindex>1</groupindex>
						</link>
						<link>
							<linkclipref>clipitem-694</linkclipref>
							<mediatype>audio</mediatype>
							<trackindex>11</trackindex>
							<clipindex>40</clipindex>
							<groupindex>1</groupindex>
						</link>
					</clipitem>
					<transitionitem>
						<start>9416</start>
						<end>9427</end>
						<alignment>end-black</alignment>
						<cutPoint>11</cutPoint>
						<rate>
							<timebase>25</timebase>
							<ntsc>FALSE</ntsc>
						</rate>
						<effect>
							<name>Cross Fade (+3dB)</name>
							<effectid>KGAudioTransCrossFade3dB</effectid>
							<effecttype>transition</effecttype>
							<mediatype>audio</mediatype>
							<wipecode>0</wipecode>
							<wipeaccuracy>100</wipeaccuracy>
							<startratio>0</startratio>
							<endratio>1</endratio>
							<reverse>FALSE</reverse>
						</effect>
					</transitionitem>
					<transitionitem>
						<start>9842</start>
						<end>9867</end>
						<alignment>start-black</alignment>
						<cutPoint>0</cutPoint>
						<rate>
							<timebase>25</timebase>
							<ntsc>FALSE</ntsc>
						</rate>
						<effect>
							<name>Cross Fade (+3dB)</name>
							<effectid>KGAudioTransCrossFade3dB</effectid>
							<effecttype>transition</effecttype>
							<mediatype>audio</mediatype>
							<wipecode>0</wipecode>
							<wipeaccuracy>100</wipeaccuracy>
							<startratio>0</startratio>
							<endratio>1</endratio>
							<reverse>FALSE</reverse>
						</effect>
					</transitionitem>
					<clipitem id="clipitem-695" frameBlend="FALSE" PannerCurrentValue="0.5" PannerKeyframes="" PannerStartKeyframe="-91445760000000000,0.5,0,0,0,0,0,0" PannerIsInverted="true" PannerName="Balance">
						<masterclipid>masterclip-211</masterclipid>
						<name>NONRO307367CS0001 My Heart Will Go on (love Them.wav</name>
						<enabled>TRUE</enabled>
						<duration>7006</duration>
						<rate>
							<ntsc>TRUE</ntsc>
							<timebase>30</timebase>
						</rate>
						<start>-1</start>
						<end>-1</end>
						<in>6677</in>
						<out>7006</out>
						<file id="file-210"/>
						<sourcetrack>
							<mediatype>audio</mediatype>
							<trackindex>2</trackindex>
						</sourcetrack>
							<filter>
								<effect>
									<name>Audio Levels</name>
									<effectid>audiolevels</effectid>
									<effectcategory>audiolevels</effectcategory>
									<effecttype>audiolevels</effecttype>
									<mediatype>audio</mediatype>
									<parameter authoringApp="PremierePro">
										<parameterid>level</parameterid>
										<name>Level</name>
										<valuemin>0</valuemin>
										<valuemax>3.98109</valuemax>
										<value>0.792988</value>
									</parameter>
								</effect>
							</filter>
							<filter>
								<effect>
									<name>Audio Pan</name>
									<effectid>audiopan</effectid>
									<effectcategory>audiopan</effectcategory>
									<effecttype>audiopan</effecttype>
									<mediatype>audio</mediatype>
									<parameter authoringApp="PremierePro">
										<parameterid>pan</parameterid>
										<name>Pan</name>
										<valuemin>-1</valuemin>
										<valuemax>1</valuemax>
										<value>0</value>
									</parameter>
								</effect>
							</filter>
						<link>
							<linkclipref>clipitem-655</linkclipref>
							<mediatype>audio</mediatype>
							<trackindex>10</trackindex>
							<clipindex>43</clipindex>
							<groupindex>1</groupindex>
						</link>
						<link>
							<linkclipref>clipitem-695</linkclipref>
							<mediatype>audio</mediatype>
							<trackindex>11</trackindex>
							<clipindex>43</clipindex>
							<groupindex>1</groupindex>
						</link>
					</clipitem>
					<transitionitem>
						<start>10021</start>
						<end>10171</end>
						<alignment>end-black</alignment>
						<cutPoint>150</cutPoint>
						<rate>
							<timebase>25</timebase>
							<ntsc>FALSE</ntsc>
						</rate>
						<effect>
							<name>Cross Fade (+3dB)</name>
							<effectid>KGAudioTransCrossFade3dB</effectid>
							<effecttype>transition</effecttype>
							<mediatype>audio</mediatype>
							<wipecode>0</wipecode>
							<wipeaccuracy>100</wipeaccuracy>
							<startratio>0</startratio>
							<endratio>1</endratio>
							<reverse>FALSE</reverse>
						</effect>
					</transitionitem>
					<transitionitem>
						<start>10586</start>
						<end>10611</end>
						<alignment>start-black</alignment>
						<cutPoint>0</cutPoint>
						<rate>
							<timebase>25</timebase>
							<ntsc>FALSE</ntsc>
						</rate>
						<effect>
							<name>Cross Fade (+3dB)</name>
							<effectid>KGAudioTransCrossFade3dB</effectid>
							<effecttype>transition</effecttype>
							<mediatype>audio</mediatype>
							<wipecode>0</wipecode>
							<wipeaccuracy>100</wipeaccuracy>
							<startratio>0</startratio>
							<endratio>1</endratio>
							<reverse>FALSE</reverse>
						</effect>
					</transitionitem>
					<clipitem id="clipitem-696" frameBlend="FALSE" PannerCurrentValue="0.5" PannerKeyframes="" PannerStartKeyframe="-91445760000000000,0.5,0,0,0,0,0,0" PannerIsInverted="true" PannerName="Balance">
						<masterclipid>masterclip-63</masterclipid>
						<name>avatar_2</name>
						<enabled>TRUE</enabled>
						<duration>3026</duration>
						<rate>
							<ntsc>TRUE</ntsc>
							<timebase>30</timebase>
						</rate>
						<start>-1</start>
						<end>-1</end>
						<in>570</in>
						<out>652</out>
						<file id="file-63"/>
						<sourcetrack>
							<mediatype>audio</mediatype>
							<trackindex>2</trackindex>
						</sourcetrack>
							<filter>
								<effect>
									<name>Gain</name>
									<effectid>{61756678, 4761696e, 4b657947}</effectid>
									<effecttype>filter</effecttype>
									<mediatype>audio</mediatype>
									<parameter authoringApp="PremierePro">
										<parameterid>Gain(dB)</parameterid>
										<name>Gain(dB)</name>
										<valuemin>-96</valuemin>
										<valuemax>96</valuemax>
										<value>-15</value>
									</parameter>
								</effect>
							</filter>
							<filter>
								<effect>
									<name>Audio Pan</name>
									<effectid>audiopan</effectid>
									<effectcategory>audiopan</effectcategory>
									<effecttype>audiopan</effecttype>
									<mediatype>audio</mediatype>
									<parameter authoringApp="PremierePro">
										<parameterid>pan</parameterid>
										<name>Pan</name>
										<valuemin>-1</valuemin>
										<valuemax>1</valuemax>
										<value>0</value>
									</parameter>
								</effect>
							</filter>
						<link>
							<linkclipref>clipitem-656</linkclipref>
							<mediatype>audio</mediatype>
							<trackindex>10</trackindex>
							<clipindex>46</clipindex>
							<groupindex>1</groupindex>
						</link>
						<link>
							<linkclipref>clipitem-696</linkclipref>
							<mediatype>audio</mediatype>
							<trackindex>11</trackindex>
							<clipindex>46</clipindex>
							<groupindex>1</groupindex>
						</link>
					</clipitem>
					<transitionitem>
						<start>10643</start>
						<end>10668</end>
						<alignment>center</alignment>
						<cutPoint>12</cutPoint>
						<rate>
							<timebase>25</timebase>
							<ntsc>FALSE</ntsc>
						</rate>
						<effect>
							<name>Cross Fade (+3dB)</name>
							<effectid>KGAudioTransCrossFade3dB</effectid>
							<effecttype>transition</effecttype>
							<mediatype>audio</mediatype>
							<wipecode>0</wipecode>
							<wipeaccuracy>100</wipeaccuracy>
							<startratio>0</startratio>
							<endratio>1</endratio>
							<reverse>FALSE</reverse>
						</effect>
					</transitionitem>
					<clipitem id="clipitem-697" frameBlend="FALSE" PannerCurrentValue="0.5" PannerKeyframes="" PannerStartKeyframe="-91445760000000000,0.5,0,0,0,0,0,0" PannerIsInverted="true" PannerName="Balance">
						<masterclipid>masterclip-63</masterclipid>
						<name>avatar_2</name>
						<enabled>TRUE</enabled>
						<duration>3026</duration>
						<rate>
							<ntsc>TRUE</ntsc>
							<timebase>30</timebase>
						</rate>
						<start>-1</start>
						<end>10803</end>
						<in>2866</in>
						<out>3026</out>
						<file id="file-63"/>
						<sourcetrack>
							<mediatype>audio</mediatype>
							<trackindex>2</trackindex>
						</sourcetrack>
							<filter>
								<effect>
									<name>Gain</name>
									<effectid>{61756678, 4761696e, 4b657947}</effectid>
									<effecttype>filter</effecttype>
									<mediatype>audio</mediatype>
									<parameter authoringApp="PremierePro">
										<parameterid>Gain(dB)</parameterid>
										<name>Gain(dB)</name>
										<valuemin>-96</valuemin>
										<valuemax>96</valuemax>
										<value>-15</value>
									</parameter>
								</effect>
							</filter>
							<filter>
								<effect>
									<name>Audio Pan</name>
									<effectid>audiopan</effectid>
									<effectcategory>audiopan</effectcategory>
									<effecttype>audiopan</effecttype>
									<mediatype>audio</mediatype>
									<parameter authoringApp="PremierePro">
										<parameterid>pan</parameterid>
										<name>Pan</name>
										<valuemin>-1</valuemin>
										<valuemax>1</valuemax>
										<value>0</value>
									</parameter>
								</effect>
							</filter>
						<link>
							<linkclipref>clipitem-657</linkclipref>
							<mediatype>audio</mediatype>
							<trackindex>10</trackindex>
							<clipindex>48</clipindex>
							<groupindex>1</groupindex>
						</link>
						<link>
							<linkclipref>clipitem-697</linkclipref>
							<mediatype>audio</mediatype>
							<trackindex>11</trackindex>
							<clipindex>48</clipindex>
							<groupindex>1</groupindex>
						</link>
					</clipitem>
					<clipitem id="clipitem-698" frameBlend="FALSE" PannerCurrentValue="0.5" PannerKeyframes="" PannerStartKeyframe="-91445760000000000,0.5,0,0,0,0,0,0" PannerIsInverted="true" PannerName="Balance">
						<masterclipid>masterclip-37</masterclipid>
						<name>El Topo.mov</name>
						<enabled>TRUE</enabled>
						<duration>3224</duration>
						<rate>
							<ntsc>TRUE</ntsc>
							<timebase>30</timebase>
						</rate>
						<start>12538</start>
						<end>12888</end>
						<in>2632</in>
						<out>2982</out>
						<file id="file-37"/>
						<sourcetrack>
							<mediatype>audio</mediatype>
							<trackindex>2</trackindex>
						</sourcetrack>
							<filter>
								<effect>
									<name>Gain</name>
									<effectid>{61756678, 4761696e, 4b657947}</effectid>
									<effecttype>filter</effecttype>
									<mediatype>audio</mediatype>
									<parameter authoringApp="PremierePro">
										<parameterid>Gain(dB)</parameterid>
										<name>Gain(dB)</name>
										<valuemin>-96</valuemin>
										<valuemax>96</valuemax>
										<value>12</value>
									</parameter>
								</effect>
							</filter>
							<filter>
								<effect>
									<name>Audio Levels</name>
									<effectid>audiolevels</effectid>
									<effectcategory>audiolevels</effectcategory>
									<effecttype>audiolevels</effecttype>
									<mediatype>audio</mediatype>
									<parameter authoringApp="PremierePro">
										<parameterid>level</parameterid>
										<name>Level</name>
										<valuemin>0</valuemin>
										<valuemax>3.98109</valuemax>
										<value>0.99763</value>
										<keyframe>
											<when>2431</when>
											<value>0</value>
										</keyframe>
										<keyframe>
											<when>2792</when>
											<value>0.356653</value>
										</keyframe>
										<keyframe>
											<when>2843</when>
											<value>0.99763</value>
										</keyframe>
									</parameter>
								</effect>
							</filter>
							<filter>
								<effect>
									<name>Audio Pan</name>
									<effectid>audiopan</effectid>
									<effectcategory>audiopan</effectcategory>
									<effecttype>audiopan</effecttype>
									<mediatype>audio</mediatype>
									<parameter authoringApp="PremierePro">
										<parameterid>pan</parameterid>
										<name>Pan</name>
										<valuemin>-1</valuemin>
										<valuemax>1</valuemax>
										<value>0</value>
									</parameter>
								</effect>
							</filter>
						<link>
							<linkclipref>clipitem-241</linkclipref>
							<mediatype>video</mediatype>
							<trackindex>3</trackindex>
							<clipindex>115</clipindex>
						</link>
						<link>
							<linkclipref>clipitem-658</linkclipref>
							<mediatype>audio</mediatype>
							<trackindex>10</trackindex>
							<clipindex>49</clipindex>
							<groupindex>1</groupindex>
						</link>
						<link>
							<linkclipref>clipitem-698</linkclipref>
							<mediatype>audio</mediatype>
							<trackindex>11</trackindex>
							<clipindex>49</clipindex>
							<groupindex>1</groupindex>
						</link>
					</clipitem>
					<clipitem id="clipitem-699" frameBlend="FALSE" PannerCurrentValue="0.5" PannerKeyframes="" PannerStartKeyframe="-91445760000000000,0.5,0,0,0,0,0,0" PannerIsInverted="true" PannerName="Balance">
						<masterclipid>masterclip-37</masterclipid>
						<name>El Topo.mov</name>
						<enabled>TRUE</enabled>
						<duration>3224</duration>
						<rate>
							<ntsc>TRUE</ntsc>
							<timebase>30</timebase>
						</rate>
						<start>12888</start>
						<end>12920</end>
						<in>2982</in>
						<out>3014</out>
						<file id="file-37"/>
						<sourcetrack>
							<mediatype>audio</mediatype>
							<trackindex>2</trackindex>
						</sourcetrack>
							<filter>
								<effect>
									<name>Gain</name>
									<effectid>{61756678, 4761696e, 4b657947}</effectid>
									<effecttype>filter</effecttype>
									<mediatype>audio</mediatype>
									<parameter authoringApp="PremierePro">
										<parameterid>Gain(dB)</parameterid>
										<name>Gain(dB)</name>
										<valuemin>-96</valuemin>
										<valuemax>96</valuemax>
										<value>12</value>
									</parameter>
								</effect>
							</filter>
							<filter>
								<effect>
									<name>Audio Levels</name>
									<effectid>audiolevels</effectid>
									<effectcategory>audiolevels</effectcategory>
									<effecttype>audiolevels</effecttype>
									<mediatype>audio</mediatype>
									<parameter authoringApp="PremierePro">
										<parameterid>level</parameterid>
										<name>Level</name>
										<valuemin>0</valuemin>
										<valuemax>3.98109</valuemax>
										<value>0.99763</value>
										<keyframe>
											<when>2431</when>
											<value>0</value>
										</keyframe>
										<keyframe>
											<when>2747</when>
											<value>0.493081</value>
										</keyframe>
										<keyframe>
											<when>2752</when>
											<value>0.99763</value>
										</keyframe>
									</parameter>
								</effect>
							</filter>
							<filter>
								<effect>
									<name>Audio Pan</name>
									<effectid>audiopan</effectid>
									<effectcategory>audiopan</effectcategory>
									<effecttype>audiopan</effecttype>
									<mediatype>audio</mediatype>
									<parameter authoringApp="PremierePro">
										<parameterid>pan</parameterid>
										<name>Pan</name>
										<valuemin>-1</valuemin>
										<valuemax>1</valuemax>
										<value>0</value>
									</parameter>
								</effect>
							</filter>
						<link>
							<linkclipref>clipitem-659</linkclipref>
							<mediatype>audio</mediatype>
							<trackindex>10</trackindex>
							<clipindex>50</clipindex>
							<groupindex>1</groupindex>
						</link>
						<link>
							<linkclipref>clipitem-699</linkclipref>
							<mediatype>audio</mediatype>
							<trackindex>11</trackindex>
							<clipindex>50</clipindex>
							<groupindex>1</groupindex>
						</link>
					</clipitem>
					<clipitem id="clipitem-700" frameBlend="FALSE" PannerCurrentValue="0.5" PannerKeyframes="" PannerStartKeyframe="-91445760000000000,0.5,0,0,0,0,0,0" PannerIsInverted="true" PannerName="Balance">
						<masterclipid>masterclip-37</masterclipid>
						<name>El Topo.mov</name>
						<enabled>TRUE</enabled>
						<duration>3224</duration>
						<rate>
							<ntsc>TRUE</ntsc>
							<timebase>30</timebase>
						</rate>
						<start>12920</start>
						<end>-1</end>
						<in>3014</in>
						<out>3080</out>
						<file id="file-37"/>
						<sourcetrack>
							<mediatype>audio</mediatype>
							<trackindex>2</trackindex>
						</sourcetrack>
							<filter>
								<effect>
									<name>Gain</name>
									<effectid>{61756678, 4761696e, 4b657947}</effectid>
									<effecttype>filter</effecttype>
									<mediatype>audio</mediatype>
									<parameter authoringApp="PremierePro">
										<parameterid>Gain(dB)</parameterid>
										<name>Gain(dB)</name>
										<valuemin>-96</valuemin>
										<valuemax>96</valuemax>
										<value>12</value>
									</parameter>
								</effect>
							</filter>
							<filter>
								<effect>
									<name>Audio Levels</name>
									<effectid>audiolevels</effectid>
									<effectcategory>audiolevels</effectcategory>
									<effecttype>audiolevels</effecttype>
									<mediatype>audio</mediatype>
									<parameter authoringApp="PremierePro">
										<parameterid>level</parameterid>
										<name>Level</name>
										<valuemin>0</valuemin>
										<valuemax>3.98109</valuemax>
										<value>0.99763</value>
										<keyframe>
											<when>2431</when>
											<value>0</value>
										</keyframe>
										<keyframe>
											<when>2747</when>
											<value>0.493081</value>
										</keyframe>
										<keyframe>
											<when>2752</when>
											<value>0.99763</value>
										</keyframe>
									</parameter>
								</effect>
							</filter>
							<filter>
								<effect>
									<name>Audio Pan</name>
									<effectid>audiopan</effectid>
									<effectcategory>audiopan</effectcategory>
									<effecttype>audiopan</effecttype>
									<mediatype>audio</mediatype>
									<parameter authoringApp="PremierePro">
										<parameterid>pan</parameterid>
										<name>Pan</name>
										<valuemin>-1</valuemin>
										<valuemax>1</valuemax>
										<value>0</value>
									</parameter>
								</effect>
							</filter>
						<link>
							<linkclipref>clipitem-660</linkclipref>
							<mediatype>audio</mediatype>
							<trackindex>10</trackindex>
							<clipindex>51</clipindex>
							<groupindex>1</groupindex>
						</link>
						<link>
							<linkclipref>clipitem-700</linkclipref>
							<mediatype>audio</mediatype>
							<trackindex>11</trackindex>
							<clipindex>51</clipindex>
							<groupindex>1</groupindex>
						</link>
					</clipitem>
					<transitionitem>
						<start>12961</start>
						<end>12986</end>
						<alignment>end-black</alignment>
						<cutPoint>25</cutPoint>
						<rate>
							<timebase>25</timebase>
							<ntsc>FALSE</ntsc>
						</rate>
						<effect>
							<name>Cross Fade (+3dB)</name>
							<effectid>KGAudioTransCrossFade3dB</effectid>
							<effecttype>transition</effecttype>
							<mediatype>audio</mediatype>
							<wipecode>0</wipecode>
							<wipeaccuracy>100</wipeaccuracy>
							<startratio>0</startratio>
							<endratio>1</endratio>
							<reverse>FALSE</reverse>
						</effect>
					</transitionitem>
					<clipitem id="clipitem-701" frameBlend="FALSE" PannerCurrentValue="0.5" PannerKeyframes="" PannerStartKeyframe="-91445760000000000,0.5,0,0,0,0,0,0" PannerIsInverted="true" PannerName="Balance">
						<masterclipid>masterclip-71</masterclipid>
						<name>DUNE PROMO TRAILER JAPAN.mov</name>
						<enabled>TRUE</enabled>
						<duration>3053</duration>
						<rate>
							<ntsc>TRUE</ntsc>
							<timebase>30</timebase>
						</rate>
						<start>13299</start>
						<end>14865</end>
						<in>0</in>
						<out>1566</out>
						<file id="file-71"/>
						<sourcetrack>
							<mediatype>audio</mediatype>
							<trackindex>2</trackindex>
						</sourcetrack>
							<filter>
								<effect>
									<name>Audio Levels</name>
									<effectid>audiolevels</effectid>
									<effectcategory>audiolevels</effectcategory>
									<effecttype>audiolevels</effecttype>
									<mediatype>audio</mediatype>
									<parameter authoringApp="PremierePro">
										<parameterid>level</parameterid>
										<name>Level</name>
										<valuemin>0</valuemin>
										<valuemax>3.98109</valuemax>
										<value>0.99763</value>
										<keyframe>
											<when>1415</when>
											<value>0.99763</value>
										</keyframe>
										<keyframe>
											<when>1423</when>
											<value>0.144236</value>
										</keyframe>
										<keyframe>
											<when>1522</when>
											<value>0</value>
										</keyframe>
									</parameter>
								</effect>
							</filter>
							<filter>
								<effect>
									<name>Audio Pan</name>
									<effectid>audiopan</effectid>
									<effectcategory>audiopan</effectcategory>
									<effecttype>audiopan</effecttype>
									<mediatype>audio</mediatype>
									<parameter authoringApp="PremierePro">
										<parameterid>pan</parameterid>
										<name>Pan</name>
										<valuemin>-1</valuemin>
										<valuemax>1</valuemax>
										<value>0</value>
									</parameter>
								</effect>
							</filter>
						<link>
							<linkclipref>clipitem-245</linkclipref>
							<mediatype>video</mediatype>
							<trackindex>3</trackindex>
							<clipindex>119</clipindex>
						</link>
						<link>
							<linkclipref>clipitem-661</linkclipref>
							<mediatype>audio</mediatype>
							<trackindex>10</trackindex>
							<clipindex>53</clipindex>
							<groupindex>1</groupindex>
						</link>
						<link>
							<linkclipref>clipitem-701</linkclipref>
							<mediatype>audio</mediatype>
							<trackindex>11</trackindex>
							<clipindex>53</clipindex>
							<groupindex>1</groupindex>
						</link>
					</clipitem>
					<transitionitem>
						<start>16653</start>
						<end>16737</end>
						<alignment>start-black</alignment>
						<cutPoint>0</cutPoint>
						<rate>
							<timebase>25</timebase>
							<ntsc>FALSE</ntsc>
						</rate>
						<effect>
							<name>Cross Fade (+3dB)</name>
							<effectid>KGAudioTransCrossFade3dB</effectid>
							<effecttype>transition</effecttype>
							<mediatype>audio</mediatype>
							<wipecode>0</wipecode>
							<wipeaccuracy>100</wipeaccuracy>
							<startratio>0</startratio>
							<endratio>1</endratio>
							<reverse>FALSE</reverse>
						</effect>
					</transitionitem>
					<clipitem id="clipitem-702" frameBlend="FALSE" PannerCurrentValue="0.5" PannerKeyframes="" PannerStartKeyframe="-91445760000000000,0.5,0,0,0,0,0,0" PannerIsInverted="true" PannerName="Balance">
						<masterclipid>masterclip-71</masterclipid>
						<name>DUNE PROMO TRAILER JAPAN.mov</name>
						<enabled>TRUE</enabled>
						<duration>3053</duration>
						<rate>
							<ntsc>TRUE</ntsc>
							<timebase>30</timebase>
						</rate>
						<start>-1</start>
						<end>16906</end>
						<in>2633</in>
						<out>2886</out>
						<file id="file-71"/>
						<sourcetrack>
							<mediatype>audio</mediatype>
							<trackindex>2</trackindex>
						</sourcetrack>
							<filter>
								<effect>
									<name>Audio Levels</name>
									<effectid>audiolevels</effectid>
									<effectcategory>audiolevels</effectcategory>
									<effecttype>audiolevels</effecttype>
									<mediatype>audio</mediatype>
									<parameter authoringApp="PremierePro">
										<parameterid>level</parameterid>
										<name>Level</name>
										<valuemin>0</valuemin>
										<valuemax>3.98109</valuemax>
										<value>0</value>
										<keyframe>
											<when>2671</when>
											<value>0.311304</value>
										</keyframe>
										<keyframe>
											<when>2681</when>
											<value>0.352872</value>
										</keyframe>
										<keyframe>
											<when>2724</when>
											<value>0.38973</value>
										</keyframe>
										<keyframe>
											<when>2737</when>
											<value>0.525082</value>
										</keyframe>
										<keyframe>
											<when>2778</when>
											<value>0.560712</value>
										</keyframe>
										<keyframe>
											<when>2783</when>
											<value>0.311304</value>
										</keyframe>
										<keyframe>
											<when>2811</when>
											<value>0.207384</value>
										</keyframe>
										<keyframe>
											<when>2837</when>
											<value>0</value>
										</keyframe>
									</parameter>
								</effect>
							</filter>
							<filter>
								<effect>
									<name>Audio Pan</name>
									<effectid>audiopan</effectid>
									<effectcategory>audiopan</effectcategory>
									<effecttype>audiopan</effecttype>
									<mediatype>audio</mediatype>
									<parameter authoringApp="PremierePro">
										<parameterid>pan</parameterid>
										<name>Pan</name>
										<valuemin>-1</valuemin>
										<valuemax>1</valuemax>
										<value>0</value>
									</parameter>
								</effect>
							</filter>
						<link>
							<linkclipref>clipitem-250</linkclipref>
							<mediatype>video</mediatype>
							<trackindex>3</trackindex>
							<clipindex>126</clipindex>
						</link>
						<link>
							<linkclipref>clipitem-662</linkclipref>
							<mediatype>audio</mediatype>
							<trackindex>10</trackindex>
							<clipindex>55</clipindex>
							<groupindex>1</groupindex>
						</link>
						<link>
							<linkclipref>clipitem-702</linkclipref>
							<mediatype>audio</mediatype>
							<trackindex>11</trackindex>
							<clipindex>55</clipindex>
							<groupindex>1</groupindex>
						</link>
					</clipitem>
					<clipitem id="clipitem-703" frameBlend="FALSE" PannerCurrentValue="0.5" PannerKeyframes="" PannerStartKeyframe="-91445760000000000,0.5,0,0,0,0,0,0" PannerIsInverted="true" PannerName="Balance">
						<masterclipid>masterclip-70</masterclipid>
						<name>The Holy Mountain.mov</name>
						<enabled>TRUE</enabled>
						<duration>5112</duration>
						<rate>
							<ntsc>TRUE</ntsc>
							<timebase>30</timebase>
						</rate>
						<start>18737</start>
						<end>-1</end>
						<in>2532</in>
						<out>2881</out>
						<file id="file-70"/>
						<sourcetrack>
							<mediatype>audio</mediatype>
							<trackindex>2</trackindex>
						</sourcetrack>
							<filter>
								<effect>
									<name>Audio Pan</name>
									<effectid>audiopan</effectid>
									<effectcategory>audiopan</effectcategory>
									<effecttype>audiopan</effecttype>
									<mediatype>audio</mediatype>
									<parameter authoringApp="PremierePro">
										<parameterid>pan</parameterid>
										<name>Pan</name>
										<valuemin>-1</valuemin>
										<valuemax>1</valuemax>
										<value>0</value>
									</parameter>
								</effect>
							</filter>
						<link>
							<linkclipref>clipitem-252</linkclipref>
							<mediatype>video</mediatype>
							<trackindex>3</trackindex>
							<clipindex>130</clipindex>
						</link>
						<link>
							<linkclipref>clipitem-663</linkclipref>
							<mediatype>audio</mediatype>
							<trackindex>10</trackindex>
							<clipindex>56</clipindex>
							<groupindex>1</groupindex>
						</link>
						<link>
							<linkclipref>clipitem-703</linkclipref>
							<mediatype>audio</mediatype>
							<trackindex>11</trackindex>
							<clipindex>56</clipindex>
							<groupindex>1</groupindex>
						</link>
					</clipitem>
					<transitionitem>
						<start>19061</start>
						<end>19086</end>
						<alignment>end-black</alignment>
						<cutPoint>25</cutPoint>
						<rate>
							<timebase>25</timebase>
							<ntsc>FALSE</ntsc>
						</rate>
						<effect>
							<name>Cross Fade (+3dB)</name>
							<effectid>KGAudioTransCrossFade3dB</effectid>
							<effecttype>transition</effecttype>
							<mediatype>audio</mediatype>
							<wipecode>0</wipecode>
							<wipeaccuracy>100</wipeaccuracy>
							<startratio>0</startratio>
							<endratio>1</endratio>
							<reverse>FALSE</reverse>
						</effect>
					</transitionitem>
					<transitionitem>
						<start>19882</start>
						<end>19907</end>
						<alignment>start-black</alignment>
						<cutPoint>0</cutPoint>
						<rate>
							<timebase>25</timebase>
							<ntsc>FALSE</ntsc>
						</rate>
						<effect>
							<name>Cross Fade (+3dB)</name>
							<effectid>KGAudioTransCrossFade3dB</effectid>
							<effecttype>transition</effecttype>
							<mediatype>audio</mediatype>
							<wipecode>0</wipecode>
							<wipeaccuracy>100</wipeaccuracy>
							<startratio>0</startratio>
							<endratio>1</endratio>
							<reverse>FALSE</reverse>
						</effect>
					</transitionitem>
					<clipitem id="clipitem-704" frameBlend="FALSE" PannerCurrentValue="0.5" PannerKeyframes="" PannerStartKeyframe="-91445760000000000,0.5,0,0,0,0,0,0" PannerIsInverted="true" PannerName="Balance">
						<masterclipid>masterclip-76</masterclipid>
						<name>alien_åpningsscene.mov</name>
						<enabled>TRUE</enabled>
						<duration>5256</duration>
						<rate>
							<ntsc>TRUE</ntsc>
							<timebase>30</timebase>
						</rate>
						<start>-1</start>
						<end>-1</end>
						<in>212</in>
						<out>821</out>
						<file id="file-76"/>
						<sourcetrack>
							<mediatype>audio</mediatype>
							<trackindex>2</trackindex>
						</sourcetrack>
							<filter>
								<effect>
									<name>Audio Pan</name>
									<effectid>audiopan</effectid>
									<effectcategory>audiopan</effectcategory>
									<effecttype>audiopan</effecttype>
									<mediatype>audio</mediatype>
									<parameter authoringApp="PremierePro">
										<parameterid>pan</parameterid>
										<name>Pan</name>
										<valuemin>-1</valuemin>
										<valuemax>1</valuemax>
										<value>0</value>
									</parameter>
								</effect>
							</filter>
						<link>
							<linkclipref>clipitem-255</linkclipref>
							<mediatype>video</mediatype>
							<trackindex>3</trackindex>
							<clipindex>133</clipindex>
						</link>
						<link>
							<linkclipref>clipitem-664</linkclipref>
							<mediatype>audio</mediatype>
							<trackindex>10</trackindex>
							<clipindex>59</clipindex>
							<groupindex>1</groupindex>
						</link>
						<link>
							<linkclipref>clipitem-704</linkclipref>
							<mediatype>audio</mediatype>
							<trackindex>11</trackindex>
							<clipindex>59</clipindex>
							<groupindex>1</groupindex>
						</link>
					</clipitem>
					<transitionitem>
						<start>20466</start>
						<end>20491</end>
						<alignment>end-black</alignment>
						<cutPoint>25</cutPoint>
						<rate>
							<timebase>25</timebase>
							<ntsc>FALSE</ntsc>
						</rate>
						<effect>
							<name>Cross Fade (+3dB)</name>
							<effectid>KGAudioTransCrossFade3dB</effectid>
							<effecttype>transition</effecttype>
							<mediatype>audio</mediatype>
							<wipecode>0</wipecode>
							<wipeaccuracy>100</wipeaccuracy>
							<startratio>0</startratio>
							<endratio>1</endratio>
							<reverse>FALSE</reverse>
						</effect>
					</transitionitem>
					<transitionitem>
						<start>20828</start>
						<end>20853</end>
						<alignment>start-black</alignment>
						<cutPoint>0</cutPoint>
						<rate>
							<timebase>25</timebase>
							<ntsc>FALSE</ntsc>
						</rate>
						<effect>
							<name>Cross Fade (+3dB)</name>
							<effectid>KGAudioTransCrossFade3dB</effectid>
							<effecttype>transition</effecttype>
							<mediatype>audio</mediatype>
							<wipecode>0</wipecode>
							<wipeaccuracy>100</wipeaccuracy>
							<startratio>0</startratio>
							<endratio>1</endratio>
							<reverse>FALSE</reverse>
						</effect>
					</transitionitem>
					<clipitem id="clipitem-705" frameBlend="FALSE" PannerCurrentValue="0.5" PannerKeyframes="" PannerStartKeyframe="-91445760000000000,0.5,0,0,0,0,0,0" PannerIsInverted="true" PannerName="Balance">
						<masterclipid>masterclip-77</masterclipid>
						<name>star_wars_25fps.mov</name>
						<enabled>TRUE</enabled>
						<duration>5377</duration>
						<rate>
							<ntsc>TRUE</ntsc>
							<timebase>30</timebase>
						</rate>
						<start>-1</start>
						<end>-1</end>
						<in>332</in>
						<out>556</out>
						<file id="file-77"/>
						<sourcetrack>
							<mediatype>audio</mediatype>
							<trackindex>2</trackindex>
						</sourcetrack>
							<filter>
								<effect>
									<name>Audio Levels</name>
									<effectid>audiolevels</effectid>
									<effectcategory>audiolevels</effectcategory>
									<effecttype>audiolevels</effecttype>
									<mediatype>audio</mediatype>
									<parameter authoringApp="PremierePro">
										<parameterid>level</parameterid>
										<name>Level</name>
										<valuemin>0</valuemin>
										<valuemax>3.98109</valuemax>
										<value>0.215982</value>
									</parameter>
								</effect>
							</filter>
							<filter>
								<effect>
									<name>Audio Pan</name>
									<effectid>audiopan</effectid>
									<effectcategory>audiopan</effectcategory>
									<effecttype>audiopan</effecttype>
									<mediatype>audio</mediatype>
									<parameter authoringApp="PremierePro">
										<parameterid>pan</parameterid>
										<name>Pan</name>
										<valuemin>-1</valuemin>
										<valuemax>1</valuemax>
										<value>0</value>
									</parameter>
								</effect>
							</filter>
						<link>
							<linkclipref>clipitem-256</linkclipref>
							<mediatype>video</mediatype>
							<trackindex>3</trackindex>
							<clipindex>134</clipindex>
						</link>
						<link>
							<linkclipref>clipitem-665</linkclipref>
							<mediatype>audio</mediatype>
							<trackindex>10</trackindex>
							<clipindex>62</clipindex>
							<groupindex>1</groupindex>
						</link>
						<link>
							<linkclipref>clipitem-705</linkclipref>
							<mediatype>audio</mediatype>
							<trackindex>11</trackindex>
							<clipindex>62</clipindex>
							<groupindex>1</groupindex>
						</link>
					</clipitem>
					<transitionitem>
						<start>21027</start>
						<end>21052</end>
						<alignment>end-black</alignment>
						<cutPoint>25</cutPoint>
						<rate>
							<timebase>25</timebase>
							<ntsc>FALSE</ntsc>
						</rate>
						<effect>
							<name>Cross Fade (+3dB)</name>
							<effectid>KGAudioTransCrossFade3dB</effectid>
							<effecttype>transition</effecttype>
							<mediatype>audio</mediatype>
							<wipecode>0</wipecode>
							<wipeaccuracy>100</wipeaccuracy>
							<startratio>0</startratio>
							<endratio>1</endratio>
							<reverse>FALSE</reverse>
						</effect>
					</transitionitem>
					<clipitem id="clipitem-706" frameBlend="FALSE" PannerCurrentValue="0.5" PannerKeyframes="" PannerStartKeyframe="-91445760000000000,0.5,0,0,0,0,0,0" PannerIsInverted="true" PannerName="Balance">
						<masterclipid>masterclip-78</masterclipid>
						<name>dune_25fps.mov</name>
						<enabled>TRUE</enabled>
						<duration>22506</duration>
						<rate>
							<ntsc>TRUE</ntsc>
							<timebase>30</timebase>
						</rate>
						<start>23691</start>
						<end>-1</end>
						<in>17013</in>
						<out>17880</out>
						<file id="file-78"/>
						<sourcetrack>
							<mediatype>audio</mediatype>
							<trackindex>2</trackindex>
						</sourcetrack>
							<filter>
								<effect>
									<name>Gain</name>
									<effectid>{61756678, 4761696e, 4b657947}</effectid>
									<effecttype>filter</effecttype>
									<mediatype>audio</mediatype>
									<parameter authoringApp="PremierePro">
										<parameterid>Gain(dB)</parameterid>
										<name>Gain(dB)</name>
										<valuemin>-96</valuemin>
										<valuemax>96</valuemax>
										<value>6</value>
									</parameter>
								</effect>
							</filter>
							<filter>
								<effect>
									<name>Audio Levels</name>
									<effectid>audiolevels</effectid>
									<effectcategory>audiolevels</effectcategory>
									<effecttype>audiolevels</effecttype>
									<mediatype>audio</mediatype>
									<parameter authoringApp="PremierePro">
										<parameterid>level</parameterid>
										<name>Level</name>
										<valuemin>0</valuemin>
										<valuemax>3.98109</valuemax>
										<value>0.0470352</value>
										<keyframe>
											<when>17026</when>
											<value>0</value>
										</keyframe>
										<keyframe>
											<when>17101</when>
											<value>0.92318</value>
										</keyframe>
										<keyframe>
											<when>17187</when>
											<value>0.95296</value>
										</keyframe>
										<keyframe>
											<when>17197</when>
											<value>0.05956</value>
										</keyframe>
										<keyframe>
											<when>17453</when>
											<value>0</value>
										</keyframe>
										<keyframe>
											<when>17465</when>
											<value>0.13401</value>
										</keyframe>
										<keyframe>
											<when>17545</when>
											<value>0.13401</value>
										</keyframe>
										<keyframe>
											<when>17553</when>
											<value>0.99763</value>
										</keyframe>
									</parameter>
								</effect>
							</filter>
							<filter>
								<effect>
									<name>Audio Pan</name>
									<effectid>audiopan</effectid>
									<effectcategory>audiopan</effectcategory>
									<effecttype>audiopan</effecttype>
									<mediatype>audio</mediatype>
									<parameter authoringApp="PremierePro">
										<parameterid>pan</parameterid>
										<name>Pan</name>
										<valuemin>-1</valuemin>
										<valuemax>1</valuemax>
										<value>0</value>
									</parameter>
								</effect>
							</filter>
						<link>
							<linkclipref>clipitem-258</linkclipref>
							<mediatype>video</mediatype>
							<trackindex>3</trackindex>
							<clipindex>136</clipindex>
						</link>
						<link>
							<linkclipref>clipitem-666</linkclipref>
							<mediatype>audio</mediatype>
							<trackindex>10</trackindex>
							<clipindex>64</clipindex>
							<groupindex>1</groupindex>
						</link>
						<link>
							<linkclipref>clipitem-706</linkclipref>
							<mediatype>audio</mediatype>
							<trackindex>11</trackindex>
							<clipindex>64</clipindex>
							<groupindex>1</groupindex>
						</link>
					</clipitem>
					<transitionitem>
						<start>24548</start>
						<end>24558</end>
						<alignment>end-black</alignment>
						<cutPoint>10</cutPoint>
						<rate>
							<timebase>25</timebase>
							<ntsc>FALSE</ntsc>
						</rate>
						<effect>
							<name>Cross Fade (+3dB)</name>
							<effectid>KGAudioTransCrossFade3dB</effectid>
							<effecttype>transition</effecttype>
							<mediatype>audio</mediatype>
							<wipecode>0</wipecode>
							<wipeaccuracy>100</wipeaccuracy>
							<startratio>0</startratio>
							<endratio>1</endratio>
							<reverse>FALSE</reverse>
						</effect>
					</transitionitem>
					<clipitem id="clipitem-707" frameBlend="FALSE" PannerCurrentValue="0.5" PannerKeyframes="" PannerStartKeyframe="-91445760000000000,0.5,0,0,0,0,0,0" PannerIsInverted="true" PannerName="Balance">
						<masterclipid>masterclip-83</masterclipid>
						<name>1000 ganger godnatt klipp3.mov</name>
						<enabled>TRUE</enabled>
						<duration>6215</duration>
						<rate>
							<ntsc>TRUE</ntsc>
							<timebase>30</timebase>
						</rate>
						<start>27878</start>
						<end>28831</end>
						<in>178</in>
						<out>1131</out>
						<file id="file-83"/>
						<sourcetrack>
							<mediatype>audio</mediatype>
							<trackindex>2</trackindex>
						</sourcetrack>
							<filter>
								<effect>
									<name>Audio Levels</name>
									<effectid>audiolevels</effectid>
									<effectcategory>audiolevels</effectcategory>
									<effecttype>audiolevels</effecttype>
									<mediatype>audio</mediatype>
									<parameter authoringApp="PremierePro">
										<parameterid>level</parameterid>
										<name>Level</name>
										<valuemin>0</valuemin>
										<valuemax>3.98109</valuemax>
										<value>0</value>
										<keyframe>
											<when>178</when>
											<value>0</value>
										</keyframe>
										<keyframe>
											<when>210</when>
											<value>0.721178</value>
										</keyframe>
										<keyframe>
											<when>265</when>
											<value>0.99763</value>
										</keyframe>
										<keyframe>
											<when>1032</when>
											<value>0.99763</value>
										</keyframe>
										<keyframe>
											<when>1036</when>
											<value>0.516844</value>
										</keyframe>
										<keyframe>
											<when>1062</when>
											<value>0</value>
										</keyframe>
									</parameter>
								</effect>
							</filter>
							<filter>
								<effect>
									<name>Audio Pan</name>
									<effectid>audiopan</effectid>
									<effectcategory>audiopan</effectcategory>
									<effecttype>audiopan</effecttype>
									<mediatype>audio</mediatype>
									<parameter authoringApp="PremierePro">
										<parameterid>pan</parameterid>
										<name>Pan</name>
										<valuemin>-1</valuemin>
										<valuemax>1</valuemax>
										<value>0</value>
									</parameter>
								</effect>
							</filter>
						<link>
							<linkclipref>clipitem-263</linkclipref>
							<mediatype>video</mediatype>
							<trackindex>3</trackindex>
							<clipindex>143</clipindex>
						</link>
						<link>
							<linkclipref>clipitem-667</linkclipref>
							<mediatype>audio</mediatype>
							<trackindex>10</trackindex>
							<clipindex>66</clipindex>
							<groupindex>1</groupindex>
						</link>
						<link>
							<linkclipref>clipitem-707</linkclipref>
							<mediatype>audio</mediatype>
							<trackindex>11</trackindex>
							<clipindex>66</clipindex>
							<groupindex>1</groupindex>
						</link>
					</clipitem>
					<transitionitem>
						<start>31005</start>
						<end>31030</end>
						<alignment>start-black</alignment>
						<cutPoint>0</cutPoint>
						<rate>
							<timebase>25</timebase>
							<ntsc>FALSE</ntsc>
						</rate>
						<effect>
							<name>Cross Fade (+3dB)</name>
							<effectid>KGAudioTransCrossFade3dB</effectid>
							<effecttype>transition</effecttype>
							<mediatype>audio</mediatype>
							<wipecode>0</wipecode>
							<wipeaccuracy>100</wipeaccuracy>
							<startratio>0</startratio>
							<endratio>1</endratio>
							<reverse>FALSE</reverse>
						</effect>
					</transitionitem>
					<clipitem id="clipitem-708" frameBlend="FALSE" PannerCurrentValue="0.5" PannerKeyframes="" PannerStartKeyframe="-91445760000000000,0.5,0,0,0,0,0,0" PannerIsInverted="true" PannerName="Balance">
						<masterclipid>masterclip-83</masterclipid>
						<name>1000 ganger godnatt klipp3.mov</name>
						<enabled>TRUE</enabled>
						<duration>6215</duration>
						<rate>
							<ntsc>TRUE</ntsc>
							<timebase>30</timebase>
						</rate>
						<start>-1</start>
						<end>31228</end>
						<in>5605</in>
						<out>5828</out>
						<file id="file-83"/>
						<sourcetrack>
							<mediatype>audio</mediatype>
							<trackindex>2</trackindex>
						</sourcetrack>
							<filter>
								<effect>
									<name>Audio Levels</name>
									<effectid>audiolevels</effectid>
									<effectcategory>audiolevels</effectcategory>
									<effecttype>audiolevels</effecttype>
									<mediatype>audio</mediatype>
									<parameter authoringApp="PremierePro">
										<parameterid>level</parameterid>
										<name>Level</name>
										<valuemin>0</valuemin>
										<valuemax>3.98109</valuemax>
										<value>0</value>
										<keyframe>
											<when>5771</when>
											<value>0.298725</value>
										</keyframe>
										<keyframe>
											<when>5783</when>
											<value>0</value>
										</keyframe>
									</parameter>
								</effect>
							</filter>
							<filter>
								<effect>
									<name>Audio Pan</name>
									<effectid>audiopan</effectid>
									<effectcategory>audiopan</effectcategory>
									<effecttype>audiopan</effecttype>
									<mediatype>audio</mediatype>
									<parameter authoringApp="PremierePro">
										<parameterid>pan</parameterid>
										<name>Pan</name>
										<valuemin>-1</valuemin>
										<valuemax>1</valuemax>
										<value>0</value>
									</parameter>
								</effect>
							</filter>
						<link>
							<linkclipref>clipitem-264</linkclipref>
							<mediatype>video</mediatype>
							<trackindex>3</trackindex>
							<clipindex>144</clipindex>
						</link>
						<link>
							<linkclipref>clipitem-668</linkclipref>
							<mediatype>audio</mediatype>
							<trackindex>10</trackindex>
							<clipindex>68</clipindex>
							<groupindex>1</groupindex>
						</link>
						<link>
							<linkclipref>clipitem-708</linkclipref>
							<mediatype>audio</mediatype>
							<trackindex>11</trackindex>
							<clipindex>68</clipindex>
							<groupindex>1</groupindex>
						</link>
					</clipitem>
					<transitionitem>
						<start>36679</start>
						<end>36699</end>
						<alignment>start-black</alignment>
						<cutPoint>0</cutPoint>
						<rate>
							<timebase>25</timebase>
							<ntsc>FALSE</ntsc>
						</rate>
						<effect>
							<name>Cross Fade (+3dB)</name>
							<effectid>KGAudioTransCrossFade3dB</effectid>
							<effecttype>transition</effecttype>
							<mediatype>audio</mediatype>
							<wipecode>0</wipecode>
							<wipeaccuracy>100</wipeaccuracy>
							<startratio>0</startratio>
							<endratio>1</endratio>
							<reverse>FALSE</reverse>
						</effect>
					</transitionitem>
					<clipitem id="clipitem-709" frameBlend="FALSE" PannerCurrentValue="0.5" PannerKeyframes="" PannerStartKeyframe="-91445760000000000,0.5,0,0,0,0,0,0" PannerIsInverted="true" PannerName="Balance">
						<masterclipid>masterclip-89</masterclipid>
						<name>Trappescenen Potemkin.mov</name>
						<enabled>TRUE</enabled>
						<duration>4632</duration>
						<rate>
							<ntsc>TRUE</ntsc>
							<timebase>30</timebase>
						</rate>
						<start>-1</start>
						<end>-1</end>
						<in>2978</in>
						<out>3212</out>
						<file id="file-89"/>
						<sourcetrack>
							<mediatype>audio</mediatype>
							<trackindex>2</trackindex>
						</sourcetrack>
							<filter>
								<effect>
									<name>Audio Levels</name>
									<effectid>audiolevels</effectid>
									<effectcategory>audiolevels</effectcategory>
									<effecttype>audiolevels</effecttype>
									<mediatype>audio</mediatype>
									<parameter authoringApp="PremierePro">
										<parameterid>level</parameterid>
										<name>Level</name>
										<valuemin>0</valuemin>
										<valuemax>3.98109</valuemax>
										<value>0.730564</value>
										<keyframe>
											<when>3002</when>
											<value>0.0654773</value>
										</keyframe>
										<keyframe>
											<when>3023</when>
											<value>0.144654</value>
										</keyframe>
										<keyframe>
											<when>3042</when>
											<value>0.730564</value>
										</keyframe>
									</parameter>
								</effect>
							</filter>
							<filter>
								<effect>
									<name>Audio Pan</name>
									<effectid>audiopan</effectid>
									<effectcategory>audiopan</effectcategory>
									<effecttype>audiopan</effecttype>
									<mediatype>audio</mediatype>
									<parameter authoringApp="PremierePro">
										<parameterid>pan</parameterid>
										<name>Pan</name>
										<valuemin>-1</valuemin>
										<valuemax>1</valuemax>
										<value>0</value>
									</parameter>
								</effect>
							</filter>
						<link>
							<linkclipref>clipitem-272</linkclipref>
							<mediatype>video</mediatype>
							<trackindex>3</trackindex>
							<clipindex>159</clipindex>
						</link>
						<link>
							<linkclipref>clipitem-669</linkclipref>
							<mediatype>audio</mediatype>
							<trackindex>10</trackindex>
							<clipindex>70</clipindex>
							<groupindex>1</groupindex>
						</link>
						<link>
							<linkclipref>clipitem-709</linkclipref>
							<mediatype>audio</mediatype>
							<trackindex>11</trackindex>
							<clipindex>70</clipindex>
							<groupindex>1</groupindex>
						</link>
					</clipitem>
					<transitionitem>
						<start>36870</start>
						<end>36913</end>
						<alignment>center</alignment>
						<cutPoint>21</cutPoint>
						<rate>
							<timebase>25</timebase>
							<ntsc>FALSE</ntsc>
						</rate>
						<effect>
							<name>Cross Fade (+3dB)</name>
							<effectid>KGAudioTransCrossFade3dB</effectid>
							<effecttype>transition</effecttype>
							<mediatype>audio</mediatype>
							<wipecode>0</wipecode>
							<wipeaccuracy>100</wipeaccuracy>
							<startratio>0</startratio>
							<endratio>1</endratio>
							<reverse>FALSE</reverse>
						</effect>
					</transitionitem>
					<clipitem id="clipitem-710" frameBlend="FALSE" PannerCurrentValue="0.5" PannerKeyframes="" PannerStartKeyframe="-91445760000000000,0.5,0,0,0,0,0,0" PannerIsInverted="true" PannerName="Balance">
						<masterclipid>masterclip-89</masterclipid>
						<name>Trappescenen Potemkin.mov</name>
						<enabled>TRUE</enabled>
						<duration>4632</duration>
						<rate>
							<ntsc>TRUE</ntsc>
							<timebase>30</timebase>
						</rate>
						<start>-1</start>
						<end>-1</end>
						<in>3169</in>
						<out>3279</out>
						<file id="file-89"/>
						<sourcetrack>
							<mediatype>audio</mediatype>
							<trackindex>2</trackindex>
						</sourcetrack>
							<filter>
								<effect>
									<name>Audio Levels</name>
									<effectid>audiolevels</effectid>
									<effectcategory>audiolevels</effectcategory>
									<effecttype>audiolevels</effecttype>
									<mediatype>audio</mediatype>
									<parameter authoringApp="PremierePro">
										<parameterid>level</parameterid>
										<name>Level</name>
										<valuemin>0</valuemin>
										<valuemax>3.98109</valuemax>
										<value>0.0823158</value>
									</parameter>
								</effect>
							</filter>
							<filter>
								<effect>
									<name>Audio Pan</name>
									<effectid>audiopan</effectid>
									<effectcategory>audiopan</effectcategory>
									<effecttype>audiopan</effecttype>
									<mediatype>audio</mediatype>
									<parameter authoringApp="PremierePro">
										<parameterid>pan</parameterid>
										<name>Pan</name>
										<valuemin>-1</valuemin>
										<valuemax>1</valuemax>
										<value>0</value>
									</parameter>
								</effect>
							</filter>
						<link>
							<linkclipref>clipitem-670</linkclipref>
							<mediatype>audio</mediatype>
							<trackindex>10</trackindex>
							<clipindex>72</clipindex>
							<groupindex>1</groupindex>
						</link>
						<link>
							<linkclipref>clipitem-710</linkclipref>
							<mediatype>audio</mediatype>
							<trackindex>11</trackindex>
							<clipindex>72</clipindex>
							<groupindex>1</groupindex>
						</link>
					</clipitem>
					<transitionitem>
						<start>36948</start>
						<end>36980</end>
						<alignment>end-black</alignment>
						<cutPoint>32</cutPoint>
						<rate>
							<timebase>25</timebase>
							<ntsc>FALSE</ntsc>
						</rate>
						<effect>
							<name>Cross Fade (+3dB)</name>
							<effectid>KGAudioTransCrossFade3dB</effectid>
							<effecttype>transition</effecttype>
							<mediatype>audio</mediatype>
							<wipecode>0</wipecode>
							<wipeaccuracy>100</wipeaccuracy>
							<startratio>0</startratio>
							<endratio>1</endratio>
							<reverse>FALSE</reverse>
						</effect>
					</transitionitem>
					<clipitem id="clipitem-711" frameBlend="FALSE" PannerCurrentValue="0.5" PannerKeyframes="" PannerStartKeyframe="-91445760000000000,0.5,0,0,0,0,0,0" PannerIsInverted="true" PannerName="Balance">
						<masterclipid>masterclip-90</masterclipid>
						<name>4_2.mov</name>
						<enabled>TRUE</enabled>
						<duration>2400</duration>
						<rate>
							<ntsc>TRUE</ntsc>
							<timebase>30</timebase>
						</rate>
						<start>40936</start>
						<end>41433</end>
						<in>629</in>
						<out>1126</out>
						<file id="file-90"/>
						<sourcetrack>
							<mediatype>audio</mediatype>
							<trackindex>2</trackindex>
						</sourcetrack>
							<filter>
								<effect>
									<name>Gain</name>
									<effectid>{61756678, 4761696e, 4b657947}</effectid>
									<effecttype>filter</effecttype>
									<mediatype>audio</mediatype>
									<parameter authoringApp="PremierePro">
										<parameterid>Gain(dB)</parameterid>
										<name>Gain(dB)</name>
										<valuemin>-96</valuemin>
										<valuemax>96</valuemax>
										<value>-3</value>
									</parameter>
								</effect>
							</filter>
							<filter>
								<effect>
									<name>Audio Levels</name>
									<effectid>audiolevels</effectid>
									<effectcategory>audiolevels</effectcategory>
									<effecttype>audiolevels</effecttype>
									<mediatype>audio</mediatype>
									<parameter authoringApp="PremierePro">
										<parameterid>level</parameterid>
										<name>Level</name>
										<valuemin>0</valuemin>
										<valuemax>3.98109</valuemax>
										<value>0.0666504</value>
										<keyframe>
											<when>660</when>
											<value>0</value>
										</keyframe>
										<keyframe>
											<when>698</when>
											<value>0.14622</value>
										</keyframe>
										<keyframe>
											<when>724</when>
											<value>0.431258</value>
										</keyframe>
										<keyframe>
											<when>760</when>
											<value>0.440495</value>
										</keyframe>
										<keyframe>
											<when>765</when>
											<value>0.0946699</value>
										</keyframe>
										<keyframe>
											<when>776</when>
											<value>0.0894597</value>
										</keyframe>
										<keyframe>
											<when>1009</when>
											<value>0.0413811</value>
										</keyframe>
										<keyframe>
											<when>1098</when>
											<value>0</value>
										</keyframe>
									</parameter>
								</effect>
							</filter>
							<filter>
								<effect>
									<name>Audio Pan</name>
									<effectid>audiopan</effectid>
									<effectcategory>audiopan</effectcategory>
									<effecttype>audiopan</effecttype>
									<mediatype>audio</mediatype>
									<parameter authoringApp="PremierePro">
										<parameterid>pan</parameterid>
										<name>Pan</name>
										<valuemin>-1</valuemin>
										<valuemax>1</valuemax>
										<value>0</value>
									</parameter>
								</effect>
							</filter>
						<link>
							<linkclipref>clipitem-276</linkclipref>
							<mediatype>video</mediatype>
							<trackindex>3</trackindex>
							<clipindex>164</clipindex>
						</link>
						<link>
							<linkclipref>clipitem-671</linkclipref>
							<mediatype>audio</mediatype>
							<trackindex>10</trackindex>
							<clipindex>74</clipindex>
							<groupindex>1</groupindex>
						</link>
						<link>
							<linkclipref>clipitem-711</linkclipref>
							<mediatype>audio</mediatype>
							<trackindex>11</trackindex>
							<clipindex>74</clipindex>
							<groupindex>1</groupindex>
						</link>
					</clipitem>
					<clipitem id="clipitem-712" frameBlend="FALSE" PannerCurrentValue="0.5" PannerKeyframes="" PannerStartKeyframe="-91445760000000000,0.5,0,0,0,0,0,0" PannerIsInverted="true" PannerName="Balance">
						<masterclipid>masterclip-91</masterclipid>
						<name>FILM_Break_kaleido.mov</name>
						<enabled>TRUE</enabled>
						<duration>197</duration>
						<rate>
							<ntsc>TRUE</ntsc>
							<timebase>30</timebase>
						</rate>
						<start>42375</start>
						<end>42572</end>
						<in>0</in>
						<out>197</out>
						<file id="file-91"/>
						<sourcetrack>
							<mediatype>audio</mediatype>
							<trackindex>2</trackindex>
						</sourcetrack>
							<filter>
								<effect>
									<name>Audio Pan</name>
									<effectid>audiopan</effectid>
									<effectcategory>audiopan</effectcategory>
									<effecttype>audiopan</effecttype>
									<mediatype>audio</mediatype>
									<parameter authoringApp="PremierePro">
										<parameterid>pan</parameterid>
										<name>Pan</name>
										<valuemin>-1</valuemin>
										<valuemax>1</valuemax>
										<value>0</value>
									</parameter>
								</effect>
							</filter>
						<link>
							<linkclipref>clipitem-277</linkclipref>
							<mediatype>video</mediatype>
							<trackindex>3</trackindex>
							<clipindex>165</clipindex>
						</link>
						<link>
							<linkclipref>clipitem-672</linkclipref>
							<mediatype>audio</mediatype>
							<trackindex>10</trackindex>
							<clipindex>75</clipindex>
							<groupindex>1</groupindex>
						</link>
						<link>
							<linkclipref>clipitem-712</linkclipref>
							<mediatype>audio</mediatype>
							<trackindex>11</trackindex>
							<clipindex>75</clipindex>
							<groupindex>1</groupindex>
						</link>
					</clipitem>
					<transitionitem>
						<start>43205</start>
						<end>43230</end>
						<alignment>start-black</alignment>
						<cutPoint>0</cutPoint>
						<rate>
							<timebase>25</timebase>
							<ntsc>FALSE</ntsc>
						</rate>
						<effect>
							<name>Cross Fade (+3dB)</name>
							<effectid>KGAudioTransCrossFade3dB</effectid>
							<effecttype>transition</effecttype>
							<mediatype>audio</mediatype>
							<wipecode>0</wipecode>
							<wipeaccuracy>100</wipeaccuracy>
							<startratio>0</startratio>
							<endratio>1</endratio>
							<reverse>FALSE</reverse>
						</effect>
					</transitionitem>
					<clipitem id="clipitem-713" frameBlend="FALSE" PannerCurrentValue="0.5" PannerKeyframes="" PannerStartKeyframe="-91445760000000000,0.5,0,0,0,0,0,0" PannerIsInverted="true" PannerName="Balance">
						<masterclipid>masterclip-208</masterclipid>
						<name>Film Bonanza 2013 Rulletext Hammond.wav</name>
						<enabled>TRUE</enabled>
						<duration>1111</duration>
						<rate>
							<ntsc>TRUE</ntsc>
							<timebase>30</timebase>
						</rate>
						<start>-1</start>
						<end>-1</end>
						<in>605</in>
						<out>927</out>
						<file id="file-207"/>
						<sourcetrack>
							<mediatype>audio</mediatype>
							<trackindex>2</trackindex>
						</sourcetrack>
							<filter>
								<effect>
									<name>Gain</name>
									<effectid>{61756678, 4761696e, 4b657947}</effectid>
									<effecttype>filter</effecttype>
									<mediatype>audio</mediatype>
									<parameter authoringApp="PremierePro">
										<parameterid>Gain(dB)</parameterid>
										<name>Gain(dB)</name>
										<valuemin>-96</valuemin>
										<valuemax>96</valuemax>
										<value>-9</value>
									</parameter>
								</effect>
							</filter>
							<filter>
								<effect>
									<name>Audio Pan</name>
									<effectid>audiopan</effectid>
									<effectcategory>audiopan</effectcategory>
									<effecttype>audiopan</effecttype>
									<mediatype>audio</mediatype>
									<parameter authoringApp="PremierePro">
										<parameterid>pan</parameterid>
										<name>Pan</name>
										<valuemin>-1</valuemin>
										<valuemax>1</valuemax>
										<value>0</value>
									</parameter>
								</effect>
							</filter>
						<link>
							<linkclipref>clipitem-673</linkclipref>
							<mediatype>audio</mediatype>
							<trackindex>10</trackindex>
							<clipindex>77</clipindex>
							<groupindex>1</groupindex>
						</link>
						<link>
							<linkclipref>clipitem-713</linkclipref>
							<mediatype>audio</mediatype>
							<trackindex>11</trackindex>
							<clipindex>77</clipindex>
							<groupindex>1</groupindex>
						</link>
					</clipitem>
					<transitionitem>
						<start>43502</start>
						<end>43527</end>
						<alignment>end-black</alignment>
						<cutPoint>25</cutPoint>
						<rate>
							<timebase>25</timebase>
							<ntsc>FALSE</ntsc>
						</rate>
						<effect>
							<name>Cross Fade (+3dB)</name>
							<effectid>KGAudioTransCrossFade3dB</effectid>
							<effecttype>transition</effecttype>
							<mediatype>audio</mediatype>
							<wipecode>0</wipecode>
							<wipeaccuracy>100</wipeaccuracy>
							<startratio>0</startratio>
							<endratio>1</endratio>
							<reverse>FALSE</reverse>
						</effect>
					</transitionitem>
					<enabled>TRUE</enabled>
					<locked>FALSE</locked>
					<outputchannelindex>2</outputchannelindex>
				</track>
				<track TL.SQTrackAudioKeyframeStyle="0" TL.SQTrackShy="0" TL.SQTrackExpandedHeight="55" TL.SQTrackExpanded="1" MZ.TrackTargeted="1" PannerCurrentValue="0.5" PannerIsInverted="true" PannerStartKeyframe="-91445760000000000,0.5,0,0,0,0,0,0" PannerName="Balance" currentExplodedTrackIndex="0" totalExplodedTrackCount="2" premiereTrackType="Stereo">
					<clipitem id="clipitem-714" frameBlend="FALSE" PannerCurrentValue="0.5" PannerKeyframes="" PannerStartKeyframe="-91445760000000000,0.5,0,0,0,0,0,0" PannerIsInverted="true" PannerName="Balance">
						<masterclipid>masterclip-37</masterclipid>
						<name>El Topo.mov</name>
						<enabled>TRUE</enabled>
						<duration>3224</duration>
						<rate>
							<ntsc>TRUE</ntsc>
							<timebase>30</timebase>
						</rate>
						<start>410</start>
						<end>-1</end>
						<in>2891</in>
						<out>3023</out>
						<file id="file-37"/>
						<sourcetrack>
							<mediatype>audio</mediatype>
							<trackindex>1</trackindex>
						</sourcetrack>
							<filter>
								<effect>
									<name>Gain</name>
									<effectid>{61756678, 4761696e, 4b657947}</effectid>
									<effecttype>filter</effecttype>
									<mediatype>audio</mediatype>
									<parameter authoringApp="PremierePro">
										<parameterid>Gain(dB)</parameterid>
										<name>Gain(dB)</name>
										<valuemin>-96</valuemin>
										<valuemax>96</valuemax>
										<value>12</value>
									</parameter>
								</effect>
							</filter>
							<filter>
								<effect>
									<name>Audio Levels</name>
									<effectid>audiolevels</effectid>
									<effectcategory>audiolevels</effectcategory>
									<effecttype>audiolevels</effecttype>
									<mediatype>audio</mediatype>
									<parameter authoringApp="PremierePro">
										<parameterid>level</parameterid>
										<name>Level</name>
										<valuemin>0</valuemin>
										<valuemax>3.98109</valuemax>
										<value>0.79033</value>
										<keyframe>
											<when>2431</when>
											<value>0</value>
										</keyframe>
										<keyframe>
											<when>2747</when>
											<value>0.493081</value>
										</keyframe>
										<keyframe>
											<when>2752</when>
											<value>0.99763</value>
										</keyframe>
										<keyframe>
											<when>2891</when>
											<value>0</value>
										</keyframe>
										<keyframe>
											<when>2928</when>
											<value>0.0520142</value>
										</keyframe>
										<keyframe>
											<when>2932</when>
											<value>0.159088</value>
										</keyframe>
										<keyframe>
											<when>2967</when>
											<value>0.218897</value>
										</keyframe>
										<keyframe>
											<when>2990</when>
											<value>0.79033</value>
										</keyframe>
									</parameter>
								</effect>
							</filter>
							<filter>
								<effect>
									<name>Audio Pan</name>
									<effectid>audiopan</effectid>
									<effectcategory>audiopan</effectcategory>
									<effecttype>audiopan</effecttype>
									<mediatype>audio</mediatype>
									<parameter authoringApp="PremierePro">
										<parameterid>pan</parameterid>
										<name>Pan</name>
										<valuemin>-1</valuemin>
										<valuemax>1</valuemax>
										<value>0</value>
									</parameter>
								</effect>
							</filter>
						<link>
							<linkclipref>clipitem-714</linkclipref>
							<mediatype>audio</mediatype>
							<trackindex>12</trackindex>
							<clipindex>1</clipindex>
							<groupindex>1</groupindex>
						</link>
						<link>
							<linkclipref>clipitem-724</linkclipref>
							<mediatype>audio</mediatype>
							<trackindex>13</trackindex>
							<clipindex>1</clipindex>
							<groupindex>1</groupindex>
						</link>
					</clipitem>
					<transitionitem>
						<start>534</start>
						<end>542</end>
						<alignment>end-black</alignment>
						<cutPoint>8</cutPoint>
						<rate>
							<timebase>25</timebase>
							<ntsc>FALSE</ntsc>
						</rate>
						<effect>
							<name>Cross Fade (+3dB)</name>
							<effectid>KGAudioTransCrossFade3dB</effectid>
							<effecttype>transition</effecttype>
							<mediatype>audio</mediatype>
							<wipecode>0</wipecode>
							<wipeaccuracy>100</wipeaccuracy>
							<startratio>0</startratio>
							<endratio>1</endratio>
							<reverse>FALSE</reverse>
						</effect>
					</transitionitem>
					<transitionitem>
						<start>5770</start>
						<end>5783</end>
						<alignment>start-black</alignment>
						<cutPoint>0</cutPoint>
						<rate>
							<timebase>25</timebase>
							<ntsc>FALSE</ntsc>
						</rate>
						<effect>
							<name>Cross Fade (+3dB)</name>
							<effectid>KGAudioTransCrossFade3dB</effectid>
							<effecttype>transition</effecttype>
							<mediatype>audio</mediatype>
							<wipecode>0</wipecode>
							<wipeaccuracy>100</wipeaccuracy>
							<startratio>0</startratio>
							<endratio>1</endratio>
							<reverse>FALSE</reverse>
						</effect>
					</transitionitem>
					<clipitem id="clipitem-715" frameBlend="FALSE" PannerCurrentValue="0.5" PannerKeyframes="" PannerStartKeyframe="-91445760000000000,0.5,0,0,0,0,0,0" PannerIsInverted="true" PannerName="Balance">
						<masterclipid>masterclip-36</masterclipid>
						<name>filmb-apocalypsenow_1.mxf</name>
						<enabled>TRUE</enabled>
						<duration>9706</duration>
						<rate>
							<ntsc>TRUE</ntsc>
							<timebase>30</timebase>
						</rate>
						<start>-1</start>
						<end>-1</end>
						<in>1632</in>
						<out>2213</out>
						<file id="file-36"/>
						<sourcetrack>
							<mediatype>audio</mediatype>
							<trackindex>1</trackindex>
						</sourcetrack>
							<filter>
								<effect>
									<name>Gain</name>
									<effectid>{61756678, 4761696e, 4b657947}</effectid>
									<effecttype>filter</effecttype>
									<mediatype>audio</mediatype>
									<parameter authoringApp="PremierePro">
										<parameterid>Gain(dB)</parameterid>
										<name>Gain(dB)</name>
										<valuemin>-96</valuemin>
										<valuemax>96</valuemax>
										<value>2</value>
									</parameter>
								</effect>
							</filter>
							<filter>
								<effect>
									<name>Audio Pan</name>
									<effectid>audiopan</effectid>
									<effectcategory>audiopan</effectcategory>
									<effecttype>audiopan</effecttype>
									<mediatype>audio</mediatype>
									<parameter authoringApp="PremierePro">
										<parameterid>pan</parameterid>
										<name>Pan</name>
										<valuemin>-1</valuemin>
										<valuemax>1</valuemax>
										<value>0</value>
									</parameter>
								</effect>
							</filter>
						<link>
							<linkclipref>clipitem-715</linkclipref>
							<mediatype>audio</mediatype>
							<trackindex>12</trackindex>
							<clipindex>4</clipindex>
							<groupindex>1</groupindex>
						</link>
						<link>
							<linkclipref>clipitem-725</linkclipref>
							<mediatype>audio</mediatype>
							<trackindex>13</trackindex>
							<clipindex>4</clipindex>
							<groupindex>1</groupindex>
						</link>
					</clipitem>
					<transitionitem>
						<start>6338</start>
						<end>6351</end>
						<alignment>end-black</alignment>
						<cutPoint>13</cutPoint>
						<rate>
							<timebase>25</timebase>
							<ntsc>FALSE</ntsc>
						</rate>
						<effect>
							<name>Cross Fade (+3dB)</name>
							<effectid>KGAudioTransCrossFade3dB</effectid>
							<effecttype>transition</effecttype>
							<mediatype>audio</mediatype>
							<wipecode>0</wipecode>
							<wipeaccuracy>100</wipeaccuracy>
							<startratio>0</startratio>
							<endratio>1</endratio>
							<reverse>FALSE</reverse>
						</effect>
					</transitionitem>
					<transitionitem>
						<start>6727</start>
						<end>6752</end>
						<alignment>start-black</alignment>
						<cutPoint>0</cutPoint>
						<rate>
							<timebase>25</timebase>
							<ntsc>FALSE</ntsc>
						</rate>
						<effect>
							<name>Cross Fade (+3dB)</name>
							<effectid>KGAudioTransCrossFade3dB</effectid>
							<effecttype>transition</effecttype>
							<mediatype>audio</mediatype>
							<wipecode>0</wipecode>
							<wipeaccuracy>100</wipeaccuracy>
							<startratio>0</startratio>
							<endratio>1</endratio>
							<reverse>FALSE</reverse>
						</effect>
					</transitionitem>
					<clipitem id="clipitem-716" frameBlend="FALSE" PannerCurrentValue="0.5" PannerKeyframes="" PannerStartKeyframe="-91445760000000000,0.5,0,0,0,0,0,0" PannerIsInverted="true" PannerName="Balance">
						<masterclipid>masterclip-47</masterclipid>
						<name>Hearts of darkness2</name>
						<enabled>TRUE</enabled>
						<duration>4970</duration>
						<rate>
							<ntsc>TRUE</ntsc>
							<timebase>30</timebase>
						</rate>
						<start>-1</start>
						<end>-1</end>
						<in>88</in>
						<out>249</out>
						<file id="file-47"/>
						<sourcetrack>
							<mediatype>audio</mediatype>
							<trackindex>1</trackindex>
						</sourcetrack>
							<filter>
								<effect>
									<name>Audio Levels</name>
									<effectid>audiolevels</effectid>
									<effectcategory>audiolevels</effectcategory>
									<effecttype>audiolevels</effecttype>
									<mediatype>audio</mediatype>
									<parameter authoringApp="PremierePro">
										<parameterid>level</parameterid>
										<name>Level</name>
										<valuemin>0</valuemin>
										<valuemax>3.98109</valuemax>
										<value>0.639506</value>
									</parameter>
								</effect>
							</filter>
							<filter>
								<effect>
									<name>Audio Pan</name>
									<effectid>audiopan</effectid>
									<effectcategory>audiopan</effectcategory>
									<effecttype>audiopan</effecttype>
									<mediatype>audio</mediatype>
									<parameter authoringApp="PremierePro">
										<parameterid>pan</parameterid>
										<name>Pan</name>
										<valuemin>-1</valuemin>
										<valuemax>1</valuemax>
										<value>0</value>
									</parameter>
								</effect>
							</filter>
						<link>
							<linkclipref>clipitem-716</linkclipref>
							<mediatype>audio</mediatype>
							<trackindex>12</trackindex>
							<clipindex>7</clipindex>
							<groupindex>1</groupindex>
						</link>
						<link>
							<linkclipref>clipitem-726</linkclipref>
							<mediatype>audio</mediatype>
							<trackindex>13</trackindex>
							<clipindex>7</clipindex>
							<groupindex>1</groupindex>
						</link>
					</clipitem>
					<transitionitem>
						<start>6863</start>
						<end>6888</end>
						<alignment>end-black</alignment>
						<cutPoint>25</cutPoint>
						<rate>
							<timebase>25</timebase>
							<ntsc>FALSE</ntsc>
						</rate>
						<effect>
							<name>Cross Fade (+3dB)</name>
							<effectid>KGAudioTransCrossFade3dB</effectid>
							<effecttype>transition</effecttype>
							<mediatype>audio</mediatype>
							<wipecode>0</wipecode>
							<wipeaccuracy>100</wipeaccuracy>
							<startratio>0</startratio>
							<endratio>1</endratio>
							<reverse>FALSE</reverse>
						</effect>
					</transitionitem>
					<transitionitem>
						<start>7617</start>
						<end>7630</end>
						<alignment>start-black</alignment>
						<cutPoint>0</cutPoint>
						<rate>
							<timebase>25</timebase>
							<ntsc>FALSE</ntsc>
						</rate>
						<effect>
							<name>Cross Fade (+3dB)</name>
							<effectid>KGAudioTransCrossFade3dB</effectid>
							<effecttype>transition</effecttype>
							<mediatype>audio</mediatype>
							<wipecode>0</wipecode>
							<wipeaccuracy>100</wipeaccuracy>
							<startratio>0</startratio>
							<endratio>1</endratio>
							<reverse>FALSE</reverse>
						</effect>
					</transitionitem>
					<clipitem id="clipitem-717" frameBlend="FALSE" PannerCurrentValue="0.5" PannerKeyframes="" PannerStartKeyframe="-91445760000000000,0.5,0,0,0,0,0,0" PannerIsInverted="true" PannerName="Balance">
						<masterclipid>masterclip-50</masterclipid>
						<name>heavens_gate</name>
						<enabled>TRUE</enabled>
						<duration>10420</duration>
						<rate>
							<ntsc>TRUE</ntsc>
							<timebase>30</timebase>
						</rate>
						<start>-1</start>
						<end>-1</end>
						<in>8866</in>
						<out>9357</out>
						<file id="file-50"/>
						<sourcetrack>
							<mediatype>audio</mediatype>
							<trackindex>1</trackindex>
						</sourcetrack>
							<filter>
								<effect>
									<name>Gain</name>
									<effectid>{61756678, 4761696e, 4b657947}</effectid>
									<effecttype>filter</effecttype>
									<mediatype>audio</mediatype>
									<parameter authoringApp="PremierePro">
										<parameterid>Gain(dB)</parameterid>
										<name>Gain(dB)</name>
										<valuemin>-96</valuemin>
										<valuemax>96</valuemax>
										<value>-2</value>
									</parameter>
								</effect>
							</filter>
							<filter>
								<effect>
									<name>Audio Levels</name>
									<effectid>audiolevels</effectid>
									<effectcategory>audiolevels</effectcategory>
									<effecttype>audiolevels</effecttype>
									<mediatype>audio</mediatype>
									<parameter authoringApp="PremierePro">
										<parameterid>level</parameterid>
										<name>Level</name>
										<valuemin>0</valuemin>
										<valuemax>3.98109</valuemax>
										<value>0.231733</value>
										<keyframe>
											<when>8885</when>
											<value>0.498815</value>
										</keyframe>
										<keyframe>
											<when>8887</when>
											<value>0.231733</value>
										</keyframe>
									</parameter>
								</effect>
							</filter>
							<filter>
								<effect>
									<name>Audio Pan</name>
									<effectid>audiopan</effectid>
									<effectcategory>audiopan</effectcategory>
									<effecttype>audiopan</effecttype>
									<mediatype>audio</mediatype>
									<parameter authoringApp="PremierePro">
										<parameterid>pan</parameterid>
										<name>Pan</name>
										<valuemin>-1</valuemin>
										<valuemax>1</valuemax>
										<value>0</value>
									</parameter>
								</effect>
							</filter>
						<link>
							<linkclipref>clipitem-717</linkclipref>
							<mediatype>audio</mediatype>
							<trackindex>12</trackindex>
							<clipindex>10</clipindex>
							<groupindex>1</groupindex>
						</link>
						<link>
							<linkclipref>clipitem-727</linkclipref>
							<mediatype>audio</mediatype>
							<trackindex>13</trackindex>
							<clipindex>10</clipindex>
							<groupindex>1</groupindex>
						</link>
					</clipitem>
					<transitionitem>
						<start>8099</start>
						<end>8108</end>
						<alignment>center</alignment>
						<cutPoint>4</cutPoint>
						<rate>
							<timebase>25</timebase>
							<ntsc>FALSE</ntsc>
						</rate>
						<effect>
							<name>Cross Fade (+3dB)</name>
							<effectid>KGAudioTransCrossFade3dB</effectid>
							<effecttype>transition</effecttype>
							<mediatype>audio</mediatype>
							<wipecode>0</wipecode>
							<wipeaccuracy>100</wipeaccuracy>
							<startratio>0</startratio>
							<endratio>1</endratio>
							<reverse>FALSE</reverse>
						</effect>
					</transitionitem>
					<clipitem id="clipitem-718" frameBlend="FALSE" PannerCurrentValue="0.5" PannerKeyframes="" PannerStartKeyframe="-91445760000000000,0.5,0,0,0,0,0,0" PannerIsInverted="true" PannerName="Balance">
						<masterclipid>masterclip-50</masterclipid>
						<name>heavens_gate</name>
						<enabled>TRUE</enabled>
						<duration>10420</duration>
						<rate>
							<ntsc>TRUE</ntsc>
							<timebase>30</timebase>
						</rate>
						<start>-1</start>
						<end>8134</end>
						<in>9348</in>
						<out>9383</out>
						<file id="file-50"/>
						<sourcetrack>
							<mediatype>audio</mediatype>
							<trackindex>1</trackindex>
						</sourcetrack>
							<filter>
								<effect>
									<name>Audio Levels</name>
									<effectid>audiolevels</effectid>
									<effectcategory>audiolevels</effectcategory>
									<effecttype>audiolevels</effecttype>
									<mediatype>audio</mediatype>
									<parameter authoringApp="PremierePro">
										<parameterid>level</parameterid>
										<name>Level</name>
										<valuemin>0</valuemin>
										<valuemax>3.98109</valuemax>
										<value>0</value>
									</parameter>
								</effect>
							</filter>
							<filter>
								<effect>
									<name>Audio Pan</name>
									<effectid>audiopan</effectid>
									<effectcategory>audiopan</effectcategory>
									<effecttype>audiopan</effecttype>
									<mediatype>audio</mediatype>
									<parameter authoringApp="PremierePro">
										<parameterid>pan</parameterid>
										<name>Pan</name>
										<valuemin>-1</valuemin>
										<valuemax>1</valuemax>
										<value>0</value>
									</parameter>
								</effect>
							</filter>
						<link>
							<linkclipref>clipitem-718</linkclipref>
							<mediatype>audio</mediatype>
							<trackindex>12</trackindex>
							<clipindex>12</clipindex>
							<groupindex>1</groupindex>
						</link>
						<link>
							<linkclipref>clipitem-728</linkclipref>
							<mediatype>audio</mediatype>
							<trackindex>13</trackindex>
							<clipindex>12</clipindex>
							<groupindex>1</groupindex>
						</link>
					</clipitem>
					<transitionitem>
						<start>9425</start>
						<end>9428</end>
						<alignment>start-black</alignment>
						<cutPoint>0</cutPoint>
						<rate>
							<timebase>25</timebase>
							<ntsc>FALSE</ntsc>
						</rate>
						<effect>
							<name>Cross Fade (+3dB)</name>
							<effectid>KGAudioTransCrossFade3dB</effectid>
							<effecttype>transition</effecttype>
							<mediatype>audio</mediatype>
							<wipecode>0</wipecode>
							<wipeaccuracy>100</wipeaccuracy>
							<startratio>0</startratio>
							<endratio>1</endratio>
							<reverse>FALSE</reverse>
						</effect>
					</transitionitem>
					<clipitem id="clipitem-719" frameBlend="FALSE" PannerCurrentValue="0.5" PannerKeyframes="" PannerStartKeyframe="-91445760000000000,0.5,0,0,0,0,0,0" PannerIsInverted="true" PannerName="Balance">
						<masterclipid>masterclip-4</masterclipid>
						<name>t2.mov</name>
						<enabled>TRUE</enabled>
						<duration>5950</duration>
						<rate>
							<ntsc>TRUE</ntsc>
							<timebase>30</timebase>
						</rate>
						<start>-1</start>
						<end>-1</end>
						<in>2359</in>
						<out>2574</out>
						<file id="file-4"/>
						<sourcetrack>
							<mediatype>audio</mediatype>
							<trackindex>1</trackindex>
						</sourcetrack>
							<filter>
								<effect>
									<name>Audio Levels</name>
									<effectid>audiolevels</effectid>
									<effectcategory>audiolevels</effectcategory>
									<effecttype>audiolevels</effecttype>
									<mediatype>audio</mediatype>
									<parameter authoringApp="PremierePro">
										<parameterid>level</parameterid>
										<name>Level</name>
										<valuemin>0</valuemin>
										<valuemax>3.98109</valuemax>
										<value>1.01209</value>
										<keyframe>
											<when>2406</when>
											<value>1.61156</value>
										</keyframe>
										<keyframe>
											<when>2417</when>
											<value>0.99763</value>
										</keyframe>
										<keyframe>
											<when>2464</when>
											<value>0.99763</value>
										</keyframe>
										<keyframe>
											<when>2465</when>
											<value>0.648317</value>
										</keyframe>
									</parameter>
								</effect>
							</filter>
							<filter>
								<effect>
									<name>Audio Pan</name>
									<effectid>audiopan</effectid>
									<effectcategory>audiopan</effectcategory>
									<effecttype>audiopan</effecttype>
									<mediatype>audio</mediatype>
									<parameter authoringApp="PremierePro">
										<parameterid>pan</parameterid>
										<name>Pan</name>
										<valuemin>-1</valuemin>
										<valuemax>1</valuemax>
										<value>0</value>
									</parameter>
								</effect>
							</filter>
						<link>
							<linkclipref>clipitem-6</linkclipref>
							<mediatype>video</mediatype>
							<trackindex>1</trackindex>
							<clipindex>6</clipindex>
						</link>
						<link>
							<linkclipref>clipitem-719</linkclipref>
							<mediatype>audio</mediatype>
							<trackindex>12</trackindex>
							<clipindex>14</clipindex>
							<groupindex>1</groupindex>
						</link>
						<link>
							<linkclipref>clipitem-729</linkclipref>
							<mediatype>audio</mediatype>
							<trackindex>13</trackindex>
							<clipindex>14</clipindex>
							<groupindex>1</groupindex>
						</link>
					</clipitem>
					<transitionitem>
						<start>9628</start>
						<end>9640</end>
						<alignment>end-black</alignment>
						<cutPoint>12</cutPoint>
						<rate>
							<timebase>25</timebase>
							<ntsc>FALSE</ntsc>
						</rate>
						<effect>
							<name>Cross Fade (+3dB)</name>
							<effectid>KGAudioTransCrossFade3dB</effectid>
							<effecttype>transition</effecttype>
							<mediatype>audio</mediatype>
							<wipecode>0</wipecode>
							<wipeaccuracy>100</wipeaccuracy>
							<startratio>0</startratio>
							<endratio>1</endratio>
							<reverse>FALSE</reverse>
						</effect>
					</transitionitem>
					<transitionitem>
						<start>10221</start>
						<end>10234</end>
						<alignment>start-black</alignment>
						<cutPoint>0</cutPoint>
						<rate>
							<timebase>25</timebase>
							<ntsc>FALSE</ntsc>
						</rate>
						<effect>
							<name>Cross Fade (+3dB)</name>
							<effectid>KGAudioTransCrossFade3dB</effectid>
							<effecttype>transition</effecttype>
							<mediatype>audio</mediatype>
							<wipecode>0</wipecode>
							<wipeaccuracy>100</wipeaccuracy>
							<startratio>0</startratio>
							<endratio>1</endratio>
							<reverse>FALSE</reverse>
						</effect>
					</transitionitem>
					<clipitem id="clipitem-720" frameBlend="FALSE" PannerCurrentValue="0.5" PannerKeyframes="" PannerStartKeyframe="-91445760000000000,0.5,0,0,0,0,0,0" PannerIsInverted="true" PannerName="Balance">
						<masterclipid>masterclip-62</masterclipid>
						<name>avatar</name>
						<enabled>TRUE</enabled>
						<duration>5131</duration>
						<rate>
							<ntsc>TRUE</ntsc>
							<timebase>30</timebase>
						</rate>
						<start>-1</start>
						<end>-1</end>
						<in>2900</in>
						<out>3286</out>
						<file id="file-62"/>
						<sourcetrack>
							<mediatype>audio</mediatype>
							<trackindex>1</trackindex>
						</sourcetrack>
							<filter>
								<effect>
									<name>Audio Pan</name>
									<effectid>audiopan</effectid>
									<effectcategory>audiopan</effectcategory>
									<effecttype>audiopan</effecttype>
									<mediatype>audio</mediatype>
									<parameter authoringApp="PremierePro">
										<parameterid>pan</parameterid>
										<name>Pan</name>
										<valuemin>-1</valuemin>
										<valuemax>1</valuemax>
										<value>0</value>
									</parameter>
								</effect>
							</filter>
						<link>
							<linkclipref>clipitem-720</linkclipref>
							<mediatype>audio</mediatype>
							<trackindex>12</trackindex>
							<clipindex>17</clipindex>
							<groupindex>1</groupindex>
						</link>
						<link>
							<linkclipref>clipitem-730</linkclipref>
							<mediatype>audio</mediatype>
							<trackindex>13</trackindex>
							<clipindex>17</clipindex>
							<groupindex>1</groupindex>
						</link>
					</clipitem>
					<transitionitem>
						<start>10582</start>
						<end>10607</end>
						<alignment>end-black</alignment>
						<cutPoint>25</cutPoint>
						<rate>
							<timebase>25</timebase>
							<ntsc>FALSE</ntsc>
						</rate>
						<effect>
							<name>Cross Fade (+3dB)</name>
							<effectid>KGAudioTransCrossFade3dB</effectid>
							<effecttype>transition</effecttype>
							<mediatype>audio</mediatype>
							<wipecode>0</wipecode>
							<wipeaccuracy>100</wipeaccuracy>
							<startratio>0</startratio>
							<endratio>1</endratio>
							<reverse>FALSE</reverse>
						</effect>
					</transitionitem>
					<transitionitem>
						<start>11426</start>
						<end>11436</end>
						<alignment>start-black</alignment>
						<cutPoint>0</cutPoint>
						<rate>
							<timebase>25</timebase>
							<ntsc>FALSE</ntsc>
						</rate>
						<effect>
							<name>Cross Fade (+3dB)</name>
							<effectid>KGAudioTransCrossFade3dB</effectid>
							<effecttype>transition</effecttype>
							<mediatype>audio</mediatype>
							<wipecode>0</wipecode>
							<wipeaccuracy>100</wipeaccuracy>
							<startratio>0</startratio>
							<endratio>1</endratio>
							<reverse>FALSE</reverse>
						</effect>
					</transitionitem>
					<clipitem id="clipitem-721" frameBlend="FALSE" PannerCurrentValue="0.5" PannerKeyframes="" PannerStartKeyframe="-91445760000000000,0.5,0,0,0,0,0,0" PannerIsInverted="true" PannerName="Balance">
						<masterclipid>masterclip-67</masterclipid>
						<name>FILM_Break_kingkong3.mov</name>
						<enabled>TRUE</enabled>
						<duration>274</duration>
						<rate>
							<ntsc>TRUE</ntsc>
							<timebase>30</timebase>
						</rate>
						<start>-1</start>
						<end>11700</end>
						<in>0</in>
						<out>274</out>
						<file id="file-67"/>
						<sourcetrack>
							<mediatype>audio</mediatype>
							<trackindex>1</trackindex>
						</sourcetrack>
							<filter>
								<effect>
									<name>Audio Pan</name>
									<effectid>audiopan</effectid>
									<effectcategory>audiopan</effectcategory>
									<effecttype>audiopan</effecttype>
									<mediatype>audio</mediatype>
									<parameter authoringApp="PremierePro">
										<parameterid>pan</parameterid>
										<name>Pan</name>
										<valuemin>-1</valuemin>
										<valuemax>1</valuemax>
										<value>0</value>
									</parameter>
								</effect>
							</filter>
						<link>
							<linkclipref>clipitem-238</linkclipref>
							<mediatype>video</mediatype>
							<trackindex>3</trackindex>
							<clipindex>111</clipindex>
						</link>
						<link>
							<linkclipref>clipitem-721</linkclipref>
							<mediatype>audio</mediatype>
							<trackindex>12</trackindex>
							<clipindex>20</clipindex>
							<groupindex>1</groupindex>
						</link>
						<link>
							<linkclipref>clipitem-731</linkclipref>
							<mediatype>audio</mediatype>
							<trackindex>13</trackindex>
							<clipindex>20</clipindex>
							<groupindex>1</groupindex>
						</link>
					</clipitem>
					<clipitem id="clipitem-722" frameBlend="FALSE" PannerCurrentValue="0.5" PannerKeyframes="" PannerStartKeyframe="-91445760000000000,0.5,0,0,0,0,0,0" PannerIsInverted="true" PannerName="Balance">
						<masterclipid>masterclip-70</masterclipid>
						<name>The Holy Mountain.mov</name>
						<enabled>TRUE</enabled>
						<duration>5112</duration>
						<rate>
							<ntsc>TRUE</ntsc>
							<timebase>30</timebase>
						</rate>
						<start>12947</start>
						<end>13345</end>
						<in>872</in>
						<out>1270</out>
						<file id="file-70"/>
						<sourcetrack>
							<mediatype>audio</mediatype>
							<trackindex>1</trackindex>
						</sourcetrack>
							<filter>
								<effect>
									<name>Gain</name>
									<effectid>{61756678, 4761696e, 4b657947}</effectid>
									<effecttype>filter</effecttype>
									<mediatype>audio</mediatype>
									<parameter authoringApp="PremierePro">
										<parameterid>Gain(dB)</parameterid>
										<name>Gain(dB)</name>
										<valuemin>-96</valuemin>
										<valuemax>96</valuemax>
										<value>18</value>
									</parameter>
								</effect>
							</filter>
							<filter>
								<effect>
									<name>Audio Levels</name>
									<effectid>audiolevels</effectid>
									<effectcategory>audiolevels</effectcategory>
									<effecttype>audiolevels</effecttype>
									<mediatype>audio</mediatype>
									<parameter authoringApp="PremierePro">
										<parameterid>level</parameterid>
										<name>Level</name>
										<valuemin>0</valuemin>
										<valuemax>3.98109</valuemax>
										<value>0</value>
										<keyframe>
											<when>876</when>
											<value>0</value>
										</keyframe>
										<keyframe>
											<when>895</when>
											<value>0.212095</value>
										</keyframe>
										<keyframe>
											<when>904</when>
											<value>0.212094</value>
										</keyframe>
										<keyframe>
											<when>933</when>
											<value>0.283569</value>
										</keyframe>
										<keyframe>
											<when>969</when>
											<value>0.905894</value>
										</keyframe>
										<keyframe>
											<when>1200</when>
											<value>0.875471</value>
										</keyframe>
										<keyframe>
											<when>1205</when>
											<value>0.302734</value>
										</keyframe>
										<keyframe>
											<when>1242</when>
											<value>0.0221322</value>
										</keyframe>
									</parameter>
								</effect>
							</filter>
							<filter>
								<effect>
									<name>Audio Pan</name>
									<effectid>audiopan</effectid>
									<effectcategory>audiopan</effectcategory>
									<effecttype>audiopan</effecttype>
									<mediatype>audio</mediatype>
									<parameter authoringApp="PremierePro">
										<parameterid>pan</parameterid>
										<name>Pan</name>
										<valuemin>-1</valuemin>
										<valuemax>1</valuemax>
										<value>0</value>
									</parameter>
								</effect>
							</filter>
						<link>
							<linkclipref>clipitem-244</linkclipref>
							<mediatype>video</mediatype>
							<trackindex>3</trackindex>
							<clipindex>118</clipindex>
						</link>
						<link>
							<linkclipref>clipitem-722</linkclipref>
							<mediatype>audio</mediatype>
							<trackindex>12</trackindex>
							<clipindex>21</clipindex>
							<groupindex>1</groupindex>
						</link>
						<link>
							<linkclipref>clipitem-732</linkclipref>
							<mediatype>audio</mediatype>
							<trackindex>13</trackindex>
							<clipindex>21</clipindex>
							<groupindex>1</groupindex>
						</link>
					</clipitem>
					<clipitem id="clipitem-723" frameBlend="FALSE" PannerCurrentValue="0.5" PannerKeyframes="" PannerStartKeyframe="-91445760000000000,0.5,0,0,0,0,0,0" PannerIsInverted="true" PannerName="Balance">
						<masterclipid>masterclip-79</masterclipid>
						<name>FILM_Break_ufo.mov</name>
						<enabled>TRUE</enabled>
						<duration>201</duration>
						<rate>
							<ntsc>TRUE</ntsc>
							<timebase>30</timebase>
						</rate>
						<start>24552</start>
						<end>24753</end>
						<in>0</in>
						<out>201</out>
						<file id="file-79"/>
						<sourcetrack>
							<mediatype>audio</mediatype>
							<trackindex>1</trackindex>
						</sourcetrack>
							<filter>
								<effect>
									<name>Audio Pan</name>
									<effectid>audiopan</effectid>
									<effectcategory>audiopan</effectcategory>
									<effecttype>audiopan</effecttype>
									<mediatype>audio</mediatype>
									<parameter authoringApp="PremierePro">
										<parameterid>pan</parameterid>
										<name>Pan</name>
										<valuemin>-1</valuemin>
										<valuemax>1</valuemax>
										<value>0</value>
									</parameter>
								</effect>
							</filter>
						<link>
							<linkclipref>clipitem-259</linkclipref>
							<mediatype>video</mediatype>
							<trackindex>3</trackindex>
							<clipindex>137</clipindex>
						</link>
						<link>
							<linkclipref>clipitem-723</linkclipref>
							<mediatype>audio</mediatype>
							<trackindex>12</trackindex>
							<clipindex>22</clipindex>
							<groupindex>1</groupindex>
						</link>
						<link>
							<linkclipref>clipitem-733</linkclipref>
							<mediatype>audio</mediatype>
							<trackindex>13</trackindex>
							<clipindex>22</clipindex>
							<groupindex>1</groupindex>
						</link>
					</clipitem>
					<enabled>TRUE</enabled>
					<locked>FALSE</locked>
					<outputchannelindex>1</outputchannelindex>
				</track>
				<track TL.SQTrackAudioKeyframeStyle="0" TL.SQTrackShy="0" TL.SQTrackExpandedHeight="55" TL.SQTrackExpanded="1" MZ.TrackTargeted="1" PannerCurrentValue="0.5" PannerIsInverted="true" PannerStartKeyframe="-91445760000000000,0.5,0,0,0,0,0,0" PannerName="Balance" currentExplodedTrackIndex="1" totalExplodedTrackCount="2" premiereTrackType="Stereo">
					<clipitem id="clipitem-724" frameBlend="FALSE" PannerCurrentValue="0.5" PannerKeyframes="" PannerStartKeyframe="-91445760000000000,0.5,0,0,0,0,0,0" PannerIsInverted="true" PannerName="Balance">
						<masterclipid>masterclip-37</masterclipid>
						<name>El Topo.mov</name>
						<enabled>TRUE</enabled>
						<duration>3224</duration>
						<rate>
							<ntsc>TRUE</ntsc>
							<timebase>30</timebase>
						</rate>
						<start>410</start>
						<end>-1</end>
						<in>2891</in>
						<out>3023</out>
						<file id="file-37"/>
						<sourcetrack>
							<mediatype>audio</mediatype>
							<trackindex>2</trackindex>
						</sourcetrack>
							<filter>
								<effect>
									<name>Gain</name>
									<effectid>{61756678, 4761696e, 4b657947}</effectid>
									<effecttype>filter</effecttype>
									<mediatype>audio</mediatype>
									<parameter authoringApp="PremierePro">
										<parameterid>Gain(dB)</parameterid>
										<name>Gain(dB)</name>
										<valuemin>-96</valuemin>
										<valuemax>96</valuemax>
										<value>12</value>
									</parameter>
								</effect>
							</filter>
							<filter>
								<effect>
									<name>Audio Levels</name>
									<effectid>audiolevels</effectid>
									<effectcategory>audiolevels</effectcategory>
									<effecttype>audiolevels</effecttype>
									<mediatype>audio</mediatype>
									<parameter authoringApp="PremierePro">
										<parameterid>level</parameterid>
										<name>Level</name>
										<valuemin>0</valuemin>
										<valuemax>3.98109</valuemax>
										<value>0.79033</value>
										<keyframe>
											<when>2431</when>
											<value>0</value>
										</keyframe>
										<keyframe>
											<when>2747</when>
											<value>0.493081</value>
										</keyframe>
										<keyframe>
											<when>2752</when>
											<value>0.99763</value>
										</keyframe>
										<keyframe>
											<when>2891</when>
											<value>0</value>
										</keyframe>
										<keyframe>
											<when>2928</when>
											<value>0.0520142</value>
										</keyframe>
										<keyframe>
											<when>2932</when>
											<value>0.159088</value>
										</keyframe>
										<keyframe>
											<when>2967</when>
											<value>0.218897</value>
										</keyframe>
										<keyframe>
											<when>2990</when>
											<value>0.79033</value>
										</keyframe>
									</parameter>
								</effect>
							</filter>
							<filter>
								<effect>
									<name>Audio Pan</name>
									<effectid>audiopan</effectid>
									<effectcategory>audiopan</effectcategory>
									<effecttype>audiopan</effecttype>
									<mediatype>audio</mediatype>
									<parameter authoringApp="PremierePro">
										<parameterid>pan</parameterid>
										<name>Pan</name>
										<valuemin>-1</valuemin>
										<valuemax>1</valuemax>
										<value>0</value>
									</parameter>
								</effect>
							</filter>
						<link>
							<linkclipref>clipitem-714</linkclipref>
							<mediatype>audio</mediatype>
							<trackindex>12</trackindex>
							<clipindex>1</clipindex>
							<groupindex>1</groupindex>
						</link>
						<link>
							<linkclipref>clipitem-724</linkclipref>
							<mediatype>audio</mediatype>
							<trackindex>13</trackindex>
							<clipindex>1</clipindex>
							<groupindex>1</groupindex>
						</link>
					</clipitem>
					<transitionitem>
						<start>534</start>
						<end>542</end>
						<alignment>end-black</alignment>
						<cutPoint>8</cutPoint>
						<rate>
							<timebase>25</timebase>
							<ntsc>FALSE</ntsc>
						</rate>
						<effect>
							<name>Cross Fade (+3dB)</name>
							<effectid>KGAudioTransCrossFade3dB</effectid>
							<effecttype>transition</effecttype>
							<mediatype>audio</mediatype>
							<wipecode>0</wipecode>
							<wipeaccuracy>100</wipeaccuracy>
							<startratio>0</startratio>
							<endratio>1</endratio>
							<reverse>FALSE</reverse>
						</effect>
					</transitionitem>
					<transitionitem>
						<start>5770</start>
						<end>5783</end>
						<alignment>start-black</alignment>
						<cutPoint>0</cutPoint>
						<rate>
							<timebase>25</timebase>
							<ntsc>FALSE</ntsc>
						</rate>
						<effect>
							<name>Cross Fade (+3dB)</name>
							<effectid>KGAudioTransCrossFade3dB</effectid>
							<effecttype>transition</effecttype>
							<mediatype>audio</mediatype>
							<wipecode>0</wipecode>
							<wipeaccuracy>100</wipeaccuracy>
							<startratio>0</startratio>
							<endratio>1</endratio>
							<reverse>FALSE</reverse>
						</effect>
					</transitionitem>
					<clipitem id="clipitem-725" frameBlend="FALSE" PannerCurrentValue="0.5" PannerKeyframes="" PannerStartKeyframe="-91445760000000000,0.5,0,0,0,0,0,0" PannerIsInverted="true" PannerName="Balance">
						<masterclipid>masterclip-36</masterclipid>
						<name>filmb-apocalypsenow_1.mxf</name>
						<enabled>TRUE</enabled>
						<duration>9706</duration>
						<rate>
							<ntsc>TRUE</ntsc>
							<timebase>30</timebase>
						</rate>
						<start>-1</start>
						<end>-1</end>
						<in>1632</in>
						<out>2213</out>
						<file id="file-36"/>
						<sourcetrack>
							<mediatype>audio</mediatype>
							<trackindex>2</trackindex>
						</sourcetrack>
							<filter>
								<effect>
									<name>Gain</name>
									<effectid>{61756678, 4761696e, 4b657947}</effectid>
									<effecttype>filter</effecttype>
									<mediatype>audio</mediatype>
									<parameter authoringApp="PremierePro">
										<parameterid>Gain(dB)</parameterid>
										<name>Gain(dB)</name>
										<valuemin>-96</valuemin>
										<valuemax>96</valuemax>
										<value>2</value>
									</parameter>
								</effect>
							</filter>
							<filter>
								<effect>
									<name>Audio Pan</name>
									<effectid>audiopan</effectid>
									<effectcategory>audiopan</effectcategory>
									<effecttype>audiopan</effecttype>
									<mediatype>audio</mediatype>
									<parameter authoringApp="PremierePro">
										<parameterid>pan</parameterid>
										<name>Pan</name>
										<valuemin>-1</valuemin>
										<valuemax>1</valuemax>
										<value>0</value>
									</parameter>
								</effect>
							</filter>
						<link>
							<linkclipref>clipitem-715</linkclipref>
							<mediatype>audio</mediatype>
							<trackindex>12</trackindex>
							<clipindex>4</clipindex>
							<groupindex>1</groupindex>
						</link>
						<link>
							<linkclipref>clipitem-725</linkclipref>
							<mediatype>audio</mediatype>
							<trackindex>13</trackindex>
							<clipindex>4</clipindex>
							<groupindex>1</groupindex>
						</link>
					</clipitem>
					<transitionitem>
						<start>6338</start>
						<end>6351</end>
						<alignment>end-black</alignment>
						<cutPoint>13</cutPoint>
						<rate>
							<timebase>25</timebase>
							<ntsc>FALSE</ntsc>
						</rate>
						<effect>
							<name>Cross Fade (+3dB)</name>
							<effectid>KGAudioTransCrossFade3dB</effectid>
							<effecttype>transition</effecttype>
							<mediatype>audio</mediatype>
							<wipecode>0</wipecode>
							<wipeaccuracy>100</wipeaccuracy>
							<startratio>0</startratio>
							<endratio>1</endratio>
							<reverse>FALSE</reverse>
						</effect>
					</transitionitem>
					<transitionitem>
						<start>6727</start>
						<end>6752</end>
						<alignment>start-black</alignment>
						<cutPoint>0</cutPoint>
						<rate>
							<timebase>25</timebase>
							<ntsc>FALSE</ntsc>
						</rate>
						<effect>
							<name>Cross Fade (+3dB)</name>
							<effectid>KGAudioTransCrossFade3dB</effectid>
							<effecttype>transition</effecttype>
							<mediatype>audio</mediatype>
							<wipecode>0</wipecode>
							<wipeaccuracy>100</wipeaccuracy>
							<startratio>0</startratio>
							<endratio>1</endratio>
							<reverse>FALSE</reverse>
						</effect>
					</transitionitem>
					<clipitem id="clipitem-726" frameBlend="FALSE" PannerCurrentValue="0.5" PannerKeyframes="" PannerStartKeyframe="-91445760000000000,0.5,0,0,0,0,0,0" PannerIsInverted="true" PannerName="Balance">
						<masterclipid>masterclip-47</masterclipid>
						<name>Hearts of darkness2</name>
						<enabled>TRUE</enabled>
						<duration>4970</duration>
						<rate>
							<ntsc>TRUE</ntsc>
							<timebase>30</timebase>
						</rate>
						<start>-1</start>
						<end>-1</end>
						<in>88</in>
						<out>249</out>
						<file id="file-47"/>
						<sourcetrack>
							<mediatype>audio</mediatype>
							<trackindex>2</trackindex>
						</sourcetrack>
							<filter>
								<effect>
									<name>Audio Levels</name>
									<effectid>audiolevels</effectid>
									<effectcategory>audiolevels</effectcategory>
									<effecttype>audiolevels</effecttype>
									<mediatype>audio</mediatype>
									<parameter authoringApp="PremierePro">
										<parameterid>level</parameterid>
										<name>Level</name>
										<valuemin>0</valuemin>
										<valuemax>3.98109</valuemax>
										<value>0.639506</value>
									</parameter>
								</effect>
							</filter>
							<filter>
								<effect>
									<name>Audio Pan</name>
									<effectid>audiopan</effectid>
									<effectcategory>audiopan</effectcategory>
									<effecttype>audiopan</effecttype>
									<mediatype>audio</mediatype>
									<parameter authoringApp="PremierePro">
										<parameterid>pan</parameterid>
										<name>Pan</name>
										<valuemin>-1</valuemin>
										<valuemax>1</valuemax>
										<value>0</value>
									</parameter>
								</effect>
							</filter>
						<link>
							<linkclipref>clipitem-716</linkclipref>
							<mediatype>audio</mediatype>
							<trackindex>12</trackindex>
							<clipindex>7</clipindex>
							<groupindex>1</groupindex>
						</link>
						<link>
							<linkclipref>clipitem-726</linkclipref>
							<mediatype>audio</mediatype>
							<trackindex>13</trackindex>
							<clipindex>7</clipindex>
							<groupindex>1</groupindex>
						</link>
					</clipitem>
					<transitionitem>
						<start>6863</start>
						<end>6888</end>
						<alignment>end-black</alignment>
						<cutPoint>25</cutPoint>
						<rate>
							<timebase>25</timebase>
							<ntsc>FALSE</ntsc>
						</rate>
						<effect>
							<name>Cross Fade (+3dB)</name>
							<effectid>KGAudioTransCrossFade3dB</effectid>
							<effecttype>transition</effecttype>
							<mediatype>audio</mediatype>
							<wipecode>0</wipecode>
							<wipeaccuracy>100</wipeaccuracy>
							<startratio>0</startratio>
							<endratio>1</endratio>
							<reverse>FALSE</reverse>
						</effect>
					</transitionitem>
					<transitionitem>
						<start>7617</start>
						<end>7630</end>
						<alignment>start-black</alignment>
						<cutPoint>0</cutPoint>
						<rate>
							<timebase>25</timebase>
							<ntsc>FALSE</ntsc>
						</rate>
						<effect>
							<name>Cross Fade (+3dB)</name>
							<effectid>KGAudioTransCrossFade3dB</effectid>
							<effecttype>transition</effecttype>
							<mediatype>audio</mediatype>
							<wipecode>0</wipecode>
							<wipeaccuracy>100</wipeaccuracy>
							<startratio>0</startratio>
							<endratio>1</endratio>
							<reverse>FALSE</reverse>
						</effect>
					</transitionitem>
					<clipitem id="clipitem-727" frameBlend="FALSE" PannerCurrentValue="0.5" PannerKeyframes="" PannerStartKeyframe="-91445760000000000,0.5,0,0,0,0,0,0" PannerIsInverted="true" PannerName="Balance">
						<masterclipid>masterclip-50</masterclipid>
						<name>heavens_gate</name>
						<enabled>TRUE</enabled>
						<duration>10420</duration>
						<rate>
							<ntsc>TRUE</ntsc>
							<timebase>30</timebase>
						</rate>
						<start>-1</start>
						<end>-1</end>
						<in>8866</in>
						<out>9357</out>
						<file id="file-50"/>
						<sourcetrack>
							<mediatype>audio</mediatype>
							<trackindex>2</trackindex>
						</sourcetrack>
							<filter>
								<effect>
									<name>Gain</name>
									<effectid>{61756678, 4761696e, 4b657947}</effectid>
									<effecttype>filter</effecttype>
									<mediatype>audio</mediatype>
									<parameter authoringApp="PremierePro">
										<parameterid>Gain(dB)</parameterid>
										<name>Gain(dB)</name>
										<valuemin>-96</valuemin>
										<valuemax>96</valuemax>
										<value>-2</value>
									</parameter>
								</effect>
							</filter>
							<filter>
								<effect>
									<name>Audio Levels</name>
									<effectid>audiolevels</effectid>
									<effectcategory>audiolevels</effectcategory>
									<effecttype>audiolevels</effecttype>
									<mediatype>audio</mediatype>
									<parameter authoringApp="PremierePro">
										<parameterid>level</parameterid>
										<name>Level</name>
										<valuemin>0</valuemin>
										<valuemax>3.98109</valuemax>
										<value>0.231733</value>
										<keyframe>
											<when>8885</when>
											<value>0.498815</value>
										</keyframe>
										<keyframe>
											<when>8887</when>
											<value>0.231733</value>
										</keyframe>
									</parameter>
								</effect>
							</filter>
							<filter>
								<effect>
									<name>Audio Pan</name>
									<effectid>audiopan</effectid>
									<effectcategory>audiopan</effectcategory>
									<effecttype>audiopan</effecttype>
									<mediatype>audio</mediatype>
									<parameter authoringApp="PremierePro">
										<parameterid>pan</parameterid>
										<name>Pan</name>
										<valuemin>-1</valuemin>
										<valuemax>1</valuemax>
										<value>0</value>
									</parameter>
								</effect>
							</filter>
						<link>
							<linkclipref>clipitem-717</linkclipref>
							<mediatype>audio</mediatype>
							<trackindex>12</trackindex>
							<clipindex>10</clipindex>
							<groupindex>1</groupindex>
						</link>
						<link>
							<linkclipref>clipitem-727</linkclipref>
							<mediatype>audio</mediatype>
							<trackindex>13</trackindex>
							<clipindex>10</clipindex>
							<groupindex>1</groupindex>
						</link>
					</clipitem>
					<transitionitem>
						<start>8099</start>
						<end>8108</end>
						<alignment>center</alignment>
						<cutPoint>4</cutPoint>
						<rate>
							<timebase>25</timebase>
							<ntsc>FALSE</ntsc>
						</rate>
						<effect>
							<name>Cross Fade (+3dB)</name>
							<effectid>KGAudioTransCrossFade3dB</effectid>
							<effecttype>transition</effecttype>
							<mediatype>audio</mediatype>
							<wipecode>0</wipecode>
							<wipeaccuracy>100</wipeaccuracy>
							<startratio>0</startratio>
							<endratio>1</endratio>
							<reverse>FALSE</reverse>
						</effect>
					</transitionitem>
					<clipitem id="clipitem-728" frameBlend="FALSE" PannerCurrentValue="0.5" PannerKeyframes="" PannerStartKeyframe="-91445760000000000,0.5,0,0,0,0,0,0" PannerIsInverted="true" PannerName="Balance">
						<masterclipid>masterclip-50</masterclipid>
						<name>heavens_gate</name>
						<enabled>TRUE</enabled>
						<duration>10420</duration>
						<rate>
							<ntsc>TRUE</ntsc>
							<timebase>30</timebase>
						</rate>
						<start>-1</start>
						<end>8134</end>
						<in>9348</in>
						<out>9383</out>
						<file id="file-50"/>
						<sourcetrack>
							<mediatype>audio</mediatype>
							<trackindex>2</trackindex>
						</sourcetrack>
							<filter>
								<effect>
									<name>Audio Levels</name>
									<effectid>audiolevels</effectid>
									<effectcategory>audiolevels</effectcategory>
									<effecttype>audiolevels</effecttype>
									<mediatype>audio</mediatype>
									<parameter authoringApp="PremierePro">
										<parameterid>level</parameterid>
										<name>Level</name>
										<valuemin>0</valuemin>
										<valuemax>3.98109</valuemax>
										<value>0</value>
									</parameter>
								</effect>
							</filter>
							<filter>
								<effect>
									<name>Audio Pan</name>
									<effectid>audiopan</effectid>
									<effectcategory>audiopan</effectcategory>
									<effecttype>audiopan</effecttype>
									<mediatype>audio</mediatype>
									<parameter authoringApp="PremierePro">
										<parameterid>pan</parameterid>
										<name>Pan</name>
										<valuemin>-1</valuemin>
										<valuemax>1</valuemax>
										<value>0</value>
									</parameter>
								</effect>
							</filter>
						<link>
							<linkclipref>clipitem-718</linkclipref>
							<mediatype>audio</mediatype>
							<trackindex>12</trackindex>
							<clipindex>12</clipindex>
							<groupindex>1</groupindex>
						</link>
						<link>
							<linkclipref>clipitem-728</linkclipref>
							<mediatype>audio</mediatype>
							<trackindex>13</trackindex>
							<clipindex>12</clipindex>
							<groupindex>1</groupindex>
						</link>
					</clipitem>
					<transitionitem>
						<start>9425</start>
						<end>9428</end>
						<alignment>start-black</alignment>
						<cutPoint>0</cutPoint>
						<rate>
							<timebase>25</timebase>
							<ntsc>FALSE</ntsc>
						</rate>
						<effect>
							<name>Cross Fade (+3dB)</name>
							<effectid>KGAudioTransCrossFade3dB</effectid>
							<effecttype>transition</effecttype>
							<mediatype>audio</mediatype>
							<wipecode>0</wipecode>
							<wipeaccuracy>100</wipeaccuracy>
							<startratio>0</startratio>
							<endratio>1</endratio>
							<reverse>FALSE</reverse>
						</effect>
					</transitionitem>
					<clipitem id="clipitem-729" frameBlend="FALSE" PannerCurrentValue="0.5" PannerKeyframes="" PannerStartKeyframe="-91445760000000000,0.5,0,0,0,0,0,0" PannerIsInverted="true" PannerName="Balance">
						<masterclipid>masterclip-4</masterclipid>
						<name>t2.mov</name>
						<enabled>TRUE</enabled>
						<duration>5950</duration>
						<rate>
							<ntsc>TRUE</ntsc>
							<timebase>30</timebase>
						</rate>
						<start>-1</start>
						<end>-1</end>
						<in>2359</in>
						<out>2574</out>
						<file id="file-4"/>
						<sourcetrack>
							<mediatype>audio</mediatype>
							<trackindex>2</trackindex>
						</sourcetrack>
							<filter>
								<effect>
									<name>Audio Levels</name>
									<effectid>audiolevels</effectid>
									<effectcategory>audiolevels</effectcategory>
									<effecttype>audiolevels</effecttype>
									<mediatype>audio</mediatype>
									<parameter authoringApp="PremierePro">
										<parameterid>level</parameterid>
										<name>Level</name>
										<valuemin>0</valuemin>
										<valuemax>3.98109</valuemax>
										<value>1.01209</value>
										<keyframe>
											<when>2406</when>
											<value>1.61156</value>
										</keyframe>
										<keyframe>
											<when>2417</when>
											<value>0.99763</value>
										</keyframe>
										<keyframe>
											<when>2464</when>
											<value>0.99763</value>
										</keyframe>
										<keyframe>
											<when>2465</when>
											<value>0.648317</value>
										</keyframe>
									</parameter>
								</effect>
							</filter>
							<filter>
								<effect>
									<name>Audio Pan</name>
									<effectid>audiopan</effectid>
									<effectcategory>audiopan</effectcategory>
									<effecttype>audiopan</effecttype>
									<mediatype>audio</mediatype>
									<parameter authoringApp="PremierePro">
										<parameterid>pan</parameterid>
										<name>Pan</name>
										<valuemin>-1</valuemin>
										<valuemax>1</valuemax>
										<value>0</value>
									</parameter>
								</effect>
							</filter>
						<link>
							<linkclipref>clipitem-6</linkclipref>
							<mediatype>video</mediatype>
							<trackindex>1</trackindex>
							<clipindex>6</clipindex>
						</link>
						<link>
							<linkclipref>clipitem-719</linkclipref>
							<mediatype>audio</mediatype>
							<trackindex>12</trackindex>
							<clipindex>14</clipindex>
							<groupindex>1</groupindex>
						</link>
						<link>
							<linkclipref>clipitem-729</linkclipref>
							<mediatype>audio</mediatype>
							<trackindex>13</trackindex>
							<clipindex>14</clipindex>
							<groupindex>1</groupindex>
						</link>
					</clipitem>
					<transitionitem>
						<start>9628</start>
						<end>9640</end>
						<alignment>end-black</alignment>
						<cutPoint>12</cutPoint>
						<rate>
							<timebase>25</timebase>
							<ntsc>FALSE</ntsc>
						</rate>
						<effect>
							<name>Cross Fade (+3dB)</name>
							<effectid>KGAudioTransCrossFade3dB</effectid>
							<effecttype>transition</effecttype>
							<mediatype>audio</mediatype>
							<wipecode>0</wipecode>
							<wipeaccuracy>100</wipeaccuracy>
							<startratio>0</startratio>
							<endratio>1</endratio>
							<reverse>FALSE</reverse>
						</effect>
					</transitionitem>
					<transitionitem>
						<start>10221</start>
						<end>10234</end>
						<alignment>start-black</alignment>
						<cutPoint>0</cutPoint>
						<rate>
							<timebase>25</timebase>
							<ntsc>FALSE</ntsc>
						</rate>
						<effect>
							<name>Cross Fade (+3dB)</name>
							<effectid>KGAudioTransCrossFade3dB</effectid>
							<effecttype>transition</effecttype>
							<mediatype>audio</mediatype>
							<wipecode>0</wipecode>
							<wipeaccuracy>100</wipeaccuracy>
							<startratio>0</startratio>
							<endratio>1</endratio>
							<reverse>FALSE</reverse>
						</effect>
					</transitionitem>
					<clipitem id="clipitem-730" frameBlend="FALSE" PannerCurrentValue="0.5" PannerKeyframes="" PannerStartKeyframe="-91445760000000000,0.5,0,0,0,0,0,0" PannerIsInverted="true" PannerName="Balance">
						<masterclipid>masterclip-62</masterclipid>
						<name>avatar</name>
						<enabled>TRUE</enabled>
						<duration>5131</duration>
						<rate>
							<ntsc>TRUE</ntsc>
							<timebase>30</timebase>
						</rate>
						<start>-1</start>
						<end>-1</end>
						<in>2900</in>
						<out>3286</out>
						<file id="file-62"/>
						<sourcetrack>
							<mediatype>audio</mediatype>
							<trackindex>2</trackindex>
						</sourcetrack>
							<filter>
								<effect>
									<name>Audio Pan</name>
									<effectid>audiopan</effectid>
									<effectcategory>audiopan</effectcategory>
									<effecttype>audiopan</effecttype>
									<mediatype>audio</mediatype>
									<parameter authoringApp="PremierePro">
										<parameterid>pan</parameterid>
										<name>Pan</name>
										<valuemin>-1</valuemin>
										<valuemax>1</valuemax>
										<value>0</value>
									</parameter>
								</effect>
							</filter>
						<link>
							<linkclipref>clipitem-720</linkclipref>
							<mediatype>audio</mediatype>
							<trackindex>12</trackindex>
							<clipindex>17</clipindex>
							<groupindex>1</groupindex>
						</link>
						<link>
							<linkclipref>clipitem-730</linkclipref>
							<mediatype>audio</mediatype>
							<trackindex>13</trackindex>
							<clipindex>17</clipindex>
							<groupindex>1</groupindex>
						</link>
					</clipitem>
					<transitionitem>
						<start>10582</start>
						<end>10607</end>
						<alignment>end-black</alignment>
						<cutPoint>25</cutPoint>
						<rate>
							<timebase>25</timebase>
							<ntsc>FALSE</ntsc>
						</rate>
						<effect>
							<name>Cross Fade (+3dB)</name>
							<effectid>KGAudioTransCrossFade3dB</effectid>
							<effecttype>transition</effecttype>
							<mediatype>audio</mediatype>
							<wipecode>0</wipecode>
							<wipeaccuracy>100</wipeaccuracy>
							<startratio>0</startratio>
							<endratio>1</endratio>
							<reverse>FALSE</reverse>
						</effect>
					</transitionitem>
					<transitionitem>
						<start>11426</start>
						<end>11436</end>
						<alignment>start-black</alignment>
						<cutPoint>0</cutPoint>
						<rate>
							<timebase>25</timebase>
							<ntsc>FALSE</ntsc>
						</rate>
						<effect>
							<name>Cross Fade (+3dB)</name>
							<effectid>KGAudioTransCrossFade3dB</effectid>
							<effecttype>transition</effecttype>
							<mediatype>audio</mediatype>
							<wipecode>0</wipecode>
							<wipeaccuracy>100</wipeaccuracy>
							<startratio>0</startratio>
							<endratio>1</endratio>
							<reverse>FALSE</reverse>
						</effect>
					</transitionitem>
					<clipitem id="clipitem-731" frameBlend="FALSE" PannerCurrentValue="0.5" PannerKeyframes="" PannerStartKeyframe="-91445760000000000,0.5,0,0,0,0,0,0" PannerIsInverted="true" PannerName="Balance">
						<masterclipid>masterclip-67</masterclipid>
						<name>FILM_Break_kingkong3.mov</name>
						<enabled>TRUE</enabled>
						<duration>274</duration>
						<rate>
							<ntsc>TRUE</ntsc>
							<timebase>30</timebase>
						</rate>
						<start>-1</start>
						<end>11700</end>
						<in>0</in>
						<out>274</out>
						<file id="file-67"/>
						<sourcetrack>
							<mediatype>audio</mediatype>
							<trackindex>2</trackindex>
						</sourcetrack>
							<filter>
								<effect>
									<name>Audio Pan</name>
									<effectid>audiopan</effectid>
									<effectcategory>audiopan</effectcategory>
									<effecttype>audiopan</effecttype>
									<mediatype>audio</mediatype>
									<parameter authoringApp="PremierePro">
										<parameterid>pan</parameterid>
										<name>Pan</name>
										<valuemin>-1</valuemin>
										<valuemax>1</valuemax>
										<value>0</value>
									</parameter>
								</effect>
							</filter>
						<link>
							<linkclipref>clipitem-238</linkclipref>
							<mediatype>video</mediatype>
							<trackindex>3</trackindex>
							<clipindex>111</clipindex>
						</link>
						<link>
							<linkclipref>clipitem-721</linkclipref>
							<mediatype>audio</mediatype>
							<trackindex>12</trackindex>
							<clipindex>20</clipindex>
							<groupindex>1</groupindex>
						</link>
						<link>
							<linkclipref>clipitem-731</linkclipref>
							<mediatype>audio</mediatype>
							<trackindex>13</trackindex>
							<clipindex>20</clipindex>
							<groupindex>1</groupindex>
						</link>
					</clipitem>
					<clipitem id="clipitem-732" frameBlend="FALSE" PannerCurrentValue="0.5" PannerKeyframes="" PannerStartKeyframe="-91445760000000000,0.5,0,0,0,0,0,0" PannerIsInverted="true" PannerName="Balance">
						<masterclipid>masterclip-70</masterclipid>
						<name>The Holy Mountain.mov</name>
						<enabled>TRUE</enabled>
						<duration>5112</duration>
						<rate>
							<ntsc>TRUE</ntsc>
							<timebase>30</timebase>
						</rate>
						<start>12947</start>
						<end>13345</end>
						<in>872</in>
						<out>1270</out>
						<file id="file-70"/>
						<sourcetrack>
							<mediatype>audio</mediatype>
							<trackindex>2</trackindex>
						</sourcetrack>
							<filter>
								<effect>
									<name>Gain</name>
									<effectid>{61756678, 4761696e, 4b657947}</effectid>
									<effecttype>filter</effecttype>
									<mediatype>audio</mediatype>
									<parameter authoringApp="PremierePro">
										<parameterid>Gain(dB)</parameterid>
										<name>Gain(dB)</name>
										<valuemin>-96</valuemin>
										<valuemax>96</valuemax>
										<value>18</value>
									</parameter>
								</effect>
							</filter>
							<filter>
								<effect>
									<name>Audio Levels</name>
									<effectid>audiolevels</effectid>
									<effectcategory>audiolevels</effectcategory>
									<effecttype>audiolevels</effecttype>
									<mediatype>audio</mediatype>
									<parameter authoringApp="PremierePro">
										<parameterid>level</parameterid>
										<name>Level</name>
										<valuemin>0</valuemin>
										<valuemax>3.98109</valuemax>
										<value>0</value>
										<keyframe>
											<when>876</when>
											<value>0</value>
										</keyframe>
										<keyframe>
											<when>895</when>
											<value>0.212095</value>
										</keyframe>
										<keyframe>
											<when>904</when>
											<value>0.212094</value>
										</keyframe>
										<keyframe>
											<when>933</when>
											<value>0.283569</value>
										</keyframe>
										<keyframe>
											<when>969</when>
											<value>0.905894</value>
										</keyframe>
										<keyframe>
											<when>1200</when>
											<value>0.875471</value>
										</keyframe>
										<keyframe>
											<when>1205</when>
											<value>0.302734</value>
										</keyframe>
										<keyframe>
											<when>1242</when>
											<value>0.0221322</value>
										</keyframe>
									</parameter>
								</effect>
							</filter>
							<filter>
								<effect>
									<name>Audio Pan</name>
									<effectid>audiopan</effectid>
									<effectcategory>audiopan</effectcategory>
									<effecttype>audiopan</effecttype>
									<mediatype>audio</mediatype>
									<parameter authoringApp="PremierePro">
										<parameterid>pan</parameterid>
										<name>Pan</name>
										<valuemin>-1</valuemin>
										<valuemax>1</valuemax>
										<value>0</value>
									</parameter>
								</effect>
							</filter>
						<link>
							<linkclipref>clipitem-244</linkclipref>
							<mediatype>video</mediatype>
							<trackindex>3</trackindex>
							<clipindex>118</clipindex>
						</link>
						<link>
							<linkclipref>clipitem-722</linkclipref>
							<mediatype>audio</mediatype>
							<trackindex>12</trackindex>
							<clipindex>21</clipindex>
							<groupindex>1</groupindex>
						</link>
						<link>
							<linkclipref>clipitem-732</linkclipref>
							<mediatype>audio</mediatype>
							<trackindex>13</trackindex>
							<clipindex>21</clipindex>
							<groupindex>1</groupindex>
						</link>
					</clipitem>
					<clipitem id="clipitem-733" frameBlend="FALSE" PannerCurrentValue="0.5" PannerKeyframes="" PannerStartKeyframe="-91445760000000000,0.5,0,0,0,0,0,0" PannerIsInverted="true" PannerName="Balance">
						<masterclipid>masterclip-79</masterclipid>
						<name>FILM_Break_ufo.mov</name>
						<enabled>TRUE</enabled>
						<duration>201</duration>
						<rate>
							<ntsc>TRUE</ntsc>
							<timebase>30</timebase>
						</rate>
						<start>24552</start>
						<end>24753</end>
						<in>0</in>
						<out>201</out>
						<file id="file-79"/>
						<sourcetrack>
							<mediatype>audio</mediatype>
							<trackindex>2</trackindex>
						</sourcetrack>
							<filter>
								<effect>
									<name>Audio Pan</name>
									<effectid>audiopan</effectid>
									<effectcategory>audiopan</effectcategory>
									<effecttype>audiopan</effecttype>
									<mediatype>audio</mediatype>
									<parameter authoringApp="PremierePro">
										<parameterid>pan</parameterid>
										<name>Pan</name>
										<valuemin>-1</valuemin>
										<valuemax>1</valuemax>
										<value>0</value>
									</parameter>
								</effect>
							</filter>
						<link>
							<linkclipref>clipitem-259</linkclipref>
							<mediatype>video</mediatype>
							<trackindex>3</trackindex>
							<clipindex>137</clipindex>
						</link>
						<link>
							<linkclipref>clipitem-723</linkclipref>
							<mediatype>audio</mediatype>
							<trackindex>12</trackindex>
							<clipindex>22</clipindex>
							<groupindex>1</groupindex>
						</link>
						<link>
							<linkclipref>clipitem-733</linkclipref>
							<mediatype>audio</mediatype>
							<trackindex>13</trackindex>
							<clipindex>22</clipindex>
							<groupindex>1</groupindex>
						</link>
					</clipitem>
					<enabled>TRUE</enabled>
					<locked>FALSE</locked>
					<outputchannelindex>2</outputchannelindex>
				</track>
				<track TL.SQTrackAudioKeyframeStyle="0" TL.SQTrackShy="0" TL.SQTrackExpandedHeight="55" TL.SQTrackExpanded="1" MZ.TrackTargeted="1" PannerCurrentValue="0.5" PannerIsInverted="true" PannerStartKeyframe="-91445760000000000,0.5,0,0,0,0,0,0" PannerName="Balance" currentExplodedTrackIndex="0" totalExplodedTrackCount="2" premiereTrackType="Stereo">
					<clipitem id="clipitem-734" frameBlend="FALSE" PannerCurrentValue="0.5" PannerKeyframes="" PannerStartKeyframe="-91445760000000000,0.5,0,0,0,0,0,0" PannerIsInverted="true" PannerName="Balance">
						<masterclipid>masterclip-212</masterclipid>
						<name>Wipe.wav</name>
						<enabled>TRUE</enabled>
						<duration>51</duration>
						<rate>
							<timebase>30</timebase>
							<ntsc>TRUE</ntsc>
						</rate>
						<start>259</start>
						<end>310</end>
						<in>0</in>
						<out>51</out>
						<file id="file-211">
							<name>Wipe.wav</name>
							<pathurl>file://localhost/Volumes/Scenen/Prosjekter/FILM/FILM%200110%20Mastere%20Grafikk%20og%20Lyd%20Filmbonanza%20GI%20010112/Video/Ny%20Vignett%20fra%20Bearbeding%2028.01.13/Wipe.wav</pathurl>
							<rate>
								<timebase>30</timebase>
								<ntsc>TRUE</ntsc>
							</rate>
							<duration>61</duration>
							<timecode>
								<rate>
									<timebase>30</timebase>
									<ntsc>TRUE</ntsc>
								</rate>
								<string>00;01;00;02</string>
								<frame>1800</frame>
								<displayformat>DF</displayformat>
							</timecode>
							<media>
								<audio>
									<samplecharacteristics>
										<depth>16</depth>
										<samplerate>48000</samplerate>
									</samplecharacteristics>
									<channelcount>2</channelcount>
								</audio>
							</media>
						</file>
						<sourcetrack>
							<mediatype>audio</mediatype>
							<trackindex>1</trackindex>
						</sourcetrack>
							<filter>
								<effect>
									<name>Gain</name>
									<effectid>{61756678, 4761696e, 4b657947}</effectid>
									<effecttype>filter</effecttype>
									<mediatype>audio</mediatype>
									<parameter authoringApp="PremierePro">
										<parameterid>Gain(dB)</parameterid>
										<name>Gain(dB)</name>
										<valuemin>-96</valuemin>
										<valuemax>96</valuemax>
										<value>-9</value>
									</parameter>
								</effect>
							</filter>
							<filter>
								<effect>
									<name>Audio Pan</name>
									<effectid>audiopan</effectid>
									<effectcategory>audiopan</effectcategory>
									<effecttype>audiopan</effecttype>
									<mediatype>audio</mediatype>
									<parameter authoringApp="PremierePro">
										<parameterid>pan</parameterid>
										<name>Pan</name>
										<valuemin>-1</valuemin>
										<valuemax>1</valuemax>
										<value>0</value>
									</parameter>
								</effect>
							</filter>
						<link>
							<linkclipref>clipitem-734</linkclipref>
							<mediatype>audio</mediatype>
							<trackindex>14</trackindex>
							<clipindex>1</clipindex>
							<groupindex>1</groupindex>
						</link>
						<link>
							<linkclipref>clipitem-744</linkclipref>
							<mediatype>audio</mediatype>
							<trackindex>15</trackindex>
							<clipindex>1</clipindex>
							<groupindex>1</groupindex>
						</link>
					</clipitem>
					<clipitem id="clipitem-735" frameBlend="FALSE" PannerCurrentValue="0.5" PannerKeyframes="" PannerStartKeyframe="-91445760000000000,0.5,0,0,0,0,0,0" PannerIsInverted="true" PannerName="Balance">
						<masterclipid>masterclip-212</masterclipid>
						<name>Wipe.wav</name>
						<enabled>TRUE</enabled>
						<duration>51</duration>
						<rate>
							<ntsc>TRUE</ntsc>
							<timebase>30</timebase>
						</rate>
						<start>410</start>
						<end>461</end>
						<in>0</in>
						<out>51</out>
						<file id="file-211"/>
						<sourcetrack>
							<mediatype>audio</mediatype>
							<trackindex>1</trackindex>
						</sourcetrack>
							<filter>
								<effect>
									<name>Gain</name>
									<effectid>{61756678, 4761696e, 4b657947}</effectid>
									<effecttype>filter</effecttype>
									<mediatype>audio</mediatype>
									<parameter authoringApp="PremierePro">
										<parameterid>Gain(dB)</parameterid>
										<name>Gain(dB)</name>
										<valuemin>-96</valuemin>
										<valuemax>96</valuemax>
										<value>-9</value>
									</parameter>
								</effect>
							</filter>
							<filter>
								<effect>
									<name>Audio Pan</name>
									<effectid>audiopan</effectid>
									<effectcategory>audiopan</effectcategory>
									<effecttype>audiopan</effecttype>
									<mediatype>audio</mediatype>
									<parameter authoringApp="PremierePro">
										<parameterid>pan</parameterid>
										<name>Pan</name>
										<valuemin>-1</valuemin>
										<valuemax>1</valuemax>
										<value>0</value>
									</parameter>
								</effect>
							</filter>
						<link>
							<linkclipref>clipitem-735</linkclipref>
							<mediatype>audio</mediatype>
							<trackindex>14</trackindex>
							<clipindex>2</clipindex>
							<groupindex>1</groupindex>
						</link>
						<link>
							<linkclipref>clipitem-745</linkclipref>
							<mediatype>audio</mediatype>
							<trackindex>15</trackindex>
							<clipindex>2</clipindex>
							<groupindex>1</groupindex>
						</link>
					</clipitem>
					<clipitem id="clipitem-736" frameBlend="FALSE" PannerCurrentValue="0.5" PannerKeyframes="" PannerStartKeyframe="-91445760000000000,0.5,0,0,0,0,0,0" PannerIsInverted="true" PannerName="Balance">
						<masterclipid>masterclip-212</masterclipid>
						<name>Wipe.wav</name>
						<enabled>TRUE</enabled>
						<duration>51</duration>
						<rate>
							<ntsc>TRUE</ntsc>
							<timebase>30</timebase>
						</rate>
						<start>519</start>
						<end>570</end>
						<in>0</in>
						<out>51</out>
						<file id="file-211"/>
						<sourcetrack>
							<mediatype>audio</mediatype>
							<trackindex>1</trackindex>
						</sourcetrack>
							<filter>
								<effect>
									<name>Gain</name>
									<effectid>{61756678, 4761696e, 4b657947}</effectid>
									<effecttype>filter</effecttype>
									<mediatype>audio</mediatype>
									<parameter authoringApp="PremierePro">
										<parameterid>Gain(dB)</parameterid>
										<name>Gain(dB)</name>
										<valuemin>-96</valuemin>
										<valuemax>96</valuemax>
										<value>-9</value>
									</parameter>
								</effect>
							</filter>
							<filter>
								<effect>
									<name>Audio Pan</name>
									<effectid>audiopan</effectid>
									<effectcategory>audiopan</effectcategory>
									<effecttype>audiopan</effecttype>
									<mediatype>audio</mediatype>
									<parameter authoringApp="PremierePro">
										<parameterid>pan</parameterid>
										<name>Pan</name>
										<valuemin>-1</valuemin>
										<valuemax>1</valuemax>
										<value>0</value>
									</parameter>
								</effect>
							</filter>
						<link>
							<linkclipref>clipitem-736</linkclipref>
							<mediatype>audio</mediatype>
							<trackindex>14</trackindex>
							<clipindex>3</clipindex>
							<groupindex>1</groupindex>
						</link>
						<link>
							<linkclipref>clipitem-746</linkclipref>
							<mediatype>audio</mediatype>
							<trackindex>15</trackindex>
							<clipindex>3</clipindex>
							<groupindex>1</groupindex>
						</link>
					</clipitem>
					<transitionitem>
						<start>5506</start>
						<end>5578</end>
						<alignment>start-black</alignment>
						<cutPoint>0</cutPoint>
						<rate>
							<timebase>25</timebase>
							<ntsc>FALSE</ntsc>
						</rate>
						<effect>
							<name>Cross Fade (+3dB)</name>
							<effectid>KGAudioTransCrossFade3dB</effectid>
							<effecttype>transition</effecttype>
							<mediatype>audio</mediatype>
							<wipecode>0</wipecode>
							<wipeaccuracy>100</wipeaccuracy>
							<startratio>0</startratio>
							<endratio>1</endratio>
							<reverse>FALSE</reverse>
						</effect>
					</transitionitem>
					<clipitem id="clipitem-737" frameBlend="FALSE" PannerCurrentValue="0.5" PannerKeyframes="" PannerStartKeyframe="-91445760000000000,0.5,0,0,0,0,0,0" PannerIsInverted="true" PannerName="Balance">
						<masterclipid>masterclip-35</masterclipid>
						<name>apocalypse_now_begynnelsen</name>
						<enabled>TRUE</enabled>
						<duration>9005</duration>
						<rate>
							<ntsc>TRUE</ntsc>
							<timebase>30</timebase>
						</rate>
						<start>-1</start>
						<end>-1</end>
						<in>3518</in>
						<out>4373</out>
						<file id="file-35"/>
						<sourcetrack>
							<mediatype>audio</mediatype>
							<trackindex>1</trackindex>
						</sourcetrack>
							<filter>
								<effect>
									<name>Audio Levels</name>
									<effectid>audiolevels</effectid>
									<effectcategory>audiolevels</effectcategory>
									<effecttype>audiolevels</effecttype>
									<mediatype>audio</mediatype>
									<parameter authoringApp="PremierePro">
										<parameterid>level</parameterid>
										<name>Level</name>
										<valuemin>0</valuemin>
										<valuemax>3.98109</valuemax>
										<value>0.99763</value>
										<keyframe>
											<when>3752</when>
											<value>0.99763</value>
										</keyframe>
										<keyframe>
											<when>3781</when>
											<value>0.668596</value>
										</keyframe>
										<keyframe>
											<when>3790</when>
											<value>0.343254</value>
										</keyframe>
										<keyframe>
											<when>3818</when>
											<value>0.250593</value>
										</keyframe>
									</parameter>
								</effect>
							</filter>
							<filter>
								<effect>
									<name>Audio Pan</name>
									<effectid>audiopan</effectid>
									<effectcategory>audiopan</effectcategory>
									<effecttype>audiopan</effecttype>
									<mediatype>audio</mediatype>
									<parameter authoringApp="PremierePro">
										<parameterid>pan</parameterid>
										<name>Pan</name>
										<valuemin>-1</valuemin>
										<valuemax>1</valuemax>
										<value>0</value>
									</parameter>
								</effect>
							</filter>
						<link>
							<linkclipref>clipitem-737</linkclipref>
							<mediatype>audio</mediatype>
							<trackindex>14</trackindex>
							<clipindex>5</clipindex>
							<groupindex>1</groupindex>
						</link>
						<link>
							<linkclipref>clipitem-747</linkclipref>
							<mediatype>audio</mediatype>
							<trackindex>15</trackindex>
							<clipindex>5</clipindex>
							<groupindex>1</groupindex>
						</link>
					</clipitem>
					<transitionitem>
						<start>6231</start>
						<end>6361</end>
						<alignment>end-black</alignment>
						<cutPoint>130</cutPoint>
						<rate>
							<timebase>25</timebase>
							<ntsc>FALSE</ntsc>
						</rate>
						<effect>
							<name>Cross Fade (+3dB)</name>
							<effectid>KGAudioTransCrossFade3dB</effectid>
							<effecttype>transition</effecttype>
							<mediatype>audio</mediatype>
							<wipecode>0</wipecode>
							<wipeaccuracy>100</wipeaccuracy>
							<startratio>0</startratio>
							<endratio>1</endratio>
							<reverse>FALSE</reverse>
						</effect>
					</transitionitem>
					<transitionitem>
						<start>6739</start>
						<end>6741</end>
						<alignment>start-black</alignment>
						<cutPoint>0</cutPoint>
						<rate>
							<timebase>25</timebase>
							<ntsc>FALSE</ntsc>
						</rate>
						<effect>
							<name>Cross Fade (+3dB)</name>
							<effectid>KGAudioTransCrossFade3dB</effectid>
							<effecttype>transition</effecttype>
							<mediatype>audio</mediatype>
							<wipecode>0</wipecode>
							<wipeaccuracy>100</wipeaccuracy>
							<startratio>0</startratio>
							<endratio>1</endratio>
							<reverse>FALSE</reverse>
						</effect>
					</transitionitem>
					<clipitem id="clipitem-738" frameBlend="FALSE" PannerCurrentValue="0.5" PannerKeyframes="" PannerStartKeyframe="-91445760000000000,0.5,0,0,0,0,0,0" PannerIsInverted="true" PannerName="Balance">
						<masterclipid>masterclip-46</masterclipid>
						<name>Hearts of darknes</name>
						<enabled>TRUE</enabled>
						<duration>14260</duration>
						<rate>
							<ntsc>TRUE</ntsc>
							<timebase>30</timebase>
						</rate>
						<start>-1</start>
						<end>-1</end>
						<in>765</in>
						<out>795</out>
						<file id="file-46"/>
						<sourcetrack>
							<mediatype>audio</mediatype>
							<trackindex>1</trackindex>
						</sourcetrack>
							<filter>
								<effect>
									<name>Gain</name>
									<effectid>{61756678, 4761696e, 4b657947}</effectid>
									<effecttype>filter</effecttype>
									<mediatype>audio</mediatype>
									<parameter authoringApp="PremierePro">
										<parameterid>Gain(dB)</parameterid>
										<name>Gain(dB)</name>
										<valuemin>-96</valuemin>
										<valuemax>96</valuemax>
										<value>2</value>
									</parameter>
								</effect>
							</filter>
							<filter>
								<effect>
									<name>Audio Levels</name>
									<effectid>audiolevels</effectid>
									<effectcategory>audiolevels</effectcategory>
									<effecttype>audiolevels</effecttype>
									<mediatype>audio</mediatype>
									<parameter authoringApp="PremierePro">
										<parameterid>level</parameterid>
										<name>Level</name>
										<valuemin>0</valuemin>
										<valuemax>3.98109</valuemax>
										<value>1.99526</value>
									</parameter>
								</effect>
							</filter>
							<filter>
								<effect>
									<name>Audio Pan</name>
									<effectid>audiopan</effectid>
									<effectcategory>audiopan</effectcategory>
									<effecttype>audiopan</effecttype>
									<mediatype>audio</mediatype>
									<parameter authoringApp="PremierePro">
										<parameterid>pan</parameterid>
										<name>Pan</name>
										<valuemin>-1</valuemin>
										<valuemax>1</valuemax>
										<value>0</value>
									</parameter>
								</effect>
							</filter>
						<link>
							<linkclipref>clipitem-738</linkclipref>
							<mediatype>audio</mediatype>
							<trackindex>14</trackindex>
							<clipindex>8</clipindex>
							<groupindex>1</groupindex>
						</link>
						<link>
							<linkclipref>clipitem-748</linkclipref>
							<mediatype>audio</mediatype>
							<trackindex>15</trackindex>
							<clipindex>8</clipindex>
							<groupindex>1</groupindex>
						</link>
					</clipitem>
					<transitionitem>
						<start>6765</start>
						<end>6769</end>
						<alignment>end-black</alignment>
						<cutPoint>4</cutPoint>
						<rate>
							<timebase>25</timebase>
							<ntsc>FALSE</ntsc>
						</rate>
						<effect>
							<name>Cross Fade (+3dB)</name>
							<effectid>KGAudioTransCrossFade3dB</effectid>
							<effecttype>transition</effecttype>
							<mediatype>audio</mediatype>
							<wipecode>0</wipecode>
							<wipeaccuracy>100</wipeaccuracy>
							<startratio>0</startratio>
							<endratio>1</endratio>
							<reverse>FALSE</reverse>
						</effect>
					</transitionitem>
					<transitionitem>
						<start>6785</start>
						<end>6789</end>
						<alignment>start-black</alignment>
						<cutPoint>0</cutPoint>
						<rate>
							<timebase>25</timebase>
							<ntsc>FALSE</ntsc>
						</rate>
						<effect>
							<name>Cross Fade (+3dB)</name>
							<effectid>KGAudioTransCrossFade3dB</effectid>
							<effecttype>transition</effecttype>
							<mediatype>audio</mediatype>
							<wipecode>0</wipecode>
							<wipeaccuracy>100</wipeaccuracy>
							<startratio>0</startratio>
							<endratio>1</endratio>
							<reverse>FALSE</reverse>
						</effect>
					</transitionitem>
					<clipitem id="clipitem-739" frameBlend="FALSE" PannerCurrentValue="0.5" PannerKeyframes="" PannerStartKeyframe="-91445760000000000,0.5,0,0,0,0,0,0" PannerIsInverted="true" PannerName="Balance">
						<masterclipid>masterclip-46</masterclipid>
						<name>Hearts of darknes</name>
						<enabled>TRUE</enabled>
						<duration>14260</duration>
						<rate>
							<ntsc>TRUE</ntsc>
							<timebase>30</timebase>
						</rate>
						<start>-1</start>
						<end>-1</end>
						<in>820</in>
						<out>852</out>
						<file id="file-46"/>
						<sourcetrack>
							<mediatype>audio</mediatype>
							<trackindex>1</trackindex>
						</sourcetrack>
							<filter>
								<effect>
									<name>Gain</name>
									<effectid>{61756678, 4761696e, 4b657947}</effectid>
									<effecttype>filter</effecttype>
									<mediatype>audio</mediatype>
									<parameter authoringApp="PremierePro">
										<parameterid>Gain(dB)</parameterid>
										<name>Gain(dB)</name>
										<valuemin>-96</valuemin>
										<valuemax>96</valuemax>
										<value>2</value>
									</parameter>
								</effect>
							</filter>
							<filter>
								<effect>
									<name>Audio Pan</name>
									<effectid>audiopan</effectid>
									<effectcategory>audiopan</effectcategory>
									<effecttype>audiopan</effecttype>
									<mediatype>audio</mediatype>
									<parameter authoringApp="PremierePro">
										<parameterid>pan</parameterid>
										<name>Pan</name>
										<valuemin>-1</valuemin>
										<valuemax>1</valuemax>
										<value>0</value>
									</parameter>
								</effect>
							</filter>
						<link>
							<linkclipref>clipitem-739</linkclipref>
							<mediatype>audio</mediatype>
							<trackindex>14</trackindex>
							<clipindex>11</clipindex>
							<groupindex>1</groupindex>
						</link>
						<link>
							<linkclipref>clipitem-749</linkclipref>
							<mediatype>audio</mediatype>
							<trackindex>15</trackindex>
							<clipindex>11</clipindex>
							<groupindex>1</groupindex>
						</link>
					</clipitem>
					<transitionitem>
						<start>6816</start>
						<end>6817</end>
						<alignment>end-black</alignment>
						<cutPoint>1</cutPoint>
						<rate>
							<timebase>25</timebase>
							<ntsc>FALSE</ntsc>
						</rate>
						<effect>
							<name>Cross Fade (+3dB)</name>
							<effectid>KGAudioTransCrossFade3dB</effectid>
							<effecttype>transition</effecttype>
							<mediatype>audio</mediatype>
							<wipecode>0</wipecode>
							<wipeaccuracy>100</wipeaccuracy>
							<startratio>0</startratio>
							<endratio>1</endratio>
							<reverse>FALSE</reverse>
						</effect>
					</transitionitem>
					<transitionitem>
						<start>6823</start>
						<end>6830</end>
						<alignment>start-black</alignment>
						<cutPoint>0</cutPoint>
						<rate>
							<timebase>25</timebase>
							<ntsc>FALSE</ntsc>
						</rate>
						<effect>
							<name>Cross Fade (+3dB)</name>
							<effectid>KGAudioTransCrossFade3dB</effectid>
							<effecttype>transition</effecttype>
							<mediatype>audio</mediatype>
							<wipecode>0</wipecode>
							<wipeaccuracy>100</wipeaccuracy>
							<startratio>0</startratio>
							<endratio>1</endratio>
							<reverse>FALSE</reverse>
						</effect>
					</transitionitem>
					<clipitem id="clipitem-740" frameBlend="FALSE" PannerCurrentValue="0.5" PannerKeyframes="" PannerStartKeyframe="-91445760000000000,0.5,0,0,0,0,0,0" PannerIsInverted="true" PannerName="Balance">
						<masterclipid>masterclip-46</masterclipid>
						<name>Hearts of darknes</name>
						<enabled>TRUE</enabled>
						<duration>14260</duration>
						<rate>
							<ntsc>TRUE</ntsc>
							<timebase>30</timebase>
						</rate>
						<start>-1</start>
						<end>-1</end>
						<in>1116</in>
						<out>1177</out>
						<file id="file-46"/>
						<sourcetrack>
							<mediatype>audio</mediatype>
							<trackindex>1</trackindex>
						</sourcetrack>
							<filter>
								<effect>
									<name>Gain</name>
									<effectid>{61756678, 4761696e, 4b657947}</effectid>
									<effecttype>filter</effecttype>
									<mediatype>audio</mediatype>
									<parameter authoringApp="PremierePro">
										<parameterid>Gain(dB)</parameterid>
										<name>Gain(dB)</name>
										<valuemin>-96</valuemin>
										<valuemax>96</valuemax>
										<value>2</value>
									</parameter>
								</effect>
							</filter>
							<filter>
								<effect>
									<name>Audio Pan</name>
									<effectid>audiopan</effectid>
									<effectcategory>audiopan</effectcategory>
									<effecttype>audiopan</effecttype>
									<mediatype>audio</mediatype>
									<parameter authoringApp="PremierePro">
										<parameterid>pan</parameterid>
										<name>Pan</name>
										<valuemin>-1</valuemin>
										<valuemax>1</valuemax>
										<value>0</value>
									</parameter>
								</effect>
							</filter>
						<link>
							<linkclipref>clipitem-740</linkclipref>
							<mediatype>audio</mediatype>
							<trackindex>14</trackindex>
							<clipindex>14</clipindex>
							<groupindex>1</groupindex>
						</link>
						<link>
							<linkclipref>clipitem-750</linkclipref>
							<mediatype>audio</mediatype>
							<trackindex>15</trackindex>
							<clipindex>14</clipindex>
							<groupindex>1</groupindex>
						</link>
					</clipitem>
					<transitionitem>
						<start>6869</start>
						<end>6884</end>
						<alignment>center</alignment>
						<cutPoint>7</cutPoint>
						<rate>
							<timebase>25</timebase>
							<ntsc>FALSE</ntsc>
						</rate>
						<effect>
							<name>Cross Fade (+3dB)</name>
							<effectid>KGAudioTransCrossFade3dB</effectid>
							<effecttype>transition</effecttype>
							<mediatype>audio</mediatype>
							<wipecode>0</wipecode>
							<wipeaccuracy>100</wipeaccuracy>
							<startratio>0</startratio>
							<endratio>1</endratio>
							<reverse>FALSE</reverse>
						</effect>
					</transitionitem>
					<clipitem id="clipitem-741" frameBlend="FALSE" PannerCurrentValue="0.5" PannerKeyframes="" PannerStartKeyframe="-91445760000000000,0.5,0,0,0,0,0,0" PannerIsInverted="true" PannerName="Balance">
						<masterclipid>masterclip-47</masterclipid>
						<name>Hearts of darkness2</name>
						<enabled>TRUE</enabled>
						<duration>4970</duration>
						<rate>
							<ntsc>TRUE</ntsc>
							<timebase>30</timebase>
						</rate>
						<start>-1</start>
						<end>-1</end>
						<in>81</in>
						<out>309</out>
						<file id="file-47"/>
						<sourcetrack>
							<mediatype>audio</mediatype>
							<trackindex>1</trackindex>
						</sourcetrack>
							<filter>
								<effect>
									<name>Audio Levels</name>
									<effectid>audiolevels</effectid>
									<effectcategory>audiolevels</effectcategory>
									<effecttype>audiolevels</effecttype>
									<mediatype>audio</mediatype>
									<parameter authoringApp="PremierePro">
										<parameterid>level</parameterid>
										<name>Level</name>
										<valuemin>0</valuemin>
										<valuemax>3.98109</valuemax>
										<value>0.554239</value>
									</parameter>
								</effect>
							</filter>
							<filter>
								<effect>
									<name>Audio Pan</name>
									<effectid>audiopan</effectid>
									<effectcategory>audiopan</effectcategory>
									<effecttype>audiopan</effecttype>
									<mediatype>audio</mediatype>
									<parameter authoringApp="PremierePro">
										<parameterid>pan</parameterid>
										<name>Pan</name>
										<valuemin>-1</valuemin>
										<valuemax>1</valuemax>
										<value>0</value>
									</parameter>
								</effect>
							</filter>
						<link>
							<linkclipref>clipitem-741</linkclipref>
							<mediatype>audio</mediatype>
							<trackindex>14</trackindex>
							<clipindex>16</clipindex>
							<groupindex>1</groupindex>
						</link>
						<link>
							<linkclipref>clipitem-751</linkclipref>
							<mediatype>audio</mediatype>
							<trackindex>15</trackindex>
							<clipindex>16</clipindex>
							<groupindex>1</groupindex>
						</link>
					</clipitem>
					<transitionitem>
						<start>7054</start>
						<end>7097</end>
						<alignment>center</alignment>
						<cutPoint>21</cutPoint>
						<rate>
							<timebase>25</timebase>
							<ntsc>FALSE</ntsc>
						</rate>
						<effect>
							<name>Cross Fade (+3dB)</name>
							<effectid>KGAudioTransCrossFade3dB</effectid>
							<effecttype>transition</effecttype>
							<mediatype>audio</mediatype>
							<wipecode>0</wipecode>
							<wipeaccuracy>100</wipeaccuracy>
							<startratio>0</startratio>
							<endratio>1</endratio>
							<reverse>FALSE</reverse>
						</effect>
					</transitionitem>
					<clipitem id="clipitem-742" frameBlend="FALSE" PannerCurrentValue="0.5" PannerKeyframes="" PannerStartKeyframe="-91445760000000000,0.5,0,0,0,0,0,0" PannerIsInverted="true" PannerName="Balance">
						<masterclipid>masterclip-47</masterclipid>
						<name>Hearts of darkness2</name>
						<enabled>TRUE</enabled>
						<duration>4970</duration>
						<rate>
							<ntsc>TRUE</ntsc>
							<timebase>30</timebase>
						</rate>
						<start>-1</start>
						<end>7369</end>
						<in>67</in>
						<out>382</out>
						<file id="file-47"/>
						<sourcetrack>
							<mediatype>audio</mediatype>
							<trackindex>1</trackindex>
						</sourcetrack>
							<filter>
								<effect>
									<name>Audio Levels</name>
									<effectid>audiolevels</effectid>
									<effectcategory>audiolevels</effectcategory>
									<effecttype>audiolevels</effecttype>
									<mediatype>audio</mediatype>
									<parameter authoringApp="PremierePro">
										<parameterid>level</parameterid>
										<name>Level</name>
										<valuemin>0</valuemin>
										<valuemax>3.98109</valuemax>
										<value>0.554239</value>
									</parameter>
								</effect>
							</filter>
							<filter>
								<effect>
									<name>Audio Pan</name>
									<effectid>audiopan</effectid>
									<effectcategory>audiopan</effectcategory>
									<effecttype>audiopan</effecttype>
									<mediatype>audio</mediatype>
									<parameter authoringApp="PremierePro">
										<parameterid>pan</parameterid>
										<name>Pan</name>
										<valuemin>-1</valuemin>
										<valuemax>1</valuemax>
										<value>0</value>
									</parameter>
								</effect>
							</filter>
						<link>
							<linkclipref>clipitem-742</linkclipref>
							<mediatype>audio</mediatype>
							<trackindex>14</trackindex>
							<clipindex>18</clipindex>
							<groupindex>1</groupindex>
						</link>
						<link>
							<linkclipref>clipitem-752</linkclipref>
							<mediatype>audio</mediatype>
							<trackindex>15</trackindex>
							<clipindex>18</clipindex>
							<groupindex>1</groupindex>
						</link>
					</clipitem>
					<transitionitem>
						<start>9096</start>
						<end>9151</end>
						<alignment>start-black</alignment>
						<cutPoint>0</cutPoint>
						<rate>
							<timebase>25</timebase>
							<ntsc>FALSE</ntsc>
						</rate>
						<effect>
							<name>Cross Fade (+3dB)</name>
							<effectid>KGAudioTransCrossFade3dB</effectid>
							<effecttype>transition</effecttype>
							<mediatype>audio</mediatype>
							<wipecode>0</wipecode>
							<wipeaccuracy>100</wipeaccuracy>
							<startratio>0</startratio>
							<endratio>1</endratio>
							<reverse>FALSE</reverse>
						</effect>
					</transitionitem>
					<clipitem id="clipitem-743" frameBlend="FALSE" PannerCurrentValue="0.5" PannerKeyframes="" PannerStartKeyframe="-91445760000000000,0.5,0,0,0,0,0,0" PannerIsInverted="true" PannerName="Balance">
						<masterclipid>masterclip-213</masterclipid>
						<name>Skibsværft, atmosfære, stor hall.WAV</name>
						<enabled>TRUE</enabled>
						<duration>4337</duration>
						<rate>
							<timebase>30</timebase>
							<ntsc>TRUE</ntsc>
						</rate>
						<start>-1</start>
						<end>9512</end>
						<in>943</in>
						<out>1359</out>
						<file id="file-212">
							<name>Skibsværft, atmosfære, stor hall.WAV</name>
							<pathurl>file://localhost/Volumes/Scenen/Prosjekter/FILM/FILM%201413%20Master%20Filmbonanza%20Program%206%20H%c3%b8sten%202013/Lydffekter/Skibsv%c3%a6rft,%20atmosf%c3%a6re,%20stor%20hall.WAV</pathurl>
							<rate>
								<timebase>30</timebase>
								<ntsc>TRUE</ntsc>
							</rate>
							<duration>5199</duration>
							<timecode>
								<rate>
									<timebase>30</timebase>
									<ntsc>TRUE</ntsc>
								</rate>
								<string>00;00;00;00</string>
								<frame>0</frame>
								<displayformat>DF</displayformat>
							</timecode>
							<media>
								<audio>
									<samplecharacteristics>
										<depth>16</depth>
										<samplerate>48000</samplerate>
									</samplecharacteristics>
									<channelcount>2</channelcount>
								</audio>
							</media>
						</file>
						<sourcetrack>
							<mediatype>audio</mediatype>
							<trackindex>1</trackindex>
						</sourcetrack>
							<filter>
								<effect>
									<name>Audio Levels</name>
									<effectid>audiolevels</effectid>
									<effectcategory>audiolevels</effectcategory>
									<effecttype>audiolevels</effecttype>
									<mediatype>audio</mediatype>
									<parameter authoringApp="PremierePro">
										<parameterid>level</parameterid>
										<name>Level</name>
										<valuemin>0</valuemin>
										<valuemax>3.98109</valuemax>
										<value>0.591409</value>
										<keyframe>
											<when>1131</when>
											<value>0.591409</value>
										</keyframe>
										<keyframe>
											<when>1151</when>
											<value>0</value>
										</keyframe>
									</parameter>
								</effect>
							</filter>
							<filter>
								<effect>
									<name>Audio Pan</name>
									<effectid>audiopan</effectid>
									<effectcategory>audiopan</effectcategory>
									<effecttype>audiopan</effecttype>
									<mediatype>audio</mediatype>
									<parameter authoringApp="PremierePro">
										<parameterid>pan</parameterid>
										<name>Pan</name>
										<valuemin>-1</valuemin>
										<valuemax>1</valuemax>
										<value>0</value>
									</parameter>
								</effect>
							</filter>
						<link>
							<linkclipref>clipitem-743</linkclipref>
							<mediatype>audio</mediatype>
							<trackindex>14</trackindex>
							<clipindex>20</clipindex>
							<groupindex>1</groupindex>
						</link>
						<link>
							<linkclipref>clipitem-753</linkclipref>
							<mediatype>audio</mediatype>
							<trackindex>15</trackindex>
							<clipindex>20</clipindex>
							<groupindex>1</groupindex>
						</link>
					</clipitem>
					<enabled>TRUE</enabled>
					<locked>FALSE</locked>
					<outputchannelindex>1</outputchannelindex>
				</track>
				<track TL.SQTrackAudioKeyframeStyle="0" TL.SQTrackShy="0" TL.SQTrackExpandedHeight="55" TL.SQTrackExpanded="1" MZ.TrackTargeted="1" PannerCurrentValue="0.5" PannerIsInverted="true" PannerStartKeyframe="-91445760000000000,0.5,0,0,0,0,0,0" PannerName="Balance" currentExplodedTrackIndex="1" totalExplodedTrackCount="2" premiereTrackType="Stereo">
					<clipitem id="clipitem-744" frameBlend="FALSE" PannerCurrentValue="0.5" PannerKeyframes="" PannerStartKeyframe="-91445760000000000,0.5,0,0,0,0,0,0" PannerIsInverted="true" PannerName="Balance">
						<masterclipid>masterclip-212</masterclipid>
						<name>Wipe.wav</name>
						<enabled>TRUE</enabled>
						<duration>51</duration>
						<rate>
							<ntsc>TRUE</ntsc>
							<timebase>30</timebase>
						</rate>
						<start>259</start>
						<end>310</end>
						<in>0</in>
						<out>51</out>
						<file id="file-211"/>
						<sourcetrack>
							<mediatype>audio</mediatype>
							<trackindex>2</trackindex>
						</sourcetrack>
							<filter>
								<effect>
									<name>Gain</name>
									<effectid>{61756678, 4761696e, 4b657947}</effectid>
									<effecttype>filter</effecttype>
									<mediatype>audio</mediatype>
									<parameter authoringApp="PremierePro">
										<parameterid>Gain(dB)</parameterid>
										<name>Gain(dB)</name>
										<valuemin>-96</valuemin>
										<valuemax>96</valuemax>
										<value>-9</value>
									</parameter>
								</effect>
							</filter>
							<filter>
								<effect>
									<name>Audio Pan</name>
									<effectid>audiopan</effectid>
									<effectcategory>audiopan</effectcategory>
									<effecttype>audiopan</effecttype>
									<mediatype>audio</mediatype>
									<parameter authoringApp="PremierePro">
										<parameterid>pan</parameterid>
										<name>Pan</name>
										<valuemin>-1</valuemin>
										<valuemax>1</valuemax>
										<value>0</value>
									</parameter>
								</effect>
							</filter>
						<link>
							<linkclipref>clipitem-734</linkclipref>
							<mediatype>audio</mediatype>
							<trackindex>14</trackindex>
							<clipindex>1</clipindex>
							<groupindex>1</groupindex>
						</link>
						<link>
							<linkclipref>clipitem-744</linkclipref>
							<mediatype>audio</mediatype>
							<trackindex>15</trackindex>
							<clipindex>1</clipindex>
							<groupindex>1</groupindex>
						</link>
					</clipitem>
					<clipitem id="clipitem-745" frameBlend="FALSE" PannerCurrentValue="0.5" PannerKeyframes="" PannerStartKeyframe="-91445760000000000,0.5,0,0,0,0,0,0" PannerIsInverted="true" PannerName="Balance">
						<masterclipid>masterclip-212</masterclipid>
						<name>Wipe.wav</name>
						<enabled>TRUE</enabled>
						<duration>51</duration>
						<rate>
							<ntsc>TRUE</ntsc>
							<timebase>30</timebase>
						</rate>
						<start>410</start>
						<end>461</end>
						<in>0</in>
						<out>51</out>
						<file id="file-211"/>
						<sourcetrack>
							<mediatype>audio</mediatype>
							<trackindex>2</trackindex>
						</sourcetrack>
							<filter>
								<effect>
									<name>Gain</name>
									<effectid>{61756678, 4761696e, 4b657947}</effectid>
									<effecttype>filter</effecttype>
									<mediatype>audio</mediatype>
									<parameter authoringApp="PremierePro">
										<parameterid>Gain(dB)</parameterid>
										<name>Gain(dB)</name>
										<valuemin>-96</valuemin>
										<valuemax>96</valuemax>
										<value>-9</value>
									</parameter>
								</effect>
							</filter>
							<filter>
								<effect>
									<name>Audio Pan</name>
									<effectid>audiopan</effectid>
									<effectcategory>audiopan</effectcategory>
									<effecttype>audiopan</effecttype>
									<mediatype>audio</mediatype>
									<parameter authoringApp="PremierePro">
										<parameterid>pan</parameterid>
										<name>Pan</name>
										<valuemin>-1</valuemin>
										<valuemax>1</valuemax>
										<value>0</value>
									</parameter>
								</effect>
							</filter>
						<link>
							<linkclipref>clipitem-735</linkclipref>
							<mediatype>audio</mediatype>
							<trackindex>14</trackindex>
							<clipindex>2</clipindex>
							<groupindex>1</groupindex>
						</link>
						<link>
							<linkclipref>clipitem-745</linkclipref>
							<mediatype>audio</mediatype>
							<trackindex>15</trackindex>
							<clipindex>2</clipindex>
							<groupindex>1</groupindex>
						</link>
					</clipitem>
					<clipitem id="clipitem-746" frameBlend="FALSE" PannerCurrentValue="0.5" PannerKeyframes="" PannerStartKeyframe="-91445760000000000,0.5,0,0,0,0,0,0" PannerIsInverted="true" PannerName="Balance">
						<masterclipid>masterclip-212</masterclipid>
						<name>Wipe.wav</name>
						<enabled>TRUE</enabled>
						<duration>51</duration>
						<rate>
							<ntsc>TRUE</ntsc>
							<timebase>30</timebase>
						</rate>
						<start>519</start>
						<end>570</end>
						<in>0</in>
						<out>51</out>
						<file id="file-211"/>
						<sourcetrack>
							<mediatype>audio</mediatype>
							<trackindex>2</trackindex>
						</sourcetrack>
							<filter>
								<effect>
									<name>Gain</name>
									<effectid>{61756678, 4761696e, 4b657947}</effectid>
									<effecttype>filter</effecttype>
									<mediatype>audio</mediatype>
									<parameter authoringApp="PremierePro">
										<parameterid>Gain(dB)</parameterid>
										<name>Gain(dB)</name>
										<valuemin>-96</valuemin>
										<valuemax>96</valuemax>
										<value>-9</value>
									</parameter>
								</effect>
							</filter>
							<filter>
								<effect>
									<name>Audio Pan</name>
									<effectid>audiopan</effectid>
									<effectcategory>audiopan</effectcategory>
									<effecttype>audiopan</effecttype>
									<mediatype>audio</mediatype>
									<parameter authoringApp="PremierePro">
										<parameterid>pan</parameterid>
										<name>Pan</name>
										<valuemin>-1</valuemin>
										<valuemax>1</valuemax>
										<value>0</value>
									</parameter>
								</effect>
							</filter>
						<link>
							<linkclipref>clipitem-736</linkclipref>
							<mediatype>audio</mediatype>
							<trackindex>14</trackindex>
							<clipindex>3</clipindex>
							<groupindex>1</groupindex>
						</link>
						<link>
							<linkclipref>clipitem-746</linkclipref>
							<mediatype>audio</mediatype>
							<trackindex>15</trackindex>
							<clipindex>3</clipindex>
							<groupindex>1</groupindex>
						</link>
					</clipitem>
					<transitionitem>
						<start>5506</start>
						<end>5578</end>
						<alignment>start-black</alignment>
						<cutPoint>0</cutPoint>
						<rate>
							<timebase>25</timebase>
							<ntsc>FALSE</ntsc>
						</rate>
						<effect>
							<name>Cross Fade (+3dB)</name>
							<effectid>KGAudioTransCrossFade3dB</effectid>
							<effecttype>transition</effecttype>
							<mediatype>audio</mediatype>
							<wipecode>0</wipecode>
							<wipeaccuracy>100</wipeaccuracy>
							<startratio>0</startratio>
							<endratio>1</endratio>
							<reverse>FALSE</reverse>
						</effect>
					</transitionitem>
					<clipitem id="clipitem-747" frameBlend="FALSE" PannerCurrentValue="0.5" PannerKeyframes="" PannerStartKeyframe="-91445760000000000,0.5,0,0,0,0,0,0" PannerIsInverted="true" PannerName="Balance">
						<masterclipid>masterclip-35</masterclipid>
						<name>apocalypse_now_begynnelsen</name>
						<enabled>TRUE</enabled>
						<duration>9005</duration>
						<rate>
							<ntsc>TRUE</ntsc>
							<timebase>30</timebase>
						</rate>
						<start>-1</start>
						<end>-1</end>
						<in>3518</in>
						<out>4373</out>
						<file id="file-35"/>
						<sourcetrack>
							<mediatype>audio</mediatype>
							<trackindex>2</trackindex>
						</sourcetrack>
							<filter>
								<effect>
									<name>Audio Levels</name>
									<effectid>audiolevels</effectid>
									<effectcategory>audiolevels</effectcategory>
									<effecttype>audiolevels</effecttype>
									<mediatype>audio</mediatype>
									<parameter authoringApp="PremierePro">
										<parameterid>level</parameterid>
										<name>Level</name>
										<valuemin>0</valuemin>
										<valuemax>3.98109</valuemax>
										<value>0.99763</value>
										<keyframe>
											<when>3752</when>
											<value>0.99763</value>
										</keyframe>
										<keyframe>
											<when>3781</when>
											<value>0.668596</value>
										</keyframe>
										<keyframe>
											<when>3790</when>
											<value>0.343254</value>
										</keyframe>
										<keyframe>
											<when>3818</when>
											<value>0.250593</value>
										</keyframe>
									</parameter>
								</effect>
							</filter>
							<filter>
								<effect>
									<name>Audio Pan</name>
									<effectid>audiopan</effectid>
									<effectcategory>audiopan</effectcategory>
									<effecttype>audiopan</effecttype>
									<mediatype>audio</mediatype>
									<parameter authoringApp="PremierePro">
										<parameterid>pan</parameterid>
										<name>Pan</name>
										<valuemin>-1</valuemin>
										<valuemax>1</valuemax>
										<value>0</value>
									</parameter>
								</effect>
							</filter>
						<link>
							<linkclipref>clipitem-737</linkclipref>
							<mediatype>audio</mediatype>
							<trackindex>14</trackindex>
							<clipindex>5</clipindex>
							<groupindex>1</groupindex>
						</link>
						<link>
							<linkclipref>clipitem-747</linkclipref>
							<mediatype>audio</mediatype>
							<trackindex>15</trackindex>
							<clipindex>5</clipindex>
							<groupindex>1</groupindex>
						</link>
					</clipitem>
					<transitionitem>
						<start>6231</start>
						<end>6361</end>
						<alignment>end-black</alignment>
						<cutPoint>130</cutPoint>
						<rate>
							<timebase>25</timebase>
							<ntsc>FALSE</ntsc>
						</rate>
						<effect>
							<name>Cross Fade (+3dB)</name>
							<effectid>KGAudioTransCrossFade3dB</effectid>
							<effecttype>transition</effecttype>
							<mediatype>audio</mediatype>
							<wipecode>0</wipecode>
							<wipeaccuracy>100</wipeaccuracy>
							<startratio>0</startratio>
							<endratio>1</endratio>
							<reverse>FALSE</reverse>
						</effect>
					</transitionitem>
					<transitionitem>
						<start>6739</start>
						<end>6741</end>
						<alignment>start-black</alignment>
						<cutPoint>0</cutPoint>
						<rate>
							<timebase>25</timebase>
							<ntsc>FALSE</ntsc>
						</rate>
						<effect>
							<name>Cross Fade (+3dB)</name>
							<effectid>KGAudioTransCrossFade3dB</effectid>
							<effecttype>transition</effecttype>
							<mediatype>audio</mediatype>
							<wipecode>0</wipecode>
							<wipeaccuracy>100</wipeaccuracy>
							<startratio>0</startratio>
							<endratio>1</endratio>
							<reverse>FALSE</reverse>
						</effect>
					</transitionitem>
					<clipitem id="clipitem-748" frameBlend="FALSE" PannerCurrentValue="0.5" PannerKeyframes="" PannerStartKeyframe="-91445760000000000,0.5,0,0,0,0,0,0" PannerIsInverted="true" PannerName="Balance">
						<masterclipid>masterclip-46</masterclipid>
						<name>Hearts of darknes</name>
						<enabled>TRUE</enabled>
						<duration>14260</duration>
						<rate>
							<ntsc>TRUE</ntsc>
							<timebase>30</timebase>
						</rate>
						<start>-1</start>
						<end>-1</end>
						<in>765</in>
						<out>795</out>
						<file id="file-46"/>
						<sourcetrack>
							<mediatype>audio</mediatype>
							<trackindex>2</trackindex>
						</sourcetrack>
							<filter>
								<effect>
									<name>Gain</name>
									<effectid>{61756678, 4761696e, 4b657947}</effectid>
									<effecttype>filter</effecttype>
									<mediatype>audio</mediatype>
									<parameter authoringApp="PremierePro">
										<parameterid>Gain(dB)</parameterid>
										<name>Gain(dB)</name>
										<valuemin>-96</valuemin>
										<valuemax>96</valuemax>
										<value>2</value>
									</parameter>
								</effect>
							</filter>
							<filter>
								<effect>
									<name>Audio Levels</name>
									<effectid>audiolevels</effectid>
									<effectcategory>audiolevels</effectcategory>
									<effecttype>audiolevels</effecttype>
									<mediatype>audio</mediatype>
									<parameter authoringApp="PremierePro">
										<parameterid>level</parameterid>
										<name>Level</name>
										<valuemin>0</valuemin>
										<valuemax>3.98109</valuemax>
										<value>1.99526</value>
									</parameter>
								</effect>
							</filter>
							<filter>
								<effect>
									<name>Audio Pan</name>
									<effectid>audiopan</effectid>
									<effectcategory>audiopan</effectcategory>
									<effecttype>audiopan</effecttype>
									<mediatype>audio</mediatype>
									<parameter authoringApp="PremierePro">
										<parameterid>pan</parameterid>
										<name>Pan</name>
										<valuemin>-1</valuemin>
										<valuemax>1</valuemax>
										<value>0</value>
									</parameter>
								</effect>
							</filter>
						<link>
							<linkclipref>clipitem-738</linkclipref>
							<mediatype>audio</mediatype>
							<trackindex>14</trackindex>
							<clipindex>8</clipindex>
							<groupindex>1</groupindex>
						</link>
						<link>
							<linkclipref>clipitem-748</linkclipref>
							<mediatype>audio</mediatype>
							<trackindex>15</trackindex>
							<clipindex>8</clipindex>
							<groupindex>1</groupindex>
						</link>
					</clipitem>
					<transitionitem>
						<start>6765</start>
						<end>6769</end>
						<alignment>end-black</alignment>
						<cutPoint>4</cutPoint>
						<rate>
							<timebase>25</timebase>
							<ntsc>FALSE</ntsc>
						</rate>
						<effect>
							<name>Cross Fade (+3dB)</name>
							<effectid>KGAudioTransCrossFade3dB</effectid>
							<effecttype>transition</effecttype>
							<mediatype>audio</mediatype>
							<wipecode>0</wipecode>
							<wipeaccuracy>100</wipeaccuracy>
							<startratio>0</startratio>
							<endratio>1</endratio>
							<reverse>FALSE</reverse>
						</effect>
					</transitionitem>
					<transitionitem>
						<start>6785</start>
						<end>6789</end>
						<alignment>start-black</alignment>
						<cutPoint>0</cutPoint>
						<rate>
							<timebase>25</timebase>
							<ntsc>FALSE</ntsc>
						</rate>
						<effect>
							<name>Cross Fade (+3dB)</name>
							<effectid>KGAudioTransCrossFade3dB</effectid>
							<effecttype>transition</effecttype>
							<mediatype>audio</mediatype>
							<wipecode>0</wipecode>
							<wipeaccuracy>100</wipeaccuracy>
							<startratio>0</startratio>
							<endratio>1</endratio>
							<reverse>FALSE</reverse>
						</effect>
					</transitionitem>
					<clipitem id="clipitem-749" frameBlend="FALSE" PannerCurrentValue="0.5" PannerKeyframes="" PannerStartKeyframe="-91445760000000000,0.5,0,0,0,0,0,0" PannerIsInverted="true" PannerName="Balance">
						<masterclipid>masterclip-46</masterclipid>
						<name>Hearts of darknes</name>
						<enabled>TRUE</enabled>
						<duration>14260</duration>
						<rate>
							<ntsc>TRUE</ntsc>
							<timebase>30</timebase>
						</rate>
						<start>-1</start>
						<end>-1</end>
						<in>820</in>
						<out>852</out>
						<file id="file-46"/>
						<sourcetrack>
							<mediatype>audio</mediatype>
							<trackindex>2</trackindex>
						</sourcetrack>
							<filter>
								<effect>
									<name>Gain</name>
									<effectid>{61756678, 4761696e, 4b657947}</effectid>
									<effecttype>filter</effecttype>
									<mediatype>audio</mediatype>
									<parameter authoringApp="PremierePro">
										<parameterid>Gain(dB)</parameterid>
										<name>Gain(dB)</name>
										<valuemin>-96</valuemin>
										<valuemax>96</valuemax>
										<value>2</value>
									</parameter>
								</effect>
							</filter>
							<filter>
								<effect>
									<name>Audio Pan</name>
									<effectid>audiopan</effectid>
									<effectcategory>audiopan</effectcategory>
									<effecttype>audiopan</effecttype>
									<mediatype>audio</mediatype>
									<parameter authoringApp="PremierePro">
										<parameterid>pan</parameterid>
										<name>Pan</name>
										<valuemin>-1</valuemin>
										<valuemax>1</valuemax>
										<value>0</value>
									</parameter>
								</effect>
							</filter>
						<link>
							<linkclipref>clipitem-739</linkclipref>
							<mediatype>audio</mediatype>
							<trackindex>14</trackindex>
							<clipindex>11</clipindex>
							<groupindex>1</groupindex>
						</link>
						<link>
							<linkclipref>clipitem-749</linkclipref>
							<mediatype>audio</mediatype>
							<trackindex>15</trackindex>
							<clipindex>11</clipindex>
							<groupindex>1</groupindex>
						</link>
					</clipitem>
					<transitionitem>
						<start>6816</start>
						<end>6817</end>
						<alignment>end-black</alignment>
						<cutPoint>1</cutPoint>
						<rate>
							<timebase>25</timebase>
							<ntsc>FALSE</ntsc>
						</rate>
						<effect>
							<name>Cross Fade (+3dB)</name>
							<effectid>KGAudioTransCrossFade3dB</effectid>
							<effecttype>transition</effecttype>
							<mediatype>audio</mediatype>
							<wipecode>0</wipecode>
							<wipeaccuracy>100</wipeaccuracy>
							<startratio>0</startratio>
							<endratio>1</endratio>
							<reverse>FALSE</reverse>
						</effect>
					</transitionitem>
					<transitionitem>
						<start>6823</start>
						<end>6830</end>
						<alignment>start-black</alignment>
						<cutPoint>0</cutPoint>
						<rate>
							<timebase>25</timebase>
							<ntsc>FALSE</ntsc>
						</rate>
						<effect>
							<name>Cross Fade (+3dB)</name>
							<effectid>KGAudioTransCrossFade3dB</effectid>
							<effecttype>transition</effecttype>
							<mediatype>audio</mediatype>
							<wipecode>0</wipecode>
							<wipeaccuracy>100</wipeaccuracy>
							<startratio>0</startratio>
							<endratio>1</endratio>
							<reverse>FALSE</reverse>
						</effect>
					</transitionitem>
					<clipitem id="clipitem-750" frameBlend="FALSE" PannerCurrentValue="0.5" PannerKeyframes="" PannerStartKeyframe="-91445760000000000,0.5,0,0,0,0,0,0" PannerIsInverted="true" PannerName="Balance">
						<masterclipid>masterclip-46</masterclipid>
						<name>Hearts of darknes</name>
						<enabled>TRUE</enabled>
						<duration>14260</duration>
						<rate>
							<ntsc>TRUE</ntsc>
							<timebase>30</timebase>
						</rate>
						<start>-1</start>
						<end>-1</end>
						<in>1116</in>
						<out>1177</out>
						<file id="file-46"/>
						<sourcetrack>
							<mediatype>audio</mediatype>
							<trackindex>2</trackindex>
						</sourcetrack>
							<filter>
								<effect>
									<name>Gain</name>
									<effectid>{61756678, 4761696e, 4b657947}</effectid>
									<effecttype>filter</effecttype>
									<mediatype>audio</mediatype>
									<parameter authoringApp="PremierePro">
										<parameterid>Gain(dB)</parameterid>
										<name>Gain(dB)</name>
										<valuemin>-96</valuemin>
										<valuemax>96</valuemax>
										<value>2</value>
									</parameter>
								</effect>
							</filter>
							<filter>
								<effect>
									<name>Audio Pan</name>
									<effectid>audiopan</effectid>
									<effectcategory>audiopan</effectcategory>
									<effecttype>audiopan</effecttype>
									<mediatype>audio</mediatype>
									<parameter authoringApp="PremierePro">
										<parameterid>pan</parameterid>
										<name>Pan</name>
										<valuemin>-1</valuemin>
										<valuemax>1</valuemax>
										<value>0</value>
									</parameter>
								</effect>
							</filter>
						<link>
							<linkclipref>clipitem-740</linkclipref>
							<mediatype>audio</mediatype>
							<trackindex>14</trackindex>
							<clipindex>14</clipindex>
							<groupindex>1</groupindex>
						</link>
						<link>
							<linkclipref>clipitem-750</linkclipref>
							<mediatype>audio</mediatype>
							<trackindex>15</trackindex>
							<clipindex>14</clipindex>
							<groupindex>1</groupindex>
						</link>
					</clipitem>
					<transitionitem>
						<start>6869</start>
						<end>6884</end>
						<alignment>center</alignment>
						<cutPoint>7</cutPoint>
						<rate>
							<timebase>25</timebase>
							<ntsc>FALSE</ntsc>
						</rate>
						<effect>
							<name>Cross Fade (+3dB)</name>
							<effectid>KGAudioTransCrossFade3dB</effectid>
							<effecttype>transition</effecttype>
							<mediatype>audio</mediatype>
							<wipecode>0</wipecode>
							<wipeaccuracy>100</wipeaccuracy>
							<startratio>0</startratio>
							<endratio>1</endratio>
							<reverse>FALSE</reverse>
						</effect>
					</transitionitem>
					<clipitem id="clipitem-751" frameBlend="FALSE" PannerCurrentValue="0.5" PannerKeyframes="" PannerStartKeyframe="-91445760000000000,0.5,0,0,0,0,0,0" PannerIsInverted="true" PannerName="Balance">
						<masterclipid>masterclip-47</masterclipid>
						<name>Hearts of darkness2</name>
						<enabled>TRUE</enabled>
						<duration>4970</duration>
						<rate>
							<ntsc>TRUE</ntsc>
							<timebase>30</timebase>
						</rate>
						<start>-1</start>
						<end>-1</end>
						<in>81</in>
						<out>309</out>
						<file id="file-47"/>
						<sourcetrack>
							<mediatype>audio</mediatype>
							<trackindex>2</trackindex>
						</sourcetrack>
							<filter>
								<effect>
									<name>Audio Levels</name>
									<effectid>audiolevels</effectid>
									<effectcategory>audiolevels</effectcategory>
									<effecttype>audiolevels</effecttype>
									<mediatype>audio</mediatype>
									<parameter authoringApp="PremierePro">
										<parameterid>level</parameterid>
										<name>Level</name>
										<valuemin>0</valuemin>
										<valuemax>3.98109</valuemax>
										<value>0.554239</value>
									</parameter>
								</effect>
							</filter>
							<filter>
								<effect>
									<name>Audio Pan</name>
									<effectid>audiopan</effectid>
									<effectcategory>audiopan</effectcategory>
									<effecttype>audiopan</effecttype>
									<mediatype>audio</mediatype>
									<parameter authoringApp="PremierePro">
										<parameterid>pan</parameterid>
										<name>Pan</name>
										<valuemin>-1</valuemin>
										<valuemax>1</valuemax>
										<value>0</value>
									</parameter>
								</effect>
							</filter>
						<link>
							<linkclipref>clipitem-741</linkclipref>
							<mediatype>audio</mediatype>
							<trackindex>14</trackindex>
							<clipindex>16</clipindex>
							<groupindex>1</groupindex>
						</link>
						<link>
							<linkclipref>clipitem-751</linkclipref>
							<mediatype>audio</mediatype>
							<trackindex>15</trackindex>
							<clipindex>16</clipindex>
							<groupindex>1</groupindex>
						</link>
					</clipitem>
					<transitionitem>
						<start>7054</start>
						<end>7097</end>
						<alignment>center</alignment>
						<cutPoint>21</cutPoint>
						<rate>
							<timebase>25</timebase>
							<ntsc>FALSE</ntsc>
						</rate>
						<effect>
							<name>Cross Fade (+3dB)</name>
							<effectid>KGAudioTransCrossFade3dB</effectid>
							<effecttype>transition</effecttype>
							<mediatype>audio</mediatype>
							<wipecode>0</wipecode>
							<wipeaccuracy>100</wipeaccuracy>
							<startratio>0</startratio>
							<endratio>1</endratio>
							<reverse>FALSE</reverse>
						</effect>
					</transitionitem>
					<clipitem id="clipitem-752" frameBlend="FALSE" PannerCurrentValue="0.5" PannerKeyframes="" PannerStartKeyframe="-91445760000000000,0.5,0,0,0,0,0,0" PannerIsInverted="true" PannerName="Balance">
						<masterclipid>masterclip-47</masterclipid>
						<name>Hearts of darkness2</name>
						<enabled>TRUE</enabled>
						<duration>4970</duration>
						<rate>
							<ntsc>TRUE</ntsc>
							<timebase>30</timebase>
						</rate>
						<start>-1</start>
						<end>7369</end>
						<in>67</in>
						<out>382</out>
						<file id="file-47"/>
						<sourcetrack>
							<mediatype>audio</mediatype>
							<trackindex>2</trackindex>
						</sourcetrack>
							<filter>
								<effect>
									<name>Audio Levels</name>
									<effectid>audiolevels</effectid>
									<effectcategory>audiolevels</effectcategory>
									<effecttype>audiolevels</effecttype>
									<mediatype>audio</mediatype>
									<parameter authoringApp="PremierePro">
										<parameterid>level</parameterid>
										<name>Level</name>
										<valuemin>0</valuemin>
										<valuemax>3.98109</valuemax>
										<value>0.554239</value>
									</parameter>
								</effect>
							</filter>
							<filter>
								<effect>
									<name>Audio Pan</name>
									<effectid>audiopan</effectid>
									<effectcategory>audiopan</effectcategory>
									<effecttype>audiopan</effecttype>
									<mediatype>audio</mediatype>
									<parameter authoringApp="PremierePro">
										<parameterid>pan</parameterid>
										<name>Pan</name>
										<valuemin>-1</valuemin>
										<valuemax>1</valuemax>
										<value>0</value>
									</parameter>
								</effect>
							</filter>
						<link>
							<linkclipref>clipitem-742</linkclipref>
							<mediatype>audio</mediatype>
							<trackindex>14</trackindex>
							<clipindex>18</clipindex>
							<groupindex>1</groupindex>
						</link>
						<link>
							<linkclipref>clipitem-752</linkclipref>
							<mediatype>audio</mediatype>
							<trackindex>15</trackindex>
							<clipindex>18</clipindex>
							<groupindex>1</groupindex>
						</link>
					</clipitem>
					<transitionitem>
						<start>9096</start>
						<end>9151</end>
						<alignment>start-black</alignment>
						<cutPoint>0</cutPoint>
						<rate>
							<timebase>25</timebase>
							<ntsc>FALSE</ntsc>
						</rate>
						<effect>
							<name>Cross Fade (+3dB)</name>
							<effectid>KGAudioTransCrossFade3dB</effectid>
							<effecttype>transition</effecttype>
							<mediatype>audio</mediatype>
							<wipecode>0</wipecode>
							<wipeaccuracy>100</wipeaccuracy>
							<startratio>0</startratio>
							<endratio>1</endratio>
							<reverse>FALSE</reverse>
						</effect>
					</transitionitem>
					<clipitem id="clipitem-753" frameBlend="FALSE" PannerCurrentValue="0.5" PannerKeyframes="" PannerStartKeyframe="-91445760000000000,0.5,0,0,0,0,0,0" PannerIsInverted="true" PannerName="Balance">
						<masterclipid>masterclip-213</masterclipid>
						<name>Skibsværft, atmosfære, stor hall.WAV</name>
						<enabled>TRUE</enabled>
						<duration>4337</duration>
						<rate>
							<ntsc>TRUE</ntsc>
							<timebase>30</timebase>
						</rate>
						<start>-1</start>
						<end>9512</end>
						<in>943</in>
						<out>1359</out>
						<file id="file-212"/>
						<sourcetrack>
							<mediatype>audio</mediatype>
							<trackindex>2</trackindex>
						</sourcetrack>
							<filter>
								<effect>
									<name>Audio Levels</name>
									<effectid>audiolevels</effectid>
									<effectcategory>audiolevels</effectcategory>
									<effecttype>audiolevels</effecttype>
									<mediatype>audio</mediatype>
									<parameter authoringApp="PremierePro">
										<parameterid>level</parameterid>
										<name>Level</name>
										<valuemin>0</valuemin>
										<valuemax>3.98109</valuemax>
										<value>0.591409</value>
										<keyframe>
											<when>1131</when>
											<value>0.591409</value>
										</keyframe>
										<keyframe>
											<when>1151</when>
											<value>0</value>
										</keyframe>
									</parameter>
								</effect>
							</filter>
							<filter>
								<effect>
									<name>Audio Pan</name>
									<effectid>audiopan</effectid>
									<effectcategory>audiopan</effectcategory>
									<effecttype>audiopan</effecttype>
									<mediatype>audio</mediatype>
									<parameter authoringApp="PremierePro">
										<parameterid>pan</parameterid>
										<name>Pan</name>
										<valuemin>-1</valuemin>
										<valuemax>1</valuemax>
										<value>0</value>
									</parameter>
								</effect>
							</filter>
						<link>
							<linkclipref>clipitem-743</linkclipref>
							<mediatype>audio</mediatype>
							<trackindex>14</trackindex>
							<clipindex>20</clipindex>
							<groupindex>1</groupindex>
						</link>
						<link>
							<linkclipref>clipitem-753</linkclipref>
							<mediatype>audio</mediatype>
							<trackindex>15</trackindex>
							<clipindex>20</clipindex>
							<groupindex>1</groupindex>
						</link>
					</clipitem>
					<enabled>TRUE</enabled>
					<locked>FALSE</locked>
					<outputchannelindex>2</outputchannelindex>
				</track>
				<track TL.SQTrackAudioKeyframeStyle="0" TL.SQTrackShy="0" TL.SQTrackExpandedHeight="75" TL.SQTrackExpanded="1" MZ.TrackTargeted="1" PannerCurrentValue="0.5" PannerIsInverted="true" PannerStartKeyframe="-91445760000000000,0.5,0,0,0,0,0,0" PannerName="Balance" currentExplodedTrackIndex="0" totalExplodedTrackCount="2" premiereTrackType="Stereo">
					<transitionitem>
						<start>8480</start>
						<end>8525</end>
						<alignment>start-black</alignment>
						<cutPoint>0</cutPoint>
						<rate>
							<timebase>25</timebase>
							<ntsc>FALSE</ntsc>
						</rate>
						<effect>
							<name>Cross Fade (+3dB)</name>
							<effectid>KGAudioTransCrossFade3dB</effectid>
							<effecttype>transition</effecttype>
							<mediatype>audio</mediatype>
							<wipecode>0</wipecode>
							<wipeaccuracy>100</wipeaccuracy>
							<startratio>0</startratio>
							<endratio>1</endratio>
							<reverse>FALSE</reverse>
						</effect>
					</transitionitem>
					<clipitem id="clipitem-754" frameBlend="FALSE" PannerCurrentValue="0.5" PannerKeyframes="" PannerStartKeyframe="-91445760000000000,0.5,0,0,0,0,0,0" PannerIsInverted="true" PannerName="Balance">
						<masterclipid>masterclip-56</masterclipid>
						<name>abyss</name>
						<enabled>TRUE</enabled>
						<duration>2922</duration>
						<rate>
							<ntsc>TRUE</ntsc>
							<timebase>30</timebase>
						</rate>
						<start>-1</start>
						<end>-1</end>
						<in>651</in>
						<out>1386</out>
						<file id="file-56"/>
						<sourcetrack>
							<mediatype>audio</mediatype>
							<trackindex>1</trackindex>
						</sourcetrack>
							<filter>
								<effect>
									<name>Gain</name>
									<effectid>{61756678, 4761696e, 4b657947}</effectid>
									<effecttype>filter</effecttype>
									<mediatype>audio</mediatype>
									<parameter authoringApp="PremierePro">
										<parameterid>Gain(dB)</parameterid>
										<name>Gain(dB)</name>
										<valuemin>-96</valuemin>
										<valuemax>96</valuemax>
										<value>6</value>
									</parameter>
								</effect>
							</filter>
							<filter>
								<effect>
									<name>Audio Levels</name>
									<effectid>audiolevels</effectid>
									<effectcategory>audiolevels</effectcategory>
									<effecttype>audiolevels</effecttype>
									<mediatype>audio</mediatype>
									<parameter authoringApp="PremierePro">
										<parameterid>level</parameterid>
										<name>Level</name>
										<valuemin>0</valuemin>
										<valuemax>3.98109</valuemax>
										<value>0</value>
										<keyframe>
											<when>777</when>
											<value>1.99526</value>
										</keyframe>
										<keyframe>
											<when>807</when>
											<value>0.881963</value>
										</keyframe>
										<keyframe>
											<when>916</when>
											<value>0.881963</value>
										</keyframe>
										<keyframe>
											<when>939</when>
											<value>0.8884</value>
										</keyframe>
										<keyframe>
											<when>999</when>
											<value>0.80833</value>
										</keyframe>
										<keyframe>
											<when>1021</when>
											<value>0</value>
										</keyframe>
									</parameter>
								</effect>
							</filter>
							<filter>
								<effect>
									<name>Audio Pan</name>
									<effectid>audiopan</effectid>
									<effectcategory>audiopan</effectcategory>
									<effecttype>audiopan</effecttype>
									<mediatype>audio</mediatype>
									<parameter authoringApp="PremierePro">
										<parameterid>pan</parameterid>
										<name>Pan</name>
										<valuemin>-1</valuemin>
										<valuemax>1</valuemax>
										<value>0</value>
									</parameter>
								</effect>
							</filter>
						<link>
							<linkclipref>clipitem-754</linkclipref>
							<mediatype>audio</mediatype>
							<trackindex>16</trackindex>
							<clipindex>2</clipindex>
							<groupindex>1</groupindex>
						</link>
						<link>
							<linkclipref>clipitem-755</linkclipref>
							<mediatype>audio</mediatype>
							<trackindex>17</trackindex>
							<clipindex>2</clipindex>
							<groupindex>1</groupindex>
						</link>
					</clipitem>
					<transitionitem>
						<start>9202</start>
						<end>9215</end>
						<alignment>end-black</alignment>
						<cutPoint>13</cutPoint>
						<rate>
							<timebase>25</timebase>
							<ntsc>FALSE</ntsc>
						</rate>
						<effect>
							<name>Cross Fade (+3dB)</name>
							<effectid>KGAudioTransCrossFade3dB</effectid>
							<effecttype>transition</effecttype>
							<mediatype>audio</mediatype>
							<wipecode>0</wipecode>
							<wipeaccuracy>100</wipeaccuracy>
							<startratio>0</startratio>
							<endratio>1</endratio>
							<reverse>FALSE</reverse>
						</effect>
					</transitionitem>
					<enabled>TRUE</enabled>
					<locked>FALSE</locked>
					<outputchannelindex>1</outputchannelindex>
				</track>
				<track TL.SQTrackAudioKeyframeStyle="0" TL.SQTrackShy="0" TL.SQTrackExpandedHeight="75" TL.SQTrackExpanded="1" MZ.TrackTargeted="1" PannerCurrentValue="0.5" PannerIsInverted="true" PannerStartKeyframe="-91445760000000000,0.5,0,0,0,0,0,0" PannerName="Balance" currentExplodedTrackIndex="1" totalExplodedTrackCount="2" premiereTrackType="Stereo">
					<transitionitem>
						<start>8480</start>
						<end>8525</end>
						<alignment>start-black</alignment>
						<cutPoint>0</cutPoint>
						<rate>
							<timebase>25</timebase>
							<ntsc>FALSE</ntsc>
						</rate>
						<effect>
							<name>Cross Fade (+3dB)</name>
							<effectid>KGAudioTransCrossFade3dB</effectid>
							<effecttype>transition</effecttype>
							<mediatype>audio</mediatype>
							<wipecode>0</wipecode>
							<wipeaccuracy>100</wipeaccuracy>
							<startratio>0</startratio>
							<endratio>1</endratio>
							<reverse>FALSE</reverse>
						</effect>
					</transitionitem>
					<clipitem id="clipitem-755" frameBlend="FALSE" PannerCurrentValue="0.5" PannerKeyframes="" PannerStartKeyframe="-91445760000000000,0.5,0,0,0,0,0,0" PannerIsInverted="true" PannerName="Balance">
						<masterclipid>masterclip-56</masterclipid>
						<name>abyss</name>
						<enabled>TRUE</enabled>
						<duration>2922</duration>
						<rate>
							<ntsc>TRUE</ntsc>
							<timebase>30</timebase>
						</rate>
						<start>-1</start>
						<end>-1</end>
						<in>651</in>
						<out>1386</out>
						<file id="file-56"/>
						<sourcetrack>
							<mediatype>audio</mediatype>
							<trackindex>2</trackindex>
						</sourcetrack>
							<filter>
								<effect>
									<name>Gain</name>
									<effectid>{61756678, 4761696e, 4b657947}</effectid>
									<effecttype>filter</effecttype>
									<mediatype>audio</mediatype>
									<parameter authoringApp="PremierePro">
										<parameterid>Gain(dB)</parameterid>
										<name>Gain(dB)</name>
										<valuemin>-96</valuemin>
										<valuemax>96</valuemax>
										<value>6</value>
									</parameter>
								</effect>
							</filter>
							<filter>
								<effect>
									<name>Audio Levels</name>
									<effectid>audiolevels</effectid>
									<effectcategory>audiolevels</effectcategory>
									<effecttype>audiolevels</effecttype>
									<mediatype>audio</mediatype>
									<parameter authoringApp="PremierePro">
										<parameterid>level</parameterid>
										<name>Level</name>
										<valuemin>0</valuemin>
										<valuemax>3.98109</valuemax>
										<value>0</value>
										<keyframe>
											<when>777</when>
											<value>1.99526</value>
										</keyframe>
										<keyframe>
											<when>807</when>
											<value>0.881963</value>
										</keyframe>
										<keyframe>
											<when>916</when>
											<value>0.881963</value>
										</keyframe>
										<keyframe>
											<when>939</when>
											<value>0.8884</value>
										</keyframe>
										<keyframe>
											<when>999</when>
											<value>0.80833</value>
										</keyframe>
										<keyframe>
											<when>1021</when>
											<value>0</value>
										</keyframe>
									</parameter>
								</effect>
							</filter>
							<filter>
								<effect>
									<name>Audio Pan</name>
									<effectid>audiopan</effectid>
									<effectcategory>audiopan</effectcategory>
									<effecttype>audiopan</effecttype>
									<mediatype>audio</mediatype>
									<parameter authoringApp="PremierePro">
										<parameterid>pan</parameterid>
										<name>Pan</name>
										<valuemin>-1</valuemin>
										<valuemax>1</valuemax>
										<value>0</value>
									</parameter>
								</effect>
							</filter>
						<link>
							<linkclipref>clipitem-754</linkclipref>
							<mediatype>audio</mediatype>
							<trackindex>16</trackindex>
							<clipindex>2</clipindex>
							<groupindex>1</groupindex>
						</link>
						<link>
							<linkclipref>clipitem-755</linkclipref>
							<mediatype>audio</mediatype>
							<trackindex>17</trackindex>
							<clipindex>2</clipindex>
							<groupindex>1</groupindex>
						</link>
					</clipitem>
					<transitionitem>
						<start>9202</start>
						<end>9215</end>
						<alignment>end-black</alignment>
						<cutPoint>13</cutPoint>
						<rate>
							<timebase>25</timebase>
							<ntsc>FALSE</ntsc>
						</rate>
						<effect>
							<name>Cross Fade (+3dB)</name>
							<effectid>KGAudioTransCrossFade3dB</effectid>
							<effecttype>transition</effecttype>
							<mediatype>audio</mediatype>
							<wipecode>0</wipecode>
							<wipeaccuracy>100</wipeaccuracy>
							<startratio>0</startratio>
							<endratio>1</endratio>
							<reverse>FALSE</reverse>
						</effect>
					</transitionitem>
					<enabled>TRUE</enabled>
					<locked>FALSE</locked>
					<outputchannelindex>2</outputchannelindex>
				</track>
				<track TL.SQTrackAudioKeyframeStyle="0" TL.SQTrackShy="0" TL.SQTrackExpandedHeight="25" TL.SQTrackExpanded="0" MZ.TrackTargeted="1" PannerCurrentValue="0.5" PannerIsInverted="true" PannerStartKeyframe="-91445760000000000,0.5,0,0,0,0,0,0" PannerName="Balance" currentExplodedTrackIndex="0" totalExplodedTrackCount="2" premiereTrackType="Stereo">
					<enabled>TRUE</enabled>
					<locked>FALSE</locked>
					<outputchannelindex>1</outputchannelindex>
				</track>
				<track TL.SQTrackAudioKeyframeStyle="0" TL.SQTrackShy="0" TL.SQTrackExpandedHeight="25" TL.SQTrackExpanded="0" MZ.TrackTargeted="1" PannerCurrentValue="0.5" PannerIsInverted="true" PannerStartKeyframe="-91445760000000000,0.5,0,0,0,0,0,0" PannerName="Balance" currentExplodedTrackIndex="1" totalExplodedTrackCount="2" premiereTrackType="Stereo">
					<enabled>TRUE</enabled>
					<locked>FALSE</locked>
					<outputchannelindex>2</outputchannelindex>
				</track>
			</audio>
		</media>
		<timecode>
			<rate>
				<timebase>25</timebase>
				<ntsc>FALSE</ntsc>
			</rate>
			<string>00:00:00:00</string>
			<frame>0</frame>
			<displayformat>NDF</displayformat>
		</timecode>
			<marker>
				<comment></comment>
				<name></name>
				<in>22420</in>
				<out>-1</out>
			</marker>
			<marker>
				<comment></comment>
				<name></name>
				<in>13536</in>
				<out>-1</out>
			</marker>
			<marker>
				<comment></comment>
				<name></name>
				<in>25724</in>
				<out>-1</out>
			</marker>
			<marker>
				<comment></comment>
				<name></name>
				<in>13751</in>
				<out>-1</out>
			</marker>
			<marker>
				<comment></comment>
				<name></name>
				<in>44736</in>
				<out>-1</out>
			</marker>
	</sequence>
</xmeml>
