<?xml version="1.0" encoding="UTF-8"?>
<!DOCTYPE xmeml>
<xmeml version="4">
	<sequence id="sequence-9" TL.SQAudioVisibleBase="0" TL.SQVideoVisibleBase="0" TL.SQVisibleBaseTime="0" TL.SQAVDividerPosition="0.5" TL.SQHideShyTracks="0" TL.SQHeaderWidth="184" Monitor.ProgramZoomOut="19315376640000" Monitor.ProgramZoomIn="0" TL.SQTimePerPixel="0.87386181818181807" AM.TrackVScrollPosition="0" AM.TrackScrollPosition="0" MZ.EditLine="0" MZ.Sequence.PreviewFrameSizeHeight="1080" MZ.Sequence.PreviewFrameSizeWidth="1920" MZ.Sequence.AudioTimeDisplayFormat="200" MZ.Sequence.PreviewRenderingClassID="1297106761" MZ.Sequence.PreviewRenderingPresetCodec="1634755438" MZ.Sequence.PreviewRenderingPresetPath="EncoderPresets/SequencePreview/795454d9-d3c2-429d-9474-923ab13b7018/QuickTime.epr" MZ.Sequence.PreviewUseMaxRenderQuality="false" MZ.Sequence.PreviewUseMaxBitDepth="false" MZ.Sequence.EditingModeGUID="795454d9-d3c2-429d-9474-923ab13b7018" MZ.Sequence.VideoTimeDisplayFormat="101" MZ.WorkOutPoint="305215464960000" MZ.WorkInPoint="0" explodedTracks="true">
		<uuid>20315de0-7202-40b6-a468-623f7541207d</uuid>
		<duration>0</duration>
		<rate>
			<timebase>25</timebase>
			<ntsc>FALSE</ntsc>
		</rate>
		<name>BroShow ep Vold uten FLICKR</name>
		<media>
			<video>
				<format>
					<samplecharacteristics>
						<rate>
							<timebase>25</timebase>
							<ntsc>FALSE</ntsc>
						</rate>
						<codec>
							<name>Apple ProRes 422</name>
							<appspecificdata>
								<appname>Final Cut Pro</appname>
								<appmanufacturer>Apple Inc.</appmanufacturer>
								<appversion>7.0</appversion>
								<data>
									<qtcodec>
										<codecname>Apple ProRes 422</codecname>
										<codectypename>Apple ProRes 422</codectypename>
										<codectypecode>apcn</codectypecode>
										<codecvendorcode>appl</codecvendorcode>
										<spatialquality>1024</spatialquality>
										<temporalquality>0</temporalquality>
										<keyframerate>0</keyframerate>
										<datarate>0</datarate>
									</qtcodec>
								</data>
							</appspecificdata>
						</codec>
						<width>1920</width>
						<height>1080</height>
						<anamorphic>FALSE</anamorphic>
						<pixelaspectratio>square</pixelaspectratio>
						<fielddominance>none</fielddominance>
						<colordepth>24</colordepth>
					</samplecharacteristics>
				</format>
				<track TL.SQTrackShy="0" TL.SQTrackExpandedHeight="55" TL.SQTrackExpanded="1" MZ.TrackTargeted="1">
					<enabled>TRUE</enabled>
					<locked>FALSE</locked>
				</track>
				<track TL.SQTrackShy="0" TL.SQTrackExpandedHeight="45" TL.SQTrackExpanded="1" MZ.TrackTargeted="1">
					<enabled>TRUE</enabled>
					<locked>FALSE</locked>
				</track>
				<track TL.SQTrackShy="0" TL.SQTrackExpandedHeight="45" TL.SQTrackExpanded="1" MZ.TrackTargeted="1">
					<clipitem id="clipitem-488">
						<masterclipid>masterclip-109</masterclipid>
						<name>NRK_sluttplakat_2016.mov</name>
						<enabled>TRUE</enabled>
						<duration>125</duration>
						<rate>
							<timebase>25</timebase>
							<ntsc>FALSE</ntsc>
						</rate>
						<start>29914</start>
						<end>30039</end>
						<in>0</in>
						<out>125</out>
						<pproTicksIn>0</pproTicksIn>
						<pproTicksOut>1270080000000</pproTicksOut>
						<alphatype>none</alphatype>
						<pixelaspectratio>square</pixelaspectratio>
						<anamorphic>FALSE</anamorphic>
						<file id="file-98">
							<name>NRK_sluttplakat_2016.mov</name>
							<pathurl>file://localhost/Volumes/Bingen/Prosjekter/MYNT194016%20WHATS%20COOKING/Grafikk/nrk%20logo/NRK_sluttplakat_2016.mov</pathurl>
							<rate>
								<timebase>25</timebase>
								<ntsc>FALSE</ntsc>
							</rate>
							<duration>125</duration>
							<timecode>
								<rate>
									<timebase>25</timebase>
									<ntsc>FALSE</ntsc>
								</rate>
								<string>00:00:00:00</string>
								<frame>0</frame>
								<displayformat>NDF</displayformat>
								<reel>
									<name></name>
								</reel>
							</timecode>
							<media>
								<video>
									<samplecharacteristics>
										<rate>
											<timebase>25</timebase>
											<ntsc>FALSE</ntsc>
										</rate>
										<width>1920</width>
										<height>1080</height>
										<anamorphic>FALSE</anamorphic>
										<pixelaspectratio>square</pixelaspectratio>
										<fielddominance>none</fielddominance>
									</samplecharacteristics>
								</video>
							</media>
						</file>
						<logginginfo>
							<description></description>
							<scene></scene>
							<shottake></shottake>
							<lognote></lognote>
						</logginginfo>
						<labels>
							<label2>Violet</label2>
						</labels>
					</clipitem>
					<enabled>TRUE</enabled>
					<locked>FALSE</locked>
				</track>
				<track TL.SQTrackShy="0" TL.SQTrackExpandedHeight="45" TL.SQTrackExpanded="1" MZ.TrackTargeted="1">
					<enabled>TRUE</enabled>
					<locked>FALSE</locked>
				</track>
				<track TL.SQTrackShy="0" TL.SQTrackExpandedHeight="55" TL.SQTrackExpanded="1" MZ.TrackTargeted="1">
					<clipitem id="clipitem-489">
						<masterclipid>masterclip-110</masterclipid>
						<name>BroShow_Vold_Logo_Intro_Graphic_01.mov</name>
						<enabled>TRUE</enabled>
						<duration>80</duration>
						<rate>
							<timebase>25</timebase>
							<ntsc>FALSE</ntsc>
						</rate>
						<start>261</start>
						<end>319</end>
						<in>0</in>
						<out>58</out>
						<pproTicksIn>0</pproTicksIn>
						<pproTicksOut>589317120000</pproTicksOut>
						<alphatype>none</alphatype>
						<pixelaspectratio>square</pixelaspectratio>
						<anamorphic>FALSE</anamorphic>
						<file id="file-99">
							<name>BroShow_Vold_Logo_Intro_Graphic_01.mov</name>
							<pathurl>file://localhost/Volumes/Bingen/Prosjekter/MYNT194016%20WHATS%20COOKING/Grafikk/Renders/Logo_Intro_01/BroShow_Vold_Logo_Intro_Graphic_01.mov</pathurl>
							<rate>
								<timebase>25</timebase>
								<ntsc>FALSE</ntsc>
							</rate>
							<duration>80</duration>
							<timecode>
								<rate>
									<timebase>25</timebase>
									<ntsc>FALSE</ntsc>
								</rate>
								<string>00:00:10:11</string>
								<frame>261</frame>
								<displayformat>NDF</displayformat>
								<reel>
									<name></name>
								</reel>
							</timecode>
							<media>
								<video>
									<samplecharacteristics>
										<rate>
											<timebase>25</timebase>
											<ntsc>FALSE</ntsc>
										</rate>
										<width>1920</width>
										<height>1080</height>
										<anamorphic>FALSE</anamorphic>
										<pixelaspectratio>square</pixelaspectratio>
										<fielddominance>none</fielddominance>
									</samplecharacteristics>
								</video>
							</media>
						</file>
							<filter>
								<effect>
									<name>Opacity</name>
									<effectid>opacity</effectid>
									<effectcategory>motion</effectcategory>
									<effecttype>motion</effecttype>
									<mediatype>video</mediatype>
									<parameter authoringApp="PremierePro">
										<parameterid>opacity</parameterid>
										<name>opacity</name>
										<valuemin>0</valuemin>
										<valuemax>100</valuemax>
										<value>50</value>
									</parameter>
								</effect>
							</filter>
						<logginginfo>
							<description></description>
							<scene></scene>
							<shottake></shottake>
							<lognote></lognote>
						</logginginfo>
						<labels>
							<label2>Violet</label2>
						</labels>
					</clipitem>
					<clipitem id="clipitem-490">
						<masterclipid>masterclip-111</masterclipid>
						<name>BroShow_Vold_Supring_Abiel_Mikkel_Aon_06.mov</name>
						<enabled>TRUE</enabled>
						<duration>655</duration>
						<rate>
							<timebase>25</timebase>
							<ntsc>FALSE</ntsc>
						</rate>
						<start>319</start>
						<end>974</end>
						<in>0</in>
						<out>655</out>
						<pproTicksIn>0</pproTicksIn>
						<pproTicksOut>6655219200000</pproTicksOut>
						<alphatype>none</alphatype>
						<pixelaspectratio>square</pixelaspectratio>
						<anamorphic>FALSE</anamorphic>
						<file id="file-100">
							<name>BroShow_Vold_Supring_Abiel_Mikkel_Aon_06.mov</name>
							<pathurl>file://localhost/Volumes/Bingen/Prosjekter/MYNT194016%20WHATS%20COOKING/Grafikk/Renders/Supringer_01/BroShow_Vold_Supring_Abiel_Mikkel_Aon_06.mov</pathurl>
							<rate>
								<timebase>25</timebase>
								<ntsc>FALSE</ntsc>
							</rate>
							<duration>655</duration>
							<timecode>
								<rate>
									<timebase>25</timebase>
									<ntsc>FALSE</ntsc>
								</rate>
								<string>00:00:12:19</string>
								<frame>319</frame>
								<displayformat>NDF</displayformat>
								<reel>
									<name></name>
								</reel>
							</timecode>
							<media>
								<video>
									<samplecharacteristics>
										<rate>
											<timebase>25</timebase>
											<ntsc>FALSE</ntsc>
										</rate>
										<width>1920</width>
										<height>1080</height>
										<anamorphic>FALSE</anamorphic>
										<pixelaspectratio>square</pixelaspectratio>
										<fielddominance>none</fielddominance>
									</samplecharacteristics>
								</video>
							</media>
						</file>
							<filter>
								<effect>
									<name>Opacity</name>
									<effectid>opacity</effectid>
									<effectcategory>motion</effectcategory>
									<effecttype>motion</effecttype>
									<mediatype>video</mediatype>
									<parameter authoringApp="PremierePro">
										<parameterid>opacity</parameterid>
										<name>opacity</name>
										<valuemin>0</valuemin>
										<valuemax>100</valuemax>
										<value>50</value>
									</parameter>
								</effect>
							</filter>
						<logginginfo>
							<description></description>
							<scene></scene>
							<shottake></shottake>
							<lognote></lognote>
						</logginginfo>
						<labels>
							<label2>Violet</label2>
						</labels>
					</clipitem>
					<clipitem id="clipitem-491">
						<masterclipid>masterclip-112</masterclipid>
						<name>BroShow_Vold_DusteMikkel_Intro_Smack_02.mov</name>
						<enabled>TRUE</enabled>
						<duration>84</duration>
						<rate>
							<timebase>25</timebase>
							<ntsc>FALSE</ntsc>
						</rate>
						<start>11056</start>
						<end>11140</end>
						<in>0</in>
						<out>84</out>
						<pproTicksIn>0</pproTicksIn>
						<pproTicksOut>853493760000</pproTicksOut>
						<alphatype>none</alphatype>
						<pixelaspectratio>square</pixelaspectratio>
						<anamorphic>FALSE</anamorphic>
						<file id="file-101">
							<name>BroShow_Vold_DusteMikkel_Intro_Smack_02.mov</name>
							<pathurl>file://localhost/Volumes/Bingen/Prosjekter/MYNT194016%20WHATS%20COOKING/Grafikk/Renders/Dustemikkel_01/BroShow_Vold_DusteMikkel_Intro_Smack_02.mov</pathurl>
							<rate>
								<timebase>25</timebase>
								<ntsc>FALSE</ntsc>
							</rate>
							<duration>84</duration>
							<timecode>
								<rate>
									<timebase>25</timebase>
									<ntsc>FALSE</ntsc>
								</rate>
								<string>00:07:27:15</string>
								<frame>11190</frame>
								<displayformat>NDF</displayformat>
								<reel>
									<name></name>
								</reel>
							</timecode>
							<media>
								<video>
									<samplecharacteristics>
										<rate>
											<timebase>25</timebase>
											<ntsc>FALSE</ntsc>
										</rate>
										<width>1920</width>
										<height>1080</height>
										<anamorphic>FALSE</anamorphic>
										<pixelaspectratio>square</pixelaspectratio>
										<fielddominance>none</fielddominance>
									</samplecharacteristics>
								</video>
							</media>
						</file>
							<filter>
								<effect>
									<name>Opacity</name>
									<effectid>opacity</effectid>
									<effectcategory>motion</effectcategory>
									<effecttype>motion</effecttype>
									<mediatype>video</mediatype>
									<parameter authoringApp="PremierePro">
										<parameterid>opacity</parameterid>
										<name>opacity</name>
										<valuemin>0</valuemin>
										<valuemax>100</valuemax>
										<value>50</value>
									</parameter>
								</effect>
							</filter>
						<logginginfo>
							<description></description>
							<scene></scene>
							<shottake></shottake>
							<lognote></lognote>
						</logginginfo>
						<labels>
							<label2>Violet</label2>
						</labels>
					</clipitem>
					<clipitem id="clipitem-492">
						<masterclipid>masterclip-113</masterclipid>
						<name>Vold_DusteMikkel_Prat_01_RENDER_READY_01.mov</name>
						<enabled>TRUE</enabled>
						<duration>2293</duration>
						<rate>
							<timebase>25</timebase>
							<ntsc>FALSE</ntsc>
						</rate>
						<start>11140</start>
						<end>11565</end>
						<in>0</in>
						<out>425</out>
						<pproTicksIn>0</pproTicksIn>
						<pproTicksOut>4318272000000</pproTicksOut>
						<alphatype>none</alphatype>
						<pixelaspectratio>square</pixelaspectratio>
						<anamorphic>FALSE</anamorphic>
						<file id="file-102">
							<name>Vold_DusteMikkel_Prat_01_RENDER_READY_01.mov</name>
							<pathurl>file://localhost/Volumes/Bingen/Prosjekter/MYNT194016%20WHATS%20COOKING/Grafikk/Renders/RENDER_READYS_01/Vold_DusteMikkel_Prat_01_RENDER_READY_01.mov</pathurl>
							<rate>
								<timebase>25</timebase>
								<ntsc>FALSE</ntsc>
							</rate>
							<duration>2293</duration>
							<timecode>
								<rate>
									<timebase>25</timebase>
									<ntsc>FALSE</ntsc>
								</rate>
								<string>00:07:30:23</string>
								<frame>11273</frame>
								<displayformat>NDF</displayformat>
								<reel>
									<name></name>
								</reel>
							</timecode>
							<media>
								<video>
									<samplecharacteristics>
										<rate>
											<timebase>25</timebase>
											<ntsc>FALSE</ntsc>
										</rate>
										<width>1920</width>
										<height>1080</height>
										<anamorphic>FALSE</anamorphic>
										<pixelaspectratio>square</pixelaspectratio>
										<fielddominance>none</fielddominance>
									</samplecharacteristics>
								</video>
							</media>
						</file>
							<filter>
								<effect>
									<name>Opacity</name>
									<effectid>opacity</effectid>
									<effectcategory>motion</effectcategory>
									<effecttype>motion</effecttype>
									<mediatype>video</mediatype>
									<parameter authoringApp="PremierePro">
										<parameterid>opacity</parameterid>
										<name>opacity</name>
										<valuemin>0</valuemin>
										<valuemax>100</valuemax>
										<value>50</value>
									</parameter>
								</effect>
							</filter>
						<logginginfo>
							<description></description>
							<scene></scene>
							<shottake></shottake>
							<lognote></lognote>
						</logginginfo>
						<labels>
							<label2>Violet</label2>
						</labels>
					</clipitem>
					<clipitem id="clipitem-493">
						<masterclipid>masterclip-113</masterclipid>
						<name>Vold_DusteMikkel_Prat_01_RENDER_READY_01.mov</name>
						<enabled>TRUE</enabled>
						<duration>2293</duration>
						<rate>
							<timebase>25</timebase>
							<ntsc>FALSE</ntsc>
						</rate>
						<start>11642</start>
						<end>11720</end>
						<in>502</in>
						<out>580</out>
						<pproTicksIn>5100641280000</pproTicksIn>
						<pproTicksOut>5893171200000</pproTicksOut>
						<alphatype>none</alphatype>
						<file id="file-102"/>
							<filter>
								<effect>
									<name>Basic Motion</name>
									<effectid>basic</effectid>
									<effectcategory>motion</effectcategory>
									<effecttype>motion</effecttype>
									<mediatype>video</mediatype>
									<parameter authoringApp="PremierePro">
										<parameterid>scale</parameterid>
										<name>Scale</name>
										<valuemin>0</valuemin>
										<valuemax>1000</valuemax>
										<value>80</value>
									</parameter>
									<parameter authoringApp="PremierePro">
										<parameterid>rotation</parameterid>
										<name>Rotation</name>
										<valuemin>-8640</valuemin>
										<valuemax>8640</valuemax>
										<value>0</value>
									</parameter>
									<parameter authoringApp="PremierePro">
										<parameterid>center</parameterid>
										<name>Center</name>
										<value>
											<horiz>0</horiz>
											<vert>0</vert>
										</value>
									</parameter>
									<parameter authoringApp="PremierePro">
										<parameterid>centerOffset</parameterid>
										<name>Anchor Point</name>
										<value>
											<horiz>0</horiz>
											<vert>0</vert>
										</value>
									</parameter>
								</effect>
							</filter>
							<filter>
								<effect>
									<name>Opacity</name>
									<effectid>opacity</effectid>
									<effectcategory>motion</effectcategory>
									<effecttype>motion</effecttype>
									<mediatype>video</mediatype>
									<parameter authoringApp="PremierePro">
										<parameterid>opacity</parameterid>
										<name>opacity</name>
										<valuemin>0</valuemin>
										<valuemax>100</valuemax>
										<value>50</value>
									</parameter>
								</effect>
							</filter>
						<logginginfo>
							<description></description>
							<scene></scene>
							<shottake></shottake>
							<lognote></lognote>
						</logginginfo>
						<labels>
							<label2>Violet</label2>
						</labels>
					</clipitem>
					<clipitem id="clipitem-494">
						<masterclipid>masterclip-113</masterclipid>
						<name>Vold_DusteMikkel_Prat_01_RENDER_READY_01.mov</name>
						<enabled>TRUE</enabled>
						<duration>2293</duration>
						<rate>
							<timebase>25</timebase>
							<ntsc>FALSE</ntsc>
						</rate>
						<start>11720</start>
						<end>13376</end>
						<in>580</in>
						<out>2236</out>
						<pproTicksIn>5893171200000</pproTicksIn>
						<pproTicksOut>22719191040000</pproTicksOut>
						<alphatype>none</alphatype>
						<file id="file-102"/>
							<filter>
								<effect>
									<name>Opacity</name>
									<effectid>opacity</effectid>
									<effectcategory>motion</effectcategory>
									<effecttype>motion</effecttype>
									<mediatype>video</mediatype>
									<parameter authoringApp="PremierePro">
										<parameterid>opacity</parameterid>
										<name>opacity</name>
										<valuemin>0</valuemin>
										<valuemax>100</valuemax>
										<value>50</value>
									</parameter>
								</effect>
							</filter>
						<logginginfo>
							<description></description>
							<scene></scene>
							<shottake></shottake>
							<lognote></lognote>
						</logginginfo>
						<labels>
							<label2>Violet</label2>
						</labels>
					</clipitem>
					<clipitem id="clipitem-495">
						<masterclipid>masterclip-114</masterclipid>
						<name>Clip0011.mov</name>
						<enabled>TRUE</enabled>
						<duration>267</duration>
						<rate>
							<timebase>25</timebase>
							<ntsc>FALSE</ntsc>
						</rate>
						<start>13389</start>
						<end>13454</end>
						<in>43</in>
						<out>108</out>
						<pproTicksIn>436907520000</pproTicksIn>
						<pproTicksOut>1097349120000</pproTicksOut>
						<alphatype>none</alphatype>
						<pixelaspectratio>square</pixelaspectratio>
						<anamorphic>FALSE</anamorphic>
						<file id="file-103">
							<name>Clip0011.mov</name>
							<pathurl>file://localhost/Volumes/Bingen/Prosjekter/MYNT194016%20WHATS%20COOKING/Media/Episode%2004%20Vold/Episode-opptak/05042016/KAM%20B/ProRes%202/Clip0011.mov</pathurl>
							<rate>
								<timebase>25</timebase>
								<ntsc>FALSE</ntsc>
							</rate>
							<duration>1812</duration>
							<timecode>
								<rate>
									<timebase>25</timebase>
									<ntsc>FALSE</ntsc>
								</rate>
								<string>12:37:48:21</string>
								<frame>1136721</frame>
								<displayformat>NDF</displayformat>
								<reel>
									<name></name>
								</reel>
							</timecode>
							<media>
								<video>
									<samplecharacteristics>
										<rate>
											<timebase>25</timebase>
											<ntsc>FALSE</ntsc>
										</rate>
										<width>1920</width>
										<height>1080</height>
										<anamorphic>FALSE</anamorphic>
										<pixelaspectratio>square</pixelaspectratio>
										<fielddominance>none</fielddominance>
									</samplecharacteristics>
								</video>
								<audio>
									<samplecharacteristics>
										<depth>16</depth>
										<samplerate>48000</samplerate>
									</samplecharacteristics>
									<channelcount>1</channelcount>
									<audiochannel>
										<sourcechannel>1</sourcechannel>
									</audiochannel>
								</audio>
								<audio>
									<samplecharacteristics>
										<depth>16</depth>
										<samplerate>48000</samplerate>
									</samplecharacteristics>
									<channelcount>1</channelcount>
									<audiochannel>
										<sourcechannel>2</sourcechannel>
									</audiochannel>
								</audio>
								<audio>
									<samplecharacteristics>
										<depth>16</depth>
										<samplerate>48000</samplerate>
									</samplecharacteristics>
									<channelcount>1</channelcount>
									<audiochannel>
										<sourcechannel>3</sourcechannel>
									</audiochannel>
								</audio>
								<audio>
									<samplecharacteristics>
										<depth>16</depth>
										<samplerate>48000</samplerate>
									</samplecharacteristics>
									<channelcount>1</channelcount>
									<audiochannel>
										<sourcechannel>4</sourcechannel>
									</audiochannel>
								</audio>
							</media>
						</file>
							<filter>
								<effect>
									<name>Time Remap</name>
									<effectid>timeremap</effectid>
									<effectcategory>motion</effectcategory>
									<effecttype>motion</effecttype>
									<mediatype>video</mediatype>
									<parameter authoringApp="PremierePro">
										<parameterid>variablespeed</parameterid>
										<name>variablespeed</name>
										<valuemin>0</valuemin>
										<valuemax>1</valuemax>
										<value>1</value>
									</parameter>
									<parameter authoringApp="PremierePro">
										<parameterid>speed</parameterid>
										<name>speed</name>
										<valuemin>-100000</valuemin>
										<valuemax>100000</valuemax>
										<value>678.652</value>
									</parameter>
									<parameter authoringApp="PremierePro">
										<parameterid>reverse</parameterid>
										<name>reverse</name>
										<value>FALSE</value>
									</parameter>
									<parameter authoringApp="PremierePro">
										<parameterid>frameblending</parameterid>
										<name>frameblending</name>
										<value>FALSE</value>
									</parameter>
									<parameter authoringApp="PremierePro">
										<parameterid>graphdict</parameterid>
										<name>graphdict</name>
										<valuemin>0</valuemin>
										<valuemax>1812</valuemax>
										<value>0</value>
										<keyframe>
											<when>0</when>
											<value>0</value>
											<speedvirtualkf>TRUE</speedvirtualkf>
											<speedkfstart>TRUE</speedkfstart>
										</keyframe>
										<keyframe>
											<when>26</when>
											<value>26</value>
											<pproRampStart>TRUE</pproRampStart>
											<outbez>
												<horiz>3.64267</horiz>
												<vert>0.785398</vert>
											</outbez>
										</keyframe>
										<keyframe>
											<when>41</when>
											<value>110</value>
											<pproRampEnd>TRUE</pproRampEnd>
											<inbez>
												<horiz>25.886</horiz>
												<vert>-1.67046</vert>
											</inbez>
										</keyframe>
										<keyframe>
											<when>43</when>
											<value>130</value>
											<speedvirtualkf>TRUE</speedvirtualkf>
											<speedkfin>TRUE</speedkfin>
										</keyframe>
										<keyframe>
											<when>61</when>
											<value>306</value>
											<pproRampStart>TRUE</pproRampStart>
											<outbez>
												<horiz>20.1226</horiz>
												<vert>1.47113</vert>
											</outbez>
										</keyframe>
										<keyframe>
											<when>73</when>
											<value>372</value>
											<pproRampEnd>TRUE</pproRampEnd>
											<inbez>
												<horiz>2.76175</horiz>
												<vert>-2.38183</vert>
											</inbez>
										</keyframe>
										<keyframe>
											<when>74</when>
											<value>373</value>
											<pproRampStart>TRUE</pproRampStart>
											<outbez>
												<horiz>1.31206</horiz>
												<vert>0.759763</vert>
											</outbez>
										</keyframe>
										<keyframe>
											<when>79</when>
											<value>398</value>
											<pproRampEnd>TRUE</pproRampEnd>
											<inbez>
												<horiz>7.2446</horiz>
												<vert>-1.70248</vert>
											</inbez>
										</keyframe>
										<keyframe>
											<when>108</when>
											<value>732</value>
											<speedvirtualkf>TRUE</speedvirtualkf>
											<speedkfout>TRUE</speedkfout>
										</keyframe>
										<keyframe>
											<when>267</when>
											<value>1812</value>
											<speedvirtualkf>TRUE</speedvirtualkf>
											<speedkfend>TRUE</speedkfend>
										</keyframe>
										<interpolation>
											<name>FCPCurve</name>
										</interpolation>
									</parameter>
								</effect>
							</filter>
						<logginginfo>
							<description>slow Ab suksess</description>
							<scene></scene>
							<shottake></shottake>
							<lognote></lognote>
						</logginginfo>
						<labels>
							<label2>Iris</label2>
						</labels>
					</clipitem>
					<clipitem id="clipitem-496">
						<masterclipid>masterclip-115</masterclipid>
						<name>Clip0029.mov</name>
						<enabled>TRUE</enabled>
						<duration>730</duration>
						<rate>
							<timebase>25</timebase>
							<ntsc>FALSE</ntsc>
						</rate>
						<start>13454</start>
						<end>13495</end>
						<in>524</in>
						<out>565</out>
						<pproTicksIn>5324175360000</pproTicksIn>
						<pproTicksOut>5740761600000</pproTicksOut>
						<alphatype>none</alphatype>
						<pixelaspectratio>square</pixelaspectratio>
						<anamorphic>FALSE</anamorphic>
						<file id="file-104">
							<name>Clip0029.mov</name>
							<pathurl>file://localhost/Volumes/Bingen/Prosjekter/MYNT194016%20WHATS%20COOKING/Media/Episode%2004%20Vold/Episode-opptak/05042016/KAM%20B/ProRes%202/Clip0029.mov</pathurl>
							<rate>
								<timebase>25</timebase>
								<ntsc>FALSE</ntsc>
							</rate>
							<duration>1884</duration>
							<timecode>
								<rate>
									<timebase>25</timebase>
									<ntsc>FALSE</ntsc>
								</rate>
								<string>15:36:01:08</string>
								<frame>1404033</frame>
								<displayformat>NDF</displayformat>
								<reel>
									<name></name>
								</reel>
							</timecode>
							<media>
								<video>
									<samplecharacteristics>
										<rate>
											<timebase>25</timebase>
											<ntsc>FALSE</ntsc>
										</rate>
										<width>1920</width>
										<height>1080</height>
										<anamorphic>FALSE</anamorphic>
										<pixelaspectratio>square</pixelaspectratio>
										<fielddominance>none</fielddominance>
									</samplecharacteristics>
								</video>
								<audio>
									<samplecharacteristics>
										<depth>16</depth>
										<samplerate>48000</samplerate>
									</samplecharacteristics>
									<channelcount>1</channelcount>
									<audiochannel>
										<sourcechannel>1</sourcechannel>
									</audiochannel>
								</audio>
								<audio>
									<samplecharacteristics>
										<depth>16</depth>
										<samplerate>48000</samplerate>
									</samplecharacteristics>
									<channelcount>1</channelcount>
									<audiochannel>
										<sourcechannel>2</sourcechannel>
									</audiochannel>
								</audio>
								<audio>
									<samplecharacteristics>
										<depth>16</depth>
										<samplerate>48000</samplerate>
									</samplecharacteristics>
									<channelcount>1</channelcount>
									<audiochannel>
										<sourcechannel>3</sourcechannel>
									</audiochannel>
								</audio>
								<audio>
									<samplecharacteristics>
										<depth>16</depth>
										<samplerate>48000</samplerate>
									</samplecharacteristics>
									<channelcount>1</channelcount>
									<audiochannel>
										<sourcechannel>4</sourcechannel>
									</audiochannel>
								</audio>
							</media>
						</file>
							<filter>
								<effect>
									<name>Basic Motion</name>
									<effectid>basic</effectid>
									<effectcategory>motion</effectcategory>
									<effecttype>motion</effecttype>
									<mediatype>video</mediatype>
									<parameter authoringApp="PremierePro">
										<parameterid>scale</parameterid>
										<name>Scale</name>
										<valuemin>0</valuemin>
										<valuemax>1000</valuemax>
										<value>118</value>
									</parameter>
									<parameter authoringApp="PremierePro">
										<parameterid>rotation</parameterid>
										<name>Rotation</name>
										<valuemin>-8640</valuemin>
										<valuemax>8640</valuemax>
										<value>0</value>
									</parameter>
									<parameter authoringApp="PremierePro">
										<parameterid>center</parameterid>
										<name>Center</name>
										<value>
											<horiz>0.0822917</horiz>
											<vert>-0.0629629</vert>
										</value>
									</parameter>
									<parameter authoringApp="PremierePro">
										<parameterid>centerOffset</parameterid>
										<name>Anchor Point</name>
										<value>
											<horiz>0</horiz>
											<vert>0</vert>
										</value>
									</parameter>
								</effect>
							</filter>
							<filter>
								<effect>
									<name>Time Remap</name>
									<effectid>timeremap</effectid>
									<effectcategory>motion</effectcategory>
									<effecttype>motion</effecttype>
									<mediatype>video</mediatype>
									<parameter authoringApp="PremierePro">
										<parameterid>variablespeed</parameterid>
										<name>variablespeed</name>
										<valuemin>0</valuemin>
										<valuemax>1</valuemax>
										<value>1</value>
									</parameter>
									<parameter authoringApp="PremierePro">
										<parameterid>speed</parameterid>
										<name>speed</name>
										<valuemin>-100000</valuemin>
										<valuemax>100000</valuemax>
										<value>258.082</value>
									</parameter>
									<parameter authoringApp="PremierePro">
										<parameterid>reverse</parameterid>
										<name>reverse</name>
										<value>FALSE</value>
									</parameter>
									<parameter authoringApp="PremierePro">
										<parameterid>frameblending</parameterid>
										<name>frameblending</name>
										<value>FALSE</value>
									</parameter>
									<parameter authoringApp="PremierePro">
										<parameterid>graphdict</parameterid>
										<name>graphdict</name>
										<valuemin>0</valuemin>
										<valuemax>1883</valuemax>
										<value>0</value>
										<keyframe>
											<when>0</when>
											<value>0</value>
											<speedvirtualkf>TRUE</speedvirtualkf>
											<speedkfstart>TRUE</speedkfstart>
										</keyframe>
										<keyframe>
											<when>524</when>
											<value>524</value>
											<speedvirtualkf>TRUE</speedvirtualkf>
											<speedkfin>TRUE</speedkfin>
										</keyframe>
										<keyframe>
											<when>542</when>
											<value>542</value>
											<pproRampStart>TRUE</pproRampStart>
											<outbez>
												<horiz>3.54552</horiz>
												<vert>0.785398</vert>
											</outbez>
										</keyframe>
										<keyframe>
											<when>557</when>
											<value>605</value>
											<pproRampEnd>TRUE</pproRampEnd>
											<inbez>
												<horiz>18.6464</horiz>
												<vert>-1.70566</vert>
											</inbez>
										</keyframe>
										<keyframe>
											<when>565</when>
											<value>1458</value>
											<speedvirtualkf>TRUE</speedvirtualkf>
											<speedkfout>TRUE</speedkfout>
										</keyframe>
										<keyframe>
											<when>730</when>
											<value>1883</value>
											<speedvirtualkf>TRUE</speedvirtualkf>
											<speedkfend>TRUE</speedkfend>
										</keyframe>
										<interpolation>
											<name>FCPCurve</name>
										</interpolation>
									</parameter>
								</effect>
							</filter>
						<logginginfo>
							<description>slow M bowl tunnell reverse/tilt</description>
							<scene></scene>
							<shottake></shottake>
							<lognote></lognote>
						</logginginfo>
						<labels>
							<label2>Iris</label2>
						</labels>
					</clipitem>
					<clipitem id="clipitem-497">
						<masterclipid>masterclip-115</masterclipid>
						<name>Clip0029.mov</name>
						<enabled>TRUE</enabled>
						<duration>313</duration>
						<rate>
							<timebase>25</timebase>
							<ntsc>FALSE</ntsc>
						</rate>
						<start>13495</start>
						<end>13562</end>
						<in>65</in>
						<out>132</out>
						<pproTicksIn>660441600000</pproTicksIn>
						<pproTicksOut>1341204480000</pproTicksOut>
						<alphatype>none</alphatype>
						<file id="file-104"/>
							<filter>
								<effect>
									<name>Time Remap</name>
									<effectid>timeremap</effectid>
									<effectcategory>motion</effectcategory>
									<effecttype>motion</effecttype>
									<mediatype>video</mediatype>
									<parameter authoringApp="PremierePro">
										<parameterid>variablespeed</parameterid>
										<name>variablespeed</name>
										<valuemin>0</valuemin>
										<valuemax>1</valuemax>
										<value>1</value>
									</parameter>
									<parameter authoringApp="PremierePro">
										<parameterid>speed</parameterid>
										<name>speed</name>
										<valuemin>-100000</valuemin>
										<valuemax>100000</valuemax>
										<value>601.917</value>
									</parameter>
									<parameter authoringApp="PremierePro">
										<parameterid>reverse</parameterid>
										<name>reverse</name>
										<value>FALSE</value>
									</parameter>
									<parameter authoringApp="PremierePro">
										<parameterid>frameblending</parameterid>
										<name>frameblending</name>
										<value>FALSE</value>
									</parameter>
									<parameter authoringApp="PremierePro">
										<parameterid>graphdict</parameterid>
										<name>graphdict</name>
										<valuemin>0</valuemin>
										<valuemax>1883</valuemax>
										<value>0</value>
										<keyframe>
											<when>0</when>
											<value>0</value>
											<speedvirtualkf>TRUE</speedvirtualkf>
											<speedkfstart>TRUE</speedkfstart>
										</keyframe>
										<keyframe>
											<when>65</when>
											<value>651</value>
											<speedvirtualkf>TRUE</speedvirtualkf>
											<speedkfin>TRUE</speedkfin>
										</keyframe>
										<keyframe>
											<when>69</when>
											<value>691</value>
											<pproRampStart>TRUE</pproRampStart>
											<outbez>
												<horiz>2.85358</horiz>
												<vert>1.47113</vert>
											</outbez>
										</keyframe>
										<keyframe>
											<when>70</when>
											<value>704</value>
											<pproRampEnd>TRUE</pproRampEnd>
											<inbez>
												<horiz>1.40887</horiz>
												<vert>-1.77373</vert>
											</inbez>
										</keyframe>
										<keyframe>
											<when>132</when>
											<value>794</value>
											<speedvirtualkf>TRUE</speedvirtualkf>
											<speedkfout>TRUE</speedkfout>
										</keyframe>
										<keyframe>
											<when>313</when>
											<value>1883</value>
											<speedvirtualkf>TRUE</speedvirtualkf>
											<speedkfend>TRUE</speedkfend>
										</keyframe>
										<interpolation>
											<name>FCPCurve</name>
										</interpolation>
									</parameter>
								</effect>
							</filter>
						<logginginfo>
							<description>slow M bowl tunnell reverse/tilt</description>
							<scene></scene>
							<shottake></shottake>
							<lognote></lognote>
						</logginginfo>
						<labels>
							<label2>Iris</label2>
						</labels>
					</clipitem>
					<clipitem id="clipitem-498">
						<masterclipid>masterclip-116</masterclipid>
						<name>BroShow_Vold_Mikkel_Fekter_02.mov</name>
						<enabled>TRUE</enabled>
						<duration>2347</duration>
						<rate>
							<timebase>25</timebase>
							<ntsc>FALSE</ntsc>
						</rate>
						<start>19021</start>
						<end>19203</end>
						<in>0</in>
						<out>182</out>
						<pproTicksIn>0</pproTicksIn>
						<pproTicksOut>1849236480000</pproTicksOut>
						<alphatype>none</alphatype>
						<pixelaspectratio>square</pixelaspectratio>
						<anamorphic>FALSE</anamorphic>
						<file id="file-105">
							<name>BroShow_Vold_Mikkel_Fekter_02.mov</name>
							<pathurl>file://localhost/Volumes/Bingen/Prosjekter/MYNT194016%20WHATS%20COOKING/Grafikk/Renders/Vold_Mikkel_Fekter_01/BroShow_Vold_Mikkel_Fekter_02.mov</pathurl>
							<rate>
								<timebase>25</timebase>
								<ntsc>FALSE</ntsc>
							</rate>
							<duration>2347</duration>
							<timecode>
								<rate>
									<timebase>25</timebase>
									<ntsc>FALSE</ntsc>
								</rate>
								<string>00:07:30:23</string>
								<frame>11273</frame>
								<displayformat>NDF</displayformat>
								<reel>
									<name></name>
								</reel>
							</timecode>
							<media>
								<video>
									<samplecharacteristics>
										<rate>
											<timebase>25</timebase>
											<ntsc>FALSE</ntsc>
										</rate>
										<width>1920</width>
										<height>1080</height>
										<anamorphic>FALSE</anamorphic>
										<pixelaspectratio>square</pixelaspectratio>
										<fielddominance>none</fielddominance>
									</samplecharacteristics>
								</video>
							</media>
						</file>
							<filter>
								<effect>
									<name>Opacity</name>
									<effectid>opacity</effectid>
									<effectcategory>motion</effectcategory>
									<effecttype>motion</effecttype>
									<mediatype>video</mediatype>
									<parameter authoringApp="PremierePro">
										<parameterid>opacity</parameterid>
										<name>opacity</name>
										<valuemin>0</valuemin>
										<valuemax>100</valuemax>
										<value>50</value>
									</parameter>
								</effect>
							</filter>
						<logginginfo>
							<description></description>
							<scene></scene>
							<shottake></shottake>
							<lognote></lognote>
						</logginginfo>
						<labels>
							<label2>Violet</label2>
						</labels>
					</clipitem>
					<clipitem id="clipitem-499">
						<masterclipid>masterclip-116</masterclipid>
						<name>BroShow_Vold_Mikkel_Fekter_02.mov</name>
						<enabled>TRUE</enabled>
						<duration>2347</duration>
						<rate>
							<timebase>25</timebase>
							<ntsc>FALSE</ntsc>
						</rate>
						<start>19203</start>
						<end>20327</end>
						<in>202</in>
						<out>1326</out>
						<pproTicksIn>2052449280000</pproTicksIn>
						<pproTicksOut>13473008640000</pproTicksOut>
						<alphatype>none</alphatype>
						<file id="file-105"/>
							<filter>
								<effect>
									<name>Opacity</name>
									<effectid>opacity</effectid>
									<effectcategory>motion</effectcategory>
									<effecttype>motion</effecttype>
									<mediatype>video</mediatype>
									<parameter authoringApp="PremierePro">
										<parameterid>opacity</parameterid>
										<name>opacity</name>
										<valuemin>0</valuemin>
										<valuemax>100</valuemax>
										<value>50</value>
									</parameter>
								</effect>
							</filter>
						<logginginfo>
							<description></description>
							<scene></scene>
							<shottake></shottake>
							<lognote></lognote>
						</logginginfo>
						<labels>
							<label2>Violet</label2>
						</labels>
					</clipitem>
					<clipitem id="clipitem-500">
						<masterclipid>masterclip-116</masterclipid>
						<name>BroShow_Vold_Mikkel_Fekter_02.mov</name>
						<enabled>TRUE</enabled>
						<duration>2347</duration>
						<rate>
							<timebase>25</timebase>
							<ntsc>FALSE</ntsc>
						</rate>
						<start>20327</start>
						<end>21342</end>
						<in>1332</in>
						<out>2347</out>
						<pproTicksIn>13533972480000</pproTicksIn>
						<pproTicksOut>23847022080000</pproTicksOut>
						<alphatype>none</alphatype>
						<file id="file-105"/>
							<filter>
								<effect>
									<name>Opacity</name>
									<effectid>opacity</effectid>
									<effectcategory>motion</effectcategory>
									<effecttype>motion</effecttype>
									<mediatype>video</mediatype>
									<parameter authoringApp="PremierePro">
										<parameterid>opacity</parameterid>
										<name>opacity</name>
										<valuemin>0</valuemin>
										<valuemax>100</valuemax>
										<value>50</value>
									</parameter>
								</effect>
							</filter>
						<logginginfo>
							<description></description>
							<scene></scene>
							<shottake></shottake>
							<lognote></lognote>
						</logginginfo>
						<labels>
							<label2>Violet</label2>
						</labels>
					</clipitem>
					<clipitem id="clipitem-501">
						<masterclipid>masterclip-117</masterclipid>
						<name>BroShow_Vold_Aon_Bokser_Supring_Runder_01.mov</name>
						<enabled>TRUE</enabled>
						<duration>4523</duration>
						<rate>
							<timebase>25</timebase>
							<ntsc>FALSE</ntsc>
						</rate>
						<start>23698</start>
						<end>23853</end>
						<in>207</in>
						<out>362</out>
						<pproTicksIn>2103252480000</pproTicksIn>
						<pproTicksOut>3678151680000</pproTicksOut>
						<alphatype>none</alphatype>
						<pixelaspectratio>square</pixelaspectratio>
						<anamorphic>FALSE</anamorphic>
						<file id="file-106">
							<name>BroShow_Vold_Aon_Bokser_Supring_Runder_01.mov</name>
							<pathurl>file://localhost/Volumes/Bingen/Prosjekter/MYNT194016%20WHATS%20COOKING/Grafikk/Renders/Vold_Aon_Bokser_01/BroShow_Vold_Aon_Bokser_Supring_Runder_01.mov</pathurl>
							<rate>
								<timebase>25</timebase>
								<ntsc>FALSE</ntsc>
							</rate>
							<duration>4523</duration>
							<timecode>
								<rate>
									<timebase>25</timebase>
									<ntsc>FALSE</ntsc>
								</rate>
								<string>00:07:30:23</string>
								<frame>11273</frame>
								<displayformat>NDF</displayformat>
								<reel>
									<name></name>
								</reel>
							</timecode>
							<media>
								<video>
									<samplecharacteristics>
										<rate>
											<timebase>25</timebase>
											<ntsc>FALSE</ntsc>
										</rate>
										<width>1920</width>
										<height>1080</height>
										<anamorphic>FALSE</anamorphic>
										<pixelaspectratio>square</pixelaspectratio>
										<fielddominance>none</fielddominance>
									</samplecharacteristics>
								</video>
							</media>
						</file>
							<filter>
								<effect>
									<name>Opacity</name>
									<effectid>opacity</effectid>
									<effectcategory>motion</effectcategory>
									<effecttype>motion</effecttype>
									<mediatype>video</mediatype>
									<parameter authoringApp="PremierePro">
										<parameterid>opacity</parameterid>
										<name>opacity</name>
										<valuemin>0</valuemin>
										<valuemax>100</valuemax>
										<value>50</value>
									</parameter>
								</effect>
							</filter>
						<logginginfo>
							<description></description>
							<scene></scene>
							<shottake></shottake>
							<lognote></lognote>
						</logginginfo>
						<labels>
							<label2>Violet</label2>
						</labels>
					</clipitem>
					<clipitem id="clipitem-502">
						<masterclipid>masterclip-117</masterclipid>
						<name>BroShow_Vold_Aon_Bokser_Supring_Runder_01.mov</name>
						<enabled>TRUE</enabled>
						<duration>4523</duration>
						<rate>
							<timebase>25</timebase>
							<ntsc>FALSE</ntsc>
						</rate>
						<start>23853</start>
						<end>24499</end>
						<in>388</in>
						<out>1034</out>
						<pproTicksIn>3942328320000</pproTicksIn>
						<pproTicksOut>10506101760000</pproTicksOut>
						<alphatype>none</alphatype>
						<file id="file-106"/>
							<filter>
								<effect>
									<name>Opacity</name>
									<effectid>opacity</effectid>
									<effectcategory>motion</effectcategory>
									<effecttype>motion</effecttype>
									<mediatype>video</mediatype>
									<parameter authoringApp="PremierePro">
										<parameterid>opacity</parameterid>
										<name>opacity</name>
										<valuemin>0</valuemin>
										<valuemax>100</valuemax>
										<value>50</value>
									</parameter>
								</effect>
							</filter>
						<logginginfo>
							<description></description>
							<scene></scene>
							<shottake></shottake>
							<lognote></lognote>
						</logginginfo>
						<labels>
							<label2>Violet</label2>
						</labels>
					</clipitem>
					<clipitem id="clipitem-503">
						<masterclipid>masterclip-117</masterclipid>
						<name>BroShow_Vold_Aon_Bokser_Supring_Runder_01.mov</name>
						<enabled>TRUE</enabled>
						<duration>4523</duration>
						<rate>
							<timebase>25</timebase>
							<ntsc>FALSE</ntsc>
						</rate>
						<start>24499</start>
						<end>24566</end>
						<in>1042</in>
						<out>1109</out>
						<pproTicksIn>10587386880000</pproTicksIn>
						<pproTicksOut>11268149760000</pproTicksOut>
						<alphatype>none</alphatype>
						<file id="file-106"/>
							<filter>
								<effect>
									<name>Opacity</name>
									<effectid>opacity</effectid>
									<effectcategory>motion</effectcategory>
									<effecttype>motion</effecttype>
									<mediatype>video</mediatype>
									<parameter authoringApp="PremierePro">
										<parameterid>opacity</parameterid>
										<name>opacity</name>
										<valuemin>0</valuemin>
										<valuemax>100</valuemax>
										<value>50</value>
									</parameter>
								</effect>
							</filter>
						<logginginfo>
							<description></description>
							<scene></scene>
							<shottake></shottake>
							<lognote></lognote>
						</logginginfo>
						<labels>
							<label2>Violet</label2>
						</labels>
					</clipitem>
					<clipitem id="clipitem-504">
						<masterclipid>masterclip-117</masterclipid>
						<name>BroShow_Vold_Aon_Bokser_Supring_Runder_01.mov</name>
						<enabled>TRUE</enabled>
						<duration>4523</duration>
						<rate>
							<timebase>25</timebase>
							<ntsc>FALSE</ntsc>
						</rate>
						<start>24566</start>
						<end>24655</end>
						<in>1125</in>
						<out>1214</out>
						<pproTicksIn>11430720000000</pproTicksIn>
						<pproTicksOut>12335016960000</pproTicksOut>
						<alphatype>none</alphatype>
						<file id="file-106"/>
							<filter>
								<effect>
									<name>Opacity</name>
									<effectid>opacity</effectid>
									<effectcategory>motion</effectcategory>
									<effecttype>motion</effecttype>
									<mediatype>video</mediatype>
									<parameter authoringApp="PremierePro">
										<parameterid>opacity</parameterid>
										<name>opacity</name>
										<valuemin>0</valuemin>
										<valuemax>100</valuemax>
										<value>50</value>
									</parameter>
								</effect>
							</filter>
						<logginginfo>
							<description></description>
							<scene></scene>
							<shottake></shottake>
							<lognote></lognote>
						</logginginfo>
						<labels>
							<label2>Violet</label2>
						</labels>
					</clipitem>
					<clipitem id="clipitem-505">
						<masterclipid>masterclip-117</masterclipid>
						<name>BroShow_Vold_Aon_Bokser_Supring_Runder_01.mov</name>
						<enabled>TRUE</enabled>
						<duration>4523</duration>
						<rate>
							<timebase>25</timebase>
							<ntsc>FALSE</ntsc>
						</rate>
						<start>24655</start>
						<end>25118</end>
						<in>1255</in>
						<out>1718</out>
						<pproTicksIn>12751603200000</pproTicksIn>
						<pproTicksOut>17455979520000</pproTicksOut>
						<alphatype>none</alphatype>
						<file id="file-106"/>
							<filter>
								<effect>
									<name>Opacity</name>
									<effectid>opacity</effectid>
									<effectcategory>motion</effectcategory>
									<effecttype>motion</effecttype>
									<mediatype>video</mediatype>
									<parameter authoringApp="PremierePro">
										<parameterid>opacity</parameterid>
										<name>opacity</name>
										<valuemin>0</valuemin>
										<valuemax>100</valuemax>
										<value>50</value>
									</parameter>
								</effect>
							</filter>
						<logginginfo>
							<description></description>
							<scene></scene>
							<shottake></shottake>
							<lognote></lognote>
						</logginginfo>
						<labels>
							<label2>Violet</label2>
						</labels>
					</clipitem>
					<clipitem id="clipitem-506">
						<masterclipid>masterclip-117</masterclipid>
						<name>BroShow_Vold_Aon_Bokser_Supring_Runder_01.mov</name>
						<enabled>TRUE</enabled>
						<duration>4523</duration>
						<rate>
							<timebase>25</timebase>
							<ntsc>FALSE</ntsc>
						</rate>
						<start>25118</start>
						<end>25761</end>
						<in>1762</in>
						<out>2405</out>
						<pproTicksIn>17903047680000</pproTicksIn>
						<pproTicksOut>24436339200000</pproTicksOut>
						<alphatype>none</alphatype>
						<file id="file-106"/>
							<filter>
								<effect>
									<name>Opacity</name>
									<effectid>opacity</effectid>
									<effectcategory>motion</effectcategory>
									<effecttype>motion</effecttype>
									<mediatype>video</mediatype>
									<parameter authoringApp="PremierePro">
										<parameterid>opacity</parameterid>
										<name>opacity</name>
										<valuemin>0</valuemin>
										<valuemax>100</valuemax>
										<value>50</value>
									</parameter>
								</effect>
							</filter>
						<logginginfo>
							<description></description>
							<scene></scene>
							<shottake></shottake>
							<lognote></lognote>
						</logginginfo>
						<labels>
							<label2>Violet</label2>
						</labels>
					</clipitem>
					<clipitem id="clipitem-507">
						<masterclipid>masterclip-117</masterclipid>
						<name>BroShow_Vold_Aon_Bokser_Supring_Runder_01.mov</name>
						<enabled>TRUE</enabled>
						<duration>4523</duration>
						<rate>
							<timebase>25</timebase>
							<ntsc>FALSE</ntsc>
						</rate>
						<start>25761</start>
						<end>27869</end>
						<in>2415</in>
						<out>4523</out>
						<pproTicksIn>24537945600000</pproTicksIn>
						<pproTicksOut>45956574720000</pproTicksOut>
						<alphatype>none</alphatype>
						<file id="file-106"/>
							<filter>
								<effect>
									<name>Opacity</name>
									<effectid>opacity</effectid>
									<effectcategory>motion</effectcategory>
									<effecttype>motion</effecttype>
									<mediatype>video</mediatype>
									<parameter authoringApp="PremierePro">
										<parameterid>opacity</parameterid>
										<name>opacity</name>
										<valuemin>0</valuemin>
										<valuemax>100</valuemax>
										<value>50</value>
									</parameter>
								</effect>
							</filter>
						<logginginfo>
							<description></description>
							<scene></scene>
							<shottake></shottake>
							<lognote></lognote>
						</logginginfo>
						<labels>
							<label2>Violet</label2>
						</labels>
					</clipitem>
					<clipitem id="clipitem-508">
						<masterclipid>masterclip-118</masterclipid>
						<name>Title 02</name>
						<enabled>TRUE</enabled>
						<duration>1080000</duration>
						<rate>
							<timebase>25</timebase>
							<ntsc>FALSE</ntsc>
						</rate>
						<start>29367</start>
						<end>29785</end>
						<in>90000</in>
						<out>90418</out>
						<pproTicksIn>914457600000000</pproTicksIn>
						<pproTicksOut>918704747520000</pproTicksOut>
						<alphatype>straight</alphatype>
						<pixelaspectratio>square</pixelaspectratio>
						<anamorphic>FALSE</anamorphic>
						<file id="file-107">
							<name>Title 02</name>
							<mediaSource>Slug</mediaSource>
							<rate>
								<timebase>30</timebase>
								<ntsc>TRUE</ntsc>
							</rate>
							<timecode>
								<rate>
									<timebase>30</timebase>
									<ntsc>TRUE</ntsc>
								</rate>
								<string>00;00;00;00</string>
								<frame>0</frame>
								<displayformat>DF</displayformat>
								<reel>
									<name></name>
								</reel>
							</timecode>
							<media>
								<video>
									<samplecharacteristics>
										<rate>
											<timebase>30</timebase>
											<ntsc>TRUE</ntsc>
										</rate>
										<width>1920</width>
										<height>1080</height>
										<anamorphic>FALSE</anamorphic>
										<pixelaspectratio>square</pixelaspectratio>
										<fielddominance>none</fielddominance>
									</samplecharacteristics>
								</video>
							</media>
						</file>
						<logginginfo>
							<description></description>
							<scene></scene>
							<shottake></shottake>
							<lognote></lognote>
						</logginginfo>
						<labels>
							<label2>Lavender</label2>
						</labels>
					</clipitem>
					<enabled>TRUE</enabled>
					<locked>FALSE</locked>
				</track>
				<track TL.SQTrackShy="0" TL.SQTrackExpandedHeight="45" TL.SQTrackExpanded="1" MZ.TrackTargeted="1">
					<clipitem id="clipitem-509">
						<masterclipid>masterclip-110</masterclipid>
						<name>BroShow_Vold_Logo_Intro_Graphic_01.mov</name>
						<enabled>TRUE</enabled>
						<duration>80</duration>
						<rate>
							<timebase>25</timebase>
							<ntsc>FALSE</ntsc>
						</rate>
						<start>261</start>
						<end>319</end>
						<in>0</in>
						<out>58</out>
						<pproTicksIn>0</pproTicksIn>
						<pproTicksOut>589317120000</pproTicksOut>
						<compositemode>texturize</compositemode>
						<alphatype>none</alphatype>
						<file id="file-99"/>
							<filter>
								<effect>
									<name>Opacity</name>
									<effectid>opacity</effectid>
									<effectcategory>motion</effectcategory>
									<effecttype>motion</effecttype>
									<mediatype>video</mediatype>
									<parameter authoringApp="PremierePro">
										<parameterid>opacity</parameterid>
										<name>opacity</name>
										<valuemin>0</valuemin>
										<valuemax>100</valuemax>
										<value>100</value>
									</parameter>
								</effect>
							</filter>
						<logginginfo>
							<description></description>
							<scene></scene>
							<shottake></shottake>
							<lognote></lognote>
						</logginginfo>
						<labels>
							<label2>Violet</label2>
						</labels>
					</clipitem>
					<clipitem id="clipitem-510">
						<masterclipid>masterclip-111</masterclipid>
						<name>BroShow_Vold_Supring_Abiel_Mikkel_Aon_06.mov</name>
						<enabled>TRUE</enabled>
						<duration>655</duration>
						<rate>
							<timebase>25</timebase>
							<ntsc>FALSE</ntsc>
						</rate>
						<start>319</start>
						<end>974</end>
						<in>0</in>
						<out>655</out>
						<pproTicksIn>0</pproTicksIn>
						<pproTicksOut>6655219200000</pproTicksOut>
						<compositemode>texturize</compositemode>
						<alphatype>none</alphatype>
						<file id="file-100"/>
							<filter>
								<effect>
									<name>Opacity</name>
									<effectid>opacity</effectid>
									<effectcategory>motion</effectcategory>
									<effecttype>motion</effecttype>
									<mediatype>video</mediatype>
									<parameter authoringApp="PremierePro">
										<parameterid>opacity</parameterid>
										<name>opacity</name>
										<valuemin>0</valuemin>
										<valuemax>100</valuemax>
										<value>100</value>
									</parameter>
								</effect>
							</filter>
						<logginginfo>
							<description></description>
							<scene></scene>
							<shottake></shottake>
							<lognote></lognote>
						</logginginfo>
						<labels>
							<label2>Violet</label2>
						</labels>
					</clipitem>
					<clipitem id="clipitem-511">
						<masterclipid>masterclip-112</masterclipid>
						<name>BroShow_Vold_DusteMikkel_Intro_Smack_02.mov</name>
						<enabled>TRUE</enabled>
						<duration>84</duration>
						<rate>
							<timebase>25</timebase>
							<ntsc>FALSE</ntsc>
						</rate>
						<start>11056</start>
						<end>11140</end>
						<in>0</in>
						<out>84</out>
						<pproTicksIn>0</pproTicksIn>
						<pproTicksOut>853493760000</pproTicksOut>
						<compositemode>texturize</compositemode>
						<alphatype>none</alphatype>
						<file id="file-101"/>
							<filter>
								<effect>
									<name>Opacity</name>
									<effectid>opacity</effectid>
									<effectcategory>motion</effectcategory>
									<effecttype>motion</effecttype>
									<mediatype>video</mediatype>
									<parameter authoringApp="PremierePro">
										<parameterid>opacity</parameterid>
										<name>opacity</name>
										<valuemin>0</valuemin>
										<valuemax>100</valuemax>
										<value>80</value>
									</parameter>
								</effect>
							</filter>
						<logginginfo>
							<description></description>
							<scene></scene>
							<shottake></shottake>
							<lognote></lognote>
						</logginginfo>
						<labels>
							<label2>Violet</label2>
						</labels>
					</clipitem>
					<clipitem id="clipitem-512">
						<masterclipid>masterclip-113</masterclipid>
						<name>Vold_DusteMikkel_Prat_01_RENDER_READY_01.mov</name>
						<enabled>TRUE</enabled>
						<duration>2293</duration>
						<rate>
							<timebase>25</timebase>
							<ntsc>FALSE</ntsc>
						</rate>
						<start>11140</start>
						<end>11565</end>
						<in>0</in>
						<out>425</out>
						<pproTicksIn>0</pproTicksIn>
						<pproTicksOut>4318272000000</pproTicksOut>
						<compositemode>texturize</compositemode>
						<alphatype>none</alphatype>
						<file id="file-102"/>
							<filter>
								<effect>
									<name>Opacity</name>
									<effectid>opacity</effectid>
									<effectcategory>motion</effectcategory>
									<effecttype>motion</effecttype>
									<mediatype>video</mediatype>
									<parameter authoringApp="PremierePro">
										<parameterid>opacity</parameterid>
										<name>opacity</name>
										<valuemin>0</valuemin>
										<valuemax>100</valuemax>
										<value>80</value>
									</parameter>
								</effect>
							</filter>
						<logginginfo>
							<description></description>
							<scene></scene>
							<shottake></shottake>
							<lognote></lognote>
						</logginginfo>
						<labels>
							<label2>Violet</label2>
						</labels>
					</clipitem>
					<clipitem id="clipitem-513">
						<masterclipid>masterclip-113</masterclipid>
						<name>Vold_DusteMikkel_Prat_01_RENDER_READY_01.mov</name>
						<enabled>TRUE</enabled>
						<duration>2293</duration>
						<rate>
							<timebase>25</timebase>
							<ntsc>FALSE</ntsc>
						</rate>
						<start>11642</start>
						<end>11720</end>
						<in>502</in>
						<out>580</out>
						<pproTicksIn>5100641280000</pproTicksIn>
						<pproTicksOut>5893171200000</pproTicksOut>
						<compositemode>texturize</compositemode>
						<alphatype>none</alphatype>
						<file id="file-102"/>
							<filter>
								<effect>
									<name>Basic Motion</name>
									<effectid>basic</effectid>
									<effectcategory>motion</effectcategory>
									<effecttype>motion</effecttype>
									<mediatype>video</mediatype>
									<parameter authoringApp="PremierePro">
										<parameterid>scale</parameterid>
										<name>Scale</name>
										<valuemin>0</valuemin>
										<valuemax>1000</valuemax>
										<value>80</value>
									</parameter>
									<parameter authoringApp="PremierePro">
										<parameterid>rotation</parameterid>
										<name>Rotation</name>
										<valuemin>-8640</valuemin>
										<valuemax>8640</valuemax>
										<value>0</value>
									</parameter>
									<parameter authoringApp="PremierePro">
										<parameterid>center</parameterid>
										<name>Center</name>
										<value>
											<horiz>0</horiz>
											<vert>0</vert>
										</value>
									</parameter>
									<parameter authoringApp="PremierePro">
										<parameterid>centerOffset</parameterid>
										<name>Anchor Point</name>
										<value>
											<horiz>0</horiz>
											<vert>0</vert>
										</value>
									</parameter>
								</effect>
							</filter>
							<filter>
								<effect>
									<name>Opacity</name>
									<effectid>opacity</effectid>
									<effectcategory>motion</effectcategory>
									<effecttype>motion</effecttype>
									<mediatype>video</mediatype>
									<parameter authoringApp="PremierePro">
										<parameterid>opacity</parameterid>
										<name>opacity</name>
										<valuemin>0</valuemin>
										<valuemax>100</valuemax>
										<value>80</value>
									</parameter>
								</effect>
							</filter>
						<logginginfo>
							<description></description>
							<scene></scene>
							<shottake></shottake>
							<lognote></lognote>
						</logginginfo>
						<labels>
							<label2>Violet</label2>
						</labels>
					</clipitem>
					<clipitem id="clipitem-514">
						<masterclipid>masterclip-113</masterclipid>
						<name>Vold_DusteMikkel_Prat_01_RENDER_READY_01.mov</name>
						<enabled>TRUE</enabled>
						<duration>2293</duration>
						<rate>
							<timebase>25</timebase>
							<ntsc>FALSE</ntsc>
						</rate>
						<start>11720</start>
						<end>13376</end>
						<in>580</in>
						<out>2236</out>
						<pproTicksIn>5893171200000</pproTicksIn>
						<pproTicksOut>22719191040000</pproTicksOut>
						<compositemode>texturize</compositemode>
						<alphatype>none</alphatype>
						<file id="file-102"/>
							<filter>
								<effect>
									<name>Opacity</name>
									<effectid>opacity</effectid>
									<effectcategory>motion</effectcategory>
									<effecttype>motion</effecttype>
									<mediatype>video</mediatype>
									<parameter authoringApp="PremierePro">
										<parameterid>opacity</parameterid>
										<name>opacity</name>
										<valuemin>0</valuemin>
										<valuemax>100</valuemax>
										<value>80</value>
									</parameter>
								</effect>
							</filter>
						<logginginfo>
							<description></description>
							<scene></scene>
							<shottake></shottake>
							<lognote></lognote>
						</logginginfo>
						<labels>
							<label2>Violet</label2>
						</labels>
					</clipitem>
					<clipitem id="clipitem-515">
						<masterclipid>masterclip-116</masterclipid>
						<name>BroShow_Vold_Mikkel_Fekter_02.mov</name>
						<enabled>TRUE</enabled>
						<duration>2347</duration>
						<rate>
							<timebase>25</timebase>
							<ntsc>FALSE</ntsc>
						</rate>
						<start>19021</start>
						<end>19203</end>
						<in>0</in>
						<out>182</out>
						<pproTicksIn>0</pproTicksIn>
						<pproTicksOut>1849236480000</pproTicksOut>
						<compositemode>texturize</compositemode>
						<alphatype>none</alphatype>
						<file id="file-105"/>
							<filter>
								<effect>
									<name>Opacity</name>
									<effectid>opacity</effectid>
									<effectcategory>motion</effectcategory>
									<effecttype>motion</effecttype>
									<mediatype>video</mediatype>
									<parameter authoringApp="PremierePro">
										<parameterid>opacity</parameterid>
										<name>opacity</name>
										<valuemin>0</valuemin>
										<valuemax>100</valuemax>
										<value>100</value>
									</parameter>
								</effect>
							</filter>
						<logginginfo>
							<description></description>
							<scene></scene>
							<shottake></shottake>
							<lognote></lognote>
						</logginginfo>
						<labels>
							<label2>Violet</label2>
						</labels>
					</clipitem>
					<clipitem id="clipitem-516">
						<masterclipid>masterclip-116</masterclipid>
						<name>BroShow_Vold_Mikkel_Fekter_02.mov</name>
						<enabled>TRUE</enabled>
						<duration>2347</duration>
						<rate>
							<timebase>25</timebase>
							<ntsc>FALSE</ntsc>
						</rate>
						<start>19203</start>
						<end>20327</end>
						<in>202</in>
						<out>1326</out>
						<pproTicksIn>2052449280000</pproTicksIn>
						<pproTicksOut>13473008640000</pproTicksOut>
						<compositemode>texturize</compositemode>
						<alphatype>none</alphatype>
						<file id="file-105"/>
							<filter>
								<effect>
									<name>Opacity</name>
									<effectid>opacity</effectid>
									<effectcategory>motion</effectcategory>
									<effecttype>motion</effecttype>
									<mediatype>video</mediatype>
									<parameter authoringApp="PremierePro">
										<parameterid>opacity</parameterid>
										<name>opacity</name>
										<valuemin>0</valuemin>
										<valuemax>100</valuemax>
										<value>100</value>
									</parameter>
								</effect>
							</filter>
						<logginginfo>
							<description></description>
							<scene></scene>
							<shottake></shottake>
							<lognote></lognote>
						</logginginfo>
						<labels>
							<label2>Violet</label2>
						</labels>
					</clipitem>
					<clipitem id="clipitem-517">
						<masterclipid>masterclip-116</masterclipid>
						<name>BroShow_Vold_Mikkel_Fekter_02.mov</name>
						<enabled>TRUE</enabled>
						<duration>2347</duration>
						<rate>
							<timebase>25</timebase>
							<ntsc>FALSE</ntsc>
						</rate>
						<start>20327</start>
						<end>21342</end>
						<in>1332</in>
						<out>2347</out>
						<pproTicksIn>13533972480000</pproTicksIn>
						<pproTicksOut>23847022080000</pproTicksOut>
						<compositemode>texturize</compositemode>
						<alphatype>none</alphatype>
						<file id="file-105"/>
							<filter>
								<effect>
									<name>Opacity</name>
									<effectid>opacity</effectid>
									<effectcategory>motion</effectcategory>
									<effecttype>motion</effecttype>
									<mediatype>video</mediatype>
									<parameter authoringApp="PremierePro">
										<parameterid>opacity</parameterid>
										<name>opacity</name>
										<valuemin>0</valuemin>
										<valuemax>100</valuemax>
										<value>100</value>
									</parameter>
								</effect>
							</filter>
						<logginginfo>
							<description></description>
							<scene></scene>
							<shottake></shottake>
							<lognote></lognote>
						</logginginfo>
						<labels>
							<label2>Violet</label2>
						</labels>
					</clipitem>
					<clipitem id="clipitem-518">
						<masterclipid>masterclip-117</masterclipid>
						<name>BroShow_Vold_Aon_Bokser_Supring_Runder_01.mov</name>
						<enabled>TRUE</enabled>
						<duration>4523</duration>
						<rate>
							<timebase>25</timebase>
							<ntsc>FALSE</ntsc>
						</rate>
						<start>23698</start>
						<end>23853</end>
						<in>207</in>
						<out>362</out>
						<pproTicksIn>2103252480000</pproTicksIn>
						<pproTicksOut>3678151680000</pproTicksOut>
						<compositemode>texturize</compositemode>
						<alphatype>none</alphatype>
						<file id="file-106"/>
							<filter>
								<effect>
									<name>Opacity</name>
									<effectid>opacity</effectid>
									<effectcategory>motion</effectcategory>
									<effecttype>motion</effecttype>
									<mediatype>video</mediatype>
									<parameter authoringApp="PremierePro">
										<parameterid>opacity</parameterid>
										<name>opacity</name>
										<valuemin>0</valuemin>
										<valuemax>100</valuemax>
										<value>100</value>
									</parameter>
								</effect>
							</filter>
						<logginginfo>
							<description></description>
							<scene></scene>
							<shottake></shottake>
							<lognote></lognote>
						</logginginfo>
						<labels>
							<label2>Violet</label2>
						</labels>
					</clipitem>
					<clipitem id="clipitem-519">
						<masterclipid>masterclip-117</masterclipid>
						<name>BroShow_Vold_Aon_Bokser_Supring_Runder_01.mov</name>
						<enabled>TRUE</enabled>
						<duration>4523</duration>
						<rate>
							<timebase>25</timebase>
							<ntsc>FALSE</ntsc>
						</rate>
						<start>23853</start>
						<end>24499</end>
						<in>388</in>
						<out>1034</out>
						<pproTicksIn>3942328320000</pproTicksIn>
						<pproTicksOut>10506101760000</pproTicksOut>
						<compositemode>texturize</compositemode>
						<alphatype>none</alphatype>
						<file id="file-106"/>
							<filter>
								<effect>
									<name>Opacity</name>
									<effectid>opacity</effectid>
									<effectcategory>motion</effectcategory>
									<effecttype>motion</effecttype>
									<mediatype>video</mediatype>
									<parameter authoringApp="PremierePro">
										<parameterid>opacity</parameterid>
										<name>opacity</name>
										<valuemin>0</valuemin>
										<valuemax>100</valuemax>
										<value>100</value>
									</parameter>
								</effect>
							</filter>
						<logginginfo>
							<description></description>
							<scene></scene>
							<shottake></shottake>
							<lognote></lognote>
						</logginginfo>
						<labels>
							<label2>Violet</label2>
						</labels>
					</clipitem>
					<clipitem id="clipitem-520">
						<masterclipid>masterclip-117</masterclipid>
						<name>BroShow_Vold_Aon_Bokser_Supring_Runder_01.mov</name>
						<enabled>TRUE</enabled>
						<duration>4523</duration>
						<rate>
							<timebase>25</timebase>
							<ntsc>FALSE</ntsc>
						</rate>
						<start>24499</start>
						<end>24566</end>
						<in>1042</in>
						<out>1109</out>
						<pproTicksIn>10587386880000</pproTicksIn>
						<pproTicksOut>11268149760000</pproTicksOut>
						<compositemode>texturize</compositemode>
						<alphatype>none</alphatype>
						<file id="file-106"/>
							<filter>
								<effect>
									<name>Opacity</name>
									<effectid>opacity</effectid>
									<effectcategory>motion</effectcategory>
									<effecttype>motion</effecttype>
									<mediatype>video</mediatype>
									<parameter authoringApp="PremierePro">
										<parameterid>opacity</parameterid>
										<name>opacity</name>
										<valuemin>0</valuemin>
										<valuemax>100</valuemax>
										<value>100</value>
									</parameter>
								</effect>
							</filter>
						<logginginfo>
							<description></description>
							<scene></scene>
							<shottake></shottake>
							<lognote></lognote>
						</logginginfo>
						<labels>
							<label2>Violet</label2>
						</labels>
					</clipitem>
					<clipitem id="clipitem-521">
						<masterclipid>masterclip-117</masterclipid>
						<name>BroShow_Vold_Aon_Bokser_Supring_Runder_01.mov</name>
						<enabled>TRUE</enabled>
						<duration>4523</duration>
						<rate>
							<timebase>25</timebase>
							<ntsc>FALSE</ntsc>
						</rate>
						<start>24566</start>
						<end>24655</end>
						<in>1125</in>
						<out>1214</out>
						<pproTicksIn>11430720000000</pproTicksIn>
						<pproTicksOut>12335016960000</pproTicksOut>
						<compositemode>texturize</compositemode>
						<alphatype>none</alphatype>
						<file id="file-106"/>
							<filter>
								<effect>
									<name>Opacity</name>
									<effectid>opacity</effectid>
									<effectcategory>motion</effectcategory>
									<effecttype>motion</effecttype>
									<mediatype>video</mediatype>
									<parameter authoringApp="PremierePro">
										<parameterid>opacity</parameterid>
										<name>opacity</name>
										<valuemin>0</valuemin>
										<valuemax>100</valuemax>
										<value>100</value>
									</parameter>
								</effect>
							</filter>
						<logginginfo>
							<description></description>
							<scene></scene>
							<shottake></shottake>
							<lognote></lognote>
						</logginginfo>
						<labels>
							<label2>Violet</label2>
						</labels>
					</clipitem>
					<clipitem id="clipitem-522">
						<masterclipid>masterclip-117</masterclipid>
						<name>BroShow_Vold_Aon_Bokser_Supring_Runder_01.mov</name>
						<enabled>TRUE</enabled>
						<duration>4523</duration>
						<rate>
							<timebase>25</timebase>
							<ntsc>FALSE</ntsc>
						</rate>
						<start>24655</start>
						<end>25118</end>
						<in>1255</in>
						<out>1718</out>
						<pproTicksIn>12751603200000</pproTicksIn>
						<pproTicksOut>17455979520000</pproTicksOut>
						<compositemode>texturize</compositemode>
						<alphatype>none</alphatype>
						<file id="file-106"/>
							<filter>
								<effect>
									<name>Opacity</name>
									<effectid>opacity</effectid>
									<effectcategory>motion</effectcategory>
									<effecttype>motion</effecttype>
									<mediatype>video</mediatype>
									<parameter authoringApp="PremierePro">
										<parameterid>opacity</parameterid>
										<name>opacity</name>
										<valuemin>0</valuemin>
										<valuemax>100</valuemax>
										<value>100</value>
									</parameter>
								</effect>
							</filter>
						<logginginfo>
							<description></description>
							<scene></scene>
							<shottake></shottake>
							<lognote></lognote>
						</logginginfo>
						<labels>
							<label2>Violet</label2>
						</labels>
					</clipitem>
					<clipitem id="clipitem-523">
						<masterclipid>masterclip-117</masterclipid>
						<name>BroShow_Vold_Aon_Bokser_Supring_Runder_01.mov</name>
						<enabled>TRUE</enabled>
						<duration>4523</duration>
						<rate>
							<timebase>25</timebase>
							<ntsc>FALSE</ntsc>
						</rate>
						<start>25118</start>
						<end>25761</end>
						<in>1762</in>
						<out>2405</out>
						<pproTicksIn>17903047680000</pproTicksIn>
						<pproTicksOut>24436339200000</pproTicksOut>
						<compositemode>texturize</compositemode>
						<alphatype>none</alphatype>
						<file id="file-106"/>
							<filter>
								<effect>
									<name>Opacity</name>
									<effectid>opacity</effectid>
									<effectcategory>motion</effectcategory>
									<effecttype>motion</effecttype>
									<mediatype>video</mediatype>
									<parameter authoringApp="PremierePro">
										<parameterid>opacity</parameterid>
										<name>opacity</name>
										<valuemin>0</valuemin>
										<valuemax>100</valuemax>
										<value>100</value>
									</parameter>
								</effect>
							</filter>
						<logginginfo>
							<description></description>
							<scene></scene>
							<shottake></shottake>
							<lognote></lognote>
						</logginginfo>
						<labels>
							<label2>Violet</label2>
						</labels>
					</clipitem>
					<clipitem id="clipitem-524">
						<masterclipid>masterclip-117</masterclipid>
						<name>BroShow_Vold_Aon_Bokser_Supring_Runder_01.mov</name>
						<enabled>TRUE</enabled>
						<duration>4523</duration>
						<rate>
							<timebase>25</timebase>
							<ntsc>FALSE</ntsc>
						</rate>
						<start>25761</start>
						<end>27869</end>
						<in>2415</in>
						<out>4523</out>
						<pproTicksIn>24537945600000</pproTicksIn>
						<pproTicksOut>45956574720000</pproTicksOut>
						<compositemode>texturize</compositemode>
						<alphatype>none</alphatype>
						<file id="file-106"/>
							<filter>
								<effect>
									<name>Opacity</name>
									<effectid>opacity</effectid>
									<effectcategory>motion</effectcategory>
									<effecttype>motion</effecttype>
									<mediatype>video</mediatype>
									<parameter authoringApp="PremierePro">
										<parameterid>opacity</parameterid>
										<name>opacity</name>
										<valuemin>0</valuemin>
										<valuemax>100</valuemax>
										<value>100</value>
									</parameter>
								</effect>
							</filter>
						<logginginfo>
							<description></description>
							<scene></scene>
							<shottake></shottake>
							<lognote></lognote>
						</logginginfo>
						<labels>
							<label2>Violet</label2>
						</labels>
					</clipitem>
					<enabled>TRUE</enabled>
					<locked>FALSE</locked>
				</track>
				<track TL.SQTrackShy="0" TL.SQTrackExpandedHeight="45" TL.SQTrackExpanded="1" MZ.TrackTargeted="1">
					<clipitem id="clipitem-525">
						<masterclipid>masterclip-119</masterclipid>
						<name>BroShow_Hidden_Camera_Lens_Vignette_04.png</name>
						<enabled>TRUE</enabled>
						<duration>1080000</duration>
						<rate>
							<timebase>25</timebase>
							<ntsc>FALSE</ntsc>
						</rate>
						<start>19260</start>
						<end>19427</end>
						<in>90000</in>
						<out>90167</out>
						<pproTicksIn>914457600000000</pproTicksIn>
						<pproTicksOut>916154426880000</pproTicksOut>
						<alphatype>straight</alphatype>
						<pixelaspectratio>square</pixelaspectratio>
						<anamorphic>FALSE</anamorphic>
						<file id="file-108">
							<name>BroShow_Hidden_Camera_Lens_Vignette_04.png</name>
							<pathurl>file://localhost/Volumes/Bingen/Prosjekter/MYNT194016%20WHATS%20COOKING/Grafikk/BitMap_01/BroShow_Hidden_Camera_Lens_Vignette_04.png</pathurl>
							<rate>
								<timebase>30</timebase>
								<ntsc>TRUE</ntsc>
							</rate>
							<timecode>
								<rate>
									<timebase>30</timebase>
									<ntsc>TRUE</ntsc>
								</rate>
								<string>00;00;00;00</string>
								<frame>0</frame>
								<displayformat>DF</displayformat>
								<reel>
									<name></name>
								</reel>
							</timecode>
							<media>
								<video>
									<samplecharacteristics>
										<rate>
											<timebase>30</timebase>
											<ntsc>TRUE</ntsc>
										</rate>
										<width>1920</width>
										<height>1080</height>
										<anamorphic>FALSE</anamorphic>
										<pixelaspectratio>square</pixelaspectratio>
										<fielddominance>none</fielddominance>
									</samplecharacteristics>
								</video>
							</media>
						</file>
						<logginginfo>
							<description></description>
							<scene></scene>
							<shottake></shottake>
							<lognote></lognote>
						</logginginfo>
						<labels>
							<label2>Lavender</label2>
						</labels>
					</clipitem>
					<clipitem id="clipitem-526">
						<masterclipid>masterclip-120</masterclipid>
						<name>BroShow_Sladdefjes_Clip_01.mov</name>
						<enabled>TRUE</enabled>
						<duration>376</duration>
						<rate>
							<timebase>25</timebase>
							<ntsc>FALSE</ntsc>
						</rate>
						<start>19475</start>
						<end>19561</end>
						<in>62</in>
						<out>148</out>
						<pproTicksIn>629959680000</pproTicksIn>
						<pproTicksOut>1503774720000</pproTicksOut>
						<alphatype>none</alphatype>
						<pixelaspectratio>square</pixelaspectratio>
						<anamorphic>FALSE</anamorphic>
						<file id="file-109">
							<name>BroShow_Sladdefjes_Clip_01.mov</name>
							<pathurl>file://localhost/Volumes/Bingen/Prosjekter/MYNT194016%20WHATS%20COOKING/Grafikk/Renders/Sladdefjes_01/BroShow_Sladdefjes_Clip_01.mov</pathurl>
							<rate>
								<timebase>25</timebase>
								<ntsc>FALSE</ntsc>
							</rate>
							<duration>376</duration>
							<timecode>
								<rate>
									<timebase>25</timebase>
									<ntsc>FALSE</ntsc>
								</rate>
								<string>00:00:00:00</string>
								<frame>0</frame>
								<displayformat>NDF</displayformat>
								<reel>
									<name></name>
								</reel>
							</timecode>
							<media>
								<video>
									<samplecharacteristics>
										<rate>
											<timebase>25</timebase>
											<ntsc>FALSE</ntsc>
										</rate>
										<width>1920</width>
										<height>1080</height>
										<anamorphic>FALSE</anamorphic>
										<pixelaspectratio>square</pixelaspectratio>
										<fielddominance>none</fielddominance>
									</samplecharacteristics>
								</video>
							</media>
						</file>
							<filter>
								<effect>
									<name>Basic Motion</name>
									<effectid>basic</effectid>
									<effectcategory>motion</effectcategory>
									<effecttype>motion</effecttype>
									<mediatype>video</mediatype>
									<parameter authoringApp="PremierePro">
										<parameterid>scale</parameterid>
										<name>Scale</name>
										<valuemin>0</valuemin>
										<valuemax>1000</valuemax>
										<value>55</value>
										<keyframe>
											<when>62</when>
											<value>26</value>
										</keyframe>
										<keyframe>
											<when>63</when>
											<value>26</value>
										</keyframe>
										<keyframe>
											<when>74</when>
											<value>28</value>
										</keyframe>
										<keyframe>
											<when>79</when>
											<value>30</value>
										</keyframe>
										<keyframe>
											<when>84</when>
											<value>32</value>
										</keyframe>
										<keyframe>
											<when>88</when>
											<value>34</value>
										</keyframe>
										<keyframe>
											<when>90</when>
											<value>35</value>
										</keyframe>
										<keyframe>
											<when>93</when>
											<value>36</value>
										</keyframe>
										<keyframe>
											<when>101</when>
											<value>37</value>
										</keyframe>
										<keyframe>
											<when>105</when>
											<value>38</value>
										</keyframe>
										<keyframe>
											<when>109</when>
											<value>39</value>
										</keyframe>
										<keyframe>
											<when>111</when>
											<value>40</value>
										</keyframe>
										<keyframe>
											<when>112</when>
											<value>41</value>
										</keyframe>
										<keyframe>
											<when>114</when>
											<value>42</value>
										</keyframe>
										<keyframe>
											<when>115</when>
											<value>43</value>
										</keyframe>
										<keyframe>
											<when>117</when>
											<value>44</value>
										</keyframe>
										<keyframe>
											<when>123</when>
											<value>45</value>
										</keyframe>
										<keyframe>
											<when>124</when>
											<value>46</value>
										</keyframe>
										<keyframe>
											<when>125</when>
											<value>47</value>
										</keyframe>
										<keyframe>
											<when>127</when>
											<value>48</value>
										</keyframe>
										<keyframe>
											<when>128</when>
											<value>49</value>
										</keyframe>
										<keyframe>
											<when>129</when>
											<value>50</value>
										</keyframe>
										<keyframe>
											<when>131</when>
											<value>51</value>
										</keyframe>
										<keyframe>
											<when>135</when>
											<value>52</value>
										</keyframe>
										<keyframe>
											<when>139</when>
											<value>53</value>
										</keyframe>
										<keyframe>
											<when>143</when>
											<value>54</value>
										</keyframe>
										<keyframe>
											<when>145</when>
											<value>55</value>
										</keyframe>
									</parameter>
									<parameter authoringApp="PremierePro">
										<parameterid>rotation</parameterid>
										<name>Rotation</name>
										<valuemin>-8640</valuemin>
										<valuemax>8640</valuemax>
										<value>0</value>
										<keyframe>
											<when>62</when>
											<value>-10</value>
										</keyframe>
										<keyframe>
											<when>63</when>
											<value>-10</value>
										</keyframe>
										<keyframe>
											<when>65</when>
											<value>-6</value>
										</keyframe>
										<keyframe>
											<when>69</when>
											<value>-3</value>
										</keyframe>
										<keyframe>
											<when>71</when>
											<value>1</value>
										</keyframe>
										<keyframe>
											<when>76</when>
											<value>9</value>
										</keyframe>
										<keyframe>
											<when>82</when>
											<value>7</value>
										</keyframe>
										<keyframe>
											<when>84</when>
											<value>12</value>
										</keyframe>
										<keyframe>
											<when>114</when>
											<value>7</value>
										</keyframe>
										<keyframe>
											<when>116</when>
											<value>19</value>
										</keyframe>
										<keyframe>
											<when>123</when>
											<value>18</value>
										</keyframe>
										<keyframe>
											<when>124</when>
											<value>18</value>
										</keyframe>
										<keyframe>
											<when>129</when>
											<value>13</value>
										</keyframe>
										<keyframe>
											<when>131</when>
											<value>12</value>
										</keyframe>
										<keyframe>
											<when>135</when>
											<value>23</value>
										</keyframe>
										<keyframe>
											<when>139</when>
											<value>11</value>
										</keyframe>
										<keyframe>
											<when>143</when>
											<value>7.71429</value>
										</keyframe>
										<keyframe>
											<when>145</when>
											<value>4.23809</value>
										</keyframe>
										<keyframe>
											<when>146</when>
											<value>-2</value>
										</keyframe>
									</parameter>
									<parameter authoringApp="PremierePro">
										<parameterid>center</parameterid>
										<name>Center</name>
										<value>
											<horiz>0</horiz>
											<vert>0</vert>
										</value>
										<keyframe>
											<when>62</when>
											<value>
												<horiz>0.432813</horiz>
												<vert>-0.260185</vert>
											</value>
										</keyframe>
										<keyframe>
											<when>63</when>
											<value>
												<horiz>0.4375</horiz>
												<vert>-0.237963</vert>
											</value>
										</keyframe>
										<keyframe>
											<when>64</when>
											<value>
												<horiz>0.4375</horiz>
												<vert>-0.233333</vert>
											</value>
										</keyframe>
										<keyframe>
											<when>65</when>
											<value>
												<horiz>0.416667</horiz>
												<vert>-0.207407</vert>
											</value>
										</keyframe>
										<keyframe>
											<when>66</when>
											<value>
												<horiz>0.386979</horiz>
												<vert>-0.201852</vert>
											</value>
										</keyframe>
										<keyframe>
											<when>67</when>
											<value>
												<horiz>0.370313</horiz>
												<vert>-0.175</vert>
											</value>
										</keyframe>
										<keyframe>
											<when>68</when>
											<value>
												<horiz>0.3625</horiz>
												<vert>-0.144444</vert>
											</value>
										</keyframe>
										<keyframe>
											<when>69</when>
											<value>
												<horiz>0.347396</horiz>
												<vert>-0.0990741</vert>
											</value>
										</keyframe>
										<keyframe>
											<when>70</when>
											<value>
												<horiz>0.332812</horiz>
												<vert>-0.0768518</vert>
											</value>
										</keyframe>
										<keyframe>
											<when>71</when>
											<value>
												<horiz>0.313542</horiz>
												<vert>-0.0324074</vert>
											</value>
										</keyframe>
										<keyframe>
											<when>72</when>
											<value>
												<horiz>0.301562</horiz>
												<vert>-0.0175926</vert>
											</value>
										</keyframe>
										<keyframe>
											<when>73</when>
											<value>
												<horiz>0.326563</horiz>
												<vert>-0.0472222</vert>
											</value>
										</keyframe>
										<keyframe>
											<when>74</when>
											<value>
												<horiz>0.383854</horiz>
												<vert>-0.0527778</vert>
											</value>
										</keyframe>
										<keyframe>
											<when>75</when>
											<value>
												<horiz>0.477604</horiz>
												<vert>-0.105556</vert>
											</value>
										</keyframe>
										<keyframe>
											<when>77</when>
											<value>
												<horiz>0.422917</horiz>
												<vert>-0.0601852</vert>
											</value>
										</keyframe>
										<keyframe>
											<when>78</when>
											<value>
												<horiz>0.338542</horiz>
												<vert>-0.0287037</vert>
											</value>
										</keyframe>
										<keyframe>
											<when>79</when>
											<value>
												<horiz>0.294271</horiz>
												<vert>-0.00277779</vert>
											</value>
										</keyframe>
										<keyframe>
											<when>80</when>
											<value>
												<horiz>0.276563</horiz>
												<vert>0.00833333</vert>
											</value>
										</keyframe>
										<keyframe>
											<when>83</when>
											<value>
												<horiz>0.299479</horiz>
												<vert>0.0175926</vert>
											</value>
										</keyframe>
										<keyframe>
											<when>84</when>
											<value>
												<horiz>0.332812</horiz>
												<vert>-0.00462964</vert>
											</value>
										</keyframe>
										<keyframe>
											<when>85</when>
											<value>
												<horiz>0.348958</horiz>
												<vert>-0.0333333</vert>
											</value>
										</keyframe>
										<keyframe>
											<when>86</when>
											<value>
												<horiz>0.354167</horiz>
												<vert>-0.0287037</vert>
											</value>
										</keyframe>
										<keyframe>
											<when>87</when>
											<value>
												<horiz>0.352083</horiz>
												<vert>-0.0287037</vert>
											</value>
										</keyframe>
										<keyframe>
											<when>88</when>
											<value>
												<horiz>0.329687</horiz>
												<vert>-0.0388889</vert>
											</value>
										</keyframe>
										<keyframe>
											<when>89</when>
											<value>
												<horiz>0.307292</horiz>
												<vert>-0.0388889</vert>
											</value>
										</keyframe>
										<keyframe>
											<when>90</when>
											<value>
												<horiz>0.268229</horiz>
												<vert>-0.0351852</vert>
											</value>
										</keyframe>
										<keyframe>
											<when>91</when>
											<value>
												<horiz>0.24375</horiz>
												<vert>-0.0351852</vert>
											</value>
										</keyframe>
										<keyframe>
											<when>92</when>
											<value>
												<horiz>0.226042</horiz>
												<vert>-0.0351852</vert>
											</value>
										</keyframe>
										<keyframe>
											<when>93</when>
											<value>
												<horiz>0.210417</horiz>
												<vert>-0.0351852</vert>
											</value>
										</keyframe>
										<keyframe>
											<when>94</when>
											<value>
												<horiz>0.182292</horiz>
												<vert>-0.0351852</vert>
											</value>
										</keyframe>
										<keyframe>
											<when>95</when>
											<value>
												<horiz>0.173958</horiz>
												<vert>-0.0351852</vert>
											</value>
										</keyframe>
										<keyframe>
											<when>96</when>
											<value>
												<horiz>0.165104</horiz>
												<vert>-0.0444444</vert>
											</value>
										</keyframe>
										<keyframe>
											<when>97</when>
											<value>
												<horiz>0.171354</horiz>
												<vert>-0.0712963</vert>
											</value>
										</keyframe>
										<keyframe>
											<when>98</when>
											<value>
												<horiz>0.177083</horiz>
												<vert>-0.117593</vert>
											</value>
										</keyframe>
										<keyframe>
											<when>99</when>
											<value>
												<horiz>0.179167</horiz>
												<vert>-0.135185</vert>
											</value>
										</keyframe>
										<keyframe>
											<when>100</when>
											<value>
												<horiz>0.175</horiz>
												<vert>-0.135185</vert>
											</value>
										</keyframe>
										<keyframe>
											<when>101</when>
											<value>
												<horiz>0.149479</horiz>
												<vert>-0.167593</vert>
											</value>
										</keyframe>
										<keyframe>
											<when>102</when>
											<value>
												<horiz>0.128125</horiz>
												<vert>-0.191667</vert>
											</value>
										</keyframe>
										<keyframe>
											<when>103</when>
											<value>
												<horiz>0.108333</horiz>
												<vert>-0.191667</vert>
											</value>
										</keyframe>
										<keyframe>
											<when>104</when>
											<value>
												<horiz>0.0880209</horiz>
												<vert>-0.191667</vert>
											</value>
										</keyframe>
										<keyframe>
											<when>105</when>
											<value>
												<horiz>0.075</horiz>
												<vert>-0.191667</vert>
											</value>
										</keyframe>
										<keyframe>
											<when>106</when>
											<value>
												<horiz>0.0682291</horiz>
												<vert>-0.219444</vert>
											</value>
										</keyframe>
										<keyframe>
											<when>107</when>
											<value>
												<horiz>0.0682291</horiz>
												<vert>-0.225926</vert>
											</value>
										</keyframe>
										<keyframe>
											<when>108</when>
											<value>
												<horiz>0.0682291</horiz>
												<vert>-0.236111</vert>
											</value>
										</keyframe>
										<keyframe>
											<when>109</when>
											<value>
												<horiz>0.0682291</horiz>
												<vert>-0.239815</vert>
											</value>
										</keyframe>
										<keyframe>
											<when>110</when>
											<value>
												<horiz>0.0640625</horiz>
												<vert>-0.247222</vert>
											</value>
										</keyframe>
										<keyframe>
											<when>111</when>
											<value>
												<horiz>0.0692708</horiz>
												<vert>-0.247222</vert>
											</value>
										</keyframe>
										<keyframe>
											<when>112</when>
											<value>
												<horiz>0.0838541</horiz>
												<vert>-0.251852</vert>
											</value>
										</keyframe>
										<keyframe>
											<when>114</when>
											<value>
												<horiz>0.0901042</horiz>
												<vert>-0.25463</vert>
											</value>
										</keyframe>
										<keyframe>
											<when>115</when>
											<value>
												<horiz>0.0947917</horiz>
												<vert>-0.276852</vert>
											</value>
										</keyframe>
										<keyframe>
											<when>116</when>
											<value>
												<horiz>0.09375</horiz>
												<vert>-0.276852</vert>
											</value>
										</keyframe>
										<keyframe>
											<when>117</when>
											<value>
												<horiz>0.0885417</horiz>
												<vert>-0.276852</vert>
											</value>
										</keyframe>
										<keyframe>
											<when>120</when>
											<value>
												<horiz>0.102083</horiz>
												<vert>-0.276852</vert>
											</value>
										</keyframe>
										<keyframe>
											<when>121</when>
											<value>
												<horiz>0.108854</horiz>
												<vert>-0.276852</vert>
											</value>
										</keyframe>
										<keyframe>
											<when>123</when>
											<value>
												<horiz>0.114583</horiz>
												<vert>-0.285185</vert>
											</value>
										</keyframe>
										<keyframe>
											<when>124</when>
											<value>
												<horiz>0.116667</horiz>
												<vert>-0.300926</vert>
											</value>
										</keyframe>
										<keyframe>
											<when>125</when>
											<value>
												<horiz>0.127083</horiz>
												<vert>-0.300926</vert>
											</value>
										</keyframe>
										<keyframe>
											<when>126</when>
											<value>
												<horiz>0.1375</horiz>
												<vert>-0.321296</vert>
											</value>
										</keyframe>
										<keyframe>
											<when>127</when>
											<value>
												<horiz>0.15</horiz>
												<vert>-0.341667</vert>
											</value>
										</keyframe>
										<keyframe>
											<when>128</when>
											<value>
												<horiz>0.163021</horiz>
												<vert>-0.367593</vert>
											</value>
										</keyframe>
										<keyframe>
											<when>129</when>
											<value>
												<horiz>0.160417</horiz>
												<vert>-0.380556</vert>
											</value>
										</keyframe>
										<keyframe>
											<when>131</when>
											<value>
												<horiz>0.148438</horiz>
												<vert>-0.380556</vert>
											</value>
										</keyframe>
										<keyframe>
											<when>135</when>
											<value>
												<horiz>0.149479</horiz>
												<vert>-0.377778</vert>
											</value>
										</keyframe>
										<keyframe>
											<when>138</when>
											<value>
												<horiz>0.149479</horiz>
												<vert>-0.418519</vert>
											</value>
										</keyframe>
										<keyframe>
											<when>139</when>
											<value>
												<horiz>0.149479</horiz>
												<vert>-0.437037</vert>
											</value>
										</keyframe>
										<keyframe>
											<when>141</when>
											<value>
												<horiz>0.144792</horiz>
												<vert>-0.437037</vert>
											</value>
										</keyframe>
										<keyframe>
											<when>142</when>
											<value>
												<horiz>0.129167</horiz>
												<vert>-0.437037</vert>
											</value>
										</keyframe>
										<keyframe>
											<when>143</when>
											<value>
												<horiz>0.11875</horiz>
												<vert>-0.437037</vert>
											</value>
										</keyframe>
										<keyframe>
											<when>144</when>
											<value>
												<horiz>0.1</horiz>
												<vert>-0.442593</vert>
											</value>
										</keyframe>
										<keyframe>
											<when>145</when>
											<value>
												<horiz>0.0755208</horiz>
												<vert>-0.446296</vert>
											</value>
										</keyframe>
										<keyframe>
											<when>146</when>
											<value>
												<horiz>0.0510417</horiz>
												<vert>-0.446296</vert>
											</value>
										</keyframe>
										<keyframe>
											<when>147</when>
											<value>
												<horiz>0.0302083</horiz>
												<vert>-0.446296</vert>
											</value>
										</keyframe>
									</parameter>
									<parameter authoringApp="PremierePro">
										<parameterid>centerOffset</parameterid>
										<name>Anchor Point</name>
										<value>
											<horiz>0</horiz>
											<vert>0</vert>
										</value>
									</parameter>
								</effect>
							</filter>
						<logginginfo>
							<description></description>
							<scene></scene>
							<shottake></shottake>
							<lognote></lognote>
						</logginginfo>
						<labels>
							<label2>Violet</label2>
						</labels>
					</clipitem>
					<enabled>TRUE</enabled>
					<locked>FALSE</locked>
				</track>
				<track TL.SQTrackShy="0" TL.SQTrackExpandedHeight="45" TL.SQTrackExpanded="1" MZ.TrackTargeted="1">
					<clipitem id="clipitem-527">
						<masterclipid>masterclip-121</masterclipid>
						<name>BroShow_Skjult_Kamera_Tekst_02.mov</name>
						<enabled>TRUE</enabled>
						<duration>87</duration>
						<rate>
							<timebase>25</timebase>
							<ntsc>FALSE</ntsc>
						</rate>
						<start>19260</start>
						<end>19347</end>
						<in>0</in>
						<out>87</out>
						<pproTicksIn>0</pproTicksIn>
						<pproTicksOut>883975680000</pproTicksOut>
						<alphatype>none</alphatype>
						<pixelaspectratio>square</pixelaspectratio>
						<anamorphic>FALSE</anamorphic>
						<file id="file-110">
							<name>BroShow_Skjult_Kamera_Tekst_02.mov</name>
							<pathurl>file://localhost/Volumes/Bingen/Prosjekter/MYNT194016%20WHATS%20COOKING/Grafikk/Renders/Skjult_Kamera_01/BroShow_Skjult_Kamera_Tekst_02.mov</pathurl>
							<rate>
								<timebase>25</timebase>
								<ntsc>FALSE</ntsc>
							</rate>
							<duration>87</duration>
							<timecode>
								<rate>
									<timebase>25</timebase>
									<ntsc>FALSE</ntsc>
								</rate>
								<string>00:00:12:19</string>
								<frame>319</frame>
								<displayformat>NDF</displayformat>
								<reel>
									<name></name>
								</reel>
							</timecode>
							<media>
								<video>
									<samplecharacteristics>
										<rate>
											<timebase>25</timebase>
											<ntsc>FALSE</ntsc>
										</rate>
										<width>1920</width>
										<height>1080</height>
										<anamorphic>FALSE</anamorphic>
										<pixelaspectratio>square</pixelaspectratio>
										<fielddominance>none</fielddominance>
									</samplecharacteristics>
								</video>
							</media>
						</file>
							<filter>
								<effect>
									<name>Opacity</name>
									<effectid>opacity</effectid>
									<effectcategory>motion</effectcategory>
									<effecttype>motion</effecttype>
									<mediatype>video</mediatype>
									<parameter authoringApp="PremierePro">
										<parameterid>opacity</parameterid>
										<name>opacity</name>
										<valuemin>0</valuemin>
										<valuemax>100</valuemax>
										<value>50</value>
									</parameter>
								</effect>
							</filter>
						<logginginfo>
							<description></description>
							<scene></scene>
							<shottake></shottake>
							<lognote></lognote>
						</logginginfo>
						<labels>
							<label2>Violet</label2>
						</labels>
					</clipitem>
					<clipitem id="clipitem-528">
						<masterclipid>masterclip-119</masterclipid>
						<name>BroShow_Hidden_Camera_Lens_Vignette_04.png</name>
						<enabled>TRUE</enabled>
						<duration>1080000</duration>
						<rate>
							<timebase>25</timebase>
							<ntsc>FALSE</ntsc>
						</rate>
						<start>20944</start>
						<end>21320</end>
						<in>90000</in>
						<out>90376</out>
						<pproTicksIn>914457600000000</pproTicksIn>
						<pproTicksOut>918278000640000</pproTicksOut>
						<alphatype>straight</alphatype>
						<file id="file-108"/>
						<logginginfo>
							<description></description>
							<scene></scene>
							<shottake></shottake>
							<lognote></lognote>
						</logginginfo>
						<labels>
							<label2>Lavender</label2>
						</labels>
					</clipitem>
					<enabled>TRUE</enabled>
					<locked>FALSE</locked>
				</track>
				<track TL.SQTrackShy="0" TL.SQTrackExpandedHeight="45" TL.SQTrackExpanded="1" MZ.TrackTargeted="1">
					<clipitem id="clipitem-529">
						<masterclipid>masterclip-121</masterclipid>
						<name>BroShow_Skjult_Kamera_Tekst_02.mov</name>
						<enabled>TRUE</enabled>
						<duration>87</duration>
						<rate>
							<timebase>25</timebase>
							<ntsc>FALSE</ntsc>
						</rate>
						<start>19260</start>
						<end>19347</end>
						<in>0</in>
						<out>87</out>
						<pproTicksIn>0</pproTicksIn>
						<pproTicksOut>883975680000</pproTicksOut>
						<compositemode>texturize</compositemode>
						<alphatype>none</alphatype>
						<file id="file-110"/>
							<filter>
								<effect>
									<name>Opacity</name>
									<effectid>opacity</effectid>
									<effectcategory>motion</effectcategory>
									<effecttype>motion</effecttype>
									<mediatype>video</mediatype>
									<parameter authoringApp="PremierePro">
										<parameterid>opacity</parameterid>
										<name>opacity</name>
										<valuemin>0</valuemin>
										<valuemax>100</valuemax>
										<value>100</value>
									</parameter>
								</effect>
							</filter>
						<logginginfo>
							<description></description>
							<scene></scene>
							<shottake></shottake>
							<lognote></lognote>
						</logginginfo>
						<labels>
							<label2>Violet</label2>
						</labels>
					</clipitem>
					<enabled>TRUE</enabled>
					<locked>FALSE</locked>
				</track>
			</video>
			<audio>
				<numOutputChannels>8</numOutputChannels>
				<format>
					<samplecharacteristics>
						<depth>16</depth>
						<samplerate>48000</samplerate>
					</samplecharacteristics>
				</format>
				<outputs>
					<group>
						<index>1</index>
						<numchannels>1</numchannels>
						<downmix>0</downmix>
						<channel>
							<index>1</index>
						</channel>
					</group>
					<group>
						<index>2</index>
						<numchannels>1</numchannels>
						<downmix>0</downmix>
						<channel>
							<index>2</index>
						</channel>
					</group>
					<group>
						<index>3</index>
						<numchannels>1</numchannels>
						<downmix>0</downmix>
						<channel>
							<index>3</index>
						</channel>
					</group>
					<group>
						<index>4</index>
						<numchannels>1</numchannels>
						<downmix>0</downmix>
						<channel>
							<index>4</index>
						</channel>
					</group>
					<group>
						<index>5</index>
						<numchannels>1</numchannels>
						<downmix>0</downmix>
						<channel>
							<index>5</index>
						</channel>
					</group>
					<group>
						<index>6</index>
						<numchannels>1</numchannels>
						<downmix>0</downmix>
						<channel>
							<index>6</index>
						</channel>
					</group>
					<group>
						<index>7</index>
						<numchannels>1</numchannels>
						<downmix>0</downmix>
						<channel>
							<index>7</index>
						</channel>
					</group>
					<group>
						<index>8</index>
						<numchannels>1</numchannels>
						<downmix>0</downmix>
						<channel>
							<index>8</index>
						</channel>
					</group>
				</outputs>
				<track TL.SQTrackAudioKeyframeStyle="0" TL.SQTrackShy="0" TL.SQTrackExpandedHeight="35" TL.SQTrackExpanded="1" MZ.TrackTargeted="1" MZ.TrackName="Audio 1" PannerCurrentValue="0.5" PannerIsInverted="true" PannerStartKeyframe="-91445760000000000,0.5,0,0,0,0,0,0" PannerName="Balance" currentExplodedTrackIndex="0" totalExplodedTrackCount="2" premiereTrackType="Stereo">
					<enabled>TRUE</enabled>
					<locked>FALSE</locked>
					<outputchannelindex>1</outputchannelindex>
				</track>
				<track TL.SQTrackAudioKeyframeStyle="0" TL.SQTrackShy="0" TL.SQTrackExpandedHeight="35" TL.SQTrackExpanded="1" MZ.TrackTargeted="1" MZ.TrackName="Audio 1" PannerCurrentValue="0.5" PannerIsInverted="true" PannerStartKeyframe="-91445760000000000,0.5,0,0,0,0,0,0" PannerName="Balance" currentExplodedTrackIndex="1" totalExplodedTrackCount="2" premiereTrackType="Stereo">
					<enabled>TRUE</enabled>
					<locked>FALSE</locked>
					<outputchannelindex>2</outputchannelindex>
				</track>
				<track TL.SQTrackAudioKeyframeStyle="0" TL.SQTrackShy="0" TL.SQTrackExpandedHeight="35" TL.SQTrackExpanded="1" MZ.TrackTargeted="1" MZ.TrackName="Audio 2" PannerCurrentValue="0.5" PannerIsInverted="true" PannerStartKeyframe="-91445760000000000,0.5,0,0,0,0,0,0" PannerName="Balance" currentExplodedTrackIndex="0" totalExplodedTrackCount="2" premiereTrackType="Stereo">
					<enabled>TRUE</enabled>
					<locked>FALSE</locked>
					<outputchannelindex>1</outputchannelindex>
				</track>
				<track TL.SQTrackAudioKeyframeStyle="0" TL.SQTrackShy="0" TL.SQTrackExpandedHeight="35" TL.SQTrackExpanded="1" MZ.TrackTargeted="1" MZ.TrackName="Audio 2" PannerCurrentValue="0.5" PannerIsInverted="true" PannerStartKeyframe="-91445760000000000,0.5,0,0,0,0,0,0" PannerName="Balance" currentExplodedTrackIndex="1" totalExplodedTrackCount="2" premiereTrackType="Stereo">
					<enabled>TRUE</enabled>
					<locked>FALSE</locked>
					<outputchannelindex>2</outputchannelindex>
				</track>
				<track TL.SQTrackAudioKeyframeStyle="0" TL.SQTrackShy="0" TL.SQTrackExpandedHeight="35" TL.SQTrackExpanded="1" MZ.TrackTargeted="1" MZ.TrackName="Audio 3" PannerCurrentValue="0.5" PannerIsInverted="true" PannerStartKeyframe="-91445760000000000,0.5,0,0,0,0,0,0" PannerName="Balance" currentExplodedTrackIndex="0" totalExplodedTrackCount="2" premiereTrackType="Stereo">
					<enabled>TRUE</enabled>
					<locked>FALSE</locked>
					<outputchannelindex>1</outputchannelindex>
				</track>
				<track TL.SQTrackAudioKeyframeStyle="0" TL.SQTrackShy="0" TL.SQTrackExpandedHeight="35" TL.SQTrackExpanded="1" MZ.TrackTargeted="1" MZ.TrackName="Audio 3" PannerCurrentValue="0.5" PannerIsInverted="true" PannerStartKeyframe="-91445760000000000,0.5,0,0,0,0,0,0" PannerName="Balance" currentExplodedTrackIndex="1" totalExplodedTrackCount="2" premiereTrackType="Stereo">
					<enabled>TRUE</enabled>
					<locked>FALSE</locked>
					<outputchannelindex>2</outputchannelindex>
				</track>
				<track TL.SQTrackAudioKeyframeStyle="0" TL.SQTrackShy="0" TL.SQTrackExpandedHeight="35" TL.SQTrackExpanded="1" MZ.TrackTargeted="1" MZ.TrackName="Audio 4" PannerCurrentValue="0.5" PannerIsInverted="true" PannerStartKeyframe="-91445760000000000,0.5,0,0,0,0,0,0" PannerName="Balance" currentExplodedTrackIndex="0" totalExplodedTrackCount="2" premiereTrackType="Stereo">
					<enabled>TRUE</enabled>
					<locked>FALSE</locked>
					<outputchannelindex>1</outputchannelindex>
				</track>
				<track TL.SQTrackAudioKeyframeStyle="0" TL.SQTrackShy="0" TL.SQTrackExpandedHeight="35" TL.SQTrackExpanded="1" MZ.TrackTargeted="1" MZ.TrackName="Audio 4" PannerCurrentValue="0.5" PannerIsInverted="true" PannerStartKeyframe="-91445760000000000,0.5,0,0,0,0,0,0" PannerName="Balance" currentExplodedTrackIndex="1" totalExplodedTrackCount="2" premiereTrackType="Stereo">
					<enabled>TRUE</enabled>
					<locked>FALSE</locked>
					<outputchannelindex>2</outputchannelindex>
				</track>
				<track TL.SQTrackAudioKeyframeStyle="0" TL.SQTrackShy="0" TL.SQTrackExpandedHeight="35" TL.SQTrackExpanded="1" MZ.TrackTargeted="1" PannerCurrentValue="0.5" PannerIsInverted="true" PannerStartKeyframe="-91445760000000000,0.5,0,0,0,0,0,0" PannerName="Balance" currentExplodedTrackIndex="0" totalExplodedTrackCount="2" premiereTrackType="Stereo">
					<clipitem id="clipitem-530" premiereChannelType="stereo">
						<masterclipid>masterclip-122</masterclipid>
						<name>BM004209.wav</name>
						<enabled>TRUE</enabled>
						<duration>4843</duration>
						<rate>
							<timebase>25</timebase>
							<ntsc>FALSE</ntsc>
						</rate>
						<start>0</start>
						<end>-1</end>
						<in>346</in>
						<out>369</out>
						<pproTicksIn>3515581440000</pproTicksIn>
						<pproTicksOut>3749276160000</pproTicksOut>
						<file id="file-111">
							<name>BM004209.wav</name>
							<pathurl>file://localhost/Volumes/Bingen/Prosjekter/MYNT194016%20WHATS%20COOKING/Musikk/Marita/VB%20sverdduell/auxmp14608_62816/BM004209.wav</pathurl>
							<rate>
								<timebase>30</timebase>
								<ntsc>TRUE</ntsc>
							</rate>
							<duration>5806</duration>
							<timecode>
								<rate>
									<timebase>30</timebase>
									<ntsc>TRUE</ntsc>
								</rate>
								<string>07;51;18;21</string>
								<frame>847513</frame>
								<displayformat>DF</displayformat>
								<reel>
									<name></name>
								</reel>
							</timecode>
							<media>
								<audio>
									<samplecharacteristics>
										<depth>16</depth>
										<samplerate>48000</samplerate>
									</samplecharacteristics>
									<channelcount>2</channelcount>
								</audio>
							</media>
						</file>
						<sourcetrack>
							<mediatype>audio</mediatype>
							<trackindex>1</trackindex>
						</sourcetrack>
							<filter>
								<effect>
									<name>Gain</name>
									<effectid>{61756678, 4761696e, 4b657947}</effectid>
									<effecttype>filter</effecttype>
									<mediatype>audio</mediatype>
									<parameter authoringApp="PremierePro">
										<parameterid>Gain(dB)</parameterid>
										<name>Gain(dB)</name>
										<valuemin>-96</valuemin>
										<valuemax>96</valuemax>
										<value>-28</value>
									</parameter>
								</effect>
							</filter>
						<link>
							<linkclipref>clipitem-530</linkclipref>
							<mediatype>audio</mediatype>
							<trackindex>9</trackindex>
							<clipindex>1</clipindex>
							<groupindex>1</groupindex>
						</link>
						<link>
							<linkclipref>clipitem-612</linkclipref>
							<mediatype>audio</mediatype>
							<trackindex>10</trackindex>
							<clipindex>1</clipindex>
							<groupindex>1</groupindex>
						</link>
						<logginginfo>
							<description></description>
							<scene></scene>
							<shottake></shottake>
							<lognote></lognote>
						</logginginfo>
						<labels>
							<label2>Caribbean</label2>
						</labels>
					</clipitem>
					<transitionitem>
						<start>10</start>
						<end>23</end>
						<alignment>end-black</alignment>
						<cutPointTicks>132088320000</cutPointTicks>
						<rate>
							<timebase>25</timebase>
							<ntsc>FALSE</ntsc>
						</rate>
						<effect>
							<name>Cross Fade (+3dB)</name>
							<effectid>KGAudioTransCrossFade3dB</effectid>
							<effecttype>transition</effecttype>
							<mediatype>audio</mediatype>
							<wipecode>0</wipecode>
							<wipeaccuracy>100</wipeaccuracy>
							<startratio>0</startratio>
							<endratio>1</endratio>
							<reverse>FALSE</reverse>
						</effect>
					</transitionitem>
					<clipitem id="clipitem-531" premiereChannelType="stereo">
						<masterclipid>masterclip-123</masterclipid>
						<name>Vold - Sverd 2</name>
						<enabled>TRUE</enabled>
						<duration>84037</duration>
						<rate>
							<timebase>25</timebase>
							<ntsc>FALSE</ntsc>
						</rate>
						<start>98</start>
						<end>117</end>
						<in>8913</in>
						<out>8932</out>
						<pproTicksIn>90561784320000</pproTicksIn>
						<pproTicksOut>90754836480000</pproTicksOut>
						<sequence id="sequence-10" TL.SQAudioVisibleBase="0" TL.SQVideoVisibleBase="0" TL.SQVisibleBaseTime="0" TL.SQAVDividerPosition="0.5" TL.SQHideShyTracks="0" TL.SQHeaderWidth="184" Monitor.ProgramZoomOut="426970414080000" Monitor.ProgramZoomIn="0" TL.SQTimePerPixel="1.4345157232704404" AM.TrackVScrollPosition="0" AM.TrackScrollPosition="0" MZ.EditLine="156321446400000" MZ.Sequence.PreviewFrameSizeHeight="1080" MZ.Sequence.PreviewFrameSizeWidth="1920" MZ.Sequence.AudioTimeDisplayFormat="200" MZ.Sequence.PreviewRenderingClassID="1061109567" MZ.Sequence.PreviewRenderingPresetCodec="1634755432" MZ.Sequence.PreviewRenderingPresetPath="EncoderPresets/SequencePreview/795454d9-d3c2-429d-9474-923ab13b7018/QuickTime.epr" MZ.Sequence.PreviewUseMaxRenderQuality="false" MZ.Sequence.PreviewUseMaxBitDepth="false" MZ.Sequence.EditingModeGUID="795454d9-d3c2-429d-9474-923ab13b7018" MZ.Sequence.VideoTimeDisplayFormat="101" MZ.WorkOutPoint="426970414080000" MZ.WorkInPoint="0" MZ.ZeroPoint="4166045291520000">
							<duration>42022</duration>
							<rate>
								<timebase>25</timebase>
								<ntsc>FALSE</ntsc>
							</rate>
							<name>Vold - Sverd 2</name>
							<media>
								<video>
									<format>
										<samplecharacteristics>
											<rate>
												<timebase>25</timebase>
												<ntsc>FALSE</ntsc>
											</rate>
											<codec>
												<name>Apple ProRes 422</name>
												<appspecificdata>
													<appname>Final Cut Pro</appname>
													<appmanufacturer>Apple Inc.</appmanufacturer>
													<appversion>7.0</appversion>
													<data>
														<qtcodec>
															<codecname>Apple ProRes 422</codecname>
															<codectypename>Apple ProRes 422</codectypename>
															<codectypecode>apcn</codectypecode>
															<codecvendorcode>appl</codecvendorcode>
															<spatialquality>1024</spatialquality>
															<temporalquality>0</temporalquality>
															<keyframerate>0</keyframerate>
															<datarate>0</datarate>
														</qtcodec>
													</data>
												</appspecificdata>
											</codec>
											<width>1920</width>
											<height>1080</height>
											<anamorphic>FALSE</anamorphic>
											<pixelaspectratio>square</pixelaspectratio>
											<fielddominance>none</fielddominance>
											<colordepth>24</colordepth>
										</samplecharacteristics>
									</format>
									<track TL.SQTrackShy="0" TL.SQTrackExpandedHeight="50" TL.SQTrackExpanded="1" MZ.TrackTargeted="1">
										<clipitem id="clipitem-532">
											<masterclipid>masterclip-124</masterclipid>
											<name>Clip0012.MXF</name>
											<enabled>TRUE</enabled>
											<duration>42804</duration>
											<rate>
												<timebase>25</timebase>
												<ntsc>FALSE</ntsc>
											</rate>
											<start>0</start>
											<end>42022</end>
											<in>782</in>
											<out>42804</out>
											<pproTicksIn>7945620480000</pproTicksIn>
											<pproTicksOut>434916034560000</pproTicksOut>
											<alphatype>none</alphatype>
											<pixelaspectratio>square</pixelaspectratio>
											<anamorphic>FALSE</anamorphic>
											<file id="file-112">
												<name>Clip0012.mov</name>
												<pathurl>file://localhost/Volumes/Bingen/Prosjekter/MYNT194016%20WHATS%20COOKING/Media/Episode%2003%20Brocodes/VB-opptak/21032016/KAM%20A%20KORT%201/ProRes/Clip0012.mov</pathurl>
												<rate>
													<timebase>25</timebase>
													<ntsc>FALSE</ntsc>
												</rate>
												<duration>42804</duration>
												<timecode>
													<rate>
														<timebase>25</timebase>
														<ntsc>FALSE</ntsc>
													</rate>
													<string>04:32:49:11</string>
													<frame>409236</frame>
													<displayformat>NDF</displayformat>
													<reel>
														<name></name>
													</reel>
												</timecode>
												<media>
													<video>
														<samplecharacteristics>
															<rate>
																<timebase>25</timebase>
																<ntsc>FALSE</ntsc>
															</rate>
															<width>1920</width>
															<height>1080</height>
															<anamorphic>FALSE</anamorphic>
															<pixelaspectratio>square</pixelaspectratio>
															<fielddominance>none</fielddominance>
														</samplecharacteristics>
													</video>
													<audio>
														<samplecharacteristics>
															<depth>16</depth>
															<samplerate>48000</samplerate>
														</samplecharacteristics>
														<channelcount>1</channelcount>
														<audiochannel>
															<sourcechannel>1</sourcechannel>
														</audiochannel>
													</audio>
													<audio>
														<samplecharacteristics>
															<depth>16</depth>
															<samplerate>48000</samplerate>
														</samplecharacteristics>
														<channelcount>1</channelcount>
														<audiochannel>
															<sourcechannel>2</sourcechannel>
														</audiochannel>
													</audio>
												</media>
											</file>
												<marker>
													<comment></comment>
													<name></name>
													<in>782</in>
													<out>-1</out>
												</marker>
											<link>
												<linkclipref>clipitem-532</linkclipref>
												<mediatype>video</mediatype>
												<trackindex>1</trackindex>
												<clipindex>1</clipindex>
											</link>
											<link>
												<linkclipref>clipitem-535</linkclipref>
												<mediatype>audio</mediatype>
												<trackindex>1</trackindex>
												<clipindex>1</clipindex>
												<groupindex>1</groupindex>
											</link>
											<link>
												<linkclipref>clipitem-536</linkclipref>
												<mediatype>audio</mediatype>
												<trackindex>2</trackindex>
												<clipindex>1</clipindex>
												<groupindex>1</groupindex>
											</link>
											<logginginfo>
												<description></description>
												<scene></scene>
												<shottake></shottake>
												<lognote></lognote>
											</logginginfo>
											<labels>
												<label2>Iris</label2>
											</labels>
										</clipitem>
										<enabled>TRUE</enabled>
										<locked>FALSE</locked>
									</track>
									<track TL.SQTrackShy="0" TL.SQTrackExpandedHeight="25" TL.SQTrackExpanded="0" MZ.TrackTargeted="1">
										<clipitem id="clipitem-533">
											<masterclipid>masterclip-125</masterclipid>
											<name>Clip0013.MXF</name>
											<enabled>TRUE</enabled>
											<duration>42120</duration>
											<rate>
												<timebase>25</timebase>
												<ntsc>FALSE</ntsc>
											</rate>
											<start>0</start>
											<end>42015</end>
											<in>105</in>
											<out>42120</out>
											<pproTicksIn>1066867200000</pproTicksIn>
											<pproTicksOut>427966156800000</pproTicksOut>
											<alphatype>none</alphatype>
											<pixelaspectratio>square</pixelaspectratio>
											<anamorphic>FALSE</anamorphic>
											<file id="file-113">
												<name>Clip0013.mov</name>
												<pathurl>file://localhost/Volumes/Bingen/Prosjekter/MYNT194016%20WHATS%20COOKING/Media/Episode%2003%20Brocodes/VB-opptak/21032016/KAM%20B%20KORT%201/ProRes/Clip0013.mov</pathurl>
												<rate>
													<timebase>25</timebase>
													<ntsc>FALSE</ntsc>
												</rate>
												<duration>42120</duration>
												<timecode>
													<rate>
														<timebase>25</timebase>
														<ntsc>FALSE</ntsc>
													</rate>
													<string>02:04:17:19</string>
													<frame>186444</frame>
													<displayformat>NDF</displayformat>
													<reel>
														<name></name>
													</reel>
												</timecode>
												<media>
													<video>
														<samplecharacteristics>
															<rate>
																<timebase>25</timebase>
																<ntsc>FALSE</ntsc>
															</rate>
															<width>1920</width>
															<height>1080</height>
															<anamorphic>FALSE</anamorphic>
															<pixelaspectratio>square</pixelaspectratio>
															<fielddominance>none</fielddominance>
														</samplecharacteristics>
													</video>
													<audio>
														<samplecharacteristics>
															<depth>16</depth>
															<samplerate>48000</samplerate>
														</samplecharacteristics>
														<channelcount>1</channelcount>
														<audiochannel>
															<sourcechannel>1</sourcechannel>
														</audiochannel>
													</audio>
													<audio>
														<samplecharacteristics>
															<depth>16</depth>
															<samplerate>48000</samplerate>
														</samplecharacteristics>
														<channelcount>1</channelcount>
														<audiochannel>
															<sourcechannel>2</sourcechannel>
														</audiochannel>
													</audio>
												</media>
											</file>
												<marker>
													<comment></comment>
													<name></name>
													<in>105</in>
													<out>-1</out>
												</marker>
											<link>
												<linkclipref>clipitem-533</linkclipref>
												<mediatype>video</mediatype>
												<trackindex>2</trackindex>
												<clipindex>1</clipindex>
											</link>
											<link>
												<linkclipref>clipitem-537</linkclipref>
												<mediatype>audio</mediatype>
												<trackindex>3</trackindex>
												<clipindex>1</clipindex>
												<groupindex>1</groupindex>
											</link>
											<link>
												<linkclipref>clipitem-538</linkclipref>
												<mediatype>audio</mediatype>
												<trackindex>4</trackindex>
												<clipindex>1</clipindex>
												<groupindex>1</groupindex>
											</link>
											<logginginfo>
												<description></description>
												<scene></scene>
												<shottake></shottake>
												<lognote></lognote>
											</logginginfo>
											<labels>
												<label2>Iris</label2>
											</labels>
										</clipitem>
										<enabled>TRUE</enabled>
										<locked>FALSE</locked>
									</track>
									<track TL.SQTrackShy="0" TL.SQTrackExpandedHeight="25" TL.SQTrackExpanded="0" MZ.TrackTargeted="1">
										<clipitem id="clipitem-534">
											<masterclipid>masterclip-126</masterclipid>
											<name>GP014370_1.mov</name>
											<enabled>TRUE</enabled>
											<duration>101858</duration>
											<rate>
												<timebase>25</timebase>
												<ntsc>FALSE</ntsc>
											</rate>
											<start>0</start>
											<end>42015</end>
											<in>19250</in>
											<out>61265</out>
											<pproTicksIn>195592320000000</pproTicksIn>
											<pproTicksOut>622491609600000</pproTicksOut>
											<alphatype>none</alphatype>
											<pixelaspectratio>square</pixelaspectratio>
											<anamorphic>FALSE</anamorphic>
											<file id="file-114">
												<name>GP014370_1.mov</name>
												<pathurl>file://localhost/Volumes/Bingen/Prosjekter/MYNT194016%20WHATS%20COOKING/Media/Episode%2003%20Brocodes/VB-opptak/21032016/gopro-stitching/ProRes/GP014370_1.mov</pathurl>
												<rate>
													<timebase>25</timebase>
													<ntsc>FALSE</ntsc>
												</rate>
												<duration>101858</duration>
												<timecode>
													<rate>
														<timebase>25</timebase>
														<ntsc>FALSE</ntsc>
													</rate>
													<string>00:00:00:00</string>
													<frame>0</frame>
													<displayformat>NDF</displayformat>
													<reel>
														<name></name>
													</reel>
												</timecode>
												<media>
													<video>
														<samplecharacteristics>
															<rate>
																<timebase>25</timebase>
																<ntsc>FALSE</ntsc>
															</rate>
															<width>1920</width>
															<height>1080</height>
															<anamorphic>FALSE</anamorphic>
															<pixelaspectratio>square</pixelaspectratio>
															<fielddominance>none</fielddominance>
														</samplecharacteristics>
													</video>
													<audio>
														<samplecharacteristics>
															<depth>16</depth>
															<samplerate>48000</samplerate>
														</samplecharacteristics>
														<channelcount>1</channelcount>
														<layout>stereo</layout>
														<audiochannel>
															<sourcechannel>1</sourcechannel>
															<channellabel>left</channellabel>
														</audiochannel>
													</audio>
													<audio>
														<samplecharacteristics>
															<depth>16</depth>
															<samplerate>48000</samplerate>
														</samplecharacteristics>
														<channelcount>1</channelcount>
														<layout>stereo</layout>
														<audiochannel>
															<sourcechannel>2</sourcechannel>
															<channellabel>right</channellabel>
														</audiochannel>
													</audio>
												</media>
											</file>
												<marker>
													<comment></comment>
													<name></name>
													<in>2676</in>
													<out>-1</out>
												</marker>
											<link>
												<linkclipref>clipitem-534</linkclipref>
												<mediatype>video</mediatype>
												<trackindex>3</trackindex>
												<clipindex>1</clipindex>
											</link>
											<link>
												<linkclipref>clipitem-539</linkclipref>
												<mediatype>audio</mediatype>
												<trackindex>5</trackindex>
												<clipindex>1</clipindex>
												<groupindex>1</groupindex>
											</link>
											<link>
												<linkclipref>clipitem-540</linkclipref>
												<mediatype>audio</mediatype>
												<trackindex>6</trackindex>
												<clipindex>1</clipindex>
												<groupindex>1</groupindex>
											</link>
											<logginginfo>
												<description></description>
												<scene></scene>
												<shottake></shottake>
												<lognote></lognote>
											</logginginfo>
											<labels>
												<label2>Iris</label2>
											</labels>
										</clipitem>
										<enabled>TRUE</enabled>
										<locked>FALSE</locked>
									</track>
								</video>
								<audio>
									<numOutputChannels>8</numOutputChannels>
									<format>
										<samplecharacteristics>
											<depth>16</depth>
											<samplerate>48000</samplerate>
										</samplecharacteristics>
									</format>
									<outputs>
										<group>
											<index>1</index>
											<numchannels>1</numchannels>
											<downmix>0</downmix>
											<channel>
												<index>1</index>
											</channel>
										</group>
										<group>
											<index>2</index>
											<numchannels>1</numchannels>
											<downmix>0</downmix>
											<channel>
												<index>2</index>
											</channel>
										</group>
										<group>
											<index>3</index>
											<numchannels>1</numchannels>
											<downmix>0</downmix>
											<channel>
												<index>3</index>
											</channel>
										</group>
										<group>
											<index>4</index>
											<numchannels>1</numchannels>
											<downmix>0</downmix>
											<channel>
												<index>4</index>
											</channel>
										</group>
										<group>
											<index>5</index>
											<numchannels>1</numchannels>
											<downmix>0</downmix>
											<channel>
												<index>5</index>
											</channel>
										</group>
										<group>
											<index>6</index>
											<numchannels>1</numchannels>
											<downmix>0</downmix>
											<channel>
												<index>6</index>
											</channel>
										</group>
										<group>
											<index>7</index>
											<numchannels>1</numchannels>
											<downmix>0</downmix>
											<channel>
												<index>7</index>
											</channel>
										</group>
										<group>
											<index>8</index>
											<numchannels>1</numchannels>
											<downmix>0</downmix>
											<channel>
												<index>8</index>
											</channel>
										</group>
									</outputs>
									<track TL.SQTrackAudioKeyframeStyle="0" TL.SQTrackShy="0" TL.SQTrackExpandedHeight="25" TL.SQTrackExpanded="0" MZ.TrackTargeted="1" PannerCurrentValue="0.5" PannerIsInverted="true" PannerStartKeyframe="-91445760000000000,0.5,0,0,0,0,0,0" PannerName="Balance" currentExplodedTrackIndex="0" totalExplodedTrackCount="1" premiereTrackType="Stereo">
										<clipitem id="clipitem-535" premiereChannelType="mono">
											<masterclipid>masterclip-124</masterclipid>
											<name>Clip0012.MXF</name>
											<enabled>TRUE</enabled>
											<duration>42804</duration>
											<rate>
												<timebase>25</timebase>
												<ntsc>FALSE</ntsc>
											</rate>
											<start>0</start>
											<end>42022</end>
											<in>782</in>
											<out>42804</out>
											<pproTicksIn>7945620480000</pproTicksIn>
											<pproTicksOut>434916034560000</pproTicksOut>
											<file id="file-112"/>
											<sourcetrack>
												<mediatype>audio</mediatype>
												<trackindex>1</trackindex>
											</sourcetrack>
												<marker>
													<comment></comment>
													<name></name>
													<in>782</in>
													<out>-1</out>
												</marker>
											<link>
												<linkclipref>clipitem-532</linkclipref>
												<mediatype>video</mediatype>
												<trackindex>1</trackindex>
												<clipindex>1</clipindex>
											</link>
											<link>
												<linkclipref>clipitem-535</linkclipref>
												<mediatype>audio</mediatype>
												<trackindex>1</trackindex>
												<clipindex>1</clipindex>
												<groupindex>1</groupindex>
											</link>
											<link>
												<linkclipref>clipitem-536</linkclipref>
												<mediatype>audio</mediatype>
												<trackindex>2</trackindex>
												<clipindex>1</clipindex>
												<groupindex>1</groupindex>
											</link>
											<logginginfo>
												<description></description>
												<scene></scene>
												<shottake></shottake>
												<lognote></lognote>
											</logginginfo>
											<labels>
												<label2>Iris</label2>
											</labels>
										</clipitem>
										<enabled>TRUE</enabled>
										<locked>FALSE</locked>
										<outputchannelindex>1</outputchannelindex>
									</track>
									<track TL.SQTrackAudioKeyframeStyle="0" TL.SQTrackShy="0" TL.SQTrackExpandedHeight="25" TL.SQTrackExpanded="0" MZ.TrackTargeted="1" PannerCurrentValue="0" PannerIsInverted="true" PannerStartKeyframe="-91445760000000000,0.,0,0,0,0,0,0" PannerName="Balance" currentExplodedTrackIndex="0" totalExplodedTrackCount="1" premiereTrackType="Stereo">
										<clipitem id="clipitem-536" premiereChannelType="mono">
											<masterclipid>masterclip-124</masterclipid>
											<name>Clip0012.MXF</name>
											<enabled>TRUE</enabled>
											<duration>42804</duration>
											<rate>
												<timebase>25</timebase>
												<ntsc>FALSE</ntsc>
											</rate>
											<start>0</start>
											<end>42022</end>
											<in>782</in>
											<out>42804</out>
											<pproTicksIn>7945620480000</pproTicksIn>
											<pproTicksOut>434916034560000</pproTicksOut>
											<file id="file-112"/>
											<sourcetrack>
												<mediatype>audio</mediatype>
												<trackindex>2</trackindex>
											</sourcetrack>
												<marker>
													<comment></comment>
													<name></name>
													<in>782</in>
													<out>-1</out>
												</marker>
											<link>
												<linkclipref>clipitem-532</linkclipref>
												<mediatype>video</mediatype>
												<trackindex>1</trackindex>
												<clipindex>1</clipindex>
											</link>
											<link>
												<linkclipref>clipitem-535</linkclipref>
												<mediatype>audio</mediatype>
												<trackindex>1</trackindex>
												<clipindex>1</clipindex>
												<groupindex>1</groupindex>
											</link>
											<link>
												<linkclipref>clipitem-536</linkclipref>
												<mediatype>audio</mediatype>
												<trackindex>2</trackindex>
												<clipindex>1</clipindex>
												<groupindex>1</groupindex>
											</link>
											<logginginfo>
												<description></description>
												<scene></scene>
												<shottake></shottake>
												<lognote></lognote>
											</logginginfo>
										</clipitem>
										<enabled>TRUE</enabled>
										<locked>FALSE</locked>
										<outputchannelindex>3</outputchannelindex>
									</track>
									<track TL.SQTrackAudioKeyframeStyle="0" TL.SQTrackShy="0" TL.SQTrackExpandedHeight="25" TL.SQTrackExpanded="0" MZ.TrackTargeted="1" PannerIsInverted="true" PannerName="Balance" currentExplodedTrackIndex="0" totalExplodedTrackCount="1" premiereTrackType="Stereo">
										<clipitem id="clipitem-537" premiereChannelType="mono">
											<masterclipid>masterclip-125</masterclipid>
											<name>Clip0013.MXF</name>
											<enabled>TRUE</enabled>
											<duration>42120</duration>
											<rate>
												<timebase>25</timebase>
												<ntsc>FALSE</ntsc>
											</rate>
											<start>0</start>
											<end>42015</end>
											<in>105</in>
											<out>42120</out>
											<pproTicksIn>1066867200000</pproTicksIn>
											<pproTicksOut>427966156800000</pproTicksOut>
											<file id="file-113"/>
											<sourcetrack>
												<mediatype>audio</mediatype>
												<trackindex>1</trackindex>
											</sourcetrack>
												<marker>
													<comment></comment>
													<name></name>
													<in>105</in>
													<out>-1</out>
												</marker>
											<link>
												<linkclipref>clipitem-533</linkclipref>
												<mediatype>video</mediatype>
												<trackindex>2</trackindex>
												<clipindex>1</clipindex>
											</link>
											<link>
												<linkclipref>clipitem-537</linkclipref>
												<mediatype>audio</mediatype>
												<trackindex>3</trackindex>
												<clipindex>1</clipindex>
												<groupindex>1</groupindex>
											</link>
											<link>
												<linkclipref>clipitem-538</linkclipref>
												<mediatype>audio</mediatype>
												<trackindex>4</trackindex>
												<clipindex>1</clipindex>
												<groupindex>1</groupindex>
											</link>
											<logginginfo>
												<description></description>
												<scene></scene>
												<shottake></shottake>
												<lognote></lognote>
											</logginginfo>
											<labels>
												<label2>Iris</label2>
											</labels>
										</clipitem>
										<enabled>TRUE</enabled>
										<locked>FALSE</locked>
										<outputchannelindex>3</outputchannelindex>
									</track>
									<track TL.SQTrackAudioKeyframeStyle="0" TL.SQTrackShy="0" TL.SQTrackExpandedHeight="25" TL.SQTrackExpanded="0" MZ.TrackTargeted="1" PannerCurrentValue="0" PannerIsInverted="true" PannerStartKeyframe="-91445760000000000,0.,0,0,0,0,0,0" PannerName="Balance" currentExplodedTrackIndex="0" totalExplodedTrackCount="1" premiereTrackType="Stereo">
										<clipitem id="clipitem-538" premiereChannelType="mono">
											<masterclipid>masterclip-125</masterclipid>
											<name>Clip0013.MXF</name>
											<enabled>TRUE</enabled>
											<duration>42120</duration>
											<rate>
												<timebase>25</timebase>
												<ntsc>FALSE</ntsc>
											</rate>
											<start>0</start>
											<end>42015</end>
											<in>105</in>
											<out>42120</out>
											<pproTicksIn>1066867200000</pproTicksIn>
											<pproTicksOut>427966156800000</pproTicksOut>
											<file id="file-113"/>
											<sourcetrack>
												<mediatype>audio</mediatype>
												<trackindex>2</trackindex>
											</sourcetrack>
												<marker>
													<comment></comment>
													<name></name>
													<in>105</in>
													<out>-1</out>
												</marker>
											<link>
												<linkclipref>clipitem-533</linkclipref>
												<mediatype>video</mediatype>
												<trackindex>2</trackindex>
												<clipindex>1</clipindex>
											</link>
											<link>
												<linkclipref>clipitem-537</linkclipref>
												<mediatype>audio</mediatype>
												<trackindex>3</trackindex>
												<clipindex>1</clipindex>
												<groupindex>1</groupindex>
											</link>
											<link>
												<linkclipref>clipitem-538</linkclipref>
												<mediatype>audio</mediatype>
												<trackindex>4</trackindex>
												<clipindex>1</clipindex>
												<groupindex>1</groupindex>
											</link>
											<logginginfo>
												<description></description>
												<scene></scene>
												<shottake></shottake>
												<lognote></lognote>
											</logginginfo>
										</clipitem>
										<enabled>FALSE</enabled>
										<locked>FALSE</locked>
										<outputchannelindex>5</outputchannelindex>
									</track>
									<track TL.SQTrackAudioKeyframeStyle="0" TL.SQTrackShy="0" TL.SQTrackExpandedHeight="25" TL.SQTrackExpanded="0" MZ.TrackTargeted="1" PannerIsInverted="true" PannerName="Balance" currentExplodedTrackIndex="0" totalExplodedTrackCount="1" premiereTrackType="Stereo">
										<clipitem id="clipitem-539" premiereChannelType="mono">
											<masterclipid>masterclip-126</masterclipid>
											<name>GP014370_1.mov</name>
											<enabled>TRUE</enabled>
											<duration>101858</duration>
											<rate>
												<timebase>25</timebase>
												<ntsc>FALSE</ntsc>
											</rate>
											<start>0</start>
											<end>42015</end>
											<in>19250</in>
											<out>61265</out>
											<pproTicksIn>195592320000000</pproTicksIn>
											<pproTicksOut>622491609600000</pproTicksOut>
											<file id="file-114"/>
											<sourcetrack>
												<mediatype>audio</mediatype>
												<trackindex>1</trackindex>
											</sourcetrack>
												<marker>
													<comment></comment>
													<name></name>
													<in>2676</in>
													<out>-1</out>
												</marker>
											<link>
												<linkclipref>clipitem-534</linkclipref>
												<mediatype>video</mediatype>
												<trackindex>3</trackindex>
												<clipindex>1</clipindex>
											</link>
											<link>
												<linkclipref>clipitem-539</linkclipref>
												<mediatype>audio</mediatype>
												<trackindex>5</trackindex>
												<clipindex>1</clipindex>
												<groupindex>1</groupindex>
											</link>
											<link>
												<linkclipref>clipitem-540</linkclipref>
												<mediatype>audio</mediatype>
												<trackindex>6</trackindex>
												<clipindex>1</clipindex>
												<groupindex>1</groupindex>
											</link>
											<logginginfo>
												<description></description>
												<scene></scene>
												<shottake></shottake>
												<lognote></lognote>
											</logginginfo>
											<labels>
												<label2>Iris</label2>
											</labels>
										</clipitem>
										<enabled>FALSE</enabled>
										<locked>FALSE</locked>
										<outputchannelindex>5</outputchannelindex>
									</track>
									<track TL.SQTrackAudioKeyframeStyle="0" TL.SQTrackShy="0" TL.SQTrackExpandedHeight="25" TL.SQTrackExpanded="0" MZ.TrackTargeted="1" PannerCurrentValue="0" PannerIsInverted="true" PannerStartKeyframe="-91445760000000000,0.,0,0,0,0,0,0" PannerName="Balance" currentExplodedTrackIndex="0" totalExplodedTrackCount="1" premiereTrackType="Stereo">
										<clipitem id="clipitem-540" premiereChannelType="mono">
											<masterclipid>masterclip-126</masterclipid>
											<name>GP014370_1.mov</name>
											<enabled>TRUE</enabled>
											<duration>101858</duration>
											<rate>
												<timebase>25</timebase>
												<ntsc>FALSE</ntsc>
											</rate>
											<start>0</start>
											<end>42015</end>
											<in>19250</in>
											<out>61265</out>
											<pproTicksIn>195592320000000</pproTicksIn>
											<pproTicksOut>622491609600000</pproTicksOut>
											<file id="file-114"/>
											<sourcetrack>
												<mediatype>audio</mediatype>
												<trackindex>2</trackindex>
											</sourcetrack>
												<marker>
													<comment></comment>
													<name></name>
													<in>2676</in>
													<out>-1</out>
												</marker>
											<link>
												<linkclipref>clipitem-534</linkclipref>
												<mediatype>video</mediatype>
												<trackindex>3</trackindex>
												<clipindex>1</clipindex>
											</link>
											<link>
												<linkclipref>clipitem-539</linkclipref>
												<mediatype>audio</mediatype>
												<trackindex>5</trackindex>
												<clipindex>1</clipindex>
												<groupindex>1</groupindex>
											</link>
											<link>
												<linkclipref>clipitem-540</linkclipref>
												<mediatype>audio</mediatype>
												<trackindex>6</trackindex>
												<clipindex>1</clipindex>
												<groupindex>1</groupindex>
											</link>
											<logginginfo>
												<description></description>
												<scene></scene>
												<shottake></shottake>
												<lognote></lognote>
											</logginginfo>
											<labels>
												<label2>Iris</label2>
											</labels>
										</clipitem>
										<enabled>FALSE</enabled>
										<locked>FALSE</locked>
										<outputchannelindex>7</outputchannelindex>
									</track>
								</audio>
							</media>
							<timecode>
								<rate>
									<timebase>25</timebase>
									<ntsc>FALSE</ntsc>
								</rate>
								<string>04:33:20:18</string>
								<frame>410018</frame>
								<displayformat>NDF</displayformat>
							</timecode>
						</sequence>
							<filter>
								<effect>
									<name>Gain</name>
									<effectid>{61756678, 4761696e, 4b657947}</effectid>
									<effecttype>filter</effecttype>
									<mediatype>audio</mediatype>
									<parameter authoringApp="PremierePro">
										<parameterid>Gain(dB)</parameterid>
										<name>Gain(dB)</name>
										<valuemin>-96</valuemin>
										<valuemax>96</valuemax>
										<value>-12</value>
									</parameter>
								</effect>
							</filter>
						<link>
							<linkclipref>clipitem-531</linkclipref>
							<mediatype>audio</mediatype>
							<trackindex>9</trackindex>
							<clipindex>3</clipindex>
							<groupindex>1</groupindex>
						</link>
						<link>
							<linkclipref>clipitem-613</linkclipref>
							<mediatype>audio</mediatype>
							<trackindex>10</trackindex>
							<clipindex>3</clipindex>
							<groupindex>1</groupindex>
						</link>
						<labels>
							<label2>Forest</label2>
						</labels>
					</clipitem>
					<clipitem id="clipitem-541" premiereChannelType="stereo">
						<masterclipid>masterclip-127</masterclipid>
						<name>47982__benhillyard__vocal-splat-10_01.wav</name>
						<enabled>TRUE</enabled>
						<duration>56</duration>
						<rate>
							<timebase>25</timebase>
							<ntsc>FALSE</ntsc>
						</rate>
						<start>117</start>
						<end>123</end>
						<in>0</in>
						<out>6</out>
						<pproTicksIn>0</pproTicksIn>
						<pproTicksOut>60963840000</pproTicksOut>
						<file id="file-115">
							<name>47982__benhillyard__vocal-splat-10_01.wav</name>
							<pathurl>file://localhost/Volumes/Bingen/Prosjekter/MYNT194016%20WHATS%20COOKING/Lydeffekter/Jan%20Lydeffekter/47982__benhillyard__vocal-splat-10_01.wav</pathurl>
							<rate>
								<timebase>30</timebase>
								<ntsc>TRUE</ntsc>
							</rate>
							<duration>67</duration>
							<timecode>
								<rate>
									<timebase>30</timebase>
									<ntsc>TRUE</ntsc>
								</rate>
								<string>00;00;00;00</string>
								<frame>0</frame>
								<displayformat>DF</displayformat>
								<reel>
									<name></name>
								</reel>
							</timecode>
							<media>
								<audio>
									<samplecharacteristics>
										<depth>16</depth>
										<samplerate>48000</samplerate>
									</samplecharacteristics>
									<channelcount>2</channelcount>
								</audio>
							</media>
						</file>
						<sourcetrack>
							<mediatype>audio</mediatype>
							<trackindex>1</trackindex>
						</sourcetrack>
							<filter>
								<effect>
									<name>Gain</name>
									<effectid>{61756678, 4761696e, 4b657947}</effectid>
									<effecttype>filter</effecttype>
									<mediatype>audio</mediatype>
									<parameter authoringApp="PremierePro">
										<parameterid>Gain(dB)</parameterid>
										<name>Gain(dB)</name>
										<valuemin>-96</valuemin>
										<valuemax>96</valuemax>
										<value>-4</value>
									</parameter>
								</effect>
							</filter>
						<link>
							<linkclipref>clipitem-541</linkclipref>
							<mediatype>audio</mediatype>
							<trackindex>9</trackindex>
							<clipindex>4</clipindex>
							<groupindex>1</groupindex>
						</link>
						<link>
							<linkclipref>clipitem-614</linkclipref>
							<mediatype>audio</mediatype>
							<trackindex>10</trackindex>
							<clipindex>4</clipindex>
							<groupindex>1</groupindex>
						</link>
						<logginginfo>
							<description></description>
							<scene></scene>
							<shottake></shottake>
							<lognote></lognote>
						</logginginfo>
						<labels>
							<label2>Caribbean</label2>
						</labels>
					</clipitem>
					<clipitem id="clipitem-542" premiereChannelType="stereo">
						<masterclipid>masterclip-127</masterclipid>
						<name>47982__benhillyard__vocal-splat-10_01.wav</name>
						<enabled>TRUE</enabled>
						<duration>56</duration>
						<rate>
							<timebase>25</timebase>
							<ntsc>FALSE</ntsc>
						</rate>
						<start>146</start>
						<end>159</end>
						<in>6</in>
						<out>19</out>
						<pproTicksIn>60963840000</pproTicksIn>
						<pproTicksOut>193052160000</pproTicksOut>
						<file id="file-115"/>
						<sourcetrack>
							<mediatype>audio</mediatype>
							<trackindex>1</trackindex>
						</sourcetrack>
							<filter>
								<effect>
									<name>Gain</name>
									<effectid>{61756678, 4761696e, 4b657947}</effectid>
									<effecttype>filter</effecttype>
									<mediatype>audio</mediatype>
									<parameter authoringApp="PremierePro">
										<parameterid>Gain(dB)</parameterid>
										<name>Gain(dB)</name>
										<valuemin>-96</valuemin>
										<valuemax>96</valuemax>
										<value>-4</value>
									</parameter>
								</effect>
							</filter>
						<link>
							<linkclipref>clipitem-542</linkclipref>
							<mediatype>audio</mediatype>
							<trackindex>9</trackindex>
							<clipindex>5</clipindex>
							<groupindex>1</groupindex>
						</link>
						<link>
							<linkclipref>clipitem-615</linkclipref>
							<mediatype>audio</mediatype>
							<trackindex>10</trackindex>
							<clipindex>5</clipindex>
							<groupindex>1</groupindex>
						</link>
						<logginginfo>
							<description></description>
							<scene></scene>
							<shottake></shottake>
							<lognote></lognote>
						</logginginfo>
						<labels>
							<label2>Caribbean</label2>
						</labels>
					</clipitem>
					<clipitem id="clipitem-543" premiereChannelType="mono">
						<masterclipid>masterclip-128</masterclipid>
						<name>VBboks-kamp-T01-Multicam</name>
						<enabled>TRUE</enabled>
						<duration>45778</duration>
						<rate>
							<timebase>25</timebase>
							<ntsc>FALSE</ntsc>
						</rate>
						<start>202</start>
						<end>212</end>
						<in>8303</in>
						<out>8313</out>
						<pproTicksIn>84363793920000</pproTicksIn>
						<pproTicksOut>84465400320000</pproTicksOut>
						<sequence id="sequence-11" TL.SQAudioVisibleBase="0" TL.SQVideoVisibleBase="0" TL.SQVisibleBaseTime="0" TL.SQAVDividerPosition="0.5" TL.SQHideShyTracks="0" TL.SQHeaderWidth="184" Monitor.ProgramZoomOut="188215695360000" Monitor.ProgramZoomIn="0" TL.SQTimePerPixel="0.012188408958696918" AM.TrackVScrollPosition="0" AM.TrackScrollPosition="0" MZ.EditLine="0" MZ.Sequence.PreviewFrameSizeHeight="1080" MZ.Sequence.PreviewFrameSizeWidth="1920" MZ.Sequence.AudioTimeDisplayFormat="200" MZ.Sequence.PreviewRenderingClassID="1297106761" MZ.Sequence.PreviewRenderingPresetCodec="1297107278" MZ.Sequence.PreviewRenderingPresetPath="EncoderPresets/SequencePreview/795454d9-d3c2-429d-9474-923ab13b7018/I-Frame Only MPEG.epr" MZ.Sequence.PreviewUseMaxRenderQuality="false" MZ.Sequence.PreviewUseMaxBitDepth="false" MZ.Sequence.EditingModeGUID="795454d9-d3c2-429d-9474-923ab13b7018" MZ.Sequence.VideoTimeDisplayFormat="101" MZ.WorkOutPoint="188215695360000" MZ.WorkInPoint="0" MZ.ZeroPoint="8305256332800000">
							<duration>18523</duration>
							<rate>
								<timebase>25</timebase>
								<ntsc>FALSE</ntsc>
							</rate>
							<name>VBboks-kamp-T01-Multicam</name>
							<media>
								<video>
									<format>
										<samplecharacteristics>
											<rate>
												<timebase>25</timebase>
												<ntsc>FALSE</ntsc>
											</rate>
											<codec>
												<name>Apple ProRes 422</name>
												<appspecificdata>
													<appname>Final Cut Pro</appname>
													<appmanufacturer>Apple Inc.</appmanufacturer>
													<appversion>7.0</appversion>
													<data>
														<qtcodec>
															<codecname>Apple ProRes 422</codecname>
															<codectypename>Apple ProRes 422</codectypename>
															<codectypecode>apcn</codectypecode>
															<codecvendorcode>appl</codecvendorcode>
															<spatialquality>1024</spatialquality>
															<temporalquality>0</temporalquality>
															<keyframerate>0</keyframerate>
															<datarate>0</datarate>
														</qtcodec>
													</data>
												</appspecificdata>
											</codec>
											<width>1920</width>
											<height>1080</height>
											<anamorphic>FALSE</anamorphic>
											<pixelaspectratio>square</pixelaspectratio>
											<fielddominance>none</fielddominance>
											<colordepth>24</colordepth>
										</samplecharacteristics>
									</format>
									<track TL.SQTrackShy="0" TL.SQTrackExpandedHeight="50" TL.SQTrackExpanded="1" MZ.TrackTargeted="1">
										<clipitem id="clipitem-544">
											<masterclipid>masterclip-129</masterclipid>
											<name>Clip0005_1.mov</name>
											<enabled>TRUE</enabled>
											<duration>18528</duration>
											<rate>
												<timebase>25</timebase>
												<ntsc>FALSE</ntsc>
											</rate>
											<start>0</start>
											<end>18523</end>
											<in>3</in>
											<out>18526</out>
											<pproTicksIn>30481920000</pproTicksIn>
											<pproTicksOut>188236016640000</pproTicksOut>
											<alphatype>none</alphatype>
											<pixelaspectratio>square</pixelaspectratio>
											<anamorphic>FALSE</anamorphic>
											<file id="file-116">
												<name>Clip0005_1.mov</name>
												<pathurl>file://localhost/Volumes/Bingen/Prosjekter/MYNT194016%20WHATS%20COOKING/Media/Episode%2004%20Vold/VB-opptak/07042016/KAM%20A/ProRes%202/Clip0005_1.mov</pathurl>
												<rate>
													<timebase>25</timebase>
													<ntsc>FALSE</ntsc>
												</rate>
												<duration>18528</duration>
												<timecode>
													<rate>
														<timebase>25</timebase>
														<ntsc>FALSE</ntsc>
													</rate>
													<string>09:04:55:19</string>
													<frame>817394</frame>
													<displayformat>NDF</displayformat>
													<reel>
														<name></name>
													</reel>
												</timecode>
												<media>
													<video>
														<samplecharacteristics>
															<rate>
																<timebase>25</timebase>
																<ntsc>FALSE</ntsc>
															</rate>
															<width>1920</width>
															<height>1080</height>
															<anamorphic>FALSE</anamorphic>
															<pixelaspectratio>square</pixelaspectratio>
															<fielddominance>none</fielddominance>
														</samplecharacteristics>
													</video>
													<audio>
														<samplecharacteristics>
															<depth>16</depth>
															<samplerate>48000</samplerate>
														</samplecharacteristics>
														<channelcount>1</channelcount>
														<audiochannel>
															<sourcechannel>1</sourcechannel>
														</audiochannel>
													</audio>
													<audio>
														<samplecharacteristics>
															<depth>16</depth>
															<samplerate>48000</samplerate>
														</samplecharacteristics>
														<channelcount>1</channelcount>
														<audiochannel>
															<sourcechannel>2</sourcechannel>
														</audiochannel>
													</audio>
												</media>
											</file>
												<marker>
													<comment></comment>
													<name></name>
													<in>522</in>
													<out>-1</out>
												</marker>
												<marker>
													<comment></comment>
													<name>klapp</name>
													<in>343</in>
													<out>-1</out>
												</marker>
											<link>
												<linkclipref>clipitem-544</linkclipref>
												<mediatype>video</mediatype>
												<trackindex>1</trackindex>
												<clipindex>1</clipindex>
											</link>
											<link>
												<linkclipref>clipitem-549</linkclipref>
												<mediatype>audio</mediatype>
												<trackindex>1</trackindex>
												<clipindex>1</clipindex>
												<groupindex>1</groupindex>
											</link>
											<link>
												<linkclipref>clipitem-550</linkclipref>
												<mediatype>audio</mediatype>
												<trackindex>2</trackindex>
												<clipindex>1</clipindex>
												<groupindex>1</groupindex>
											</link>
											<logginginfo>
												<description>boksT01 M klapp1 sidelinja klapp 2 Jim</description>
												<scene></scene>
												<shottake></shottake>
												<lognote></lognote>
											</logginginfo>
											<labels>
												<label2>Iris</label2>
											</labels>
										</clipitem>
										<enabled>TRUE</enabled>
										<locked>FALSE</locked>
									</track>
									<track TL.SQTrackShy="0" TL.SQTrackExpandedHeight="25" TL.SQTrackExpanded="0" MZ.TrackTargeted="1">
										<clipitem id="clipitem-545">
											<masterclipid>masterclip-130</masterclipid>
											<name>Clip0006.mov</name>
											<enabled>TRUE</enabled>
											<duration>18456</duration>
											<rate>
												<timebase>25</timebase>
												<ntsc>FALSE</ntsc>
											</rate>
											<start>68</start>
											<end>18524</end>
											<in>0</in>
											<out>18456</out>
											<pproTicksIn>0</pproTicksIn>
											<pproTicksOut>187524771840000</pproTicksOut>
											<alphatype>none</alphatype>
											<pixelaspectratio>square</pixelaspectratio>
											<anamorphic>FALSE</anamorphic>
											<file id="file-117">
												<name>Clip0006.mov</name>
												<pathurl>file://localhost/Volumes/Bingen/Prosjekter/MYNT194016%20WHATS%20COOKING/Media/Episode%2004%20Vold/VB-opptak/07042016/KAM%20B/ProRes%202/Clip0006.mov</pathurl>
												<rate>
													<timebase>25</timebase>
													<ntsc>FALSE</ntsc>
												</rate>
												<duration>18456</duration>
												<timecode>
													<rate>
														<timebase>25</timebase>
														<ntsc>FALSE</ntsc>
													</rate>
													<string>09:03:24:21</string>
													<frame>815121</frame>
													<displayformat>NDF</displayformat>
													<reel>
														<name></name>
													</reel>
												</timecode>
												<media>
													<video>
														<samplecharacteristics>
															<rate>
																<timebase>25</timebase>
																<ntsc>FALSE</ntsc>
															</rate>
															<width>1920</width>
															<height>1080</height>
															<anamorphic>FALSE</anamorphic>
															<pixelaspectratio>square</pixelaspectratio>
															<fielddominance>none</fielddominance>
														</samplecharacteristics>
													</video>
													<audio>
														<samplecharacteristics>
															<depth>16</depth>
															<samplerate>48000</samplerate>
														</samplecharacteristics>
														<channelcount>1</channelcount>
														<audiochannel>
															<sourcechannel>1</sourcechannel>
														</audiochannel>
													</audio>
													<audio>
														<samplecharacteristics>
															<depth>16</depth>
															<samplerate>48000</samplerate>
														</samplecharacteristics>
														<channelcount>1</channelcount>
														<audiochannel>
															<sourcechannel>2</sourcechannel>
														</audiochannel>
													</audio>
												</media>
											</file>
												<marker>
													<comment></comment>
													<name>klapp</name>
													<in>273</in>
													<out>-1</out>
												</marker>
											<link>
												<linkclipref>clipitem-545</linkclipref>
												<mediatype>video</mediatype>
												<trackindex>2</trackindex>
												<clipindex>1</clipindex>
											</link>
											<link>
												<linkclipref>clipitem-551</linkclipref>
												<mediatype>audio</mediatype>
												<trackindex>3</trackindex>
												<clipindex>1</clipindex>
												<groupindex>1</groupindex>
											</link>
											<link>
												<linkclipref>clipitem-552</linkclipref>
												<mediatype>audio</mediatype>
												<trackindex>4</trackindex>
												<clipindex>1</clipindex>
												<groupindex>1</groupindex>
											</link>
											<logginginfo>
												<description>boksT01 M klapp1 sidelinja klapp 2 Jim</description>
												<scene></scene>
												<shottake></shottake>
												<lognote></lognote>
											</logginginfo>
											<labels>
												<label2>Iris</label2>
											</labels>
										</clipitem>
										<enabled>TRUE</enabled>
										<locked>FALSE</locked>
									</track>
									<track TL.SQTrackShy="0" TL.SQTrackExpandedHeight="25" TL.SQTrackExpanded="0" MZ.TrackTargeted="1">
										<clipitem id="clipitem-546">
											<masterclipid>masterclip-131</masterclipid>
											<name>gopro2 stitched 2.mov</name>
											<enabled>TRUE</enabled>
											<duration>44554</duration>
											<rate>
												<timebase>25</timebase>
												<ntsc>FALSE</ntsc>
											</rate>
											<start>1</start>
											<end>18524</end>
											<in>512</in>
											<out>19035</out>
											<pproTicksIn>5202247680000</pproTicksIn>
											<pproTicksOut>193407782400000</pproTicksOut>
											<alphatype>none</alphatype>
											<pixelaspectratio>square</pixelaspectratio>
											<anamorphic>FALSE</anamorphic>
											<file id="file-118">
												<name>gopro2 stitched 2.mov</name>
												<pathurl>file://localhost/Volumes/Bingen/Prosjekter/MYNT194016%20WHATS%20COOKING/Media/Episode%2004%20Vold/VB-opptak/07042016/GOPRO%202/ProRes%20stitched/gopro2%20stitched%202.mov</pathurl>
												<rate>
													<timebase>25</timebase>
													<ntsc>FALSE</ntsc>
												</rate>
												<duration>44554</duration>
												<timecode>
													<rate>
														<timebase>25</timebase>
														<ntsc>FALSE</ntsc>
													</rate>
													<string>00:00:00:00</string>
													<frame>0</frame>
													<displayformat>NDF</displayformat>
													<reel>
														<name></name>
													</reel>
												</timecode>
												<media>
													<video>
														<samplecharacteristics>
															<rate>
																<timebase>25</timebase>
																<ntsc>FALSE</ntsc>
															</rate>
															<width>1920</width>
															<height>1080</height>
															<anamorphic>FALSE</anamorphic>
															<pixelaspectratio>square</pixelaspectratio>
															<fielddominance>none</fielddominance>
														</samplecharacteristics>
													</video>
													<audio>
														<samplecharacteristics>
															<depth>16</depth>
															<samplerate>48000</samplerate>
														</samplecharacteristics>
														<channelcount>1</channelcount>
														<layout>stereo</layout>
														<audiochannel>
															<sourcechannel>1</sourcechannel>
															<channellabel>left</channellabel>
														</audiochannel>
													</audio>
													<audio>
														<samplecharacteristics>
															<depth>16</depth>
															<samplerate>48000</samplerate>
														</samplecharacteristics>
														<channelcount>1</channelcount>
														<layout>stereo</layout>
														<audiochannel>
															<sourcechannel>2</sourcechannel>
															<channellabel>right</channellabel>
														</audiochannel>
													</audio>
												</media>
											</file>
											<link>
												<linkclipref>clipitem-546</linkclipref>
												<mediatype>video</mediatype>
												<trackindex>3</trackindex>
												<clipindex>1</clipindex>
											</link>
											<link>
												<linkclipref>clipitem-553</linkclipref>
												<mediatype>audio</mediatype>
												<trackindex>5</trackindex>
												<clipindex>1</clipindex>
												<groupindex>1</groupindex>
											</link>
											<link>
												<linkclipref>clipitem-554</linkclipref>
												<mediatype>audio</mediatype>
												<trackindex>6</trackindex>
												<clipindex>1</clipindex>
												<groupindex>1</groupindex>
											</link>
											<logginginfo>
												<description>synklyd</description>
												<scene></scene>
												<shottake></shottake>
												<lognote></lognote>
											</logginginfo>
											<labels>
												<label2>Iris</label2>
											</labels>
										</clipitem>
										<enabled>TRUE</enabled>
										<locked>FALSE</locked>
									</track>
									<track TL.SQTrackShy="0" TL.SQTrackExpandedHeight="25" TL.SQTrackExpanded="0" MZ.TrackTargeted="1">
										<clipitem id="clipitem-547">
											<masterclipid>masterclip-132</masterclipid>
											<name>gopro1 stitched 2.mov</name>
											<enabled>TRUE</enabled>
											<duration>45655</duration>
											<rate>
												<timebase>25</timebase>
												<ntsc>FALSE</ntsc>
											</rate>
											<start>1</start>
											<end>18524</end>
											<in>568</in>
											<out>19091</out>
											<pproTicksIn>5771243520000</pproTicksIn>
											<pproTicksOut>193976778240000</pproTicksOut>
											<alphatype>none</alphatype>
											<pixelaspectratio>square</pixelaspectratio>
											<anamorphic>FALSE</anamorphic>
											<file id="file-119">
												<name>gopro1 stitched 2.mov</name>
												<pathurl>file://localhost/Volumes/Bingen/Prosjekter/MYNT194016%20WHATS%20COOKING/Media/Episode%2004%20Vold/VB-opptak/07042016/GOPRO%201/ProRes%20stitched%20og%20flip/gopro1%20stitched%202.mov</pathurl>
												<rate>
													<timebase>25</timebase>
													<ntsc>FALSE</ntsc>
												</rate>
												<duration>45655</duration>
												<timecode>
													<rate>
														<timebase>25</timebase>
														<ntsc>FALSE</ntsc>
													</rate>
													<string>00:00:00:00</string>
													<frame>0</frame>
													<displayformat>NDF</displayformat>
													<reel>
														<name></name>
													</reel>
												</timecode>
												<media>
													<video>
														<samplecharacteristics>
															<rate>
																<timebase>25</timebase>
																<ntsc>FALSE</ntsc>
															</rate>
															<width>1920</width>
															<height>1080</height>
															<anamorphic>FALSE</anamorphic>
															<pixelaspectratio>square</pixelaspectratio>
															<fielddominance>none</fielddominance>
														</samplecharacteristics>
													</video>
													<audio>
														<samplecharacteristics>
															<depth>16</depth>
															<samplerate>48000</samplerate>
														</samplecharacteristics>
														<channelcount>1</channelcount>
														<layout>stereo</layout>
														<audiochannel>
															<sourcechannel>1</sourcechannel>
															<channellabel>left</channellabel>
														</audiochannel>
													</audio>
													<audio>
														<samplecharacteristics>
															<depth>16</depth>
															<samplerate>48000</samplerate>
														</samplecharacteristics>
														<channelcount>1</channelcount>
														<layout>stereo</layout>
														<audiochannel>
															<sourcechannel>2</sourcechannel>
															<channellabel>right</channellabel>
														</audiochannel>
													</audio>
												</media>
											</file>
												<marker>
													<comment></comment>
													<name>klapp</name>
													<in>34408</in>
													<out>-1</out>
												</marker>
												<marker>
													<comment></comment>
													<name></name>
													<in>25784</in>
													<out>-1</out>
												</marker>
												<marker>
													<comment></comment>
													<name></name>
													<in>6011</in>
													<out>-1</out>
												</marker>
											<logginginfo>
												<description>klapp jim midt</description>
												<scene></scene>
												<shottake></shottake>
												<lognote></lognote>
											</logginginfo>
											<labels>
												<label2>Iris</label2>
											</labels>
										</clipitem>
										<enabled>TRUE</enabled>
										<locked>FALSE</locked>
									</track>
									<track TL.SQTrackShy="0" TL.SQTrackExpandedHeight="25" TL.SQTrackExpanded="0" MZ.TrackTargeted="0">
										<clipitem id="clipitem-548">
											<masterclipid>masterclip-133</masterclipid>
											<name>C0003.mov</name>
											<enabled>TRUE</enabled>
											<duration>37128</duration>
											<rate>
												<timebase>25</timebase>
												<ntsc>FALSE</ntsc>
											</rate>
											<start>1</start>
											<end>18524</end>
											<in>1319</in>
											<out>19842</out>
											<pproTicksIn>13401884160000</pproTicksIn>
											<pproTicksOut>201607418880000</pproTicksOut>
											<alphatype>none</alphatype>
											<pixelaspectratio>square</pixelaspectratio>
											<anamorphic>FALSE</anamorphic>
											<file id="file-120">
												<name>C0003.mov</name>
												<pathurl>file://localhost/Volumes/Bingen/Prosjekter/MYNT194016%20WHATS%20COOKING/Media/Episode%2004%20Vold/VB-opptak/07042016/KAM%20C/ProRes%202/C0003.mov</pathurl>
												<rate>
													<timebase>25</timebase>
													<ntsc>FALSE</ntsc>
												</rate>
												<duration>37128</duration>
												<timecode>
													<rate>
														<timebase>25</timebase>
														<ntsc>FALSE</ntsc>
													</rate>
													<string>08:04:05:11</string>
													<frame>726136</frame>
													<displayformat>NDF</displayformat>
													<reel>
														<name></name>
													</reel>
												</timecode>
												<media>
													<video>
														<samplecharacteristics>
															<rate>
																<timebase>25</timebase>
																<ntsc>FALSE</ntsc>
															</rate>
															<width>1920</width>
															<height>1080</height>
															<anamorphic>FALSE</anamorphic>
															<pixelaspectratio>square</pixelaspectratio>
															<fielddominance>none</fielddominance>
														</samplecharacteristics>
													</video>
													<audio>
														<samplecharacteristics>
															<depth>16</depth>
															<samplerate>48000</samplerate>
														</samplecharacteristics>
														<channelcount>2</channelcount>
													</audio>
												</media>
											</file>
												<marker>
													<comment></comment>
													<name></name>
													<in>6607</in>
													<out>-1</out>
												</marker>
											<logginginfo>
												<description>reax Ab+M i hjørnet</description>
												<scene></scene>
												<shottake></shottake>
												<lognote></lognote>
											</logginginfo>
											<labels>
												<label2>Iris</label2>
											</labels>
										</clipitem>
										<enabled>TRUE</enabled>
										<locked>FALSE</locked>
									</track>
								</video>
								<audio>
									<numOutputChannels>6</numOutputChannels>
									<format>
										<samplecharacteristics>
											<depth>16</depth>
											<samplerate>48000</samplerate>
										</samplecharacteristics>
									</format>
									<outputs>
										<group>
											<index>1</index>
											<numchannels>1</numchannels>
											<downmix>0</downmix>
											<channel>
												<index>1</index>
											</channel>
										</group>
										<group>
											<index>2</index>
											<numchannels>1</numchannels>
											<downmix>0</downmix>
											<channel>
												<index>2</index>
											</channel>
										</group>
										<group>
											<index>3</index>
											<numchannels>1</numchannels>
											<downmix>0</downmix>
											<channel>
												<index>3</index>
											</channel>
										</group>
										<group>
											<index>4</index>
											<numchannels>1</numchannels>
											<downmix>0</downmix>
											<channel>
												<index>4</index>
											</channel>
										</group>
										<group>
											<index>5</index>
											<numchannels>1</numchannels>
											<downmix>0</downmix>
											<channel>
												<index>5</index>
											</channel>
										</group>
										<group>
											<index>6</index>
											<numchannels>1</numchannels>
											<downmix>0</downmix>
											<channel>
												<index>6</index>
											</channel>
										</group>
									</outputs>
									<track TL.SQTrackAudioKeyframeStyle="0" TL.SQTrackShy="0" TL.SQTrackExpandedHeight="85" TL.SQTrackExpanded="1" MZ.TrackTargeted="1" PannerCurrentValue="0" PannerIsInverted="true" PannerStartKeyframe="-91445760000000000,0.,0,0,0,0,0,0" PannerName="Balance" currentExplodedTrackIndex="0" totalExplodedTrackCount="1" premiereTrackType="Stereo">
										<clipitem id="clipitem-549" premiereChannelType="mono">
											<masterclipid>masterclip-129</masterclipid>
											<name>Clip0005_1.mov</name>
											<enabled>TRUE</enabled>
											<duration>18528</duration>
											<rate>
												<timebase>25</timebase>
												<ntsc>FALSE</ntsc>
											</rate>
											<start>0</start>
											<end>18523</end>
											<in>3</in>
											<out>18526</out>
											<pproTicksIn>30481920000</pproTicksIn>
											<pproTicksOut>188236016640000</pproTicksOut>
											<file id="file-116"/>
											<sourcetrack>
												<mediatype>audio</mediatype>
												<trackindex>1</trackindex>
											</sourcetrack>
												<marker>
													<comment></comment>
													<name></name>
													<in>522</in>
													<out>-1</out>
												</marker>
												<marker>
													<comment></comment>
													<name>klapp</name>
													<in>343</in>
													<out>-1</out>
												</marker>
											<link>
												<linkclipref>clipitem-544</linkclipref>
												<mediatype>video</mediatype>
												<trackindex>1</trackindex>
												<clipindex>1</clipindex>
											</link>
											<link>
												<linkclipref>clipitem-549</linkclipref>
												<mediatype>audio</mediatype>
												<trackindex>1</trackindex>
												<clipindex>1</clipindex>
												<groupindex>1</groupindex>
											</link>
											<link>
												<linkclipref>clipitem-550</linkclipref>
												<mediatype>audio</mediatype>
												<trackindex>2</trackindex>
												<clipindex>1</clipindex>
												<groupindex>1</groupindex>
											</link>
											<logginginfo>
												<description>boksT01 M klapp1 sidelinja klapp 2 Jim</description>
												<scene></scene>
												<shottake></shottake>
												<lognote></lognote>
											</logginginfo>
											<labels>
												<label2>Iris</label2>
											</labels>
										</clipitem>
										<enabled>TRUE</enabled>
										<locked>FALSE</locked>
										<outputchannelindex>1</outputchannelindex>
									</track>
									<track TL.SQTrackAudioKeyframeStyle="0" TL.SQTrackShy="0" TL.SQTrackExpandedHeight="85" TL.SQTrackExpanded="1" MZ.TrackTargeted="1" PannerIsInverted="true" PannerName="Balance" currentExplodedTrackIndex="0" totalExplodedTrackCount="1" premiereTrackType="Stereo">
										<clipitem id="clipitem-550" premiereChannelType="mono">
											<masterclipid>masterclip-129</masterclipid>
											<name>Clip0005_1.mov</name>
											<enabled>TRUE</enabled>
											<duration>18528</duration>
											<rate>
												<timebase>25</timebase>
												<ntsc>FALSE</ntsc>
											</rate>
											<start>0</start>
											<end>18523</end>
											<in>3</in>
											<out>18526</out>
											<pproTicksIn>30481920000</pproTicksIn>
											<pproTicksOut>188236016640000</pproTicksOut>
											<file id="file-116"/>
											<sourcetrack>
												<mediatype>audio</mediatype>
												<trackindex>2</trackindex>
											</sourcetrack>
												<marker>
													<comment></comment>
													<name></name>
													<in>522</in>
													<out>-1</out>
												</marker>
												<marker>
													<comment></comment>
													<name>klapp</name>
													<in>343</in>
													<out>-1</out>
												</marker>
											<link>
												<linkclipref>clipitem-544</linkclipref>
												<mediatype>video</mediatype>
												<trackindex>1</trackindex>
												<clipindex>1</clipindex>
											</link>
											<link>
												<linkclipref>clipitem-549</linkclipref>
												<mediatype>audio</mediatype>
												<trackindex>1</trackindex>
												<clipindex>1</clipindex>
												<groupindex>1</groupindex>
											</link>
											<link>
												<linkclipref>clipitem-550</linkclipref>
												<mediatype>audio</mediatype>
												<trackindex>2</trackindex>
												<clipindex>1</clipindex>
												<groupindex>1</groupindex>
											</link>
											<logginginfo>
												<description>boksT01 M klapp1 sidelinja klapp 2 Jim</description>
												<scene></scene>
												<shottake></shottake>
												<lognote></lognote>
											</logginginfo>
											<labels>
												<label2>Iris</label2>
											</labels>
										</clipitem>
										<enabled>TRUE</enabled>
										<locked>FALSE</locked>
										<outputchannelindex>2</outputchannelindex>
									</track>
									<track TL.SQTrackAudioKeyframeStyle="0" TL.SQTrackShy="0" TL.SQTrackExpandedHeight="85" TL.SQTrackExpanded="1" MZ.TrackTargeted="1" PannerCurrentValue="0" PannerIsInverted="true" PannerStartKeyframe="-91445760000000000,0.,0,0,0,0,0,0" PannerName="Balance" currentExplodedTrackIndex="0" totalExplodedTrackCount="1" premiereTrackType="Stereo">
										<clipitem id="clipitem-551" premiereChannelType="mono">
											<masterclipid>masterclip-130</masterclipid>
											<name>Clip0006.mov</name>
											<enabled>TRUE</enabled>
											<duration>18456</duration>
											<rate>
												<timebase>25</timebase>
												<ntsc>FALSE</ntsc>
											</rate>
											<start>68</start>
											<end>18524</end>
											<in>0</in>
											<out>18456</out>
											<pproTicksIn>0</pproTicksIn>
											<pproTicksOut>187524771840000</pproTicksOut>
											<file id="file-117"/>
											<sourcetrack>
												<mediatype>audio</mediatype>
												<trackindex>1</trackindex>
											</sourcetrack>
												<marker>
													<comment></comment>
													<name>klapp</name>
													<in>273</in>
													<out>-1</out>
												</marker>
											<link>
												<linkclipref>clipitem-545</linkclipref>
												<mediatype>video</mediatype>
												<trackindex>2</trackindex>
												<clipindex>1</clipindex>
											</link>
											<link>
												<linkclipref>clipitem-551</linkclipref>
												<mediatype>audio</mediatype>
												<trackindex>3</trackindex>
												<clipindex>1</clipindex>
												<groupindex>1</groupindex>
											</link>
											<link>
												<linkclipref>clipitem-552</linkclipref>
												<mediatype>audio</mediatype>
												<trackindex>4</trackindex>
												<clipindex>1</clipindex>
												<groupindex>1</groupindex>
											</link>
											<logginginfo>
												<description>boksT01 M klapp1 sidelinja klapp 2 Jim</description>
												<scene></scene>
												<shottake></shottake>
												<lognote></lognote>
											</logginginfo>
											<labels>
												<label2>Iris</label2>
											</labels>
										</clipitem>
										<enabled>TRUE</enabled>
										<locked>FALSE</locked>
										<outputchannelindex>3</outputchannelindex>
									</track>
									<track TL.SQTrackAudioKeyframeStyle="0" TL.SQTrackShy="0" TL.SQTrackExpandedHeight="85" TL.SQTrackExpanded="1" MZ.TrackTargeted="1" PannerIsInverted="true" PannerName="Balance" currentExplodedTrackIndex="0" totalExplodedTrackCount="1" premiereTrackType="Stereo">
										<clipitem id="clipitem-552" premiereChannelType="mono">
											<masterclipid>masterclip-130</masterclipid>
											<name>Clip0006.mov</name>
											<enabled>TRUE</enabled>
											<duration>18456</duration>
											<rate>
												<timebase>25</timebase>
												<ntsc>FALSE</ntsc>
											</rate>
											<start>68</start>
											<end>18524</end>
											<in>0</in>
											<out>18456</out>
											<pproTicksIn>0</pproTicksIn>
											<pproTicksOut>187524771840000</pproTicksOut>
											<file id="file-117"/>
											<sourcetrack>
												<mediatype>audio</mediatype>
												<trackindex>2</trackindex>
											</sourcetrack>
												<marker>
													<comment></comment>
													<name>klapp</name>
													<in>273</in>
													<out>-1</out>
												</marker>
											<link>
												<linkclipref>clipitem-545</linkclipref>
												<mediatype>video</mediatype>
												<trackindex>2</trackindex>
												<clipindex>1</clipindex>
											</link>
											<link>
												<linkclipref>clipitem-551</linkclipref>
												<mediatype>audio</mediatype>
												<trackindex>3</trackindex>
												<clipindex>1</clipindex>
												<groupindex>1</groupindex>
											</link>
											<link>
												<linkclipref>clipitem-552</linkclipref>
												<mediatype>audio</mediatype>
												<trackindex>4</trackindex>
												<clipindex>1</clipindex>
												<groupindex>1</groupindex>
											</link>
											<logginginfo>
												<description>boksT01 M klapp1 sidelinja klapp 2 Jim</description>
												<scene></scene>
												<shottake></shottake>
												<lognote></lognote>
											</logginginfo>
											<labels>
												<label2>Iris</label2>
											</labels>
										</clipitem>
										<enabled>TRUE</enabled>
										<locked>FALSE</locked>
										<outputchannelindex>4</outputchannelindex>
									</track>
									<track TL.SQTrackAudioKeyframeStyle="0" TL.SQTrackShy="0" TL.SQTrackExpandedHeight="85" TL.SQTrackExpanded="1" MZ.TrackTargeted="1" PannerCurrentValue="0" PannerIsInverted="true" PannerStartKeyframe="-91445760000000000,0.,0,0,0,0,0,0" PannerName="Balance" currentExplodedTrackIndex="0" totalExplodedTrackCount="1" premiereTrackType="Stereo">
										<clipitem id="clipitem-553" premiereChannelType="mono">
											<masterclipid>masterclip-131</masterclipid>
											<name>gopro2 stitched 2.mov</name>
											<enabled>TRUE</enabled>
											<duration>44554</duration>
											<rate>
												<timebase>25</timebase>
												<ntsc>FALSE</ntsc>
											</rate>
											<start>1</start>
											<end>18524</end>
											<in>512</in>
											<out>19035</out>
											<pproTicksIn>5202247680000</pproTicksIn>
											<pproTicksOut>193407782400000</pproTicksOut>
											<file id="file-118"/>
											<sourcetrack>
												<mediatype>audio</mediatype>
												<trackindex>1</trackindex>
											</sourcetrack>
											<link>
												<linkclipref>clipitem-546</linkclipref>
												<mediatype>video</mediatype>
												<trackindex>3</trackindex>
												<clipindex>1</clipindex>
											</link>
											<link>
												<linkclipref>clipitem-553</linkclipref>
												<mediatype>audio</mediatype>
												<trackindex>5</trackindex>
												<clipindex>1</clipindex>
												<groupindex>1</groupindex>
											</link>
											<link>
												<linkclipref>clipitem-554</linkclipref>
												<mediatype>audio</mediatype>
												<trackindex>6</trackindex>
												<clipindex>1</clipindex>
												<groupindex>1</groupindex>
											</link>
											<logginginfo>
												<description>synklyd</description>
												<scene></scene>
												<shottake></shottake>
												<lognote></lognote>
											</logginginfo>
											<labels>
												<label2>Iris</label2>
											</labels>
										</clipitem>
										<enabled>FALSE</enabled>
										<locked>FALSE</locked>
										<outputchannelindex>5</outputchannelindex>
									</track>
									<track TL.SQTrackAudioKeyframeStyle="0" TL.SQTrackShy="0" TL.SQTrackExpandedHeight="85" TL.SQTrackExpanded="1" MZ.TrackTargeted="1" PannerIsInverted="true" PannerName="Balance" currentExplodedTrackIndex="0" totalExplodedTrackCount="1" premiereTrackType="Stereo">
										<clipitem id="clipitem-554" premiereChannelType="mono">
											<masterclipid>masterclip-131</masterclipid>
											<name>gopro2 stitched 2.mov</name>
											<enabled>TRUE</enabled>
											<duration>44554</duration>
											<rate>
												<timebase>25</timebase>
												<ntsc>FALSE</ntsc>
											</rate>
											<start>1</start>
											<end>18524</end>
											<in>512</in>
											<out>19035</out>
											<pproTicksIn>5202247680000</pproTicksIn>
											<pproTicksOut>193407782400000</pproTicksOut>
											<file id="file-118"/>
											<sourcetrack>
												<mediatype>audio</mediatype>
												<trackindex>2</trackindex>
											</sourcetrack>
											<link>
												<linkclipref>clipitem-546</linkclipref>
												<mediatype>video</mediatype>
												<trackindex>3</trackindex>
												<clipindex>1</clipindex>
											</link>
											<link>
												<linkclipref>clipitem-553</linkclipref>
												<mediatype>audio</mediatype>
												<trackindex>5</trackindex>
												<clipindex>1</clipindex>
												<groupindex>1</groupindex>
											</link>
											<link>
												<linkclipref>clipitem-554</linkclipref>
												<mediatype>audio</mediatype>
												<trackindex>6</trackindex>
												<clipindex>1</clipindex>
												<groupindex>1</groupindex>
											</link>
											<logginginfo>
												<description>synklyd</description>
												<scene></scene>
												<shottake></shottake>
												<lognote></lognote>
											</logginginfo>
											<labels>
												<label2>Iris</label2>
											</labels>
										</clipitem>
										<enabled>FALSE</enabled>
										<locked>FALSE</locked>
										<outputchannelindex>6</outputchannelindex>
									</track>
									<track TL.SQTrackAudioKeyframeStyle="0" TL.SQTrackShy="0" TL.SQTrackExpandedHeight="85" TL.SQTrackExpanded="1" MZ.TrackTargeted="0" PannerCurrentValue="0.5" PannerIsInverted="true" PannerStartKeyframe="-91445760000000000,0.5,0,0,0,0,0,0" PannerName="Balance" currentExplodedTrackIndex="0" totalExplodedTrackCount="2" premiereTrackType="Stereo">
										<enabled>TRUE</enabled>
										<locked>FALSE</locked>
										<outputchannelindex>1</outputchannelindex>
									</track>
									<track TL.SQTrackAudioKeyframeStyle="0" TL.SQTrackShy="0" TL.SQTrackExpandedHeight="85" TL.SQTrackExpanded="1" MZ.TrackTargeted="0" PannerCurrentValue="0.5" PannerIsInverted="true" PannerStartKeyframe="-91445760000000000,0.5,0,0,0,0,0,0" PannerName="Balance" currentExplodedTrackIndex="1" totalExplodedTrackCount="2" premiereTrackType="Stereo">
										<enabled>TRUE</enabled>
										<locked>FALSE</locked>
										<outputchannelindex>2</outputchannelindex>
									</track>
								</audio>
							</media>
							<timecode>
								<rate>
									<timebase>25</timebase>
									<ntsc>FALSE</ntsc>
								</rate>
								<string>09:04:55:20</string>
								<frame>817395</frame>
								<displayformat>NDF</displayformat>
							</timecode>
								<marker>
									<comment></comment>
									<name></name>
									<in>5485</in>
									<out>-1</out>
								</marker>
								<marker>
									<comment></comment>
									<name></name>
									<in>1430</in>
									<out>-1</out>
								</marker>
								<marker>
									<comment></comment>
									<name></name>
									<in>5445</in>
									<out>-1</out>
								</marker>
						</sequence>
							<filter>
								<effect>
									<name>Gain</name>
									<effectid>{61756678, 4761696e, 4b657947}</effectid>
									<effecttype>filter</effecttype>
									<mediatype>audio</mediatype>
									<parameter authoringApp="PremierePro">
										<parameterid>Gain(dB)</parameterid>
										<name>Gain(dB)</name>
										<valuemin>-96</valuemin>
										<valuemax>96</valuemax>
										<value>11</value>
									</parameter>
								</effect>
							</filter>
						<labels>
							<label2>Forest</label2>
						</labels>
					</clipitem>
					<clipitem id="clipitem-555" premiereChannelType="mono">
						<masterclipid>masterclip-128</masterclipid>
						<name>VBboks-kamp-T01-Multicam</name>
						<enabled>TRUE</enabled>
						<duration>45778</duration>
						<rate>
							<timebase>25</timebase>
							<ntsc>FALSE</ntsc>
						</rate>
						<start>228</start>
						<end>260</end>
						<in>13223</in>
						<out>13255</out>
						<pproTicksIn>134354142720000</pproTicksIn>
						<pproTicksOut>134679283200000</pproTicksOut>
						<sequence id="sequence-11"/>
							<filter>
								<effect>
									<name>Gain</name>
									<effectid>{61756678, 4761696e, 4b657947}</effectid>
									<effecttype>filter</effecttype>
									<mediatype>audio</mediatype>
									<parameter authoringApp="PremierePro">
										<parameterid>Gain(dB)</parameterid>
										<name>Gain(dB)</name>
										<valuemin>-96</valuemin>
										<valuemax>96</valuemax>
										<value>-9</value>
									</parameter>
								</effect>
							</filter>
						<link>
							<linkclipref>clipitem-555</linkclipref>
							<mediatype>audio</mediatype>
							<trackindex>9</trackindex>
							<clipindex>7</clipindex>
							<groupindex>1</groupindex>
						</link>
						<link>
							<linkclipref>clipitem-627</linkclipref>
							<mediatype>audio</mediatype>
							<trackindex>11</trackindex>
							<clipindex>6</clipindex>
							<groupindex>1</groupindex>
						</link>
						<labels>
							<label2>Forest</label2>
						</labels>
					</clipitem>
					<clipitem id="clipitem-556" premiereChannelType="stereo">
						<masterclipid>masterclip-134</masterclipid>
						<name>165196__swimignorantfire__skull-crack-on-porcelain-tub.wav</name>
						<enabled>TRUE</enabled>
						<duration>56</duration>
						<rate>
							<timebase>25</timebase>
							<ntsc>FALSE</ntsc>
						</rate>
						<start>273</start>
						<end>288</end>
						<in>4</in>
						<out>19</out>
						<pproTicksIn>40642560000</pproTicksIn>
						<pproTicksOut>193052160000</pproTicksOut>
						<file id="file-121">
							<name>165196__swimignorantfire__skull-crack-on-porcelain-tub.wav</name>
							<pathurl>file://localhost/Volumes/Bingen/Prosjekter/MYNT194016%20WHATS%20COOKING/Lydeffekter/Jan%20Lydeffekter/165196__swimignorantfire__skull-crack-on-porcelain-tub.wav</pathurl>
							<rate>
								<timebase>30</timebase>
								<ntsc>TRUE</ntsc>
							</rate>
							<duration>67</duration>
							<timecode>
								<rate>
									<timebase>30</timebase>
									<ntsc>TRUE</ntsc>
								</rate>
								<string>00;06;37;26</string>
								<frame>11924</frame>
								<displayformat>DF</displayformat>
								<reel>
									<name></name>
								</reel>
							</timecode>
							<media>
								<audio>
									<samplecharacteristics>
										<depth>16</depth>
										<samplerate>48000</samplerate>
									</samplecharacteristics>
									<channelcount>2</channelcount>
								</audio>
							</media>
						</file>
						<sourcetrack>
							<mediatype>audio</mediatype>
							<trackindex>1</trackindex>
						</sourcetrack>
							<filter>
								<effect>
									<name>Audio Levels</name>
									<effectid>audiolevels</effectid>
									<effectcategory>audiolevels</effectcategory>
									<effecttype>audiolevels</effecttype>
									<mediatype>audio</mediatype>
									<parameter authoringApp="PremierePro">
										<parameterid>level</parameterid>
										<name>Level</name>
										<valuemin>0</valuemin>
										<valuemax>3.98109</valuemax>
										<value>0.0934747</value>
									</parameter>
								</effect>
							</filter>
						<link>
							<linkclipref>clipitem-556</linkclipref>
							<mediatype>audio</mediatype>
							<trackindex>9</trackindex>
							<clipindex>8</clipindex>
							<groupindex>1</groupindex>
						</link>
						<link>
							<linkclipref>clipitem-616</linkclipref>
							<mediatype>audio</mediatype>
							<trackindex>10</trackindex>
							<clipindex>6</clipindex>
							<groupindex>1</groupindex>
						</link>
						<logginginfo>
							<description></description>
							<scene></scene>
							<shottake></shottake>
							<lognote></lognote>
						</logginginfo>
						<labels>
							<label2>Caribbean</label2>
						</labels>
					</clipitem>
					<transitionitem>
						<start>1028</start>
						<end>1041</end>
						<alignment>start-black</alignment>
						<cutPointTicks>0</cutPointTicks>
						<rate>
							<timebase>25</timebase>
							<ntsc>FALSE</ntsc>
						</rate>
						<effect>
							<name>Cross Fade (+3dB)</name>
							<effectid>KGAudioTransCrossFade3dB</effectid>
							<effecttype>transition</effecttype>
							<mediatype>audio</mediatype>
							<wipecode>0</wipecode>
							<wipeaccuracy>100</wipeaccuracy>
							<startratio>0</startratio>
							<endratio>1</endratio>
							<reverse>FALSE</reverse>
						</effect>
					</transitionitem>
					<clipitem id="clipitem-557" premiereChannelType="stereo">
						<masterclipid>masterclip-135</masterclipid>
						<name>NONRO180508CD0013 Swagga Like Us.wav</name>
						<enabled>TRUE</enabled>
						<duration>8191</duration>
						<rate>
							<timebase>25</timebase>
							<ntsc>FALSE</ntsc>
						</rate>
						<start>-1</start>
						<end>-1</end>
						<in>464</in>
						<out>786</out>
						<pproTicksIn>4714536960000</pproTicksIn>
						<pproTicksOut>7986263040000</pproTicksOut>
						<file id="file-122">
							<name>NONRO180508CD0013 Swagga Like Us.wav</name>
							<pathurl>file://localhost/Volumes/Bingen/Prosjekter/MYNT194016%20WHATS%20COOKING/Musikk/Jan/DMA/NONRO180508CD0013%20Swagga%20Like%20Us.wav</pathurl>
							<rate>
								<timebase>30</timebase>
								<ntsc>TRUE</ntsc>
							</rate>
							<duration>9820</duration>
							<timecode>
								<rate>
									<timebase>30</timebase>
									<ntsc>TRUE</ntsc>
								</rate>
								<string>00;00;00;00</string>
								<frame>0</frame>
								<displayformat>DF</displayformat>
								<reel>
									<name></name>
								</reel>
							</timecode>
							<media>
								<audio>
									<samplecharacteristics>
										<depth>16</depth>
										<samplerate>48000</samplerate>
									</samplecharacteristics>
									<channelcount>2</channelcount>
								</audio>
							</media>
						</file>
						<sourcetrack>
							<mediatype>audio</mediatype>
							<trackindex>1</trackindex>
						</sourcetrack>
							<filter>
								<effect>
									<name>Gain</name>
									<effectid>{61756678, 4761696e, 4b657947}</effectid>
									<effecttype>filter</effecttype>
									<mediatype>audio</mediatype>
									<parameter authoringApp="PremierePro">
										<parameterid>Gain(dB)</parameterid>
										<name>Gain(dB)</name>
										<valuemin>-96</valuemin>
										<valuemax>96</valuemax>
										<value>-9</value>
									</parameter>
								</effect>
							</filter>
						<link>
							<linkclipref>clipitem-557</linkclipref>
							<mediatype>audio</mediatype>
							<trackindex>9</trackindex>
							<clipindex>10</clipindex>
							<groupindex>1</groupindex>
						</link>
						<link>
							<linkclipref>clipitem-617</linkclipref>
							<mediatype>audio</mediatype>
							<trackindex>10</trackindex>
							<clipindex>8</clipindex>
							<groupindex>1</groupindex>
						</link>
						<logginginfo>
							<description></description>
							<scene></scene>
							<shottake></shottake>
							<lognote>CD Track 13 archiveNo[180508012]</lognote>
						</logginginfo>
						<labels>
							<label2>Caribbean</label2>
						</labels>
					</clipitem>
					<transitionitem>
						<start>1343</start>
						<end>1350</end>
						<alignment>end-black</alignment>
						<cutPointTicks>71124480000</cutPointTicks>
						<rate>
							<timebase>25</timebase>
							<ntsc>FALSE</ntsc>
						</rate>
						<effect>
							<name>Cross Fade (+3dB)</name>
							<effectid>KGAudioTransCrossFade3dB</effectid>
							<effecttype>transition</effecttype>
							<mediatype>audio</mediatype>
							<wipecode>0</wipecode>
							<wipeaccuracy>100</wipeaccuracy>
							<startratio>0</startratio>
							<endratio>1</endratio>
							<reverse>FALSE</reverse>
						</effect>
					</transitionitem>
					<clipitem id="clipitem-558" premiereChannelType="mono">
						<masterclipid>masterclip-136</masterclipid>
						<name>Stikk1-T03-Multicam</name>
						<enabled>TRUE</enabled>
						<duration>24034</duration>
						<rate>
							<timebase>25</timebase>
							<ntsc>FALSE</ntsc>
						</rate>
						<start>3942</start>
						<end>3969</end>
						<in>15939</in>
						<out>15966</out>
						<pproTicksIn>161950440960000</pproTicksIn>
						<pproTicksOut>162224778240000</pproTicksOut>
						<sequence id="sequence-12" TL.SQAudioVisibleBase="0" TL.SQVideoVisibleBase="0" TL.SQVisibleBaseTime="0" TL.SQAVDividerPosition="0.5" TL.SQHideShyTracks="0" TL.SQHeaderWidth="184" Monitor.ProgramZoomOut="242656404480000" Monitor.ProgramZoomIn="0" TL.SQTimePerPixel="0.86984340044742725" AM.TrackVScrollPosition="0" AM.TrackScrollPosition="0" MZ.EditLine="118422259200000" MZ.Sequence.PreviewFrameSizeHeight="1080" MZ.Sequence.PreviewFrameSizeWidth="1920" MZ.Sequence.AudioTimeDisplayFormat="200" MZ.Sequence.PreviewRenderingClassID="1297106761" MZ.Sequence.PreviewRenderingPresetCodec="1297107278" MZ.Sequence.PreviewRenderingPresetPath="EncoderPresets/SequencePreview/795454d9-d3c2-429d-9474-923ab13b7018/I-Frame Only MPEG.epr" MZ.Sequence.PreviewUseMaxRenderQuality="false" MZ.Sequence.PreviewUseMaxBitDepth="false" MZ.Sequence.EditingModeGUID="795454d9-d3c2-429d-9474-923ab13b7018" MZ.Sequence.VideoTimeDisplayFormat="101" MZ.WorkOutPoint="242656404480000" MZ.WorkInPoint="0" MZ.ZeroPoint="11203639856640000">
							<duration>23823</duration>
							<rate>
								<timebase>25</timebase>
								<ntsc>FALSE</ntsc>
							</rate>
							<name>Stikk1-T03-Multicam</name>
							<media>
								<video>
									<format>
										<samplecharacteristics>
											<rate>
												<timebase>25</timebase>
												<ntsc>FALSE</ntsc>
											</rate>
											<codec>
												<name>Apple ProRes 422</name>
												<appspecificdata>
													<appname>Final Cut Pro</appname>
													<appmanufacturer>Apple Inc.</appmanufacturer>
													<appversion>7.0</appversion>
													<data>
														<qtcodec>
															<codecname>Apple ProRes 422</codecname>
															<codectypename>Apple ProRes 422</codectypename>
															<codectypecode>apcn</codectypecode>
															<codecvendorcode>appl</codecvendorcode>
															<spatialquality>1024</spatialquality>
															<temporalquality>0</temporalquality>
															<keyframerate>0</keyframerate>
															<datarate>0</datarate>
														</qtcodec>
													</data>
												</appspecificdata>
											</codec>
											<width>1920</width>
											<height>1080</height>
											<anamorphic>FALSE</anamorphic>
											<pixelaspectratio>square</pixelaspectratio>
											<fielddominance>none</fielddominance>
											<colordepth>24</colordepth>
										</samplecharacteristics>
									</format>
									<track TL.SQTrackShy="0" TL.SQTrackExpandedHeight="25" TL.SQTrackExpanded="1" MZ.TrackTargeted="0">
										<clipitem id="clipitem-559">
											<masterclipid>masterclip-137</masterclipid>
											<name>Clip0008.mov</name>
											<enabled>TRUE</enabled>
											<duration>23844</duration>
											<rate>
												<timebase>25</timebase>
												<ntsc>FALSE</ntsc>
											</rate>
											<start>0</start>
											<end>23814</end>
											<in>30</in>
											<out>23844</out>
											<pproTicksIn>304819200000</pproTicksIn>
											<pproTicksOut>242270300160000</pproTicksOut>
											<alphatype>none</alphatype>
											<pixelaspectratio>square</pixelaspectratio>
											<anamorphic>FALSE</anamorphic>
											<file id="file-123">
												<name>Clip0008.mov</name>
												<pathurl>file://localhost/Volumes/Bingen/Prosjekter/MYNT194016%20WHATS%20COOKING/Media/Episode%2004%20Vold/Episode-opptak/05042016/KAM%20A/ProRes%202/Clip0008.mov</pathurl>
												<rate>
													<timebase>25</timebase>
													<ntsc>FALSE</ntsc>
												</rate>
												<duration>23844</duration>
												<timecode>
													<rate>
														<timebase>25</timebase>
														<ntsc>FALSE</ntsc>
													</rate>
													<string>12:15:33:21</string>
													<frame>1103346</frame>
													<displayformat>NDF</displayformat>
													<reel>
														<name></name>
													</reel>
												</timecode>
												<media>
													<video>
														<samplecharacteristics>
															<rate>
																<timebase>25</timebase>
																<ntsc>FALSE</ntsc>
															</rate>
															<width>1920</width>
															<height>1080</height>
															<anamorphic>FALSE</anamorphic>
															<pixelaspectratio>square</pixelaspectratio>
															<fielddominance>none</fielddominance>
														</samplecharacteristics>
													</video>
													<audio>
														<samplecharacteristics>
															<depth>16</depth>
															<samplerate>48000</samplerate>
														</samplecharacteristics>
														<channelcount>1</channelcount>
														<audiochannel>
															<sourcechannel>1</sourcechannel>
														</audiochannel>
													</audio>
													<audio>
														<samplecharacteristics>
															<depth>16</depth>
															<samplerate>48000</samplerate>
														</samplecharacteristics>
														<channelcount>1</channelcount>
														<audiochannel>
															<sourcechannel>2</sourcechannel>
														</audiochannel>
													</audio>
													<audio>
														<samplecharacteristics>
															<depth>16</depth>
															<samplerate>48000</samplerate>
														</samplecharacteristics>
														<channelcount>1</channelcount>
														<audiochannel>
															<sourcechannel>3</sourcechannel>
														</audiochannel>
													</audio>
													<audio>
														<samplecharacteristics>
															<depth>16</depth>
															<samplerate>48000</samplerate>
														</samplecharacteristics>
														<channelcount>1</channelcount>
														<audiochannel>
															<sourcechannel>4</sourcechannel>
														</audiochannel>
													</audio>
												</media>
											</file>
											<link>
												<linkclipref>clipitem-559</linkclipref>
												<mediatype>video</mediatype>
												<trackindex>1</trackindex>
												<clipindex>1</clipindex>
											</link>
											<link>
												<linkclipref>clipitem-567</linkclipref>
												<mediatype>audio</mediatype>
												<trackindex>5</trackindex>
												<clipindex>1</clipindex>
												<groupindex>1</groupindex>
											</link>
											<link>
												<linkclipref>clipitem-568</linkclipref>
												<mediatype>audio</mediatype>
												<trackindex>6</trackindex>
												<clipindex>1</clipindex>
												<groupindex>1</groupindex>
											</link>
											<logginginfo>
												<description>Stikk 1 T03</description>
												<scene></scene>
												<shottake></shottake>
												<lognote></lognote>
											</logginginfo>
											<labels>
												<label2>Iris</label2>
											</labels>
										</clipitem>
										<enabled>TRUE</enabled>
										<locked>FALSE</locked>
									</track>
									<track TL.SQTrackShy="0" TL.SQTrackExpandedHeight="25" TL.SQTrackExpanded="0" MZ.TrackTargeted="0">
										<clipitem id="clipitem-560">
											<masterclipid>masterclip-138</masterclipid>
											<name>Clip0004.mov</name>
											<enabled>TRUE</enabled>
											<duration>23892</duration>
											<rate>
												<timebase>25</timebase>
												<ntsc>FALSE</ntsc>
											</rate>
											<start>0</start>
											<end>23832</end>
											<in>60</in>
											<out>23892</out>
											<pproTicksIn>609638400000</pproTicksIn>
											<pproTicksOut>242758010880000</pproTicksOut>
											<alphatype>none</alphatype>
											<pixelaspectratio>square</pixelaspectratio>
											<anamorphic>FALSE</anamorphic>
											<file id="file-124">
												<name>Clip0004.mov</name>
												<pathurl>file://localhost/Volumes/Bingen/Prosjekter/MYNT194016%20WHATS%20COOKING/Media/Episode%2004%20Vold/Episode-opptak/05042016/KAM%20B/ProRes%202/Clip0004.mov</pathurl>
												<rate>
													<timebase>25</timebase>
													<ntsc>FALSE</ntsc>
												</rate>
												<duration>23892</duration>
												<timecode>
													<rate>
														<timebase>25</timebase>
														<ntsc>FALSE</ntsc>
													</rate>
													<string>12:15:32:08</string>
													<frame>1103308</frame>
													<displayformat>NDF</displayformat>
													<reel>
														<name></name>
													</reel>
												</timecode>
												<media>
													<video>
														<samplecharacteristics>
															<rate>
																<timebase>25</timebase>
																<ntsc>FALSE</ntsc>
															</rate>
															<width>1920</width>
															<height>1080</height>
															<anamorphic>FALSE</anamorphic>
															<pixelaspectratio>square</pixelaspectratio>
															<fielddominance>none</fielddominance>
														</samplecharacteristics>
													</video>
													<audio>
														<samplecharacteristics>
															<depth>16</depth>
															<samplerate>48000</samplerate>
														</samplecharacteristics>
														<channelcount>1</channelcount>
														<audiochannel>
															<sourcechannel>1</sourcechannel>
														</audiochannel>
													</audio>
													<audio>
														<samplecharacteristics>
															<depth>16</depth>
															<samplerate>48000</samplerate>
														</samplecharacteristics>
														<channelcount>1</channelcount>
														<audiochannel>
															<sourcechannel>2</sourcechannel>
														</audiochannel>
													</audio>
													<audio>
														<samplecharacteristics>
															<depth>16</depth>
															<samplerate>48000</samplerate>
														</samplecharacteristics>
														<channelcount>1</channelcount>
														<audiochannel>
															<sourcechannel>3</sourcechannel>
														</audiochannel>
													</audio>
													<audio>
														<samplecharacteristics>
															<depth>16</depth>
															<samplerate>48000</samplerate>
														</samplecharacteristics>
														<channelcount>1</channelcount>
														<audiochannel>
															<sourcechannel>4</sourcechannel>
														</audiochannel>
													</audio>
												</media>
											</file>
											<link>
												<linkclipref>clipitem-560</linkclipref>
												<mediatype>video</mediatype>
												<trackindex>2</trackindex>
												<clipindex>1</clipindex>
											</link>
											<link>
												<linkclipref>clipitem-569</linkclipref>
												<mediatype>audio</mediatype>
												<trackindex>7</trackindex>
												<clipindex>1</clipindex>
												<groupindex>1</groupindex>
											</link>
											<link>
												<linkclipref>clipitem-570</linkclipref>
												<mediatype>audio</mediatype>
												<trackindex>8</trackindex>
												<clipindex>1</clipindex>
												<groupindex>1</groupindex>
											</link>
											<logginginfo>
												<description>Stikk 1 T03</description>
												<scene></scene>
												<shottake></shottake>
												<lognote></lognote>
											</logginginfo>
											<labels>
												<label2>Iris</label2>
											</labels>
										</clipitem>
										<enabled>TRUE</enabled>
										<locked>FALSE</locked>
									</track>
									<track TL.SQTrackShy="0" TL.SQTrackExpandedHeight="25" TL.SQTrackExpanded="0" MZ.TrackTargeted="0">
										<clipitem id="clipitem-561">
											<masterclipid>masterclip-139</masterclipid>
											<name>Clip0003.mov</name>
											<enabled>TRUE</enabled>
											<duration>23616</duration>
											<rate>
												<timebase>25</timebase>
												<ntsc>FALSE</ntsc>
											</rate>
											<start>0</start>
											<end>23609</end>
											<in>7</in>
											<out>23616</out>
											<pproTicksIn>71124480000</pproTicksIn>
											<pproTicksOut>239953674240000</pproTicksOut>
											<alphatype>none</alphatype>
											<pixelaspectratio>square</pixelaspectratio>
											<anamorphic>FALSE</anamorphic>
											<file id="file-125">
												<name>Clip0003.mov</name>
												<pathurl>file://localhost/Volumes/Bingen/Prosjekter/MYNT194016%20WHATS%20COOKING/Media/Episode%2004%20Vold/Episode-opptak/05042016/KAM%20C/ProRes%202/Clip0003.mov</pathurl>
												<rate>
													<timebase>25</timebase>
													<ntsc>FALSE</ntsc>
												</rate>
												<duration>23616</duration>
												<timecode>
													<rate>
														<timebase>25</timebase>
														<ntsc>FALSE</ntsc>
													</rate>
													<string>12:15:34:19</string>
													<frame>1103369</frame>
													<displayformat>NDF</displayformat>
													<reel>
														<name></name>
													</reel>
												</timecode>
												<media>
													<video>
														<samplecharacteristics>
															<rate>
																<timebase>25</timebase>
																<ntsc>FALSE</ntsc>
															</rate>
															<width>1920</width>
															<height>1080</height>
															<anamorphic>FALSE</anamorphic>
															<pixelaspectratio>square</pixelaspectratio>
															<fielddominance>none</fielddominance>
														</samplecharacteristics>
													</video>
													<audio>
														<samplecharacteristics>
															<depth>16</depth>
															<samplerate>48000</samplerate>
														</samplecharacteristics>
														<channelcount>1</channelcount>
														<audiochannel>
															<sourcechannel>1</sourcechannel>
														</audiochannel>
													</audio>
													<audio>
														<samplecharacteristics>
															<depth>16</depth>
															<samplerate>48000</samplerate>
														</samplecharacteristics>
														<channelcount>1</channelcount>
														<audiochannel>
															<sourcechannel>2</sourcechannel>
														</audiochannel>
													</audio>
													<audio>
														<samplecharacteristics>
															<depth>16</depth>
															<samplerate>48000</samplerate>
														</samplecharacteristics>
														<channelcount>1</channelcount>
														<audiochannel>
															<sourcechannel>3</sourcechannel>
														</audiochannel>
													</audio>
													<audio>
														<samplecharacteristics>
															<depth>16</depth>
															<samplerate>48000</samplerate>
														</samplecharacteristics>
														<channelcount>1</channelcount>
														<audiochannel>
															<sourcechannel>4</sourcechannel>
														</audiochannel>
													</audio>
												</media>
											</file>
											<link>
												<linkclipref>clipitem-561</linkclipref>
												<mediatype>video</mediatype>
												<trackindex>3</trackindex>
												<clipindex>1</clipindex>
											</link>
											<link>
												<linkclipref>clipitem-571</linkclipref>
												<mediatype>audio</mediatype>
												<trackindex>9</trackindex>
												<clipindex>1</clipindex>
												<groupindex>1</groupindex>
											</link>
											<link>
												<linkclipref>clipitem-572</linkclipref>
												<mediatype>audio</mediatype>
												<trackindex>10</trackindex>
												<clipindex>1</clipindex>
												<groupindex>1</groupindex>
											</link>
											<logginginfo>
												<description>Stikk 1 T03</description>
												<scene></scene>
												<shottake></shottake>
												<lognote></lognote>
											</logginginfo>
											<labels>
												<label2>Iris</label2>
											</labels>
										</clipitem>
										<enabled>TRUE</enabled>
										<locked>FALSE</locked>
									</track>
									<track TL.SQTrackShy="0" TL.SQTrackExpandedHeight="25" TL.SQTrackExpanded="0" MZ.TrackTargeted="0">
										<clipitem id="clipitem-562">
											<masterclipid>masterclip-140</masterclipid>
											<name>A021C003_14012917.mov</name>
											<enabled>TRUE</enabled>
											<duration>24034</duration>
											<rate>
												<timebase>25</timebase>
												<ntsc>FALSE</ntsc>
											</rate>
											<start>0</start>
											<end>23882</end>
											<in>152</in>
											<out>24034</out>
											<pproTicksIn>1544417280000</pproTicksIn>
											<pproTicksOut>244200821760000</pproTicksOut>
											<alphatype>none</alphatype>
											<pixelaspectratio>square</pixelaspectratio>
											<anamorphic>FALSE</anamorphic>
											<file id="file-126">
												<name>A021C003_14012917.mov</name>
												<pathurl>file://localhost/Volumes/Bingen/Prosjekter/MYNT194016%20WHATS%20COOKING/Media/Episode%2004%20Vold/Episode-opptak/05042016/KAM%20D/ProRes%202/A021C003_14012917.mov</pathurl>
												<rate>
													<timebase>25</timebase>
													<ntsc>FALSE</ntsc>
												</rate>
												<duration>24034</duration>
												<timecode>
													<rate>
														<timebase>25</timebase>
														<ntsc>FALSE</ntsc>
													</rate>
													<string>12:15:00:00</string>
													<frame>1102500</frame>
													<displayformat>NDF</displayformat>
													<reel>
														<name></name>
													</reel>
												</timecode>
												<media>
													<video>
														<samplecharacteristics>
															<rate>
																<timebase>25</timebase>
																<ntsc>FALSE</ntsc>
															</rate>
															<width>1920</width>
															<height>1080</height>
															<anamorphic>FALSE</anamorphic>
															<pixelaspectratio>square</pixelaspectratio>
															<fielddominance>none</fielddominance>
														</samplecharacteristics>
													</video>
													<audio>
														<samplecharacteristics>
															<depth>16</depth>
															<samplerate>48000</samplerate>
														</samplecharacteristics>
														<channelcount>1</channelcount>
														<audiochannel>
															<sourcechannel>1</sourcechannel>
														</audiochannel>
													</audio>
													<audio>
														<samplecharacteristics>
															<depth>16</depth>
															<samplerate>48000</samplerate>
														</samplecharacteristics>
														<channelcount>1</channelcount>
														<audiochannel>
															<sourcechannel>2</sourcechannel>
														</audiochannel>
													</audio>
													<audio>
														<samplecharacteristics>
															<depth>16</depth>
															<samplerate>48000</samplerate>
														</samplecharacteristics>
														<channelcount>1</channelcount>
														<audiochannel>
															<sourcechannel>3</sourcechannel>
														</audiochannel>
													</audio>
													<audio>
														<samplecharacteristics>
															<depth>16</depth>
															<samplerate>48000</samplerate>
														</samplecharacteristics>
														<channelcount>1</channelcount>
														<audiochannel>
															<sourcechannel>4</sourcechannel>
														</audiochannel>
													</audio>
													<audio>
														<samplecharacteristics>
															<depth>16</depth>
															<samplerate>48000</samplerate>
														</samplecharacteristics>
														<channelcount>1</channelcount>
														<audiochannel>
															<sourcechannel>5</sourcechannel>
														</audiochannel>
													</audio>
													<audio>
														<samplecharacteristics>
															<depth>16</depth>
															<samplerate>48000</samplerate>
														</samplecharacteristics>
														<channelcount>1</channelcount>
														<audiochannel>
															<sourcechannel>6</sourcechannel>
														</audiochannel>
													</audio>
													<audio>
														<samplecharacteristics>
															<depth>16</depth>
															<samplerate>48000</samplerate>
														</samplecharacteristics>
														<channelcount>1</channelcount>
														<audiochannel>
															<sourcechannel>7</sourcechannel>
														</audiochannel>
													</audio>
													<audio>
														<samplecharacteristics>
															<depth>16</depth>
															<samplerate>48000</samplerate>
														</samplecharacteristics>
														<channelcount>1</channelcount>
														<audiochannel>
															<sourcechannel>8</sourcechannel>
														</audiochannel>
													</audio>
												</media>
											</file>
											<link>
												<linkclipref>clipitem-562</linkclipref>
												<mediatype>video</mediatype>
												<trackindex>4</trackindex>
												<clipindex>1</clipindex>
											</link>
											<link>
												<linkclipref>clipitem-573</linkclipref>
												<mediatype>audio</mediatype>
												<trackindex>11</trackindex>
												<clipindex>1</clipindex>
												<groupindex>1</groupindex>
											</link>
											<link>
												<linkclipref>clipitem-574</linkclipref>
												<mediatype>audio</mediatype>
												<trackindex>12</trackindex>
												<clipindex>1</clipindex>
												<groupindex>1</groupindex>
											</link>
											<logginginfo>
												<description>Stikk 1 T03</description>
												<scene></scene>
												<shottake></shottake>
												<lognote></lognote>
											</logginginfo>
											<labels>
												<label2>Iris</label2>
											</labels>
										</clipitem>
										<enabled>TRUE</enabled>
										<locked>FALSE</locked>
									</track>
								</video>
								<audio>
									<numOutputChannels>4</numOutputChannels>
									<format>
										<samplecharacteristics>
											<depth>16</depth>
											<samplerate>48000</samplerate>
										</samplecharacteristics>
									</format>
									<outputs>
										<group>
											<index>1</index>
											<numchannels>1</numchannels>
											<downmix>0</downmix>
											<channel>
												<index>1</index>
											</channel>
										</group>
										<group>
											<index>2</index>
											<numchannels>1</numchannels>
											<downmix>0</downmix>
											<channel>
												<index>2</index>
											</channel>
										</group>
										<group>
											<index>3</index>
											<numchannels>1</numchannels>
											<downmix>0</downmix>
											<channel>
												<index>3</index>
											</channel>
										</group>
										<group>
											<index>4</index>
											<numchannels>1</numchannels>
											<downmix>0</downmix>
											<channel>
												<index>4</index>
											</channel>
										</group>
									</outputs>
									<track TL.SQTrackAudioKeyframeStyle="0" TL.SQTrackShy="0" TL.SQTrackExpandedHeight="25" TL.SQTrackExpanded="1" MZ.TrackTargeted="1" PannerCurrentValue="0" PannerIsInverted="true" PannerStartKeyframe="-91445760000000000,0.,0,0,0,0,0,0" PannerName="Balance" currentExplodedTrackIndex="0" totalExplodedTrackCount="1" premiereTrackType="Stereo">
										<clipitem id="clipitem-563" premiereChannelType="mono">
											<masterclipid>masterclip-141</masterclipid>
											<name>WHATS01T10.WAV</name>
											<enabled>TRUE</enabled>
											<duration>23824</duration>
											<rate>
												<timebase>25</timebase>
												<ntsc>FALSE</ntsc>
											</rate>
											<start>0</start>
											<end>23823</end>
											<in>1</in>
											<out>23824</out>
											<pproTicksIn>10160640000</pproTicksIn>
											<pproTicksOut>242067087360000</pproTicksOut>
											<file id="file-127">
												<name>WHATS01T10.WAV</name>
												<pathurl>file://localhost/Volumes/Bingen/Prosjekter/MYNT194016%20WHATS%20COOKING/Media/Episode%2004%20Vold/Episode-opptak/05042016/LYD/WHATS01T10.WAV</pathurl>
												<rate>
													<timebase>30</timebase>
													<ntsc>TRUE</ntsc>
												</rate>
												<duration>28561</duration>
												<timecode>
													<rate>
														<timebase>30</timebase>
														<ntsc>TRUE</ntsc>
													</rate>
													<string>12;15;06;02</string>
													<frame>1321858</frame>
													<displayformat>DF</displayformat>
													<reel>
														<name>WHATS</name>
													</reel>
												</timecode>
												<media>
													<audio>
														<samplecharacteristics>
															<depth>16</depth>
															<samplerate>48000</samplerate>
														</samplecharacteristics>
														<channelcount>1</channelcount>
														<audiochannel>
															<sourcechannel>1</sourcechannel>
														</audiochannel>
													</audio>
													<audio>
														<samplecharacteristics>
															<depth>16</depth>
															<samplerate>48000</samplerate>
														</samplecharacteristics>
														<channelcount>1</channelcount>
														<audiochannel>
															<sourcechannel>2</sourcechannel>
														</audiochannel>
													</audio>
													<audio>
														<samplecharacteristics>
															<depth>16</depth>
															<samplerate>48000</samplerate>
														</samplecharacteristics>
														<channelcount>1</channelcount>
														<audiochannel>
															<sourcechannel>3</sourcechannel>
														</audiochannel>
													</audio>
													<audio>
														<samplecharacteristics>
															<depth>16</depth>
															<samplerate>48000</samplerate>
														</samplecharacteristics>
														<channelcount>1</channelcount>
														<audiochannel>
															<sourcechannel>4</sourcechannel>
														</audiochannel>
													</audio>
												</media>
											</file>
											<sourcetrack>
												<mediatype>audio</mediatype>
												<trackindex>1</trackindex>
											</sourcetrack>
											<link>
												<linkclipref>clipitem-563</linkclipref>
												<mediatype>audio</mediatype>
												<trackindex>1</trackindex>
												<clipindex>1</clipindex>
												<groupindex>1</groupindex>
											</link>
											<link>
												<linkclipref>clipitem-564</linkclipref>
												<mediatype>audio</mediatype>
												<trackindex>2</trackindex>
												<clipindex>1</clipindex>
												<groupindex>1</groupindex>
											</link>
											<link>
												<linkclipref>clipitem-565</linkclipref>
												<mediatype>audio</mediatype>
												<trackindex>3</trackindex>
												<clipindex>1</clipindex>
												<groupindex>1</groupindex>
											</link>
											<link>
												<linkclipref>clipitem-566</linkclipref>
												<mediatype>audio</mediatype>
												<trackindex>4</trackindex>
												<clipindex>1</clipindex>
												<groupindex>1</groupindex>
											</link>
											<logginginfo>
												<description>Stikk 1 T03</description>
												<scene>WHATS01</scene>
												<shottake></shottake>
												<lognote></lognote>
											</logginginfo>
											<labels>
												<label2>Caribbean</label2>
											</labels>
										</clipitem>
										<enabled>TRUE</enabled>
										<locked>FALSE</locked>
										<outputchannelindex>1</outputchannelindex>
									</track>
									<track TL.SQTrackAudioKeyframeStyle="0" TL.SQTrackShy="0" TL.SQTrackExpandedHeight="25" TL.SQTrackExpanded="1" MZ.TrackTargeted="1" PannerIsInverted="true" PannerName="Balance" currentExplodedTrackIndex="0" totalExplodedTrackCount="1" premiereTrackType="Stereo">
										<clipitem id="clipitem-564" premiereChannelType="mono">
											<masterclipid>masterclip-141</masterclipid>
											<name>WHATS01T10.WAV</name>
											<enabled>TRUE</enabled>
											<duration>23824</duration>
											<rate>
												<timebase>25</timebase>
												<ntsc>FALSE</ntsc>
											</rate>
											<start>0</start>
											<end>23823</end>
											<in>1</in>
											<out>23824</out>
											<pproTicksIn>10160640000</pproTicksIn>
											<pproTicksOut>242067087360000</pproTicksOut>
											<file id="file-127"/>
											<sourcetrack>
												<mediatype>audio</mediatype>
												<trackindex>2</trackindex>
											</sourcetrack>
											<link>
												<linkclipref>clipitem-563</linkclipref>
												<mediatype>audio</mediatype>
												<trackindex>1</trackindex>
												<clipindex>1</clipindex>
												<groupindex>1</groupindex>
											</link>
											<link>
												<linkclipref>clipitem-564</linkclipref>
												<mediatype>audio</mediatype>
												<trackindex>2</trackindex>
												<clipindex>1</clipindex>
												<groupindex>1</groupindex>
											</link>
											<link>
												<linkclipref>clipitem-565</linkclipref>
												<mediatype>audio</mediatype>
												<trackindex>3</trackindex>
												<clipindex>1</clipindex>
												<groupindex>1</groupindex>
											</link>
											<link>
												<linkclipref>clipitem-566</linkclipref>
												<mediatype>audio</mediatype>
												<trackindex>4</trackindex>
												<clipindex>1</clipindex>
												<groupindex>1</groupindex>
											</link>
											<logginginfo>
												<description>Stikk 1 T03</description>
												<scene>WHATS01</scene>
												<shottake></shottake>
												<lognote></lognote>
											</logginginfo>
											<labels>
												<label2>Caribbean</label2>
											</labels>
										</clipitem>
										<enabled>TRUE</enabled>
										<locked>FALSE</locked>
										<outputchannelindex>2</outputchannelindex>
									</track>
									<track TL.SQTrackAudioKeyframeStyle="0" TL.SQTrackShy="0" TL.SQTrackExpandedHeight="25" TL.SQTrackExpanded="1" MZ.TrackTargeted="1" PannerCurrentValue="0" PannerIsInverted="true" PannerStartKeyframe="-91445760000000000,0.,0,0,0,0,0,0" PannerName="Balance" currentExplodedTrackIndex="0" totalExplodedTrackCount="1" premiereTrackType="Stereo">
										<clipitem id="clipitem-565" premiereChannelType="mono">
											<masterclipid>masterclip-141</masterclipid>
											<name>WHATS01T10.WAV</name>
											<enabled>TRUE</enabled>
											<duration>23824</duration>
											<rate>
												<timebase>25</timebase>
												<ntsc>FALSE</ntsc>
											</rate>
											<start>0</start>
											<end>23823</end>
											<in>1</in>
											<out>23824</out>
											<pproTicksIn>10160640000</pproTicksIn>
											<pproTicksOut>242067087360000</pproTicksOut>
											<file id="file-127"/>
											<sourcetrack>
												<mediatype>audio</mediatype>
												<trackindex>3</trackindex>
											</sourcetrack>
											<link>
												<linkclipref>clipitem-563</linkclipref>
												<mediatype>audio</mediatype>
												<trackindex>1</trackindex>
												<clipindex>1</clipindex>
												<groupindex>1</groupindex>
											</link>
											<link>
												<linkclipref>clipitem-564</linkclipref>
												<mediatype>audio</mediatype>
												<trackindex>2</trackindex>
												<clipindex>1</clipindex>
												<groupindex>1</groupindex>
											</link>
											<link>
												<linkclipref>clipitem-565</linkclipref>
												<mediatype>audio</mediatype>
												<trackindex>3</trackindex>
												<clipindex>1</clipindex>
												<groupindex>1</groupindex>
											</link>
											<link>
												<linkclipref>clipitem-566</linkclipref>
												<mediatype>audio</mediatype>
												<trackindex>4</trackindex>
												<clipindex>1</clipindex>
												<groupindex>1</groupindex>
											</link>
											<logginginfo>
												<description>Stikk 1 T03</description>
												<scene>WHATS01</scene>
												<shottake></shottake>
												<lognote></lognote>
											</logginginfo>
											<labels>
												<label2>Caribbean</label2>
											</labels>
										</clipitem>
										<enabled>TRUE</enabled>
										<locked>FALSE</locked>
										<outputchannelindex>3</outputchannelindex>
									</track>
									<track TL.SQTrackAudioKeyframeStyle="0" TL.SQTrackShy="0" TL.SQTrackExpandedHeight="25" TL.SQTrackExpanded="1" MZ.TrackTargeted="1" PannerIsInverted="true" PannerName="Balance" currentExplodedTrackIndex="0" totalExplodedTrackCount="1" premiereTrackType="Stereo">
										<clipitem id="clipitem-566" premiereChannelType="mono">
											<masterclipid>masterclip-141</masterclipid>
											<name>WHATS01T10.WAV</name>
											<enabled>TRUE</enabled>
											<duration>23824</duration>
											<rate>
												<timebase>25</timebase>
												<ntsc>FALSE</ntsc>
											</rate>
											<start>0</start>
											<end>23823</end>
											<in>1</in>
											<out>23824</out>
											<pproTicksIn>10160640000</pproTicksIn>
											<pproTicksOut>242067087360000</pproTicksOut>
											<file id="file-127"/>
											<sourcetrack>
												<mediatype>audio</mediatype>
												<trackindex>4</trackindex>
											</sourcetrack>
											<link>
												<linkclipref>clipitem-563</linkclipref>
												<mediatype>audio</mediatype>
												<trackindex>1</trackindex>
												<clipindex>1</clipindex>
												<groupindex>1</groupindex>
											</link>
											<link>
												<linkclipref>clipitem-564</linkclipref>
												<mediatype>audio</mediatype>
												<trackindex>2</trackindex>
												<clipindex>1</clipindex>
												<groupindex>1</groupindex>
											</link>
											<link>
												<linkclipref>clipitem-565</linkclipref>
												<mediatype>audio</mediatype>
												<trackindex>3</trackindex>
												<clipindex>1</clipindex>
												<groupindex>1</groupindex>
											</link>
											<link>
												<linkclipref>clipitem-566</linkclipref>
												<mediatype>audio</mediatype>
												<trackindex>4</trackindex>
												<clipindex>1</clipindex>
												<groupindex>1</groupindex>
											</link>
											<logginginfo>
												<description>Stikk 1 T03</description>
												<scene>WHATS01</scene>
												<shottake></shottake>
												<lognote></lognote>
											</logginginfo>
											<labels>
												<label2>Caribbean</label2>
											</labels>
										</clipitem>
										<enabled>TRUE</enabled>
										<locked>FALSE</locked>
										<outputchannelindex>4</outputchannelindex>
									</track>
									<track TL.SQTrackAudioKeyframeStyle="0" TL.SQTrackShy="0" TL.SQTrackExpandedHeight="25" TL.SQTrackExpanded="1" MZ.TrackTargeted="0" PannerCurrentValue="0.5" PannerIsInverted="true" PannerStartKeyframe="-91445760000000000,0.5,0,0,0,0,0,0" PannerName="Balance" currentExplodedTrackIndex="0" totalExplodedTrackCount="1" premiereTrackType="Stereo">
										<clipitem id="clipitem-567" premiereChannelType="mono">
											<masterclipid>masterclip-137</masterclipid>
											<name>Clip0008.mov</name>
											<enabled>TRUE</enabled>
											<duration>23844</duration>
											<rate>
												<timebase>25</timebase>
												<ntsc>FALSE</ntsc>
											</rate>
											<start>0</start>
											<end>23814</end>
											<in>30</in>
											<out>23844</out>
											<pproTicksIn>304819200000</pproTicksIn>
											<pproTicksOut>242270300160000</pproTicksOut>
											<file id="file-123"/>
											<sourcetrack>
												<mediatype>audio</mediatype>
												<trackindex>1</trackindex>
											</sourcetrack>
											<link>
												<linkclipref>clipitem-559</linkclipref>
												<mediatype>video</mediatype>
												<trackindex>1</trackindex>
												<clipindex>1</clipindex>
											</link>
											<link>
												<linkclipref>clipitem-567</linkclipref>
												<mediatype>audio</mediatype>
												<trackindex>5</trackindex>
												<clipindex>1</clipindex>
												<groupindex>1</groupindex>
											</link>
											<link>
												<linkclipref>clipitem-568</linkclipref>
												<mediatype>audio</mediatype>
												<trackindex>6</trackindex>
												<clipindex>1</clipindex>
												<groupindex>1</groupindex>
											</link>
											<logginginfo>
												<description>Stikk 1 T03</description>
												<scene></scene>
												<shottake></shottake>
												<lognote></lognote>
											</logginginfo>
											<labels>
												<label2>Iris</label2>
											</labels>
										</clipitem>
										<enabled>FALSE</enabled>
										<locked>FALSE</locked>
										<outputchannelindex>1</outputchannelindex>
									</track>
									<track TL.SQTrackAudioKeyframeStyle="0" TL.SQTrackShy="0" TL.SQTrackExpandedHeight="25" TL.SQTrackExpanded="1" MZ.TrackTargeted="0" PannerCurrentValue="0.5" PannerIsInverted="true" PannerStartKeyframe="-91445760000000000,0.5,0,0,0,0,0,0" PannerName="Balance" currentExplodedTrackIndex="0" totalExplodedTrackCount="1" premiereTrackType="Stereo">
										<clipitem id="clipitem-568" premiereChannelType="mono">
											<masterclipid>masterclip-137</masterclipid>
											<name>Clip0008.mov</name>
											<enabled>TRUE</enabled>
											<duration>23844</duration>
											<rate>
												<timebase>25</timebase>
												<ntsc>FALSE</ntsc>
											</rate>
											<start>0</start>
											<end>23814</end>
											<in>30</in>
											<out>23844</out>
											<pproTicksIn>304819200000</pproTicksIn>
											<pproTicksOut>242270300160000</pproTicksOut>
											<file id="file-123"/>
											<sourcetrack>
												<mediatype>audio</mediatype>
												<trackindex>1</trackindex>
											</sourcetrack>
											<link>
												<linkclipref>clipitem-559</linkclipref>
												<mediatype>video</mediatype>
												<trackindex>1</trackindex>
												<clipindex>1</clipindex>
											</link>
											<link>
												<linkclipref>clipitem-567</linkclipref>
												<mediatype>audio</mediatype>
												<trackindex>5</trackindex>
												<clipindex>1</clipindex>
												<groupindex>1</groupindex>
											</link>
											<link>
												<linkclipref>clipitem-568</linkclipref>
												<mediatype>audio</mediatype>
												<trackindex>6</trackindex>
												<clipindex>1</clipindex>
												<groupindex>1</groupindex>
											</link>
											<logginginfo>
												<description>Stikk 1 T03</description>
												<scene></scene>
												<shottake></shottake>
												<lognote></lognote>
											</logginginfo>
											<labels>
												<label2>Iris</label2>
											</labels>
										</clipitem>
										<enabled>FALSE</enabled>
										<locked>FALSE</locked>
										<outputchannelindex>2</outputchannelindex>
									</track>
									<track TL.SQTrackAudioKeyframeStyle="0" TL.SQTrackShy="0" TL.SQTrackExpandedHeight="25" TL.SQTrackExpanded="1" MZ.TrackTargeted="0" PannerCurrentValue="0.5" PannerIsInverted="true" PannerStartKeyframe="-91445760000000000,0.5,0,0,0,0,0,0" PannerName="Balance" currentExplodedTrackIndex="0" totalExplodedTrackCount="1" premiereTrackType="Stereo">
										<clipitem id="clipitem-569" premiereChannelType="mono">
											<masterclipid>masterclip-138</masterclipid>
											<name>Clip0004.mov</name>
											<enabled>TRUE</enabled>
											<duration>23892</duration>
											<rate>
												<timebase>25</timebase>
												<ntsc>FALSE</ntsc>
											</rate>
											<start>0</start>
											<end>23832</end>
											<in>60</in>
											<out>23892</out>
											<pproTicksIn>609638400000</pproTicksIn>
											<pproTicksOut>242758010880000</pproTicksOut>
											<file id="file-124"/>
											<sourcetrack>
												<mediatype>audio</mediatype>
												<trackindex>1</trackindex>
											</sourcetrack>
											<link>
												<linkclipref>clipitem-560</linkclipref>
												<mediatype>video</mediatype>
												<trackindex>2</trackindex>
												<clipindex>1</clipindex>
											</link>
											<link>
												<linkclipref>clipitem-569</linkclipref>
												<mediatype>audio</mediatype>
												<trackindex>7</trackindex>
												<clipindex>1</clipindex>
												<groupindex>1</groupindex>
											</link>
											<link>
												<linkclipref>clipitem-570</linkclipref>
												<mediatype>audio</mediatype>
												<trackindex>8</trackindex>
												<clipindex>1</clipindex>
												<groupindex>1</groupindex>
											</link>
											<logginginfo>
												<description>Stikk 1 T03</description>
												<scene></scene>
												<shottake></shottake>
												<lognote></lognote>
											</logginginfo>
											<labels>
												<label2>Iris</label2>
											</labels>
										</clipitem>
										<enabled>FALSE</enabled>
										<locked>FALSE</locked>
										<outputchannelindex>1</outputchannelindex>
									</track>
									<track TL.SQTrackAudioKeyframeStyle="0" TL.SQTrackShy="0" TL.SQTrackExpandedHeight="25" TL.SQTrackExpanded="1" MZ.TrackTargeted="0" PannerCurrentValue="0.5" PannerIsInverted="true" PannerStartKeyframe="-91445760000000000,0.5,0,0,0,0,0,0" PannerName="Balance" currentExplodedTrackIndex="0" totalExplodedTrackCount="1" premiereTrackType="Stereo">
										<clipitem id="clipitem-570" premiereChannelType="mono">
											<masterclipid>masterclip-138</masterclipid>
											<name>Clip0004.mov</name>
											<enabled>TRUE</enabled>
											<duration>23892</duration>
											<rate>
												<timebase>25</timebase>
												<ntsc>FALSE</ntsc>
											</rate>
											<start>0</start>
											<end>23832</end>
											<in>60</in>
											<out>23892</out>
											<pproTicksIn>609638400000</pproTicksIn>
											<pproTicksOut>242758010880000</pproTicksOut>
											<file id="file-124"/>
											<sourcetrack>
												<mediatype>audio</mediatype>
												<trackindex>1</trackindex>
											</sourcetrack>
											<link>
												<linkclipref>clipitem-560</linkclipref>
												<mediatype>video</mediatype>
												<trackindex>2</trackindex>
												<clipindex>1</clipindex>
											</link>
											<link>
												<linkclipref>clipitem-569</linkclipref>
												<mediatype>audio</mediatype>
												<trackindex>7</trackindex>
												<clipindex>1</clipindex>
												<groupindex>1</groupindex>
											</link>
											<link>
												<linkclipref>clipitem-570</linkclipref>
												<mediatype>audio</mediatype>
												<trackindex>8</trackindex>
												<clipindex>1</clipindex>
												<groupindex>1</groupindex>
											</link>
											<logginginfo>
												<description>Stikk 1 T03</description>
												<scene></scene>
												<shottake></shottake>
												<lognote></lognote>
											</logginginfo>
											<labels>
												<label2>Iris</label2>
											</labels>
										</clipitem>
										<enabled>FALSE</enabled>
										<locked>FALSE</locked>
										<outputchannelindex>2</outputchannelindex>
									</track>
									<track TL.SQTrackAudioKeyframeStyle="0" TL.SQTrackShy="0" TL.SQTrackExpandedHeight="25" TL.SQTrackExpanded="1" MZ.TrackTargeted="0" PannerCurrentValue="0.5" PannerIsInverted="true" PannerStartKeyframe="-91445760000000000,0.5,0,0,0,0,0,0" PannerName="Balance" currentExplodedTrackIndex="0" totalExplodedTrackCount="1" premiereTrackType="Stereo">
										<clipitem id="clipitem-571" premiereChannelType="mono">
											<masterclipid>masterclip-139</masterclipid>
											<name>Clip0003.mov</name>
											<enabled>TRUE</enabled>
											<duration>23616</duration>
											<rate>
												<timebase>25</timebase>
												<ntsc>FALSE</ntsc>
											</rate>
											<start>0</start>
											<end>23609</end>
											<in>7</in>
											<out>23616</out>
											<pproTicksIn>71124480000</pproTicksIn>
											<pproTicksOut>239953674240000</pproTicksOut>
											<file id="file-125"/>
											<sourcetrack>
												<mediatype>audio</mediatype>
												<trackindex>1</trackindex>
											</sourcetrack>
											<link>
												<linkclipref>clipitem-561</linkclipref>
												<mediatype>video</mediatype>
												<trackindex>3</trackindex>
												<clipindex>1</clipindex>
											</link>
											<link>
												<linkclipref>clipitem-571</linkclipref>
												<mediatype>audio</mediatype>
												<trackindex>9</trackindex>
												<clipindex>1</clipindex>
												<groupindex>1</groupindex>
											</link>
											<link>
												<linkclipref>clipitem-572</linkclipref>
												<mediatype>audio</mediatype>
												<trackindex>10</trackindex>
												<clipindex>1</clipindex>
												<groupindex>1</groupindex>
											</link>
											<logginginfo>
												<description>Stikk 1 T03</description>
												<scene></scene>
												<shottake></shottake>
												<lognote></lognote>
											</logginginfo>
											<labels>
												<label2>Iris</label2>
											</labels>
										</clipitem>
										<enabled>FALSE</enabled>
										<locked>FALSE</locked>
										<outputchannelindex>1</outputchannelindex>
									</track>
									<track TL.SQTrackAudioKeyframeStyle="0" TL.SQTrackShy="0" TL.SQTrackExpandedHeight="25" TL.SQTrackExpanded="1" MZ.TrackTargeted="0" PannerCurrentValue="0.5" PannerIsInverted="true" PannerStartKeyframe="-91445760000000000,0.5,0,0,0,0,0,0" PannerName="Balance" currentExplodedTrackIndex="0" totalExplodedTrackCount="1" premiereTrackType="Stereo">
										<clipitem id="clipitem-572" premiereChannelType="mono">
											<masterclipid>masterclip-139</masterclipid>
											<name>Clip0003.mov</name>
											<enabled>TRUE</enabled>
											<duration>23616</duration>
											<rate>
												<timebase>25</timebase>
												<ntsc>FALSE</ntsc>
											</rate>
											<start>0</start>
											<end>23609</end>
											<in>7</in>
											<out>23616</out>
											<pproTicksIn>71124480000</pproTicksIn>
											<pproTicksOut>239953674240000</pproTicksOut>
											<file id="file-125"/>
											<sourcetrack>
												<mediatype>audio</mediatype>
												<trackindex>1</trackindex>
											</sourcetrack>
											<link>
												<linkclipref>clipitem-561</linkclipref>
												<mediatype>video</mediatype>
												<trackindex>3</trackindex>
												<clipindex>1</clipindex>
											</link>
											<link>
												<linkclipref>clipitem-571</linkclipref>
												<mediatype>audio</mediatype>
												<trackindex>9</trackindex>
												<clipindex>1</clipindex>
												<groupindex>1</groupindex>
											</link>
											<link>
												<linkclipref>clipitem-572</linkclipref>
												<mediatype>audio</mediatype>
												<trackindex>10</trackindex>
												<clipindex>1</clipindex>
												<groupindex>1</groupindex>
											</link>
											<logginginfo>
												<description>Stikk 1 T03</description>
												<scene></scene>
												<shottake></shottake>
												<lognote></lognote>
											</logginginfo>
											<labels>
												<label2>Iris</label2>
											</labels>
										</clipitem>
										<enabled>FALSE</enabled>
										<locked>FALSE</locked>
										<outputchannelindex>2</outputchannelindex>
									</track>
									<track TL.SQTrackAudioKeyframeStyle="0" TL.SQTrackShy="0" TL.SQTrackExpandedHeight="25" TL.SQTrackExpanded="1" MZ.TrackTargeted="0" PannerCurrentValue="0.5" PannerIsInverted="true" PannerStartKeyframe="-91445760000000000,0.5,0,0,0,0,0,0" PannerName="Balance" currentExplodedTrackIndex="0" totalExplodedTrackCount="1" premiereTrackType="Stereo">
										<clipitem id="clipitem-573" premiereChannelType="mono">
											<masterclipid>masterclip-140</masterclipid>
											<name>A021C003_14012917.mov</name>
											<enabled>TRUE</enabled>
											<duration>24034</duration>
											<rate>
												<timebase>25</timebase>
												<ntsc>FALSE</ntsc>
											</rate>
											<start>0</start>
											<end>23882</end>
											<in>152</in>
											<out>24034</out>
											<pproTicksIn>1544417280000</pproTicksIn>
											<pproTicksOut>244200821760000</pproTicksOut>
											<file id="file-126"/>
											<sourcetrack>
												<mediatype>audio</mediatype>
												<trackindex>1</trackindex>
											</sourcetrack>
											<link>
												<linkclipref>clipitem-562</linkclipref>
												<mediatype>video</mediatype>
												<trackindex>4</trackindex>
												<clipindex>1</clipindex>
											</link>
											<link>
												<linkclipref>clipitem-573</linkclipref>
												<mediatype>audio</mediatype>
												<trackindex>11</trackindex>
												<clipindex>1</clipindex>
												<groupindex>1</groupindex>
											</link>
											<link>
												<linkclipref>clipitem-574</linkclipref>
												<mediatype>audio</mediatype>
												<trackindex>12</trackindex>
												<clipindex>1</clipindex>
												<groupindex>1</groupindex>
											</link>
											<logginginfo>
												<description>Stikk 1 T03</description>
												<scene></scene>
												<shottake></shottake>
												<lognote></lognote>
											</logginginfo>
											<labels>
												<label2>Iris</label2>
											</labels>
										</clipitem>
										<enabled>FALSE</enabled>
										<locked>FALSE</locked>
										<outputchannelindex>1</outputchannelindex>
									</track>
									<track TL.SQTrackAudioKeyframeStyle="0" TL.SQTrackShy="0" TL.SQTrackExpandedHeight="25" TL.SQTrackExpanded="1" MZ.TrackTargeted="0" PannerCurrentValue="0.5" PannerIsInverted="true" PannerStartKeyframe="-91445760000000000,0.5,0,0,0,0,0,0" PannerName="Balance" currentExplodedTrackIndex="0" totalExplodedTrackCount="1" premiereTrackType="Stereo">
										<clipitem id="clipitem-574" premiereChannelType="mono">
											<masterclipid>masterclip-140</masterclipid>
											<name>A021C003_14012917.mov</name>
											<enabled>TRUE</enabled>
											<duration>24034</duration>
											<rate>
												<timebase>25</timebase>
												<ntsc>FALSE</ntsc>
											</rate>
											<start>0</start>
											<end>23882</end>
											<in>152</in>
											<out>24034</out>
											<pproTicksIn>1544417280000</pproTicksIn>
											<pproTicksOut>244200821760000</pproTicksOut>
											<file id="file-126"/>
											<sourcetrack>
												<mediatype>audio</mediatype>
												<trackindex>1</trackindex>
											</sourcetrack>
											<link>
												<linkclipref>clipitem-562</linkclipref>
												<mediatype>video</mediatype>
												<trackindex>4</trackindex>
												<clipindex>1</clipindex>
											</link>
											<link>
												<linkclipref>clipitem-573</linkclipref>
												<mediatype>audio</mediatype>
												<trackindex>11</trackindex>
												<clipindex>1</clipindex>
												<groupindex>1</groupindex>
											</link>
											<link>
												<linkclipref>clipitem-574</linkclipref>
												<mediatype>audio</mediatype>
												<trackindex>12</trackindex>
												<clipindex>1</clipindex>
												<groupindex>1</groupindex>
											</link>
											<logginginfo>
												<description>Stikk 1 T03</description>
												<scene></scene>
												<shottake></shottake>
												<lognote></lognote>
											</logginginfo>
											<labels>
												<label2>Iris</label2>
											</labels>
										</clipitem>
										<enabled>FALSE</enabled>
										<locked>FALSE</locked>
										<outputchannelindex>2</outputchannelindex>
									</track>
								</audio>
							</media>
							<timecode>
								<rate>
									<timebase>25</timebase>
									<ntsc>FALSE</ntsc>
								</rate>
								<string>12:15:06:01</string>
								<frame>1102651</frame>
								<displayformat>NDF</displayformat>
							</timecode>
								<marker>
									<comment></comment>
									<name></name>
									<in>1527</in>
									<out>-1</out>
								</marker>
						</sequence>
							<filter>
								<effect>
									<name>Gain</name>
									<effectid>{61756678, 4761696e, 4b657947}</effectid>
									<effecttype>filter</effecttype>
									<mediatype>audio</mediatype>
									<parameter authoringApp="PremierePro">
										<parameterid>Gain(dB)</parameterid>
										<name>Gain(dB)</name>
										<valuemin>-96</valuemin>
										<valuemax>96</valuemax>
										<value>17</value>
									</parameter>
								</effect>
							</filter>
							<filter>
								<effect>
									<name>Audio Levels</name>
									<effectid>audiolevels</effectid>
									<effectcategory>audiolevels</effectcategory>
									<effecttype>audiolevels</effecttype>
									<mediatype>audio</mediatype>
									<parameter authoringApp="PremierePro">
										<parameterid>level</parameterid>
										<name>Level</name>
										<valuemin>0</valuemin>
										<valuemax>3.98109</valuemax>
										<value>1.01088e-06</value>
									</parameter>
								</effect>
							</filter>
						<link>
							<linkclipref>clipitem-558</linkclipref>
							<mediatype>audio</mediatype>
							<trackindex>9</trackindex>
							<clipindex>12</clipindex>
							<groupindex>1</groupindex>
						</link>
						<link>
							<linkclipref>clipitem-630</linkclipref>
							<mediatype>audio</mediatype>
							<trackindex>11</trackindex>
							<clipindex>9</clipindex>
							<groupindex>1</groupindex>
						</link>
						<labels>
							<label2>Forest</label2>
						</labels>
					</clipitem>
					<clipitem id="clipitem-575" premiereChannelType="stereo">
						<masterclipid>masterclip-142</masterclipid>
						<name>128969__driftworks__bowling-ball.wav</name>
						<enabled>TRUE</enabled>
						<duration>110</duration>
						<rate>
							<timebase>25</timebase>
							<ntsc>FALSE</ntsc>
						</rate>
						<start>5197</start>
						<end>5242</end>
						<in>0</in>
						<out>45</out>
						<pproTicksIn>0</pproTicksIn>
						<pproTicksOut>457228800000</pproTicksOut>
						<file id="file-128">
							<name>128969__driftworks__bowling-ball.wav</name>
							<pathurl>file://localhost/Volumes/Bingen/Prosjekter/MYNT194016%20WHATS%20COOKING/Lydeffekter/Jan%20Lydeffekter/128969__driftworks__bowling-ball.wav</pathurl>
							<rate>
								<timebase>30</timebase>
								<ntsc>TRUE</ntsc>
							</rate>
							<duration>132</duration>
							<timecode>
								<rate>
									<timebase>30</timebase>
									<ntsc>TRUE</ntsc>
								</rate>
								<string>00;00;00;00</string>
								<frame>0</frame>
								<displayformat>DF</displayformat>
								<reel>
									<name></name>
								</reel>
							</timecode>
							<media>
								<audio>
									<samplecharacteristics>
										<depth>16</depth>
										<samplerate>48000</samplerate>
									</samplecharacteristics>
									<channelcount>2</channelcount>
								</audio>
							</media>
						</file>
						<sourcetrack>
							<mediatype>audio</mediatype>
							<trackindex>1</trackindex>
						</sourcetrack>
							<filter>
								<effect>
									<name>Gain</name>
									<effectid>{61756678, 4761696e, 4b657947}</effectid>
									<effecttype>filter</effecttype>
									<mediatype>audio</mediatype>
									<parameter authoringApp="PremierePro">
										<parameterid>Gain(dB)</parameterid>
										<name>Gain(dB)</name>
										<valuemin>-96</valuemin>
										<valuemax>96</valuemax>
										<value>-10</value>
									</parameter>
								</effect>
							</filter>
						<link>
							<linkclipref>clipitem-575</linkclipref>
							<mediatype>audio</mediatype>
							<trackindex>9</trackindex>
							<clipindex>13</clipindex>
							<groupindex>1</groupindex>
						</link>
						<link>
							<linkclipref>clipitem-618</linkclipref>
							<mediatype>audio</mediatype>
							<trackindex>10</trackindex>
							<clipindex>10</clipindex>
							<groupindex>1</groupindex>
						</link>
						<logginginfo>
							<description></description>
							<scene></scene>
							<shottake></shottake>
							<lognote></lognote>
						</logginginfo>
						<labels>
							<label2>Caribbean</label2>
						</labels>
					</clipitem>
					<clipitem id="clipitem-576" premiereChannelType="mono">
						<masterclipid>masterclip-143</masterclipid>
						<name>XLYDKJEGLT18.WAV</name>
						<enabled>TRUE</enabled>
						<duration>1974</duration>
						<rate>
							<timebase>25</timebase>
							<ntsc>FALSE</ntsc>
						</rate>
						<start>7414</start>
						<end>7649</end>
						<in>896</in>
						<out>1131</out>
						<pproTicksIn>9103933440000</pproTicksIn>
						<pproTicksOut>11491683840000</pproTicksOut>
						<file id="file-129">
							<name>XLYDKJEGLT18.WAV</name>
							<pathurl>file://localhost/Volumes/Bingen/Prosjekter/MYNT194016%20WHATS%20COOKING/Media/Episode%2004%20Vold/Episode-opptak/05042016/LYD/XLYDKJEGLT18.WAV</pathurl>
							<rate>
								<timebase>30</timebase>
								<ntsc>TRUE</ntsc>
							</rate>
							<duration>2367</duration>
							<timecode>
								<rate>
									<timebase>30</timebase>
									<ntsc>TRUE</ntsc>
								</rate>
								<string>13;16;44;01</string>
								<frame>1432687</frame>
								<displayformat>DF</displayformat>
								<reel>
									<name>WHATS</name>
								</reel>
							</timecode>
							<media>
								<audio>
									<samplecharacteristics>
										<depth>16</depth>
										<samplerate>48000</samplerate>
									</samplecharacteristics>
									<channelcount>1</channelcount>
									<audiochannel>
										<sourcechannel>1</sourcechannel>
									</audiochannel>
								</audio>
								<audio>
									<samplecharacteristics>
										<depth>16</depth>
										<samplerate>48000</samplerate>
									</samplecharacteristics>
									<channelcount>1</channelcount>
									<audiochannel>
										<sourcechannel>2</sourcechannel>
									</audiochannel>
								</audio>
								<audio>
									<samplecharacteristics>
										<depth>16</depth>
										<samplerate>48000</samplerate>
									</samplecharacteristics>
									<channelcount>1</channelcount>
									<audiochannel>
										<sourcechannel>3</sourcechannel>
									</audiochannel>
								</audio>
								<audio>
									<samplecharacteristics>
										<depth>16</depth>
										<samplerate>48000</samplerate>
									</samplecharacteristics>
									<channelcount>1</channelcount>
									<audiochannel>
										<sourcechannel>4</sourcechannel>
									</audiochannel>
								</audio>
							</media>
						</file>
						<sourcetrack>
							<mediatype>audio</mediatype>
							<trackindex>1</trackindex>
						</sourcetrack>
						<logginginfo>
							<description>kjegler</description>
							<scene>XLYDKJEGL</scene>
							<shottake></shottake>
							<lognote></lognote>
						</logginginfo>
						<labels>
							<label2>Caribbean</label2>
						</labels>
					</clipitem>
					<clipitem id="clipitem-577" premiereChannelType="mono">
						<masterclipid>masterclip-144</masterclipid>
						<name>XLYDATMOST01.WAV</name>
						<enabled>TRUE</enabled>
						<duration>3549</duration>
						<rate>
							<timebase>25</timebase>
							<ntsc>FALSE</ntsc>
						</rate>
						<start>8791</start>
						<end>8876</end>
						<in>2101</in>
						<out>2186</out>
						<pproTicksIn>21347504640000</pproTicksIn>
						<pproTicksOut>22211159040000</pproTicksOut>
						<file id="file-130">
							<name>XLYDATMOST01.WAV</name>
							<pathurl>file://localhost/Volumes/Bingen/Prosjekter/MYNT194016%20WHATS%20COOKING/Media/Episode%2004%20Vold/Episode-opptak/05042016/LYD/XLYDATMOST01.WAV</pathurl>
							<rate>
								<timebase>30</timebase>
								<ntsc>TRUE</ntsc>
							</rate>
							<duration>4255</duration>
							<timecode>
								<rate>
									<timebase>30</timebase>
									<ntsc>TRUE</ntsc>
								</rate>
								<string>13;18;47;01</string>
								<frame>1436373</frame>
								<displayformat>DF</displayformat>
								<reel>
									<name>WHATS</name>
								</reel>
							</timecode>
							<media>
								<audio>
									<samplecharacteristics>
										<depth>16</depth>
										<samplerate>48000</samplerate>
									</samplecharacteristics>
									<channelcount>1</channelcount>
									<audiochannel>
										<sourcechannel>1</sourcechannel>
									</audiochannel>
								</audio>
								<audio>
									<samplecharacteristics>
										<depth>16</depth>
										<samplerate>48000</samplerate>
									</samplecharacteristics>
									<channelcount>1</channelcount>
									<audiochannel>
										<sourcechannel>2</sourcechannel>
									</audiochannel>
								</audio>
								<audio>
									<samplecharacteristics>
										<depth>16</depth>
										<samplerate>48000</samplerate>
									</samplecharacteristics>
									<channelcount>1</channelcount>
									<audiochannel>
										<sourcechannel>3</sourcechannel>
									</audiochannel>
								</audio>
								<audio>
									<samplecharacteristics>
										<depth>16</depth>
										<samplerate>48000</samplerate>
									</samplecharacteristics>
									<channelcount>1</channelcount>
									<audiochannel>
										<sourcechannel>4</sourcechannel>
									</audiochannel>
								</audio>
							</media>
						</file>
						<sourcetrack>
							<mediatype>audio</mediatype>
							<trackindex>1</trackindex>
						</sourcetrack>
							<filter>
								<effect>
									<name>Gain</name>
									<effectid>{61756678, 4761696e, 4b657947}</effectid>
									<effecttype>filter</effecttype>
									<mediatype>audio</mediatype>
									<parameter authoringApp="PremierePro">
										<parameterid>Gain(dB)</parameterid>
										<name>Gain(dB)</name>
										<valuemin>-96</valuemin>
										<valuemax>96</valuemax>
										<value>11</value>
									</parameter>
								</effect>
							</filter>
						<logginginfo>
							<description></description>
							<scene>XLYDATMOS</scene>
							<shottake></shottake>
							<lognote></lognote>
						</logginginfo>
						<labels>
							<label2>Caribbean</label2>
						</labels>
					</clipitem>
					<clipitem id="clipitem-578" premiereChannelType="stereo">
						<masterclipid>masterclip-145</masterclipid>
						<name>NONRE639242HD0002 Trust Me Danny.wav</name>
						<enabled>TRUE</enabled>
						<duration>6105</duration>
						<rate>
							<timebase>25</timebase>
							<ntsc>FALSE</ntsc>
						</rate>
						<start>13381</start>
						<end>-1</end>
						<in>0</in>
						<out>174</out>
						<pproTicksIn>0</pproTicksIn>
						<pproTicksOut>1767951360000</pproTicksOut>
						<file id="file-131">
							<name>NONRE639242HD0002 Trust Me Danny.wav</name>
							<pathurl>file://localhost/Volumes/Bingen/Prosjekter/MYNT194016%20WHATS%20COOKING/Musikk/Jan/DMA/NONRE639242HD0002%20Trust%20Me%20Danny.wav</pathurl>
							<rate>
								<timebase>30</timebase>
								<ntsc>TRUE</ntsc>
							</rate>
							<duration>7318</duration>
							<timecode>
								<rate>
									<timebase>30</timebase>
									<ntsc>TRUE</ntsc>
								</rate>
								<string>00;00;00;00</string>
								<frame>0</frame>
								<displayformat>DF</displayformat>
								<reel>
									<name></name>
								</reel>
							</timecode>
							<media>
								<audio>
									<samplecharacteristics>
										<depth>16</depth>
										<samplerate>48000</samplerate>
									</samplecharacteristics>
									<channelcount>2</channelcount>
								</audio>
							</media>
						</file>
						<sourcetrack>
							<mediatype>audio</mediatype>
							<trackindex>1</trackindex>
						</sourcetrack>
							<filter>
								<effect>
									<name>Gain</name>
									<effectid>{61756678, 4761696e, 4b657947}</effectid>
									<effecttype>filter</effecttype>
									<mediatype>audio</mediatype>
									<parameter authoringApp="PremierePro">
										<parameterid>Gain(dB)</parameterid>
										<name>Gain(dB)</name>
										<valuemin>-96</valuemin>
										<valuemax>96</valuemax>
										<value>-10</value>
									</parameter>
								</effect>
							</filter>
						<link>
							<linkclipref>clipitem-578</linkclipref>
							<mediatype>audio</mediatype>
							<trackindex>9</trackindex>
							<clipindex>16</clipindex>
							<groupindex>1</groupindex>
						</link>
						<link>
							<linkclipref>clipitem-619</linkclipref>
							<mediatype>audio</mediatype>
							<trackindex>10</trackindex>
							<clipindex>11</clipindex>
							<groupindex>1</groupindex>
						</link>
						<logginginfo>
							<description></description>
							<scene></scene>
							<shottake></shottake>
							<lognote></lognote>
						</logginginfo>
						<labels>
							<label2>Violet</label2>
						</labels>
					</clipitem>
					<transitionitem>
						<start>13542</start>
						<end>13555</end>
						<alignment>center</alignment>
						<cutPointTicks>60963840000</cutPointTicks>
						<rate>
							<timebase>25</timebase>
							<ntsc>FALSE</ntsc>
						</rate>
						<effect>
							<name>Cross Fade (+3dB)</name>
							<effectid>KGAudioTransCrossFade3dB</effectid>
							<effecttype>transition</effecttype>
							<mediatype>audio</mediatype>
							<wipecode>0</wipecode>
							<wipeaccuracy>100</wipeaccuracy>
							<startratio>0</startratio>
							<endratio>1</endratio>
							<reverse>FALSE</reverse>
						</effect>
					</transitionitem>
					<clipitem id="clipitem-579" premiereChannelType="stereo">
						<masterclipid>masterclip-145</masterclipid>
						<name>NONRE639242HD0002 Trust Me Danny.wav</name>
						<enabled>TRUE</enabled>
						<duration>6105</duration>
						<rate>
							<timebase>25</timebase>
							<ntsc>FALSE</ntsc>
						</rate>
						<start>-1</start>
						<end>-1</end>
						<in>161</in>
						<out>605</out>
						<pproTicksIn>1635863040000</pproTicksIn>
						<pproTicksOut>6147187200000</pproTicksOut>
						<file id="file-131"/>
						<sourcetrack>
							<mediatype>audio</mediatype>
							<trackindex>1</trackindex>
						</sourcetrack>
							<filter>
								<effect>
									<name>Gain</name>
									<effectid>{61756678, 4761696e, 4b657947}</effectid>
									<effecttype>filter</effecttype>
									<mediatype>audio</mediatype>
									<parameter authoringApp="PremierePro">
										<parameterid>Gain(dB)</parameterid>
										<name>Gain(dB)</name>
										<valuemin>-96</valuemin>
										<valuemax>96</valuemax>
										<value>-26</value>
									</parameter>
								</effect>
							</filter>
						<link>
							<linkclipref>clipitem-579</linkclipref>
							<mediatype>audio</mediatype>
							<trackindex>9</trackindex>
							<clipindex>18</clipindex>
							<groupindex>1</groupindex>
						</link>
						<link>
							<linkclipref>clipitem-620</linkclipref>
							<mediatype>audio</mediatype>
							<trackindex>10</trackindex>
							<clipindex>13</clipindex>
							<groupindex>1</groupindex>
						</link>
						<logginginfo>
							<description></description>
							<scene></scene>
							<shottake></shottake>
							<lognote></lognote>
						</logginginfo>
						<labels>
							<label2>Violet</label2>
						</labels>
					</clipitem>
					<transitionitem>
						<start>13721</start>
						<end>13986</end>
						<alignment>end-black</alignment>
						<cutPointTicks>2692569600000</cutPointTicks>
						<rate>
							<timebase>25</timebase>
							<ntsc>FALSE</ntsc>
						</rate>
						<effect>
							<name>Cross Fade (+3dB)</name>
							<effectid>KGAudioTransCrossFade3dB</effectid>
							<effecttype>transition</effecttype>
							<mediatype>audio</mediatype>
							<wipecode>0</wipecode>
							<wipeaccuracy>100</wipeaccuracy>
							<startratio>0</startratio>
							<endratio>1</endratio>
							<reverse>FALSE</reverse>
						</effect>
					</transitionitem>
					<clipitem id="clipitem-580" premiereChannelType="mono">
						<masterclipid>masterclip-143</masterclipid>
						<name>XLYDKJEGLT18.WAV</name>
						<enabled>TRUE</enabled>
						<duration>1974</duration>
						<rate>
							<timebase>25</timebase>
							<ntsc>FALSE</ntsc>
						</rate>
						<start>18650</start>
						<end>18805</end>
						<in>1292</in>
						<out>1447</out>
						<pproTicksIn>13127546880000</pproTicksIn>
						<pproTicksOut>14702446080000</pproTicksOut>
						<file id="file-129"/>
						<sourcetrack>
							<mediatype>audio</mediatype>
							<trackindex>1</trackindex>
						</sourcetrack>
							<filter>
								<effect>
									<name>Gain</name>
									<effectid>{61756678, 4761696e, 4b657947}</effectid>
									<effecttype>filter</effecttype>
									<mediatype>audio</mediatype>
									<parameter authoringApp="PremierePro">
										<parameterid>Gain(dB)</parameterid>
										<name>Gain(dB)</name>
										<valuemin>-96</valuemin>
										<valuemax>96</valuemax>
										<value>11</value>
									</parameter>
								</effect>
							</filter>
						<logginginfo>
							<description>kjegler</description>
							<scene>XLYDKJEGL</scene>
							<shottake></shottake>
							<lognote></lognote>
						</logginginfo>
						<labels>
							<label2>Caribbean</label2>
						</labels>
					</clipitem>
					<clipitem id="clipitem-581" premiereChannelType="stereo">
						<masterclipid>masterclip-146</masterclipid>
						<name>267887__wjl__short-fireball-woosh.wav</name>
						<enabled>TRUE</enabled>
						<duration>29</duration>
						<rate>
							<timebase>25</timebase>
							<ntsc>FALSE</ntsc>
						</rate>
						<start>19009</start>
						<end>19038</end>
						<in>0</in>
						<out>29</out>
						<pproTicksIn>0</pproTicksIn>
						<pproTicksOut>294658560000</pproTicksOut>
						<file id="file-132">
							<name>267887__wjl__short-fireball-woosh.wav</name>
							<pathurl>file://localhost/Volumes/Bingen/Prosjekter/MYNT194016%20WHATS%20COOKING/Lydeffekter/Jan%20Lydeffekter/Woosh/267887__wjl__short-fireball-woosh.wav</pathurl>
							<rate>
								<timebase>30</timebase>
								<ntsc>TRUE</ntsc>
							</rate>
							<duration>35</duration>
							<timecode>
								<rate>
									<timebase>30</timebase>
									<ntsc>TRUE</ntsc>
								</rate>
								<string>00;00;00;00</string>
								<frame>0</frame>
								<displayformat>DF</displayformat>
								<reel>
									<name></name>
								</reel>
							</timecode>
							<media>
								<audio>
									<samplecharacteristics>
										<depth>16</depth>
										<samplerate>48000</samplerate>
									</samplecharacteristics>
									<channelcount>2</channelcount>
								</audio>
							</media>
						</file>
						<sourcetrack>
							<mediatype>audio</mediatype>
							<trackindex>1</trackindex>
						</sourcetrack>
							<filter>
								<effect>
									<name>Gain</name>
									<effectid>{61756678, 4761696e, 4b657947}</effectid>
									<effecttype>filter</effecttype>
									<mediatype>audio</mediatype>
									<parameter authoringApp="PremierePro">
										<parameterid>Gain(dB)</parameterid>
										<name>Gain(dB)</name>
										<valuemin>-96</valuemin>
										<valuemax>96</valuemax>
										<value>-18</value>
									</parameter>
								</effect>
							</filter>
						<link>
							<linkclipref>clipitem-581</linkclipref>
							<mediatype>audio</mediatype>
							<trackindex>9</trackindex>
							<clipindex>21</clipindex>
							<groupindex>1</groupindex>
						</link>
						<link>
							<linkclipref>clipitem-621</linkclipref>
							<mediatype>audio</mediatype>
							<trackindex>10</trackindex>
							<clipindex>15</clipindex>
							<groupindex>1</groupindex>
						</link>
						<logginginfo>
							<description></description>
							<scene></scene>
							<shottake></shottake>
							<lognote></lognote>
						</logginginfo>
						<labels>
							<label2>Caribbean</label2>
						</labels>
					</clipitem>
					<clipitem id="clipitem-582" premiereChannelType="stereo">
						<masterclipid>masterclip-147</masterclipid>
						<name>194081__potentjello__woosh-noise-1.wav</name>
						<enabled>TRUE</enabled>
						<duration>11</duration>
						<rate>
							<timebase>25</timebase>
							<ntsc>FALSE</ntsc>
						</rate>
						<start>20199</start>
						<end>20211</end>
						<in>0</in>
						<out>12</out>
						<pproTicksIn>0</pproTicksIn>
						<pproTicksOut>73156608000</pproTicksOut>
						<file id="file-133">
							<name>194081__potentjello__woosh-noise-1.wav</name>
							<pathurl>file://localhost/Volumes/Bingen/Prosjekter/MYNT194016%20WHATS%20COOKING/Lydeffekter/Jan%20Lydeffekter/Woosh/194081__potentjello__woosh-noise-1.wav</pathurl>
							<rate>
								<timebase>30</timebase>
								<ntsc>TRUE</ntsc>
							</rate>
							<duration>9</duration>
							<timecode>
								<rate>
									<timebase>30</timebase>
									<ntsc>TRUE</ntsc>
								</rate>
								<string>01;01;14;15</string>
								<frame>110125</frame>
								<displayformat>DF</displayformat>
								<reel>
									<name></name>
								</reel>
							</timecode>
							<media>
								<audio>
									<samplecharacteristics>
										<depth>16</depth>
										<samplerate>48000</samplerate>
									</samplecharacteristics>
									<channelcount>2</channelcount>
								</audio>
							</media>
						</file>
						<sourcetrack>
							<mediatype>audio</mediatype>
							<trackindex>1</trackindex>
						</sourcetrack>
							<filter>
								<effect>
									<name>Time Remap</name>
									<effectid>timeremap</effectid>
									<effectcategory>motion</effectcategory>
									<effecttype>motion</effecttype>
									<mediatype>audio</mediatype>
									<parameter authoringApp="PremierePro">
										<parameterid>variablespeed</parameterid>
										<name>variablespeed</name>
										<valuemin>0</valuemin>
										<valuemax>1</valuemax>
										<value>0</value>
									</parameter>
									<parameter authoringApp="PremierePro">
										<parameterid>speed</parameterid>
										<name>speed</name>
										<valuemin>-100000</valuemin>
										<valuemax>100000</valuemax>
										<value>60</value>
									</parameter>
									<parameter authoringApp="PremierePro">
										<parameterid>reverse</parameterid>
										<name>reverse</name>
										<value>FALSE</value>
									</parameter>
									<parameter authoringApp="PremierePro">
										<parameterid>frameblending</parameterid>
										<name>frameblending</name>
										<value>FALSE</value>
									</parameter>
									<parameter authoringApp="PremierePro">
										<parameterid>graphdict</parameterid>
										<name>graphdict</name>
										<valuemin>0</valuemin>
										<valuemax>6</valuemax>
										<value>0</value>
										<keyframe>
											<when>0</when>
											<value>0</value>
											<speedvirtualkf>TRUE</speedvirtualkf>
											<speedkfin>TRUE</speedkfin>
										</keyframe>
										<keyframe>
											<when>11</when>
											<value>6</value>
											<speedvirtualkf>TRUE</speedvirtualkf>
											<speedkfout>TRUE</speedkfout>
										</keyframe>
										<interpolation>
											<name>FCPCurve</name>
										</interpolation>
									</parameter>
								</effect>
							</filter>
							<marker>
								<comment></comment>
								<name></name>
								<in>6</in>
								<out>-1</out>
							</marker>
						<link>
							<linkclipref>clipitem-582</linkclipref>
							<mediatype>audio</mediatype>
							<trackindex>9</trackindex>
							<clipindex>22</clipindex>
							<groupindex>1</groupindex>
						</link>
						<link>
							<linkclipref>clipitem-622</linkclipref>
							<mediatype>audio</mediatype>
							<trackindex>10</trackindex>
							<clipindex>16</clipindex>
							<groupindex>1</groupindex>
						</link>
						<logginginfo>
							<description></description>
							<scene></scene>
							<shottake></shottake>
							<lognote></lognote>
						</logginginfo>
						<labels>
							<label2>Caribbean</label2>
						</labels>
					</clipitem>
					<clipitem id="clipitem-583" premiereChannelType="mono">
						<masterclipid>masterclip-148</masterclipid>
						<name>325270__adam-n__body-fall-1.wav</name>
						<enabled>TRUE</enabled>
						<duration>105</duration>
						<rate>
							<timebase>25</timebase>
							<ntsc>FALSE</ntsc>
						</rate>
						<start>20913</start>
						<end>20965</end>
						<in>11</in>
						<out>63</out>
						<pproTicksIn>71124480000</pproTicksIn>
						<pproTicksOut>388136448000</pproTicksOut>
						<file id="file-134">
							<name>325270__adam-n__body-fall-1.wav</name>
							<pathurl>file://localhost/Volumes/Bingen/Prosjekter/MYNT194016%20WHATS%20COOKING/Lydeffekter/Jan%20Lydeffekter/325270__adam-n__body-fall-1.wav</pathurl>
							<rate>
								<timebase>30</timebase>
								<ntsc>TRUE</ntsc>
							</rate>
							<duration>76</duration>
							<timecode>
								<rate>
									<timebase>30</timebase>
									<ntsc>TRUE</ntsc>
								</rate>
								<string>01;09;36;23</string>
								<frame>125177</frame>
								<displayformat>DF</displayformat>
								<reel>
									<name></name>
								</reel>
							</timecode>
							<media>
								<audio>
									<samplecharacteristics>
										<depth>16</depth>
										<samplerate>48000</samplerate>
									</samplecharacteristics>
									<channelcount>1</channelcount>
									<audiochannel>
										<sourcechannel>1</sourcechannel>
									</audiochannel>
								</audio>
							</media>
						</file>
						<sourcetrack>
							<mediatype>audio</mediatype>
							<trackindex>1</trackindex>
						</sourcetrack>
							<filter>
								<effect>
									<name>Time Remap</name>
									<effectid>timeremap</effectid>
									<effectcategory>motion</effectcategory>
									<effecttype>motion</effecttype>
									<mediatype>audio</mediatype>
									<parameter authoringApp="PremierePro">
										<parameterid>variablespeed</parameterid>
										<name>variablespeed</name>
										<valuemin>0</valuemin>
										<valuemax>1</valuemax>
										<value>0</value>
									</parameter>
									<parameter authoringApp="PremierePro">
										<parameterid>speed</parameterid>
										<name>speed</name>
										<valuemin>-100000</valuemin>
										<valuemax>100000</valuemax>
										<value>60</value>
									</parameter>
									<parameter authoringApp="PremierePro">
										<parameterid>reverse</parameterid>
										<name>reverse</name>
										<value>FALSE</value>
									</parameter>
									<parameter authoringApp="PremierePro">
										<parameterid>frameblending</parameterid>
										<name>frameblending</name>
										<value>FALSE</value>
									</parameter>
									<parameter authoringApp="PremierePro">
										<parameterid>graphdict</parameterid>
										<name>graphdict</name>
										<valuemin>0</valuemin>
										<valuemax>63</valuemax>
										<value>0</value>
										<keyframe>
											<when>0</when>
											<value>0</value>
											<speedvirtualkf>TRUE</speedvirtualkf>
											<speedkfstart>TRUE</speedkfstart>
										</keyframe>
										<keyframe>
											<when>11</when>
											<value>6</value>
											<speedvirtualkf>TRUE</speedvirtualkf>
											<speedkfin>TRUE</speedkfin>
										</keyframe>
										<keyframe>
											<when>63</when>
											<value>37</value>
											<speedvirtualkf>TRUE</speedvirtualkf>
											<speedkfout>TRUE</speedkfout>
										</keyframe>
										<keyframe>
											<when>105</when>
											<value>63</value>
											<speedvirtualkf>TRUE</speedvirtualkf>
											<speedkfend>TRUE</speedkfend>
										</keyframe>
										<interpolation>
											<name>FCPCurve</name>
										</interpolation>
									</parameter>
								</effect>
							</filter>
						<logginginfo>
							<description></description>
							<scene></scene>
							<shottake></shottake>
							<lognote></lognote>
						</logginginfo>
						<labels>
							<label2>Rose</label2>
						</labels>
					</clipitem>
					<clipitem id="clipitem-584" premiereChannelType="mono">
						<masterclipid>masterclip-128</masterclipid>
						<name>VBboks-kamp-T01-Multicam</name>
						<enabled>TRUE</enabled>
						<duration>45778</duration>
						<rate>
							<timebase>25</timebase>
							<ntsc>FALSE</ntsc>
						</rate>
						<start>23781</start>
						<end>23824</end>
						<in>7854</in>
						<out>7897</out>
						<pproTicksIn>79801666560000</pproTicksIn>
						<pproTicksOut>80238574080000</pproTicksOut>
						<sequence id="sequence-11"/>
						<link>
							<linkclipref>clipitem-584</linkclipref>
							<mediatype>audio</mediatype>
							<trackindex>9</trackindex>
							<clipindex>24</clipindex>
							<groupindex>1</groupindex>
						</link>
						<link>
							<linkclipref>clipitem-649</linkclipref>
							<mediatype>audio</mediatype>
							<trackindex>11</trackindex>
							<clipindex>37</clipindex>
							<groupindex>1</groupindex>
						</link>
						<labels>
							<label2>Forest</label2>
						</labels>
					</clipitem>
					<clipitem id="clipitem-585" premiereChannelType="mono">
						<masterclipid>masterclip-128</masterclipid>
						<name>VBboks-kamp-T01-Multicam</name>
						<enabled>TRUE</enabled>
						<duration>45778</duration>
						<rate>
							<timebase>25</timebase>
							<ntsc>FALSE</ntsc>
						</rate>
						<start>23824</start>
						<end>23850</end>
						<in>7877</in>
						<out>7903</out>
						<pproTicksIn>80035361280000</pproTicksIn>
						<pproTicksOut>80299537920000</pproTicksOut>
						<sequence id="sequence-11"/>
						<link>
							<linkclipref>clipitem-585</linkclipref>
							<mediatype>audio</mediatype>
							<trackindex>9</trackindex>
							<clipindex>25</clipindex>
							<groupindex>1</groupindex>
						</link>
						<link>
							<linkclipref>clipitem-650</linkclipref>
							<mediatype>audio</mediatype>
							<trackindex>11</trackindex>
							<clipindex>38</clipindex>
							<groupindex>1</groupindex>
						</link>
						<labels>
							<label2>Forest</label2>
						</labels>
					</clipitem>
					<clipitem id="clipitem-586" premiereChannelType="mono">
						<masterclipid>masterclip-128</masterclipid>
						<name>VBboks-kamp-T01-Multicam</name>
						<enabled>TRUE</enabled>
						<duration>45778</duration>
						<rate>
							<timebase>25</timebase>
							<ntsc>FALSE</ntsc>
						</rate>
						<start>23928</start>
						<end>23985</end>
						<in>10264</in>
						<out>10321</out>
						<pproTicksIn>104288808960000</pproTicksIn>
						<pproTicksOut>104867965440000</pproTicksOut>
						<sequence id="sequence-11"/>
						<labels>
							<label2>Forest</label2>
						</labels>
					</clipitem>
					<clipitem id="clipitem-587" premiereChannelType="mono">
						<masterclipid>masterclip-128</masterclipid>
						<name>VBboks-kamp-T01-Multicam</name>
						<enabled>TRUE</enabled>
						<duration>45778</duration>
						<rate>
							<timebase>25</timebase>
							<ntsc>FALSE</ntsc>
						</rate>
						<start>24042</start>
						<end>24120</end>
						<in>8551</in>
						<out>8629</out>
						<pproTicksIn>86883632640000</pproTicksIn>
						<pproTicksOut>87676162560000</pproTicksOut>
						<sequence id="sequence-11"/>
						<labels>
							<label2>Forest</label2>
						</labels>
					</clipitem>
					<clipitem id="clipitem-588" premiereChannelType="mono">
						<masterclipid>masterclip-130</masterclipid>
						<name>Clip0006.mov</name>
						<enabled>TRUE</enabled>
						<duration>18456</duration>
						<rate>
							<timebase>25</timebase>
							<ntsc>FALSE</ntsc>
						</rate>
						<start>24273</start>
						<end>24353</end>
						<in>10937</in>
						<out>11017</out>
						<pproTicksIn>111126919680000</pproTicksIn>
						<pproTicksOut>111939770880000</pproTicksOut>
						<file id="file-117"/>
						<sourcetrack>
							<mediatype>audio</mediatype>
							<trackindex>1</trackindex>
						</sourcetrack>
							<marker>
								<comment></comment>
								<name>klapp</name>
								<in>273</in>
								<out>-1</out>
							</marker>
						<logginginfo>
							<description>boksT01 M klapp1 sidelinja klapp 2 Jim</description>
							<scene></scene>
							<shottake></shottake>
							<lognote></lognote>
						</logginginfo>
						<labels>
							<label2>Iris</label2>
						</labels>
					</clipitem>
					<clipitem id="clipitem-589" premiereChannelType="mono">
						<masterclipid>masterclip-128</masterclipid>
						<name>VBboks-kamp-T01-Multicam</name>
						<enabled>TRUE</enabled>
						<duration>45778</duration>
						<rate>
							<timebase>25</timebase>
							<ntsc>FALSE</ntsc>
						</rate>
						<start>24487</start>
						<end>24499</end>
						<in>7416</in>
						<out>7428</out>
						<pproTicksIn>75351306240000</pproTicksIn>
						<pproTicksOut>75473233920000</pproTicksOut>
						<sequence id="sequence-11"/>
						<link>
							<linkclipref>clipitem-589</linkclipref>
							<mediatype>audio</mediatype>
							<trackindex>9</trackindex>
							<clipindex>29</clipindex>
							<groupindex>1</groupindex>
						</link>
						<link>
							<linkclipref>clipitem-653</linkclipref>
							<mediatype>audio</mediatype>
							<trackindex>11</trackindex>
							<clipindex>41</clipindex>
							<groupindex>1</groupindex>
						</link>
						<link>
							<linkclipref>clipitem-726</linkclipref>
							<mediatype>audio</mediatype>
							<trackindex>13</trackindex>
							<clipindex>56</clipindex>
							<groupindex>1</groupindex>
						</link>
						<link>
							<linkclipref>clipitem-792</linkclipref>
							<mediatype>audio</mediatype>
							<trackindex>15</trackindex>
							<clipindex>39</clipindex>
							<groupindex>1</groupindex>
						</link>
						<labels>
							<label2>Forest</label2>
						</labels>
					</clipitem>
					<clipitem id="clipitem-590" premiereChannelType="mono">
						<masterclipid>masterclip-130</masterclipid>
						<name>Clip0006.mov</name>
						<enabled>TRUE</enabled>
						<duration>26365</duration>
						<rate>
							<timebase>25</timebase>
							<ntsc>FALSE</ntsc>
						</rate>
						<start>24542</start>
						<end>24566</end>
						<in>11112</in>
						<out>11136</out>
						<pproTicksIn>79039618560000</pproTicksIn>
						<pproTicksOut>79210317311997</pproTicksOut>
						<file id="file-117"/>
						<sourcetrack>
							<mediatype>audio</mediatype>
							<trackindex>1</trackindex>
						</sourcetrack>
							<filter>
								<effect>
									<name>Time Remap</name>
									<effectid>timeremap</effectid>
									<effectcategory>motion</effectcategory>
									<effecttype>motion</effecttype>
									<mediatype>audio</mediatype>
									<parameter authoringApp="PremierePro">
										<parameterid>variablespeed</parameterid>
										<name>variablespeed</name>
										<valuemin>0</valuemin>
										<valuemax>1</valuemax>
										<value>0</value>
									</parameter>
									<parameter authoringApp="PremierePro">
										<parameterid>speed</parameterid>
										<name>speed</name>
										<valuemin>-100000</valuemin>
										<valuemax>100000</valuemax>
										<value>70</value>
									</parameter>
									<parameter authoringApp="PremierePro">
										<parameterid>reverse</parameterid>
										<name>reverse</name>
										<value>FALSE</value>
									</parameter>
									<parameter authoringApp="PremierePro">
										<parameterid>frameblending</parameterid>
										<name>frameblending</name>
										<value>FALSE</value>
									</parameter>
									<parameter authoringApp="PremierePro">
										<parameterid>graphdict</parameterid>
										<name>graphdict</name>
										<valuemin>0</valuemin>
										<valuemax>18455</valuemax>
										<value>0</value>
										<keyframe>
											<when>0</when>
											<value>0</value>
											<speedvirtualkf>TRUE</speedvirtualkf>
											<speedkfstart>TRUE</speedkfstart>
										</keyframe>
										<keyframe>
											<when>11112</when>
											<value>7778</value>
											<speedvirtualkf>TRUE</speedvirtualkf>
											<speedkfin>TRUE</speedkfin>
										</keyframe>
										<keyframe>
											<when>11136</when>
											<value>7795</value>
											<speedvirtualkf>TRUE</speedvirtualkf>
											<speedkfout>TRUE</speedkfout>
										</keyframe>
										<keyframe>
											<when>26365</when>
											<value>18455</value>
											<speedvirtualkf>TRUE</speedvirtualkf>
											<speedkfend>TRUE</speedkfend>
										</keyframe>
										<interpolation>
											<name>FCPCurve</name>
										</interpolation>
									</parameter>
								</effect>
							</filter>
							<marker>
								<comment></comment>
								<name>klapp</name>
								<in>206</in>
								<out>-1</out>
							</marker>
						<logginginfo>
							<description>boksT01 M klapp1 sidelinja klapp 2 Jim</description>
							<scene></scene>
							<shottake></shottake>
							<lognote></lognote>
						</logginginfo>
						<labels>
							<label2>Iris</label2>
						</labels>
					</clipitem>
					<clipitem id="clipitem-591" premiereChannelType="mono">
						<masterclipid>masterclip-149</masterclipid>
						<name>VBboks-kamp-T03-Multicam</name>
						<enabled>TRUE</enabled>
						<duration>57749</duration>
						<rate>
							<timebase>25</timebase>
							<ntsc>FALSE</ntsc>
						</rate>
						<start>25926</start>
						<end>25956</end>
						<in>3121</in>
						<out>3151</out>
						<pproTicksIn>31711357440000</pproTicksIn>
						<pproTicksOut>32016176640000</pproTicksOut>
						<sequence id="sequence-13" TL.SQAudioVisibleBase="0" TL.SQVideoVisibleBase="0" TL.SQVisibleBaseTime="0" TL.SQAVDividerPosition="0.5" TL.SQHideShyTracks="0" TL.SQHeaderWidth="184" Monitor.ProgramZoomOut="36405573120000" Monitor.ProgramZoomIn="0" TL.SQTimePerPixel="0.2053295128939828" AM.TrackVScrollPosition="0" AM.TrackScrollPosition="0" MZ.EditLine="0" MZ.Sequence.PreviewFrameSizeHeight="1080" MZ.Sequence.PreviewFrameSizeWidth="1920" MZ.Sequence.AudioTimeDisplayFormat="200" MZ.Sequence.PreviewRenderingClassID="1297106761" MZ.Sequence.PreviewRenderingPresetCodec="1297107278" MZ.Sequence.PreviewRenderingPresetPath="EncoderPresets/SequencePreview/795454d9-d3c2-429d-9474-923ab13b7018/I-Frame Only MPEG.epr" MZ.Sequence.PreviewUseMaxRenderQuality="false" MZ.Sequence.PreviewUseMaxBitDepth="false" MZ.Sequence.EditingModeGUID="795454d9-d3c2-429d-9474-923ab13b7018" MZ.Sequence.VideoTimeDisplayFormat="101" MZ.WorkOutPoint="36405573120000" MZ.WorkInPoint="0" MZ.ZeroPoint="8645475202560000">
							<duration>3347</duration>
							<rate>
								<timebase>25</timebase>
								<ntsc>FALSE</ntsc>
							</rate>
							<name>VBboks-kamp-T03-Multicam</name>
							<media>
								<video>
									<format>
										<samplecharacteristics>
											<rate>
												<timebase>25</timebase>
												<ntsc>FALSE</ntsc>
											</rate>
											<codec>
												<name>Apple ProRes 422</name>
												<appspecificdata>
													<appname>Final Cut Pro</appname>
													<appmanufacturer>Apple Inc.</appmanufacturer>
													<appversion>7.0</appversion>
													<data>
														<qtcodec>
															<codecname>Apple ProRes 422</codecname>
															<codectypename>Apple ProRes 422</codectypename>
															<codectypecode>apcn</codectypecode>
															<codecvendorcode>appl</codecvendorcode>
															<spatialquality>1024</spatialquality>
															<temporalquality>0</temporalquality>
															<keyframerate>0</keyframerate>
															<datarate>0</datarate>
														</qtcodec>
													</data>
												</appspecificdata>
											</codec>
											<width>1920</width>
											<height>1080</height>
											<anamorphic>FALSE</anamorphic>
											<pixelaspectratio>square</pixelaspectratio>
											<fielddominance>none</fielddominance>
											<colordepth>24</colordepth>
										</samplecharacteristics>
									</format>
									<track TL.SQTrackShy="0" TL.SQTrackExpandedHeight="50" TL.SQTrackExpanded="1" MZ.TrackTargeted="1">
										<clipitem id="clipitem-592">
											<masterclipid>masterclip-150</masterclipid>
											<name>Clip0007_1.mov</name>
											<enabled>TRUE</enabled>
											<duration>3348</duration>
											<rate>
												<timebase>25</timebase>
												<ntsc>FALSE</ntsc>
											</rate>
											<start>0</start>
											<end>3347</end>
											<in>1</in>
											<out>3348</out>
											<pproTicksIn>10160640000</pproTicksIn>
											<pproTicksOut>34017822720000</pproTicksOut>
											<alphatype>none</alphatype>
											<pixelaspectratio>square</pixelaspectratio>
											<anamorphic>FALSE</anamorphic>
											<file id="file-135">
												<name>Clip0007_1.mov</name>
												<pathurl>file://localhost/Volumes/Bingen/Prosjekter/MYNT194016%20WHATS%20COOKING/Media/Episode%2004%20Vold/VB-opptak/07042016/KAM%20A/ProRes%202/Clip0007_1.mov</pathurl>
												<rate>
													<timebase>25</timebase>
													<ntsc>FALSE</ntsc>
												</rate>
												<duration>3348</duration>
												<timecode>
													<rate>
														<timebase>25</timebase>
														<ntsc>FALSE</ntsc>
													</rate>
													<string>09:27:15:03</string>
													<frame>850878</frame>
													<displayformat>NDF</displayformat>
													<reel>
														<name></name>
													</reel>
												</timecode>
												<media>
													<video>
														<samplecharacteristics>
															<rate>
																<timebase>25</timebase>
																<ntsc>FALSE</ntsc>
															</rate>
															<width>1920</width>
															<height>1080</height>
															<anamorphic>FALSE</anamorphic>
															<pixelaspectratio>square</pixelaspectratio>
															<fielddominance>none</fielddominance>
														</samplecharacteristics>
													</video>
													<audio>
														<samplecharacteristics>
															<depth>16</depth>
															<samplerate>48000</samplerate>
														</samplecharacteristics>
														<channelcount>1</channelcount>
														<audiochannel>
															<sourcechannel>1</sourcechannel>
														</audiochannel>
													</audio>
													<audio>
														<samplecharacteristics>
															<depth>16</depth>
															<samplerate>48000</samplerate>
														</samplecharacteristics>
														<channelcount>1</channelcount>
														<audiochannel>
															<sourcechannel>2</sourcechannel>
														</audiochannel>
													</audio>
												</media>
											</file>
												<marker>
													<comment></comment>
													<name>klapp</name>
													<in>357</in>
													<out>-1</out>
												</marker>
											<link>
												<linkclipref>clipitem-592</linkclipref>
												<mediatype>video</mediatype>
												<trackindex>1</trackindex>
												<clipindex>1</clipindex>
											</link>
											<link>
												<linkclipref>clipitem-596</linkclipref>
												<mediatype>audio</mediatype>
												<trackindex>1</trackindex>
												<clipindex>1</clipindex>
												<groupindex>1</groupindex>
											</link>
											<link>
												<linkclipref>clipitem-597</linkclipref>
												<mediatype>audio</mediatype>
												<trackindex>2</trackindex>
												<clipindex>1</clipindex>
												<groupindex>1</groupindex>
											</link>
											<logginginfo>
												<description>boksT03 Jim klapp</description>
												<scene></scene>
												<shottake></shottake>
												<lognote></lognote>
											</logginginfo>
											<labels>
												<label2>Iris</label2>
											</labels>
										</clipitem>
										<enabled>TRUE</enabled>
										<locked>FALSE</locked>
									</track>
									<track TL.SQTrackShy="0" TL.SQTrackExpandedHeight="25" TL.SQTrackExpanded="0" MZ.TrackTargeted="1">
										<clipitem id="clipitem-593">
											<masterclipid>masterclip-151</masterclipid>
											<name>Clip0008.mov</name>
											<enabled>TRUE</enabled>
											<duration>3600</duration>
											<rate>
												<timebase>25</timebase>
												<ntsc>FALSE</ntsc>
											</rate>
											<start>0</start>
											<end>3583</end>
											<in>17</in>
											<out>3600</out>
											<pproTicksIn>172730880000</pproTicksIn>
											<pproTicksOut>36578304000000</pproTicksOut>
											<alphatype>none</alphatype>
											<pixelaspectratio>square</pixelaspectratio>
											<anamorphic>FALSE</anamorphic>
											<file id="file-136">
												<name>Clip0008.mov</name>
												<pathurl>file://localhost/Volumes/Bingen/Prosjekter/MYNT194016%20WHATS%20COOKING/Media/Episode%2004%20Vold/VB-opptak/07042016/KAM%20B/ProRes%202/Clip0008.mov</pathurl>
												<rate>
													<timebase>25</timebase>
													<ntsc>FALSE</ntsc>
												</rate>
												<duration>3600</duration>
												<timecode>
													<rate>
														<timebase>25</timebase>
														<ntsc>FALSE</ntsc>
													</rate>
													<string>09:18:27:06</string>
													<frame>837681</frame>
													<displayformat>NDF</displayformat>
													<reel>
														<name></name>
													</reel>
												</timecode>
												<media>
													<video>
														<samplecharacteristics>
															<rate>
																<timebase>25</timebase>
																<ntsc>FALSE</ntsc>
															</rate>
															<width>1920</width>
															<height>1080</height>
															<anamorphic>FALSE</anamorphic>
															<pixelaspectratio>square</pixelaspectratio>
															<fielddominance>none</fielddominance>
														</samplecharacteristics>
													</video>
													<audio>
														<samplecharacteristics>
															<depth>16</depth>
															<samplerate>48000</samplerate>
														</samplecharacteristics>
														<channelcount>1</channelcount>
														<audiochannel>
															<sourcechannel>1</sourcechannel>
														</audiochannel>
													</audio>
													<audio>
														<samplecharacteristics>
															<depth>16</depth>
															<samplerate>48000</samplerate>
														</samplecharacteristics>
														<channelcount>1</channelcount>
														<audiochannel>
															<sourcechannel>2</sourcechannel>
														</audiochannel>
													</audio>
												</media>
											</file>
												<marker>
													<comment></comment>
													<name>klapp</name>
													<in>373</in>
													<out>-1</out>
												</marker>
												<marker>
													<comment></comment>
													<name></name>
													<in>373</in>
													<out>-1</out>
												</marker>
											<link>
												<linkclipref>clipitem-593</linkclipref>
												<mediatype>video</mediatype>
												<trackindex>2</trackindex>
												<clipindex>1</clipindex>
											</link>
											<link>
												<linkclipref>clipitem-598</linkclipref>
												<mediatype>audio</mediatype>
												<trackindex>3</trackindex>
												<clipindex>1</clipindex>
												<groupindex>1</groupindex>
											</link>
											<link>
												<linkclipref>clipitem-599</linkclipref>
												<mediatype>audio</mediatype>
												<trackindex>4</trackindex>
												<clipindex>1</clipindex>
												<groupindex>1</groupindex>
											</link>
											<logginginfo>
												<description>boksT03 Jim klapp</description>
												<scene></scene>
												<shottake></shottake>
												<lognote></lognote>
											</logginginfo>
											<labels>
												<label2>Iris</label2>
											</labels>
										</clipitem>
										<enabled>TRUE</enabled>
										<locked>FALSE</locked>
									</track>
									<track TL.SQTrackShy="0" TL.SQTrackExpandedHeight="25" TL.SQTrackExpanded="0" MZ.TrackTargeted="1">
										<clipitem id="clipitem-594">
											<masterclipid>masterclip-152</masterclipid>
											<name>gopro2 stitched 2.mov Copy 02</name>
											<enabled>TRUE</enabled>
											<duration>44554</duration>
											<rate>
												<timebase>25</timebase>
												<ntsc>FALSE</ntsc>
											</rate>
											<start>0</start>
											<end>3583</end>
											<in>33995</in>
											<out>37578</out>
											<pproTicksIn>345410956800000</pproTicksIn>
											<pproTicksOut>381816529920000</pproTicksOut>
											<alphatype>none</alphatype>
											<pixelaspectratio>square</pixelaspectratio>
											<anamorphic>FALSE</anamorphic>
											<file id="file-137">
												<name>gopro2 stitched 2.mov</name>
												<pathurl>file://localhost/Volumes/Bingen/Prosjekter/MYNT194016%20WHATS%20COOKING/Media/Episode%2004%20Vold/VB-opptak/07042016/GOPRO%202/ProRes%20stitched/gopro2%20stitched%202.mov</pathurl>
												<rate>
													<timebase>25</timebase>
													<ntsc>FALSE</ntsc>
												</rate>
												<duration>44554</duration>
												<timecode>
													<rate>
														<timebase>25</timebase>
														<ntsc>FALSE</ntsc>
													</rate>
													<string>00:00:00:00</string>
													<frame>0</frame>
													<displayformat>NDF</displayformat>
													<reel>
														<name></name>
													</reel>
												</timecode>
												<media>
													<video>
														<samplecharacteristics>
															<rate>
																<timebase>25</timebase>
																<ntsc>FALSE</ntsc>
															</rate>
															<width>1920</width>
															<height>1080</height>
															<anamorphic>FALSE</anamorphic>
															<pixelaspectratio>square</pixelaspectratio>
															<fielddominance>none</fielddominance>
														</samplecharacteristics>
													</video>
													<audio>
														<samplecharacteristics>
															<depth>16</depth>
															<samplerate>48000</samplerate>
														</samplecharacteristics>
														<channelcount>1</channelcount>
														<layout>stereo</layout>
														<audiochannel>
															<sourcechannel>1</sourcechannel>
															<channellabel>left</channellabel>
														</audiochannel>
													</audio>
													<audio>
														<samplecharacteristics>
															<depth>16</depth>
															<samplerate>48000</samplerate>
														</samplecharacteristics>
														<channelcount>1</channelcount>
														<layout>stereo</layout>
														<audiochannel>
															<sourcechannel>2</sourcechannel>
															<channellabel>right</channellabel>
														</audiochannel>
													</audio>
												</media>
											</file>
											<link>
												<linkclipref>clipitem-594</linkclipref>
												<mediatype>video</mediatype>
												<trackindex>3</trackindex>
												<clipindex>1</clipindex>
											</link>
											<link>
												<linkclipref>clipitem-600</linkclipref>
												<mediatype>audio</mediatype>
												<trackindex>5</trackindex>
												<clipindex>1</clipindex>
												<groupindex>1</groupindex>
											</link>
											<link>
												<linkclipref>clipitem-601</linkclipref>
												<mediatype>audio</mediatype>
												<trackindex>6</trackindex>
												<clipindex>1</clipindex>
												<groupindex>1</groupindex>
											</link>
											<logginginfo>
												<description>synklyd</description>
												<scene></scene>
												<shottake></shottake>
												<lognote></lognote>
											</logginginfo>
											<labels>
												<label2>Iris</label2>
											</labels>
										</clipitem>
										<enabled>TRUE</enabled>
										<locked>FALSE</locked>
									</track>
									<track TL.SQTrackShy="0" TL.SQTrackExpandedHeight="25" TL.SQTrackExpanded="0" MZ.TrackTargeted="1">
										<clipitem id="clipitem-595">
											<masterclipid>masterclip-132</masterclipid>
											<name>gopro1 stitched 2.mov</name>
											<enabled>TRUE</enabled>
											<duration>45655</duration>
											<rate>
												<timebase>25</timebase>
												<ntsc>FALSE</ntsc>
											</rate>
											<start>0</start>
											<end>3583</end>
											<in>34052</in>
											<out>37635</out>
											<pproTicksIn>345990113280000</pproTicksIn>
											<pproTicksOut>382395686400000</pproTicksOut>
											<alphatype>none</alphatype>
											<file id="file-119"/>
												<marker>
													<comment></comment>
													<name>klapp</name>
													<in>34408</in>
													<out>-1</out>
												</marker>
												<marker>
													<comment></comment>
													<name></name>
													<in>25784</in>
													<out>-1</out>
												</marker>
												<marker>
													<comment></comment>
													<name></name>
													<in>6011</in>
													<out>-1</out>
												</marker>
											<logginginfo>
												<description>klapp jim midt</description>
												<scene></scene>
												<shottake></shottake>
												<lognote></lognote>
											</logginginfo>
											<labels>
												<label2>Iris</label2>
											</labels>
										</clipitem>
										<enabled>TRUE</enabled>
										<locked>FALSE</locked>
									</track>
								</video>
								<audio>
									<numOutputChannels>6</numOutputChannels>
									<format>
										<samplecharacteristics>
											<depth>16</depth>
											<samplerate>48000</samplerate>
										</samplecharacteristics>
									</format>
									<outputs>
										<group>
											<index>1</index>
											<numchannels>1</numchannels>
											<downmix>0</downmix>
											<channel>
												<index>1</index>
											</channel>
										</group>
										<group>
											<index>2</index>
											<numchannels>1</numchannels>
											<downmix>0</downmix>
											<channel>
												<index>2</index>
											</channel>
										</group>
										<group>
											<index>3</index>
											<numchannels>1</numchannels>
											<downmix>0</downmix>
											<channel>
												<index>3</index>
											</channel>
										</group>
										<group>
											<index>4</index>
											<numchannels>1</numchannels>
											<downmix>0</downmix>
											<channel>
												<index>4</index>
											</channel>
										</group>
										<group>
											<index>5</index>
											<numchannels>1</numchannels>
											<downmix>0</downmix>
											<channel>
												<index>5</index>
											</channel>
										</group>
										<group>
											<index>6</index>
											<numchannels>1</numchannels>
											<downmix>0</downmix>
											<channel>
												<index>6</index>
											</channel>
										</group>
									</outputs>
									<track TL.SQTrackAudioKeyframeStyle="0" TL.SQTrackShy="0" TL.SQTrackExpandedHeight="25" TL.SQTrackExpanded="0" MZ.TrackTargeted="1" PannerCurrentValue="0" PannerIsInverted="true" PannerStartKeyframe="-91445760000000000,0.,0,0,0,0,0,0" PannerName="Balance" currentExplodedTrackIndex="0" totalExplodedTrackCount="1" premiereTrackType="Stereo">
										<clipitem id="clipitem-596" premiereChannelType="mono">
											<masterclipid>masterclip-150</masterclipid>
											<name>Clip0007_1.mov</name>
											<enabled>TRUE</enabled>
											<duration>3348</duration>
											<rate>
												<timebase>25</timebase>
												<ntsc>FALSE</ntsc>
											</rate>
											<start>0</start>
											<end>3347</end>
											<in>1</in>
											<out>3348</out>
											<pproTicksIn>10160640000</pproTicksIn>
											<pproTicksOut>34017822720000</pproTicksOut>
											<file id="file-135"/>
											<sourcetrack>
												<mediatype>audio</mediatype>
												<trackindex>1</trackindex>
											</sourcetrack>
												<marker>
													<comment></comment>
													<name>klapp</name>
													<in>357</in>
													<out>-1</out>
												</marker>
											<link>
												<linkclipref>clipitem-592</linkclipref>
												<mediatype>video</mediatype>
												<trackindex>1</trackindex>
												<clipindex>1</clipindex>
											</link>
											<link>
												<linkclipref>clipitem-596</linkclipref>
												<mediatype>audio</mediatype>
												<trackindex>1</trackindex>
												<clipindex>1</clipindex>
												<groupindex>1</groupindex>
											</link>
											<link>
												<linkclipref>clipitem-597</linkclipref>
												<mediatype>audio</mediatype>
												<trackindex>2</trackindex>
												<clipindex>1</clipindex>
												<groupindex>1</groupindex>
											</link>
											<logginginfo>
												<description>boksT03 Jim klapp</description>
												<scene></scene>
												<shottake></shottake>
												<lognote></lognote>
											</logginginfo>
											<labels>
												<label2>Iris</label2>
											</labels>
										</clipitem>
										<enabled>TRUE</enabled>
										<locked>FALSE</locked>
										<outputchannelindex>1</outputchannelindex>
									</track>
									<track TL.SQTrackAudioKeyframeStyle="0" TL.SQTrackShy="0" TL.SQTrackExpandedHeight="25" TL.SQTrackExpanded="0" MZ.TrackTargeted="1" PannerIsInverted="true" PannerName="Balance" currentExplodedTrackIndex="0" totalExplodedTrackCount="1" premiereTrackType="Stereo">
										<clipitem id="clipitem-597" premiereChannelType="mono">
											<masterclipid>masterclip-150</masterclipid>
											<name>Clip0007_1.mov</name>
											<enabled>TRUE</enabled>
											<duration>3348</duration>
											<rate>
												<timebase>25</timebase>
												<ntsc>FALSE</ntsc>
											</rate>
											<start>0</start>
											<end>3347</end>
											<in>1</in>
											<out>3348</out>
											<pproTicksIn>10160640000</pproTicksIn>
											<pproTicksOut>34017822720000</pproTicksOut>
											<file id="file-135"/>
											<sourcetrack>
												<mediatype>audio</mediatype>
												<trackindex>2</trackindex>
											</sourcetrack>
												<marker>
													<comment></comment>
													<name>klapp</name>
													<in>357</in>
													<out>-1</out>
												</marker>
											<link>
												<linkclipref>clipitem-592</linkclipref>
												<mediatype>video</mediatype>
												<trackindex>1</trackindex>
												<clipindex>1</clipindex>
											</link>
											<link>
												<linkclipref>clipitem-596</linkclipref>
												<mediatype>audio</mediatype>
												<trackindex>1</trackindex>
												<clipindex>1</clipindex>
												<groupindex>1</groupindex>
											</link>
											<link>
												<linkclipref>clipitem-597</linkclipref>
												<mediatype>audio</mediatype>
												<trackindex>2</trackindex>
												<clipindex>1</clipindex>
												<groupindex>1</groupindex>
											</link>
											<logginginfo>
												<description>boksT03 Jim klapp</description>
												<scene></scene>
												<shottake></shottake>
												<lognote></lognote>
											</logginginfo>
											<labels>
												<label2>Iris</label2>
											</labels>
										</clipitem>
										<enabled>TRUE</enabled>
										<locked>FALSE</locked>
										<outputchannelindex>2</outputchannelindex>
									</track>
									<track TL.SQTrackAudioKeyframeStyle="0" TL.SQTrackShy="0" TL.SQTrackExpandedHeight="25" TL.SQTrackExpanded="0" MZ.TrackTargeted="1" PannerCurrentValue="0" PannerIsInverted="true" PannerStartKeyframe="-91445760000000000,0.,0,0,0,0,0,0" PannerName="Balance" currentExplodedTrackIndex="0" totalExplodedTrackCount="1" premiereTrackType="Stereo">
										<clipitem id="clipitem-598" premiereChannelType="mono">
											<masterclipid>masterclip-151</masterclipid>
											<name>Clip0008.mov</name>
											<enabled>TRUE</enabled>
											<duration>3600</duration>
											<rate>
												<timebase>25</timebase>
												<ntsc>FALSE</ntsc>
											</rate>
											<start>0</start>
											<end>3583</end>
											<in>17</in>
											<out>3600</out>
											<pproTicksIn>172730880000</pproTicksIn>
											<pproTicksOut>36578304000000</pproTicksOut>
											<file id="file-136"/>
											<sourcetrack>
												<mediatype>audio</mediatype>
												<trackindex>1</trackindex>
											</sourcetrack>
												<marker>
													<comment></comment>
													<name>klapp</name>
													<in>373</in>
													<out>-1</out>
												</marker>
												<marker>
													<comment></comment>
													<name></name>
													<in>373</in>
													<out>-1</out>
												</marker>
											<link>
												<linkclipref>clipitem-593</linkclipref>
												<mediatype>video</mediatype>
												<trackindex>2</trackindex>
												<clipindex>1</clipindex>
											</link>
											<link>
												<linkclipref>clipitem-598</linkclipref>
												<mediatype>audio</mediatype>
												<trackindex>3</trackindex>
												<clipindex>1</clipindex>
												<groupindex>1</groupindex>
											</link>
											<link>
												<linkclipref>clipitem-599</linkclipref>
												<mediatype>audio</mediatype>
												<trackindex>4</trackindex>
												<clipindex>1</clipindex>
												<groupindex>1</groupindex>
											</link>
											<logginginfo>
												<description>boksT03 Jim klapp</description>
												<scene></scene>
												<shottake></shottake>
												<lognote></lognote>
											</logginginfo>
											<labels>
												<label2>Iris</label2>
											</labels>
										</clipitem>
										<enabled>TRUE</enabled>
										<locked>FALSE</locked>
										<outputchannelindex>3</outputchannelindex>
									</track>
									<track TL.SQTrackAudioKeyframeStyle="0" TL.SQTrackShy="0" TL.SQTrackExpandedHeight="25" TL.SQTrackExpanded="0" MZ.TrackTargeted="1" PannerIsInverted="true" PannerName="Balance" currentExplodedTrackIndex="0" totalExplodedTrackCount="1" premiereTrackType="Stereo">
										<clipitem id="clipitem-599" premiereChannelType="mono">
											<masterclipid>masterclip-151</masterclipid>
											<name>Clip0008.mov</name>
											<enabled>TRUE</enabled>
											<duration>3600</duration>
											<rate>
												<timebase>25</timebase>
												<ntsc>FALSE</ntsc>
											</rate>
											<start>0</start>
											<end>3583</end>
											<in>17</in>
											<out>3600</out>
											<pproTicksIn>172730880000</pproTicksIn>
											<pproTicksOut>36578304000000</pproTicksOut>
											<file id="file-136"/>
											<sourcetrack>
												<mediatype>audio</mediatype>
												<trackindex>2</trackindex>
											</sourcetrack>
												<marker>
													<comment></comment>
													<name>klapp</name>
													<in>373</in>
													<out>-1</out>
												</marker>
												<marker>
													<comment></comment>
													<name></name>
													<in>373</in>
													<out>-1</out>
												</marker>
											<link>
												<linkclipref>clipitem-593</linkclipref>
												<mediatype>video</mediatype>
												<trackindex>2</trackindex>
												<clipindex>1</clipindex>
											</link>
											<link>
												<linkclipref>clipitem-598</linkclipref>
												<mediatype>audio</mediatype>
												<trackindex>3</trackindex>
												<clipindex>1</clipindex>
												<groupindex>1</groupindex>
											</link>
											<link>
												<linkclipref>clipitem-599</linkclipref>
												<mediatype>audio</mediatype>
												<trackindex>4</trackindex>
												<clipindex>1</clipindex>
												<groupindex>1</groupindex>
											</link>
											<logginginfo>
												<description>boksT03 Jim klapp</description>
												<scene></scene>
												<shottake></shottake>
												<lognote></lognote>
											</logginginfo>
											<labels>
												<label2>Iris</label2>
											</labels>
										</clipitem>
										<enabled>TRUE</enabled>
										<locked>FALSE</locked>
										<outputchannelindex>4</outputchannelindex>
									</track>
									<track TL.SQTrackAudioKeyframeStyle="0" TL.SQTrackShy="0" TL.SQTrackExpandedHeight="25" TL.SQTrackExpanded="0" MZ.TrackTargeted="1" PannerCurrentValue="0" PannerIsInverted="true" PannerStartKeyframe="-91445760000000000,0.,0,0,0,0,0,0" PannerName="Balance" currentExplodedTrackIndex="0" totalExplodedTrackCount="1" premiereTrackType="Stereo">
										<clipitem id="clipitem-600" premiereChannelType="mono">
											<masterclipid>masterclip-152</masterclipid>
											<name>gopro2 stitched 2.mov Copy 02</name>
											<enabled>TRUE</enabled>
											<duration>44554</duration>
											<rate>
												<timebase>25</timebase>
												<ntsc>FALSE</ntsc>
											</rate>
											<start>0</start>
											<end>3583</end>
											<in>33995</in>
											<out>37578</out>
											<pproTicksIn>345410956800000</pproTicksIn>
											<pproTicksOut>381816529920000</pproTicksOut>
											<file id="file-137"/>
											<sourcetrack>
												<mediatype>audio</mediatype>
												<trackindex>1</trackindex>
											</sourcetrack>
											<link>
												<linkclipref>clipitem-594</linkclipref>
												<mediatype>video</mediatype>
												<trackindex>3</trackindex>
												<clipindex>1</clipindex>
											</link>
											<link>
												<linkclipref>clipitem-600</linkclipref>
												<mediatype>audio</mediatype>
												<trackindex>5</trackindex>
												<clipindex>1</clipindex>
												<groupindex>1</groupindex>
											</link>
											<link>
												<linkclipref>clipitem-601</linkclipref>
												<mediatype>audio</mediatype>
												<trackindex>6</trackindex>
												<clipindex>1</clipindex>
												<groupindex>1</groupindex>
											</link>
											<logginginfo>
												<description>synklyd</description>
												<scene></scene>
												<shottake></shottake>
												<lognote></lognote>
											</logginginfo>
											<labels>
												<label2>Iris</label2>
											</labels>
										</clipitem>
										<enabled>FALSE</enabled>
										<locked>FALSE</locked>
										<outputchannelindex>5</outputchannelindex>
									</track>
									<track TL.SQTrackAudioKeyframeStyle="0" TL.SQTrackShy="0" TL.SQTrackExpandedHeight="25" TL.SQTrackExpanded="0" MZ.TrackTargeted="1" PannerIsInverted="true" PannerName="Balance" currentExplodedTrackIndex="0" totalExplodedTrackCount="1" premiereTrackType="Stereo">
										<clipitem id="clipitem-601" premiereChannelType="mono">
											<masterclipid>masterclip-152</masterclipid>
											<name>gopro2 stitched 2.mov Copy 02</name>
											<enabled>TRUE</enabled>
											<duration>44554</duration>
											<rate>
												<timebase>25</timebase>
												<ntsc>FALSE</ntsc>
											</rate>
											<start>0</start>
											<end>3583</end>
											<in>33995</in>
											<out>37578</out>
											<pproTicksIn>345410956800000</pproTicksIn>
											<pproTicksOut>381816529920000</pproTicksOut>
											<file id="file-137"/>
											<sourcetrack>
												<mediatype>audio</mediatype>
												<trackindex>2</trackindex>
											</sourcetrack>
											<link>
												<linkclipref>clipitem-594</linkclipref>
												<mediatype>video</mediatype>
												<trackindex>3</trackindex>
												<clipindex>1</clipindex>
											</link>
											<link>
												<linkclipref>clipitem-600</linkclipref>
												<mediatype>audio</mediatype>
												<trackindex>5</trackindex>
												<clipindex>1</clipindex>
												<groupindex>1</groupindex>
											</link>
											<link>
												<linkclipref>clipitem-601</linkclipref>
												<mediatype>audio</mediatype>
												<trackindex>6</trackindex>
												<clipindex>1</clipindex>
												<groupindex>1</groupindex>
											</link>
											<logginginfo>
												<description>synklyd</description>
												<scene></scene>
												<shottake></shottake>
												<lognote></lognote>
											</logginginfo>
											<labels>
												<label2>Iris</label2>
											</labels>
										</clipitem>
										<enabled>FALSE</enabled>
										<locked>FALSE</locked>
										<outputchannelindex>6</outputchannelindex>
									</track>
								</audio>
							</media>
							<timecode>
								<rate>
									<timebase>25</timebase>
									<ntsc>FALSE</ntsc>
								</rate>
								<string>09:27:15:04</string>
								<frame>850879</frame>
								<displayformat>NDF</displayformat>
							</timecode>
								<marker>
									<comment></comment>
									<name></name>
									<in>2505</in>
									<out>-1</out>
								</marker>
								<marker>
									<comment></comment>
									<name></name>
									<in>521</in>
									<out>-1</out>
								</marker>
						</sequence>
							<filter>
								<effect>
									<name>Gain</name>
									<effectid>{61756678, 4761696e, 4b657947}</effectid>
									<effecttype>filter</effecttype>
									<mediatype>audio</mediatype>
									<parameter authoringApp="PremierePro">
										<parameterid>Gain(dB)</parameterid>
										<name>Gain(dB)</name>
										<valuemin>-96</valuemin>
										<valuemax>96</valuemax>
										<value>6</value>
									</parameter>
								</effect>
							</filter>
						<labels>
							<label2>Forest</label2>
						</labels>
					</clipitem>
					<clipitem id="clipitem-602" premiereChannelType="mono">
						<masterclipid>masterclip-149</masterclipid>
						<name>VBboks-kamp-T03-Multicam</name>
						<enabled>TRUE</enabled>
						<duration>96248</duration>
						<rate>
							<timebase>25</timebase>
							<ntsc>FALSE</ntsc>
						</rate>
						<start>25956</start>
						<end>26065</end>
						<in>5320</in>
						<out>5429</out>
						<pproTicksIn>32432762880000</pproTicksIn>
						<pproTicksOut>33097268736000</pproTicksOut>
						<sequence id="sequence-13"/>
							<filter>
								<effect>
									<name>Gain</name>
									<effectid>{61756678, 4761696e, 4b657947}</effectid>
									<effecttype>filter</effecttype>
									<mediatype>audio</mediatype>
									<parameter authoringApp="PremierePro">
										<parameterid>Gain(dB)</parameterid>
										<name>Gain(dB)</name>
										<valuemin>-96</valuemin>
										<valuemax>96</valuemax>
										<value>3</value>
									</parameter>
								</effect>
							</filter>
							<filter>
								<effect>
									<name>Time Remap</name>
									<effectid>timeremap</effectid>
									<effectcategory>motion</effectcategory>
									<effecttype>motion</effecttype>
									<mediatype>audio</mediatype>
									<parameter authoringApp="PremierePro">
										<parameterid>variablespeed</parameterid>
										<name>variablespeed</name>
										<valuemin>0</valuemin>
										<valuemax>1</valuemax>
										<value>0</value>
									</parameter>
									<parameter authoringApp="PremierePro">
										<parameterid>speed</parameterid>
										<name>speed</name>
										<valuemin>-100000</valuemin>
										<valuemax>100000</valuemax>
										<value>60</value>
									</parameter>
									<parameter authoringApp="PremierePro">
										<parameterid>reverse</parameterid>
										<name>reverse</name>
										<value>FALSE</value>
									</parameter>
									<parameter authoringApp="PremierePro">
										<parameterid>frameblending</parameterid>
										<name>frameblending</name>
										<value>FALSE</value>
									</parameter>
									<parameter authoringApp="PremierePro">
										<parameterid>graphdict</parameterid>
										<name>graphdict</name>
										<valuemin>0</valuemin>
										<valuemax>57748</valuemax>
										<value>0</value>
										<keyframe>
											<when>0</when>
											<value>0</value>
											<speedvirtualkf>TRUE</speedvirtualkf>
											<speedkfstart>TRUE</speedkfstart>
										</keyframe>
										<keyframe>
											<when>5320</when>
											<value>3192</value>
											<speedvirtualkf>TRUE</speedvirtualkf>
											<speedkfin>TRUE</speedkfin>
										</keyframe>
										<keyframe>
											<when>5429</when>
											<value>3257</value>
											<speedvirtualkf>TRUE</speedvirtualkf>
											<speedkfout>TRUE</speedkfout>
										</keyframe>
										<keyframe>
											<when>96248</when>
											<value>57748</value>
											<speedvirtualkf>TRUE</speedvirtualkf>
											<speedkfend>TRUE</speedkfend>
										</keyframe>
										<interpolation>
											<name>FCPCurve</name>
										</interpolation>
									</parameter>
								</effect>
							</filter>
						<labels>
							<label2>Forest</label2>
						</labels>
					</clipitem>
					<clipitem id="clipitem-603" premiereChannelType="mono">
						<masterclipid>masterclip-153</masterclipid>
						<name>Stikk5-T01-Multicam</name>
						<enabled>TRUE</enabled>
						<duration>7225</duration>
						<rate>
							<timebase>25</timebase>
							<ntsc>FALSE</ntsc>
						</rate>
						<start>29339</start>
						<end>29384</end>
						<in>5748</in>
						<out>5793</out>
						<pproTicksIn>58403358720000</pproTicksIn>
						<pproTicksOut>58860587520000</pproTicksOut>
						<sequence id="sequence-14" TL.SQAudioVisibleBase="0" TL.SQVideoVisibleBase="0" TL.SQVisibleBaseTime="0" TL.SQAVDividerPosition="0.5" TL.SQHideShyTracks="0" TL.SQHeaderWidth="184" Monitor.ProgramZoomOut="63737694720000" Monitor.ProgramZoomIn="0" TL.SQTimePerPixel="0.35948424068767904" AM.TrackVScrollPosition="0" AM.TrackScrollPosition="0" MZ.EditLine="0" MZ.Sequence.PreviewFrameSizeHeight="1080" MZ.Sequence.PreviewFrameSizeWidth="1920" MZ.Sequence.AudioTimeDisplayFormat="200" MZ.Sequence.PreviewRenderingClassID="1297106761" MZ.Sequence.PreviewRenderingPresetCodec="1297107278" MZ.Sequence.PreviewRenderingPresetPath="EncoderPresets/SequencePreview/795454d9-d3c2-429d-9474-923ab13b7018/I-Frame Only MPEG.epr" MZ.Sequence.PreviewUseMaxRenderQuality="false" MZ.Sequence.PreviewUseMaxBitDepth="false" MZ.Sequence.EditingModeGUID="795454d9-d3c2-429d-9474-923ab13b7018" MZ.Sequence.VideoTimeDisplayFormat="101" MZ.WorkOutPoint="63737694720000" MZ.WorkInPoint="0" MZ.ZeroPoint="14802030512640000">
							<duration>6273</duration>
							<rate>
								<timebase>25</timebase>
								<ntsc>FALSE</ntsc>
							</rate>
							<name>Stikk5-T01-Multicam</name>
							<media>
								<video>
									<format>
										<samplecharacteristics>
											<rate>
												<timebase>25</timebase>
												<ntsc>FALSE</ntsc>
											</rate>
											<codec>
												<name>Apple ProRes 422</name>
												<appspecificdata>
													<appname>Final Cut Pro</appname>
													<appmanufacturer>Apple Inc.</appmanufacturer>
													<appversion>7.0</appversion>
													<data>
														<qtcodec>
															<codecname>Apple ProRes 422</codecname>
															<codectypename>Apple ProRes 422</codectypename>
															<codectypecode>apcn</codectypecode>
															<codecvendorcode>appl</codecvendorcode>
															<spatialquality>1024</spatialquality>
															<temporalquality>0</temporalquality>
															<keyframerate>0</keyframerate>
															<datarate>0</datarate>
														</qtcodec>
													</data>
												</appspecificdata>
											</codec>
											<width>1920</width>
											<height>1080</height>
											<anamorphic>FALSE</anamorphic>
											<pixelaspectratio>square</pixelaspectratio>
											<fielddominance>none</fielddominance>
											<colordepth>24</colordepth>
										</samplecharacteristics>
									</format>
									<track TL.SQTrackShy="0" TL.SQTrackExpandedHeight="25" TL.SQTrackExpanded="0" MZ.TrackTargeted="0">
										<clipitem id="clipitem-604">
											<masterclipid>masterclip-154</masterclipid>
											<name>Clip0041.mov</name>
											<enabled>TRUE</enabled>
											<duration>6936</duration>
											<rate>
												<timebase>25</timebase>
												<ntsc>FALSE</ntsc>
											</rate>
											<start>0</start>
											<end>5984</end>
											<in>952</in>
											<out>6936</out>
											<pproTicksIn>9672929280000</pproTicksIn>
											<pproTicksOut>70474199040000</pproTicksOut>
											<alphatype>none</alphatype>
											<pixelaspectratio>square</pixelaspectratio>
											<anamorphic>FALSE</anamorphic>
											<file id="file-138">
												<name>Clip0041.mov</name>
												<pathurl>file://localhost/Volumes/Bingen/Prosjekter/MYNT194016%20WHATS%20COOKING/Media/Episode%2004%20Vold/Episode-opptak/05042016/KAM%20B/ProRes%202/Clip0041.mov</pathurl>
												<rate>
													<timebase>25</timebase>
													<ntsc>FALSE</ntsc>
												</rate>
												<duration>6936</duration>
												<timecode>
													<rate>
														<timebase>25</timebase>
														<ntsc>FALSE</ntsc>
													</rate>
													<string>15:48:45:00</string>
													<frame>1423125</frame>
													<displayformat>NDF</displayformat>
													<reel>
														<name></name>
													</reel>
												</timecode>
												<media>
													<video>
														<samplecharacteristics>
															<rate>
																<timebase>25</timebase>
																<ntsc>FALSE</ntsc>
															</rate>
															<width>1920</width>
															<height>1080</height>
															<anamorphic>FALSE</anamorphic>
															<pixelaspectratio>square</pixelaspectratio>
															<fielddominance>none</fielddominance>
														</samplecharacteristics>
													</video>
													<audio>
														<samplecharacteristics>
															<depth>16</depth>
															<samplerate>48000</samplerate>
														</samplecharacteristics>
														<channelcount>1</channelcount>
														<audiochannel>
															<sourcechannel>1</sourcechannel>
														</audiochannel>
													</audio>
													<audio>
														<samplecharacteristics>
															<depth>16</depth>
															<samplerate>48000</samplerate>
														</samplecharacteristics>
														<channelcount>1</channelcount>
														<audiochannel>
															<sourcechannel>2</sourcechannel>
														</audiochannel>
													</audio>
													<audio>
														<samplecharacteristics>
															<depth>16</depth>
															<samplerate>48000</samplerate>
														</samplecharacteristics>
														<channelcount>1</channelcount>
														<audiochannel>
															<sourcechannel>3</sourcechannel>
														</audiochannel>
													</audio>
													<audio>
														<samplecharacteristics>
															<depth>16</depth>
															<samplerate>48000</samplerate>
														</samplecharacteristics>
														<channelcount>1</channelcount>
														<audiochannel>
															<sourcechannel>4</sourcechannel>
														</audiochannel>
													</audio>
												</media>
											</file>
											<link>
												<linkclipref>clipitem-604</linkclipref>
												<mediatype>video</mediatype>
												<trackindex>1</trackindex>
												<clipindex>1</clipindex>
											</link>
											<link>
												<linkclipref>clipitem-609</linkclipref>
												<mediatype>audio</mediatype>
												<trackindex>5</trackindex>
												<clipindex>1</clipindex>
												<groupindex>1</groupindex>
											</link>
											<link>
												<linkclipref>clipitem-610</linkclipref>
												<mediatype>audio</mediatype>
												<trackindex>6</trackindex>
												<clipindex>1</clipindex>
												<groupindex>1</groupindex>
											</link>
											<logginginfo>
												<description>Stikk 5 EXT. 3sk konklusjon</description>
												<scene></scene>
												<shottake></shottake>
												<lognote></lognote>
											</logginginfo>
											<labels>
												<label2>Iris</label2>
											</labels>
										</clipitem>
										<enabled>TRUE</enabled>
										<locked>FALSE</locked>
									</track>
								</video>
								<audio>
									<numOutputChannels>4</numOutputChannels>
									<format>
										<samplecharacteristics>
											<depth>16</depth>
											<samplerate>48000</samplerate>
										</samplecharacteristics>
									</format>
									<outputs>
										<group>
											<index>1</index>
											<numchannels>1</numchannels>
											<downmix>0</downmix>
											<channel>
												<index>1</index>
											</channel>
										</group>
										<group>
											<index>2</index>
											<numchannels>1</numchannels>
											<downmix>0</downmix>
											<channel>
												<index>2</index>
											</channel>
										</group>
										<group>
											<index>3</index>
											<numchannels>1</numchannels>
											<downmix>0</downmix>
											<channel>
												<index>3</index>
											</channel>
										</group>
										<group>
											<index>4</index>
											<numchannels>1</numchannels>
											<downmix>0</downmix>
											<channel>
												<index>4</index>
											</channel>
										</group>
									</outputs>
									<track TL.SQTrackAudioKeyframeStyle="0" TL.SQTrackShy="0" TL.SQTrackExpandedHeight="25" TL.SQTrackExpanded="0" MZ.TrackTargeted="1" PannerCurrentValue="0" PannerIsInverted="true" PannerStartKeyframe="-91445760000000000,0.,0,0,0,0,0,0" PannerName="Balance" currentExplodedTrackIndex="0" totalExplodedTrackCount="1" premiereTrackType="Stereo">
										<clipitem id="clipitem-605" premiereChannelType="mono">
											<masterclipid>masterclip-155</masterclipid>
											<name>BOWLPRATT05.WAV</name>
											<enabled>TRUE</enabled>
											<duration>6274</duration>
											<rate>
												<timebase>25</timebase>
												<ntsc>FALSE</ntsc>
											</rate>
											<start>0</start>
											<end>6273</end>
											<in>1</in>
											<out>6274</out>
											<pproTicksIn>10160640000</pproTicksIn>
											<pproTicksOut>63747855360000</pproTicksOut>
											<file id="file-139">
												<name>BOWLPRATT05.WAV</name>
												<pathurl>file://localhost/Volumes/Bingen/Prosjekter/MYNT194016%20WHATS%20COOKING/Media/Episode%2004%20Vold/Episode-opptak/05042016/LYD/BOWLPRATT05.WAV</pathurl>
												<rate>
													<timebase>30</timebase>
													<ntsc>TRUE</ntsc>
												</rate>
												<duration>7522</duration>
												<timecode>
													<rate>
														<timebase>30</timebase>
														<ntsc>TRUE</ntsc>
													</rate>
													<string>16;11;12;01</string>
													<frame>1746413</frame>
													<displayformat>DF</displayformat>
													<reel>
														<name>BOWLEXT</name>
													</reel>
												</timecode>
												<media>
													<audio>
														<samplecharacteristics>
															<depth>16</depth>
															<samplerate>48000</samplerate>
														</samplecharacteristics>
														<channelcount>1</channelcount>
														<audiochannel>
															<sourcechannel>1</sourcechannel>
														</audiochannel>
													</audio>
													<audio>
														<samplecharacteristics>
															<depth>16</depth>
															<samplerate>48000</samplerate>
														</samplecharacteristics>
														<channelcount>1</channelcount>
														<audiochannel>
															<sourcechannel>2</sourcechannel>
														</audiochannel>
													</audio>
													<audio>
														<samplecharacteristics>
															<depth>16</depth>
															<samplerate>48000</samplerate>
														</samplecharacteristics>
														<channelcount>1</channelcount>
														<audiochannel>
															<sourcechannel>3</sourcechannel>
														</audiochannel>
													</audio>
													<audio>
														<samplecharacteristics>
															<depth>16</depth>
															<samplerate>48000</samplerate>
														</samplecharacteristics>
														<channelcount>1</channelcount>
														<audiochannel>
															<sourcechannel>4</sourcechannel>
														</audiochannel>
													</audio>
												</media>
											</file>
											<sourcetrack>
												<mediatype>audio</mediatype>
												<trackindex>1</trackindex>
											</sourcetrack>
											<link>
												<linkclipref>clipitem-605</linkclipref>
												<mediatype>audio</mediatype>
												<trackindex>1</trackindex>
												<clipindex>1</clipindex>
												<groupindex>1</groupindex>
											</link>
											<link>
												<linkclipref>clipitem-606</linkclipref>
												<mediatype>audio</mediatype>
												<trackindex>2</trackindex>
												<clipindex>1</clipindex>
												<groupindex>1</groupindex>
											</link>
											<link>
												<linkclipref>clipitem-607</linkclipref>
												<mediatype>audio</mediatype>
												<trackindex>3</trackindex>
												<clipindex>1</clipindex>
												<groupindex>1</groupindex>
											</link>
											<link>
												<linkclipref>clipitem-608</linkclipref>
												<mediatype>audio</mediatype>
												<trackindex>4</trackindex>
												<clipindex>1</clipindex>
												<groupindex>1</groupindex>
											</link>
											<logginginfo>
												<description>Stikk 5 konklusjon</description>
												<scene>BOWLPRAT</scene>
												<shottake></shottake>
												<lognote></lognote>
											</logginginfo>
											<labels>
												<label2>Caribbean</label2>
											</labels>
										</clipitem>
										<enabled>TRUE</enabled>
										<locked>FALSE</locked>
										<outputchannelindex>1</outputchannelindex>
									</track>
									<track TL.SQTrackAudioKeyframeStyle="0" TL.SQTrackShy="0" TL.SQTrackExpandedHeight="25" TL.SQTrackExpanded="0" MZ.TrackTargeted="1" PannerIsInverted="true" PannerName="Balance" currentExplodedTrackIndex="0" totalExplodedTrackCount="1" premiereTrackType="Stereo">
										<clipitem id="clipitem-606" premiereChannelType="mono">
											<masterclipid>masterclip-155</masterclipid>
											<name>BOWLPRATT05.WAV</name>
											<enabled>TRUE</enabled>
											<duration>6274</duration>
											<rate>
												<timebase>25</timebase>
												<ntsc>FALSE</ntsc>
											</rate>
											<start>0</start>
											<end>6273</end>
											<in>1</in>
											<out>6274</out>
											<pproTicksIn>10160640000</pproTicksIn>
											<pproTicksOut>63747855360000</pproTicksOut>
											<file id="file-139"/>
											<sourcetrack>
												<mediatype>audio</mediatype>
												<trackindex>2</trackindex>
											</sourcetrack>
											<link>
												<linkclipref>clipitem-605</linkclipref>
												<mediatype>audio</mediatype>
												<trackindex>1</trackindex>
												<clipindex>1</clipindex>
												<groupindex>1</groupindex>
											</link>
											<link>
												<linkclipref>clipitem-606</linkclipref>
												<mediatype>audio</mediatype>
												<trackindex>2</trackindex>
												<clipindex>1</clipindex>
												<groupindex>1</groupindex>
											</link>
											<link>
												<linkclipref>clipitem-607</linkclipref>
												<mediatype>audio</mediatype>
												<trackindex>3</trackindex>
												<clipindex>1</clipindex>
												<groupindex>1</groupindex>
											</link>
											<link>
												<linkclipref>clipitem-608</linkclipref>
												<mediatype>audio</mediatype>
												<trackindex>4</trackindex>
												<clipindex>1</clipindex>
												<groupindex>1</groupindex>
											</link>
											<logginginfo>
												<description>Stikk 5 konklusjon</description>
												<scene>BOWLPRAT</scene>
												<shottake></shottake>
												<lognote></lognote>
											</logginginfo>
											<labels>
												<label2>Caribbean</label2>
											</labels>
										</clipitem>
										<enabled>TRUE</enabled>
										<locked>FALSE</locked>
										<outputchannelindex>2</outputchannelindex>
									</track>
									<track TL.SQTrackAudioKeyframeStyle="0" TL.SQTrackShy="0" TL.SQTrackExpandedHeight="25" TL.SQTrackExpanded="0" MZ.TrackTargeted="1" PannerCurrentValue="0" PannerIsInverted="true" PannerStartKeyframe="-91445760000000000,0.,0,0,0,0,0,0" PannerName="Balance" currentExplodedTrackIndex="0" totalExplodedTrackCount="1" premiereTrackType="Stereo">
										<clipitem id="clipitem-607" premiereChannelType="mono">
											<masterclipid>masterclip-155</masterclipid>
											<name>BOWLPRATT05.WAV</name>
											<enabled>TRUE</enabled>
											<duration>6274</duration>
											<rate>
												<timebase>25</timebase>
												<ntsc>FALSE</ntsc>
											</rate>
											<start>0</start>
											<end>6273</end>
											<in>1</in>
											<out>6274</out>
											<pproTicksIn>10160640000</pproTicksIn>
											<pproTicksOut>63747855360000</pproTicksOut>
											<file id="file-139"/>
											<sourcetrack>
												<mediatype>audio</mediatype>
												<trackindex>3</trackindex>
											</sourcetrack>
											<link>
												<linkclipref>clipitem-605</linkclipref>
												<mediatype>audio</mediatype>
												<trackindex>1</trackindex>
												<clipindex>1</clipindex>
												<groupindex>1</groupindex>
											</link>
											<link>
												<linkclipref>clipitem-606</linkclipref>
												<mediatype>audio</mediatype>
												<trackindex>2</trackindex>
												<clipindex>1</clipindex>
												<groupindex>1</groupindex>
											</link>
											<link>
												<linkclipref>clipitem-607</linkclipref>
												<mediatype>audio</mediatype>
												<trackindex>3</trackindex>
												<clipindex>1</clipindex>
												<groupindex>1</groupindex>
											</link>
											<link>
												<linkclipref>clipitem-608</linkclipref>
												<mediatype>audio</mediatype>
												<trackindex>4</trackindex>
												<clipindex>1</clipindex>
												<groupindex>1</groupindex>
											</link>
											<logginginfo>
												<description>Stikk 5 konklusjon</description>
												<scene>BOWLPRAT</scene>
												<shottake></shottake>
												<lognote></lognote>
											</logginginfo>
											<labels>
												<label2>Caribbean</label2>
											</labels>
										</clipitem>
										<enabled>TRUE</enabled>
										<locked>FALSE</locked>
										<outputchannelindex>3</outputchannelindex>
									</track>
									<track TL.SQTrackAudioKeyframeStyle="0" TL.SQTrackShy="0" TL.SQTrackExpandedHeight="25" TL.SQTrackExpanded="0" MZ.TrackTargeted="1" PannerIsInverted="true" PannerName="Balance" currentExplodedTrackIndex="0" totalExplodedTrackCount="1" premiereTrackType="Stereo">
										<clipitem id="clipitem-608" premiereChannelType="mono">
											<masterclipid>masterclip-155</masterclipid>
											<name>BOWLPRATT05.WAV</name>
											<enabled>TRUE</enabled>
											<duration>6274</duration>
											<rate>
												<timebase>25</timebase>
												<ntsc>FALSE</ntsc>
											</rate>
											<start>0</start>
											<end>6273</end>
											<in>1</in>
											<out>6274</out>
											<pproTicksIn>10160640000</pproTicksIn>
											<pproTicksOut>63747855360000</pproTicksOut>
											<file id="file-139"/>
											<sourcetrack>
												<mediatype>audio</mediatype>
												<trackindex>4</trackindex>
											</sourcetrack>
											<link>
												<linkclipref>clipitem-605</linkclipref>
												<mediatype>audio</mediatype>
												<trackindex>1</trackindex>
												<clipindex>1</clipindex>
												<groupindex>1</groupindex>
											</link>
											<link>
												<linkclipref>clipitem-606</linkclipref>
												<mediatype>audio</mediatype>
												<trackindex>2</trackindex>
												<clipindex>1</clipindex>
												<groupindex>1</groupindex>
											</link>
											<link>
												<linkclipref>clipitem-607</linkclipref>
												<mediatype>audio</mediatype>
												<trackindex>3</trackindex>
												<clipindex>1</clipindex>
												<groupindex>1</groupindex>
											</link>
											<link>
												<linkclipref>clipitem-608</linkclipref>
												<mediatype>audio</mediatype>
												<trackindex>4</trackindex>
												<clipindex>1</clipindex>
												<groupindex>1</groupindex>
											</link>
											<logginginfo>
												<description>Stikk 5 konklusjon</description>
												<scene>BOWLPRAT</scene>
												<shottake></shottake>
												<lognote></lognote>
											</logginginfo>
											<labels>
												<label2>Caribbean</label2>
											</labels>
										</clipitem>
										<enabled>TRUE</enabled>
										<locked>FALSE</locked>
										<outputchannelindex>4</outputchannelindex>
									</track>
									<track TL.SQTrackAudioKeyframeStyle="0" TL.SQTrackShy="0" TL.SQTrackExpandedHeight="25" TL.SQTrackExpanded="0" MZ.TrackTargeted="0" PannerCurrentValue="0.5" PannerIsInverted="true" PannerStartKeyframe="-91445760000000000,0.5,0,0,0,0,0,0" PannerName="Balance" currentExplodedTrackIndex="0" totalExplodedTrackCount="1" premiereTrackType="Stereo">
										<clipitem id="clipitem-609" premiereChannelType="mono">
											<masterclipid>masterclip-154</masterclipid>
											<name>Clip0041.mov</name>
											<enabled>TRUE</enabled>
											<duration>6936</duration>
											<rate>
												<timebase>25</timebase>
												<ntsc>FALSE</ntsc>
											</rate>
											<start>0</start>
											<end>5984</end>
											<in>952</in>
											<out>6936</out>
											<pproTicksIn>9672929280000</pproTicksIn>
											<pproTicksOut>70474199040000</pproTicksOut>
											<file id="file-138"/>
											<sourcetrack>
												<mediatype>audio</mediatype>
												<trackindex>1</trackindex>
											</sourcetrack>
											<link>
												<linkclipref>clipitem-604</linkclipref>
												<mediatype>video</mediatype>
												<trackindex>1</trackindex>
												<clipindex>1</clipindex>
											</link>
											<link>
												<linkclipref>clipitem-609</linkclipref>
												<mediatype>audio</mediatype>
												<trackindex>5</trackindex>
												<clipindex>1</clipindex>
												<groupindex>1</groupindex>
											</link>
											<link>
												<linkclipref>clipitem-610</linkclipref>
												<mediatype>audio</mediatype>
												<trackindex>6</trackindex>
												<clipindex>1</clipindex>
												<groupindex>1</groupindex>
											</link>
											<logginginfo>
												<description>Stikk 5 EXT. 3sk konklusjon</description>
												<scene></scene>
												<shottake></shottake>
												<lognote></lognote>
											</logginginfo>
											<labels>
												<label2>Iris</label2>
											</labels>
										</clipitem>
										<enabled>FALSE</enabled>
										<locked>FALSE</locked>
										<outputchannelindex>1</outputchannelindex>
									</track>
									<track TL.SQTrackAudioKeyframeStyle="0" TL.SQTrackShy="0" TL.SQTrackExpandedHeight="25" TL.SQTrackExpanded="0" MZ.TrackTargeted="0" PannerCurrentValue="0.5" PannerIsInverted="true" PannerStartKeyframe="-91445760000000000,0.5,0,0,0,0,0,0" PannerName="Balance" currentExplodedTrackIndex="0" totalExplodedTrackCount="1" premiereTrackType="Stereo">
										<clipitem id="clipitem-610" premiereChannelType="mono">
											<masterclipid>masterclip-154</masterclipid>
											<name>Clip0041.mov</name>
											<enabled>TRUE</enabled>
											<duration>6936</duration>
											<rate>
												<timebase>25</timebase>
												<ntsc>FALSE</ntsc>
											</rate>
											<start>0</start>
											<end>5984</end>
											<in>952</in>
											<out>6936</out>
											<pproTicksIn>9672929280000</pproTicksIn>
											<pproTicksOut>70474199040000</pproTicksOut>
											<file id="file-138"/>
											<sourcetrack>
												<mediatype>audio</mediatype>
												<trackindex>1</trackindex>
											</sourcetrack>
											<link>
												<linkclipref>clipitem-604</linkclipref>
												<mediatype>video</mediatype>
												<trackindex>1</trackindex>
												<clipindex>1</clipindex>
											</link>
											<link>
												<linkclipref>clipitem-609</linkclipref>
												<mediatype>audio</mediatype>
												<trackindex>5</trackindex>
												<clipindex>1</clipindex>
												<groupindex>1</groupindex>
											</link>
											<link>
												<linkclipref>clipitem-610</linkclipref>
												<mediatype>audio</mediatype>
												<trackindex>6</trackindex>
												<clipindex>1</clipindex>
												<groupindex>1</groupindex>
											</link>
											<logginginfo>
												<description>Stikk 5 EXT. 3sk konklusjon</description>
												<scene></scene>
												<shottake></shottake>
												<lognote></lognote>
											</logginginfo>
											<labels>
												<label2>Iris</label2>
											</labels>
										</clipitem>
										<enabled>FALSE</enabled>
										<locked>FALSE</locked>
										<outputchannelindex>2</outputchannelindex>
									</track>
								</audio>
							</media>
							<timecode>
								<rate>
									<timebase>25</timebase>
									<ntsc>FALSE</ntsc>
								</rate>
								<string>16:11:12:01</string>
								<frame>1456801</frame>
								<displayformat>NDF</displayformat>
							</timecode>
								<marker>
									<comment></comment>
									<name></name>
									<in>2599</in>
									<out>-1</out>
								</marker>
								<marker>
									<comment></comment>
									<name></name>
									<in>4856</in>
									<out>-1</out>
								</marker>
						</sequence>
							<filter>
								<effect>
									<name>Gain</name>
									<effectid>{61756678, 4761696e, 4b657947}</effectid>
									<effecttype>filter</effecttype>
									<mediatype>audio</mediatype>
									<parameter authoringApp="PremierePro">
										<parameterid>Gain(dB)</parameterid>
										<name>Gain(dB)</name>
										<valuemin>-96</valuemin>
										<valuemax>96</valuemax>
										<value>11</value>
									</parameter>
								</effect>
							</filter>
						<link>
							<linkclipref>clipitem-603</linkclipref>
							<mediatype>audio</mediatype>
							<trackindex>9</trackindex>
							<clipindex>33</clipindex>
							<groupindex>1</groupindex>
						</link>
						<link>
							<linkclipref>clipitem-655</linkclipref>
							<mediatype>audio</mediatype>
							<trackindex>11</trackindex>
							<clipindex>43</clipindex>
							<groupindex>1</groupindex>
						</link>
						<labels>
							<label2>Forest</label2>
						</labels>
					</clipitem>
					<clipitem id="clipitem-611" premiereChannelType="mono">
						<masterclipid>masterclip-153</masterclipid>
						<name>Stikk5-T01-Multicam</name>
						<enabled>TRUE</enabled>
						<duration>7225</duration>
						<rate>
							<timebase>25</timebase>
							<ntsc>FALSE</ntsc>
						</rate>
						<start>29384</start>
						<end>-1</end>
						<in>5793</in>
						<out>5822</out>
						<pproTicksIn>58860587520000</pproTicksIn>
						<pproTicksOut>59155246080000</pproTicksOut>
						<sequence id="sequence-14"/>
							<filter>
								<effect>
									<name>Gain</name>
									<effectid>{61756678, 4761696e, 4b657947}</effectid>
									<effecttype>filter</effecttype>
									<mediatype>audio</mediatype>
									<parameter authoringApp="PremierePro">
										<parameterid>Gain(dB)</parameterid>
										<name>Gain(dB)</name>
										<valuemin>-96</valuemin>
										<valuemax>96</valuemax>
										<value>11</value>
									</parameter>
								</effect>
							</filter>
						<link>
							<linkclipref>clipitem-611</linkclipref>
							<mediatype>audio</mediatype>
							<trackindex>9</trackindex>
							<clipindex>34</clipindex>
							<groupindex>1</groupindex>
						</link>
						<link>
							<linkclipref>clipitem-656</linkclipref>
							<mediatype>audio</mediatype>
							<trackindex>11</trackindex>
							<clipindex>44</clipindex>
							<groupindex>1</groupindex>
						</link>
						<labels>
							<label2>Forest</label2>
						</labels>
					</clipitem>
					<transitionitem>
						<start>29400</start>
						<end>29413</end>
						<alignment>end-black</alignment>
						<cutPointTicks>132088320000</cutPointTicks>
						<rate>
							<timebase>25</timebase>
							<ntsc>FALSE</ntsc>
						</rate>
						<effect>
							<name>Cross Fade (+3dB)</name>
							<effectid>KGAudioTransCrossFade3dB</effectid>
							<effecttype>transition</effecttype>
							<mediatype>audio</mediatype>
							<wipecode>0</wipecode>
							<wipeaccuracy>100</wipeaccuracy>
							<startratio>0</startratio>
							<endratio>1</endratio>
							<reverse>FALSE</reverse>
						</effect>
					</transitionitem>
					<enabled>TRUE</enabled>
					<locked>FALSE</locked>
					<outputchannelindex>1</outputchannelindex>
				</track>
				<track TL.SQTrackAudioKeyframeStyle="0" TL.SQTrackShy="0" TL.SQTrackExpandedHeight="35" TL.SQTrackExpanded="1" MZ.TrackTargeted="1" PannerCurrentValue="0.5" PannerIsInverted="true" PannerStartKeyframe="-91445760000000000,0.5,0,0,0,0,0,0" PannerName="Balance" currentExplodedTrackIndex="1" totalExplodedTrackCount="2" premiereTrackType="Stereo">
					<clipitem id="clipitem-612" premiereChannelType="stereo">
						<masterclipid>masterclip-122</masterclipid>
						<name>BM004209.wav</name>
						<enabled>TRUE</enabled>
						<duration>4843</duration>
						<rate>
							<timebase>25</timebase>
							<ntsc>FALSE</ntsc>
						</rate>
						<start>0</start>
						<end>-1</end>
						<in>346</in>
						<out>369</out>
						<pproTicksIn>3515581440000</pproTicksIn>
						<pproTicksOut>3749276160000</pproTicksOut>
						<file id="file-111"/>
						<sourcetrack>
							<mediatype>audio</mediatype>
							<trackindex>2</trackindex>
						</sourcetrack>
							<filter>
								<effect>
									<name>Gain</name>
									<effectid>{61756678, 4761696e, 4b657947}</effectid>
									<effecttype>filter</effecttype>
									<mediatype>audio</mediatype>
									<parameter authoringApp="PremierePro">
										<parameterid>Gain(dB)</parameterid>
										<name>Gain(dB)</name>
										<valuemin>-96</valuemin>
										<valuemax>96</valuemax>
										<value>-28</value>
									</parameter>
								</effect>
							</filter>
						<link>
							<linkclipref>clipitem-530</linkclipref>
							<mediatype>audio</mediatype>
							<trackindex>9</trackindex>
							<clipindex>1</clipindex>
							<groupindex>1</groupindex>
						</link>
						<link>
							<linkclipref>clipitem-612</linkclipref>
							<mediatype>audio</mediatype>
							<trackindex>10</trackindex>
							<clipindex>1</clipindex>
							<groupindex>1</groupindex>
						</link>
						<logginginfo>
							<description></description>
							<scene></scene>
							<shottake></shottake>
							<lognote></lognote>
						</logginginfo>
						<labels>
							<label2>Caribbean</label2>
						</labels>
					</clipitem>
					<transitionitem>
						<start>10</start>
						<end>23</end>
						<alignment>end-black</alignment>
						<cutPointTicks>132088320000</cutPointTicks>
						<rate>
							<timebase>25</timebase>
							<ntsc>FALSE</ntsc>
						</rate>
						<effect>
							<name>Cross Fade (+3dB)</name>
							<effectid>KGAudioTransCrossFade3dB</effectid>
							<effecttype>transition</effecttype>
							<mediatype>audio</mediatype>
							<wipecode>0</wipecode>
							<wipeaccuracy>100</wipeaccuracy>
							<startratio>0</startratio>
							<endratio>1</endratio>
							<reverse>FALSE</reverse>
						</effect>
					</transitionitem>
					<clipitem id="clipitem-613" premiereChannelType="stereo">
						<masterclipid>masterclip-123</masterclipid>
						<name>Vold - Sverd 2</name>
						<enabled>TRUE</enabled>
						<duration>84037</duration>
						<rate>
							<timebase>25</timebase>
							<ntsc>FALSE</ntsc>
						</rate>
						<start>98</start>
						<end>117</end>
						<in>8913</in>
						<out>8932</out>
						<pproTicksIn>90561784320000</pproTicksIn>
						<pproTicksOut>90754836480000</pproTicksOut>
						<sequence id="sequence-10"/>
							<filter>
								<effect>
									<name>Gain</name>
									<effectid>{61756678, 4761696e, 4b657947}</effectid>
									<effecttype>filter</effecttype>
									<mediatype>audio</mediatype>
									<parameter authoringApp="PremierePro">
										<parameterid>Gain(dB)</parameterid>
										<name>Gain(dB)</name>
										<valuemin>-96</valuemin>
										<valuemax>96</valuemax>
										<value>-12</value>
									</parameter>
								</effect>
							</filter>
						<link>
							<linkclipref>clipitem-531</linkclipref>
							<mediatype>audio</mediatype>
							<trackindex>9</trackindex>
							<clipindex>3</clipindex>
							<groupindex>1</groupindex>
						</link>
						<link>
							<linkclipref>clipitem-613</linkclipref>
							<mediatype>audio</mediatype>
							<trackindex>10</trackindex>
							<clipindex>3</clipindex>
							<groupindex>1</groupindex>
						</link>
						<labels>
							<label2>Forest</label2>
						</labels>
					</clipitem>
					<clipitem id="clipitem-614" premiereChannelType="stereo">
						<masterclipid>masterclip-127</masterclipid>
						<name>47982__benhillyard__vocal-splat-10_01.wav</name>
						<enabled>TRUE</enabled>
						<duration>56</duration>
						<rate>
							<timebase>25</timebase>
							<ntsc>FALSE</ntsc>
						</rate>
						<start>117</start>
						<end>123</end>
						<in>0</in>
						<out>6</out>
						<pproTicksIn>0</pproTicksIn>
						<pproTicksOut>60963840000</pproTicksOut>
						<file id="file-115"/>
						<sourcetrack>
							<mediatype>audio</mediatype>
							<trackindex>2</trackindex>
						</sourcetrack>
							<filter>
								<effect>
									<name>Gain</name>
									<effectid>{61756678, 4761696e, 4b657947}</effectid>
									<effecttype>filter</effecttype>
									<mediatype>audio</mediatype>
									<parameter authoringApp="PremierePro">
										<parameterid>Gain(dB)</parameterid>
										<name>Gain(dB)</name>
										<valuemin>-96</valuemin>
										<valuemax>96</valuemax>
										<value>-4</value>
									</parameter>
								</effect>
							</filter>
						<link>
							<linkclipref>clipitem-541</linkclipref>
							<mediatype>audio</mediatype>
							<trackindex>9</trackindex>
							<clipindex>4</clipindex>
							<groupindex>1</groupindex>
						</link>
						<link>
							<linkclipref>clipitem-614</linkclipref>
							<mediatype>audio</mediatype>
							<trackindex>10</trackindex>
							<clipindex>4</clipindex>
							<groupindex>1</groupindex>
						</link>
						<logginginfo>
							<description></description>
							<scene></scene>
							<shottake></shottake>
							<lognote></lognote>
						</logginginfo>
						<labels>
							<label2>Caribbean</label2>
						</labels>
					</clipitem>
					<clipitem id="clipitem-615" premiereChannelType="stereo">
						<masterclipid>masterclip-127</masterclipid>
						<name>47982__benhillyard__vocal-splat-10_01.wav</name>
						<enabled>TRUE</enabled>
						<duration>56</duration>
						<rate>
							<timebase>25</timebase>
							<ntsc>FALSE</ntsc>
						</rate>
						<start>146</start>
						<end>159</end>
						<in>6</in>
						<out>19</out>
						<pproTicksIn>60963840000</pproTicksIn>
						<pproTicksOut>193052160000</pproTicksOut>
						<file id="file-115"/>
						<sourcetrack>
							<mediatype>audio</mediatype>
							<trackindex>2</trackindex>
						</sourcetrack>
							<filter>
								<effect>
									<name>Gain</name>
									<effectid>{61756678, 4761696e, 4b657947}</effectid>
									<effecttype>filter</effecttype>
									<mediatype>audio</mediatype>
									<parameter authoringApp="PremierePro">
										<parameterid>Gain(dB)</parameterid>
										<name>Gain(dB)</name>
										<valuemin>-96</valuemin>
										<valuemax>96</valuemax>
										<value>-4</value>
									</parameter>
								</effect>
							</filter>
						<link>
							<linkclipref>clipitem-542</linkclipref>
							<mediatype>audio</mediatype>
							<trackindex>9</trackindex>
							<clipindex>5</clipindex>
							<groupindex>1</groupindex>
						</link>
						<link>
							<linkclipref>clipitem-615</linkclipref>
							<mediatype>audio</mediatype>
							<trackindex>10</trackindex>
							<clipindex>5</clipindex>
							<groupindex>1</groupindex>
						</link>
						<logginginfo>
							<description></description>
							<scene></scene>
							<shottake></shottake>
							<lognote></lognote>
						</logginginfo>
						<labels>
							<label2>Caribbean</label2>
						</labels>
					</clipitem>
					<clipitem id="clipitem-616" premiereChannelType="stereo">
						<masterclipid>masterclip-134</masterclipid>
						<name>165196__swimignorantfire__skull-crack-on-porcelain-tub.wav</name>
						<enabled>TRUE</enabled>
						<duration>56</duration>
						<rate>
							<timebase>25</timebase>
							<ntsc>FALSE</ntsc>
						</rate>
						<start>273</start>
						<end>288</end>
						<in>4</in>
						<out>19</out>
						<pproTicksIn>40642560000</pproTicksIn>
						<pproTicksOut>193052160000</pproTicksOut>
						<file id="file-121"/>
						<sourcetrack>
							<mediatype>audio</mediatype>
							<trackindex>2</trackindex>
						</sourcetrack>
							<filter>
								<effect>
									<name>Audio Levels</name>
									<effectid>audiolevels</effectid>
									<effectcategory>audiolevels</effectcategory>
									<effecttype>audiolevels</effecttype>
									<mediatype>audio</mediatype>
									<parameter authoringApp="PremierePro">
										<parameterid>level</parameterid>
										<name>Level</name>
										<valuemin>0</valuemin>
										<valuemax>3.98109</valuemax>
										<value>0.0934747</value>
									</parameter>
								</effect>
							</filter>
						<link>
							<linkclipref>clipitem-556</linkclipref>
							<mediatype>audio</mediatype>
							<trackindex>9</trackindex>
							<clipindex>8</clipindex>
							<groupindex>1</groupindex>
						</link>
						<link>
							<linkclipref>clipitem-616</linkclipref>
							<mediatype>audio</mediatype>
							<trackindex>10</trackindex>
							<clipindex>6</clipindex>
							<groupindex>1</groupindex>
						</link>
						<logginginfo>
							<description></description>
							<scene></scene>
							<shottake></shottake>
							<lognote></lognote>
						</logginginfo>
						<labels>
							<label2>Caribbean</label2>
						</labels>
					</clipitem>
					<transitionitem>
						<start>1028</start>
						<end>1041</end>
						<alignment>start-black</alignment>
						<cutPointTicks>0</cutPointTicks>
						<rate>
							<timebase>25</timebase>
							<ntsc>FALSE</ntsc>
						</rate>
						<effect>
							<name>Cross Fade (+3dB)</name>
							<effectid>KGAudioTransCrossFade3dB</effectid>
							<effecttype>transition</effecttype>
							<mediatype>audio</mediatype>
							<wipecode>0</wipecode>
							<wipeaccuracy>100</wipeaccuracy>
							<startratio>0</startratio>
							<endratio>1</endratio>
							<reverse>FALSE</reverse>
						</effect>
					</transitionitem>
					<clipitem id="clipitem-617" premiereChannelType="stereo">
						<masterclipid>masterclip-135</masterclipid>
						<name>NONRO180508CD0013 Swagga Like Us.wav</name>
						<enabled>TRUE</enabled>
						<duration>8191</duration>
						<rate>
							<timebase>25</timebase>
							<ntsc>FALSE</ntsc>
						</rate>
						<start>-1</start>
						<end>-1</end>
						<in>464</in>
						<out>786</out>
						<pproTicksIn>4714536960000</pproTicksIn>
						<pproTicksOut>7986263040000</pproTicksOut>
						<file id="file-122"/>
						<sourcetrack>
							<mediatype>audio</mediatype>
							<trackindex>2</trackindex>
						</sourcetrack>
							<filter>
								<effect>
									<name>Gain</name>
									<effectid>{61756678, 4761696e, 4b657947}</effectid>
									<effecttype>filter</effecttype>
									<mediatype>audio</mediatype>
									<parameter authoringApp="PremierePro">
										<parameterid>Gain(dB)</parameterid>
										<name>Gain(dB)</name>
										<valuemin>-96</valuemin>
										<valuemax>96</valuemax>
										<value>-9</value>
									</parameter>
								</effect>
							</filter>
						<link>
							<linkclipref>clipitem-557</linkclipref>
							<mediatype>audio</mediatype>
							<trackindex>9</trackindex>
							<clipindex>10</clipindex>
							<groupindex>1</groupindex>
						</link>
						<link>
							<linkclipref>clipitem-617</linkclipref>
							<mediatype>audio</mediatype>
							<trackindex>10</trackindex>
							<clipindex>8</clipindex>
							<groupindex>1</groupindex>
						</link>
						<logginginfo>
							<description></description>
							<scene></scene>
							<shottake></shottake>
							<lognote>CD Track 13 archiveNo[180508012]</lognote>
						</logginginfo>
						<labels>
							<label2>Caribbean</label2>
						</labels>
					</clipitem>
					<transitionitem>
						<start>1343</start>
						<end>1350</end>
						<alignment>end-black</alignment>
						<cutPointTicks>71124480000</cutPointTicks>
						<rate>
							<timebase>25</timebase>
							<ntsc>FALSE</ntsc>
						</rate>
						<effect>
							<name>Cross Fade (+3dB)</name>
							<effectid>KGAudioTransCrossFade3dB</effectid>
							<effecttype>transition</effecttype>
							<mediatype>audio</mediatype>
							<wipecode>0</wipecode>
							<wipeaccuracy>100</wipeaccuracy>
							<startratio>0</startratio>
							<endratio>1</endratio>
							<reverse>FALSE</reverse>
						</effect>
					</transitionitem>
					<clipitem id="clipitem-618" premiereChannelType="stereo">
						<masterclipid>masterclip-142</masterclipid>
						<name>128969__driftworks__bowling-ball.wav</name>
						<enabled>TRUE</enabled>
						<duration>110</duration>
						<rate>
							<timebase>25</timebase>
							<ntsc>FALSE</ntsc>
						</rate>
						<start>5197</start>
						<end>5242</end>
						<in>0</in>
						<out>45</out>
						<pproTicksIn>0</pproTicksIn>
						<pproTicksOut>457228800000</pproTicksOut>
						<file id="file-128"/>
						<sourcetrack>
							<mediatype>audio</mediatype>
							<trackindex>2</trackindex>
						</sourcetrack>
							<filter>
								<effect>
									<name>Gain</name>
									<effectid>{61756678, 4761696e, 4b657947}</effectid>
									<effecttype>filter</effecttype>
									<mediatype>audio</mediatype>
									<parameter authoringApp="PremierePro">
										<parameterid>Gain(dB)</parameterid>
										<name>Gain(dB)</name>
										<valuemin>-96</valuemin>
										<valuemax>96</valuemax>
										<value>-10</value>
									</parameter>
								</effect>
							</filter>
						<link>
							<linkclipref>clipitem-575</linkclipref>
							<mediatype>audio</mediatype>
							<trackindex>9</trackindex>
							<clipindex>13</clipindex>
							<groupindex>1</groupindex>
						</link>
						<link>
							<linkclipref>clipitem-618</linkclipref>
							<mediatype>audio</mediatype>
							<trackindex>10</trackindex>
							<clipindex>10</clipindex>
							<groupindex>1</groupindex>
						</link>
						<logginginfo>
							<description></description>
							<scene></scene>
							<shottake></shottake>
							<lognote></lognote>
						</logginginfo>
						<labels>
							<label2>Caribbean</label2>
						</labels>
					</clipitem>
					<clipitem id="clipitem-619" premiereChannelType="stereo">
						<masterclipid>masterclip-145</masterclipid>
						<name>NONRE639242HD0002 Trust Me Danny.wav</name>
						<enabled>TRUE</enabled>
						<duration>6105</duration>
						<rate>
							<timebase>25</timebase>
							<ntsc>FALSE</ntsc>
						</rate>
						<start>13381</start>
						<end>-1</end>
						<in>0</in>
						<out>174</out>
						<pproTicksIn>0</pproTicksIn>
						<pproTicksOut>1767951360000</pproTicksOut>
						<file id="file-131"/>
						<sourcetrack>
							<mediatype>audio</mediatype>
							<trackindex>2</trackindex>
						</sourcetrack>
							<filter>
								<effect>
									<name>Gain</name>
									<effectid>{61756678, 4761696e, 4b657947}</effectid>
									<effecttype>filter</effecttype>
									<mediatype>audio</mediatype>
									<parameter authoringApp="PremierePro">
										<parameterid>Gain(dB)</parameterid>
										<name>Gain(dB)</name>
										<valuemin>-96</valuemin>
										<valuemax>96</valuemax>
										<value>-10</value>
									</parameter>
								</effect>
							</filter>
						<link>
							<linkclipref>clipitem-578</linkclipref>
							<mediatype>audio</mediatype>
							<trackindex>9</trackindex>
							<clipindex>16</clipindex>
							<groupindex>1</groupindex>
						</link>
						<link>
							<linkclipref>clipitem-619</linkclipref>
							<mediatype>audio</mediatype>
							<trackindex>10</trackindex>
							<clipindex>11</clipindex>
							<groupindex>1</groupindex>
						</link>
						<logginginfo>
							<description></description>
							<scene></scene>
							<shottake></shottake>
							<lognote></lognote>
						</logginginfo>
						<labels>
							<label2>Violet</label2>
						</labels>
					</clipitem>
					<transitionitem>
						<start>13542</start>
						<end>13555</end>
						<alignment>center</alignment>
						<cutPointTicks>60963840000</cutPointTicks>
						<rate>
							<timebase>25</timebase>
							<ntsc>FALSE</ntsc>
						</rate>
						<effect>
							<name>Cross Fade (+3dB)</name>
							<effectid>KGAudioTransCrossFade3dB</effectid>
							<effecttype>transition</effecttype>
							<mediatype>audio</mediatype>
							<wipecode>0</wipecode>
							<wipeaccuracy>100</wipeaccuracy>
							<startratio>0</startratio>
							<endratio>1</endratio>
							<reverse>FALSE</reverse>
						</effect>
					</transitionitem>
					<clipitem id="clipitem-620" premiereChannelType="stereo">
						<masterclipid>masterclip-145</masterclipid>
						<name>NONRE639242HD0002 Trust Me Danny.wav</name>
						<enabled>TRUE</enabled>
						<duration>6105</duration>
						<rate>
							<timebase>25</timebase>
							<ntsc>FALSE</ntsc>
						</rate>
						<start>-1</start>
						<end>-1</end>
						<in>161</in>
						<out>605</out>
						<pproTicksIn>1635863040000</pproTicksIn>
						<pproTicksOut>6147187200000</pproTicksOut>
						<file id="file-131"/>
						<sourcetrack>
							<mediatype>audio</mediatype>
							<trackindex>2</trackindex>
						</sourcetrack>
							<filter>
								<effect>
									<name>Gain</name>
									<effectid>{61756678, 4761696e, 4b657947}</effectid>
									<effecttype>filter</effecttype>
									<mediatype>audio</mediatype>
									<parameter authoringApp="PremierePro">
										<parameterid>Gain(dB)</parameterid>
										<name>Gain(dB)</name>
										<valuemin>-96</valuemin>
										<valuemax>96</valuemax>
										<value>-26</value>
									</parameter>
								</effect>
							</filter>
						<link>
							<linkclipref>clipitem-579</linkclipref>
							<mediatype>audio</mediatype>
							<trackindex>9</trackindex>
							<clipindex>18</clipindex>
							<groupindex>1</groupindex>
						</link>
						<link>
							<linkclipref>clipitem-620</linkclipref>
							<mediatype>audio</mediatype>
							<trackindex>10</trackindex>
							<clipindex>13</clipindex>
							<groupindex>1</groupindex>
						</link>
						<logginginfo>
							<description></description>
							<scene></scene>
							<shottake></shottake>
							<lognote></lognote>
						</logginginfo>
						<labels>
							<label2>Violet</label2>
						</labels>
					</clipitem>
					<transitionitem>
						<start>13721</start>
						<end>13986</end>
						<alignment>end-black</alignment>
						<cutPointTicks>2692569600000</cutPointTicks>
						<rate>
							<timebase>25</timebase>
							<ntsc>FALSE</ntsc>
						</rate>
						<effect>
							<name>Cross Fade (+3dB)</name>
							<effectid>KGAudioTransCrossFade3dB</effectid>
							<effecttype>transition</effecttype>
							<mediatype>audio</mediatype>
							<wipecode>0</wipecode>
							<wipeaccuracy>100</wipeaccuracy>
							<startratio>0</startratio>
							<endratio>1</endratio>
							<reverse>FALSE</reverse>
						</effect>
					</transitionitem>
					<clipitem id="clipitem-621" premiereChannelType="stereo">
						<masterclipid>masterclip-146</masterclipid>
						<name>267887__wjl__short-fireball-woosh.wav</name>
						<enabled>TRUE</enabled>
						<duration>29</duration>
						<rate>
							<timebase>25</timebase>
							<ntsc>FALSE</ntsc>
						</rate>
						<start>19009</start>
						<end>19038</end>
						<in>0</in>
						<out>29</out>
						<pproTicksIn>0</pproTicksIn>
						<pproTicksOut>294658560000</pproTicksOut>
						<file id="file-132"/>
						<sourcetrack>
							<mediatype>audio</mediatype>
							<trackindex>2</trackindex>
						</sourcetrack>
							<filter>
								<effect>
									<name>Gain</name>
									<effectid>{61756678, 4761696e, 4b657947}</effectid>
									<effecttype>filter</effecttype>
									<mediatype>audio</mediatype>
									<parameter authoringApp="PremierePro">
										<parameterid>Gain(dB)</parameterid>
										<name>Gain(dB)</name>
										<valuemin>-96</valuemin>
										<valuemax>96</valuemax>
										<value>-18</value>
									</parameter>
								</effect>
							</filter>
						<link>
							<linkclipref>clipitem-581</linkclipref>
							<mediatype>audio</mediatype>
							<trackindex>9</trackindex>
							<clipindex>21</clipindex>
							<groupindex>1</groupindex>
						</link>
						<link>
							<linkclipref>clipitem-621</linkclipref>
							<mediatype>audio</mediatype>
							<trackindex>10</trackindex>
							<clipindex>15</clipindex>
							<groupindex>1</groupindex>
						</link>
						<logginginfo>
							<description></description>
							<scene></scene>
							<shottake></shottake>
							<lognote></lognote>
						</logginginfo>
						<labels>
							<label2>Caribbean</label2>
						</labels>
					</clipitem>
					<clipitem id="clipitem-622" premiereChannelType="stereo">
						<masterclipid>masterclip-147</masterclipid>
						<name>194081__potentjello__woosh-noise-1.wav</name>
						<enabled>TRUE</enabled>
						<duration>11</duration>
						<rate>
							<timebase>25</timebase>
							<ntsc>FALSE</ntsc>
						</rate>
						<start>20199</start>
						<end>20211</end>
						<in>0</in>
						<out>12</out>
						<pproTicksIn>0</pproTicksIn>
						<pproTicksOut>73156608000</pproTicksOut>
						<file id="file-133"/>
						<sourcetrack>
							<mediatype>audio</mediatype>
							<trackindex>2</trackindex>
						</sourcetrack>
							<filter>
								<effect>
									<name>Time Remap</name>
									<effectid>timeremap</effectid>
									<effectcategory>motion</effectcategory>
									<effecttype>motion</effecttype>
									<mediatype>audio</mediatype>
									<parameter authoringApp="PremierePro">
										<parameterid>variablespeed</parameterid>
										<name>variablespeed</name>
										<valuemin>0</valuemin>
										<valuemax>1</valuemax>
										<value>0</value>
									</parameter>
									<parameter authoringApp="PremierePro">
										<parameterid>speed</parameterid>
										<name>speed</name>
										<valuemin>-100000</valuemin>
										<valuemax>100000</valuemax>
										<value>60</value>
									</parameter>
									<parameter authoringApp="PremierePro">
										<parameterid>reverse</parameterid>
										<name>reverse</name>
										<value>FALSE</value>
									</parameter>
									<parameter authoringApp="PremierePro">
										<parameterid>frameblending</parameterid>
										<name>frameblending</name>
										<value>FALSE</value>
									</parameter>
									<parameter authoringApp="PremierePro">
										<parameterid>graphdict</parameterid>
										<name>graphdict</name>
										<valuemin>0</valuemin>
										<valuemax>6</valuemax>
										<value>0</value>
										<keyframe>
											<when>0</when>
											<value>0</value>
											<speedvirtualkf>TRUE</speedvirtualkf>
											<speedkfin>TRUE</speedkfin>
										</keyframe>
										<keyframe>
											<when>11</when>
											<value>6</value>
											<speedvirtualkf>TRUE</speedvirtualkf>
											<speedkfout>TRUE</speedkfout>
										</keyframe>
										<interpolation>
											<name>FCPCurve</name>
										</interpolation>
									</parameter>
								</effect>
							</filter>
							<marker>
								<comment></comment>
								<name></name>
								<in>6</in>
								<out>-1</out>
							</marker>
						<link>
							<linkclipref>clipitem-582</linkclipref>
							<mediatype>audio</mediatype>
							<trackindex>9</trackindex>
							<clipindex>22</clipindex>
							<groupindex>1</groupindex>
						</link>
						<link>
							<linkclipref>clipitem-622</linkclipref>
							<mediatype>audio</mediatype>
							<trackindex>10</trackindex>
							<clipindex>16</clipindex>
							<groupindex>1</groupindex>
						</link>
						<logginginfo>
							<description></description>
							<scene></scene>
							<shottake></shottake>
							<lognote></lognote>
						</logginginfo>
						<labels>
							<label2>Caribbean</label2>
						</labels>
					</clipitem>
					<enabled>TRUE</enabled>
					<locked>FALSE</locked>
					<outputchannelindex>2</outputchannelindex>
				</track>
				<track TL.SQTrackAudioKeyframeStyle="0" TL.SQTrackShy="0" TL.SQTrackExpandedHeight="35" TL.SQTrackExpanded="1" MZ.TrackTargeted="1" PannerCurrentValue="0.5" PannerIsInverted="true" PannerStartKeyframe="-91445760000000000,0.5,0,0,0,0,0,0" PannerName="Balance" currentExplodedTrackIndex="0" totalExplodedTrackCount="2" premiereTrackType="Stereo">
					<clipitem id="clipitem-623" premiereChannelType="stereo">
						<masterclipid>masterclip-156</masterclipid>
						<name>STTV000723.wav</name>
						<enabled>TRUE</enabled>
						<duration>1627</duration>
						<rate>
							<timebase>25</timebase>
							<ntsc>FALSE</ntsc>
						</rate>
						<start>0</start>
						<end>-1</end>
						<in>1518</in>
						<out>1541</out>
						<pproTicksIn>15423851520000</pproTicksIn>
						<pproTicksOut>15657546240000</pproTicksOut>
						<file id="file-140">
							<name>STTV000723.wav</name>
							<pathurl>file://localhost/Volumes/Bingen/Prosjekter/MYNT194016%20WHATS%20COOKING/Musikk/Marita/VB%20sverdduell/auxmp14608_41737/STTV000723.wav</pathurl>
							<rate>
								<timebase>30</timebase>
								<ntsc>TRUE</ntsc>
							</rate>
							<duration>1950</duration>
							<timecode>
								<rate>
									<timebase>30</timebase>
									<ntsc>TRUE</ntsc>
								</rate>
								<string>00;21;05;16</string>
								<frame>37928</frame>
								<displayformat>DF</displayformat>
								<reel>
									<name></name>
								</reel>
							</timecode>
							<media>
								<audio>
									<samplecharacteristics>
										<depth>16</depth>
										<samplerate>48000</samplerate>
									</samplecharacteristics>
									<channelcount>2</channelcount>
								</audio>
							</media>
						</file>
						<sourcetrack>
							<mediatype>audio</mediatype>
							<trackindex>1</trackindex>
						</sourcetrack>
							<filter>
								<effect>
									<name>Gain</name>
									<effectid>{61756678, 4761696e, 4b657947}</effectid>
									<effecttype>filter</effecttype>
									<mediatype>audio</mediatype>
									<parameter authoringApp="PremierePro">
										<parameterid>Gain(dB)</parameterid>
										<name>Gain(dB)</name>
										<valuemin>-96</valuemin>
										<valuemax>96</valuemax>
										<value>-22</value>
									</parameter>
								</effect>
							</filter>
						<link>
							<linkclipref>clipitem-623</linkclipref>
							<mediatype>audio</mediatype>
							<trackindex>11</trackindex>
							<clipindex>1</clipindex>
							<groupindex>1</groupindex>
						</link>
						<link>
							<linkclipref>clipitem-658</linkclipref>
							<mediatype>audio</mediatype>
							<trackindex>12</trackindex>
							<clipindex>1</clipindex>
							<groupindex>1</groupindex>
						</link>
						<logginginfo>
							<description></description>
							<scene></scene>
							<shottake></shottake>
							<lognote></lognote>
						</logginginfo>
						<labels>
							<label2>Caribbean</label2>
						</labels>
					</clipitem>
					<transitionitem>
						<start>10</start>
						<end>23</end>
						<alignment>end-black</alignment>
						<cutPointTicks>132088320000</cutPointTicks>
						<rate>
							<timebase>25</timebase>
							<ntsc>FALSE</ntsc>
						</rate>
						<effect>
							<name>Cross Fade (+3dB)</name>
							<effectid>KGAudioTransCrossFade3dB</effectid>
							<effecttype>transition</effecttype>
							<mediatype>audio</mediatype>
							<wipecode>0</wipecode>
							<wipeaccuracy>100</wipeaccuracy>
							<startratio>0</startratio>
							<endratio>1</endratio>
							<reverse>FALSE</reverse>
						</effect>
					</transitionitem>
					<clipitem id="clipitem-624" premiereChannelType="stereo">
						<masterclipid>masterclip-123</masterclipid>
						<name>Vold - Sverd 2</name>
						<enabled>TRUE</enabled>
						<duration>84037</duration>
						<rate>
							<timebase>25</timebase>
							<ntsc>FALSE</ntsc>
						</rate>
						<start>98</start>
						<end>117</end>
						<in>8913</in>
						<out>8932</out>
						<pproTicksIn>90561784320000</pproTicksIn>
						<pproTicksOut>90754836480000</pproTicksOut>
						<sequence id="sequence-10"/>
							<filter>
								<effect>
									<name>Gain</name>
									<effectid>{61756678, 4761696e, 4b657947}</effectid>
									<effecttype>filter</effecttype>
									<mediatype>audio</mediatype>
									<parameter authoringApp="PremierePro">
										<parameterid>Gain(dB)</parameterid>
										<name>Gain(dB)</name>
										<valuemin>-96</valuemin>
										<valuemax>96</valuemax>
										<value>-54</value>
									</parameter>
								</effect>
							</filter>
						<link>
							<linkclipref>clipitem-624</linkclipref>
							<mediatype>audio</mediatype>
							<trackindex>11</trackindex>
							<clipindex>3</clipindex>
							<groupindex>1</groupindex>
						</link>
						<link>
							<linkclipref>clipitem-659</linkclipref>
							<mediatype>audio</mediatype>
							<trackindex>12</trackindex>
							<clipindex>3</clipindex>
							<groupindex>1</groupindex>
						</link>
						<labels>
							<label2>Forest</label2>
						</labels>
					</clipitem>
					<clipitem id="clipitem-625" premiereChannelType="stereo">
						<masterclipid>masterclip-157</masterclipid>
						<name>96166__cmusounddesign__jbf-plywood-breaking-1_01.wav</name>
						<enabled>TRUE</enabled>
						<duration>80</duration>
						<rate>
							<timebase>25</timebase>
							<ntsc>FALSE</ntsc>
						</rate>
						<start>146</start>
						<end>153</end>
						<in>66</in>
						<out>73</out>
						<pproTicksIn>670602240000</pproTicksIn>
						<pproTicksOut>741726720000</pproTicksOut>
						<file id="file-141">
							<name>96166__cmusounddesign__jbf-plywood-breaking-1_01.wav</name>
							<pathurl>file://localhost/Volumes/Bingen/Prosjekter/MYNT194016%20WHATS%20COOKING/Lydeffekter/Jan%20Lydeffekter/96166__cmusounddesign__jbf-plywood-breaking-1_01.wav</pathurl>
							<rate>
								<timebase>30</timebase>
								<ntsc>TRUE</ntsc>
							</rate>
							<duration>97</duration>
							<timecode>
								<rate>
									<timebase>30</timebase>
									<ntsc>TRUE</ntsc>
								</rate>
								<string>00;00;00;00</string>
								<frame>0</frame>
								<displayformat>DF</displayformat>
								<reel>
									<name></name>
								</reel>
							</timecode>
							<media>
								<audio>
									<samplecharacteristics>
										<depth>16</depth>
										<samplerate>48000</samplerate>
									</samplecharacteristics>
									<channelcount>2</channelcount>
								</audio>
							</media>
						</file>
						<sourcetrack>
							<mediatype>audio</mediatype>
							<trackindex>1</trackindex>
						</sourcetrack>
							<filter>
								<effect>
									<name>Gain</name>
									<effectid>{61756678, 4761696e, 4b657947}</effectid>
									<effecttype>filter</effecttype>
									<mediatype>audio</mediatype>
									<parameter authoringApp="PremierePro">
										<parameterid>Gain(dB)</parameterid>
										<name>Gain(dB)</name>
										<valuemin>-96</valuemin>
										<valuemax>96</valuemax>
										<value>-4</value>
									</parameter>
								</effect>
							</filter>
						<link>
							<linkclipref>clipitem-625</linkclipref>
							<mediatype>audio</mediatype>
							<trackindex>11</trackindex>
							<clipindex>4</clipindex>
							<groupindex>1</groupindex>
						</link>
						<link>
							<linkclipref>clipitem-660</linkclipref>
							<mediatype>audio</mediatype>
							<trackindex>12</trackindex>
							<clipindex>4</clipindex>
							<groupindex>1</groupindex>
						</link>
						<logginginfo>
							<description></description>
							<scene></scene>
							<shottake></shottake>
							<lognote></lognote>
						</logginginfo>
						<labels>
							<label2>Caribbean</label2>
						</labels>
					</clipitem>
					<clipitem id="clipitem-626" premiereChannelType="mono">
						<masterclipid>masterclip-130</masterclipid>
						<name>Clip0006.mov</name>
						<enabled>TRUE</enabled>
						<duration>18456</duration>
						<rate>
							<timebase>25</timebase>
							<ntsc>FALSE</ntsc>
						</rate>
						<start>189</start>
						<end>216</end>
						<in>8237</in>
						<out>8264</out>
						<pproTicksIn>83693191680000</pproTicksIn>
						<pproTicksOut>83967528960000</pproTicksOut>
						<file id="file-117"/>
						<sourcetrack>
							<mediatype>audio</mediatype>
							<trackindex>1</trackindex>
						</sourcetrack>
							<filter>
								<effect>
									<name>Gain</name>
									<effectid>{61756678, 4761696e, 4b657947}</effectid>
									<effecttype>filter</effecttype>
									<mediatype>audio</mediatype>
									<parameter authoringApp="PremierePro">
										<parameterid>Gain(dB)</parameterid>
										<name>Gain(dB)</name>
										<valuemin>-96</valuemin>
										<valuemax>96</valuemax>
										<value>11</value>
									</parameter>
								</effect>
							</filter>
							<marker>
								<comment></comment>
								<name>klapp</name>
								<in>206</in>
								<out>-1</out>
							</marker>
						<logginginfo>
							<description>boksT01 M klapp1 sidelinja klapp 2 Jim</description>
							<scene></scene>
							<shottake></shottake>
							<lognote></lognote>
						</logginginfo>
						<labels>
							<label2>Iris</label2>
						</labels>
					</clipitem>
					<clipitem id="clipitem-627" premiereChannelType="mono">
						<masterclipid>masterclip-128</masterclipid>
						<name>VBboks-kamp-T01-Multicam</name>
						<enabled>TRUE</enabled>
						<duration>45778</duration>
						<rate>
							<timebase>25</timebase>
							<ntsc>FALSE</ntsc>
						</rate>
						<start>228</start>
						<end>261</end>
						<in>13223</in>
						<out>13256</out>
						<pproTicksIn>134354142720000</pproTicksIn>
						<pproTicksOut>134689443840000</pproTicksOut>
						<sequence id="sequence-11"/>
							<filter>
								<effect>
									<name>Gain</name>
									<effectid>{61756678, 4761696e, 4b657947}</effectid>
									<effecttype>filter</effecttype>
									<mediatype>audio</mediatype>
									<parameter authoringApp="PremierePro">
										<parameterid>Gain(dB)</parameterid>
										<name>Gain(dB)</name>
										<valuemin>-96</valuemin>
										<valuemax>96</valuemax>
										<value>-9</value>
									</parameter>
								</effect>
							</filter>
						<link>
							<linkclipref>clipitem-555</linkclipref>
							<mediatype>audio</mediatype>
							<trackindex>9</trackindex>
							<clipindex>7</clipindex>
							<groupindex>1</groupindex>
						</link>
						<link>
							<linkclipref>clipitem-627</linkclipref>
							<mediatype>audio</mediatype>
							<trackindex>11</trackindex>
							<clipindex>6</clipindex>
							<groupindex>1</groupindex>
						</link>
						<labels>
							<label2>Forest</label2>
						</labels>
					</clipitem>
					<clipitem id="clipitem-628" premiereChannelType="stereo">
						<masterclipid>masterclip-158</masterclipid>
						<name>150137__gregsmedia__gun-shot-sound-01.wav</name>
						<enabled>TRUE</enabled>
						<duration>39</duration>
						<rate>
							<timebase>25</timebase>
							<ntsc>FALSE</ntsc>
						</rate>
						<start>274</start>
						<end>295</end>
						<in>0</in>
						<out>21</out>
						<pproTicksIn>0</pproTicksIn>
						<pproTicksOut>213373440000</pproTicksOut>
						<file id="file-142">
							<name>150137__gregsmedia__gun-shot-sound-01.wav</name>
							<pathurl>file://localhost/Volumes/Bingen/Prosjekter/MYNT194016%20WHATS%20COOKING/Lydeffekter/Jan%20Lydeffekter/150137__gregsmedia__gun-shot-sound-01.wav</pathurl>
							<rate>
								<timebase>30</timebase>
								<ntsc>TRUE</ntsc>
							</rate>
							<duration>47</duration>
							<timecode>
								<rate>
									<timebase>30</timebase>
									<ntsc>TRUE</ntsc>
								</rate>
								<string>00;00;00;00</string>
								<frame>0</frame>
								<displayformat>DF</displayformat>
								<reel>
									<name></name>
								</reel>
							</timecode>
							<media>
								<audio>
									<samplecharacteristics>
										<depth>16</depth>
										<samplerate>48000</samplerate>
									</samplecharacteristics>
									<channelcount>2</channelcount>
								</audio>
							</media>
						</file>
						<sourcetrack>
							<mediatype>audio</mediatype>
							<trackindex>1</trackindex>
						</sourcetrack>
							<filter>
								<effect>
									<name>Audio Levels</name>
									<effectid>audiolevels</effectid>
									<effectcategory>audiolevels</effectcategory>
									<effecttype>audiolevels</effecttype>
									<mediatype>audio</mediatype>
									<parameter authoringApp="PremierePro">
										<parameterid>level</parameterid>
										<name>Level</name>
										<valuemin>0</valuemin>
										<valuemax>3.98109</valuemax>
										<value>0.143364</value>
									</parameter>
								</effect>
							</filter>
						<link>
							<linkclipref>clipitem-628</linkclipref>
							<mediatype>audio</mediatype>
							<trackindex>11</trackindex>
							<clipindex>7</clipindex>
							<groupindex>1</groupindex>
						</link>
						<link>
							<linkclipref>clipitem-661</linkclipref>
							<mediatype>audio</mediatype>
							<trackindex>12</trackindex>
							<clipindex>5</clipindex>
							<groupindex>1</groupindex>
						</link>
						<logginginfo>
							<description></description>
							<scene></scene>
							<shottake></shottake>
							<lognote></lognote>
						</logginginfo>
						<labels>
							<label2>Caribbean</label2>
						</labels>
					</clipitem>
					<clipitem id="clipitem-629" premiereChannelType="stereo">
						<masterclipid>masterclip-159</masterclipid>
						<name>205991__emptysound__digital-wooshes-eleven.wav</name>
						<enabled>TRUE</enabled>
						<duration>272</duration>
						<rate>
							<timebase>25</timebase>
							<ntsc>FALSE</ntsc>
						</rate>
						<start>378</start>
						<end>391</end>
						<in>224</in>
						<out>237</out>
						<pproTicksIn>2850059520000</pproTicksIn>
						<pproTicksOut>3015169920000</pproTicksOut>
						<file id="file-143">
							<name>205991__emptysound__digital-wooshes-eleven.wav</name>
							<pathurl>file://localhost/Volumes/Bingen/Prosjekter/MYNT194016%20WHATS%20COOKING/Lydeffekter/Jan%20Lydeffekter/Woosh/205991__emptysound__digital-wooshes-eleven.wav</pathurl>
							<rate>
								<timebase>30</timebase>
								<ntsc>TRUE</ntsc>
							</rate>
							<duration>408</duration>
							<timecode>
								<rate>
									<timebase>30</timebase>
									<ntsc>TRUE</ntsc>
								</rate>
								<string>00;00;01;28</string>
								<frame>58</frame>
								<displayformat>DF</displayformat>
								<reel>
									<name></name>
								</reel>
							</timecode>
							<media>
								<audio>
									<samplecharacteristics>
										<depth>16</depth>
										<samplerate>48000</samplerate>
									</samplecharacteristics>
									<channelcount>2</channelcount>
								</audio>
							</media>
						</file>
						<sourcetrack>
							<mediatype>audio</mediatype>
							<trackindex>1</trackindex>
						</sourcetrack>
							<filter>
								<effect>
									<name>Gain</name>
									<effectid>{61756678, 4761696e, 4b657947}</effectid>
									<effecttype>filter</effecttype>
									<mediatype>audio</mediatype>
									<parameter authoringApp="PremierePro">
										<parameterid>Gain(dB)</parameterid>
										<name>Gain(dB)</name>
										<valuemin>-96</valuemin>
										<valuemax>96</valuemax>
										<value>-28</value>
									</parameter>
								</effect>
							</filter>
							<filter>
								<effect>
									<name>Time Remap</name>
									<effectid>timeremap</effectid>
									<effectcategory>motion</effectcategory>
									<effecttype>motion</effecttype>
									<mediatype>audio</mediatype>
									<parameter authoringApp="PremierePro">
										<parameterid>variablespeed</parameterid>
										<name>variablespeed</name>
										<valuemin>0</valuemin>
										<valuemax>1</valuemax>
										<value>0</value>
									</parameter>
									<parameter authoringApp="PremierePro">
										<parameterid>speed</parameterid>
										<name>speed</name>
										<valuemin>-100000</valuemin>
										<valuemax>100000</valuemax>
										<value>125</value>
									</parameter>
									<parameter authoringApp="PremierePro">
										<parameterid>reverse</parameterid>
										<name>reverse</name>
										<value>TRUE</value>
									</parameter>
									<parameter authoringApp="PremierePro">
										<parameterid>frameblending</parameterid>
										<name>frameblending</name>
										<value>FALSE</value>
									</parameter>
									<parameter authoringApp="PremierePro">
										<parameterid>graphdict</parameterid>
										<name>graphdict</name>
										<valuemin>0</valuemin>
										<valuemax>340</valuemax>
										<value>0</value>
										<keyframe>
											<when>0</when>
											<value>340</value>
											<speedvirtualkf>TRUE</speedvirtualkf>
											<speedkfstart>TRUE</speedkfstart>
										</keyframe>
										<keyframe>
											<when>35</when>
											<value>296</value>
											<speedvirtualkf>TRUE</speedvirtualkf>
											<speedkfin>TRUE</speedkfin>
										</keyframe>
										<keyframe>
											<when>48</when>
											<value>280</value>
											<speedvirtualkf>TRUE</speedvirtualkf>
											<speedkfout>TRUE</speedkfout>
										</keyframe>
										<keyframe>
											<when>272</when>
											<value>1</value>
											<speedvirtualkf>TRUE</speedvirtualkf>
											<speedkfend>TRUE</speedkfend>
										</keyframe>
										<interpolation>
											<name>FCPCurve</name>
										</interpolation>
									</parameter>
								</effect>
							</filter>
						<link>
							<linkclipref>clipitem-629</linkclipref>
							<mediatype>audio</mediatype>
							<trackindex>11</trackindex>
							<clipindex>8</clipindex>
							<groupindex>1</groupindex>
						</link>
						<link>
							<linkclipref>clipitem-662</linkclipref>
							<mediatype>audio</mediatype>
							<trackindex>12</trackindex>
							<clipindex>6</clipindex>
							<groupindex>1</groupindex>
						</link>
						<logginginfo>
							<description></description>
							<scene></scene>
							<shottake></shottake>
							<lognote></lognote>
						</logginginfo>
						<labels>
							<label2>Caribbean</label2>
						</labels>
					</clipitem>
					<clipitem id="clipitem-630" premiereChannelType="mono">
						<masterclipid>masterclip-136</masterclipid>
						<name>Stikk1-T03-Multicam</name>
						<enabled>TRUE</enabled>
						<duration>24034</duration>
						<rate>
							<timebase>25</timebase>
							<ntsc>FALSE</ntsc>
						</rate>
						<start>3942</start>
						<end>3969</end>
						<in>15939</in>
						<out>15966</out>
						<pproTicksIn>161950440960000</pproTicksIn>
						<pproTicksOut>162224778240000</pproTicksOut>
						<sequence id="sequence-12"/>
							<filter>
								<effect>
									<name>Gain</name>
									<effectid>{61756678, 4761696e, 4b657947}</effectid>
									<effecttype>filter</effecttype>
									<mediatype>audio</mediatype>
									<parameter authoringApp="PremierePro">
										<parameterid>Gain(dB)</parameterid>
										<name>Gain(dB)</name>
										<valuemin>-96</valuemin>
										<valuemax>96</valuemax>
										<value>17</value>
									</parameter>
								</effect>
							</filter>
							<filter>
								<effect>
									<name>Audio Levels</name>
									<effectid>audiolevels</effectid>
									<effectcategory>audiolevels</effectcategory>
									<effecttype>audiolevels</effecttype>
									<mediatype>audio</mediatype>
									<parameter authoringApp="PremierePro">
										<parameterid>level</parameterid>
										<name>Level</name>
										<valuemin>0</valuemin>
										<valuemax>3.98109</valuemax>
										<value>1.75752</value>
									</parameter>
								</effect>
							</filter>
						<link>
							<linkclipref>clipitem-558</linkclipref>
							<mediatype>audio</mediatype>
							<trackindex>9</trackindex>
							<clipindex>12</clipindex>
							<groupindex>1</groupindex>
						</link>
						<link>
							<linkclipref>clipitem-630</linkclipref>
							<mediatype>audio</mediatype>
							<trackindex>11</trackindex>
							<clipindex>9</clipindex>
							<groupindex>1</groupindex>
						</link>
						<labels>
							<label2>Forest</label2>
						</labels>
					</clipitem>
					<clipitem id="clipitem-631" premiereChannelType="stereo">
						<masterclipid>masterclip-160</masterclipid>
						<name>83962__robinhood76__01366-cinema-swoosh-2.wav</name>
						<enabled>TRUE</enabled>
						<duration>226</duration>
						<rate>
							<timebase>25</timebase>
							<ntsc>FALSE</ntsc>
						</rate>
						<start>5113</start>
						<end>5298</end>
						<in>11</in>
						<out>196</out>
						<pproTicksIn>69092352000</pproTicksIn>
						<pproTicksOut>1196923392000</pproTicksOut>
						<file id="file-144">
							<name>83962__robinhood76__01366-cinema-swoosh-2.wav</name>
							<pathurl>file://localhost/Volumes/Bingen/Prosjekter/MYNT194016%20WHATS%20COOKING/Lydeffekter/Jan%20Lydeffekter/Woosh/83962__robinhood76__01366-cinema-swoosh-2.wav</pathurl>
							<rate>
								<timebase>30</timebase>
								<ntsc>TRUE</ntsc>
							</rate>
							<duration>164</duration>
							<timecode>
								<rate>
									<timebase>30</timebase>
									<ntsc>TRUE</ntsc>
								</rate>
								<string>00;00;00;00</string>
								<frame>0</frame>
								<displayformat>DF</displayformat>
								<reel>
									<name></name>
								</reel>
							</timecode>
							<media>
								<audio>
									<samplecharacteristics>
										<depth>16</depth>
										<samplerate>48000</samplerate>
									</samplecharacteristics>
									<channelcount>2</channelcount>
								</audio>
							</media>
						</file>
						<sourcetrack>
							<mediatype>audio</mediatype>
							<trackindex>1</trackindex>
						</sourcetrack>
							<filter>
								<effect>
									<name>Gain</name>
									<effectid>{61756678, 4761696e, 4b657947}</effectid>
									<effecttype>filter</effecttype>
									<mediatype>audio</mediatype>
									<parameter authoringApp="PremierePro">
										<parameterid>Gain(dB)</parameterid>
										<name>Gain(dB)</name>
										<valuemin>-96</valuemin>
										<valuemax>96</valuemax>
										<value>-13</value>
									</parameter>
								</effect>
							</filter>
							<filter>
								<effect>
									<name>Time Remap</name>
									<effectid>timeremap</effectid>
									<effectcategory>motion</effectcategory>
									<effecttype>motion</effecttype>
									<mediatype>audio</mediatype>
									<parameter authoringApp="PremierePro">
										<parameterid>variablespeed</parameterid>
										<name>variablespeed</name>
										<valuemin>0</valuemin>
										<valuemax>1</valuemax>
										<value>0</value>
									</parameter>
									<parameter authoringApp="PremierePro">
										<parameterid>speed</parameterid>
										<name>speed</name>
										<valuemin>-100000</valuemin>
										<valuemax>100000</valuemax>
										<value>60</value>
									</parameter>
									<parameter authoringApp="PremierePro">
										<parameterid>reverse</parameterid>
										<name>reverse</name>
										<value>FALSE</value>
									</parameter>
									<parameter authoringApp="PremierePro">
										<parameterid>frameblending</parameterid>
										<name>frameblending</name>
										<value>FALSE</value>
									</parameter>
									<parameter authoringApp="PremierePro">
										<parameterid>graphdict</parameterid>
										<name>graphdict</name>
										<valuemin>0</valuemin>
										<valuemax>135</valuemax>
										<value>0</value>
										<keyframe>
											<when>0</when>
											<value>0</value>
											<speedvirtualkf>TRUE</speedvirtualkf>
											<speedkfstart>TRUE</speedkfstart>
										</keyframe>
										<keyframe>
											<when>11</when>
											<value>6</value>
											<speedvirtualkf>TRUE</speedvirtualkf>
											<speedkfin>TRUE</speedkfin>
										</keyframe>
										<keyframe>
											<when>196</when>
											<value>117</value>
											<speedvirtualkf>TRUE</speedvirtualkf>
											<speedkfout>TRUE</speedkfout>
										</keyframe>
										<keyframe>
											<when>226</when>
											<value>135</value>
											<speedvirtualkf>TRUE</speedvirtualkf>
											<speedkfend>TRUE</speedkfend>
										</keyframe>
										<interpolation>
											<name>FCPCurve</name>
										</interpolation>
									</parameter>
								</effect>
							</filter>
						<link>
							<linkclipref>clipitem-631</linkclipref>
							<mediatype>audio</mediatype>
							<trackindex>11</trackindex>
							<clipindex>10</clipindex>
							<groupindex>1</groupindex>
						</link>
						<link>
							<linkclipref>clipitem-663</linkclipref>
							<mediatype>audio</mediatype>
							<trackindex>12</trackindex>
							<clipindex>7</clipindex>
							<groupindex>1</groupindex>
						</link>
						<logginginfo>
							<description></description>
							<scene></scene>
							<shottake></shottake>
							<lognote></lognote>
						</logginginfo>
						<labels>
							<label2>Caribbean</label2>
						</labels>
					</clipitem>
					<clipitem id="clipitem-632" premiereChannelType="stereo">
						<masterclipid>masterclip-160</masterclipid>
						<name>83962__robinhood76__01366-cinema-swoosh-2.wav</name>
						<enabled>TRUE</enabled>
						<duration>68</duration>
						<rate>
							<timebase>25</timebase>
							<ntsc>FALSE</ntsc>
						</rate>
						<start>6299</start>
						<end>6338</end>
						<in>27</in>
						<out>66</out>
						<pproTicksIn>558835200000</pproTicksIn>
						<pproTicksOut>1351365120000</pproTicksOut>
						<file id="file-144"/>
						<sourcetrack>
							<mediatype>audio</mediatype>
							<trackindex>1</trackindex>
						</sourcetrack>
							<filter>
								<effect>
									<name>Time Remap</name>
									<effectid>timeremap</effectid>
									<effectcategory>motion</effectcategory>
									<effecttype>motion</effecttype>
									<mediatype>audio</mediatype>
									<parameter authoringApp="PremierePro">
										<parameterid>variablespeed</parameterid>
										<name>variablespeed</name>
										<valuemin>0</valuemin>
										<valuemax>1</valuemax>
										<value>0</value>
									</parameter>
									<parameter authoringApp="PremierePro">
										<parameterid>speed</parameterid>
										<name>speed</name>
										<valuemin>-100000</valuemin>
										<valuemax>100000</valuemax>
										<value>200</value>
									</parameter>
									<parameter authoringApp="PremierePro">
										<parameterid>reverse</parameterid>
										<name>reverse</name>
										<value>FALSE</value>
									</parameter>
									<parameter authoringApp="PremierePro">
										<parameterid>frameblending</parameterid>
										<name>frameblending</name>
										<value>FALSE</value>
									</parameter>
									<parameter authoringApp="PremierePro">
										<parameterid>graphdict</parameterid>
										<name>graphdict</name>
										<valuemin>0</valuemin>
										<valuemax>136</valuemax>
										<value>0</value>
										<keyframe>
											<when>0</when>
											<value>0</value>
											<speedvirtualkf>TRUE</speedvirtualkf>
											<speedkfstart>TRUE</speedkfstart>
										</keyframe>
										<keyframe>
											<when>27</when>
											<value>54</value>
											<speedvirtualkf>TRUE</speedvirtualkf>
											<speedkfin>TRUE</speedkfin>
										</keyframe>
										<keyframe>
											<when>66</when>
											<value>132</value>
											<speedvirtualkf>TRUE</speedvirtualkf>
											<speedkfout>TRUE</speedkfout>
										</keyframe>
										<keyframe>
											<when>68</when>
											<value>136</value>
											<speedvirtualkf>TRUE</speedvirtualkf>
											<speedkfend>TRUE</speedkfend>
										</keyframe>
										<interpolation>
											<name>FCPCurve</name>
										</interpolation>
									</parameter>
								</effect>
							</filter>
						<link>
							<linkclipref>clipitem-632</linkclipref>
							<mediatype>audio</mediatype>
							<trackindex>11</trackindex>
							<clipindex>11</clipindex>
							<groupindex>1</groupindex>
						</link>
						<link>
							<linkclipref>clipitem-664</linkclipref>
							<mediatype>audio</mediatype>
							<trackindex>12</trackindex>
							<clipindex>8</clipindex>
							<groupindex>1</groupindex>
						</link>
						<logginginfo>
							<description></description>
							<scene></scene>
							<shottake></shottake>
							<lognote></lognote>
						</logginginfo>
						<labels>
							<label2>Caribbean</label2>
						</labels>
					</clipitem>
					<clipitem id="clipitem-633" premiereChannelType="stereo">
						<masterclipid>masterclip-161</masterclipid>
						<name>85618__timbre__rope-swoosh-with-added-pseudo-doppler-effect.wav</name>
						<enabled>TRUE</enabled>
						<duration>277</duration>
						<rate>
							<timebase>25</timebase>
							<ntsc>FALSE</ntsc>
						</rate>
						<start>9865</start>
						<end>9880</end>
						<in>28</in>
						<out>43</out>
						<pproTicksIn>264176640000</pproTicksIn>
						<pproTicksOut>401345280000</pproTicksOut>
						<file id="file-145">
							<name>85618__timbre__rope-swoosh-with-added-pseudo-doppler-effect.wav</name>
							<pathurl>file://localhost/Volumes/Bingen/Prosjekter/MYNT194016%20WHATS%20COOKING/Lydeffekter/Jan%20Lydeffekter/Woosh/85618__timbre__rope-swoosh-with-added-pseudo-doppler-effect.wav</pathurl>
							<rate>
								<timebase>30</timebase>
								<ntsc>TRUE</ntsc>
							</rate>
							<duration>300</duration>
							<timecode>
								<rate>
									<timebase>30</timebase>
									<ntsc>TRUE</ntsc>
								</rate>
								<string>00;00;00;00</string>
								<frame>0</frame>
								<displayformat>DF</displayformat>
								<reel>
									<name></name>
								</reel>
							</timecode>
							<media>
								<audio>
									<samplecharacteristics>
										<depth>16</depth>
										<samplerate>48000</samplerate>
									</samplecharacteristics>
									<channelcount>2</channelcount>
								</audio>
							</media>
						</file>
						<sourcetrack>
							<mediatype>audio</mediatype>
							<trackindex>1</trackindex>
						</sourcetrack>
							<filter>
								<effect>
									<name>Gain</name>
									<effectid>{61756678, 4761696e, 4b657947}</effectid>
									<effecttype>filter</effecttype>
									<mediatype>audio</mediatype>
									<parameter authoringApp="PremierePro">
										<parameterid>Gain(dB)</parameterid>
										<name>Gain(dB)</name>
										<valuemin>-96</valuemin>
										<valuemax>96</valuemax>
										<value>-14</value>
									</parameter>
								</effect>
							</filter>
							<filter>
								<effect>
									<name>Time Remap</name>
									<effectid>timeremap</effectid>
									<effectcategory>motion</effectcategory>
									<effecttype>motion</effecttype>
									<mediatype>audio</mediatype>
									<parameter authoringApp="PremierePro">
										<parameterid>variablespeed</parameterid>
										<name>variablespeed</name>
										<valuemin>0</valuemin>
										<valuemax>1</valuemax>
										<value>0</value>
									</parameter>
									<parameter authoringApp="PremierePro">
										<parameterid>speed</parameterid>
										<name>speed</name>
										<valuemin>-100000</valuemin>
										<valuemax>100000</valuemax>
										<value>90</value>
									</parameter>
									<parameter authoringApp="PremierePro">
										<parameterid>reverse</parameterid>
										<name>reverse</name>
										<value>FALSE</value>
									</parameter>
									<parameter authoringApp="PremierePro">
										<parameterid>frameblending</parameterid>
										<name>frameblending</name>
										<value>FALSE</value>
									</parameter>
									<parameter authoringApp="PremierePro">
										<parameterid>graphdict</parameterid>
										<name>graphdict</name>
										<valuemin>0</valuemin>
										<valuemax>249</valuemax>
										<value>0</value>
										<keyframe>
											<when>0</when>
											<value>0</value>
											<speedvirtualkf>TRUE</speedvirtualkf>
											<speedkfstart>TRUE</speedkfstart>
										</keyframe>
										<keyframe>
											<when>28</when>
											<value>25</value>
											<speedvirtualkf>TRUE</speedvirtualkf>
											<speedkfin>TRUE</speedkfin>
										</keyframe>
										<keyframe>
											<when>43</when>
											<value>38</value>
											<speedvirtualkf>TRUE</speedvirtualkf>
											<speedkfout>TRUE</speedkfout>
										</keyframe>
										<keyframe>
											<when>277</when>
											<value>249</value>
											<speedvirtualkf>TRUE</speedvirtualkf>
											<speedkfend>TRUE</speedkfend>
										</keyframe>
										<interpolation>
											<name>FCPCurve</name>
										</interpolation>
									</parameter>
								</effect>
							</filter>
						<link>
							<linkclipref>clipitem-633</linkclipref>
							<mediatype>audio</mediatype>
							<trackindex>11</trackindex>
							<clipindex>12</clipindex>
							<groupindex>1</groupindex>
						</link>
						<link>
							<linkclipref>clipitem-665</linkclipref>
							<mediatype>audio</mediatype>
							<trackindex>12</trackindex>
							<clipindex>9</clipindex>
							<groupindex>1</groupindex>
						</link>
						<logginginfo>
							<description></description>
							<scene></scene>
							<shottake></shottake>
							<lognote></lognote>
						</logginginfo>
						<labels>
							<label2>Caribbean</label2>
						</labels>
					</clipitem>
					<clipitem id="clipitem-634" premiereChannelType="stereo">
						<masterclipid>masterclip-162</masterclipid>
						<name>NONRE632590HD0001 Multi-Love.wav</name>
						<enabled>TRUE</enabled>
						<duration>6270</duration>
						<rate>
							<timebase>25</timebase>
							<ntsc>FALSE</ntsc>
						</rate>
						<start>10839</start>
						<end>11119</end>
						<in>0</in>
						<out>280</out>
						<pproTicksIn>0</pproTicksIn>
						<pproTicksOut>2844979200000</pproTicksOut>
						<file id="file-146">
							<name>NONRE632590HD0001 Multi-Love.wav</name>
							<pathurl>file://localhost/Volumes/Bingen/Prosjekter/MYNT194016%20WHATS%20COOKING/Musikk/Marita/N%c3%b8ytral/NONRE632590HD0001%20Multi-Love.wav</pathurl>
							<rate>
								<timebase>30</timebase>
								<ntsc>TRUE</ntsc>
							</rate>
							<duration>7516</duration>
							<timecode>
								<rate>
									<timebase>30</timebase>
									<ntsc>TRUE</ntsc>
								</rate>
								<string>00;00;00;00</string>
								<frame>0</frame>
								<displayformat>DF</displayformat>
								<reel>
									<name></name>
								</reel>
							</timecode>
							<media>
								<audio>
									<samplecharacteristics>
										<depth>16</depth>
										<samplerate>48000</samplerate>
									</samplecharacteristics>
									<channelcount>2</channelcount>
								</audio>
							</media>
						</file>
						<sourcetrack>
							<mediatype>audio</mediatype>
							<trackindex>1</trackindex>
						</sourcetrack>
							<filter>
								<effect>
									<name>Gain</name>
									<effectid>{61756678, 4761696e, 4b657947}</effectid>
									<effecttype>filter</effecttype>
									<mediatype>audio</mediatype>
									<parameter authoringApp="PremierePro">
										<parameterid>Gain(dB)</parameterid>
										<name>Gain(dB)</name>
										<valuemin>-96</valuemin>
										<valuemax>96</valuemax>
										<value>-18</value>
									</parameter>
								</effect>
							</filter>
						<link>
							<linkclipref>clipitem-634</linkclipref>
							<mediatype>audio</mediatype>
							<trackindex>11</trackindex>
							<clipindex>13</clipindex>
							<groupindex>1</groupindex>
						</link>
						<link>
							<linkclipref>clipitem-666</linkclipref>
							<mediatype>audio</mediatype>
							<trackindex>12</trackindex>
							<clipindex>10</clipindex>
							<groupindex>1</groupindex>
						</link>
						<logginginfo>
							<description></description>
							<scene></scene>
							<shottake></shottake>
							<lognote></lognote>
						</logginginfo>
						<labels>
							<label2>Caribbean</label2>
						</labels>
					</clipitem>
					<transitionitem>
						<start>11884</start>
						<end>11908</end>
						<alignment>start-black</alignment>
						<cutPointTicks>0</cutPointTicks>
						<rate>
							<timebase>25</timebase>
							<ntsc>FALSE</ntsc>
						</rate>
						<effect>
							<name>Cross Fade (+3dB)</name>
							<effectid>KGAudioTransCrossFade3dB</effectid>
							<effecttype>transition</effecttype>
							<mediatype>audio</mediatype>
							<wipecode>0</wipecode>
							<wipeaccuracy>100</wipeaccuracy>
							<startratio>0</startratio>
							<endratio>1</endratio>
							<reverse>FALSE</reverse>
						</effect>
					</transitionitem>
					<clipitem id="clipitem-635" premiereChannelType="stereo">
						<masterclipid>masterclip-162</masterclipid>
						<name>NONRE632590HD0001 Multi-Love.wav</name>
						<enabled>TRUE</enabled>
						<duration>6270</duration>
						<rate>
							<timebase>25</timebase>
							<ntsc>FALSE</ntsc>
						</rate>
						<start>-1</start>
						<end>-1</end>
						<in>5999</in>
						<out>6065</out>
						<pproTicksIn>60953679360000</pproTicksIn>
						<pproTicksOut>61624281600000</pproTicksOut>
						<file id="file-146"/>
						<sourcetrack>
							<mediatype>audio</mediatype>
							<trackindex>1</trackindex>
						</sourcetrack>
							<filter>
								<effect>
									<name>Gain</name>
									<effectid>{61756678, 4761696e, 4b657947}</effectid>
									<effecttype>filter</effecttype>
									<mediatype>audio</mediatype>
									<parameter authoringApp="PremierePro">
										<parameterid>Gain(dB)</parameterid>
										<name>Gain(dB)</name>
										<valuemin>-96</valuemin>
										<valuemax>96</valuemax>
										<value>-21</value>
									</parameter>
								</effect>
							</filter>
						<link>
							<linkclipref>clipitem-635</linkclipref>
							<mediatype>audio</mediatype>
							<trackindex>11</trackindex>
							<clipindex>15</clipindex>
							<groupindex>1</groupindex>
						</link>
						<link>
							<linkclipref>clipitem-667</linkclipref>
							<mediatype>audio</mediatype>
							<trackindex>12</trackindex>
							<clipindex>12</clipindex>
							<groupindex>1</groupindex>
						</link>
						<logginginfo>
							<description></description>
							<scene></scene>
							<shottake></shottake>
							<lognote></lognote>
						</logginginfo>
						<labels>
							<label2>Caribbean</label2>
						</labels>
					</clipitem>
					<transitionitem>
						<start>11937</start>
						<end>11950</end>
						<alignment>end-black</alignment>
						<cutPointTicks>132088320000</cutPointTicks>
						<rate>
							<timebase>25</timebase>
							<ntsc>FALSE</ntsc>
						</rate>
						<effect>
							<name>Cross Fade (+3dB)</name>
							<effectid>KGAudioTransCrossFade3dB</effectid>
							<effecttype>transition</effecttype>
							<mediatype>audio</mediatype>
							<wipecode>0</wipecode>
							<wipeaccuracy>100</wipeaccuracy>
							<startratio>0</startratio>
							<endratio>1</endratio>
							<reverse>FALSE</reverse>
						</effect>
					</transitionitem>
					<transitionitem>
						<start>12330</start>
						<end>12354</end>
						<alignment>start-black</alignment>
						<cutPointTicks>0</cutPointTicks>
						<rate>
							<timebase>25</timebase>
							<ntsc>FALSE</ntsc>
						</rate>
						<effect>
							<name>Cross Fade (+3dB)</name>
							<effectid>KGAudioTransCrossFade3dB</effectid>
							<effecttype>transition</effecttype>
							<mediatype>audio</mediatype>
							<wipecode>0</wipecode>
							<wipeaccuracy>100</wipeaccuracy>
							<startratio>0</startratio>
							<endratio>1</endratio>
							<reverse>FALSE</reverse>
						</effect>
					</transitionitem>
					<clipitem id="clipitem-636" premiereChannelType="stereo">
						<masterclipid>masterclip-162</masterclipid>
						<name>NONRE632590HD0001 Multi-Love.wav</name>
						<enabled>TRUE</enabled>
						<duration>6270</duration>
						<rate>
							<timebase>25</timebase>
							<ntsc>FALSE</ntsc>
						</rate>
						<start>-1</start>
						<end>12547</end>
						<in>5999</in>
						<out>6216</out>
						<pproTicksIn>60953679360000</pproTicksIn>
						<pproTicksOut>63158538240000</pproTicksOut>
						<file id="file-146"/>
						<sourcetrack>
							<mediatype>audio</mediatype>
							<trackindex>1</trackindex>
						</sourcetrack>
							<filter>
								<effect>
									<name>Gain</name>
									<effectid>{61756678, 4761696e, 4b657947}</effectid>
									<effecttype>filter</effecttype>
									<mediatype>audio</mediatype>
									<parameter authoringApp="PremierePro">
										<parameterid>Gain(dB)</parameterid>
										<name>Gain(dB)</name>
										<valuemin>-96</valuemin>
										<valuemax>96</valuemax>
										<value>-21</value>
									</parameter>
								</effect>
							</filter>
						<link>
							<linkclipref>clipitem-636</linkclipref>
							<mediatype>audio</mediatype>
							<trackindex>11</trackindex>
							<clipindex>18</clipindex>
							<groupindex>1</groupindex>
						</link>
						<link>
							<linkclipref>clipitem-668</linkclipref>
							<mediatype>audio</mediatype>
							<trackindex>12</trackindex>
							<clipindex>15</clipindex>
							<groupindex>1</groupindex>
						</link>
						<logginginfo>
							<description></description>
							<scene></scene>
							<shottake></shottake>
							<lognote></lognote>
						</logginginfo>
						<labels>
							<label2>Caribbean</label2>
						</labels>
					</clipitem>
					<transitionitem>
						<start>13009</start>
						<end>13022</end>
						<alignment>start-black</alignment>
						<cutPointTicks>0</cutPointTicks>
						<rate>
							<timebase>25</timebase>
							<ntsc>FALSE</ntsc>
						</rate>
						<effect>
							<name>Cross Fade (+3dB)</name>
							<effectid>KGAudioTransCrossFade3dB</effectid>
							<effecttype>transition</effecttype>
							<mediatype>audio</mediatype>
							<wipecode>0</wipecode>
							<wipeaccuracy>100</wipeaccuracy>
							<startratio>0</startratio>
							<endratio>1</endratio>
							<reverse>FALSE</reverse>
						</effect>
					</transitionitem>
					<clipitem id="clipitem-637" premiereChannelType="stereo">
						<masterclipid>masterclip-163</masterclipid>
						<name>NONRO152408CD0003 Milkshake.wav</name>
						<enabled>TRUE</enabled>
						<duration>4565</duration>
						<rate>
							<timebase>25</timebase>
							<ntsc>FALSE</ntsc>
						</rate>
						<start>-1</start>
						<end>-1</end>
						<in>3</in>
						<out>49</out>
						<pproTicksIn>30481920000</pproTicksIn>
						<pproTicksOut>497871360000</pproTicksOut>
						<file id="file-147">
							<name>NONRO152408CD0003 Milkshake.wav</name>
							<pathurl>file://localhost/Volumes/Bingen/Prosjekter/MYNT194016%20WHATS%20COOKING/Musikk/Marita/div/NONRO152408CD0003%20Milkshake.wav</pathurl>
							<rate>
								<timebase>30</timebase>
								<ntsc>TRUE</ntsc>
							</rate>
							<duration>5473</duration>
							<timecode>
								<rate>
									<timebase>30</timebase>
									<ntsc>TRUE</ntsc>
								</rate>
								<string>00;00;00;00</string>
								<frame>0</frame>
								<displayformat>DF</displayformat>
								<reel>
									<name></name>
								</reel>
							</timecode>
							<media>
								<audio>
									<samplecharacteristics>
										<depth>16</depth>
										<samplerate>48000</samplerate>
									</samplecharacteristics>
									<channelcount>2</channelcount>
								</audio>
							</media>
						</file>
						<sourcetrack>
							<mediatype>audio</mediatype>
							<trackindex>1</trackindex>
						</sourcetrack>
							<filter>
								<effect>
									<name>Gain</name>
									<effectid>{61756678, 4761696e, 4b657947}</effectid>
									<effecttype>filter</effecttype>
									<mediatype>audio</mediatype>
									<parameter authoringApp="PremierePro">
										<parameterid>Gain(dB)</parameterid>
										<name>Gain(dB)</name>
										<valuemin>-96</valuemin>
										<valuemax>96</valuemax>
										<value>-27</value>
									</parameter>
								</effect>
							</filter>
						<link>
							<linkclipref>clipitem-637</linkclipref>
							<mediatype>audio</mediatype>
							<trackindex>11</trackindex>
							<clipindex>20</clipindex>
							<groupindex>1</groupindex>
						</link>
						<link>
							<linkclipref>clipitem-669</linkclipref>
							<mediatype>audio</mediatype>
							<trackindex>12</trackindex>
							<clipindex>17</clipindex>
							<groupindex>1</groupindex>
						</link>
						<logginginfo>
							<description></description>
							<scene></scene>
							<shottake></shottake>
							<lognote>CD Track 3 archiveNo[152408027]</lognote>
						</logginginfo>
						<labels>
							<label2>Caribbean</label2>
						</labels>
					</clipitem>
					<transitionitem>
						<start>13042</start>
						<end>13055</end>
						<alignment>center</alignment>
						<cutPointTicks>60963840000</cutPointTicks>
						<rate>
							<timebase>25</timebase>
							<ntsc>FALSE</ntsc>
						</rate>
						<effect>
							<name>Cross Fade (+3dB)</name>
							<effectid>KGAudioTransCrossFade3dB</effectid>
							<effecttype>transition</effecttype>
							<mediatype>audio</mediatype>
							<wipecode>0</wipecode>
							<wipeaccuracy>100</wipeaccuracy>
							<startratio>0</startratio>
							<endratio>1</endratio>
							<reverse>FALSE</reverse>
						</effect>
					</transitionitem>
					<clipitem id="clipitem-638" premiereChannelType="stereo">
						<masterclipid>masterclip-163</masterclipid>
						<name>NONRO152408CD0003 Milkshake.wav</name>
						<enabled>TRUE</enabled>
						<duration>4565</duration>
						<rate>
							<timebase>25</timebase>
							<ntsc>FALSE</ntsc>
						</rate>
						<start>-1</start>
						<end>13115</end>
						<in>36</in>
						<out>109</out>
						<pproTicksIn>365783040000</pproTicksIn>
						<pproTicksOut>1107509760000</pproTicksOut>
						<file id="file-147"/>
						<sourcetrack>
							<mediatype>audio</mediatype>
							<trackindex>1</trackindex>
						</sourcetrack>
							<filter>
								<effect>
									<name>Gain</name>
									<effectid>{61756678, 4761696e, 4b657947}</effectid>
									<effecttype>filter</effecttype>
									<mediatype>audio</mediatype>
									<parameter authoringApp="PremierePro">
										<parameterid>Gain(dB)</parameterid>
										<name>Gain(dB)</name>
										<valuemin>-96</valuemin>
										<valuemax>96</valuemax>
										<value>-33</value>
									</parameter>
								</effect>
							</filter>
						<link>
							<linkclipref>clipitem-638</linkclipref>
							<mediatype>audio</mediatype>
							<trackindex>11</trackindex>
							<clipindex>22</clipindex>
							<groupindex>1</groupindex>
						</link>
						<link>
							<linkclipref>clipitem-670</linkclipref>
							<mediatype>audio</mediatype>
							<trackindex>12</trackindex>
							<clipindex>19</clipindex>
							<groupindex>1</groupindex>
						</link>
						<logginginfo>
							<description></description>
							<scene></scene>
							<shottake></shottake>
							<lognote>CD Track 3 archiveNo[152408027]</lognote>
						</logginginfo>
						<labels>
							<label2>Caribbean</label2>
						</labels>
					</clipitem>
					<clipitem id="clipitem-639" premiereChannelType="stereo">
						<masterclipid>masterclip-164</masterclipid>
						<name>NONRE632590HD0006 The World Is Crowded.wav</name>
						<enabled>TRUE</enabled>
						<duration>6490</duration>
						<rate>
							<timebase>25</timebase>
							<ntsc>FALSE</ntsc>
						</rate>
						<start>13139</start>
						<end>-1</end>
						<in>348</in>
						<out>602</out>
						<pproTicksIn>3535902720000</pproTicksIn>
						<pproTicksOut>6116705280000</pproTicksOut>
						<file id="file-148">
							<name>NONRE632590HD0006 The World Is Crowded.wav</name>
							<pathurl>file://localhost/Volumes/Bingen/Prosjekter/MYNT194016%20WHATS%20COOKING/Musikk/Marita/N%c3%b8ytral/NONRE632590HD0006%20The%20World%20Is%20Crowded.wav</pathurl>
							<rate>
								<timebase>30</timebase>
								<ntsc>TRUE</ntsc>
							</rate>
							<duration>7780</duration>
							<timecode>
								<rate>
									<timebase>30</timebase>
									<ntsc>TRUE</ntsc>
								</rate>
								<string>00;00;00;00</string>
								<frame>0</frame>
								<displayformat>DF</displayformat>
								<reel>
									<name></name>
								</reel>
							</timecode>
							<media>
								<audio>
									<samplecharacteristics>
										<depth>16</depth>
										<samplerate>48000</samplerate>
									</samplecharacteristics>
									<channelcount>2</channelcount>
								</audio>
							</media>
						</file>
						<sourcetrack>
							<mediatype>audio</mediatype>
							<trackindex>1</trackindex>
						</sourcetrack>
							<filter>
								<effect>
									<name>Gain</name>
									<effectid>{61756678, 4761696e, 4b657947}</effectid>
									<effecttype>filter</effecttype>
									<mediatype>audio</mediatype>
									<parameter authoringApp="PremierePro">
										<parameterid>Gain(dB)</parameterid>
										<name>Gain(dB)</name>
										<valuemin>-96</valuemin>
										<valuemax>96</valuemax>
										<value>-33</value>
									</parameter>
								</effect>
							</filter>
						<link>
							<linkclipref>clipitem-639</linkclipref>
							<mediatype>audio</mediatype>
							<trackindex>11</trackindex>
							<clipindex>23</clipindex>
							<groupindex>1</groupindex>
						</link>
						<link>
							<linkclipref>clipitem-671</linkclipref>
							<mediatype>audio</mediatype>
							<trackindex>12</trackindex>
							<clipindex>20</clipindex>
							<groupindex>1</groupindex>
						</link>
						<logginginfo>
							<description></description>
							<scene></scene>
							<shottake></shottake>
							<lognote></lognote>
						</logginginfo>
						<labels>
							<label2>Caribbean</label2>
						</labels>
					</clipitem>
					<transitionitem>
						<start>13325</start>
						<end>13393</end>
						<alignment>end-black</alignment>
						<cutPointTicks>690923520000</cutPointTicks>
						<rate>
							<timebase>25</timebase>
							<ntsc>FALSE</ntsc>
						</rate>
						<effect>
							<name>Cross Fade (+3dB)</name>
							<effectid>KGAudioTransCrossFade3dB</effectid>
							<effecttype>transition</effecttype>
							<mediatype>audio</mediatype>
							<wipecode>0</wipecode>
							<wipeaccuracy>100</wipeaccuracy>
							<startratio>0</startratio>
							<endratio>1</endratio>
							<reverse>FALSE</reverse>
						</effect>
					</transitionitem>
					<clipitem id="clipitem-640" premiereChannelType="mono">
						<masterclipid>masterclip-165</masterclipid>
						<name>XLYDT17.WAV</name>
						<enabled>TRUE</enabled>
						<duration>1199</duration>
						<rate>
							<timebase>25</timebase>
							<ntsc>FALSE</ntsc>
						</rate>
						<start>13489</start>
						<end>13556</end>
						<in>715</in>
						<out>782</out>
						<pproTicksIn>7264857600000</pproTicksIn>
						<pproTicksOut>7945620480000</pproTicksOut>
						<file id="file-149">
							<name>XLYDT17.WAV</name>
							<pathurl>file://localhost/Volumes/Bingen/Prosjekter/MYNT194016%20WHATS%20COOKING/Media/Episode%2004%20Vold/Episode-opptak/05042016/LYD/XLYDT17.WAV</pathurl>
							<rate>
								<timebase>30</timebase>
								<ntsc>TRUE</ntsc>
							</rate>
							<duration>1438</duration>
							<timecode>
								<rate>
									<timebase>30</timebase>
									<ntsc>TRUE</ntsc>
								</rate>
								<string>12;45;15;01</string>
								<frame>1376073</frame>
								<displayformat>DF</displayformat>
								<reel>
									<name>WHATS</name>
								</reel>
							</timecode>
							<media>
								<audio>
									<samplecharacteristics>
										<depth>16</depth>
										<samplerate>48000</samplerate>
									</samplecharacteristics>
									<channelcount>1</channelcount>
									<audiochannel>
										<sourcechannel>1</sourcechannel>
									</audiochannel>
								</audio>
								<audio>
									<samplecharacteristics>
										<depth>16</depth>
										<samplerate>48000</samplerate>
									</samplecharacteristics>
									<channelcount>1</channelcount>
									<audiochannel>
										<sourcechannel>2</sourcechannel>
									</audiochannel>
								</audio>
								<audio>
									<samplecharacteristics>
										<depth>16</depth>
										<samplerate>48000</samplerate>
									</samplecharacteristics>
									<channelcount>1</channelcount>
									<audiochannel>
										<sourcechannel>3</sourcechannel>
									</audiochannel>
								</audio>
								<audio>
									<samplecharacteristics>
										<depth>16</depth>
										<samplerate>48000</samplerate>
									</samplecharacteristics>
									<channelcount>1</channelcount>
									<audiochannel>
										<sourcechannel>4</sourcechannel>
									</audiochannel>
								</audio>
							</media>
						</file>
						<sourcetrack>
							<mediatype>audio</mediatype>
							<trackindex>1</trackindex>
						</sourcetrack>
							<filter>
								<effect>
									<name>Gain</name>
									<effectid>{61756678, 4761696e, 4b657947}</effectid>
									<effecttype>filter</effecttype>
									<mediatype>audio</mediatype>
									<parameter authoringApp="PremierePro">
										<parameterid>Gain(dB)</parameterid>
										<name>Gain(dB)</name>
										<valuemin>-96</valuemin>
										<valuemax>96</valuemax>
										<value>5</value>
									</parameter>
								</effect>
							</filter>
						<logginginfo>
							<description>bowl</description>
							<scene>XLYD</scene>
							<shottake></shottake>
							<lognote></lognote>
						</logginginfo>
						<labels>
							<label2>Caribbean</label2>
						</labels>
					</clipitem>
					<clipitem id="clipitem-641" premiereChannelType="mono">
						<masterclipid>masterclip-143</masterclipid>
						<name>XLYDKJEGLT18.WAV</name>
						<enabled>TRUE</enabled>
						<duration>1974</duration>
						<rate>
							<timebase>25</timebase>
							<ntsc>FALSE</ntsc>
						</rate>
						<start>13585</start>
						<end>13619</end>
						<in>1045</in>
						<out>1079</out>
						<pproTicksIn>10617868800000</pproTicksIn>
						<pproTicksOut>10963330560000</pproTicksOut>
						<file id="file-129"/>
						<sourcetrack>
							<mediatype>audio</mediatype>
							<trackindex>1</trackindex>
						</sourcetrack>
							<filter>
								<effect>
									<name>Gain</name>
									<effectid>{61756678, 4761696e, 4b657947}</effectid>
									<effecttype>filter</effecttype>
									<mediatype>audio</mediatype>
									<parameter authoringApp="PremierePro">
										<parameterid>Gain(dB)</parameterid>
										<name>Gain(dB)</name>
										<valuemin>-96</valuemin>
										<valuemax>96</valuemax>
										<value>5</value>
									</parameter>
								</effect>
							</filter>
						<logginginfo>
							<description>kjegler</description>
							<scene>XLYDKJEGL</scene>
							<shottake></shottake>
							<lognote></lognote>
						</logginginfo>
						<labels>
							<label2>Caribbean</label2>
						</labels>
					</clipitem>
					<clipitem id="clipitem-642" premiereChannelType="stereo">
						<masterclipid>masterclip-166</masterclipid>
						<name>175318__ladin__bowling-lanes.wav</name>
						<enabled>TRUE</enabled>
						<duration>7282</duration>
						<rate>
							<timebase>25</timebase>
							<ntsc>FALSE</ntsc>
						</rate>
						<start>16387</start>
						<end>16420</end>
						<in>7076</in>
						<out>7109</out>
						<pproTicksIn>71896688640000</pproTicksIn>
						<pproTicksOut>72231989760000</pproTicksOut>
						<file id="file-150">
							<name>175318__ladin__bowling-lanes.wav</name>
							<pathurl>file://localhost/Volumes/Bingen/Prosjekter/MYNT194016%20WHATS%20COOKING/Lydeffekter/Jan%20Lydeffekter/175318__ladin__bowling-lanes.wav</pathurl>
							<rate>
								<timebase>30</timebase>
								<ntsc>TRUE</ntsc>
							</rate>
							<duration>8730</duration>
							<timecode>
								<rate>
									<timebase>30</timebase>
									<ntsc>TRUE</ntsc>
								</rate>
								<string>00;00;00;00</string>
								<frame>0</frame>
								<displayformat>DF</displayformat>
								<reel>
									<name></name>
								</reel>
							</timecode>
							<media>
								<audio>
									<samplecharacteristics>
										<depth>16</depth>
										<samplerate>48000</samplerate>
									</samplecharacteristics>
									<channelcount>2</channelcount>
								</audio>
							</media>
						</file>
						<sourcetrack>
							<mediatype>audio</mediatype>
							<trackindex>1</trackindex>
						</sourcetrack>
							<filter>
								<effect>
									<name>Gain</name>
									<effectid>{61756678, 4761696e, 4b657947}</effectid>
									<effecttype>filter</effecttype>
									<mediatype>audio</mediatype>
									<parameter authoringApp="PremierePro">
										<parameterid>Gain(dB)</parameterid>
										<name>Gain(dB)</name>
										<valuemin>-96</valuemin>
										<valuemax>96</valuemax>
										<value>-10</value>
									</parameter>
								</effect>
							</filter>
						<link>
							<linkclipref>clipitem-642</linkclipref>
							<mediatype>audio</mediatype>
							<trackindex>11</trackindex>
							<clipindex>27</clipindex>
							<groupindex>1</groupindex>
						</link>
						<link>
							<linkclipref>clipitem-672</linkclipref>
							<mediatype>audio</mediatype>
							<trackindex>12</trackindex>
							<clipindex>22</clipindex>
							<groupindex>1</groupindex>
						</link>
						<logginginfo>
							<description></description>
							<scene></scene>
							<shottake></shottake>
							<lognote></lognote>
						</logginginfo>
						<labels>
							<label2>Rose</label2>
						</labels>
					</clipitem>
					<clipitem id="clipitem-643" premiereChannelType="stereo">
						<masterclipid>masterclip-167</masterclipid>
						<name>65244__carbilicon__bowling.wav</name>
						<enabled>TRUE</enabled>
						<duration>114</duration>
						<rate>
							<timebase>25</timebase>
							<ntsc>FALSE</ntsc>
						</rate>
						<start>18067</start>
						<end>18181</end>
						<in>0</in>
						<out>114</out>
						<pproTicksIn>0</pproTicksIn>
						<pproTicksOut>1158312960000</pproTicksOut>
						<file id="file-151">
							<name>65244__carbilicon__bowling.wav</name>
							<pathurl>file://localhost/Volumes/Bingen/Prosjekter/MYNT194016%20WHATS%20COOKING/Lydeffekter/Jan%20Lydeffekter/65244__carbilicon__bowling.wav</pathurl>
							<rate>
								<timebase>30</timebase>
								<ntsc>TRUE</ntsc>
							</rate>
							<duration>137</duration>
							<timecode>
								<rate>
									<timebase>30</timebase>
									<ntsc>TRUE</ntsc>
								</rate>
								<string>00;00;00;00</string>
								<frame>0</frame>
								<displayformat>DF</displayformat>
								<reel>
									<name></name>
								</reel>
							</timecode>
							<media>
								<audio>
									<samplecharacteristics>
										<depth>16</depth>
										<samplerate>48000</samplerate>
									</samplecharacteristics>
									<channelcount>2</channelcount>
								</audio>
							</media>
						</file>
						<sourcetrack>
							<mediatype>audio</mediatype>
							<trackindex>1</trackindex>
						</sourcetrack>
							<filter>
								<effect>
									<name>Gain</name>
									<effectid>{61756678, 4761696e, 4b657947}</effectid>
									<effecttype>filter</effecttype>
									<mediatype>audio</mediatype>
									<parameter authoringApp="PremierePro">
										<parameterid>Gain(dB)</parameterid>
										<name>Gain(dB)</name>
										<valuemin>-96</valuemin>
										<valuemax>96</valuemax>
										<value>0.999999</value>
									</parameter>
								</effect>
							</filter>
						<link>
							<linkclipref>clipitem-643</linkclipref>
							<mediatype>audio</mediatype>
							<trackindex>11</trackindex>
							<clipindex>28</clipindex>
							<groupindex>1</groupindex>
						</link>
						<link>
							<linkclipref>clipitem-673</linkclipref>
							<mediatype>audio</mediatype>
							<trackindex>12</trackindex>
							<clipindex>23</clipindex>
							<groupindex>1</groupindex>
						</link>
						<logginginfo>
							<description></description>
							<scene></scene>
							<shottake></shottake>
							<lognote></lognote>
						</logginginfo>
						<labels>
							<label2>Rose</label2>
						</labels>
					</clipitem>
					<transitionitem>
						<start>18903</start>
						<end>19149</end>
						<alignment>start-black</alignment>
						<cutPointTicks>0</cutPointTicks>
						<rate>
							<timebase>25</timebase>
							<ntsc>FALSE</ntsc>
						</rate>
						<effect>
							<name>Cross Fade (+3dB)</name>
							<effectid>KGAudioTransCrossFade3dB</effectid>
							<effecttype>transition</effecttype>
							<mediatype>audio</mediatype>
							<wipecode>0</wipecode>
							<wipeaccuracy>100</wipeaccuracy>
							<startratio>0</startratio>
							<endratio>1</endratio>
							<reverse>FALSE</reverse>
						</effect>
					</transitionitem>
					<clipitem id="clipitem-644" premiereChannelType="stereo">
						<masterclipid>masterclip-122</masterclipid>
						<name>BM004209.wav</name>
						<enabled>TRUE</enabled>
						<duration>4843</duration>
						<rate>
							<timebase>25</timebase>
							<ntsc>FALSE</ntsc>
						</rate>
						<start>-1</start>
						<end>-1</end>
						<in>0</in>
						<out>748</out>
						<pproTicksIn>0</pproTicksIn>
						<pproTicksOut>7600158720000</pproTicksOut>
						<file id="file-111"/>
						<sourcetrack>
							<mediatype>audio</mediatype>
							<trackindex>1</trackindex>
						</sourcetrack>
							<filter>
								<effect>
									<name>Gain</name>
									<effectid>{61756678, 4761696e, 4b657947}</effectid>
									<effecttype>filter</effecttype>
									<mediatype>audio</mediatype>
									<parameter authoringApp="PremierePro">
										<parameterid>Gain(dB)</parameterid>
										<name>Gain(dB)</name>
										<valuemin>-96</valuemin>
										<valuemax>96</valuemax>
										<value>-18</value>
									</parameter>
								</effect>
							</filter>
						<link>
							<linkclipref>clipitem-644</linkclipref>
							<mediatype>audio</mediatype>
							<trackindex>11</trackindex>
							<clipindex>30</clipindex>
							<groupindex>1</groupindex>
						</link>
						<link>
							<linkclipref>clipitem-674</linkclipref>
							<mediatype>audio</mediatype>
							<trackindex>12</trackindex>
							<clipindex>25</clipindex>
							<groupindex>1</groupindex>
						</link>
						<logginginfo>
							<description></description>
							<scene></scene>
							<shottake></shottake>
							<lognote></lognote>
						</logginginfo>
						<labels>
							<label2>Caribbean</label2>
						</labels>
					</clipitem>
					<transitionitem>
						<start>19622</start>
						<end>19651</end>
						<alignment>end-black</alignment>
						<cutPointTicks>294658560000</cutPointTicks>
						<rate>
							<timebase>25</timebase>
							<ntsc>FALSE</ntsc>
						</rate>
						<effect>
							<name>Cross Fade (+3dB)</name>
							<effectid>KGAudioTransCrossFade3dB</effectid>
							<effecttype>transition</effecttype>
							<mediatype>audio</mediatype>
							<wipecode>0</wipecode>
							<wipeaccuracy>100</wipeaccuracy>
							<startratio>0</startratio>
							<endratio>1</endratio>
							<reverse>FALSE</reverse>
						</effect>
					</transitionitem>
					<clipitem id="clipitem-645" premiereChannelType="stereo">
						<masterclipid>masterclip-168</masterclipid>
						<name>NONRO174537CD0001 Klaverkonsert, op. 16, a-moll_ 1. sats. Alleg.wav</name>
						<enabled>TRUE</enabled>
						<duration>19120</duration>
						<rate>
							<timebase>25</timebase>
							<ntsc>FALSE</ntsc>
						</rate>
						<start>20530</start>
						<end>21107</end>
						<in>130</in>
						<out>707</out>
						<pproTicksIn>1320883200000</pproTicksIn>
						<pproTicksOut>7183572480000</pproTicksOut>
						<file id="file-152">
							<name>NONRO174537CD0001 Klaverkonsert, op. 16, a-moll_ 1. sats. Alleg.wav</name>
							<pathurl>file://localhost/Volumes/Bingen/Prosjekter/MYNT194016%20WHATS%20COOKING/Musikk/Jan/DMA/NONRO174537CD0001%20Klaverkonsert,%20op.%2016,%20a-moll_%201.%20sats.%20Alleg.wav</pathurl>
							<rate>
								<timebase>30</timebase>
								<ntsc>TRUE</ntsc>
							</rate>
							<duration>22921</duration>
							<timecode>
								<rate>
									<timebase>30</timebase>
									<ntsc>TRUE</ntsc>
								</rate>
								<string>00;00;00;00</string>
								<frame>0</frame>
								<displayformat>DF</displayformat>
								<reel>
									<name></name>
								</reel>
							</timecode>
							<media>
								<audio>
									<samplecharacteristics>
										<depth>16</depth>
										<samplerate>48000</samplerate>
									</samplecharacteristics>
									<channelcount>2</channelcount>
								</audio>
							</media>
						</file>
						<sourcetrack>
							<mediatype>audio</mediatype>
							<trackindex>1</trackindex>
						</sourcetrack>
							<filter>
								<effect>
									<name>Gain</name>
									<effectid>{61756678, 4761696e, 4b657947}</effectid>
									<effecttype>filter</effecttype>
									<mediatype>audio</mediatype>
									<parameter authoringApp="PremierePro">
										<parameterid>Gain(dB)</parameterid>
										<name>Gain(dB)</name>
										<valuemin>-96</valuemin>
										<valuemax>96</valuemax>
										<value>-4</value>
									</parameter>
								</effect>
							</filter>
						<link>
							<linkclipref>clipitem-645</linkclipref>
							<mediatype>audio</mediatype>
							<trackindex>11</trackindex>
							<clipindex>32</clipindex>
							<groupindex>1</groupindex>
						</link>
						<link>
							<linkclipref>clipitem-675</linkclipref>
							<mediatype>audio</mediatype>
							<trackindex>12</trackindex>
							<clipindex>27</clipindex>
							<groupindex>1</groupindex>
						</link>
						<logginginfo>
							<description></description>
							<scene></scene>
							<shottake></shottake>
							<lognote>CD Track 1 archiveNo[174537027]</lognote>
						</logginginfo>
						<labels>
							<label2>Caribbean</label2>
						</labels>
					</clipitem>
					<clipitem id="clipitem-646" premiereChannelType="stereo">
						<masterclipid>masterclip-168</masterclipid>
						<name>NONRO174537CD0001 Klaverkonsert, op. 16, a-moll_ 1. sats. Alleg.wav</name>
						<enabled>TRUE</enabled>
						<duration>19120</duration>
						<rate>
							<timebase>25</timebase>
							<ntsc>FALSE</ntsc>
						</rate>
						<start>21211</start>
						<end>-1</end>
						<in>18800</in>
						<out>18842</out>
						<pproTicksIn>191020032000000</pproTicksIn>
						<pproTicksOut>191446778880000</pproTicksOut>
						<file id="file-152"/>
						<sourcetrack>
							<mediatype>audio</mediatype>
							<trackindex>1</trackindex>
						</sourcetrack>
							<filter>
								<effect>
									<name>Gain</name>
									<effectid>{61756678, 4761696e, 4b657947}</effectid>
									<effecttype>filter</effecttype>
									<mediatype>audio</mediatype>
									<parameter authoringApp="PremierePro">
										<parameterid>Gain(dB)</parameterid>
										<name>Gain(dB)</name>
										<valuemin>-96</valuemin>
										<valuemax>96</valuemax>
										<value>-20</value>
									</parameter>
								</effect>
							</filter>
						<link>
							<linkclipref>clipitem-646</linkclipref>
							<mediatype>audio</mediatype>
							<trackindex>11</trackindex>
							<clipindex>33</clipindex>
							<groupindex>1</groupindex>
						</link>
						<link>
							<linkclipref>clipitem-676</linkclipref>
							<mediatype>audio</mediatype>
							<trackindex>12</trackindex>
							<clipindex>28</clipindex>
							<groupindex>1</groupindex>
						</link>
						<logginginfo>
							<description></description>
							<scene></scene>
							<shottake></shottake>
							<lognote>CD Track 1 archiveNo[174537027]</lognote>
						</logginginfo>
						<labels>
							<label2>Caribbean</label2>
						</labels>
					</clipitem>
					<transitionitem>
						<start>21248</start>
						<end>21253</end>
						<alignment>center</alignment>
						<cutPointTicks>20321280000</cutPointTicks>
						<rate>
							<timebase>25</timebase>
							<ntsc>FALSE</ntsc>
						</rate>
						<effect>
							<name>Cross Fade (+3dB)</name>
							<effectid>KGAudioTransCrossFade3dB</effectid>
							<effecttype>transition</effecttype>
							<mediatype>audio</mediatype>
							<wipecode>0</wipecode>
							<wipeaccuracy>100</wipeaccuracy>
							<startratio>0</startratio>
							<endratio>1</endratio>
							<reverse>FALSE</reverse>
						</effect>
					</transitionitem>
					<clipitem id="clipitem-647" premiereChannelType="stereo">
						<masterclipid>masterclip-168</masterclipid>
						<name>NONRO174537CD0001 Klaverkonsert, op. 16, a-moll_ 1. sats. Alleg.wav</name>
						<enabled>TRUE</enabled>
						<duration>19120</duration>
						<rate>
							<timebase>25</timebase>
							<ntsc>FALSE</ntsc>
						</rate>
						<start>-1</start>
						<end>21399</end>
						<in>18837</in>
						<out>18988</out>
						<pproTicksIn>191395975680000</pproTicksIn>
						<pproTicksOut>192930232320000</pproTicksOut>
						<file id="file-152"/>
						<sourcetrack>
							<mediatype>audio</mediatype>
							<trackindex>1</trackindex>
						</sourcetrack>
							<filter>
								<effect>
									<name>Gain</name>
									<effectid>{61756678, 4761696e, 4b657947}</effectid>
									<effecttype>filter</effecttype>
									<mediatype>audio</mediatype>
									<parameter authoringApp="PremierePro">
										<parameterid>Gain(dB)</parameterid>
										<name>Gain(dB)</name>
										<valuemin>-96</valuemin>
										<valuemax>96</valuemax>
										<value>-14</value>
									</parameter>
								</effect>
							</filter>
						<link>
							<linkclipref>clipitem-647</linkclipref>
							<mediatype>audio</mediatype>
							<trackindex>11</trackindex>
							<clipindex>35</clipindex>
							<groupindex>1</groupindex>
						</link>
						<link>
							<linkclipref>clipitem-677</linkclipref>
							<mediatype>audio</mediatype>
							<trackindex>12</trackindex>
							<clipindex>30</clipindex>
							<groupindex>1</groupindex>
						</link>
						<logginginfo>
							<description></description>
							<scene></scene>
							<shottake></shottake>
							<lognote>CD Track 1 archiveNo[174537027]</lognote>
						</logginginfo>
						<labels>
							<label2>Caribbean</label2>
						</labels>
					</clipitem>
					<clipitem id="clipitem-648" premiereChannelType="stereo">
						<masterclipid>masterclip-146</masterclipid>
						<name>267887__wjl__short-fireball-woosh.wav</name>
						<enabled>TRUE</enabled>
						<duration>29</duration>
						<rate>
							<timebase>25</timebase>
							<ntsc>FALSE</ntsc>
						</rate>
						<start>23478</start>
						<end>23507</end>
						<in>0</in>
						<out>29</out>
						<pproTicksIn>0</pproTicksIn>
						<pproTicksOut>294658560000</pproTicksOut>
						<file id="file-132"/>
						<sourcetrack>
							<mediatype>audio</mediatype>
							<trackindex>1</trackindex>
						</sourcetrack>
							<filter>
								<effect>
									<name>Gain</name>
									<effectid>{61756678, 4761696e, 4b657947}</effectid>
									<effecttype>filter</effecttype>
									<mediatype>audio</mediatype>
									<parameter authoringApp="PremierePro">
										<parameterid>Gain(dB)</parameterid>
										<name>Gain(dB)</name>
										<valuemin>-96</valuemin>
										<valuemax>96</valuemax>
										<value>-10</value>
									</parameter>
								</effect>
							</filter>
						<link>
							<linkclipref>clipitem-648</linkclipref>
							<mediatype>audio</mediatype>
							<trackindex>11</trackindex>
							<clipindex>36</clipindex>
							<groupindex>1</groupindex>
						</link>
						<link>
							<linkclipref>clipitem-678</linkclipref>
							<mediatype>audio</mediatype>
							<trackindex>12</trackindex>
							<clipindex>31</clipindex>
							<groupindex>1</groupindex>
						</link>
						<logginginfo>
							<description></description>
							<scene></scene>
							<shottake></shottake>
							<lognote></lognote>
						</logginginfo>
						<labels>
							<label2>Caribbean</label2>
						</labels>
					</clipitem>
					<clipitem id="clipitem-649" premiereChannelType="mono">
						<masterclipid>masterclip-128</masterclipid>
						<name>VBboks-kamp-T01-Multicam</name>
						<enabled>TRUE</enabled>
						<duration>45778</duration>
						<rate>
							<timebase>25</timebase>
							<ntsc>FALSE</ntsc>
						</rate>
						<start>23781</start>
						<end>23824</end>
						<in>7854</in>
						<out>7897</out>
						<pproTicksIn>79801666560000</pproTicksIn>
						<pproTicksOut>80238574080000</pproTicksOut>
						<sequence id="sequence-11"/>
						<link>
							<linkclipref>clipitem-584</linkclipref>
							<mediatype>audio</mediatype>
							<trackindex>9</trackindex>
							<clipindex>24</clipindex>
							<groupindex>1</groupindex>
						</link>
						<link>
							<linkclipref>clipitem-649</linkclipref>
							<mediatype>audio</mediatype>
							<trackindex>11</trackindex>
							<clipindex>37</clipindex>
							<groupindex>1</groupindex>
						</link>
						<labels>
							<label2>Forest</label2>
						</labels>
					</clipitem>
					<clipitem id="clipitem-650" premiereChannelType="mono">
						<masterclipid>masterclip-128</masterclipid>
						<name>VBboks-kamp-T01-Multicam</name>
						<enabled>TRUE</enabled>
						<duration>45778</duration>
						<rate>
							<timebase>25</timebase>
							<ntsc>FALSE</ntsc>
						</rate>
						<start>23824</start>
						<end>23850</end>
						<in>7877</in>
						<out>7903</out>
						<pproTicksIn>80035361280000</pproTicksIn>
						<pproTicksOut>80299537920000</pproTicksOut>
						<sequence id="sequence-11"/>
						<link>
							<linkclipref>clipitem-585</linkclipref>
							<mediatype>audio</mediatype>
							<trackindex>9</trackindex>
							<clipindex>25</clipindex>
							<groupindex>1</groupindex>
						</link>
						<link>
							<linkclipref>clipitem-650</linkclipref>
							<mediatype>audio</mediatype>
							<trackindex>11</trackindex>
							<clipindex>38</clipindex>
							<groupindex>1</groupindex>
						</link>
						<labels>
							<label2>Forest</label2>
						</labels>
					</clipitem>
					<clipitem id="clipitem-651" premiereChannelType="mono">
						<masterclipid>masterclip-128</masterclipid>
						<name>VBboks-kamp-T01-Multicam</name>
						<enabled>TRUE</enabled>
						<duration>45778</duration>
						<rate>
							<timebase>25</timebase>
							<ntsc>FALSE</ntsc>
						</rate>
						<start>23928</start>
						<end>23985</end>
						<in>10264</in>
						<out>10321</out>
						<pproTicksIn>104288808960000</pproTicksIn>
						<pproTicksOut>104867965440000</pproTicksOut>
						<sequence id="sequence-11"/>
						<labels>
							<label2>Forest</label2>
						</labels>
					</clipitem>
					<clipitem id="clipitem-652" premiereChannelType="mono">
						<masterclipid>masterclip-128</masterclipid>
						<name>VBboks-kamp-T01-Multicam</name>
						<enabled>TRUE</enabled>
						<duration>45778</duration>
						<rate>
							<timebase>25</timebase>
							<ntsc>FALSE</ntsc>
						</rate>
						<start>24042</start>
						<end>24120</end>
						<in>8551</in>
						<out>8629</out>
						<pproTicksIn>86883632640000</pproTicksIn>
						<pproTicksOut>87676162560000</pproTicksOut>
						<sequence id="sequence-11"/>
						<labels>
							<label2>Forest</label2>
						</labels>
					</clipitem>
					<clipitem id="clipitem-653" premiereChannelType="mono">
						<masterclipid>masterclip-128</masterclipid>
						<name>VBboks-kamp-T01-Multicam</name>
						<enabled>TRUE</enabled>
						<duration>45778</duration>
						<rate>
							<timebase>25</timebase>
							<ntsc>FALSE</ntsc>
						</rate>
						<start>24487</start>
						<end>24499</end>
						<in>7416</in>
						<out>7428</out>
						<pproTicksIn>75351306240000</pproTicksIn>
						<pproTicksOut>75473233920000</pproTicksOut>
						<sequence id="sequence-11"/>
						<link>
							<linkclipref>clipitem-589</linkclipref>
							<mediatype>audio</mediatype>
							<trackindex>9</trackindex>
							<clipindex>29</clipindex>
							<groupindex>1</groupindex>
						</link>
						<link>
							<linkclipref>clipitem-653</linkclipref>
							<mediatype>audio</mediatype>
							<trackindex>11</trackindex>
							<clipindex>41</clipindex>
							<groupindex>1</groupindex>
						</link>
						<link>
							<linkclipref>clipitem-726</linkclipref>
							<mediatype>audio</mediatype>
							<trackindex>13</trackindex>
							<clipindex>56</clipindex>
							<groupindex>1</groupindex>
						</link>
						<link>
							<linkclipref>clipitem-792</linkclipref>
							<mediatype>audio</mediatype>
							<trackindex>15</trackindex>
							<clipindex>39</clipindex>
							<groupindex>1</groupindex>
						</link>
						<labels>
							<label2>Forest</label2>
						</labels>
					</clipitem>
					<clipitem id="clipitem-654" premiereChannelType="mono">
						<masterclipid>masterclip-130</masterclipid>
						<name>Clip0006.mov</name>
						<enabled>TRUE</enabled>
						<duration>30760</duration>
						<rate>
							<timebase>25</timebase>
							<ntsc>FALSE</ntsc>
						</rate>
						<start>26110</start>
						<end>26143</end>
						<in>12951</in>
						<out>12984</out>
						<pproTicksIn>78954269184000</pproTicksIn>
						<pproTicksOut>79155449856000</pproTicksOut>
						<file id="file-117"/>
						<sourcetrack>
							<mediatype>audio</mediatype>
							<trackindex>1</trackindex>
						</sourcetrack>
							<filter>
								<effect>
									<name>Time Remap</name>
									<effectid>timeremap</effectid>
									<effectcategory>motion</effectcategory>
									<effecttype>motion</effecttype>
									<mediatype>audio</mediatype>
									<parameter authoringApp="PremierePro">
										<parameterid>variablespeed</parameterid>
										<name>variablespeed</name>
										<valuemin>0</valuemin>
										<valuemax>1</valuemax>
										<value>0</value>
									</parameter>
									<parameter authoringApp="PremierePro">
										<parameterid>speed</parameterid>
										<name>speed</name>
										<valuemin>-100000</valuemin>
										<valuemax>100000</valuemax>
										<value>60</value>
									</parameter>
									<parameter authoringApp="PremierePro">
										<parameterid>reverse</parameterid>
										<name>reverse</name>
										<value>FALSE</value>
									</parameter>
									<parameter authoringApp="PremierePro">
										<parameterid>frameblending</parameterid>
										<name>frameblending</name>
										<value>FALSE</value>
									</parameter>
									<parameter authoringApp="PremierePro">
										<parameterid>graphdict</parameterid>
										<name>graphdict</name>
										<valuemin>0</valuemin>
										<valuemax>18456</valuemax>
										<value>0</value>
										<keyframe>
											<when>0</when>
											<value>0</value>
											<speedvirtualkf>TRUE</speedvirtualkf>
											<speedkfstart>TRUE</speedkfstart>
										</keyframe>
										<keyframe>
											<when>12951</when>
											<value>7770</value>
											<speedvirtualkf>TRUE</speedvirtualkf>
											<speedkfin>TRUE</speedkfin>
										</keyframe>
										<keyframe>
											<when>12984</when>
											<value>7790</value>
											<speedvirtualkf>TRUE</speedvirtualkf>
											<speedkfout>TRUE</speedkfout>
										</keyframe>
										<keyframe>
											<when>30760</when>
											<value>18456</value>
											<speedvirtualkf>TRUE</speedvirtualkf>
											<speedkfend>TRUE</speedkfend>
										</keyframe>
										<interpolation>
											<name>FCPCurve</name>
										</interpolation>
									</parameter>
								</effect>
							</filter>
							<marker>
								<comment></comment>
								<name>klapp</name>
								<in>206</in>
								<out>-1</out>
							</marker>
						<logginginfo>
							<description>boksT01 M klapp1 sidelinja klapp 2 Jim</description>
							<scene></scene>
							<shottake></shottake>
							<lognote></lognote>
						</logginginfo>
						<labels>
							<label2>Iris</label2>
						</labels>
					</clipitem>
					<clipitem id="clipitem-655" premiereChannelType="mono">
						<masterclipid>masterclip-153</masterclipid>
						<name>Stikk5-T01-Multicam</name>
						<enabled>TRUE</enabled>
						<duration>7225</duration>
						<rate>
							<timebase>25</timebase>
							<ntsc>FALSE</ntsc>
						</rate>
						<start>29339</start>
						<end>29384</end>
						<in>5748</in>
						<out>5793</out>
						<pproTicksIn>58403358720000</pproTicksIn>
						<pproTicksOut>58860587520000</pproTicksOut>
						<sequence id="sequence-14"/>
							<filter>
								<effect>
									<name>Gain</name>
									<effectid>{61756678, 4761696e, 4b657947}</effectid>
									<effecttype>filter</effecttype>
									<mediatype>audio</mediatype>
									<parameter authoringApp="PremierePro">
										<parameterid>Gain(dB)</parameterid>
										<name>Gain(dB)</name>
										<valuemin>-96</valuemin>
										<valuemax>96</valuemax>
										<value>11</value>
									</parameter>
								</effect>
							</filter>
						<link>
							<linkclipref>clipitem-603</linkclipref>
							<mediatype>audio</mediatype>
							<trackindex>9</trackindex>
							<clipindex>33</clipindex>
							<groupindex>1</groupindex>
						</link>
						<link>
							<linkclipref>clipitem-655</linkclipref>
							<mediatype>audio</mediatype>
							<trackindex>11</trackindex>
							<clipindex>43</clipindex>
							<groupindex>1</groupindex>
						</link>
						<labels>
							<label2>Forest</label2>
						</labels>
					</clipitem>
					<clipitem id="clipitem-656" premiereChannelType="mono">
						<masterclipid>masterclip-153</masterclipid>
						<name>Stikk5-T01-Multicam</name>
						<enabled>TRUE</enabled>
						<duration>7225</duration>
						<rate>
							<timebase>25</timebase>
							<ntsc>FALSE</ntsc>
						</rate>
						<start>29384</start>
						<end>-1</end>
						<in>5793</in>
						<out>5822</out>
						<pproTicksIn>58860587520000</pproTicksIn>
						<pproTicksOut>59155246080000</pproTicksOut>
						<sequence id="sequence-14"/>
							<filter>
								<effect>
									<name>Gain</name>
									<effectid>{61756678, 4761696e, 4b657947}</effectid>
									<effecttype>filter</effecttype>
									<mediatype>audio</mediatype>
									<parameter authoringApp="PremierePro">
										<parameterid>Gain(dB)</parameterid>
										<name>Gain(dB)</name>
										<valuemin>-96</valuemin>
										<valuemax>96</valuemax>
										<value>11</value>
									</parameter>
								</effect>
							</filter>
						<link>
							<linkclipref>clipitem-611</linkclipref>
							<mediatype>audio</mediatype>
							<trackindex>9</trackindex>
							<clipindex>34</clipindex>
							<groupindex>1</groupindex>
						</link>
						<link>
							<linkclipref>clipitem-656</linkclipref>
							<mediatype>audio</mediatype>
							<trackindex>11</trackindex>
							<clipindex>44</clipindex>
							<groupindex>1</groupindex>
						</link>
						<labels>
							<label2>Forest</label2>
						</labels>
					</clipitem>
					<transitionitem>
						<start>29400</start>
						<end>29413</end>
						<alignment>end-black</alignment>
						<cutPointTicks>132088320000</cutPointTicks>
						<rate>
							<timebase>25</timebase>
							<ntsc>FALSE</ntsc>
						</rate>
						<effect>
							<name>Cross Fade (+3dB)</name>
							<effectid>KGAudioTransCrossFade3dB</effectid>
							<effecttype>transition</effecttype>
							<mediatype>audio</mediatype>
							<wipecode>0</wipecode>
							<wipeaccuracy>100</wipeaccuracy>
							<startratio>0</startratio>
							<endratio>1</endratio>
							<reverse>FALSE</reverse>
						</effect>
					</transitionitem>
					<clipitem id="clipitem-657" premiereChannelType="stereo">
						<masterclipid>masterclip-169</masterclipid>
						<name>264777__shinplaster__swoosh.wav</name>
						<enabled>TRUE</enabled>
						<duration>132</duration>
						<rate>
							<timebase>25</timebase>
							<ntsc>FALSE</ntsc>
						</rate>
						<start>29926</start>
						<end>30039</end>
						<in>13</in>
						<out>126</out>
						<pproTicksIn>132088320000</pproTicksIn>
						<pproTicksOut>1280240640000</pproTicksOut>
						<file id="file-153">
							<name>264777__shinplaster__swoosh.wav</name>
							<pathurl>file://localhost/Volumes/Bingen/Prosjekter/MYNT194016%20WHATS%20COOKING/Lydeffekter/Jan%20Lydeffekter/Woosh/264777__shinplaster__swoosh.wav</pathurl>
							<rate>
								<timebase>30</timebase>
								<ntsc>TRUE</ntsc>
							</rate>
							<duration>159</duration>
							<timecode>
								<rate>
									<timebase>30</timebase>
									<ntsc>TRUE</ntsc>
								</rate>
								<string>00;00;00;00</string>
								<frame>0</frame>
								<displayformat>DF</displayformat>
								<reel>
									<name></name>
								</reel>
							</timecode>
							<media>
								<audio>
									<samplecharacteristics>
										<depth>16</depth>
										<samplerate>48000</samplerate>
									</samplecharacteristics>
									<channelcount>2</channelcount>
								</audio>
							</media>
						</file>
						<sourcetrack>
							<mediatype>audio</mediatype>
							<trackindex>1</trackindex>
						</sourcetrack>
							<filter>
								<effect>
									<name>Gain</name>
									<effectid>{61756678, 4761696e, 4b657947}</effectid>
									<effecttype>filter</effecttype>
									<mediatype>audio</mediatype>
									<parameter authoringApp="PremierePro">
										<parameterid>Gain(dB)</parameterid>
										<name>Gain(dB)</name>
										<valuemin>-96</valuemin>
										<valuemax>96</valuemax>
										<value>0.999999</value>
									</parameter>
								</effect>
							</filter>
						<link>
							<linkclipref>clipitem-657</linkclipref>
							<mediatype>audio</mediatype>
							<trackindex>11</trackindex>
							<clipindex>46</clipindex>
							<groupindex>1</groupindex>
						</link>
						<link>
							<linkclipref>clipitem-679</linkclipref>
							<mediatype>audio</mediatype>
							<trackindex>12</trackindex>
							<clipindex>32</clipindex>
							<groupindex>1</groupindex>
						</link>
						<logginginfo>
							<description></description>
							<scene></scene>
							<shottake></shottake>
							<lognote></lognote>
						</logginginfo>
						<labels>
							<label2>Caribbean</label2>
						</labels>
					</clipitem>
					<enabled>TRUE</enabled>
					<locked>FALSE</locked>
					<outputchannelindex>1</outputchannelindex>
				</track>
				<track TL.SQTrackAudioKeyframeStyle="0" TL.SQTrackShy="0" TL.SQTrackExpandedHeight="35" TL.SQTrackExpanded="1" MZ.TrackTargeted="1" PannerCurrentValue="0.5" PannerIsInverted="true" PannerStartKeyframe="-91445760000000000,0.5,0,0,0,0,0,0" PannerName="Balance" currentExplodedTrackIndex="1" totalExplodedTrackCount="2" premiereTrackType="Stereo">
					<clipitem id="clipitem-658" premiereChannelType="stereo">
						<masterclipid>masterclip-156</masterclipid>
						<name>STTV000723.wav</name>
						<enabled>TRUE</enabled>
						<duration>1627</duration>
						<rate>
							<timebase>25</timebase>
							<ntsc>FALSE</ntsc>
						</rate>
						<start>0</start>
						<end>-1</end>
						<in>1518</in>
						<out>1541</out>
						<pproTicksIn>15423851520000</pproTicksIn>
						<pproTicksOut>15657546240000</pproTicksOut>
						<file id="file-140"/>
						<sourcetrack>
							<mediatype>audio</mediatype>
							<trackindex>2</trackindex>
						</sourcetrack>
							<filter>
								<effect>
									<name>Gain</name>
									<effectid>{61756678, 4761696e, 4b657947}</effectid>
									<effecttype>filter</effecttype>
									<mediatype>audio</mediatype>
									<parameter authoringApp="PremierePro">
										<parameterid>Gain(dB)</parameterid>
										<name>Gain(dB)</name>
										<valuemin>-96</valuemin>
										<valuemax>96</valuemax>
										<value>-22</value>
									</parameter>
								</effect>
							</filter>
						<link>
							<linkclipref>clipitem-623</linkclipref>
							<mediatype>audio</mediatype>
							<trackindex>11</trackindex>
							<clipindex>1</clipindex>
							<groupindex>1</groupindex>
						</link>
						<link>
							<linkclipref>clipitem-658</linkclipref>
							<mediatype>audio</mediatype>
							<trackindex>12</trackindex>
							<clipindex>1</clipindex>
							<groupindex>1</groupindex>
						</link>
						<logginginfo>
							<description></description>
							<scene></scene>
							<shottake></shottake>
							<lognote></lognote>
						</logginginfo>
						<labels>
							<label2>Caribbean</label2>
						</labels>
					</clipitem>
					<transitionitem>
						<start>10</start>
						<end>23</end>
						<alignment>end-black</alignment>
						<cutPointTicks>132088320000</cutPointTicks>
						<rate>
							<timebase>25</timebase>
							<ntsc>FALSE</ntsc>
						</rate>
						<effect>
							<name>Cross Fade (+3dB)</name>
							<effectid>KGAudioTransCrossFade3dB</effectid>
							<effecttype>transition</effecttype>
							<mediatype>audio</mediatype>
							<wipecode>0</wipecode>
							<wipeaccuracy>100</wipeaccuracy>
							<startratio>0</startratio>
							<endratio>1</endratio>
							<reverse>FALSE</reverse>
						</effect>
					</transitionitem>
					<clipitem id="clipitem-659" premiereChannelType="stereo">
						<masterclipid>masterclip-123</masterclipid>
						<name>Vold - Sverd 2</name>
						<enabled>TRUE</enabled>
						<duration>84037</duration>
						<rate>
							<timebase>25</timebase>
							<ntsc>FALSE</ntsc>
						</rate>
						<start>98</start>
						<end>117</end>
						<in>8913</in>
						<out>8932</out>
						<pproTicksIn>90561784320000</pproTicksIn>
						<pproTicksOut>90754836480000</pproTicksOut>
						<sequence id="sequence-10"/>
							<filter>
								<effect>
									<name>Gain</name>
									<effectid>{61756678, 4761696e, 4b657947}</effectid>
									<effecttype>filter</effecttype>
									<mediatype>audio</mediatype>
									<parameter authoringApp="PremierePro">
										<parameterid>Gain(dB)</parameterid>
										<name>Gain(dB)</name>
										<valuemin>-96</valuemin>
										<valuemax>96</valuemax>
										<value>-54</value>
									</parameter>
								</effect>
							</filter>
						<link>
							<linkclipref>clipitem-624</linkclipref>
							<mediatype>audio</mediatype>
							<trackindex>11</trackindex>
							<clipindex>3</clipindex>
							<groupindex>1</groupindex>
						</link>
						<link>
							<linkclipref>clipitem-659</linkclipref>
							<mediatype>audio</mediatype>
							<trackindex>12</trackindex>
							<clipindex>3</clipindex>
							<groupindex>1</groupindex>
						</link>
						<labels>
							<label2>Forest</label2>
						</labels>
					</clipitem>
					<clipitem id="clipitem-660" premiereChannelType="stereo">
						<masterclipid>masterclip-157</masterclipid>
						<name>96166__cmusounddesign__jbf-plywood-breaking-1_01.wav</name>
						<enabled>TRUE</enabled>
						<duration>80</duration>
						<rate>
							<timebase>25</timebase>
							<ntsc>FALSE</ntsc>
						</rate>
						<start>146</start>
						<end>153</end>
						<in>66</in>
						<out>73</out>
						<pproTicksIn>670602240000</pproTicksIn>
						<pproTicksOut>741726720000</pproTicksOut>
						<file id="file-141"/>
						<sourcetrack>
							<mediatype>audio</mediatype>
							<trackindex>2</trackindex>
						</sourcetrack>
							<filter>
								<effect>
									<name>Gain</name>
									<effectid>{61756678, 4761696e, 4b657947}</effectid>
									<effecttype>filter</effecttype>
									<mediatype>audio</mediatype>
									<parameter authoringApp="PremierePro">
										<parameterid>Gain(dB)</parameterid>
										<name>Gain(dB)</name>
										<valuemin>-96</valuemin>
										<valuemax>96</valuemax>
										<value>-4</value>
									</parameter>
								</effect>
							</filter>
						<link>
							<linkclipref>clipitem-625</linkclipref>
							<mediatype>audio</mediatype>
							<trackindex>11</trackindex>
							<clipindex>4</clipindex>
							<groupindex>1</groupindex>
						</link>
						<link>
							<linkclipref>clipitem-660</linkclipref>
							<mediatype>audio</mediatype>
							<trackindex>12</trackindex>
							<clipindex>4</clipindex>
							<groupindex>1</groupindex>
						</link>
						<logginginfo>
							<description></description>
							<scene></scene>
							<shottake></shottake>
							<lognote></lognote>
						</logginginfo>
						<labels>
							<label2>Caribbean</label2>
						</labels>
					</clipitem>
					<clipitem id="clipitem-661" premiereChannelType="stereo">
						<masterclipid>masterclip-158</masterclipid>
						<name>150137__gregsmedia__gun-shot-sound-01.wav</name>
						<enabled>TRUE</enabled>
						<duration>39</duration>
						<rate>
							<timebase>25</timebase>
							<ntsc>FALSE</ntsc>
						</rate>
						<start>274</start>
						<end>295</end>
						<in>0</in>
						<out>21</out>
						<pproTicksIn>0</pproTicksIn>
						<pproTicksOut>213373440000</pproTicksOut>
						<file id="file-142"/>
						<sourcetrack>
							<mediatype>audio</mediatype>
							<trackindex>2</trackindex>
						</sourcetrack>
							<filter>
								<effect>
									<name>Audio Levels</name>
									<effectid>audiolevels</effectid>
									<effectcategory>audiolevels</effectcategory>
									<effecttype>audiolevels</effecttype>
									<mediatype>audio</mediatype>
									<parameter authoringApp="PremierePro">
										<parameterid>level</parameterid>
										<name>Level</name>
										<valuemin>0</valuemin>
										<valuemax>3.98109</valuemax>
										<value>0.143364</value>
									</parameter>
								</effect>
							</filter>
						<link>
							<linkclipref>clipitem-628</linkclipref>
							<mediatype>audio</mediatype>
							<trackindex>11</trackindex>
							<clipindex>7</clipindex>
							<groupindex>1</groupindex>
						</link>
						<link>
							<linkclipref>clipitem-661</linkclipref>
							<mediatype>audio</mediatype>
							<trackindex>12</trackindex>
							<clipindex>5</clipindex>
							<groupindex>1</groupindex>
						</link>
						<logginginfo>
							<description></description>
							<scene></scene>
							<shottake></shottake>
							<lognote></lognote>
						</logginginfo>
						<labels>
							<label2>Caribbean</label2>
						</labels>
					</clipitem>
					<clipitem id="clipitem-662" premiereChannelType="stereo">
						<masterclipid>masterclip-159</masterclipid>
						<name>205991__emptysound__digital-wooshes-eleven.wav</name>
						<enabled>TRUE</enabled>
						<duration>272</duration>
						<rate>
							<timebase>25</timebase>
							<ntsc>FALSE</ntsc>
						</rate>
						<start>378</start>
						<end>391</end>
						<in>224</in>
						<out>237</out>
						<pproTicksIn>2850059520000</pproTicksIn>
						<pproTicksOut>3015169920000</pproTicksOut>
						<file id="file-143"/>
						<sourcetrack>
							<mediatype>audio</mediatype>
							<trackindex>2</trackindex>
						</sourcetrack>
							<filter>
								<effect>
									<name>Gain</name>
									<effectid>{61756678, 4761696e, 4b657947}</effectid>
									<effecttype>filter</effecttype>
									<mediatype>audio</mediatype>
									<parameter authoringApp="PremierePro">
										<parameterid>Gain(dB)</parameterid>
										<name>Gain(dB)</name>
										<valuemin>-96</valuemin>
										<valuemax>96</valuemax>
										<value>-28</value>
									</parameter>
								</effect>
							</filter>
							<filter>
								<effect>
									<name>Time Remap</name>
									<effectid>timeremap</effectid>
									<effectcategory>motion</effectcategory>
									<effecttype>motion</effecttype>
									<mediatype>audio</mediatype>
									<parameter authoringApp="PremierePro">
										<parameterid>variablespeed</parameterid>
										<name>variablespeed</name>
										<valuemin>0</valuemin>
										<valuemax>1</valuemax>
										<value>0</value>
									</parameter>
									<parameter authoringApp="PremierePro">
										<parameterid>speed</parameterid>
										<name>speed</name>
										<valuemin>-100000</valuemin>
										<valuemax>100000</valuemax>
										<value>125</value>
									</parameter>
									<parameter authoringApp="PremierePro">
										<parameterid>reverse</parameterid>
										<name>reverse</name>
										<value>TRUE</value>
									</parameter>
									<parameter authoringApp="PremierePro">
										<parameterid>frameblending</parameterid>
										<name>frameblending</name>
										<value>FALSE</value>
									</parameter>
									<parameter authoringApp="PremierePro">
										<parameterid>graphdict</parameterid>
										<name>graphdict</name>
										<valuemin>0</valuemin>
										<valuemax>340</valuemax>
										<value>0</value>
										<keyframe>
											<when>0</when>
											<value>340</value>
											<speedvirtualkf>TRUE</speedvirtualkf>
											<speedkfstart>TRUE</speedkfstart>
										</keyframe>
										<keyframe>
											<when>35</when>
											<value>296</value>
											<speedvirtualkf>TRUE</speedvirtualkf>
											<speedkfin>TRUE</speedkfin>
										</keyframe>
										<keyframe>
											<when>48</when>
											<value>280</value>
											<speedvirtualkf>TRUE</speedvirtualkf>
											<speedkfout>TRUE</speedkfout>
										</keyframe>
										<keyframe>
											<when>272</when>
											<value>1</value>
											<speedvirtualkf>TRUE</speedvirtualkf>
											<speedkfend>TRUE</speedkfend>
										</keyframe>
										<interpolation>
											<name>FCPCurve</name>
										</interpolation>
									</parameter>
								</effect>
							</filter>
						<link>
							<linkclipref>clipitem-629</linkclipref>
							<mediatype>audio</mediatype>
							<trackindex>11</trackindex>
							<clipindex>8</clipindex>
							<groupindex>1</groupindex>
						</link>
						<link>
							<linkclipref>clipitem-662</linkclipref>
							<mediatype>audio</mediatype>
							<trackindex>12</trackindex>
							<clipindex>6</clipindex>
							<groupindex>1</groupindex>
						</link>
						<logginginfo>
							<description></description>
							<scene></scene>
							<shottake></shottake>
							<lognote></lognote>
						</logginginfo>
						<labels>
							<label2>Caribbean</label2>
						</labels>
					</clipitem>
					<clipitem id="clipitem-663" premiereChannelType="stereo">
						<masterclipid>masterclip-160</masterclipid>
						<name>83962__robinhood76__01366-cinema-swoosh-2.wav</name>
						<enabled>TRUE</enabled>
						<duration>226</duration>
						<rate>
							<timebase>25</timebase>
							<ntsc>FALSE</ntsc>
						</rate>
						<start>5113</start>
						<end>5298</end>
						<in>11</in>
						<out>196</out>
						<pproTicksIn>69092352000</pproTicksIn>
						<pproTicksOut>1196923392000</pproTicksOut>
						<file id="file-144"/>
						<sourcetrack>
							<mediatype>audio</mediatype>
							<trackindex>2</trackindex>
						</sourcetrack>
							<filter>
								<effect>
									<name>Gain</name>
									<effectid>{61756678, 4761696e, 4b657947}</effectid>
									<effecttype>filter</effecttype>
									<mediatype>audio</mediatype>
									<parameter authoringApp="PremierePro">
										<parameterid>Gain(dB)</parameterid>
										<name>Gain(dB)</name>
										<valuemin>-96</valuemin>
										<valuemax>96</valuemax>
										<value>-13</value>
									</parameter>
								</effect>
							</filter>
							<filter>
								<effect>
									<name>Time Remap</name>
									<effectid>timeremap</effectid>
									<effectcategory>motion</effectcategory>
									<effecttype>motion</effecttype>
									<mediatype>audio</mediatype>
									<parameter authoringApp="PremierePro">
										<parameterid>variablespeed</parameterid>
										<name>variablespeed</name>
										<valuemin>0</valuemin>
										<valuemax>1</valuemax>
										<value>0</value>
									</parameter>
									<parameter authoringApp="PremierePro">
										<parameterid>speed</parameterid>
										<name>speed</name>
										<valuemin>-100000</valuemin>
										<valuemax>100000</valuemax>
										<value>60</value>
									</parameter>
									<parameter authoringApp="PremierePro">
										<parameterid>reverse</parameterid>
										<name>reverse</name>
										<value>FALSE</value>
									</parameter>
									<parameter authoringApp="PremierePro">
										<parameterid>frameblending</parameterid>
										<name>frameblending</name>
										<value>FALSE</value>
									</parameter>
									<parameter authoringApp="PremierePro">
										<parameterid>graphdict</parameterid>
										<name>graphdict</name>
										<valuemin>0</valuemin>
										<valuemax>135</valuemax>
										<value>0</value>
										<keyframe>
											<when>0</when>
											<value>0</value>
											<speedvirtualkf>TRUE</speedvirtualkf>
											<speedkfstart>TRUE</speedkfstart>
										</keyframe>
										<keyframe>
											<when>11</when>
											<value>6</value>
											<speedvirtualkf>TRUE</speedvirtualkf>
											<speedkfin>TRUE</speedkfin>
										</keyframe>
										<keyframe>
											<when>196</when>
											<value>117</value>
											<speedvirtualkf>TRUE</speedvirtualkf>
											<speedkfout>TRUE</speedkfout>
										</keyframe>
										<keyframe>
											<when>226</when>
											<value>135</value>
											<speedvirtualkf>TRUE</speedvirtualkf>
											<speedkfend>TRUE</speedkfend>
										</keyframe>
										<interpolation>
											<name>FCPCurve</name>
										</interpolation>
									</parameter>
								</effect>
							</filter>
						<link>
							<linkclipref>clipitem-631</linkclipref>
							<mediatype>audio</mediatype>
							<trackindex>11</trackindex>
							<clipindex>10</clipindex>
							<groupindex>1</groupindex>
						</link>
						<link>
							<linkclipref>clipitem-663</linkclipref>
							<mediatype>audio</mediatype>
							<trackindex>12</trackindex>
							<clipindex>7</clipindex>
							<groupindex>1</groupindex>
						</link>
						<logginginfo>
							<description></description>
							<scene></scene>
							<shottake></shottake>
							<lognote></lognote>
						</logginginfo>
						<labels>
							<label2>Caribbean</label2>
						</labels>
					</clipitem>
					<clipitem id="clipitem-664" premiereChannelType="stereo">
						<masterclipid>masterclip-160</masterclipid>
						<name>83962__robinhood76__01366-cinema-swoosh-2.wav</name>
						<enabled>TRUE</enabled>
						<duration>68</duration>
						<rate>
							<timebase>25</timebase>
							<ntsc>FALSE</ntsc>
						</rate>
						<start>6299</start>
						<end>6338</end>
						<in>27</in>
						<out>66</out>
						<pproTicksIn>558835200000</pproTicksIn>
						<pproTicksOut>1351365120000</pproTicksOut>
						<file id="file-144"/>
						<sourcetrack>
							<mediatype>audio</mediatype>
							<trackindex>2</trackindex>
						</sourcetrack>
							<filter>
								<effect>
									<name>Time Remap</name>
									<effectid>timeremap</effectid>
									<effectcategory>motion</effectcategory>
									<effecttype>motion</effecttype>
									<mediatype>audio</mediatype>
									<parameter authoringApp="PremierePro">
										<parameterid>variablespeed</parameterid>
										<name>variablespeed</name>
										<valuemin>0</valuemin>
										<valuemax>1</valuemax>
										<value>0</value>
									</parameter>
									<parameter authoringApp="PremierePro">
										<parameterid>speed</parameterid>
										<name>speed</name>
										<valuemin>-100000</valuemin>
										<valuemax>100000</valuemax>
										<value>200</value>
									</parameter>
									<parameter authoringApp="PremierePro">
										<parameterid>reverse</parameterid>
										<name>reverse</name>
										<value>FALSE</value>
									</parameter>
									<parameter authoringApp="PremierePro">
										<parameterid>frameblending</parameterid>
										<name>frameblending</name>
										<value>FALSE</value>
									</parameter>
									<parameter authoringApp="PremierePro">
										<parameterid>graphdict</parameterid>
										<name>graphdict</name>
										<valuemin>0</valuemin>
										<valuemax>136</valuemax>
										<value>0</value>
										<keyframe>
											<when>0</when>
											<value>0</value>
											<speedvirtualkf>TRUE</speedvirtualkf>
											<speedkfstart>TRUE</speedkfstart>
										</keyframe>
										<keyframe>
											<when>27</when>
											<value>54</value>
											<speedvirtualkf>TRUE</speedvirtualkf>
											<speedkfin>TRUE</speedkfin>
										</keyframe>
										<keyframe>
											<when>66</when>
											<value>132</value>
											<speedvirtualkf>TRUE</speedvirtualkf>
											<speedkfout>TRUE</speedkfout>
										</keyframe>
										<keyframe>
											<when>68</when>
											<value>136</value>
											<speedvirtualkf>TRUE</speedvirtualkf>
											<speedkfend>TRUE</speedkfend>
										</keyframe>
										<interpolation>
											<name>FCPCurve</name>
										</interpolation>
									</parameter>
								</effect>
							</filter>
						<link>
							<linkclipref>clipitem-632</linkclipref>
							<mediatype>audio</mediatype>
							<trackindex>11</trackindex>
							<clipindex>11</clipindex>
							<groupindex>1</groupindex>
						</link>
						<link>
							<linkclipref>clipitem-664</linkclipref>
							<mediatype>audio</mediatype>
							<trackindex>12</trackindex>
							<clipindex>8</clipindex>
							<groupindex>1</groupindex>
						</link>
						<logginginfo>
							<description></description>
							<scene></scene>
							<shottake></shottake>
							<lognote></lognote>
						</logginginfo>
						<labels>
							<label2>Caribbean</label2>
						</labels>
					</clipitem>
					<clipitem id="clipitem-665" premiereChannelType="stereo">
						<masterclipid>masterclip-161</masterclipid>
						<name>85618__timbre__rope-swoosh-with-added-pseudo-doppler-effect.wav</name>
						<enabled>TRUE</enabled>
						<duration>277</duration>
						<rate>
							<timebase>25</timebase>
							<ntsc>FALSE</ntsc>
						</rate>
						<start>9865</start>
						<end>9880</end>
						<in>28</in>
						<out>43</out>
						<pproTicksIn>264176640000</pproTicksIn>
						<pproTicksOut>401345280000</pproTicksOut>
						<file id="file-145"/>
						<sourcetrack>
							<mediatype>audio</mediatype>
							<trackindex>2</trackindex>
						</sourcetrack>
							<filter>
								<effect>
									<name>Gain</name>
									<effectid>{61756678, 4761696e, 4b657947}</effectid>
									<effecttype>filter</effecttype>
									<mediatype>audio</mediatype>
									<parameter authoringApp="PremierePro">
										<parameterid>Gain(dB)</parameterid>
										<name>Gain(dB)</name>
										<valuemin>-96</valuemin>
										<valuemax>96</valuemax>
										<value>-14</value>
									</parameter>
								</effect>
							</filter>
							<filter>
								<effect>
									<name>Time Remap</name>
									<effectid>timeremap</effectid>
									<effectcategory>motion</effectcategory>
									<effecttype>motion</effecttype>
									<mediatype>audio</mediatype>
									<parameter authoringApp="PremierePro">
										<parameterid>variablespeed</parameterid>
										<name>variablespeed</name>
										<valuemin>0</valuemin>
										<valuemax>1</valuemax>
										<value>0</value>
									</parameter>
									<parameter authoringApp="PremierePro">
										<parameterid>speed</parameterid>
										<name>speed</name>
										<valuemin>-100000</valuemin>
										<valuemax>100000</valuemax>
										<value>90</value>
									</parameter>
									<parameter authoringApp="PremierePro">
										<parameterid>reverse</parameterid>
										<name>reverse</name>
										<value>FALSE</value>
									</parameter>
									<parameter authoringApp="PremierePro">
										<parameterid>frameblending</parameterid>
										<name>frameblending</name>
										<value>FALSE</value>
									</parameter>
									<parameter authoringApp="PremierePro">
										<parameterid>graphdict</parameterid>
										<name>graphdict</name>
										<valuemin>0</valuemin>
										<valuemax>249</valuemax>
										<value>0</value>
										<keyframe>
											<when>0</when>
											<value>0</value>
											<speedvirtualkf>TRUE</speedvirtualkf>
											<speedkfstart>TRUE</speedkfstart>
										</keyframe>
										<keyframe>
											<when>28</when>
											<value>25</value>
											<speedvirtualkf>TRUE</speedvirtualkf>
											<speedkfin>TRUE</speedkfin>
										</keyframe>
										<keyframe>
											<when>43</when>
											<value>38</value>
											<speedvirtualkf>TRUE</speedvirtualkf>
											<speedkfout>TRUE</speedkfout>
										</keyframe>
										<keyframe>
											<when>277</when>
											<value>249</value>
											<speedvirtualkf>TRUE</speedvirtualkf>
											<speedkfend>TRUE</speedkfend>
										</keyframe>
										<interpolation>
											<name>FCPCurve</name>
										</interpolation>
									</parameter>
								</effect>
							</filter>
						<link>
							<linkclipref>clipitem-633</linkclipref>
							<mediatype>audio</mediatype>
							<trackindex>11</trackindex>
							<clipindex>12</clipindex>
							<groupindex>1</groupindex>
						</link>
						<link>
							<linkclipref>clipitem-665</linkclipref>
							<mediatype>audio</mediatype>
							<trackindex>12</trackindex>
							<clipindex>9</clipindex>
							<groupindex>1</groupindex>
						</link>
						<logginginfo>
							<description></description>
							<scene></scene>
							<shottake></shottake>
							<lognote></lognote>
						</logginginfo>
						<labels>
							<label2>Caribbean</label2>
						</labels>
					</clipitem>
					<clipitem id="clipitem-666" premiereChannelType="stereo">
						<masterclipid>masterclip-162</masterclipid>
						<name>NONRE632590HD0001 Multi-Love.wav</name>
						<enabled>TRUE</enabled>
						<duration>6270</duration>
						<rate>
							<timebase>25</timebase>
							<ntsc>FALSE</ntsc>
						</rate>
						<start>10839</start>
						<end>11119</end>
						<in>0</in>
						<out>280</out>
						<pproTicksIn>0</pproTicksIn>
						<pproTicksOut>2844979200000</pproTicksOut>
						<file id="file-146"/>
						<sourcetrack>
							<mediatype>audio</mediatype>
							<trackindex>2</trackindex>
						</sourcetrack>
							<filter>
								<effect>
									<name>Gain</name>
									<effectid>{61756678, 4761696e, 4b657947}</effectid>
									<effecttype>filter</effecttype>
									<mediatype>audio</mediatype>
									<parameter authoringApp="PremierePro">
										<parameterid>Gain(dB)</parameterid>
										<name>Gain(dB)</name>
										<valuemin>-96</valuemin>
										<valuemax>96</valuemax>
										<value>-18</value>
									</parameter>
								</effect>
							</filter>
						<link>
							<linkclipref>clipitem-634</linkclipref>
							<mediatype>audio</mediatype>
							<trackindex>11</trackindex>
							<clipindex>13</clipindex>
							<groupindex>1</groupindex>
						</link>
						<link>
							<linkclipref>clipitem-666</linkclipref>
							<mediatype>audio</mediatype>
							<trackindex>12</trackindex>
							<clipindex>10</clipindex>
							<groupindex>1</groupindex>
						</link>
						<logginginfo>
							<description></description>
							<scene></scene>
							<shottake></shottake>
							<lognote></lognote>
						</logginginfo>
						<labels>
							<label2>Caribbean</label2>
						</labels>
					</clipitem>
					<transitionitem>
						<start>11884</start>
						<end>11908</end>
						<alignment>start-black</alignment>
						<cutPointTicks>0</cutPointTicks>
						<rate>
							<timebase>25</timebase>
							<ntsc>FALSE</ntsc>
						</rate>
						<effect>
							<name>Cross Fade (+3dB)</name>
							<effectid>KGAudioTransCrossFade3dB</effectid>
							<effecttype>transition</effecttype>
							<mediatype>audio</mediatype>
							<wipecode>0</wipecode>
							<wipeaccuracy>100</wipeaccuracy>
							<startratio>0</startratio>
							<endratio>1</endratio>
							<reverse>FALSE</reverse>
						</effect>
					</transitionitem>
					<clipitem id="clipitem-667" premiereChannelType="stereo">
						<masterclipid>masterclip-162</masterclipid>
						<name>NONRE632590HD0001 Multi-Love.wav</name>
						<enabled>TRUE</enabled>
						<duration>6270</duration>
						<rate>
							<timebase>25</timebase>
							<ntsc>FALSE</ntsc>
						</rate>
						<start>-1</start>
						<end>-1</end>
						<in>5999</in>
						<out>6065</out>
						<pproTicksIn>60953679360000</pproTicksIn>
						<pproTicksOut>61624281600000</pproTicksOut>
						<file id="file-146"/>
						<sourcetrack>
							<mediatype>audio</mediatype>
							<trackindex>2</trackindex>
						</sourcetrack>
							<filter>
								<effect>
									<name>Gain</name>
									<effectid>{61756678, 4761696e, 4b657947}</effectid>
									<effecttype>filter</effecttype>
									<mediatype>audio</mediatype>
									<parameter authoringApp="PremierePro">
										<parameterid>Gain(dB)</parameterid>
										<name>Gain(dB)</name>
										<valuemin>-96</valuemin>
										<valuemax>96</valuemax>
										<value>-21</value>
									</parameter>
								</effect>
							</filter>
						<link>
							<linkclipref>clipitem-635</linkclipref>
							<mediatype>audio</mediatype>
							<trackindex>11</trackindex>
							<clipindex>15</clipindex>
							<groupindex>1</groupindex>
						</link>
						<link>
							<linkclipref>clipitem-667</linkclipref>
							<mediatype>audio</mediatype>
							<trackindex>12</trackindex>
							<clipindex>12</clipindex>
							<groupindex>1</groupindex>
						</link>
						<logginginfo>
							<description></description>
							<scene></scene>
							<shottake></shottake>
							<lognote></lognote>
						</logginginfo>
						<labels>
							<label2>Caribbean</label2>
						</labels>
					</clipitem>
					<transitionitem>
						<start>11937</start>
						<end>11950</end>
						<alignment>end-black</alignment>
						<cutPointTicks>132088320000</cutPointTicks>
						<rate>
							<timebase>25</timebase>
							<ntsc>FALSE</ntsc>
						</rate>
						<effect>
							<name>Cross Fade (+3dB)</name>
							<effectid>KGAudioTransCrossFade3dB</effectid>
							<effecttype>transition</effecttype>
							<mediatype>audio</mediatype>
							<wipecode>0</wipecode>
							<wipeaccuracy>100</wipeaccuracy>
							<startratio>0</startratio>
							<endratio>1</endratio>
							<reverse>FALSE</reverse>
						</effect>
					</transitionitem>
					<transitionitem>
						<start>12330</start>
						<end>12354</end>
						<alignment>start-black</alignment>
						<cutPointTicks>0</cutPointTicks>
						<rate>
							<timebase>25</timebase>
							<ntsc>FALSE</ntsc>
						</rate>
						<effect>
							<name>Cross Fade (+3dB)</name>
							<effectid>KGAudioTransCrossFade3dB</effectid>
							<effecttype>transition</effecttype>
							<mediatype>audio</mediatype>
							<wipecode>0</wipecode>
							<wipeaccuracy>100</wipeaccuracy>
							<startratio>0</startratio>
							<endratio>1</endratio>
							<reverse>FALSE</reverse>
						</effect>
					</transitionitem>
					<clipitem id="clipitem-668" premiereChannelType="stereo">
						<masterclipid>masterclip-162</masterclipid>
						<name>NONRE632590HD0001 Multi-Love.wav</name>
						<enabled>TRUE</enabled>
						<duration>6270</duration>
						<rate>
							<timebase>25</timebase>
							<ntsc>FALSE</ntsc>
						</rate>
						<start>-1</start>
						<end>12547</end>
						<in>5999</in>
						<out>6216</out>
						<pproTicksIn>60953679360000</pproTicksIn>
						<pproTicksOut>63158538240000</pproTicksOut>
						<file id="file-146"/>
						<sourcetrack>
							<mediatype>audio</mediatype>
							<trackindex>2</trackindex>
						</sourcetrack>
							<filter>
								<effect>
									<name>Gain</name>
									<effectid>{61756678, 4761696e, 4b657947}</effectid>
									<effecttype>filter</effecttype>
									<mediatype>audio</mediatype>
									<parameter authoringApp="PremierePro">
										<parameterid>Gain(dB)</parameterid>
										<name>Gain(dB)</name>
										<valuemin>-96</valuemin>
										<valuemax>96</valuemax>
										<value>-21</value>
									</parameter>
								</effect>
							</filter>
						<link>
							<linkclipref>clipitem-636</linkclipref>
							<mediatype>audio</mediatype>
							<trackindex>11</trackindex>
							<clipindex>18</clipindex>
							<groupindex>1</groupindex>
						</link>
						<link>
							<linkclipref>clipitem-668</linkclipref>
							<mediatype>audio</mediatype>
							<trackindex>12</trackindex>
							<clipindex>15</clipindex>
							<groupindex>1</groupindex>
						</link>
						<logginginfo>
							<description></description>
							<scene></scene>
							<shottake></shottake>
							<lognote></lognote>
						</logginginfo>
						<labels>
							<label2>Caribbean</label2>
						</labels>
					</clipitem>
					<transitionitem>
						<start>13009</start>
						<end>13022</end>
						<alignment>start-black</alignment>
						<cutPointTicks>0</cutPointTicks>
						<rate>
							<timebase>25</timebase>
							<ntsc>FALSE</ntsc>
						</rate>
						<effect>
							<name>Cross Fade (+3dB)</name>
							<effectid>KGAudioTransCrossFade3dB</effectid>
							<effecttype>transition</effecttype>
							<mediatype>audio</mediatype>
							<wipecode>0</wipecode>
							<wipeaccuracy>100</wipeaccuracy>
							<startratio>0</startratio>
							<endratio>1</endratio>
							<reverse>FALSE</reverse>
						</effect>
					</transitionitem>
					<clipitem id="clipitem-669" premiereChannelType="stereo">
						<masterclipid>masterclip-163</masterclipid>
						<name>NONRO152408CD0003 Milkshake.wav</name>
						<enabled>TRUE</enabled>
						<duration>4565</duration>
						<rate>
							<timebase>25</timebase>
							<ntsc>FALSE</ntsc>
						</rate>
						<start>-1</start>
						<end>-1</end>
						<in>3</in>
						<out>49</out>
						<pproTicksIn>30481920000</pproTicksIn>
						<pproTicksOut>497871360000</pproTicksOut>
						<file id="file-147"/>
						<sourcetrack>
							<mediatype>audio</mediatype>
							<trackindex>2</trackindex>
						</sourcetrack>
							<filter>
								<effect>
									<name>Gain</name>
									<effectid>{61756678, 4761696e, 4b657947}</effectid>
									<effecttype>filter</effecttype>
									<mediatype>audio</mediatype>
									<parameter authoringApp="PremierePro">
										<parameterid>Gain(dB)</parameterid>
										<name>Gain(dB)</name>
										<valuemin>-96</valuemin>
										<valuemax>96</valuemax>
										<value>-27</value>
									</parameter>
								</effect>
							</filter>
						<link>
							<linkclipref>clipitem-637</linkclipref>
							<mediatype>audio</mediatype>
							<trackindex>11</trackindex>
							<clipindex>20</clipindex>
							<groupindex>1</groupindex>
						</link>
						<link>
							<linkclipref>clipitem-669</linkclipref>
							<mediatype>audio</mediatype>
							<trackindex>12</trackindex>
							<clipindex>17</clipindex>
							<groupindex>1</groupindex>
						</link>
						<logginginfo>
							<description></description>
							<scene></scene>
							<shottake></shottake>
							<lognote>CD Track 3 archiveNo[152408027]</lognote>
						</logginginfo>
						<labels>
							<label2>Caribbean</label2>
						</labels>
					</clipitem>
					<transitionitem>
						<start>13042</start>
						<end>13055</end>
						<alignment>center</alignment>
						<cutPointTicks>60963840000</cutPointTicks>
						<rate>
							<timebase>25</timebase>
							<ntsc>FALSE</ntsc>
						</rate>
						<effect>
							<name>Cross Fade (+3dB)</name>
							<effectid>KGAudioTransCrossFade3dB</effectid>
							<effecttype>transition</effecttype>
							<mediatype>audio</mediatype>
							<wipecode>0</wipecode>
							<wipeaccuracy>100</wipeaccuracy>
							<startratio>0</startratio>
							<endratio>1</endratio>
							<reverse>FALSE</reverse>
						</effect>
					</transitionitem>
					<clipitem id="clipitem-670" premiereChannelType="stereo">
						<masterclipid>masterclip-163</masterclipid>
						<name>NONRO152408CD0003 Milkshake.wav</name>
						<enabled>TRUE</enabled>
						<duration>4565</duration>
						<rate>
							<timebase>25</timebase>
							<ntsc>FALSE</ntsc>
						</rate>
						<start>-1</start>
						<end>13115</end>
						<in>36</in>
						<out>109</out>
						<pproTicksIn>365783040000</pproTicksIn>
						<pproTicksOut>1107509760000</pproTicksOut>
						<file id="file-147"/>
						<sourcetrack>
							<mediatype>audio</mediatype>
							<trackindex>2</trackindex>
						</sourcetrack>
							<filter>
								<effect>
									<name>Gain</name>
									<effectid>{61756678, 4761696e, 4b657947}</effectid>
									<effecttype>filter</effecttype>
									<mediatype>audio</mediatype>
									<parameter authoringApp="PremierePro">
										<parameterid>Gain(dB)</parameterid>
										<name>Gain(dB)</name>
										<valuemin>-96</valuemin>
										<valuemax>96</valuemax>
										<value>-33</value>
									</parameter>
								</effect>
							</filter>
						<link>
							<linkclipref>clipitem-638</linkclipref>
							<mediatype>audio</mediatype>
							<trackindex>11</trackindex>
							<clipindex>22</clipindex>
							<groupindex>1</groupindex>
						</link>
						<link>
							<linkclipref>clipitem-670</linkclipref>
							<mediatype>audio</mediatype>
							<trackindex>12</trackindex>
							<clipindex>19</clipindex>
							<groupindex>1</groupindex>
						</link>
						<logginginfo>
							<description></description>
							<scene></scene>
							<shottake></shottake>
							<lognote>CD Track 3 archiveNo[152408027]</lognote>
						</logginginfo>
						<labels>
							<label2>Caribbean</label2>
						</labels>
					</clipitem>
					<clipitem id="clipitem-671" premiereChannelType="stereo">
						<masterclipid>masterclip-164</masterclipid>
						<name>NONRE632590HD0006 The World Is Crowded.wav</name>
						<enabled>TRUE</enabled>
						<duration>6490</duration>
						<rate>
							<timebase>25</timebase>
							<ntsc>FALSE</ntsc>
						</rate>
						<start>13139</start>
						<end>-1</end>
						<in>348</in>
						<out>602</out>
						<pproTicksIn>3535902720000</pproTicksIn>
						<pproTicksOut>6116705280000</pproTicksOut>
						<file id="file-148"/>
						<sourcetrack>
							<mediatype>audio</mediatype>
							<trackindex>2</trackindex>
						</sourcetrack>
							<filter>
								<effect>
									<name>Gain</name>
									<effectid>{61756678, 4761696e, 4b657947}</effectid>
									<effecttype>filter</effecttype>
									<mediatype>audio</mediatype>
									<parameter authoringApp="PremierePro">
										<parameterid>Gain(dB)</parameterid>
										<name>Gain(dB)</name>
										<valuemin>-96</valuemin>
										<valuemax>96</valuemax>
										<value>-33</value>
									</parameter>
								</effect>
							</filter>
						<link>
							<linkclipref>clipitem-639</linkclipref>
							<mediatype>audio</mediatype>
							<trackindex>11</trackindex>
							<clipindex>23</clipindex>
							<groupindex>1</groupindex>
						</link>
						<link>
							<linkclipref>clipitem-671</linkclipref>
							<mediatype>audio</mediatype>
							<trackindex>12</trackindex>
							<clipindex>20</clipindex>
							<groupindex>1</groupindex>
						</link>
						<logginginfo>
							<description></description>
							<scene></scene>
							<shottake></shottake>
							<lognote></lognote>
						</logginginfo>
						<labels>
							<label2>Caribbean</label2>
						</labels>
					</clipitem>
					<transitionitem>
						<start>13325</start>
						<end>13393</end>
						<alignment>end-black</alignment>
						<cutPointTicks>690923520000</cutPointTicks>
						<rate>
							<timebase>25</timebase>
							<ntsc>FALSE</ntsc>
						</rate>
						<effect>
							<name>Cross Fade (+3dB)</name>
							<effectid>KGAudioTransCrossFade3dB</effectid>
							<effecttype>transition</effecttype>
							<mediatype>audio</mediatype>
							<wipecode>0</wipecode>
							<wipeaccuracy>100</wipeaccuracy>
							<startratio>0</startratio>
							<endratio>1</endratio>
							<reverse>FALSE</reverse>
						</effect>
					</transitionitem>
					<clipitem id="clipitem-672" premiereChannelType="stereo">
						<masterclipid>masterclip-166</masterclipid>
						<name>175318__ladin__bowling-lanes.wav</name>
						<enabled>TRUE</enabled>
						<duration>7282</duration>
						<rate>
							<timebase>25</timebase>
							<ntsc>FALSE</ntsc>
						</rate>
						<start>16387</start>
						<end>16420</end>
						<in>7076</in>
						<out>7109</out>
						<pproTicksIn>71896688640000</pproTicksIn>
						<pproTicksOut>72231989760000</pproTicksOut>
						<file id="file-150"/>
						<sourcetrack>
							<mediatype>audio</mediatype>
							<trackindex>2</trackindex>
						</sourcetrack>
							<filter>
								<effect>
									<name>Gain</name>
									<effectid>{61756678, 4761696e, 4b657947}</effectid>
									<effecttype>filter</effecttype>
									<mediatype>audio</mediatype>
									<parameter authoringApp="PremierePro">
										<parameterid>Gain(dB)</parameterid>
										<name>Gain(dB)</name>
										<valuemin>-96</valuemin>
										<valuemax>96</valuemax>
										<value>-10</value>
									</parameter>
								</effect>
							</filter>
						<link>
							<linkclipref>clipitem-642</linkclipref>
							<mediatype>audio</mediatype>
							<trackindex>11</trackindex>
							<clipindex>27</clipindex>
							<groupindex>1</groupindex>
						</link>
						<link>
							<linkclipref>clipitem-672</linkclipref>
							<mediatype>audio</mediatype>
							<trackindex>12</trackindex>
							<clipindex>22</clipindex>
							<groupindex>1</groupindex>
						</link>
						<logginginfo>
							<description></description>
							<scene></scene>
							<shottake></shottake>
							<lognote></lognote>
						</logginginfo>
						<labels>
							<label2>Rose</label2>
						</labels>
					</clipitem>
					<clipitem id="clipitem-673" premiereChannelType="stereo">
						<masterclipid>masterclip-167</masterclipid>
						<name>65244__carbilicon__bowling.wav</name>
						<enabled>TRUE</enabled>
						<duration>114</duration>
						<rate>
							<timebase>25</timebase>
							<ntsc>FALSE</ntsc>
						</rate>
						<start>18067</start>
						<end>18181</end>
						<in>0</in>
						<out>114</out>
						<pproTicksIn>0</pproTicksIn>
						<pproTicksOut>1158312960000</pproTicksOut>
						<file id="file-151"/>
						<sourcetrack>
							<mediatype>audio</mediatype>
							<trackindex>2</trackindex>
						</sourcetrack>
							<filter>
								<effect>
									<name>Gain</name>
									<effectid>{61756678, 4761696e, 4b657947}</effectid>
									<effecttype>filter</effecttype>
									<mediatype>audio</mediatype>
									<parameter authoringApp="PremierePro">
										<parameterid>Gain(dB)</parameterid>
										<name>Gain(dB)</name>
										<valuemin>-96</valuemin>
										<valuemax>96</valuemax>
										<value>0.999999</value>
									</parameter>
								</effect>
							</filter>
						<link>
							<linkclipref>clipitem-643</linkclipref>
							<mediatype>audio</mediatype>
							<trackindex>11</trackindex>
							<clipindex>28</clipindex>
							<groupindex>1</groupindex>
						</link>
						<link>
							<linkclipref>clipitem-673</linkclipref>
							<mediatype>audio</mediatype>
							<trackindex>12</trackindex>
							<clipindex>23</clipindex>
							<groupindex>1</groupindex>
						</link>
						<logginginfo>
							<description></description>
							<scene></scene>
							<shottake></shottake>
							<lognote></lognote>
						</logginginfo>
						<labels>
							<label2>Rose</label2>
						</labels>
					</clipitem>
					<transitionitem>
						<start>18903</start>
						<end>19149</end>
						<alignment>start-black</alignment>
						<cutPointTicks>0</cutPointTicks>
						<rate>
							<timebase>25</timebase>
							<ntsc>FALSE</ntsc>
						</rate>
						<effect>
							<name>Cross Fade (+3dB)</name>
							<effectid>KGAudioTransCrossFade3dB</effectid>
							<effecttype>transition</effecttype>
							<mediatype>audio</mediatype>
							<wipecode>0</wipecode>
							<wipeaccuracy>100</wipeaccuracy>
							<startratio>0</startratio>
							<endratio>1</endratio>
							<reverse>FALSE</reverse>
						</effect>
					</transitionitem>
					<clipitem id="clipitem-674" premiereChannelType="stereo">
						<masterclipid>masterclip-122</masterclipid>
						<name>BM004209.wav</name>
						<enabled>TRUE</enabled>
						<duration>4843</duration>
						<rate>
							<timebase>25</timebase>
							<ntsc>FALSE</ntsc>
						</rate>
						<start>-1</start>
						<end>-1</end>
						<in>0</in>
						<out>748</out>
						<pproTicksIn>0</pproTicksIn>
						<pproTicksOut>7600158720000</pproTicksOut>
						<file id="file-111"/>
						<sourcetrack>
							<mediatype>audio</mediatype>
							<trackindex>2</trackindex>
						</sourcetrack>
							<filter>
								<effect>
									<name>Gain</name>
									<effectid>{61756678, 4761696e, 4b657947}</effectid>
									<effecttype>filter</effecttype>
									<mediatype>audio</mediatype>
									<parameter authoringApp="PremierePro">
										<parameterid>Gain(dB)</parameterid>
										<name>Gain(dB)</name>
										<valuemin>-96</valuemin>
										<valuemax>96</valuemax>
										<value>-18</value>
									</parameter>
								</effect>
							</filter>
						<link>
							<linkclipref>clipitem-644</linkclipref>
							<mediatype>audio</mediatype>
							<trackindex>11</trackindex>
							<clipindex>30</clipindex>
							<groupindex>1</groupindex>
						</link>
						<link>
							<linkclipref>clipitem-674</linkclipref>
							<mediatype>audio</mediatype>
							<trackindex>12</trackindex>
							<clipindex>25</clipindex>
							<groupindex>1</groupindex>
						</link>
						<logginginfo>
							<description></description>
							<scene></scene>
							<shottake></shottake>
							<lognote></lognote>
						</logginginfo>
						<labels>
							<label2>Caribbean</label2>
						</labels>
					</clipitem>
					<transitionitem>
						<start>19622</start>
						<end>19651</end>
						<alignment>end-black</alignment>
						<cutPointTicks>294658560000</cutPointTicks>
						<rate>
							<timebase>25</timebase>
							<ntsc>FALSE</ntsc>
						</rate>
						<effect>
							<name>Cross Fade (+3dB)</name>
							<effectid>KGAudioTransCrossFade3dB</effectid>
							<effecttype>transition</effecttype>
							<mediatype>audio</mediatype>
							<wipecode>0</wipecode>
							<wipeaccuracy>100</wipeaccuracy>
							<startratio>0</startratio>
							<endratio>1</endratio>
							<reverse>FALSE</reverse>
						</effect>
					</transitionitem>
					<clipitem id="clipitem-675" premiereChannelType="stereo">
						<masterclipid>masterclip-168</masterclipid>
						<name>NONRO174537CD0001 Klaverkonsert, op. 16, a-moll_ 1. sats. Alleg.wav</name>
						<enabled>TRUE</enabled>
						<duration>19120</duration>
						<rate>
							<timebase>25</timebase>
							<ntsc>FALSE</ntsc>
						</rate>
						<start>20530</start>
						<end>21107</end>
						<in>130</in>
						<out>707</out>
						<pproTicksIn>1320883200000</pproTicksIn>
						<pproTicksOut>7183572480000</pproTicksOut>
						<file id="file-152"/>
						<sourcetrack>
							<mediatype>audio</mediatype>
							<trackindex>2</trackindex>
						</sourcetrack>
							<filter>
								<effect>
									<name>Gain</name>
									<effectid>{61756678, 4761696e, 4b657947}</effectid>
									<effecttype>filter</effecttype>
									<mediatype>audio</mediatype>
									<parameter authoringApp="PremierePro">
										<parameterid>Gain(dB)</parameterid>
										<name>Gain(dB)</name>
										<valuemin>-96</valuemin>
										<valuemax>96</valuemax>
										<value>-4</value>
									</parameter>
								</effect>
							</filter>
						<link>
							<linkclipref>clipitem-645</linkclipref>
							<mediatype>audio</mediatype>
							<trackindex>11</trackindex>
							<clipindex>32</clipindex>
							<groupindex>1</groupindex>
						</link>
						<link>
							<linkclipref>clipitem-675</linkclipref>
							<mediatype>audio</mediatype>
							<trackindex>12</trackindex>
							<clipindex>27</clipindex>
							<groupindex>1</groupindex>
						</link>
						<logginginfo>
							<description></description>
							<scene></scene>
							<shottake></shottake>
							<lognote>CD Track 1 archiveNo[174537027]</lognote>
						</logginginfo>
						<labels>
							<label2>Caribbean</label2>
						</labels>
					</clipitem>
					<clipitem id="clipitem-676" premiereChannelType="stereo">
						<masterclipid>masterclip-168</masterclipid>
						<name>NONRO174537CD0001 Klaverkonsert, op. 16, a-moll_ 1. sats. Alleg.wav</name>
						<enabled>TRUE</enabled>
						<duration>19120</duration>
						<rate>
							<timebase>25</timebase>
							<ntsc>FALSE</ntsc>
						</rate>
						<start>21211</start>
						<end>-1</end>
						<in>18800</in>
						<out>18842</out>
						<pproTicksIn>191020032000000</pproTicksIn>
						<pproTicksOut>191446778880000</pproTicksOut>
						<file id="file-152"/>
						<sourcetrack>
							<mediatype>audio</mediatype>
							<trackindex>2</trackindex>
						</sourcetrack>
							<filter>
								<effect>
									<name>Gain</name>
									<effectid>{61756678, 4761696e, 4b657947}</effectid>
									<effecttype>filter</effecttype>
									<mediatype>audio</mediatype>
									<parameter authoringApp="PremierePro">
										<parameterid>Gain(dB)</parameterid>
										<name>Gain(dB)</name>
										<valuemin>-96</valuemin>
										<valuemax>96</valuemax>
										<value>-20</value>
									</parameter>
								</effect>
							</filter>
						<link>
							<linkclipref>clipitem-646</linkclipref>
							<mediatype>audio</mediatype>
							<trackindex>11</trackindex>
							<clipindex>33</clipindex>
							<groupindex>1</groupindex>
						</link>
						<link>
							<linkclipref>clipitem-676</linkclipref>
							<mediatype>audio</mediatype>
							<trackindex>12</trackindex>
							<clipindex>28</clipindex>
							<groupindex>1</groupindex>
						</link>
						<logginginfo>
							<description></description>
							<scene></scene>
							<shottake></shottake>
							<lognote>CD Track 1 archiveNo[174537027]</lognote>
						</logginginfo>
						<labels>
							<label2>Caribbean</label2>
						</labels>
					</clipitem>
					<transitionitem>
						<start>21248</start>
						<end>21253</end>
						<alignment>center</alignment>
						<cutPointTicks>20321280000</cutPointTicks>
						<rate>
							<timebase>25</timebase>
							<ntsc>FALSE</ntsc>
						</rate>
						<effect>
							<name>Cross Fade (+3dB)</name>
							<effectid>KGAudioTransCrossFade3dB</effectid>
							<effecttype>transition</effecttype>
							<mediatype>audio</mediatype>
							<wipecode>0</wipecode>
							<wipeaccuracy>100</wipeaccuracy>
							<startratio>0</startratio>
							<endratio>1</endratio>
							<reverse>FALSE</reverse>
						</effect>
					</transitionitem>
					<clipitem id="clipitem-677" premiereChannelType="stereo">
						<masterclipid>masterclip-168</masterclipid>
						<name>NONRO174537CD0001 Klaverkonsert, op. 16, a-moll_ 1. sats. Alleg.wav</name>
						<enabled>TRUE</enabled>
						<duration>19120</duration>
						<rate>
							<timebase>25</timebase>
							<ntsc>FALSE</ntsc>
						</rate>
						<start>-1</start>
						<end>21399</end>
						<in>18837</in>
						<out>18988</out>
						<pproTicksIn>191395975680000</pproTicksIn>
						<pproTicksOut>192930232320000</pproTicksOut>
						<file id="file-152"/>
						<sourcetrack>
							<mediatype>audio</mediatype>
							<trackindex>2</trackindex>
						</sourcetrack>
							<filter>
								<effect>
									<name>Gain</name>
									<effectid>{61756678, 4761696e, 4b657947}</effectid>
									<effecttype>filter</effecttype>
									<mediatype>audio</mediatype>
									<parameter authoringApp="PremierePro">
										<parameterid>Gain(dB)</parameterid>
										<name>Gain(dB)</name>
										<valuemin>-96</valuemin>
										<valuemax>96</valuemax>
										<value>-14</value>
									</parameter>
								</effect>
							</filter>
						<link>
							<linkclipref>clipitem-647</linkclipref>
							<mediatype>audio</mediatype>
							<trackindex>11</trackindex>
							<clipindex>35</clipindex>
							<groupindex>1</groupindex>
						</link>
						<link>
							<linkclipref>clipitem-677</linkclipref>
							<mediatype>audio</mediatype>
							<trackindex>12</trackindex>
							<clipindex>30</clipindex>
							<groupindex>1</groupindex>
						</link>
						<logginginfo>
							<description></description>
							<scene></scene>
							<shottake></shottake>
							<lognote>CD Track 1 archiveNo[174537027]</lognote>
						</logginginfo>
						<labels>
							<label2>Caribbean</label2>
						</labels>
					</clipitem>
					<clipitem id="clipitem-678" premiereChannelType="stereo">
						<masterclipid>masterclip-146</masterclipid>
						<name>267887__wjl__short-fireball-woosh.wav</name>
						<enabled>TRUE</enabled>
						<duration>29</duration>
						<rate>
							<timebase>25</timebase>
							<ntsc>FALSE</ntsc>
						</rate>
						<start>23478</start>
						<end>23507</end>
						<in>0</in>
						<out>29</out>
						<pproTicksIn>0</pproTicksIn>
						<pproTicksOut>294658560000</pproTicksOut>
						<file id="file-132"/>
						<sourcetrack>
							<mediatype>audio</mediatype>
							<trackindex>2</trackindex>
						</sourcetrack>
							<filter>
								<effect>
									<name>Gain</name>
									<effectid>{61756678, 4761696e, 4b657947}</effectid>
									<effecttype>filter</effecttype>
									<mediatype>audio</mediatype>
									<parameter authoringApp="PremierePro">
										<parameterid>Gain(dB)</parameterid>
										<name>Gain(dB)</name>
										<valuemin>-96</valuemin>
										<valuemax>96</valuemax>
										<value>-10</value>
									</parameter>
								</effect>
							</filter>
						<link>
							<linkclipref>clipitem-648</linkclipref>
							<mediatype>audio</mediatype>
							<trackindex>11</trackindex>
							<clipindex>36</clipindex>
							<groupindex>1</groupindex>
						</link>
						<link>
							<linkclipref>clipitem-678</linkclipref>
							<mediatype>audio</mediatype>
							<trackindex>12</trackindex>
							<clipindex>31</clipindex>
							<groupindex>1</groupindex>
						</link>
						<logginginfo>
							<description></description>
							<scene></scene>
							<shottake></shottake>
							<lognote></lognote>
						</logginginfo>
						<labels>
							<label2>Caribbean</label2>
						</labels>
					</clipitem>
					<clipitem id="clipitem-679" premiereChannelType="stereo">
						<masterclipid>masterclip-169</masterclipid>
						<name>264777__shinplaster__swoosh.wav</name>
						<enabled>TRUE</enabled>
						<duration>132</duration>
						<rate>
							<timebase>25</timebase>
							<ntsc>FALSE</ntsc>
						</rate>
						<start>29926</start>
						<end>30039</end>
						<in>13</in>
						<out>126</out>
						<pproTicksIn>132088320000</pproTicksIn>
						<pproTicksOut>1280240640000</pproTicksOut>
						<file id="file-153"/>
						<sourcetrack>
							<mediatype>audio</mediatype>
							<trackindex>2</trackindex>
						</sourcetrack>
							<filter>
								<effect>
									<name>Gain</name>
									<effectid>{61756678, 4761696e, 4b657947}</effectid>
									<effecttype>filter</effecttype>
									<mediatype>audio</mediatype>
									<parameter authoringApp="PremierePro">
										<parameterid>Gain(dB)</parameterid>
										<name>Gain(dB)</name>
										<valuemin>-96</valuemin>
										<valuemax>96</valuemax>
										<value>0.999999</value>
									</parameter>
								</effect>
							</filter>
						<link>
							<linkclipref>clipitem-657</linkclipref>
							<mediatype>audio</mediatype>
							<trackindex>11</trackindex>
							<clipindex>46</clipindex>
							<groupindex>1</groupindex>
						</link>
						<link>
							<linkclipref>clipitem-679</linkclipref>
							<mediatype>audio</mediatype>
							<trackindex>12</trackindex>
							<clipindex>32</clipindex>
							<groupindex>1</groupindex>
						</link>
						<logginginfo>
							<description></description>
							<scene></scene>
							<shottake></shottake>
							<lognote></lognote>
						</logginginfo>
						<labels>
							<label2>Caribbean</label2>
						</labels>
					</clipitem>
					<enabled>TRUE</enabled>
					<locked>FALSE</locked>
					<outputchannelindex>2</outputchannelindex>
				</track>
				<track TL.SQTrackAudioKeyframeStyle="0" TL.SQTrackShy="0" TL.SQTrackExpandedHeight="35" TL.SQTrackExpanded="1" MZ.TrackTargeted="1" PannerCurrentValue="0.5" PannerIsInverted="true" PannerStartKeyframe="-91445760000000000,0.5,0,0,0,0,0,0" PannerName="Balance" currentExplodedTrackIndex="0" totalExplodedTrackCount="2" premiereTrackType="Stereo">
					<clipitem id="clipitem-680" premiereChannelType="stereo">
						<masterclipid>masterclip-170</masterclipid>
						<name>30246__streety__sword4.wav</name>
						<enabled>TRUE</enabled>
						<duration>48</duration>
						<rate>
							<timebase>25</timebase>
							<ntsc>FALSE</ntsc>
						</rate>
						<start>0</start>
						<end>-1</end>
						<in>2</in>
						<out>25</out>
						<pproTicksIn>10668672000</pproTicksIn>
						<pproTicksOut>92461823997</pproTicksOut>
						<file id="file-154">
							<name>30246__streety__sword4.wav</name>
							<pathurl>file://localhost/Volumes/Bingen/Prosjekter/MYNT194016%20WHATS%20COOKING/Lydeffekter/Sverd/30246__streety__sword4.wav</pathurl>
							<rate>
								<timebase>30</timebase>
								<ntsc>TRUE</ntsc>
							</rate>
							<duration>21</duration>
							<timecode>
								<rate>
									<timebase>30</timebase>
									<ntsc>TRUE</ntsc>
								</rate>
								<string>00;00;00;00</string>
								<frame>0</frame>
								<displayformat>DF</displayformat>
								<reel>
									<name></name>
								</reel>
							</timecode>
							<media>
								<audio>
									<samplecharacteristics>
										<depth>16</depth>
										<samplerate>48000</samplerate>
									</samplecharacteristics>
									<channelcount>2</channelcount>
								</audio>
							</media>
						</file>
						<sourcetrack>
							<mediatype>audio</mediatype>
							<trackindex>1</trackindex>
						</sourcetrack>
							<filter>
								<effect>
									<name>Gain</name>
									<effectid>{61756678, 4761696e, 4b657947}</effectid>
									<effecttype>filter</effecttype>
									<mediatype>audio</mediatype>
									<parameter authoringApp="PremierePro">
										<parameterid>Gain(dB)</parameterid>
										<name>Gain(dB)</name>
										<valuemin>-96</valuemin>
										<valuemax>96</valuemax>
										<value>-10</value>
									</parameter>
								</effect>
							</filter>
							<filter>
								<effect>
									<name>Time Remap</name>
									<effectid>timeremap</effectid>
									<effectcategory>motion</effectcategory>
									<effecttype>motion</effecttype>
									<mediatype>audio</mediatype>
									<parameter authoringApp="PremierePro">
										<parameterid>variablespeed</parameterid>
										<name>variablespeed</name>
										<valuemin>0</valuemin>
										<valuemax>1</valuemax>
										<value>0</value>
									</parameter>
									<parameter authoringApp="PremierePro">
										<parameterid>speed</parameterid>
										<name>speed</name>
										<valuemin>-100000</valuemin>
										<valuemax>100000</valuemax>
										<value>35</value>
									</parameter>
									<parameter authoringApp="PremierePro">
										<parameterid>reverse</parameterid>
										<name>reverse</name>
										<value>FALSE</value>
									</parameter>
									<parameter authoringApp="PremierePro">
										<parameterid>frameblending</parameterid>
										<name>frameblending</name>
										<value>FALSE</value>
									</parameter>
									<parameter authoringApp="PremierePro">
										<parameterid>graphdict</parameterid>
										<name>graphdict</name>
										<valuemin>0</valuemin>
										<valuemax>16</valuemax>
										<value>0</value>
										<keyframe>
											<when>0</when>
											<value>0</value>
											<speedvirtualkf>TRUE</speedvirtualkf>
											<speedkfstart>TRUE</speedkfstart>
										</keyframe>
										<keyframe>
											<when>2</when>
											<value>0</value>
											<speedvirtualkf>TRUE</speedvirtualkf>
											<speedkfin>TRUE</speedkfin>
										</keyframe>
										<keyframe>
											<when>25</when>
											<value>8</value>
											<speedvirtualkf>TRUE</speedvirtualkf>
											<speedkfout>TRUE</speedkfout>
										</keyframe>
										<keyframe>
											<when>48</when>
											<value>16</value>
											<speedvirtualkf>TRUE</speedvirtualkf>
											<speedkfend>TRUE</speedkfend>
										</keyframe>
										<interpolation>
											<name>FCPCurve</name>
										</interpolation>
									</parameter>
								</effect>
							</filter>
						<link>
							<linkclipref>clipitem-680</linkclipref>
							<mediatype>audio</mediatype>
							<trackindex>13</trackindex>
							<clipindex>1</clipindex>
							<groupindex>1</groupindex>
						</link>
						<link>
							<linkclipref>clipitem-730</linkclipref>
							<mediatype>audio</mediatype>
							<trackindex>14</trackindex>
							<clipindex>1</clipindex>
							<groupindex>1</groupindex>
						</link>
						<logginginfo>
							<description></description>
							<scene></scene>
							<shottake></shottake>
							<lognote></lognote>
						</logginginfo>
						<comments>
						</comments>
						<labels>
							<label2>Caribbean</label2>
						</labels>
					</clipitem>
					<transitionitem>
						<start>10</start>
						<end>23</end>
						<alignment>end-black</alignment>
						<cutPointTicks>132088320000</cutPointTicks>
						<rate>
							<timebase>25</timebase>
							<ntsc>FALSE</ntsc>
						</rate>
						<effect>
							<name>Cross Fade (+3dB)</name>
							<effectid>KGAudioTransCrossFade3dB</effectid>
							<effecttype>transition</effecttype>
							<mediatype>audio</mediatype>
							<wipecode>0</wipecode>
							<wipeaccuracy>100</wipeaccuracy>
							<startratio>0</startratio>
							<endratio>1</endratio>
							<reverse>FALSE</reverse>
						</effect>
					</transitionitem>
					<clipitem id="clipitem-681" premiereChannelType="stereo">
						<masterclipid>masterclip-123</masterclipid>
						<name>Vold - Sverd 2</name>
						<enabled>TRUE</enabled>
						<duration>84037</duration>
						<rate>
							<timebase>25</timebase>
							<ntsc>FALSE</ntsc>
						</rate>
						<start>98</start>
						<end>117</end>
						<in>8913</in>
						<out>8932</out>
						<pproTicksIn>90561784320000</pproTicksIn>
						<pproTicksOut>90754836480000</pproTicksOut>
						<sequence id="sequence-10"/>
							<filter>
								<effect>
									<name>Gain</name>
									<effectid>{61756678, 4761696e, 4b657947}</effectid>
									<effecttype>filter</effecttype>
									<mediatype>audio</mediatype>
									<parameter authoringApp="PremierePro">
										<parameterid>Gain(dB)</parameterid>
										<name>Gain(dB)</name>
										<valuemin>-96</valuemin>
										<valuemax>96</valuemax>
										<value>-18</value>
									</parameter>
								</effect>
							</filter>
						<link>
							<linkclipref>clipitem-681</linkclipref>
							<mediatype>audio</mediatype>
							<trackindex>13</trackindex>
							<clipindex>3</clipindex>
							<groupindex>1</groupindex>
						</link>
						<link>
							<linkclipref>clipitem-731</linkclipref>
							<mediatype>audio</mediatype>
							<trackindex>14</trackindex>
							<clipindex>3</clipindex>
							<groupindex>1</groupindex>
						</link>
						<labels>
							<label2>Forest</label2>
						</labels>
					</clipitem>
					<clipitem id="clipitem-682" premiereChannelType="mono">
						<masterclipid>masterclip-128</masterclipid>
						<name>VBboks-kamp-T01-Multicam</name>
						<enabled>TRUE</enabled>
						<duration>45778</duration>
						<rate>
							<timebase>25</timebase>
							<ntsc>FALSE</ntsc>
						</rate>
						<start>189</start>
						<end>193</end>
						<in>7480</in>
						<out>7484</out>
						<pproTicksIn>76001587200000</pproTicksIn>
						<pproTicksOut>76042229760000</pproTicksOut>
						<sequence id="sequence-11"/>
							<filter>
								<effect>
									<name>Gain</name>
									<effectid>{61756678, 4761696e, 4b657947}</effectid>
									<effecttype>filter</effecttype>
									<mediatype>audio</mediatype>
									<parameter authoringApp="PremierePro">
										<parameterid>Gain(dB)</parameterid>
										<name>Gain(dB)</name>
										<valuemin>-96</valuemin>
										<valuemax>96</valuemax>
										<value>11</value>
									</parameter>
								</effect>
							</filter>
						<labels>
							<label2>Forest</label2>
						</labels>
					</clipitem>
					<clipitem id="clipitem-683" premiereChannelType="mono">
						<masterclipid>masterclip-130</masterclipid>
						<name>Clip0006.mov</name>
						<enabled>TRUE</enabled>
						<duration>26365</duration>
						<rate>
							<timebase>25</timebase>
							<ntsc>FALSE</ntsc>
						</rate>
						<start>193</start>
						<end>209</end>
						<in>11112</in>
						<out>11128</out>
						<pproTicksIn>79039618560000</pproTicksIn>
						<pproTicksOut>79153417727999</pproTicksOut>
						<file id="file-117"/>
						<sourcetrack>
							<mediatype>audio</mediatype>
							<trackindex>1</trackindex>
						</sourcetrack>
							<filter>
								<effect>
									<name>Gain</name>
									<effectid>{61756678, 4761696e, 4b657947}</effectid>
									<effecttype>filter</effecttype>
									<mediatype>audio</mediatype>
									<parameter authoringApp="PremierePro">
										<parameterid>Gain(dB)</parameterid>
										<name>Gain(dB)</name>
										<valuemin>-96</valuemin>
										<valuemax>96</valuemax>
										<value>0.999999</value>
									</parameter>
								</effect>
							</filter>
							<filter>
								<effect>
									<name>Time Remap</name>
									<effectid>timeremap</effectid>
									<effectcategory>motion</effectcategory>
									<effecttype>motion</effecttype>
									<mediatype>audio</mediatype>
									<parameter authoringApp="PremierePro">
										<parameterid>variablespeed</parameterid>
										<name>variablespeed</name>
										<valuemin>0</valuemin>
										<valuemax>1</valuemax>
										<value>0</value>
									</parameter>
									<parameter authoringApp="PremierePro">
										<parameterid>speed</parameterid>
										<name>speed</name>
										<valuemin>-100000</valuemin>
										<valuemax>100000</valuemax>
										<value>70</value>
									</parameter>
									<parameter authoringApp="PremierePro">
										<parameterid>reverse</parameterid>
										<name>reverse</name>
										<value>FALSE</value>
									</parameter>
									<parameter authoringApp="PremierePro">
										<parameterid>frameblending</parameterid>
										<name>frameblending</name>
										<value>FALSE</value>
									</parameter>
									<parameter authoringApp="PremierePro">
										<parameterid>graphdict</parameterid>
										<name>graphdict</name>
										<valuemin>0</valuemin>
										<valuemax>18455</valuemax>
										<value>0</value>
										<keyframe>
											<when>0</when>
											<value>0</value>
											<speedvirtualkf>TRUE</speedvirtualkf>
											<speedkfstart>TRUE</speedkfstart>
										</keyframe>
										<keyframe>
											<when>11112</when>
											<value>7778</value>
											<speedvirtualkf>TRUE</speedvirtualkf>
											<speedkfin>TRUE</speedkfin>
										</keyframe>
										<keyframe>
											<when>11128</when>
											<value>7789</value>
											<speedvirtualkf>TRUE</speedvirtualkf>
											<speedkfout>TRUE</speedkfout>
										</keyframe>
										<keyframe>
											<when>26365</when>
											<value>18455</value>
											<speedvirtualkf>TRUE</speedvirtualkf>
											<speedkfend>TRUE</speedkfend>
										</keyframe>
										<interpolation>
											<name>FCPCurve</name>
										</interpolation>
									</parameter>
								</effect>
							</filter>
							<marker>
								<comment></comment>
								<name>klapp</name>
								<in>206</in>
								<out>-1</out>
							</marker>
						<logginginfo>
							<description>boksT01 M klapp1 sidelinja klapp 2 Jim</description>
							<scene></scene>
							<shottake></shottake>
							<lognote></lognote>
						</logginginfo>
						<labels>
							<label2>Iris</label2>
						</labels>
					</clipitem>
					<clipitem id="clipitem-684" premiereChannelType="stereo">
						<masterclipid>masterclip-171</masterclipid>
						<name>184325__micro__woosh-slide-in.wav</name>
						<enabled>TRUE</enabled>
						<duration>14</duration>
						<rate>
							<timebase>25</timebase>
							<ntsc>FALSE</ntsc>
						</rate>
						<start>874</start>
						<end>888</end>
						<in>0</in>
						<out>14</out>
						<pproTicksIn>0</pproTicksIn>
						<pproTicksOut>142248960000</pproTicksOut>
						<file id="file-155">
							<name>184325__micro__woosh-slide-in.wav</name>
							<pathurl>file://localhost/Volumes/Bingen/Prosjekter/MYNT194016%20WHATS%20COOKING/Lydeffekter/Jan%20Lydeffekter/Woosh/184325__micro__woosh-slide-in.wav</pathurl>
							<rate>
								<timebase>30</timebase>
								<ntsc>TRUE</ntsc>
							</rate>
							<duration>17</duration>
							<timecode>
								<rate>
									<timebase>30</timebase>
									<ntsc>TRUE</ntsc>
								</rate>
								<string>01;00;06;13</string>
								<frame>108085</frame>
								<displayformat>DF</displayformat>
								<reel>
									<name></name>
								</reel>
							</timecode>
							<media>
								<audio>
									<samplecharacteristics>
										<depth>16</depth>
										<samplerate>48000</samplerate>
									</samplecharacteristics>
									<channelcount>2</channelcount>
								</audio>
							</media>
						</file>
						<sourcetrack>
							<mediatype>audio</mediatype>
							<trackindex>1</trackindex>
						</sourcetrack>
							<filter>
								<effect>
									<name>Gain</name>
									<effectid>{61756678, 4761696e, 4b657947}</effectid>
									<effecttype>filter</effecttype>
									<mediatype>audio</mediatype>
									<parameter authoringApp="PremierePro">
										<parameterid>Gain(dB)</parameterid>
										<name>Gain(dB)</name>
										<valuemin>-96</valuemin>
										<valuemax>96</valuemax>
										<value>-25</value>
									</parameter>
								</effect>
							</filter>
							<marker>
								<comment></comment>
								<name>Tempo: 120.0</name>
								<in>0</in>
								<out>-1</out>
							</marker>
						<link>
							<linkclipref>clipitem-684</linkclipref>
							<mediatype>audio</mediatype>
							<trackindex>13</trackindex>
							<clipindex>6</clipindex>
							<groupindex>1</groupindex>
						</link>
						<link>
							<linkclipref>clipitem-732</linkclipref>
							<mediatype>audio</mediatype>
							<trackindex>14</trackindex>
							<clipindex>4</clipindex>
							<groupindex>1</groupindex>
						</link>
						<logginginfo>
							<description></description>
							<scene></scene>
							<shottake></shottake>
							<lognote></lognote>
						</logginginfo>
						<labels>
							<label2>Caribbean</label2>
						</labels>
					</clipitem>
					<clipitem id="clipitem-685" premiereChannelType="stereo">
						<masterclipid>masterclip-159</masterclipid>
						<name>205991__emptysound__digital-wooshes-eleven.wav</name>
						<enabled>TRUE</enabled>
						<duration>272</duration>
						<rate>
							<timebase>25</timebase>
							<ntsc>FALSE</ntsc>
						</rate>
						<start>934</start>
						<end>947</end>
						<in>224</in>
						<out>237</out>
						<pproTicksIn>2850059520000</pproTicksIn>
						<pproTicksOut>3015169920000</pproTicksOut>
						<file id="file-143"/>
						<sourcetrack>
							<mediatype>audio</mediatype>
							<trackindex>1</trackindex>
						</sourcetrack>
							<filter>
								<effect>
									<name>Gain</name>
									<effectid>{61756678, 4761696e, 4b657947}</effectid>
									<effecttype>filter</effecttype>
									<mediatype>audio</mediatype>
									<parameter authoringApp="PremierePro">
										<parameterid>Gain(dB)</parameterid>
										<name>Gain(dB)</name>
										<valuemin>-96</valuemin>
										<valuemax>96</valuemax>
										<value>-26</value>
									</parameter>
								</effect>
							</filter>
							<filter>
								<effect>
									<name>Time Remap</name>
									<effectid>timeremap</effectid>
									<effectcategory>motion</effectcategory>
									<effecttype>motion</effecttype>
									<mediatype>audio</mediatype>
									<parameter authoringApp="PremierePro">
										<parameterid>variablespeed</parameterid>
										<name>variablespeed</name>
										<valuemin>0</valuemin>
										<valuemax>1</valuemax>
										<value>0</value>
									</parameter>
									<parameter authoringApp="PremierePro">
										<parameterid>speed</parameterid>
										<name>speed</name>
										<valuemin>-100000</valuemin>
										<valuemax>100000</valuemax>
										<value>125</value>
									</parameter>
									<parameter authoringApp="PremierePro">
										<parameterid>reverse</parameterid>
										<name>reverse</name>
										<value>TRUE</value>
									</parameter>
									<parameter authoringApp="PremierePro">
										<parameterid>frameblending</parameterid>
										<name>frameblending</name>
										<value>FALSE</value>
									</parameter>
									<parameter authoringApp="PremierePro">
										<parameterid>graphdict</parameterid>
										<name>graphdict</name>
										<valuemin>0</valuemin>
										<valuemax>340</valuemax>
										<value>0</value>
										<keyframe>
											<when>0</when>
											<value>340</value>
											<speedvirtualkf>TRUE</speedvirtualkf>
											<speedkfstart>TRUE</speedkfstart>
										</keyframe>
										<keyframe>
											<when>35</when>
											<value>296</value>
											<speedvirtualkf>TRUE</speedvirtualkf>
											<speedkfin>TRUE</speedkfin>
										</keyframe>
										<keyframe>
											<when>48</when>
											<value>280</value>
											<speedvirtualkf>TRUE</speedvirtualkf>
											<speedkfout>TRUE</speedkfout>
										</keyframe>
										<keyframe>
											<when>272</when>
											<value>1</value>
											<speedvirtualkf>TRUE</speedvirtualkf>
											<speedkfend>TRUE</speedkfend>
										</keyframe>
										<interpolation>
											<name>FCPCurve</name>
										</interpolation>
									</parameter>
								</effect>
							</filter>
						<link>
							<linkclipref>clipitem-685</linkclipref>
							<mediatype>audio</mediatype>
							<trackindex>13</trackindex>
							<clipindex>7</clipindex>
							<groupindex>1</groupindex>
						</link>
						<link>
							<linkclipref>clipitem-733</linkclipref>
							<mediatype>audio</mediatype>
							<trackindex>14</trackindex>
							<clipindex>5</clipindex>
							<groupindex>1</groupindex>
						</link>
						<logginginfo>
							<description></description>
							<scene></scene>
							<shottake></shottake>
							<lognote></lognote>
						</logginginfo>
						<labels>
							<label2>Caribbean</label2>
						</labels>
					</clipitem>
					<clipitem id="clipitem-686" premiereChannelType="stereo">
						<masterclipid>masterclip-172</masterclipid>
						<name>MSTR_239_37_I_Won_t_Wait_Raisen_Shatkin_655932.wav</name>
						<enabled>TRUE</enabled>
						<duration>4045</duration>
						<rate>
							<timebase>25</timebase>
							<ntsc>FALSE</ntsc>
						</rate>
						<start>3652</start>
						<end>-1</end>
						<in>0</in>
						<out>1646</out>
						<pproTicksIn>0</pproTicksIn>
						<pproTicksOut>16724413440000</pproTicksOut>
						<file id="file-156">
							<name>MSTR_239_37_I_Won_t_Wait_Raisen_Shatkin_655932.wav</name>
							<pathurl>file://localhost/Volumes/Bingen/Prosjekter/MYNT194016%20WHATS%20COOKING/Musikk/Jan/Universal/Instr%20bakgrunn%20Univ/MSTR_239_37_I_Won_t_Wait_Raisen_Shatkin_655932.wav</pathurl>
							<rate>
								<timebase>30</timebase>
								<ntsc>TRUE</ntsc>
							</rate>
							<duration>4849</duration>
							<timecode>
								<rate>
									<timebase>30</timebase>
									<ntsc>TRUE</ntsc>
								</rate>
								<string>00;00;00;00</string>
								<frame>0</frame>
								<displayformat>DF</displayformat>
								<reel>
									<name></name>
								</reel>
							</timecode>
							<media>
								<audio>
									<samplecharacteristics>
										<depth>16</depth>
										<samplerate>44100</samplerate>
									</samplecharacteristics>
									<channelcount>2</channelcount>
								</audio>
							</media>
						</file>
						<sourcetrack>
							<mediatype>audio</mediatype>
							<trackindex>1</trackindex>
						</sourcetrack>
							<filter>
								<effect>
									<name>Gain</name>
									<effectid>{61756678, 4761696e, 4b657947}</effectid>
									<effecttype>filter</effecttype>
									<mediatype>audio</mediatype>
									<parameter authoringApp="PremierePro">
										<parameterid>Gain(dB)</parameterid>
										<name>Gain(dB)</name>
										<valuemin>-96</valuemin>
										<valuemax>96</valuemax>
										<value>-39</value>
									</parameter>
								</effect>
							</filter>
						<link>
							<linkclipref>clipitem-686</linkclipref>
							<mediatype>audio</mediatype>
							<trackindex>13</trackindex>
							<clipindex>8</clipindex>
							<groupindex>1</groupindex>
						</link>
						<link>
							<linkclipref>clipitem-734</linkclipref>
							<mediatype>audio</mediatype>
							<trackindex>14</trackindex>
							<clipindex>6</clipindex>
							<groupindex>1</groupindex>
						</link>
						<logginginfo>
							<description></description>
							<scene></scene>
							<shottake></shottake>
							<lognote></lognote>
						</logginginfo>
						<labels>
							<label2>Caribbean</label2>
						</labels>
					</clipitem>
					<transitionitem>
						<start>5100</start>
						<end>5298</end>
						<alignment>end-black</alignment>
						<cutPointTicks>2011806720000</cutPointTicks>
						<rate>
							<timebase>25</timebase>
							<ntsc>FALSE</ntsc>
						</rate>
						<effect>
							<name>Cross Fade (+3dB)</name>
							<effectid>KGAudioTransCrossFade3dB</effectid>
							<effecttype>transition</effecttype>
							<mediatype>audio</mediatype>
							<wipecode>0</wipecode>
							<wipeaccuracy>100</wipeaccuracy>
							<startratio>0</startratio>
							<endratio>1</endratio>
							<reverse>FALSE</reverse>
						</effect>
					</transitionitem>
					<transitionitem>
						<start>5494</start>
						<end>5500</end>
						<alignment>start-black</alignment>
						<cutPointTicks>0</cutPointTicks>
						<rate>
							<timebase>25</timebase>
							<ntsc>FALSE</ntsc>
						</rate>
						<effect>
							<name>Cross Fade (+3dB)</name>
							<effectid>KGAudioTransCrossFade3dB</effectid>
							<effecttype>transition</effecttype>
							<mediatype>audio</mediatype>
							<wipecode>0</wipecode>
							<wipeaccuracy>100</wipeaccuracy>
							<startratio>0</startratio>
							<endratio>1</endratio>
							<reverse>FALSE</reverse>
						</effect>
					</transitionitem>
					<clipitem id="clipitem-687" premiereChannelType="stereo">
						<masterclipid>masterclip-173</masterclipid>
						<name>NONRO137388CD0005 X.wav</name>
						<enabled>TRUE</enabled>
						<duration>6391</duration>
						<rate>
							<timebase>25</timebase>
							<ntsc>FALSE</ntsc>
						</rate>
						<start>-1</start>
						<end>-1</end>
						<in>556</in>
						<out>790</out>
						<pproTicksIn>5649315840000</pproTicksIn>
						<pproTicksOut>8026905600000</pproTicksOut>
						<file id="file-157">
							<name>NONRO137388CD0005 X.wav</name>
							<pathurl>file://localhost/Volumes/Bingen/Prosjekter/MYNT194016%20WHATS%20COOKING/Musikk/Jan/DMA/NONRO137388CD0005%20X.wav</pathurl>
							<rate>
								<timebase>30</timebase>
								<ntsc>TRUE</ntsc>
							</rate>
							<duration>7661</duration>
							<timecode>
								<rate>
									<timebase>30</timebase>
									<ntsc>TRUE</ntsc>
								</rate>
								<string>00;00;00;00</string>
								<frame>0</frame>
								<displayformat>DF</displayformat>
								<reel>
									<name></name>
								</reel>
							</timecode>
							<media>
								<audio>
									<samplecharacteristics>
										<depth>16</depth>
										<samplerate>48000</samplerate>
									</samplecharacteristics>
									<channelcount>2</channelcount>
								</audio>
							</media>
						</file>
						<sourcetrack>
							<mediatype>audio</mediatype>
							<trackindex>1</trackindex>
						</sourcetrack>
							<filter>
								<effect>
									<name>Gain</name>
									<effectid>{61756678, 4761696e, 4b657947}</effectid>
									<effecttype>filter</effecttype>
									<mediatype>audio</mediatype>
									<parameter authoringApp="PremierePro">
										<parameterid>Gain(dB)</parameterid>
										<name>Gain(dB)</name>
										<valuemin>-96</valuemin>
										<valuemax>96</valuemax>
										<value>-12</value>
									</parameter>
								</effect>
							</filter>
						<link>
							<linkclipref>clipitem-687</linkclipref>
							<mediatype>audio</mediatype>
							<trackindex>13</trackindex>
							<clipindex>11</clipindex>
							<groupindex>1</groupindex>
						</link>
						<link>
							<linkclipref>clipitem-735</linkclipref>
							<mediatype>audio</mediatype>
							<trackindex>14</trackindex>
							<clipindex>9</clipindex>
							<groupindex>1</groupindex>
						</link>
						<logginginfo>
							<description></description>
							<scene></scene>
							<shottake></shottake>
							<lognote>CD Track 5 archiveNo[137388021]</lognote>
						</logginginfo>
						<labels>
							<label2>Caribbean</label2>
						</labels>
					</clipitem>
					<transitionitem>
						<start>5716</start>
						<end>5728</end>
						<alignment>end-black</alignment>
						<cutPointTicks>121927680000</cutPointTicks>
						<rate>
							<timebase>25</timebase>
							<ntsc>FALSE</ntsc>
						</rate>
						<effect>
							<name>Cross Fade (+3dB)</name>
							<effectid>KGAudioTransCrossFade3dB</effectid>
							<effecttype>transition</effecttype>
							<mediatype>audio</mediatype>
							<wipecode>0</wipecode>
							<wipeaccuracy>100</wipeaccuracy>
							<startratio>0</startratio>
							<endratio>1</endratio>
							<reverse>FALSE</reverse>
						</effect>
					</transitionitem>
					<clipitem id="clipitem-688" premiereChannelType="stereo">
						<masterclipid>masterclip-173</masterclipid>
						<name>NONRO137388CD0005 X.wav</name>
						<enabled>TRUE</enabled>
						<duration>6391</duration>
						<rate>
							<timebase>25</timebase>
							<ntsc>FALSE</ntsc>
						</rate>
						<start>5817</start>
						<end>6313</end>
						<in>1630</in>
						<out>2126</out>
						<pproTicksIn>16561843200000</pproTicksIn>
						<pproTicksOut>21601520640000</pproTicksOut>
						<file id="file-157"/>
						<sourcetrack>
							<mediatype>audio</mediatype>
							<trackindex>1</trackindex>
						</sourcetrack>
							<filter>
								<effect>
									<name>Gain</name>
									<effectid>{61756678, 4761696e, 4b657947}</effectid>
									<effecttype>filter</effecttype>
									<mediatype>audio</mediatype>
									<parameter authoringApp="PremierePro">
										<parameterid>Gain(dB)</parameterid>
										<name>Gain(dB)</name>
										<valuemin>-96</valuemin>
										<valuemax>96</valuemax>
										<value>-12</value>
									</parameter>
								</effect>
							</filter>
						<link>
							<linkclipref>clipitem-688</linkclipref>
							<mediatype>audio</mediatype>
							<trackindex>13</trackindex>
							<clipindex>13</clipindex>
							<groupindex>1</groupindex>
						</link>
						<link>
							<linkclipref>clipitem-736</linkclipref>
							<mediatype>audio</mediatype>
							<trackindex>14</trackindex>
							<clipindex>11</clipindex>
							<groupindex>1</groupindex>
						</link>
						<logginginfo>
							<description></description>
							<scene></scene>
							<shottake></shottake>
							<lognote>CD Track 5 archiveNo[137388021]</lognote>
						</logginginfo>
						<labels>
							<label2>Caribbean</label2>
						</labels>
					</clipitem>
					<clipitem id="clipitem-689" premiereChannelType="mono">
						<masterclipid>masterclip-165</masterclipid>
						<name>XLYDT17.WAV</name>
						<enabled>TRUE</enabled>
						<duration>1199</duration>
						<rate>
							<timebase>25</timebase>
							<ntsc>FALSE</ntsc>
						</rate>
						<start>10866</start>
						<end>10908</end>
						<in>790</in>
						<out>832</out>
						<pproTicksIn>8026905600000</pproTicksIn>
						<pproTicksOut>8453652480000</pproTicksOut>
						<file id="file-149"/>
						<sourcetrack>
							<mediatype>audio</mediatype>
							<trackindex>1</trackindex>
						</sourcetrack>
							<filter>
								<effect>
									<name>Gain</name>
									<effectid>{61756678, 4761696e, 4b657947}</effectid>
									<effecttype>filter</effecttype>
									<mediatype>audio</mediatype>
									<parameter authoringApp="PremierePro">
										<parameterid>Gain(dB)</parameterid>
										<name>Gain(dB)</name>
										<valuemin>-96</valuemin>
										<valuemax>96</valuemax>
										<value>-8</value>
									</parameter>
								</effect>
							</filter>
						<logginginfo>
							<description>bowl</description>
							<scene>XLYD</scene>
							<shottake></shottake>
							<lognote></lognote>
						</logginginfo>
						<labels>
							<label2>Caribbean</label2>
						</labels>
					</clipitem>
					<clipitem id="clipitem-690" premiereChannelType="mono">
						<masterclipid>masterclip-174</masterclipid>
						<name>9509__petenice__whoosh.wav</name>
						<enabled>TRUE</enabled>
						<duration>3</duration>
						<rate>
							<timebase>25</timebase>
							<ntsc>FALSE</ntsc>
						</rate>
						<start>11049</start>
						<end>11052</end>
						<in>0</in>
						<out>3</out>
						<pproTicksIn>0</pproTicksIn>
						<pproTicksOut>30481920000</pproTicksOut>
						<file id="file-158">
							<name>9509__petenice__whoosh.wav</name>
							<pathurl>file://localhost/Volumes/Bingen/Prosjekter/MYNT194016%20WHATS%20COOKING/Lydeffekter/Whoosh/9509__petenice__whoosh.wav</pathurl>
							<rate>
								<timebase>30</timebase>
								<ntsc>TRUE</ntsc>
							</rate>
							<duration>4</duration>
							<timecode>
								<rate>
									<timebase>30</timebase>
									<ntsc>TRUE</ntsc>
								</rate>
								<string>00;00;00;00</string>
								<frame>0</frame>
								<displayformat>DF</displayformat>
								<reel>
									<name></name>
								</reel>
							</timecode>
							<media>
								<audio>
									<samplecharacteristics>
										<depth>16</depth>
										<samplerate>48000</samplerate>
									</samplecharacteristics>
									<channelcount>1</channelcount>
									<audiochannel>
										<sourcechannel>1</sourcechannel>
									</audiochannel>
								</audio>
							</media>
						</file>
						<sourcetrack>
							<mediatype>audio</mediatype>
							<trackindex>1</trackindex>
						</sourcetrack>
						<logginginfo>
							<description></description>
							<scene></scene>
							<shottake></shottake>
							<lognote></lognote>
						</logginginfo>
						<labels>
							<label2>Caribbean</label2>
						</labels>
					</clipitem>
					<clipitem id="clipitem-691" premiereChannelType="stereo">
						<masterclipid>masterclip-175</masterclipid>
						<name>335177__jorgepotter__whooshes.wav</name>
						<enabled>TRUE</enabled>
						<duration>1358</duration>
						<rate>
							<timebase>25</timebase>
							<ntsc>FALSE</ntsc>
						</rate>
						<start>11057</start>
						<end>11076</end>
						<in>702</in>
						<out>721</out>
						<pproTicksIn>3566384640000</pproTicksIn>
						<pproTicksOut>3662910720000</pproTicksOut>
						<file id="file-159">
							<name>335177__jorgepotter__whooshes.wav</name>
							<pathurl>file://localhost/Volumes/Bingen/Prosjekter/MYNT194016%20WHATS%20COOKING/Lydeffekter/Whoosh/335177__jorgepotter__whooshes.wav</pathurl>
							<rate>
								<timebase>30</timebase>
								<ntsc>TRUE</ntsc>
							</rate>
							<duration>814</duration>
							<timecode>
								<rate>
									<timebase>30</timebase>
									<ntsc>TRUE</ntsc>
								</rate>
								<string>00;00;00;00</string>
								<frame>0</frame>
								<displayformat>DF</displayformat>
								<reel>
									<name></name>
								</reel>
							</timecode>
							<media>
								<audio>
									<samplecharacteristics>
										<depth>16</depth>
										<samplerate>48000</samplerate>
									</samplecharacteristics>
									<channelcount>2</channelcount>
								</audio>
							</media>
						</file>
						<sourcetrack>
							<mediatype>audio</mediatype>
							<trackindex>1</trackindex>
						</sourcetrack>
							<filter>
								<effect>
									<name>Gain</name>
									<effectid>{61756678, 4761696e, 4b657947}</effectid>
									<effecttype>filter</effecttype>
									<mediatype>audio</mediatype>
									<parameter authoringApp="PremierePro">
										<parameterid>Gain(dB)</parameterid>
										<name>Gain(dB)</name>
										<valuemin>-96</valuemin>
										<valuemax>96</valuemax>
										<value>12</value>
									</parameter>
								</effect>
							</filter>
							<filter>
								<effect>
									<name>Time Remap</name>
									<effectid>timeremap</effectid>
									<effectcategory>motion</effectcategory>
									<effecttype>motion</effecttype>
									<mediatype>audio</mediatype>
									<parameter authoringApp="PremierePro">
										<parameterid>variablespeed</parameterid>
										<name>variablespeed</name>
										<valuemin>0</valuemin>
										<valuemax>1</valuemax>
										<value>0</value>
									</parameter>
									<parameter authoringApp="PremierePro">
										<parameterid>speed</parameterid>
										<name>speed</name>
										<valuemin>-100000</valuemin>
										<valuemax>100000</valuemax>
										<value>50</value>
									</parameter>
									<parameter authoringApp="PremierePro">
										<parameterid>reverse</parameterid>
										<name>reverse</name>
										<value>FALSE</value>
									</parameter>
									<parameter authoringApp="PremierePro">
										<parameterid>frameblending</parameterid>
										<name>frameblending</name>
										<value>FALSE</value>
									</parameter>
									<parameter authoringApp="PremierePro">
										<parameterid>graphdict</parameterid>
										<name>graphdict</name>
										<valuemin>0</valuemin>
										<valuemax>679</valuemax>
										<value>0</value>
										<keyframe>
											<when>0</when>
											<value>0</value>
											<speedvirtualkf>TRUE</speedvirtualkf>
											<speedkfstart>TRUE</speedkfstart>
										</keyframe>
										<keyframe>
											<when>702</when>
											<value>351</value>
											<speedvirtualkf>TRUE</speedvirtualkf>
											<speedkfin>TRUE</speedkfin>
										</keyframe>
										<keyframe>
											<when>721</when>
											<value>360</value>
											<speedvirtualkf>TRUE</speedvirtualkf>
											<speedkfout>TRUE</speedkfout>
										</keyframe>
										<keyframe>
											<when>1358</when>
											<value>679</value>
											<speedvirtualkf>TRUE</speedvirtualkf>
											<speedkfend>TRUE</speedkfend>
										</keyframe>
										<interpolation>
											<name>FCPCurve</name>
										</interpolation>
									</parameter>
								</effect>
							</filter>
						<link>
							<linkclipref>clipitem-691</linkclipref>
							<mediatype>audio</mediatype>
							<trackindex>13</trackindex>
							<clipindex>16</clipindex>
							<groupindex>1</groupindex>
						</link>
						<link>
							<linkclipref>clipitem-737</linkclipref>
							<mediatype>audio</mediatype>
							<trackindex>14</trackindex>
							<clipindex>12</clipindex>
							<groupindex>1</groupindex>
						</link>
						<logginginfo>
							<description></description>
							<scene></scene>
							<shottake></shottake>
							<lognote></lognote>
						</logginginfo>
						<labels>
							<label2>Caribbean</label2>
						</labels>
					</clipitem>
					<clipitem id="clipitem-692" premiereChannelType="stereo">
						<masterclipid>masterclip-175</masterclipid>
						<name>335177__jorgepotter__whooshes.wav</name>
						<enabled>TRUE</enabled>
						<duration>679</duration>
						<rate>
							<timebase>25</timebase>
							<ntsc>FALSE</ntsc>
						</rate>
						<start>11079</start>
						<end>11092</end>
						<in>160</in>
						<out>173</out>
						<pproTicksIn>1625702400000</pproTicksIn>
						<pproTicksOut>1757790720000</pproTicksOut>
						<file id="file-159"/>
						<sourcetrack>
							<mediatype>audio</mediatype>
							<trackindex>1</trackindex>
						</sourcetrack>
							<filter>
								<effect>
									<name>Gain</name>
									<effectid>{61756678, 4761696e, 4b657947}</effectid>
									<effecttype>filter</effecttype>
									<mediatype>audio</mediatype>
									<parameter authoringApp="PremierePro">
										<parameterid>Gain(dB)</parameterid>
										<name>Gain(dB)</name>
										<valuemin>-96</valuemin>
										<valuemax>96</valuemax>
										<value>18</value>
									</parameter>
								</effect>
							</filter>
						<link>
							<linkclipref>clipitem-692</linkclipref>
							<mediatype>audio</mediatype>
							<trackindex>13</trackindex>
							<clipindex>17</clipindex>
							<groupindex>1</groupindex>
						</link>
						<link>
							<linkclipref>clipitem-738</linkclipref>
							<mediatype>audio</mediatype>
							<trackindex>14</trackindex>
							<clipindex>13</clipindex>
							<groupindex>1</groupindex>
						</link>
						<logginginfo>
							<description></description>
							<scene></scene>
							<shottake></shottake>
							<lognote></lognote>
						</logginginfo>
						<labels>
							<label2>Caribbean</label2>
						</labels>
					</clipitem>
					<clipitem id="clipitem-693" premiereChannelType="mono">
						<masterclipid>masterclip-176</masterclipid>
						<name>325261__adam-n__whoosh.wav</name>
						<enabled>TRUE</enabled>
						<duration>44</duration>
						<rate>
							<timebase>25</timebase>
							<ntsc>FALSE</ntsc>
						</rate>
						<start>11093</start>
						<end>11116</end>
						<in>12</in>
						<out>35</out>
						<pproTicksIn>121927680000</pproTicksIn>
						<pproTicksOut>355622400000</pproTicksOut>
						<file id="file-160">
							<name>325261__adam-n__whoosh.wav</name>
							<pathurl>file://localhost/Volumes/Bingen/Prosjekter/MYNT194016%20WHATS%20COOKING/Lydeffekter/Whoosh/325261__adam-n__whoosh.wav</pathurl>
							<rate>
								<timebase>30</timebase>
								<ntsc>TRUE</ntsc>
							</rate>
							<duration>53</duration>
							<timecode>
								<rate>
									<timebase>30</timebase>
									<ntsc>TRUE</ntsc>
								</rate>
								<string>00;00;04;11</string>
								<frame>131</frame>
								<displayformat>DF</displayformat>
								<reel>
									<name></name>
								</reel>
							</timecode>
							<media>
								<audio>
									<samplecharacteristics>
										<depth>16</depth>
										<samplerate>48000</samplerate>
									</samplecharacteristics>
									<channelcount>1</channelcount>
									<audiochannel>
										<sourcechannel>1</sourcechannel>
									</audiochannel>
								</audio>
							</media>
						</file>
						<sourcetrack>
							<mediatype>audio</mediatype>
							<trackindex>1</trackindex>
						</sourcetrack>
						<logginginfo>
							<description></description>
							<scene></scene>
							<shottake></shottake>
							<lognote></lognote>
						</logginginfo>
						<labels>
							<label2>Caribbean</label2>
						</labels>
					</clipitem>
					<clipitem id="clipitem-694" premiereChannelType="stereo">
						<masterclipid>masterclip-177</masterclipid>
						<name>104183__ekokubza123__punch.wav</name>
						<enabled>TRUE</enabled>
						<duration>29</duration>
						<rate>
							<timebase>25</timebase>
							<ntsc>FALSE</ntsc>
						</rate>
						<start>11116</start>
						<end>11137</end>
						<in>8</in>
						<out>29</out>
						<pproTicksIn>81285120000</pproTicksIn>
						<pproTicksOut>294658560000</pproTicksOut>
						<file id="file-161">
							<name>104183__ekokubza123__punch.wav</name>
							<pathurl>file://localhost/Volumes/Bingen/Prosjekter/MYNT194016%20WHATS%20COOKING/Lydeffekter/Slag/104183__ekokubza123__punch.wav</pathurl>
							<rate>
								<timebase>30</timebase>
								<ntsc>TRUE</ntsc>
							</rate>
							<duration>35</duration>
							<timecode>
								<rate>
									<timebase>30</timebase>
									<ntsc>TRUE</ntsc>
								</rate>
								<string>00;00;00;00</string>
								<frame>0</frame>
								<displayformat>DF</displayformat>
								<reel>
									<name></name>
								</reel>
							</timecode>
							<media>
								<audio>
									<samplecharacteristics>
										<depth>16</depth>
										<samplerate>48000</samplerate>
									</samplecharacteristics>
									<channelcount>2</channelcount>
								</audio>
							</media>
						</file>
						<sourcetrack>
							<mediatype>audio</mediatype>
							<trackindex>1</trackindex>
						</sourcetrack>
							<filter>
								<effect>
									<name>Gain</name>
									<effectid>{61756678, 4761696e, 4b657947}</effectid>
									<effecttype>filter</effecttype>
									<mediatype>audio</mediatype>
									<parameter authoringApp="PremierePro">
										<parameterid>Gain(dB)</parameterid>
										<name>Gain(dB)</name>
										<valuemin>-96</valuemin>
										<valuemax>96</valuemax>
										<value>-9</value>
									</parameter>
								</effect>
							</filter>
						<link>
							<linkclipref>clipitem-694</linkclipref>
							<mediatype>audio</mediatype>
							<trackindex>13</trackindex>
							<clipindex>19</clipindex>
							<groupindex>1</groupindex>
						</link>
						<link>
							<linkclipref>clipitem-739</linkclipref>
							<mediatype>audio</mediatype>
							<trackindex>14</trackindex>
							<clipindex>14</clipindex>
							<groupindex>1</groupindex>
						</link>
						<logginginfo>
							<description></description>
							<scene></scene>
							<shottake></shottake>
							<lognote></lognote>
						</logginginfo>
						<labels>
							<label2>Caribbean</label2>
						</labels>
					</clipitem>
					<clipitem id="clipitem-695" premiereChannelType="stereo">
						<masterclipid>masterclip-178</masterclipid>
						<name>86127__acrober__rattle-1-2.wav</name>
						<enabled>TRUE</enabled>
						<duration>110</duration>
						<rate>
							<timebase>25</timebase>
							<ntsc>FALSE</ntsc>
						</rate>
						<start>11899</start>
						<end>11933</end>
						<in>0</in>
						<out>34</out>
						<pproTicksIn>0</pproTicksIn>
						<pproTicksOut>172730880000</pproTicksOut>
						<file id="file-162">
							<name>86127__acrober__rattle-1-2.wav</name>
							<pathurl>file://localhost/Volumes/Bingen/Prosjekter/MYNT194016%20WHATS%20COOKING/Lydeffekter/Marita%20SoundFX/86127__acrober__rattle-1-2.wav</pathurl>
							<rate>
								<timebase>30</timebase>
								<ntsc>TRUE</ntsc>
							</rate>
							<duration>66</duration>
							<timecode>
								<rate>
									<timebase>30</timebase>
									<ntsc>TRUE</ntsc>
								</rate>
								<string>00;00;00;00</string>
								<frame>0</frame>
								<displayformat>DF</displayformat>
								<reel>
									<name></name>
								</reel>
							</timecode>
							<media>
								<audio>
									<samplecharacteristics>
										<depth>16</depth>
										<samplerate>48000</samplerate>
									</samplecharacteristics>
									<channelcount>2</channelcount>
								</audio>
							</media>
						</file>
						<sourcetrack>
							<mediatype>audio</mediatype>
							<trackindex>1</trackindex>
						</sourcetrack>
							<filter>
								<effect>
									<name>Gain</name>
									<effectid>{61756678, 4761696e, 4b657947}</effectid>
									<effecttype>filter</effecttype>
									<mediatype>audio</mediatype>
									<parameter authoringApp="PremierePro">
										<parameterid>Gain(dB)</parameterid>
										<name>Gain(dB)</name>
										<valuemin>-96</valuemin>
										<valuemax>96</valuemax>
										<value>-6</value>
									</parameter>
								</effect>
							</filter>
							<filter>
								<effect>
									<name>Time Remap</name>
									<effectid>timeremap</effectid>
									<effectcategory>motion</effectcategory>
									<effecttype>motion</effecttype>
									<mediatype>audio</mediatype>
									<parameter authoringApp="PremierePro">
										<parameterid>variablespeed</parameterid>
										<name>variablespeed</name>
										<valuemin>0</valuemin>
										<valuemax>1</valuemax>
										<value>0</value>
									</parameter>
									<parameter authoringApp="PremierePro">
										<parameterid>speed</parameterid>
										<name>speed</name>
										<valuemin>-100000</valuemin>
										<valuemax>100000</valuemax>
										<value>50</value>
									</parameter>
									<parameter authoringApp="PremierePro">
										<parameterid>reverse</parameterid>
										<name>reverse</name>
										<value>FALSE</value>
									</parameter>
									<parameter authoringApp="PremierePro">
										<parameterid>frameblending</parameterid>
										<name>frameblending</name>
										<value>FALSE</value>
									</parameter>
									<parameter authoringApp="PremierePro">
										<parameterid>graphdict</parameterid>
										<name>graphdict</name>
										<valuemin>0</valuemin>
										<valuemax>55</valuemax>
										<value>0</value>
										<keyframe>
											<when>0</when>
											<value>0</value>
											<speedvirtualkf>TRUE</speedvirtualkf>
											<speedkfin>TRUE</speedkfin>
										</keyframe>
										<keyframe>
											<when>34</when>
											<value>17</value>
											<speedvirtualkf>TRUE</speedvirtualkf>
											<speedkfout>TRUE</speedkfout>
										</keyframe>
										<keyframe>
											<when>110</when>
											<value>55</value>
											<speedvirtualkf>TRUE</speedvirtualkf>
											<speedkfend>TRUE</speedkfend>
										</keyframe>
										<interpolation>
											<name>FCPCurve</name>
										</interpolation>
									</parameter>
								</effect>
							</filter>
						<link>
							<linkclipref>clipitem-695</linkclipref>
							<mediatype>audio</mediatype>
							<trackindex>13</trackindex>
							<clipindex>20</clipindex>
							<groupindex>1</groupindex>
						</link>
						<link>
							<linkclipref>clipitem-740</linkclipref>
							<mediatype>audio</mediatype>
							<trackindex>14</trackindex>
							<clipindex>15</clipindex>
							<groupindex>1</groupindex>
						</link>
						<logginginfo>
							<description></description>
							<scene></scene>
							<shottake></shottake>
							<lognote></lognote>
						</logginginfo>
						<labels>
							<label2>Caribbean</label2>
						</labels>
					</clipitem>
					<clipitem id="clipitem-696" premiereChannelType="stereo">
						<masterclipid>masterclip-179</masterclipid>
						<name>187541__qubodup__noisy-whooshes.wav</name>
						<enabled>TRUE</enabled>
						<duration>50</duration>
						<rate>
							<timebase>25</timebase>
							<ntsc>FALSE</ntsc>
						</rate>
						<start>12360</start>
						<end>12389</end>
						<in>21</in>
						<out>50</out>
						<pproTicksIn>213373440000</pproTicksIn>
						<pproTicksOut>508032000000</pproTicksOut>
						<file id="file-163">
							<name>187541__qubodup__noisy-whooshes.wav</name>
							<pathurl>file://localhost/Volumes/Bingen/Prosjekter/MYNT194016%20WHATS%20COOKING/Lydeffekter/Whoosh/187541__qubodup__noisy-whooshes.wav</pathurl>
							<rate>
								<timebase>30</timebase>
								<ntsc>TRUE</ntsc>
							</rate>
							<duration>59</duration>
							<timecode>
								<rate>
									<timebase>30</timebase>
									<ntsc>TRUE</ntsc>
								</rate>
								<string>00;00;00;00</string>
								<frame>0</frame>
								<displayformat>DF</displayformat>
								<reel>
									<name></name>
								</reel>
							</timecode>
							<media>
								<audio>
									<samplecharacteristics>
										<depth>16</depth>
										<samplerate>48000</samplerate>
									</samplecharacteristics>
									<channelcount>2</channelcount>
								</audio>
							</media>
						</file>
						<sourcetrack>
							<mediatype>audio</mediatype>
							<trackindex>1</trackindex>
						</sourcetrack>
							<filter>
								<effect>
									<name>Gain</name>
									<effectid>{61756678, 4761696e, 4b657947}</effectid>
									<effecttype>filter</effecttype>
									<mediatype>audio</mediatype>
									<parameter authoringApp="PremierePro">
										<parameterid>Gain(dB)</parameterid>
										<name>Gain(dB)</name>
										<valuemin>-96</valuemin>
										<valuemax>96</valuemax>
										<value>-18</value>
									</parameter>
								</effect>
							</filter>
						<link>
							<linkclipref>clipitem-696</linkclipref>
							<mediatype>audio</mediatype>
							<trackindex>13</trackindex>
							<clipindex>21</clipindex>
							<groupindex>1</groupindex>
						</link>
						<link>
							<linkclipref>clipitem-741</linkclipref>
							<mediatype>audio</mediatype>
							<trackindex>14</trackindex>
							<clipindex>16</clipindex>
							<groupindex>1</groupindex>
						</link>
						<logginginfo>
							<description></description>
							<scene></scene>
							<shottake></shottake>
							<lognote></lognote>
						</logginginfo>
						<labels>
							<label2>Caribbean</label2>
						</labels>
					</clipitem>
					<clipitem id="clipitem-697" premiereChannelType="mono">
						<masterclipid>masterclip-174</masterclipid>
						<name>9509__petenice__whoosh.wav</name>
						<enabled>TRUE</enabled>
						<duration>6</duration>
						<rate>
							<timebase>25</timebase>
							<ntsc>FALSE</ntsc>
						</rate>
						<start>12398</start>
						<end>12406</end>
						<in>0</in>
						<out>8</out>
						<pproTicksIn>0</pproTicksIn>
						<pproTicksOut>40642560000</pproTicksOut>
						<file id="file-158"/>
						<sourcetrack>
							<mediatype>audio</mediatype>
							<trackindex>1</trackindex>
						</sourcetrack>
							<filter>
								<effect>
									<name>Gain</name>
									<effectid>{61756678, 4761696e, 4b657947}</effectid>
									<effecttype>filter</effecttype>
									<mediatype>audio</mediatype>
									<parameter authoringApp="PremierePro">
										<parameterid>Gain(dB)</parameterid>
										<name>Gain(dB)</name>
										<valuemin>-96</valuemin>
										<valuemax>96</valuemax>
										<value>-18</value>
									</parameter>
								</effect>
							</filter>
							<filter>
								<effect>
									<name>Time Remap</name>
									<effectid>timeremap</effectid>
									<effectcategory>motion</effectcategory>
									<effecttype>motion</effecttype>
									<mediatype>audio</mediatype>
									<parameter authoringApp="PremierePro">
										<parameterid>variablespeed</parameterid>
										<name>variablespeed</name>
										<valuemin>0</valuemin>
										<valuemax>1</valuemax>
										<value>0</value>
									</parameter>
									<parameter authoringApp="PremierePro">
										<parameterid>speed</parameterid>
										<name>speed</name>
										<valuemin>-100000</valuemin>
										<valuemax>100000</valuemax>
										<value>50</value>
									</parameter>
									<parameter authoringApp="PremierePro">
										<parameterid>reverse</parameterid>
										<name>reverse</name>
										<value>FALSE</value>
									</parameter>
									<parameter authoringApp="PremierePro">
										<parameterid>frameblending</parameterid>
										<name>frameblending</name>
										<value>FALSE</value>
									</parameter>
									<parameter authoringApp="PremierePro">
										<parameterid>graphdict</parameterid>
										<name>graphdict</name>
										<valuemin>0</valuemin>
										<valuemax>3</valuemax>
										<value>0</value>
										<keyframe>
											<when>0</when>
											<value>0</value>
											<speedvirtualkf>TRUE</speedvirtualkf>
											<speedkfin>TRUE</speedkfin>
										</keyframe>
										<keyframe>
											<when>6</when>
											<value>3</value>
											<speedvirtualkf>TRUE</speedvirtualkf>
											<speedkfout>TRUE</speedkfout>
										</keyframe>
										<interpolation>
											<name>FCPCurve</name>
										</interpolation>
									</parameter>
								</effect>
							</filter>
						<logginginfo>
							<description></description>
							<scene></scene>
							<shottake></shottake>
							<lognote></lognote>
						</logginginfo>
						<labels>
							<label2>Caribbean</label2>
						</labels>
					</clipitem>
					<clipitem id="clipitem-698" premiereChannelType="stereo">
						<masterclipid>masterclip-180</masterclipid>
						<name>149898__animationisaac__hard-punch.wav</name>
						<enabled>TRUE</enabled>
						<duration>40</duration>
						<rate>
							<timebase>25</timebase>
							<ntsc>FALSE</ntsc>
						</rate>
						<start>12406</start>
						<end>12444</end>
						<in>2</in>
						<out>40</out>
						<pproTicksIn>20321280000</pproTicksIn>
						<pproTicksOut>406425600000</pproTicksOut>
						<file id="file-164">
							<name>149898__animationisaac__hard-punch.wav</name>
							<pathurl>file://localhost/Volumes/Bingen/Prosjekter/MYNT194016%20WHATS%20COOKING/Lydeffekter/Slag/149898__animationisaac__hard-punch.wav</pathurl>
							<rate>
								<timebase>30</timebase>
								<ntsc>TRUE</ntsc>
							</rate>
							<duration>48</duration>
							<timecode>
								<rate>
									<timebase>30</timebase>
									<ntsc>TRUE</ntsc>
								</rate>
								<string>00;00;00;00</string>
								<frame>0</frame>
								<displayformat>DF</displayformat>
								<reel>
									<name></name>
								</reel>
							</timecode>
							<media>
								<audio>
									<samplecharacteristics>
										<depth>16</depth>
										<samplerate>48000</samplerate>
									</samplecharacteristics>
									<channelcount>2</channelcount>
								</audio>
							</media>
						</file>
						<sourcetrack>
							<mediatype>audio</mediatype>
							<trackindex>1</trackindex>
						</sourcetrack>
							<filter>
								<effect>
									<name>Gain</name>
									<effectid>{61756678, 4761696e, 4b657947}</effectid>
									<effecttype>filter</effecttype>
									<mediatype>audio</mediatype>
									<parameter authoringApp="PremierePro">
										<parameterid>Gain(dB)</parameterid>
										<name>Gain(dB)</name>
										<valuemin>-96</valuemin>
										<valuemax>96</valuemax>
										<value>-9</value>
									</parameter>
								</effect>
							</filter>
						<link>
							<linkclipref>clipitem-698</linkclipref>
							<mediatype>audio</mediatype>
							<trackindex>13</trackindex>
							<clipindex>23</clipindex>
							<groupindex>1</groupindex>
						</link>
						<link>
							<linkclipref>clipitem-742</linkclipref>
							<mediatype>audio</mediatype>
							<trackindex>14</trackindex>
							<clipindex>17</clipindex>
							<groupindex>1</groupindex>
						</link>
						<logginginfo>
							<description></description>
							<scene></scene>
							<shottake></shottake>
							<lognote></lognote>
						</logginginfo>
						<labels>
							<label2>Caribbean</label2>
						</labels>
					</clipitem>
					<clipitem id="clipitem-699" premiereChannelType="stereo">
						<masterclipid>masterclip-181</masterclipid>
						<name>STFTA_1_175_Don_t_Take_Me_Down_Hart_Williams_762667.wav</name>
						<enabled>TRUE</enabled>
						<duration>2919</duration>
						<rate>
							<timebase>25</timebase>
							<ntsc>FALSE</ntsc>
						</rate>
						<start>14003</start>
						<end>-1</end>
						<in>0</in>
						<out>1184</out>
						<pproTicksIn>0</pproTicksIn>
						<pproTicksOut>12030197760000</pproTicksOut>
						<file id="file-165">
							<name>STFTA_1_175_Don_t_Take_Me_Down_Hart_Williams_762667.wav</name>
							<pathurl>file://localhost/Volumes/Bingen/Prosjekter/MYNT194016%20WHATS%20COOKING/Musikk/Jan/Universal/Instr%20bakgrunn%20Univ/STFTA_1_175_Don_t_Take_Me_Down_Hart_Williams_762667.wav</pathurl>
							<rate>
								<timebase>30</timebase>
								<ntsc>TRUE</ntsc>
							</rate>
							<duration>3500</duration>
							<timecode>
								<rate>
									<timebase>30</timebase>
									<ntsc>TRUE</ntsc>
								</rate>
								<string>00;00;00;00</string>
								<frame>0</frame>
								<displayformat>DF</displayformat>
								<reel>
									<name></name>
								</reel>
							</timecode>
							<media>
								<audio>
									<samplecharacteristics>
										<depth>16</depth>
										<samplerate>44100</samplerate>
									</samplecharacteristics>
									<channelcount>2</channelcount>
								</audio>
							</media>
						</file>
						<sourcetrack>
							<mediatype>audio</mediatype>
							<trackindex>1</trackindex>
						</sourcetrack>
							<filter>
								<effect>
									<name>Gain</name>
									<effectid>{61756678, 4761696e, 4b657947}</effectid>
									<effecttype>filter</effecttype>
									<mediatype>audio</mediatype>
									<parameter authoringApp="PremierePro">
										<parameterid>Gain(dB)</parameterid>
										<name>Gain(dB)</name>
										<valuemin>-96</valuemin>
										<valuemax>96</valuemax>
										<value>-25</value>
									</parameter>
								</effect>
							</filter>
						<link>
							<linkclipref>clipitem-699</linkclipref>
							<mediatype>audio</mediatype>
							<trackindex>13</trackindex>
							<clipindex>24</clipindex>
							<groupindex>1</groupindex>
						</link>
						<link>
							<linkclipref>clipitem-743</linkclipref>
							<mediatype>audio</mediatype>
							<trackindex>14</trackindex>
							<clipindex>18</clipindex>
							<groupindex>1</groupindex>
						</link>
						<logginginfo>
							<description></description>
							<scene></scene>
							<shottake></shottake>
							<lognote></lognote>
						</logginginfo>
						<labels>
							<label2>Rose</label2>
						</labels>
					</clipitem>
					<transitionitem>
						<start>15047</start>
						<end>15187</end>
						<alignment>end-black</alignment>
						<cutPointTicks>1422489600000</cutPointTicks>
						<rate>
							<timebase>25</timebase>
							<ntsc>FALSE</ntsc>
						</rate>
						<effect>
							<name>Cross Fade (+3dB)</name>
							<effectid>KGAudioTransCrossFade3dB</effectid>
							<effecttype>transition</effecttype>
							<mediatype>audio</mediatype>
							<wipecode>0</wipecode>
							<wipeaccuracy>100</wipeaccuracy>
							<startratio>0</startratio>
							<endratio>1</endratio>
							<reverse>FALSE</reverse>
						</effect>
					</transitionitem>
					<clipitem id="clipitem-700" premiereChannelType="stereo">
						<masterclipid>masterclip-142</masterclipid>
						<name>128969__driftworks__bowling-ball.wav</name>
						<enabled>TRUE</enabled>
						<duration>110</duration>
						<rate>
							<timebase>25</timebase>
							<ntsc>FALSE</ntsc>
						</rate>
						<start>16390</start>
						<end>16420</end>
						<in>0</in>
						<out>30</out>
						<pproTicksIn>0</pproTicksIn>
						<pproTicksOut>304819200000</pproTicksOut>
						<file id="file-128"/>
						<sourcetrack>
							<mediatype>audio</mediatype>
							<trackindex>1</trackindex>
						</sourcetrack>
							<filter>
								<effect>
									<name>Gain</name>
									<effectid>{61756678, 4761696e, 4b657947}</effectid>
									<effecttype>filter</effecttype>
									<mediatype>audio</mediatype>
									<parameter authoringApp="PremierePro">
										<parameterid>Gain(dB)</parameterid>
										<name>Gain(dB)</name>
										<valuemin>-96</valuemin>
										<valuemax>96</valuemax>
										<value>-8</value>
									</parameter>
								</effect>
							</filter>
						<link>
							<linkclipref>clipitem-700</linkclipref>
							<mediatype>audio</mediatype>
							<trackindex>13</trackindex>
							<clipindex>26</clipindex>
							<groupindex>1</groupindex>
						</link>
						<link>
							<linkclipref>clipitem-744</linkclipref>
							<mediatype>audio</mediatype>
							<trackindex>14</trackindex>
							<clipindex>20</clipindex>
							<groupindex>1</groupindex>
						</link>
						<logginginfo>
							<description></description>
							<scene></scene>
							<shottake></shottake>
							<lognote></lognote>
						</logginginfo>
						<labels>
							<label2>Rose</label2>
						</labels>
					</clipitem>
					<clipitem id="clipitem-701" premiereChannelType="stereo">
						<masterclipid>masterclip-182</masterclipid>
						<name>NONRE633380HD0008 Uphony (Instrumental).wav</name>
						<enabled>TRUE</enabled>
						<duration>4432</duration>
						<rate>
							<timebase>25</timebase>
							<ntsc>FALSE</ntsc>
						</rate>
						<start>16767</start>
						<end>-1</end>
						<in>0</in>
						<out>2138</out>
						<pproTicksIn>0</pproTicksIn>
						<pproTicksOut>21723448320000</pproTicksOut>
						<file id="file-166">
							<name>NONRE633380HD0008 Uphony (Instrumental).wav</name>
							<pathurl>file://localhost/Volumes/Bingen/Prosjekter/MYNT194016%20WHATS%20COOKING/Musikk/Jan/DMA/Tommy%20Tee/NONRE633380HD0008%20Uphony%20(Instrumental).wav</pathurl>
							<rate>
								<timebase>30</timebase>
								<ntsc>TRUE</ntsc>
							</rate>
							<duration>5313</duration>
							<timecode>
								<rate>
									<timebase>30</timebase>
									<ntsc>TRUE</ntsc>
								</rate>
								<string>00;00;00;00</string>
								<frame>0</frame>
								<displayformat>DF</displayformat>
								<reel>
									<name></name>
								</reel>
							</timecode>
							<media>
								<audio>
									<samplecharacteristics>
										<depth>16</depth>
										<samplerate>48000</samplerate>
									</samplecharacteristics>
									<channelcount>2</channelcount>
								</audio>
							</media>
						</file>
						<sourcetrack>
							<mediatype>audio</mediatype>
							<trackindex>1</trackindex>
						</sourcetrack>
							<filter>
								<effect>
									<name>Gain</name>
									<effectid>{61756678, 4761696e, 4b657947}</effectid>
									<effecttype>filter</effecttype>
									<mediatype>audio</mediatype>
									<parameter authoringApp="PremierePro">
										<parameterid>Gain(dB)</parameterid>
										<name>Gain(dB)</name>
										<valuemin>-96</valuemin>
										<valuemax>96</valuemax>
										<value>-30</value>
									</parameter>
								</effect>
							</filter>
						<link>
							<linkclipref>clipitem-701</linkclipref>
							<mediatype>audio</mediatype>
							<trackindex>13</trackindex>
							<clipindex>27</clipindex>
							<groupindex>1</groupindex>
						</link>
						<link>
							<linkclipref>clipitem-745</linkclipref>
							<mediatype>audio</mediatype>
							<trackindex>14</trackindex>
							<clipindex>21</clipindex>
							<groupindex>1</groupindex>
						</link>
						<logginginfo>
							<description></description>
							<scene></scene>
							<shottake></shottake>
							<lognote></lognote>
						</logginginfo>
						<labels>
							<label2>Violet</label2>
						</labels>
					</clipitem>
					<transitionitem>
						<start>18635</start>
						<end>18905</end>
						<alignment>end-black</alignment>
						<cutPointTicks>2743372800000</cutPointTicks>
						<rate>
							<timebase>25</timebase>
							<ntsc>FALSE</ntsc>
						</rate>
						<effect>
							<name>Cross Fade (+3dB)</name>
							<effectid>KGAudioTransCrossFade3dB</effectid>
							<effecttype>transition</effecttype>
							<mediatype>audio</mediatype>
							<wipecode>0</wipecode>
							<wipeaccuracy>100</wipeaccuracy>
							<startratio>0</startratio>
							<endratio>1</endratio>
							<reverse>FALSE</reverse>
						</effect>
					</transitionitem>
					<clipitem id="clipitem-702" premiereChannelType="stereo">
						<masterclipid>masterclip-156</masterclipid>
						<name>STTV000723.wav</name>
						<enabled>TRUE</enabled>
						<duration>1627</duration>
						<rate>
							<timebase>25</timebase>
							<ntsc>FALSE</ntsc>
						</rate>
						<start>19162</start>
						<end>19274</end>
						<in>1442</in>
						<out>1554</out>
						<pproTicksIn>14651642880000</pproTicksIn>
						<pproTicksOut>15789634560000</pproTicksOut>
						<file id="file-140"/>
						<sourcetrack>
							<mediatype>audio</mediatype>
							<trackindex>1</trackindex>
						</sourcetrack>
							<filter>
								<effect>
									<name>Gain</name>
									<effectid>{61756678, 4761696e, 4b657947}</effectid>
									<effecttype>filter</effecttype>
									<mediatype>audio</mediatype>
									<parameter authoringApp="PremierePro">
										<parameterid>Gain(dB)</parameterid>
										<name>Gain(dB)</name>
										<valuemin>-96</valuemin>
										<valuemax>96</valuemax>
										<value>-12</value>
									</parameter>
								</effect>
							</filter>
						<link>
							<linkclipref>clipitem-702</linkclipref>
							<mediatype>audio</mediatype>
							<trackindex>13</trackindex>
							<clipindex>29</clipindex>
							<groupindex>1</groupindex>
						</link>
						<link>
							<linkclipref>clipitem-746</linkclipref>
							<mediatype>audio</mediatype>
							<trackindex>14</trackindex>
							<clipindex>23</clipindex>
							<groupindex>1</groupindex>
						</link>
						<logginginfo>
							<description></description>
							<scene></scene>
							<shottake></shottake>
							<lognote></lognote>
						</logginginfo>
						<labels>
							<label2>Caribbean</label2>
						</labels>
					</clipitem>
					<clipitem id="clipitem-703" premiereChannelType="stereo">
						<masterclipid>masterclip-156</masterclipid>
						<name>STTV000723.wav</name>
						<enabled>TRUE</enabled>
						<duration>1627</duration>
						<rate>
							<timebase>25</timebase>
							<ntsc>FALSE</ntsc>
						</rate>
						<start>19595</start>
						<end>19712</end>
						<in>1442</in>
						<out>1559</out>
						<pproTicksIn>14651642880000</pproTicksIn>
						<pproTicksOut>15840437760000</pproTicksOut>
						<file id="file-140"/>
						<sourcetrack>
							<mediatype>audio</mediatype>
							<trackindex>1</trackindex>
						</sourcetrack>
							<filter>
								<effect>
									<name>Gain</name>
									<effectid>{61756678, 4761696e, 4b657947}</effectid>
									<effecttype>filter</effecttype>
									<mediatype>audio</mediatype>
									<parameter authoringApp="PremierePro">
										<parameterid>Gain(dB)</parameterid>
										<name>Gain(dB)</name>
										<valuemin>-96</valuemin>
										<valuemax>96</valuemax>
										<value>-12</value>
									</parameter>
								</effect>
							</filter>
						<link>
							<linkclipref>clipitem-703</linkclipref>
							<mediatype>audio</mediatype>
							<trackindex>13</trackindex>
							<clipindex>30</clipindex>
							<groupindex>1</groupindex>
						</link>
						<link>
							<linkclipref>clipitem-747</linkclipref>
							<mediatype>audio</mediatype>
							<trackindex>14</trackindex>
							<clipindex>24</clipindex>
							<groupindex>1</groupindex>
						</link>
						<logginginfo>
							<description></description>
							<scene></scene>
							<shottake></shottake>
							<lognote></lognote>
						</logginginfo>
						<labels>
							<label2>Caribbean</label2>
						</labels>
					</clipitem>
					<clipitem id="clipitem-704" premiereChannelType="stereo">
						<masterclipid>masterclip-170</masterclipid>
						<name>30246__streety__sword4.wav</name>
						<enabled>TRUE</enabled>
						<duration>17</duration>
						<rate>
							<timebase>25</timebase>
							<ntsc>FALSE</ntsc>
						</rate>
						<start>19964</start>
						<end>19979</end>
						<in>0</in>
						<out>15</out>
						<pproTicksIn>0</pproTicksIn>
						<pproTicksOut>152409600000</pproTicksOut>
						<file id="file-154"/>
						<sourcetrack>
							<mediatype>audio</mediatype>
							<trackindex>1</trackindex>
						</sourcetrack>
						<link>
							<linkclipref>clipitem-704</linkclipref>
							<mediatype>audio</mediatype>
							<trackindex>13</trackindex>
							<clipindex>31</clipindex>
							<groupindex>1</groupindex>
						</link>
						<link>
							<linkclipref>clipitem-748</linkclipref>
							<mediatype>audio</mediatype>
							<trackindex>14</trackindex>
							<clipindex>25</clipindex>
							<groupindex>1</groupindex>
						</link>
						<logginginfo>
							<description></description>
							<scene></scene>
							<shottake></shottake>
							<lognote></lognote>
						</logginginfo>
						<comments>
						</comments>
						<labels>
							<label2>Caribbean</label2>
						</labels>
					</clipitem>
					<clipitem id="clipitem-705" premiereChannelType="stereo">
						<masterclipid>masterclip-170</masterclipid>
						<name>30246__streety__sword4.wav</name>
						<enabled>TRUE</enabled>
						<duration>34</duration>
						<rate>
							<timebase>25</timebase>
							<ntsc>FALSE</ntsc>
						</rate>
						<start>20208</start>
						<end>20238</end>
						<in>0</in>
						<out>30</out>
						<pproTicksIn>0</pproTicksIn>
						<pproTicksOut>152409600000</pproTicksOut>
						<file id="file-154"/>
						<sourcetrack>
							<mediatype>audio</mediatype>
							<trackindex>1</trackindex>
						</sourcetrack>
							<filter>
								<effect>
									<name>Time Remap</name>
									<effectid>timeremap</effectid>
									<effectcategory>motion</effectcategory>
									<effecttype>motion</effecttype>
									<mediatype>audio</mediatype>
									<parameter authoringApp="PremierePro">
										<parameterid>variablespeed</parameterid>
										<name>variablespeed</name>
										<valuemin>0</valuemin>
										<valuemax>1</valuemax>
										<value>0</value>
									</parameter>
									<parameter authoringApp="PremierePro">
										<parameterid>speed</parameterid>
										<name>speed</name>
										<valuemin>-100000</valuemin>
										<valuemax>100000</valuemax>
										<value>50</value>
									</parameter>
									<parameter authoringApp="PremierePro">
										<parameterid>reverse</parameterid>
										<name>reverse</name>
										<value>FALSE</value>
									</parameter>
									<parameter authoringApp="PremierePro">
										<parameterid>frameblending</parameterid>
										<name>frameblending</name>
										<value>FALSE</value>
									</parameter>
									<parameter authoringApp="PremierePro">
										<parameterid>graphdict</parameterid>
										<name>graphdict</name>
										<valuemin>0</valuemin>
										<valuemax>17</valuemax>
										<value>0</value>
										<keyframe>
											<when>0</when>
											<value>0</value>
											<speedvirtualkf>TRUE</speedvirtualkf>
											<speedkfin>TRUE</speedkfin>
										</keyframe>
										<keyframe>
											<when>30</when>
											<value>15</value>
											<speedvirtualkf>TRUE</speedvirtualkf>
											<speedkfout>TRUE</speedkfout>
										</keyframe>
										<keyframe>
											<when>34</when>
											<value>17</value>
											<speedvirtualkf>TRUE</speedvirtualkf>
											<speedkfend>TRUE</speedkfend>
										</keyframe>
										<interpolation>
											<name>FCPCurve</name>
										</interpolation>
									</parameter>
								</effect>
							</filter>
						<link>
							<linkclipref>clipitem-705</linkclipref>
							<mediatype>audio</mediatype>
							<trackindex>13</trackindex>
							<clipindex>32</clipindex>
							<groupindex>1</groupindex>
						</link>
						<link>
							<linkclipref>clipitem-749</linkclipref>
							<mediatype>audio</mediatype>
							<trackindex>14</trackindex>
							<clipindex>26</clipindex>
							<groupindex>1</groupindex>
						</link>
						<logginginfo>
							<description></description>
							<scene></scene>
							<shottake></shottake>
							<lognote></lognote>
						</logginginfo>
						<comments>
						</comments>
						<labels>
							<label2>Caribbean</label2>
						</labels>
					</clipitem>
					<clipitem id="clipitem-706" premiereChannelType="stereo">
						<masterclipid>masterclip-183</masterclipid>
						<name>169867__halgrimm__swoosh.wav</name>
						<enabled>TRUE</enabled>
						<duration>57</duration>
						<rate>
							<timebase>25</timebase>
							<ntsc>FALSE</ntsc>
						</rate>
						<start>20295</start>
						<end>20350</end>
						<in>3</in>
						<out>58</out>
						<pproTicksIn>30481920000</pproTicksIn>
						<pproTicksOut>589317120000</pproTicksOut>
						<file id="file-167">
							<name>169867__halgrimm__swoosh.wav</name>
							<pathurl>file://localhost/Volumes/Bingen/Prosjekter/MYNT194016%20WHATS%20COOKING/Lydeffekter/Jan%20Lydeffekter/Woosh/169867__halgrimm__swoosh.wav</pathurl>
							<rate>
								<timebase>30</timebase>
								<ntsc>TRUE</ntsc>
							</rate>
							<duration>69</duration>
							<timecode>
								<rate>
									<timebase>30</timebase>
									<ntsc>TRUE</ntsc>
								</rate>
								<string>00;00;00;00</string>
								<frame>0</frame>
								<displayformat>DF</displayformat>
								<reel>
									<name></name>
								</reel>
							</timecode>
							<media>
								<audio>
									<samplecharacteristics>
										<depth>16</depth>
										<samplerate>48000</samplerate>
									</samplecharacteristics>
									<channelcount>2</channelcount>
								</audio>
							</media>
						</file>
						<sourcetrack>
							<mediatype>audio</mediatype>
							<trackindex>1</trackindex>
						</sourcetrack>
							<filter>
								<effect>
									<name>Gain</name>
									<effectid>{61756678, 4761696e, 4b657947}</effectid>
									<effecttype>filter</effecttype>
									<mediatype>audio</mediatype>
									<parameter authoringApp="PremierePro">
										<parameterid>Gain(dB)</parameterid>
										<name>Gain(dB)</name>
										<valuemin>-96</valuemin>
										<valuemax>96</valuemax>
										<value>-18</value>
									</parameter>
								</effect>
							</filter>
						<link>
							<linkclipref>clipitem-706</linkclipref>
							<mediatype>audio</mediatype>
							<trackindex>13</trackindex>
							<clipindex>33</clipindex>
							<groupindex>1</groupindex>
						</link>
						<link>
							<linkclipref>clipitem-750</linkclipref>
							<mediatype>audio</mediatype>
							<trackindex>14</trackindex>
							<clipindex>27</clipindex>
							<groupindex>1</groupindex>
						</link>
						<logginginfo>
							<description></description>
							<scene></scene>
							<shottake></shottake>
							<lognote></lognote>
						</logginginfo>
						<labels>
							<label2>Caribbean</label2>
						</labels>
					</clipitem>
					<clipitem id="clipitem-707" premiereChannelType="stereo">
						<masterclipid>masterclip-184</masterclipid>
						<name>175951__freefire66__swordbattle2.wav</name>
						<enabled>TRUE</enabled>
						<duration>2200</duration>
						<rate>
							<timebase>25</timebase>
							<ntsc>FALSE</ntsc>
						</rate>
						<start>20646</start>
						<end>20657</end>
						<in>1064</in>
						<out>1075</out>
						<pproTicksIn>10810920960000</pproTicksIn>
						<pproTicksOut>10922688000000</pproTicksOut>
						<file id="file-168">
							<name>175951__freefire66__swordbattle2.wav</name>
							<pathurl>file://localhost/Volumes/Bingen/Prosjekter/MYNT194016%20WHATS%20COOKING/Lydeffekter/Sverd/175951__freefire66__swordbattle2.wav</pathurl>
							<rate>
								<timebase>30</timebase>
								<ntsc>TRUE</ntsc>
							</rate>
							<duration>2637</duration>
							<timecode>
								<rate>
									<timebase>30</timebase>
									<ntsc>TRUE</ntsc>
								</rate>
								<string>00;00;00;00</string>
								<frame>0</frame>
								<displayformat>DF</displayformat>
								<reel>
									<name></name>
								</reel>
							</timecode>
							<media>
								<audio>
									<samplecharacteristics>
										<depth>16</depth>
										<samplerate>48000</samplerate>
									</samplecharacteristics>
									<channelcount>2</channelcount>
								</audio>
							</media>
						</file>
						<sourcetrack>
							<mediatype>audio</mediatype>
							<trackindex>1</trackindex>
						</sourcetrack>
						<link>
							<linkclipref>clipitem-707</linkclipref>
							<mediatype>audio</mediatype>
							<trackindex>13</trackindex>
							<clipindex>34</clipindex>
							<groupindex>1</groupindex>
						</link>
						<link>
							<linkclipref>clipitem-751</linkclipref>
							<mediatype>audio</mediatype>
							<trackindex>14</trackindex>
							<clipindex>28</clipindex>
							<groupindex>1</groupindex>
						</link>
						<logginginfo>
							<description></description>
							<scene></scene>
							<shottake></shottake>
							<lognote>Made with Sony ACID Music Studio 7.0</lognote>
						</logginginfo>
						<labels>
							<label2>Caribbean</label2>
						</labels>
					</clipitem>
					<clipitem id="clipitem-708" premiereChannelType="stereo">
						<masterclipid>masterclip-184</masterclipid>
						<name>175951__freefire66__swordbattle2.wav</name>
						<enabled>TRUE</enabled>
						<duration>2200</duration>
						<rate>
							<timebase>25</timebase>
							<ntsc>FALSE</ntsc>
						</rate>
						<start>20657</start>
						<end>20686</end>
						<in>1085</in>
						<out>1114</out>
						<pproTicksIn>11024294400000</pproTicksIn>
						<pproTicksOut>11318952960000</pproTicksOut>
						<file id="file-168"/>
						<sourcetrack>
							<mediatype>audio</mediatype>
							<trackindex>1</trackindex>
						</sourcetrack>
						<link>
							<linkclipref>clipitem-708</linkclipref>
							<mediatype>audio</mediatype>
							<trackindex>13</trackindex>
							<clipindex>35</clipindex>
							<groupindex>1</groupindex>
						</link>
						<link>
							<linkclipref>clipitem-752</linkclipref>
							<mediatype>audio</mediatype>
							<trackindex>14</trackindex>
							<clipindex>29</clipindex>
							<groupindex>1</groupindex>
						</link>
						<logginginfo>
							<description></description>
							<scene></scene>
							<shottake></shottake>
							<lognote>Made with Sony ACID Music Studio 7.0</lognote>
						</logginginfo>
						<labels>
							<label2>Caribbean</label2>
						</labels>
					</clipitem>
					<clipitem id="clipitem-709" premiereChannelType="stereo">
						<masterclipid>masterclip-184</masterclipid>
						<name>175951__freefire66__swordbattle2.wav</name>
						<enabled>TRUE</enabled>
						<duration>2200</duration>
						<rate>
							<timebase>25</timebase>
							<ntsc>FALSE</ntsc>
						</rate>
						<start>20686</start>
						<end>20696</end>
						<in>1120</in>
						<out>1130</out>
						<pproTicksIn>11379916800000</pproTicksIn>
						<pproTicksOut>11481523200000</pproTicksOut>
						<file id="file-168"/>
						<sourcetrack>
							<mediatype>audio</mediatype>
							<trackindex>1</trackindex>
						</sourcetrack>
						<link>
							<linkclipref>clipitem-709</linkclipref>
							<mediatype>audio</mediatype>
							<trackindex>13</trackindex>
							<clipindex>36</clipindex>
							<groupindex>1</groupindex>
						</link>
						<link>
							<linkclipref>clipitem-753</linkclipref>
							<mediatype>audio</mediatype>
							<trackindex>14</trackindex>
							<clipindex>30</clipindex>
							<groupindex>1</groupindex>
						</link>
						<logginginfo>
							<description></description>
							<scene></scene>
							<shottake></shottake>
							<lognote>Made with Sony ACID Music Studio 7.0</lognote>
						</logginginfo>
						<labels>
							<label2>Caribbean</label2>
						</labels>
					</clipitem>
					<clipitem id="clipitem-710" premiereChannelType="mono">
						<masterclipid>masterclip-185</masterclipid>
						<name>107589__qat__unsheath-sword.wav</name>
						<enabled>TRUE</enabled>
						<duration>25</duration>
						<rate>
							<timebase>25</timebase>
							<ntsc>FALSE</ntsc>
						</rate>
						<start>20700</start>
						<end>20717</end>
						<in>0</in>
						<out>17</out>
						<pproTicksIn>0</pproTicksIn>
						<pproTicksOut>172730880000</pproTicksOut>
						<file id="file-169">
							<name>107589__qat__unsheath-sword.wav</name>
							<pathurl>file://localhost/Volumes/Bingen/Prosjekter/MYNT194016%20WHATS%20COOKING/Lydeffekter/Sverd/107589__qat__unsheath-sword.wav</pathurl>
							<rate>
								<timebase>30</timebase>
								<ntsc>TRUE</ntsc>
							</rate>
							<duration>30</duration>
							<timecode>
								<rate>
									<timebase>30</timebase>
									<ntsc>TRUE</ntsc>
								</rate>
								<string>00;00;00;00</string>
								<frame>0</frame>
								<displayformat>DF</displayformat>
								<reel>
									<name></name>
								</reel>
							</timecode>
							<media>
								<audio>
									<samplecharacteristics>
										<depth>16</depth>
										<samplerate>48000</samplerate>
									</samplecharacteristics>
									<channelcount>1</channelcount>
									<audiochannel>
										<sourcechannel>1</sourcechannel>
									</audiochannel>
								</audio>
							</media>
						</file>
						<sourcetrack>
							<mediatype>audio</mediatype>
							<trackindex>1</trackindex>
						</sourcetrack>
						<logginginfo>
							<description></description>
							<scene></scene>
							<shottake></shottake>
							<lognote>mixture of 30244-streety and 56264-Q.K </lognote>
						</logginginfo>
						<labels>
							<label2>Caribbean</label2>
						</labels>
					</clipitem>
					<clipitem id="clipitem-711" premiereChannelType="stereo">
						<masterclipid>masterclip-184</masterclipid>
						<name>175951__freefire66__swordbattle2.wav</name>
						<enabled>TRUE</enabled>
						<duration>2200</duration>
						<rate>
							<timebase>25</timebase>
							<ntsc>FALSE</ntsc>
						</rate>
						<start>20717</start>
						<end>20728</end>
						<in>1951</in>
						<out>1962</out>
						<pproTicksIn>19823408640000</pproTicksIn>
						<pproTicksOut>19935175680000</pproTicksOut>
						<file id="file-168"/>
						<sourcetrack>
							<mediatype>audio</mediatype>
							<trackindex>1</trackindex>
						</sourcetrack>
						<link>
							<linkclipref>clipitem-711</linkclipref>
							<mediatype>audio</mediatype>
							<trackindex>13</trackindex>
							<clipindex>38</clipindex>
							<groupindex>1</groupindex>
						</link>
						<link>
							<linkclipref>clipitem-754</linkclipref>
							<mediatype>audio</mediatype>
							<trackindex>14</trackindex>
							<clipindex>31</clipindex>
							<groupindex>1</groupindex>
						</link>
						<logginginfo>
							<description></description>
							<scene></scene>
							<shottake></shottake>
							<lognote>Made with Sony ACID Music Studio 7.0</lognote>
						</logginginfo>
						<labels>
							<label2>Caribbean</label2>
						</labels>
					</clipitem>
					<clipitem id="clipitem-712" premiereChannelType="stereo">
						<masterclipid>masterclip-184</masterclipid>
						<name>175951__freefire66__swordbattle2.wav</name>
						<enabled>TRUE</enabled>
						<duration>2200</duration>
						<rate>
							<timebase>25</timebase>
							<ntsc>FALSE</ntsc>
						</rate>
						<start>20728</start>
						<end>20746</end>
						<in>1965</in>
						<out>1983</out>
						<pproTicksIn>19965657600000</pproTicksIn>
						<pproTicksOut>20148549120000</pproTicksOut>
						<file id="file-168"/>
						<sourcetrack>
							<mediatype>audio</mediatype>
							<trackindex>1</trackindex>
						</sourcetrack>
						<link>
							<linkclipref>clipitem-712</linkclipref>
							<mediatype>audio</mediatype>
							<trackindex>13</trackindex>
							<clipindex>39</clipindex>
							<groupindex>1</groupindex>
						</link>
						<link>
							<linkclipref>clipitem-755</linkclipref>
							<mediatype>audio</mediatype>
							<trackindex>14</trackindex>
							<clipindex>32</clipindex>
							<groupindex>1</groupindex>
						</link>
						<logginginfo>
							<description></description>
							<scene></scene>
							<shottake></shottake>
							<lognote>Made with Sony ACID Music Studio 7.0</lognote>
						</logginginfo>
						<labels>
							<label2>Caribbean</label2>
						</labels>
					</clipitem>
					<clipitem id="clipitem-713" premiereChannelType="stereo">
						<masterclipid>masterclip-184</masterclipid>
						<name>175951__freefire66__swordbattle2.wav</name>
						<enabled>TRUE</enabled>
						<duration>2200</duration>
						<rate>
							<timebase>25</timebase>
							<ntsc>FALSE</ntsc>
						</rate>
						<start>20749</start>
						<end>20760</end>
						<in>1983</in>
						<out>1994</out>
						<pproTicksIn>20148549120000</pproTicksIn>
						<pproTicksOut>20260316160000</pproTicksOut>
						<file id="file-168"/>
						<sourcetrack>
							<mediatype>audio</mediatype>
							<trackindex>1</trackindex>
						</sourcetrack>
						<link>
							<linkclipref>clipitem-713</linkclipref>
							<mediatype>audio</mediatype>
							<trackindex>13</trackindex>
							<clipindex>40</clipindex>
							<groupindex>1</groupindex>
						</link>
						<link>
							<linkclipref>clipitem-756</linkclipref>
							<mediatype>audio</mediatype>
							<trackindex>14</trackindex>
							<clipindex>33</clipindex>
							<groupindex>1</groupindex>
						</link>
						<logginginfo>
							<description></description>
							<scene></scene>
							<shottake></shottake>
							<lognote>Made with Sony ACID Music Studio 7.0</lognote>
						</logginginfo>
						<labels>
							<label2>Caribbean</label2>
						</labels>
					</clipitem>
					<clipitem id="clipitem-714" premiereChannelType="mono">
						<masterclipid>masterclip-185</masterclipid>
						<name>107589__qat__unsheath-sword.wav</name>
						<enabled>TRUE</enabled>
						<duration>25</duration>
						<rate>
							<timebase>25</timebase>
							<ntsc>FALSE</ntsc>
						</rate>
						<start>20760</start>
						<end>20780</end>
						<in>0</in>
						<out>20</out>
						<pproTicksIn>0</pproTicksIn>
						<pproTicksOut>203212800000</pproTicksOut>
						<file id="file-169"/>
						<sourcetrack>
							<mediatype>audio</mediatype>
							<trackindex>1</trackindex>
						</sourcetrack>
						<logginginfo>
							<description></description>
							<scene></scene>
							<shottake></shottake>
							<lognote>mixture of 30244-streety and 56264-Q.K </lognote>
						</logginginfo>
						<labels>
							<label2>Caribbean</label2>
						</labels>
					</clipitem>
					<clipitem id="clipitem-715" premiereChannelType="stereo">
						<masterclipid>masterclip-184</masterclipid>
						<name>175951__freefire66__swordbattle2.wav</name>
						<enabled>TRUE</enabled>
						<duration>2200</duration>
						<rate>
							<timebase>25</timebase>
							<ntsc>FALSE</ntsc>
						</rate>
						<start>20831</start>
						<end>20873</end>
						<in>1662</in>
						<out>1704</out>
						<pproTicksIn>16886983680000</pproTicksIn>
						<pproTicksOut>17313730560000</pproTicksOut>
						<file id="file-168"/>
						<sourcetrack>
							<mediatype>audio</mediatype>
							<trackindex>1</trackindex>
						</sourcetrack>
						<link>
							<linkclipref>clipitem-715</linkclipref>
							<mediatype>audio</mediatype>
							<trackindex>13</trackindex>
							<clipindex>42</clipindex>
							<groupindex>1</groupindex>
						</link>
						<link>
							<linkclipref>clipitem-757</linkclipref>
							<mediatype>audio</mediatype>
							<trackindex>14</trackindex>
							<clipindex>34</clipindex>
							<groupindex>1</groupindex>
						</link>
						<logginginfo>
							<description></description>
							<scene></scene>
							<shottake></shottake>
							<lognote>Made with Sony ACID Music Studio 7.0</lognote>
						</logginginfo>
						<labels>
							<label2>Caribbean</label2>
						</labels>
					</clipitem>
					<clipitem id="clipitem-716" premiereChannelType="stereo">
						<masterclipid>masterclip-184</masterclipid>
						<name>175951__freefire66__swordbattle2.wav</name>
						<enabled>TRUE</enabled>
						<duration>2200</duration>
						<rate>
							<timebase>25</timebase>
							<ntsc>FALSE</ntsc>
						</rate>
						<start>20873</start>
						<end>20884</end>
						<in>1768</in>
						<out>1779</out>
						<pproTicksIn>17964011520000</pproTicksIn>
						<pproTicksOut>18075778560000</pproTicksOut>
						<file id="file-168"/>
						<sourcetrack>
							<mediatype>audio</mediatype>
							<trackindex>1</trackindex>
						</sourcetrack>
						<link>
							<linkclipref>clipitem-716</linkclipref>
							<mediatype>audio</mediatype>
							<trackindex>13</trackindex>
							<clipindex>43</clipindex>
							<groupindex>1</groupindex>
						</link>
						<link>
							<linkclipref>clipitem-758</linkclipref>
							<mediatype>audio</mediatype>
							<trackindex>14</trackindex>
							<clipindex>35</clipindex>
							<groupindex>1</groupindex>
						</link>
						<logginginfo>
							<description></description>
							<scene></scene>
							<shottake></shottake>
							<lognote>Made with Sony ACID Music Studio 7.0</lognote>
						</logginginfo>
						<labels>
							<label2>Caribbean</label2>
						</labels>
					</clipitem>
					<clipitem id="clipitem-717" premiereChannelType="stereo">
						<masterclipid>masterclip-186</masterclipid>
						<name>175957__freefire66__swordraw.wav</name>
						<enabled>TRUE</enabled>
						<duration>27</duration>
						<rate>
							<timebase>25</timebase>
							<ntsc>FALSE</ntsc>
						</rate>
						<start>20884</start>
						<end>20907</end>
						<in>0</in>
						<out>23</out>
						<pproTicksIn>0</pproTicksIn>
						<pproTicksOut>233694720000</pproTicksOut>
						<file id="file-170">
							<name>175957__freefire66__swordraw.wav</name>
							<pathurl>file://localhost/Volumes/Bingen/Prosjekter/MYNT194016%20WHATS%20COOKING/Lydeffekter/Sverd/175957__freefire66__swordraw.wav</pathurl>
							<rate>
								<timebase>30</timebase>
								<ntsc>TRUE</ntsc>
							</rate>
							<duration>33</duration>
							<timecode>
								<rate>
									<timebase>30</timebase>
									<ntsc>TRUE</ntsc>
								</rate>
								<string>00;00;00;00</string>
								<frame>0</frame>
								<displayformat>DF</displayformat>
								<reel>
									<name></name>
								</reel>
							</timecode>
							<media>
								<audio>
									<samplecharacteristics>
										<depth>16</depth>
										<samplerate>48000</samplerate>
									</samplecharacteristics>
									<channelcount>2</channelcount>
								</audio>
							</media>
						</file>
						<sourcetrack>
							<mediatype>audio</mediatype>
							<trackindex>1</trackindex>
						</sourcetrack>
						<link>
							<linkclipref>clipitem-717</linkclipref>
							<mediatype>audio</mediatype>
							<trackindex>13</trackindex>
							<clipindex>44</clipindex>
							<groupindex>1</groupindex>
						</link>
						<link>
							<linkclipref>clipitem-759</linkclipref>
							<mediatype>audio</mediatype>
							<trackindex>14</trackindex>
							<clipindex>36</clipindex>
							<groupindex>1</groupindex>
						</link>
						<logginginfo>
							<description></description>
							<scene></scene>
							<shottake></shottake>
							<lognote></lognote>
						</logginginfo>
						<labels>
							<label2>Caribbean</label2>
						</labels>
					</clipitem>
					<clipitem id="clipitem-718" premiereChannelType="mono">
						<masterclipid>masterclip-185</masterclipid>
						<name>107589__qat__unsheath-sword.wav</name>
						<enabled>TRUE</enabled>
						<duration>27</duration>
						<rate>
							<timebase>25</timebase>
							<ntsc>FALSE</ntsc>
						</rate>
						<start>20916</start>
						<end>20944</end>
						<in>0</in>
						<out>28</out>
						<pproTicksIn>0</pproTicksIn>
						<pproTicksOut>256048128000</pproTicksOut>
						<file id="file-169"/>
						<sourcetrack>
							<mediatype>audio</mediatype>
							<trackindex>1</trackindex>
						</sourcetrack>
							<filter>
								<effect>
									<name>Time Remap</name>
									<effectid>timeremap</effectid>
									<effectcategory>motion</effectcategory>
									<effecttype>motion</effecttype>
									<mediatype>audio</mediatype>
									<parameter authoringApp="PremierePro">
										<parameterid>variablespeed</parameterid>
										<name>variablespeed</name>
										<valuemin>0</valuemin>
										<valuemax>1</valuemax>
										<value>0</value>
									</parameter>
									<parameter authoringApp="PremierePro">
										<parameterid>speed</parameterid>
										<name>speed</name>
										<valuemin>-100000</valuemin>
										<valuemax>100000</valuemax>
										<value>90</value>
									</parameter>
									<parameter authoringApp="PremierePro">
										<parameterid>reverse</parameterid>
										<name>reverse</name>
										<value>TRUE</value>
									</parameter>
									<parameter authoringApp="PremierePro">
										<parameterid>frameblending</parameterid>
										<name>frameblending</name>
										<value>FALSE</value>
									</parameter>
									<parameter authoringApp="PremierePro">
										<parameterid>graphdict</parameterid>
										<name>graphdict</name>
										<valuemin>0</valuemin>
										<valuemax>24</valuemax>
										<value>0</value>
										<keyframe>
											<when>0</when>
											<value>24</value>
											<speedvirtualkf>TRUE</speedvirtualkf>
											<speedkfin>TRUE</speedkfin>
										</keyframe>
										<keyframe>
											<when>27</when>
											<value>1</value>
											<speedvirtualkf>TRUE</speedvirtualkf>
											<speedkfout>TRUE</speedkfout>
										</keyframe>
										<interpolation>
											<name>FCPCurve</name>
										</interpolation>
									</parameter>
								</effect>
							</filter>
						<logginginfo>
							<description></description>
							<scene></scene>
							<shottake></shottake>
							<lognote>mixture of 30244-streety and 56264-Q.K </lognote>
						</logginginfo>
						<labels>
							<label2>Caribbean</label2>
						</labels>
					</clipitem>
					<clipitem id="clipitem-719" premiereChannelType="stereo">
						<masterclipid>masterclip-187</masterclipid>
						<name>NONRO157835CD0006 Shame on a Nigga.wav</name>
						<enabled>TRUE</enabled>
						<duration>4350</duration>
						<rate>
							<timebase>25</timebase>
							<ntsc>FALSE</ntsc>
						</rate>
						<start>21365</start>
						<end>-1</end>
						<in>98</in>
						<out>203</out>
						<pproTicksIn>995742720000</pproTicksIn>
						<pproTicksOut>2062609920000</pproTicksOut>
						<file id="file-171">
							<name>NONRO157835CD0006 Shame on a Nigga.wav</name>
							<pathurl>file://localhost/Volumes/Bingen/Prosjekter/MYNT194016%20WHATS%20COOKING/Musikk/Jan/DMA/NONRO157835CD0006%20Shame%20on%20a%20Nigga.wav</pathurl>
							<rate>
								<timebase>30</timebase>
								<ntsc>TRUE</ntsc>
							</rate>
							<duration>5215</duration>
							<timecode>
								<rate>
									<timebase>30</timebase>
									<ntsc>TRUE</ntsc>
								</rate>
								<string>00;00;00;00</string>
								<frame>0</frame>
								<displayformat>DF</displayformat>
								<reel>
									<name></name>
								</reel>
							</timecode>
							<media>
								<audio>
									<samplecharacteristics>
										<depth>16</depth>
										<samplerate>48000</samplerate>
									</samplecharacteristics>
									<channelcount>2</channelcount>
								</audio>
							</media>
						</file>
						<sourcetrack>
							<mediatype>audio</mediatype>
							<trackindex>1</trackindex>
						</sourcetrack>
							<filter>
								<effect>
									<name>Gain</name>
									<effectid>{61756678, 4761696e, 4b657947}</effectid>
									<effecttype>filter</effecttype>
									<mediatype>audio</mediatype>
									<parameter authoringApp="PremierePro">
										<parameterid>Gain(dB)</parameterid>
										<name>Gain(dB)</name>
										<valuemin>-96</valuemin>
										<valuemax>96</valuemax>
										<value>-10</value>
									</parameter>
								</effect>
							</filter>
						<link>
							<linkclipref>clipitem-719</linkclipref>
							<mediatype>audio</mediatype>
							<trackindex>13</trackindex>
							<clipindex>46</clipindex>
							<groupindex>1</groupindex>
						</link>
						<link>
							<linkclipref>clipitem-760</linkclipref>
							<mediatype>audio</mediatype>
							<trackindex>14</trackindex>
							<clipindex>37</clipindex>
							<groupindex>1</groupindex>
						</link>
						<logginginfo>
							<description></description>
							<scene></scene>
							<shottake></shottake>
							<lognote>CD Track 6 archiveNo[157835018]</lognote>
						</logginginfo>
						<labels>
							<label2>Caribbean</label2>
						</labels>
					</clipitem>
					<transitionitem>
						<start>21457</start>
						<end>21470</end>
						<alignment>center</alignment>
						<cutPointTicks>60963840000</cutPointTicks>
						<rate>
							<timebase>25</timebase>
							<ntsc>FALSE</ntsc>
						</rate>
						<effect>
							<name>Cross Fade (+3dB)</name>
							<effectid>KGAudioTransCrossFade3dB</effectid>
							<effecttype>transition</effecttype>
							<mediatype>audio</mediatype>
							<wipecode>0</wipecode>
							<wipeaccuracy>100</wipeaccuracy>
							<startratio>0</startratio>
							<endratio>1</endratio>
							<reverse>FALSE</reverse>
						</effect>
					</transitionitem>
					<clipitem id="clipitem-720" premiereChannelType="stereo">
						<masterclipid>masterclip-187</masterclipid>
						<name>NONRO157835CD0006 Shame on a Nigga.wav</name>
						<enabled>TRUE</enabled>
						<duration>4350</duration>
						<rate>
							<timebase>25</timebase>
							<ntsc>FALSE</ntsc>
						</rate>
						<start>-1</start>
						<end>-1</end>
						<in>190</in>
						<out>891</out>
						<pproTicksIn>1930521600000</pproTicksIn>
						<pproTicksOut>9053130240000</pproTicksOut>
						<file id="file-171"/>
						<sourcetrack>
							<mediatype>audio</mediatype>
							<trackindex>1</trackindex>
						</sourcetrack>
							<filter>
								<effect>
									<name>Gain</name>
									<effectid>{61756678, 4761696e, 4b657947}</effectid>
									<effecttype>filter</effecttype>
									<mediatype>audio</mediatype>
									<parameter authoringApp="PremierePro">
										<parameterid>Gain(dB)</parameterid>
										<name>Gain(dB)</name>
										<valuemin>-96</valuemin>
										<valuemax>96</valuemax>
										<value>-25</value>
									</parameter>
								</effect>
							</filter>
						<link>
							<linkclipref>clipitem-720</linkclipref>
							<mediatype>audio</mediatype>
							<trackindex>13</trackindex>
							<clipindex>48</clipindex>
							<groupindex>1</groupindex>
						</link>
						<link>
							<linkclipref>clipitem-761</linkclipref>
							<mediatype>audio</mediatype>
							<trackindex>14</trackindex>
							<clipindex>39</clipindex>
							<groupindex>1</groupindex>
						</link>
						<logginginfo>
							<description></description>
							<scene></scene>
							<shottake></shottake>
							<lognote>CD Track 6 archiveNo[157835018]</lognote>
						</logginginfo>
						<labels>
							<label2>Caribbean</label2>
						</labels>
					</clipitem>
					<transitionitem>
						<start>22066</start>
						<end>22158</end>
						<alignment>end-black</alignment>
						<cutPointTicks>934778880000</cutPointTicks>
						<rate>
							<timebase>25</timebase>
							<ntsc>FALSE</ntsc>
						</rate>
						<effect>
							<name>Cross Fade (+3dB)</name>
							<effectid>KGAudioTransCrossFade3dB</effectid>
							<effecttype>transition</effecttype>
							<mediatype>audio</mediatype>
							<wipecode>0</wipecode>
							<wipeaccuracy>100</wipeaccuracy>
							<startratio>0</startratio>
							<endratio>1</endratio>
							<reverse>FALSE</reverse>
						</effect>
					</transitionitem>
					<clipitem id="clipitem-721" premiereChannelType="stereo">
						<masterclipid>masterclip-188</masterclipid>
						<name>99562__tomlija__bowling-alley-ambience.wav</name>
						<enabled>TRUE</enabled>
						<duration>348</duration>
						<rate>
							<timebase>25</timebase>
							<ntsc>FALSE</ntsc>
						</rate>
						<start>22579</start>
						<end>22631</end>
						<in>0</in>
						<out>52</out>
						<pproTicksIn>0</pproTicksIn>
						<pproTicksOut>528353280000</pproTicksOut>
						<file id="file-172">
							<name>99562__tomlija__bowling-alley-ambience.wav</name>
							<pathurl>file://localhost/Volumes/Bingen/Prosjekter/MYNT194016%20WHATS%20COOKING/Lydeffekter/Jan%20Lydeffekter/99562__tomlija__bowling-alley-ambience.wav</pathurl>
							<rate>
								<timebase>30</timebase>
								<ntsc>TRUE</ntsc>
							</rate>
							<duration>418</duration>
							<timecode>
								<rate>
									<timebase>30</timebase>
									<ntsc>TRUE</ntsc>
								</rate>
								<string>01;00;00;00</string>
								<frame>107892</frame>
								<displayformat>DF</displayformat>
								<reel>
									<name></name>
								</reel>
							</timecode>
							<media>
								<audio>
									<samplecharacteristics>
										<depth>16</depth>
										<samplerate>48000</samplerate>
									</samplecharacteristics>
									<channelcount>2</channelcount>
								</audio>
							</media>
						</file>
						<sourcetrack>
							<mediatype>audio</mediatype>
							<trackindex>1</trackindex>
						</sourcetrack>
						<link>
							<linkclipref>clipitem-721</linkclipref>
							<mediatype>audio</mediatype>
							<trackindex>13</trackindex>
							<clipindex>50</clipindex>
							<groupindex>1</groupindex>
						</link>
						<link>
							<linkclipref>clipitem-762</linkclipref>
							<mediatype>audio</mediatype>
							<trackindex>14</trackindex>
							<clipindex>41</clipindex>
							<groupindex>1</groupindex>
						</link>
						<logginginfo>
							<description></description>
							<scene></scene>
							<shottake></shottake>
							<lognote></lognote>
						</logginginfo>
						<labels>
							<label2>Rose</label2>
						</labels>
					</clipitem>
					<clipitem id="clipitem-722" premiereChannelType="stereo">
						<masterclipid>masterclip-188</masterclipid>
						<name>99562__tomlija__bowling-alley-ambience.wav</name>
						<enabled>TRUE</enabled>
						<duration>348</duration>
						<rate>
							<timebase>25</timebase>
							<ntsc>FALSE</ntsc>
						</rate>
						<start>22631</start>
						<end>-1</end>
						<in>52</in>
						<out>226</out>
						<pproTicksIn>528353280000</pproTicksIn>
						<pproTicksOut>2296304640000</pproTicksOut>
						<file id="file-172"/>
						<sourcetrack>
							<mediatype>audio</mediatype>
							<trackindex>1</trackindex>
						</sourcetrack>
							<filter>
								<effect>
									<name>Gain</name>
									<effectid>{61756678, 4761696e, 4b657947}</effectid>
									<effecttype>filter</effecttype>
									<mediatype>audio</mediatype>
									<parameter authoringApp="PremierePro">
										<parameterid>Gain(dB)</parameterid>
										<name>Gain(dB)</name>
										<valuemin>-96</valuemin>
										<valuemax>96</valuemax>
										<value>-13</value>
									</parameter>
								</effect>
							</filter>
						<link>
							<linkclipref>clipitem-722</linkclipref>
							<mediatype>audio</mediatype>
							<trackindex>13</trackindex>
							<clipindex>51</clipindex>
							<groupindex>1</groupindex>
						</link>
						<link>
							<linkclipref>clipitem-763</linkclipref>
							<mediatype>audio</mediatype>
							<trackindex>14</trackindex>
							<clipindex>42</clipindex>
							<groupindex>1</groupindex>
						</link>
						<logginginfo>
							<description></description>
							<scene></scene>
							<shottake></shottake>
							<lognote></lognote>
						</logginginfo>
						<labels>
							<label2>Rose</label2>
						</labels>
					</clipitem>
					<transitionitem>
						<start>22792</start>
						<end>22805</end>
						<alignment>end-black</alignment>
						<cutPointTicks>132088320000</cutPointTicks>
						<rate>
							<timebase>25</timebase>
							<ntsc>FALSE</ntsc>
						</rate>
						<effect>
							<name>Cross Fade (+3dB)</name>
							<effectid>KGAudioTransCrossFade3dB</effectid>
							<effecttype>transition</effecttype>
							<mediatype>audio</mediatype>
							<wipecode>0</wipecode>
							<wipeaccuracy>100</wipeaccuracy>
							<startratio>0</startratio>
							<endratio>1</endratio>
							<reverse>FALSE</reverse>
						</effect>
					</transitionitem>
					<clipitem id="clipitem-723" premiereChannelType="stereo">
						<masterclipid>masterclip-183</masterclipid>
						<name>169867__halgrimm__swoosh.wav</name>
						<enabled>TRUE</enabled>
						<duration>57</duration>
						<rate>
							<timebase>25</timebase>
							<ntsc>FALSE</ntsc>
						</rate>
						<start>23463</start>
						<end>23520</end>
						<in>0</in>
						<out>57</out>
						<pproTicksIn>0</pproTicksIn>
						<pproTicksOut>579156480000</pproTicksOut>
						<file id="file-167"/>
						<sourcetrack>
							<mediatype>audio</mediatype>
							<trackindex>1</trackindex>
						</sourcetrack>
						<link>
							<linkclipref>clipitem-723</linkclipref>
							<mediatype>audio</mediatype>
							<trackindex>13</trackindex>
							<clipindex>53</clipindex>
							<groupindex>1</groupindex>
						</link>
						<link>
							<linkclipref>clipitem-764</linkclipref>
							<mediatype>audio</mediatype>
							<trackindex>14</trackindex>
							<clipindex>44</clipindex>
							<groupindex>1</groupindex>
						</link>
						<logginginfo>
							<description></description>
							<scene></scene>
							<shottake></shottake>
							<lognote></lognote>
						</logginginfo>
						<labels>
							<label2>Caribbean</label2>
						</labels>
					</clipitem>
					<clipitem id="clipitem-724" premiereChannelType="mono">
						<masterclipid>masterclip-130</masterclipid>
						<name>Clip0006.mov</name>
						<enabled>TRUE</enabled>
						<duration>18456</duration>
						<rate>
							<timebase>25</timebase>
							<ntsc>FALSE</ntsc>
						</rate>
						<start>23760</start>
						<end>23819</end>
						<in>13327</in>
						<out>13386</out>
						<pproTicksIn>135410849280000</pproTicksIn>
						<pproTicksOut>136010327040000</pproTicksOut>
						<file id="file-117"/>
						<sourcetrack>
							<mediatype>audio</mediatype>
							<trackindex>1</trackindex>
						</sourcetrack>
							<marker>
								<comment></comment>
								<name>klapp</name>
								<in>273</in>
								<out>-1</out>
							</marker>
						<link>
							<linkclipref>clipitem-724</linkclipref>
							<mediatype>audio</mediatype>
							<trackindex>13</trackindex>
							<clipindex>54</clipindex>
							<groupindex>1</groupindex>
						</link>
						<link>
							<linkclipref>clipitem-790</linkclipref>
							<mediatype>audio</mediatype>
							<trackindex>15</trackindex>
							<clipindex>37</clipindex>
							<groupindex>1</groupindex>
						</link>
						<logginginfo>
							<description>boksT01 M klapp1 sidelinja klapp 2 Jim</description>
							<scene></scene>
							<shottake></shottake>
							<lognote></lognote>
						</logginginfo>
						<labels>
							<label2>Iris</label2>
						</labels>
					</clipitem>
					<clipitem id="clipitem-725" premiereChannelType="mono">
						<masterclipid>masterclip-128</masterclipid>
						<name>VBboks-kamp-T01-Multicam</name>
						<enabled>TRUE</enabled>
						<duration>45778</duration>
						<rate>
							<timebase>25</timebase>
							<ntsc>FALSE</ntsc>
						</rate>
						<start>24042</start>
						<end>24120</end>
						<in>8551</in>
						<out>8629</out>
						<pproTicksIn>86883632640000</pproTicksIn>
						<pproTicksOut>87676162560000</pproTicksOut>
						<sequence id="sequence-11"/>
						<labels>
							<label2>Forest</label2>
						</labels>
					</clipitem>
					<clipitem id="clipitem-726" premiereChannelType="mono">
						<masterclipid>masterclip-128</masterclipid>
						<name>VBboks-kamp-T01-Multicam</name>
						<enabled>TRUE</enabled>
						<duration>45778</duration>
						<rate>
							<timebase>25</timebase>
							<ntsc>FALSE</ntsc>
						</rate>
						<start>24487</start>
						<end>24499</end>
						<in>7416</in>
						<out>7428</out>
						<pproTicksIn>75351306240000</pproTicksIn>
						<pproTicksOut>75473233920000</pproTicksOut>
						<sequence id="sequence-11"/>
						<link>
							<linkclipref>clipitem-589</linkclipref>
							<mediatype>audio</mediatype>
							<trackindex>9</trackindex>
							<clipindex>29</clipindex>
							<groupindex>1</groupindex>
						</link>
						<link>
							<linkclipref>clipitem-653</linkclipref>
							<mediatype>audio</mediatype>
							<trackindex>11</trackindex>
							<clipindex>41</clipindex>
							<groupindex>1</groupindex>
						</link>
						<link>
							<linkclipref>clipitem-726</linkclipref>
							<mediatype>audio</mediatype>
							<trackindex>13</trackindex>
							<clipindex>56</clipindex>
							<groupindex>1</groupindex>
						</link>
						<link>
							<linkclipref>clipitem-792</linkclipref>
							<mediatype>audio</mediatype>
							<trackindex>15</trackindex>
							<clipindex>39</clipindex>
							<groupindex>1</groupindex>
						</link>
						<labels>
							<label2>Forest</label2>
						</labels>
					</clipitem>
					<clipitem id="clipitem-727" premiereChannelType="stereo">
						<masterclipid>masterclip-189</masterclipid>
						<name>91285__timbre__82264-variant-3d-wooshes-both-ways-2.wav</name>
						<enabled>TRUE</enabled>
						<duration>1120</duration>
						<rate>
							<timebase>25</timebase>
							<ntsc>FALSE</ntsc>
						</rate>
						<start>25694</start>
						<end>25717</end>
						<in>270</in>
						<out>293</out>
						<pproTicksIn>2743372800000</pproTicksIn>
						<pproTicksOut>2977067520000</pproTicksOut>
						<file id="file-173">
							<name>91285__timbre__82264-variant-3d-wooshes-both-ways-2.wav</name>
							<pathurl>file://localhost/Volumes/Bingen/Prosjekter/MYNT194016%20WHATS%20COOKING/Lydeffekter/Jan%20Lydeffekter/Woosh/91285__timbre__82264-variant-3d-wooshes-both-ways-2.wav</pathurl>
							<rate>
								<timebase>30</timebase>
								<ntsc>TRUE</ntsc>
							</rate>
							<duration>1342</duration>
							<timecode>
								<rate>
									<timebase>30</timebase>
									<ntsc>TRUE</ntsc>
								</rate>
								<string>00;00;00;00</string>
								<frame>0</frame>
								<displayformat>DF</displayformat>
								<reel>
									<name></name>
								</reel>
							</timecode>
							<media>
								<audio>
									<samplecharacteristics>
										<depth>16</depth>
										<samplerate>48000</samplerate>
									</samplecharacteristics>
									<channelcount>2</channelcount>
								</audio>
							</media>
						</file>
						<sourcetrack>
							<mediatype>audio</mediatype>
							<trackindex>1</trackindex>
						</sourcetrack>
							<filter>
								<effect>
									<name>Gain</name>
									<effectid>{61756678, 4761696e, 4b657947}</effectid>
									<effecttype>filter</effecttype>
									<mediatype>audio</mediatype>
									<parameter authoringApp="PremierePro">
										<parameterid>Gain(dB)</parameterid>
										<name>Gain(dB)</name>
										<valuemin>-96</valuemin>
										<valuemax>96</valuemax>
										<value>-20</value>
									</parameter>
								</effect>
							</filter>
						<link>
							<linkclipref>clipitem-727</linkclipref>
							<mediatype>audio</mediatype>
							<trackindex>13</trackindex>
							<clipindex>57</clipindex>
							<groupindex>1</groupindex>
						</link>
						<link>
							<linkclipref>clipitem-765</linkclipref>
							<mediatype>audio</mediatype>
							<trackindex>14</trackindex>
							<clipindex>45</clipindex>
							<groupindex>1</groupindex>
						</link>
						<logginginfo>
							<description></description>
							<scene></scene>
							<shottake></shottake>
							<lognote></lognote>
						</logginginfo>
						<labels>
							<label2>Caribbean</label2>
						</labels>
					</clipitem>
					<clipitem id="clipitem-728" premiereChannelType="mono">
						<masterclipid>masterclip-190</masterclipid>
						<name>93757__toyoto__wooshs-01.wav</name>
						<enabled>TRUE</enabled>
						<duration>602</duration>
						<rate>
							<timebase>25</timebase>
							<ntsc>FALSE</ntsc>
						</rate>
						<start>25751</start>
						<end>25761</end>
						<in>280</in>
						<out>290</out>
						<pproTicksIn>1422489600000</pproTicksIn>
						<pproTicksOut>1473292800000</pproTicksOut>
						<file id="file-174">
							<name>93757__toyoto__wooshs-01.wav</name>
							<pathurl>file://localhost/Volumes/Bingen/Prosjekter/MYNT194016%20WHATS%20COOKING/Lydeffekter/Jan%20Lydeffekter/Woosh/93757__toyoto__wooshs-01.wav</pathurl>
							<rate>
								<timebase>30</timebase>
								<ntsc>TRUE</ntsc>
							</rate>
							<duration>361</duration>
							<timecode>
								<rate>
									<timebase>30</timebase>
									<ntsc>TRUE</ntsc>
								</rate>
								<string>00;00;00;00</string>
								<frame>0</frame>
								<displayformat>DF</displayformat>
								<reel>
									<name></name>
								</reel>
							</timecode>
							<media>
								<audio>
									<samplecharacteristics>
										<depth>16</depth>
										<samplerate>48000</samplerate>
									</samplecharacteristics>
									<channelcount>1</channelcount>
									<audiochannel>
										<sourcechannel>1</sourcechannel>
									</audiochannel>
								</audio>
							</media>
						</file>
						<sourcetrack>
							<mediatype>audio</mediatype>
							<trackindex>1</trackindex>
						</sourcetrack>
							<filter>
								<effect>
									<name>Time Remap</name>
									<effectid>timeremap</effectid>
									<effectcategory>motion</effectcategory>
									<effecttype>motion</effecttype>
									<mediatype>audio</mediatype>
									<parameter authoringApp="PremierePro">
										<parameterid>variablespeed</parameterid>
										<name>variablespeed</name>
										<valuemin>0</valuemin>
										<valuemax>1</valuemax>
										<value>0</value>
									</parameter>
									<parameter authoringApp="PremierePro">
										<parameterid>speed</parameterid>
										<name>speed</name>
										<valuemin>-100000</valuemin>
										<valuemax>100000</valuemax>
										<value>50</value>
									</parameter>
									<parameter authoringApp="PremierePro">
										<parameterid>reverse</parameterid>
										<name>reverse</name>
										<value>FALSE</value>
									</parameter>
									<parameter authoringApp="PremierePro">
										<parameterid>frameblending</parameterid>
										<name>frameblending</name>
										<value>FALSE</value>
									</parameter>
									<parameter authoringApp="PremierePro">
										<parameterid>graphdict</parameterid>
										<name>graphdict</name>
										<valuemin>0</valuemin>
										<valuemax>301</valuemax>
										<value>0</value>
										<keyframe>
											<when>0</when>
											<value>0</value>
											<speedvirtualkf>TRUE</speedvirtualkf>
											<speedkfstart>TRUE</speedkfstart>
										</keyframe>
										<keyframe>
											<when>280</when>
											<value>140</value>
											<speedvirtualkf>TRUE</speedvirtualkf>
											<speedkfin>TRUE</speedkfin>
										</keyframe>
										<keyframe>
											<when>290</when>
											<value>145</value>
											<speedvirtualkf>TRUE</speedvirtualkf>
											<speedkfout>TRUE</speedkfout>
										</keyframe>
										<keyframe>
											<when>602</when>
											<value>301</value>
											<speedvirtualkf>TRUE</speedvirtualkf>
											<speedkfend>TRUE</speedkfend>
										</keyframe>
										<interpolation>
											<name>FCPCurve</name>
										</interpolation>
									</parameter>
								</effect>
							</filter>
						<logginginfo>
							<description></description>
							<scene></scene>
							<shottake></shottake>
							<lognote></lognote>
						</logginginfo>
						<labels>
							<label2>Caribbean</label2>
						</labels>
					</clipitem>
					<clipitem id="clipitem-729" premiereChannelType="stereo">
						<masterclipid>masterclip-191</masterclipid>
						<name>192120__heavenlyhits__trailer-hit-10.wav</name>
						<enabled>TRUE</enabled>
						<duration>387</duration>
						<rate>
							<timebase>25</timebase>
							<ntsc>FALSE</ntsc>
						</rate>
						<start>29106</start>
						<end>29146</end>
						<in>137</in>
						<out>177</out>
						<pproTicksIn>1392007680000</pproTicksIn>
						<pproTicksOut>1798433280000</pproTicksOut>
						<file id="file-175">
							<name>192120__heavenlyhits__trailer-hit-10.wav</name>
							<pathurl>file://localhost/Volumes/Bingen/Prosjekter/MYNT194016%20WHATS%20COOKING/Lydeffekter/Jan%20Lydeffekter/Woosh/192120__heavenlyhits__trailer-hit-10.wav</pathurl>
							<rate>
								<timebase>30</timebase>
								<ntsc>TRUE</ntsc>
							</rate>
							<duration>464</duration>
							<timecode>
								<rate>
									<timebase>30</timebase>
									<ntsc>TRUE</ntsc>
								</rate>
								<string>01;00;00;00</string>
								<frame>107892</frame>
								<displayformat>DF</displayformat>
								<reel>
									<name></name>
								</reel>
							</timecode>
							<media>
								<audio>
									<samplecharacteristics>
										<depth>16</depth>
										<samplerate>48000</samplerate>
									</samplecharacteristics>
									<channelcount>2</channelcount>
								</audio>
							</media>
						</file>
						<sourcetrack>
							<mediatype>audio</mediatype>
							<trackindex>1</trackindex>
						</sourcetrack>
							<filter>
								<effect>
									<name>Gain</name>
									<effectid>{61756678, 4761696e, 4b657947}</effectid>
									<effecttype>filter</effecttype>
									<mediatype>audio</mediatype>
									<parameter authoringApp="PremierePro">
										<parameterid>Gain(dB)</parameterid>
										<name>Gain(dB)</name>
										<valuemin>-96</valuemin>
										<valuemax>96</valuemax>
										<value>-20</value>
									</parameter>
								</effect>
							</filter>
						<link>
							<linkclipref>clipitem-729</linkclipref>
							<mediatype>audio</mediatype>
							<trackindex>13</trackindex>
							<clipindex>59</clipindex>
							<groupindex>1</groupindex>
						</link>
						<link>
							<linkclipref>clipitem-766</linkclipref>
							<mediatype>audio</mediatype>
							<trackindex>14</trackindex>
							<clipindex>46</clipindex>
							<groupindex>1</groupindex>
						</link>
						<logginginfo>
							<description></description>
							<scene></scene>
							<shottake></shottake>
							<lognote></lognote>
						</logginginfo>
						<labels>
							<label2>Caribbean</label2>
						</labels>
					</clipitem>
					<enabled>TRUE</enabled>
					<locked>FALSE</locked>
					<outputchannelindex>1</outputchannelindex>
				</track>
				<track TL.SQTrackAudioKeyframeStyle="0" TL.SQTrackShy="0" TL.SQTrackExpandedHeight="35" TL.SQTrackExpanded="1" MZ.TrackTargeted="1" PannerCurrentValue="0.5" PannerIsInverted="true" PannerStartKeyframe="-91445760000000000,0.5,0,0,0,0,0,0" PannerName="Balance" currentExplodedTrackIndex="1" totalExplodedTrackCount="2" premiereTrackType="Stereo">
					<clipitem id="clipitem-730" premiereChannelType="stereo">
						<masterclipid>masterclip-170</masterclipid>
						<name>30246__streety__sword4.wav</name>
						<enabled>TRUE</enabled>
						<duration>48</duration>
						<rate>
							<timebase>25</timebase>
							<ntsc>FALSE</ntsc>
						</rate>
						<start>0</start>
						<end>-1</end>
						<in>2</in>
						<out>25</out>
						<pproTicksIn>10668672000</pproTicksIn>
						<pproTicksOut>92461823997</pproTicksOut>
						<file id="file-154"/>
						<sourcetrack>
							<mediatype>audio</mediatype>
							<trackindex>2</trackindex>
						</sourcetrack>
							<filter>
								<effect>
									<name>Gain</name>
									<effectid>{61756678, 4761696e, 4b657947}</effectid>
									<effecttype>filter</effecttype>
									<mediatype>audio</mediatype>
									<parameter authoringApp="PremierePro">
										<parameterid>Gain(dB)</parameterid>
										<name>Gain(dB)</name>
										<valuemin>-96</valuemin>
										<valuemax>96</valuemax>
										<value>-10</value>
									</parameter>
								</effect>
							</filter>
							<filter>
								<effect>
									<name>Time Remap</name>
									<effectid>timeremap</effectid>
									<effectcategory>motion</effectcategory>
									<effecttype>motion</effecttype>
									<mediatype>audio</mediatype>
									<parameter authoringApp="PremierePro">
										<parameterid>variablespeed</parameterid>
										<name>variablespeed</name>
										<valuemin>0</valuemin>
										<valuemax>1</valuemax>
										<value>0</value>
									</parameter>
									<parameter authoringApp="PremierePro">
										<parameterid>speed</parameterid>
										<name>speed</name>
										<valuemin>-100000</valuemin>
										<valuemax>100000</valuemax>
										<value>35</value>
									</parameter>
									<parameter authoringApp="PremierePro">
										<parameterid>reverse</parameterid>
										<name>reverse</name>
										<value>FALSE</value>
									</parameter>
									<parameter authoringApp="PremierePro">
										<parameterid>frameblending</parameterid>
										<name>frameblending</name>
										<value>FALSE</value>
									</parameter>
									<parameter authoringApp="PremierePro">
										<parameterid>graphdict</parameterid>
										<name>graphdict</name>
										<valuemin>0</valuemin>
										<valuemax>16</valuemax>
										<value>0</value>
										<keyframe>
											<when>0</when>
											<value>0</value>
											<speedvirtualkf>TRUE</speedvirtualkf>
											<speedkfstart>TRUE</speedkfstart>
										</keyframe>
										<keyframe>
											<when>2</when>
											<value>0</value>
											<speedvirtualkf>TRUE</speedvirtualkf>
											<speedkfin>TRUE</speedkfin>
										</keyframe>
										<keyframe>
											<when>25</when>
											<value>8</value>
											<speedvirtualkf>TRUE</speedvirtualkf>
											<speedkfout>TRUE</speedkfout>
										</keyframe>
										<keyframe>
											<when>48</when>
											<value>16</value>
											<speedvirtualkf>TRUE</speedvirtualkf>
											<speedkfend>TRUE</speedkfend>
										</keyframe>
										<interpolation>
											<name>FCPCurve</name>
										</interpolation>
									</parameter>
								</effect>
							</filter>
						<link>
							<linkclipref>clipitem-680</linkclipref>
							<mediatype>audio</mediatype>
							<trackindex>13</trackindex>
							<clipindex>1</clipindex>
							<groupindex>1</groupindex>
						</link>
						<link>
							<linkclipref>clipitem-730</linkclipref>
							<mediatype>audio</mediatype>
							<trackindex>14</trackindex>
							<clipindex>1</clipindex>
							<groupindex>1</groupindex>
						</link>
						<logginginfo>
							<description></description>
							<scene></scene>
							<shottake></shottake>
							<lognote></lognote>
						</logginginfo>
						<comments>
						</comments>
						<labels>
							<label2>Caribbean</label2>
						</labels>
					</clipitem>
					<transitionitem>
						<start>10</start>
						<end>23</end>
						<alignment>end-black</alignment>
						<cutPointTicks>132088320000</cutPointTicks>
						<rate>
							<timebase>25</timebase>
							<ntsc>FALSE</ntsc>
						</rate>
						<effect>
							<name>Cross Fade (+3dB)</name>
							<effectid>KGAudioTransCrossFade3dB</effectid>
							<effecttype>transition</effecttype>
							<mediatype>audio</mediatype>
							<wipecode>0</wipecode>
							<wipeaccuracy>100</wipeaccuracy>
							<startratio>0</startratio>
							<endratio>1</endratio>
							<reverse>FALSE</reverse>
						</effect>
					</transitionitem>
					<clipitem id="clipitem-731" premiereChannelType="stereo">
						<masterclipid>masterclip-123</masterclipid>
						<name>Vold - Sverd 2</name>
						<enabled>TRUE</enabled>
						<duration>84037</duration>
						<rate>
							<timebase>25</timebase>
							<ntsc>FALSE</ntsc>
						</rate>
						<start>98</start>
						<end>117</end>
						<in>8913</in>
						<out>8932</out>
						<pproTicksIn>90561784320000</pproTicksIn>
						<pproTicksOut>90754836480000</pproTicksOut>
						<sequence id="sequence-10"/>
							<filter>
								<effect>
									<name>Gain</name>
									<effectid>{61756678, 4761696e, 4b657947}</effectid>
									<effecttype>filter</effecttype>
									<mediatype>audio</mediatype>
									<parameter authoringApp="PremierePro">
										<parameterid>Gain(dB)</parameterid>
										<name>Gain(dB)</name>
										<valuemin>-96</valuemin>
										<valuemax>96</valuemax>
										<value>-18</value>
									</parameter>
								</effect>
							</filter>
						<link>
							<linkclipref>clipitem-681</linkclipref>
							<mediatype>audio</mediatype>
							<trackindex>13</trackindex>
							<clipindex>3</clipindex>
							<groupindex>1</groupindex>
						</link>
						<link>
							<linkclipref>clipitem-731</linkclipref>
							<mediatype>audio</mediatype>
							<trackindex>14</trackindex>
							<clipindex>3</clipindex>
							<groupindex>1</groupindex>
						</link>
						<labels>
							<label2>Forest</label2>
						</labels>
					</clipitem>
					<clipitem id="clipitem-732" premiereChannelType="stereo">
						<masterclipid>masterclip-171</masterclipid>
						<name>184325__micro__woosh-slide-in.wav</name>
						<enabled>TRUE</enabled>
						<duration>14</duration>
						<rate>
							<timebase>25</timebase>
							<ntsc>FALSE</ntsc>
						</rate>
						<start>874</start>
						<end>888</end>
						<in>0</in>
						<out>14</out>
						<pproTicksIn>0</pproTicksIn>
						<pproTicksOut>142248960000</pproTicksOut>
						<file id="file-155"/>
						<sourcetrack>
							<mediatype>audio</mediatype>
							<trackindex>2</trackindex>
						</sourcetrack>
							<filter>
								<effect>
									<name>Gain</name>
									<effectid>{61756678, 4761696e, 4b657947}</effectid>
									<effecttype>filter</effecttype>
									<mediatype>audio</mediatype>
									<parameter authoringApp="PremierePro">
										<parameterid>Gain(dB)</parameterid>
										<name>Gain(dB)</name>
										<valuemin>-96</valuemin>
										<valuemax>96</valuemax>
										<value>-25</value>
									</parameter>
								</effect>
							</filter>
							<marker>
								<comment></comment>
								<name>Tempo: 120.0</name>
								<in>0</in>
								<out>-1</out>
							</marker>
						<link>
							<linkclipref>clipitem-684</linkclipref>
							<mediatype>audio</mediatype>
							<trackindex>13</trackindex>
							<clipindex>6</clipindex>
							<groupindex>1</groupindex>
						</link>
						<link>
							<linkclipref>clipitem-732</linkclipref>
							<mediatype>audio</mediatype>
							<trackindex>14</trackindex>
							<clipindex>4</clipindex>
							<groupindex>1</groupindex>
						</link>
						<logginginfo>
							<description></description>
							<scene></scene>
							<shottake></shottake>
							<lognote></lognote>
						</logginginfo>
						<labels>
							<label2>Caribbean</label2>
						</labels>
					</clipitem>
					<clipitem id="clipitem-733" premiereChannelType="stereo">
						<masterclipid>masterclip-159</masterclipid>
						<name>205991__emptysound__digital-wooshes-eleven.wav</name>
						<enabled>TRUE</enabled>
						<duration>272</duration>
						<rate>
							<timebase>25</timebase>
							<ntsc>FALSE</ntsc>
						</rate>
						<start>934</start>
						<end>947</end>
						<in>224</in>
						<out>237</out>
						<pproTicksIn>2850059520000</pproTicksIn>
						<pproTicksOut>3015169920000</pproTicksOut>
						<file id="file-143"/>
						<sourcetrack>
							<mediatype>audio</mediatype>
							<trackindex>2</trackindex>
						</sourcetrack>
							<filter>
								<effect>
									<name>Gain</name>
									<effectid>{61756678, 4761696e, 4b657947}</effectid>
									<effecttype>filter</effecttype>
									<mediatype>audio</mediatype>
									<parameter authoringApp="PremierePro">
										<parameterid>Gain(dB)</parameterid>
										<name>Gain(dB)</name>
										<valuemin>-96</valuemin>
										<valuemax>96</valuemax>
										<value>-26</value>
									</parameter>
								</effect>
							</filter>
							<filter>
								<effect>
									<name>Time Remap</name>
									<effectid>timeremap</effectid>
									<effectcategory>motion</effectcategory>
									<effecttype>motion</effecttype>
									<mediatype>audio</mediatype>
									<parameter authoringApp="PremierePro">
										<parameterid>variablespeed</parameterid>
										<name>variablespeed</name>
										<valuemin>0</valuemin>
										<valuemax>1</valuemax>
										<value>0</value>
									</parameter>
									<parameter authoringApp="PremierePro">
										<parameterid>speed</parameterid>
										<name>speed</name>
										<valuemin>-100000</valuemin>
										<valuemax>100000</valuemax>
										<value>125</value>
									</parameter>
									<parameter authoringApp="PremierePro">
										<parameterid>reverse</parameterid>
										<name>reverse</name>
										<value>TRUE</value>
									</parameter>
									<parameter authoringApp="PremierePro">
										<parameterid>frameblending</parameterid>
										<name>frameblending</name>
										<value>FALSE</value>
									</parameter>
									<parameter authoringApp="PremierePro">
										<parameterid>graphdict</parameterid>
										<name>graphdict</name>
										<valuemin>0</valuemin>
										<valuemax>340</valuemax>
										<value>0</value>
										<keyframe>
											<when>0</when>
											<value>340</value>
											<speedvirtualkf>TRUE</speedvirtualkf>
											<speedkfstart>TRUE</speedkfstart>
										</keyframe>
										<keyframe>
											<when>35</when>
											<value>296</value>
											<speedvirtualkf>TRUE</speedvirtualkf>
											<speedkfin>TRUE</speedkfin>
										</keyframe>
										<keyframe>
											<when>48</when>
											<value>280</value>
											<speedvirtualkf>TRUE</speedvirtualkf>
											<speedkfout>TRUE</speedkfout>
										</keyframe>
										<keyframe>
											<when>272</when>
											<value>1</value>
											<speedvirtualkf>TRUE</speedvirtualkf>
											<speedkfend>TRUE</speedkfend>
										</keyframe>
										<interpolation>
											<name>FCPCurve</name>
										</interpolation>
									</parameter>
								</effect>
							</filter>
						<link>
							<linkclipref>clipitem-685</linkclipref>
							<mediatype>audio</mediatype>
							<trackindex>13</trackindex>
							<clipindex>7</clipindex>
							<groupindex>1</groupindex>
						</link>
						<link>
							<linkclipref>clipitem-733</linkclipref>
							<mediatype>audio</mediatype>
							<trackindex>14</trackindex>
							<clipindex>5</clipindex>
							<groupindex>1</groupindex>
						</link>
						<logginginfo>
							<description></description>
							<scene></scene>
							<shottake></shottake>
							<lognote></lognote>
						</logginginfo>
						<labels>
							<label2>Caribbean</label2>
						</labels>
					</clipitem>
					<clipitem id="clipitem-734" premiereChannelType="stereo">
						<masterclipid>masterclip-172</masterclipid>
						<name>MSTR_239_37_I_Won_t_Wait_Raisen_Shatkin_655932.wav</name>
						<enabled>TRUE</enabled>
						<duration>4045</duration>
						<rate>
							<timebase>25</timebase>
							<ntsc>FALSE</ntsc>
						</rate>
						<start>3652</start>
						<end>-1</end>
						<in>0</in>
						<out>1646</out>
						<pproTicksIn>0</pproTicksIn>
						<pproTicksOut>16724413440000</pproTicksOut>
						<file id="file-156"/>
						<sourcetrack>
							<mediatype>audio</mediatype>
							<trackindex>2</trackindex>
						</sourcetrack>
							<filter>
								<effect>
									<name>Gain</name>
									<effectid>{61756678, 4761696e, 4b657947}</effectid>
									<effecttype>filter</effecttype>
									<mediatype>audio</mediatype>
									<parameter authoringApp="PremierePro">
										<parameterid>Gain(dB)</parameterid>
										<name>Gain(dB)</name>
										<valuemin>-96</valuemin>
										<valuemax>96</valuemax>
										<value>-39</value>
									</parameter>
								</effect>
							</filter>
						<link>
							<linkclipref>clipitem-686</linkclipref>
							<mediatype>audio</mediatype>
							<trackindex>13</trackindex>
							<clipindex>8</clipindex>
							<groupindex>1</groupindex>
						</link>
						<link>
							<linkclipref>clipitem-734</linkclipref>
							<mediatype>audio</mediatype>
							<trackindex>14</trackindex>
							<clipindex>6</clipindex>
							<groupindex>1</groupindex>
						</link>
						<logginginfo>
							<description></description>
							<scene></scene>
							<shottake></shottake>
							<lognote></lognote>
						</logginginfo>
						<labels>
							<label2>Caribbean</label2>
						</labels>
					</clipitem>
					<transitionitem>
						<start>5100</start>
						<end>5298</end>
						<alignment>end-black</alignment>
						<cutPointTicks>2011806720000</cutPointTicks>
						<rate>
							<timebase>25</timebase>
							<ntsc>FALSE</ntsc>
						</rate>
						<effect>
							<name>Cross Fade (+3dB)</name>
							<effectid>KGAudioTransCrossFade3dB</effectid>
							<effecttype>transition</effecttype>
							<mediatype>audio</mediatype>
							<wipecode>0</wipecode>
							<wipeaccuracy>100</wipeaccuracy>
							<startratio>0</startratio>
							<endratio>1</endratio>
							<reverse>FALSE</reverse>
						</effect>
					</transitionitem>
					<transitionitem>
						<start>5494</start>
						<end>5500</end>
						<alignment>start-black</alignment>
						<cutPointTicks>0</cutPointTicks>
						<rate>
							<timebase>25</timebase>
							<ntsc>FALSE</ntsc>
						</rate>
						<effect>
							<name>Cross Fade (+3dB)</name>
							<effectid>KGAudioTransCrossFade3dB</effectid>
							<effecttype>transition</effecttype>
							<mediatype>audio</mediatype>
							<wipecode>0</wipecode>
							<wipeaccuracy>100</wipeaccuracy>
							<startratio>0</startratio>
							<endratio>1</endratio>
							<reverse>FALSE</reverse>
						</effect>
					</transitionitem>
					<clipitem id="clipitem-735" premiereChannelType="stereo">
						<masterclipid>masterclip-173</masterclipid>
						<name>NONRO137388CD0005 X.wav</name>
						<enabled>TRUE</enabled>
						<duration>6391</duration>
						<rate>
							<timebase>25</timebase>
							<ntsc>FALSE</ntsc>
						</rate>
						<start>-1</start>
						<end>-1</end>
						<in>556</in>
						<out>790</out>
						<pproTicksIn>5649315840000</pproTicksIn>
						<pproTicksOut>8026905600000</pproTicksOut>
						<file id="file-157"/>
						<sourcetrack>
							<mediatype>audio</mediatype>
							<trackindex>2</trackindex>
						</sourcetrack>
							<filter>
								<effect>
									<name>Gain</name>
									<effectid>{61756678, 4761696e, 4b657947}</effectid>
									<effecttype>filter</effecttype>
									<mediatype>audio</mediatype>
									<parameter authoringApp="PremierePro">
										<parameterid>Gain(dB)</parameterid>
										<name>Gain(dB)</name>
										<valuemin>-96</valuemin>
										<valuemax>96</valuemax>
										<value>-12</value>
									</parameter>
								</effect>
							</filter>
						<link>
							<linkclipref>clipitem-687</linkclipref>
							<mediatype>audio</mediatype>
							<trackindex>13</trackindex>
							<clipindex>11</clipindex>
							<groupindex>1</groupindex>
						</link>
						<link>
							<linkclipref>clipitem-735</linkclipref>
							<mediatype>audio</mediatype>
							<trackindex>14</trackindex>
							<clipindex>9</clipindex>
							<groupindex>1</groupindex>
						</link>
						<logginginfo>
							<description></description>
							<scene></scene>
							<shottake></shottake>
							<lognote>CD Track 5 archiveNo[137388021]</lognote>
						</logginginfo>
						<labels>
							<label2>Caribbean</label2>
						</labels>
					</clipitem>
					<transitionitem>
						<start>5716</start>
						<end>5728</end>
						<alignment>end-black</alignment>
						<cutPointTicks>121927680000</cutPointTicks>
						<rate>
							<timebase>25</timebase>
							<ntsc>FALSE</ntsc>
						</rate>
						<effect>
							<name>Cross Fade (+3dB)</name>
							<effectid>KGAudioTransCrossFade3dB</effectid>
							<effecttype>transition</effecttype>
							<mediatype>audio</mediatype>
							<wipecode>0</wipecode>
							<wipeaccuracy>100</wipeaccuracy>
							<startratio>0</startratio>
							<endratio>1</endratio>
							<reverse>FALSE</reverse>
						</effect>
					</transitionitem>
					<clipitem id="clipitem-736" premiereChannelType="stereo">
						<masterclipid>masterclip-173</masterclipid>
						<name>NONRO137388CD0005 X.wav</name>
						<enabled>TRUE</enabled>
						<duration>6391</duration>
						<rate>
							<timebase>25</timebase>
							<ntsc>FALSE</ntsc>
						</rate>
						<start>5817</start>
						<end>6313</end>
						<in>1630</in>
						<out>2126</out>
						<pproTicksIn>16561843200000</pproTicksIn>
						<pproTicksOut>21601520640000</pproTicksOut>
						<file id="file-157"/>
						<sourcetrack>
							<mediatype>audio</mediatype>
							<trackindex>2</trackindex>
						</sourcetrack>
							<filter>
								<effect>
									<name>Gain</name>
									<effectid>{61756678, 4761696e, 4b657947}</effectid>
									<effecttype>filter</effecttype>
									<mediatype>audio</mediatype>
									<parameter authoringApp="PremierePro">
										<parameterid>Gain(dB)</parameterid>
										<name>Gain(dB)</name>
										<valuemin>-96</valuemin>
										<valuemax>96</valuemax>
										<value>-12</value>
									</parameter>
								</effect>
							</filter>
						<link>
							<linkclipref>clipitem-688</linkclipref>
							<mediatype>audio</mediatype>
							<trackindex>13</trackindex>
							<clipindex>13</clipindex>
							<groupindex>1</groupindex>
						</link>
						<link>
							<linkclipref>clipitem-736</linkclipref>
							<mediatype>audio</mediatype>
							<trackindex>14</trackindex>
							<clipindex>11</clipindex>
							<groupindex>1</groupindex>
						</link>
						<logginginfo>
							<description></description>
							<scene></scene>
							<shottake></shottake>
							<lognote>CD Track 5 archiveNo[137388021]</lognote>
						</logginginfo>
						<labels>
							<label2>Caribbean</label2>
						</labels>
					</clipitem>
					<clipitem id="clipitem-737" premiereChannelType="stereo">
						<masterclipid>masterclip-175</masterclipid>
						<name>335177__jorgepotter__whooshes.wav</name>
						<enabled>TRUE</enabled>
						<duration>1358</duration>
						<rate>
							<timebase>25</timebase>
							<ntsc>FALSE</ntsc>
						</rate>
						<start>11057</start>
						<end>11076</end>
						<in>702</in>
						<out>721</out>
						<pproTicksIn>3566384640000</pproTicksIn>
						<pproTicksOut>3662910720000</pproTicksOut>
						<file id="file-159"/>
						<sourcetrack>
							<mediatype>audio</mediatype>
							<trackindex>2</trackindex>
						</sourcetrack>
							<filter>
								<effect>
									<name>Gain</name>
									<effectid>{61756678, 4761696e, 4b657947}</effectid>
									<effecttype>filter</effecttype>
									<mediatype>audio</mediatype>
									<parameter authoringApp="PremierePro">
										<parameterid>Gain(dB)</parameterid>
										<name>Gain(dB)</name>
										<valuemin>-96</valuemin>
										<valuemax>96</valuemax>
										<value>12</value>
									</parameter>
								</effect>
							</filter>
							<filter>
								<effect>
									<name>Time Remap</name>
									<effectid>timeremap</effectid>
									<effectcategory>motion</effectcategory>
									<effecttype>motion</effecttype>
									<mediatype>audio</mediatype>
									<parameter authoringApp="PremierePro">
										<parameterid>variablespeed</parameterid>
										<name>variablespeed</name>
										<valuemin>0</valuemin>
										<valuemax>1</valuemax>
										<value>0</value>
									</parameter>
									<parameter authoringApp="PremierePro">
										<parameterid>speed</parameterid>
										<name>speed</name>
										<valuemin>-100000</valuemin>
										<valuemax>100000</valuemax>
										<value>50</value>
									</parameter>
									<parameter authoringApp="PremierePro">
										<parameterid>reverse</parameterid>
										<name>reverse</name>
										<value>FALSE</value>
									</parameter>
									<parameter authoringApp="PremierePro">
										<parameterid>frameblending</parameterid>
										<name>frameblending</name>
										<value>FALSE</value>
									</parameter>
									<parameter authoringApp="PremierePro">
										<parameterid>graphdict</parameterid>
										<name>graphdict</name>
										<valuemin>0</valuemin>
										<valuemax>679</valuemax>
										<value>0</value>
										<keyframe>
											<when>0</when>
											<value>0</value>
											<speedvirtualkf>TRUE</speedvirtualkf>
											<speedkfstart>TRUE</speedkfstart>
										</keyframe>
										<keyframe>
											<when>702</when>
											<value>351</value>
											<speedvirtualkf>TRUE</speedvirtualkf>
											<speedkfin>TRUE</speedkfin>
										</keyframe>
										<keyframe>
											<when>721</when>
											<value>360</value>
											<speedvirtualkf>TRUE</speedvirtualkf>
											<speedkfout>TRUE</speedkfout>
										</keyframe>
										<keyframe>
											<when>1358</when>
											<value>679</value>
											<speedvirtualkf>TRUE</speedvirtualkf>
											<speedkfend>TRUE</speedkfend>
										</keyframe>
										<interpolation>
											<name>FCPCurve</name>
										</interpolation>
									</parameter>
								</effect>
							</filter>
						<link>
							<linkclipref>clipitem-691</linkclipref>
							<mediatype>audio</mediatype>
							<trackindex>13</trackindex>
							<clipindex>16</clipindex>
							<groupindex>1</groupindex>
						</link>
						<link>
							<linkclipref>clipitem-737</linkclipref>
							<mediatype>audio</mediatype>
							<trackindex>14</trackindex>
							<clipindex>12</clipindex>
							<groupindex>1</groupindex>
						</link>
						<logginginfo>
							<description></description>
							<scene></scene>
							<shottake></shottake>
							<lognote></lognote>
						</logginginfo>
						<labels>
							<label2>Caribbean</label2>
						</labels>
					</clipitem>
					<clipitem id="clipitem-738" premiereChannelType="stereo">
						<masterclipid>masterclip-175</masterclipid>
						<name>335177__jorgepotter__whooshes.wav</name>
						<enabled>TRUE</enabled>
						<duration>679</duration>
						<rate>
							<timebase>25</timebase>
							<ntsc>FALSE</ntsc>
						</rate>
						<start>11079</start>
						<end>11092</end>
						<in>160</in>
						<out>173</out>
						<pproTicksIn>1625702400000</pproTicksIn>
						<pproTicksOut>1757790720000</pproTicksOut>
						<file id="file-159"/>
						<sourcetrack>
							<mediatype>audio</mediatype>
							<trackindex>2</trackindex>
						</sourcetrack>
							<filter>
								<effect>
									<name>Gain</name>
									<effectid>{61756678, 4761696e, 4b657947}</effectid>
									<effecttype>filter</effecttype>
									<mediatype>audio</mediatype>
									<parameter authoringApp="PremierePro">
										<parameterid>Gain(dB)</parameterid>
										<name>Gain(dB)</name>
										<valuemin>-96</valuemin>
										<valuemax>96</valuemax>
										<value>18</value>
									</parameter>
								</effect>
							</filter>
						<link>
							<linkclipref>clipitem-692</linkclipref>
							<mediatype>audio</mediatype>
							<trackindex>13</trackindex>
							<clipindex>17</clipindex>
							<groupindex>1</groupindex>
						</link>
						<link>
							<linkclipref>clipitem-738</linkclipref>
							<mediatype>audio</mediatype>
							<trackindex>14</trackindex>
							<clipindex>13</clipindex>
							<groupindex>1</groupindex>
						</link>
						<logginginfo>
							<description></description>
							<scene></scene>
							<shottake></shottake>
							<lognote></lognote>
						</logginginfo>
						<labels>
							<label2>Caribbean</label2>
						</labels>
					</clipitem>
					<clipitem id="clipitem-739" premiereChannelType="stereo">
						<masterclipid>masterclip-177</masterclipid>
						<name>104183__ekokubza123__punch.wav</name>
						<enabled>TRUE</enabled>
						<duration>29</duration>
						<rate>
							<timebase>25</timebase>
							<ntsc>FALSE</ntsc>
						</rate>
						<start>11116</start>
						<end>11137</end>
						<in>8</in>
						<out>29</out>
						<pproTicksIn>81285120000</pproTicksIn>
						<pproTicksOut>294658560000</pproTicksOut>
						<file id="file-161"/>
						<sourcetrack>
							<mediatype>audio</mediatype>
							<trackindex>2</trackindex>
						</sourcetrack>
							<filter>
								<effect>
									<name>Gain</name>
									<effectid>{61756678, 4761696e, 4b657947}</effectid>
									<effecttype>filter</effecttype>
									<mediatype>audio</mediatype>
									<parameter authoringApp="PremierePro">
										<parameterid>Gain(dB)</parameterid>
										<name>Gain(dB)</name>
										<valuemin>-96</valuemin>
										<valuemax>96</valuemax>
										<value>-9</value>
									</parameter>
								</effect>
							</filter>
						<link>
							<linkclipref>clipitem-694</linkclipref>
							<mediatype>audio</mediatype>
							<trackindex>13</trackindex>
							<clipindex>19</clipindex>
							<groupindex>1</groupindex>
						</link>
						<link>
							<linkclipref>clipitem-739</linkclipref>
							<mediatype>audio</mediatype>
							<trackindex>14</trackindex>
							<clipindex>14</clipindex>
							<groupindex>1</groupindex>
						</link>
						<logginginfo>
							<description></description>
							<scene></scene>
							<shottake></shottake>
							<lognote></lognote>
						</logginginfo>
						<labels>
							<label2>Caribbean</label2>
						</labels>
					</clipitem>
					<clipitem id="clipitem-740" premiereChannelType="stereo">
						<masterclipid>masterclip-178</masterclipid>
						<name>86127__acrober__rattle-1-2.wav</name>
						<enabled>TRUE</enabled>
						<duration>110</duration>
						<rate>
							<timebase>25</timebase>
							<ntsc>FALSE</ntsc>
						</rate>
						<start>11899</start>
						<end>11933</end>
						<in>0</in>
						<out>34</out>
						<pproTicksIn>0</pproTicksIn>
						<pproTicksOut>172730880000</pproTicksOut>
						<file id="file-162"/>
						<sourcetrack>
							<mediatype>audio</mediatype>
							<trackindex>2</trackindex>
						</sourcetrack>
							<filter>
								<effect>
									<name>Gain</name>
									<effectid>{61756678, 4761696e, 4b657947}</effectid>
									<effecttype>filter</effecttype>
									<mediatype>audio</mediatype>
									<parameter authoringApp="PremierePro">
										<parameterid>Gain(dB)</parameterid>
										<name>Gain(dB)</name>
										<valuemin>-96</valuemin>
										<valuemax>96</valuemax>
										<value>-6</value>
									</parameter>
								</effect>
							</filter>
							<filter>
								<effect>
									<name>Time Remap</name>
									<effectid>timeremap</effectid>
									<effectcategory>motion</effectcategory>
									<effecttype>motion</effecttype>
									<mediatype>audio</mediatype>
									<parameter authoringApp="PremierePro">
										<parameterid>variablespeed</parameterid>
										<name>variablespeed</name>
										<valuemin>0</valuemin>
										<valuemax>1</valuemax>
										<value>0</value>
									</parameter>
									<parameter authoringApp="PremierePro">
										<parameterid>speed</parameterid>
										<name>speed</name>
										<valuemin>-100000</valuemin>
										<valuemax>100000</valuemax>
										<value>50</value>
									</parameter>
									<parameter authoringApp="PremierePro">
										<parameterid>reverse</parameterid>
										<name>reverse</name>
										<value>FALSE</value>
									</parameter>
									<parameter authoringApp="PremierePro">
										<parameterid>frameblending</parameterid>
										<name>frameblending</name>
										<value>FALSE</value>
									</parameter>
									<parameter authoringApp="PremierePro">
										<parameterid>graphdict</parameterid>
										<name>graphdict</name>
										<valuemin>0</valuemin>
										<valuemax>55</valuemax>
										<value>0</value>
										<keyframe>
											<when>0</when>
											<value>0</value>
											<speedvirtualkf>TRUE</speedvirtualkf>
											<speedkfin>TRUE</speedkfin>
										</keyframe>
										<keyframe>
											<when>34</when>
											<value>17</value>
											<speedvirtualkf>TRUE</speedvirtualkf>
											<speedkfout>TRUE</speedkfout>
										</keyframe>
										<keyframe>
											<when>110</when>
											<value>55</value>
											<speedvirtualkf>TRUE</speedvirtualkf>
											<speedkfend>TRUE</speedkfend>
										</keyframe>
										<interpolation>
											<name>FCPCurve</name>
										</interpolation>
									</parameter>
								</effect>
							</filter>
						<link>
							<linkclipref>clipitem-695</linkclipref>
							<mediatype>audio</mediatype>
							<trackindex>13</trackindex>
							<clipindex>20</clipindex>
							<groupindex>1</groupindex>
						</link>
						<link>
							<linkclipref>clipitem-740</linkclipref>
							<mediatype>audio</mediatype>
							<trackindex>14</trackindex>
							<clipindex>15</clipindex>
							<groupindex>1</groupindex>
						</link>
						<logginginfo>
							<description></description>
							<scene></scene>
							<shottake></shottake>
							<lognote></lognote>
						</logginginfo>
						<labels>
							<label2>Caribbean</label2>
						</labels>
					</clipitem>
					<clipitem id="clipitem-741" premiereChannelType="stereo">
						<masterclipid>masterclip-179</masterclipid>
						<name>187541__qubodup__noisy-whooshes.wav</name>
						<enabled>TRUE</enabled>
						<duration>50</duration>
						<rate>
							<timebase>25</timebase>
							<ntsc>FALSE</ntsc>
						</rate>
						<start>12360</start>
						<end>12389</end>
						<in>21</in>
						<out>50</out>
						<pproTicksIn>213373440000</pproTicksIn>
						<pproTicksOut>508032000000</pproTicksOut>
						<file id="file-163"/>
						<sourcetrack>
							<mediatype>audio</mediatype>
							<trackindex>2</trackindex>
						</sourcetrack>
							<filter>
								<effect>
									<name>Gain</name>
									<effectid>{61756678, 4761696e, 4b657947}</effectid>
									<effecttype>filter</effecttype>
									<mediatype>audio</mediatype>
									<parameter authoringApp="PremierePro">
										<parameterid>Gain(dB)</parameterid>
										<name>Gain(dB)</name>
										<valuemin>-96</valuemin>
										<valuemax>96</valuemax>
										<value>-18</value>
									</parameter>
								</effect>
							</filter>
						<link>
							<linkclipref>clipitem-696</linkclipref>
							<mediatype>audio</mediatype>
							<trackindex>13</trackindex>
							<clipindex>21</clipindex>
							<groupindex>1</groupindex>
						</link>
						<link>
							<linkclipref>clipitem-741</linkclipref>
							<mediatype>audio</mediatype>
							<trackindex>14</trackindex>
							<clipindex>16</clipindex>
							<groupindex>1</groupindex>
						</link>
						<logginginfo>
							<description></description>
							<scene></scene>
							<shottake></shottake>
							<lognote></lognote>
						</logginginfo>
						<labels>
							<label2>Caribbean</label2>
						</labels>
					</clipitem>
					<clipitem id="clipitem-742" premiereChannelType="stereo">
						<masterclipid>masterclip-180</masterclipid>
						<name>149898__animationisaac__hard-punch.wav</name>
						<enabled>TRUE</enabled>
						<duration>40</duration>
						<rate>
							<timebase>25</timebase>
							<ntsc>FALSE</ntsc>
						</rate>
						<start>12406</start>
						<end>12444</end>
						<in>2</in>
						<out>40</out>
						<pproTicksIn>20321280000</pproTicksIn>
						<pproTicksOut>406425600000</pproTicksOut>
						<file id="file-164"/>
						<sourcetrack>
							<mediatype>audio</mediatype>
							<trackindex>2</trackindex>
						</sourcetrack>
							<filter>
								<effect>
									<name>Gain</name>
									<effectid>{61756678, 4761696e, 4b657947}</effectid>
									<effecttype>filter</effecttype>
									<mediatype>audio</mediatype>
									<parameter authoringApp="PremierePro">
										<parameterid>Gain(dB)</parameterid>
										<name>Gain(dB)</name>
										<valuemin>-96</valuemin>
										<valuemax>96</valuemax>
										<value>-9</value>
									</parameter>
								</effect>
							</filter>
						<link>
							<linkclipref>clipitem-698</linkclipref>
							<mediatype>audio</mediatype>
							<trackindex>13</trackindex>
							<clipindex>23</clipindex>
							<groupindex>1</groupindex>
						</link>
						<link>
							<linkclipref>clipitem-742</linkclipref>
							<mediatype>audio</mediatype>
							<trackindex>14</trackindex>
							<clipindex>17</clipindex>
							<groupindex>1</groupindex>
						</link>
						<logginginfo>
							<description></description>
							<scene></scene>
							<shottake></shottake>
							<lognote></lognote>
						</logginginfo>
						<labels>
							<label2>Caribbean</label2>
						</labels>
					</clipitem>
					<clipitem id="clipitem-743" premiereChannelType="stereo">
						<masterclipid>masterclip-181</masterclipid>
						<name>STFTA_1_175_Don_t_Take_Me_Down_Hart_Williams_762667.wav</name>
						<enabled>TRUE</enabled>
						<duration>2919</duration>
						<rate>
							<timebase>25</timebase>
							<ntsc>FALSE</ntsc>
						</rate>
						<start>14003</start>
						<end>-1</end>
						<in>0</in>
						<out>1184</out>
						<pproTicksIn>0</pproTicksIn>
						<pproTicksOut>12030197760000</pproTicksOut>
						<file id="file-165"/>
						<sourcetrack>
							<mediatype>audio</mediatype>
							<trackindex>2</trackindex>
						</sourcetrack>
							<filter>
								<effect>
									<name>Gain</name>
									<effectid>{61756678, 4761696e, 4b657947}</effectid>
									<effecttype>filter</effecttype>
									<mediatype>audio</mediatype>
									<parameter authoringApp="PremierePro">
										<parameterid>Gain(dB)</parameterid>
										<name>Gain(dB)</name>
										<valuemin>-96</valuemin>
										<valuemax>96</valuemax>
										<value>-25</value>
									</parameter>
								</effect>
							</filter>
						<link>
							<linkclipref>clipitem-699</linkclipref>
							<mediatype>audio</mediatype>
							<trackindex>13</trackindex>
							<clipindex>24</clipindex>
							<groupindex>1</groupindex>
						</link>
						<link>
							<linkclipref>clipitem-743</linkclipref>
							<mediatype>audio</mediatype>
							<trackindex>14</trackindex>
							<clipindex>18</clipindex>
							<groupindex>1</groupindex>
						</link>
						<logginginfo>
							<description></description>
							<scene></scene>
							<shottake></shottake>
							<lognote></lognote>
						</logginginfo>
						<labels>
							<label2>Rose</label2>
						</labels>
					</clipitem>
					<transitionitem>
						<start>15047</start>
						<end>15187</end>
						<alignment>end-black</alignment>
						<cutPointTicks>1422489600000</cutPointTicks>
						<rate>
							<timebase>25</timebase>
							<ntsc>FALSE</ntsc>
						</rate>
						<effect>
							<name>Cross Fade (+3dB)</name>
							<effectid>KGAudioTransCrossFade3dB</effectid>
							<effecttype>transition</effecttype>
							<mediatype>audio</mediatype>
							<wipecode>0</wipecode>
							<wipeaccuracy>100</wipeaccuracy>
							<startratio>0</startratio>
							<endratio>1</endratio>
							<reverse>FALSE</reverse>
						</effect>
					</transitionitem>
					<clipitem id="clipitem-744" premiereChannelType="stereo">
						<masterclipid>masterclip-142</masterclipid>
						<name>128969__driftworks__bowling-ball.wav</name>
						<enabled>TRUE</enabled>
						<duration>110</duration>
						<rate>
							<timebase>25</timebase>
							<ntsc>FALSE</ntsc>
						</rate>
						<start>16390</start>
						<end>16420</end>
						<in>0</in>
						<out>30</out>
						<pproTicksIn>0</pproTicksIn>
						<pproTicksOut>304819200000</pproTicksOut>
						<file id="file-128"/>
						<sourcetrack>
							<mediatype>audio</mediatype>
							<trackindex>2</trackindex>
						</sourcetrack>
							<filter>
								<effect>
									<name>Gain</name>
									<effectid>{61756678, 4761696e, 4b657947}</effectid>
									<effecttype>filter</effecttype>
									<mediatype>audio</mediatype>
									<parameter authoringApp="PremierePro">
										<parameterid>Gain(dB)</parameterid>
										<name>Gain(dB)</name>
										<valuemin>-96</valuemin>
										<valuemax>96</valuemax>
										<value>-8</value>
									</parameter>
								</effect>
							</filter>
						<link>
							<linkclipref>clipitem-700</linkclipref>
							<mediatype>audio</mediatype>
							<trackindex>13</trackindex>
							<clipindex>26</clipindex>
							<groupindex>1</groupindex>
						</link>
						<link>
							<linkclipref>clipitem-744</linkclipref>
							<mediatype>audio</mediatype>
							<trackindex>14</trackindex>
							<clipindex>20</clipindex>
							<groupindex>1</groupindex>
						</link>
						<logginginfo>
							<description></description>
							<scene></scene>
							<shottake></shottake>
							<lognote></lognote>
						</logginginfo>
						<labels>
							<label2>Rose</label2>
						</labels>
					</clipitem>
					<clipitem id="clipitem-745" premiereChannelType="stereo">
						<masterclipid>masterclip-182</masterclipid>
						<name>NONRE633380HD0008 Uphony (Instrumental).wav</name>
						<enabled>TRUE</enabled>
						<duration>4432</duration>
						<rate>
							<timebase>25</timebase>
							<ntsc>FALSE</ntsc>
						</rate>
						<start>16767</start>
						<end>-1</end>
						<in>0</in>
						<out>2138</out>
						<pproTicksIn>0</pproTicksIn>
						<pproTicksOut>21723448320000</pproTicksOut>
						<file id="file-166"/>
						<sourcetrack>
							<mediatype>audio</mediatype>
							<trackindex>2</trackindex>
						</sourcetrack>
							<filter>
								<effect>
									<name>Gain</name>
									<effectid>{61756678, 4761696e, 4b657947}</effectid>
									<effecttype>filter</effecttype>
									<mediatype>audio</mediatype>
									<parameter authoringApp="PremierePro">
										<parameterid>Gain(dB)</parameterid>
										<name>Gain(dB)</name>
										<valuemin>-96</valuemin>
										<valuemax>96</valuemax>
										<value>-30</value>
									</parameter>
								</effect>
							</filter>
						<link>
							<linkclipref>clipitem-701</linkclipref>
							<mediatype>audio</mediatype>
							<trackindex>13</trackindex>
							<clipindex>27</clipindex>
							<groupindex>1</groupindex>
						</link>
						<link>
							<linkclipref>clipitem-745</linkclipref>
							<mediatype>audio</mediatype>
							<trackindex>14</trackindex>
							<clipindex>21</clipindex>
							<groupindex>1</groupindex>
						</link>
						<logginginfo>
							<description></description>
							<scene></scene>
							<shottake></shottake>
							<lognote></lognote>
						</logginginfo>
						<labels>
							<label2>Violet</label2>
						</labels>
					</clipitem>
					<transitionitem>
						<start>18635</start>
						<end>18905</end>
						<alignment>end-black</alignment>
						<cutPointTicks>2743372800000</cutPointTicks>
						<rate>
							<timebase>25</timebase>
							<ntsc>FALSE</ntsc>
						</rate>
						<effect>
							<name>Cross Fade (+3dB)</name>
							<effectid>KGAudioTransCrossFade3dB</effectid>
							<effecttype>transition</effecttype>
							<mediatype>audio</mediatype>
							<wipecode>0</wipecode>
							<wipeaccuracy>100</wipeaccuracy>
							<startratio>0</startratio>
							<endratio>1</endratio>
							<reverse>FALSE</reverse>
						</effect>
					</transitionitem>
					<clipitem id="clipitem-746" premiereChannelType="stereo">
						<masterclipid>masterclip-156</masterclipid>
						<name>STTV000723.wav</name>
						<enabled>TRUE</enabled>
						<duration>1627</duration>
						<rate>
							<timebase>25</timebase>
							<ntsc>FALSE</ntsc>
						</rate>
						<start>19162</start>
						<end>19274</end>
						<in>1442</in>
						<out>1554</out>
						<pproTicksIn>14651642880000</pproTicksIn>
						<pproTicksOut>15789634560000</pproTicksOut>
						<file id="file-140"/>
						<sourcetrack>
							<mediatype>audio</mediatype>
							<trackindex>2</trackindex>
						</sourcetrack>
							<filter>
								<effect>
									<name>Gain</name>
									<effectid>{61756678, 4761696e, 4b657947}</effectid>
									<effecttype>filter</effecttype>
									<mediatype>audio</mediatype>
									<parameter authoringApp="PremierePro">
										<parameterid>Gain(dB)</parameterid>
										<name>Gain(dB)</name>
										<valuemin>-96</valuemin>
										<valuemax>96</valuemax>
										<value>-12</value>
									</parameter>
								</effect>
							</filter>
						<link>
							<linkclipref>clipitem-702</linkclipref>
							<mediatype>audio</mediatype>
							<trackindex>13</trackindex>
							<clipindex>29</clipindex>
							<groupindex>1</groupindex>
						</link>
						<link>
							<linkclipref>clipitem-746</linkclipref>
							<mediatype>audio</mediatype>
							<trackindex>14</trackindex>
							<clipindex>23</clipindex>
							<groupindex>1</groupindex>
						</link>
						<logginginfo>
							<description></description>
							<scene></scene>
							<shottake></shottake>
							<lognote></lognote>
						</logginginfo>
						<labels>
							<label2>Caribbean</label2>
						</labels>
					</clipitem>
					<clipitem id="clipitem-747" premiereChannelType="stereo">
						<masterclipid>masterclip-156</masterclipid>
						<name>STTV000723.wav</name>
						<enabled>TRUE</enabled>
						<duration>1627</duration>
						<rate>
							<timebase>25</timebase>
							<ntsc>FALSE</ntsc>
						</rate>
						<start>19595</start>
						<end>19712</end>
						<in>1442</in>
						<out>1559</out>
						<pproTicksIn>14651642880000</pproTicksIn>
						<pproTicksOut>15840437760000</pproTicksOut>
						<file id="file-140"/>
						<sourcetrack>
							<mediatype>audio</mediatype>
							<trackindex>2</trackindex>
						</sourcetrack>
							<filter>
								<effect>
									<name>Gain</name>
									<effectid>{61756678, 4761696e, 4b657947}</effectid>
									<effecttype>filter</effecttype>
									<mediatype>audio</mediatype>
									<parameter authoringApp="PremierePro">
										<parameterid>Gain(dB)</parameterid>
										<name>Gain(dB)</name>
										<valuemin>-96</valuemin>
										<valuemax>96</valuemax>
										<value>-12</value>
									</parameter>
								</effect>
							</filter>
						<link>
							<linkclipref>clipitem-703</linkclipref>
							<mediatype>audio</mediatype>
							<trackindex>13</trackindex>
							<clipindex>30</clipindex>
							<groupindex>1</groupindex>
						</link>
						<link>
							<linkclipref>clipitem-747</linkclipref>
							<mediatype>audio</mediatype>
							<trackindex>14</trackindex>
							<clipindex>24</clipindex>
							<groupindex>1</groupindex>
						</link>
						<logginginfo>
							<description></description>
							<scene></scene>
							<shottake></shottake>
							<lognote></lognote>
						</logginginfo>
						<labels>
							<label2>Caribbean</label2>
						</labels>
					</clipitem>
					<clipitem id="clipitem-748" premiereChannelType="stereo">
						<masterclipid>masterclip-170</masterclipid>
						<name>30246__streety__sword4.wav</name>
						<enabled>TRUE</enabled>
						<duration>17</duration>
						<rate>
							<timebase>25</timebase>
							<ntsc>FALSE</ntsc>
						</rate>
						<start>19964</start>
						<end>19979</end>
						<in>0</in>
						<out>15</out>
						<pproTicksIn>0</pproTicksIn>
						<pproTicksOut>152409600000</pproTicksOut>
						<file id="file-154"/>
						<sourcetrack>
							<mediatype>audio</mediatype>
							<trackindex>2</trackindex>
						</sourcetrack>
						<link>
							<linkclipref>clipitem-704</linkclipref>
							<mediatype>audio</mediatype>
							<trackindex>13</trackindex>
							<clipindex>31</clipindex>
							<groupindex>1</groupindex>
						</link>
						<link>
							<linkclipref>clipitem-748</linkclipref>
							<mediatype>audio</mediatype>
							<trackindex>14</trackindex>
							<clipindex>25</clipindex>
							<groupindex>1</groupindex>
						</link>
						<logginginfo>
							<description></description>
							<scene></scene>
							<shottake></shottake>
							<lognote></lognote>
						</logginginfo>
						<comments>
						</comments>
						<labels>
							<label2>Caribbean</label2>
						</labels>
					</clipitem>
					<clipitem id="clipitem-749" premiereChannelType="stereo">
						<masterclipid>masterclip-170</masterclipid>
						<name>30246__streety__sword4.wav</name>
						<enabled>TRUE</enabled>
						<duration>34</duration>
						<rate>
							<timebase>25</timebase>
							<ntsc>FALSE</ntsc>
						</rate>
						<start>20208</start>
						<end>20238</end>
						<in>0</in>
						<out>30</out>
						<pproTicksIn>0</pproTicksIn>
						<pproTicksOut>152409600000</pproTicksOut>
						<file id="file-154"/>
						<sourcetrack>
							<mediatype>audio</mediatype>
							<trackindex>2</trackindex>
						</sourcetrack>
							<filter>
								<effect>
									<name>Time Remap</name>
									<effectid>timeremap</effectid>
									<effectcategory>motion</effectcategory>
									<effecttype>motion</effecttype>
									<mediatype>audio</mediatype>
									<parameter authoringApp="PremierePro">
										<parameterid>variablespeed</parameterid>
										<name>variablespeed</name>
										<valuemin>0</valuemin>
										<valuemax>1</valuemax>
										<value>0</value>
									</parameter>
									<parameter authoringApp="PremierePro">
										<parameterid>speed</parameterid>
										<name>speed</name>
										<valuemin>-100000</valuemin>
										<valuemax>100000</valuemax>
										<value>50</value>
									</parameter>
									<parameter authoringApp="PremierePro">
										<parameterid>reverse</parameterid>
										<name>reverse</name>
										<value>FALSE</value>
									</parameter>
									<parameter authoringApp="PremierePro">
										<parameterid>frameblending</parameterid>
										<name>frameblending</name>
										<value>FALSE</value>
									</parameter>
									<parameter authoringApp="PremierePro">
										<parameterid>graphdict</parameterid>
										<name>graphdict</name>
										<valuemin>0</valuemin>
										<valuemax>17</valuemax>
										<value>0</value>
										<keyframe>
											<when>0</when>
											<value>0</value>
											<speedvirtualkf>TRUE</speedvirtualkf>
											<speedkfin>TRUE</speedkfin>
										</keyframe>
										<keyframe>
											<when>30</when>
											<value>15</value>
											<speedvirtualkf>TRUE</speedvirtualkf>
											<speedkfout>TRUE</speedkfout>
										</keyframe>
										<keyframe>
											<when>34</when>
											<value>17</value>
											<speedvirtualkf>TRUE</speedvirtualkf>
											<speedkfend>TRUE</speedkfend>
										</keyframe>
										<interpolation>
											<name>FCPCurve</name>
										</interpolation>
									</parameter>
								</effect>
							</filter>
						<link>
							<linkclipref>clipitem-705</linkclipref>
							<mediatype>audio</mediatype>
							<trackindex>13</trackindex>
							<clipindex>32</clipindex>
							<groupindex>1</groupindex>
						</link>
						<link>
							<linkclipref>clipitem-749</linkclipref>
							<mediatype>audio</mediatype>
							<trackindex>14</trackindex>
							<clipindex>26</clipindex>
							<groupindex>1</groupindex>
						</link>
						<logginginfo>
							<description></description>
							<scene></scene>
							<shottake></shottake>
							<lognote></lognote>
						</logginginfo>
						<comments>
						</comments>
						<labels>
							<label2>Caribbean</label2>
						</labels>
					</clipitem>
					<clipitem id="clipitem-750" premiereChannelType="stereo">
						<masterclipid>masterclip-183</masterclipid>
						<name>169867__halgrimm__swoosh.wav</name>
						<enabled>TRUE</enabled>
						<duration>57</duration>
						<rate>
							<timebase>25</timebase>
							<ntsc>FALSE</ntsc>
						</rate>
						<start>20295</start>
						<end>20350</end>
						<in>3</in>
						<out>58</out>
						<pproTicksIn>30481920000</pproTicksIn>
						<pproTicksOut>589317120000</pproTicksOut>
						<file id="file-167"/>
						<sourcetrack>
							<mediatype>audio</mediatype>
							<trackindex>2</trackindex>
						</sourcetrack>
							<filter>
								<effect>
									<name>Gain</name>
									<effectid>{61756678, 4761696e, 4b657947}</effectid>
									<effecttype>filter</effecttype>
									<mediatype>audio</mediatype>
									<parameter authoringApp="PremierePro">
										<parameterid>Gain(dB)</parameterid>
										<name>Gain(dB)</name>
										<valuemin>-96</valuemin>
										<valuemax>96</valuemax>
										<value>-18</value>
									</parameter>
								</effect>
							</filter>
						<link>
							<linkclipref>clipitem-706</linkclipref>
							<mediatype>audio</mediatype>
							<trackindex>13</trackindex>
							<clipindex>33</clipindex>
							<groupindex>1</groupindex>
						</link>
						<link>
							<linkclipref>clipitem-750</linkclipref>
							<mediatype>audio</mediatype>
							<trackindex>14</trackindex>
							<clipindex>27</clipindex>
							<groupindex>1</groupindex>
						</link>
						<logginginfo>
							<description></description>
							<scene></scene>
							<shottake></shottake>
							<lognote></lognote>
						</logginginfo>
						<labels>
							<label2>Caribbean</label2>
						</labels>
					</clipitem>
					<clipitem id="clipitem-751" premiereChannelType="stereo">
						<masterclipid>masterclip-184</masterclipid>
						<name>175951__freefire66__swordbattle2.wav</name>
						<enabled>TRUE</enabled>
						<duration>2200</duration>
						<rate>
							<timebase>25</timebase>
							<ntsc>FALSE</ntsc>
						</rate>
						<start>20646</start>
						<end>20657</end>
						<in>1064</in>
						<out>1075</out>
						<pproTicksIn>10810920960000</pproTicksIn>
						<pproTicksOut>10922688000000</pproTicksOut>
						<file id="file-168"/>
						<sourcetrack>
							<mediatype>audio</mediatype>
							<trackindex>2</trackindex>
						</sourcetrack>
						<link>
							<linkclipref>clipitem-707</linkclipref>
							<mediatype>audio</mediatype>
							<trackindex>13</trackindex>
							<clipindex>34</clipindex>
							<groupindex>1</groupindex>
						</link>
						<link>
							<linkclipref>clipitem-751</linkclipref>
							<mediatype>audio</mediatype>
							<trackindex>14</trackindex>
							<clipindex>28</clipindex>
							<groupindex>1</groupindex>
						</link>
						<logginginfo>
							<description></description>
							<scene></scene>
							<shottake></shottake>
							<lognote>Made with Sony ACID Music Studio 7.0</lognote>
						</logginginfo>
						<labels>
							<label2>Caribbean</label2>
						</labels>
					</clipitem>
					<clipitem id="clipitem-752" premiereChannelType="stereo">
						<masterclipid>masterclip-184</masterclipid>
						<name>175951__freefire66__swordbattle2.wav</name>
						<enabled>TRUE</enabled>
						<duration>2200</duration>
						<rate>
							<timebase>25</timebase>
							<ntsc>FALSE</ntsc>
						</rate>
						<start>20657</start>
						<end>20686</end>
						<in>1085</in>
						<out>1114</out>
						<pproTicksIn>11024294400000</pproTicksIn>
						<pproTicksOut>11318952960000</pproTicksOut>
						<file id="file-168"/>
						<sourcetrack>
							<mediatype>audio</mediatype>
							<trackindex>2</trackindex>
						</sourcetrack>
						<link>
							<linkclipref>clipitem-708</linkclipref>
							<mediatype>audio</mediatype>
							<trackindex>13</trackindex>
							<clipindex>35</clipindex>
							<groupindex>1</groupindex>
						</link>
						<link>
							<linkclipref>clipitem-752</linkclipref>
							<mediatype>audio</mediatype>
							<trackindex>14</trackindex>
							<clipindex>29</clipindex>
							<groupindex>1</groupindex>
						</link>
						<logginginfo>
							<description></description>
							<scene></scene>
							<shottake></shottake>
							<lognote>Made with Sony ACID Music Studio 7.0</lognote>
						</logginginfo>
						<labels>
							<label2>Caribbean</label2>
						</labels>
					</clipitem>
					<clipitem id="clipitem-753" premiereChannelType="stereo">
						<masterclipid>masterclip-184</masterclipid>
						<name>175951__freefire66__swordbattle2.wav</name>
						<enabled>TRUE</enabled>
						<duration>2200</duration>
						<rate>
							<timebase>25</timebase>
							<ntsc>FALSE</ntsc>
						</rate>
						<start>20686</start>
						<end>20696</end>
						<in>1120</in>
						<out>1130</out>
						<pproTicksIn>11379916800000</pproTicksIn>
						<pproTicksOut>11481523200000</pproTicksOut>
						<file id="file-168"/>
						<sourcetrack>
							<mediatype>audio</mediatype>
							<trackindex>2</trackindex>
						</sourcetrack>
						<link>
							<linkclipref>clipitem-709</linkclipref>
							<mediatype>audio</mediatype>
							<trackindex>13</trackindex>
							<clipindex>36</clipindex>
							<groupindex>1</groupindex>
						</link>
						<link>
							<linkclipref>clipitem-753</linkclipref>
							<mediatype>audio</mediatype>
							<trackindex>14</trackindex>
							<clipindex>30</clipindex>
							<groupindex>1</groupindex>
						</link>
						<logginginfo>
							<description></description>
							<scene></scene>
							<shottake></shottake>
							<lognote>Made with Sony ACID Music Studio 7.0</lognote>
						</logginginfo>
						<labels>
							<label2>Caribbean</label2>
						</labels>
					</clipitem>
					<clipitem id="clipitem-754" premiereChannelType="stereo">
						<masterclipid>masterclip-184</masterclipid>
						<name>175951__freefire66__swordbattle2.wav</name>
						<enabled>TRUE</enabled>
						<duration>2200</duration>
						<rate>
							<timebase>25</timebase>
							<ntsc>FALSE</ntsc>
						</rate>
						<start>20717</start>
						<end>20728</end>
						<in>1951</in>
						<out>1962</out>
						<pproTicksIn>19823408640000</pproTicksIn>
						<pproTicksOut>19935175680000</pproTicksOut>
						<file id="file-168"/>
						<sourcetrack>
							<mediatype>audio</mediatype>
							<trackindex>2</trackindex>
						</sourcetrack>
						<link>
							<linkclipref>clipitem-711</linkclipref>
							<mediatype>audio</mediatype>
							<trackindex>13</trackindex>
							<clipindex>38</clipindex>
							<groupindex>1</groupindex>
						</link>
						<link>
							<linkclipref>clipitem-754</linkclipref>
							<mediatype>audio</mediatype>
							<trackindex>14</trackindex>
							<clipindex>31</clipindex>
							<groupindex>1</groupindex>
						</link>
						<logginginfo>
							<description></description>
							<scene></scene>
							<shottake></shottake>
							<lognote>Made with Sony ACID Music Studio 7.0</lognote>
						</logginginfo>
						<labels>
							<label2>Caribbean</label2>
						</labels>
					</clipitem>
					<clipitem id="clipitem-755" premiereChannelType="stereo">
						<masterclipid>masterclip-184</masterclipid>
						<name>175951__freefire66__swordbattle2.wav</name>
						<enabled>TRUE</enabled>
						<duration>2200</duration>
						<rate>
							<timebase>25</timebase>
							<ntsc>FALSE</ntsc>
						</rate>
						<start>20728</start>
						<end>20746</end>
						<in>1965</in>
						<out>1983</out>
						<pproTicksIn>19965657600000</pproTicksIn>
						<pproTicksOut>20148549120000</pproTicksOut>
						<file id="file-168"/>
						<sourcetrack>
							<mediatype>audio</mediatype>
							<trackindex>2</trackindex>
						</sourcetrack>
						<link>
							<linkclipref>clipitem-712</linkclipref>
							<mediatype>audio</mediatype>
							<trackindex>13</trackindex>
							<clipindex>39</clipindex>
							<groupindex>1</groupindex>
						</link>
						<link>
							<linkclipref>clipitem-755</linkclipref>
							<mediatype>audio</mediatype>
							<trackindex>14</trackindex>
							<clipindex>32</clipindex>
							<groupindex>1</groupindex>
						</link>
						<logginginfo>
							<description></description>
							<scene></scene>
							<shottake></shottake>
							<lognote>Made with Sony ACID Music Studio 7.0</lognote>
						</logginginfo>
						<labels>
							<label2>Caribbean</label2>
						</labels>
					</clipitem>
					<clipitem id="clipitem-756" premiereChannelType="stereo">
						<masterclipid>masterclip-184</masterclipid>
						<name>175951__freefire66__swordbattle2.wav</name>
						<enabled>TRUE</enabled>
						<duration>2200</duration>
						<rate>
							<timebase>25</timebase>
							<ntsc>FALSE</ntsc>
						</rate>
						<start>20749</start>
						<end>20760</end>
						<in>1983</in>
						<out>1994</out>
						<pproTicksIn>20148549120000</pproTicksIn>
						<pproTicksOut>20260316160000</pproTicksOut>
						<file id="file-168"/>
						<sourcetrack>
							<mediatype>audio</mediatype>
							<trackindex>2</trackindex>
						</sourcetrack>
						<link>
							<linkclipref>clipitem-713</linkclipref>
							<mediatype>audio</mediatype>
							<trackindex>13</trackindex>
							<clipindex>40</clipindex>
							<groupindex>1</groupindex>
						</link>
						<link>
							<linkclipref>clipitem-756</linkclipref>
							<mediatype>audio</mediatype>
							<trackindex>14</trackindex>
							<clipindex>33</clipindex>
							<groupindex>1</groupindex>
						</link>
						<logginginfo>
							<description></description>
							<scene></scene>
							<shottake></shottake>
							<lognote>Made with Sony ACID Music Studio 7.0</lognote>
						</logginginfo>
						<labels>
							<label2>Caribbean</label2>
						</labels>
					</clipitem>
					<clipitem id="clipitem-757" premiereChannelType="stereo">
						<masterclipid>masterclip-184</masterclipid>
						<name>175951__freefire66__swordbattle2.wav</name>
						<enabled>TRUE</enabled>
						<duration>2200</duration>
						<rate>
							<timebase>25</timebase>
							<ntsc>FALSE</ntsc>
						</rate>
						<start>20831</start>
						<end>20873</end>
						<in>1662</in>
						<out>1704</out>
						<pproTicksIn>16886983680000</pproTicksIn>
						<pproTicksOut>17313730560000</pproTicksOut>
						<file id="file-168"/>
						<sourcetrack>
							<mediatype>audio</mediatype>
							<trackindex>2</trackindex>
						</sourcetrack>
						<link>
							<linkclipref>clipitem-715</linkclipref>
							<mediatype>audio</mediatype>
							<trackindex>13</trackindex>
							<clipindex>42</clipindex>
							<groupindex>1</groupindex>
						</link>
						<link>
							<linkclipref>clipitem-757</linkclipref>
							<mediatype>audio</mediatype>
							<trackindex>14</trackindex>
							<clipindex>34</clipindex>
							<groupindex>1</groupindex>
						</link>
						<logginginfo>
							<description></description>
							<scene></scene>
							<shottake></shottake>
							<lognote>Made with Sony ACID Music Studio 7.0</lognote>
						</logginginfo>
						<labels>
							<label2>Caribbean</label2>
						</labels>
					</clipitem>
					<clipitem id="clipitem-758" premiereChannelType="stereo">
						<masterclipid>masterclip-184</masterclipid>
						<name>175951__freefire66__swordbattle2.wav</name>
						<enabled>TRUE</enabled>
						<duration>2200</duration>
						<rate>
							<timebase>25</timebase>
							<ntsc>FALSE</ntsc>
						</rate>
						<start>20873</start>
						<end>20884</end>
						<in>1768</in>
						<out>1779</out>
						<pproTicksIn>17964011520000</pproTicksIn>
						<pproTicksOut>18075778560000</pproTicksOut>
						<file id="file-168"/>
						<sourcetrack>
							<mediatype>audio</mediatype>
							<trackindex>2</trackindex>
						</sourcetrack>
						<link>
							<linkclipref>clipitem-716</linkclipref>
							<mediatype>audio</mediatype>
							<trackindex>13</trackindex>
							<clipindex>43</clipindex>
							<groupindex>1</groupindex>
						</link>
						<link>
							<linkclipref>clipitem-758</linkclipref>
							<mediatype>audio</mediatype>
							<trackindex>14</trackindex>
							<clipindex>35</clipindex>
							<groupindex>1</groupindex>
						</link>
						<logginginfo>
							<description></description>
							<scene></scene>
							<shottake></shottake>
							<lognote>Made with Sony ACID Music Studio 7.0</lognote>
						</logginginfo>
						<labels>
							<label2>Caribbean</label2>
						</labels>
					</clipitem>
					<clipitem id="clipitem-759" premiereChannelType="stereo">
						<masterclipid>masterclip-186</masterclipid>
						<name>175957__freefire66__swordraw.wav</name>
						<enabled>TRUE</enabled>
						<duration>27</duration>
						<rate>
							<timebase>25</timebase>
							<ntsc>FALSE</ntsc>
						</rate>
						<start>20884</start>
						<end>20907</end>
						<in>0</in>
						<out>23</out>
						<pproTicksIn>0</pproTicksIn>
						<pproTicksOut>233694720000</pproTicksOut>
						<file id="file-170"/>
						<sourcetrack>
							<mediatype>audio</mediatype>
							<trackindex>2</trackindex>
						</sourcetrack>
						<link>
							<linkclipref>clipitem-717</linkclipref>
							<mediatype>audio</mediatype>
							<trackindex>13</trackindex>
							<clipindex>44</clipindex>
							<groupindex>1</groupindex>
						</link>
						<link>
							<linkclipref>clipitem-759</linkclipref>
							<mediatype>audio</mediatype>
							<trackindex>14</trackindex>
							<clipindex>36</clipindex>
							<groupindex>1</groupindex>
						</link>
						<logginginfo>
							<description></description>
							<scene></scene>
							<shottake></shottake>
							<lognote></lognote>
						</logginginfo>
						<labels>
							<label2>Caribbean</label2>
						</labels>
					</clipitem>
					<clipitem id="clipitem-760" premiereChannelType="stereo">
						<masterclipid>masterclip-187</masterclipid>
						<name>NONRO157835CD0006 Shame on a Nigga.wav</name>
						<enabled>TRUE</enabled>
						<duration>4350</duration>
						<rate>
							<timebase>25</timebase>
							<ntsc>FALSE</ntsc>
						</rate>
						<start>21365</start>
						<end>-1</end>
						<in>98</in>
						<out>203</out>
						<pproTicksIn>995742720000</pproTicksIn>
						<pproTicksOut>2062609920000</pproTicksOut>
						<file id="file-171"/>
						<sourcetrack>
							<mediatype>audio</mediatype>
							<trackindex>2</trackindex>
						</sourcetrack>
							<filter>
								<effect>
									<name>Gain</name>
									<effectid>{61756678, 4761696e, 4b657947}</effectid>
									<effecttype>filter</effecttype>
									<mediatype>audio</mediatype>
									<parameter authoringApp="PremierePro">
										<parameterid>Gain(dB)</parameterid>
										<name>Gain(dB)</name>
										<valuemin>-96</valuemin>
										<valuemax>96</valuemax>
										<value>-10</value>
									</parameter>
								</effect>
							</filter>
						<link>
							<linkclipref>clipitem-719</linkclipref>
							<mediatype>audio</mediatype>
							<trackindex>13</trackindex>
							<clipindex>46</clipindex>
							<groupindex>1</groupindex>
						</link>
						<link>
							<linkclipref>clipitem-760</linkclipref>
							<mediatype>audio</mediatype>
							<trackindex>14</trackindex>
							<clipindex>37</clipindex>
							<groupindex>1</groupindex>
						</link>
						<logginginfo>
							<description></description>
							<scene></scene>
							<shottake></shottake>
							<lognote>CD Track 6 archiveNo[157835018]</lognote>
						</logginginfo>
						<labels>
							<label2>Caribbean</label2>
						</labels>
					</clipitem>
					<transitionitem>
						<start>21457</start>
						<end>21470</end>
						<alignment>center</alignment>
						<cutPointTicks>60963840000</cutPointTicks>
						<rate>
							<timebase>25</timebase>
							<ntsc>FALSE</ntsc>
						</rate>
						<effect>
							<name>Cross Fade (+3dB)</name>
							<effectid>KGAudioTransCrossFade3dB</effectid>
							<effecttype>transition</effecttype>
							<mediatype>audio</mediatype>
							<wipecode>0</wipecode>
							<wipeaccuracy>100</wipeaccuracy>
							<startratio>0</startratio>
							<endratio>1</endratio>
							<reverse>FALSE</reverse>
						</effect>
					</transitionitem>
					<clipitem id="clipitem-761" premiereChannelType="stereo">
						<masterclipid>masterclip-187</masterclipid>
						<name>NONRO157835CD0006 Shame on a Nigga.wav</name>
						<enabled>TRUE</enabled>
						<duration>4350</duration>
						<rate>
							<timebase>25</timebase>
							<ntsc>FALSE</ntsc>
						</rate>
						<start>-1</start>
						<end>-1</end>
						<in>190</in>
						<out>891</out>
						<pproTicksIn>1930521600000</pproTicksIn>
						<pproTicksOut>9053130240000</pproTicksOut>
						<file id="file-171"/>
						<sourcetrack>
							<mediatype>audio</mediatype>
							<trackindex>2</trackindex>
						</sourcetrack>
							<filter>
								<effect>
									<name>Gain</name>
									<effectid>{61756678, 4761696e, 4b657947}</effectid>
									<effecttype>filter</effecttype>
									<mediatype>audio</mediatype>
									<parameter authoringApp="PremierePro">
										<parameterid>Gain(dB)</parameterid>
										<name>Gain(dB)</name>
										<valuemin>-96</valuemin>
										<valuemax>96</valuemax>
										<value>-25</value>
									</parameter>
								</effect>
							</filter>
						<link>
							<linkclipref>clipitem-720</linkclipref>
							<mediatype>audio</mediatype>
							<trackindex>13</trackindex>
							<clipindex>48</clipindex>
							<groupindex>1</groupindex>
						</link>
						<link>
							<linkclipref>clipitem-761</linkclipref>
							<mediatype>audio</mediatype>
							<trackindex>14</trackindex>
							<clipindex>39</clipindex>
							<groupindex>1</groupindex>
						</link>
						<logginginfo>
							<description></description>
							<scene></scene>
							<shottake></shottake>
							<lognote>CD Track 6 archiveNo[157835018]</lognote>
						</logginginfo>
						<labels>
							<label2>Caribbean</label2>
						</labels>
					</clipitem>
					<transitionitem>
						<start>22066</start>
						<end>22158</end>
						<alignment>end-black</alignment>
						<cutPointTicks>934778880000</cutPointTicks>
						<rate>
							<timebase>25</timebase>
							<ntsc>FALSE</ntsc>
						</rate>
						<effect>
							<name>Cross Fade (+3dB)</name>
							<effectid>KGAudioTransCrossFade3dB</effectid>
							<effecttype>transition</effecttype>
							<mediatype>audio</mediatype>
							<wipecode>0</wipecode>
							<wipeaccuracy>100</wipeaccuracy>
							<startratio>0</startratio>
							<endratio>1</endratio>
							<reverse>FALSE</reverse>
						</effect>
					</transitionitem>
					<clipitem id="clipitem-762" premiereChannelType="stereo">
						<masterclipid>masterclip-188</masterclipid>
						<name>99562__tomlija__bowling-alley-ambience.wav</name>
						<enabled>TRUE</enabled>
						<duration>348</duration>
						<rate>
							<timebase>25</timebase>
							<ntsc>FALSE</ntsc>
						</rate>
						<start>22579</start>
						<end>22631</end>
						<in>0</in>
						<out>52</out>
						<pproTicksIn>0</pproTicksIn>
						<pproTicksOut>528353280000</pproTicksOut>
						<file id="file-172"/>
						<sourcetrack>
							<mediatype>audio</mediatype>
							<trackindex>2</trackindex>
						</sourcetrack>
						<link>
							<linkclipref>clipitem-721</linkclipref>
							<mediatype>audio</mediatype>
							<trackindex>13</trackindex>
							<clipindex>50</clipindex>
							<groupindex>1</groupindex>
						</link>
						<link>
							<linkclipref>clipitem-762</linkclipref>
							<mediatype>audio</mediatype>
							<trackindex>14</trackindex>
							<clipindex>41</clipindex>
							<groupindex>1</groupindex>
						</link>
						<logginginfo>
							<description></description>
							<scene></scene>
							<shottake></shottake>
							<lognote></lognote>
						</logginginfo>
						<labels>
							<label2>Rose</label2>
						</labels>
					</clipitem>
					<clipitem id="clipitem-763" premiereChannelType="stereo">
						<masterclipid>masterclip-188</masterclipid>
						<name>99562__tomlija__bowling-alley-ambience.wav</name>
						<enabled>TRUE</enabled>
						<duration>348</duration>
						<rate>
							<timebase>25</timebase>
							<ntsc>FALSE</ntsc>
						</rate>
						<start>22631</start>
						<end>-1</end>
						<in>52</in>
						<out>226</out>
						<pproTicksIn>528353280000</pproTicksIn>
						<pproTicksOut>2296304640000</pproTicksOut>
						<file id="file-172"/>
						<sourcetrack>
							<mediatype>audio</mediatype>
							<trackindex>2</trackindex>
						</sourcetrack>
							<filter>
								<effect>
									<name>Gain</name>
									<effectid>{61756678, 4761696e, 4b657947}</effectid>
									<effecttype>filter</effecttype>
									<mediatype>audio</mediatype>
									<parameter authoringApp="PremierePro">
										<parameterid>Gain(dB)</parameterid>
										<name>Gain(dB)</name>
										<valuemin>-96</valuemin>
										<valuemax>96</valuemax>
										<value>-13</value>
									</parameter>
								</effect>
							</filter>
						<link>
							<linkclipref>clipitem-722</linkclipref>
							<mediatype>audio</mediatype>
							<trackindex>13</trackindex>
							<clipindex>51</clipindex>
							<groupindex>1</groupindex>
						</link>
						<link>
							<linkclipref>clipitem-763</linkclipref>
							<mediatype>audio</mediatype>
							<trackindex>14</trackindex>
							<clipindex>42</clipindex>
							<groupindex>1</groupindex>
						</link>
						<logginginfo>
							<description></description>
							<scene></scene>
							<shottake></shottake>
							<lognote></lognote>
						</logginginfo>
						<labels>
							<label2>Rose</label2>
						</labels>
					</clipitem>
					<transitionitem>
						<start>22792</start>
						<end>22805</end>
						<alignment>end-black</alignment>
						<cutPointTicks>132088320000</cutPointTicks>
						<rate>
							<timebase>25</timebase>
							<ntsc>FALSE</ntsc>
						</rate>
						<effect>
							<name>Cross Fade (+3dB)</name>
							<effectid>KGAudioTransCrossFade3dB</effectid>
							<effecttype>transition</effecttype>
							<mediatype>audio</mediatype>
							<wipecode>0</wipecode>
							<wipeaccuracy>100</wipeaccuracy>
							<startratio>0</startratio>
							<endratio>1</endratio>
							<reverse>FALSE</reverse>
						</effect>
					</transitionitem>
					<clipitem id="clipitem-764" premiereChannelType="stereo">
						<masterclipid>masterclip-183</masterclipid>
						<name>169867__halgrimm__swoosh.wav</name>
						<enabled>TRUE</enabled>
						<duration>57</duration>
						<rate>
							<timebase>25</timebase>
							<ntsc>FALSE</ntsc>
						</rate>
						<start>23463</start>
						<end>23520</end>
						<in>0</in>
						<out>57</out>
						<pproTicksIn>0</pproTicksIn>
						<pproTicksOut>579156480000</pproTicksOut>
						<file id="file-167"/>
						<sourcetrack>
							<mediatype>audio</mediatype>
							<trackindex>2</trackindex>
						</sourcetrack>
						<link>
							<linkclipref>clipitem-723</linkclipref>
							<mediatype>audio</mediatype>
							<trackindex>13</trackindex>
							<clipindex>53</clipindex>
							<groupindex>1</groupindex>
						</link>
						<link>
							<linkclipref>clipitem-764</linkclipref>
							<mediatype>audio</mediatype>
							<trackindex>14</trackindex>
							<clipindex>44</clipindex>
							<groupindex>1</groupindex>
						</link>
						<logginginfo>
							<description></description>
							<scene></scene>
							<shottake></shottake>
							<lognote></lognote>
						</logginginfo>
						<labels>
							<label2>Caribbean</label2>
						</labels>
					</clipitem>
					<clipitem id="clipitem-765" premiereChannelType="stereo">
						<masterclipid>masterclip-189</masterclipid>
						<name>91285__timbre__82264-variant-3d-wooshes-both-ways-2.wav</name>
						<enabled>TRUE</enabled>
						<duration>1120</duration>
						<rate>
							<timebase>25</timebase>
							<ntsc>FALSE</ntsc>
						</rate>
						<start>25694</start>
						<end>25717</end>
						<in>270</in>
						<out>293</out>
						<pproTicksIn>2743372800000</pproTicksIn>
						<pproTicksOut>2977067520000</pproTicksOut>
						<file id="file-173"/>
						<sourcetrack>
							<mediatype>audio</mediatype>
							<trackindex>2</trackindex>
						</sourcetrack>
							<filter>
								<effect>
									<name>Gain</name>
									<effectid>{61756678, 4761696e, 4b657947}</effectid>
									<effecttype>filter</effecttype>
									<mediatype>audio</mediatype>
									<parameter authoringApp="PremierePro">
										<parameterid>Gain(dB)</parameterid>
										<name>Gain(dB)</name>
										<valuemin>-96</valuemin>
										<valuemax>96</valuemax>
										<value>-20</value>
									</parameter>
								</effect>
							</filter>
						<link>
							<linkclipref>clipitem-727</linkclipref>
							<mediatype>audio</mediatype>
							<trackindex>13</trackindex>
							<clipindex>57</clipindex>
							<groupindex>1</groupindex>
						</link>
						<link>
							<linkclipref>clipitem-765</linkclipref>
							<mediatype>audio</mediatype>
							<trackindex>14</trackindex>
							<clipindex>45</clipindex>
							<groupindex>1</groupindex>
						</link>
						<logginginfo>
							<description></description>
							<scene></scene>
							<shottake></shottake>
							<lognote></lognote>
						</logginginfo>
						<labels>
							<label2>Caribbean</label2>
						</labels>
					</clipitem>
					<clipitem id="clipitem-766" premiereChannelType="stereo">
						<masterclipid>masterclip-191</masterclipid>
						<name>192120__heavenlyhits__trailer-hit-10.wav</name>
						<enabled>TRUE</enabled>
						<duration>387</duration>
						<rate>
							<timebase>25</timebase>
							<ntsc>FALSE</ntsc>
						</rate>
						<start>29106</start>
						<end>29146</end>
						<in>137</in>
						<out>177</out>
						<pproTicksIn>1392007680000</pproTicksIn>
						<pproTicksOut>1798433280000</pproTicksOut>
						<file id="file-175"/>
						<sourcetrack>
							<mediatype>audio</mediatype>
							<trackindex>2</trackindex>
						</sourcetrack>
							<filter>
								<effect>
									<name>Gain</name>
									<effectid>{61756678, 4761696e, 4b657947}</effectid>
									<effecttype>filter</effecttype>
									<mediatype>audio</mediatype>
									<parameter authoringApp="PremierePro">
										<parameterid>Gain(dB)</parameterid>
										<name>Gain(dB)</name>
										<valuemin>-96</valuemin>
										<valuemax>96</valuemax>
										<value>-20</value>
									</parameter>
								</effect>
							</filter>
						<link>
							<linkclipref>clipitem-729</linkclipref>
							<mediatype>audio</mediatype>
							<trackindex>13</trackindex>
							<clipindex>59</clipindex>
							<groupindex>1</groupindex>
						</link>
						<link>
							<linkclipref>clipitem-766</linkclipref>
							<mediatype>audio</mediatype>
							<trackindex>14</trackindex>
							<clipindex>46</clipindex>
							<groupindex>1</groupindex>
						</link>
						<logginginfo>
							<description></description>
							<scene></scene>
							<shottake></shottake>
							<lognote></lognote>
						</logginginfo>
						<labels>
							<label2>Caribbean</label2>
						</labels>
					</clipitem>
					<enabled>TRUE</enabled>
					<locked>FALSE</locked>
					<outputchannelindex>2</outputchannelindex>
				</track>
				<track TL.SQTrackAudioKeyframeStyle="0" TL.SQTrackShy="0" TL.SQTrackExpandedHeight="35" TL.SQTrackExpanded="1" MZ.TrackTargeted="1" PannerCurrentValue="0.5" PannerIsInverted="true" PannerStartKeyframe="-91445760000000000,0.5,0,0,0,0,0,0" PannerName="Balance" currentExplodedTrackIndex="0" totalExplodedTrackCount="2" premiereTrackType="Stereo">
					<clipitem id="clipitem-767" premiereChannelType="stereo">
						<masterclipid>masterclip-192</masterclipid>
						<name>BR_586_5_Unstoppable_Force_Britton_858425.wav</name>
						<enabled>TRUE</enabled>
						<duration>3237</duration>
						<rate>
							<timebase>25</timebase>
							<ntsc>FALSE</ntsc>
						</rate>
						<start>0</start>
						<end>277</end>
						<in>134</in>
						<out>411</out>
						<pproTicksIn>1361525760000</pproTicksIn>
						<pproTicksOut>4176023040000</pproTicksOut>
						<file id="file-176">
							<name>BR_586_5_Unstoppable_Force_Britton_858425.wav</name>
							<pathurl>file://localhost/Volumes/Bingen/Prosjekter/MYNT194016%20WHATS%20COOKING/Musikk/Jan/Universal/BR_586_5_Unstoppable_Force_Britton_858425.wav</pathurl>
							<rate>
								<timebase>30</timebase>
								<ntsc>TRUE</ntsc>
							</rate>
							<duration>3880</duration>
							<timecode>
								<rate>
									<timebase>30</timebase>
									<ntsc>TRUE</ntsc>
								</rate>
								<string>00;01;03;15</string>
								<frame>1903</frame>
								<displayformat>DF</displayformat>
								<reel>
									<name></name>
								</reel>
							</timecode>
							<media>
								<audio>
									<samplecharacteristics>
										<depth>16</depth>
										<samplerate>44100</samplerate>
									</samplecharacteristics>
									<channelcount>2</channelcount>
								</audio>
							</media>
						</file>
						<sourcetrack>
							<mediatype>audio</mediatype>
							<trackindex>1</trackindex>
						</sourcetrack>
							<filter>
								<effect>
									<name>Gain</name>
									<effectid>{61756678, 4761696e, 4b657947}</effectid>
									<effecttype>filter</effecttype>
									<mediatype>audio</mediatype>
									<parameter authoringApp="PremierePro">
										<parameterid>Gain(dB)</parameterid>
										<name>Gain(dB)</name>
										<valuemin>-96</valuemin>
										<valuemax>96</valuemax>
										<value>-22</value>
									</parameter>
								</effect>
							</filter>
						<link>
							<linkclipref>clipitem-767</linkclipref>
							<mediatype>audio</mediatype>
							<trackindex>15</trackindex>
							<clipindex>1</clipindex>
							<groupindex>1</groupindex>
						</link>
						<link>
							<linkclipref>clipitem-796</linkclipref>
							<mediatype>audio</mediatype>
							<trackindex>16</trackindex>
							<clipindex>1</clipindex>
							<groupindex>1</groupindex>
						</link>
						<logginginfo>
							<description></description>
							<scene></scene>
							<shottake></shottake>
							<lognote></lognote>
						</logginginfo>
						<labels>
							<label2>Caribbean</label2>
						</labels>
					</clipitem>
					<clipitem id="clipitem-768" premiereChannelType="stereo">
						<masterclipid>masterclip-192</masterclipid>
						<name>BR_586_5_Unstoppable_Force_Britton_858425.wav</name>
						<enabled>TRUE</enabled>
						<duration>3237</duration>
						<rate>
							<timebase>25</timebase>
							<ntsc>FALSE</ntsc>
						</rate>
						<start>277</start>
						<end>-1</end>
						<in>2945</in>
						<out>3012</out>
						<pproTicksIn>29923084800000</pproTicksIn>
						<pproTicksOut>30603847680000</pproTicksOut>
						<file id="file-176"/>
						<sourcetrack>
							<mediatype>audio</mediatype>
							<trackindex>1</trackindex>
						</sourcetrack>
							<filter>
								<effect>
									<name>Gain</name>
									<effectid>{61756678, 4761696e, 4b657947}</effectid>
									<effecttype>filter</effecttype>
									<mediatype>audio</mediatype>
									<parameter authoringApp="PremierePro">
										<parameterid>Gain(dB)</parameterid>
										<name>Gain(dB)</name>
										<valuemin>-96</valuemin>
										<valuemax>96</valuemax>
										<value>-22</value>
									</parameter>
								</effect>
							</filter>
						<link>
							<linkclipref>clipitem-768</linkclipref>
							<mediatype>audio</mediatype>
							<trackindex>15</trackindex>
							<clipindex>2</clipindex>
							<groupindex>1</groupindex>
						</link>
						<link>
							<linkclipref>clipitem-797</linkclipref>
							<mediatype>audio</mediatype>
							<trackindex>16</trackindex>
							<clipindex>2</clipindex>
							<groupindex>1</groupindex>
						</link>
						<logginginfo>
							<description></description>
							<scene></scene>
							<shottake></shottake>
							<lognote></lognote>
						</logginginfo>
						<labels>
							<label2>Caribbean</label2>
						</labels>
					</clipitem>
					<transitionitem>
						<start>315</start>
						<end>344</end>
						<alignment>end-black</alignment>
						<cutPointTicks>294658560000</cutPointTicks>
						<rate>
							<timebase>25</timebase>
							<ntsc>FALSE</ntsc>
						</rate>
						<effect>
							<name>Cross Fade (+3dB)</name>
							<effectid>KGAudioTransCrossFade3dB</effectid>
							<effecttype>transition</effecttype>
							<mediatype>audio</mediatype>
							<wipecode>0</wipecode>
							<wipeaccuracy>100</wipeaccuracy>
							<startratio>0</startratio>
							<endratio>1</endratio>
							<reverse>FALSE</reverse>
						</effect>
					</transitionitem>
					<clipitem id="clipitem-769" premiereChannelType="stereo">
						<masterclipid>masterclip-193</masterclipid>
						<name>MSTR_239_17_Payroll_A_Shippy_655909.wav</name>
						<enabled>TRUE</enabled>
						<duration>5028</duration>
						<rate>
							<timebase>25</timebase>
							<ntsc>FALSE</ntsc>
						</rate>
						<start>1337</start>
						<end>-1</end>
						<in>9</in>
						<out>1985</out>
						<pproTicksIn>91445760000</pproTicksIn>
						<pproTicksOut>20168870400000</pproTicksOut>
						<file id="file-177">
							<name>MSTR_239_17_Payroll_A_Shippy_655909.wav</name>
							<pathurl>file://localhost/Volumes/Bingen/Prosjekter/MYNT194016%20WHATS%20COOKING/Musikk/Jan/Universal/Instr%20bakgrunn%20Univ/MSTR_239_17_Payroll_A_Shippy_655909.wav</pathurl>
							<rate>
								<timebase>30</timebase>
								<ntsc>TRUE</ntsc>
							</rate>
							<duration>6027</duration>
							<timecode>
								<rate>
									<timebase>30</timebase>
									<ntsc>TRUE</ntsc>
								</rate>
								<string>00;00;00;00</string>
								<frame>0</frame>
								<displayformat>DF</displayformat>
								<reel>
									<name></name>
								</reel>
							</timecode>
							<media>
								<audio>
									<samplecharacteristics>
										<depth>16</depth>
										<samplerate>44100</samplerate>
									</samplecharacteristics>
									<channelcount>2</channelcount>
								</audio>
							</media>
						</file>
						<sourcetrack>
							<mediatype>audio</mediatype>
							<trackindex>1</trackindex>
						</sourcetrack>
							<filter>
								<effect>
									<name>Gain</name>
									<effectid>{61756678, 4761696e, 4b657947}</effectid>
									<effecttype>filter</effecttype>
									<mediatype>audio</mediatype>
									<parameter authoringApp="PremierePro">
										<parameterid>Gain(dB)</parameterid>
										<name>Gain(dB)</name>
										<valuemin>-96</valuemin>
										<valuemax>96</valuemax>
										<value>-35</value>
									</parameter>
								</effect>
							</filter>
						<link>
							<linkclipref>clipitem-769</linkclipref>
							<mediatype>audio</mediatype>
							<trackindex>15</trackindex>
							<clipindex>4</clipindex>
							<groupindex>1</groupindex>
						</link>
						<link>
							<linkclipref>clipitem-798</linkclipref>
							<mediatype>audio</mediatype>
							<trackindex>16</trackindex>
							<clipindex>4</clipindex>
							<groupindex>1</groupindex>
						</link>
						<logginginfo>
							<description></description>
							<scene></scene>
							<shottake></shottake>
							<lognote></lognote>
						</logginginfo>
						<labels>
							<label2>Caribbean</label2>
						</labels>
					</clipitem>
					<transitionitem>
						<start>3260</start>
						<end>3313</end>
						<alignment>center</alignment>
						<cutPointTicks>264176640000</cutPointTicks>
						<rate>
							<timebase>25</timebase>
							<ntsc>FALSE</ntsc>
						</rate>
						<effect>
							<name>Cross Fade (+3dB)</name>
							<effectid>KGAudioTransCrossFade3dB</effectid>
							<effecttype>transition</effecttype>
							<mediatype>audio</mediatype>
							<wipecode>0</wipecode>
							<wipeaccuracy>100</wipeaccuracy>
							<startratio>0</startratio>
							<endratio>1</endratio>
							<reverse>FALSE</reverse>
						</effect>
					</transitionitem>
					<clipitem id="clipitem-770" premiereChannelType="stereo">
						<masterclipid>masterclip-193</masterclipid>
						<name>MSTR_239_17_Payroll_A_Shippy_655909.wav</name>
						<enabled>TRUE</enabled>
						<duration>5028</duration>
						<rate>
							<timebase>25</timebase>
							<ntsc>FALSE</ntsc>
						</rate>
						<start>-1</start>
						<end>-1</end>
						<in>1999</in>
						<out>2440</out>
						<pproTicksIn>20311119360000</pproTicksIn>
						<pproTicksOut>24791961600000</pproTicksOut>
						<file id="file-177"/>
						<sourcetrack>
							<mediatype>audio</mediatype>
							<trackindex>1</trackindex>
						</sourcetrack>
							<filter>
								<effect>
									<name>Gain</name>
									<effectid>{61756678, 4761696e, 4b657947}</effectid>
									<effecttype>filter</effecttype>
									<mediatype>audio</mediatype>
									<parameter authoringApp="PremierePro">
										<parameterid>Gain(dB)</parameterid>
										<name>Gain(dB)</name>
										<valuemin>-96</valuemin>
										<valuemax>96</valuemax>
										<value>-15</value>
									</parameter>
								</effect>
							</filter>
						<link>
							<linkclipref>clipitem-770</linkclipref>
							<mediatype>audio</mediatype>
							<trackindex>15</trackindex>
							<clipindex>6</clipindex>
							<groupindex>1</groupindex>
						</link>
						<link>
							<linkclipref>clipitem-799</linkclipref>
							<mediatype>audio</mediatype>
							<trackindex>16</trackindex>
							<clipindex>6</clipindex>
							<groupindex>1</groupindex>
						</link>
						<logginginfo>
							<description></description>
							<scene></scene>
							<shottake></shottake>
							<lognote></lognote>
						</logginginfo>
						<labels>
							<label2>Caribbean</label2>
						</labels>
					</clipitem>
					<transitionitem>
						<start>3479</start>
						<end>3701</end>
						<alignment>end-black</alignment>
						<cutPointTicks>2255662080000</cutPointTicks>
						<rate>
							<timebase>25</timebase>
							<ntsc>FALSE</ntsc>
						</rate>
						<effect>
							<name>Cross Fade (+3dB)</name>
							<effectid>KGAudioTransCrossFade3dB</effectid>
							<effecttype>transition</effecttype>
							<mediatype>audio</mediatype>
							<wipecode>0</wipecode>
							<wipeaccuracy>100</wipeaccuracy>
							<startratio>0</startratio>
							<endratio>1</endratio>
							<reverse>FALSE</reverse>
						</effect>
					</transitionitem>
					<clipitem id="clipitem-771" premiereChannelType="stereo">
						<masterclipid>masterclip-194</masterclipid>
						<name>RNM_50_2_California_Ives_714152.wav</name>
						<enabled>TRUE</enabled>
						<duration>5798</duration>
						<rate>
							<timebase>25</timebase>
							<ntsc>FALSE</ntsc>
						</rate>
						<start>6310</start>
						<end>-1</end>
						<in>0</in>
						<out>1168</out>
						<pproTicksIn>0</pproTicksIn>
						<pproTicksOut>11867627520000</pproTicksOut>
						<file id="file-178">
							<name>RNM_50_2_California_Ives_714152.wav</name>
							<pathurl>file://localhost/Volumes/Bingen/Prosjekter/MYNT194016%20WHATS%20COOKING/Musikk/Jan/Universal/Instr%20bakgrunn%20Univ/RNM_50_2_California_Ives_714152.wav</pathurl>
							<rate>
								<timebase>30</timebase>
								<ntsc>TRUE</ntsc>
							</rate>
							<duration>6951</duration>
							<timecode>
								<rate>
									<timebase>30</timebase>
									<ntsc>TRUE</ntsc>
								</rate>
								<string>00;00;00;00</string>
								<frame>0</frame>
								<displayformat>DF</displayformat>
								<reel>
									<name></name>
								</reel>
							</timecode>
							<media>
								<audio>
									<samplecharacteristics>
										<depth>16</depth>
										<samplerate>44100</samplerate>
									</samplecharacteristics>
									<channelcount>2</channelcount>
								</audio>
							</media>
						</file>
						<sourcetrack>
							<mediatype>audio</mediatype>
							<trackindex>1</trackindex>
						</sourcetrack>
							<filter>
								<effect>
									<name>Gain</name>
									<effectid>{61756678, 4761696e, 4b657947}</effectid>
									<effecttype>filter</effecttype>
									<mediatype>audio</mediatype>
									<parameter authoringApp="PremierePro">
										<parameterid>Gain(dB)</parameterid>
										<name>Gain(dB)</name>
										<valuemin>-96</valuemin>
										<valuemax>96</valuemax>
										<value>-30</value>
									</parameter>
								</effect>
							</filter>
						<link>
							<linkclipref>clipitem-771</linkclipref>
							<mediatype>audio</mediatype>
							<trackindex>15</trackindex>
							<clipindex>8</clipindex>
							<groupindex>1</groupindex>
						</link>
						<link>
							<linkclipref>clipitem-800</linkclipref>
							<mediatype>audio</mediatype>
							<trackindex>16</trackindex>
							<clipindex>8</clipindex>
							<groupindex>1</groupindex>
						</link>
						<logginginfo>
							<description></description>
							<scene></scene>
							<shottake></shottake>
							<lognote></lognote>
						</logginginfo>
						<labels>
							<label2>Caribbean</label2>
						</labels>
					</clipitem>
					<transitionitem>
						<start>7465</start>
						<end>7478</end>
						<alignment>center</alignment>
						<cutPointTicks>60963840000</cutPointTicks>
						<rate>
							<timebase>25</timebase>
							<ntsc>FALSE</ntsc>
						</rate>
						<effect>
							<name>Cross Fade (+3dB)</name>
							<effectid>KGAudioTransCrossFade3dB</effectid>
							<effecttype>transition</effecttype>
							<mediatype>audio</mediatype>
							<wipecode>0</wipecode>
							<wipeaccuracy>100</wipeaccuracy>
							<startratio>0</startratio>
							<endratio>1</endratio>
							<reverse>FALSE</reverse>
						</effect>
					</transitionitem>
					<clipitem id="clipitem-772" premiereChannelType="stereo">
						<masterclipid>masterclip-194</masterclipid>
						<name>RNM_50_2_California_Ives_714152.wav</name>
						<enabled>TRUE</enabled>
						<duration>5798</duration>
						<rate>
							<timebase>25</timebase>
							<ntsc>FALSE</ntsc>
						</rate>
						<start>-1</start>
						<end>-1</end>
						<in>1155</in>
						<out>1278</out>
						<pproTicksIn>11735539200000</pproTicksIn>
						<pproTicksOut>12985297920000</pproTicksOut>
						<file id="file-178"/>
						<sourcetrack>
							<mediatype>audio</mediatype>
							<trackindex>1</trackindex>
						</sourcetrack>
							<filter>
								<effect>
									<name>Gain</name>
									<effectid>{61756678, 4761696e, 4b657947}</effectid>
									<effecttype>filter</effecttype>
									<mediatype>audio</mediatype>
									<parameter authoringApp="PremierePro">
										<parameterid>Gain(dB)</parameterid>
										<name>Gain(dB)</name>
										<valuemin>-96</valuemin>
										<valuemax>96</valuemax>
										<value>-38</value>
									</parameter>
								</effect>
							</filter>
						<link>
							<linkclipref>clipitem-772</linkclipref>
							<mediatype>audio</mediatype>
							<trackindex>15</trackindex>
							<clipindex>10</clipindex>
							<groupindex>1</groupindex>
						</link>
						<link>
							<linkclipref>clipitem-801</linkclipref>
							<mediatype>audio</mediatype>
							<trackindex>16</trackindex>
							<clipindex>10</clipindex>
							<groupindex>1</groupindex>
						</link>
						<logginginfo>
							<description></description>
							<scene></scene>
							<shottake></shottake>
							<lognote></lognote>
						</logginginfo>
						<labels>
							<label2>Caribbean</label2>
						</labels>
					</clipitem>
					<transitionitem>
						<start>7575</start>
						<end>7588</end>
						<alignment>center</alignment>
						<cutPointTicks>60963840000</cutPointTicks>
						<rate>
							<timebase>25</timebase>
							<ntsc>FALSE</ntsc>
						</rate>
						<effect>
							<name>Cross Fade (+3dB)</name>
							<effectid>KGAudioTransCrossFade3dB</effectid>
							<effecttype>transition</effecttype>
							<mediatype>audio</mediatype>
							<wipecode>0</wipecode>
							<wipeaccuracy>100</wipeaccuracy>
							<startratio>0</startratio>
							<endratio>1</endratio>
							<reverse>FALSE</reverse>
						</effect>
					</transitionitem>
					<clipitem id="clipitem-773" premiereChannelType="stereo">
						<masterclipid>masterclip-194</masterclipid>
						<name>RNM_50_2_California_Ives_714152.wav</name>
						<enabled>TRUE</enabled>
						<duration>5798</duration>
						<rate>
							<timebase>25</timebase>
							<ntsc>FALSE</ntsc>
						</rate>
						<start>-1</start>
						<end>-1</end>
						<in>1265</in>
						<out>1998</out>
						<pproTicksIn>12853209600000</pproTicksIn>
						<pproTicksOut>20300958720000</pproTicksOut>
						<file id="file-178"/>
						<sourcetrack>
							<mediatype>audio</mediatype>
							<trackindex>1</trackindex>
						</sourcetrack>
							<filter>
								<effect>
									<name>Gain</name>
									<effectid>{61756678, 4761696e, 4b657947}</effectid>
									<effecttype>filter</effecttype>
									<mediatype>audio</mediatype>
									<parameter authoringApp="PremierePro">
										<parameterid>Gain(dB)</parameterid>
										<name>Gain(dB)</name>
										<valuemin>-96</valuemin>
										<valuemax>96</valuemax>
										<value>-30</value>
									</parameter>
								</effect>
							</filter>
						<link>
							<linkclipref>clipitem-773</linkclipref>
							<mediatype>audio</mediatype>
							<trackindex>15</trackindex>
							<clipindex>12</clipindex>
							<groupindex>1</groupindex>
						</link>
						<link>
							<linkclipref>clipitem-802</linkclipref>
							<mediatype>audio</mediatype>
							<trackindex>16</trackindex>
							<clipindex>12</clipindex>
							<groupindex>1</groupindex>
						</link>
						<logginginfo>
							<description></description>
							<scene></scene>
							<shottake></shottake>
							<lognote></lognote>
						</logginginfo>
						<labels>
							<label2>Caribbean</label2>
						</labels>
					</clipitem>
					<transitionitem>
						<start>8207</start>
						<end>8308</end>
						<alignment>end-black</alignment>
						<cutPointTicks>1026224640000</cutPointTicks>
						<rate>
							<timebase>25</timebase>
							<ntsc>FALSE</ntsc>
						</rate>
						<effect>
							<name>Cross Fade (+3dB)</name>
							<effectid>KGAudioTransCrossFade3dB</effectid>
							<effecttype>transition</effecttype>
							<mediatype>audio</mediatype>
							<wipecode>0</wipecode>
							<wipeaccuracy>100</wipeaccuracy>
							<startratio>0</startratio>
							<endratio>1</endratio>
							<reverse>FALSE</reverse>
						</effect>
					</transitionitem>
					<clipitem id="clipitem-774" premiereChannelType="stereo">
						<masterclipid>masterclip-183</masterclipid>
						<name>169867__halgrimm__swoosh.wav</name>
						<enabled>TRUE</enabled>
						<duration>57</duration>
						<rate>
							<timebase>25</timebase>
							<ntsc>FALSE</ntsc>
						</rate>
						<start>10856</start>
						<end>10901</end>
						<in>8</in>
						<out>53</out>
						<pproTicksIn>81285120000</pproTicksIn>
						<pproTicksOut>538513920000</pproTicksOut>
						<file id="file-167"/>
						<sourcetrack>
							<mediatype>audio</mediatype>
							<trackindex>1</trackindex>
						</sourcetrack>
							<filter>
								<effect>
									<name>Gain</name>
									<effectid>{61756678, 4761696e, 4b657947}</effectid>
									<effecttype>filter</effecttype>
									<mediatype>audio</mediatype>
									<parameter authoringApp="PremierePro">
										<parameterid>Gain(dB)</parameterid>
										<name>Gain(dB)</name>
										<valuemin>-96</valuemin>
										<valuemax>96</valuemax>
										<value>-10</value>
									</parameter>
								</effect>
							</filter>
						<link>
							<linkclipref>clipitem-774</linkclipref>
							<mediatype>audio</mediatype>
							<trackindex>15</trackindex>
							<clipindex>14</clipindex>
							<groupindex>1</groupindex>
						</link>
						<link>
							<linkclipref>clipitem-803</linkclipref>
							<mediatype>audio</mediatype>
							<trackindex>16</trackindex>
							<clipindex>14</clipindex>
							<groupindex>1</groupindex>
						</link>
						<logginginfo>
							<description></description>
							<scene></scene>
							<shottake></shottake>
							<lognote></lognote>
						</logginginfo>
						<labels>
							<label2>Caribbean</label2>
						</labels>
					</clipitem>
					<clipitem id="clipitem-775" premiereChannelType="stereo">
						<masterclipid>masterclip-195</masterclipid>
						<name>LO_CD_18_6_East_Of_West_Black_Carpenter_More_321775.wav</name>
						<enabled>TRUE</enabled>
						<duration>5532</duration>
						<rate>
							<timebase>25</timebase>
							<ntsc>FALSE</ntsc>
						</rate>
						<start>15151</start>
						<end>-1</end>
						<in>0</in>
						<out>733</out>
						<pproTicksIn>0</pproTicksIn>
						<pproTicksOut>7447749120000</pproTicksOut>
						<file id="file-179">
							<name>LO_CD_18_6_East_Of_West_Black_Carpenter_More_321775.wav</name>
							<pathurl>file://localhost/Volumes/Bingen/Prosjekter/MYNT194016%20WHATS%20COOKING/Musikk/Jan/Universal/LO_CD_18_Ninja%20Tune%2004%20Tunes%20&amp;%20Grooves%20(All%20main%20versions)/LO_CD_18_6_East_Of_West_Black_Carpenter_More_321775.wav</pathurl>
							<rate>
								<timebase>30</timebase>
								<ntsc>TRUE</ntsc>
							</rate>
							<duration>6631</duration>
							<timecode>
								<rate>
									<timebase>30</timebase>
									<ntsc>TRUE</ntsc>
								</rate>
								<string>00;00;00;00</string>
								<frame>0</frame>
								<displayformat>DF</displayformat>
								<reel>
									<name></name>
								</reel>
							</timecode>
							<media>
								<audio>
									<samplecharacteristics>
										<depth>16</depth>
										<samplerate>44100</samplerate>
									</samplecharacteristics>
									<channelcount>2</channelcount>
								</audio>
							</media>
						</file>
						<sourcetrack>
							<mediatype>audio</mediatype>
							<trackindex>1</trackindex>
						</sourcetrack>
							<filter>
								<effect>
									<name>Gain</name>
									<effectid>{61756678, 4761696e, 4b657947}</effectid>
									<effecttype>filter</effecttype>
									<mediatype>audio</mediatype>
									<parameter authoringApp="PremierePro">
										<parameterid>Gain(dB)</parameterid>
										<name>Gain(dB)</name>
										<valuemin>-96</valuemin>
										<valuemax>96</valuemax>
										<value>-20</value>
									</parameter>
								</effect>
							</filter>
						<link>
							<linkclipref>clipitem-775</linkclipref>
							<mediatype>audio</mediatype>
							<trackindex>15</trackindex>
							<clipindex>15</clipindex>
							<groupindex>1</groupindex>
						</link>
						<link>
							<linkclipref>clipitem-804</linkclipref>
							<mediatype>audio</mediatype>
							<trackindex>16</trackindex>
							<clipindex>15</clipindex>
							<groupindex>1</groupindex>
						</link>
						<logginginfo>
							<description></description>
							<scene></scene>
							<shottake></shottake>
							<lognote>Jazz breaks, cheeky grooves and downtempo tunes.</lognote>
						</logginginfo>
						<labels>
							<label2>Rose</label2>
						</labels>
					</clipitem>
					<transitionitem>
						<start>15851</start>
						<end>15884</end>
						<alignment>center</alignment>
						<cutPointTicks>162570240000</cutPointTicks>
						<rate>
							<timebase>25</timebase>
							<ntsc>FALSE</ntsc>
						</rate>
						<effect>
							<name>Cross Fade (+3dB)</name>
							<effectid>KGAudioTransCrossFade3dB</effectid>
							<effecttype>transition</effecttype>
							<mediatype>audio</mediatype>
							<wipecode>0</wipecode>
							<wipeaccuracy>100</wipeaccuracy>
							<startratio>0</startratio>
							<endratio>1</endratio>
							<reverse>FALSE</reverse>
						</effect>
					</transitionitem>
					<clipitem id="clipitem-776" premiereChannelType="stereo">
						<masterclipid>masterclip-195</masterclipid>
						<name>LO_CD_18_6_East_Of_West_Black_Carpenter_More_321775.wav</name>
						<enabled>TRUE</enabled>
						<duration>5532</duration>
						<rate>
							<timebase>25</timebase>
							<ntsc>FALSE</ntsc>
						</rate>
						<start>-1</start>
						<end>-1</end>
						<in>700</in>
						<out>1636</out>
						<pproTicksIn>7112448000000</pproTicksIn>
						<pproTicksOut>16622807040000</pproTicksOut>
						<file id="file-179"/>
						<sourcetrack>
							<mediatype>audio</mediatype>
							<trackindex>1</trackindex>
						</sourcetrack>
							<filter>
								<effect>
									<name>Gain</name>
									<effectid>{61756678, 4761696e, 4b657947}</effectid>
									<effecttype>filter</effecttype>
									<mediatype>audio</mediatype>
									<parameter authoringApp="PremierePro">
										<parameterid>Gain(dB)</parameterid>
										<name>Gain(dB)</name>
										<valuemin>-96</valuemin>
										<valuemax>96</valuemax>
										<value>-25</value>
									</parameter>
								</effect>
							</filter>
						<link>
							<linkclipref>clipitem-776</linkclipref>
							<mediatype>audio</mediatype>
							<trackindex>15</trackindex>
							<clipindex>17</clipindex>
							<groupindex>1</groupindex>
						</link>
						<link>
							<linkclipref>clipitem-805</linkclipref>
							<mediatype>audio</mediatype>
							<trackindex>16</trackindex>
							<clipindex>17</clipindex>
							<groupindex>1</groupindex>
						</link>
						<logginginfo>
							<description></description>
							<scene></scene>
							<shottake></shottake>
							<lognote>Jazz breaks, cheeky grooves and downtempo tunes.</lognote>
						</logginginfo>
						<labels>
							<label2>Rose</label2>
						</labels>
					</clipitem>
					<transitionitem>
						<start>16606</start>
						<end>16787</end>
						<alignment>end-black</alignment>
						<cutPointTicks>1839075840000</cutPointTicks>
						<rate>
							<timebase>25</timebase>
							<ntsc>FALSE</ntsc>
						</rate>
						<effect>
							<name>Cross Fade (+3dB)</name>
							<effectid>KGAudioTransCrossFade3dB</effectid>
							<effecttype>transition</effecttype>
							<mediatype>audio</mediatype>
							<wipecode>0</wipecode>
							<wipeaccuracy>100</wipeaccuracy>
							<startratio>0</startratio>
							<endratio>1</endratio>
							<reverse>FALSE</reverse>
						</effect>
					</transitionitem>
					<transitionitem>
						<start>19215</start>
						<end>19228</end>
						<alignment>start-black</alignment>
						<cutPointTicks>0</cutPointTicks>
						<rate>
							<timebase>25</timebase>
							<ntsc>FALSE</ntsc>
						</rate>
						<effect>
							<name>Cross Fade (+3dB)</name>
							<effectid>KGAudioTransCrossFade3dB</effectid>
							<effecttype>transition</effecttype>
							<mediatype>audio</mediatype>
							<wipecode>0</wipecode>
							<wipeaccuracy>100</wipeaccuracy>
							<startratio>0</startratio>
							<endratio>1</endratio>
							<reverse>FALSE</reverse>
						</effect>
					</transitionitem>
					<clipitem id="clipitem-777" premiereChannelType="stereo">
						<masterclipid>masterclip-170</masterclipid>
						<name>30246__streety__sword4.wav</name>
						<enabled>TRUE</enabled>
						<duration>48</duration>
						<rate>
							<timebase>25</timebase>
							<ntsc>FALSE</ntsc>
						</rate>
						<start>-1</start>
						<end>-1</end>
						<in>0</in>
						<out>34</out>
						<pproTicksIn>0</pproTicksIn>
						<pproTicksOut>121419647998</pproTicksOut>
						<file id="file-154"/>
						<sourcetrack>
							<mediatype>audio</mediatype>
							<trackindex>1</trackindex>
						</sourcetrack>
							<filter>
								<effect>
									<name>Time Remap</name>
									<effectid>timeremap</effectid>
									<effectcategory>motion</effectcategory>
									<effecttype>motion</effecttype>
									<mediatype>audio</mediatype>
									<parameter authoringApp="PremierePro">
										<parameterid>variablespeed</parameterid>
										<name>variablespeed</name>
										<valuemin>0</valuemin>
										<valuemax>1</valuemax>
										<value>0</value>
									</parameter>
									<parameter authoringApp="PremierePro">
										<parameterid>speed</parameterid>
										<name>speed</name>
										<valuemin>-100000</valuemin>
										<valuemax>100000</valuemax>
										<value>35</value>
									</parameter>
									<parameter authoringApp="PremierePro">
										<parameterid>reverse</parameterid>
										<name>reverse</name>
										<value>FALSE</value>
									</parameter>
									<parameter authoringApp="PremierePro">
										<parameterid>frameblending</parameterid>
										<name>frameblending</name>
										<value>FALSE</value>
									</parameter>
									<parameter authoringApp="PremierePro">
										<parameterid>graphdict</parameterid>
										<name>graphdict</name>
										<valuemin>0</valuemin>
										<valuemax>16</valuemax>
										<value>0</value>
										<keyframe>
											<when>0</when>
											<value>0</value>
											<speedvirtualkf>TRUE</speedvirtualkf>
											<speedkfin>TRUE</speedkfin>
										</keyframe>
										<keyframe>
											<when>34</when>
											<value>11</value>
											<speedvirtualkf>TRUE</speedvirtualkf>
											<speedkfout>TRUE</speedkfout>
										</keyframe>
										<keyframe>
											<when>48</when>
											<value>16</value>
											<speedvirtualkf>TRUE</speedvirtualkf>
											<speedkfend>TRUE</speedkfend>
										</keyframe>
										<interpolation>
											<name>FCPCurve</name>
										</interpolation>
									</parameter>
								</effect>
							</filter>
						<link>
							<linkclipref>clipitem-777</linkclipref>
							<mediatype>audio</mediatype>
							<trackindex>15</trackindex>
							<clipindex>20</clipindex>
							<groupindex>1</groupindex>
						</link>
						<link>
							<linkclipref>clipitem-806</linkclipref>
							<mediatype>audio</mediatype>
							<trackindex>16</trackindex>
							<clipindex>20</clipindex>
							<groupindex>1</groupindex>
						</link>
						<logginginfo>
							<description></description>
							<scene></scene>
							<shottake></shottake>
							<lognote></lognote>
						</logginginfo>
						<comments>
						</comments>
						<labels>
							<label2>Caribbean</label2>
						</labels>
					</clipitem>
					<transitionitem>
						<start>19229</start>
						<end>19238</end>
						<alignment>center</alignment>
						<cutPointTicks>30481920000</cutPointTicks>
						<rate>
							<timebase>25</timebase>
							<ntsc>FALSE</ntsc>
						</rate>
						<effect>
							<name>Cross Fade (+3dB)</name>
							<effectid>KGAudioTransCrossFade3dB</effectid>
							<effecttype>transition</effecttype>
							<mediatype>audio</mediatype>
							<wipecode>0</wipecode>
							<wipeaccuracy>100</wipeaccuracy>
							<startratio>0</startratio>
							<endratio>1</endratio>
							<reverse>FALSE</reverse>
						</effect>
					</transitionitem>
					<clipitem id="clipitem-778" premiereChannelType="stereo">
						<masterclipid>masterclip-170</masterclipid>
						<name>30246__streety__sword4.wav</name>
						<enabled>TRUE</enabled>
						<duration>48</duration>
						<rate>
							<timebase>25</timebase>
							<ntsc>FALSE</ntsc>
						</rate>
						<start>-1</start>
						<end>-1</end>
						<in>8</in>
						<out>50</out>
						<pproTicksIn>29973888000</pproTicksIn>
						<pproTicksOut>181367423999</pproTicksOut>
						<file id="file-154"/>
						<sourcetrack>
							<mediatype>audio</mediatype>
							<trackindex>1</trackindex>
						</sourcetrack>
							<filter>
								<effect>
									<name>Gain</name>
									<effectid>{61756678, 4761696e, 4b657947}</effectid>
									<effecttype>filter</effecttype>
									<mediatype>audio</mediatype>
									<parameter authoringApp="PremierePro">
										<parameterid>Gain(dB)</parameterid>
										<name>Gain(dB)</name>
										<valuemin>-96</valuemin>
										<valuemax>96</valuemax>
										<value>-20</value>
									</parameter>
								</effect>
							</filter>
							<filter>
								<effect>
									<name>Time Remap</name>
									<effectid>timeremap</effectid>
									<effectcategory>motion</effectcategory>
									<effecttype>motion</effecttype>
									<mediatype>audio</mediatype>
									<parameter authoringApp="PremierePro">
										<parameterid>variablespeed</parameterid>
										<name>variablespeed</name>
										<valuemin>0</valuemin>
										<valuemax>1</valuemax>
										<value>0</value>
									</parameter>
									<parameter authoringApp="PremierePro">
										<parameterid>speed</parameterid>
										<name>speed</name>
										<valuemin>-100000</valuemin>
										<valuemax>100000</valuemax>
										<value>35</value>
									</parameter>
									<parameter authoringApp="PremierePro">
										<parameterid>reverse</parameterid>
										<name>reverse</name>
										<value>FALSE</value>
									</parameter>
									<parameter authoringApp="PremierePro">
										<parameterid>frameblending</parameterid>
										<name>frameblending</name>
										<value>FALSE</value>
									</parameter>
									<parameter authoringApp="PremierePro">
										<parameterid>graphdict</parameterid>
										<name>graphdict</name>
										<valuemin>0</valuemin>
										<valuemax>16</valuemax>
										<value>0</value>
										<keyframe>
											<when>0</when>
											<value>0</value>
											<speedvirtualkf>TRUE</speedvirtualkf>
											<speedkfstart>TRUE</speedkfstart>
										</keyframe>
										<keyframe>
											<when>8</when>
											<value>2</value>
											<speedvirtualkf>TRUE</speedvirtualkf>
											<speedkfin>TRUE</speedkfin>
										</keyframe>
										<keyframe>
											<when>48</when>
											<value>16</value>
											<speedvirtualkf>TRUE</speedvirtualkf>
											<speedkfout>TRUE</speedkfout>
										</keyframe>
										<interpolation>
											<name>FCPCurve</name>
										</interpolation>
									</parameter>
								</effect>
							</filter>
						<link>
							<linkclipref>clipitem-778</linkclipref>
							<mediatype>audio</mediatype>
							<trackindex>15</trackindex>
							<clipindex>22</clipindex>
							<groupindex>1</groupindex>
						</link>
						<link>
							<linkclipref>clipitem-807</linkclipref>
							<mediatype>audio</mediatype>
							<trackindex>16</trackindex>
							<clipindex>22</clipindex>
							<groupindex>1</groupindex>
						</link>
						<logginginfo>
							<description></description>
							<scene></scene>
							<shottake></shottake>
							<lognote></lognote>
						</logginginfo>
						<comments>
						</comments>
						<labels>
							<label2>Caribbean</label2>
						</labels>
					</clipitem>
					<transitionitem>
						<start>19253</start>
						<end>19266</end>
						<alignment>end-black</alignment>
						<cutPointTicks>132088320000</cutPointTicks>
						<rate>
							<timebase>25</timebase>
							<ntsc>FALSE</ntsc>
						</rate>
						<effect>
							<name>Cross Fade (+3dB)</name>
							<effectid>KGAudioTransCrossFade3dB</effectid>
							<effecttype>transition</effecttype>
							<mediatype>audio</mediatype>
							<wipecode>0</wipecode>
							<wipeaccuracy>100</wipeaccuracy>
							<startratio>0</startratio>
							<endratio>1</endratio>
							<reverse>FALSE</reverse>
						</effect>
					</transitionitem>
					<transitionitem>
						<start>19613</start>
						<end>19663</end>
						<alignment>start-black</alignment>
						<cutPointTicks>0</cutPointTicks>
						<rate>
							<timebase>25</timebase>
							<ntsc>FALSE</ntsc>
						</rate>
						<effect>
							<name>Cross Fade (+3dB)</name>
							<effectid>KGAudioTransCrossFade3dB</effectid>
							<effecttype>transition</effecttype>
							<mediatype>audio</mediatype>
							<wipecode>0</wipecode>
							<wipeaccuracy>100</wipeaccuracy>
							<startratio>0</startratio>
							<endratio>1</endratio>
							<reverse>FALSE</reverse>
						</effect>
					</transitionitem>
					<clipitem id="clipitem-779" premiereChannelType="stereo">
						<masterclipid>masterclip-196</masterclipid>
						<name>HM_102_4_Pirate_Adventures_Harpaz_676292.wav</name>
						<enabled>TRUE</enabled>
						<duration>3075</duration>
						<rate>
							<timebase>25</timebase>
							<ntsc>FALSE</ntsc>
						</rate>
						<start>-1</start>
						<end>19943</end>
						<in>194</in>
						<out>524</out>
						<pproTicksIn>1971164160000</pproTicksIn>
						<pproTicksOut>5324175360000</pproTicksOut>
						<file id="file-180">
							<name>HM_102_4_Pirate_Adventures_Harpaz_676292.wav</name>
							<pathurl>file://localhost/Volumes/Bingen/Prosjekter/MYNT194016%20WHATS%20COOKING/Musikk/Jan/Universal/Fekting/HM_102_4_Pirate_Adventures_Harpaz_676292.wav</pathurl>
							<rate>
								<timebase>30</timebase>
								<ntsc>TRUE</ntsc>
							</rate>
							<duration>3686</duration>
							<timecode>
								<rate>
									<timebase>30</timebase>
									<ntsc>TRUE</ntsc>
								</rate>
								<string>00;00;00;00</string>
								<frame>0</frame>
								<displayformat>DF</displayformat>
								<reel>
									<name></name>
								</reel>
							</timecode>
							<media>
								<audio>
									<samplecharacteristics>
										<depth>16</depth>
										<samplerate>44100</samplerate>
									</samplecharacteristics>
									<channelcount>2</channelcount>
								</audio>
							</media>
						</file>
						<sourcetrack>
							<mediatype>audio</mediatype>
							<trackindex>1</trackindex>
						</sourcetrack>
							<filter>
								<effect>
									<name>Gain</name>
									<effectid>{61756678, 4761696e, 4b657947}</effectid>
									<effecttype>filter</effecttype>
									<mediatype>audio</mediatype>
									<parameter authoringApp="PremierePro">
										<parameterid>Gain(dB)</parameterid>
										<name>Gain(dB)</name>
										<valuemin>-96</valuemin>
										<valuemax>96</valuemax>
										<value>-15</value>
									</parameter>
								</effect>
							</filter>
						<link>
							<linkclipref>clipitem-779</linkclipref>
							<mediatype>audio</mediatype>
							<trackindex>15</trackindex>
							<clipindex>25</clipindex>
							<groupindex>1</groupindex>
						</link>
						<link>
							<linkclipref>clipitem-808</linkclipref>
							<mediatype>audio</mediatype>
							<trackindex>16</trackindex>
							<clipindex>25</clipindex>
							<groupindex>1</groupindex>
						</link>
						<logginginfo>
							<description></description>
							<scene></scene>
							<shottake></shottake>
							<lognote></lognote>
						</logginginfo>
						<labels>
							<label2>Caribbean</label2>
						</labels>
					</clipitem>
					<clipitem id="clipitem-780" premiereChannelType="stereo">
						<masterclipid>masterclip-196</masterclipid>
						<name>HM_102_4_Pirate_Adventures_Harpaz_676292.wav</name>
						<enabled>TRUE</enabled>
						<duration>3075</duration>
						<rate>
							<timebase>25</timebase>
							<ntsc>FALSE</ntsc>
						</rate>
						<start>19943</start>
						<end>19979</end>
						<in>524</in>
						<out>560</out>
						<pproTicksIn>5324175360000</pproTicksIn>
						<pproTicksOut>5689958400000</pproTicksOut>
						<file id="file-180"/>
						<sourcetrack>
							<mediatype>audio</mediatype>
							<trackindex>1</trackindex>
						</sourcetrack>
							<filter>
								<effect>
									<name>Gain</name>
									<effectid>{61756678, 4761696e, 4b657947}</effectid>
									<effecttype>filter</effecttype>
									<mediatype>audio</mediatype>
									<parameter authoringApp="PremierePro">
										<parameterid>Gain(dB)</parameterid>
										<name>Gain(dB)</name>
										<valuemin>-96</valuemin>
										<valuemax>96</valuemax>
										<value>-21</value>
									</parameter>
								</effect>
							</filter>
						<link>
							<linkclipref>clipitem-780</linkclipref>
							<mediatype>audio</mediatype>
							<trackindex>15</trackindex>
							<clipindex>26</clipindex>
							<groupindex>1</groupindex>
						</link>
						<link>
							<linkclipref>clipitem-809</linkclipref>
							<mediatype>audio</mediatype>
							<trackindex>16</trackindex>
							<clipindex>26</clipindex>
							<groupindex>1</groupindex>
						</link>
						<logginginfo>
							<description></description>
							<scene></scene>
							<shottake></shottake>
							<lognote></lognote>
						</logginginfo>
						<labels>
							<label2>Caribbean</label2>
						</labels>
					</clipitem>
					<clipitem id="clipitem-781" premiereChannelType="stereo">
						<masterclipid>masterclip-196</masterclipid>
						<name>HM_102_4_Pirate_Adventures_Harpaz_676292.wav</name>
						<enabled>TRUE</enabled>
						<duration>3075</duration>
						<rate>
							<timebase>25</timebase>
							<ntsc>FALSE</ntsc>
						</rate>
						<start>19979</start>
						<end>20286</end>
						<in>560</in>
						<out>867</out>
						<pproTicksIn>5689958400000</pproTicksIn>
						<pproTicksOut>8809274880000</pproTicksOut>
						<file id="file-180"/>
						<sourcetrack>
							<mediatype>audio</mediatype>
							<trackindex>1</trackindex>
						</sourcetrack>
							<filter>
								<effect>
									<name>Gain</name>
									<effectid>{61756678, 4761696e, 4b657947}</effectid>
									<effecttype>filter</effecttype>
									<mediatype>audio</mediatype>
									<parameter authoringApp="PremierePro">
										<parameterid>Gain(dB)</parameterid>
										<name>Gain(dB)</name>
										<valuemin>-96</valuemin>
										<valuemax>96</valuemax>
										<value>-15</value>
									</parameter>
								</effect>
							</filter>
						<link>
							<linkclipref>clipitem-781</linkclipref>
							<mediatype>audio</mediatype>
							<trackindex>15</trackindex>
							<clipindex>27</clipindex>
							<groupindex>1</groupindex>
						</link>
						<link>
							<linkclipref>clipitem-810</linkclipref>
							<mediatype>audio</mediatype>
							<trackindex>16</trackindex>
							<clipindex>27</clipindex>
							<groupindex>1</groupindex>
						</link>
						<logginginfo>
							<description></description>
							<scene></scene>
							<shottake></shottake>
							<lognote></lognote>
						</logginginfo>
						<labels>
							<label2>Caribbean</label2>
						</labels>
					</clipitem>
					<clipitem id="clipitem-782" premiereChannelType="stereo">
						<masterclipid>masterclip-196</masterclipid>
						<name>HM_102_4_Pirate_Adventures_Harpaz_676292.wav</name>
						<enabled>TRUE</enabled>
						<duration>3075</duration>
						<rate>
							<timebase>25</timebase>
							<ntsc>FALSE</ntsc>
						</rate>
						<start>20286</start>
						<end>-1</end>
						<in>867</in>
						<out>883</out>
						<pproTicksIn>8809274880000</pproTicksIn>
						<pproTicksOut>8971845120000</pproTicksOut>
						<file id="file-180"/>
						<sourcetrack>
							<mediatype>audio</mediatype>
							<trackindex>1</trackindex>
						</sourcetrack>
							<filter>
								<effect>
									<name>Gain</name>
									<effectid>{61756678, 4761696e, 4b657947}</effectid>
									<effecttype>filter</effecttype>
									<mediatype>audio</mediatype>
									<parameter authoringApp="PremierePro">
										<parameterid>Gain(dB)</parameterid>
										<name>Gain(dB)</name>
										<valuemin>-96</valuemin>
										<valuemax>96</valuemax>
										<value>-23</value>
									</parameter>
								</effect>
							</filter>
						<link>
							<linkclipref>clipitem-782</linkclipref>
							<mediatype>audio</mediatype>
							<trackindex>15</trackindex>
							<clipindex>28</clipindex>
							<groupindex>1</groupindex>
						</link>
						<link>
							<linkclipref>clipitem-811</linkclipref>
							<mediatype>audio</mediatype>
							<trackindex>16</trackindex>
							<clipindex>28</clipindex>
							<groupindex>1</groupindex>
						</link>
						<logginginfo>
							<description></description>
							<scene></scene>
							<shottake></shottake>
							<lognote></lognote>
						</logginginfo>
						<labels>
							<label2>Caribbean</label2>
						</labels>
					</clipitem>
					<transitionitem>
						<start>20288</start>
						<end>20302</end>
						<alignment>end-black</alignment>
						<cutPointTicks>142248960000</cutPointTicks>
						<rate>
							<timebase>25</timebase>
							<ntsc>FALSE</ntsc>
						</rate>
						<effect>
							<name>Cross Fade (+3dB)</name>
							<effectid>KGAudioTransCrossFade3dB</effectid>
							<effecttype>transition</effecttype>
							<mediatype>audio</mediatype>
							<wipecode>0</wipecode>
							<wipeaccuracy>100</wipeaccuracy>
							<startratio>0</startratio>
							<endratio>1</endratio>
							<reverse>FALSE</reverse>
						</effect>
					</transitionitem>
					<clipitem id="clipitem-783" premiereChannelType="stereo">
						<masterclipid>masterclip-197</masterclipid>
						<name>9329__tigersound__pigeon-wings.wav</name>
						<enabled>TRUE</enabled>
						<duration>41</duration>
						<rate>
							<timebase>25</timebase>
							<ntsc>FALSE</ntsc>
						</rate>
						<start>20554</start>
						<end>20594</end>
						<in>0</in>
						<out>40</out>
						<pproTicksIn>0</pproTicksIn>
						<pproTicksOut>406425600000</pproTicksOut>
						<file id="file-181">
							<name>9329__tigersound__pigeon-wings.wav</name>
							<pathurl>file://localhost/Volumes/Bingen/Prosjekter/MYNT194016%20WHATS%20COOKING/Lydeffekter/Jan%20Lydeffekter/9329__tigersound__pigeon-wings.wav</pathurl>
							<rate>
								<timebase>30</timebase>
								<ntsc>TRUE</ntsc>
							</rate>
							<duration>50</duration>
							<timecode>
								<rate>
									<timebase>30</timebase>
									<ntsc>TRUE</ntsc>
								</rate>
								<string>00;00;00;00</string>
								<frame>0</frame>
								<displayformat>DF</displayformat>
								<reel>
									<name></name>
								</reel>
							</timecode>
							<media>
								<audio>
									<samplecharacteristics>
										<depth>16</depth>
										<samplerate>48000</samplerate>
									</samplecharacteristics>
									<channelcount>2</channelcount>
								</audio>
							</media>
						</file>
						<sourcetrack>
							<mediatype>audio</mediatype>
							<trackindex>1</trackindex>
						</sourcetrack>
							<filter>
								<effect>
									<name>Gain</name>
									<effectid>{61756678, 4761696e, 4b657947}</effectid>
									<effecttype>filter</effecttype>
									<mediatype>audio</mediatype>
									<parameter authoringApp="PremierePro">
										<parameterid>Gain(dB)</parameterid>
										<name>Gain(dB)</name>
										<valuemin>-96</valuemin>
										<valuemax>96</valuemax>
										<value>-12</value>
									</parameter>
								</effect>
							</filter>
						<link>
							<linkclipref>clipitem-783</linkclipref>
							<mediatype>audio</mediatype>
							<trackindex>15</trackindex>
							<clipindex>30</clipindex>
							<groupindex>1</groupindex>
						</link>
						<link>
							<linkclipref>clipitem-812</linkclipref>
							<mediatype>audio</mediatype>
							<trackindex>16</trackindex>
							<clipindex>30</clipindex>
							<groupindex>1</groupindex>
						</link>
						<logginginfo>
							<description></description>
							<scene></scene>
							<shottake></shottake>
							<lognote></lognote>
						</logginginfo>
						<labels>
							<label2>Caribbean</label2>
						</labels>
					</clipitem>
					<clipitem id="clipitem-784" premiereChannelType="stereo">
						<masterclipid>masterclip-184</masterclipid>
						<name>175951__freefire66__swordbattle2.wav</name>
						<enabled>TRUE</enabled>
						<duration>2200</duration>
						<rate>
							<timebase>25</timebase>
							<ntsc>FALSE</ntsc>
						</rate>
						<start>20699</start>
						<end>20709</end>
						<in>1120</in>
						<out>1130</out>
						<pproTicksIn>11379916800000</pproTicksIn>
						<pproTicksOut>11481523200000</pproTicksOut>
						<file id="file-168"/>
						<sourcetrack>
							<mediatype>audio</mediatype>
							<trackindex>1</trackindex>
						</sourcetrack>
						<link>
							<linkclipref>clipitem-784</linkclipref>
							<mediatype>audio</mediatype>
							<trackindex>15</trackindex>
							<clipindex>31</clipindex>
							<groupindex>1</groupindex>
						</link>
						<link>
							<linkclipref>clipitem-813</linkclipref>
							<mediatype>audio</mediatype>
							<trackindex>16</trackindex>
							<clipindex>31</clipindex>
							<groupindex>1</groupindex>
						</link>
						<logginginfo>
							<description></description>
							<scene></scene>
							<shottake></shottake>
							<lognote>Made with Sony ACID Music Studio 7.0</lognote>
						</logginginfo>
						<labels>
							<label2>Caribbean</label2>
						</labels>
					</clipitem>
					<clipitem id="clipitem-785" premiereChannelType="stereo">
						<masterclipid>masterclip-184</masterclipid>
						<name>175951__freefire66__swordbattle2.wav</name>
						<enabled>TRUE</enabled>
						<duration>2200</duration>
						<rate>
							<timebase>25</timebase>
							<ntsc>FALSE</ntsc>
						</rate>
						<start>20713</start>
						<end>20723</end>
						<in>1120</in>
						<out>1130</out>
						<pproTicksIn>11379916800000</pproTicksIn>
						<pproTicksOut>11481523200000</pproTicksOut>
						<file id="file-168"/>
						<sourcetrack>
							<mediatype>audio</mediatype>
							<trackindex>1</trackindex>
						</sourcetrack>
						<link>
							<linkclipref>clipitem-785</linkclipref>
							<mediatype>audio</mediatype>
							<trackindex>15</trackindex>
							<clipindex>32</clipindex>
							<groupindex>1</groupindex>
						</link>
						<link>
							<linkclipref>clipitem-814</linkclipref>
							<mediatype>audio</mediatype>
							<trackindex>16</trackindex>
							<clipindex>32</clipindex>
							<groupindex>1</groupindex>
						</link>
						<logginginfo>
							<description></description>
							<scene></scene>
							<shottake></shottake>
							<lognote>Made with Sony ACID Music Studio 7.0</lognote>
						</logginginfo>
						<labels>
							<label2>Caribbean</label2>
						</labels>
					</clipitem>
					<clipitem id="clipitem-786" premiereChannelType="stereo">
						<masterclipid>masterclip-184</masterclipid>
						<name>175951__freefire66__swordbattle2.wav</name>
						<enabled>TRUE</enabled>
						<duration>2200</duration>
						<rate>
							<timebase>25</timebase>
							<ntsc>FALSE</ntsc>
						</rate>
						<start>20743</start>
						<end>20753</end>
						<in>1120</in>
						<out>1130</out>
						<pproTicksIn>11379916800000</pproTicksIn>
						<pproTicksOut>11481523200000</pproTicksOut>
						<file id="file-168"/>
						<sourcetrack>
							<mediatype>audio</mediatype>
							<trackindex>1</trackindex>
						</sourcetrack>
						<link>
							<linkclipref>clipitem-786</linkclipref>
							<mediatype>audio</mediatype>
							<trackindex>15</trackindex>
							<clipindex>33</clipindex>
							<groupindex>1</groupindex>
						</link>
						<link>
							<linkclipref>clipitem-815</linkclipref>
							<mediatype>audio</mediatype>
							<trackindex>16</trackindex>
							<clipindex>33</clipindex>
							<groupindex>1</groupindex>
						</link>
						<logginginfo>
							<description></description>
							<scene></scene>
							<shottake></shottake>
							<lognote>Made with Sony ACID Music Studio 7.0</lognote>
						</logginginfo>
						<labels>
							<label2>Caribbean</label2>
						</labels>
					</clipitem>
					<clipitem id="clipitem-787" premiereChannelType="stereo">
						<masterclipid>masterclip-184</masterclipid>
						<name>175951__freefire66__swordbattle2.wav</name>
						<enabled>TRUE</enabled>
						<duration>2200</duration>
						<rate>
							<timebase>25</timebase>
							<ntsc>FALSE</ntsc>
						</rate>
						<start>20759</start>
						<end>20782</end>
						<in>1605</in>
						<out>1628</out>
						<pproTicksIn>16307827200000</pproTicksIn>
						<pproTicksOut>16541521920000</pproTicksOut>
						<file id="file-168"/>
						<sourcetrack>
							<mediatype>audio</mediatype>
							<trackindex>1</trackindex>
						</sourcetrack>
						<link>
							<linkclipref>clipitem-787</linkclipref>
							<mediatype>audio</mediatype>
							<trackindex>15</trackindex>
							<clipindex>34</clipindex>
							<groupindex>1</groupindex>
						</link>
						<link>
							<linkclipref>clipitem-816</linkclipref>
							<mediatype>audio</mediatype>
							<trackindex>16</trackindex>
							<clipindex>34</clipindex>
							<groupindex>1</groupindex>
						</link>
						<logginginfo>
							<description></description>
							<scene></scene>
							<shottake></shottake>
							<lognote>Made with Sony ACID Music Studio 7.0</lognote>
						</logginginfo>
						<labels>
							<label2>Caribbean</label2>
						</labels>
					</clipitem>
					<clipitem id="clipitem-788" premiereChannelType="mono">
						<masterclipid>masterclip-185</masterclipid>
						<name>107589__qat__unsheath-sword.wav</name>
						<enabled>TRUE</enabled>
						<duration>25</duration>
						<rate>
							<timebase>25</timebase>
							<ntsc>FALSE</ntsc>
						</rate>
						<start>20881</start>
						<end>20901</end>
						<in>0</in>
						<out>20</out>
						<pproTicksIn>0</pproTicksIn>
						<pproTicksOut>203212800000</pproTicksOut>
						<file id="file-169"/>
						<sourcetrack>
							<mediatype>audio</mediatype>
							<trackindex>1</trackindex>
						</sourcetrack>
						<logginginfo>
							<description></description>
							<scene></scene>
							<shottake></shottake>
							<lognote>mixture of 30244-streety and 56264-Q.K </lognote>
						</logginginfo>
						<labels>
							<label2>Caribbean</label2>
						</labels>
					</clipitem>
					<clipitem id="clipitem-789" premiereChannelType="stereo">
						<masterclipid>masterclip-198</masterclipid>
						<name>157792__soundcollectah__airpipe-swoosh-02.wav</name>
						<enabled>TRUE</enabled>
						<duration>114</duration>
						<rate>
							<timebase>25</timebase>
							<ntsc>FALSE</ntsc>
						</rate>
						<start>23478</start>
						<end>23545</end>
						<in>0</in>
						<out>67</out>
						<pproTicksIn>0</pproTicksIn>
						<pproTicksOut>680762880000</pproTicksOut>
						<file id="file-182">
							<name>157792__soundcollectah__airpipe-swoosh-02.wav</name>
							<pathurl>file://localhost/Volumes/Bingen/Prosjekter/MYNT194016%20WHATS%20COOKING/Lydeffekter/Jan%20Lydeffekter/Woosh/157792__soundcollectah__airpipe-swoosh-02.wav</pathurl>
							<rate>
								<timebase>30</timebase>
								<ntsc>TRUE</ntsc>
							</rate>
							<duration>137</duration>
							<timecode>
								<rate>
									<timebase>30</timebase>
									<ntsc>TRUE</ntsc>
								</rate>
								<string>00;00;00;00</string>
								<frame>0</frame>
								<displayformat>DF</displayformat>
								<reel>
									<name></name>
								</reel>
							</timecode>
							<media>
								<audio>
									<samplecharacteristics>
										<depth>16</depth>
										<samplerate>48000</samplerate>
									</samplecharacteristics>
									<channelcount>2</channelcount>
								</audio>
							</media>
						</file>
						<sourcetrack>
							<mediatype>audio</mediatype>
							<trackindex>1</trackindex>
						</sourcetrack>
							<filter>
								<effect>
									<name>Gain</name>
									<effectid>{61756678, 4761696e, 4b657947}</effectid>
									<effecttype>filter</effecttype>
									<mediatype>audio</mediatype>
									<parameter authoringApp="PremierePro">
										<parameterid>Gain(dB)</parameterid>
										<name>Gain(dB)</name>
										<valuemin>-96</valuemin>
										<valuemax>96</valuemax>
										<value>-15</value>
									</parameter>
								</effect>
							</filter>
						<link>
							<linkclipref>clipitem-789</linkclipref>
							<mediatype>audio</mediatype>
							<trackindex>15</trackindex>
							<clipindex>36</clipindex>
							<groupindex>1</groupindex>
						</link>
						<link>
							<linkclipref>clipitem-817</linkclipref>
							<mediatype>audio</mediatype>
							<trackindex>16</trackindex>
							<clipindex>35</clipindex>
							<groupindex>1</groupindex>
						</link>
						<logginginfo>
							<description></description>
							<scene></scene>
							<shottake></shottake>
							<lognote></lognote>
						</logginginfo>
						<labels>
							<label2>Caribbean</label2>
						</labels>
					</clipitem>
					<clipitem id="clipitem-790" premiereChannelType="mono">
						<masterclipid>masterclip-130</masterclipid>
						<name>Clip0006.mov</name>
						<enabled>TRUE</enabled>
						<duration>18456</duration>
						<rate>
							<timebase>25</timebase>
							<ntsc>FALSE</ntsc>
						</rate>
						<start>23760</start>
						<end>23819</end>
						<in>13327</in>
						<out>13386</out>
						<pproTicksIn>135410849280000</pproTicksIn>
						<pproTicksOut>136010327040000</pproTicksOut>
						<file id="file-117"/>
						<sourcetrack>
							<mediatype>audio</mediatype>
							<trackindex>2</trackindex>
						</sourcetrack>
							<marker>
								<comment></comment>
								<name>klapp</name>
								<in>273</in>
								<out>-1</out>
							</marker>
						<link>
							<linkclipref>clipitem-724</linkclipref>
							<mediatype>audio</mediatype>
							<trackindex>13</trackindex>
							<clipindex>54</clipindex>
							<groupindex>1</groupindex>
						</link>
						<link>
							<linkclipref>clipitem-790</linkclipref>
							<mediatype>audio</mediatype>
							<trackindex>15</trackindex>
							<clipindex>37</clipindex>
							<groupindex>1</groupindex>
						</link>
						<logginginfo>
							<description>boksT01 M klapp1 sidelinja klapp 2 Jim</description>
							<scene></scene>
							<shottake></shottake>
							<lognote></lognote>
						</logginginfo>
						<labels>
							<label2>Iris</label2>
						</labels>
					</clipitem>
					<clipitem id="clipitem-791" premiereChannelType="mono">
						<masterclipid>masterclip-128</masterclipid>
						<name>VBboks-kamp-T01-Multicam</name>
						<enabled>TRUE</enabled>
						<duration>45778</duration>
						<rate>
							<timebase>25</timebase>
							<ntsc>FALSE</ntsc>
						</rate>
						<start>24042</start>
						<end>24120</end>
						<in>8551</in>
						<out>8629</out>
						<pproTicksIn>86883632640000</pproTicksIn>
						<pproTicksOut>87676162560000</pproTicksOut>
						<sequence id="sequence-11"/>
						<labels>
							<label2>Forest</label2>
						</labels>
					</clipitem>
					<clipitem id="clipitem-792" premiereChannelType="mono">
						<masterclipid>masterclip-128</masterclipid>
						<name>VBboks-kamp-T01-Multicam</name>
						<enabled>TRUE</enabled>
						<duration>45778</duration>
						<rate>
							<timebase>25</timebase>
							<ntsc>FALSE</ntsc>
						</rate>
						<start>24487</start>
						<end>24499</end>
						<in>7416</in>
						<out>7428</out>
						<pproTicksIn>75351306240000</pproTicksIn>
						<pproTicksOut>75473233920000</pproTicksOut>
						<sequence id="sequence-11"/>
						<link>
							<linkclipref>clipitem-589</linkclipref>
							<mediatype>audio</mediatype>
							<trackindex>9</trackindex>
							<clipindex>29</clipindex>
							<groupindex>1</groupindex>
						</link>
						<link>
							<linkclipref>clipitem-653</linkclipref>
							<mediatype>audio</mediatype>
							<trackindex>11</trackindex>
							<clipindex>41</clipindex>
							<groupindex>1</groupindex>
						</link>
						<link>
							<linkclipref>clipitem-726</linkclipref>
							<mediatype>audio</mediatype>
							<trackindex>13</trackindex>
							<clipindex>56</clipindex>
							<groupindex>1</groupindex>
						</link>
						<link>
							<linkclipref>clipitem-792</linkclipref>
							<mediatype>audio</mediatype>
							<trackindex>15</trackindex>
							<clipindex>39</clipindex>
							<groupindex>1</groupindex>
						</link>
						<labels>
							<label2>Forest</label2>
						</labels>
					</clipitem>
					<clipitem id="clipitem-793" premiereChannelType="mono">
						<masterclipid>masterclip-199</masterclipid>
						<name>134874__adough1__punches-l.wav</name>
						<enabled>TRUE</enabled>
						<duration>105</duration>
						<rate>
							<timebase>25</timebase>
							<ntsc>FALSE</ntsc>
						</rate>
						<start>29108</start>
						<end>29116</end>
						<in>97</in>
						<out>105</out>
						<pproTicksIn>985582080000</pproTicksIn>
						<pproTicksOut>1066867200000</pproTicksOut>
						<file id="file-183">
							<name>134874__adough1__punches-l.wav</name>
							<pathurl>file://localhost/Volumes/Bingen/Prosjekter/MYNT194016%20WHATS%20COOKING/Lydeffekter/Jan%20Lydeffekter/134874__adough1__punches-l.wav</pathurl>
							<rate>
								<timebase>30</timebase>
								<ntsc>TRUE</ntsc>
							</rate>
							<duration>126</duration>
							<timecode>
								<rate>
									<timebase>30</timebase>
									<ntsc>TRUE</ntsc>
								</rate>
								<string>00;00;00;00</string>
								<frame>0</frame>
								<displayformat>DF</displayformat>
								<reel>
									<name></name>
								</reel>
							</timecode>
							<media>
								<audio>
									<samplecharacteristics>
										<depth>16</depth>
										<samplerate>48000</samplerate>
									</samplecharacteristics>
									<channelcount>1</channelcount>
									<audiochannel>
										<sourcechannel>1</sourcechannel>
									</audiochannel>
								</audio>
							</media>
						</file>
						<sourcetrack>
							<mediatype>audio</mediatype>
							<trackindex>1</trackindex>
						</sourcetrack>
							<filter>
								<effect>
									<name>Gain</name>
									<effectid>{61756678, 4761696e, 4b657947}</effectid>
									<effecttype>filter</effecttype>
									<mediatype>audio</mediatype>
									<parameter authoringApp="PremierePro">
										<parameterid>Gain(dB)</parameterid>
										<name>Gain(dB)</name>
										<valuemin>-96</valuemin>
										<valuemax>96</valuemax>
										<value>3</value>
									</parameter>
								</effect>
							</filter>
						<logginginfo>
							<description></description>
							<scene></scene>
							<shottake></shottake>
							<lognote></lognote>
						</logginginfo>
						<labels>
							<label2>Mango</label2>
						</labels>
					</clipitem>
					<clipitem id="clipitem-794" premiereChannelType="stereo">
						<masterclipid>masterclip-200</masterclipid>
						<name>74920__juskiddink__bell6.wav</name>
						<enabled>TRUE</enabled>
						<duration>148</duration>
						<rate>
							<timebase>25</timebase>
							<ntsc>FALSE</ntsc>
						</rate>
						<start>29202</start>
						<end>-1</end>
						<in>0</in>
						<out>11</out>
						<pproTicksIn>0</pproTicksIn>
						<pproTicksOut>111767040000</pproTicksOut>
						<file id="file-184">
							<name>74920__juskiddink__bell6.wav</name>
							<pathurl>file://localhost/Volumes/Bingen/Prosjekter/MYNT194016%20WHATS%20COOKING/Lydeffekter/Jan%20Lydeffekter/74920__juskiddink__bell6.wav</pathurl>
							<rate>
								<timebase>30</timebase>
								<ntsc>TRUE</ntsc>
							</rate>
							<duration>177</duration>
							<timecode>
								<rate>
									<timebase>30</timebase>
									<ntsc>TRUE</ntsc>
								</rate>
								<string>00;00;00;00</string>
								<frame>0</frame>
								<displayformat>DF</displayformat>
								<reel>
									<name></name>
								</reel>
							</timecode>
							<media>
								<audio>
									<samplecharacteristics>
										<depth>16</depth>
										<samplerate>48000</samplerate>
									</samplecharacteristics>
									<channelcount>2</channelcount>
								</audio>
							</media>
						</file>
						<sourcetrack>
							<mediatype>audio</mediatype>
							<trackindex>1</trackindex>
						</sourcetrack>
							<filter>
								<effect>
									<name>Gain</name>
									<effectid>{61756678, 4761696e, 4b657947}</effectid>
									<effecttype>filter</effecttype>
									<mediatype>audio</mediatype>
									<parameter authoringApp="PremierePro">
										<parameterid>Gain(dB)</parameterid>
										<name>Gain(dB)</name>
										<valuemin>-96</valuemin>
										<valuemax>96</valuemax>
										<value>-14</value>
									</parameter>
								</effect>
							</filter>
						<link>
							<linkclipref>clipitem-794</linkclipref>
							<mediatype>audio</mediatype>
							<trackindex>15</trackindex>
							<clipindex>41</clipindex>
							<groupindex>1</groupindex>
						</link>
						<link>
							<linkclipref>clipitem-818</linkclipref>
							<mediatype>audio</mediatype>
							<trackindex>16</trackindex>
							<clipindex>36</clipindex>
							<groupindex>1</groupindex>
						</link>
						<logginginfo>
							<description></description>
							<scene></scene>
							<shottake></shottake>
							<lognote></lognote>
						</logginginfo>
						<labels>
							<label2>Caribbean</label2>
						</labels>
					</clipitem>
					<transitionitem>
						<start>29206</start>
						<end>29213</end>
						<alignment>center</alignment>
						<cutPointTicks>30481920000</cutPointTicks>
						<rate>
							<timebase>25</timebase>
							<ntsc>FALSE</ntsc>
						</rate>
						<effect>
							<name>Cross Fade (+3dB)</name>
							<effectid>KGAudioTransCrossFade3dB</effectid>
							<effecttype>transition</effecttype>
							<mediatype>audio</mediatype>
							<wipecode>0</wipecode>
							<wipeaccuracy>100</wipeaccuracy>
							<startratio>0</startratio>
							<endratio>1</endratio>
							<reverse>FALSE</reverse>
						</effect>
					</transitionitem>
					<clipitem id="clipitem-795" premiereChannelType="stereo">
						<masterclipid>masterclip-200</masterclipid>
						<name>74920__juskiddink__bell6.wav</name>
						<enabled>TRUE</enabled>
						<duration>148</duration>
						<rate>
							<timebase>25</timebase>
							<ntsc>FALSE</ntsc>
						</rate>
						<start>-1</start>
						<end>29299</end>
						<in>4</in>
						<out>97</out>
						<pproTicksIn>40642560000</pproTicksIn>
						<pproTicksOut>985582080000</pproTicksOut>
						<file id="file-184"/>
						<sourcetrack>
							<mediatype>audio</mediatype>
							<trackindex>1</trackindex>
						</sourcetrack>
							<filter>
								<effect>
									<name>Gain</name>
									<effectid>{61756678, 4761696e, 4b657947}</effectid>
									<effecttype>filter</effecttype>
									<mediatype>audio</mediatype>
									<parameter authoringApp="PremierePro">
										<parameterid>Gain(dB)</parameterid>
										<name>Gain(dB)</name>
										<valuemin>-96</valuemin>
										<valuemax>96</valuemax>
										<value>-24</value>
									</parameter>
								</effect>
							</filter>
						<link>
							<linkclipref>clipitem-795</linkclipref>
							<mediatype>audio</mediatype>
							<trackindex>15</trackindex>
							<clipindex>43</clipindex>
							<groupindex>1</groupindex>
						</link>
						<link>
							<linkclipref>clipitem-819</linkclipref>
							<mediatype>audio</mediatype>
							<trackindex>16</trackindex>
							<clipindex>38</clipindex>
							<groupindex>1</groupindex>
						</link>
						<logginginfo>
							<description></description>
							<scene></scene>
							<shottake></shottake>
							<lognote></lognote>
						</logginginfo>
						<labels>
							<label2>Caribbean</label2>
						</labels>
					</clipitem>
					<enabled>TRUE</enabled>
					<locked>FALSE</locked>
					<outputchannelindex>1</outputchannelindex>
				</track>
				<track TL.SQTrackAudioKeyframeStyle="0" TL.SQTrackShy="0" TL.SQTrackExpandedHeight="35" TL.SQTrackExpanded="1" MZ.TrackTargeted="1" PannerCurrentValue="0.5" PannerIsInverted="true" PannerStartKeyframe="-91445760000000000,0.5,0,0,0,0,0,0" PannerName="Balance" currentExplodedTrackIndex="1" totalExplodedTrackCount="2" premiereTrackType="Stereo">
					<clipitem id="clipitem-796" premiereChannelType="stereo">
						<masterclipid>masterclip-192</masterclipid>
						<name>BR_586_5_Unstoppable_Force_Britton_858425.wav</name>
						<enabled>TRUE</enabled>
						<duration>3237</duration>
						<rate>
							<timebase>25</timebase>
							<ntsc>FALSE</ntsc>
						</rate>
						<start>0</start>
						<end>277</end>
						<in>134</in>
						<out>411</out>
						<pproTicksIn>1361525760000</pproTicksIn>
						<pproTicksOut>4176023040000</pproTicksOut>
						<file id="file-176"/>
						<sourcetrack>
							<mediatype>audio</mediatype>
							<trackindex>2</trackindex>
						</sourcetrack>
							<filter>
								<effect>
									<name>Gain</name>
									<effectid>{61756678, 4761696e, 4b657947}</effectid>
									<effecttype>filter</effecttype>
									<mediatype>audio</mediatype>
									<parameter authoringApp="PremierePro">
										<parameterid>Gain(dB)</parameterid>
										<name>Gain(dB)</name>
										<valuemin>-96</valuemin>
										<valuemax>96</valuemax>
										<value>-22</value>
									</parameter>
								</effect>
							</filter>
						<link>
							<linkclipref>clipitem-767</linkclipref>
							<mediatype>audio</mediatype>
							<trackindex>15</trackindex>
							<clipindex>1</clipindex>
							<groupindex>1</groupindex>
						</link>
						<link>
							<linkclipref>clipitem-796</linkclipref>
							<mediatype>audio</mediatype>
							<trackindex>16</trackindex>
							<clipindex>1</clipindex>
							<groupindex>1</groupindex>
						</link>
						<logginginfo>
							<description></description>
							<scene></scene>
							<shottake></shottake>
							<lognote></lognote>
						</logginginfo>
						<labels>
							<label2>Caribbean</label2>
						</labels>
					</clipitem>
					<clipitem id="clipitem-797" premiereChannelType="stereo">
						<masterclipid>masterclip-192</masterclipid>
						<name>BR_586_5_Unstoppable_Force_Britton_858425.wav</name>
						<enabled>TRUE</enabled>
						<duration>3237</duration>
						<rate>
							<timebase>25</timebase>
							<ntsc>FALSE</ntsc>
						</rate>
						<start>277</start>
						<end>-1</end>
						<in>2945</in>
						<out>3012</out>
						<pproTicksIn>29923084800000</pproTicksIn>
						<pproTicksOut>30603847680000</pproTicksOut>
						<file id="file-176"/>
						<sourcetrack>
							<mediatype>audio</mediatype>
							<trackindex>2</trackindex>
						</sourcetrack>
							<filter>
								<effect>
									<name>Gain</name>
									<effectid>{61756678, 4761696e, 4b657947}</effectid>
									<effecttype>filter</effecttype>
									<mediatype>audio</mediatype>
									<parameter authoringApp="PremierePro">
										<parameterid>Gain(dB)</parameterid>
										<name>Gain(dB)</name>
										<valuemin>-96</valuemin>
										<valuemax>96</valuemax>
										<value>-22</value>
									</parameter>
								</effect>
							</filter>
						<link>
							<linkclipref>clipitem-768</linkclipref>
							<mediatype>audio</mediatype>
							<trackindex>15</trackindex>
							<clipindex>2</clipindex>
							<groupindex>1</groupindex>
						</link>
						<link>
							<linkclipref>clipitem-797</linkclipref>
							<mediatype>audio</mediatype>
							<trackindex>16</trackindex>
							<clipindex>2</clipindex>
							<groupindex>1</groupindex>
						</link>
						<logginginfo>
							<description></description>
							<scene></scene>
							<shottake></shottake>
							<lognote></lognote>
						</logginginfo>
						<labels>
							<label2>Caribbean</label2>
						</labels>
					</clipitem>
					<transitionitem>
						<start>315</start>
						<end>344</end>
						<alignment>end-black</alignment>
						<cutPointTicks>294658560000</cutPointTicks>
						<rate>
							<timebase>25</timebase>
							<ntsc>FALSE</ntsc>
						</rate>
						<effect>
							<name>Cross Fade (+3dB)</name>
							<effectid>KGAudioTransCrossFade3dB</effectid>
							<effecttype>transition</effecttype>
							<mediatype>audio</mediatype>
							<wipecode>0</wipecode>
							<wipeaccuracy>100</wipeaccuracy>
							<startratio>0</startratio>
							<endratio>1</endratio>
							<reverse>FALSE</reverse>
						</effect>
					</transitionitem>
					<clipitem id="clipitem-798" premiereChannelType="stereo">
						<masterclipid>masterclip-193</masterclipid>
						<name>MSTR_239_17_Payroll_A_Shippy_655909.wav</name>
						<enabled>TRUE</enabled>
						<duration>5028</duration>
						<rate>
							<timebase>25</timebase>
							<ntsc>FALSE</ntsc>
						</rate>
						<start>1337</start>
						<end>-1</end>
						<in>9</in>
						<out>1985</out>
						<pproTicksIn>91445760000</pproTicksIn>
						<pproTicksOut>20168870400000</pproTicksOut>
						<file id="file-177"/>
						<sourcetrack>
							<mediatype>audio</mediatype>
							<trackindex>2</trackindex>
						</sourcetrack>
							<filter>
								<effect>
									<name>Gain</name>
									<effectid>{61756678, 4761696e, 4b657947}</effectid>
									<effecttype>filter</effecttype>
									<mediatype>audio</mediatype>
									<parameter authoringApp="PremierePro">
										<parameterid>Gain(dB)</parameterid>
										<name>Gain(dB)</name>
										<valuemin>-96</valuemin>
										<valuemax>96</valuemax>
										<value>-35</value>
									</parameter>
								</effect>
							</filter>
						<link>
							<linkclipref>clipitem-769</linkclipref>
							<mediatype>audio</mediatype>
							<trackindex>15</trackindex>
							<clipindex>4</clipindex>
							<groupindex>1</groupindex>
						</link>
						<link>
							<linkclipref>clipitem-798</linkclipref>
							<mediatype>audio</mediatype>
							<trackindex>16</trackindex>
							<clipindex>4</clipindex>
							<groupindex>1</groupindex>
						</link>
						<logginginfo>
							<description></description>
							<scene></scene>
							<shottake></shottake>
							<lognote></lognote>
						</logginginfo>
						<labels>
							<label2>Caribbean</label2>
						</labels>
					</clipitem>
					<transitionitem>
						<start>3260</start>
						<end>3313</end>
						<alignment>center</alignment>
						<cutPointTicks>264176640000</cutPointTicks>
						<rate>
							<timebase>25</timebase>
							<ntsc>FALSE</ntsc>
						</rate>
						<effect>
							<name>Cross Fade (+3dB)</name>
							<effectid>KGAudioTransCrossFade3dB</effectid>
							<effecttype>transition</effecttype>
							<mediatype>audio</mediatype>
							<wipecode>0</wipecode>
							<wipeaccuracy>100</wipeaccuracy>
							<startratio>0</startratio>
							<endratio>1</endratio>
							<reverse>FALSE</reverse>
						</effect>
					</transitionitem>
					<clipitem id="clipitem-799" premiereChannelType="stereo">
						<masterclipid>masterclip-193</masterclipid>
						<name>MSTR_239_17_Payroll_A_Shippy_655909.wav</name>
						<enabled>TRUE</enabled>
						<duration>5028</duration>
						<rate>
							<timebase>25</timebase>
							<ntsc>FALSE</ntsc>
						</rate>
						<start>-1</start>
						<end>-1</end>
						<in>1999</in>
						<out>2440</out>
						<pproTicksIn>20311119360000</pproTicksIn>
						<pproTicksOut>24791961600000</pproTicksOut>
						<file id="file-177"/>
						<sourcetrack>
							<mediatype>audio</mediatype>
							<trackindex>2</trackindex>
						</sourcetrack>
							<filter>
								<effect>
									<name>Gain</name>
									<effectid>{61756678, 4761696e, 4b657947}</effectid>
									<effecttype>filter</effecttype>
									<mediatype>audio</mediatype>
									<parameter authoringApp="PremierePro">
										<parameterid>Gain(dB)</parameterid>
										<name>Gain(dB)</name>
										<valuemin>-96</valuemin>
										<valuemax>96</valuemax>
										<value>-15</value>
									</parameter>
								</effect>
							</filter>
						<link>
							<linkclipref>clipitem-770</linkclipref>
							<mediatype>audio</mediatype>
							<trackindex>15</trackindex>
							<clipindex>6</clipindex>
							<groupindex>1</groupindex>
						</link>
						<link>
							<linkclipref>clipitem-799</linkclipref>
							<mediatype>audio</mediatype>
							<trackindex>16</trackindex>
							<clipindex>6</clipindex>
							<groupindex>1</groupindex>
						</link>
						<logginginfo>
							<description></description>
							<scene></scene>
							<shottake></shottake>
							<lognote></lognote>
						</logginginfo>
						<labels>
							<label2>Caribbean</label2>
						</labels>
					</clipitem>
					<transitionitem>
						<start>3479</start>
						<end>3701</end>
						<alignment>end-black</alignment>
						<cutPointTicks>2255662080000</cutPointTicks>
						<rate>
							<timebase>25</timebase>
							<ntsc>FALSE</ntsc>
						</rate>
						<effect>
							<name>Cross Fade (+3dB)</name>
							<effectid>KGAudioTransCrossFade3dB</effectid>
							<effecttype>transition</effecttype>
							<mediatype>audio</mediatype>
							<wipecode>0</wipecode>
							<wipeaccuracy>100</wipeaccuracy>
							<startratio>0</startratio>
							<endratio>1</endratio>
							<reverse>FALSE</reverse>
						</effect>
					</transitionitem>
					<clipitem id="clipitem-800" premiereChannelType="stereo">
						<masterclipid>masterclip-194</masterclipid>
						<name>RNM_50_2_California_Ives_714152.wav</name>
						<enabled>TRUE</enabled>
						<duration>5798</duration>
						<rate>
							<timebase>25</timebase>
							<ntsc>FALSE</ntsc>
						</rate>
						<start>6310</start>
						<end>-1</end>
						<in>0</in>
						<out>1168</out>
						<pproTicksIn>0</pproTicksIn>
						<pproTicksOut>11867627520000</pproTicksOut>
						<file id="file-178"/>
						<sourcetrack>
							<mediatype>audio</mediatype>
							<trackindex>2</trackindex>
						</sourcetrack>
							<filter>
								<effect>
									<name>Gain</name>
									<effectid>{61756678, 4761696e, 4b657947}</effectid>
									<effecttype>filter</effecttype>
									<mediatype>audio</mediatype>
									<parameter authoringApp="PremierePro">
										<parameterid>Gain(dB)</parameterid>
										<name>Gain(dB)</name>
										<valuemin>-96</valuemin>
										<valuemax>96</valuemax>
										<value>-30</value>
									</parameter>
								</effect>
							</filter>
						<link>
							<linkclipref>clipitem-771</linkclipref>
							<mediatype>audio</mediatype>
							<trackindex>15</trackindex>
							<clipindex>8</clipindex>
							<groupindex>1</groupindex>
						</link>
						<link>
							<linkclipref>clipitem-800</linkclipref>
							<mediatype>audio</mediatype>
							<trackindex>16</trackindex>
							<clipindex>8</clipindex>
							<groupindex>1</groupindex>
						</link>
						<logginginfo>
							<description></description>
							<scene></scene>
							<shottake></shottake>
							<lognote></lognote>
						</logginginfo>
						<labels>
							<label2>Caribbean</label2>
						</labels>
					</clipitem>
					<transitionitem>
						<start>7465</start>
						<end>7478</end>
						<alignment>center</alignment>
						<cutPointTicks>60963840000</cutPointTicks>
						<rate>
							<timebase>25</timebase>
							<ntsc>FALSE</ntsc>
						</rate>
						<effect>
							<name>Cross Fade (+3dB)</name>
							<effectid>KGAudioTransCrossFade3dB</effectid>
							<effecttype>transition</effecttype>
							<mediatype>audio</mediatype>
							<wipecode>0</wipecode>
							<wipeaccuracy>100</wipeaccuracy>
							<startratio>0</startratio>
							<endratio>1</endratio>
							<reverse>FALSE</reverse>
						</effect>
					</transitionitem>
					<clipitem id="clipitem-801" premiereChannelType="stereo">
						<masterclipid>masterclip-194</masterclipid>
						<name>RNM_50_2_California_Ives_714152.wav</name>
						<enabled>TRUE</enabled>
						<duration>5798</duration>
						<rate>
							<timebase>25</timebase>
							<ntsc>FALSE</ntsc>
						</rate>
						<start>-1</start>
						<end>-1</end>
						<in>1155</in>
						<out>1278</out>
						<pproTicksIn>11735539200000</pproTicksIn>
						<pproTicksOut>12985297920000</pproTicksOut>
						<file id="file-178"/>
						<sourcetrack>
							<mediatype>audio</mediatype>
							<trackindex>2</trackindex>
						</sourcetrack>
							<filter>
								<effect>
									<name>Gain</name>
									<effectid>{61756678, 4761696e, 4b657947}</effectid>
									<effecttype>filter</effecttype>
									<mediatype>audio</mediatype>
									<parameter authoringApp="PremierePro">
										<parameterid>Gain(dB)</parameterid>
										<name>Gain(dB)</name>
										<valuemin>-96</valuemin>
										<valuemax>96</valuemax>
										<value>-38</value>
									</parameter>
								</effect>
							</filter>
						<link>
							<linkclipref>clipitem-772</linkclipref>
							<mediatype>audio</mediatype>
							<trackindex>15</trackindex>
							<clipindex>10</clipindex>
							<groupindex>1</groupindex>
						</link>
						<link>
							<linkclipref>clipitem-801</linkclipref>
							<mediatype>audio</mediatype>
							<trackindex>16</trackindex>
							<clipindex>10</clipindex>
							<groupindex>1</groupindex>
						</link>
						<logginginfo>
							<description></description>
							<scene></scene>
							<shottake></shottake>
							<lognote></lognote>
						</logginginfo>
						<labels>
							<label2>Caribbean</label2>
						</labels>
					</clipitem>
					<transitionitem>
						<start>7575</start>
						<end>7588</end>
						<alignment>center</alignment>
						<cutPointTicks>60963840000</cutPointTicks>
						<rate>
							<timebase>25</timebase>
							<ntsc>FALSE</ntsc>
						</rate>
						<effect>
							<name>Cross Fade (+3dB)</name>
							<effectid>KGAudioTransCrossFade3dB</effectid>
							<effecttype>transition</effecttype>
							<mediatype>audio</mediatype>
							<wipecode>0</wipecode>
							<wipeaccuracy>100</wipeaccuracy>
							<startratio>0</startratio>
							<endratio>1</endratio>
							<reverse>FALSE</reverse>
						</effect>
					</transitionitem>
					<clipitem id="clipitem-802" premiereChannelType="stereo">
						<masterclipid>masterclip-194</masterclipid>
						<name>RNM_50_2_California_Ives_714152.wav</name>
						<enabled>TRUE</enabled>
						<duration>5798</duration>
						<rate>
							<timebase>25</timebase>
							<ntsc>FALSE</ntsc>
						</rate>
						<start>-1</start>
						<end>-1</end>
						<in>1265</in>
						<out>1998</out>
						<pproTicksIn>12853209600000</pproTicksIn>
						<pproTicksOut>20300958720000</pproTicksOut>
						<file id="file-178"/>
						<sourcetrack>
							<mediatype>audio</mediatype>
							<trackindex>2</trackindex>
						</sourcetrack>
							<filter>
								<effect>
									<name>Gain</name>
									<effectid>{61756678, 4761696e, 4b657947}</effectid>
									<effecttype>filter</effecttype>
									<mediatype>audio</mediatype>
									<parameter authoringApp="PremierePro">
										<parameterid>Gain(dB)</parameterid>
										<name>Gain(dB)</name>
										<valuemin>-96</valuemin>
										<valuemax>96</valuemax>
										<value>-30</value>
									</parameter>
								</effect>
							</filter>
						<link>
							<linkclipref>clipitem-773</linkclipref>
							<mediatype>audio</mediatype>
							<trackindex>15</trackindex>
							<clipindex>12</clipindex>
							<groupindex>1</groupindex>
						</link>
						<link>
							<linkclipref>clipitem-802</linkclipref>
							<mediatype>audio</mediatype>
							<trackindex>16</trackindex>
							<clipindex>12</clipindex>
							<groupindex>1</groupindex>
						</link>
						<logginginfo>
							<description></description>
							<scene></scene>
							<shottake></shottake>
							<lognote></lognote>
						</logginginfo>
						<labels>
							<label2>Caribbean</label2>
						</labels>
					</clipitem>
					<transitionitem>
						<start>8207</start>
						<end>8308</end>
						<alignment>end-black</alignment>
						<cutPointTicks>1026224640000</cutPointTicks>
						<rate>
							<timebase>25</timebase>
							<ntsc>FALSE</ntsc>
						</rate>
						<effect>
							<name>Cross Fade (+3dB)</name>
							<effectid>KGAudioTransCrossFade3dB</effectid>
							<effecttype>transition</effecttype>
							<mediatype>audio</mediatype>
							<wipecode>0</wipecode>
							<wipeaccuracy>100</wipeaccuracy>
							<startratio>0</startratio>
							<endratio>1</endratio>
							<reverse>FALSE</reverse>
						</effect>
					</transitionitem>
					<clipitem id="clipitem-803" premiereChannelType="stereo">
						<masterclipid>masterclip-183</masterclipid>
						<name>169867__halgrimm__swoosh.wav</name>
						<enabled>TRUE</enabled>
						<duration>57</duration>
						<rate>
							<timebase>25</timebase>
							<ntsc>FALSE</ntsc>
						</rate>
						<start>10856</start>
						<end>10901</end>
						<in>8</in>
						<out>53</out>
						<pproTicksIn>81285120000</pproTicksIn>
						<pproTicksOut>538513920000</pproTicksOut>
						<file id="file-167"/>
						<sourcetrack>
							<mediatype>audio</mediatype>
							<trackindex>2</trackindex>
						</sourcetrack>
							<filter>
								<effect>
									<name>Gain</name>
									<effectid>{61756678, 4761696e, 4b657947}</effectid>
									<effecttype>filter</effecttype>
									<mediatype>audio</mediatype>
									<parameter authoringApp="PremierePro">
										<parameterid>Gain(dB)</parameterid>
										<name>Gain(dB)</name>
										<valuemin>-96</valuemin>
										<valuemax>96</valuemax>
										<value>-10</value>
									</parameter>
								</effect>
							</filter>
						<link>
							<linkclipref>clipitem-774</linkclipref>
							<mediatype>audio</mediatype>
							<trackindex>15</trackindex>
							<clipindex>14</clipindex>
							<groupindex>1</groupindex>
						</link>
						<link>
							<linkclipref>clipitem-803</linkclipref>
							<mediatype>audio</mediatype>
							<trackindex>16</trackindex>
							<clipindex>14</clipindex>
							<groupindex>1</groupindex>
						</link>
						<logginginfo>
							<description></description>
							<scene></scene>
							<shottake></shottake>
							<lognote></lognote>
						</logginginfo>
						<labels>
							<label2>Caribbean</label2>
						</labels>
					</clipitem>
					<clipitem id="clipitem-804" premiereChannelType="stereo">
						<masterclipid>masterclip-195</masterclipid>
						<name>LO_CD_18_6_East_Of_West_Black_Carpenter_More_321775.wav</name>
						<enabled>TRUE</enabled>
						<duration>5532</duration>
						<rate>
							<timebase>25</timebase>
							<ntsc>FALSE</ntsc>
						</rate>
						<start>15151</start>
						<end>-1</end>
						<in>0</in>
						<out>733</out>
						<pproTicksIn>0</pproTicksIn>
						<pproTicksOut>7447749120000</pproTicksOut>
						<file id="file-179"/>
						<sourcetrack>
							<mediatype>audio</mediatype>
							<trackindex>2</trackindex>
						</sourcetrack>
							<filter>
								<effect>
									<name>Gain</name>
									<effectid>{61756678, 4761696e, 4b657947}</effectid>
									<effecttype>filter</effecttype>
									<mediatype>audio</mediatype>
									<parameter authoringApp="PremierePro">
										<parameterid>Gain(dB)</parameterid>
										<name>Gain(dB)</name>
										<valuemin>-96</valuemin>
										<valuemax>96</valuemax>
										<value>-20</value>
									</parameter>
								</effect>
							</filter>
						<link>
							<linkclipref>clipitem-775</linkclipref>
							<mediatype>audio</mediatype>
							<trackindex>15</trackindex>
							<clipindex>15</clipindex>
							<groupindex>1</groupindex>
						</link>
						<link>
							<linkclipref>clipitem-804</linkclipref>
							<mediatype>audio</mediatype>
							<trackindex>16</trackindex>
							<clipindex>15</clipindex>
							<groupindex>1</groupindex>
						</link>
						<logginginfo>
							<description></description>
							<scene></scene>
							<shottake></shottake>
							<lognote>Jazz breaks, cheeky grooves and downtempo tunes.</lognote>
						</logginginfo>
						<labels>
							<label2>Rose</label2>
						</labels>
					</clipitem>
					<transitionitem>
						<start>15851</start>
						<end>15884</end>
						<alignment>center</alignment>
						<cutPointTicks>162570240000</cutPointTicks>
						<rate>
							<timebase>25</timebase>
							<ntsc>FALSE</ntsc>
						</rate>
						<effect>
							<name>Cross Fade (+3dB)</name>
							<effectid>KGAudioTransCrossFade3dB</effectid>
							<effecttype>transition</effecttype>
							<mediatype>audio</mediatype>
							<wipecode>0</wipecode>
							<wipeaccuracy>100</wipeaccuracy>
							<startratio>0</startratio>
							<endratio>1</endratio>
							<reverse>FALSE</reverse>
						</effect>
					</transitionitem>
					<clipitem id="clipitem-805" premiereChannelType="stereo">
						<masterclipid>masterclip-195</masterclipid>
						<name>LO_CD_18_6_East_Of_West_Black_Carpenter_More_321775.wav</name>
						<enabled>TRUE</enabled>
						<duration>5532</duration>
						<rate>
							<timebase>25</timebase>
							<ntsc>FALSE</ntsc>
						</rate>
						<start>-1</start>
						<end>-1</end>
						<in>700</in>
						<out>1636</out>
						<pproTicksIn>7112448000000</pproTicksIn>
						<pproTicksOut>16622807040000</pproTicksOut>
						<file id="file-179"/>
						<sourcetrack>
							<mediatype>audio</mediatype>
							<trackindex>2</trackindex>
						</sourcetrack>
							<filter>
								<effect>
									<name>Gain</name>
									<effectid>{61756678, 4761696e, 4b657947}</effectid>
									<effecttype>filter</effecttype>
									<mediatype>audio</mediatype>
									<parameter authoringApp="PremierePro">
										<parameterid>Gain(dB)</parameterid>
										<name>Gain(dB)</name>
										<valuemin>-96</valuemin>
										<valuemax>96</valuemax>
										<value>-25</value>
									</parameter>
								</effect>
							</filter>
						<link>
							<linkclipref>clipitem-776</linkclipref>
							<mediatype>audio</mediatype>
							<trackindex>15</trackindex>
							<clipindex>17</clipindex>
							<groupindex>1</groupindex>
						</link>
						<link>
							<linkclipref>clipitem-805</linkclipref>
							<mediatype>audio</mediatype>
							<trackindex>16</trackindex>
							<clipindex>17</clipindex>
							<groupindex>1</groupindex>
						</link>
						<logginginfo>
							<description></description>
							<scene></scene>
							<shottake></shottake>
							<lognote>Jazz breaks, cheeky grooves and downtempo tunes.</lognote>
						</logginginfo>
						<labels>
							<label2>Rose</label2>
						</labels>
					</clipitem>
					<transitionitem>
						<start>16606</start>
						<end>16787</end>
						<alignment>end-black</alignment>
						<cutPointTicks>1839075840000</cutPointTicks>
						<rate>
							<timebase>25</timebase>
							<ntsc>FALSE</ntsc>
						</rate>
						<effect>
							<name>Cross Fade (+3dB)</name>
							<effectid>KGAudioTransCrossFade3dB</effectid>
							<effecttype>transition</effecttype>
							<mediatype>audio</mediatype>
							<wipecode>0</wipecode>
							<wipeaccuracy>100</wipeaccuracy>
							<startratio>0</startratio>
							<endratio>1</endratio>
							<reverse>FALSE</reverse>
						</effect>
					</transitionitem>
					<transitionitem>
						<start>19215</start>
						<end>19228</end>
						<alignment>start-black</alignment>
						<cutPointTicks>0</cutPointTicks>
						<rate>
							<timebase>25</timebase>
							<ntsc>FALSE</ntsc>
						</rate>
						<effect>
							<name>Cross Fade (+3dB)</name>
							<effectid>KGAudioTransCrossFade3dB</effectid>
							<effecttype>transition</effecttype>
							<mediatype>audio</mediatype>
							<wipecode>0</wipecode>
							<wipeaccuracy>100</wipeaccuracy>
							<startratio>0</startratio>
							<endratio>1</endratio>
							<reverse>FALSE</reverse>
						</effect>
					</transitionitem>
					<clipitem id="clipitem-806" premiereChannelType="stereo">
						<masterclipid>masterclip-170</masterclipid>
						<name>30246__streety__sword4.wav</name>
						<enabled>TRUE</enabled>
						<duration>48</duration>
						<rate>
							<timebase>25</timebase>
							<ntsc>FALSE</ntsc>
						</rate>
						<start>-1</start>
						<end>-1</end>
						<in>0</in>
						<out>34</out>
						<pproTicksIn>0</pproTicksIn>
						<pproTicksOut>121419647998</pproTicksOut>
						<file id="file-154"/>
						<sourcetrack>
							<mediatype>audio</mediatype>
							<trackindex>2</trackindex>
						</sourcetrack>
							<filter>
								<effect>
									<name>Time Remap</name>
									<effectid>timeremap</effectid>
									<effectcategory>motion</effectcategory>
									<effecttype>motion</effecttype>
									<mediatype>audio</mediatype>
									<parameter authoringApp="PremierePro">
										<parameterid>variablespeed</parameterid>
										<name>variablespeed</name>
										<valuemin>0</valuemin>
										<valuemax>1</valuemax>
										<value>0</value>
									</parameter>
									<parameter authoringApp="PremierePro">
										<parameterid>speed</parameterid>
										<name>speed</name>
										<valuemin>-100000</valuemin>
										<valuemax>100000</valuemax>
										<value>35</value>
									</parameter>
									<parameter authoringApp="PremierePro">
										<parameterid>reverse</parameterid>
										<name>reverse</name>
										<value>FALSE</value>
									</parameter>
									<parameter authoringApp="PremierePro">
										<parameterid>frameblending</parameterid>
										<name>frameblending</name>
										<value>FALSE</value>
									</parameter>
									<parameter authoringApp="PremierePro">
										<parameterid>graphdict</parameterid>
										<name>graphdict</name>
										<valuemin>0</valuemin>
										<valuemax>16</valuemax>
										<value>0</value>
										<keyframe>
											<when>0</when>
											<value>0</value>
											<speedvirtualkf>TRUE</speedvirtualkf>
											<speedkfin>TRUE</speedkfin>
										</keyframe>
										<keyframe>
											<when>34</when>
											<value>11</value>
											<speedvirtualkf>TRUE</speedvirtualkf>
											<speedkfout>TRUE</speedkfout>
										</keyframe>
										<keyframe>
											<when>48</when>
											<value>16</value>
											<speedvirtualkf>TRUE</speedvirtualkf>
											<speedkfend>TRUE</speedkfend>
										</keyframe>
										<interpolation>
											<name>FCPCurve</name>
										</interpolation>
									</parameter>
								</effect>
							</filter>
						<link>
							<linkclipref>clipitem-777</linkclipref>
							<mediatype>audio</mediatype>
							<trackindex>15</trackindex>
							<clipindex>20</clipindex>
							<groupindex>1</groupindex>
						</link>
						<link>
							<linkclipref>clipitem-806</linkclipref>
							<mediatype>audio</mediatype>
							<trackindex>16</trackindex>
							<clipindex>20</clipindex>
							<groupindex>1</groupindex>
						</link>
						<logginginfo>
							<description></description>
							<scene></scene>
							<shottake></shottake>
							<lognote></lognote>
						</logginginfo>
						<comments>
						</comments>
						<labels>
							<label2>Caribbean</label2>
						</labels>
					</clipitem>
					<transitionitem>
						<start>19229</start>
						<end>19238</end>
						<alignment>center</alignment>
						<cutPointTicks>30481920000</cutPointTicks>
						<rate>
							<timebase>25</timebase>
							<ntsc>FALSE</ntsc>
						</rate>
						<effect>
							<name>Cross Fade (+3dB)</name>
							<effectid>KGAudioTransCrossFade3dB</effectid>
							<effecttype>transition</effecttype>
							<mediatype>audio</mediatype>
							<wipecode>0</wipecode>
							<wipeaccuracy>100</wipeaccuracy>
							<startratio>0</startratio>
							<endratio>1</endratio>
							<reverse>FALSE</reverse>
						</effect>
					</transitionitem>
					<clipitem id="clipitem-807" premiereChannelType="stereo">
						<masterclipid>masterclip-170</masterclipid>
						<name>30246__streety__sword4.wav</name>
						<enabled>TRUE</enabled>
						<duration>48</duration>
						<rate>
							<timebase>25</timebase>
							<ntsc>FALSE</ntsc>
						</rate>
						<start>-1</start>
						<end>-1</end>
						<in>8</in>
						<out>50</out>
						<pproTicksIn>29973888000</pproTicksIn>
						<pproTicksOut>181367423999</pproTicksOut>
						<file id="file-154"/>
						<sourcetrack>
							<mediatype>audio</mediatype>
							<trackindex>2</trackindex>
						</sourcetrack>
							<filter>
								<effect>
									<name>Gain</name>
									<effectid>{61756678, 4761696e, 4b657947}</effectid>
									<effecttype>filter</effecttype>
									<mediatype>audio</mediatype>
									<parameter authoringApp="PremierePro">
										<parameterid>Gain(dB)</parameterid>
										<name>Gain(dB)</name>
										<valuemin>-96</valuemin>
										<valuemax>96</valuemax>
										<value>-20</value>
									</parameter>
								</effect>
							</filter>
							<filter>
								<effect>
									<name>Time Remap</name>
									<effectid>timeremap</effectid>
									<effectcategory>motion</effectcategory>
									<effecttype>motion</effecttype>
									<mediatype>audio</mediatype>
									<parameter authoringApp="PremierePro">
										<parameterid>variablespeed</parameterid>
										<name>variablespeed</name>
										<valuemin>0</valuemin>
										<valuemax>1</valuemax>
										<value>0</value>
									</parameter>
									<parameter authoringApp="PremierePro">
										<parameterid>speed</parameterid>
										<name>speed</name>
										<valuemin>-100000</valuemin>
										<valuemax>100000</valuemax>
										<value>35</value>
									</parameter>
									<parameter authoringApp="PremierePro">
										<parameterid>reverse</parameterid>
										<name>reverse</name>
										<value>FALSE</value>
									</parameter>
									<parameter authoringApp="PremierePro">
										<parameterid>frameblending</parameterid>
										<name>frameblending</name>
										<value>FALSE</value>
									</parameter>
									<parameter authoringApp="PremierePro">
										<parameterid>graphdict</parameterid>
										<name>graphdict</name>
										<valuemin>0</valuemin>
										<valuemax>16</valuemax>
										<value>0</value>
										<keyframe>
											<when>0</when>
											<value>0</value>
											<speedvirtualkf>TRUE</speedvirtualkf>
											<speedkfstart>TRUE</speedkfstart>
										</keyframe>
										<keyframe>
											<when>8</when>
											<value>2</value>
											<speedvirtualkf>TRUE</speedvirtualkf>
											<speedkfin>TRUE</speedkfin>
										</keyframe>
										<keyframe>
											<when>48</when>
											<value>16</value>
											<speedvirtualkf>TRUE</speedvirtualkf>
											<speedkfout>TRUE</speedkfout>
										</keyframe>
										<interpolation>
											<name>FCPCurve</name>
										</interpolation>
									</parameter>
								</effect>
							</filter>
						<link>
							<linkclipref>clipitem-778</linkclipref>
							<mediatype>audio</mediatype>
							<trackindex>15</trackindex>
							<clipindex>22</clipindex>
							<groupindex>1</groupindex>
						</link>
						<link>
							<linkclipref>clipitem-807</linkclipref>
							<mediatype>audio</mediatype>
							<trackindex>16</trackindex>
							<clipindex>22</clipindex>
							<groupindex>1</groupindex>
						</link>
						<logginginfo>
							<description></description>
							<scene></scene>
							<shottake></shottake>
							<lognote></lognote>
						</logginginfo>
						<comments>
						</comments>
						<labels>
							<label2>Caribbean</label2>
						</labels>
					</clipitem>
					<transitionitem>
						<start>19253</start>
						<end>19266</end>
						<alignment>end-black</alignment>
						<cutPointTicks>132088320000</cutPointTicks>
						<rate>
							<timebase>25</timebase>
							<ntsc>FALSE</ntsc>
						</rate>
						<effect>
							<name>Cross Fade (+3dB)</name>
							<effectid>KGAudioTransCrossFade3dB</effectid>
							<effecttype>transition</effecttype>
							<mediatype>audio</mediatype>
							<wipecode>0</wipecode>
							<wipeaccuracy>100</wipeaccuracy>
							<startratio>0</startratio>
							<endratio>1</endratio>
							<reverse>FALSE</reverse>
						</effect>
					</transitionitem>
					<transitionitem>
						<start>19613</start>
						<end>19663</end>
						<alignment>start-black</alignment>
						<cutPointTicks>0</cutPointTicks>
						<rate>
							<timebase>25</timebase>
							<ntsc>FALSE</ntsc>
						</rate>
						<effect>
							<name>Cross Fade (+3dB)</name>
							<effectid>KGAudioTransCrossFade3dB</effectid>
							<effecttype>transition</effecttype>
							<mediatype>audio</mediatype>
							<wipecode>0</wipecode>
							<wipeaccuracy>100</wipeaccuracy>
							<startratio>0</startratio>
							<endratio>1</endratio>
							<reverse>FALSE</reverse>
						</effect>
					</transitionitem>
					<clipitem id="clipitem-808" premiereChannelType="stereo">
						<masterclipid>masterclip-196</masterclipid>
						<name>HM_102_4_Pirate_Adventures_Harpaz_676292.wav</name>
						<enabled>TRUE</enabled>
						<duration>3075</duration>
						<rate>
							<timebase>25</timebase>
							<ntsc>FALSE</ntsc>
						</rate>
						<start>-1</start>
						<end>19943</end>
						<in>194</in>
						<out>524</out>
						<pproTicksIn>1971164160000</pproTicksIn>
						<pproTicksOut>5324175360000</pproTicksOut>
						<file id="file-180"/>
						<sourcetrack>
							<mediatype>audio</mediatype>
							<trackindex>2</trackindex>
						</sourcetrack>
							<filter>
								<effect>
									<name>Gain</name>
									<effectid>{61756678, 4761696e, 4b657947}</effectid>
									<effecttype>filter</effecttype>
									<mediatype>audio</mediatype>
									<parameter authoringApp="PremierePro">
										<parameterid>Gain(dB)</parameterid>
										<name>Gain(dB)</name>
										<valuemin>-96</valuemin>
										<valuemax>96</valuemax>
										<value>-15</value>
									</parameter>
								</effect>
							</filter>
						<link>
							<linkclipref>clipitem-779</linkclipref>
							<mediatype>audio</mediatype>
							<trackindex>15</trackindex>
							<clipindex>25</clipindex>
							<groupindex>1</groupindex>
						</link>
						<link>
							<linkclipref>clipitem-808</linkclipref>
							<mediatype>audio</mediatype>
							<trackindex>16</trackindex>
							<clipindex>25</clipindex>
							<groupindex>1</groupindex>
						</link>
						<logginginfo>
							<description></description>
							<scene></scene>
							<shottake></shottake>
							<lognote></lognote>
						</logginginfo>
						<labels>
							<label2>Caribbean</label2>
						</labels>
					</clipitem>
					<clipitem id="clipitem-809" premiereChannelType="stereo">
						<masterclipid>masterclip-196</masterclipid>
						<name>HM_102_4_Pirate_Adventures_Harpaz_676292.wav</name>
						<enabled>TRUE</enabled>
						<duration>3075</duration>
						<rate>
							<timebase>25</timebase>
							<ntsc>FALSE</ntsc>
						</rate>
						<start>19943</start>
						<end>19979</end>
						<in>524</in>
						<out>560</out>
						<pproTicksIn>5324175360000</pproTicksIn>
						<pproTicksOut>5689958400000</pproTicksOut>
						<file id="file-180"/>
						<sourcetrack>
							<mediatype>audio</mediatype>
							<trackindex>2</trackindex>
						</sourcetrack>
							<filter>
								<effect>
									<name>Gain</name>
									<effectid>{61756678, 4761696e, 4b657947}</effectid>
									<effecttype>filter</effecttype>
									<mediatype>audio</mediatype>
									<parameter authoringApp="PremierePro">
										<parameterid>Gain(dB)</parameterid>
										<name>Gain(dB)</name>
										<valuemin>-96</valuemin>
										<valuemax>96</valuemax>
										<value>-21</value>
									</parameter>
								</effect>
							</filter>
						<link>
							<linkclipref>clipitem-780</linkclipref>
							<mediatype>audio</mediatype>
							<trackindex>15</trackindex>
							<clipindex>26</clipindex>
							<groupindex>1</groupindex>
						</link>
						<link>
							<linkclipref>clipitem-809</linkclipref>
							<mediatype>audio</mediatype>
							<trackindex>16</trackindex>
							<clipindex>26</clipindex>
							<groupindex>1</groupindex>
						</link>
						<logginginfo>
							<description></description>
							<scene></scene>
							<shottake></shottake>
							<lognote></lognote>
						</logginginfo>
						<labels>
							<label2>Caribbean</label2>
						</labels>
					</clipitem>
					<clipitem id="clipitem-810" premiereChannelType="stereo">
						<masterclipid>masterclip-196</masterclipid>
						<name>HM_102_4_Pirate_Adventures_Harpaz_676292.wav</name>
						<enabled>TRUE</enabled>
						<duration>3075</duration>
						<rate>
							<timebase>25</timebase>
							<ntsc>FALSE</ntsc>
						</rate>
						<start>19979</start>
						<end>20286</end>
						<in>560</in>
						<out>867</out>
						<pproTicksIn>5689958400000</pproTicksIn>
						<pproTicksOut>8809274880000</pproTicksOut>
						<file id="file-180"/>
						<sourcetrack>
							<mediatype>audio</mediatype>
							<trackindex>2</trackindex>
						</sourcetrack>
							<filter>
								<effect>
									<name>Gain</name>
									<effectid>{61756678, 4761696e, 4b657947}</effectid>
									<effecttype>filter</effecttype>
									<mediatype>audio</mediatype>
									<parameter authoringApp="PremierePro">
										<parameterid>Gain(dB)</parameterid>
										<name>Gain(dB)</name>
										<valuemin>-96</valuemin>
										<valuemax>96</valuemax>
										<value>-15</value>
									</parameter>
								</effect>
							</filter>
						<link>
							<linkclipref>clipitem-781</linkclipref>
							<mediatype>audio</mediatype>
							<trackindex>15</trackindex>
							<clipindex>27</clipindex>
							<groupindex>1</groupindex>
						</link>
						<link>
							<linkclipref>clipitem-810</linkclipref>
							<mediatype>audio</mediatype>
							<trackindex>16</trackindex>
							<clipindex>27</clipindex>
							<groupindex>1</groupindex>
						</link>
						<logginginfo>
							<description></description>
							<scene></scene>
							<shottake></shottake>
							<lognote></lognote>
						</logginginfo>
						<labels>
							<label2>Caribbean</label2>
						</labels>
					</clipitem>
					<clipitem id="clipitem-811" premiereChannelType="stereo">
						<masterclipid>masterclip-196</masterclipid>
						<name>HM_102_4_Pirate_Adventures_Harpaz_676292.wav</name>
						<enabled>TRUE</enabled>
						<duration>3075</duration>
						<rate>
							<timebase>25</timebase>
							<ntsc>FALSE</ntsc>
						</rate>
						<start>20286</start>
						<end>-1</end>
						<in>867</in>
						<out>883</out>
						<pproTicksIn>8809274880000</pproTicksIn>
						<pproTicksOut>8971845120000</pproTicksOut>
						<file id="file-180"/>
						<sourcetrack>
							<mediatype>audio</mediatype>
							<trackindex>2</trackindex>
						</sourcetrack>
							<filter>
								<effect>
									<name>Gain</name>
									<effectid>{61756678, 4761696e, 4b657947}</effectid>
									<effecttype>filter</effecttype>
									<mediatype>audio</mediatype>
									<parameter authoringApp="PremierePro">
										<parameterid>Gain(dB)</parameterid>
										<name>Gain(dB)</name>
										<valuemin>-96</valuemin>
										<valuemax>96</valuemax>
										<value>-23</value>
									</parameter>
								</effect>
							</filter>
						<link>
							<linkclipref>clipitem-782</linkclipref>
							<mediatype>audio</mediatype>
							<trackindex>15</trackindex>
							<clipindex>28</clipindex>
							<groupindex>1</groupindex>
						</link>
						<link>
							<linkclipref>clipitem-811</linkclipref>
							<mediatype>audio</mediatype>
							<trackindex>16</trackindex>
							<clipindex>28</clipindex>
							<groupindex>1</groupindex>
						</link>
						<logginginfo>
							<description></description>
							<scene></scene>
							<shottake></shottake>
							<lognote></lognote>
						</logginginfo>
						<labels>
							<label2>Caribbean</label2>
						</labels>
					</clipitem>
					<transitionitem>
						<start>20288</start>
						<end>20302</end>
						<alignment>end-black</alignment>
						<cutPointTicks>142248960000</cutPointTicks>
						<rate>
							<timebase>25</timebase>
							<ntsc>FALSE</ntsc>
						</rate>
						<effect>
							<name>Cross Fade (+3dB)</name>
							<effectid>KGAudioTransCrossFade3dB</effectid>
							<effecttype>transition</effecttype>
							<mediatype>audio</mediatype>
							<wipecode>0</wipecode>
							<wipeaccuracy>100</wipeaccuracy>
							<startratio>0</startratio>
							<endratio>1</endratio>
							<reverse>FALSE</reverse>
						</effect>
					</transitionitem>
					<clipitem id="clipitem-812" premiereChannelType="stereo">
						<masterclipid>masterclip-197</masterclipid>
						<name>9329__tigersound__pigeon-wings.wav</name>
						<enabled>TRUE</enabled>
						<duration>41</duration>
						<rate>
							<timebase>25</timebase>
							<ntsc>FALSE</ntsc>
						</rate>
						<start>20554</start>
						<end>20594</end>
						<in>0</in>
						<out>40</out>
						<pproTicksIn>0</pproTicksIn>
						<pproTicksOut>406425600000</pproTicksOut>
						<file id="file-181"/>
						<sourcetrack>
							<mediatype>audio</mediatype>
							<trackindex>2</trackindex>
						</sourcetrack>
							<filter>
								<effect>
									<name>Gain</name>
									<effectid>{61756678, 4761696e, 4b657947}</effectid>
									<effecttype>filter</effecttype>
									<mediatype>audio</mediatype>
									<parameter authoringApp="PremierePro">
										<parameterid>Gain(dB)</parameterid>
										<name>Gain(dB)</name>
										<valuemin>-96</valuemin>
										<valuemax>96</valuemax>
										<value>-12</value>
									</parameter>
								</effect>
							</filter>
						<link>
							<linkclipref>clipitem-783</linkclipref>
							<mediatype>audio</mediatype>
							<trackindex>15</trackindex>
							<clipindex>30</clipindex>
							<groupindex>1</groupindex>
						</link>
						<link>
							<linkclipref>clipitem-812</linkclipref>
							<mediatype>audio</mediatype>
							<trackindex>16</trackindex>
							<clipindex>30</clipindex>
							<groupindex>1</groupindex>
						</link>
						<logginginfo>
							<description></description>
							<scene></scene>
							<shottake></shottake>
							<lognote></lognote>
						</logginginfo>
						<labels>
							<label2>Caribbean</label2>
						</labels>
					</clipitem>
					<clipitem id="clipitem-813" premiereChannelType="stereo">
						<masterclipid>masterclip-184</masterclipid>
						<name>175951__freefire66__swordbattle2.wav</name>
						<enabled>TRUE</enabled>
						<duration>2200</duration>
						<rate>
							<timebase>25</timebase>
							<ntsc>FALSE</ntsc>
						</rate>
						<start>20699</start>
						<end>20709</end>
						<in>1120</in>
						<out>1130</out>
						<pproTicksIn>11379916800000</pproTicksIn>
						<pproTicksOut>11481523200000</pproTicksOut>
						<file id="file-168"/>
						<sourcetrack>
							<mediatype>audio</mediatype>
							<trackindex>2</trackindex>
						</sourcetrack>
						<link>
							<linkclipref>clipitem-784</linkclipref>
							<mediatype>audio</mediatype>
							<trackindex>15</trackindex>
							<clipindex>31</clipindex>
							<groupindex>1</groupindex>
						</link>
						<link>
							<linkclipref>clipitem-813</linkclipref>
							<mediatype>audio</mediatype>
							<trackindex>16</trackindex>
							<clipindex>31</clipindex>
							<groupindex>1</groupindex>
						</link>
						<logginginfo>
							<description></description>
							<scene></scene>
							<shottake></shottake>
							<lognote>Made with Sony ACID Music Studio 7.0</lognote>
						</logginginfo>
						<labels>
							<label2>Caribbean</label2>
						</labels>
					</clipitem>
					<clipitem id="clipitem-814" premiereChannelType="stereo">
						<masterclipid>masterclip-184</masterclipid>
						<name>175951__freefire66__swordbattle2.wav</name>
						<enabled>TRUE</enabled>
						<duration>2200</duration>
						<rate>
							<timebase>25</timebase>
							<ntsc>FALSE</ntsc>
						</rate>
						<start>20713</start>
						<end>20723</end>
						<in>1120</in>
						<out>1130</out>
						<pproTicksIn>11379916800000</pproTicksIn>
						<pproTicksOut>11481523200000</pproTicksOut>
						<file id="file-168"/>
						<sourcetrack>
							<mediatype>audio</mediatype>
							<trackindex>2</trackindex>
						</sourcetrack>
						<link>
							<linkclipref>clipitem-785</linkclipref>
							<mediatype>audio</mediatype>
							<trackindex>15</trackindex>
							<clipindex>32</clipindex>
							<groupindex>1</groupindex>
						</link>
						<link>
							<linkclipref>clipitem-814</linkclipref>
							<mediatype>audio</mediatype>
							<trackindex>16</trackindex>
							<clipindex>32</clipindex>
							<groupindex>1</groupindex>
						</link>
						<logginginfo>
							<description></description>
							<scene></scene>
							<shottake></shottake>
							<lognote>Made with Sony ACID Music Studio 7.0</lognote>
						</logginginfo>
						<labels>
							<label2>Caribbean</label2>
						</labels>
					</clipitem>
					<clipitem id="clipitem-815" premiereChannelType="stereo">
						<masterclipid>masterclip-184</masterclipid>
						<name>175951__freefire66__swordbattle2.wav</name>
						<enabled>TRUE</enabled>
						<duration>2200</duration>
						<rate>
							<timebase>25</timebase>
							<ntsc>FALSE</ntsc>
						</rate>
						<start>20743</start>
						<end>20753</end>
						<in>1120</in>
						<out>1130</out>
						<pproTicksIn>11379916800000</pproTicksIn>
						<pproTicksOut>11481523200000</pproTicksOut>
						<file id="file-168"/>
						<sourcetrack>
							<mediatype>audio</mediatype>
							<trackindex>2</trackindex>
						</sourcetrack>
						<link>
							<linkclipref>clipitem-786</linkclipref>
							<mediatype>audio</mediatype>
							<trackindex>15</trackindex>
							<clipindex>33</clipindex>
							<groupindex>1</groupindex>
						</link>
						<link>
							<linkclipref>clipitem-815</linkclipref>
							<mediatype>audio</mediatype>
							<trackindex>16</trackindex>
							<clipindex>33</clipindex>
							<groupindex>1</groupindex>
						</link>
						<logginginfo>
							<description></description>
							<scene></scene>
							<shottake></shottake>
							<lognote>Made with Sony ACID Music Studio 7.0</lognote>
						</logginginfo>
						<labels>
							<label2>Caribbean</label2>
						</labels>
					</clipitem>
					<clipitem id="clipitem-816" premiereChannelType="stereo">
						<masterclipid>masterclip-184</masterclipid>
						<name>175951__freefire66__swordbattle2.wav</name>
						<enabled>TRUE</enabled>
						<duration>2200</duration>
						<rate>
							<timebase>25</timebase>
							<ntsc>FALSE</ntsc>
						</rate>
						<start>20759</start>
						<end>20782</end>
						<in>1605</in>
						<out>1628</out>
						<pproTicksIn>16307827200000</pproTicksIn>
						<pproTicksOut>16541521920000</pproTicksOut>
						<file id="file-168"/>
						<sourcetrack>
							<mediatype>audio</mediatype>
							<trackindex>2</trackindex>
						</sourcetrack>
						<link>
							<linkclipref>clipitem-787</linkclipref>
							<mediatype>audio</mediatype>
							<trackindex>15</trackindex>
							<clipindex>34</clipindex>
							<groupindex>1</groupindex>
						</link>
						<link>
							<linkclipref>clipitem-816</linkclipref>
							<mediatype>audio</mediatype>
							<trackindex>16</trackindex>
							<clipindex>34</clipindex>
							<groupindex>1</groupindex>
						</link>
						<logginginfo>
							<description></description>
							<scene></scene>
							<shottake></shottake>
							<lognote>Made with Sony ACID Music Studio 7.0</lognote>
						</logginginfo>
						<labels>
							<label2>Caribbean</label2>
						</labels>
					</clipitem>
					<clipitem id="clipitem-817" premiereChannelType="stereo">
						<masterclipid>masterclip-198</masterclipid>
						<name>157792__soundcollectah__airpipe-swoosh-02.wav</name>
						<enabled>TRUE</enabled>
						<duration>114</duration>
						<rate>
							<timebase>25</timebase>
							<ntsc>FALSE</ntsc>
						</rate>
						<start>23478</start>
						<end>23545</end>
						<in>0</in>
						<out>67</out>
						<pproTicksIn>0</pproTicksIn>
						<pproTicksOut>680762880000</pproTicksOut>
						<file id="file-182"/>
						<sourcetrack>
							<mediatype>audio</mediatype>
							<trackindex>2</trackindex>
						</sourcetrack>
							<filter>
								<effect>
									<name>Gain</name>
									<effectid>{61756678, 4761696e, 4b657947}</effectid>
									<effecttype>filter</effecttype>
									<mediatype>audio</mediatype>
									<parameter authoringApp="PremierePro">
										<parameterid>Gain(dB)</parameterid>
										<name>Gain(dB)</name>
										<valuemin>-96</valuemin>
										<valuemax>96</valuemax>
										<value>-15</value>
									</parameter>
								</effect>
							</filter>
						<link>
							<linkclipref>clipitem-789</linkclipref>
							<mediatype>audio</mediatype>
							<trackindex>15</trackindex>
							<clipindex>36</clipindex>
							<groupindex>1</groupindex>
						</link>
						<link>
							<linkclipref>clipitem-817</linkclipref>
							<mediatype>audio</mediatype>
							<trackindex>16</trackindex>
							<clipindex>35</clipindex>
							<groupindex>1</groupindex>
						</link>
						<logginginfo>
							<description></description>
							<scene></scene>
							<shottake></shottake>
							<lognote></lognote>
						</logginginfo>
						<labels>
							<label2>Caribbean</label2>
						</labels>
					</clipitem>
					<clipitem id="clipitem-818" premiereChannelType="stereo">
						<masterclipid>masterclip-200</masterclipid>
						<name>74920__juskiddink__bell6.wav</name>
						<enabled>TRUE</enabled>
						<duration>148</duration>
						<rate>
							<timebase>25</timebase>
							<ntsc>FALSE</ntsc>
						</rate>
						<start>29202</start>
						<end>-1</end>
						<in>0</in>
						<out>11</out>
						<pproTicksIn>0</pproTicksIn>
						<pproTicksOut>111767040000</pproTicksOut>
						<file id="file-184"/>
						<sourcetrack>
							<mediatype>audio</mediatype>
							<trackindex>2</trackindex>
						</sourcetrack>
							<filter>
								<effect>
									<name>Gain</name>
									<effectid>{61756678, 4761696e, 4b657947}</effectid>
									<effecttype>filter</effecttype>
									<mediatype>audio</mediatype>
									<parameter authoringApp="PremierePro">
										<parameterid>Gain(dB)</parameterid>
										<name>Gain(dB)</name>
										<valuemin>-96</valuemin>
										<valuemax>96</valuemax>
										<value>-14</value>
									</parameter>
								</effect>
							</filter>
						<link>
							<linkclipref>clipitem-794</linkclipref>
							<mediatype>audio</mediatype>
							<trackindex>15</trackindex>
							<clipindex>41</clipindex>
							<groupindex>1</groupindex>
						</link>
						<link>
							<linkclipref>clipitem-818</linkclipref>
							<mediatype>audio</mediatype>
							<trackindex>16</trackindex>
							<clipindex>36</clipindex>
							<groupindex>1</groupindex>
						</link>
						<logginginfo>
							<description></description>
							<scene></scene>
							<shottake></shottake>
							<lognote></lognote>
						</logginginfo>
						<labels>
							<label2>Caribbean</label2>
						</labels>
					</clipitem>
					<transitionitem>
						<start>29206</start>
						<end>29213</end>
						<alignment>center</alignment>
						<cutPointTicks>30481920000</cutPointTicks>
						<rate>
							<timebase>25</timebase>
							<ntsc>FALSE</ntsc>
						</rate>
						<effect>
							<name>Cross Fade (+3dB)</name>
							<effectid>KGAudioTransCrossFade3dB</effectid>
							<effecttype>transition</effecttype>
							<mediatype>audio</mediatype>
							<wipecode>0</wipecode>
							<wipeaccuracy>100</wipeaccuracy>
							<startratio>0</startratio>
							<endratio>1</endratio>
							<reverse>FALSE</reverse>
						</effect>
					</transitionitem>
					<clipitem id="clipitem-819" premiereChannelType="stereo">
						<masterclipid>masterclip-200</masterclipid>
						<name>74920__juskiddink__bell6.wav</name>
						<enabled>TRUE</enabled>
						<duration>148</duration>
						<rate>
							<timebase>25</timebase>
							<ntsc>FALSE</ntsc>
						</rate>
						<start>-1</start>
						<end>29299</end>
						<in>4</in>
						<out>97</out>
						<pproTicksIn>40642560000</pproTicksIn>
						<pproTicksOut>985582080000</pproTicksOut>
						<file id="file-184"/>
						<sourcetrack>
							<mediatype>audio</mediatype>
							<trackindex>2</trackindex>
						</sourcetrack>
							<filter>
								<effect>
									<name>Gain</name>
									<effectid>{61756678, 4761696e, 4b657947}</effectid>
									<effecttype>filter</effecttype>
									<mediatype>audio</mediatype>
									<parameter authoringApp="PremierePro">
										<parameterid>Gain(dB)</parameterid>
										<name>Gain(dB)</name>
										<valuemin>-96</valuemin>
										<valuemax>96</valuemax>
										<value>-24</value>
									</parameter>
								</effect>
							</filter>
						<link>
							<linkclipref>clipitem-795</linkclipref>
							<mediatype>audio</mediatype>
							<trackindex>15</trackindex>
							<clipindex>43</clipindex>
							<groupindex>1</groupindex>
						</link>
						<link>
							<linkclipref>clipitem-819</linkclipref>
							<mediatype>audio</mediatype>
							<trackindex>16</trackindex>
							<clipindex>38</clipindex>
							<groupindex>1</groupindex>
						</link>
						<logginginfo>
							<description></description>
							<scene></scene>
							<shottake></shottake>
							<lognote></lognote>
						</logginginfo>
						<labels>
							<label2>Caribbean</label2>
						</labels>
					</clipitem>
					<enabled>TRUE</enabled>
					<locked>FALSE</locked>
					<outputchannelindex>2</outputchannelindex>
				</track>
				<track TL.SQTrackAudioKeyframeStyle="0" TL.SQTrackShy="0" TL.SQTrackExpandedHeight="35" TL.SQTrackExpanded="1" MZ.TrackTargeted="1" PannerCurrentValue="0.5" PannerIsInverted="true" PannerStartKeyframe="-91445760000000000,0.5,0,0,0,0,0,0" PannerName="Balance" currentExplodedTrackIndex="0" totalExplodedTrackCount="2" premiereTrackType="Stereo">
					<clipitem id="clipitem-820" premiereChannelType="mono">
						<masterclipid>masterclip-165</masterclipid>
						<name>XLYDT17.WAV</name>
						<enabled>TRUE</enabled>
						<duration>1199</duration>
						<rate>
							<timebase>25</timebase>
							<ntsc>FALSE</ntsc>
						</rate>
						<start>285</start>
						<end>344</end>
						<in>785</in>
						<out>844</out>
						<pproTicksIn>7976102400000</pproTicksIn>
						<pproTicksOut>8575580160000</pproTicksOut>
						<file id="file-149"/>
						<sourcetrack>
							<mediatype>audio</mediatype>
							<trackindex>1</trackindex>
						</sourcetrack>
							<filter>
								<effect>
									<name>Gain</name>
									<effectid>{61756678, 4761696e, 4b657947}</effectid>
									<effecttype>filter</effecttype>
									<mediatype>audio</mediatype>
									<parameter authoringApp="PremierePro">
										<parameterid>Gain(dB)</parameterid>
										<name>Gain(dB)</name>
										<valuemin>-96</valuemin>
										<valuemax>96</valuemax>
										<value>-8</value>
									</parameter>
								</effect>
							</filter>
						<logginginfo>
							<description>bowl</description>
							<scene>XLYD</scene>
							<shottake></shottake>
							<lognote></lognote>
						</logginginfo>
						<labels>
							<label2>Caribbean</label2>
						</labels>
					</clipitem>
					<clipitem id="clipitem-821" premiereChannelType="stereo">
						<masterclipid>masterclip-201</masterclipid>
						<name>NONRE633380HD0012 Widow (Instrumental Demo).wav</name>
						<enabled>TRUE</enabled>
						<duration>4132</duration>
						<rate>
							<timebase>25</timebase>
							<ntsc>FALSE</ntsc>
						</rate>
						<start>8390</start>
						<end>-1</end>
						<in>0</in>
						<out>1484</out>
						<pproTicksIn>0</pproTicksIn>
						<pproTicksOut>15078389760000</pproTicksOut>
						<file id="file-185">
							<name>NONRE633380HD0012 Widow (Instrumental Demo).wav</name>
							<pathurl>file://localhost/Volumes/Bingen/Prosjekter/MYNT194016%20WHATS%20COOKING/Musikk/Jan/DMA/Tommy%20Tee/NONRE633380HD0012%20Widow%20(Instrumental%20Demo).wav</pathurl>
							<rate>
								<timebase>30</timebase>
								<ntsc>TRUE</ntsc>
							</rate>
							<duration>4953</duration>
							<timecode>
								<rate>
									<timebase>30</timebase>
									<ntsc>TRUE</ntsc>
								</rate>
								<string>00;00;00;00</string>
								<frame>0</frame>
								<displayformat>DF</displayformat>
								<reel>
									<name></name>
								</reel>
							</timecode>
							<media>
								<audio>
									<samplecharacteristics>
										<depth>16</depth>
										<samplerate>48000</samplerate>
									</samplecharacteristics>
									<channelcount>2</channelcount>
								</audio>
							</media>
						</file>
						<sourcetrack>
							<mediatype>audio</mediatype>
							<trackindex>1</trackindex>
						</sourcetrack>
							<filter>
								<effect>
									<name>Gain</name>
									<effectid>{61756678, 4761696e, 4b657947}</effectid>
									<effecttype>filter</effecttype>
									<mediatype>audio</mediatype>
									<parameter authoringApp="PremierePro">
										<parameterid>Gain(dB)</parameterid>
										<name>Gain(dB)</name>
										<valuemin>-96</valuemin>
										<valuemax>96</valuemax>
										<value>-30</value>
									</parameter>
								</effect>
							</filter>
						<link>
							<linkclipref>clipitem-821</linkclipref>
							<mediatype>audio</mediatype>
							<trackindex>17</trackindex>
							<clipindex>2</clipindex>
							<groupindex>1</groupindex>
						</link>
						<link>
							<linkclipref>clipitem-843</linkclipref>
							<mediatype>audio</mediatype>
							<trackindex>18</trackindex>
							<clipindex>1</clipindex>
							<groupindex>1</groupindex>
						</link>
						<logginginfo>
							<description></description>
							<scene></scene>
							<shottake></shottake>
							<lognote></lognote>
						</logginginfo>
						<labels>
							<label2>Caribbean</label2>
						</labels>
					</clipitem>
					<transitionitem>
						<start>9867</start>
						<end>9874</end>
						<alignment>end-black</alignment>
						<cutPointTicks>71124480000</cutPointTicks>
						<rate>
							<timebase>25</timebase>
							<ntsc>FALSE</ntsc>
						</rate>
						<effect>
							<name>Cross Fade (+3dB)</name>
							<effectid>KGAudioTransCrossFade3dB</effectid>
							<effecttype>transition</effecttype>
							<mediatype>audio</mediatype>
							<wipecode>0</wipecode>
							<wipeaccuracy>100</wipeaccuracy>
							<startratio>0</startratio>
							<endratio>1</endratio>
							<reverse>FALSE</reverse>
						</effect>
					</transitionitem>
					<clipitem id="clipitem-822" premiereChannelType="stereo">
						<masterclipid>masterclip-202</masterclipid>
						<name>NONRE633380HD0010 Sho Is Funky (Instrumental Demo).wav</name>
						<enabled>TRUE</enabled>
						<duration>3450</duration>
						<rate>
							<timebase>25</timebase>
							<ntsc>FALSE</ntsc>
						</rate>
						<start>9874</start>
						<end>-1</end>
						<in>0</in>
						<out>1001</out>
						<pproTicksIn>0</pproTicksIn>
						<pproTicksOut>10170800640000</pproTicksOut>
						<file id="file-186">
							<name>NONRE633380HD0010 Sho Is Funky (Instrumental Demo).wav</name>
							<pathurl>file://localhost/Volumes/Bingen/Prosjekter/MYNT194016%20WHATS%20COOKING/Musikk/Jan/DMA/Tommy%20Tee/NONRE633380HD0010%20Sho%20Is%20Funky%20(Instrumental%20Demo).wav</pathurl>
							<rate>
								<timebase>30</timebase>
								<ntsc>TRUE</ntsc>
							</rate>
							<duration>4136</duration>
							<timecode>
								<rate>
									<timebase>30</timebase>
									<ntsc>TRUE</ntsc>
								</rate>
								<string>00;00;00;00</string>
								<frame>0</frame>
								<displayformat>DF</displayformat>
								<reel>
									<name></name>
								</reel>
							</timecode>
							<media>
								<audio>
									<samplecharacteristics>
										<depth>16</depth>
										<samplerate>48000</samplerate>
									</samplecharacteristics>
									<channelcount>2</channelcount>
								</audio>
							</media>
						</file>
						<sourcetrack>
							<mediatype>audio</mediatype>
							<trackindex>1</trackindex>
						</sourcetrack>
							<filter>
								<effect>
									<name>Gain</name>
									<effectid>{61756678, 4761696e, 4b657947}</effectid>
									<effecttype>filter</effecttype>
									<mediatype>audio</mediatype>
									<parameter authoringApp="PremierePro">
										<parameterid>Gain(dB)</parameterid>
										<name>Gain(dB)</name>
										<valuemin>-96</valuemin>
										<valuemax>96</valuemax>
										<value>-30</value>
									</parameter>
								</effect>
							</filter>
						<link>
							<linkclipref>clipitem-822</linkclipref>
							<mediatype>audio</mediatype>
							<trackindex>17</trackindex>
							<clipindex>4</clipindex>
							<groupindex>1</groupindex>
						</link>
						<link>
							<linkclipref>clipitem-844</linkclipref>
							<mediatype>audio</mediatype>
							<trackindex>18</trackindex>
							<clipindex>3</clipindex>
							<groupindex>1</groupindex>
						</link>
						<logginginfo>
							<description></description>
							<scene></scene>
							<shottake></shottake>
							<lognote></lognote>
						</logginginfo>
						<labels>
							<label2>Caribbean</label2>
						</labels>
					</clipitem>
					<transitionitem>
						<start>10809</start>
						<end>10875</end>
						<alignment>end-black</alignment>
						<cutPointTicks>670602240000</cutPointTicks>
						<rate>
							<timebase>25</timebase>
							<ntsc>FALSE</ntsc>
						</rate>
						<effect>
							<name>Cross Fade (+3dB)</name>
							<effectid>KGAudioTransCrossFade3dB</effectid>
							<effecttype>transition</effecttype>
							<mediatype>audio</mediatype>
							<wipecode>0</wipecode>
							<wipeaccuracy>100</wipeaccuracy>
							<startratio>0</startratio>
							<endratio>1</endratio>
							<reverse>FALSE</reverse>
						</effect>
					</transitionitem>
					<clipitem id="clipitem-823" premiereChannelType="stereo">
						<masterclipid>masterclip-159</masterclipid>
						<name>205991__emptysound__digital-wooshes-eleven.wav</name>
						<enabled>TRUE</enabled>
						<duration>425</duration>
						<rate>
							<timebase>25</timebase>
							<ntsc>FALSE</ntsc>
						</rate>
						<start>19261</start>
						<end>19277</end>
						<in>353</in>
						<out>369</out>
						<pproTicksIn>2875461120000</pproTicksIn>
						<pproTicksOut>3005517312000</pproTicksOut>
						<file id="file-143"/>
						<sourcetrack>
							<mediatype>audio</mediatype>
							<trackindex>1</trackindex>
						</sourcetrack>
							<filter>
								<effect>
									<name>Gain</name>
									<effectid>{61756678, 4761696e, 4b657947}</effectid>
									<effecttype>filter</effecttype>
									<mediatype>audio</mediatype>
									<parameter authoringApp="PremierePro">
										<parameterid>Gain(dB)</parameterid>
										<name>Gain(dB)</name>
										<valuemin>-96</valuemin>
										<valuemax>96</valuemax>
										<value>-26</value>
									</parameter>
								</effect>
							</filter>
							<filter>
								<effect>
									<name>Time Remap</name>
									<effectid>timeremap</effectid>
									<effectcategory>motion</effectcategory>
									<effecttype>motion</effecttype>
									<mediatype>audio</mediatype>
									<parameter authoringApp="PremierePro">
										<parameterid>variablespeed</parameterid>
										<name>variablespeed</name>
										<valuemin>0</valuemin>
										<valuemax>1</valuemax>
										<value>0</value>
									</parameter>
									<parameter authoringApp="PremierePro">
										<parameterid>speed</parameterid>
										<name>speed</name>
										<valuemin>-100000</valuemin>
										<valuemax>100000</valuemax>
										<value>80</value>
									</parameter>
									<parameter authoringApp="PremierePro">
										<parameterid>reverse</parameterid>
										<name>reverse</name>
										<value>FALSE</value>
									</parameter>
									<parameter authoringApp="PremierePro">
										<parameterid>frameblending</parameterid>
										<name>frameblending</name>
										<value>FALSE</value>
									</parameter>
									<parameter authoringApp="PremierePro">
										<parameterid>graphdict</parameterid>
										<name>graphdict</name>
										<valuemin>0</valuemin>
										<valuemax>340</valuemax>
										<value>0</value>
										<keyframe>
											<when>0</when>
											<value>0</value>
											<speedvirtualkf>TRUE</speedvirtualkf>
											<speedkfstart>TRUE</speedkfstart>
										</keyframe>
										<keyframe>
											<when>353</when>
											<value>282</value>
											<speedvirtualkf>TRUE</speedvirtualkf>
											<speedkfin>TRUE</speedkfin>
										</keyframe>
										<keyframe>
											<when>369</when>
											<value>295</value>
											<speedvirtualkf>TRUE</speedvirtualkf>
											<speedkfout>TRUE</speedkfout>
										</keyframe>
										<keyframe>
											<when>425</when>
											<value>340</value>
											<speedvirtualkf>TRUE</speedvirtualkf>
											<speedkfend>TRUE</speedkfend>
										</keyframe>
										<interpolation>
											<name>FCPCurve</name>
										</interpolation>
									</parameter>
								</effect>
							</filter>
						<link>
							<linkclipref>clipitem-823</linkclipref>
							<mediatype>audio</mediatype>
							<trackindex>17</trackindex>
							<clipindex>6</clipindex>
							<groupindex>1</groupindex>
						</link>
						<link>
							<linkclipref>clipitem-845</linkclipref>
							<mediatype>audio</mediatype>
							<trackindex>18</trackindex>
							<clipindex>5</clipindex>
							<groupindex>1</groupindex>
						</link>
						<logginginfo>
							<description></description>
							<scene></scene>
							<shottake></shottake>
							<lognote></lognote>
						</logginginfo>
						<labels>
							<label2>Caribbean</label2>
						</labels>
					</clipitem>
					<clipitem id="clipitem-824" premiereChannelType="stereo">
						<masterclipid>masterclip-159</masterclipid>
						<name>205991__emptysound__digital-wooshes-eleven.wav</name>
						<enabled>TRUE</enabled>
						<duration>340</duration>
						<rate>
							<timebase>25</timebase>
							<ntsc>FALSE</ntsc>
						</rate>
						<start>19331</start>
						<end>19342</end>
						<in>312</in>
						<out>323</out>
						<pproTicksIn>3170119680000</pproTicksIn>
						<pproTicksOut>3281886720000</pproTicksOut>
						<file id="file-143"/>
						<sourcetrack>
							<mediatype>audio</mediatype>
							<trackindex>1</trackindex>
						</sourcetrack>
							<filter>
								<effect>
									<name>Gain</name>
									<effectid>{61756678, 4761696e, 4b657947}</effectid>
									<effecttype>filter</effecttype>
									<mediatype>audio</mediatype>
									<parameter authoringApp="PremierePro">
										<parameterid>Gain(dB)</parameterid>
										<name>Gain(dB)</name>
										<valuemin>-96</valuemin>
										<valuemax>96</valuemax>
										<value>-26</value>
									</parameter>
								</effect>
							</filter>
						<link>
							<linkclipref>clipitem-824</linkclipref>
							<mediatype>audio</mediatype>
							<trackindex>17</trackindex>
							<clipindex>7</clipindex>
							<groupindex>1</groupindex>
						</link>
						<link>
							<linkclipref>clipitem-846</linkclipref>
							<mediatype>audio</mediatype>
							<trackindex>18</trackindex>
							<clipindex>6</clipindex>
							<groupindex>1</groupindex>
						</link>
						<logginginfo>
							<description></description>
							<scene></scene>
							<shottake></shottake>
							<lognote></lognote>
						</logginginfo>
						<labels>
							<label2>Caribbean</label2>
						</labels>
					</clipitem>
					<clipitem id="clipitem-825" premiereChannelType="stereo">
						<masterclipid>masterclip-203</masterclipid>
						<name>238367__stewdio2003__cp-power-down01_01.wav</name>
						<enabled>TRUE</enabled>
						<duration>147</duration>
						<rate>
							<timebase>25</timebase>
							<ntsc>FALSE</ntsc>
						</rate>
						<start>20279</start>
						<end>20350</end>
						<in>50</in>
						<out>121</out>
						<pproTicksIn>508032000000</pproTicksIn>
						<pproTicksOut>1229437440000</pproTicksOut>
						<file id="file-187">
							<name>238367__stewdio2003__cp-power-down01_01.wav</name>
							<pathurl>file://localhost/Volumes/Bingen/Prosjekter/MYNT194016%20WHATS%20COOKING/Lydeffekter/Jan%20Lydeffekter/Power%20Down%20audio/238367__stewdio2003__cp-power-down01_01.wav</pathurl>
							<rate>
								<timebase>30</timebase>
								<ntsc>TRUE</ntsc>
							</rate>
							<duration>176</duration>
							<timecode>
								<rate>
									<timebase>30</timebase>
									<ntsc>TRUE</ntsc>
								</rate>
								<string>00;00;00;00</string>
								<frame>0</frame>
								<displayformat>DF</displayformat>
								<reel>
									<name></name>
								</reel>
							</timecode>
							<media>
								<audio>
									<samplecharacteristics>
										<depth>16</depth>
										<samplerate>48000</samplerate>
									</samplecharacteristics>
									<channelcount>2</channelcount>
								</audio>
							</media>
						</file>
						<sourcetrack>
							<mediatype>audio</mediatype>
							<trackindex>1</trackindex>
						</sourcetrack>
							<filter>
								<effect>
									<name>Gain</name>
									<effectid>{61756678, 4761696e, 4b657947}</effectid>
									<effecttype>filter</effecttype>
									<mediatype>audio</mediatype>
									<parameter authoringApp="PremierePro">
										<parameterid>Gain(dB)</parameterid>
										<name>Gain(dB)</name>
										<valuemin>-96</valuemin>
										<valuemax>96</valuemax>
										<value>-18</value>
									</parameter>
								</effect>
							</filter>
							<marker>
								<comment></comment>
								<name>Marker 1</name>
								<in>0</in>
								<out>-1</out>
							</marker>
							<marker>
								<comment></comment>
								<name>Tempo: 120.0</name>
								<in>0</in>
								<out>-1</out>
							</marker>
							<marker>
								<comment></comment>
								<name>Timestamp: 172799975</name>
								<in>0</in>
								<out>-1</out>
							</marker>
						<link>
							<linkclipref>clipitem-825</linkclipref>
							<mediatype>audio</mediatype>
							<trackindex>17</trackindex>
							<clipindex>8</clipindex>
							<groupindex>1</groupindex>
						</link>
						<link>
							<linkclipref>clipitem-847</linkclipref>
							<mediatype>audio</mediatype>
							<trackindex>18</trackindex>
							<clipindex>7</clipindex>
							<groupindex>1</groupindex>
						</link>
						<logginginfo>
							<description></description>
							<scene></scene>
							<shottake></shottake>
							<lognote></lognote>
						</logginginfo>
						<labels>
							<label2>Caribbean</label2>
						</labels>
					</clipitem>
					<transitionitem>
						<start>22134</start>
						<end>22230</end>
						<alignment>start-black</alignment>
						<cutPointTicks>0</cutPointTicks>
						<rate>
							<timebase>25</timebase>
							<ntsc>FALSE</ntsc>
						</rate>
						<effect>
							<name>Cross Fade (+3dB)</name>
							<effectid>KGAudioTransCrossFade3dB</effectid>
							<effecttype>transition</effecttype>
							<mediatype>audio</mediatype>
							<wipecode>0</wipecode>
							<wipeaccuracy>100</wipeaccuracy>
							<startratio>0</startratio>
							<endratio>1</endratio>
							<reverse>FALSE</reverse>
						</effect>
					</transitionitem>
					<clipitem id="clipitem-826" premiereChannelType="stereo">
						<masterclipid>masterclip-204</masterclipid>
						<name>NONRO306374CS0002 Phone Tap  (Instrumental).wav</name>
						<enabled>TRUE</enabled>
						<duration>5684</duration>
						<rate>
							<timebase>25</timebase>
							<ntsc>FALSE</ntsc>
						</rate>
						<start>-1</start>
						<end>23501</end>
						<in>4256</in>
						<out>5623</out>
						<pproTicksIn>43243683840000</pproTicksIn>
						<pproTicksOut>57133278720000</pproTicksOut>
						<file id="file-188">
							<name>NONRO306374CS0002 Phone Tap  (Instrumental).wav</name>
							<pathurl>file://localhost/Volumes/Bingen/Prosjekter/MYNT194016%20WHATS%20COOKING/Musikk/Jan/DMA/Hip%20hop%20instrumentals/NONRO306374CS0002%20Phone%20Tap%20%20(Instrumental).wav</pathurl>
							<rate>
								<timebase>30</timebase>
								<ntsc>TRUE</ntsc>
							</rate>
							<duration>6813</duration>
							<timecode>
								<rate>
									<timebase>30</timebase>
									<ntsc>TRUE</ntsc>
								</rate>
								<string>00;00;00;00</string>
								<frame>0</frame>
								<displayformat>DF</displayformat>
								<reel>
									<name></name>
								</reel>
							</timecode>
							<media>
								<audio>
									<samplecharacteristics>
										<depth>16</depth>
										<samplerate>48000</samplerate>
									</samplecharacteristics>
									<channelcount>2</channelcount>
								</audio>
							</media>
						</file>
						<sourcetrack>
							<mediatype>audio</mediatype>
							<trackindex>1</trackindex>
						</sourcetrack>
							<filter>
								<effect>
									<name>Gain</name>
									<effectid>{61756678, 4761696e, 4b657947}</effectid>
									<effecttype>filter</effecttype>
									<mediatype>audio</mediatype>
									<parameter authoringApp="PremierePro">
										<parameterid>Gain(dB)</parameterid>
										<name>Gain(dB)</name>
										<valuemin>-96</valuemin>
										<valuemax>96</valuemax>
										<value>-25</value>
									</parameter>
								</effect>
							</filter>
						<link>
							<linkclipref>clipitem-826</linkclipref>
							<mediatype>audio</mediatype>
							<trackindex>17</trackindex>
							<clipindex>10</clipindex>
							<groupindex>1</groupindex>
						</link>
						<link>
							<linkclipref>clipitem-848</linkclipref>
							<mediatype>audio</mediatype>
							<trackindex>18</trackindex>
							<clipindex>9</clipindex>
							<groupindex>1</groupindex>
						</link>
						<logginginfo>
							<description></description>
							<scene></scene>
							<shottake></shottake>
							<lognote>CD Track 2 archiveNo[306374018]</lognote>
						</logginginfo>
						<labels>
							<label2>Iris</label2>
						</labels>
					</clipitem>
					<clipitem id="clipitem-827" premiereChannelType="stereo">
						<masterclipid>masterclip-205</masterclipid>
						<name>NONRO151161CD0005 Get it on the Floor.wav</name>
						<enabled>TRUE</enabled>
						<duration>6553</duration>
						<rate>
							<timebase>25</timebase>
							<ntsc>FALSE</ntsc>
						</rate>
						<start>23556</start>
						<end>-1</end>
						<in>8</in>
						<out>43</out>
						<pproTicksIn>81285120000</pproTicksIn>
						<pproTicksOut>436907520000</pproTicksOut>
						<file id="file-189">
							<name>NONRO151161CD0005 Get it on the Floor.wav</name>
							<pathurl>file://localhost/Volumes/Bingen/Prosjekter/MYNT194016%20WHATS%20COOKING/Musikk/Marita/Power/NONRO151161CD0005%20Get%20it%20on%20the%20Floor.wav</pathurl>
							<rate>
								<timebase>30</timebase>
								<ntsc>TRUE</ntsc>
							</rate>
							<duration>7856</duration>
							<timecode>
								<rate>
									<timebase>30</timebase>
									<ntsc>TRUE</ntsc>
								</rate>
								<string>00;00;00;00</string>
								<frame>0</frame>
								<displayformat>DF</displayformat>
								<reel>
									<name></name>
								</reel>
							</timecode>
							<media>
								<audio>
									<samplecharacteristics>
										<depth>16</depth>
										<samplerate>48000</samplerate>
									</samplecharacteristics>
									<channelcount>2</channelcount>
								</audio>
							</media>
						</file>
						<sourcetrack>
							<mediatype>audio</mediatype>
							<trackindex>1</trackindex>
						</sourcetrack>
							<filter>
								<effect>
									<name>Gain</name>
									<effectid>{61756678, 4761696e, 4b657947}</effectid>
									<effecttype>filter</effecttype>
									<mediatype>audio</mediatype>
									<parameter authoringApp="PremierePro">
										<parameterid>Gain(dB)</parameterid>
										<name>Gain(dB)</name>
										<valuemin>-96</valuemin>
										<valuemax>96</valuemax>
										<value>-25</value>
									</parameter>
								</effect>
							</filter>
						<link>
							<linkclipref>clipitem-827</linkclipref>
							<mediatype>audio</mediatype>
							<trackindex>17</trackindex>
							<clipindex>11</clipindex>
							<groupindex>1</groupindex>
						</link>
						<link>
							<linkclipref>clipitem-849</linkclipref>
							<mediatype>audio</mediatype>
							<trackindex>18</trackindex>
							<clipindex>10</clipindex>
							<groupindex>1</groupindex>
						</link>
						<logginginfo>
							<description></description>
							<scene></scene>
							<shottake></shottake>
							<lognote>CD Track 5 archiveNo[151161015]</lognote>
						</logginginfo>
						<labels>
							<label2>Caribbean</label2>
						</labels>
					</clipitem>
					<transitionitem>
						<start>23578</start>
						<end>23591</end>
						<alignment>center</alignment>
						<cutPointTicks>60963840000</cutPointTicks>
						<rate>
							<timebase>25</timebase>
							<ntsc>FALSE</ntsc>
						</rate>
						<effect>
							<name>Cross Fade (+3dB)</name>
							<effectid>KGAudioTransCrossFade3dB</effectid>
							<effecttype>transition</effecttype>
							<mediatype>audio</mediatype>
							<wipecode>0</wipecode>
							<wipeaccuracy>100</wipeaccuracy>
							<startratio>0</startratio>
							<endratio>1</endratio>
							<reverse>FALSE</reverse>
						</effect>
					</transitionitem>
					<clipitem id="clipitem-828" premiereChannelType="stereo">
						<masterclipid>masterclip-205</masterclipid>
						<name>NONRO151161CD0005 Get it on the Floor.wav</name>
						<enabled>TRUE</enabled>
						<duration>6553</duration>
						<rate>
							<timebase>25</timebase>
							<ntsc>FALSE</ntsc>
						</rate>
						<start>-1</start>
						<end>-1</end>
						<in>30</in>
						<out>314</out>
						<pproTicksIn>304819200000</pproTicksIn>
						<pproTicksOut>3190440960000</pproTicksOut>
						<file id="file-189"/>
						<sourcetrack>
							<mediatype>audio</mediatype>
							<trackindex>1</trackindex>
						</sourcetrack>
							<filter>
								<effect>
									<name>Gain</name>
									<effectid>{61756678, 4761696e, 4b657947}</effectid>
									<effecttype>filter</effecttype>
									<mediatype>audio</mediatype>
									<parameter authoringApp="PremierePro">
										<parameterid>Gain(dB)</parameterid>
										<name>Gain(dB)</name>
										<valuemin>-96</valuemin>
										<valuemax>96</valuemax>
										<value>-16</value>
									</parameter>
								</effect>
							</filter>
						<link>
							<linkclipref>clipitem-828</linkclipref>
							<mediatype>audio</mediatype>
							<trackindex>17</trackindex>
							<clipindex>13</clipindex>
							<groupindex>1</groupindex>
						</link>
						<link>
							<linkclipref>clipitem-850</linkclipref>
							<mediatype>audio</mediatype>
							<trackindex>18</trackindex>
							<clipindex>12</clipindex>
							<groupindex>1</groupindex>
						</link>
						<logginginfo>
							<description></description>
							<scene></scene>
							<shottake></shottake>
							<lognote>CD Track 5 archiveNo[151161015]</lognote>
						</logginginfo>
						<labels>
							<label2>Caribbean</label2>
						</labels>
					</clipitem>
					<transitionitem>
						<start>23849</start>
						<end>23862</end>
						<alignment>center</alignment>
						<cutPointTicks>60963840000</cutPointTicks>
						<rate>
							<timebase>25</timebase>
							<ntsc>FALSE</ntsc>
						</rate>
						<effect>
							<name>Cross Fade (+3dB)</name>
							<effectid>KGAudioTransCrossFade3dB</effectid>
							<effecttype>transition</effecttype>
							<mediatype>audio</mediatype>
							<wipecode>0</wipecode>
							<wipeaccuracy>100</wipeaccuracy>
							<startratio>0</startratio>
							<endratio>1</endratio>
							<reverse>FALSE</reverse>
						</effect>
					</transitionitem>
					<clipitem id="clipitem-829" premiereChannelType="stereo">
						<masterclipid>masterclip-205</masterclipid>
						<name>NONRO151161CD0005 Get it on the Floor.wav</name>
						<enabled>TRUE</enabled>
						<duration>6553</duration>
						<rate>
							<timebase>25</timebase>
							<ntsc>FALSE</ntsc>
						</rate>
						<start>-1</start>
						<end>-1</end>
						<in>301</in>
						<out>341</out>
						<pproTicksIn>3058352640000</pproTicksIn>
						<pproTicksOut>3464778240000</pproTicksOut>
						<file id="file-189"/>
						<sourcetrack>
							<mediatype>audio</mediatype>
							<trackindex>1</trackindex>
						</sourcetrack>
							<filter>
								<effect>
									<name>Gain</name>
									<effectid>{61756678, 4761696e, 4b657947}</effectid>
									<effecttype>filter</effecttype>
									<mediatype>audio</mediatype>
									<parameter authoringApp="PremierePro">
										<parameterid>Gain(dB)</parameterid>
										<name>Gain(dB)</name>
										<valuemin>-96</valuemin>
										<valuemax>96</valuemax>
										<value>-26</value>
									</parameter>
								</effect>
							</filter>
						<link>
							<linkclipref>clipitem-829</linkclipref>
							<mediatype>audio</mediatype>
							<trackindex>17</trackindex>
							<clipindex>15</clipindex>
							<groupindex>1</groupindex>
						</link>
						<link>
							<linkclipref>clipitem-851</linkclipref>
							<mediatype>audio</mediatype>
							<trackindex>18</trackindex>
							<clipindex>14</clipindex>
							<groupindex>1</groupindex>
						</link>
						<logginginfo>
							<description></description>
							<scene></scene>
							<shottake></shottake>
							<lognote>CD Track 5 archiveNo[151161015]</lognote>
						</logginginfo>
						<labels>
							<label2>Caribbean</label2>
						</labels>
					</clipitem>
					<transitionitem>
						<start>23876</start>
						<end>23889</end>
						<alignment>center</alignment>
						<cutPointTicks>60963840000</cutPointTicks>
						<rate>
							<timebase>25</timebase>
							<ntsc>FALSE</ntsc>
						</rate>
						<effect>
							<name>Cross Fade (+3dB)</name>
							<effectid>KGAudioTransCrossFade3dB</effectid>
							<effecttype>transition</effecttype>
							<mediatype>audio</mediatype>
							<wipecode>0</wipecode>
							<wipeaccuracy>100</wipeaccuracy>
							<startratio>0</startratio>
							<endratio>1</endratio>
							<reverse>FALSE</reverse>
						</effect>
					</transitionitem>
					<clipitem id="clipitem-830" premiereChannelType="stereo">
						<masterclipid>masterclip-205</masterclipid>
						<name>NONRO151161CD0005 Get it on the Floor.wav</name>
						<enabled>TRUE</enabled>
						<duration>6553</duration>
						<rate>
							<timebase>25</timebase>
							<ntsc>FALSE</ntsc>
						</rate>
						<start>-1</start>
						<end>-1</end>
						<in>328</in>
						<out>666</out>
						<pproTicksIn>3332689920000</pproTicksIn>
						<pproTicksOut>6766986240000</pproTicksOut>
						<file id="file-189"/>
						<sourcetrack>
							<mediatype>audio</mediatype>
							<trackindex>1</trackindex>
						</sourcetrack>
							<filter>
								<effect>
									<name>Gain</name>
									<effectid>{61756678, 4761696e, 4b657947}</effectid>
									<effecttype>filter</effecttype>
									<mediatype>audio</mediatype>
									<parameter authoringApp="PremierePro">
										<parameterid>Gain(dB)</parameterid>
										<name>Gain(dB)</name>
										<valuemin>-96</valuemin>
										<valuemax>96</valuemax>
										<value>-16</value>
									</parameter>
								</effect>
							</filter>
						<link>
							<linkclipref>clipitem-830</linkclipref>
							<mediatype>audio</mediatype>
							<trackindex>17</trackindex>
							<clipindex>17</clipindex>
							<groupindex>1</groupindex>
						</link>
						<link>
							<linkclipref>clipitem-852</linkclipref>
							<mediatype>audio</mediatype>
							<trackindex>18</trackindex>
							<clipindex>16</clipindex>
							<groupindex>1</groupindex>
						</link>
						<logginginfo>
							<description></description>
							<scene></scene>
							<shottake></shottake>
							<lognote>CD Track 5 archiveNo[151161015]</lognote>
						</logginginfo>
						<labels>
							<label2>Caribbean</label2>
						</labels>
					</clipitem>
					<transitionitem>
						<start>24192</start>
						<end>24214</end>
						<alignment>end-black</alignment>
						<cutPointTicks>223534080000</cutPointTicks>
						<rate>
							<timebase>25</timebase>
							<ntsc>FALSE</ntsc>
						</rate>
						<effect>
							<name>Cross Fade (+3dB)</name>
							<effectid>KGAudioTransCrossFade3dB</effectid>
							<effecttype>transition</effecttype>
							<mediatype>audio</mediatype>
							<wipecode>0</wipecode>
							<wipeaccuracy>100</wipeaccuracy>
							<startratio>0</startratio>
							<endratio>1</endratio>
							<reverse>FALSE</reverse>
						</effect>
					</transitionitem>
					<transitionitem>
						<start>25443</start>
						<end>25456</end>
						<alignment>start-black</alignment>
						<cutPointTicks>0</cutPointTicks>
						<rate>
							<timebase>25</timebase>
							<ntsc>FALSE</ntsc>
						</rate>
						<effect>
							<name>Cross Fade (+3dB)</name>
							<effectid>KGAudioTransCrossFade3dB</effectid>
							<effecttype>transition</effecttype>
							<mediatype>audio</mediatype>
							<wipecode>0</wipecode>
							<wipeaccuracy>100</wipeaccuracy>
							<startratio>0</startratio>
							<endratio>1</endratio>
							<reverse>FALSE</reverse>
						</effect>
					</transitionitem>
					<clipitem id="clipitem-831" premiereChannelType="stereo">
						<masterclipid>masterclip-206</masterclipid>
						<name>NONRO130128CD0008 Mama Said Knock You Out.wav</name>
						<enabled>TRUE</enabled>
						<duration>7324</duration>
						<rate>
							<timebase>25</timebase>
							<ntsc>FALSE</ntsc>
						</rate>
						<start>-1</start>
						<end>-1</end>
						<in>1331</in>
						<out>1398</out>
						<pproTicksIn>13523811840000</pproTicksIn>
						<pproTicksOut>14204574720000</pproTicksOut>
						<file id="file-190">
							<name>NONRO130128CD0008 Mama Said Knock You Out.wav</name>
							<pathurl>file://localhost/Volumes/Bingen/Prosjekter/MYNT194016%20WHATS%20COOKING/Musikk/Marita/Power/NONRO130128CD0008%20Mama%20Said%20Knock%20You%20Out.wav</pathurl>
							<rate>
								<timebase>30</timebase>
								<ntsc>TRUE</ntsc>
							</rate>
							<duration>8780</duration>
							<timecode>
								<rate>
									<timebase>30</timebase>
									<ntsc>TRUE</ntsc>
								</rate>
								<string>00;00;00;00</string>
								<frame>0</frame>
								<displayformat>DF</displayformat>
								<reel>
									<name></name>
								</reel>
							</timecode>
							<media>
								<audio>
									<samplecharacteristics>
										<depth>16</depth>
										<samplerate>48000</samplerate>
									</samplecharacteristics>
									<channelcount>2</channelcount>
								</audio>
							</media>
						</file>
						<sourcetrack>
							<mediatype>audio</mediatype>
							<trackindex>1</trackindex>
						</sourcetrack>
							<filter>
								<effect>
									<name>Gain</name>
									<effectid>{61756678, 4761696e, 4b657947}</effectid>
									<effecttype>filter</effecttype>
									<mediatype>audio</mediatype>
									<parameter authoringApp="PremierePro">
										<parameterid>Gain(dB)</parameterid>
										<name>Gain(dB)</name>
										<valuemin>-96</valuemin>
										<valuemax>96</valuemax>
										<value>-20</value>
									</parameter>
								</effect>
							</filter>
						<link>
							<linkclipref>clipitem-831</linkclipref>
							<mediatype>audio</mediatype>
							<trackindex>17</trackindex>
							<clipindex>20</clipindex>
							<groupindex>1</groupindex>
						</link>
						<link>
							<linkclipref>clipitem-853</linkclipref>
							<mediatype>audio</mediatype>
							<trackindex>18</trackindex>
							<clipindex>19</clipindex>
							<groupindex>1</groupindex>
						</link>
						<logginginfo>
							<description></description>
							<scene></scene>
							<shottake></shottake>
							<lognote>CD Track 8 archiveNo[130128010]</lognote>
						</logginginfo>
						<labels>
							<label2>Caribbean</label2>
						</labels>
					</clipitem>
					<transitionitem>
						<start>25497</start>
						<end>25510</end>
						<alignment>center</alignment>
						<cutPointTicks>60963840000</cutPointTicks>
						<rate>
							<timebase>25</timebase>
							<ntsc>FALSE</ntsc>
						</rate>
						<effect>
							<name>Cross Fade (+3dB)</name>
							<effectid>KGAudioTransCrossFade3dB</effectid>
							<effecttype>transition</effecttype>
							<mediatype>audio</mediatype>
							<wipecode>0</wipecode>
							<wipeaccuracy>100</wipeaccuracy>
							<startratio>0</startratio>
							<endratio>1</endratio>
							<reverse>FALSE</reverse>
						</effect>
					</transitionitem>
					<clipitem id="clipitem-832" premiereChannelType="stereo">
						<masterclipid>masterclip-206</masterclipid>
						<name>NONRO130128CD0008 Mama Said Knock You Out.wav</name>
						<enabled>TRUE</enabled>
						<duration>7324</duration>
						<rate>
							<timebase>25</timebase>
							<ntsc>FALSE</ntsc>
						</rate>
						<start>-1</start>
						<end>-1</end>
						<in>1385</in>
						<out>1462</out>
						<pproTicksIn>14072486400000</pproTicksIn>
						<pproTicksOut>14854855680000</pproTicksOut>
						<file id="file-190"/>
						<sourcetrack>
							<mediatype>audio</mediatype>
							<trackindex>1</trackindex>
						</sourcetrack>
							<filter>
								<effect>
									<name>Gain</name>
									<effectid>{61756678, 4761696e, 4b657947}</effectid>
									<effecttype>filter</effecttype>
									<mediatype>audio</mediatype>
									<parameter authoringApp="PremierePro">
										<parameterid>Gain(dB)</parameterid>
										<name>Gain(dB)</name>
										<valuemin>-96</valuemin>
										<valuemax>96</valuemax>
										<value>-20</value>
									</parameter>
								</effect>
							</filter>
						<link>
							<linkclipref>clipitem-832</linkclipref>
							<mediatype>audio</mediatype>
							<trackindex>17</trackindex>
							<clipindex>22</clipindex>
							<groupindex>1</groupindex>
						</link>
						<link>
							<linkclipref>clipitem-854</linkclipref>
							<mediatype>audio</mediatype>
							<trackindex>18</trackindex>
							<clipindex>21</clipindex>
							<groupindex>1</groupindex>
						</link>
						<logginginfo>
							<description></description>
							<scene></scene>
							<shottake></shottake>
							<lognote>CD Track 8 archiveNo[130128010]</lognote>
						</logginginfo>
						<labels>
							<label2>Caribbean</label2>
						</labels>
					</clipitem>
					<transitionitem>
						<start>25561</start>
						<end>25574</end>
						<alignment>center</alignment>
						<cutPointTicks>60963840000</cutPointTicks>
						<rate>
							<timebase>25</timebase>
							<ntsc>FALSE</ntsc>
						</rate>
						<effect>
							<name>Cross Fade (+3dB)</name>
							<effectid>KGAudioTransCrossFade3dB</effectid>
							<effecttype>transition</effecttype>
							<mediatype>audio</mediatype>
							<wipecode>0</wipecode>
							<wipeaccuracy>100</wipeaccuracy>
							<startratio>0</startratio>
							<endratio>1</endratio>
							<reverse>FALSE</reverse>
						</effect>
					</transitionitem>
					<clipitem id="clipitem-833" premiereChannelType="stereo">
						<masterclipid>masterclip-206</masterclipid>
						<name>NONRO130128CD0008 Mama Said Knock You Out.wav</name>
						<enabled>TRUE</enabled>
						<duration>7324</duration>
						<rate>
							<timebase>25</timebase>
							<ntsc>FALSE</ntsc>
						</rate>
						<start>-1</start>
						<end>-1</end>
						<in>1449</in>
						<out>1497</out>
						<pproTicksIn>14722767360000</pproTicksIn>
						<pproTicksOut>15210478080000</pproTicksOut>
						<file id="file-190"/>
						<sourcetrack>
							<mediatype>audio</mediatype>
							<trackindex>1</trackindex>
						</sourcetrack>
							<filter>
								<effect>
									<name>Gain</name>
									<effectid>{61756678, 4761696e, 4b657947}</effectid>
									<effecttype>filter</effecttype>
									<mediatype>audio</mediatype>
									<parameter authoringApp="PremierePro">
										<parameterid>Gain(dB)</parameterid>
										<name>Gain(dB)</name>
										<valuemin>-96</valuemin>
										<valuemax>96</valuemax>
										<value>-11</value>
									</parameter>
								</effect>
							</filter>
						<link>
							<linkclipref>clipitem-833</linkclipref>
							<mediatype>audio</mediatype>
							<trackindex>17</trackindex>
							<clipindex>24</clipindex>
							<groupindex>1</groupindex>
						</link>
						<link>
							<linkclipref>clipitem-855</linkclipref>
							<mediatype>audio</mediatype>
							<trackindex>18</trackindex>
							<clipindex>23</clipindex>
							<groupindex>1</groupindex>
						</link>
						<logginginfo>
							<description></description>
							<scene></scene>
							<shottake></shottake>
							<lognote>CD Track 8 archiveNo[130128010]</lognote>
						</logginginfo>
						<labels>
							<label2>Caribbean</label2>
						</labels>
					</clipitem>
					<transitionitem>
						<start>25596</start>
						<end>25609</end>
						<alignment>center</alignment>
						<cutPointTicks>60963840000</cutPointTicks>
						<rate>
							<timebase>25</timebase>
							<ntsc>FALSE</ntsc>
						</rate>
						<effect>
							<name>Cross Fade (+3dB)</name>
							<effectid>KGAudioTransCrossFade3dB</effectid>
							<effecttype>transition</effecttype>
							<mediatype>audio</mediatype>
							<wipecode>0</wipecode>
							<wipeaccuracy>100</wipeaccuracy>
							<startratio>0</startratio>
							<endratio>1</endratio>
							<reverse>FALSE</reverse>
						</effect>
					</transitionitem>
					<clipitem id="clipitem-834" premiereChannelType="stereo">
						<masterclipid>masterclip-206</masterclipid>
						<name>NONRO130128CD0008 Mama Said Knock You Out.wav</name>
						<enabled>TRUE</enabled>
						<duration>7324</duration>
						<rate>
							<timebase>25</timebase>
							<ntsc>FALSE</ntsc>
						</rate>
						<start>-1</start>
						<end>-1</end>
						<in>1484</in>
						<out>1522</out>
						<pproTicksIn>15078389760000</pproTicksIn>
						<pproTicksOut>15470749224000</pproTicksOut>
						<file id="file-190"/>
						<sourcetrack>
							<mediatype>audio</mediatype>
							<trackindex>1</trackindex>
						</sourcetrack>
							<filter>
								<effect>
									<name>Gain</name>
									<effectid>{61756678, 4761696e, 4b657947}</effectid>
									<effecttype>filter</effecttype>
									<mediatype>audio</mediatype>
									<parameter authoringApp="PremierePro">
										<parameterid>Gain(dB)</parameterid>
										<name>Gain(dB)</name>
										<valuemin>-96</valuemin>
										<valuemax>96</valuemax>
										<value>-17</value>
									</parameter>
								</effect>
							</filter>
						<link>
							<linkclipref>clipitem-834</linkclipref>
							<mediatype>audio</mediatype>
							<trackindex>17</trackindex>
							<clipindex>26</clipindex>
							<groupindex>1</groupindex>
						</link>
						<link>
							<linkclipref>clipitem-856</linkclipref>
							<mediatype>audio</mediatype>
							<trackindex>18</trackindex>
							<clipindex>25</clipindex>
							<groupindex>1</groupindex>
						</link>
						<logginginfo>
							<description></description>
							<scene></scene>
							<shottake></shottake>
							<lognote>CD Track 8 archiveNo[130128010]</lognote>
						</logginginfo>
						<labels>
							<label2>Caribbean</label2>
						</labels>
					</clipitem>
					<transitionitem>
						<start>25618</start>
						<end>25634</end>
						<alignment>center</alignment>
						<cutPointTicks>75029976000</cutPointTicks>
						<rate>
							<timebase>25</timebase>
							<ntsc>FALSE</ntsc>
						</rate>
						<effect>
							<name>Cross Fade (+3dB)</name>
							<effectid>KGAudioTransCrossFade3dB</effectid>
							<effecttype>transition</effecttype>
							<mediatype>audio</mediatype>
							<wipecode>0</wipecode>
							<wipeaccuracy>100</wipeaccuracy>
							<startratio>0</startratio>
							<endratio>1</endratio>
							<reverse>FALSE</reverse>
						</effect>
					</transitionitem>
					<clipitem id="clipitem-835" premiereChannelType="stereo">
						<masterclipid>masterclip-206</masterclipid>
						<name>NONRO130128CD0008 Mama Said Knock You Out.wav</name>
						<enabled>TRUE</enabled>
						<duration>7324</duration>
						<rate>
							<timebase>25</timebase>
							<ntsc>FALSE</ntsc>
						</rate>
						<start>-1</start>
						<end>-1</end>
						<in>1506</in>
						<out>1748</out>
						<pproTicksIn>15308178984000</pproTicksIn>
						<pproTicksOut>17760798720000</pproTicksOut>
						<file id="file-190"/>
						<sourcetrack>
							<mediatype>audio</mediatype>
							<trackindex>1</trackindex>
						</sourcetrack>
							<filter>
								<effect>
									<name>Gain</name>
									<effectid>{61756678, 4761696e, 4b657947}</effectid>
									<effecttype>filter</effecttype>
									<mediatype>audio</mediatype>
									<parameter authoringApp="PremierePro">
										<parameterid>Gain(dB)</parameterid>
										<name>Gain(dB)</name>
										<valuemin>-96</valuemin>
										<valuemax>96</valuemax>
										<value>-9</value>
									</parameter>
								</effect>
							</filter>
						<link>
							<linkclipref>clipitem-835</linkclipref>
							<mediatype>audio</mediatype>
							<trackindex>17</trackindex>
							<clipindex>28</clipindex>
							<groupindex>1</groupindex>
						</link>
						<link>
							<linkclipref>clipitem-857</linkclipref>
							<mediatype>audio</mediatype>
							<trackindex>18</trackindex>
							<clipindex>27</clipindex>
							<groupindex>1</groupindex>
						</link>
						<logginginfo>
							<description></description>
							<scene></scene>
							<shottake></shottake>
							<lognote>CD Track 8 archiveNo[130128010]</lognote>
						</logginginfo>
						<labels>
							<label2>Caribbean</label2>
						</labels>
					</clipitem>
					<transitionitem>
						<start>25825</start>
						<end>25860</end>
						<alignment>end-black</alignment>
						<cutPointTicks>355622400000</cutPointTicks>
						<rate>
							<timebase>25</timebase>
							<ntsc>FALSE</ntsc>
						</rate>
						<effect>
							<name>Cross Fade (+3dB)</name>
							<effectid>KGAudioTransCrossFade3dB</effectid>
							<effecttype>transition</effecttype>
							<mediatype>audio</mediatype>
							<wipecode>0</wipecode>
							<wipeaccuracy>100</wipeaccuracy>
							<startratio>0</startratio>
							<endratio>1</endratio>
							<reverse>FALSE</reverse>
						</effect>
					</transitionitem>
					<clipitem id="clipitem-836" premiereChannelType="stereo">
						<masterclipid>masterclip-207</masterclipid>
						<name>NONRE643326HD0001 Panda.wav</name>
						<enabled>TRUE</enabled>
						<duration>6196</duration>
						<rate>
							<timebase>25</timebase>
							<ntsc>FALSE</ntsc>
						</rate>
						<start>25916</start>
						<end>-1</end>
						<in>2529</in>
						<out>2592</out>
						<pproTicksIn>25696258560000</pproTicksIn>
						<pproTicksOut>26336378880000</pproTicksOut>
						<file id="file-191">
							<name>NONRE643326HD0001 Panda.wav</name>
							<pathurl>file://localhost/Volumes/Bingen/Prosjekter/MYNT194016%20WHATS%20COOKING/Musikk/Marita/div/dma%20Thu%20Apr%2028%2016%3a30%3a07%202016/NONRE643326HD0001%20Panda.wav</pathurl>
							<rate>
								<timebase>30</timebase>
								<ntsc>TRUE</ntsc>
							</rate>
							<duration>7428</duration>
							<timecode>
								<rate>
									<timebase>30</timebase>
									<ntsc>TRUE</ntsc>
								</rate>
								<string>00;00;00;00</string>
								<frame>0</frame>
								<displayformat>DF</displayformat>
								<reel>
									<name></name>
								</reel>
							</timecode>
							<media>
								<audio>
									<samplecharacteristics>
										<depth>16</depth>
										<samplerate>48000</samplerate>
									</samplecharacteristics>
									<channelcount>2</channelcount>
								</audio>
							</media>
						</file>
						<sourcetrack>
							<mediatype>audio</mediatype>
							<trackindex>1</trackindex>
						</sourcetrack>
							<filter>
								<effect>
									<name>Gain</name>
									<effectid>{61756678, 4761696e, 4b657947}</effectid>
									<effecttype>filter</effecttype>
									<mediatype>audio</mediatype>
									<parameter authoringApp="PremierePro">
										<parameterid>Gain(dB)</parameterid>
										<name>Gain(dB)</name>
										<valuemin>-96</valuemin>
										<valuemax>96</valuemax>
										<value>-14</value>
									</parameter>
								</effect>
							</filter>
						<link>
							<linkclipref>clipitem-836</linkclipref>
							<mediatype>audio</mediatype>
							<trackindex>17</trackindex>
							<clipindex>30</clipindex>
							<groupindex>1</groupindex>
						</link>
						<link>
							<linkclipref>clipitem-858</linkclipref>
							<mediatype>audio</mediatype>
							<trackindex>18</trackindex>
							<clipindex>29</clipindex>
							<groupindex>1</groupindex>
						</link>
						<logginginfo>
							<description>Aon theme song?</description>
							<scene></scene>
							<shottake></shottake>
							<lognote></lognote>
						</logginginfo>
						<labels>
							<label2>Caribbean</label2>
						</labels>
					</clipitem>
					<transitionitem>
						<start>25966</start>
						<end>25979</end>
						<alignment>center</alignment>
						<cutPointTicks>60963840000</cutPointTicks>
						<rate>
							<timebase>25</timebase>
							<ntsc>FALSE</ntsc>
						</rate>
						<effect>
							<name>Cross Fade (+3dB)</name>
							<effectid>KGAudioTransCrossFade3dB</effectid>
							<effecttype>transition</effecttype>
							<mediatype>audio</mediatype>
							<wipecode>0</wipecode>
							<wipeaccuracy>100</wipeaccuracy>
							<startratio>0</startratio>
							<endratio>1</endratio>
							<reverse>FALSE</reverse>
						</effect>
					</transitionitem>
					<clipitem id="clipitem-837" premiereChannelType="stereo">
						<masterclipid>masterclip-207</masterclipid>
						<name>NONRE643326HD0001 Panda.wav</name>
						<enabled>TRUE</enabled>
						<duration>6196</duration>
						<rate>
							<timebase>25</timebase>
							<ntsc>FALSE</ntsc>
						</rate>
						<start>-1</start>
						<end>-1</end>
						<in>2579</in>
						<out>2853</out>
						<pproTicksIn>26204290560000</pproTicksIn>
						<pproTicksOut>28988305920000</pproTicksOut>
						<file id="file-191"/>
						<sourcetrack>
							<mediatype>audio</mediatype>
							<trackindex>1</trackindex>
						</sourcetrack>
							<filter>
								<effect>
									<name>Gain</name>
									<effectid>{61756678, 4761696e, 4b657947}</effectid>
									<effecttype>filter</effecttype>
									<mediatype>audio</mediatype>
									<parameter authoringApp="PremierePro">
										<parameterid>Gain(dB)</parameterid>
										<name>Gain(dB)</name>
										<valuemin>-96</valuemin>
										<valuemax>96</valuemax>
										<value>-14</value>
									</parameter>
								</effect>
							</filter>
						<link>
							<linkclipref>clipitem-837</linkclipref>
							<mediatype>audio</mediatype>
							<trackindex>17</trackindex>
							<clipindex>32</clipindex>
							<groupindex>1</groupindex>
						</link>
						<link>
							<linkclipref>clipitem-859</linkclipref>
							<mediatype>audio</mediatype>
							<trackindex>18</trackindex>
							<clipindex>31</clipindex>
							<groupindex>1</groupindex>
						</link>
						<logginginfo>
							<description>Aon theme song?</description>
							<scene></scene>
							<shottake></shottake>
							<lognote></lognote>
						</logginginfo>
						<labels>
							<label2>Caribbean</label2>
						</labels>
					</clipitem>
					<transitionitem>
						<start>26227</start>
						<end>26240</end>
						<alignment>center</alignment>
						<cutPointTicks>60963840000</cutPointTicks>
						<rate>
							<timebase>25</timebase>
							<ntsc>FALSE</ntsc>
						</rate>
						<effect>
							<name>Cross Fade (+3dB)</name>
							<effectid>KGAudioTransCrossFade3dB</effectid>
							<effecttype>transition</effecttype>
							<mediatype>audio</mediatype>
							<wipecode>0</wipecode>
							<wipeaccuracy>100</wipeaccuracy>
							<startratio>0</startratio>
							<endratio>1</endratio>
							<reverse>FALSE</reverse>
						</effect>
					</transitionitem>
					<clipitem id="clipitem-838" premiereChannelType="stereo">
						<masterclipid>masterclip-207</masterclipid>
						<name>NONRE643326HD0001 Panda.wav</name>
						<enabled>TRUE</enabled>
						<duration>6196</duration>
						<rate>
							<timebase>25</timebase>
							<ntsc>FALSE</ntsc>
						</rate>
						<start>-1</start>
						<end>-1</end>
						<in>2840</in>
						<out>2907</out>
						<pproTicksIn>28856217600000</pproTicksIn>
						<pproTicksOut>29536980480000</pproTicksOut>
						<file id="file-191"/>
						<sourcetrack>
							<mediatype>audio</mediatype>
							<trackindex>1</trackindex>
						</sourcetrack>
							<filter>
								<effect>
									<name>Gain</name>
									<effectid>{61756678, 4761696e, 4b657947}</effectid>
									<effecttype>filter</effecttype>
									<mediatype>audio</mediatype>
									<parameter authoringApp="PremierePro">
										<parameterid>Gain(dB)</parameterid>
										<name>Gain(dB)</name>
										<valuemin>-96</valuemin>
										<valuemax>96</valuemax>
										<value>-26</value>
									</parameter>
								</effect>
							</filter>
						<link>
							<linkclipref>clipitem-838</linkclipref>
							<mediatype>audio</mediatype>
							<trackindex>17</trackindex>
							<clipindex>34</clipindex>
							<groupindex>1</groupindex>
						</link>
						<link>
							<linkclipref>clipitem-860</linkclipref>
							<mediatype>audio</mediatype>
							<trackindex>18</trackindex>
							<clipindex>33</clipindex>
							<groupindex>1</groupindex>
						</link>
						<logginginfo>
							<description>Aon theme song?</description>
							<scene></scene>
							<shottake></shottake>
							<lognote></lognote>
						</logginginfo>
						<labels>
							<label2>Caribbean</label2>
						</labels>
					</clipitem>
					<transitionitem>
						<start>26281</start>
						<end>26294</end>
						<alignment>center</alignment>
						<cutPointTicks>60963840000</cutPointTicks>
						<rate>
							<timebase>25</timebase>
							<ntsc>FALSE</ntsc>
						</rate>
						<effect>
							<name>Cross Fade (+3dB)</name>
							<effectid>KGAudioTransCrossFade3dB</effectid>
							<effecttype>transition</effecttype>
							<mediatype>audio</mediatype>
							<wipecode>0</wipecode>
							<wipeaccuracy>100</wipeaccuracy>
							<startratio>0</startratio>
							<endratio>1</endratio>
							<reverse>FALSE</reverse>
						</effect>
					</transitionitem>
					<clipitem id="clipitem-839" premiereChannelType="stereo">
						<masterclipid>masterclip-207</masterclipid>
						<name>NONRE643326HD0001 Panda.wav</name>
						<enabled>TRUE</enabled>
						<duration>6196</duration>
						<rate>
							<timebase>25</timebase>
							<ntsc>FALSE</ntsc>
						</rate>
						<start>-1</start>
						<end>26412</end>
						<in>2894</in>
						<out>3025</out>
						<pproTicksIn>29404892160000</pproTicksIn>
						<pproTicksOut>30735936000000</pproTicksOut>
						<file id="file-191"/>
						<sourcetrack>
							<mediatype>audio</mediatype>
							<trackindex>1</trackindex>
						</sourcetrack>
							<filter>
								<effect>
									<name>Gain</name>
									<effectid>{61756678, 4761696e, 4b657947}</effectid>
									<effecttype>filter</effecttype>
									<mediatype>audio</mediatype>
									<parameter authoringApp="PremierePro">
										<parameterid>Gain(dB)</parameterid>
										<name>Gain(dB)</name>
										<valuemin>-96</valuemin>
										<valuemax>96</valuemax>
										<value>-14</value>
									</parameter>
								</effect>
							</filter>
						<link>
							<linkclipref>clipitem-839</linkclipref>
							<mediatype>audio</mediatype>
							<trackindex>17</trackindex>
							<clipindex>36</clipindex>
							<groupindex>1</groupindex>
						</link>
						<link>
							<linkclipref>clipitem-861</linkclipref>
							<mediatype>audio</mediatype>
							<trackindex>18</trackindex>
							<clipindex>35</clipindex>
							<groupindex>1</groupindex>
						</link>
						<logginginfo>
							<description>Aon theme song?</description>
							<scene></scene>
							<shottake></shottake>
							<lognote></lognote>
						</logginginfo>
						<labels>
							<label2>Caribbean</label2>
						</labels>
					</clipitem>
					<clipitem id="clipitem-840" premiereChannelType="stereo">
						<masterclipid>masterclip-207</masterclipid>
						<name>NONRE643326HD0001 Panda.wav</name>
						<enabled>TRUE</enabled>
						<duration>6196</duration>
						<rate>
							<timebase>25</timebase>
							<ntsc>FALSE</ntsc>
						</rate>
						<start>26412</start>
						<end>-1</end>
						<in>3025</in>
						<out>3077</out>
						<pproTicksIn>30735936000000</pproTicksIn>
						<pproTicksOut>31264289280000</pproTicksOut>
						<file id="file-191"/>
						<sourcetrack>
							<mediatype>audio</mediatype>
							<trackindex>1</trackindex>
						</sourcetrack>
							<filter>
								<effect>
									<name>Gain</name>
									<effectid>{61756678, 4761696e, 4b657947}</effectid>
									<effecttype>filter</effecttype>
									<mediatype>audio</mediatype>
									<parameter authoringApp="PremierePro">
										<parameterid>Gain(dB)</parameterid>
										<name>Gain(dB)</name>
										<valuemin>-96</valuemin>
										<valuemax>96</valuemax>
										<value>-14</value>
									</parameter>
								</effect>
							</filter>
						<link>
							<linkclipref>clipitem-840</linkclipref>
							<mediatype>audio</mediatype>
							<trackindex>17</trackindex>
							<clipindex>37</clipindex>
							<groupindex>1</groupindex>
						</link>
						<link>
							<linkclipref>clipitem-862</linkclipref>
							<mediatype>audio</mediatype>
							<trackindex>18</trackindex>
							<clipindex>36</clipindex>
							<groupindex>1</groupindex>
						</link>
						<logginginfo>
							<description>Aon theme song?</description>
							<scene></scene>
							<shottake></shottake>
							<lognote></lognote>
						</logginginfo>
						<labels>
							<label2>Caribbean</label2>
						</labels>
					</clipitem>
					<transitionitem>
						<start>26458</start>
						<end>26464</end>
						<alignment>end-black</alignment>
						<cutPointTicks>60963840000</cutPointTicks>
						<rate>
							<timebase>25</timebase>
							<ntsc>FALSE</ntsc>
						</rate>
						<effect>
							<name>Cross Fade (+3dB)</name>
							<effectid>KGAudioTransCrossFade3dB</effectid>
							<effecttype>transition</effecttype>
							<mediatype>audio</mediatype>
							<wipecode>0</wipecode>
							<wipeaccuracy>100</wipeaccuracy>
							<startratio>0</startratio>
							<endratio>1</endratio>
							<reverse>FALSE</reverse>
						</effect>
					</transitionitem>
					<clipitem id="clipitem-841" premiereChannelType="stereo">
						<masterclipid>masterclip-189</masterclipid>
						<name>91285__timbre__82264-variant-3d-wooshes-both-ways-2.wav</name>
						<enabled>TRUE</enabled>
						<duration>1120</duration>
						<rate>
							<timebase>25</timebase>
							<ntsc>FALSE</ntsc>
						</rate>
						<start>26743</start>
						<end>26766</end>
						<in>270</in>
						<out>293</out>
						<pproTicksIn>2743372800000</pproTicksIn>
						<pproTicksOut>2977067520000</pproTicksOut>
						<file id="file-173"/>
						<sourcetrack>
							<mediatype>audio</mediatype>
							<trackindex>1</trackindex>
						</sourcetrack>
							<filter>
								<effect>
									<name>Gain</name>
									<effectid>{61756678, 4761696e, 4b657947}</effectid>
									<effecttype>filter</effecttype>
									<mediatype>audio</mediatype>
									<parameter authoringApp="PremierePro">
										<parameterid>Gain(dB)</parameterid>
										<name>Gain(dB)</name>
										<valuemin>-96</valuemin>
										<valuemax>96</valuemax>
										<value>-20</value>
									</parameter>
								</effect>
							</filter>
						<link>
							<linkclipref>clipitem-841</linkclipref>
							<mediatype>audio</mediatype>
							<trackindex>17</trackindex>
							<clipindex>39</clipindex>
							<groupindex>1</groupindex>
						</link>
						<link>
							<linkclipref>clipitem-863</linkclipref>
							<mediatype>audio</mediatype>
							<trackindex>18</trackindex>
							<clipindex>38</clipindex>
							<groupindex>1</groupindex>
						</link>
						<logginginfo>
							<description></description>
							<scene></scene>
							<shottake></shottake>
							<lognote></lognote>
						</logginginfo>
						<labels>
							<label2>Caribbean</label2>
						</labels>
					</clipitem>
					<clipitem id="clipitem-842" premiereChannelType="mono">
						<masterclipid>masterclip-190</masterclipid>
						<name>93757__toyoto__wooshs-01.wav</name>
						<enabled>TRUE</enabled>
						<duration>301</duration>
						<rate>
							<timebase>25</timebase>
							<ntsc>FALSE</ntsc>
						</rate>
						<start>29108</start>
						<end>29115</end>
						<in>212</in>
						<out>219</out>
						<pproTicksIn>2154055680000</pproTicksIn>
						<pproTicksOut>2225180160000</pproTicksOut>
						<file id="file-174"/>
						<sourcetrack>
							<mediatype>audio</mediatype>
							<trackindex>1</trackindex>
						</sourcetrack>
							<filter>
								<effect>
									<name>Gain</name>
									<effectid>{61756678, 4761696e, 4b657947}</effectid>
									<effecttype>filter</effecttype>
									<mediatype>audio</mediatype>
									<parameter authoringApp="PremierePro">
										<parameterid>Gain(dB)</parameterid>
										<name>Gain(dB)</name>
										<valuemin>-96</valuemin>
										<valuemax>96</valuemax>
										<value>-17</value>
									</parameter>
								</effect>
							</filter>
						<logginginfo>
							<description></description>
							<scene></scene>
							<shottake></shottake>
							<lognote></lognote>
						</logginginfo>
						<labels>
							<label2>Caribbean</label2>
						</labels>
					</clipitem>
					<enabled>TRUE</enabled>
					<locked>FALSE</locked>
					<outputchannelindex>1</outputchannelindex>
				</track>
				<track TL.SQTrackAudioKeyframeStyle="0" TL.SQTrackShy="0" TL.SQTrackExpandedHeight="35" TL.SQTrackExpanded="1" MZ.TrackTargeted="1" PannerCurrentValue="0.5" PannerIsInverted="true" PannerStartKeyframe="-91445760000000000,0.5,0,0,0,0,0,0" PannerName="Balance" currentExplodedTrackIndex="1" totalExplodedTrackCount="2" premiereTrackType="Stereo">
					<clipitem id="clipitem-843" premiereChannelType="stereo">
						<masterclipid>masterclip-201</masterclipid>
						<name>NONRE633380HD0012 Widow (Instrumental Demo).wav</name>
						<enabled>TRUE</enabled>
						<duration>4132</duration>
						<rate>
							<timebase>25</timebase>
							<ntsc>FALSE</ntsc>
						</rate>
						<start>8390</start>
						<end>-1</end>
						<in>0</in>
						<out>1484</out>
						<pproTicksIn>0</pproTicksIn>
						<pproTicksOut>15078389760000</pproTicksOut>
						<file id="file-185"/>
						<sourcetrack>
							<mediatype>audio</mediatype>
							<trackindex>2</trackindex>
						</sourcetrack>
							<filter>
								<effect>
									<name>Gain</name>
									<effectid>{61756678, 4761696e, 4b657947}</effectid>
									<effecttype>filter</effecttype>
									<mediatype>audio</mediatype>
									<parameter authoringApp="PremierePro">
										<parameterid>Gain(dB)</parameterid>
										<name>Gain(dB)</name>
										<valuemin>-96</valuemin>
										<valuemax>96</valuemax>
										<value>-30</value>
									</parameter>
								</effect>
							</filter>
						<link>
							<linkclipref>clipitem-821</linkclipref>
							<mediatype>audio</mediatype>
							<trackindex>17</trackindex>
							<clipindex>2</clipindex>
							<groupindex>1</groupindex>
						</link>
						<link>
							<linkclipref>clipitem-843</linkclipref>
							<mediatype>audio</mediatype>
							<trackindex>18</trackindex>
							<clipindex>1</clipindex>
							<groupindex>1</groupindex>
						</link>
						<logginginfo>
							<description></description>
							<scene></scene>
							<shottake></shottake>
							<lognote></lognote>
						</logginginfo>
						<labels>
							<label2>Caribbean</label2>
						</labels>
					</clipitem>
					<transitionitem>
						<start>9867</start>
						<end>9874</end>
						<alignment>end-black</alignment>
						<cutPointTicks>71124480000</cutPointTicks>
						<rate>
							<timebase>25</timebase>
							<ntsc>FALSE</ntsc>
						</rate>
						<effect>
							<name>Cross Fade (+3dB)</name>
							<effectid>KGAudioTransCrossFade3dB</effectid>
							<effecttype>transition</effecttype>
							<mediatype>audio</mediatype>
							<wipecode>0</wipecode>
							<wipeaccuracy>100</wipeaccuracy>
							<startratio>0</startratio>
							<endratio>1</endratio>
							<reverse>FALSE</reverse>
						</effect>
					</transitionitem>
					<clipitem id="clipitem-844" premiereChannelType="stereo">
						<masterclipid>masterclip-202</masterclipid>
						<name>NONRE633380HD0010 Sho Is Funky (Instrumental Demo).wav</name>
						<enabled>TRUE</enabled>
						<duration>3450</duration>
						<rate>
							<timebase>25</timebase>
							<ntsc>FALSE</ntsc>
						</rate>
						<start>9874</start>
						<end>-1</end>
						<in>0</in>
						<out>1001</out>
						<pproTicksIn>0</pproTicksIn>
						<pproTicksOut>10170800640000</pproTicksOut>
						<file id="file-186"/>
						<sourcetrack>
							<mediatype>audio</mediatype>
							<trackindex>2</trackindex>
						</sourcetrack>
							<filter>
								<effect>
									<name>Gain</name>
									<effectid>{61756678, 4761696e, 4b657947}</effectid>
									<effecttype>filter</effecttype>
									<mediatype>audio</mediatype>
									<parameter authoringApp="PremierePro">
										<parameterid>Gain(dB)</parameterid>
										<name>Gain(dB)</name>
										<valuemin>-96</valuemin>
										<valuemax>96</valuemax>
										<value>-30</value>
									</parameter>
								</effect>
							</filter>
						<link>
							<linkclipref>clipitem-822</linkclipref>
							<mediatype>audio</mediatype>
							<trackindex>17</trackindex>
							<clipindex>4</clipindex>
							<groupindex>1</groupindex>
						</link>
						<link>
							<linkclipref>clipitem-844</linkclipref>
							<mediatype>audio</mediatype>
							<trackindex>18</trackindex>
							<clipindex>3</clipindex>
							<groupindex>1</groupindex>
						</link>
						<logginginfo>
							<description></description>
							<scene></scene>
							<shottake></shottake>
							<lognote></lognote>
						</logginginfo>
						<labels>
							<label2>Caribbean</label2>
						</labels>
					</clipitem>
					<transitionitem>
						<start>10809</start>
						<end>10875</end>
						<alignment>end-black</alignment>
						<cutPointTicks>670602240000</cutPointTicks>
						<rate>
							<timebase>25</timebase>
							<ntsc>FALSE</ntsc>
						</rate>
						<effect>
							<name>Cross Fade (+3dB)</name>
							<effectid>KGAudioTransCrossFade3dB</effectid>
							<effecttype>transition</effecttype>
							<mediatype>audio</mediatype>
							<wipecode>0</wipecode>
							<wipeaccuracy>100</wipeaccuracy>
							<startratio>0</startratio>
							<endratio>1</endratio>
							<reverse>FALSE</reverse>
						</effect>
					</transitionitem>
					<clipitem id="clipitem-845" premiereChannelType="stereo">
						<masterclipid>masterclip-159</masterclipid>
						<name>205991__emptysound__digital-wooshes-eleven.wav</name>
						<enabled>TRUE</enabled>
						<duration>425</duration>
						<rate>
							<timebase>25</timebase>
							<ntsc>FALSE</ntsc>
						</rate>
						<start>19261</start>
						<end>19277</end>
						<in>353</in>
						<out>369</out>
						<pproTicksIn>2875461120000</pproTicksIn>
						<pproTicksOut>3005517312000</pproTicksOut>
						<file id="file-143"/>
						<sourcetrack>
							<mediatype>audio</mediatype>
							<trackindex>2</trackindex>
						</sourcetrack>
							<filter>
								<effect>
									<name>Gain</name>
									<effectid>{61756678, 4761696e, 4b657947}</effectid>
									<effecttype>filter</effecttype>
									<mediatype>audio</mediatype>
									<parameter authoringApp="PremierePro">
										<parameterid>Gain(dB)</parameterid>
										<name>Gain(dB)</name>
										<valuemin>-96</valuemin>
										<valuemax>96</valuemax>
										<value>-26</value>
									</parameter>
								</effect>
							</filter>
							<filter>
								<effect>
									<name>Time Remap</name>
									<effectid>timeremap</effectid>
									<effectcategory>motion</effectcategory>
									<effecttype>motion</effecttype>
									<mediatype>audio</mediatype>
									<parameter authoringApp="PremierePro">
										<parameterid>variablespeed</parameterid>
										<name>variablespeed</name>
										<valuemin>0</valuemin>
										<valuemax>1</valuemax>
										<value>0</value>
									</parameter>
									<parameter authoringApp="PremierePro">
										<parameterid>speed</parameterid>
										<name>speed</name>
										<valuemin>-100000</valuemin>
										<valuemax>100000</valuemax>
										<value>80</value>
									</parameter>
									<parameter authoringApp="PremierePro">
										<parameterid>reverse</parameterid>
										<name>reverse</name>
										<value>FALSE</value>
									</parameter>
									<parameter authoringApp="PremierePro">
										<parameterid>frameblending</parameterid>
										<name>frameblending</name>
										<value>FALSE</value>
									</parameter>
									<parameter authoringApp="PremierePro">
										<parameterid>graphdict</parameterid>
										<name>graphdict</name>
										<valuemin>0</valuemin>
										<valuemax>340</valuemax>
										<value>0</value>
										<keyframe>
											<when>0</when>
											<value>0</value>
											<speedvirtualkf>TRUE</speedvirtualkf>
											<speedkfstart>TRUE</speedkfstart>
										</keyframe>
										<keyframe>
											<when>353</when>
											<value>282</value>
											<speedvirtualkf>TRUE</speedvirtualkf>
											<speedkfin>TRUE</speedkfin>
										</keyframe>
										<keyframe>
											<when>369</when>
											<value>295</value>
											<speedvirtualkf>TRUE</speedvirtualkf>
											<speedkfout>TRUE</speedkfout>
										</keyframe>
										<keyframe>
											<when>425</when>
											<value>340</value>
											<speedvirtualkf>TRUE</speedvirtualkf>
											<speedkfend>TRUE</speedkfend>
										</keyframe>
										<interpolation>
											<name>FCPCurve</name>
										</interpolation>
									</parameter>
								</effect>
							</filter>
						<link>
							<linkclipref>clipitem-823</linkclipref>
							<mediatype>audio</mediatype>
							<trackindex>17</trackindex>
							<clipindex>6</clipindex>
							<groupindex>1</groupindex>
						</link>
						<link>
							<linkclipref>clipitem-845</linkclipref>
							<mediatype>audio</mediatype>
							<trackindex>18</trackindex>
							<clipindex>5</clipindex>
							<groupindex>1</groupindex>
						</link>
						<logginginfo>
							<description></description>
							<scene></scene>
							<shottake></shottake>
							<lognote></lognote>
						</logginginfo>
						<labels>
							<label2>Caribbean</label2>
						</labels>
					</clipitem>
					<clipitem id="clipitem-846" premiereChannelType="stereo">
						<masterclipid>masterclip-159</masterclipid>
						<name>205991__emptysound__digital-wooshes-eleven.wav</name>
						<enabled>TRUE</enabled>
						<duration>340</duration>
						<rate>
							<timebase>25</timebase>
							<ntsc>FALSE</ntsc>
						</rate>
						<start>19331</start>
						<end>19342</end>
						<in>312</in>
						<out>323</out>
						<pproTicksIn>3170119680000</pproTicksIn>
						<pproTicksOut>3281886720000</pproTicksOut>
						<file id="file-143"/>
						<sourcetrack>
							<mediatype>audio</mediatype>
							<trackindex>2</trackindex>
						</sourcetrack>
							<filter>
								<effect>
									<name>Gain</name>
									<effectid>{61756678, 4761696e, 4b657947}</effectid>
									<effecttype>filter</effecttype>
									<mediatype>audio</mediatype>
									<parameter authoringApp="PremierePro">
										<parameterid>Gain(dB)</parameterid>
										<name>Gain(dB)</name>
										<valuemin>-96</valuemin>
										<valuemax>96</valuemax>
										<value>-26</value>
									</parameter>
								</effect>
							</filter>
						<link>
							<linkclipref>clipitem-824</linkclipref>
							<mediatype>audio</mediatype>
							<trackindex>17</trackindex>
							<clipindex>7</clipindex>
							<groupindex>1</groupindex>
						</link>
						<link>
							<linkclipref>clipitem-846</linkclipref>
							<mediatype>audio</mediatype>
							<trackindex>18</trackindex>
							<clipindex>6</clipindex>
							<groupindex>1</groupindex>
						</link>
						<logginginfo>
							<description></description>
							<scene></scene>
							<shottake></shottake>
							<lognote></lognote>
						</logginginfo>
						<labels>
							<label2>Caribbean</label2>
						</labels>
					</clipitem>
					<clipitem id="clipitem-847" premiereChannelType="stereo">
						<masterclipid>masterclip-203</masterclipid>
						<name>238367__stewdio2003__cp-power-down01_01.wav</name>
						<enabled>TRUE</enabled>
						<duration>147</duration>
						<rate>
							<timebase>25</timebase>
							<ntsc>FALSE</ntsc>
						</rate>
						<start>20279</start>
						<end>20350</end>
						<in>50</in>
						<out>121</out>
						<pproTicksIn>508032000000</pproTicksIn>
						<pproTicksOut>1229437440000</pproTicksOut>
						<file id="file-187"/>
						<sourcetrack>
							<mediatype>audio</mediatype>
							<trackindex>2</trackindex>
						</sourcetrack>
							<filter>
								<effect>
									<name>Gain</name>
									<effectid>{61756678, 4761696e, 4b657947}</effectid>
									<effecttype>filter</effecttype>
									<mediatype>audio</mediatype>
									<parameter authoringApp="PremierePro">
										<parameterid>Gain(dB)</parameterid>
										<name>Gain(dB)</name>
										<valuemin>-96</valuemin>
										<valuemax>96</valuemax>
										<value>-18</value>
									</parameter>
								</effect>
							</filter>
							<marker>
								<comment></comment>
								<name>Marker 1</name>
								<in>0</in>
								<out>-1</out>
							</marker>
							<marker>
								<comment></comment>
								<name>Tempo: 120.0</name>
								<in>0</in>
								<out>-1</out>
							</marker>
							<marker>
								<comment></comment>
								<name>Timestamp: 172799975</name>
								<in>0</in>
								<out>-1</out>
							</marker>
						<link>
							<linkclipref>clipitem-825</linkclipref>
							<mediatype>audio</mediatype>
							<trackindex>17</trackindex>
							<clipindex>8</clipindex>
							<groupindex>1</groupindex>
						</link>
						<link>
							<linkclipref>clipitem-847</linkclipref>
							<mediatype>audio</mediatype>
							<trackindex>18</trackindex>
							<clipindex>7</clipindex>
							<groupindex>1</groupindex>
						</link>
						<logginginfo>
							<description></description>
							<scene></scene>
							<shottake></shottake>
							<lognote></lognote>
						</logginginfo>
						<labels>
							<label2>Caribbean</label2>
						</labels>
					</clipitem>
					<transitionitem>
						<start>22134</start>
						<end>22230</end>
						<alignment>start-black</alignment>
						<cutPointTicks>0</cutPointTicks>
						<rate>
							<timebase>25</timebase>
							<ntsc>FALSE</ntsc>
						</rate>
						<effect>
							<name>Cross Fade (+3dB)</name>
							<effectid>KGAudioTransCrossFade3dB</effectid>
							<effecttype>transition</effecttype>
							<mediatype>audio</mediatype>
							<wipecode>0</wipecode>
							<wipeaccuracy>100</wipeaccuracy>
							<startratio>0</startratio>
							<endratio>1</endratio>
							<reverse>FALSE</reverse>
						</effect>
					</transitionitem>
					<clipitem id="clipitem-848" premiereChannelType="stereo">
						<masterclipid>masterclip-204</masterclipid>
						<name>NONRO306374CS0002 Phone Tap  (Instrumental).wav</name>
						<enabled>TRUE</enabled>
						<duration>5684</duration>
						<rate>
							<timebase>25</timebase>
							<ntsc>FALSE</ntsc>
						</rate>
						<start>-1</start>
						<end>23501</end>
						<in>4256</in>
						<out>5623</out>
						<pproTicksIn>43243683840000</pproTicksIn>
						<pproTicksOut>57133278720000</pproTicksOut>
						<file id="file-188"/>
						<sourcetrack>
							<mediatype>audio</mediatype>
							<trackindex>2</trackindex>
						</sourcetrack>
							<filter>
								<effect>
									<name>Gain</name>
									<effectid>{61756678, 4761696e, 4b657947}</effectid>
									<effecttype>filter</effecttype>
									<mediatype>audio</mediatype>
									<parameter authoringApp="PremierePro">
										<parameterid>Gain(dB)</parameterid>
										<name>Gain(dB)</name>
										<valuemin>-96</valuemin>
										<valuemax>96</valuemax>
										<value>-25</value>
									</parameter>
								</effect>
							</filter>
						<link>
							<linkclipref>clipitem-826</linkclipref>
							<mediatype>audio</mediatype>
							<trackindex>17</trackindex>
							<clipindex>10</clipindex>
							<groupindex>1</groupindex>
						</link>
						<link>
							<linkclipref>clipitem-848</linkclipref>
							<mediatype>audio</mediatype>
							<trackindex>18</trackindex>
							<clipindex>9</clipindex>
							<groupindex>1</groupindex>
						</link>
						<logginginfo>
							<description></description>
							<scene></scene>
							<shottake></shottake>
							<lognote>CD Track 2 archiveNo[306374018]</lognote>
						</logginginfo>
						<labels>
							<label2>Iris</label2>
						</labels>
					</clipitem>
					<clipitem id="clipitem-849" premiereChannelType="stereo">
						<masterclipid>masterclip-205</masterclipid>
						<name>NONRO151161CD0005 Get it on the Floor.wav</name>
						<enabled>TRUE</enabled>
						<duration>6553</duration>
						<rate>
							<timebase>25</timebase>
							<ntsc>FALSE</ntsc>
						</rate>
						<start>23556</start>
						<end>-1</end>
						<in>8</in>
						<out>43</out>
						<pproTicksIn>81285120000</pproTicksIn>
						<pproTicksOut>436907520000</pproTicksOut>
						<file id="file-189"/>
						<sourcetrack>
							<mediatype>audio</mediatype>
							<trackindex>2</trackindex>
						</sourcetrack>
							<filter>
								<effect>
									<name>Gain</name>
									<effectid>{61756678, 4761696e, 4b657947}</effectid>
									<effecttype>filter</effecttype>
									<mediatype>audio</mediatype>
									<parameter authoringApp="PremierePro">
										<parameterid>Gain(dB)</parameterid>
										<name>Gain(dB)</name>
										<valuemin>-96</valuemin>
										<valuemax>96</valuemax>
										<value>-25</value>
									</parameter>
								</effect>
							</filter>
						<link>
							<linkclipref>clipitem-827</linkclipref>
							<mediatype>audio</mediatype>
							<trackindex>17</trackindex>
							<clipindex>11</clipindex>
							<groupindex>1</groupindex>
						</link>
						<link>
							<linkclipref>clipitem-849</linkclipref>
							<mediatype>audio</mediatype>
							<trackindex>18</trackindex>
							<clipindex>10</clipindex>
							<groupindex>1</groupindex>
						</link>
						<logginginfo>
							<description></description>
							<scene></scene>
							<shottake></shottake>
							<lognote>CD Track 5 archiveNo[151161015]</lognote>
						</logginginfo>
						<labels>
							<label2>Caribbean</label2>
						</labels>
					</clipitem>
					<transitionitem>
						<start>23578</start>
						<end>23591</end>
						<alignment>center</alignment>
						<cutPointTicks>60963840000</cutPointTicks>
						<rate>
							<timebase>25</timebase>
							<ntsc>FALSE</ntsc>
						</rate>
						<effect>
							<name>Cross Fade (+3dB)</name>
							<effectid>KGAudioTransCrossFade3dB</effectid>
							<effecttype>transition</effecttype>
							<mediatype>audio</mediatype>
							<wipecode>0</wipecode>
							<wipeaccuracy>100</wipeaccuracy>
							<startratio>0</startratio>
							<endratio>1</endratio>
							<reverse>FALSE</reverse>
						</effect>
					</transitionitem>
					<clipitem id="clipitem-850" premiereChannelType="stereo">
						<masterclipid>masterclip-205</masterclipid>
						<name>NONRO151161CD0005 Get it on the Floor.wav</name>
						<enabled>TRUE</enabled>
						<duration>6553</duration>
						<rate>
							<timebase>25</timebase>
							<ntsc>FALSE</ntsc>
						</rate>
						<start>-1</start>
						<end>-1</end>
						<in>30</in>
						<out>314</out>
						<pproTicksIn>304819200000</pproTicksIn>
						<pproTicksOut>3190440960000</pproTicksOut>
						<file id="file-189"/>
						<sourcetrack>
							<mediatype>audio</mediatype>
							<trackindex>2</trackindex>
						</sourcetrack>
							<filter>
								<effect>
									<name>Gain</name>
									<effectid>{61756678, 4761696e, 4b657947}</effectid>
									<effecttype>filter</effecttype>
									<mediatype>audio</mediatype>
									<parameter authoringApp="PremierePro">
										<parameterid>Gain(dB)</parameterid>
										<name>Gain(dB)</name>
										<valuemin>-96</valuemin>
										<valuemax>96</valuemax>
										<value>-16</value>
									</parameter>
								</effect>
							</filter>
						<link>
							<linkclipref>clipitem-828</linkclipref>
							<mediatype>audio</mediatype>
							<trackindex>17</trackindex>
							<clipindex>13</clipindex>
							<groupindex>1</groupindex>
						</link>
						<link>
							<linkclipref>clipitem-850</linkclipref>
							<mediatype>audio</mediatype>
							<trackindex>18</trackindex>
							<clipindex>12</clipindex>
							<groupindex>1</groupindex>
						</link>
						<logginginfo>
							<description></description>
							<scene></scene>
							<shottake></shottake>
							<lognote>CD Track 5 archiveNo[151161015]</lognote>
						</logginginfo>
						<labels>
							<label2>Caribbean</label2>
						</labels>
					</clipitem>
					<transitionitem>
						<start>23849</start>
						<end>23862</end>
						<alignment>center</alignment>
						<cutPointTicks>60963840000</cutPointTicks>
						<rate>
							<timebase>25</timebase>
							<ntsc>FALSE</ntsc>
						</rate>
						<effect>
							<name>Cross Fade (+3dB)</name>
							<effectid>KGAudioTransCrossFade3dB</effectid>
							<effecttype>transition</effecttype>
							<mediatype>audio</mediatype>
							<wipecode>0</wipecode>
							<wipeaccuracy>100</wipeaccuracy>
							<startratio>0</startratio>
							<endratio>1</endratio>
							<reverse>FALSE</reverse>
						</effect>
					</transitionitem>
					<clipitem id="clipitem-851" premiereChannelType="stereo">
						<masterclipid>masterclip-205</masterclipid>
						<name>NONRO151161CD0005 Get it on the Floor.wav</name>
						<enabled>TRUE</enabled>
						<duration>6553</duration>
						<rate>
							<timebase>25</timebase>
							<ntsc>FALSE</ntsc>
						</rate>
						<start>-1</start>
						<end>-1</end>
						<in>301</in>
						<out>341</out>
						<pproTicksIn>3058352640000</pproTicksIn>
						<pproTicksOut>3464778240000</pproTicksOut>
						<file id="file-189"/>
						<sourcetrack>
							<mediatype>audio</mediatype>
							<trackindex>2</trackindex>
						</sourcetrack>
							<filter>
								<effect>
									<name>Gain</name>
									<effectid>{61756678, 4761696e, 4b657947}</effectid>
									<effecttype>filter</effecttype>
									<mediatype>audio</mediatype>
									<parameter authoringApp="PremierePro">
										<parameterid>Gain(dB)</parameterid>
										<name>Gain(dB)</name>
										<valuemin>-96</valuemin>
										<valuemax>96</valuemax>
										<value>-26</value>
									</parameter>
								</effect>
							</filter>
						<link>
							<linkclipref>clipitem-829</linkclipref>
							<mediatype>audio</mediatype>
							<trackindex>17</trackindex>
							<clipindex>15</clipindex>
							<groupindex>1</groupindex>
						</link>
						<link>
							<linkclipref>clipitem-851</linkclipref>
							<mediatype>audio</mediatype>
							<trackindex>18</trackindex>
							<clipindex>14</clipindex>
							<groupindex>1</groupindex>
						</link>
						<logginginfo>
							<description></description>
							<scene></scene>
							<shottake></shottake>
							<lognote>CD Track 5 archiveNo[151161015]</lognote>
						</logginginfo>
						<labels>
							<label2>Caribbean</label2>
						</labels>
					</clipitem>
					<transitionitem>
						<start>23876</start>
						<end>23889</end>
						<alignment>center</alignment>
						<cutPointTicks>60963840000</cutPointTicks>
						<rate>
							<timebase>25</timebase>
							<ntsc>FALSE</ntsc>
						</rate>
						<effect>
							<name>Cross Fade (+3dB)</name>
							<effectid>KGAudioTransCrossFade3dB</effectid>
							<effecttype>transition</effecttype>
							<mediatype>audio</mediatype>
							<wipecode>0</wipecode>
							<wipeaccuracy>100</wipeaccuracy>
							<startratio>0</startratio>
							<endratio>1</endratio>
							<reverse>FALSE</reverse>
						</effect>
					</transitionitem>
					<clipitem id="clipitem-852" premiereChannelType="stereo">
						<masterclipid>masterclip-205</masterclipid>
						<name>NONRO151161CD0005 Get it on the Floor.wav</name>
						<enabled>TRUE</enabled>
						<duration>6553</duration>
						<rate>
							<timebase>25</timebase>
							<ntsc>FALSE</ntsc>
						</rate>
						<start>-1</start>
						<end>-1</end>
						<in>328</in>
						<out>666</out>
						<pproTicksIn>3332689920000</pproTicksIn>
						<pproTicksOut>6766986240000</pproTicksOut>
						<file id="file-189"/>
						<sourcetrack>
							<mediatype>audio</mediatype>
							<trackindex>2</trackindex>
						</sourcetrack>
							<filter>
								<effect>
									<name>Gain</name>
									<effectid>{61756678, 4761696e, 4b657947}</effectid>
									<effecttype>filter</effecttype>
									<mediatype>audio</mediatype>
									<parameter authoringApp="PremierePro">
										<parameterid>Gain(dB)</parameterid>
										<name>Gain(dB)</name>
										<valuemin>-96</valuemin>
										<valuemax>96</valuemax>
										<value>-16</value>
									</parameter>
								</effect>
							</filter>
						<link>
							<linkclipref>clipitem-830</linkclipref>
							<mediatype>audio</mediatype>
							<trackindex>17</trackindex>
							<clipindex>17</clipindex>
							<groupindex>1</groupindex>
						</link>
						<link>
							<linkclipref>clipitem-852</linkclipref>
							<mediatype>audio</mediatype>
							<trackindex>18</trackindex>
							<clipindex>16</clipindex>
							<groupindex>1</groupindex>
						</link>
						<logginginfo>
							<description></description>
							<scene></scene>
							<shottake></shottake>
							<lognote>CD Track 5 archiveNo[151161015]</lognote>
						</logginginfo>
						<labels>
							<label2>Caribbean</label2>
						</labels>
					</clipitem>
					<transitionitem>
						<start>24192</start>
						<end>24214</end>
						<alignment>end-black</alignment>
						<cutPointTicks>223534080000</cutPointTicks>
						<rate>
							<timebase>25</timebase>
							<ntsc>FALSE</ntsc>
						</rate>
						<effect>
							<name>Cross Fade (+3dB)</name>
							<effectid>KGAudioTransCrossFade3dB</effectid>
							<effecttype>transition</effecttype>
							<mediatype>audio</mediatype>
							<wipecode>0</wipecode>
							<wipeaccuracy>100</wipeaccuracy>
							<startratio>0</startratio>
							<endratio>1</endratio>
							<reverse>FALSE</reverse>
						</effect>
					</transitionitem>
					<transitionitem>
						<start>25443</start>
						<end>25456</end>
						<alignment>start-black</alignment>
						<cutPointTicks>0</cutPointTicks>
						<rate>
							<timebase>25</timebase>
							<ntsc>FALSE</ntsc>
						</rate>
						<effect>
							<name>Cross Fade (+3dB)</name>
							<effectid>KGAudioTransCrossFade3dB</effectid>
							<effecttype>transition</effecttype>
							<mediatype>audio</mediatype>
							<wipecode>0</wipecode>
							<wipeaccuracy>100</wipeaccuracy>
							<startratio>0</startratio>
							<endratio>1</endratio>
							<reverse>FALSE</reverse>
						</effect>
					</transitionitem>
					<clipitem id="clipitem-853" premiereChannelType="stereo">
						<masterclipid>masterclip-206</masterclipid>
						<name>NONRO130128CD0008 Mama Said Knock You Out.wav</name>
						<enabled>TRUE</enabled>
						<duration>7324</duration>
						<rate>
							<timebase>25</timebase>
							<ntsc>FALSE</ntsc>
						</rate>
						<start>-1</start>
						<end>-1</end>
						<in>1331</in>
						<out>1398</out>
						<pproTicksIn>13523811840000</pproTicksIn>
						<pproTicksOut>14204574720000</pproTicksOut>
						<file id="file-190"/>
						<sourcetrack>
							<mediatype>audio</mediatype>
							<trackindex>2</trackindex>
						</sourcetrack>
							<filter>
								<effect>
									<name>Gain</name>
									<effectid>{61756678, 4761696e, 4b657947}</effectid>
									<effecttype>filter</effecttype>
									<mediatype>audio</mediatype>
									<parameter authoringApp="PremierePro">
										<parameterid>Gain(dB)</parameterid>
										<name>Gain(dB)</name>
										<valuemin>-96</valuemin>
										<valuemax>96</valuemax>
										<value>-20</value>
									</parameter>
								</effect>
							</filter>
						<link>
							<linkclipref>clipitem-831</linkclipref>
							<mediatype>audio</mediatype>
							<trackindex>17</trackindex>
							<clipindex>20</clipindex>
							<groupindex>1</groupindex>
						</link>
						<link>
							<linkclipref>clipitem-853</linkclipref>
							<mediatype>audio</mediatype>
							<trackindex>18</trackindex>
							<clipindex>19</clipindex>
							<groupindex>1</groupindex>
						</link>
						<logginginfo>
							<description></description>
							<scene></scene>
							<shottake></shottake>
							<lognote>CD Track 8 archiveNo[130128010]</lognote>
						</logginginfo>
						<labels>
							<label2>Caribbean</label2>
						</labels>
					</clipitem>
					<transitionitem>
						<start>25497</start>
						<end>25510</end>
						<alignment>center</alignment>
						<cutPointTicks>60963840000</cutPointTicks>
						<rate>
							<timebase>25</timebase>
							<ntsc>FALSE</ntsc>
						</rate>
						<effect>
							<name>Cross Fade (+3dB)</name>
							<effectid>KGAudioTransCrossFade3dB</effectid>
							<effecttype>transition</effecttype>
							<mediatype>audio</mediatype>
							<wipecode>0</wipecode>
							<wipeaccuracy>100</wipeaccuracy>
							<startratio>0</startratio>
							<endratio>1</endratio>
							<reverse>FALSE</reverse>
						</effect>
					</transitionitem>
					<clipitem id="clipitem-854" premiereChannelType="stereo">
						<masterclipid>masterclip-206</masterclipid>
						<name>NONRO130128CD0008 Mama Said Knock You Out.wav</name>
						<enabled>TRUE</enabled>
						<duration>7324</duration>
						<rate>
							<timebase>25</timebase>
							<ntsc>FALSE</ntsc>
						</rate>
						<start>-1</start>
						<end>-1</end>
						<in>1385</in>
						<out>1462</out>
						<pproTicksIn>14072486400000</pproTicksIn>
						<pproTicksOut>14854855680000</pproTicksOut>
						<file id="file-190"/>
						<sourcetrack>
							<mediatype>audio</mediatype>
							<trackindex>2</trackindex>
						</sourcetrack>
							<filter>
								<effect>
									<name>Gain</name>
									<effectid>{61756678, 4761696e, 4b657947}</effectid>
									<effecttype>filter</effecttype>
									<mediatype>audio</mediatype>
									<parameter authoringApp="PremierePro">
										<parameterid>Gain(dB)</parameterid>
										<name>Gain(dB)</name>
										<valuemin>-96</valuemin>
										<valuemax>96</valuemax>
										<value>-20</value>
									</parameter>
								</effect>
							</filter>
						<link>
							<linkclipref>clipitem-832</linkclipref>
							<mediatype>audio</mediatype>
							<trackindex>17</trackindex>
							<clipindex>22</clipindex>
							<groupindex>1</groupindex>
						</link>
						<link>
							<linkclipref>clipitem-854</linkclipref>
							<mediatype>audio</mediatype>
							<trackindex>18</trackindex>
							<clipindex>21</clipindex>
							<groupindex>1</groupindex>
						</link>
						<logginginfo>
							<description></description>
							<scene></scene>
							<shottake></shottake>
							<lognote>CD Track 8 archiveNo[130128010]</lognote>
						</logginginfo>
						<labels>
							<label2>Caribbean</label2>
						</labels>
					</clipitem>
					<transitionitem>
						<start>25561</start>
						<end>25574</end>
						<alignment>center</alignment>
						<cutPointTicks>60963840000</cutPointTicks>
						<rate>
							<timebase>25</timebase>
							<ntsc>FALSE</ntsc>
						</rate>
						<effect>
							<name>Cross Fade (+3dB)</name>
							<effectid>KGAudioTransCrossFade3dB</effectid>
							<effecttype>transition</effecttype>
							<mediatype>audio</mediatype>
							<wipecode>0</wipecode>
							<wipeaccuracy>100</wipeaccuracy>
							<startratio>0</startratio>
							<endratio>1</endratio>
							<reverse>FALSE</reverse>
						</effect>
					</transitionitem>
					<clipitem id="clipitem-855" premiereChannelType="stereo">
						<masterclipid>masterclip-206</masterclipid>
						<name>NONRO130128CD0008 Mama Said Knock You Out.wav</name>
						<enabled>TRUE</enabled>
						<duration>7324</duration>
						<rate>
							<timebase>25</timebase>
							<ntsc>FALSE</ntsc>
						</rate>
						<start>-1</start>
						<end>-1</end>
						<in>1449</in>
						<out>1497</out>
						<pproTicksIn>14722767360000</pproTicksIn>
						<pproTicksOut>15210478080000</pproTicksOut>
						<file id="file-190"/>
						<sourcetrack>
							<mediatype>audio</mediatype>
							<trackindex>2</trackindex>
						</sourcetrack>
							<filter>
								<effect>
									<name>Gain</name>
									<effectid>{61756678, 4761696e, 4b657947}</effectid>
									<effecttype>filter</effecttype>
									<mediatype>audio</mediatype>
									<parameter authoringApp="PremierePro">
										<parameterid>Gain(dB)</parameterid>
										<name>Gain(dB)</name>
										<valuemin>-96</valuemin>
										<valuemax>96</valuemax>
										<value>-11</value>
									</parameter>
								</effect>
							</filter>
						<link>
							<linkclipref>clipitem-833</linkclipref>
							<mediatype>audio</mediatype>
							<trackindex>17</trackindex>
							<clipindex>24</clipindex>
							<groupindex>1</groupindex>
						</link>
						<link>
							<linkclipref>clipitem-855</linkclipref>
							<mediatype>audio</mediatype>
							<trackindex>18</trackindex>
							<clipindex>23</clipindex>
							<groupindex>1</groupindex>
						</link>
						<logginginfo>
							<description></description>
							<scene></scene>
							<shottake></shottake>
							<lognote>CD Track 8 archiveNo[130128010]</lognote>
						</logginginfo>
						<labels>
							<label2>Caribbean</label2>
						</labels>
					</clipitem>
					<transitionitem>
						<start>25596</start>
						<end>25609</end>
						<alignment>center</alignment>
						<cutPointTicks>60963840000</cutPointTicks>
						<rate>
							<timebase>25</timebase>
							<ntsc>FALSE</ntsc>
						</rate>
						<effect>
							<name>Cross Fade (+3dB)</name>
							<effectid>KGAudioTransCrossFade3dB</effectid>
							<effecttype>transition</effecttype>
							<mediatype>audio</mediatype>
							<wipecode>0</wipecode>
							<wipeaccuracy>100</wipeaccuracy>
							<startratio>0</startratio>
							<endratio>1</endratio>
							<reverse>FALSE</reverse>
						</effect>
					</transitionitem>
					<clipitem id="clipitem-856" premiereChannelType="stereo">
						<masterclipid>masterclip-206</masterclipid>
						<name>NONRO130128CD0008 Mama Said Knock You Out.wav</name>
						<enabled>TRUE</enabled>
						<duration>7324</duration>
						<rate>
							<timebase>25</timebase>
							<ntsc>FALSE</ntsc>
						</rate>
						<start>-1</start>
						<end>-1</end>
						<in>1484</in>
						<out>1522</out>
						<pproTicksIn>15078389760000</pproTicksIn>
						<pproTicksOut>15470749224000</pproTicksOut>
						<file id="file-190"/>
						<sourcetrack>
							<mediatype>audio</mediatype>
							<trackindex>2</trackindex>
						</sourcetrack>
							<filter>
								<effect>
									<name>Gain</name>
									<effectid>{61756678, 4761696e, 4b657947}</effectid>
									<effecttype>filter</effecttype>
									<mediatype>audio</mediatype>
									<parameter authoringApp="PremierePro">
										<parameterid>Gain(dB)</parameterid>
										<name>Gain(dB)</name>
										<valuemin>-96</valuemin>
										<valuemax>96</valuemax>
										<value>-17</value>
									</parameter>
								</effect>
							</filter>
						<link>
							<linkclipref>clipitem-834</linkclipref>
							<mediatype>audio</mediatype>
							<trackindex>17</trackindex>
							<clipindex>26</clipindex>
							<groupindex>1</groupindex>
						</link>
						<link>
							<linkclipref>clipitem-856</linkclipref>
							<mediatype>audio</mediatype>
							<trackindex>18</trackindex>
							<clipindex>25</clipindex>
							<groupindex>1</groupindex>
						</link>
						<logginginfo>
							<description></description>
							<scene></scene>
							<shottake></shottake>
							<lognote>CD Track 8 archiveNo[130128010]</lognote>
						</logginginfo>
						<labels>
							<label2>Caribbean</label2>
						</labels>
					</clipitem>
					<transitionitem>
						<start>25618</start>
						<end>25634</end>
						<alignment>center</alignment>
						<cutPointTicks>75029976000</cutPointTicks>
						<rate>
							<timebase>25</timebase>
							<ntsc>FALSE</ntsc>
						</rate>
						<effect>
							<name>Cross Fade (+3dB)</name>
							<effectid>KGAudioTransCrossFade3dB</effectid>
							<effecttype>transition</effecttype>
							<mediatype>audio</mediatype>
							<wipecode>0</wipecode>
							<wipeaccuracy>100</wipeaccuracy>
							<startratio>0</startratio>
							<endratio>1</endratio>
							<reverse>FALSE</reverse>
						</effect>
					</transitionitem>
					<clipitem id="clipitem-857" premiereChannelType="stereo">
						<masterclipid>masterclip-206</masterclipid>
						<name>NONRO130128CD0008 Mama Said Knock You Out.wav</name>
						<enabled>TRUE</enabled>
						<duration>7324</duration>
						<rate>
							<timebase>25</timebase>
							<ntsc>FALSE</ntsc>
						</rate>
						<start>-1</start>
						<end>-1</end>
						<in>1506</in>
						<out>1748</out>
						<pproTicksIn>15308178984000</pproTicksIn>
						<pproTicksOut>17760798720000</pproTicksOut>
						<file id="file-190"/>
						<sourcetrack>
							<mediatype>audio</mediatype>
							<trackindex>2</trackindex>
						</sourcetrack>
							<filter>
								<effect>
									<name>Gain</name>
									<effectid>{61756678, 4761696e, 4b657947}</effectid>
									<effecttype>filter</effecttype>
									<mediatype>audio</mediatype>
									<parameter authoringApp="PremierePro">
										<parameterid>Gain(dB)</parameterid>
										<name>Gain(dB)</name>
										<valuemin>-96</valuemin>
										<valuemax>96</valuemax>
										<value>-9</value>
									</parameter>
								</effect>
							</filter>
						<link>
							<linkclipref>clipitem-835</linkclipref>
							<mediatype>audio</mediatype>
							<trackindex>17</trackindex>
							<clipindex>28</clipindex>
							<groupindex>1</groupindex>
						</link>
						<link>
							<linkclipref>clipitem-857</linkclipref>
							<mediatype>audio</mediatype>
							<trackindex>18</trackindex>
							<clipindex>27</clipindex>
							<groupindex>1</groupindex>
						</link>
						<logginginfo>
							<description></description>
							<scene></scene>
							<shottake></shottake>
							<lognote>CD Track 8 archiveNo[130128010]</lognote>
						</logginginfo>
						<labels>
							<label2>Caribbean</label2>
						</labels>
					</clipitem>
					<transitionitem>
						<start>25825</start>
						<end>25860</end>
						<alignment>end-black</alignment>
						<cutPointTicks>355622400000</cutPointTicks>
						<rate>
							<timebase>25</timebase>
							<ntsc>FALSE</ntsc>
						</rate>
						<effect>
							<name>Cross Fade (+3dB)</name>
							<effectid>KGAudioTransCrossFade3dB</effectid>
							<effecttype>transition</effecttype>
							<mediatype>audio</mediatype>
							<wipecode>0</wipecode>
							<wipeaccuracy>100</wipeaccuracy>
							<startratio>0</startratio>
							<endratio>1</endratio>
							<reverse>FALSE</reverse>
						</effect>
					</transitionitem>
					<clipitem id="clipitem-858" premiereChannelType="stereo">
						<masterclipid>masterclip-207</masterclipid>
						<name>NONRE643326HD0001 Panda.wav</name>
						<enabled>TRUE</enabled>
						<duration>6196</duration>
						<rate>
							<timebase>25</timebase>
							<ntsc>FALSE</ntsc>
						</rate>
						<start>25916</start>
						<end>-1</end>
						<in>2529</in>
						<out>2592</out>
						<pproTicksIn>25696258560000</pproTicksIn>
						<pproTicksOut>26336378880000</pproTicksOut>
						<file id="file-191"/>
						<sourcetrack>
							<mediatype>audio</mediatype>
							<trackindex>2</trackindex>
						</sourcetrack>
							<filter>
								<effect>
									<name>Gain</name>
									<effectid>{61756678, 4761696e, 4b657947}</effectid>
									<effecttype>filter</effecttype>
									<mediatype>audio</mediatype>
									<parameter authoringApp="PremierePro">
										<parameterid>Gain(dB)</parameterid>
										<name>Gain(dB)</name>
										<valuemin>-96</valuemin>
										<valuemax>96</valuemax>
										<value>-14</value>
									</parameter>
								</effect>
							</filter>
						<link>
							<linkclipref>clipitem-836</linkclipref>
							<mediatype>audio</mediatype>
							<trackindex>17</trackindex>
							<clipindex>30</clipindex>
							<groupindex>1</groupindex>
						</link>
						<link>
							<linkclipref>clipitem-858</linkclipref>
							<mediatype>audio</mediatype>
							<trackindex>18</trackindex>
							<clipindex>29</clipindex>
							<groupindex>1</groupindex>
						</link>
						<logginginfo>
							<description>Aon theme song?</description>
							<scene></scene>
							<shottake></shottake>
							<lognote></lognote>
						</logginginfo>
						<labels>
							<label2>Caribbean</label2>
						</labels>
					</clipitem>
					<transitionitem>
						<start>25966</start>
						<end>25979</end>
						<alignment>center</alignment>
						<cutPointTicks>60963840000</cutPointTicks>
						<rate>
							<timebase>25</timebase>
							<ntsc>FALSE</ntsc>
						</rate>
						<effect>
							<name>Cross Fade (+3dB)</name>
							<effectid>KGAudioTransCrossFade3dB</effectid>
							<effecttype>transition</effecttype>
							<mediatype>audio</mediatype>
							<wipecode>0</wipecode>
							<wipeaccuracy>100</wipeaccuracy>
							<startratio>0</startratio>
							<endratio>1</endratio>
							<reverse>FALSE</reverse>
						</effect>
					</transitionitem>
					<clipitem id="clipitem-859" premiereChannelType="stereo">
						<masterclipid>masterclip-207</masterclipid>
						<name>NONRE643326HD0001 Panda.wav</name>
						<enabled>TRUE</enabled>
						<duration>6196</duration>
						<rate>
							<timebase>25</timebase>
							<ntsc>FALSE</ntsc>
						</rate>
						<start>-1</start>
						<end>-1</end>
						<in>2579</in>
						<out>2853</out>
						<pproTicksIn>26204290560000</pproTicksIn>
						<pproTicksOut>28988305920000</pproTicksOut>
						<file id="file-191"/>
						<sourcetrack>
							<mediatype>audio</mediatype>
							<trackindex>2</trackindex>
						</sourcetrack>
							<filter>
								<effect>
									<name>Gain</name>
									<effectid>{61756678, 4761696e, 4b657947}</effectid>
									<effecttype>filter</effecttype>
									<mediatype>audio</mediatype>
									<parameter authoringApp="PremierePro">
										<parameterid>Gain(dB)</parameterid>
										<name>Gain(dB)</name>
										<valuemin>-96</valuemin>
										<valuemax>96</valuemax>
										<value>-14</value>
									</parameter>
								</effect>
							</filter>
						<link>
							<linkclipref>clipitem-837</linkclipref>
							<mediatype>audio</mediatype>
							<trackindex>17</trackindex>
							<clipindex>32</clipindex>
							<groupindex>1</groupindex>
						</link>
						<link>
							<linkclipref>clipitem-859</linkclipref>
							<mediatype>audio</mediatype>
							<trackindex>18</trackindex>
							<clipindex>31</clipindex>
							<groupindex>1</groupindex>
						</link>
						<logginginfo>
							<description>Aon theme song?</description>
							<scene></scene>
							<shottake></shottake>
							<lognote></lognote>
						</logginginfo>
						<labels>
							<label2>Caribbean</label2>
						</labels>
					</clipitem>
					<transitionitem>
						<start>26227</start>
						<end>26240</end>
						<alignment>center</alignment>
						<cutPointTicks>60963840000</cutPointTicks>
						<rate>
							<timebase>25</timebase>
							<ntsc>FALSE</ntsc>
						</rate>
						<effect>
							<name>Cross Fade (+3dB)</name>
							<effectid>KGAudioTransCrossFade3dB</effectid>
							<effecttype>transition</effecttype>
							<mediatype>audio</mediatype>
							<wipecode>0</wipecode>
							<wipeaccuracy>100</wipeaccuracy>
							<startratio>0</startratio>
							<endratio>1</endratio>
							<reverse>FALSE</reverse>
						</effect>
					</transitionitem>
					<clipitem id="clipitem-860" premiereChannelType="stereo">
						<masterclipid>masterclip-207</masterclipid>
						<name>NONRE643326HD0001 Panda.wav</name>
						<enabled>TRUE</enabled>
						<duration>6196</duration>
						<rate>
							<timebase>25</timebase>
							<ntsc>FALSE</ntsc>
						</rate>
						<start>-1</start>
						<end>-1</end>
						<in>2840</in>
						<out>2907</out>
						<pproTicksIn>28856217600000</pproTicksIn>
						<pproTicksOut>29536980480000</pproTicksOut>
						<file id="file-191"/>
						<sourcetrack>
							<mediatype>audio</mediatype>
							<trackindex>2</trackindex>
						</sourcetrack>
							<filter>
								<effect>
									<name>Gain</name>
									<effectid>{61756678, 4761696e, 4b657947}</effectid>
									<effecttype>filter</effecttype>
									<mediatype>audio</mediatype>
									<parameter authoringApp="PremierePro">
										<parameterid>Gain(dB)</parameterid>
										<name>Gain(dB)</name>
										<valuemin>-96</valuemin>
										<valuemax>96</valuemax>
										<value>-26</value>
									</parameter>
								</effect>
							</filter>
						<link>
							<linkclipref>clipitem-838</linkclipref>
							<mediatype>audio</mediatype>
							<trackindex>17</trackindex>
							<clipindex>34</clipindex>
							<groupindex>1</groupindex>
						</link>
						<link>
							<linkclipref>clipitem-860</linkclipref>
							<mediatype>audio</mediatype>
							<trackindex>18</trackindex>
							<clipindex>33</clipindex>
							<groupindex>1</groupindex>
						</link>
						<logginginfo>
							<description>Aon theme song?</description>
							<scene></scene>
							<shottake></shottake>
							<lognote></lognote>
						</logginginfo>
						<labels>
							<label2>Caribbean</label2>
						</labels>
					</clipitem>
					<transitionitem>
						<start>26281</start>
						<end>26294</end>
						<alignment>center</alignment>
						<cutPointTicks>60963840000</cutPointTicks>
						<rate>
							<timebase>25</timebase>
							<ntsc>FALSE</ntsc>
						</rate>
						<effect>
							<name>Cross Fade (+3dB)</name>
							<effectid>KGAudioTransCrossFade3dB</effectid>
							<effecttype>transition</effecttype>
							<mediatype>audio</mediatype>
							<wipecode>0</wipecode>
							<wipeaccuracy>100</wipeaccuracy>
							<startratio>0</startratio>
							<endratio>1</endratio>
							<reverse>FALSE</reverse>
						</effect>
					</transitionitem>
					<clipitem id="clipitem-861" premiereChannelType="stereo">
						<masterclipid>masterclip-207</masterclipid>
						<name>NONRE643326HD0001 Panda.wav</name>
						<enabled>TRUE</enabled>
						<duration>6196</duration>
						<rate>
							<timebase>25</timebase>
							<ntsc>FALSE</ntsc>
						</rate>
						<start>-1</start>
						<end>26412</end>
						<in>2894</in>
						<out>3025</out>
						<pproTicksIn>29404892160000</pproTicksIn>
						<pproTicksOut>30735936000000</pproTicksOut>
						<file id="file-191"/>
						<sourcetrack>
							<mediatype>audio</mediatype>
							<trackindex>2</trackindex>
						</sourcetrack>
							<filter>
								<effect>
									<name>Gain</name>
									<effectid>{61756678, 4761696e, 4b657947}</effectid>
									<effecttype>filter</effecttype>
									<mediatype>audio</mediatype>
									<parameter authoringApp="PremierePro">
										<parameterid>Gain(dB)</parameterid>
										<name>Gain(dB)</name>
										<valuemin>-96</valuemin>
										<valuemax>96</valuemax>
										<value>-14</value>
									</parameter>
								</effect>
							</filter>
						<link>
							<linkclipref>clipitem-839</linkclipref>
							<mediatype>audio</mediatype>
							<trackindex>17</trackindex>
							<clipindex>36</clipindex>
							<groupindex>1</groupindex>
						</link>
						<link>
							<linkclipref>clipitem-861</linkclipref>
							<mediatype>audio</mediatype>
							<trackindex>18</trackindex>
							<clipindex>35</clipindex>
							<groupindex>1</groupindex>
						</link>
						<logginginfo>
							<description>Aon theme song?</description>
							<scene></scene>
							<shottake></shottake>
							<lognote></lognote>
						</logginginfo>
						<labels>
							<label2>Caribbean</label2>
						</labels>
					</clipitem>
					<clipitem id="clipitem-862" premiereChannelType="stereo">
						<masterclipid>masterclip-207</masterclipid>
						<name>NONRE643326HD0001 Panda.wav</name>
						<enabled>TRUE</enabled>
						<duration>6196</duration>
						<rate>
							<timebase>25</timebase>
							<ntsc>FALSE</ntsc>
						</rate>
						<start>26412</start>
						<end>-1</end>
						<in>3025</in>
						<out>3077</out>
						<pproTicksIn>30735936000000</pproTicksIn>
						<pproTicksOut>31264289280000</pproTicksOut>
						<file id="file-191"/>
						<sourcetrack>
							<mediatype>audio</mediatype>
							<trackindex>2</trackindex>
						</sourcetrack>
							<filter>
								<effect>
									<name>Gain</name>
									<effectid>{61756678, 4761696e, 4b657947}</effectid>
									<effecttype>filter</effecttype>
									<mediatype>audio</mediatype>
									<parameter authoringApp="PremierePro">
										<parameterid>Gain(dB)</parameterid>
										<name>Gain(dB)</name>
										<valuemin>-96</valuemin>
										<valuemax>96</valuemax>
										<value>-14</value>
									</parameter>
								</effect>
							</filter>
						<link>
							<linkclipref>clipitem-840</linkclipref>
							<mediatype>audio</mediatype>
							<trackindex>17</trackindex>
							<clipindex>37</clipindex>
							<groupindex>1</groupindex>
						</link>
						<link>
							<linkclipref>clipitem-862</linkclipref>
							<mediatype>audio</mediatype>
							<trackindex>18</trackindex>
							<clipindex>36</clipindex>
							<groupindex>1</groupindex>
						</link>
						<logginginfo>
							<description>Aon theme song?</description>
							<scene></scene>
							<shottake></shottake>
							<lognote></lognote>
						</logginginfo>
						<labels>
							<label2>Caribbean</label2>
						</labels>
					</clipitem>
					<transitionitem>
						<start>26458</start>
						<end>26464</end>
						<alignment>end-black</alignment>
						<cutPointTicks>60963840000</cutPointTicks>
						<rate>
							<timebase>25</timebase>
							<ntsc>FALSE</ntsc>
						</rate>
						<effect>
							<name>Cross Fade (+3dB)</name>
							<effectid>KGAudioTransCrossFade3dB</effectid>
							<effecttype>transition</effecttype>
							<mediatype>audio</mediatype>
							<wipecode>0</wipecode>
							<wipeaccuracy>100</wipeaccuracy>
							<startratio>0</startratio>
							<endratio>1</endratio>
							<reverse>FALSE</reverse>
						</effect>
					</transitionitem>
					<clipitem id="clipitem-863" premiereChannelType="stereo">
						<masterclipid>masterclip-189</masterclipid>
						<name>91285__timbre__82264-variant-3d-wooshes-both-ways-2.wav</name>
						<enabled>TRUE</enabled>
						<duration>1120</duration>
						<rate>
							<timebase>25</timebase>
							<ntsc>FALSE</ntsc>
						</rate>
						<start>26743</start>
						<end>26766</end>
						<in>270</in>
						<out>293</out>
						<pproTicksIn>2743372800000</pproTicksIn>
						<pproTicksOut>2977067520000</pproTicksOut>
						<file id="file-173"/>
						<sourcetrack>
							<mediatype>audio</mediatype>
							<trackindex>2</trackindex>
						</sourcetrack>
							<filter>
								<effect>
									<name>Gain</name>
									<effectid>{61756678, 4761696e, 4b657947}</effectid>
									<effecttype>filter</effecttype>
									<mediatype>audio</mediatype>
									<parameter authoringApp="PremierePro">
										<parameterid>Gain(dB)</parameterid>
										<name>Gain(dB)</name>
										<valuemin>-96</valuemin>
										<valuemax>96</valuemax>
										<value>-20</value>
									</parameter>
								</effect>
							</filter>
						<link>
							<linkclipref>clipitem-841</linkclipref>
							<mediatype>audio</mediatype>
							<trackindex>17</trackindex>
							<clipindex>39</clipindex>
							<groupindex>1</groupindex>
						</link>
						<link>
							<linkclipref>clipitem-863</linkclipref>
							<mediatype>audio</mediatype>
							<trackindex>18</trackindex>
							<clipindex>38</clipindex>
							<groupindex>1</groupindex>
						</link>
						<logginginfo>
							<description></description>
							<scene></scene>
							<shottake></shottake>
							<lognote></lognote>
						</logginginfo>
						<labels>
							<label2>Caribbean</label2>
						</labels>
					</clipitem>
					<enabled>TRUE</enabled>
					<locked>FALSE</locked>
					<outputchannelindex>2</outputchannelindex>
				</track>
				<track TL.SQTrackAudioKeyframeStyle="0" TL.SQTrackShy="0" TL.SQTrackExpandedHeight="35" TL.SQTrackExpanded="1" MZ.TrackTargeted="1" PannerCurrentValue="0.5" PannerIsInverted="true" PannerStartKeyframe="-91445760000000000,0.5,0,0,0,0,0,0" PannerName="Balance" currentExplodedTrackIndex="0" totalExplodedTrackCount="2" premiereTrackType="Stereo">
					<clipitem id="clipitem-864" premiereChannelType="stereo">
						<masterclipid>masterclip-208</masterclipid>
						<name>STQM_1_67_Mechanix_Newman_Novack_Primiani_759468.wav</name>
						<enabled>TRUE</enabled>
						<duration>1304</duration>
						<rate>
							<timebase>25</timebase>
							<ntsc>FALSE</ntsc>
						</rate>
						<start>311</start>
						<end>-1</end>
						<in>0</in>
						<out>463</out>
						<pproTicksIn>0</pproTicksIn>
						<pproTicksOut>4704376320000</pproTicksOut>
						<file id="file-192">
							<name>STQM_1_67_Mechanix_Newman_Novack_Primiani_759468.wav</name>
							<pathurl>file://localhost/Volumes/Bingen/Prosjekter/MYNT194016%20WHATS%20COOKING/Musikk/Jan/Universal/STQM_1_67_Mechanix_Newman_Novack_Primiani_759468.wav</pathurl>
							<rate>
								<timebase>30</timebase>
								<ntsc>TRUE</ntsc>
							</rate>
							<duration>1563</duration>
							<timecode>
								<rate>
									<timebase>30</timebase>
									<ntsc>TRUE</ntsc>
								</rate>
								<string>00;00;00;00</string>
								<frame>0</frame>
								<displayformat>DF</displayformat>
								<reel>
									<name></name>
								</reel>
							</timecode>
							<media>
								<audio>
									<samplecharacteristics>
										<depth>16</depth>
										<samplerate>44100</samplerate>
									</samplecharacteristics>
									<channelcount>2</channelcount>
								</audio>
							</media>
						</file>
						<sourcetrack>
							<mediatype>audio</mediatype>
							<trackindex>1</trackindex>
						</sourcetrack>
							<filter>
								<effect>
									<name>Gain</name>
									<effectid>{61756678, 4761696e, 4b657947}</effectid>
									<effecttype>filter</effecttype>
									<mediatype>audio</mediatype>
									<parameter authoringApp="PremierePro">
										<parameterid>Gain(dB)</parameterid>
										<name>Gain(dB)</name>
										<valuemin>-96</valuemin>
										<valuemax>96</valuemax>
										<value>-16</value>
									</parameter>
								</effect>
							</filter>
						<link>
							<linkclipref>clipitem-864</linkclipref>
							<mediatype>audio</mediatype>
							<trackindex>19</trackindex>
							<clipindex>1</clipindex>
							<groupindex>1</groupindex>
						</link>
						<link>
							<linkclipref>clipitem-874</linkclipref>
							<mediatype>audio</mediatype>
							<trackindex>20</trackindex>
							<clipindex>1</clipindex>
							<groupindex>1</groupindex>
						</link>
						<logginginfo>
							<description></description>
							<scene></scene>
							<shottake></shottake>
							<lognote></lognote>
						</logginginfo>
						<labels>
							<label2>Rose</label2>
						</labels>
					</clipitem>
					<transitionitem>
						<start>724</start>
						<end>774</end>
						<alignment>end-black</alignment>
						<cutPointTicks>508032000000</cutPointTicks>
						<rate>
							<timebase>25</timebase>
							<ntsc>FALSE</ntsc>
						</rate>
						<effect>
							<name>Cross Fade (+3dB)</name>
							<effectid>KGAudioTransCrossFade3dB</effectid>
							<effecttype>transition</effecttype>
							<mediatype>audio</mediatype>
							<wipecode>0</wipecode>
							<wipeaccuracy>100</wipeaccuracy>
							<startratio>0</startratio>
							<endratio>1</endratio>
							<reverse>FALSE</reverse>
						</effect>
					</transitionitem>
					<clipitem id="clipitem-865" premiereChannelType="stereo">
						<masterclipid>masterclip-189</masterclipid>
						<name>91285__timbre__82264-variant-3d-wooshes-both-ways-2.wav</name>
						<enabled>TRUE</enabled>
						<duration>1120</duration>
						<rate>
							<timebase>25</timebase>
							<ntsc>FALSE</ntsc>
						</rate>
						<start>23819</start>
						<end>23842</end>
						<in>270</in>
						<out>293</out>
						<pproTicksIn>2743372800000</pproTicksIn>
						<pproTicksOut>2977067520000</pproTicksOut>
						<file id="file-173"/>
						<sourcetrack>
							<mediatype>audio</mediatype>
							<trackindex>1</trackindex>
						</sourcetrack>
							<filter>
								<effect>
									<name>Gain</name>
									<effectid>{61756678, 4761696e, 4b657947}</effectid>
									<effecttype>filter</effecttype>
									<mediatype>audio</mediatype>
									<parameter authoringApp="PremierePro">
										<parameterid>Gain(dB)</parameterid>
										<name>Gain(dB)</name>
										<valuemin>-96</valuemin>
										<valuemax>96</valuemax>
										<value>-20</value>
									</parameter>
								</effect>
							</filter>
						<link>
							<linkclipref>clipitem-865</linkclipref>
							<mediatype>audio</mediatype>
							<trackindex>19</trackindex>
							<clipindex>3</clipindex>
							<groupindex>1</groupindex>
						</link>
						<link>
							<linkclipref>clipitem-875</linkclipref>
							<mediatype>audio</mediatype>
							<trackindex>20</trackindex>
							<clipindex>3</clipindex>
							<groupindex>1</groupindex>
						</link>
						<logginginfo>
							<description></description>
							<scene></scene>
							<shottake></shottake>
							<lognote></lognote>
						</logginginfo>
						<labels>
							<label2>Caribbean</label2>
						</labels>
					</clipitem>
					<transitionitem>
						<start>25884</start>
						<end>25897</end>
						<alignment>start-black</alignment>
						<cutPointTicks>0</cutPointTicks>
						<rate>
							<timebase>25</timebase>
							<ntsc>FALSE</ntsc>
						</rate>
						<effect>
							<name>Cross Fade (+3dB)</name>
							<effectid>KGAudioTransCrossFade3dB</effectid>
							<effecttype>transition</effecttype>
							<mediatype>audio</mediatype>
							<wipecode>0</wipecode>
							<wipeaccuracy>100</wipeaccuracy>
							<startratio>0</startratio>
							<endratio>1</endratio>
							<reverse>FALSE</reverse>
						</effect>
					</transitionitem>
					<clipitem id="clipitem-866" premiereChannelType="stereo">
						<masterclipid>masterclip-207</masterclipid>
						<name>NONRE643326HD0001 Panda.wav</name>
						<enabled>TRUE</enabled>
						<duration>6196</duration>
						<rate>
							<timebase>25</timebase>
							<ntsc>FALSE</ntsc>
						</rate>
						<start>-1</start>
						<end>25921</end>
						<in>2353</in>
						<out>2390</out>
						<pproTicksIn>23907985920000</pproTicksIn>
						<pproTicksOut>24283929600000</pproTicksOut>
						<file id="file-191"/>
						<sourcetrack>
							<mediatype>audio</mediatype>
							<trackindex>1</trackindex>
						</sourcetrack>
							<filter>
								<effect>
									<name>Gain</name>
									<effectid>{61756678, 4761696e, 4b657947}</effectid>
									<effecttype>filter</effecttype>
									<mediatype>audio</mediatype>
									<parameter authoringApp="PremierePro">
										<parameterid>Gain(dB)</parameterid>
										<name>Gain(dB)</name>
										<valuemin>-96</valuemin>
										<valuemax>96</valuemax>
										<value>-9</value>
									</parameter>
								</effect>
							</filter>
						<link>
							<linkclipref>clipitem-866</linkclipref>
							<mediatype>audio</mediatype>
							<trackindex>19</trackindex>
							<clipindex>5</clipindex>
							<groupindex>1</groupindex>
						</link>
						<link>
							<linkclipref>clipitem-876</linkclipref>
							<mediatype>audio</mediatype>
							<trackindex>20</trackindex>
							<clipindex>5</clipindex>
							<groupindex>1</groupindex>
						</link>
						<logginginfo>
							<description>Aon theme song?</description>
							<scene></scene>
							<shottake></shottake>
							<lognote></lognote>
						</logginginfo>
						<labels>
							<label2>Caribbean</label2>
						</labels>
					</clipitem>
					<clipitem id="clipitem-867" premiereChannelType="stereo">
						<masterclipid>masterclip-209</masterclipid>
						<name>NONRT031867CD0011 Try a Little Tenderness.wav</name>
						<enabled>TRUE</enabled>
						<duration>5771</duration>
						<rate>
							<timebase>25</timebase>
							<ntsc>FALSE</ntsc>
						</rate>
						<start>27527</start>
						<end>-1</end>
						<in>0</in>
						<out>399</out>
						<pproTicksIn>0</pproTicksIn>
						<pproTicksOut>4054095360000</pproTicksOut>
						<file id="file-193">
							<name>NONRT031867CD0011 Try a Little Tenderness.wav</name>
							<pathurl>file://localhost/Volumes/Bingen/Prosjekter/MYNT194016%20WHATS%20COOKING/Musikk/Jan/DMA/NONRT031867CD0011%20Try%20a%20Little%20Tenderness.wav</pathurl>
							<rate>
								<timebase>30</timebase>
								<ntsc>TRUE</ntsc>
							</rate>
							<duration>6918</duration>
							<timecode>
								<rate>
									<timebase>30</timebase>
									<ntsc>TRUE</ntsc>
								</rate>
								<string>00;00;00;00</string>
								<frame>0</frame>
								<displayformat>DF</displayformat>
								<reel>
									<name></name>
								</reel>
							</timecode>
							<media>
								<audio>
									<samplecharacteristics>
										<depth>16</depth>
										<samplerate>48000</samplerate>
									</samplecharacteristics>
									<channelcount>2</channelcount>
								</audio>
							</media>
						</file>
						<sourcetrack>
							<mediatype>audio</mediatype>
							<trackindex>1</trackindex>
						</sourcetrack>
							<filter>
								<effect>
									<name>Gain</name>
									<effectid>{61756678, 4761696e, 4b657947}</effectid>
									<effecttype>filter</effecttype>
									<mediatype>audio</mediatype>
									<parameter authoringApp="PremierePro">
										<parameterid>Gain(dB)</parameterid>
										<name>Gain(dB)</name>
										<valuemin>-96</valuemin>
										<valuemax>96</valuemax>
										<value>-10</value>
									</parameter>
								</effect>
							</filter>
						<link>
							<linkclipref>clipitem-867</linkclipref>
							<mediatype>audio</mediatype>
							<trackindex>19</trackindex>
							<clipindex>6</clipindex>
							<groupindex>1</groupindex>
						</link>
						<link>
							<linkclipref>clipitem-877</linkclipref>
							<mediatype>audio</mediatype>
							<trackindex>20</trackindex>
							<clipindex>6</clipindex>
							<groupindex>1</groupindex>
						</link>
						<logginginfo>
							<description></description>
							<scene></scene>
							<shottake></shottake>
							<lognote>CD Track 11 archiveNo[031867013]</lognote>
						</logginginfo>
						<labels>
							<label2>Caribbean</label2>
						</labels>
					</clipitem>
					<transitionitem>
						<start>27827</start>
						<end>27926</end>
						<alignment>center</alignment>
						<cutPointTicks>497871360000</cutPointTicks>
						<rate>
							<timebase>25</timebase>
							<ntsc>FALSE</ntsc>
						</rate>
						<effect>
							<name>Cross Fade (+3dB)</name>
							<effectid>KGAudioTransCrossFade3dB</effectid>
							<effecttype>transition</effecttype>
							<mediatype>audio</mediatype>
							<wipecode>0</wipecode>
							<wipeaccuracy>100</wipeaccuracy>
							<startratio>0</startratio>
							<endratio>1</endratio>
							<reverse>FALSE</reverse>
						</effect>
					</transitionitem>
					<clipitem id="clipitem-868" premiereChannelType="stereo">
						<masterclipid>masterclip-209</masterclipid>
						<name>NONRT031867CD0011 Try a Little Tenderness.wav</name>
						<enabled>TRUE</enabled>
						<duration>5771</duration>
						<rate>
							<timebase>25</timebase>
							<ntsc>FALSE</ntsc>
						</rate>
						<start>-1</start>
						<end>-1</end>
						<in>300</in>
						<out>1341</out>
						<pproTicksIn>3048192000000</pproTicksIn>
						<pproTicksOut>13625418240000</pproTicksOut>
						<file id="file-193"/>
						<sourcetrack>
							<mediatype>audio</mediatype>
							<trackindex>1</trackindex>
						</sourcetrack>
							<filter>
								<effect>
									<name>Gain</name>
									<effectid>{61756678, 4761696e, 4b657947}</effectid>
									<effecttype>filter</effecttype>
									<mediatype>audio</mediatype>
									<parameter authoringApp="PremierePro">
										<parameterid>Gain(dB)</parameterid>
										<name>Gain(dB)</name>
										<valuemin>-96</valuemin>
										<valuemax>96</valuemax>
										<value>-4</value>
									</parameter>
								</effect>
							</filter>
						<link>
							<linkclipref>clipitem-868</linkclipref>
							<mediatype>audio</mediatype>
							<trackindex>19</trackindex>
							<clipindex>8</clipindex>
							<groupindex>1</groupindex>
						</link>
						<link>
							<linkclipref>clipitem-878</linkclipref>
							<mediatype>audio</mediatype>
							<trackindex>20</trackindex>
							<clipindex>8</clipindex>
							<groupindex>1</groupindex>
						</link>
						<logginginfo>
							<description></description>
							<scene></scene>
							<shottake></shottake>
							<lognote>CD Track 11 archiveNo[031867013]</lognote>
						</logginginfo>
						<labels>
							<label2>Caribbean</label2>
						</labels>
					</clipitem>
					<transitionitem>
						<start>28670</start>
						<end>28868</end>
						<alignment>end-black</alignment>
						<cutPointTicks>2011806720000</cutPointTicks>
						<rate>
							<timebase>25</timebase>
							<ntsc>FALSE</ntsc>
						</rate>
						<effect>
							<name>Cross Fade (+3dB)</name>
							<effectid>KGAudioTransCrossFade3dB</effectid>
							<effecttype>transition</effecttype>
							<mediatype>audio</mediatype>
							<wipecode>0</wipecode>
							<wipeaccuracy>100</wipeaccuracy>
							<startratio>0</startratio>
							<endratio>1</endratio>
							<reverse>FALSE</reverse>
						</effect>
					</transitionitem>
					<clipitem id="clipitem-869" premiereChannelType="stereo">
						<masterclipid>masterclip-209</masterclipid>
						<name>NONRT031867CD0011 Try a Little Tenderness.wav</name>
						<enabled>TRUE</enabled>
						<duration>5771</duration>
						<rate>
							<timebase>25</timebase>
							<ntsc>FALSE</ntsc>
						</rate>
						<start>29200</start>
						<end>-1</end>
						<in>4866</in>
						<out>5000</out>
						<pproTicksIn>49441674240000</pproTicksIn>
						<pproTicksOut>50803200000000</pproTicksOut>
						<file id="file-193"/>
						<sourcetrack>
							<mediatype>audio</mediatype>
							<trackindex>1</trackindex>
						</sourcetrack>
							<filter>
								<effect>
									<name>Gain</name>
									<effectid>{61756678, 4761696e, 4b657947}</effectid>
									<effecttype>filter</effecttype>
									<mediatype>audio</mediatype>
									<parameter authoringApp="PremierePro">
										<parameterid>Gain(dB)</parameterid>
										<name>Gain(dB)</name>
										<valuemin>-96</valuemin>
										<valuemax>96</valuemax>
										<value>-5</value>
									</parameter>
								</effect>
							</filter>
						<link>
							<linkclipref>clipitem-869</linkclipref>
							<mediatype>audio</mediatype>
							<trackindex>19</trackindex>
							<clipindex>10</clipindex>
							<groupindex>1</groupindex>
						</link>
						<link>
							<linkclipref>clipitem-879</linkclipref>
							<mediatype>audio</mediatype>
							<trackindex>20</trackindex>
							<clipindex>10</clipindex>
							<groupindex>1</groupindex>
						</link>
						<logginginfo>
							<description></description>
							<scene></scene>
							<shottake></shottake>
							<lognote>CD Track 11 archiveNo[031867013]</lognote>
						</logginginfo>
						<labels>
							<label2>Caribbean</label2>
						</labels>
					</clipitem>
					<transitionitem>
						<start>29321</start>
						<end>29334</end>
						<alignment>center</alignment>
						<cutPointTicks>60963840000</cutPointTicks>
						<rate>
							<timebase>25</timebase>
							<ntsc>FALSE</ntsc>
						</rate>
						<effect>
							<name>Cross Fade (+3dB)</name>
							<effectid>KGAudioTransCrossFade3dB</effectid>
							<effecttype>transition</effecttype>
							<mediatype>audio</mediatype>
							<wipecode>0</wipecode>
							<wipeaccuracy>100</wipeaccuracy>
							<startratio>0</startratio>
							<endratio>1</endratio>
							<reverse>FALSE</reverse>
						</effect>
					</transitionitem>
					<clipitem id="clipitem-870" premiereChannelType="stereo">
						<masterclipid>masterclip-209</masterclipid>
						<name>NONRT031867CD0011 Try a Little Tenderness.wav</name>
						<enabled>TRUE</enabled>
						<duration>5771</duration>
						<rate>
							<timebase>25</timebase>
							<ntsc>FALSE</ntsc>
						</rate>
						<start>-1</start>
						<end>29384</end>
						<in>4987</in>
						<out>5050</out>
						<pproTicksIn>50671111680000</pproTicksIn>
						<pproTicksOut>51311232000000</pproTicksOut>
						<file id="file-193"/>
						<sourcetrack>
							<mediatype>audio</mediatype>
							<trackindex>1</trackindex>
						</sourcetrack>
							<filter>
								<effect>
									<name>Gain</name>
									<effectid>{61756678, 4761696e, 4b657947}</effectid>
									<effecttype>filter</effecttype>
									<mediatype>audio</mediatype>
									<parameter authoringApp="PremierePro">
										<parameterid>Gain(dB)</parameterid>
										<name>Gain(dB)</name>
										<valuemin>-96</valuemin>
										<valuemax>96</valuemax>
										<value>-13</value>
									</parameter>
								</effect>
							</filter>
						<link>
							<linkclipref>clipitem-870</linkclipref>
							<mediatype>audio</mediatype>
							<trackindex>19</trackindex>
							<clipindex>12</clipindex>
							<groupindex>1</groupindex>
						</link>
						<link>
							<linkclipref>clipitem-880</linkclipref>
							<mediatype>audio</mediatype>
							<trackindex>20</trackindex>
							<clipindex>12</clipindex>
							<groupindex>1</groupindex>
						</link>
						<logginginfo>
							<description></description>
							<scene></scene>
							<shottake></shottake>
							<lognote>CD Track 11 archiveNo[031867013]</lognote>
						</logginginfo>
						<labels>
							<label2>Caribbean</label2>
						</labels>
					</clipitem>
					<clipitem id="clipitem-871" premiereChannelType="stereo">
						<masterclipid>masterclip-209</masterclipid>
						<name>NONRT031867CD0011 Try a Little Tenderness.wav</name>
						<enabled>TRUE</enabled>
						<duration>5771</duration>
						<rate>
							<timebase>25</timebase>
							<ntsc>FALSE</ntsc>
						</rate>
						<start>29384</start>
						<end>-1</end>
						<in>5050</in>
						<out>5095</out>
						<pproTicksIn>51311232000000</pproTicksIn>
						<pproTicksOut>51768460800000</pproTicksOut>
						<file id="file-193"/>
						<sourcetrack>
							<mediatype>audio</mediatype>
							<trackindex>1</trackindex>
						</sourcetrack>
							<filter>
								<effect>
									<name>Gain</name>
									<effectid>{61756678, 4761696e, 4b657947}</effectid>
									<effecttype>filter</effecttype>
									<mediatype>audio</mediatype>
									<parameter authoringApp="PremierePro">
										<parameterid>Gain(dB)</parameterid>
										<name>Gain(dB)</name>
										<valuemin>-96</valuemin>
										<valuemax>96</valuemax>
										<value>-13</value>
									</parameter>
								</effect>
							</filter>
						<link>
							<linkclipref>clipitem-871</linkclipref>
							<mediatype>audio</mediatype>
							<trackindex>19</trackindex>
							<clipindex>13</clipindex>
							<groupindex>1</groupindex>
						</link>
						<link>
							<linkclipref>clipitem-881</linkclipref>
							<mediatype>audio</mediatype>
							<trackindex>20</trackindex>
							<clipindex>13</clipindex>
							<groupindex>1</groupindex>
						</link>
						<logginginfo>
							<description></description>
							<scene></scene>
							<shottake></shottake>
							<lognote>CD Track 11 archiveNo[031867013]</lognote>
						</logginginfo>
						<labels>
							<label2>Caribbean</label2>
						</labels>
					</clipitem>
					<transitionitem>
						<start>29398</start>
						<end>29429</end>
						<alignment>center</alignment>
						<cutPointTicks>152409600000</cutPointTicks>
						<rate>
							<timebase>25</timebase>
							<ntsc>FALSE</ntsc>
						</rate>
						<effect>
							<name>Cross Fade (+3dB)</name>
							<effectid>KGAudioTransCrossFade3dB</effectid>
							<effecttype>transition</effecttype>
							<mediatype>audio</mediatype>
							<wipecode>0</wipecode>
							<wipeaccuracy>100</wipeaccuracy>
							<startratio>0</startratio>
							<endratio>1</endratio>
							<reverse>FALSE</reverse>
						</effect>
					</transitionitem>
					<clipitem id="clipitem-872" premiereChannelType="stereo">
						<masterclipid>masterclip-209</masterclipid>
						<name>NONRT031867CD0011 Try a Little Tenderness.wav</name>
						<enabled>TRUE</enabled>
						<duration>5771</duration>
						<rate>
							<timebase>25</timebase>
							<ntsc>FALSE</ntsc>
						</rate>
						<start>-1</start>
						<end>-1</end>
						<in>5064</in>
						<out>5577</out>
						<pproTicksIn>51453480960000</pproTicksIn>
						<pproTicksOut>56665889280000</pproTicksOut>
						<file id="file-193"/>
						<sourcetrack>
							<mediatype>audio</mediatype>
							<trackindex>1</trackindex>
						</sourcetrack>
							<filter>
								<effect>
									<name>Gain</name>
									<effectid>{61756678, 4761696e, 4b657947}</effectid>
									<effecttype>filter</effecttype>
									<mediatype>audio</mediatype>
									<parameter authoringApp="PremierePro">
										<parameterid>Gain(dB)</parameterid>
										<name>Gain(dB)</name>
										<valuemin>-96</valuemin>
										<valuemax>96</valuemax>
										<value>-21</value>
									</parameter>
								</effect>
							</filter>
						<link>
							<linkclipref>clipitem-872</linkclipref>
							<mediatype>audio</mediatype>
							<trackindex>19</trackindex>
							<clipindex>15</clipindex>
							<groupindex>1</groupindex>
						</link>
						<link>
							<linkclipref>clipitem-882</linkclipref>
							<mediatype>audio</mediatype>
							<trackindex>20</trackindex>
							<clipindex>15</clipindex>
							<groupindex>1</groupindex>
						</link>
						<logginginfo>
							<description></description>
							<scene></scene>
							<shottake></shottake>
							<lognote>CD Track 11 archiveNo[031867013]</lognote>
						</logginginfo>
						<labels>
							<label2>Caribbean</label2>
						</labels>
					</clipitem>
					<transitionitem>
						<start>29898</start>
						<end>29911</end>
						<alignment>center</alignment>
						<cutPointTicks>60963840000</cutPointTicks>
						<rate>
							<timebase>25</timebase>
							<ntsc>FALSE</ntsc>
						</rate>
						<effect>
							<name>Cross Fade (+3dB)</name>
							<effectid>KGAudioTransCrossFade3dB</effectid>
							<effecttype>transition</effecttype>
							<mediatype>audio</mediatype>
							<wipecode>0</wipecode>
							<wipeaccuracy>100</wipeaccuracy>
							<startratio>0</startratio>
							<endratio>1</endratio>
							<reverse>FALSE</reverse>
						</effect>
					</transitionitem>
					<clipitem id="clipitem-873" premiereChannelType="stereo">
						<masterclipid>masterclip-209</masterclipid>
						<name>NONRT031867CD0011 Try a Little Tenderness.wav</name>
						<enabled>TRUE</enabled>
						<duration>5771</duration>
						<rate>
							<timebase>25</timebase>
							<ntsc>FALSE</ntsc>
						</rate>
						<start>-1</start>
						<end>-1</end>
						<in>5564</in>
						<out>5694</out>
						<pproTicksIn>56533800960000</pproTicksIn>
						<pproTicksOut>57854684160000</pproTicksOut>
						<file id="file-193"/>
						<sourcetrack>
							<mediatype>audio</mediatype>
							<trackindex>1</trackindex>
						</sourcetrack>
							<filter>
								<effect>
									<name>Gain</name>
									<effectid>{61756678, 4761696e, 4b657947}</effectid>
									<effecttype>filter</effecttype>
									<mediatype>audio</mediatype>
									<parameter authoringApp="PremierePro">
										<parameterid>Gain(dB)</parameterid>
										<name>Gain(dB)</name>
										<valuemin>-96</valuemin>
										<valuemax>96</valuemax>
										<value>-2</value>
									</parameter>
								</effect>
							</filter>
						<link>
							<linkclipref>clipitem-873</linkclipref>
							<mediatype>audio</mediatype>
							<trackindex>19</trackindex>
							<clipindex>17</clipindex>
							<groupindex>1</groupindex>
						</link>
						<link>
							<linkclipref>clipitem-883</linkclipref>
							<mediatype>audio</mediatype>
							<trackindex>20</trackindex>
							<clipindex>17</clipindex>
							<groupindex>1</groupindex>
						</link>
						<logginginfo>
							<description></description>
							<scene></scene>
							<shottake></shottake>
							<lognote>CD Track 11 archiveNo[031867013]</lognote>
						</logginginfo>
						<labels>
							<label2>Caribbean</label2>
						</labels>
					</clipitem>
					<transitionitem>
						<start>29970</start>
						<end>30028</end>
						<alignment>end-black</alignment>
						<cutPointTicks>589317120000</cutPointTicks>
						<rate>
							<timebase>25</timebase>
							<ntsc>FALSE</ntsc>
						</rate>
						<effect>
							<name>Cross Fade (+3dB)</name>
							<effectid>KGAudioTransCrossFade3dB</effectid>
							<effecttype>transition</effecttype>
							<mediatype>audio</mediatype>
							<wipecode>0</wipecode>
							<wipeaccuracy>100</wipeaccuracy>
							<startratio>0</startratio>
							<endratio>1</endratio>
							<reverse>FALSE</reverse>
						</effect>
					</transitionitem>
					<enabled>TRUE</enabled>
					<locked>FALSE</locked>
					<outputchannelindex>1</outputchannelindex>
				</track>
				<track TL.SQTrackAudioKeyframeStyle="0" TL.SQTrackShy="0" TL.SQTrackExpandedHeight="35" TL.SQTrackExpanded="1" MZ.TrackTargeted="1" PannerCurrentValue="0.5" PannerIsInverted="true" PannerStartKeyframe="-91445760000000000,0.5,0,0,0,0,0,0" PannerName="Balance" currentExplodedTrackIndex="1" totalExplodedTrackCount="2" premiereTrackType="Stereo">
					<clipitem id="clipitem-874" premiereChannelType="stereo">
						<masterclipid>masterclip-208</masterclipid>
						<name>STQM_1_67_Mechanix_Newman_Novack_Primiani_759468.wav</name>
						<enabled>TRUE</enabled>
						<duration>1304</duration>
						<rate>
							<timebase>25</timebase>
							<ntsc>FALSE</ntsc>
						</rate>
						<start>311</start>
						<end>-1</end>
						<in>0</in>
						<out>463</out>
						<pproTicksIn>0</pproTicksIn>
						<pproTicksOut>4704376320000</pproTicksOut>
						<file id="file-192"/>
						<sourcetrack>
							<mediatype>audio</mediatype>
							<trackindex>2</trackindex>
						</sourcetrack>
							<filter>
								<effect>
									<name>Gain</name>
									<effectid>{61756678, 4761696e, 4b657947}</effectid>
									<effecttype>filter</effecttype>
									<mediatype>audio</mediatype>
									<parameter authoringApp="PremierePro">
										<parameterid>Gain(dB)</parameterid>
										<name>Gain(dB)</name>
										<valuemin>-96</valuemin>
										<valuemax>96</valuemax>
										<value>-16</value>
									</parameter>
								</effect>
							</filter>
						<link>
							<linkclipref>clipitem-864</linkclipref>
							<mediatype>audio</mediatype>
							<trackindex>19</trackindex>
							<clipindex>1</clipindex>
							<groupindex>1</groupindex>
						</link>
						<link>
							<linkclipref>clipitem-874</linkclipref>
							<mediatype>audio</mediatype>
							<trackindex>20</trackindex>
							<clipindex>1</clipindex>
							<groupindex>1</groupindex>
						</link>
						<logginginfo>
							<description></description>
							<scene></scene>
							<shottake></shottake>
							<lognote></lognote>
						</logginginfo>
						<labels>
							<label2>Rose</label2>
						</labels>
					</clipitem>
					<transitionitem>
						<start>724</start>
						<end>774</end>
						<alignment>end-black</alignment>
						<cutPointTicks>508032000000</cutPointTicks>
						<rate>
							<timebase>25</timebase>
							<ntsc>FALSE</ntsc>
						</rate>
						<effect>
							<name>Cross Fade (+3dB)</name>
							<effectid>KGAudioTransCrossFade3dB</effectid>
							<effecttype>transition</effecttype>
							<mediatype>audio</mediatype>
							<wipecode>0</wipecode>
							<wipeaccuracy>100</wipeaccuracy>
							<startratio>0</startratio>
							<endratio>1</endratio>
							<reverse>FALSE</reverse>
						</effect>
					</transitionitem>
					<clipitem id="clipitem-875" premiereChannelType="stereo">
						<masterclipid>masterclip-189</masterclipid>
						<name>91285__timbre__82264-variant-3d-wooshes-both-ways-2.wav</name>
						<enabled>TRUE</enabled>
						<duration>1120</duration>
						<rate>
							<timebase>25</timebase>
							<ntsc>FALSE</ntsc>
						</rate>
						<start>23819</start>
						<end>23842</end>
						<in>270</in>
						<out>293</out>
						<pproTicksIn>2743372800000</pproTicksIn>
						<pproTicksOut>2977067520000</pproTicksOut>
						<file id="file-173"/>
						<sourcetrack>
							<mediatype>audio</mediatype>
							<trackindex>2</trackindex>
						</sourcetrack>
							<filter>
								<effect>
									<name>Gain</name>
									<effectid>{61756678, 4761696e, 4b657947}</effectid>
									<effecttype>filter</effecttype>
									<mediatype>audio</mediatype>
									<parameter authoringApp="PremierePro">
										<parameterid>Gain(dB)</parameterid>
										<name>Gain(dB)</name>
										<valuemin>-96</valuemin>
										<valuemax>96</valuemax>
										<value>-20</value>
									</parameter>
								</effect>
							</filter>
						<link>
							<linkclipref>clipitem-865</linkclipref>
							<mediatype>audio</mediatype>
							<trackindex>19</trackindex>
							<clipindex>3</clipindex>
							<groupindex>1</groupindex>
						</link>
						<link>
							<linkclipref>clipitem-875</linkclipref>
							<mediatype>audio</mediatype>
							<trackindex>20</trackindex>
							<clipindex>3</clipindex>
							<groupindex>1</groupindex>
						</link>
						<logginginfo>
							<description></description>
							<scene></scene>
							<shottake></shottake>
							<lognote></lognote>
						</logginginfo>
						<labels>
							<label2>Caribbean</label2>
						</labels>
					</clipitem>
					<transitionitem>
						<start>25884</start>
						<end>25897</end>
						<alignment>start-black</alignment>
						<cutPointTicks>0</cutPointTicks>
						<rate>
							<timebase>25</timebase>
							<ntsc>FALSE</ntsc>
						</rate>
						<effect>
							<name>Cross Fade (+3dB)</name>
							<effectid>KGAudioTransCrossFade3dB</effectid>
							<effecttype>transition</effecttype>
							<mediatype>audio</mediatype>
							<wipecode>0</wipecode>
							<wipeaccuracy>100</wipeaccuracy>
							<startratio>0</startratio>
							<endratio>1</endratio>
							<reverse>FALSE</reverse>
						</effect>
					</transitionitem>
					<clipitem id="clipitem-876" premiereChannelType="stereo">
						<masterclipid>masterclip-207</masterclipid>
						<name>NONRE643326HD0001 Panda.wav</name>
						<enabled>TRUE</enabled>
						<duration>6196</duration>
						<rate>
							<timebase>25</timebase>
							<ntsc>FALSE</ntsc>
						</rate>
						<start>-1</start>
						<end>25921</end>
						<in>2353</in>
						<out>2390</out>
						<pproTicksIn>23907985920000</pproTicksIn>
						<pproTicksOut>24283929600000</pproTicksOut>
						<file id="file-191"/>
						<sourcetrack>
							<mediatype>audio</mediatype>
							<trackindex>2</trackindex>
						</sourcetrack>
							<filter>
								<effect>
									<name>Gain</name>
									<effectid>{61756678, 4761696e, 4b657947}</effectid>
									<effecttype>filter</effecttype>
									<mediatype>audio</mediatype>
									<parameter authoringApp="PremierePro">
										<parameterid>Gain(dB)</parameterid>
										<name>Gain(dB)</name>
										<valuemin>-96</valuemin>
										<valuemax>96</valuemax>
										<value>-9</value>
									</parameter>
								</effect>
							</filter>
						<link>
							<linkclipref>clipitem-866</linkclipref>
							<mediatype>audio</mediatype>
							<trackindex>19</trackindex>
							<clipindex>5</clipindex>
							<groupindex>1</groupindex>
						</link>
						<link>
							<linkclipref>clipitem-876</linkclipref>
							<mediatype>audio</mediatype>
							<trackindex>20</trackindex>
							<clipindex>5</clipindex>
							<groupindex>1</groupindex>
						</link>
						<logginginfo>
							<description>Aon theme song?</description>
							<scene></scene>
							<shottake></shottake>
							<lognote></lognote>
						</logginginfo>
						<labels>
							<label2>Caribbean</label2>
						</labels>
					</clipitem>
					<clipitem id="clipitem-877" premiereChannelType="stereo">
						<masterclipid>masterclip-209</masterclipid>
						<name>NONRT031867CD0011 Try a Little Tenderness.wav</name>
						<enabled>TRUE</enabled>
						<duration>5771</duration>
						<rate>
							<timebase>25</timebase>
							<ntsc>FALSE</ntsc>
						</rate>
						<start>27527</start>
						<end>-1</end>
						<in>0</in>
						<out>399</out>
						<pproTicksIn>0</pproTicksIn>
						<pproTicksOut>4054095360000</pproTicksOut>
						<file id="file-193"/>
						<sourcetrack>
							<mediatype>audio</mediatype>
							<trackindex>2</trackindex>
						</sourcetrack>
							<filter>
								<effect>
									<name>Gain</name>
									<effectid>{61756678, 4761696e, 4b657947}</effectid>
									<effecttype>filter</effecttype>
									<mediatype>audio</mediatype>
									<parameter authoringApp="PremierePro">
										<parameterid>Gain(dB)</parameterid>
										<name>Gain(dB)</name>
										<valuemin>-96</valuemin>
										<valuemax>96</valuemax>
										<value>-10</value>
									</parameter>
								</effect>
							</filter>
						<link>
							<linkclipref>clipitem-867</linkclipref>
							<mediatype>audio</mediatype>
							<trackindex>19</trackindex>
							<clipindex>6</clipindex>
							<groupindex>1</groupindex>
						</link>
						<link>
							<linkclipref>clipitem-877</linkclipref>
							<mediatype>audio</mediatype>
							<trackindex>20</trackindex>
							<clipindex>6</clipindex>
							<groupindex>1</groupindex>
						</link>
						<logginginfo>
							<description></description>
							<scene></scene>
							<shottake></shottake>
							<lognote>CD Track 11 archiveNo[031867013]</lognote>
						</logginginfo>
						<labels>
							<label2>Caribbean</label2>
						</labels>
					</clipitem>
					<transitionitem>
						<start>27827</start>
						<end>27926</end>
						<alignment>center</alignment>
						<cutPointTicks>497871360000</cutPointTicks>
						<rate>
							<timebase>25</timebase>
							<ntsc>FALSE</ntsc>
						</rate>
						<effect>
							<name>Cross Fade (+3dB)</name>
							<effectid>KGAudioTransCrossFade3dB</effectid>
							<effecttype>transition</effecttype>
							<mediatype>audio</mediatype>
							<wipecode>0</wipecode>
							<wipeaccuracy>100</wipeaccuracy>
							<startratio>0</startratio>
							<endratio>1</endratio>
							<reverse>FALSE</reverse>
						</effect>
					</transitionitem>
					<clipitem id="clipitem-878" premiereChannelType="stereo">
						<masterclipid>masterclip-209</masterclipid>
						<name>NONRT031867CD0011 Try a Little Tenderness.wav</name>
						<enabled>TRUE</enabled>
						<duration>5771</duration>
						<rate>
							<timebase>25</timebase>
							<ntsc>FALSE</ntsc>
						</rate>
						<start>-1</start>
						<end>-1</end>
						<in>300</in>
						<out>1341</out>
						<pproTicksIn>3048192000000</pproTicksIn>
						<pproTicksOut>13625418240000</pproTicksOut>
						<file id="file-193"/>
						<sourcetrack>
							<mediatype>audio</mediatype>
							<trackindex>2</trackindex>
						</sourcetrack>
							<filter>
								<effect>
									<name>Gain</name>
									<effectid>{61756678, 4761696e, 4b657947}</effectid>
									<effecttype>filter</effecttype>
									<mediatype>audio</mediatype>
									<parameter authoringApp="PremierePro">
										<parameterid>Gain(dB)</parameterid>
										<name>Gain(dB)</name>
										<valuemin>-96</valuemin>
										<valuemax>96</valuemax>
										<value>-4</value>
									</parameter>
								</effect>
							</filter>
						<link>
							<linkclipref>clipitem-868</linkclipref>
							<mediatype>audio</mediatype>
							<trackindex>19</trackindex>
							<clipindex>8</clipindex>
							<groupindex>1</groupindex>
						</link>
						<link>
							<linkclipref>clipitem-878</linkclipref>
							<mediatype>audio</mediatype>
							<trackindex>20</trackindex>
							<clipindex>8</clipindex>
							<groupindex>1</groupindex>
						</link>
						<logginginfo>
							<description></description>
							<scene></scene>
							<shottake></shottake>
							<lognote>CD Track 11 archiveNo[031867013]</lognote>
						</logginginfo>
						<labels>
							<label2>Caribbean</label2>
						</labels>
					</clipitem>
					<transitionitem>
						<start>28670</start>
						<end>28868</end>
						<alignment>end-black</alignment>
						<cutPointTicks>2011806720000</cutPointTicks>
						<rate>
							<timebase>25</timebase>
							<ntsc>FALSE</ntsc>
						</rate>
						<effect>
							<name>Cross Fade (+3dB)</name>
							<effectid>KGAudioTransCrossFade3dB</effectid>
							<effecttype>transition</effecttype>
							<mediatype>audio</mediatype>
							<wipecode>0</wipecode>
							<wipeaccuracy>100</wipeaccuracy>
							<startratio>0</startratio>
							<endratio>1</endratio>
							<reverse>FALSE</reverse>
						</effect>
					</transitionitem>
					<clipitem id="clipitem-879" premiereChannelType="stereo">
						<masterclipid>masterclip-209</masterclipid>
						<name>NONRT031867CD0011 Try a Little Tenderness.wav</name>
						<enabled>TRUE</enabled>
						<duration>5771</duration>
						<rate>
							<timebase>25</timebase>
							<ntsc>FALSE</ntsc>
						</rate>
						<start>29200</start>
						<end>-1</end>
						<in>4866</in>
						<out>5000</out>
						<pproTicksIn>49441674240000</pproTicksIn>
						<pproTicksOut>50803200000000</pproTicksOut>
						<file id="file-193"/>
						<sourcetrack>
							<mediatype>audio</mediatype>
							<trackindex>2</trackindex>
						</sourcetrack>
							<filter>
								<effect>
									<name>Gain</name>
									<effectid>{61756678, 4761696e, 4b657947}</effectid>
									<effecttype>filter</effecttype>
									<mediatype>audio</mediatype>
									<parameter authoringApp="PremierePro">
										<parameterid>Gain(dB)</parameterid>
										<name>Gain(dB)</name>
										<valuemin>-96</valuemin>
										<valuemax>96</valuemax>
										<value>-5</value>
									</parameter>
								</effect>
							</filter>
						<link>
							<linkclipref>clipitem-869</linkclipref>
							<mediatype>audio</mediatype>
							<trackindex>19</trackindex>
							<clipindex>10</clipindex>
							<groupindex>1</groupindex>
						</link>
						<link>
							<linkclipref>clipitem-879</linkclipref>
							<mediatype>audio</mediatype>
							<trackindex>20</trackindex>
							<clipindex>10</clipindex>
							<groupindex>1</groupindex>
						</link>
						<logginginfo>
							<description></description>
							<scene></scene>
							<shottake></shottake>
							<lognote>CD Track 11 archiveNo[031867013]</lognote>
						</logginginfo>
						<labels>
							<label2>Caribbean</label2>
						</labels>
					</clipitem>
					<transitionitem>
						<start>29321</start>
						<end>29334</end>
						<alignment>center</alignment>
						<cutPointTicks>60963840000</cutPointTicks>
						<rate>
							<timebase>25</timebase>
							<ntsc>FALSE</ntsc>
						</rate>
						<effect>
							<name>Cross Fade (+3dB)</name>
							<effectid>KGAudioTransCrossFade3dB</effectid>
							<effecttype>transition</effecttype>
							<mediatype>audio</mediatype>
							<wipecode>0</wipecode>
							<wipeaccuracy>100</wipeaccuracy>
							<startratio>0</startratio>
							<endratio>1</endratio>
							<reverse>FALSE</reverse>
						</effect>
					</transitionitem>
					<clipitem id="clipitem-880" premiereChannelType="stereo">
						<masterclipid>masterclip-209</masterclipid>
						<name>NONRT031867CD0011 Try a Little Tenderness.wav</name>
						<enabled>TRUE</enabled>
						<duration>5771</duration>
						<rate>
							<timebase>25</timebase>
							<ntsc>FALSE</ntsc>
						</rate>
						<start>-1</start>
						<end>29384</end>
						<in>4987</in>
						<out>5050</out>
						<pproTicksIn>50671111680000</pproTicksIn>
						<pproTicksOut>51311232000000</pproTicksOut>
						<file id="file-193"/>
						<sourcetrack>
							<mediatype>audio</mediatype>
							<trackindex>2</trackindex>
						</sourcetrack>
							<filter>
								<effect>
									<name>Gain</name>
									<effectid>{61756678, 4761696e, 4b657947}</effectid>
									<effecttype>filter</effecttype>
									<mediatype>audio</mediatype>
									<parameter authoringApp="PremierePro">
										<parameterid>Gain(dB)</parameterid>
										<name>Gain(dB)</name>
										<valuemin>-96</valuemin>
										<valuemax>96</valuemax>
										<value>-13</value>
									</parameter>
								</effect>
							</filter>
						<link>
							<linkclipref>clipitem-870</linkclipref>
							<mediatype>audio</mediatype>
							<trackindex>19</trackindex>
							<clipindex>12</clipindex>
							<groupindex>1</groupindex>
						</link>
						<link>
							<linkclipref>clipitem-880</linkclipref>
							<mediatype>audio</mediatype>
							<trackindex>20</trackindex>
							<clipindex>12</clipindex>
							<groupindex>1</groupindex>
						</link>
						<logginginfo>
							<description></description>
							<scene></scene>
							<shottake></shottake>
							<lognote>CD Track 11 archiveNo[031867013]</lognote>
						</logginginfo>
						<labels>
							<label2>Caribbean</label2>
						</labels>
					</clipitem>
					<clipitem id="clipitem-881" premiereChannelType="stereo">
						<masterclipid>masterclip-209</masterclipid>
						<name>NONRT031867CD0011 Try a Little Tenderness.wav</name>
						<enabled>TRUE</enabled>
						<duration>5771</duration>
						<rate>
							<timebase>25</timebase>
							<ntsc>FALSE</ntsc>
						</rate>
						<start>29384</start>
						<end>-1</end>
						<in>5050</in>
						<out>5095</out>
						<pproTicksIn>51311232000000</pproTicksIn>
						<pproTicksOut>51768460800000</pproTicksOut>
						<file id="file-193"/>
						<sourcetrack>
							<mediatype>audio</mediatype>
							<trackindex>2</trackindex>
						</sourcetrack>
							<filter>
								<effect>
									<name>Gain</name>
									<effectid>{61756678, 4761696e, 4b657947}</effectid>
									<effecttype>filter</effecttype>
									<mediatype>audio</mediatype>
									<parameter authoringApp="PremierePro">
										<parameterid>Gain(dB)</parameterid>
										<name>Gain(dB)</name>
										<valuemin>-96</valuemin>
										<valuemax>96</valuemax>
										<value>-13</value>
									</parameter>
								</effect>
							</filter>
						<link>
							<linkclipref>clipitem-871</linkclipref>
							<mediatype>audio</mediatype>
							<trackindex>19</trackindex>
							<clipindex>13</clipindex>
							<groupindex>1</groupindex>
						</link>
						<link>
							<linkclipref>clipitem-881</linkclipref>
							<mediatype>audio</mediatype>
							<trackindex>20</trackindex>
							<clipindex>13</clipindex>
							<groupindex>1</groupindex>
						</link>
						<logginginfo>
							<description></description>
							<scene></scene>
							<shottake></shottake>
							<lognote>CD Track 11 archiveNo[031867013]</lognote>
						</logginginfo>
						<labels>
							<label2>Caribbean</label2>
						</labels>
					</clipitem>
					<transitionitem>
						<start>29398</start>
						<end>29429</end>
						<alignment>center</alignment>
						<cutPointTicks>152409600000</cutPointTicks>
						<rate>
							<timebase>25</timebase>
							<ntsc>FALSE</ntsc>
						</rate>
						<effect>
							<name>Cross Fade (+3dB)</name>
							<effectid>KGAudioTransCrossFade3dB</effectid>
							<effecttype>transition</effecttype>
							<mediatype>audio</mediatype>
							<wipecode>0</wipecode>
							<wipeaccuracy>100</wipeaccuracy>
							<startratio>0</startratio>
							<endratio>1</endratio>
							<reverse>FALSE</reverse>
						</effect>
					</transitionitem>
					<clipitem id="clipitem-882" premiereChannelType="stereo">
						<masterclipid>masterclip-209</masterclipid>
						<name>NONRT031867CD0011 Try a Little Tenderness.wav</name>
						<enabled>TRUE</enabled>
						<duration>5771</duration>
						<rate>
							<timebase>25</timebase>
							<ntsc>FALSE</ntsc>
						</rate>
						<start>-1</start>
						<end>-1</end>
						<in>5064</in>
						<out>5577</out>
						<pproTicksIn>51453480960000</pproTicksIn>
						<pproTicksOut>56665889280000</pproTicksOut>
						<file id="file-193"/>
						<sourcetrack>
							<mediatype>audio</mediatype>
							<trackindex>2</trackindex>
						</sourcetrack>
							<filter>
								<effect>
									<name>Gain</name>
									<effectid>{61756678, 4761696e, 4b657947}</effectid>
									<effecttype>filter</effecttype>
									<mediatype>audio</mediatype>
									<parameter authoringApp="PremierePro">
										<parameterid>Gain(dB)</parameterid>
										<name>Gain(dB)</name>
										<valuemin>-96</valuemin>
										<valuemax>96</valuemax>
										<value>-21</value>
									</parameter>
								</effect>
							</filter>
						<link>
							<linkclipref>clipitem-872</linkclipref>
							<mediatype>audio</mediatype>
							<trackindex>19</trackindex>
							<clipindex>15</clipindex>
							<groupindex>1</groupindex>
						</link>
						<link>
							<linkclipref>clipitem-882</linkclipref>
							<mediatype>audio</mediatype>
							<trackindex>20</trackindex>
							<clipindex>15</clipindex>
							<groupindex>1</groupindex>
						</link>
						<logginginfo>
							<description></description>
							<scene></scene>
							<shottake></shottake>
							<lognote>CD Track 11 archiveNo[031867013]</lognote>
						</logginginfo>
						<labels>
							<label2>Caribbean</label2>
						</labels>
					</clipitem>
					<transitionitem>
						<start>29898</start>
						<end>29911</end>
						<alignment>center</alignment>
						<cutPointTicks>60963840000</cutPointTicks>
						<rate>
							<timebase>25</timebase>
							<ntsc>FALSE</ntsc>
						</rate>
						<effect>
							<name>Cross Fade (+3dB)</name>
							<effectid>KGAudioTransCrossFade3dB</effectid>
							<effecttype>transition</effecttype>
							<mediatype>audio</mediatype>
							<wipecode>0</wipecode>
							<wipeaccuracy>100</wipeaccuracy>
							<startratio>0</startratio>
							<endratio>1</endratio>
							<reverse>FALSE</reverse>
						</effect>
					</transitionitem>
					<clipitem id="clipitem-883" premiereChannelType="stereo">
						<masterclipid>masterclip-209</masterclipid>
						<name>NONRT031867CD0011 Try a Little Tenderness.wav</name>
						<enabled>TRUE</enabled>
						<duration>5771</duration>
						<rate>
							<timebase>25</timebase>
							<ntsc>FALSE</ntsc>
						</rate>
						<start>-1</start>
						<end>-1</end>
						<in>5564</in>
						<out>5694</out>
						<pproTicksIn>56533800960000</pproTicksIn>
						<pproTicksOut>57854684160000</pproTicksOut>
						<file id="file-193"/>
						<sourcetrack>
							<mediatype>audio</mediatype>
							<trackindex>2</trackindex>
						</sourcetrack>
							<filter>
								<effect>
									<name>Gain</name>
									<effectid>{61756678, 4761696e, 4b657947}</effectid>
									<effecttype>filter</effecttype>
									<mediatype>audio</mediatype>
									<parameter authoringApp="PremierePro">
										<parameterid>Gain(dB)</parameterid>
										<name>Gain(dB)</name>
										<valuemin>-96</valuemin>
										<valuemax>96</valuemax>
										<value>-2</value>
									</parameter>
								</effect>
							</filter>
						<link>
							<linkclipref>clipitem-873</linkclipref>
							<mediatype>audio</mediatype>
							<trackindex>19</trackindex>
							<clipindex>17</clipindex>
							<groupindex>1</groupindex>
						</link>
						<link>
							<linkclipref>clipitem-883</linkclipref>
							<mediatype>audio</mediatype>
							<trackindex>20</trackindex>
							<clipindex>17</clipindex>
							<groupindex>1</groupindex>
						</link>
						<logginginfo>
							<description></description>
							<scene></scene>
							<shottake></shottake>
							<lognote>CD Track 11 archiveNo[031867013]</lognote>
						</logginginfo>
						<labels>
							<label2>Caribbean</label2>
						</labels>
					</clipitem>
					<transitionitem>
						<start>29970</start>
						<end>30028</end>
						<alignment>end-black</alignment>
						<cutPointTicks>589317120000</cutPointTicks>
						<rate>
							<timebase>25</timebase>
							<ntsc>FALSE</ntsc>
						</rate>
						<effect>
							<name>Cross Fade (+3dB)</name>
							<effectid>KGAudioTransCrossFade3dB</effectid>
							<effecttype>transition</effecttype>
							<mediatype>audio</mediatype>
							<wipecode>0</wipecode>
							<wipeaccuracy>100</wipeaccuracy>
							<startratio>0</startratio>
							<endratio>1</endratio>
							<reverse>FALSE</reverse>
						</effect>
					</transitionitem>
					<enabled>TRUE</enabled>
					<locked>FALSE</locked>
					<outputchannelindex>2</outputchannelindex>
				</track>
				<track TL.SQTrackAudioKeyframeStyle="0" TL.SQTrackShy="0" TL.SQTrackExpandedHeight="35" TL.SQTrackExpanded="1" MZ.TrackTargeted="1" PannerCurrentValue="0.5" PannerIsInverted="true" PannerStartKeyframe="-91445760000000000,0.5,0,0,0,0,0,0" PannerName="Balance" currentExplodedTrackIndex="0" totalExplodedTrackCount="2" premiereTrackType="Stereo">
					<enabled>TRUE</enabled>
					<locked>FALSE</locked>
					<outputchannelindex>1</outputchannelindex>
				</track>
				<track TL.SQTrackAudioKeyframeStyle="0" TL.SQTrackShy="0" TL.SQTrackExpandedHeight="35" TL.SQTrackExpanded="1" MZ.TrackTargeted="1" PannerCurrentValue="0.5" PannerIsInverted="true" PannerStartKeyframe="-91445760000000000,0.5,0,0,0,0,0,0" PannerName="Balance" currentExplodedTrackIndex="1" totalExplodedTrackCount="2" premiereTrackType="Stereo">
					<enabled>TRUE</enabled>
					<locked>FALSE</locked>
					<outputchannelindex>2</outputchannelindex>
				</track>
				<track TL.SQTrackAudioKeyframeStyle="0" TL.SQTrackShy="0" TL.SQTrackExpandedHeight="35" TL.SQTrackExpanded="1" MZ.TrackTargeted="1" PannerCurrentValue="0.5" PannerIsInverted="true" PannerStartKeyframe="-91445760000000000,0.5,0,0,0,0,0,0" PannerName="Balance" currentExplodedTrackIndex="0" totalExplodedTrackCount="2" premiereTrackType="Stereo">
					<enabled>TRUE</enabled>
					<locked>FALSE</locked>
					<outputchannelindex>1</outputchannelindex>
				</track>
				<track TL.SQTrackAudioKeyframeStyle="0" TL.SQTrackShy="0" TL.SQTrackExpandedHeight="35" TL.SQTrackExpanded="1" MZ.TrackTargeted="1" PannerCurrentValue="0.5" PannerIsInverted="true" PannerStartKeyframe="-91445760000000000,0.5,0,0,0,0,0,0" PannerName="Balance" currentExplodedTrackIndex="1" totalExplodedTrackCount="2" premiereTrackType="Stereo">
					<enabled>TRUE</enabled>
					<locked>FALSE</locked>
					<outputchannelindex>2</outputchannelindex>
				</track>
			</audio>
		</media>
		<timecode>
			<rate>
				<timebase>25</timebase>
				<ntsc>FALSE</ntsc>
			</rate>
			<string>00:00:00:00</string>
			<frame>0</frame>
			<displayformat>NDF</displayformat>
		</timecode>
			<marker>
				<comment></comment>
				<name></name>
				<in>25887</in>
				<out>-1</out>
			</marker>
		<labels>
			<label2>Cerulean</label2>
		</labels>
	</sequence>
</xmeml>
