<?xml version="1.0" encoding="UTF-8"?>
<!DOCTYPE xmeml>
<xmeml version="4">
	<sequence id="sequence-4" TL.SQAudioVisibleBase="0" TL.SQVideoVisibleBase="0" TL.SQVisibleBaseTime="0" TL.SQAVDividerPosition="0.32023575902" TL.SQHideShyTracks="0" TL.SQHeaderWidth="184" Monitor.ProgramZoomOut="306322974720000" Monitor.ProgramZoomIn="285381895680000" TL.SQTimePerPixel="1.0384818861414606" AM.TrackVScrollPosition="0" AM.TrackScrollPosition="0" MZ.EditLine="300988638720000" MZ.Sequence.PreviewFrameSizeHeight="1080" MZ.Sequence.PreviewFrameSizeWidth="1920" MZ.Sequence.AudioTimeDisplayFormat="200" MZ.Sequence.PreviewRenderingClassID="1297106761" MZ.Sequence.PreviewRenderingPresetCodec="1634755438" MZ.Sequence.PreviewRenderingPresetPath="EncoderPresets/SequencePreview/795454d9-d3c2-429d-9474-923ab13b7018/QuickTime.epr" MZ.Sequence.PreviewUseMaxRenderQuality="false" MZ.Sequence.PreviewUseMaxBitDepth="false" MZ.Sequence.EditingModeGUID="795454d9-d3c2-429d-9474-923ab13b7018" MZ.Sequence.VideoTimeDisplayFormat="101" MZ.WorkOutPoint="306322974720000" MZ.WorkInPoint="0" explodedTracks="true">
		<uuid>b9e388de-4c32-4076-9bcd-388454c3ed0e</uuid>
		<duration>0</duration>
		<rate>
			<timebase>25</timebase>
			<ntsc>FALSE</ntsc>
		</rate>
		<name>BroShow ep Krenking</name>
		<media>
			<video>
				<format>
					<samplecharacteristics>
						<rate>
							<timebase>25</timebase>
							<ntsc>FALSE</ntsc>
						</rate>
						<codec>
							<name>Apple ProRes 422</name>
							<appspecificdata>
								<appname>Final Cut Pro</appname>
								<appmanufacturer>Apple Inc.</appmanufacturer>
								<appversion>7.0</appversion>
								<data>
									<qtcodec>
										<codecname>Apple ProRes 422</codecname>
										<codectypename>Apple ProRes 422</codectypename>
										<codectypecode>apcn</codectypecode>
										<codecvendorcode>appl</codecvendorcode>
										<spatialquality>1024</spatialquality>
										<temporalquality>0</temporalquality>
										<keyframerate>0</keyframerate>
										<datarate>0</datarate>
									</qtcodec>
								</data>
							</appspecificdata>
						</codec>
						<width>1920</width>
						<height>1080</height>
						<anamorphic>FALSE</anamorphic>
						<pixelaspectratio>square</pixelaspectratio>
						<fielddominance>none</fielddominance>
						<colordepth>24</colordepth>
					</samplecharacteristics>
				</format>
				<track TL.SQTrackShy="0" TL.SQTrackExpandedHeight="25" TL.SQTrackExpanded="1" MZ.TrackTargeted="1">
					<enabled>TRUE</enabled>
					<locked>FALSE</locked>
				</track>
				<track TL.SQTrackShy="0" TL.SQTrackExpandedHeight="25" TL.SQTrackExpanded="1" MZ.TrackTargeted="1">
					<enabled>TRUE</enabled>
					<locked>FALSE</locked>
				</track>
				<track TL.SQTrackShy="0" TL.SQTrackExpandedHeight="25" TL.SQTrackExpanded="1" MZ.TrackTargeted="1">
					<enabled>TRUE</enabled>
					<locked>FALSE</locked>
				</track>
				<track TL.SQTrackShy="0" TL.SQTrackExpandedHeight="25" TL.SQTrackExpanded="1" MZ.TrackTargeted="1">
					<enabled>TRUE</enabled>
					<locked>FALSE</locked>
				</track>
				<track TL.SQTrackShy="0" TL.SQTrackExpandedHeight="25" TL.SQTrackExpanded="1" MZ.TrackTargeted="1">
					<enabled>TRUE</enabled>
					<locked>FALSE</locked>
				</track>
				<track TL.SQTrackShy="0" TL.SQTrackExpandedHeight="25" TL.SQTrackExpanded="1" MZ.TrackTargeted="1">
					<enabled>TRUE</enabled>
					<locked>FALSE</locked>
				</track>
				<track TL.SQTrackShy="0" TL.SQTrackExpandedHeight="25" TL.SQTrackExpanded="1" MZ.TrackTargeted="1">
					<enabled>TRUE</enabled>
					<locked>FALSE</locked>
				</track>
				<track TL.SQTrackShy="0" TL.SQTrackExpandedHeight="25" TL.SQTrackExpanded="1" MZ.TrackTargeted="1">
					<enabled>TRUE</enabled>
					<locked>FALSE</locked>
				</track>
				<track TL.SQTrackShy="0" TL.SQTrackExpandedHeight="25" TL.SQTrackExpanded="1" MZ.TrackTargeted="1">
					<enabled>TRUE</enabled>
					<locked>FALSE</locked>
				</track>
				<track TL.SQTrackShy="0" TL.SQTrackExpandedHeight="25" TL.SQTrackExpanded="1" MZ.TrackTargeted="1">
					<enabled>TRUE</enabled>
					<locked>FALSE</locked>
				</track>
				<track TL.SQTrackShy="0" TL.SQTrackExpandedHeight="25" TL.SQTrackExpanded="1" MZ.TrackTargeted="1">
					<enabled>TRUE</enabled>
					<locked>FALSE</locked>
				</track>
				<track TL.SQTrackShy="0" TL.SQTrackExpandedHeight="25" TL.SQTrackExpanded="1" MZ.TrackTargeted="1">
					<enabled>TRUE</enabled>
					<locked>FALSE</locked>
				</track>
				<track TL.SQTrackShy="0" TL.SQTrackExpandedHeight="25" TL.SQTrackExpanded="1" MZ.TrackTargeted="1">
					<enabled>TRUE</enabled>
					<locked>FALSE</locked>
				</track>
				<track TL.SQTrackShy="0" TL.SQTrackExpandedHeight="25" TL.SQTrackExpanded="1" MZ.TrackTargeted="1">
					<enabled>TRUE</enabled>
					<locked>FALSE</locked>
				</track>
				<track TL.SQTrackShy="0" TL.SQTrackExpandedHeight="25" TL.SQTrackExpanded="1" MZ.TrackTargeted="1">
					<enabled>TRUE</enabled>
					<locked>FALSE</locked>
				</track>
			</video>
			<audio>
				<numOutputChannels>8</numOutputChannels>
				<format>
					<samplecharacteristics>
						<depth>16</depth>
						<samplerate>48000</samplerate>
					</samplecharacteristics>
				</format>
				<outputs>
					<group>
						<index>1</index>
						<numchannels>1</numchannels>
						<downmix>0</downmix>
						<channel>
							<index>1</index>
						</channel>
					</group>
					<group>
						<index>2</index>
						<numchannels>1</numchannels>
						<downmix>0</downmix>
						<channel>
							<index>2</index>
						</channel>
					</group>
					<group>
						<index>3</index>
						<numchannels>1</numchannels>
						<downmix>0</downmix>
						<channel>
							<index>3</index>
						</channel>
					</group>
					<group>
						<index>4</index>
						<numchannels>1</numchannels>
						<downmix>0</downmix>
						<channel>
							<index>4</index>
						</channel>
					</group>
					<group>
						<index>5</index>
						<numchannels>1</numchannels>
						<downmix>0</downmix>
						<channel>
							<index>5</index>
						</channel>
					</group>
					<group>
						<index>6</index>
						<numchannels>1</numchannels>
						<downmix>0</downmix>
						<channel>
							<index>6</index>
						</channel>
					</group>
					<group>
						<index>7</index>
						<numchannels>1</numchannels>
						<downmix>0</downmix>
						<channel>
							<index>7</index>
						</channel>
					</group>
					<group>
						<index>8</index>
						<numchannels>1</numchannels>
						<downmix>0</downmix>
						<channel>
							<index>8</index>
						</channel>
					</group>
				</outputs>
				<track TL.SQTrackAudioKeyframeStyle="0" TL.SQTrackShy="0" TL.SQTrackExpandedHeight="45" TL.SQTrackExpanded="1" MZ.TrackTargeted="1" MZ.TrackName="Audio 1" PannerCurrentValue="0.5" PannerIsInverted="true" PannerStartKeyframe="-91445760000000000,0.5,0,0,0,0,0,0" PannerName="Balance" currentExplodedTrackIndex="0" totalExplodedTrackCount="2" premiereTrackType="Stereo">
					<enabled>TRUE</enabled>
					<locked>FALSE</locked>
					<outputchannelindex>1</outputchannelindex>
				</track>
				<track TL.SQTrackAudioKeyframeStyle="0" TL.SQTrackShy="0" TL.SQTrackExpandedHeight="45" TL.SQTrackExpanded="1" MZ.TrackTargeted="1" MZ.TrackName="Audio 1" PannerCurrentValue="0.5" PannerIsInverted="true" PannerStartKeyframe="-91445760000000000,0.5,0,0,0,0,0,0" PannerName="Balance" currentExplodedTrackIndex="1" totalExplodedTrackCount="2" premiereTrackType="Stereo">
					<enabled>TRUE</enabled>
					<locked>FALSE</locked>
					<outputchannelindex>2</outputchannelindex>
				</track>
				<track TL.SQTrackAudioKeyframeStyle="0" TL.SQTrackShy="0" TL.SQTrackExpandedHeight="45" TL.SQTrackExpanded="1" MZ.TrackTargeted="1" MZ.TrackName="Audio 2" PannerCurrentValue="0.5" PannerIsInverted="true" PannerStartKeyframe="-91445760000000000,0.5,0,0,0,0,0,0" PannerName="Balance" currentExplodedTrackIndex="0" totalExplodedTrackCount="2" premiereTrackType="Stereo">
					<enabled>TRUE</enabled>
					<locked>FALSE</locked>
					<outputchannelindex>1</outputchannelindex>
				</track>
				<track TL.SQTrackAudioKeyframeStyle="0" TL.SQTrackShy="0" TL.SQTrackExpandedHeight="45" TL.SQTrackExpanded="1" MZ.TrackTargeted="1" MZ.TrackName="Audio 2" PannerCurrentValue="0.5" PannerIsInverted="true" PannerStartKeyframe="-91445760000000000,0.5,0,0,0,0,0,0" PannerName="Balance" currentExplodedTrackIndex="1" totalExplodedTrackCount="2" premiereTrackType="Stereo">
					<enabled>TRUE</enabled>
					<locked>FALSE</locked>
					<outputchannelindex>2</outputchannelindex>
				</track>
				<track TL.SQTrackAudioKeyframeStyle="0" TL.SQTrackShy="0" TL.SQTrackExpandedHeight="45" TL.SQTrackExpanded="1" MZ.TrackTargeted="1" MZ.TrackName="Audio 3" PannerCurrentValue="0.5" PannerIsInverted="true" PannerStartKeyframe="-91445760000000000,0.5,0,0,0,0,0,0" PannerName="Balance" currentExplodedTrackIndex="0" totalExplodedTrackCount="2" premiereTrackType="Stereo">
					<enabled>TRUE</enabled>
					<locked>FALSE</locked>
					<outputchannelindex>1</outputchannelindex>
				</track>
				<track TL.SQTrackAudioKeyframeStyle="0" TL.SQTrackShy="0" TL.SQTrackExpandedHeight="45" TL.SQTrackExpanded="1" MZ.TrackTargeted="1" MZ.TrackName="Audio 3" PannerCurrentValue="0.5" PannerIsInverted="true" PannerStartKeyframe="-91445760000000000,0.5,0,0,0,0,0,0" PannerName="Balance" currentExplodedTrackIndex="1" totalExplodedTrackCount="2" premiereTrackType="Stereo">
					<enabled>TRUE</enabled>
					<locked>FALSE</locked>
					<outputchannelindex>2</outputchannelindex>
				</track>
				<track TL.SQTrackAudioKeyframeStyle="0" TL.SQTrackShy="0" TL.SQTrackExpandedHeight="45" TL.SQTrackExpanded="1" MZ.TrackTargeted="1" MZ.TrackName="Audio 4" PannerCurrentValue="0.5" PannerIsInverted="true" PannerStartKeyframe="-91445760000000000,0.5,0,0,0,0,0,0" PannerName="Balance" currentExplodedTrackIndex="0" totalExplodedTrackCount="2" premiereTrackType="Stereo">
					<enabled>TRUE</enabled>
					<locked>FALSE</locked>
					<outputchannelindex>1</outputchannelindex>
				</track>
				<track TL.SQTrackAudioKeyframeStyle="0" TL.SQTrackShy="0" TL.SQTrackExpandedHeight="45" TL.SQTrackExpanded="1" MZ.TrackTargeted="1" MZ.TrackName="Audio 4" PannerCurrentValue="0.5" PannerIsInverted="true" PannerStartKeyframe="-91445760000000000,0.5,0,0,0,0,0,0" PannerName="Balance" currentExplodedTrackIndex="1" totalExplodedTrackCount="2" premiereTrackType="Stereo">
					<enabled>TRUE</enabled>
					<locked>FALSE</locked>
					<outputchannelindex>2</outputchannelindex>
				</track>
				<track TL.SQTrackAudioKeyframeStyle="0" TL.SQTrackShy="0" TL.SQTrackExpandedHeight="55" TL.SQTrackExpanded="1" MZ.TrackTargeted="1" PannerCurrentValue="0.5" PannerIsInverted="true" PannerStartKeyframe="-91445760000000000,0.5,0,0,0,0,0,0" PannerName="Balance" currentExplodedTrackIndex="0" totalExplodedTrackCount="2" premiereTrackType="Stereo">
					<clipitem id="clipitem-189" premiereChannelType="mono">
						<masterclipid>masterclip-63</masterclipid>
						<name>Mikkelstøt-SC05-T01-Multicam</name>
						<enabled>TRUE</enabled>
						<duration>29952</duration>
						<rate>
							<timebase>25</timebase>
							<ntsc>FALSE</ntsc>
						</rate>
						<start>161</start>
						<end>184</end>
						<in>14100</in>
						<out>14123</out>
						<pproTicksIn>143265024000000</pproTicksIn>
						<pproTicksOut>143498718720000</pproTicksOut>
						<sequence id="sequence-5" TL.SQAudioVisibleBase="0" TL.SQVideoVisibleBase="0" TL.SQVisibleBaseTime="0" TL.SQAVDividerPosition="0.5" TL.SQHideShyTracks="0" TL.SQHeaderWidth="184" Monitor.ProgramZoomOut="299403578880000" Monitor.ProgramZoomIn="0" TL.SQTimePerPixel="0.20000000000000001" AM.TrackVScrollPosition="0" AM.TrackScrollPosition="0" MZ.EditLine="0" MZ.Sequence.PreviewFrameSizeHeight="1080" MZ.Sequence.PreviewFrameSizeWidth="1920" MZ.Sequence.AudioTimeDisplayFormat="200" MZ.Sequence.PreviewRenderingClassID="1061109567" MZ.Sequence.PreviewRenderingPresetCodec="1634755438" MZ.Sequence.PreviewRenderingPresetPath="EncoderPresets/SequencePreview/e43ae329-eea5-4a04-b964-b72cf263ee81/Blackmagic QuickTime Movie.epr" MZ.Sequence.PreviewUseMaxRenderQuality="false" MZ.Sequence.PreviewUseMaxBitDepth="false" MZ.Sequence.EditingModeGUID="e43ae329-eea5-4a04-b964-b72cf263ee81" MZ.Sequence.VideoTimeDisplayFormat="101" MZ.WorkOutPoint="299403578880000" MZ.WorkInPoint="0" MZ.ZeroPoint="9902132997120000">
							<duration>29303</duration>
							<rate>
								<timebase>25</timebase>
								<ntsc>FALSE</ntsc>
							</rate>
							<name>Mikkelstøt-SC05-T01-Multicam</name>
							<media>
								<video>
									<format>
										<samplecharacteristics>
											<rate>
												<timebase>25</timebase>
												<ntsc>FALSE</ntsc>
											</rate>
											<codec>
												<name>Apple ProRes 422</name>
												<appspecificdata>
													<appname>Final Cut Pro</appname>
													<appmanufacturer>Apple Inc.</appmanufacturer>
													<appversion>7.0</appversion>
													<data>
														<qtcodec>
															<codecname>Apple ProRes 422</codecname>
															<codectypename>Apple ProRes 422</codectypename>
															<codectypecode>apcn</codectypecode>
															<codecvendorcode>appl</codecvendorcode>
															<spatialquality>1024</spatialquality>
															<temporalquality>0</temporalquality>
															<keyframerate>0</keyframerate>
															<datarate>0</datarate>
														</qtcodec>
													</data>
												</appspecificdata>
											</codec>
											<width>1920</width>
											<height>1080</height>
											<anamorphic>FALSE</anamorphic>
											<pixelaspectratio>square</pixelaspectratio>
											<fielddominance>none</fielddominance>
											<colordepth>24</colordepth>
										</samplecharacteristics>
									</format>
									<track TL.SQTrackShy="0" TL.SQTrackExpandedHeight="50" TL.SQTrackExpanded="1" MZ.TrackTargeted="1">
										<clipitem id="clipitem-190">
											<masterclipid>masterclip-64</masterclipid>
											<name>Clip0007.mov</name>
											<enabled>TRUE</enabled>
											<duration>29304</duration>
											<rate>
												<timebase>25</timebase>
												<ntsc>FALSE</ntsc>
											</rate>
											<start>0</start>
											<end>29303</end>
											<in>1</in>
											<out>29304</out>
											<pproTicksIn>10160640000</pproTicksIn>
											<pproTicksOut>297747394560000</pproTicksOut>
											<alphatype>none</alphatype>
											<pixelaspectratio>square</pixelaspectratio>
											<anamorphic>FALSE</anamorphic>
											<file id="file-61">
												<name>Clip0007.mov</name>
												<pathurl>file://localhost/Volumes/Bingen/Prosjekter/MYNT194016%20WHATS%20COOKING/Media/Episode%2005%20N-ordet/VB-opptak/22042016/KAM%20A%20/prores/Clip0007.mov</pathurl>
												<rate>
													<timebase>25</timebase>
													<ntsc>FALSE</ntsc>
												</rate>
												<duration>29304</duration>
												<timecode>
													<rate>
														<timebase>25</timebase>
														<ntsc>FALSE</ntsc>
													</rate>
													<string>10:49:42:07</string>
													<frame>974557</frame>
													<displayformat>NDF</displayformat>
													<reel>
														<name></name>
													</reel>
												</timecode>
												<media>
													<video>
														<samplecharacteristics>
															<rate>
																<timebase>25</timebase>
																<ntsc>FALSE</ntsc>
															</rate>
															<width>1920</width>
															<height>1080</height>
															<anamorphic>FALSE</anamorphic>
															<pixelaspectratio>square</pixelaspectratio>
															<fielddominance>none</fielddominance>
														</samplecharacteristics>
													</video>
													<audio>
														<samplecharacteristics>
															<depth>16</depth>
															<samplerate>48000</samplerate>
														</samplecharacteristics>
														<channelcount>1</channelcount>
														<layout>stereo</layout>
														<audiochannel>
															<sourcechannel>1</sourcechannel>
															<channellabel>left</channellabel>
														</audiochannel>
													</audio>
													<audio>
														<samplecharacteristics>
															<depth>16</depth>
															<samplerate>48000</samplerate>
														</samplecharacteristics>
														<channelcount>1</channelcount>
														<layout>stereo</layout>
														<audiochannel>
															<sourcechannel>2</sourcechannel>
															<channellabel>right</channellabel>
														</audiochannel>
													</audio>
												</media>
											</file>
											<link>
												<linkclipref>clipitem-190</linkclipref>
												<mediatype>video</mediatype>
												<trackindex>1</trackindex>
												<clipindex>1</clipindex>
											</link>
											<link>
												<linkclipref>clipitem-194</linkclipref>
												<mediatype>audio</mediatype>
												<trackindex>1</trackindex>
												<clipindex>1</clipindex>
												<groupindex>1</groupindex>
											</link>
											<link>
												<linkclipref>clipitem-195</linkclipref>
												<mediatype>audio</mediatype>
												<trackindex>2</trackindex>
												<clipindex>1</clipindex>
												<groupindex>1</groupindex>
											</link>
											<logginginfo>
												<description>sc05 T01</description>
												<scene></scene>
												<shottake></shottake>
												<lognote></lognote>
											</logginginfo>
											<labels>
												<label2>Iris</label2>
											</labels>
										</clipitem>
										<enabled>TRUE</enabled>
										<locked>FALSE</locked>
									</track>
									<track TL.SQTrackShy="0" TL.SQTrackExpandedHeight="25" TL.SQTrackExpanded="0" MZ.TrackTargeted="0">
										<clipitem id="clipitem-191">
											<masterclipid>masterclip-65</masterclipid>
											<name>Clip0004.mov</name>
											<enabled>TRUE</enabled>
											<duration>29652</duration>
											<rate>
												<timebase>25</timebase>
												<ntsc>FALSE</ntsc>
											</rate>
											<start>0</start>
											<end>29254</end>
											<in>398</in>
											<out>29652</out>
											<pproTicksIn>4043934720000</pproTicksIn>
											<pproTicksOut>301283297280000</pproTicksOut>
											<alphatype>none</alphatype>
											<pixelaspectratio>square</pixelaspectratio>
											<anamorphic>FALSE</anamorphic>
											<file id="file-62">
												<name>Clip0004.mov</name>
												<pathurl>file://localhost/Volumes/Bingen/Prosjekter/MYNT194016%20WHATS%20COOKING/Media/Episode%2005%20N-ordet/VB-opptak/22042016/KAM%20B/prores/Clip0004.mov</pathurl>
												<rate>
													<timebase>25</timebase>
													<ntsc>FALSE</ntsc>
												</rate>
												<duration>29652</duration>
												<timecode>
													<rate>
														<timebase>25</timebase>
														<ntsc>FALSE</ntsc>
													</rate>
													<string>10:49:25:17</string>
													<frame>974142</frame>
													<displayformat>NDF</displayformat>
													<reel>
														<name></name>
													</reel>
												</timecode>
												<media>
													<video>
														<samplecharacteristics>
															<rate>
																<timebase>25</timebase>
																<ntsc>FALSE</ntsc>
															</rate>
															<width>1920</width>
															<height>1080</height>
															<anamorphic>FALSE</anamorphic>
															<pixelaspectratio>square</pixelaspectratio>
															<fielddominance>none</fielddominance>
														</samplecharacteristics>
													</video>
													<audio>
														<samplecharacteristics>
															<depth>16</depth>
															<samplerate>48000</samplerate>
														</samplecharacteristics>
														<channelcount>1</channelcount>
														<layout>stereo</layout>
														<audiochannel>
															<sourcechannel>1</sourcechannel>
															<channellabel>left</channellabel>
														</audiochannel>
													</audio>
													<audio>
														<samplecharacteristics>
															<depth>16</depth>
															<samplerate>48000</samplerate>
														</samplecharacteristics>
														<channelcount>1</channelcount>
														<layout>stereo</layout>
														<audiochannel>
															<sourcechannel>2</sourcechannel>
															<channellabel>right</channellabel>
														</audiochannel>
													</audio>
												</media>
											</file>
											<link>
												<linkclipref>clipitem-191</linkclipref>
												<mediatype>video</mediatype>
												<trackindex>2</trackindex>
												<clipindex>1</clipindex>
											</link>
											<link>
												<linkclipref>clipitem-196</linkclipref>
												<mediatype>audio</mediatype>
												<trackindex>3</trackindex>
												<clipindex>1</clipindex>
												<groupindex>1</groupindex>
											</link>
											<link>
												<linkclipref>clipitem-197</linkclipref>
												<mediatype>audio</mediatype>
												<trackindex>4</trackindex>
												<clipindex>1</clipindex>
												<groupindex>1</groupindex>
											</link>
											<logginginfo>
												<description>sc05 T01</description>
												<scene></scene>
												<shottake></shottake>
												<lognote></lognote>
											</logginginfo>
											<labels>
												<label2>Iris</label2>
											</labels>
										</clipitem>
										<enabled>TRUE</enabled>
										<locked>FALSE</locked>
									</track>
									<track TL.SQTrackShy="0" TL.SQTrackExpandedHeight="25" TL.SQTrackExpanded="0" MZ.TrackTargeted="0">
										<clipitem id="clipitem-192">
											<masterclipid>masterclip-66</masterclipid>
											<name>Clip0003.mov</name>
											<enabled>TRUE</enabled>
											<duration>29652</duration>
											<rate>
												<timebase>25</timebase>
												<ntsc>FALSE</ntsc>
											</rate>
											<start>0</start>
											<end>29389</end>
											<in>263</in>
											<out>29652</out>
											<pproTicksIn>2672248320000</pproTicksIn>
											<pproTicksOut>301283297280000</pproTicksOut>
											<alphatype>none</alphatype>
											<pixelaspectratio>square</pixelaspectratio>
											<anamorphic>FALSE</anamorphic>
											<file id="file-63">
												<name>Clip0003.mov</name>
												<pathurl>file://localhost/Volumes/Bingen/Prosjekter/MYNT194016%20WHATS%20COOKING/Media/Episode%2005%20N-ordet/VB-opptak/22042016/KAM%20C/Prores/Clip0003.mov</pathurl>
												<rate>
													<timebase>25</timebase>
													<ntsc>FALSE</ntsc>
												</rate>
												<duration>29652</duration>
												<timecode>
													<rate>
														<timebase>25</timebase>
														<ntsc>FALSE</ntsc>
													</rate>
													<string>10:49:31:00</string>
													<frame>974275</frame>
													<displayformat>NDF</displayformat>
													<reel>
														<name></name>
													</reel>
												</timecode>
												<media>
													<video>
														<samplecharacteristics>
															<rate>
																<timebase>25</timebase>
																<ntsc>FALSE</ntsc>
															</rate>
															<width>1920</width>
															<height>1080</height>
															<anamorphic>FALSE</anamorphic>
															<pixelaspectratio>square</pixelaspectratio>
															<fielddominance>none</fielddominance>
														</samplecharacteristics>
													</video>
													<audio>
														<samplecharacteristics>
															<depth>16</depth>
															<samplerate>48000</samplerate>
														</samplecharacteristics>
														<channelcount>1</channelcount>
														<layout>stereo</layout>
														<audiochannel>
															<sourcechannel>1</sourcechannel>
															<channellabel>left</channellabel>
														</audiochannel>
													</audio>
													<audio>
														<samplecharacteristics>
															<depth>16</depth>
															<samplerate>48000</samplerate>
														</samplecharacteristics>
														<channelcount>1</channelcount>
														<layout>stereo</layout>
														<audiochannel>
															<sourcechannel>2</sourcechannel>
															<channellabel>right</channellabel>
														</audiochannel>
													</audio>
												</media>
											</file>
											<link>
												<linkclipref>clipitem-192</linkclipref>
												<mediatype>video</mediatype>
												<trackindex>3</trackindex>
												<clipindex>1</clipindex>
											</link>
											<link>
												<linkclipref>clipitem-198</linkclipref>
												<mediatype>audio</mediatype>
												<trackindex>5</trackindex>
												<clipindex>1</clipindex>
												<groupindex>1</groupindex>
											</link>
											<link>
												<linkclipref>clipitem-199</linkclipref>
												<mediatype>audio</mediatype>
												<trackindex>6</trackindex>
												<clipindex>1</clipindex>
												<groupindex>1</groupindex>
											</link>
											<logginginfo>
												<description>sc05 T01</description>
												<scene></scene>
												<shottake></shottake>
												<lognote></lognote>
											</logginginfo>
											<labels>
												<label2>Iris</label2>
											</labels>
										</clipitem>
										<enabled>TRUE</enabled>
										<locked>FALSE</locked>
									</track>
									<track TL.SQTrackShy="0" TL.SQTrackExpandedHeight="25" TL.SQTrackExpanded="0" MZ.TrackTargeted="0">
										<clipitem id="clipitem-193">
											<masterclipid>masterclip-67</masterclipid>
											<name>Clip0005.mov</name>
											<enabled>TRUE</enabled>
											<duration>29952</duration>
											<rate>
												<timebase>25</timebase>
												<ntsc>FALSE</ntsc>
											</rate>
											<start>0</start>
											<end>29467</end>
											<in>485</in>
											<out>29952</out>
											<pproTicksIn>4927910400000</pproTicksIn>
											<pproTicksOut>304331489280000</pproTicksOut>
											<alphatype>none</alphatype>
											<pixelaspectratio>square</pixelaspectratio>
											<anamorphic>FALSE</anamorphic>
											<file id="file-64">
												<name>Clip0005.mov</name>
												<pathurl>file://localhost/Volumes/Bingen/Prosjekter/MYNT194016%20WHATS%20COOKING/Media/Episode%2005%20N-ordet/VB-opptak/22042016/KAM%20D/prores/Clip0005.mov</pathurl>
												<rate>
													<timebase>25</timebase>
													<ntsc>FALSE</ntsc>
												</rate>
												<duration>29952</duration>
												<timecode>
													<rate>
														<timebase>25</timebase>
														<ntsc>FALSE</ntsc>
													</rate>
													<string>10:49:22:07</string>
													<frame>974057</frame>
													<displayformat>NDF</displayformat>
													<reel>
														<name></name>
													</reel>
												</timecode>
												<media>
													<video>
														<samplecharacteristics>
															<rate>
																<timebase>25</timebase>
																<ntsc>FALSE</ntsc>
															</rate>
															<width>1920</width>
															<height>1080</height>
															<anamorphic>FALSE</anamorphic>
															<pixelaspectratio>square</pixelaspectratio>
															<fielddominance>none</fielddominance>
														</samplecharacteristics>
													</video>
													<audio>
														<samplecharacteristics>
															<depth>16</depth>
															<samplerate>48000</samplerate>
														</samplecharacteristics>
														<channelcount>1</channelcount>
														<layout>stereo</layout>
														<audiochannel>
															<sourcechannel>1</sourcechannel>
															<channellabel>left</channellabel>
														</audiochannel>
													</audio>
													<audio>
														<samplecharacteristics>
															<depth>16</depth>
															<samplerate>48000</samplerate>
														</samplecharacteristics>
														<channelcount>1</channelcount>
														<layout>stereo</layout>
														<audiochannel>
															<sourcechannel>2</sourcechannel>
															<channellabel>right</channellabel>
														</audiochannel>
													</audio>
												</media>
											</file>
											<link>
												<linkclipref>clipitem-193</linkclipref>
												<mediatype>video</mediatype>
												<trackindex>4</trackindex>
												<clipindex>1</clipindex>
											</link>
											<link>
												<linkclipref>clipitem-200</linkclipref>
												<mediatype>audio</mediatype>
												<trackindex>7</trackindex>
												<clipindex>1</clipindex>
												<groupindex>1</groupindex>
											</link>
											<link>
												<linkclipref>clipitem-201</linkclipref>
												<mediatype>audio</mediatype>
												<trackindex>8</trackindex>
												<clipindex>1</clipindex>
												<groupindex>1</groupindex>
											</link>
											<logginginfo>
												<description>sc05 T01</description>
												<scene></scene>
												<shottake></shottake>
												<lognote></lognote>
											</logginginfo>
											<labels>
												<label2>Iris</label2>
											</labels>
										</clipitem>
										<enabled>TRUE</enabled>
										<locked>FALSE</locked>
									</track>
								</video>
								<audio>
									<numOutputChannels>8</numOutputChannels>
									<format>
										<samplecharacteristics>
											<depth>16</depth>
											<samplerate>48000</samplerate>
										</samplecharacteristics>
									</format>
									<outputs>
										<group>
											<index>1</index>
											<numchannels>1</numchannels>
											<downmix>0</downmix>
											<channel>
												<index>1</index>
											</channel>
										</group>
										<group>
											<index>2</index>
											<numchannels>1</numchannels>
											<downmix>0</downmix>
											<channel>
												<index>2</index>
											</channel>
										</group>
										<group>
											<index>3</index>
											<numchannels>1</numchannels>
											<downmix>0</downmix>
											<channel>
												<index>3</index>
											</channel>
										</group>
										<group>
											<index>4</index>
											<numchannels>1</numchannels>
											<downmix>0</downmix>
											<channel>
												<index>4</index>
											</channel>
										</group>
										<group>
											<index>5</index>
											<numchannels>1</numchannels>
											<downmix>0</downmix>
											<channel>
												<index>5</index>
											</channel>
										</group>
										<group>
											<index>6</index>
											<numchannels>1</numchannels>
											<downmix>0</downmix>
											<channel>
												<index>6</index>
											</channel>
										</group>
										<group>
											<index>7</index>
											<numchannels>1</numchannels>
											<downmix>0</downmix>
											<channel>
												<index>7</index>
											</channel>
										</group>
										<group>
											<index>8</index>
											<numchannels>1</numchannels>
											<downmix>0</downmix>
											<channel>
												<index>8</index>
											</channel>
										</group>
									</outputs>
									<track TL.SQTrackAudioKeyframeStyle="0" TL.SQTrackShy="0" TL.SQTrackExpandedHeight="25" TL.SQTrackExpanded="0" MZ.TrackTargeted="1" PannerCurrentValue="0" PannerIsInverted="true" PannerStartKeyframe="-91445760000000000,0.,0,0,0,0,0,0" PannerName="Balance" currentExplodedTrackIndex="0" totalExplodedTrackCount="1" premiereTrackType="Stereo">
										<clipitem id="clipitem-194" premiereChannelType="mono">
											<masterclipid>masterclip-64</masterclipid>
											<name>Clip0007.mov</name>
											<enabled>TRUE</enabled>
											<duration>29304</duration>
											<rate>
												<timebase>25</timebase>
												<ntsc>FALSE</ntsc>
											</rate>
											<start>0</start>
											<end>29303</end>
											<in>1</in>
											<out>29304</out>
											<pproTicksIn>10160640000</pproTicksIn>
											<pproTicksOut>297747394560000</pproTicksOut>
											<file id="file-61"/>
											<sourcetrack>
												<mediatype>audio</mediatype>
												<trackindex>1</trackindex>
											</sourcetrack>
											<link>
												<linkclipref>clipitem-190</linkclipref>
												<mediatype>video</mediatype>
												<trackindex>1</trackindex>
												<clipindex>1</clipindex>
											</link>
											<link>
												<linkclipref>clipitem-194</linkclipref>
												<mediatype>audio</mediatype>
												<trackindex>1</trackindex>
												<clipindex>1</clipindex>
												<groupindex>1</groupindex>
											</link>
											<link>
												<linkclipref>clipitem-195</linkclipref>
												<mediatype>audio</mediatype>
												<trackindex>2</trackindex>
												<clipindex>1</clipindex>
												<groupindex>1</groupindex>
											</link>
											<logginginfo>
												<description>sc05 T01</description>
												<scene></scene>
												<shottake></shottake>
												<lognote></lognote>
											</logginginfo>
											<labels>
												<label2>Iris</label2>
											</labels>
										</clipitem>
										<enabled>TRUE</enabled>
										<locked>FALSE</locked>
										<outputchannelindex>1</outputchannelindex>
									</track>
									<track TL.SQTrackAudioKeyframeStyle="0" TL.SQTrackShy="0" TL.SQTrackExpandedHeight="25" TL.SQTrackExpanded="0" MZ.TrackTargeted="1" PannerIsInverted="true" PannerName="Balance" currentExplodedTrackIndex="0" totalExplodedTrackCount="1" premiereTrackType="Stereo">
										<clipitem id="clipitem-195" premiereChannelType="mono">
											<masterclipid>masterclip-64</masterclipid>
											<name>Clip0007.mov</name>
											<enabled>TRUE</enabled>
											<duration>29304</duration>
											<rate>
												<timebase>25</timebase>
												<ntsc>FALSE</ntsc>
											</rate>
											<start>0</start>
											<end>29303</end>
											<in>1</in>
											<out>29304</out>
											<pproTicksIn>10160640000</pproTicksIn>
											<pproTicksOut>297747394560000</pproTicksOut>
											<file id="file-61"/>
											<sourcetrack>
												<mediatype>audio</mediatype>
												<trackindex>2</trackindex>
											</sourcetrack>
											<link>
												<linkclipref>clipitem-190</linkclipref>
												<mediatype>video</mediatype>
												<trackindex>1</trackindex>
												<clipindex>1</clipindex>
											</link>
											<link>
												<linkclipref>clipitem-194</linkclipref>
												<mediatype>audio</mediatype>
												<trackindex>1</trackindex>
												<clipindex>1</clipindex>
												<groupindex>1</groupindex>
											</link>
											<link>
												<linkclipref>clipitem-195</linkclipref>
												<mediatype>audio</mediatype>
												<trackindex>2</trackindex>
												<clipindex>1</clipindex>
												<groupindex>1</groupindex>
											</link>
											<logginginfo>
												<description>sc05 T01</description>
												<scene></scene>
												<shottake></shottake>
												<lognote></lognote>
											</logginginfo>
											<labels>
												<label2>Iris</label2>
											</labels>
										</clipitem>
										<enabled>TRUE</enabled>
										<locked>FALSE</locked>
										<outputchannelindex>2</outputchannelindex>
									</track>
									<track TL.SQTrackAudioKeyframeStyle="0" TL.SQTrackShy="0" TL.SQTrackExpandedHeight="25" TL.SQTrackExpanded="0" MZ.TrackTargeted="1" PannerCurrentValue="0" PannerIsInverted="true" PannerStartKeyframe="-91445760000000000,0.,0,0,0,0,0,0" PannerName="Balance" currentExplodedTrackIndex="0" totalExplodedTrackCount="1" premiereTrackType="Stereo">
										<clipitem id="clipitem-196" premiereChannelType="mono">
											<masterclipid>masterclip-65</masterclipid>
											<name>Clip0004.mov</name>
											<enabled>TRUE</enabled>
											<duration>29652</duration>
											<rate>
												<timebase>25</timebase>
												<ntsc>FALSE</ntsc>
											</rate>
											<start>0</start>
											<end>29254</end>
											<in>398</in>
											<out>29652</out>
											<pproTicksIn>4043934720000</pproTicksIn>
											<pproTicksOut>301283297280000</pproTicksOut>
											<file id="file-62"/>
											<sourcetrack>
												<mediatype>audio</mediatype>
												<trackindex>1</trackindex>
											</sourcetrack>
											<link>
												<linkclipref>clipitem-191</linkclipref>
												<mediatype>video</mediatype>
												<trackindex>2</trackindex>
												<clipindex>1</clipindex>
											</link>
											<link>
												<linkclipref>clipitem-196</linkclipref>
												<mediatype>audio</mediatype>
												<trackindex>3</trackindex>
												<clipindex>1</clipindex>
												<groupindex>1</groupindex>
											</link>
											<link>
												<linkclipref>clipitem-197</linkclipref>
												<mediatype>audio</mediatype>
												<trackindex>4</trackindex>
												<clipindex>1</clipindex>
												<groupindex>1</groupindex>
											</link>
											<logginginfo>
												<description>sc05 T01</description>
												<scene></scene>
												<shottake></shottake>
												<lognote></lognote>
											</logginginfo>
											<labels>
												<label2>Iris</label2>
											</labels>
										</clipitem>
										<enabled>TRUE</enabled>
										<locked>FALSE</locked>
										<outputchannelindex>3</outputchannelindex>
									</track>
									<track TL.SQTrackAudioKeyframeStyle="0" TL.SQTrackShy="0" TL.SQTrackExpandedHeight="25" TL.SQTrackExpanded="0" MZ.TrackTargeted="1" PannerIsInverted="true" PannerName="Balance" currentExplodedTrackIndex="0" totalExplodedTrackCount="1" premiereTrackType="Stereo">
										<clipitem id="clipitem-197" premiereChannelType="mono">
											<masterclipid>masterclip-65</masterclipid>
											<name>Clip0004.mov</name>
											<enabled>TRUE</enabled>
											<duration>29652</duration>
											<rate>
												<timebase>25</timebase>
												<ntsc>FALSE</ntsc>
											</rate>
											<start>0</start>
											<end>29254</end>
											<in>398</in>
											<out>29652</out>
											<pproTicksIn>4043934720000</pproTicksIn>
											<pproTicksOut>301283297280000</pproTicksOut>
											<file id="file-62"/>
											<sourcetrack>
												<mediatype>audio</mediatype>
												<trackindex>2</trackindex>
											</sourcetrack>
											<link>
												<linkclipref>clipitem-191</linkclipref>
												<mediatype>video</mediatype>
												<trackindex>2</trackindex>
												<clipindex>1</clipindex>
											</link>
											<link>
												<linkclipref>clipitem-196</linkclipref>
												<mediatype>audio</mediatype>
												<trackindex>3</trackindex>
												<clipindex>1</clipindex>
												<groupindex>1</groupindex>
											</link>
											<link>
												<linkclipref>clipitem-197</linkclipref>
												<mediatype>audio</mediatype>
												<trackindex>4</trackindex>
												<clipindex>1</clipindex>
												<groupindex>1</groupindex>
											</link>
											<logginginfo>
												<description>sc05 T01</description>
												<scene></scene>
												<shottake></shottake>
												<lognote></lognote>
											</logginginfo>
											<labels>
												<label2>Iris</label2>
											</labels>
										</clipitem>
										<enabled>TRUE</enabled>
										<locked>FALSE</locked>
										<outputchannelindex>4</outputchannelindex>
									</track>
									<track TL.SQTrackAudioKeyframeStyle="0" TL.SQTrackShy="0" TL.SQTrackExpandedHeight="25" TL.SQTrackExpanded="0" MZ.TrackTargeted="0" PannerCurrentValue="0" PannerIsInverted="true" PannerStartKeyframe="-91445760000000000,0.,0,0,0,0,0,0" PannerName="Balance" currentExplodedTrackIndex="0" totalExplodedTrackCount="1" premiereTrackType="Stereo">
										<clipitem id="clipitem-198" premiereChannelType="mono">
											<masterclipid>masterclip-66</masterclipid>
											<name>Clip0003.mov</name>
											<enabled>TRUE</enabled>
											<duration>29652</duration>
											<rate>
												<timebase>25</timebase>
												<ntsc>FALSE</ntsc>
											</rate>
											<start>0</start>
											<end>29389</end>
											<in>263</in>
											<out>29652</out>
											<pproTicksIn>2672248320000</pproTicksIn>
											<pproTicksOut>301283297280000</pproTicksOut>
											<file id="file-63"/>
											<sourcetrack>
												<mediatype>audio</mediatype>
												<trackindex>1</trackindex>
											</sourcetrack>
											<link>
												<linkclipref>clipitem-192</linkclipref>
												<mediatype>video</mediatype>
												<trackindex>3</trackindex>
												<clipindex>1</clipindex>
											</link>
											<link>
												<linkclipref>clipitem-198</linkclipref>
												<mediatype>audio</mediatype>
												<trackindex>5</trackindex>
												<clipindex>1</clipindex>
												<groupindex>1</groupindex>
											</link>
											<link>
												<linkclipref>clipitem-199</linkclipref>
												<mediatype>audio</mediatype>
												<trackindex>6</trackindex>
												<clipindex>1</clipindex>
												<groupindex>1</groupindex>
											</link>
											<logginginfo>
												<description>sc05 T01</description>
												<scene></scene>
												<shottake></shottake>
												<lognote></lognote>
											</logginginfo>
											<labels>
												<label2>Iris</label2>
											</labels>
										</clipitem>
										<enabled>FALSE</enabled>
										<locked>FALSE</locked>
										<outputchannelindex>5</outputchannelindex>
									</track>
									<track TL.SQTrackAudioKeyframeStyle="0" TL.SQTrackShy="0" TL.SQTrackExpandedHeight="25" TL.SQTrackExpanded="0" MZ.TrackTargeted="0" PannerIsInverted="true" PannerName="Balance" currentExplodedTrackIndex="0" totalExplodedTrackCount="1" premiereTrackType="Stereo">
										<clipitem id="clipitem-199" premiereChannelType="mono">
											<masterclipid>masterclip-66</masterclipid>
											<name>Clip0003.mov</name>
											<enabled>TRUE</enabled>
											<duration>29652</duration>
											<rate>
												<timebase>25</timebase>
												<ntsc>FALSE</ntsc>
											</rate>
											<start>0</start>
											<end>29389</end>
											<in>263</in>
											<out>29652</out>
											<pproTicksIn>2672248320000</pproTicksIn>
											<pproTicksOut>301283297280000</pproTicksOut>
											<file id="file-63"/>
											<sourcetrack>
												<mediatype>audio</mediatype>
												<trackindex>2</trackindex>
											</sourcetrack>
											<link>
												<linkclipref>clipitem-192</linkclipref>
												<mediatype>video</mediatype>
												<trackindex>3</trackindex>
												<clipindex>1</clipindex>
											</link>
											<link>
												<linkclipref>clipitem-198</linkclipref>
												<mediatype>audio</mediatype>
												<trackindex>5</trackindex>
												<clipindex>1</clipindex>
												<groupindex>1</groupindex>
											</link>
											<link>
												<linkclipref>clipitem-199</linkclipref>
												<mediatype>audio</mediatype>
												<trackindex>6</trackindex>
												<clipindex>1</clipindex>
												<groupindex>1</groupindex>
											</link>
											<logginginfo>
												<description>sc05 T01</description>
												<scene></scene>
												<shottake></shottake>
												<lognote></lognote>
											</logginginfo>
											<labels>
												<label2>Iris</label2>
											</labels>
										</clipitem>
										<enabled>FALSE</enabled>
										<locked>FALSE</locked>
										<outputchannelindex>6</outputchannelindex>
									</track>
									<track TL.SQTrackAudioKeyframeStyle="0" TL.SQTrackShy="0" TL.SQTrackExpandedHeight="25" TL.SQTrackExpanded="0" MZ.TrackTargeted="0" PannerCurrentValue="0" PannerIsInverted="true" PannerStartKeyframe="-91445760000000000,0.,0,0,0,0,0,0" PannerName="Balance" currentExplodedTrackIndex="0" totalExplodedTrackCount="1" premiereTrackType="Stereo">
										<clipitem id="clipitem-200" premiereChannelType="mono">
											<masterclipid>masterclip-67</masterclipid>
											<name>Clip0005.mov</name>
											<enabled>TRUE</enabled>
											<duration>29952</duration>
											<rate>
												<timebase>25</timebase>
												<ntsc>FALSE</ntsc>
											</rate>
											<start>0</start>
											<end>29467</end>
											<in>485</in>
											<out>29952</out>
											<pproTicksIn>4927910400000</pproTicksIn>
											<pproTicksOut>304331489280000</pproTicksOut>
											<file id="file-64"/>
											<sourcetrack>
												<mediatype>audio</mediatype>
												<trackindex>1</trackindex>
											</sourcetrack>
											<link>
												<linkclipref>clipitem-193</linkclipref>
												<mediatype>video</mediatype>
												<trackindex>4</trackindex>
												<clipindex>1</clipindex>
											</link>
											<link>
												<linkclipref>clipitem-200</linkclipref>
												<mediatype>audio</mediatype>
												<trackindex>7</trackindex>
												<clipindex>1</clipindex>
												<groupindex>1</groupindex>
											</link>
											<link>
												<linkclipref>clipitem-201</linkclipref>
												<mediatype>audio</mediatype>
												<trackindex>8</trackindex>
												<clipindex>1</clipindex>
												<groupindex>1</groupindex>
											</link>
											<logginginfo>
												<description>sc05 T01</description>
												<scene></scene>
												<shottake></shottake>
												<lognote></lognote>
											</logginginfo>
											<labels>
												<label2>Iris</label2>
											</labels>
										</clipitem>
										<enabled>FALSE</enabled>
										<locked>FALSE</locked>
										<outputchannelindex>7</outputchannelindex>
									</track>
									<track TL.SQTrackAudioKeyframeStyle="0" TL.SQTrackShy="0" TL.SQTrackExpandedHeight="25" TL.SQTrackExpanded="0" MZ.TrackTargeted="0" PannerIsInverted="true" PannerName="Balance" currentExplodedTrackIndex="0" totalExplodedTrackCount="1" premiereTrackType="Stereo">
										<clipitem id="clipitem-201" premiereChannelType="mono">
											<masterclipid>masterclip-67</masterclipid>
											<name>Clip0005.mov</name>
											<enabled>TRUE</enabled>
											<duration>29952</duration>
											<rate>
												<timebase>25</timebase>
												<ntsc>FALSE</ntsc>
											</rate>
											<start>0</start>
											<end>29467</end>
											<in>485</in>
											<out>29952</out>
											<pproTicksIn>4927910400000</pproTicksIn>
											<pproTicksOut>304331489280000</pproTicksOut>
											<file id="file-64"/>
											<sourcetrack>
												<mediatype>audio</mediatype>
												<trackindex>2</trackindex>
											</sourcetrack>
											<link>
												<linkclipref>clipitem-193</linkclipref>
												<mediatype>video</mediatype>
												<trackindex>4</trackindex>
												<clipindex>1</clipindex>
											</link>
											<link>
												<linkclipref>clipitem-200</linkclipref>
												<mediatype>audio</mediatype>
												<trackindex>7</trackindex>
												<clipindex>1</clipindex>
												<groupindex>1</groupindex>
											</link>
											<link>
												<linkclipref>clipitem-201</linkclipref>
												<mediatype>audio</mediatype>
												<trackindex>8</trackindex>
												<clipindex>1</clipindex>
												<groupindex>1</groupindex>
											</link>
											<logginginfo>
												<description>sc05 T01</description>
												<scene></scene>
												<shottake></shottake>
												<lognote></lognote>
											</logginginfo>
											<labels>
												<label2>Iris</label2>
											</labels>
										</clipitem>
										<enabled>FALSE</enabled>
										<locked>FALSE</locked>
										<outputchannelindex>8</outputchannelindex>
									</track>
								</audio>
							</media>
							<timecode>
								<rate>
									<timebase>25</timebase>
									<ntsc>FALSE</ntsc>
								</rate>
								<string>10:49:42:08</string>
								<frame>974558</frame>
								<displayformat>NDF</displayformat>
							</timecode>
						</sequence>
						<link>
							<linkclipref>clipitem-189</linkclipref>
							<mediatype>audio</mediatype>
							<trackindex>9</trackindex>
							<clipindex>1</clipindex>
							<groupindex>1</groupindex>
						</link>
						<link>
							<linkclipref>clipitem-283</linkclipref>
							<mediatype>audio</mediatype>
							<trackindex>11</trackindex>
							<clipindex>1</clipindex>
							<groupindex>1</groupindex>
						</link>
						<link>
							<linkclipref>clipitem-343</linkclipref>
							<mediatype>audio</mediatype>
							<trackindex>13</trackindex>
							<clipindex>1</clipindex>
							<groupindex>1</groupindex>
						</link>
						<link>
							<linkclipref>clipitem-427</linkclipref>
							<mediatype>audio</mediatype>
							<trackindex>15</trackindex>
							<clipindex>1</clipindex>
							<groupindex>1</groupindex>
						</link>
						<labels>
							<label2>Forest</label2>
						</labels>
					</clipitem>
					<clipitem id="clipitem-202" premiereChannelType="stereo">
						<masterclipid>masterclip-68</masterclipid>
						<name>165196__swimignorantfire__skull-crack-on-porcelain-tub.wav</name>
						<enabled>TRUE</enabled>
						<duration>56</duration>
						<rate>
							<timebase>25</timebase>
							<ntsc>FALSE</ntsc>
						</rate>
						<start>303</start>
						<end>318</end>
						<in>4</in>
						<out>19</out>
						<pproTicksIn>40642560000</pproTicksIn>
						<pproTicksOut>193052160000</pproTicksOut>
						<file id="file-65">
							<name>165196__swimignorantfire__skull-crack-on-porcelain-tub.wav</name>
							<pathurl>file://localhost/Volumes/Bingen/Prosjekter/MYNT194016%20WHATS%20COOKING/Lydeffekter/Jan%20Lydeffekter/165196__swimignorantfire__skull-crack-on-porcelain-tub.wav</pathurl>
							<rate>
								<timebase>30</timebase>
								<ntsc>TRUE</ntsc>
							</rate>
							<duration>67</duration>
							<timecode>
								<rate>
									<timebase>30</timebase>
									<ntsc>TRUE</ntsc>
								</rate>
								<string>00;06;37;26</string>
								<frame>11924</frame>
								<displayformat>DF</displayformat>
								<reel>
									<name></name>
								</reel>
							</timecode>
							<media>
								<audio>
									<samplecharacteristics>
										<depth>16</depth>
										<samplerate>48000</samplerate>
									</samplecharacteristics>
									<channelcount>2</channelcount>
								</audio>
							</media>
						</file>
						<sourcetrack>
							<mediatype>audio</mediatype>
							<trackindex>1</trackindex>
						</sourcetrack>
							<filter>
								<effect>
									<name>Audio Levels</name>
									<effectid>audiolevels</effectid>
									<effectcategory>audiolevels</effectcategory>
									<effecttype>audiolevels</effecttype>
									<mediatype>audio</mediatype>
									<parameter authoringApp="PremierePro">
										<parameterid>level</parameterid>
										<name>Level</name>
										<valuemin>0</valuemin>
										<valuemax>3.98109</valuemax>
										<value>0.0934747</value>
									</parameter>
								</effect>
							</filter>
						<link>
							<linkclipref>clipitem-202</linkclipref>
							<mediatype>audio</mediatype>
							<trackindex>9</trackindex>
							<clipindex>2</clipindex>
							<groupindex>1</groupindex>
						</link>
						<link>
							<linkclipref>clipitem-275</linkclipref>
							<mediatype>audio</mediatype>
							<trackindex>10</trackindex>
							<clipindex>1</clipindex>
							<groupindex>1</groupindex>
						</link>
						<logginginfo>
							<description></description>
							<scene></scene>
							<shottake></shottake>
							<lognote></lognote>
						</logginginfo>
						<labels>
							<label2>Caribbean</label2>
						</labels>
					</clipitem>
					<clipitem id="clipitem-203" premiereChannelType="stereo">
						<masterclipid>masterclip-69</masterclipid>
						<name>MSTR_128_36_Smooth_Out_Harwood_Martin_Kessler_Kirby_611749.wav</name>
						<enabled>TRUE</enabled>
						<duration>2470</duration>
						<rate>
							<timebase>25</timebase>
							<ntsc>FALSE</ntsc>
						</rate>
						<start>552</start>
						<end>-1</end>
						<in>1417</in>
						<out>1489</out>
						<pproTicksIn>14397626880000</pproTicksIn>
						<pproTicksOut>15129192960000</pproTicksOut>
						<file id="file-66">
							<name>MSTR_128_36_Smooth_Out_Harwood_Martin_Kessler_Kirby_611749.wav</name>
							<pathurl>file://localhost/Volumes/Bingen/Prosjekter/MYNT194016%20WHATS%20COOKING/Musikk/Jan/Universal/MSTR_128_36_Smooth_Out_Harwood_Martin_Kessler_Kirby_611749.wav</pathurl>
							<rate>
								<timebase>30</timebase>
								<ntsc>TRUE</ntsc>
							</rate>
							<duration>2961</duration>
							<timecode>
								<rate>
									<timebase>30</timebase>
									<ntsc>TRUE</ntsc>
								</rate>
								<string>00;00;00;00</string>
								<frame>0</frame>
								<displayformat>DF</displayformat>
								<reel>
									<name></name>
								</reel>
							</timecode>
							<media>
								<audio>
									<samplecharacteristics>
										<depth>16</depth>
										<samplerate>44100</samplerate>
									</samplecharacteristics>
									<channelcount>2</channelcount>
								</audio>
							</media>
						</file>
						<sourcetrack>
							<mediatype>audio</mediatype>
							<trackindex>1</trackindex>
						</sourcetrack>
							<filter>
								<effect>
									<name>Gain</name>
									<effectid>{61756678, 4761696e, 4b657947}</effectid>
									<effecttype>filter</effecttype>
									<mediatype>audio</mediatype>
									<parameter authoringApp="PremierePro">
										<parameterid>Gain(dB)</parameterid>
										<name>Gain(dB)</name>
										<valuemin>-96</valuemin>
										<valuemax>96</valuemax>
										<value>-20</value>
									</parameter>
								</effect>
							</filter>
						<link>
							<linkclipref>clipitem-203</linkclipref>
							<mediatype>audio</mediatype>
							<trackindex>9</trackindex>
							<clipindex>3</clipindex>
							<groupindex>1</groupindex>
						</link>
						<link>
							<linkclipref>clipitem-276</linkclipref>
							<mediatype>audio</mediatype>
							<trackindex>10</trackindex>
							<clipindex>2</clipindex>
							<groupindex>1</groupindex>
						</link>
						<logginginfo>
							<description></description>
							<scene></scene>
							<shottake></shottake>
							<lognote></lognote>
						</logginginfo>
						<labels>
							<label2>Cerulean</label2>
						</labels>
					</clipitem>
					<transitionitem>
						<start>611</start>
						<end>624</end>
						<alignment>end-black</alignment>
						<cutPointTicks>132088320000</cutPointTicks>
						<rate>
							<timebase>25</timebase>
							<ntsc>FALSE</ntsc>
						</rate>
						<effect>
							<name>Cross Fade (+3dB)</name>
							<effectid>KGAudioTransCrossFade3dB</effectid>
							<effecttype>transition</effecttype>
							<mediatype>audio</mediatype>
							<wipecode>0</wipecode>
							<wipeaccuracy>100</wipeaccuracy>
							<startratio>0</startratio>
							<endratio>1</endratio>
							<reverse>FALSE</reverse>
						</effect>
					</transitionitem>
					<clipitem id="clipitem-204" premiereChannelType="stereo">
						<masterclipid>masterclip-69</masterclipid>
						<name>MSTR_128_36_Smooth_Out_Harwood_Martin_Kessler_Kirby_611749.wav</name>
						<enabled>TRUE</enabled>
						<duration>2470</duration>
						<rate>
							<timebase>25</timebase>
							<ntsc>FALSE</ntsc>
						</rate>
						<start>763</start>
						<end>810</end>
						<in>0</in>
						<out>47</out>
						<pproTicksIn>0</pproTicksIn>
						<pproTicksOut>477550080000</pproTicksOut>
						<file id="file-66"/>
						<sourcetrack>
							<mediatype>audio</mediatype>
							<trackindex>1</trackindex>
						</sourcetrack>
							<filter>
								<effect>
									<name>Gain</name>
									<effectid>{61756678, 4761696e, 4b657947}</effectid>
									<effecttype>filter</effecttype>
									<mediatype>audio</mediatype>
									<parameter authoringApp="PremierePro">
										<parameterid>Gain(dB)</parameterid>
										<name>Gain(dB)</name>
										<valuemin>-96</valuemin>
										<valuemax>96</valuemax>
										<value>-15</value>
									</parameter>
								</effect>
							</filter>
						<link>
							<linkclipref>clipitem-204</linkclipref>
							<mediatype>audio</mediatype>
							<trackindex>9</trackindex>
							<clipindex>5</clipindex>
							<groupindex>1</groupindex>
						</link>
						<link>
							<linkclipref>clipitem-277</linkclipref>
							<mediatype>audio</mediatype>
							<trackindex>10</trackindex>
							<clipindex>4</clipindex>
							<groupindex>1</groupindex>
						</link>
						<logginginfo>
							<description></description>
							<scene></scene>
							<shottake></shottake>
							<lognote></lognote>
						</logginginfo>
						<labels>
							<label2>Rose</label2>
						</labels>
					</clipitem>
					<clipitem id="clipitem-205" premiereChannelType="stereo">
						<masterclipid>masterclip-69</masterclipid>
						<name>MSTR_128_36_Smooth_Out_Harwood_Martin_Kessler_Kirby_611749.wav</name>
						<enabled>TRUE</enabled>
						<duration>2470</duration>
						<rate>
							<timebase>25</timebase>
							<ntsc>FALSE</ntsc>
						</rate>
						<start>810</start>
						<end>956</end>
						<in>0</in>
						<out>146</out>
						<pproTicksIn>0</pproTicksIn>
						<pproTicksOut>1483453440000</pproTicksOut>
						<file id="file-66"/>
						<sourcetrack>
							<mediatype>audio</mediatype>
							<trackindex>1</trackindex>
						</sourcetrack>
							<filter>
								<effect>
									<name>Gain</name>
									<effectid>{61756678, 4761696e, 4b657947}</effectid>
									<effecttype>filter</effecttype>
									<mediatype>audio</mediatype>
									<parameter authoringApp="PremierePro">
										<parameterid>Gain(dB)</parameterid>
										<name>Gain(dB)</name>
										<valuemin>-96</valuemin>
										<valuemax>96</valuemax>
										<value>-15</value>
									</parameter>
								</effect>
							</filter>
						<link>
							<linkclipref>clipitem-205</linkclipref>
							<mediatype>audio</mediatype>
							<trackindex>9</trackindex>
							<clipindex>6</clipindex>
							<groupindex>1</groupindex>
						</link>
						<link>
							<linkclipref>clipitem-278</linkclipref>
							<mediatype>audio</mediatype>
							<trackindex>10</trackindex>
							<clipindex>5</clipindex>
							<groupindex>1</groupindex>
						</link>
						<logginginfo>
							<description></description>
							<scene></scene>
							<shottake></shottake>
							<lognote></lognote>
						</logginginfo>
						<labels>
							<label2>Rose</label2>
						</labels>
					</clipitem>
					<clipitem id="clipitem-206" premiereChannelType="stereo">
						<masterclipid>masterclip-70</masterclipid>
						<name>325328__saskia-university-project__knacken_01.wav</name>
						<enabled>TRUE</enabled>
						<duration>92</duration>
						<rate>
							<timebase>25</timebase>
							<ntsc>FALSE</ntsc>
						</rate>
						<start>7466</start>
						<end>7479</end>
						<in>50</in>
						<out>63</out>
						<pproTicksIn>508032000000</pproTicksIn>
						<pproTicksOut>640120320000</pproTicksOut>
						<file id="file-67">
							<name>325328__saskia-university-project__knacken_01.wav</name>
							<pathurl>file://localhost/Volumes/Bingen/Prosjekter/MYNT194016%20WHATS%20COOKING/Lydeffekter/Jan%20Lydeffekter/325328__saskia-university-project__knacken_01.wav</pathurl>
							<rate>
								<timebase>30</timebase>
								<ntsc>TRUE</ntsc>
							</rate>
							<duration>110</duration>
							<timecode>
								<rate>
									<timebase>30</timebase>
									<ntsc>TRUE</ntsc>
								</rate>
								<string>16;39;57;22</string>
								<frame>1798132</frame>
								<displayformat>DF</displayformat>
								<reel>
									<name></name>
								</reel>
							</timecode>
							<media>
								<audio>
									<samplecharacteristics>
										<depth>16</depth>
										<samplerate>48000</samplerate>
									</samplecharacteristics>
									<channelcount>2</channelcount>
								</audio>
							</media>
						</file>
						<sourcetrack>
							<mediatype>audio</mediatype>
							<trackindex>1</trackindex>
						</sourcetrack>
							<filter>
								<effect>
									<name>Gain</name>
									<effectid>{61756678, 4761696e, 4b657947}</effectid>
									<effecttype>filter</effecttype>
									<mediatype>audio</mediatype>
									<parameter authoringApp="PremierePro">
										<parameterid>Gain(dB)</parameterid>
										<name>Gain(dB)</name>
										<valuemin>-96</valuemin>
										<valuemax>96</valuemax>
										<value>-8</value>
									</parameter>
								</effect>
							</filter>
						<link>
							<linkclipref>clipitem-206</linkclipref>
							<mediatype>audio</mediatype>
							<trackindex>9</trackindex>
							<clipindex>7</clipindex>
							<groupindex>1</groupindex>
						</link>
						<link>
							<linkclipref>clipitem-279</linkclipref>
							<mediatype>audio</mediatype>
							<trackindex>10</trackindex>
							<clipindex>6</clipindex>
							<groupindex>1</groupindex>
						</link>
						<logginginfo>
							<description></description>
							<scene></scene>
							<shottake></shottake>
							<lognote></lognote>
						</logginginfo>
						<labels>
							<label2>Caribbean</label2>
						</labels>
					</clipitem>
					<clipitem id="clipitem-207" premiereChannelType="mono">
						<masterclipid>masterclip-71</masterclipid>
						<name>vb-krenk-Multicam-XX 02</name>
						<enabled>TRUE</enabled>
						<duration>47419</duration>
						<rate>
							<timebase>25</timebase>
							<ntsc>FALSE</ntsc>
						</rate>
						<start>8945</start>
						<end>8967</end>
						<in>5936</in>
						<out>5958</out>
						<pproTicksIn>60313559040000</pproTicksIn>
						<pproTicksOut>60537093120000</pproTicksOut>
						<sequence id="sequence-6" TL.SQAudioVisibleBase="0" TL.SQVideoVisibleBase="0" TL.SQVisibleBaseTime="0" TL.SQAVDividerPosition="0.5" TL.SQHideShyTracks="0" TL.SQHeaderWidth="184" Monitor.ProgramZoomOut="161665943040000" Monitor.ProgramZoomIn="0" TL.SQTimePerPixel="0.76797515527950311" AM.TrackVScrollPosition="0" AM.TrackScrollPosition="0" MZ.EditLine="0" MZ.Sequence.PreviewFrameSizeHeight="1080" MZ.Sequence.PreviewFrameSizeWidth="1920" MZ.Sequence.AudioTimeDisplayFormat="200" MZ.Sequence.PreviewRenderingClassID="1061109567" MZ.Sequence.PreviewRenderingPresetCodec="1634755438" MZ.Sequence.PreviewRenderingPresetPath="EncoderPresets/SequencePreview/e43ae329-eea5-4a04-b964-b72cf263ee81/Blackmagic QuickTime Movie.epr" MZ.Sequence.PreviewUseMaxRenderQuality="false" MZ.Sequence.PreviewUseMaxBitDepth="false" MZ.Sequence.EditingModeGUID="e43ae329-eea5-4a04-b964-b72cf263ee81" MZ.Sequence.VideoTimeDisplayFormat="101" MZ.WorkOutPoint="161665943040000" MZ.WorkInPoint="0" MZ.ZeroPoint="463457272320000">
							<duration>15911</duration>
							<rate>
								<timebase>25</timebase>
								<ntsc>FALSE</ntsc>
							</rate>
							<name>vb-krenk-Multicam-XX 02</name>
							<media>
								<video>
									<format>
										<samplecharacteristics>
											<rate>
												<timebase>25</timebase>
												<ntsc>FALSE</ntsc>
											</rate>
											<codec>
												<name>Apple ProRes 422</name>
												<appspecificdata>
													<appname>Final Cut Pro</appname>
													<appmanufacturer>Apple Inc.</appmanufacturer>
													<appversion>7.0</appversion>
													<data>
														<qtcodec>
															<codecname>Apple ProRes 422</codecname>
															<codectypename>Apple ProRes 422</codectypename>
															<codectypecode>apcn</codectypecode>
															<codecvendorcode>appl</codecvendorcode>
															<spatialquality>1024</spatialquality>
															<temporalquality>0</temporalquality>
															<keyframerate>0</keyframerate>
															<datarate>0</datarate>
														</qtcodec>
													</data>
												</appspecificdata>
											</codec>
											<width>1920</width>
											<height>1080</height>
											<anamorphic>FALSE</anamorphic>
											<pixelaspectratio>square</pixelaspectratio>
											<fielddominance>none</fielddominance>
											<colordepth>24</colordepth>
										</samplecharacteristics>
									</format>
									<track TL.SQTrackShy="0" TL.SQTrackExpandedHeight="50" TL.SQTrackExpanded="1" MZ.TrackTargeted="1">
										<clipitem id="clipitem-208">
											<masterclipid>masterclip-72</masterclipid>
											<name>gopro stitched1.mov</name>
											<enabled>TRUE</enabled>
											<duration>38925</duration>
											<rate>
												<timebase>25</timebase>
												<ntsc>FALSE</ntsc>
											</rate>
											<start>0</start>
											<end>15911</end>
											<in>9283</in>
											<out>25194</out>
											<pproTicksIn>94321221120000</pproTicksIn>
											<pproTicksOut>255987164160000</pproTicksOut>
											<alphatype>none</alphatype>
											<pixelaspectratio>square</pixelaspectratio>
											<anamorphic>FALSE</anamorphic>
											<file id="file-68">
												<name>gopro stitched1.mov</name>
												<pathurl>file://localhost/Volumes/Bingen/Prosjekter/MYNT194016%20WHATS%20COOKING/Media/Episode%2005%20N-ordet/VB-opptak/13042016/GOPRO%20/ProRes422%20stitched/gopro%20stitched1.mov</pathurl>
												<rate>
													<timebase>25</timebase>
													<ntsc>FALSE</ntsc>
												</rate>
												<duration>38925</duration>
												<timecode>
													<rate>
														<timebase>25</timebase>
														<ntsc>FALSE</ntsc>
													</rate>
													<string>00:00:00:00</string>
													<frame>0</frame>
													<displayformat>NDF</displayformat>
													<reel>
														<name></name>
													</reel>
												</timecode>
												<media>
													<video>
														<samplecharacteristics>
															<rate>
																<timebase>25</timebase>
																<ntsc>FALSE</ntsc>
															</rate>
															<width>1920</width>
															<height>1080</height>
															<anamorphic>FALSE</anamorphic>
															<pixelaspectratio>square</pixelaspectratio>
															<fielddominance>none</fielddominance>
														</samplecharacteristics>
													</video>
													<audio>
														<samplecharacteristics>
															<depth>16</depth>
															<samplerate>48000</samplerate>
														</samplecharacteristics>
														<channelcount>1</channelcount>
														<layout>stereo</layout>
														<audiochannel>
															<sourcechannel>1</sourcechannel>
															<channellabel>left</channellabel>
														</audiochannel>
													</audio>
													<audio>
														<samplecharacteristics>
															<depth>16</depth>
															<samplerate>48000</samplerate>
														</samplecharacteristics>
														<channelcount>1</channelcount>
														<layout>stereo</layout>
														<audiochannel>
															<sourcechannel>2</sourcechannel>
															<channellabel>right</channellabel>
														</audiochannel>
													</audio>
												</media>
											</file>
											<link>
												<linkclipref>clipitem-208</linkclipref>
												<mediatype>video</mediatype>
												<trackindex>1</trackindex>
												<clipindex>1</clipindex>
											</link>
											<link>
												<linkclipref>clipitem-211</linkclipref>
												<mediatype>audio</mediatype>
												<trackindex>1</trackindex>
												<clipindex>1</clipindex>
												<groupindex>1</groupindex>
											</link>
											<link>
												<linkclipref>clipitem-212</linkclipref>
												<mediatype>audio</mediatype>
												<trackindex>2</trackindex>
												<clipindex>1</clipindex>
												<groupindex>1</groupindex>
											</link>
											<logginginfo>
												<description></description>
												<scene></scene>
												<shottake></shottake>
												<lognote></lognote>
											</logginginfo>
											<labels>
												<label2>Iris</label2>
											</labels>
										</clipitem>
										<enabled>TRUE</enabled>
										<locked>FALSE</locked>
									</track>
									<track TL.SQTrackShy="0" TL.SQTrackExpandedHeight="25" TL.SQTrackExpanded="0" MZ.TrackTargeted="1">
										<clipitem id="clipitem-209">
											<masterclipid>masterclip-73</masterclipid>
											<name>Clip0001.mov</name>
											<enabled>TRUE</enabled>
											<duration>15912</duration>
											<rate>
												<timebase>25</timebase>
												<ntsc>FALSE</ntsc>
											</rate>
											<start>0</start>
											<end>15911</end>
											<in>1</in>
											<out>15912</out>
											<pproTicksIn>10160640000</pproTicksIn>
											<pproTicksOut>161676103680000</pproTicksOut>
											<alphatype>none</alphatype>
											<pixelaspectratio>square</pixelaspectratio>
											<anamorphic>FALSE</anamorphic>
											<file id="file-69">
												<name>Clip0001.mov</name>
												<pathurl>file://localhost/Volumes/Bingen/Prosjekter/MYNT194016%20WHATS%20COOKING/Media/Episode%2005%20N-ordet/VB-opptak/13042016/KAM%20A/ProRes/Clip0001.mov</pathurl>
												<rate>
													<timebase>25</timebase>
													<ntsc>FALSE</ntsc>
												</rate>
												<duration>15912</duration>
												<timecode>
													<rate>
														<timebase>25</timebase>
														<ntsc>FALSE</ntsc>
													</rate>
													<string>00:30:24:12</string>
													<frame>45612</frame>
													<displayformat>NDF</displayformat>
													<reel>
														<name></name>
													</reel>
												</timecode>
												<media>
													<video>
														<samplecharacteristics>
															<rate>
																<timebase>25</timebase>
																<ntsc>FALSE</ntsc>
															</rate>
															<width>1920</width>
															<height>1080</height>
															<anamorphic>FALSE</anamorphic>
															<pixelaspectratio>square</pixelaspectratio>
															<fielddominance>none</fielddominance>
														</samplecharacteristics>
													</video>
													<audio>
														<samplecharacteristics>
															<depth>16</depth>
															<samplerate>48000</samplerate>
														</samplecharacteristics>
														<channelcount>1</channelcount>
														<audiochannel>
															<sourcechannel>1</sourcechannel>
														</audiochannel>
													</audio>
													<audio>
														<samplecharacteristics>
															<depth>16</depth>
															<samplerate>48000</samplerate>
														</samplecharacteristics>
														<channelcount>1</channelcount>
														<audiochannel>
															<sourcechannel>2</sourcechannel>
														</audiochannel>
													</audio>
												</media>
											</file>
											<link>
												<linkclipref>clipitem-209</linkclipref>
												<mediatype>video</mediatype>
												<trackindex>2</trackindex>
												<clipindex>1</clipindex>
											</link>
											<link>
												<linkclipref>clipitem-213</linkclipref>
												<mediatype>audio</mediatype>
												<trackindex>3</trackindex>
												<clipindex>1</clipindex>
												<groupindex>1</groupindex>
											</link>
											<link>
												<linkclipref>clipitem-214</linkclipref>
												<mediatype>audio</mediatype>
												<trackindex>4</trackindex>
												<clipindex>1</clipindex>
												<groupindex>1</groupindex>
											</link>
											<logginginfo>
												<description></description>
												<scene></scene>
												<shottake></shottake>
												<lognote></lognote>
											</logginginfo>
											<labels>
												<label2>Iris</label2>
											</labels>
										</clipitem>
										<enabled>TRUE</enabled>
										<locked>FALSE</locked>
									</track>
									<track TL.SQTrackShy="0" TL.SQTrackExpandedHeight="25" TL.SQTrackExpanded="0" MZ.TrackTargeted="1">
										<clipitem id="clipitem-210">
											<masterclipid>masterclip-74</masterclipid>
											<name>Clip0002.mov</name>
											<enabled>TRUE</enabled>
											<duration>15648</duration>
											<rate>
												<timebase>25</timebase>
												<ntsc>FALSE</ntsc>
											</rate>
											<start>159</start>
											<end>15807</end>
											<in>0</in>
											<out>15648</out>
											<pproTicksIn>0</pproTicksIn>
											<pproTicksOut>158993694720000</pproTicksOut>
											<alphatype>none</alphatype>
											<pixelaspectratio>square</pixelaspectratio>
											<anamorphic>FALSE</anamorphic>
											<file id="file-70">
												<name>Clip0002.mov</name>
												<pathurl>file://localhost/Volumes/Bingen/Prosjekter/MYNT194016%20WHATS%20COOKING/Media/Episode%2005%20N-ordet/VB-opptak/13042016/KAM%20B/ProRes/Clip0002.mov</pathurl>
												<rate>
													<timebase>25</timebase>
													<ntsc>FALSE</ntsc>
												</rate>
												<duration>15648</duration>
												<timecode>
													<rate>
														<timebase>25</timebase>
														<ntsc>FALSE</ntsc>
													</rate>
													<string>00:01:06:06</string>
													<frame>1656</frame>
													<displayformat>NDF</displayformat>
													<reel>
														<name></name>
													</reel>
												</timecode>
												<media>
													<video>
														<samplecharacteristics>
															<rate>
																<timebase>25</timebase>
																<ntsc>FALSE</ntsc>
															</rate>
															<width>1920</width>
															<height>1080</height>
															<anamorphic>FALSE</anamorphic>
															<pixelaspectratio>square</pixelaspectratio>
															<fielddominance>none</fielddominance>
														</samplecharacteristics>
													</video>
													<audio>
														<samplecharacteristics>
															<depth>16</depth>
															<samplerate>48000</samplerate>
														</samplecharacteristics>
														<channelcount>1</channelcount>
														<audiochannel>
															<sourcechannel>1</sourcechannel>
														</audiochannel>
													</audio>
													<audio>
														<samplecharacteristics>
															<depth>16</depth>
															<samplerate>48000</samplerate>
														</samplecharacteristics>
														<channelcount>1</channelcount>
														<audiochannel>
															<sourcechannel>2</sourcechannel>
														</audiochannel>
													</audio>
												</media>
											</file>
											<link>
												<linkclipref>clipitem-210</linkclipref>
												<mediatype>video</mediatype>
												<trackindex>3</trackindex>
												<clipindex>1</clipindex>
											</link>
											<link>
												<linkclipref>clipitem-215</linkclipref>
												<mediatype>audio</mediatype>
												<trackindex>5</trackindex>
												<clipindex>1</clipindex>
												<groupindex>1</groupindex>
											</link>
											<link>
												<linkclipref>clipitem-216</linkclipref>
												<mediatype>audio</mediatype>
												<trackindex>6</trackindex>
												<clipindex>1</clipindex>
												<groupindex>1</groupindex>
											</link>
											<logginginfo>
												<description></description>
												<scene></scene>
												<shottake></shottake>
												<lognote>A1=Ab A2=kopp</lognote>
											</logginginfo>
											<labels>
												<label2>Iris</label2>
											</labels>
										</clipitem>
										<enabled>TRUE</enabled>
										<locked>FALSE</locked>
									</track>
								</video>
								<audio>
									<numOutputChannels>14</numOutputChannels>
									<format>
										<samplecharacteristics>
											<depth>16</depth>
											<samplerate>48000</samplerate>
										</samplecharacteristics>
									</format>
									<outputs>
										<group>
											<index>1</index>
											<numchannels>1</numchannels>
											<downmix>0</downmix>
											<channel>
												<index>1</index>
											</channel>
										</group>
										<group>
											<index>2</index>
											<numchannels>1</numchannels>
											<downmix>0</downmix>
											<channel>
												<index>2</index>
											</channel>
										</group>
										<group>
											<index>3</index>
											<numchannels>1</numchannels>
											<downmix>0</downmix>
											<channel>
												<index>3</index>
											</channel>
										</group>
										<group>
											<index>4</index>
											<numchannels>1</numchannels>
											<downmix>0</downmix>
											<channel>
												<index>4</index>
											</channel>
										</group>
										<group>
											<index>5</index>
											<numchannels>1</numchannels>
											<downmix>0</downmix>
											<channel>
												<index>5</index>
											</channel>
										</group>
										<group>
											<index>6</index>
											<numchannels>1</numchannels>
											<downmix>0</downmix>
											<channel>
												<index>6</index>
											</channel>
										</group>
										<group>
											<index>7</index>
											<numchannels>1</numchannels>
											<downmix>0</downmix>
											<channel>
												<index>7</index>
											</channel>
										</group>
										<group>
											<index>8</index>
											<numchannels>1</numchannels>
											<downmix>0</downmix>
											<channel>
												<index>8</index>
											</channel>
										</group>
										<group>
											<index>9</index>
											<numchannels>1</numchannels>
											<downmix>0</downmix>
											<channel>
												<index>9</index>
											</channel>
										</group>
										<group>
											<index>10</index>
											<numchannels>1</numchannels>
											<downmix>0</downmix>
											<channel>
												<index>10</index>
											</channel>
										</group>
										<group>
											<index>11</index>
											<numchannels>1</numchannels>
											<downmix>0</downmix>
											<channel>
												<index>11</index>
											</channel>
										</group>
										<group>
											<index>12</index>
											<numchannels>1</numchannels>
											<downmix>0</downmix>
											<channel>
												<index>12</index>
											</channel>
										</group>
										<group>
											<index>13</index>
											<numchannels>1</numchannels>
											<downmix>0</downmix>
											<channel>
												<index>13</index>
											</channel>
										</group>
										<group>
											<index>14</index>
											<numchannels>1</numchannels>
											<downmix>0</downmix>
											<channel>
												<index>14</index>
											</channel>
										</group>
									</outputs>
									<track TL.SQTrackAudioKeyframeStyle="0" TL.SQTrackShy="0" TL.SQTrackExpandedHeight="25" TL.SQTrackExpanded="0" MZ.TrackTargeted="1" PannerCurrentValue="0.5" PannerIsInverted="true" PannerStartKeyframe="-91445760000000000,0.5,0,0,0,0,0,0" PannerName="Balance" currentExplodedTrackIndex="0" totalExplodedTrackCount="1" premiereTrackType="Stereo">
										<clipitem id="clipitem-211" premiereChannelType="mono">
											<masterclipid>masterclip-72</masterclipid>
											<name>gopro stitched1.mov</name>
											<enabled>TRUE</enabled>
											<duration>38925</duration>
											<rate>
												<timebase>25</timebase>
												<ntsc>FALSE</ntsc>
											</rate>
											<start>0</start>
											<end>15911</end>
											<in>9283</in>
											<out>25194</out>
											<pproTicksIn>94321221120000</pproTicksIn>
											<pproTicksOut>255987164160000</pproTicksOut>
											<file id="file-68"/>
											<sourcetrack>
												<mediatype>audio</mediatype>
												<trackindex>1</trackindex>
											</sourcetrack>
											<link>
												<linkclipref>clipitem-208</linkclipref>
												<mediatype>video</mediatype>
												<trackindex>1</trackindex>
												<clipindex>1</clipindex>
											</link>
											<link>
												<linkclipref>clipitem-211</linkclipref>
												<mediatype>audio</mediatype>
												<trackindex>1</trackindex>
												<clipindex>1</clipindex>
												<groupindex>1</groupindex>
											</link>
											<link>
												<linkclipref>clipitem-212</linkclipref>
												<mediatype>audio</mediatype>
												<trackindex>2</trackindex>
												<clipindex>1</clipindex>
												<groupindex>1</groupindex>
											</link>
											<logginginfo>
												<description></description>
												<scene></scene>
												<shottake></shottake>
												<lognote></lognote>
											</logginginfo>
											<labels>
												<label2>Iris</label2>
											</labels>
										</clipitem>
										<enabled>FALSE</enabled>
										<locked>FALSE</locked>
										<outputchannelindex>1</outputchannelindex>
									</track>
									<track TL.SQTrackAudioKeyframeStyle="0" TL.SQTrackShy="0" TL.SQTrackExpandedHeight="25" TL.SQTrackExpanded="0" MZ.TrackTargeted="1" PannerCurrentValue="0" PannerIsInverted="true" PannerStartKeyframe="-91445760000000000,0.,0,0,0,0,0,0" PannerName="Balance" currentExplodedTrackIndex="0" totalExplodedTrackCount="1" premiereTrackType="Stereo">
										<clipitem id="clipitem-212" premiereChannelType="mono">
											<masterclipid>masterclip-72</masterclipid>
											<name>gopro stitched1.mov</name>
											<enabled>TRUE</enabled>
											<duration>38925</duration>
											<rate>
												<timebase>25</timebase>
												<ntsc>FALSE</ntsc>
											</rate>
											<start>0</start>
											<end>15911</end>
											<in>9283</in>
											<out>25194</out>
											<pproTicksIn>94321221120000</pproTicksIn>
											<pproTicksOut>255987164160000</pproTicksOut>
											<file id="file-68"/>
											<sourcetrack>
												<mediatype>audio</mediatype>
												<trackindex>2</trackindex>
											</sourcetrack>
											<link>
												<linkclipref>clipitem-208</linkclipref>
												<mediatype>video</mediatype>
												<trackindex>1</trackindex>
												<clipindex>1</clipindex>
											</link>
											<link>
												<linkclipref>clipitem-211</linkclipref>
												<mediatype>audio</mediatype>
												<trackindex>1</trackindex>
												<clipindex>1</clipindex>
												<groupindex>1</groupindex>
											</link>
											<link>
												<linkclipref>clipitem-212</linkclipref>
												<mediatype>audio</mediatype>
												<trackindex>2</trackindex>
												<clipindex>1</clipindex>
												<groupindex>1</groupindex>
											</link>
											<logginginfo>
												<description></description>
												<scene></scene>
												<shottake></shottake>
												<lognote></lognote>
											</logginginfo>
											<labels>
												<label2>Iris</label2>
											</labels>
										</clipitem>
										<enabled>FALSE</enabled>
										<locked>FALSE</locked>
										<outputchannelindex>3</outputchannelindex>
									</track>
									<track TL.SQTrackAudioKeyframeStyle="0" TL.SQTrackShy="0" TL.SQTrackExpandedHeight="25" TL.SQTrackExpanded="0" MZ.TrackTargeted="1" PannerIsInverted="true" PannerName="Balance" currentExplodedTrackIndex="0" totalExplodedTrackCount="1" premiereTrackType="Stereo">
										<clipitem id="clipitem-213" premiereChannelType="mono">
											<masterclipid>masterclip-73</masterclipid>
											<name>Clip0001.mov</name>
											<enabled>TRUE</enabled>
											<duration>15912</duration>
											<rate>
												<timebase>25</timebase>
												<ntsc>FALSE</ntsc>
											</rate>
											<start>0</start>
											<end>15911</end>
											<in>1</in>
											<out>15912</out>
											<pproTicksIn>10160640000</pproTicksIn>
											<pproTicksOut>161676103680000</pproTicksOut>
											<file id="file-69"/>
											<sourcetrack>
												<mediatype>audio</mediatype>
												<trackindex>1</trackindex>
											</sourcetrack>
											<link>
												<linkclipref>clipitem-209</linkclipref>
												<mediatype>video</mediatype>
												<trackindex>2</trackindex>
												<clipindex>1</clipindex>
											</link>
											<link>
												<linkclipref>clipitem-213</linkclipref>
												<mediatype>audio</mediatype>
												<trackindex>3</trackindex>
												<clipindex>1</clipindex>
												<groupindex>1</groupindex>
											</link>
											<link>
												<linkclipref>clipitem-214</linkclipref>
												<mediatype>audio</mediatype>
												<trackindex>4</trackindex>
												<clipindex>1</clipindex>
												<groupindex>1</groupindex>
											</link>
											<logginginfo>
												<description></description>
												<scene></scene>
												<shottake></shottake>
												<lognote></lognote>
											</logginginfo>
											<labels>
												<label2>Iris</label2>
											</labels>
										</clipitem>
										<enabled>TRUE</enabled>
										<locked>FALSE</locked>
										<outputchannelindex>3</outputchannelindex>
									</track>
									<track TL.SQTrackAudioKeyframeStyle="0" TL.SQTrackShy="0" TL.SQTrackExpandedHeight="25" TL.SQTrackExpanded="0" MZ.TrackTargeted="1" PannerCurrentValue="0" PannerIsInverted="true" PannerStartKeyframe="-91445760000000000,0.,0,0,0,0,0,0" PannerName="Balance" currentExplodedTrackIndex="0" totalExplodedTrackCount="1" premiereTrackType="Stereo">
										<clipitem id="clipitem-214" premiereChannelType="mono">
											<masterclipid>masterclip-73</masterclipid>
											<name>Clip0001.mov</name>
											<enabled>TRUE</enabled>
											<duration>15912</duration>
											<rate>
												<timebase>25</timebase>
												<ntsc>FALSE</ntsc>
											</rate>
											<start>0</start>
											<end>15911</end>
											<in>1</in>
											<out>15912</out>
											<pproTicksIn>10160640000</pproTicksIn>
											<pproTicksOut>161676103680000</pproTicksOut>
											<file id="file-69"/>
											<sourcetrack>
												<mediatype>audio</mediatype>
												<trackindex>2</trackindex>
											</sourcetrack>
											<link>
												<linkclipref>clipitem-209</linkclipref>
												<mediatype>video</mediatype>
												<trackindex>2</trackindex>
												<clipindex>1</clipindex>
											</link>
											<link>
												<linkclipref>clipitem-213</linkclipref>
												<mediatype>audio</mediatype>
												<trackindex>3</trackindex>
												<clipindex>1</clipindex>
												<groupindex>1</groupindex>
											</link>
											<link>
												<linkclipref>clipitem-214</linkclipref>
												<mediatype>audio</mediatype>
												<trackindex>4</trackindex>
												<clipindex>1</clipindex>
												<groupindex>1</groupindex>
											</link>
											<logginginfo>
												<description></description>
												<scene></scene>
												<shottake></shottake>
												<lognote></lognote>
											</logginginfo>
											<labels>
												<label2>Iris</label2>
											</labels>
										</clipitem>
										<enabled>TRUE</enabled>
										<locked>FALSE</locked>
										<outputchannelindex>5</outputchannelindex>
									</track>
									<track TL.SQTrackAudioKeyframeStyle="0" TL.SQTrackShy="0" TL.SQTrackExpandedHeight="25" TL.SQTrackExpanded="0" MZ.TrackTargeted="1" PannerIsInverted="true" PannerName="Balance" currentExplodedTrackIndex="0" totalExplodedTrackCount="1" premiereTrackType="Stereo">
										<clipitem id="clipitem-215" premiereChannelType="mono">
											<masterclipid>masterclip-74</masterclipid>
											<name>Clip0002.mov</name>
											<enabled>TRUE</enabled>
											<duration>15648</duration>
											<rate>
												<timebase>25</timebase>
												<ntsc>FALSE</ntsc>
											</rate>
											<start>159</start>
											<end>15807</end>
											<in>0</in>
											<out>15648</out>
											<pproTicksIn>0</pproTicksIn>
											<pproTicksOut>158993694720000</pproTicksOut>
											<file id="file-70"/>
											<sourcetrack>
												<mediatype>audio</mediatype>
												<trackindex>1</trackindex>
											</sourcetrack>
											<link>
												<linkclipref>clipitem-210</linkclipref>
												<mediatype>video</mediatype>
												<trackindex>3</trackindex>
												<clipindex>1</clipindex>
											</link>
											<link>
												<linkclipref>clipitem-215</linkclipref>
												<mediatype>audio</mediatype>
												<trackindex>5</trackindex>
												<clipindex>1</clipindex>
												<groupindex>1</groupindex>
											</link>
											<link>
												<linkclipref>clipitem-216</linkclipref>
												<mediatype>audio</mediatype>
												<trackindex>6</trackindex>
												<clipindex>1</clipindex>
												<groupindex>1</groupindex>
											</link>
											<logginginfo>
												<description></description>
												<scene></scene>
												<shottake></shottake>
												<lognote>A1=Ab A2=kopp</lognote>
											</logginginfo>
											<labels>
												<label2>Iris</label2>
											</labels>
										</clipitem>
										<enabled>TRUE</enabled>
										<locked>FALSE</locked>
										<outputchannelindex>5</outputchannelindex>
									</track>
									<track TL.SQTrackAudioKeyframeStyle="0" TL.SQTrackShy="0" TL.SQTrackExpandedHeight="25" TL.SQTrackExpanded="0" MZ.TrackTargeted="0" PannerCurrentValue="0.5" PannerIsInverted="true" PannerStartKeyframe="-91445760000000000,0.5,0,0,0,0,0,0" PannerName="Balance" currentExplodedTrackIndex="0" totalExplodedTrackCount="1" premiereTrackType="Stereo">
										<clipitem id="clipitem-216" premiereChannelType="mono">
											<masterclipid>masterclip-74</masterclipid>
											<name>Clip0002.mov</name>
											<enabled>TRUE</enabled>
											<duration>15648</duration>
											<rate>
												<timebase>25</timebase>
												<ntsc>FALSE</ntsc>
											</rate>
											<start>159</start>
											<end>15807</end>
											<in>0</in>
											<out>15648</out>
											<pproTicksIn>0</pproTicksIn>
											<pproTicksOut>158993694720000</pproTicksOut>
											<file id="file-70"/>
											<sourcetrack>
												<mediatype>audio</mediatype>
												<trackindex>2</trackindex>
											</sourcetrack>
											<link>
												<linkclipref>clipitem-210</linkclipref>
												<mediatype>video</mediatype>
												<trackindex>3</trackindex>
												<clipindex>1</clipindex>
											</link>
											<link>
												<linkclipref>clipitem-215</linkclipref>
												<mediatype>audio</mediatype>
												<trackindex>5</trackindex>
												<clipindex>1</clipindex>
												<groupindex>1</groupindex>
											</link>
											<link>
												<linkclipref>clipitem-216</linkclipref>
												<mediatype>audio</mediatype>
												<trackindex>6</trackindex>
												<clipindex>1</clipindex>
												<groupindex>1</groupindex>
											</link>
											<logginginfo>
												<description></description>
												<scene></scene>
												<shottake></shottake>
												<lognote>A1=Ab A2=kopp</lognote>
											</logginginfo>
											<labels>
												<label2>Iris</label2>
											</labels>
										</clipitem>
										<enabled>TRUE</enabled>
										<locked>FALSE</locked>
										<outputchannelindex>1</outputchannelindex>
									</track>
								</audio>
							</media>
							<timecode>
								<rate>
									<timebase>25</timebase>
									<ntsc>FALSE</ntsc>
								</rate>
								<string>00:30:24:13</string>
								<frame>45613</frame>
								<displayformat>NDF</displayformat>
							</timecode>
								<marker>
									<comment></comment>
									<name></name>
									<in>3673</in>
									<out>-1</out>
								</marker>
								<marker>
									<comment></comment>
									<name></name>
									<in>13306</in>
									<out>-1</out>
								</marker>
								<marker>
									<comment></comment>
									<name></name>
									<in>4783</in>
									<out>-1</out>
								</marker>
								<marker>
									<comment></comment>
									<name></name>
									<in>9644</in>
									<out>-1</out>
								</marker>
								<marker>
									<comment></comment>
									<name></name>
									<in>11613</in>
									<out>-1</out>
								</marker>
						</sequence>
							<filter>
								<effect>
									<name>Audio Levels</name>
									<effectid>audiolevels</effectid>
									<effectcategory>audiolevels</effectcategory>
									<effecttype>audiolevels</effecttype>
									<mediatype>audio</mediatype>
									<parameter authoringApp="PremierePro">
										<parameterid>level</parameterid>
										<name>Level</name>
										<valuemin>0</valuemin>
										<valuemax>3.98109</valuemax>
										<value>1.99053</value>
									</parameter>
								</effect>
							</filter>
						<labels>
							<label2>Forest</label2>
						</labels>
					</clipitem>
					<clipitem id="clipitem-217" premiereChannelType="mono">
						<masterclipid>masterclip-71</masterclipid>
						<name>vb-krenk-Multicam-XX 02</name>
						<enabled>TRUE</enabled>
						<duration>47419</duration>
						<rate>
							<timebase>25</timebase>
							<ntsc>FALSE</ntsc>
						</rate>
						<start>9033</start>
						<end>9114</end>
						<in>9911</in>
						<out>9992</out>
						<pproTicksIn>100702103040000</pproTicksIn>
						<pproTicksOut>101525114880000</pproTicksOut>
						<sequence id="sequence-6"/>
						<labels>
							<label2>Forest</label2>
						</labels>
					</clipitem>
					<transitionitem>
						<start>14616</start>
						<end>14629</end>
						<alignment>start-black</alignment>
						<cutPointTicks>0</cutPointTicks>
						<rate>
							<timebase>25</timebase>
							<ntsc>FALSE</ntsc>
						</rate>
						<effect>
							<name>Cross Fade (+3dB)</name>
							<effectid>KGAudioTransCrossFade3dB</effectid>
							<effecttype>transition</effecttype>
							<mediatype>audio</mediatype>
							<wipecode>0</wipecode>
							<wipeaccuracy>100</wipeaccuracy>
							<startratio>0</startratio>
							<endratio>1</endratio>
							<reverse>FALSE</reverse>
						</effect>
					</transitionitem>
					<clipitem id="clipitem-218" premiereChannelType="mono">
						<masterclipid>masterclip-75</masterclipid>
						<name>backstage-T03-Multicam</name>
						<enabled>TRUE</enabled>
						<duration>100318</duration>
						<rate>
							<timebase>25</timebase>
							<ntsc>FALSE</ntsc>
						</rate>
						<start>-1</start>
						<end>14813</end>
						<in>8820</in>
						<out>9017</out>
						<pproTicksIn>89616844800000</pproTicksIn>
						<pproTicksOut>91618490880000</pproTicksOut>
						<sequence id="sequence-7" TL.SQAudioVisibleBase="0" TL.SQVideoVisibleBase="0" TL.SQVisibleBaseTime="0" TL.SQAVDividerPosition="0.5" TL.SQHideShyTracks="0" TL.SQHeaderWidth="184" Monitor.ProgramZoomOut="458183900160000" Monitor.ProgramZoomIn="0" TL.SQTimePerPixel="1.0956061987237922" AM.TrackVScrollPosition="0" AM.TrackScrollPosition="0" MZ.EditLine="98609011200000" MZ.Sequence.PreviewFrameSizeHeight="1080" MZ.Sequence.PreviewFrameSizeWidth="1920" MZ.Sequence.AudioTimeDisplayFormat="200" MZ.Sequence.PreviewRenderingClassID="1061109567" MZ.Sequence.PreviewRenderingPresetCodec="1634755438" MZ.Sequence.PreviewRenderingPresetPath="EncoderPresets/SequencePreview/e43ae329-eea5-4a04-b964-b72cf263ee81/Blackmagic QuickTime Movie.epr" MZ.Sequence.PreviewUseMaxRenderQuality="false" MZ.Sequence.PreviewUseMaxBitDepth="false" MZ.Sequence.EditingModeGUID="e43ae329-eea5-4a04-b964-b72cf263ee81" MZ.Sequence.VideoTimeDisplayFormat="101" MZ.WorkOutPoint="458183900160000" MZ.WorkInPoint="0" MZ.ZeroPoint="13821559234560000">
							<duration>45094</duration>
							<rate>
								<timebase>25</timebase>
								<ntsc>FALSE</ntsc>
							</rate>
							<name>backstage-T03-Multicam</name>
							<media>
								<video>
									<format>
										<samplecharacteristics>
											<rate>
												<timebase>25</timebase>
												<ntsc>FALSE</ntsc>
											</rate>
											<codec>
												<name>Apple ProRes 422</name>
												<appspecificdata>
													<appname>Final Cut Pro</appname>
													<appmanufacturer>Apple Inc.</appmanufacturer>
													<appversion>7.0</appversion>
													<data>
														<qtcodec>
															<codecname>Apple ProRes 422</codecname>
															<codectypename>Apple ProRes 422</codectypename>
															<codectypecode>apcn</codectypecode>
															<codecvendorcode>appl</codecvendorcode>
															<spatialquality>1024</spatialquality>
															<temporalquality>0</temporalquality>
															<keyframerate>0</keyframerate>
															<datarate>0</datarate>
														</qtcodec>
													</data>
												</appspecificdata>
											</codec>
											<width>1920</width>
											<height>1080</height>
											<anamorphic>FALSE</anamorphic>
											<pixelaspectratio>square</pixelaspectratio>
											<fielddominance>none</fielddominance>
											<colordepth>24</colordepth>
										</samplecharacteristics>
									</format>
									<track TL.SQTrackShy="0" TL.SQTrackExpandedHeight="50" TL.SQTrackExpanded="1" MZ.TrackTargeted="1">
										<clipitem id="clipitem-219">
											<masterclipid>masterclip-76</masterclipid>
											<name>Clip0003.mov</name>
											<enabled>TRUE</enabled>
											<duration>45096</duration>
											<rate>
												<timebase>25</timebase>
												<ntsc>FALSE</ntsc>
											</rate>
											<start>0</start>
											<end>9692</end>
											<in>1</in>
											<out>9693</out>
											<pproTicksIn>10160640000</pproTicksIn>
											<pproTicksOut>98487083520000</pproTicksOut>
											<alphatype>none</alphatype>
											<pixelaspectratio>square</pixelaspectratio>
											<anamorphic>FALSE</anamorphic>
											<file id="file-71">
												<name>Clip0003.mov</name>
												<pathurl>file://localhost/Volumes/Bingen/Prosjekter/MYNT194016%20WHATS%20COOKING/Media/Episode%2005%20N-ordet/VB-opptak/20042016/KAM%20B%20(FS5)/ProRes/Clip0003.mov</pathurl>
												<rate>
													<timebase>25</timebase>
													<ntsc>FALSE</ntsc>
												</rate>
												<duration>45096</duration>
												<timecode>
													<rate>
														<timebase>25</timebase>
														<ntsc>FALSE</ntsc>
													</rate>
													<string>16:34:31:06</string>
													<frame>1491781</frame>
													<displayformat>NDF</displayformat>
													<reel>
														<name></name>
													</reel>
												</timecode>
												<media>
													<video>
														<samplecharacteristics>
															<rate>
																<timebase>25</timebase>
																<ntsc>FALSE</ntsc>
															</rate>
															<width>1920</width>
															<height>1080</height>
															<anamorphic>FALSE</anamorphic>
															<pixelaspectratio>square</pixelaspectratio>
															<fielddominance>none</fielddominance>
														</samplecharacteristics>
													</video>
													<audio>
														<samplecharacteristics>
															<depth>16</depth>
															<samplerate>48000</samplerate>
														</samplecharacteristics>
														<channelcount>1</channelcount>
														<audiochannel>
															<sourcechannel>1</sourcechannel>
														</audiochannel>
													</audio>
													<audio>
														<samplecharacteristics>
															<depth>16</depth>
															<samplerate>48000</samplerate>
														</samplecharacteristics>
														<channelcount>1</channelcount>
														<audiochannel>
															<sourcechannel>2</sourcechannel>
														</audiochannel>
													</audio>
												</media>
											</file>
											<link>
												<linkclipref>clipitem-219</linkclipref>
												<mediatype>video</mediatype>
												<trackindex>1</trackindex>
												<clipindex>1</clipindex>
											</link>
											<link>
												<linkclipref>clipitem-235</linkclipref>
												<mediatype>audio</mediatype>
												<trackindex>7</trackindex>
												<clipindex>1</clipindex>
												<groupindex>1</groupindex>
											</link>
											<link>
												<linkclipref>clipitem-237</linkclipref>
												<mediatype>audio</mediatype>
												<trackindex>8</trackindex>
												<clipindex>1</clipindex>
												<groupindex>1</groupindex>
											</link>
											<logginginfo>
												<description>rap</description>
												<scene></scene>
												<shottake></shottake>
												<lognote></lognote>
											</logginginfo>
											<labels>
												<label2>Iris</label2>
											</labels>
										</clipitem>
										<clipitem id="clipitem-220">
											<masterclipid>masterclip-76</masterclipid>
											<name>Clip0003.mov</name>
											<enabled>TRUE</enabled>
											<duration>45096</duration>
											<rate>
												<timebase>25</timebase>
												<ntsc>FALSE</ntsc>
											</rate>
											<start>9692</start>
											<end>45094</end>
											<in>9693</in>
											<out>45095</out>
											<pproTicksIn>98487083520000</pproTicksIn>
											<pproTicksOut>458194060800000</pproTicksOut>
											<alphatype>none</alphatype>
											<file id="file-71"/>
											<link>
												<linkclipref>clipitem-220</linkclipref>
												<mediatype>video</mediatype>
												<trackindex>1</trackindex>
												<clipindex>2</clipindex>
											</link>
											<link>
												<linkclipref>clipitem-236</linkclipref>
												<mediatype>audio</mediatype>
												<trackindex>7</trackindex>
												<clipindex>2</clipindex>
												<groupindex>1</groupindex>
											</link>
											<link>
												<linkclipref>clipitem-238</linkclipref>
												<mediatype>audio</mediatype>
												<trackindex>8</trackindex>
												<clipindex>2</clipindex>
												<groupindex>1</groupindex>
											</link>
											<logginginfo>
												<description>rap</description>
												<scene></scene>
												<shottake></shottake>
												<lognote></lognote>
											</logginginfo>
											<labels>
												<label2>Iris</label2>
											</labels>
										</clipitem>
										<enabled>TRUE</enabled>
										<locked>FALSE</locked>
									</track>
									<track TL.SQTrackShy="0" TL.SQTrackExpandedHeight="25" TL.SQTrackExpanded="0" MZ.TrackTargeted="0">
										<clipitem id="clipitem-221">
											<masterclipid>masterclip-77</masterclipid>
											<name>C0005.mov</name>
											<enabled>TRUE</enabled>
											<duration>44760</duration>
											<rate>
												<timebase>25</timebase>
												<ntsc>FALSE</ntsc>
											</rate>
											<start>0</start>
											<end>9692</end>
											<in>110</in>
											<out>9802</out>
											<pproTicksIn>1117670400000</pproTicksIn>
											<pproTicksOut>99594593280000</pproTicksOut>
											<alphatype>none</alphatype>
											<pixelaspectratio>square</pixelaspectratio>
											<anamorphic>FALSE</anamorphic>
											<file id="file-72">
												<name>C0005.mov</name>
												<pathurl>file://localhost/Volumes/Bingen/Prosjekter/MYNT194016%20WHATS%20COOKING/Media/Episode%2005%20N-ordet/VB-opptak/20042016/KAM%20C%20(A7sii)/ProRes/C0005.mov</pathurl>
												<rate>
													<timebase>25</timebase>
													<ntsc>FALSE</ntsc>
												</rate>
												<duration>44760</duration>
												<timecode>
													<rate>
														<timebase>25</timebase>
														<ntsc>FALSE</ntsc>
													</rate>
													<string>15:06:56:22</string>
													<frame>1360422</frame>
													<displayformat>NDF</displayformat>
													<reel>
														<name></name>
													</reel>
												</timecode>
												<media>
													<video>
														<samplecharacteristics>
															<rate>
																<timebase>25</timebase>
																<ntsc>FALSE</ntsc>
															</rate>
															<width>1920</width>
															<height>1080</height>
															<anamorphic>FALSE</anamorphic>
															<pixelaspectratio>square</pixelaspectratio>
															<fielddominance>none</fielddominance>
														</samplecharacteristics>
													</video>
													<audio>
														<samplecharacteristics>
															<depth>16</depth>
															<samplerate>48000</samplerate>
														</samplecharacteristics>
														<channelcount>1</channelcount>
														<layout>stereo</layout>
														<audiochannel>
															<sourcechannel>1</sourcechannel>
															<channellabel>left</channellabel>
														</audiochannel>
													</audio>
													<audio>
														<samplecharacteristics>
															<depth>16</depth>
															<samplerate>48000</samplerate>
														</samplecharacteristics>
														<channelcount>1</channelcount>
														<layout>stereo</layout>
														<audiochannel>
															<sourcechannel>2</sourcechannel>
															<channellabel>right</channellabel>
														</audiochannel>
													</audio>
												</media>
											</file>
											<link>
												<linkclipref>clipitem-221</linkclipref>
												<mediatype>video</mediatype>
												<trackindex>2</trackindex>
												<clipindex>1</clipindex>
											</link>
											<link>
												<linkclipref>clipitem-239</linkclipref>
												<mediatype>audio</mediatype>
												<trackindex>9</trackindex>
												<clipindex>1</clipindex>
												<groupindex>1</groupindex>
											</link>
											<link>
												<linkclipref>clipitem-241</linkclipref>
												<mediatype>audio</mediatype>
												<trackindex>10</trackindex>
												<clipindex>1</clipindex>
												<groupindex>1</groupindex>
											</link>
											<logginginfo>
												<description>rap asians</description>
												<scene></scene>
												<shottake></shottake>
												<lognote></lognote>
											</logginginfo>
											<labels>
												<label2>Iris</label2>
											</labels>
										</clipitem>
										<clipitem id="clipitem-222">
											<masterclipid>masterclip-77</masterclipid>
											<name>C0005.mov</name>
											<enabled>TRUE</enabled>
											<duration>44760</duration>
											<rate>
												<timebase>25</timebase>
												<ntsc>FALSE</ntsc>
											</rate>
											<start>9692</start>
											<end>44650</end>
											<in>9802</in>
											<out>44760</out>
											<pproTicksIn>99594593280000</pproTicksIn>
											<pproTicksOut>454790246400000</pproTicksOut>
											<alphatype>none</alphatype>
											<file id="file-72"/>
											<link>
												<linkclipref>clipitem-222</linkclipref>
												<mediatype>video</mediatype>
												<trackindex>2</trackindex>
												<clipindex>2</clipindex>
											</link>
											<link>
												<linkclipref>clipitem-240</linkclipref>
												<mediatype>audio</mediatype>
												<trackindex>9</trackindex>
												<clipindex>2</clipindex>
												<groupindex>1</groupindex>
											</link>
											<link>
												<linkclipref>clipitem-242</linkclipref>
												<mediatype>audio</mediatype>
												<trackindex>10</trackindex>
												<clipindex>2</clipindex>
												<groupindex>1</groupindex>
											</link>
											<logginginfo>
												<description>rap asians</description>
												<scene></scene>
												<shottake></shottake>
												<lognote></lognote>
											</logginginfo>
											<labels>
												<label2>Iris</label2>
											</labels>
										</clipitem>
										<enabled>TRUE</enabled>
										<locked>FALSE</locked>
									</track>
								</video>
								<audio>
									<numOutputChannels>6</numOutputChannels>
									<format>
										<samplecharacteristics>
											<depth>16</depth>
											<samplerate>48000</samplerate>
										</samplecharacteristics>
									</format>
									<outputs>
										<group>
											<index>1</index>
											<numchannels>1</numchannels>
											<downmix>0</downmix>
											<channel>
												<index>1</index>
											</channel>
										</group>
										<group>
											<index>2</index>
											<numchannels>1</numchannels>
											<downmix>0</downmix>
											<channel>
												<index>2</index>
											</channel>
										</group>
										<group>
											<index>3</index>
											<numchannels>1</numchannels>
											<downmix>0</downmix>
											<channel>
												<index>3</index>
											</channel>
										</group>
										<group>
											<index>4</index>
											<numchannels>1</numchannels>
											<downmix>0</downmix>
											<channel>
												<index>4</index>
											</channel>
										</group>
										<group>
											<index>5</index>
											<numchannels>1</numchannels>
											<downmix>0</downmix>
											<channel>
												<index>5</index>
											</channel>
										</group>
										<group>
											<index>6</index>
											<numchannels>1</numchannels>
											<downmix>0</downmix>
											<channel>
												<index>6</index>
											</channel>
										</group>
									</outputs>
									<track TL.SQTrackAudioKeyframeStyle="0" TL.SQTrackShy="0" TL.SQTrackExpandedHeight="25" TL.SQTrackExpanded="0" MZ.TrackTargeted="1" PannerCurrentValue="0" PannerIsInverted="true" PannerStartKeyframe="-91445760000000000,0.,0,0,0,0,0,0" PannerName="Balance" currentExplodedTrackIndex="0" totalExplodedTrackCount="1" premiereTrackType="Stereo">
										<clipitem id="clipitem-223" premiereChannelType="mono">
											<masterclipid>masterclip-78</masterclipid>
											<name>GRIMSSKJTT02.WAV</name>
											<enabled>TRUE</enabled>
											<duration>100249</duration>
											<rate>
												<timebase>25</timebase>
												<ntsc>FALSE</ntsc>
											</rate>
											<start>0</start>
											<end>9692</end>
											<in>13454</in>
											<out>23146</out>
											<pproTicksIn>136701250560000</pproTicksIn>
											<pproTicksOut>235178173440000</pproTicksOut>
											<file id="file-73">
												<name>GRIMSSKJTT02.WAV</name>
												<pathurl>file://localhost/Volumes/Bingen/Prosjekter/MYNT194016%20WHATS%20COOKING/Media/Episode%2005%20N-ordet/VB-opptak/20042016/LYD/GRIMSSKJTT02.WAV</pathurl>
												<rate>
													<timebase>30</timebase>
													<ntsc>TRUE</ntsc>
												</rate>
												<duration>120179</duration>
												<timecode>
													<rate>
														<timebase>30</timebase>
														<ntsc>TRUE</ntsc>
													</rate>
													<string>14;57;54;01</string>
													<frame>1614605</frame>
													<displayformat>DF</displayformat>
													<reel>
														<name>BASKET</name>
													</reel>
												</timecode>
												<media>
													<audio>
														<samplecharacteristics>
															<depth>16</depth>
															<samplerate>48000</samplerate>
														</samplecharacteristics>
														<channelcount>1</channelcount>
														<audiochannel>
															<sourcechannel>1</sourcechannel>
														</audiochannel>
													</audio>
													<audio>
														<samplecharacteristics>
															<depth>16</depth>
															<samplerate>48000</samplerate>
														</samplecharacteristics>
														<channelcount>1</channelcount>
														<audiochannel>
															<sourcechannel>2</sourcechannel>
														</audiochannel>
													</audio>
													<audio>
														<samplecharacteristics>
															<depth>16</depth>
															<samplerate>48000</samplerate>
														</samplecharacteristics>
														<channelcount>1</channelcount>
														<audiochannel>
															<sourcechannel>3</sourcechannel>
														</audiochannel>
													</audio>
													<audio>
														<samplecharacteristics>
															<depth>16</depth>
															<samplerate>48000</samplerate>
														</samplecharacteristics>
														<channelcount>1</channelcount>
														<audiochannel>
															<sourcechannel>4</sourcechannel>
														</audiochannel>
													</audio>
													<audio>
														<samplecharacteristics>
															<depth>16</depth>
															<samplerate>48000</samplerate>
														</samplecharacteristics>
														<channelcount>1</channelcount>
														<audiochannel>
															<sourcechannel>5</sourcechannel>
														</audiochannel>
													</audio>
													<audio>
														<samplecharacteristics>
															<depth>16</depth>
															<samplerate>48000</samplerate>
														</samplecharacteristics>
														<channelcount>1</channelcount>
														<audiochannel>
															<sourcechannel>6</sourcechannel>
														</audiochannel>
													</audio>
												</media>
											</file>
											<sourcetrack>
												<mediatype>audio</mediatype>
												<trackindex>1</trackindex>
											</sourcetrack>
											<link>
												<linkclipref>clipitem-223</linkclipref>
												<mediatype>audio</mediatype>
												<trackindex>1</trackindex>
												<clipindex>1</clipindex>
												<groupindex>1</groupindex>
											</link>
											<link>
												<linkclipref>clipitem-225</linkclipref>
												<mediatype>audio</mediatype>
												<trackindex>2</trackindex>
												<clipindex>1</clipindex>
												<groupindex>1</groupindex>
											</link>
											<link>
												<linkclipref>clipitem-227</linkclipref>
												<mediatype>audio</mediatype>
												<trackindex>3</trackindex>
												<clipindex>1</clipindex>
												<groupindex>1</groupindex>
											</link>
											<link>
												<linkclipref>clipitem-229</linkclipref>
												<mediatype>audio</mediatype>
												<trackindex>4</trackindex>
												<clipindex>1</clipindex>
												<groupindex>1</groupindex>
											</link>
											<link>
												<linkclipref>clipitem-231</linkclipref>
												<mediatype>audio</mediatype>
												<trackindex>5</trackindex>
												<clipindex>1</clipindex>
												<groupindex>1</groupindex>
											</link>
											<link>
												<linkclipref>clipitem-233</linkclipref>
												<mediatype>audio</mediatype>
												<trackindex>6</trackindex>
												<clipindex>1</clipindex>
												<groupindex>1</groupindex>
											</link>
											<logginginfo>
												<description></description>
												<scene>GRIMSSKJT</scene>
												<shottake></shottake>
												<lognote></lognote>
											</logginginfo>
											<labels>
												<label2>Caribbean</label2>
											</labels>
										</clipitem>
										<clipitem id="clipitem-224" premiereChannelType="mono">
											<masterclipid>masterclip-78</masterclipid>
											<name>GRIMSSKJTT02.WAV</name>
											<enabled>TRUE</enabled>
											<duration>100249</duration>
											<rate>
												<timebase>25</timebase>
												<ntsc>FALSE</ntsc>
											</rate>
											<start>9692</start>
											<end>45094</end>
											<in>23146</in>
											<out>58548</out>
											<pproTicksIn>235178173440000</pproTicksIn>
											<pproTicksOut>594885150720000</pproTicksOut>
											<file id="file-73"/>
											<sourcetrack>
												<mediatype>audio</mediatype>
												<trackindex>1</trackindex>
											</sourcetrack>
											<link>
												<linkclipref>clipitem-224</linkclipref>
												<mediatype>audio</mediatype>
												<trackindex>1</trackindex>
												<clipindex>2</clipindex>
												<groupindex>1</groupindex>
											</link>
											<link>
												<linkclipref>clipitem-226</linkclipref>
												<mediatype>audio</mediatype>
												<trackindex>2</trackindex>
												<clipindex>2</clipindex>
												<groupindex>1</groupindex>
											</link>
											<link>
												<linkclipref>clipitem-228</linkclipref>
												<mediatype>audio</mediatype>
												<trackindex>3</trackindex>
												<clipindex>2</clipindex>
												<groupindex>1</groupindex>
											</link>
											<link>
												<linkclipref>clipitem-230</linkclipref>
												<mediatype>audio</mediatype>
												<trackindex>4</trackindex>
												<clipindex>2</clipindex>
												<groupindex>1</groupindex>
											</link>
											<link>
												<linkclipref>clipitem-232</linkclipref>
												<mediatype>audio</mediatype>
												<trackindex>5</trackindex>
												<clipindex>2</clipindex>
												<groupindex>1</groupindex>
											</link>
											<link>
												<linkclipref>clipitem-234</linkclipref>
												<mediatype>audio</mediatype>
												<trackindex>6</trackindex>
												<clipindex>2</clipindex>
												<groupindex>1</groupindex>
											</link>
											<logginginfo>
												<description></description>
												<scene>GRIMSSKJT</scene>
												<shottake></shottake>
												<lognote></lognote>
											</logginginfo>
											<labels>
												<label2>Caribbean</label2>
											</labels>
										</clipitem>
										<enabled>TRUE</enabled>
										<locked>FALSE</locked>
										<outputchannelindex>1</outputchannelindex>
									</track>
									<track TL.SQTrackAudioKeyframeStyle="0" TL.SQTrackShy="0" TL.SQTrackExpandedHeight="25" TL.SQTrackExpanded="0" MZ.TrackTargeted="1" PannerIsInverted="true" PannerName="Balance" currentExplodedTrackIndex="0" totalExplodedTrackCount="1" premiereTrackType="Stereo">
										<clipitem id="clipitem-225" premiereChannelType="mono">
											<masterclipid>masterclip-78</masterclipid>
											<name>GRIMSSKJTT02.WAV</name>
											<enabled>TRUE</enabled>
											<duration>100249</duration>
											<rate>
												<timebase>25</timebase>
												<ntsc>FALSE</ntsc>
											</rate>
											<start>0</start>
											<end>9692</end>
											<in>13454</in>
											<out>23146</out>
											<pproTicksIn>136701250560000</pproTicksIn>
											<pproTicksOut>235178173440000</pproTicksOut>
											<file id="file-73"/>
											<sourcetrack>
												<mediatype>audio</mediatype>
												<trackindex>2</trackindex>
											</sourcetrack>
											<link>
												<linkclipref>clipitem-223</linkclipref>
												<mediatype>audio</mediatype>
												<trackindex>1</trackindex>
												<clipindex>1</clipindex>
												<groupindex>1</groupindex>
											</link>
											<link>
												<linkclipref>clipitem-225</linkclipref>
												<mediatype>audio</mediatype>
												<trackindex>2</trackindex>
												<clipindex>1</clipindex>
												<groupindex>1</groupindex>
											</link>
											<link>
												<linkclipref>clipitem-227</linkclipref>
												<mediatype>audio</mediatype>
												<trackindex>3</trackindex>
												<clipindex>1</clipindex>
												<groupindex>1</groupindex>
											</link>
											<link>
												<linkclipref>clipitem-229</linkclipref>
												<mediatype>audio</mediatype>
												<trackindex>4</trackindex>
												<clipindex>1</clipindex>
												<groupindex>1</groupindex>
											</link>
											<link>
												<linkclipref>clipitem-231</linkclipref>
												<mediatype>audio</mediatype>
												<trackindex>5</trackindex>
												<clipindex>1</clipindex>
												<groupindex>1</groupindex>
											</link>
											<link>
												<linkclipref>clipitem-233</linkclipref>
												<mediatype>audio</mediatype>
												<trackindex>6</trackindex>
												<clipindex>1</clipindex>
												<groupindex>1</groupindex>
											</link>
											<logginginfo>
												<description></description>
												<scene>GRIMSSKJT</scene>
												<shottake></shottake>
												<lognote></lognote>
											</logginginfo>
											<labels>
												<label2>Caribbean</label2>
											</labels>
										</clipitem>
										<clipitem id="clipitem-226" premiereChannelType="mono">
											<masterclipid>masterclip-78</masterclipid>
											<name>GRIMSSKJTT02.WAV</name>
											<enabled>TRUE</enabled>
											<duration>100249</duration>
											<rate>
												<timebase>25</timebase>
												<ntsc>FALSE</ntsc>
											</rate>
											<start>9692</start>
											<end>45094</end>
											<in>23146</in>
											<out>58548</out>
											<pproTicksIn>235178173440000</pproTicksIn>
											<pproTicksOut>594885150720000</pproTicksOut>
											<file id="file-73"/>
											<sourcetrack>
												<mediatype>audio</mediatype>
												<trackindex>2</trackindex>
											</sourcetrack>
											<link>
												<linkclipref>clipitem-224</linkclipref>
												<mediatype>audio</mediatype>
												<trackindex>1</trackindex>
												<clipindex>2</clipindex>
												<groupindex>1</groupindex>
											</link>
											<link>
												<linkclipref>clipitem-226</linkclipref>
												<mediatype>audio</mediatype>
												<trackindex>2</trackindex>
												<clipindex>2</clipindex>
												<groupindex>1</groupindex>
											</link>
											<link>
												<linkclipref>clipitem-228</linkclipref>
												<mediatype>audio</mediatype>
												<trackindex>3</trackindex>
												<clipindex>2</clipindex>
												<groupindex>1</groupindex>
											</link>
											<link>
												<linkclipref>clipitem-230</linkclipref>
												<mediatype>audio</mediatype>
												<trackindex>4</trackindex>
												<clipindex>2</clipindex>
												<groupindex>1</groupindex>
											</link>
											<link>
												<linkclipref>clipitem-232</linkclipref>
												<mediatype>audio</mediatype>
												<trackindex>5</trackindex>
												<clipindex>2</clipindex>
												<groupindex>1</groupindex>
											</link>
											<link>
												<linkclipref>clipitem-234</linkclipref>
												<mediatype>audio</mediatype>
												<trackindex>6</trackindex>
												<clipindex>2</clipindex>
												<groupindex>1</groupindex>
											</link>
											<logginginfo>
												<description></description>
												<scene>GRIMSSKJT</scene>
												<shottake></shottake>
												<lognote></lognote>
											</logginginfo>
											<labels>
												<label2>Caribbean</label2>
											</labels>
										</clipitem>
										<enabled>TRUE</enabled>
										<locked>FALSE</locked>
										<outputchannelindex>2</outputchannelindex>
									</track>
									<track TL.SQTrackAudioKeyframeStyle="0" TL.SQTrackShy="0" TL.SQTrackExpandedHeight="25" TL.SQTrackExpanded="0" MZ.TrackTargeted="1" PannerCurrentValue="0" PannerIsInverted="true" PannerStartKeyframe="-91445760000000000,0.,0,0,0,0,0,0" PannerName="Balance" currentExplodedTrackIndex="0" totalExplodedTrackCount="1" premiereTrackType="Stereo">
										<clipitem id="clipitem-227" premiereChannelType="mono">
											<masterclipid>masterclip-78</masterclipid>
											<name>GRIMSSKJTT02.WAV</name>
											<enabled>TRUE</enabled>
											<duration>100249</duration>
											<rate>
												<timebase>25</timebase>
												<ntsc>FALSE</ntsc>
											</rate>
											<start>0</start>
											<end>9692</end>
											<in>13454</in>
											<out>23146</out>
											<pproTicksIn>136701250560000</pproTicksIn>
											<pproTicksOut>235178173440000</pproTicksOut>
											<file id="file-73"/>
											<sourcetrack>
												<mediatype>audio</mediatype>
												<trackindex>3</trackindex>
											</sourcetrack>
											<link>
												<linkclipref>clipitem-223</linkclipref>
												<mediatype>audio</mediatype>
												<trackindex>1</trackindex>
												<clipindex>1</clipindex>
												<groupindex>1</groupindex>
											</link>
											<link>
												<linkclipref>clipitem-225</linkclipref>
												<mediatype>audio</mediatype>
												<trackindex>2</trackindex>
												<clipindex>1</clipindex>
												<groupindex>1</groupindex>
											</link>
											<link>
												<linkclipref>clipitem-227</linkclipref>
												<mediatype>audio</mediatype>
												<trackindex>3</trackindex>
												<clipindex>1</clipindex>
												<groupindex>1</groupindex>
											</link>
											<link>
												<linkclipref>clipitem-229</linkclipref>
												<mediatype>audio</mediatype>
												<trackindex>4</trackindex>
												<clipindex>1</clipindex>
												<groupindex>1</groupindex>
											</link>
											<link>
												<linkclipref>clipitem-231</linkclipref>
												<mediatype>audio</mediatype>
												<trackindex>5</trackindex>
												<clipindex>1</clipindex>
												<groupindex>1</groupindex>
											</link>
											<link>
												<linkclipref>clipitem-233</linkclipref>
												<mediatype>audio</mediatype>
												<trackindex>6</trackindex>
												<clipindex>1</clipindex>
												<groupindex>1</groupindex>
											</link>
											<logginginfo>
												<description></description>
												<scene>GRIMSSKJT</scene>
												<shottake></shottake>
												<lognote></lognote>
											</logginginfo>
											<labels>
												<label2>Caribbean</label2>
											</labels>
										</clipitem>
										<clipitem id="clipitem-228" premiereChannelType="mono">
											<masterclipid>masterclip-78</masterclipid>
											<name>GRIMSSKJTT02.WAV</name>
											<enabled>TRUE</enabled>
											<duration>100249</duration>
											<rate>
												<timebase>25</timebase>
												<ntsc>FALSE</ntsc>
											</rate>
											<start>9692</start>
											<end>45094</end>
											<in>23146</in>
											<out>58548</out>
											<pproTicksIn>235178173440000</pproTicksIn>
											<pproTicksOut>594885150720000</pproTicksOut>
											<file id="file-73"/>
											<sourcetrack>
												<mediatype>audio</mediatype>
												<trackindex>3</trackindex>
											</sourcetrack>
											<link>
												<linkclipref>clipitem-224</linkclipref>
												<mediatype>audio</mediatype>
												<trackindex>1</trackindex>
												<clipindex>2</clipindex>
												<groupindex>1</groupindex>
											</link>
											<link>
												<linkclipref>clipitem-226</linkclipref>
												<mediatype>audio</mediatype>
												<trackindex>2</trackindex>
												<clipindex>2</clipindex>
												<groupindex>1</groupindex>
											</link>
											<link>
												<linkclipref>clipitem-228</linkclipref>
												<mediatype>audio</mediatype>
												<trackindex>3</trackindex>
												<clipindex>2</clipindex>
												<groupindex>1</groupindex>
											</link>
											<link>
												<linkclipref>clipitem-230</linkclipref>
												<mediatype>audio</mediatype>
												<trackindex>4</trackindex>
												<clipindex>2</clipindex>
												<groupindex>1</groupindex>
											</link>
											<link>
												<linkclipref>clipitem-232</linkclipref>
												<mediatype>audio</mediatype>
												<trackindex>5</trackindex>
												<clipindex>2</clipindex>
												<groupindex>1</groupindex>
											</link>
											<link>
												<linkclipref>clipitem-234</linkclipref>
												<mediatype>audio</mediatype>
												<trackindex>6</trackindex>
												<clipindex>2</clipindex>
												<groupindex>1</groupindex>
											</link>
											<logginginfo>
												<description></description>
												<scene>GRIMSSKJT</scene>
												<shottake></shottake>
												<lognote></lognote>
											</logginginfo>
											<labels>
												<label2>Caribbean</label2>
											</labels>
										</clipitem>
										<enabled>TRUE</enabled>
										<locked>FALSE</locked>
										<outputchannelindex>3</outputchannelindex>
									</track>
									<track TL.SQTrackAudioKeyframeStyle="0" TL.SQTrackShy="0" TL.SQTrackExpandedHeight="25" TL.SQTrackExpanded="0" MZ.TrackTargeted="1" PannerIsInverted="true" PannerName="Balance" currentExplodedTrackIndex="0" totalExplodedTrackCount="1" premiereTrackType="Stereo">
										<clipitem id="clipitem-229" premiereChannelType="mono">
											<masterclipid>masterclip-78</masterclipid>
											<name>GRIMSSKJTT02.WAV</name>
											<enabled>TRUE</enabled>
											<duration>100249</duration>
											<rate>
												<timebase>25</timebase>
												<ntsc>FALSE</ntsc>
											</rate>
											<start>0</start>
											<end>9692</end>
											<in>13454</in>
											<out>23146</out>
											<pproTicksIn>136701250560000</pproTicksIn>
											<pproTicksOut>235178173440000</pproTicksOut>
											<file id="file-73"/>
											<sourcetrack>
												<mediatype>audio</mediatype>
												<trackindex>4</trackindex>
											</sourcetrack>
											<link>
												<linkclipref>clipitem-223</linkclipref>
												<mediatype>audio</mediatype>
												<trackindex>1</trackindex>
												<clipindex>1</clipindex>
												<groupindex>1</groupindex>
											</link>
											<link>
												<linkclipref>clipitem-225</linkclipref>
												<mediatype>audio</mediatype>
												<trackindex>2</trackindex>
												<clipindex>1</clipindex>
												<groupindex>1</groupindex>
											</link>
											<link>
												<linkclipref>clipitem-227</linkclipref>
												<mediatype>audio</mediatype>
												<trackindex>3</trackindex>
												<clipindex>1</clipindex>
												<groupindex>1</groupindex>
											</link>
											<link>
												<linkclipref>clipitem-229</linkclipref>
												<mediatype>audio</mediatype>
												<trackindex>4</trackindex>
												<clipindex>1</clipindex>
												<groupindex>1</groupindex>
											</link>
											<link>
												<linkclipref>clipitem-231</linkclipref>
												<mediatype>audio</mediatype>
												<trackindex>5</trackindex>
												<clipindex>1</clipindex>
												<groupindex>1</groupindex>
											</link>
											<link>
												<linkclipref>clipitem-233</linkclipref>
												<mediatype>audio</mediatype>
												<trackindex>6</trackindex>
												<clipindex>1</clipindex>
												<groupindex>1</groupindex>
											</link>
											<logginginfo>
												<description></description>
												<scene>GRIMSSKJT</scene>
												<shottake></shottake>
												<lognote></lognote>
											</logginginfo>
											<labels>
												<label2>Caribbean</label2>
											</labels>
										</clipitem>
										<clipitem id="clipitem-230" premiereChannelType="mono">
											<masterclipid>masterclip-78</masterclipid>
											<name>GRIMSSKJTT02.WAV</name>
											<enabled>TRUE</enabled>
											<duration>100249</duration>
											<rate>
												<timebase>25</timebase>
												<ntsc>FALSE</ntsc>
											</rate>
											<start>9692</start>
											<end>45094</end>
											<in>23146</in>
											<out>58548</out>
											<pproTicksIn>235178173440000</pproTicksIn>
											<pproTicksOut>594885150720000</pproTicksOut>
											<file id="file-73"/>
											<sourcetrack>
												<mediatype>audio</mediatype>
												<trackindex>4</trackindex>
											</sourcetrack>
											<link>
												<linkclipref>clipitem-224</linkclipref>
												<mediatype>audio</mediatype>
												<trackindex>1</trackindex>
												<clipindex>2</clipindex>
												<groupindex>1</groupindex>
											</link>
											<link>
												<linkclipref>clipitem-226</linkclipref>
												<mediatype>audio</mediatype>
												<trackindex>2</trackindex>
												<clipindex>2</clipindex>
												<groupindex>1</groupindex>
											</link>
											<link>
												<linkclipref>clipitem-228</linkclipref>
												<mediatype>audio</mediatype>
												<trackindex>3</trackindex>
												<clipindex>2</clipindex>
												<groupindex>1</groupindex>
											</link>
											<link>
												<linkclipref>clipitem-230</linkclipref>
												<mediatype>audio</mediatype>
												<trackindex>4</trackindex>
												<clipindex>2</clipindex>
												<groupindex>1</groupindex>
											</link>
											<link>
												<linkclipref>clipitem-232</linkclipref>
												<mediatype>audio</mediatype>
												<trackindex>5</trackindex>
												<clipindex>2</clipindex>
												<groupindex>1</groupindex>
											</link>
											<link>
												<linkclipref>clipitem-234</linkclipref>
												<mediatype>audio</mediatype>
												<trackindex>6</trackindex>
												<clipindex>2</clipindex>
												<groupindex>1</groupindex>
											</link>
											<logginginfo>
												<description></description>
												<scene>GRIMSSKJT</scene>
												<shottake></shottake>
												<lognote></lognote>
											</logginginfo>
											<labels>
												<label2>Caribbean</label2>
											</labels>
										</clipitem>
										<enabled>TRUE</enabled>
										<locked>FALSE</locked>
										<outputchannelindex>4</outputchannelindex>
									</track>
									<track TL.SQTrackAudioKeyframeStyle="0" TL.SQTrackShy="0" TL.SQTrackExpandedHeight="25" TL.SQTrackExpanded="0" MZ.TrackTargeted="0" PannerCurrentValue="0" PannerIsInverted="true" PannerStartKeyframe="-91445760000000000,0.,0,0,0,0,0,0" PannerName="Balance" currentExplodedTrackIndex="0" totalExplodedTrackCount="1" premiereTrackType="Stereo">
										<clipitem id="clipitem-231" premiereChannelType="mono">
											<masterclipid>masterclip-78</masterclipid>
											<name>GRIMSSKJTT02.WAV</name>
											<enabled>TRUE</enabled>
											<duration>100249</duration>
											<rate>
												<timebase>25</timebase>
												<ntsc>FALSE</ntsc>
											</rate>
											<start>0</start>
											<end>9692</end>
											<in>13454</in>
											<out>23146</out>
											<pproTicksIn>136701250560000</pproTicksIn>
											<pproTicksOut>235178173440000</pproTicksOut>
											<file id="file-73"/>
											<sourcetrack>
												<mediatype>audio</mediatype>
												<trackindex>5</trackindex>
											</sourcetrack>
											<link>
												<linkclipref>clipitem-223</linkclipref>
												<mediatype>audio</mediatype>
												<trackindex>1</trackindex>
												<clipindex>1</clipindex>
												<groupindex>1</groupindex>
											</link>
											<link>
												<linkclipref>clipitem-225</linkclipref>
												<mediatype>audio</mediatype>
												<trackindex>2</trackindex>
												<clipindex>1</clipindex>
												<groupindex>1</groupindex>
											</link>
											<link>
												<linkclipref>clipitem-227</linkclipref>
												<mediatype>audio</mediatype>
												<trackindex>3</trackindex>
												<clipindex>1</clipindex>
												<groupindex>1</groupindex>
											</link>
											<link>
												<linkclipref>clipitem-229</linkclipref>
												<mediatype>audio</mediatype>
												<trackindex>4</trackindex>
												<clipindex>1</clipindex>
												<groupindex>1</groupindex>
											</link>
											<link>
												<linkclipref>clipitem-231</linkclipref>
												<mediatype>audio</mediatype>
												<trackindex>5</trackindex>
												<clipindex>1</clipindex>
												<groupindex>1</groupindex>
											</link>
											<link>
												<linkclipref>clipitem-233</linkclipref>
												<mediatype>audio</mediatype>
												<trackindex>6</trackindex>
												<clipindex>1</clipindex>
												<groupindex>1</groupindex>
											</link>
											<logginginfo>
												<description></description>
												<scene>GRIMSSKJT</scene>
												<shottake></shottake>
												<lognote></lognote>
											</logginginfo>
											<labels>
												<label2>Caribbean</label2>
											</labels>
										</clipitem>
										<clipitem id="clipitem-232" premiereChannelType="mono">
											<masterclipid>masterclip-78</masterclipid>
											<name>GRIMSSKJTT02.WAV</name>
											<enabled>TRUE</enabled>
											<duration>100249</duration>
											<rate>
												<timebase>25</timebase>
												<ntsc>FALSE</ntsc>
											</rate>
											<start>9692</start>
											<end>45094</end>
											<in>23146</in>
											<out>58548</out>
											<pproTicksIn>235178173440000</pproTicksIn>
											<pproTicksOut>594885150720000</pproTicksOut>
											<file id="file-73"/>
											<sourcetrack>
												<mediatype>audio</mediatype>
												<trackindex>5</trackindex>
											</sourcetrack>
											<link>
												<linkclipref>clipitem-224</linkclipref>
												<mediatype>audio</mediatype>
												<trackindex>1</trackindex>
												<clipindex>2</clipindex>
												<groupindex>1</groupindex>
											</link>
											<link>
												<linkclipref>clipitem-226</linkclipref>
												<mediatype>audio</mediatype>
												<trackindex>2</trackindex>
												<clipindex>2</clipindex>
												<groupindex>1</groupindex>
											</link>
											<link>
												<linkclipref>clipitem-228</linkclipref>
												<mediatype>audio</mediatype>
												<trackindex>3</trackindex>
												<clipindex>2</clipindex>
												<groupindex>1</groupindex>
											</link>
											<link>
												<linkclipref>clipitem-230</linkclipref>
												<mediatype>audio</mediatype>
												<trackindex>4</trackindex>
												<clipindex>2</clipindex>
												<groupindex>1</groupindex>
											</link>
											<link>
												<linkclipref>clipitem-232</linkclipref>
												<mediatype>audio</mediatype>
												<trackindex>5</trackindex>
												<clipindex>2</clipindex>
												<groupindex>1</groupindex>
											</link>
											<link>
												<linkclipref>clipitem-234</linkclipref>
												<mediatype>audio</mediatype>
												<trackindex>6</trackindex>
												<clipindex>2</clipindex>
												<groupindex>1</groupindex>
											</link>
											<logginginfo>
												<description></description>
												<scene>GRIMSSKJT</scene>
												<shottake></shottake>
												<lognote></lognote>
											</logginginfo>
											<labels>
												<label2>Caribbean</label2>
											</labels>
										</clipitem>
										<enabled>TRUE</enabled>
										<locked>FALSE</locked>
										<outputchannelindex>5</outputchannelindex>
									</track>
									<track TL.SQTrackAudioKeyframeStyle="0" TL.SQTrackShy="0" TL.SQTrackExpandedHeight="25" TL.SQTrackExpanded="0" MZ.TrackTargeted="0" PannerIsInverted="true" PannerName="Balance" currentExplodedTrackIndex="0" totalExplodedTrackCount="1" premiereTrackType="Stereo">
										<clipitem id="clipitem-233" premiereChannelType="mono">
											<masterclipid>masterclip-78</masterclipid>
											<name>GRIMSSKJTT02.WAV</name>
											<enabled>TRUE</enabled>
											<duration>100249</duration>
											<rate>
												<timebase>25</timebase>
												<ntsc>FALSE</ntsc>
											</rate>
											<start>0</start>
											<end>9692</end>
											<in>13454</in>
											<out>23146</out>
											<pproTicksIn>136701250560000</pproTicksIn>
											<pproTicksOut>235178173440000</pproTicksOut>
											<file id="file-73"/>
											<sourcetrack>
												<mediatype>audio</mediatype>
												<trackindex>6</trackindex>
											</sourcetrack>
											<link>
												<linkclipref>clipitem-223</linkclipref>
												<mediatype>audio</mediatype>
												<trackindex>1</trackindex>
												<clipindex>1</clipindex>
												<groupindex>1</groupindex>
											</link>
											<link>
												<linkclipref>clipitem-225</linkclipref>
												<mediatype>audio</mediatype>
												<trackindex>2</trackindex>
												<clipindex>1</clipindex>
												<groupindex>1</groupindex>
											</link>
											<link>
												<linkclipref>clipitem-227</linkclipref>
												<mediatype>audio</mediatype>
												<trackindex>3</trackindex>
												<clipindex>1</clipindex>
												<groupindex>1</groupindex>
											</link>
											<link>
												<linkclipref>clipitem-229</linkclipref>
												<mediatype>audio</mediatype>
												<trackindex>4</trackindex>
												<clipindex>1</clipindex>
												<groupindex>1</groupindex>
											</link>
											<link>
												<linkclipref>clipitem-231</linkclipref>
												<mediatype>audio</mediatype>
												<trackindex>5</trackindex>
												<clipindex>1</clipindex>
												<groupindex>1</groupindex>
											</link>
											<link>
												<linkclipref>clipitem-233</linkclipref>
												<mediatype>audio</mediatype>
												<trackindex>6</trackindex>
												<clipindex>1</clipindex>
												<groupindex>1</groupindex>
											</link>
											<logginginfo>
												<description></description>
												<scene>GRIMSSKJT</scene>
												<shottake></shottake>
												<lognote></lognote>
											</logginginfo>
											<labels>
												<label2>Caribbean</label2>
											</labels>
										</clipitem>
										<clipitem id="clipitem-234" premiereChannelType="mono">
											<masterclipid>masterclip-78</masterclipid>
											<name>GRIMSSKJTT02.WAV</name>
											<enabled>TRUE</enabled>
											<duration>100249</duration>
											<rate>
												<timebase>25</timebase>
												<ntsc>FALSE</ntsc>
											</rate>
											<start>9692</start>
											<end>45094</end>
											<in>23146</in>
											<out>58548</out>
											<pproTicksIn>235178173440000</pproTicksIn>
											<pproTicksOut>594885150720000</pproTicksOut>
											<file id="file-73"/>
											<sourcetrack>
												<mediatype>audio</mediatype>
												<trackindex>6</trackindex>
											</sourcetrack>
											<link>
												<linkclipref>clipitem-224</linkclipref>
												<mediatype>audio</mediatype>
												<trackindex>1</trackindex>
												<clipindex>2</clipindex>
												<groupindex>1</groupindex>
											</link>
											<link>
												<linkclipref>clipitem-226</linkclipref>
												<mediatype>audio</mediatype>
												<trackindex>2</trackindex>
												<clipindex>2</clipindex>
												<groupindex>1</groupindex>
											</link>
											<link>
												<linkclipref>clipitem-228</linkclipref>
												<mediatype>audio</mediatype>
												<trackindex>3</trackindex>
												<clipindex>2</clipindex>
												<groupindex>1</groupindex>
											</link>
											<link>
												<linkclipref>clipitem-230</linkclipref>
												<mediatype>audio</mediatype>
												<trackindex>4</trackindex>
												<clipindex>2</clipindex>
												<groupindex>1</groupindex>
											</link>
											<link>
												<linkclipref>clipitem-232</linkclipref>
												<mediatype>audio</mediatype>
												<trackindex>5</trackindex>
												<clipindex>2</clipindex>
												<groupindex>1</groupindex>
											</link>
											<link>
												<linkclipref>clipitem-234</linkclipref>
												<mediatype>audio</mediatype>
												<trackindex>6</trackindex>
												<clipindex>2</clipindex>
												<groupindex>1</groupindex>
											</link>
											<logginginfo>
												<description></description>
												<scene>GRIMSSKJT</scene>
												<shottake></shottake>
												<lognote></lognote>
											</logginginfo>
											<labels>
												<label2>Caribbean</label2>
											</labels>
										</clipitem>
										<enabled>TRUE</enabled>
										<locked>FALSE</locked>
										<outputchannelindex>6</outputchannelindex>
									</track>
									<track TL.SQTrackAudioKeyframeStyle="0" TL.SQTrackShy="0" TL.SQTrackExpandedHeight="25" TL.SQTrackExpanded="0" MZ.TrackTargeted="0" PannerCurrentValue="0.5" PannerIsInverted="true" PannerStartKeyframe="-91445760000000000,0.5,0,0,0,0,0,0" PannerName="Balance" currentExplodedTrackIndex="0" totalExplodedTrackCount="1" premiereTrackType="Stereo">
										<clipitem id="clipitem-235" premiereChannelType="mono">
											<masterclipid>masterclip-76</masterclipid>
											<name>Clip0003.mov</name>
											<enabled>TRUE</enabled>
											<duration>45096</duration>
											<rate>
												<timebase>25</timebase>
												<ntsc>FALSE</ntsc>
											</rate>
											<start>0</start>
											<end>9692</end>
											<in>1</in>
											<out>9693</out>
											<pproTicksIn>10160640000</pproTicksIn>
											<pproTicksOut>98487083520000</pproTicksOut>
											<file id="file-71"/>
											<sourcetrack>
												<mediatype>audio</mediatype>
												<trackindex>1</trackindex>
											</sourcetrack>
											<link>
												<linkclipref>clipitem-219</linkclipref>
												<mediatype>video</mediatype>
												<trackindex>1</trackindex>
												<clipindex>1</clipindex>
											</link>
											<link>
												<linkclipref>clipitem-235</linkclipref>
												<mediatype>audio</mediatype>
												<trackindex>7</trackindex>
												<clipindex>1</clipindex>
												<groupindex>1</groupindex>
											</link>
											<link>
												<linkclipref>clipitem-237</linkclipref>
												<mediatype>audio</mediatype>
												<trackindex>8</trackindex>
												<clipindex>1</clipindex>
												<groupindex>1</groupindex>
											</link>
											<logginginfo>
												<description>rap</description>
												<scene></scene>
												<shottake></shottake>
												<lognote></lognote>
											</logginginfo>
											<labels>
												<label2>Iris</label2>
											</labels>
										</clipitem>
										<clipitem id="clipitem-236" premiereChannelType="mono">
											<masterclipid>masterclip-76</masterclipid>
											<name>Clip0003.mov</name>
											<enabled>TRUE</enabled>
											<duration>45096</duration>
											<rate>
												<timebase>25</timebase>
												<ntsc>FALSE</ntsc>
											</rate>
											<start>9692</start>
											<end>45094</end>
											<in>9693</in>
											<out>45095</out>
											<pproTicksIn>98487083520000</pproTicksIn>
											<pproTicksOut>458194060800000</pproTicksOut>
											<file id="file-71"/>
											<sourcetrack>
												<mediatype>audio</mediatype>
												<trackindex>1</trackindex>
											</sourcetrack>
											<link>
												<linkclipref>clipitem-220</linkclipref>
												<mediatype>video</mediatype>
												<trackindex>1</trackindex>
												<clipindex>2</clipindex>
											</link>
											<link>
												<linkclipref>clipitem-236</linkclipref>
												<mediatype>audio</mediatype>
												<trackindex>7</trackindex>
												<clipindex>2</clipindex>
												<groupindex>1</groupindex>
											</link>
											<link>
												<linkclipref>clipitem-238</linkclipref>
												<mediatype>audio</mediatype>
												<trackindex>8</trackindex>
												<clipindex>2</clipindex>
												<groupindex>1</groupindex>
											</link>
											<logginginfo>
												<description>rap</description>
												<scene></scene>
												<shottake></shottake>
												<lognote></lognote>
											</logginginfo>
											<labels>
												<label2>Iris</label2>
											</labels>
										</clipitem>
										<enabled>FALSE</enabled>
										<locked>FALSE</locked>
										<outputchannelindex>1</outputchannelindex>
									</track>
									<track TL.SQTrackAudioKeyframeStyle="0" TL.SQTrackShy="0" TL.SQTrackExpandedHeight="25" TL.SQTrackExpanded="0" MZ.TrackTargeted="0" PannerCurrentValue="0.5" PannerIsInverted="true" PannerStartKeyframe="-91445760000000000,0.5,0,0,0,0,0,0" PannerName="Balance" currentExplodedTrackIndex="0" totalExplodedTrackCount="1" premiereTrackType="Stereo">
										<clipitem id="clipitem-237" premiereChannelType="mono">
											<masterclipid>masterclip-76</masterclipid>
											<name>Clip0003.mov</name>
											<enabled>TRUE</enabled>
											<duration>45096</duration>
											<rate>
												<timebase>25</timebase>
												<ntsc>FALSE</ntsc>
											</rate>
											<start>0</start>
											<end>9692</end>
											<in>1</in>
											<out>9693</out>
											<pproTicksIn>10160640000</pproTicksIn>
											<pproTicksOut>98487083520000</pproTicksOut>
											<file id="file-71"/>
											<sourcetrack>
												<mediatype>audio</mediatype>
												<trackindex>2</trackindex>
											</sourcetrack>
											<link>
												<linkclipref>clipitem-219</linkclipref>
												<mediatype>video</mediatype>
												<trackindex>1</trackindex>
												<clipindex>1</clipindex>
											</link>
											<link>
												<linkclipref>clipitem-235</linkclipref>
												<mediatype>audio</mediatype>
												<trackindex>7</trackindex>
												<clipindex>1</clipindex>
												<groupindex>1</groupindex>
											</link>
											<link>
												<linkclipref>clipitem-237</linkclipref>
												<mediatype>audio</mediatype>
												<trackindex>8</trackindex>
												<clipindex>1</clipindex>
												<groupindex>1</groupindex>
											</link>
											<logginginfo>
												<description>rap</description>
												<scene></scene>
												<shottake></shottake>
												<lognote></lognote>
											</logginginfo>
											<labels>
												<label2>Iris</label2>
											</labels>
										</clipitem>
										<clipitem id="clipitem-238" premiereChannelType="mono">
											<masterclipid>masterclip-76</masterclipid>
											<name>Clip0003.mov</name>
											<enabled>TRUE</enabled>
											<duration>45096</duration>
											<rate>
												<timebase>25</timebase>
												<ntsc>FALSE</ntsc>
											</rate>
											<start>9692</start>
											<end>45094</end>
											<in>9693</in>
											<out>45095</out>
											<pproTicksIn>98487083520000</pproTicksIn>
											<pproTicksOut>458194060800000</pproTicksOut>
											<file id="file-71"/>
											<sourcetrack>
												<mediatype>audio</mediatype>
												<trackindex>2</trackindex>
											</sourcetrack>
											<link>
												<linkclipref>clipitem-220</linkclipref>
												<mediatype>video</mediatype>
												<trackindex>1</trackindex>
												<clipindex>2</clipindex>
											</link>
											<link>
												<linkclipref>clipitem-236</linkclipref>
												<mediatype>audio</mediatype>
												<trackindex>7</trackindex>
												<clipindex>2</clipindex>
												<groupindex>1</groupindex>
											</link>
											<link>
												<linkclipref>clipitem-238</linkclipref>
												<mediatype>audio</mediatype>
												<trackindex>8</trackindex>
												<clipindex>2</clipindex>
												<groupindex>1</groupindex>
											</link>
											<logginginfo>
												<description>rap</description>
												<scene></scene>
												<shottake></shottake>
												<lognote></lognote>
											</logginginfo>
											<labels>
												<label2>Iris</label2>
											</labels>
										</clipitem>
										<enabled>FALSE</enabled>
										<locked>FALSE</locked>
										<outputchannelindex>2</outputchannelindex>
									</track>
									<track TL.SQTrackAudioKeyframeStyle="0" TL.SQTrackShy="0" TL.SQTrackExpandedHeight="25" TL.SQTrackExpanded="0" MZ.TrackTargeted="0" PannerCurrentValue="0.5" PannerIsInverted="true" PannerStartKeyframe="-91445760000000000,0.5,0,0,0,0,0,0" PannerName="Balance" currentExplodedTrackIndex="0" totalExplodedTrackCount="1" premiereTrackType="Stereo">
										<clipitem id="clipitem-239" premiereChannelType="mono">
											<masterclipid>masterclip-77</masterclipid>
											<name>C0005.mov</name>
											<enabled>TRUE</enabled>
											<duration>44760</duration>
											<rate>
												<timebase>25</timebase>
												<ntsc>FALSE</ntsc>
											</rate>
											<start>0</start>
											<end>9692</end>
											<in>110</in>
											<out>9802</out>
											<pproTicksIn>1117670400000</pproTicksIn>
											<pproTicksOut>99594593280000</pproTicksOut>
											<file id="file-72"/>
											<sourcetrack>
												<mediatype>audio</mediatype>
												<trackindex>1</trackindex>
											</sourcetrack>
											<link>
												<linkclipref>clipitem-221</linkclipref>
												<mediatype>video</mediatype>
												<trackindex>2</trackindex>
												<clipindex>1</clipindex>
											</link>
											<link>
												<linkclipref>clipitem-239</linkclipref>
												<mediatype>audio</mediatype>
												<trackindex>9</trackindex>
												<clipindex>1</clipindex>
												<groupindex>1</groupindex>
											</link>
											<link>
												<linkclipref>clipitem-241</linkclipref>
												<mediatype>audio</mediatype>
												<trackindex>10</trackindex>
												<clipindex>1</clipindex>
												<groupindex>1</groupindex>
											</link>
											<logginginfo>
												<description>rap asians</description>
												<scene></scene>
												<shottake></shottake>
												<lognote></lognote>
											</logginginfo>
											<labels>
												<label2>Iris</label2>
											</labels>
										</clipitem>
										<clipitem id="clipitem-240" premiereChannelType="mono">
											<masterclipid>masterclip-77</masterclipid>
											<name>C0005.mov</name>
											<enabled>TRUE</enabled>
											<duration>44760</duration>
											<rate>
												<timebase>25</timebase>
												<ntsc>FALSE</ntsc>
											</rate>
											<start>9692</start>
											<end>44650</end>
											<in>9802</in>
											<out>44760</out>
											<pproTicksIn>99594593280000</pproTicksIn>
											<pproTicksOut>454790246400000</pproTicksOut>
											<file id="file-72"/>
											<sourcetrack>
												<mediatype>audio</mediatype>
												<trackindex>1</trackindex>
											</sourcetrack>
											<link>
												<linkclipref>clipitem-222</linkclipref>
												<mediatype>video</mediatype>
												<trackindex>2</trackindex>
												<clipindex>2</clipindex>
											</link>
											<link>
												<linkclipref>clipitem-240</linkclipref>
												<mediatype>audio</mediatype>
												<trackindex>9</trackindex>
												<clipindex>2</clipindex>
												<groupindex>1</groupindex>
											</link>
											<link>
												<linkclipref>clipitem-242</linkclipref>
												<mediatype>audio</mediatype>
												<trackindex>10</trackindex>
												<clipindex>2</clipindex>
												<groupindex>1</groupindex>
											</link>
											<logginginfo>
												<description>rap asians</description>
												<scene></scene>
												<shottake></shottake>
												<lognote></lognote>
											</logginginfo>
											<labels>
												<label2>Iris</label2>
											</labels>
										</clipitem>
										<enabled>FALSE</enabled>
										<locked>FALSE</locked>
										<outputchannelindex>1</outputchannelindex>
									</track>
									<track TL.SQTrackAudioKeyframeStyle="0" TL.SQTrackShy="0" TL.SQTrackExpandedHeight="25" TL.SQTrackExpanded="0" MZ.TrackTargeted="0" PannerCurrentValue="0.5" PannerIsInverted="true" PannerStartKeyframe="-91445760000000000,0.5,0,0,0,0,0,0" PannerName="Balance" currentExplodedTrackIndex="0" totalExplodedTrackCount="1" premiereTrackType="Stereo">
										<clipitem id="clipitem-241" premiereChannelType="mono">
											<masterclipid>masterclip-77</masterclipid>
											<name>C0005.mov</name>
											<enabled>TRUE</enabled>
											<duration>44760</duration>
											<rate>
												<timebase>25</timebase>
												<ntsc>FALSE</ntsc>
											</rate>
											<start>0</start>
											<end>9692</end>
											<in>110</in>
											<out>9802</out>
											<pproTicksIn>1117670400000</pproTicksIn>
											<pproTicksOut>99594593280000</pproTicksOut>
											<file id="file-72"/>
											<sourcetrack>
												<mediatype>audio</mediatype>
												<trackindex>2</trackindex>
											</sourcetrack>
											<link>
												<linkclipref>clipitem-221</linkclipref>
												<mediatype>video</mediatype>
												<trackindex>2</trackindex>
												<clipindex>1</clipindex>
											</link>
											<link>
												<linkclipref>clipitem-239</linkclipref>
												<mediatype>audio</mediatype>
												<trackindex>9</trackindex>
												<clipindex>1</clipindex>
												<groupindex>1</groupindex>
											</link>
											<link>
												<linkclipref>clipitem-241</linkclipref>
												<mediatype>audio</mediatype>
												<trackindex>10</trackindex>
												<clipindex>1</clipindex>
												<groupindex>1</groupindex>
											</link>
											<logginginfo>
												<description>rap asians</description>
												<scene></scene>
												<shottake></shottake>
												<lognote></lognote>
											</logginginfo>
											<labels>
												<label2>Iris</label2>
											</labels>
										</clipitem>
										<clipitem id="clipitem-242" premiereChannelType="mono">
											<masterclipid>masterclip-77</masterclipid>
											<name>C0005.mov</name>
											<enabled>TRUE</enabled>
											<duration>44760</duration>
											<rate>
												<timebase>25</timebase>
												<ntsc>FALSE</ntsc>
											</rate>
											<start>9692</start>
											<end>44650</end>
											<in>9802</in>
											<out>44760</out>
											<pproTicksIn>99594593280000</pproTicksIn>
											<pproTicksOut>454790246400000</pproTicksOut>
											<file id="file-72"/>
											<sourcetrack>
												<mediatype>audio</mediatype>
												<trackindex>2</trackindex>
											</sourcetrack>
											<link>
												<linkclipref>clipitem-222</linkclipref>
												<mediatype>video</mediatype>
												<trackindex>2</trackindex>
												<clipindex>2</clipindex>
											</link>
											<link>
												<linkclipref>clipitem-240</linkclipref>
												<mediatype>audio</mediatype>
												<trackindex>9</trackindex>
												<clipindex>2</clipindex>
												<groupindex>1</groupindex>
											</link>
											<link>
												<linkclipref>clipitem-242</linkclipref>
												<mediatype>audio</mediatype>
												<trackindex>10</trackindex>
												<clipindex>2</clipindex>
												<groupindex>1</groupindex>
											</link>
											<logginginfo>
												<description>rap asians</description>
												<scene></scene>
												<shottake></shottake>
												<lognote></lognote>
											</logginginfo>
											<labels>
												<label2>Iris</label2>
											</labels>
										</clipitem>
										<enabled>FALSE</enabled>
										<locked>FALSE</locked>
										<outputchannelindex>2</outputchannelindex>
									</track>
								</audio>
							</media>
							<timecode>
								<rate>
									<timebase>25</timebase>
									<ntsc>FALSE</ntsc>
								</rate>
								<string>15:06:52:04</string>
								<frame>1360304</frame>
								<displayformat>NDF</displayformat>
							</timecode>
						</sequence>
							<filter>
								<effect>
									<name>Gain</name>
									<effectid>{61756678, 4761696e, 4b657947}</effectid>
									<effecttype>filter</effecttype>
									<mediatype>audio</mediatype>
									<parameter authoringApp="PremierePro">
										<parameterid>Gain(dB)</parameterid>
										<name>Gain(dB)</name>
										<valuemin>-96</valuemin>
										<valuemax>96</valuemax>
										<value>6</value>
									</parameter>
								</effect>
							</filter>
							<filter>
								<effect>
									<name>Audio Levels</name>
									<effectid>audiolevels</effectid>
									<effectcategory>audiolevels</effectcategory>
									<effecttype>audiolevels</effecttype>
									<mediatype>audio</mediatype>
									<parameter authoringApp="PremierePro">
										<parameterid>level</parameterid>
										<name>Level</name>
										<valuemin>0</valuemin>
										<valuemax>3.98109</valuemax>
										<value>1.99053</value>
									</parameter>
								</effect>
							</filter>
						<link>
							<linkclipref>clipitem-218</linkclipref>
							<mediatype>audio</mediatype>
							<trackindex>9</trackindex>
							<clipindex>11</clipindex>
							<groupindex>1</groupindex>
						</link>
						<link>
							<linkclipref>clipitem-297</linkclipref>
							<mediatype>audio</mediatype>
							<trackindex>11</trackindex>
							<clipindex>25</clipindex>
							<groupindex>1</groupindex>
						</link>
						<link>
							<linkclipref>clipitem-357</linkclipref>
							<mediatype>audio</mediatype>
							<trackindex>13</trackindex>
							<clipindex>27</clipindex>
							<groupindex>1</groupindex>
						</link>
						<link>
							<linkclipref>clipitem-438</linkclipref>
							<mediatype>audio</mediatype>
							<trackindex>15</trackindex>
							<clipindex>14</clipindex>
							<groupindex>1</groupindex>
						</link>
						<link>
							<linkclipref>clipitem-487</linkclipref>
							<mediatype>audio</mediatype>
							<trackindex>17</trackindex>
							<clipindex>10</clipindex>
							<groupindex>1</groupindex>
						</link>
						<labels>
							<label2>Forest</label2>
						</labels>
					</clipitem>
					<clipitem id="clipitem-243" premiereChannelType="mono">
						<masterclipid>masterclip-79</masterclipid>
						<name>backstage-T01-Multicam</name>
						<enabled>TRUE</enabled>
						<duration>59983</duration>
						<rate>
							<timebase>25</timebase>
							<ntsc>FALSE</ntsc>
						</rate>
						<start>17354</start>
						<end>17424</end>
						<in>20272</in>
						<out>20342</out>
						<pproTicksIn>205976494080000</pproTicksIn>
						<pproTicksOut>206687738880000</pproTicksOut>
						<sequence id="sequence-8" TL.SQAudioVisibleBase="0" TL.SQVideoVisibleBase="0" TL.SQVisibleBaseTime="0" TL.SQAVDividerPosition="0.5" TL.SQHideShyTracks="0" TL.SQHeaderWidth="184" Monitor.ProgramZoomOut="609465669120000" Monitor.ProgramZoomIn="0" TL.SQTimePerPixel="1.3670556061987238" AM.TrackVScrollPosition="0" AM.TrackScrollPosition="0" MZ.EditLine="0" MZ.Sequence.PreviewFrameSizeHeight="1080" MZ.Sequence.PreviewFrameSizeWidth="1920" MZ.Sequence.AudioTimeDisplayFormat="200" MZ.Sequence.PreviewRenderingClassID="1061109567" MZ.Sequence.PreviewRenderingPresetCodec="1634755438" MZ.Sequence.PreviewRenderingPresetPath="EncoderPresets/SequencePreview/e43ae329-eea5-4a04-b964-b72cf263ee81/Blackmagic QuickTime Movie.epr" MZ.Sequence.PreviewUseMaxRenderQuality="false" MZ.Sequence.PreviewUseMaxBitDepth="false" MZ.Sequence.EditingModeGUID="e43ae329-eea5-4a04-b964-b72cf263ee81" MZ.Sequence.VideoTimeDisplayFormat="101" MZ.WorkOutPoint="15240960000000" MZ.WorkInPoint="0" MZ.ZeroPoint="12712779394560000">
							<duration>59983</duration>
							<rate>
								<timebase>25</timebase>
								<ntsc>FALSE</ntsc>
							</rate>
							<name>backstage-T01-Multicam</name>
							<media>
								<video>
									<format>
										<samplecharacteristics>
											<rate>
												<timebase>25</timebase>
												<ntsc>FALSE</ntsc>
											</rate>
											<codec>
												<name>Apple ProRes 422</name>
												<appspecificdata>
													<appname>Final Cut Pro</appname>
													<appmanufacturer>Apple Inc.</appmanufacturer>
													<appversion>7.0</appversion>
													<data>
														<qtcodec>
															<codecname>Apple ProRes 422</codecname>
															<codectypename>Apple ProRes 422</codectypename>
															<codectypecode>apcn</codectypecode>
															<codecvendorcode>appl</codecvendorcode>
															<spatialquality>1024</spatialquality>
															<temporalquality>0</temporalquality>
															<keyframerate>0</keyframerate>
															<datarate>0</datarate>
														</qtcodec>
													</data>
												</appspecificdata>
											</codec>
											<width>1920</width>
											<height>1080</height>
											<anamorphic>FALSE</anamorphic>
											<pixelaspectratio>square</pixelaspectratio>
											<fielddominance>none</fielddominance>
											<colordepth>24</colordepth>
										</samplecharacteristics>
									</format>
									<track TL.SQTrackShy="0" TL.SQTrackExpandedHeight="50" TL.SQTrackExpanded="1" MZ.TrackTargeted="0">
										<clipitem id="clipitem-244">
											<masterclipid>masterclip-80</masterclipid>
											<name>C0002.mov</name>
											<enabled>TRUE</enabled>
											<duration>44760</duration>
											<rate>
												<timebase>25</timebase>
												<ntsc>FALSE</ntsc>
											</rate>
											<start>172</start>
											<end>580</end>
											<in>0</in>
											<out>408</out>
											<pproTicksIn>0</pproTicksIn>
											<pproTicksOut>4145541120000</pproTicksOut>
											<alphatype>none</alphatype>
											<pixelaspectratio>square</pixelaspectratio>
											<anamorphic>FALSE</anamorphic>
											<file id="file-74">
												<name>C0002.mov</name>
												<pathurl>file://localhost/Volumes/Bingen/Prosjekter/MYNT194016%20WHATS%20COOKING/Media/Episode%2005%20N-ordet/VB-opptak/20042016/KAM%20C%20(A7sii)/ProRes/C0002.mov</pathurl>
												<rate>
													<timebase>25</timebase>
													<ntsc>FALSE</ntsc>
												</rate>
												<duration>44760</duration>
												<timecode>
													<rate>
														<timebase>25</timebase>
														<ntsc>FALSE</ntsc>
													</rate>
													<string>13:54:23:00</string>
													<frame>1251575</frame>
													<displayformat>NDF</displayformat>
													<reel>
														<name></name>
													</reel>
												</timecode>
												<media>
													<video>
														<samplecharacteristics>
															<rate>
																<timebase>25</timebase>
																<ntsc>FALSE</ntsc>
															</rate>
															<width>1920</width>
															<height>1080</height>
															<anamorphic>FALSE</anamorphic>
															<pixelaspectratio>square</pixelaspectratio>
															<fielddominance>none</fielddominance>
														</samplecharacteristics>
													</video>
													<audio>
														<samplecharacteristics>
															<depth>16</depth>
															<samplerate>48000</samplerate>
														</samplecharacteristics>
														<channelcount>1</channelcount>
														<layout>stereo</layout>
														<audiochannel>
															<sourcechannel>1</sourcechannel>
															<channellabel>left</channellabel>
														</audiochannel>
													</audio>
													<audio>
														<samplecharacteristics>
															<depth>16</depth>
															<samplerate>48000</samplerate>
														</samplecharacteristics>
														<channelcount>1</channelcount>
														<layout>stereo</layout>
														<audiochannel>
															<sourcechannel>2</sourcechannel>
															<channellabel>right</channellabel>
														</audiochannel>
													</audio>
												</media>
											</file>
											<link>
												<linkclipref>clipitem-244</linkclipref>
												<mediatype>video</mediatype>
												<trackindex>1</trackindex>
												<clipindex>1</clipindex>
											</link>
											<link>
												<linkclipref>clipitem-261</linkclipref>
												<mediatype>audio</mediatype>
												<trackindex>7</trackindex>
												<clipindex>1</clipindex>
												<groupindex>1</groupindex>
											</link>
											<link>
												<linkclipref>clipitem-264</linkclipref>
												<mediatype>audio</mediatype>
												<trackindex>8</trackindex>
												<clipindex>1</clipindex>
												<groupindex>1</groupindex>
											</link>
											<logginginfo>
												<description>rap</description>
												<scene></scene>
												<shottake></shottake>
												<lognote>OK</lognote>
											</logginginfo>
											<labels>
												<label2>Iris</label2>
											</labels>
										</clipitem>
										<clipitem id="clipitem-245">
											<masterclipid>masterclip-80</masterclipid>
											<name>C0002.mov</name>
											<enabled>TRUE</enabled>
											<duration>44760</duration>
											<rate>
												<timebase>25</timebase>
												<ntsc>FALSE</ntsc>
											</rate>
											<start>580</start>
											<end>44932</end>
											<in>408</in>
											<out>44760</out>
											<pproTicksIn>4145541120000</pproTicksIn>
											<pproTicksOut>454790246400000</pproTicksOut>
											<alphatype>none</alphatype>
											<file id="file-74"/>
											<link>
												<linkclipref>clipitem-245</linkclipref>
												<mediatype>video</mediatype>
												<trackindex>1</trackindex>
												<clipindex>2</clipindex>
											</link>
											<link>
												<linkclipref>clipitem-262</linkclipref>
												<mediatype>audio</mediatype>
												<trackindex>7</trackindex>
												<clipindex>2</clipindex>
												<groupindex>1</groupindex>
											</link>
											<link>
												<linkclipref>clipitem-265</linkclipref>
												<mediatype>audio</mediatype>
												<trackindex>8</trackindex>
												<clipindex>2</clipindex>
												<groupindex>1</groupindex>
											</link>
											<logginginfo>
												<description>rap</description>
												<scene></scene>
												<shottake></shottake>
												<lognote>OK</lognote>
											</logginginfo>
											<labels>
												<label2>Iris</label2>
											</labels>
										</clipitem>
										<clipitem id="clipitem-246">
											<masterclipid>masterclip-81</masterclipid>
											<name>C0003.mov</name>
											<enabled>TRUE</enabled>
											<duration>13212</duration>
											<rate>
												<timebase>25</timebase>
												<ntsc>FALSE</ntsc>
											</rate>
											<start>46771</start>
											<end>59983</end>
											<in>0</in>
											<out>13212</out>
											<pproTicksIn>0</pproTicksIn>
											<pproTicksOut>134242375680000</pproTicksOut>
											<alphatype>none</alphatype>
											<pixelaspectratio>square</pixelaspectratio>
											<anamorphic>FALSE</anamorphic>
											<file id="file-75">
												<name>C0003.mov</name>
												<pathurl>file://localhost/Volumes/Bingen/Prosjekter/MYNT194016%20WHATS%20COOKING/Media/Episode%2005%20N-ordet/VB-opptak/20042016/KAM%20C%20(A7sii)/ProRes/C0003.mov</pathurl>
												<rate>
													<timebase>25</timebase>
													<ntsc>FALSE</ntsc>
												</rate>
												<duration>13212</duration>
												<timecode>
													<rate>
														<timebase>25</timebase>
														<ntsc>FALSE</ntsc>
													</rate>
													<string>14:25:27:01</string>
													<frame>1298176</frame>
													<displayformat>NDF</displayformat>
													<reel>
														<name></name>
													</reel>
												</timecode>
												<media>
													<video>
														<samplecharacteristics>
															<rate>
																<timebase>25</timebase>
																<ntsc>FALSE</ntsc>
															</rate>
															<width>1920</width>
															<height>1080</height>
															<anamorphic>FALSE</anamorphic>
															<pixelaspectratio>square</pixelaspectratio>
															<fielddominance>none</fielddominance>
														</samplecharacteristics>
													</video>
													<audio>
														<samplecharacteristics>
															<depth>16</depth>
															<samplerate>48000</samplerate>
														</samplecharacteristics>
														<channelcount>1</channelcount>
														<layout>stereo</layout>
														<audiochannel>
															<sourcechannel>1</sourcechannel>
															<channellabel>left</channellabel>
														</audiochannel>
													</audio>
													<audio>
														<samplecharacteristics>
															<depth>16</depth>
															<samplerate>48000</samplerate>
														</samplecharacteristics>
														<channelcount>1</channelcount>
														<layout>stereo</layout>
														<audiochannel>
															<sourcechannel>2</sourcechannel>
															<channellabel>right</channellabel>
														</audiochannel>
													</audio>
												</media>
											</file>
											<link>
												<linkclipref>clipitem-246</linkclipref>
												<mediatype>video</mediatype>
												<trackindex>1</trackindex>
												<clipindex>3</clipindex>
											</link>
											<link>
												<linkclipref>clipitem-263</linkclipref>
												<mediatype>audio</mediatype>
												<trackindex>7</trackindex>
												<clipindex>3</clipindex>
												<groupindex>1</groupindex>
											</link>
											<link>
												<linkclipref>clipitem-266</linkclipref>
												<mediatype>audio</mediatype>
												<trackindex>8</trackindex>
												<clipindex>3</clipindex>
												<groupindex>1</groupindex>
											</link>
											<logginginfo>
												<description>rap u. ab hijab er undertrykking</description>
												<scene></scene>
												<shottake></shottake>
												<lognote>OK</lognote>
											</logginginfo>
											<labels>
												<label2>Iris</label2>
											</labels>
										</clipitem>
										<enabled>TRUE</enabled>
										<locked>FALSE</locked>
									</track>
									<track TL.SQTrackShy="0" TL.SQTrackExpandedHeight="25" TL.SQTrackExpanded="0" MZ.TrackTargeted="0">
										<clipitem id="clipitem-247">
											<masterclipid>masterclip-82</masterclipid>
											<name>Clip0001.mov</name>
											<enabled>TRUE</enabled>
											<duration>59820</duration>
											<rate>
												<timebase>25</timebase>
												<ntsc>FALSE</ntsc>
											</rate>
											<start>0</start>
											<end>580</end>
											<in>0</in>
											<out>580</out>
											<pproTicksIn>0</pproTicksIn>
											<pproTicksOut>5893171200000</pproTicksOut>
											<alphatype>none</alphatype>
											<pixelaspectratio>square</pixelaspectratio>
											<anamorphic>FALSE</anamorphic>
											<file id="file-76">
												<name>Clip0001.mov</name>
												<pathurl>file://localhost/Volumes/Bingen/Prosjekter/MYNT194016%20WHATS%20COOKING/Media/Episode%2005%20N-ordet/VB-opptak/20042016/KAM%20B%20(FS5)/ProRes/Clip0001.mov</pathurl>
												<rate>
													<timebase>25</timebase>
													<ntsc>FALSE</ntsc>
												</rate>
												<duration>59820</duration>
												<timecode>
													<rate>
														<timebase>25</timebase>
														<ntsc>FALSE</ntsc>
													</rate>
													<string>15:45:58:03</string>
													<frame>1418953</frame>
													<displayformat>NDF</displayformat>
													<reel>
														<name></name>
													</reel>
												</timecode>
												<media>
													<video>
														<samplecharacteristics>
															<rate>
																<timebase>25</timebase>
																<ntsc>FALSE</ntsc>
															</rate>
															<width>1920</width>
															<height>1080</height>
															<anamorphic>FALSE</anamorphic>
															<pixelaspectratio>square</pixelaspectratio>
															<fielddominance>none</fielddominance>
														</samplecharacteristics>
													</video>
													<audio>
														<samplecharacteristics>
															<depth>16</depth>
															<samplerate>48000</samplerate>
														</samplecharacteristics>
														<channelcount>1</channelcount>
														<audiochannel>
															<sourcechannel>1</sourcechannel>
														</audiochannel>
													</audio>
													<audio>
														<samplecharacteristics>
															<depth>16</depth>
															<samplerate>48000</samplerate>
														</samplecharacteristics>
														<channelcount>1</channelcount>
														<audiochannel>
															<sourcechannel>2</sourcechannel>
														</audiochannel>
													</audio>
												</media>
											</file>
											<link>
												<linkclipref>clipitem-247</linkclipref>
												<mediatype>video</mediatype>
												<trackindex>2</trackindex>
												<clipindex>1</clipindex>
											</link>
											<link>
												<linkclipref>clipitem-267</linkclipref>
												<mediatype>audio</mediatype>
												<trackindex>9</trackindex>
												<clipindex>1</clipindex>
												<groupindex>1</groupindex>
											</link>
											<link>
												<linkclipref>clipitem-269</linkclipref>
												<mediatype>audio</mediatype>
												<trackindex>10</trackindex>
												<clipindex>1</clipindex>
												<groupindex>1</groupindex>
											</link>
											<logginginfo>
												<description>rap</description>
												<scene></scene>
												<shottake></shottake>
												<lognote>OK</lognote>
											</logginginfo>
											<labels>
												<label2>Iris</label2>
											</labels>
										</clipitem>
										<clipitem id="clipitem-248">
											<masterclipid>masterclip-82</masterclipid>
											<name>Clip0001.mov</name>
											<enabled>TRUE</enabled>
											<duration>59820</duration>
											<rate>
												<timebase>25</timebase>
												<ntsc>FALSE</ntsc>
											</rate>
											<start>580</start>
											<end>59820</end>
											<in>580</in>
											<out>59820</out>
											<pproTicksIn>5893171200000</pproTicksIn>
											<pproTicksOut>607809484800000</pproTicksOut>
											<alphatype>none</alphatype>
											<file id="file-76"/>
											<link>
												<linkclipref>clipitem-248</linkclipref>
												<mediatype>video</mediatype>
												<trackindex>2</trackindex>
												<clipindex>2</clipindex>
											</link>
											<link>
												<linkclipref>clipitem-268</linkclipref>
												<mediatype>audio</mediatype>
												<trackindex>9</trackindex>
												<clipindex>2</clipindex>
												<groupindex>1</groupindex>
											</link>
											<link>
												<linkclipref>clipitem-270</linkclipref>
												<mediatype>audio</mediatype>
												<trackindex>10</trackindex>
												<clipindex>2</clipindex>
												<groupindex>1</groupindex>
											</link>
											<logginginfo>
												<description>rap</description>
												<scene></scene>
												<shottake></shottake>
												<lognote>OK</lognote>
											</logginginfo>
											<labels>
												<label2>Iris</label2>
											</labels>
										</clipitem>
										<enabled>TRUE</enabled>
										<locked>FALSE</locked>
									</track>
									<track TL.SQTrackShy="0" TL.SQTrackExpandedHeight="25" TL.SQTrackExpanded="0" MZ.TrackTargeted="0">
										<enabled>TRUE</enabled>
										<locked>FALSE</locked>
									</track>
								</video>
								<audio>
									<numOutputChannels>6</numOutputChannels>
									<format>
										<samplecharacteristics>
											<depth>16</depth>
											<samplerate>48000</samplerate>
										</samplecharacteristics>
									</format>
									<outputs>
										<group>
											<index>1</index>
											<numchannels>1</numchannels>
											<downmix>0</downmix>
											<channel>
												<index>1</index>
											</channel>
										</group>
										<group>
											<index>2</index>
											<numchannels>1</numchannels>
											<downmix>0</downmix>
											<channel>
												<index>2</index>
											</channel>
										</group>
										<group>
											<index>3</index>
											<numchannels>1</numchannels>
											<downmix>0</downmix>
											<channel>
												<index>3</index>
											</channel>
										</group>
										<group>
											<index>4</index>
											<numchannels>1</numchannels>
											<downmix>0</downmix>
											<channel>
												<index>4</index>
											</channel>
										</group>
										<group>
											<index>5</index>
											<numchannels>1</numchannels>
											<downmix>0</downmix>
											<channel>
												<index>5</index>
											</channel>
										</group>
										<group>
											<index>6</index>
											<numchannels>1</numchannels>
											<downmix>0</downmix>
											<channel>
												<index>6</index>
											</channel>
										</group>
									</outputs>
									<track TL.SQTrackAudioKeyframeStyle="0" TL.SQTrackShy="0" TL.SQTrackExpandedHeight="25" TL.SQTrackExpanded="1" MZ.TrackTargeted="1" PannerCurrentValue="0" PannerIsInverted="true" PannerStartKeyframe="-91445760000000000,0.,0,0,0,0,0,0" PannerName="Balance" currentExplodedTrackIndex="0" totalExplodedTrackCount="1" premiereTrackType="Stereo">
										<clipitem id="clipitem-249" premiereChannelType="mono">
											<masterclipid>masterclip-83</masterclipid>
											<name>GRIMSSKJTT01.WAV</name>
											<enabled>TRUE</enabled>
											<duration>69849</duration>
											<rate>
												<timebase>25</timebase>
												<ntsc>FALSE</ntsc>
											</rate>
											<start>0</start>
											<end>580</end>
											<in>9854</in>
											<out>10434</out>
											<pproTicksIn>100122946560000</pproTicksIn>
											<pproTicksOut>106016117760000</pproTicksOut>
											<file id="file-77">
												<name>GRIMSSKJTT01.WAV</name>
												<pathurl>file://localhost/Volumes/Bingen/Prosjekter/MYNT194016%20WHATS%20COOKING/Media/Episode%2005%20N-ordet/VB-opptak/20042016/LYD/GRIMSSKJTT01.WAV</pathurl>
												<rate>
													<timebase>30</timebase>
													<ntsc>TRUE</ntsc>
												</rate>
												<duration>83736</duration>
												<timecode>
													<rate>
														<timebase>30</timebase>
														<ntsc>TRUE</ntsc>
													</rate>
													<string>13;47;33;01</string>
													<frame>1488101</frame>
													<displayformat>DF</displayformat>
													<reel>
														<name>BASKET</name>
													</reel>
												</timecode>
												<media>
													<audio>
														<samplecharacteristics>
															<depth>16</depth>
															<samplerate>48000</samplerate>
														</samplecharacteristics>
														<channelcount>1</channelcount>
														<audiochannel>
															<sourcechannel>1</sourcechannel>
														</audiochannel>
													</audio>
													<audio>
														<samplecharacteristics>
															<depth>16</depth>
															<samplerate>48000</samplerate>
														</samplecharacteristics>
														<channelcount>1</channelcount>
														<audiochannel>
															<sourcechannel>2</sourcechannel>
														</audiochannel>
													</audio>
													<audio>
														<samplecharacteristics>
															<depth>16</depth>
															<samplerate>48000</samplerate>
														</samplecharacteristics>
														<channelcount>1</channelcount>
														<audiochannel>
															<sourcechannel>3</sourcechannel>
														</audiochannel>
													</audio>
													<audio>
														<samplecharacteristics>
															<depth>16</depth>
															<samplerate>48000</samplerate>
														</samplecharacteristics>
														<channelcount>1</channelcount>
														<audiochannel>
															<sourcechannel>4</sourcechannel>
														</audiochannel>
													</audio>
													<audio>
														<samplecharacteristics>
															<depth>16</depth>
															<samplerate>48000</samplerate>
														</samplecharacteristics>
														<channelcount>1</channelcount>
														<audiochannel>
															<sourcechannel>5</sourcechannel>
														</audiochannel>
													</audio>
													<audio>
														<samplecharacteristics>
															<depth>16</depth>
															<samplerate>48000</samplerate>
														</samplecharacteristics>
														<channelcount>1</channelcount>
														<audiochannel>
															<sourcechannel>6</sourcechannel>
														</audiochannel>
													</audio>
												</media>
											</file>
											<sourcetrack>
												<mediatype>audio</mediatype>
												<trackindex>1</trackindex>
											</sourcetrack>
												<filter>
													<effect>
														<name>Gain</name>
														<effectid>{61756678, 4761696e, 4b657947}</effectid>
														<effecttype>filter</effecttype>
														<mediatype>audio</mediatype>
														<parameter authoringApp="PremierePro">
															<parameterid>Gain(dB)</parameterid>
															<name>Gain(dB)</name>
															<valuemin>-96</valuemin>
															<valuemax>96</valuemax>
															<value>4</value>
														</parameter>
													</effect>
												</filter>
												<filter>
													<effect>
														<name>Audio Levels</name>
														<effectid>audiolevels</effectid>
														<effectcategory>audiolevels</effectcategory>
														<effecttype>audiolevels</effecttype>
														<mediatype>audio</mediatype>
														<parameter authoringApp="PremierePro">
															<parameterid>level</parameterid>
															<name>Level</name>
															<valuemin>0</valuemin>
															<valuemax>3.98109</valuemax>
															<value>0.99763</value>
														</parameter>
													</effect>
												</filter>
											<link>
												<linkclipref>clipitem-249</linkclipref>
												<mediatype>audio</mediatype>
												<trackindex>1</trackindex>
												<clipindex>1</clipindex>
												<groupindex>1</groupindex>
											</link>
											<link>
												<linkclipref>clipitem-251</linkclipref>
												<mediatype>audio</mediatype>
												<trackindex>2</trackindex>
												<clipindex>1</clipindex>
												<groupindex>1</groupindex>
											</link>
											<link>
												<linkclipref>clipitem-253</linkclipref>
												<mediatype>audio</mediatype>
												<trackindex>3</trackindex>
												<clipindex>1</clipindex>
												<groupindex>1</groupindex>
											</link>
											<link>
												<linkclipref>clipitem-255</linkclipref>
												<mediatype>audio</mediatype>
												<trackindex>4</trackindex>
												<clipindex>1</clipindex>
												<groupindex>1</groupindex>
											</link>
											<link>
												<linkclipref>clipitem-257</linkclipref>
												<mediatype>audio</mediatype>
												<trackindex>5</trackindex>
												<clipindex>1</clipindex>
												<groupindex>1</groupindex>
											</link>
											<link>
												<linkclipref>clipitem-259</linkclipref>
												<mediatype>audio</mediatype>
												<trackindex>6</trackindex>
												<clipindex>1</clipindex>
												<groupindex>1</groupindex>
											</link>
											<logginginfo>
												<description></description>
												<scene>GRIMSSKJT</scene>
												<shottake></shottake>
												<lognote></lognote>
											</logginginfo>
											<labels>
												<label2>Caribbean</label2>
											</labels>
										</clipitem>
										<clipitem id="clipitem-250" premiereChannelType="mono">
											<masterclipid>masterclip-83</masterclipid>
											<name>GRIMSSKJTT01.WAV</name>
											<enabled>TRUE</enabled>
											<duration>69849</duration>
											<rate>
												<timebase>25</timebase>
												<ntsc>FALSE</ntsc>
											</rate>
											<start>580</start>
											<end>59983</end>
											<in>10434</in>
											<out>69837</out>
											<pproTicksIn>106016117760000</pproTicksIn>
											<pproTicksOut>709588615680000</pproTicksOut>
											<file id="file-77"/>
											<sourcetrack>
												<mediatype>audio</mediatype>
												<trackindex>1</trackindex>
											</sourcetrack>
												<filter>
													<effect>
														<name>Gain</name>
														<effectid>{61756678, 4761696e, 4b657947}</effectid>
														<effecttype>filter</effecttype>
														<mediatype>audio</mediatype>
														<parameter authoringApp="PremierePro">
															<parameterid>Gain(dB)</parameterid>
															<name>Gain(dB)</name>
															<valuemin>-96</valuemin>
															<valuemax>96</valuemax>
															<value>4</value>
														</parameter>
													</effect>
												</filter>
												<filter>
													<effect>
														<name>Audio Levels</name>
														<effectid>audiolevels</effectid>
														<effectcategory>audiolevels</effectcategory>
														<effecttype>audiolevels</effecttype>
														<mediatype>audio</mediatype>
														<parameter authoringApp="PremierePro">
															<parameterid>level</parameterid>
															<name>Level</name>
															<valuemin>0</valuemin>
															<valuemax>3.98109</valuemax>
															<value>0.99763</value>
														</parameter>
													</effect>
												</filter>
											<link>
												<linkclipref>clipitem-250</linkclipref>
												<mediatype>audio</mediatype>
												<trackindex>1</trackindex>
												<clipindex>2</clipindex>
												<groupindex>1</groupindex>
											</link>
											<link>
												<linkclipref>clipitem-252</linkclipref>
												<mediatype>audio</mediatype>
												<trackindex>2</trackindex>
												<clipindex>2</clipindex>
												<groupindex>1</groupindex>
											</link>
											<link>
												<linkclipref>clipitem-254</linkclipref>
												<mediatype>audio</mediatype>
												<trackindex>3</trackindex>
												<clipindex>2</clipindex>
												<groupindex>1</groupindex>
											</link>
											<link>
												<linkclipref>clipitem-256</linkclipref>
												<mediatype>audio</mediatype>
												<trackindex>4</trackindex>
												<clipindex>2</clipindex>
												<groupindex>1</groupindex>
											</link>
											<link>
												<linkclipref>clipitem-258</linkclipref>
												<mediatype>audio</mediatype>
												<trackindex>5</trackindex>
												<clipindex>2</clipindex>
												<groupindex>1</groupindex>
											</link>
											<link>
												<linkclipref>clipitem-260</linkclipref>
												<mediatype>audio</mediatype>
												<trackindex>6</trackindex>
												<clipindex>2</clipindex>
												<groupindex>1</groupindex>
											</link>
											<logginginfo>
												<description></description>
												<scene>GRIMSSKJT</scene>
												<shottake></shottake>
												<lognote></lognote>
											</logginginfo>
											<labels>
												<label2>Caribbean</label2>
											</labels>
										</clipitem>
										<enabled>TRUE</enabled>
										<locked>FALSE</locked>
										<outputchannelindex>1</outputchannelindex>
									</track>
									<track TL.SQTrackAudioKeyframeStyle="0" TL.SQTrackShy="0" TL.SQTrackExpandedHeight="25" TL.SQTrackExpanded="0" MZ.TrackTargeted="1" PannerIsInverted="true" PannerName="Balance" currentExplodedTrackIndex="0" totalExplodedTrackCount="1" premiereTrackType="Stereo">
										<clipitem id="clipitem-251" premiereChannelType="mono">
											<masterclipid>masterclip-83</masterclipid>
											<name>GRIMSSKJTT01.WAV</name>
											<enabled>TRUE</enabled>
											<duration>69849</duration>
											<rate>
												<timebase>25</timebase>
												<ntsc>FALSE</ntsc>
											</rate>
											<start>0</start>
											<end>580</end>
											<in>9854</in>
											<out>10434</out>
											<pproTicksIn>100122946560000</pproTicksIn>
											<pproTicksOut>106016117760000</pproTicksOut>
											<file id="file-77"/>
											<sourcetrack>
												<mediatype>audio</mediatype>
												<trackindex>2</trackindex>
											</sourcetrack>
												<filter>
													<effect>
														<name>Gain</name>
														<effectid>{61756678, 4761696e, 4b657947}</effectid>
														<effecttype>filter</effecttype>
														<mediatype>audio</mediatype>
														<parameter authoringApp="PremierePro">
															<parameterid>Gain(dB)</parameterid>
															<name>Gain(dB)</name>
															<valuemin>-96</valuemin>
															<valuemax>96</valuemax>
															<value>4</value>
														</parameter>
													</effect>
												</filter>
												<filter>
													<effect>
														<name>Audio Levels</name>
														<effectid>audiolevels</effectid>
														<effectcategory>audiolevels</effectcategory>
														<effecttype>audiolevels</effecttype>
														<mediatype>audio</mediatype>
														<parameter authoringApp="PremierePro">
															<parameterid>level</parameterid>
															<name>Level</name>
															<valuemin>0</valuemin>
															<valuemax>3.98109</valuemax>
															<value>0.99763</value>
														</parameter>
													</effect>
												</filter>
											<link>
												<linkclipref>clipitem-249</linkclipref>
												<mediatype>audio</mediatype>
												<trackindex>1</trackindex>
												<clipindex>1</clipindex>
												<groupindex>1</groupindex>
											</link>
											<link>
												<linkclipref>clipitem-251</linkclipref>
												<mediatype>audio</mediatype>
												<trackindex>2</trackindex>
												<clipindex>1</clipindex>
												<groupindex>1</groupindex>
											</link>
											<link>
												<linkclipref>clipitem-253</linkclipref>
												<mediatype>audio</mediatype>
												<trackindex>3</trackindex>
												<clipindex>1</clipindex>
												<groupindex>1</groupindex>
											</link>
											<link>
												<linkclipref>clipitem-255</linkclipref>
												<mediatype>audio</mediatype>
												<trackindex>4</trackindex>
												<clipindex>1</clipindex>
												<groupindex>1</groupindex>
											</link>
											<link>
												<linkclipref>clipitem-257</linkclipref>
												<mediatype>audio</mediatype>
												<trackindex>5</trackindex>
												<clipindex>1</clipindex>
												<groupindex>1</groupindex>
											</link>
											<link>
												<linkclipref>clipitem-259</linkclipref>
												<mediatype>audio</mediatype>
												<trackindex>6</trackindex>
												<clipindex>1</clipindex>
												<groupindex>1</groupindex>
											</link>
											<logginginfo>
												<description></description>
												<scene>GRIMSSKJT</scene>
												<shottake></shottake>
												<lognote></lognote>
											</logginginfo>
											<labels>
												<label2>Caribbean</label2>
											</labels>
										</clipitem>
										<clipitem id="clipitem-252" premiereChannelType="mono">
											<masterclipid>masterclip-83</masterclipid>
											<name>GRIMSSKJTT01.WAV</name>
											<enabled>TRUE</enabled>
											<duration>69849</duration>
											<rate>
												<timebase>25</timebase>
												<ntsc>FALSE</ntsc>
											</rate>
											<start>580</start>
											<end>59983</end>
											<in>10434</in>
											<out>69837</out>
											<pproTicksIn>106016117760000</pproTicksIn>
											<pproTicksOut>709588615680000</pproTicksOut>
											<file id="file-77"/>
											<sourcetrack>
												<mediatype>audio</mediatype>
												<trackindex>2</trackindex>
											</sourcetrack>
												<filter>
													<effect>
														<name>Gain</name>
														<effectid>{61756678, 4761696e, 4b657947}</effectid>
														<effecttype>filter</effecttype>
														<mediatype>audio</mediatype>
														<parameter authoringApp="PremierePro">
															<parameterid>Gain(dB)</parameterid>
															<name>Gain(dB)</name>
															<valuemin>-96</valuemin>
															<valuemax>96</valuemax>
															<value>4</value>
														</parameter>
													</effect>
												</filter>
												<filter>
													<effect>
														<name>Audio Levels</name>
														<effectid>audiolevels</effectid>
														<effectcategory>audiolevels</effectcategory>
														<effecttype>audiolevels</effecttype>
														<mediatype>audio</mediatype>
														<parameter authoringApp="PremierePro">
															<parameterid>level</parameterid>
															<name>Level</name>
															<valuemin>0</valuemin>
															<valuemax>3.98109</valuemax>
															<value>0.99763</value>
														</parameter>
													</effect>
												</filter>
											<link>
												<linkclipref>clipitem-250</linkclipref>
												<mediatype>audio</mediatype>
												<trackindex>1</trackindex>
												<clipindex>2</clipindex>
												<groupindex>1</groupindex>
											</link>
											<link>
												<linkclipref>clipitem-252</linkclipref>
												<mediatype>audio</mediatype>
												<trackindex>2</trackindex>
												<clipindex>2</clipindex>
												<groupindex>1</groupindex>
											</link>
											<link>
												<linkclipref>clipitem-254</linkclipref>
												<mediatype>audio</mediatype>
												<trackindex>3</trackindex>
												<clipindex>2</clipindex>
												<groupindex>1</groupindex>
											</link>
											<link>
												<linkclipref>clipitem-256</linkclipref>
												<mediatype>audio</mediatype>
												<trackindex>4</trackindex>
												<clipindex>2</clipindex>
												<groupindex>1</groupindex>
											</link>
											<link>
												<linkclipref>clipitem-258</linkclipref>
												<mediatype>audio</mediatype>
												<trackindex>5</trackindex>
												<clipindex>2</clipindex>
												<groupindex>1</groupindex>
											</link>
											<link>
												<linkclipref>clipitem-260</linkclipref>
												<mediatype>audio</mediatype>
												<trackindex>6</trackindex>
												<clipindex>2</clipindex>
												<groupindex>1</groupindex>
											</link>
											<logginginfo>
												<description></description>
												<scene>GRIMSSKJT</scene>
												<shottake></shottake>
												<lognote></lognote>
											</logginginfo>
											<labels>
												<label2>Caribbean</label2>
											</labels>
										</clipitem>
										<enabled>TRUE</enabled>
										<locked>FALSE</locked>
										<outputchannelindex>2</outputchannelindex>
									</track>
									<track TL.SQTrackAudioKeyframeStyle="0" TL.SQTrackShy="0" TL.SQTrackExpandedHeight="25" TL.SQTrackExpanded="0" MZ.TrackTargeted="1" PannerCurrentValue="0" PannerIsInverted="true" PannerStartKeyframe="-91445760000000000,0.,0,0,0,0,0,0" PannerName="Balance" currentExplodedTrackIndex="0" totalExplodedTrackCount="1" premiereTrackType="Stereo">
										<clipitem id="clipitem-253" premiereChannelType="mono">
											<masterclipid>masterclip-83</masterclipid>
											<name>GRIMSSKJTT01.WAV</name>
											<enabled>TRUE</enabled>
											<duration>69849</duration>
											<rate>
												<timebase>25</timebase>
												<ntsc>FALSE</ntsc>
											</rate>
											<start>0</start>
											<end>580</end>
											<in>9854</in>
											<out>10434</out>
											<pproTicksIn>100122946560000</pproTicksIn>
											<pproTicksOut>106016117760000</pproTicksOut>
											<file id="file-77"/>
											<sourcetrack>
												<mediatype>audio</mediatype>
												<trackindex>3</trackindex>
											</sourcetrack>
												<filter>
													<effect>
														<name>Gain</name>
														<effectid>{61756678, 4761696e, 4b657947}</effectid>
														<effecttype>filter</effecttype>
														<mediatype>audio</mediatype>
														<parameter authoringApp="PremierePro">
															<parameterid>Gain(dB)</parameterid>
															<name>Gain(dB)</name>
															<valuemin>-96</valuemin>
															<valuemax>96</valuemax>
															<value>4</value>
														</parameter>
													</effect>
												</filter>
												<filter>
													<effect>
														<name>Audio Levels</name>
														<effectid>audiolevels</effectid>
														<effectcategory>audiolevels</effectcategory>
														<effecttype>audiolevels</effecttype>
														<mediatype>audio</mediatype>
														<parameter authoringApp="PremierePro">
															<parameterid>level</parameterid>
															<name>Level</name>
															<valuemin>0</valuemin>
															<valuemax>3.98109</valuemax>
															<value>0.99763</value>
														</parameter>
													</effect>
												</filter>
											<link>
												<linkclipref>clipitem-249</linkclipref>
												<mediatype>audio</mediatype>
												<trackindex>1</trackindex>
												<clipindex>1</clipindex>
												<groupindex>1</groupindex>
											</link>
											<link>
												<linkclipref>clipitem-251</linkclipref>
												<mediatype>audio</mediatype>
												<trackindex>2</trackindex>
												<clipindex>1</clipindex>
												<groupindex>1</groupindex>
											</link>
											<link>
												<linkclipref>clipitem-253</linkclipref>
												<mediatype>audio</mediatype>
												<trackindex>3</trackindex>
												<clipindex>1</clipindex>
												<groupindex>1</groupindex>
											</link>
											<link>
												<linkclipref>clipitem-255</linkclipref>
												<mediatype>audio</mediatype>
												<trackindex>4</trackindex>
												<clipindex>1</clipindex>
												<groupindex>1</groupindex>
											</link>
											<link>
												<linkclipref>clipitem-257</linkclipref>
												<mediatype>audio</mediatype>
												<trackindex>5</trackindex>
												<clipindex>1</clipindex>
												<groupindex>1</groupindex>
											</link>
											<link>
												<linkclipref>clipitem-259</linkclipref>
												<mediatype>audio</mediatype>
												<trackindex>6</trackindex>
												<clipindex>1</clipindex>
												<groupindex>1</groupindex>
											</link>
											<logginginfo>
												<description></description>
												<scene>GRIMSSKJT</scene>
												<shottake></shottake>
												<lognote></lognote>
											</logginginfo>
											<labels>
												<label2>Caribbean</label2>
											</labels>
										</clipitem>
										<clipitem id="clipitem-254" premiereChannelType="mono">
											<masterclipid>masterclip-83</masterclipid>
											<name>GRIMSSKJTT01.WAV</name>
											<enabled>TRUE</enabled>
											<duration>69849</duration>
											<rate>
												<timebase>25</timebase>
												<ntsc>FALSE</ntsc>
											</rate>
											<start>580</start>
											<end>59983</end>
											<in>10434</in>
											<out>69837</out>
											<pproTicksIn>106016117760000</pproTicksIn>
											<pproTicksOut>709588615680000</pproTicksOut>
											<file id="file-77"/>
											<sourcetrack>
												<mediatype>audio</mediatype>
												<trackindex>3</trackindex>
											</sourcetrack>
												<filter>
													<effect>
														<name>Gain</name>
														<effectid>{61756678, 4761696e, 4b657947}</effectid>
														<effecttype>filter</effecttype>
														<mediatype>audio</mediatype>
														<parameter authoringApp="PremierePro">
															<parameterid>Gain(dB)</parameterid>
															<name>Gain(dB)</name>
															<valuemin>-96</valuemin>
															<valuemax>96</valuemax>
															<value>4</value>
														</parameter>
													</effect>
												</filter>
												<filter>
													<effect>
														<name>Audio Levels</name>
														<effectid>audiolevels</effectid>
														<effectcategory>audiolevels</effectcategory>
														<effecttype>audiolevels</effecttype>
														<mediatype>audio</mediatype>
														<parameter authoringApp="PremierePro">
															<parameterid>level</parameterid>
															<name>Level</name>
															<valuemin>0</valuemin>
															<valuemax>3.98109</valuemax>
															<value>0.99763</value>
														</parameter>
													</effect>
												</filter>
											<link>
												<linkclipref>clipitem-250</linkclipref>
												<mediatype>audio</mediatype>
												<trackindex>1</trackindex>
												<clipindex>2</clipindex>
												<groupindex>1</groupindex>
											</link>
											<link>
												<linkclipref>clipitem-252</linkclipref>
												<mediatype>audio</mediatype>
												<trackindex>2</trackindex>
												<clipindex>2</clipindex>
												<groupindex>1</groupindex>
											</link>
											<link>
												<linkclipref>clipitem-254</linkclipref>
												<mediatype>audio</mediatype>
												<trackindex>3</trackindex>
												<clipindex>2</clipindex>
												<groupindex>1</groupindex>
											</link>
											<link>
												<linkclipref>clipitem-256</linkclipref>
												<mediatype>audio</mediatype>
												<trackindex>4</trackindex>
												<clipindex>2</clipindex>
												<groupindex>1</groupindex>
											</link>
											<link>
												<linkclipref>clipitem-258</linkclipref>
												<mediatype>audio</mediatype>
												<trackindex>5</trackindex>
												<clipindex>2</clipindex>
												<groupindex>1</groupindex>
											</link>
											<link>
												<linkclipref>clipitem-260</linkclipref>
												<mediatype>audio</mediatype>
												<trackindex>6</trackindex>
												<clipindex>2</clipindex>
												<groupindex>1</groupindex>
											</link>
											<logginginfo>
												<description></description>
												<scene>GRIMSSKJT</scene>
												<shottake></shottake>
												<lognote></lognote>
											</logginginfo>
											<labels>
												<label2>Caribbean</label2>
											</labels>
										</clipitem>
										<enabled>TRUE</enabled>
										<locked>FALSE</locked>
										<outputchannelindex>3</outputchannelindex>
									</track>
									<track TL.SQTrackAudioKeyframeStyle="0" TL.SQTrackShy="0" TL.SQTrackExpandedHeight="25" TL.SQTrackExpanded="0" MZ.TrackTargeted="1" PannerIsInverted="true" PannerName="Balance" currentExplodedTrackIndex="0" totalExplodedTrackCount="1" premiereTrackType="Stereo">
										<clipitem id="clipitem-255" premiereChannelType="mono">
											<masterclipid>masterclip-83</masterclipid>
											<name>GRIMSSKJTT01.WAV</name>
											<enabled>TRUE</enabled>
											<duration>69849</duration>
											<rate>
												<timebase>25</timebase>
												<ntsc>FALSE</ntsc>
											</rate>
											<start>0</start>
											<end>580</end>
											<in>9854</in>
											<out>10434</out>
											<pproTicksIn>100122946560000</pproTicksIn>
											<pproTicksOut>106016117760000</pproTicksOut>
											<file id="file-77"/>
											<sourcetrack>
												<mediatype>audio</mediatype>
												<trackindex>4</trackindex>
											</sourcetrack>
												<filter>
													<effect>
														<name>Gain</name>
														<effectid>{61756678, 4761696e, 4b657947}</effectid>
														<effecttype>filter</effecttype>
														<mediatype>audio</mediatype>
														<parameter authoringApp="PremierePro">
															<parameterid>Gain(dB)</parameterid>
															<name>Gain(dB)</name>
															<valuemin>-96</valuemin>
															<valuemax>96</valuemax>
															<value>4</value>
														</parameter>
													</effect>
												</filter>
												<filter>
													<effect>
														<name>Audio Levels</name>
														<effectid>audiolevels</effectid>
														<effectcategory>audiolevels</effectcategory>
														<effecttype>audiolevels</effecttype>
														<mediatype>audio</mediatype>
														<parameter authoringApp="PremierePro">
															<parameterid>level</parameterid>
															<name>Level</name>
															<valuemin>0</valuemin>
															<valuemax>3.98109</valuemax>
															<value>0.99763</value>
														</parameter>
													</effect>
												</filter>
											<link>
												<linkclipref>clipitem-249</linkclipref>
												<mediatype>audio</mediatype>
												<trackindex>1</trackindex>
												<clipindex>1</clipindex>
												<groupindex>1</groupindex>
											</link>
											<link>
												<linkclipref>clipitem-251</linkclipref>
												<mediatype>audio</mediatype>
												<trackindex>2</trackindex>
												<clipindex>1</clipindex>
												<groupindex>1</groupindex>
											</link>
											<link>
												<linkclipref>clipitem-253</linkclipref>
												<mediatype>audio</mediatype>
												<trackindex>3</trackindex>
												<clipindex>1</clipindex>
												<groupindex>1</groupindex>
											</link>
											<link>
												<linkclipref>clipitem-255</linkclipref>
												<mediatype>audio</mediatype>
												<trackindex>4</trackindex>
												<clipindex>1</clipindex>
												<groupindex>1</groupindex>
											</link>
											<link>
												<linkclipref>clipitem-257</linkclipref>
												<mediatype>audio</mediatype>
												<trackindex>5</trackindex>
												<clipindex>1</clipindex>
												<groupindex>1</groupindex>
											</link>
											<link>
												<linkclipref>clipitem-259</linkclipref>
												<mediatype>audio</mediatype>
												<trackindex>6</trackindex>
												<clipindex>1</clipindex>
												<groupindex>1</groupindex>
											</link>
											<logginginfo>
												<description></description>
												<scene>GRIMSSKJT</scene>
												<shottake></shottake>
												<lognote></lognote>
											</logginginfo>
											<labels>
												<label2>Caribbean</label2>
											</labels>
										</clipitem>
										<clipitem id="clipitem-256" premiereChannelType="mono">
											<masterclipid>masterclip-83</masterclipid>
											<name>GRIMSSKJTT01.WAV</name>
											<enabled>TRUE</enabled>
											<duration>69849</duration>
											<rate>
												<timebase>25</timebase>
												<ntsc>FALSE</ntsc>
											</rate>
											<start>580</start>
											<end>59983</end>
											<in>10434</in>
											<out>69837</out>
											<pproTicksIn>106016117760000</pproTicksIn>
											<pproTicksOut>709588615680000</pproTicksOut>
											<file id="file-77"/>
											<sourcetrack>
												<mediatype>audio</mediatype>
												<trackindex>4</trackindex>
											</sourcetrack>
												<filter>
													<effect>
														<name>Gain</name>
														<effectid>{61756678, 4761696e, 4b657947}</effectid>
														<effecttype>filter</effecttype>
														<mediatype>audio</mediatype>
														<parameter authoringApp="PremierePro">
															<parameterid>Gain(dB)</parameterid>
															<name>Gain(dB)</name>
															<valuemin>-96</valuemin>
															<valuemax>96</valuemax>
															<value>4</value>
														</parameter>
													</effect>
												</filter>
												<filter>
													<effect>
														<name>Audio Levels</name>
														<effectid>audiolevels</effectid>
														<effectcategory>audiolevels</effectcategory>
														<effecttype>audiolevels</effecttype>
														<mediatype>audio</mediatype>
														<parameter authoringApp="PremierePro">
															<parameterid>level</parameterid>
															<name>Level</name>
															<valuemin>0</valuemin>
															<valuemax>3.98109</valuemax>
															<value>0.99763</value>
														</parameter>
													</effect>
												</filter>
											<link>
												<linkclipref>clipitem-250</linkclipref>
												<mediatype>audio</mediatype>
												<trackindex>1</trackindex>
												<clipindex>2</clipindex>
												<groupindex>1</groupindex>
											</link>
											<link>
												<linkclipref>clipitem-252</linkclipref>
												<mediatype>audio</mediatype>
												<trackindex>2</trackindex>
												<clipindex>2</clipindex>
												<groupindex>1</groupindex>
											</link>
											<link>
												<linkclipref>clipitem-254</linkclipref>
												<mediatype>audio</mediatype>
												<trackindex>3</trackindex>
												<clipindex>2</clipindex>
												<groupindex>1</groupindex>
											</link>
											<link>
												<linkclipref>clipitem-256</linkclipref>
												<mediatype>audio</mediatype>
												<trackindex>4</trackindex>
												<clipindex>2</clipindex>
												<groupindex>1</groupindex>
											</link>
											<link>
												<linkclipref>clipitem-258</linkclipref>
												<mediatype>audio</mediatype>
												<trackindex>5</trackindex>
												<clipindex>2</clipindex>
												<groupindex>1</groupindex>
											</link>
											<link>
												<linkclipref>clipitem-260</linkclipref>
												<mediatype>audio</mediatype>
												<trackindex>6</trackindex>
												<clipindex>2</clipindex>
												<groupindex>1</groupindex>
											</link>
											<logginginfo>
												<description></description>
												<scene>GRIMSSKJT</scene>
												<shottake></shottake>
												<lognote></lognote>
											</logginginfo>
											<labels>
												<label2>Caribbean</label2>
											</labels>
										</clipitem>
										<enabled>TRUE</enabled>
										<locked>FALSE</locked>
										<outputchannelindex>4</outputchannelindex>
									</track>
									<track TL.SQTrackAudioKeyframeStyle="0" TL.SQTrackShy="0" TL.SQTrackExpandedHeight="25" TL.SQTrackExpanded="0" MZ.TrackTargeted="0" PannerCurrentValue="0" PannerIsInverted="true" PannerStartKeyframe="-91445760000000000,0.,0,0,0,0,0,0" PannerName="Balance" currentExplodedTrackIndex="0" totalExplodedTrackCount="1" premiereTrackType="Stereo">
										<clipitem id="clipitem-257" premiereChannelType="mono">
											<masterclipid>masterclip-83</masterclipid>
											<name>GRIMSSKJTT01.WAV</name>
											<enabled>TRUE</enabled>
											<duration>69849</duration>
											<rate>
												<timebase>25</timebase>
												<ntsc>FALSE</ntsc>
											</rate>
											<start>0</start>
											<end>580</end>
											<in>9854</in>
											<out>10434</out>
											<pproTicksIn>100122946560000</pproTicksIn>
											<pproTicksOut>106016117760000</pproTicksOut>
											<file id="file-77"/>
											<sourcetrack>
												<mediatype>audio</mediatype>
												<trackindex>5</trackindex>
											</sourcetrack>
												<filter>
													<effect>
														<name>Gain</name>
														<effectid>{61756678, 4761696e, 4b657947}</effectid>
														<effecttype>filter</effecttype>
														<mediatype>audio</mediatype>
														<parameter authoringApp="PremierePro">
															<parameterid>Gain(dB)</parameterid>
															<name>Gain(dB)</name>
															<valuemin>-96</valuemin>
															<valuemax>96</valuemax>
															<value>4</value>
														</parameter>
													</effect>
												</filter>
												<filter>
													<effect>
														<name>Audio Levels</name>
														<effectid>audiolevels</effectid>
														<effectcategory>audiolevels</effectcategory>
														<effecttype>audiolevels</effecttype>
														<mediatype>audio</mediatype>
														<parameter authoringApp="PremierePro">
															<parameterid>level</parameterid>
															<name>Level</name>
															<valuemin>0</valuemin>
															<valuemax>3.98109</valuemax>
															<value>0.99763</value>
														</parameter>
													</effect>
												</filter>
											<link>
												<linkclipref>clipitem-249</linkclipref>
												<mediatype>audio</mediatype>
												<trackindex>1</trackindex>
												<clipindex>1</clipindex>
												<groupindex>1</groupindex>
											</link>
											<link>
												<linkclipref>clipitem-251</linkclipref>
												<mediatype>audio</mediatype>
												<trackindex>2</trackindex>
												<clipindex>1</clipindex>
												<groupindex>1</groupindex>
											</link>
											<link>
												<linkclipref>clipitem-253</linkclipref>
												<mediatype>audio</mediatype>
												<trackindex>3</trackindex>
												<clipindex>1</clipindex>
												<groupindex>1</groupindex>
											</link>
											<link>
												<linkclipref>clipitem-255</linkclipref>
												<mediatype>audio</mediatype>
												<trackindex>4</trackindex>
												<clipindex>1</clipindex>
												<groupindex>1</groupindex>
											</link>
											<link>
												<linkclipref>clipitem-257</linkclipref>
												<mediatype>audio</mediatype>
												<trackindex>5</trackindex>
												<clipindex>1</clipindex>
												<groupindex>1</groupindex>
											</link>
											<link>
												<linkclipref>clipitem-259</linkclipref>
												<mediatype>audio</mediatype>
												<trackindex>6</trackindex>
												<clipindex>1</clipindex>
												<groupindex>1</groupindex>
											</link>
											<logginginfo>
												<description></description>
												<scene>GRIMSSKJT</scene>
												<shottake></shottake>
												<lognote></lognote>
											</logginginfo>
											<labels>
												<label2>Caribbean</label2>
											</labels>
										</clipitem>
										<clipitem id="clipitem-258" premiereChannelType="mono">
											<masterclipid>masterclip-83</masterclipid>
											<name>GRIMSSKJTT01.WAV</name>
											<enabled>TRUE</enabled>
											<duration>69849</duration>
											<rate>
												<timebase>25</timebase>
												<ntsc>FALSE</ntsc>
											</rate>
											<start>580</start>
											<end>59983</end>
											<in>10434</in>
											<out>69837</out>
											<pproTicksIn>106016117760000</pproTicksIn>
											<pproTicksOut>709588615680000</pproTicksOut>
											<file id="file-77"/>
											<sourcetrack>
												<mediatype>audio</mediatype>
												<trackindex>5</trackindex>
											</sourcetrack>
												<filter>
													<effect>
														<name>Gain</name>
														<effectid>{61756678, 4761696e, 4b657947}</effectid>
														<effecttype>filter</effecttype>
														<mediatype>audio</mediatype>
														<parameter authoringApp="PremierePro">
															<parameterid>Gain(dB)</parameterid>
															<name>Gain(dB)</name>
															<valuemin>-96</valuemin>
															<valuemax>96</valuemax>
															<value>4</value>
														</parameter>
													</effect>
												</filter>
												<filter>
													<effect>
														<name>Audio Levels</name>
														<effectid>audiolevels</effectid>
														<effectcategory>audiolevels</effectcategory>
														<effecttype>audiolevels</effecttype>
														<mediatype>audio</mediatype>
														<parameter authoringApp="PremierePro">
															<parameterid>level</parameterid>
															<name>Level</name>
															<valuemin>0</valuemin>
															<valuemax>3.98109</valuemax>
															<value>0.99763</value>
														</parameter>
													</effect>
												</filter>
											<link>
												<linkclipref>clipitem-250</linkclipref>
												<mediatype>audio</mediatype>
												<trackindex>1</trackindex>
												<clipindex>2</clipindex>
												<groupindex>1</groupindex>
											</link>
											<link>
												<linkclipref>clipitem-252</linkclipref>
												<mediatype>audio</mediatype>
												<trackindex>2</trackindex>
												<clipindex>2</clipindex>
												<groupindex>1</groupindex>
											</link>
											<link>
												<linkclipref>clipitem-254</linkclipref>
												<mediatype>audio</mediatype>
												<trackindex>3</trackindex>
												<clipindex>2</clipindex>
												<groupindex>1</groupindex>
											</link>
											<link>
												<linkclipref>clipitem-256</linkclipref>
												<mediatype>audio</mediatype>
												<trackindex>4</trackindex>
												<clipindex>2</clipindex>
												<groupindex>1</groupindex>
											</link>
											<link>
												<linkclipref>clipitem-258</linkclipref>
												<mediatype>audio</mediatype>
												<trackindex>5</trackindex>
												<clipindex>2</clipindex>
												<groupindex>1</groupindex>
											</link>
											<link>
												<linkclipref>clipitem-260</linkclipref>
												<mediatype>audio</mediatype>
												<trackindex>6</trackindex>
												<clipindex>2</clipindex>
												<groupindex>1</groupindex>
											</link>
											<logginginfo>
												<description></description>
												<scene>GRIMSSKJT</scene>
												<shottake></shottake>
												<lognote></lognote>
											</logginginfo>
											<labels>
												<label2>Caribbean</label2>
											</labels>
										</clipitem>
										<enabled>TRUE</enabled>
										<locked>FALSE</locked>
										<outputchannelindex>5</outputchannelindex>
									</track>
									<track TL.SQTrackAudioKeyframeStyle="0" TL.SQTrackShy="0" TL.SQTrackExpandedHeight="25" TL.SQTrackExpanded="0" MZ.TrackTargeted="0" PannerIsInverted="true" PannerName="Balance" currentExplodedTrackIndex="0" totalExplodedTrackCount="1" premiereTrackType="Stereo">
										<clipitem id="clipitem-259" premiereChannelType="mono">
											<masterclipid>masterclip-83</masterclipid>
											<name>GRIMSSKJTT01.WAV</name>
											<enabled>TRUE</enabled>
											<duration>69849</duration>
											<rate>
												<timebase>25</timebase>
												<ntsc>FALSE</ntsc>
											</rate>
											<start>0</start>
											<end>580</end>
											<in>9854</in>
											<out>10434</out>
											<pproTicksIn>100122946560000</pproTicksIn>
											<pproTicksOut>106016117760000</pproTicksOut>
											<file id="file-77"/>
											<sourcetrack>
												<mediatype>audio</mediatype>
												<trackindex>6</trackindex>
											</sourcetrack>
												<filter>
													<effect>
														<name>Gain</name>
														<effectid>{61756678, 4761696e, 4b657947}</effectid>
														<effecttype>filter</effecttype>
														<mediatype>audio</mediatype>
														<parameter authoringApp="PremierePro">
															<parameterid>Gain(dB)</parameterid>
															<name>Gain(dB)</name>
															<valuemin>-96</valuemin>
															<valuemax>96</valuemax>
															<value>4</value>
														</parameter>
													</effect>
												</filter>
												<filter>
													<effect>
														<name>Audio Levels</name>
														<effectid>audiolevels</effectid>
														<effectcategory>audiolevels</effectcategory>
														<effecttype>audiolevels</effecttype>
														<mediatype>audio</mediatype>
														<parameter authoringApp="PremierePro">
															<parameterid>level</parameterid>
															<name>Level</name>
															<valuemin>0</valuemin>
															<valuemax>3.98109</valuemax>
															<value>0.99763</value>
														</parameter>
													</effect>
												</filter>
											<link>
												<linkclipref>clipitem-249</linkclipref>
												<mediatype>audio</mediatype>
												<trackindex>1</trackindex>
												<clipindex>1</clipindex>
												<groupindex>1</groupindex>
											</link>
											<link>
												<linkclipref>clipitem-251</linkclipref>
												<mediatype>audio</mediatype>
												<trackindex>2</trackindex>
												<clipindex>1</clipindex>
												<groupindex>1</groupindex>
											</link>
											<link>
												<linkclipref>clipitem-253</linkclipref>
												<mediatype>audio</mediatype>
												<trackindex>3</trackindex>
												<clipindex>1</clipindex>
												<groupindex>1</groupindex>
											</link>
											<link>
												<linkclipref>clipitem-255</linkclipref>
												<mediatype>audio</mediatype>
												<trackindex>4</trackindex>
												<clipindex>1</clipindex>
												<groupindex>1</groupindex>
											</link>
											<link>
												<linkclipref>clipitem-257</linkclipref>
												<mediatype>audio</mediatype>
												<trackindex>5</trackindex>
												<clipindex>1</clipindex>
												<groupindex>1</groupindex>
											</link>
											<link>
												<linkclipref>clipitem-259</linkclipref>
												<mediatype>audio</mediatype>
												<trackindex>6</trackindex>
												<clipindex>1</clipindex>
												<groupindex>1</groupindex>
											</link>
											<logginginfo>
												<description></description>
												<scene>GRIMSSKJT</scene>
												<shottake></shottake>
												<lognote></lognote>
											</logginginfo>
											<labels>
												<label2>Caribbean</label2>
											</labels>
										</clipitem>
										<clipitem id="clipitem-260" premiereChannelType="mono">
											<masterclipid>masterclip-83</masterclipid>
											<name>GRIMSSKJTT01.WAV</name>
											<enabled>TRUE</enabled>
											<duration>69849</duration>
											<rate>
												<timebase>25</timebase>
												<ntsc>FALSE</ntsc>
											</rate>
											<start>580</start>
											<end>59983</end>
											<in>10434</in>
											<out>69837</out>
											<pproTicksIn>106016117760000</pproTicksIn>
											<pproTicksOut>709588615680000</pproTicksOut>
											<file id="file-77"/>
											<sourcetrack>
												<mediatype>audio</mediatype>
												<trackindex>6</trackindex>
											</sourcetrack>
												<filter>
													<effect>
														<name>Gain</name>
														<effectid>{61756678, 4761696e, 4b657947}</effectid>
														<effecttype>filter</effecttype>
														<mediatype>audio</mediatype>
														<parameter authoringApp="PremierePro">
															<parameterid>Gain(dB)</parameterid>
															<name>Gain(dB)</name>
															<valuemin>-96</valuemin>
															<valuemax>96</valuemax>
															<value>4</value>
														</parameter>
													</effect>
												</filter>
												<filter>
													<effect>
														<name>Audio Levels</name>
														<effectid>audiolevels</effectid>
														<effectcategory>audiolevels</effectcategory>
														<effecttype>audiolevels</effecttype>
														<mediatype>audio</mediatype>
														<parameter authoringApp="PremierePro">
															<parameterid>level</parameterid>
															<name>Level</name>
															<valuemin>0</valuemin>
															<valuemax>3.98109</valuemax>
															<value>0.99763</value>
														</parameter>
													</effect>
												</filter>
											<link>
												<linkclipref>clipitem-250</linkclipref>
												<mediatype>audio</mediatype>
												<trackindex>1</trackindex>
												<clipindex>2</clipindex>
												<groupindex>1</groupindex>
											</link>
											<link>
												<linkclipref>clipitem-252</linkclipref>
												<mediatype>audio</mediatype>
												<trackindex>2</trackindex>
												<clipindex>2</clipindex>
												<groupindex>1</groupindex>
											</link>
											<link>
												<linkclipref>clipitem-254</linkclipref>
												<mediatype>audio</mediatype>
												<trackindex>3</trackindex>
												<clipindex>2</clipindex>
												<groupindex>1</groupindex>
											</link>
											<link>
												<linkclipref>clipitem-256</linkclipref>
												<mediatype>audio</mediatype>
												<trackindex>4</trackindex>
												<clipindex>2</clipindex>
												<groupindex>1</groupindex>
											</link>
											<link>
												<linkclipref>clipitem-258</linkclipref>
												<mediatype>audio</mediatype>
												<trackindex>5</trackindex>
												<clipindex>2</clipindex>
												<groupindex>1</groupindex>
											</link>
											<link>
												<linkclipref>clipitem-260</linkclipref>
												<mediatype>audio</mediatype>
												<trackindex>6</trackindex>
												<clipindex>2</clipindex>
												<groupindex>1</groupindex>
											</link>
											<logginginfo>
												<description></description>
												<scene>GRIMSSKJT</scene>
												<shottake></shottake>
												<lognote></lognote>
											</logginginfo>
											<labels>
												<label2>Caribbean</label2>
											</labels>
										</clipitem>
										<enabled>TRUE</enabled>
										<locked>FALSE</locked>
										<outputchannelindex>6</outputchannelindex>
									</track>
									<track TL.SQTrackAudioKeyframeStyle="0" TL.SQTrackShy="0" TL.SQTrackExpandedHeight="25" TL.SQTrackExpanded="1" MZ.TrackTargeted="0" PannerCurrentValue="0.5" PannerIsInverted="true" PannerStartKeyframe="-91445760000000000,0.5,0,0,0,0,0,0" PannerName="Balance" currentExplodedTrackIndex="0" totalExplodedTrackCount="1" premiereTrackType="Stereo">
										<clipitem id="clipitem-261" premiereChannelType="mono">
											<masterclipid>masterclip-80</masterclipid>
											<name>C0002.mov</name>
											<enabled>TRUE</enabled>
											<duration>44760</duration>
											<rate>
												<timebase>25</timebase>
												<ntsc>FALSE</ntsc>
											</rate>
											<start>172</start>
											<end>580</end>
											<in>0</in>
											<out>408</out>
											<pproTicksIn>0</pproTicksIn>
											<pproTicksOut>4145541120000</pproTicksOut>
											<file id="file-74"/>
											<sourcetrack>
												<mediatype>audio</mediatype>
												<trackindex>1</trackindex>
											</sourcetrack>
											<link>
												<linkclipref>clipitem-244</linkclipref>
												<mediatype>video</mediatype>
												<trackindex>1</trackindex>
												<clipindex>1</clipindex>
											</link>
											<link>
												<linkclipref>clipitem-261</linkclipref>
												<mediatype>audio</mediatype>
												<trackindex>7</trackindex>
												<clipindex>1</clipindex>
												<groupindex>1</groupindex>
											</link>
											<link>
												<linkclipref>clipitem-264</linkclipref>
												<mediatype>audio</mediatype>
												<trackindex>8</trackindex>
												<clipindex>1</clipindex>
												<groupindex>1</groupindex>
											</link>
											<logginginfo>
												<description>rap</description>
												<scene></scene>
												<shottake></shottake>
												<lognote>OK</lognote>
											</logginginfo>
											<labels>
												<label2>Iris</label2>
											</labels>
										</clipitem>
										<clipitem id="clipitem-262" premiereChannelType="mono">
											<masterclipid>masterclip-80</masterclipid>
											<name>C0002.mov</name>
											<enabled>TRUE</enabled>
											<duration>44760</duration>
											<rate>
												<timebase>25</timebase>
												<ntsc>FALSE</ntsc>
											</rate>
											<start>580</start>
											<end>44932</end>
											<in>408</in>
											<out>44760</out>
											<pproTicksIn>4145541120000</pproTicksIn>
											<pproTicksOut>454790246400000</pproTicksOut>
											<file id="file-74"/>
											<sourcetrack>
												<mediatype>audio</mediatype>
												<trackindex>1</trackindex>
											</sourcetrack>
											<link>
												<linkclipref>clipitem-245</linkclipref>
												<mediatype>video</mediatype>
												<trackindex>1</trackindex>
												<clipindex>2</clipindex>
											</link>
											<link>
												<linkclipref>clipitem-262</linkclipref>
												<mediatype>audio</mediatype>
												<trackindex>7</trackindex>
												<clipindex>2</clipindex>
												<groupindex>1</groupindex>
											</link>
											<link>
												<linkclipref>clipitem-265</linkclipref>
												<mediatype>audio</mediatype>
												<trackindex>8</trackindex>
												<clipindex>2</clipindex>
												<groupindex>1</groupindex>
											</link>
											<logginginfo>
												<description>rap</description>
												<scene></scene>
												<shottake></shottake>
												<lognote>OK</lognote>
											</logginginfo>
											<labels>
												<label2>Iris</label2>
											</labels>
										</clipitem>
										<clipitem id="clipitem-263" premiereChannelType="mono">
											<masterclipid>masterclip-81</masterclipid>
											<name>C0003.mov</name>
											<enabled>TRUE</enabled>
											<duration>13212</duration>
											<rate>
												<timebase>25</timebase>
												<ntsc>FALSE</ntsc>
											</rate>
											<start>46771</start>
											<end>59983</end>
											<in>0</in>
											<out>13212</out>
											<pproTicksIn>0</pproTicksIn>
											<pproTicksOut>134242375680000</pproTicksOut>
											<file id="file-75"/>
											<sourcetrack>
												<mediatype>audio</mediatype>
												<trackindex>1</trackindex>
											</sourcetrack>
											<link>
												<linkclipref>clipitem-246</linkclipref>
												<mediatype>video</mediatype>
												<trackindex>1</trackindex>
												<clipindex>3</clipindex>
											</link>
											<link>
												<linkclipref>clipitem-263</linkclipref>
												<mediatype>audio</mediatype>
												<trackindex>7</trackindex>
												<clipindex>3</clipindex>
												<groupindex>1</groupindex>
											</link>
											<link>
												<linkclipref>clipitem-266</linkclipref>
												<mediatype>audio</mediatype>
												<trackindex>8</trackindex>
												<clipindex>3</clipindex>
												<groupindex>1</groupindex>
											</link>
											<logginginfo>
												<description>rap u. ab hijab er undertrykking</description>
												<scene></scene>
												<shottake></shottake>
												<lognote>OK</lognote>
											</logginginfo>
											<labels>
												<label2>Iris</label2>
											</labels>
										</clipitem>
										<enabled>FALSE</enabled>
										<locked>FALSE</locked>
										<outputchannelindex>1</outputchannelindex>
									</track>
									<track TL.SQTrackAudioKeyframeStyle="0" TL.SQTrackShy="0" TL.SQTrackExpandedHeight="25" TL.SQTrackExpanded="0" MZ.TrackTargeted="0" PannerCurrentValue="0.5" PannerIsInverted="true" PannerStartKeyframe="-91445760000000000,0.5,0,0,0,0,0,0" PannerName="Balance" currentExplodedTrackIndex="0" totalExplodedTrackCount="1" premiereTrackType="Stereo">
										<clipitem id="clipitem-264" premiereChannelType="mono">
											<masterclipid>masterclip-80</masterclipid>
											<name>C0002.mov</name>
											<enabled>TRUE</enabled>
											<duration>44760</duration>
											<rate>
												<timebase>25</timebase>
												<ntsc>FALSE</ntsc>
											</rate>
											<start>172</start>
											<end>580</end>
											<in>0</in>
											<out>408</out>
											<pproTicksIn>0</pproTicksIn>
											<pproTicksOut>4145541120000</pproTicksOut>
											<file id="file-74"/>
											<sourcetrack>
												<mediatype>audio</mediatype>
												<trackindex>2</trackindex>
											</sourcetrack>
											<link>
												<linkclipref>clipitem-244</linkclipref>
												<mediatype>video</mediatype>
												<trackindex>1</trackindex>
												<clipindex>1</clipindex>
											</link>
											<link>
												<linkclipref>clipitem-261</linkclipref>
												<mediatype>audio</mediatype>
												<trackindex>7</trackindex>
												<clipindex>1</clipindex>
												<groupindex>1</groupindex>
											</link>
											<link>
												<linkclipref>clipitem-264</linkclipref>
												<mediatype>audio</mediatype>
												<trackindex>8</trackindex>
												<clipindex>1</clipindex>
												<groupindex>1</groupindex>
											</link>
											<logginginfo>
												<description>rap</description>
												<scene></scene>
												<shottake></shottake>
												<lognote>OK</lognote>
											</logginginfo>
											<labels>
												<label2>Iris</label2>
											</labels>
										</clipitem>
										<clipitem id="clipitem-265" premiereChannelType="mono">
											<masterclipid>masterclip-80</masterclipid>
											<name>C0002.mov</name>
											<enabled>TRUE</enabled>
											<duration>44760</duration>
											<rate>
												<timebase>25</timebase>
												<ntsc>FALSE</ntsc>
											</rate>
											<start>580</start>
											<end>44932</end>
											<in>408</in>
											<out>44760</out>
											<pproTicksIn>4145541120000</pproTicksIn>
											<pproTicksOut>454790246400000</pproTicksOut>
											<file id="file-74"/>
											<sourcetrack>
												<mediatype>audio</mediatype>
												<trackindex>2</trackindex>
											</sourcetrack>
											<link>
												<linkclipref>clipitem-245</linkclipref>
												<mediatype>video</mediatype>
												<trackindex>1</trackindex>
												<clipindex>2</clipindex>
											</link>
											<link>
												<linkclipref>clipitem-262</linkclipref>
												<mediatype>audio</mediatype>
												<trackindex>7</trackindex>
												<clipindex>2</clipindex>
												<groupindex>1</groupindex>
											</link>
											<link>
												<linkclipref>clipitem-265</linkclipref>
												<mediatype>audio</mediatype>
												<trackindex>8</trackindex>
												<clipindex>2</clipindex>
												<groupindex>1</groupindex>
											</link>
											<logginginfo>
												<description>rap</description>
												<scene></scene>
												<shottake></shottake>
												<lognote>OK</lognote>
											</logginginfo>
											<labels>
												<label2>Iris</label2>
											</labels>
										</clipitem>
										<clipitem id="clipitem-266" premiereChannelType="mono">
											<masterclipid>masterclip-81</masterclipid>
											<name>C0003.mov</name>
											<enabled>TRUE</enabled>
											<duration>13212</duration>
											<rate>
												<timebase>25</timebase>
												<ntsc>FALSE</ntsc>
											</rate>
											<start>46771</start>
											<end>59983</end>
											<in>0</in>
											<out>13212</out>
											<pproTicksIn>0</pproTicksIn>
											<pproTicksOut>134242375680000</pproTicksOut>
											<file id="file-75"/>
											<sourcetrack>
												<mediatype>audio</mediatype>
												<trackindex>2</trackindex>
											</sourcetrack>
											<link>
												<linkclipref>clipitem-246</linkclipref>
												<mediatype>video</mediatype>
												<trackindex>1</trackindex>
												<clipindex>3</clipindex>
											</link>
											<link>
												<linkclipref>clipitem-263</linkclipref>
												<mediatype>audio</mediatype>
												<trackindex>7</trackindex>
												<clipindex>3</clipindex>
												<groupindex>1</groupindex>
											</link>
											<link>
												<linkclipref>clipitem-266</linkclipref>
												<mediatype>audio</mediatype>
												<trackindex>8</trackindex>
												<clipindex>3</clipindex>
												<groupindex>1</groupindex>
											</link>
											<logginginfo>
												<description>rap u. ab hijab er undertrykking</description>
												<scene></scene>
												<shottake></shottake>
												<lognote>OK</lognote>
											</logginginfo>
											<labels>
												<label2>Iris</label2>
											</labels>
										</clipitem>
										<enabled>FALSE</enabled>
										<locked>FALSE</locked>
										<outputchannelindex>2</outputchannelindex>
									</track>
									<track TL.SQTrackAudioKeyframeStyle="0" TL.SQTrackShy="0" TL.SQTrackExpandedHeight="25" TL.SQTrackExpanded="1" MZ.TrackTargeted="0" PannerCurrentValue="0.5" PannerIsInverted="true" PannerStartKeyframe="-91445760000000000,0.5,0,0,0,0,0,0" PannerName="Balance" currentExplodedTrackIndex="0" totalExplodedTrackCount="1" premiereTrackType="Stereo">
										<clipitem id="clipitem-267" premiereChannelType="mono">
											<masterclipid>masterclip-82</masterclipid>
											<name>Clip0001.mov</name>
											<enabled>TRUE</enabled>
											<duration>59820</duration>
											<rate>
												<timebase>25</timebase>
												<ntsc>FALSE</ntsc>
											</rate>
											<start>0</start>
											<end>580</end>
											<in>0</in>
											<out>580</out>
											<pproTicksIn>0</pproTicksIn>
											<pproTicksOut>5893171200000</pproTicksOut>
											<file id="file-76"/>
											<sourcetrack>
												<mediatype>audio</mediatype>
												<trackindex>1</trackindex>
											</sourcetrack>
											<link>
												<linkclipref>clipitem-247</linkclipref>
												<mediatype>video</mediatype>
												<trackindex>2</trackindex>
												<clipindex>1</clipindex>
											</link>
											<link>
												<linkclipref>clipitem-267</linkclipref>
												<mediatype>audio</mediatype>
												<trackindex>9</trackindex>
												<clipindex>1</clipindex>
												<groupindex>1</groupindex>
											</link>
											<link>
												<linkclipref>clipitem-269</linkclipref>
												<mediatype>audio</mediatype>
												<trackindex>10</trackindex>
												<clipindex>1</clipindex>
												<groupindex>1</groupindex>
											</link>
											<logginginfo>
												<description>rap</description>
												<scene></scene>
												<shottake></shottake>
												<lognote>OK</lognote>
											</logginginfo>
											<labels>
												<label2>Iris</label2>
											</labels>
										</clipitem>
										<clipitem id="clipitem-268" premiereChannelType="mono">
											<masterclipid>masterclip-82</masterclipid>
											<name>Clip0001.mov</name>
											<enabled>TRUE</enabled>
											<duration>59820</duration>
											<rate>
												<timebase>25</timebase>
												<ntsc>FALSE</ntsc>
											</rate>
											<start>580</start>
											<end>59820</end>
											<in>580</in>
											<out>59820</out>
											<pproTicksIn>5893171200000</pproTicksIn>
											<pproTicksOut>607809484800000</pproTicksOut>
											<file id="file-76"/>
											<sourcetrack>
												<mediatype>audio</mediatype>
												<trackindex>1</trackindex>
											</sourcetrack>
											<link>
												<linkclipref>clipitem-248</linkclipref>
												<mediatype>video</mediatype>
												<trackindex>2</trackindex>
												<clipindex>2</clipindex>
											</link>
											<link>
												<linkclipref>clipitem-268</linkclipref>
												<mediatype>audio</mediatype>
												<trackindex>9</trackindex>
												<clipindex>2</clipindex>
												<groupindex>1</groupindex>
											</link>
											<link>
												<linkclipref>clipitem-270</linkclipref>
												<mediatype>audio</mediatype>
												<trackindex>10</trackindex>
												<clipindex>2</clipindex>
												<groupindex>1</groupindex>
											</link>
											<logginginfo>
												<description>rap</description>
												<scene></scene>
												<shottake></shottake>
												<lognote>OK</lognote>
											</logginginfo>
											<labels>
												<label2>Iris</label2>
											</labels>
										</clipitem>
										<enabled>FALSE</enabled>
										<locked>FALSE</locked>
										<outputchannelindex>1</outputchannelindex>
									</track>
									<track TL.SQTrackAudioKeyframeStyle="0" TL.SQTrackShy="0" TL.SQTrackExpandedHeight="25" TL.SQTrackExpanded="1" MZ.TrackTargeted="0" PannerCurrentValue="0.5" PannerIsInverted="true" PannerStartKeyframe="-91445760000000000,0.5,0,0,0,0,0,0" PannerName="Balance" currentExplodedTrackIndex="0" totalExplodedTrackCount="1" premiereTrackType="Stereo">
										<clipitem id="clipitem-269" premiereChannelType="mono">
											<masterclipid>masterclip-82</masterclipid>
											<name>Clip0001.mov</name>
											<enabled>TRUE</enabled>
											<duration>59820</duration>
											<rate>
												<timebase>25</timebase>
												<ntsc>FALSE</ntsc>
											</rate>
											<start>0</start>
											<end>580</end>
											<in>0</in>
											<out>580</out>
											<pproTicksIn>0</pproTicksIn>
											<pproTicksOut>5893171200000</pproTicksOut>
											<file id="file-76"/>
											<sourcetrack>
												<mediatype>audio</mediatype>
												<trackindex>2</trackindex>
											</sourcetrack>
											<link>
												<linkclipref>clipitem-247</linkclipref>
												<mediatype>video</mediatype>
												<trackindex>2</trackindex>
												<clipindex>1</clipindex>
											</link>
											<link>
												<linkclipref>clipitem-267</linkclipref>
												<mediatype>audio</mediatype>
												<trackindex>9</trackindex>
												<clipindex>1</clipindex>
												<groupindex>1</groupindex>
											</link>
											<link>
												<linkclipref>clipitem-269</linkclipref>
												<mediatype>audio</mediatype>
												<trackindex>10</trackindex>
												<clipindex>1</clipindex>
												<groupindex>1</groupindex>
											</link>
											<logginginfo>
												<description>rap</description>
												<scene></scene>
												<shottake></shottake>
												<lognote>OK</lognote>
											</logginginfo>
											<labels>
												<label2>Iris</label2>
											</labels>
										</clipitem>
										<clipitem id="clipitem-270" premiereChannelType="mono">
											<masterclipid>masterclip-82</masterclipid>
											<name>Clip0001.mov</name>
											<enabled>TRUE</enabled>
											<duration>59820</duration>
											<rate>
												<timebase>25</timebase>
												<ntsc>FALSE</ntsc>
											</rate>
											<start>580</start>
											<end>59820</end>
											<in>580</in>
											<out>59820</out>
											<pproTicksIn>5893171200000</pproTicksIn>
											<pproTicksOut>607809484800000</pproTicksOut>
											<file id="file-76"/>
											<sourcetrack>
												<mediatype>audio</mediatype>
												<trackindex>2</trackindex>
											</sourcetrack>
											<link>
												<linkclipref>clipitem-248</linkclipref>
												<mediatype>video</mediatype>
												<trackindex>2</trackindex>
												<clipindex>2</clipindex>
											</link>
											<link>
												<linkclipref>clipitem-268</linkclipref>
												<mediatype>audio</mediatype>
												<trackindex>9</trackindex>
												<clipindex>2</clipindex>
												<groupindex>1</groupindex>
											</link>
											<link>
												<linkclipref>clipitem-270</linkclipref>
												<mediatype>audio</mediatype>
												<trackindex>10</trackindex>
												<clipindex>2</clipindex>
												<groupindex>1</groupindex>
											</link>
											<logginginfo>
												<description>rap</description>
												<scene></scene>
												<shottake></shottake>
												<lognote>OK</lognote>
											</logginginfo>
											<labels>
												<label2>Iris</label2>
											</labels>
										</clipitem>
										<enabled>FALSE</enabled>
										<locked>FALSE</locked>
										<outputchannelindex>2</outputchannelindex>
									</track>
									<track TL.SQTrackAudioKeyframeStyle="0" TL.SQTrackShy="0" TL.SQTrackExpandedHeight="25" TL.SQTrackExpanded="1" MZ.TrackTargeted="0" PannerCurrentValue="0.5" PannerIsInverted="true" PannerStartKeyframe="-91445760000000000,0.5,0,0,0,0,0,0" PannerName="Balance" currentExplodedTrackIndex="0" totalExplodedTrackCount="2" premiereTrackType="Stereo">
										<enabled>FALSE</enabled>
										<locked>FALSE</locked>
										<outputchannelindex>1</outputchannelindex>
									</track>
									<track TL.SQTrackAudioKeyframeStyle="0" TL.SQTrackShy="0" TL.SQTrackExpandedHeight="25" TL.SQTrackExpanded="1" MZ.TrackTargeted="0" PannerCurrentValue="0.5" PannerIsInverted="true" PannerStartKeyframe="-91445760000000000,0.5,0,0,0,0,0,0" PannerName="Balance" currentExplodedTrackIndex="1" totalExplodedTrackCount="2" premiereTrackType="Stereo">
										<enabled>FALSE</enabled>
										<locked>FALSE</locked>
										<outputchannelindex>2</outputchannelindex>
									</track>
									<track TL.SQTrackAudioKeyframeStyle="0" TL.SQTrackShy="0" TL.SQTrackExpandedHeight="25" TL.SQTrackExpanded="0" MZ.TrackTargeted="0" PannerCurrentValue="0.5" PannerIsInverted="true" PannerStartKeyframe="-91445760000000000,0.5,0,0,0,0,0,0" PannerName="Balance" currentExplodedTrackIndex="0" totalExplodedTrackCount="2" premiereTrackType="Stereo">
										<enabled>FALSE</enabled>
										<locked>FALSE</locked>
										<outputchannelindex>1</outputchannelindex>
									</track>
									<track TL.SQTrackAudioKeyframeStyle="0" TL.SQTrackShy="0" TL.SQTrackExpandedHeight="25" TL.SQTrackExpanded="0" MZ.TrackTargeted="0" PannerCurrentValue="0.5" PannerIsInverted="true" PannerStartKeyframe="-91445760000000000,0.5,0,0,0,0,0,0" PannerName="Balance" currentExplodedTrackIndex="1" totalExplodedTrackCount="2" premiereTrackType="Stereo">
										<enabled>FALSE</enabled>
										<locked>FALSE</locked>
										<outputchannelindex>2</outputchannelindex>
									</track>
								</audio>
							</media>
							<timecode>
								<rate>
									<timebase>25</timebase>
									<ntsc>FALSE</ntsc>
								</rate>
								<string>13:54:07:04</string>
								<frame>1251179</frame>
								<displayformat>NDF</displayformat>
							</timecode>
						</sequence>
							<filter>
								<effect>
									<name>Audio Levels</name>
									<effectid>audiolevels</effectid>
									<effectcategory>audiolevels</effectcategory>
									<effecttype>audiolevels</effecttype>
									<mediatype>audio</mediatype>
									<parameter authoringApp="PremierePro">
										<parameterid>level</parameterid>
										<name>Level</name>
										<valuemin>0</valuemin>
										<valuemax>3.98109</valuemax>
										<value>0.125594</value>
									</parameter>
								</effect>
							</filter>
						<labels>
							<label2>Forest</label2>
						</labels>
					</clipitem>
					<clipitem id="clipitem-271" premiereChannelType="mono">
						<masterclipid>masterclip-79</masterclipid>
						<name>backstage-T01-Multicam</name>
						<enabled>TRUE</enabled>
						<duration>59983</duration>
						<rate>
							<timebase>25</timebase>
							<ntsc>FALSE</ntsc>
						</rate>
						<start>17424</start>
						<end>17473</end>
						<in>20367</in>
						<out>20416</out>
						<pproTicksIn>206941754880000</pproTicksIn>
						<pproTicksOut>207439626240000</pproTicksOut>
						<sequence id="sequence-8"/>
							<filter>
								<effect>
									<name>Audio Levels</name>
									<effectid>audiolevels</effectid>
									<effectcategory>audiolevels</effectcategory>
									<effecttype>audiolevels</effecttype>
									<mediatype>audio</mediatype>
									<parameter authoringApp="PremierePro">
										<parameterid>level</parameterid>
										<name>Level</name>
										<valuemin>0</valuemin>
										<valuemax>3.98109</valuemax>
										<value>0.125594</value>
									</parameter>
								</effect>
							</filter>
						<labels>
							<label2>Forest</label2>
						</labels>
					</clipitem>
					<clipitem id="clipitem-272" premiereChannelType="stereo">
						<masterclipid>masterclip-84</masterclipid>
						<name>194081__potentjello__woosh-noise-1.wav</name>
						<enabled>TRUE</enabled>
						<duration>7</duration>
						<rate>
							<timebase>25</timebase>
							<ntsc>FALSE</ntsc>
						</rate>
						<start>18964</start>
						<end>18971</end>
						<in>0</in>
						<out>7</out>
						<pproTicksIn>0</pproTicksIn>
						<pproTicksOut>71124480000</pproTicksOut>
						<file id="file-78">
							<name>194081__potentjello__woosh-noise-1.wav</name>
							<pathurl>file://localhost/Volumes/Bingen/Prosjekter/MYNT194016%20WHATS%20COOKING/Lydeffekter/Jan%20Lydeffekter/Woosh/194081__potentjello__woosh-noise-1.wav</pathurl>
							<rate>
								<timebase>30</timebase>
								<ntsc>TRUE</ntsc>
							</rate>
							<duration>9</duration>
							<timecode>
								<rate>
									<timebase>30</timebase>
									<ntsc>TRUE</ntsc>
								</rate>
								<string>01;01;14;15</string>
								<frame>110125</frame>
								<displayformat>DF</displayformat>
								<reel>
									<name></name>
								</reel>
							</timecode>
							<media>
								<audio>
									<samplecharacteristics>
										<depth>16</depth>
										<samplerate>48000</samplerate>
									</samplecharacteristics>
									<channelcount>2</channelcount>
								</audio>
							</media>
						</file>
						<sourcetrack>
							<mediatype>audio</mediatype>
							<trackindex>1</trackindex>
						</sourcetrack>
							<filter>
								<effect>
									<name>Gain</name>
									<effectid>{61756678, 4761696e, 4b657947}</effectid>
									<effecttype>filter</effecttype>
									<mediatype>audio</mediatype>
									<parameter authoringApp="PremierePro">
										<parameterid>Gain(dB)</parameterid>
										<name>Gain(dB)</name>
										<valuemin>-96</valuemin>
										<valuemax>96</valuemax>
										<value>-13</value>
									</parameter>
								</effect>
							</filter>
							<marker>
								<comment></comment>
								<name></name>
								<in>6</in>
								<out>-1</out>
							</marker>
						<link>
							<linkclipref>clipitem-272</linkclipref>
							<mediatype>audio</mediatype>
							<trackindex>9</trackindex>
							<clipindex>14</clipindex>
							<groupindex>1</groupindex>
						</link>
						<link>
							<linkclipref>clipitem-280</linkclipref>
							<mediatype>audio</mediatype>
							<trackindex>10</trackindex>
							<clipindex>7</clipindex>
							<groupindex>1</groupindex>
						</link>
						<logginginfo>
							<description></description>
							<scene></scene>
							<shottake></shottake>
							<lognote></lognote>
						</logginginfo>
						<labels>
							<label2>Caribbean</label2>
						</labels>
					</clipitem>
					<clipitem id="clipitem-273" premiereChannelType="stereo">
						<masterclipid>masterclip-85</masterclipid>
						<name>326120__luannwepener__shut-down.wav</name>
						<enabled>TRUE</enabled>
						<duration>208</duration>
						<rate>
							<timebase>25</timebase>
							<ntsc>FALSE</ntsc>
						</rate>
						<start>19779</start>
						<end>19901</end>
						<in>1</in>
						<out>123</out>
						<pproTicksIn>10160640000</pproTicksIn>
						<pproTicksOut>1249758720000</pproTicksOut>
						<file id="file-79">
							<name>326120__luannwepener__shut-down.wav</name>
							<pathurl>file://localhost/Volumes/Bingen/Prosjekter/MYNT194016%20WHATS%20COOKING/Lydeffekter/Jan%20Lydeffekter/Power%20Down%20audio/326120__luannwepener__shut-down.wav</pathurl>
							<rate>
								<timebase>30</timebase>
								<ntsc>TRUE</ntsc>
							</rate>
							<duration>249</duration>
							<timecode>
								<rate>
									<timebase>30</timebase>
									<ntsc>TRUE</ntsc>
								</rate>
								<string>00;00;00;00</string>
								<frame>0</frame>
								<displayformat>DF</displayformat>
								<reel>
									<name></name>
								</reel>
							</timecode>
							<media>
								<audio>
									<samplecharacteristics>
										<depth>16</depth>
										<samplerate>48000</samplerate>
									</samplecharacteristics>
									<channelcount>2</channelcount>
								</audio>
							</media>
						</file>
						<sourcetrack>
							<mediatype>audio</mediatype>
							<trackindex>1</trackindex>
						</sourcetrack>
							<filter>
								<effect>
									<name>Gain</name>
									<effectid>{61756678, 4761696e, 4b657947}</effectid>
									<effecttype>filter</effecttype>
									<mediatype>audio</mediatype>
									<parameter authoringApp="PremierePro">
										<parameterid>Gain(dB)</parameterid>
										<name>Gain(dB)</name>
										<valuemin>-96</valuemin>
										<valuemax>96</valuemax>
										<value>-8</value>
									</parameter>
								</effect>
							</filter>
						<link>
							<linkclipref>clipitem-273</linkclipref>
							<mediatype>audio</mediatype>
							<trackindex>9</trackindex>
							<clipindex>15</clipindex>
							<groupindex>1</groupindex>
						</link>
						<link>
							<linkclipref>clipitem-281</linkclipref>
							<mediatype>audio</mediatype>
							<trackindex>10</trackindex>
							<clipindex>8</clipindex>
							<groupindex>1</groupindex>
						</link>
						<logginginfo>
							<description></description>
							<scene></scene>
							<shottake></shottake>
							<lognote></lognote>
						</logginginfo>
						<labels>
							<label2>Caribbean</label2>
						</labels>
					</clipitem>
					<clipitem id="clipitem-274" premiereChannelType="stereo">
						<masterclipid>masterclip-86</masterclipid>
						<name>LO_CD_18_6_East_Of_West_Black_Carpenter_More_321775.wav</name>
						<enabled>TRUE</enabled>
						<duration>5532</duration>
						<rate>
							<timebase>25</timebase>
							<ntsc>FALSE</ntsc>
						</rate>
						<start>21569</start>
						<end>-1</end>
						<in>0</in>
						<out>1006</out>
						<pproTicksIn>0</pproTicksIn>
						<pproTicksOut>10221603840000</pproTicksOut>
						<file id="file-80">
							<name>LO_CD_18_6_East_Of_West_Black_Carpenter_More_321775.wav</name>
							<pathurl>file://localhost/Volumes/Bingen/Prosjekter/MYNT194016%20WHATS%20COOKING/Musikk/Jan/Universal/LO_CD_18_Ninja%20Tune%2004%20Tunes%20&amp;%20Grooves%20(All%20main%20versions)/LO_CD_18_6_East_Of_West_Black_Carpenter_More_321775.wav</pathurl>
							<rate>
								<timebase>30</timebase>
								<ntsc>TRUE</ntsc>
							</rate>
							<duration>6631</duration>
							<timecode>
								<rate>
									<timebase>30</timebase>
									<ntsc>TRUE</ntsc>
								</rate>
								<string>00;00;00;00</string>
								<frame>0</frame>
								<displayformat>DF</displayformat>
								<reel>
									<name></name>
								</reel>
							</timecode>
							<media>
								<audio>
									<samplecharacteristics>
										<depth>16</depth>
										<samplerate>44100</samplerate>
									</samplecharacteristics>
									<channelcount>2</channelcount>
								</audio>
							</media>
						</file>
						<sourcetrack>
							<mediatype>audio</mediatype>
							<trackindex>1</trackindex>
						</sourcetrack>
							<filter>
								<effect>
									<name>Gain</name>
									<effectid>{61756678, 4761696e, 4b657947}</effectid>
									<effecttype>filter</effecttype>
									<mediatype>audio</mediatype>
									<parameter authoringApp="PremierePro">
										<parameterid>Gain(dB)</parameterid>
										<name>Gain(dB)</name>
										<valuemin>-96</valuemin>
										<valuemax>96</valuemax>
										<value>-12</value>
									</parameter>
								</effect>
							</filter>
							<filter>
								<effect>
									<name>Audio Levels</name>
									<effectid>audiolevels</effectid>
									<effectcategory>audiolevels</effectcategory>
									<effecttype>audiolevels</effecttype>
									<mediatype>audio</mediatype>
									<parameter authoringApp="PremierePro">
										<parameterid>level</parameterid>
										<name>Level</name>
										<valuemin>0</valuemin>
										<valuemax>3.98109</valuemax>
										<value>1.07153</value>
									</parameter>
								</effect>
							</filter>
						<link>
							<linkclipref>clipitem-274</linkclipref>
							<mediatype>audio</mediatype>
							<trackindex>9</trackindex>
							<clipindex>16</clipindex>
							<groupindex>1</groupindex>
						</link>
						<link>
							<linkclipref>clipitem-282</linkclipref>
							<mediatype>audio</mediatype>
							<trackindex>10</trackindex>
							<clipindex>9</clipindex>
							<groupindex>1</groupindex>
						</link>
						<logginginfo>
							<description></description>
							<scene></scene>
							<shottake></shottake>
							<lognote>Jazz breaks, cheeky grooves and downtempo tunes.</lognote>
						</logginginfo>
						<labels>
							<label2>Lavender</label2>
						</labels>
					</clipitem>
					<transitionitem>
						<start>22497</start>
						<end>22575</end>
						<alignment>end-black</alignment>
						<cutPointTicks>792529920000</cutPointTicks>
						<rate>
							<timebase>25</timebase>
							<ntsc>FALSE</ntsc>
						</rate>
						<effect>
							<name>Cross Fade (+3dB)</name>
							<effectid>KGAudioTransCrossFade3dB</effectid>
							<effecttype>transition</effecttype>
							<mediatype>audio</mediatype>
							<wipecode>0</wipecode>
							<wipeaccuracy>100</wipeaccuracy>
							<startratio>0</startratio>
							<endratio>1</endratio>
							<reverse>FALSE</reverse>
						</effect>
					</transitionitem>
					<enabled>TRUE</enabled>
					<locked>FALSE</locked>
					<outputchannelindex>1</outputchannelindex>
				</track>
				<track TL.SQTrackAudioKeyframeStyle="0" TL.SQTrackShy="0" TL.SQTrackExpandedHeight="55" TL.SQTrackExpanded="1" MZ.TrackTargeted="1" PannerCurrentValue="0.5" PannerIsInverted="true" PannerStartKeyframe="-91445760000000000,0.5,0,0,0,0,0,0" PannerName="Balance" currentExplodedTrackIndex="1" totalExplodedTrackCount="2" premiereTrackType="Stereo">
					<clipitem id="clipitem-275" premiereChannelType="stereo">
						<masterclipid>masterclip-68</masterclipid>
						<name>165196__swimignorantfire__skull-crack-on-porcelain-tub.wav</name>
						<enabled>TRUE</enabled>
						<duration>56</duration>
						<rate>
							<timebase>25</timebase>
							<ntsc>FALSE</ntsc>
						</rate>
						<start>303</start>
						<end>318</end>
						<in>4</in>
						<out>19</out>
						<pproTicksIn>40642560000</pproTicksIn>
						<pproTicksOut>193052160000</pproTicksOut>
						<file id="file-65"/>
						<sourcetrack>
							<mediatype>audio</mediatype>
							<trackindex>2</trackindex>
						</sourcetrack>
							<filter>
								<effect>
									<name>Audio Levels</name>
									<effectid>audiolevels</effectid>
									<effectcategory>audiolevels</effectcategory>
									<effecttype>audiolevels</effecttype>
									<mediatype>audio</mediatype>
									<parameter authoringApp="PremierePro">
										<parameterid>level</parameterid>
										<name>Level</name>
										<valuemin>0</valuemin>
										<valuemax>3.98109</valuemax>
										<value>0.0934747</value>
									</parameter>
								</effect>
							</filter>
						<link>
							<linkclipref>clipitem-202</linkclipref>
							<mediatype>audio</mediatype>
							<trackindex>9</trackindex>
							<clipindex>2</clipindex>
							<groupindex>1</groupindex>
						</link>
						<link>
							<linkclipref>clipitem-275</linkclipref>
							<mediatype>audio</mediatype>
							<trackindex>10</trackindex>
							<clipindex>1</clipindex>
							<groupindex>1</groupindex>
						</link>
						<logginginfo>
							<description></description>
							<scene></scene>
							<shottake></shottake>
							<lognote></lognote>
						</logginginfo>
						<labels>
							<label2>Caribbean</label2>
						</labels>
					</clipitem>
					<clipitem id="clipitem-276" premiereChannelType="stereo">
						<masterclipid>masterclip-69</masterclipid>
						<name>MSTR_128_36_Smooth_Out_Harwood_Martin_Kessler_Kirby_611749.wav</name>
						<enabled>TRUE</enabled>
						<duration>2470</duration>
						<rate>
							<timebase>25</timebase>
							<ntsc>FALSE</ntsc>
						</rate>
						<start>552</start>
						<end>-1</end>
						<in>1417</in>
						<out>1489</out>
						<pproTicksIn>14397626880000</pproTicksIn>
						<pproTicksOut>15129192960000</pproTicksOut>
						<file id="file-66"/>
						<sourcetrack>
							<mediatype>audio</mediatype>
							<trackindex>2</trackindex>
						</sourcetrack>
							<filter>
								<effect>
									<name>Gain</name>
									<effectid>{61756678, 4761696e, 4b657947}</effectid>
									<effecttype>filter</effecttype>
									<mediatype>audio</mediatype>
									<parameter authoringApp="PremierePro">
										<parameterid>Gain(dB)</parameterid>
										<name>Gain(dB)</name>
										<valuemin>-96</valuemin>
										<valuemax>96</valuemax>
										<value>-20</value>
									</parameter>
								</effect>
							</filter>
						<link>
							<linkclipref>clipitem-203</linkclipref>
							<mediatype>audio</mediatype>
							<trackindex>9</trackindex>
							<clipindex>3</clipindex>
							<groupindex>1</groupindex>
						</link>
						<link>
							<linkclipref>clipitem-276</linkclipref>
							<mediatype>audio</mediatype>
							<trackindex>10</trackindex>
							<clipindex>2</clipindex>
							<groupindex>1</groupindex>
						</link>
						<logginginfo>
							<description></description>
							<scene></scene>
							<shottake></shottake>
							<lognote></lognote>
						</logginginfo>
						<labels>
							<label2>Cerulean</label2>
						</labels>
					</clipitem>
					<transitionitem>
						<start>611</start>
						<end>624</end>
						<alignment>end-black</alignment>
						<cutPointTicks>132088320000</cutPointTicks>
						<rate>
							<timebase>25</timebase>
							<ntsc>FALSE</ntsc>
						</rate>
						<effect>
							<name>Cross Fade (+3dB)</name>
							<effectid>KGAudioTransCrossFade3dB</effectid>
							<effecttype>transition</effecttype>
							<mediatype>audio</mediatype>
							<wipecode>0</wipecode>
							<wipeaccuracy>100</wipeaccuracy>
							<startratio>0</startratio>
							<endratio>1</endratio>
							<reverse>FALSE</reverse>
						</effect>
					</transitionitem>
					<clipitem id="clipitem-277" premiereChannelType="stereo">
						<masterclipid>masterclip-69</masterclipid>
						<name>MSTR_128_36_Smooth_Out_Harwood_Martin_Kessler_Kirby_611749.wav</name>
						<enabled>TRUE</enabled>
						<duration>2470</duration>
						<rate>
							<timebase>25</timebase>
							<ntsc>FALSE</ntsc>
						</rate>
						<start>763</start>
						<end>810</end>
						<in>0</in>
						<out>47</out>
						<pproTicksIn>0</pproTicksIn>
						<pproTicksOut>477550080000</pproTicksOut>
						<file id="file-66"/>
						<sourcetrack>
							<mediatype>audio</mediatype>
							<trackindex>2</trackindex>
						</sourcetrack>
							<filter>
								<effect>
									<name>Gain</name>
									<effectid>{61756678, 4761696e, 4b657947}</effectid>
									<effecttype>filter</effecttype>
									<mediatype>audio</mediatype>
									<parameter authoringApp="PremierePro">
										<parameterid>Gain(dB)</parameterid>
										<name>Gain(dB)</name>
										<valuemin>-96</valuemin>
										<valuemax>96</valuemax>
										<value>-15</value>
									</parameter>
								</effect>
							</filter>
						<link>
							<linkclipref>clipitem-204</linkclipref>
							<mediatype>audio</mediatype>
							<trackindex>9</trackindex>
							<clipindex>5</clipindex>
							<groupindex>1</groupindex>
						</link>
						<link>
							<linkclipref>clipitem-277</linkclipref>
							<mediatype>audio</mediatype>
							<trackindex>10</trackindex>
							<clipindex>4</clipindex>
							<groupindex>1</groupindex>
						</link>
						<logginginfo>
							<description></description>
							<scene></scene>
							<shottake></shottake>
							<lognote></lognote>
						</logginginfo>
						<labels>
							<label2>Rose</label2>
						</labels>
					</clipitem>
					<clipitem id="clipitem-278" premiereChannelType="stereo">
						<masterclipid>masterclip-69</masterclipid>
						<name>MSTR_128_36_Smooth_Out_Harwood_Martin_Kessler_Kirby_611749.wav</name>
						<enabled>TRUE</enabled>
						<duration>2470</duration>
						<rate>
							<timebase>25</timebase>
							<ntsc>FALSE</ntsc>
						</rate>
						<start>810</start>
						<end>956</end>
						<in>0</in>
						<out>146</out>
						<pproTicksIn>0</pproTicksIn>
						<pproTicksOut>1483453440000</pproTicksOut>
						<file id="file-66"/>
						<sourcetrack>
							<mediatype>audio</mediatype>
							<trackindex>2</trackindex>
						</sourcetrack>
							<filter>
								<effect>
									<name>Gain</name>
									<effectid>{61756678, 4761696e, 4b657947}</effectid>
									<effecttype>filter</effecttype>
									<mediatype>audio</mediatype>
									<parameter authoringApp="PremierePro">
										<parameterid>Gain(dB)</parameterid>
										<name>Gain(dB)</name>
										<valuemin>-96</valuemin>
										<valuemax>96</valuemax>
										<value>-15</value>
									</parameter>
								</effect>
							</filter>
						<link>
							<linkclipref>clipitem-205</linkclipref>
							<mediatype>audio</mediatype>
							<trackindex>9</trackindex>
							<clipindex>6</clipindex>
							<groupindex>1</groupindex>
						</link>
						<link>
							<linkclipref>clipitem-278</linkclipref>
							<mediatype>audio</mediatype>
							<trackindex>10</trackindex>
							<clipindex>5</clipindex>
							<groupindex>1</groupindex>
						</link>
						<logginginfo>
							<description></description>
							<scene></scene>
							<shottake></shottake>
							<lognote></lognote>
						</logginginfo>
						<labels>
							<label2>Rose</label2>
						</labels>
					</clipitem>
					<clipitem id="clipitem-279" premiereChannelType="stereo">
						<masterclipid>masterclip-70</masterclipid>
						<name>325328__saskia-university-project__knacken_01.wav</name>
						<enabled>TRUE</enabled>
						<duration>92</duration>
						<rate>
							<timebase>25</timebase>
							<ntsc>FALSE</ntsc>
						</rate>
						<start>7466</start>
						<end>7479</end>
						<in>50</in>
						<out>63</out>
						<pproTicksIn>508032000000</pproTicksIn>
						<pproTicksOut>640120320000</pproTicksOut>
						<file id="file-67"/>
						<sourcetrack>
							<mediatype>audio</mediatype>
							<trackindex>2</trackindex>
						</sourcetrack>
							<filter>
								<effect>
									<name>Gain</name>
									<effectid>{61756678, 4761696e, 4b657947}</effectid>
									<effecttype>filter</effecttype>
									<mediatype>audio</mediatype>
									<parameter authoringApp="PremierePro">
										<parameterid>Gain(dB)</parameterid>
										<name>Gain(dB)</name>
										<valuemin>-96</valuemin>
										<valuemax>96</valuemax>
										<value>-8</value>
									</parameter>
								</effect>
							</filter>
						<link>
							<linkclipref>clipitem-206</linkclipref>
							<mediatype>audio</mediatype>
							<trackindex>9</trackindex>
							<clipindex>7</clipindex>
							<groupindex>1</groupindex>
						</link>
						<link>
							<linkclipref>clipitem-279</linkclipref>
							<mediatype>audio</mediatype>
							<trackindex>10</trackindex>
							<clipindex>6</clipindex>
							<groupindex>1</groupindex>
						</link>
						<logginginfo>
							<description></description>
							<scene></scene>
							<shottake></shottake>
							<lognote></lognote>
						</logginginfo>
						<labels>
							<label2>Caribbean</label2>
						</labels>
					</clipitem>
					<clipitem id="clipitem-280" premiereChannelType="stereo">
						<masterclipid>masterclip-84</masterclipid>
						<name>194081__potentjello__woosh-noise-1.wav</name>
						<enabled>TRUE</enabled>
						<duration>7</duration>
						<rate>
							<timebase>25</timebase>
							<ntsc>FALSE</ntsc>
						</rate>
						<start>18964</start>
						<end>18971</end>
						<in>0</in>
						<out>7</out>
						<pproTicksIn>0</pproTicksIn>
						<pproTicksOut>71124480000</pproTicksOut>
						<file id="file-78"/>
						<sourcetrack>
							<mediatype>audio</mediatype>
							<trackindex>2</trackindex>
						</sourcetrack>
							<filter>
								<effect>
									<name>Gain</name>
									<effectid>{61756678, 4761696e, 4b657947}</effectid>
									<effecttype>filter</effecttype>
									<mediatype>audio</mediatype>
									<parameter authoringApp="PremierePro">
										<parameterid>Gain(dB)</parameterid>
										<name>Gain(dB)</name>
										<valuemin>-96</valuemin>
										<valuemax>96</valuemax>
										<value>-13</value>
									</parameter>
								</effect>
							</filter>
							<marker>
								<comment></comment>
								<name></name>
								<in>6</in>
								<out>-1</out>
							</marker>
						<link>
							<linkclipref>clipitem-272</linkclipref>
							<mediatype>audio</mediatype>
							<trackindex>9</trackindex>
							<clipindex>14</clipindex>
							<groupindex>1</groupindex>
						</link>
						<link>
							<linkclipref>clipitem-280</linkclipref>
							<mediatype>audio</mediatype>
							<trackindex>10</trackindex>
							<clipindex>7</clipindex>
							<groupindex>1</groupindex>
						</link>
						<logginginfo>
							<description></description>
							<scene></scene>
							<shottake></shottake>
							<lognote></lognote>
						</logginginfo>
						<labels>
							<label2>Caribbean</label2>
						</labels>
					</clipitem>
					<clipitem id="clipitem-281" premiereChannelType="stereo">
						<masterclipid>masterclip-85</masterclipid>
						<name>326120__luannwepener__shut-down.wav</name>
						<enabled>TRUE</enabled>
						<duration>208</duration>
						<rate>
							<timebase>25</timebase>
							<ntsc>FALSE</ntsc>
						</rate>
						<start>19779</start>
						<end>19901</end>
						<in>1</in>
						<out>123</out>
						<pproTicksIn>10160640000</pproTicksIn>
						<pproTicksOut>1249758720000</pproTicksOut>
						<file id="file-79"/>
						<sourcetrack>
							<mediatype>audio</mediatype>
							<trackindex>2</trackindex>
						</sourcetrack>
							<filter>
								<effect>
									<name>Gain</name>
									<effectid>{61756678, 4761696e, 4b657947}</effectid>
									<effecttype>filter</effecttype>
									<mediatype>audio</mediatype>
									<parameter authoringApp="PremierePro">
										<parameterid>Gain(dB)</parameterid>
										<name>Gain(dB)</name>
										<valuemin>-96</valuemin>
										<valuemax>96</valuemax>
										<value>-8</value>
									</parameter>
								</effect>
							</filter>
						<link>
							<linkclipref>clipitem-273</linkclipref>
							<mediatype>audio</mediatype>
							<trackindex>9</trackindex>
							<clipindex>15</clipindex>
							<groupindex>1</groupindex>
						</link>
						<link>
							<linkclipref>clipitem-281</linkclipref>
							<mediatype>audio</mediatype>
							<trackindex>10</trackindex>
							<clipindex>8</clipindex>
							<groupindex>1</groupindex>
						</link>
						<logginginfo>
							<description></description>
							<scene></scene>
							<shottake></shottake>
							<lognote></lognote>
						</logginginfo>
						<labels>
							<label2>Caribbean</label2>
						</labels>
					</clipitem>
					<clipitem id="clipitem-282" premiereChannelType="stereo">
						<masterclipid>masterclip-86</masterclipid>
						<name>LO_CD_18_6_East_Of_West_Black_Carpenter_More_321775.wav</name>
						<enabled>TRUE</enabled>
						<duration>5532</duration>
						<rate>
							<timebase>25</timebase>
							<ntsc>FALSE</ntsc>
						</rate>
						<start>21569</start>
						<end>-1</end>
						<in>0</in>
						<out>1006</out>
						<pproTicksIn>0</pproTicksIn>
						<pproTicksOut>10221603840000</pproTicksOut>
						<file id="file-80"/>
						<sourcetrack>
							<mediatype>audio</mediatype>
							<trackindex>2</trackindex>
						</sourcetrack>
							<filter>
								<effect>
									<name>Gain</name>
									<effectid>{61756678, 4761696e, 4b657947}</effectid>
									<effecttype>filter</effecttype>
									<mediatype>audio</mediatype>
									<parameter authoringApp="PremierePro">
										<parameterid>Gain(dB)</parameterid>
										<name>Gain(dB)</name>
										<valuemin>-96</valuemin>
										<valuemax>96</valuemax>
										<value>-12</value>
									</parameter>
								</effect>
							</filter>
							<filter>
								<effect>
									<name>Audio Levels</name>
									<effectid>audiolevels</effectid>
									<effectcategory>audiolevels</effectcategory>
									<effecttype>audiolevels</effecttype>
									<mediatype>audio</mediatype>
									<parameter authoringApp="PremierePro">
										<parameterid>level</parameterid>
										<name>Level</name>
										<valuemin>0</valuemin>
										<valuemax>3.98109</valuemax>
										<value>1.07153</value>
									</parameter>
								</effect>
							</filter>
						<link>
							<linkclipref>clipitem-274</linkclipref>
							<mediatype>audio</mediatype>
							<trackindex>9</trackindex>
							<clipindex>16</clipindex>
							<groupindex>1</groupindex>
						</link>
						<link>
							<linkclipref>clipitem-282</linkclipref>
							<mediatype>audio</mediatype>
							<trackindex>10</trackindex>
							<clipindex>9</clipindex>
							<groupindex>1</groupindex>
						</link>
						<logginginfo>
							<description></description>
							<scene></scene>
							<shottake></shottake>
							<lognote>Jazz breaks, cheeky grooves and downtempo tunes.</lognote>
						</logginginfo>
						<labels>
							<label2>Lavender</label2>
						</labels>
					</clipitem>
					<transitionitem>
						<start>22497</start>
						<end>22575</end>
						<alignment>end-black</alignment>
						<cutPointTicks>792529920000</cutPointTicks>
						<rate>
							<timebase>25</timebase>
							<ntsc>FALSE</ntsc>
						</rate>
						<effect>
							<name>Cross Fade (+3dB)</name>
							<effectid>KGAudioTransCrossFade3dB</effectid>
							<effecttype>transition</effecttype>
							<mediatype>audio</mediatype>
							<wipecode>0</wipecode>
							<wipeaccuracy>100</wipeaccuracy>
							<startratio>0</startratio>
							<endratio>1</endratio>
							<reverse>FALSE</reverse>
						</effect>
					</transitionitem>
					<enabled>TRUE</enabled>
					<locked>FALSE</locked>
					<outputchannelindex>2</outputchannelindex>
				</track>
				<track TL.SQTrackAudioKeyframeStyle="0" TL.SQTrackShy="0" TL.SQTrackExpandedHeight="55" TL.SQTrackExpanded="1" MZ.TrackTargeted="1" PannerCurrentValue="0.5" PannerIsInverted="true" PannerStartKeyframe="-91445760000000000,0.5,0,0,0,0,0,0" PannerName="Balance" currentExplodedTrackIndex="0" totalExplodedTrackCount="2" premiereTrackType="Stereo">
					<clipitem id="clipitem-283" premiereChannelType="mono">
						<masterclipid>masterclip-63</masterclipid>
						<name>Mikkelstøt-SC05-T01-Multicam</name>
						<enabled>TRUE</enabled>
						<duration>29952</duration>
						<rate>
							<timebase>25</timebase>
							<ntsc>FALSE</ntsc>
						</rate>
						<start>161</start>
						<end>184</end>
						<in>14100</in>
						<out>14123</out>
						<pproTicksIn>143265024000000</pproTicksIn>
						<pproTicksOut>143498718720000</pproTicksOut>
						<sequence id="sequence-5"/>
						<link>
							<linkclipref>clipitem-189</linkclipref>
							<mediatype>audio</mediatype>
							<trackindex>9</trackindex>
							<clipindex>1</clipindex>
							<groupindex>1</groupindex>
						</link>
						<link>
							<linkclipref>clipitem-283</linkclipref>
							<mediatype>audio</mediatype>
							<trackindex>11</trackindex>
							<clipindex>1</clipindex>
							<groupindex>1</groupindex>
						</link>
						<link>
							<linkclipref>clipitem-343</linkclipref>
							<mediatype>audio</mediatype>
							<trackindex>13</trackindex>
							<clipindex>1</clipindex>
							<groupindex>1</groupindex>
						</link>
						<link>
							<linkclipref>clipitem-427</linkclipref>
							<mediatype>audio</mediatype>
							<trackindex>15</trackindex>
							<clipindex>1</clipindex>
							<groupindex>1</groupindex>
						</link>
						<labels>
							<label2>Forest</label2>
						</labels>
					</clipitem>
					<clipitem id="clipitem-284" premiereChannelType="stereo">
						<masterclipid>masterclip-87</masterclipid>
						<name>150137__gregsmedia__gun-shot-sound-01.wav</name>
						<enabled>TRUE</enabled>
						<duration>39</duration>
						<rate>
							<timebase>25</timebase>
							<ntsc>FALSE</ntsc>
						</rate>
						<start>304</start>
						<end>325</end>
						<in>0</in>
						<out>21</out>
						<pproTicksIn>0</pproTicksIn>
						<pproTicksOut>213373440000</pproTicksOut>
						<file id="file-81">
							<name>150137__gregsmedia__gun-shot-sound-01.wav</name>
							<pathurl>file://localhost/Volumes/Bingen/Prosjekter/MYNT194016%20WHATS%20COOKING/Lydeffekter/Jan%20Lydeffekter/150137__gregsmedia__gun-shot-sound-01.wav</pathurl>
							<rate>
								<timebase>30</timebase>
								<ntsc>TRUE</ntsc>
							</rate>
							<duration>47</duration>
							<timecode>
								<rate>
									<timebase>30</timebase>
									<ntsc>TRUE</ntsc>
								</rate>
								<string>00;00;00;00</string>
								<frame>0</frame>
								<displayformat>DF</displayformat>
								<reel>
									<name></name>
								</reel>
							</timecode>
							<media>
								<audio>
									<samplecharacteristics>
										<depth>16</depth>
										<samplerate>48000</samplerate>
									</samplecharacteristics>
									<channelcount>2</channelcount>
								</audio>
							</media>
						</file>
						<sourcetrack>
							<mediatype>audio</mediatype>
							<trackindex>1</trackindex>
						</sourcetrack>
							<filter>
								<effect>
									<name>Audio Levels</name>
									<effectid>audiolevels</effectid>
									<effectcategory>audiolevels</effectcategory>
									<effecttype>audiolevels</effecttype>
									<mediatype>audio</mediatype>
									<parameter authoringApp="PremierePro">
										<parameterid>level</parameterid>
										<name>Level</name>
										<valuemin>0</valuemin>
										<valuemax>3.98109</valuemax>
										<value>0.143364</value>
									</parameter>
								</effect>
							</filter>
						<link>
							<linkclipref>clipitem-284</linkclipref>
							<mediatype>audio</mediatype>
							<trackindex>11</trackindex>
							<clipindex>2</clipindex>
							<groupindex>1</groupindex>
						</link>
						<link>
							<linkclipref>clipitem-317</linkclipref>
							<mediatype>audio</mediatype>
							<trackindex>12</trackindex>
							<clipindex>1</clipindex>
							<groupindex>1</groupindex>
						</link>
						<logginginfo>
							<description></description>
							<scene></scene>
							<shottake></shottake>
							<lognote></lognote>
						</logginginfo>
						<labels>
							<label2>Caribbean</label2>
						</labels>
					</clipitem>
					<transitionitem>
						<start>366</start>
						<end>371</end>
						<alignment>start-black</alignment>
						<cutPointTicks>0</cutPointTicks>
						<rate>
							<timebase>25</timebase>
							<ntsc>FALSE</ntsc>
						</rate>
						<effect>
							<name>Cross Fade (+3dB)</name>
							<effectid>KGAudioTransCrossFade3dB</effectid>
							<effecttype>transition</effecttype>
							<mediatype>audio</mediatype>
							<wipecode>0</wipecode>
							<wipeaccuracy>100</wipeaccuracy>
							<startratio>0</startratio>
							<endratio>1</endratio>
							<reverse>FALSE</reverse>
						</effect>
					</transitionitem>
					<clipitem id="clipitem-285" premiereChannelType="stereo">
						<masterclipid>masterclip-69</masterclipid>
						<name>MSTR_128_36_Smooth_Out_Harwood_Martin_Kessler_Kirby_611749.wav</name>
						<enabled>TRUE</enabled>
						<duration>2470</duration>
						<rate>
							<timebase>25</timebase>
							<ntsc>FALSE</ntsc>
						</rate>
						<start>-1</start>
						<end>468</end>
						<in>32</in>
						<out>134</out>
						<pproTicksIn>325140480000</pproTicksIn>
						<pproTicksOut>1361525760000</pproTicksOut>
						<file id="file-66"/>
						<sourcetrack>
							<mediatype>audio</mediatype>
							<trackindex>1</trackindex>
						</sourcetrack>
							<filter>
								<effect>
									<name>Gain</name>
									<effectid>{61756678, 4761696e, 4b657947}</effectid>
									<effecttype>filter</effecttype>
									<mediatype>audio</mediatype>
									<parameter authoringApp="PremierePro">
										<parameterid>Gain(dB)</parameterid>
										<name>Gain(dB)</name>
										<valuemin>-96</valuemin>
										<valuemax>96</valuemax>
										<value>-10</value>
									</parameter>
								</effect>
							</filter>
						<link>
							<linkclipref>clipitem-285</linkclipref>
							<mediatype>audio</mediatype>
							<trackindex>11</trackindex>
							<clipindex>4</clipindex>
							<groupindex>1</groupindex>
						</link>
						<link>
							<linkclipref>clipitem-318</linkclipref>
							<mediatype>audio</mediatype>
							<trackindex>12</trackindex>
							<clipindex>3</clipindex>
							<groupindex>1</groupindex>
						</link>
						<logginginfo>
							<description></description>
							<scene></scene>
							<shottake></shottake>
							<lognote></lognote>
						</logginginfo>
						<labels>
							<label2>Rose</label2>
						</labels>
					</clipitem>
					<clipitem id="clipitem-286" premiereChannelType="stereo">
						<masterclipid>masterclip-69</masterclipid>
						<name>MSTR_128_36_Smooth_Out_Harwood_Martin_Kessler_Kirby_611749.wav</name>
						<enabled>TRUE</enabled>
						<duration>2470</duration>
						<rate>
							<timebase>25</timebase>
							<ntsc>FALSE</ntsc>
						</rate>
						<start>468</start>
						<end>-1</end>
						<in>134</in>
						<out>194</out>
						<pproTicksIn>1361525760000</pproTicksIn>
						<pproTicksOut>1971164160000</pproTicksOut>
						<file id="file-66"/>
						<sourcetrack>
							<mediatype>audio</mediatype>
							<trackindex>1</trackindex>
						</sourcetrack>
							<filter>
								<effect>
									<name>Gain</name>
									<effectid>{61756678, 4761696e, 4b657947}</effectid>
									<effecttype>filter</effecttype>
									<mediatype>audio</mediatype>
									<parameter authoringApp="PremierePro">
										<parameterid>Gain(dB)</parameterid>
										<name>Gain(dB)</name>
										<valuemin>-96</valuemin>
										<valuemax>96</valuemax>
										<value>-20</value>
									</parameter>
								</effect>
							</filter>
						<link>
							<linkclipref>clipitem-286</linkclipref>
							<mediatype>audio</mediatype>
							<trackindex>11</trackindex>
							<clipindex>5</clipindex>
							<groupindex>1</groupindex>
						</link>
						<link>
							<linkclipref>clipitem-319</linkclipref>
							<mediatype>audio</mediatype>
							<trackindex>12</trackindex>
							<clipindex>4</clipindex>
							<groupindex>1</groupindex>
						</link>
						<logginginfo>
							<description></description>
							<scene></scene>
							<shottake></shottake>
							<lognote></lognote>
						</logginginfo>
						<labels>
							<label2>Rose</label2>
						</labels>
					</clipitem>
					<transitionitem>
						<start>521</start>
						<end>528</end>
						<alignment>end-black</alignment>
						<cutPointTicks>71124480000</cutPointTicks>
						<rate>
							<timebase>25</timebase>
							<ntsc>FALSE</ntsc>
						</rate>
						<effect>
							<name>Cross Fade (+3dB)</name>
							<effectid>KGAudioTransCrossFade3dB</effectid>
							<effecttype>transition</effecttype>
							<mediatype>audio</mediatype>
							<wipecode>0</wipecode>
							<wipeaccuracy>100</wipeaccuracy>
							<startratio>0</startratio>
							<endratio>1</endratio>
							<reverse>FALSE</reverse>
						</effect>
					</transitionitem>
					<transitionitem>
						<start>611</start>
						<end>618</end>
						<alignment>start-black</alignment>
						<cutPointTicks>0</cutPointTicks>
						<rate>
							<timebase>25</timebase>
							<ntsc>FALSE</ntsc>
						</rate>
						<effect>
							<name>Cross Fade (+3dB)</name>
							<effectid>KGAudioTransCrossFade3dB</effectid>
							<effecttype>transition</effecttype>
							<mediatype>audio</mediatype>
							<wipecode>0</wipecode>
							<wipeaccuracy>100</wipeaccuracy>
							<startratio>0</startratio>
							<endratio>1</endratio>
							<reverse>FALSE</reverse>
						</effect>
					</transitionitem>
					<clipitem id="clipitem-287" premiereChannelType="stereo">
						<masterclipid>masterclip-69</masterclipid>
						<name>MSTR_128_36_Smooth_Out_Harwood_Martin_Kessler_Kirby_611749.wav</name>
						<enabled>TRUE</enabled>
						<duration>2470</duration>
						<rate>
							<timebase>25</timebase>
							<ntsc>FALSE</ntsc>
						</rate>
						<start>-1</start>
						<end>726</end>
						<in>2355</in>
						<out>2470</out>
						<pproTicksIn>23928307200000</pproTicksIn>
						<pproTicksOut>25096780800000</pproTicksOut>
						<file id="file-66"/>
						<sourcetrack>
							<mediatype>audio</mediatype>
							<trackindex>1</trackindex>
						</sourcetrack>
							<filter>
								<effect>
									<name>Gain</name>
									<effectid>{61756678, 4761696e, 4b657947}</effectid>
									<effecttype>filter</effecttype>
									<mediatype>audio</mediatype>
									<parameter authoringApp="PremierePro">
										<parameterid>Gain(dB)</parameterid>
										<name>Gain(dB)</name>
										<valuemin>-96</valuemin>
										<valuemax>96</valuemax>
										<value>-20</value>
									</parameter>
								</effect>
							</filter>
						<link>
							<linkclipref>clipitem-287</linkclipref>
							<mediatype>audio</mediatype>
							<trackindex>11</trackindex>
							<clipindex>8</clipindex>
							<groupindex>1</groupindex>
						</link>
						<link>
							<linkclipref>clipitem-320</linkclipref>
							<mediatype>audio</mediatype>
							<trackindex>12</trackindex>
							<clipindex>7</clipindex>
							<groupindex>1</groupindex>
						</link>
						<logginginfo>
							<description></description>
							<scene></scene>
							<shottake></shottake>
							<lognote></lognote>
						</logginginfo>
						<labels>
							<label2>Rose</label2>
						</labels>
					</clipitem>
					<clipitem id="clipitem-288" premiereChannelType="stereo">
						<masterclipid>masterclip-88</masterclipid>
						<name>267887__wjl__short-fireball-woosh.wav</name>
						<enabled>TRUE</enabled>
						<duration>29</duration>
						<rate>
							<timebase>25</timebase>
							<ntsc>FALSE</ntsc>
						</rate>
						<start>944</start>
						<end>974</end>
						<in>0</in>
						<out>30</out>
						<pproTicksIn>0</pproTicksIn>
						<pproTicksOut>304819200000</pproTicksOut>
						<file id="file-82">
							<name>267887__wjl__short-fireball-woosh.wav</name>
							<pathurl>file://localhost/Volumes/Bingen/Prosjekter/MYNT194016%20WHATS%20COOKING/Lydeffekter/Jan%20Lydeffekter/Woosh/267887__wjl__short-fireball-woosh.wav</pathurl>
							<rate>
								<timebase>30</timebase>
								<ntsc>TRUE</ntsc>
							</rate>
							<duration>35</duration>
							<timecode>
								<rate>
									<timebase>30</timebase>
									<ntsc>TRUE</ntsc>
								</rate>
								<string>00;00;00;00</string>
								<frame>0</frame>
								<displayformat>DF</displayformat>
								<reel>
									<name></name>
								</reel>
							</timecode>
							<media>
								<audio>
									<samplecharacteristics>
										<depth>16</depth>
										<samplerate>48000</samplerate>
									</samplecharacteristics>
									<channelcount>2</channelcount>
								</audio>
							</media>
						</file>
						<sourcetrack>
							<mediatype>audio</mediatype>
							<trackindex>1</trackindex>
						</sourcetrack>
							<filter>
								<effect>
									<name>Gain</name>
									<effectid>{61756678, 4761696e, 4b657947}</effectid>
									<effecttype>filter</effecttype>
									<mediatype>audio</mediatype>
									<parameter authoringApp="PremierePro">
										<parameterid>Gain(dB)</parameterid>
										<name>Gain(dB)</name>
										<valuemin>-96</valuemin>
										<valuemax>96</valuemax>
										<value>-28</value>
									</parameter>
								</effect>
							</filter>
						<link>
							<linkclipref>clipitem-288</linkclipref>
							<mediatype>audio</mediatype>
							<trackindex>11</trackindex>
							<clipindex>9</clipindex>
							<groupindex>1</groupindex>
						</link>
						<link>
							<linkclipref>clipitem-321</linkclipref>
							<mediatype>audio</mediatype>
							<trackindex>12</trackindex>
							<clipindex>8</clipindex>
							<groupindex>1</groupindex>
						</link>
						<logginginfo>
							<description></description>
							<scene></scene>
							<shottake></shottake>
							<lognote></lognote>
						</logginginfo>
						<labels>
							<label2>Caribbean</label2>
						</labels>
					</clipitem>
					<clipitem id="clipitem-289" premiereChannelType="stereo">
						<masterclipid>masterclip-89</masterclipid>
						<name>NONRE633380HD0012 Widow (Instrumental Demo).wav</name>
						<enabled>TRUE</enabled>
						<duration>4132</duration>
						<rate>
							<timebase>25</timebase>
							<ntsc>FALSE</ntsc>
						</rate>
						<start>1317</start>
						<end>3683</end>
						<in>0</in>
						<out>2366</out>
						<pproTicksIn>0</pproTicksIn>
						<pproTicksOut>24040074240000</pproTicksOut>
						<file id="file-83">
							<name>NONRE633380HD0012 Widow (Instrumental Demo).wav</name>
							<pathurl>file://localhost/Volumes/Bingen/Prosjekter/MYNT194016%20WHATS%20COOKING/Musikk/Jan/DMA/Tommy%20Tee/NONRE633380HD0012%20Widow%20(Instrumental%20Demo).wav</pathurl>
							<rate>
								<timebase>30</timebase>
								<ntsc>TRUE</ntsc>
							</rate>
							<duration>4953</duration>
							<timecode>
								<rate>
									<timebase>30</timebase>
									<ntsc>TRUE</ntsc>
								</rate>
								<string>00;00;00;00</string>
								<frame>0</frame>
								<displayformat>DF</displayformat>
								<reel>
									<name></name>
								</reel>
							</timecode>
							<media>
								<audio>
									<samplecharacteristics>
										<depth>16</depth>
										<samplerate>48000</samplerate>
									</samplecharacteristics>
									<channelcount>2</channelcount>
								</audio>
							</media>
						</file>
						<sourcetrack>
							<mediatype>audio</mediatype>
							<trackindex>1</trackindex>
						</sourcetrack>
							<filter>
								<effect>
									<name>Gain</name>
									<effectid>{61756678, 4761696e, 4b657947}</effectid>
									<effecttype>filter</effecttype>
									<mediatype>audio</mediatype>
									<parameter authoringApp="PremierePro">
										<parameterid>Gain(dB)</parameterid>
										<name>Gain(dB)</name>
										<valuemin>-96</valuemin>
										<valuemax>96</valuemax>
										<value>-30</value>
									</parameter>
								</effect>
							</filter>
						<link>
							<linkclipref>clipitem-289</linkclipref>
							<mediatype>audio</mediatype>
							<trackindex>11</trackindex>
							<clipindex>10</clipindex>
							<groupindex>1</groupindex>
						</link>
						<link>
							<linkclipref>clipitem-322</linkclipref>
							<mediatype>audio</mediatype>
							<trackindex>12</trackindex>
							<clipindex>9</clipindex>
							<groupindex>1</groupindex>
						</link>
						<logginginfo>
							<description></description>
							<scene></scene>
							<shottake></shottake>
							<lognote></lognote>
						</logginginfo>
						<labels>
							<label2>Caribbean</label2>
						</labels>
					</clipitem>
					<transitionitem>
						<start>4212</start>
						<end>4229</end>
						<alignment>start-black</alignment>
						<cutPointTicks>0</cutPointTicks>
						<rate>
							<timebase>25</timebase>
							<ntsc>FALSE</ntsc>
						</rate>
						<effect>
							<name>Cross Fade (+3dB)</name>
							<effectid>KGAudioTransCrossFade3dB</effectid>
							<effecttype>transition</effecttype>
							<mediatype>audio</mediatype>
							<wipecode>0</wipecode>
							<wipeaccuracy>100</wipeaccuracy>
							<startratio>0</startratio>
							<endratio>1</endratio>
							<reverse>FALSE</reverse>
						</effect>
					</transitionitem>
					<clipitem id="clipitem-290" premiereChannelType="stereo">
						<masterclipid>masterclip-90</masterclipid>
						<name>NONRO306374CS0002 Phone Tap  (Instrumental).wav</name>
						<enabled>TRUE</enabled>
						<duration>5684</duration>
						<rate>
							<timebase>25</timebase>
							<ntsc>FALSE</ntsc>
						</rate>
						<start>-1</start>
						<end>-1</end>
						<in>1141</in>
						<out>1632</out>
						<pproTicksIn>11593290240000</pproTicksIn>
						<pproTicksOut>16582164480000</pproTicksOut>
						<file id="file-84">
							<name>NONRO306374CS0002 Phone Tap  (Instrumental).wav</name>
							<pathurl>file://localhost/Volumes/Bingen/Prosjekter/MYNT194016%20WHATS%20COOKING/Musikk/Jan/DMA/Hip%20hop%20instrumentals/NONRO306374CS0002%20Phone%20Tap%20%20(Instrumental).wav</pathurl>
							<rate>
								<timebase>30</timebase>
								<ntsc>TRUE</ntsc>
							</rate>
							<duration>6813</duration>
							<timecode>
								<rate>
									<timebase>30</timebase>
									<ntsc>TRUE</ntsc>
								</rate>
								<string>00;00;00;00</string>
								<frame>0</frame>
								<displayformat>DF</displayformat>
								<reel>
									<name></name>
								</reel>
							</timecode>
							<media>
								<audio>
									<samplecharacteristics>
										<depth>16</depth>
										<samplerate>48000</samplerate>
									</samplecharacteristics>
									<channelcount>2</channelcount>
								</audio>
							</media>
						</file>
						<sourcetrack>
							<mediatype>audio</mediatype>
							<trackindex>1</trackindex>
						</sourcetrack>
							<filter>
								<effect>
									<name>Gain</name>
									<effectid>{61756678, 4761696e, 4b657947}</effectid>
									<effecttype>filter</effecttype>
									<mediatype>audio</mediatype>
									<parameter authoringApp="PremierePro">
										<parameterid>Gain(dB)</parameterid>
										<name>Gain(dB)</name>
										<valuemin>-96</valuemin>
										<valuemax>96</valuemax>
										<value>-25</value>
									</parameter>
								</effect>
							</filter>
						<link>
							<linkclipref>clipitem-290</linkclipref>
							<mediatype>audio</mediatype>
							<trackindex>11</trackindex>
							<clipindex>12</clipindex>
							<groupindex>1</groupindex>
						</link>
						<link>
							<linkclipref>clipitem-323</linkclipref>
							<mediatype>audio</mediatype>
							<trackindex>12</trackindex>
							<clipindex>11</clipindex>
							<groupindex>1</groupindex>
						</link>
						<logginginfo>
							<description></description>
							<scene></scene>
							<shottake></shottake>
							<lognote>CD Track 2 archiveNo[306374018]</lognote>
						</logginginfo>
						<labels>
							<label2>Iris</label2>
						</labels>
					</clipitem>
					<transitionitem>
						<start>4641</start>
						<end>4703</end>
						<alignment>end-black</alignment>
						<cutPointTicks>629959680000</cutPointTicks>
						<rate>
							<timebase>25</timebase>
							<ntsc>FALSE</ntsc>
						</rate>
						<effect>
							<name>Cross Fade (+3dB)</name>
							<effectid>KGAudioTransCrossFade3dB</effectid>
							<effecttype>transition</effecttype>
							<mediatype>audio</mediatype>
							<wipecode>0</wipecode>
							<wipeaccuracy>100</wipeaccuracy>
							<startratio>0</startratio>
							<endratio>1</endratio>
							<reverse>FALSE</reverse>
						</effect>
					</transitionitem>
					<clipitem id="clipitem-291" premiereChannelType="stereo">
						<masterclipid>masterclip-91</masterclipid>
						<name>NONRE633380HD0008 Uphony (Instrumental).wav</name>
						<enabled>TRUE</enabled>
						<duration>4432</duration>
						<rate>
							<timebase>25</timebase>
							<ntsc>FALSE</ntsc>
						</rate>
						<start>5284</start>
						<end>5533</end>
						<in>0</in>
						<out>249</out>
						<pproTicksIn>0</pproTicksIn>
						<pproTicksOut>2529999360000</pproTicksOut>
						<file id="file-85">
							<name>NONRE633380HD0008 Uphony (Instrumental).wav</name>
							<pathurl>file://localhost/Volumes/Bingen/Prosjekter/MYNT194016%20WHATS%20COOKING/Musikk/Jan/DMA/Tommy%20Tee/NONRE633380HD0008%20Uphony%20(Instrumental).wav</pathurl>
							<rate>
								<timebase>30</timebase>
								<ntsc>TRUE</ntsc>
							</rate>
							<duration>5313</duration>
							<timecode>
								<rate>
									<timebase>30</timebase>
									<ntsc>TRUE</ntsc>
								</rate>
								<string>00;00;00;00</string>
								<frame>0</frame>
								<displayformat>DF</displayformat>
								<reel>
									<name></name>
								</reel>
							</timecode>
							<media>
								<audio>
									<samplecharacteristics>
										<depth>16</depth>
										<samplerate>48000</samplerate>
									</samplecharacteristics>
									<channelcount>2</channelcount>
								</audio>
							</media>
						</file>
						<sourcetrack>
							<mediatype>audio</mediatype>
							<trackindex>1</trackindex>
						</sourcetrack>
							<filter>
								<effect>
									<name>Gain</name>
									<effectid>{61756678, 4761696e, 4b657947}</effectid>
									<effecttype>filter</effecttype>
									<mediatype>audio</mediatype>
									<parameter authoringApp="PremierePro">
										<parameterid>Gain(dB)</parameterid>
										<name>Gain(dB)</name>
										<valuemin>-96</valuemin>
										<valuemax>96</valuemax>
										<value>-27</value>
									</parameter>
								</effect>
							</filter>
						<link>
							<linkclipref>clipitem-291</linkclipref>
							<mediatype>audio</mediatype>
							<trackindex>11</trackindex>
							<clipindex>14</clipindex>
							<groupindex>1</groupindex>
						</link>
						<link>
							<linkclipref>clipitem-324</linkclipref>
							<mediatype>audio</mediatype>
							<trackindex>12</trackindex>
							<clipindex>13</clipindex>
							<groupindex>1</groupindex>
						</link>
						<logginginfo>
							<description></description>
							<scene></scene>
							<shottake></shottake>
							<lognote></lognote>
						</logginginfo>
						<labels>
							<label2>Violet</label2>
						</labels>
					</clipitem>
					<clipitem id="clipitem-292" premiereChannelType="stereo">
						<masterclipid>masterclip-91</masterclipid>
						<name>NONRE633380HD0008 Uphony (Instrumental).wav</name>
						<enabled>TRUE</enabled>
						<duration>4432</duration>
						<rate>
							<timebase>25</timebase>
							<ntsc>FALSE</ntsc>
						</rate>
						<start>5533</start>
						<end>-1</end>
						<in>249</in>
						<out>1608</out>
						<pproTicksIn>2529999360000</pproTicksIn>
						<pproTicksOut>16338309120000</pproTicksOut>
						<file id="file-85"/>
						<sourcetrack>
							<mediatype>audio</mediatype>
							<trackindex>1</trackindex>
						</sourcetrack>
							<filter>
								<effect>
									<name>Gain</name>
									<effectid>{61756678, 4761696e, 4b657947}</effectid>
									<effecttype>filter</effecttype>
									<mediatype>audio</mediatype>
									<parameter authoringApp="PremierePro">
										<parameterid>Gain(dB)</parameterid>
										<name>Gain(dB)</name>
										<valuemin>-96</valuemin>
										<valuemax>96</valuemax>
										<value>-33</value>
									</parameter>
								</effect>
							</filter>
						<link>
							<linkclipref>clipitem-292</linkclipref>
							<mediatype>audio</mediatype>
							<trackindex>11</trackindex>
							<clipindex>15</clipindex>
							<groupindex>1</groupindex>
						</link>
						<link>
							<linkclipref>clipitem-325</linkclipref>
							<mediatype>audio</mediatype>
							<trackindex>12</trackindex>
							<clipindex>14</clipindex>
							<groupindex>1</groupindex>
						</link>
						<logginginfo>
							<description></description>
							<scene></scene>
							<shottake></shottake>
							<lognote></lognote>
						</logginginfo>
						<labels>
							<label2>Violet</label2>
						</labels>
					</clipitem>
					<transitionitem>
						<start>6879</start>
						<end>6892</end>
						<alignment>end-black</alignment>
						<cutPointTicks>132088320000</cutPointTicks>
						<rate>
							<timebase>25</timebase>
							<ntsc>FALSE</ntsc>
						</rate>
						<effect>
							<name>Cross Fade (+3dB)</name>
							<effectid>KGAudioTransCrossFade3dB</effectid>
							<effecttype>transition</effecttype>
							<mediatype>audio</mediatype>
							<wipecode>0</wipecode>
							<wipeaccuracy>100</wipeaccuracy>
							<startratio>0</startratio>
							<endratio>1</endratio>
							<reverse>FALSE</reverse>
						</effect>
					</transitionitem>
					<clipitem id="clipitem-293" premiereChannelType="mono">
						<masterclipid>masterclip-92</masterclipid>
						<name>57955__noisecollector__digicamradiation.wav</name>
						<enabled>TRUE</enabled>
						<duration>3575</duration>
						<rate>
							<timebase>25</timebase>
							<ntsc>FALSE</ntsc>
						</rate>
						<start>7462</start>
						<end>7507</end>
						<in>3411</in>
						<out>3456</out>
						<pproTicksIn>34657943040000</pproTicksIn>
						<pproTicksOut>35115171840000</pproTicksOut>
						<file id="file-86">
							<name>57955__noisecollector__digicamradiation.wav</name>
							<pathurl>file://localhost/Volumes/Bingen/Prosjekter/MYNT194016%20WHATS%20COOKING/Lydeffekter/Jan%20Lydeffekter/57955__noisecollector__digicamradiation.wav</pathurl>
							<rate>
								<timebase>30</timebase>
								<ntsc>TRUE</ntsc>
							</rate>
							<duration>4286</duration>
							<timecode>
								<rate>
									<timebase>30</timebase>
									<ntsc>TRUE</ntsc>
								</rate>
								<string>00;00;00;00</string>
								<frame>0</frame>
								<displayformat>DF</displayformat>
								<reel>
									<name></name>
								</reel>
							</timecode>
							<media>
								<audio>
									<samplecharacteristics>
										<depth>16</depth>
										<samplerate>48000</samplerate>
									</samplecharacteristics>
									<channelcount>1</channelcount>
									<audiochannel>
										<sourcechannel>1</sourcechannel>
									</audiochannel>
								</audio>
							</media>
						</file>
						<sourcetrack>
							<mediatype>audio</mediatype>
							<trackindex>1</trackindex>
						</sourcetrack>
							<filter>
								<effect>
									<name>Gain</name>
									<effectid>{61756678, 4761696e, 4b657947}</effectid>
									<effecttype>filter</effecttype>
									<mediatype>audio</mediatype>
									<parameter authoringApp="PremierePro">
										<parameterid>Gain(dB)</parameterid>
										<name>Gain(dB)</name>
										<valuemin>-96</valuemin>
										<valuemax>96</valuemax>
										<value>-5</value>
									</parameter>
								</effect>
							</filter>
						<logginginfo>
							<description></description>
							<scene></scene>
							<shottake></shottake>
							<lognote></lognote>
						</logginginfo>
						<labels>
							<label2>Mango</label2>
						</labels>
					</clipitem>
					<transitionitem>
						<start>7625</start>
						<end>7627</end>
						<alignment>start-black</alignment>
						<cutPointTicks>0</cutPointTicks>
						<rate>
							<timebase>25</timebase>
							<ntsc>FALSE</ntsc>
						</rate>
						<effect>
							<name>Cross Fade (+3dB)</name>
							<effectid>KGAudioTransCrossFade3dB</effectid>
							<effecttype>transition</effecttype>
							<mediatype>audio</mediatype>
							<wipecode>0</wipecode>
							<wipeaccuracy>100</wipeaccuracy>
							<startratio>0</startratio>
							<endratio>1</endratio>
							<reverse>FALSE</reverse>
						</effect>
					</transitionitem>
					<clipitem id="clipitem-294" premiereChannelType="stereo">
						<masterclipid>masterclip-93</masterclipid>
						<name>SUN_3_2_Neon_Pulse_Keaton_Thomas_920961.wav</name>
						<enabled>TRUE</enabled>
						<duration>5212</duration>
						<rate>
							<timebase>25</timebase>
							<ntsc>FALSE</ntsc>
						</rate>
						<start>-1</start>
						<end>-1</end>
						<in>855</in>
						<out>906</out>
						<pproTicksIn>8687347200000</pproTicksIn>
						<pproTicksOut>9205539840000</pproTicksOut>
						<file id="file-87">
							<name>SUN_3_2_Neon_Pulse_Keaton_Thomas_920961.wav</name>
							<pathurl>file://localhost/Volumes/Bingen/Prosjekter/MYNT194016%20WHATS%20COOKING/Musikk/Stig/Universal/SUN_3_2_Neon_Pulse_Keaton_Thomas_920961.wav</pathurl>
							<rate>
								<timebase>30</timebase>
								<ntsc>TRUE</ntsc>
							</rate>
							<duration>6248</duration>
							<timecode>
								<rate>
									<timebase>30</timebase>
									<ntsc>TRUE</ntsc>
								</rate>
								<string>00;00;00;00</string>
								<frame>0</frame>
								<displayformat>DF</displayformat>
								<reel>
									<name></name>
								</reel>
							</timecode>
							<media>
								<audio>
									<samplecharacteristics>
										<depth>16</depth>
										<samplerate>44100</samplerate>
									</samplecharacteristics>
									<channelcount>2</channelcount>
								</audio>
							</media>
						</file>
						<sourcetrack>
							<mediatype>audio</mediatype>
							<trackindex>1</trackindex>
						</sourcetrack>
							<filter>
								<effect>
									<name>Gain</name>
									<effectid>{61756678, 4761696e, 4b657947}</effectid>
									<effecttype>filter</effecttype>
									<mediatype>audio</mediatype>
									<parameter authoringApp="PremierePro">
										<parameterid>Gain(dB)</parameterid>
										<name>Gain(dB)</name>
										<valuemin>-96</valuemin>
										<valuemax>96</valuemax>
										<value>-5</value>
									</parameter>
								</effect>
							</filter>
							<filter>
								<effect>
									<name>Audio Levels</name>
									<effectid>audiolevels</effectid>
									<effectcategory>audiolevels</effectcategory>
									<effecttype>audiolevels</effecttype>
									<mediatype>audio</mediatype>
									<parameter authoringApp="PremierePro">
										<parameterid>level</parameterid>
										<name>Level</name>
										<valuemin>0</valuemin>
										<valuemax>3.98109</valuemax>
										<value>0.21702</value>
									</parameter>
								</effect>
							</filter>
						<link>
							<linkclipref>clipitem-294</linkclipref>
							<mediatype>audio</mediatype>
							<trackindex>11</trackindex>
							<clipindex>19</clipindex>
							<groupindex>1</groupindex>
						</link>
						<link>
							<linkclipref>clipitem-326</linkclipref>
							<mediatype>audio</mediatype>
							<trackindex>12</trackindex>
							<clipindex>17</clipindex>
							<groupindex>1</groupindex>
						</link>
						<logginginfo>
							<description></description>
							<scene></scene>
							<shottake></shottake>
							<lognote></lognote>
						</logginginfo>
						<labels>
							<label2>Caribbean</label2>
						</labels>
					</clipitem>
					<transitionitem>
						<start>7663</start>
						<end>7676</end>
						<alignment>end-black</alignment>
						<cutPointTicks>132088320000</cutPointTicks>
						<rate>
							<timebase>25</timebase>
							<ntsc>FALSE</ntsc>
						</rate>
						<effect>
							<name>Cross Fade (+3dB)</name>
							<effectid>KGAudioTransCrossFade3dB</effectid>
							<effecttype>transition</effecttype>
							<mediatype>audio</mediatype>
							<wipecode>0</wipecode>
							<wipeaccuracy>100</wipeaccuracy>
							<startratio>0</startratio>
							<endratio>1</endratio>
							<reverse>FALSE</reverse>
						</effect>
					</transitionitem>
					<clipitem id="clipitem-295" premiereChannelType="mono">
						<masterclipid>masterclip-71</masterclipid>
						<name>vb-krenk-Multicam-XX 02</name>
						<enabled>TRUE</enabled>
						<duration>47419</duration>
						<rate>
							<timebase>25</timebase>
							<ntsc>FALSE</ntsc>
						</rate>
						<start>8965</start>
						<end>8976</end>
						<in>5965</in>
						<out>5976</out>
						<pproTicksIn>60608217600000</pproTicksIn>
						<pproTicksOut>60719984640000</pproTicksOut>
						<sequence id="sequence-6"/>
							<filter>
								<effect>
									<name>Audio Levels</name>
									<effectid>audiolevels</effectid>
									<effectcategory>audiolevels</effectcategory>
									<effecttype>audiolevels</effecttype>
									<mediatype>audio</mediatype>
									<parameter authoringApp="PremierePro">
										<parameterid>level</parameterid>
										<name>Level</name>
										<valuemin>0</valuemin>
										<valuemax>3.98109</valuemax>
										<value>1.99053</value>
									</parameter>
								</effect>
							</filter>
						<labels>
							<label2>Forest</label2>
						</labels>
					</clipitem>
					<clipitem id="clipitem-296" premiereChannelType="stereo">
						<masterclipid>masterclip-94</masterclipid>
						<name>NONRO141830CD0007 We Got What you Want.wav</name>
						<enabled>TRUE</enabled>
						<duration>5787</duration>
						<rate>
							<timebase>25</timebase>
							<ntsc>FALSE</ntsc>
						</rate>
						<start>10811</start>
						<end>-1</end>
						<in>5202</in>
						<out>5449</out>
						<pproTicksIn>52855649280000</pproTicksIn>
						<pproTicksOut>55365327360000</pproTicksOut>
						<file id="file-88">
							<name>NONRO141830CD0007 We Got What you Want.wav</name>
							<pathurl>file://localhost/Volumes/Bingen/Prosjekter/MYNT194016%20WHATS%20COOKING/Musikk/Jan/DMA/NONRO141830CD0007%20We%20Got%20What%20you%20Want.wav</pathurl>
							<rate>
								<timebase>30</timebase>
								<ntsc>TRUE</ntsc>
							</rate>
							<duration>6937</duration>
							<timecode>
								<rate>
									<timebase>30</timebase>
									<ntsc>TRUE</ntsc>
								</rate>
								<string>00;00;00;00</string>
								<frame>0</frame>
								<displayformat>DF</displayformat>
								<reel>
									<name></name>
								</reel>
							</timecode>
							<media>
								<audio>
									<samplecharacteristics>
										<depth>16</depth>
										<samplerate>48000</samplerate>
									</samplecharacteristics>
									<channelcount>2</channelcount>
								</audio>
							</media>
						</file>
						<sourcetrack>
							<mediatype>audio</mediatype>
							<trackindex>1</trackindex>
						</sourcetrack>
							<filter>
								<effect>
									<name>Gain</name>
									<effectid>{61756678, 4761696e, 4b657947}</effectid>
									<effecttype>filter</effecttype>
									<mediatype>audio</mediatype>
									<parameter authoringApp="PremierePro">
										<parameterid>Gain(dB)</parameterid>
										<name>Gain(dB)</name>
										<valuemin>-96</valuemin>
										<valuemax>96</valuemax>
										<value>-10</value>
									</parameter>
								</effect>
							</filter>
						<link>
							<linkclipref>clipitem-296</linkclipref>
							<mediatype>audio</mediatype>
							<trackindex>11</trackindex>
							<clipindex>22</clipindex>
							<groupindex>1</groupindex>
						</link>
						<link>
							<linkclipref>clipitem-327</linkclipref>
							<mediatype>audio</mediatype>
							<trackindex>12</trackindex>
							<clipindex>19</clipindex>
							<groupindex>1</groupindex>
						</link>
						<logginginfo>
							<description></description>
							<scene></scene>
							<shottake></shottake>
							<lognote>CD Track 7 archiveNo[141830018]</lognote>
						</logginginfo>
						<labels>
							<label2>Rose</label2>
						</labels>
					</clipitem>
					<transitionitem>
						<start>11045</start>
						<end>11058</end>
						<alignment>end-black</alignment>
						<cutPointTicks>132088320000</cutPointTicks>
						<rate>
							<timebase>25</timebase>
							<ntsc>FALSE</ntsc>
						</rate>
						<effect>
							<name>Cross Fade (+3dB)</name>
							<effectid>KGAudioTransCrossFade3dB</effectid>
							<effecttype>transition</effecttype>
							<mediatype>audio</mediatype>
							<wipecode>0</wipecode>
							<wipeaccuracy>100</wipeaccuracy>
							<startratio>0</startratio>
							<endratio>1</endratio>
							<reverse>FALSE</reverse>
						</effect>
					</transitionitem>
					<transitionitem>
						<start>14616</start>
						<end>14629</end>
						<alignment>start-black</alignment>
						<cutPointTicks>0</cutPointTicks>
						<rate>
							<timebase>25</timebase>
							<ntsc>FALSE</ntsc>
						</rate>
						<effect>
							<name>Cross Fade (+3dB)</name>
							<effectid>KGAudioTransCrossFade3dB</effectid>
							<effecttype>transition</effecttype>
							<mediatype>audio</mediatype>
							<wipecode>0</wipecode>
							<wipeaccuracy>100</wipeaccuracy>
							<startratio>0</startratio>
							<endratio>1</endratio>
							<reverse>FALSE</reverse>
						</effect>
					</transitionitem>
					<clipitem id="clipitem-297" premiereChannelType="mono">
						<masterclipid>masterclip-75</masterclipid>
						<name>backstage-T03-Multicam</name>
						<enabled>TRUE</enabled>
						<duration>100318</duration>
						<rate>
							<timebase>25</timebase>
							<ntsc>FALSE</ntsc>
						</rate>
						<start>-1</start>
						<end>14813</end>
						<in>8820</in>
						<out>9017</out>
						<pproTicksIn>89616844800000</pproTicksIn>
						<pproTicksOut>91618490880000</pproTicksOut>
						<sequence id="sequence-7"/>
							<filter>
								<effect>
									<name>Gain</name>
									<effectid>{61756678, 4761696e, 4b657947}</effectid>
									<effecttype>filter</effecttype>
									<mediatype>audio</mediatype>
									<parameter authoringApp="PremierePro">
										<parameterid>Gain(dB)</parameterid>
										<name>Gain(dB)</name>
										<valuemin>-96</valuemin>
										<valuemax>96</valuemax>
										<value>6</value>
									</parameter>
								</effect>
							</filter>
							<filter>
								<effect>
									<name>Audio Levels</name>
									<effectid>audiolevels</effectid>
									<effectcategory>audiolevels</effectcategory>
									<effecttype>audiolevels</effecttype>
									<mediatype>audio</mediatype>
									<parameter authoringApp="PremierePro">
										<parameterid>level</parameterid>
										<name>Level</name>
										<valuemin>0</valuemin>
										<valuemax>3.98109</valuemax>
										<value>1.89361</value>
									</parameter>
								</effect>
							</filter>
						<link>
							<linkclipref>clipitem-218</linkclipref>
							<mediatype>audio</mediatype>
							<trackindex>9</trackindex>
							<clipindex>11</clipindex>
							<groupindex>1</groupindex>
						</link>
						<link>
							<linkclipref>clipitem-297</linkclipref>
							<mediatype>audio</mediatype>
							<trackindex>11</trackindex>
							<clipindex>25</clipindex>
							<groupindex>1</groupindex>
						</link>
						<link>
							<linkclipref>clipitem-357</linkclipref>
							<mediatype>audio</mediatype>
							<trackindex>13</trackindex>
							<clipindex>27</clipindex>
							<groupindex>1</groupindex>
						</link>
						<link>
							<linkclipref>clipitem-438</linkclipref>
							<mediatype>audio</mediatype>
							<trackindex>15</trackindex>
							<clipindex>14</clipindex>
							<groupindex>1</groupindex>
						</link>
						<link>
							<linkclipref>clipitem-487</linkclipref>
							<mediatype>audio</mediatype>
							<trackindex>17</trackindex>
							<clipindex>10</clipindex>
							<groupindex>1</groupindex>
						</link>
						<labels>
							<label2>Forest</label2>
						</labels>
					</clipitem>
					<transitionitem>
						<start>16408</start>
						<end>16419</end>
						<alignment>start-black</alignment>
						<cutPointTicks>0</cutPointTicks>
						<rate>
							<timebase>25</timebase>
							<ntsc>FALSE</ntsc>
						</rate>
						<effect>
							<name>Cross Fade (+3dB)</name>
							<effectid>KGAudioTransCrossFade3dB</effectid>
							<effecttype>transition</effecttype>
							<mediatype>audio</mediatype>
							<wipecode>0</wipecode>
							<wipeaccuracy>100</wipeaccuracy>
							<startratio>0</startratio>
							<endratio>1</endratio>
							<reverse>FALSE</reverse>
						</effect>
					</transitionitem>
					<clipitem id="clipitem-298" premiereChannelType="mono">
						<masterclipid>masterclip-95</masterclipid>
						<name>00064.mov Copy 01</name>
						<enabled>TRUE</enabled>
						<duration>272233</duration>
						<rate>
							<timebase>25</timebase>
							<ntsc>FALSE</ntsc>
						</rate>
						<start>-1</start>
						<end>16419</end>
						<in>213086</in>
						<out>213097</out>
						<pproTicksIn>2165090135040000</pproTicksIn>
						<pproTicksOut>2165201902080000</pproTicksOut>
						<pixelaspectratio>square</pixelaspectratio>
						<anamorphic>FALSE</anamorphic>
						<file id="file-89">
							<name>00064.mov</name>
							<pathurl>file://localhost/Volumes/Bingen/Prosjekter/MYNT194016%20WHATS%20COOKING/Media/Episode%2005%20N-ordet/VB-opptak/20042016/KAM%20F%20(sonyNX)/ProRes/00064.mov</pathurl>
							<rate>
								<timebase>25</timebase>
								<ntsc>FALSE</ntsc>
							</rate>
							<duration>272233</duration>
							<timecode>
								<rate>
									<timebase>25</timebase>
									<ntsc>FALSE</ntsc>
								</rate>
								<string>00:00:00:00</string>
								<frame>0</frame>
								<displayformat>NDF</displayformat>
								<reel>
									<name></name>
								</reel>
							</timecode>
							<media>
								<video>
									<samplecharacteristics>
										<rate>
											<timebase>25</timebase>
											<ntsc>FALSE</ntsc>
										</rate>
										<width>1920</width>
										<height>1080</height>
										<anamorphic>FALSE</anamorphic>
										<pixelaspectratio>square</pixelaspectratio>
										<fielddominance>none</fielddominance>
									</samplecharacteristics>
								</video>
								<audio>
									<samplecharacteristics>
										<depth>16</depth>
										<samplerate>48000</samplerate>
									</samplecharacteristics>
									<channelcount>1</channelcount>
									<layout>stereo</layout>
									<audiochannel>
										<sourcechannel>1</sourcechannel>
										<channellabel>left</channellabel>
									</audiochannel>
								</audio>
								<audio>
									<samplecharacteristics>
										<depth>16</depth>
										<samplerate>48000</samplerate>
									</samplecharacteristics>
									<channelcount>1</channelcount>
									<layout>stereo</layout>
									<audiochannel>
										<sourcechannel>2</sourcechannel>
										<channellabel>right</channellabel>
									</audiochannel>
								</audio>
							</media>
						</file>
						<sourcetrack>
							<mediatype>audio</mediatype>
							<trackindex>1</trackindex>
						</sourcetrack>
						<link>
							<linkclipref>clipitem-298</linkclipref>
							<mediatype>audio</mediatype>
							<trackindex>11</trackindex>
							<clipindex>27</clipindex>
							<groupindex>1</groupindex>
						</link>
						<link>
							<linkclipref>clipitem-358</linkclipref>
							<mediatype>audio</mediatype>
							<trackindex>13</trackindex>
							<clipindex>29</clipindex>
							<groupindex>1</groupindex>
						</link>
						<logginginfo>
							<description></description>
							<scene></scene>
							<shottake></shottake>
							<lognote></lognote>
						</logginginfo>
						<labels>
							<label2>Iris</label2>
						</labels>
					</clipitem>
					<clipitem id="clipitem-299" premiereChannelType="mono">
						<masterclipid>masterclip-95</masterclipid>
						<name>00064.mov Copy 01</name>
						<enabled>TRUE</enabled>
						<duration>272233</duration>
						<rate>
							<timebase>25</timebase>
							<ntsc>FALSE</ntsc>
						</rate>
						<start>16419</start>
						<end>16527</end>
						<in>213146</in>
						<out>213254</out>
						<pproTicksIn>2165699773440000</pproTicksIn>
						<pproTicksOut>2166797122560000</pproTicksOut>
						<file id="file-89"/>
						<sourcetrack>
							<mediatype>audio</mediatype>
							<trackindex>1</trackindex>
						</sourcetrack>
							<filter>
								<effect>
									<name>Audio Levels</name>
									<effectid>audiolevels</effectid>
									<effectcategory>audiolevels</effectcategory>
									<effecttype>audiolevels</effecttype>
									<mediatype>audio</mediatype>
									<parameter authoringApp="PremierePro">
										<parameterid>level</parameterid>
										<name>Level</name>
										<valuemin>0</valuemin>
										<valuemax>3.98109</valuemax>
										<value>0.499999</value>
									</parameter>
								</effect>
							</filter>
						<link>
							<linkclipref>clipitem-299</linkclipref>
							<mediatype>audio</mediatype>
							<trackindex>11</trackindex>
							<clipindex>28</clipindex>
							<groupindex>1</groupindex>
						</link>
						<link>
							<linkclipref>clipitem-359</linkclipref>
							<mediatype>audio</mediatype>
							<trackindex>13</trackindex>
							<clipindex>30</clipindex>
							<groupindex>1</groupindex>
						</link>
						<logginginfo>
							<description></description>
							<scene></scene>
							<shottake></shottake>
							<lognote></lognote>
						</logginginfo>
						<labels>
							<label2>Iris</label2>
						</labels>
					</clipitem>
					<clipitem id="clipitem-300" premiereChannelType="mono">
						<masterclipid>masterclip-79</masterclipid>
						<name>backstage-T01-Multicam</name>
						<enabled>TRUE</enabled>
						<duration>59983</duration>
						<rate>
							<timebase>25</timebase>
							<ntsc>FALSE</ntsc>
						</rate>
						<start>17354</start>
						<end>17424</end>
						<in>20272</in>
						<out>20342</out>
						<pproTicksIn>205976494080000</pproTicksIn>
						<pproTicksOut>206687738880000</pproTicksOut>
						<sequence id="sequence-8"/>
							<filter>
								<effect>
									<name>Audio Levels</name>
									<effectid>audiolevels</effectid>
									<effectcategory>audiolevels</effectcategory>
									<effecttype>audiolevels</effecttype>
									<mediatype>audio</mediatype>
									<parameter authoringApp="PremierePro">
										<parameterid>level</parameterid>
										<name>Level</name>
										<valuemin>0</valuemin>
										<valuemax>3.98109</valuemax>
										<value>0.125594</value>
									</parameter>
								</effect>
							</filter>
						<labels>
							<label2>Forest</label2>
						</labels>
					</clipitem>
					<clipitem id="clipitem-301" premiereChannelType="mono">
						<masterclipid>masterclip-79</masterclipid>
						<name>backstage-T01-Multicam</name>
						<enabled>TRUE</enabled>
						<duration>59983</duration>
						<rate>
							<timebase>25</timebase>
							<ntsc>FALSE</ntsc>
						</rate>
						<start>17424</start>
						<end>17473</end>
						<in>20367</in>
						<out>20416</out>
						<pproTicksIn>206941754880000</pproTicksIn>
						<pproTicksOut>207439626240000</pproTicksOut>
						<sequence id="sequence-8"/>
							<filter>
								<effect>
									<name>Audio Levels</name>
									<effectid>audiolevels</effectid>
									<effectcategory>audiolevels</effectcategory>
									<effecttype>audiolevels</effecttype>
									<mediatype>audio</mediatype>
									<parameter authoringApp="PremierePro">
										<parameterid>level</parameterid>
										<name>Level</name>
										<valuemin>0</valuemin>
										<valuemax>3.98109</valuemax>
										<value>0.125594</value>
									</parameter>
								</effect>
							</filter>
						<labels>
							<label2>Forest</label2>
						</labels>
					</clipitem>
					<clipitem id="clipitem-302" premiereChannelType="stereo">
						<masterclipid>masterclip-96</masterclipid>
						<name>NONRE633380HD0006 Keefa (Instrumental).wav</name>
						<enabled>TRUE</enabled>
						<duration>4994</duration>
						<rate>
							<timebase>25</timebase>
							<ntsc>FALSE</ntsc>
						</rate>
						<start>18595</start>
						<end>18642</end>
						<in>0</in>
						<out>47</out>
						<pproTicksIn>0</pproTicksIn>
						<pproTicksOut>477550080000</pproTicksOut>
						<file id="file-90">
							<name>NONRE633380HD0006 Keefa (Instrumental).wav</name>
							<pathurl>file://localhost/Volumes/Bingen/Prosjekter/MYNT194016%20WHATS%20COOKING/Musikk/Jan/DMA/Tommy%20Tee/NONRE633380HD0006%20Keefa%20(Instrumental).wav</pathurl>
							<rate>
								<timebase>30</timebase>
								<ntsc>TRUE</ntsc>
							</rate>
							<duration>5987</duration>
							<timecode>
								<rate>
									<timebase>30</timebase>
									<ntsc>TRUE</ntsc>
								</rate>
								<string>00;00;00;00</string>
								<frame>0</frame>
								<displayformat>DF</displayformat>
								<reel>
									<name></name>
								</reel>
							</timecode>
							<media>
								<audio>
									<samplecharacteristics>
										<depth>16</depth>
										<samplerate>48000</samplerate>
									</samplecharacteristics>
									<channelcount>2</channelcount>
								</audio>
							</media>
						</file>
						<sourcetrack>
							<mediatype>audio</mediatype>
							<trackindex>1</trackindex>
						</sourcetrack>
							<filter>
								<effect>
									<name>Gain</name>
									<effectid>{61756678, 4761696e, 4b657947}</effectid>
									<effecttype>filter</effecttype>
									<mediatype>audio</mediatype>
									<parameter authoringApp="PremierePro">
										<parameterid>Gain(dB)</parameterid>
										<name>Gain(dB)</name>
										<valuemin>-96</valuemin>
										<valuemax>96</valuemax>
										<value>-10</value>
									</parameter>
								</effect>
							</filter>
						<link>
							<linkclipref>clipitem-302</linkclipref>
							<mediatype>audio</mediatype>
							<trackindex>11</trackindex>
							<clipindex>31</clipindex>
							<groupindex>1</groupindex>
						</link>
						<link>
							<linkclipref>clipitem-328</linkclipref>
							<mediatype>audio</mediatype>
							<trackindex>12</trackindex>
							<clipindex>21</clipindex>
							<groupindex>1</groupindex>
						</link>
						<logginginfo>
							<description></description>
							<scene></scene>
							<shottake></shottake>
							<lognote></lognote>
						</logginginfo>
						<labels>
							<label2>Violet</label2>
						</labels>
					</clipitem>
					<clipitem id="clipitem-303" premiereChannelType="stereo">
						<masterclipid>masterclip-96</masterclipid>
						<name>NONRE633380HD0006 Keefa (Instrumental).wav</name>
						<enabled>TRUE</enabled>
						<duration>4994</duration>
						<rate>
							<timebase>25</timebase>
							<ntsc>FALSE</ntsc>
						</rate>
						<start>18642</start>
						<end>-1</end>
						<in>47</in>
						<out>1227</out>
						<pproTicksIn>477550080000</pproTicksIn>
						<pproTicksOut>12467105280000</pproTicksOut>
						<file id="file-90"/>
						<sourcetrack>
							<mediatype>audio</mediatype>
							<trackindex>1</trackindex>
						</sourcetrack>
							<filter>
								<effect>
									<name>Gain</name>
									<effectid>{61756678, 4761696e, 4b657947}</effectid>
									<effecttype>filter</effecttype>
									<mediatype>audio</mediatype>
									<parameter authoringApp="PremierePro">
										<parameterid>Gain(dB)</parameterid>
										<name>Gain(dB)</name>
										<valuemin>-96</valuemin>
										<valuemax>96</valuemax>
										<value>-28</value>
									</parameter>
								</effect>
							</filter>
						<link>
							<linkclipref>clipitem-303</linkclipref>
							<mediatype>audio</mediatype>
							<trackindex>11</trackindex>
							<clipindex>32</clipindex>
							<groupindex>1</groupindex>
						</link>
						<link>
							<linkclipref>clipitem-329</linkclipref>
							<mediatype>audio</mediatype>
							<trackindex>12</trackindex>
							<clipindex>22</clipindex>
							<groupindex>1</groupindex>
						</link>
						<logginginfo>
							<description></description>
							<scene></scene>
							<shottake></shottake>
							<lognote></lognote>
						</logginginfo>
						<labels>
							<label2>Violet</label2>
						</labels>
					</clipitem>
					<transitionitem>
						<start>19760</start>
						<end>19822</end>
						<alignment>end-black</alignment>
						<cutPointTicks>629959680000</cutPointTicks>
						<rate>
							<timebase>25</timebase>
							<ntsc>FALSE</ntsc>
						</rate>
						<effect>
							<name>Cross Fade (+3dB)</name>
							<effectid>KGAudioTransCrossFade3dB</effectid>
							<effecttype>transition</effecttype>
							<mediatype>audio</mediatype>
							<wipecode>0</wipecode>
							<wipeaccuracy>100</wipeaccuracy>
							<startratio>0</startratio>
							<endratio>1</endratio>
							<reverse>FALSE</reverse>
						</effect>
					</transitionitem>
					<clipitem id="clipitem-304" premiereChannelType="stereo">
						<masterclipid>masterclip-97</masterclipid>
						<name>NONRE608859HD0003 Bitch Don't Kill my Vibe (Instrumental).wav</name>
						<enabled>TRUE</enabled>
						<duration>7719</duration>
						<rate>
							<timebase>25</timebase>
							<ntsc>FALSE</ntsc>
						</rate>
						<start>20143</start>
						<end>-1</end>
						<in>1035</in>
						<out>2534</out>
						<pproTicksIn>10516262400000</pproTicksIn>
						<pproTicksOut>25747061760000</pproTicksOut>
						<file id="file-91">
							<name>NONRE608859HD0003 Bitch Don't Kill my Vibe (Instrumental).wav</name>
							<pathurl>file://localhost/Volumes/Bingen/Prosjekter/MYNT194016%20WHATS%20COOKING/Musikk/Jan/DMA/NONRE608859HD0003%20Bitch%20Don't%20Kill%20my%20Vibe%20(Instrumental).wav</pathurl>
							<rate>
								<timebase>30</timebase>
								<ntsc>TRUE</ntsc>
							</rate>
							<duration>9254</duration>
							<timecode>
								<rate>
									<timebase>30</timebase>
									<ntsc>TRUE</ntsc>
								</rate>
								<string>00;00;00;00</string>
								<frame>0</frame>
								<displayformat>DF</displayformat>
								<reel>
									<name></name>
								</reel>
							</timecode>
							<media>
								<audio>
									<samplecharacteristics>
										<depth>16</depth>
										<samplerate>48000</samplerate>
									</samplecharacteristics>
									<channelcount>2</channelcount>
								</audio>
							</media>
						</file>
						<sourcetrack>
							<mediatype>audio</mediatype>
							<trackindex>1</trackindex>
						</sourcetrack>
							<filter>
								<effect>
									<name>Gain</name>
									<effectid>{61756678, 4761696e, 4b657947}</effectid>
									<effecttype>filter</effecttype>
									<mediatype>audio</mediatype>
									<parameter authoringApp="PremierePro">
										<parameterid>Gain(dB)</parameterid>
										<name>Gain(dB)</name>
										<valuemin>-96</valuemin>
										<valuemax>96</valuemax>
										<value>-30</value>
									</parameter>
								</effect>
							</filter>
						<link>
							<linkclipref>clipitem-304</linkclipref>
							<mediatype>audio</mediatype>
							<trackindex>11</trackindex>
							<clipindex>34</clipindex>
							<groupindex>1</groupindex>
						</link>
						<link>
							<linkclipref>clipitem-330</linkclipref>
							<mediatype>audio</mediatype>
							<trackindex>12</trackindex>
							<clipindex>24</clipindex>
							<groupindex>1</groupindex>
						</link>
						<logginginfo>
							<description></description>
							<scene></scene>
							<shottake></shottake>
							<lognote></lognote>
						</logginginfo>
						<labels>
							<label2>Rose</label2>
						</labels>
					</clipitem>
					<transitionitem>
						<start>21545</start>
						<end>21642</end>
						<alignment>end-black</alignment>
						<cutPointTicks>985582080000</cutPointTicks>
						<rate>
							<timebase>25</timebase>
							<ntsc>FALSE</ntsc>
						</rate>
						<effect>
							<name>Cross Fade (+3dB)</name>
							<effectid>KGAudioTransCrossFade3dB</effectid>
							<effecttype>transition</effecttype>
							<mediatype>audio</mediatype>
							<wipecode>0</wipecode>
							<wipeaccuracy>100</wipeaccuracy>
							<startratio>0</startratio>
							<endratio>1</endratio>
							<reverse>FALSE</reverse>
						</effect>
					</transitionitem>
					<clipitem id="clipitem-305" premiereChannelType="stereo">
						<masterclipid>masterclip-98</masterclipid>
						<name>264779__anthonychan0__civilian-stun-gun-1-10s-zap.wav</name>
						<enabled>TRUE</enabled>
						<duration>10</duration>
						<rate>
							<timebase>25</timebase>
							<ntsc>FALSE</ntsc>
						</rate>
						<start>22884</start>
						<end>22891</end>
						<in>3</in>
						<out>10</out>
						<pproTicksIn>30481920000</pproTicksIn>
						<pproTicksOut>101606400000</pproTicksOut>
						<file id="file-92">
							<name>264779__anthonychan0__civilian-stun-gun-1-10s-zap.wav</name>
							<pathurl>file://localhost/Volumes/Bingen/Prosjekter/MYNT194016%20WHATS%20COOKING/Lydeffekter/Marita%20SoundFX/Elektrisk/264779__anthonychan0__civilian-stun-gun-1-10s-zap.wav</pathurl>
							<rate>
								<timebase>30</timebase>
								<ntsc>TRUE</ntsc>
							</rate>
							<duration>12</duration>
							<timecode>
								<rate>
									<timebase>30</timebase>
									<ntsc>TRUE</ntsc>
								</rate>
								<string>00;00;00;00</string>
								<frame>0</frame>
								<displayformat>DF</displayformat>
								<reel>
									<name></name>
								</reel>
							</timecode>
							<media>
								<audio>
									<samplecharacteristics>
										<depth>16</depth>
										<samplerate>48000</samplerate>
									</samplecharacteristics>
									<channelcount>2</channelcount>
								</audio>
							</media>
						</file>
						<sourcetrack>
							<mediatype>audio</mediatype>
							<trackindex>1</trackindex>
						</sourcetrack>
						<link>
							<linkclipref>clipitem-305</linkclipref>
							<mediatype>audio</mediatype>
							<trackindex>11</trackindex>
							<clipindex>36</clipindex>
							<groupindex>1</groupindex>
						</link>
						<link>
							<linkclipref>clipitem-331</linkclipref>
							<mediatype>audio</mediatype>
							<trackindex>12</trackindex>
							<clipindex>26</clipindex>
							<groupindex>1</groupindex>
						</link>
						<logginginfo>
							<description></description>
							<scene></scene>
							<shottake></shottake>
							<lognote></lognote>
						</logginginfo>
						<labels>
							<label2>Caribbean</label2>
						</labels>
					</clipitem>
					<clipitem id="clipitem-306" premiereChannelType="stereo">
						<masterclipid>masterclip-98</masterclipid>
						<name>264779__anthonychan0__civilian-stun-gun-1-10s-zap.wav</name>
						<enabled>TRUE</enabled>
						<duration>10</duration>
						<rate>
							<timebase>25</timebase>
							<ntsc>FALSE</ntsc>
						</rate>
						<start>22921</start>
						<end>22931</end>
						<in>0</in>
						<out>10</out>
						<pproTicksIn>0</pproTicksIn>
						<pproTicksOut>101606400000</pproTicksOut>
						<file id="file-92"/>
						<sourcetrack>
							<mediatype>audio</mediatype>
							<trackindex>1</trackindex>
						</sourcetrack>
							<filter>
								<effect>
									<name>Gain</name>
									<effectid>{61756678, 4761696e, 4b657947}</effectid>
									<effecttype>filter</effecttype>
									<mediatype>audio</mediatype>
									<parameter authoringApp="PremierePro">
										<parameterid>Gain(dB)</parameterid>
										<name>Gain(dB)</name>
										<valuemin>-96</valuemin>
										<valuemax>96</valuemax>
										<value>-9</value>
									</parameter>
								</effect>
							</filter>
							<filter>
								<effect>
									<name>Time Remap</name>
									<effectid>timeremap</effectid>
									<effectcategory>motion</effectcategory>
									<effecttype>motion</effecttype>
									<mediatype>audio</mediatype>
									<parameter authoringApp="PremierePro">
										<parameterid>variablespeed</parameterid>
										<name>variablespeed</name>
										<valuemin>0</valuemin>
										<valuemax>1</valuemax>
										<value>0</value>
									</parameter>
									<parameter authoringApp="PremierePro">
										<parameterid>speed</parameterid>
										<name>speed</name>
										<valuemin>-100000</valuemin>
										<valuemax>100000</valuemax>
										<value>100</value>
									</parameter>
									<parameter authoringApp="PremierePro">
										<parameterid>reverse</parameterid>
										<name>reverse</name>
										<value>TRUE</value>
									</parameter>
									<parameter authoringApp="PremierePro">
										<parameterid>frameblending</parameterid>
										<name>frameblending</name>
										<value>FALSE</value>
									</parameter>
									<parameter authoringApp="PremierePro">
										<parameterid>graphdict</parameterid>
										<name>graphdict</name>
										<valuemin>0</valuemin>
										<valuemax>10</valuemax>
										<value>0</value>
										<keyframe>
											<when>0</when>
											<value>10</value>
											<speedvirtualkf>TRUE</speedvirtualkf>
											<speedkfin>TRUE</speedkfin>
										</keyframe>
										<keyframe>
											<when>10</when>
											<value>1</value>
											<speedvirtualkf>TRUE</speedvirtualkf>
											<speedkfout>TRUE</speedkfout>
										</keyframe>
										<interpolation>
											<name>FCPCurve</name>
										</interpolation>
									</parameter>
								</effect>
							</filter>
						<link>
							<linkclipref>clipitem-306</linkclipref>
							<mediatype>audio</mediatype>
							<trackindex>11</trackindex>
							<clipindex>37</clipindex>
							<groupindex>1</groupindex>
						</link>
						<link>
							<linkclipref>clipitem-332</linkclipref>
							<mediatype>audio</mediatype>
							<trackindex>12</trackindex>
							<clipindex>27</clipindex>
							<groupindex>1</groupindex>
						</link>
						<logginginfo>
							<description></description>
							<scene></scene>
							<shottake></shottake>
							<lognote></lognote>
						</logginginfo>
						<labels>
							<label2>Caribbean</label2>
						</labels>
					</clipitem>
					<clipitem id="clipitem-307" premiereChannelType="stereo">
						<masterclipid>masterclip-98</masterclipid>
						<name>264779__anthonychan0__civilian-stun-gun-1-10s-zap.wav</name>
						<enabled>TRUE</enabled>
						<duration>10</duration>
						<rate>
							<timebase>25</timebase>
							<ntsc>FALSE</ntsc>
						</rate>
						<start>22931</start>
						<end>22938</end>
						<in>2</in>
						<out>9</out>
						<pproTicksIn>20321280000</pproTicksIn>
						<pproTicksOut>91445760000</pproTicksOut>
						<file id="file-92"/>
						<sourcetrack>
							<mediatype>audio</mediatype>
							<trackindex>1</trackindex>
						</sourcetrack>
							<filter>
								<effect>
									<name>Gain</name>
									<effectid>{61756678, 4761696e, 4b657947}</effectid>
									<effecttype>filter</effecttype>
									<mediatype>audio</mediatype>
									<parameter authoringApp="PremierePro">
										<parameterid>Gain(dB)</parameterid>
										<name>Gain(dB)</name>
										<valuemin>-96</valuemin>
										<valuemax>96</valuemax>
										<value>-9</value>
									</parameter>
								</effect>
							</filter>
						<link>
							<linkclipref>clipitem-307</linkclipref>
							<mediatype>audio</mediatype>
							<trackindex>11</trackindex>
							<clipindex>38</clipindex>
							<groupindex>1</groupindex>
						</link>
						<link>
							<linkclipref>clipitem-333</linkclipref>
							<mediatype>audio</mediatype>
							<trackindex>12</trackindex>
							<clipindex>28</clipindex>
							<groupindex>1</groupindex>
						</link>
						<logginginfo>
							<description></description>
							<scene></scene>
							<shottake></shottake>
							<lognote></lognote>
						</logginginfo>
						<labels>
							<label2>Caribbean</label2>
						</labels>
					</clipitem>
					<clipitem id="clipitem-308" premiereChannelType="stereo">
						<masterclipid>masterclip-98</masterclipid>
						<name>264779__anthonychan0__civilian-stun-gun-1-10s-zap.wav</name>
						<enabled>TRUE</enabled>
						<duration>10</duration>
						<rate>
							<timebase>25</timebase>
							<ntsc>FALSE</ntsc>
						</rate>
						<start>22938</start>
						<end>22945</end>
						<in>3</in>
						<out>10</out>
						<pproTicksIn>30481920000</pproTicksIn>
						<pproTicksOut>101606400000</pproTicksOut>
						<file id="file-92"/>
						<sourcetrack>
							<mediatype>audio</mediatype>
							<trackindex>1</trackindex>
						</sourcetrack>
							<filter>
								<effect>
									<name>Gain</name>
									<effectid>{61756678, 4761696e, 4b657947}</effectid>
									<effecttype>filter</effecttype>
									<mediatype>audio</mediatype>
									<parameter authoringApp="PremierePro">
										<parameterid>Gain(dB)</parameterid>
										<name>Gain(dB)</name>
										<valuemin>-96</valuemin>
										<valuemax>96</valuemax>
										<value>-9</value>
									</parameter>
								</effect>
							</filter>
						<link>
							<linkclipref>clipitem-308</linkclipref>
							<mediatype>audio</mediatype>
							<trackindex>11</trackindex>
							<clipindex>39</clipindex>
							<groupindex>1</groupindex>
						</link>
						<link>
							<linkclipref>clipitem-334</linkclipref>
							<mediatype>audio</mediatype>
							<trackindex>12</trackindex>
							<clipindex>29</clipindex>
							<groupindex>1</groupindex>
						</link>
						<logginginfo>
							<description></description>
							<scene></scene>
							<shottake></shottake>
							<lognote></lognote>
						</logginginfo>
						<labels>
							<label2>Caribbean</label2>
						</labels>
					</clipitem>
					<clipitem id="clipitem-309" premiereChannelType="stereo">
						<masterclipid>masterclip-98</masterclipid>
						<name>264779__anthonychan0__civilian-stun-gun-1-10s-zap.wav</name>
						<enabled>TRUE</enabled>
						<duration>10</duration>
						<rate>
							<timebase>25</timebase>
							<ntsc>FALSE</ntsc>
						</rate>
						<start>22945</start>
						<end>22952</end>
						<in>3</in>
						<out>10</out>
						<pproTicksIn>30481920000</pproTicksIn>
						<pproTicksOut>101606400000</pproTicksOut>
						<file id="file-92"/>
						<sourcetrack>
							<mediatype>audio</mediatype>
							<trackindex>1</trackindex>
						</sourcetrack>
							<filter>
								<effect>
									<name>Gain</name>
									<effectid>{61756678, 4761696e, 4b657947}</effectid>
									<effecttype>filter</effecttype>
									<mediatype>audio</mediatype>
									<parameter authoringApp="PremierePro">
										<parameterid>Gain(dB)</parameterid>
										<name>Gain(dB)</name>
										<valuemin>-96</valuemin>
										<valuemax>96</valuemax>
										<value>-9</value>
									</parameter>
								</effect>
							</filter>
						<link>
							<linkclipref>clipitem-309</linkclipref>
							<mediatype>audio</mediatype>
							<trackindex>11</trackindex>
							<clipindex>40</clipindex>
							<groupindex>1</groupindex>
						</link>
						<link>
							<linkclipref>clipitem-335</linkclipref>
							<mediatype>audio</mediatype>
							<trackindex>12</trackindex>
							<clipindex>30</clipindex>
							<groupindex>1</groupindex>
						</link>
						<logginginfo>
							<description></description>
							<scene></scene>
							<shottake></shottake>
							<lognote></lognote>
						</logginginfo>
						<labels>
							<label2>Caribbean</label2>
						</labels>
					</clipitem>
					<clipitem id="clipitem-310" premiereChannelType="stereo">
						<masterclipid>masterclip-98</masterclipid>
						<name>264779__anthonychan0__civilian-stun-gun-1-10s-zap.wav</name>
						<enabled>TRUE</enabled>
						<duration>10</duration>
						<rate>
							<timebase>25</timebase>
							<ntsc>FALSE</ntsc>
						</rate>
						<start>22952</start>
						<end>22958</end>
						<in>1</in>
						<out>7</out>
						<pproTicksIn>10160640000</pproTicksIn>
						<pproTicksOut>71124480000</pproTicksOut>
						<file id="file-92"/>
						<sourcetrack>
							<mediatype>audio</mediatype>
							<trackindex>1</trackindex>
						</sourcetrack>
							<filter>
								<effect>
									<name>Gain</name>
									<effectid>{61756678, 4761696e, 4b657947}</effectid>
									<effecttype>filter</effecttype>
									<mediatype>audio</mediatype>
									<parameter authoringApp="PremierePro">
										<parameterid>Gain(dB)</parameterid>
										<name>Gain(dB)</name>
										<valuemin>-96</valuemin>
										<valuemax>96</valuemax>
										<value>-9</value>
									</parameter>
								</effect>
							</filter>
							<filter>
								<effect>
									<name>Time Remap</name>
									<effectid>timeremap</effectid>
									<effectcategory>motion</effectcategory>
									<effecttype>motion</effecttype>
									<mediatype>audio</mediatype>
									<parameter authoringApp="PremierePro">
										<parameterid>variablespeed</parameterid>
										<name>variablespeed</name>
										<valuemin>0</valuemin>
										<valuemax>1</valuemax>
										<value>0</value>
									</parameter>
									<parameter authoringApp="PremierePro">
										<parameterid>speed</parameterid>
										<name>speed</name>
										<valuemin>-100000</valuemin>
										<valuemax>100000</valuemax>
										<value>100</value>
									</parameter>
									<parameter authoringApp="PremierePro">
										<parameterid>reverse</parameterid>
										<name>reverse</name>
										<value>TRUE</value>
									</parameter>
									<parameter authoringApp="PremierePro">
										<parameterid>frameblending</parameterid>
										<name>frameblending</name>
										<value>FALSE</value>
									</parameter>
									<parameter authoringApp="PremierePro">
										<parameterid>graphdict</parameterid>
										<name>graphdict</name>
										<valuemin>0</valuemin>
										<valuemax>10</valuemax>
										<value>0</value>
										<keyframe>
											<when>0</when>
											<value>10</value>
											<speedvirtualkf>TRUE</speedvirtualkf>
											<speedkfstart>TRUE</speedkfstart>
										</keyframe>
										<keyframe>
											<when>3</when>
											<value>7</value>
											<speedvirtualkf>TRUE</speedvirtualkf>
											<speedkfin>TRUE</speedkfin>
										</keyframe>
										<keyframe>
											<when>9</when>
											<value>1</value>
											<speedvirtualkf>TRUE</speedvirtualkf>
											<speedkfout>TRUE</speedkfout>
										</keyframe>
										<keyframe>
											<when>10</when>
											<value>1</value>
											<speedvirtualkf>TRUE</speedvirtualkf>
											<speedkfend>TRUE</speedkfend>
										</keyframe>
										<interpolation>
											<name>FCPCurve</name>
										</interpolation>
									</parameter>
								</effect>
							</filter>
						<link>
							<linkclipref>clipitem-310</linkclipref>
							<mediatype>audio</mediatype>
							<trackindex>11</trackindex>
							<clipindex>41</clipindex>
							<groupindex>1</groupindex>
						</link>
						<link>
							<linkclipref>clipitem-336</linkclipref>
							<mediatype>audio</mediatype>
							<trackindex>12</trackindex>
							<clipindex>31</clipindex>
							<groupindex>1</groupindex>
						</link>
						<logginginfo>
							<description></description>
							<scene></scene>
							<shottake></shottake>
							<lognote></lognote>
						</logginginfo>
						<labels>
							<label2>Caribbean</label2>
						</labels>
					</clipitem>
					<clipitem id="clipitem-311" premiereChannelType="stereo">
						<masterclipid>masterclip-98</masterclipid>
						<name>264779__anthonychan0__civilian-stun-gun-1-10s-zap.wav</name>
						<enabled>TRUE</enabled>
						<duration>10</duration>
						<rate>
							<timebase>25</timebase>
							<ntsc>FALSE</ntsc>
						</rate>
						<start>22958</start>
						<end>22964</end>
						<in>3</in>
						<out>9</out>
						<pproTicksIn>30481920000</pproTicksIn>
						<pproTicksOut>91445760000</pproTicksOut>
						<file id="file-92"/>
						<sourcetrack>
							<mediatype>audio</mediatype>
							<trackindex>1</trackindex>
						</sourcetrack>
							<filter>
								<effect>
									<name>Gain</name>
									<effectid>{61756678, 4761696e, 4b657947}</effectid>
									<effecttype>filter</effecttype>
									<mediatype>audio</mediatype>
									<parameter authoringApp="PremierePro">
										<parameterid>Gain(dB)</parameterid>
										<name>Gain(dB)</name>
										<valuemin>-96</valuemin>
										<valuemax>96</valuemax>
										<value>-9</value>
									</parameter>
								</effect>
							</filter>
						<link>
							<linkclipref>clipitem-311</linkclipref>
							<mediatype>audio</mediatype>
							<trackindex>11</trackindex>
							<clipindex>42</clipindex>
							<groupindex>1</groupindex>
						</link>
						<link>
							<linkclipref>clipitem-337</linkclipref>
							<mediatype>audio</mediatype>
							<trackindex>12</trackindex>
							<clipindex>32</clipindex>
							<groupindex>1</groupindex>
						</link>
						<logginginfo>
							<description></description>
							<scene></scene>
							<shottake></shottake>
							<lognote></lognote>
						</logginginfo>
						<labels>
							<label2>Caribbean</label2>
						</labels>
					</clipitem>
					<clipitem id="clipitem-312" premiereChannelType="stereo">
						<masterclipid>masterclip-98</masterclipid>
						<name>264779__anthonychan0__civilian-stun-gun-1-10s-zap.wav</name>
						<enabled>TRUE</enabled>
						<duration>10</duration>
						<rate>
							<timebase>25</timebase>
							<ntsc>FALSE</ntsc>
						</rate>
						<start>22964</start>
						<end>22971</end>
						<in>3</in>
						<out>10</out>
						<pproTicksIn>30481920000</pproTicksIn>
						<pproTicksOut>101606400000</pproTicksOut>
						<file id="file-92"/>
						<sourcetrack>
							<mediatype>audio</mediatype>
							<trackindex>1</trackindex>
						</sourcetrack>
							<filter>
								<effect>
									<name>Gain</name>
									<effectid>{61756678, 4761696e, 4b657947}</effectid>
									<effecttype>filter</effecttype>
									<mediatype>audio</mediatype>
									<parameter authoringApp="PremierePro">
										<parameterid>Gain(dB)</parameterid>
										<name>Gain(dB)</name>
										<valuemin>-96</valuemin>
										<valuemax>96</valuemax>
										<value>-9</value>
									</parameter>
								</effect>
							</filter>
						<link>
							<linkclipref>clipitem-312</linkclipref>
							<mediatype>audio</mediatype>
							<trackindex>11</trackindex>
							<clipindex>43</clipindex>
							<groupindex>1</groupindex>
						</link>
						<link>
							<linkclipref>clipitem-338</linkclipref>
							<mediatype>audio</mediatype>
							<trackindex>12</trackindex>
							<clipindex>33</clipindex>
							<groupindex>1</groupindex>
						</link>
						<logginginfo>
							<description></description>
							<scene></scene>
							<shottake></shottake>
							<lognote></lognote>
						</logginginfo>
						<labels>
							<label2>Caribbean</label2>
						</labels>
					</clipitem>
					<transitionitem>
						<start>29004</start>
						<end>29017</end>
						<alignment>start-black</alignment>
						<cutPointTicks>0</cutPointTicks>
						<rate>
							<timebase>25</timebase>
							<ntsc>FALSE</ntsc>
						</rate>
						<effect>
							<name>Cross Fade (+3dB)</name>
							<effectid>KGAudioTransCrossFade3dB</effectid>
							<effecttype>transition</effecttype>
							<mediatype>audio</mediatype>
							<wipecode>0</wipecode>
							<wipeaccuracy>100</wipeaccuracy>
							<startratio>0</startratio>
							<endratio>1</endratio>
							<reverse>FALSE</reverse>
						</effect>
					</transitionitem>
					<clipitem id="clipitem-313" premiereChannelType="stereo">
						<masterclipid>masterclip-99</masterclipid>
						<name>NONRE617399HD0010 Who do You Love (Explicit).wav</name>
						<enabled>TRUE</enabled>
						<duration>5837</duration>
						<rate>
							<timebase>25</timebase>
							<ntsc>FALSE</ntsc>
						</rate>
						<start>-1</start>
						<end>-1</end>
						<in>3532</in>
						<out>3616</out>
						<pproTicksIn>35887380480000</pproTicksIn>
						<pproTicksOut>36740874240000</pproTicksOut>
						<file id="file-93">
							<name>NONRE617399HD0010 Who do You Love (Explicit).wav</name>
							<pathurl>file://localhost/Volumes/Bingen/Prosjekter/MYNT194016%20WHATS%20COOKING/Musikk/Jan/DMA/NONRE617399HD0010%20Who%20do%20You%20Love%20(Explicit).wav</pathurl>
							<rate>
								<timebase>30</timebase>
								<ntsc>TRUE</ntsc>
							</rate>
							<duration>6998</duration>
							<timecode>
								<rate>
									<timebase>30</timebase>
									<ntsc>TRUE</ntsc>
								</rate>
								<string>00;00;00;00</string>
								<frame>0</frame>
								<displayformat>DF</displayformat>
								<reel>
									<name></name>
								</reel>
							</timecode>
							<media>
								<audio>
									<samplecharacteristics>
										<depth>16</depth>
										<samplerate>48000</samplerate>
									</samplecharacteristics>
									<channelcount>2</channelcount>
								</audio>
							</media>
						</file>
						<sourcetrack>
							<mediatype>audio</mediatype>
							<trackindex>1</trackindex>
						</sourcetrack>
							<filter>
								<effect>
									<name>Gain</name>
									<effectid>{61756678, 4761696e, 4b657947}</effectid>
									<effecttype>filter</effecttype>
									<mediatype>audio</mediatype>
									<parameter authoringApp="PremierePro">
										<parameterid>Gain(dB)</parameterid>
										<name>Gain(dB)</name>
										<valuemin>-96</valuemin>
										<valuemax>96</valuemax>
										<value>-27</value>
									</parameter>
								</effect>
							</filter>
						<link>
							<linkclipref>clipitem-313</linkclipref>
							<mediatype>audio</mediatype>
							<trackindex>11</trackindex>
							<clipindex>45</clipindex>
							<groupindex>1</groupindex>
						</link>
						<link>
							<linkclipref>clipitem-339</linkclipref>
							<mediatype>audio</mediatype>
							<trackindex>12</trackindex>
							<clipindex>35</clipindex>
							<groupindex>1</groupindex>
						</link>
						<logginginfo>
							<description></description>
							<scene></scene>
							<shottake></shottake>
							<lognote></lognote>
						</logginginfo>
						<labels>
							<label2>Caribbean</label2>
						</labels>
					</clipitem>
					<transitionitem>
						<start>29055</start>
						<end>29088</end>
						<alignment>center</alignment>
						<cutPointTicks>162570240000</cutPointTicks>
						<rate>
							<timebase>25</timebase>
							<ntsc>FALSE</ntsc>
						</rate>
						<effect>
							<name>Cross Fade (+3dB)</name>
							<effectid>KGAudioTransCrossFade3dB</effectid>
							<effecttype>transition</effecttype>
							<mediatype>audio</mediatype>
							<wipecode>0</wipecode>
							<wipeaccuracy>100</wipeaccuracy>
							<startratio>0</startratio>
							<endratio>1</endratio>
							<reverse>FALSE</reverse>
						</effect>
					</transitionitem>
					<clipitem id="clipitem-314" premiereChannelType="stereo">
						<masterclipid>masterclip-99</masterclipid>
						<name>NONRE617399HD0010 Who do You Love (Explicit).wav</name>
						<enabled>TRUE</enabled>
						<duration>5837</duration>
						<rate>
							<timebase>25</timebase>
							<ntsc>FALSE</ntsc>
						</rate>
						<start>-1</start>
						<end>-1</end>
						<in>3583</in>
						<out>3811</out>
						<pproTicksIn>36405573120000</pproTicksIn>
						<pproTicksOut>38722199040000</pproTicksOut>
						<file id="file-93"/>
						<sourcetrack>
							<mediatype>audio</mediatype>
							<trackindex>1</trackindex>
						</sourcetrack>
							<filter>
								<effect>
									<name>Gain</name>
									<effectid>{61756678, 4761696e, 4b657947}</effectid>
									<effecttype>filter</effecttype>
									<mediatype>audio</mediatype>
									<parameter authoringApp="PremierePro">
										<parameterid>Gain(dB)</parameterid>
										<name>Gain(dB)</name>
										<valuemin>-96</valuemin>
										<valuemax>96</valuemax>
										<value>-17</value>
									</parameter>
								</effect>
							</filter>
						<link>
							<linkclipref>clipitem-314</linkclipref>
							<mediatype>audio</mediatype>
							<trackindex>11</trackindex>
							<clipindex>47</clipindex>
							<groupindex>1</groupindex>
						</link>
						<link>
							<linkclipref>clipitem-340</linkclipref>
							<mediatype>audio</mediatype>
							<trackindex>12</trackindex>
							<clipindex>37</clipindex>
							<groupindex>1</groupindex>
						</link>
						<logginginfo>
							<description></description>
							<scene></scene>
							<shottake></shottake>
							<lognote></lognote>
						</logginginfo>
						<labels>
							<label2>Caribbean</label2>
						</labels>
					</clipitem>
					<transitionitem>
						<start>29246</start>
						<end>29283</end>
						<alignment>center</alignment>
						<cutPointTicks>182891520000</cutPointTicks>
						<rate>
							<timebase>25</timebase>
							<ntsc>FALSE</ntsc>
						</rate>
						<effect>
							<name>Cross Fade (+3dB)</name>
							<effectid>KGAudioTransCrossFade3dB</effectid>
							<effecttype>transition</effecttype>
							<mediatype>audio</mediatype>
							<wipecode>0</wipecode>
							<wipeaccuracy>100</wipeaccuracy>
							<startratio>0</startratio>
							<endratio>1</endratio>
							<reverse>FALSE</reverse>
						</effect>
					</transitionitem>
					<clipitem id="clipitem-315" premiereChannelType="stereo">
						<masterclipid>masterclip-99</masterclipid>
						<name>NONRE617399HD0010 Who do You Love (Explicit).wav</name>
						<enabled>TRUE</enabled>
						<duration>5837</duration>
						<rate>
							<timebase>25</timebase>
							<ntsc>FALSE</ntsc>
						</rate>
						<start>-1</start>
						<end>-1</end>
						<in>3774</in>
						<out>4214</out>
						<pproTicksIn>38346255360000</pproTicksIn>
						<pproTicksOut>42816936960000</pproTicksOut>
						<file id="file-93"/>
						<sourcetrack>
							<mediatype>audio</mediatype>
							<trackindex>1</trackindex>
						</sourcetrack>
							<filter>
								<effect>
									<name>Gain</name>
									<effectid>{61756678, 4761696e, 4b657947}</effectid>
									<effecttype>filter</effecttype>
									<mediatype>audio</mediatype>
									<parameter authoringApp="PremierePro">
										<parameterid>Gain(dB)</parameterid>
										<name>Gain(dB)</name>
										<valuemin>-96</valuemin>
										<valuemax>96</valuemax>
										<value>-9</value>
									</parameter>
								</effect>
							</filter>
						<link>
							<linkclipref>clipitem-315</linkclipref>
							<mediatype>audio</mediatype>
							<trackindex>11</trackindex>
							<clipindex>49</clipindex>
							<groupindex>1</groupindex>
						</link>
						<link>
							<linkclipref>clipitem-341</linkclipref>
							<mediatype>audio</mediatype>
							<trackindex>12</trackindex>
							<clipindex>39</clipindex>
							<groupindex>1</groupindex>
						</link>
						<logginginfo>
							<description></description>
							<scene></scene>
							<shottake></shottake>
							<lognote></lognote>
						</logginginfo>
						<labels>
							<label2>Caribbean</label2>
						</labels>
					</clipitem>
					<transitionitem>
						<start>29651</start>
						<end>29686</end>
						<alignment>center</alignment>
						<cutPointTicks>172730880000</cutPointTicks>
						<rate>
							<timebase>25</timebase>
							<ntsc>FALSE</ntsc>
						</rate>
						<effect>
							<name>Cross Fade (+3dB)</name>
							<effectid>KGAudioTransCrossFade3dB</effectid>
							<effecttype>transition</effecttype>
							<mediatype>audio</mediatype>
							<wipecode>0</wipecode>
							<wipeaccuracy>100</wipeaccuracy>
							<startratio>0</startratio>
							<endratio>1</endratio>
							<reverse>FALSE</reverse>
						</effect>
					</transitionitem>
					<clipitem id="clipitem-316" premiereChannelType="stereo">
						<masterclipid>masterclip-99</masterclipid>
						<name>NONRE617399HD0010 Who do You Love (Explicit).wav</name>
						<enabled>TRUE</enabled>
						<duration>5837</duration>
						<rate>
							<timebase>25</timebase>
							<ntsc>FALSE</ntsc>
						</rate>
						<start>-1</start>
						<end>-1</end>
						<in>4179</in>
						<out>4575</out>
						<pproTicksIn>42461314560000</pproTicksIn>
						<pproTicksOut>46484928000000</pproTicksOut>
						<file id="file-93"/>
						<sourcetrack>
							<mediatype>audio</mediatype>
							<trackindex>1</trackindex>
						</sourcetrack>
							<filter>
								<effect>
									<name>Gain</name>
									<effectid>{61756678, 4761696e, 4b657947}</effectid>
									<effecttype>filter</effecttype>
									<mediatype>audio</mediatype>
									<parameter authoringApp="PremierePro">
										<parameterid>Gain(dB)</parameterid>
										<name>Gain(dB)</name>
										<valuemin>-96</valuemin>
										<valuemax>96</valuemax>
										<value>-24</value>
									</parameter>
								</effect>
							</filter>
						<link>
							<linkclipref>clipitem-316</linkclipref>
							<mediatype>audio</mediatype>
							<trackindex>11</trackindex>
							<clipindex>51</clipindex>
							<groupindex>1</groupindex>
						</link>
						<link>
							<linkclipref>clipitem-342</linkclipref>
							<mediatype>audio</mediatype>
							<trackindex>12</trackindex>
							<clipindex>41</clipindex>
							<groupindex>1</groupindex>
						</link>
						<logginginfo>
							<description></description>
							<scene></scene>
							<shottake></shottake>
							<lognote></lognote>
						</logginginfo>
						<labels>
							<label2>Caribbean</label2>
						</labels>
					</clipitem>
					<transitionitem>
						<start>29950</start>
						<end>30047</end>
						<alignment>end-black</alignment>
						<cutPointTicks>985582080000</cutPointTicks>
						<rate>
							<timebase>25</timebase>
							<ntsc>FALSE</ntsc>
						</rate>
						<effect>
							<name>Cross Fade (+3dB)</name>
							<effectid>KGAudioTransCrossFade3dB</effectid>
							<effecttype>transition</effecttype>
							<mediatype>audio</mediatype>
							<wipecode>0</wipecode>
							<wipeaccuracy>100</wipeaccuracy>
							<startratio>0</startratio>
							<endratio>1</endratio>
							<reverse>FALSE</reverse>
						</effect>
					</transitionitem>
					<enabled>TRUE</enabled>
					<locked>FALSE</locked>
					<outputchannelindex>1</outputchannelindex>
				</track>
				<track TL.SQTrackAudioKeyframeStyle="0" TL.SQTrackShy="0" TL.SQTrackExpandedHeight="55" TL.SQTrackExpanded="1" MZ.TrackTargeted="1" PannerCurrentValue="0.5" PannerIsInverted="true" PannerStartKeyframe="-91445760000000000,0.5,0,0,0,0,0,0" PannerName="Balance" currentExplodedTrackIndex="1" totalExplodedTrackCount="2" premiereTrackType="Stereo">
					<clipitem id="clipitem-317" premiereChannelType="stereo">
						<masterclipid>masterclip-87</masterclipid>
						<name>150137__gregsmedia__gun-shot-sound-01.wav</name>
						<enabled>TRUE</enabled>
						<duration>39</duration>
						<rate>
							<timebase>25</timebase>
							<ntsc>FALSE</ntsc>
						</rate>
						<start>304</start>
						<end>325</end>
						<in>0</in>
						<out>21</out>
						<pproTicksIn>0</pproTicksIn>
						<pproTicksOut>213373440000</pproTicksOut>
						<file id="file-81"/>
						<sourcetrack>
							<mediatype>audio</mediatype>
							<trackindex>2</trackindex>
						</sourcetrack>
							<filter>
								<effect>
									<name>Audio Levels</name>
									<effectid>audiolevels</effectid>
									<effectcategory>audiolevels</effectcategory>
									<effecttype>audiolevels</effecttype>
									<mediatype>audio</mediatype>
									<parameter authoringApp="PremierePro">
										<parameterid>level</parameterid>
										<name>Level</name>
										<valuemin>0</valuemin>
										<valuemax>3.98109</valuemax>
										<value>0.143364</value>
									</parameter>
								</effect>
							</filter>
						<link>
							<linkclipref>clipitem-284</linkclipref>
							<mediatype>audio</mediatype>
							<trackindex>11</trackindex>
							<clipindex>2</clipindex>
							<groupindex>1</groupindex>
						</link>
						<link>
							<linkclipref>clipitem-317</linkclipref>
							<mediatype>audio</mediatype>
							<trackindex>12</trackindex>
							<clipindex>1</clipindex>
							<groupindex>1</groupindex>
						</link>
						<logginginfo>
							<description></description>
							<scene></scene>
							<shottake></shottake>
							<lognote></lognote>
						</logginginfo>
						<labels>
							<label2>Caribbean</label2>
						</labels>
					</clipitem>
					<transitionitem>
						<start>366</start>
						<end>371</end>
						<alignment>start-black</alignment>
						<cutPointTicks>0</cutPointTicks>
						<rate>
							<timebase>25</timebase>
							<ntsc>FALSE</ntsc>
						</rate>
						<effect>
							<name>Cross Fade (+3dB)</name>
							<effectid>KGAudioTransCrossFade3dB</effectid>
							<effecttype>transition</effecttype>
							<mediatype>audio</mediatype>
							<wipecode>0</wipecode>
							<wipeaccuracy>100</wipeaccuracy>
							<startratio>0</startratio>
							<endratio>1</endratio>
							<reverse>FALSE</reverse>
						</effect>
					</transitionitem>
					<clipitem id="clipitem-318" premiereChannelType="stereo">
						<masterclipid>masterclip-69</masterclipid>
						<name>MSTR_128_36_Smooth_Out_Harwood_Martin_Kessler_Kirby_611749.wav</name>
						<enabled>TRUE</enabled>
						<duration>2470</duration>
						<rate>
							<timebase>25</timebase>
							<ntsc>FALSE</ntsc>
						</rate>
						<start>-1</start>
						<end>468</end>
						<in>32</in>
						<out>134</out>
						<pproTicksIn>325140480000</pproTicksIn>
						<pproTicksOut>1361525760000</pproTicksOut>
						<file id="file-66"/>
						<sourcetrack>
							<mediatype>audio</mediatype>
							<trackindex>2</trackindex>
						</sourcetrack>
							<filter>
								<effect>
									<name>Gain</name>
									<effectid>{61756678, 4761696e, 4b657947}</effectid>
									<effecttype>filter</effecttype>
									<mediatype>audio</mediatype>
									<parameter authoringApp="PremierePro">
										<parameterid>Gain(dB)</parameterid>
										<name>Gain(dB)</name>
										<valuemin>-96</valuemin>
										<valuemax>96</valuemax>
										<value>-10</value>
									</parameter>
								</effect>
							</filter>
						<link>
							<linkclipref>clipitem-285</linkclipref>
							<mediatype>audio</mediatype>
							<trackindex>11</trackindex>
							<clipindex>4</clipindex>
							<groupindex>1</groupindex>
						</link>
						<link>
							<linkclipref>clipitem-318</linkclipref>
							<mediatype>audio</mediatype>
							<trackindex>12</trackindex>
							<clipindex>3</clipindex>
							<groupindex>1</groupindex>
						</link>
						<logginginfo>
							<description></description>
							<scene></scene>
							<shottake></shottake>
							<lognote></lognote>
						</logginginfo>
						<labels>
							<label2>Rose</label2>
						</labels>
					</clipitem>
					<clipitem id="clipitem-319" premiereChannelType="stereo">
						<masterclipid>masterclip-69</masterclipid>
						<name>MSTR_128_36_Smooth_Out_Harwood_Martin_Kessler_Kirby_611749.wav</name>
						<enabled>TRUE</enabled>
						<duration>2470</duration>
						<rate>
							<timebase>25</timebase>
							<ntsc>FALSE</ntsc>
						</rate>
						<start>468</start>
						<end>-1</end>
						<in>134</in>
						<out>194</out>
						<pproTicksIn>1361525760000</pproTicksIn>
						<pproTicksOut>1971164160000</pproTicksOut>
						<file id="file-66"/>
						<sourcetrack>
							<mediatype>audio</mediatype>
							<trackindex>2</trackindex>
						</sourcetrack>
							<filter>
								<effect>
									<name>Gain</name>
									<effectid>{61756678, 4761696e, 4b657947}</effectid>
									<effecttype>filter</effecttype>
									<mediatype>audio</mediatype>
									<parameter authoringApp="PremierePro">
										<parameterid>Gain(dB)</parameterid>
										<name>Gain(dB)</name>
										<valuemin>-96</valuemin>
										<valuemax>96</valuemax>
										<value>-20</value>
									</parameter>
								</effect>
							</filter>
						<link>
							<linkclipref>clipitem-286</linkclipref>
							<mediatype>audio</mediatype>
							<trackindex>11</trackindex>
							<clipindex>5</clipindex>
							<groupindex>1</groupindex>
						</link>
						<link>
							<linkclipref>clipitem-319</linkclipref>
							<mediatype>audio</mediatype>
							<trackindex>12</trackindex>
							<clipindex>4</clipindex>
							<groupindex>1</groupindex>
						</link>
						<logginginfo>
							<description></description>
							<scene></scene>
							<shottake></shottake>
							<lognote></lognote>
						</logginginfo>
						<labels>
							<label2>Rose</label2>
						</labels>
					</clipitem>
					<transitionitem>
						<start>521</start>
						<end>528</end>
						<alignment>end-black</alignment>
						<cutPointTicks>71124480000</cutPointTicks>
						<rate>
							<timebase>25</timebase>
							<ntsc>FALSE</ntsc>
						</rate>
						<effect>
							<name>Cross Fade (+3dB)</name>
							<effectid>KGAudioTransCrossFade3dB</effectid>
							<effecttype>transition</effecttype>
							<mediatype>audio</mediatype>
							<wipecode>0</wipecode>
							<wipeaccuracy>100</wipeaccuracy>
							<startratio>0</startratio>
							<endratio>1</endratio>
							<reverse>FALSE</reverse>
						</effect>
					</transitionitem>
					<transitionitem>
						<start>611</start>
						<end>618</end>
						<alignment>start-black</alignment>
						<cutPointTicks>0</cutPointTicks>
						<rate>
							<timebase>25</timebase>
							<ntsc>FALSE</ntsc>
						</rate>
						<effect>
							<name>Cross Fade (+3dB)</name>
							<effectid>KGAudioTransCrossFade3dB</effectid>
							<effecttype>transition</effecttype>
							<mediatype>audio</mediatype>
							<wipecode>0</wipecode>
							<wipeaccuracy>100</wipeaccuracy>
							<startratio>0</startratio>
							<endratio>1</endratio>
							<reverse>FALSE</reverse>
						</effect>
					</transitionitem>
					<clipitem id="clipitem-320" premiereChannelType="stereo">
						<masterclipid>masterclip-69</masterclipid>
						<name>MSTR_128_36_Smooth_Out_Harwood_Martin_Kessler_Kirby_611749.wav</name>
						<enabled>TRUE</enabled>
						<duration>2470</duration>
						<rate>
							<timebase>25</timebase>
							<ntsc>FALSE</ntsc>
						</rate>
						<start>-1</start>
						<end>726</end>
						<in>2355</in>
						<out>2470</out>
						<pproTicksIn>23928307200000</pproTicksIn>
						<pproTicksOut>25096780800000</pproTicksOut>
						<file id="file-66"/>
						<sourcetrack>
							<mediatype>audio</mediatype>
							<trackindex>2</trackindex>
						</sourcetrack>
							<filter>
								<effect>
									<name>Gain</name>
									<effectid>{61756678, 4761696e, 4b657947}</effectid>
									<effecttype>filter</effecttype>
									<mediatype>audio</mediatype>
									<parameter authoringApp="PremierePro">
										<parameterid>Gain(dB)</parameterid>
										<name>Gain(dB)</name>
										<valuemin>-96</valuemin>
										<valuemax>96</valuemax>
										<value>-20</value>
									</parameter>
								</effect>
							</filter>
						<link>
							<linkclipref>clipitem-287</linkclipref>
							<mediatype>audio</mediatype>
							<trackindex>11</trackindex>
							<clipindex>8</clipindex>
							<groupindex>1</groupindex>
						</link>
						<link>
							<linkclipref>clipitem-320</linkclipref>
							<mediatype>audio</mediatype>
							<trackindex>12</trackindex>
							<clipindex>7</clipindex>
							<groupindex>1</groupindex>
						</link>
						<logginginfo>
							<description></description>
							<scene></scene>
							<shottake></shottake>
							<lognote></lognote>
						</logginginfo>
						<labels>
							<label2>Rose</label2>
						</labels>
					</clipitem>
					<clipitem id="clipitem-321" premiereChannelType="stereo">
						<masterclipid>masterclip-88</masterclipid>
						<name>267887__wjl__short-fireball-woosh.wav</name>
						<enabled>TRUE</enabled>
						<duration>29</duration>
						<rate>
							<timebase>25</timebase>
							<ntsc>FALSE</ntsc>
						</rate>
						<start>944</start>
						<end>974</end>
						<in>0</in>
						<out>30</out>
						<pproTicksIn>0</pproTicksIn>
						<pproTicksOut>304819200000</pproTicksOut>
						<file id="file-82"/>
						<sourcetrack>
							<mediatype>audio</mediatype>
							<trackindex>2</trackindex>
						</sourcetrack>
							<filter>
								<effect>
									<name>Gain</name>
									<effectid>{61756678, 4761696e, 4b657947}</effectid>
									<effecttype>filter</effecttype>
									<mediatype>audio</mediatype>
									<parameter authoringApp="PremierePro">
										<parameterid>Gain(dB)</parameterid>
										<name>Gain(dB)</name>
										<valuemin>-96</valuemin>
										<valuemax>96</valuemax>
										<value>-28</value>
									</parameter>
								</effect>
							</filter>
						<link>
							<linkclipref>clipitem-288</linkclipref>
							<mediatype>audio</mediatype>
							<trackindex>11</trackindex>
							<clipindex>9</clipindex>
							<groupindex>1</groupindex>
						</link>
						<link>
							<linkclipref>clipitem-321</linkclipref>
							<mediatype>audio</mediatype>
							<trackindex>12</trackindex>
							<clipindex>8</clipindex>
							<groupindex>1</groupindex>
						</link>
						<logginginfo>
							<description></description>
							<scene></scene>
							<shottake></shottake>
							<lognote></lognote>
						</logginginfo>
						<labels>
							<label2>Caribbean</label2>
						</labels>
					</clipitem>
					<clipitem id="clipitem-322" premiereChannelType="stereo">
						<masterclipid>masterclip-89</masterclipid>
						<name>NONRE633380HD0012 Widow (Instrumental Demo).wav</name>
						<enabled>TRUE</enabled>
						<duration>4132</duration>
						<rate>
							<timebase>25</timebase>
							<ntsc>FALSE</ntsc>
						</rate>
						<start>1317</start>
						<end>3683</end>
						<in>0</in>
						<out>2366</out>
						<pproTicksIn>0</pproTicksIn>
						<pproTicksOut>24040074240000</pproTicksOut>
						<file id="file-83"/>
						<sourcetrack>
							<mediatype>audio</mediatype>
							<trackindex>2</trackindex>
						</sourcetrack>
							<filter>
								<effect>
									<name>Gain</name>
									<effectid>{61756678, 4761696e, 4b657947}</effectid>
									<effecttype>filter</effecttype>
									<mediatype>audio</mediatype>
									<parameter authoringApp="PremierePro">
										<parameterid>Gain(dB)</parameterid>
										<name>Gain(dB)</name>
										<valuemin>-96</valuemin>
										<valuemax>96</valuemax>
										<value>-30</value>
									</parameter>
								</effect>
							</filter>
						<link>
							<linkclipref>clipitem-289</linkclipref>
							<mediatype>audio</mediatype>
							<trackindex>11</trackindex>
							<clipindex>10</clipindex>
							<groupindex>1</groupindex>
						</link>
						<link>
							<linkclipref>clipitem-322</linkclipref>
							<mediatype>audio</mediatype>
							<trackindex>12</trackindex>
							<clipindex>9</clipindex>
							<groupindex>1</groupindex>
						</link>
						<logginginfo>
							<description></description>
							<scene></scene>
							<shottake></shottake>
							<lognote></lognote>
						</logginginfo>
						<labels>
							<label2>Caribbean</label2>
						</labels>
					</clipitem>
					<transitionitem>
						<start>4212</start>
						<end>4229</end>
						<alignment>start-black</alignment>
						<cutPointTicks>0</cutPointTicks>
						<rate>
							<timebase>25</timebase>
							<ntsc>FALSE</ntsc>
						</rate>
						<effect>
							<name>Cross Fade (+3dB)</name>
							<effectid>KGAudioTransCrossFade3dB</effectid>
							<effecttype>transition</effecttype>
							<mediatype>audio</mediatype>
							<wipecode>0</wipecode>
							<wipeaccuracy>100</wipeaccuracy>
							<startratio>0</startratio>
							<endratio>1</endratio>
							<reverse>FALSE</reverse>
						</effect>
					</transitionitem>
					<clipitem id="clipitem-323" premiereChannelType="stereo">
						<masterclipid>masterclip-90</masterclipid>
						<name>NONRO306374CS0002 Phone Tap  (Instrumental).wav</name>
						<enabled>TRUE</enabled>
						<duration>5684</duration>
						<rate>
							<timebase>25</timebase>
							<ntsc>FALSE</ntsc>
						</rate>
						<start>-1</start>
						<end>-1</end>
						<in>1141</in>
						<out>1632</out>
						<pproTicksIn>11593290240000</pproTicksIn>
						<pproTicksOut>16582164480000</pproTicksOut>
						<file id="file-84"/>
						<sourcetrack>
							<mediatype>audio</mediatype>
							<trackindex>2</trackindex>
						</sourcetrack>
							<filter>
								<effect>
									<name>Gain</name>
									<effectid>{61756678, 4761696e, 4b657947}</effectid>
									<effecttype>filter</effecttype>
									<mediatype>audio</mediatype>
									<parameter authoringApp="PremierePro">
										<parameterid>Gain(dB)</parameterid>
										<name>Gain(dB)</name>
										<valuemin>-96</valuemin>
										<valuemax>96</valuemax>
										<value>-25</value>
									</parameter>
								</effect>
							</filter>
						<link>
							<linkclipref>clipitem-290</linkclipref>
							<mediatype>audio</mediatype>
							<trackindex>11</trackindex>
							<clipindex>12</clipindex>
							<groupindex>1</groupindex>
						</link>
						<link>
							<linkclipref>clipitem-323</linkclipref>
							<mediatype>audio</mediatype>
							<trackindex>12</trackindex>
							<clipindex>11</clipindex>
							<groupindex>1</groupindex>
						</link>
						<logginginfo>
							<description></description>
							<scene></scene>
							<shottake></shottake>
							<lognote>CD Track 2 archiveNo[306374018]</lognote>
						</logginginfo>
						<labels>
							<label2>Iris</label2>
						</labels>
					</clipitem>
					<transitionitem>
						<start>4641</start>
						<end>4703</end>
						<alignment>end-black</alignment>
						<cutPointTicks>629959680000</cutPointTicks>
						<rate>
							<timebase>25</timebase>
							<ntsc>FALSE</ntsc>
						</rate>
						<effect>
							<name>Cross Fade (+3dB)</name>
							<effectid>KGAudioTransCrossFade3dB</effectid>
							<effecttype>transition</effecttype>
							<mediatype>audio</mediatype>
							<wipecode>0</wipecode>
							<wipeaccuracy>100</wipeaccuracy>
							<startratio>0</startratio>
							<endratio>1</endratio>
							<reverse>FALSE</reverse>
						</effect>
					</transitionitem>
					<clipitem id="clipitem-324" premiereChannelType="stereo">
						<masterclipid>masterclip-91</masterclipid>
						<name>NONRE633380HD0008 Uphony (Instrumental).wav</name>
						<enabled>TRUE</enabled>
						<duration>4432</duration>
						<rate>
							<timebase>25</timebase>
							<ntsc>FALSE</ntsc>
						</rate>
						<start>5284</start>
						<end>5533</end>
						<in>0</in>
						<out>249</out>
						<pproTicksIn>0</pproTicksIn>
						<pproTicksOut>2529999360000</pproTicksOut>
						<file id="file-85"/>
						<sourcetrack>
							<mediatype>audio</mediatype>
							<trackindex>2</trackindex>
						</sourcetrack>
							<filter>
								<effect>
									<name>Gain</name>
									<effectid>{61756678, 4761696e, 4b657947}</effectid>
									<effecttype>filter</effecttype>
									<mediatype>audio</mediatype>
									<parameter authoringApp="PremierePro">
										<parameterid>Gain(dB)</parameterid>
										<name>Gain(dB)</name>
										<valuemin>-96</valuemin>
										<valuemax>96</valuemax>
										<value>-27</value>
									</parameter>
								</effect>
							</filter>
						<link>
							<linkclipref>clipitem-291</linkclipref>
							<mediatype>audio</mediatype>
							<trackindex>11</trackindex>
							<clipindex>14</clipindex>
							<groupindex>1</groupindex>
						</link>
						<link>
							<linkclipref>clipitem-324</linkclipref>
							<mediatype>audio</mediatype>
							<trackindex>12</trackindex>
							<clipindex>13</clipindex>
							<groupindex>1</groupindex>
						</link>
						<logginginfo>
							<description></description>
							<scene></scene>
							<shottake></shottake>
							<lognote></lognote>
						</logginginfo>
						<labels>
							<label2>Violet</label2>
						</labels>
					</clipitem>
					<clipitem id="clipitem-325" premiereChannelType="stereo">
						<masterclipid>masterclip-91</masterclipid>
						<name>NONRE633380HD0008 Uphony (Instrumental).wav</name>
						<enabled>TRUE</enabled>
						<duration>4432</duration>
						<rate>
							<timebase>25</timebase>
							<ntsc>FALSE</ntsc>
						</rate>
						<start>5533</start>
						<end>-1</end>
						<in>249</in>
						<out>1608</out>
						<pproTicksIn>2529999360000</pproTicksIn>
						<pproTicksOut>16338309120000</pproTicksOut>
						<file id="file-85"/>
						<sourcetrack>
							<mediatype>audio</mediatype>
							<trackindex>2</trackindex>
						</sourcetrack>
							<filter>
								<effect>
									<name>Gain</name>
									<effectid>{61756678, 4761696e, 4b657947}</effectid>
									<effecttype>filter</effecttype>
									<mediatype>audio</mediatype>
									<parameter authoringApp="PremierePro">
										<parameterid>Gain(dB)</parameterid>
										<name>Gain(dB)</name>
										<valuemin>-96</valuemin>
										<valuemax>96</valuemax>
										<value>-33</value>
									</parameter>
								</effect>
							</filter>
						<link>
							<linkclipref>clipitem-292</linkclipref>
							<mediatype>audio</mediatype>
							<trackindex>11</trackindex>
							<clipindex>15</clipindex>
							<groupindex>1</groupindex>
						</link>
						<link>
							<linkclipref>clipitem-325</linkclipref>
							<mediatype>audio</mediatype>
							<trackindex>12</trackindex>
							<clipindex>14</clipindex>
							<groupindex>1</groupindex>
						</link>
						<logginginfo>
							<description></description>
							<scene></scene>
							<shottake></shottake>
							<lognote></lognote>
						</logginginfo>
						<labels>
							<label2>Violet</label2>
						</labels>
					</clipitem>
					<transitionitem>
						<start>6879</start>
						<end>6892</end>
						<alignment>end-black</alignment>
						<cutPointTicks>132088320000</cutPointTicks>
						<rate>
							<timebase>25</timebase>
							<ntsc>FALSE</ntsc>
						</rate>
						<effect>
							<name>Cross Fade (+3dB)</name>
							<effectid>KGAudioTransCrossFade3dB</effectid>
							<effecttype>transition</effecttype>
							<mediatype>audio</mediatype>
							<wipecode>0</wipecode>
							<wipeaccuracy>100</wipeaccuracy>
							<startratio>0</startratio>
							<endratio>1</endratio>
							<reverse>FALSE</reverse>
						</effect>
					</transitionitem>
					<transitionitem>
						<start>7625</start>
						<end>7627</end>
						<alignment>start-black</alignment>
						<cutPointTicks>0</cutPointTicks>
						<rate>
							<timebase>25</timebase>
							<ntsc>FALSE</ntsc>
						</rate>
						<effect>
							<name>Cross Fade (+3dB)</name>
							<effectid>KGAudioTransCrossFade3dB</effectid>
							<effecttype>transition</effecttype>
							<mediatype>audio</mediatype>
							<wipecode>0</wipecode>
							<wipeaccuracy>100</wipeaccuracy>
							<startratio>0</startratio>
							<endratio>1</endratio>
							<reverse>FALSE</reverse>
						</effect>
					</transitionitem>
					<clipitem id="clipitem-326" premiereChannelType="stereo">
						<masterclipid>masterclip-93</masterclipid>
						<name>SUN_3_2_Neon_Pulse_Keaton_Thomas_920961.wav</name>
						<enabled>TRUE</enabled>
						<duration>5212</duration>
						<rate>
							<timebase>25</timebase>
							<ntsc>FALSE</ntsc>
						</rate>
						<start>-1</start>
						<end>-1</end>
						<in>855</in>
						<out>906</out>
						<pproTicksIn>8687347200000</pproTicksIn>
						<pproTicksOut>9205539840000</pproTicksOut>
						<file id="file-87"/>
						<sourcetrack>
							<mediatype>audio</mediatype>
							<trackindex>2</trackindex>
						</sourcetrack>
							<filter>
								<effect>
									<name>Gain</name>
									<effectid>{61756678, 4761696e, 4b657947}</effectid>
									<effecttype>filter</effecttype>
									<mediatype>audio</mediatype>
									<parameter authoringApp="PremierePro">
										<parameterid>Gain(dB)</parameterid>
										<name>Gain(dB)</name>
										<valuemin>-96</valuemin>
										<valuemax>96</valuemax>
										<value>-5</value>
									</parameter>
								</effect>
							</filter>
							<filter>
								<effect>
									<name>Audio Levels</name>
									<effectid>audiolevels</effectid>
									<effectcategory>audiolevels</effectcategory>
									<effecttype>audiolevels</effecttype>
									<mediatype>audio</mediatype>
									<parameter authoringApp="PremierePro">
										<parameterid>level</parameterid>
										<name>Level</name>
										<valuemin>0</valuemin>
										<valuemax>3.98109</valuemax>
										<value>0.21702</value>
									</parameter>
								</effect>
							</filter>
						<link>
							<linkclipref>clipitem-294</linkclipref>
							<mediatype>audio</mediatype>
							<trackindex>11</trackindex>
							<clipindex>19</clipindex>
							<groupindex>1</groupindex>
						</link>
						<link>
							<linkclipref>clipitem-326</linkclipref>
							<mediatype>audio</mediatype>
							<trackindex>12</trackindex>
							<clipindex>17</clipindex>
							<groupindex>1</groupindex>
						</link>
						<logginginfo>
							<description></description>
							<scene></scene>
							<shottake></shottake>
							<lognote></lognote>
						</logginginfo>
						<labels>
							<label2>Caribbean</label2>
						</labels>
					</clipitem>
					<transitionitem>
						<start>7663</start>
						<end>7676</end>
						<alignment>end-black</alignment>
						<cutPointTicks>132088320000</cutPointTicks>
						<rate>
							<timebase>25</timebase>
							<ntsc>FALSE</ntsc>
						</rate>
						<effect>
							<name>Cross Fade (+3dB)</name>
							<effectid>KGAudioTransCrossFade3dB</effectid>
							<effecttype>transition</effecttype>
							<mediatype>audio</mediatype>
							<wipecode>0</wipecode>
							<wipeaccuracy>100</wipeaccuracy>
							<startratio>0</startratio>
							<endratio>1</endratio>
							<reverse>FALSE</reverse>
						</effect>
					</transitionitem>
					<clipitem id="clipitem-327" premiereChannelType="stereo">
						<masterclipid>masterclip-94</masterclipid>
						<name>NONRO141830CD0007 We Got What you Want.wav</name>
						<enabled>TRUE</enabled>
						<duration>5787</duration>
						<rate>
							<timebase>25</timebase>
							<ntsc>FALSE</ntsc>
						</rate>
						<start>10811</start>
						<end>-1</end>
						<in>5202</in>
						<out>5449</out>
						<pproTicksIn>52855649280000</pproTicksIn>
						<pproTicksOut>55365327360000</pproTicksOut>
						<file id="file-88"/>
						<sourcetrack>
							<mediatype>audio</mediatype>
							<trackindex>2</trackindex>
						</sourcetrack>
							<filter>
								<effect>
									<name>Gain</name>
									<effectid>{61756678, 4761696e, 4b657947}</effectid>
									<effecttype>filter</effecttype>
									<mediatype>audio</mediatype>
									<parameter authoringApp="PremierePro">
										<parameterid>Gain(dB)</parameterid>
										<name>Gain(dB)</name>
										<valuemin>-96</valuemin>
										<valuemax>96</valuemax>
										<value>-10</value>
									</parameter>
								</effect>
							</filter>
						<link>
							<linkclipref>clipitem-296</linkclipref>
							<mediatype>audio</mediatype>
							<trackindex>11</trackindex>
							<clipindex>22</clipindex>
							<groupindex>1</groupindex>
						</link>
						<link>
							<linkclipref>clipitem-327</linkclipref>
							<mediatype>audio</mediatype>
							<trackindex>12</trackindex>
							<clipindex>19</clipindex>
							<groupindex>1</groupindex>
						</link>
						<logginginfo>
							<description></description>
							<scene></scene>
							<shottake></shottake>
							<lognote>CD Track 7 archiveNo[141830018]</lognote>
						</logginginfo>
						<labels>
							<label2>Rose</label2>
						</labels>
					</clipitem>
					<transitionitem>
						<start>11045</start>
						<end>11058</end>
						<alignment>end-black</alignment>
						<cutPointTicks>132088320000</cutPointTicks>
						<rate>
							<timebase>25</timebase>
							<ntsc>FALSE</ntsc>
						</rate>
						<effect>
							<name>Cross Fade (+3dB)</name>
							<effectid>KGAudioTransCrossFade3dB</effectid>
							<effecttype>transition</effecttype>
							<mediatype>audio</mediatype>
							<wipecode>0</wipecode>
							<wipeaccuracy>100</wipeaccuracy>
							<startratio>0</startratio>
							<endratio>1</endratio>
							<reverse>FALSE</reverse>
						</effect>
					</transitionitem>
					<clipitem id="clipitem-328" premiereChannelType="stereo">
						<masterclipid>masterclip-96</masterclipid>
						<name>NONRE633380HD0006 Keefa (Instrumental).wav</name>
						<enabled>TRUE</enabled>
						<duration>4994</duration>
						<rate>
							<timebase>25</timebase>
							<ntsc>FALSE</ntsc>
						</rate>
						<start>18595</start>
						<end>18642</end>
						<in>0</in>
						<out>47</out>
						<pproTicksIn>0</pproTicksIn>
						<pproTicksOut>477550080000</pproTicksOut>
						<file id="file-90"/>
						<sourcetrack>
							<mediatype>audio</mediatype>
							<trackindex>2</trackindex>
						</sourcetrack>
							<filter>
								<effect>
									<name>Gain</name>
									<effectid>{61756678, 4761696e, 4b657947}</effectid>
									<effecttype>filter</effecttype>
									<mediatype>audio</mediatype>
									<parameter authoringApp="PremierePro">
										<parameterid>Gain(dB)</parameterid>
										<name>Gain(dB)</name>
										<valuemin>-96</valuemin>
										<valuemax>96</valuemax>
										<value>-10</value>
									</parameter>
								</effect>
							</filter>
						<link>
							<linkclipref>clipitem-302</linkclipref>
							<mediatype>audio</mediatype>
							<trackindex>11</trackindex>
							<clipindex>31</clipindex>
							<groupindex>1</groupindex>
						</link>
						<link>
							<linkclipref>clipitem-328</linkclipref>
							<mediatype>audio</mediatype>
							<trackindex>12</trackindex>
							<clipindex>21</clipindex>
							<groupindex>1</groupindex>
						</link>
						<logginginfo>
							<description></description>
							<scene></scene>
							<shottake></shottake>
							<lognote></lognote>
						</logginginfo>
						<labels>
							<label2>Violet</label2>
						</labels>
					</clipitem>
					<clipitem id="clipitem-329" premiereChannelType="stereo">
						<masterclipid>masterclip-96</masterclipid>
						<name>NONRE633380HD0006 Keefa (Instrumental).wav</name>
						<enabled>TRUE</enabled>
						<duration>4994</duration>
						<rate>
							<timebase>25</timebase>
							<ntsc>FALSE</ntsc>
						</rate>
						<start>18642</start>
						<end>-1</end>
						<in>47</in>
						<out>1227</out>
						<pproTicksIn>477550080000</pproTicksIn>
						<pproTicksOut>12467105280000</pproTicksOut>
						<file id="file-90"/>
						<sourcetrack>
							<mediatype>audio</mediatype>
							<trackindex>2</trackindex>
						</sourcetrack>
							<filter>
								<effect>
									<name>Gain</name>
									<effectid>{61756678, 4761696e, 4b657947}</effectid>
									<effecttype>filter</effecttype>
									<mediatype>audio</mediatype>
									<parameter authoringApp="PremierePro">
										<parameterid>Gain(dB)</parameterid>
										<name>Gain(dB)</name>
										<valuemin>-96</valuemin>
										<valuemax>96</valuemax>
										<value>-28</value>
									</parameter>
								</effect>
							</filter>
						<link>
							<linkclipref>clipitem-303</linkclipref>
							<mediatype>audio</mediatype>
							<trackindex>11</trackindex>
							<clipindex>32</clipindex>
							<groupindex>1</groupindex>
						</link>
						<link>
							<linkclipref>clipitem-329</linkclipref>
							<mediatype>audio</mediatype>
							<trackindex>12</trackindex>
							<clipindex>22</clipindex>
							<groupindex>1</groupindex>
						</link>
						<logginginfo>
							<description></description>
							<scene></scene>
							<shottake></shottake>
							<lognote></lognote>
						</logginginfo>
						<labels>
							<label2>Violet</label2>
						</labels>
					</clipitem>
					<transitionitem>
						<start>19760</start>
						<end>19822</end>
						<alignment>end-black</alignment>
						<cutPointTicks>629959680000</cutPointTicks>
						<rate>
							<timebase>25</timebase>
							<ntsc>FALSE</ntsc>
						</rate>
						<effect>
							<name>Cross Fade (+3dB)</name>
							<effectid>KGAudioTransCrossFade3dB</effectid>
							<effecttype>transition</effecttype>
							<mediatype>audio</mediatype>
							<wipecode>0</wipecode>
							<wipeaccuracy>100</wipeaccuracy>
							<startratio>0</startratio>
							<endratio>1</endratio>
							<reverse>FALSE</reverse>
						</effect>
					</transitionitem>
					<clipitem id="clipitem-330" premiereChannelType="stereo">
						<masterclipid>masterclip-97</masterclipid>
						<name>NONRE608859HD0003 Bitch Don't Kill my Vibe (Instrumental).wav</name>
						<enabled>TRUE</enabled>
						<duration>7719</duration>
						<rate>
							<timebase>25</timebase>
							<ntsc>FALSE</ntsc>
						</rate>
						<start>20143</start>
						<end>-1</end>
						<in>1035</in>
						<out>2534</out>
						<pproTicksIn>10516262400000</pproTicksIn>
						<pproTicksOut>25747061760000</pproTicksOut>
						<file id="file-91"/>
						<sourcetrack>
							<mediatype>audio</mediatype>
							<trackindex>2</trackindex>
						</sourcetrack>
							<filter>
								<effect>
									<name>Gain</name>
									<effectid>{61756678, 4761696e, 4b657947}</effectid>
									<effecttype>filter</effecttype>
									<mediatype>audio</mediatype>
									<parameter authoringApp="PremierePro">
										<parameterid>Gain(dB)</parameterid>
										<name>Gain(dB)</name>
										<valuemin>-96</valuemin>
										<valuemax>96</valuemax>
										<value>-30</value>
									</parameter>
								</effect>
							</filter>
						<link>
							<linkclipref>clipitem-304</linkclipref>
							<mediatype>audio</mediatype>
							<trackindex>11</trackindex>
							<clipindex>34</clipindex>
							<groupindex>1</groupindex>
						</link>
						<link>
							<linkclipref>clipitem-330</linkclipref>
							<mediatype>audio</mediatype>
							<trackindex>12</trackindex>
							<clipindex>24</clipindex>
							<groupindex>1</groupindex>
						</link>
						<logginginfo>
							<description></description>
							<scene></scene>
							<shottake></shottake>
							<lognote></lognote>
						</logginginfo>
						<labels>
							<label2>Rose</label2>
						</labels>
					</clipitem>
					<transitionitem>
						<start>21545</start>
						<end>21642</end>
						<alignment>end-black</alignment>
						<cutPointTicks>985582080000</cutPointTicks>
						<rate>
							<timebase>25</timebase>
							<ntsc>FALSE</ntsc>
						</rate>
						<effect>
							<name>Cross Fade (+3dB)</name>
							<effectid>KGAudioTransCrossFade3dB</effectid>
							<effecttype>transition</effecttype>
							<mediatype>audio</mediatype>
							<wipecode>0</wipecode>
							<wipeaccuracy>100</wipeaccuracy>
							<startratio>0</startratio>
							<endratio>1</endratio>
							<reverse>FALSE</reverse>
						</effect>
					</transitionitem>
					<clipitem id="clipitem-331" premiereChannelType="stereo">
						<masterclipid>masterclip-98</masterclipid>
						<name>264779__anthonychan0__civilian-stun-gun-1-10s-zap.wav</name>
						<enabled>TRUE</enabled>
						<duration>10</duration>
						<rate>
							<timebase>25</timebase>
							<ntsc>FALSE</ntsc>
						</rate>
						<start>22884</start>
						<end>22891</end>
						<in>3</in>
						<out>10</out>
						<pproTicksIn>30481920000</pproTicksIn>
						<pproTicksOut>101606400000</pproTicksOut>
						<file id="file-92"/>
						<sourcetrack>
							<mediatype>audio</mediatype>
							<trackindex>2</trackindex>
						</sourcetrack>
						<link>
							<linkclipref>clipitem-305</linkclipref>
							<mediatype>audio</mediatype>
							<trackindex>11</trackindex>
							<clipindex>36</clipindex>
							<groupindex>1</groupindex>
						</link>
						<link>
							<linkclipref>clipitem-331</linkclipref>
							<mediatype>audio</mediatype>
							<trackindex>12</trackindex>
							<clipindex>26</clipindex>
							<groupindex>1</groupindex>
						</link>
						<logginginfo>
							<description></description>
							<scene></scene>
							<shottake></shottake>
							<lognote></lognote>
						</logginginfo>
						<labels>
							<label2>Caribbean</label2>
						</labels>
					</clipitem>
					<clipitem id="clipitem-332" premiereChannelType="stereo">
						<masterclipid>masterclip-98</masterclipid>
						<name>264779__anthonychan0__civilian-stun-gun-1-10s-zap.wav</name>
						<enabled>TRUE</enabled>
						<duration>10</duration>
						<rate>
							<timebase>25</timebase>
							<ntsc>FALSE</ntsc>
						</rate>
						<start>22921</start>
						<end>22931</end>
						<in>0</in>
						<out>10</out>
						<pproTicksIn>0</pproTicksIn>
						<pproTicksOut>101606400000</pproTicksOut>
						<file id="file-92"/>
						<sourcetrack>
							<mediatype>audio</mediatype>
							<trackindex>2</trackindex>
						</sourcetrack>
							<filter>
								<effect>
									<name>Gain</name>
									<effectid>{61756678, 4761696e, 4b657947}</effectid>
									<effecttype>filter</effecttype>
									<mediatype>audio</mediatype>
									<parameter authoringApp="PremierePro">
										<parameterid>Gain(dB)</parameterid>
										<name>Gain(dB)</name>
										<valuemin>-96</valuemin>
										<valuemax>96</valuemax>
										<value>-9</value>
									</parameter>
								</effect>
							</filter>
							<filter>
								<effect>
									<name>Time Remap</name>
									<effectid>timeremap</effectid>
									<effectcategory>motion</effectcategory>
									<effecttype>motion</effecttype>
									<mediatype>audio</mediatype>
									<parameter authoringApp="PremierePro">
										<parameterid>variablespeed</parameterid>
										<name>variablespeed</name>
										<valuemin>0</valuemin>
										<valuemax>1</valuemax>
										<value>0</value>
									</parameter>
									<parameter authoringApp="PremierePro">
										<parameterid>speed</parameterid>
										<name>speed</name>
										<valuemin>-100000</valuemin>
										<valuemax>100000</valuemax>
										<value>100</value>
									</parameter>
									<parameter authoringApp="PremierePro">
										<parameterid>reverse</parameterid>
										<name>reverse</name>
										<value>TRUE</value>
									</parameter>
									<parameter authoringApp="PremierePro">
										<parameterid>frameblending</parameterid>
										<name>frameblending</name>
										<value>FALSE</value>
									</parameter>
									<parameter authoringApp="PremierePro">
										<parameterid>graphdict</parameterid>
										<name>graphdict</name>
										<valuemin>0</valuemin>
										<valuemax>10</valuemax>
										<value>0</value>
										<keyframe>
											<when>0</when>
											<value>10</value>
											<speedvirtualkf>TRUE</speedvirtualkf>
											<speedkfin>TRUE</speedkfin>
										</keyframe>
										<keyframe>
											<when>10</when>
											<value>1</value>
											<speedvirtualkf>TRUE</speedvirtualkf>
											<speedkfout>TRUE</speedkfout>
										</keyframe>
										<interpolation>
											<name>FCPCurve</name>
										</interpolation>
									</parameter>
								</effect>
							</filter>
						<link>
							<linkclipref>clipitem-306</linkclipref>
							<mediatype>audio</mediatype>
							<trackindex>11</trackindex>
							<clipindex>37</clipindex>
							<groupindex>1</groupindex>
						</link>
						<link>
							<linkclipref>clipitem-332</linkclipref>
							<mediatype>audio</mediatype>
							<trackindex>12</trackindex>
							<clipindex>27</clipindex>
							<groupindex>1</groupindex>
						</link>
						<logginginfo>
							<description></description>
							<scene></scene>
							<shottake></shottake>
							<lognote></lognote>
						</logginginfo>
						<labels>
							<label2>Caribbean</label2>
						</labels>
					</clipitem>
					<clipitem id="clipitem-333" premiereChannelType="stereo">
						<masterclipid>masterclip-98</masterclipid>
						<name>264779__anthonychan0__civilian-stun-gun-1-10s-zap.wav</name>
						<enabled>TRUE</enabled>
						<duration>10</duration>
						<rate>
							<timebase>25</timebase>
							<ntsc>FALSE</ntsc>
						</rate>
						<start>22931</start>
						<end>22938</end>
						<in>2</in>
						<out>9</out>
						<pproTicksIn>20321280000</pproTicksIn>
						<pproTicksOut>91445760000</pproTicksOut>
						<file id="file-92"/>
						<sourcetrack>
							<mediatype>audio</mediatype>
							<trackindex>2</trackindex>
						</sourcetrack>
							<filter>
								<effect>
									<name>Gain</name>
									<effectid>{61756678, 4761696e, 4b657947}</effectid>
									<effecttype>filter</effecttype>
									<mediatype>audio</mediatype>
									<parameter authoringApp="PremierePro">
										<parameterid>Gain(dB)</parameterid>
										<name>Gain(dB)</name>
										<valuemin>-96</valuemin>
										<valuemax>96</valuemax>
										<value>-9</value>
									</parameter>
								</effect>
							</filter>
						<link>
							<linkclipref>clipitem-307</linkclipref>
							<mediatype>audio</mediatype>
							<trackindex>11</trackindex>
							<clipindex>38</clipindex>
							<groupindex>1</groupindex>
						</link>
						<link>
							<linkclipref>clipitem-333</linkclipref>
							<mediatype>audio</mediatype>
							<trackindex>12</trackindex>
							<clipindex>28</clipindex>
							<groupindex>1</groupindex>
						</link>
						<logginginfo>
							<description></description>
							<scene></scene>
							<shottake></shottake>
							<lognote></lognote>
						</logginginfo>
						<labels>
							<label2>Caribbean</label2>
						</labels>
					</clipitem>
					<clipitem id="clipitem-334" premiereChannelType="stereo">
						<masterclipid>masterclip-98</masterclipid>
						<name>264779__anthonychan0__civilian-stun-gun-1-10s-zap.wav</name>
						<enabled>TRUE</enabled>
						<duration>10</duration>
						<rate>
							<timebase>25</timebase>
							<ntsc>FALSE</ntsc>
						</rate>
						<start>22938</start>
						<end>22945</end>
						<in>3</in>
						<out>10</out>
						<pproTicksIn>30481920000</pproTicksIn>
						<pproTicksOut>101606400000</pproTicksOut>
						<file id="file-92"/>
						<sourcetrack>
							<mediatype>audio</mediatype>
							<trackindex>2</trackindex>
						</sourcetrack>
							<filter>
								<effect>
									<name>Gain</name>
									<effectid>{61756678, 4761696e, 4b657947}</effectid>
									<effecttype>filter</effecttype>
									<mediatype>audio</mediatype>
									<parameter authoringApp="PremierePro">
										<parameterid>Gain(dB)</parameterid>
										<name>Gain(dB)</name>
										<valuemin>-96</valuemin>
										<valuemax>96</valuemax>
										<value>-9</value>
									</parameter>
								</effect>
							</filter>
						<link>
							<linkclipref>clipitem-308</linkclipref>
							<mediatype>audio</mediatype>
							<trackindex>11</trackindex>
							<clipindex>39</clipindex>
							<groupindex>1</groupindex>
						</link>
						<link>
							<linkclipref>clipitem-334</linkclipref>
							<mediatype>audio</mediatype>
							<trackindex>12</trackindex>
							<clipindex>29</clipindex>
							<groupindex>1</groupindex>
						</link>
						<logginginfo>
							<description></description>
							<scene></scene>
							<shottake></shottake>
							<lognote></lognote>
						</logginginfo>
						<labels>
							<label2>Caribbean</label2>
						</labels>
					</clipitem>
					<clipitem id="clipitem-335" premiereChannelType="stereo">
						<masterclipid>masterclip-98</masterclipid>
						<name>264779__anthonychan0__civilian-stun-gun-1-10s-zap.wav</name>
						<enabled>TRUE</enabled>
						<duration>10</duration>
						<rate>
							<timebase>25</timebase>
							<ntsc>FALSE</ntsc>
						</rate>
						<start>22945</start>
						<end>22952</end>
						<in>3</in>
						<out>10</out>
						<pproTicksIn>30481920000</pproTicksIn>
						<pproTicksOut>101606400000</pproTicksOut>
						<file id="file-92"/>
						<sourcetrack>
							<mediatype>audio</mediatype>
							<trackindex>2</trackindex>
						</sourcetrack>
							<filter>
								<effect>
									<name>Gain</name>
									<effectid>{61756678, 4761696e, 4b657947}</effectid>
									<effecttype>filter</effecttype>
									<mediatype>audio</mediatype>
									<parameter authoringApp="PremierePro">
										<parameterid>Gain(dB)</parameterid>
										<name>Gain(dB)</name>
										<valuemin>-96</valuemin>
										<valuemax>96</valuemax>
										<value>-9</value>
									</parameter>
								</effect>
							</filter>
						<link>
							<linkclipref>clipitem-309</linkclipref>
							<mediatype>audio</mediatype>
							<trackindex>11</trackindex>
							<clipindex>40</clipindex>
							<groupindex>1</groupindex>
						</link>
						<link>
							<linkclipref>clipitem-335</linkclipref>
							<mediatype>audio</mediatype>
							<trackindex>12</trackindex>
							<clipindex>30</clipindex>
							<groupindex>1</groupindex>
						</link>
						<logginginfo>
							<description></description>
							<scene></scene>
							<shottake></shottake>
							<lognote></lognote>
						</logginginfo>
						<labels>
							<label2>Caribbean</label2>
						</labels>
					</clipitem>
					<clipitem id="clipitem-336" premiereChannelType="stereo">
						<masterclipid>masterclip-98</masterclipid>
						<name>264779__anthonychan0__civilian-stun-gun-1-10s-zap.wav</name>
						<enabled>TRUE</enabled>
						<duration>10</duration>
						<rate>
							<timebase>25</timebase>
							<ntsc>FALSE</ntsc>
						</rate>
						<start>22952</start>
						<end>22958</end>
						<in>1</in>
						<out>7</out>
						<pproTicksIn>10160640000</pproTicksIn>
						<pproTicksOut>71124480000</pproTicksOut>
						<file id="file-92"/>
						<sourcetrack>
							<mediatype>audio</mediatype>
							<trackindex>2</trackindex>
						</sourcetrack>
							<filter>
								<effect>
									<name>Gain</name>
									<effectid>{61756678, 4761696e, 4b657947}</effectid>
									<effecttype>filter</effecttype>
									<mediatype>audio</mediatype>
									<parameter authoringApp="PremierePro">
										<parameterid>Gain(dB)</parameterid>
										<name>Gain(dB)</name>
										<valuemin>-96</valuemin>
										<valuemax>96</valuemax>
										<value>-9</value>
									</parameter>
								</effect>
							</filter>
							<filter>
								<effect>
									<name>Time Remap</name>
									<effectid>timeremap</effectid>
									<effectcategory>motion</effectcategory>
									<effecttype>motion</effecttype>
									<mediatype>audio</mediatype>
									<parameter authoringApp="PremierePro">
										<parameterid>variablespeed</parameterid>
										<name>variablespeed</name>
										<valuemin>0</valuemin>
										<valuemax>1</valuemax>
										<value>0</value>
									</parameter>
									<parameter authoringApp="PremierePro">
										<parameterid>speed</parameterid>
										<name>speed</name>
										<valuemin>-100000</valuemin>
										<valuemax>100000</valuemax>
										<value>100</value>
									</parameter>
									<parameter authoringApp="PremierePro">
										<parameterid>reverse</parameterid>
										<name>reverse</name>
										<value>TRUE</value>
									</parameter>
									<parameter authoringApp="PremierePro">
										<parameterid>frameblending</parameterid>
										<name>frameblending</name>
										<value>FALSE</value>
									</parameter>
									<parameter authoringApp="PremierePro">
										<parameterid>graphdict</parameterid>
										<name>graphdict</name>
										<valuemin>0</valuemin>
										<valuemax>10</valuemax>
										<value>0</value>
										<keyframe>
											<when>0</when>
											<value>10</value>
											<speedvirtualkf>TRUE</speedvirtualkf>
											<speedkfstart>TRUE</speedkfstart>
										</keyframe>
										<keyframe>
											<when>3</when>
											<value>7</value>
											<speedvirtualkf>TRUE</speedvirtualkf>
											<speedkfin>TRUE</speedkfin>
										</keyframe>
										<keyframe>
											<when>9</when>
											<value>1</value>
											<speedvirtualkf>TRUE</speedvirtualkf>
											<speedkfout>TRUE</speedkfout>
										</keyframe>
										<keyframe>
											<when>10</when>
											<value>1</value>
											<speedvirtualkf>TRUE</speedvirtualkf>
											<speedkfend>TRUE</speedkfend>
										</keyframe>
										<interpolation>
											<name>FCPCurve</name>
										</interpolation>
									</parameter>
								</effect>
							</filter>
						<link>
							<linkclipref>clipitem-310</linkclipref>
							<mediatype>audio</mediatype>
							<trackindex>11</trackindex>
							<clipindex>41</clipindex>
							<groupindex>1</groupindex>
						</link>
						<link>
							<linkclipref>clipitem-336</linkclipref>
							<mediatype>audio</mediatype>
							<trackindex>12</trackindex>
							<clipindex>31</clipindex>
							<groupindex>1</groupindex>
						</link>
						<logginginfo>
							<description></description>
							<scene></scene>
							<shottake></shottake>
							<lognote></lognote>
						</logginginfo>
						<labels>
							<label2>Caribbean</label2>
						</labels>
					</clipitem>
					<clipitem id="clipitem-337" premiereChannelType="stereo">
						<masterclipid>masterclip-98</masterclipid>
						<name>264779__anthonychan0__civilian-stun-gun-1-10s-zap.wav</name>
						<enabled>TRUE</enabled>
						<duration>10</duration>
						<rate>
							<timebase>25</timebase>
							<ntsc>FALSE</ntsc>
						</rate>
						<start>22958</start>
						<end>22964</end>
						<in>3</in>
						<out>9</out>
						<pproTicksIn>30481920000</pproTicksIn>
						<pproTicksOut>91445760000</pproTicksOut>
						<file id="file-92"/>
						<sourcetrack>
							<mediatype>audio</mediatype>
							<trackindex>2</trackindex>
						</sourcetrack>
							<filter>
								<effect>
									<name>Gain</name>
									<effectid>{61756678, 4761696e, 4b657947}</effectid>
									<effecttype>filter</effecttype>
									<mediatype>audio</mediatype>
									<parameter authoringApp="PremierePro">
										<parameterid>Gain(dB)</parameterid>
										<name>Gain(dB)</name>
										<valuemin>-96</valuemin>
										<valuemax>96</valuemax>
										<value>-9</value>
									</parameter>
								</effect>
							</filter>
						<link>
							<linkclipref>clipitem-311</linkclipref>
							<mediatype>audio</mediatype>
							<trackindex>11</trackindex>
							<clipindex>42</clipindex>
							<groupindex>1</groupindex>
						</link>
						<link>
							<linkclipref>clipitem-337</linkclipref>
							<mediatype>audio</mediatype>
							<trackindex>12</trackindex>
							<clipindex>32</clipindex>
							<groupindex>1</groupindex>
						</link>
						<logginginfo>
							<description></description>
							<scene></scene>
							<shottake></shottake>
							<lognote></lognote>
						</logginginfo>
						<labels>
							<label2>Caribbean</label2>
						</labels>
					</clipitem>
					<clipitem id="clipitem-338" premiereChannelType="stereo">
						<masterclipid>masterclip-98</masterclipid>
						<name>264779__anthonychan0__civilian-stun-gun-1-10s-zap.wav</name>
						<enabled>TRUE</enabled>
						<duration>10</duration>
						<rate>
							<timebase>25</timebase>
							<ntsc>FALSE</ntsc>
						</rate>
						<start>22964</start>
						<end>22971</end>
						<in>3</in>
						<out>10</out>
						<pproTicksIn>30481920000</pproTicksIn>
						<pproTicksOut>101606400000</pproTicksOut>
						<file id="file-92"/>
						<sourcetrack>
							<mediatype>audio</mediatype>
							<trackindex>2</trackindex>
						</sourcetrack>
							<filter>
								<effect>
									<name>Gain</name>
									<effectid>{61756678, 4761696e, 4b657947}</effectid>
									<effecttype>filter</effecttype>
									<mediatype>audio</mediatype>
									<parameter authoringApp="PremierePro">
										<parameterid>Gain(dB)</parameterid>
										<name>Gain(dB)</name>
										<valuemin>-96</valuemin>
										<valuemax>96</valuemax>
										<value>-9</value>
									</parameter>
								</effect>
							</filter>
						<link>
							<linkclipref>clipitem-312</linkclipref>
							<mediatype>audio</mediatype>
							<trackindex>11</trackindex>
							<clipindex>43</clipindex>
							<groupindex>1</groupindex>
						</link>
						<link>
							<linkclipref>clipitem-338</linkclipref>
							<mediatype>audio</mediatype>
							<trackindex>12</trackindex>
							<clipindex>33</clipindex>
							<groupindex>1</groupindex>
						</link>
						<logginginfo>
							<description></description>
							<scene></scene>
							<shottake></shottake>
							<lognote></lognote>
						</logginginfo>
						<labels>
							<label2>Caribbean</label2>
						</labels>
					</clipitem>
					<transitionitem>
						<start>29004</start>
						<end>29017</end>
						<alignment>start-black</alignment>
						<cutPointTicks>0</cutPointTicks>
						<rate>
							<timebase>25</timebase>
							<ntsc>FALSE</ntsc>
						</rate>
						<effect>
							<name>Cross Fade (+3dB)</name>
							<effectid>KGAudioTransCrossFade3dB</effectid>
							<effecttype>transition</effecttype>
							<mediatype>audio</mediatype>
							<wipecode>0</wipecode>
							<wipeaccuracy>100</wipeaccuracy>
							<startratio>0</startratio>
							<endratio>1</endratio>
							<reverse>FALSE</reverse>
						</effect>
					</transitionitem>
					<clipitem id="clipitem-339" premiereChannelType="stereo">
						<masterclipid>masterclip-99</masterclipid>
						<name>NONRE617399HD0010 Who do You Love (Explicit).wav</name>
						<enabled>TRUE</enabled>
						<duration>5837</duration>
						<rate>
							<timebase>25</timebase>
							<ntsc>FALSE</ntsc>
						</rate>
						<start>-1</start>
						<end>-1</end>
						<in>3532</in>
						<out>3616</out>
						<pproTicksIn>35887380480000</pproTicksIn>
						<pproTicksOut>36740874240000</pproTicksOut>
						<file id="file-93"/>
						<sourcetrack>
							<mediatype>audio</mediatype>
							<trackindex>2</trackindex>
						</sourcetrack>
							<filter>
								<effect>
									<name>Gain</name>
									<effectid>{61756678, 4761696e, 4b657947}</effectid>
									<effecttype>filter</effecttype>
									<mediatype>audio</mediatype>
									<parameter authoringApp="PremierePro">
										<parameterid>Gain(dB)</parameterid>
										<name>Gain(dB)</name>
										<valuemin>-96</valuemin>
										<valuemax>96</valuemax>
										<value>-27</value>
									</parameter>
								</effect>
							</filter>
						<link>
							<linkclipref>clipitem-313</linkclipref>
							<mediatype>audio</mediatype>
							<trackindex>11</trackindex>
							<clipindex>45</clipindex>
							<groupindex>1</groupindex>
						</link>
						<link>
							<linkclipref>clipitem-339</linkclipref>
							<mediatype>audio</mediatype>
							<trackindex>12</trackindex>
							<clipindex>35</clipindex>
							<groupindex>1</groupindex>
						</link>
						<logginginfo>
							<description></description>
							<scene></scene>
							<shottake></shottake>
							<lognote></lognote>
						</logginginfo>
						<labels>
							<label2>Caribbean</label2>
						</labels>
					</clipitem>
					<transitionitem>
						<start>29055</start>
						<end>29088</end>
						<alignment>center</alignment>
						<cutPointTicks>162570240000</cutPointTicks>
						<rate>
							<timebase>25</timebase>
							<ntsc>FALSE</ntsc>
						</rate>
						<effect>
							<name>Cross Fade (+3dB)</name>
							<effectid>KGAudioTransCrossFade3dB</effectid>
							<effecttype>transition</effecttype>
							<mediatype>audio</mediatype>
							<wipecode>0</wipecode>
							<wipeaccuracy>100</wipeaccuracy>
							<startratio>0</startratio>
							<endratio>1</endratio>
							<reverse>FALSE</reverse>
						</effect>
					</transitionitem>
					<clipitem id="clipitem-340" premiereChannelType="stereo">
						<masterclipid>masterclip-99</masterclipid>
						<name>NONRE617399HD0010 Who do You Love (Explicit).wav</name>
						<enabled>TRUE</enabled>
						<duration>5837</duration>
						<rate>
							<timebase>25</timebase>
							<ntsc>FALSE</ntsc>
						</rate>
						<start>-1</start>
						<end>-1</end>
						<in>3583</in>
						<out>3811</out>
						<pproTicksIn>36405573120000</pproTicksIn>
						<pproTicksOut>38722199040000</pproTicksOut>
						<file id="file-93"/>
						<sourcetrack>
							<mediatype>audio</mediatype>
							<trackindex>2</trackindex>
						</sourcetrack>
							<filter>
								<effect>
									<name>Gain</name>
									<effectid>{61756678, 4761696e, 4b657947}</effectid>
									<effecttype>filter</effecttype>
									<mediatype>audio</mediatype>
									<parameter authoringApp="PremierePro">
										<parameterid>Gain(dB)</parameterid>
										<name>Gain(dB)</name>
										<valuemin>-96</valuemin>
										<valuemax>96</valuemax>
										<value>-17</value>
									</parameter>
								</effect>
							</filter>
						<link>
							<linkclipref>clipitem-314</linkclipref>
							<mediatype>audio</mediatype>
							<trackindex>11</trackindex>
							<clipindex>47</clipindex>
							<groupindex>1</groupindex>
						</link>
						<link>
							<linkclipref>clipitem-340</linkclipref>
							<mediatype>audio</mediatype>
							<trackindex>12</trackindex>
							<clipindex>37</clipindex>
							<groupindex>1</groupindex>
						</link>
						<logginginfo>
							<description></description>
							<scene></scene>
							<shottake></shottake>
							<lognote></lognote>
						</logginginfo>
						<labels>
							<label2>Caribbean</label2>
						</labels>
					</clipitem>
					<transitionitem>
						<start>29246</start>
						<end>29283</end>
						<alignment>center</alignment>
						<cutPointTicks>182891520000</cutPointTicks>
						<rate>
							<timebase>25</timebase>
							<ntsc>FALSE</ntsc>
						</rate>
						<effect>
							<name>Cross Fade (+3dB)</name>
							<effectid>KGAudioTransCrossFade3dB</effectid>
							<effecttype>transition</effecttype>
							<mediatype>audio</mediatype>
							<wipecode>0</wipecode>
							<wipeaccuracy>100</wipeaccuracy>
							<startratio>0</startratio>
							<endratio>1</endratio>
							<reverse>FALSE</reverse>
						</effect>
					</transitionitem>
					<clipitem id="clipitem-341" premiereChannelType="stereo">
						<masterclipid>masterclip-99</masterclipid>
						<name>NONRE617399HD0010 Who do You Love (Explicit).wav</name>
						<enabled>TRUE</enabled>
						<duration>5837</duration>
						<rate>
							<timebase>25</timebase>
							<ntsc>FALSE</ntsc>
						</rate>
						<start>-1</start>
						<end>-1</end>
						<in>3774</in>
						<out>4214</out>
						<pproTicksIn>38346255360000</pproTicksIn>
						<pproTicksOut>42816936960000</pproTicksOut>
						<file id="file-93"/>
						<sourcetrack>
							<mediatype>audio</mediatype>
							<trackindex>2</trackindex>
						</sourcetrack>
							<filter>
								<effect>
									<name>Gain</name>
									<effectid>{61756678, 4761696e, 4b657947}</effectid>
									<effecttype>filter</effecttype>
									<mediatype>audio</mediatype>
									<parameter authoringApp="PremierePro">
										<parameterid>Gain(dB)</parameterid>
										<name>Gain(dB)</name>
										<valuemin>-96</valuemin>
										<valuemax>96</valuemax>
										<value>-9</value>
									</parameter>
								</effect>
							</filter>
						<link>
							<linkclipref>clipitem-315</linkclipref>
							<mediatype>audio</mediatype>
							<trackindex>11</trackindex>
							<clipindex>49</clipindex>
							<groupindex>1</groupindex>
						</link>
						<link>
							<linkclipref>clipitem-341</linkclipref>
							<mediatype>audio</mediatype>
							<trackindex>12</trackindex>
							<clipindex>39</clipindex>
							<groupindex>1</groupindex>
						</link>
						<logginginfo>
							<description></description>
							<scene></scene>
							<shottake></shottake>
							<lognote></lognote>
						</logginginfo>
						<labels>
							<label2>Caribbean</label2>
						</labels>
					</clipitem>
					<transitionitem>
						<start>29651</start>
						<end>29686</end>
						<alignment>center</alignment>
						<cutPointTicks>172730880000</cutPointTicks>
						<rate>
							<timebase>25</timebase>
							<ntsc>FALSE</ntsc>
						</rate>
						<effect>
							<name>Cross Fade (+3dB)</name>
							<effectid>KGAudioTransCrossFade3dB</effectid>
							<effecttype>transition</effecttype>
							<mediatype>audio</mediatype>
							<wipecode>0</wipecode>
							<wipeaccuracy>100</wipeaccuracy>
							<startratio>0</startratio>
							<endratio>1</endratio>
							<reverse>FALSE</reverse>
						</effect>
					</transitionitem>
					<clipitem id="clipitem-342" premiereChannelType="stereo">
						<masterclipid>masterclip-99</masterclipid>
						<name>NONRE617399HD0010 Who do You Love (Explicit).wav</name>
						<enabled>TRUE</enabled>
						<duration>5837</duration>
						<rate>
							<timebase>25</timebase>
							<ntsc>FALSE</ntsc>
						</rate>
						<start>-1</start>
						<end>-1</end>
						<in>4179</in>
						<out>4575</out>
						<pproTicksIn>42461314560000</pproTicksIn>
						<pproTicksOut>46484928000000</pproTicksOut>
						<file id="file-93"/>
						<sourcetrack>
							<mediatype>audio</mediatype>
							<trackindex>2</trackindex>
						</sourcetrack>
							<filter>
								<effect>
									<name>Gain</name>
									<effectid>{61756678, 4761696e, 4b657947}</effectid>
									<effecttype>filter</effecttype>
									<mediatype>audio</mediatype>
									<parameter authoringApp="PremierePro">
										<parameterid>Gain(dB)</parameterid>
										<name>Gain(dB)</name>
										<valuemin>-96</valuemin>
										<valuemax>96</valuemax>
										<value>-24</value>
									</parameter>
								</effect>
							</filter>
						<link>
							<linkclipref>clipitem-316</linkclipref>
							<mediatype>audio</mediatype>
							<trackindex>11</trackindex>
							<clipindex>51</clipindex>
							<groupindex>1</groupindex>
						</link>
						<link>
							<linkclipref>clipitem-342</linkclipref>
							<mediatype>audio</mediatype>
							<trackindex>12</trackindex>
							<clipindex>41</clipindex>
							<groupindex>1</groupindex>
						</link>
						<logginginfo>
							<description></description>
							<scene></scene>
							<shottake></shottake>
							<lognote></lognote>
						</logginginfo>
						<labels>
							<label2>Caribbean</label2>
						</labels>
					</clipitem>
					<transitionitem>
						<start>29950</start>
						<end>30047</end>
						<alignment>end-black</alignment>
						<cutPointTicks>985582080000</cutPointTicks>
						<rate>
							<timebase>25</timebase>
							<ntsc>FALSE</ntsc>
						</rate>
						<effect>
							<name>Cross Fade (+3dB)</name>
							<effectid>KGAudioTransCrossFade3dB</effectid>
							<effecttype>transition</effecttype>
							<mediatype>audio</mediatype>
							<wipecode>0</wipecode>
							<wipeaccuracy>100</wipeaccuracy>
							<startratio>0</startratio>
							<endratio>1</endratio>
							<reverse>FALSE</reverse>
						</effect>
					</transitionitem>
					<enabled>TRUE</enabled>
					<locked>FALSE</locked>
					<outputchannelindex>2</outputchannelindex>
				</track>
				<track TL.SQTrackAudioKeyframeStyle="0" TL.SQTrackShy="0" TL.SQTrackExpandedHeight="45" TL.SQTrackExpanded="1" MZ.TrackTargeted="1" PannerCurrentValue="0.5" PannerIsInverted="true" PannerStartKeyframe="-91445760000000000,0.5,0,0,0,0,0,0" PannerName="Balance" currentExplodedTrackIndex="0" totalExplodedTrackCount="2" premiereTrackType="Stereo">
					<clipitem id="clipitem-343" premiereChannelType="mono">
						<masterclipid>masterclip-63</masterclipid>
						<name>Mikkelstøt-SC05-T01-Multicam</name>
						<enabled>TRUE</enabled>
						<duration>29952</duration>
						<rate>
							<timebase>25</timebase>
							<ntsc>FALSE</ntsc>
						</rate>
						<start>161</start>
						<end>191</end>
						<in>14100</in>
						<out>14130</out>
						<pproTicksIn>143265024000000</pproTicksIn>
						<pproTicksOut>143569843200000</pproTicksOut>
						<sequence id="sequence-5"/>
						<link>
							<linkclipref>clipitem-189</linkclipref>
							<mediatype>audio</mediatype>
							<trackindex>9</trackindex>
							<clipindex>1</clipindex>
							<groupindex>1</groupindex>
						</link>
						<link>
							<linkclipref>clipitem-283</linkclipref>
							<mediatype>audio</mediatype>
							<trackindex>11</trackindex>
							<clipindex>1</clipindex>
							<groupindex>1</groupindex>
						</link>
						<link>
							<linkclipref>clipitem-343</linkclipref>
							<mediatype>audio</mediatype>
							<trackindex>13</trackindex>
							<clipindex>1</clipindex>
							<groupindex>1</groupindex>
						</link>
						<link>
							<linkclipref>clipitem-427</linkclipref>
							<mediatype>audio</mediatype>
							<trackindex>15</trackindex>
							<clipindex>1</clipindex>
							<groupindex>1</groupindex>
						</link>
						<labels>
							<label2>Forest</label2>
						</labels>
					</clipitem>
					<transitionitem>
						<start>609</start>
						<end>611</end>
						<alignment>start-black</alignment>
						<cutPointTicks>0</cutPointTicks>
						<rate>
							<timebase>25</timebase>
							<ntsc>FALSE</ntsc>
						</rate>
						<effect>
							<name>Cross Fade (+3dB)</name>
							<effectid>KGAudioTransCrossFade3dB</effectid>
							<effecttype>transition</effecttype>
							<mediatype>audio</mediatype>
							<wipecode>0</wipecode>
							<wipeaccuracy>100</wipeaccuracy>
							<startratio>0</startratio>
							<endratio>1</endratio>
							<reverse>FALSE</reverse>
						</effect>
					</transitionitem>
					<clipitem id="clipitem-344" premiereChannelType="stereo">
						<masterclipid>masterclip-100</masterclipid>
						<name>184325__micro__woosh-slide-in.wav</name>
						<enabled>TRUE</enabled>
						<duration>28</duration>
						<rate>
							<timebase>25</timebase>
							<ntsc>FALSE</ntsc>
						</rate>
						<start>-1</start>
						<end>633</end>
						<in>0</in>
						<out>24</out>
						<pproTicksIn>0</pproTicksIn>
						<pproTicksOut>121927680000</pproTicksOut>
						<file id="file-94">
							<name>184325__micro__woosh-slide-in.wav</name>
							<pathurl>file://localhost/Volumes/Bingen/Prosjekter/MYNT194016%20WHATS%20COOKING/Lydeffekter/Jan%20Lydeffekter/Woosh/184325__micro__woosh-slide-in.wav</pathurl>
							<rate>
								<timebase>30</timebase>
								<ntsc>TRUE</ntsc>
							</rate>
							<duration>17</duration>
							<timecode>
								<rate>
									<timebase>30</timebase>
									<ntsc>TRUE</ntsc>
								</rate>
								<string>01;00;06;13</string>
								<frame>108085</frame>
								<displayformat>DF</displayformat>
								<reel>
									<name></name>
								</reel>
							</timecode>
							<media>
								<audio>
									<samplecharacteristics>
										<depth>16</depth>
										<samplerate>48000</samplerate>
									</samplecharacteristics>
									<channelcount>2</channelcount>
								</audio>
							</media>
						</file>
						<sourcetrack>
							<mediatype>audio</mediatype>
							<trackindex>1</trackindex>
						</sourcetrack>
							<filter>
								<effect>
									<name>Gain</name>
									<effectid>{61756678, 4761696e, 4b657947}</effectid>
									<effecttype>filter</effecttype>
									<mediatype>audio</mediatype>
									<parameter authoringApp="PremierePro">
										<parameterid>Gain(dB)</parameterid>
										<name>Gain(dB)</name>
										<valuemin>-96</valuemin>
										<valuemax>96</valuemax>
										<value>-32</value>
									</parameter>
								</effect>
							</filter>
							<filter>
								<effect>
									<name>Time Remap</name>
									<effectid>timeremap</effectid>
									<effectcategory>motion</effectcategory>
									<effecttype>motion</effecttype>
									<mediatype>audio</mediatype>
									<parameter authoringApp="PremierePro">
										<parameterid>variablespeed</parameterid>
										<name>variablespeed</name>
										<valuemin>0</valuemin>
										<valuemax>1</valuemax>
										<value>0</value>
									</parameter>
									<parameter authoringApp="PremierePro">
										<parameterid>speed</parameterid>
										<name>speed</name>
										<valuemin>-100000</valuemin>
										<valuemax>100000</valuemax>
										<value>50</value>
									</parameter>
									<parameter authoringApp="PremierePro">
										<parameterid>reverse</parameterid>
										<name>reverse</name>
										<value>FALSE</value>
									</parameter>
									<parameter authoringApp="PremierePro">
										<parameterid>frameblending</parameterid>
										<name>frameblending</name>
										<value>FALSE</value>
									</parameter>
									<parameter authoringApp="PremierePro">
										<parameterid>graphdict</parameterid>
										<name>graphdict</name>
										<valuemin>0</valuemin>
										<valuemax>14</valuemax>
										<value>0</value>
										<keyframe>
											<when>0</when>
											<value>0</value>
											<speedvirtualkf>TRUE</speedvirtualkf>
											<speedkfin>TRUE</speedkfin>
										</keyframe>
										<keyframe>
											<when>24</when>
											<value>12</value>
											<speedvirtualkf>TRUE</speedvirtualkf>
											<speedkfout>TRUE</speedkfout>
										</keyframe>
										<keyframe>
											<when>28</when>
											<value>14</value>
											<speedvirtualkf>TRUE</speedvirtualkf>
											<speedkfend>TRUE</speedkfend>
										</keyframe>
										<interpolation>
											<name>FCPCurve</name>
										</interpolation>
									</parameter>
								</effect>
							</filter>
							<marker>
								<comment></comment>
								<name>Tempo: 120.0</name>
								<in>0</in>
								<out>-1</out>
							</marker>
						<link>
							<linkclipref>clipitem-344</linkclipref>
							<mediatype>audio</mediatype>
							<trackindex>13</trackindex>
							<clipindex>3</clipindex>
							<groupindex>1</groupindex>
						</link>
						<link>
							<linkclipref>clipitem-388</linkclipref>
							<mediatype>audio</mediatype>
							<trackindex>14</trackindex>
							<clipindex>2</clipindex>
							<groupindex>1</groupindex>
						</link>
						<logginginfo>
							<description></description>
							<scene></scene>
							<shottake></shottake>
							<lognote></lognote>
						</logginginfo>
						<labels>
							<label2>Caribbean</label2>
						</labels>
					</clipitem>
					<clipitem id="clipitem-345" premiereChannelType="stereo">
						<masterclipid>masterclip-84</masterclipid>
						<name>194081__potentjello__woosh-noise-1.wav</name>
						<enabled>TRUE</enabled>
						<duration>9</duration>
						<rate>
							<timebase>25</timebase>
							<ntsc>FALSE</ntsc>
						</rate>
						<start>705</start>
						<end>714</end>
						<in>0</in>
						<out>9</out>
						<pproTicksIn>0</pproTicksIn>
						<pproTicksOut>68584320000</pproTicksOut>
						<file id="file-78"/>
						<sourcetrack>
							<mediatype>audio</mediatype>
							<trackindex>1</trackindex>
						</sourcetrack>
							<filter>
								<effect>
									<name>Gain</name>
									<effectid>{61756678, 4761696e, 4b657947}</effectid>
									<effecttype>filter</effecttype>
									<mediatype>audio</mediatype>
									<parameter authoringApp="PremierePro">
										<parameterid>Gain(dB)</parameterid>
										<name>Gain(dB)</name>
										<valuemin>-96</valuemin>
										<valuemax>96</valuemax>
										<value>-8</value>
									</parameter>
								</effect>
							</filter>
							<filter>
								<effect>
									<name>Time Remap</name>
									<effectid>timeremap</effectid>
									<effectcategory>motion</effectcategory>
									<effecttype>motion</effecttype>
									<mediatype>audio</mediatype>
									<parameter authoringApp="PremierePro">
										<parameterid>variablespeed</parameterid>
										<name>variablespeed</name>
										<valuemin>0</valuemin>
										<valuemax>1</valuemax>
										<value>0</value>
									</parameter>
									<parameter authoringApp="PremierePro">
										<parameterid>speed</parameterid>
										<name>speed</name>
										<valuemin>-100000</valuemin>
										<valuemax>100000</valuemax>
										<value>75</value>
									</parameter>
									<parameter authoringApp="PremierePro">
										<parameterid>reverse</parameterid>
										<name>reverse</name>
										<value>FALSE</value>
									</parameter>
									<parameter authoringApp="PremierePro">
										<parameterid>frameblending</parameterid>
										<name>frameblending</name>
										<value>FALSE</value>
									</parameter>
									<parameter authoringApp="PremierePro">
										<parameterid>graphdict</parameterid>
										<name>graphdict</name>
										<valuemin>0</valuemin>
										<valuemax>6</valuemax>
										<value>0</value>
										<keyframe>
											<when>0</when>
											<value>0</value>
											<speedvirtualkf>TRUE</speedvirtualkf>
											<speedkfin>TRUE</speedkfin>
										</keyframe>
										<keyframe>
											<when>9</when>
											<value>6</value>
											<speedvirtualkf>TRUE</speedvirtualkf>
											<speedkfout>TRUE</speedkfout>
										</keyframe>
										<interpolation>
											<name>FCPCurve</name>
										</interpolation>
									</parameter>
								</effect>
							</filter>
							<marker>
								<comment></comment>
								<name></name>
								<in>6</in>
								<out>-1</out>
							</marker>
						<link>
							<linkclipref>clipitem-345</linkclipref>
							<mediatype>audio</mediatype>
							<trackindex>13</trackindex>
							<clipindex>4</clipindex>
							<groupindex>1</groupindex>
						</link>
						<link>
							<linkclipref>clipitem-389</linkclipref>
							<mediatype>audio</mediatype>
							<trackindex>14</trackindex>
							<clipindex>3</clipindex>
							<groupindex>1</groupindex>
						</link>
						<logginginfo>
							<description></description>
							<scene></scene>
							<shottake></shottake>
							<lognote></lognote>
						</logginginfo>
						<labels>
							<label2>Caribbean</label2>
						</labels>
					</clipitem>
					<clipitem id="clipitem-346" premiereChannelType="stereo">
						<masterclipid>masterclip-101</masterclipid>
						<name>169867__halgrimm__swoosh.wav</name>
						<enabled>TRUE</enabled>
						<duration>57</duration>
						<rate>
							<timebase>25</timebase>
							<ntsc>FALSE</ntsc>
						</rate>
						<start>927</start>
						<end>982</end>
						<in>0</in>
						<out>55</out>
						<pproTicksIn>0</pproTicksIn>
						<pproTicksOut>558835200000</pproTicksOut>
						<file id="file-95">
							<name>169867__halgrimm__swoosh.wav</name>
							<pathurl>file://localhost/Volumes/Bingen/Prosjekter/MYNT194016%20WHATS%20COOKING/Lydeffekter/Jan%20Lydeffekter/Woosh/169867__halgrimm__swoosh.wav</pathurl>
							<rate>
								<timebase>30</timebase>
								<ntsc>TRUE</ntsc>
							</rate>
							<duration>69</duration>
							<timecode>
								<rate>
									<timebase>30</timebase>
									<ntsc>TRUE</ntsc>
								</rate>
								<string>00;00;00;00</string>
								<frame>0</frame>
								<displayformat>DF</displayformat>
								<reel>
									<name></name>
								</reel>
							</timecode>
							<media>
								<audio>
									<samplecharacteristics>
										<depth>16</depth>
										<samplerate>48000</samplerate>
									</samplecharacteristics>
									<channelcount>2</channelcount>
								</audio>
							</media>
						</file>
						<sourcetrack>
							<mediatype>audio</mediatype>
							<trackindex>1</trackindex>
						</sourcetrack>
							<filter>
								<effect>
									<name>Gain</name>
									<effectid>{61756678, 4761696e, 4b657947}</effectid>
									<effecttype>filter</effecttype>
									<mediatype>audio</mediatype>
									<parameter authoringApp="PremierePro">
										<parameterid>Gain(dB)</parameterid>
										<name>Gain(dB)</name>
										<valuemin>-96</valuemin>
										<valuemax>96</valuemax>
										<value>-10</value>
									</parameter>
								</effect>
							</filter>
						<link>
							<linkclipref>clipitem-346</linkclipref>
							<mediatype>audio</mediatype>
							<trackindex>13</trackindex>
							<clipindex>5</clipindex>
							<groupindex>1</groupindex>
						</link>
						<link>
							<linkclipref>clipitem-390</linkclipref>
							<mediatype>audio</mediatype>
							<trackindex>14</trackindex>
							<clipindex>4</clipindex>
							<groupindex>1</groupindex>
						</link>
						<logginginfo>
							<description></description>
							<scene></scene>
							<shottake></shottake>
							<lognote></lognote>
						</logginginfo>
						<labels>
							<label2>Caribbean</label2>
						</labels>
					</clipitem>
					<clipitem id="clipitem-347" premiereChannelType="stereo">
						<masterclipid>masterclip-102</masterclipid>
						<name>NONRE642004HD0012 Every Step Every Way.wav</name>
						<enabled>TRUE</enabled>
						<duration>5373</duration>
						<rate>
							<timebase>25</timebase>
							<ntsc>FALSE</ntsc>
						</rate>
						<start>3757</start>
						<end>-1</end>
						<in>913</in>
						<out>1212</out>
						<pproTicksIn>9276664320000</pproTicksIn>
						<pproTicksOut>12314695680000</pproTicksOut>
						<file id="file-96">
							<name>NONRE642004HD0012 Every Step Every Way.wav</name>
							<pathurl>file://localhost/Volumes/Bingen/Prosjekter/MYNT194016%20WHATS%20COOKING/Musikk/Jan/DMA/NONRE642004HD0012%20Every%20Step%20Every%20Way.wav</pathurl>
							<rate>
								<timebase>30</timebase>
								<ntsc>TRUE</ntsc>
							</rate>
							<duration>6441</duration>
							<timecode>
								<rate>
									<timebase>30</timebase>
									<ntsc>TRUE</ntsc>
								</rate>
								<string>00;00;00;00</string>
								<frame>0</frame>
								<displayformat>DF</displayformat>
								<reel>
									<name></name>
								</reel>
							</timecode>
							<media>
								<audio>
									<samplecharacteristics>
										<depth>16</depth>
										<samplerate>48000</samplerate>
									</samplecharacteristics>
									<channelcount>2</channelcount>
								</audio>
							</media>
						</file>
						<sourcetrack>
							<mediatype>audio</mediatype>
							<trackindex>1</trackindex>
						</sourcetrack>
							<filter>
								<effect>
									<name>Gain</name>
									<effectid>{61756678, 4761696e, 4b657947}</effectid>
									<effecttype>filter</effecttype>
									<mediatype>audio</mediatype>
									<parameter authoringApp="PremierePro">
										<parameterid>Gain(dB)</parameterid>
										<name>Gain(dB)</name>
										<valuemin>-96</valuemin>
										<valuemax>96</valuemax>
										<value>-10</value>
									</parameter>
								</effect>
							</filter>
						<link>
							<linkclipref>clipitem-347</linkclipref>
							<mediatype>audio</mediatype>
							<trackindex>13</trackindex>
							<clipindex>6</clipindex>
							<groupindex>1</groupindex>
						</link>
						<link>
							<linkclipref>clipitem-391</linkclipref>
							<mediatype>audio</mediatype>
							<trackindex>14</trackindex>
							<clipindex>5</clipindex>
							<groupindex>1</groupindex>
						</link>
						<logginginfo>
							<description></description>
							<scene></scene>
							<shottake></shottake>
							<lognote></lognote>
						</logginginfo>
						<labels>
							<label2>Rose</label2>
						</labels>
					</clipitem>
					<transitionitem>
						<start>4009</start>
						<end>4056</end>
						<alignment>center</alignment>
						<cutPointTicks>233694720000</cutPointTicks>
						<rate>
							<timebase>25</timebase>
							<ntsc>FALSE</ntsc>
						</rate>
						<effect>
							<name>Cross Fade (+3dB)</name>
							<effectid>KGAudioTransCrossFade3dB</effectid>
							<effecttype>transition</effecttype>
							<mediatype>audio</mediatype>
							<wipecode>0</wipecode>
							<wipeaccuracy>100</wipeaccuracy>
							<startratio>0</startratio>
							<endratio>1</endratio>
							<reverse>FALSE</reverse>
						</effect>
					</transitionitem>
					<clipitem id="clipitem-348" premiereChannelType="stereo">
						<masterclipid>masterclip-102</masterclipid>
						<name>NONRE642004HD0012 Every Step Every Way.wav</name>
						<enabled>TRUE</enabled>
						<duration>5373</duration>
						<rate>
							<timebase>25</timebase>
							<ntsc>FALSE</ntsc>
						</rate>
						<start>-1</start>
						<end>-1</end>
						<in>1165</in>
						<out>1385</out>
						<pproTicksIn>11837145600000</pproTicksIn>
						<pproTicksOut>14072486400000</pproTicksOut>
						<file id="file-96"/>
						<sourcetrack>
							<mediatype>audio</mediatype>
							<trackindex>1</trackindex>
						</sourcetrack>
							<filter>
								<effect>
									<name>Gain</name>
									<effectid>{61756678, 4761696e, 4b657947}</effectid>
									<effecttype>filter</effecttype>
									<mediatype>audio</mediatype>
									<parameter authoringApp="PremierePro">
										<parameterid>Gain(dB)</parameterid>
										<name>Gain(dB)</name>
										<valuemin>-96</valuemin>
										<valuemax>96</valuemax>
										<value>-21</value>
									</parameter>
								</effect>
							</filter>
						<link>
							<linkclipref>clipitem-348</linkclipref>
							<mediatype>audio</mediatype>
							<trackindex>13</trackindex>
							<clipindex>8</clipindex>
							<groupindex>1</groupindex>
						</link>
						<link>
							<linkclipref>clipitem-392</linkclipref>
							<mediatype>audio</mediatype>
							<trackindex>14</trackindex>
							<clipindex>7</clipindex>
							<groupindex>1</groupindex>
						</link>
						<logginginfo>
							<description></description>
							<scene></scene>
							<shottake></shottake>
							<lognote></lognote>
						</logginginfo>
						<labels>
							<label2>Rose</label2>
						</labels>
					</clipitem>
					<transitionitem>
						<start>4079</start>
						<end>4229</end>
						<alignment>end-black</alignment>
						<cutPointTicks>1524096000000</cutPointTicks>
						<rate>
							<timebase>25</timebase>
							<ntsc>FALSE</ntsc>
						</rate>
						<effect>
							<name>Cross Fade (+3dB)</name>
							<effectid>KGAudioTransCrossFade3dB</effectid>
							<effecttype>transition</effecttype>
							<mediatype>audio</mediatype>
							<wipecode>0</wipecode>
							<wipeaccuracy>100</wipeaccuracy>
							<startratio>0</startratio>
							<endratio>1</endratio>
							<reverse>FALSE</reverse>
						</effect>
					</transitionitem>
					<clipitem id="clipitem-349" premiereChannelType="stereo">
						<masterclipid>masterclip-103</masterclipid>
						<name>PN8CD_1028_17_Tiny_Tango_Cassman_Scott_927030.wav</name>
						<enabled>TRUE</enabled>
						<duration>2607</duration>
						<rate>
							<timebase>25</timebase>
							<ntsc>FALSE</ntsc>
						</rate>
						<start>7271</start>
						<end>-1</end>
						<in>0</in>
						<out>364</out>
						<pproTicksIn>0</pproTicksIn>
						<pproTicksOut>3698472960000</pproTicksOut>
						<file id="file-97">
							<name>PN8CD_1028_17_Tiny_Tango_Cassman_Scott_927030.wav</name>
							<pathurl>file://localhost/Volumes/Bingen/Prosjekter/MYNT194016%20WHATS%20COOKING/Musikk/Stig/Universal/PN8CD_1028_17_Tiny_Tango_Cassman_Scott_927030.wav</pathurl>
							<rate>
								<timebase>30</timebase>
								<ntsc>TRUE</ntsc>
							</rate>
							<duration>3126</duration>
							<timecode>
								<rate>
									<timebase>30</timebase>
									<ntsc>TRUE</ntsc>
								</rate>
								<string>00;00;00;05</string>
								<frame>5</frame>
								<displayformat>DF</displayformat>
								<reel>
									<name></name>
								</reel>
							</timecode>
							<media>
								<audio>
									<samplecharacteristics>
										<depth>16</depth>
										<samplerate>44100</samplerate>
									</samplecharacteristics>
									<channelcount>2</channelcount>
								</audio>
							</media>
						</file>
						<sourcetrack>
							<mediatype>audio</mediatype>
							<trackindex>1</trackindex>
						</sourcetrack>
							<filter>
								<effect>
									<name>Audio Levels</name>
									<effectid>audiolevels</effectid>
									<effectcategory>audiolevels</effectcategory>
									<effecttype>audiolevels</effecttype>
									<mediatype>audio</mediatype>
									<parameter authoringApp="PremierePro">
										<parameterid>level</parameterid>
										<name>Level</name>
										<valuemin>0</valuemin>
										<valuemax>3.98109</valuemax>
										<value>0.241129</value>
									</parameter>
								</effect>
							</filter>
						<link>
							<linkclipref>clipitem-349</linkclipref>
							<mediatype>audio</mediatype>
							<trackindex>13</trackindex>
							<clipindex>10</clipindex>
							<groupindex>1</groupindex>
						</link>
						<link>
							<linkclipref>clipitem-393</linkclipref>
							<mediatype>audio</mediatype>
							<trackindex>14</trackindex>
							<clipindex>9</clipindex>
							<groupindex>1</groupindex>
						</link>
						<logginginfo>
							<description></description>
							<scene></scene>
							<shottake></shottake>
							<lognote></lognote>
						</logginginfo>
						<labels>
							<label2>Caribbean</label2>
						</labels>
					</clipitem>
					<transitionitem>
						<start>7595</start>
						<end>7635</end>
						<alignment>end-black</alignment>
						<cutPointTicks>406425600000</cutPointTicks>
						<rate>
							<timebase>25</timebase>
							<ntsc>FALSE</ntsc>
						</rate>
						<effect>
							<name>Cross Fade (+3dB)</name>
							<effectid>KGAudioTransCrossFade3dB</effectid>
							<effecttype>transition</effecttype>
							<mediatype>audio</mediatype>
							<wipecode>0</wipecode>
							<wipeaccuracy>100</wipeaccuracy>
							<startratio>0</startratio>
							<endratio>1</endratio>
							<reverse>FALSE</reverse>
						</effect>
					</transitionitem>
					<clipitem id="clipitem-350" premiereChannelType="stereo">
						<masterclipid>masterclip-104</masterclipid>
						<name>BTV_162_6_Best_Foot_Forward_Bradley_Sanchez_925597.wav</name>
						<enabled>TRUE</enabled>
						<duration>3393</duration>
						<rate>
							<timebase>25</timebase>
							<ntsc>FALSE</ntsc>
						</rate>
						<start>8802</start>
						<end>-1</end>
						<in>414</in>
						<out>749</out>
						<pproTicksIn>4206504960000</pproTicksIn>
						<pproTicksOut>7610319360000</pproTicksOut>
						<file id="file-98">
							<name>BTV_162_6_Best_Foot_Forward_Bradley_Sanchez_925597.wav</name>
							<pathurl>file://localhost/Volumes/Bingen/Prosjekter/MYNT194016%20WHATS%20COOKING/Musikk/Stig/Universal/BTV_162_6_Best_Foot_Forward_Bradley_Sanchez_925597.wav</pathurl>
							<rate>
								<timebase>30</timebase>
								<ntsc>TRUE</ntsc>
							</rate>
							<duration>4068</duration>
							<timecode>
								<rate>
									<timebase>30</timebase>
									<ntsc>TRUE</ntsc>
								</rate>
								<string>01;00;00;00</string>
								<frame>107892</frame>
								<displayformat>DF</displayformat>
								<reel>
									<name></name>
								</reel>
							</timecode>
							<media>
								<audio>
									<samplecharacteristics>
										<depth>16</depth>
										<samplerate>44100</samplerate>
									</samplecharacteristics>
									<channelcount>2</channelcount>
								</audio>
							</media>
						</file>
						<sourcetrack>
							<mediatype>audio</mediatype>
							<trackindex>1</trackindex>
						</sourcetrack>
							<filter>
								<effect>
									<name>Gain</name>
									<effectid>{61756678, 4761696e, 4b657947}</effectid>
									<effecttype>filter</effecttype>
									<mediatype>audio</mediatype>
									<parameter authoringApp="PremierePro">
										<parameterid>Gain(dB)</parameterid>
										<name>Gain(dB)</name>
										<valuemin>-96</valuemin>
										<valuemax>96</valuemax>
										<value>-3</value>
									</parameter>
								</effect>
							</filter>
							<filter>
								<effect>
									<name>Audio Levels</name>
									<effectid>audiolevels</effectid>
									<effectcategory>audiolevels</effectcategory>
									<effecttype>audiolevels</effecttype>
									<mediatype>audio</mediatype>
									<parameter authoringApp="PremierePro">
										<parameterid>level</parameterid>
										<name>Level</name>
										<valuemin>0</valuemin>
										<valuemax>3.98109</valuemax>
										<value>0.38685</value>
									</parameter>
								</effect>
							</filter>
						<link>
							<linkclipref>clipitem-350</linkclipref>
							<mediatype>audio</mediatype>
							<trackindex>13</trackindex>
							<clipindex>12</clipindex>
							<groupindex>1</groupindex>
						</link>
						<link>
							<linkclipref>clipitem-394</linkclipref>
							<mediatype>audio</mediatype>
							<trackindex>14</trackindex>
							<clipindex>11</clipindex>
							<groupindex>1</groupindex>
						</link>
						<logginginfo>
							<description></description>
							<scene></scene>
							<shottake></shottake>
							<lognote></lognote>
						</logginginfo>
						<labels>
							<label2>Caribbean</label2>
						</labels>
					</clipitem>
					<transitionitem>
						<start>9124</start>
						<end>9137</end>
						<alignment>end-black</alignment>
						<cutPointTicks>132088320000</cutPointTicks>
						<rate>
							<timebase>25</timebase>
							<ntsc>FALSE</ntsc>
						</rate>
						<effect>
							<name>Cross Fade (+3dB)</name>
							<effectid>KGAudioTransCrossFade3dB</effectid>
							<effecttype>transition</effecttype>
							<mediatype>audio</mediatype>
							<wipecode>0</wipecode>
							<wipeaccuracy>100</wipeaccuracy>
							<startratio>0</startratio>
							<endratio>1</endratio>
							<reverse>FALSE</reverse>
						</effect>
					</transitionitem>
					<transitionitem>
						<start>9786</start>
						<end>9840</end>
						<alignment>start-black</alignment>
						<cutPointTicks>0</cutPointTicks>
						<rate>
							<timebase>25</timebase>
							<ntsc>FALSE</ntsc>
						</rate>
						<effect>
							<name>Cross Fade (+3dB)</name>
							<effectid>KGAudioTransCrossFade3dB</effectid>
							<effecttype>transition</effecttype>
							<mediatype>audio</mediatype>
							<wipecode>0</wipecode>
							<wipeaccuracy>100</wipeaccuracy>
							<startratio>0</startratio>
							<endratio>1</endratio>
							<reverse>FALSE</reverse>
						</effect>
					</transitionitem>
					<clipitem id="clipitem-351" premiereChannelType="stereo">
						<masterclipid>masterclip-103</masterclipid>
						<name>PN8CD_1028_17_Tiny_Tango_Cassman_Scott_927030.wav</name>
						<enabled>TRUE</enabled>
						<duration>2607</duration>
						<rate>
							<timebase>25</timebase>
							<ntsc>FALSE</ntsc>
						</rate>
						<start>-1</start>
						<end>10092</end>
						<in>1470</in>
						<out>1776</out>
						<pproTicksIn>14936140800000</pproTicksIn>
						<pproTicksOut>18045296640000</pproTicksOut>
						<file id="file-97"/>
						<sourcetrack>
							<mediatype>audio</mediatype>
							<trackindex>1</trackindex>
						</sourcetrack>
							<filter>
								<effect>
									<name>Audio Levels</name>
									<effectid>audiolevels</effectid>
									<effectcategory>audiolevels</effectcategory>
									<effecttype>audiolevels</effecttype>
									<mediatype>audio</mediatype>
									<parameter authoringApp="PremierePro">
										<parameterid>level</parameterid>
										<name>Level</name>
										<valuemin>0</valuemin>
										<valuemax>3.98109</valuemax>
										<value>0.493081</value>
									</parameter>
								</effect>
							</filter>
						<link>
							<linkclipref>clipitem-351</linkclipref>
							<mediatype>audio</mediatype>
							<trackindex>13</trackindex>
							<clipindex>15</clipindex>
							<groupindex>1</groupindex>
						</link>
						<link>
							<linkclipref>clipitem-395</linkclipref>
							<mediatype>audio</mediatype>
							<trackindex>14</trackindex>
							<clipindex>14</clipindex>
							<groupindex>1</groupindex>
						</link>
						<logginginfo>
							<description></description>
							<scene></scene>
							<shottake></shottake>
							<lognote></lognote>
						</logginginfo>
						<labels>
							<label2>Caribbean</label2>
						</labels>
					</clipitem>
					<transitionitem>
						<start>10200</start>
						<end>10213</end>
						<alignment>start-black</alignment>
						<cutPointTicks>0</cutPointTicks>
						<rate>
							<timebase>25</timebase>
							<ntsc>FALSE</ntsc>
						</rate>
						<effect>
							<name>Cross Fade (+3dB)</name>
							<effectid>KGAudioTransCrossFade3dB</effectid>
							<effecttype>transition</effecttype>
							<mediatype>audio</mediatype>
							<wipecode>0</wipecode>
							<wipeaccuracy>100</wipeaccuracy>
							<startratio>0</startratio>
							<endratio>1</endratio>
							<reverse>FALSE</reverse>
						</effect>
					</transitionitem>
					<clipitem id="clipitem-352" premiereChannelType="stereo">
						<masterclipid>masterclip-103</masterclipid>
						<name>PN8CD_1028_17_Tiny_Tango_Cassman_Scott_927030.wav</name>
						<enabled>TRUE</enabled>
						<duration>2607</duration>
						<rate>
							<timebase>25</timebase>
							<ntsc>FALSE</ntsc>
						</rate>
						<start>-1</start>
						<end>10296</end>
						<in>1778</in>
						<out>1874</out>
						<pproTicksIn>18065617920000</pproTicksIn>
						<pproTicksOut>19041039360000</pproTicksOut>
						<file id="file-97"/>
						<sourcetrack>
							<mediatype>audio</mediatype>
							<trackindex>1</trackindex>
						</sourcetrack>
						<link>
							<linkclipref>clipitem-352</linkclipref>
							<mediatype>audio</mediatype>
							<trackindex>13</trackindex>
							<clipindex>17</clipindex>
							<groupindex>1</groupindex>
						</link>
						<link>
							<linkclipref>clipitem-396</linkclipref>
							<mediatype>audio</mediatype>
							<trackindex>14</trackindex>
							<clipindex>16</clipindex>
							<groupindex>1</groupindex>
						</link>
						<logginginfo>
							<description></description>
							<scene></scene>
							<shottake></shottake>
							<lognote></lognote>
						</logginginfo>
						<labels>
							<label2>Caribbean</label2>
						</labels>
					</clipitem>
					<transitionitem>
						<start>10743</start>
						<end>10747</end>
						<alignment>start-black</alignment>
						<cutPointTicks>0</cutPointTicks>
						<rate>
							<timebase>25</timebase>
							<ntsc>FALSE</ntsc>
						</rate>
						<effect>
							<name>Cross Fade (+3dB)</name>
							<effectid>KGAudioTransCrossFade3dB</effectid>
							<effecttype>transition</effecttype>
							<mediatype>audio</mediatype>
							<wipecode>0</wipecode>
							<wipeaccuracy>100</wipeaccuracy>
							<startratio>0</startratio>
							<endratio>1</endratio>
							<reverse>FALSE</reverse>
						</effect>
					</transitionitem>
					<clipitem id="clipitem-353" premiereChannelType="stereo">
						<masterclipid>masterclip-103</masterclipid>
						<name>PN8CD_1028_17_Tiny_Tango_Cassman_Scott_927030.wav</name>
						<enabled>TRUE</enabled>
						<duration>2607</duration>
						<rate>
							<timebase>25</timebase>
							<ntsc>FALSE</ntsc>
						</rate>
						<start>-1</start>
						<end>10799</end>
						<in>2462</in>
						<out>2518</out>
						<pproTicksIn>25015495680000</pproTicksIn>
						<pproTicksOut>25584491520000</pproTicksOut>
						<file id="file-97"/>
						<sourcetrack>
							<mediatype>audio</mediatype>
							<trackindex>1</trackindex>
						</sourcetrack>
							<filter>
								<effect>
									<name>Audio Levels</name>
									<effectid>audiolevels</effectid>
									<effectcategory>audiolevels</effectcategory>
									<effecttype>audiolevels</effecttype>
									<mediatype>audio</mediatype>
									<parameter authoringApp="PremierePro">
										<parameterid>level</parameterid>
										<name>Level</name>
										<valuemin>0</valuemin>
										<valuemax>3.98109</valuemax>
										<value>0.973103</value>
										<keyframe>
											<when>2338</when>
											<value>0.343021</value>
										</keyframe>
										<keyframe>
											<when>2416</when>
											<value>0.973103</value>
										</keyframe>
									</parameter>
								</effect>
							</filter>
						<link>
							<linkclipref>clipitem-353</linkclipref>
							<mediatype>audio</mediatype>
							<trackindex>13</trackindex>
							<clipindex>19</clipindex>
							<groupindex>1</groupindex>
						</link>
						<link>
							<linkclipref>clipitem-397</linkclipref>
							<mediatype>audio</mediatype>
							<trackindex>14</trackindex>
							<clipindex>18</clipindex>
							<groupindex>1</groupindex>
						</link>
						<logginginfo>
							<description></description>
							<scene></scene>
							<shottake></shottake>
							<lognote></lognote>
						</logginginfo>
						<labels>
							<label2>Caribbean</label2>
						</labels>
					</clipitem>
					<clipitem id="clipitem-354" premiereChannelType="stereo">
						<masterclipid>masterclip-103</masterclipid>
						<name>PN8CD_1028_17_Tiny_Tango_Cassman_Scott_927030.wav</name>
						<enabled>TRUE</enabled>
						<duration>2607</duration>
						<rate>
							<timebase>25</timebase>
							<ntsc>FALSE</ntsc>
						</rate>
						<start>10799</start>
						<end>-1</end>
						<in>2518</in>
						<out>2564</out>
						<pproTicksIn>25584491520000</pproTicksIn>
						<pproTicksOut>26051880960000</pproTicksOut>
						<file id="file-97"/>
						<sourcetrack>
							<mediatype>audio</mediatype>
							<trackindex>1</trackindex>
						</sourcetrack>
							<filter>
								<effect>
									<name>Audio Levels</name>
									<effectid>audiolevels</effectid>
									<effectcategory>audiolevels</effectcategory>
									<effecttype>audiolevels</effecttype>
									<mediatype>audio</mediatype>
									<parameter authoringApp="PremierePro">
										<parameterid>level</parameterid>
										<name>Level</name>
										<valuemin>0</valuemin>
										<valuemax>3.98109</valuemax>
										<value>0.973103</value>
										<keyframe>
											<when>2338</when>
											<value>0.343021</value>
										</keyframe>
										<keyframe>
											<when>2416</when>
											<value>0.973103</value>
										</keyframe>
									</parameter>
								</effect>
							</filter>
						<link>
							<linkclipref>clipitem-354</linkclipref>
							<mediatype>audio</mediatype>
							<trackindex>13</trackindex>
							<clipindex>20</clipindex>
							<groupindex>1</groupindex>
						</link>
						<link>
							<linkclipref>clipitem-398</linkclipref>
							<mediatype>audio</mediatype>
							<trackindex>14</trackindex>
							<clipindex>19</clipindex>
							<groupindex>1</groupindex>
						</link>
						<logginginfo>
							<description></description>
							<scene></scene>
							<shottake></shottake>
							<lognote></lognote>
						</logginginfo>
						<labels>
							<label2>Caribbean</label2>
						</labels>
					</clipitem>
					<transitionitem>
						<start>10821</start>
						<end>10845</end>
						<alignment>end-black</alignment>
						<cutPointTicks>243855360000</cutPointTicks>
						<rate>
							<timebase>25</timebase>
							<ntsc>FALSE</ntsc>
						</rate>
						<effect>
							<name>Cross Fade (+3dB)</name>
							<effectid>KGAudioTransCrossFade3dB</effectid>
							<effecttype>transition</effecttype>
							<mediatype>audio</mediatype>
							<wipecode>0</wipecode>
							<wipeaccuracy>100</wipeaccuracy>
							<startratio>0</startratio>
							<endratio>1</endratio>
							<reverse>FALSE</reverse>
						</effect>
					</transitionitem>
					<clipitem id="clipitem-355" premiereChannelType="stereo">
						<masterclipid>masterclip-105</masterclipid>
						<name>STFTA_1_175_Don_t_Take_Me_Down_Hart_Williams_762667.wav</name>
						<enabled>TRUE</enabled>
						<duration>2919</duration>
						<rate>
							<timebase>25</timebase>
							<ntsc>FALSE</ntsc>
						</rate>
						<start>11043</start>
						<end>-1</end>
						<in>0</in>
						<out>147</out>
						<pproTicksIn>0</pproTicksIn>
						<pproTicksOut>1493614080000</pproTicksOut>
						<file id="file-99">
							<name>STFTA_1_175_Don_t_Take_Me_Down_Hart_Williams_762667.wav</name>
							<pathurl>file://localhost/Volumes/Bingen/Prosjekter/MYNT194016%20WHATS%20COOKING/Musikk/Jan/Universal/Instr%20bakgrunn%20Univ/STFTA_1_175_Don_t_Take_Me_Down_Hart_Williams_762667.wav</pathurl>
							<rate>
								<timebase>30</timebase>
								<ntsc>TRUE</ntsc>
							</rate>
							<duration>3500</duration>
							<timecode>
								<rate>
									<timebase>30</timebase>
									<ntsc>TRUE</ntsc>
								</rate>
								<string>00;00;00;00</string>
								<frame>0</frame>
								<displayformat>DF</displayformat>
								<reel>
									<name></name>
								</reel>
							</timecode>
							<media>
								<audio>
									<samplecharacteristics>
										<depth>16</depth>
										<samplerate>44100</samplerate>
									</samplecharacteristics>
									<channelcount>2</channelcount>
								</audio>
							</media>
						</file>
						<sourcetrack>
							<mediatype>audio</mediatype>
							<trackindex>1</trackindex>
						</sourcetrack>
							<filter>
								<effect>
									<name>Gain</name>
									<effectid>{61756678, 4761696e, 4b657947}</effectid>
									<effecttype>filter</effecttype>
									<mediatype>audio</mediatype>
									<parameter authoringApp="PremierePro">
										<parameterid>Gain(dB)</parameterid>
										<name>Gain(dB)</name>
										<valuemin>-96</valuemin>
										<valuemax>96</valuemax>
										<value>-17</value>
									</parameter>
								</effect>
							</filter>
						<link>
							<linkclipref>clipitem-355</linkclipref>
							<mediatype>audio</mediatype>
							<trackindex>13</trackindex>
							<clipindex>22</clipindex>
							<groupindex>1</groupindex>
						</link>
						<link>
							<linkclipref>clipitem-399</linkclipref>
							<mediatype>audio</mediatype>
							<trackindex>14</trackindex>
							<clipindex>21</clipindex>
							<groupindex>1</groupindex>
						</link>
						<logginginfo>
							<description></description>
							<scene></scene>
							<shottake></shottake>
							<lognote></lognote>
						</logginginfo>
						<labels>
							<label2>Lavender</label2>
						</labels>
					</clipitem>
					<transitionitem>
						<start>11043</start>
						<end>11190</end>
						<alignment>center</alignment>
						<cutPointTicks>579156480000</cutPointTicks>
						<rate>
							<timebase>25</timebase>
							<ntsc>FALSE</ntsc>
						</rate>
						<effect>
							<name>Cross Fade (+3dB)</name>
							<effectid>KGAudioTransCrossFade3dB</effectid>
							<effecttype>transition</effecttype>
							<mediatype>audio</mediatype>
							<wipecode>0</wipecode>
							<wipeaccuracy>100</wipeaccuracy>
							<startratio>0</startratio>
							<endratio>1</endratio>
							<reverse>FALSE</reverse>
						</effect>
					</transitionitem>
					<clipitem id="clipitem-356" premiereChannelType="stereo">
						<masterclipid>masterclip-105</masterclipid>
						<name>STFTA_1_175_Don_t_Take_Me_Down_Hart_Williams_762667.wav</name>
						<enabled>TRUE</enabled>
						<duration>2919</duration>
						<rate>
							<timebase>25</timebase>
							<ntsc>FALSE</ntsc>
						</rate>
						<start>-1</start>
						<end>-1</end>
						<in>0</in>
						<out>2067</out>
						<pproTicksIn>0</pproTicksIn>
						<pproTicksOut>21002042880000</pproTicksOut>
						<file id="file-99"/>
						<sourcetrack>
							<mediatype>audio</mediatype>
							<trackindex>1</trackindex>
						</sourcetrack>
							<filter>
								<effect>
									<name>Gain</name>
									<effectid>{61756678, 4761696e, 4b657947}</effectid>
									<effecttype>filter</effecttype>
									<mediatype>audio</mediatype>
									<parameter authoringApp="PremierePro">
										<parameterid>Gain(dB)</parameterid>
										<name>Gain(dB)</name>
										<valuemin>-96</valuemin>
										<valuemax>96</valuemax>
										<value>-27</value>
									</parameter>
								</effect>
							</filter>
						<link>
							<linkclipref>clipitem-356</linkclipref>
							<mediatype>audio</mediatype>
							<trackindex>13</trackindex>
							<clipindex>24</clipindex>
							<groupindex>1</groupindex>
						</link>
						<link>
							<linkclipref>clipitem-400</linkclipref>
							<mediatype>audio</mediatype>
							<trackindex>14</trackindex>
							<clipindex>23</clipindex>
							<groupindex>1</groupindex>
						</link>
						<logginginfo>
							<description></description>
							<scene></scene>
							<shottake></shottake>
							<lognote></lognote>
						</logginginfo>
						<labels>
							<label2>Lavender</label2>
						</labels>
					</clipitem>
					<transitionitem>
						<start>13024</start>
						<end>13110</end>
						<alignment>end-black</alignment>
						<cutPointTicks>873815040000</cutPointTicks>
						<rate>
							<timebase>25</timebase>
							<ntsc>FALSE</ntsc>
						</rate>
						<effect>
							<name>Cross Fade (+3dB)</name>
							<effectid>KGAudioTransCrossFade3dB</effectid>
							<effecttype>transition</effecttype>
							<mediatype>audio</mediatype>
							<wipecode>0</wipecode>
							<wipeaccuracy>100</wipeaccuracy>
							<startratio>0</startratio>
							<endratio>1</endratio>
							<reverse>FALSE</reverse>
						</effect>
					</transitionitem>
					<transitionitem>
						<start>14616</start>
						<end>14629</end>
						<alignment>start-black</alignment>
						<cutPointTicks>0</cutPointTicks>
						<rate>
							<timebase>25</timebase>
							<ntsc>FALSE</ntsc>
						</rate>
						<effect>
							<name>Cross Fade (+3dB)</name>
							<effectid>KGAudioTransCrossFade3dB</effectid>
							<effecttype>transition</effecttype>
							<mediatype>audio</mediatype>
							<wipecode>0</wipecode>
							<wipeaccuracy>100</wipeaccuracy>
							<startratio>0</startratio>
							<endratio>1</endratio>
							<reverse>FALSE</reverse>
						</effect>
					</transitionitem>
					<clipitem id="clipitem-357" premiereChannelType="mono">
						<masterclipid>masterclip-75</masterclipid>
						<name>backstage-T03-Multicam</name>
						<enabled>TRUE</enabled>
						<duration>100318</duration>
						<rate>
							<timebase>25</timebase>
							<ntsc>FALSE</ntsc>
						</rate>
						<start>-1</start>
						<end>14813</end>
						<in>8820</in>
						<out>9017</out>
						<pproTicksIn>89616844800000</pproTicksIn>
						<pproTicksOut>91618490880000</pproTicksOut>
						<sequence id="sequence-7"/>
							<filter>
								<effect>
									<name>Gain</name>
									<effectid>{61756678, 4761696e, 4b657947}</effectid>
									<effecttype>filter</effecttype>
									<mediatype>audio</mediatype>
									<parameter authoringApp="PremierePro">
										<parameterid>Gain(dB)</parameterid>
										<name>Gain(dB)</name>
										<valuemin>-96</valuemin>
										<valuemax>96</valuemax>
										<value>6</value>
									</parameter>
								</effect>
							</filter>
						<link>
							<linkclipref>clipitem-218</linkclipref>
							<mediatype>audio</mediatype>
							<trackindex>9</trackindex>
							<clipindex>11</clipindex>
							<groupindex>1</groupindex>
						</link>
						<link>
							<linkclipref>clipitem-297</linkclipref>
							<mediatype>audio</mediatype>
							<trackindex>11</trackindex>
							<clipindex>25</clipindex>
							<groupindex>1</groupindex>
						</link>
						<link>
							<linkclipref>clipitem-357</linkclipref>
							<mediatype>audio</mediatype>
							<trackindex>13</trackindex>
							<clipindex>27</clipindex>
							<groupindex>1</groupindex>
						</link>
						<link>
							<linkclipref>clipitem-438</linkclipref>
							<mediatype>audio</mediatype>
							<trackindex>15</trackindex>
							<clipindex>14</clipindex>
							<groupindex>1</groupindex>
						</link>
						<link>
							<linkclipref>clipitem-487</linkclipref>
							<mediatype>audio</mediatype>
							<trackindex>17</trackindex>
							<clipindex>10</clipindex>
							<groupindex>1</groupindex>
						</link>
						<labels>
							<label2>Forest</label2>
						</labels>
					</clipitem>
					<transitionitem>
						<start>16408</start>
						<end>16419</end>
						<alignment>start-black</alignment>
						<cutPointTicks>0</cutPointTicks>
						<rate>
							<timebase>25</timebase>
							<ntsc>FALSE</ntsc>
						</rate>
						<effect>
							<name>Cross Fade (+3dB)</name>
							<effectid>KGAudioTransCrossFade3dB</effectid>
							<effecttype>transition</effecttype>
							<mediatype>audio</mediatype>
							<wipecode>0</wipecode>
							<wipeaccuracy>100</wipeaccuracy>
							<startratio>0</startratio>
							<endratio>1</endratio>
							<reverse>FALSE</reverse>
						</effect>
					</transitionitem>
					<clipitem id="clipitem-358" premiereChannelType="mono">
						<masterclipid>masterclip-95</masterclipid>
						<name>00064.mov Copy 01</name>
						<enabled>TRUE</enabled>
						<duration>272233</duration>
						<rate>
							<timebase>25</timebase>
							<ntsc>FALSE</ntsc>
						</rate>
						<start>-1</start>
						<end>16419</end>
						<in>213086</in>
						<out>213097</out>
						<pproTicksIn>2165090135040000</pproTicksIn>
						<pproTicksOut>2165201902080000</pproTicksOut>
						<file id="file-89"/>
						<sourcetrack>
							<mediatype>audio</mediatype>
							<trackindex>2</trackindex>
						</sourcetrack>
						<link>
							<linkclipref>clipitem-298</linkclipref>
							<mediatype>audio</mediatype>
							<trackindex>11</trackindex>
							<clipindex>27</clipindex>
							<groupindex>1</groupindex>
						</link>
						<link>
							<linkclipref>clipitem-358</linkclipref>
							<mediatype>audio</mediatype>
							<trackindex>13</trackindex>
							<clipindex>29</clipindex>
							<groupindex>1</groupindex>
						</link>
						<logginginfo>
							<description></description>
							<scene></scene>
							<shottake></shottake>
							<lognote></lognote>
						</logginginfo>
						<labels>
							<label2>Iris</label2>
						</labels>
					</clipitem>
					<clipitem id="clipitem-359" premiereChannelType="mono">
						<masterclipid>masterclip-95</masterclipid>
						<name>00064.mov Copy 01</name>
						<enabled>TRUE</enabled>
						<duration>272233</duration>
						<rate>
							<timebase>25</timebase>
							<ntsc>FALSE</ntsc>
						</rate>
						<start>16419</start>
						<end>16527</end>
						<in>213146</in>
						<out>213254</out>
						<pproTicksIn>2165699773440000</pproTicksIn>
						<pproTicksOut>2166797122560000</pproTicksOut>
						<file id="file-89"/>
						<sourcetrack>
							<mediatype>audio</mediatype>
							<trackindex>2</trackindex>
						</sourcetrack>
							<filter>
								<effect>
									<name>Audio Levels</name>
									<effectid>audiolevels</effectid>
									<effectcategory>audiolevels</effectcategory>
									<effecttype>audiolevels</effecttype>
									<mediatype>audio</mediatype>
									<parameter authoringApp="PremierePro">
										<parameterid>level</parameterid>
										<name>Level</name>
										<valuemin>0</valuemin>
										<valuemax>3.98109</valuemax>
										<value>0.499999</value>
									</parameter>
								</effect>
							</filter>
						<link>
							<linkclipref>clipitem-299</linkclipref>
							<mediatype>audio</mediatype>
							<trackindex>11</trackindex>
							<clipindex>28</clipindex>
							<groupindex>1</groupindex>
						</link>
						<link>
							<linkclipref>clipitem-359</linkclipref>
							<mediatype>audio</mediatype>
							<trackindex>13</trackindex>
							<clipindex>30</clipindex>
							<groupindex>1</groupindex>
						</link>
						<logginginfo>
							<description></description>
							<scene></scene>
							<shottake></shottake>
							<lognote></lognote>
						</logginginfo>
						<labels>
							<label2>Iris</label2>
						</labels>
					</clipitem>
					<clipitem id="clipitem-360" premiereChannelType="mono">
						<masterclipid>masterclip-79</masterclipid>
						<name>backstage-T01-Multicam</name>
						<enabled>TRUE</enabled>
						<duration>59983</duration>
						<rate>
							<timebase>25</timebase>
							<ntsc>FALSE</ntsc>
						</rate>
						<start>17354</start>
						<end>17424</end>
						<in>20272</in>
						<out>20342</out>
						<pproTicksIn>205976494080000</pproTicksIn>
						<pproTicksOut>206687738880000</pproTicksOut>
						<sequence id="sequence-8"/>
							<filter>
								<effect>
									<name>Audio Levels</name>
									<effectid>audiolevels</effectid>
									<effectcategory>audiolevels</effectcategory>
									<effecttype>audiolevels</effecttype>
									<mediatype>audio</mediatype>
									<parameter authoringApp="PremierePro">
										<parameterid>level</parameterid>
										<name>Level</name>
										<valuemin>0</valuemin>
										<valuemax>3.98109</valuemax>
										<value>0.125594</value>
									</parameter>
								</effect>
							</filter>
						<labels>
							<label2>Forest</label2>
						</labels>
					</clipitem>
					<clipitem id="clipitem-361" premiereChannelType="mono">
						<masterclipid>masterclip-79</masterclipid>
						<name>backstage-T01-Multicam</name>
						<enabled>TRUE</enabled>
						<duration>59983</duration>
						<rate>
							<timebase>25</timebase>
							<ntsc>FALSE</ntsc>
						</rate>
						<start>17424</start>
						<end>17473</end>
						<in>20367</in>
						<out>20416</out>
						<pproTicksIn>206941754880000</pproTicksIn>
						<pproTicksOut>207439626240000</pproTicksOut>
						<sequence id="sequence-8"/>
							<filter>
								<effect>
									<name>Audio Levels</name>
									<effectid>audiolevels</effectid>
									<effectcategory>audiolevels</effectcategory>
									<effecttype>audiolevels</effecttype>
									<mediatype>audio</mediatype>
									<parameter authoringApp="PremierePro">
										<parameterid>level</parameterid>
										<name>Level</name>
										<valuemin>0</valuemin>
										<valuemax>3.98109</valuemax>
										<value>0.125594</value>
									</parameter>
								</effect>
							</filter>
						<labels>
							<label2>Forest</label2>
						</labels>
					</clipitem>
					<transitionitem>
						<start>17813</start>
						<end>17886</end>
						<alignment>start-black</alignment>
						<cutPointTicks>0</cutPointTicks>
						<rate>
							<timebase>25</timebase>
							<ntsc>FALSE</ntsc>
						</rate>
						<effect>
							<name>Cross Fade (+3dB)</name>
							<effectid>KGAudioTransCrossFade3dB</effectid>
							<effecttype>transition</effecttype>
							<mediatype>audio</mediatype>
							<wipecode>0</wipecode>
							<wipeaccuracy>100</wipeaccuracy>
							<startratio>0</startratio>
							<endratio>1</endratio>
							<reverse>FALSE</reverse>
						</effect>
					</transitionitem>
					<clipitem id="clipitem-362" premiereChannelType="stereo">
						<masterclipid>masterclip-106</masterclipid>
						<name>NONRE606146HD0003 PMW (All I Really Need).wav</name>
						<enabled>TRUE</enabled>
						<duration>5869</duration>
						<rate>
							<timebase>25</timebase>
							<ntsc>FALSE</ntsc>
						</rate>
						<start>-1</start>
						<end>-1</end>
						<in>2120</in>
						<out>2206</out>
						<pproTicksIn>21540556800000</pproTicksIn>
						<pproTicksOut>22414371840000</pproTicksOut>
						<file id="file-100">
							<name>NONRE606146HD0003 PMW (All I Really Need).wav</name>
							<pathurl>file://localhost/Volumes/Bingen/Prosjekter/MYNT194016%20WHATS%20COOKING/Musikk/Jan/DMA/NONRE606146HD0003%20PMW%20(All%20I%20Really%20Need).wav</pathurl>
							<rate>
								<timebase>30</timebase>
								<ntsc>TRUE</ntsc>
							</rate>
							<duration>7036</duration>
							<timecode>
								<rate>
									<timebase>30</timebase>
									<ntsc>TRUE</ntsc>
								</rate>
								<string>00;00;00;00</string>
								<frame>0</frame>
								<displayformat>DF</displayformat>
								<reel>
									<name></name>
								</reel>
							</timecode>
							<media>
								<audio>
									<samplecharacteristics>
										<depth>16</depth>
										<samplerate>48000</samplerate>
									</samplecharacteristics>
									<channelcount>2</channelcount>
								</audio>
							</media>
						</file>
						<sourcetrack>
							<mediatype>audio</mediatype>
							<trackindex>1</trackindex>
						</sourcetrack>
							<filter>
								<effect>
									<name>Gain</name>
									<effectid>{61756678, 4761696e, 4b657947}</effectid>
									<effecttype>filter</effecttype>
									<mediatype>audio</mediatype>
									<parameter authoringApp="PremierePro">
										<parameterid>Gain(dB)</parameterid>
										<name>Gain(dB)</name>
										<valuemin>-96</valuemin>
										<valuemax>96</valuemax>
										<value>-27</value>
									</parameter>
								</effect>
							</filter>
						<link>
							<linkclipref>clipitem-362</linkclipref>
							<mediatype>audio</mediatype>
							<trackindex>13</trackindex>
							<clipindex>34</clipindex>
							<groupindex>1</groupindex>
						</link>
						<link>
							<linkclipref>clipitem-401</linkclipref>
							<mediatype>audio</mediatype>
							<trackindex>14</trackindex>
							<clipindex>26</clipindex>
							<groupindex>1</groupindex>
						</link>
						<logginginfo>
							<description></description>
							<scene></scene>
							<shottake></shottake>
							<lognote></lognote>
						</logginginfo>
						<labels>
							<label2>Rose</label2>
						</labels>
					</clipitem>
					<transitionitem>
						<start>17886</start>
						<end>17899</end>
						<alignment>center</alignment>
						<cutPointTicks>60963840000</cutPointTicks>
						<rate>
							<timebase>25</timebase>
							<ntsc>FALSE</ntsc>
						</rate>
						<effect>
							<name>Cross Fade (+3dB)</name>
							<effectid>KGAudioTransCrossFade3dB</effectid>
							<effecttype>transition</effecttype>
							<mediatype>audio</mediatype>
							<wipecode>0</wipecode>
							<wipeaccuracy>100</wipeaccuracy>
							<startratio>0</startratio>
							<endratio>1</endratio>
							<reverse>FALSE</reverse>
						</effect>
					</transitionitem>
					<clipitem id="clipitem-363" premiereChannelType="stereo">
						<masterclipid>masterclip-106</masterclipid>
						<name>NONRE606146HD0003 PMW (All I Really Need).wav</name>
						<enabled>TRUE</enabled>
						<duration>5869</duration>
						<rate>
							<timebase>25</timebase>
							<ntsc>FALSE</ntsc>
						</rate>
						<start>-1</start>
						<end>-1</end>
						<in>2193</in>
						<out>2430</out>
						<pproTicksIn>22282283520000</pproTicksIn>
						<pproTicksOut>24690355200000</pproTicksOut>
						<file id="file-100"/>
						<sourcetrack>
							<mediatype>audio</mediatype>
							<trackindex>1</trackindex>
						</sourcetrack>
							<filter>
								<effect>
									<name>Gain</name>
									<effectid>{61756678, 4761696e, 4b657947}</effectid>
									<effecttype>filter</effecttype>
									<mediatype>audio</mediatype>
									<parameter authoringApp="PremierePro">
										<parameterid>Gain(dB)</parameterid>
										<name>Gain(dB)</name>
										<valuemin>-96</valuemin>
										<valuemax>96</valuemax>
										<value>-18</value>
									</parameter>
								</effect>
							</filter>
						<link>
							<linkclipref>clipitem-363</linkclipref>
							<mediatype>audio</mediatype>
							<trackindex>13</trackindex>
							<clipindex>36</clipindex>
							<groupindex>1</groupindex>
						</link>
						<link>
							<linkclipref>clipitem-402</linkclipref>
							<mediatype>audio</mediatype>
							<trackindex>14</trackindex>
							<clipindex>28</clipindex>
							<groupindex>1</groupindex>
						</link>
						<logginginfo>
							<description></description>
							<scene></scene>
							<shottake></shottake>
							<lognote></lognote>
						</logginginfo>
						<labels>
							<label2>Rose</label2>
						</labels>
					</clipitem>
					<transitionitem>
						<start>18084</start>
						<end>18123</end>
						<alignment>center</alignment>
						<cutPointTicks>193052160000</cutPointTicks>
						<rate>
							<timebase>25</timebase>
							<ntsc>FALSE</ntsc>
						</rate>
						<effect>
							<name>Cross Fade (+3dB)</name>
							<effectid>KGAudioTransCrossFade3dB</effectid>
							<effecttype>transition</effecttype>
							<mediatype>audio</mediatype>
							<wipecode>0</wipecode>
							<wipeaccuracy>100</wipeaccuracy>
							<startratio>0</startratio>
							<endratio>1</endratio>
							<reverse>FALSE</reverse>
						</effect>
					</transitionitem>
					<clipitem id="clipitem-364" premiereChannelType="stereo">
						<masterclipid>masterclip-106</masterclipid>
						<name>NONRE606146HD0003 PMW (All I Really Need).wav</name>
						<enabled>TRUE</enabled>
						<duration>5869</duration>
						<rate>
							<timebase>25</timebase>
							<ntsc>FALSE</ntsc>
						</rate>
						<start>-1</start>
						<end>-1</end>
						<in>2391</in>
						<out>2949</out>
						<pproTicksIn>24294090240000</pproTicksIn>
						<pproTicksOut>29963727360000</pproTicksOut>
						<file id="file-100"/>
						<sourcetrack>
							<mediatype>audio</mediatype>
							<trackindex>1</trackindex>
						</sourcetrack>
							<filter>
								<effect>
									<name>Gain</name>
									<effectid>{61756678, 4761696e, 4b657947}</effectid>
									<effecttype>filter</effecttype>
									<mediatype>audio</mediatype>
									<parameter authoringApp="PremierePro">
										<parameterid>Gain(dB)</parameterid>
										<name>Gain(dB)</name>
										<valuemin>-96</valuemin>
										<valuemax>96</valuemax>
										<value>-26</value>
									</parameter>
								</effect>
							</filter>
						<link>
							<linkclipref>clipitem-364</linkclipref>
							<mediatype>audio</mediatype>
							<trackindex>13</trackindex>
							<clipindex>38</clipindex>
							<groupindex>1</groupindex>
						</link>
						<link>
							<linkclipref>clipitem-403</linkclipref>
							<mediatype>audio</mediatype>
							<trackindex>14</trackindex>
							<clipindex>30</clipindex>
							<groupindex>1</groupindex>
						</link>
						<logginginfo>
							<description></description>
							<scene></scene>
							<shottake></shottake>
							<lognote></lognote>
						</logginginfo>
						<labels>
							<label2>Rose</label2>
						</labels>
					</clipitem>
					<transitionitem>
						<start>18596</start>
						<end>18642</end>
						<alignment>end-black</alignment>
						<cutPointTicks>467389440000</cutPointTicks>
						<rate>
							<timebase>25</timebase>
							<ntsc>FALSE</ntsc>
						</rate>
						<effect>
							<name>Cross Fade (+3dB)</name>
							<effectid>KGAudioTransCrossFade3dB</effectid>
							<effecttype>transition</effecttype>
							<mediatype>audio</mediatype>
							<wipecode>0</wipecode>
							<wipeaccuracy>100</wipeaccuracy>
							<startratio>0</startratio>
							<endratio>1</endratio>
							<reverse>FALSE</reverse>
						</effect>
					</transitionitem>
					<clipitem id="clipitem-365" premiereChannelType="stereo">
						<masterclipid>masterclip-107</masterclipid>
						<name>328212__creativesoundeffects__woosh-3.wav</name>
						<enabled>TRUE</enabled>
						<duration>25</duration>
						<rate>
							<timebase>25</timebase>
							<ntsc>FALSE</ntsc>
						</rate>
						<start>18952</start>
						<end>18977</end>
						<in>0</in>
						<out>25</out>
						<pproTicksIn>0</pproTicksIn>
						<pproTicksOut>254016000000</pproTicksOut>
						<file id="file-101">
							<name>328212__creativesoundeffects__woosh-3.wav</name>
							<pathurl>file://localhost/Volumes/Bingen/Prosjekter/MYNT194016%20WHATS%20COOKING/Lydeffekter/Jan%20Lydeffekter/Woosh/328212__creativesoundeffects__woosh-3.wav</pathurl>
							<rate>
								<timebase>30</timebase>
								<ntsc>TRUE</ntsc>
							</rate>
							<duration>29</duration>
							<timecode>
								<rate>
									<timebase>30</timebase>
									<ntsc>TRUE</ntsc>
								</rate>
								<string>00;00;00;00</string>
								<frame>0</frame>
								<displayformat>DF</displayformat>
								<reel>
									<name></name>
								</reel>
							</timecode>
							<media>
								<audio>
									<samplecharacteristics>
										<depth>16</depth>
										<samplerate>48000</samplerate>
									</samplecharacteristics>
									<channelcount>2</channelcount>
								</audio>
							</media>
						</file>
						<sourcetrack>
							<mediatype>audio</mediatype>
							<trackindex>1</trackindex>
						</sourcetrack>
							<filter>
								<effect>
									<name>Gain</name>
									<effectid>{61756678, 4761696e, 4b657947}</effectid>
									<effecttype>filter</effecttype>
									<mediatype>audio</mediatype>
									<parameter authoringApp="PremierePro">
										<parameterid>Gain(dB)</parameterid>
										<name>Gain(dB)</name>
										<valuemin>-96</valuemin>
										<valuemax>96</valuemax>
										<value>-5</value>
									</parameter>
								</effect>
							</filter>
						<link>
							<linkclipref>clipitem-365</linkclipref>
							<mediatype>audio</mediatype>
							<trackindex>13</trackindex>
							<clipindex>40</clipindex>
							<groupindex>1</groupindex>
						</link>
						<link>
							<linkclipref>clipitem-404</linkclipref>
							<mediatype>audio</mediatype>
							<trackindex>14</trackindex>
							<clipindex>32</clipindex>
							<groupindex>1</groupindex>
						</link>
						<logginginfo>
							<description></description>
							<scene></scene>
							<shottake></shottake>
							<lognote></lognote>
						</logginginfo>
						<labels>
							<label2>Caribbean</label2>
						</labels>
					</clipitem>
					<clipitem id="clipitem-366" premiereChannelType="stereo">
						<masterclipid>masterclip-108</masterclipid>
						<name>319606__vehicle__paralyzer-discharge-01.wav</name>
						<enabled>TRUE</enabled>
						<duration>22</duration>
						<rate>
							<timebase>25</timebase>
							<ntsc>FALSE</ntsc>
						</rate>
						<start>22904</start>
						<end>22926</end>
						<in>0</in>
						<out>22</out>
						<pproTicksIn>0</pproTicksIn>
						<pproTicksOut>223534080000</pproTicksOut>
						<file id="file-102">
							<name>319606__vehicle__paralyzer-discharge-01.wav</name>
							<pathurl>file://localhost/Volumes/Bingen/Prosjekter/MYNT194016%20WHATS%20COOKING/Lydeffekter/Marita%20SoundFX/Elektrisk/319606__vehicle__paralyzer-discharge-01.wav</pathurl>
							<rate>
								<timebase>30</timebase>
								<ntsc>TRUE</ntsc>
							</rate>
							<duration>27</duration>
							<timecode>
								<rate>
									<timebase>30</timebase>
									<ntsc>TRUE</ntsc>
								</rate>
								<string>00;00;00;00</string>
								<frame>0</frame>
								<displayformat>DF</displayformat>
								<reel>
									<name></name>
								</reel>
							</timecode>
							<media>
								<audio>
									<samplecharacteristics>
										<depth>16</depth>
										<samplerate>48000</samplerate>
									</samplecharacteristics>
									<channelcount>2</channelcount>
								</audio>
							</media>
						</file>
						<sourcetrack>
							<mediatype>audio</mediatype>
							<trackindex>1</trackindex>
						</sourcetrack>
							<filter>
								<effect>
									<name>Gain</name>
									<effectid>{61756678, 4761696e, 4b657947}</effectid>
									<effecttype>filter</effecttype>
									<mediatype>audio</mediatype>
									<parameter authoringApp="PremierePro">
										<parameterid>Gain(dB)</parameterid>
										<name>Gain(dB)</name>
										<valuemin>-96</valuemin>
										<valuemax>96</valuemax>
										<value>-9</value>
									</parameter>
								</effect>
							</filter>
						<link>
							<linkclipref>clipitem-366</linkclipref>
							<mediatype>audio</mediatype>
							<trackindex>13</trackindex>
							<clipindex>41</clipindex>
							<groupindex>1</groupindex>
						</link>
						<link>
							<linkclipref>clipitem-405</linkclipref>
							<mediatype>audio</mediatype>
							<trackindex>14</trackindex>
							<clipindex>33</clipindex>
							<groupindex>1</groupindex>
						</link>
						<logginginfo>
							<description></description>
							<scene></scene>
							<shottake></shottake>
							<lognote></lognote>
						</logginginfo>
						<labels>
							<label2>Caribbean</label2>
						</labels>
					</clipitem>
					<clipitem id="clipitem-367" premiereChannelType="stereo">
						<masterclipid>masterclip-108</masterclipid>
						<name>319606__vehicle__paralyzer-discharge-01.wav</name>
						<enabled>TRUE</enabled>
						<duration>22</duration>
						<rate>
							<timebase>25</timebase>
							<ntsc>FALSE</ntsc>
						</rate>
						<start>22963</start>
						<end>22985</end>
						<in>0</in>
						<out>22</out>
						<pproTicksIn>0</pproTicksIn>
						<pproTicksOut>223534080000</pproTicksOut>
						<file id="file-102"/>
						<sourcetrack>
							<mediatype>audio</mediatype>
							<trackindex>1</trackindex>
						</sourcetrack>
							<filter>
								<effect>
									<name>Gain</name>
									<effectid>{61756678, 4761696e, 4b657947}</effectid>
									<effecttype>filter</effecttype>
									<mediatype>audio</mediatype>
									<parameter authoringApp="PremierePro">
										<parameterid>Gain(dB)</parameterid>
										<name>Gain(dB)</name>
										<valuemin>-96</valuemin>
										<valuemax>96</valuemax>
										<value>-9</value>
									</parameter>
								</effect>
							</filter>
						<link>
							<linkclipref>clipitem-367</linkclipref>
							<mediatype>audio</mediatype>
							<trackindex>13</trackindex>
							<clipindex>42</clipindex>
							<groupindex>1</groupindex>
						</link>
						<link>
							<linkclipref>clipitem-406</linkclipref>
							<mediatype>audio</mediatype>
							<trackindex>14</trackindex>
							<clipindex>34</clipindex>
							<groupindex>1</groupindex>
						</link>
						<logginginfo>
							<description></description>
							<scene></scene>
							<shottake></shottake>
							<lognote></lognote>
						</logginginfo>
						<labels>
							<label2>Caribbean</label2>
						</labels>
					</clipitem>
					<transitionitem>
						<start>23156</start>
						<end>23165</end>
						<alignment>start-black</alignment>
						<cutPointTicks>0</cutPointTicks>
						<rate>
							<timebase>25</timebase>
							<ntsc>FALSE</ntsc>
						</rate>
						<effect>
							<name>Cross Fade (+3dB)</name>
							<effectid>KGAudioTransCrossFade3dB</effectid>
							<effecttype>transition</effecttype>
							<mediatype>audio</mediatype>
							<wipecode>0</wipecode>
							<wipeaccuracy>100</wipeaccuracy>
							<startratio>0</startratio>
							<endratio>1</endratio>
							<reverse>FALSE</reverse>
						</effect>
					</transitionitem>
					<clipitem id="clipitem-368" premiereChannelType="stereo">
						<masterclipid>masterclip-109</masterclipid>
						<name>160612__primeval-polypod__door-slam.wav</name>
						<enabled>TRUE</enabled>
						<duration>51</duration>
						<rate>
							<timebase>25</timebase>
							<ntsc>FALSE</ntsc>
						</rate>
						<start>-1</start>
						<end>-1</end>
						<in>0</in>
						<out>18</out>
						<pproTicksIn>0</pproTicksIn>
						<pproTicksOut>182891520000</pproTicksOut>
						<file id="file-103">
							<name>160612__primeval-polypod__door-slam.wav</name>
							<pathurl>file://localhost/Volumes/Bingen/Prosjekter/MYNT194016%20WHATS%20COOKING/Lydeffekter/Marita%20SoundFX/Bangs/160612__primeval-polypod__door-slam.wav</pathurl>
							<rate>
								<timebase>30</timebase>
								<ntsc>TRUE</ntsc>
							</rate>
							<duration>61</duration>
							<timecode>
								<rate>
									<timebase>30</timebase>
									<ntsc>TRUE</ntsc>
								</rate>
								<string>00;00;00;00</string>
								<frame>0</frame>
								<displayformat>DF</displayformat>
								<reel>
									<name></name>
								</reel>
							</timecode>
							<media>
								<audio>
									<samplecharacteristics>
										<depth>16</depth>
										<samplerate>48000</samplerate>
									</samplecharacteristics>
									<channelcount>2</channelcount>
								</audio>
							</media>
						</file>
						<sourcetrack>
							<mediatype>audio</mediatype>
							<trackindex>1</trackindex>
						</sourcetrack>
							<filter>
								<effect>
									<name>Gain</name>
									<effectid>{61756678, 4761696e, 4b657947}</effectid>
									<effecttype>filter</effecttype>
									<mediatype>audio</mediatype>
									<parameter authoringApp="PremierePro">
										<parameterid>Gain(dB)</parameterid>
										<name>Gain(dB)</name>
										<valuemin>-96</valuemin>
										<valuemax>96</valuemax>
										<value>-18</value>
									</parameter>
								</effect>
							</filter>
						<link>
							<linkclipref>clipitem-368</linkclipref>
							<mediatype>audio</mediatype>
							<trackindex>13</trackindex>
							<clipindex>44</clipindex>
							<groupindex>1</groupindex>
						</link>
						<link>
							<linkclipref>clipitem-407</linkclipref>
							<mediatype>audio</mediatype>
							<trackindex>14</trackindex>
							<clipindex>36</clipindex>
							<groupindex>1</groupindex>
						</link>
						<logginginfo>
							<description></description>
							<scene></scene>
							<shottake></shottake>
							<lognote></lognote>
						</logginginfo>
						<labels>
							<label2>Caribbean</label2>
						</labels>
					</clipitem>
					<transitionitem>
						<start>23165</start>
						<end>23174</end>
						<alignment>start</alignment>
						<cutPointTicks>0</cutPointTicks>
						<rate>
							<timebase>25</timebase>
							<ntsc>FALSE</ntsc>
						</rate>
						<effect>
							<name>Cross Fade (+3dB)</name>
							<effectid>KGAudioTransCrossFade3dB</effectid>
							<effecttype>transition</effecttype>
							<mediatype>audio</mediatype>
							<wipecode>0</wipecode>
							<wipeaccuracy>100</wipeaccuracy>
							<startratio>0</startratio>
							<endratio>1</endratio>
							<reverse>FALSE</reverse>
						</effect>
					</transitionitem>
					<clipitem id="clipitem-369" premiereChannelType="stereo">
						<masterclipid>masterclip-109</masterclipid>
						<name>160612__primeval-polypod__door-slam.wav</name>
						<enabled>TRUE</enabled>
						<duration>51</duration>
						<rate>
							<timebase>25</timebase>
							<ntsc>FALSE</ntsc>
						</rate>
						<start>-1</start>
						<end>-1</end>
						<in>0</in>
						<out>18</out>
						<pproTicksIn>0</pproTicksIn>
						<pproTicksOut>182891520000</pproTicksOut>
						<file id="file-103"/>
						<sourcetrack>
							<mediatype>audio</mediatype>
							<trackindex>1</trackindex>
						</sourcetrack>
							<filter>
								<effect>
									<name>Gain</name>
									<effectid>{61756678, 4761696e, 4b657947}</effectid>
									<effecttype>filter</effecttype>
									<mediatype>audio</mediatype>
									<parameter authoringApp="PremierePro">
										<parameterid>Gain(dB)</parameterid>
										<name>Gain(dB)</name>
										<valuemin>-96</valuemin>
										<valuemax>96</valuemax>
										<value>-18</value>
									</parameter>
								</effect>
							</filter>
						<link>
							<linkclipref>clipitem-369</linkclipref>
							<mediatype>audio</mediatype>
							<trackindex>13</trackindex>
							<clipindex>46</clipindex>
							<groupindex>1</groupindex>
						</link>
						<link>
							<linkclipref>clipitem-408</linkclipref>
							<mediatype>audio</mediatype>
							<trackindex>14</trackindex>
							<clipindex>38</clipindex>
							<groupindex>1</groupindex>
						</link>
						<logginginfo>
							<description></description>
							<scene></scene>
							<shottake></shottake>
							<lognote></lognote>
						</logginginfo>
						<labels>
							<label2>Caribbean</label2>
						</labels>
					</clipitem>
					<transitionitem>
						<start>23174</start>
						<end>23183</end>
						<alignment>start</alignment>
						<cutPointTicks>0</cutPointTicks>
						<rate>
							<timebase>25</timebase>
							<ntsc>FALSE</ntsc>
						</rate>
						<effect>
							<name>Cross Fade (+3dB)</name>
							<effectid>KGAudioTransCrossFade3dB</effectid>
							<effecttype>transition</effecttype>
							<mediatype>audio</mediatype>
							<wipecode>0</wipecode>
							<wipeaccuracy>100</wipeaccuracy>
							<startratio>0</startratio>
							<endratio>1</endratio>
							<reverse>FALSE</reverse>
						</effect>
					</transitionitem>
					<clipitem id="clipitem-370" premiereChannelType="stereo">
						<masterclipid>masterclip-109</masterclipid>
						<name>160612__primeval-polypod__door-slam.wav</name>
						<enabled>TRUE</enabled>
						<duration>51</duration>
						<rate>
							<timebase>25</timebase>
							<ntsc>FALSE</ntsc>
						</rate>
						<start>-1</start>
						<end>-1</end>
						<in>0</in>
						<out>18</out>
						<pproTicksIn>0</pproTicksIn>
						<pproTicksOut>182891520000</pproTicksOut>
						<file id="file-103"/>
						<sourcetrack>
							<mediatype>audio</mediatype>
							<trackindex>1</trackindex>
						</sourcetrack>
							<filter>
								<effect>
									<name>Gain</name>
									<effectid>{61756678, 4761696e, 4b657947}</effectid>
									<effecttype>filter</effecttype>
									<mediatype>audio</mediatype>
									<parameter authoringApp="PremierePro">
										<parameterid>Gain(dB)</parameterid>
										<name>Gain(dB)</name>
										<valuemin>-96</valuemin>
										<valuemax>96</valuemax>
										<value>-18</value>
									</parameter>
								</effect>
							</filter>
						<link>
							<linkclipref>clipitem-370</linkclipref>
							<mediatype>audio</mediatype>
							<trackindex>13</trackindex>
							<clipindex>48</clipindex>
							<groupindex>1</groupindex>
						</link>
						<link>
							<linkclipref>clipitem-409</linkclipref>
							<mediatype>audio</mediatype>
							<trackindex>14</trackindex>
							<clipindex>40</clipindex>
							<groupindex>1</groupindex>
						</link>
						<logginginfo>
							<description></description>
							<scene></scene>
							<shottake></shottake>
							<lognote></lognote>
						</logginginfo>
						<labels>
							<label2>Caribbean</label2>
						</labels>
					</clipitem>
					<transitionitem>
						<start>23183</start>
						<end>23192</end>
						<alignment>start</alignment>
						<cutPointTicks>0</cutPointTicks>
						<rate>
							<timebase>25</timebase>
							<ntsc>FALSE</ntsc>
						</rate>
						<effect>
							<name>Cross Fade (+3dB)</name>
							<effectid>KGAudioTransCrossFade3dB</effectid>
							<effecttype>transition</effecttype>
							<mediatype>audio</mediatype>
							<wipecode>0</wipecode>
							<wipeaccuracy>100</wipeaccuracy>
							<startratio>0</startratio>
							<endratio>1</endratio>
							<reverse>FALSE</reverse>
						</effect>
					</transitionitem>
					<clipitem id="clipitem-371" premiereChannelType="stereo">
						<masterclipid>masterclip-109</masterclipid>
						<name>160612__primeval-polypod__door-slam.wav</name>
						<enabled>TRUE</enabled>
						<duration>51</duration>
						<rate>
							<timebase>25</timebase>
							<ntsc>FALSE</ntsc>
						</rate>
						<start>-1</start>
						<end>-1</end>
						<in>0</in>
						<out>18</out>
						<pproTicksIn>0</pproTicksIn>
						<pproTicksOut>182891520000</pproTicksOut>
						<file id="file-103"/>
						<sourcetrack>
							<mediatype>audio</mediatype>
							<trackindex>1</trackindex>
						</sourcetrack>
							<filter>
								<effect>
									<name>Gain</name>
									<effectid>{61756678, 4761696e, 4b657947}</effectid>
									<effecttype>filter</effecttype>
									<mediatype>audio</mediatype>
									<parameter authoringApp="PremierePro">
										<parameterid>Gain(dB)</parameterid>
										<name>Gain(dB)</name>
										<valuemin>-96</valuemin>
										<valuemax>96</valuemax>
										<value>-18</value>
									</parameter>
								</effect>
							</filter>
						<link>
							<linkclipref>clipitem-371</linkclipref>
							<mediatype>audio</mediatype>
							<trackindex>13</trackindex>
							<clipindex>50</clipindex>
							<groupindex>1</groupindex>
						</link>
						<link>
							<linkclipref>clipitem-410</linkclipref>
							<mediatype>audio</mediatype>
							<trackindex>14</trackindex>
							<clipindex>42</clipindex>
							<groupindex>1</groupindex>
						</link>
						<logginginfo>
							<description></description>
							<scene></scene>
							<shottake></shottake>
							<lognote></lognote>
						</logginginfo>
						<labels>
							<label2>Caribbean</label2>
						</labels>
					</clipitem>
					<transitionitem>
						<start>23192</start>
						<end>23201</end>
						<alignment>start</alignment>
						<cutPointTicks>0</cutPointTicks>
						<rate>
							<timebase>25</timebase>
							<ntsc>FALSE</ntsc>
						</rate>
						<effect>
							<name>Cross Fade (+3dB)</name>
							<effectid>KGAudioTransCrossFade3dB</effectid>
							<effecttype>transition</effecttype>
							<mediatype>audio</mediatype>
							<wipecode>0</wipecode>
							<wipeaccuracy>100</wipeaccuracy>
							<startratio>0</startratio>
							<endratio>1</endratio>
							<reverse>FALSE</reverse>
						</effect>
					</transitionitem>
					<clipitem id="clipitem-372" premiereChannelType="stereo">
						<masterclipid>masterclip-109</masterclipid>
						<name>160612__primeval-polypod__door-slam.wav</name>
						<enabled>TRUE</enabled>
						<duration>51</duration>
						<rate>
							<timebase>25</timebase>
							<ntsc>FALSE</ntsc>
						</rate>
						<start>-1</start>
						<end>-1</end>
						<in>0</in>
						<out>22</out>
						<pproTicksIn>0</pproTicksIn>
						<pproTicksOut>223534080000</pproTicksOut>
						<file id="file-103"/>
						<sourcetrack>
							<mediatype>audio</mediatype>
							<trackindex>1</trackindex>
						</sourcetrack>
							<filter>
								<effect>
									<name>Gain</name>
									<effectid>{61756678, 4761696e, 4b657947}</effectid>
									<effecttype>filter</effecttype>
									<mediatype>audio</mediatype>
									<parameter authoringApp="PremierePro">
										<parameterid>Gain(dB)</parameterid>
										<name>Gain(dB)</name>
										<valuemin>-96</valuemin>
										<valuemax>96</valuemax>
										<value>-18</value>
									</parameter>
								</effect>
							</filter>
						<link>
							<linkclipref>clipitem-372</linkclipref>
							<mediatype>audio</mediatype>
							<trackindex>13</trackindex>
							<clipindex>52</clipindex>
							<groupindex>1</groupindex>
						</link>
						<link>
							<linkclipref>clipitem-411</linkclipref>
							<mediatype>audio</mediatype>
							<trackindex>14</trackindex>
							<clipindex>44</clipindex>
							<groupindex>1</groupindex>
						</link>
						<logginginfo>
							<description></description>
							<scene></scene>
							<shottake></shottake>
							<lognote></lognote>
						</logginginfo>
						<labels>
							<label2>Caribbean</label2>
						</labels>
					</clipitem>
					<transitionitem>
						<start>23201</start>
						<end>23214</end>
						<alignment>start</alignment>
						<cutPointTicks>0</cutPointTicks>
						<rate>
							<timebase>25</timebase>
							<ntsc>FALSE</ntsc>
						</rate>
						<effect>
							<name>Cross Fade (+3dB)</name>
							<effectid>KGAudioTransCrossFade3dB</effectid>
							<effecttype>transition</effecttype>
							<mediatype>audio</mediatype>
							<wipecode>0</wipecode>
							<wipeaccuracy>100</wipeaccuracy>
							<startratio>0</startratio>
							<endratio>1</endratio>
							<reverse>FALSE</reverse>
						</effect>
					</transitionitem>
					<clipitem id="clipitem-373" premiereChannelType="stereo">
						<masterclipid>masterclip-109</masterclipid>
						<name>160612__primeval-polypod__door-slam.wav</name>
						<enabled>TRUE</enabled>
						<duration>51</duration>
						<rate>
							<timebase>25</timebase>
							<ntsc>FALSE</ntsc>
						</rate>
						<start>-1</start>
						<end>23252</end>
						<in>0</in>
						<out>51</out>
						<pproTicksIn>0</pproTicksIn>
						<pproTicksOut>518192640000</pproTicksOut>
						<file id="file-103"/>
						<sourcetrack>
							<mediatype>audio</mediatype>
							<trackindex>1</trackindex>
						</sourcetrack>
							<filter>
								<effect>
									<name>Gain</name>
									<effectid>{61756678, 4761696e, 4b657947}</effectid>
									<effecttype>filter</effecttype>
									<mediatype>audio</mediatype>
									<parameter authoringApp="PremierePro">
										<parameterid>Gain(dB)</parameterid>
										<name>Gain(dB)</name>
										<valuemin>-96</valuemin>
										<valuemax>96</valuemax>
										<value>-18</value>
									</parameter>
								</effect>
							</filter>
						<link>
							<linkclipref>clipitem-373</linkclipref>
							<mediatype>audio</mediatype>
							<trackindex>13</trackindex>
							<clipindex>54</clipindex>
							<groupindex>1</groupindex>
						</link>
						<link>
							<linkclipref>clipitem-412</linkclipref>
							<mediatype>audio</mediatype>
							<trackindex>14</trackindex>
							<clipindex>46</clipindex>
							<groupindex>1</groupindex>
						</link>
						<logginginfo>
							<description></description>
							<scene></scene>
							<shottake></shottake>
							<lognote></lognote>
						</logginginfo>
						<labels>
							<label2>Caribbean</label2>
						</labels>
					</clipitem>
					<clipitem id="clipitem-374" premiereChannelType="stereo">
						<masterclipid>masterclip-110</masterclipid>
						<name>STTV000723.wav</name>
						<enabled>TRUE</enabled>
						<duration>1627</duration>
						<rate>
							<timebase>25</timebase>
							<ntsc>FALSE</ntsc>
						</rate>
						<start>23366</start>
						<end>23470</end>
						<in>1446</in>
						<out>1550</out>
						<pproTicksIn>14692285440000</pproTicksIn>
						<pproTicksOut>15748992000000</pproTicksOut>
						<file id="file-104">
							<name>STTV000723.wav</name>
							<pathurl>file://localhost/Volumes/Bingen/Prosjekter/MYNT194016%20WHATS%20COOKING/Musikk/Marita/VB%20sverdduell/auxmp14608_41737/STTV000723.wav</pathurl>
							<rate>
								<timebase>30</timebase>
								<ntsc>TRUE</ntsc>
							</rate>
							<duration>1950</duration>
							<timecode>
								<rate>
									<timebase>30</timebase>
									<ntsc>TRUE</ntsc>
								</rate>
								<string>00;21;05;16</string>
								<frame>37928</frame>
								<displayformat>DF</displayformat>
								<reel>
									<name></name>
								</reel>
							</timecode>
							<media>
								<audio>
									<samplecharacteristics>
										<depth>16</depth>
										<samplerate>48000</samplerate>
									</samplecharacteristics>
									<channelcount>2</channelcount>
								</audio>
							</media>
						</file>
						<sourcetrack>
							<mediatype>audio</mediatype>
							<trackindex>1</trackindex>
						</sourcetrack>
							<filter>
								<effect>
									<name>Gain</name>
									<effectid>{61756678, 4761696e, 4b657947}</effectid>
									<effecttype>filter</effecttype>
									<mediatype>audio</mediatype>
									<parameter authoringApp="PremierePro">
										<parameterid>Gain(dB)</parameterid>
										<name>Gain(dB)</name>
										<valuemin>-96</valuemin>
										<valuemax>96</valuemax>
										<value>-18</value>
									</parameter>
								</effect>
							</filter>
						<link>
							<linkclipref>clipitem-374</linkclipref>
							<mediatype>audio</mediatype>
							<trackindex>13</trackindex>
							<clipindex>55</clipindex>
							<groupindex>1</groupindex>
						</link>
						<link>
							<linkclipref>clipitem-413</linkclipref>
							<mediatype>audio</mediatype>
							<trackindex>14</trackindex>
							<clipindex>47</clipindex>
							<groupindex>1</groupindex>
						</link>
						<logginginfo>
							<description></description>
							<scene></scene>
							<shottake></shottake>
							<lognote></lognote>
						</logginginfo>
						<labels>
							<label2>Caribbean</label2>
						</labels>
					</clipitem>
					<transitionitem>
						<start>23846</start>
						<end>23859</end>
						<alignment>start-black</alignment>
						<cutPointTicks>0</cutPointTicks>
						<rate>
							<timebase>25</timebase>
							<ntsc>FALSE</ntsc>
						</rate>
						<effect>
							<name>Cross Fade (+3dB)</name>
							<effectid>KGAudioTransCrossFade3dB</effectid>
							<effecttype>transition</effecttype>
							<mediatype>audio</mediatype>
							<wipecode>0</wipecode>
							<wipeaccuracy>100</wipeaccuracy>
							<startratio>0</startratio>
							<endratio>1</endratio>
							<reverse>FALSE</reverse>
						</effect>
					</transitionitem>
					<clipitem id="clipitem-375" premiereChannelType="stereo">
						<masterclipid>masterclip-110</masterclipid>
						<name>STTV000723.wav</name>
						<enabled>TRUE</enabled>
						<duration>1627</duration>
						<rate>
							<timebase>25</timebase>
							<ntsc>FALSE</ntsc>
						</rate>
						<start>-1</start>
						<end>-1</end>
						<in>243</in>
						<out>337</out>
						<pproTicksIn>2469035520000</pproTicksIn>
						<pproTicksOut>3424135680000</pproTicksOut>
						<file id="file-104"/>
						<sourcetrack>
							<mediatype>audio</mediatype>
							<trackindex>1</trackindex>
						</sourcetrack>
							<filter>
								<effect>
									<name>Gain</name>
									<effectid>{61756678, 4761696e, 4b657947}</effectid>
									<effecttype>filter</effecttype>
									<mediatype>audio</mediatype>
									<parameter authoringApp="PremierePro">
										<parameterid>Gain(dB)</parameterid>
										<name>Gain(dB)</name>
										<valuemin>-96</valuemin>
										<valuemax>96</valuemax>
										<value>-12</value>
									</parameter>
								</effect>
							</filter>
						<link>
							<linkclipref>clipitem-375</linkclipref>
							<mediatype>audio</mediatype>
							<trackindex>13</trackindex>
							<clipindex>57</clipindex>
							<groupindex>1</groupindex>
						</link>
						<link>
							<linkclipref>clipitem-414</linkclipref>
							<mediatype>audio</mediatype>
							<trackindex>14</trackindex>
							<clipindex>49</clipindex>
							<groupindex>1</groupindex>
						</link>
						<logginginfo>
							<description></description>
							<scene></scene>
							<shottake></shottake>
							<lognote></lognote>
						</logginginfo>
						<labels>
							<label2>Caribbean</label2>
						</labels>
					</clipitem>
					<transitionitem>
						<start>23934</start>
						<end>23940</end>
						<alignment>end</alignment>
						<cutPointTicks>60963840000</cutPointTicks>
						<rate>
							<timebase>25</timebase>
							<ntsc>FALSE</ntsc>
						</rate>
						<effect>
							<name>Cross Fade (+3dB)</name>
							<effectid>KGAudioTransCrossFade3dB</effectid>
							<effecttype>transition</effecttype>
							<mediatype>audio</mediatype>
							<wipecode>0</wipecode>
							<wipeaccuracy>100</wipeaccuracy>
							<startratio>0</startratio>
							<endratio>1</endratio>
							<reverse>FALSE</reverse>
						</effect>
					</transitionitem>
					<clipitem id="clipitem-376" premiereChannelType="stereo">
						<masterclipid>masterclip-110</masterclipid>
						<name>STTV000723.wav</name>
						<enabled>TRUE</enabled>
						<duration>1627</duration>
						<rate>
							<timebase>25</timebase>
							<ntsc>FALSE</ntsc>
						</rate>
						<start>-1</start>
						<end>-1</end>
						<in>331</in>
						<out>372</out>
						<pproTicksIn>3363171840000</pproTicksIn>
						<pproTicksOut>3779758080000</pproTicksOut>
						<file id="file-104"/>
						<sourcetrack>
							<mediatype>audio</mediatype>
							<trackindex>1</trackindex>
						</sourcetrack>
							<filter>
								<effect>
									<name>Gain</name>
									<effectid>{61756678, 4761696e, 4b657947}</effectid>
									<effecttype>filter</effecttype>
									<mediatype>audio</mediatype>
									<parameter authoringApp="PremierePro">
										<parameterid>Gain(dB)</parameterid>
										<name>Gain(dB)</name>
										<valuemin>-96</valuemin>
										<valuemax>96</valuemax>
										<value>-21</value>
									</parameter>
								</effect>
							</filter>
						<link>
							<linkclipref>clipitem-376</linkclipref>
							<mediatype>audio</mediatype>
							<trackindex>13</trackindex>
							<clipindex>59</clipindex>
							<groupindex>1</groupindex>
						</link>
						<link>
							<linkclipref>clipitem-415</linkclipref>
							<mediatype>audio</mediatype>
							<trackindex>14</trackindex>
							<clipindex>51</clipindex>
							<groupindex>1</groupindex>
						</link>
						<logginginfo>
							<description></description>
							<scene></scene>
							<shottake></shottake>
							<lognote></lognote>
						</logginginfo>
						<labels>
							<label2>Caribbean</label2>
						</labels>
					</clipitem>
					<transitionitem>
						<start>23940</start>
						<end>23975</end>
						<alignment>end-black</alignment>
						<cutPointTicks>355622400000</cutPointTicks>
						<rate>
							<timebase>25</timebase>
							<ntsc>FALSE</ntsc>
						</rate>
						<effect>
							<name>Cross Fade (+3dB)</name>
							<effectid>KGAudioTransCrossFade3dB</effectid>
							<effecttype>transition</effecttype>
							<mediatype>audio</mediatype>
							<wipecode>0</wipecode>
							<wipeaccuracy>100</wipeaccuracy>
							<startratio>0</startratio>
							<endratio>1</endratio>
							<reverse>FALSE</reverse>
						</effect>
					</transitionitem>
					<clipitem id="clipitem-377" premiereChannelType="stereo">
						<masterclipid>masterclip-98</masterclipid>
						<name>264779__anthonychan0__civilian-stun-gun-1-10s-zap.wav</name>
						<enabled>TRUE</enabled>
						<duration>10</duration>
						<rate>
							<timebase>25</timebase>
							<ntsc>FALSE</ntsc>
						</rate>
						<start>24302</start>
						<end>24309</end>
						<in>3</in>
						<out>10</out>
						<pproTicksIn>30481920000</pproTicksIn>
						<pproTicksOut>101606400000</pproTicksOut>
						<file id="file-92"/>
						<sourcetrack>
							<mediatype>audio</mediatype>
							<trackindex>1</trackindex>
						</sourcetrack>
							<filter>
								<effect>
									<name>Gain</name>
									<effectid>{61756678, 4761696e, 4b657947}</effectid>
									<effecttype>filter</effecttype>
									<mediatype>audio</mediatype>
									<parameter authoringApp="PremierePro">
										<parameterid>Gain(dB)</parameterid>
										<name>Gain(dB)</name>
										<valuemin>-96</valuemin>
										<valuemax>96</valuemax>
										<value>-9</value>
									</parameter>
								</effect>
							</filter>
						<link>
							<linkclipref>clipitem-377</linkclipref>
							<mediatype>audio</mediatype>
							<trackindex>13</trackindex>
							<clipindex>61</clipindex>
							<groupindex>1</groupindex>
						</link>
						<link>
							<linkclipref>clipitem-416</linkclipref>
							<mediatype>audio</mediatype>
							<trackindex>14</trackindex>
							<clipindex>53</clipindex>
							<groupindex>1</groupindex>
						</link>
						<logginginfo>
							<description></description>
							<scene></scene>
							<shottake></shottake>
							<lognote></lognote>
						</logginginfo>
						<labels>
							<label2>Caribbean</label2>
						</labels>
					</clipitem>
					<clipitem id="clipitem-378" premiereChannelType="stereo">
						<masterclipid>masterclip-98</masterclipid>
						<name>264779__anthonychan0__civilian-stun-gun-1-10s-zap.wav</name>
						<enabled>TRUE</enabled>
						<duration>10</duration>
						<rate>
							<timebase>25</timebase>
							<ntsc>FALSE</ntsc>
						</rate>
						<start>24644</start>
						<end>24651</end>
						<in>3</in>
						<out>10</out>
						<pproTicksIn>30481920000</pproTicksIn>
						<pproTicksOut>101606400000</pproTicksOut>
						<file id="file-92"/>
						<sourcetrack>
							<mediatype>audio</mediatype>
							<trackindex>1</trackindex>
						</sourcetrack>
							<filter>
								<effect>
									<name>Gain</name>
									<effectid>{61756678, 4761696e, 4b657947}</effectid>
									<effecttype>filter</effecttype>
									<mediatype>audio</mediatype>
									<parameter authoringApp="PremierePro">
										<parameterid>Gain(dB)</parameterid>
										<name>Gain(dB)</name>
										<valuemin>-96</valuemin>
										<valuemax>96</valuemax>
										<value>-9</value>
									</parameter>
								</effect>
							</filter>
						<link>
							<linkclipref>clipitem-378</linkclipref>
							<mediatype>audio</mediatype>
							<trackindex>13</trackindex>
							<clipindex>62</clipindex>
							<groupindex>1</groupindex>
						</link>
						<link>
							<linkclipref>clipitem-417</linkclipref>
							<mediatype>audio</mediatype>
							<trackindex>14</trackindex>
							<clipindex>54</clipindex>
							<groupindex>1</groupindex>
						</link>
						<logginginfo>
							<description></description>
							<scene></scene>
							<shottake></shottake>
							<lognote></lognote>
						</logginginfo>
						<labels>
							<label2>Caribbean</label2>
						</labels>
					</clipitem>
					<clipitem id="clipitem-379" premiereChannelType="stereo">
						<masterclipid>masterclip-98</masterclipid>
						<name>264779__anthonychan0__civilian-stun-gun-1-10s-zap.wav</name>
						<enabled>TRUE</enabled>
						<duration>10</duration>
						<rate>
							<timebase>25</timebase>
							<ntsc>FALSE</ntsc>
						</rate>
						<start>24866</start>
						<end>24873</end>
						<in>3</in>
						<out>10</out>
						<pproTicksIn>30481920000</pproTicksIn>
						<pproTicksOut>101606400000</pproTicksOut>
						<file id="file-92"/>
						<sourcetrack>
							<mediatype>audio</mediatype>
							<trackindex>1</trackindex>
						</sourcetrack>
							<filter>
								<effect>
									<name>Gain</name>
									<effectid>{61756678, 4761696e, 4b657947}</effectid>
									<effecttype>filter</effecttype>
									<mediatype>audio</mediatype>
									<parameter authoringApp="PremierePro">
										<parameterid>Gain(dB)</parameterid>
										<name>Gain(dB)</name>
										<valuemin>-96</valuemin>
										<valuemax>96</valuemax>
										<value>-12</value>
									</parameter>
								</effect>
							</filter>
						<link>
							<linkclipref>clipitem-379</linkclipref>
							<mediatype>audio</mediatype>
							<trackindex>13</trackindex>
							<clipindex>63</clipindex>
							<groupindex>1</groupindex>
						</link>
						<link>
							<linkclipref>clipitem-418</linkclipref>
							<mediatype>audio</mediatype>
							<trackindex>14</trackindex>
							<clipindex>55</clipindex>
							<groupindex>1</groupindex>
						</link>
						<logginginfo>
							<description></description>
							<scene></scene>
							<shottake></shottake>
							<lognote></lognote>
						</logginginfo>
						<labels>
							<label2>Caribbean</label2>
						</labels>
					</clipitem>
					<clipitem id="clipitem-380" premiereChannelType="stereo">
						<masterclipid>masterclip-98</masterclipid>
						<name>264779__anthonychan0__civilian-stun-gun-1-10s-zap.wav</name>
						<enabled>TRUE</enabled>
						<duration>10</duration>
						<rate>
							<timebase>25</timebase>
							<ntsc>FALSE</ntsc>
						</rate>
						<start>25028</start>
						<end>25035</end>
						<in>3</in>
						<out>10</out>
						<pproTicksIn>30481920000</pproTicksIn>
						<pproTicksOut>101606400000</pproTicksOut>
						<file id="file-92"/>
						<sourcetrack>
							<mediatype>audio</mediatype>
							<trackindex>1</trackindex>
						</sourcetrack>
							<filter>
								<effect>
									<name>Gain</name>
									<effectid>{61756678, 4761696e, 4b657947}</effectid>
									<effecttype>filter</effecttype>
									<mediatype>audio</mediatype>
									<parameter authoringApp="PremierePro">
										<parameterid>Gain(dB)</parameterid>
										<name>Gain(dB)</name>
										<valuemin>-96</valuemin>
										<valuemax>96</valuemax>
										<value>-12</value>
									</parameter>
								</effect>
							</filter>
						<link>
							<linkclipref>clipitem-380</linkclipref>
							<mediatype>audio</mediatype>
							<trackindex>13</trackindex>
							<clipindex>64</clipindex>
							<groupindex>1</groupindex>
						</link>
						<link>
							<linkclipref>clipitem-419</linkclipref>
							<mediatype>audio</mediatype>
							<trackindex>14</trackindex>
							<clipindex>56</clipindex>
							<groupindex>1</groupindex>
						</link>
						<logginginfo>
							<description></description>
							<scene></scene>
							<shottake></shottake>
							<lognote></lognote>
						</logginginfo>
						<labels>
							<label2>Caribbean</label2>
						</labels>
					</clipitem>
					<clipitem id="clipitem-381" premiereChannelType="stereo">
						<masterclipid>masterclip-98</masterclipid>
						<name>264779__anthonychan0__civilian-stun-gun-1-10s-zap.wav</name>
						<enabled>TRUE</enabled>
						<duration>10</duration>
						<rate>
							<timebase>25</timebase>
							<ntsc>FALSE</ntsc>
						</rate>
						<start>25412</start>
						<end>25419</end>
						<in>3</in>
						<out>10</out>
						<pproTicksIn>30481920000</pproTicksIn>
						<pproTicksOut>101606400000</pproTicksOut>
						<file id="file-92"/>
						<sourcetrack>
							<mediatype>audio</mediatype>
							<trackindex>1</trackindex>
						</sourcetrack>
							<filter>
								<effect>
									<name>Gain</name>
									<effectid>{61756678, 4761696e, 4b657947}</effectid>
									<effecttype>filter</effecttype>
									<mediatype>audio</mediatype>
									<parameter authoringApp="PremierePro">
										<parameterid>Gain(dB)</parameterid>
										<name>Gain(dB)</name>
										<valuemin>-96</valuemin>
										<valuemax>96</valuemax>
										<value>-12</value>
									</parameter>
								</effect>
							</filter>
						<link>
							<linkclipref>clipitem-381</linkclipref>
							<mediatype>audio</mediatype>
							<trackindex>13</trackindex>
							<clipindex>65</clipindex>
							<groupindex>1</groupindex>
						</link>
						<link>
							<linkclipref>clipitem-420</linkclipref>
							<mediatype>audio</mediatype>
							<trackindex>14</trackindex>
							<clipindex>57</clipindex>
							<groupindex>1</groupindex>
						</link>
						<logginginfo>
							<description></description>
							<scene></scene>
							<shottake></shottake>
							<lognote></lognote>
						</logginginfo>
						<labels>
							<label2>Caribbean</label2>
						</labels>
					</clipitem>
					<clipitem id="clipitem-382" premiereChannelType="stereo">
						<masterclipid>masterclip-98</masterclipid>
						<name>264779__anthonychan0__civilian-stun-gun-1-10s-zap.wav</name>
						<enabled>TRUE</enabled>
						<duration>10</duration>
						<rate>
							<timebase>25</timebase>
							<ntsc>FALSE</ntsc>
						</rate>
						<start>25654</start>
						<end>25661</end>
						<in>3</in>
						<out>10</out>
						<pproTicksIn>30481920000</pproTicksIn>
						<pproTicksOut>101606400000</pproTicksOut>
						<file id="file-92"/>
						<sourcetrack>
							<mediatype>audio</mediatype>
							<trackindex>1</trackindex>
						</sourcetrack>
							<filter>
								<effect>
									<name>Gain</name>
									<effectid>{61756678, 4761696e, 4b657947}</effectid>
									<effecttype>filter</effecttype>
									<mediatype>audio</mediatype>
									<parameter authoringApp="PremierePro">
										<parameterid>Gain(dB)</parameterid>
										<name>Gain(dB)</name>
										<valuemin>-96</valuemin>
										<valuemax>96</valuemax>
										<value>-12</value>
									</parameter>
								</effect>
							</filter>
						<link>
							<linkclipref>clipitem-382</linkclipref>
							<mediatype>audio</mediatype>
							<trackindex>13</trackindex>
							<clipindex>66</clipindex>
							<groupindex>1</groupindex>
						</link>
						<link>
							<linkclipref>clipitem-421</linkclipref>
							<mediatype>audio</mediatype>
							<trackindex>14</trackindex>
							<clipindex>58</clipindex>
							<groupindex>1</groupindex>
						</link>
						<logginginfo>
							<description></description>
							<scene></scene>
							<shottake></shottake>
							<lognote></lognote>
						</logginginfo>
						<labels>
							<label2>Caribbean</label2>
						</labels>
					</clipitem>
					<clipitem id="clipitem-383" premiereChannelType="stereo">
						<masterclipid>masterclip-98</masterclipid>
						<name>264779__anthonychan0__civilian-stun-gun-1-10s-zap.wav</name>
						<enabled>TRUE</enabled>
						<duration>10</duration>
						<rate>
							<timebase>25</timebase>
							<ntsc>FALSE</ntsc>
						</rate>
						<start>25969</start>
						<end>25976</end>
						<in>3</in>
						<out>10</out>
						<pproTicksIn>30481920000</pproTicksIn>
						<pproTicksOut>101606400000</pproTicksOut>
						<file id="file-92"/>
						<sourcetrack>
							<mediatype>audio</mediatype>
							<trackindex>1</trackindex>
						</sourcetrack>
							<filter>
								<effect>
									<name>Gain</name>
									<effectid>{61756678, 4761696e, 4b657947}</effectid>
									<effecttype>filter</effecttype>
									<mediatype>audio</mediatype>
									<parameter authoringApp="PremierePro">
										<parameterid>Gain(dB)</parameterid>
										<name>Gain(dB)</name>
										<valuemin>-96</valuemin>
										<valuemax>96</valuemax>
										<value>-12</value>
									</parameter>
								</effect>
							</filter>
						<link>
							<linkclipref>clipitem-383</linkclipref>
							<mediatype>audio</mediatype>
							<trackindex>13</trackindex>
							<clipindex>67</clipindex>
							<groupindex>1</groupindex>
						</link>
						<link>
							<linkclipref>clipitem-422</linkclipref>
							<mediatype>audio</mediatype>
							<trackindex>14</trackindex>
							<clipindex>59</clipindex>
							<groupindex>1</groupindex>
						</link>
						<logginginfo>
							<description></description>
							<scene></scene>
							<shottake></shottake>
							<lognote></lognote>
						</logginginfo>
						<labels>
							<label2>Caribbean</label2>
						</labels>
					</clipitem>
					<clipitem id="clipitem-384" premiereChannelType="stereo">
						<masterclipid>masterclip-98</masterclipid>
						<name>264779__anthonychan0__civilian-stun-gun-1-10s-zap.wav</name>
						<enabled>TRUE</enabled>
						<duration>10</duration>
						<rate>
							<timebase>25</timebase>
							<ntsc>FALSE</ntsc>
						</rate>
						<start>26288</start>
						<end>-1</end>
						<in>3</in>
						<out>10</out>
						<pproTicksIn>30481920000</pproTicksIn>
						<pproTicksOut>101606400000</pproTicksOut>
						<file id="file-92"/>
						<sourcetrack>
							<mediatype>audio</mediatype>
							<trackindex>1</trackindex>
						</sourcetrack>
							<filter>
								<effect>
									<name>Gain</name>
									<effectid>{61756678, 4761696e, 4b657947}</effectid>
									<effecttype>filter</effecttype>
									<mediatype>audio</mediatype>
									<parameter authoringApp="PremierePro">
										<parameterid>Gain(dB)</parameterid>
										<name>Gain(dB)</name>
										<valuemin>-96</valuemin>
										<valuemax>96</valuemax>
										<value>-12</value>
									</parameter>
								</effect>
							</filter>
						<link>
							<linkclipref>clipitem-384</linkclipref>
							<mediatype>audio</mediatype>
							<trackindex>13</trackindex>
							<clipindex>68</clipindex>
							<groupindex>1</groupindex>
						</link>
						<link>
							<linkclipref>clipitem-423</linkclipref>
							<mediatype>audio</mediatype>
							<trackindex>14</trackindex>
							<clipindex>60</clipindex>
							<groupindex>1</groupindex>
						</link>
						<logginginfo>
							<description></description>
							<scene></scene>
							<shottake></shottake>
							<lognote></lognote>
						</logginginfo>
						<labels>
							<label2>Caribbean</label2>
						</labels>
					</clipitem>
					<transitionitem>
						<start>26293</start>
						<end>26295</end>
						<alignment>end-black</alignment>
						<cutPointTicks>20321280000</cutPointTicks>
						<rate>
							<timebase>25</timebase>
							<ntsc>FALSE</ntsc>
						</rate>
						<effect>
							<name>Cross Fade (+3dB)</name>
							<effectid>KGAudioTransCrossFade3dB</effectid>
							<effecttype>transition</effecttype>
							<mediatype>audio</mediatype>
							<wipecode>0</wipecode>
							<wipeaccuracy>100</wipeaccuracy>
							<startratio>0</startratio>
							<endratio>1</endratio>
							<reverse>FALSE</reverse>
						</effect>
					</transitionitem>
					<clipitem id="clipitem-385" premiereChannelType="stereo">
						<masterclipid>masterclip-98</masterclipid>
						<name>264779__anthonychan0__civilian-stun-gun-1-10s-zap.wav</name>
						<enabled>TRUE</enabled>
						<duration>10</duration>
						<rate>
							<timebase>25</timebase>
							<ntsc>FALSE</ntsc>
						</rate>
						<start>26431</start>
						<end>26438</end>
						<in>3</in>
						<out>10</out>
						<pproTicksIn>30481920000</pproTicksIn>
						<pproTicksOut>101606400000</pproTicksOut>
						<file id="file-92"/>
						<sourcetrack>
							<mediatype>audio</mediatype>
							<trackindex>1</trackindex>
						</sourcetrack>
							<filter>
								<effect>
									<name>Gain</name>
									<effectid>{61756678, 4761696e, 4b657947}</effectid>
									<effecttype>filter</effecttype>
									<mediatype>audio</mediatype>
									<parameter authoringApp="PremierePro">
										<parameterid>Gain(dB)</parameterid>
										<name>Gain(dB)</name>
										<valuemin>-96</valuemin>
										<valuemax>96</valuemax>
										<value>-12</value>
									</parameter>
								</effect>
							</filter>
						<link>
							<linkclipref>clipitem-385</linkclipref>
							<mediatype>audio</mediatype>
							<trackindex>13</trackindex>
							<clipindex>70</clipindex>
							<groupindex>1</groupindex>
						</link>
						<link>
							<linkclipref>clipitem-424</linkclipref>
							<mediatype>audio</mediatype>
							<trackindex>14</trackindex>
							<clipindex>62</clipindex>
							<groupindex>1</groupindex>
						</link>
						<logginginfo>
							<description></description>
							<scene></scene>
							<shottake></shottake>
							<lognote></lognote>
						</logginginfo>
						<labels>
							<label2>Caribbean</label2>
						</labels>
					</clipitem>
					<clipitem id="clipitem-386" premiereChannelType="stereo">
						<masterclipid>masterclip-98</masterclipid>
						<name>264779__anthonychan0__civilian-stun-gun-1-10s-zap.wav</name>
						<enabled>TRUE</enabled>
						<duration>10</duration>
						<rate>
							<timebase>25</timebase>
							<ntsc>FALSE</ntsc>
						</rate>
						<start>26584</start>
						<end>26591</end>
						<in>3</in>
						<out>10</out>
						<pproTicksIn>30481920000</pproTicksIn>
						<pproTicksOut>101606400000</pproTicksOut>
						<file id="file-92"/>
						<sourcetrack>
							<mediatype>audio</mediatype>
							<trackindex>1</trackindex>
						</sourcetrack>
							<filter>
								<effect>
									<name>Gain</name>
									<effectid>{61756678, 4761696e, 4b657947}</effectid>
									<effecttype>filter</effecttype>
									<mediatype>audio</mediatype>
									<parameter authoringApp="PremierePro">
										<parameterid>Gain(dB)</parameterid>
										<name>Gain(dB)</name>
										<valuemin>-96</valuemin>
										<valuemax>96</valuemax>
										<value>-12</value>
									</parameter>
								</effect>
							</filter>
						<link>
							<linkclipref>clipitem-386</linkclipref>
							<mediatype>audio</mediatype>
							<trackindex>13</trackindex>
							<clipindex>71</clipindex>
							<groupindex>1</groupindex>
						</link>
						<link>
							<linkclipref>clipitem-425</linkclipref>
							<mediatype>audio</mediatype>
							<trackindex>14</trackindex>
							<clipindex>63</clipindex>
							<groupindex>1</groupindex>
						</link>
						<logginginfo>
							<description></description>
							<scene></scene>
							<shottake></shottake>
							<lognote></lognote>
						</logginginfo>
						<labels>
							<label2>Caribbean</label2>
						</labels>
					</clipitem>
					<clipitem id="clipitem-387" premiereChannelType="stereo">
						<masterclipid>masterclip-111</masterclipid>
						<name>264777__shinplaster__swoosh.wav</name>
						<enabled>TRUE</enabled>
						<duration>132</duration>
						<rate>
							<timebase>25</timebase>
							<ntsc>FALSE</ntsc>
						</rate>
						<start>30039</start>
						<end>30148</end>
						<in>23</in>
						<out>132</out>
						<pproTicksIn>233694720000</pproTicksIn>
						<pproTicksOut>1341204480000</pproTicksOut>
						<file id="file-105">
							<name>264777__shinplaster__swoosh.wav</name>
							<pathurl>file://localhost/Volumes/Bingen/Prosjekter/MYNT194016%20WHATS%20COOKING/Lydeffekter/Jan%20Lydeffekter/Woosh/264777__shinplaster__swoosh.wav</pathurl>
							<rate>
								<timebase>30</timebase>
								<ntsc>TRUE</ntsc>
							</rate>
							<duration>159</duration>
							<timecode>
								<rate>
									<timebase>30</timebase>
									<ntsc>TRUE</ntsc>
								</rate>
								<string>00;00;00;00</string>
								<frame>0</frame>
								<displayformat>DF</displayformat>
								<reel>
									<name></name>
								</reel>
							</timecode>
							<media>
								<audio>
									<samplecharacteristics>
										<depth>16</depth>
										<samplerate>48000</samplerate>
									</samplecharacteristics>
									<channelcount>2</channelcount>
								</audio>
							</media>
						</file>
						<sourcetrack>
							<mediatype>audio</mediatype>
							<trackindex>1</trackindex>
						</sourcetrack>
							<filter>
								<effect>
									<name>Gain</name>
									<effectid>{61756678, 4761696e, 4b657947}</effectid>
									<effecttype>filter</effecttype>
									<mediatype>audio</mediatype>
									<parameter authoringApp="PremierePro">
										<parameterid>Gain(dB)</parameterid>
										<name>Gain(dB)</name>
										<valuemin>-96</valuemin>
										<valuemax>96</valuemax>
										<value>-3</value>
									</parameter>
								</effect>
							</filter>
						<link>
							<linkclipref>clipitem-387</linkclipref>
							<mediatype>audio</mediatype>
							<trackindex>13</trackindex>
							<clipindex>72</clipindex>
							<groupindex>1</groupindex>
						</link>
						<link>
							<linkclipref>clipitem-426</linkclipref>
							<mediatype>audio</mediatype>
							<trackindex>14</trackindex>
							<clipindex>64</clipindex>
							<groupindex>1</groupindex>
						</link>
						<logginginfo>
							<description></description>
							<scene></scene>
							<shottake></shottake>
							<lognote></lognote>
						</logginginfo>
						<labels>
							<label2>Caribbean</label2>
						</labels>
					</clipitem>
					<enabled>TRUE</enabled>
					<locked>FALSE</locked>
					<outputchannelindex>1</outputchannelindex>
				</track>
				<track TL.SQTrackAudioKeyframeStyle="0" TL.SQTrackShy="0" TL.SQTrackExpandedHeight="45" TL.SQTrackExpanded="1" MZ.TrackTargeted="1" PannerCurrentValue="0.5" PannerIsInverted="true" PannerStartKeyframe="-91445760000000000,0.5,0,0,0,0,0,0" PannerName="Balance" currentExplodedTrackIndex="1" totalExplodedTrackCount="2" premiereTrackType="Stereo">
					<transitionitem>
						<start>609</start>
						<end>611</end>
						<alignment>start-black</alignment>
						<cutPointTicks>0</cutPointTicks>
						<rate>
							<timebase>25</timebase>
							<ntsc>FALSE</ntsc>
						</rate>
						<effect>
							<name>Cross Fade (+3dB)</name>
							<effectid>KGAudioTransCrossFade3dB</effectid>
							<effecttype>transition</effecttype>
							<mediatype>audio</mediatype>
							<wipecode>0</wipecode>
							<wipeaccuracy>100</wipeaccuracy>
							<startratio>0</startratio>
							<endratio>1</endratio>
							<reverse>FALSE</reverse>
						</effect>
					</transitionitem>
					<clipitem id="clipitem-388" premiereChannelType="stereo">
						<masterclipid>masterclip-100</masterclipid>
						<name>184325__micro__woosh-slide-in.wav</name>
						<enabled>TRUE</enabled>
						<duration>28</duration>
						<rate>
							<timebase>25</timebase>
							<ntsc>FALSE</ntsc>
						</rate>
						<start>-1</start>
						<end>633</end>
						<in>0</in>
						<out>24</out>
						<pproTicksIn>0</pproTicksIn>
						<pproTicksOut>121927680000</pproTicksOut>
						<file id="file-94"/>
						<sourcetrack>
							<mediatype>audio</mediatype>
							<trackindex>2</trackindex>
						</sourcetrack>
							<filter>
								<effect>
									<name>Gain</name>
									<effectid>{61756678, 4761696e, 4b657947}</effectid>
									<effecttype>filter</effecttype>
									<mediatype>audio</mediatype>
									<parameter authoringApp="PremierePro">
										<parameterid>Gain(dB)</parameterid>
										<name>Gain(dB)</name>
										<valuemin>-96</valuemin>
										<valuemax>96</valuemax>
										<value>-32</value>
									</parameter>
								</effect>
							</filter>
							<filter>
								<effect>
									<name>Time Remap</name>
									<effectid>timeremap</effectid>
									<effectcategory>motion</effectcategory>
									<effecttype>motion</effecttype>
									<mediatype>audio</mediatype>
									<parameter authoringApp="PremierePro">
										<parameterid>variablespeed</parameterid>
										<name>variablespeed</name>
										<valuemin>0</valuemin>
										<valuemax>1</valuemax>
										<value>0</value>
									</parameter>
									<parameter authoringApp="PremierePro">
										<parameterid>speed</parameterid>
										<name>speed</name>
										<valuemin>-100000</valuemin>
										<valuemax>100000</valuemax>
										<value>50</value>
									</parameter>
									<parameter authoringApp="PremierePro">
										<parameterid>reverse</parameterid>
										<name>reverse</name>
										<value>FALSE</value>
									</parameter>
									<parameter authoringApp="PremierePro">
										<parameterid>frameblending</parameterid>
										<name>frameblending</name>
										<value>FALSE</value>
									</parameter>
									<parameter authoringApp="PremierePro">
										<parameterid>graphdict</parameterid>
										<name>graphdict</name>
										<valuemin>0</valuemin>
										<valuemax>14</valuemax>
										<value>0</value>
										<keyframe>
											<when>0</when>
											<value>0</value>
											<speedvirtualkf>TRUE</speedvirtualkf>
											<speedkfin>TRUE</speedkfin>
										</keyframe>
										<keyframe>
											<when>24</when>
											<value>12</value>
											<speedvirtualkf>TRUE</speedvirtualkf>
											<speedkfout>TRUE</speedkfout>
										</keyframe>
										<keyframe>
											<when>28</when>
											<value>14</value>
											<speedvirtualkf>TRUE</speedvirtualkf>
											<speedkfend>TRUE</speedkfend>
										</keyframe>
										<interpolation>
											<name>FCPCurve</name>
										</interpolation>
									</parameter>
								</effect>
							</filter>
							<marker>
								<comment></comment>
								<name>Tempo: 120.0</name>
								<in>0</in>
								<out>-1</out>
							</marker>
						<link>
							<linkclipref>clipitem-344</linkclipref>
							<mediatype>audio</mediatype>
							<trackindex>13</trackindex>
							<clipindex>3</clipindex>
							<groupindex>1</groupindex>
						</link>
						<link>
							<linkclipref>clipitem-388</linkclipref>
							<mediatype>audio</mediatype>
							<trackindex>14</trackindex>
							<clipindex>2</clipindex>
							<groupindex>1</groupindex>
						</link>
						<logginginfo>
							<description></description>
							<scene></scene>
							<shottake></shottake>
							<lognote></lognote>
						</logginginfo>
						<labels>
							<label2>Caribbean</label2>
						</labels>
					</clipitem>
					<clipitem id="clipitem-389" premiereChannelType="stereo">
						<masterclipid>masterclip-84</masterclipid>
						<name>194081__potentjello__woosh-noise-1.wav</name>
						<enabled>TRUE</enabled>
						<duration>9</duration>
						<rate>
							<timebase>25</timebase>
							<ntsc>FALSE</ntsc>
						</rate>
						<start>705</start>
						<end>714</end>
						<in>0</in>
						<out>9</out>
						<pproTicksIn>0</pproTicksIn>
						<pproTicksOut>68584320000</pproTicksOut>
						<file id="file-78"/>
						<sourcetrack>
							<mediatype>audio</mediatype>
							<trackindex>2</trackindex>
						</sourcetrack>
							<filter>
								<effect>
									<name>Gain</name>
									<effectid>{61756678, 4761696e, 4b657947}</effectid>
									<effecttype>filter</effecttype>
									<mediatype>audio</mediatype>
									<parameter authoringApp="PremierePro">
										<parameterid>Gain(dB)</parameterid>
										<name>Gain(dB)</name>
										<valuemin>-96</valuemin>
										<valuemax>96</valuemax>
										<value>-8</value>
									</parameter>
								</effect>
							</filter>
							<filter>
								<effect>
									<name>Time Remap</name>
									<effectid>timeremap</effectid>
									<effectcategory>motion</effectcategory>
									<effecttype>motion</effecttype>
									<mediatype>audio</mediatype>
									<parameter authoringApp="PremierePro">
										<parameterid>variablespeed</parameterid>
										<name>variablespeed</name>
										<valuemin>0</valuemin>
										<valuemax>1</valuemax>
										<value>0</value>
									</parameter>
									<parameter authoringApp="PremierePro">
										<parameterid>speed</parameterid>
										<name>speed</name>
										<valuemin>-100000</valuemin>
										<valuemax>100000</valuemax>
										<value>75</value>
									</parameter>
									<parameter authoringApp="PremierePro">
										<parameterid>reverse</parameterid>
										<name>reverse</name>
										<value>FALSE</value>
									</parameter>
									<parameter authoringApp="PremierePro">
										<parameterid>frameblending</parameterid>
										<name>frameblending</name>
										<value>FALSE</value>
									</parameter>
									<parameter authoringApp="PremierePro">
										<parameterid>graphdict</parameterid>
										<name>graphdict</name>
										<valuemin>0</valuemin>
										<valuemax>6</valuemax>
										<value>0</value>
										<keyframe>
											<when>0</when>
											<value>0</value>
											<speedvirtualkf>TRUE</speedvirtualkf>
											<speedkfin>TRUE</speedkfin>
										</keyframe>
										<keyframe>
											<when>9</when>
											<value>6</value>
											<speedvirtualkf>TRUE</speedvirtualkf>
											<speedkfout>TRUE</speedkfout>
										</keyframe>
										<interpolation>
											<name>FCPCurve</name>
										</interpolation>
									</parameter>
								</effect>
							</filter>
							<marker>
								<comment></comment>
								<name></name>
								<in>6</in>
								<out>-1</out>
							</marker>
						<link>
							<linkclipref>clipitem-345</linkclipref>
							<mediatype>audio</mediatype>
							<trackindex>13</trackindex>
							<clipindex>4</clipindex>
							<groupindex>1</groupindex>
						</link>
						<link>
							<linkclipref>clipitem-389</linkclipref>
							<mediatype>audio</mediatype>
							<trackindex>14</trackindex>
							<clipindex>3</clipindex>
							<groupindex>1</groupindex>
						</link>
						<logginginfo>
							<description></description>
							<scene></scene>
							<shottake></shottake>
							<lognote></lognote>
						</logginginfo>
						<labels>
							<label2>Caribbean</label2>
						</labels>
					</clipitem>
					<clipitem id="clipitem-390" premiereChannelType="stereo">
						<masterclipid>masterclip-101</masterclipid>
						<name>169867__halgrimm__swoosh.wav</name>
						<enabled>TRUE</enabled>
						<duration>57</duration>
						<rate>
							<timebase>25</timebase>
							<ntsc>FALSE</ntsc>
						</rate>
						<start>927</start>
						<end>982</end>
						<in>0</in>
						<out>55</out>
						<pproTicksIn>0</pproTicksIn>
						<pproTicksOut>558835200000</pproTicksOut>
						<file id="file-95"/>
						<sourcetrack>
							<mediatype>audio</mediatype>
							<trackindex>2</trackindex>
						</sourcetrack>
							<filter>
								<effect>
									<name>Gain</name>
									<effectid>{61756678, 4761696e, 4b657947}</effectid>
									<effecttype>filter</effecttype>
									<mediatype>audio</mediatype>
									<parameter authoringApp="PremierePro">
										<parameterid>Gain(dB)</parameterid>
										<name>Gain(dB)</name>
										<valuemin>-96</valuemin>
										<valuemax>96</valuemax>
										<value>-10</value>
									</parameter>
								</effect>
							</filter>
						<link>
							<linkclipref>clipitem-346</linkclipref>
							<mediatype>audio</mediatype>
							<trackindex>13</trackindex>
							<clipindex>5</clipindex>
							<groupindex>1</groupindex>
						</link>
						<link>
							<linkclipref>clipitem-390</linkclipref>
							<mediatype>audio</mediatype>
							<trackindex>14</trackindex>
							<clipindex>4</clipindex>
							<groupindex>1</groupindex>
						</link>
						<logginginfo>
							<description></description>
							<scene></scene>
							<shottake></shottake>
							<lognote></lognote>
						</logginginfo>
						<labels>
							<label2>Caribbean</label2>
						</labels>
					</clipitem>
					<clipitem id="clipitem-391" premiereChannelType="stereo">
						<masterclipid>masterclip-102</masterclipid>
						<name>NONRE642004HD0012 Every Step Every Way.wav</name>
						<enabled>TRUE</enabled>
						<duration>5373</duration>
						<rate>
							<timebase>25</timebase>
							<ntsc>FALSE</ntsc>
						</rate>
						<start>3757</start>
						<end>-1</end>
						<in>913</in>
						<out>1212</out>
						<pproTicksIn>9276664320000</pproTicksIn>
						<pproTicksOut>12314695680000</pproTicksOut>
						<file id="file-96"/>
						<sourcetrack>
							<mediatype>audio</mediatype>
							<trackindex>2</trackindex>
						</sourcetrack>
							<filter>
								<effect>
									<name>Gain</name>
									<effectid>{61756678, 4761696e, 4b657947}</effectid>
									<effecttype>filter</effecttype>
									<mediatype>audio</mediatype>
									<parameter authoringApp="PremierePro">
										<parameterid>Gain(dB)</parameterid>
										<name>Gain(dB)</name>
										<valuemin>-96</valuemin>
										<valuemax>96</valuemax>
										<value>-10</value>
									</parameter>
								</effect>
							</filter>
						<link>
							<linkclipref>clipitem-347</linkclipref>
							<mediatype>audio</mediatype>
							<trackindex>13</trackindex>
							<clipindex>6</clipindex>
							<groupindex>1</groupindex>
						</link>
						<link>
							<linkclipref>clipitem-391</linkclipref>
							<mediatype>audio</mediatype>
							<trackindex>14</trackindex>
							<clipindex>5</clipindex>
							<groupindex>1</groupindex>
						</link>
						<logginginfo>
							<description></description>
							<scene></scene>
							<shottake></shottake>
							<lognote></lognote>
						</logginginfo>
						<labels>
							<label2>Rose</label2>
						</labels>
					</clipitem>
					<transitionitem>
						<start>4009</start>
						<end>4056</end>
						<alignment>center</alignment>
						<cutPointTicks>233694720000</cutPointTicks>
						<rate>
							<timebase>25</timebase>
							<ntsc>FALSE</ntsc>
						</rate>
						<effect>
							<name>Cross Fade (+3dB)</name>
							<effectid>KGAudioTransCrossFade3dB</effectid>
							<effecttype>transition</effecttype>
							<mediatype>audio</mediatype>
							<wipecode>0</wipecode>
							<wipeaccuracy>100</wipeaccuracy>
							<startratio>0</startratio>
							<endratio>1</endratio>
							<reverse>FALSE</reverse>
						</effect>
					</transitionitem>
					<clipitem id="clipitem-392" premiereChannelType="stereo">
						<masterclipid>masterclip-102</masterclipid>
						<name>NONRE642004HD0012 Every Step Every Way.wav</name>
						<enabled>TRUE</enabled>
						<duration>5373</duration>
						<rate>
							<timebase>25</timebase>
							<ntsc>FALSE</ntsc>
						</rate>
						<start>-1</start>
						<end>-1</end>
						<in>1165</in>
						<out>1385</out>
						<pproTicksIn>11837145600000</pproTicksIn>
						<pproTicksOut>14072486400000</pproTicksOut>
						<file id="file-96"/>
						<sourcetrack>
							<mediatype>audio</mediatype>
							<trackindex>2</trackindex>
						</sourcetrack>
							<filter>
								<effect>
									<name>Gain</name>
									<effectid>{61756678, 4761696e, 4b657947}</effectid>
									<effecttype>filter</effecttype>
									<mediatype>audio</mediatype>
									<parameter authoringApp="PremierePro">
										<parameterid>Gain(dB)</parameterid>
										<name>Gain(dB)</name>
										<valuemin>-96</valuemin>
										<valuemax>96</valuemax>
										<value>-21</value>
									</parameter>
								</effect>
							</filter>
						<link>
							<linkclipref>clipitem-348</linkclipref>
							<mediatype>audio</mediatype>
							<trackindex>13</trackindex>
							<clipindex>8</clipindex>
							<groupindex>1</groupindex>
						</link>
						<link>
							<linkclipref>clipitem-392</linkclipref>
							<mediatype>audio</mediatype>
							<trackindex>14</trackindex>
							<clipindex>7</clipindex>
							<groupindex>1</groupindex>
						</link>
						<logginginfo>
							<description></description>
							<scene></scene>
							<shottake></shottake>
							<lognote></lognote>
						</logginginfo>
						<labels>
							<label2>Rose</label2>
						</labels>
					</clipitem>
					<transitionitem>
						<start>4079</start>
						<end>4229</end>
						<alignment>end-black</alignment>
						<cutPointTicks>1524096000000</cutPointTicks>
						<rate>
							<timebase>25</timebase>
							<ntsc>FALSE</ntsc>
						</rate>
						<effect>
							<name>Cross Fade (+3dB)</name>
							<effectid>KGAudioTransCrossFade3dB</effectid>
							<effecttype>transition</effecttype>
							<mediatype>audio</mediatype>
							<wipecode>0</wipecode>
							<wipeaccuracy>100</wipeaccuracy>
							<startratio>0</startratio>
							<endratio>1</endratio>
							<reverse>FALSE</reverse>
						</effect>
					</transitionitem>
					<clipitem id="clipitem-393" premiereChannelType="stereo">
						<masterclipid>masterclip-103</masterclipid>
						<name>PN8CD_1028_17_Tiny_Tango_Cassman_Scott_927030.wav</name>
						<enabled>TRUE</enabled>
						<duration>2607</duration>
						<rate>
							<timebase>25</timebase>
							<ntsc>FALSE</ntsc>
						</rate>
						<start>7271</start>
						<end>-1</end>
						<in>0</in>
						<out>364</out>
						<pproTicksIn>0</pproTicksIn>
						<pproTicksOut>3698472960000</pproTicksOut>
						<file id="file-97"/>
						<sourcetrack>
							<mediatype>audio</mediatype>
							<trackindex>2</trackindex>
						</sourcetrack>
							<filter>
								<effect>
									<name>Audio Levels</name>
									<effectid>audiolevels</effectid>
									<effectcategory>audiolevels</effectcategory>
									<effecttype>audiolevels</effecttype>
									<mediatype>audio</mediatype>
									<parameter authoringApp="PremierePro">
										<parameterid>level</parameterid>
										<name>Level</name>
										<valuemin>0</valuemin>
										<valuemax>3.98109</valuemax>
										<value>0.241129</value>
									</parameter>
								</effect>
							</filter>
						<link>
							<linkclipref>clipitem-349</linkclipref>
							<mediatype>audio</mediatype>
							<trackindex>13</trackindex>
							<clipindex>10</clipindex>
							<groupindex>1</groupindex>
						</link>
						<link>
							<linkclipref>clipitem-393</linkclipref>
							<mediatype>audio</mediatype>
							<trackindex>14</trackindex>
							<clipindex>9</clipindex>
							<groupindex>1</groupindex>
						</link>
						<logginginfo>
							<description></description>
							<scene></scene>
							<shottake></shottake>
							<lognote></lognote>
						</logginginfo>
						<labels>
							<label2>Caribbean</label2>
						</labels>
					</clipitem>
					<transitionitem>
						<start>7595</start>
						<end>7635</end>
						<alignment>end-black</alignment>
						<cutPointTicks>406425600000</cutPointTicks>
						<rate>
							<timebase>25</timebase>
							<ntsc>FALSE</ntsc>
						</rate>
						<effect>
							<name>Cross Fade (+3dB)</name>
							<effectid>KGAudioTransCrossFade3dB</effectid>
							<effecttype>transition</effecttype>
							<mediatype>audio</mediatype>
							<wipecode>0</wipecode>
							<wipeaccuracy>100</wipeaccuracy>
							<startratio>0</startratio>
							<endratio>1</endratio>
							<reverse>FALSE</reverse>
						</effect>
					</transitionitem>
					<clipitem id="clipitem-394" premiereChannelType="stereo">
						<masterclipid>masterclip-104</masterclipid>
						<name>BTV_162_6_Best_Foot_Forward_Bradley_Sanchez_925597.wav</name>
						<enabled>TRUE</enabled>
						<duration>3393</duration>
						<rate>
							<timebase>25</timebase>
							<ntsc>FALSE</ntsc>
						</rate>
						<start>8802</start>
						<end>-1</end>
						<in>414</in>
						<out>749</out>
						<pproTicksIn>4206504960000</pproTicksIn>
						<pproTicksOut>7610319360000</pproTicksOut>
						<file id="file-98"/>
						<sourcetrack>
							<mediatype>audio</mediatype>
							<trackindex>2</trackindex>
						</sourcetrack>
							<filter>
								<effect>
									<name>Gain</name>
									<effectid>{61756678, 4761696e, 4b657947}</effectid>
									<effecttype>filter</effecttype>
									<mediatype>audio</mediatype>
									<parameter authoringApp="PremierePro">
										<parameterid>Gain(dB)</parameterid>
										<name>Gain(dB)</name>
										<valuemin>-96</valuemin>
										<valuemax>96</valuemax>
										<value>-3</value>
									</parameter>
								</effect>
							</filter>
							<filter>
								<effect>
									<name>Audio Levels</name>
									<effectid>audiolevels</effectid>
									<effectcategory>audiolevels</effectcategory>
									<effecttype>audiolevels</effecttype>
									<mediatype>audio</mediatype>
									<parameter authoringApp="PremierePro">
										<parameterid>level</parameterid>
										<name>Level</name>
										<valuemin>0</valuemin>
										<valuemax>3.98109</valuemax>
										<value>0.38685</value>
									</parameter>
								</effect>
							</filter>
						<link>
							<linkclipref>clipitem-350</linkclipref>
							<mediatype>audio</mediatype>
							<trackindex>13</trackindex>
							<clipindex>12</clipindex>
							<groupindex>1</groupindex>
						</link>
						<link>
							<linkclipref>clipitem-394</linkclipref>
							<mediatype>audio</mediatype>
							<trackindex>14</trackindex>
							<clipindex>11</clipindex>
							<groupindex>1</groupindex>
						</link>
						<logginginfo>
							<description></description>
							<scene></scene>
							<shottake></shottake>
							<lognote></lognote>
						</logginginfo>
						<labels>
							<label2>Caribbean</label2>
						</labels>
					</clipitem>
					<transitionitem>
						<start>9124</start>
						<end>9137</end>
						<alignment>end-black</alignment>
						<cutPointTicks>132088320000</cutPointTicks>
						<rate>
							<timebase>25</timebase>
							<ntsc>FALSE</ntsc>
						</rate>
						<effect>
							<name>Cross Fade (+3dB)</name>
							<effectid>KGAudioTransCrossFade3dB</effectid>
							<effecttype>transition</effecttype>
							<mediatype>audio</mediatype>
							<wipecode>0</wipecode>
							<wipeaccuracy>100</wipeaccuracy>
							<startratio>0</startratio>
							<endratio>1</endratio>
							<reverse>FALSE</reverse>
						</effect>
					</transitionitem>
					<transitionitem>
						<start>9786</start>
						<end>9840</end>
						<alignment>start-black</alignment>
						<cutPointTicks>0</cutPointTicks>
						<rate>
							<timebase>25</timebase>
							<ntsc>FALSE</ntsc>
						</rate>
						<effect>
							<name>Cross Fade (+3dB)</name>
							<effectid>KGAudioTransCrossFade3dB</effectid>
							<effecttype>transition</effecttype>
							<mediatype>audio</mediatype>
							<wipecode>0</wipecode>
							<wipeaccuracy>100</wipeaccuracy>
							<startratio>0</startratio>
							<endratio>1</endratio>
							<reverse>FALSE</reverse>
						</effect>
					</transitionitem>
					<clipitem id="clipitem-395" premiereChannelType="stereo">
						<masterclipid>masterclip-103</masterclipid>
						<name>PN8CD_1028_17_Tiny_Tango_Cassman_Scott_927030.wav</name>
						<enabled>TRUE</enabled>
						<duration>2607</duration>
						<rate>
							<timebase>25</timebase>
							<ntsc>FALSE</ntsc>
						</rate>
						<start>-1</start>
						<end>10092</end>
						<in>1470</in>
						<out>1776</out>
						<pproTicksIn>14936140800000</pproTicksIn>
						<pproTicksOut>18045296640000</pproTicksOut>
						<file id="file-97"/>
						<sourcetrack>
							<mediatype>audio</mediatype>
							<trackindex>2</trackindex>
						</sourcetrack>
							<filter>
								<effect>
									<name>Audio Levels</name>
									<effectid>audiolevels</effectid>
									<effectcategory>audiolevels</effectcategory>
									<effecttype>audiolevels</effecttype>
									<mediatype>audio</mediatype>
									<parameter authoringApp="PremierePro">
										<parameterid>level</parameterid>
										<name>Level</name>
										<valuemin>0</valuemin>
										<valuemax>3.98109</valuemax>
										<value>0.493081</value>
									</parameter>
								</effect>
							</filter>
						<link>
							<linkclipref>clipitem-351</linkclipref>
							<mediatype>audio</mediatype>
							<trackindex>13</trackindex>
							<clipindex>15</clipindex>
							<groupindex>1</groupindex>
						</link>
						<link>
							<linkclipref>clipitem-395</linkclipref>
							<mediatype>audio</mediatype>
							<trackindex>14</trackindex>
							<clipindex>14</clipindex>
							<groupindex>1</groupindex>
						</link>
						<logginginfo>
							<description></description>
							<scene></scene>
							<shottake></shottake>
							<lognote></lognote>
						</logginginfo>
						<labels>
							<label2>Caribbean</label2>
						</labels>
					</clipitem>
					<transitionitem>
						<start>10200</start>
						<end>10213</end>
						<alignment>start-black</alignment>
						<cutPointTicks>0</cutPointTicks>
						<rate>
							<timebase>25</timebase>
							<ntsc>FALSE</ntsc>
						</rate>
						<effect>
							<name>Cross Fade (+3dB)</name>
							<effectid>KGAudioTransCrossFade3dB</effectid>
							<effecttype>transition</effecttype>
							<mediatype>audio</mediatype>
							<wipecode>0</wipecode>
							<wipeaccuracy>100</wipeaccuracy>
							<startratio>0</startratio>
							<endratio>1</endratio>
							<reverse>FALSE</reverse>
						</effect>
					</transitionitem>
					<clipitem id="clipitem-396" premiereChannelType="stereo">
						<masterclipid>masterclip-103</masterclipid>
						<name>PN8CD_1028_17_Tiny_Tango_Cassman_Scott_927030.wav</name>
						<enabled>TRUE</enabled>
						<duration>2607</duration>
						<rate>
							<timebase>25</timebase>
							<ntsc>FALSE</ntsc>
						</rate>
						<start>-1</start>
						<end>10296</end>
						<in>1778</in>
						<out>1874</out>
						<pproTicksIn>18065617920000</pproTicksIn>
						<pproTicksOut>19041039360000</pproTicksOut>
						<file id="file-97"/>
						<sourcetrack>
							<mediatype>audio</mediatype>
							<trackindex>2</trackindex>
						</sourcetrack>
						<link>
							<linkclipref>clipitem-352</linkclipref>
							<mediatype>audio</mediatype>
							<trackindex>13</trackindex>
							<clipindex>17</clipindex>
							<groupindex>1</groupindex>
						</link>
						<link>
							<linkclipref>clipitem-396</linkclipref>
							<mediatype>audio</mediatype>
							<trackindex>14</trackindex>
							<clipindex>16</clipindex>
							<groupindex>1</groupindex>
						</link>
						<logginginfo>
							<description></description>
							<scene></scene>
							<shottake></shottake>
							<lognote></lognote>
						</logginginfo>
						<labels>
							<label2>Caribbean</label2>
						</labels>
					</clipitem>
					<transitionitem>
						<start>10743</start>
						<end>10747</end>
						<alignment>start-black</alignment>
						<cutPointTicks>0</cutPointTicks>
						<rate>
							<timebase>25</timebase>
							<ntsc>FALSE</ntsc>
						</rate>
						<effect>
							<name>Cross Fade (+3dB)</name>
							<effectid>KGAudioTransCrossFade3dB</effectid>
							<effecttype>transition</effecttype>
							<mediatype>audio</mediatype>
							<wipecode>0</wipecode>
							<wipeaccuracy>100</wipeaccuracy>
							<startratio>0</startratio>
							<endratio>1</endratio>
							<reverse>FALSE</reverse>
						</effect>
					</transitionitem>
					<clipitem id="clipitem-397" premiereChannelType="stereo">
						<masterclipid>masterclip-103</masterclipid>
						<name>PN8CD_1028_17_Tiny_Tango_Cassman_Scott_927030.wav</name>
						<enabled>TRUE</enabled>
						<duration>2607</duration>
						<rate>
							<timebase>25</timebase>
							<ntsc>FALSE</ntsc>
						</rate>
						<start>-1</start>
						<end>10799</end>
						<in>2462</in>
						<out>2518</out>
						<pproTicksIn>25015495680000</pproTicksIn>
						<pproTicksOut>25584491520000</pproTicksOut>
						<file id="file-97"/>
						<sourcetrack>
							<mediatype>audio</mediatype>
							<trackindex>2</trackindex>
						</sourcetrack>
							<filter>
								<effect>
									<name>Audio Levels</name>
									<effectid>audiolevels</effectid>
									<effectcategory>audiolevels</effectcategory>
									<effecttype>audiolevels</effecttype>
									<mediatype>audio</mediatype>
									<parameter authoringApp="PremierePro">
										<parameterid>level</parameterid>
										<name>Level</name>
										<valuemin>0</valuemin>
										<valuemax>3.98109</valuemax>
										<value>0.973103</value>
										<keyframe>
											<when>2338</when>
											<value>0.343021</value>
										</keyframe>
										<keyframe>
											<when>2416</when>
											<value>0.973103</value>
										</keyframe>
									</parameter>
								</effect>
							</filter>
						<link>
							<linkclipref>clipitem-353</linkclipref>
							<mediatype>audio</mediatype>
							<trackindex>13</trackindex>
							<clipindex>19</clipindex>
							<groupindex>1</groupindex>
						</link>
						<link>
							<linkclipref>clipitem-397</linkclipref>
							<mediatype>audio</mediatype>
							<trackindex>14</trackindex>
							<clipindex>18</clipindex>
							<groupindex>1</groupindex>
						</link>
						<logginginfo>
							<description></description>
							<scene></scene>
							<shottake></shottake>
							<lognote></lognote>
						</logginginfo>
						<labels>
							<label2>Caribbean</label2>
						</labels>
					</clipitem>
					<clipitem id="clipitem-398" premiereChannelType="stereo">
						<masterclipid>masterclip-103</masterclipid>
						<name>PN8CD_1028_17_Tiny_Tango_Cassman_Scott_927030.wav</name>
						<enabled>TRUE</enabled>
						<duration>2607</duration>
						<rate>
							<timebase>25</timebase>
							<ntsc>FALSE</ntsc>
						</rate>
						<start>10799</start>
						<end>-1</end>
						<in>2518</in>
						<out>2564</out>
						<pproTicksIn>25584491520000</pproTicksIn>
						<pproTicksOut>26051880960000</pproTicksOut>
						<file id="file-97"/>
						<sourcetrack>
							<mediatype>audio</mediatype>
							<trackindex>2</trackindex>
						</sourcetrack>
							<filter>
								<effect>
									<name>Audio Levels</name>
									<effectid>audiolevels</effectid>
									<effectcategory>audiolevels</effectcategory>
									<effecttype>audiolevels</effecttype>
									<mediatype>audio</mediatype>
									<parameter authoringApp="PremierePro">
										<parameterid>level</parameterid>
										<name>Level</name>
										<valuemin>0</valuemin>
										<valuemax>3.98109</valuemax>
										<value>0.973103</value>
										<keyframe>
											<when>2338</when>
											<value>0.343021</value>
										</keyframe>
										<keyframe>
											<when>2416</when>
											<value>0.973103</value>
										</keyframe>
									</parameter>
								</effect>
							</filter>
						<link>
							<linkclipref>clipitem-354</linkclipref>
							<mediatype>audio</mediatype>
							<trackindex>13</trackindex>
							<clipindex>20</clipindex>
							<groupindex>1</groupindex>
						</link>
						<link>
							<linkclipref>clipitem-398</linkclipref>
							<mediatype>audio</mediatype>
							<trackindex>14</trackindex>
							<clipindex>19</clipindex>
							<groupindex>1</groupindex>
						</link>
						<logginginfo>
							<description></description>
							<scene></scene>
							<shottake></shottake>
							<lognote></lognote>
						</logginginfo>
						<labels>
							<label2>Caribbean</label2>
						</labels>
					</clipitem>
					<transitionitem>
						<start>10821</start>
						<end>10845</end>
						<alignment>end-black</alignment>
						<cutPointTicks>243855360000</cutPointTicks>
						<rate>
							<timebase>25</timebase>
							<ntsc>FALSE</ntsc>
						</rate>
						<effect>
							<name>Cross Fade (+3dB)</name>
							<effectid>KGAudioTransCrossFade3dB</effectid>
							<effecttype>transition</effecttype>
							<mediatype>audio</mediatype>
							<wipecode>0</wipecode>
							<wipeaccuracy>100</wipeaccuracy>
							<startratio>0</startratio>
							<endratio>1</endratio>
							<reverse>FALSE</reverse>
						</effect>
					</transitionitem>
					<clipitem id="clipitem-399" premiereChannelType="stereo">
						<masterclipid>masterclip-105</masterclipid>
						<name>STFTA_1_175_Don_t_Take_Me_Down_Hart_Williams_762667.wav</name>
						<enabled>TRUE</enabled>
						<duration>2919</duration>
						<rate>
							<timebase>25</timebase>
							<ntsc>FALSE</ntsc>
						</rate>
						<start>11043</start>
						<end>-1</end>
						<in>0</in>
						<out>147</out>
						<pproTicksIn>0</pproTicksIn>
						<pproTicksOut>1493614080000</pproTicksOut>
						<file id="file-99"/>
						<sourcetrack>
							<mediatype>audio</mediatype>
							<trackindex>2</trackindex>
						</sourcetrack>
							<filter>
								<effect>
									<name>Gain</name>
									<effectid>{61756678, 4761696e, 4b657947}</effectid>
									<effecttype>filter</effecttype>
									<mediatype>audio</mediatype>
									<parameter authoringApp="PremierePro">
										<parameterid>Gain(dB)</parameterid>
										<name>Gain(dB)</name>
										<valuemin>-96</valuemin>
										<valuemax>96</valuemax>
										<value>-17</value>
									</parameter>
								</effect>
							</filter>
						<link>
							<linkclipref>clipitem-355</linkclipref>
							<mediatype>audio</mediatype>
							<trackindex>13</trackindex>
							<clipindex>22</clipindex>
							<groupindex>1</groupindex>
						</link>
						<link>
							<linkclipref>clipitem-399</linkclipref>
							<mediatype>audio</mediatype>
							<trackindex>14</trackindex>
							<clipindex>21</clipindex>
							<groupindex>1</groupindex>
						</link>
						<logginginfo>
							<description></description>
							<scene></scene>
							<shottake></shottake>
							<lognote></lognote>
						</logginginfo>
						<labels>
							<label2>Lavender</label2>
						</labels>
					</clipitem>
					<transitionitem>
						<start>11043</start>
						<end>11190</end>
						<alignment>center</alignment>
						<cutPointTicks>579156480000</cutPointTicks>
						<rate>
							<timebase>25</timebase>
							<ntsc>FALSE</ntsc>
						</rate>
						<effect>
							<name>Cross Fade (+3dB)</name>
							<effectid>KGAudioTransCrossFade3dB</effectid>
							<effecttype>transition</effecttype>
							<mediatype>audio</mediatype>
							<wipecode>0</wipecode>
							<wipeaccuracy>100</wipeaccuracy>
							<startratio>0</startratio>
							<endratio>1</endratio>
							<reverse>FALSE</reverse>
						</effect>
					</transitionitem>
					<clipitem id="clipitem-400" premiereChannelType="stereo">
						<masterclipid>masterclip-105</masterclipid>
						<name>STFTA_1_175_Don_t_Take_Me_Down_Hart_Williams_762667.wav</name>
						<enabled>TRUE</enabled>
						<duration>2919</duration>
						<rate>
							<timebase>25</timebase>
							<ntsc>FALSE</ntsc>
						</rate>
						<start>-1</start>
						<end>-1</end>
						<in>0</in>
						<out>2067</out>
						<pproTicksIn>0</pproTicksIn>
						<pproTicksOut>21002042880000</pproTicksOut>
						<file id="file-99"/>
						<sourcetrack>
							<mediatype>audio</mediatype>
							<trackindex>2</trackindex>
						</sourcetrack>
							<filter>
								<effect>
									<name>Gain</name>
									<effectid>{61756678, 4761696e, 4b657947}</effectid>
									<effecttype>filter</effecttype>
									<mediatype>audio</mediatype>
									<parameter authoringApp="PremierePro">
										<parameterid>Gain(dB)</parameterid>
										<name>Gain(dB)</name>
										<valuemin>-96</valuemin>
										<valuemax>96</valuemax>
										<value>-27</value>
									</parameter>
								</effect>
							</filter>
						<link>
							<linkclipref>clipitem-356</linkclipref>
							<mediatype>audio</mediatype>
							<trackindex>13</trackindex>
							<clipindex>24</clipindex>
							<groupindex>1</groupindex>
						</link>
						<link>
							<linkclipref>clipitem-400</linkclipref>
							<mediatype>audio</mediatype>
							<trackindex>14</trackindex>
							<clipindex>23</clipindex>
							<groupindex>1</groupindex>
						</link>
						<logginginfo>
							<description></description>
							<scene></scene>
							<shottake></shottake>
							<lognote></lognote>
						</logginginfo>
						<labels>
							<label2>Lavender</label2>
						</labels>
					</clipitem>
					<transitionitem>
						<start>13024</start>
						<end>13110</end>
						<alignment>end-black</alignment>
						<cutPointTicks>873815040000</cutPointTicks>
						<rate>
							<timebase>25</timebase>
							<ntsc>FALSE</ntsc>
						</rate>
						<effect>
							<name>Cross Fade (+3dB)</name>
							<effectid>KGAudioTransCrossFade3dB</effectid>
							<effecttype>transition</effecttype>
							<mediatype>audio</mediatype>
							<wipecode>0</wipecode>
							<wipeaccuracy>100</wipeaccuracy>
							<startratio>0</startratio>
							<endratio>1</endratio>
							<reverse>FALSE</reverse>
						</effect>
					</transitionitem>
					<transitionitem>
						<start>17813</start>
						<end>17886</end>
						<alignment>start-black</alignment>
						<cutPointTicks>0</cutPointTicks>
						<rate>
							<timebase>25</timebase>
							<ntsc>FALSE</ntsc>
						</rate>
						<effect>
							<name>Cross Fade (+3dB)</name>
							<effectid>KGAudioTransCrossFade3dB</effectid>
							<effecttype>transition</effecttype>
							<mediatype>audio</mediatype>
							<wipecode>0</wipecode>
							<wipeaccuracy>100</wipeaccuracy>
							<startratio>0</startratio>
							<endratio>1</endratio>
							<reverse>FALSE</reverse>
						</effect>
					</transitionitem>
					<clipitem id="clipitem-401" premiereChannelType="stereo">
						<masterclipid>masterclip-106</masterclipid>
						<name>NONRE606146HD0003 PMW (All I Really Need).wav</name>
						<enabled>TRUE</enabled>
						<duration>5869</duration>
						<rate>
							<timebase>25</timebase>
							<ntsc>FALSE</ntsc>
						</rate>
						<start>-1</start>
						<end>-1</end>
						<in>2120</in>
						<out>2206</out>
						<pproTicksIn>21540556800000</pproTicksIn>
						<pproTicksOut>22414371840000</pproTicksOut>
						<file id="file-100"/>
						<sourcetrack>
							<mediatype>audio</mediatype>
							<trackindex>2</trackindex>
						</sourcetrack>
							<filter>
								<effect>
									<name>Gain</name>
									<effectid>{61756678, 4761696e, 4b657947}</effectid>
									<effecttype>filter</effecttype>
									<mediatype>audio</mediatype>
									<parameter authoringApp="PremierePro">
										<parameterid>Gain(dB)</parameterid>
										<name>Gain(dB)</name>
										<valuemin>-96</valuemin>
										<valuemax>96</valuemax>
										<value>-27</value>
									</parameter>
								</effect>
							</filter>
						<link>
							<linkclipref>clipitem-362</linkclipref>
							<mediatype>audio</mediatype>
							<trackindex>13</trackindex>
							<clipindex>34</clipindex>
							<groupindex>1</groupindex>
						</link>
						<link>
							<linkclipref>clipitem-401</linkclipref>
							<mediatype>audio</mediatype>
							<trackindex>14</trackindex>
							<clipindex>26</clipindex>
							<groupindex>1</groupindex>
						</link>
						<logginginfo>
							<description></description>
							<scene></scene>
							<shottake></shottake>
							<lognote></lognote>
						</logginginfo>
						<labels>
							<label2>Rose</label2>
						</labels>
					</clipitem>
					<transitionitem>
						<start>17886</start>
						<end>17899</end>
						<alignment>center</alignment>
						<cutPointTicks>60963840000</cutPointTicks>
						<rate>
							<timebase>25</timebase>
							<ntsc>FALSE</ntsc>
						</rate>
						<effect>
							<name>Cross Fade (+3dB)</name>
							<effectid>KGAudioTransCrossFade3dB</effectid>
							<effecttype>transition</effecttype>
							<mediatype>audio</mediatype>
							<wipecode>0</wipecode>
							<wipeaccuracy>100</wipeaccuracy>
							<startratio>0</startratio>
							<endratio>1</endratio>
							<reverse>FALSE</reverse>
						</effect>
					</transitionitem>
					<clipitem id="clipitem-402" premiereChannelType="stereo">
						<masterclipid>masterclip-106</masterclipid>
						<name>NONRE606146HD0003 PMW (All I Really Need).wav</name>
						<enabled>TRUE</enabled>
						<duration>5869</duration>
						<rate>
							<timebase>25</timebase>
							<ntsc>FALSE</ntsc>
						</rate>
						<start>-1</start>
						<end>-1</end>
						<in>2193</in>
						<out>2430</out>
						<pproTicksIn>22282283520000</pproTicksIn>
						<pproTicksOut>24690355200000</pproTicksOut>
						<file id="file-100"/>
						<sourcetrack>
							<mediatype>audio</mediatype>
							<trackindex>2</trackindex>
						</sourcetrack>
							<filter>
								<effect>
									<name>Gain</name>
									<effectid>{61756678, 4761696e, 4b657947}</effectid>
									<effecttype>filter</effecttype>
									<mediatype>audio</mediatype>
									<parameter authoringApp="PremierePro">
										<parameterid>Gain(dB)</parameterid>
										<name>Gain(dB)</name>
										<valuemin>-96</valuemin>
										<valuemax>96</valuemax>
										<value>-18</value>
									</parameter>
								</effect>
							</filter>
						<link>
							<linkclipref>clipitem-363</linkclipref>
							<mediatype>audio</mediatype>
							<trackindex>13</trackindex>
							<clipindex>36</clipindex>
							<groupindex>1</groupindex>
						</link>
						<link>
							<linkclipref>clipitem-402</linkclipref>
							<mediatype>audio</mediatype>
							<trackindex>14</trackindex>
							<clipindex>28</clipindex>
							<groupindex>1</groupindex>
						</link>
						<logginginfo>
							<description></description>
							<scene></scene>
							<shottake></shottake>
							<lognote></lognote>
						</logginginfo>
						<labels>
							<label2>Rose</label2>
						</labels>
					</clipitem>
					<transitionitem>
						<start>18084</start>
						<end>18123</end>
						<alignment>center</alignment>
						<cutPointTicks>193052160000</cutPointTicks>
						<rate>
							<timebase>25</timebase>
							<ntsc>FALSE</ntsc>
						</rate>
						<effect>
							<name>Cross Fade (+3dB)</name>
							<effectid>KGAudioTransCrossFade3dB</effectid>
							<effecttype>transition</effecttype>
							<mediatype>audio</mediatype>
							<wipecode>0</wipecode>
							<wipeaccuracy>100</wipeaccuracy>
							<startratio>0</startratio>
							<endratio>1</endratio>
							<reverse>FALSE</reverse>
						</effect>
					</transitionitem>
					<clipitem id="clipitem-403" premiereChannelType="stereo">
						<masterclipid>masterclip-106</masterclipid>
						<name>NONRE606146HD0003 PMW (All I Really Need).wav</name>
						<enabled>TRUE</enabled>
						<duration>5869</duration>
						<rate>
							<timebase>25</timebase>
							<ntsc>FALSE</ntsc>
						</rate>
						<start>-1</start>
						<end>-1</end>
						<in>2391</in>
						<out>2949</out>
						<pproTicksIn>24294090240000</pproTicksIn>
						<pproTicksOut>29963727360000</pproTicksOut>
						<file id="file-100"/>
						<sourcetrack>
							<mediatype>audio</mediatype>
							<trackindex>2</trackindex>
						</sourcetrack>
							<filter>
								<effect>
									<name>Gain</name>
									<effectid>{61756678, 4761696e, 4b657947}</effectid>
									<effecttype>filter</effecttype>
									<mediatype>audio</mediatype>
									<parameter authoringApp="PremierePro">
										<parameterid>Gain(dB)</parameterid>
										<name>Gain(dB)</name>
										<valuemin>-96</valuemin>
										<valuemax>96</valuemax>
										<value>-26</value>
									</parameter>
								</effect>
							</filter>
						<link>
							<linkclipref>clipitem-364</linkclipref>
							<mediatype>audio</mediatype>
							<trackindex>13</trackindex>
							<clipindex>38</clipindex>
							<groupindex>1</groupindex>
						</link>
						<link>
							<linkclipref>clipitem-403</linkclipref>
							<mediatype>audio</mediatype>
							<trackindex>14</trackindex>
							<clipindex>30</clipindex>
							<groupindex>1</groupindex>
						</link>
						<logginginfo>
							<description></description>
							<scene></scene>
							<shottake></shottake>
							<lognote></lognote>
						</logginginfo>
						<labels>
							<label2>Rose</label2>
						</labels>
					</clipitem>
					<transitionitem>
						<start>18596</start>
						<end>18642</end>
						<alignment>end-black</alignment>
						<cutPointTicks>467389440000</cutPointTicks>
						<rate>
							<timebase>25</timebase>
							<ntsc>FALSE</ntsc>
						</rate>
						<effect>
							<name>Cross Fade (+3dB)</name>
							<effectid>KGAudioTransCrossFade3dB</effectid>
							<effecttype>transition</effecttype>
							<mediatype>audio</mediatype>
							<wipecode>0</wipecode>
							<wipeaccuracy>100</wipeaccuracy>
							<startratio>0</startratio>
							<endratio>1</endratio>
							<reverse>FALSE</reverse>
						</effect>
					</transitionitem>
					<clipitem id="clipitem-404" premiereChannelType="stereo">
						<masterclipid>masterclip-107</masterclipid>
						<name>328212__creativesoundeffects__woosh-3.wav</name>
						<enabled>TRUE</enabled>
						<duration>25</duration>
						<rate>
							<timebase>25</timebase>
							<ntsc>FALSE</ntsc>
						</rate>
						<start>18952</start>
						<end>18977</end>
						<in>0</in>
						<out>25</out>
						<pproTicksIn>0</pproTicksIn>
						<pproTicksOut>254016000000</pproTicksOut>
						<file id="file-101"/>
						<sourcetrack>
							<mediatype>audio</mediatype>
							<trackindex>2</trackindex>
						</sourcetrack>
							<filter>
								<effect>
									<name>Gain</name>
									<effectid>{61756678, 4761696e, 4b657947}</effectid>
									<effecttype>filter</effecttype>
									<mediatype>audio</mediatype>
									<parameter authoringApp="PremierePro">
										<parameterid>Gain(dB)</parameterid>
										<name>Gain(dB)</name>
										<valuemin>-96</valuemin>
										<valuemax>96</valuemax>
										<value>-5</value>
									</parameter>
								</effect>
							</filter>
						<link>
							<linkclipref>clipitem-365</linkclipref>
							<mediatype>audio</mediatype>
							<trackindex>13</trackindex>
							<clipindex>40</clipindex>
							<groupindex>1</groupindex>
						</link>
						<link>
							<linkclipref>clipitem-404</linkclipref>
							<mediatype>audio</mediatype>
							<trackindex>14</trackindex>
							<clipindex>32</clipindex>
							<groupindex>1</groupindex>
						</link>
						<logginginfo>
							<description></description>
							<scene></scene>
							<shottake></shottake>
							<lognote></lognote>
						</logginginfo>
						<labels>
							<label2>Caribbean</label2>
						</labels>
					</clipitem>
					<clipitem id="clipitem-405" premiereChannelType="stereo">
						<masterclipid>masterclip-108</masterclipid>
						<name>319606__vehicle__paralyzer-discharge-01.wav</name>
						<enabled>TRUE</enabled>
						<duration>22</duration>
						<rate>
							<timebase>25</timebase>
							<ntsc>FALSE</ntsc>
						</rate>
						<start>22904</start>
						<end>22926</end>
						<in>0</in>
						<out>22</out>
						<pproTicksIn>0</pproTicksIn>
						<pproTicksOut>223534080000</pproTicksOut>
						<file id="file-102"/>
						<sourcetrack>
							<mediatype>audio</mediatype>
							<trackindex>2</trackindex>
						</sourcetrack>
							<filter>
								<effect>
									<name>Gain</name>
									<effectid>{61756678, 4761696e, 4b657947}</effectid>
									<effecttype>filter</effecttype>
									<mediatype>audio</mediatype>
									<parameter authoringApp="PremierePro">
										<parameterid>Gain(dB)</parameterid>
										<name>Gain(dB)</name>
										<valuemin>-96</valuemin>
										<valuemax>96</valuemax>
										<value>-9</value>
									</parameter>
								</effect>
							</filter>
						<link>
							<linkclipref>clipitem-366</linkclipref>
							<mediatype>audio</mediatype>
							<trackindex>13</trackindex>
							<clipindex>41</clipindex>
							<groupindex>1</groupindex>
						</link>
						<link>
							<linkclipref>clipitem-405</linkclipref>
							<mediatype>audio</mediatype>
							<trackindex>14</trackindex>
							<clipindex>33</clipindex>
							<groupindex>1</groupindex>
						</link>
						<logginginfo>
							<description></description>
							<scene></scene>
							<shottake></shottake>
							<lognote></lognote>
						</logginginfo>
						<labels>
							<label2>Caribbean</label2>
						</labels>
					</clipitem>
					<clipitem id="clipitem-406" premiereChannelType="stereo">
						<masterclipid>masterclip-108</masterclipid>
						<name>319606__vehicle__paralyzer-discharge-01.wav</name>
						<enabled>TRUE</enabled>
						<duration>22</duration>
						<rate>
							<timebase>25</timebase>
							<ntsc>FALSE</ntsc>
						</rate>
						<start>22963</start>
						<end>22985</end>
						<in>0</in>
						<out>22</out>
						<pproTicksIn>0</pproTicksIn>
						<pproTicksOut>223534080000</pproTicksOut>
						<file id="file-102"/>
						<sourcetrack>
							<mediatype>audio</mediatype>
							<trackindex>2</trackindex>
						</sourcetrack>
							<filter>
								<effect>
									<name>Gain</name>
									<effectid>{61756678, 4761696e, 4b657947}</effectid>
									<effecttype>filter</effecttype>
									<mediatype>audio</mediatype>
									<parameter authoringApp="PremierePro">
										<parameterid>Gain(dB)</parameterid>
										<name>Gain(dB)</name>
										<valuemin>-96</valuemin>
										<valuemax>96</valuemax>
										<value>-9</value>
									</parameter>
								</effect>
							</filter>
						<link>
							<linkclipref>clipitem-367</linkclipref>
							<mediatype>audio</mediatype>
							<trackindex>13</trackindex>
							<clipindex>42</clipindex>
							<groupindex>1</groupindex>
						</link>
						<link>
							<linkclipref>clipitem-406</linkclipref>
							<mediatype>audio</mediatype>
							<trackindex>14</trackindex>
							<clipindex>34</clipindex>
							<groupindex>1</groupindex>
						</link>
						<logginginfo>
							<description></description>
							<scene></scene>
							<shottake></shottake>
							<lognote></lognote>
						</logginginfo>
						<labels>
							<label2>Caribbean</label2>
						</labels>
					</clipitem>
					<transitionitem>
						<start>23156</start>
						<end>23165</end>
						<alignment>start-black</alignment>
						<cutPointTicks>0</cutPointTicks>
						<rate>
							<timebase>25</timebase>
							<ntsc>FALSE</ntsc>
						</rate>
						<effect>
							<name>Cross Fade (+3dB)</name>
							<effectid>KGAudioTransCrossFade3dB</effectid>
							<effecttype>transition</effecttype>
							<mediatype>audio</mediatype>
							<wipecode>0</wipecode>
							<wipeaccuracy>100</wipeaccuracy>
							<startratio>0</startratio>
							<endratio>1</endratio>
							<reverse>FALSE</reverse>
						</effect>
					</transitionitem>
					<clipitem id="clipitem-407" premiereChannelType="stereo">
						<masterclipid>masterclip-109</masterclipid>
						<name>160612__primeval-polypod__door-slam.wav</name>
						<enabled>TRUE</enabled>
						<duration>51</duration>
						<rate>
							<timebase>25</timebase>
							<ntsc>FALSE</ntsc>
						</rate>
						<start>-1</start>
						<end>-1</end>
						<in>0</in>
						<out>18</out>
						<pproTicksIn>0</pproTicksIn>
						<pproTicksOut>182891520000</pproTicksOut>
						<file id="file-103"/>
						<sourcetrack>
							<mediatype>audio</mediatype>
							<trackindex>2</trackindex>
						</sourcetrack>
							<filter>
								<effect>
									<name>Gain</name>
									<effectid>{61756678, 4761696e, 4b657947}</effectid>
									<effecttype>filter</effecttype>
									<mediatype>audio</mediatype>
									<parameter authoringApp="PremierePro">
										<parameterid>Gain(dB)</parameterid>
										<name>Gain(dB)</name>
										<valuemin>-96</valuemin>
										<valuemax>96</valuemax>
										<value>-18</value>
									</parameter>
								</effect>
							</filter>
						<link>
							<linkclipref>clipitem-368</linkclipref>
							<mediatype>audio</mediatype>
							<trackindex>13</trackindex>
							<clipindex>44</clipindex>
							<groupindex>1</groupindex>
						</link>
						<link>
							<linkclipref>clipitem-407</linkclipref>
							<mediatype>audio</mediatype>
							<trackindex>14</trackindex>
							<clipindex>36</clipindex>
							<groupindex>1</groupindex>
						</link>
						<logginginfo>
							<description></description>
							<scene></scene>
							<shottake></shottake>
							<lognote></lognote>
						</logginginfo>
						<labels>
							<label2>Caribbean</label2>
						</labels>
					</clipitem>
					<transitionitem>
						<start>23165</start>
						<end>23174</end>
						<alignment>start</alignment>
						<cutPointTicks>0</cutPointTicks>
						<rate>
							<timebase>25</timebase>
							<ntsc>FALSE</ntsc>
						</rate>
						<effect>
							<name>Cross Fade (+3dB)</name>
							<effectid>KGAudioTransCrossFade3dB</effectid>
							<effecttype>transition</effecttype>
							<mediatype>audio</mediatype>
							<wipecode>0</wipecode>
							<wipeaccuracy>100</wipeaccuracy>
							<startratio>0</startratio>
							<endratio>1</endratio>
							<reverse>FALSE</reverse>
						</effect>
					</transitionitem>
					<clipitem id="clipitem-408" premiereChannelType="stereo">
						<masterclipid>masterclip-109</masterclipid>
						<name>160612__primeval-polypod__door-slam.wav</name>
						<enabled>TRUE</enabled>
						<duration>51</duration>
						<rate>
							<timebase>25</timebase>
							<ntsc>FALSE</ntsc>
						</rate>
						<start>-1</start>
						<end>-1</end>
						<in>0</in>
						<out>18</out>
						<pproTicksIn>0</pproTicksIn>
						<pproTicksOut>182891520000</pproTicksOut>
						<file id="file-103"/>
						<sourcetrack>
							<mediatype>audio</mediatype>
							<trackindex>2</trackindex>
						</sourcetrack>
							<filter>
								<effect>
									<name>Gain</name>
									<effectid>{61756678, 4761696e, 4b657947}</effectid>
									<effecttype>filter</effecttype>
									<mediatype>audio</mediatype>
									<parameter authoringApp="PremierePro">
										<parameterid>Gain(dB)</parameterid>
										<name>Gain(dB)</name>
										<valuemin>-96</valuemin>
										<valuemax>96</valuemax>
										<value>-18</value>
									</parameter>
								</effect>
							</filter>
						<link>
							<linkclipref>clipitem-369</linkclipref>
							<mediatype>audio</mediatype>
							<trackindex>13</trackindex>
							<clipindex>46</clipindex>
							<groupindex>1</groupindex>
						</link>
						<link>
							<linkclipref>clipitem-408</linkclipref>
							<mediatype>audio</mediatype>
							<trackindex>14</trackindex>
							<clipindex>38</clipindex>
							<groupindex>1</groupindex>
						</link>
						<logginginfo>
							<description></description>
							<scene></scene>
							<shottake></shottake>
							<lognote></lognote>
						</logginginfo>
						<labels>
							<label2>Caribbean</label2>
						</labels>
					</clipitem>
					<transitionitem>
						<start>23174</start>
						<end>23183</end>
						<alignment>start</alignment>
						<cutPointTicks>0</cutPointTicks>
						<rate>
							<timebase>25</timebase>
							<ntsc>FALSE</ntsc>
						</rate>
						<effect>
							<name>Cross Fade (+3dB)</name>
							<effectid>KGAudioTransCrossFade3dB</effectid>
							<effecttype>transition</effecttype>
							<mediatype>audio</mediatype>
							<wipecode>0</wipecode>
							<wipeaccuracy>100</wipeaccuracy>
							<startratio>0</startratio>
							<endratio>1</endratio>
							<reverse>FALSE</reverse>
						</effect>
					</transitionitem>
					<clipitem id="clipitem-409" premiereChannelType="stereo">
						<masterclipid>masterclip-109</masterclipid>
						<name>160612__primeval-polypod__door-slam.wav</name>
						<enabled>TRUE</enabled>
						<duration>51</duration>
						<rate>
							<timebase>25</timebase>
							<ntsc>FALSE</ntsc>
						</rate>
						<start>-1</start>
						<end>-1</end>
						<in>0</in>
						<out>18</out>
						<pproTicksIn>0</pproTicksIn>
						<pproTicksOut>182891520000</pproTicksOut>
						<file id="file-103"/>
						<sourcetrack>
							<mediatype>audio</mediatype>
							<trackindex>2</trackindex>
						</sourcetrack>
							<filter>
								<effect>
									<name>Gain</name>
									<effectid>{61756678, 4761696e, 4b657947}</effectid>
									<effecttype>filter</effecttype>
									<mediatype>audio</mediatype>
									<parameter authoringApp="PremierePro">
										<parameterid>Gain(dB)</parameterid>
										<name>Gain(dB)</name>
										<valuemin>-96</valuemin>
										<valuemax>96</valuemax>
										<value>-18</value>
									</parameter>
								</effect>
							</filter>
						<link>
							<linkclipref>clipitem-370</linkclipref>
							<mediatype>audio</mediatype>
							<trackindex>13</trackindex>
							<clipindex>48</clipindex>
							<groupindex>1</groupindex>
						</link>
						<link>
							<linkclipref>clipitem-409</linkclipref>
							<mediatype>audio</mediatype>
							<trackindex>14</trackindex>
							<clipindex>40</clipindex>
							<groupindex>1</groupindex>
						</link>
						<logginginfo>
							<description></description>
							<scene></scene>
							<shottake></shottake>
							<lognote></lognote>
						</logginginfo>
						<labels>
							<label2>Caribbean</label2>
						</labels>
					</clipitem>
					<transitionitem>
						<start>23183</start>
						<end>23192</end>
						<alignment>start</alignment>
						<cutPointTicks>0</cutPointTicks>
						<rate>
							<timebase>25</timebase>
							<ntsc>FALSE</ntsc>
						</rate>
						<effect>
							<name>Cross Fade (+3dB)</name>
							<effectid>KGAudioTransCrossFade3dB</effectid>
							<effecttype>transition</effecttype>
							<mediatype>audio</mediatype>
							<wipecode>0</wipecode>
							<wipeaccuracy>100</wipeaccuracy>
							<startratio>0</startratio>
							<endratio>1</endratio>
							<reverse>FALSE</reverse>
						</effect>
					</transitionitem>
					<clipitem id="clipitem-410" premiereChannelType="stereo">
						<masterclipid>masterclip-109</masterclipid>
						<name>160612__primeval-polypod__door-slam.wav</name>
						<enabled>TRUE</enabled>
						<duration>51</duration>
						<rate>
							<timebase>25</timebase>
							<ntsc>FALSE</ntsc>
						</rate>
						<start>-1</start>
						<end>-1</end>
						<in>0</in>
						<out>18</out>
						<pproTicksIn>0</pproTicksIn>
						<pproTicksOut>182891520000</pproTicksOut>
						<file id="file-103"/>
						<sourcetrack>
							<mediatype>audio</mediatype>
							<trackindex>2</trackindex>
						</sourcetrack>
							<filter>
								<effect>
									<name>Gain</name>
									<effectid>{61756678, 4761696e, 4b657947}</effectid>
									<effecttype>filter</effecttype>
									<mediatype>audio</mediatype>
									<parameter authoringApp="PremierePro">
										<parameterid>Gain(dB)</parameterid>
										<name>Gain(dB)</name>
										<valuemin>-96</valuemin>
										<valuemax>96</valuemax>
										<value>-18</value>
									</parameter>
								</effect>
							</filter>
						<link>
							<linkclipref>clipitem-371</linkclipref>
							<mediatype>audio</mediatype>
							<trackindex>13</trackindex>
							<clipindex>50</clipindex>
							<groupindex>1</groupindex>
						</link>
						<link>
							<linkclipref>clipitem-410</linkclipref>
							<mediatype>audio</mediatype>
							<trackindex>14</trackindex>
							<clipindex>42</clipindex>
							<groupindex>1</groupindex>
						</link>
						<logginginfo>
							<description></description>
							<scene></scene>
							<shottake></shottake>
							<lognote></lognote>
						</logginginfo>
						<labels>
							<label2>Caribbean</label2>
						</labels>
					</clipitem>
					<transitionitem>
						<start>23192</start>
						<end>23201</end>
						<alignment>start</alignment>
						<cutPointTicks>0</cutPointTicks>
						<rate>
							<timebase>25</timebase>
							<ntsc>FALSE</ntsc>
						</rate>
						<effect>
							<name>Cross Fade (+3dB)</name>
							<effectid>KGAudioTransCrossFade3dB</effectid>
							<effecttype>transition</effecttype>
							<mediatype>audio</mediatype>
							<wipecode>0</wipecode>
							<wipeaccuracy>100</wipeaccuracy>
							<startratio>0</startratio>
							<endratio>1</endratio>
							<reverse>FALSE</reverse>
						</effect>
					</transitionitem>
					<clipitem id="clipitem-411" premiereChannelType="stereo">
						<masterclipid>masterclip-109</masterclipid>
						<name>160612__primeval-polypod__door-slam.wav</name>
						<enabled>TRUE</enabled>
						<duration>51</duration>
						<rate>
							<timebase>25</timebase>
							<ntsc>FALSE</ntsc>
						</rate>
						<start>-1</start>
						<end>-1</end>
						<in>0</in>
						<out>22</out>
						<pproTicksIn>0</pproTicksIn>
						<pproTicksOut>223534080000</pproTicksOut>
						<file id="file-103"/>
						<sourcetrack>
							<mediatype>audio</mediatype>
							<trackindex>2</trackindex>
						</sourcetrack>
							<filter>
								<effect>
									<name>Gain</name>
									<effectid>{61756678, 4761696e, 4b657947}</effectid>
									<effecttype>filter</effecttype>
									<mediatype>audio</mediatype>
									<parameter authoringApp="PremierePro">
										<parameterid>Gain(dB)</parameterid>
										<name>Gain(dB)</name>
										<valuemin>-96</valuemin>
										<valuemax>96</valuemax>
										<value>-18</value>
									</parameter>
								</effect>
							</filter>
						<link>
							<linkclipref>clipitem-372</linkclipref>
							<mediatype>audio</mediatype>
							<trackindex>13</trackindex>
							<clipindex>52</clipindex>
							<groupindex>1</groupindex>
						</link>
						<link>
							<linkclipref>clipitem-411</linkclipref>
							<mediatype>audio</mediatype>
							<trackindex>14</trackindex>
							<clipindex>44</clipindex>
							<groupindex>1</groupindex>
						</link>
						<logginginfo>
							<description></description>
							<scene></scene>
							<shottake></shottake>
							<lognote></lognote>
						</logginginfo>
						<labels>
							<label2>Caribbean</label2>
						</labels>
					</clipitem>
					<transitionitem>
						<start>23201</start>
						<end>23214</end>
						<alignment>start</alignment>
						<cutPointTicks>0</cutPointTicks>
						<rate>
							<timebase>25</timebase>
							<ntsc>FALSE</ntsc>
						</rate>
						<effect>
							<name>Cross Fade (+3dB)</name>
							<effectid>KGAudioTransCrossFade3dB</effectid>
							<effecttype>transition</effecttype>
							<mediatype>audio</mediatype>
							<wipecode>0</wipecode>
							<wipeaccuracy>100</wipeaccuracy>
							<startratio>0</startratio>
							<endratio>1</endratio>
							<reverse>FALSE</reverse>
						</effect>
					</transitionitem>
					<clipitem id="clipitem-412" premiereChannelType="stereo">
						<masterclipid>masterclip-109</masterclipid>
						<name>160612__primeval-polypod__door-slam.wav</name>
						<enabled>TRUE</enabled>
						<duration>51</duration>
						<rate>
							<timebase>25</timebase>
							<ntsc>FALSE</ntsc>
						</rate>
						<start>-1</start>
						<end>23252</end>
						<in>0</in>
						<out>51</out>
						<pproTicksIn>0</pproTicksIn>
						<pproTicksOut>518192640000</pproTicksOut>
						<file id="file-103"/>
						<sourcetrack>
							<mediatype>audio</mediatype>
							<trackindex>2</trackindex>
						</sourcetrack>
							<filter>
								<effect>
									<name>Gain</name>
									<effectid>{61756678, 4761696e, 4b657947}</effectid>
									<effecttype>filter</effecttype>
									<mediatype>audio</mediatype>
									<parameter authoringApp="PremierePro">
										<parameterid>Gain(dB)</parameterid>
										<name>Gain(dB)</name>
										<valuemin>-96</valuemin>
										<valuemax>96</valuemax>
										<value>-18</value>
									</parameter>
								</effect>
							</filter>
						<link>
							<linkclipref>clipitem-373</linkclipref>
							<mediatype>audio</mediatype>
							<trackindex>13</trackindex>
							<clipindex>54</clipindex>
							<groupindex>1</groupindex>
						</link>
						<link>
							<linkclipref>clipitem-412</linkclipref>
							<mediatype>audio</mediatype>
							<trackindex>14</trackindex>
							<clipindex>46</clipindex>
							<groupindex>1</groupindex>
						</link>
						<logginginfo>
							<description></description>
							<scene></scene>
							<shottake></shottake>
							<lognote></lognote>
						</logginginfo>
						<labels>
							<label2>Caribbean</label2>
						</labels>
					</clipitem>
					<clipitem id="clipitem-413" premiereChannelType="stereo">
						<masterclipid>masterclip-110</masterclipid>
						<name>STTV000723.wav</name>
						<enabled>TRUE</enabled>
						<duration>1627</duration>
						<rate>
							<timebase>25</timebase>
							<ntsc>FALSE</ntsc>
						</rate>
						<start>23366</start>
						<end>23470</end>
						<in>1446</in>
						<out>1550</out>
						<pproTicksIn>14692285440000</pproTicksIn>
						<pproTicksOut>15748992000000</pproTicksOut>
						<file id="file-104"/>
						<sourcetrack>
							<mediatype>audio</mediatype>
							<trackindex>2</trackindex>
						</sourcetrack>
							<filter>
								<effect>
									<name>Gain</name>
									<effectid>{61756678, 4761696e, 4b657947}</effectid>
									<effecttype>filter</effecttype>
									<mediatype>audio</mediatype>
									<parameter authoringApp="PremierePro">
										<parameterid>Gain(dB)</parameterid>
										<name>Gain(dB)</name>
										<valuemin>-96</valuemin>
										<valuemax>96</valuemax>
										<value>-18</value>
									</parameter>
								</effect>
							</filter>
						<link>
							<linkclipref>clipitem-374</linkclipref>
							<mediatype>audio</mediatype>
							<trackindex>13</trackindex>
							<clipindex>55</clipindex>
							<groupindex>1</groupindex>
						</link>
						<link>
							<linkclipref>clipitem-413</linkclipref>
							<mediatype>audio</mediatype>
							<trackindex>14</trackindex>
							<clipindex>47</clipindex>
							<groupindex>1</groupindex>
						</link>
						<logginginfo>
							<description></description>
							<scene></scene>
							<shottake></shottake>
							<lognote></lognote>
						</logginginfo>
						<labels>
							<label2>Caribbean</label2>
						</labels>
					</clipitem>
					<transitionitem>
						<start>23846</start>
						<end>23859</end>
						<alignment>start-black</alignment>
						<cutPointTicks>0</cutPointTicks>
						<rate>
							<timebase>25</timebase>
							<ntsc>FALSE</ntsc>
						</rate>
						<effect>
							<name>Cross Fade (+3dB)</name>
							<effectid>KGAudioTransCrossFade3dB</effectid>
							<effecttype>transition</effecttype>
							<mediatype>audio</mediatype>
							<wipecode>0</wipecode>
							<wipeaccuracy>100</wipeaccuracy>
							<startratio>0</startratio>
							<endratio>1</endratio>
							<reverse>FALSE</reverse>
						</effect>
					</transitionitem>
					<clipitem id="clipitem-414" premiereChannelType="stereo">
						<masterclipid>masterclip-110</masterclipid>
						<name>STTV000723.wav</name>
						<enabled>TRUE</enabled>
						<duration>1627</duration>
						<rate>
							<timebase>25</timebase>
							<ntsc>FALSE</ntsc>
						</rate>
						<start>-1</start>
						<end>-1</end>
						<in>243</in>
						<out>337</out>
						<pproTicksIn>2469035520000</pproTicksIn>
						<pproTicksOut>3424135680000</pproTicksOut>
						<file id="file-104"/>
						<sourcetrack>
							<mediatype>audio</mediatype>
							<trackindex>2</trackindex>
						</sourcetrack>
							<filter>
								<effect>
									<name>Gain</name>
									<effectid>{61756678, 4761696e, 4b657947}</effectid>
									<effecttype>filter</effecttype>
									<mediatype>audio</mediatype>
									<parameter authoringApp="PremierePro">
										<parameterid>Gain(dB)</parameterid>
										<name>Gain(dB)</name>
										<valuemin>-96</valuemin>
										<valuemax>96</valuemax>
										<value>-12</value>
									</parameter>
								</effect>
							</filter>
						<link>
							<linkclipref>clipitem-375</linkclipref>
							<mediatype>audio</mediatype>
							<trackindex>13</trackindex>
							<clipindex>57</clipindex>
							<groupindex>1</groupindex>
						</link>
						<link>
							<linkclipref>clipitem-414</linkclipref>
							<mediatype>audio</mediatype>
							<trackindex>14</trackindex>
							<clipindex>49</clipindex>
							<groupindex>1</groupindex>
						</link>
						<logginginfo>
							<description></description>
							<scene></scene>
							<shottake></shottake>
							<lognote></lognote>
						</logginginfo>
						<labels>
							<label2>Caribbean</label2>
						</labels>
					</clipitem>
					<transitionitem>
						<start>23934</start>
						<end>23940</end>
						<alignment>end</alignment>
						<cutPointTicks>60963840000</cutPointTicks>
						<rate>
							<timebase>25</timebase>
							<ntsc>FALSE</ntsc>
						</rate>
						<effect>
							<name>Cross Fade (+3dB)</name>
							<effectid>KGAudioTransCrossFade3dB</effectid>
							<effecttype>transition</effecttype>
							<mediatype>audio</mediatype>
							<wipecode>0</wipecode>
							<wipeaccuracy>100</wipeaccuracy>
							<startratio>0</startratio>
							<endratio>1</endratio>
							<reverse>FALSE</reverse>
						</effect>
					</transitionitem>
					<clipitem id="clipitem-415" premiereChannelType="stereo">
						<masterclipid>masterclip-110</masterclipid>
						<name>STTV000723.wav</name>
						<enabled>TRUE</enabled>
						<duration>1627</duration>
						<rate>
							<timebase>25</timebase>
							<ntsc>FALSE</ntsc>
						</rate>
						<start>-1</start>
						<end>-1</end>
						<in>331</in>
						<out>372</out>
						<pproTicksIn>3363171840000</pproTicksIn>
						<pproTicksOut>3779758080000</pproTicksOut>
						<file id="file-104"/>
						<sourcetrack>
							<mediatype>audio</mediatype>
							<trackindex>2</trackindex>
						</sourcetrack>
							<filter>
								<effect>
									<name>Gain</name>
									<effectid>{61756678, 4761696e, 4b657947}</effectid>
									<effecttype>filter</effecttype>
									<mediatype>audio</mediatype>
									<parameter authoringApp="PremierePro">
										<parameterid>Gain(dB)</parameterid>
										<name>Gain(dB)</name>
										<valuemin>-96</valuemin>
										<valuemax>96</valuemax>
										<value>-21</value>
									</parameter>
								</effect>
							</filter>
						<link>
							<linkclipref>clipitem-376</linkclipref>
							<mediatype>audio</mediatype>
							<trackindex>13</trackindex>
							<clipindex>59</clipindex>
							<groupindex>1</groupindex>
						</link>
						<link>
							<linkclipref>clipitem-415</linkclipref>
							<mediatype>audio</mediatype>
							<trackindex>14</trackindex>
							<clipindex>51</clipindex>
							<groupindex>1</groupindex>
						</link>
						<logginginfo>
							<description></description>
							<scene></scene>
							<shottake></shottake>
							<lognote></lognote>
						</logginginfo>
						<labels>
							<label2>Caribbean</label2>
						</labels>
					</clipitem>
					<transitionitem>
						<start>23940</start>
						<end>23975</end>
						<alignment>end-black</alignment>
						<cutPointTicks>355622400000</cutPointTicks>
						<rate>
							<timebase>25</timebase>
							<ntsc>FALSE</ntsc>
						</rate>
						<effect>
							<name>Cross Fade (+3dB)</name>
							<effectid>KGAudioTransCrossFade3dB</effectid>
							<effecttype>transition</effecttype>
							<mediatype>audio</mediatype>
							<wipecode>0</wipecode>
							<wipeaccuracy>100</wipeaccuracy>
							<startratio>0</startratio>
							<endratio>1</endratio>
							<reverse>FALSE</reverse>
						</effect>
					</transitionitem>
					<clipitem id="clipitem-416" premiereChannelType="stereo">
						<masterclipid>masterclip-98</masterclipid>
						<name>264779__anthonychan0__civilian-stun-gun-1-10s-zap.wav</name>
						<enabled>TRUE</enabled>
						<duration>10</duration>
						<rate>
							<timebase>25</timebase>
							<ntsc>FALSE</ntsc>
						</rate>
						<start>24302</start>
						<end>24309</end>
						<in>3</in>
						<out>10</out>
						<pproTicksIn>30481920000</pproTicksIn>
						<pproTicksOut>101606400000</pproTicksOut>
						<file id="file-92"/>
						<sourcetrack>
							<mediatype>audio</mediatype>
							<trackindex>2</trackindex>
						</sourcetrack>
							<filter>
								<effect>
									<name>Gain</name>
									<effectid>{61756678, 4761696e, 4b657947}</effectid>
									<effecttype>filter</effecttype>
									<mediatype>audio</mediatype>
									<parameter authoringApp="PremierePro">
										<parameterid>Gain(dB)</parameterid>
										<name>Gain(dB)</name>
										<valuemin>-96</valuemin>
										<valuemax>96</valuemax>
										<value>-9</value>
									</parameter>
								</effect>
							</filter>
						<link>
							<linkclipref>clipitem-377</linkclipref>
							<mediatype>audio</mediatype>
							<trackindex>13</trackindex>
							<clipindex>61</clipindex>
							<groupindex>1</groupindex>
						</link>
						<link>
							<linkclipref>clipitem-416</linkclipref>
							<mediatype>audio</mediatype>
							<trackindex>14</trackindex>
							<clipindex>53</clipindex>
							<groupindex>1</groupindex>
						</link>
						<logginginfo>
							<description></description>
							<scene></scene>
							<shottake></shottake>
							<lognote></lognote>
						</logginginfo>
						<labels>
							<label2>Caribbean</label2>
						</labels>
					</clipitem>
					<clipitem id="clipitem-417" premiereChannelType="stereo">
						<masterclipid>masterclip-98</masterclipid>
						<name>264779__anthonychan0__civilian-stun-gun-1-10s-zap.wav</name>
						<enabled>TRUE</enabled>
						<duration>10</duration>
						<rate>
							<timebase>25</timebase>
							<ntsc>FALSE</ntsc>
						</rate>
						<start>24644</start>
						<end>24651</end>
						<in>3</in>
						<out>10</out>
						<pproTicksIn>30481920000</pproTicksIn>
						<pproTicksOut>101606400000</pproTicksOut>
						<file id="file-92"/>
						<sourcetrack>
							<mediatype>audio</mediatype>
							<trackindex>2</trackindex>
						</sourcetrack>
							<filter>
								<effect>
									<name>Gain</name>
									<effectid>{61756678, 4761696e, 4b657947}</effectid>
									<effecttype>filter</effecttype>
									<mediatype>audio</mediatype>
									<parameter authoringApp="PremierePro">
										<parameterid>Gain(dB)</parameterid>
										<name>Gain(dB)</name>
										<valuemin>-96</valuemin>
										<valuemax>96</valuemax>
										<value>-9</value>
									</parameter>
								</effect>
							</filter>
						<link>
							<linkclipref>clipitem-378</linkclipref>
							<mediatype>audio</mediatype>
							<trackindex>13</trackindex>
							<clipindex>62</clipindex>
							<groupindex>1</groupindex>
						</link>
						<link>
							<linkclipref>clipitem-417</linkclipref>
							<mediatype>audio</mediatype>
							<trackindex>14</trackindex>
							<clipindex>54</clipindex>
							<groupindex>1</groupindex>
						</link>
						<logginginfo>
							<description></description>
							<scene></scene>
							<shottake></shottake>
							<lognote></lognote>
						</logginginfo>
						<labels>
							<label2>Caribbean</label2>
						</labels>
					</clipitem>
					<clipitem id="clipitem-418" premiereChannelType="stereo">
						<masterclipid>masterclip-98</masterclipid>
						<name>264779__anthonychan0__civilian-stun-gun-1-10s-zap.wav</name>
						<enabled>TRUE</enabled>
						<duration>10</duration>
						<rate>
							<timebase>25</timebase>
							<ntsc>FALSE</ntsc>
						</rate>
						<start>24866</start>
						<end>24873</end>
						<in>3</in>
						<out>10</out>
						<pproTicksIn>30481920000</pproTicksIn>
						<pproTicksOut>101606400000</pproTicksOut>
						<file id="file-92"/>
						<sourcetrack>
							<mediatype>audio</mediatype>
							<trackindex>2</trackindex>
						</sourcetrack>
							<filter>
								<effect>
									<name>Gain</name>
									<effectid>{61756678, 4761696e, 4b657947}</effectid>
									<effecttype>filter</effecttype>
									<mediatype>audio</mediatype>
									<parameter authoringApp="PremierePro">
										<parameterid>Gain(dB)</parameterid>
										<name>Gain(dB)</name>
										<valuemin>-96</valuemin>
										<valuemax>96</valuemax>
										<value>-12</value>
									</parameter>
								</effect>
							</filter>
						<link>
							<linkclipref>clipitem-379</linkclipref>
							<mediatype>audio</mediatype>
							<trackindex>13</trackindex>
							<clipindex>63</clipindex>
							<groupindex>1</groupindex>
						</link>
						<link>
							<linkclipref>clipitem-418</linkclipref>
							<mediatype>audio</mediatype>
							<trackindex>14</trackindex>
							<clipindex>55</clipindex>
							<groupindex>1</groupindex>
						</link>
						<logginginfo>
							<description></description>
							<scene></scene>
							<shottake></shottake>
							<lognote></lognote>
						</logginginfo>
						<labels>
							<label2>Caribbean</label2>
						</labels>
					</clipitem>
					<clipitem id="clipitem-419" premiereChannelType="stereo">
						<masterclipid>masterclip-98</masterclipid>
						<name>264779__anthonychan0__civilian-stun-gun-1-10s-zap.wav</name>
						<enabled>TRUE</enabled>
						<duration>10</duration>
						<rate>
							<timebase>25</timebase>
							<ntsc>FALSE</ntsc>
						</rate>
						<start>25028</start>
						<end>25035</end>
						<in>3</in>
						<out>10</out>
						<pproTicksIn>30481920000</pproTicksIn>
						<pproTicksOut>101606400000</pproTicksOut>
						<file id="file-92"/>
						<sourcetrack>
							<mediatype>audio</mediatype>
							<trackindex>2</trackindex>
						</sourcetrack>
							<filter>
								<effect>
									<name>Gain</name>
									<effectid>{61756678, 4761696e, 4b657947}</effectid>
									<effecttype>filter</effecttype>
									<mediatype>audio</mediatype>
									<parameter authoringApp="PremierePro">
										<parameterid>Gain(dB)</parameterid>
										<name>Gain(dB)</name>
										<valuemin>-96</valuemin>
										<valuemax>96</valuemax>
										<value>-12</value>
									</parameter>
								</effect>
							</filter>
						<link>
							<linkclipref>clipitem-380</linkclipref>
							<mediatype>audio</mediatype>
							<trackindex>13</trackindex>
							<clipindex>64</clipindex>
							<groupindex>1</groupindex>
						</link>
						<link>
							<linkclipref>clipitem-419</linkclipref>
							<mediatype>audio</mediatype>
							<trackindex>14</trackindex>
							<clipindex>56</clipindex>
							<groupindex>1</groupindex>
						</link>
						<logginginfo>
							<description></description>
							<scene></scene>
							<shottake></shottake>
							<lognote></lognote>
						</logginginfo>
						<labels>
							<label2>Caribbean</label2>
						</labels>
					</clipitem>
					<clipitem id="clipitem-420" premiereChannelType="stereo">
						<masterclipid>masterclip-98</masterclipid>
						<name>264779__anthonychan0__civilian-stun-gun-1-10s-zap.wav</name>
						<enabled>TRUE</enabled>
						<duration>10</duration>
						<rate>
							<timebase>25</timebase>
							<ntsc>FALSE</ntsc>
						</rate>
						<start>25412</start>
						<end>25419</end>
						<in>3</in>
						<out>10</out>
						<pproTicksIn>30481920000</pproTicksIn>
						<pproTicksOut>101606400000</pproTicksOut>
						<file id="file-92"/>
						<sourcetrack>
							<mediatype>audio</mediatype>
							<trackindex>2</trackindex>
						</sourcetrack>
							<filter>
								<effect>
									<name>Gain</name>
									<effectid>{61756678, 4761696e, 4b657947}</effectid>
									<effecttype>filter</effecttype>
									<mediatype>audio</mediatype>
									<parameter authoringApp="PremierePro">
										<parameterid>Gain(dB)</parameterid>
										<name>Gain(dB)</name>
										<valuemin>-96</valuemin>
										<valuemax>96</valuemax>
										<value>-12</value>
									</parameter>
								</effect>
							</filter>
						<link>
							<linkclipref>clipitem-381</linkclipref>
							<mediatype>audio</mediatype>
							<trackindex>13</trackindex>
							<clipindex>65</clipindex>
							<groupindex>1</groupindex>
						</link>
						<link>
							<linkclipref>clipitem-420</linkclipref>
							<mediatype>audio</mediatype>
							<trackindex>14</trackindex>
							<clipindex>57</clipindex>
							<groupindex>1</groupindex>
						</link>
						<logginginfo>
							<description></description>
							<scene></scene>
							<shottake></shottake>
							<lognote></lognote>
						</logginginfo>
						<labels>
							<label2>Caribbean</label2>
						</labels>
					</clipitem>
					<clipitem id="clipitem-421" premiereChannelType="stereo">
						<masterclipid>masterclip-98</masterclipid>
						<name>264779__anthonychan0__civilian-stun-gun-1-10s-zap.wav</name>
						<enabled>TRUE</enabled>
						<duration>10</duration>
						<rate>
							<timebase>25</timebase>
							<ntsc>FALSE</ntsc>
						</rate>
						<start>25654</start>
						<end>25661</end>
						<in>3</in>
						<out>10</out>
						<pproTicksIn>30481920000</pproTicksIn>
						<pproTicksOut>101606400000</pproTicksOut>
						<file id="file-92"/>
						<sourcetrack>
							<mediatype>audio</mediatype>
							<trackindex>2</trackindex>
						</sourcetrack>
							<filter>
								<effect>
									<name>Gain</name>
									<effectid>{61756678, 4761696e, 4b657947}</effectid>
									<effecttype>filter</effecttype>
									<mediatype>audio</mediatype>
									<parameter authoringApp="PremierePro">
										<parameterid>Gain(dB)</parameterid>
										<name>Gain(dB)</name>
										<valuemin>-96</valuemin>
										<valuemax>96</valuemax>
										<value>-12</value>
									</parameter>
								</effect>
							</filter>
						<link>
							<linkclipref>clipitem-382</linkclipref>
							<mediatype>audio</mediatype>
							<trackindex>13</trackindex>
							<clipindex>66</clipindex>
							<groupindex>1</groupindex>
						</link>
						<link>
							<linkclipref>clipitem-421</linkclipref>
							<mediatype>audio</mediatype>
							<trackindex>14</trackindex>
							<clipindex>58</clipindex>
							<groupindex>1</groupindex>
						</link>
						<logginginfo>
							<description></description>
							<scene></scene>
							<shottake></shottake>
							<lognote></lognote>
						</logginginfo>
						<labels>
							<label2>Caribbean</label2>
						</labels>
					</clipitem>
					<clipitem id="clipitem-422" premiereChannelType="stereo">
						<masterclipid>masterclip-98</masterclipid>
						<name>264779__anthonychan0__civilian-stun-gun-1-10s-zap.wav</name>
						<enabled>TRUE</enabled>
						<duration>10</duration>
						<rate>
							<timebase>25</timebase>
							<ntsc>FALSE</ntsc>
						</rate>
						<start>25969</start>
						<end>25976</end>
						<in>3</in>
						<out>10</out>
						<pproTicksIn>30481920000</pproTicksIn>
						<pproTicksOut>101606400000</pproTicksOut>
						<file id="file-92"/>
						<sourcetrack>
							<mediatype>audio</mediatype>
							<trackindex>2</trackindex>
						</sourcetrack>
							<filter>
								<effect>
									<name>Gain</name>
									<effectid>{61756678, 4761696e, 4b657947}</effectid>
									<effecttype>filter</effecttype>
									<mediatype>audio</mediatype>
									<parameter authoringApp="PremierePro">
										<parameterid>Gain(dB)</parameterid>
										<name>Gain(dB)</name>
										<valuemin>-96</valuemin>
										<valuemax>96</valuemax>
										<value>-12</value>
									</parameter>
								</effect>
							</filter>
						<link>
							<linkclipref>clipitem-383</linkclipref>
							<mediatype>audio</mediatype>
							<trackindex>13</trackindex>
							<clipindex>67</clipindex>
							<groupindex>1</groupindex>
						</link>
						<link>
							<linkclipref>clipitem-422</linkclipref>
							<mediatype>audio</mediatype>
							<trackindex>14</trackindex>
							<clipindex>59</clipindex>
							<groupindex>1</groupindex>
						</link>
						<logginginfo>
							<description></description>
							<scene></scene>
							<shottake></shottake>
							<lognote></lognote>
						</logginginfo>
						<labels>
							<label2>Caribbean</label2>
						</labels>
					</clipitem>
					<clipitem id="clipitem-423" premiereChannelType="stereo">
						<masterclipid>masterclip-98</masterclipid>
						<name>264779__anthonychan0__civilian-stun-gun-1-10s-zap.wav</name>
						<enabled>TRUE</enabled>
						<duration>10</duration>
						<rate>
							<timebase>25</timebase>
							<ntsc>FALSE</ntsc>
						</rate>
						<start>26288</start>
						<end>-1</end>
						<in>3</in>
						<out>10</out>
						<pproTicksIn>30481920000</pproTicksIn>
						<pproTicksOut>101606400000</pproTicksOut>
						<file id="file-92"/>
						<sourcetrack>
							<mediatype>audio</mediatype>
							<trackindex>2</trackindex>
						</sourcetrack>
							<filter>
								<effect>
									<name>Gain</name>
									<effectid>{61756678, 4761696e, 4b657947}</effectid>
									<effecttype>filter</effecttype>
									<mediatype>audio</mediatype>
									<parameter authoringApp="PremierePro">
										<parameterid>Gain(dB)</parameterid>
										<name>Gain(dB)</name>
										<valuemin>-96</valuemin>
										<valuemax>96</valuemax>
										<value>-12</value>
									</parameter>
								</effect>
							</filter>
						<link>
							<linkclipref>clipitem-384</linkclipref>
							<mediatype>audio</mediatype>
							<trackindex>13</trackindex>
							<clipindex>68</clipindex>
							<groupindex>1</groupindex>
						</link>
						<link>
							<linkclipref>clipitem-423</linkclipref>
							<mediatype>audio</mediatype>
							<trackindex>14</trackindex>
							<clipindex>60</clipindex>
							<groupindex>1</groupindex>
						</link>
						<logginginfo>
							<description></description>
							<scene></scene>
							<shottake></shottake>
							<lognote></lognote>
						</logginginfo>
						<labels>
							<label2>Caribbean</label2>
						</labels>
					</clipitem>
					<transitionitem>
						<start>26293</start>
						<end>26295</end>
						<alignment>end-black</alignment>
						<cutPointTicks>20321280000</cutPointTicks>
						<rate>
							<timebase>25</timebase>
							<ntsc>FALSE</ntsc>
						</rate>
						<effect>
							<name>Cross Fade (+3dB)</name>
							<effectid>KGAudioTransCrossFade3dB</effectid>
							<effecttype>transition</effecttype>
							<mediatype>audio</mediatype>
							<wipecode>0</wipecode>
							<wipeaccuracy>100</wipeaccuracy>
							<startratio>0</startratio>
							<endratio>1</endratio>
							<reverse>FALSE</reverse>
						</effect>
					</transitionitem>
					<clipitem id="clipitem-424" premiereChannelType="stereo">
						<masterclipid>masterclip-98</masterclipid>
						<name>264779__anthonychan0__civilian-stun-gun-1-10s-zap.wav</name>
						<enabled>TRUE</enabled>
						<duration>10</duration>
						<rate>
							<timebase>25</timebase>
							<ntsc>FALSE</ntsc>
						</rate>
						<start>26431</start>
						<end>26438</end>
						<in>3</in>
						<out>10</out>
						<pproTicksIn>30481920000</pproTicksIn>
						<pproTicksOut>101606400000</pproTicksOut>
						<file id="file-92"/>
						<sourcetrack>
							<mediatype>audio</mediatype>
							<trackindex>2</trackindex>
						</sourcetrack>
							<filter>
								<effect>
									<name>Gain</name>
									<effectid>{61756678, 4761696e, 4b657947}</effectid>
									<effecttype>filter</effecttype>
									<mediatype>audio</mediatype>
									<parameter authoringApp="PremierePro">
										<parameterid>Gain(dB)</parameterid>
										<name>Gain(dB)</name>
										<valuemin>-96</valuemin>
										<valuemax>96</valuemax>
										<value>-12</value>
									</parameter>
								</effect>
							</filter>
						<link>
							<linkclipref>clipitem-385</linkclipref>
							<mediatype>audio</mediatype>
							<trackindex>13</trackindex>
							<clipindex>70</clipindex>
							<groupindex>1</groupindex>
						</link>
						<link>
							<linkclipref>clipitem-424</linkclipref>
							<mediatype>audio</mediatype>
							<trackindex>14</trackindex>
							<clipindex>62</clipindex>
							<groupindex>1</groupindex>
						</link>
						<logginginfo>
							<description></description>
							<scene></scene>
							<shottake></shottake>
							<lognote></lognote>
						</logginginfo>
						<labels>
							<label2>Caribbean</label2>
						</labels>
					</clipitem>
					<clipitem id="clipitem-425" premiereChannelType="stereo">
						<masterclipid>masterclip-98</masterclipid>
						<name>264779__anthonychan0__civilian-stun-gun-1-10s-zap.wav</name>
						<enabled>TRUE</enabled>
						<duration>10</duration>
						<rate>
							<timebase>25</timebase>
							<ntsc>FALSE</ntsc>
						</rate>
						<start>26584</start>
						<end>26591</end>
						<in>3</in>
						<out>10</out>
						<pproTicksIn>30481920000</pproTicksIn>
						<pproTicksOut>101606400000</pproTicksOut>
						<file id="file-92"/>
						<sourcetrack>
							<mediatype>audio</mediatype>
							<trackindex>2</trackindex>
						</sourcetrack>
							<filter>
								<effect>
									<name>Gain</name>
									<effectid>{61756678, 4761696e, 4b657947}</effectid>
									<effecttype>filter</effecttype>
									<mediatype>audio</mediatype>
									<parameter authoringApp="PremierePro">
										<parameterid>Gain(dB)</parameterid>
										<name>Gain(dB)</name>
										<valuemin>-96</valuemin>
										<valuemax>96</valuemax>
										<value>-12</value>
									</parameter>
								</effect>
							</filter>
						<link>
							<linkclipref>clipitem-386</linkclipref>
							<mediatype>audio</mediatype>
							<trackindex>13</trackindex>
							<clipindex>71</clipindex>
							<groupindex>1</groupindex>
						</link>
						<link>
							<linkclipref>clipitem-425</linkclipref>
							<mediatype>audio</mediatype>
							<trackindex>14</trackindex>
							<clipindex>63</clipindex>
							<groupindex>1</groupindex>
						</link>
						<logginginfo>
							<description></description>
							<scene></scene>
							<shottake></shottake>
							<lognote></lognote>
						</logginginfo>
						<labels>
							<label2>Caribbean</label2>
						</labels>
					</clipitem>
					<clipitem id="clipitem-426" premiereChannelType="stereo">
						<masterclipid>masterclip-111</masterclipid>
						<name>264777__shinplaster__swoosh.wav</name>
						<enabled>TRUE</enabled>
						<duration>132</duration>
						<rate>
							<timebase>25</timebase>
							<ntsc>FALSE</ntsc>
						</rate>
						<start>30039</start>
						<end>30148</end>
						<in>23</in>
						<out>132</out>
						<pproTicksIn>233694720000</pproTicksIn>
						<pproTicksOut>1341204480000</pproTicksOut>
						<file id="file-105"/>
						<sourcetrack>
							<mediatype>audio</mediatype>
							<trackindex>2</trackindex>
						</sourcetrack>
							<filter>
								<effect>
									<name>Gain</name>
									<effectid>{61756678, 4761696e, 4b657947}</effectid>
									<effecttype>filter</effecttype>
									<mediatype>audio</mediatype>
									<parameter authoringApp="PremierePro">
										<parameterid>Gain(dB)</parameterid>
										<name>Gain(dB)</name>
										<valuemin>-96</valuemin>
										<valuemax>96</valuemax>
										<value>-3</value>
									</parameter>
								</effect>
							</filter>
						<link>
							<linkclipref>clipitem-387</linkclipref>
							<mediatype>audio</mediatype>
							<trackindex>13</trackindex>
							<clipindex>72</clipindex>
							<groupindex>1</groupindex>
						</link>
						<link>
							<linkclipref>clipitem-426</linkclipref>
							<mediatype>audio</mediatype>
							<trackindex>14</trackindex>
							<clipindex>64</clipindex>
							<groupindex>1</groupindex>
						</link>
						<logginginfo>
							<description></description>
							<scene></scene>
							<shottake></shottake>
							<lognote></lognote>
						</logginginfo>
						<labels>
							<label2>Caribbean</label2>
						</labels>
					</clipitem>
					<enabled>TRUE</enabled>
					<locked>FALSE</locked>
					<outputchannelindex>2</outputchannelindex>
				</track>
				<track TL.SQTrackAudioKeyframeStyle="0" TL.SQTrackShy="0" TL.SQTrackExpandedHeight="45" TL.SQTrackExpanded="1" MZ.TrackTargeted="1" PannerCurrentValue="0.5" PannerIsInverted="true" PannerStartKeyframe="-91445760000000000,0.5,0,0,0,0,0,0" PannerName="Balance" currentExplodedTrackIndex="0" totalExplodedTrackCount="2" premiereTrackType="Stereo">
					<clipitem id="clipitem-427" premiereChannelType="mono">
						<masterclipid>masterclip-63</masterclipid>
						<name>Mikkelstøt-SC05-T01-Multicam</name>
						<enabled>TRUE</enabled>
						<duration>29952</duration>
						<rate>
							<timebase>25</timebase>
							<ntsc>FALSE</ntsc>
						</rate>
						<start>161</start>
						<end>191</end>
						<in>14100</in>
						<out>14130</out>
						<pproTicksIn>143265024000000</pproTicksIn>
						<pproTicksOut>143569843200000</pproTicksOut>
						<sequence id="sequence-5"/>
						<link>
							<linkclipref>clipitem-189</linkclipref>
							<mediatype>audio</mediatype>
							<trackindex>9</trackindex>
							<clipindex>1</clipindex>
							<groupindex>1</groupindex>
						</link>
						<link>
							<linkclipref>clipitem-283</linkclipref>
							<mediatype>audio</mediatype>
							<trackindex>11</trackindex>
							<clipindex>1</clipindex>
							<groupindex>1</groupindex>
						</link>
						<link>
							<linkclipref>clipitem-343</linkclipref>
							<mediatype>audio</mediatype>
							<trackindex>13</trackindex>
							<clipindex>1</clipindex>
							<groupindex>1</groupindex>
						</link>
						<link>
							<linkclipref>clipitem-427</linkclipref>
							<mediatype>audio</mediatype>
							<trackindex>15</trackindex>
							<clipindex>1</clipindex>
							<groupindex>1</groupindex>
						</link>
						<labels>
							<label2>Forest</label2>
						</labels>
					</clipitem>
					<clipitem id="clipitem-428" premiereChannelType="stereo">
						<masterclipid>masterclip-112</masterclipid>
						<name>264438__lebcraftlp__woosh.wav</name>
						<enabled>TRUE</enabled>
						<duration>1440</duration>
						<rate>
							<timebase>25</timebase>
							<ntsc>FALSE</ntsc>
						</rate>
						<start>939</start>
						<end>979</end>
						<in>266</in>
						<out>306</out>
						<pproTicksIn>812851200000</pproTicksIn>
						<pproTicksOut>934778880000</pproTicksOut>
						<file id="file-106">
							<name>264438__lebcraftlp__woosh.wav</name>
							<pathurl>file://localhost/Volumes/Bingen/Prosjekter/MYNT194016%20WHATS%20COOKING/Lydeffekter/Jan%20Lydeffekter/Woosh/264438__lebcraftlp__woosh.wav</pathurl>
							<rate>
								<timebase>30</timebase>
								<ntsc>TRUE</ntsc>
							</rate>
							<duration>519</duration>
							<timecode>
								<rate>
									<timebase>30</timebase>
									<ntsc>TRUE</ntsc>
								</rate>
								<string>00;00;00;00</string>
								<frame>0</frame>
								<displayformat>DF</displayformat>
								<reel>
									<name></name>
								</reel>
							</timecode>
							<media>
								<audio>
									<samplecharacteristics>
										<depth>16</depth>
										<samplerate>48000</samplerate>
									</samplecharacteristics>
									<channelcount>2</channelcount>
								</audio>
							</media>
						</file>
						<sourcetrack>
							<mediatype>audio</mediatype>
							<trackindex>1</trackindex>
						</sourcetrack>
							<filter>
								<effect>
									<name>Gain</name>
									<effectid>{61756678, 4761696e, 4b657947}</effectid>
									<effecttype>filter</effecttype>
									<mediatype>audio</mediatype>
									<parameter authoringApp="PremierePro">
										<parameterid>Gain(dB)</parameterid>
										<name>Gain(dB)</name>
										<valuemin>-96</valuemin>
										<valuemax>96</valuemax>
										<value>-11</value>
									</parameter>
								</effect>
							</filter>
							<filter>
								<effect>
									<name>Time Remap</name>
									<effectid>timeremap</effectid>
									<effectcategory>motion</effectcategory>
									<effecttype>motion</effecttype>
									<mediatype>audio</mediatype>
									<parameter authoringApp="PremierePro">
										<parameterid>variablespeed</parameterid>
										<name>variablespeed</name>
										<valuemin>0</valuemin>
										<valuemax>1</valuemax>
										<value>0</value>
									</parameter>
									<parameter authoringApp="PremierePro">
										<parameterid>speed</parameterid>
										<name>speed</name>
										<valuemin>-100000</valuemin>
										<valuemax>100000</valuemax>
										<value>30</value>
									</parameter>
									<parameter authoringApp="PremierePro">
										<parameterid>reverse</parameterid>
										<name>reverse</name>
										<value>FALSE</value>
									</parameter>
									<parameter authoringApp="PremierePro">
										<parameterid>frameblending</parameterid>
										<name>frameblending</name>
										<value>FALSE</value>
									</parameter>
									<parameter authoringApp="PremierePro">
										<parameterid>graphdict</parameterid>
										<name>graphdict</name>
										<valuemin>0</valuemin>
										<valuemax>432</valuemax>
										<value>0</value>
										<keyframe>
											<when>0</when>
											<value>0</value>
											<speedvirtualkf>TRUE</speedvirtualkf>
											<speedkfstart>TRUE</speedkfstart>
										</keyframe>
										<keyframe>
											<when>266</when>
											<value>79</value>
											<speedvirtualkf>TRUE</speedvirtualkf>
											<speedkfin>TRUE</speedkfin>
										</keyframe>
										<keyframe>
											<when>306</when>
											<value>91</value>
											<speedvirtualkf>TRUE</speedvirtualkf>
											<speedkfout>TRUE</speedkfout>
										</keyframe>
										<keyframe>
											<when>1440</when>
											<value>432</value>
											<speedvirtualkf>TRUE</speedvirtualkf>
											<speedkfend>TRUE</speedkfend>
										</keyframe>
										<interpolation>
											<name>FCPCurve</name>
										</interpolation>
									</parameter>
								</effect>
							</filter>
						<link>
							<linkclipref>clipitem-428</linkclipref>
							<mediatype>audio</mediatype>
							<trackindex>15</trackindex>
							<clipindex>2</clipindex>
							<groupindex>1</groupindex>
						</link>
						<link>
							<linkclipref>clipitem-448</linkclipref>
							<mediatype>audio</mediatype>
							<trackindex>16</trackindex>
							<clipindex>1</clipindex>
							<groupindex>1</groupindex>
						</link>
						<logginginfo>
							<description></description>
							<scene></scene>
							<shottake></shottake>
							<lognote></lognote>
						</logginginfo>
						<labels>
							<label2>Caribbean</label2>
						</labels>
					</clipitem>
					<clipitem id="clipitem-429" premiereChannelType="stereo">
						<masterclipid>masterclip-113</masterclipid>
						<name>91285__timbre__82264-variant-3d-wooshes-both-ways-2.wav</name>
						<enabled>TRUE</enabled>
						<duration>1120</duration>
						<rate>
							<timebase>25</timebase>
							<ntsc>FALSE</ntsc>
						</rate>
						<start>7240</start>
						<end>7280</end>
						<in>0</in>
						<out>40</out>
						<pproTicksIn>0</pproTicksIn>
						<pproTicksOut>406425600000</pproTicksOut>
						<file id="file-107">
							<name>91285__timbre__82264-variant-3d-wooshes-both-ways-2.wav</name>
							<pathurl>file://localhost/Volumes/Bingen/Prosjekter/MYNT194016%20WHATS%20COOKING/Lydeffekter/Jan%20Lydeffekter/Woosh/91285__timbre__82264-variant-3d-wooshes-both-ways-2.wav</pathurl>
							<rate>
								<timebase>30</timebase>
								<ntsc>TRUE</ntsc>
							</rate>
							<duration>1342</duration>
							<timecode>
								<rate>
									<timebase>30</timebase>
									<ntsc>TRUE</ntsc>
								</rate>
								<string>00;00;00;00</string>
								<frame>0</frame>
								<displayformat>DF</displayformat>
								<reel>
									<name></name>
								</reel>
							</timecode>
							<media>
								<audio>
									<samplecharacteristics>
										<depth>16</depth>
										<samplerate>48000</samplerate>
									</samplecharacteristics>
									<channelcount>2</channelcount>
								</audio>
							</media>
						</file>
						<sourcetrack>
							<mediatype>audio</mediatype>
							<trackindex>1</trackindex>
						</sourcetrack>
							<filter>
								<effect>
									<name>Gain</name>
									<effectid>{61756678, 4761696e, 4b657947}</effectid>
									<effecttype>filter</effecttype>
									<mediatype>audio</mediatype>
									<parameter authoringApp="PremierePro">
										<parameterid>Gain(dB)</parameterid>
										<name>Gain(dB)</name>
										<valuemin>-96</valuemin>
										<valuemax>96</valuemax>
										<value>-8</value>
									</parameter>
								</effect>
							</filter>
						<link>
							<linkclipref>clipitem-429</linkclipref>
							<mediatype>audio</mediatype>
							<trackindex>15</trackindex>
							<clipindex>3</clipindex>
							<groupindex>1</groupindex>
						</link>
						<link>
							<linkclipref>clipitem-449</linkclipref>
							<mediatype>audio</mediatype>
							<trackindex>16</trackindex>
							<clipindex>2</clipindex>
							<groupindex>1</groupindex>
						</link>
						<logginginfo>
							<description></description>
							<scene></scene>
							<shottake></shottake>
							<lognote></lognote>
						</logginginfo>
						<labels>
							<label2>Caribbean</label2>
						</labels>
					</clipitem>
					<clipitem id="clipitem-430" premiereChannelType="stereo">
						<masterclipid>masterclip-101</masterclipid>
						<name>169867__halgrimm__swoosh.wav</name>
						<enabled>TRUE</enabled>
						<duration>57</duration>
						<rate>
							<timebase>25</timebase>
							<ntsc>FALSE</ntsc>
						</rate>
						<start>7410</start>
						<end>7438</end>
						<in>26</in>
						<out>54</out>
						<pproTicksIn>264176640000</pproTicksIn>
						<pproTicksOut>548674560000</pproTicksOut>
						<file id="file-95"/>
						<sourcetrack>
							<mediatype>audio</mediatype>
							<trackindex>1</trackindex>
						</sourcetrack>
							<filter>
								<effect>
									<name>Gain</name>
									<effectid>{61756678, 4761696e, 4b657947}</effectid>
									<effecttype>filter</effecttype>
									<mediatype>audio</mediatype>
									<parameter authoringApp="PremierePro">
										<parameterid>Gain(dB)</parameterid>
										<name>Gain(dB)</name>
										<valuemin>-96</valuemin>
										<valuemax>96</valuemax>
										<value>-8</value>
									</parameter>
								</effect>
							</filter>
						<link>
							<linkclipref>clipitem-430</linkclipref>
							<mediatype>audio</mediatype>
							<trackindex>15</trackindex>
							<clipindex>4</clipindex>
							<groupindex>1</groupindex>
						</link>
						<link>
							<linkclipref>clipitem-450</linkclipref>
							<mediatype>audio</mediatype>
							<trackindex>16</trackindex>
							<clipindex>3</clipindex>
							<groupindex>1</groupindex>
						</link>
						<logginginfo>
							<description></description>
							<scene></scene>
							<shottake></shottake>
							<lognote></lognote>
						</logginginfo>
						<labels>
							<label2>Caribbean</label2>
						</labels>
					</clipitem>
					<clipitem id="clipitem-431" premiereChannelType="stereo">
						<masterclipid>masterclip-114</masterclipid>
						<name>89030__metamorphmuses__socket_01.wav</name>
						<enabled>TRUE</enabled>
						<duration>12</duration>
						<rate>
							<timebase>25</timebase>
							<ntsc>FALSE</ntsc>
						</rate>
						<start>7464</start>
						<end>7476</end>
						<in>0</in>
						<out>12</out>
						<pproTicksIn>0</pproTicksIn>
						<pproTicksOut>121927680000</pproTicksOut>
						<file id="file-108">
							<name>89030__metamorphmuses__socket_01.wav</name>
							<pathurl>file://localhost/Volumes/Bingen/Prosjekter/MYNT194016%20WHATS%20COOKING/Lydeffekter/Jan%20Lydeffekter/89030__metamorphmuses__socket_01.wav</pathurl>
							<rate>
								<timebase>30</timebase>
								<ntsc>TRUE</ntsc>
							</rate>
							<duration>15</duration>
							<timecode>
								<rate>
									<timebase>30</timebase>
									<ntsc>TRUE</ntsc>
								</rate>
								<string>00;00;00;00</string>
								<frame>0</frame>
								<displayformat>DF</displayformat>
								<reel>
									<name></name>
								</reel>
							</timecode>
							<media>
								<audio>
									<samplecharacteristics>
										<depth>16</depth>
										<samplerate>48000</samplerate>
									</samplecharacteristics>
									<channelcount>2</channelcount>
								</audio>
							</media>
						</file>
						<sourcetrack>
							<mediatype>audio</mediatype>
							<trackindex>1</trackindex>
						</sourcetrack>
							<filter>
								<effect>
									<name>Gain</name>
									<effectid>{61756678, 4761696e, 4b657947}</effectid>
									<effecttype>filter</effecttype>
									<mediatype>audio</mediatype>
									<parameter authoringApp="PremierePro">
										<parameterid>Gain(dB)</parameterid>
										<name>Gain(dB)</name>
										<valuemin>-96</valuemin>
										<valuemax>96</valuemax>
										<value>-15</value>
									</parameter>
								</effect>
							</filter>
						<link>
							<linkclipref>clipitem-431</linkclipref>
							<mediatype>audio</mediatype>
							<trackindex>15</trackindex>
							<clipindex>5</clipindex>
							<groupindex>1</groupindex>
						</link>
						<link>
							<linkclipref>clipitem-451</linkclipref>
							<mediatype>audio</mediatype>
							<trackindex>16</trackindex>
							<clipindex>4</clipindex>
							<groupindex>1</groupindex>
						</link>
						<logginginfo>
							<description></description>
							<scene></scene>
							<shottake></shottake>
							<lognote></lognote>
						</logginginfo>
						<labels>
							<label2>Mango</label2>
						</labels>
					</clipitem>
					<clipitem id="clipitem-432" premiereChannelType="stereo">
						<masterclipid>masterclip-115</masterclipid>
						<name>205991__emptysound__digital-wooshes-eleven.wav</name>
						<enabled>TRUE</enabled>
						<duration>425</duration>
						<rate>
							<timebase>25</timebase>
							<ntsc>FALSE</ntsc>
						</rate>
						<start>7491</start>
						<end>7507</end>
						<in>353</in>
						<out>369</out>
						<pproTicksIn>2875461120000</pproTicksIn>
						<pproTicksOut>3005517312000</pproTicksOut>
						<file id="file-109">
							<name>205991__emptysound__digital-wooshes-eleven.wav</name>
							<pathurl>file://localhost/Volumes/Bingen/Prosjekter/MYNT194016%20WHATS%20COOKING/Lydeffekter/Jan%20Lydeffekter/Woosh/205991__emptysound__digital-wooshes-eleven.wav</pathurl>
							<rate>
								<timebase>30</timebase>
								<ntsc>TRUE</ntsc>
							</rate>
							<duration>408</duration>
							<timecode>
								<rate>
									<timebase>30</timebase>
									<ntsc>TRUE</ntsc>
								</rate>
								<string>00;00;01;28</string>
								<frame>58</frame>
								<displayformat>DF</displayformat>
								<reel>
									<name></name>
								</reel>
							</timecode>
							<media>
								<audio>
									<samplecharacteristics>
										<depth>16</depth>
										<samplerate>48000</samplerate>
									</samplecharacteristics>
									<channelcount>2</channelcount>
								</audio>
							</media>
						</file>
						<sourcetrack>
							<mediatype>audio</mediatype>
							<trackindex>1</trackindex>
						</sourcetrack>
							<filter>
								<effect>
									<name>Gain</name>
									<effectid>{61756678, 4761696e, 4b657947}</effectid>
									<effecttype>filter</effecttype>
									<mediatype>audio</mediatype>
									<parameter authoringApp="PremierePro">
										<parameterid>Gain(dB)</parameterid>
										<name>Gain(dB)</name>
										<valuemin>-96</valuemin>
										<valuemax>96</valuemax>
										<value>-26</value>
									</parameter>
								</effect>
							</filter>
							<filter>
								<effect>
									<name>Time Remap</name>
									<effectid>timeremap</effectid>
									<effectcategory>motion</effectcategory>
									<effecttype>motion</effecttype>
									<mediatype>audio</mediatype>
									<parameter authoringApp="PremierePro">
										<parameterid>variablespeed</parameterid>
										<name>variablespeed</name>
										<valuemin>0</valuemin>
										<valuemax>1</valuemax>
										<value>0</value>
									</parameter>
									<parameter authoringApp="PremierePro">
										<parameterid>speed</parameterid>
										<name>speed</name>
										<valuemin>-100000</valuemin>
										<valuemax>100000</valuemax>
										<value>80</value>
									</parameter>
									<parameter authoringApp="PremierePro">
										<parameterid>reverse</parameterid>
										<name>reverse</name>
										<value>FALSE</value>
									</parameter>
									<parameter authoringApp="PremierePro">
										<parameterid>frameblending</parameterid>
										<name>frameblending</name>
										<value>FALSE</value>
									</parameter>
									<parameter authoringApp="PremierePro">
										<parameterid>graphdict</parameterid>
										<name>graphdict</name>
										<valuemin>0</valuemin>
										<valuemax>340</valuemax>
										<value>0</value>
										<keyframe>
											<when>0</when>
											<value>0</value>
											<speedvirtualkf>TRUE</speedvirtualkf>
											<speedkfstart>TRUE</speedkfstart>
										</keyframe>
										<keyframe>
											<when>353</when>
											<value>282</value>
											<speedvirtualkf>TRUE</speedvirtualkf>
											<speedkfin>TRUE</speedkfin>
										</keyframe>
										<keyframe>
											<when>369</when>
											<value>295</value>
											<speedvirtualkf>TRUE</speedvirtualkf>
											<speedkfout>TRUE</speedkfout>
										</keyframe>
										<keyframe>
											<when>425</when>
											<value>340</value>
											<speedvirtualkf>TRUE</speedvirtualkf>
											<speedkfend>TRUE</speedkfend>
										</keyframe>
										<interpolation>
											<name>FCPCurve</name>
										</interpolation>
									</parameter>
								</effect>
							</filter>
						<link>
							<linkclipref>clipitem-432</linkclipref>
							<mediatype>audio</mediatype>
							<trackindex>15</trackindex>
							<clipindex>6</clipindex>
							<groupindex>1</groupindex>
						</link>
						<link>
							<linkclipref>clipitem-452</linkclipref>
							<mediatype>audio</mediatype>
							<trackindex>16</trackindex>
							<clipindex>5</clipindex>
							<groupindex>1</groupindex>
						</link>
						<logginginfo>
							<description></description>
							<scene></scene>
							<shottake></shottake>
							<lognote></lognote>
						</logginginfo>
						<labels>
							<label2>Caribbean</label2>
						</labels>
					</clipitem>
					<clipitem id="clipitem-433" premiereChannelType="stereo">
						<masterclipid>masterclip-115</masterclipid>
						<name>205991__emptysound__digital-wooshes-eleven.wav</name>
						<enabled>TRUE</enabled>
						<duration>340</duration>
						<rate>
							<timebase>25</timebase>
							<ntsc>FALSE</ntsc>
						</rate>
						<start>7561</start>
						<end>7572</end>
						<in>312</in>
						<out>323</out>
						<pproTicksIn>3170119680000</pproTicksIn>
						<pproTicksOut>3281886720000</pproTicksOut>
						<file id="file-109"/>
						<sourcetrack>
							<mediatype>audio</mediatype>
							<trackindex>1</trackindex>
						</sourcetrack>
							<filter>
								<effect>
									<name>Gain</name>
									<effectid>{61756678, 4761696e, 4b657947}</effectid>
									<effecttype>filter</effecttype>
									<mediatype>audio</mediatype>
									<parameter authoringApp="PremierePro">
										<parameterid>Gain(dB)</parameterid>
										<name>Gain(dB)</name>
										<valuemin>-96</valuemin>
										<valuemax>96</valuemax>
										<value>-26</value>
									</parameter>
								</effect>
							</filter>
						<link>
							<linkclipref>clipitem-433</linkclipref>
							<mediatype>audio</mediatype>
							<trackindex>15</trackindex>
							<clipindex>7</clipindex>
							<groupindex>1</groupindex>
						</link>
						<link>
							<linkclipref>clipitem-453</linkclipref>
							<mediatype>audio</mediatype>
							<trackindex>16</trackindex>
							<clipindex>6</clipindex>
							<groupindex>1</groupindex>
						</link>
						<logginginfo>
							<description></description>
							<scene></scene>
							<shottake></shottake>
							<lognote></lognote>
						</logginginfo>
						<labels>
							<label2>Caribbean</label2>
						</labels>
					</clipitem>
					<clipitem id="clipitem-434" premiereChannelType="stereo">
						<masterclipid>masterclip-104</masterclipid>
						<name>BTV_162_6_Best_Foot_Forward_Bradley_Sanchez_925597.wav</name>
						<enabled>TRUE</enabled>
						<duration>3393</duration>
						<rate>
							<timebase>25</timebase>
							<ntsc>FALSE</ntsc>
						</rate>
						<start>7610</start>
						<end>7762</end>
						<in>0</in>
						<out>152</out>
						<pproTicksIn>0</pproTicksIn>
						<pproTicksOut>1544417280000</pproTicksOut>
						<file id="file-98"/>
						<sourcetrack>
							<mediatype>audio</mediatype>
							<trackindex>1</trackindex>
						</sourcetrack>
							<filter>
								<effect>
									<name>Gain</name>
									<effectid>{61756678, 4761696e, 4b657947}</effectid>
									<effecttype>filter</effecttype>
									<mediatype>audio</mediatype>
									<parameter authoringApp="PremierePro">
										<parameterid>Gain(dB)</parameterid>
										<name>Gain(dB)</name>
										<valuemin>-96</valuemin>
										<valuemax>96</valuemax>
										<value>-3</value>
									</parameter>
								</effect>
							</filter>
							<filter>
								<effect>
									<name>Audio Levels</name>
									<effectid>audiolevels</effectid>
									<effectcategory>audiolevels</effectcategory>
									<effecttype>audiolevels</effecttype>
									<mediatype>audio</mediatype>
									<parameter authoringApp="PremierePro">
										<parameterid>level</parameterid>
										<name>Level</name>
										<valuemin>0</valuemin>
										<valuemax>3.98109</valuemax>
										<value>0.38685</value>
									</parameter>
								</effect>
							</filter>
						<link>
							<linkclipref>clipitem-434</linkclipref>
							<mediatype>audio</mediatype>
							<trackindex>15</trackindex>
							<clipindex>8</clipindex>
							<groupindex>1</groupindex>
						</link>
						<link>
							<linkclipref>clipitem-454</linkclipref>
							<mediatype>audio</mediatype>
							<trackindex>16</trackindex>
							<clipindex>7</clipindex>
							<groupindex>1</groupindex>
						</link>
						<logginginfo>
							<description></description>
							<scene></scene>
							<shottake></shottake>
							<lognote></lognote>
						</logginginfo>
						<labels>
							<label2>Caribbean</label2>
						</labels>
					</clipitem>
					<clipitem id="clipitem-435" premiereChannelType="stereo">
						<masterclipid>masterclip-104</masterclipid>
						<name>BTV_162_6_Best_Foot_Forward_Bradley_Sanchez_925597.wav</name>
						<enabled>TRUE</enabled>
						<duration>3393</duration>
						<rate>
							<timebase>25</timebase>
							<ntsc>FALSE</ntsc>
						</rate>
						<start>8569</start>
						<end>8658</end>
						<in>152</in>
						<out>241</out>
						<pproTicksIn>1544417280000</pproTicksIn>
						<pproTicksOut>2448714240000</pproTicksOut>
						<file id="file-98"/>
						<sourcetrack>
							<mediatype>audio</mediatype>
							<trackindex>1</trackindex>
						</sourcetrack>
							<filter>
								<effect>
									<name>Gain</name>
									<effectid>{61756678, 4761696e, 4b657947}</effectid>
									<effecttype>filter</effecttype>
									<mediatype>audio</mediatype>
									<parameter authoringApp="PremierePro">
										<parameterid>Gain(dB)</parameterid>
										<name>Gain(dB)</name>
										<valuemin>-96</valuemin>
										<valuemax>96</valuemax>
										<value>-3</value>
									</parameter>
								</effect>
							</filter>
							<filter>
								<effect>
									<name>Audio Levels</name>
									<effectid>audiolevels</effectid>
									<effectcategory>audiolevels</effectcategory>
									<effecttype>audiolevels</effecttype>
									<mediatype>audio</mediatype>
									<parameter authoringApp="PremierePro">
										<parameterid>level</parameterid>
										<name>Level</name>
										<valuemin>0</valuemin>
										<valuemax>3.98109</valuemax>
										<value>0.38685</value>
									</parameter>
								</effect>
							</filter>
						<link>
							<linkclipref>clipitem-435</linkclipref>
							<mediatype>audio</mediatype>
							<trackindex>15</trackindex>
							<clipindex>9</clipindex>
							<groupindex>1</groupindex>
						</link>
						<link>
							<linkclipref>clipitem-455</linkclipref>
							<mediatype>audio</mediatype>
							<trackindex>16</trackindex>
							<clipindex>8</clipindex>
							<groupindex>1</groupindex>
						</link>
						<logginginfo>
							<description></description>
							<scene></scene>
							<shottake></shottake>
							<lognote></lognote>
						</logginginfo>
						<labels>
							<label2>Caribbean</label2>
						</labels>
					</clipitem>
					<clipitem id="clipitem-436" premiereChannelType="stereo">
						<masterclipid>masterclip-104</masterclipid>
						<name>BTV_162_6_Best_Foot_Forward_Bradley_Sanchez_925597.wav</name>
						<enabled>TRUE</enabled>
						<duration>3393</duration>
						<rate>
							<timebase>25</timebase>
							<ntsc>FALSE</ntsc>
						</rate>
						<start>8658</start>
						<end>-1</end>
						<in>241</in>
						<out>348</out>
						<pproTicksIn>2448714240000</pproTicksIn>
						<pproTicksOut>3535902720000</pproTicksOut>
						<file id="file-98"/>
						<sourcetrack>
							<mediatype>audio</mediatype>
							<trackindex>1</trackindex>
						</sourcetrack>
							<filter>
								<effect>
									<name>Gain</name>
									<effectid>{61756678, 4761696e, 4b657947}</effectid>
									<effecttype>filter</effecttype>
									<mediatype>audio</mediatype>
									<parameter authoringApp="PremierePro">
										<parameterid>Gain(dB)</parameterid>
										<name>Gain(dB)</name>
										<valuemin>-96</valuemin>
										<valuemax>96</valuemax>
										<value>-3</value>
									</parameter>
								</effect>
							</filter>
							<filter>
								<effect>
									<name>Audio Levels</name>
									<effectid>audiolevels</effectid>
									<effectcategory>audiolevels</effectcategory>
									<effecttype>audiolevels</effecttype>
									<mediatype>audio</mediatype>
									<parameter authoringApp="PremierePro">
										<parameterid>level</parameterid>
										<name>Level</name>
										<valuemin>0</valuemin>
										<valuemax>3.98109</valuemax>
										<value>0.38685</value>
									</parameter>
								</effect>
							</filter>
						<link>
							<linkclipref>clipitem-436</linkclipref>
							<mediatype>audio</mediatype>
							<trackindex>15</trackindex>
							<clipindex>10</clipindex>
							<groupindex>1</groupindex>
						</link>
						<link>
							<linkclipref>clipitem-456</linkclipref>
							<mediatype>audio</mediatype>
							<trackindex>16</trackindex>
							<clipindex>9</clipindex>
							<groupindex>1</groupindex>
						</link>
						<logginginfo>
							<description></description>
							<scene></scene>
							<shottake></shottake>
							<lognote></lognote>
						</logginginfo>
						<labels>
							<label2>Caribbean</label2>
						</labels>
					</clipitem>
					<transitionitem>
						<start>8752</start>
						<end>8765</end>
						<alignment>end-black</alignment>
						<cutPointTicks>132088320000</cutPointTicks>
						<rate>
							<timebase>25</timebase>
							<ntsc>FALSE</ntsc>
						</rate>
						<effect>
							<name>Cross Fade (+3dB)</name>
							<effectid>KGAudioTransCrossFade3dB</effectid>
							<effecttype>transition</effecttype>
							<mediatype>audio</mediatype>
							<wipecode>0</wipecode>
							<wipeaccuracy>100</wipeaccuracy>
							<startratio>0</startratio>
							<endratio>1</endratio>
							<reverse>FALSE</reverse>
						</effect>
					</transitionitem>
					<clipitem id="clipitem-437" premiereChannelType="stereo">
						<masterclipid>masterclip-84</masterclipid>
						<name>194081__potentjello__woosh-noise-1.wav</name>
						<enabled>TRUE</enabled>
						<duration>10</duration>
						<rate>
							<timebase>25</timebase>
							<ntsc>FALSE</ntsc>
						</rate>
						<start>8957</start>
						<end>8967</end>
						<in>0</in>
						<out>10</out>
						<pproTicksIn>0</pproTicksIn>
						<pproTicksOut>66044160000</pproTicksOut>
						<file id="file-78"/>
						<sourcetrack>
							<mediatype>audio</mediatype>
							<trackindex>1</trackindex>
						</sourcetrack>
							<filter>
								<effect>
									<name>Time Remap</name>
									<effectid>timeremap</effectid>
									<effectcategory>motion</effectcategory>
									<effecttype>motion</effecttype>
									<mediatype>audio</mediatype>
									<parameter authoringApp="PremierePro">
										<parameterid>variablespeed</parameterid>
										<name>variablespeed</name>
										<valuemin>0</valuemin>
										<valuemax>1</valuemax>
										<value>0</value>
									</parameter>
									<parameter authoringApp="PremierePro">
										<parameterid>speed</parameterid>
										<name>speed</name>
										<valuemin>-100000</valuemin>
										<valuemax>100000</valuemax>
										<value>65</value>
									</parameter>
									<parameter authoringApp="PremierePro">
										<parameterid>reverse</parameterid>
										<name>reverse</name>
										<value>FALSE</value>
									</parameter>
									<parameter authoringApp="PremierePro">
										<parameterid>frameblending</parameterid>
										<name>frameblending</name>
										<value>FALSE</value>
									</parameter>
									<parameter authoringApp="PremierePro">
										<parameterid>graphdict</parameterid>
										<name>graphdict</name>
										<valuemin>0</valuemin>
										<valuemax>6</valuemax>
										<value>0</value>
										<keyframe>
											<when>0</when>
											<value>0</value>
											<speedvirtualkf>TRUE</speedvirtualkf>
											<speedkfin>TRUE</speedkfin>
										</keyframe>
										<keyframe>
											<when>10</when>
											<value>6</value>
											<speedvirtualkf>TRUE</speedvirtualkf>
											<speedkfout>TRUE</speedkfout>
										</keyframe>
										<interpolation>
											<name>FCPCurve</name>
										</interpolation>
									</parameter>
								</effect>
							</filter>
							<marker>
								<comment></comment>
								<name></name>
								<in>6</in>
								<out>-1</out>
							</marker>
						<link>
							<linkclipref>clipitem-437</linkclipref>
							<mediatype>audio</mediatype>
							<trackindex>15</trackindex>
							<clipindex>12</clipindex>
							<groupindex>1</groupindex>
						</link>
						<link>
							<linkclipref>clipitem-457</linkclipref>
							<mediatype>audio</mediatype>
							<trackindex>16</trackindex>
							<clipindex>11</clipindex>
							<groupindex>1</groupindex>
						</link>
						<logginginfo>
							<description></description>
							<scene></scene>
							<shottake></shottake>
							<lognote></lognote>
						</logginginfo>
						<labels>
							<label2>Caribbean</label2>
						</labels>
					</clipitem>
					<transitionitem>
						<start>14616</start>
						<end>14629</end>
						<alignment>start-black</alignment>
						<cutPointTicks>0</cutPointTicks>
						<rate>
							<timebase>25</timebase>
							<ntsc>FALSE</ntsc>
						</rate>
						<effect>
							<name>Cross Fade (+3dB)</name>
							<effectid>KGAudioTransCrossFade3dB</effectid>
							<effecttype>transition</effecttype>
							<mediatype>audio</mediatype>
							<wipecode>0</wipecode>
							<wipeaccuracy>100</wipeaccuracy>
							<startratio>0</startratio>
							<endratio>1</endratio>
							<reverse>FALSE</reverse>
						</effect>
					</transitionitem>
					<clipitem id="clipitem-438" premiereChannelType="mono">
						<masterclipid>masterclip-75</masterclipid>
						<name>backstage-T03-Multicam</name>
						<enabled>TRUE</enabled>
						<duration>100318</duration>
						<rate>
							<timebase>25</timebase>
							<ntsc>FALSE</ntsc>
						</rate>
						<start>-1</start>
						<end>14813</end>
						<in>8820</in>
						<out>9017</out>
						<pproTicksIn>89616844800000</pproTicksIn>
						<pproTicksOut>91618490880000</pproTicksOut>
						<sequence id="sequence-7"/>
							<filter>
								<effect>
									<name>Gain</name>
									<effectid>{61756678, 4761696e, 4b657947}</effectid>
									<effecttype>filter</effecttype>
									<mediatype>audio</mediatype>
									<parameter authoringApp="PremierePro">
										<parameterid>Gain(dB)</parameterid>
										<name>Gain(dB)</name>
										<valuemin>-96</valuemin>
										<valuemax>96</valuemax>
										<value>6</value>
									</parameter>
								</effect>
							</filter>
							<filter>
								<effect>
									<name>Audio Levels</name>
									<effectid>audiolevels</effectid>
									<effectcategory>audiolevels</effectcategory>
									<effecttype>audiolevels</effecttype>
									<mediatype>audio</mediatype>
									<parameter authoringApp="PremierePro">
										<parameterid>level</parameterid>
										<name>Level</name>
										<valuemin>0</valuemin>
										<valuemax>3.98109</valuemax>
										<value>0.983063</value>
									</parameter>
								</effect>
							</filter>
						<link>
							<linkclipref>clipitem-218</linkclipref>
							<mediatype>audio</mediatype>
							<trackindex>9</trackindex>
							<clipindex>11</clipindex>
							<groupindex>1</groupindex>
						</link>
						<link>
							<linkclipref>clipitem-297</linkclipref>
							<mediatype>audio</mediatype>
							<trackindex>11</trackindex>
							<clipindex>25</clipindex>
							<groupindex>1</groupindex>
						</link>
						<link>
							<linkclipref>clipitem-357</linkclipref>
							<mediatype>audio</mediatype>
							<trackindex>13</trackindex>
							<clipindex>27</clipindex>
							<groupindex>1</groupindex>
						</link>
						<link>
							<linkclipref>clipitem-438</linkclipref>
							<mediatype>audio</mediatype>
							<trackindex>15</trackindex>
							<clipindex>14</clipindex>
							<groupindex>1</groupindex>
						</link>
						<link>
							<linkclipref>clipitem-487</linkclipref>
							<mediatype>audio</mediatype>
							<trackindex>17</trackindex>
							<clipindex>10</clipindex>
							<groupindex>1</groupindex>
						</link>
						<labels>
							<label2>Forest</label2>
						</labels>
					</clipitem>
					<clipitem id="clipitem-439" premiereChannelType="stereo">
						<masterclipid>masterclip-116</masterclipid>
						<name>06351_dark_drum_hit.wav</name>
						<enabled>TRUE</enabled>
						<duration>120</duration>
						<rate>
							<timebase>25</timebase>
							<ntsc>FALSE</ntsc>
						</rate>
						<start>16309</start>
						<end>16429</end>
						<in>0</in>
						<out>120</out>
						<pproTicksIn>0</pproTicksIn>
						<pproTicksOut>1219276800000</pproTicksOut>
						<file id="file-110">
							<name>06351_dark_drum_hit.wav</name>
							<pathurl>file://localhost/Volumes/Bingen/Prosjekter/MYNT194016%20WHATS%20COOKING/Musikk/Pontus/Lydeffekter/06351_dark_drum_hit.wav</pathurl>
							<rate>
								<timebase>30</timebase>
								<ntsc>TRUE</ntsc>
							</rate>
							<duration>143</duration>
							<timecode>
								<rate>
									<timebase>30</timebase>
									<ntsc>TRUE</ntsc>
								</rate>
								<string>00;00;00;00</string>
								<frame>0</frame>
								<displayformat>DF</displayformat>
								<reel>
									<name></name>
								</reel>
							</timecode>
							<media>
								<audio>
									<samplecharacteristics>
										<depth>16</depth>
										<samplerate>48000</samplerate>
									</samplecharacteristics>
									<channelcount>2</channelcount>
								</audio>
							</media>
						</file>
						<sourcetrack>
							<mediatype>audio</mediatype>
							<trackindex>1</trackindex>
						</sourcetrack>
							<filter>
								<effect>
									<name>Audio Levels</name>
									<effectid>audiolevels</effectid>
									<effectcategory>audiolevels</effectcategory>
									<effecttype>audiolevels</effecttype>
									<mediatype>audio</mediatype>
									<parameter authoringApp="PremierePro">
										<parameterid>level</parameterid>
										<name>Level</name>
										<valuemin>0</valuemin>
										<valuemax>3.98109</valuemax>
										<value>0.177406</value>
									</parameter>
								</effect>
							</filter>
						<link>
							<linkclipref>clipitem-439</linkclipref>
							<mediatype>audio</mediatype>
							<trackindex>15</trackindex>
							<clipindex>15</clipindex>
							<groupindex>1</groupindex>
						</link>
						<link>
							<linkclipref>clipitem-458</linkclipref>
							<mediatype>audio</mediatype>
							<trackindex>16</trackindex>
							<clipindex>12</clipindex>
							<groupindex>1</groupindex>
						</link>
						<logginginfo>
							<description></description>
							<scene></scene>
							<shottake></shottake>
							<lognote></lognote>
						</logginginfo>
						<labels>
							<label2>Caribbean</label2>
						</labels>
					</clipitem>
					<clipitem id="clipitem-440" premiereChannelType="mono">
						<masterclipid>masterclip-79</masterclipid>
						<name>backstage-T01-Multicam</name>
						<enabled>TRUE</enabled>
						<duration>59983</duration>
						<rate>
							<timebase>25</timebase>
							<ntsc>FALSE</ntsc>
						</rate>
						<start>17354</start>
						<end>17424</end>
						<in>20272</in>
						<out>20342</out>
						<pproTicksIn>205976494080000</pproTicksIn>
						<pproTicksOut>206687738880000</pproTicksOut>
						<sequence id="sequence-8"/>
							<filter>
								<effect>
									<name>Audio Levels</name>
									<effectid>audiolevels</effectid>
									<effectcategory>audiolevels</effectcategory>
									<effecttype>audiolevels</effecttype>
									<mediatype>audio</mediatype>
									<parameter authoringApp="PremierePro">
										<parameterid>level</parameterid>
										<name>Level</name>
										<valuemin>0</valuemin>
										<valuemax>3.98109</valuemax>
										<value>0.125594</value>
									</parameter>
								</effect>
							</filter>
						<labels>
							<label2>Forest</label2>
						</labels>
					</clipitem>
					<clipitem id="clipitem-441" premiereChannelType="mono">
						<masterclipid>masterclip-79</masterclipid>
						<name>backstage-T01-Multicam</name>
						<enabled>TRUE</enabled>
						<duration>59983</duration>
						<rate>
							<timebase>25</timebase>
							<ntsc>FALSE</ntsc>
						</rate>
						<start>17424</start>
						<end>17473</end>
						<in>20367</in>
						<out>20416</out>
						<pproTicksIn>206941754880000</pproTicksIn>
						<pproTicksOut>207439626240000</pproTicksOut>
						<sequence id="sequence-8"/>
							<filter>
								<effect>
									<name>Audio Levels</name>
									<effectid>audiolevels</effectid>
									<effectcategory>audiolevels</effectcategory>
									<effecttype>audiolevels</effecttype>
									<mediatype>audio</mediatype>
									<parameter authoringApp="PremierePro">
										<parameterid>level</parameterid>
										<name>Level</name>
										<valuemin>0</valuemin>
										<valuemax>3.98109</valuemax>
										<value>0.125594</value>
									</parameter>
								</effect>
							</filter>
						<labels>
							<label2>Forest</label2>
						</labels>
					</clipitem>
					<clipitem id="clipitem-442" premiereChannelType="stereo">
						<masterclipid>masterclip-117</masterclipid>
						<name>257713__vmgraw__whoosh.wav</name>
						<enabled>TRUE</enabled>
						<duration>11</duration>
						<rate>
							<timebase>25</timebase>
							<ntsc>FALSE</ntsc>
						</rate>
						<start>17858</start>
						<end>17869</end>
						<in>0</in>
						<out>11</out>
						<pproTicksIn>0</pproTicksIn>
						<pproTicksOut>111767040000</pproTicksOut>
						<file id="file-111">
							<name>257713__vmgraw__whoosh.wav</name>
							<pathurl>file://localhost/Volumes/Bingen/Prosjekter/MYNT194016%20WHATS%20COOKING/Musikk/Pontus/Lydeffekter/257713__vmgraw__whoosh.wav</pathurl>
							<rate>
								<timebase>30</timebase>
								<ntsc>TRUE</ntsc>
							</rate>
							<duration>14</duration>
							<timecode>
								<rate>
									<timebase>30</timebase>
									<ntsc>TRUE</ntsc>
								</rate>
								<string>00;04;29;19</string>
								<frame>8081</frame>
								<displayformat>DF</displayformat>
								<reel>
									<name></name>
								</reel>
							</timecode>
							<media>
								<audio>
									<samplecharacteristics>
										<depth>16</depth>
										<samplerate>48000</samplerate>
									</samplecharacteristics>
									<channelcount>2</channelcount>
								</audio>
							</media>
						</file>
						<sourcetrack>
							<mediatype>audio</mediatype>
							<trackindex>1</trackindex>
						</sourcetrack>
							<filter>
								<effect>
									<name>Audio Levels</name>
									<effectid>audiolevels</effectid>
									<effectcategory>audiolevels</effectcategory>
									<effecttype>audiolevels</effecttype>
									<mediatype>audio</mediatype>
									<parameter authoringApp="PremierePro">
										<parameterid>level</parameterid>
										<name>Level</name>
										<valuemin>0</valuemin>
										<valuemax>3.98109</valuemax>
										<value>0.250593</value>
									</parameter>
								</effect>
							</filter>
						<link>
							<linkclipref>clipitem-442</linkclipref>
							<mediatype>audio</mediatype>
							<trackindex>15</trackindex>
							<clipindex>18</clipindex>
							<groupindex>1</groupindex>
						</link>
						<link>
							<linkclipref>clipitem-459</linkclipref>
							<mediatype>audio</mediatype>
							<trackindex>16</trackindex>
							<clipindex>13</clipindex>
							<groupindex>1</groupindex>
						</link>
						<logginginfo>
							<description></description>
							<scene></scene>
							<shottake></shottake>
							<lognote></lognote>
						</logginginfo>
						<labels>
							<label2>Caribbean</label2>
						</labels>
					</clipitem>
					<transitionitem>
						<start>22575</start>
						<end>22588</end>
						<alignment>start-black</alignment>
						<cutPointTicks>0</cutPointTicks>
						<rate>
							<timebase>25</timebase>
							<ntsc>FALSE</ntsc>
						</rate>
						<effect>
							<name>Cross Fade (+3dB)</name>
							<effectid>KGAudioTransCrossFade3dB</effectid>
							<effecttype>transition</effecttype>
							<mediatype>audio</mediatype>
							<wipecode>0</wipecode>
							<wipeaccuracy>100</wipeaccuracy>
							<startratio>0</startratio>
							<endratio>1</endratio>
							<reverse>FALSE</reverse>
						</effect>
					</transitionitem>
					<clipitem id="clipitem-443" premiereChannelType="stereo">
						<masterclipid>masterclip-118</masterclipid>
						<name>AUXMP_BM004207_CLOSE ENCOUNTERS.wav</name>
						<enabled>TRUE</enabled>
						<duration>4725</duration>
						<rate>
							<timebase>25</timebase>
							<ntsc>FALSE</ntsc>
						</rate>
						<start>-1</start>
						<end>-1</end>
						<in>77</in>
						<out>1477</out>
						<pproTicksIn>782369280000</pproTicksIn>
						<pproTicksOut>15007265280000</pproTicksOut>
						<file id="file-112">
							<name>AUXMP_BM004207_CLOSE ENCOUNTERS.wav</name>
							<pathurl>file://localhost/Volumes/Bingen/Prosjekter/MYNT194016%20WHATS%20COOKING/Musikk/Marita/Reality/auxmp14608_837/24b%3a48Hz%20wav/AUXMP_BM004207_CLOSE%20ENCOUNTERS.wav</pathurl>
							<rate>
								<timebase>30</timebase>
								<ntsc>TRUE</ntsc>
							</rate>
							<duration>5665</duration>
							<timecode>
								<rate>
									<timebase>30</timebase>
									<ntsc>TRUE</ntsc>
								</rate>
								<string>00;00;00;00</string>
								<frame>0</frame>
								<displayformat>DF</displayformat>
								<reel>
									<name></name>
								</reel>
							</timecode>
							<media>
								<audio>
									<samplecharacteristics>
										<depth>16</depth>
										<samplerate>48000</samplerate>
									</samplecharacteristics>
									<channelcount>2</channelcount>
								</audio>
							</media>
						</file>
						<sourcetrack>
							<mediatype>audio</mediatype>
							<trackindex>1</trackindex>
						</sourcetrack>
							<filter>
								<effect>
									<name>Gain</name>
									<effectid>{61756678, 4761696e, 4b657947}</effectid>
									<effecttype>filter</effecttype>
									<mediatype>audio</mediatype>
									<parameter authoringApp="PremierePro">
										<parameterid>Gain(dB)</parameterid>
										<name>Gain(dB)</name>
										<valuemin>-96</valuemin>
										<valuemax>96</valuemax>
										<value>-15</value>
									</parameter>
								</effect>
							</filter>
						<link>
							<linkclipref>clipitem-443</linkclipref>
							<mediatype>audio</mediatype>
							<trackindex>15</trackindex>
							<clipindex>20</clipindex>
							<groupindex>1</groupindex>
						</link>
						<link>
							<linkclipref>clipitem-460</linkclipref>
							<mediatype>audio</mediatype>
							<trackindex>16</trackindex>
							<clipindex>15</clipindex>
							<groupindex>1</groupindex>
						</link>
						<logginginfo>
							<description>rolig, lav tikking, droneaktig</description>
							<scene></scene>
							<shottake></shottake>
							<lognote></lognote>
						</logginginfo>
						<labels>
							<label2>Caribbean</label2>
						</labels>
					</clipitem>
					<transitionitem>
						<start>23909</start>
						<end>23975</end>
						<alignment>center</alignment>
						<cutPointTicks>314979840000</cutPointTicks>
						<rate>
							<timebase>25</timebase>
							<ntsc>FALSE</ntsc>
						</rate>
						<effect>
							<name>Cross Fade (+3dB)</name>
							<effectid>KGAudioTransCrossFade3dB</effectid>
							<effecttype>transition</effecttype>
							<mediatype>audio</mediatype>
							<wipecode>0</wipecode>
							<wipeaccuracy>100</wipeaccuracy>
							<startratio>0</startratio>
							<endratio>1</endratio>
							<reverse>FALSE</reverse>
						</effect>
					</transitionitem>
					<clipitem id="clipitem-444" premiereChannelType="stereo">
						<masterclipid>masterclip-118</masterclipid>
						<name>AUXMP_BM004207_CLOSE ENCOUNTERS.wav</name>
						<enabled>TRUE</enabled>
						<duration>4725</duration>
						<rate>
							<timebase>25</timebase>
							<ntsc>FALSE</ntsc>
						</rate>
						<start>-1</start>
						<end>24077</end>
						<in>4481</in>
						<out>4649</out>
						<pproTicksIn>45529827840000</pproTicksIn>
						<pproTicksOut>47236815360000</pproTicksOut>
						<file id="file-112"/>
						<sourcetrack>
							<mediatype>audio</mediatype>
							<trackindex>1</trackindex>
						</sourcetrack>
							<filter>
								<effect>
									<name>Gain</name>
									<effectid>{61756678, 4761696e, 4b657947}</effectid>
									<effecttype>filter</effecttype>
									<mediatype>audio</mediatype>
									<parameter authoringApp="PremierePro">
										<parameterid>Gain(dB)</parameterid>
										<name>Gain(dB)</name>
										<valuemin>-96</valuemin>
										<valuemax>96</valuemax>
										<value>-18</value>
									</parameter>
								</effect>
							</filter>
						<link>
							<linkclipref>clipitem-444</linkclipref>
							<mediatype>audio</mediatype>
							<trackindex>15</trackindex>
							<clipindex>22</clipindex>
							<groupindex>1</groupindex>
						</link>
						<link>
							<linkclipref>clipitem-461</linkclipref>
							<mediatype>audio</mediatype>
							<trackindex>16</trackindex>
							<clipindex>17</clipindex>
							<groupindex>1</groupindex>
						</link>
						<logginginfo>
							<description>rolig, lav tikking, droneaktig</description>
							<scene></scene>
							<shottake></shottake>
							<lognote></lognote>
						</logginginfo>
						<labels>
							<label2>Caribbean</label2>
						</labels>
					</clipitem>
					<clipitem id="clipitem-445" premiereChannelType="stereo">
						<masterclipid>masterclip-119</masterclipid>
						<name>NONRO170653CD0007 Ain't No Love (in the Heart of.wav</name>
						<enabled>TRUE</enabled>
						<duration>5649</duration>
						<rate>
							<timebase>25</timebase>
							<ntsc>FALSE</ntsc>
						</rate>
						<start>27276</start>
						<end>-1</end>
						<in>0</in>
						<out>339</out>
						<pproTicksIn>0</pproTicksIn>
						<pproTicksOut>3444456960000</pproTicksOut>
						<file id="file-113">
							<name>NONRO170653CD0007 Ain't No Love (in the Heart of.wav</name>
							<pathurl>file://localhost/Volumes/Bingen/Prosjekter/MYNT194016%20WHATS%20COOKING/Musikk/Jan/DMA/NONRO170653CD0007%20Ain't%20No%20Love%20(in%20the%20Heart%20of.wav</pathurl>
							<rate>
								<timebase>30</timebase>
								<ntsc>TRUE</ntsc>
							</rate>
							<duration>6772</duration>
							<timecode>
								<rate>
									<timebase>30</timebase>
									<ntsc>TRUE</ntsc>
								</rate>
								<string>00;00;00;00</string>
								<frame>0</frame>
								<displayformat>DF</displayformat>
								<reel>
									<name></name>
								</reel>
							</timecode>
							<media>
								<audio>
									<samplecharacteristics>
										<depth>16</depth>
										<samplerate>48000</samplerate>
									</samplecharacteristics>
									<channelcount>2</channelcount>
								</audio>
							</media>
						</file>
						<sourcetrack>
							<mediatype>audio</mediatype>
							<trackindex>1</trackindex>
						</sourcetrack>
							<filter>
								<effect>
									<name>Gain</name>
									<effectid>{61756678, 4761696e, 4b657947}</effectid>
									<effecttype>filter</effecttype>
									<mediatype>audio</mediatype>
									<parameter authoringApp="PremierePro">
										<parameterid>Gain(dB)</parameterid>
										<name>Gain(dB)</name>
										<valuemin>-96</valuemin>
										<valuemax>96</valuemax>
										<value>-25</value>
									</parameter>
								</effect>
							</filter>
						<link>
							<linkclipref>clipitem-445</linkclipref>
							<mediatype>audio</mediatype>
							<trackindex>15</trackindex>
							<clipindex>23</clipindex>
							<groupindex>1</groupindex>
						</link>
						<link>
							<linkclipref>clipitem-462</linkclipref>
							<mediatype>audio</mediatype>
							<trackindex>16</trackindex>
							<clipindex>18</clipindex>
							<groupindex>1</groupindex>
						</link>
						<logginginfo>
							<description></description>
							<scene></scene>
							<shottake></shottake>
							<lognote>CD Track 7 archiveNo[170653018]</lognote>
						</logginginfo>
						<labels>
							<label2>Caribbean</label2>
						</labels>
					</clipitem>
					<transitionitem>
						<start>27602</start>
						<end>27615</end>
						<alignment>center</alignment>
						<cutPointTicks>60963840000</cutPointTicks>
						<rate>
							<timebase>25</timebase>
							<ntsc>FALSE</ntsc>
						</rate>
						<effect>
							<name>Cross Fade (+3dB)</name>
							<effectid>KGAudioTransCrossFade3dB</effectid>
							<effecttype>transition</effecttype>
							<mediatype>audio</mediatype>
							<wipecode>0</wipecode>
							<wipeaccuracy>100</wipeaccuracy>
							<startratio>0</startratio>
							<endratio>1</endratio>
							<reverse>FALSE</reverse>
						</effect>
					</transitionitem>
					<clipitem id="clipitem-446" premiereChannelType="stereo">
						<masterclipid>masterclip-119</masterclipid>
						<name>NONRO170653CD0007 Ain't No Love (in the Heart of.wav</name>
						<enabled>TRUE</enabled>
						<duration>5649</duration>
						<rate>
							<timebase>25</timebase>
							<ntsc>FALSE</ntsc>
						</rate>
						<start>-1</start>
						<end>-1</end>
						<in>326</in>
						<out>663</out>
						<pproTicksIn>3312368640000</pproTicksIn>
						<pproTicksOut>6736504320000</pproTicksOut>
						<file id="file-113"/>
						<sourcetrack>
							<mediatype>audio</mediatype>
							<trackindex>1</trackindex>
						</sourcetrack>
							<filter>
								<effect>
									<name>Gain</name>
									<effectid>{61756678, 4761696e, 4b657947}</effectid>
									<effecttype>filter</effecttype>
									<mediatype>audio</mediatype>
									<parameter authoringApp="PremierePro">
										<parameterid>Gain(dB)</parameterid>
										<name>Gain(dB)</name>
										<valuemin>-96</valuemin>
										<valuemax>96</valuemax>
										<value>-10</value>
									</parameter>
								</effect>
							</filter>
						<link>
							<linkclipref>clipitem-446</linkclipref>
							<mediatype>audio</mediatype>
							<trackindex>15</trackindex>
							<clipindex>25</clipindex>
							<groupindex>1</groupindex>
						</link>
						<link>
							<linkclipref>clipitem-463</linkclipref>
							<mediatype>audio</mediatype>
							<trackindex>16</trackindex>
							<clipindex>20</clipindex>
							<groupindex>1</groupindex>
						</link>
						<logginginfo>
							<description></description>
							<scene></scene>
							<shottake></shottake>
							<lognote>CD Track 7 archiveNo[170653018]</lognote>
						</logginginfo>
						<labels>
							<label2>Caribbean</label2>
						</labels>
					</clipitem>
					<transitionitem>
						<start>27864</start>
						<end>27939</end>
						<alignment>center</alignment>
						<cutPointTicks>375943680000</cutPointTicks>
						<rate>
							<timebase>25</timebase>
							<ntsc>FALSE</ntsc>
						</rate>
						<effect>
							<name>Cross Fade (+3dB)</name>
							<effectid>KGAudioTransCrossFade3dB</effectid>
							<effecttype>transition</effecttype>
							<mediatype>audio</mediatype>
							<wipecode>0</wipecode>
							<wipeaccuracy>100</wipeaccuracy>
							<startratio>0</startratio>
							<endratio>1</endratio>
							<reverse>FALSE</reverse>
						</effect>
					</transitionitem>
					<clipitem id="clipitem-447" premiereChannelType="stereo">
						<masterclipid>masterclip-119</masterclipid>
						<name>NONRO170653CD0007 Ain't No Love (in the Heart of.wav</name>
						<enabled>TRUE</enabled>
						<duration>5649</duration>
						<rate>
							<timebase>25</timebase>
							<ntsc>FALSE</ntsc>
						</rate>
						<start>-1</start>
						<end>-1</end>
						<in>588</in>
						<out>778</out>
						<pproTicksIn>5974456320000</pproTicksIn>
						<pproTicksOut>7904977920000</pproTicksOut>
						<file id="file-113"/>
						<sourcetrack>
							<mediatype>audio</mediatype>
							<trackindex>1</trackindex>
						</sourcetrack>
							<filter>
								<effect>
									<name>Gain</name>
									<effectid>{61756678, 4761696e, 4b657947}</effectid>
									<effecttype>filter</effecttype>
									<mediatype>audio</mediatype>
									<parameter authoringApp="PremierePro">
										<parameterid>Gain(dB)</parameterid>
										<name>Gain(dB)</name>
										<valuemin>-96</valuemin>
										<valuemax>96</valuemax>
										<value>-20</value>
									</parameter>
								</effect>
							</filter>
						<link>
							<linkclipref>clipitem-447</linkclipref>
							<mediatype>audio</mediatype>
							<trackindex>15</trackindex>
							<clipindex>27</clipindex>
							<groupindex>1</groupindex>
						</link>
						<link>
							<linkclipref>clipitem-464</linkclipref>
							<mediatype>audio</mediatype>
							<trackindex>16</trackindex>
							<clipindex>22</clipindex>
							<groupindex>1</groupindex>
						</link>
						<logginginfo>
							<description></description>
							<scene></scene>
							<shottake></shottake>
							<lognote>CD Track 7 archiveNo[170653018]</lognote>
						</logginginfo>
						<labels>
							<label2>Caribbean</label2>
						</labels>
					</clipitem>
					<transitionitem>
						<start>27969</start>
						<end>28054</end>
						<alignment>end-black</alignment>
						<cutPointTicks>863654400000</cutPointTicks>
						<rate>
							<timebase>25</timebase>
							<ntsc>FALSE</ntsc>
						</rate>
						<effect>
							<name>Cross Fade (+3dB)</name>
							<effectid>KGAudioTransCrossFade3dB</effectid>
							<effecttype>transition</effecttype>
							<mediatype>audio</mediatype>
							<wipecode>0</wipecode>
							<wipeaccuracy>100</wipeaccuracy>
							<startratio>0</startratio>
							<endratio>1</endratio>
							<reverse>FALSE</reverse>
						</effect>
					</transitionitem>
					<enabled>TRUE</enabled>
					<locked>FALSE</locked>
					<outputchannelindex>1</outputchannelindex>
				</track>
				<track TL.SQTrackAudioKeyframeStyle="0" TL.SQTrackShy="0" TL.SQTrackExpandedHeight="45" TL.SQTrackExpanded="1" MZ.TrackTargeted="1" PannerCurrentValue="0.5" PannerIsInverted="true" PannerStartKeyframe="-91445760000000000,0.5,0,0,0,0,0,0" PannerName="Balance" currentExplodedTrackIndex="1" totalExplodedTrackCount="2" premiereTrackType="Stereo">
					<clipitem id="clipitem-448" premiereChannelType="stereo">
						<masterclipid>masterclip-112</masterclipid>
						<name>264438__lebcraftlp__woosh.wav</name>
						<enabled>TRUE</enabled>
						<duration>1440</duration>
						<rate>
							<timebase>25</timebase>
							<ntsc>FALSE</ntsc>
						</rate>
						<start>939</start>
						<end>979</end>
						<in>266</in>
						<out>306</out>
						<pproTicksIn>812851200000</pproTicksIn>
						<pproTicksOut>934778880000</pproTicksOut>
						<file id="file-106"/>
						<sourcetrack>
							<mediatype>audio</mediatype>
							<trackindex>2</trackindex>
						</sourcetrack>
							<filter>
								<effect>
									<name>Gain</name>
									<effectid>{61756678, 4761696e, 4b657947}</effectid>
									<effecttype>filter</effecttype>
									<mediatype>audio</mediatype>
									<parameter authoringApp="PremierePro">
										<parameterid>Gain(dB)</parameterid>
										<name>Gain(dB)</name>
										<valuemin>-96</valuemin>
										<valuemax>96</valuemax>
										<value>-11</value>
									</parameter>
								</effect>
							</filter>
							<filter>
								<effect>
									<name>Time Remap</name>
									<effectid>timeremap</effectid>
									<effectcategory>motion</effectcategory>
									<effecttype>motion</effecttype>
									<mediatype>audio</mediatype>
									<parameter authoringApp="PremierePro">
										<parameterid>variablespeed</parameterid>
										<name>variablespeed</name>
										<valuemin>0</valuemin>
										<valuemax>1</valuemax>
										<value>0</value>
									</parameter>
									<parameter authoringApp="PremierePro">
										<parameterid>speed</parameterid>
										<name>speed</name>
										<valuemin>-100000</valuemin>
										<valuemax>100000</valuemax>
										<value>30</value>
									</parameter>
									<parameter authoringApp="PremierePro">
										<parameterid>reverse</parameterid>
										<name>reverse</name>
										<value>FALSE</value>
									</parameter>
									<parameter authoringApp="PremierePro">
										<parameterid>frameblending</parameterid>
										<name>frameblending</name>
										<value>FALSE</value>
									</parameter>
									<parameter authoringApp="PremierePro">
										<parameterid>graphdict</parameterid>
										<name>graphdict</name>
										<valuemin>0</valuemin>
										<valuemax>432</valuemax>
										<value>0</value>
										<keyframe>
											<when>0</when>
											<value>0</value>
											<speedvirtualkf>TRUE</speedvirtualkf>
											<speedkfstart>TRUE</speedkfstart>
										</keyframe>
										<keyframe>
											<when>266</when>
											<value>79</value>
											<speedvirtualkf>TRUE</speedvirtualkf>
											<speedkfin>TRUE</speedkfin>
										</keyframe>
										<keyframe>
											<when>306</when>
											<value>91</value>
											<speedvirtualkf>TRUE</speedvirtualkf>
											<speedkfout>TRUE</speedkfout>
										</keyframe>
										<keyframe>
											<when>1440</when>
											<value>432</value>
											<speedvirtualkf>TRUE</speedvirtualkf>
											<speedkfend>TRUE</speedkfend>
										</keyframe>
										<interpolation>
											<name>FCPCurve</name>
										</interpolation>
									</parameter>
								</effect>
							</filter>
						<link>
							<linkclipref>clipitem-428</linkclipref>
							<mediatype>audio</mediatype>
							<trackindex>15</trackindex>
							<clipindex>2</clipindex>
							<groupindex>1</groupindex>
						</link>
						<link>
							<linkclipref>clipitem-448</linkclipref>
							<mediatype>audio</mediatype>
							<trackindex>16</trackindex>
							<clipindex>1</clipindex>
							<groupindex>1</groupindex>
						</link>
						<logginginfo>
							<description></description>
							<scene></scene>
							<shottake></shottake>
							<lognote></lognote>
						</logginginfo>
						<labels>
							<label2>Caribbean</label2>
						</labels>
					</clipitem>
					<clipitem id="clipitem-449" premiereChannelType="stereo">
						<masterclipid>masterclip-113</masterclipid>
						<name>91285__timbre__82264-variant-3d-wooshes-both-ways-2.wav</name>
						<enabled>TRUE</enabled>
						<duration>1120</duration>
						<rate>
							<timebase>25</timebase>
							<ntsc>FALSE</ntsc>
						</rate>
						<start>7240</start>
						<end>7280</end>
						<in>0</in>
						<out>40</out>
						<pproTicksIn>0</pproTicksIn>
						<pproTicksOut>406425600000</pproTicksOut>
						<file id="file-107"/>
						<sourcetrack>
							<mediatype>audio</mediatype>
							<trackindex>2</trackindex>
						</sourcetrack>
							<filter>
								<effect>
									<name>Gain</name>
									<effectid>{61756678, 4761696e, 4b657947}</effectid>
									<effecttype>filter</effecttype>
									<mediatype>audio</mediatype>
									<parameter authoringApp="PremierePro">
										<parameterid>Gain(dB)</parameterid>
										<name>Gain(dB)</name>
										<valuemin>-96</valuemin>
										<valuemax>96</valuemax>
										<value>-8</value>
									</parameter>
								</effect>
							</filter>
						<link>
							<linkclipref>clipitem-429</linkclipref>
							<mediatype>audio</mediatype>
							<trackindex>15</trackindex>
							<clipindex>3</clipindex>
							<groupindex>1</groupindex>
						</link>
						<link>
							<linkclipref>clipitem-449</linkclipref>
							<mediatype>audio</mediatype>
							<trackindex>16</trackindex>
							<clipindex>2</clipindex>
							<groupindex>1</groupindex>
						</link>
						<logginginfo>
							<description></description>
							<scene></scene>
							<shottake></shottake>
							<lognote></lognote>
						</logginginfo>
						<labels>
							<label2>Caribbean</label2>
						</labels>
					</clipitem>
					<clipitem id="clipitem-450" premiereChannelType="stereo">
						<masterclipid>masterclip-101</masterclipid>
						<name>169867__halgrimm__swoosh.wav</name>
						<enabled>TRUE</enabled>
						<duration>57</duration>
						<rate>
							<timebase>25</timebase>
							<ntsc>FALSE</ntsc>
						</rate>
						<start>7410</start>
						<end>7438</end>
						<in>26</in>
						<out>54</out>
						<pproTicksIn>264176640000</pproTicksIn>
						<pproTicksOut>548674560000</pproTicksOut>
						<file id="file-95"/>
						<sourcetrack>
							<mediatype>audio</mediatype>
							<trackindex>2</trackindex>
						</sourcetrack>
							<filter>
								<effect>
									<name>Gain</name>
									<effectid>{61756678, 4761696e, 4b657947}</effectid>
									<effecttype>filter</effecttype>
									<mediatype>audio</mediatype>
									<parameter authoringApp="PremierePro">
										<parameterid>Gain(dB)</parameterid>
										<name>Gain(dB)</name>
										<valuemin>-96</valuemin>
										<valuemax>96</valuemax>
										<value>-8</value>
									</parameter>
								</effect>
							</filter>
						<link>
							<linkclipref>clipitem-430</linkclipref>
							<mediatype>audio</mediatype>
							<trackindex>15</trackindex>
							<clipindex>4</clipindex>
							<groupindex>1</groupindex>
						</link>
						<link>
							<linkclipref>clipitem-450</linkclipref>
							<mediatype>audio</mediatype>
							<trackindex>16</trackindex>
							<clipindex>3</clipindex>
							<groupindex>1</groupindex>
						</link>
						<logginginfo>
							<description></description>
							<scene></scene>
							<shottake></shottake>
							<lognote></lognote>
						</logginginfo>
						<labels>
							<label2>Caribbean</label2>
						</labels>
					</clipitem>
					<clipitem id="clipitem-451" premiereChannelType="stereo">
						<masterclipid>masterclip-114</masterclipid>
						<name>89030__metamorphmuses__socket_01.wav</name>
						<enabled>TRUE</enabled>
						<duration>12</duration>
						<rate>
							<timebase>25</timebase>
							<ntsc>FALSE</ntsc>
						</rate>
						<start>7464</start>
						<end>7476</end>
						<in>0</in>
						<out>12</out>
						<pproTicksIn>0</pproTicksIn>
						<pproTicksOut>121927680000</pproTicksOut>
						<file id="file-108"/>
						<sourcetrack>
							<mediatype>audio</mediatype>
							<trackindex>2</trackindex>
						</sourcetrack>
							<filter>
								<effect>
									<name>Gain</name>
									<effectid>{61756678, 4761696e, 4b657947}</effectid>
									<effecttype>filter</effecttype>
									<mediatype>audio</mediatype>
									<parameter authoringApp="PremierePro">
										<parameterid>Gain(dB)</parameterid>
										<name>Gain(dB)</name>
										<valuemin>-96</valuemin>
										<valuemax>96</valuemax>
										<value>-15</value>
									</parameter>
								</effect>
							</filter>
						<link>
							<linkclipref>clipitem-431</linkclipref>
							<mediatype>audio</mediatype>
							<trackindex>15</trackindex>
							<clipindex>5</clipindex>
							<groupindex>1</groupindex>
						</link>
						<link>
							<linkclipref>clipitem-451</linkclipref>
							<mediatype>audio</mediatype>
							<trackindex>16</trackindex>
							<clipindex>4</clipindex>
							<groupindex>1</groupindex>
						</link>
						<logginginfo>
							<description></description>
							<scene></scene>
							<shottake></shottake>
							<lognote></lognote>
						</logginginfo>
						<labels>
							<label2>Mango</label2>
						</labels>
					</clipitem>
					<clipitem id="clipitem-452" premiereChannelType="stereo">
						<masterclipid>masterclip-115</masterclipid>
						<name>205991__emptysound__digital-wooshes-eleven.wav</name>
						<enabled>TRUE</enabled>
						<duration>425</duration>
						<rate>
							<timebase>25</timebase>
							<ntsc>FALSE</ntsc>
						</rate>
						<start>7491</start>
						<end>7507</end>
						<in>353</in>
						<out>369</out>
						<pproTicksIn>2875461120000</pproTicksIn>
						<pproTicksOut>3005517312000</pproTicksOut>
						<file id="file-109"/>
						<sourcetrack>
							<mediatype>audio</mediatype>
							<trackindex>2</trackindex>
						</sourcetrack>
							<filter>
								<effect>
									<name>Gain</name>
									<effectid>{61756678, 4761696e, 4b657947}</effectid>
									<effecttype>filter</effecttype>
									<mediatype>audio</mediatype>
									<parameter authoringApp="PremierePro">
										<parameterid>Gain(dB)</parameterid>
										<name>Gain(dB)</name>
										<valuemin>-96</valuemin>
										<valuemax>96</valuemax>
										<value>-26</value>
									</parameter>
								</effect>
							</filter>
							<filter>
								<effect>
									<name>Time Remap</name>
									<effectid>timeremap</effectid>
									<effectcategory>motion</effectcategory>
									<effecttype>motion</effecttype>
									<mediatype>audio</mediatype>
									<parameter authoringApp="PremierePro">
										<parameterid>variablespeed</parameterid>
										<name>variablespeed</name>
										<valuemin>0</valuemin>
										<valuemax>1</valuemax>
										<value>0</value>
									</parameter>
									<parameter authoringApp="PremierePro">
										<parameterid>speed</parameterid>
										<name>speed</name>
										<valuemin>-100000</valuemin>
										<valuemax>100000</valuemax>
										<value>80</value>
									</parameter>
									<parameter authoringApp="PremierePro">
										<parameterid>reverse</parameterid>
										<name>reverse</name>
										<value>FALSE</value>
									</parameter>
									<parameter authoringApp="PremierePro">
										<parameterid>frameblending</parameterid>
										<name>frameblending</name>
										<value>FALSE</value>
									</parameter>
									<parameter authoringApp="PremierePro">
										<parameterid>graphdict</parameterid>
										<name>graphdict</name>
										<valuemin>0</valuemin>
										<valuemax>340</valuemax>
										<value>0</value>
										<keyframe>
											<when>0</when>
											<value>0</value>
											<speedvirtualkf>TRUE</speedvirtualkf>
											<speedkfstart>TRUE</speedkfstart>
										</keyframe>
										<keyframe>
											<when>353</when>
											<value>282</value>
											<speedvirtualkf>TRUE</speedvirtualkf>
											<speedkfin>TRUE</speedkfin>
										</keyframe>
										<keyframe>
											<when>369</when>
											<value>295</value>
											<speedvirtualkf>TRUE</speedvirtualkf>
											<speedkfout>TRUE</speedkfout>
										</keyframe>
										<keyframe>
											<when>425</when>
											<value>340</value>
											<speedvirtualkf>TRUE</speedvirtualkf>
											<speedkfend>TRUE</speedkfend>
										</keyframe>
										<interpolation>
											<name>FCPCurve</name>
										</interpolation>
									</parameter>
								</effect>
							</filter>
						<link>
							<linkclipref>clipitem-432</linkclipref>
							<mediatype>audio</mediatype>
							<trackindex>15</trackindex>
							<clipindex>6</clipindex>
							<groupindex>1</groupindex>
						</link>
						<link>
							<linkclipref>clipitem-452</linkclipref>
							<mediatype>audio</mediatype>
							<trackindex>16</trackindex>
							<clipindex>5</clipindex>
							<groupindex>1</groupindex>
						</link>
						<logginginfo>
							<description></description>
							<scene></scene>
							<shottake></shottake>
							<lognote></lognote>
						</logginginfo>
						<labels>
							<label2>Caribbean</label2>
						</labels>
					</clipitem>
					<clipitem id="clipitem-453" premiereChannelType="stereo">
						<masterclipid>masterclip-115</masterclipid>
						<name>205991__emptysound__digital-wooshes-eleven.wav</name>
						<enabled>TRUE</enabled>
						<duration>340</duration>
						<rate>
							<timebase>25</timebase>
							<ntsc>FALSE</ntsc>
						</rate>
						<start>7561</start>
						<end>7572</end>
						<in>312</in>
						<out>323</out>
						<pproTicksIn>3170119680000</pproTicksIn>
						<pproTicksOut>3281886720000</pproTicksOut>
						<file id="file-109"/>
						<sourcetrack>
							<mediatype>audio</mediatype>
							<trackindex>2</trackindex>
						</sourcetrack>
							<filter>
								<effect>
									<name>Gain</name>
									<effectid>{61756678, 4761696e, 4b657947}</effectid>
									<effecttype>filter</effecttype>
									<mediatype>audio</mediatype>
									<parameter authoringApp="PremierePro">
										<parameterid>Gain(dB)</parameterid>
										<name>Gain(dB)</name>
										<valuemin>-96</valuemin>
										<valuemax>96</valuemax>
										<value>-26</value>
									</parameter>
								</effect>
							</filter>
						<link>
							<linkclipref>clipitem-433</linkclipref>
							<mediatype>audio</mediatype>
							<trackindex>15</trackindex>
							<clipindex>7</clipindex>
							<groupindex>1</groupindex>
						</link>
						<link>
							<linkclipref>clipitem-453</linkclipref>
							<mediatype>audio</mediatype>
							<trackindex>16</trackindex>
							<clipindex>6</clipindex>
							<groupindex>1</groupindex>
						</link>
						<logginginfo>
							<description></description>
							<scene></scene>
							<shottake></shottake>
							<lognote></lognote>
						</logginginfo>
						<labels>
							<label2>Caribbean</label2>
						</labels>
					</clipitem>
					<clipitem id="clipitem-454" premiereChannelType="stereo">
						<masterclipid>masterclip-104</masterclipid>
						<name>BTV_162_6_Best_Foot_Forward_Bradley_Sanchez_925597.wav</name>
						<enabled>TRUE</enabled>
						<duration>3393</duration>
						<rate>
							<timebase>25</timebase>
							<ntsc>FALSE</ntsc>
						</rate>
						<start>7610</start>
						<end>7762</end>
						<in>0</in>
						<out>152</out>
						<pproTicksIn>0</pproTicksIn>
						<pproTicksOut>1544417280000</pproTicksOut>
						<file id="file-98"/>
						<sourcetrack>
							<mediatype>audio</mediatype>
							<trackindex>2</trackindex>
						</sourcetrack>
							<filter>
								<effect>
									<name>Gain</name>
									<effectid>{61756678, 4761696e, 4b657947}</effectid>
									<effecttype>filter</effecttype>
									<mediatype>audio</mediatype>
									<parameter authoringApp="PremierePro">
										<parameterid>Gain(dB)</parameterid>
										<name>Gain(dB)</name>
										<valuemin>-96</valuemin>
										<valuemax>96</valuemax>
										<value>-3</value>
									</parameter>
								</effect>
							</filter>
							<filter>
								<effect>
									<name>Audio Levels</name>
									<effectid>audiolevels</effectid>
									<effectcategory>audiolevels</effectcategory>
									<effecttype>audiolevels</effecttype>
									<mediatype>audio</mediatype>
									<parameter authoringApp="PremierePro">
										<parameterid>level</parameterid>
										<name>Level</name>
										<valuemin>0</valuemin>
										<valuemax>3.98109</valuemax>
										<value>0.38685</value>
									</parameter>
								</effect>
							</filter>
						<link>
							<linkclipref>clipitem-434</linkclipref>
							<mediatype>audio</mediatype>
							<trackindex>15</trackindex>
							<clipindex>8</clipindex>
							<groupindex>1</groupindex>
						</link>
						<link>
							<linkclipref>clipitem-454</linkclipref>
							<mediatype>audio</mediatype>
							<trackindex>16</trackindex>
							<clipindex>7</clipindex>
							<groupindex>1</groupindex>
						</link>
						<logginginfo>
							<description></description>
							<scene></scene>
							<shottake></shottake>
							<lognote></lognote>
						</logginginfo>
						<labels>
							<label2>Caribbean</label2>
						</labels>
					</clipitem>
					<clipitem id="clipitem-455" premiereChannelType="stereo">
						<masterclipid>masterclip-104</masterclipid>
						<name>BTV_162_6_Best_Foot_Forward_Bradley_Sanchez_925597.wav</name>
						<enabled>TRUE</enabled>
						<duration>3393</duration>
						<rate>
							<timebase>25</timebase>
							<ntsc>FALSE</ntsc>
						</rate>
						<start>8569</start>
						<end>8658</end>
						<in>152</in>
						<out>241</out>
						<pproTicksIn>1544417280000</pproTicksIn>
						<pproTicksOut>2448714240000</pproTicksOut>
						<file id="file-98"/>
						<sourcetrack>
							<mediatype>audio</mediatype>
							<trackindex>2</trackindex>
						</sourcetrack>
							<filter>
								<effect>
									<name>Gain</name>
									<effectid>{61756678, 4761696e, 4b657947}</effectid>
									<effecttype>filter</effecttype>
									<mediatype>audio</mediatype>
									<parameter authoringApp="PremierePro">
										<parameterid>Gain(dB)</parameterid>
										<name>Gain(dB)</name>
										<valuemin>-96</valuemin>
										<valuemax>96</valuemax>
										<value>-3</value>
									</parameter>
								</effect>
							</filter>
							<filter>
								<effect>
									<name>Audio Levels</name>
									<effectid>audiolevels</effectid>
									<effectcategory>audiolevels</effectcategory>
									<effecttype>audiolevels</effecttype>
									<mediatype>audio</mediatype>
									<parameter authoringApp="PremierePro">
										<parameterid>level</parameterid>
										<name>Level</name>
										<valuemin>0</valuemin>
										<valuemax>3.98109</valuemax>
										<value>0.38685</value>
									</parameter>
								</effect>
							</filter>
						<link>
							<linkclipref>clipitem-435</linkclipref>
							<mediatype>audio</mediatype>
							<trackindex>15</trackindex>
							<clipindex>9</clipindex>
							<groupindex>1</groupindex>
						</link>
						<link>
							<linkclipref>clipitem-455</linkclipref>
							<mediatype>audio</mediatype>
							<trackindex>16</trackindex>
							<clipindex>8</clipindex>
							<groupindex>1</groupindex>
						</link>
						<logginginfo>
							<description></description>
							<scene></scene>
							<shottake></shottake>
							<lognote></lognote>
						</logginginfo>
						<labels>
							<label2>Caribbean</label2>
						</labels>
					</clipitem>
					<clipitem id="clipitem-456" premiereChannelType="stereo">
						<masterclipid>masterclip-104</masterclipid>
						<name>BTV_162_6_Best_Foot_Forward_Bradley_Sanchez_925597.wav</name>
						<enabled>TRUE</enabled>
						<duration>3393</duration>
						<rate>
							<timebase>25</timebase>
							<ntsc>FALSE</ntsc>
						</rate>
						<start>8658</start>
						<end>-1</end>
						<in>241</in>
						<out>348</out>
						<pproTicksIn>2448714240000</pproTicksIn>
						<pproTicksOut>3535902720000</pproTicksOut>
						<file id="file-98"/>
						<sourcetrack>
							<mediatype>audio</mediatype>
							<trackindex>2</trackindex>
						</sourcetrack>
							<filter>
								<effect>
									<name>Gain</name>
									<effectid>{61756678, 4761696e, 4b657947}</effectid>
									<effecttype>filter</effecttype>
									<mediatype>audio</mediatype>
									<parameter authoringApp="PremierePro">
										<parameterid>Gain(dB)</parameterid>
										<name>Gain(dB)</name>
										<valuemin>-96</valuemin>
										<valuemax>96</valuemax>
										<value>-3</value>
									</parameter>
								</effect>
							</filter>
							<filter>
								<effect>
									<name>Audio Levels</name>
									<effectid>audiolevels</effectid>
									<effectcategory>audiolevels</effectcategory>
									<effecttype>audiolevels</effecttype>
									<mediatype>audio</mediatype>
									<parameter authoringApp="PremierePro">
										<parameterid>level</parameterid>
										<name>Level</name>
										<valuemin>0</valuemin>
										<valuemax>3.98109</valuemax>
										<value>0.38685</value>
									</parameter>
								</effect>
							</filter>
						<link>
							<linkclipref>clipitem-436</linkclipref>
							<mediatype>audio</mediatype>
							<trackindex>15</trackindex>
							<clipindex>10</clipindex>
							<groupindex>1</groupindex>
						</link>
						<link>
							<linkclipref>clipitem-456</linkclipref>
							<mediatype>audio</mediatype>
							<trackindex>16</trackindex>
							<clipindex>9</clipindex>
							<groupindex>1</groupindex>
						</link>
						<logginginfo>
							<description></description>
							<scene></scene>
							<shottake></shottake>
							<lognote></lognote>
						</logginginfo>
						<labels>
							<label2>Caribbean</label2>
						</labels>
					</clipitem>
					<transitionitem>
						<start>8752</start>
						<end>8765</end>
						<alignment>end-black</alignment>
						<cutPointTicks>132088320000</cutPointTicks>
						<rate>
							<timebase>25</timebase>
							<ntsc>FALSE</ntsc>
						</rate>
						<effect>
							<name>Cross Fade (+3dB)</name>
							<effectid>KGAudioTransCrossFade3dB</effectid>
							<effecttype>transition</effecttype>
							<mediatype>audio</mediatype>
							<wipecode>0</wipecode>
							<wipeaccuracy>100</wipeaccuracy>
							<startratio>0</startratio>
							<endratio>1</endratio>
							<reverse>FALSE</reverse>
						</effect>
					</transitionitem>
					<clipitem id="clipitem-457" premiereChannelType="stereo">
						<masterclipid>masterclip-84</masterclipid>
						<name>194081__potentjello__woosh-noise-1.wav</name>
						<enabled>TRUE</enabled>
						<duration>10</duration>
						<rate>
							<timebase>25</timebase>
							<ntsc>FALSE</ntsc>
						</rate>
						<start>8957</start>
						<end>8967</end>
						<in>0</in>
						<out>10</out>
						<pproTicksIn>0</pproTicksIn>
						<pproTicksOut>66044160000</pproTicksOut>
						<file id="file-78"/>
						<sourcetrack>
							<mediatype>audio</mediatype>
							<trackindex>2</trackindex>
						</sourcetrack>
							<filter>
								<effect>
									<name>Time Remap</name>
									<effectid>timeremap</effectid>
									<effectcategory>motion</effectcategory>
									<effecttype>motion</effecttype>
									<mediatype>audio</mediatype>
									<parameter authoringApp="PremierePro">
										<parameterid>variablespeed</parameterid>
										<name>variablespeed</name>
										<valuemin>0</valuemin>
										<valuemax>1</valuemax>
										<value>0</value>
									</parameter>
									<parameter authoringApp="PremierePro">
										<parameterid>speed</parameterid>
										<name>speed</name>
										<valuemin>-100000</valuemin>
										<valuemax>100000</valuemax>
										<value>65</value>
									</parameter>
									<parameter authoringApp="PremierePro">
										<parameterid>reverse</parameterid>
										<name>reverse</name>
										<value>FALSE</value>
									</parameter>
									<parameter authoringApp="PremierePro">
										<parameterid>frameblending</parameterid>
										<name>frameblending</name>
										<value>FALSE</value>
									</parameter>
									<parameter authoringApp="PremierePro">
										<parameterid>graphdict</parameterid>
										<name>graphdict</name>
										<valuemin>0</valuemin>
										<valuemax>6</valuemax>
										<value>0</value>
										<keyframe>
											<when>0</when>
											<value>0</value>
											<speedvirtualkf>TRUE</speedvirtualkf>
											<speedkfin>TRUE</speedkfin>
										</keyframe>
										<keyframe>
											<when>10</when>
											<value>6</value>
											<speedvirtualkf>TRUE</speedvirtualkf>
											<speedkfout>TRUE</speedkfout>
										</keyframe>
										<interpolation>
											<name>FCPCurve</name>
										</interpolation>
									</parameter>
								</effect>
							</filter>
							<marker>
								<comment></comment>
								<name></name>
								<in>6</in>
								<out>-1</out>
							</marker>
						<link>
							<linkclipref>clipitem-437</linkclipref>
							<mediatype>audio</mediatype>
							<trackindex>15</trackindex>
							<clipindex>12</clipindex>
							<groupindex>1</groupindex>
						</link>
						<link>
							<linkclipref>clipitem-457</linkclipref>
							<mediatype>audio</mediatype>
							<trackindex>16</trackindex>
							<clipindex>11</clipindex>
							<groupindex>1</groupindex>
						</link>
						<logginginfo>
							<description></description>
							<scene></scene>
							<shottake></shottake>
							<lognote></lognote>
						</logginginfo>
						<labels>
							<label2>Caribbean</label2>
						</labels>
					</clipitem>
					<clipitem id="clipitem-458" premiereChannelType="stereo">
						<masterclipid>masterclip-116</masterclipid>
						<name>06351_dark_drum_hit.wav</name>
						<enabled>TRUE</enabled>
						<duration>120</duration>
						<rate>
							<timebase>25</timebase>
							<ntsc>FALSE</ntsc>
						</rate>
						<start>16309</start>
						<end>16429</end>
						<in>0</in>
						<out>120</out>
						<pproTicksIn>0</pproTicksIn>
						<pproTicksOut>1219276800000</pproTicksOut>
						<file id="file-110"/>
						<sourcetrack>
							<mediatype>audio</mediatype>
							<trackindex>2</trackindex>
						</sourcetrack>
							<filter>
								<effect>
									<name>Audio Levels</name>
									<effectid>audiolevels</effectid>
									<effectcategory>audiolevels</effectcategory>
									<effecttype>audiolevels</effecttype>
									<mediatype>audio</mediatype>
									<parameter authoringApp="PremierePro">
										<parameterid>level</parameterid>
										<name>Level</name>
										<valuemin>0</valuemin>
										<valuemax>3.98109</valuemax>
										<value>0.177406</value>
									</parameter>
								</effect>
							</filter>
						<link>
							<linkclipref>clipitem-439</linkclipref>
							<mediatype>audio</mediatype>
							<trackindex>15</trackindex>
							<clipindex>15</clipindex>
							<groupindex>1</groupindex>
						</link>
						<link>
							<linkclipref>clipitem-458</linkclipref>
							<mediatype>audio</mediatype>
							<trackindex>16</trackindex>
							<clipindex>12</clipindex>
							<groupindex>1</groupindex>
						</link>
						<logginginfo>
							<description></description>
							<scene></scene>
							<shottake></shottake>
							<lognote></lognote>
						</logginginfo>
						<labels>
							<label2>Caribbean</label2>
						</labels>
					</clipitem>
					<clipitem id="clipitem-459" premiereChannelType="stereo">
						<masterclipid>masterclip-117</masterclipid>
						<name>257713__vmgraw__whoosh.wav</name>
						<enabled>TRUE</enabled>
						<duration>11</duration>
						<rate>
							<timebase>25</timebase>
							<ntsc>FALSE</ntsc>
						</rate>
						<start>17858</start>
						<end>17869</end>
						<in>0</in>
						<out>11</out>
						<pproTicksIn>0</pproTicksIn>
						<pproTicksOut>111767040000</pproTicksOut>
						<file id="file-111"/>
						<sourcetrack>
							<mediatype>audio</mediatype>
							<trackindex>2</trackindex>
						</sourcetrack>
							<filter>
								<effect>
									<name>Audio Levels</name>
									<effectid>audiolevels</effectid>
									<effectcategory>audiolevels</effectcategory>
									<effecttype>audiolevels</effecttype>
									<mediatype>audio</mediatype>
									<parameter authoringApp="PremierePro">
										<parameterid>level</parameterid>
										<name>Level</name>
										<valuemin>0</valuemin>
										<valuemax>3.98109</valuemax>
										<value>0.250593</value>
									</parameter>
								</effect>
							</filter>
						<link>
							<linkclipref>clipitem-442</linkclipref>
							<mediatype>audio</mediatype>
							<trackindex>15</trackindex>
							<clipindex>18</clipindex>
							<groupindex>1</groupindex>
						</link>
						<link>
							<linkclipref>clipitem-459</linkclipref>
							<mediatype>audio</mediatype>
							<trackindex>16</trackindex>
							<clipindex>13</clipindex>
							<groupindex>1</groupindex>
						</link>
						<logginginfo>
							<description></description>
							<scene></scene>
							<shottake></shottake>
							<lognote></lognote>
						</logginginfo>
						<labels>
							<label2>Caribbean</label2>
						</labels>
					</clipitem>
					<transitionitem>
						<start>22575</start>
						<end>22588</end>
						<alignment>start-black</alignment>
						<cutPointTicks>0</cutPointTicks>
						<rate>
							<timebase>25</timebase>
							<ntsc>FALSE</ntsc>
						</rate>
						<effect>
							<name>Cross Fade (+3dB)</name>
							<effectid>KGAudioTransCrossFade3dB</effectid>
							<effecttype>transition</effecttype>
							<mediatype>audio</mediatype>
							<wipecode>0</wipecode>
							<wipeaccuracy>100</wipeaccuracy>
							<startratio>0</startratio>
							<endratio>1</endratio>
							<reverse>FALSE</reverse>
						</effect>
					</transitionitem>
					<clipitem id="clipitem-460" premiereChannelType="stereo">
						<masterclipid>masterclip-118</masterclipid>
						<name>AUXMP_BM004207_CLOSE ENCOUNTERS.wav</name>
						<enabled>TRUE</enabled>
						<duration>4725</duration>
						<rate>
							<timebase>25</timebase>
							<ntsc>FALSE</ntsc>
						</rate>
						<start>-1</start>
						<end>-1</end>
						<in>77</in>
						<out>1477</out>
						<pproTicksIn>782369280000</pproTicksIn>
						<pproTicksOut>15007265280000</pproTicksOut>
						<file id="file-112"/>
						<sourcetrack>
							<mediatype>audio</mediatype>
							<trackindex>2</trackindex>
						</sourcetrack>
							<filter>
								<effect>
									<name>Gain</name>
									<effectid>{61756678, 4761696e, 4b657947}</effectid>
									<effecttype>filter</effecttype>
									<mediatype>audio</mediatype>
									<parameter authoringApp="PremierePro">
										<parameterid>Gain(dB)</parameterid>
										<name>Gain(dB)</name>
										<valuemin>-96</valuemin>
										<valuemax>96</valuemax>
										<value>-15</value>
									</parameter>
								</effect>
							</filter>
						<link>
							<linkclipref>clipitem-443</linkclipref>
							<mediatype>audio</mediatype>
							<trackindex>15</trackindex>
							<clipindex>20</clipindex>
							<groupindex>1</groupindex>
						</link>
						<link>
							<linkclipref>clipitem-460</linkclipref>
							<mediatype>audio</mediatype>
							<trackindex>16</trackindex>
							<clipindex>15</clipindex>
							<groupindex>1</groupindex>
						</link>
						<logginginfo>
							<description>rolig, lav tikking, droneaktig</description>
							<scene></scene>
							<shottake></shottake>
							<lognote></lognote>
						</logginginfo>
						<labels>
							<label2>Caribbean</label2>
						</labels>
					</clipitem>
					<transitionitem>
						<start>23909</start>
						<end>23975</end>
						<alignment>center</alignment>
						<cutPointTicks>314979840000</cutPointTicks>
						<rate>
							<timebase>25</timebase>
							<ntsc>FALSE</ntsc>
						</rate>
						<effect>
							<name>Cross Fade (+3dB)</name>
							<effectid>KGAudioTransCrossFade3dB</effectid>
							<effecttype>transition</effecttype>
							<mediatype>audio</mediatype>
							<wipecode>0</wipecode>
							<wipeaccuracy>100</wipeaccuracy>
							<startratio>0</startratio>
							<endratio>1</endratio>
							<reverse>FALSE</reverse>
						</effect>
					</transitionitem>
					<clipitem id="clipitem-461" premiereChannelType="stereo">
						<masterclipid>masterclip-118</masterclipid>
						<name>AUXMP_BM004207_CLOSE ENCOUNTERS.wav</name>
						<enabled>TRUE</enabled>
						<duration>4725</duration>
						<rate>
							<timebase>25</timebase>
							<ntsc>FALSE</ntsc>
						</rate>
						<start>-1</start>
						<end>24077</end>
						<in>4481</in>
						<out>4649</out>
						<pproTicksIn>45529827840000</pproTicksIn>
						<pproTicksOut>47236815360000</pproTicksOut>
						<file id="file-112"/>
						<sourcetrack>
							<mediatype>audio</mediatype>
							<trackindex>2</trackindex>
						</sourcetrack>
							<filter>
								<effect>
									<name>Gain</name>
									<effectid>{61756678, 4761696e, 4b657947}</effectid>
									<effecttype>filter</effecttype>
									<mediatype>audio</mediatype>
									<parameter authoringApp="PremierePro">
										<parameterid>Gain(dB)</parameterid>
										<name>Gain(dB)</name>
										<valuemin>-96</valuemin>
										<valuemax>96</valuemax>
										<value>-18</value>
									</parameter>
								</effect>
							</filter>
						<link>
							<linkclipref>clipitem-444</linkclipref>
							<mediatype>audio</mediatype>
							<trackindex>15</trackindex>
							<clipindex>22</clipindex>
							<groupindex>1</groupindex>
						</link>
						<link>
							<linkclipref>clipitem-461</linkclipref>
							<mediatype>audio</mediatype>
							<trackindex>16</trackindex>
							<clipindex>17</clipindex>
							<groupindex>1</groupindex>
						</link>
						<logginginfo>
							<description>rolig, lav tikking, droneaktig</description>
							<scene></scene>
							<shottake></shottake>
							<lognote></lognote>
						</logginginfo>
						<labels>
							<label2>Caribbean</label2>
						</labels>
					</clipitem>
					<clipitem id="clipitem-462" premiereChannelType="stereo">
						<masterclipid>masterclip-119</masterclipid>
						<name>NONRO170653CD0007 Ain't No Love (in the Heart of.wav</name>
						<enabled>TRUE</enabled>
						<duration>5649</duration>
						<rate>
							<timebase>25</timebase>
							<ntsc>FALSE</ntsc>
						</rate>
						<start>27276</start>
						<end>-1</end>
						<in>0</in>
						<out>339</out>
						<pproTicksIn>0</pproTicksIn>
						<pproTicksOut>3444456960000</pproTicksOut>
						<file id="file-113"/>
						<sourcetrack>
							<mediatype>audio</mediatype>
							<trackindex>2</trackindex>
						</sourcetrack>
							<filter>
								<effect>
									<name>Gain</name>
									<effectid>{61756678, 4761696e, 4b657947}</effectid>
									<effecttype>filter</effecttype>
									<mediatype>audio</mediatype>
									<parameter authoringApp="PremierePro">
										<parameterid>Gain(dB)</parameterid>
										<name>Gain(dB)</name>
										<valuemin>-96</valuemin>
										<valuemax>96</valuemax>
										<value>-25</value>
									</parameter>
								</effect>
							</filter>
						<link>
							<linkclipref>clipitem-445</linkclipref>
							<mediatype>audio</mediatype>
							<trackindex>15</trackindex>
							<clipindex>23</clipindex>
							<groupindex>1</groupindex>
						</link>
						<link>
							<linkclipref>clipitem-462</linkclipref>
							<mediatype>audio</mediatype>
							<trackindex>16</trackindex>
							<clipindex>18</clipindex>
							<groupindex>1</groupindex>
						</link>
						<logginginfo>
							<description></description>
							<scene></scene>
							<shottake></shottake>
							<lognote>CD Track 7 archiveNo[170653018]</lognote>
						</logginginfo>
						<labels>
							<label2>Caribbean</label2>
						</labels>
					</clipitem>
					<transitionitem>
						<start>27602</start>
						<end>27615</end>
						<alignment>center</alignment>
						<cutPointTicks>60963840000</cutPointTicks>
						<rate>
							<timebase>25</timebase>
							<ntsc>FALSE</ntsc>
						</rate>
						<effect>
							<name>Cross Fade (+3dB)</name>
							<effectid>KGAudioTransCrossFade3dB</effectid>
							<effecttype>transition</effecttype>
							<mediatype>audio</mediatype>
							<wipecode>0</wipecode>
							<wipeaccuracy>100</wipeaccuracy>
							<startratio>0</startratio>
							<endratio>1</endratio>
							<reverse>FALSE</reverse>
						</effect>
					</transitionitem>
					<clipitem id="clipitem-463" premiereChannelType="stereo">
						<masterclipid>masterclip-119</masterclipid>
						<name>NONRO170653CD0007 Ain't No Love (in the Heart of.wav</name>
						<enabled>TRUE</enabled>
						<duration>5649</duration>
						<rate>
							<timebase>25</timebase>
							<ntsc>FALSE</ntsc>
						</rate>
						<start>-1</start>
						<end>-1</end>
						<in>326</in>
						<out>663</out>
						<pproTicksIn>3312368640000</pproTicksIn>
						<pproTicksOut>6736504320000</pproTicksOut>
						<file id="file-113"/>
						<sourcetrack>
							<mediatype>audio</mediatype>
							<trackindex>2</trackindex>
						</sourcetrack>
							<filter>
								<effect>
									<name>Gain</name>
									<effectid>{61756678, 4761696e, 4b657947}</effectid>
									<effecttype>filter</effecttype>
									<mediatype>audio</mediatype>
									<parameter authoringApp="PremierePro">
										<parameterid>Gain(dB)</parameterid>
										<name>Gain(dB)</name>
										<valuemin>-96</valuemin>
										<valuemax>96</valuemax>
										<value>-10</value>
									</parameter>
								</effect>
							</filter>
						<link>
							<linkclipref>clipitem-446</linkclipref>
							<mediatype>audio</mediatype>
							<trackindex>15</trackindex>
							<clipindex>25</clipindex>
							<groupindex>1</groupindex>
						</link>
						<link>
							<linkclipref>clipitem-463</linkclipref>
							<mediatype>audio</mediatype>
							<trackindex>16</trackindex>
							<clipindex>20</clipindex>
							<groupindex>1</groupindex>
						</link>
						<logginginfo>
							<description></description>
							<scene></scene>
							<shottake></shottake>
							<lognote>CD Track 7 archiveNo[170653018]</lognote>
						</logginginfo>
						<labels>
							<label2>Caribbean</label2>
						</labels>
					</clipitem>
					<transitionitem>
						<start>27864</start>
						<end>27939</end>
						<alignment>center</alignment>
						<cutPointTicks>375943680000</cutPointTicks>
						<rate>
							<timebase>25</timebase>
							<ntsc>FALSE</ntsc>
						</rate>
						<effect>
							<name>Cross Fade (+3dB)</name>
							<effectid>KGAudioTransCrossFade3dB</effectid>
							<effecttype>transition</effecttype>
							<mediatype>audio</mediatype>
							<wipecode>0</wipecode>
							<wipeaccuracy>100</wipeaccuracy>
							<startratio>0</startratio>
							<endratio>1</endratio>
							<reverse>FALSE</reverse>
						</effect>
					</transitionitem>
					<clipitem id="clipitem-464" premiereChannelType="stereo">
						<masterclipid>masterclip-119</masterclipid>
						<name>NONRO170653CD0007 Ain't No Love (in the Heart of.wav</name>
						<enabled>TRUE</enabled>
						<duration>5649</duration>
						<rate>
							<timebase>25</timebase>
							<ntsc>FALSE</ntsc>
						</rate>
						<start>-1</start>
						<end>-1</end>
						<in>588</in>
						<out>778</out>
						<pproTicksIn>5974456320000</pproTicksIn>
						<pproTicksOut>7904977920000</pproTicksOut>
						<file id="file-113"/>
						<sourcetrack>
							<mediatype>audio</mediatype>
							<trackindex>2</trackindex>
						</sourcetrack>
							<filter>
								<effect>
									<name>Gain</name>
									<effectid>{61756678, 4761696e, 4b657947}</effectid>
									<effecttype>filter</effecttype>
									<mediatype>audio</mediatype>
									<parameter authoringApp="PremierePro">
										<parameterid>Gain(dB)</parameterid>
										<name>Gain(dB)</name>
										<valuemin>-96</valuemin>
										<valuemax>96</valuemax>
										<value>-20</value>
									</parameter>
								</effect>
							</filter>
						<link>
							<linkclipref>clipitem-447</linkclipref>
							<mediatype>audio</mediatype>
							<trackindex>15</trackindex>
							<clipindex>27</clipindex>
							<groupindex>1</groupindex>
						</link>
						<link>
							<linkclipref>clipitem-464</linkclipref>
							<mediatype>audio</mediatype>
							<trackindex>16</trackindex>
							<clipindex>22</clipindex>
							<groupindex>1</groupindex>
						</link>
						<logginginfo>
							<description></description>
							<scene></scene>
							<shottake></shottake>
							<lognote>CD Track 7 archiveNo[170653018]</lognote>
						</logginginfo>
						<labels>
							<label2>Caribbean</label2>
						</labels>
					</clipitem>
					<transitionitem>
						<start>27969</start>
						<end>28054</end>
						<alignment>end-black</alignment>
						<cutPointTicks>863654400000</cutPointTicks>
						<rate>
							<timebase>25</timebase>
							<ntsc>FALSE</ntsc>
						</rate>
						<effect>
							<name>Cross Fade (+3dB)</name>
							<effectid>KGAudioTransCrossFade3dB</effectid>
							<effecttype>transition</effecttype>
							<mediatype>audio</mediatype>
							<wipecode>0</wipecode>
							<wipeaccuracy>100</wipeaccuracy>
							<startratio>0</startratio>
							<endratio>1</endratio>
							<reverse>FALSE</reverse>
						</effect>
					</transitionitem>
					<enabled>TRUE</enabled>
					<locked>FALSE</locked>
					<outputchannelindex>2</outputchannelindex>
				</track>
				<track TL.SQTrackAudioKeyframeStyle="0" TL.SQTrackShy="0" TL.SQTrackExpandedHeight="55" TL.SQTrackExpanded="1" MZ.TrackTargeted="1" PannerCurrentValue="0.5" PannerIsInverted="true" PannerStartKeyframe="-91445760000000000,0.5,0,0,0,0,0,0" PannerName="Balance" currentExplodedTrackIndex="0" totalExplodedTrackCount="2" premiereTrackType="Stereo">
					<clipitem id="clipitem-465" premiereChannelType="mono">
						<masterclipid>masterclip-120</masterclipid>
						<name>Stikk4-SC05-T01-Multicam</name>
						<enabled>TRUE</enabled>
						<duration>10735</duration>
						<rate>
							<timebase>25</timebase>
							<ntsc>FALSE</ntsc>
						</rate>
						<start>0</start>
						<end>63</end>
						<in>8873</in>
						<out>8936</out>
						<pproTicksIn>90155358720000</pproTicksIn>
						<pproTicksOut>90795479040000</pproTicksOut>
						<sequence id="sequence-9" TL.SQAudioVisibleBase="0" TL.SQVideoVisibleBase="0" TL.SQVisibleBaseTime="0" TL.SQAVDividerPosition="0.5" TL.SQHideShyTracks="0" TL.SQHeaderWidth="184" Monitor.ProgramZoomOut="107072824320000" Monitor.ProgramZoomIn="0" TL.SQTimePerPixel="0.20000000000000001" AM.TrackVScrollPosition="0" AM.TrackScrollPosition="0" MZ.EditLine="0" MZ.Sequence.PreviewFrameSizeHeight="1080" MZ.Sequence.PreviewFrameSizeWidth="1920" MZ.Sequence.AudioTimeDisplayFormat="200" MZ.Sequence.PreviewRenderingClassID="1061109567" MZ.Sequence.PreviewRenderingPresetCodec="1634755438" MZ.Sequence.PreviewRenderingPresetPath="EncoderPresets/SequencePreview/e43ae329-eea5-4a04-b964-b72cf263ee81/Blackmagic QuickTime Movie.epr" MZ.Sequence.PreviewUseMaxRenderQuality="false" MZ.Sequence.PreviewUseMaxBitDepth="false" MZ.Sequence.EditingModeGUID="e43ae329-eea5-4a04-b964-b72cf263ee81" MZ.Sequence.VideoTimeDisplayFormat="101" MZ.WorkOutPoint="107072824320000" MZ.WorkInPoint="0" MZ.ZeroPoint="13708847255040000">
							<duration>10538</duration>
							<rate>
								<timebase>25</timebase>
								<ntsc>FALSE</ntsc>
							</rate>
							<name>Stikk4-SC05-T01-Multicam</name>
							<media>
								<video>
									<format>
										<samplecharacteristics>
											<rate>
												<timebase>25</timebase>
												<ntsc>FALSE</ntsc>
											</rate>
											<codec>
												<name>Apple ProRes 422</name>
												<appspecificdata>
													<appname>Final Cut Pro</appname>
													<appmanufacturer>Apple Inc.</appmanufacturer>
													<appversion>7.0</appversion>
													<data>
														<qtcodec>
															<codecname>Apple ProRes 422</codecname>
															<codectypename>Apple ProRes 422</codectypename>
															<codectypecode>apcn</codectypecode>
															<codecvendorcode>appl</codecvendorcode>
															<spatialquality>1024</spatialquality>
															<temporalquality>0</temporalquality>
															<keyframerate>0</keyframerate>
															<datarate>0</datarate>
														</qtcodec>
													</data>
												</appspecificdata>
											</codec>
											<width>1920</width>
											<height>1080</height>
											<anamorphic>FALSE</anamorphic>
											<pixelaspectratio>square</pixelaspectratio>
											<fielddominance>none</fielddominance>
											<colordepth>24</colordepth>
										</samplecharacteristics>
									</format>
									<track TL.SQTrackShy="0" TL.SQTrackExpandedHeight="50" TL.SQTrackExpanded="1" MZ.TrackTargeted="1">
										<clipitem id="clipitem-466">
											<masterclipid>masterclip-121</masterclipid>
											<name>Clip0040.mov</name>
											<enabled>TRUE</enabled>
											<duration>10428</duration>
											<rate>
												<timebase>25</timebase>
												<ntsc>FALSE</ntsc>
											</rate>
											<start>0</start>
											<end>10427</end>
											<in>1</in>
											<out>10428</out>
											<pproTicksIn>10160640000</pproTicksIn>
											<pproTicksOut>105955153920000</pproTicksOut>
											<alphatype>none</alphatype>
											<pixelaspectratio>square</pixelaspectratio>
											<anamorphic>FALSE</anamorphic>
											<file id="file-114">
												<name>Clip0040.mov</name>
												<pathurl>file://localhost/Volumes/Bingen/Prosjekter/MYNT194016%20WHATS%20COOKING/Media/Episode%2005%20N-ordet/Episode-opptak/12042016/KAM%20A/ProRes/Clip0040.mov</pathurl>
												<rate>
													<timebase>25</timebase>
													<ntsc>FALSE</ntsc>
												</rate>
												<duration>10428</duration>
												<timecode>
													<rate>
														<timebase>25</timebase>
														<ntsc>FALSE</ntsc>
													</rate>
													<string>13:14:40:07</string>
													<frame>1192007</frame>
													<displayformat>NDF</displayformat>
													<reel>
														<name></name>
													</reel>
												</timecode>
												<media>
													<video>
														<samplecharacteristics>
															<rate>
																<timebase>25</timebase>
																<ntsc>FALSE</ntsc>
															</rate>
															<width>1920</width>
															<height>1080</height>
															<anamorphic>FALSE</anamorphic>
															<pixelaspectratio>square</pixelaspectratio>
															<fielddominance>none</fielddominance>
														</samplecharacteristics>
													</video>
													<audio>
														<samplecharacteristics>
															<depth>16</depth>
															<samplerate>48000</samplerate>
														</samplecharacteristics>
														<channelcount>1</channelcount>
														<audiochannel>
															<sourcechannel>1</sourcechannel>
														</audiochannel>
													</audio>
													<audio>
														<samplecharacteristics>
															<depth>16</depth>
															<samplerate>48000</samplerate>
														</samplecharacteristics>
														<channelcount>1</channelcount>
														<audiochannel>
															<sourcechannel>2</sourcechannel>
														</audiochannel>
													</audio>
												</media>
											</file>
											<link>
												<linkclipref>clipitem-466</linkclipref>
												<mediatype>video</mediatype>
												<trackindex>1</trackindex>
												<clipindex>1</clipindex>
											</link>
											<link>
												<linkclipref>clipitem-474</linkclipref>
												<mediatype>audio</mediatype>
												<trackindex>5</trackindex>
												<clipindex>1</clipindex>
												<groupindex>1</groupindex>
											</link>
											<link>
												<linkclipref>clipitem-475</linkclipref>
												<mediatype>audio</mediatype>
												<trackindex>6</trackindex>
												<clipindex>1</clipindex>
												<groupindex>1</groupindex>
											</link>
											<logginginfo>
												<description>SC05 stikk4 T01</description>
												<scene></scene>
												<shottake></shottake>
												<lognote></lognote>
											</logginginfo>
											<labels>
												<label2>Iris</label2>
											</labels>
										</clipitem>
										<enabled>TRUE</enabled>
										<locked>FALSE</locked>
									</track>
									<track TL.SQTrackShy="0" TL.SQTrackExpandedHeight="25" TL.SQTrackExpanded="0" MZ.TrackTargeted="0">
										<clipitem id="clipitem-467">
											<masterclipid>masterclip-122</masterclipid>
											<name>Clip0012.mov</name>
											<enabled>TRUE</enabled>
											<duration>10668</duration>
											<rate>
												<timebase>25</timebase>
												<ntsc>FALSE</ntsc>
											</rate>
											<start>0</start>
											<end>10471</end>
											<in>197</in>
											<out>10668</out>
											<pproTicksIn>2001646080000</pproTicksIn>
											<pproTicksOut>108393707520000</pproTicksOut>
											<alphatype>none</alphatype>
											<pixelaspectratio>square</pixelaspectratio>
											<anamorphic>FALSE</anamorphic>
											<file id="file-115">
												<name>Clip0012.mov</name>
												<pathurl>file://localhost/Volumes/Bingen/Prosjekter/MYNT194016%20WHATS%20COOKING/Media/Episode%2005%20N-ordet/Episode-opptak/12042016/KAM%20B/ProRes/Clip0012.mov</pathurl>
												<rate>
													<timebase>25</timebase>
													<ntsc>FALSE</ntsc>
												</rate>
												<duration>10668</duration>
												<timecode>
													<rate>
														<timebase>25</timebase>
														<ntsc>FALSE</ntsc>
													</rate>
													<string>13:26:33:16</string>
													<frame>1209841</frame>
													<displayformat>NDF</displayformat>
													<reel>
														<name></name>
													</reel>
												</timecode>
												<media>
													<video>
														<samplecharacteristics>
															<rate>
																<timebase>25</timebase>
																<ntsc>FALSE</ntsc>
															</rate>
															<width>1920</width>
															<height>1080</height>
															<anamorphic>FALSE</anamorphic>
															<pixelaspectratio>square</pixelaspectratio>
															<fielddominance>none</fielddominance>
														</samplecharacteristics>
													</video>
													<audio>
														<samplecharacteristics>
															<depth>16</depth>
															<samplerate>48000</samplerate>
														</samplecharacteristics>
														<channelcount>1</channelcount>
														<audiochannel>
															<sourcechannel>1</sourcechannel>
														</audiochannel>
													</audio>
													<audio>
														<samplecharacteristics>
															<depth>16</depth>
															<samplerate>48000</samplerate>
														</samplecharacteristics>
														<channelcount>1</channelcount>
														<audiochannel>
															<sourcechannel>2</sourcechannel>
														</audiochannel>
													</audio>
												</media>
											</file>
											<link>
												<linkclipref>clipitem-467</linkclipref>
												<mediatype>video</mediatype>
												<trackindex>2</trackindex>
												<clipindex>1</clipindex>
											</link>
											<link>
												<linkclipref>clipitem-476</linkclipref>
												<mediatype>audio</mediatype>
												<trackindex>7</trackindex>
												<clipindex>1</clipindex>
												<groupindex>1</groupindex>
											</link>
											<link>
												<linkclipref>clipitem-477</linkclipref>
												<mediatype>audio</mediatype>
												<trackindex>8</trackindex>
												<clipindex>1</clipindex>
												<groupindex>1</groupindex>
											</link>
											<logginginfo>
												<description>SC05 stikk4 T01</description>
												<scene></scene>
												<shottake></shottake>
												<lognote></lognote>
											</logginginfo>
											<labels>
												<label2>Iris</label2>
											</labels>
										</clipitem>
										<enabled>TRUE</enabled>
										<locked>FALSE</locked>
									</track>
									<track TL.SQTrackShy="0" TL.SQTrackExpandedHeight="25" TL.SQTrackExpanded="0" MZ.TrackTargeted="0">
										<clipitem id="clipitem-468">
											<masterclipid>masterclip-123</masterclipid>
											<name>Clip0029.mov</name>
											<enabled>TRUE</enabled>
											<duration>10596</duration>
											<rate>
												<timebase>25</timebase>
												<ntsc>FALSE</ntsc>
											</rate>
											<start>0</start>
											<end>10406</end>
											<in>190</in>
											<out>10596</out>
											<pproTicksIn>1930521600000</pproTicksIn>
											<pproTicksOut>107662141440000</pproTicksOut>
											<alphatype>none</alphatype>
											<pixelaspectratio>square</pixelaspectratio>
											<anamorphic>FALSE</anamorphic>
											<file id="file-116">
												<name>Clip0029.mov</name>
												<pathurl>file://localhost/Volumes/Bingen/Prosjekter/MYNT194016%20WHATS%20COOKING/Media/Episode%2005%20N-ordet/Episode-opptak/12042016/KAM%20C/ProRes/Clip0029.mov</pathurl>
												<rate>
													<timebase>25</timebase>
													<ntsc>FALSE</ntsc>
												</rate>
												<duration>10596</duration>
												<timecode>
													<rate>
														<timebase>25</timebase>
														<ntsc>FALSE</ntsc>
													</rate>
													<string>14:53:09:21</string>
													<frame>1339746</frame>
													<displayformat>NDF</displayformat>
													<reel>
														<name></name>
													</reel>
												</timecode>
												<media>
													<video>
														<samplecharacteristics>
															<rate>
																<timebase>25</timebase>
																<ntsc>FALSE</ntsc>
															</rate>
															<width>1920</width>
															<height>1080</height>
															<anamorphic>FALSE</anamorphic>
															<pixelaspectratio>square</pixelaspectratio>
															<fielddominance>none</fielddominance>
														</samplecharacteristics>
													</video>
													<audio>
														<samplecharacteristics>
															<depth>16</depth>
															<samplerate>48000</samplerate>
														</samplecharacteristics>
														<channelcount>1</channelcount>
														<audiochannel>
															<sourcechannel>1</sourcechannel>
														</audiochannel>
													</audio>
													<audio>
														<samplecharacteristics>
															<depth>16</depth>
															<samplerate>48000</samplerate>
														</samplecharacteristics>
														<channelcount>1</channelcount>
														<audiochannel>
															<sourcechannel>2</sourcechannel>
														</audiochannel>
													</audio>
												</media>
											</file>
											<link>
												<linkclipref>clipitem-468</linkclipref>
												<mediatype>video</mediatype>
												<trackindex>3</trackindex>
												<clipindex>1</clipindex>
											</link>
											<link>
												<linkclipref>clipitem-478</linkclipref>
												<mediatype>audio</mediatype>
												<trackindex>9</trackindex>
												<clipindex>1</clipindex>
												<groupindex>1</groupindex>
											</link>
											<link>
												<linkclipref>clipitem-479</linkclipref>
												<mediatype>audio</mediatype>
												<trackindex>10</trackindex>
												<clipindex>1</clipindex>
												<groupindex>1</groupindex>
											</link>
											<logginginfo>
												<description>SC05 stikk4 T01</description>
												<scene></scene>
												<shottake></shottake>
												<lognote></lognote>
											</logginginfo>
											<labels>
												<label2>Iris</label2>
											</labels>
										</clipitem>
										<enabled>TRUE</enabled>
										<locked>FALSE</locked>
									</track>
									<track TL.SQTrackShy="0" TL.SQTrackExpandedHeight="25" TL.SQTrackExpanded="0" MZ.TrackTargeted="0">
										<clipitem id="clipitem-469">
											<masterclipid>masterclip-124</masterclipid>
											<name>002_0033.mov</name>
											<enabled>TRUE</enabled>
											<duration>10622</duration>
											<rate>
												<timebase>25</timebase>
												<ntsc>FALSE</ntsc>
											</rate>
											<start>0</start>
											<end>10474</end>
											<in>148</in>
											<out>10622</out>
											<pproTicksIn>1503774720000</pproTicksIn>
											<pproTicksOut>107926318080000</pproTicksOut>
											<alphatype>none</alphatype>
											<pixelaspectratio>square</pixelaspectratio>
											<anamorphic>FALSE</anamorphic>
											<file id="file-117">
												<name>002_0033.mov</name>
												<pathurl>file://localhost/Volumes/Bingen/Prosjekter/MYNT194016%20WHATS%20COOKING/Media/Episode%2005%20N-ordet/Episode-opptak/12042016/KAM%20D/KORT%202/ProRes/002_0033.mov</pathurl>
												<rate>
													<timebase>25</timebase>
													<ntsc>FALSE</ntsc>
												</rate>
												<duration>10622</duration>
												<timecode>
													<rate>
														<timebase>25</timebase>
														<ntsc>FALSE</ntsc>
													</rate>
													<string>14:59:22:13</string>
													<frame>1349063</frame>
													<displayformat>NDF</displayformat>
													<reel>
														<name></name>
													</reel>
												</timecode>
												<media>
													<video>
														<samplecharacteristics>
															<rate>
																<timebase>25</timebase>
																<ntsc>FALSE</ntsc>
															</rate>
															<width>1920</width>
															<height>1080</height>
															<anamorphic>FALSE</anamorphic>
															<pixelaspectratio>square</pixelaspectratio>
															<fielddominance>none</fielddominance>
														</samplecharacteristics>
													</video>
													<audio>
														<samplecharacteristics>
															<depth>16</depth>
															<samplerate>48000</samplerate>
														</samplecharacteristics>
														<channelcount>1</channelcount>
														<audiochannel>
															<sourcechannel>1</sourcechannel>
														</audiochannel>
													</audio>
													<audio>
														<samplecharacteristics>
															<depth>16</depth>
															<samplerate>48000</samplerate>
														</samplecharacteristics>
														<channelcount>1</channelcount>
														<audiochannel>
															<sourcechannel>2</sourcechannel>
														</audiochannel>
													</audio>
												</media>
											</file>
											<link>
												<linkclipref>clipitem-469</linkclipref>
												<mediatype>video</mediatype>
												<trackindex>4</trackindex>
												<clipindex>1</clipindex>
											</link>
											<link>
												<linkclipref>clipitem-480</linkclipref>
												<mediatype>audio</mediatype>
												<trackindex>11</trackindex>
												<clipindex>1</clipindex>
												<groupindex>1</groupindex>
											</link>
											<link>
												<linkclipref>clipitem-481</linkclipref>
												<mediatype>audio</mediatype>
												<trackindex>12</trackindex>
												<clipindex>1</clipindex>
												<groupindex>1</groupindex>
											</link>
											<logginginfo>
												<description>SC05 stikk4 T01</description>
												<scene></scene>
												<shottake></shottake>
												<lognote></lognote>
											</logginginfo>
											<labels>
												<label2>Iris</label2>
											</labels>
										</clipitem>
										<enabled>TRUE</enabled>
										<locked>FALSE</locked>
									</track>
								</video>
								<audio>
									<numOutputChannels>4</numOutputChannels>
									<format>
										<samplecharacteristics>
											<depth>16</depth>
											<samplerate>48000</samplerate>
										</samplecharacteristics>
									</format>
									<outputs>
										<group>
											<index>1</index>
											<numchannels>1</numchannels>
											<downmix>0</downmix>
											<channel>
												<index>1</index>
											</channel>
										</group>
										<group>
											<index>2</index>
											<numchannels>1</numchannels>
											<downmix>0</downmix>
											<channel>
												<index>2</index>
											</channel>
										</group>
										<group>
											<index>3</index>
											<numchannels>1</numchannels>
											<downmix>0</downmix>
											<channel>
												<index>3</index>
											</channel>
										</group>
										<group>
											<index>4</index>
											<numchannels>1</numchannels>
											<downmix>0</downmix>
											<channel>
												<index>4</index>
											</channel>
										</group>
									</outputs>
									<track TL.SQTrackAudioKeyframeStyle="0" TL.SQTrackShy="0" TL.SQTrackExpandedHeight="25" TL.SQTrackExpanded="0" MZ.TrackTargeted="1" PannerCurrentValue="0" PannerIsInverted="true" PannerStartKeyframe="-91445760000000000,0.,0,0,0,0,0,0" PannerName="Balance" currentExplodedTrackIndex="0" totalExplodedTrackCount="1" premiereTrackType="Stereo">
										<clipitem id="clipitem-470" premiereChannelType="mono">
											<masterclipid>masterclip-125</masterclipid>
											<name>ELIXSTIK4T01.WAV</name>
											<enabled>TRUE</enabled>
											<duration>10699</duration>
											<rate>
												<timebase>25</timebase>
												<ntsc>FALSE</ntsc>
											</rate>
											<start>0</start>
											<end>10538</end>
											<in>161</in>
											<out>10699</out>
											<pproTicksIn>1635863040000</pproTicksIn>
											<pproTicksOut>108708687360000</pproTicksOut>
											<file id="file-118">
												<name>ELIXSTIK4T01.WAV</name>
												<pathurl>file://localhost/Volumes/Bingen/Prosjekter/MYNT194016%20WHATS%20COOKING/Media/Episode%2005%20N-ordet/Episode-opptak/12042016/LYD/ELIXSTIK4T01.WAV</pathurl>
												<rate>
													<timebase>30</timebase>
													<ntsc>TRUE</ntsc>
												</rate>
												<duration>12827</duration>
												<timecode>
													<rate>
														<timebase>30</timebase>
														<ntsc>TRUE</ntsc>
													</rate>
													<string>14;59;22;02</string>
													<frame>1617242</frame>
													<displayformat>DF</displayformat>
													<reel>
														<name>ELIXIA</name>
													</reel>
												</timecode>
												<media>
													<audio>
														<samplecharacteristics>
															<depth>16</depth>
															<samplerate>48000</samplerate>
														</samplecharacteristics>
														<channelcount>1</channelcount>
														<audiochannel>
															<sourcechannel>1</sourcechannel>
														</audiochannel>
													</audio>
													<audio>
														<samplecharacteristics>
															<depth>16</depth>
															<samplerate>48000</samplerate>
														</samplecharacteristics>
														<channelcount>1</channelcount>
														<audiochannel>
															<sourcechannel>2</sourcechannel>
														</audiochannel>
													</audio>
													<audio>
														<samplecharacteristics>
															<depth>16</depth>
															<samplerate>48000</samplerate>
														</samplecharacteristics>
														<channelcount>1</channelcount>
														<audiochannel>
															<sourcechannel>3</sourcechannel>
														</audiochannel>
													</audio>
													<audio>
														<samplecharacteristics>
															<depth>16</depth>
															<samplerate>48000</samplerate>
														</samplecharacteristics>
														<channelcount>1</channelcount>
														<audiochannel>
															<sourcechannel>4</sourcechannel>
														</audiochannel>
													</audio>
												</media>
											</file>
											<sourcetrack>
												<mediatype>audio</mediatype>
												<trackindex>1</trackindex>
											</sourcetrack>
											<link>
												<linkclipref>clipitem-470</linkclipref>
												<mediatype>audio</mediatype>
												<trackindex>1</trackindex>
												<clipindex>1</clipindex>
												<groupindex>1</groupindex>
											</link>
											<link>
												<linkclipref>clipitem-471</linkclipref>
												<mediatype>audio</mediatype>
												<trackindex>2</trackindex>
												<clipindex>1</clipindex>
												<groupindex>1</groupindex>
											</link>
											<link>
												<linkclipref>clipitem-472</linkclipref>
												<mediatype>audio</mediatype>
												<trackindex>3</trackindex>
												<clipindex>1</clipindex>
												<groupindex>1</groupindex>
											</link>
											<link>
												<linkclipref>clipitem-473</linkclipref>
												<mediatype>audio</mediatype>
												<trackindex>4</trackindex>
												<clipindex>1</clipindex>
												<groupindex>1</groupindex>
											</link>
											<logginginfo>
												<description>sc05 T01</description>
												<scene>ELIXSTIK4</scene>
												<shottake></shottake>
												<lognote></lognote>
											</logginginfo>
											<labels>
												<label2>Caribbean</label2>
											</labels>
										</clipitem>
										<enabled>TRUE</enabled>
										<locked>FALSE</locked>
										<outputchannelindex>1</outputchannelindex>
									</track>
									<track TL.SQTrackAudioKeyframeStyle="0" TL.SQTrackShy="0" TL.SQTrackExpandedHeight="25" TL.SQTrackExpanded="0" MZ.TrackTargeted="1" PannerIsInverted="true" PannerName="Balance" currentExplodedTrackIndex="0" totalExplodedTrackCount="1" premiereTrackType="Stereo">
										<clipitem id="clipitem-471" premiereChannelType="mono">
											<masterclipid>masterclip-125</masterclipid>
											<name>ELIXSTIK4T01.WAV</name>
											<enabled>TRUE</enabled>
											<duration>10699</duration>
											<rate>
												<timebase>25</timebase>
												<ntsc>FALSE</ntsc>
											</rate>
											<start>0</start>
											<end>10538</end>
											<in>161</in>
											<out>10699</out>
											<pproTicksIn>1635863040000</pproTicksIn>
											<pproTicksOut>108708687360000</pproTicksOut>
											<file id="file-118"/>
											<sourcetrack>
												<mediatype>audio</mediatype>
												<trackindex>2</trackindex>
											</sourcetrack>
											<link>
												<linkclipref>clipitem-470</linkclipref>
												<mediatype>audio</mediatype>
												<trackindex>1</trackindex>
												<clipindex>1</clipindex>
												<groupindex>1</groupindex>
											</link>
											<link>
												<linkclipref>clipitem-471</linkclipref>
												<mediatype>audio</mediatype>
												<trackindex>2</trackindex>
												<clipindex>1</clipindex>
												<groupindex>1</groupindex>
											</link>
											<link>
												<linkclipref>clipitem-472</linkclipref>
												<mediatype>audio</mediatype>
												<trackindex>3</trackindex>
												<clipindex>1</clipindex>
												<groupindex>1</groupindex>
											</link>
											<link>
												<linkclipref>clipitem-473</linkclipref>
												<mediatype>audio</mediatype>
												<trackindex>4</trackindex>
												<clipindex>1</clipindex>
												<groupindex>1</groupindex>
											</link>
											<logginginfo>
												<description>sc05 T01</description>
												<scene>ELIXSTIK4</scene>
												<shottake></shottake>
												<lognote></lognote>
											</logginginfo>
											<labels>
												<label2>Caribbean</label2>
											</labels>
										</clipitem>
										<enabled>TRUE</enabled>
										<locked>FALSE</locked>
										<outputchannelindex>2</outputchannelindex>
									</track>
									<track TL.SQTrackAudioKeyframeStyle="0" TL.SQTrackShy="0" TL.SQTrackExpandedHeight="25" TL.SQTrackExpanded="0" MZ.TrackTargeted="1" PannerCurrentValue="0" PannerIsInverted="true" PannerStartKeyframe="-91445760000000000,0.,0,0,0,0,0,0" PannerName="Balance" currentExplodedTrackIndex="0" totalExplodedTrackCount="1" premiereTrackType="Stereo">
										<clipitem id="clipitem-472" premiereChannelType="mono">
											<masterclipid>masterclip-125</masterclipid>
											<name>ELIXSTIK4T01.WAV</name>
											<enabled>TRUE</enabled>
											<duration>10699</duration>
											<rate>
												<timebase>25</timebase>
												<ntsc>FALSE</ntsc>
											</rate>
											<start>0</start>
											<end>10538</end>
											<in>161</in>
											<out>10699</out>
											<pproTicksIn>1635863040000</pproTicksIn>
											<pproTicksOut>108708687360000</pproTicksOut>
											<file id="file-118"/>
											<sourcetrack>
												<mediatype>audio</mediatype>
												<trackindex>3</trackindex>
											</sourcetrack>
											<link>
												<linkclipref>clipitem-470</linkclipref>
												<mediatype>audio</mediatype>
												<trackindex>1</trackindex>
												<clipindex>1</clipindex>
												<groupindex>1</groupindex>
											</link>
											<link>
												<linkclipref>clipitem-471</linkclipref>
												<mediatype>audio</mediatype>
												<trackindex>2</trackindex>
												<clipindex>1</clipindex>
												<groupindex>1</groupindex>
											</link>
											<link>
												<linkclipref>clipitem-472</linkclipref>
												<mediatype>audio</mediatype>
												<trackindex>3</trackindex>
												<clipindex>1</clipindex>
												<groupindex>1</groupindex>
											</link>
											<link>
												<linkclipref>clipitem-473</linkclipref>
												<mediatype>audio</mediatype>
												<trackindex>4</trackindex>
												<clipindex>1</clipindex>
												<groupindex>1</groupindex>
											</link>
											<logginginfo>
												<description>sc05 T01</description>
												<scene>ELIXSTIK4</scene>
												<shottake></shottake>
												<lognote></lognote>
											</logginginfo>
											<labels>
												<label2>Caribbean</label2>
											</labels>
										</clipitem>
										<enabled>TRUE</enabled>
										<locked>FALSE</locked>
										<outputchannelindex>3</outputchannelindex>
									</track>
									<track TL.SQTrackAudioKeyframeStyle="0" TL.SQTrackShy="0" TL.SQTrackExpandedHeight="25" TL.SQTrackExpanded="0" MZ.TrackTargeted="1" PannerIsInverted="true" PannerName="Balance" currentExplodedTrackIndex="0" totalExplodedTrackCount="1" premiereTrackType="Stereo">
										<clipitem id="clipitem-473" premiereChannelType="mono">
											<masterclipid>masterclip-125</masterclipid>
											<name>ELIXSTIK4T01.WAV</name>
											<enabled>TRUE</enabled>
											<duration>10699</duration>
											<rate>
												<timebase>25</timebase>
												<ntsc>FALSE</ntsc>
											</rate>
											<start>0</start>
											<end>10538</end>
											<in>161</in>
											<out>10699</out>
											<pproTicksIn>1635863040000</pproTicksIn>
											<pproTicksOut>108708687360000</pproTicksOut>
											<file id="file-118"/>
											<sourcetrack>
												<mediatype>audio</mediatype>
												<trackindex>4</trackindex>
											</sourcetrack>
											<link>
												<linkclipref>clipitem-470</linkclipref>
												<mediatype>audio</mediatype>
												<trackindex>1</trackindex>
												<clipindex>1</clipindex>
												<groupindex>1</groupindex>
											</link>
											<link>
												<linkclipref>clipitem-471</linkclipref>
												<mediatype>audio</mediatype>
												<trackindex>2</trackindex>
												<clipindex>1</clipindex>
												<groupindex>1</groupindex>
											</link>
											<link>
												<linkclipref>clipitem-472</linkclipref>
												<mediatype>audio</mediatype>
												<trackindex>3</trackindex>
												<clipindex>1</clipindex>
												<groupindex>1</groupindex>
											</link>
											<link>
												<linkclipref>clipitem-473</linkclipref>
												<mediatype>audio</mediatype>
												<trackindex>4</trackindex>
												<clipindex>1</clipindex>
												<groupindex>1</groupindex>
											</link>
											<logginginfo>
												<description>sc05 T01</description>
												<scene>ELIXSTIK4</scene>
												<shottake></shottake>
												<lognote></lognote>
											</logginginfo>
											<labels>
												<label2>Caribbean</label2>
											</labels>
										</clipitem>
										<enabled>TRUE</enabled>
										<locked>FALSE</locked>
										<outputchannelindex>4</outputchannelindex>
									</track>
									<track TL.SQTrackAudioKeyframeStyle="0" TL.SQTrackShy="0" TL.SQTrackExpandedHeight="25" TL.SQTrackExpanded="0" MZ.TrackTargeted="0" PannerCurrentValue="0.5" PannerIsInverted="true" PannerStartKeyframe="-91445760000000000,0.5,0,0,0,0,0,0" PannerName="Balance" currentExplodedTrackIndex="0" totalExplodedTrackCount="1" premiereTrackType="Stereo">
										<clipitem id="clipitem-474" premiereChannelType="mono">
											<masterclipid>masterclip-121</masterclipid>
											<name>Clip0040.mov</name>
											<enabled>TRUE</enabled>
											<duration>10428</duration>
											<rate>
												<timebase>25</timebase>
												<ntsc>FALSE</ntsc>
											</rate>
											<start>0</start>
											<end>10427</end>
											<in>1</in>
											<out>10428</out>
											<pproTicksIn>10160640000</pproTicksIn>
											<pproTicksOut>105955153920000</pproTicksOut>
											<file id="file-114"/>
											<sourcetrack>
												<mediatype>audio</mediatype>
												<trackindex>1</trackindex>
											</sourcetrack>
											<link>
												<linkclipref>clipitem-466</linkclipref>
												<mediatype>video</mediatype>
												<trackindex>1</trackindex>
												<clipindex>1</clipindex>
											</link>
											<link>
												<linkclipref>clipitem-474</linkclipref>
												<mediatype>audio</mediatype>
												<trackindex>5</trackindex>
												<clipindex>1</clipindex>
												<groupindex>1</groupindex>
											</link>
											<link>
												<linkclipref>clipitem-475</linkclipref>
												<mediatype>audio</mediatype>
												<trackindex>6</trackindex>
												<clipindex>1</clipindex>
												<groupindex>1</groupindex>
											</link>
											<logginginfo>
												<description>SC05 stikk4 T01</description>
												<scene></scene>
												<shottake></shottake>
												<lognote></lognote>
											</logginginfo>
											<labels>
												<label2>Iris</label2>
											</labels>
										</clipitem>
										<enabled>FALSE</enabled>
										<locked>FALSE</locked>
										<outputchannelindex>1</outputchannelindex>
									</track>
									<track TL.SQTrackAudioKeyframeStyle="0" TL.SQTrackShy="0" TL.SQTrackExpandedHeight="25" TL.SQTrackExpanded="0" MZ.TrackTargeted="0" PannerCurrentValue="0.5" PannerIsInverted="true" PannerStartKeyframe="-91445760000000000,0.5,0,0,0,0,0,0" PannerName="Balance" currentExplodedTrackIndex="0" totalExplodedTrackCount="1" premiereTrackType="Stereo">
										<clipitem id="clipitem-475" premiereChannelType="mono">
											<masterclipid>masterclip-121</masterclipid>
											<name>Clip0040.mov</name>
											<enabled>TRUE</enabled>
											<duration>10428</duration>
											<rate>
												<timebase>25</timebase>
												<ntsc>FALSE</ntsc>
											</rate>
											<start>0</start>
											<end>10427</end>
											<in>1</in>
											<out>10428</out>
											<pproTicksIn>10160640000</pproTicksIn>
											<pproTicksOut>105955153920000</pproTicksOut>
											<file id="file-114"/>
											<sourcetrack>
												<mediatype>audio</mediatype>
												<trackindex>2</trackindex>
											</sourcetrack>
											<link>
												<linkclipref>clipitem-466</linkclipref>
												<mediatype>video</mediatype>
												<trackindex>1</trackindex>
												<clipindex>1</clipindex>
											</link>
											<link>
												<linkclipref>clipitem-474</linkclipref>
												<mediatype>audio</mediatype>
												<trackindex>5</trackindex>
												<clipindex>1</clipindex>
												<groupindex>1</groupindex>
											</link>
											<link>
												<linkclipref>clipitem-475</linkclipref>
												<mediatype>audio</mediatype>
												<trackindex>6</trackindex>
												<clipindex>1</clipindex>
												<groupindex>1</groupindex>
											</link>
											<logginginfo>
												<description>SC05 stikk4 T01</description>
												<scene></scene>
												<shottake></shottake>
												<lognote></lognote>
											</logginginfo>
											<labels>
												<label2>Iris</label2>
											</labels>
										</clipitem>
										<enabled>FALSE</enabled>
										<locked>FALSE</locked>
										<outputchannelindex>2</outputchannelindex>
									</track>
									<track TL.SQTrackAudioKeyframeStyle="0" TL.SQTrackShy="0" TL.SQTrackExpandedHeight="25" TL.SQTrackExpanded="0" MZ.TrackTargeted="0" PannerCurrentValue="0.5" PannerIsInverted="true" PannerStartKeyframe="-91445760000000000,0.5,0,0,0,0,0,0" PannerName="Balance" currentExplodedTrackIndex="0" totalExplodedTrackCount="1" premiereTrackType="Stereo">
										<clipitem id="clipitem-476" premiereChannelType="mono">
											<masterclipid>masterclip-122</masterclipid>
											<name>Clip0012.mov</name>
											<enabled>TRUE</enabled>
											<duration>10668</duration>
											<rate>
												<timebase>25</timebase>
												<ntsc>FALSE</ntsc>
											</rate>
											<start>0</start>
											<end>10471</end>
											<in>197</in>
											<out>10668</out>
											<pproTicksIn>2001646080000</pproTicksIn>
											<pproTicksOut>108393707520000</pproTicksOut>
											<file id="file-115"/>
											<sourcetrack>
												<mediatype>audio</mediatype>
												<trackindex>1</trackindex>
											</sourcetrack>
											<link>
												<linkclipref>clipitem-467</linkclipref>
												<mediatype>video</mediatype>
												<trackindex>2</trackindex>
												<clipindex>1</clipindex>
											</link>
											<link>
												<linkclipref>clipitem-476</linkclipref>
												<mediatype>audio</mediatype>
												<trackindex>7</trackindex>
												<clipindex>1</clipindex>
												<groupindex>1</groupindex>
											</link>
											<link>
												<linkclipref>clipitem-477</linkclipref>
												<mediatype>audio</mediatype>
												<trackindex>8</trackindex>
												<clipindex>1</clipindex>
												<groupindex>1</groupindex>
											</link>
											<logginginfo>
												<description>SC05 stikk4 T01</description>
												<scene></scene>
												<shottake></shottake>
												<lognote></lognote>
											</logginginfo>
											<labels>
												<label2>Iris</label2>
											</labels>
										</clipitem>
										<enabled>FALSE</enabled>
										<locked>FALSE</locked>
										<outputchannelindex>1</outputchannelindex>
									</track>
									<track TL.SQTrackAudioKeyframeStyle="0" TL.SQTrackShy="0" TL.SQTrackExpandedHeight="25" TL.SQTrackExpanded="0" MZ.TrackTargeted="0" PannerCurrentValue="0.5" PannerIsInverted="true" PannerStartKeyframe="-91445760000000000,0.5,0,0,0,0,0,0" PannerName="Balance" currentExplodedTrackIndex="0" totalExplodedTrackCount="1" premiereTrackType="Stereo">
										<clipitem id="clipitem-477" premiereChannelType="mono">
											<masterclipid>masterclip-122</masterclipid>
											<name>Clip0012.mov</name>
											<enabled>TRUE</enabled>
											<duration>10668</duration>
											<rate>
												<timebase>25</timebase>
												<ntsc>FALSE</ntsc>
											</rate>
											<start>0</start>
											<end>10471</end>
											<in>197</in>
											<out>10668</out>
											<pproTicksIn>2001646080000</pproTicksIn>
											<pproTicksOut>108393707520000</pproTicksOut>
											<file id="file-115"/>
											<sourcetrack>
												<mediatype>audio</mediatype>
												<trackindex>2</trackindex>
											</sourcetrack>
											<link>
												<linkclipref>clipitem-467</linkclipref>
												<mediatype>video</mediatype>
												<trackindex>2</trackindex>
												<clipindex>1</clipindex>
											</link>
											<link>
												<linkclipref>clipitem-476</linkclipref>
												<mediatype>audio</mediatype>
												<trackindex>7</trackindex>
												<clipindex>1</clipindex>
												<groupindex>1</groupindex>
											</link>
											<link>
												<linkclipref>clipitem-477</linkclipref>
												<mediatype>audio</mediatype>
												<trackindex>8</trackindex>
												<clipindex>1</clipindex>
												<groupindex>1</groupindex>
											</link>
											<logginginfo>
												<description>SC05 stikk4 T01</description>
												<scene></scene>
												<shottake></shottake>
												<lognote></lognote>
											</logginginfo>
											<labels>
												<label2>Iris</label2>
											</labels>
										</clipitem>
										<enabled>FALSE</enabled>
										<locked>FALSE</locked>
										<outputchannelindex>2</outputchannelindex>
									</track>
									<track TL.SQTrackAudioKeyframeStyle="0" TL.SQTrackShy="0" TL.SQTrackExpandedHeight="25" TL.SQTrackExpanded="0" MZ.TrackTargeted="0" PannerCurrentValue="0.5" PannerIsInverted="true" PannerStartKeyframe="-91445760000000000,0.5,0,0,0,0,0,0" PannerName="Balance" currentExplodedTrackIndex="0" totalExplodedTrackCount="1" premiereTrackType="Stereo">
										<clipitem id="clipitem-478" premiereChannelType="mono">
											<masterclipid>masterclip-123</masterclipid>
											<name>Clip0029.mov</name>
											<enabled>TRUE</enabled>
											<duration>10596</duration>
											<rate>
												<timebase>25</timebase>
												<ntsc>FALSE</ntsc>
											</rate>
											<start>0</start>
											<end>10406</end>
											<in>190</in>
											<out>10596</out>
											<pproTicksIn>1930521600000</pproTicksIn>
											<pproTicksOut>107662141440000</pproTicksOut>
											<file id="file-116"/>
											<sourcetrack>
												<mediatype>audio</mediatype>
												<trackindex>1</trackindex>
											</sourcetrack>
											<link>
												<linkclipref>clipitem-468</linkclipref>
												<mediatype>video</mediatype>
												<trackindex>3</trackindex>
												<clipindex>1</clipindex>
											</link>
											<link>
												<linkclipref>clipitem-478</linkclipref>
												<mediatype>audio</mediatype>
												<trackindex>9</trackindex>
												<clipindex>1</clipindex>
												<groupindex>1</groupindex>
											</link>
											<link>
												<linkclipref>clipitem-479</linkclipref>
												<mediatype>audio</mediatype>
												<trackindex>10</trackindex>
												<clipindex>1</clipindex>
												<groupindex>1</groupindex>
											</link>
											<logginginfo>
												<description>SC05 stikk4 T01</description>
												<scene></scene>
												<shottake></shottake>
												<lognote></lognote>
											</logginginfo>
											<labels>
												<label2>Iris</label2>
											</labels>
										</clipitem>
										<enabled>FALSE</enabled>
										<locked>FALSE</locked>
										<outputchannelindex>1</outputchannelindex>
									</track>
									<track TL.SQTrackAudioKeyframeStyle="0" TL.SQTrackShy="0" TL.SQTrackExpandedHeight="25" TL.SQTrackExpanded="0" MZ.TrackTargeted="0" PannerCurrentValue="0.5" PannerIsInverted="true" PannerStartKeyframe="-91445760000000000,0.5,0,0,0,0,0,0" PannerName="Balance" currentExplodedTrackIndex="0" totalExplodedTrackCount="1" premiereTrackType="Stereo">
										<clipitem id="clipitem-479" premiereChannelType="mono">
											<masterclipid>masterclip-123</masterclipid>
											<name>Clip0029.mov</name>
											<enabled>TRUE</enabled>
											<duration>10596</duration>
											<rate>
												<timebase>25</timebase>
												<ntsc>FALSE</ntsc>
											</rate>
											<start>0</start>
											<end>10406</end>
											<in>190</in>
											<out>10596</out>
											<pproTicksIn>1930521600000</pproTicksIn>
											<pproTicksOut>107662141440000</pproTicksOut>
											<file id="file-116"/>
											<sourcetrack>
												<mediatype>audio</mediatype>
												<trackindex>2</trackindex>
											</sourcetrack>
											<link>
												<linkclipref>clipitem-468</linkclipref>
												<mediatype>video</mediatype>
												<trackindex>3</trackindex>
												<clipindex>1</clipindex>
											</link>
											<link>
												<linkclipref>clipitem-478</linkclipref>
												<mediatype>audio</mediatype>
												<trackindex>9</trackindex>
												<clipindex>1</clipindex>
												<groupindex>1</groupindex>
											</link>
											<link>
												<linkclipref>clipitem-479</linkclipref>
												<mediatype>audio</mediatype>
												<trackindex>10</trackindex>
												<clipindex>1</clipindex>
												<groupindex>1</groupindex>
											</link>
											<logginginfo>
												<description>SC05 stikk4 T01</description>
												<scene></scene>
												<shottake></shottake>
												<lognote></lognote>
											</logginginfo>
											<labels>
												<label2>Iris</label2>
											</labels>
										</clipitem>
										<enabled>FALSE</enabled>
										<locked>FALSE</locked>
										<outputchannelindex>2</outputchannelindex>
									</track>
									<track TL.SQTrackExpandedHeight="25" TL.SQTrackExpanded="0" MZ.TrackTargeted="0" PannerCurrentValue="0.5" PannerIsInverted="true" PannerStartKeyframe="-91445760000000000,0.5,0,0,0,0,0,0" PannerName="Balance" currentExplodedTrackIndex="0" totalExplodedTrackCount="1" premiereTrackType="Stereo">
										<clipitem id="clipitem-480" premiereChannelType="mono">
											<masterclipid>masterclip-124</masterclipid>
											<name>002_0033.mov</name>
											<enabled>TRUE</enabled>
											<duration>10622</duration>
											<rate>
												<timebase>25</timebase>
												<ntsc>FALSE</ntsc>
											</rate>
											<start>0</start>
											<end>10474</end>
											<in>148</in>
											<out>10622</out>
											<pproTicksIn>1503774720000</pproTicksIn>
											<pproTicksOut>107926318080000</pproTicksOut>
											<file id="file-117"/>
											<sourcetrack>
												<mediatype>audio</mediatype>
												<trackindex>1</trackindex>
											</sourcetrack>
											<link>
												<linkclipref>clipitem-469</linkclipref>
												<mediatype>video</mediatype>
												<trackindex>4</trackindex>
												<clipindex>1</clipindex>
											</link>
											<link>
												<linkclipref>clipitem-480</linkclipref>
												<mediatype>audio</mediatype>
												<trackindex>11</trackindex>
												<clipindex>1</clipindex>
												<groupindex>1</groupindex>
											</link>
											<link>
												<linkclipref>clipitem-481</linkclipref>
												<mediatype>audio</mediatype>
												<trackindex>12</trackindex>
												<clipindex>1</clipindex>
												<groupindex>1</groupindex>
											</link>
											<logginginfo>
												<description>SC05 stikk4 T01</description>
												<scene></scene>
												<shottake></shottake>
												<lognote></lognote>
											</logginginfo>
											<labels>
												<label2>Iris</label2>
											</labels>
										</clipitem>
										<enabled>FALSE</enabled>
										<locked>FALSE</locked>
										<outputchannelindex>1</outputchannelindex>
									</track>
									<track TL.SQTrackExpandedHeight="25" TL.SQTrackExpanded="0" MZ.TrackTargeted="0" PannerCurrentValue="0.5" PannerIsInverted="true" PannerStartKeyframe="-91445760000000000,0.5,0,0,0,0,0,0" PannerName="Balance" currentExplodedTrackIndex="0" totalExplodedTrackCount="1" premiereTrackType="Stereo">
										<clipitem id="clipitem-481" premiereChannelType="mono">
											<masterclipid>masterclip-124</masterclipid>
											<name>002_0033.mov</name>
											<enabled>TRUE</enabled>
											<duration>10622</duration>
											<rate>
												<timebase>25</timebase>
												<ntsc>FALSE</ntsc>
											</rate>
											<start>0</start>
											<end>10474</end>
											<in>148</in>
											<out>10622</out>
											<pproTicksIn>1503774720000</pproTicksIn>
											<pproTicksOut>107926318080000</pproTicksOut>
											<file id="file-117"/>
											<sourcetrack>
												<mediatype>audio</mediatype>
												<trackindex>2</trackindex>
											</sourcetrack>
											<link>
												<linkclipref>clipitem-469</linkclipref>
												<mediatype>video</mediatype>
												<trackindex>4</trackindex>
												<clipindex>1</clipindex>
											</link>
											<link>
												<linkclipref>clipitem-480</linkclipref>
												<mediatype>audio</mediatype>
												<trackindex>11</trackindex>
												<clipindex>1</clipindex>
												<groupindex>1</groupindex>
											</link>
											<link>
												<linkclipref>clipitem-481</linkclipref>
												<mediatype>audio</mediatype>
												<trackindex>12</trackindex>
												<clipindex>1</clipindex>
												<groupindex>1</groupindex>
											</link>
											<logginginfo>
												<description>SC05 stikk4 T01</description>
												<scene></scene>
												<shottake></shottake>
												<lognote></lognote>
											</logginginfo>
											<labels>
												<label2>Iris</label2>
											</labels>
										</clipitem>
										<enabled>FALSE</enabled>
										<locked>FALSE</locked>
										<outputchannelindex>2</outputchannelindex>
									</track>
								</audio>
							</media>
							<timecode>
								<rate>
									<timebase>25</timebase>
									<ntsc>FALSE</ntsc>
								</rate>
								<string>14:59:28:11</string>
								<frame>1349211</frame>
								<displayformat>NDF</displayformat>
							</timecode>
								<marker>
									<comment></comment>
									<name></name>
									<in>699</in>
									<out>-1</out>
								</marker>
						</sequence>
							<filter>
								<effect>
									<name>Gain</name>
									<effectid>{61756678, 4761696e, 4b657947}</effectid>
									<effecttype>filter</effecttype>
									<mediatype>audio</mediatype>
									<parameter authoringApp="PremierePro">
										<parameterid>Gain(dB)</parameterid>
										<name>Gain(dB)</name>
										<valuemin>-96</valuemin>
										<valuemax>96</valuemax>
										<value>20</value>
									</parameter>
								</effect>
							</filter>
						<labels>
							<label2>Forest</label2>
						</labels>
					</clipitem>
					<clipitem id="clipitem-482" premiereChannelType="stereo">
						<masterclipid>masterclip-98</masterclipid>
						<name>264779__anthonychan0__civilian-stun-gun-1-10s-zap.wav</name>
						<enabled>TRUE</enabled>
						<duration>10</duration>
						<rate>
							<timebase>25</timebase>
							<ntsc>FALSE</ntsc>
						</rate>
						<start>181</start>
						<end>188</end>
						<in>3</in>
						<out>10</out>
						<pproTicksIn>30481920000</pproTicksIn>
						<pproTicksOut>101606400000</pproTicksOut>
						<file id="file-92"/>
						<sourcetrack>
							<mediatype>audio</mediatype>
							<trackindex>1</trackindex>
						</sourcetrack>
							<filter>
								<effect>
									<name>Gain</name>
									<effectid>{61756678, 4761696e, 4b657947}</effectid>
									<effecttype>filter</effecttype>
									<mediatype>audio</mediatype>
									<parameter authoringApp="PremierePro">
										<parameterid>Gain(dB)</parameterid>
										<name>Gain(dB)</name>
										<valuemin>-96</valuemin>
										<valuemax>96</valuemax>
										<value>-12</value>
									</parameter>
								</effect>
							</filter>
						<link>
							<linkclipref>clipitem-482</linkclipref>
							<mediatype>audio</mediatype>
							<trackindex>17</trackindex>
							<clipindex>2</clipindex>
							<groupindex>1</groupindex>
						</link>
						<link>
							<linkclipref>clipitem-494</linkclipref>
							<mediatype>audio</mediatype>
							<trackindex>18</trackindex>
							<clipindex>1</clipindex>
							<groupindex>1</groupindex>
						</link>
						<logginginfo>
							<description></description>
							<scene></scene>
							<shottake></shottake>
							<lognote></lognote>
						</logginginfo>
						<labels>
							<label2>Caribbean</label2>
						</labels>
					</clipitem>
					<clipitem id="clipitem-483" premiereChannelType="stereo">
						<masterclipid>masterclip-84</masterclipid>
						<name>194081__potentjello__woosh-noise-1.wav</name>
						<enabled>TRUE</enabled>
						<duration>7</duration>
						<rate>
							<timebase>25</timebase>
							<ntsc>FALSE</ntsc>
						</rate>
						<start>989</start>
						<end>997</end>
						<in>0</in>
						<out>8</out>
						<pproTicksIn>0</pproTicksIn>
						<pproTicksOut>73156608000</pproTicksOut>
						<file id="file-78"/>
						<sourcetrack>
							<mediatype>audio</mediatype>
							<trackindex>1</trackindex>
						</sourcetrack>
							<filter>
								<effect>
									<name>Gain</name>
									<effectid>{61756678, 4761696e, 4b657947}</effectid>
									<effecttype>filter</effecttype>
									<mediatype>audio</mediatype>
									<parameter authoringApp="PremierePro">
										<parameterid>Gain(dB)</parameterid>
										<name>Gain(dB)</name>
										<valuemin>-96</valuemin>
										<valuemax>96</valuemax>
										<value>-6</value>
									</parameter>
								</effect>
							</filter>
							<filter>
								<effect>
									<name>Time Remap</name>
									<effectid>timeremap</effectid>
									<effectcategory>motion</effectcategory>
									<effecttype>motion</effecttype>
									<mediatype>audio</mediatype>
									<parameter authoringApp="PremierePro">
										<parameterid>variablespeed</parameterid>
										<name>variablespeed</name>
										<valuemin>0</valuemin>
										<valuemax>1</valuemax>
										<value>0</value>
									</parameter>
									<parameter authoringApp="PremierePro">
										<parameterid>speed</parameterid>
										<name>speed</name>
										<valuemin>-100000</valuemin>
										<valuemax>100000</valuemax>
										<value>90</value>
									</parameter>
									<parameter authoringApp="PremierePro">
										<parameterid>reverse</parameterid>
										<name>reverse</name>
										<value>FALSE</value>
									</parameter>
									<parameter authoringApp="PremierePro">
										<parameterid>frameblending</parameterid>
										<name>frameblending</name>
										<value>FALSE</value>
									</parameter>
									<parameter authoringApp="PremierePro">
										<parameterid>graphdict</parameterid>
										<name>graphdict</name>
										<valuemin>0</valuemin>
										<valuemax>6</valuemax>
										<value>0</value>
										<keyframe>
											<when>0</when>
											<value>0</value>
											<speedvirtualkf>TRUE</speedvirtualkf>
											<speedkfin>TRUE</speedkfin>
										</keyframe>
										<keyframe>
											<when>7</when>
											<value>6</value>
											<speedvirtualkf>TRUE</speedvirtualkf>
											<speedkfout>TRUE</speedkfout>
										</keyframe>
										<interpolation>
											<name>FCPCurve</name>
										</interpolation>
									</parameter>
								</effect>
							</filter>
							<marker>
								<comment></comment>
								<name></name>
								<in>6</in>
								<out>-1</out>
							</marker>
						<link>
							<linkclipref>clipitem-483</linkclipref>
							<mediatype>audio</mediatype>
							<trackindex>17</trackindex>
							<clipindex>3</clipindex>
							<groupindex>1</groupindex>
						</link>
						<link>
							<linkclipref>clipitem-495</linkclipref>
							<mediatype>audio</mediatype>
							<trackindex>18</trackindex>
							<clipindex>2</clipindex>
							<groupindex>1</groupindex>
						</link>
						<logginginfo>
							<description></description>
							<scene></scene>
							<shottake></shottake>
							<lognote></lognote>
						</logginginfo>
						<labels>
							<label2>Caribbean</label2>
						</labels>
					</clipitem>
					<clipitem id="clipitem-484" premiereChannelType="stereo">
						<masterclipid>masterclip-126</masterclipid>
						<name>NONRO143756CD0018 'Till I Collapse.wav</name>
						<enabled>TRUE</enabled>
						<duration>7444</duration>
						<rate>
							<timebase>25</timebase>
							<ntsc>FALSE</ntsc>
						</rate>
						<start>1016</start>
						<end>-1</end>
						<in>6159</in>
						<out>6460</out>
						<pproTicksIn>62579381760000</pproTicksIn>
						<pproTicksOut>65637734400000</pproTicksOut>
						<file id="file-119">
							<name>NONRO143756CD0018 'Till I Collapse.wav</name>
							<pathurl>file://localhost/Volumes/Bingen/Prosjekter/MYNT194016%20WHATS%20COOKING/Musikk/Jan/DMA/NONRO143756CD0018%20'Till%20I%20Collapse.wav</pathurl>
							<rate>
								<timebase>30</timebase>
								<ntsc>TRUE</ntsc>
							</rate>
							<duration>8924</duration>
							<timecode>
								<rate>
									<timebase>30</timebase>
									<ntsc>TRUE</ntsc>
								</rate>
								<string>00;00;00;00</string>
								<frame>0</frame>
								<displayformat>DF</displayformat>
								<reel>
									<name></name>
								</reel>
							</timecode>
							<media>
								<audio>
									<samplecharacteristics>
										<depth>16</depth>
										<samplerate>48000</samplerate>
									</samplecharacteristics>
									<channelcount>2</channelcount>
								</audio>
							</media>
						</file>
						<sourcetrack>
							<mediatype>audio</mediatype>
							<trackindex>1</trackindex>
						</sourcetrack>
							<filter>
								<effect>
									<name>Gain</name>
									<effectid>{61756678, 4761696e, 4b657947}</effectid>
									<effecttype>filter</effecttype>
									<mediatype>audio</mediatype>
									<parameter authoringApp="PremierePro">
										<parameterid>Gain(dB)</parameterid>
										<name>Gain(dB)</name>
										<valuemin>-96</valuemin>
										<valuemax>96</valuemax>
										<value>-14</value>
									</parameter>
								</effect>
							</filter>
						<link>
							<linkclipref>clipitem-484</linkclipref>
							<mediatype>audio</mediatype>
							<trackindex>17</trackindex>
							<clipindex>4</clipindex>
							<groupindex>1</groupindex>
						</link>
						<link>
							<linkclipref>clipitem-496</linkclipref>
							<mediatype>audio</mediatype>
							<trackindex>18</trackindex>
							<clipindex>3</clipindex>
							<groupindex>1</groupindex>
						</link>
						<logginginfo>
							<description></description>
							<scene></scene>
							<shottake></shottake>
							<lognote>CD Track 18 archiveNo[143756021]</lognote>
						</logginginfo>
						<labels>
							<label2>Lavender</label2>
						</labels>
					</clipitem>
					<transitionitem>
						<start>1177</start>
						<end>1317</end>
						<alignment>end-black</alignment>
						<cutPointTicks>1422489600000</cutPointTicks>
						<rate>
							<timebase>25</timebase>
							<ntsc>FALSE</ntsc>
						</rate>
						<effect>
							<name>Cross Fade (+3dB)</name>
							<effectid>KGAudioTransCrossFade3dB</effectid>
							<effecttype>transition</effecttype>
							<mediatype>audio</mediatype>
							<wipecode>0</wipecode>
							<wipeaccuracy>100</wipeaccuracy>
							<startratio>0</startratio>
							<endratio>1</endratio>
							<reverse>FALSE</reverse>
						</effect>
					</transitionitem>
					<clipitem id="clipitem-485" premiereChannelType="stereo">
						<masterclipid>masterclip-127</masterclipid>
						<name>161415__cosmicembers__cape-swoosh.wav</name>
						<enabled>TRUE</enabled>
						<duration>69</duration>
						<rate>
							<timebase>25</timebase>
							<ntsc>FALSE</ntsc>
						</rate>
						<start>8947</start>
						<end>8973</end>
						<in>14</in>
						<out>40</out>
						<pproTicksIn>142248960000</pproTicksIn>
						<pproTicksOut>406425600000</pproTicksOut>
						<file id="file-120">
							<name>161415__cosmicembers__cape-swoosh.wav</name>
							<pathurl>file://localhost/Volumes/Bingen/Prosjekter/MYNT194016%20WHATS%20COOKING/Lydeffekter/Jan%20Lydeffekter/161415__cosmicembers__cape-swoosh.wav</pathurl>
							<rate>
								<timebase>30</timebase>
								<ntsc>TRUE</ntsc>
							</rate>
							<duration>83</duration>
							<timecode>
								<rate>
									<timebase>30</timebase>
									<ntsc>TRUE</ntsc>
								</rate>
								<string>00;00;00;00</string>
								<frame>0</frame>
								<displayformat>DF</displayformat>
								<reel>
									<name></name>
								</reel>
							</timecode>
							<media>
								<audio>
									<samplecharacteristics>
										<depth>16</depth>
										<samplerate>48000</samplerate>
									</samplecharacteristics>
									<channelcount>2</channelcount>
								</audio>
							</media>
						</file>
						<sourcetrack>
							<mediatype>audio</mediatype>
							<trackindex>1</trackindex>
						</sourcetrack>
							<filter>
								<effect>
									<name>Gain</name>
									<effectid>{61756678, 4761696e, 4b657947}</effectid>
									<effecttype>filter</effecttype>
									<mediatype>audio</mediatype>
									<parameter authoringApp="PremierePro">
										<parameterid>Gain(dB)</parameterid>
										<name>Gain(dB)</name>
										<valuemin>-96</valuemin>
										<valuemax>96</valuemax>
										<value>10</value>
									</parameter>
								</effect>
							</filter>
						<link>
							<linkclipref>clipitem-485</linkclipref>
							<mediatype>audio</mediatype>
							<trackindex>17</trackindex>
							<clipindex>6</clipindex>
							<groupindex>1</groupindex>
						</link>
						<link>
							<linkclipref>clipitem-497</linkclipref>
							<mediatype>audio</mediatype>
							<trackindex>18</trackindex>
							<clipindex>5</clipindex>
							<groupindex>1</groupindex>
						</link>
						<logginginfo>
							<description></description>
							<scene></scene>
							<shottake></shottake>
							<lognote></lognote>
						</logginginfo>
						<labels>
							<label2>Caribbean</label2>
						</labels>
					</clipitem>
					<transitionitem>
						<start>13068</start>
						<end>13083</end>
						<alignment>start-black</alignment>
						<cutPointTicks>0</cutPointTicks>
						<rate>
							<timebase>25</timebase>
							<ntsc>FALSE</ntsc>
						</rate>
						<effect>
							<name>Cross Fade (+3dB)</name>
							<effectid>KGAudioTransCrossFade3dB</effectid>
							<effecttype>transition</effecttype>
							<mediatype>audio</mediatype>
							<wipecode>0</wipecode>
							<wipeaccuracy>100</wipeaccuracy>
							<startratio>0</startratio>
							<endratio>1</endratio>
							<reverse>FALSE</reverse>
						</effect>
					</transitionitem>
					<clipitem id="clipitem-486" premiereChannelType="stereo">
						<masterclipid>masterclip-128</masterclipid>
						<name>192120__heavenlyhits__trailer-hit-10.wav</name>
						<enabled>TRUE</enabled>
						<duration>387</duration>
						<rate>
							<timebase>25</timebase>
							<ntsc>FALSE</ntsc>
						</rate>
						<start>-1</start>
						<end>13168</end>
						<in>110</in>
						<out>210</out>
						<pproTicksIn>1117670400000</pproTicksIn>
						<pproTicksOut>2133734400000</pproTicksOut>
						<file id="file-121">
							<name>192120__heavenlyhits__trailer-hit-10.wav</name>
							<pathurl>file://localhost/Volumes/Bingen/Prosjekter/MYNT194016%20WHATS%20COOKING/Lydeffekter/Jan%20Lydeffekter/Woosh/192120__heavenlyhits__trailer-hit-10.wav</pathurl>
							<rate>
								<timebase>30</timebase>
								<ntsc>TRUE</ntsc>
							</rate>
							<duration>464</duration>
							<timecode>
								<rate>
									<timebase>30</timebase>
									<ntsc>TRUE</ntsc>
								</rate>
								<string>01;00;00;00</string>
								<frame>107892</frame>
								<displayformat>DF</displayformat>
								<reel>
									<name></name>
								</reel>
							</timecode>
							<media>
								<audio>
									<samplecharacteristics>
										<depth>16</depth>
										<samplerate>48000</samplerate>
									</samplecharacteristics>
									<channelcount>2</channelcount>
								</audio>
							</media>
						</file>
						<sourcetrack>
							<mediatype>audio</mediatype>
							<trackindex>1</trackindex>
						</sourcetrack>
							<filter>
								<effect>
									<name>Gain</name>
									<effectid>{61756678, 4761696e, 4b657947}</effectid>
									<effecttype>filter</effecttype>
									<mediatype>audio</mediatype>
									<parameter authoringApp="PremierePro">
										<parameterid>Gain(dB)</parameterid>
										<name>Gain(dB)</name>
										<valuemin>-96</valuemin>
										<valuemax>96</valuemax>
										<value>-6</value>
									</parameter>
								</effect>
							</filter>
						<link>
							<linkclipref>clipitem-486</linkclipref>
							<mediatype>audio</mediatype>
							<trackindex>17</trackindex>
							<clipindex>8</clipindex>
							<groupindex>1</groupindex>
						</link>
						<link>
							<linkclipref>clipitem-498</linkclipref>
							<mediatype>audio</mediatype>
							<trackindex>18</trackindex>
							<clipindex>7</clipindex>
							<groupindex>1</groupindex>
						</link>
						<logginginfo>
							<description></description>
							<scene></scene>
							<shottake></shottake>
							<lognote></lognote>
						</logginginfo>
						<labels>
							<label2>Caribbean</label2>
						</labels>
					</clipitem>
					<transitionitem>
						<start>14616</start>
						<end>14629</end>
						<alignment>start-black</alignment>
						<cutPointTicks>0</cutPointTicks>
						<rate>
							<timebase>25</timebase>
							<ntsc>FALSE</ntsc>
						</rate>
						<effect>
							<name>Cross Fade (+3dB)</name>
							<effectid>KGAudioTransCrossFade3dB</effectid>
							<effecttype>transition</effecttype>
							<mediatype>audio</mediatype>
							<wipecode>0</wipecode>
							<wipeaccuracy>100</wipeaccuracy>
							<startratio>0</startratio>
							<endratio>1</endratio>
							<reverse>FALSE</reverse>
						</effect>
					</transitionitem>
					<clipitem id="clipitem-487" premiereChannelType="mono">
						<masterclipid>masterclip-75</masterclipid>
						<name>backstage-T03-Multicam</name>
						<enabled>TRUE</enabled>
						<duration>100318</duration>
						<rate>
							<timebase>25</timebase>
							<ntsc>FALSE</ntsc>
						</rate>
						<start>-1</start>
						<end>14813</end>
						<in>8820</in>
						<out>9017</out>
						<pproTicksIn>89616844800000</pproTicksIn>
						<pproTicksOut>91618490880000</pproTicksOut>
						<sequence id="sequence-7"/>
							<filter>
								<effect>
									<name>Gain</name>
									<effectid>{61756678, 4761696e, 4b657947}</effectid>
									<effecttype>filter</effecttype>
									<mediatype>audio</mediatype>
									<parameter authoringApp="PremierePro">
										<parameterid>Gain(dB)</parameterid>
										<name>Gain(dB)</name>
										<valuemin>-96</valuemin>
										<valuemax>96</valuemax>
										<value>6</value>
									</parameter>
								</effect>
							</filter>
							<filter>
								<effect>
									<name>Audio Levels</name>
									<effectid>audiolevels</effectid>
									<effectcategory>audiolevels</effectcategory>
									<effecttype>audiolevels</effecttype>
									<mediatype>audio</mediatype>
									<parameter authoringApp="PremierePro">
										<parameterid>level</parameterid>
										<name>Level</name>
										<valuemin>0</valuemin>
										<valuemax>3.98109</valuemax>
										<value>0.987252</value>
									</parameter>
								</effect>
							</filter>
						<link>
							<linkclipref>clipitem-218</linkclipref>
							<mediatype>audio</mediatype>
							<trackindex>9</trackindex>
							<clipindex>11</clipindex>
							<groupindex>1</groupindex>
						</link>
						<link>
							<linkclipref>clipitem-297</linkclipref>
							<mediatype>audio</mediatype>
							<trackindex>11</trackindex>
							<clipindex>25</clipindex>
							<groupindex>1</groupindex>
						</link>
						<link>
							<linkclipref>clipitem-357</linkclipref>
							<mediatype>audio</mediatype>
							<trackindex>13</trackindex>
							<clipindex>27</clipindex>
							<groupindex>1</groupindex>
						</link>
						<link>
							<linkclipref>clipitem-438</linkclipref>
							<mediatype>audio</mediatype>
							<trackindex>15</trackindex>
							<clipindex>14</clipindex>
							<groupindex>1</groupindex>
						</link>
						<link>
							<linkclipref>clipitem-487</linkclipref>
							<mediatype>audio</mediatype>
							<trackindex>17</trackindex>
							<clipindex>10</clipindex>
							<groupindex>1</groupindex>
						</link>
						<labels>
							<label2>Forest</label2>
						</labels>
					</clipitem>
					<clipitem id="clipitem-488" premiereChannelType="stereo">
						<masterclipid>masterclip-129</masterclipid>
						<name>325546__archeos__low-synth-note-atmosphere-1.wav</name>
						<enabled>TRUE</enabled>
						<duration>3244</duration>
						<rate>
							<timebase>25</timebase>
							<ntsc>FALSE</ntsc>
						</rate>
						<start>16309</start>
						<end>-1</end>
						<in>2586</in>
						<out>2755</out>
						<pproTicksIn>26275415040000</pproTicksIn>
						<pproTicksOut>27992563200000</pproTicksOut>
						<file id="file-122">
							<name>325546__archeos__low-synth-note-atmosphere-1.wav</name>
							<pathurl>file://localhost/Volumes/Bingen/Prosjekter/MYNT194016%20WHATS%20COOKING/Musikk/Pontus/Lydeffekter/325546__archeos__low-synth-note-atmosphere-1.wav</pathurl>
							<rate>
								<timebase>30</timebase>
								<ntsc>TRUE</ntsc>
							</rate>
							<duration>3889</duration>
							<timecode>
								<rate>
									<timebase>30</timebase>
									<ntsc>TRUE</ntsc>
								</rate>
								<string>00;00;00;00</string>
								<frame>0</frame>
								<displayformat>DF</displayformat>
								<reel>
									<name></name>
								</reel>
							</timecode>
							<media>
								<audio>
									<samplecharacteristics>
										<depth>16</depth>
										<samplerate>44100</samplerate>
									</samplecharacteristics>
									<channelcount>2</channelcount>
								</audio>
							</media>
						</file>
						<sourcetrack>
							<mediatype>audio</mediatype>
							<trackindex>1</trackindex>
						</sourcetrack>
							<filter>
								<effect>
									<name>Audio Levels</name>
									<effectid>audiolevels</effectid>
									<effectcategory>audiolevels</effectcategory>
									<effecttype>audiolevels</effecttype>
									<mediatype>audio</mediatype>
									<parameter authoringApp="PremierePro">
										<parameterid>level</parameterid>
										<name>Level</name>
										<valuemin>0</valuemin>
										<valuemax>3.98109</valuemax>
										<value>0.706268</value>
									</parameter>
								</effect>
							</filter>
						<link>
							<linkclipref>clipitem-488</linkclipref>
							<mediatype>audio</mediatype>
							<trackindex>17</trackindex>
							<clipindex>11</clipindex>
							<groupindex>1</groupindex>
						</link>
						<link>
							<linkclipref>clipitem-499</linkclipref>
							<mediatype>audio</mediatype>
							<trackindex>18</trackindex>
							<clipindex>8</clipindex>
							<groupindex>1</groupindex>
						</link>
						<logginginfo>
							<description></description>
							<scene></scene>
							<shottake></shottake>
							<lognote></lognote>
						</logginginfo>
						<labels>
							<label2>Caribbean</label2>
						</labels>
					</clipitem>
					<transitionitem>
						<start>16428</start>
						<end>16478</end>
						<alignment>end-black</alignment>
						<cutPointTicks>508032000000</cutPointTicks>
						<rate>
							<timebase>25</timebase>
							<ntsc>FALSE</ntsc>
						</rate>
						<effect>
							<name>Cross Fade (+3dB)</name>
							<effectid>KGAudioTransCrossFade3dB</effectid>
							<effecttype>transition</effecttype>
							<mediatype>audio</mediatype>
							<wipecode>0</wipecode>
							<wipeaccuracy>100</wipeaccuracy>
							<startratio>0</startratio>
							<endratio>1</endratio>
							<reverse>FALSE</reverse>
						</effect>
					</transitionitem>
					<clipitem id="clipitem-489" premiereChannelType="mono">
						<masterclipid>masterclip-79</masterclipid>
						<name>backstage-T01-Multicam</name>
						<enabled>TRUE</enabled>
						<duration>59983</duration>
						<rate>
							<timebase>25</timebase>
							<ntsc>FALSE</ntsc>
						</rate>
						<start>17354</start>
						<end>17424</end>
						<in>20272</in>
						<out>20342</out>
						<pproTicksIn>205976494080000</pproTicksIn>
						<pproTicksOut>206687738880000</pproTicksOut>
						<sequence id="sequence-8"/>
							<filter>
								<effect>
									<name>Audio Levels</name>
									<effectid>audiolevels</effectid>
									<effectcategory>audiolevels</effectcategory>
									<effecttype>audiolevels</effecttype>
									<mediatype>audio</mediatype>
									<parameter authoringApp="PremierePro">
										<parameterid>level</parameterid>
										<name>Level</name>
										<valuemin>0</valuemin>
										<valuemax>3.98109</valuemax>
										<value>0.125594</value>
									</parameter>
								</effect>
							</filter>
						<labels>
							<label2>Forest</label2>
						</labels>
					</clipitem>
					<clipitem id="clipitem-490" premiereChannelType="mono">
						<masterclipid>masterclip-79</masterclipid>
						<name>backstage-T01-Multicam</name>
						<enabled>TRUE</enabled>
						<duration>59983</duration>
						<rate>
							<timebase>25</timebase>
							<ntsc>FALSE</ntsc>
						</rate>
						<start>17424</start>
						<end>17473</end>
						<in>20367</in>
						<out>20416</out>
						<pproTicksIn>206941754880000</pproTicksIn>
						<pproTicksOut>207439626240000</pproTicksOut>
						<sequence id="sequence-8"/>
							<filter>
								<effect>
									<name>Audio Levels</name>
									<effectid>audiolevels</effectid>
									<effectcategory>audiolevels</effectcategory>
									<effecttype>audiolevels</effecttype>
									<mediatype>audio</mediatype>
									<parameter authoringApp="PremierePro">
										<parameterid>level</parameterid>
										<name>Level</name>
										<valuemin>0</valuemin>
										<valuemax>3.98109</valuemax>
										<value>0.125594</value>
									</parameter>
								</effect>
							</filter>
						<labels>
							<label2>Forest</label2>
						</labels>
					</clipitem>
					<clipitem id="clipitem-491" premiereChannelType="stereo">
						<masterclipid>masterclip-130</masterclipid>
						<name>118513__thefsoundman__punch-02.wav</name>
						<enabled>TRUE</enabled>
						<duration>15</duration>
						<rate>
							<timebase>25</timebase>
							<ntsc>FALSE</ntsc>
						</rate>
						<start>17864</start>
						<end>17879</end>
						<in>0</in>
						<out>15</out>
						<pproTicksIn>0</pproTicksIn>
						<pproTicksOut>152409600000</pproTicksOut>
						<file id="file-123">
							<name>118513__thefsoundman__punch-02.wav</name>
							<pathurl>file://localhost/Volumes/Bingen/Prosjekter/MYNT194016%20WHATS%20COOKING/Musikk/Pontus/Lydeffekter/118513__thefsoundman__punch-02.wav</pathurl>
							<rate>
								<timebase>30</timebase>
								<ntsc>TRUE</ntsc>
							</rate>
							<duration>19</duration>
							<timecode>
								<rate>
									<timebase>30</timebase>
									<ntsc>TRUE</ntsc>
								</rate>
								<string>00;00;00;00</string>
								<frame>0</frame>
								<displayformat>DF</displayformat>
								<reel>
									<name></name>
								</reel>
							</timecode>
							<media>
								<audio>
									<samplecharacteristics>
										<depth>16</depth>
										<samplerate>44100</samplerate>
									</samplecharacteristics>
									<channelcount>2</channelcount>
								</audio>
							</media>
						</file>
						<sourcetrack>
							<mediatype>audio</mediatype>
							<trackindex>1</trackindex>
						</sourcetrack>
							<filter>
								<effect>
									<name>Audio Levels</name>
									<effectid>audiolevels</effectid>
									<effectcategory>audiolevels</effectcategory>
									<effecttype>audiolevels</effecttype>
									<mediatype>audio</mediatype>
									<parameter authoringApp="PremierePro">
										<parameterid>level</parameterid>
										<name>Level</name>
										<valuemin>0</valuemin>
										<valuemax>3.98109</valuemax>
										<value>0.177406</value>
									</parameter>
								</effect>
							</filter>
						<link>
							<linkclipref>clipitem-491</linkclipref>
							<mediatype>audio</mediatype>
							<trackindex>17</trackindex>
							<clipindex>15</clipindex>
							<groupindex>1</groupindex>
						</link>
						<link>
							<linkclipref>clipitem-500</linkclipref>
							<mediatype>audio</mediatype>
							<trackindex>18</trackindex>
							<clipindex>10</clipindex>
							<groupindex>1</groupindex>
						</link>
						<logginginfo>
							<description></description>
							<scene></scene>
							<shottake></shottake>
							<lognote></lognote>
						</logginginfo>
						<labels>
							<label2>Caribbean</label2>
						</labels>
					</clipitem>
					<clipitem id="clipitem-492" premiereChannelType="stereo">
						<masterclipid>masterclip-131</masterclipid>
						<name>34172__glaneur-de-sons__woosh-02.wav</name>
						<enabled>TRUE</enabled>
						<duration>141</duration>
						<rate>
							<timebase>25</timebase>
							<ntsc>FALSE</ntsc>
						</rate>
						<start>22547</start>
						<end>22606</end>
						<in>0</in>
						<out>59</out>
						<pproTicksIn>0</pproTicksIn>
						<pproTicksOut>599477760000</pproTicksOut>
						<file id="file-124">
							<name>34172__glaneur-de-sons__woosh-02.wav</name>
							<pathurl>file://localhost/Volumes/Bingen/Prosjekter/MYNT194016%20WHATS%20COOKING/Lydeffekter/Jan%20Lydeffekter/Woosh/34172__glaneur-de-sons__woosh-02.wav</pathurl>
							<rate>
								<timebase>30</timebase>
								<ntsc>TRUE</ntsc>
							</rate>
							<duration>170</duration>
							<timecode>
								<rate>
									<timebase>30</timebase>
									<ntsc>TRUE</ntsc>
								</rate>
								<string>00;00;00;00</string>
								<frame>0</frame>
								<displayformat>DF</displayformat>
								<reel>
									<name></name>
								</reel>
							</timecode>
							<media>
								<audio>
									<samplecharacteristics>
										<depth>16</depth>
										<samplerate>48000</samplerate>
									</samplecharacteristics>
									<channelcount>2</channelcount>
								</audio>
							</media>
						</file>
						<sourcetrack>
							<mediatype>audio</mediatype>
							<trackindex>1</trackindex>
						</sourcetrack>
						<link>
							<linkclipref>clipitem-492</linkclipref>
							<mediatype>audio</mediatype>
							<trackindex>17</trackindex>
							<clipindex>16</clipindex>
							<groupindex>1</groupindex>
						</link>
						<link>
							<linkclipref>clipitem-501</linkclipref>
							<mediatype>audio</mediatype>
							<trackindex>18</trackindex>
							<clipindex>11</clipindex>
							<groupindex>1</groupindex>
						</link>
						<logginginfo>
							<description></description>
							<scene></scene>
							<shottake></shottake>
							<lognote></lognote>
						</logginginfo>
						<labels>
							<label2>Caribbean</label2>
						</labels>
					</clipitem>
					<clipitem id="clipitem-493" premiereChannelType="stereo">
						<masterclipid>masterclip-132</masterclipid>
						<name>339818__inspectorj__hand-bells-g-single.wav</name>
						<enabled>TRUE</enabled>
						<duration>109</duration>
						<rate>
							<timebase>25</timebase>
							<ntsc>FALSE</ntsc>
						</rate>
						<start>29059</start>
						<end>29091</end>
						<in>9</in>
						<out>41</out>
						<pproTicksIn>91445760000</pproTicksIn>
						<pproTicksOut>416586240000</pproTicksOut>
						<file id="file-125">
							<name>339818__inspectorj__hand-bells-g-single.wav</name>
							<pathurl>file://localhost/Volumes/Bingen/Prosjekter/MYNT194016%20WHATS%20COOKING/Lydeffekter/Jan%20Lydeffekter/339818__inspectorj__hand-bells-g-single.wav</pathurl>
							<rate>
								<timebase>30</timebase>
								<ntsc>TRUE</ntsc>
							</rate>
							<duration>130</duration>
							<timecode>
								<rate>
									<timebase>30</timebase>
									<ntsc>TRUE</ntsc>
								</rate>
								<string>00;00;00;00</string>
								<frame>0</frame>
								<displayformat>DF</displayformat>
								<reel>
									<name></name>
								</reel>
							</timecode>
							<media>
								<audio>
									<samplecharacteristics>
										<depth>16</depth>
										<samplerate>48000</samplerate>
									</samplecharacteristics>
									<channelcount>2</channelcount>
								</audio>
							</media>
						</file>
						<sourcetrack>
							<mediatype>audio</mediatype>
							<trackindex>1</trackindex>
						</sourcetrack>
							<filter>
								<effect>
									<name>Gain</name>
									<effectid>{61756678, 4761696e, 4b657947}</effectid>
									<effecttype>filter</effecttype>
									<mediatype>audio</mediatype>
									<parameter authoringApp="PremierePro">
										<parameterid>Gain(dB)</parameterid>
										<name>Gain(dB)</name>
										<valuemin>-96</valuemin>
										<valuemax>96</valuemax>
										<value>-21</value>
									</parameter>
								</effect>
							</filter>
						<link>
							<linkclipref>clipitem-493</linkclipref>
							<mediatype>audio</mediatype>
							<trackindex>17</trackindex>
							<clipindex>17</clipindex>
							<groupindex>1</groupindex>
						</link>
						<link>
							<linkclipref>clipitem-502</linkclipref>
							<mediatype>audio</mediatype>
							<trackindex>18</trackindex>
							<clipindex>12</clipindex>
							<groupindex>1</groupindex>
						</link>
						<logginginfo>
							<description></description>
							<scene></scene>
							<shottake></shottake>
							<lognote></lognote>
						</logginginfo>
						<labels>
							<label2>Violet</label2>
						</labels>
					</clipitem>
					<enabled>TRUE</enabled>
					<locked>FALSE</locked>
					<outputchannelindex>1</outputchannelindex>
				</track>
				<track TL.SQTrackAudioKeyframeStyle="0" TL.SQTrackShy="0" TL.SQTrackExpandedHeight="55" TL.SQTrackExpanded="1" MZ.TrackTargeted="1" PannerCurrentValue="0.5" PannerIsInverted="true" PannerStartKeyframe="-91445760000000000,0.5,0,0,0,0,0,0" PannerName="Balance" currentExplodedTrackIndex="1" totalExplodedTrackCount="2" premiereTrackType="Stereo">
					<clipitem id="clipitem-494" premiereChannelType="stereo">
						<masterclipid>masterclip-98</masterclipid>
						<name>264779__anthonychan0__civilian-stun-gun-1-10s-zap.wav</name>
						<enabled>TRUE</enabled>
						<duration>10</duration>
						<rate>
							<timebase>25</timebase>
							<ntsc>FALSE</ntsc>
						</rate>
						<start>181</start>
						<end>188</end>
						<in>3</in>
						<out>10</out>
						<pproTicksIn>30481920000</pproTicksIn>
						<pproTicksOut>101606400000</pproTicksOut>
						<file id="file-92"/>
						<sourcetrack>
							<mediatype>audio</mediatype>
							<trackindex>2</trackindex>
						</sourcetrack>
							<filter>
								<effect>
									<name>Gain</name>
									<effectid>{61756678, 4761696e, 4b657947}</effectid>
									<effecttype>filter</effecttype>
									<mediatype>audio</mediatype>
									<parameter authoringApp="PremierePro">
										<parameterid>Gain(dB)</parameterid>
										<name>Gain(dB)</name>
										<valuemin>-96</valuemin>
										<valuemax>96</valuemax>
										<value>-12</value>
									</parameter>
								</effect>
							</filter>
						<link>
							<linkclipref>clipitem-482</linkclipref>
							<mediatype>audio</mediatype>
							<trackindex>17</trackindex>
							<clipindex>2</clipindex>
							<groupindex>1</groupindex>
						</link>
						<link>
							<linkclipref>clipitem-494</linkclipref>
							<mediatype>audio</mediatype>
							<trackindex>18</trackindex>
							<clipindex>1</clipindex>
							<groupindex>1</groupindex>
						</link>
						<logginginfo>
							<description></description>
							<scene></scene>
							<shottake></shottake>
							<lognote></lognote>
						</logginginfo>
						<labels>
							<label2>Caribbean</label2>
						</labels>
					</clipitem>
					<clipitem id="clipitem-495" premiereChannelType="stereo">
						<masterclipid>masterclip-84</masterclipid>
						<name>194081__potentjello__woosh-noise-1.wav</name>
						<enabled>TRUE</enabled>
						<duration>7</duration>
						<rate>
							<timebase>25</timebase>
							<ntsc>FALSE</ntsc>
						</rate>
						<start>989</start>
						<end>997</end>
						<in>0</in>
						<out>8</out>
						<pproTicksIn>0</pproTicksIn>
						<pproTicksOut>73156608000</pproTicksOut>
						<file id="file-78"/>
						<sourcetrack>
							<mediatype>audio</mediatype>
							<trackindex>2</trackindex>
						</sourcetrack>
							<filter>
								<effect>
									<name>Gain</name>
									<effectid>{61756678, 4761696e, 4b657947}</effectid>
									<effecttype>filter</effecttype>
									<mediatype>audio</mediatype>
									<parameter authoringApp="PremierePro">
										<parameterid>Gain(dB)</parameterid>
										<name>Gain(dB)</name>
										<valuemin>-96</valuemin>
										<valuemax>96</valuemax>
										<value>-6</value>
									</parameter>
								</effect>
							</filter>
							<filter>
								<effect>
									<name>Time Remap</name>
									<effectid>timeremap</effectid>
									<effectcategory>motion</effectcategory>
									<effecttype>motion</effecttype>
									<mediatype>audio</mediatype>
									<parameter authoringApp="PremierePro">
										<parameterid>variablespeed</parameterid>
										<name>variablespeed</name>
										<valuemin>0</valuemin>
										<valuemax>1</valuemax>
										<value>0</value>
									</parameter>
									<parameter authoringApp="PremierePro">
										<parameterid>speed</parameterid>
										<name>speed</name>
										<valuemin>-100000</valuemin>
										<valuemax>100000</valuemax>
										<value>90</value>
									</parameter>
									<parameter authoringApp="PremierePro">
										<parameterid>reverse</parameterid>
										<name>reverse</name>
										<value>FALSE</value>
									</parameter>
									<parameter authoringApp="PremierePro">
										<parameterid>frameblending</parameterid>
										<name>frameblending</name>
										<value>FALSE</value>
									</parameter>
									<parameter authoringApp="PremierePro">
										<parameterid>graphdict</parameterid>
										<name>graphdict</name>
										<valuemin>0</valuemin>
										<valuemax>6</valuemax>
										<value>0</value>
										<keyframe>
											<when>0</when>
											<value>0</value>
											<speedvirtualkf>TRUE</speedvirtualkf>
											<speedkfin>TRUE</speedkfin>
										</keyframe>
										<keyframe>
											<when>7</when>
											<value>6</value>
											<speedvirtualkf>TRUE</speedvirtualkf>
											<speedkfout>TRUE</speedkfout>
										</keyframe>
										<interpolation>
											<name>FCPCurve</name>
										</interpolation>
									</parameter>
								</effect>
							</filter>
							<marker>
								<comment></comment>
								<name></name>
								<in>6</in>
								<out>-1</out>
							</marker>
						<link>
							<linkclipref>clipitem-483</linkclipref>
							<mediatype>audio</mediatype>
							<trackindex>17</trackindex>
							<clipindex>3</clipindex>
							<groupindex>1</groupindex>
						</link>
						<link>
							<linkclipref>clipitem-495</linkclipref>
							<mediatype>audio</mediatype>
							<trackindex>18</trackindex>
							<clipindex>2</clipindex>
							<groupindex>1</groupindex>
						</link>
						<logginginfo>
							<description></description>
							<scene></scene>
							<shottake></shottake>
							<lognote></lognote>
						</logginginfo>
						<labels>
							<label2>Caribbean</label2>
						</labels>
					</clipitem>
					<clipitem id="clipitem-496" premiereChannelType="stereo">
						<masterclipid>masterclip-126</masterclipid>
						<name>NONRO143756CD0018 'Till I Collapse.wav</name>
						<enabled>TRUE</enabled>
						<duration>7444</duration>
						<rate>
							<timebase>25</timebase>
							<ntsc>FALSE</ntsc>
						</rate>
						<start>1016</start>
						<end>-1</end>
						<in>6159</in>
						<out>6460</out>
						<pproTicksIn>62579381760000</pproTicksIn>
						<pproTicksOut>65637734400000</pproTicksOut>
						<file id="file-119"/>
						<sourcetrack>
							<mediatype>audio</mediatype>
							<trackindex>2</trackindex>
						</sourcetrack>
							<filter>
								<effect>
									<name>Gain</name>
									<effectid>{61756678, 4761696e, 4b657947}</effectid>
									<effecttype>filter</effecttype>
									<mediatype>audio</mediatype>
									<parameter authoringApp="PremierePro">
										<parameterid>Gain(dB)</parameterid>
										<name>Gain(dB)</name>
										<valuemin>-96</valuemin>
										<valuemax>96</valuemax>
										<value>-14</value>
									</parameter>
								</effect>
							</filter>
						<link>
							<linkclipref>clipitem-484</linkclipref>
							<mediatype>audio</mediatype>
							<trackindex>17</trackindex>
							<clipindex>4</clipindex>
							<groupindex>1</groupindex>
						</link>
						<link>
							<linkclipref>clipitem-496</linkclipref>
							<mediatype>audio</mediatype>
							<trackindex>18</trackindex>
							<clipindex>3</clipindex>
							<groupindex>1</groupindex>
						</link>
						<logginginfo>
							<description></description>
							<scene></scene>
							<shottake></shottake>
							<lognote>CD Track 18 archiveNo[143756021]</lognote>
						</logginginfo>
						<labels>
							<label2>Lavender</label2>
						</labels>
					</clipitem>
					<transitionitem>
						<start>1177</start>
						<end>1317</end>
						<alignment>end-black</alignment>
						<cutPointTicks>1422489600000</cutPointTicks>
						<rate>
							<timebase>25</timebase>
							<ntsc>FALSE</ntsc>
						</rate>
						<effect>
							<name>Cross Fade (+3dB)</name>
							<effectid>KGAudioTransCrossFade3dB</effectid>
							<effecttype>transition</effecttype>
							<mediatype>audio</mediatype>
							<wipecode>0</wipecode>
							<wipeaccuracy>100</wipeaccuracy>
							<startratio>0</startratio>
							<endratio>1</endratio>
							<reverse>FALSE</reverse>
						</effect>
					</transitionitem>
					<clipitem id="clipitem-497" premiereChannelType="stereo">
						<masterclipid>masterclip-127</masterclipid>
						<name>161415__cosmicembers__cape-swoosh.wav</name>
						<enabled>TRUE</enabled>
						<duration>69</duration>
						<rate>
							<timebase>25</timebase>
							<ntsc>FALSE</ntsc>
						</rate>
						<start>8947</start>
						<end>8973</end>
						<in>14</in>
						<out>40</out>
						<pproTicksIn>142248960000</pproTicksIn>
						<pproTicksOut>406425600000</pproTicksOut>
						<file id="file-120"/>
						<sourcetrack>
							<mediatype>audio</mediatype>
							<trackindex>2</trackindex>
						</sourcetrack>
							<filter>
								<effect>
									<name>Gain</name>
									<effectid>{61756678, 4761696e, 4b657947}</effectid>
									<effecttype>filter</effecttype>
									<mediatype>audio</mediatype>
									<parameter authoringApp="PremierePro">
										<parameterid>Gain(dB)</parameterid>
										<name>Gain(dB)</name>
										<valuemin>-96</valuemin>
										<valuemax>96</valuemax>
										<value>10</value>
									</parameter>
								</effect>
							</filter>
						<link>
							<linkclipref>clipitem-485</linkclipref>
							<mediatype>audio</mediatype>
							<trackindex>17</trackindex>
							<clipindex>6</clipindex>
							<groupindex>1</groupindex>
						</link>
						<link>
							<linkclipref>clipitem-497</linkclipref>
							<mediatype>audio</mediatype>
							<trackindex>18</trackindex>
							<clipindex>5</clipindex>
							<groupindex>1</groupindex>
						</link>
						<logginginfo>
							<description></description>
							<scene></scene>
							<shottake></shottake>
							<lognote></lognote>
						</logginginfo>
						<labels>
							<label2>Caribbean</label2>
						</labels>
					</clipitem>
					<transitionitem>
						<start>13068</start>
						<end>13083</end>
						<alignment>start-black</alignment>
						<cutPointTicks>0</cutPointTicks>
						<rate>
							<timebase>25</timebase>
							<ntsc>FALSE</ntsc>
						</rate>
						<effect>
							<name>Cross Fade (+3dB)</name>
							<effectid>KGAudioTransCrossFade3dB</effectid>
							<effecttype>transition</effecttype>
							<mediatype>audio</mediatype>
							<wipecode>0</wipecode>
							<wipeaccuracy>100</wipeaccuracy>
							<startratio>0</startratio>
							<endratio>1</endratio>
							<reverse>FALSE</reverse>
						</effect>
					</transitionitem>
					<clipitem id="clipitem-498" premiereChannelType="stereo">
						<masterclipid>masterclip-128</masterclipid>
						<name>192120__heavenlyhits__trailer-hit-10.wav</name>
						<enabled>TRUE</enabled>
						<duration>387</duration>
						<rate>
							<timebase>25</timebase>
							<ntsc>FALSE</ntsc>
						</rate>
						<start>-1</start>
						<end>13168</end>
						<in>110</in>
						<out>210</out>
						<pproTicksIn>1117670400000</pproTicksIn>
						<pproTicksOut>2133734400000</pproTicksOut>
						<file id="file-121"/>
						<sourcetrack>
							<mediatype>audio</mediatype>
							<trackindex>2</trackindex>
						</sourcetrack>
							<filter>
								<effect>
									<name>Gain</name>
									<effectid>{61756678, 4761696e, 4b657947}</effectid>
									<effecttype>filter</effecttype>
									<mediatype>audio</mediatype>
									<parameter authoringApp="PremierePro">
										<parameterid>Gain(dB)</parameterid>
										<name>Gain(dB)</name>
										<valuemin>-96</valuemin>
										<valuemax>96</valuemax>
										<value>-6</value>
									</parameter>
								</effect>
							</filter>
						<link>
							<linkclipref>clipitem-486</linkclipref>
							<mediatype>audio</mediatype>
							<trackindex>17</trackindex>
							<clipindex>8</clipindex>
							<groupindex>1</groupindex>
						</link>
						<link>
							<linkclipref>clipitem-498</linkclipref>
							<mediatype>audio</mediatype>
							<trackindex>18</trackindex>
							<clipindex>7</clipindex>
							<groupindex>1</groupindex>
						</link>
						<logginginfo>
							<description></description>
							<scene></scene>
							<shottake></shottake>
							<lognote></lognote>
						</logginginfo>
						<labels>
							<label2>Caribbean</label2>
						</labels>
					</clipitem>
					<clipitem id="clipitem-499" premiereChannelType="stereo">
						<masterclipid>masterclip-129</masterclipid>
						<name>325546__archeos__low-synth-note-atmosphere-1.wav</name>
						<enabled>TRUE</enabled>
						<duration>3244</duration>
						<rate>
							<timebase>25</timebase>
							<ntsc>FALSE</ntsc>
						</rate>
						<start>16309</start>
						<end>-1</end>
						<in>2586</in>
						<out>2755</out>
						<pproTicksIn>26275415040000</pproTicksIn>
						<pproTicksOut>27992563200000</pproTicksOut>
						<file id="file-122"/>
						<sourcetrack>
							<mediatype>audio</mediatype>
							<trackindex>2</trackindex>
						</sourcetrack>
							<filter>
								<effect>
									<name>Audio Levels</name>
									<effectid>audiolevels</effectid>
									<effectcategory>audiolevels</effectcategory>
									<effecttype>audiolevels</effecttype>
									<mediatype>audio</mediatype>
									<parameter authoringApp="PremierePro">
										<parameterid>level</parameterid>
										<name>Level</name>
										<valuemin>0</valuemin>
										<valuemax>3.98109</valuemax>
										<value>0.706268</value>
									</parameter>
								</effect>
							</filter>
						<link>
							<linkclipref>clipitem-488</linkclipref>
							<mediatype>audio</mediatype>
							<trackindex>17</trackindex>
							<clipindex>11</clipindex>
							<groupindex>1</groupindex>
						</link>
						<link>
							<linkclipref>clipitem-499</linkclipref>
							<mediatype>audio</mediatype>
							<trackindex>18</trackindex>
							<clipindex>8</clipindex>
							<groupindex>1</groupindex>
						</link>
						<logginginfo>
							<description></description>
							<scene></scene>
							<shottake></shottake>
							<lognote></lognote>
						</logginginfo>
						<labels>
							<label2>Caribbean</label2>
						</labels>
					</clipitem>
					<transitionitem>
						<start>16428</start>
						<end>16478</end>
						<alignment>end-black</alignment>
						<cutPointTicks>508032000000</cutPointTicks>
						<rate>
							<timebase>25</timebase>
							<ntsc>FALSE</ntsc>
						</rate>
						<effect>
							<name>Cross Fade (+3dB)</name>
							<effectid>KGAudioTransCrossFade3dB</effectid>
							<effecttype>transition</effecttype>
							<mediatype>audio</mediatype>
							<wipecode>0</wipecode>
							<wipeaccuracy>100</wipeaccuracy>
							<startratio>0</startratio>
							<endratio>1</endratio>
							<reverse>FALSE</reverse>
						</effect>
					</transitionitem>
					<clipitem id="clipitem-500" premiereChannelType="stereo">
						<masterclipid>masterclip-130</masterclipid>
						<name>118513__thefsoundman__punch-02.wav</name>
						<enabled>TRUE</enabled>
						<duration>15</duration>
						<rate>
							<timebase>25</timebase>
							<ntsc>FALSE</ntsc>
						</rate>
						<start>17864</start>
						<end>17879</end>
						<in>0</in>
						<out>15</out>
						<pproTicksIn>0</pproTicksIn>
						<pproTicksOut>152409600000</pproTicksOut>
						<file id="file-123"/>
						<sourcetrack>
							<mediatype>audio</mediatype>
							<trackindex>2</trackindex>
						</sourcetrack>
							<filter>
								<effect>
									<name>Audio Levels</name>
									<effectid>audiolevels</effectid>
									<effectcategory>audiolevels</effectcategory>
									<effecttype>audiolevels</effecttype>
									<mediatype>audio</mediatype>
									<parameter authoringApp="PremierePro">
										<parameterid>level</parameterid>
										<name>Level</name>
										<valuemin>0</valuemin>
										<valuemax>3.98109</valuemax>
										<value>0.177406</value>
									</parameter>
								</effect>
							</filter>
						<link>
							<linkclipref>clipitem-491</linkclipref>
							<mediatype>audio</mediatype>
							<trackindex>17</trackindex>
							<clipindex>15</clipindex>
							<groupindex>1</groupindex>
						</link>
						<link>
							<linkclipref>clipitem-500</linkclipref>
							<mediatype>audio</mediatype>
							<trackindex>18</trackindex>
							<clipindex>10</clipindex>
							<groupindex>1</groupindex>
						</link>
						<logginginfo>
							<description></description>
							<scene></scene>
							<shottake></shottake>
							<lognote></lognote>
						</logginginfo>
						<labels>
							<label2>Caribbean</label2>
						</labels>
					</clipitem>
					<clipitem id="clipitem-501" premiereChannelType="stereo">
						<masterclipid>masterclip-131</masterclipid>
						<name>34172__glaneur-de-sons__woosh-02.wav</name>
						<enabled>TRUE</enabled>
						<duration>141</duration>
						<rate>
							<timebase>25</timebase>
							<ntsc>FALSE</ntsc>
						</rate>
						<start>22547</start>
						<end>22606</end>
						<in>0</in>
						<out>59</out>
						<pproTicksIn>0</pproTicksIn>
						<pproTicksOut>599477760000</pproTicksOut>
						<file id="file-124"/>
						<sourcetrack>
							<mediatype>audio</mediatype>
							<trackindex>2</trackindex>
						</sourcetrack>
						<link>
							<linkclipref>clipitem-492</linkclipref>
							<mediatype>audio</mediatype>
							<trackindex>17</trackindex>
							<clipindex>16</clipindex>
							<groupindex>1</groupindex>
						</link>
						<link>
							<linkclipref>clipitem-501</linkclipref>
							<mediatype>audio</mediatype>
							<trackindex>18</trackindex>
							<clipindex>11</clipindex>
							<groupindex>1</groupindex>
						</link>
						<logginginfo>
							<description></description>
							<scene></scene>
							<shottake></shottake>
							<lognote></lognote>
						</logginginfo>
						<labels>
							<label2>Caribbean</label2>
						</labels>
					</clipitem>
					<clipitem id="clipitem-502" premiereChannelType="stereo">
						<masterclipid>masterclip-132</masterclipid>
						<name>339818__inspectorj__hand-bells-g-single.wav</name>
						<enabled>TRUE</enabled>
						<duration>109</duration>
						<rate>
							<timebase>25</timebase>
							<ntsc>FALSE</ntsc>
						</rate>
						<start>29059</start>
						<end>29091</end>
						<in>9</in>
						<out>41</out>
						<pproTicksIn>91445760000</pproTicksIn>
						<pproTicksOut>416586240000</pproTicksOut>
						<file id="file-125"/>
						<sourcetrack>
							<mediatype>audio</mediatype>
							<trackindex>2</trackindex>
						</sourcetrack>
							<filter>
								<effect>
									<name>Gain</name>
									<effectid>{61756678, 4761696e, 4b657947}</effectid>
									<effecttype>filter</effecttype>
									<mediatype>audio</mediatype>
									<parameter authoringApp="PremierePro">
										<parameterid>Gain(dB)</parameterid>
										<name>Gain(dB)</name>
										<valuemin>-96</valuemin>
										<valuemax>96</valuemax>
										<value>-21</value>
									</parameter>
								</effect>
							</filter>
						<link>
							<linkclipref>clipitem-493</linkclipref>
							<mediatype>audio</mediatype>
							<trackindex>17</trackindex>
							<clipindex>17</clipindex>
							<groupindex>1</groupindex>
						</link>
						<link>
							<linkclipref>clipitem-502</linkclipref>
							<mediatype>audio</mediatype>
							<trackindex>18</trackindex>
							<clipindex>12</clipindex>
							<groupindex>1</groupindex>
						</link>
						<logginginfo>
							<description></description>
							<scene></scene>
							<shottake></shottake>
							<lognote></lognote>
						</logginginfo>
						<labels>
							<label2>Violet</label2>
						</labels>
					</clipitem>
					<enabled>TRUE</enabled>
					<locked>FALSE</locked>
					<outputchannelindex>2</outputchannelindex>
				</track>
				<track TL.SQTrackAudioKeyframeStyle="0" TL.SQTrackShy="0" TL.SQTrackExpandedHeight="75" TL.SQTrackExpanded="1" MZ.TrackTargeted="1" PannerCurrentValue="0.5" PannerIsInverted="true" PannerStartKeyframe="-91445760000000000,0.5,0,0,0,0,0,0" PannerName="Balance" currentExplodedTrackIndex="0" totalExplodedTrackCount="2" premiereTrackType="Stereo">
					<clipitem id="clipitem-503" premiereChannelType="stereo">
						<masterclipid>masterclip-133</masterclipid>
						<name>BER_1250_89_Stress_mit_Recht_Muller_898428.wav</name>
						<enabled>TRUE</enabled>
						<duration>3185</duration>
						<rate>
							<timebase>25</timebase>
							<ntsc>FALSE</ntsc>
						</rate>
						<start>0</start>
						<end>177</end>
						<in>15</in>
						<out>192</out>
						<pproTicksIn>152409600000</pproTicksIn>
						<pproTicksOut>1950842880000</pproTicksOut>
						<file id="file-126">
							<name>BER_1250_89_Stress_mit_Recht_Muller_898428.wav</name>
							<pathurl>file://localhost/Volumes/Bingen/Prosjekter/MYNT194016%20WHATS%20COOKING/Musikk/Jan/Universal/BER_1250_89_Stress_mit_Recht_Muller_898428.wav</pathurl>
							<rate>
								<timebase>30</timebase>
								<ntsc>TRUE</ntsc>
							</rate>
							<duration>3818</duration>
							<timecode>
								<rate>
									<timebase>30</timebase>
									<ntsc>TRUE</ntsc>
								</rate>
								<string>01;06;24;00</string>
								<frame>119400</frame>
								<displayformat>DF</displayformat>
								<reel>
									<name></name>
								</reel>
							</timecode>
							<media>
								<audio>
									<samplecharacteristics>
										<depth>16</depth>
										<samplerate>44100</samplerate>
									</samplecharacteristics>
									<channelcount>2</channelcount>
								</audio>
							</media>
						</file>
						<sourcetrack>
							<mediatype>audio</mediatype>
							<trackindex>1</trackindex>
						</sourcetrack>
							<filter>
								<effect>
									<name>Gain</name>
									<effectid>{61756678, 4761696e, 4b657947}</effectid>
									<effecttype>filter</effecttype>
									<mediatype>audio</mediatype>
									<parameter authoringApp="PremierePro">
										<parameterid>Gain(dB)</parameterid>
										<name>Gain(dB)</name>
										<valuemin>-96</valuemin>
										<valuemax>96</valuemax>
										<value>-25</value>
									</parameter>
								</effect>
							</filter>
						<link>
							<linkclipref>clipitem-503</linkclipref>
							<mediatype>audio</mediatype>
							<trackindex>19</trackindex>
							<clipindex>1</clipindex>
							<groupindex>1</groupindex>
						</link>
						<link>
							<linkclipref>clipitem-514</linkclipref>
							<mediatype>audio</mediatype>
							<trackindex>20</trackindex>
							<clipindex>1</clipindex>
							<groupindex>1</groupindex>
						</link>
						<logginginfo>
							<description></description>
							<scene></scene>
							<shottake></shottake>
							<lognote></lognote>
						</logginginfo>
						<labels>
							<label2>Caribbean</label2>
						</labels>
					</clipitem>
					<clipitem id="clipitem-504" premiereChannelType="stereo">
						<masterclipid>masterclip-134</masterclipid>
						<name>NONRE604388HD0008 m.A.A.d city.wav</name>
						<enabled>TRUE</enabled>
						<duration>8753</duration>
						<rate>
							<timebase>25</timebase>
							<ntsc>FALSE</ntsc>
						</rate>
						<start>13086</start>
						<end>13255</end>
						<in>321</in>
						<out>490</out>
						<pproTicksIn>3261565440000</pproTicksIn>
						<pproTicksOut>4978713600000</pproTicksOut>
						<file id="file-127">
							<name>NONRE604388HD0008 m.A.A.d city.wav</name>
							<pathurl>file://localhost/Volumes/Bingen/Prosjekter/MYNT194016%20WHATS%20COOKING/Musikk/Jan/DMA/NONRE604388HD0008%20m.A.A.d%20city.wav</pathurl>
							<rate>
								<timebase>30</timebase>
								<ntsc>TRUE</ntsc>
							</rate>
							<duration>10493</duration>
							<timecode>
								<rate>
									<timebase>30</timebase>
									<ntsc>TRUE</ntsc>
								</rate>
								<string>00;00;00;00</string>
								<frame>0</frame>
								<displayformat>DF</displayformat>
								<reel>
									<name></name>
								</reel>
							</timecode>
							<media>
								<audio>
									<samplecharacteristics>
										<depth>16</depth>
										<samplerate>48000</samplerate>
									</samplecharacteristics>
									<channelcount>2</channelcount>
								</audio>
							</media>
						</file>
						<sourcetrack>
							<mediatype>audio</mediatype>
							<trackindex>1</trackindex>
						</sourcetrack>
							<filter>
								<effect>
									<name>Audio Levels</name>
									<effectid>audiolevels</effectid>
									<effectcategory>audiolevels</effectcategory>
									<effecttype>audiolevels</effecttype>
									<mediatype>audio</mediatype>
									<parameter authoringApp="PremierePro">
										<parameterid>level</parameterid>
										<name>Level</name>
										<valuemin>0</valuemin>
										<valuemax>3.98109</valuemax>
										<value>0.353972</value>
									</parameter>
								</effect>
							</filter>
						<link>
							<linkclipref>clipitem-504</linkclipref>
							<mediatype>audio</mediatype>
							<trackindex>19</trackindex>
							<clipindex>2</clipindex>
							<groupindex>1</groupindex>
						</link>
						<link>
							<linkclipref>clipitem-515</linkclipref>
							<mediatype>audio</mediatype>
							<trackindex>20</trackindex>
							<clipindex>2</clipindex>
							<groupindex>1</groupindex>
						</link>
						<logginginfo>
							<description></description>
							<scene></scene>
							<shottake></shottake>
							<lognote></lognote>
						</logginginfo>
						<labels>
							<label2>Rose</label2>
						</labels>
					</clipitem>
					<clipitem id="clipitem-505" premiereChannelType="stereo">
						<masterclipid>masterclip-134</masterclipid>
						<name>NONRE604388HD0008 m.A.A.d city.wav</name>
						<enabled>TRUE</enabled>
						<duration>8753</duration>
						<rate>
							<timebase>25</timebase>
							<ntsc>FALSE</ntsc>
						</rate>
						<start>13255</start>
						<end>13263</end>
						<in>3859</in>
						<out>3867</out>
						<pproTicksIn>39209909760000</pproTicksIn>
						<pproTicksOut>39291194880000</pproTicksOut>
						<file id="file-127"/>
						<sourcetrack>
							<mediatype>audio</mediatype>
							<trackindex>1</trackindex>
						</sourcetrack>
							<filter>
								<effect>
									<name>Audio Levels</name>
									<effectid>audiolevels</effectid>
									<effectcategory>audiolevels</effectcategory>
									<effecttype>audiolevels</effecttype>
									<mediatype>audio</mediatype>
									<parameter authoringApp="PremierePro">
										<parameterid>level</parameterid>
										<name>Level</name>
										<valuemin>0</valuemin>
										<valuemax>3.98109</valuemax>
										<value>0.177406</value>
									</parameter>
								</effect>
							</filter>
						<link>
							<linkclipref>clipitem-505</linkclipref>
							<mediatype>audio</mediatype>
							<trackindex>19</trackindex>
							<clipindex>3</clipindex>
							<groupindex>1</groupindex>
						</link>
						<link>
							<linkclipref>clipitem-516</linkclipref>
							<mediatype>audio</mediatype>
							<trackindex>20</trackindex>
							<clipindex>3</clipindex>
							<groupindex>1</groupindex>
						</link>
						<logginginfo>
							<description></description>
							<scene></scene>
							<shottake></shottake>
							<lognote></lognote>
						</logginginfo>
						<labels>
							<label2>Rose</label2>
						</labels>
					</clipitem>
					<clipitem id="clipitem-506" premiereChannelType="stereo">
						<masterclipid>masterclip-84</masterclipid>
						<name>194081__potentjello__woosh-noise-1.wav</name>
						<enabled>TRUE</enabled>
						<duration>7</duration>
						<rate>
							<timebase>25</timebase>
							<ntsc>FALSE</ntsc>
						</rate>
						<start>13427</start>
						<end>13434</end>
						<in>0</in>
						<out>7</out>
						<pproTicksIn>0</pproTicksIn>
						<pproTicksOut>71124480000</pproTicksOut>
						<file id="file-78"/>
						<sourcetrack>
							<mediatype>audio</mediatype>
							<trackindex>1</trackindex>
						</sourcetrack>
							<filter>
								<effect>
									<name>Audio Levels</name>
									<effectid>audiolevels</effectid>
									<effectcategory>audiolevels</effectcategory>
									<effecttype>audiolevels</effecttype>
									<mediatype>audio</mediatype>
									<parameter authoringApp="PremierePro">
										<parameterid>level</parameterid>
										<name>Level</name>
										<valuemin>0</valuemin>
										<valuemax>3.98109</valuemax>
										<value>0.250593</value>
									</parameter>
								</effect>
							</filter>
							<marker>
								<comment></comment>
								<name></name>
								<in>6</in>
								<out>-1</out>
							</marker>
						<link>
							<linkclipref>clipitem-506</linkclipref>
							<mediatype>audio</mediatype>
							<trackindex>19</trackindex>
							<clipindex>4</clipindex>
							<groupindex>1</groupindex>
						</link>
						<link>
							<linkclipref>clipitem-517</linkclipref>
							<mediatype>audio</mediatype>
							<trackindex>20</trackindex>
							<clipindex>4</clipindex>
							<groupindex>1</groupindex>
						</link>
						<logginginfo>
							<description></description>
							<scene></scene>
							<shottake></shottake>
							<lognote></lognote>
						</logginginfo>
						<labels>
							<label2>Caribbean</label2>
						</labels>
					</clipitem>
					<clipitem id="clipitem-507" premiereChannelType="stereo">
						<masterclipid>masterclip-135</masterclipid>
						<name>BTV_162_22_Sneaky_Around_Bradley_Dymond_Sanchez_925591.wav</name>
						<enabled>TRUE</enabled>
						<duration>3000</duration>
						<rate>
							<timebase>25</timebase>
							<ntsc>FALSE</ntsc>
						</rate>
						<start>13519</start>
						<end>-1</end>
						<in>0</in>
						<out>429</out>
						<pproTicksIn>0</pproTicksIn>
						<pproTicksOut>4358914560000</pproTicksOut>
						<file id="file-128">
							<name>BTV_162_22_Sneaky_Around_Bradley_Dymond_Sanchez_925591.wav</name>
							<pathurl>file://localhost/Volumes/Bingen/Prosjekter/MYNT194016%20WHATS%20COOKING/Musikk/Stig/Universal/BTV_162_22_Sneaky_Around_Bradley_Dymond_Sanchez_925591.wav</pathurl>
							<rate>
								<timebase>30</timebase>
								<ntsc>TRUE</ntsc>
							</rate>
							<duration>3596</duration>
							<timecode>
								<rate>
									<timebase>30</timebase>
									<ntsc>TRUE</ntsc>
								</rate>
								<string>01;00;00;00</string>
								<frame>107892</frame>
								<displayformat>DF</displayformat>
								<reel>
									<name></name>
								</reel>
							</timecode>
							<media>
								<audio>
									<samplecharacteristics>
										<depth>16</depth>
										<samplerate>44100</samplerate>
									</samplecharacteristics>
									<channelcount>2</channelcount>
								</audio>
							</media>
						</file>
						<sourcetrack>
							<mediatype>audio</mediatype>
							<trackindex>1</trackindex>
						</sourcetrack>
							<filter>
								<effect>
									<name>Audio Levels</name>
									<effectid>audiolevels</effectid>
									<effectcategory>audiolevels</effectcategory>
									<effecttype>audiolevels</effecttype>
									<mediatype>audio</mediatype>
									<parameter authoringApp="PremierePro">
										<parameterid>level</parameterid>
										<name>Level</name>
										<valuemin>0</valuemin>
										<valuemax>3.98109</valuemax>
										<value>0.286701</value>
									</parameter>
								</effect>
							</filter>
						<link>
							<linkclipref>clipitem-507</linkclipref>
							<mediatype>audio</mediatype>
							<trackindex>19</trackindex>
							<clipindex>5</clipindex>
							<groupindex>1</groupindex>
						</link>
						<link>
							<linkclipref>clipitem-518</linkclipref>
							<mediatype>audio</mediatype>
							<trackindex>20</trackindex>
							<clipindex>5</clipindex>
							<groupindex>1</groupindex>
						</link>
						<logginginfo>
							<description></description>
							<scene></scene>
							<shottake></shottake>
							<lognote></lognote>
						</logginginfo>
						<labels>
							<label2>Caribbean</label2>
						</labels>
					</clipitem>
					<transitionitem>
						<start>13856</start>
						<end>13948</end>
						<alignment>end-black</alignment>
						<cutPointTicks>934778880000</cutPointTicks>
						<rate>
							<timebase>25</timebase>
							<ntsc>FALSE</ntsc>
						</rate>
						<effect>
							<name>Cross Fade (+3dB)</name>
							<effectid>KGAudioTransCrossFade3dB</effectid>
							<effecttype>transition</effecttype>
							<mediatype>audio</mediatype>
							<wipecode>0</wipecode>
							<wipeaccuracy>100</wipeaccuracy>
							<startratio>0</startratio>
							<endratio>1</endratio>
							<reverse>FALSE</reverse>
						</effect>
					</transitionitem>
					<transitionitem>
						<start>16242</start>
						<end>16255</end>
						<alignment>start-black</alignment>
						<cutPointTicks>0</cutPointTicks>
						<rate>
							<timebase>25</timebase>
							<ntsc>FALSE</ntsc>
						</rate>
						<effect>
							<name>Cross Fade (+3dB)</name>
							<effectid>KGAudioTransCrossFade3dB</effectid>
							<effecttype>transition</effecttype>
							<mediatype>audio</mediatype>
							<wipecode>0</wipecode>
							<wipeaccuracy>100</wipeaccuracy>
							<startratio>0</startratio>
							<endratio>1</endratio>
							<reverse>FALSE</reverse>
						</effect>
					</transitionitem>
					<clipitem id="clipitem-508" premiereChannelType="mono">
						<masterclipid>masterclip-95</masterclipid>
						<name>00064.mov Copy 01</name>
						<enabled>TRUE</enabled>
						<duration>272233</duration>
						<rate>
							<timebase>25</timebase>
							<ntsc>FALSE</ntsc>
						</rate>
						<start>-1</start>
						<end>16298</end>
						<in>213091</in>
						<out>213147</out>
						<pproTicksIn>2165140938240000</pproTicksIn>
						<pproTicksOut>2165709934080000</pproTicksOut>
						<file id="file-89"/>
						<sourcetrack>
							<mediatype>audio</mediatype>
							<trackindex>1</trackindex>
						</sourcetrack>
							<filter>
								<effect>
									<name>Audio Levels</name>
									<effectid>audiolevels</effectid>
									<effectcategory>audiolevels</effectcategory>
									<effecttype>audiolevels</effecttype>
									<mediatype>audio</mediatype>
									<parameter authoringApp="PremierePro">
										<parameterid>level</parameterid>
										<name>Level</name>
										<valuemin>0</valuemin>
										<valuemax>3.98109</valuemax>
										<value>0.706268</value>
									</parameter>
								</effect>
							</filter>
						<logginginfo>
							<description></description>
							<scene></scene>
							<shottake></shottake>
							<lognote></lognote>
						</logginginfo>
						<labels>
							<label2>Iris</label2>
						</labels>
					</clipitem>
					<clipitem id="clipitem-509" premiereChannelType="mono">
						<masterclipid>masterclip-95</masterclipid>
						<name>00064.mov Copy 01</name>
						<enabled>TRUE</enabled>
						<duration>272233</duration>
						<rate>
							<timebase>25</timebase>
							<ntsc>FALSE</ntsc>
						</rate>
						<start>16298</start>
						<end>16309</end>
						<in>213086</in>
						<out>213097</out>
						<pproTicksIn>2165090135040000</pproTicksIn>
						<pproTicksOut>2165201902080000</pproTicksOut>
						<file id="file-89"/>
						<sourcetrack>
							<mediatype>audio</mediatype>
							<trackindex>1</trackindex>
						</sourcetrack>
							<filter>
								<effect>
									<name>Audio Levels</name>
									<effectid>audiolevels</effectid>
									<effectcategory>audiolevels</effectcategory>
									<effecttype>audiolevels</effecttype>
									<mediatype>audio</mediatype>
									<parameter authoringApp="PremierePro">
										<parameterid>level</parameterid>
										<name>Level</name>
										<valuemin>0</valuemin>
										<valuemax>3.98109</valuemax>
										<value>0.499999</value>
									</parameter>
								</effect>
							</filter>
						<link>
							<linkclipref>clipitem-509</linkclipref>
							<mediatype>audio</mediatype>
							<trackindex>19</trackindex>
							<clipindex>9</clipindex>
							<groupindex>1</groupindex>
						</link>
						<link>
							<linkclipref>clipitem-522</linkclipref>
							<mediatype>audio</mediatype>
							<trackindex>21</trackindex>
							<clipindex>6</clipindex>
							<groupindex>1</groupindex>
						</link>
						<logginginfo>
							<description></description>
							<scene></scene>
							<shottake></shottake>
							<lognote></lognote>
						</logginginfo>
						<labels>
							<label2>Iris</label2>
						</labels>
					</clipitem>
					<transitionitem>
						<start>17341</start>
						<end>17354</end>
						<alignment>start-black</alignment>
						<cutPointTicks>0</cutPointTicks>
						<rate>
							<timebase>25</timebase>
							<ntsc>FALSE</ntsc>
						</rate>
						<effect>
							<name>Cross Fade (+3dB)</name>
							<effectid>KGAudioTransCrossFade3dB</effectid>
							<effecttype>transition</effecttype>
							<mediatype>audio</mediatype>
							<wipecode>0</wipecode>
							<wipeaccuracy>100</wipeaccuracy>
							<startratio>0</startratio>
							<endratio>1</endratio>
							<reverse>FALSE</reverse>
						</effect>
					</transitionitem>
					<clipitem id="clipitem-510" premiereChannelType="mono">
						<masterclipid>masterclip-136</masterclipid>
						<name>00064.mov</name>
						<enabled>TRUE</enabled>
						<duration>272233</duration>
						<rate>
							<timebase>25</timebase>
							<ntsc>FALSE</ntsc>
						</rate>
						<start>-1</start>
						<end>17407</end>
						<in>66900</in>
						<out>66966</out>
						<pproTicksIn>679746816000000</pproTicksIn>
						<pproTicksOut>680417418240000</pproTicksOut>
						<pixelaspectratio>square</pixelaspectratio>
						<anamorphic>FALSE</anamorphic>
						<file id="file-129">
							<name>00064.mov</name>
							<pathurl>file://localhost/Volumes/Bingen/Prosjekter/MYNT194016%20WHATS%20COOKING/Media/Episode%2005%20N-ordet/VB-opptak/20042016/KAM%20F%20(sonyNX)/ProRes/00064.mov</pathurl>
							<rate>
								<timebase>25</timebase>
								<ntsc>FALSE</ntsc>
							</rate>
							<duration>272233</duration>
							<timecode>
								<rate>
									<timebase>25</timebase>
									<ntsc>FALSE</ntsc>
								</rate>
								<string>00:00:00:00</string>
								<frame>0</frame>
								<displayformat>NDF</displayformat>
								<reel>
									<name></name>
								</reel>
							</timecode>
							<media>
								<video>
									<samplecharacteristics>
										<rate>
											<timebase>25</timebase>
											<ntsc>FALSE</ntsc>
										</rate>
										<width>1920</width>
										<height>1080</height>
										<anamorphic>FALSE</anamorphic>
										<pixelaspectratio>square</pixelaspectratio>
										<fielddominance>none</fielddominance>
									</samplecharacteristics>
								</video>
								<audio>
									<samplecharacteristics>
										<depth>16</depth>
										<samplerate>48000</samplerate>
									</samplecharacteristics>
									<channelcount>1</channelcount>
									<layout>stereo</layout>
									<audiochannel>
										<sourcechannel>1</sourcechannel>
										<channellabel>left</channellabel>
									</audiochannel>
								</audio>
								<audio>
									<samplecharacteristics>
										<depth>16</depth>
										<samplerate>48000</samplerate>
									</samplecharacteristics>
									<channelcount>1</channelcount>
									<layout>stereo</layout>
									<audiochannel>
										<sourcechannel>2</sourcechannel>
										<channellabel>right</channellabel>
									</audiochannel>
								</audio>
							</media>
						</file>
						<sourcetrack>
							<mediatype>audio</mediatype>
							<trackindex>1</trackindex>
						</sourcetrack>
							<filter>
								<effect>
									<name>Audio Levels</name>
									<effectid>audiolevels</effectid>
									<effectcategory>audiolevels</effectcategory>
									<effecttype>audiolevels</effecttype>
									<mediatype>audio</mediatype>
									<parameter authoringApp="PremierePro">
										<parameterid>level</parameterid>
										<name>Level</name>
										<valuemin>0</valuemin>
										<valuemax>3.98109</valuemax>
										<value>0.177406</value>
									</parameter>
								</effect>
							</filter>
						<logginginfo>
							<description></description>
							<scene></scene>
							<shottake></shottake>
							<lognote></lognote>
						</logginginfo>
						<labels>
							<label2>Iris</label2>
						</labels>
					</clipitem>
					<clipitem id="clipitem-511" premiereChannelType="mono">
						<masterclipid>masterclip-136</masterclipid>
						<name>00064.mov</name>
						<enabled>TRUE</enabled>
						<duration>272233</duration>
						<rate>
							<timebase>25</timebase>
							<ntsc>FALSE</ntsc>
						</rate>
						<start>17407</start>
						<end>17424</end>
						<in>67016</in>
						<out>67033</out>
						<pproTicksIn>680925450240000</pproTicksIn>
						<pproTicksOut>681098181120000</pproTicksOut>
						<file id="file-129"/>
						<sourcetrack>
							<mediatype>audio</mediatype>
							<trackindex>1</trackindex>
						</sourcetrack>
							<filter>
								<effect>
									<name>Audio Levels</name>
									<effectid>audiolevels</effectid>
									<effectcategory>audiolevels</effectcategory>
									<effecttype>audiolevels</effecttype>
									<mediatype>audio</mediatype>
									<parameter authoringApp="PremierePro">
										<parameterid>level</parameterid>
										<name>Level</name>
										<valuemin>0</valuemin>
										<valuemax>3.98109</valuemax>
										<value>0.177406</value>
									</parameter>
								</effect>
							</filter>
						<link>
							<linkclipref>clipitem-511</linkclipref>
							<mediatype>audio</mediatype>
							<trackindex>19</trackindex>
							<clipindex>12</clipindex>
							<groupindex>1</groupindex>
						</link>
						<link>
							<linkclipref>clipitem-524</linkclipref>
							<mediatype>audio</mediatype>
							<trackindex>21</trackindex>
							<clipindex>9</clipindex>
							<groupindex>1</groupindex>
						</link>
						<logginginfo>
							<description></description>
							<scene></scene>
							<shottake></shottake>
							<lognote></lognote>
						</logginginfo>
						<labels>
							<label2>Iris</label2>
						</labels>
					</clipitem>
					<clipitem id="clipitem-512" premiereChannelType="mono">
						<masterclipid>masterclip-136</masterclipid>
						<name>00064.mov</name>
						<enabled>TRUE</enabled>
						<duration>272233</duration>
						<rate>
							<timebase>25</timebase>
							<ntsc>FALSE</ntsc>
						</rate>
						<start>17424</start>
						<end>-1</end>
						<in>67033</in>
						<out>67143</out>
						<pproTicksIn>681098181120000</pproTicksIn>
						<pproTicksOut>682215851520000</pproTicksOut>
						<file id="file-129"/>
						<sourcetrack>
							<mediatype>audio</mediatype>
							<trackindex>1</trackindex>
						</sourcetrack>
							<filter>
								<effect>
									<name>Audio Levels</name>
									<effectid>audiolevels</effectid>
									<effectcategory>audiolevels</effectcategory>
									<effecttype>audiolevels</effecttype>
									<mediatype>audio</mediatype>
									<parameter authoringApp="PremierePro">
										<parameterid>level</parameterid>
										<name>Level</name>
										<valuemin>0</valuemin>
										<valuemax>3.98109</valuemax>
										<value>0.177406</value>
									</parameter>
								</effect>
							</filter>
						<link>
							<linkclipref>clipitem-512</linkclipref>
							<mediatype>audio</mediatype>
							<trackindex>19</trackindex>
							<clipindex>13</clipindex>
							<groupindex>1</groupindex>
						</link>
						<link>
							<linkclipref>clipitem-525</linkclipref>
							<mediatype>audio</mediatype>
							<trackindex>21</trackindex>
							<clipindex>10</clipindex>
							<groupindex>1</groupindex>
						</link>
						<logginginfo>
							<description></description>
							<scene></scene>
							<shottake></shottake>
							<lognote></lognote>
						</logginginfo>
						<labels>
							<label2>Iris</label2>
						</labels>
					</clipitem>
					<transitionitem>
						<start>17521</start>
						<end>17534</end>
						<alignment>end-black</alignment>
						<cutPointTicks>132088320000</cutPointTicks>
						<rate>
							<timebase>25</timebase>
							<ntsc>FALSE</ntsc>
						</rate>
						<effect>
							<name>Cross Fade (+3dB)</name>
							<effectid>KGAudioTransCrossFade3dB</effectid>
							<effecttype>transition</effecttype>
							<mediatype>audio</mediatype>
							<wipecode>0</wipecode>
							<wipeaccuracy>100</wipeaccuracy>
							<startratio>0</startratio>
							<endratio>1</endratio>
							<reverse>FALSE</reverse>
						</effect>
					</transitionitem>
					<clipitem id="clipitem-513" premiereChannelType="stereo">
						<masterclipid>masterclip-137</masterclipid>
						<name>83962__robinhood76__01366-cinema-swoosh-2.wav</name>
						<enabled>TRUE</enabled>
						<duration>136</duration>
						<rate>
							<timebase>25</timebase>
							<ntsc>FALSE</ntsc>
						</rate>
						<start>22493</start>
						<end>22630</end>
						<in>0</in>
						<out>137</out>
						<pproTicksIn>0</pproTicksIn>
						<pproTicksOut>1392007680000</pproTicksOut>
						<file id="file-130">
							<name>83962__robinhood76__01366-cinema-swoosh-2.wav</name>
							<pathurl>file://localhost/Volumes/Bingen/Prosjekter/MYNT194016%20WHATS%20COOKING/Lydeffekter/Jan%20Lydeffekter/Woosh/83962__robinhood76__01366-cinema-swoosh-2.wav</pathurl>
							<rate>
								<timebase>30</timebase>
								<ntsc>TRUE</ntsc>
							</rate>
							<duration>164</duration>
							<timecode>
								<rate>
									<timebase>30</timebase>
									<ntsc>TRUE</ntsc>
								</rate>
								<string>00;00;00;00</string>
								<frame>0</frame>
								<displayformat>DF</displayformat>
								<reel>
									<name></name>
								</reel>
							</timecode>
							<media>
								<audio>
									<samplecharacteristics>
										<depth>16</depth>
										<samplerate>48000</samplerate>
									</samplecharacteristics>
									<channelcount>2</channelcount>
								</audio>
							</media>
						</file>
						<sourcetrack>
							<mediatype>audio</mediatype>
							<trackindex>1</trackindex>
						</sourcetrack>
						<link>
							<linkclipref>clipitem-513</linkclipref>
							<mediatype>audio</mediatype>
							<trackindex>19</trackindex>
							<clipindex>15</clipindex>
							<groupindex>1</groupindex>
						</link>
						<link>
							<linkclipref>clipitem-519</linkclipref>
							<mediatype>audio</mediatype>
							<trackindex>20</trackindex>
							<clipindex>7</clipindex>
							<groupindex>1</groupindex>
						</link>
						<logginginfo>
							<description></description>
							<scene></scene>
							<shottake></shottake>
							<lognote></lognote>
						</logginginfo>
						<labels>
							<label2>Caribbean</label2>
						</labels>
					</clipitem>
					<enabled>TRUE</enabled>
					<locked>FALSE</locked>
					<outputchannelindex>1</outputchannelindex>
				</track>
				<track TL.SQTrackAudioKeyframeStyle="0" TL.SQTrackShy="0" TL.SQTrackExpandedHeight="75" TL.SQTrackExpanded="1" MZ.TrackTargeted="1" PannerCurrentValue="0.5" PannerIsInverted="true" PannerStartKeyframe="-91445760000000000,0.5,0,0,0,0,0,0" PannerName="Balance" currentExplodedTrackIndex="1" totalExplodedTrackCount="2" premiereTrackType="Stereo">
					<clipitem id="clipitem-514" premiereChannelType="stereo">
						<masterclipid>masterclip-133</masterclipid>
						<name>BER_1250_89_Stress_mit_Recht_Muller_898428.wav</name>
						<enabled>TRUE</enabled>
						<duration>3185</duration>
						<rate>
							<timebase>25</timebase>
							<ntsc>FALSE</ntsc>
						</rate>
						<start>0</start>
						<end>177</end>
						<in>15</in>
						<out>192</out>
						<pproTicksIn>152409600000</pproTicksIn>
						<pproTicksOut>1950842880000</pproTicksOut>
						<file id="file-126"/>
						<sourcetrack>
							<mediatype>audio</mediatype>
							<trackindex>2</trackindex>
						</sourcetrack>
							<filter>
								<effect>
									<name>Gain</name>
									<effectid>{61756678, 4761696e, 4b657947}</effectid>
									<effecttype>filter</effecttype>
									<mediatype>audio</mediatype>
									<parameter authoringApp="PremierePro">
										<parameterid>Gain(dB)</parameterid>
										<name>Gain(dB)</name>
										<valuemin>-96</valuemin>
										<valuemax>96</valuemax>
										<value>-25</value>
									</parameter>
								</effect>
							</filter>
						<link>
							<linkclipref>clipitem-503</linkclipref>
							<mediatype>audio</mediatype>
							<trackindex>19</trackindex>
							<clipindex>1</clipindex>
							<groupindex>1</groupindex>
						</link>
						<link>
							<linkclipref>clipitem-514</linkclipref>
							<mediatype>audio</mediatype>
							<trackindex>20</trackindex>
							<clipindex>1</clipindex>
							<groupindex>1</groupindex>
						</link>
						<logginginfo>
							<description></description>
							<scene></scene>
							<shottake></shottake>
							<lognote></lognote>
						</logginginfo>
						<labels>
							<label2>Caribbean</label2>
						</labels>
					</clipitem>
					<clipitem id="clipitem-515" premiereChannelType="stereo">
						<masterclipid>masterclip-134</masterclipid>
						<name>NONRE604388HD0008 m.A.A.d city.wav</name>
						<enabled>TRUE</enabled>
						<duration>8753</duration>
						<rate>
							<timebase>25</timebase>
							<ntsc>FALSE</ntsc>
						</rate>
						<start>13086</start>
						<end>13255</end>
						<in>321</in>
						<out>490</out>
						<pproTicksIn>3261565440000</pproTicksIn>
						<pproTicksOut>4978713600000</pproTicksOut>
						<file id="file-127"/>
						<sourcetrack>
							<mediatype>audio</mediatype>
							<trackindex>2</trackindex>
						</sourcetrack>
							<filter>
								<effect>
									<name>Audio Levels</name>
									<effectid>audiolevels</effectid>
									<effectcategory>audiolevels</effectcategory>
									<effecttype>audiolevels</effecttype>
									<mediatype>audio</mediatype>
									<parameter authoringApp="PremierePro">
										<parameterid>level</parameterid>
										<name>Level</name>
										<valuemin>0</valuemin>
										<valuemax>3.98109</valuemax>
										<value>0.353972</value>
									</parameter>
								</effect>
							</filter>
						<link>
							<linkclipref>clipitem-504</linkclipref>
							<mediatype>audio</mediatype>
							<trackindex>19</trackindex>
							<clipindex>2</clipindex>
							<groupindex>1</groupindex>
						</link>
						<link>
							<linkclipref>clipitem-515</linkclipref>
							<mediatype>audio</mediatype>
							<trackindex>20</trackindex>
							<clipindex>2</clipindex>
							<groupindex>1</groupindex>
						</link>
						<logginginfo>
							<description></description>
							<scene></scene>
							<shottake></shottake>
							<lognote></lognote>
						</logginginfo>
						<labels>
							<label2>Rose</label2>
						</labels>
					</clipitem>
					<clipitem id="clipitem-516" premiereChannelType="stereo">
						<masterclipid>masterclip-134</masterclipid>
						<name>NONRE604388HD0008 m.A.A.d city.wav</name>
						<enabled>TRUE</enabled>
						<duration>8753</duration>
						<rate>
							<timebase>25</timebase>
							<ntsc>FALSE</ntsc>
						</rate>
						<start>13255</start>
						<end>13263</end>
						<in>3859</in>
						<out>3867</out>
						<pproTicksIn>39209909760000</pproTicksIn>
						<pproTicksOut>39291194880000</pproTicksOut>
						<file id="file-127"/>
						<sourcetrack>
							<mediatype>audio</mediatype>
							<trackindex>2</trackindex>
						</sourcetrack>
							<filter>
								<effect>
									<name>Audio Levels</name>
									<effectid>audiolevels</effectid>
									<effectcategory>audiolevels</effectcategory>
									<effecttype>audiolevels</effecttype>
									<mediatype>audio</mediatype>
									<parameter authoringApp="PremierePro">
										<parameterid>level</parameterid>
										<name>Level</name>
										<valuemin>0</valuemin>
										<valuemax>3.98109</valuemax>
										<value>0.177406</value>
									</parameter>
								</effect>
							</filter>
						<link>
							<linkclipref>clipitem-505</linkclipref>
							<mediatype>audio</mediatype>
							<trackindex>19</trackindex>
							<clipindex>3</clipindex>
							<groupindex>1</groupindex>
						</link>
						<link>
							<linkclipref>clipitem-516</linkclipref>
							<mediatype>audio</mediatype>
							<trackindex>20</trackindex>
							<clipindex>3</clipindex>
							<groupindex>1</groupindex>
						</link>
						<logginginfo>
							<description></description>
							<scene></scene>
							<shottake></shottake>
							<lognote></lognote>
						</logginginfo>
						<labels>
							<label2>Rose</label2>
						</labels>
					</clipitem>
					<clipitem id="clipitem-517" premiereChannelType="stereo">
						<masterclipid>masterclip-84</masterclipid>
						<name>194081__potentjello__woosh-noise-1.wav</name>
						<enabled>TRUE</enabled>
						<duration>7</duration>
						<rate>
							<timebase>25</timebase>
							<ntsc>FALSE</ntsc>
						</rate>
						<start>13427</start>
						<end>13434</end>
						<in>0</in>
						<out>7</out>
						<pproTicksIn>0</pproTicksIn>
						<pproTicksOut>71124480000</pproTicksOut>
						<file id="file-78"/>
						<sourcetrack>
							<mediatype>audio</mediatype>
							<trackindex>2</trackindex>
						</sourcetrack>
							<filter>
								<effect>
									<name>Audio Levels</name>
									<effectid>audiolevels</effectid>
									<effectcategory>audiolevels</effectcategory>
									<effecttype>audiolevels</effecttype>
									<mediatype>audio</mediatype>
									<parameter authoringApp="PremierePro">
										<parameterid>level</parameterid>
										<name>Level</name>
										<valuemin>0</valuemin>
										<valuemax>3.98109</valuemax>
										<value>0.250593</value>
									</parameter>
								</effect>
							</filter>
							<marker>
								<comment></comment>
								<name></name>
								<in>6</in>
								<out>-1</out>
							</marker>
						<link>
							<linkclipref>clipitem-506</linkclipref>
							<mediatype>audio</mediatype>
							<trackindex>19</trackindex>
							<clipindex>4</clipindex>
							<groupindex>1</groupindex>
						</link>
						<link>
							<linkclipref>clipitem-517</linkclipref>
							<mediatype>audio</mediatype>
							<trackindex>20</trackindex>
							<clipindex>4</clipindex>
							<groupindex>1</groupindex>
						</link>
						<logginginfo>
							<description></description>
							<scene></scene>
							<shottake></shottake>
							<lognote></lognote>
						</logginginfo>
						<labels>
							<label2>Caribbean</label2>
						</labels>
					</clipitem>
					<clipitem id="clipitem-518" premiereChannelType="stereo">
						<masterclipid>masterclip-135</masterclipid>
						<name>BTV_162_22_Sneaky_Around_Bradley_Dymond_Sanchez_925591.wav</name>
						<enabled>TRUE</enabled>
						<duration>3000</duration>
						<rate>
							<timebase>25</timebase>
							<ntsc>FALSE</ntsc>
						</rate>
						<start>13519</start>
						<end>-1</end>
						<in>0</in>
						<out>429</out>
						<pproTicksIn>0</pproTicksIn>
						<pproTicksOut>4358914560000</pproTicksOut>
						<file id="file-128"/>
						<sourcetrack>
							<mediatype>audio</mediatype>
							<trackindex>2</trackindex>
						</sourcetrack>
							<filter>
								<effect>
									<name>Audio Levels</name>
									<effectid>audiolevels</effectid>
									<effectcategory>audiolevels</effectcategory>
									<effecttype>audiolevels</effecttype>
									<mediatype>audio</mediatype>
									<parameter authoringApp="PremierePro">
										<parameterid>level</parameterid>
										<name>Level</name>
										<valuemin>0</valuemin>
										<valuemax>3.98109</valuemax>
										<value>0.286701</value>
									</parameter>
								</effect>
							</filter>
						<link>
							<linkclipref>clipitem-507</linkclipref>
							<mediatype>audio</mediatype>
							<trackindex>19</trackindex>
							<clipindex>5</clipindex>
							<groupindex>1</groupindex>
						</link>
						<link>
							<linkclipref>clipitem-518</linkclipref>
							<mediatype>audio</mediatype>
							<trackindex>20</trackindex>
							<clipindex>5</clipindex>
							<groupindex>1</groupindex>
						</link>
						<logginginfo>
							<description></description>
							<scene></scene>
							<shottake></shottake>
							<lognote></lognote>
						</logginginfo>
						<labels>
							<label2>Caribbean</label2>
						</labels>
					</clipitem>
					<transitionitem>
						<start>13856</start>
						<end>13948</end>
						<alignment>end-black</alignment>
						<cutPointTicks>934778880000</cutPointTicks>
						<rate>
							<timebase>25</timebase>
							<ntsc>FALSE</ntsc>
						</rate>
						<effect>
							<name>Cross Fade (+3dB)</name>
							<effectid>KGAudioTransCrossFade3dB</effectid>
							<effecttype>transition</effecttype>
							<mediatype>audio</mediatype>
							<wipecode>0</wipecode>
							<wipeaccuracy>100</wipeaccuracy>
							<startratio>0</startratio>
							<endratio>1</endratio>
							<reverse>FALSE</reverse>
						</effect>
					</transitionitem>
					<clipitem id="clipitem-519" premiereChannelType="stereo">
						<masterclipid>masterclip-137</masterclipid>
						<name>83962__robinhood76__01366-cinema-swoosh-2.wav</name>
						<enabled>TRUE</enabled>
						<duration>136</duration>
						<rate>
							<timebase>25</timebase>
							<ntsc>FALSE</ntsc>
						</rate>
						<start>22493</start>
						<end>22630</end>
						<in>0</in>
						<out>137</out>
						<pproTicksIn>0</pproTicksIn>
						<pproTicksOut>1392007680000</pproTicksOut>
						<file id="file-130"/>
						<sourcetrack>
							<mediatype>audio</mediatype>
							<trackindex>2</trackindex>
						</sourcetrack>
						<link>
							<linkclipref>clipitem-513</linkclipref>
							<mediatype>audio</mediatype>
							<trackindex>19</trackindex>
							<clipindex>15</clipindex>
							<groupindex>1</groupindex>
						</link>
						<link>
							<linkclipref>clipitem-519</linkclipref>
							<mediatype>audio</mediatype>
							<trackindex>20</trackindex>
							<clipindex>7</clipindex>
							<groupindex>1</groupindex>
						</link>
						<logginginfo>
							<description></description>
							<scene></scene>
							<shottake></shottake>
							<lognote></lognote>
						</logginginfo>
						<labels>
							<label2>Caribbean</label2>
						</labels>
					</clipitem>
					<enabled>TRUE</enabled>
					<locked>FALSE</locked>
					<outputchannelindex>2</outputchannelindex>
				</track>
				<track TL.SQTrackAudioKeyframeStyle="0" TL.SQTrackShy="0" TL.SQTrackExpandedHeight="45" TL.SQTrackExpanded="1" MZ.TrackTargeted="1" PannerCurrentValue="0.5" PannerIsInverted="true" PannerStartKeyframe="-91445760000000000,0.5,0,0,0,0,0,0" PannerName="Balance" currentExplodedTrackIndex="0" totalExplodedTrackCount="2" premiereTrackType="Stereo">
					<transitionitem>
						<start>154</start>
						<end>179</end>
						<alignment>start-black</alignment>
						<cutPointTicks>0</cutPointTicks>
						<rate>
							<timebase>25</timebase>
							<ntsc>FALSE</ntsc>
						</rate>
						<effect>
							<name>Cross Fade (+3dB)</name>
							<effectid>KGAudioTransCrossFade3dB</effectid>
							<effecttype>transition</effecttype>
							<mediatype>audio</mediatype>
							<wipecode>0</wipecode>
							<wipeaccuracy>100</wipeaccuracy>
							<startratio>0</startratio>
							<endratio>1</endratio>
							<reverse>FALSE</reverse>
						</effect>
					</transitionitem>
					<clipitem id="clipitem-520" premiereChannelType="stereo">
						<masterclipid>masterclip-133</masterclipid>
						<name>BER_1250_89_Stress_mit_Recht_Muller_898428.wav</name>
						<enabled>TRUE</enabled>
						<duration>3185</duration>
						<rate>
							<timebase>25</timebase>
							<ntsc>FALSE</ntsc>
						</rate>
						<start>-1</start>
						<end>-1</end>
						<in>2833</in>
						<out>3049</out>
						<pproTicksIn>28785093120000</pproTicksIn>
						<pproTicksOut>30979791360000</pproTicksOut>
						<file id="file-126"/>
						<sourcetrack>
							<mediatype>audio</mediatype>
							<trackindex>1</trackindex>
						</sourcetrack>
							<filter>
								<effect>
									<name>Gain</name>
									<effectid>{61756678, 4761696e, 4b657947}</effectid>
									<effecttype>filter</effecttype>
									<mediatype>audio</mediatype>
									<parameter authoringApp="PremierePro">
										<parameterid>Gain(dB)</parameterid>
										<name>Gain(dB)</name>
										<valuemin>-96</valuemin>
										<valuemax>96</valuemax>
										<value>-25</value>
									</parameter>
								</effect>
							</filter>
						<link>
							<linkclipref>clipitem-520</linkclipref>
							<mediatype>audio</mediatype>
							<trackindex>21</trackindex>
							<clipindex>2</clipindex>
							<groupindex>1</groupindex>
						</link>
						<link>
							<linkclipref>clipitem-526</linkclipref>
							<mediatype>audio</mediatype>
							<trackindex>22</trackindex>
							<clipindex>2</clipindex>
							<groupindex>1</groupindex>
						</link>
						<logginginfo>
							<description></description>
							<scene></scene>
							<shottake></shottake>
							<lognote></lognote>
						</logginginfo>
						<labels>
							<label2>Caribbean</label2>
						</labels>
					</clipitem>
					<transitionitem>
						<start>357</start>
						<end>370</end>
						<alignment>end-black</alignment>
						<cutPointTicks>132088320000</cutPointTicks>
						<rate>
							<timebase>25</timebase>
							<ntsc>FALSE</ntsc>
						</rate>
						<effect>
							<name>Cross Fade (+3dB)</name>
							<effectid>KGAudioTransCrossFade3dB</effectid>
							<effecttype>transition</effecttype>
							<mediatype>audio</mediatype>
							<wipecode>0</wipecode>
							<wipeaccuracy>100</wipeaccuracy>
							<startratio>0</startratio>
							<endratio>1</endratio>
							<reverse>FALSE</reverse>
						</effect>
					</transitionitem>
					<transitionitem>
						<start>16242</start>
						<end>16255</end>
						<alignment>start-black</alignment>
						<cutPointTicks>0</cutPointTicks>
						<rate>
							<timebase>25</timebase>
							<ntsc>FALSE</ntsc>
						</rate>
						<effect>
							<name>Cross Fade (+3dB)</name>
							<effectid>KGAudioTransCrossFade3dB</effectid>
							<effecttype>transition</effecttype>
							<mediatype>audio</mediatype>
							<wipecode>0</wipecode>
							<wipeaccuracy>100</wipeaccuracy>
							<startratio>0</startratio>
							<endratio>1</endratio>
							<reverse>FALSE</reverse>
						</effect>
					</transitionitem>
					<clipitem id="clipitem-521" premiereChannelType="mono">
						<masterclipid>masterclip-95</masterclipid>
						<name>00064.mov Copy 01</name>
						<enabled>TRUE</enabled>
						<duration>272233</duration>
						<rate>
							<timebase>25</timebase>
							<ntsc>FALSE</ntsc>
						</rate>
						<start>-1</start>
						<end>16298</end>
						<in>213091</in>
						<out>213147</out>
						<pproTicksIn>2165140938240000</pproTicksIn>
						<pproTicksOut>2165709934080000</pproTicksOut>
						<file id="file-89"/>
						<sourcetrack>
							<mediatype>audio</mediatype>
							<trackindex>2</trackindex>
						</sourcetrack>
							<filter>
								<effect>
									<name>Audio Levels</name>
									<effectid>audiolevels</effectid>
									<effectcategory>audiolevels</effectcategory>
									<effecttype>audiolevels</effecttype>
									<mediatype>audio</mediatype>
									<parameter authoringApp="PremierePro">
										<parameterid>level</parameterid>
										<name>Level</name>
										<valuemin>0</valuemin>
										<valuemax>3.98109</valuemax>
										<value>0.706268</value>
									</parameter>
								</effect>
							</filter>
						<logginginfo>
							<description></description>
							<scene></scene>
							<shottake></shottake>
							<lognote></lognote>
						</logginginfo>
						<labels>
							<label2>Iris</label2>
						</labels>
					</clipitem>
					<clipitem id="clipitem-522" premiereChannelType="mono">
						<masterclipid>masterclip-95</masterclipid>
						<name>00064.mov Copy 01</name>
						<enabled>TRUE</enabled>
						<duration>272233</duration>
						<rate>
							<timebase>25</timebase>
							<ntsc>FALSE</ntsc>
						</rate>
						<start>16298</start>
						<end>16309</end>
						<in>213086</in>
						<out>213097</out>
						<pproTicksIn>2165090135040000</pproTicksIn>
						<pproTicksOut>2165201902080000</pproTicksOut>
						<file id="file-89"/>
						<sourcetrack>
							<mediatype>audio</mediatype>
							<trackindex>2</trackindex>
						</sourcetrack>
							<filter>
								<effect>
									<name>Audio Levels</name>
									<effectid>audiolevels</effectid>
									<effectcategory>audiolevels</effectcategory>
									<effecttype>audiolevels</effecttype>
									<mediatype>audio</mediatype>
									<parameter authoringApp="PremierePro">
										<parameterid>level</parameterid>
										<name>Level</name>
										<valuemin>0</valuemin>
										<valuemax>3.98109</valuemax>
										<value>0.499999</value>
									</parameter>
								</effect>
							</filter>
						<link>
							<linkclipref>clipitem-509</linkclipref>
							<mediatype>audio</mediatype>
							<trackindex>19</trackindex>
							<clipindex>9</clipindex>
							<groupindex>1</groupindex>
						</link>
						<link>
							<linkclipref>clipitem-522</linkclipref>
							<mediatype>audio</mediatype>
							<trackindex>21</trackindex>
							<clipindex>6</clipindex>
							<groupindex>1</groupindex>
						</link>
						<logginginfo>
							<description></description>
							<scene></scene>
							<shottake></shottake>
							<lognote></lognote>
						</logginginfo>
						<labels>
							<label2>Iris</label2>
						</labels>
					</clipitem>
					<transitionitem>
						<start>17341</start>
						<end>17354</end>
						<alignment>start-black</alignment>
						<cutPointTicks>0</cutPointTicks>
						<rate>
							<timebase>25</timebase>
							<ntsc>FALSE</ntsc>
						</rate>
						<effect>
							<name>Cross Fade (+3dB)</name>
							<effectid>KGAudioTransCrossFade3dB</effectid>
							<effecttype>transition</effecttype>
							<mediatype>audio</mediatype>
							<wipecode>0</wipecode>
							<wipeaccuracy>100</wipeaccuracy>
							<startratio>0</startratio>
							<endratio>1</endratio>
							<reverse>FALSE</reverse>
						</effect>
					</transitionitem>
					<clipitem id="clipitem-523" premiereChannelType="mono">
						<masterclipid>masterclip-136</masterclipid>
						<name>00064.mov</name>
						<enabled>TRUE</enabled>
						<duration>272233</duration>
						<rate>
							<timebase>25</timebase>
							<ntsc>FALSE</ntsc>
						</rate>
						<start>-1</start>
						<end>17407</end>
						<in>66900</in>
						<out>66966</out>
						<pproTicksIn>679746816000000</pproTicksIn>
						<pproTicksOut>680417418240000</pproTicksOut>
						<file id="file-129"/>
						<sourcetrack>
							<mediatype>audio</mediatype>
							<trackindex>2</trackindex>
						</sourcetrack>
							<filter>
								<effect>
									<name>Audio Levels</name>
									<effectid>audiolevels</effectid>
									<effectcategory>audiolevels</effectcategory>
									<effecttype>audiolevels</effecttype>
									<mediatype>audio</mediatype>
									<parameter authoringApp="PremierePro">
										<parameterid>level</parameterid>
										<name>Level</name>
										<valuemin>0</valuemin>
										<valuemax>3.98109</valuemax>
										<value>0.177406</value>
									</parameter>
								</effect>
							</filter>
						<logginginfo>
							<description></description>
							<scene></scene>
							<shottake></shottake>
							<lognote></lognote>
						</logginginfo>
						<labels>
							<label2>Iris</label2>
						</labels>
					</clipitem>
					<clipitem id="clipitem-524" premiereChannelType="mono">
						<masterclipid>masterclip-136</masterclipid>
						<name>00064.mov</name>
						<enabled>TRUE</enabled>
						<duration>272233</duration>
						<rate>
							<timebase>25</timebase>
							<ntsc>FALSE</ntsc>
						</rate>
						<start>17407</start>
						<end>17424</end>
						<in>67016</in>
						<out>67033</out>
						<pproTicksIn>680925450240000</pproTicksIn>
						<pproTicksOut>681098181120000</pproTicksOut>
						<file id="file-129"/>
						<sourcetrack>
							<mediatype>audio</mediatype>
							<trackindex>2</trackindex>
						</sourcetrack>
							<filter>
								<effect>
									<name>Audio Levels</name>
									<effectid>audiolevels</effectid>
									<effectcategory>audiolevels</effectcategory>
									<effecttype>audiolevels</effecttype>
									<mediatype>audio</mediatype>
									<parameter authoringApp="PremierePro">
										<parameterid>level</parameterid>
										<name>Level</name>
										<valuemin>0</valuemin>
										<valuemax>3.98109</valuemax>
										<value>0.177406</value>
									</parameter>
								</effect>
							</filter>
						<link>
							<linkclipref>clipitem-511</linkclipref>
							<mediatype>audio</mediatype>
							<trackindex>19</trackindex>
							<clipindex>12</clipindex>
							<groupindex>1</groupindex>
						</link>
						<link>
							<linkclipref>clipitem-524</linkclipref>
							<mediatype>audio</mediatype>
							<trackindex>21</trackindex>
							<clipindex>9</clipindex>
							<groupindex>1</groupindex>
						</link>
						<logginginfo>
							<description></description>
							<scene></scene>
							<shottake></shottake>
							<lognote></lognote>
						</logginginfo>
						<labels>
							<label2>Iris</label2>
						</labels>
					</clipitem>
					<clipitem id="clipitem-525" premiereChannelType="mono">
						<masterclipid>masterclip-136</masterclipid>
						<name>00064.mov</name>
						<enabled>TRUE</enabled>
						<duration>272233</duration>
						<rate>
							<timebase>25</timebase>
							<ntsc>FALSE</ntsc>
						</rate>
						<start>17424</start>
						<end>-1</end>
						<in>67033</in>
						<out>67143</out>
						<pproTicksIn>681098181120000</pproTicksIn>
						<pproTicksOut>682215851520000</pproTicksOut>
						<file id="file-129"/>
						<sourcetrack>
							<mediatype>audio</mediatype>
							<trackindex>2</trackindex>
						</sourcetrack>
							<filter>
								<effect>
									<name>Audio Levels</name>
									<effectid>audiolevels</effectid>
									<effectcategory>audiolevels</effectcategory>
									<effecttype>audiolevels</effecttype>
									<mediatype>audio</mediatype>
									<parameter authoringApp="PremierePro">
										<parameterid>level</parameterid>
										<name>Level</name>
										<valuemin>0</valuemin>
										<valuemax>3.98109</valuemax>
										<value>0.177406</value>
									</parameter>
								</effect>
							</filter>
						<link>
							<linkclipref>clipitem-512</linkclipref>
							<mediatype>audio</mediatype>
							<trackindex>19</trackindex>
							<clipindex>13</clipindex>
							<groupindex>1</groupindex>
						</link>
						<link>
							<linkclipref>clipitem-525</linkclipref>
							<mediatype>audio</mediatype>
							<trackindex>21</trackindex>
							<clipindex>10</clipindex>
							<groupindex>1</groupindex>
						</link>
						<logginginfo>
							<description></description>
							<scene></scene>
							<shottake></shottake>
							<lognote></lognote>
						</logginginfo>
						<labels>
							<label2>Iris</label2>
						</labels>
					</clipitem>
					<transitionitem>
						<start>17521</start>
						<end>17534</end>
						<alignment>end-black</alignment>
						<cutPointTicks>132088320000</cutPointTicks>
						<rate>
							<timebase>25</timebase>
							<ntsc>FALSE</ntsc>
						</rate>
						<effect>
							<name>Cross Fade (+3dB)</name>
							<effectid>KGAudioTransCrossFade3dB</effectid>
							<effecttype>transition</effecttype>
							<mediatype>audio</mediatype>
							<wipecode>0</wipecode>
							<wipeaccuracy>100</wipeaccuracy>
							<startratio>0</startratio>
							<endratio>1</endratio>
							<reverse>FALSE</reverse>
						</effect>
					</transitionitem>
					<enabled>TRUE</enabled>
					<locked>FALSE</locked>
					<outputchannelindex>1</outputchannelindex>
				</track>
				<track TL.SQTrackAudioKeyframeStyle="0" TL.SQTrackShy="0" TL.SQTrackExpandedHeight="45" TL.SQTrackExpanded="1" MZ.TrackTargeted="1" PannerCurrentValue="0.5" PannerIsInverted="true" PannerStartKeyframe="-91445760000000000,0.5,0,0,0,0,0,0" PannerName="Balance" currentExplodedTrackIndex="1" totalExplodedTrackCount="2" premiereTrackType="Stereo">
					<transitionitem>
						<start>154</start>
						<end>179</end>
						<alignment>start-black</alignment>
						<cutPointTicks>0</cutPointTicks>
						<rate>
							<timebase>25</timebase>
							<ntsc>FALSE</ntsc>
						</rate>
						<effect>
							<name>Cross Fade (+3dB)</name>
							<effectid>KGAudioTransCrossFade3dB</effectid>
							<effecttype>transition</effecttype>
							<mediatype>audio</mediatype>
							<wipecode>0</wipecode>
							<wipeaccuracy>100</wipeaccuracy>
							<startratio>0</startratio>
							<endratio>1</endratio>
							<reverse>FALSE</reverse>
						</effect>
					</transitionitem>
					<clipitem id="clipitem-526" premiereChannelType="stereo">
						<masterclipid>masterclip-133</masterclipid>
						<name>BER_1250_89_Stress_mit_Recht_Muller_898428.wav</name>
						<enabled>TRUE</enabled>
						<duration>3185</duration>
						<rate>
							<timebase>25</timebase>
							<ntsc>FALSE</ntsc>
						</rate>
						<start>-1</start>
						<end>-1</end>
						<in>2833</in>
						<out>3049</out>
						<pproTicksIn>28785093120000</pproTicksIn>
						<pproTicksOut>30979791360000</pproTicksOut>
						<file id="file-126"/>
						<sourcetrack>
							<mediatype>audio</mediatype>
							<trackindex>2</trackindex>
						</sourcetrack>
							<filter>
								<effect>
									<name>Gain</name>
									<effectid>{61756678, 4761696e, 4b657947}</effectid>
									<effecttype>filter</effecttype>
									<mediatype>audio</mediatype>
									<parameter authoringApp="PremierePro">
										<parameterid>Gain(dB)</parameterid>
										<name>Gain(dB)</name>
										<valuemin>-96</valuemin>
										<valuemax>96</valuemax>
										<value>-25</value>
									</parameter>
								</effect>
							</filter>
						<link>
							<linkclipref>clipitem-520</linkclipref>
							<mediatype>audio</mediatype>
							<trackindex>21</trackindex>
							<clipindex>2</clipindex>
							<groupindex>1</groupindex>
						</link>
						<link>
							<linkclipref>clipitem-526</linkclipref>
							<mediatype>audio</mediatype>
							<trackindex>22</trackindex>
							<clipindex>2</clipindex>
							<groupindex>1</groupindex>
						</link>
						<logginginfo>
							<description></description>
							<scene></scene>
							<shottake></shottake>
							<lognote></lognote>
						</logginginfo>
						<labels>
							<label2>Caribbean</label2>
						</labels>
					</clipitem>
					<transitionitem>
						<start>357</start>
						<end>370</end>
						<alignment>end-black</alignment>
						<cutPointTicks>132088320000</cutPointTicks>
						<rate>
							<timebase>25</timebase>
							<ntsc>FALSE</ntsc>
						</rate>
						<effect>
							<name>Cross Fade (+3dB)</name>
							<effectid>KGAudioTransCrossFade3dB</effectid>
							<effecttype>transition</effecttype>
							<mediatype>audio</mediatype>
							<wipecode>0</wipecode>
							<wipeaccuracy>100</wipeaccuracy>
							<startratio>0</startratio>
							<endratio>1</endratio>
							<reverse>FALSE</reverse>
						</effect>
					</transitionitem>
					<enabled>TRUE</enabled>
					<locked>FALSE</locked>
					<outputchannelindex>2</outputchannelindex>
				</track>
			</audio>
		</media>
		<timecode>
			<rate>
				<timebase>25</timebase>
				<ntsc>FALSE</ntsc>
			</rate>
			<string>00:00:00:00</string>
			<frame>0</frame>
			<displayformat>NDF</displayformat>
		</timecode>
			<marker>
				<comment></comment>
				<name></name>
				<in>4293</in>
				<out>-1</out>
			</marker>
		<labels>
			<label2>Cerulean</label2>
		</labels>
	</sequence>
</xmeml>
