<?xml version="1.0" encoding="UTF-8"?>
<!DOCTYPE xmeml>
<xmeml version="4">
	<sequence id="sequence-1" TL.SQAudioVisibleBase="0" TL.SQVideoVisibleBase="0" TL.SQVisibleBaseTime="0" TL.SQAVDividerPosition="0.46978020668" TL.SQHideShyTracks="0" TL.SQHeaderWidth="184" Monitor.ProgramZoomOut="87808250880000" Monitor.ProgramZoomIn="64814722560000" TL.SQTimePerPixel="1.0253090909090907" AM.TrackVScrollPosition="0" AM.TrackScrollPosition="0" MZ.EditLine="80218252800000" MZ.Sequence.PreviewFrameSizeHeight="1080" MZ.Sequence.PreviewFrameSizeWidth="1920" MZ.Sequence.AudioTimeDisplayFormat="200" MZ.Sequence.PreviewRenderingClassID="1061109567" MZ.Sequence.PreviewRenderingPresetCodec="1634755432" MZ.Sequence.PreviewRenderingPresetPath="EncoderPresets/SequencePreview/795454d9-d3c2-429d-9474-923ab13b7018/QuickTime.epr" MZ.Sequence.PreviewUseMaxRenderQuality="false" MZ.Sequence.PreviewUseMaxBitDepth="false" MZ.Sequence.EditingModeGUID="795454d9-d3c2-429d-9474-923ab13b7018" MZ.Sequence.VideoTimeDisplayFormat="101" MZ.WorkOutPoint="358111756800000" MZ.WorkInPoint="0" explodedTracks="true">
		<uuid>60348652-a6c9-426a-83ad-964327d0a621</uuid>
		<duration>52</duration>
		<rate>
			<timebase>25</timebase>
			<ntsc>FALSE</ntsc>
		</rate>
		<name>BroShow_ep_LYKKE</name>
		<media>
			<video>
				<format>
					<samplecharacteristics>
						<rate>
							<timebase>25</timebase>
							<ntsc>FALSE</ntsc>
						</rate>
						<codec>
							<name>Apple ProRes 422</name>
							<appspecificdata>
								<appname>Final Cut Pro</appname>
								<appmanufacturer>Apple Inc.</appmanufacturer>
								<appversion>7.0</appversion>
								<data>
									<qtcodec>
										<codecname>Apple ProRes 422</codecname>
										<codectypename>Apple ProRes 422</codectypename>
										<codectypecode>apcn</codectypecode>
										<codecvendorcode>appl</codecvendorcode>
										<spatialquality>1024</spatialquality>
										<temporalquality>0</temporalquality>
										<keyframerate>0</keyframerate>
										<datarate>0</datarate>
									</qtcodec>
								</data>
							</appspecificdata>
						</codec>
						<width>1920</width>
						<height>1080</height>
						<anamorphic>FALSE</anamorphic>
						<pixelaspectratio>square</pixelaspectratio>
						<fielddominance>none</fielddominance>
						<colordepth>24</colordepth>
					</samplecharacteristics>
				</format>
				<track TL.SQTrackShy="0" TL.SQTrackExpandedHeight="25" TL.SQTrackExpanded="1" MZ.TrackTargeted="1">
					<clipitem id="clipitem-1">
						<masterclipid>masterclip-1</masterclipid>
						<name>Clip0012.mov</name>
						<enabled>TRUE</enabled>
						<duration>51024</duration>
						<rate>
							<timebase>25</timebase>
							<ntsc>FALSE</ntsc>
						</rate>
						<start>25</start>
						<end>52</end>
						<in>11810</in>
						<out>11837</out>
						<pproTicksIn>119997158400000</pproTicksIn>
						<pproTicksOut>120271495680000</pproTicksOut>
						<alphatype>none</alphatype>
						<pixelaspectratio>square</pixelaspectratio>
						<anamorphic>FALSE</anamorphic>
						<file id="file-1">
							<name>Clip0012.mov</name>
							<pathurl>file://localhost/Volumes/Bingen/Prosjekter/MYNT194016%20WHATS%20COOKING/Media/Episode%2006%20Lykke/VB-opptak/12052016/KAM%20A/kort1/ProRes/Clip0012.mov</pathurl>
							<rate>
								<timebase>25</timebase>
								<ntsc>FALSE</ntsc>
							</rate>
							<duration>51024</duration>
							<timecode>
								<rate>
									<timebase>25</timebase>
									<ntsc>FALSE</ntsc>
								</rate>
								<string>14:08:02:22</string>
								<frame>1272072</frame>
								<displayformat>NDF</displayformat>
								<reel>
									<name></name>
								</reel>
							</timecode>
							<media>
								<video>
									<samplecharacteristics>
										<rate>
											<timebase>25</timebase>
											<ntsc>FALSE</ntsc>
										</rate>
										<width>1920</width>
										<height>1080</height>
										<anamorphic>FALSE</anamorphic>
										<pixelaspectratio>square</pixelaspectratio>
										<fielddominance>none</fielddominance>
									</samplecharacteristics>
								</video>
								<audio>
									<samplecharacteristics>
										<depth>16</depth>
										<samplerate>48000</samplerate>
									</samplecharacteristics>
									<channelcount>1</channelcount>
									<audiochannel>
										<sourcechannel>1</sourcechannel>
									</audiochannel>
								</audio>
								<audio>
									<samplecharacteristics>
										<depth>16</depth>
										<samplerate>48000</samplerate>
									</samplecharacteristics>
									<channelcount>1</channelcount>
									<audiochannel>
										<sourcechannel>2</sourcechannel>
									</audiochannel>
								</audio>
							</media>
						</file>
						<link>
							<linkclipref>clipitem-1</linkclipref>
							<mediatype>video</mediatype>
							<trackindex>1</trackindex>
							<clipindex>1</clipindex>
						</link>
						<link>
							<linkclipref>clipitem-69</linkclipref>
							<mediatype>audio</mediatype>
							<trackindex>5</trackindex>
							<clipindex>1</clipindex>
							<groupindex>1</groupindex>
						</link>
						<link>
							<linkclipref>clipitem-116</linkclipref>
							<mediatype>audio</mediatype>
							<trackindex>7</trackindex>
							<clipindex>1</clipindex>
							<groupindex>1</groupindex>
						</link>
						<logginginfo>
							<description>sc01 t12 int squah hall, møter kompis+spiller</description>
							<scene></scene>
							<shottake></shottake>
							<lognote>A1=M, A2=kam/venn</lognote>
						</logginginfo>
						<labels>
							<label2>Rose</label2>
						</labels>
					</clipitem>
					<enabled>TRUE</enabled>
					<locked>FALSE</locked>
				</track>
				<track TL.SQTrackShy="0" TL.SQTrackExpandedHeight="35" TL.SQTrackExpanded="1" MZ.TrackTargeted="1">
					<clipitem id="clipitem-2">
						<masterclipid>masterclip-2</masterclipid>
						<name>Clip0001.mov</name>
						<enabled>TRUE</enabled>
						<duration>30972</duration>
						<rate>
							<timebase>25</timebase>
							<ntsc>FALSE</ntsc>
						</rate>
						<start>27483</start>
						<end>27491</end>
						<in>30911</in>
						<out>30919</out>
						<pproTicksIn>628151086080000</pproTicksIn>
						<pproTicksOut>628313656320000</pproTicksOut>
						<alphatype>none</alphatype>
						<pixelaspectratio>square</pixelaspectratio>
						<anamorphic>FALSE</anamorphic>
						<file id="file-2">
							<name>Clip0001.mov</name>
							<pathurl>file://localhost/Volumes/Bingen/Prosjekter/MYNT194016%20WHATS%20COOKING/Media/Episode%2006%20Lykke/VB-opptak/02052016/KAM%20A%20(FS5)/ProRes/Clip0001.mov</pathurl>
							<rate>
								<timebase>25</timebase>
								<ntsc>FALSE</ntsc>
							</rate>
							<duration>61944</duration>
							<timecode>
								<rate>
									<timebase>25</timebase>
									<ntsc>FALSE</ntsc>
								</rate>
								<string>12:18:29:19</string>
								<frame>1107744</frame>
								<displayformat>NDF</displayformat>
								<reel>
									<name></name>
								</reel>
							</timecode>
							<media>
								<video>
									<samplecharacteristics>
										<rate>
											<timebase>25</timebase>
											<ntsc>FALSE</ntsc>
										</rate>
										<width>1920</width>
										<height>1080</height>
										<anamorphic>FALSE</anamorphic>
										<pixelaspectratio>square</pixelaspectratio>
										<fielddominance>none</fielddominance>
									</samplecharacteristics>
								</video>
								<audio>
									<samplecharacteristics>
										<depth>16</depth>
										<samplerate>48000</samplerate>
									</samplecharacteristics>
									<channelcount>1</channelcount>
									<audiochannel>
										<sourcechannel>1</sourcechannel>
									</audiochannel>
								</audio>
								<audio>
									<samplecharacteristics>
										<depth>16</depth>
										<samplerate>48000</samplerate>
									</samplecharacteristics>
									<channelcount>1</channelcount>
									<audiochannel>
										<sourcechannel>2</sourcechannel>
									</audiochannel>
								</audio>
							</media>
						</file>
							<filter>
								<effect>
									<name>Time Remap</name>
									<effectid>timeremap</effectid>
									<effectcategory>motion</effectcategory>
									<effecttype>motion</effecttype>
									<mediatype>video</mediatype>
									<parameter authoringApp="PremierePro">
										<parameterid>variablespeed</parameterid>
										<name>variablespeed</name>
										<valuemin>0</valuemin>
										<valuemax>1</valuemax>
										<value>0</value>
									</parameter>
									<parameter authoringApp="PremierePro">
										<parameterid>speed</parameterid>
										<name>speed</name>
										<valuemin>-100000</valuemin>
										<valuemax>100000</valuemax>
										<value>200</value>
									</parameter>
									<parameter authoringApp="PremierePro">
										<parameterid>reverse</parameterid>
										<name>reverse</name>
										<value>FALSE</value>
									</parameter>
									<parameter authoringApp="PremierePro">
										<parameterid>frameblending</parameterid>
										<name>frameblending</name>
										<value>FALSE</value>
									</parameter>
									<parameter authoringApp="PremierePro">
										<parameterid>graphdict</parameterid>
										<name>graphdict</name>
										<valuemin>0</valuemin>
										<valuemax>61944</valuemax>
										<value>0</value>
										<keyframe>
											<when>0</when>
											<value>0</value>
											<speedvirtualkf>TRUE</speedvirtualkf>
											<speedkfstart>TRUE</speedkfstart>
										</keyframe>
										<keyframe>
											<when>30911</when>
											<value>61822</value>
											<speedvirtualkf>TRUE</speedvirtualkf>
											<speedkfin>TRUE</speedkfin>
										</keyframe>
										<keyframe>
											<when>30919</when>
											<value>61838</value>
											<speedvirtualkf>TRUE</speedvirtualkf>
											<speedkfout>TRUE</speedkfout>
										</keyframe>
										<keyframe>
											<when>30972</when>
											<value>61944</value>
											<speedvirtualkf>TRUE</speedvirtualkf>
											<speedkfend>TRUE</speedkfend>
										</keyframe>
										<interpolation>
											<name>FCPCurve</name>
										</interpolation>
									</parameter>
								</effect>
							</filter>
						<logginginfo>
							<description>Foredrag, mot sal </description>
							<scene></scene>
							<shottake></shottake>
							<lognote></lognote>
						</logginginfo>
						<labels>
							<label2>Iris</label2>
						</labels>
					</clipitem>
					<clipitem id="clipitem-3">
						<masterclipid>masterclip-3</masterclipid>
						<name>Clip0001.mov</name>
						<enabled>TRUE</enabled>
						<duration>59676</duration>
						<rate>
							<timebase>25</timebase>
							<ntsc>FALSE</ntsc>
						</rate>
						<start>30046</start>
						<end>30155</end>
						<in>46306</in>
						<out>46415</out>
						<pproTicksIn>470498595840000</pproTicksIn>
						<pproTicksOut>471606105600000</pproTicksOut>
						<alphatype>none</alphatype>
						<pixelaspectratio>square</pixelaspectratio>
						<anamorphic>FALSE</anamorphic>
						<file id="file-3">
							<name>Clip0001.mov</name>
							<pathurl>file://localhost/Volumes/Bingen/Prosjekter/MYNT194016%20WHATS%20COOKING/Media/Episode%2006%20Lykke/VB-opptak/02052016/KAM%20B%20(FS5)/ProRes/Clip0001.mov</pathurl>
							<rate>
								<timebase>25</timebase>
								<ntsc>FALSE</ntsc>
							</rate>
							<duration>59676</duration>
							<timecode>
								<rate>
									<timebase>25</timebase>
									<ntsc>FALSE</ntsc>
								</rate>
								<string>00:00:00:00</string>
								<frame>0</frame>
								<displayformat>NDF</displayformat>
								<reel>
									<name></name>
								</reel>
							</timecode>
							<media>
								<video>
									<samplecharacteristics>
										<rate>
											<timebase>25</timebase>
											<ntsc>FALSE</ntsc>
										</rate>
										<width>1920</width>
										<height>1080</height>
										<anamorphic>FALSE</anamorphic>
										<pixelaspectratio>square</pixelaspectratio>
										<fielddominance>none</fielddominance>
									</samplecharacteristics>
								</video>
								<audio>
									<samplecharacteristics>
										<depth>16</depth>
										<samplerate>48000</samplerate>
									</samplecharacteristics>
									<channelcount>1</channelcount>
									<audiochannel>
										<sourcechannel>1</sourcechannel>
									</audiochannel>
								</audio>
								<audio>
									<samplecharacteristics>
										<depth>16</depth>
										<samplerate>48000</samplerate>
									</samplecharacteristics>
									<channelcount>1</channelcount>
									<audiochannel>
										<sourcechannel>2</sourcechannel>
									</audiochannel>
								</audio>
							</media>
						</file>
							<filter>
								<effect>
									<name>Basic Motion</name>
									<effectid>basic</effectid>
									<effectcategory>motion</effectcategory>
									<effecttype>motion</effecttype>
									<mediatype>video</mediatype>
									<parameter authoringApp="PremierePro">
										<parameterid>scale</parameterid>
										<name>Scale</name>
										<valuemin>0</valuemin>
										<valuemax>1000</valuemax>
										<value>100</value>
									</parameter>
									<parameter authoringApp="PremierePro">
										<parameterid>rotation</parameterid>
										<name>Rotation</name>
										<valuemin>-8640</valuemin>
										<valuemax>8640</valuemax>
										<value>0</value>
									</parameter>
									<parameter authoringApp="PremierePro">
										<parameterid>center</parameterid>
										<name>Center</name>
										<value>
											<horiz>0.211979</horiz>
											<vert>0</vert>
										</value>
									</parameter>
									<parameter authoringApp="PremierePro">
										<parameterid>centerOffset</parameterid>
										<name>Anchor Point</name>
										<value>
											<horiz>0</horiz>
											<vert>0</vert>
										</value>
									</parameter>
								</effect>
							</filter>
							<filter>
								<effect>
									<name>Crop</name>
									<effectid>crop</effectid>
									<effectcategory>motion</effectcategory>
									<effecttype>motion</effecttype>
									<mediatype>video</mediatype>
									<parameter authoringApp="PremierePro">
										<parameterid>left</parameterid>
										<name>left</name>
										<valuemin>0</valuemin>
										<valuemax>100</valuemax>
										<value>0</value>
									</parameter>
									<parameter authoringApp="PremierePro">
										<parameterid>right</parameterid>
										<name>right</name>
										<valuemin>0</valuemin>
										<valuemax>100</valuemax>
										<value>0</value>
									</parameter>
									<parameter authoringApp="PremierePro">
										<parameterid>top</parameterid>
										<name>top</name>
										<valuemin>0</valuemin>
										<valuemax>100</valuemax>
										<value>0</value>
									</parameter>
									<parameter authoringApp="PremierePro">
										<parameterid>bottom</parameterid>
										<name>bottom</name>
										<valuemin>0</valuemin>
										<valuemax>100</valuemax>
										<value>0</value>
									</parameter>
								</effect>
							</filter>
						<logginginfo>
							<description>foredragssal HNÆ Abiel</description>
							<scene></scene>
							<shottake></shottake>
							<lognote></lognote>
						</logginginfo>
						<labels>
							<label2>Iris</label2>
						</labels>
					</clipitem>
					<clipitem id="clipitem-4">
						<masterclipid>masterclip-3</masterclipid>
						<name>Clip0001.mov</name>
						<enabled>TRUE</enabled>
						<duration>59676</duration>
						<rate>
							<timebase>25</timebase>
							<ntsc>FALSE</ntsc>
						</rate>
						<start>30415</start>
						<end>30540</end>
						<in>47664</in>
						<out>47789</out>
						<pproTicksIn>484296744960000</pproTicksIn>
						<pproTicksOut>485566824960000</pproTicksOut>
						<alphatype>none</alphatype>
						<file id="file-3"/>
							<filter>
								<effect>
									<name>Basic Motion</name>
									<effectid>basic</effectid>
									<effectcategory>motion</effectcategory>
									<effecttype>motion</effecttype>
									<mediatype>video</mediatype>
									<parameter authoringApp="PremierePro">
										<parameterid>scale</parameterid>
										<name>Scale</name>
										<valuemin>0</valuemin>
										<valuemax>1000</valuemax>
										<value>100</value>
									</parameter>
									<parameter authoringApp="PremierePro">
										<parameterid>rotation</parameterid>
										<name>Rotation</name>
										<valuemin>-8640</valuemin>
										<valuemax>8640</valuemax>
										<value>0</value>
									</parameter>
									<parameter authoringApp="PremierePro">
										<parameterid>center</parameterid>
										<name>Center</name>
										<value>
											<horiz>0.211979</horiz>
											<vert>0</vert>
										</value>
									</parameter>
									<parameter authoringApp="PremierePro">
										<parameterid>centerOffset</parameterid>
										<name>Anchor Point</name>
										<value>
											<horiz>0</horiz>
											<vert>0</vert>
										</value>
									</parameter>
								</effect>
							</filter>
							<filter>
								<effect>
									<name>Crop</name>
									<effectid>crop</effectid>
									<effectcategory>motion</effectcategory>
									<effecttype>motion</effecttype>
									<mediatype>video</mediatype>
									<parameter authoringApp="PremierePro">
										<parameterid>left</parameterid>
										<name>left</name>
										<valuemin>0</valuemin>
										<valuemax>100</valuemax>
										<value>0</value>
									</parameter>
									<parameter authoringApp="PremierePro">
										<parameterid>right</parameterid>
										<name>right</name>
										<valuemin>0</valuemin>
										<valuemax>100</valuemax>
										<value>0</value>
									</parameter>
									<parameter authoringApp="PremierePro">
										<parameterid>top</parameterid>
										<name>top</name>
										<valuemin>0</valuemin>
										<valuemax>100</valuemax>
										<value>0</value>
									</parameter>
									<parameter authoringApp="PremierePro">
										<parameterid>bottom</parameterid>
										<name>bottom</name>
										<valuemin>0</valuemin>
										<valuemax>100</valuemax>
										<value>0</value>
									</parameter>
								</effect>
							</filter>
						<logginginfo>
							<description>foredragssal HNÆ Abiel</description>
							<scene></scene>
							<shottake></shottake>
							<lognote></lognote>
						</logginginfo>
						<labels>
							<label2>Iris</label2>
						</labels>
					</clipitem>
					<clipitem id="clipitem-5">
						<masterclipid>masterclip-3</masterclipid>
						<name>Clip0001.mov</name>
						<enabled>TRUE</enabled>
						<duration>59676</duration>
						<rate>
							<timebase>25</timebase>
							<ntsc>FALSE</ntsc>
						</rate>
						<start>30727</start>
						<end>30864</end>
						<in>48072</in>
						<out>48209</out>
						<pproTicksIn>488442286080000</pproTicksIn>
						<pproTicksOut>489834293760000</pproTicksOut>
						<alphatype>none</alphatype>
						<file id="file-3"/>
							<filter>
								<effect>
									<name>Basic Motion</name>
									<effectid>basic</effectid>
									<effectcategory>motion</effectcategory>
									<effecttype>motion</effecttype>
									<mediatype>video</mediatype>
									<parameter authoringApp="PremierePro">
										<parameterid>scale</parameterid>
										<name>Scale</name>
										<valuemin>0</valuemin>
										<valuemax>1000</valuemax>
										<value>100</value>
									</parameter>
									<parameter authoringApp="PremierePro">
										<parameterid>rotation</parameterid>
										<name>Rotation</name>
										<valuemin>-8640</valuemin>
										<valuemax>8640</valuemax>
										<value>0</value>
									</parameter>
									<parameter authoringApp="PremierePro">
										<parameterid>center</parameterid>
										<name>Center</name>
										<value>
											<horiz>0.211979</horiz>
											<vert>0</vert>
										</value>
									</parameter>
									<parameter authoringApp="PremierePro">
										<parameterid>centerOffset</parameterid>
										<name>Anchor Point</name>
										<value>
											<horiz>0</horiz>
											<vert>0</vert>
										</value>
									</parameter>
								</effect>
							</filter>
							<filter>
								<effect>
									<name>Crop</name>
									<effectid>crop</effectid>
									<effectcategory>motion</effectcategory>
									<effecttype>motion</effecttype>
									<mediatype>video</mediatype>
									<parameter authoringApp="PremierePro">
										<parameterid>left</parameterid>
										<name>left</name>
										<valuemin>0</valuemin>
										<valuemax>100</valuemax>
										<value>0</value>
									</parameter>
									<parameter authoringApp="PremierePro">
										<parameterid>right</parameterid>
										<name>right</name>
										<valuemin>0</valuemin>
										<valuemax>100</valuemax>
										<value>0</value>
									</parameter>
									<parameter authoringApp="PremierePro">
										<parameterid>top</parameterid>
										<name>top</name>
										<valuemin>0</valuemin>
										<valuemax>100</valuemax>
										<value>0</value>
									</parameter>
									<parameter authoringApp="PremierePro">
										<parameterid>bottom</parameterid>
										<name>bottom</name>
										<valuemin>0</valuemin>
										<valuemax>100</valuemax>
										<value>0</value>
									</parameter>
								</effect>
							</filter>
						<logginginfo>
							<description>foredragssal HNÆ Abiel</description>
							<scene></scene>
							<shottake></shottake>
							<lognote></lognote>
						</logginginfo>
						<labels>
							<label2>Iris</label2>
						</labels>
					</clipitem>
					<clipitem id="clipitem-6">
						<masterclipid>masterclip-3</masterclipid>
						<name>Clip0001.mov</name>
						<enabled>TRUE</enabled>
						<duration>59676</duration>
						<rate>
							<timebase>25</timebase>
							<ntsc>FALSE</ntsc>
						</rate>
						<start>31316</start>
						<end>31384</end>
						<in>49674</in>
						<out>49742</out>
						<pproTicksIn>504719631360000</pproTicksIn>
						<pproTicksOut>505410554880000</pproTicksOut>
						<alphatype>none</alphatype>
						<file id="file-3"/>
							<filter>
								<effect>
									<name>Basic Motion</name>
									<effectid>basic</effectid>
									<effectcategory>motion</effectcategory>
									<effecttype>motion</effecttype>
									<mediatype>video</mediatype>
									<parameter authoringApp="PremierePro">
										<parameterid>scale</parameterid>
										<name>Scale</name>
										<valuemin>0</valuemin>
										<valuemax>1000</valuemax>
										<value>100</value>
									</parameter>
									<parameter authoringApp="PremierePro">
										<parameterid>rotation</parameterid>
										<name>Rotation</name>
										<valuemin>-8640</valuemin>
										<valuemax>8640</valuemax>
										<value>0</value>
									</parameter>
									<parameter authoringApp="PremierePro">
										<parameterid>center</parameterid>
										<name>Center</name>
										<value>
											<horiz>0.254167</horiz>
											<vert>0</vert>
										</value>
									</parameter>
									<parameter authoringApp="PremierePro">
										<parameterid>centerOffset</parameterid>
										<name>Anchor Point</name>
										<value>
											<horiz>0</horiz>
											<vert>0</vert>
										</value>
									</parameter>
								</effect>
							</filter>
							<filter>
								<effect>
									<name>Crop</name>
									<effectid>crop</effectid>
									<effectcategory>motion</effectcategory>
									<effecttype>motion</effecttype>
									<mediatype>video</mediatype>
									<parameter authoringApp="PremierePro">
										<parameterid>left</parameterid>
										<name>left</name>
										<valuemin>0</valuemin>
										<valuemax>100</valuemax>
										<value>0</value>
									</parameter>
									<parameter authoringApp="PremierePro">
										<parameterid>right</parameterid>
										<name>right</name>
										<valuemin>0</valuemin>
										<valuemax>100</valuemax>
										<value>0</value>
									</parameter>
									<parameter authoringApp="PremierePro">
										<parameterid>top</parameterid>
										<name>top</name>
										<valuemin>0</valuemin>
										<valuemax>100</valuemax>
										<value>0</value>
									</parameter>
									<parameter authoringApp="PremierePro">
										<parameterid>bottom</parameterid>
										<name>bottom</name>
										<valuemin>0</valuemin>
										<valuemax>100</valuemax>
										<value>0</value>
									</parameter>
								</effect>
							</filter>
						<logginginfo>
							<description>foredragssal HNÆ Abiel</description>
							<scene></scene>
							<shottake></shottake>
							<lognote></lognote>
						</logginginfo>
						<labels>
							<label2>Iris</label2>
						</labels>
					</clipitem>
					<clipitem id="clipitem-7">
						<masterclipid>masterclip-4</masterclipid>
						<name>Moslet.mov</name>
						<enabled>TRUE</enabled>
						<duration>1910</duration>
						<rate>
							<timebase>25</timebase>
							<ntsc>FALSE</ntsc>
						</rate>
						<start>31603</start>
						<end>31731</end>
						<in>155</in>
						<out>283</out>
						<pproTicksIn>1574899200000</pproTicksIn>
						<pproTicksOut>2875461120000</pproTicksOut>
						<alphatype>none</alphatype>
						<pixelaspectratio>square</pixelaspectratio>
						<anamorphic>FALSE</anamorphic>
						<file id="file-4">
							<name>Moslet.mov</name>
							<pathurl>file://localhost/Volumes/Bingen/Prosjekter/MYNT194016%20WHATS%20COOKING/Media/Episode%2006%20Lykke/VB-opptak/VB%20Foredrag/ProRes/Moslet.mov</pathurl>
							<rate>
								<timebase>25</timebase>
								<ntsc>FALSE</ntsc>
							</rate>
							<duration>1910</duration>
							<timecode>
								<rate>
									<timebase>25</timebase>
									<ntsc>FALSE</ntsc>
								</rate>
								<string>00:00:00:00</string>
								<frame>0</frame>
								<displayformat>NDF</displayformat>
								<reel>
									<name></name>
								</reel>
							</timecode>
							<media>
								<video>
									<samplecharacteristics>
										<rate>
											<timebase>25</timebase>
											<ntsc>FALSE</ntsc>
										</rate>
										<width>1920</width>
										<height>1080</height>
										<anamorphic>FALSE</anamorphic>
										<pixelaspectratio>square</pixelaspectratio>
										<fielddominance>none</fielddominance>
									</samplecharacteristics>
								</video>
								<audio>
									<samplecharacteristics>
										<depth>16</depth>
										<samplerate>48000</samplerate>
									</samplecharacteristics>
									<channelcount>2</channelcount>
								</audio>
							</media>
						</file>
							<filter>
								<effect>
									<name>Basic Motion</name>
									<effectid>basic</effectid>
									<effectcategory>motion</effectcategory>
									<effecttype>motion</effecttype>
									<mediatype>video</mediatype>
									<parameter authoringApp="PremierePro">
										<parameterid>scale</parameterid>
										<name>Scale</name>
										<valuemin>0</valuemin>
										<valuemax>1000</valuemax>
										<value>120</value>
									</parameter>
									<parameter authoringApp="PremierePro">
										<parameterid>rotation</parameterid>
										<name>Rotation</name>
										<valuemin>-8640</valuemin>
										<valuemax>8640</valuemax>
										<value>0</value>
									</parameter>
									<parameter authoringApp="PremierePro">
										<parameterid>center</parameterid>
										<name>Center</name>
										<value>
											<horiz>0</horiz>
											<vert>-0.136111</vert>
										</value>
									</parameter>
									<parameter authoringApp="PremierePro">
										<parameterid>centerOffset</parameterid>
										<name>Anchor Point</name>
										<value>
											<horiz>0</horiz>
											<vert>0</vert>
										</value>
									</parameter>
								</effect>
							</filter>
							<filter>
								<effect>
									<name>Crop</name>
									<effectid>crop</effectid>
									<effectcategory>motion</effectcategory>
									<effecttype>motion</effecttype>
									<mediatype>video</mediatype>
									<parameter authoringApp="PremierePro">
										<parameterid>left</parameterid>
										<name>left</name>
										<valuemin>0</valuemin>
										<valuemax>100</valuemax>
										<value>34.5</value>
									</parameter>
									<parameter authoringApp="PremierePro">
										<parameterid>right</parameterid>
										<name>right</name>
										<valuemin>0</valuemin>
										<valuemax>100</valuemax>
										<value>34.5</value>
									</parameter>
									<parameter authoringApp="PremierePro">
										<parameterid>top</parameterid>
										<name>top</name>
										<valuemin>0</valuemin>
										<valuemax>100</valuemax>
										<value>0</value>
									</parameter>
									<parameter authoringApp="PremierePro">
										<parameterid>bottom</parameterid>
										<name>bottom</name>
										<valuemin>0</valuemin>
										<valuemax>100</valuemax>
										<value>0</value>
									</parameter>
								</effect>
							</filter>
						<logginginfo>
							<description></description>
							<scene></scene>
							<shottake></shottake>
							<lognote></lognote>
						</logginginfo>
						<labels>
							<label2>Iris</label2>
						</labels>
					</clipitem>
					<generatoritem id="clipitem-8">
						<enabled>TRUE</enabled>
						<duration>1080000</duration>
						<start>31788</start>
						<end>31857</end>
						<in>89910</in>
						<out>89979</out>
						<effect>
							<name>Color</name>
							<effectid>Color</effectid>
							<effectcategory>Matte</effectcategory>
							<effecttype>generator</effecttype>
							<mediatype>video</mediatype>
							<parameter authoringApp="PremierePro">
								<parameterid>fillcolor</parameterid>
								<name>Color</name>
								<value>
									<alpha>0</alpha>
									<red>204</red>
									<green>204</green>
									<blue>204</blue>
								</value>
							</parameter>
						</effect>
					</generatoritem>
					<clipitem id="clipitem-9">
						<masterclipid>masterclip-3</masterclipid>
						<name>Clip0001.mov</name>
						<enabled>TRUE</enabled>
						<duration>59676</duration>
						<rate>
							<timebase>25</timebase>
							<ntsc>FALSE</ntsc>
						</rate>
						<start>31923</start>
						<end>31991</end>
						<in>55362</in>
						<out>55430</out>
						<pproTicksIn>562513351680000</pproTicksIn>
						<pproTicksOut>563204275200000</pproTicksOut>
						<alphatype>none</alphatype>
						<file id="file-3"/>
							<filter>
								<effect>
									<name>Basic Motion</name>
									<effectid>basic</effectid>
									<effectcategory>motion</effectcategory>
									<effecttype>motion</effecttype>
									<mediatype>video</mediatype>
									<parameter authoringApp="PremierePro">
										<parameterid>scale</parameterid>
										<name>Scale</name>
										<valuemin>0</valuemin>
										<valuemax>1000</valuemax>
										<value>100</value>
									</parameter>
									<parameter authoringApp="PremierePro">
										<parameterid>rotation</parameterid>
										<name>Rotation</name>
										<valuemin>-8640</valuemin>
										<valuemax>8640</valuemax>
										<value>0</value>
									</parameter>
									<parameter authoringApp="PremierePro">
										<parameterid>center</parameterid>
										<name>Center</name>
										<value>
											<horiz>0.211979</horiz>
											<vert>0</vert>
										</value>
									</parameter>
									<parameter authoringApp="PremierePro">
										<parameterid>centerOffset</parameterid>
										<name>Anchor Point</name>
										<value>
											<horiz>0</horiz>
											<vert>0</vert>
										</value>
									</parameter>
								</effect>
							</filter>
							<filter>
								<effect>
									<name>Crop</name>
									<effectid>crop</effectid>
									<effectcategory>motion</effectcategory>
									<effecttype>motion</effecttype>
									<mediatype>video</mediatype>
									<parameter authoringApp="PremierePro">
										<parameterid>left</parameterid>
										<name>left</name>
										<valuemin>0</valuemin>
										<valuemax>100</valuemax>
										<value>0</value>
									</parameter>
									<parameter authoringApp="PremierePro">
										<parameterid>right</parameterid>
										<name>right</name>
										<valuemin>0</valuemin>
										<valuemax>100</valuemax>
										<value>0</value>
									</parameter>
									<parameter authoringApp="PremierePro">
										<parameterid>top</parameterid>
										<name>top</name>
										<valuemin>0</valuemin>
										<valuemax>100</valuemax>
										<value>0</value>
									</parameter>
									<parameter authoringApp="PremierePro">
										<parameterid>bottom</parameterid>
										<name>bottom</name>
										<valuemin>0</valuemin>
										<valuemax>100</valuemax>
										<value>0</value>
									</parameter>
								</effect>
							</filter>
						<logginginfo>
							<description>foredragssal HNÆ Abiel</description>
							<scene></scene>
							<shottake></shottake>
							<lognote></lognote>
						</logginginfo>
						<labels>
							<label2>Iris</label2>
						</labels>
					</clipitem>
					<clipitem id="clipitem-10">
						<masterclipid>masterclip-6</masterclipid>
						<name>zeid_1.mov</name>
						<enabled>TRUE</enabled>
						<duration>743</duration>
						<rate>
							<timebase>25</timebase>
							<ntsc>FALSE</ntsc>
						</rate>
						<start>32056</start>
						<end>32104</end>
						<in>646</in>
						<out>694</out>
						<pproTicksIn>6563773440000</pproTicksIn>
						<pproTicksOut>7051484160000</pproTicksOut>
						<alphatype>none</alphatype>
						<pixelaspectratio>square</pixelaspectratio>
						<anamorphic>FALSE</anamorphic>
						<file id="file-5">
							<name>zeid_1.mov</name>
							<pathurl>file://localhost/Volumes/Bingen/Prosjekter/MYNT194016%20WHATS%20COOKING/Media/Episode%2006%20Lykke/VB-opptak/VB%20Foredrag/ProRes/zeid_1.mov</pathurl>
							<rate>
								<timebase>25</timebase>
								<ntsc>FALSE</ntsc>
							</rate>
							<duration>743</duration>
							<timecode>
								<rate>
									<timebase>25</timebase>
									<ntsc>FALSE</ntsc>
								</rate>
								<string>00:00:00:00</string>
								<frame>0</frame>
								<displayformat>NDF</displayformat>
								<reel>
									<name></name>
								</reel>
							</timecode>
							<media>
								<video>
									<samplecharacteristics>
										<rate>
											<timebase>25</timebase>
											<ntsc>FALSE</ntsc>
										</rate>
										<width>1920</width>
										<height>1080</height>
										<anamorphic>FALSE</anamorphic>
										<pixelaspectratio>square</pixelaspectratio>
										<fielddominance>none</fielddominance>
									</samplecharacteristics>
								</video>
								<audio>
									<samplecharacteristics>
										<depth>16</depth>
										<samplerate>48000</samplerate>
									</samplecharacteristics>
									<channelcount>2</channelcount>
								</audio>
							</media>
						</file>
							<filter>
								<effect>
									<name>Basic Motion</name>
									<effectid>basic</effectid>
									<effectcategory>motion</effectcategory>
									<effecttype>motion</effecttype>
									<mediatype>video</mediatype>
									<parameter authoringApp="PremierePro">
										<parameterid>scale</parameterid>
										<name>Scale</name>
										<valuemin>0</valuemin>
										<valuemax>1000</valuemax>
										<value>130</value>
									</parameter>
									<parameter authoringApp="PremierePro">
										<parameterid>rotation</parameterid>
										<name>Rotation</name>
										<valuemin>-8640</valuemin>
										<valuemax>8640</valuemax>
										<value>0</value>
									</parameter>
									<parameter authoringApp="PremierePro">
										<parameterid>center</parameterid>
										<name>Center</name>
										<value>
											<horiz>0</horiz>
											<vert>0</vert>
										</value>
									</parameter>
									<parameter authoringApp="PremierePro">
										<parameterid>centerOffset</parameterid>
										<name>Anchor Point</name>
										<value>
											<horiz>0</horiz>
											<vert>0</vert>
										</value>
									</parameter>
								</effect>
							</filter>
							<filter>
								<effect>
									<name>Crop</name>
									<effectid>crop</effectid>
									<effectcategory>motion</effectcategory>
									<effecttype>motion</effecttype>
									<mediatype>video</mediatype>
									<parameter authoringApp="PremierePro">
										<parameterid>left</parameterid>
										<name>left</name>
										<valuemin>0</valuemin>
										<valuemax>100</valuemax>
										<value>34.5</value>
									</parameter>
									<parameter authoringApp="PremierePro">
										<parameterid>right</parameterid>
										<name>right</name>
										<valuemin>0</valuemin>
										<valuemax>100</valuemax>
										<value>34.5</value>
									</parameter>
									<parameter authoringApp="PremierePro">
										<parameterid>top</parameterid>
										<name>top</name>
										<valuemin>0</valuemin>
										<valuemax>100</valuemax>
										<value>0</value>
									</parameter>
									<parameter authoringApp="PremierePro">
										<parameterid>bottom</parameterid>
										<name>bottom</name>
										<valuemin>0</valuemin>
										<valuemax>100</valuemax>
										<value>0</value>
									</parameter>
								</effect>
							</filter>
						<logginginfo>
							<description></description>
							<scene></scene>
							<shottake></shottake>
							<lognote></lognote>
						</logginginfo>
						<labels>
							<label2>Iris</label2>
						</labels>
					</clipitem>
					<enabled>TRUE</enabled>
					<locked>FALSE</locked>
				</track>
				<track TL.SQTrackShy="0" TL.SQTrackExpandedHeight="25" TL.SQTrackExpanded="1" MZ.TrackTargeted="1">
					<clipitem id="clipitem-11">
						<masterclipid>masterclip-7</masterclipid>
						<name>002_0456.mov</name>
						<enabled>TRUE</enabled>
						<duration>59717</duration>
						<rate>
							<timebase>25</timebase>
							<ntsc>FALSE</ntsc>
						</rate>
						<start>30046</start>
						<end>30155</end>
						<in>45746</in>
						<out>45855</out>
						<pproTicksIn>464808637440000</pproTicksIn>
						<pproTicksOut>465916147200000</pproTicksOut>
						<alphatype>none</alphatype>
						<pixelaspectratio>square</pixelaspectratio>
						<anamorphic>FALSE</anamorphic>
						<file id="file-6">
							<name>002_0456.mov</name>
							<pathurl>file://localhost/Volumes/Bingen/Prosjekter/MYNT194016%20WHATS%20COOKING/Media/Episode%2006%20Lykke/VB-opptak/02052016/KAM%20D%20(FS7)/ProRes/002_0456.mov</pathurl>
							<rate>
								<timebase>25</timebase>
								<ntsc>FALSE</ntsc>
							</rate>
							<duration>59717</duration>
							<timecode>
								<rate>
									<timebase>25</timebase>
									<ntsc>FALSE</ntsc>
								</rate>
								<string>21:02:58:01</string>
								<frame>1894451</frame>
								<displayformat>NDF</displayformat>
								<reel>
									<name></name>
								</reel>
							</timecode>
							<media>
								<video>
									<samplecharacteristics>
										<rate>
											<timebase>25</timebase>
											<ntsc>FALSE</ntsc>
										</rate>
										<width>1920</width>
										<height>1080</height>
										<anamorphic>FALSE</anamorphic>
										<pixelaspectratio>square</pixelaspectratio>
										<fielddominance>none</fielddominance>
									</samplecharacteristics>
								</video>
								<audio>
									<samplecharacteristics>
										<depth>16</depth>
										<samplerate>48000</samplerate>
									</samplecharacteristics>
									<channelcount>1</channelcount>
									<audiochannel>
										<sourcechannel>1</sourcechannel>
									</audiochannel>
								</audio>
								<audio>
									<samplecharacteristics>
										<depth>16</depth>
										<samplerate>48000</samplerate>
									</samplecharacteristics>
									<channelcount>1</channelcount>
									<audiochannel>
										<sourcechannel>2</sourcechannel>
									</audiochannel>
								</audio>
								<audio>
									<samplecharacteristics>
										<depth>16</depth>
										<samplerate>48000</samplerate>
									</samplecharacteristics>
									<channelcount>1</channelcount>
									<audiochannel>
										<sourcechannel>3</sourcechannel>
									</audiochannel>
								</audio>
								<audio>
									<samplecharacteristics>
										<depth>16</depth>
										<samplerate>48000</samplerate>
									</samplecharacteristics>
									<channelcount>1</channelcount>
									<audiochannel>
										<sourcechannel>4</sourcechannel>
									</audiochannel>
								</audio>
								<audio>
									<samplecharacteristics>
										<depth>16</depth>
										<samplerate>48000</samplerate>
									</samplecharacteristics>
									<channelcount>1</channelcount>
									<audiochannel>
										<sourcechannel>5</sourcechannel>
									</audiochannel>
								</audio>
								<audio>
									<samplecharacteristics>
										<depth>16</depth>
										<samplerate>48000</samplerate>
									</samplecharacteristics>
									<channelcount>1</channelcount>
									<audiochannel>
										<sourcechannel>6</sourcechannel>
									</audiochannel>
								</audio>
								<audio>
									<samplecharacteristics>
										<depth>16</depth>
										<samplerate>48000</samplerate>
									</samplecharacteristics>
									<channelcount>1</channelcount>
									<audiochannel>
										<sourcechannel>7</sourcechannel>
									</audiochannel>
								</audio>
								<audio>
									<samplecharacteristics>
										<depth>16</depth>
										<samplerate>48000</samplerate>
									</samplecharacteristics>
									<channelcount>1</channelcount>
									<audiochannel>
										<sourcechannel>8</sourcechannel>
									</audiochannel>
								</audio>
							</media>
						</file>
							<filter>
								<effect>
									<name>Basic Motion</name>
									<effectid>basic</effectid>
									<effectcategory>motion</effectcategory>
									<effecttype>motion</effecttype>
									<mediatype>video</mediatype>
									<parameter authoringApp="PremierePro">
										<parameterid>scale</parameterid>
										<name>Scale</name>
										<valuemin>0</valuemin>
										<valuemax>1000</valuemax>
										<value>200</value>
									</parameter>
									<parameter authoringApp="PremierePro">
										<parameterid>rotation</parameterid>
										<name>Rotation</name>
										<valuemin>-8640</valuemin>
										<valuemax>8640</valuemax>
										<value>0</value>
									</parameter>
									<parameter authoringApp="PremierePro">
										<parameterid>center</parameterid>
										<name>Center</name>
										<value>
											<horiz>0.288021</horiz>
											<vert>0.438889</vert>
										</value>
									</parameter>
									<parameter authoringApp="PremierePro">
										<parameterid>centerOffset</parameterid>
										<name>Anchor Point</name>
										<value>
											<horiz>0</horiz>
											<vert>0</vert>
										</value>
									</parameter>
								</effect>
							</filter>
							<filter>
								<effect>
									<name>Crop</name>
									<effectid>crop</effectid>
									<effectcategory>motion</effectcategory>
									<effecttype>motion</effecttype>
									<mediatype>video</mediatype>
									<parameter authoringApp="PremierePro">
										<parameterid>left</parameterid>
										<name>left</name>
										<valuemin>0</valuemin>
										<valuemax>100</valuemax>
										<value>0</value>
									</parameter>
									<parameter authoringApp="PremierePro">
										<parameterid>right</parameterid>
										<name>right</name>
										<valuemin>0</valuemin>
										<valuemax>100</valuemax>
										<value>69</value>
									</parameter>
									<parameter authoringApp="PremierePro">
										<parameterid>top</parameterid>
										<name>top</name>
										<valuemin>0</valuemin>
										<valuemax>100</valuemax>
										<value>0</value>
									</parameter>
									<parameter authoringApp="PremierePro">
										<parameterid>bottom</parameterid>
										<name>bottom</name>
										<valuemin>0</valuemin>
										<valuemax>100</valuemax>
										<value>0</value>
									</parameter>
								</effect>
							</filter>
						<logginginfo>
							<description>Foredragssal , Abiels foredrag på slutten</description>
							<scene></scene>
							<shottake></shottake>
							<lognote>mIkkel/Aon mygg</lognote>
						</logginginfo>
						<labels>
							<label2>Iris</label2>
						</labels>
					</clipitem>
					<clipitem id="clipitem-12">
						<masterclipid>masterclip-7</masterclipid>
						<name>002_0456.mov</name>
						<enabled>TRUE</enabled>
						<duration>59717</duration>
						<rate>
							<timebase>25</timebase>
							<ntsc>FALSE</ntsc>
						</rate>
						<start>30415</start>
						<end>30492</end>
						<in>47008</in>
						<out>47085</out>
						<pproTicksIn>477631365120000</pproTicksIn>
						<pproTicksOut>478413734400000</pproTicksOut>
						<alphatype>none</alphatype>
						<file id="file-6"/>
							<filter>
								<effect>
									<name>Basic Motion</name>
									<effectid>basic</effectid>
									<effectcategory>motion</effectcategory>
									<effecttype>motion</effecttype>
									<mediatype>video</mediatype>
									<parameter authoringApp="PremierePro">
										<parameterid>scale</parameterid>
										<name>Scale</name>
										<valuemin>0</valuemin>
										<valuemax>1000</valuemax>
										<value>200</value>
									</parameter>
									<parameter authoringApp="PremierePro">
										<parameterid>rotation</parameterid>
										<name>Rotation</name>
										<valuemin>-8640</valuemin>
										<valuemax>8640</valuemax>
										<value>0</value>
									</parameter>
									<parameter authoringApp="PremierePro">
										<parameterid>center</parameterid>
										<name>Center</name>
										<value>
											<horiz>0.197917</horiz>
											<vert>0.438889</vert>
										</value>
									</parameter>
									<parameter authoringApp="PremierePro">
										<parameterid>centerOffset</parameterid>
										<name>Anchor Point</name>
										<value>
											<horiz>0</horiz>
											<vert>0</vert>
										</value>
									</parameter>
								</effect>
							</filter>
							<filter>
								<effect>
									<name>Crop</name>
									<effectid>crop</effectid>
									<effectcategory>motion</effectcategory>
									<effecttype>motion</effecttype>
									<mediatype>video</mediatype>
									<parameter authoringApp="PremierePro">
										<parameterid>left</parameterid>
										<name>left</name>
										<valuemin>0</valuemin>
										<valuemax>100</valuemax>
										<value>0</value>
									</parameter>
									<parameter authoringApp="PremierePro">
										<parameterid>right</parameterid>
										<name>right</name>
										<valuemin>0</valuemin>
										<valuemax>100</valuemax>
										<value>64</value>
									</parameter>
									<parameter authoringApp="PremierePro">
										<parameterid>top</parameterid>
										<name>top</name>
										<valuemin>0</valuemin>
										<valuemax>100</valuemax>
										<value>0</value>
									</parameter>
									<parameter authoringApp="PremierePro">
										<parameterid>bottom</parameterid>
										<name>bottom</name>
										<valuemin>0</valuemin>
										<valuemax>100</valuemax>
										<value>0</value>
									</parameter>
								</effect>
							</filter>
						<logginginfo>
							<description>Foredragssal , Abiels foredrag på slutten</description>
							<scene></scene>
							<shottake></shottake>
							<lognote>mIkkel/Aon mygg</lognote>
						</logginginfo>
						<labels>
							<label2>Iris</label2>
						</labels>
					</clipitem>
					<clipitem id="clipitem-13">
						<masterclipid>masterclip-7</masterclipid>
						<name>002_0456.mov</name>
						<enabled>TRUE</enabled>
						<duration>59717</duration>
						<rate>
							<timebase>25</timebase>
							<ntsc>FALSE</ntsc>
						</rate>
						<start>30492</start>
						<end>30540</end>
						<in>47198</in>
						<out>47246</out>
						<pproTicksIn>479561886720000</pproTicksIn>
						<pproTicksOut>480049597440000</pproTicksOut>
						<alphatype>none</alphatype>
						<file id="file-6"/>
							<filter>
								<effect>
									<name>Basic Motion</name>
									<effectid>basic</effectid>
									<effectcategory>motion</effectcategory>
									<effecttype>motion</effecttype>
									<mediatype>video</mediatype>
									<parameter authoringApp="PremierePro">
										<parameterid>scale</parameterid>
										<name>Scale</name>
										<valuemin>0</valuemin>
										<valuemax>1000</valuemax>
										<value>200</value>
									</parameter>
									<parameter authoringApp="PremierePro">
										<parameterid>rotation</parameterid>
										<name>Rotation</name>
										<valuemin>-8640</valuemin>
										<valuemax>8640</valuemax>
										<value>0</value>
									</parameter>
									<parameter authoringApp="PremierePro">
										<parameterid>center</parameterid>
										<name>Center</name>
										<value>
											<horiz>0.197917</horiz>
											<vert>0.438889</vert>
										</value>
									</parameter>
									<parameter authoringApp="PremierePro">
										<parameterid>centerOffset</parameterid>
										<name>Anchor Point</name>
										<value>
											<horiz>0</horiz>
											<vert>0</vert>
										</value>
									</parameter>
								</effect>
							</filter>
							<filter>
								<effect>
									<name>Crop</name>
									<effectid>crop</effectid>
									<effectcategory>motion</effectcategory>
									<effecttype>motion</effecttype>
									<mediatype>video</mediatype>
									<parameter authoringApp="PremierePro">
										<parameterid>left</parameterid>
										<name>left</name>
										<valuemin>0</valuemin>
										<valuemax>100</valuemax>
										<value>0</value>
									</parameter>
									<parameter authoringApp="PremierePro">
										<parameterid>right</parameterid>
										<name>right</name>
										<valuemin>0</valuemin>
										<valuemax>100</valuemax>
										<value>64</value>
									</parameter>
									<parameter authoringApp="PremierePro">
										<parameterid>top</parameterid>
										<name>top</name>
										<valuemin>0</valuemin>
										<valuemax>100</valuemax>
										<value>0</value>
									</parameter>
									<parameter authoringApp="PremierePro">
										<parameterid>bottom</parameterid>
										<name>bottom</name>
										<valuemin>0</valuemin>
										<valuemax>100</valuemax>
										<value>0</value>
									</parameter>
								</effect>
							</filter>
						<logginginfo>
							<description>Foredragssal , Abiels foredrag på slutten</description>
							<scene></scene>
							<shottake></shottake>
							<lognote>mIkkel/Aon mygg</lognote>
						</logginginfo>
						<labels>
							<label2>Iris</label2>
						</labels>
					</clipitem>
					<clipitem id="clipitem-14">
						<masterclipid>masterclip-7</masterclipid>
						<name>002_0456.mov</name>
						<enabled>TRUE</enabled>
						<duration>59717</duration>
						<rate>
							<timebase>25</timebase>
							<ntsc>FALSE</ntsc>
						</rate>
						<start>30727</start>
						<end>30864</end>
						<in>47512</in>
						<out>47649</out>
						<pproTicksIn>482752327680000</pproTicksIn>
						<pproTicksOut>484144335360000</pproTicksOut>
						<alphatype>none</alphatype>
						<file id="file-6"/>
							<filter>
								<effect>
									<name>Basic Motion</name>
									<effectid>basic</effectid>
									<effectcategory>motion</effectcategory>
									<effecttype>motion</effecttype>
									<mediatype>video</mediatype>
									<parameter authoringApp="PremierePro">
										<parameterid>scale</parameterid>
										<name>Scale</name>
										<valuemin>0</valuemin>
										<valuemax>1000</valuemax>
										<value>200</value>
									</parameter>
									<parameter authoringApp="PremierePro">
										<parameterid>rotation</parameterid>
										<name>Rotation</name>
										<valuemin>-8640</valuemin>
										<valuemax>8640</valuemax>
										<value>0</value>
									</parameter>
									<parameter authoringApp="PremierePro">
										<parameterid>center</parameterid>
										<name>Center</name>
										<value>
											<horiz>0.197917</horiz>
											<vert>0.438889</vert>
										</value>
									</parameter>
									<parameter authoringApp="PremierePro">
										<parameterid>centerOffset</parameterid>
										<name>Anchor Point</name>
										<value>
											<horiz>0</horiz>
											<vert>0</vert>
										</value>
									</parameter>
								</effect>
							</filter>
							<filter>
								<effect>
									<name>Crop</name>
									<effectid>crop</effectid>
									<effectcategory>motion</effectcategory>
									<effecttype>motion</effecttype>
									<mediatype>video</mediatype>
									<parameter authoringApp="PremierePro">
										<parameterid>left</parameterid>
										<name>left</name>
										<valuemin>0</valuemin>
										<valuemax>100</valuemax>
										<value>0</value>
									</parameter>
									<parameter authoringApp="PremierePro">
										<parameterid>right</parameterid>
										<name>right</name>
										<valuemin>0</valuemin>
										<valuemax>100</valuemax>
										<value>64</value>
									</parameter>
									<parameter authoringApp="PremierePro">
										<parameterid>top</parameterid>
										<name>top</name>
										<valuemin>0</valuemin>
										<valuemax>100</valuemax>
										<value>0</value>
									</parameter>
									<parameter authoringApp="PremierePro">
										<parameterid>bottom</parameterid>
										<name>bottom</name>
										<valuemin>0</valuemin>
										<valuemax>100</valuemax>
										<value>0</value>
									</parameter>
								</effect>
							</filter>
						<logginginfo>
							<description>Foredragssal , Abiels foredrag på slutten</description>
							<scene></scene>
							<shottake></shottake>
							<lognote>mIkkel/Aon mygg</lognote>
						</logginginfo>
						<labels>
							<label2>Iris</label2>
						</labels>
					</clipitem>
					<clipitem id="clipitem-15">
						<masterclipid>masterclip-7</masterclipid>
						<name>002_0456.mov</name>
						<enabled>TRUE</enabled>
						<duration>59717</duration>
						<rate>
							<timebase>25</timebase>
							<ntsc>FALSE</ntsc>
						</rate>
						<start>31316</start>
						<end>31384</end>
						<in>49114</in>
						<out>49182</out>
						<pproTicksIn>499029672960000</pproTicksIn>
						<pproTicksOut>499720596480000</pproTicksOut>
						<alphatype>none</alphatype>
						<file id="file-6"/>
							<filter>
								<effect>
									<name>Basic Motion</name>
									<effectid>basic</effectid>
									<effectcategory>motion</effectcategory>
									<effecttype>motion</effecttype>
									<mediatype>video</mediatype>
									<parameter authoringApp="PremierePro">
										<parameterid>scale</parameterid>
										<name>Scale</name>
										<valuemin>0</valuemin>
										<valuemax>1000</valuemax>
										<value>200</value>
									</parameter>
									<parameter authoringApp="PremierePro">
										<parameterid>rotation</parameterid>
										<name>Rotation</name>
										<valuemin>-8640</valuemin>
										<valuemax>8640</valuemax>
										<value>0</value>
									</parameter>
									<parameter authoringApp="PremierePro">
										<parameterid>center</parameterid>
										<name>Center</name>
										<value>
											<horiz>0.197917</horiz>
											<vert>0.438889</vert>
										</value>
									</parameter>
									<parameter authoringApp="PremierePro">
										<parameterid>centerOffset</parameterid>
										<name>Anchor Point</name>
										<value>
											<horiz>0</horiz>
											<vert>0</vert>
										</value>
									</parameter>
								</effect>
							</filter>
							<filter>
								<effect>
									<name>Crop</name>
									<effectid>crop</effectid>
									<effectcategory>motion</effectcategory>
									<effecttype>motion</effecttype>
									<mediatype>video</mediatype>
									<parameter authoringApp="PremierePro">
										<parameterid>left</parameterid>
										<name>left</name>
										<valuemin>0</valuemin>
										<valuemax>100</valuemax>
										<value>0</value>
									</parameter>
									<parameter authoringApp="PremierePro">
										<parameterid>right</parameterid>
										<name>right</name>
										<valuemin>0</valuemin>
										<valuemax>100</valuemax>
										<value>57</value>
									</parameter>
									<parameter authoringApp="PremierePro">
										<parameterid>top</parameterid>
										<name>top</name>
										<valuemin>0</valuemin>
										<valuemax>100</valuemax>
										<value>0</value>
									</parameter>
									<parameter authoringApp="PremierePro">
										<parameterid>bottom</parameterid>
										<name>bottom</name>
										<valuemin>0</valuemin>
										<valuemax>100</valuemax>
										<value>0</value>
									</parameter>
								</effect>
							</filter>
						<logginginfo>
							<description>Foredragssal , Abiels foredrag på slutten</description>
							<scene></scene>
							<shottake></shottake>
							<lognote>mIkkel/Aon mygg</lognote>
						</logginginfo>
						<labels>
							<label2>Iris</label2>
						</labels>
					</clipitem>
					<clipitem id="clipitem-16">
						<masterclipid>masterclip-8</masterclipid>
						<name>Manbir_1.mov</name>
						<enabled>TRUE</enabled>
						<duration>530</duration>
						<rate>
							<timebase>25</timebase>
							<ntsc>FALSE</ntsc>
						</rate>
						<start>31788</start>
						<end>31857</end>
						<in>23</in>
						<out>92</out>
						<pproTicksIn>233694720000</pproTicksIn>
						<pproTicksOut>934778880000</pproTicksOut>
						<alphatype>none</alphatype>
						<pixelaspectratio>square</pixelaspectratio>
						<anamorphic>FALSE</anamorphic>
						<file id="file-7">
							<name>Manbir_1.mov</name>
							<pathurl>file://localhost/Volumes/Bingen/Prosjekter/MYNT194016%20WHATS%20COOKING/Media/Episode%2006%20Lykke/VB-opptak/VB%20Foredrag/ProRes/Manbir_1.mov</pathurl>
							<rate>
								<timebase>25</timebase>
								<ntsc>FALSE</ntsc>
							</rate>
							<duration>530</duration>
							<timecode>
								<rate>
									<timebase>25</timebase>
									<ntsc>FALSE</ntsc>
								</rate>
								<string>00:00:00:00</string>
								<frame>0</frame>
								<displayformat>NDF</displayformat>
								<reel>
									<name></name>
								</reel>
							</timecode>
							<media>
								<video>
									<samplecharacteristics>
										<rate>
											<timebase>25</timebase>
											<ntsc>FALSE</ntsc>
										</rate>
										<width>1920</width>
										<height>1080</height>
										<anamorphic>FALSE</anamorphic>
										<pixelaspectratio>square</pixelaspectratio>
										<fielddominance>none</fielddominance>
									</samplecharacteristics>
								</video>
								<audio>
									<samplecharacteristics>
										<depth>16</depth>
										<samplerate>48000</samplerate>
									</samplecharacteristics>
									<channelcount>2</channelcount>
								</audio>
							</media>
						</file>
							<filter>
								<effect>
									<name>Basic Motion</name>
									<effectid>basic</effectid>
									<effectcategory>motion</effectcategory>
									<effecttype>motion</effecttype>
									<mediatype>video</mediatype>
									<parameter authoringApp="PremierePro">
										<parameterid>scale</parameterid>
										<name>Scale</name>
										<valuemin>0</valuemin>
										<valuemax>1000</valuemax>
										<value>130</value>
									</parameter>
									<parameter authoringApp="PremierePro">
										<parameterid>rotation</parameterid>
										<name>Rotation</name>
										<valuemin>-8640</valuemin>
										<valuemax>8640</valuemax>
										<value>0</value>
									</parameter>
									<parameter authoringApp="PremierePro">
										<parameterid>center</parameterid>
										<name>Center</name>
										<value>
											<horiz>0</horiz>
											<vert>0</vert>
										</value>
									</parameter>
									<parameter authoringApp="PremierePro">
										<parameterid>centerOffset</parameterid>
										<name>Anchor Point</name>
										<value>
											<horiz>0</horiz>
											<vert>0</vert>
										</value>
									</parameter>
								</effect>
							</filter>
							<filter>
								<effect>
									<name>Crop</name>
									<effectid>crop</effectid>
									<effectcategory>motion</effectcategory>
									<effecttype>motion</effecttype>
									<mediatype>video</mediatype>
									<parameter authoringApp="PremierePro">
										<parameterid>left</parameterid>
										<name>left</name>
										<valuemin>0</valuemin>
										<valuemax>100</valuemax>
										<value>34.5</value>
									</parameter>
									<parameter authoringApp="PremierePro">
										<parameterid>right</parameterid>
										<name>right</name>
										<valuemin>0</valuemin>
										<valuemax>100</valuemax>
										<value>34.5</value>
									</parameter>
									<parameter authoringApp="PremierePro">
										<parameterid>top</parameterid>
										<name>top</name>
										<valuemin>0</valuemin>
										<valuemax>100</valuemax>
										<value>0</value>
									</parameter>
									<parameter authoringApp="PremierePro">
										<parameterid>bottom</parameterid>
										<name>bottom</name>
										<valuemin>0</valuemin>
										<valuemax>100</valuemax>
										<value>0</value>
									</parameter>
								</effect>
							</filter>
						<logginginfo>
							<description></description>
							<scene></scene>
							<shottake></shottake>
							<lognote></lognote>
						</logginginfo>
						<labels>
							<label2>Iris</label2>
						</labels>
					</clipitem>
					<clipitem id="clipitem-17">
						<masterclipid>masterclip-7</masterclipid>
						<name>002_0456.mov</name>
						<enabled>TRUE</enabled>
						<duration>59717</duration>
						<rate>
							<timebase>25</timebase>
							<ntsc>FALSE</ntsc>
						</rate>
						<start>31923</start>
						<end>31991</end>
						<in>54802</in>
						<out>54870</out>
						<pproTicksIn>556823393280000</pproTicksIn>
						<pproTicksOut>557514316800000</pproTicksOut>
						<alphatype>none</alphatype>
						<file id="file-6"/>
							<filter>
								<effect>
									<name>Basic Motion</name>
									<effectid>basic</effectid>
									<effectcategory>motion</effectcategory>
									<effecttype>motion</effecttype>
									<mediatype>video</mediatype>
									<parameter authoringApp="PremierePro">
										<parameterid>scale</parameterid>
										<name>Scale</name>
										<valuemin>0</valuemin>
										<valuemax>1000</valuemax>
										<value>200</value>
									</parameter>
									<parameter authoringApp="PremierePro">
										<parameterid>rotation</parameterid>
										<name>Rotation</name>
										<valuemin>-8640</valuemin>
										<valuemax>8640</valuemax>
										<value>0</value>
									</parameter>
									<parameter authoringApp="PremierePro">
										<parameterid>center</parameterid>
										<name>Center</name>
										<value>
											<horiz>0.157812</horiz>
											<vert>0.410185</vert>
										</value>
									</parameter>
									<parameter authoringApp="PremierePro">
										<parameterid>centerOffset</parameterid>
										<name>Anchor Point</name>
										<value>
											<horiz>0</horiz>
											<vert>0</vert>
										</value>
									</parameter>
								</effect>
							</filter>
							<filter>
								<effect>
									<name>Crop</name>
									<effectid>crop</effectid>
									<effectcategory>motion</effectcategory>
									<effecttype>motion</effecttype>
									<mediatype>video</mediatype>
									<parameter authoringApp="PremierePro">
										<parameterid>left</parameterid>
										<name>left</name>
										<valuemin>0</valuemin>
										<valuemax>100</valuemax>
										<value>0</value>
									</parameter>
									<parameter authoringApp="PremierePro">
										<parameterid>right</parameterid>
										<name>right</name>
										<valuemin>0</valuemin>
										<valuemax>100</valuemax>
										<value>64</value>
									</parameter>
									<parameter authoringApp="PremierePro">
										<parameterid>top</parameterid>
										<name>top</name>
										<valuemin>0</valuemin>
										<valuemax>100</valuemax>
										<value>0</value>
									</parameter>
									<parameter authoringApp="PremierePro">
										<parameterid>bottom</parameterid>
										<name>bottom</name>
										<valuemin>0</valuemin>
										<valuemax>100</valuemax>
										<value>0</value>
									</parameter>
								</effect>
							</filter>
						<logginginfo>
							<description>Foredragssal , Abiels foredrag på slutten</description>
							<scene></scene>
							<shottake></shottake>
							<lognote>mIkkel/Aon mygg</lognote>
						</logginginfo>
						<labels>
							<label2>Iris</label2>
						</labels>
					</clipitem>
					<enabled>TRUE</enabled>
					<locked>FALSE</locked>
				</track>
				<track TL.SQTrackShy="0" TL.SQTrackExpandedHeight="35" TL.SQTrackExpanded="1" MZ.TrackTargeted="1">
					<clipitem id="clipitem-18">
						<masterclipid>masterclip-9</masterclipid>
						<name>strek</name>
						<enabled>TRUE</enabled>
						<duration>1080000</duration>
						<rate>
							<timebase>25</timebase>
							<ntsc>FALSE</ntsc>
						</rate>
						<start>30046</start>
						<end>30155</end>
						<in>90000</in>
						<out>90109</out>
						<pproTicksIn>914457600000000</pproTicksIn>
						<pproTicksOut>915565109760000</pproTicksOut>
						<alphatype>straight</alphatype>
						<pixelaspectratio>square</pixelaspectratio>
						<anamorphic>FALSE</anamorphic>
						<file id="file-8">
							<name>strek</name>
							<mediaSource>Slug</mediaSource>
							<rate>
								<timebase>30</timebase>
								<ntsc>TRUE</ntsc>
							</rate>
							<timecode>
								<rate>
									<timebase>30</timebase>
									<ntsc>TRUE</ntsc>
								</rate>
								<string>00;00;00;00</string>
								<frame>0</frame>
								<displayformat>DF</displayformat>
								<reel>
									<name></name>
								</reel>
							</timecode>
							<media>
								<video>
									<samplecharacteristics>
										<rate>
											<timebase>30</timebase>
											<ntsc>TRUE</ntsc>
										</rate>
										<width>1920</width>
										<height>1080</height>
										<anamorphic>FALSE</anamorphic>
										<pixelaspectratio>square</pixelaspectratio>
										<fielddominance>none</fielddominance>
									</samplecharacteristics>
								</video>
							</media>
						</file>
						<logginginfo>
							<description></description>
							<scene></scene>
							<shottake></shottake>
							<lognote></lognote>
						</logginginfo>
						<labels>
							<label2>Lavender</label2>
						</labels>
					</clipitem>
					<clipitem id="clipitem-19">
						<masterclipid>masterclip-9</masterclipid>
						<name>strek</name>
						<enabled>TRUE</enabled>
						<duration>1080000</duration>
						<rate>
							<timebase>25</timebase>
							<ntsc>FALSE</ntsc>
						</rate>
						<start>30415</start>
						<end>30540</end>
						<in>90043</in>
						<out>90168</out>
						<pproTicksIn>914894507520000</pproTicksIn>
						<pproTicksOut>916164587520000</pproTicksOut>
						<alphatype>straight</alphatype>
						<file id="file-8"/>
						<logginginfo>
							<description></description>
							<scene></scene>
							<shottake></shottake>
							<lognote></lognote>
						</logginginfo>
						<labels>
							<label2>Lavender</label2>
						</labels>
					</clipitem>
					<clipitem id="clipitem-20">
						<masterclipid>masterclip-9</masterclipid>
						<name>strek</name>
						<enabled>TRUE</enabled>
						<duration>1080000</duration>
						<rate>
							<timebase>25</timebase>
							<ntsc>FALSE</ntsc>
						</rate>
						<start>30727</start>
						<end>30864</end>
						<in>90355</in>
						<out>90492</out>
						<pproTicksIn>918064627200000</pproTicksIn>
						<pproTicksOut>919456634880000</pproTicksOut>
						<alphatype>straight</alphatype>
						<file id="file-8"/>
						<logginginfo>
							<description></description>
							<scene></scene>
							<shottake></shottake>
							<lognote></lognote>
						</logginginfo>
						<labels>
							<label2>Lavender</label2>
						</labels>
					</clipitem>
					<clipitem id="clipitem-21">
						<masterclipid>masterclip-10</masterclipid>
						<name>strek Copy 01</name>
						<enabled>TRUE</enabled>
						<duration>1080000</duration>
						<rate>
							<timebase>25</timebase>
							<ntsc>FALSE</ntsc>
						</rate>
						<start>31316</start>
						<end>31384</end>
						<in>89992</in>
						<out>90060</out>
						<pproTicksIn>914376314880000</pproTicksIn>
						<pproTicksOut>915067238400000</pproTicksOut>
						<alphatype>straight</alphatype>
						<pixelaspectratio>square</pixelaspectratio>
						<anamorphic>FALSE</anamorphic>
						<file id="file-9">
							<name>strek</name>
							<mediaSource>Slug</mediaSource>
							<rate>
								<timebase>30</timebase>
								<ntsc>TRUE</ntsc>
							</rate>
							<timecode>
								<rate>
									<timebase>30</timebase>
									<ntsc>TRUE</ntsc>
								</rate>
								<string>00;00;00;00</string>
								<frame>0</frame>
								<displayformat>DF</displayformat>
								<reel>
									<name></name>
								</reel>
							</timecode>
							<media>
								<video>
									<samplecharacteristics>
										<rate>
											<timebase>30</timebase>
											<ntsc>TRUE</ntsc>
										</rate>
										<width>1920</width>
										<height>1080</height>
										<anamorphic>FALSE</anamorphic>
										<pixelaspectratio>square</pixelaspectratio>
										<fielddominance>none</fielddominance>
									</samplecharacteristics>
								</video>
							</media>
						</file>
						<logginginfo>
							<description></description>
							<scene></scene>
							<shottake></shottake>
							<lognote></lognote>
						</logginginfo>
						<labels>
							<label2>Lavender</label2>
						</labels>
					</clipitem>
					<clipitem id="clipitem-22">
						<masterclipid>masterclip-11</masterclipid>
						<name>strek Copy 02</name>
						<enabled>TRUE</enabled>
						<duration>1080000</duration>
						<rate>
							<timebase>25</timebase>
							<ntsc>FALSE</ntsc>
						</rate>
						<start>31923</start>
						<end>31991</end>
						<in>90000</in>
						<out>90068</out>
						<pproTicksIn>914457600000000</pproTicksIn>
						<pproTicksOut>915148523520000</pproTicksOut>
						<alphatype>straight</alphatype>
						<pixelaspectratio>square</pixelaspectratio>
						<anamorphic>FALSE</anamorphic>
						<file id="file-10">
							<name>strek</name>
							<mediaSource>Slug</mediaSource>
							<rate>
								<timebase>30</timebase>
								<ntsc>TRUE</ntsc>
							</rate>
							<timecode>
								<rate>
									<timebase>30</timebase>
									<ntsc>TRUE</ntsc>
								</rate>
								<string>00;00;00;00</string>
								<frame>0</frame>
								<displayformat>DF</displayformat>
								<reel>
									<name></name>
								</reel>
							</timecode>
							<media>
								<video>
									<samplecharacteristics>
										<rate>
											<timebase>30</timebase>
											<ntsc>TRUE</ntsc>
										</rate>
										<width>1920</width>
										<height>1080</height>
										<anamorphic>FALSE</anamorphic>
										<pixelaspectratio>square</pixelaspectratio>
										<fielddominance>none</fielddominance>
									</samplecharacteristics>
								</video>
							</media>
						</file>
						<logginginfo>
							<description></description>
							<scene></scene>
							<shottake></shottake>
							<lognote></lognote>
						</logginginfo>
						<labels>
							<label2>Lavender</label2>
						</labels>
					</clipitem>
					<clipitem id="clipitem-23">
						<masterclipid>masterclip-12</masterclipid>
						<name>NRK_sluttplakat_2016.mov</name>
						<enabled>TRUE</enabled>
						<duration>125</duration>
						<rate>
							<timebase>25</timebase>
							<ntsc>FALSE</ntsc>
						</rate>
						<start>35120</start>
						<end>35245</end>
						<in>0</in>
						<out>125</out>
						<pproTicksIn>0</pproTicksIn>
						<pproTicksOut>1270080000000</pproTicksOut>
						<alphatype>none</alphatype>
						<pixelaspectratio>square</pixelaspectratio>
						<anamorphic>FALSE</anamorphic>
						<file id="file-11">
							<name>NRK_sluttplakat_2016.mov</name>
							<pathurl>file://localhost/Volumes/Bingen/Prosjekter/MYNT194016%20WHATS%20COOKING/Grafikk/nrk%20logo/NRK_sluttplakat_2016.mov</pathurl>
							<rate>
								<timebase>25</timebase>
								<ntsc>FALSE</ntsc>
							</rate>
							<duration>125</duration>
							<timecode>
								<rate>
									<timebase>25</timebase>
									<ntsc>FALSE</ntsc>
								</rate>
								<string>00:00:00:00</string>
								<frame>0</frame>
								<displayformat>NDF</displayformat>
								<reel>
									<name></name>
								</reel>
							</timecode>
							<media>
								<video>
									<samplecharacteristics>
										<rate>
											<timebase>25</timebase>
											<ntsc>FALSE</ntsc>
										</rate>
										<width>1920</width>
										<height>1080</height>
										<anamorphic>FALSE</anamorphic>
										<pixelaspectratio>square</pixelaspectratio>
										<fielddominance>none</fielddominance>
									</samplecharacteristics>
								</video>
							</media>
						</file>
						<logginginfo>
							<description></description>
							<scene></scene>
							<shottake></shottake>
							<lognote></lognote>
						</logginginfo>
						<labels>
							<label2>Violet</label2>
						</labels>
					</clipitem>
					<enabled>TRUE</enabled>
					<locked>FALSE</locked>
				</track>
				<track TL.SQTrackShy="0" TL.SQTrackExpandedHeight="25" TL.SQTrackExpanded="1" MZ.TrackTargeted="1">
					<enabled>TRUE</enabled>
					<locked>FALSE</locked>
				</track>
				<track TL.SQTrackShy="0" TL.SQTrackExpandedHeight="35" TL.SQTrackExpanded="1" MZ.TrackTargeted="1">
					<clipitem id="clipitem-24">
						<masterclipid>masterclip-13</masterclipid>
						<name>Adjustment Layer</name>
						<enabled>TRUE</enabled>
						<duration>1080000</duration>
						<rate>
							<timebase>25</timebase>
							<ntsc>FALSE</ntsc>
						</rate>
						<start>0</start>
						<end>125</end>
						<in>90000</in>
						<out>90125</out>
						<pproTicksIn>914457600000000</pproTicksIn>
						<pproTicksOut>915727680000000</pproTicksOut>
						<alphatype>none</alphatype>
						<pixelaspectratio>square</pixelaspectratio>
						<anamorphic>FALSE</anamorphic>
						<file id="file-12">
							<name>Black Video</name>
							<mediaSource>Slug</mediaSource>
							<rate>
								<timebase>30</timebase>
								<ntsc>TRUE</ntsc>
							</rate>
							<timecode>
								<rate>
									<timebase>30</timebase>
									<ntsc>TRUE</ntsc>
								</rate>
								<string>00;00;00;00</string>
								<frame>0</frame>
								<displayformat>DF</displayformat>
								<reel>
									<name></name>
								</reel>
							</timecode>
							<media>
								<video>
									<samplecharacteristics>
										<rate>
											<timebase>30</timebase>
											<ntsc>TRUE</ntsc>
										</rate>
										<width>1920</width>
										<height>1080</height>
										<anamorphic>FALSE</anamorphic>
										<pixelaspectratio>square</pixelaspectratio>
										<fielddominance>none</fielddominance>
									</samplecharacteristics>
								</video>
							</media>
						</file>
						<logginginfo>
							<description></description>
							<scene></scene>
							<shottake></shottake>
							<lognote></lognote>
						</logginginfo>
						<labels>
							<label2>Lavender</label2>
						</labels>
					</clipitem>
					<clipitem id="clipitem-25">
						<masterclipid>masterclip-14</masterclipid>
						<name>BroShowLykke_Logo_Intro_Graphic_02.mov</name>
						<enabled>TRUE</enabled>
						<duration>111</duration>
						<rate>
							<timebase>25</timebase>
							<ntsc>FALSE</ntsc>
						</rate>
						<start>229</start>
						<end>340</end>
						<in>0</in>
						<out>111</out>
						<pproTicksIn>0</pproTicksIn>
						<pproTicksOut>1127831040000</pproTicksOut>
						<alphatype>none</alphatype>
						<pixelaspectratio>square</pixelaspectratio>
						<anamorphic>FALSE</anamorphic>
						<file id="file-13">
							<name>BroShowLykke_Logo_Intro_Graphic_02.mov</name>
							<pathurl>file://localhost/Volumes/Bingen/Prosjekter/MYNT194016%20WHATS%20COOKING/Grafikk/Renders/Logo_Intro_01/BroShowLykke_Logo_Intro_Graphic_02.mov</pathurl>
							<rate>
								<timebase>25</timebase>
								<ntsc>FALSE</ntsc>
							</rate>
							<duration>111</duration>
							<timecode>
								<rate>
									<timebase>25</timebase>
									<ntsc>FALSE</ntsc>
								</rate>
								<string>00:00:09:04</string>
								<frame>229</frame>
								<displayformat>NDF</displayformat>
								<reel>
									<name></name>
								</reel>
							</timecode>
							<media>
								<video>
									<samplecharacteristics>
										<rate>
											<timebase>25</timebase>
											<ntsc>FALSE</ntsc>
										</rate>
										<width>1920</width>
										<height>1080</height>
										<anamorphic>FALSE</anamorphic>
										<pixelaspectratio>square</pixelaspectratio>
										<fielddominance>none</fielddominance>
									</samplecharacteristics>
								</video>
							</media>
						</file>
							<filter>
								<effect>
									<name>Opacity</name>
									<effectid>opacity</effectid>
									<effectcategory>motion</effectcategory>
									<effecttype>motion</effecttype>
									<mediatype>video</mediatype>
									<parameter authoringApp="PremierePro">
										<parameterid>opacity</parameterid>
										<name>opacity</name>
										<valuemin>0</valuemin>
										<valuemax>100</valuemax>
										<value>50</value>
									</parameter>
								</effect>
							</filter>
						<logginginfo>
							<description></description>
							<scene></scene>
							<shottake></shottake>
							<lognote></lognote>
						</logginginfo>
						<labels>
							<label2>Violet</label2>
						</labels>
					</clipitem>
					<clipitem id="clipitem-26">
						<masterclipid>masterclip-15</masterclipid>
						<name>BroShow_BroCode_Supring_Abiel_02.mov</name>
						<enabled>TRUE</enabled>
						<duration>100</duration>
						<rate>
							<timebase>25</timebase>
							<ntsc>FALSE</ntsc>
						</rate>
						<start>344</start>
						<end>444</end>
						<in>0</in>
						<out>100</out>
						<pproTicksIn>0</pproTicksIn>
						<pproTicksOut>1016064000000</pproTicksOut>
						<alphatype>none</alphatype>
						<pixelaspectratio>square</pixelaspectratio>
						<anamorphic>FALSE</anamorphic>
						<file id="file-14">
							<name>BroShow_BroCode_Supring_Abiel_02.mov</name>
							<pathurl>file://localhost/Volumes/Bingen/Prosjekter/MYNT194016%20WHATS%20COOKING/Grafikk/Renders/Supringer_01/BroShow_BroCode_Supring_Abiel_02.mov</pathurl>
							<rate>
								<timebase>25</timebase>
								<ntsc>FALSE</ntsc>
							</rate>
							<duration>100</duration>
							<timecode>
								<rate>
									<timebase>25</timebase>
									<ntsc>FALSE</ntsc>
								</rate>
								<string>00:00:00:00</string>
								<frame>0</frame>
								<displayformat>NDF</displayformat>
								<reel>
									<name></name>
								</reel>
							</timecode>
							<media>
								<video>
									<samplecharacteristics>
										<rate>
											<timebase>25</timebase>
											<ntsc>FALSE</ntsc>
										</rate>
										<width>1920</width>
										<height>1080</height>
										<anamorphic>FALSE</anamorphic>
										<pixelaspectratio>square</pixelaspectratio>
										<fielddominance>none</fielddominance>
									</samplecharacteristics>
								</video>
							</media>
						</file>
							<filter>
								<effect>
									<name>Opacity</name>
									<effectid>opacity</effectid>
									<effectcategory>motion</effectcategory>
									<effecttype>motion</effecttype>
									<mediatype>video</mediatype>
									<parameter authoringApp="PremierePro">
										<parameterid>opacity</parameterid>
										<name>opacity</name>
										<valuemin>0</valuemin>
										<valuemax>100</valuemax>
										<value>50</value>
									</parameter>
								</effect>
							</filter>
						<logginginfo>
							<description></description>
							<scene></scene>
							<shottake></shottake>
							<lognote></lognote>
						</logginginfo>
						<labels>
							<label2>Violet</label2>
						</labels>
					</clipitem>
					<clipitem id="clipitem-27">
						<masterclipid>masterclip-16</masterclipid>
						<name>BroShow_Fordommer_Supring_Mikkel_Aon_01.mov</name>
						<enabled>TRUE</enabled>
						<duration>86</duration>
						<rate>
							<timebase>25</timebase>
							<ntsc>FALSE</ntsc>
						</rate>
						<start>1539</start>
						<end>1625</end>
						<in>0</in>
						<out>86</out>
						<pproTicksIn>0</pproTicksIn>
						<pproTicksOut>873815040000</pproTicksOut>
						<alphatype>none</alphatype>
						<pixelaspectratio>square</pixelaspectratio>
						<anamorphic>FALSE</anamorphic>
						<file id="file-15">
							<name>BroShow_Fordommer_Supring_Mikkel_Aon_01.mov</name>
							<pathurl>file://localhost/Volumes/Bingen/Prosjekter/MYNT194016%20WHATS%20COOKING/Grafikk/Renders/Supringer_01/BroShow_Fordommer_Supring_Mikkel_Aon_01.mov</pathurl>
							<rate>
								<timebase>25</timebase>
								<ntsc>FALSE</ntsc>
							</rate>
							<duration>86</duration>
							<timecode>
								<rate>
									<timebase>25</timebase>
									<ntsc>FALSE</ntsc>
								</rate>
								<string>00:00:12:19</string>
								<frame>319</frame>
								<displayformat>NDF</displayformat>
								<reel>
									<name></name>
								</reel>
							</timecode>
							<media>
								<video>
									<samplecharacteristics>
										<rate>
											<timebase>25</timebase>
											<ntsc>FALSE</ntsc>
										</rate>
										<width>1920</width>
										<height>1080</height>
										<anamorphic>FALSE</anamorphic>
										<pixelaspectratio>square</pixelaspectratio>
										<fielddominance>none</fielddominance>
									</samplecharacteristics>
								</video>
							</media>
						</file>
							<filter>
								<effect>
									<name>Crop</name>
									<effectid>crop</effectid>
									<effectcategory>motion</effectcategory>
									<effecttype>motion</effecttype>
									<mediatype>video</mediatype>
									<parameter authoringApp="PremierePro">
										<parameterid>left</parameterid>
										<name>left</name>
										<valuemin>0</valuemin>
										<valuemax>100</valuemax>
										<value>43</value>
									</parameter>
									<parameter authoringApp="PremierePro">
										<parameterid>right</parameterid>
										<name>right</name>
										<valuemin>0</valuemin>
										<valuemax>100</valuemax>
										<value>32</value>
									</parameter>
									<parameter authoringApp="PremierePro">
										<parameterid>top</parameterid>
										<name>top</name>
										<valuemin>0</valuemin>
										<valuemax>100</valuemax>
										<value>0</value>
									</parameter>
									<parameter authoringApp="PremierePro">
										<parameterid>bottom</parameterid>
										<name>bottom</name>
										<valuemin>0</valuemin>
										<valuemax>100</valuemax>
										<value>0</value>
									</parameter>
								</effect>
							</filter>
							<filter>
								<effect>
									<name>Opacity</name>
									<effectid>opacity</effectid>
									<effectcategory>motion</effectcategory>
									<effecttype>motion</effecttype>
									<mediatype>video</mediatype>
									<parameter authoringApp="PremierePro">
										<parameterid>opacity</parameterid>
										<name>opacity</name>
										<valuemin>0</valuemin>
										<valuemax>100</valuemax>
										<value>50</value>
									</parameter>
								</effect>
							</filter>
						<logginginfo>
							<description></description>
							<scene></scene>
							<shottake></shottake>
							<lognote></lognote>
						</logginginfo>
						<labels>
							<label2>Violet</label2>
						</labels>
					</clipitem>
					<clipitem id="clipitem-28">
						<masterclipid>masterclip-16</masterclipid>
						<name>BroShow_Fordommer_Supring_Mikkel_Aon_01.mov</name>
						<enabled>TRUE</enabled>
						<duration>86</duration>
						<rate>
							<timebase>25</timebase>
							<ntsc>FALSE</ntsc>
						</rate>
						<start>1670</start>
						<end>1756</end>
						<in>0</in>
						<out>86</out>
						<pproTicksIn>0</pproTicksIn>
						<pproTicksOut>873815040000</pproTicksOut>
						<alphatype>none</alphatype>
						<file id="file-15"/>
							<filter>
								<effect>
									<name>Crop</name>
									<effectid>crop</effectid>
									<effectcategory>motion</effectcategory>
									<effecttype>motion</effecttype>
									<mediatype>video</mediatype>
									<parameter authoringApp="PremierePro">
										<parameterid>left</parameterid>
										<name>left</name>
										<valuemin>0</valuemin>
										<valuemax>100</valuemax>
										<value>0</value>
									</parameter>
									<parameter authoringApp="PremierePro">
										<parameterid>right</parameterid>
										<name>right</name>
										<valuemin>0</valuemin>
										<valuemax>100</valuemax>
										<value>60</value>
									</parameter>
									<parameter authoringApp="PremierePro">
										<parameterid>top</parameterid>
										<name>top</name>
										<valuemin>0</valuemin>
										<valuemax>100</valuemax>
										<value>0</value>
									</parameter>
									<parameter authoringApp="PremierePro">
										<parameterid>bottom</parameterid>
										<name>bottom</name>
										<valuemin>0</valuemin>
										<valuemax>100</valuemax>
										<value>0</value>
									</parameter>
								</effect>
							</filter>
							<filter>
								<effect>
									<name>Opacity</name>
									<effectid>opacity</effectid>
									<effectcategory>motion</effectcategory>
									<effecttype>motion</effecttype>
									<mediatype>video</mediatype>
									<parameter authoringApp="PremierePro">
										<parameterid>opacity</parameterid>
										<name>opacity</name>
										<valuemin>0</valuemin>
										<valuemax>100</valuemax>
										<value>50</value>
									</parameter>
								</effect>
							</filter>
						<logginginfo>
							<description></description>
							<scene></scene>
							<shottake></shottake>
							<lognote></lognote>
						</logginginfo>
						<labels>
							<label2>Violet</label2>
						</labels>
					</clipitem>
					<clipitem id="clipitem-29">
						<masterclipid>masterclip-17</masterclipid>
						<name>BroShow_Lykke_Dansk_Mikkel_Klokke_01.mov</name>
						<enabled>TRUE</enabled>
						<duration>6125</duration>
						<rate>
							<timebase>25</timebase>
							<ntsc>FALSE</ntsc>
						</rate>
						<start>5274</start>
						<end>5969</end>
						<in>0</in>
						<out>695</out>
						<pproTicksIn>0</pproTicksIn>
						<pproTicksOut>7061644800000</pproTicksOut>
						<alphatype>none</alphatype>
						<pixelaspectratio>square</pixelaspectratio>
						<anamorphic>FALSE</anamorphic>
						<file id="file-16">
							<name>BroShow_Lykke_Dansk_Mikkel_Klokke_01.mov</name>
							<pathurl>file://localhost/Volumes/Bingen/Prosjekter/MYNT194016%20WHATS%20COOKING/Grafikk/Renders/Lykke_Dansk_Mikkel_Klokke_01/BroShow_Lykke_Dansk_Mikkel_Klokke_01.mov</pathurl>
							<rate>
								<timebase>25</timebase>
								<ntsc>FALSE</ntsc>
							</rate>
							<duration>6125</duration>
							<timecode>
								<rate>
									<timebase>25</timebase>
									<ntsc>FALSE</ntsc>
								</rate>
								<string>00:00:00:00</string>
								<frame>0</frame>
								<displayformat>NDF</displayformat>
								<reel>
									<name></name>
								</reel>
							</timecode>
							<media>
								<video>
									<samplecharacteristics>
										<rate>
											<timebase>25</timebase>
											<ntsc>FALSE</ntsc>
										</rate>
										<width>1920</width>
										<height>1080</height>
										<anamorphic>FALSE</anamorphic>
										<pixelaspectratio>square</pixelaspectratio>
										<fielddominance>none</fielddominance>
									</samplecharacteristics>
								</video>
							</media>
						</file>
							<filter>
								<effect>
									<name>Opacity</name>
									<effectid>opacity</effectid>
									<effectcategory>motion</effectcategory>
									<effecttype>motion</effecttype>
									<mediatype>video</mediatype>
									<parameter authoringApp="PremierePro">
										<parameterid>opacity</parameterid>
										<name>opacity</name>
										<valuemin>0</valuemin>
										<valuemax>100</valuemax>
										<value>50</value>
									</parameter>
								</effect>
							</filter>
						<logginginfo>
							<description></description>
							<scene></scene>
							<shottake></shottake>
							<lognote></lognote>
						</logginginfo>
						<labels>
							<label2>Violet</label2>
						</labels>
					</clipitem>
					<clipitem id="clipitem-30">
						<masterclipid>masterclip-17</masterclipid>
						<name>BroShow_Lykke_Dansk_Mikkel_Klokke_01.mov</name>
						<enabled>TRUE</enabled>
						<duration>6125</duration>
						<rate>
							<timebase>25</timebase>
							<ntsc>FALSE</ntsc>
						</rate>
						<start>5969</start>
						<end>6220</end>
						<in>699</in>
						<out>950</out>
						<pproTicksIn>7102287360000</pproTicksIn>
						<pproTicksOut>9652608000000</pproTicksOut>
						<alphatype>none</alphatype>
						<file id="file-16"/>
							<filter>
								<effect>
									<name>Opacity</name>
									<effectid>opacity</effectid>
									<effectcategory>motion</effectcategory>
									<effecttype>motion</effecttype>
									<mediatype>video</mediatype>
									<parameter authoringApp="PremierePro">
										<parameterid>opacity</parameterid>
										<name>opacity</name>
										<valuemin>0</valuemin>
										<valuemax>100</valuemax>
										<value>50</value>
									</parameter>
								</effect>
							</filter>
						<logginginfo>
							<description></description>
							<scene></scene>
							<shottake></shottake>
							<lognote></lognote>
						</logginginfo>
						<labels>
							<label2>Violet</label2>
						</labels>
					</clipitem>
					<clipitem id="clipitem-31">
						<masterclipid>masterclip-17</masterclipid>
						<name>BroShow_Lykke_Dansk_Mikkel_Klokke_01.mov</name>
						<enabled>TRUE</enabled>
						<duration>6125</duration>
						<rate>
							<timebase>25</timebase>
							<ntsc>FALSE</ntsc>
						</rate>
						<start>6415</start>
						<end>6516</end>
						<in>950</in>
						<out>1051</out>
						<pproTicksIn>9652608000000</pproTicksIn>
						<pproTicksOut>10678832640000</pproTicksOut>
						<alphatype>none</alphatype>
						<file id="file-16"/>
							<filter>
								<effect>
									<name>Opacity</name>
									<effectid>opacity</effectid>
									<effectcategory>motion</effectcategory>
									<effecttype>motion</effecttype>
									<mediatype>video</mediatype>
									<parameter authoringApp="PremierePro">
										<parameterid>opacity</parameterid>
										<name>opacity</name>
										<valuemin>0</valuemin>
										<valuemax>100</valuemax>
										<value>50</value>
									</parameter>
								</effect>
							</filter>
						<logginginfo>
							<description></description>
							<scene></scene>
							<shottake></shottake>
							<lognote></lognote>
						</logginginfo>
						<labels>
							<label2>Violet</label2>
						</labels>
					</clipitem>
					<clipitem id="clipitem-32">
						<masterclipid>masterclip-17</masterclipid>
						<name>BroShow_Lykke_Dansk_Mikkel_Klokke_01.mov</name>
						<enabled>TRUE</enabled>
						<duration>6125</duration>
						<rate>
							<timebase>25</timebase>
							<ntsc>FALSE</ntsc>
						</rate>
						<start>6516</start>
						<end>6587</end>
						<in>1246</in>
						<out>1317</out>
						<pproTicksIn>12660157440000</pproTicksIn>
						<pproTicksOut>13381562880000</pproTicksOut>
						<alphatype>none</alphatype>
						<file id="file-16"/>
							<filter>
								<effect>
									<name>Opacity</name>
									<effectid>opacity</effectid>
									<effectcategory>motion</effectcategory>
									<effecttype>motion</effecttype>
									<mediatype>video</mediatype>
									<parameter authoringApp="PremierePro">
										<parameterid>opacity</parameterid>
										<name>opacity</name>
										<valuemin>0</valuemin>
										<valuemax>100</valuemax>
										<value>50</value>
									</parameter>
								</effect>
							</filter>
						<logginginfo>
							<description></description>
							<scene></scene>
							<shottake></shottake>
							<lognote></lognote>
						</logginginfo>
						<labels>
							<label2>Violet</label2>
						</labels>
					</clipitem>
					<clipitem id="clipitem-33">
						<masterclipid>masterclip-17</masterclipid>
						<name>BroShow_Lykke_Dansk_Mikkel_Klokke_01.mov</name>
						<enabled>TRUE</enabled>
						<duration>6125</duration>
						<rate>
							<timebase>25</timebase>
							<ntsc>FALSE</ntsc>
						</rate>
						<start>6587</start>
						<end>7371</end>
						<in>1387</in>
						<out>2171</out>
						<pproTicksIn>14092807680000</pproTicksIn>
						<pproTicksOut>22058749440000</pproTicksOut>
						<alphatype>none</alphatype>
						<file id="file-16"/>
							<filter>
								<effect>
									<name>Opacity</name>
									<effectid>opacity</effectid>
									<effectcategory>motion</effectcategory>
									<effecttype>motion</effecttype>
									<mediatype>video</mediatype>
									<parameter authoringApp="PremierePro">
										<parameterid>opacity</parameterid>
										<name>opacity</name>
										<valuemin>0</valuemin>
										<valuemax>100</valuemax>
										<value>50</value>
									</parameter>
								</effect>
							</filter>
						<logginginfo>
							<description></description>
							<scene></scene>
							<shottake></shottake>
							<lognote></lognote>
						</logginginfo>
						<labels>
							<label2>Violet</label2>
						</labels>
					</clipitem>
					<clipitem id="clipitem-34">
						<masterclipid>masterclip-17</masterclipid>
						<name>BroShow_Lykke_Dansk_Mikkel_Klokke_01.mov</name>
						<enabled>TRUE</enabled>
						<duration>6125</duration>
						<rate>
							<timebase>25</timebase>
							<ntsc>FALSE</ntsc>
						</rate>
						<start>7441</start>
						<end>7539</end>
						<in>3643</in>
						<out>3741</out>
						<pproTicksIn>37015211520000</pproTicksIn>
						<pproTicksOut>38010954240000</pproTicksOut>
						<alphatype>none</alphatype>
						<file id="file-16"/>
							<filter>
								<effect>
									<name>Opacity</name>
									<effectid>opacity</effectid>
									<effectcategory>motion</effectcategory>
									<effecttype>motion</effecttype>
									<mediatype>video</mediatype>
									<parameter authoringApp="PremierePro">
										<parameterid>opacity</parameterid>
										<name>opacity</name>
										<valuemin>0</valuemin>
										<valuemax>100</valuemax>
										<value>50</value>
									</parameter>
								</effect>
							</filter>
						<logginginfo>
							<description></description>
							<scene></scene>
							<shottake></shottake>
							<lognote></lognote>
						</logginginfo>
						<labels>
							<label2>Violet</label2>
						</labels>
					</clipitem>
					<clipitem id="clipitem-35">
						<masterclipid>masterclip-17</masterclipid>
						<name>BroShow_Lykke_Dansk_Mikkel_Klokke_01.mov</name>
						<enabled>TRUE</enabled>
						<duration>6125</duration>
						<rate>
							<timebase>25</timebase>
							<ntsc>FALSE</ntsc>
						</rate>
						<start>8919</start>
						<end>9028</end>
						<in>4050</in>
						<out>4159</out>
						<pproTicksIn>41150592000000</pproTicksIn>
						<pproTicksOut>42258101760000</pproTicksOut>
						<alphatype>none</alphatype>
						<file id="file-16"/>
							<filter>
								<effect>
									<name>Opacity</name>
									<effectid>opacity</effectid>
									<effectcategory>motion</effectcategory>
									<effecttype>motion</effecttype>
									<mediatype>video</mediatype>
									<parameter authoringApp="PremierePro">
										<parameterid>opacity</parameterid>
										<name>opacity</name>
										<valuemin>0</valuemin>
										<valuemax>100</valuemax>
										<value>50</value>
									</parameter>
								</effect>
							</filter>
						<logginginfo>
							<description></description>
							<scene></scene>
							<shottake></shottake>
							<lognote></lognote>
						</logginginfo>
						<labels>
							<label2>Violet</label2>
						</labels>
					</clipitem>
					<clipitem id="clipitem-36">
						<masterclipid>masterclip-17</masterclipid>
						<name>BroShow_Lykke_Dansk_Mikkel_Klokke_01.mov</name>
						<enabled>TRUE</enabled>
						<duration>6125</duration>
						<rate>
							<timebase>25</timebase>
							<ntsc>FALSE</ntsc>
						</rate>
						<start>10077</start>
						<end>10222</end>
						<in>5227</in>
						<out>5372</out>
						<pproTicksIn>53109665280000</pproTicksIn>
						<pproTicksOut>54582958080000</pproTicksOut>
						<alphatype>none</alphatype>
						<file id="file-16"/>
							<filter>
								<effect>
									<name>Opacity</name>
									<effectid>opacity</effectid>
									<effectcategory>motion</effectcategory>
									<effecttype>motion</effecttype>
									<mediatype>video</mediatype>
									<parameter authoringApp="PremierePro">
										<parameterid>opacity</parameterid>
										<name>opacity</name>
										<valuemin>0</valuemin>
										<valuemax>100</valuemax>
										<value>50</value>
									</parameter>
								</effect>
							</filter>
						<logginginfo>
							<description></description>
							<scene></scene>
							<shottake></shottake>
							<lognote></lognote>
						</logginginfo>
						<labels>
							<label2>Violet</label2>
						</labels>
					</clipitem>
					<clipitem id="clipitem-37">
						<masterclipid>masterclip-18</masterclipid>
						<name>Lykke_DusteMikkel_Penger_Gata_RENDER_READY_01.mov</name>
						<enabled>TRUE</enabled>
						<duration>4624</duration>
						<rate>
							<timebase>25</timebase>
							<ntsc>FALSE</ntsc>
						</rate>
						<start>14559</start>
						<end>15391</end>
						<in>0</in>
						<out>832</out>
						<pproTicksIn>0</pproTicksIn>
						<pproTicksOut>8453652480000</pproTicksOut>
						<alphatype>none</alphatype>
						<pixelaspectratio>square</pixelaspectratio>
						<anamorphic>FALSE</anamorphic>
						<file id="file-17">
							<name>Lykke_DusteMikkel_Penger_Gata_RENDER_READY_01.mov</name>
							<pathurl>file://localhost/Volumes/Bingen/Prosjekter/MYNT194016%20WHATS%20COOKING/Grafikk/Renders/RENDER_READYS_01/Lykke_DusteMikkel_Penger_Gata_RENDER_READY_01.mov</pathurl>
							<rate>
								<timebase>25</timebase>
								<ntsc>FALSE</ntsc>
							</rate>
							<duration>4624</duration>
							<timecode>
								<rate>
									<timebase>25</timebase>
									<ntsc>FALSE</ntsc>
								</rate>
								<string>00:07:30:23</string>
								<frame>11273</frame>
								<displayformat>NDF</displayformat>
								<reel>
									<name></name>
								</reel>
							</timecode>
							<media>
								<video>
									<samplecharacteristics>
										<rate>
											<timebase>25</timebase>
											<ntsc>FALSE</ntsc>
										</rate>
										<width>1920</width>
										<height>1080</height>
										<anamorphic>FALSE</anamorphic>
										<pixelaspectratio>square</pixelaspectratio>
										<fielddominance>none</fielddominance>
									</samplecharacteristics>
								</video>
							</media>
						</file>
							<filter>
								<effect>
									<name>Opacity</name>
									<effectid>opacity</effectid>
									<effectcategory>motion</effectcategory>
									<effecttype>motion</effecttype>
									<mediatype>video</mediatype>
									<parameter authoringApp="PremierePro">
										<parameterid>opacity</parameterid>
										<name>opacity</name>
										<valuemin>0</valuemin>
										<valuemax>100</valuemax>
										<value>50</value>
									</parameter>
								</effect>
							</filter>
						<logginginfo>
							<description></description>
							<scene></scene>
							<shottake></shottake>
							<lognote></lognote>
						</logginginfo>
						<labels>
							<label2>Violet</label2>
						</labels>
					</clipitem>
					<clipitem id="clipitem-38">
						<masterclipid>masterclip-18</masterclipid>
						<name>Lykke_DusteMikkel_Penger_Gata_RENDER_READY_01.mov</name>
						<enabled>TRUE</enabled>
						<duration>4624</duration>
						<rate>
							<timebase>25</timebase>
							<ntsc>FALSE</ntsc>
						</rate>
						<start>15423</start>
						<end>15458</end>
						<in>866</in>
						<out>901</out>
						<pproTicksIn>8799114240000</pproTicksIn>
						<pproTicksOut>9154736640000</pproTicksOut>
						<alphatype>none</alphatype>
						<file id="file-17"/>
							<filter>
								<effect>
									<name>Opacity</name>
									<effectid>opacity</effectid>
									<effectcategory>motion</effectcategory>
									<effecttype>motion</effecttype>
									<mediatype>video</mediatype>
									<parameter authoringApp="PremierePro">
										<parameterid>opacity</parameterid>
										<name>opacity</name>
										<valuemin>0</valuemin>
										<valuemax>100</valuemax>
										<value>50</value>
									</parameter>
								</effect>
							</filter>
						<logginginfo>
							<description></description>
							<scene></scene>
							<shottake></shottake>
							<lognote></lognote>
						</logginginfo>
						<labels>
							<label2>Violet</label2>
						</labels>
					</clipitem>
					<clipitem id="clipitem-39">
						<masterclipid>masterclip-18</masterclipid>
						<name>Lykke_DusteMikkel_Penger_Gata_RENDER_READY_01.mov</name>
						<enabled>TRUE</enabled>
						<duration>4624</duration>
						<rate>
							<timebase>25</timebase>
							<ntsc>FALSE</ntsc>
						</rate>
						<start>15522</start>
						<end>15785</end>
						<in>964</in>
						<out>1227</out>
						<pproTicksIn>9794856960000</pproTicksIn>
						<pproTicksOut>12467105280000</pproTicksOut>
						<alphatype>none</alphatype>
						<file id="file-17"/>
							<filter>
								<effect>
									<name>Opacity</name>
									<effectid>opacity</effectid>
									<effectcategory>motion</effectcategory>
									<effecttype>motion</effecttype>
									<mediatype>video</mediatype>
									<parameter authoringApp="PremierePro">
										<parameterid>opacity</parameterid>
										<name>opacity</name>
										<valuemin>0</valuemin>
										<valuemax>100</valuemax>
										<value>50</value>
									</parameter>
								</effect>
							</filter>
						<logginginfo>
							<description></description>
							<scene></scene>
							<shottake></shottake>
							<lognote></lognote>
						</logginginfo>
						<labels>
							<label2>Violet</label2>
						</labels>
					</clipitem>
					<clipitem id="clipitem-40">
						<masterclipid>masterclip-18</masterclipid>
						<name>Lykke_DusteMikkel_Penger_Gata_RENDER_READY_01.mov</name>
						<enabled>TRUE</enabled>
						<duration>4624</duration>
						<rate>
							<timebase>25</timebase>
							<ntsc>FALSE</ntsc>
						</rate>
						<start>15850</start>
						<end>16147</end>
						<in>1290</in>
						<out>1587</out>
						<pproTicksIn>13107225600000</pproTicksIn>
						<pproTicksOut>16124935680000</pproTicksOut>
						<alphatype>none</alphatype>
						<file id="file-17"/>
							<filter>
								<effect>
									<name>Opacity</name>
									<effectid>opacity</effectid>
									<effectcategory>motion</effectcategory>
									<effecttype>motion</effecttype>
									<mediatype>video</mediatype>
									<parameter authoringApp="PremierePro">
										<parameterid>opacity</parameterid>
										<name>opacity</name>
										<valuemin>0</valuemin>
										<valuemax>100</valuemax>
										<value>50</value>
									</parameter>
								</effect>
							</filter>
						<logginginfo>
							<description></description>
							<scene></scene>
							<shottake></shottake>
							<lognote></lognote>
						</logginginfo>
						<labels>
							<label2>Violet</label2>
						</labels>
					</clipitem>
					<clipitem id="clipitem-41">
						<masterclipid>masterclip-18</masterclipid>
						<name>Lykke_DusteMikkel_Penger_Gata_RENDER_READY_01.mov</name>
						<enabled>TRUE</enabled>
						<duration>4624</duration>
						<rate>
							<timebase>25</timebase>
							<ntsc>FALSE</ntsc>
						</rate>
						<start>16216</start>
						<end>16295</end>
						<in>1663</in>
						<out>1742</out>
						<pproTicksIn>16897144320000</pproTicksIn>
						<pproTicksOut>17699834880000</pproTicksOut>
						<alphatype>none</alphatype>
						<file id="file-17"/>
							<filter>
								<effect>
									<name>Opacity</name>
									<effectid>opacity</effectid>
									<effectcategory>motion</effectcategory>
									<effecttype>motion</effecttype>
									<mediatype>video</mediatype>
									<parameter authoringApp="PremierePro">
										<parameterid>opacity</parameterid>
										<name>opacity</name>
										<valuemin>0</valuemin>
										<valuemax>100</valuemax>
										<value>50</value>
									</parameter>
								</effect>
							</filter>
						<logginginfo>
							<description></description>
							<scene></scene>
							<shottake></shottake>
							<lognote></lognote>
						</logginginfo>
						<labels>
							<label2>Violet</label2>
						</labels>
					</clipitem>
					<clipitem id="clipitem-42">
						<masterclipid>masterclip-18</masterclipid>
						<name>Lykke_DusteMikkel_Penger_Gata_RENDER_READY_01.mov</name>
						<enabled>TRUE</enabled>
						<duration>4624</duration>
						<rate>
							<timebase>25</timebase>
							<ntsc>FALSE</ntsc>
						</rate>
						<start>16315</start>
						<end>18577</end>
						<in>1756</in>
						<out>4018</out>
						<pproTicksIn>17842083840000</pproTicksIn>
						<pproTicksOut>40825451520000</pproTicksOut>
						<alphatype>none</alphatype>
						<file id="file-17"/>
							<filter>
								<effect>
									<name>Opacity</name>
									<effectid>opacity</effectid>
									<effectcategory>motion</effectcategory>
									<effecttype>motion</effecttype>
									<mediatype>video</mediatype>
									<parameter authoringApp="PremierePro">
										<parameterid>opacity</parameterid>
										<name>opacity</name>
										<valuemin>0</valuemin>
										<valuemax>100</valuemax>
										<value>50</value>
									</parameter>
								</effect>
							</filter>
						<logginginfo>
							<description></description>
							<scene></scene>
							<shottake></shottake>
							<lognote></lognote>
						</logginginfo>
						<labels>
							<label2>Violet</label2>
						</labels>
					</clipitem>
					<clipitem id="clipitem-43">
						<masterclipid>masterclip-18</masterclipid>
						<name>Lykke_DusteMikkel_Penger_Gata_RENDER_READY_01.mov</name>
						<enabled>TRUE</enabled>
						<duration>4624</duration>
						<rate>
							<timebase>25</timebase>
							<ntsc>FALSE</ntsc>
						</rate>
						<start>18708</start>
						<end>19186</end>
						<in>4146</in>
						<out>4624</out>
						<pproTicksIn>42126013440000</pproTicksIn>
						<pproTicksOut>46982799360000</pproTicksOut>
						<alphatype>none</alphatype>
						<file id="file-17"/>
							<filter>
								<effect>
									<name>Opacity</name>
									<effectid>opacity</effectid>
									<effectcategory>motion</effectcategory>
									<effecttype>motion</effecttype>
									<mediatype>video</mediatype>
									<parameter authoringApp="PremierePro">
										<parameterid>opacity</parameterid>
										<name>opacity</name>
										<valuemin>0</valuemin>
										<valuemax>100</valuemax>
										<value>50</value>
									</parameter>
								</effect>
							</filter>
						<logginginfo>
							<description></description>
							<scene></scene>
							<shottake></shottake>
							<lognote></lognote>
						</logginginfo>
						<labels>
							<label2>Violet</label2>
						</labels>
					</clipitem>
					<clipitem id="clipitem-44">
						<masterclipid>masterclip-19</masterclipid>
						<name>BroShow_Lykke_Supring_Haakon_01.mov</name>
						<enabled>TRUE</enabled>
						<duration>58</duration>
						<rate>
							<timebase>25</timebase>
							<ntsc>FALSE</ntsc>
						</rate>
						<start>31603</start>
						<end>31661</end>
						<in>0</in>
						<out>58</out>
						<pproTicksIn>0</pproTicksIn>
						<pproTicksOut>589317120000</pproTicksOut>
						<alphatype>none</alphatype>
						<pixelaspectratio>square</pixelaspectratio>
						<anamorphic>FALSE</anamorphic>
						<file id="file-18">
							<name>BroShow_Lykke_Supring_Haakon_01.mov</name>
							<pathurl>file://localhost/Volumes/Bingen/Prosjekter/MYNT194016%20WHATS%20COOKING/Grafikk/Renders/Supringer_01/BroShow_Lykke_Supring_Haakon_01.mov</pathurl>
							<rate>
								<timebase>25</timebase>
								<ntsc>FALSE</ntsc>
							</rate>
							<duration>58</duration>
							<timecode>
								<rate>
									<timebase>25</timebase>
									<ntsc>FALSE</ntsc>
								</rate>
								<string>00:00:12:19</string>
								<frame>319</frame>
								<displayformat>NDF</displayformat>
								<reel>
									<name></name>
								</reel>
							</timecode>
							<media>
								<video>
									<samplecharacteristics>
										<rate>
											<timebase>25</timebase>
											<ntsc>FALSE</ntsc>
										</rate>
										<width>1920</width>
										<height>1080</height>
										<anamorphic>FALSE</anamorphic>
										<pixelaspectratio>square</pixelaspectratio>
										<fielddominance>none</fielddominance>
									</samplecharacteristics>
								</video>
							</media>
						</file>
							<filter>
								<effect>
									<name>Opacity</name>
									<effectid>opacity</effectid>
									<effectcategory>motion</effectcategory>
									<effecttype>motion</effecttype>
									<mediatype>video</mediatype>
									<parameter authoringApp="PremierePro">
										<parameterid>opacity</parameterid>
										<name>opacity</name>
										<valuemin>0</valuemin>
										<valuemax>100</valuemax>
										<value>50</value>
									</parameter>
								</effect>
							</filter>
						<logginginfo>
							<description></description>
							<scene></scene>
							<shottake></shottake>
							<lognote></lognote>
						</logginginfo>
						<labels>
							<label2>Violet</label2>
						</labels>
					</clipitem>
					<clipitem id="clipitem-45">
						<masterclipid>masterclip-20</masterclipid>
						<name>BroShow_Lykke_Supring_Manbir_01.mov</name>
						<enabled>TRUE</enabled>
						<duration>58</duration>
						<rate>
							<timebase>25</timebase>
							<ntsc>FALSE</ntsc>
						</rate>
						<start>31788</start>
						<end>31846</end>
						<in>0</in>
						<out>58</out>
						<pproTicksIn>0</pproTicksIn>
						<pproTicksOut>589317120000</pproTicksOut>
						<alphatype>none</alphatype>
						<pixelaspectratio>square</pixelaspectratio>
						<anamorphic>FALSE</anamorphic>
						<file id="file-19">
							<name>BroShow_Lykke_Supring_Manbir_01.mov</name>
							<pathurl>file://localhost/Volumes/Bingen/Prosjekter/MYNT194016%20WHATS%20COOKING/Grafikk/Renders/Supringer_01/BroShow_Lykke_Supring_Manbir_01.mov</pathurl>
							<rate>
								<timebase>25</timebase>
								<ntsc>FALSE</ntsc>
							</rate>
							<duration>58</duration>
							<timecode>
								<rate>
									<timebase>25</timebase>
									<ntsc>FALSE</ntsc>
								</rate>
								<string>00:00:12:19</string>
								<frame>319</frame>
								<displayformat>NDF</displayformat>
								<reel>
									<name></name>
								</reel>
							</timecode>
							<media>
								<video>
									<samplecharacteristics>
										<rate>
											<timebase>25</timebase>
											<ntsc>FALSE</ntsc>
										</rate>
										<width>1920</width>
										<height>1080</height>
										<anamorphic>FALSE</anamorphic>
										<pixelaspectratio>square</pixelaspectratio>
										<fielddominance>none</fielddominance>
									</samplecharacteristics>
								</video>
							</media>
						</file>
							<filter>
								<effect>
									<name>Opacity</name>
									<effectid>opacity</effectid>
									<effectcategory>motion</effectcategory>
									<effecttype>motion</effecttype>
									<mediatype>video</mediatype>
									<parameter authoringApp="PremierePro">
										<parameterid>opacity</parameterid>
										<name>opacity</name>
										<valuemin>0</valuemin>
										<valuemax>100</valuemax>
										<value>50</value>
									</parameter>
								</effect>
							</filter>
						<logginginfo>
							<description></description>
							<scene></scene>
							<shottake></shottake>
							<lognote></lognote>
						</logginginfo>
						<labels>
							<label2>Violet</label2>
						</labels>
					</clipitem>
					<clipitem id="clipitem-46">
						<masterclipid>masterclip-21</masterclipid>
						<name>BroShow_Lykke_Supring_Zeid_01.mov</name>
						<enabled>TRUE</enabled>
						<duration>58</duration>
						<rate>
							<timebase>25</timebase>
							<ntsc>FALSE</ntsc>
						</rate>
						<start>32056</start>
						<end>32114</end>
						<in>0</in>
						<out>58</out>
						<pproTicksIn>0</pproTicksIn>
						<pproTicksOut>589317120000</pproTicksOut>
						<alphatype>none</alphatype>
						<pixelaspectratio>square</pixelaspectratio>
						<anamorphic>FALSE</anamorphic>
						<file id="file-20">
							<name>BroShow_Lykke_Supring_Zeid_01.mov</name>
							<pathurl>file://localhost/Volumes/Bingen/Prosjekter/MYNT194016%20WHATS%20COOKING/Grafikk/Renders/Supringer_01/BroShow_Lykke_Supring_Zeid_01.mov</pathurl>
							<rate>
								<timebase>25</timebase>
								<ntsc>FALSE</ntsc>
							</rate>
							<duration>58</duration>
							<timecode>
								<rate>
									<timebase>25</timebase>
									<ntsc>FALSE</ntsc>
								</rate>
								<string>00:00:12:19</string>
								<frame>319</frame>
								<displayformat>NDF</displayformat>
								<reel>
									<name></name>
								</reel>
							</timecode>
							<media>
								<video>
									<samplecharacteristics>
										<rate>
											<timebase>25</timebase>
											<ntsc>FALSE</ntsc>
										</rate>
										<width>1920</width>
										<height>1080</height>
										<anamorphic>FALSE</anamorphic>
										<pixelaspectratio>square</pixelaspectratio>
										<fielddominance>none</fielddominance>
									</samplecharacteristics>
								</video>
							</media>
						</file>
							<filter>
								<effect>
									<name>Opacity</name>
									<effectid>opacity</effectid>
									<effectcategory>motion</effectcategory>
									<effecttype>motion</effecttype>
									<mediatype>video</mediatype>
									<parameter authoringApp="PremierePro">
										<parameterid>opacity</parameterid>
										<name>opacity</name>
										<valuemin>0</valuemin>
										<valuemax>100</valuemax>
										<value>50</value>
									</parameter>
								</effect>
							</filter>
						<logginginfo>
							<description></description>
							<scene></scene>
							<shottake></shottake>
							<lognote></lognote>
						</logginginfo>
						<labels>
							<label2>Violet</label2>
						</labels>
					</clipitem>
					<enabled>TRUE</enabled>
					<locked>FALSE</locked>
				</track>
				<track TL.SQTrackShy="0" TL.SQTrackExpandedHeight="25" TL.SQTrackExpanded="0" MZ.TrackTargeted="1">
					<clipitem id="clipitem-47">
						<masterclipid>masterclip-14</masterclipid>
						<name>BroShowLykke_Logo_Intro_Graphic_02.mov</name>
						<enabled>TRUE</enabled>
						<duration>111</duration>
						<rate>
							<timebase>25</timebase>
							<ntsc>FALSE</ntsc>
						</rate>
						<start>229</start>
						<end>340</end>
						<in>0</in>
						<out>111</out>
						<pproTicksIn>0</pproTicksIn>
						<pproTicksOut>1127831040000</pproTicksOut>
						<compositemode>texturize</compositemode>
						<alphatype>none</alphatype>
						<file id="file-13"/>
							<filter>
								<effect>
									<name>Opacity</name>
									<effectid>opacity</effectid>
									<effectcategory>motion</effectcategory>
									<effecttype>motion</effecttype>
									<mediatype>video</mediatype>
									<parameter authoringApp="PremierePro">
										<parameterid>opacity</parameterid>
										<name>opacity</name>
										<valuemin>0</valuemin>
										<valuemax>100</valuemax>
										<value>100</value>
									</parameter>
								</effect>
							</filter>
						<logginginfo>
							<description></description>
							<scene></scene>
							<shottake></shottake>
							<lognote></lognote>
						</logginginfo>
						<labels>
							<label2>Violet</label2>
						</labels>
					</clipitem>
					<clipitem id="clipitem-48">
						<masterclipid>masterclip-15</masterclipid>
						<name>BroShow_BroCode_Supring_Abiel_02.mov</name>
						<enabled>TRUE</enabled>
						<duration>100</duration>
						<rate>
							<timebase>25</timebase>
							<ntsc>FALSE</ntsc>
						</rate>
						<start>344</start>
						<end>444</end>
						<in>0</in>
						<out>100</out>
						<pproTicksIn>0</pproTicksIn>
						<pproTicksOut>1016064000000</pproTicksOut>
						<compositemode>texturize</compositemode>
						<alphatype>none</alphatype>
						<file id="file-14"/>
							<filter>
								<effect>
									<name>Opacity</name>
									<effectid>opacity</effectid>
									<effectcategory>motion</effectcategory>
									<effecttype>motion</effecttype>
									<mediatype>video</mediatype>
									<parameter authoringApp="PremierePro">
										<parameterid>opacity</parameterid>
										<name>opacity</name>
										<valuemin>0</valuemin>
										<valuemax>100</valuemax>
										<value>100</value>
									</parameter>
								</effect>
							</filter>
						<logginginfo>
							<description></description>
							<scene></scene>
							<shottake></shottake>
							<lognote></lognote>
						</logginginfo>
						<labels>
							<label2>Violet</label2>
						</labels>
					</clipitem>
					<clipitem id="clipitem-49">
						<masterclipid>masterclip-16</masterclipid>
						<name>BroShow_Fordommer_Supring_Mikkel_Aon_01.mov</name>
						<enabled>TRUE</enabled>
						<duration>86</duration>
						<rate>
							<timebase>25</timebase>
							<ntsc>FALSE</ntsc>
						</rate>
						<start>1539</start>
						<end>1625</end>
						<in>0</in>
						<out>86</out>
						<pproTicksIn>0</pproTicksIn>
						<pproTicksOut>873815040000</pproTicksOut>
						<compositemode>texturize</compositemode>
						<alphatype>none</alphatype>
						<file id="file-15"/>
							<filter>
								<effect>
									<name>Crop</name>
									<effectid>crop</effectid>
									<effectcategory>motion</effectcategory>
									<effecttype>motion</effecttype>
									<mediatype>video</mediatype>
									<parameter authoringApp="PremierePro">
										<parameterid>left</parameterid>
										<name>left</name>
										<valuemin>0</valuemin>
										<valuemax>100</valuemax>
										<value>43</value>
									</parameter>
									<parameter authoringApp="PremierePro">
										<parameterid>right</parameterid>
										<name>right</name>
										<valuemin>0</valuemin>
										<valuemax>100</valuemax>
										<value>32</value>
									</parameter>
									<parameter authoringApp="PremierePro">
										<parameterid>top</parameterid>
										<name>top</name>
										<valuemin>0</valuemin>
										<valuemax>100</valuemax>
										<value>0</value>
									</parameter>
									<parameter authoringApp="PremierePro">
										<parameterid>bottom</parameterid>
										<name>bottom</name>
										<valuemin>0</valuemin>
										<valuemax>100</valuemax>
										<value>0</value>
									</parameter>
								</effect>
							</filter>
							<filter>
								<effect>
									<name>Opacity</name>
									<effectid>opacity</effectid>
									<effectcategory>motion</effectcategory>
									<effecttype>motion</effecttype>
									<mediatype>video</mediatype>
									<parameter authoringApp="PremierePro">
										<parameterid>opacity</parameterid>
										<name>opacity</name>
										<valuemin>0</valuemin>
										<valuemax>100</valuemax>
										<value>100</value>
									</parameter>
								</effect>
							</filter>
						<logginginfo>
							<description></description>
							<scene></scene>
							<shottake></shottake>
							<lognote></lognote>
						</logginginfo>
						<labels>
							<label2>Violet</label2>
						</labels>
					</clipitem>
					<clipitem id="clipitem-50">
						<masterclipid>masterclip-16</masterclipid>
						<name>BroShow_Fordommer_Supring_Mikkel_Aon_01.mov</name>
						<enabled>TRUE</enabled>
						<duration>86</duration>
						<rate>
							<timebase>25</timebase>
							<ntsc>FALSE</ntsc>
						</rate>
						<start>1670</start>
						<end>1756</end>
						<in>0</in>
						<out>86</out>
						<pproTicksIn>0</pproTicksIn>
						<pproTicksOut>873815040000</pproTicksOut>
						<compositemode>texturize</compositemode>
						<alphatype>none</alphatype>
						<file id="file-15"/>
							<filter>
								<effect>
									<name>Crop</name>
									<effectid>crop</effectid>
									<effectcategory>motion</effectcategory>
									<effecttype>motion</effecttype>
									<mediatype>video</mediatype>
									<parameter authoringApp="PremierePro">
										<parameterid>left</parameterid>
										<name>left</name>
										<valuemin>0</valuemin>
										<valuemax>100</valuemax>
										<value>0</value>
									</parameter>
									<parameter authoringApp="PremierePro">
										<parameterid>right</parameterid>
										<name>right</name>
										<valuemin>0</valuemin>
										<valuemax>100</valuemax>
										<value>60</value>
									</parameter>
									<parameter authoringApp="PremierePro">
										<parameterid>top</parameterid>
										<name>top</name>
										<valuemin>0</valuemin>
										<valuemax>100</valuemax>
										<value>0</value>
									</parameter>
									<parameter authoringApp="PremierePro">
										<parameterid>bottom</parameterid>
										<name>bottom</name>
										<valuemin>0</valuemin>
										<valuemax>100</valuemax>
										<value>0</value>
									</parameter>
								</effect>
							</filter>
							<filter>
								<effect>
									<name>Opacity</name>
									<effectid>opacity</effectid>
									<effectcategory>motion</effectcategory>
									<effecttype>motion</effecttype>
									<mediatype>video</mediatype>
									<parameter authoringApp="PremierePro">
										<parameterid>opacity</parameterid>
										<name>opacity</name>
										<valuemin>0</valuemin>
										<valuemax>100</valuemax>
										<value>100</value>
									</parameter>
								</effect>
							</filter>
						<logginginfo>
							<description></description>
							<scene></scene>
							<shottake></shottake>
							<lognote></lognote>
						</logginginfo>
						<labels>
							<label2>Violet</label2>
						</labels>
					</clipitem>
					<clipitem id="clipitem-51">
						<masterclipid>masterclip-17</masterclipid>
						<name>BroShow_Lykke_Dansk_Mikkel_Klokke_01.mov</name>
						<enabled>TRUE</enabled>
						<duration>6125</duration>
						<rate>
							<timebase>25</timebase>
							<ntsc>FALSE</ntsc>
						</rate>
						<start>5274</start>
						<end>5969</end>
						<in>0</in>
						<out>695</out>
						<pproTicksIn>0</pproTicksIn>
						<pproTicksOut>7061644800000</pproTicksOut>
						<compositemode>texturize</compositemode>
						<alphatype>none</alphatype>
						<file id="file-16"/>
							<filter>
								<effect>
									<name>Opacity</name>
									<effectid>opacity</effectid>
									<effectcategory>motion</effectcategory>
									<effecttype>motion</effecttype>
									<mediatype>video</mediatype>
									<parameter authoringApp="PremierePro">
										<parameterid>opacity</parameterid>
										<name>opacity</name>
										<valuemin>0</valuemin>
										<valuemax>100</valuemax>
										<value>100</value>
									</parameter>
								</effect>
							</filter>
						<logginginfo>
							<description></description>
							<scene></scene>
							<shottake></shottake>
							<lognote></lognote>
						</logginginfo>
						<labels>
							<label2>Violet</label2>
						</labels>
					</clipitem>
					<clipitem id="clipitem-52">
						<masterclipid>masterclip-17</masterclipid>
						<name>BroShow_Lykke_Dansk_Mikkel_Klokke_01.mov</name>
						<enabled>TRUE</enabled>
						<duration>6125</duration>
						<rate>
							<timebase>25</timebase>
							<ntsc>FALSE</ntsc>
						</rate>
						<start>5969</start>
						<end>6220</end>
						<in>699</in>
						<out>950</out>
						<pproTicksIn>7102287360000</pproTicksIn>
						<pproTicksOut>9652608000000</pproTicksOut>
						<compositemode>texturize</compositemode>
						<alphatype>none</alphatype>
						<file id="file-16"/>
							<filter>
								<effect>
									<name>Opacity</name>
									<effectid>opacity</effectid>
									<effectcategory>motion</effectcategory>
									<effecttype>motion</effecttype>
									<mediatype>video</mediatype>
									<parameter authoringApp="PremierePro">
										<parameterid>opacity</parameterid>
										<name>opacity</name>
										<valuemin>0</valuemin>
										<valuemax>100</valuemax>
										<value>100</value>
									</parameter>
								</effect>
							</filter>
						<logginginfo>
							<description></description>
							<scene></scene>
							<shottake></shottake>
							<lognote></lognote>
						</logginginfo>
						<labels>
							<label2>Violet</label2>
						</labels>
					</clipitem>
					<clipitem id="clipitem-53">
						<masterclipid>masterclip-17</masterclipid>
						<name>BroShow_Lykke_Dansk_Mikkel_Klokke_01.mov</name>
						<enabled>TRUE</enabled>
						<duration>6125</duration>
						<rate>
							<timebase>25</timebase>
							<ntsc>FALSE</ntsc>
						</rate>
						<start>6415</start>
						<end>6516</end>
						<in>950</in>
						<out>1051</out>
						<pproTicksIn>9652608000000</pproTicksIn>
						<pproTicksOut>10678832640000</pproTicksOut>
						<compositemode>texturize</compositemode>
						<alphatype>none</alphatype>
						<file id="file-16"/>
							<filter>
								<effect>
									<name>Opacity</name>
									<effectid>opacity</effectid>
									<effectcategory>motion</effectcategory>
									<effecttype>motion</effecttype>
									<mediatype>video</mediatype>
									<parameter authoringApp="PremierePro">
										<parameterid>opacity</parameterid>
										<name>opacity</name>
										<valuemin>0</valuemin>
										<valuemax>100</valuemax>
										<value>100</value>
									</parameter>
								</effect>
							</filter>
						<logginginfo>
							<description></description>
							<scene></scene>
							<shottake></shottake>
							<lognote></lognote>
						</logginginfo>
						<labels>
							<label2>Violet</label2>
						</labels>
					</clipitem>
					<clipitem id="clipitem-54">
						<masterclipid>masterclip-17</masterclipid>
						<name>BroShow_Lykke_Dansk_Mikkel_Klokke_01.mov</name>
						<enabled>TRUE</enabled>
						<duration>6125</duration>
						<rate>
							<timebase>25</timebase>
							<ntsc>FALSE</ntsc>
						</rate>
						<start>6516</start>
						<end>6587</end>
						<in>1246</in>
						<out>1317</out>
						<pproTicksIn>12660157440000</pproTicksIn>
						<pproTicksOut>13381562880000</pproTicksOut>
						<compositemode>texturize</compositemode>
						<alphatype>none</alphatype>
						<file id="file-16"/>
							<filter>
								<effect>
									<name>Opacity</name>
									<effectid>opacity</effectid>
									<effectcategory>motion</effectcategory>
									<effecttype>motion</effecttype>
									<mediatype>video</mediatype>
									<parameter authoringApp="PremierePro">
										<parameterid>opacity</parameterid>
										<name>opacity</name>
										<valuemin>0</valuemin>
										<valuemax>100</valuemax>
										<value>100</value>
									</parameter>
								</effect>
							</filter>
						<logginginfo>
							<description></description>
							<scene></scene>
							<shottake></shottake>
							<lognote></lognote>
						</logginginfo>
						<labels>
							<label2>Violet</label2>
						</labels>
					</clipitem>
					<clipitem id="clipitem-55">
						<masterclipid>masterclip-17</masterclipid>
						<name>BroShow_Lykke_Dansk_Mikkel_Klokke_01.mov</name>
						<enabled>TRUE</enabled>
						<duration>6125</duration>
						<rate>
							<timebase>25</timebase>
							<ntsc>FALSE</ntsc>
						</rate>
						<start>6587</start>
						<end>7370</end>
						<in>1387</in>
						<out>2170</out>
						<pproTicksIn>14092807680000</pproTicksIn>
						<pproTicksOut>22048588800000</pproTicksOut>
						<compositemode>texturize</compositemode>
						<alphatype>none</alphatype>
						<file id="file-16"/>
							<filter>
								<effect>
									<name>Opacity</name>
									<effectid>opacity</effectid>
									<effectcategory>motion</effectcategory>
									<effecttype>motion</effecttype>
									<mediatype>video</mediatype>
									<parameter authoringApp="PremierePro">
										<parameterid>opacity</parameterid>
										<name>opacity</name>
										<valuemin>0</valuemin>
										<valuemax>100</valuemax>
										<value>100</value>
									</parameter>
								</effect>
							</filter>
						<logginginfo>
							<description></description>
							<scene></scene>
							<shottake></shottake>
							<lognote></lognote>
						</logginginfo>
						<labels>
							<label2>Violet</label2>
						</labels>
					</clipitem>
					<clipitem id="clipitem-56">
						<masterclipid>masterclip-17</masterclipid>
						<name>BroShow_Lykke_Dansk_Mikkel_Klokke_01.mov</name>
						<enabled>TRUE</enabled>
						<duration>6125</duration>
						<rate>
							<timebase>25</timebase>
							<ntsc>FALSE</ntsc>
						</rate>
						<start>7441</start>
						<end>7539</end>
						<in>3643</in>
						<out>3741</out>
						<pproTicksIn>37015211520000</pproTicksIn>
						<pproTicksOut>38010954240000</pproTicksOut>
						<compositemode>texturize</compositemode>
						<alphatype>none</alphatype>
						<file id="file-16"/>
							<filter>
								<effect>
									<name>Opacity</name>
									<effectid>opacity</effectid>
									<effectcategory>motion</effectcategory>
									<effecttype>motion</effecttype>
									<mediatype>video</mediatype>
									<parameter authoringApp="PremierePro">
										<parameterid>opacity</parameterid>
										<name>opacity</name>
										<valuemin>0</valuemin>
										<valuemax>100</valuemax>
										<value>100</value>
									</parameter>
								</effect>
							</filter>
						<logginginfo>
							<description></description>
							<scene></scene>
							<shottake></shottake>
							<lognote></lognote>
						</logginginfo>
						<labels>
							<label2>Violet</label2>
						</labels>
					</clipitem>
					<clipitem id="clipitem-57">
						<masterclipid>masterclip-17</masterclipid>
						<name>BroShow_Lykke_Dansk_Mikkel_Klokke_01.mov</name>
						<enabled>TRUE</enabled>
						<duration>6125</duration>
						<rate>
							<timebase>25</timebase>
							<ntsc>FALSE</ntsc>
						</rate>
						<start>8919</start>
						<end>9028</end>
						<in>4050</in>
						<out>4159</out>
						<pproTicksIn>41150592000000</pproTicksIn>
						<pproTicksOut>42258101760000</pproTicksOut>
						<compositemode>texturize</compositemode>
						<alphatype>none</alphatype>
						<file id="file-16"/>
							<filter>
								<effect>
									<name>Opacity</name>
									<effectid>opacity</effectid>
									<effectcategory>motion</effectcategory>
									<effecttype>motion</effecttype>
									<mediatype>video</mediatype>
									<parameter authoringApp="PremierePro">
										<parameterid>opacity</parameterid>
										<name>opacity</name>
										<valuemin>0</valuemin>
										<valuemax>100</valuemax>
										<value>100</value>
									</parameter>
								</effect>
							</filter>
						<logginginfo>
							<description></description>
							<scene></scene>
							<shottake></shottake>
							<lognote></lognote>
						</logginginfo>
						<labels>
							<label2>Violet</label2>
						</labels>
					</clipitem>
					<clipitem id="clipitem-58">
						<masterclipid>masterclip-17</masterclipid>
						<name>BroShow_Lykke_Dansk_Mikkel_Klokke_01.mov</name>
						<enabled>TRUE</enabled>
						<duration>6125</duration>
						<rate>
							<timebase>25</timebase>
							<ntsc>FALSE</ntsc>
						</rate>
						<start>10077</start>
						<end>10222</end>
						<in>5227</in>
						<out>5372</out>
						<pproTicksIn>53109665280000</pproTicksIn>
						<pproTicksOut>54582958080000</pproTicksOut>
						<compositemode>texturize</compositemode>
						<alphatype>none</alphatype>
						<file id="file-16"/>
							<filter>
								<effect>
									<name>Opacity</name>
									<effectid>opacity</effectid>
									<effectcategory>motion</effectcategory>
									<effecttype>motion</effecttype>
									<mediatype>video</mediatype>
									<parameter authoringApp="PremierePro">
										<parameterid>opacity</parameterid>
										<name>opacity</name>
										<valuemin>0</valuemin>
										<valuemax>100</valuemax>
										<value>100</value>
									</parameter>
								</effect>
							</filter>
						<logginginfo>
							<description></description>
							<scene></scene>
							<shottake></shottake>
							<lognote></lognote>
						</logginginfo>
						<labels>
							<label2>Violet</label2>
						</labels>
					</clipitem>
					<clipitem id="clipitem-59">
						<masterclipid>masterclip-18</masterclipid>
						<name>Lykke_DusteMikkel_Penger_Gata_RENDER_READY_01.mov</name>
						<enabled>TRUE</enabled>
						<duration>4624</duration>
						<rate>
							<timebase>25</timebase>
							<ntsc>FALSE</ntsc>
						</rate>
						<start>14559</start>
						<end>15391</end>
						<in>0</in>
						<out>832</out>
						<pproTicksIn>0</pproTicksIn>
						<pproTicksOut>8453652480000</pproTicksOut>
						<compositemode>texturize</compositemode>
						<alphatype>none</alphatype>
						<file id="file-17"/>
							<filter>
								<effect>
									<name>Opacity</name>
									<effectid>opacity</effectid>
									<effectcategory>motion</effectcategory>
									<effecttype>motion</effecttype>
									<mediatype>video</mediatype>
									<parameter authoringApp="PremierePro">
										<parameterid>opacity</parameterid>
										<name>opacity</name>
										<valuemin>0</valuemin>
										<valuemax>100</valuemax>
										<value>100</value>
									</parameter>
								</effect>
							</filter>
						<logginginfo>
							<description></description>
							<scene></scene>
							<shottake></shottake>
							<lognote></lognote>
						</logginginfo>
						<labels>
							<label2>Violet</label2>
						</labels>
					</clipitem>
					<clipitem id="clipitem-60">
						<masterclipid>masterclip-18</masterclipid>
						<name>Lykke_DusteMikkel_Penger_Gata_RENDER_READY_01.mov</name>
						<enabled>TRUE</enabled>
						<duration>4624</duration>
						<rate>
							<timebase>25</timebase>
							<ntsc>FALSE</ntsc>
						</rate>
						<start>15423</start>
						<end>15458</end>
						<in>866</in>
						<out>901</out>
						<pproTicksIn>8799114240000</pproTicksIn>
						<pproTicksOut>9154736640000</pproTicksOut>
						<compositemode>texturize</compositemode>
						<alphatype>none</alphatype>
						<file id="file-17"/>
							<filter>
								<effect>
									<name>Opacity</name>
									<effectid>opacity</effectid>
									<effectcategory>motion</effectcategory>
									<effecttype>motion</effecttype>
									<mediatype>video</mediatype>
									<parameter authoringApp="PremierePro">
										<parameterid>opacity</parameterid>
										<name>opacity</name>
										<valuemin>0</valuemin>
										<valuemax>100</valuemax>
										<value>100</value>
									</parameter>
								</effect>
							</filter>
						<logginginfo>
							<description></description>
							<scene></scene>
							<shottake></shottake>
							<lognote></lognote>
						</logginginfo>
						<labels>
							<label2>Violet</label2>
						</labels>
					</clipitem>
					<clipitem id="clipitem-61">
						<masterclipid>masterclip-18</masterclipid>
						<name>Lykke_DusteMikkel_Penger_Gata_RENDER_READY_01.mov</name>
						<enabled>TRUE</enabled>
						<duration>4624</duration>
						<rate>
							<timebase>25</timebase>
							<ntsc>FALSE</ntsc>
						</rate>
						<start>15522</start>
						<end>15785</end>
						<in>964</in>
						<out>1227</out>
						<pproTicksIn>9794856960000</pproTicksIn>
						<pproTicksOut>12467105280000</pproTicksOut>
						<compositemode>texturize</compositemode>
						<alphatype>none</alphatype>
						<file id="file-17"/>
							<filter>
								<effect>
									<name>Opacity</name>
									<effectid>opacity</effectid>
									<effectcategory>motion</effectcategory>
									<effecttype>motion</effecttype>
									<mediatype>video</mediatype>
									<parameter authoringApp="PremierePro">
										<parameterid>opacity</parameterid>
										<name>opacity</name>
										<valuemin>0</valuemin>
										<valuemax>100</valuemax>
										<value>100</value>
									</parameter>
								</effect>
							</filter>
						<logginginfo>
							<description></description>
							<scene></scene>
							<shottake></shottake>
							<lognote></lognote>
						</logginginfo>
						<labels>
							<label2>Violet</label2>
						</labels>
					</clipitem>
					<clipitem id="clipitem-62">
						<masterclipid>masterclip-18</masterclipid>
						<name>Lykke_DusteMikkel_Penger_Gata_RENDER_READY_01.mov</name>
						<enabled>TRUE</enabled>
						<duration>4624</duration>
						<rate>
							<timebase>25</timebase>
							<ntsc>FALSE</ntsc>
						</rate>
						<start>15850</start>
						<end>16147</end>
						<in>1290</in>
						<out>1587</out>
						<pproTicksIn>13107225600000</pproTicksIn>
						<pproTicksOut>16124935680000</pproTicksOut>
						<compositemode>texturize</compositemode>
						<alphatype>none</alphatype>
						<file id="file-17"/>
							<filter>
								<effect>
									<name>Opacity</name>
									<effectid>opacity</effectid>
									<effectcategory>motion</effectcategory>
									<effecttype>motion</effecttype>
									<mediatype>video</mediatype>
									<parameter authoringApp="PremierePro">
										<parameterid>opacity</parameterid>
										<name>opacity</name>
										<valuemin>0</valuemin>
										<valuemax>100</valuemax>
										<value>100</value>
									</parameter>
								</effect>
							</filter>
						<logginginfo>
							<description></description>
							<scene></scene>
							<shottake></shottake>
							<lognote></lognote>
						</logginginfo>
						<labels>
							<label2>Violet</label2>
						</labels>
					</clipitem>
					<clipitem id="clipitem-63">
						<masterclipid>masterclip-18</masterclipid>
						<name>Lykke_DusteMikkel_Penger_Gata_RENDER_READY_01.mov</name>
						<enabled>TRUE</enabled>
						<duration>4624</duration>
						<rate>
							<timebase>25</timebase>
							<ntsc>FALSE</ntsc>
						</rate>
						<start>16216</start>
						<end>16295</end>
						<in>1663</in>
						<out>1742</out>
						<pproTicksIn>16897144320000</pproTicksIn>
						<pproTicksOut>17699834880000</pproTicksOut>
						<compositemode>texturize</compositemode>
						<alphatype>none</alphatype>
						<file id="file-17"/>
							<filter>
								<effect>
									<name>Opacity</name>
									<effectid>opacity</effectid>
									<effectcategory>motion</effectcategory>
									<effecttype>motion</effecttype>
									<mediatype>video</mediatype>
									<parameter authoringApp="PremierePro">
										<parameterid>opacity</parameterid>
										<name>opacity</name>
										<valuemin>0</valuemin>
										<valuemax>100</valuemax>
										<value>100</value>
									</parameter>
								</effect>
							</filter>
						<logginginfo>
							<description></description>
							<scene></scene>
							<shottake></shottake>
							<lognote></lognote>
						</logginginfo>
						<labels>
							<label2>Violet</label2>
						</labels>
					</clipitem>
					<clipitem id="clipitem-64">
						<masterclipid>masterclip-18</masterclipid>
						<name>Lykke_DusteMikkel_Penger_Gata_RENDER_READY_01.mov</name>
						<enabled>TRUE</enabled>
						<duration>4624</duration>
						<rate>
							<timebase>25</timebase>
							<ntsc>FALSE</ntsc>
						</rate>
						<start>16315</start>
						<end>18577</end>
						<in>1756</in>
						<out>4018</out>
						<pproTicksIn>17842083840000</pproTicksIn>
						<pproTicksOut>40825451520000</pproTicksOut>
						<compositemode>texturize</compositemode>
						<alphatype>none</alphatype>
						<file id="file-17"/>
							<filter>
								<effect>
									<name>Opacity</name>
									<effectid>opacity</effectid>
									<effectcategory>motion</effectcategory>
									<effecttype>motion</effecttype>
									<mediatype>video</mediatype>
									<parameter authoringApp="PremierePro">
										<parameterid>opacity</parameterid>
										<name>opacity</name>
										<valuemin>0</valuemin>
										<valuemax>100</valuemax>
										<value>100</value>
									</parameter>
								</effect>
							</filter>
						<logginginfo>
							<description></description>
							<scene></scene>
							<shottake></shottake>
							<lognote></lognote>
						</logginginfo>
						<labels>
							<label2>Violet</label2>
						</labels>
					</clipitem>
					<clipitem id="clipitem-65">
						<masterclipid>masterclip-18</masterclipid>
						<name>Lykke_DusteMikkel_Penger_Gata_RENDER_READY_01.mov</name>
						<enabled>TRUE</enabled>
						<duration>4624</duration>
						<rate>
							<timebase>25</timebase>
							<ntsc>FALSE</ntsc>
						</rate>
						<start>18708</start>
						<end>19186</end>
						<in>4146</in>
						<out>4624</out>
						<pproTicksIn>42126013440000</pproTicksIn>
						<pproTicksOut>46982799360000</pproTicksOut>
						<compositemode>texturize</compositemode>
						<alphatype>none</alphatype>
						<file id="file-17"/>
							<filter>
								<effect>
									<name>Opacity</name>
									<effectid>opacity</effectid>
									<effectcategory>motion</effectcategory>
									<effecttype>motion</effecttype>
									<mediatype>video</mediatype>
									<parameter authoringApp="PremierePro">
										<parameterid>opacity</parameterid>
										<name>opacity</name>
										<valuemin>0</valuemin>
										<valuemax>100</valuemax>
										<value>100</value>
									</parameter>
								</effect>
							</filter>
						<logginginfo>
							<description></description>
							<scene></scene>
							<shottake></shottake>
							<lognote></lognote>
						</logginginfo>
						<labels>
							<label2>Violet</label2>
						</labels>
					</clipitem>
					<clipitem id="clipitem-66">
						<masterclipid>masterclip-19</masterclipid>
						<name>BroShow_Lykke_Supring_Haakon_01.mov</name>
						<enabled>TRUE</enabled>
						<duration>58</duration>
						<rate>
							<timebase>25</timebase>
							<ntsc>FALSE</ntsc>
						</rate>
						<start>31603</start>
						<end>31661</end>
						<in>0</in>
						<out>58</out>
						<pproTicksIn>0</pproTicksIn>
						<pproTicksOut>589317120000</pproTicksOut>
						<compositemode>texturize</compositemode>
						<alphatype>none</alphatype>
						<file id="file-18"/>
							<filter>
								<effect>
									<name>Opacity</name>
									<effectid>opacity</effectid>
									<effectcategory>motion</effectcategory>
									<effecttype>motion</effecttype>
									<mediatype>video</mediatype>
									<parameter authoringApp="PremierePro">
										<parameterid>opacity</parameterid>
										<name>opacity</name>
										<valuemin>0</valuemin>
										<valuemax>100</valuemax>
										<value>100</value>
									</parameter>
								</effect>
							</filter>
						<logginginfo>
							<description></description>
							<scene></scene>
							<shottake></shottake>
							<lognote></lognote>
						</logginginfo>
						<labels>
							<label2>Violet</label2>
						</labels>
					</clipitem>
					<clipitem id="clipitem-67">
						<masterclipid>masterclip-20</masterclipid>
						<name>BroShow_Lykke_Supring_Manbir_01.mov</name>
						<enabled>TRUE</enabled>
						<duration>58</duration>
						<rate>
							<timebase>25</timebase>
							<ntsc>FALSE</ntsc>
						</rate>
						<start>31788</start>
						<end>31846</end>
						<in>0</in>
						<out>58</out>
						<pproTicksIn>0</pproTicksIn>
						<pproTicksOut>589317120000</pproTicksOut>
						<compositemode>texturize</compositemode>
						<alphatype>none</alphatype>
						<file id="file-19"/>
							<filter>
								<effect>
									<name>Opacity</name>
									<effectid>opacity</effectid>
									<effectcategory>motion</effectcategory>
									<effecttype>motion</effecttype>
									<mediatype>video</mediatype>
									<parameter authoringApp="PremierePro">
										<parameterid>opacity</parameterid>
										<name>opacity</name>
										<valuemin>0</valuemin>
										<valuemax>100</valuemax>
										<value>100</value>
									</parameter>
								</effect>
							</filter>
						<logginginfo>
							<description></description>
							<scene></scene>
							<shottake></shottake>
							<lognote></lognote>
						</logginginfo>
						<labels>
							<label2>Violet</label2>
						</labels>
					</clipitem>
					<clipitem id="clipitem-68">
						<masterclipid>masterclip-21</masterclipid>
						<name>BroShow_Lykke_Supring_Zeid_01.mov</name>
						<enabled>TRUE</enabled>
						<duration>58</duration>
						<rate>
							<timebase>25</timebase>
							<ntsc>FALSE</ntsc>
						</rate>
						<start>32056</start>
						<end>32114</end>
						<in>0</in>
						<out>58</out>
						<pproTicksIn>0</pproTicksIn>
						<pproTicksOut>589317120000</pproTicksOut>
						<compositemode>texturize</compositemode>
						<alphatype>none</alphatype>
						<file id="file-20"/>
							<filter>
								<effect>
									<name>Opacity</name>
									<effectid>opacity</effectid>
									<effectcategory>motion</effectcategory>
									<effecttype>motion</effecttype>
									<mediatype>video</mediatype>
									<parameter authoringApp="PremierePro">
										<parameterid>opacity</parameterid>
										<name>opacity</name>
										<valuemin>0</valuemin>
										<valuemax>100</valuemax>
										<value>100</value>
									</parameter>
								</effect>
							</filter>
						<logginginfo>
							<description></description>
							<scene></scene>
							<shottake></shottake>
							<lognote></lognote>
						</logginginfo>
						<labels>
							<label2>Violet</label2>
						</labels>
					</clipitem>
					<enabled>TRUE</enabled>
					<locked>FALSE</locked>
				</track>
			</video>
			<audio>
				<numOutputChannels>8</numOutputChannels>
				<format>
					<samplecharacteristics>
						<depth>16</depth>
						<samplerate>48000</samplerate>
					</samplecharacteristics>
				</format>
				<outputs>
					<group>
						<index>1</index>
						<numchannels>1</numchannels>
						<downmix>0</downmix>
						<channel>
							<index>1</index>
						</channel>
					</group>
					<group>
						<index>2</index>
						<numchannels>1</numchannels>
						<downmix>0</downmix>
						<channel>
							<index>2</index>
						</channel>
					</group>
					<group>
						<index>3</index>
						<numchannels>1</numchannels>
						<downmix>0</downmix>
						<channel>
							<index>3</index>
						</channel>
					</group>
					<group>
						<index>4</index>
						<numchannels>1</numchannels>
						<downmix>0</downmix>
						<channel>
							<index>4</index>
						</channel>
					</group>
					<group>
						<index>5</index>
						<numchannels>1</numchannels>
						<downmix>0</downmix>
						<channel>
							<index>5</index>
						</channel>
					</group>
					<group>
						<index>6</index>
						<numchannels>1</numchannels>
						<downmix>0</downmix>
						<channel>
							<index>6</index>
						</channel>
					</group>
					<group>
						<index>7</index>
						<numchannels>1</numchannels>
						<downmix>0</downmix>
						<channel>
							<index>7</index>
						</channel>
					</group>
					<group>
						<index>8</index>
						<numchannels>1</numchannels>
						<downmix>0</downmix>
						<channel>
							<index>8</index>
						</channel>
					</group>
				</outputs>
				<track monotrack="TRUE" TL.SQTrackAudioKeyframeStyle="0" TL.SQTrackShy="0" TL.SQTrackExpandedHeight="65" TL.SQTrackExpanded="1" MZ.TrackTargeted="1" PannerCurrentValue="0.5" PannerIsInverted="true" PannerStartKeyframe="-91445760000000000,0.5,0,0,0,0,0,0" PannerName="Pan" currentExplodedTrackIndex="0" totalExplodedTrackCount="1" premiereTrackType="Mono">
					<enabled>TRUE</enabled>
					<locked>FALSE</locked>
					<outputchannelindex>1</outputchannelindex>
				</track>
				<track monotrack="TRUE" TL.SQTrackAudioKeyframeStyle="0" TL.SQTrackShy="0" TL.SQTrackExpandedHeight="65" TL.SQTrackExpanded="1" MZ.TrackTargeted="1" PannerCurrentValue="0.5" PannerIsInverted="true" PannerStartKeyframe="-91445760000000000,0.5,0,0,0,0,0,0" PannerName="Pan" currentExplodedTrackIndex="0" totalExplodedTrackCount="1" premiereTrackType="Mono">
					<enabled>TRUE</enabled>
					<locked>FALSE</locked>
					<outputchannelindex>2</outputchannelindex>
				</track>
				<track monotrack="TRUE" TL.SQTrackAudioKeyframeStyle="0" TL.SQTrackShy="0" TL.SQTrackExpandedHeight="65" TL.SQTrackExpanded="1" MZ.TrackTargeted="1" PannerCurrentValue="0.5" PannerIsInverted="true" PannerStartKeyframe="-91445760000000000,0.5,0,0,0,0,0,0" PannerName="Pan" currentExplodedTrackIndex="0" totalExplodedTrackCount="1" premiereTrackType="Mono">
					<enabled>TRUE</enabled>
					<locked>FALSE</locked>
					<outputchannelindex>1</outputchannelindex>
				</track>
				<track monotrack="TRUE" TL.SQTrackAudioKeyframeStyle="0" TL.SQTrackShy="0" TL.SQTrackExpandedHeight="65" TL.SQTrackExpanded="1" MZ.TrackTargeted="1" MZ.TrackName="Audio 4" PannerCurrentValue="0.5" PannerIsInverted="true" PannerStartKeyframe="-91445760000000000,0.5,0,0,0,0,0,0" PannerName="Pan" currentExplodedTrackIndex="0" totalExplodedTrackCount="1" premiereTrackType="Mono">
					<enabled>TRUE</enabled>
					<locked>FALSE</locked>
					<outputchannelindex>2</outputchannelindex>
				</track>
				<track TL.SQTrackAudioKeyframeStyle="0" TL.SQTrackShy="0" TL.SQTrackExpandedHeight="65" TL.SQTrackExpanded="1" MZ.TrackTargeted="1" MZ.TrackName="Audio 5" PannerCurrentValue="0.5" PannerIsInverted="true" PannerStartKeyframe="-91445760000000000,0.5,0,0,0,0,0,0" PannerName="Balance" currentExplodedTrackIndex="0" totalExplodedTrackCount="2" premiereTrackType="Stereo">
					<clipitem id="clipitem-69" premiereChannelType="mono">
						<masterclipid>masterclip-1</masterclipid>
						<name>Clip0012.mov</name>
						<enabled>TRUE</enabled>
						<duration>51024</duration>
						<rate>
							<timebase>25</timebase>
							<ntsc>FALSE</ntsc>
						</rate>
						<start>25</start>
						<end>52</end>
						<in>11810</in>
						<out>11837</out>
						<pproTicksIn>119997158400000</pproTicksIn>
						<pproTicksOut>120271495680000</pproTicksOut>
						<file id="file-1"/>
						<sourcetrack>
							<mediatype>audio</mediatype>
							<trackindex>1</trackindex>
						</sourcetrack>
						<link>
							<linkclipref>clipitem-1</linkclipref>
							<mediatype>video</mediatype>
							<trackindex>1</trackindex>
							<clipindex>1</clipindex>
						</link>
						<link>
							<linkclipref>clipitem-69</linkclipref>
							<mediatype>audio</mediatype>
							<trackindex>5</trackindex>
							<clipindex>1</clipindex>
							<groupindex>1</groupindex>
						</link>
						<link>
							<linkclipref>clipitem-116</linkclipref>
							<mediatype>audio</mediatype>
							<trackindex>7</trackindex>
							<clipindex>1</clipindex>
							<groupindex>1</groupindex>
						</link>
						<logginginfo>
							<description>sc01 t12 int squah hall, møter kompis+spiller</description>
							<scene></scene>
							<shottake></shottake>
							<lognote>A1=M, A2=kam/venn</lognote>
						</logginginfo>
						<labels>
							<label2>Rose</label2>
						</labels>
					</clipitem>
					<clipitem id="clipitem-70" premiereChannelType="mono">
						<masterclipid>masterclip-22</masterclipid>
						<name>Video 12.05.2016-2_1.mov</name>
						<enabled>TRUE</enabled>
						<duration>4630</duration>
						<rate>
							<timebase>25</timebase>
							<ntsc>FALSE</ntsc>
						</rate>
						<start>5244</start>
						<end>5287</end>
						<in>34</in>
						<out>77</out>
						<pproTicksIn>345461760000</pproTicksIn>
						<pproTicksOut>782369280000</pproTicksOut>
						<pixelaspectratio>square</pixelaspectratio>
						<anamorphic>FALSE</anamorphic>
						<file id="file-21">
							<name>Video 12.05.2016-2_1.mov</name>
							<pathurl>file://localhost/Volumes/Bingen/Prosjekter/MYNT194016%20WHATS%20COOKING/Media/Episode%2006%20Lykke/VB-opptak/12052016/NYE%20MIKKEL%20TELEFON%20FLYTT/Video%2012.05.2016-2_1.mov</pathurl>
							<rate>
								<timebase>25</timebase>
								<ntsc>FALSE</ntsc>
							</rate>
							<duration>4630</duration>
							<timecode>
								<rate>
									<timebase>25</timebase>
									<ntsc>FALSE</ntsc>
								</rate>
								<string>00:00:00:00</string>
								<frame>0</frame>
								<displayformat>NDF</displayformat>
								<reel>
									<name></name>
								</reel>
							</timecode>
							<media>
								<video>
									<samplecharacteristics>
										<rate>
											<timebase>25</timebase>
											<ntsc>FALSE</ntsc>
										</rate>
										<width>1920</width>
										<height>1080</height>
										<anamorphic>FALSE</anamorphic>
										<pixelaspectratio>square</pixelaspectratio>
										<fielddominance>none</fielddominance>
									</samplecharacteristics>
								</video>
								<audio>
									<samplecharacteristics>
										<depth>16</depth>
										<samplerate>48000</samplerate>
									</samplecharacteristics>
									<channelcount>1</channelcount>
									<layout>stereo</layout>
									<audiochannel>
										<sourcechannel>1</sourcechannel>
										<channellabel>left</channellabel>
									</audiochannel>
								</audio>
								<audio>
									<samplecharacteristics>
										<depth>16</depth>
										<samplerate>48000</samplerate>
									</samplecharacteristics>
									<channelcount>1</channelcount>
									<layout>stereo</layout>
									<audiochannel>
										<sourcechannel>2</sourcechannel>
										<channellabel>right</channellabel>
									</audiochannel>
								</audio>
							</media>
						</file>
						<sourcetrack>
							<mediatype>audio</mediatype>
							<trackindex>2</trackindex>
						</sourcetrack>
							<filter>
								<effect>
									<name>Gain</name>
									<effectid>{61756678, 4761696e, 4b657947}</effectid>
									<effecttype>filter</effecttype>
									<mediatype>audio</mediatype>
									<parameter authoringApp="PremierePro">
										<parameterid>Gain(dB)</parameterid>
										<name>Gain(dB)</name>
										<valuemin>-96</valuemin>
										<valuemax>96</valuemax>
										<value>-8</value>
									</parameter>
								</effect>
							</filter>
						<link>
							<linkclipref>clipitem-70</linkclipref>
							<mediatype>audio</mediatype>
							<trackindex>5</trackindex>
							<clipindex>2</clipindex>
							<groupindex>1</groupindex>
						</link>
						<link>
							<linkclipref>clipitem-300</linkclipref>
							<mediatype>audio</mediatype>
							<trackindex>15</trackindex>
							<clipindex>1</clipindex>
							<groupindex>1</groupindex>
						</link>
						<logginginfo>
							<description>01. Våkner i senga, gml dansk, står opp</description>
							<scene></scene>
							<shottake></shottake>
							<lognote></lognote>
						</logginginfo>
						<labels>
							<label2>Iris</label2>
						</labels>
					</clipitem>
					<clipitem id="clipitem-71" premiereChannelType="stereo">
						<masterclipid>masterclip-23</masterclipid>
						<name>Bell Small.wav</name>
						<enabled>TRUE</enabled>
						<duration>134</duration>
						<rate>
							<timebase>25</timebase>
							<ntsc>FALSE</ntsc>
						</rate>
						<start>5847</start>
						<end>5876</end>
						<in>0</in>
						<out>29</out>
						<pproTicksIn>0</pproTicksIn>
						<pproTicksOut>294658560000</pproTicksOut>
						<file id="file-22">
							<name>Bell Small.wav</name>
							<pathurl>file://localhost/Volumes/Bingen/Prosjekter/MYNT194016%20WHATS%20COOKING/Lydeffekter/Final%20Cut%20Pro%20Sound%20Effects%2048Hz%3a24b/Bell%20Small.wav</pathurl>
							<rate>
								<timebase>30</timebase>
								<ntsc>TRUE</ntsc>
							</rate>
							<duration>161</duration>
							<timecode>
								<rate>
									<timebase>30</timebase>
									<ntsc>TRUE</ntsc>
								</rate>
								<string>00;00;00;00</string>
								<frame>0</frame>
								<displayformat>DF</displayformat>
								<reel>
									<name></name>
								</reel>
							</timecode>
							<media>
								<audio>
									<samplecharacteristics>
										<depth>16</depth>
										<samplerate>48000</samplerate>
									</samplecharacteristics>
									<channelcount>2</channelcount>
								</audio>
							</media>
						</file>
						<sourcetrack>
							<mediatype>audio</mediatype>
							<trackindex>1</trackindex>
						</sourcetrack>
							<filter>
								<effect>
									<name>Gain</name>
									<effectid>{61756678, 4761696e, 4b657947}</effectid>
									<effecttype>filter</effecttype>
									<mediatype>audio</mediatype>
									<parameter authoringApp="PremierePro">
										<parameterid>Gain(dB)</parameterid>
										<name>Gain(dB)</name>
										<valuemin>-96</valuemin>
										<valuemax>96</valuemax>
										<value>-6</value>
									</parameter>
								</effect>
							</filter>
						<link>
							<linkclipref>clipitem-71</linkclipref>
							<mediatype>audio</mediatype>
							<trackindex>5</trackindex>
							<clipindex>3</clipindex>
							<groupindex>1</groupindex>
						</link>
						<link>
							<linkclipref>clipitem-110</linkclipref>
							<mediatype>audio</mediatype>
							<trackindex>6</trackindex>
							<clipindex>1</clipindex>
							<groupindex>1</groupindex>
						</link>
						<logginginfo>
							<description></description>
							<scene></scene>
							<shottake></shottake>
							<lognote></lognote>
						</logginginfo>
						<labels>
							<label2>Caribbean</label2>
						</labels>
					</clipitem>
					<clipitem id="clipitem-72" premiereChannelType="stereo">
						<masterclipid>masterclip-23</masterclipid>
						<name>Bell Small.wav</name>
						<enabled>TRUE</enabled>
						<duration>134</duration>
						<rate>
							<timebase>25</timebase>
							<ntsc>FALSE</ntsc>
						</rate>
						<start>5876</start>
						<end>5906</end>
						<in>0</in>
						<out>30</out>
						<pproTicksIn>0</pproTicksIn>
						<pproTicksOut>304819200000</pproTicksOut>
						<file id="file-22"/>
						<sourcetrack>
							<mediatype>audio</mediatype>
							<trackindex>1</trackindex>
						</sourcetrack>
							<filter>
								<effect>
									<name>Gain</name>
									<effectid>{61756678, 4761696e, 4b657947}</effectid>
									<effecttype>filter</effecttype>
									<mediatype>audio</mediatype>
									<parameter authoringApp="PremierePro">
										<parameterid>Gain(dB)</parameterid>
										<name>Gain(dB)</name>
										<valuemin>-96</valuemin>
										<valuemax>96</valuemax>
										<value>-6</value>
									</parameter>
								</effect>
							</filter>
						<link>
							<linkclipref>clipitem-72</linkclipref>
							<mediatype>audio</mediatype>
							<trackindex>5</trackindex>
							<clipindex>4</clipindex>
							<groupindex>1</groupindex>
						</link>
						<link>
							<linkclipref>clipitem-111</linkclipref>
							<mediatype>audio</mediatype>
							<trackindex>6</trackindex>
							<clipindex>2</clipindex>
							<groupindex>1</groupindex>
						</link>
						<logginginfo>
							<description></description>
							<scene></scene>
							<shottake></shottake>
							<lognote></lognote>
						</logginginfo>
						<labels>
							<label2>Caribbean</label2>
						</labels>
					</clipitem>
					<clipitem id="clipitem-73" premiereChannelType="stereo">
						<masterclipid>masterclip-23</masterclipid>
						<name>Bell Small.wav</name>
						<enabled>TRUE</enabled>
						<duration>134</duration>
						<rate>
							<timebase>25</timebase>
							<ntsc>FALSE</ntsc>
						</rate>
						<start>5906</start>
						<end>-1</end>
						<in>0</in>
						<out>49</out>
						<pproTicksIn>0</pproTicksIn>
						<pproTicksOut>497871360000</pproTicksOut>
						<file id="file-22"/>
						<sourcetrack>
							<mediatype>audio</mediatype>
							<trackindex>1</trackindex>
						</sourcetrack>
							<filter>
								<effect>
									<name>Gain</name>
									<effectid>{61756678, 4761696e, 4b657947}</effectid>
									<effecttype>filter</effecttype>
									<mediatype>audio</mediatype>
									<parameter authoringApp="PremierePro">
										<parameterid>Gain(dB)</parameterid>
										<name>Gain(dB)</name>
										<valuemin>-96</valuemin>
										<valuemax>96</valuemax>
										<value>-6</value>
									</parameter>
								</effect>
							</filter>
						<link>
							<linkclipref>clipitem-73</linkclipref>
							<mediatype>audio</mediatype>
							<trackindex>5</trackindex>
							<clipindex>5</clipindex>
							<groupindex>1</groupindex>
						</link>
						<link>
							<linkclipref>clipitem-112</linkclipref>
							<mediatype>audio</mediatype>
							<trackindex>6</trackindex>
							<clipindex>3</clipindex>
							<groupindex>1</groupindex>
						</link>
						<logginginfo>
							<description></description>
							<scene></scene>
							<shottake></shottake>
							<lognote></lognote>
						</logginginfo>
						<labels>
							<label2>Caribbean</label2>
						</labels>
					</clipitem>
					<transitionitem>
						<start>5942</start>
						<end>5955</end>
						<alignment>end-black</alignment>
						<cutPointTicks>132088320000</cutPointTicks>
						<rate>
							<timebase>25</timebase>
							<ntsc>FALSE</ntsc>
						</rate>
						<effect>
							<name>Cross Fade (+3dB)</name>
							<effectid>KGAudioTransCrossFade3dB</effectid>
							<effecttype>transition</effecttype>
							<mediatype>audio</mediatype>
							<wipecode>0</wipecode>
							<wipeaccuracy>100</wipeaccuracy>
							<startratio>0</startratio>
							<endratio>1</endratio>
							<reverse>FALSE</reverse>
						</effect>
					</transitionitem>
					<transitionitem>
						<start>6407</start>
						<end>6411</end>
						<alignment>start-black</alignment>
						<cutPointTicks>0</cutPointTicks>
						<rate>
							<timebase>25</timebase>
							<ntsc>FALSE</ntsc>
						</rate>
						<effect>
							<name>Cross Fade (+3dB)</name>
							<effectid>KGAudioTransCrossFade3dB</effectid>
							<effecttype>transition</effecttype>
							<mediatype>audio</mediatype>
							<wipecode>0</wipecode>
							<wipeaccuracy>100</wipeaccuracy>
							<startratio>0</startratio>
							<endratio>1</endratio>
							<reverse>FALSE</reverse>
						</effect>
					</transitionitem>
					<clipitem id="clipitem-74" premiereChannelType="mono">
						<masterclipid>masterclip-24</masterclipid>
						<name>Clip0004.mov</name>
						<enabled>TRUE</enabled>
						<duration>49488</duration>
						<rate>
							<timebase>25</timebase>
							<ntsc>FALSE</ntsc>
						</rate>
						<start>-1</start>
						<end>-1</end>
						<in>48</in>
						<out>65</out>
						<pproTicksIn>487710720000</pproTicksIn>
						<pproTicksOut>660441600000</pproTicksOut>
						<pixelaspectratio>square</pixelaspectratio>
						<anamorphic>FALSE</anamorphic>
						<file id="file-23">
							<name>Clip0004.mov</name>
							<pathurl>file://localhost/Volumes/Bingen/Prosjekter/MYNT194016%20WHATS%20COOKING/Media/Episode%2006%20Lykke/VB-opptak/12052016/KAM%20A/kort1/ProRes/Clip0004.mov</pathurl>
							<rate>
								<timebase>25</timebase>
								<ntsc>FALSE</ntsc>
							</rate>
							<duration>49488</duration>
							<timecode>
								<rate>
									<timebase>25</timebase>
									<ntsc>FALSE</ntsc>
								</rate>
								<string>12:03:23:10</string>
								<frame>1085085</frame>
								<displayformat>NDF</displayformat>
								<reel>
									<name></name>
								</reel>
							</timecode>
							<media>
								<video>
									<samplecharacteristics>
										<rate>
											<timebase>25</timebase>
											<ntsc>FALSE</ntsc>
										</rate>
										<width>1920</width>
										<height>1080</height>
										<anamorphic>FALSE</anamorphic>
										<pixelaspectratio>square</pixelaspectratio>
										<fielddominance>none</fielddominance>
									</samplecharacteristics>
								</video>
								<audio>
									<samplecharacteristics>
										<depth>16</depth>
										<samplerate>48000</samplerate>
									</samplecharacteristics>
									<channelcount>1</channelcount>
									<audiochannel>
										<sourcechannel>1</sourcechannel>
									</audiochannel>
								</audio>
								<audio>
									<samplecharacteristics>
										<depth>16</depth>
										<samplerate>48000</samplerate>
									</samplecharacteristics>
									<channelcount>1</channelcount>
									<audiochannel>
										<sourcechannel>2</sourcechannel>
									</audiochannel>
								</audio>
							</media>
						</file>
						<sourcetrack>
							<mediatype>audio</mediatype>
							<trackindex>1</trackindex>
						</sourcetrack>
							<filter>
								<effect>
									<name>Gain</name>
									<effectid>{61756678, 4761696e, 4b657947}</effectid>
									<effecttype>filter</effecttype>
									<mediatype>audio</mediatype>
									<parameter authoringApp="PremierePro">
										<parameterid>Gain(dB)</parameterid>
										<name>Gain(dB)</name>
										<valuemin>-96</valuemin>
										<valuemax>96</valuemax>
										<value>-9</value>
									</parameter>
								</effect>
							</filter>
						<logginginfo>
							<description>sc01 t04 ext panting+int butikk</description>
							<scene></scene>
							<shottake></shottake>
							<lognote>A1=M, A2=kam/venn</lognote>
						</logginginfo>
						<labels>
							<label2>Iris</label2>
						</labels>
					</clipitem>
					<transitionitem>
						<start>6411</start>
						<end>6424</end>
						<alignment>end-black</alignment>
						<cutPointTicks>132088320000</cutPointTicks>
						<rate>
							<timebase>25</timebase>
							<ntsc>FALSE</ntsc>
						</rate>
						<effect>
							<name>Cross Fade (+3dB)</name>
							<effectid>KGAudioTransCrossFade3dB</effectid>
							<effecttype>transition</effecttype>
							<mediatype>audio</mediatype>
							<wipecode>0</wipecode>
							<wipeaccuracy>100</wipeaccuracy>
							<startratio>0</startratio>
							<endratio>1</endratio>
							<reverse>FALSE</reverse>
						</effect>
					</transitionitem>
					<clipitem id="clipitem-75" premiereChannelType="mono">
						<masterclipid>masterclip-25</masterclipid>
						<name>67167__jrssandoval__sniff.wav</name>
						<enabled>TRUE</enabled>
						<duration>131</duration>
						<rate>
							<timebase>25</timebase>
							<ntsc>FALSE</ntsc>
						</rate>
						<start>6889</start>
						<end>6900</end>
						<in>33</in>
						<out>44</out>
						<pproTicksIn>335301120000</pproTicksIn>
						<pproTicksOut>447068160000</pproTicksOut>
						<file id="file-24">
							<name>67167__jrssandoval__sniff.wav</name>
							<pathurl>file://localhost/Volumes/Bingen/Prosjekter/MYNT194016%20WHATS%20COOKING/Lydeffekter/Marita%20SoundFX/67167__jrssandoval__sniff.wav</pathurl>
							<rate>
								<timebase>30</timebase>
								<ntsc>TRUE</ntsc>
							</rate>
							<duration>157</duration>
							<timecode>
								<rate>
									<timebase>30</timebase>
									<ntsc>TRUE</ntsc>
								</rate>
								<string>00;00;00;00</string>
								<frame>0</frame>
								<displayformat>DF</displayformat>
								<reel>
									<name></name>
								</reel>
							</timecode>
							<media>
								<audio>
									<samplecharacteristics>
										<depth>16</depth>
										<samplerate>48000</samplerate>
									</samplecharacteristics>
									<channelcount>1</channelcount>
									<audiochannel>
										<sourcechannel>1</sourcechannel>
									</audiochannel>
								</audio>
							</media>
						</file>
						<sourcetrack>
							<mediatype>audio</mediatype>
							<trackindex>1</trackindex>
						</sourcetrack>
							<filter>
								<effect>
									<name>Gain</name>
									<effectid>{61756678, 4761696e, 4b657947}</effectid>
									<effecttype>filter</effecttype>
									<mediatype>audio</mediatype>
									<parameter authoringApp="PremierePro">
										<parameterid>Gain(dB)</parameterid>
										<name>Gain(dB)</name>
										<valuemin>-96</valuemin>
										<valuemax>96</valuemax>
										<value>-6</value>
									</parameter>
								</effect>
							</filter>
						<logginginfo>
							<description></description>
							<scene></scene>
							<shottake></shottake>
							<lognote></lognote>
						</logginginfo>
						<labels>
							<label2>Caribbean</label2>
						</labels>
					</clipitem>
					<clipitem id="clipitem-76" premiereChannelType="mono">
						<masterclipid>masterclip-25</masterclipid>
						<name>67167__jrssandoval__sniff.wav</name>
						<enabled>TRUE</enabled>
						<duration>131</duration>
						<rate>
							<timebase>25</timebase>
							<ntsc>FALSE</ntsc>
						</rate>
						<start>6919</start>
						<end>6930</end>
						<in>33</in>
						<out>44</out>
						<pproTicksIn>335301120000</pproTicksIn>
						<pproTicksOut>447068160000</pproTicksOut>
						<file id="file-24"/>
						<sourcetrack>
							<mediatype>audio</mediatype>
							<trackindex>1</trackindex>
						</sourcetrack>
							<filter>
								<effect>
									<name>Gain</name>
									<effectid>{61756678, 4761696e, 4b657947}</effectid>
									<effecttype>filter</effecttype>
									<mediatype>audio</mediatype>
									<parameter authoringApp="PremierePro">
										<parameterid>Gain(dB)</parameterid>
										<name>Gain(dB)</name>
										<valuemin>-96</valuemin>
										<valuemax>96</valuemax>
										<value>-9</value>
									</parameter>
								</effect>
							</filter>
						<logginginfo>
							<description></description>
							<scene></scene>
							<shottake></shottake>
							<lognote></lognote>
						</logginginfo>
						<labels>
							<label2>Caribbean</label2>
						</labels>
					</clipitem>
					<transitionitem>
						<start>7492</start>
						<end>7505</end>
						<alignment>start-black</alignment>
						<cutPointTicks>0</cutPointTicks>
						<rate>
							<timebase>25</timebase>
							<ntsc>FALSE</ntsc>
						</rate>
						<effect>
							<name>Cross Fade (+3dB)</name>
							<effectid>KGAudioTransCrossFade3dB</effectid>
							<effecttype>transition</effecttype>
							<mediatype>audio</mediatype>
							<wipecode>0</wipecode>
							<wipeaccuracy>100</wipeaccuracy>
							<startratio>0</startratio>
							<endratio>1</endratio>
							<reverse>FALSE</reverse>
						</effect>
					</transitionitem>
					<clipitem id="clipitem-77" premiereChannelType="mono">
						<masterclipid>masterclip-26</masterclipid>
						<name>182019__safadancer__peeing.wav</name>
						<enabled>TRUE</enabled>
						<duration>264</duration>
						<rate>
							<timebase>25</timebase>
							<ntsc>FALSE</ntsc>
						</rate>
						<start>-1</start>
						<end>-1</end>
						<in>160</in>
						<out>213</out>
						<pproTicksIn>1625702400000</pproTicksIn>
						<pproTicksOut>2164216320000</pproTicksOut>
						<file id="file-25">
							<name>182019__safadancer__peeing.wav</name>
							<pathurl>file://localhost/Volumes/Bingen/Prosjekter/MYNT194016%20WHATS%20COOKING/Lydeffekter/Marita%20SoundFX/182019__safadancer__peeing.wav</pathurl>
							<rate>
								<timebase>30</timebase>
								<ntsc>TRUE</ntsc>
							</rate>
							<duration>317</duration>
							<timecode>
								<rate>
									<timebase>30</timebase>
									<ntsc>TRUE</ntsc>
								</rate>
								<string>11;01;42;03</string>
								<frame>1189873</frame>
								<displayformat>DF</displayformat>
								<reel>
									<name></name>
								</reel>
							</timecode>
							<media>
								<audio>
									<samplecharacteristics>
										<depth>16</depth>
										<samplerate>48000</samplerate>
									</samplecharacteristics>
									<channelcount>1</channelcount>
									<audiochannel>
										<sourcechannel>1</sourcechannel>
									</audiochannel>
								</audio>
							</media>
						</file>
						<sourcetrack>
							<mediatype>audio</mediatype>
							<trackindex>1</trackindex>
						</sourcetrack>
						<logginginfo>
							<description></description>
							<scene></scene>
							<shottake></shottake>
							<lognote></lognote>
						</logginginfo>
						<labels>
							<label2>Caribbean</label2>
						</labels>
					</clipitem>
					<transitionitem>
						<start>7532</start>
						<end>7545</end>
						<alignment>end-black</alignment>
						<cutPointTicks>132088320000</cutPointTicks>
						<rate>
							<timebase>25</timebase>
							<ntsc>FALSE</ntsc>
						</rate>
						<effect>
							<name>Cross Fade (+3dB)</name>
							<effectid>KGAudioTransCrossFade3dB</effectid>
							<effecttype>transition</effecttype>
							<mediatype>audio</mediatype>
							<wipecode>0</wipecode>
							<wipeaccuracy>100</wipeaccuracy>
							<startratio>0</startratio>
							<endratio>1</endratio>
							<reverse>FALSE</reverse>
						</effect>
					</transitionitem>
					<transitionitem>
						<start>7889</start>
						<end>7910</end>
						<alignment>start-black</alignment>
						<cutPointTicks>0</cutPointTicks>
						<rate>
							<timebase>25</timebase>
							<ntsc>FALSE</ntsc>
						</rate>
						<effect>
							<name>Cross Fade (+3dB)</name>
							<effectid>KGAudioTransCrossFade3dB</effectid>
							<effecttype>transition</effecttype>
							<mediatype>audio</mediatype>
							<wipecode>0</wipecode>
							<wipeaccuracy>100</wipeaccuracy>
							<startratio>0</startratio>
							<endratio>1</endratio>
							<reverse>FALSE</reverse>
						</effect>
					</transitionitem>
					<clipitem id="clipitem-78" premiereChannelType="mono">
						<masterclipid>masterclip-27</masterclipid>
						<name>344715__jamitch2__shower-water-bath.wav</name>
						<enabled>TRUE</enabled>
						<duration>1088</duration>
						<rate>
							<timebase>25</timebase>
							<ntsc>FALSE</ntsc>
						</rate>
						<start>-1</start>
						<end>7950</end>
						<in>319</in>
						<out>380</out>
						<pproTicksIn>3241244160000</pproTicksIn>
						<pproTicksOut>3861043200000</pproTicksOut>
						<file id="file-26">
							<name>344715__jamitch2__shower-water-bath.wav</name>
							<pathurl>file://localhost/Volumes/Bingen/Prosjekter/MYNT194016%20WHATS%20COOKING/Lydeffekter/Marita%20SoundFX/344715__jamitch2__shower-water-bath.wav</pathurl>
							<rate>
								<timebase>30</timebase>
								<ntsc>TRUE</ntsc>
							</rate>
							<duration>1305</duration>
							<timecode>
								<rate>
									<timebase>30</timebase>
									<ntsc>TRUE</ntsc>
								</rate>
								<string>00;00;00;00</string>
								<frame>0</frame>
								<displayformat>DF</displayformat>
								<reel>
									<name></name>
								</reel>
							</timecode>
							<media>
								<audio>
									<samplecharacteristics>
										<depth>16</depth>
										<samplerate>48000</samplerate>
									</samplecharacteristics>
									<channelcount>1</channelcount>
									<audiochannel>
										<sourcechannel>1</sourcechannel>
									</audiochannel>
								</audio>
							</media>
						</file>
						<sourcetrack>
							<mediatype>audio</mediatype>
							<trackindex>1</trackindex>
						</sourcetrack>
						<logginginfo>
							<description></description>
							<scene></scene>
							<shottake></shottake>
							<lognote></lognote>
						</logginginfo>
						<labels>
							<label2>Caribbean</label2>
						</labels>
					</clipitem>
					<clipitem id="clipitem-79" premiereChannelType="stereo">
						<masterclipid>masterclip-28</masterclipid>
						<name>154383__semccab__window-wipe.wav</name>
						<enabled>TRUE</enabled>
						<duration>62</duration>
						<rate>
							<timebase>25</timebase>
							<ntsc>FALSE</ntsc>
						</rate>
						<start>7950</start>
						<end>7972</end>
						<in>0</in>
						<out>22</out>
						<pproTicksIn>0</pproTicksIn>
						<pproTicksOut>111767040000</pproTicksOut>
						<file id="file-27">
							<name>154383__semccab__window-wipe.wav</name>
							<pathurl>file://localhost/Volumes/Bingen/Prosjekter/MYNT194016%20WHATS%20COOKING/Lydeffekter/Marita%20SoundFX/154383__semccab__window-wipe.wav</pathurl>
							<rate>
								<timebase>30</timebase>
								<ntsc>TRUE</ntsc>
							</rate>
							<duration>37</duration>
							<timecode>
								<rate>
									<timebase>30</timebase>
									<ntsc>TRUE</ntsc>
								</rate>
								<string>01;02;59;27</string>
								<frame>113285</frame>
								<displayformat>DF</displayformat>
								<reel>
									<name></name>
								</reel>
							</timecode>
							<media>
								<audio>
									<samplecharacteristics>
										<depth>16</depth>
										<samplerate>48000</samplerate>
									</samplecharacteristics>
									<channelcount>2</channelcount>
								</audio>
							</media>
						</file>
						<sourcetrack>
							<mediatype>audio</mediatype>
							<trackindex>1</trackindex>
						</sourcetrack>
							<filter>
								<effect>
									<name>Time Remap</name>
									<effectid>timeremap</effectid>
									<effectcategory>motion</effectcategory>
									<effecttype>motion</effecttype>
									<mediatype>audio</mediatype>
									<parameter authoringApp="PremierePro">
										<parameterid>variablespeed</parameterid>
										<name>variablespeed</name>
										<valuemin>0</valuemin>
										<valuemax>1</valuemax>
										<value>0</value>
									</parameter>
									<parameter authoringApp="PremierePro">
										<parameterid>speed</parameterid>
										<name>speed</name>
										<valuemin>-100000</valuemin>
										<valuemax>100000</valuemax>
										<value>50</value>
									</parameter>
									<parameter authoringApp="PremierePro">
										<parameterid>reverse</parameterid>
										<name>reverse</name>
										<value>FALSE</value>
									</parameter>
									<parameter authoringApp="PremierePro">
										<parameterid>frameblending</parameterid>
										<name>frameblending</name>
										<value>FALSE</value>
									</parameter>
									<parameter authoringApp="PremierePro">
										<parameterid>graphdict</parameterid>
										<name>graphdict</name>
										<valuemin>0</valuemin>
										<valuemax>31</valuemax>
										<value>0</value>
										<keyframe>
											<when>0</when>
											<value>0</value>
											<speedvirtualkf>TRUE</speedvirtualkf>
											<speedkfin>TRUE</speedkfin>
										</keyframe>
										<keyframe>
											<when>22</when>
											<value>11</value>
											<speedvirtualkf>TRUE</speedvirtualkf>
											<speedkfout>TRUE</speedkfout>
										</keyframe>
										<keyframe>
											<when>62</when>
											<value>31</value>
											<speedvirtualkf>TRUE</speedvirtualkf>
											<speedkfend>TRUE</speedkfend>
										</keyframe>
										<interpolation>
											<name>FCPCurve</name>
										</interpolation>
									</parameter>
								</effect>
							</filter>
						<link>
							<linkclipref>clipitem-79</linkclipref>
							<mediatype>audio</mediatype>
							<trackindex>5</trackindex>
							<clipindex>17</clipindex>
							<groupindex>1</groupindex>
						</link>
						<link>
							<linkclipref>clipitem-113</linkclipref>
							<mediatype>audio</mediatype>
							<trackindex>6</trackindex>
							<clipindex>5</clipindex>
							<groupindex>1</groupindex>
						</link>
						<logginginfo>
							<description></description>
							<scene></scene>
							<shottake></shottake>
							<lognote></lognote>
						</logginginfo>
						<labels>
							<label2>Caribbean</label2>
						</labels>
					</clipitem>
					<clipitem id="clipitem-80" premiereChannelType="stereo">
						<masterclipid>masterclip-29</masterclipid>
						<name>128620__n-a-n-i__foley-water-01.wav</name>
						<enabled>TRUE</enabled>
						<duration>757</duration>
						<rate>
							<timebase>25</timebase>
							<ntsc>FALSE</ntsc>
						</rate>
						<start>7972</start>
						<end>7990</end>
						<in>229</in>
						<out>247</out>
						<pproTicksIn>2326786560000</pproTicksIn>
						<pproTicksOut>2509678080000</pproTicksOut>
						<file id="file-28">
							<name>128620__n-a-n-i__foley-water-01.wav</name>
							<pathurl>file://localhost/Volumes/Bingen/Prosjekter/MYNT194016%20WHATS%20COOKING/Lydeffekter/Marita%20SoundFX/128620__n-a-n-i__foley-water-01.wav</pathurl>
							<rate>
								<timebase>30</timebase>
								<ntsc>TRUE</ntsc>
							</rate>
							<duration>908</duration>
							<timecode>
								<rate>
									<timebase>30</timebase>
									<ntsc>TRUE</ntsc>
								</rate>
								<string>00;00;06;12</string>
								<frame>192</frame>
								<displayformat>DF</displayformat>
								<reel>
									<name></name>
								</reel>
							</timecode>
							<media>
								<audio>
									<samplecharacteristics>
										<depth>16</depth>
										<samplerate>48000</samplerate>
									</samplecharacteristics>
									<channelcount>2</channelcount>
								</audio>
							</media>
						</file>
						<sourcetrack>
							<mediatype>audio</mediatype>
							<trackindex>1</trackindex>
						</sourcetrack>
						<link>
							<linkclipref>clipitem-80</linkclipref>
							<mediatype>audio</mediatype>
							<trackindex>5</trackindex>
							<clipindex>18</clipindex>
							<groupindex>1</groupindex>
						</link>
						<link>
							<linkclipref>clipitem-114</linkclipref>
							<mediatype>audio</mediatype>
							<trackindex>6</trackindex>
							<clipindex>6</clipindex>
							<groupindex>1</groupindex>
						</link>
						<logginginfo>
							<description></description>
							<scene></scene>
							<shottake></shottake>
							<lognote></lognote>
						</logginginfo>
						<labels>
							<label2>Caribbean</label2>
						</labels>
					</clipitem>
					<clipitem id="clipitem-81" premiereChannelType="stereo">
						<masterclipid>masterclip-30</masterclipid>
						<name>328212__creativesoundeffects__woosh-3.wav</name>
						<enabled>TRUE</enabled>
						<duration>31</duration>
						<rate>
							<timebase>25</timebase>
							<ntsc>FALSE</ntsc>
						</rate>
						<start>14544</start>
						<end>14575</end>
						<in>0</in>
						<out>31</out>
						<pproTicksIn>0</pproTicksIn>
						<pproTicksOut>251983872000</pproTicksOut>
						<file id="file-29">
							<name>328212__creativesoundeffects__woosh-3.wav</name>
							<pathurl>file://localhost/Volumes/Bingen/Prosjekter/MYNT194016%20WHATS%20COOKING/Lydeffekter/Jan%20Lydeffekter/Woosh/328212__creativesoundeffects__woosh-3.wav</pathurl>
							<rate>
								<timebase>30</timebase>
								<ntsc>TRUE</ntsc>
							</rate>
							<duration>29</duration>
							<timecode>
								<rate>
									<timebase>30</timebase>
									<ntsc>TRUE</ntsc>
								</rate>
								<string>00;00;00;00</string>
								<frame>0</frame>
								<displayformat>DF</displayformat>
								<reel>
									<name></name>
								</reel>
							</timecode>
							<media>
								<audio>
									<samplecharacteristics>
										<depth>16</depth>
										<samplerate>48000</samplerate>
									</samplecharacteristics>
									<channelcount>2</channelcount>
								</audio>
							</media>
						</file>
						<sourcetrack>
							<mediatype>audio</mediatype>
							<trackindex>1</trackindex>
						</sourcetrack>
							<filter>
								<effect>
									<name>Time Remap</name>
									<effectid>timeremap</effectid>
									<effectcategory>motion</effectcategory>
									<effecttype>motion</effecttype>
									<mediatype>audio</mediatype>
									<parameter authoringApp="PremierePro">
										<parameterid>variablespeed</parameterid>
										<name>variablespeed</name>
										<valuemin>0</valuemin>
										<valuemax>1</valuemax>
										<value>0</value>
									</parameter>
									<parameter authoringApp="PremierePro">
										<parameterid>speed</parameterid>
										<name>speed</name>
										<valuemin>-100000</valuemin>
										<valuemax>100000</valuemax>
										<value>80</value>
									</parameter>
									<parameter authoringApp="PremierePro">
										<parameterid>reverse</parameterid>
										<name>reverse</name>
										<value>FALSE</value>
									</parameter>
									<parameter authoringApp="PremierePro">
										<parameterid>frameblending</parameterid>
										<name>frameblending</name>
										<value>FALSE</value>
									</parameter>
									<parameter authoringApp="PremierePro">
										<parameterid>graphdict</parameterid>
										<name>graphdict</name>
										<valuemin>0</valuemin>
										<valuemax>24</valuemax>
										<value>0</value>
										<keyframe>
											<when>0</when>
											<value>0</value>
											<speedvirtualkf>TRUE</speedvirtualkf>
											<speedkfin>TRUE</speedkfin>
										</keyframe>
										<keyframe>
											<when>31</when>
											<value>24</value>
											<speedvirtualkf>TRUE</speedvirtualkf>
											<speedkfout>TRUE</speedkfout>
										</keyframe>
										<interpolation>
											<name>FCPCurve</name>
										</interpolation>
									</parameter>
								</effect>
							</filter>
						<link>
							<linkclipref>clipitem-81</linkclipref>
							<mediatype>audio</mediatype>
							<trackindex>5</trackindex>
							<clipindex>19</clipindex>
							<groupindex>1</groupindex>
						</link>
						<link>
							<linkclipref>clipitem-115</linkclipref>
							<mediatype>audio</mediatype>
							<trackindex>6</trackindex>
							<clipindex>7</clipindex>
							<groupindex>1</groupindex>
						</link>
						<logginginfo>
							<description></description>
							<scene></scene>
							<shottake></shottake>
							<lognote></lognote>
						</logginginfo>
						<labels>
							<label2>Caribbean</label2>
						</labels>
					</clipitem>
					<transitionitem>
						<start>27321</start>
						<end>27334</end>
						<alignment>start-black</alignment>
						<cutPointTicks>0</cutPointTicks>
						<rate>
							<timebase>25</timebase>
							<ntsc>FALSE</ntsc>
						</rate>
						<effect>
							<name>Cross Fade (+3dB)</name>
							<effectid>KGAudioTransCrossFade3dB</effectid>
							<effecttype>transition</effecttype>
							<mediatype>audio</mediatype>
							<wipecode>0</wipecode>
							<wipeaccuracy>100</wipeaccuracy>
							<startratio>0</startratio>
							<endratio>1</endratio>
							<reverse>FALSE</reverse>
						</effect>
					</transitionitem>
					<clipitem id="clipitem-82" premiereChannelType="mono">
						<masterclipid>masterclip-31</masterclipid>
						<name>GOPR0005.mov</name>
						<enabled>TRUE</enabled>
						<duration>7518</duration>
						<rate>
							<timebase>25</timebase>
							<ntsc>FALSE</ntsc>
						</rate>
						<start>-1</start>
						<end>27335</end>
						<in>132</in>
						<out>146</out>
						<pproTicksIn>1077027840000</pproTicksIn>
						<pproTicksOut>1190827008000</pproTicksOut>
						<pixelaspectratio>square</pixelaspectratio>
						<anamorphic>FALSE</anamorphic>
						<file id="file-30">
							<name>GOPR0005.mov</name>
							<pathurl>file://localhost/Volumes/Bingen/Prosjekter/MYNT194016%20WHATS%20COOKING/Media/Episode%2006%20Lykke/VB-opptak/02052016/ABIEL%20(GOPRO)/ProRes%20HD/GOPR0005.mov</pathurl>
							<rate>
								<timebase>25</timebase>
								<ntsc>FALSE</ntsc>
							</rate>
							<duration>6015</duration>
							<timecode>
								<rate>
									<timebase>25</timebase>
									<ntsc>FALSE</ntsc>
								</rate>
								<string>11:15:47:22</string>
								<frame>1013697</frame>
								<displayformat>NDF</displayformat>
								<reel>
									<name></name>
								</reel>
							</timecode>
							<media>
								<video>
									<samplecharacteristics>
										<rate>
											<timebase>25</timebase>
											<ntsc>FALSE</ntsc>
										</rate>
										<width>1920</width>
										<height>1080</height>
										<anamorphic>FALSE</anamorphic>
										<pixelaspectratio>square</pixelaspectratio>
										<fielddominance>none</fielddominance>
									</samplecharacteristics>
								</video>
								<audio>
									<samplecharacteristics>
										<depth>16</depth>
										<samplerate>48000</samplerate>
									</samplecharacteristics>
									<channelcount>1</channelcount>
									<layout>stereo</layout>
									<audiochannel>
										<sourcechannel>1</sourcechannel>
										<channellabel>left</channellabel>
									</audiochannel>
								</audio>
								<audio>
									<samplecharacteristics>
										<depth>16</depth>
										<samplerate>48000</samplerate>
									</samplecharacteristics>
									<channelcount>1</channelcount>
									<layout>stereo</layout>
									<audiochannel>
										<sourcechannel>2</sourcechannel>
										<channellabel>right</channellabel>
									</audiochannel>
								</audio>
							</media>
						</file>
						<sourcetrack>
							<mediatype>audio</mediatype>
							<trackindex>2</trackindex>
						</sourcetrack>
							<filter>
								<effect>
									<name>Gain</name>
									<effectid>{61756678, 4761696e, 4b657947}</effectid>
									<effecttype>filter</effecttype>
									<mediatype>audio</mediatype>
									<parameter authoringApp="PremierePro">
										<parameterid>Gain(dB)</parameterid>
										<name>Gain(dB)</name>
										<valuemin>-96</valuemin>
										<valuemax>96</valuemax>
										<value>-13</value>
									</parameter>
								</effect>
							</filter>
							<filter>
								<effect>
									<name>Time Remap</name>
									<effectid>timeremap</effectid>
									<effectcategory>motion</effectcategory>
									<effecttype>motion</effecttype>
									<mediatype>audio</mediatype>
									<parameter authoringApp="PremierePro">
										<parameterid>variablespeed</parameterid>
										<name>variablespeed</name>
										<valuemin>0</valuemin>
										<valuemax>1</valuemax>
										<value>0</value>
									</parameter>
									<parameter authoringApp="PremierePro">
										<parameterid>speed</parameterid>
										<name>speed</name>
										<valuemin>-100000</valuemin>
										<valuemax>100000</valuemax>
										<value>80</value>
									</parameter>
									<parameter authoringApp="PremierePro">
										<parameterid>reverse</parameterid>
										<name>reverse</name>
										<value>FALSE</value>
									</parameter>
									<parameter authoringApp="PremierePro">
										<parameterid>frameblending</parameterid>
										<name>frameblending</name>
										<value>FALSE</value>
									</parameter>
									<parameter authoringApp="PremierePro">
										<parameterid>graphdict</parameterid>
										<name>graphdict</name>
										<valuemin>0</valuemin>
										<valuemax>6014</valuemax>
										<value>0</value>
										<keyframe>
											<when>0</when>
											<value>0</value>
											<speedvirtualkf>TRUE</speedvirtualkf>
											<speedkfstart>TRUE</speedkfstart>
										</keyframe>
										<keyframe>
											<when>132</when>
											<value>105</value>
											<speedvirtualkf>TRUE</speedvirtualkf>
											<speedkfin>TRUE</speedkfin>
										</keyframe>
										<keyframe>
											<when>146</when>
											<value>116</value>
											<speedvirtualkf>TRUE</speedvirtualkf>
											<speedkfout>TRUE</speedkfout>
										</keyframe>
										<keyframe>
											<when>7518</when>
											<value>6014</value>
											<speedvirtualkf>TRUE</speedvirtualkf>
											<speedkfend>TRUE</speedkfend>
										</keyframe>
										<interpolation>
											<name>FCPCurve</name>
										</interpolation>
									</parameter>
								</effect>
							</filter>
						<logginginfo>
							<description>Ab i taxi</description>
							<scene></scene>
							<shottake></shottake>
							<lognote></lognote>
						</logginginfo>
						<labels>
							<label2>Iris</label2>
						</labels>
					</clipitem>
					<clipitem id="clipitem-83" premiereChannelType="mono">
						<masterclipid>masterclip-32</masterclipid>
						<name>02 Foredrag-T01-Multicam</name>
						<enabled>TRUE</enabled>
						<duration>76803</duration>
						<rate>
							<timebase>25</timebase>
							<ntsc>FALSE</ntsc>
						</rate>
						<start>30420</start>
						<end>30616</end>
						<in>46163</in>
						<out>46359</out>
						<pproTicksIn>469045624320000</pproTicksIn>
						<pproTicksOut>471037109760000</pproTicksOut>
						<sequence id="sequence-2" TL.SQAudioVisibleBase="0" TL.SQVideoVisibleBase="0" TL.SQVisibleBaseTime="0" TL.SQAVDividerPosition="0.147969052196" TL.SQHideShyTracks="0" TL.SQHeaderWidth="184" Monitor.ProgramZoomOut="625123215360000" Monitor.ProgramZoomIn="0" TL.SQTimePerPixel="1.8746015125072717" AM.TrackVScrollPosition="0" AM.TrackScrollPosition="0" MZ.EditLine="58332234240000" MZ.Sequence.PreviewFrameSizeHeight="1080" MZ.Sequence.PreviewFrameSizeWidth="1920" MZ.Sequence.AudioTimeDisplayFormat="200" MZ.Sequence.PreviewRenderingClassID="1061109567" MZ.Sequence.PreviewRenderingPresetCodec="1634755438" MZ.Sequence.PreviewRenderingPresetPath="EncoderPresets/SequencePreview/e43ae329-eea5-4a04-b964-b72cf263ee81/Blackmagic QuickTime Movie.epr" MZ.Sequence.PreviewUseMaxRenderQuality="false" MZ.Sequence.PreviewUseMaxBitDepth="false" MZ.Sequence.EditingModeGUID="e43ae329-eea5-4a04-b964-b72cf263ee81" MZ.Sequence.VideoTimeDisplayFormat="101" MZ.WorkOutPoint="625123215360000" MZ.WorkInPoint="0" MZ.ZeroPoint="11259655464960000">
							<duration>61524</duration>
							<rate>
								<timebase>25</timebase>
								<ntsc>FALSE</ntsc>
							</rate>
							<name>02 Foredrag-T01-Multicam</name>
							<media>
								<video>
									<format>
										<samplecharacteristics>
											<rate>
												<timebase>25</timebase>
												<ntsc>FALSE</ntsc>
											</rate>
											<codec>
												<name>Apple ProRes 422</name>
												<appspecificdata>
													<appname>Final Cut Pro</appname>
													<appmanufacturer>Apple Inc.</appmanufacturer>
													<appversion>7.0</appversion>
													<data>
														<qtcodec>
															<codecname>Apple ProRes 422</codecname>
															<codectypename>Apple ProRes 422</codectypename>
															<codectypecode>apcn</codectypecode>
															<codecvendorcode>appl</codecvendorcode>
															<spatialquality>1024</spatialquality>
															<temporalquality>0</temporalquality>
															<keyframerate>0</keyframerate>
															<datarate>0</datarate>
														</qtcodec>
													</data>
												</appspecificdata>
											</codec>
											<width>1920</width>
											<height>1080</height>
											<anamorphic>FALSE</anamorphic>
											<pixelaspectratio>square</pixelaspectratio>
											<fielddominance>none</fielddominance>
											<colordepth>24</colordepth>
										</samplecharacteristics>
									</format>
									<track TL.SQTrackShy="0" TL.SQTrackExpandedHeight="40" TL.SQTrackExpanded="1" MZ.TrackTargeted="0">
										<clipitem id="clipitem-84">
											<masterclipid>masterclip-2</masterclipid>
											<name>Clip0001.mov</name>
											<enabled>TRUE</enabled>
											<duration>61944</duration>
											<rate>
												<timebase>25</timebase>
												<ntsc>FALSE</ntsc>
											</rate>
											<start>0</start>
											<end>61524</end>
											<in>420</in>
											<out>61944</out>
											<pproTicksIn>4267468800000</pproTicksIn>
											<pproTicksOut>629390684160000</pproTicksOut>
											<alphatype>none</alphatype>
											<file id="file-2"/>
											<link>
												<linkclipref>clipitem-84</linkclipref>
												<mediatype>video</mediatype>
												<trackindex>1</trackindex>
												<clipindex>1</clipindex>
											</link>
											<link>
												<linkclipref>clipitem-91</linkclipref>
												<mediatype>audio</mediatype>
												<trackindex>3</trackindex>
												<clipindex>1</clipindex>
												<groupindex>1</groupindex>
											</link>
											<link>
												<linkclipref>clipitem-92</linkclipref>
												<mediatype>audio</mediatype>
												<trackindex>4</trackindex>
												<clipindex>1</clipindex>
												<groupindex>1</groupindex>
											</link>
											<logginginfo>
												<description>Foredrag, mot sal </description>
												<scene></scene>
												<shottake></shottake>
												<lognote></lognote>
											</logginginfo>
											<labels>
												<label2>Iris</label2>
											</labels>
										</clipitem>
										<enabled>TRUE</enabled>
										<locked>FALSE</locked>
									</track>
									<track TL.SQTrackShy="0" TL.SQTrackExpandedHeight="25" TL.SQTrackExpanded="1" MZ.TrackTargeted="0">
										<clipitem id="clipitem-85">
											<masterclipid>masterclip-3</masterclipid>
											<name>Clip0001.mov</name>
											<enabled>TRUE</enabled>
											<duration>59676</duration>
											<rate>
												<timebase>25</timebase>
												<ntsc>FALSE</ntsc>
											</rate>
											<start>0</start>
											<end>58170</end>
											<in>1506</in>
											<out>59676</out>
											<pproTicksIn>15301923840000</pproTicksIn>
											<pproTicksOut>606346352640000</pproTicksOut>
											<alphatype>none</alphatype>
											<file id="file-3"/>
											<link>
												<linkclipref>clipitem-85</linkclipref>
												<mediatype>video</mediatype>
												<trackindex>2</trackindex>
												<clipindex>1</clipindex>
											</link>
											<link>
												<linkclipref>clipitem-93</linkclipref>
												<mediatype>audio</mediatype>
												<trackindex>5</trackindex>
												<clipindex>1</clipindex>
												<groupindex>1</groupindex>
											</link>
											<link>
												<linkclipref>clipitem-94</linkclipref>
												<mediatype>audio</mediatype>
												<trackindex>6</trackindex>
												<clipindex>1</clipindex>
												<groupindex>1</groupindex>
											</link>
											<logginginfo>
												<description>foredragssal HNÆ Abiel</description>
												<scene></scene>
												<shottake></shottake>
												<lognote></lognote>
											</logginginfo>
											<labels>
												<label2>Iris</label2>
											</labels>
										</clipitem>
										<enabled>TRUE</enabled>
										<locked>FALSE</locked>
									</track>
									<track TL.SQTrackShy="0" TL.SQTrackExpandedHeight="25" TL.SQTrackExpanded="1" MZ.TrackTargeted="0">
										<clipitem id="clipitem-86">
											<masterclipid>masterclip-33</masterclipid>
											<name>Clip0001.mov</name>
											<enabled>TRUE</enabled>
											<duration>69900</duration>
											<rate>
												<timebase>25</timebase>
												<ntsc>FALSE</ntsc>
											</rate>
											<start>0</start>
											<end>58658</end>
											<in>11242</in>
											<out>69900</out>
											<pproTicksIn>114225914880000</pproTicksIn>
											<pproTicksOut>710228736000000</pproTicksOut>
											<alphatype>none</alphatype>
											<pixelaspectratio>square</pixelaspectratio>
											<anamorphic>FALSE</anamorphic>
											<file id="file-31">
												<name>Clip0001.mov</name>
												<pathurl>file://localhost/Volumes/Bingen/Prosjekter/MYNT194016%20WHATS%20COOKING/Media/Episode%2006%20Lykke/VB-opptak/02052016/KAM%20C%20(FS5)/ProRes/Clip0001.mov</pathurl>
												<rate>
													<timebase>25</timebase>
													<ntsc>FALSE</ntsc>
												</rate>
												<duration>69900</duration>
												<timecode>
													<rate>
														<timebase>25</timebase>
														<ntsc>FALSE</ntsc>
													</rate>
													<string>00:00:00:00</string>
													<frame>0</frame>
													<displayformat>NDF</displayformat>
													<reel>
														<name></name>
													</reel>
												</timecode>
												<media>
													<video>
														<samplecharacteristics>
															<rate>
																<timebase>25</timebase>
																<ntsc>FALSE</ntsc>
															</rate>
															<width>1920</width>
															<height>1080</height>
															<anamorphic>FALSE</anamorphic>
															<pixelaspectratio>square</pixelaspectratio>
															<fielddominance>none</fielddominance>
														</samplecharacteristics>
													</video>
													<audio>
														<samplecharacteristics>
															<depth>16</depth>
															<samplerate>48000</samplerate>
														</samplecharacteristics>
														<channelcount>1</channelcount>
														<audiochannel>
															<sourcechannel>1</sourcechannel>
														</audiochannel>
													</audio>
													<audio>
														<samplecharacteristics>
															<depth>16</depth>
															<samplerate>48000</samplerate>
														</samplecharacteristics>
														<channelcount>1</channelcount>
														<audiochannel>
															<sourcechannel>2</sourcechannel>
														</audiochannel>
													</audio>
												</media>
											</file>
											<link>
												<linkclipref>clipitem-86</linkclipref>
												<mediatype>video</mediatype>
												<trackindex>3</trackindex>
												<clipindex>1</clipindex>
											</link>
											<link>
												<linkclipref>clipitem-95</linkclipref>
												<mediatype>audio</mediatype>
												<trackindex>7</trackindex>
												<clipindex>1</clipindex>
												<groupindex>1</groupindex>
											</link>
											<link>
												<linkclipref>clipitem-96</linkclipref>
												<mediatype>audio</mediatype>
												<trackindex>8</trackindex>
												<clipindex>1</clipindex>
												<groupindex>1</groupindex>
											</link>
											<logginginfo>
												<description>foredragssal TOT mot publikum</description>
												<scene></scene>
												<shottake></shottake>
												<lognote></lognote>
											</logginginfo>
											<labels>
												<label2>Iris</label2>
											</labels>
										</clipitem>
										<enabled>TRUE</enabled>
										<locked>FALSE</locked>
									</track>
									<track TL.SQTrackShy="0" TL.SQTrackExpandedHeight="25" TL.SQTrackExpanded="1" MZ.TrackTargeted="0">
										<clipitem id="clipitem-87">
											<masterclipid>masterclip-7</masterclipid>
											<name>002_0456.mov</name>
											<enabled>TRUE</enabled>
											<duration>59717</duration>
											<rate>
												<timebase>25</timebase>
												<ntsc>FALSE</ntsc>
											</rate>
											<start>0</start>
											<end>58771</end>
											<in>946</in>
											<out>59717</out>
											<pproTicksIn>9611965440000</pproTicksIn>
											<pproTicksOut>606762938880000</pproTicksOut>
											<alphatype>none</alphatype>
											<file id="file-6"/>
											<link>
												<linkclipref>clipitem-87</linkclipref>
												<mediatype>video</mediatype>
												<trackindex>4</trackindex>
												<clipindex>1</clipindex>
											</link>
											<link>
												<linkclipref>clipitem-97</linkclipref>
												<mediatype>audio</mediatype>
												<trackindex>9</trackindex>
												<clipindex>1</clipindex>
												<groupindex>1</groupindex>
											</link>
											<link>
												<linkclipref>clipitem-98</linkclipref>
												<mediatype>audio</mediatype>
												<trackindex>10</trackindex>
												<clipindex>1</clipindex>
												<groupindex>1</groupindex>
											</link>
											<link>
												<linkclipref>clipitem-99</linkclipref>
												<mediatype>audio</mediatype>
												<trackindex>11</trackindex>
												<clipindex>1</clipindex>
												<groupindex>1</groupindex>
											</link>
											<link>
												<linkclipref>clipitem-100</linkclipref>
												<mediatype>audio</mediatype>
												<trackindex>12</trackindex>
												<clipindex>1</clipindex>
												<groupindex>1</groupindex>
											</link>
											<logginginfo>
												<description>Foredragssal , Abiels foredrag på slutten</description>
												<scene></scene>
												<shottake></shottake>
												<lognote>mIkkel/Aon mygg</lognote>
											</logginginfo>
											<labels>
												<label2>Iris</label2>
											</labels>
										</clipitem>
										<enabled>TRUE</enabled>
										<locked>FALSE</locked>
									</track>
									<track TL.SQTrackShy="0" TL.SQTrackExpandedHeight="25" TL.SQTrackExpanded="1" MZ.TrackTargeted="1">
										<clipitem id="clipitem-88">
											<masterclipid>masterclip-34</masterclipid>
											<name>Mikkel og Aon GoPro HD Stitched.mov</name>
											<enabled>TRUE</enabled>
											<duration>19241</duration>
											<rate>
												<timebase>25</timebase>
												<ntsc>FALSE</ntsc>
											</rate>
											<start>39556</start>
											<end>58797</end>
											<in>0</in>
											<out>19241</out>
											<pproTicksIn>0</pproTicksIn>
											<pproTicksOut>195500874240000</pproTicksOut>
											<alphatype>none</alphatype>
											<pixelaspectratio>square</pixelaspectratio>
											<anamorphic>FALSE</anamorphic>
											<file id="file-32">
												<name>Mikkel og Aon GoPro HD Stitched.mov</name>
												<pathurl>file://localhost/Volumes/Bingen/Prosjekter/MYNT194016%20WHATS%20COOKING/Media/Episode%2006%20Lykke/VB-opptak/02052016/MIKKEL%20&amp;%20AON%20(GOPRO)/ProRes%20HD/Mikkel%20og%20Aon%20GoPro%20HD%20Stitched.mov</pathurl>
												<rate>
													<timebase>25</timebase>
													<ntsc>FALSE</ntsc>
												</rate>
												<duration>19241</duration>
												<timecode>
													<rate>
														<timebase>25</timebase>
														<ntsc>FALSE</ntsc>
													</rate>
													<string>00:00:00:00</string>
													<frame>0</frame>
													<displayformat>NDF</displayformat>
													<reel>
														<name></name>
													</reel>
												</timecode>
												<media>
													<video>
														<samplecharacteristics>
															<rate>
																<timebase>25</timebase>
																<ntsc>FALSE</ntsc>
															</rate>
															<width>1920</width>
															<height>1080</height>
															<anamorphic>FALSE</anamorphic>
															<pixelaspectratio>square</pixelaspectratio>
															<fielddominance>none</fielddominance>
														</samplecharacteristics>
													</video>
													<audio>
														<samplecharacteristics>
															<depth>16</depth>
															<samplerate>48000</samplerate>
														</samplecharacteristics>
														<channelcount>1</channelcount>
														<layout>stereo</layout>
														<audiochannel>
															<sourcechannel>1</sourcechannel>
															<channellabel>left</channellabel>
														</audiochannel>
													</audio>
													<audio>
														<samplecharacteristics>
															<depth>16</depth>
															<samplerate>48000</samplerate>
														</samplecharacteristics>
														<channelcount>1</channelcount>
														<layout>stereo</layout>
														<audiochannel>
															<sourcechannel>2</sourcechannel>
															<channellabel>right</channellabel>
														</audiochannel>
													</audio>
												</media>
											</file>
											<link>
												<linkclipref>clipitem-88</linkclipref>
												<mediatype>video</mediatype>
												<trackindex>5</trackindex>
												<clipindex>1</clipindex>
											</link>
											<link>
												<linkclipref>clipitem-101</linkclipref>
												<mediatype>audio</mediatype>
												<trackindex>13</trackindex>
												<clipindex>1</clipindex>
												<groupindex>1</groupindex>
											</link>
											<link>
												<linkclipref>clipitem-102</linkclipref>
												<mediatype>audio</mediatype>
												<trackindex>14</trackindex>
												<clipindex>1</clipindex>
												<groupindex>1</groupindex>
											</link>
											<logginginfo>
												<description>AB foredrag, M+Aon selfie</description>
												<scene></scene>
												<shottake></shottake>
												<lognote></lognote>
											</logginginfo>
											<labels>
												<label2>Iris</label2>
											</labels>
										</clipitem>
										<enabled>TRUE</enabled>
										<locked>FALSE</locked>
									</track>
								</video>
								<audio>
									<numOutputChannels>18</numOutputChannels>
									<format>
										<samplecharacteristics>
											<depth>16</depth>
											<samplerate>48000</samplerate>
										</samplecharacteristics>
									</format>
									<outputs>
										<group>
											<index>1</index>
											<numchannels>1</numchannels>
											<downmix>0</downmix>
											<channel>
												<index>1</index>
											</channel>
										</group>
										<group>
											<index>2</index>
											<numchannels>1</numchannels>
											<downmix>0</downmix>
											<channel>
												<index>2</index>
											</channel>
										</group>
										<group>
											<index>3</index>
											<numchannels>1</numchannels>
											<downmix>0</downmix>
											<channel>
												<index>3</index>
											</channel>
										</group>
										<group>
											<index>4</index>
											<numchannels>1</numchannels>
											<downmix>0</downmix>
											<channel>
												<index>4</index>
											</channel>
										</group>
										<group>
											<index>5</index>
											<numchannels>1</numchannels>
											<downmix>0</downmix>
											<channel>
												<index>5</index>
											</channel>
										</group>
										<group>
											<index>6</index>
											<numchannels>1</numchannels>
											<downmix>0</downmix>
											<channel>
												<index>6</index>
											</channel>
										</group>
										<group>
											<index>7</index>
											<numchannels>1</numchannels>
											<downmix>0</downmix>
											<channel>
												<index>7</index>
											</channel>
										</group>
										<group>
											<index>8</index>
											<numchannels>1</numchannels>
											<downmix>0</downmix>
											<channel>
												<index>8</index>
											</channel>
										</group>
										<group>
											<index>9</index>
											<numchannels>1</numchannels>
											<downmix>0</downmix>
											<channel>
												<index>9</index>
											</channel>
										</group>
										<group>
											<index>10</index>
											<numchannels>1</numchannels>
											<downmix>0</downmix>
											<channel>
												<index>10</index>
											</channel>
										</group>
										<group>
											<index>11</index>
											<numchannels>1</numchannels>
											<downmix>0</downmix>
											<channel>
												<index>11</index>
											</channel>
										</group>
										<group>
											<index>12</index>
											<numchannels>1</numchannels>
											<downmix>0</downmix>
											<channel>
												<index>12</index>
											</channel>
										</group>
										<group>
											<index>13</index>
											<numchannels>1</numchannels>
											<downmix>0</downmix>
											<channel>
												<index>13</index>
											</channel>
										</group>
										<group>
											<index>14</index>
											<numchannels>1</numchannels>
											<downmix>0</downmix>
											<channel>
												<index>14</index>
											</channel>
										</group>
										<group>
											<index>15</index>
											<numchannels>1</numchannels>
											<downmix>0</downmix>
											<channel>
												<index>15</index>
											</channel>
										</group>
										<group>
											<index>16</index>
											<numchannels>1</numchannels>
											<downmix>0</downmix>
											<channel>
												<index>16</index>
											</channel>
										</group>
										<group>
											<index>17</index>
											<numchannels>1</numchannels>
											<downmix>0</downmix>
											<channel>
												<index>17</index>
											</channel>
										</group>
										<group>
											<index>18</index>
											<numchannels>1</numchannels>
											<downmix>0</downmix>
											<channel>
												<index>18</index>
											</channel>
										</group>
									</outputs>
									<track TL.SQTrackAudioKeyframeStyle="0" TL.SQTrackShy="0" TL.SQTrackExpandedHeight="55" TL.SQTrackExpanded="1" MZ.TrackTargeted="1" PannerCurrentValue="0" PannerIsInverted="true" PannerStartKeyframe="-91445760000000000,0.,0,0,0,0,0,0" PannerName="Balance" currentExplodedTrackIndex="0" totalExplodedTrackCount="1" premiereTrackType="Stereo">
										<clipitem id="clipitem-89" premiereChannelType="mono">
											<masterclipid>masterclip-35</masterclipid>
											<name>MONO-001.wav</name>
											<enabled>TRUE</enabled>
											<duration>65562</duration>
											<rate>
												<timebase>25</timebase>
												<ntsc>FALSE</ntsc>
											</rate>
											<start>0</start>
											<end>61524</end>
											<in>1</in>
											<out>61525</out>
											<pproTicksIn>10160640000</pproTicksIn>
											<pproTicksOut>625133376000000</pproTicksOut>
											<file id="file-33">
												<name>MONO-001.wav</name>
												<pathurl>file://localhost/Volumes/Bingen/Prosjekter/MYNT194016%20WHATS%20COOKING/Media/Episode%2006%20Lykke/VB-opptak/02052016/LYD%20H4N/STEREO/FOLDER01/MONO-001.wav</pathurl>
												<rate>
													<timebase>30</timebase>
													<ntsc>TRUE</ntsc>
												</rate>
												<duration>78596</duration>
												<timecode>
													<rate>
														<timebase>30</timebase>
														<ntsc>TRUE</ntsc>
													</rate>
													<string>11;06;15;01</string>
													<frame>1198051</frame>
													<displayformat>DF</displayformat>
													<reel>
														<name></name>
													</reel>
												</timecode>
												<media>
													<audio>
														<samplecharacteristics>
															<depth>16</depth>
															<samplerate>48000</samplerate>
														</samplecharacteristics>
														<channelcount>1</channelcount>
														<layout>stereo</layout>
														<audiochannel>
															<sourcechannel>1</sourcechannel>
															<channellabel>left</channellabel>
														</audiochannel>
													</audio>
													<audio>
														<samplecharacteristics>
															<depth>16</depth>
															<samplerate>48000</samplerate>
														</samplecharacteristics>
														<channelcount>1</channelcount>
														<layout>stereo</layout>
														<audiochannel>
															<sourcechannel>2</sourcechannel>
															<channellabel>right</channellabel>
														</audiochannel>
													</audio>
												</media>
											</file>
											<sourcetrack>
												<mediatype>audio</mediatype>
												<trackindex>1</trackindex>
											</sourcetrack>
											<link>
												<linkclipref>clipitem-89</linkclipref>
												<mediatype>audio</mediatype>
												<trackindex>1</trackindex>
												<clipindex>1</clipindex>
												<groupindex>1</groupindex>
											</link>
											<link>
												<linkclipref>clipitem-90</linkclipref>
												<mediatype>audio</mediatype>
												<trackindex>2</trackindex>
												<clipindex>1</clipindex>
												<groupindex>1</groupindex>
											</link>
											<logginginfo>
												<description>forelesning</description>
												<scene></scene>
												<shottake></shottake>
												<lognote></lognote>
											</logginginfo>
											<labels>
												<label2>Caribbean</label2>
											</labels>
										</clipitem>
										<enabled>TRUE</enabled>
										<locked>FALSE</locked>
										<outputchannelindex>1</outputchannelindex>
									</track>
									<track TL.SQTrackAudioKeyframeStyle="0" TL.SQTrackShy="0" TL.SQTrackExpandedHeight="55" TL.SQTrackExpanded="1" MZ.TrackTargeted="1" PannerIsInverted="true" PannerName="Balance" currentExplodedTrackIndex="0" totalExplodedTrackCount="1" premiereTrackType="Stereo">
										<clipitem id="clipitem-90" premiereChannelType="mono">
											<masterclipid>masterclip-35</masterclipid>
											<name>MONO-001.wav</name>
											<enabled>TRUE</enabled>
											<duration>65562</duration>
											<rate>
												<timebase>25</timebase>
												<ntsc>FALSE</ntsc>
											</rate>
											<start>0</start>
											<end>61524</end>
											<in>1</in>
											<out>61525</out>
											<pproTicksIn>10160640000</pproTicksIn>
											<pproTicksOut>625133376000000</pproTicksOut>
											<file id="file-33"/>
											<sourcetrack>
												<mediatype>audio</mediatype>
												<trackindex>2</trackindex>
											</sourcetrack>
											<link>
												<linkclipref>clipitem-89</linkclipref>
												<mediatype>audio</mediatype>
												<trackindex>1</trackindex>
												<clipindex>1</clipindex>
												<groupindex>1</groupindex>
											</link>
											<link>
												<linkclipref>clipitem-90</linkclipref>
												<mediatype>audio</mediatype>
												<trackindex>2</trackindex>
												<clipindex>1</clipindex>
												<groupindex>1</groupindex>
											</link>
											<logginginfo>
												<description>forelesning</description>
												<scene></scene>
												<shottake></shottake>
												<lognote></lognote>
											</logginginfo>
											<labels>
												<label2>Caribbean</label2>
											</labels>
										</clipitem>
										<enabled>TRUE</enabled>
										<locked>FALSE</locked>
										<outputchannelindex>2</outputchannelindex>
									</track>
									<track TL.SQTrackAudioKeyframeStyle="0" TL.SQTrackShy="0" TL.SQTrackExpandedHeight="55" TL.SQTrackExpanded="1" MZ.TrackTargeted="1" PannerCurrentValue="0" PannerIsInverted="true" PannerStartKeyframe="-91445760000000000,0.,0,0,0,0,0,0" PannerName="Balance" currentExplodedTrackIndex="0" totalExplodedTrackCount="1" premiereTrackType="Stereo">
										<clipitem id="clipitem-91" premiereChannelType="mono">
											<masterclipid>masterclip-2</masterclipid>
											<name>Clip0001.mov</name>
											<enabled>TRUE</enabled>
											<duration>61944</duration>
											<rate>
												<timebase>25</timebase>
												<ntsc>FALSE</ntsc>
											</rate>
											<start>0</start>
											<end>61524</end>
											<in>420</in>
											<out>61944</out>
											<pproTicksIn>4267468800000</pproTicksIn>
											<pproTicksOut>629390684160000</pproTicksOut>
											<file id="file-2"/>
											<sourcetrack>
												<mediatype>audio</mediatype>
												<trackindex>1</trackindex>
											</sourcetrack>
											<link>
												<linkclipref>clipitem-84</linkclipref>
												<mediatype>video</mediatype>
												<trackindex>1</trackindex>
												<clipindex>1</clipindex>
											</link>
											<link>
												<linkclipref>clipitem-91</linkclipref>
												<mediatype>audio</mediatype>
												<trackindex>3</trackindex>
												<clipindex>1</clipindex>
												<groupindex>1</groupindex>
											</link>
											<link>
												<linkclipref>clipitem-92</linkclipref>
												<mediatype>audio</mediatype>
												<trackindex>4</trackindex>
												<clipindex>1</clipindex>
												<groupindex>1</groupindex>
											</link>
											<logginginfo>
												<description>Foredrag, mot sal </description>
												<scene></scene>
												<shottake></shottake>
												<lognote></lognote>
											</logginginfo>
											<labels>
												<label2>Iris</label2>
											</labels>
										</clipitem>
										<enabled>TRUE</enabled>
										<locked>FALSE</locked>
										<outputchannelindex>3</outputchannelindex>
									</track>
									<track TL.SQTrackAudioKeyframeStyle="0" TL.SQTrackShy="0" TL.SQTrackExpandedHeight="55" TL.SQTrackExpanded="1" MZ.TrackTargeted="1" PannerIsInverted="true" PannerName="Balance" currentExplodedTrackIndex="0" totalExplodedTrackCount="1" premiereTrackType="Stereo">
										<clipitem id="clipitem-92" premiereChannelType="mono">
											<masterclipid>masterclip-2</masterclipid>
											<name>Clip0001.mov</name>
											<enabled>TRUE</enabled>
											<duration>61944</duration>
											<rate>
												<timebase>25</timebase>
												<ntsc>FALSE</ntsc>
											</rate>
											<start>0</start>
											<end>61524</end>
											<in>420</in>
											<out>61944</out>
											<pproTicksIn>4267468800000</pproTicksIn>
											<pproTicksOut>629390684160000</pproTicksOut>
											<file id="file-2"/>
											<sourcetrack>
												<mediatype>audio</mediatype>
												<trackindex>2</trackindex>
											</sourcetrack>
											<link>
												<linkclipref>clipitem-84</linkclipref>
												<mediatype>video</mediatype>
												<trackindex>1</trackindex>
												<clipindex>1</clipindex>
											</link>
											<link>
												<linkclipref>clipitem-91</linkclipref>
												<mediatype>audio</mediatype>
												<trackindex>3</trackindex>
												<clipindex>1</clipindex>
												<groupindex>1</groupindex>
											</link>
											<link>
												<linkclipref>clipitem-92</linkclipref>
												<mediatype>audio</mediatype>
												<trackindex>4</trackindex>
												<clipindex>1</clipindex>
												<groupindex>1</groupindex>
											</link>
											<logginginfo>
												<description>Foredrag, mot sal </description>
												<scene></scene>
												<shottake></shottake>
												<lognote></lognote>
											</logginginfo>
											<labels>
												<label2>Iris</label2>
											</labels>
										</clipitem>
										<enabled>TRUE</enabled>
										<locked>FALSE</locked>
										<outputchannelindex>4</outputchannelindex>
									</track>
									<track TL.SQTrackAudioKeyframeStyle="0" TL.SQTrackShy="0" TL.SQTrackExpandedHeight="55" TL.SQTrackExpanded="1" MZ.TrackTargeted="0" PannerCurrentValue="0" PannerIsInverted="true" PannerStartKeyframe="-91445760000000000,0.,0,0,0,0,0,0" PannerName="Balance" currentExplodedTrackIndex="0" totalExplodedTrackCount="1" premiereTrackType="Stereo">
										<clipitem id="clipitem-93" premiereChannelType="mono">
											<masterclipid>masterclip-3</masterclipid>
											<name>Clip0001.mov</name>
											<enabled>TRUE</enabled>
											<duration>59676</duration>
											<rate>
												<timebase>25</timebase>
												<ntsc>FALSE</ntsc>
											</rate>
											<start>0</start>
											<end>58170</end>
											<in>1506</in>
											<out>59676</out>
											<pproTicksIn>15301923840000</pproTicksIn>
											<pproTicksOut>606346352640000</pproTicksOut>
											<file id="file-3"/>
											<sourcetrack>
												<mediatype>audio</mediatype>
												<trackindex>1</trackindex>
											</sourcetrack>
											<link>
												<linkclipref>clipitem-85</linkclipref>
												<mediatype>video</mediatype>
												<trackindex>2</trackindex>
												<clipindex>1</clipindex>
											</link>
											<link>
												<linkclipref>clipitem-93</linkclipref>
												<mediatype>audio</mediatype>
												<trackindex>5</trackindex>
												<clipindex>1</clipindex>
												<groupindex>1</groupindex>
											</link>
											<link>
												<linkclipref>clipitem-94</linkclipref>
												<mediatype>audio</mediatype>
												<trackindex>6</trackindex>
												<clipindex>1</clipindex>
												<groupindex>1</groupindex>
											</link>
											<logginginfo>
												<description>foredragssal HNÆ Abiel</description>
												<scene></scene>
												<shottake></shottake>
												<lognote></lognote>
											</logginginfo>
											<labels>
												<label2>Iris</label2>
											</labels>
										</clipitem>
										<enabled>FALSE</enabled>
										<locked>FALSE</locked>
										<outputchannelindex>5</outputchannelindex>
									</track>
									<track TL.SQTrackAudioKeyframeStyle="0" TL.SQTrackShy="0" TL.SQTrackExpandedHeight="55" TL.SQTrackExpanded="1" MZ.TrackTargeted="0" PannerIsInverted="true" PannerName="Balance" currentExplodedTrackIndex="0" totalExplodedTrackCount="1" premiereTrackType="Stereo">
										<clipitem id="clipitem-94" premiereChannelType="mono">
											<masterclipid>masterclip-3</masterclipid>
											<name>Clip0001.mov</name>
											<enabled>TRUE</enabled>
											<duration>59676</duration>
											<rate>
												<timebase>25</timebase>
												<ntsc>FALSE</ntsc>
											</rate>
											<start>0</start>
											<end>58170</end>
											<in>1506</in>
											<out>59676</out>
											<pproTicksIn>15301923840000</pproTicksIn>
											<pproTicksOut>606346352640000</pproTicksOut>
											<file id="file-3"/>
											<sourcetrack>
												<mediatype>audio</mediatype>
												<trackindex>2</trackindex>
											</sourcetrack>
											<link>
												<linkclipref>clipitem-85</linkclipref>
												<mediatype>video</mediatype>
												<trackindex>2</trackindex>
												<clipindex>1</clipindex>
											</link>
											<link>
												<linkclipref>clipitem-93</linkclipref>
												<mediatype>audio</mediatype>
												<trackindex>5</trackindex>
												<clipindex>1</clipindex>
												<groupindex>1</groupindex>
											</link>
											<link>
												<linkclipref>clipitem-94</linkclipref>
												<mediatype>audio</mediatype>
												<trackindex>6</trackindex>
												<clipindex>1</clipindex>
												<groupindex>1</groupindex>
											</link>
											<logginginfo>
												<description>foredragssal HNÆ Abiel</description>
												<scene></scene>
												<shottake></shottake>
												<lognote></lognote>
											</logginginfo>
											<labels>
												<label2>Iris</label2>
											</labels>
										</clipitem>
										<enabled>FALSE</enabled>
										<locked>FALSE</locked>
										<outputchannelindex>6</outputchannelindex>
									</track>
									<track TL.SQTrackAudioKeyframeStyle="0" TL.SQTrackShy="0" TL.SQTrackExpandedHeight="55" TL.SQTrackExpanded="1" MZ.TrackTargeted="0" PannerCurrentValue="0" PannerIsInverted="true" PannerStartKeyframe="-91445760000000000,0.,0,0,0,0,0,0" PannerName="Balance" currentExplodedTrackIndex="0" totalExplodedTrackCount="1" premiereTrackType="Stereo">
										<clipitem id="clipitem-95" premiereChannelType="mono">
											<masterclipid>masterclip-33</masterclipid>
											<name>Clip0001.mov</name>
											<enabled>TRUE</enabled>
											<duration>69900</duration>
											<rate>
												<timebase>25</timebase>
												<ntsc>FALSE</ntsc>
											</rate>
											<start>0</start>
											<end>58658</end>
											<in>11242</in>
											<out>69900</out>
											<pproTicksIn>114225914880000</pproTicksIn>
											<pproTicksOut>710228736000000</pproTicksOut>
											<file id="file-31"/>
											<sourcetrack>
												<mediatype>audio</mediatype>
												<trackindex>1</trackindex>
											</sourcetrack>
											<link>
												<linkclipref>clipitem-86</linkclipref>
												<mediatype>video</mediatype>
												<trackindex>3</trackindex>
												<clipindex>1</clipindex>
											</link>
											<link>
												<linkclipref>clipitem-95</linkclipref>
												<mediatype>audio</mediatype>
												<trackindex>7</trackindex>
												<clipindex>1</clipindex>
												<groupindex>1</groupindex>
											</link>
											<link>
												<linkclipref>clipitem-96</linkclipref>
												<mediatype>audio</mediatype>
												<trackindex>8</trackindex>
												<clipindex>1</clipindex>
												<groupindex>1</groupindex>
											</link>
											<logginginfo>
												<description>foredragssal TOT mot publikum</description>
												<scene></scene>
												<shottake></shottake>
												<lognote></lognote>
											</logginginfo>
											<labels>
												<label2>Iris</label2>
											</labels>
										</clipitem>
										<enabled>FALSE</enabled>
										<locked>FALSE</locked>
										<outputchannelindex>7</outputchannelindex>
									</track>
									<track TL.SQTrackAudioKeyframeStyle="0" TL.SQTrackShy="0" TL.SQTrackExpandedHeight="55" TL.SQTrackExpanded="1" MZ.TrackTargeted="0" PannerIsInverted="true" PannerName="Balance" currentExplodedTrackIndex="0" totalExplodedTrackCount="1" premiereTrackType="Stereo">
										<clipitem id="clipitem-96" premiereChannelType="mono">
											<masterclipid>masterclip-33</masterclipid>
											<name>Clip0001.mov</name>
											<enabled>TRUE</enabled>
											<duration>69900</duration>
											<rate>
												<timebase>25</timebase>
												<ntsc>FALSE</ntsc>
											</rate>
											<start>0</start>
											<end>58658</end>
											<in>11242</in>
											<out>69900</out>
											<pproTicksIn>114225914880000</pproTicksIn>
											<pproTicksOut>710228736000000</pproTicksOut>
											<file id="file-31"/>
											<sourcetrack>
												<mediatype>audio</mediatype>
												<trackindex>2</trackindex>
											</sourcetrack>
											<link>
												<linkclipref>clipitem-86</linkclipref>
												<mediatype>video</mediatype>
												<trackindex>3</trackindex>
												<clipindex>1</clipindex>
											</link>
											<link>
												<linkclipref>clipitem-95</linkclipref>
												<mediatype>audio</mediatype>
												<trackindex>7</trackindex>
												<clipindex>1</clipindex>
												<groupindex>1</groupindex>
											</link>
											<link>
												<linkclipref>clipitem-96</linkclipref>
												<mediatype>audio</mediatype>
												<trackindex>8</trackindex>
												<clipindex>1</clipindex>
												<groupindex>1</groupindex>
											</link>
											<logginginfo>
												<description>foredragssal TOT mot publikum</description>
												<scene></scene>
												<shottake></shottake>
												<lognote></lognote>
											</logginginfo>
											<labels>
												<label2>Iris</label2>
											</labels>
										</clipitem>
										<enabled>FALSE</enabled>
										<locked>FALSE</locked>
										<outputchannelindex>8</outputchannelindex>
									</track>
									<track TL.SQTrackAudioKeyframeStyle="0" TL.SQTrackShy="0" TL.SQTrackExpandedHeight="55" TL.SQTrackExpanded="1" MZ.TrackTargeted="0" PannerCurrentValue="0" PannerIsInverted="true" PannerStartKeyframe="-91445760000000000,0.,0,0,0,0,0,0" PannerName="Balance" currentExplodedTrackIndex="0" totalExplodedTrackCount="1" premiereTrackType="Stereo">
										<clipitem id="clipitem-97" premiereChannelType="mono">
											<masterclipid>masterclip-7</masterclipid>
											<name>002_0456.mov</name>
											<enabled>TRUE</enabled>
											<duration>59717</duration>
											<rate>
												<timebase>25</timebase>
												<ntsc>FALSE</ntsc>
											</rate>
											<start>0</start>
											<end>58771</end>
											<in>946</in>
											<out>59717</out>
											<pproTicksIn>9611965440000</pproTicksIn>
											<pproTicksOut>606762938880000</pproTicksOut>
											<file id="file-6"/>
											<sourcetrack>
												<mediatype>audio</mediatype>
												<trackindex>1</trackindex>
											</sourcetrack>
											<link>
												<linkclipref>clipitem-87</linkclipref>
												<mediatype>video</mediatype>
												<trackindex>4</trackindex>
												<clipindex>1</clipindex>
											</link>
											<link>
												<linkclipref>clipitem-97</linkclipref>
												<mediatype>audio</mediatype>
												<trackindex>9</trackindex>
												<clipindex>1</clipindex>
												<groupindex>1</groupindex>
											</link>
											<link>
												<linkclipref>clipitem-98</linkclipref>
												<mediatype>audio</mediatype>
												<trackindex>10</trackindex>
												<clipindex>1</clipindex>
												<groupindex>1</groupindex>
											</link>
											<link>
												<linkclipref>clipitem-99</linkclipref>
												<mediatype>audio</mediatype>
												<trackindex>11</trackindex>
												<clipindex>1</clipindex>
												<groupindex>1</groupindex>
											</link>
											<link>
												<linkclipref>clipitem-100</linkclipref>
												<mediatype>audio</mediatype>
												<trackindex>12</trackindex>
												<clipindex>1</clipindex>
												<groupindex>1</groupindex>
											</link>
											<logginginfo>
												<description>Foredragssal , Abiels foredrag på slutten</description>
												<scene></scene>
												<shottake></shottake>
												<lognote>mIkkel/Aon mygg</lognote>
											</logginginfo>
											<labels>
												<label2>Iris</label2>
											</labels>
										</clipitem>
										<enabled>TRUE</enabled>
										<locked>FALSE</locked>
										<outputchannelindex>9</outputchannelindex>
									</track>
									<track TL.SQTrackAudioKeyframeStyle="0" TL.SQTrackShy="0" TL.SQTrackExpandedHeight="55" TL.SQTrackExpanded="1" MZ.TrackTargeted="0" PannerIsInverted="true" PannerName="Balance" currentExplodedTrackIndex="0" totalExplodedTrackCount="1" premiereTrackType="Stereo">
										<clipitem id="clipitem-98" premiereChannelType="mono">
											<masterclipid>masterclip-7</masterclipid>
											<name>002_0456.mov</name>
											<enabled>TRUE</enabled>
											<duration>59717</duration>
											<rate>
												<timebase>25</timebase>
												<ntsc>FALSE</ntsc>
											</rate>
											<start>0</start>
											<end>58771</end>
											<in>946</in>
											<out>59717</out>
											<pproTicksIn>9611965440000</pproTicksIn>
											<pproTicksOut>606762938880000</pproTicksOut>
											<file id="file-6"/>
											<sourcetrack>
												<mediatype>audio</mediatype>
												<trackindex>2</trackindex>
											</sourcetrack>
											<link>
												<linkclipref>clipitem-87</linkclipref>
												<mediatype>video</mediatype>
												<trackindex>4</trackindex>
												<clipindex>1</clipindex>
											</link>
											<link>
												<linkclipref>clipitem-97</linkclipref>
												<mediatype>audio</mediatype>
												<trackindex>9</trackindex>
												<clipindex>1</clipindex>
												<groupindex>1</groupindex>
											</link>
											<link>
												<linkclipref>clipitem-98</linkclipref>
												<mediatype>audio</mediatype>
												<trackindex>10</trackindex>
												<clipindex>1</clipindex>
												<groupindex>1</groupindex>
											</link>
											<link>
												<linkclipref>clipitem-99</linkclipref>
												<mediatype>audio</mediatype>
												<trackindex>11</trackindex>
												<clipindex>1</clipindex>
												<groupindex>1</groupindex>
											</link>
											<link>
												<linkclipref>clipitem-100</linkclipref>
												<mediatype>audio</mediatype>
												<trackindex>12</trackindex>
												<clipindex>1</clipindex>
												<groupindex>1</groupindex>
											</link>
											<logginginfo>
												<description>Foredragssal , Abiels foredrag på slutten</description>
												<scene></scene>
												<shottake></shottake>
												<lognote>mIkkel/Aon mygg</lognote>
											</logginginfo>
											<labels>
												<label2>Iris</label2>
											</labels>
										</clipitem>
										<enabled>TRUE</enabled>
										<locked>FALSE</locked>
										<outputchannelindex>10</outputchannelindex>
									</track>
									<track TL.SQTrackAudioKeyframeStyle="0" TL.SQTrackShy="0" TL.SQTrackExpandedHeight="55" TL.SQTrackExpanded="1" MZ.TrackTargeted="0" PannerCurrentValue="0" PannerIsInverted="true" PannerStartKeyframe="-91445760000000000,0.,0,0,0,0,0,0" PannerName="Balance" currentExplodedTrackIndex="0" totalExplodedTrackCount="1" premiereTrackType="Stereo">
										<clipitem id="clipitem-99" premiereChannelType="mono">
											<masterclipid>masterclip-7</masterclipid>
											<name>002_0456.mov</name>
											<enabled>TRUE</enabled>
											<duration>59717</duration>
											<rate>
												<timebase>25</timebase>
												<ntsc>FALSE</ntsc>
											</rate>
											<start>0</start>
											<end>58771</end>
											<in>946</in>
											<out>59717</out>
											<pproTicksIn>9611965440000</pproTicksIn>
											<pproTicksOut>606762938880000</pproTicksOut>
											<file id="file-6"/>
											<sourcetrack>
												<mediatype>audio</mediatype>
												<trackindex>3</trackindex>
											</sourcetrack>
											<link>
												<linkclipref>clipitem-87</linkclipref>
												<mediatype>video</mediatype>
												<trackindex>4</trackindex>
												<clipindex>1</clipindex>
											</link>
											<link>
												<linkclipref>clipitem-97</linkclipref>
												<mediatype>audio</mediatype>
												<trackindex>9</trackindex>
												<clipindex>1</clipindex>
												<groupindex>1</groupindex>
											</link>
											<link>
												<linkclipref>clipitem-98</linkclipref>
												<mediatype>audio</mediatype>
												<trackindex>10</trackindex>
												<clipindex>1</clipindex>
												<groupindex>1</groupindex>
											</link>
											<link>
												<linkclipref>clipitem-99</linkclipref>
												<mediatype>audio</mediatype>
												<trackindex>11</trackindex>
												<clipindex>1</clipindex>
												<groupindex>1</groupindex>
											</link>
											<link>
												<linkclipref>clipitem-100</linkclipref>
												<mediatype>audio</mediatype>
												<trackindex>12</trackindex>
												<clipindex>1</clipindex>
												<groupindex>1</groupindex>
											</link>
											<logginginfo>
												<description>Foredragssal , Abiels foredrag på slutten</description>
												<scene></scene>
												<shottake></shottake>
												<lognote>mIkkel/Aon mygg</lognote>
											</logginginfo>
											<labels>
												<label2>Iris</label2>
											</labels>
										</clipitem>
										<enabled>FALSE</enabled>
										<locked>FALSE</locked>
										<outputchannelindex>11</outputchannelindex>
									</track>
									<track TL.SQTrackAudioKeyframeStyle="0" TL.SQTrackShy="0" TL.SQTrackExpandedHeight="55" TL.SQTrackExpanded="1" MZ.TrackTargeted="0" PannerIsInverted="true" PannerName="Balance" currentExplodedTrackIndex="0" totalExplodedTrackCount="1" premiereTrackType="Stereo">
										<clipitem id="clipitem-100" premiereChannelType="mono">
											<masterclipid>masterclip-7</masterclipid>
											<name>002_0456.mov</name>
											<enabled>TRUE</enabled>
											<duration>59717</duration>
											<rate>
												<timebase>25</timebase>
												<ntsc>FALSE</ntsc>
											</rate>
											<start>0</start>
											<end>58771</end>
											<in>946</in>
											<out>59717</out>
											<pproTicksIn>9611965440000</pproTicksIn>
											<pproTicksOut>606762938880000</pproTicksOut>
											<file id="file-6"/>
											<sourcetrack>
												<mediatype>audio</mediatype>
												<trackindex>4</trackindex>
											</sourcetrack>
											<link>
												<linkclipref>clipitem-87</linkclipref>
												<mediatype>video</mediatype>
												<trackindex>4</trackindex>
												<clipindex>1</clipindex>
											</link>
											<link>
												<linkclipref>clipitem-97</linkclipref>
												<mediatype>audio</mediatype>
												<trackindex>9</trackindex>
												<clipindex>1</clipindex>
												<groupindex>1</groupindex>
											</link>
											<link>
												<linkclipref>clipitem-98</linkclipref>
												<mediatype>audio</mediatype>
												<trackindex>10</trackindex>
												<clipindex>1</clipindex>
												<groupindex>1</groupindex>
											</link>
											<link>
												<linkclipref>clipitem-99</linkclipref>
												<mediatype>audio</mediatype>
												<trackindex>11</trackindex>
												<clipindex>1</clipindex>
												<groupindex>1</groupindex>
											</link>
											<link>
												<linkclipref>clipitem-100</linkclipref>
												<mediatype>audio</mediatype>
												<trackindex>12</trackindex>
												<clipindex>1</clipindex>
												<groupindex>1</groupindex>
											</link>
											<logginginfo>
												<description>Foredragssal , Abiels foredrag på slutten</description>
												<scene></scene>
												<shottake></shottake>
												<lognote>mIkkel/Aon mygg</lognote>
											</logginginfo>
											<labels>
												<label2>Iris</label2>
											</labels>
										</clipitem>
										<enabled>FALSE</enabled>
										<locked>FALSE</locked>
										<outputchannelindex>12</outputchannelindex>
									</track>
									<track TL.SQTrackAudioKeyframeStyle="0" TL.SQTrackShy="0" TL.SQTrackExpandedHeight="55" TL.SQTrackExpanded="1" MZ.TrackTargeted="0" PannerCurrentValue="0" PannerIsInverted="true" PannerStartKeyframe="-91445760000000000,0.,0,0,0,0,0,0" PannerName="Balance" currentExplodedTrackIndex="0" totalExplodedTrackCount="1" premiereTrackType="Stereo">
										<clipitem id="clipitem-101" premiereChannelType="mono">
											<masterclipid>masterclip-34</masterclipid>
											<name>Mikkel og Aon GoPro HD Stitched.mov</name>
											<enabled>TRUE</enabled>
											<duration>19241</duration>
											<rate>
												<timebase>25</timebase>
												<ntsc>FALSE</ntsc>
											</rate>
											<start>39556</start>
											<end>58797</end>
											<in>0</in>
											<out>19241</out>
											<pproTicksIn>0</pproTicksIn>
											<pproTicksOut>195500874240000</pproTicksOut>
											<file id="file-32"/>
											<sourcetrack>
												<mediatype>audio</mediatype>
												<trackindex>1</trackindex>
											</sourcetrack>
											<link>
												<linkclipref>clipitem-88</linkclipref>
												<mediatype>video</mediatype>
												<trackindex>5</trackindex>
												<clipindex>1</clipindex>
											</link>
											<link>
												<linkclipref>clipitem-101</linkclipref>
												<mediatype>audio</mediatype>
												<trackindex>13</trackindex>
												<clipindex>1</clipindex>
												<groupindex>1</groupindex>
											</link>
											<link>
												<linkclipref>clipitem-102</linkclipref>
												<mediatype>audio</mediatype>
												<trackindex>14</trackindex>
												<clipindex>1</clipindex>
												<groupindex>1</groupindex>
											</link>
											<logginginfo>
												<description>AB foredrag, M+Aon selfie</description>
												<scene></scene>
												<shottake></shottake>
												<lognote></lognote>
											</logginginfo>
											<labels>
												<label2>Iris</label2>
											</labels>
										</clipitem>
										<enabled>FALSE</enabled>
										<locked>FALSE</locked>
										<outputchannelindex>13</outputchannelindex>
									</track>
									<track TL.SQTrackAudioKeyframeStyle="0" TL.SQTrackShy="0" TL.SQTrackExpandedHeight="55" TL.SQTrackExpanded="1" MZ.TrackTargeted="0" PannerIsInverted="true" PannerName="Balance" currentExplodedTrackIndex="0" totalExplodedTrackCount="1" premiereTrackType="Stereo">
										<clipitem id="clipitem-102" premiereChannelType="mono">
											<masterclipid>masterclip-34</masterclipid>
											<name>Mikkel og Aon GoPro HD Stitched.mov</name>
											<enabled>TRUE</enabled>
											<duration>19241</duration>
											<rate>
												<timebase>25</timebase>
												<ntsc>FALSE</ntsc>
											</rate>
											<start>39556</start>
											<end>58797</end>
											<in>0</in>
											<out>19241</out>
											<pproTicksIn>0</pproTicksIn>
											<pproTicksOut>195500874240000</pproTicksOut>
											<file id="file-32"/>
											<sourcetrack>
												<mediatype>audio</mediatype>
												<trackindex>2</trackindex>
											</sourcetrack>
											<link>
												<linkclipref>clipitem-88</linkclipref>
												<mediatype>video</mediatype>
												<trackindex>5</trackindex>
												<clipindex>1</clipindex>
											</link>
											<link>
												<linkclipref>clipitem-101</linkclipref>
												<mediatype>audio</mediatype>
												<trackindex>13</trackindex>
												<clipindex>1</clipindex>
												<groupindex>1</groupindex>
											</link>
											<link>
												<linkclipref>clipitem-102</linkclipref>
												<mediatype>audio</mediatype>
												<trackindex>14</trackindex>
												<clipindex>1</clipindex>
												<groupindex>1</groupindex>
											</link>
											<logginginfo>
												<description>AB foredrag, M+Aon selfie</description>
												<scene></scene>
												<shottake></shottake>
												<lognote></lognote>
											</logginginfo>
											<labels>
												<label2>Iris</label2>
											</labels>
										</clipitem>
										<enabled>FALSE</enabled>
										<locked>FALSE</locked>
										<outputchannelindex>14</outputchannelindex>
									</track>
								</audio>
							</media>
							<timecode>
								<rate>
									<timebase>25</timebase>
									<ntsc>FALSE</ntsc>
								</rate>
								<string>12:18:46:14</string>
								<frame>1108164</frame>
								<displayformat>NDF</displayformat>
							</timecode>
						</sequence>
						<labels>
							<label2>Forest</label2>
						</labels>
					</clipitem>
					<clipitem id="clipitem-103" premiereChannelType="mono">
						<masterclipid>masterclip-32</masterclipid>
						<name>02 Foredrag-T01-Multicam</name>
						<enabled>TRUE</enabled>
						<duration>76803</duration>
						<rate>
							<timebase>25</timebase>
							<ntsc>FALSE</ntsc>
						</rate>
						<start>31528</start>
						<end>31762</end>
						<in>51431</in>
						<out>51665</out>
						<pproTicksIn>522571875840000</pproTicksIn>
						<pproTicksOut>524949465600000</pproTicksOut>
						<sequence id="sequence-2"/>
						<labels>
							<label2>Forest</label2>
						</labels>
					</clipitem>
					<clipitem id="clipitem-104" premiereChannelType="mono">
						<masterclipid>masterclip-32</masterclipid>
						<name>02 Foredrag-T01-Multicam</name>
						<enabled>TRUE</enabled>
						<duration>76803</duration>
						<rate>
							<timebase>25</timebase>
							<ntsc>FALSE</ntsc>
						</rate>
						<start>31762</start>
						<end>31923</end>
						<in>53264</in>
						<out>53425</out>
						<pproTicksIn>541196328960000</pproTicksIn>
						<pproTicksOut>542832192000000</pproTicksOut>
						<sequence id="sequence-2"/>
						<labels>
							<label2>Forest</label2>
						</labels>
					</clipitem>
					<clipitem id="clipitem-105" premiereChannelType="mono">
						<masterclipid>masterclip-32</masterclipid>
						<name>02 Foredrag-T01-Multicam</name>
						<enabled>TRUE</enabled>
						<duration>76803</duration>
						<rate>
							<timebase>25</timebase>
							<ntsc>FALSE</ntsc>
						</rate>
						<start>31923</start>
						<end>32002</end>
						<in>53856</in>
						<out>53935</out>
						<pproTicksIn>547211427840000</pproTicksIn>
						<pproTicksOut>548014118400000</pproTicksOut>
						<sequence id="sequence-2"/>
						<labels>
							<label2>Forest</label2>
						</labels>
					</clipitem>
					<clipitem id="clipitem-106" premiereChannelType="mono">
						<masterclipid>masterclip-32</masterclipid>
						<name>02 Foredrag-T01-Multicam</name>
						<enabled>TRUE</enabled>
						<duration>76803</duration>
						<rate>
							<timebase>25</timebase>
							<ntsc>FALSE</ntsc>
						</rate>
						<start>32002</start>
						<end>32139</end>
						<in>54422</in>
						<out>54559</out>
						<pproTicksIn>552962350080000</pproTicksIn>
						<pproTicksOut>554354357760000</pproTicksOut>
						<sequence id="sequence-2"/>
						<labels>
							<label2>Forest</label2>
						</labels>
					</clipitem>
					<clipitem id="clipitem-107" premiereChannelType="mono">
						<masterclipid>masterclip-32</masterclipid>
						<name>02 Foredrag-T01-Multicam</name>
						<enabled>TRUE</enabled>
						<duration>76803</duration>
						<rate>
							<timebase>25</timebase>
							<ntsc>FALSE</ntsc>
						</rate>
						<start>32139</start>
						<end>32218</end>
						<in>53146</in>
						<out>53225</out>
						<pproTicksIn>539997373440000</pproTicksIn>
						<pproTicksOut>540800064000000</pproTicksOut>
						<sequence id="sequence-2"/>
						<labels>
							<label2>Forest</label2>
						</labels>
					</clipitem>
					<clipitem id="clipitem-108" premiereChannelType="mono">
						<masterclipid>masterclip-32</masterclipid>
						<name>02 Foredrag-T01-Multicam</name>
						<enabled>TRUE</enabled>
						<duration>76803</duration>
						<rate>
							<timebase>25</timebase>
							<ntsc>FALSE</ntsc>
						</rate>
						<start>32586</start>
						<end>32657</end>
						<in>55227</in>
						<out>55298</out>
						<pproTicksIn>561141665280000</pproTicksIn>
						<pproTicksOut>561863070720000</pproTicksOut>
						<sequence id="sequence-2"/>
						<labels>
							<label2>Forest</label2>
						</labels>
					</clipitem>
					<clipitem id="clipitem-109" premiereChannelType="mono">
						<masterclipid>masterclip-32</masterclipid>
						<name>02 Foredrag-T01-Multicam</name>
						<enabled>TRUE</enabled>
						<duration>76803</duration>
						<rate>
							<timebase>25</timebase>
							<ntsc>FALSE</ntsc>
						</rate>
						<start>32657</start>
						<end>32688</end>
						<in>55315</in>
						<out>55346</out>
						<pproTicksIn>562035801600000</pproTicksIn>
						<pproTicksOut>562350781440000</pproTicksOut>
						<sequence id="sequence-2"/>
						<labels>
							<label2>Forest</label2>
						</labels>
					</clipitem>
					<enabled>TRUE</enabled>
					<locked>FALSE</locked>
					<outputchannelindex>1</outputchannelindex>
				</track>
				<track TL.SQTrackAudioKeyframeStyle="0" TL.SQTrackShy="0" TL.SQTrackExpandedHeight="65" TL.SQTrackExpanded="1" MZ.TrackTargeted="1" MZ.TrackName="Audio 5" PannerCurrentValue="0.5" PannerIsInverted="true" PannerStartKeyframe="-91445760000000000,0.5,0,0,0,0,0,0" PannerName="Balance" currentExplodedTrackIndex="1" totalExplodedTrackCount="2" premiereTrackType="Stereo">
					<clipitem id="clipitem-110" premiereChannelType="stereo">
						<masterclipid>masterclip-23</masterclipid>
						<name>Bell Small.wav</name>
						<enabled>TRUE</enabled>
						<duration>134</duration>
						<rate>
							<timebase>25</timebase>
							<ntsc>FALSE</ntsc>
						</rate>
						<start>5847</start>
						<end>5876</end>
						<in>0</in>
						<out>29</out>
						<pproTicksIn>0</pproTicksIn>
						<pproTicksOut>294658560000</pproTicksOut>
						<file id="file-22"/>
						<sourcetrack>
							<mediatype>audio</mediatype>
							<trackindex>2</trackindex>
						</sourcetrack>
							<filter>
								<effect>
									<name>Gain</name>
									<effectid>{61756678, 4761696e, 4b657947}</effectid>
									<effecttype>filter</effecttype>
									<mediatype>audio</mediatype>
									<parameter authoringApp="PremierePro">
										<parameterid>Gain(dB)</parameterid>
										<name>Gain(dB)</name>
										<valuemin>-96</valuemin>
										<valuemax>96</valuemax>
										<value>-6</value>
									</parameter>
								</effect>
							</filter>
						<link>
							<linkclipref>clipitem-71</linkclipref>
							<mediatype>audio</mediatype>
							<trackindex>5</trackindex>
							<clipindex>3</clipindex>
							<groupindex>1</groupindex>
						</link>
						<link>
							<linkclipref>clipitem-110</linkclipref>
							<mediatype>audio</mediatype>
							<trackindex>6</trackindex>
							<clipindex>1</clipindex>
							<groupindex>1</groupindex>
						</link>
						<logginginfo>
							<description></description>
							<scene></scene>
							<shottake></shottake>
							<lognote></lognote>
						</logginginfo>
						<labels>
							<label2>Caribbean</label2>
						</labels>
					</clipitem>
					<clipitem id="clipitem-111" premiereChannelType="stereo">
						<masterclipid>masterclip-23</masterclipid>
						<name>Bell Small.wav</name>
						<enabled>TRUE</enabled>
						<duration>134</duration>
						<rate>
							<timebase>25</timebase>
							<ntsc>FALSE</ntsc>
						</rate>
						<start>5876</start>
						<end>5906</end>
						<in>0</in>
						<out>30</out>
						<pproTicksIn>0</pproTicksIn>
						<pproTicksOut>304819200000</pproTicksOut>
						<file id="file-22"/>
						<sourcetrack>
							<mediatype>audio</mediatype>
							<trackindex>2</trackindex>
						</sourcetrack>
							<filter>
								<effect>
									<name>Gain</name>
									<effectid>{61756678, 4761696e, 4b657947}</effectid>
									<effecttype>filter</effecttype>
									<mediatype>audio</mediatype>
									<parameter authoringApp="PremierePro">
										<parameterid>Gain(dB)</parameterid>
										<name>Gain(dB)</name>
										<valuemin>-96</valuemin>
										<valuemax>96</valuemax>
										<value>-6</value>
									</parameter>
								</effect>
							</filter>
						<link>
							<linkclipref>clipitem-72</linkclipref>
							<mediatype>audio</mediatype>
							<trackindex>5</trackindex>
							<clipindex>4</clipindex>
							<groupindex>1</groupindex>
						</link>
						<link>
							<linkclipref>clipitem-111</linkclipref>
							<mediatype>audio</mediatype>
							<trackindex>6</trackindex>
							<clipindex>2</clipindex>
							<groupindex>1</groupindex>
						</link>
						<logginginfo>
							<description></description>
							<scene></scene>
							<shottake></shottake>
							<lognote></lognote>
						</logginginfo>
						<labels>
							<label2>Caribbean</label2>
						</labels>
					</clipitem>
					<clipitem id="clipitem-112" premiereChannelType="stereo">
						<masterclipid>masterclip-23</masterclipid>
						<name>Bell Small.wav</name>
						<enabled>TRUE</enabled>
						<duration>134</duration>
						<rate>
							<timebase>25</timebase>
							<ntsc>FALSE</ntsc>
						</rate>
						<start>5906</start>
						<end>-1</end>
						<in>0</in>
						<out>49</out>
						<pproTicksIn>0</pproTicksIn>
						<pproTicksOut>497871360000</pproTicksOut>
						<file id="file-22"/>
						<sourcetrack>
							<mediatype>audio</mediatype>
							<trackindex>2</trackindex>
						</sourcetrack>
							<filter>
								<effect>
									<name>Gain</name>
									<effectid>{61756678, 4761696e, 4b657947}</effectid>
									<effecttype>filter</effecttype>
									<mediatype>audio</mediatype>
									<parameter authoringApp="PremierePro">
										<parameterid>Gain(dB)</parameterid>
										<name>Gain(dB)</name>
										<valuemin>-96</valuemin>
										<valuemax>96</valuemax>
										<value>-6</value>
									</parameter>
								</effect>
							</filter>
						<link>
							<linkclipref>clipitem-73</linkclipref>
							<mediatype>audio</mediatype>
							<trackindex>5</trackindex>
							<clipindex>5</clipindex>
							<groupindex>1</groupindex>
						</link>
						<link>
							<linkclipref>clipitem-112</linkclipref>
							<mediatype>audio</mediatype>
							<trackindex>6</trackindex>
							<clipindex>3</clipindex>
							<groupindex>1</groupindex>
						</link>
						<logginginfo>
							<description></description>
							<scene></scene>
							<shottake></shottake>
							<lognote></lognote>
						</logginginfo>
						<labels>
							<label2>Caribbean</label2>
						</labels>
					</clipitem>
					<transitionitem>
						<start>5942</start>
						<end>5955</end>
						<alignment>end-black</alignment>
						<cutPointTicks>132088320000</cutPointTicks>
						<rate>
							<timebase>25</timebase>
							<ntsc>FALSE</ntsc>
						</rate>
						<effect>
							<name>Cross Fade (+3dB)</name>
							<effectid>KGAudioTransCrossFade3dB</effectid>
							<effecttype>transition</effecttype>
							<mediatype>audio</mediatype>
							<wipecode>0</wipecode>
							<wipeaccuracy>100</wipeaccuracy>
							<startratio>0</startratio>
							<endratio>1</endratio>
							<reverse>FALSE</reverse>
						</effect>
					</transitionitem>
					<clipitem id="clipitem-113" premiereChannelType="stereo">
						<masterclipid>masterclip-28</masterclipid>
						<name>154383__semccab__window-wipe.wav</name>
						<enabled>TRUE</enabled>
						<duration>62</duration>
						<rate>
							<timebase>25</timebase>
							<ntsc>FALSE</ntsc>
						</rate>
						<start>7950</start>
						<end>7972</end>
						<in>0</in>
						<out>22</out>
						<pproTicksIn>0</pproTicksIn>
						<pproTicksOut>111767040000</pproTicksOut>
						<file id="file-27"/>
						<sourcetrack>
							<mediatype>audio</mediatype>
							<trackindex>2</trackindex>
						</sourcetrack>
							<filter>
								<effect>
									<name>Time Remap</name>
									<effectid>timeremap</effectid>
									<effectcategory>motion</effectcategory>
									<effecttype>motion</effecttype>
									<mediatype>audio</mediatype>
									<parameter authoringApp="PremierePro">
										<parameterid>variablespeed</parameterid>
										<name>variablespeed</name>
										<valuemin>0</valuemin>
										<valuemax>1</valuemax>
										<value>0</value>
									</parameter>
									<parameter authoringApp="PremierePro">
										<parameterid>speed</parameterid>
										<name>speed</name>
										<valuemin>-100000</valuemin>
										<valuemax>100000</valuemax>
										<value>50</value>
									</parameter>
									<parameter authoringApp="PremierePro">
										<parameterid>reverse</parameterid>
										<name>reverse</name>
										<value>FALSE</value>
									</parameter>
									<parameter authoringApp="PremierePro">
										<parameterid>frameblending</parameterid>
										<name>frameblending</name>
										<value>FALSE</value>
									</parameter>
									<parameter authoringApp="PremierePro">
										<parameterid>graphdict</parameterid>
										<name>graphdict</name>
										<valuemin>0</valuemin>
										<valuemax>31</valuemax>
										<value>0</value>
										<keyframe>
											<when>0</when>
											<value>0</value>
											<speedvirtualkf>TRUE</speedvirtualkf>
											<speedkfin>TRUE</speedkfin>
										</keyframe>
										<keyframe>
											<when>22</when>
											<value>11</value>
											<speedvirtualkf>TRUE</speedvirtualkf>
											<speedkfout>TRUE</speedkfout>
										</keyframe>
										<keyframe>
											<when>62</when>
											<value>31</value>
											<speedvirtualkf>TRUE</speedvirtualkf>
											<speedkfend>TRUE</speedkfend>
										</keyframe>
										<interpolation>
											<name>FCPCurve</name>
										</interpolation>
									</parameter>
								</effect>
							</filter>
						<link>
							<linkclipref>clipitem-79</linkclipref>
							<mediatype>audio</mediatype>
							<trackindex>5</trackindex>
							<clipindex>17</clipindex>
							<groupindex>1</groupindex>
						</link>
						<link>
							<linkclipref>clipitem-113</linkclipref>
							<mediatype>audio</mediatype>
							<trackindex>6</trackindex>
							<clipindex>5</clipindex>
							<groupindex>1</groupindex>
						</link>
						<logginginfo>
							<description></description>
							<scene></scene>
							<shottake></shottake>
							<lognote></lognote>
						</logginginfo>
						<labels>
							<label2>Caribbean</label2>
						</labels>
					</clipitem>
					<clipitem id="clipitem-114" premiereChannelType="stereo">
						<masterclipid>masterclip-29</masterclipid>
						<name>128620__n-a-n-i__foley-water-01.wav</name>
						<enabled>TRUE</enabled>
						<duration>757</duration>
						<rate>
							<timebase>25</timebase>
							<ntsc>FALSE</ntsc>
						</rate>
						<start>7972</start>
						<end>7990</end>
						<in>229</in>
						<out>247</out>
						<pproTicksIn>2326786560000</pproTicksIn>
						<pproTicksOut>2509678080000</pproTicksOut>
						<file id="file-28"/>
						<sourcetrack>
							<mediatype>audio</mediatype>
							<trackindex>2</trackindex>
						</sourcetrack>
						<link>
							<linkclipref>clipitem-80</linkclipref>
							<mediatype>audio</mediatype>
							<trackindex>5</trackindex>
							<clipindex>18</clipindex>
							<groupindex>1</groupindex>
						</link>
						<link>
							<linkclipref>clipitem-114</linkclipref>
							<mediatype>audio</mediatype>
							<trackindex>6</trackindex>
							<clipindex>6</clipindex>
							<groupindex>1</groupindex>
						</link>
						<logginginfo>
							<description></description>
							<scene></scene>
							<shottake></shottake>
							<lognote></lognote>
						</logginginfo>
						<labels>
							<label2>Caribbean</label2>
						</labels>
					</clipitem>
					<clipitem id="clipitem-115" premiereChannelType="stereo">
						<masterclipid>masterclip-30</masterclipid>
						<name>328212__creativesoundeffects__woosh-3.wav</name>
						<enabled>TRUE</enabled>
						<duration>31</duration>
						<rate>
							<timebase>25</timebase>
							<ntsc>FALSE</ntsc>
						</rate>
						<start>14544</start>
						<end>14575</end>
						<in>0</in>
						<out>31</out>
						<pproTicksIn>0</pproTicksIn>
						<pproTicksOut>251983872000</pproTicksOut>
						<file id="file-29"/>
						<sourcetrack>
							<mediatype>audio</mediatype>
							<trackindex>2</trackindex>
						</sourcetrack>
							<filter>
								<effect>
									<name>Time Remap</name>
									<effectid>timeremap</effectid>
									<effectcategory>motion</effectcategory>
									<effecttype>motion</effecttype>
									<mediatype>audio</mediatype>
									<parameter authoringApp="PremierePro">
										<parameterid>variablespeed</parameterid>
										<name>variablespeed</name>
										<valuemin>0</valuemin>
										<valuemax>1</valuemax>
										<value>0</value>
									</parameter>
									<parameter authoringApp="PremierePro">
										<parameterid>speed</parameterid>
										<name>speed</name>
										<valuemin>-100000</valuemin>
										<valuemax>100000</valuemax>
										<value>80</value>
									</parameter>
									<parameter authoringApp="PremierePro">
										<parameterid>reverse</parameterid>
										<name>reverse</name>
										<value>FALSE</value>
									</parameter>
									<parameter authoringApp="PremierePro">
										<parameterid>frameblending</parameterid>
										<name>frameblending</name>
										<value>FALSE</value>
									</parameter>
									<parameter authoringApp="PremierePro">
										<parameterid>graphdict</parameterid>
										<name>graphdict</name>
										<valuemin>0</valuemin>
										<valuemax>24</valuemax>
										<value>0</value>
										<keyframe>
											<when>0</when>
											<value>0</value>
											<speedvirtualkf>TRUE</speedvirtualkf>
											<speedkfin>TRUE</speedkfin>
										</keyframe>
										<keyframe>
											<when>31</when>
											<value>24</value>
											<speedvirtualkf>TRUE</speedvirtualkf>
											<speedkfout>TRUE</speedkfout>
										</keyframe>
										<interpolation>
											<name>FCPCurve</name>
										</interpolation>
									</parameter>
								</effect>
							</filter>
						<link>
							<linkclipref>clipitem-81</linkclipref>
							<mediatype>audio</mediatype>
							<trackindex>5</trackindex>
							<clipindex>19</clipindex>
							<groupindex>1</groupindex>
						</link>
						<link>
							<linkclipref>clipitem-115</linkclipref>
							<mediatype>audio</mediatype>
							<trackindex>6</trackindex>
							<clipindex>7</clipindex>
							<groupindex>1</groupindex>
						</link>
						<logginginfo>
							<description></description>
							<scene></scene>
							<shottake></shottake>
							<lognote></lognote>
						</logginginfo>
						<labels>
							<label2>Caribbean</label2>
						</labels>
					</clipitem>
					<enabled>TRUE</enabled>
					<locked>FALSE</locked>
					<outputchannelindex>2</outputchannelindex>
				</track>
				<track TL.SQTrackAudioKeyframeStyle="0" TL.SQTrackShy="0" TL.SQTrackExpandedHeight="65" TL.SQTrackExpanded="1" MZ.TrackTargeted="1" MZ.TrackName="Audio 6" PannerCurrentValue="0.5" PannerIsInverted="true" PannerStartKeyframe="-91445760000000000,0.5,0,0,0,0,0,0" PannerName="Balance" currentExplodedTrackIndex="0" totalExplodedTrackCount="2" premiereTrackType="Stereo">
					<clipitem id="clipitem-116" premiereChannelType="mono">
						<masterclipid>masterclip-1</masterclipid>
						<name>Clip0012.mov</name>
						<enabled>TRUE</enabled>
						<duration>51024</duration>
						<rate>
							<timebase>25</timebase>
							<ntsc>FALSE</ntsc>
						</rate>
						<start>25</start>
						<end>52</end>
						<in>11810</in>
						<out>11837</out>
						<pproTicksIn>119997158400000</pproTicksIn>
						<pproTicksOut>120271495680000</pproTicksOut>
						<file id="file-1"/>
						<sourcetrack>
							<mediatype>audio</mediatype>
							<trackindex>2</trackindex>
						</sourcetrack>
						<link>
							<linkclipref>clipitem-1</linkclipref>
							<mediatype>video</mediatype>
							<trackindex>1</trackindex>
							<clipindex>1</clipindex>
						</link>
						<link>
							<linkclipref>clipitem-69</linkclipref>
							<mediatype>audio</mediatype>
							<trackindex>5</trackindex>
							<clipindex>1</clipindex>
							<groupindex>1</groupindex>
						</link>
						<link>
							<linkclipref>clipitem-116</linkclipref>
							<mediatype>audio</mediatype>
							<trackindex>7</trackindex>
							<clipindex>1</clipindex>
							<groupindex>1</groupindex>
						</link>
						<logginginfo>
							<description>sc01 t12 int squah hall, møter kompis+spiller</description>
							<scene></scene>
							<shottake></shottake>
							<lognote>A1=M, A2=kam/venn</lognote>
						</logginginfo>
						<labels>
							<label2>Rose</label2>
						</labels>
					</clipitem>
					<clipitem id="clipitem-117" premiereChannelType="stereo">
						<masterclipid>masterclip-36</masterclipid>
						<name>BR_586_5_Unstoppable_Force_Britton_858425.wav</name>
						<enabled>TRUE</enabled>
						<duration>3237</duration>
						<rate>
							<timebase>25</timebase>
							<ntsc>FALSE</ntsc>
						</rate>
						<start>290</start>
						<end>-1</end>
						<in>644</in>
						<out>916</out>
						<pproTicksIn>6543452160000</pproTicksIn>
						<pproTicksOut>9307146240000</pproTicksOut>
						<file id="file-34">
							<name>BR_586_5_Unstoppable_Force_Britton_858425.wav</name>
							<pathurl>file://localhost/Volumes/Bingen/Prosjekter/MYNT194016%20WHATS%20COOKING/Musikk/Marita/tease_musikk/BR_586_5_Unstoppable_Force_Britton_858425.wav</pathurl>
							<rate>
								<timebase>30</timebase>
								<ntsc>TRUE</ntsc>
							</rate>
							<duration>3880</duration>
							<timecode>
								<rate>
									<timebase>30</timebase>
									<ntsc>TRUE</ntsc>
								</rate>
								<string>00;01;03;15</string>
								<frame>1903</frame>
								<displayformat>DF</displayformat>
								<reel>
									<name></name>
								</reel>
							</timecode>
							<media>
								<audio>
									<samplecharacteristics>
										<depth>16</depth>
										<samplerate>44100</samplerate>
									</samplecharacteristics>
									<channelcount>2</channelcount>
								</audio>
							</media>
						</file>
						<sourcetrack>
							<mediatype>audio</mediatype>
							<trackindex>1</trackindex>
						</sourcetrack>
							<filter>
								<effect>
									<name>Gain</name>
									<effectid>{61756678, 4761696e, 4b657947}</effectid>
									<effecttype>filter</effecttype>
									<mediatype>audio</mediatype>
									<parameter authoringApp="PremierePro">
										<parameterid>Gain(dB)</parameterid>
										<name>Gain(dB)</name>
										<valuemin>-96</valuemin>
										<valuemax>96</valuemax>
										<value>-33</value>
									</parameter>
								</effect>
							</filter>
						<link>
							<linkclipref>clipitem-117</linkclipref>
							<mediatype>audio</mediatype>
							<trackindex>7</trackindex>
							<clipindex>2</clipindex>
							<groupindex>1</groupindex>
						</link>
						<link>
							<linkclipref>clipitem-170</linkclipref>
							<mediatype>audio</mediatype>
							<trackindex>8</trackindex>
							<clipindex>1</clipindex>
							<groupindex>1</groupindex>
						</link>
						<logginginfo>
							<description></description>
							<scene></scene>
							<shottake></shottake>
							<lognote></lognote>
						</logginginfo>
						<labels>
							<label2>Caribbean</label2>
						</labels>
					</clipitem>
					<transitionitem>
						<start>549</start>
						<end>562</end>
						<alignment>center</alignment>
						<cutPointTicks>60963840000</cutPointTicks>
						<rate>
							<timebase>25</timebase>
							<ntsc>FALSE</ntsc>
						</rate>
						<effect>
							<name>Cross Fade (+3dB)</name>
							<effectid>KGAudioTransCrossFade3dB</effectid>
							<effecttype>transition</effecttype>
							<mediatype>audio</mediatype>
							<wipecode>0</wipecode>
							<wipeaccuracy>100</wipeaccuracy>
							<startratio>0</startratio>
							<endratio>1</endratio>
							<reverse>FALSE</reverse>
						</effect>
					</transitionitem>
					<clipitem id="clipitem-118" premiereChannelType="stereo">
						<masterclipid>masterclip-36</masterclipid>
						<name>BR_586_5_Unstoppable_Force_Britton_858425.wav</name>
						<enabled>TRUE</enabled>
						<duration>3237</duration>
						<rate>
							<timebase>25</timebase>
							<ntsc>FALSE</ntsc>
						</rate>
						<start>-1</start>
						<end>750</end>
						<in>919</in>
						<out>1120</out>
						<pproTicksIn>9337628160000</pproTicksIn>
						<pproTicksOut>11379916800000</pproTicksOut>
						<file id="file-34"/>
						<sourcetrack>
							<mediatype>audio</mediatype>
							<trackindex>1</trackindex>
						</sourcetrack>
							<filter>
								<effect>
									<name>Gain</name>
									<effectid>{61756678, 4761696e, 4b657947}</effectid>
									<effecttype>filter</effecttype>
									<mediatype>audio</mediatype>
									<parameter authoringApp="PremierePro">
										<parameterid>Gain(dB)</parameterid>
										<name>Gain(dB)</name>
										<valuemin>-96</valuemin>
										<valuemax>96</valuemax>
										<value>-27</value>
									</parameter>
								</effect>
							</filter>
						<link>
							<linkclipref>clipitem-118</linkclipref>
							<mediatype>audio</mediatype>
							<trackindex>7</trackindex>
							<clipindex>4</clipindex>
							<groupindex>1</groupindex>
						</link>
						<link>
							<linkclipref>clipitem-171</linkclipref>
							<mediatype>audio</mediatype>
							<trackindex>8</trackindex>
							<clipindex>3</clipindex>
							<groupindex>1</groupindex>
						</link>
						<logginginfo>
							<description></description>
							<scene></scene>
							<shottake></shottake>
							<lognote></lognote>
						</logginginfo>
						<labels>
							<label2>Caribbean</label2>
						</labels>
					</clipitem>
					<transitionitem>
						<start>750</start>
						<end>825</end>
						<alignment>start-black</alignment>
						<cutPointTicks>0</cutPointTicks>
						<rate>
							<timebase>25</timebase>
							<ntsc>FALSE</ntsc>
						</rate>
						<effect>
							<name>Cross Fade (+3dB)</name>
							<effectid>KGAudioTransCrossFade3dB</effectid>
							<effecttype>transition</effecttype>
							<mediatype>audio</mediatype>
							<wipecode>0</wipecode>
							<wipeaccuracy>100</wipeaccuracy>
							<startratio>0</startratio>
							<endratio>1</endratio>
							<reverse>FALSE</reverse>
						</effect>
					</transitionitem>
					<clipitem id="clipitem-119" premiereChannelType="stereo">
						<masterclipid>masterclip-37</masterclipid>
						<name>NONRE646891HD0001 Lockjaw.wav</name>
						<enabled>TRUE</enabled>
						<duration>5578</duration>
						<rate>
							<timebase>25</timebase>
							<ntsc>FALSE</ntsc>
						</rate>
						<start>-1</start>
						<end>-1</end>
						<in>0</in>
						<out>264</out>
						<pproTicksIn>0</pproTicksIn>
						<pproTicksOut>2682408960000</pproTicksOut>
						<file id="file-35">
							<name>NONRE646891HD0001 Lockjaw.wav</name>
							<pathurl>file://localhost/Volumes/Bingen/Prosjekter/MYNT194016%20WHATS%20COOKING/Musikk/Marita/Lykke/dma%20Fri%20Jun%2017%2016%3a44%3a14%202016/NONRE646891HD0001%20Lockjaw.wav</pathurl>
							<rate>
								<timebase>30</timebase>
								<ntsc>TRUE</ntsc>
							</rate>
							<duration>6687</duration>
							<timecode>
								<rate>
									<timebase>30</timebase>
									<ntsc>TRUE</ntsc>
								</rate>
								<string>00;00;00;00</string>
								<frame>0</frame>
								<displayformat>DF</displayformat>
								<reel>
									<name></name>
								</reel>
							</timecode>
							<media>
								<audio>
									<samplecharacteristics>
										<depth>16</depth>
										<samplerate>48000</samplerate>
									</samplecharacteristics>
									<channelcount>2</channelcount>
								</audio>
							</media>
						</file>
						<sourcetrack>
							<mediatype>audio</mediatype>
							<trackindex>1</trackindex>
						</sourcetrack>
							<filter>
								<effect>
									<name>Gain</name>
									<effectid>{61756678, 4761696e, 4b657947}</effectid>
									<effecttype>filter</effecttype>
									<mediatype>audio</mediatype>
									<parameter authoringApp="PremierePro">
										<parameterid>Gain(dB)</parameterid>
										<name>Gain(dB)</name>
										<valuemin>-96</valuemin>
										<valuemax>96</valuemax>
										<value>-21</value>
									</parameter>
								</effect>
							</filter>
						<link>
							<linkclipref>clipitem-119</linkclipref>
							<mediatype>audio</mediatype>
							<trackindex>7</trackindex>
							<clipindex>6</clipindex>
							<groupindex>1</groupindex>
						</link>
						<link>
							<linkclipref>clipitem-172</linkclipref>
							<mediatype>audio</mediatype>
							<trackindex>8</trackindex>
							<clipindex>5</clipindex>
							<groupindex>1</groupindex>
						</link>
						<logginginfo>
							<description>NB! Avventer svar fra HP</description>
							<scene></scene>
							<shottake></shottake>
							<lognote></lognote>
						</logginginfo>
						<labels>
							<label2>Caribbean</label2>
						</labels>
					</clipitem>
					<transitionitem>
						<start>1001</start>
						<end>1014</end>
						<alignment>center</alignment>
						<cutPointTicks>60963840000</cutPointTicks>
						<rate>
							<timebase>25</timebase>
							<ntsc>FALSE</ntsc>
						</rate>
						<effect>
							<name>Cross Fade (+3dB)</name>
							<effectid>KGAudioTransCrossFade3dB</effectid>
							<effecttype>transition</effecttype>
							<mediatype>audio</mediatype>
							<wipecode>0</wipecode>
							<wipeaccuracy>100</wipeaccuracy>
							<startratio>0</startratio>
							<endratio>1</endratio>
							<reverse>FALSE</reverse>
						</effect>
					</transitionitem>
					<clipitem id="clipitem-120" premiereChannelType="stereo">
						<masterclipid>masterclip-37</masterclipid>
						<name>NONRE646891HD0001 Lockjaw.wav</name>
						<enabled>TRUE</enabled>
						<duration>5578</duration>
						<rate>
							<timebase>25</timebase>
							<ntsc>FALSE</ntsc>
						</rate>
						<start>-1</start>
						<end>-1</end>
						<in>251</in>
						<out>709</out>
						<pproTicksIn>2550320640000</pproTicksIn>
						<pproTicksOut>7203893760000</pproTicksOut>
						<file id="file-35"/>
						<sourcetrack>
							<mediatype>audio</mediatype>
							<trackindex>1</trackindex>
						</sourcetrack>
							<filter>
								<effect>
									<name>Gain</name>
									<effectid>{61756678, 4761696e, 4b657947}</effectid>
									<effecttype>filter</effecttype>
									<mediatype>audio</mediatype>
									<parameter authoringApp="PremierePro">
										<parameterid>Gain(dB)</parameterid>
										<name>Gain(dB)</name>
										<valuemin>-96</valuemin>
										<valuemax>96</valuemax>
										<value>-12</value>
									</parameter>
								</effect>
							</filter>
						<link>
							<linkclipref>clipitem-120</linkclipref>
							<mediatype>audio</mediatype>
							<trackindex>7</trackindex>
							<clipindex>8</clipindex>
							<groupindex>1</groupindex>
						</link>
						<link>
							<linkclipref>clipitem-173</linkclipref>
							<mediatype>audio</mediatype>
							<trackindex>8</trackindex>
							<clipindex>7</clipindex>
							<groupindex>1</groupindex>
						</link>
						<logginginfo>
							<description>NB! Avventer svar fra HP</description>
							<scene></scene>
							<shottake></shottake>
							<lognote></lognote>
						</logginginfo>
						<labels>
							<label2>Caribbean</label2>
						</labels>
					</clipitem>
					<transitionitem>
						<start>1423</start>
						<end>1459</end>
						<alignment>center</alignment>
						<cutPointTicks>173514096000</cutPointTicks>
						<rate>
							<timebase>25</timebase>
							<ntsc>FALSE</ntsc>
						</rate>
						<effect>
							<name>Cross Fade (+3dB)</name>
							<effectid>KGAudioTransCrossFade3dB</effectid>
							<effecttype>transition</effecttype>
							<mediatype>audio</mediatype>
							<wipecode>0</wipecode>
							<wipeaccuracy>100</wipeaccuracy>
							<startratio>0</startratio>
							<endratio>1</endratio>
							<reverse>FALSE</reverse>
						</effect>
					</transitionitem>
					<clipitem id="clipitem-121" premiereChannelType="stereo">
						<masterclipid>masterclip-37</masterclipid>
						<name>NONRE646891HD0001 Lockjaw.wav</name>
						<enabled>TRUE</enabled>
						<duration>5578</duration>
						<rate>
							<timebase>25</timebase>
							<ntsc>FALSE</ntsc>
						</rate>
						<start>-1</start>
						<end>-1</end>
						<in>673</in>
						<out>917</out>
						<pproTicksIn>6838110720000</pproTicksIn>
						<pproTicksOut>9317306880000</pproTicksOut>
						<file id="file-35"/>
						<sourcetrack>
							<mediatype>audio</mediatype>
							<trackindex>1</trackindex>
						</sourcetrack>
							<filter>
								<effect>
									<name>Gain</name>
									<effectid>{61756678, 4761696e, 4b657947}</effectid>
									<effecttype>filter</effecttype>
									<mediatype>audio</mediatype>
									<parameter authoringApp="PremierePro">
										<parameterid>Gain(dB)</parameterid>
										<name>Gain(dB)</name>
										<valuemin>-96</valuemin>
										<valuemax>96</valuemax>
										<value>-30</value>
									</parameter>
								</effect>
							</filter>
						<link>
							<linkclipref>clipitem-121</linkclipref>
							<mediatype>audio</mediatype>
							<trackindex>7</trackindex>
							<clipindex>10</clipindex>
							<groupindex>1</groupindex>
						</link>
						<link>
							<linkclipref>clipitem-174</linkclipref>
							<mediatype>audio</mediatype>
							<trackindex>8</trackindex>
							<clipindex>9</clipindex>
							<groupindex>1</groupindex>
						</link>
						<logginginfo>
							<description>NB! Avventer svar fra HP</description>
							<scene></scene>
							<shottake></shottake>
							<lognote></lognote>
						</logginginfo>
						<labels>
							<label2>Caribbean</label2>
						</labels>
					</clipitem>
					<transitionitem>
						<start>1640</start>
						<end>1667</end>
						<alignment>end-black</alignment>
						<cutPointTicks>274337280000</cutPointTicks>
						<rate>
							<timebase>25</timebase>
							<ntsc>FALSE</ntsc>
						</rate>
						<effect>
							<name>Cross Fade (+3dB)</name>
							<effectid>KGAudioTransCrossFade3dB</effectid>
							<effecttype>transition</effecttype>
							<mediatype>audio</mediatype>
							<wipecode>0</wipecode>
							<wipeaccuracy>100</wipeaccuracy>
							<startratio>0</startratio>
							<endratio>1</endratio>
							<reverse>FALSE</reverse>
						</effect>
					</transitionitem>
					<clipitem id="clipitem-122" premiereChannelType="stereo">
						<masterclipid>masterclip-38</masterclipid>
						<name>74920__juskiddink__bell6.wav</name>
						<enabled>TRUE</enabled>
						<duration>148</duration>
						<rate>
							<timebase>25</timebase>
							<ntsc>FALSE</ntsc>
						</rate>
						<start>5193</start>
						<end>-1</end>
						<in>0</in>
						<out>11</out>
						<pproTicksIn>0</pproTicksIn>
						<pproTicksOut>111767040000</pproTicksOut>
						<file id="file-36">
							<name>74920__juskiddink__bell6.wav</name>
							<pathurl>file://localhost/Volumes/Bingen/Prosjekter/MYNT194016%20WHATS%20COOKING/Lydeffekter/Jan%20Lydeffekter/74920__juskiddink__bell6.wav</pathurl>
							<rate>
								<timebase>30</timebase>
								<ntsc>TRUE</ntsc>
							</rate>
							<duration>177</duration>
							<timecode>
								<rate>
									<timebase>30</timebase>
									<ntsc>TRUE</ntsc>
								</rate>
								<string>00;00;00;00</string>
								<frame>0</frame>
								<displayformat>DF</displayformat>
								<reel>
									<name></name>
								</reel>
							</timecode>
							<media>
								<audio>
									<samplecharacteristics>
										<depth>16</depth>
										<samplerate>48000</samplerate>
									</samplecharacteristics>
									<channelcount>2</channelcount>
								</audio>
							</media>
						</file>
						<sourcetrack>
							<mediatype>audio</mediatype>
							<trackindex>1</trackindex>
						</sourcetrack>
							<filter>
								<effect>
									<name>Gain</name>
									<effectid>{61756678, 4761696e, 4b657947}</effectid>
									<effecttype>filter</effecttype>
									<mediatype>audio</mediatype>
									<parameter authoringApp="PremierePro">
										<parameterid>Gain(dB)</parameterid>
										<name>Gain(dB)</name>
										<valuemin>-96</valuemin>
										<valuemax>96</valuemax>
										<value>-28</value>
									</parameter>
								</effect>
							</filter>
						<link>
							<linkclipref>clipitem-122</linkclipref>
							<mediatype>audio</mediatype>
							<trackindex>7</trackindex>
							<clipindex>12</clipindex>
							<groupindex>1</groupindex>
						</link>
						<link>
							<linkclipref>clipitem-175</linkclipref>
							<mediatype>audio</mediatype>
							<trackindex>8</trackindex>
							<clipindex>11</clipindex>
							<groupindex>1</groupindex>
						</link>
						<logginginfo>
							<description></description>
							<scene></scene>
							<shottake></shottake>
							<lognote></lognote>
						</logginginfo>
						<labels>
							<label2>Caribbean</label2>
						</labels>
					</clipitem>
					<transitionitem>
						<start>5197</start>
						<end>5204</end>
						<alignment>center</alignment>
						<cutPointTicks>30481920000</cutPointTicks>
						<rate>
							<timebase>25</timebase>
							<ntsc>FALSE</ntsc>
						</rate>
						<effect>
							<name>Cross Fade (+3dB)</name>
							<effectid>KGAudioTransCrossFade3dB</effectid>
							<effecttype>transition</effecttype>
							<mediatype>audio</mediatype>
							<wipecode>0</wipecode>
							<wipeaccuracy>100</wipeaccuracy>
							<startratio>0</startratio>
							<endratio>1</endratio>
							<reverse>FALSE</reverse>
						</effect>
					</transitionitem>
					<clipitem id="clipitem-123" premiereChannelType="stereo">
						<masterclipid>masterclip-38</masterclipid>
						<name>74920__juskiddink__bell6.wav</name>
						<enabled>TRUE</enabled>
						<duration>148</duration>
						<rate>
							<timebase>25</timebase>
							<ntsc>FALSE</ntsc>
						</rate>
						<start>-1</start>
						<end>5290</end>
						<in>4</in>
						<out>97</out>
						<pproTicksIn>40642560000</pproTicksIn>
						<pproTicksOut>985582080000</pproTicksOut>
						<file id="file-36"/>
						<sourcetrack>
							<mediatype>audio</mediatype>
							<trackindex>1</trackindex>
						</sourcetrack>
							<filter>
								<effect>
									<name>Gain</name>
									<effectid>{61756678, 4761696e, 4b657947}</effectid>
									<effecttype>filter</effecttype>
									<mediatype>audio</mediatype>
									<parameter authoringApp="PremierePro">
										<parameterid>Gain(dB)</parameterid>
										<name>Gain(dB)</name>
										<valuemin>-96</valuemin>
										<valuemax>96</valuemax>
										<value>-38</value>
									</parameter>
								</effect>
							</filter>
						<link>
							<linkclipref>clipitem-123</linkclipref>
							<mediatype>audio</mediatype>
							<trackindex>7</trackindex>
							<clipindex>14</clipindex>
							<groupindex>1</groupindex>
						</link>
						<link>
							<linkclipref>clipitem-176</linkclipref>
							<mediatype>audio</mediatype>
							<trackindex>8</trackindex>
							<clipindex>13</clipindex>
							<groupindex>1</groupindex>
						</link>
						<logginginfo>
							<description></description>
							<scene></scene>
							<shottake></shottake>
							<lognote></lognote>
						</logginginfo>
						<labels>
							<label2>Caribbean</label2>
						</labels>
					</clipitem>
					<transitionitem>
						<start>5456</start>
						<end>5460</end>
						<alignment>start-black</alignment>
						<cutPointTicks>0</cutPointTicks>
						<rate>
							<timebase>25</timebase>
							<ntsc>FALSE</ntsc>
						</rate>
						<effect>
							<name>Cross Fade (+3dB)</name>
							<effectid>KGAudioTransCrossFade3dB</effectid>
							<effecttype>transition</effecttype>
							<mediatype>audio</mediatype>
							<wipecode>0</wipecode>
							<wipeaccuracy>100</wipeaccuracy>
							<startratio>0</startratio>
							<endratio>1</endratio>
							<reverse>FALSE</reverse>
						</effect>
					</transitionitem>
					<clipitem id="clipitem-124" premiereChannelType="stereo">
						<masterclipid>masterclip-39</masterclipid>
						<name>SAS002116.wav</name>
						<enabled>TRUE</enabled>
						<duration>2875</duration>
						<rate>
							<timebase>25</timebase>
							<ntsc>FALSE</ntsc>
						</rate>
						<start>-1</start>
						<end>-1</end>
						<in>0</in>
						<out>38</out>
						<pproTicksIn>0</pproTicksIn>
						<pproTicksOut>386104320000</pproTicksOut>
						<file id="file-37">
							<name>SAS002116.wav</name>
							<pathurl>file://localhost/Volumes/Bingen/Prosjekter/MYNT194016%20WHATS%20COOKING/Musikk/Marita/VB%20Mikkel%20er%20dansk/auxmp14608_54335/SAS002116.wav</pathurl>
							<rate>
								<timebase>30</timebase>
								<ntsc>TRUE</ntsc>
							</rate>
							<duration>3446</duration>
							<timecode>
								<rate>
									<timebase>30</timebase>
									<ntsc>TRUE</ntsc>
								</rate>
								<string>00;00;00;00</string>
								<frame>0</frame>
								<displayformat>DF</displayformat>
								<reel>
									<name></name>
								</reel>
							</timecode>
							<media>
								<audio>
									<samplecharacteristics>
										<depth>16</depth>
										<samplerate>48000</samplerate>
									</samplecharacteristics>
									<channelcount>2</channelcount>
								</audio>
							</media>
						</file>
						<sourcetrack>
							<mediatype>audio</mediatype>
							<trackindex>1</trackindex>
						</sourcetrack>
							<filter>
								<effect>
									<name>Gain</name>
									<effectid>{61756678, 4761696e, 4b657947}</effectid>
									<effecttype>filter</effecttype>
									<mediatype>audio</mediatype>
									<parameter authoringApp="PremierePro">
										<parameterid>Gain(dB)</parameterid>
										<name>Gain(dB)</name>
										<valuemin>-96</valuemin>
										<valuemax>96</valuemax>
										<value>-9</value>
									</parameter>
								</effect>
							</filter>
						<link>
							<linkclipref>clipitem-124</linkclipref>
							<mediatype>audio</mediatype>
							<trackindex>7</trackindex>
							<clipindex>16</clipindex>
							<groupindex>1</groupindex>
						</link>
						<link>
							<linkclipref>clipitem-177</linkclipref>
							<mediatype>audio</mediatype>
							<trackindex>8</trackindex>
							<clipindex>15</clipindex>
							<groupindex>1</groupindex>
						</link>
						<logginginfo>
							<description>fortfilm, drikkerace</description>
							<scene></scene>
							<shottake></shottake>
							<lognote></lognote>
						</logginginfo>
						<labels>
							<label2>Caribbean</label2>
						</labels>
					</clipitem>
					<transitionitem>
						<start>5481</start>
						<end>5494</end>
						<alignment>center</alignment>
						<cutPointTicks>60963840000</cutPointTicks>
						<rate>
							<timebase>25</timebase>
							<ntsc>FALSE</ntsc>
						</rate>
						<effect>
							<name>Cross Fade (+3dB)</name>
							<effectid>KGAudioTransCrossFade3dB</effectid>
							<effecttype>transition</effecttype>
							<mediatype>audio</mediatype>
							<wipecode>0</wipecode>
							<wipeaccuracy>100</wipeaccuracy>
							<startratio>0</startratio>
							<endratio>1</endratio>
							<reverse>FALSE</reverse>
						</effect>
					</transitionitem>
					<clipitem id="clipitem-125" premiereChannelType="stereo">
						<masterclipid>masterclip-39</masterclipid>
						<name>SAS002116.wav</name>
						<enabled>TRUE</enabled>
						<duration>2875</duration>
						<rate>
							<timebase>25</timebase>
							<ntsc>FALSE</ntsc>
						</rate>
						<start>-1</start>
						<end>-1</end>
						<in>25</in>
						<out>90</out>
						<pproTicksIn>254016000000</pproTicksIn>
						<pproTicksOut>914457600000</pproTicksOut>
						<file id="file-37"/>
						<sourcetrack>
							<mediatype>audio</mediatype>
							<trackindex>1</trackindex>
						</sourcetrack>
							<filter>
								<effect>
									<name>Gain</name>
									<effectid>{61756678, 4761696e, 4b657947}</effectid>
									<effecttype>filter</effecttype>
									<mediatype>audio</mediatype>
									<parameter authoringApp="PremierePro">
										<parameterid>Gain(dB)</parameterid>
										<name>Gain(dB)</name>
										<valuemin>-96</valuemin>
										<valuemax>96</valuemax>
										<value>-21</value>
									</parameter>
								</effect>
							</filter>
						<link>
							<linkclipref>clipitem-125</linkclipref>
							<mediatype>audio</mediatype>
							<trackindex>7</trackindex>
							<clipindex>18</clipindex>
							<groupindex>1</groupindex>
						</link>
						<link>
							<linkclipref>clipitem-178</linkclipref>
							<mediatype>audio</mediatype>
							<trackindex>8</trackindex>
							<clipindex>17</clipindex>
							<groupindex>1</groupindex>
						</link>
						<logginginfo>
							<description>fortfilm, drikkerace</description>
							<scene></scene>
							<shottake></shottake>
							<lognote></lognote>
						</logginginfo>
						<labels>
							<label2>Caribbean</label2>
						</labels>
					</clipitem>
					<transitionitem>
						<start>5533</start>
						<end>5546</end>
						<alignment>center</alignment>
						<cutPointTicks>60963840000</cutPointTicks>
						<rate>
							<timebase>25</timebase>
							<ntsc>FALSE</ntsc>
						</rate>
						<effect>
							<name>Cross Fade (+3dB)</name>
							<effectid>KGAudioTransCrossFade3dB</effectid>
							<effecttype>transition</effecttype>
							<mediatype>audio</mediatype>
							<wipecode>0</wipecode>
							<wipeaccuracy>100</wipeaccuracy>
							<startratio>0</startratio>
							<endratio>1</endratio>
							<reverse>FALSE</reverse>
						</effect>
					</transitionitem>
					<clipitem id="clipitem-126" premiereChannelType="stereo">
						<masterclipid>masterclip-39</masterclipid>
						<name>SAS002116.wav</name>
						<enabled>TRUE</enabled>
						<duration>2875</duration>
						<rate>
							<timebase>25</timebase>
							<ntsc>FALSE</ntsc>
						</rate>
						<start>-1</start>
						<end>-1</end>
						<in>77</in>
						<out>155</out>
						<pproTicksIn>782369280000</pproTicksIn>
						<pproTicksOut>1574899200000</pproTicksOut>
						<file id="file-37"/>
						<sourcetrack>
							<mediatype>audio</mediatype>
							<trackindex>1</trackindex>
						</sourcetrack>
							<filter>
								<effect>
									<name>Gain</name>
									<effectid>{61756678, 4761696e, 4b657947}</effectid>
									<effecttype>filter</effecttype>
									<mediatype>audio</mediatype>
									<parameter authoringApp="PremierePro">
										<parameterid>Gain(dB)</parameterid>
										<name>Gain(dB)</name>
										<valuemin>-96</valuemin>
										<valuemax>96</valuemax>
										<value>-9</value>
									</parameter>
								</effect>
							</filter>
						<link>
							<linkclipref>clipitem-126</linkclipref>
							<mediatype>audio</mediatype>
							<trackindex>7</trackindex>
							<clipindex>20</clipindex>
							<groupindex>1</groupindex>
						</link>
						<link>
							<linkclipref>clipitem-179</linkclipref>
							<mediatype>audio</mediatype>
							<trackindex>8</trackindex>
							<clipindex>19</clipindex>
							<groupindex>1</groupindex>
						</link>
						<logginginfo>
							<description>fortfilm, drikkerace</description>
							<scene></scene>
							<shottake></shottake>
							<lognote></lognote>
						</logginginfo>
						<labels>
							<label2>Caribbean</label2>
						</labels>
					</clipitem>
					<transitionitem>
						<start>5598</start>
						<end>5611</end>
						<alignment>center</alignment>
						<cutPointTicks>60963840000</cutPointTicks>
						<rate>
							<timebase>25</timebase>
							<ntsc>FALSE</ntsc>
						</rate>
						<effect>
							<name>Cross Fade (+3dB)</name>
							<effectid>KGAudioTransCrossFade3dB</effectid>
							<effecttype>transition</effecttype>
							<mediatype>audio</mediatype>
							<wipecode>0</wipecode>
							<wipeaccuracy>100</wipeaccuracy>
							<startratio>0</startratio>
							<endratio>1</endratio>
							<reverse>FALSE</reverse>
						</effect>
					</transitionitem>
					<clipitem id="clipitem-127" premiereChannelType="stereo">
						<masterclipid>masterclip-39</masterclipid>
						<name>SAS002116.wav</name>
						<enabled>TRUE</enabled>
						<duration>2875</duration>
						<rate>
							<timebase>25</timebase>
							<ntsc>FALSE</ntsc>
						</rate>
						<start>-1</start>
						<end>-1</end>
						<in>142</in>
						<out>389</out>
						<pproTicksIn>1442810880000</pproTicksIn>
						<pproTicksOut>3952488960000</pproTicksOut>
						<file id="file-37"/>
						<sourcetrack>
							<mediatype>audio</mediatype>
							<trackindex>1</trackindex>
						</sourcetrack>
							<filter>
								<effect>
									<name>Gain</name>
									<effectid>{61756678, 4761696e, 4b657947}</effectid>
									<effecttype>filter</effecttype>
									<mediatype>audio</mediatype>
									<parameter authoringApp="PremierePro">
										<parameterid>Gain(dB)</parameterid>
										<name>Gain(dB)</name>
										<valuemin>-96</valuemin>
										<valuemax>96</valuemax>
										<value>-18</value>
									</parameter>
								</effect>
							</filter>
						<link>
							<linkclipref>clipitem-127</linkclipref>
							<mediatype>audio</mediatype>
							<trackindex>7</trackindex>
							<clipindex>22</clipindex>
							<groupindex>1</groupindex>
						</link>
						<link>
							<linkclipref>clipitem-180</linkclipref>
							<mediatype>audio</mediatype>
							<trackindex>8</trackindex>
							<clipindex>21</clipindex>
							<groupindex>1</groupindex>
						</link>
						<logginginfo>
							<description>fortfilm, drikkerace</description>
							<scene></scene>
							<shottake></shottake>
							<lognote></lognote>
						</logginginfo>
						<labels>
							<label2>Caribbean</label2>
						</labels>
					</clipitem>
					<transitionitem>
						<start>5832</start>
						<end>5845</end>
						<alignment>center</alignment>
						<cutPointTicks>60963840000</cutPointTicks>
						<rate>
							<timebase>25</timebase>
							<ntsc>FALSE</ntsc>
						</rate>
						<effect>
							<name>Cross Fade (+3dB)</name>
							<effectid>KGAudioTransCrossFade3dB</effectid>
							<effecttype>transition</effecttype>
							<mediatype>audio</mediatype>
							<wipecode>0</wipecode>
							<wipeaccuracy>100</wipeaccuracy>
							<startratio>0</startratio>
							<endratio>1</endratio>
							<reverse>FALSE</reverse>
						</effect>
					</transitionitem>
					<clipitem id="clipitem-128" premiereChannelType="stereo">
						<masterclipid>masterclip-39</masterclipid>
						<name>SAS002116.wav</name>
						<enabled>TRUE</enabled>
						<duration>2875</duration>
						<rate>
							<timebase>25</timebase>
							<ntsc>FALSE</ntsc>
						</rate>
						<start>-1</start>
						<end>-1</end>
						<in>376</in>
						<out>489</out>
						<pproTicksIn>3820400640000</pproTicksIn>
						<pproTicksOut>4968552960000</pproTicksOut>
						<file id="file-37"/>
						<sourcetrack>
							<mediatype>audio</mediatype>
							<trackindex>1</trackindex>
						</sourcetrack>
							<filter>
								<effect>
									<name>Gain</name>
									<effectid>{61756678, 4761696e, 4b657947}</effectid>
									<effecttype>filter</effecttype>
									<mediatype>audio</mediatype>
									<parameter authoringApp="PremierePro">
										<parameterid>Gain(dB)</parameterid>
										<name>Gain(dB)</name>
										<valuemin>-96</valuemin>
										<valuemax>96</valuemax>
										<value>-6</value>
									</parameter>
								</effect>
							</filter>
						<link>
							<linkclipref>clipitem-128</linkclipref>
							<mediatype>audio</mediatype>
							<trackindex>7</trackindex>
							<clipindex>24</clipindex>
							<groupindex>1</groupindex>
						</link>
						<link>
							<linkclipref>clipitem-181</linkclipref>
							<mediatype>audio</mediatype>
							<trackindex>8</trackindex>
							<clipindex>23</clipindex>
							<groupindex>1</groupindex>
						</link>
						<logginginfo>
							<description>fortfilm, drikkerace</description>
							<scene></scene>
							<shottake></shottake>
							<lognote></lognote>
						</logginginfo>
						<labels>
							<label2>Caribbean</label2>
						</labels>
					</clipitem>
					<transitionitem>
						<start>5932</start>
						<end>5945</end>
						<alignment>center</alignment>
						<cutPointTicks>60963840000</cutPointTicks>
						<rate>
							<timebase>25</timebase>
							<ntsc>FALSE</ntsc>
						</rate>
						<effect>
							<name>Cross Fade (+3dB)</name>
							<effectid>KGAudioTransCrossFade3dB</effectid>
							<effecttype>transition</effecttype>
							<mediatype>audio</mediatype>
							<wipecode>0</wipecode>
							<wipeaccuracy>100</wipeaccuracy>
							<startratio>0</startratio>
							<endratio>1</endratio>
							<reverse>FALSE</reverse>
						</effect>
					</transitionitem>
					<clipitem id="clipitem-129" premiereChannelType="stereo">
						<masterclipid>masterclip-39</masterclipid>
						<name>SAS002116.wav</name>
						<enabled>TRUE</enabled>
						<duration>2875</duration>
						<rate>
							<timebase>25</timebase>
							<ntsc>FALSE</ntsc>
						</rate>
						<start>-1</start>
						<end>-1</end>
						<in>476</in>
						<out>522</out>
						<pproTicksIn>4836464640000</pproTicksIn>
						<pproTicksOut>5303854080000</pproTicksOut>
						<file id="file-37"/>
						<sourcetrack>
							<mediatype>audio</mediatype>
							<trackindex>1</trackindex>
						</sourcetrack>
							<filter>
								<effect>
									<name>Gain</name>
									<effectid>{61756678, 4761696e, 4b657947}</effectid>
									<effecttype>filter</effecttype>
									<mediatype>audio</mediatype>
									<parameter authoringApp="PremierePro">
										<parameterid>Gain(dB)</parameterid>
										<name>Gain(dB)</name>
										<valuemin>-96</valuemin>
										<valuemax>96</valuemax>
										<value>-18</value>
									</parameter>
								</effect>
							</filter>
						<link>
							<linkclipref>clipitem-129</linkclipref>
							<mediatype>audio</mediatype>
							<trackindex>7</trackindex>
							<clipindex>26</clipindex>
							<groupindex>1</groupindex>
						</link>
						<link>
							<linkclipref>clipitem-182</linkclipref>
							<mediatype>audio</mediatype>
							<trackindex>8</trackindex>
							<clipindex>25</clipindex>
							<groupindex>1</groupindex>
						</link>
						<logginginfo>
							<description>fortfilm, drikkerace</description>
							<scene></scene>
							<shottake></shottake>
							<lognote></lognote>
						</logginginfo>
						<labels>
							<label2>Caribbean</label2>
						</labels>
					</clipitem>
					<transitionitem>
						<start>5965</start>
						<end>5978</end>
						<alignment>center</alignment>
						<cutPointTicks>60963840000</cutPointTicks>
						<rate>
							<timebase>25</timebase>
							<ntsc>FALSE</ntsc>
						</rate>
						<effect>
							<name>Cross Fade (+3dB)</name>
							<effectid>KGAudioTransCrossFade3dB</effectid>
							<effecttype>transition</effecttype>
							<mediatype>audio</mediatype>
							<wipecode>0</wipecode>
							<wipeaccuracy>100</wipeaccuracy>
							<startratio>0</startratio>
							<endratio>1</endratio>
							<reverse>FALSE</reverse>
						</effect>
					</transitionitem>
					<clipitem id="clipitem-130" premiereChannelType="stereo">
						<masterclipid>masterclip-39</masterclipid>
						<name>SAS002116.wav</name>
						<enabled>TRUE</enabled>
						<duration>2875</duration>
						<rate>
							<timebase>25</timebase>
							<ntsc>FALSE</ntsc>
						</rate>
						<start>-1</start>
						<end>-1</end>
						<in>509</in>
						<out>556</out>
						<pproTicksIn>5171765760000</pproTicksIn>
						<pproTicksOut>5649315840000</pproTicksOut>
						<file id="file-37"/>
						<sourcetrack>
							<mediatype>audio</mediatype>
							<trackindex>1</trackindex>
						</sourcetrack>
							<filter>
								<effect>
									<name>Gain</name>
									<effectid>{61756678, 4761696e, 4b657947}</effectid>
									<effecttype>filter</effecttype>
									<mediatype>audio</mediatype>
									<parameter authoringApp="PremierePro">
										<parameterid>Gain(dB)</parameterid>
										<name>Gain(dB)</name>
										<valuemin>-96</valuemin>
										<valuemax>96</valuemax>
										<value>-9</value>
									</parameter>
								</effect>
							</filter>
						<link>
							<linkclipref>clipitem-130</linkclipref>
							<mediatype>audio</mediatype>
							<trackindex>7</trackindex>
							<clipindex>28</clipindex>
							<groupindex>1</groupindex>
						</link>
						<link>
							<linkclipref>clipitem-183</linkclipref>
							<mediatype>audio</mediatype>
							<trackindex>8</trackindex>
							<clipindex>27</clipindex>
							<groupindex>1</groupindex>
						</link>
						<logginginfo>
							<description>fortfilm, drikkerace</description>
							<scene></scene>
							<shottake></shottake>
							<lognote></lognote>
						</logginginfo>
						<labels>
							<label2>Caribbean</label2>
						</labels>
					</clipitem>
					<transitionitem>
						<start>5987</start>
						<end>6012</end>
						<alignment>center</alignment>
						<cutPointTicks>121927680000</cutPointTicks>
						<rate>
							<timebase>25</timebase>
							<ntsc>FALSE</ntsc>
						</rate>
						<effect>
							<name>Cross Fade (+3dB)</name>
							<effectid>KGAudioTransCrossFade3dB</effectid>
							<effecttype>transition</effecttype>
							<mediatype>audio</mediatype>
							<wipecode>0</wipecode>
							<wipeaccuracy>100</wipeaccuracy>
							<startratio>0</startratio>
							<endratio>1</endratio>
							<reverse>FALSE</reverse>
						</effect>
					</transitionitem>
					<clipitem id="clipitem-131" premiereChannelType="stereo">
						<masterclipid>masterclip-39</masterclipid>
						<name>SAS002116.wav</name>
						<enabled>TRUE</enabled>
						<duration>2875</duration>
						<rate>
							<timebase>25</timebase>
							<ntsc>FALSE</ntsc>
						</rate>
						<start>-1</start>
						<end>-1</end>
						<in>531</in>
						<out>586</out>
						<pproTicksIn>5395299840000</pproTicksIn>
						<pproTicksOut>5954135040000</pproTicksOut>
						<file id="file-37"/>
						<sourcetrack>
							<mediatype>audio</mediatype>
							<trackindex>1</trackindex>
						</sourcetrack>
							<filter>
								<effect>
									<name>Gain</name>
									<effectid>{61756678, 4761696e, 4b657947}</effectid>
									<effecttype>filter</effecttype>
									<mediatype>audio</mediatype>
									<parameter authoringApp="PremierePro">
										<parameterid>Gain(dB)</parameterid>
										<name>Gain(dB)</name>
										<valuemin>-96</valuemin>
										<valuemax>96</valuemax>
										<value>-18</value>
									</parameter>
								</effect>
							</filter>
						<link>
							<linkclipref>clipitem-131</linkclipref>
							<mediatype>audio</mediatype>
							<trackindex>7</trackindex>
							<clipindex>30</clipindex>
							<groupindex>1</groupindex>
						</link>
						<link>
							<linkclipref>clipitem-184</linkclipref>
							<mediatype>audio</mediatype>
							<trackindex>8</trackindex>
							<clipindex>29</clipindex>
							<groupindex>1</groupindex>
						</link>
						<logginginfo>
							<description>fortfilm, drikkerace</description>
							<scene></scene>
							<shottake></shottake>
							<lognote></lognote>
						</logginginfo>
						<labels>
							<label2>Caribbean</label2>
						</labels>
					</clipitem>
					<transitionitem>
						<start>6029</start>
						<end>6042</end>
						<alignment>center</alignment>
						<cutPointTicks>60963840000</cutPointTicks>
						<rate>
							<timebase>25</timebase>
							<ntsc>FALSE</ntsc>
						</rate>
						<effect>
							<name>Cross Fade (+3dB)</name>
							<effectid>KGAudioTransCrossFade3dB</effectid>
							<effecttype>transition</effecttype>
							<mediatype>audio</mediatype>
							<wipecode>0</wipecode>
							<wipeaccuracy>100</wipeaccuracy>
							<startratio>0</startratio>
							<endratio>1</endratio>
							<reverse>FALSE</reverse>
						</effect>
					</transitionitem>
					<clipitem id="clipitem-132" premiereChannelType="stereo">
						<masterclipid>masterclip-39</masterclipid>
						<name>SAS002116.wav</name>
						<enabled>TRUE</enabled>
						<duration>2875</duration>
						<rate>
							<timebase>25</timebase>
							<ntsc>FALSE</ntsc>
						</rate>
						<start>-1</start>
						<end>-1</end>
						<in>573</in>
						<out>645</out>
						<pproTicksIn>5822046720000</pproTicksIn>
						<pproTicksOut>6553612800000</pproTicksOut>
						<file id="file-37"/>
						<sourcetrack>
							<mediatype>audio</mediatype>
							<trackindex>1</trackindex>
						</sourcetrack>
							<filter>
								<effect>
									<name>Gain</name>
									<effectid>{61756678, 4761696e, 4b657947}</effectid>
									<effecttype>filter</effecttype>
									<mediatype>audio</mediatype>
									<parameter authoringApp="PremierePro">
										<parameterid>Gain(dB)</parameterid>
										<name>Gain(dB)</name>
										<valuemin>-96</valuemin>
										<valuemax>96</valuemax>
										<value>-9</value>
									</parameter>
								</effect>
							</filter>
						<link>
							<linkclipref>clipitem-132</linkclipref>
							<mediatype>audio</mediatype>
							<trackindex>7</trackindex>
							<clipindex>32</clipindex>
							<groupindex>1</groupindex>
						</link>
						<link>
							<linkclipref>clipitem-185</linkclipref>
							<mediatype>audio</mediatype>
							<trackindex>8</trackindex>
							<clipindex>31</clipindex>
							<groupindex>1</groupindex>
						</link>
						<logginginfo>
							<description>fortfilm, drikkerace</description>
							<scene></scene>
							<shottake></shottake>
							<lognote></lognote>
						</logginginfo>
						<labels>
							<label2>Caribbean</label2>
						</labels>
					</clipitem>
					<transitionitem>
						<start>6088</start>
						<end>6101</end>
						<alignment>center</alignment>
						<cutPointTicks>60963840000</cutPointTicks>
						<rate>
							<timebase>25</timebase>
							<ntsc>FALSE</ntsc>
						</rate>
						<effect>
							<name>Cross Fade (+3dB)</name>
							<effectid>KGAudioTransCrossFade3dB</effectid>
							<effecttype>transition</effecttype>
							<mediatype>audio</mediatype>
							<wipecode>0</wipecode>
							<wipeaccuracy>100</wipeaccuracy>
							<startratio>0</startratio>
							<endratio>1</endratio>
							<reverse>FALSE</reverse>
						</effect>
					</transitionitem>
					<clipitem id="clipitem-133" premiereChannelType="stereo">
						<masterclipid>masterclip-39</masterclipid>
						<name>SAS002116.wav</name>
						<enabled>TRUE</enabled>
						<duration>2875</duration>
						<rate>
							<timebase>25</timebase>
							<ntsc>FALSE</ntsc>
						</rate>
						<start>-1</start>
						<end>-1</end>
						<in>632</in>
						<out>675</out>
						<pproTicksIn>6421524480000</pproTicksIn>
						<pproTicksOut>6858432000000</pproTicksOut>
						<file id="file-37"/>
						<sourcetrack>
							<mediatype>audio</mediatype>
							<trackindex>1</trackindex>
						</sourcetrack>
							<filter>
								<effect>
									<name>Gain</name>
									<effectid>{61756678, 4761696e, 4b657947}</effectid>
									<effecttype>filter</effecttype>
									<mediatype>audio</mediatype>
									<parameter authoringApp="PremierePro">
										<parameterid>Gain(dB)</parameterid>
										<name>Gain(dB)</name>
										<valuemin>-96</valuemin>
										<valuemax>96</valuemax>
										<value>-18</value>
									</parameter>
								</effect>
							</filter>
						<link>
							<linkclipref>clipitem-133</linkclipref>
							<mediatype>audio</mediatype>
							<trackindex>7</trackindex>
							<clipindex>34</clipindex>
							<groupindex>1</groupindex>
						</link>
						<link>
							<linkclipref>clipitem-186</linkclipref>
							<mediatype>audio</mediatype>
							<trackindex>8</trackindex>
							<clipindex>33</clipindex>
							<groupindex>1</groupindex>
						</link>
						<logginginfo>
							<description>fortfilm, drikkerace</description>
							<scene></scene>
							<shottake></shottake>
							<lognote></lognote>
						</logginginfo>
						<labels>
							<label2>Caribbean</label2>
						</labels>
					</clipitem>
					<transitionitem>
						<start>6118</start>
						<end>6131</end>
						<alignment>end-black</alignment>
						<cutPointTicks>132088320000</cutPointTicks>
						<rate>
							<timebase>25</timebase>
							<ntsc>FALSE</ntsc>
						</rate>
						<effect>
							<name>Cross Fade (+3dB)</name>
							<effectid>KGAudioTransCrossFade3dB</effectid>
							<effecttype>transition</effecttype>
							<mediatype>audio</mediatype>
							<wipecode>0</wipecode>
							<wipeaccuracy>100</wipeaccuracy>
							<startratio>0</startratio>
							<endratio>1</endratio>
							<reverse>FALSE</reverse>
						</effect>
					</transitionitem>
					<transitionitem>
						<start>6507</start>
						<end>6520</end>
						<alignment>start-black</alignment>
						<cutPointTicks>0</cutPointTicks>
						<rate>
							<timebase>25</timebase>
							<ntsc>FALSE</ntsc>
						</rate>
						<effect>
							<name>Cross Fade (+3dB)</name>
							<effectid>KGAudioTransCrossFade3dB</effectid>
							<effecttype>transition</effecttype>
							<mediatype>audio</mediatype>
							<wipecode>0</wipecode>
							<wipeaccuracy>100</wipeaccuracy>
							<startratio>0</startratio>
							<endratio>1</endratio>
							<reverse>FALSE</reverse>
						</effect>
					</transitionitem>
					<clipitem id="clipitem-134" premiereChannelType="stereo">
						<masterclipid>masterclip-40</masterclipid>
						<name>SAS002112.wav</name>
						<enabled>TRUE</enabled>
						<duration>2100</duration>
						<rate>
							<timebase>25</timebase>
							<ntsc>FALSE</ntsc>
						</rate>
						<start>-1</start>
						<end>-1</end>
						<in>0</in>
						<out>56</out>
						<pproTicksIn>0</pproTicksIn>
						<pproTicksOut>568995840000</pproTicksOut>
						<file id="file-38">
							<name>SAS002112.wav</name>
							<pathurl>file://localhost/Volumes/Bingen/Prosjekter/MYNT194016%20WHATS%20COOKING/Musikk/Marita/VB%20Mikkel%20er%20dansk/auxmp14608_66173/SAS002112.wav</pathurl>
							<rate>
								<timebase>30</timebase>
								<ntsc>TRUE</ntsc>
							</rate>
							<duration>2517</duration>
							<timecode>
								<rate>
									<timebase>30</timebase>
									<ntsc>TRUE</ntsc>
								</rate>
								<string>00;00;00;00</string>
								<frame>0</frame>
								<displayformat>DF</displayformat>
								<reel>
									<name></name>
								</reel>
							</timecode>
							<media>
								<audio>
									<samplecharacteristics>
										<depth>16</depth>
										<samplerate>48000</samplerate>
									</samplecharacteristics>
									<channelcount>2</channelcount>
								</audio>
							</media>
						</file>
						<sourcetrack>
							<mediatype>audio</mediatype>
							<trackindex>1</trackindex>
						</sourcetrack>
							<filter>
								<effect>
									<name>Gain</name>
									<effectid>{61756678, 4761696e, 4b657947}</effectid>
									<effecttype>filter</effecttype>
									<mediatype>audio</mediatype>
									<parameter authoringApp="PremierePro">
										<parameterid>Gain(dB)</parameterid>
										<name>Gain(dB)</name>
										<valuemin>-96</valuemin>
										<valuemax>96</valuemax>
										<value>-15</value>
									</parameter>
								</effect>
							</filter>
						<link>
							<linkclipref>clipitem-134</linkclipref>
							<mediatype>audio</mediatype>
							<trackindex>7</trackindex>
							<clipindex>37</clipindex>
							<groupindex>1</groupindex>
						</link>
						<link>
							<linkclipref>clipitem-187</linkclipref>
							<mediatype>audio</mediatype>
							<trackindex>8</trackindex>
							<clipindex>36</clipindex>
							<groupindex>1</groupindex>
						</link>
						<logginginfo>
							<description>tøyse/stumfilmaktig (resirkuelre-sang?)</description>
							<scene></scene>
							<shottake></shottake>
							<lognote></lognote>
						</logginginfo>
						<labels>
							<label2>Caribbean</label2>
						</labels>
					</clipitem>
					<transitionitem>
						<start>6554</start>
						<end>6563</end>
						<alignment>center</alignment>
						<cutPointTicks>40642560000</cutPointTicks>
						<rate>
							<timebase>25</timebase>
							<ntsc>FALSE</ntsc>
						</rate>
						<effect>
							<name>Cross Fade (+3dB)</name>
							<effectid>KGAudioTransCrossFade3dB</effectid>
							<effecttype>transition</effecttype>
							<mediatype>audio</mediatype>
							<wipecode>0</wipecode>
							<wipeaccuracy>100</wipeaccuracy>
							<startratio>0</startratio>
							<endratio>1</endratio>
							<reverse>FALSE</reverse>
						</effect>
					</transitionitem>
					<clipitem id="clipitem-135" premiereChannelType="stereo">
						<masterclipid>masterclip-40</masterclipid>
						<name>SAS002112.wav</name>
						<enabled>TRUE</enabled>
						<duration>2100</duration>
						<rate>
							<timebase>25</timebase>
							<ntsc>FALSE</ntsc>
						</rate>
						<start>-1</start>
						<end>-1</end>
						<in>47</in>
						<out>87</out>
						<pproTicksIn>477550080000</pproTicksIn>
						<pproTicksOut>883975680000</pproTicksOut>
						<file id="file-38"/>
						<sourcetrack>
							<mediatype>audio</mediatype>
							<trackindex>1</trackindex>
						</sourcetrack>
							<filter>
								<effect>
									<name>Gain</name>
									<effectid>{61756678, 4761696e, 4b657947}</effectid>
									<effecttype>filter</effecttype>
									<mediatype>audio</mediatype>
									<parameter authoringApp="PremierePro">
										<parameterid>Gain(dB)</parameterid>
										<name>Gain(dB)</name>
										<valuemin>-96</valuemin>
										<valuemax>96</valuemax>
										<value>-6</value>
									</parameter>
								</effect>
							</filter>
						<link>
							<linkclipref>clipitem-135</linkclipref>
							<mediatype>audio</mediatype>
							<trackindex>7</trackindex>
							<clipindex>39</clipindex>
							<groupindex>1</groupindex>
						</link>
						<link>
							<linkclipref>clipitem-188</linkclipref>
							<mediatype>audio</mediatype>
							<trackindex>8</trackindex>
							<clipindex>38</clipindex>
							<groupindex>1</groupindex>
						</link>
						<logginginfo>
							<description>tøyse/stumfilmaktig (resirkuelre-sang?)</description>
							<scene></scene>
							<shottake></shottake>
							<lognote></lognote>
						</logginginfo>
						<labels>
							<label2>Caribbean</label2>
						</labels>
					</clipitem>
					<transitionitem>
						<start>6581</start>
						<end>6594</end>
						<alignment>center</alignment>
						<cutPointTicks>60963840000</cutPointTicks>
						<rate>
							<timebase>25</timebase>
							<ntsc>FALSE</ntsc>
						</rate>
						<effect>
							<name>Cross Fade (+3dB)</name>
							<effectid>KGAudioTransCrossFade3dB</effectid>
							<effecttype>transition</effecttype>
							<mediatype>audio</mediatype>
							<wipecode>0</wipecode>
							<wipeaccuracy>100</wipeaccuracy>
							<startratio>0</startratio>
							<endratio>1</endratio>
							<reverse>FALSE</reverse>
						</effect>
					</transitionitem>
					<clipitem id="clipitem-136" premiereChannelType="stereo">
						<masterclipid>masterclip-40</masterclipid>
						<name>SAS002112.wav</name>
						<enabled>TRUE</enabled>
						<duration>2100</duration>
						<rate>
							<timebase>25</timebase>
							<ntsc>FALSE</ntsc>
						</rate>
						<start>-1</start>
						<end>7038</end>
						<in>74</in>
						<out>531</out>
						<pproTicksIn>751887360000</pproTicksIn>
						<pproTicksOut>5395299840000</pproTicksOut>
						<file id="file-38"/>
						<sourcetrack>
							<mediatype>audio</mediatype>
							<trackindex>1</trackindex>
						</sourcetrack>
							<filter>
								<effect>
									<name>Gain</name>
									<effectid>{61756678, 4761696e, 4b657947}</effectid>
									<effecttype>filter</effecttype>
									<mediatype>audio</mediatype>
									<parameter authoringApp="PremierePro">
										<parameterid>Gain(dB)</parameterid>
										<name>Gain(dB)</name>
										<valuemin>-96</valuemin>
										<valuemax>96</valuemax>
										<value>-15</value>
									</parameter>
								</effect>
							</filter>
						<link>
							<linkclipref>clipitem-136</linkclipref>
							<mediatype>audio</mediatype>
							<trackindex>7</trackindex>
							<clipindex>41</clipindex>
							<groupindex>1</groupindex>
						</link>
						<link>
							<linkclipref>clipitem-189</linkclipref>
							<mediatype>audio</mediatype>
							<trackindex>8</trackindex>
							<clipindex>40</clipindex>
							<groupindex>1</groupindex>
						</link>
						<logginginfo>
							<description>tøyse/stumfilmaktig (resirkuelre-sang?)</description>
							<scene></scene>
							<shottake></shottake>
							<lognote></lognote>
						</logginginfo>
						<labels>
							<label2>Caribbean</label2>
						</labels>
					</clipitem>
					<clipitem id="clipitem-137" premiereChannelType="stereo">
						<masterclipid>masterclip-40</masterclipid>
						<name>SAS002112.wav</name>
						<enabled>TRUE</enabled>
						<duration>2100</duration>
						<rate>
							<timebase>25</timebase>
							<ntsc>FALSE</ntsc>
						</rate>
						<start>7365</start>
						<end>7504</end>
						<in>1305</in>
						<out>1444</out>
						<pproTicksIn>13259635200000</pproTicksIn>
						<pproTicksOut>14671964160000</pproTicksOut>
						<file id="file-38"/>
						<sourcetrack>
							<mediatype>audio</mediatype>
							<trackindex>1</trackindex>
						</sourcetrack>
							<filter>
								<effect>
									<name>Gain</name>
									<effectid>{61756678, 4761696e, 4b657947}</effectid>
									<effecttype>filter</effecttype>
									<mediatype>audio</mediatype>
									<parameter authoringApp="PremierePro">
										<parameterid>Gain(dB)</parameterid>
										<name>Gain(dB)</name>
										<valuemin>-96</valuemin>
										<valuemax>96</valuemax>
										<value>-12</value>
									</parameter>
								</effect>
							</filter>
						<link>
							<linkclipref>clipitem-137</linkclipref>
							<mediatype>audio</mediatype>
							<trackindex>7</trackindex>
							<clipindex>42</clipindex>
							<groupindex>1</groupindex>
						</link>
						<link>
							<linkclipref>clipitem-190</linkclipref>
							<mediatype>audio</mediatype>
							<trackindex>8</trackindex>
							<clipindex>41</clipindex>
							<groupindex>1</groupindex>
						</link>
						<logginginfo>
							<description>tøyse/stumfilmaktig (resirkuelre-sang?)</description>
							<scene></scene>
							<shottake></shottake>
							<lognote></lognote>
						</logginginfo>
						<labels>
							<label2>Caribbean</label2>
						</labels>
					</clipitem>
					<clipitem id="clipitem-138" premiereChannelType="stereo">
						<masterclipid>masterclip-41</masterclipid>
						<name>NONRO184030CD0006 Strengelegen.wav</name>
						<enabled>TRUE</enabled>
						<duration>5895</duration>
						<rate>
							<timebase>25</timebase>
							<ntsc>FALSE</ntsc>
						</rate>
						<start>7898</start>
						<end>-1</end>
						<in>180</in>
						<out>285</out>
						<pproTicksIn>1828915200000</pproTicksIn>
						<pproTicksOut>2895782400000</pproTicksOut>
						<file id="file-39">
							<name>NONRO184030CD0006 Strengelegen.wav</name>
							<pathurl>file://localhost/Volumes/Bingen/Prosjekter/MYNT194016%20WHATS%20COOKING/Musikk/Marita/div/dma%20Wed%20May%2025%2009%3a44%3a11%202016/NONRO184030CD0006%20Strengelegen.wav</pathurl>
							<rate>
								<timebase>30</timebase>
								<ntsc>TRUE</ntsc>
							</rate>
							<duration>7067</duration>
							<timecode>
								<rate>
									<timebase>30</timebase>
									<ntsc>TRUE</ntsc>
								</rate>
								<string>00;00;00;00</string>
								<frame>0</frame>
								<displayformat>DF</displayformat>
								<reel>
									<name></name>
								</reel>
							</timecode>
							<media>
								<audio>
									<samplecharacteristics>
										<depth>16</depth>
										<samplerate>48000</samplerate>
									</samplecharacteristics>
									<channelcount>2</channelcount>
								</audio>
							</media>
						</file>
						<sourcetrack>
							<mediatype>audio</mediatype>
							<trackindex>1</trackindex>
						</sourcetrack>
							<filter>
								<effect>
									<name>Gain</name>
									<effectid>{61756678, 4761696e, 4b657947}</effectid>
									<effecttype>filter</effecttype>
									<mediatype>audio</mediatype>
									<parameter authoringApp="PremierePro">
										<parameterid>Gain(dB)</parameterid>
										<name>Gain(dB)</name>
										<valuemin>-96</valuemin>
										<valuemax>96</valuemax>
										<value>-9</value>
									</parameter>
								</effect>
							</filter>
						<link>
							<linkclipref>clipitem-138</linkclipref>
							<mediatype>audio</mediatype>
							<trackindex>7</trackindex>
							<clipindex>43</clipindex>
							<groupindex>1</groupindex>
						</link>
						<link>
							<linkclipref>clipitem-191</linkclipref>
							<mediatype>audio</mediatype>
							<trackindex>8</trackindex>
							<clipindex>42</clipindex>
							<groupindex>1</groupindex>
						</link>
						<logginginfo>
							<description></description>
							<scene></scene>
							<shottake></shottake>
							<lognote>CD Track 6 archiveNo[184030013]</lognote>
						</logginginfo>
						<labels>
							<label2>Caribbean</label2>
						</labels>
					</clipitem>
					<transitionitem>
						<start>7978</start>
						<end>8003</end>
						<alignment>center</alignment>
						<cutPointTicks>117238968000</cutPointTicks>
						<rate>
							<timebase>25</timebase>
							<ntsc>FALSE</ntsc>
						</rate>
						<effect>
							<name>Cross Fade (+3dB)</name>
							<effectid>KGAudioTransCrossFade3dB</effectid>
							<effecttype>transition</effecttype>
							<mediatype>audio</mediatype>
							<wipecode>0</wipecode>
							<wipeaccuracy>100</wipeaccuracy>
							<startratio>0</startratio>
							<endratio>1</endratio>
							<reverse>FALSE</reverse>
						</effect>
					</transitionitem>
					<clipitem id="clipitem-139" premiereChannelType="stereo">
						<masterclipid>masterclip-41</masterclipid>
						<name>NONRO184030CD0006 Strengelegen.wav</name>
						<enabled>TRUE</enabled>
						<duration>5895</duration>
						<rate>
							<timebase>25</timebase>
							<ntsc>FALSE</ntsc>
						</rate>
						<start>-1</start>
						<end>-1</end>
						<in>260</in>
						<out>469</out>
						<pproTicksIn>2641766400000</pproTicksIn>
						<pproTicksOut>4765340160000</pproTicksOut>
						<file id="file-39"/>
						<sourcetrack>
							<mediatype>audio</mediatype>
							<trackindex>1</trackindex>
						</sourcetrack>
							<filter>
								<effect>
									<name>Gain</name>
									<effectid>{61756678, 4761696e, 4b657947}</effectid>
									<effecttype>filter</effecttype>
									<mediatype>audio</mediatype>
									<parameter authoringApp="PremierePro">
										<parameterid>Gain(dB)</parameterid>
										<name>Gain(dB)</name>
										<valuemin>-96</valuemin>
										<valuemax>96</valuemax>
										<value>-24</value>
									</parameter>
								</effect>
							</filter>
						<link>
							<linkclipref>clipitem-139</linkclipref>
							<mediatype>audio</mediatype>
							<trackindex>7</trackindex>
							<clipindex>45</clipindex>
							<groupindex>1</groupindex>
						</link>
						<link>
							<linkclipref>clipitem-192</linkclipref>
							<mediatype>audio</mediatype>
							<trackindex>8</trackindex>
							<clipindex>44</clipindex>
							<groupindex>1</groupindex>
						</link>
						<logginginfo>
							<description></description>
							<scene></scene>
							<shottake></shottake>
							<lognote>CD Track 6 archiveNo[184030013]</lognote>
						</logginginfo>
						<labels>
							<label2>Caribbean</label2>
						</labels>
					</clipitem>
					<transitionitem>
						<start>8137</start>
						<end>8187</end>
						<alignment>center</alignment>
						<cutPointTicks>234477936000</cutPointTicks>
						<rate>
							<timebase>25</timebase>
							<ntsc>FALSE</ntsc>
						</rate>
						<effect>
							<name>Cross Fade (+3dB)</name>
							<effectid>KGAudioTransCrossFade3dB</effectid>
							<effecttype>transition</effecttype>
							<mediatype>audio</mediatype>
							<wipecode>0</wipecode>
							<wipeaccuracy>100</wipeaccuracy>
							<startratio>0</startratio>
							<endratio>1</endratio>
							<reverse>FALSE</reverse>
						</effect>
					</transitionitem>
					<clipitem id="clipitem-140" premiereChannelType="stereo">
						<masterclipid>masterclip-41</masterclipid>
						<name>NONRO184030CD0006 Strengelegen.wav</name>
						<enabled>TRUE</enabled>
						<duration>5895</duration>
						<rate>
							<timebase>25</timebase>
							<ntsc>FALSE</ntsc>
						</rate>
						<start>-1</start>
						<end>-1</end>
						<in>419</in>
						<out>502</out>
						<pproTicksIn>4257308160000</pproTicksIn>
						<pproTicksOut>5100641280000</pproTicksOut>
						<file id="file-39"/>
						<sourcetrack>
							<mediatype>audio</mediatype>
							<trackindex>1</trackindex>
						</sourcetrack>
							<filter>
								<effect>
									<name>Gain</name>
									<effectid>{61756678, 4761696e, 4b657947}</effectid>
									<effecttype>filter</effecttype>
									<mediatype>audio</mediatype>
									<parameter authoringApp="PremierePro">
										<parameterid>Gain(dB)</parameterid>
										<name>Gain(dB)</name>
										<valuemin>-96</valuemin>
										<valuemax>96</valuemax>
										<value>-27</value>
									</parameter>
								</effect>
							</filter>
						<link>
							<linkclipref>clipitem-140</linkclipref>
							<mediatype>audio</mediatype>
							<trackindex>7</trackindex>
							<clipindex>47</clipindex>
							<groupindex>1</groupindex>
						</link>
						<link>
							<linkclipref>clipitem-193</linkclipref>
							<mediatype>audio</mediatype>
							<trackindex>8</trackindex>
							<clipindex>46</clipindex>
							<groupindex>1</groupindex>
						</link>
						<logginginfo>
							<description></description>
							<scene></scene>
							<shottake></shottake>
							<lognote>CD Track 6 archiveNo[184030013]</lognote>
						</logginginfo>
						<labels>
							<label2>Caribbean</label2>
						</labels>
					</clipitem>
					<transitionitem>
						<start>8205</start>
						<end>8220</end>
						<alignment>end-black</alignment>
						<cutPointTicks>152409600000</cutPointTicks>
						<rate>
							<timebase>25</timebase>
							<ntsc>FALSE</ntsc>
						</rate>
						<effect>
							<name>Cross Fade (+3dB)</name>
							<effectid>KGAudioTransCrossFade3dB</effectid>
							<effecttype>transition</effecttype>
							<mediatype>audio</mediatype>
							<wipecode>0</wipecode>
							<wipeaccuracy>100</wipeaccuracy>
							<startratio>0</startratio>
							<endratio>1</endratio>
							<reverse>FALSE</reverse>
						</effect>
					</transitionitem>
					<clipitem id="clipitem-141" premiereChannelType="stereo">
						<masterclipid>masterclip-42</masterclipid>
						<name>SAS002114.wav</name>
						<enabled>TRUE</enabled>
						<duration>2325</duration>
						<rate>
							<timebase>25</timebase>
							<ntsc>FALSE</ntsc>
						</rate>
						<start>8910</start>
						<end>9149</end>
						<in>0</in>
						<out>239</out>
						<pproTicksIn>0</pproTicksIn>
						<pproTicksOut>2428392960000</pproTicksOut>
						<file id="file-40">
							<name>SAS002114.wav</name>
							<pathurl>file://localhost/Volumes/Bingen/Prosjekter/MYNT194016%20WHATS%20COOKING/Musikk/Marita/VB%20Mikkel%20er%20dansk/auxmp14608_84318/SAS002114.wav</pathurl>
							<rate>
								<timebase>30</timebase>
								<ntsc>TRUE</ntsc>
							</rate>
							<duration>2787</duration>
							<timecode>
								<rate>
									<timebase>30</timebase>
									<ntsc>TRUE</ntsc>
								</rate>
								<string>00;00;00;00</string>
								<frame>0</frame>
								<displayformat>DF</displayformat>
								<reel>
									<name></name>
								</reel>
							</timecode>
							<media>
								<audio>
									<samplecharacteristics>
										<depth>16</depth>
										<samplerate>48000</samplerate>
									</samplecharacteristics>
									<channelcount>2</channelcount>
								</audio>
							</media>
						</file>
						<sourcetrack>
							<mediatype>audio</mediatype>
							<trackindex>1</trackindex>
						</sourcetrack>
							<filter>
								<effect>
									<name>Gain</name>
									<effectid>{61756678, 4761696e, 4b657947}</effectid>
									<effecttype>filter</effecttype>
									<mediatype>audio</mediatype>
									<parameter authoringApp="PremierePro">
										<parameterid>Gain(dB)</parameterid>
										<name>Gain(dB)</name>
										<valuemin>-96</valuemin>
										<valuemax>96</valuemax>
										<value>-9</value>
									</parameter>
								</effect>
							</filter>
						<link>
							<linkclipref>clipitem-141</linkclipref>
							<mediatype>audio</mediatype>
							<trackindex>7</trackindex>
							<clipindex>49</clipindex>
							<groupindex>1</groupindex>
						</link>
						<link>
							<linkclipref>clipitem-194</linkclipref>
							<mediatype>audio</mediatype>
							<trackindex>8</trackindex>
							<clipindex>48</clipindex>
							<groupindex>1</groupindex>
						</link>
						<logginginfo>
							<description>skip and hop, klumsing </description>
							<scene></scene>
							<shottake></shottake>
							<lognote></lognote>
						</logginginfo>
						<labels>
							<label2>Caribbean</label2>
						</labels>
					</clipitem>
					<transitionitem>
						<start>9154</start>
						<end>9167</end>
						<alignment>start-black</alignment>
						<cutPointTicks>0</cutPointTicks>
						<rate>
							<timebase>25</timebase>
							<ntsc>FALSE</ntsc>
						</rate>
						<effect>
							<name>Cross Fade (+3dB)</name>
							<effectid>KGAudioTransCrossFade3dB</effectid>
							<effecttype>transition</effecttype>
							<mediatype>audio</mediatype>
							<wipecode>0</wipecode>
							<wipeaccuracy>100</wipeaccuracy>
							<startratio>0</startratio>
							<endratio>1</endratio>
							<reverse>FALSE</reverse>
						</effect>
					</transitionitem>
					<clipitem id="clipitem-142" premiereChannelType="stereo">
						<masterclipid>masterclip-42</masterclipid>
						<name>SAS002114.wav</name>
						<enabled>TRUE</enabled>
						<duration>2325</duration>
						<rate>
							<timebase>25</timebase>
							<ntsc>FALSE</ntsc>
						</rate>
						<start>-1</start>
						<end>-1</end>
						<in>1448</in>
						<out>1478</out>
						<pproTicksIn>14712606720000</pproTicksIn>
						<pproTicksOut>15017425920000</pproTicksOut>
						<file id="file-40"/>
						<sourcetrack>
							<mediatype>audio</mediatype>
							<trackindex>1</trackindex>
						</sourcetrack>
							<filter>
								<effect>
									<name>Gain</name>
									<effectid>{61756678, 4761696e, 4b657947}</effectid>
									<effecttype>filter</effecttype>
									<mediatype>audio</mediatype>
									<parameter authoringApp="PremierePro">
										<parameterid>Gain(dB)</parameterid>
										<name>Gain(dB)</name>
										<valuemin>-96</valuemin>
										<valuemax>96</valuemax>
										<value>-9</value>
									</parameter>
								</effect>
							</filter>
						<link>
							<linkclipref>clipitem-142</linkclipref>
							<mediatype>audio</mediatype>
							<trackindex>7</trackindex>
							<clipindex>51</clipindex>
							<groupindex>1</groupindex>
						</link>
						<link>
							<linkclipref>clipitem-195</linkclipref>
							<mediatype>audio</mediatype>
							<trackindex>8</trackindex>
							<clipindex>50</clipindex>
							<groupindex>1</groupindex>
						</link>
						<logginginfo>
							<description>skip and hop, klumsing </description>
							<scene></scene>
							<shottake></shottake>
							<lognote></lognote>
						</logginginfo>
						<labels>
							<label2>Caribbean</label2>
						</labels>
					</clipitem>
					<transitionitem>
						<start>9171</start>
						<end>9184</end>
						<alignment>center</alignment>
						<cutPointTicks>60963840000</cutPointTicks>
						<rate>
							<timebase>25</timebase>
							<ntsc>FALSE</ntsc>
						</rate>
						<effect>
							<name>Cross Fade (+3dB)</name>
							<effectid>KGAudioTransCrossFade3dB</effectid>
							<effecttype>transition</effecttype>
							<mediatype>audio</mediatype>
							<wipecode>0</wipecode>
							<wipeaccuracy>100</wipeaccuracy>
							<startratio>0</startratio>
							<endratio>1</endratio>
							<reverse>FALSE</reverse>
						</effect>
					</transitionitem>
					<clipitem id="clipitem-143" premiereChannelType="stereo">
						<masterclipid>masterclip-42</masterclipid>
						<name>SAS002114.wav</name>
						<enabled>TRUE</enabled>
						<duration>2325</duration>
						<rate>
							<timebase>25</timebase>
							<ntsc>FALSE</ntsc>
						</rate>
						<start>-1</start>
						<end>-1</end>
						<in>1465</in>
						<out>1605</out>
						<pproTicksIn>14885337600000</pproTicksIn>
						<pproTicksOut>16307827200000</pproTicksOut>
						<file id="file-40"/>
						<sourcetrack>
							<mediatype>audio</mediatype>
							<trackindex>1</trackindex>
						</sourcetrack>
							<filter>
								<effect>
									<name>Gain</name>
									<effectid>{61756678, 4761696e, 4b657947}</effectid>
									<effecttype>filter</effecttype>
									<mediatype>audio</mediatype>
									<parameter authoringApp="PremierePro">
										<parameterid>Gain(dB)</parameterid>
										<name>Gain(dB)</name>
										<valuemin>-96</valuemin>
										<valuemax>96</valuemax>
										<value>-15</value>
									</parameter>
								</effect>
							</filter>
						<link>
							<linkclipref>clipitem-143</linkclipref>
							<mediatype>audio</mediatype>
							<trackindex>7</trackindex>
							<clipindex>53</clipindex>
							<groupindex>1</groupindex>
						</link>
						<link>
							<linkclipref>clipitem-196</linkclipref>
							<mediatype>audio</mediatype>
							<trackindex>8</trackindex>
							<clipindex>52</clipindex>
							<groupindex>1</groupindex>
						</link>
						<logginginfo>
							<description>skip and hop, klumsing </description>
							<scene></scene>
							<shottake></shottake>
							<lognote></lognote>
						</logginginfo>
						<labels>
							<label2>Caribbean</label2>
						</labels>
					</clipitem>
					<transitionitem>
						<start>9298</start>
						<end>9311</end>
						<alignment>center</alignment>
						<cutPointTicks>60963840000</cutPointTicks>
						<rate>
							<timebase>25</timebase>
							<ntsc>FALSE</ntsc>
						</rate>
						<effect>
							<name>Cross Fade (+3dB)</name>
							<effectid>KGAudioTransCrossFade3dB</effectid>
							<effecttype>transition</effecttype>
							<mediatype>audio</mediatype>
							<wipecode>0</wipecode>
							<wipeaccuracy>100</wipeaccuracy>
							<startratio>0</startratio>
							<endratio>1</endratio>
							<reverse>FALSE</reverse>
						</effect>
					</transitionitem>
					<clipitem id="clipitem-144" premiereChannelType="stereo">
						<masterclipid>masterclip-42</masterclipid>
						<name>SAS002114.wav</name>
						<enabled>TRUE</enabled>
						<duration>2325</duration>
						<rate>
							<timebase>25</timebase>
							<ntsc>FALSE</ntsc>
						</rate>
						<start>-1</start>
						<end>9401</end>
						<in>1592</in>
						<out>1695</out>
						<pproTicksIn>16175738880000</pproTicksIn>
						<pproTicksOut>17222284800000</pproTicksOut>
						<file id="file-40"/>
						<sourcetrack>
							<mediatype>audio</mediatype>
							<trackindex>1</trackindex>
						</sourcetrack>
							<filter>
								<effect>
									<name>Gain</name>
									<effectid>{61756678, 4761696e, 4b657947}</effectid>
									<effecttype>filter</effecttype>
									<mediatype>audio</mediatype>
									<parameter authoringApp="PremierePro">
										<parameterid>Gain(dB)</parameterid>
										<name>Gain(dB)</name>
										<valuemin>-96</valuemin>
										<valuemax>96</valuemax>
										<value>-9</value>
									</parameter>
								</effect>
							</filter>
						<link>
							<linkclipref>clipitem-144</linkclipref>
							<mediatype>audio</mediatype>
							<trackindex>7</trackindex>
							<clipindex>55</clipindex>
							<groupindex>1</groupindex>
						</link>
						<link>
							<linkclipref>clipitem-197</linkclipref>
							<mediatype>audio</mediatype>
							<trackindex>8</trackindex>
							<clipindex>54</clipindex>
							<groupindex>1</groupindex>
						</link>
						<logginginfo>
							<description>skip and hop, klumsing </description>
							<scene></scene>
							<shottake></shottake>
							<lognote></lognote>
						</logginginfo>
						<labels>
							<label2>Caribbean</label2>
						</labels>
					</clipitem>
					<transitionitem>
						<start>10030</start>
						<end>10043</end>
						<alignment>start-black</alignment>
						<cutPointTicks>0</cutPointTicks>
						<rate>
							<timebase>25</timebase>
							<ntsc>FALSE</ntsc>
						</rate>
						<effect>
							<name>Cross Fade (+3dB)</name>
							<effectid>KGAudioTransCrossFade3dB</effectid>
							<effecttype>transition</effecttype>
							<mediatype>audio</mediatype>
							<wipecode>0</wipecode>
							<wipeaccuracy>100</wipeaccuracy>
							<startratio>0</startratio>
							<endratio>1</endratio>
							<reverse>FALSE</reverse>
						</effect>
					</transitionitem>
					<clipitem id="clipitem-145" premiereChannelType="stereo">
						<masterclipid>masterclip-43</masterclipid>
						<name>SAS002105.wav</name>
						<enabled>TRUE</enabled>
						<duration>4050</duration>
						<rate>
							<timebase>25</timebase>
							<ntsc>FALSE</ntsc>
						</rate>
						<start>-1</start>
						<end>-1</end>
						<in>2495</in>
						<out>2759</out>
						<pproTicksIn>25350796800000</pproTicksIn>
						<pproTicksOut>28033205760000</pproTicksOut>
						<file id="file-41">
							<name>SAS002105.wav</name>
							<pathurl>file://localhost/Volumes/Bingen/Prosjekter/MYNT194016%20WHATS%20COOKING/Musikk/Marita/VB%20Mikkel%20er%20dansk/auxmp14608_20148/SAS002105.wav</pathurl>
							<rate>
								<timebase>30</timebase>
								<ntsc>TRUE</ntsc>
							</rate>
							<duration>4855</duration>
							<timecode>
								<rate>
									<timebase>30</timebase>
									<ntsc>TRUE</ntsc>
								</rate>
								<string>00;00;00;00</string>
								<frame>0</frame>
								<displayformat>DF</displayformat>
								<reel>
									<name></name>
								</reel>
							</timecode>
							<media>
								<audio>
									<samplecharacteristics>
										<depth>16</depth>
										<samplerate>48000</samplerate>
									</samplecharacteristics>
									<channelcount>2</channelcount>
								</audio>
							</media>
						</file>
						<sourcetrack>
							<mediatype>audio</mediatype>
							<trackindex>1</trackindex>
						</sourcetrack>
							<filter>
								<effect>
									<name>Gain</name>
									<effectid>{61756678, 4761696e, 4b657947}</effectid>
									<effecttype>filter</effecttype>
									<mediatype>audio</mediatype>
									<parameter authoringApp="PremierePro">
										<parameterid>Gain(dB)</parameterid>
										<name>Gain(dB)</name>
										<valuemin>-96</valuemin>
										<valuemax>96</valuemax>
										<value>-6</value>
									</parameter>
								</effect>
							</filter>
						<link>
							<linkclipref>clipitem-145</linkclipref>
							<mediatype>audio</mediatype>
							<trackindex>7</trackindex>
							<clipindex>57</clipindex>
							<groupindex>1</groupindex>
						</link>
						<link>
							<linkclipref>clipitem-198</linkclipref>
							<mediatype>audio</mediatype>
							<trackindex>8</trackindex>
							<clipindex>56</clipindex>
							<groupindex>1</groupindex>
						</link>
						<logginginfo>
							<description>spilledåse-aktig, barne/nattasang</description>
							<scene></scene>
							<shottake></shottake>
							<lognote></lognote>
						</logginginfo>
						<labels>
							<label2>Caribbean</label2>
						</labels>
					</clipitem>
					<transitionitem>
						<start>10194</start>
						<end>10294</end>
						<alignment>end-black</alignment>
						<cutPointTicks>1016064000000</cutPointTicks>
						<rate>
							<timebase>25</timebase>
							<ntsc>FALSE</ntsc>
						</rate>
						<effect>
							<name>Cross Fade (+3dB)</name>
							<effectid>KGAudioTransCrossFade3dB</effectid>
							<effecttype>transition</effecttype>
							<mediatype>audio</mediatype>
							<wipecode>0</wipecode>
							<wipeaccuracy>100</wipeaccuracy>
							<startratio>0</startratio>
							<endratio>1</endratio>
							<reverse>FALSE</reverse>
						</effect>
					</transitionitem>
					<transitionitem>
						<start>10381</start>
						<end>10394</end>
						<alignment>start-black</alignment>
						<cutPointTicks>0</cutPointTicks>
						<rate>
							<timebase>25</timebase>
							<ntsc>FALSE</ntsc>
						</rate>
						<effect>
							<name>Cross Fade (+3dB)</name>
							<effectid>KGAudioTransCrossFade3dB</effectid>
							<effecttype>transition</effecttype>
							<mediatype>audio</mediatype>
							<wipecode>0</wipecode>
							<wipeaccuracy>100</wipeaccuracy>
							<startratio>0</startratio>
							<endratio>1</endratio>
							<reverse>FALSE</reverse>
						</effect>
					</transitionitem>
					<clipitem id="clipitem-146" premiereChannelType="stereo">
						<masterclipid>masterclip-43</masterclipid>
						<name>SAS002105.wav</name>
						<enabled>TRUE</enabled>
						<duration>4050</duration>
						<rate>
							<timebase>25</timebase>
							<ntsc>FALSE</ntsc>
						</rate>
						<start>-1</start>
						<end>-1</end>
						<in>1039</in>
						<out>1085</out>
						<pproTicksIn>10556904960000</pproTicksIn>
						<pproTicksOut>11024294400000</pproTicksOut>
						<file id="file-41"/>
						<sourcetrack>
							<mediatype>audio</mediatype>
							<trackindex>1</trackindex>
						</sourcetrack>
							<filter>
								<effect>
									<name>Gain</name>
									<effectid>{61756678, 4761696e, 4b657947}</effectid>
									<effecttype>filter</effecttype>
									<mediatype>audio</mediatype>
									<parameter authoringApp="PremierePro">
										<parameterid>Gain(dB)</parameterid>
										<name>Gain(dB)</name>
										<valuemin>-96</valuemin>
										<valuemax>96</valuemax>
										<value>-9</value>
									</parameter>
								</effect>
							</filter>
						<link>
							<linkclipref>clipitem-146</linkclipref>
							<mediatype>audio</mediatype>
							<trackindex>7</trackindex>
							<clipindex>60</clipindex>
							<groupindex>1</groupindex>
						</link>
						<link>
							<linkclipref>clipitem-199</linkclipref>
							<mediatype>audio</mediatype>
							<trackindex>8</trackindex>
							<clipindex>59</clipindex>
							<groupindex>1</groupindex>
						</link>
						<logginginfo>
							<description>spilledåse-aktig, barne/nattasang</description>
							<scene></scene>
							<shottake></shottake>
							<lognote></lognote>
						</logginginfo>
						<labels>
							<label2>Caribbean</label2>
						</labels>
					</clipitem>
					<transitionitem>
						<start>10414</start>
						<end>10427</end>
						<alignment>center</alignment>
						<cutPointTicks>60963840000</cutPointTicks>
						<rate>
							<timebase>25</timebase>
							<ntsc>FALSE</ntsc>
						</rate>
						<effect>
							<name>Cross Fade (+3dB)</name>
							<effectid>KGAudioTransCrossFade3dB</effectid>
							<effecttype>transition</effecttype>
							<mediatype>audio</mediatype>
							<wipecode>0</wipecode>
							<wipeaccuracy>100</wipeaccuracy>
							<startratio>0</startratio>
							<endratio>1</endratio>
							<reverse>FALSE</reverse>
						</effect>
					</transitionitem>
					<clipitem id="clipitem-147" premiereChannelType="stereo">
						<masterclipid>masterclip-43</masterclipid>
						<name>SAS002105.wav</name>
						<enabled>TRUE</enabled>
						<duration>4050</duration>
						<rate>
							<timebase>25</timebase>
							<ntsc>FALSE</ntsc>
						</rate>
						<start>-1</start>
						<end>-1</end>
						<in>1072</in>
						<out>1459</out>
						<pproTicksIn>10892206080000</pproTicksIn>
						<pproTicksOut>14824373760000</pproTicksOut>
						<file id="file-41"/>
						<sourcetrack>
							<mediatype>audio</mediatype>
							<trackindex>1</trackindex>
						</sourcetrack>
						<link>
							<linkclipref>clipitem-147</linkclipref>
							<mediatype>audio</mediatype>
							<trackindex>7</trackindex>
							<clipindex>62</clipindex>
							<groupindex>1</groupindex>
						</link>
						<link>
							<linkclipref>clipitem-200</linkclipref>
							<mediatype>audio</mediatype>
							<trackindex>8</trackindex>
							<clipindex>61</clipindex>
							<groupindex>1</groupindex>
						</link>
						<logginginfo>
							<description>spilledåse-aktig, barne/nattasang</description>
							<scene></scene>
							<shottake></shottake>
							<lognote></lognote>
						</logginginfo>
						<labels>
							<label2>Caribbean</label2>
						</labels>
					</clipitem>
					<transitionitem>
						<start>10758</start>
						<end>10801</end>
						<alignment>end-black</alignment>
						<cutPointTicks>436907520000</cutPointTicks>
						<rate>
							<timebase>25</timebase>
							<ntsc>FALSE</ntsc>
						</rate>
						<effect>
							<name>Cross Fade (+3dB)</name>
							<effectid>KGAudioTransCrossFade3dB</effectid>
							<effecttype>transition</effecttype>
							<mediatype>audio</mediatype>
							<wipecode>0</wipecode>
							<wipeaccuracy>100</wipeaccuracy>
							<startratio>0</startratio>
							<endratio>1</endratio>
							<reverse>FALSE</reverse>
						</effect>
					</transitionitem>
					<transitionitem>
						<start>14564</start>
						<end>14577</end>
						<alignment>start-black</alignment>
						<cutPointTicks>0</cutPointTicks>
						<rate>
							<timebase>25</timebase>
							<ntsc>FALSE</ntsc>
						</rate>
						<effect>
							<name>Cross Fade (+3dB)</name>
							<effectid>KGAudioTransCrossFade3dB</effectid>
							<effecttype>transition</effecttype>
							<mediatype>audio</mediatype>
							<wipecode>0</wipecode>
							<wipeaccuracy>100</wipeaccuracy>
							<startratio>0</startratio>
							<endratio>1</endratio>
							<reverse>FALSE</reverse>
						</effect>
					</transitionitem>
					<clipitem id="clipitem-148" premiereChannelType="stereo">
						<masterclipid>masterclip-44</masterclipid>
						<name>KT_318_1_Sumo_Chant_Constantinou_Frazer_926859.wav</name>
						<enabled>TRUE</enabled>
						<duration>3627</duration>
						<rate>
							<timebase>25</timebase>
							<ntsc>FALSE</ntsc>
						</rate>
						<start>-1</start>
						<end>-1</end>
						<in>1763</in>
						<out>1803</out>
						<pproTicksIn>17913208320000</pproTicksIn>
						<pproTicksOut>18319633920000</pproTicksOut>
						<file id="file-42">
							<name>KT_318_1_Sumo_Chant_Constantinou_Frazer_926859.wav</name>
							<pathurl>file://localhost/Volumes/Bingen/Prosjekter/MYNT194016%20WHATS%20COOKING/Musikk/Stig/24b%3a48hz/KT_318_1_Sumo_Chant_Constantinou_Frazer_926859.wav</pathurl>
							<rate>
								<timebase>30</timebase>
								<ntsc>TRUE</ntsc>
							</rate>
							<duration>4348</duration>
							<timecode>
								<rate>
									<timebase>30</timebase>
									<ntsc>TRUE</ntsc>
								</rate>
								<string>00;00;00;00</string>
								<frame>0</frame>
								<displayformat>DF</displayformat>
								<reel>
									<name></name>
								</reel>
							</timecode>
							<media>
								<audio>
									<samplecharacteristics>
										<depth>16</depth>
										<samplerate>48000</samplerate>
									</samplecharacteristics>
									<channelcount>2</channelcount>
								</audio>
							</media>
						</file>
						<sourcetrack>
							<mediatype>audio</mediatype>
							<trackindex>1</trackindex>
						</sourcetrack>
							<filter>
								<effect>
									<name>Gain</name>
									<effectid>{61756678, 4761696e, 4b657947}</effectid>
									<effecttype>filter</effecttype>
									<mediatype>audio</mediatype>
									<parameter authoringApp="PremierePro">
										<parameterid>Gain(dB)</parameterid>
										<name>Gain(dB)</name>
										<valuemin>-96</valuemin>
										<valuemax>96</valuemax>
										<value>-9</value>
									</parameter>
								</effect>
							</filter>
						<link>
							<linkclipref>clipitem-148</linkclipref>
							<mediatype>audio</mediatype>
							<trackindex>7</trackindex>
							<clipindex>65</clipindex>
							<groupindex>1</groupindex>
						</link>
						<link>
							<linkclipref>clipitem-201</linkclipref>
							<mediatype>audio</mediatype>
							<trackindex>8</trackindex>
							<clipindex>64</clipindex>
							<groupindex>1</groupindex>
						</link>
						<logginginfo>
							<description></description>
							<scene></scene>
							<shottake></shottake>
							<lognote></lognote>
						</logginginfo>
						<labels>
							<label2>Caribbean</label2>
						</labels>
					</clipitem>
					<transitionitem>
						<start>14591</start>
						<end>14604</end>
						<alignment>center</alignment>
						<cutPointTicks>60963840000</cutPointTicks>
						<rate>
							<timebase>25</timebase>
							<ntsc>FALSE</ntsc>
						</rate>
						<effect>
							<name>Cross Fade (+3dB)</name>
							<effectid>KGAudioTransCrossFade3dB</effectid>
							<effecttype>transition</effecttype>
							<mediatype>audio</mediatype>
							<wipecode>0</wipecode>
							<wipeaccuracy>100</wipeaccuracy>
							<startratio>0</startratio>
							<endratio>1</endratio>
							<reverse>FALSE</reverse>
						</effect>
					</transitionitem>
					<clipitem id="clipitem-149" premiereChannelType="stereo">
						<masterclipid>masterclip-44</masterclipid>
						<name>KT_318_1_Sumo_Chant_Constantinou_Frazer_926859.wav</name>
						<enabled>TRUE</enabled>
						<duration>3627</duration>
						<rate>
							<timebase>25</timebase>
							<ntsc>FALSE</ntsc>
						</rate>
						<start>-1</start>
						<end>-1</end>
						<in>1790</in>
						<out>1826</out>
						<pproTicksIn>18187545600000</pproTicksIn>
						<pproTicksOut>18553328640000</pproTicksOut>
						<file id="file-42"/>
						<sourcetrack>
							<mediatype>audio</mediatype>
							<trackindex>1</trackindex>
						</sourcetrack>
							<filter>
								<effect>
									<name>Gain</name>
									<effectid>{61756678, 4761696e, 4b657947}</effectid>
									<effecttype>filter</effecttype>
									<mediatype>audio</mediatype>
									<parameter authoringApp="PremierePro">
										<parameterid>Gain(dB)</parameterid>
										<name>Gain(dB)</name>
										<valuemin>-96</valuemin>
										<valuemax>96</valuemax>
										<value>-15</value>
									</parameter>
								</effect>
							</filter>
						<link>
							<linkclipref>clipitem-149</linkclipref>
							<mediatype>audio</mediatype>
							<trackindex>7</trackindex>
							<clipindex>67</clipindex>
							<groupindex>1</groupindex>
						</link>
						<link>
							<linkclipref>clipitem-202</linkclipref>
							<mediatype>audio</mediatype>
							<trackindex>8</trackindex>
							<clipindex>66</clipindex>
							<groupindex>1</groupindex>
						</link>
						<logginginfo>
							<description></description>
							<scene></scene>
							<shottake></shottake>
							<lognote></lognote>
						</logginginfo>
						<labels>
							<label2>Caribbean</label2>
						</labels>
					</clipitem>
					<transitionitem>
						<start>14614</start>
						<end>14627</end>
						<alignment>center</alignment>
						<cutPointTicks>60963840000</cutPointTicks>
						<rate>
							<timebase>25</timebase>
							<ntsc>FALSE</ntsc>
						</rate>
						<effect>
							<name>Cross Fade (+3dB)</name>
							<effectid>KGAudioTransCrossFade3dB</effectid>
							<effecttype>transition</effecttype>
							<mediatype>audio</mediatype>
							<wipecode>0</wipecode>
							<wipeaccuracy>100</wipeaccuracy>
							<startratio>0</startratio>
							<endratio>1</endratio>
							<reverse>FALSE</reverse>
						</effect>
					</transitionitem>
					<clipitem id="clipitem-150" premiereChannelType="stereo">
						<masterclipid>masterclip-44</masterclipid>
						<name>KT_318_1_Sumo_Chant_Constantinou_Frazer_926859.wav</name>
						<enabled>TRUE</enabled>
						<duration>3627</duration>
						<rate>
							<timebase>25</timebase>
							<ntsc>FALSE</ntsc>
						</rate>
						<start>-1</start>
						<end>-1</end>
						<in>1813</in>
						<out>1981</out>
						<pproTicksIn>18421240320000</pproTicksIn>
						<pproTicksOut>20128227840000</pproTicksOut>
						<file id="file-42"/>
						<sourcetrack>
							<mediatype>audio</mediatype>
							<trackindex>1</trackindex>
						</sourcetrack>
							<filter>
								<effect>
									<name>Gain</name>
									<effectid>{61756678, 4761696e, 4b657947}</effectid>
									<effecttype>filter</effecttype>
									<mediatype>audio</mediatype>
									<parameter authoringApp="PremierePro">
										<parameterid>Gain(dB)</parameterid>
										<name>Gain(dB)</name>
										<valuemin>-96</valuemin>
										<valuemax>96</valuemax>
										<value>-21</value>
									</parameter>
								</effect>
							</filter>
						<link>
							<linkclipref>clipitem-150</linkclipref>
							<mediatype>audio</mediatype>
							<trackindex>7</trackindex>
							<clipindex>69</clipindex>
							<groupindex>1</groupindex>
						</link>
						<link>
							<linkclipref>clipitem-203</linkclipref>
							<mediatype>audio</mediatype>
							<trackindex>8</trackindex>
							<clipindex>68</clipindex>
							<groupindex>1</groupindex>
						</link>
						<logginginfo>
							<description></description>
							<scene></scene>
							<shottake></shottake>
							<lognote></lognote>
						</logginginfo>
						<labels>
							<label2>Caribbean</label2>
						</labels>
					</clipitem>
					<transitionitem>
						<start>14727</start>
						<end>14782</end>
						<alignment>end-black</alignment>
						<cutPointTicks>558835200000</cutPointTicks>
						<rate>
							<timebase>25</timebase>
							<ntsc>FALSE</ntsc>
						</rate>
						<effect>
							<name>Cross Fade (+3dB)</name>
							<effectid>KGAudioTransCrossFade3dB</effectid>
							<effecttype>transition</effecttype>
							<mediatype>audio</mediatype>
							<wipecode>0</wipecode>
							<wipeaccuracy>100</wipeaccuracy>
							<startratio>0</startratio>
							<endratio>1</endratio>
							<reverse>FALSE</reverse>
						</effect>
					</transitionitem>
					<transitionitem>
						<start>14956</start>
						<end>14969</end>
						<alignment>start-black</alignment>
						<cutPointTicks>0</cutPointTicks>
						<rate>
							<timebase>25</timebase>
							<ntsc>FALSE</ntsc>
						</rate>
						<effect>
							<name>Cross Fade (+3dB)</name>
							<effectid>KGAudioTransCrossFade3dB</effectid>
							<effecttype>transition</effecttype>
							<mediatype>audio</mediatype>
							<wipecode>0</wipecode>
							<wipeaccuracy>100</wipeaccuracy>
							<startratio>0</startratio>
							<endratio>1</endratio>
							<reverse>FALSE</reverse>
						</effect>
					</transitionitem>
					<clipitem id="clipitem-151" premiereChannelType="stereo">
						<masterclipid>masterclip-45</masterclipid>
						<name>ST_17_31_A_Slice_Of_Life_Hart_Orvarsson_Stern_756197.wav</name>
						<enabled>TRUE</enabled>
						<duration>4290</duration>
						<rate>
							<timebase>25</timebase>
							<ntsc>FALSE</ntsc>
						</rate>
						<start>-1</start>
						<end>15375</end>
						<in>0</in>
						<out>419</out>
						<pproTicksIn>0</pproTicksIn>
						<pproTicksOut>4257308160000</pproTicksOut>
						<file id="file-43">
							<name>ST_17_31_A_Slice_Of_Life_Hart_Orvarsson_Stern_756197.wav</name>
							<pathurl>file://localhost/Volumes/Bingen/Prosjekter/MYNT194016%20WHATS%20COOKING/Musikk/Stig/24b%3a48hz/ST_17_31_A_Slice_Of_Life_Hart_Orvarsson_Stern_756197.wav</pathurl>
							<rate>
								<timebase>30</timebase>
								<ntsc>TRUE</ntsc>
							</rate>
							<duration>5143</duration>
							<timecode>
								<rate>
									<timebase>30</timebase>
									<ntsc>TRUE</ntsc>
								</rate>
								<string>00;00;00;00</string>
								<frame>0</frame>
								<displayformat>DF</displayformat>
								<reel>
									<name></name>
								</reel>
							</timecode>
							<media>
								<audio>
									<samplecharacteristics>
										<depth>16</depth>
										<samplerate>48000</samplerate>
									</samplecharacteristics>
									<channelcount>2</channelcount>
								</audio>
							</media>
						</file>
						<sourcetrack>
							<mediatype>audio</mediatype>
							<trackindex>1</trackindex>
						</sourcetrack>
							<filter>
								<effect>
									<name>Audio Levels</name>
									<effectid>audiolevels</effectid>
									<effectcategory>audiolevels</effectcategory>
									<effecttype>audiolevels</effecttype>
									<mediatype>audio</mediatype>
									<parameter authoringApp="PremierePro">
										<parameterid>level</parameterid>
										<name>Level</name>
										<valuemin>0</valuemin>
										<valuemax>3.98109</valuemax>
										<value>0</value>
										<keyframe>
											<when>270</when>
											<value>0.0886782</value>
										</keyframe>
										<keyframe>
											<when>385</when>
											<value>0</value>
										</keyframe>
										<keyframe>
											<when>444</when>
											<value>0</value>
										</keyframe>
									</parameter>
								</effect>
							</filter>
						<link>
							<linkclipref>clipitem-151</linkclipref>
							<mediatype>audio</mediatype>
							<trackindex>7</trackindex>
							<clipindex>72</clipindex>
							<groupindex>1</groupindex>
						</link>
						<link>
							<linkclipref>clipitem-204</linkclipref>
							<mediatype>audio</mediatype>
							<trackindex>8</trackindex>
							<clipindex>71</clipindex>
							<groupindex>1</groupindex>
						</link>
						<logginginfo>
							<description></description>
							<scene></scene>
							<shottake></shottake>
							<lognote></lognote>
						</logginginfo>
						<labels>
							<label2>Caribbean</label2>
						</labels>
					</clipitem>
					<clipitem id="clipitem-152" premiereChannelType="stereo">
						<masterclipid>masterclip-46</masterclipid>
						<name>BER_1246_24_Games_Show_Sphere_01_Kreuzer_836137.wav</name>
						<enabled>TRUE</enabled>
						<duration>5187</duration>
						<rate>
							<timebase>25</timebase>
							<ntsc>FALSE</ntsc>
						</rate>
						<start>15375</start>
						<end>-1</end>
						<in>0</in>
						<out>437</out>
						<pproTicksIn>0</pproTicksIn>
						<pproTicksOut>4440199680000</pproTicksOut>
						<file id="file-44">
							<name>BER_1246_24_Games_Show_Sphere_01_Kreuzer_836137.wav</name>
							<pathurl>file://localhost/Volumes/Bingen/Prosjekter/MYNT194016%20WHATS%20COOKING/Musikk/Stig/24b%3a48hz/BER_1246_24_Games_Show_Sphere_01_Kreuzer_836137.wav</pathurl>
							<rate>
								<timebase>30</timebase>
								<ntsc>TRUE</ntsc>
							</rate>
							<duration>6218</duration>
							<timecode>
								<rate>
									<timebase>30</timebase>
									<ntsc>TRUE</ntsc>
								</rate>
								<string>00;00;00;00</string>
								<frame>0</frame>
								<displayformat>DF</displayformat>
								<reel>
									<name></name>
								</reel>
							</timecode>
							<media>
								<audio>
									<samplecharacteristics>
										<depth>16</depth>
										<samplerate>48000</samplerate>
									</samplecharacteristics>
									<channelcount>2</channelcount>
								</audio>
							</media>
						</file>
						<sourcetrack>
							<mediatype>audio</mediatype>
							<trackindex>1</trackindex>
						</sourcetrack>
							<filter>
								<effect>
									<name>Audio Levels</name>
									<effectid>audiolevels</effectid>
									<effectcategory>audiolevels</effectcategory>
									<effecttype>audiolevels</effecttype>
									<mediatype>audio</mediatype>
									<parameter authoringApp="PremierePro">
										<parameterid>level</parameterid>
										<name>Level</name>
										<valuemin>0</valuemin>
										<valuemax>3.98109</valuemax>
										<value>0</value>
										<keyframe>
											<when>910</when>
											<value>0.155187</value>
										</keyframe>
										<keyframe>
											<when>975</when>
											<value>0</value>
										</keyframe>
									</parameter>
								</effect>
							</filter>
						<link>
							<linkclipref>clipitem-152</linkclipref>
							<mediatype>audio</mediatype>
							<trackindex>7</trackindex>
							<clipindex>73</clipindex>
							<groupindex>1</groupindex>
						</link>
						<link>
							<linkclipref>clipitem-205</linkclipref>
							<mediatype>audio</mediatype>
							<trackindex>8</trackindex>
							<clipindex>72</clipindex>
							<groupindex>1</groupindex>
						</link>
						<logginginfo>
							<description></description>
							<scene></scene>
							<shottake></shottake>
							<lognote></lognote>
						</logginginfo>
						<labels>
							<label2>Caribbean</label2>
						</labels>
					</clipitem>
					<transitionitem>
						<start>15753</start>
						<end>15812</end>
						<alignment>end-black</alignment>
						<cutPointTicks>599477760000</cutPointTicks>
						<rate>
							<timebase>25</timebase>
							<ntsc>FALSE</ntsc>
						</rate>
						<effect>
							<name>Cross Fade (+3dB)</name>
							<effectid>KGAudioTransCrossFade3dB</effectid>
							<effecttype>transition</effecttype>
							<mediatype>audio</mediatype>
							<wipecode>0</wipecode>
							<wipeaccuracy>100</wipeaccuracy>
							<startratio>0</startratio>
							<endratio>1</endratio>
							<reverse>FALSE</reverse>
						</effect>
					</transitionitem>
					<clipitem id="clipitem-153" premiereChannelType="stereo">
						<masterclipid>masterclip-47</masterclipid>
						<name>ATMOS_291_17_Judging_Tension_Pemberton_656153.wav</name>
						<enabled>TRUE</enabled>
						<duration>2842</duration>
						<rate>
							<timebase>25</timebase>
							<ntsc>FALSE</ntsc>
						</rate>
						<start>16331</start>
						<end>17729</end>
						<in>0</in>
						<out>1398</out>
						<pproTicksIn>0</pproTicksIn>
						<pproTicksOut>14204574720000</pproTicksOut>
						<file id="file-45">
							<name>ATMOS_291_17_Judging_Tension_Pemberton_656153.wav</name>
							<pathurl>file://localhost/Volumes/Bingen/Prosjekter/MYNT194016%20WHATS%20COOKING/Musikk/Stig/24b%3a48hz/ATMOS_291_17_Judging_Tension_Pemberton_656153.wav</pathurl>
							<rate>
								<timebase>30</timebase>
								<ntsc>TRUE</ntsc>
							</rate>
							<duration>3407</duration>
							<timecode>
								<rate>
									<timebase>30</timebase>
									<ntsc>TRUE</ntsc>
								</rate>
								<string>00;29;57;28</string>
								<frame>53884</frame>
								<displayformat>DF</displayformat>
								<reel>
									<name></name>
								</reel>
							</timecode>
							<media>
								<audio>
									<samplecharacteristics>
										<depth>16</depth>
										<samplerate>48000</samplerate>
									</samplecharacteristics>
									<channelcount>2</channelcount>
								</audio>
							</media>
						</file>
						<sourcetrack>
							<mediatype>audio</mediatype>
							<trackindex>1</trackindex>
						</sourcetrack>
							<filter>
								<effect>
									<name>Audio Levels</name>
									<effectid>audiolevels</effectid>
									<effectcategory>audiolevels</effectcategory>
									<effecttype>audiolevels</effecttype>
									<mediatype>audio</mediatype>
									<parameter authoringApp="PremierePro">
										<parameterid>level</parameterid>
										<name>Level</name>
										<valuemin>0</valuemin>
										<valuemax>3.98109</valuemax>
										<value>0</value>
										<keyframe>
											<when>1205</when>
											<value>0.199526</value>
										</keyframe>
										<keyframe>
											<when>1310</when>
											<value>0</value>
										</keyframe>
									</parameter>
								</effect>
							</filter>
						<link>
							<linkclipref>clipitem-153</linkclipref>
							<mediatype>audio</mediatype>
							<trackindex>7</trackindex>
							<clipindex>75</clipindex>
							<groupindex>1</groupindex>
						</link>
						<link>
							<linkclipref>clipitem-206</linkclipref>
							<mediatype>audio</mediatype>
							<trackindex>8</trackindex>
							<clipindex>74</clipindex>
							<groupindex>1</groupindex>
						</link>
						<logginginfo>
							<description></description>
							<scene></scene>
							<shottake></shottake>
							<lognote></lognote>
						</logginginfo>
						<labels>
							<label2>Caribbean</label2>
						</labels>
					</clipitem>
					<clipitem id="clipitem-154" premiereChannelType="stereo">
						<masterclipid>masterclip-48</masterclipid>
						<name>KOM_2033_19_Injury_Pilloix_Wendling_840782.wav</name>
						<enabled>TRUE</enabled>
						<duration>1907</duration>
						<rate>
							<timebase>25</timebase>
							<ntsc>FALSE</ntsc>
						</rate>
						<start>17809</start>
						<end>18273</end>
						<in>0</in>
						<out>464</out>
						<pproTicksIn>0</pproTicksIn>
						<pproTicksOut>4714536960000</pproTicksOut>
						<file id="file-46">
							<name>KOM_2033_19_Injury_Pilloix_Wendling_840782.wav</name>
							<pathurl>file://localhost/Volumes/Bingen/Prosjekter/MYNT194016%20WHATS%20COOKING/Musikk/Stig/24b%3a48hz/KOM_2033_19_Injury_Pilloix_Wendling_840782.wav</pathurl>
							<rate>
								<timebase>30</timebase>
								<ntsc>TRUE</ntsc>
							</rate>
							<duration>2286</duration>
							<timecode>
								<rate>
									<timebase>30</timebase>
									<ntsc>TRUE</ntsc>
								</rate>
								<string>00;00;00;00</string>
								<frame>0</frame>
								<displayformat>DF</displayformat>
								<reel>
									<name></name>
								</reel>
							</timecode>
							<media>
								<audio>
									<samplecharacteristics>
										<depth>16</depth>
										<samplerate>48000</samplerate>
									</samplecharacteristics>
									<channelcount>2</channelcount>
								</audio>
							</media>
						</file>
						<sourcetrack>
							<mediatype>audio</mediatype>
							<trackindex>1</trackindex>
						</sourcetrack>
							<filter>
								<effect>
									<name>Audio Levels</name>
									<effectid>audiolevels</effectid>
									<effectcategory>audiolevels</effectcategory>
									<effecttype>audiolevels</effecttype>
									<mediatype>audio</mediatype>
									<parameter authoringApp="PremierePro">
										<parameterid>level</parameterid>
										<name>Level</name>
										<valuemin>0</valuemin>
										<valuemax>3.98109</valuemax>
										<value>0.110848</value>
									</parameter>
								</effect>
							</filter>
						<link>
							<linkclipref>clipitem-154</linkclipref>
							<mediatype>audio</mediatype>
							<trackindex>7</trackindex>
							<clipindex>76</clipindex>
							<groupindex>1</groupindex>
						</link>
						<link>
							<linkclipref>clipitem-207</linkclipref>
							<mediatype>audio</mediatype>
							<trackindex>8</trackindex>
							<clipindex>75</clipindex>
							<groupindex>1</groupindex>
						</link>
						<logginginfo>
							<description></description>
							<scene></scene>
							<shottake></shottake>
							<lognote></lognote>
						</logginginfo>
						<labels>
							<label2>Caribbean</label2>
						</labels>
					</clipitem>
					<clipitem id="clipitem-155" premiereChannelType="stereo">
						<masterclipid>masterclip-49</masterclipid>
						<name>KT_210_2_Tranquil_State_Bennett_395054.wav</name>
						<enabled>TRUE</enabled>
						<duration>3155</duration>
						<rate>
							<timebase>25</timebase>
							<ntsc>FALSE</ntsc>
						</rate>
						<start>18444</start>
						<end>-1</end>
						<in>5</in>
						<out>636</out>
						<pproTicksIn>50803200000</pproTicksIn>
						<pproTicksOut>6462167040000</pproTicksOut>
						<file id="file-47">
							<name>KT_210_2_Tranquil_State_Bennett_395054.wav</name>
							<pathurl>file://localhost/Volumes/Bingen/Prosjekter/MYNT194016%20WHATS%20COOKING/Musikk/Stig/24b%3a48hz/KT_210_2_Tranquil_State_Bennett_395054.wav</pathurl>
							<rate>
								<timebase>30</timebase>
								<ntsc>TRUE</ntsc>
							</rate>
							<duration>3782</duration>
							<timecode>
								<rate>
									<timebase>30</timebase>
									<ntsc>TRUE</ntsc>
								</rate>
								<string>00;00;00;00</string>
								<frame>0</frame>
								<displayformat>DF</displayformat>
								<reel>
									<name></name>
								</reel>
							</timecode>
							<media>
								<audio>
									<samplecharacteristics>
										<depth>16</depth>
										<samplerate>48000</samplerate>
									</samplecharacteristics>
									<channelcount>2</channelcount>
								</audio>
							</media>
						</file>
						<sourcetrack>
							<mediatype>audio</mediatype>
							<trackindex>1</trackindex>
						</sourcetrack>
							<filter>
								<effect>
									<name>Audio Levels</name>
									<effectid>audiolevels</effectid>
									<effectcategory>audiolevels</effectcategory>
									<effecttype>audiolevels</effecttype>
									<mediatype>audio</mediatype>
									<parameter authoringApp="PremierePro">
										<parameterid>level</parameterid>
										<name>Level</name>
										<valuemin>0</valuemin>
										<valuemax>3.98109</valuemax>
										<value>0.110848</value>
									</parameter>
								</effect>
							</filter>
						<link>
							<linkclipref>clipitem-155</linkclipref>
							<mediatype>audio</mediatype>
							<trackindex>7</trackindex>
							<clipindex>77</clipindex>
							<groupindex>1</groupindex>
						</link>
						<link>
							<linkclipref>clipitem-208</linkclipref>
							<mediatype>audio</mediatype>
							<trackindex>8</trackindex>
							<clipindex>76</clipindex>
							<groupindex>1</groupindex>
						</link>
						<logginginfo>
							<description></description>
							<scene></scene>
							<shottake></shottake>
							<lognote></lognote>
						</logginginfo>
						<labels>
							<label2>Caribbean</label2>
						</labels>
					</clipitem>
					<transitionitem>
						<start>19062</start>
						<end>19075</end>
						<alignment>end-black</alignment>
						<cutPointTicks>132088320000</cutPointTicks>
						<rate>
							<timebase>25</timebase>
							<ntsc>FALSE</ntsc>
						</rate>
						<effect>
							<name>Cross Fade (+3dB)</name>
							<effectid>KGAudioTransCrossFade3dB</effectid>
							<effecttype>transition</effecttype>
							<mediatype>audio</mediatype>
							<wipecode>0</wipecode>
							<wipeaccuracy>100</wipeaccuracy>
							<startratio>0</startratio>
							<endratio>1</endratio>
							<reverse>FALSE</reverse>
						</effect>
					</transitionitem>
					<clipitem id="clipitem-156" premiereChannelType="stereo">
						<masterclipid>masterclip-50</masterclipid>
						<name>194081__potentjello__woosh-noise-1.wav</name>
						<enabled>TRUE</enabled>
						<duration>8</duration>
						<rate>
							<timebase>25</timebase>
							<ntsc>FALSE</ntsc>
						</rate>
						<start>27331</start>
						<end>27340</end>
						<in>0</in>
						<out>9</out>
						<pproTicksIn>0</pproTicksIn>
						<pproTicksOut>73156608000</pproTicksOut>
						<file id="file-48">
							<name>194081__potentjello__woosh-noise-1.wav</name>
							<pathurl>file://localhost/Volumes/Bingen/Prosjekter/MYNT194016%20WHATS%20COOKING/Lydeffekter/Jan%20Lydeffekter/Woosh/194081__potentjello__woosh-noise-1.wav</pathurl>
							<rate>
								<timebase>30</timebase>
								<ntsc>TRUE</ntsc>
							</rate>
							<duration>9</duration>
							<timecode>
								<rate>
									<timebase>30</timebase>
									<ntsc>TRUE</ntsc>
								</rate>
								<string>01;01;14;15</string>
								<frame>110125</frame>
								<displayformat>DF</displayformat>
								<reel>
									<name></name>
								</reel>
							</timecode>
							<media>
								<audio>
									<samplecharacteristics>
										<depth>16</depth>
										<samplerate>48000</samplerate>
									</samplecharacteristics>
									<channelcount>2</channelcount>
								</audio>
							</media>
						</file>
						<sourcetrack>
							<mediatype>audio</mediatype>
							<trackindex>1</trackindex>
						</sourcetrack>
							<filter>
								<effect>
									<name>Gain</name>
									<effectid>{61756678, 4761696e, 4b657947}</effectid>
									<effecttype>filter</effecttype>
									<mediatype>audio</mediatype>
									<parameter authoringApp="PremierePro">
										<parameterid>Gain(dB)</parameterid>
										<name>Gain(dB)</name>
										<valuemin>-96</valuemin>
										<valuemax>96</valuemax>
										<value>-9</value>
									</parameter>
								</effect>
							</filter>
							<filter>
								<effect>
									<name>Time Remap</name>
									<effectid>timeremap</effectid>
									<effectcategory>motion</effectcategory>
									<effecttype>motion</effecttype>
									<mediatype>audio</mediatype>
									<parameter authoringApp="PremierePro">
										<parameterid>variablespeed</parameterid>
										<name>variablespeed</name>
										<valuemin>0</valuemin>
										<valuemax>1</valuemax>
										<value>0</value>
									</parameter>
									<parameter authoringApp="PremierePro">
										<parameterid>speed</parameterid>
										<name>speed</name>
										<valuemin>-100000</valuemin>
										<valuemax>100000</valuemax>
										<value>80</value>
									</parameter>
									<parameter authoringApp="PremierePro">
										<parameterid>reverse</parameterid>
										<name>reverse</name>
										<value>FALSE</value>
									</parameter>
									<parameter authoringApp="PremierePro">
										<parameterid>frameblending</parameterid>
										<name>frameblending</name>
										<value>FALSE</value>
									</parameter>
									<parameter authoringApp="PremierePro">
										<parameterid>graphdict</parameterid>
										<name>graphdict</name>
										<valuemin>0</valuemin>
										<valuemax>6</valuemax>
										<value>0</value>
										<keyframe>
											<when>0</when>
											<value>0</value>
											<speedvirtualkf>TRUE</speedvirtualkf>
											<speedkfin>TRUE</speedkfin>
										</keyframe>
										<keyframe>
											<when>8</when>
											<value>6</value>
											<speedvirtualkf>TRUE</speedvirtualkf>
											<speedkfout>TRUE</speedkfout>
										</keyframe>
										<interpolation>
											<name>FCPCurve</name>
										</interpolation>
									</parameter>
								</effect>
							</filter>
							<marker>
								<comment></comment>
								<name></name>
								<in>6</in>
								<out>-1</out>
							</marker>
						<link>
							<linkclipref>clipitem-156</linkclipref>
							<mediatype>audio</mediatype>
							<trackindex>7</trackindex>
							<clipindex>79</clipindex>
							<groupindex>1</groupindex>
						</link>
						<link>
							<linkclipref>clipitem-209</linkclipref>
							<mediatype>audio</mediatype>
							<trackindex>8</trackindex>
							<clipindex>78</clipindex>
							<groupindex>1</groupindex>
						</link>
						<logginginfo>
							<description></description>
							<scene></scene>
							<shottake></shottake>
							<lognote></lognote>
						</logginginfo>
						<labels>
							<label2>Caribbean</label2>
						</labels>
					</clipitem>
					<transitionitem>
						<start>27702</start>
						<end>27715</end>
						<alignment>start-black</alignment>
						<cutPointTicks>0</cutPointTicks>
						<rate>
							<timebase>25</timebase>
							<ntsc>FALSE</ntsc>
						</rate>
						<effect>
							<name>Cross Fade (+3dB)</name>
							<effectid>KGAudioTransCrossFade3dB</effectid>
							<effecttype>transition</effecttype>
							<mediatype>audio</mediatype>
							<wipecode>0</wipecode>
							<wipeaccuracy>100</wipeaccuracy>
							<startratio>0</startratio>
							<endratio>1</endratio>
							<reverse>FALSE</reverse>
						</effect>
					</transitionitem>
					<clipitem id="clipitem-157" premiereChannelType="stereo">
						<masterclipid>masterclip-51</masterclipid>
						<name>SVN_7_7_Rogue_Warrior_Lehrman_Nonte_922056.wav</name>
						<enabled>TRUE</enabled>
						<duration>2957</duration>
						<rate>
							<timebase>25</timebase>
							<ntsc>FALSE</ntsc>
						</rate>
						<start>-1</start>
						<end>-1</end>
						<in>2412</in>
						<out>2533</out>
						<pproTicksIn>24507463680000</pproTicksIn>
						<pproTicksOut>25736901120000</pproTicksOut>
						<file id="file-49">
							<name>SVN_7_7_Rogue_Warrior_Lehrman_Nonte_922056.wav</name>
							<pathurl>file://localhost/Volumes/Bingen/Prosjekter/MYNT194016%20WHATS%20COOKING/Musikk/Stig/24b%3a48hz/SVN_7_7_Rogue_Warrior_Lehrman_Nonte_922056.wav</pathurl>
							<rate>
								<timebase>30</timebase>
								<ntsc>TRUE</ntsc>
							</rate>
							<duration>3545</duration>
							<timecode>
								<rate>
									<timebase>30</timebase>
									<ntsc>TRUE</ntsc>
								</rate>
								<string>01;11;10;19</string>
								<frame>127991</frame>
								<displayformat>DF</displayformat>
								<reel>
									<name></name>
								</reel>
							</timecode>
							<media>
								<audio>
									<samplecharacteristics>
										<depth>16</depth>
										<samplerate>48000</samplerate>
									</samplecharacteristics>
									<channelcount>2</channelcount>
								</audio>
							</media>
						</file>
						<sourcetrack>
							<mediatype>audio</mediatype>
							<trackindex>1</trackindex>
						</sourcetrack>
							<filter>
								<effect>
									<name>Gain</name>
									<effectid>{61756678, 4761696e, 4b657947}</effectid>
									<effecttype>filter</effecttype>
									<mediatype>audio</mediatype>
									<parameter authoringApp="PremierePro">
										<parameterid>Gain(dB)</parameterid>
										<name>Gain(dB)</name>
										<valuemin>-96</valuemin>
										<valuemax>96</valuemax>
										<value>-15</value>
									</parameter>
								</effect>
							</filter>
						<link>
							<linkclipref>clipitem-157</linkclipref>
							<mediatype>audio</mediatype>
							<trackindex>7</trackindex>
							<clipindex>81</clipindex>
							<groupindex>1</groupindex>
						</link>
						<link>
							<linkclipref>clipitem-210</linkclipref>
							<mediatype>audio</mediatype>
							<trackindex>8</trackindex>
							<clipindex>80</clipindex>
							<groupindex>1</groupindex>
						</link>
						<logginginfo>
							<description></description>
							<scene></scene>
							<shottake></shottake>
							<lognote></lognote>
						</logginginfo>
						<labels>
							<label2>Caribbean</label2>
						</labels>
					</clipitem>
					<transitionitem>
						<start>27810</start>
						<end>27823</end>
						<alignment>center</alignment>
						<cutPointTicks>60963840000</cutPointTicks>
						<rate>
							<timebase>25</timebase>
							<ntsc>FALSE</ntsc>
						</rate>
						<effect>
							<name>Cross Fade (+3dB)</name>
							<effectid>KGAudioTransCrossFade3dB</effectid>
							<effecttype>transition</effecttype>
							<mediatype>audio</mediatype>
							<wipecode>0</wipecode>
							<wipeaccuracy>100</wipeaccuracy>
							<startratio>0</startratio>
							<endratio>1</endratio>
							<reverse>FALSE</reverse>
						</effect>
					</transitionitem>
					<clipitem id="clipitem-158" premiereChannelType="stereo">
						<masterclipid>masterclip-51</masterclipid>
						<name>SVN_7_7_Rogue_Warrior_Lehrman_Nonte_922056.wav</name>
						<enabled>TRUE</enabled>
						<duration>2957</duration>
						<rate>
							<timebase>25</timebase>
							<ntsc>FALSE</ntsc>
						</rate>
						<start>-1</start>
						<end>27999</end>
						<in>2520</in>
						<out>2709</out>
						<pproTicksIn>25604812800000</pproTicksIn>
						<pproTicksOut>27525173760000</pproTicksOut>
						<file id="file-49"/>
						<sourcetrack>
							<mediatype>audio</mediatype>
							<trackindex>1</trackindex>
						</sourcetrack>
							<filter>
								<effect>
									<name>Gain</name>
									<effectid>{61756678, 4761696e, 4b657947}</effectid>
									<effecttype>filter</effecttype>
									<mediatype>audio</mediatype>
									<parameter authoringApp="PremierePro">
										<parameterid>Gain(dB)</parameterid>
										<name>Gain(dB)</name>
										<valuemin>-96</valuemin>
										<valuemax>96</valuemax>
										<value>-24</value>
									</parameter>
								</effect>
							</filter>
						<link>
							<linkclipref>clipitem-158</linkclipref>
							<mediatype>audio</mediatype>
							<trackindex>7</trackindex>
							<clipindex>83</clipindex>
							<groupindex>1</groupindex>
						</link>
						<link>
							<linkclipref>clipitem-211</linkclipref>
							<mediatype>audio</mediatype>
							<trackindex>8</trackindex>
							<clipindex>82</clipindex>
							<groupindex>1</groupindex>
						</link>
						<logginginfo>
							<description></description>
							<scene></scene>
							<shottake></shottake>
							<lognote></lognote>
						</logginginfo>
						<labels>
							<label2>Caribbean</label2>
						</labels>
					</clipitem>
					<clipitem id="clipitem-159" premiereChannelType="stereo">
						<masterclipid>masterclip-51</masterclipid>
						<name>SVN_7_7_Rogue_Warrior_Lehrman_Nonte_922056.wav</name>
						<enabled>TRUE</enabled>
						<duration>2957</duration>
						<rate>
							<timebase>25</timebase>
							<ntsc>FALSE</ntsc>
						</rate>
						<start>27999</start>
						<end>28201</end>
						<in>2709</in>
						<out>2911</out>
						<pproTicksIn>27525173760000</pproTicksIn>
						<pproTicksOut>29577623040000</pproTicksOut>
						<file id="file-49"/>
						<sourcetrack>
							<mediatype>audio</mediatype>
							<trackindex>1</trackindex>
						</sourcetrack>
							<filter>
								<effect>
									<name>Gain</name>
									<effectid>{61756678, 4761696e, 4b657947}</effectid>
									<effecttype>filter</effecttype>
									<mediatype>audio</mediatype>
									<parameter authoringApp="PremierePro">
										<parameterid>Gain(dB)</parameterid>
										<name>Gain(dB)</name>
										<valuemin>-96</valuemin>
										<valuemax>96</valuemax>
										<value>-18</value>
									</parameter>
								</effect>
							</filter>
						<link>
							<linkclipref>clipitem-159</linkclipref>
							<mediatype>audio</mediatype>
							<trackindex>7</trackindex>
							<clipindex>84</clipindex>
							<groupindex>1</groupindex>
						</link>
						<link>
							<linkclipref>clipitem-212</linkclipref>
							<mediatype>audio</mediatype>
							<trackindex>8</trackindex>
							<clipindex>83</clipindex>
							<groupindex>1</groupindex>
						</link>
						<logginginfo>
							<description></description>
							<scene></scene>
							<shottake></shottake>
							<lognote></lognote>
						</logginginfo>
						<labels>
							<label2>Caribbean</label2>
						</labels>
					</clipitem>
					<clipitem id="clipitem-160" premiereChannelType="stereo">
						<masterclipid>masterclip-52</masterclipid>
						<name>UTS_19_22_Pendulum_Unleashed_Hit_1_David_Denis_856912.wav</name>
						<enabled>TRUE</enabled>
						<duration>200</duration>
						<rate>
							<timebase>25</timebase>
							<ntsc>FALSE</ntsc>
						</rate>
						<start>28550</start>
						<end>28663</end>
						<in>0</in>
						<out>113</out>
						<pproTicksIn>0</pproTicksIn>
						<pproTicksOut>1148152320000</pproTicksOut>
						<file id="file-50">
							<name>UTS_19_22_Pendulum_Unleashed_Hit_1_David_Denis_856912.wav</name>
							<pathurl>file://localhost/Volumes/Bingen/Prosjekter/MYNT194016%20WHATS%20COOKING/Musikk/Stig/24b%3a48hz/UTS_19_22_Pendulum_Unleashed_Hit_1_David_Denis_856912.wav</pathurl>
							<rate>
								<timebase>30</timebase>
								<ntsc>TRUE</ntsc>
							</rate>
							<duration>239</duration>
							<timecode>
								<rate>
									<timebase>30</timebase>
									<ntsc>TRUE</ntsc>
								</rate>
								<string>01;48;56;00</string>
								<frame>195884</frame>
								<displayformat>DF</displayformat>
								<reel>
									<name></name>
								</reel>
							</timecode>
							<media>
								<audio>
									<samplecharacteristics>
										<depth>16</depth>
										<samplerate>48000</samplerate>
									</samplecharacteristics>
									<channelcount>2</channelcount>
								</audio>
							</media>
						</file>
						<sourcetrack>
							<mediatype>audio</mediatype>
							<trackindex>1</trackindex>
						</sourcetrack>
							<filter>
								<effect>
									<name>Gain</name>
									<effectid>{61756678, 4761696e, 4b657947}</effectid>
									<effecttype>filter</effecttype>
									<mediatype>audio</mediatype>
									<parameter authoringApp="PremierePro">
										<parameterid>Gain(dB)</parameterid>
										<name>Gain(dB)</name>
										<valuemin>-96</valuemin>
										<valuemax>96</valuemax>
										<value>-9</value>
									</parameter>
								</effect>
							</filter>
						<link>
							<linkclipref>clipitem-160</linkclipref>
							<mediatype>audio</mediatype>
							<trackindex>7</trackindex>
							<clipindex>85</clipindex>
							<groupindex>1</groupindex>
						</link>
						<link>
							<linkclipref>clipitem-213</linkclipref>
							<mediatype>audio</mediatype>
							<trackindex>8</trackindex>
							<clipindex>84</clipindex>
							<groupindex>1</groupindex>
						</link>
						<logginginfo>
							<description></description>
							<scene></scene>
							<shottake></shottake>
							<lognote></lognote>
						</logginginfo>
						<labels>
							<label2>Caribbean</label2>
						</labels>
					</clipitem>
					<clipitem id="clipitem-161" premiereChannelType="mono">
						<masterclipid>masterclip-32</masterclipid>
						<name>02 Foredrag-T01-Multicam</name>
						<enabled>TRUE</enabled>
						<duration>76803</duration>
						<rate>
							<timebase>25</timebase>
							<ntsc>FALSE</ntsc>
						</rate>
						<start>30420</start>
						<end>30616</end>
						<in>46163</in>
						<out>46359</out>
						<pproTicksIn>469045624320000</pproTicksIn>
						<pproTicksOut>471037109760000</pproTicksOut>
						<sequence id="sequence-2"/>
						<labels>
							<label2>Forest</label2>
						</labels>
					</clipitem>
					<clipitem id="clipitem-162" premiereChannelType="mono">
						<masterclipid>masterclip-32</masterclipid>
						<name>02 Foredrag-T01-Multicam</name>
						<enabled>TRUE</enabled>
						<duration>76803</duration>
						<rate>
							<timebase>25</timebase>
							<ntsc>FALSE</ntsc>
						</rate>
						<start>31428</start>
						<end>31528</end>
						<in>51283</in>
						<out>51383</out>
						<pproTicksIn>521068101120000</pproTicksIn>
						<pproTicksOut>522084165120000</pproTicksOut>
						<sequence id="sequence-2"/>
						<labels>
							<label2>Forest</label2>
						</labels>
					</clipitem>
					<clipitem id="clipitem-163" premiereChannelType="mono">
						<masterclipid>masterclip-32</masterclipid>
						<name>02 Foredrag-T01-Multicam</name>
						<enabled>TRUE</enabled>
						<duration>76803</duration>
						<rate>
							<timebase>25</timebase>
							<ntsc>FALSE</ntsc>
						</rate>
						<start>31528</start>
						<end>31762</end>
						<in>51431</in>
						<out>51665</out>
						<pproTicksIn>522571875840000</pproTicksIn>
						<pproTicksOut>524949465600000</pproTicksOut>
						<sequence id="sequence-2"/>
						<labels>
							<label2>Forest</label2>
						</labels>
					</clipitem>
					<clipitem id="clipitem-164" premiereChannelType="mono">
						<masterclipid>masterclip-32</masterclipid>
						<name>02 Foredrag-T01-Multicam</name>
						<enabled>TRUE</enabled>
						<duration>76803</duration>
						<rate>
							<timebase>25</timebase>
							<ntsc>FALSE</ntsc>
						</rate>
						<start>31762</start>
						<end>31923</end>
						<in>53264</in>
						<out>53425</out>
						<pproTicksIn>541196328960000</pproTicksIn>
						<pproTicksOut>542832192000000</pproTicksOut>
						<sequence id="sequence-2"/>
						<labels>
							<label2>Forest</label2>
						</labels>
					</clipitem>
					<clipitem id="clipitem-165" premiereChannelType="mono">
						<masterclipid>masterclip-32</masterclipid>
						<name>02 Foredrag-T01-Multicam</name>
						<enabled>TRUE</enabled>
						<duration>76803</duration>
						<rate>
							<timebase>25</timebase>
							<ntsc>FALSE</ntsc>
						</rate>
						<start>31923</start>
						<end>32002</end>
						<in>53856</in>
						<out>53935</out>
						<pproTicksIn>547211427840000</pproTicksIn>
						<pproTicksOut>548014118400000</pproTicksOut>
						<sequence id="sequence-2"/>
						<labels>
							<label2>Forest</label2>
						</labels>
					</clipitem>
					<clipitem id="clipitem-166" premiereChannelType="mono">
						<masterclipid>masterclip-32</masterclipid>
						<name>02 Foredrag-T01-Multicam</name>
						<enabled>TRUE</enabled>
						<duration>76803</duration>
						<rate>
							<timebase>25</timebase>
							<ntsc>FALSE</ntsc>
						</rate>
						<start>32002</start>
						<end>32139</end>
						<in>54422</in>
						<out>54559</out>
						<pproTicksIn>552962350080000</pproTicksIn>
						<pproTicksOut>554354357760000</pproTicksOut>
						<sequence id="sequence-2"/>
						<labels>
							<label2>Forest</label2>
						</labels>
					</clipitem>
					<clipitem id="clipitem-167" premiereChannelType="mono">
						<masterclipid>masterclip-32</masterclipid>
						<name>02 Foredrag-T01-Multicam</name>
						<enabled>TRUE</enabled>
						<duration>76803</duration>
						<rate>
							<timebase>25</timebase>
							<ntsc>FALSE</ntsc>
						</rate>
						<start>32139</start>
						<end>32218</end>
						<in>53146</in>
						<out>53225</out>
						<pproTicksIn>539997373440000</pproTicksIn>
						<pproTicksOut>540800064000000</pproTicksOut>
						<sequence id="sequence-2"/>
						<labels>
							<label2>Forest</label2>
						</labels>
					</clipitem>
					<clipitem id="clipitem-168" premiereChannelType="mono">
						<masterclipid>masterclip-32</masterclipid>
						<name>02 Foredrag-T01-Multicam</name>
						<enabled>TRUE</enabled>
						<duration>76803</duration>
						<rate>
							<timebase>25</timebase>
							<ntsc>FALSE</ntsc>
						</rate>
						<start>32586</start>
						<end>32657</end>
						<in>55227</in>
						<out>55298</out>
						<pproTicksIn>561141665280000</pproTicksIn>
						<pproTicksOut>561863070720000</pproTicksOut>
						<sequence id="sequence-2"/>
						<labels>
							<label2>Forest</label2>
						</labels>
					</clipitem>
					<clipitem id="clipitem-169" premiereChannelType="mono">
						<masterclipid>masterclip-32</masterclipid>
						<name>02 Foredrag-T01-Multicam</name>
						<enabled>TRUE</enabled>
						<duration>76803</duration>
						<rate>
							<timebase>25</timebase>
							<ntsc>FALSE</ntsc>
						</rate>
						<start>32657</start>
						<end>32688</end>
						<in>55315</in>
						<out>55346</out>
						<pproTicksIn>562035801600000</pproTicksIn>
						<pproTicksOut>562350781440000</pproTicksOut>
						<sequence id="sequence-2"/>
						<labels>
							<label2>Forest</label2>
						</labels>
					</clipitem>
					<enabled>TRUE</enabled>
					<locked>FALSE</locked>
					<outputchannelindex>1</outputchannelindex>
				</track>
				<track TL.SQTrackAudioKeyframeStyle="0" TL.SQTrackShy="0" TL.SQTrackExpandedHeight="65" TL.SQTrackExpanded="1" MZ.TrackTargeted="1" MZ.TrackName="Audio 6" PannerCurrentValue="0.5" PannerIsInverted="true" PannerStartKeyframe="-91445760000000000,0.5,0,0,0,0,0,0" PannerName="Balance" currentExplodedTrackIndex="1" totalExplodedTrackCount="2" premiereTrackType="Stereo">
					<clipitem id="clipitem-170" premiereChannelType="stereo">
						<masterclipid>masterclip-36</masterclipid>
						<name>BR_586_5_Unstoppable_Force_Britton_858425.wav</name>
						<enabled>TRUE</enabled>
						<duration>3237</duration>
						<rate>
							<timebase>25</timebase>
							<ntsc>FALSE</ntsc>
						</rate>
						<start>290</start>
						<end>-1</end>
						<in>644</in>
						<out>916</out>
						<pproTicksIn>6543452160000</pproTicksIn>
						<pproTicksOut>9307146240000</pproTicksOut>
						<file id="file-34"/>
						<sourcetrack>
							<mediatype>audio</mediatype>
							<trackindex>2</trackindex>
						</sourcetrack>
							<filter>
								<effect>
									<name>Gain</name>
									<effectid>{61756678, 4761696e, 4b657947}</effectid>
									<effecttype>filter</effecttype>
									<mediatype>audio</mediatype>
									<parameter authoringApp="PremierePro">
										<parameterid>Gain(dB)</parameterid>
										<name>Gain(dB)</name>
										<valuemin>-96</valuemin>
										<valuemax>96</valuemax>
										<value>-33</value>
									</parameter>
								</effect>
							</filter>
						<link>
							<linkclipref>clipitem-117</linkclipref>
							<mediatype>audio</mediatype>
							<trackindex>7</trackindex>
							<clipindex>2</clipindex>
							<groupindex>1</groupindex>
						</link>
						<link>
							<linkclipref>clipitem-170</linkclipref>
							<mediatype>audio</mediatype>
							<trackindex>8</trackindex>
							<clipindex>1</clipindex>
							<groupindex>1</groupindex>
						</link>
						<logginginfo>
							<description></description>
							<scene></scene>
							<shottake></shottake>
							<lognote></lognote>
						</logginginfo>
						<labels>
							<label2>Caribbean</label2>
						</labels>
					</clipitem>
					<transitionitem>
						<start>549</start>
						<end>562</end>
						<alignment>center</alignment>
						<cutPointTicks>60963840000</cutPointTicks>
						<rate>
							<timebase>25</timebase>
							<ntsc>FALSE</ntsc>
						</rate>
						<effect>
							<name>Cross Fade (+3dB)</name>
							<effectid>KGAudioTransCrossFade3dB</effectid>
							<effecttype>transition</effecttype>
							<mediatype>audio</mediatype>
							<wipecode>0</wipecode>
							<wipeaccuracy>100</wipeaccuracy>
							<startratio>0</startratio>
							<endratio>1</endratio>
							<reverse>FALSE</reverse>
						</effect>
					</transitionitem>
					<clipitem id="clipitem-171" premiereChannelType="stereo">
						<masterclipid>masterclip-36</masterclipid>
						<name>BR_586_5_Unstoppable_Force_Britton_858425.wav</name>
						<enabled>TRUE</enabled>
						<duration>3237</duration>
						<rate>
							<timebase>25</timebase>
							<ntsc>FALSE</ntsc>
						</rate>
						<start>-1</start>
						<end>750</end>
						<in>919</in>
						<out>1120</out>
						<pproTicksIn>9337628160000</pproTicksIn>
						<pproTicksOut>11379916800000</pproTicksOut>
						<file id="file-34"/>
						<sourcetrack>
							<mediatype>audio</mediatype>
							<trackindex>2</trackindex>
						</sourcetrack>
							<filter>
								<effect>
									<name>Gain</name>
									<effectid>{61756678, 4761696e, 4b657947}</effectid>
									<effecttype>filter</effecttype>
									<mediatype>audio</mediatype>
									<parameter authoringApp="PremierePro">
										<parameterid>Gain(dB)</parameterid>
										<name>Gain(dB)</name>
										<valuemin>-96</valuemin>
										<valuemax>96</valuemax>
										<value>-27</value>
									</parameter>
								</effect>
							</filter>
						<link>
							<linkclipref>clipitem-118</linkclipref>
							<mediatype>audio</mediatype>
							<trackindex>7</trackindex>
							<clipindex>4</clipindex>
							<groupindex>1</groupindex>
						</link>
						<link>
							<linkclipref>clipitem-171</linkclipref>
							<mediatype>audio</mediatype>
							<trackindex>8</trackindex>
							<clipindex>3</clipindex>
							<groupindex>1</groupindex>
						</link>
						<logginginfo>
							<description></description>
							<scene></scene>
							<shottake></shottake>
							<lognote></lognote>
						</logginginfo>
						<labels>
							<label2>Caribbean</label2>
						</labels>
					</clipitem>
					<transitionitem>
						<start>750</start>
						<end>825</end>
						<alignment>start-black</alignment>
						<cutPointTicks>0</cutPointTicks>
						<rate>
							<timebase>25</timebase>
							<ntsc>FALSE</ntsc>
						</rate>
						<effect>
							<name>Cross Fade (+3dB)</name>
							<effectid>KGAudioTransCrossFade3dB</effectid>
							<effecttype>transition</effecttype>
							<mediatype>audio</mediatype>
							<wipecode>0</wipecode>
							<wipeaccuracy>100</wipeaccuracy>
							<startratio>0</startratio>
							<endratio>1</endratio>
							<reverse>FALSE</reverse>
						</effect>
					</transitionitem>
					<clipitem id="clipitem-172" premiereChannelType="stereo">
						<masterclipid>masterclip-37</masterclipid>
						<name>NONRE646891HD0001 Lockjaw.wav</name>
						<enabled>TRUE</enabled>
						<duration>5578</duration>
						<rate>
							<timebase>25</timebase>
							<ntsc>FALSE</ntsc>
						</rate>
						<start>-1</start>
						<end>-1</end>
						<in>0</in>
						<out>264</out>
						<pproTicksIn>0</pproTicksIn>
						<pproTicksOut>2682408960000</pproTicksOut>
						<file id="file-35"/>
						<sourcetrack>
							<mediatype>audio</mediatype>
							<trackindex>2</trackindex>
						</sourcetrack>
							<filter>
								<effect>
									<name>Gain</name>
									<effectid>{61756678, 4761696e, 4b657947}</effectid>
									<effecttype>filter</effecttype>
									<mediatype>audio</mediatype>
									<parameter authoringApp="PremierePro">
										<parameterid>Gain(dB)</parameterid>
										<name>Gain(dB)</name>
										<valuemin>-96</valuemin>
										<valuemax>96</valuemax>
										<value>-21</value>
									</parameter>
								</effect>
							</filter>
						<link>
							<linkclipref>clipitem-119</linkclipref>
							<mediatype>audio</mediatype>
							<trackindex>7</trackindex>
							<clipindex>6</clipindex>
							<groupindex>1</groupindex>
						</link>
						<link>
							<linkclipref>clipitem-172</linkclipref>
							<mediatype>audio</mediatype>
							<trackindex>8</trackindex>
							<clipindex>5</clipindex>
							<groupindex>1</groupindex>
						</link>
						<logginginfo>
							<description>NB! Avventer svar fra HP</description>
							<scene></scene>
							<shottake></shottake>
							<lognote></lognote>
						</logginginfo>
						<labels>
							<label2>Caribbean</label2>
						</labels>
					</clipitem>
					<transitionitem>
						<start>1001</start>
						<end>1014</end>
						<alignment>center</alignment>
						<cutPointTicks>60963840000</cutPointTicks>
						<rate>
							<timebase>25</timebase>
							<ntsc>FALSE</ntsc>
						</rate>
						<effect>
							<name>Cross Fade (+3dB)</name>
							<effectid>KGAudioTransCrossFade3dB</effectid>
							<effecttype>transition</effecttype>
							<mediatype>audio</mediatype>
							<wipecode>0</wipecode>
							<wipeaccuracy>100</wipeaccuracy>
							<startratio>0</startratio>
							<endratio>1</endratio>
							<reverse>FALSE</reverse>
						</effect>
					</transitionitem>
					<clipitem id="clipitem-173" premiereChannelType="stereo">
						<masterclipid>masterclip-37</masterclipid>
						<name>NONRE646891HD0001 Lockjaw.wav</name>
						<enabled>TRUE</enabled>
						<duration>5578</duration>
						<rate>
							<timebase>25</timebase>
							<ntsc>FALSE</ntsc>
						</rate>
						<start>-1</start>
						<end>-1</end>
						<in>251</in>
						<out>709</out>
						<pproTicksIn>2550320640000</pproTicksIn>
						<pproTicksOut>7203893760000</pproTicksOut>
						<file id="file-35"/>
						<sourcetrack>
							<mediatype>audio</mediatype>
							<trackindex>2</trackindex>
						</sourcetrack>
							<filter>
								<effect>
									<name>Gain</name>
									<effectid>{61756678, 4761696e, 4b657947}</effectid>
									<effecttype>filter</effecttype>
									<mediatype>audio</mediatype>
									<parameter authoringApp="PremierePro">
										<parameterid>Gain(dB)</parameterid>
										<name>Gain(dB)</name>
										<valuemin>-96</valuemin>
										<valuemax>96</valuemax>
										<value>-12</value>
									</parameter>
								</effect>
							</filter>
						<link>
							<linkclipref>clipitem-120</linkclipref>
							<mediatype>audio</mediatype>
							<trackindex>7</trackindex>
							<clipindex>8</clipindex>
							<groupindex>1</groupindex>
						</link>
						<link>
							<linkclipref>clipitem-173</linkclipref>
							<mediatype>audio</mediatype>
							<trackindex>8</trackindex>
							<clipindex>7</clipindex>
							<groupindex>1</groupindex>
						</link>
						<logginginfo>
							<description>NB! Avventer svar fra HP</description>
							<scene></scene>
							<shottake></shottake>
							<lognote></lognote>
						</logginginfo>
						<labels>
							<label2>Caribbean</label2>
						</labels>
					</clipitem>
					<transitionitem>
						<start>1423</start>
						<end>1459</end>
						<alignment>center</alignment>
						<cutPointTicks>173514096000</cutPointTicks>
						<rate>
							<timebase>25</timebase>
							<ntsc>FALSE</ntsc>
						</rate>
						<effect>
							<name>Cross Fade (+3dB)</name>
							<effectid>KGAudioTransCrossFade3dB</effectid>
							<effecttype>transition</effecttype>
							<mediatype>audio</mediatype>
							<wipecode>0</wipecode>
							<wipeaccuracy>100</wipeaccuracy>
							<startratio>0</startratio>
							<endratio>1</endratio>
							<reverse>FALSE</reverse>
						</effect>
					</transitionitem>
					<clipitem id="clipitem-174" premiereChannelType="stereo">
						<masterclipid>masterclip-37</masterclipid>
						<name>NONRE646891HD0001 Lockjaw.wav</name>
						<enabled>TRUE</enabled>
						<duration>5578</duration>
						<rate>
							<timebase>25</timebase>
							<ntsc>FALSE</ntsc>
						</rate>
						<start>-1</start>
						<end>-1</end>
						<in>673</in>
						<out>917</out>
						<pproTicksIn>6838110720000</pproTicksIn>
						<pproTicksOut>9317306880000</pproTicksOut>
						<file id="file-35"/>
						<sourcetrack>
							<mediatype>audio</mediatype>
							<trackindex>2</trackindex>
						</sourcetrack>
							<filter>
								<effect>
									<name>Gain</name>
									<effectid>{61756678, 4761696e, 4b657947}</effectid>
									<effecttype>filter</effecttype>
									<mediatype>audio</mediatype>
									<parameter authoringApp="PremierePro">
										<parameterid>Gain(dB)</parameterid>
										<name>Gain(dB)</name>
										<valuemin>-96</valuemin>
										<valuemax>96</valuemax>
										<value>-30</value>
									</parameter>
								</effect>
							</filter>
						<link>
							<linkclipref>clipitem-121</linkclipref>
							<mediatype>audio</mediatype>
							<trackindex>7</trackindex>
							<clipindex>10</clipindex>
							<groupindex>1</groupindex>
						</link>
						<link>
							<linkclipref>clipitem-174</linkclipref>
							<mediatype>audio</mediatype>
							<trackindex>8</trackindex>
							<clipindex>9</clipindex>
							<groupindex>1</groupindex>
						</link>
						<logginginfo>
							<description>NB! Avventer svar fra HP</description>
							<scene></scene>
							<shottake></shottake>
							<lognote></lognote>
						</logginginfo>
						<labels>
							<label2>Caribbean</label2>
						</labels>
					</clipitem>
					<transitionitem>
						<start>1640</start>
						<end>1667</end>
						<alignment>end-black</alignment>
						<cutPointTicks>274337280000</cutPointTicks>
						<rate>
							<timebase>25</timebase>
							<ntsc>FALSE</ntsc>
						</rate>
						<effect>
							<name>Cross Fade (+3dB)</name>
							<effectid>KGAudioTransCrossFade3dB</effectid>
							<effecttype>transition</effecttype>
							<mediatype>audio</mediatype>
							<wipecode>0</wipecode>
							<wipeaccuracy>100</wipeaccuracy>
							<startratio>0</startratio>
							<endratio>1</endratio>
							<reverse>FALSE</reverse>
						</effect>
					</transitionitem>
					<clipitem id="clipitem-175" premiereChannelType="stereo">
						<masterclipid>masterclip-38</masterclipid>
						<name>74920__juskiddink__bell6.wav</name>
						<enabled>TRUE</enabled>
						<duration>148</duration>
						<rate>
							<timebase>25</timebase>
							<ntsc>FALSE</ntsc>
						</rate>
						<start>5193</start>
						<end>-1</end>
						<in>0</in>
						<out>11</out>
						<pproTicksIn>0</pproTicksIn>
						<pproTicksOut>111767040000</pproTicksOut>
						<file id="file-36"/>
						<sourcetrack>
							<mediatype>audio</mediatype>
							<trackindex>2</trackindex>
						</sourcetrack>
							<filter>
								<effect>
									<name>Gain</name>
									<effectid>{61756678, 4761696e, 4b657947}</effectid>
									<effecttype>filter</effecttype>
									<mediatype>audio</mediatype>
									<parameter authoringApp="PremierePro">
										<parameterid>Gain(dB)</parameterid>
										<name>Gain(dB)</name>
										<valuemin>-96</valuemin>
										<valuemax>96</valuemax>
										<value>-28</value>
									</parameter>
								</effect>
							</filter>
						<link>
							<linkclipref>clipitem-122</linkclipref>
							<mediatype>audio</mediatype>
							<trackindex>7</trackindex>
							<clipindex>12</clipindex>
							<groupindex>1</groupindex>
						</link>
						<link>
							<linkclipref>clipitem-175</linkclipref>
							<mediatype>audio</mediatype>
							<trackindex>8</trackindex>
							<clipindex>11</clipindex>
							<groupindex>1</groupindex>
						</link>
						<logginginfo>
							<description></description>
							<scene></scene>
							<shottake></shottake>
							<lognote></lognote>
						</logginginfo>
						<labels>
							<label2>Caribbean</label2>
						</labels>
					</clipitem>
					<transitionitem>
						<start>5197</start>
						<end>5204</end>
						<alignment>center</alignment>
						<cutPointTicks>30481920000</cutPointTicks>
						<rate>
							<timebase>25</timebase>
							<ntsc>FALSE</ntsc>
						</rate>
						<effect>
							<name>Cross Fade (+3dB)</name>
							<effectid>KGAudioTransCrossFade3dB</effectid>
							<effecttype>transition</effecttype>
							<mediatype>audio</mediatype>
							<wipecode>0</wipecode>
							<wipeaccuracy>100</wipeaccuracy>
							<startratio>0</startratio>
							<endratio>1</endratio>
							<reverse>FALSE</reverse>
						</effect>
					</transitionitem>
					<clipitem id="clipitem-176" premiereChannelType="stereo">
						<masterclipid>masterclip-38</masterclipid>
						<name>74920__juskiddink__bell6.wav</name>
						<enabled>TRUE</enabled>
						<duration>148</duration>
						<rate>
							<timebase>25</timebase>
							<ntsc>FALSE</ntsc>
						</rate>
						<start>-1</start>
						<end>5290</end>
						<in>4</in>
						<out>97</out>
						<pproTicksIn>40642560000</pproTicksIn>
						<pproTicksOut>985582080000</pproTicksOut>
						<file id="file-36"/>
						<sourcetrack>
							<mediatype>audio</mediatype>
							<trackindex>2</trackindex>
						</sourcetrack>
							<filter>
								<effect>
									<name>Gain</name>
									<effectid>{61756678, 4761696e, 4b657947}</effectid>
									<effecttype>filter</effecttype>
									<mediatype>audio</mediatype>
									<parameter authoringApp="PremierePro">
										<parameterid>Gain(dB)</parameterid>
										<name>Gain(dB)</name>
										<valuemin>-96</valuemin>
										<valuemax>96</valuemax>
										<value>-38</value>
									</parameter>
								</effect>
							</filter>
						<link>
							<linkclipref>clipitem-123</linkclipref>
							<mediatype>audio</mediatype>
							<trackindex>7</trackindex>
							<clipindex>14</clipindex>
							<groupindex>1</groupindex>
						</link>
						<link>
							<linkclipref>clipitem-176</linkclipref>
							<mediatype>audio</mediatype>
							<trackindex>8</trackindex>
							<clipindex>13</clipindex>
							<groupindex>1</groupindex>
						</link>
						<logginginfo>
							<description></description>
							<scene></scene>
							<shottake></shottake>
							<lognote></lognote>
						</logginginfo>
						<labels>
							<label2>Caribbean</label2>
						</labels>
					</clipitem>
					<transitionitem>
						<start>5456</start>
						<end>5460</end>
						<alignment>start-black</alignment>
						<cutPointTicks>0</cutPointTicks>
						<rate>
							<timebase>25</timebase>
							<ntsc>FALSE</ntsc>
						</rate>
						<effect>
							<name>Cross Fade (+3dB)</name>
							<effectid>KGAudioTransCrossFade3dB</effectid>
							<effecttype>transition</effecttype>
							<mediatype>audio</mediatype>
							<wipecode>0</wipecode>
							<wipeaccuracy>100</wipeaccuracy>
							<startratio>0</startratio>
							<endratio>1</endratio>
							<reverse>FALSE</reverse>
						</effect>
					</transitionitem>
					<clipitem id="clipitem-177" premiereChannelType="stereo">
						<masterclipid>masterclip-39</masterclipid>
						<name>SAS002116.wav</name>
						<enabled>TRUE</enabled>
						<duration>2875</duration>
						<rate>
							<timebase>25</timebase>
							<ntsc>FALSE</ntsc>
						</rate>
						<start>-1</start>
						<end>-1</end>
						<in>0</in>
						<out>38</out>
						<pproTicksIn>0</pproTicksIn>
						<pproTicksOut>386104320000</pproTicksOut>
						<file id="file-37"/>
						<sourcetrack>
							<mediatype>audio</mediatype>
							<trackindex>2</trackindex>
						</sourcetrack>
							<filter>
								<effect>
									<name>Gain</name>
									<effectid>{61756678, 4761696e, 4b657947}</effectid>
									<effecttype>filter</effecttype>
									<mediatype>audio</mediatype>
									<parameter authoringApp="PremierePro">
										<parameterid>Gain(dB)</parameterid>
										<name>Gain(dB)</name>
										<valuemin>-96</valuemin>
										<valuemax>96</valuemax>
										<value>-9</value>
									</parameter>
								</effect>
							</filter>
						<link>
							<linkclipref>clipitem-124</linkclipref>
							<mediatype>audio</mediatype>
							<trackindex>7</trackindex>
							<clipindex>16</clipindex>
							<groupindex>1</groupindex>
						</link>
						<link>
							<linkclipref>clipitem-177</linkclipref>
							<mediatype>audio</mediatype>
							<trackindex>8</trackindex>
							<clipindex>15</clipindex>
							<groupindex>1</groupindex>
						</link>
						<logginginfo>
							<description>fortfilm, drikkerace</description>
							<scene></scene>
							<shottake></shottake>
							<lognote></lognote>
						</logginginfo>
						<labels>
							<label2>Caribbean</label2>
						</labels>
					</clipitem>
					<transitionitem>
						<start>5481</start>
						<end>5494</end>
						<alignment>center</alignment>
						<cutPointTicks>60963840000</cutPointTicks>
						<rate>
							<timebase>25</timebase>
							<ntsc>FALSE</ntsc>
						</rate>
						<effect>
							<name>Cross Fade (+3dB)</name>
							<effectid>KGAudioTransCrossFade3dB</effectid>
							<effecttype>transition</effecttype>
							<mediatype>audio</mediatype>
							<wipecode>0</wipecode>
							<wipeaccuracy>100</wipeaccuracy>
							<startratio>0</startratio>
							<endratio>1</endratio>
							<reverse>FALSE</reverse>
						</effect>
					</transitionitem>
					<clipitem id="clipitem-178" premiereChannelType="stereo">
						<masterclipid>masterclip-39</masterclipid>
						<name>SAS002116.wav</name>
						<enabled>TRUE</enabled>
						<duration>2875</duration>
						<rate>
							<timebase>25</timebase>
							<ntsc>FALSE</ntsc>
						</rate>
						<start>-1</start>
						<end>-1</end>
						<in>25</in>
						<out>90</out>
						<pproTicksIn>254016000000</pproTicksIn>
						<pproTicksOut>914457600000</pproTicksOut>
						<file id="file-37"/>
						<sourcetrack>
							<mediatype>audio</mediatype>
							<trackindex>2</trackindex>
						</sourcetrack>
							<filter>
								<effect>
									<name>Gain</name>
									<effectid>{61756678, 4761696e, 4b657947}</effectid>
									<effecttype>filter</effecttype>
									<mediatype>audio</mediatype>
									<parameter authoringApp="PremierePro">
										<parameterid>Gain(dB)</parameterid>
										<name>Gain(dB)</name>
										<valuemin>-96</valuemin>
										<valuemax>96</valuemax>
										<value>-21</value>
									</parameter>
								</effect>
							</filter>
						<link>
							<linkclipref>clipitem-125</linkclipref>
							<mediatype>audio</mediatype>
							<trackindex>7</trackindex>
							<clipindex>18</clipindex>
							<groupindex>1</groupindex>
						</link>
						<link>
							<linkclipref>clipitem-178</linkclipref>
							<mediatype>audio</mediatype>
							<trackindex>8</trackindex>
							<clipindex>17</clipindex>
							<groupindex>1</groupindex>
						</link>
						<logginginfo>
							<description>fortfilm, drikkerace</description>
							<scene></scene>
							<shottake></shottake>
							<lognote></lognote>
						</logginginfo>
						<labels>
							<label2>Caribbean</label2>
						</labels>
					</clipitem>
					<transitionitem>
						<start>5533</start>
						<end>5546</end>
						<alignment>center</alignment>
						<cutPointTicks>60963840000</cutPointTicks>
						<rate>
							<timebase>25</timebase>
							<ntsc>FALSE</ntsc>
						</rate>
						<effect>
							<name>Cross Fade (+3dB)</name>
							<effectid>KGAudioTransCrossFade3dB</effectid>
							<effecttype>transition</effecttype>
							<mediatype>audio</mediatype>
							<wipecode>0</wipecode>
							<wipeaccuracy>100</wipeaccuracy>
							<startratio>0</startratio>
							<endratio>1</endratio>
							<reverse>FALSE</reverse>
						</effect>
					</transitionitem>
					<clipitem id="clipitem-179" premiereChannelType="stereo">
						<masterclipid>masterclip-39</masterclipid>
						<name>SAS002116.wav</name>
						<enabled>TRUE</enabled>
						<duration>2875</duration>
						<rate>
							<timebase>25</timebase>
							<ntsc>FALSE</ntsc>
						</rate>
						<start>-1</start>
						<end>-1</end>
						<in>77</in>
						<out>155</out>
						<pproTicksIn>782369280000</pproTicksIn>
						<pproTicksOut>1574899200000</pproTicksOut>
						<file id="file-37"/>
						<sourcetrack>
							<mediatype>audio</mediatype>
							<trackindex>2</trackindex>
						</sourcetrack>
							<filter>
								<effect>
									<name>Gain</name>
									<effectid>{61756678, 4761696e, 4b657947}</effectid>
									<effecttype>filter</effecttype>
									<mediatype>audio</mediatype>
									<parameter authoringApp="PremierePro">
										<parameterid>Gain(dB)</parameterid>
										<name>Gain(dB)</name>
										<valuemin>-96</valuemin>
										<valuemax>96</valuemax>
										<value>-9</value>
									</parameter>
								</effect>
							</filter>
						<link>
							<linkclipref>clipitem-126</linkclipref>
							<mediatype>audio</mediatype>
							<trackindex>7</trackindex>
							<clipindex>20</clipindex>
							<groupindex>1</groupindex>
						</link>
						<link>
							<linkclipref>clipitem-179</linkclipref>
							<mediatype>audio</mediatype>
							<trackindex>8</trackindex>
							<clipindex>19</clipindex>
							<groupindex>1</groupindex>
						</link>
						<logginginfo>
							<description>fortfilm, drikkerace</description>
							<scene></scene>
							<shottake></shottake>
							<lognote></lognote>
						</logginginfo>
						<labels>
							<label2>Caribbean</label2>
						</labels>
					</clipitem>
					<transitionitem>
						<start>5598</start>
						<end>5611</end>
						<alignment>center</alignment>
						<cutPointTicks>60963840000</cutPointTicks>
						<rate>
							<timebase>25</timebase>
							<ntsc>FALSE</ntsc>
						</rate>
						<effect>
							<name>Cross Fade (+3dB)</name>
							<effectid>KGAudioTransCrossFade3dB</effectid>
							<effecttype>transition</effecttype>
							<mediatype>audio</mediatype>
							<wipecode>0</wipecode>
							<wipeaccuracy>100</wipeaccuracy>
							<startratio>0</startratio>
							<endratio>1</endratio>
							<reverse>FALSE</reverse>
						</effect>
					</transitionitem>
					<clipitem id="clipitem-180" premiereChannelType="stereo">
						<masterclipid>masterclip-39</masterclipid>
						<name>SAS002116.wav</name>
						<enabled>TRUE</enabled>
						<duration>2875</duration>
						<rate>
							<timebase>25</timebase>
							<ntsc>FALSE</ntsc>
						</rate>
						<start>-1</start>
						<end>-1</end>
						<in>142</in>
						<out>389</out>
						<pproTicksIn>1442810880000</pproTicksIn>
						<pproTicksOut>3952488960000</pproTicksOut>
						<file id="file-37"/>
						<sourcetrack>
							<mediatype>audio</mediatype>
							<trackindex>2</trackindex>
						</sourcetrack>
							<filter>
								<effect>
									<name>Gain</name>
									<effectid>{61756678, 4761696e, 4b657947}</effectid>
									<effecttype>filter</effecttype>
									<mediatype>audio</mediatype>
									<parameter authoringApp="PremierePro">
										<parameterid>Gain(dB)</parameterid>
										<name>Gain(dB)</name>
										<valuemin>-96</valuemin>
										<valuemax>96</valuemax>
										<value>-18</value>
									</parameter>
								</effect>
							</filter>
						<link>
							<linkclipref>clipitem-127</linkclipref>
							<mediatype>audio</mediatype>
							<trackindex>7</trackindex>
							<clipindex>22</clipindex>
							<groupindex>1</groupindex>
						</link>
						<link>
							<linkclipref>clipitem-180</linkclipref>
							<mediatype>audio</mediatype>
							<trackindex>8</trackindex>
							<clipindex>21</clipindex>
							<groupindex>1</groupindex>
						</link>
						<logginginfo>
							<description>fortfilm, drikkerace</description>
							<scene></scene>
							<shottake></shottake>
							<lognote></lognote>
						</logginginfo>
						<labels>
							<label2>Caribbean</label2>
						</labels>
					</clipitem>
					<transitionitem>
						<start>5832</start>
						<end>5845</end>
						<alignment>center</alignment>
						<cutPointTicks>60963840000</cutPointTicks>
						<rate>
							<timebase>25</timebase>
							<ntsc>FALSE</ntsc>
						</rate>
						<effect>
							<name>Cross Fade (+3dB)</name>
							<effectid>KGAudioTransCrossFade3dB</effectid>
							<effecttype>transition</effecttype>
							<mediatype>audio</mediatype>
							<wipecode>0</wipecode>
							<wipeaccuracy>100</wipeaccuracy>
							<startratio>0</startratio>
							<endratio>1</endratio>
							<reverse>FALSE</reverse>
						</effect>
					</transitionitem>
					<clipitem id="clipitem-181" premiereChannelType="stereo">
						<masterclipid>masterclip-39</masterclipid>
						<name>SAS002116.wav</name>
						<enabled>TRUE</enabled>
						<duration>2875</duration>
						<rate>
							<timebase>25</timebase>
							<ntsc>FALSE</ntsc>
						</rate>
						<start>-1</start>
						<end>-1</end>
						<in>376</in>
						<out>489</out>
						<pproTicksIn>3820400640000</pproTicksIn>
						<pproTicksOut>4968552960000</pproTicksOut>
						<file id="file-37"/>
						<sourcetrack>
							<mediatype>audio</mediatype>
							<trackindex>2</trackindex>
						</sourcetrack>
							<filter>
								<effect>
									<name>Gain</name>
									<effectid>{61756678, 4761696e, 4b657947}</effectid>
									<effecttype>filter</effecttype>
									<mediatype>audio</mediatype>
									<parameter authoringApp="PremierePro">
										<parameterid>Gain(dB)</parameterid>
										<name>Gain(dB)</name>
										<valuemin>-96</valuemin>
										<valuemax>96</valuemax>
										<value>-6</value>
									</parameter>
								</effect>
							</filter>
						<link>
							<linkclipref>clipitem-128</linkclipref>
							<mediatype>audio</mediatype>
							<trackindex>7</trackindex>
							<clipindex>24</clipindex>
							<groupindex>1</groupindex>
						</link>
						<link>
							<linkclipref>clipitem-181</linkclipref>
							<mediatype>audio</mediatype>
							<trackindex>8</trackindex>
							<clipindex>23</clipindex>
							<groupindex>1</groupindex>
						</link>
						<logginginfo>
							<description>fortfilm, drikkerace</description>
							<scene></scene>
							<shottake></shottake>
							<lognote></lognote>
						</logginginfo>
						<labels>
							<label2>Caribbean</label2>
						</labels>
					</clipitem>
					<transitionitem>
						<start>5932</start>
						<end>5945</end>
						<alignment>center</alignment>
						<cutPointTicks>60963840000</cutPointTicks>
						<rate>
							<timebase>25</timebase>
							<ntsc>FALSE</ntsc>
						</rate>
						<effect>
							<name>Cross Fade (+3dB)</name>
							<effectid>KGAudioTransCrossFade3dB</effectid>
							<effecttype>transition</effecttype>
							<mediatype>audio</mediatype>
							<wipecode>0</wipecode>
							<wipeaccuracy>100</wipeaccuracy>
							<startratio>0</startratio>
							<endratio>1</endratio>
							<reverse>FALSE</reverse>
						</effect>
					</transitionitem>
					<clipitem id="clipitem-182" premiereChannelType="stereo">
						<masterclipid>masterclip-39</masterclipid>
						<name>SAS002116.wav</name>
						<enabled>TRUE</enabled>
						<duration>2875</duration>
						<rate>
							<timebase>25</timebase>
							<ntsc>FALSE</ntsc>
						</rate>
						<start>-1</start>
						<end>-1</end>
						<in>476</in>
						<out>522</out>
						<pproTicksIn>4836464640000</pproTicksIn>
						<pproTicksOut>5303854080000</pproTicksOut>
						<file id="file-37"/>
						<sourcetrack>
							<mediatype>audio</mediatype>
							<trackindex>2</trackindex>
						</sourcetrack>
							<filter>
								<effect>
									<name>Gain</name>
									<effectid>{61756678, 4761696e, 4b657947}</effectid>
									<effecttype>filter</effecttype>
									<mediatype>audio</mediatype>
									<parameter authoringApp="PremierePro">
										<parameterid>Gain(dB)</parameterid>
										<name>Gain(dB)</name>
										<valuemin>-96</valuemin>
										<valuemax>96</valuemax>
										<value>-18</value>
									</parameter>
								</effect>
							</filter>
						<link>
							<linkclipref>clipitem-129</linkclipref>
							<mediatype>audio</mediatype>
							<trackindex>7</trackindex>
							<clipindex>26</clipindex>
							<groupindex>1</groupindex>
						</link>
						<link>
							<linkclipref>clipitem-182</linkclipref>
							<mediatype>audio</mediatype>
							<trackindex>8</trackindex>
							<clipindex>25</clipindex>
							<groupindex>1</groupindex>
						</link>
						<logginginfo>
							<description>fortfilm, drikkerace</description>
							<scene></scene>
							<shottake></shottake>
							<lognote></lognote>
						</logginginfo>
						<labels>
							<label2>Caribbean</label2>
						</labels>
					</clipitem>
					<transitionitem>
						<start>5965</start>
						<end>5978</end>
						<alignment>center</alignment>
						<cutPointTicks>60963840000</cutPointTicks>
						<rate>
							<timebase>25</timebase>
							<ntsc>FALSE</ntsc>
						</rate>
						<effect>
							<name>Cross Fade (+3dB)</name>
							<effectid>KGAudioTransCrossFade3dB</effectid>
							<effecttype>transition</effecttype>
							<mediatype>audio</mediatype>
							<wipecode>0</wipecode>
							<wipeaccuracy>100</wipeaccuracy>
							<startratio>0</startratio>
							<endratio>1</endratio>
							<reverse>FALSE</reverse>
						</effect>
					</transitionitem>
					<clipitem id="clipitem-183" premiereChannelType="stereo">
						<masterclipid>masterclip-39</masterclipid>
						<name>SAS002116.wav</name>
						<enabled>TRUE</enabled>
						<duration>2875</duration>
						<rate>
							<timebase>25</timebase>
							<ntsc>FALSE</ntsc>
						</rate>
						<start>-1</start>
						<end>-1</end>
						<in>509</in>
						<out>556</out>
						<pproTicksIn>5171765760000</pproTicksIn>
						<pproTicksOut>5649315840000</pproTicksOut>
						<file id="file-37"/>
						<sourcetrack>
							<mediatype>audio</mediatype>
							<trackindex>2</trackindex>
						</sourcetrack>
							<filter>
								<effect>
									<name>Gain</name>
									<effectid>{61756678, 4761696e, 4b657947}</effectid>
									<effecttype>filter</effecttype>
									<mediatype>audio</mediatype>
									<parameter authoringApp="PremierePro">
										<parameterid>Gain(dB)</parameterid>
										<name>Gain(dB)</name>
										<valuemin>-96</valuemin>
										<valuemax>96</valuemax>
										<value>-9</value>
									</parameter>
								</effect>
							</filter>
						<link>
							<linkclipref>clipitem-130</linkclipref>
							<mediatype>audio</mediatype>
							<trackindex>7</trackindex>
							<clipindex>28</clipindex>
							<groupindex>1</groupindex>
						</link>
						<link>
							<linkclipref>clipitem-183</linkclipref>
							<mediatype>audio</mediatype>
							<trackindex>8</trackindex>
							<clipindex>27</clipindex>
							<groupindex>1</groupindex>
						</link>
						<logginginfo>
							<description>fortfilm, drikkerace</description>
							<scene></scene>
							<shottake></shottake>
							<lognote></lognote>
						</logginginfo>
						<labels>
							<label2>Caribbean</label2>
						</labels>
					</clipitem>
					<transitionitem>
						<start>5987</start>
						<end>6012</end>
						<alignment>center</alignment>
						<cutPointTicks>121927680000</cutPointTicks>
						<rate>
							<timebase>25</timebase>
							<ntsc>FALSE</ntsc>
						</rate>
						<effect>
							<name>Cross Fade (+3dB)</name>
							<effectid>KGAudioTransCrossFade3dB</effectid>
							<effecttype>transition</effecttype>
							<mediatype>audio</mediatype>
							<wipecode>0</wipecode>
							<wipeaccuracy>100</wipeaccuracy>
							<startratio>0</startratio>
							<endratio>1</endratio>
							<reverse>FALSE</reverse>
						</effect>
					</transitionitem>
					<clipitem id="clipitem-184" premiereChannelType="stereo">
						<masterclipid>masterclip-39</masterclipid>
						<name>SAS002116.wav</name>
						<enabled>TRUE</enabled>
						<duration>2875</duration>
						<rate>
							<timebase>25</timebase>
							<ntsc>FALSE</ntsc>
						</rate>
						<start>-1</start>
						<end>-1</end>
						<in>531</in>
						<out>586</out>
						<pproTicksIn>5395299840000</pproTicksIn>
						<pproTicksOut>5954135040000</pproTicksOut>
						<file id="file-37"/>
						<sourcetrack>
							<mediatype>audio</mediatype>
							<trackindex>2</trackindex>
						</sourcetrack>
							<filter>
								<effect>
									<name>Gain</name>
									<effectid>{61756678, 4761696e, 4b657947}</effectid>
									<effecttype>filter</effecttype>
									<mediatype>audio</mediatype>
									<parameter authoringApp="PremierePro">
										<parameterid>Gain(dB)</parameterid>
										<name>Gain(dB)</name>
										<valuemin>-96</valuemin>
										<valuemax>96</valuemax>
										<value>-18</value>
									</parameter>
								</effect>
							</filter>
						<link>
							<linkclipref>clipitem-131</linkclipref>
							<mediatype>audio</mediatype>
							<trackindex>7</trackindex>
							<clipindex>30</clipindex>
							<groupindex>1</groupindex>
						</link>
						<link>
							<linkclipref>clipitem-184</linkclipref>
							<mediatype>audio</mediatype>
							<trackindex>8</trackindex>
							<clipindex>29</clipindex>
							<groupindex>1</groupindex>
						</link>
						<logginginfo>
							<description>fortfilm, drikkerace</description>
							<scene></scene>
							<shottake></shottake>
							<lognote></lognote>
						</logginginfo>
						<labels>
							<label2>Caribbean</label2>
						</labels>
					</clipitem>
					<transitionitem>
						<start>6029</start>
						<end>6042</end>
						<alignment>center</alignment>
						<cutPointTicks>60963840000</cutPointTicks>
						<rate>
							<timebase>25</timebase>
							<ntsc>FALSE</ntsc>
						</rate>
						<effect>
							<name>Cross Fade (+3dB)</name>
							<effectid>KGAudioTransCrossFade3dB</effectid>
							<effecttype>transition</effecttype>
							<mediatype>audio</mediatype>
							<wipecode>0</wipecode>
							<wipeaccuracy>100</wipeaccuracy>
							<startratio>0</startratio>
							<endratio>1</endratio>
							<reverse>FALSE</reverse>
						</effect>
					</transitionitem>
					<clipitem id="clipitem-185" premiereChannelType="stereo">
						<masterclipid>masterclip-39</masterclipid>
						<name>SAS002116.wav</name>
						<enabled>TRUE</enabled>
						<duration>2875</duration>
						<rate>
							<timebase>25</timebase>
							<ntsc>FALSE</ntsc>
						</rate>
						<start>-1</start>
						<end>-1</end>
						<in>573</in>
						<out>645</out>
						<pproTicksIn>5822046720000</pproTicksIn>
						<pproTicksOut>6553612800000</pproTicksOut>
						<file id="file-37"/>
						<sourcetrack>
							<mediatype>audio</mediatype>
							<trackindex>2</trackindex>
						</sourcetrack>
							<filter>
								<effect>
									<name>Gain</name>
									<effectid>{61756678, 4761696e, 4b657947}</effectid>
									<effecttype>filter</effecttype>
									<mediatype>audio</mediatype>
									<parameter authoringApp="PremierePro">
										<parameterid>Gain(dB)</parameterid>
										<name>Gain(dB)</name>
										<valuemin>-96</valuemin>
										<valuemax>96</valuemax>
										<value>-9</value>
									</parameter>
								</effect>
							</filter>
						<link>
							<linkclipref>clipitem-132</linkclipref>
							<mediatype>audio</mediatype>
							<trackindex>7</trackindex>
							<clipindex>32</clipindex>
							<groupindex>1</groupindex>
						</link>
						<link>
							<linkclipref>clipitem-185</linkclipref>
							<mediatype>audio</mediatype>
							<trackindex>8</trackindex>
							<clipindex>31</clipindex>
							<groupindex>1</groupindex>
						</link>
						<logginginfo>
							<description>fortfilm, drikkerace</description>
							<scene></scene>
							<shottake></shottake>
							<lognote></lognote>
						</logginginfo>
						<labels>
							<label2>Caribbean</label2>
						</labels>
					</clipitem>
					<transitionitem>
						<start>6088</start>
						<end>6101</end>
						<alignment>center</alignment>
						<cutPointTicks>60963840000</cutPointTicks>
						<rate>
							<timebase>25</timebase>
							<ntsc>FALSE</ntsc>
						</rate>
						<effect>
							<name>Cross Fade (+3dB)</name>
							<effectid>KGAudioTransCrossFade3dB</effectid>
							<effecttype>transition</effecttype>
							<mediatype>audio</mediatype>
							<wipecode>0</wipecode>
							<wipeaccuracy>100</wipeaccuracy>
							<startratio>0</startratio>
							<endratio>1</endratio>
							<reverse>FALSE</reverse>
						</effect>
					</transitionitem>
					<clipitem id="clipitem-186" premiereChannelType="stereo">
						<masterclipid>masterclip-39</masterclipid>
						<name>SAS002116.wav</name>
						<enabled>TRUE</enabled>
						<duration>2875</duration>
						<rate>
							<timebase>25</timebase>
							<ntsc>FALSE</ntsc>
						</rate>
						<start>-1</start>
						<end>-1</end>
						<in>632</in>
						<out>675</out>
						<pproTicksIn>6421524480000</pproTicksIn>
						<pproTicksOut>6858432000000</pproTicksOut>
						<file id="file-37"/>
						<sourcetrack>
							<mediatype>audio</mediatype>
							<trackindex>2</trackindex>
						</sourcetrack>
							<filter>
								<effect>
									<name>Gain</name>
									<effectid>{61756678, 4761696e, 4b657947}</effectid>
									<effecttype>filter</effecttype>
									<mediatype>audio</mediatype>
									<parameter authoringApp="PremierePro">
										<parameterid>Gain(dB)</parameterid>
										<name>Gain(dB)</name>
										<valuemin>-96</valuemin>
										<valuemax>96</valuemax>
										<value>-18</value>
									</parameter>
								</effect>
							</filter>
						<link>
							<linkclipref>clipitem-133</linkclipref>
							<mediatype>audio</mediatype>
							<trackindex>7</trackindex>
							<clipindex>34</clipindex>
							<groupindex>1</groupindex>
						</link>
						<link>
							<linkclipref>clipitem-186</linkclipref>
							<mediatype>audio</mediatype>
							<trackindex>8</trackindex>
							<clipindex>33</clipindex>
							<groupindex>1</groupindex>
						</link>
						<logginginfo>
							<description>fortfilm, drikkerace</description>
							<scene></scene>
							<shottake></shottake>
							<lognote></lognote>
						</logginginfo>
						<labels>
							<label2>Caribbean</label2>
						</labels>
					</clipitem>
					<transitionitem>
						<start>6118</start>
						<end>6131</end>
						<alignment>end-black</alignment>
						<cutPointTicks>132088320000</cutPointTicks>
						<rate>
							<timebase>25</timebase>
							<ntsc>FALSE</ntsc>
						</rate>
						<effect>
							<name>Cross Fade (+3dB)</name>
							<effectid>KGAudioTransCrossFade3dB</effectid>
							<effecttype>transition</effecttype>
							<mediatype>audio</mediatype>
							<wipecode>0</wipecode>
							<wipeaccuracy>100</wipeaccuracy>
							<startratio>0</startratio>
							<endratio>1</endratio>
							<reverse>FALSE</reverse>
						</effect>
					</transitionitem>
					<transitionitem>
						<start>6507</start>
						<end>6520</end>
						<alignment>start-black</alignment>
						<cutPointTicks>0</cutPointTicks>
						<rate>
							<timebase>25</timebase>
							<ntsc>FALSE</ntsc>
						</rate>
						<effect>
							<name>Cross Fade (+3dB)</name>
							<effectid>KGAudioTransCrossFade3dB</effectid>
							<effecttype>transition</effecttype>
							<mediatype>audio</mediatype>
							<wipecode>0</wipecode>
							<wipeaccuracy>100</wipeaccuracy>
							<startratio>0</startratio>
							<endratio>1</endratio>
							<reverse>FALSE</reverse>
						</effect>
					</transitionitem>
					<clipitem id="clipitem-187" premiereChannelType="stereo">
						<masterclipid>masterclip-40</masterclipid>
						<name>SAS002112.wav</name>
						<enabled>TRUE</enabled>
						<duration>2100</duration>
						<rate>
							<timebase>25</timebase>
							<ntsc>FALSE</ntsc>
						</rate>
						<start>-1</start>
						<end>-1</end>
						<in>0</in>
						<out>56</out>
						<pproTicksIn>0</pproTicksIn>
						<pproTicksOut>568995840000</pproTicksOut>
						<file id="file-38"/>
						<sourcetrack>
							<mediatype>audio</mediatype>
							<trackindex>2</trackindex>
						</sourcetrack>
							<filter>
								<effect>
									<name>Gain</name>
									<effectid>{61756678, 4761696e, 4b657947}</effectid>
									<effecttype>filter</effecttype>
									<mediatype>audio</mediatype>
									<parameter authoringApp="PremierePro">
										<parameterid>Gain(dB)</parameterid>
										<name>Gain(dB)</name>
										<valuemin>-96</valuemin>
										<valuemax>96</valuemax>
										<value>-15</value>
									</parameter>
								</effect>
							</filter>
						<link>
							<linkclipref>clipitem-134</linkclipref>
							<mediatype>audio</mediatype>
							<trackindex>7</trackindex>
							<clipindex>37</clipindex>
							<groupindex>1</groupindex>
						</link>
						<link>
							<linkclipref>clipitem-187</linkclipref>
							<mediatype>audio</mediatype>
							<trackindex>8</trackindex>
							<clipindex>36</clipindex>
							<groupindex>1</groupindex>
						</link>
						<logginginfo>
							<description>tøyse/stumfilmaktig (resirkuelre-sang?)</description>
							<scene></scene>
							<shottake></shottake>
							<lognote></lognote>
						</logginginfo>
						<labels>
							<label2>Caribbean</label2>
						</labels>
					</clipitem>
					<transitionitem>
						<start>6554</start>
						<end>6563</end>
						<alignment>center</alignment>
						<cutPointTicks>40642560000</cutPointTicks>
						<rate>
							<timebase>25</timebase>
							<ntsc>FALSE</ntsc>
						</rate>
						<effect>
							<name>Cross Fade (+3dB)</name>
							<effectid>KGAudioTransCrossFade3dB</effectid>
							<effecttype>transition</effecttype>
							<mediatype>audio</mediatype>
							<wipecode>0</wipecode>
							<wipeaccuracy>100</wipeaccuracy>
							<startratio>0</startratio>
							<endratio>1</endratio>
							<reverse>FALSE</reverse>
						</effect>
					</transitionitem>
					<clipitem id="clipitem-188" premiereChannelType="stereo">
						<masterclipid>masterclip-40</masterclipid>
						<name>SAS002112.wav</name>
						<enabled>TRUE</enabled>
						<duration>2100</duration>
						<rate>
							<timebase>25</timebase>
							<ntsc>FALSE</ntsc>
						</rate>
						<start>-1</start>
						<end>-1</end>
						<in>47</in>
						<out>87</out>
						<pproTicksIn>477550080000</pproTicksIn>
						<pproTicksOut>883975680000</pproTicksOut>
						<file id="file-38"/>
						<sourcetrack>
							<mediatype>audio</mediatype>
							<trackindex>2</trackindex>
						</sourcetrack>
							<filter>
								<effect>
									<name>Gain</name>
									<effectid>{61756678, 4761696e, 4b657947}</effectid>
									<effecttype>filter</effecttype>
									<mediatype>audio</mediatype>
									<parameter authoringApp="PremierePro">
										<parameterid>Gain(dB)</parameterid>
										<name>Gain(dB)</name>
										<valuemin>-96</valuemin>
										<valuemax>96</valuemax>
										<value>-6</value>
									</parameter>
								</effect>
							</filter>
						<link>
							<linkclipref>clipitem-135</linkclipref>
							<mediatype>audio</mediatype>
							<trackindex>7</trackindex>
							<clipindex>39</clipindex>
							<groupindex>1</groupindex>
						</link>
						<link>
							<linkclipref>clipitem-188</linkclipref>
							<mediatype>audio</mediatype>
							<trackindex>8</trackindex>
							<clipindex>38</clipindex>
							<groupindex>1</groupindex>
						</link>
						<logginginfo>
							<description>tøyse/stumfilmaktig (resirkuelre-sang?)</description>
							<scene></scene>
							<shottake></shottake>
							<lognote></lognote>
						</logginginfo>
						<labels>
							<label2>Caribbean</label2>
						</labels>
					</clipitem>
					<transitionitem>
						<start>6581</start>
						<end>6594</end>
						<alignment>center</alignment>
						<cutPointTicks>60963840000</cutPointTicks>
						<rate>
							<timebase>25</timebase>
							<ntsc>FALSE</ntsc>
						</rate>
						<effect>
							<name>Cross Fade (+3dB)</name>
							<effectid>KGAudioTransCrossFade3dB</effectid>
							<effecttype>transition</effecttype>
							<mediatype>audio</mediatype>
							<wipecode>0</wipecode>
							<wipeaccuracy>100</wipeaccuracy>
							<startratio>0</startratio>
							<endratio>1</endratio>
							<reverse>FALSE</reverse>
						</effect>
					</transitionitem>
					<clipitem id="clipitem-189" premiereChannelType="stereo">
						<masterclipid>masterclip-40</masterclipid>
						<name>SAS002112.wav</name>
						<enabled>TRUE</enabled>
						<duration>2100</duration>
						<rate>
							<timebase>25</timebase>
							<ntsc>FALSE</ntsc>
						</rate>
						<start>-1</start>
						<end>7038</end>
						<in>74</in>
						<out>531</out>
						<pproTicksIn>751887360000</pproTicksIn>
						<pproTicksOut>5395299840000</pproTicksOut>
						<file id="file-38"/>
						<sourcetrack>
							<mediatype>audio</mediatype>
							<trackindex>2</trackindex>
						</sourcetrack>
							<filter>
								<effect>
									<name>Gain</name>
									<effectid>{61756678, 4761696e, 4b657947}</effectid>
									<effecttype>filter</effecttype>
									<mediatype>audio</mediatype>
									<parameter authoringApp="PremierePro">
										<parameterid>Gain(dB)</parameterid>
										<name>Gain(dB)</name>
										<valuemin>-96</valuemin>
										<valuemax>96</valuemax>
										<value>-15</value>
									</parameter>
								</effect>
							</filter>
						<link>
							<linkclipref>clipitem-136</linkclipref>
							<mediatype>audio</mediatype>
							<trackindex>7</trackindex>
							<clipindex>41</clipindex>
							<groupindex>1</groupindex>
						</link>
						<link>
							<linkclipref>clipitem-189</linkclipref>
							<mediatype>audio</mediatype>
							<trackindex>8</trackindex>
							<clipindex>40</clipindex>
							<groupindex>1</groupindex>
						</link>
						<logginginfo>
							<description>tøyse/stumfilmaktig (resirkuelre-sang?)</description>
							<scene></scene>
							<shottake></shottake>
							<lognote></lognote>
						</logginginfo>
						<labels>
							<label2>Caribbean</label2>
						</labels>
					</clipitem>
					<clipitem id="clipitem-190" premiereChannelType="stereo">
						<masterclipid>masterclip-40</masterclipid>
						<name>SAS002112.wav</name>
						<enabled>TRUE</enabled>
						<duration>2100</duration>
						<rate>
							<timebase>25</timebase>
							<ntsc>FALSE</ntsc>
						</rate>
						<start>7365</start>
						<end>7504</end>
						<in>1305</in>
						<out>1444</out>
						<pproTicksIn>13259635200000</pproTicksIn>
						<pproTicksOut>14671964160000</pproTicksOut>
						<file id="file-38"/>
						<sourcetrack>
							<mediatype>audio</mediatype>
							<trackindex>2</trackindex>
						</sourcetrack>
							<filter>
								<effect>
									<name>Gain</name>
									<effectid>{61756678, 4761696e, 4b657947}</effectid>
									<effecttype>filter</effecttype>
									<mediatype>audio</mediatype>
									<parameter authoringApp="PremierePro">
										<parameterid>Gain(dB)</parameterid>
										<name>Gain(dB)</name>
										<valuemin>-96</valuemin>
										<valuemax>96</valuemax>
										<value>-12</value>
									</parameter>
								</effect>
							</filter>
						<link>
							<linkclipref>clipitem-137</linkclipref>
							<mediatype>audio</mediatype>
							<trackindex>7</trackindex>
							<clipindex>42</clipindex>
							<groupindex>1</groupindex>
						</link>
						<link>
							<linkclipref>clipitem-190</linkclipref>
							<mediatype>audio</mediatype>
							<trackindex>8</trackindex>
							<clipindex>41</clipindex>
							<groupindex>1</groupindex>
						</link>
						<logginginfo>
							<description>tøyse/stumfilmaktig (resirkuelre-sang?)</description>
							<scene></scene>
							<shottake></shottake>
							<lognote></lognote>
						</logginginfo>
						<labels>
							<label2>Caribbean</label2>
						</labels>
					</clipitem>
					<clipitem id="clipitem-191" premiereChannelType="stereo">
						<masterclipid>masterclip-41</masterclipid>
						<name>NONRO184030CD0006 Strengelegen.wav</name>
						<enabled>TRUE</enabled>
						<duration>5895</duration>
						<rate>
							<timebase>25</timebase>
							<ntsc>FALSE</ntsc>
						</rate>
						<start>7898</start>
						<end>-1</end>
						<in>180</in>
						<out>285</out>
						<pproTicksIn>1828915200000</pproTicksIn>
						<pproTicksOut>2895782400000</pproTicksOut>
						<file id="file-39"/>
						<sourcetrack>
							<mediatype>audio</mediatype>
							<trackindex>2</trackindex>
						</sourcetrack>
							<filter>
								<effect>
									<name>Gain</name>
									<effectid>{61756678, 4761696e, 4b657947}</effectid>
									<effecttype>filter</effecttype>
									<mediatype>audio</mediatype>
									<parameter authoringApp="PremierePro">
										<parameterid>Gain(dB)</parameterid>
										<name>Gain(dB)</name>
										<valuemin>-96</valuemin>
										<valuemax>96</valuemax>
										<value>-9</value>
									</parameter>
								</effect>
							</filter>
						<link>
							<linkclipref>clipitem-138</linkclipref>
							<mediatype>audio</mediatype>
							<trackindex>7</trackindex>
							<clipindex>43</clipindex>
							<groupindex>1</groupindex>
						</link>
						<link>
							<linkclipref>clipitem-191</linkclipref>
							<mediatype>audio</mediatype>
							<trackindex>8</trackindex>
							<clipindex>42</clipindex>
							<groupindex>1</groupindex>
						</link>
						<logginginfo>
							<description></description>
							<scene></scene>
							<shottake></shottake>
							<lognote>CD Track 6 archiveNo[184030013]</lognote>
						</logginginfo>
						<labels>
							<label2>Caribbean</label2>
						</labels>
					</clipitem>
					<transitionitem>
						<start>7978</start>
						<end>8003</end>
						<alignment>center</alignment>
						<cutPointTicks>117238968000</cutPointTicks>
						<rate>
							<timebase>25</timebase>
							<ntsc>FALSE</ntsc>
						</rate>
						<effect>
							<name>Cross Fade (+3dB)</name>
							<effectid>KGAudioTransCrossFade3dB</effectid>
							<effecttype>transition</effecttype>
							<mediatype>audio</mediatype>
							<wipecode>0</wipecode>
							<wipeaccuracy>100</wipeaccuracy>
							<startratio>0</startratio>
							<endratio>1</endratio>
							<reverse>FALSE</reverse>
						</effect>
					</transitionitem>
					<clipitem id="clipitem-192" premiereChannelType="stereo">
						<masterclipid>masterclip-41</masterclipid>
						<name>NONRO184030CD0006 Strengelegen.wav</name>
						<enabled>TRUE</enabled>
						<duration>5895</duration>
						<rate>
							<timebase>25</timebase>
							<ntsc>FALSE</ntsc>
						</rate>
						<start>-1</start>
						<end>-1</end>
						<in>260</in>
						<out>469</out>
						<pproTicksIn>2641766400000</pproTicksIn>
						<pproTicksOut>4765340160000</pproTicksOut>
						<file id="file-39"/>
						<sourcetrack>
							<mediatype>audio</mediatype>
							<trackindex>2</trackindex>
						</sourcetrack>
							<filter>
								<effect>
									<name>Gain</name>
									<effectid>{61756678, 4761696e, 4b657947}</effectid>
									<effecttype>filter</effecttype>
									<mediatype>audio</mediatype>
									<parameter authoringApp="PremierePro">
										<parameterid>Gain(dB)</parameterid>
										<name>Gain(dB)</name>
										<valuemin>-96</valuemin>
										<valuemax>96</valuemax>
										<value>-24</value>
									</parameter>
								</effect>
							</filter>
						<link>
							<linkclipref>clipitem-139</linkclipref>
							<mediatype>audio</mediatype>
							<trackindex>7</trackindex>
							<clipindex>45</clipindex>
							<groupindex>1</groupindex>
						</link>
						<link>
							<linkclipref>clipitem-192</linkclipref>
							<mediatype>audio</mediatype>
							<trackindex>8</trackindex>
							<clipindex>44</clipindex>
							<groupindex>1</groupindex>
						</link>
						<logginginfo>
							<description></description>
							<scene></scene>
							<shottake></shottake>
							<lognote>CD Track 6 archiveNo[184030013]</lognote>
						</logginginfo>
						<labels>
							<label2>Caribbean</label2>
						</labels>
					</clipitem>
					<transitionitem>
						<start>8137</start>
						<end>8187</end>
						<alignment>center</alignment>
						<cutPointTicks>234477936000</cutPointTicks>
						<rate>
							<timebase>25</timebase>
							<ntsc>FALSE</ntsc>
						</rate>
						<effect>
							<name>Cross Fade (+3dB)</name>
							<effectid>KGAudioTransCrossFade3dB</effectid>
							<effecttype>transition</effecttype>
							<mediatype>audio</mediatype>
							<wipecode>0</wipecode>
							<wipeaccuracy>100</wipeaccuracy>
							<startratio>0</startratio>
							<endratio>1</endratio>
							<reverse>FALSE</reverse>
						</effect>
					</transitionitem>
					<clipitem id="clipitem-193" premiereChannelType="stereo">
						<masterclipid>masterclip-41</masterclipid>
						<name>NONRO184030CD0006 Strengelegen.wav</name>
						<enabled>TRUE</enabled>
						<duration>5895</duration>
						<rate>
							<timebase>25</timebase>
							<ntsc>FALSE</ntsc>
						</rate>
						<start>-1</start>
						<end>-1</end>
						<in>419</in>
						<out>502</out>
						<pproTicksIn>4257308160000</pproTicksIn>
						<pproTicksOut>5100641280000</pproTicksOut>
						<file id="file-39"/>
						<sourcetrack>
							<mediatype>audio</mediatype>
							<trackindex>2</trackindex>
						</sourcetrack>
							<filter>
								<effect>
									<name>Gain</name>
									<effectid>{61756678, 4761696e, 4b657947}</effectid>
									<effecttype>filter</effecttype>
									<mediatype>audio</mediatype>
									<parameter authoringApp="PremierePro">
										<parameterid>Gain(dB)</parameterid>
										<name>Gain(dB)</name>
										<valuemin>-96</valuemin>
										<valuemax>96</valuemax>
										<value>-27</value>
									</parameter>
								</effect>
							</filter>
						<link>
							<linkclipref>clipitem-140</linkclipref>
							<mediatype>audio</mediatype>
							<trackindex>7</trackindex>
							<clipindex>47</clipindex>
							<groupindex>1</groupindex>
						</link>
						<link>
							<linkclipref>clipitem-193</linkclipref>
							<mediatype>audio</mediatype>
							<trackindex>8</trackindex>
							<clipindex>46</clipindex>
							<groupindex>1</groupindex>
						</link>
						<logginginfo>
							<description></description>
							<scene></scene>
							<shottake></shottake>
							<lognote>CD Track 6 archiveNo[184030013]</lognote>
						</logginginfo>
						<labels>
							<label2>Caribbean</label2>
						</labels>
					</clipitem>
					<transitionitem>
						<start>8205</start>
						<end>8220</end>
						<alignment>end-black</alignment>
						<cutPointTicks>152409600000</cutPointTicks>
						<rate>
							<timebase>25</timebase>
							<ntsc>FALSE</ntsc>
						</rate>
						<effect>
							<name>Cross Fade (+3dB)</name>
							<effectid>KGAudioTransCrossFade3dB</effectid>
							<effecttype>transition</effecttype>
							<mediatype>audio</mediatype>
							<wipecode>0</wipecode>
							<wipeaccuracy>100</wipeaccuracy>
							<startratio>0</startratio>
							<endratio>1</endratio>
							<reverse>FALSE</reverse>
						</effect>
					</transitionitem>
					<clipitem id="clipitem-194" premiereChannelType="stereo">
						<masterclipid>masterclip-42</masterclipid>
						<name>SAS002114.wav</name>
						<enabled>TRUE</enabled>
						<duration>2325</duration>
						<rate>
							<timebase>25</timebase>
							<ntsc>FALSE</ntsc>
						</rate>
						<start>8910</start>
						<end>9149</end>
						<in>0</in>
						<out>239</out>
						<pproTicksIn>0</pproTicksIn>
						<pproTicksOut>2428392960000</pproTicksOut>
						<file id="file-40"/>
						<sourcetrack>
							<mediatype>audio</mediatype>
							<trackindex>2</trackindex>
						</sourcetrack>
							<filter>
								<effect>
									<name>Gain</name>
									<effectid>{61756678, 4761696e, 4b657947}</effectid>
									<effecttype>filter</effecttype>
									<mediatype>audio</mediatype>
									<parameter authoringApp="PremierePro">
										<parameterid>Gain(dB)</parameterid>
										<name>Gain(dB)</name>
										<valuemin>-96</valuemin>
										<valuemax>96</valuemax>
										<value>-9</value>
									</parameter>
								</effect>
							</filter>
						<link>
							<linkclipref>clipitem-141</linkclipref>
							<mediatype>audio</mediatype>
							<trackindex>7</trackindex>
							<clipindex>49</clipindex>
							<groupindex>1</groupindex>
						</link>
						<link>
							<linkclipref>clipitem-194</linkclipref>
							<mediatype>audio</mediatype>
							<trackindex>8</trackindex>
							<clipindex>48</clipindex>
							<groupindex>1</groupindex>
						</link>
						<logginginfo>
							<description>skip and hop, klumsing </description>
							<scene></scene>
							<shottake></shottake>
							<lognote></lognote>
						</logginginfo>
						<labels>
							<label2>Caribbean</label2>
						</labels>
					</clipitem>
					<transitionitem>
						<start>9154</start>
						<end>9167</end>
						<alignment>start-black</alignment>
						<cutPointTicks>0</cutPointTicks>
						<rate>
							<timebase>25</timebase>
							<ntsc>FALSE</ntsc>
						</rate>
						<effect>
							<name>Cross Fade (+3dB)</name>
							<effectid>KGAudioTransCrossFade3dB</effectid>
							<effecttype>transition</effecttype>
							<mediatype>audio</mediatype>
							<wipecode>0</wipecode>
							<wipeaccuracy>100</wipeaccuracy>
							<startratio>0</startratio>
							<endratio>1</endratio>
							<reverse>FALSE</reverse>
						</effect>
					</transitionitem>
					<clipitem id="clipitem-195" premiereChannelType="stereo">
						<masterclipid>masterclip-42</masterclipid>
						<name>SAS002114.wav</name>
						<enabled>TRUE</enabled>
						<duration>2325</duration>
						<rate>
							<timebase>25</timebase>
							<ntsc>FALSE</ntsc>
						</rate>
						<start>-1</start>
						<end>-1</end>
						<in>1448</in>
						<out>1478</out>
						<pproTicksIn>14712606720000</pproTicksIn>
						<pproTicksOut>15017425920000</pproTicksOut>
						<file id="file-40"/>
						<sourcetrack>
							<mediatype>audio</mediatype>
							<trackindex>2</trackindex>
						</sourcetrack>
							<filter>
								<effect>
									<name>Gain</name>
									<effectid>{61756678, 4761696e, 4b657947}</effectid>
									<effecttype>filter</effecttype>
									<mediatype>audio</mediatype>
									<parameter authoringApp="PremierePro">
										<parameterid>Gain(dB)</parameterid>
										<name>Gain(dB)</name>
										<valuemin>-96</valuemin>
										<valuemax>96</valuemax>
										<value>-9</value>
									</parameter>
								</effect>
							</filter>
						<link>
							<linkclipref>clipitem-142</linkclipref>
							<mediatype>audio</mediatype>
							<trackindex>7</trackindex>
							<clipindex>51</clipindex>
							<groupindex>1</groupindex>
						</link>
						<link>
							<linkclipref>clipitem-195</linkclipref>
							<mediatype>audio</mediatype>
							<trackindex>8</trackindex>
							<clipindex>50</clipindex>
							<groupindex>1</groupindex>
						</link>
						<logginginfo>
							<description>skip and hop, klumsing </description>
							<scene></scene>
							<shottake></shottake>
							<lognote></lognote>
						</logginginfo>
						<labels>
							<label2>Caribbean</label2>
						</labels>
					</clipitem>
					<transitionitem>
						<start>9171</start>
						<end>9184</end>
						<alignment>center</alignment>
						<cutPointTicks>60963840000</cutPointTicks>
						<rate>
							<timebase>25</timebase>
							<ntsc>FALSE</ntsc>
						</rate>
						<effect>
							<name>Cross Fade (+3dB)</name>
							<effectid>KGAudioTransCrossFade3dB</effectid>
							<effecttype>transition</effecttype>
							<mediatype>audio</mediatype>
							<wipecode>0</wipecode>
							<wipeaccuracy>100</wipeaccuracy>
							<startratio>0</startratio>
							<endratio>1</endratio>
							<reverse>FALSE</reverse>
						</effect>
					</transitionitem>
					<clipitem id="clipitem-196" premiereChannelType="stereo">
						<masterclipid>masterclip-42</masterclipid>
						<name>SAS002114.wav</name>
						<enabled>TRUE</enabled>
						<duration>2325</duration>
						<rate>
							<timebase>25</timebase>
							<ntsc>FALSE</ntsc>
						</rate>
						<start>-1</start>
						<end>-1</end>
						<in>1465</in>
						<out>1605</out>
						<pproTicksIn>14885337600000</pproTicksIn>
						<pproTicksOut>16307827200000</pproTicksOut>
						<file id="file-40"/>
						<sourcetrack>
							<mediatype>audio</mediatype>
							<trackindex>2</trackindex>
						</sourcetrack>
							<filter>
								<effect>
									<name>Gain</name>
									<effectid>{61756678, 4761696e, 4b657947}</effectid>
									<effecttype>filter</effecttype>
									<mediatype>audio</mediatype>
									<parameter authoringApp="PremierePro">
										<parameterid>Gain(dB)</parameterid>
										<name>Gain(dB)</name>
										<valuemin>-96</valuemin>
										<valuemax>96</valuemax>
										<value>-15</value>
									</parameter>
								</effect>
							</filter>
						<link>
							<linkclipref>clipitem-143</linkclipref>
							<mediatype>audio</mediatype>
							<trackindex>7</trackindex>
							<clipindex>53</clipindex>
							<groupindex>1</groupindex>
						</link>
						<link>
							<linkclipref>clipitem-196</linkclipref>
							<mediatype>audio</mediatype>
							<trackindex>8</trackindex>
							<clipindex>52</clipindex>
							<groupindex>1</groupindex>
						</link>
						<logginginfo>
							<description>skip and hop, klumsing </description>
							<scene></scene>
							<shottake></shottake>
							<lognote></lognote>
						</logginginfo>
						<labels>
							<label2>Caribbean</label2>
						</labels>
					</clipitem>
					<transitionitem>
						<start>9298</start>
						<end>9311</end>
						<alignment>center</alignment>
						<cutPointTicks>60963840000</cutPointTicks>
						<rate>
							<timebase>25</timebase>
							<ntsc>FALSE</ntsc>
						</rate>
						<effect>
							<name>Cross Fade (+3dB)</name>
							<effectid>KGAudioTransCrossFade3dB</effectid>
							<effecttype>transition</effecttype>
							<mediatype>audio</mediatype>
							<wipecode>0</wipecode>
							<wipeaccuracy>100</wipeaccuracy>
							<startratio>0</startratio>
							<endratio>1</endratio>
							<reverse>FALSE</reverse>
						</effect>
					</transitionitem>
					<clipitem id="clipitem-197" premiereChannelType="stereo">
						<masterclipid>masterclip-42</masterclipid>
						<name>SAS002114.wav</name>
						<enabled>TRUE</enabled>
						<duration>2325</duration>
						<rate>
							<timebase>25</timebase>
							<ntsc>FALSE</ntsc>
						</rate>
						<start>-1</start>
						<end>9401</end>
						<in>1592</in>
						<out>1695</out>
						<pproTicksIn>16175738880000</pproTicksIn>
						<pproTicksOut>17222284800000</pproTicksOut>
						<file id="file-40"/>
						<sourcetrack>
							<mediatype>audio</mediatype>
							<trackindex>2</trackindex>
						</sourcetrack>
							<filter>
								<effect>
									<name>Gain</name>
									<effectid>{61756678, 4761696e, 4b657947}</effectid>
									<effecttype>filter</effecttype>
									<mediatype>audio</mediatype>
									<parameter authoringApp="PremierePro">
										<parameterid>Gain(dB)</parameterid>
										<name>Gain(dB)</name>
										<valuemin>-96</valuemin>
										<valuemax>96</valuemax>
										<value>-9</value>
									</parameter>
								</effect>
							</filter>
						<link>
							<linkclipref>clipitem-144</linkclipref>
							<mediatype>audio</mediatype>
							<trackindex>7</trackindex>
							<clipindex>55</clipindex>
							<groupindex>1</groupindex>
						</link>
						<link>
							<linkclipref>clipitem-197</linkclipref>
							<mediatype>audio</mediatype>
							<trackindex>8</trackindex>
							<clipindex>54</clipindex>
							<groupindex>1</groupindex>
						</link>
						<logginginfo>
							<description>skip and hop, klumsing </description>
							<scene></scene>
							<shottake></shottake>
							<lognote></lognote>
						</logginginfo>
						<labels>
							<label2>Caribbean</label2>
						</labels>
					</clipitem>
					<transitionitem>
						<start>10030</start>
						<end>10043</end>
						<alignment>start-black</alignment>
						<cutPointTicks>0</cutPointTicks>
						<rate>
							<timebase>25</timebase>
							<ntsc>FALSE</ntsc>
						</rate>
						<effect>
							<name>Cross Fade (+3dB)</name>
							<effectid>KGAudioTransCrossFade3dB</effectid>
							<effecttype>transition</effecttype>
							<mediatype>audio</mediatype>
							<wipecode>0</wipecode>
							<wipeaccuracy>100</wipeaccuracy>
							<startratio>0</startratio>
							<endratio>1</endratio>
							<reverse>FALSE</reverse>
						</effect>
					</transitionitem>
					<clipitem id="clipitem-198" premiereChannelType="stereo">
						<masterclipid>masterclip-43</masterclipid>
						<name>SAS002105.wav</name>
						<enabled>TRUE</enabled>
						<duration>4050</duration>
						<rate>
							<timebase>25</timebase>
							<ntsc>FALSE</ntsc>
						</rate>
						<start>-1</start>
						<end>-1</end>
						<in>2495</in>
						<out>2759</out>
						<pproTicksIn>25350796800000</pproTicksIn>
						<pproTicksOut>28033205760000</pproTicksOut>
						<file id="file-41"/>
						<sourcetrack>
							<mediatype>audio</mediatype>
							<trackindex>2</trackindex>
						</sourcetrack>
							<filter>
								<effect>
									<name>Gain</name>
									<effectid>{61756678, 4761696e, 4b657947}</effectid>
									<effecttype>filter</effecttype>
									<mediatype>audio</mediatype>
									<parameter authoringApp="PremierePro">
										<parameterid>Gain(dB)</parameterid>
										<name>Gain(dB)</name>
										<valuemin>-96</valuemin>
										<valuemax>96</valuemax>
										<value>-6</value>
									</parameter>
								</effect>
							</filter>
						<link>
							<linkclipref>clipitem-145</linkclipref>
							<mediatype>audio</mediatype>
							<trackindex>7</trackindex>
							<clipindex>57</clipindex>
							<groupindex>1</groupindex>
						</link>
						<link>
							<linkclipref>clipitem-198</linkclipref>
							<mediatype>audio</mediatype>
							<trackindex>8</trackindex>
							<clipindex>56</clipindex>
							<groupindex>1</groupindex>
						</link>
						<logginginfo>
							<description>spilledåse-aktig, barne/nattasang</description>
							<scene></scene>
							<shottake></shottake>
							<lognote></lognote>
						</logginginfo>
						<labels>
							<label2>Caribbean</label2>
						</labels>
					</clipitem>
					<transitionitem>
						<start>10194</start>
						<end>10294</end>
						<alignment>end-black</alignment>
						<cutPointTicks>1016064000000</cutPointTicks>
						<rate>
							<timebase>25</timebase>
							<ntsc>FALSE</ntsc>
						</rate>
						<effect>
							<name>Cross Fade (+3dB)</name>
							<effectid>KGAudioTransCrossFade3dB</effectid>
							<effecttype>transition</effecttype>
							<mediatype>audio</mediatype>
							<wipecode>0</wipecode>
							<wipeaccuracy>100</wipeaccuracy>
							<startratio>0</startratio>
							<endratio>1</endratio>
							<reverse>FALSE</reverse>
						</effect>
					</transitionitem>
					<transitionitem>
						<start>10381</start>
						<end>10394</end>
						<alignment>start-black</alignment>
						<cutPointTicks>0</cutPointTicks>
						<rate>
							<timebase>25</timebase>
							<ntsc>FALSE</ntsc>
						</rate>
						<effect>
							<name>Cross Fade (+3dB)</name>
							<effectid>KGAudioTransCrossFade3dB</effectid>
							<effecttype>transition</effecttype>
							<mediatype>audio</mediatype>
							<wipecode>0</wipecode>
							<wipeaccuracy>100</wipeaccuracy>
							<startratio>0</startratio>
							<endratio>1</endratio>
							<reverse>FALSE</reverse>
						</effect>
					</transitionitem>
					<clipitem id="clipitem-199" premiereChannelType="stereo">
						<masterclipid>masterclip-43</masterclipid>
						<name>SAS002105.wav</name>
						<enabled>TRUE</enabled>
						<duration>4050</duration>
						<rate>
							<timebase>25</timebase>
							<ntsc>FALSE</ntsc>
						</rate>
						<start>-1</start>
						<end>-1</end>
						<in>1039</in>
						<out>1085</out>
						<pproTicksIn>10556904960000</pproTicksIn>
						<pproTicksOut>11024294400000</pproTicksOut>
						<file id="file-41"/>
						<sourcetrack>
							<mediatype>audio</mediatype>
							<trackindex>2</trackindex>
						</sourcetrack>
							<filter>
								<effect>
									<name>Gain</name>
									<effectid>{61756678, 4761696e, 4b657947}</effectid>
									<effecttype>filter</effecttype>
									<mediatype>audio</mediatype>
									<parameter authoringApp="PremierePro">
										<parameterid>Gain(dB)</parameterid>
										<name>Gain(dB)</name>
										<valuemin>-96</valuemin>
										<valuemax>96</valuemax>
										<value>-9</value>
									</parameter>
								</effect>
							</filter>
						<link>
							<linkclipref>clipitem-146</linkclipref>
							<mediatype>audio</mediatype>
							<trackindex>7</trackindex>
							<clipindex>60</clipindex>
							<groupindex>1</groupindex>
						</link>
						<link>
							<linkclipref>clipitem-199</linkclipref>
							<mediatype>audio</mediatype>
							<trackindex>8</trackindex>
							<clipindex>59</clipindex>
							<groupindex>1</groupindex>
						</link>
						<logginginfo>
							<description>spilledåse-aktig, barne/nattasang</description>
							<scene></scene>
							<shottake></shottake>
							<lognote></lognote>
						</logginginfo>
						<labels>
							<label2>Caribbean</label2>
						</labels>
					</clipitem>
					<transitionitem>
						<start>10414</start>
						<end>10427</end>
						<alignment>center</alignment>
						<cutPointTicks>60963840000</cutPointTicks>
						<rate>
							<timebase>25</timebase>
							<ntsc>FALSE</ntsc>
						</rate>
						<effect>
							<name>Cross Fade (+3dB)</name>
							<effectid>KGAudioTransCrossFade3dB</effectid>
							<effecttype>transition</effecttype>
							<mediatype>audio</mediatype>
							<wipecode>0</wipecode>
							<wipeaccuracy>100</wipeaccuracy>
							<startratio>0</startratio>
							<endratio>1</endratio>
							<reverse>FALSE</reverse>
						</effect>
					</transitionitem>
					<clipitem id="clipitem-200" premiereChannelType="stereo">
						<masterclipid>masterclip-43</masterclipid>
						<name>SAS002105.wav</name>
						<enabled>TRUE</enabled>
						<duration>4050</duration>
						<rate>
							<timebase>25</timebase>
							<ntsc>FALSE</ntsc>
						</rate>
						<start>-1</start>
						<end>-1</end>
						<in>1072</in>
						<out>1459</out>
						<pproTicksIn>10892206080000</pproTicksIn>
						<pproTicksOut>14824373760000</pproTicksOut>
						<file id="file-41"/>
						<sourcetrack>
							<mediatype>audio</mediatype>
							<trackindex>2</trackindex>
						</sourcetrack>
						<link>
							<linkclipref>clipitem-147</linkclipref>
							<mediatype>audio</mediatype>
							<trackindex>7</trackindex>
							<clipindex>62</clipindex>
							<groupindex>1</groupindex>
						</link>
						<link>
							<linkclipref>clipitem-200</linkclipref>
							<mediatype>audio</mediatype>
							<trackindex>8</trackindex>
							<clipindex>61</clipindex>
							<groupindex>1</groupindex>
						</link>
						<logginginfo>
							<description>spilledåse-aktig, barne/nattasang</description>
							<scene></scene>
							<shottake></shottake>
							<lognote></lognote>
						</logginginfo>
						<labels>
							<label2>Caribbean</label2>
						</labels>
					</clipitem>
					<transitionitem>
						<start>10758</start>
						<end>10801</end>
						<alignment>end-black</alignment>
						<cutPointTicks>436907520000</cutPointTicks>
						<rate>
							<timebase>25</timebase>
							<ntsc>FALSE</ntsc>
						</rate>
						<effect>
							<name>Cross Fade (+3dB)</name>
							<effectid>KGAudioTransCrossFade3dB</effectid>
							<effecttype>transition</effecttype>
							<mediatype>audio</mediatype>
							<wipecode>0</wipecode>
							<wipeaccuracy>100</wipeaccuracy>
							<startratio>0</startratio>
							<endratio>1</endratio>
							<reverse>FALSE</reverse>
						</effect>
					</transitionitem>
					<transitionitem>
						<start>14564</start>
						<end>14577</end>
						<alignment>start-black</alignment>
						<cutPointTicks>0</cutPointTicks>
						<rate>
							<timebase>25</timebase>
							<ntsc>FALSE</ntsc>
						</rate>
						<effect>
							<name>Cross Fade (+3dB)</name>
							<effectid>KGAudioTransCrossFade3dB</effectid>
							<effecttype>transition</effecttype>
							<mediatype>audio</mediatype>
							<wipecode>0</wipecode>
							<wipeaccuracy>100</wipeaccuracy>
							<startratio>0</startratio>
							<endratio>1</endratio>
							<reverse>FALSE</reverse>
						</effect>
					</transitionitem>
					<clipitem id="clipitem-201" premiereChannelType="stereo">
						<masterclipid>masterclip-44</masterclipid>
						<name>KT_318_1_Sumo_Chant_Constantinou_Frazer_926859.wav</name>
						<enabled>TRUE</enabled>
						<duration>3627</duration>
						<rate>
							<timebase>25</timebase>
							<ntsc>FALSE</ntsc>
						</rate>
						<start>-1</start>
						<end>-1</end>
						<in>1763</in>
						<out>1803</out>
						<pproTicksIn>17913208320000</pproTicksIn>
						<pproTicksOut>18319633920000</pproTicksOut>
						<file id="file-42"/>
						<sourcetrack>
							<mediatype>audio</mediatype>
							<trackindex>2</trackindex>
						</sourcetrack>
							<filter>
								<effect>
									<name>Gain</name>
									<effectid>{61756678, 4761696e, 4b657947}</effectid>
									<effecttype>filter</effecttype>
									<mediatype>audio</mediatype>
									<parameter authoringApp="PremierePro">
										<parameterid>Gain(dB)</parameterid>
										<name>Gain(dB)</name>
										<valuemin>-96</valuemin>
										<valuemax>96</valuemax>
										<value>-9</value>
									</parameter>
								</effect>
							</filter>
						<link>
							<linkclipref>clipitem-148</linkclipref>
							<mediatype>audio</mediatype>
							<trackindex>7</trackindex>
							<clipindex>65</clipindex>
							<groupindex>1</groupindex>
						</link>
						<link>
							<linkclipref>clipitem-201</linkclipref>
							<mediatype>audio</mediatype>
							<trackindex>8</trackindex>
							<clipindex>64</clipindex>
							<groupindex>1</groupindex>
						</link>
						<logginginfo>
							<description></description>
							<scene></scene>
							<shottake></shottake>
							<lognote></lognote>
						</logginginfo>
						<labels>
							<label2>Caribbean</label2>
						</labels>
					</clipitem>
					<transitionitem>
						<start>14591</start>
						<end>14604</end>
						<alignment>center</alignment>
						<cutPointTicks>60963840000</cutPointTicks>
						<rate>
							<timebase>25</timebase>
							<ntsc>FALSE</ntsc>
						</rate>
						<effect>
							<name>Cross Fade (+3dB)</name>
							<effectid>KGAudioTransCrossFade3dB</effectid>
							<effecttype>transition</effecttype>
							<mediatype>audio</mediatype>
							<wipecode>0</wipecode>
							<wipeaccuracy>100</wipeaccuracy>
							<startratio>0</startratio>
							<endratio>1</endratio>
							<reverse>FALSE</reverse>
						</effect>
					</transitionitem>
					<clipitem id="clipitem-202" premiereChannelType="stereo">
						<masterclipid>masterclip-44</masterclipid>
						<name>KT_318_1_Sumo_Chant_Constantinou_Frazer_926859.wav</name>
						<enabled>TRUE</enabled>
						<duration>3627</duration>
						<rate>
							<timebase>25</timebase>
							<ntsc>FALSE</ntsc>
						</rate>
						<start>-1</start>
						<end>-1</end>
						<in>1790</in>
						<out>1826</out>
						<pproTicksIn>18187545600000</pproTicksIn>
						<pproTicksOut>18553328640000</pproTicksOut>
						<file id="file-42"/>
						<sourcetrack>
							<mediatype>audio</mediatype>
							<trackindex>2</trackindex>
						</sourcetrack>
							<filter>
								<effect>
									<name>Gain</name>
									<effectid>{61756678, 4761696e, 4b657947}</effectid>
									<effecttype>filter</effecttype>
									<mediatype>audio</mediatype>
									<parameter authoringApp="PremierePro">
										<parameterid>Gain(dB)</parameterid>
										<name>Gain(dB)</name>
										<valuemin>-96</valuemin>
										<valuemax>96</valuemax>
										<value>-15</value>
									</parameter>
								</effect>
							</filter>
						<link>
							<linkclipref>clipitem-149</linkclipref>
							<mediatype>audio</mediatype>
							<trackindex>7</trackindex>
							<clipindex>67</clipindex>
							<groupindex>1</groupindex>
						</link>
						<link>
							<linkclipref>clipitem-202</linkclipref>
							<mediatype>audio</mediatype>
							<trackindex>8</trackindex>
							<clipindex>66</clipindex>
							<groupindex>1</groupindex>
						</link>
						<logginginfo>
							<description></description>
							<scene></scene>
							<shottake></shottake>
							<lognote></lognote>
						</logginginfo>
						<labels>
							<label2>Caribbean</label2>
						</labels>
					</clipitem>
					<transitionitem>
						<start>14614</start>
						<end>14627</end>
						<alignment>center</alignment>
						<cutPointTicks>60963840000</cutPointTicks>
						<rate>
							<timebase>25</timebase>
							<ntsc>FALSE</ntsc>
						</rate>
						<effect>
							<name>Cross Fade (+3dB)</name>
							<effectid>KGAudioTransCrossFade3dB</effectid>
							<effecttype>transition</effecttype>
							<mediatype>audio</mediatype>
							<wipecode>0</wipecode>
							<wipeaccuracy>100</wipeaccuracy>
							<startratio>0</startratio>
							<endratio>1</endratio>
							<reverse>FALSE</reverse>
						</effect>
					</transitionitem>
					<clipitem id="clipitem-203" premiereChannelType="stereo">
						<masterclipid>masterclip-44</masterclipid>
						<name>KT_318_1_Sumo_Chant_Constantinou_Frazer_926859.wav</name>
						<enabled>TRUE</enabled>
						<duration>3627</duration>
						<rate>
							<timebase>25</timebase>
							<ntsc>FALSE</ntsc>
						</rate>
						<start>-1</start>
						<end>-1</end>
						<in>1813</in>
						<out>1981</out>
						<pproTicksIn>18421240320000</pproTicksIn>
						<pproTicksOut>20128227840000</pproTicksOut>
						<file id="file-42"/>
						<sourcetrack>
							<mediatype>audio</mediatype>
							<trackindex>2</trackindex>
						</sourcetrack>
							<filter>
								<effect>
									<name>Gain</name>
									<effectid>{61756678, 4761696e, 4b657947}</effectid>
									<effecttype>filter</effecttype>
									<mediatype>audio</mediatype>
									<parameter authoringApp="PremierePro">
										<parameterid>Gain(dB)</parameterid>
										<name>Gain(dB)</name>
										<valuemin>-96</valuemin>
										<valuemax>96</valuemax>
										<value>-21</value>
									</parameter>
								</effect>
							</filter>
						<link>
							<linkclipref>clipitem-150</linkclipref>
							<mediatype>audio</mediatype>
							<trackindex>7</trackindex>
							<clipindex>69</clipindex>
							<groupindex>1</groupindex>
						</link>
						<link>
							<linkclipref>clipitem-203</linkclipref>
							<mediatype>audio</mediatype>
							<trackindex>8</trackindex>
							<clipindex>68</clipindex>
							<groupindex>1</groupindex>
						</link>
						<logginginfo>
							<description></description>
							<scene></scene>
							<shottake></shottake>
							<lognote></lognote>
						</logginginfo>
						<labels>
							<label2>Caribbean</label2>
						</labels>
					</clipitem>
					<transitionitem>
						<start>14727</start>
						<end>14782</end>
						<alignment>end-black</alignment>
						<cutPointTicks>558835200000</cutPointTicks>
						<rate>
							<timebase>25</timebase>
							<ntsc>FALSE</ntsc>
						</rate>
						<effect>
							<name>Cross Fade (+3dB)</name>
							<effectid>KGAudioTransCrossFade3dB</effectid>
							<effecttype>transition</effecttype>
							<mediatype>audio</mediatype>
							<wipecode>0</wipecode>
							<wipeaccuracy>100</wipeaccuracy>
							<startratio>0</startratio>
							<endratio>1</endratio>
							<reverse>FALSE</reverse>
						</effect>
					</transitionitem>
					<transitionitem>
						<start>14956</start>
						<end>14969</end>
						<alignment>start-black</alignment>
						<cutPointTicks>0</cutPointTicks>
						<rate>
							<timebase>25</timebase>
							<ntsc>FALSE</ntsc>
						</rate>
						<effect>
							<name>Cross Fade (+3dB)</name>
							<effectid>KGAudioTransCrossFade3dB</effectid>
							<effecttype>transition</effecttype>
							<mediatype>audio</mediatype>
							<wipecode>0</wipecode>
							<wipeaccuracy>100</wipeaccuracy>
							<startratio>0</startratio>
							<endratio>1</endratio>
							<reverse>FALSE</reverse>
						</effect>
					</transitionitem>
					<clipitem id="clipitem-204" premiereChannelType="stereo">
						<masterclipid>masterclip-45</masterclipid>
						<name>ST_17_31_A_Slice_Of_Life_Hart_Orvarsson_Stern_756197.wav</name>
						<enabled>TRUE</enabled>
						<duration>4290</duration>
						<rate>
							<timebase>25</timebase>
							<ntsc>FALSE</ntsc>
						</rate>
						<start>-1</start>
						<end>15375</end>
						<in>0</in>
						<out>419</out>
						<pproTicksIn>0</pproTicksIn>
						<pproTicksOut>4257308160000</pproTicksOut>
						<file id="file-43"/>
						<sourcetrack>
							<mediatype>audio</mediatype>
							<trackindex>2</trackindex>
						</sourcetrack>
							<filter>
								<effect>
									<name>Audio Levels</name>
									<effectid>audiolevels</effectid>
									<effectcategory>audiolevels</effectcategory>
									<effecttype>audiolevels</effecttype>
									<mediatype>audio</mediatype>
									<parameter authoringApp="PremierePro">
										<parameterid>level</parameterid>
										<name>Level</name>
										<valuemin>0</valuemin>
										<valuemax>3.98109</valuemax>
										<value>0</value>
										<keyframe>
											<when>270</when>
											<value>0.0886782</value>
										</keyframe>
										<keyframe>
											<when>385</when>
											<value>0</value>
										</keyframe>
										<keyframe>
											<when>444</when>
											<value>0</value>
										</keyframe>
									</parameter>
								</effect>
							</filter>
						<link>
							<linkclipref>clipitem-151</linkclipref>
							<mediatype>audio</mediatype>
							<trackindex>7</trackindex>
							<clipindex>72</clipindex>
							<groupindex>1</groupindex>
						</link>
						<link>
							<linkclipref>clipitem-204</linkclipref>
							<mediatype>audio</mediatype>
							<trackindex>8</trackindex>
							<clipindex>71</clipindex>
							<groupindex>1</groupindex>
						</link>
						<logginginfo>
							<description></description>
							<scene></scene>
							<shottake></shottake>
							<lognote></lognote>
						</logginginfo>
						<labels>
							<label2>Caribbean</label2>
						</labels>
					</clipitem>
					<clipitem id="clipitem-205" premiereChannelType="stereo">
						<masterclipid>masterclip-46</masterclipid>
						<name>BER_1246_24_Games_Show_Sphere_01_Kreuzer_836137.wav</name>
						<enabled>TRUE</enabled>
						<duration>5187</duration>
						<rate>
							<timebase>25</timebase>
							<ntsc>FALSE</ntsc>
						</rate>
						<start>15375</start>
						<end>-1</end>
						<in>0</in>
						<out>437</out>
						<pproTicksIn>0</pproTicksIn>
						<pproTicksOut>4440199680000</pproTicksOut>
						<file id="file-44"/>
						<sourcetrack>
							<mediatype>audio</mediatype>
							<trackindex>2</trackindex>
						</sourcetrack>
							<filter>
								<effect>
									<name>Audio Levels</name>
									<effectid>audiolevels</effectid>
									<effectcategory>audiolevels</effectcategory>
									<effecttype>audiolevels</effecttype>
									<mediatype>audio</mediatype>
									<parameter authoringApp="PremierePro">
										<parameterid>level</parameterid>
										<name>Level</name>
										<valuemin>0</valuemin>
										<valuemax>3.98109</valuemax>
										<value>0</value>
										<keyframe>
											<when>910</when>
											<value>0.155187</value>
										</keyframe>
										<keyframe>
											<when>975</when>
											<value>0</value>
										</keyframe>
									</parameter>
								</effect>
							</filter>
						<link>
							<linkclipref>clipitem-152</linkclipref>
							<mediatype>audio</mediatype>
							<trackindex>7</trackindex>
							<clipindex>73</clipindex>
							<groupindex>1</groupindex>
						</link>
						<link>
							<linkclipref>clipitem-205</linkclipref>
							<mediatype>audio</mediatype>
							<trackindex>8</trackindex>
							<clipindex>72</clipindex>
							<groupindex>1</groupindex>
						</link>
						<logginginfo>
							<description></description>
							<scene></scene>
							<shottake></shottake>
							<lognote></lognote>
						</logginginfo>
						<labels>
							<label2>Caribbean</label2>
						</labels>
					</clipitem>
					<transitionitem>
						<start>15753</start>
						<end>15812</end>
						<alignment>end-black</alignment>
						<cutPointTicks>599477760000</cutPointTicks>
						<rate>
							<timebase>25</timebase>
							<ntsc>FALSE</ntsc>
						</rate>
						<effect>
							<name>Cross Fade (+3dB)</name>
							<effectid>KGAudioTransCrossFade3dB</effectid>
							<effecttype>transition</effecttype>
							<mediatype>audio</mediatype>
							<wipecode>0</wipecode>
							<wipeaccuracy>100</wipeaccuracy>
							<startratio>0</startratio>
							<endratio>1</endratio>
							<reverse>FALSE</reverse>
						</effect>
					</transitionitem>
					<clipitem id="clipitem-206" premiereChannelType="stereo">
						<masterclipid>masterclip-47</masterclipid>
						<name>ATMOS_291_17_Judging_Tension_Pemberton_656153.wav</name>
						<enabled>TRUE</enabled>
						<duration>2842</duration>
						<rate>
							<timebase>25</timebase>
							<ntsc>FALSE</ntsc>
						</rate>
						<start>16331</start>
						<end>17729</end>
						<in>0</in>
						<out>1398</out>
						<pproTicksIn>0</pproTicksIn>
						<pproTicksOut>14204574720000</pproTicksOut>
						<file id="file-45"/>
						<sourcetrack>
							<mediatype>audio</mediatype>
							<trackindex>2</trackindex>
						</sourcetrack>
							<filter>
								<effect>
									<name>Audio Levels</name>
									<effectid>audiolevels</effectid>
									<effectcategory>audiolevels</effectcategory>
									<effecttype>audiolevels</effecttype>
									<mediatype>audio</mediatype>
									<parameter authoringApp="PremierePro">
										<parameterid>level</parameterid>
										<name>Level</name>
										<valuemin>0</valuemin>
										<valuemax>3.98109</valuemax>
										<value>0</value>
										<keyframe>
											<when>1205</when>
											<value>0.199526</value>
										</keyframe>
										<keyframe>
											<when>1310</when>
											<value>0</value>
										</keyframe>
									</parameter>
								</effect>
							</filter>
						<link>
							<linkclipref>clipitem-153</linkclipref>
							<mediatype>audio</mediatype>
							<trackindex>7</trackindex>
							<clipindex>75</clipindex>
							<groupindex>1</groupindex>
						</link>
						<link>
							<linkclipref>clipitem-206</linkclipref>
							<mediatype>audio</mediatype>
							<trackindex>8</trackindex>
							<clipindex>74</clipindex>
							<groupindex>1</groupindex>
						</link>
						<logginginfo>
							<description></description>
							<scene></scene>
							<shottake></shottake>
							<lognote></lognote>
						</logginginfo>
						<labels>
							<label2>Caribbean</label2>
						</labels>
					</clipitem>
					<clipitem id="clipitem-207" premiereChannelType="stereo">
						<masterclipid>masterclip-48</masterclipid>
						<name>KOM_2033_19_Injury_Pilloix_Wendling_840782.wav</name>
						<enabled>TRUE</enabled>
						<duration>1907</duration>
						<rate>
							<timebase>25</timebase>
							<ntsc>FALSE</ntsc>
						</rate>
						<start>17809</start>
						<end>18273</end>
						<in>0</in>
						<out>464</out>
						<pproTicksIn>0</pproTicksIn>
						<pproTicksOut>4714536960000</pproTicksOut>
						<file id="file-46"/>
						<sourcetrack>
							<mediatype>audio</mediatype>
							<trackindex>2</trackindex>
						</sourcetrack>
							<filter>
								<effect>
									<name>Audio Levels</name>
									<effectid>audiolevels</effectid>
									<effectcategory>audiolevels</effectcategory>
									<effecttype>audiolevels</effecttype>
									<mediatype>audio</mediatype>
									<parameter authoringApp="PremierePro">
										<parameterid>level</parameterid>
										<name>Level</name>
										<valuemin>0</valuemin>
										<valuemax>3.98109</valuemax>
										<value>0.110848</value>
									</parameter>
								</effect>
							</filter>
						<link>
							<linkclipref>clipitem-154</linkclipref>
							<mediatype>audio</mediatype>
							<trackindex>7</trackindex>
							<clipindex>76</clipindex>
							<groupindex>1</groupindex>
						</link>
						<link>
							<linkclipref>clipitem-207</linkclipref>
							<mediatype>audio</mediatype>
							<trackindex>8</trackindex>
							<clipindex>75</clipindex>
							<groupindex>1</groupindex>
						</link>
						<logginginfo>
							<description></description>
							<scene></scene>
							<shottake></shottake>
							<lognote></lognote>
						</logginginfo>
						<labels>
							<label2>Caribbean</label2>
						</labels>
					</clipitem>
					<clipitem id="clipitem-208" premiereChannelType="stereo">
						<masterclipid>masterclip-49</masterclipid>
						<name>KT_210_2_Tranquil_State_Bennett_395054.wav</name>
						<enabled>TRUE</enabled>
						<duration>3155</duration>
						<rate>
							<timebase>25</timebase>
							<ntsc>FALSE</ntsc>
						</rate>
						<start>18444</start>
						<end>-1</end>
						<in>5</in>
						<out>636</out>
						<pproTicksIn>50803200000</pproTicksIn>
						<pproTicksOut>6462167040000</pproTicksOut>
						<file id="file-47"/>
						<sourcetrack>
							<mediatype>audio</mediatype>
							<trackindex>2</trackindex>
						</sourcetrack>
							<filter>
								<effect>
									<name>Audio Levels</name>
									<effectid>audiolevels</effectid>
									<effectcategory>audiolevels</effectcategory>
									<effecttype>audiolevels</effecttype>
									<mediatype>audio</mediatype>
									<parameter authoringApp="PremierePro">
										<parameterid>level</parameterid>
										<name>Level</name>
										<valuemin>0</valuemin>
										<valuemax>3.98109</valuemax>
										<value>0.110848</value>
									</parameter>
								</effect>
							</filter>
						<link>
							<linkclipref>clipitem-155</linkclipref>
							<mediatype>audio</mediatype>
							<trackindex>7</trackindex>
							<clipindex>77</clipindex>
							<groupindex>1</groupindex>
						</link>
						<link>
							<linkclipref>clipitem-208</linkclipref>
							<mediatype>audio</mediatype>
							<trackindex>8</trackindex>
							<clipindex>76</clipindex>
							<groupindex>1</groupindex>
						</link>
						<logginginfo>
							<description></description>
							<scene></scene>
							<shottake></shottake>
							<lognote></lognote>
						</logginginfo>
						<labels>
							<label2>Caribbean</label2>
						</labels>
					</clipitem>
					<transitionitem>
						<start>19062</start>
						<end>19075</end>
						<alignment>end-black</alignment>
						<cutPointTicks>132088320000</cutPointTicks>
						<rate>
							<timebase>25</timebase>
							<ntsc>FALSE</ntsc>
						</rate>
						<effect>
							<name>Cross Fade (+3dB)</name>
							<effectid>KGAudioTransCrossFade3dB</effectid>
							<effecttype>transition</effecttype>
							<mediatype>audio</mediatype>
							<wipecode>0</wipecode>
							<wipeaccuracy>100</wipeaccuracy>
							<startratio>0</startratio>
							<endratio>1</endratio>
							<reverse>FALSE</reverse>
						</effect>
					</transitionitem>
					<clipitem id="clipitem-209" premiereChannelType="stereo">
						<masterclipid>masterclip-50</masterclipid>
						<name>194081__potentjello__woosh-noise-1.wav</name>
						<enabled>TRUE</enabled>
						<duration>8</duration>
						<rate>
							<timebase>25</timebase>
							<ntsc>FALSE</ntsc>
						</rate>
						<start>27331</start>
						<end>27340</end>
						<in>0</in>
						<out>9</out>
						<pproTicksIn>0</pproTicksIn>
						<pproTicksOut>73156608000</pproTicksOut>
						<file id="file-48"/>
						<sourcetrack>
							<mediatype>audio</mediatype>
							<trackindex>2</trackindex>
						</sourcetrack>
							<filter>
								<effect>
									<name>Gain</name>
									<effectid>{61756678, 4761696e, 4b657947}</effectid>
									<effecttype>filter</effecttype>
									<mediatype>audio</mediatype>
									<parameter authoringApp="PremierePro">
										<parameterid>Gain(dB)</parameterid>
										<name>Gain(dB)</name>
										<valuemin>-96</valuemin>
										<valuemax>96</valuemax>
										<value>-9</value>
									</parameter>
								</effect>
							</filter>
							<filter>
								<effect>
									<name>Time Remap</name>
									<effectid>timeremap</effectid>
									<effectcategory>motion</effectcategory>
									<effecttype>motion</effecttype>
									<mediatype>audio</mediatype>
									<parameter authoringApp="PremierePro">
										<parameterid>variablespeed</parameterid>
										<name>variablespeed</name>
										<valuemin>0</valuemin>
										<valuemax>1</valuemax>
										<value>0</value>
									</parameter>
									<parameter authoringApp="PremierePro">
										<parameterid>speed</parameterid>
										<name>speed</name>
										<valuemin>-100000</valuemin>
										<valuemax>100000</valuemax>
										<value>80</value>
									</parameter>
									<parameter authoringApp="PremierePro">
										<parameterid>reverse</parameterid>
										<name>reverse</name>
										<value>FALSE</value>
									</parameter>
									<parameter authoringApp="PremierePro">
										<parameterid>frameblending</parameterid>
										<name>frameblending</name>
										<value>FALSE</value>
									</parameter>
									<parameter authoringApp="PremierePro">
										<parameterid>graphdict</parameterid>
										<name>graphdict</name>
										<valuemin>0</valuemin>
										<valuemax>6</valuemax>
										<value>0</value>
										<keyframe>
											<when>0</when>
											<value>0</value>
											<speedvirtualkf>TRUE</speedvirtualkf>
											<speedkfin>TRUE</speedkfin>
										</keyframe>
										<keyframe>
											<when>8</when>
											<value>6</value>
											<speedvirtualkf>TRUE</speedvirtualkf>
											<speedkfout>TRUE</speedkfout>
										</keyframe>
										<interpolation>
											<name>FCPCurve</name>
										</interpolation>
									</parameter>
								</effect>
							</filter>
							<marker>
								<comment></comment>
								<name></name>
								<in>6</in>
								<out>-1</out>
							</marker>
						<link>
							<linkclipref>clipitem-156</linkclipref>
							<mediatype>audio</mediatype>
							<trackindex>7</trackindex>
							<clipindex>79</clipindex>
							<groupindex>1</groupindex>
						</link>
						<link>
							<linkclipref>clipitem-209</linkclipref>
							<mediatype>audio</mediatype>
							<trackindex>8</trackindex>
							<clipindex>78</clipindex>
							<groupindex>1</groupindex>
						</link>
						<logginginfo>
							<description></description>
							<scene></scene>
							<shottake></shottake>
							<lognote></lognote>
						</logginginfo>
						<labels>
							<label2>Caribbean</label2>
						</labels>
					</clipitem>
					<transitionitem>
						<start>27702</start>
						<end>27715</end>
						<alignment>start-black</alignment>
						<cutPointTicks>0</cutPointTicks>
						<rate>
							<timebase>25</timebase>
							<ntsc>FALSE</ntsc>
						</rate>
						<effect>
							<name>Cross Fade (+3dB)</name>
							<effectid>KGAudioTransCrossFade3dB</effectid>
							<effecttype>transition</effecttype>
							<mediatype>audio</mediatype>
							<wipecode>0</wipecode>
							<wipeaccuracy>100</wipeaccuracy>
							<startratio>0</startratio>
							<endratio>1</endratio>
							<reverse>FALSE</reverse>
						</effect>
					</transitionitem>
					<clipitem id="clipitem-210" premiereChannelType="stereo">
						<masterclipid>masterclip-51</masterclipid>
						<name>SVN_7_7_Rogue_Warrior_Lehrman_Nonte_922056.wav</name>
						<enabled>TRUE</enabled>
						<duration>2957</duration>
						<rate>
							<timebase>25</timebase>
							<ntsc>FALSE</ntsc>
						</rate>
						<start>-1</start>
						<end>-1</end>
						<in>2412</in>
						<out>2533</out>
						<pproTicksIn>24507463680000</pproTicksIn>
						<pproTicksOut>25736901120000</pproTicksOut>
						<file id="file-49"/>
						<sourcetrack>
							<mediatype>audio</mediatype>
							<trackindex>2</trackindex>
						</sourcetrack>
							<filter>
								<effect>
									<name>Gain</name>
									<effectid>{61756678, 4761696e, 4b657947}</effectid>
									<effecttype>filter</effecttype>
									<mediatype>audio</mediatype>
									<parameter authoringApp="PremierePro">
										<parameterid>Gain(dB)</parameterid>
										<name>Gain(dB)</name>
										<valuemin>-96</valuemin>
										<valuemax>96</valuemax>
										<value>-15</value>
									</parameter>
								</effect>
							</filter>
						<link>
							<linkclipref>clipitem-157</linkclipref>
							<mediatype>audio</mediatype>
							<trackindex>7</trackindex>
							<clipindex>81</clipindex>
							<groupindex>1</groupindex>
						</link>
						<link>
							<linkclipref>clipitem-210</linkclipref>
							<mediatype>audio</mediatype>
							<trackindex>8</trackindex>
							<clipindex>80</clipindex>
							<groupindex>1</groupindex>
						</link>
						<logginginfo>
							<description></description>
							<scene></scene>
							<shottake></shottake>
							<lognote></lognote>
						</logginginfo>
						<labels>
							<label2>Caribbean</label2>
						</labels>
					</clipitem>
					<transitionitem>
						<start>27810</start>
						<end>27823</end>
						<alignment>center</alignment>
						<cutPointTicks>60963840000</cutPointTicks>
						<rate>
							<timebase>25</timebase>
							<ntsc>FALSE</ntsc>
						</rate>
						<effect>
							<name>Cross Fade (+3dB)</name>
							<effectid>KGAudioTransCrossFade3dB</effectid>
							<effecttype>transition</effecttype>
							<mediatype>audio</mediatype>
							<wipecode>0</wipecode>
							<wipeaccuracy>100</wipeaccuracy>
							<startratio>0</startratio>
							<endratio>1</endratio>
							<reverse>FALSE</reverse>
						</effect>
					</transitionitem>
					<clipitem id="clipitem-211" premiereChannelType="stereo">
						<masterclipid>masterclip-51</masterclipid>
						<name>SVN_7_7_Rogue_Warrior_Lehrman_Nonte_922056.wav</name>
						<enabled>TRUE</enabled>
						<duration>2957</duration>
						<rate>
							<timebase>25</timebase>
							<ntsc>FALSE</ntsc>
						</rate>
						<start>-1</start>
						<end>27999</end>
						<in>2520</in>
						<out>2709</out>
						<pproTicksIn>25604812800000</pproTicksIn>
						<pproTicksOut>27525173760000</pproTicksOut>
						<file id="file-49"/>
						<sourcetrack>
							<mediatype>audio</mediatype>
							<trackindex>2</trackindex>
						</sourcetrack>
							<filter>
								<effect>
									<name>Gain</name>
									<effectid>{61756678, 4761696e, 4b657947}</effectid>
									<effecttype>filter</effecttype>
									<mediatype>audio</mediatype>
									<parameter authoringApp="PremierePro">
										<parameterid>Gain(dB)</parameterid>
										<name>Gain(dB)</name>
										<valuemin>-96</valuemin>
										<valuemax>96</valuemax>
										<value>-24</value>
									</parameter>
								</effect>
							</filter>
						<link>
							<linkclipref>clipitem-158</linkclipref>
							<mediatype>audio</mediatype>
							<trackindex>7</trackindex>
							<clipindex>83</clipindex>
							<groupindex>1</groupindex>
						</link>
						<link>
							<linkclipref>clipitem-211</linkclipref>
							<mediatype>audio</mediatype>
							<trackindex>8</trackindex>
							<clipindex>82</clipindex>
							<groupindex>1</groupindex>
						</link>
						<logginginfo>
							<description></description>
							<scene></scene>
							<shottake></shottake>
							<lognote></lognote>
						</logginginfo>
						<labels>
							<label2>Caribbean</label2>
						</labels>
					</clipitem>
					<clipitem id="clipitem-212" premiereChannelType="stereo">
						<masterclipid>masterclip-51</masterclipid>
						<name>SVN_7_7_Rogue_Warrior_Lehrman_Nonte_922056.wav</name>
						<enabled>TRUE</enabled>
						<duration>2957</duration>
						<rate>
							<timebase>25</timebase>
							<ntsc>FALSE</ntsc>
						</rate>
						<start>27999</start>
						<end>28201</end>
						<in>2709</in>
						<out>2911</out>
						<pproTicksIn>27525173760000</pproTicksIn>
						<pproTicksOut>29577623040000</pproTicksOut>
						<file id="file-49"/>
						<sourcetrack>
							<mediatype>audio</mediatype>
							<trackindex>2</trackindex>
						</sourcetrack>
							<filter>
								<effect>
									<name>Gain</name>
									<effectid>{61756678, 4761696e, 4b657947}</effectid>
									<effecttype>filter</effecttype>
									<mediatype>audio</mediatype>
									<parameter authoringApp="PremierePro">
										<parameterid>Gain(dB)</parameterid>
										<name>Gain(dB)</name>
										<valuemin>-96</valuemin>
										<valuemax>96</valuemax>
										<value>-18</value>
									</parameter>
								</effect>
							</filter>
						<link>
							<linkclipref>clipitem-159</linkclipref>
							<mediatype>audio</mediatype>
							<trackindex>7</trackindex>
							<clipindex>84</clipindex>
							<groupindex>1</groupindex>
						</link>
						<link>
							<linkclipref>clipitem-212</linkclipref>
							<mediatype>audio</mediatype>
							<trackindex>8</trackindex>
							<clipindex>83</clipindex>
							<groupindex>1</groupindex>
						</link>
						<logginginfo>
							<description></description>
							<scene></scene>
							<shottake></shottake>
							<lognote></lognote>
						</logginginfo>
						<labels>
							<label2>Caribbean</label2>
						</labels>
					</clipitem>
					<clipitem id="clipitem-213" premiereChannelType="stereo">
						<masterclipid>masterclip-52</masterclipid>
						<name>UTS_19_22_Pendulum_Unleashed_Hit_1_David_Denis_856912.wav</name>
						<enabled>TRUE</enabled>
						<duration>200</duration>
						<rate>
							<timebase>25</timebase>
							<ntsc>FALSE</ntsc>
						</rate>
						<start>28550</start>
						<end>28663</end>
						<in>0</in>
						<out>113</out>
						<pproTicksIn>0</pproTicksIn>
						<pproTicksOut>1148152320000</pproTicksOut>
						<file id="file-50"/>
						<sourcetrack>
							<mediatype>audio</mediatype>
							<trackindex>2</trackindex>
						</sourcetrack>
							<filter>
								<effect>
									<name>Gain</name>
									<effectid>{61756678, 4761696e, 4b657947}</effectid>
									<effecttype>filter</effecttype>
									<mediatype>audio</mediatype>
									<parameter authoringApp="PremierePro">
										<parameterid>Gain(dB)</parameterid>
										<name>Gain(dB)</name>
										<valuemin>-96</valuemin>
										<valuemax>96</valuemax>
										<value>-9</value>
									</parameter>
								</effect>
							</filter>
						<link>
							<linkclipref>clipitem-160</linkclipref>
							<mediatype>audio</mediatype>
							<trackindex>7</trackindex>
							<clipindex>85</clipindex>
							<groupindex>1</groupindex>
						</link>
						<link>
							<linkclipref>clipitem-213</linkclipref>
							<mediatype>audio</mediatype>
							<trackindex>8</trackindex>
							<clipindex>84</clipindex>
							<groupindex>1</groupindex>
						</link>
						<logginginfo>
							<description></description>
							<scene></scene>
							<shottake></shottake>
							<lognote></lognote>
						</logginginfo>
						<labels>
							<label2>Caribbean</label2>
						</labels>
					</clipitem>
					<enabled>TRUE</enabled>
					<locked>FALSE</locked>
					<outputchannelindex>2</outputchannelindex>
				</track>
				<track TL.SQTrackAudioKeyframeStyle="0" TL.SQTrackShy="0" TL.SQTrackExpandedHeight="65" TL.SQTrackExpanded="1" MZ.TrackTargeted="1" PannerCurrentValue="0.5" PannerIsInverted="true" PannerStartKeyframe="-91445760000000000,0.5,0,0,0,0,0,0" PannerName="Balance" currentExplodedTrackIndex="0" totalExplodedTrackCount="1" premiereTrackType="Stereo">
					<transitionitem>
						<start>32286</start>
						<end>32299</end>
						<alignment>start-black</alignment>
						<cutPointTicks>0</cutPointTicks>
						<rate>
							<timebase>25</timebase>
							<ntsc>FALSE</ntsc>
						</rate>
						<effect>
							<name>Cross Fade (+3dB)</name>
							<effectid>KGAudioTransCrossFade3dB</effectid>
							<effecttype>transition</effecttype>
							<mediatype>audio</mediatype>
							<wipecode>0</wipecode>
							<wipeaccuracy>100</wipeaccuracy>
							<startratio>0</startratio>
							<endratio>1</endratio>
							<reverse>FALSE</reverse>
						</effect>
					</transitionitem>
					<clipitem id="clipitem-214" premiereChannelType="mono">
						<masterclipid>masterclip-32</masterclipid>
						<name>02 Foredrag-T01-Multicam</name>
						<enabled>TRUE</enabled>
						<duration>76803</duration>
						<rate>
							<timebase>25</timebase>
							<ntsc>FALSE</ntsc>
						</rate>
						<start>-1</start>
						<end>-1</end>
						<in>49653</in>
						<out>49692</out>
						<pproTicksIn>504506257920000</pproTicksIn>
						<pproTicksOut>504902522880000</pproTicksOut>
						<sequence id="sequence-2"/>
						<link>
							<linkclipref>clipitem-214</linkclipref>
							<mediatype>audio</mediatype>
							<trackindex>9</trackindex>
							<clipindex>2</clipindex>
							<groupindex>1</groupindex>
						</link>
						<link>
							<linkclipref>clipitem-217</linkclipref>
							<mediatype>audio</mediatype>
							<trackindex>10</trackindex>
							<clipindex>2</clipindex>
							<groupindex>1</groupindex>
						</link>
						<labels>
							<label2>Forest</label2>
						</labels>
					</clipitem>
					<transitionitem>
						<start>32312</start>
						<end>32325</end>
						<alignment>end-black</alignment>
						<cutPointTicks>132088320000</cutPointTicks>
						<rate>
							<timebase>25</timebase>
							<ntsc>FALSE</ntsc>
						</rate>
						<effect>
							<name>Cross Fade (+3dB)</name>
							<effectid>KGAudioTransCrossFade3dB</effectid>
							<effecttype>transition</effecttype>
							<mediatype>audio</mediatype>
							<wipecode>0</wipecode>
							<wipeaccuracy>100</wipeaccuracy>
							<startratio>0</startratio>
							<endratio>1</endratio>
							<reverse>FALSE</reverse>
						</effect>
					</transitionitem>
					<transitionitem>
						<start>32446</start>
						<end>32459</end>
						<alignment>start-black</alignment>
						<cutPointTicks>0</cutPointTicks>
						<rate>
							<timebase>25</timebase>
							<ntsc>FALSE</ntsc>
						</rate>
						<effect>
							<name>Cross Fade (+3dB)</name>
							<effectid>KGAudioTransCrossFade3dB</effectid>
							<effecttype>transition</effecttype>
							<mediatype>audio</mediatype>
							<wipecode>0</wipecode>
							<wipeaccuracy>100</wipeaccuracy>
							<startratio>0</startratio>
							<endratio>1</endratio>
							<reverse>FALSE</reverse>
						</effect>
					</transitionitem>
					<clipitem id="clipitem-215" premiereChannelType="mono">
						<masterclipid>masterclip-32</masterclipid>
						<name>02 Foredrag-T01-Multicam</name>
						<enabled>TRUE</enabled>
						<duration>76803</duration>
						<rate>
							<timebase>25</timebase>
							<ntsc>FALSE</ntsc>
						</rate>
						<start>-1</start>
						<end>-1</end>
						<in>49653</in>
						<out>49692</out>
						<pproTicksIn>504506257920000</pproTicksIn>
						<pproTicksOut>504902522880000</pproTicksOut>
						<sequence id="sequence-2"/>
						<link>
							<linkclipref>clipitem-215</linkclipref>
							<mediatype>audio</mediatype>
							<trackindex>9</trackindex>
							<clipindex>5</clipindex>
							<groupindex>1</groupindex>
						</link>
						<link>
							<linkclipref>clipitem-218</linkclipref>
							<mediatype>audio</mediatype>
							<trackindex>10</trackindex>
							<clipindex>5</clipindex>
							<groupindex>1</groupindex>
						</link>
						<labels>
							<label2>Forest</label2>
						</labels>
					</clipitem>
					<transitionitem>
						<start>32472</start>
						<end>32485</end>
						<alignment>end-black</alignment>
						<cutPointTicks>132088320000</cutPointTicks>
						<rate>
							<timebase>25</timebase>
							<ntsc>FALSE</ntsc>
						</rate>
						<effect>
							<name>Cross Fade (+3dB)</name>
							<effectid>KGAudioTransCrossFade3dB</effectid>
							<effecttype>transition</effecttype>
							<mediatype>audio</mediatype>
							<wipecode>0</wipecode>
							<wipeaccuracy>100</wipeaccuracy>
							<startratio>0</startratio>
							<endratio>1</endratio>
							<reverse>FALSE</reverse>
						</effect>
					</transitionitem>
					<transitionitem>
						<start>32729</start>
						<end>32742</end>
						<alignment>start-black</alignment>
						<cutPointTicks>0</cutPointTicks>
						<rate>
							<timebase>25</timebase>
							<ntsc>FALSE</ntsc>
						</rate>
						<effect>
							<name>Cross Fade (+3dB)</name>
							<effectid>KGAudioTransCrossFade3dB</effectid>
							<effecttype>transition</effecttype>
							<mediatype>audio</mediatype>
							<wipecode>0</wipecode>
							<wipeaccuracy>100</wipeaccuracy>
							<startratio>0</startratio>
							<endratio>1</endratio>
							<reverse>FALSE</reverse>
						</effect>
					</transitionitem>
					<clipitem id="clipitem-216" premiereChannelType="mono">
						<masterclipid>masterclip-32</masterclipid>
						<name>02 Foredrag-T01-Multicam</name>
						<enabled>TRUE</enabled>
						<duration>76803</duration>
						<rate>
							<timebase>25</timebase>
							<ntsc>FALSE</ntsc>
						</rate>
						<start>-1</start>
						<end>-1</end>
						<in>49653</in>
						<out>49692</out>
						<pproTicksIn>504506257920000</pproTicksIn>
						<pproTicksOut>504902522880000</pproTicksOut>
						<sequence id="sequence-2"/>
						<link>
							<linkclipref>clipitem-216</linkclipref>
							<mediatype>audio</mediatype>
							<trackindex>9</trackindex>
							<clipindex>8</clipindex>
							<groupindex>1</groupindex>
						</link>
						<link>
							<linkclipref>clipitem-219</linkclipref>
							<mediatype>audio</mediatype>
							<trackindex>10</trackindex>
							<clipindex>8</clipindex>
							<groupindex>1</groupindex>
						</link>
						<labels>
							<label2>Forest</label2>
						</labels>
					</clipitem>
					<transitionitem>
						<start>32755</start>
						<end>32768</end>
						<alignment>end-black</alignment>
						<cutPointTicks>132088320000</cutPointTicks>
						<rate>
							<timebase>25</timebase>
							<ntsc>FALSE</ntsc>
						</rate>
						<effect>
							<name>Cross Fade (+3dB)</name>
							<effectid>KGAudioTransCrossFade3dB</effectid>
							<effecttype>transition</effecttype>
							<mediatype>audio</mediatype>
							<wipecode>0</wipecode>
							<wipeaccuracy>100</wipeaccuracy>
							<startratio>0</startratio>
							<endratio>1</endratio>
							<reverse>FALSE</reverse>
						</effect>
					</transitionitem>
					<enabled>TRUE</enabled>
					<locked>FALSE</locked>
					<outputchannelindex>1</outputchannelindex>
				</track>
				<track TL.SQTrackAudioKeyframeStyle="0" TL.SQTrackShy="0" TL.SQTrackExpandedHeight="65" TL.SQTrackExpanded="1" MZ.TrackTargeted="1" PannerCurrentValue="0.5" PannerIsInverted="true" PannerStartKeyframe="-91445760000000000,0.5,0,0,0,0,0,0" PannerName="Balance" currentExplodedTrackIndex="0" totalExplodedTrackCount="1" premiereTrackType="Stereo">
					<transitionitem>
						<start>32286</start>
						<end>32299</end>
						<alignment>start-black</alignment>
						<cutPointTicks>0</cutPointTicks>
						<rate>
							<timebase>25</timebase>
							<ntsc>FALSE</ntsc>
						</rate>
						<effect>
							<name>Cross Fade (+3dB)</name>
							<effectid>KGAudioTransCrossFade3dB</effectid>
							<effecttype>transition</effecttype>
							<mediatype>audio</mediatype>
							<wipecode>0</wipecode>
							<wipeaccuracy>100</wipeaccuracy>
							<startratio>0</startratio>
							<endratio>1</endratio>
							<reverse>FALSE</reverse>
						</effect>
					</transitionitem>
					<clipitem id="clipitem-217" premiereChannelType="mono">
						<masterclipid>masterclip-32</masterclipid>
						<name>02 Foredrag-T01-Multicam</name>
						<enabled>TRUE</enabled>
						<duration>76803</duration>
						<rate>
							<timebase>25</timebase>
							<ntsc>FALSE</ntsc>
						</rate>
						<start>-1</start>
						<end>-1</end>
						<in>49653</in>
						<out>49692</out>
						<pproTicksIn>504506257920000</pproTicksIn>
						<pproTicksOut>504902522880000</pproTicksOut>
						<sequence id="sequence-2"/>
						<link>
							<linkclipref>clipitem-214</linkclipref>
							<mediatype>audio</mediatype>
							<trackindex>9</trackindex>
							<clipindex>2</clipindex>
							<groupindex>1</groupindex>
						</link>
						<link>
							<linkclipref>clipitem-217</linkclipref>
							<mediatype>audio</mediatype>
							<trackindex>10</trackindex>
							<clipindex>2</clipindex>
							<groupindex>1</groupindex>
						</link>
						<labels>
							<label2>Forest</label2>
						</labels>
					</clipitem>
					<transitionitem>
						<start>32312</start>
						<end>32325</end>
						<alignment>end-black</alignment>
						<cutPointTicks>132088320000</cutPointTicks>
						<rate>
							<timebase>25</timebase>
							<ntsc>FALSE</ntsc>
						</rate>
						<effect>
							<name>Cross Fade (+3dB)</name>
							<effectid>KGAudioTransCrossFade3dB</effectid>
							<effecttype>transition</effecttype>
							<mediatype>audio</mediatype>
							<wipecode>0</wipecode>
							<wipeaccuracy>100</wipeaccuracy>
							<startratio>0</startratio>
							<endratio>1</endratio>
							<reverse>FALSE</reverse>
						</effect>
					</transitionitem>
					<transitionitem>
						<start>32446</start>
						<end>32459</end>
						<alignment>start-black</alignment>
						<cutPointTicks>0</cutPointTicks>
						<rate>
							<timebase>25</timebase>
							<ntsc>FALSE</ntsc>
						</rate>
						<effect>
							<name>Cross Fade (+3dB)</name>
							<effectid>KGAudioTransCrossFade3dB</effectid>
							<effecttype>transition</effecttype>
							<mediatype>audio</mediatype>
							<wipecode>0</wipecode>
							<wipeaccuracy>100</wipeaccuracy>
							<startratio>0</startratio>
							<endratio>1</endratio>
							<reverse>FALSE</reverse>
						</effect>
					</transitionitem>
					<clipitem id="clipitem-218" premiereChannelType="mono">
						<masterclipid>masterclip-32</masterclipid>
						<name>02 Foredrag-T01-Multicam</name>
						<enabled>TRUE</enabled>
						<duration>76803</duration>
						<rate>
							<timebase>25</timebase>
							<ntsc>FALSE</ntsc>
						</rate>
						<start>-1</start>
						<end>-1</end>
						<in>49653</in>
						<out>49692</out>
						<pproTicksIn>504506257920000</pproTicksIn>
						<pproTicksOut>504902522880000</pproTicksOut>
						<sequence id="sequence-2"/>
						<link>
							<linkclipref>clipitem-215</linkclipref>
							<mediatype>audio</mediatype>
							<trackindex>9</trackindex>
							<clipindex>5</clipindex>
							<groupindex>1</groupindex>
						</link>
						<link>
							<linkclipref>clipitem-218</linkclipref>
							<mediatype>audio</mediatype>
							<trackindex>10</trackindex>
							<clipindex>5</clipindex>
							<groupindex>1</groupindex>
						</link>
						<labels>
							<label2>Forest</label2>
						</labels>
					</clipitem>
					<transitionitem>
						<start>32472</start>
						<end>32485</end>
						<alignment>end-black</alignment>
						<cutPointTicks>132088320000</cutPointTicks>
						<rate>
							<timebase>25</timebase>
							<ntsc>FALSE</ntsc>
						</rate>
						<effect>
							<name>Cross Fade (+3dB)</name>
							<effectid>KGAudioTransCrossFade3dB</effectid>
							<effecttype>transition</effecttype>
							<mediatype>audio</mediatype>
							<wipecode>0</wipecode>
							<wipeaccuracy>100</wipeaccuracy>
							<startratio>0</startratio>
							<endratio>1</endratio>
							<reverse>FALSE</reverse>
						</effect>
					</transitionitem>
					<transitionitem>
						<start>32729</start>
						<end>32742</end>
						<alignment>start-black</alignment>
						<cutPointTicks>0</cutPointTicks>
						<rate>
							<timebase>25</timebase>
							<ntsc>FALSE</ntsc>
						</rate>
						<effect>
							<name>Cross Fade (+3dB)</name>
							<effectid>KGAudioTransCrossFade3dB</effectid>
							<effecttype>transition</effecttype>
							<mediatype>audio</mediatype>
							<wipecode>0</wipecode>
							<wipeaccuracy>100</wipeaccuracy>
							<startratio>0</startratio>
							<endratio>1</endratio>
							<reverse>FALSE</reverse>
						</effect>
					</transitionitem>
					<clipitem id="clipitem-219" premiereChannelType="mono">
						<masterclipid>masterclip-32</masterclipid>
						<name>02 Foredrag-T01-Multicam</name>
						<enabled>TRUE</enabled>
						<duration>76803</duration>
						<rate>
							<timebase>25</timebase>
							<ntsc>FALSE</ntsc>
						</rate>
						<start>-1</start>
						<end>-1</end>
						<in>49653</in>
						<out>49692</out>
						<pproTicksIn>504506257920000</pproTicksIn>
						<pproTicksOut>504902522880000</pproTicksOut>
						<sequence id="sequence-2"/>
						<link>
							<linkclipref>clipitem-216</linkclipref>
							<mediatype>audio</mediatype>
							<trackindex>9</trackindex>
							<clipindex>8</clipindex>
							<groupindex>1</groupindex>
						</link>
						<link>
							<linkclipref>clipitem-219</linkclipref>
							<mediatype>audio</mediatype>
							<trackindex>10</trackindex>
							<clipindex>8</clipindex>
							<groupindex>1</groupindex>
						</link>
						<labels>
							<label2>Forest</label2>
						</labels>
					</clipitem>
					<transitionitem>
						<start>32755</start>
						<end>32768</end>
						<alignment>end-black</alignment>
						<cutPointTicks>132088320000</cutPointTicks>
						<rate>
							<timebase>25</timebase>
							<ntsc>FALSE</ntsc>
						</rate>
						<effect>
							<name>Cross Fade (+3dB)</name>
							<effectid>KGAudioTransCrossFade3dB</effectid>
							<effecttype>transition</effecttype>
							<mediatype>audio</mediatype>
							<wipecode>0</wipecode>
							<wipeaccuracy>100</wipeaccuracy>
							<startratio>0</startratio>
							<endratio>1</endratio>
							<reverse>FALSE</reverse>
						</effect>
					</transitionitem>
					<enabled>TRUE</enabled>
					<locked>FALSE</locked>
					<outputchannelindex>2</outputchannelindex>
				</track>
				<track TL.SQTrackAudioKeyframeStyle="0" TL.SQTrackShy="0" TL.SQTrackExpandedHeight="65" TL.SQTrackExpanded="1" MZ.TrackTargeted="0" PannerCurrentValue="0.5" PannerIsInverted="true" PannerStartKeyframe="-91445760000000000,0.5,0,0,0,0,0,0" PannerName="Balance" currentExplodedTrackIndex="0" totalExplodedTrackCount="2" premiereTrackType="Stereo">
					<clipitem id="clipitem-220" premiereChannelType="stereo">
						<masterclipid>masterclip-36</masterclipid>
						<name>BR_586_5_Unstoppable_Force_Britton_858425.wav</name>
						<enabled>TRUE</enabled>
						<duration>3237</duration>
						<rate>
							<timebase>25</timebase>
							<ntsc>FALSE</ntsc>
						</rate>
						<start>0</start>
						<end>-1</end>
						<in>47</in>
						<out>324</out>
						<pproTicksIn>477550080000</pproTicksIn>
						<pproTicksOut>3292047360000</pproTicksOut>
						<file id="file-34"/>
						<sourcetrack>
							<mediatype>audio</mediatype>
							<trackindex>1</trackindex>
						</sourcetrack>
							<filter>
								<effect>
									<name>Gain</name>
									<effectid>{61756678, 4761696e, 4b657947}</effectid>
									<effecttype>filter</effecttype>
									<mediatype>audio</mediatype>
									<parameter authoringApp="PremierePro">
										<parameterid>Gain(dB)</parameterid>
										<name>Gain(dB)</name>
										<valuemin>-96</valuemin>
										<valuemax>96</valuemax>
										<value>-18</value>
									</parameter>
								</effect>
							</filter>
						<link>
							<linkclipref>clipitem-220</linkclipref>
							<mediatype>audio</mediatype>
							<trackindex>11</trackindex>
							<clipindex>1</clipindex>
							<groupindex>1</groupindex>
						</link>
						<link>
							<linkclipref>clipitem-249</linkclipref>
							<mediatype>audio</mediatype>
							<trackindex>12</trackindex>
							<clipindex>1</clipindex>
							<groupindex>1</groupindex>
						</link>
						<logginginfo>
							<description></description>
							<scene></scene>
							<shottake></shottake>
							<lognote></lognote>
						</logginginfo>
						<labels>
							<label2>Caribbean</label2>
						</labels>
					</clipitem>
					<transitionitem>
						<start>264</start>
						<end>277</end>
						<alignment>center</alignment>
						<cutPointTicks>60963840000</cutPointTicks>
						<rate>
							<timebase>25</timebase>
							<ntsc>FALSE</ntsc>
						</rate>
						<effect>
							<name>Cross Fade (+3dB)</name>
							<effectid>KGAudioTransCrossFade3dB</effectid>
							<effecttype>transition</effecttype>
							<mediatype>audio</mediatype>
							<wipecode>0</wipecode>
							<wipeaccuracy>100</wipeaccuracy>
							<startratio>0</startratio>
							<endratio>1</endratio>
							<reverse>FALSE</reverse>
						</effect>
					</transitionitem>
					<clipitem id="clipitem-221" premiereChannelType="stereo">
						<masterclipid>masterclip-36</masterclipid>
						<name>BR_586_5_Unstoppable_Force_Britton_858425.wav</name>
						<enabled>TRUE</enabled>
						<duration>3237</duration>
						<rate>
							<timebase>25</timebase>
							<ntsc>FALSE</ntsc>
						</rate>
						<start>-1</start>
						<end>387</end>
						<in>2926</in>
						<out>3049</out>
						<pproTicksIn>29730032640000</pproTicksIn>
						<pproTicksOut>30979791360000</pproTicksOut>
						<file id="file-34"/>
						<sourcetrack>
							<mediatype>audio</mediatype>
							<trackindex>1</trackindex>
						</sourcetrack>
							<filter>
								<effect>
									<name>Gain</name>
									<effectid>{61756678, 4761696e, 4b657947}</effectid>
									<effecttype>filter</effecttype>
									<mediatype>audio</mediatype>
									<parameter authoringApp="PremierePro">
										<parameterid>Gain(dB)</parameterid>
										<name>Gain(dB)</name>
										<valuemin>-96</valuemin>
										<valuemax>96</valuemax>
										<value>-12</value>
									</parameter>
								</effect>
							</filter>
						<link>
							<linkclipref>clipitem-221</linkclipref>
							<mediatype>audio</mediatype>
							<trackindex>11</trackindex>
							<clipindex>3</clipindex>
							<groupindex>1</groupindex>
						</link>
						<link>
							<linkclipref>clipitem-250</linkclipref>
							<mediatype>audio</mediatype>
							<trackindex>12</trackindex>
							<clipindex>3</clipindex>
							<groupindex>1</groupindex>
						</link>
						<logginginfo>
							<description></description>
							<scene></scene>
							<shottake></shottake>
							<lognote></lognote>
						</logginginfo>
						<labels>
							<label2>Caribbean</label2>
						</labels>
					</clipitem>
					<clipitem id="clipitem-222" premiereChannelType="stereo">
						<masterclipid>masterclip-53</masterclipid>
						<name>NONRE633380HD0006 Keefa (Instrumental).wav</name>
						<enabled>TRUE</enabled>
						<duration>4994</duration>
						<rate>
							<timebase>25</timebase>
							<ntsc>FALSE</ntsc>
						</rate>
						<start>5131</start>
						<end>-1</end>
						<in>0</in>
						<out>148</out>
						<pproTicksIn>0</pproTicksIn>
						<pproTicksOut>1503774720000</pproTicksOut>
						<file id="file-51">
							<name>NONRE633380HD0006 Keefa (Instrumental).wav</name>
							<pathurl>file://localhost/Volumes/Bingen/Prosjekter/MYNT194016%20WHATS%20COOKING/Musikk/Jan/DMA/Tommy%20Tee/NONRE633380HD0006%20Keefa%20(Instrumental).wav</pathurl>
							<rate>
								<timebase>30</timebase>
								<ntsc>TRUE</ntsc>
							</rate>
							<duration>5987</duration>
							<timecode>
								<rate>
									<timebase>30</timebase>
									<ntsc>TRUE</ntsc>
								</rate>
								<string>00;00;00;00</string>
								<frame>0</frame>
								<displayformat>DF</displayformat>
								<reel>
									<name></name>
								</reel>
							</timecode>
							<media>
								<audio>
									<samplecharacteristics>
										<depth>16</depth>
										<samplerate>48000</samplerate>
									</samplecharacteristics>
									<channelcount>2</channelcount>
								</audio>
							</media>
						</file>
						<sourcetrack>
							<mediatype>audio</mediatype>
							<trackindex>1</trackindex>
						</sourcetrack>
							<filter>
								<effect>
									<name>Gain</name>
									<effectid>{61756678, 4761696e, 4b657947}</effectid>
									<effecttype>filter</effecttype>
									<mediatype>audio</mediatype>
									<parameter authoringApp="PremierePro">
										<parameterid>Gain(dB)</parameterid>
										<name>Gain(dB)</name>
										<valuemin>-96</valuemin>
										<valuemax>96</valuemax>
										<value>-10</value>
									</parameter>
								</effect>
							</filter>
						<link>
							<linkclipref>clipitem-222</linkclipref>
							<mediatype>audio</mediatype>
							<trackindex>11</trackindex>
							<clipindex>4</clipindex>
							<groupindex>1</groupindex>
						</link>
						<link>
							<linkclipref>clipitem-251</linkclipref>
							<mediatype>audio</mediatype>
							<trackindex>12</trackindex>
							<clipindex>4</clipindex>
							<groupindex>1</groupindex>
						</link>
						<logginginfo>
							<description></description>
							<scene></scene>
							<shottake></shottake>
							<lognote></lognote>
						</logginginfo>
						<labels>
							<label2>Violet</label2>
						</labels>
					</clipitem>
					<transitionitem>
						<start>5266</start>
						<end>5279</end>
						<alignment>center</alignment>
						<cutPointTicks>60963840000</cutPointTicks>
						<rate>
							<timebase>25</timebase>
							<ntsc>FALSE</ntsc>
						</rate>
						<effect>
							<name>Cross Fade (+3dB)</name>
							<effectid>KGAudioTransCrossFade3dB</effectid>
							<effecttype>transition</effecttype>
							<mediatype>audio</mediatype>
							<wipecode>0</wipecode>
							<wipeaccuracy>100</wipeaccuracy>
							<startratio>0</startratio>
							<endratio>1</endratio>
							<reverse>FALSE</reverse>
						</effect>
					</transitionitem>
					<clipitem id="clipitem-223" premiereChannelType="stereo">
						<masterclipid>masterclip-53</masterclipid>
						<name>NONRE633380HD0006 Keefa (Instrumental).wav</name>
						<enabled>TRUE</enabled>
						<duration>4994</duration>
						<rate>
							<timebase>25</timebase>
							<ntsc>FALSE</ntsc>
						</rate>
						<start>-1</start>
						<end>-1</end>
						<in>135</in>
						<out>280</out>
						<pproTicksIn>1371686400000</pproTicksIn>
						<pproTicksOut>2844979200000</pproTicksOut>
						<file id="file-51"/>
						<sourcetrack>
							<mediatype>audio</mediatype>
							<trackindex>1</trackindex>
						</sourcetrack>
							<filter>
								<effect>
									<name>Gain</name>
									<effectid>{61756678, 4761696e, 4b657947}</effectid>
									<effecttype>filter</effecttype>
									<mediatype>audio</mediatype>
									<parameter authoringApp="PremierePro">
										<parameterid>Gain(dB)</parameterid>
										<name>Gain(dB)</name>
										<valuemin>-96</valuemin>
										<valuemax>96</valuemax>
										<value>-28</value>
									</parameter>
								</effect>
							</filter>
						<link>
							<linkclipref>clipitem-223</linkclipref>
							<mediatype>audio</mediatype>
							<trackindex>11</trackindex>
							<clipindex>6</clipindex>
							<groupindex>1</groupindex>
						</link>
						<link>
							<linkclipref>clipitem-252</linkclipref>
							<mediatype>audio</mediatype>
							<trackindex>12</trackindex>
							<clipindex>6</clipindex>
							<groupindex>1</groupindex>
						</link>
						<logginginfo>
							<description></description>
							<scene></scene>
							<shottake></shottake>
							<lognote></lognote>
						</logginginfo>
						<labels>
							<label2>Violet</label2>
						</labels>
					</clipitem>
					<transitionitem>
						<start>5325</start>
						<end>5411</end>
						<alignment>end-black</alignment>
						<cutPointTicks>873815040000</cutPointTicks>
						<rate>
							<timebase>25</timebase>
							<ntsc>FALSE</ntsc>
						</rate>
						<effect>
							<name>Cross Fade (+3dB)</name>
							<effectid>KGAudioTransCrossFade3dB</effectid>
							<effecttype>transition</effecttype>
							<mediatype>audio</mediatype>
							<wipecode>0</wipecode>
							<wipeaccuracy>100</wipeaccuracy>
							<startratio>0</startratio>
							<endratio>1</endratio>
							<reverse>FALSE</reverse>
						</effect>
					</transitionitem>
					<clipitem id="clipitem-224" premiereChannelType="stereo">
						<masterclipid>masterclip-54</masterclipid>
						<name>NONRE639242HD0002 Trust Me Danny.wav</name>
						<enabled>TRUE</enabled>
						<duration>6105</duration>
						<rate>
							<timebase>25</timebase>
							<ntsc>FALSE</ntsc>
						</rate>
						<start>10801</start>
						<end>-1</end>
						<in>1</in>
						<out>253</out>
						<pproTicksIn>10160640000</pproTicksIn>
						<pproTicksOut>2570641920000</pproTicksOut>
						<file id="file-52">
							<name>NONRE639242HD0002 Trust Me Danny.wav</name>
							<pathurl>file://localhost/Volumes/Bingen/Prosjekter/MYNT194016%20WHATS%20COOKING/Musikk/Jan/DMA/NONRE639242HD0002%20Trust%20Me%20Danny.wav</pathurl>
							<rate>
								<timebase>30</timebase>
								<ntsc>TRUE</ntsc>
							</rate>
							<duration>7318</duration>
							<timecode>
								<rate>
									<timebase>30</timebase>
									<ntsc>TRUE</ntsc>
								</rate>
								<string>00;00;00;00</string>
								<frame>0</frame>
								<displayformat>DF</displayformat>
								<reel>
									<name></name>
								</reel>
							</timecode>
							<media>
								<audio>
									<samplecharacteristics>
										<depth>16</depth>
										<samplerate>48000</samplerate>
									</samplecharacteristics>
									<channelcount>2</channelcount>
								</audio>
							</media>
						</file>
						<sourcetrack>
							<mediatype>audio</mediatype>
							<trackindex>1</trackindex>
						</sourcetrack>
							<filter>
								<effect>
									<name>Gain</name>
									<effectid>{61756678, 4761696e, 4b657947}</effectid>
									<effecttype>filter</effecttype>
									<mediatype>audio</mediatype>
									<parameter authoringApp="PremierePro">
										<parameterid>Gain(dB)</parameterid>
										<name>Gain(dB)</name>
										<valuemin>-96</valuemin>
										<valuemax>96</valuemax>
										<value>-6</value>
									</parameter>
								</effect>
							</filter>
						<link>
							<linkclipref>clipitem-224</linkclipref>
							<mediatype>audio</mediatype>
							<trackindex>11</trackindex>
							<clipindex>8</clipindex>
							<groupindex>1</groupindex>
						</link>
						<link>
							<linkclipref>clipitem-253</linkclipref>
							<mediatype>audio</mediatype>
							<trackindex>12</trackindex>
							<clipindex>8</clipindex>
							<groupindex>1</groupindex>
						</link>
						<logginginfo>
							<description></description>
							<scene></scene>
							<shottake></shottake>
							<lognote></lognote>
						</logginginfo>
						<labels>
							<label2>Caribbean</label2>
						</labels>
					</clipitem>
					<transitionitem>
						<start>11033</start>
						<end>11053</end>
						<alignment>center</alignment>
						<cutPointTicks>93790116000</cutPointTicks>
						<rate>
							<timebase>25</timebase>
							<ntsc>FALSE</ntsc>
						</rate>
						<effect>
							<name>Cross Fade (+3dB)</name>
							<effectid>KGAudioTransCrossFade3dB</effectid>
							<effecttype>transition</effecttype>
							<mediatype>audio</mediatype>
							<wipecode>0</wipecode>
							<wipeaccuracy>100</wipeaccuracy>
							<startratio>0</startratio>
							<endratio>1</endratio>
							<reverse>FALSE</reverse>
						</effect>
					</transitionitem>
					<clipitem id="clipitem-225" premiereChannelType="stereo">
						<masterclipid>masterclip-54</masterclipid>
						<name>NONRE639242HD0002 Trust Me Danny.wav</name>
						<enabled>TRUE</enabled>
						<duration>6105</duration>
						<rate>
							<timebase>25</timebase>
							<ntsc>FALSE</ntsc>
						</rate>
						<start>-1</start>
						<end>-1</end>
						<in>233</in>
						<out>347</out>
						<pproTicksIn>2367429120000</pproTicksIn>
						<pproTicksOut>3525742080000</pproTicksOut>
						<file id="file-52"/>
						<sourcetrack>
							<mediatype>audio</mediatype>
							<trackindex>1</trackindex>
						</sourcetrack>
							<filter>
								<effect>
									<name>Gain</name>
									<effectid>{61756678, 4761696e, 4b657947}</effectid>
									<effecttype>filter</effecttype>
									<mediatype>audio</mediatype>
									<parameter authoringApp="PremierePro">
										<parameterid>Gain(dB)</parameterid>
										<name>Gain(dB)</name>
										<valuemin>-96</valuemin>
										<valuemax>96</valuemax>
										<value>-27</value>
									</parameter>
								</effect>
							</filter>
						<link>
							<linkclipref>clipitem-225</linkclipref>
							<mediatype>audio</mediatype>
							<trackindex>11</trackindex>
							<clipindex>10</clipindex>
							<groupindex>1</groupindex>
						</link>
						<link>
							<linkclipref>clipitem-254</linkclipref>
							<mediatype>audio</mediatype>
							<trackindex>12</trackindex>
							<clipindex>10</clipindex>
							<groupindex>1</groupindex>
						</link>
						<logginginfo>
							<description></description>
							<scene></scene>
							<shottake></shottake>
							<lognote></lognote>
						</logginginfo>
						<labels>
							<label2>Caribbean</label2>
						</labels>
					</clipitem>
					<transitionitem>
						<start>11076</start>
						<end>11147</end>
						<alignment>end-black</alignment>
						<cutPointTicks>721405440000</cutPointTicks>
						<rate>
							<timebase>25</timebase>
							<ntsc>FALSE</ntsc>
						</rate>
						<effect>
							<name>Cross Fade (+3dB)</name>
							<effectid>KGAudioTransCrossFade3dB</effectid>
							<effecttype>transition</effecttype>
							<mediatype>audio</mediatype>
							<wipecode>0</wipecode>
							<wipeaccuracy>100</wipeaccuracy>
							<startratio>0</startratio>
							<endratio>1</endratio>
							<reverse>FALSE</reverse>
						</effect>
					</transitionitem>
					<transitionitem>
						<start>14556</start>
						<end>14557</end>
						<alignment>start-black</alignment>
						<cutPointTicks>0</cutPointTicks>
						<rate>
							<timebase>25</timebase>
							<ntsc>FALSE</ntsc>
						</rate>
						<effect>
							<name>Cross Fade (+3dB)</name>
							<effectid>KGAudioTransCrossFade3dB</effectid>
							<effecttype>transition</effecttype>
							<mediatype>audio</mediatype>
							<wipecode>0</wipecode>
							<wipeaccuracy>100</wipeaccuracy>
							<startratio>0</startratio>
							<endratio>1</endratio>
							<reverse>FALSE</reverse>
						</effect>
					</transitionitem>
					<clipitem id="clipitem-226" premiereChannelType="stereo">
						<masterclipid>masterclip-44</masterclipid>
						<name>KT_318_1_Sumo_Chant_Constantinou_Frazer_926859.wav</name>
						<enabled>TRUE</enabled>
						<duration>3627</duration>
						<rate>
							<timebase>25</timebase>
							<ntsc>FALSE</ntsc>
						</rate>
						<start>-1</start>
						<end>14559</end>
						<in>184</in>
						<out>187</out>
						<pproTicksIn>1869557760000</pproTicksIn>
						<pproTicksOut>1900039680000</pproTicksOut>
						<file id="file-42"/>
						<sourcetrack>
							<mediatype>audio</mediatype>
							<trackindex>1</trackindex>
						</sourcetrack>
							<filter>
								<effect>
									<name>Gain</name>
									<effectid>{61756678, 4761696e, 4b657947}</effectid>
									<effecttype>filter</effecttype>
									<mediatype>audio</mediatype>
									<parameter authoringApp="PremierePro">
										<parameterid>Gain(dB)</parameterid>
										<name>Gain(dB)</name>
										<valuemin>-96</valuemin>
										<valuemax>96</valuemax>
										<value>-6</value>
									</parameter>
								</effect>
							</filter>
						<link>
							<linkclipref>clipitem-226</linkclipref>
							<mediatype>audio</mediatype>
							<trackindex>11</trackindex>
							<clipindex>13</clipindex>
							<groupindex>1</groupindex>
						</link>
						<link>
							<linkclipref>clipitem-255</linkclipref>
							<mediatype>audio</mediatype>
							<trackindex>12</trackindex>
							<clipindex>13</clipindex>
							<groupindex>1</groupindex>
						</link>
						<logginginfo>
							<description></description>
							<scene></scene>
							<shottake></shottake>
							<lognote></lognote>
						</logginginfo>
						<labels>
							<label2>Caribbean</label2>
						</labels>
					</clipitem>
					<clipitem id="clipitem-227" premiereChannelType="stereo">
						<masterclipid>masterclip-44</masterclipid>
						<name>KT_318_1_Sumo_Chant_Constantinou_Frazer_926859.wav</name>
						<enabled>TRUE</enabled>
						<duration>3627</duration>
						<rate>
							<timebase>25</timebase>
							<ntsc>FALSE</ntsc>
						</rate>
						<start>14559</start>
						<end>14578</end>
						<in>187</in>
						<out>206</out>
						<pproTicksIn>1900039680000</pproTicksIn>
						<pproTicksOut>2093091840000</pproTicksOut>
						<file id="file-42"/>
						<sourcetrack>
							<mediatype>audio</mediatype>
							<trackindex>1</trackindex>
						</sourcetrack>
							<filter>
								<effect>
									<name>Gain</name>
									<effectid>{61756678, 4761696e, 4b657947}</effectid>
									<effecttype>filter</effecttype>
									<mediatype>audio</mediatype>
									<parameter authoringApp="PremierePro">
										<parameterid>Gain(dB)</parameterid>
										<name>Gain(dB)</name>
										<valuemin>-96</valuemin>
										<valuemax>96</valuemax>
										<value>-6</value>
									</parameter>
								</effect>
							</filter>
						<link>
							<linkclipref>clipitem-227</linkclipref>
							<mediatype>audio</mediatype>
							<trackindex>11</trackindex>
							<clipindex>14</clipindex>
							<groupindex>1</groupindex>
						</link>
						<link>
							<linkclipref>clipitem-256</linkclipref>
							<mediatype>audio</mediatype>
							<trackindex>12</trackindex>
							<clipindex>14</clipindex>
							<groupindex>1</groupindex>
						</link>
						<logginginfo>
							<description></description>
							<scene></scene>
							<shottake></shottake>
							<lognote></lognote>
						</logginginfo>
						<labels>
							<label2>Caribbean</label2>
						</labels>
					</clipitem>
					<clipitem id="clipitem-228" premiereChannelType="stereo">
						<masterclipid>masterclip-44</masterclipid>
						<name>KT_318_1_Sumo_Chant_Constantinou_Frazer_926859.wav</name>
						<enabled>TRUE</enabled>
						<duration>3627</duration>
						<rate>
							<timebase>25</timebase>
							<ntsc>FALSE</ntsc>
						</rate>
						<start>14598</start>
						<end>-1</end>
						<in>0</in>
						<out>187</out>
						<pproTicksIn>0</pproTicksIn>
						<pproTicksOut>1900039680000</pproTicksOut>
						<file id="file-42"/>
						<sourcetrack>
							<mediatype>audio</mediatype>
							<trackindex>1</trackindex>
						</sourcetrack>
							<filter>
								<effect>
									<name>Gain</name>
									<effectid>{61756678, 4761696e, 4b657947}</effectid>
									<effecttype>filter</effecttype>
									<mediatype>audio</mediatype>
									<parameter authoringApp="PremierePro">
										<parameterid>Gain(dB)</parameterid>
										<name>Gain(dB)</name>
										<valuemin>-96</valuemin>
										<valuemax>96</valuemax>
										<value>-21</value>
									</parameter>
								</effect>
							</filter>
						<link>
							<linkclipref>clipitem-228</linkclipref>
							<mediatype>audio</mediatype>
							<trackindex>11</trackindex>
							<clipindex>15</clipindex>
							<groupindex>1</groupindex>
						</link>
						<link>
							<linkclipref>clipitem-257</linkclipref>
							<mediatype>audio</mediatype>
							<trackindex>12</trackindex>
							<clipindex>15</clipindex>
							<groupindex>1</groupindex>
						</link>
						<logginginfo>
							<description></description>
							<scene></scene>
							<shottake></shottake>
							<lognote></lognote>
						</logginginfo>
						<labels>
							<label2>Caribbean</label2>
						</labels>
					</clipitem>
					<transitionitem>
						<start>14772</start>
						<end>14785</end>
						<alignment>center</alignment>
						<cutPointTicks>60963840000</cutPointTicks>
						<rate>
							<timebase>25</timebase>
							<ntsc>FALSE</ntsc>
						</rate>
						<effect>
							<name>Cross Fade (+3dB)</name>
							<effectid>KGAudioTransCrossFade3dB</effectid>
							<effecttype>transition</effecttype>
							<mediatype>audio</mediatype>
							<wipecode>0</wipecode>
							<wipeaccuracy>100</wipeaccuracy>
							<startratio>0</startratio>
							<endratio>1</endratio>
							<reverse>FALSE</reverse>
						</effect>
					</transitionitem>
					<clipitem id="clipitem-229" premiereChannelType="stereo">
						<masterclipid>masterclip-44</masterclipid>
						<name>KT_318_1_Sumo_Chant_Constantinou_Frazer_926859.wav</name>
						<enabled>TRUE</enabled>
						<duration>3627</duration>
						<rate>
							<timebase>25</timebase>
							<ntsc>FALSE</ntsc>
						</rate>
						<start>-1</start>
						<end>-1</end>
						<in>174</in>
						<out>285</out>
						<pproTicksIn>1767951360000</pproTicksIn>
						<pproTicksOut>2895782400000</pproTicksOut>
						<file id="file-42"/>
						<sourcetrack>
							<mediatype>audio</mediatype>
							<trackindex>1</trackindex>
						</sourcetrack>
							<filter>
								<effect>
									<name>Gain</name>
									<effectid>{61756678, 4761696e, 4b657947}</effectid>
									<effecttype>filter</effecttype>
									<mediatype>audio</mediatype>
									<parameter authoringApp="PremierePro">
										<parameterid>Gain(dB)</parameterid>
										<name>Gain(dB)</name>
										<valuemin>-96</valuemin>
										<valuemax>96</valuemax>
										<value>-9</value>
									</parameter>
								</effect>
							</filter>
						<link>
							<linkclipref>clipitem-229</linkclipref>
							<mediatype>audio</mediatype>
							<trackindex>11</trackindex>
							<clipindex>17</clipindex>
							<groupindex>1</groupindex>
						</link>
						<link>
							<linkclipref>clipitem-258</linkclipref>
							<mediatype>audio</mediatype>
							<trackindex>12</trackindex>
							<clipindex>17</clipindex>
							<groupindex>1</groupindex>
						</link>
						<logginginfo>
							<description></description>
							<scene></scene>
							<shottake></shottake>
							<lognote></lognote>
						</logginginfo>
						<labels>
							<label2>Caribbean</label2>
						</labels>
					</clipitem>
					<transitionitem>
						<start>14860</start>
						<end>14883</end>
						<alignment>center</alignment>
						<cutPointTicks>111767040000</cutPointTicks>
						<rate>
							<timebase>25</timebase>
							<ntsc>FALSE</ntsc>
						</rate>
						<effect>
							<name>Cross Fade (+3dB)</name>
							<effectid>KGAudioTransCrossFade3dB</effectid>
							<effecttype>transition</effecttype>
							<mediatype>audio</mediatype>
							<wipecode>0</wipecode>
							<wipeaccuracy>100</wipeaccuracy>
							<startratio>0</startratio>
							<endratio>1</endratio>
							<reverse>FALSE</reverse>
						</effect>
					</transitionitem>
					<clipitem id="clipitem-230" premiereChannelType="stereo">
						<masterclipid>masterclip-44</masterclipid>
						<name>KT_318_1_Sumo_Chant_Constantinou_Frazer_926859.wav</name>
						<enabled>TRUE</enabled>
						<duration>3627</duration>
						<rate>
							<timebase>25</timebase>
							<ntsc>FALSE</ntsc>
						</rate>
						<start>-1</start>
						<end>15131</end>
						<in>3309</in>
						<out>3580</out>
						<pproTicksIn>33621557760000</pproTicksIn>
						<pproTicksOut>36375091200000</pproTicksOut>
						<file id="file-42"/>
						<sourcetrack>
							<mediatype>audio</mediatype>
							<trackindex>1</trackindex>
						</sourcetrack>
							<filter>
								<effect>
									<name>Gain</name>
									<effectid>{61756678, 4761696e, 4b657947}</effectid>
									<effecttype>filter</effecttype>
									<mediatype>audio</mediatype>
									<parameter authoringApp="PremierePro">
										<parameterid>Gain(dB)</parameterid>
										<name>Gain(dB)</name>
										<valuemin>-96</valuemin>
										<valuemax>96</valuemax>
										<value>-6</value>
									</parameter>
								</effect>
							</filter>
							<filter>
								<effect>
									<name>Audio Levels</name>
									<effectid>audiolevels</effectid>
									<effectcategory>audiolevels</effectcategory>
									<effecttype>audiolevels</effecttype>
									<mediatype>audio</mediatype>
									<parameter authoringApp="PremierePro">
										<parameterid>level</parameterid>
										<name>Level</name>
										<valuemin>0</valuemin>
										<valuemax>3.98109</valuemax>
										<value>0.518768</value>
									</parameter>
								</effect>
							</filter>
						<link>
							<linkclipref>clipitem-230</linkclipref>
							<mediatype>audio</mediatype>
							<trackindex>11</trackindex>
							<clipindex>19</clipindex>
							<groupindex>1</groupindex>
						</link>
						<link>
							<linkclipref>clipitem-259</linkclipref>
							<mediatype>audio</mediatype>
							<trackindex>12</trackindex>
							<clipindex>19</clipindex>
							<groupindex>1</groupindex>
						</link>
						<logginginfo>
							<description></description>
							<scene></scene>
							<shottake></shottake>
							<lognote></lognote>
						</logginginfo>
						<labels>
							<label2>Caribbean</label2>
						</labels>
					</clipitem>
					<transitionitem>
						<start>16116</start>
						<end>16129</end>
						<alignment>start-black</alignment>
						<cutPointTicks>0</cutPointTicks>
						<rate>
							<timebase>25</timebase>
							<ntsc>FALSE</ntsc>
						</rate>
						<effect>
							<name>Cross Fade (+3dB)</name>
							<effectid>KGAudioTransCrossFade3dB</effectid>
							<effecttype>transition</effecttype>
							<mediatype>audio</mediatype>
							<wipecode>0</wipecode>
							<wipeaccuracy>100</wipeaccuracy>
							<startratio>0</startratio>
							<endratio>1</endratio>
							<reverse>FALSE</reverse>
						</effect>
					</transitionitem>
					<clipitem id="clipitem-231" premiereChannelType="stereo">
						<masterclipid>masterclip-36</masterclipid>
						<name>BR_586_5_Unstoppable_Force_Britton_858425.wav</name>
						<enabled>TRUE</enabled>
						<duration>3237</duration>
						<rate>
							<timebase>25</timebase>
							<ntsc>FALSE</ntsc>
						</rate>
						<start>-1</start>
						<end>-1</end>
						<in>12</in>
						<out>227</out>
						<pproTicksIn>121927680000</pproTicksIn>
						<pproTicksOut>2306465280000</pproTicksOut>
						<file id="file-34"/>
						<sourcetrack>
							<mediatype>audio</mediatype>
							<trackindex>1</trackindex>
						</sourcetrack>
							<filter>
								<effect>
									<name>Gain</name>
									<effectid>{61756678, 4761696e, 4b657947}</effectid>
									<effecttype>filter</effecttype>
									<mediatype>audio</mediatype>
									<parameter authoringApp="PremierePro">
										<parameterid>Gain(dB)</parameterid>
										<name>Gain(dB)</name>
										<valuemin>-96</valuemin>
										<valuemax>96</valuemax>
										<value>-18</value>
									</parameter>
								</effect>
							</filter>
						<link>
							<linkclipref>clipitem-231</linkclipref>
							<mediatype>audio</mediatype>
							<trackindex>11</trackindex>
							<clipindex>21</clipindex>
							<groupindex>1</groupindex>
						</link>
						<link>
							<linkclipref>clipitem-260</linkclipref>
							<mediatype>audio</mediatype>
							<trackindex>12</trackindex>
							<clipindex>21</clipindex>
							<groupindex>1</groupindex>
						</link>
						<logginginfo>
							<description></description>
							<scene></scene>
							<shottake></shottake>
							<lognote></lognote>
						</logginginfo>
						<labels>
							<label2>Caribbean</label2>
						</labels>
					</clipitem>
					<transitionitem>
						<start>16318</start>
						<end>16331</end>
						<alignment>end-black</alignment>
						<cutPointTicks>132088320000</cutPointTicks>
						<rate>
							<timebase>25</timebase>
							<ntsc>FALSE</ntsc>
						</rate>
						<effect>
							<name>Cross Fade (+3dB)</name>
							<effectid>KGAudioTransCrossFade3dB</effectid>
							<effecttype>transition</effecttype>
							<mediatype>audio</mediatype>
							<wipecode>0</wipecode>
							<wipeaccuracy>100</wipeaccuracy>
							<startratio>0</startratio>
							<endratio>1</endratio>
							<reverse>FALSE</reverse>
						</effect>
					</transitionitem>
					<clipitem id="clipitem-232" premiereChannelType="stereo">
						<masterclipid>masterclip-47</masterclipid>
						<name>ATMOS_291_17_Judging_Tension_Pemberton_656153.wav</name>
						<enabled>TRUE</enabled>
						<duration>2842</duration>
						<rate>
							<timebase>25</timebase>
							<ntsc>FALSE</ntsc>
						</rate>
						<start>17093</start>
						<end>-1</end>
						<in>0</in>
						<out>85</out>
						<pproTicksIn>0</pproTicksIn>
						<pproTicksOut>863654400000</pproTicksOut>
						<file id="file-45"/>
						<sourcetrack>
							<mediatype>audio</mediatype>
							<trackindex>1</trackindex>
						</sourcetrack>
							<filter>
								<effect>
									<name>Gain</name>
									<effectid>{61756678, 4761696e, 4b657947}</effectid>
									<effecttype>filter</effecttype>
									<mediatype>audio</mediatype>
									<parameter authoringApp="PremierePro">
										<parameterid>Gain(dB)</parameterid>
										<name>Gain(dB)</name>
										<valuemin>-96</valuemin>
										<valuemax>96</valuemax>
										<value>-6</value>
									</parameter>
								</effect>
							</filter>
						<link>
							<linkclipref>clipitem-232</linkclipref>
							<mediatype>audio</mediatype>
							<trackindex>11</trackindex>
							<clipindex>23</clipindex>
							<groupindex>1</groupindex>
						</link>
						<link>
							<linkclipref>clipitem-261</linkclipref>
							<mediatype>audio</mediatype>
							<trackindex>12</trackindex>
							<clipindex>23</clipindex>
							<groupindex>1</groupindex>
						</link>
						<logginginfo>
							<description></description>
							<scene></scene>
							<shottake></shottake>
							<lognote></lognote>
						</logginginfo>
						<labels>
							<label2>Caribbean</label2>
						</labels>
					</clipitem>
					<transitionitem>
						<start>17116</start>
						<end>17178</end>
						<alignment>end-black</alignment>
						<cutPointTicks>629959680000</cutPointTicks>
						<rate>
							<timebase>25</timebase>
							<ntsc>FALSE</ntsc>
						</rate>
						<effect>
							<name>Cross Fade (+3dB)</name>
							<effectid>KGAudioTransCrossFade3dB</effectid>
							<effecttype>transition</effecttype>
							<mediatype>audio</mediatype>
							<wipecode>0</wipecode>
							<wipeaccuracy>100</wipeaccuracy>
							<startratio>0</startratio>
							<endratio>1</endratio>
							<reverse>FALSE</reverse>
						</effect>
					</transitionitem>
					<transitionitem>
						<start>19056</start>
						<end>19063</end>
						<alignment>start-black</alignment>
						<cutPointTicks>0</cutPointTicks>
						<rate>
							<timebase>25</timebase>
							<ntsc>FALSE</ntsc>
						</rate>
						<effect>
							<name>Cross Fade (+3dB)</name>
							<effectid>KGAudioTransCrossFade3dB</effectid>
							<effecttype>transition</effecttype>
							<mediatype>audio</mediatype>
							<wipecode>0</wipecode>
							<wipeaccuracy>100</wipeaccuracy>
							<startratio>0</startratio>
							<endratio>1</endratio>
							<reverse>FALSE</reverse>
						</effect>
					</transitionitem>
					<clipitem id="clipitem-233" premiereChannelType="stereo">
						<masterclipid>masterclip-44</masterclipid>
						<name>KT_318_1_Sumo_Chant_Constantinou_Frazer_926859.wav</name>
						<enabled>TRUE</enabled>
						<duration>3627</duration>
						<rate>
							<timebase>25</timebase>
							<ntsc>FALSE</ntsc>
						</rate>
						<start>-1</start>
						<end>-1</end>
						<in>3321</in>
						<out>3500</out>
						<pproTicksIn>33743485440000</pproTicksIn>
						<pproTicksOut>35562240000000</pproTicksOut>
						<file id="file-42"/>
						<sourcetrack>
							<mediatype>audio</mediatype>
							<trackindex>1</trackindex>
						</sourcetrack>
							<filter>
								<effect>
									<name>Audio Levels</name>
									<effectid>audiolevels</effectid>
									<effectcategory>audiolevels</effectcategory>
									<effecttype>audiolevels</effecttype>
									<mediatype>audio</mediatype>
									<parameter authoringApp="PremierePro">
										<parameterid>level</parameterid>
										<name>Level</name>
										<valuemin>0</valuemin>
										<valuemax>3.98109</valuemax>
										<value>0.518768</value>
									</parameter>
								</effect>
							</filter>
						<link>
							<linkclipref>clipitem-233</linkclipref>
							<mediatype>audio</mediatype>
							<trackindex>11</trackindex>
							<clipindex>26</clipindex>
							<groupindex>1</groupindex>
						</link>
						<link>
							<linkclipref>clipitem-262</linkclipref>
							<mediatype>audio</mediatype>
							<trackindex>12</trackindex>
							<clipindex>26</clipindex>
							<groupindex>1</groupindex>
						</link>
						<logginginfo>
							<description></description>
							<scene></scene>
							<shottake></shottake>
							<lognote></lognote>
						</logginginfo>
						<labels>
							<label2>Caribbean</label2>
						</labels>
					</clipitem>
					<transitionitem>
						<start>19193</start>
						<end>19235</end>
						<alignment>end-black</alignment>
						<cutPointTicks>426746880000</cutPointTicks>
						<rate>
							<timebase>25</timebase>
							<ntsc>FALSE</ntsc>
						</rate>
						<effect>
							<name>Cross Fade (+3dB)</name>
							<effectid>KGAudioTransCrossFade3dB</effectid>
							<effecttype>transition</effecttype>
							<mediatype>audio</mediatype>
							<wipecode>0</wipecode>
							<wipeaccuracy>100</wipeaccuracy>
							<startratio>0</startratio>
							<endratio>1</endratio>
							<reverse>FALSE</reverse>
						</effect>
					</transitionitem>
					<clipitem id="clipitem-234" premiereChannelType="stereo">
						<masterclipid>masterclip-55</masterclipid>
						<name>SOHO_153_6_Liquor_To_Pandas_Ghettososcks_Lamb_Ross_912768.wav</name>
						<enabled>TRUE</enabled>
						<duration>5548</duration>
						<rate>
							<timebase>25</timebase>
							<ntsc>FALSE</ntsc>
						</rate>
						<start>27321</start>
						<end>-1</end>
						<in>248</in>
						<out>551</out>
						<pproTicksIn>2519838720000</pproTicksIn>
						<pproTicksOut>5598512640000</pproTicksOut>
						<file id="file-53">
							<name>SOHO_153_6_Liquor_To_Pandas_Ghettososcks_Lamb_Ross_912768.wav</name>
							<pathurl>file://localhost/Volumes/Bingen/Prosjekter/MYNT194016%20WHATS%20COOKING/Musikk/Marita/Lykke/Broshow%20(All%20main%20versions)/24B%3a48Hz/SOHO_153_6_Liquor_To_Pandas_Ghettososcks_Lamb_Ross_912768.wav</pathurl>
							<rate>
								<timebase>30</timebase>
								<ntsc>TRUE</ntsc>
							</rate>
							<duration>6652</duration>
							<timecode>
								<rate>
									<timebase>30</timebase>
									<ntsc>TRUE</ntsc>
								</rate>
								<string>00;00;00;05</string>
								<frame>5</frame>
								<displayformat>DF</displayformat>
								<reel>
									<name></name>
								</reel>
							</timecode>
							<media>
								<audio>
									<samplecharacteristics>
										<depth>16</depth>
										<samplerate>48000</samplerate>
									</samplecharacteristics>
									<channelcount>2</channelcount>
								</audio>
							</media>
						</file>
						<sourcetrack>
							<mediatype>audio</mediatype>
							<trackindex>1</trackindex>
						</sourcetrack>
							<filter>
								<effect>
									<name>Gain</name>
									<effectid>{61756678, 4761696e, 4b657947}</effectid>
									<effecttype>filter</effecttype>
									<mediatype>audio</mediatype>
									<parameter authoringApp="PremierePro">
										<parameterid>Gain(dB)</parameterid>
										<name>Gain(dB)</name>
										<valuemin>-96</valuemin>
										<valuemax>96</valuemax>
										<value>-18</value>
									</parameter>
								</effect>
							</filter>
							<marker>
								<comment></comment>
								<name></name>
								<in>5548</in>
								<out>-1</out>
							</marker>
							<marker>
								<comment></comment>
								<name></name>
								<in>0</in>
								<out>-1</out>
							</marker>
						<link>
							<linkclipref>clipitem-234</linkclipref>
							<mediatype>audio</mediatype>
							<trackindex>11</trackindex>
							<clipindex>28</clipindex>
							<groupindex>1</groupindex>
						</link>
						<link>
							<linkclipref>clipitem-263</linkclipref>
							<mediatype>audio</mediatype>
							<trackindex>12</trackindex>
							<clipindex>28</clipindex>
							<groupindex>1</groupindex>
						</link>
						<logginginfo>
							<description></description>
							<scene></scene>
							<shottake></shottake>
							<lognote>Hip-Hop, Trip-Hop and Chip-Shop. British made Big Beat, heavy kicks, fat snares, scratching, crushed hats, cool retro sounds from the Clubs</lognote>
						</logginginfo>
						<labels>
							<label2>Caribbean</label2>
						</labels>
					</clipitem>
					<transitionitem>
						<start>27549</start>
						<end>27624</end>
						<alignment>end-black</alignment>
						<cutPointTicks>762048000000</cutPointTicks>
						<rate>
							<timebase>25</timebase>
							<ntsc>FALSE</ntsc>
						</rate>
						<effect>
							<name>Cross Fade (+3dB)</name>
							<effectid>KGAudioTransCrossFade3dB</effectid>
							<effecttype>transition</effecttype>
							<mediatype>audio</mediatype>
							<wipecode>0</wipecode>
							<wipeaccuracy>100</wipeaccuracy>
							<startratio>0</startratio>
							<endratio>1</endratio>
							<reverse>FALSE</reverse>
						</effect>
					</transitionitem>
					<clipitem id="clipitem-235" premiereChannelType="stereo">
						<masterclipid>masterclip-51</masterclipid>
						<name>SVN_7_7_Rogue_Warrior_Lehrman_Nonte_922056.wav</name>
						<enabled>TRUE</enabled>
						<duration>2957</duration>
						<rate>
							<timebase>25</timebase>
							<ntsc>FALSE</ntsc>
						</rate>
						<start>28078</start>
						<end>28201</end>
						<in>65</in>
						<out>188</out>
						<pproTicksIn>660441600000</pproTicksIn>
						<pproTicksOut>1910200320000</pproTicksOut>
						<file id="file-49"/>
						<sourcetrack>
							<mediatype>audio</mediatype>
							<trackindex>1</trackindex>
						</sourcetrack>
							<filter>
								<effect>
									<name>Gain</name>
									<effectid>{61756678, 4761696e, 4b657947}</effectid>
									<effecttype>filter</effecttype>
									<mediatype>audio</mediatype>
									<parameter authoringApp="PremierePro">
										<parameterid>Gain(dB)</parameterid>
										<name>Gain(dB)</name>
										<valuemin>-96</valuemin>
										<valuemax>96</valuemax>
										<value>-9</value>
									</parameter>
								</effect>
							</filter>
						<link>
							<linkclipref>clipitem-235</linkclipref>
							<mediatype>audio</mediatype>
							<trackindex>11</trackindex>
							<clipindex>30</clipindex>
							<groupindex>1</groupindex>
						</link>
						<link>
							<linkclipref>clipitem-264</linkclipref>
							<mediatype>audio</mediatype>
							<trackindex>12</trackindex>
							<clipindex>30</clipindex>
							<groupindex>1</groupindex>
						</link>
						<logginginfo>
							<description></description>
							<scene></scene>
							<shottake></shottake>
							<lognote></lognote>
						</logginginfo>
						<labels>
							<label2>Caribbean</label2>
						</labels>
					</clipitem>
					<clipitem id="clipitem-236" premiereChannelType="stereo">
						<masterclipid>masterclip-51</masterclipid>
						<name>SVN_7_7_Rogue_Warrior_Lehrman_Nonte_922056.wav</name>
						<enabled>TRUE</enabled>
						<duration>2957</duration>
						<rate>
							<timebase>25</timebase>
							<ntsc>FALSE</ntsc>
						</rate>
						<start>28201</start>
						<end>-1</end>
						<in>209</in>
						<out>402</out>
						<pproTicksIn>2123573760000</pproTicksIn>
						<pproTicksOut>4084577280000</pproTicksOut>
						<file id="file-49"/>
						<sourcetrack>
							<mediatype>audio</mediatype>
							<trackindex>1</trackindex>
						</sourcetrack>
							<filter>
								<effect>
									<name>Gain</name>
									<effectid>{61756678, 4761696e, 4b657947}</effectid>
									<effecttype>filter</effecttype>
									<mediatype>audio</mediatype>
									<parameter authoringApp="PremierePro">
										<parameterid>Gain(dB)</parameterid>
										<name>Gain(dB)</name>
										<valuemin>-96</valuemin>
										<valuemax>96</valuemax>
										<value>-9</value>
									</parameter>
								</effect>
							</filter>
						<link>
							<linkclipref>clipitem-236</linkclipref>
							<mediatype>audio</mediatype>
							<trackindex>11</trackindex>
							<clipindex>31</clipindex>
							<groupindex>1</groupindex>
						</link>
						<link>
							<linkclipref>clipitem-265</linkclipref>
							<mediatype>audio</mediatype>
							<trackindex>12</trackindex>
							<clipindex>31</clipindex>
							<groupindex>1</groupindex>
						</link>
						<logginginfo>
							<description></description>
							<scene></scene>
							<shottake></shottake>
							<lognote></lognote>
						</logginginfo>
						<labels>
							<label2>Caribbean</label2>
						</labels>
					</clipitem>
					<transitionitem>
						<start>28374</start>
						<end>28394</end>
						<alignment>center</alignment>
						<cutPointTicks>93790116000</cutPointTicks>
						<rate>
							<timebase>25</timebase>
							<ntsc>FALSE</ntsc>
						</rate>
						<effect>
							<name>Cross Fade (+3dB)</name>
							<effectid>KGAudioTransCrossFade3dB</effectid>
							<effecttype>transition</effecttype>
							<mediatype>audio</mediatype>
							<wipecode>0</wipecode>
							<wipeaccuracy>100</wipeaccuracy>
							<startratio>0</startratio>
							<endratio>1</endratio>
							<reverse>FALSE</reverse>
						</effect>
					</transitionitem>
					<clipitem id="clipitem-237" premiereChannelType="stereo">
						<masterclipid>masterclip-51</masterclipid>
						<name>SVN_7_7_Rogue_Warrior_Lehrman_Nonte_922056.wav</name>
						<enabled>TRUE</enabled>
						<duration>2957</duration>
						<rate>
							<timebase>25</timebase>
							<ntsc>FALSE</ntsc>
						</rate>
						<start>-1</start>
						<end>-1</end>
						<in>382</in>
						<out>565</out>
						<pproTicksIn>3881364480000</pproTicksIn>
						<pproTicksOut>5740761600000</pproTicksOut>
						<file id="file-49"/>
						<sourcetrack>
							<mediatype>audio</mediatype>
							<trackindex>1</trackindex>
						</sourcetrack>
							<filter>
								<effect>
									<name>Gain</name>
									<effectid>{61756678, 4761696e, 4b657947}</effectid>
									<effecttype>filter</effecttype>
									<mediatype>audio</mediatype>
									<parameter authoringApp="PremierePro">
										<parameterid>Gain(dB)</parameterid>
										<name>Gain(dB)</name>
										<valuemin>-96</valuemin>
										<valuemax>96</valuemax>
										<value>-15</value>
									</parameter>
								</effect>
							</filter>
						<link>
							<linkclipref>clipitem-237</linkclipref>
							<mediatype>audio</mediatype>
							<trackindex>11</trackindex>
							<clipindex>33</clipindex>
							<groupindex>1</groupindex>
						</link>
						<link>
							<linkclipref>clipitem-266</linkclipref>
							<mediatype>audio</mediatype>
							<trackindex>12</trackindex>
							<clipindex>33</clipindex>
							<groupindex>1</groupindex>
						</link>
						<logginginfo>
							<description></description>
							<scene></scene>
							<shottake></shottake>
							<lognote></lognote>
						</logginginfo>
						<labels>
							<label2>Caribbean</label2>
						</labels>
					</clipitem>
					<transitionitem>
						<start>28550</start>
						<end>28557</end>
						<alignment>end-black</alignment>
						<cutPointTicks>71124480000</cutPointTicks>
						<rate>
							<timebase>25</timebase>
							<ntsc>FALSE</ntsc>
						</rate>
						<effect>
							<name>Cross Fade (+3dB)</name>
							<effectid>KGAudioTransCrossFade3dB</effectid>
							<effecttype>transition</effecttype>
							<mediatype>audio</mediatype>
							<wipecode>0</wipecode>
							<wipeaccuracy>100</wipeaccuracy>
							<startratio>0</startratio>
							<endratio>1</endratio>
							<reverse>FALSE</reverse>
						</effect>
					</transitionitem>
					<clipitem id="clipitem-238" premiereChannelType="stereo">
						<masterclipid>masterclip-56</masterclipid>
						<name>Audio 10.wav</name>
						<enabled>TRUE</enabled>
						<duration>447</duration>
						<rate>
							<timebase>25</timebase>
							<ntsc>FALSE</ntsc>
						</rate>
						<start>31108</start>
						<end>31137</end>
						<in>55</in>
						<out>84</out>
						<pproTicksIn>558835200000</pproTicksIn>
						<pproTicksOut>853493760000</pproTicksOut>
						<file id="file-54">
							<name>Audio 10.wav</name>
							<pathurl>file://localhost/Volumes/Bingen/Prosjekter/MYNT194016%20WHATS%20COOKING/Prosjektfiler/Premiere%20Prosjekter/Episodeprosjekter/Audio%2010.wav</pathurl>
							<rate>
								<timebase>30</timebase>
								<ntsc>TRUE</ntsc>
							</rate>
							<duration>536</duration>
							<timecode>
								<rate>
									<timebase>30</timebase>
									<ntsc>TRUE</ntsc>
								</rate>
								<string>00;00;00;00</string>
								<frame>0</frame>
								<displayformat>DF</displayformat>
								<reel>
									<name></name>
								</reel>
							</timecode>
							<media>
								<audio>
									<samplecharacteristics>
										<depth>16</depth>
										<samplerate>48000</samplerate>
									</samplecharacteristics>
									<channelcount>2</channelcount>
								</audio>
							</media>
						</file>
						<sourcetrack>
							<mediatype>audio</mediatype>
							<trackindex>1</trackindex>
						</sourcetrack>
						<link>
							<linkclipref>clipitem-238</linkclipref>
							<mediatype>audio</mediatype>
							<trackindex>11</trackindex>
							<clipindex>35</clipindex>
							<groupindex>1</groupindex>
						</link>
						<link>
							<linkclipref>clipitem-267</linkclipref>
							<mediatype>audio</mediatype>
							<trackindex>12</trackindex>
							<clipindex>35</clipindex>
							<groupindex>1</groupindex>
						</link>
						<logginginfo>
							<description></description>
							<scene></scene>
							<shottake></shottake>
							<lognote></lognote>
						</logginginfo>
						<labels>
							<label2>Caribbean</label2>
						</labels>
					</clipitem>
					<clipitem id="clipitem-239" premiereChannelType="stereo">
						<masterclipid>masterclip-56</masterclipid>
						<name>Audio 10.wav</name>
						<enabled>TRUE</enabled>
						<duration>447</duration>
						<rate>
							<timebase>25</timebase>
							<ntsc>FALSE</ntsc>
						</rate>
						<start>31176</start>
						<end>31223</end>
						<in>166</in>
						<out>213</out>
						<pproTicksIn>1686666240000</pproTicksIn>
						<pproTicksOut>2164216320000</pproTicksOut>
						<file id="file-54"/>
						<sourcetrack>
							<mediatype>audio</mediatype>
							<trackindex>1</trackindex>
						</sourcetrack>
						<link>
							<linkclipref>clipitem-239</linkclipref>
							<mediatype>audio</mediatype>
							<trackindex>11</trackindex>
							<clipindex>36</clipindex>
							<groupindex>1</groupindex>
						</link>
						<link>
							<linkclipref>clipitem-268</linkclipref>
							<mediatype>audio</mediatype>
							<trackindex>12</trackindex>
							<clipindex>36</clipindex>
							<groupindex>1</groupindex>
						</link>
						<logginginfo>
							<description></description>
							<scene></scene>
							<shottake></shottake>
							<lognote></lognote>
						</logginginfo>
						<labels>
							<label2>Caribbean</label2>
						</labels>
					</clipitem>
					<clipitem id="clipitem-240" premiereChannelType="stereo">
						<masterclipid>masterclip-57</masterclipid>
						<name>Audio 10_1.wav</name>
						<enabled>TRUE</enabled>
						<duration>398</duration>
						<rate>
							<timebase>25</timebase>
							<ntsc>FALSE</ntsc>
						</rate>
						<start>31282</start>
						<end>31304</end>
						<in>182</in>
						<out>204</out>
						<pproTicksIn>1849236480000</pproTicksIn>
						<pproTicksOut>2072770560000</pproTicksOut>
						<file id="file-55">
							<name>Audio 10_1.wav</name>
							<pathurl>file://localhost/Volumes/Bingen/Prosjekter/MYNT194016%20WHATS%20COOKING/Prosjektfiler/Premiere%20Prosjekter/Episodeprosjekter/Audio%2010_1.wav</pathurl>
							<rate>
								<timebase>30</timebase>
								<ntsc>TRUE</ntsc>
							</rate>
							<duration>478</duration>
							<timecode>
								<rate>
									<timebase>30</timebase>
									<ntsc>TRUE</ntsc>
								</rate>
								<string>00;00;00;00</string>
								<frame>0</frame>
								<displayformat>DF</displayformat>
								<reel>
									<name></name>
								</reel>
							</timecode>
							<media>
								<audio>
									<samplecharacteristics>
										<depth>16</depth>
										<samplerate>48000</samplerate>
									</samplecharacteristics>
									<channelcount>2</channelcount>
								</audio>
							</media>
						</file>
						<sourcetrack>
							<mediatype>audio</mediatype>
							<trackindex>1</trackindex>
						</sourcetrack>
						<link>
							<linkclipref>clipitem-240</linkclipref>
							<mediatype>audio</mediatype>
							<trackindex>11</trackindex>
							<clipindex>37</clipindex>
							<groupindex>1</groupindex>
						</link>
						<link>
							<linkclipref>clipitem-269</linkclipref>
							<mediatype>audio</mediatype>
							<trackindex>12</trackindex>
							<clipindex>37</clipindex>
							<groupindex>1</groupindex>
						</link>
						<logginginfo>
							<description></description>
							<scene></scene>
							<shottake></shottake>
							<lognote></lognote>
						</logginginfo>
						<labels>
							<label2>Caribbean</label2>
						</labels>
					</clipitem>
					<transitionitem>
						<start>31484</start>
						<end>31497</end>
						<alignment>start-black</alignment>
						<cutPointTicks>0</cutPointTicks>
						<rate>
							<timebase>25</timebase>
							<ntsc>FALSE</ntsc>
						</rate>
						<effect>
							<name>Cross Fade (+3dB)</name>
							<effectid>KGAudioTransCrossFade3dB</effectid>
							<effecttype>transition</effecttype>
							<mediatype>audio</mediatype>
							<wipecode>0</wipecode>
							<wipeaccuracy>100</wipeaccuracy>
							<startratio>0</startratio>
							<endratio>1</endratio>
							<reverse>FALSE</reverse>
						</effect>
					</transitionitem>
					<clipitem id="clipitem-241" premiereChannelType="mono">
						<masterclipid>masterclip-4</masterclipid>
						<name>Moslet.mov</name>
						<enabled>TRUE</enabled>
						<duration>1910</duration>
						<rate>
							<timebase>25</timebase>
							<ntsc>FALSE</ntsc>
						</rate>
						<start>-1</start>
						<end>31537</end>
						<in>17</in>
						<out>70</out>
						<pproTicksIn>172730880000</pproTicksIn>
						<pproTicksOut>711244800000</pproTicksOut>
						<file id="file-4"/>
						<sourcetrack>
							<mediatype>audio</mediatype>
							<trackindex>1</trackindex>
						</sourcetrack>
						<logginginfo>
							<description></description>
							<scene></scene>
							<shottake></shottake>
							<lognote></lognote>
						</logginginfo>
						<labels>
							<label2>Iris</label2>
						</labels>
					</clipitem>
					<clipitem id="clipitem-242" premiereChannelType="mono">
						<masterclipid>masterclip-4</masterclipid>
						<name>Moslet.mov</name>
						<enabled>TRUE</enabled>
						<duration>1910</duration>
						<rate>
							<timebase>25</timebase>
							<ntsc>FALSE</ntsc>
						</rate>
						<start>31537</start>
						<end>-1</end>
						<in>89</in>
						<out>314</out>
						<pproTicksIn>904296960000</pproTicksIn>
						<pproTicksOut>3190440960000</pproTicksOut>
						<file id="file-4"/>
						<sourcetrack>
							<mediatype>audio</mediatype>
							<trackindex>1</trackindex>
						</sourcetrack>
						<logginginfo>
							<description></description>
							<scene></scene>
							<shottake></shottake>
							<lognote></lognote>
						</logginginfo>
						<labels>
							<label2>Iris</label2>
						</labels>
					</clipitem>
					<transitionitem>
						<start>31749</start>
						<end>31762</end>
						<alignment>end-black</alignment>
						<cutPointTicks>132088320000</cutPointTicks>
						<rate>
							<timebase>25</timebase>
							<ntsc>FALSE</ntsc>
						</rate>
						<effect>
							<name>Cross Fade (+3dB)</name>
							<effectid>KGAudioTransCrossFade3dB</effectid>
							<effecttype>transition</effecttype>
							<mediatype>audio</mediatype>
							<wipecode>0</wipecode>
							<wipeaccuracy>100</wipeaccuracy>
							<startratio>0</startratio>
							<endratio>1</endratio>
							<reverse>FALSE</reverse>
						</effect>
					</transitionitem>
					<clipitem id="clipitem-243" premiereChannelType="mono">
						<masterclipid>masterclip-8</masterclipid>
						<name>Manbir_1.mov</name>
						<enabled>TRUE</enabled>
						<duration>530</duration>
						<rate>
							<timebase>25</timebase>
							<ntsc>FALSE</ntsc>
						</rate>
						<start>31765</start>
						<end>31924</end>
						<in>0</in>
						<out>159</out>
						<pproTicksIn>0</pproTicksIn>
						<pproTicksOut>1615541760000</pproTicksOut>
						<file id="file-7"/>
						<sourcetrack>
							<mediatype>audio</mediatype>
							<trackindex>1</trackindex>
						</sourcetrack>
						<logginginfo>
							<description></description>
							<scene></scene>
							<shottake></shottake>
							<lognote></lognote>
						</logginginfo>
						<labels>
							<label2>Iris</label2>
						</labels>
					</clipitem>
					<clipitem id="clipitem-244" premiereChannelType="mono">
						<masterclipid>masterclip-6</masterclipid>
						<name>zeid_1.mov</name>
						<enabled>TRUE</enabled>
						<duration>743</duration>
						<rate>
							<timebase>25</timebase>
							<ntsc>FALSE</ntsc>
						</rate>
						<start>31924</start>
						<end>32002</end>
						<in>28</in>
						<out>106</out>
						<pproTicksIn>284497920000</pproTicksIn>
						<pproTicksOut>1077027840000</pproTicksOut>
						<file id="file-5"/>
						<sourcetrack>
							<mediatype>audio</mediatype>
							<trackindex>1</trackindex>
						</sourcetrack>
						<logginginfo>
							<description></description>
							<scene></scene>
							<shottake></shottake>
							<lognote></lognote>
						</logginginfo>
						<labels>
							<label2>Iris</label2>
						</labels>
					</clipitem>
					<clipitem id="clipitem-245" premiereChannelType="mono">
						<masterclipid>masterclip-6</masterclipid>
						<name>zeid_1.mov</name>
						<enabled>TRUE</enabled>
						<duration>743</duration>
						<rate>
							<timebase>25</timebase>
							<ntsc>FALSE</ntsc>
						</rate>
						<start>32002</start>
						<end>32139</end>
						<in>593</in>
						<out>730</out>
						<pproTicksIn>6025259520000</pproTicksIn>
						<pproTicksOut>7417267200000</pproTicksOut>
						<file id="file-5"/>
						<sourcetrack>
							<mediatype>audio</mediatype>
							<trackindex>1</trackindex>
						</sourcetrack>
							<filter>
								<effect>
									<name>Audio Levels</name>
									<effectid>audiolevels</effectid>
									<effectcategory>audiolevels</effectcategory>
									<effecttype>audiolevels</effecttype>
									<mediatype>audio</mediatype>
									<parameter authoringApp="PremierePro">
										<parameterid>level</parameterid>
										<name>Level</name>
										<valuemin>0</valuemin>
										<valuemax>3.98109</valuemax>
										<value>0.991449</value>
									</parameter>
								</effect>
							</filter>
						<logginginfo>
							<description></description>
							<scene></scene>
							<shottake></shottake>
							<lognote></lognote>
						</logginginfo>
						<labels>
							<label2>Iris</label2>
						</labels>
					</clipitem>
					<clipitem id="clipitem-246" premiereChannelType="mono">
						<masterclipid>masterclip-4</masterclipid>
						<name>Moslet.mov</name>
						<enabled>TRUE</enabled>
						<duration>1910</duration>
						<rate>
							<timebase>25</timebase>
							<ntsc>FALSE</ntsc>
						</rate>
						<start>32139</start>
						<end>-1</end>
						<in>1795</in>
						<out>1879</out>
						<pproTicksIn>18238348800000</pproTicksIn>
						<pproTicksOut>19091842560000</pproTicksOut>
						<file id="file-4"/>
						<sourcetrack>
							<mediatype>audio</mediatype>
							<trackindex>1</trackindex>
						</sourcetrack>
							<filter>
								<effect>
									<name>Gain</name>
									<effectid>{61756678, 4761696e, 4b657947}</effectid>
									<effecttype>filter</effecttype>
									<mediatype>audio</mediatype>
									<parameter authoringApp="PremierePro">
										<parameterid>Gain(dB)</parameterid>
										<name>Gain(dB)</name>
										<valuemin>-96</valuemin>
										<valuemax>96</valuemax>
										<value>9</value>
									</parameter>
								</effect>
							</filter>
						<logginginfo>
							<description></description>
							<scene></scene>
							<shottake></shottake>
							<lognote></lognote>
						</logginginfo>
						<labels>
							<label2>Iris</label2>
						</labels>
					</clipitem>
					<transitionitem>
						<start>32210</start>
						<end>32223</end>
						<alignment>end-black</alignment>
						<cutPointTicks>132088320000</cutPointTicks>
						<rate>
							<timebase>25</timebase>
							<ntsc>FALSE</ntsc>
						</rate>
						<effect>
							<name>Cross Fade (+3dB)</name>
							<effectid>KGAudioTransCrossFade3dB</effectid>
							<effecttype>transition</effecttype>
							<mediatype>audio</mediatype>
							<wipecode>0</wipecode>
							<wipeaccuracy>100</wipeaccuracy>
							<startratio>0</startratio>
							<endratio>1</endratio>
							<reverse>FALSE</reverse>
						</effect>
					</transitionitem>
					<clipitem id="clipitem-247" premiereChannelType="stereo">
						<masterclipid>masterclip-58</masterclipid>
						<name>video-1462113101_1.mov</name>
						<enabled>TRUE</enabled>
						<duration>623</duration>
						<rate>
							<timebase>25</timebase>
							<ntsc>FALSE</ntsc>
						</rate>
						<start>32358</start>
						<end>32466</end>
						<in>368</in>
						<out>476</out>
						<pproTicksIn>3739115520000</pproTicksIn>
						<pproTicksOut>4836464640000</pproTicksOut>
						<pixelaspectratio>square</pixelaspectratio>
						<anamorphic>FALSE</anamorphic>
						<file id="file-56">
							<name>video-1462113101_1.mov</name>
							<pathurl>file://localhost/Volumes/Bingen/Prosjekter/MYNT194016%20WHATS%20COOKING/Media/Episode%2006%20Lykke/VB-opptak/VB%20Foredrag/ProRes/video-1462113101_1.mov</pathurl>
							<rate>
								<timebase>25</timebase>
								<ntsc>FALSE</ntsc>
							</rate>
							<duration>623</duration>
							<timecode>
								<rate>
									<timebase>25</timebase>
									<ntsc>FALSE</ntsc>
								</rate>
								<string>00:00:00:00</string>
								<frame>0</frame>
								<displayformat>NDF</displayformat>
								<reel>
									<name></name>
								</reel>
							</timecode>
							<media>
								<video>
									<samplecharacteristics>
										<rate>
											<timebase>25</timebase>
											<ntsc>FALSE</ntsc>
										</rate>
										<width>1920</width>
										<height>1080</height>
										<anamorphic>FALSE</anamorphic>
										<pixelaspectratio>square</pixelaspectratio>
										<fielddominance>none</fielddominance>
									</samplecharacteristics>
								</video>
								<audio>
									<samplecharacteristics>
										<depth>16</depth>
										<samplerate>48000</samplerate>
									</samplecharacteristics>
									<channelcount>2</channelcount>
								</audio>
							</media>
						</file>
						<sourcetrack>
							<mediatype>audio</mediatype>
							<trackindex>1</trackindex>
						</sourcetrack>
						<link>
							<linkclipref>clipitem-247</linkclipref>
							<mediatype>audio</mediatype>
							<trackindex>11</trackindex>
							<clipindex>47</clipindex>
							<groupindex>1</groupindex>
						</link>
						<link>
							<linkclipref>clipitem-270</linkclipref>
							<mediatype>audio</mediatype>
							<trackindex>12</trackindex>
							<clipindex>38</clipindex>
							<groupindex>1</groupindex>
						</link>
						<logginginfo>
							<description></description>
							<scene></scene>
							<shottake></shottake>
							<lognote></lognote>
						</logginginfo>
						<labels>
							<label2>Iris</label2>
						</labels>
					</clipitem>
					<clipitem id="clipitem-248" premiereChannelType="mono">
						<masterclipid>masterclip-58</masterclipid>
						<name>video-1462113101_1.mov</name>
						<enabled>TRUE</enabled>
						<duration>623</duration>
						<rate>
							<timebase>25</timebase>
							<ntsc>FALSE</ntsc>
						</rate>
						<start>32586</start>
						<end>32604</end>
						<in>605</in>
						<out>623</out>
						<pproTicksIn>6147187200000</pproTicksIn>
						<pproTicksOut>6330078720000</pproTicksOut>
						<file id="file-56"/>
						<sourcetrack>
							<mediatype>audio</mediatype>
							<trackindex>1</trackindex>
						</sourcetrack>
							<filter>
								<effect>
									<name>Audio Levels</name>
									<effectid>audiolevels</effectid>
									<effectcategory>audiolevels</effectcategory>
									<effecttype>audiolevels</effecttype>
									<mediatype>audio</mediatype>
									<parameter authoringApp="PremierePro">
										<parameterid>level</parameterid>
										<name>Level</name>
										<valuemin>0</valuemin>
										<valuemax>3.98109</valuemax>
										<value>0.983063</value>
									</parameter>
								</effect>
							</filter>
						<logginginfo>
							<description></description>
							<scene></scene>
							<shottake></shottake>
							<lognote></lognote>
						</logginginfo>
						<labels>
							<label2>Iris</label2>
						</labels>
					</clipitem>
					<enabled>TRUE</enabled>
					<locked>FALSE</locked>
					<outputchannelindex>1</outputchannelindex>
				</track>
				<track TL.SQTrackAudioKeyframeStyle="0" TL.SQTrackShy="0" TL.SQTrackExpandedHeight="65" TL.SQTrackExpanded="1" MZ.TrackTargeted="0" PannerCurrentValue="0.5" PannerIsInverted="true" PannerStartKeyframe="-91445760000000000,0.5,0,0,0,0,0,0" PannerName="Balance" currentExplodedTrackIndex="1" totalExplodedTrackCount="2" premiereTrackType="Stereo">
					<clipitem id="clipitem-249" premiereChannelType="stereo">
						<masterclipid>masterclip-36</masterclipid>
						<name>BR_586_5_Unstoppable_Force_Britton_858425.wav</name>
						<enabled>TRUE</enabled>
						<duration>3237</duration>
						<rate>
							<timebase>25</timebase>
							<ntsc>FALSE</ntsc>
						</rate>
						<start>0</start>
						<end>-1</end>
						<in>47</in>
						<out>324</out>
						<pproTicksIn>477550080000</pproTicksIn>
						<pproTicksOut>3292047360000</pproTicksOut>
						<file id="file-34"/>
						<sourcetrack>
							<mediatype>audio</mediatype>
							<trackindex>2</trackindex>
						</sourcetrack>
							<filter>
								<effect>
									<name>Gain</name>
									<effectid>{61756678, 4761696e, 4b657947}</effectid>
									<effecttype>filter</effecttype>
									<mediatype>audio</mediatype>
									<parameter authoringApp="PremierePro">
										<parameterid>Gain(dB)</parameterid>
										<name>Gain(dB)</name>
										<valuemin>-96</valuemin>
										<valuemax>96</valuemax>
										<value>-18</value>
									</parameter>
								</effect>
							</filter>
						<link>
							<linkclipref>clipitem-220</linkclipref>
							<mediatype>audio</mediatype>
							<trackindex>11</trackindex>
							<clipindex>1</clipindex>
							<groupindex>1</groupindex>
						</link>
						<link>
							<linkclipref>clipitem-249</linkclipref>
							<mediatype>audio</mediatype>
							<trackindex>12</trackindex>
							<clipindex>1</clipindex>
							<groupindex>1</groupindex>
						</link>
						<logginginfo>
							<description></description>
							<scene></scene>
							<shottake></shottake>
							<lognote></lognote>
						</logginginfo>
						<labels>
							<label2>Caribbean</label2>
						</labels>
					</clipitem>
					<transitionitem>
						<start>264</start>
						<end>277</end>
						<alignment>center</alignment>
						<cutPointTicks>60963840000</cutPointTicks>
						<rate>
							<timebase>25</timebase>
							<ntsc>FALSE</ntsc>
						</rate>
						<effect>
							<name>Cross Fade (+3dB)</name>
							<effectid>KGAudioTransCrossFade3dB</effectid>
							<effecttype>transition</effecttype>
							<mediatype>audio</mediatype>
							<wipecode>0</wipecode>
							<wipeaccuracy>100</wipeaccuracy>
							<startratio>0</startratio>
							<endratio>1</endratio>
							<reverse>FALSE</reverse>
						</effect>
					</transitionitem>
					<clipitem id="clipitem-250" premiereChannelType="stereo">
						<masterclipid>masterclip-36</masterclipid>
						<name>BR_586_5_Unstoppable_Force_Britton_858425.wav</name>
						<enabled>TRUE</enabled>
						<duration>3237</duration>
						<rate>
							<timebase>25</timebase>
							<ntsc>FALSE</ntsc>
						</rate>
						<start>-1</start>
						<end>387</end>
						<in>2926</in>
						<out>3049</out>
						<pproTicksIn>29730032640000</pproTicksIn>
						<pproTicksOut>30979791360000</pproTicksOut>
						<file id="file-34"/>
						<sourcetrack>
							<mediatype>audio</mediatype>
							<trackindex>2</trackindex>
						</sourcetrack>
							<filter>
								<effect>
									<name>Gain</name>
									<effectid>{61756678, 4761696e, 4b657947}</effectid>
									<effecttype>filter</effecttype>
									<mediatype>audio</mediatype>
									<parameter authoringApp="PremierePro">
										<parameterid>Gain(dB)</parameterid>
										<name>Gain(dB)</name>
										<valuemin>-96</valuemin>
										<valuemax>96</valuemax>
										<value>-12</value>
									</parameter>
								</effect>
							</filter>
						<link>
							<linkclipref>clipitem-221</linkclipref>
							<mediatype>audio</mediatype>
							<trackindex>11</trackindex>
							<clipindex>3</clipindex>
							<groupindex>1</groupindex>
						</link>
						<link>
							<linkclipref>clipitem-250</linkclipref>
							<mediatype>audio</mediatype>
							<trackindex>12</trackindex>
							<clipindex>3</clipindex>
							<groupindex>1</groupindex>
						</link>
						<logginginfo>
							<description></description>
							<scene></scene>
							<shottake></shottake>
							<lognote></lognote>
						</logginginfo>
						<labels>
							<label2>Caribbean</label2>
						</labels>
					</clipitem>
					<clipitem id="clipitem-251" premiereChannelType="stereo">
						<masterclipid>masterclip-53</masterclipid>
						<name>NONRE633380HD0006 Keefa (Instrumental).wav</name>
						<enabled>TRUE</enabled>
						<duration>4994</duration>
						<rate>
							<timebase>25</timebase>
							<ntsc>FALSE</ntsc>
						</rate>
						<start>5131</start>
						<end>-1</end>
						<in>0</in>
						<out>148</out>
						<pproTicksIn>0</pproTicksIn>
						<pproTicksOut>1503774720000</pproTicksOut>
						<file id="file-51"/>
						<sourcetrack>
							<mediatype>audio</mediatype>
							<trackindex>2</trackindex>
						</sourcetrack>
							<filter>
								<effect>
									<name>Gain</name>
									<effectid>{61756678, 4761696e, 4b657947}</effectid>
									<effecttype>filter</effecttype>
									<mediatype>audio</mediatype>
									<parameter authoringApp="PremierePro">
										<parameterid>Gain(dB)</parameterid>
										<name>Gain(dB)</name>
										<valuemin>-96</valuemin>
										<valuemax>96</valuemax>
										<value>-10</value>
									</parameter>
								</effect>
							</filter>
						<link>
							<linkclipref>clipitem-222</linkclipref>
							<mediatype>audio</mediatype>
							<trackindex>11</trackindex>
							<clipindex>4</clipindex>
							<groupindex>1</groupindex>
						</link>
						<link>
							<linkclipref>clipitem-251</linkclipref>
							<mediatype>audio</mediatype>
							<trackindex>12</trackindex>
							<clipindex>4</clipindex>
							<groupindex>1</groupindex>
						</link>
						<logginginfo>
							<description></description>
							<scene></scene>
							<shottake></shottake>
							<lognote></lognote>
						</logginginfo>
						<labels>
							<label2>Violet</label2>
						</labels>
					</clipitem>
					<transitionitem>
						<start>5266</start>
						<end>5279</end>
						<alignment>center</alignment>
						<cutPointTicks>60963840000</cutPointTicks>
						<rate>
							<timebase>25</timebase>
							<ntsc>FALSE</ntsc>
						</rate>
						<effect>
							<name>Cross Fade (+3dB)</name>
							<effectid>KGAudioTransCrossFade3dB</effectid>
							<effecttype>transition</effecttype>
							<mediatype>audio</mediatype>
							<wipecode>0</wipecode>
							<wipeaccuracy>100</wipeaccuracy>
							<startratio>0</startratio>
							<endratio>1</endratio>
							<reverse>FALSE</reverse>
						</effect>
					</transitionitem>
					<clipitem id="clipitem-252" premiereChannelType="stereo">
						<masterclipid>masterclip-53</masterclipid>
						<name>NONRE633380HD0006 Keefa (Instrumental).wav</name>
						<enabled>TRUE</enabled>
						<duration>4994</duration>
						<rate>
							<timebase>25</timebase>
							<ntsc>FALSE</ntsc>
						</rate>
						<start>-1</start>
						<end>-1</end>
						<in>135</in>
						<out>280</out>
						<pproTicksIn>1371686400000</pproTicksIn>
						<pproTicksOut>2844979200000</pproTicksOut>
						<file id="file-51"/>
						<sourcetrack>
							<mediatype>audio</mediatype>
							<trackindex>2</trackindex>
						</sourcetrack>
							<filter>
								<effect>
									<name>Gain</name>
									<effectid>{61756678, 4761696e, 4b657947}</effectid>
									<effecttype>filter</effecttype>
									<mediatype>audio</mediatype>
									<parameter authoringApp="PremierePro">
										<parameterid>Gain(dB)</parameterid>
										<name>Gain(dB)</name>
										<valuemin>-96</valuemin>
										<valuemax>96</valuemax>
										<value>-28</value>
									</parameter>
								</effect>
							</filter>
						<link>
							<linkclipref>clipitem-223</linkclipref>
							<mediatype>audio</mediatype>
							<trackindex>11</trackindex>
							<clipindex>6</clipindex>
							<groupindex>1</groupindex>
						</link>
						<link>
							<linkclipref>clipitem-252</linkclipref>
							<mediatype>audio</mediatype>
							<trackindex>12</trackindex>
							<clipindex>6</clipindex>
							<groupindex>1</groupindex>
						</link>
						<logginginfo>
							<description></description>
							<scene></scene>
							<shottake></shottake>
							<lognote></lognote>
						</logginginfo>
						<labels>
							<label2>Violet</label2>
						</labels>
					</clipitem>
					<transitionitem>
						<start>5325</start>
						<end>5411</end>
						<alignment>end-black</alignment>
						<cutPointTicks>873815040000</cutPointTicks>
						<rate>
							<timebase>25</timebase>
							<ntsc>FALSE</ntsc>
						</rate>
						<effect>
							<name>Cross Fade (+3dB)</name>
							<effectid>KGAudioTransCrossFade3dB</effectid>
							<effecttype>transition</effecttype>
							<mediatype>audio</mediatype>
							<wipecode>0</wipecode>
							<wipeaccuracy>100</wipeaccuracy>
							<startratio>0</startratio>
							<endratio>1</endratio>
							<reverse>FALSE</reverse>
						</effect>
					</transitionitem>
					<clipitem id="clipitem-253" premiereChannelType="stereo">
						<masterclipid>masterclip-54</masterclipid>
						<name>NONRE639242HD0002 Trust Me Danny.wav</name>
						<enabled>TRUE</enabled>
						<duration>6105</duration>
						<rate>
							<timebase>25</timebase>
							<ntsc>FALSE</ntsc>
						</rate>
						<start>10801</start>
						<end>-1</end>
						<in>1</in>
						<out>253</out>
						<pproTicksIn>10160640000</pproTicksIn>
						<pproTicksOut>2570641920000</pproTicksOut>
						<file id="file-52"/>
						<sourcetrack>
							<mediatype>audio</mediatype>
							<trackindex>2</trackindex>
						</sourcetrack>
							<filter>
								<effect>
									<name>Gain</name>
									<effectid>{61756678, 4761696e, 4b657947}</effectid>
									<effecttype>filter</effecttype>
									<mediatype>audio</mediatype>
									<parameter authoringApp="PremierePro">
										<parameterid>Gain(dB)</parameterid>
										<name>Gain(dB)</name>
										<valuemin>-96</valuemin>
										<valuemax>96</valuemax>
										<value>-6</value>
									</parameter>
								</effect>
							</filter>
						<link>
							<linkclipref>clipitem-224</linkclipref>
							<mediatype>audio</mediatype>
							<trackindex>11</trackindex>
							<clipindex>8</clipindex>
							<groupindex>1</groupindex>
						</link>
						<link>
							<linkclipref>clipitem-253</linkclipref>
							<mediatype>audio</mediatype>
							<trackindex>12</trackindex>
							<clipindex>8</clipindex>
							<groupindex>1</groupindex>
						</link>
						<logginginfo>
							<description></description>
							<scene></scene>
							<shottake></shottake>
							<lognote></lognote>
						</logginginfo>
						<labels>
							<label2>Caribbean</label2>
						</labels>
					</clipitem>
					<transitionitem>
						<start>11033</start>
						<end>11053</end>
						<alignment>center</alignment>
						<cutPointTicks>93790116000</cutPointTicks>
						<rate>
							<timebase>25</timebase>
							<ntsc>FALSE</ntsc>
						</rate>
						<effect>
							<name>Cross Fade (+3dB)</name>
							<effectid>KGAudioTransCrossFade3dB</effectid>
							<effecttype>transition</effecttype>
							<mediatype>audio</mediatype>
							<wipecode>0</wipecode>
							<wipeaccuracy>100</wipeaccuracy>
							<startratio>0</startratio>
							<endratio>1</endratio>
							<reverse>FALSE</reverse>
						</effect>
					</transitionitem>
					<clipitem id="clipitem-254" premiereChannelType="stereo">
						<masterclipid>masterclip-54</masterclipid>
						<name>NONRE639242HD0002 Trust Me Danny.wav</name>
						<enabled>TRUE</enabled>
						<duration>6105</duration>
						<rate>
							<timebase>25</timebase>
							<ntsc>FALSE</ntsc>
						</rate>
						<start>-1</start>
						<end>-1</end>
						<in>233</in>
						<out>347</out>
						<pproTicksIn>2367429120000</pproTicksIn>
						<pproTicksOut>3525742080000</pproTicksOut>
						<file id="file-52"/>
						<sourcetrack>
							<mediatype>audio</mediatype>
							<trackindex>2</trackindex>
						</sourcetrack>
							<filter>
								<effect>
									<name>Gain</name>
									<effectid>{61756678, 4761696e, 4b657947}</effectid>
									<effecttype>filter</effecttype>
									<mediatype>audio</mediatype>
									<parameter authoringApp="PremierePro">
										<parameterid>Gain(dB)</parameterid>
										<name>Gain(dB)</name>
										<valuemin>-96</valuemin>
										<valuemax>96</valuemax>
										<value>-27</value>
									</parameter>
								</effect>
							</filter>
						<link>
							<linkclipref>clipitem-225</linkclipref>
							<mediatype>audio</mediatype>
							<trackindex>11</trackindex>
							<clipindex>10</clipindex>
							<groupindex>1</groupindex>
						</link>
						<link>
							<linkclipref>clipitem-254</linkclipref>
							<mediatype>audio</mediatype>
							<trackindex>12</trackindex>
							<clipindex>10</clipindex>
							<groupindex>1</groupindex>
						</link>
						<logginginfo>
							<description></description>
							<scene></scene>
							<shottake></shottake>
							<lognote></lognote>
						</logginginfo>
						<labels>
							<label2>Caribbean</label2>
						</labels>
					</clipitem>
					<transitionitem>
						<start>11076</start>
						<end>11147</end>
						<alignment>end-black</alignment>
						<cutPointTicks>721405440000</cutPointTicks>
						<rate>
							<timebase>25</timebase>
							<ntsc>FALSE</ntsc>
						</rate>
						<effect>
							<name>Cross Fade (+3dB)</name>
							<effectid>KGAudioTransCrossFade3dB</effectid>
							<effecttype>transition</effecttype>
							<mediatype>audio</mediatype>
							<wipecode>0</wipecode>
							<wipeaccuracy>100</wipeaccuracy>
							<startratio>0</startratio>
							<endratio>1</endratio>
							<reverse>FALSE</reverse>
						</effect>
					</transitionitem>
					<transitionitem>
						<start>14556</start>
						<end>14557</end>
						<alignment>start-black</alignment>
						<cutPointTicks>0</cutPointTicks>
						<rate>
							<timebase>25</timebase>
							<ntsc>FALSE</ntsc>
						</rate>
						<effect>
							<name>Cross Fade (+3dB)</name>
							<effectid>KGAudioTransCrossFade3dB</effectid>
							<effecttype>transition</effecttype>
							<mediatype>audio</mediatype>
							<wipecode>0</wipecode>
							<wipeaccuracy>100</wipeaccuracy>
							<startratio>0</startratio>
							<endratio>1</endratio>
							<reverse>FALSE</reverse>
						</effect>
					</transitionitem>
					<clipitem id="clipitem-255" premiereChannelType="stereo">
						<masterclipid>masterclip-44</masterclipid>
						<name>KT_318_1_Sumo_Chant_Constantinou_Frazer_926859.wav</name>
						<enabled>TRUE</enabled>
						<duration>3627</duration>
						<rate>
							<timebase>25</timebase>
							<ntsc>FALSE</ntsc>
						</rate>
						<start>-1</start>
						<end>14559</end>
						<in>184</in>
						<out>187</out>
						<pproTicksIn>1869557760000</pproTicksIn>
						<pproTicksOut>1900039680000</pproTicksOut>
						<file id="file-42"/>
						<sourcetrack>
							<mediatype>audio</mediatype>
							<trackindex>2</trackindex>
						</sourcetrack>
							<filter>
								<effect>
									<name>Gain</name>
									<effectid>{61756678, 4761696e, 4b657947}</effectid>
									<effecttype>filter</effecttype>
									<mediatype>audio</mediatype>
									<parameter authoringApp="PremierePro">
										<parameterid>Gain(dB)</parameterid>
										<name>Gain(dB)</name>
										<valuemin>-96</valuemin>
										<valuemax>96</valuemax>
										<value>-6</value>
									</parameter>
								</effect>
							</filter>
						<link>
							<linkclipref>clipitem-226</linkclipref>
							<mediatype>audio</mediatype>
							<trackindex>11</trackindex>
							<clipindex>13</clipindex>
							<groupindex>1</groupindex>
						</link>
						<link>
							<linkclipref>clipitem-255</linkclipref>
							<mediatype>audio</mediatype>
							<trackindex>12</trackindex>
							<clipindex>13</clipindex>
							<groupindex>1</groupindex>
						</link>
						<logginginfo>
							<description></description>
							<scene></scene>
							<shottake></shottake>
							<lognote></lognote>
						</logginginfo>
						<labels>
							<label2>Caribbean</label2>
						</labels>
					</clipitem>
					<clipitem id="clipitem-256" premiereChannelType="stereo">
						<masterclipid>masterclip-44</masterclipid>
						<name>KT_318_1_Sumo_Chant_Constantinou_Frazer_926859.wav</name>
						<enabled>TRUE</enabled>
						<duration>3627</duration>
						<rate>
							<timebase>25</timebase>
							<ntsc>FALSE</ntsc>
						</rate>
						<start>14559</start>
						<end>14578</end>
						<in>187</in>
						<out>206</out>
						<pproTicksIn>1900039680000</pproTicksIn>
						<pproTicksOut>2093091840000</pproTicksOut>
						<file id="file-42"/>
						<sourcetrack>
							<mediatype>audio</mediatype>
							<trackindex>2</trackindex>
						</sourcetrack>
							<filter>
								<effect>
									<name>Gain</name>
									<effectid>{61756678, 4761696e, 4b657947}</effectid>
									<effecttype>filter</effecttype>
									<mediatype>audio</mediatype>
									<parameter authoringApp="PremierePro">
										<parameterid>Gain(dB)</parameterid>
										<name>Gain(dB)</name>
										<valuemin>-96</valuemin>
										<valuemax>96</valuemax>
										<value>-6</value>
									</parameter>
								</effect>
							</filter>
						<link>
							<linkclipref>clipitem-227</linkclipref>
							<mediatype>audio</mediatype>
							<trackindex>11</trackindex>
							<clipindex>14</clipindex>
							<groupindex>1</groupindex>
						</link>
						<link>
							<linkclipref>clipitem-256</linkclipref>
							<mediatype>audio</mediatype>
							<trackindex>12</trackindex>
							<clipindex>14</clipindex>
							<groupindex>1</groupindex>
						</link>
						<logginginfo>
							<description></description>
							<scene></scene>
							<shottake></shottake>
							<lognote></lognote>
						</logginginfo>
						<labels>
							<label2>Caribbean</label2>
						</labels>
					</clipitem>
					<clipitem id="clipitem-257" premiereChannelType="stereo">
						<masterclipid>masterclip-44</masterclipid>
						<name>KT_318_1_Sumo_Chant_Constantinou_Frazer_926859.wav</name>
						<enabled>TRUE</enabled>
						<duration>3627</duration>
						<rate>
							<timebase>25</timebase>
							<ntsc>FALSE</ntsc>
						</rate>
						<start>14598</start>
						<end>-1</end>
						<in>0</in>
						<out>187</out>
						<pproTicksIn>0</pproTicksIn>
						<pproTicksOut>1900039680000</pproTicksOut>
						<file id="file-42"/>
						<sourcetrack>
							<mediatype>audio</mediatype>
							<trackindex>2</trackindex>
						</sourcetrack>
							<filter>
								<effect>
									<name>Gain</name>
									<effectid>{61756678, 4761696e, 4b657947}</effectid>
									<effecttype>filter</effecttype>
									<mediatype>audio</mediatype>
									<parameter authoringApp="PremierePro">
										<parameterid>Gain(dB)</parameterid>
										<name>Gain(dB)</name>
										<valuemin>-96</valuemin>
										<valuemax>96</valuemax>
										<value>-21</value>
									</parameter>
								</effect>
							</filter>
						<link>
							<linkclipref>clipitem-228</linkclipref>
							<mediatype>audio</mediatype>
							<trackindex>11</trackindex>
							<clipindex>15</clipindex>
							<groupindex>1</groupindex>
						</link>
						<link>
							<linkclipref>clipitem-257</linkclipref>
							<mediatype>audio</mediatype>
							<trackindex>12</trackindex>
							<clipindex>15</clipindex>
							<groupindex>1</groupindex>
						</link>
						<logginginfo>
							<description></description>
							<scene></scene>
							<shottake></shottake>
							<lognote></lognote>
						</logginginfo>
						<labels>
							<label2>Caribbean</label2>
						</labels>
					</clipitem>
					<transitionitem>
						<start>14772</start>
						<end>14785</end>
						<alignment>center</alignment>
						<cutPointTicks>60963840000</cutPointTicks>
						<rate>
							<timebase>25</timebase>
							<ntsc>FALSE</ntsc>
						</rate>
						<effect>
							<name>Cross Fade (+3dB)</name>
							<effectid>KGAudioTransCrossFade3dB</effectid>
							<effecttype>transition</effecttype>
							<mediatype>audio</mediatype>
							<wipecode>0</wipecode>
							<wipeaccuracy>100</wipeaccuracy>
							<startratio>0</startratio>
							<endratio>1</endratio>
							<reverse>FALSE</reverse>
						</effect>
					</transitionitem>
					<clipitem id="clipitem-258" premiereChannelType="stereo">
						<masterclipid>masterclip-44</masterclipid>
						<name>KT_318_1_Sumo_Chant_Constantinou_Frazer_926859.wav</name>
						<enabled>TRUE</enabled>
						<duration>3627</duration>
						<rate>
							<timebase>25</timebase>
							<ntsc>FALSE</ntsc>
						</rate>
						<start>-1</start>
						<end>-1</end>
						<in>174</in>
						<out>285</out>
						<pproTicksIn>1767951360000</pproTicksIn>
						<pproTicksOut>2895782400000</pproTicksOut>
						<file id="file-42"/>
						<sourcetrack>
							<mediatype>audio</mediatype>
							<trackindex>2</trackindex>
						</sourcetrack>
							<filter>
								<effect>
									<name>Gain</name>
									<effectid>{61756678, 4761696e, 4b657947}</effectid>
									<effecttype>filter</effecttype>
									<mediatype>audio</mediatype>
									<parameter authoringApp="PremierePro">
										<parameterid>Gain(dB)</parameterid>
										<name>Gain(dB)</name>
										<valuemin>-96</valuemin>
										<valuemax>96</valuemax>
										<value>-9</value>
									</parameter>
								</effect>
							</filter>
						<link>
							<linkclipref>clipitem-229</linkclipref>
							<mediatype>audio</mediatype>
							<trackindex>11</trackindex>
							<clipindex>17</clipindex>
							<groupindex>1</groupindex>
						</link>
						<link>
							<linkclipref>clipitem-258</linkclipref>
							<mediatype>audio</mediatype>
							<trackindex>12</trackindex>
							<clipindex>17</clipindex>
							<groupindex>1</groupindex>
						</link>
						<logginginfo>
							<description></description>
							<scene></scene>
							<shottake></shottake>
							<lognote></lognote>
						</logginginfo>
						<labels>
							<label2>Caribbean</label2>
						</labels>
					</clipitem>
					<transitionitem>
						<start>14860</start>
						<end>14883</end>
						<alignment>center</alignment>
						<cutPointTicks>111767040000</cutPointTicks>
						<rate>
							<timebase>25</timebase>
							<ntsc>FALSE</ntsc>
						</rate>
						<effect>
							<name>Cross Fade (+3dB)</name>
							<effectid>KGAudioTransCrossFade3dB</effectid>
							<effecttype>transition</effecttype>
							<mediatype>audio</mediatype>
							<wipecode>0</wipecode>
							<wipeaccuracy>100</wipeaccuracy>
							<startratio>0</startratio>
							<endratio>1</endratio>
							<reverse>FALSE</reverse>
						</effect>
					</transitionitem>
					<clipitem id="clipitem-259" premiereChannelType="stereo">
						<masterclipid>masterclip-44</masterclipid>
						<name>KT_318_1_Sumo_Chant_Constantinou_Frazer_926859.wav</name>
						<enabled>TRUE</enabled>
						<duration>3627</duration>
						<rate>
							<timebase>25</timebase>
							<ntsc>FALSE</ntsc>
						</rate>
						<start>-1</start>
						<end>15131</end>
						<in>3309</in>
						<out>3580</out>
						<pproTicksIn>33621557760000</pproTicksIn>
						<pproTicksOut>36375091200000</pproTicksOut>
						<file id="file-42"/>
						<sourcetrack>
							<mediatype>audio</mediatype>
							<trackindex>2</trackindex>
						</sourcetrack>
							<filter>
								<effect>
									<name>Gain</name>
									<effectid>{61756678, 4761696e, 4b657947}</effectid>
									<effecttype>filter</effecttype>
									<mediatype>audio</mediatype>
									<parameter authoringApp="PremierePro">
										<parameterid>Gain(dB)</parameterid>
										<name>Gain(dB)</name>
										<valuemin>-96</valuemin>
										<valuemax>96</valuemax>
										<value>-6</value>
									</parameter>
								</effect>
							</filter>
							<filter>
								<effect>
									<name>Audio Levels</name>
									<effectid>audiolevels</effectid>
									<effectcategory>audiolevels</effectcategory>
									<effecttype>audiolevels</effecttype>
									<mediatype>audio</mediatype>
									<parameter authoringApp="PremierePro">
										<parameterid>level</parameterid>
										<name>Level</name>
										<valuemin>0</valuemin>
										<valuemax>3.98109</valuemax>
										<value>0.518768</value>
									</parameter>
								</effect>
							</filter>
						<link>
							<linkclipref>clipitem-230</linkclipref>
							<mediatype>audio</mediatype>
							<trackindex>11</trackindex>
							<clipindex>19</clipindex>
							<groupindex>1</groupindex>
						</link>
						<link>
							<linkclipref>clipitem-259</linkclipref>
							<mediatype>audio</mediatype>
							<trackindex>12</trackindex>
							<clipindex>19</clipindex>
							<groupindex>1</groupindex>
						</link>
						<logginginfo>
							<description></description>
							<scene></scene>
							<shottake></shottake>
							<lognote></lognote>
						</logginginfo>
						<labels>
							<label2>Caribbean</label2>
						</labels>
					</clipitem>
					<transitionitem>
						<start>16116</start>
						<end>16129</end>
						<alignment>start-black</alignment>
						<cutPointTicks>0</cutPointTicks>
						<rate>
							<timebase>25</timebase>
							<ntsc>FALSE</ntsc>
						</rate>
						<effect>
							<name>Cross Fade (+3dB)</name>
							<effectid>KGAudioTransCrossFade3dB</effectid>
							<effecttype>transition</effecttype>
							<mediatype>audio</mediatype>
							<wipecode>0</wipecode>
							<wipeaccuracy>100</wipeaccuracy>
							<startratio>0</startratio>
							<endratio>1</endratio>
							<reverse>FALSE</reverse>
						</effect>
					</transitionitem>
					<clipitem id="clipitem-260" premiereChannelType="stereo">
						<masterclipid>masterclip-36</masterclipid>
						<name>BR_586_5_Unstoppable_Force_Britton_858425.wav</name>
						<enabled>TRUE</enabled>
						<duration>3237</duration>
						<rate>
							<timebase>25</timebase>
							<ntsc>FALSE</ntsc>
						</rate>
						<start>-1</start>
						<end>-1</end>
						<in>12</in>
						<out>227</out>
						<pproTicksIn>121927680000</pproTicksIn>
						<pproTicksOut>2306465280000</pproTicksOut>
						<file id="file-34"/>
						<sourcetrack>
							<mediatype>audio</mediatype>
							<trackindex>2</trackindex>
						</sourcetrack>
							<filter>
								<effect>
									<name>Gain</name>
									<effectid>{61756678, 4761696e, 4b657947}</effectid>
									<effecttype>filter</effecttype>
									<mediatype>audio</mediatype>
									<parameter authoringApp="PremierePro">
										<parameterid>Gain(dB)</parameterid>
										<name>Gain(dB)</name>
										<valuemin>-96</valuemin>
										<valuemax>96</valuemax>
										<value>-18</value>
									</parameter>
								</effect>
							</filter>
						<link>
							<linkclipref>clipitem-231</linkclipref>
							<mediatype>audio</mediatype>
							<trackindex>11</trackindex>
							<clipindex>21</clipindex>
							<groupindex>1</groupindex>
						</link>
						<link>
							<linkclipref>clipitem-260</linkclipref>
							<mediatype>audio</mediatype>
							<trackindex>12</trackindex>
							<clipindex>21</clipindex>
							<groupindex>1</groupindex>
						</link>
						<logginginfo>
							<description></description>
							<scene></scene>
							<shottake></shottake>
							<lognote></lognote>
						</logginginfo>
						<labels>
							<label2>Caribbean</label2>
						</labels>
					</clipitem>
					<transitionitem>
						<start>16318</start>
						<end>16331</end>
						<alignment>end-black</alignment>
						<cutPointTicks>132088320000</cutPointTicks>
						<rate>
							<timebase>25</timebase>
							<ntsc>FALSE</ntsc>
						</rate>
						<effect>
							<name>Cross Fade (+3dB)</name>
							<effectid>KGAudioTransCrossFade3dB</effectid>
							<effecttype>transition</effecttype>
							<mediatype>audio</mediatype>
							<wipecode>0</wipecode>
							<wipeaccuracy>100</wipeaccuracy>
							<startratio>0</startratio>
							<endratio>1</endratio>
							<reverse>FALSE</reverse>
						</effect>
					</transitionitem>
					<clipitem id="clipitem-261" premiereChannelType="stereo">
						<masterclipid>masterclip-47</masterclipid>
						<name>ATMOS_291_17_Judging_Tension_Pemberton_656153.wav</name>
						<enabled>TRUE</enabled>
						<duration>2842</duration>
						<rate>
							<timebase>25</timebase>
							<ntsc>FALSE</ntsc>
						</rate>
						<start>17093</start>
						<end>-1</end>
						<in>0</in>
						<out>85</out>
						<pproTicksIn>0</pproTicksIn>
						<pproTicksOut>863654400000</pproTicksOut>
						<file id="file-45"/>
						<sourcetrack>
							<mediatype>audio</mediatype>
							<trackindex>2</trackindex>
						</sourcetrack>
							<filter>
								<effect>
									<name>Gain</name>
									<effectid>{61756678, 4761696e, 4b657947}</effectid>
									<effecttype>filter</effecttype>
									<mediatype>audio</mediatype>
									<parameter authoringApp="PremierePro">
										<parameterid>Gain(dB)</parameterid>
										<name>Gain(dB)</name>
										<valuemin>-96</valuemin>
										<valuemax>96</valuemax>
										<value>-6</value>
									</parameter>
								</effect>
							</filter>
						<link>
							<linkclipref>clipitem-232</linkclipref>
							<mediatype>audio</mediatype>
							<trackindex>11</trackindex>
							<clipindex>23</clipindex>
							<groupindex>1</groupindex>
						</link>
						<link>
							<linkclipref>clipitem-261</linkclipref>
							<mediatype>audio</mediatype>
							<trackindex>12</trackindex>
							<clipindex>23</clipindex>
							<groupindex>1</groupindex>
						</link>
						<logginginfo>
							<description></description>
							<scene></scene>
							<shottake></shottake>
							<lognote></lognote>
						</logginginfo>
						<labels>
							<label2>Caribbean</label2>
						</labels>
					</clipitem>
					<transitionitem>
						<start>17116</start>
						<end>17178</end>
						<alignment>end-black</alignment>
						<cutPointTicks>629959680000</cutPointTicks>
						<rate>
							<timebase>25</timebase>
							<ntsc>FALSE</ntsc>
						</rate>
						<effect>
							<name>Cross Fade (+3dB)</name>
							<effectid>KGAudioTransCrossFade3dB</effectid>
							<effecttype>transition</effecttype>
							<mediatype>audio</mediatype>
							<wipecode>0</wipecode>
							<wipeaccuracy>100</wipeaccuracy>
							<startratio>0</startratio>
							<endratio>1</endratio>
							<reverse>FALSE</reverse>
						</effect>
					</transitionitem>
					<transitionitem>
						<start>19056</start>
						<end>19063</end>
						<alignment>start-black</alignment>
						<cutPointTicks>0</cutPointTicks>
						<rate>
							<timebase>25</timebase>
							<ntsc>FALSE</ntsc>
						</rate>
						<effect>
							<name>Cross Fade (+3dB)</name>
							<effectid>KGAudioTransCrossFade3dB</effectid>
							<effecttype>transition</effecttype>
							<mediatype>audio</mediatype>
							<wipecode>0</wipecode>
							<wipeaccuracy>100</wipeaccuracy>
							<startratio>0</startratio>
							<endratio>1</endratio>
							<reverse>FALSE</reverse>
						</effect>
					</transitionitem>
					<clipitem id="clipitem-262" premiereChannelType="stereo">
						<masterclipid>masterclip-44</masterclipid>
						<name>KT_318_1_Sumo_Chant_Constantinou_Frazer_926859.wav</name>
						<enabled>TRUE</enabled>
						<duration>3627</duration>
						<rate>
							<timebase>25</timebase>
							<ntsc>FALSE</ntsc>
						</rate>
						<start>-1</start>
						<end>-1</end>
						<in>3321</in>
						<out>3500</out>
						<pproTicksIn>33743485440000</pproTicksIn>
						<pproTicksOut>35562240000000</pproTicksOut>
						<file id="file-42"/>
						<sourcetrack>
							<mediatype>audio</mediatype>
							<trackindex>2</trackindex>
						</sourcetrack>
							<filter>
								<effect>
									<name>Audio Levels</name>
									<effectid>audiolevels</effectid>
									<effectcategory>audiolevels</effectcategory>
									<effecttype>audiolevels</effecttype>
									<mediatype>audio</mediatype>
									<parameter authoringApp="PremierePro">
										<parameterid>level</parameterid>
										<name>Level</name>
										<valuemin>0</valuemin>
										<valuemax>3.98109</valuemax>
										<value>0.518768</value>
									</parameter>
								</effect>
							</filter>
						<link>
							<linkclipref>clipitem-233</linkclipref>
							<mediatype>audio</mediatype>
							<trackindex>11</trackindex>
							<clipindex>26</clipindex>
							<groupindex>1</groupindex>
						</link>
						<link>
							<linkclipref>clipitem-262</linkclipref>
							<mediatype>audio</mediatype>
							<trackindex>12</trackindex>
							<clipindex>26</clipindex>
							<groupindex>1</groupindex>
						</link>
						<logginginfo>
							<description></description>
							<scene></scene>
							<shottake></shottake>
							<lognote></lognote>
						</logginginfo>
						<labels>
							<label2>Caribbean</label2>
						</labels>
					</clipitem>
					<transitionitem>
						<start>19193</start>
						<end>19235</end>
						<alignment>end-black</alignment>
						<cutPointTicks>426746880000</cutPointTicks>
						<rate>
							<timebase>25</timebase>
							<ntsc>FALSE</ntsc>
						</rate>
						<effect>
							<name>Cross Fade (+3dB)</name>
							<effectid>KGAudioTransCrossFade3dB</effectid>
							<effecttype>transition</effecttype>
							<mediatype>audio</mediatype>
							<wipecode>0</wipecode>
							<wipeaccuracy>100</wipeaccuracy>
							<startratio>0</startratio>
							<endratio>1</endratio>
							<reverse>FALSE</reverse>
						</effect>
					</transitionitem>
					<clipitem id="clipitem-263" premiereChannelType="stereo">
						<masterclipid>masterclip-55</masterclipid>
						<name>SOHO_153_6_Liquor_To_Pandas_Ghettososcks_Lamb_Ross_912768.wav</name>
						<enabled>TRUE</enabled>
						<duration>5548</duration>
						<rate>
							<timebase>25</timebase>
							<ntsc>FALSE</ntsc>
						</rate>
						<start>27321</start>
						<end>-1</end>
						<in>248</in>
						<out>551</out>
						<pproTicksIn>2519838720000</pproTicksIn>
						<pproTicksOut>5598512640000</pproTicksOut>
						<file id="file-53"/>
						<sourcetrack>
							<mediatype>audio</mediatype>
							<trackindex>2</trackindex>
						</sourcetrack>
							<filter>
								<effect>
									<name>Gain</name>
									<effectid>{61756678, 4761696e, 4b657947}</effectid>
									<effecttype>filter</effecttype>
									<mediatype>audio</mediatype>
									<parameter authoringApp="PremierePro">
										<parameterid>Gain(dB)</parameterid>
										<name>Gain(dB)</name>
										<valuemin>-96</valuemin>
										<valuemax>96</valuemax>
										<value>-18</value>
									</parameter>
								</effect>
							</filter>
							<marker>
								<comment></comment>
								<name></name>
								<in>5548</in>
								<out>-1</out>
							</marker>
							<marker>
								<comment></comment>
								<name></name>
								<in>0</in>
								<out>-1</out>
							</marker>
						<link>
							<linkclipref>clipitem-234</linkclipref>
							<mediatype>audio</mediatype>
							<trackindex>11</trackindex>
							<clipindex>28</clipindex>
							<groupindex>1</groupindex>
						</link>
						<link>
							<linkclipref>clipitem-263</linkclipref>
							<mediatype>audio</mediatype>
							<trackindex>12</trackindex>
							<clipindex>28</clipindex>
							<groupindex>1</groupindex>
						</link>
						<logginginfo>
							<description></description>
							<scene></scene>
							<shottake></shottake>
							<lognote>Hip-Hop, Trip-Hop and Chip-Shop. British made Big Beat, heavy kicks, fat snares, scratching, crushed hats, cool retro sounds from the Clubs</lognote>
						</logginginfo>
						<labels>
							<label2>Caribbean</label2>
						</labels>
					</clipitem>
					<transitionitem>
						<start>27549</start>
						<end>27624</end>
						<alignment>end-black</alignment>
						<cutPointTicks>762048000000</cutPointTicks>
						<rate>
							<timebase>25</timebase>
							<ntsc>FALSE</ntsc>
						</rate>
						<effect>
							<name>Cross Fade (+3dB)</name>
							<effectid>KGAudioTransCrossFade3dB</effectid>
							<effecttype>transition</effecttype>
							<mediatype>audio</mediatype>
							<wipecode>0</wipecode>
							<wipeaccuracy>100</wipeaccuracy>
							<startratio>0</startratio>
							<endratio>1</endratio>
							<reverse>FALSE</reverse>
						</effect>
					</transitionitem>
					<clipitem id="clipitem-264" premiereChannelType="stereo">
						<masterclipid>masterclip-51</masterclipid>
						<name>SVN_7_7_Rogue_Warrior_Lehrman_Nonte_922056.wav</name>
						<enabled>TRUE</enabled>
						<duration>2957</duration>
						<rate>
							<timebase>25</timebase>
							<ntsc>FALSE</ntsc>
						</rate>
						<start>28078</start>
						<end>28201</end>
						<in>65</in>
						<out>188</out>
						<pproTicksIn>660441600000</pproTicksIn>
						<pproTicksOut>1910200320000</pproTicksOut>
						<file id="file-49"/>
						<sourcetrack>
							<mediatype>audio</mediatype>
							<trackindex>2</trackindex>
						</sourcetrack>
							<filter>
								<effect>
									<name>Gain</name>
									<effectid>{61756678, 4761696e, 4b657947}</effectid>
									<effecttype>filter</effecttype>
									<mediatype>audio</mediatype>
									<parameter authoringApp="PremierePro">
										<parameterid>Gain(dB)</parameterid>
										<name>Gain(dB)</name>
										<valuemin>-96</valuemin>
										<valuemax>96</valuemax>
										<value>-9</value>
									</parameter>
								</effect>
							</filter>
						<link>
							<linkclipref>clipitem-235</linkclipref>
							<mediatype>audio</mediatype>
							<trackindex>11</trackindex>
							<clipindex>30</clipindex>
							<groupindex>1</groupindex>
						</link>
						<link>
							<linkclipref>clipitem-264</linkclipref>
							<mediatype>audio</mediatype>
							<trackindex>12</trackindex>
							<clipindex>30</clipindex>
							<groupindex>1</groupindex>
						</link>
						<logginginfo>
							<description></description>
							<scene></scene>
							<shottake></shottake>
							<lognote></lognote>
						</logginginfo>
						<labels>
							<label2>Caribbean</label2>
						</labels>
					</clipitem>
					<clipitem id="clipitem-265" premiereChannelType="stereo">
						<masterclipid>masterclip-51</masterclipid>
						<name>SVN_7_7_Rogue_Warrior_Lehrman_Nonte_922056.wav</name>
						<enabled>TRUE</enabled>
						<duration>2957</duration>
						<rate>
							<timebase>25</timebase>
							<ntsc>FALSE</ntsc>
						</rate>
						<start>28201</start>
						<end>-1</end>
						<in>209</in>
						<out>402</out>
						<pproTicksIn>2123573760000</pproTicksIn>
						<pproTicksOut>4084577280000</pproTicksOut>
						<file id="file-49"/>
						<sourcetrack>
							<mediatype>audio</mediatype>
							<trackindex>2</trackindex>
						</sourcetrack>
							<filter>
								<effect>
									<name>Gain</name>
									<effectid>{61756678, 4761696e, 4b657947}</effectid>
									<effecttype>filter</effecttype>
									<mediatype>audio</mediatype>
									<parameter authoringApp="PremierePro">
										<parameterid>Gain(dB)</parameterid>
										<name>Gain(dB)</name>
										<valuemin>-96</valuemin>
										<valuemax>96</valuemax>
										<value>-9</value>
									</parameter>
								</effect>
							</filter>
						<link>
							<linkclipref>clipitem-236</linkclipref>
							<mediatype>audio</mediatype>
							<trackindex>11</trackindex>
							<clipindex>31</clipindex>
							<groupindex>1</groupindex>
						</link>
						<link>
							<linkclipref>clipitem-265</linkclipref>
							<mediatype>audio</mediatype>
							<trackindex>12</trackindex>
							<clipindex>31</clipindex>
							<groupindex>1</groupindex>
						</link>
						<logginginfo>
							<description></description>
							<scene></scene>
							<shottake></shottake>
							<lognote></lognote>
						</logginginfo>
						<labels>
							<label2>Caribbean</label2>
						</labels>
					</clipitem>
					<transitionitem>
						<start>28374</start>
						<end>28394</end>
						<alignment>center</alignment>
						<cutPointTicks>93790116000</cutPointTicks>
						<rate>
							<timebase>25</timebase>
							<ntsc>FALSE</ntsc>
						</rate>
						<effect>
							<name>Cross Fade (+3dB)</name>
							<effectid>KGAudioTransCrossFade3dB</effectid>
							<effecttype>transition</effecttype>
							<mediatype>audio</mediatype>
							<wipecode>0</wipecode>
							<wipeaccuracy>100</wipeaccuracy>
							<startratio>0</startratio>
							<endratio>1</endratio>
							<reverse>FALSE</reverse>
						</effect>
					</transitionitem>
					<clipitem id="clipitem-266" premiereChannelType="stereo">
						<masterclipid>masterclip-51</masterclipid>
						<name>SVN_7_7_Rogue_Warrior_Lehrman_Nonte_922056.wav</name>
						<enabled>TRUE</enabled>
						<duration>2957</duration>
						<rate>
							<timebase>25</timebase>
							<ntsc>FALSE</ntsc>
						</rate>
						<start>-1</start>
						<end>-1</end>
						<in>382</in>
						<out>565</out>
						<pproTicksIn>3881364480000</pproTicksIn>
						<pproTicksOut>5740761600000</pproTicksOut>
						<file id="file-49"/>
						<sourcetrack>
							<mediatype>audio</mediatype>
							<trackindex>2</trackindex>
						</sourcetrack>
							<filter>
								<effect>
									<name>Gain</name>
									<effectid>{61756678, 4761696e, 4b657947}</effectid>
									<effecttype>filter</effecttype>
									<mediatype>audio</mediatype>
									<parameter authoringApp="PremierePro">
										<parameterid>Gain(dB)</parameterid>
										<name>Gain(dB)</name>
										<valuemin>-96</valuemin>
										<valuemax>96</valuemax>
										<value>-15</value>
									</parameter>
								</effect>
							</filter>
						<link>
							<linkclipref>clipitem-237</linkclipref>
							<mediatype>audio</mediatype>
							<trackindex>11</trackindex>
							<clipindex>33</clipindex>
							<groupindex>1</groupindex>
						</link>
						<link>
							<linkclipref>clipitem-266</linkclipref>
							<mediatype>audio</mediatype>
							<trackindex>12</trackindex>
							<clipindex>33</clipindex>
							<groupindex>1</groupindex>
						</link>
						<logginginfo>
							<description></description>
							<scene></scene>
							<shottake></shottake>
							<lognote></lognote>
						</logginginfo>
						<labels>
							<label2>Caribbean</label2>
						</labels>
					</clipitem>
					<transitionitem>
						<start>28550</start>
						<end>28557</end>
						<alignment>end-black</alignment>
						<cutPointTicks>71124480000</cutPointTicks>
						<rate>
							<timebase>25</timebase>
							<ntsc>FALSE</ntsc>
						</rate>
						<effect>
							<name>Cross Fade (+3dB)</name>
							<effectid>KGAudioTransCrossFade3dB</effectid>
							<effecttype>transition</effecttype>
							<mediatype>audio</mediatype>
							<wipecode>0</wipecode>
							<wipeaccuracy>100</wipeaccuracy>
							<startratio>0</startratio>
							<endratio>1</endratio>
							<reverse>FALSE</reverse>
						</effect>
					</transitionitem>
					<clipitem id="clipitem-267" premiereChannelType="stereo">
						<masterclipid>masterclip-56</masterclipid>
						<name>Audio 10.wav</name>
						<enabled>TRUE</enabled>
						<duration>447</duration>
						<rate>
							<timebase>25</timebase>
							<ntsc>FALSE</ntsc>
						</rate>
						<start>31108</start>
						<end>31137</end>
						<in>55</in>
						<out>84</out>
						<pproTicksIn>558835200000</pproTicksIn>
						<pproTicksOut>853493760000</pproTicksOut>
						<file id="file-54"/>
						<sourcetrack>
							<mediatype>audio</mediatype>
							<trackindex>2</trackindex>
						</sourcetrack>
						<link>
							<linkclipref>clipitem-238</linkclipref>
							<mediatype>audio</mediatype>
							<trackindex>11</trackindex>
							<clipindex>35</clipindex>
							<groupindex>1</groupindex>
						</link>
						<link>
							<linkclipref>clipitem-267</linkclipref>
							<mediatype>audio</mediatype>
							<trackindex>12</trackindex>
							<clipindex>35</clipindex>
							<groupindex>1</groupindex>
						</link>
						<logginginfo>
							<description></description>
							<scene></scene>
							<shottake></shottake>
							<lognote></lognote>
						</logginginfo>
						<labels>
							<label2>Caribbean</label2>
						</labels>
					</clipitem>
					<clipitem id="clipitem-268" premiereChannelType="stereo">
						<masterclipid>masterclip-56</masterclipid>
						<name>Audio 10.wav</name>
						<enabled>TRUE</enabled>
						<duration>447</duration>
						<rate>
							<timebase>25</timebase>
							<ntsc>FALSE</ntsc>
						</rate>
						<start>31176</start>
						<end>31223</end>
						<in>166</in>
						<out>213</out>
						<pproTicksIn>1686666240000</pproTicksIn>
						<pproTicksOut>2164216320000</pproTicksOut>
						<file id="file-54"/>
						<sourcetrack>
							<mediatype>audio</mediatype>
							<trackindex>2</trackindex>
						</sourcetrack>
						<link>
							<linkclipref>clipitem-239</linkclipref>
							<mediatype>audio</mediatype>
							<trackindex>11</trackindex>
							<clipindex>36</clipindex>
							<groupindex>1</groupindex>
						</link>
						<link>
							<linkclipref>clipitem-268</linkclipref>
							<mediatype>audio</mediatype>
							<trackindex>12</trackindex>
							<clipindex>36</clipindex>
							<groupindex>1</groupindex>
						</link>
						<logginginfo>
							<description></description>
							<scene></scene>
							<shottake></shottake>
							<lognote></lognote>
						</logginginfo>
						<labels>
							<label2>Caribbean</label2>
						</labels>
					</clipitem>
					<clipitem id="clipitem-269" premiereChannelType="stereo">
						<masterclipid>masterclip-57</masterclipid>
						<name>Audio 10_1.wav</name>
						<enabled>TRUE</enabled>
						<duration>398</duration>
						<rate>
							<timebase>25</timebase>
							<ntsc>FALSE</ntsc>
						</rate>
						<start>31282</start>
						<end>31304</end>
						<in>182</in>
						<out>204</out>
						<pproTicksIn>1849236480000</pproTicksIn>
						<pproTicksOut>2072770560000</pproTicksOut>
						<file id="file-55"/>
						<sourcetrack>
							<mediatype>audio</mediatype>
							<trackindex>2</trackindex>
						</sourcetrack>
						<link>
							<linkclipref>clipitem-240</linkclipref>
							<mediatype>audio</mediatype>
							<trackindex>11</trackindex>
							<clipindex>37</clipindex>
							<groupindex>1</groupindex>
						</link>
						<link>
							<linkclipref>clipitem-269</linkclipref>
							<mediatype>audio</mediatype>
							<trackindex>12</trackindex>
							<clipindex>37</clipindex>
							<groupindex>1</groupindex>
						</link>
						<logginginfo>
							<description></description>
							<scene></scene>
							<shottake></shottake>
							<lognote></lognote>
						</logginginfo>
						<labels>
							<label2>Caribbean</label2>
						</labels>
					</clipitem>
					<clipitem id="clipitem-270" premiereChannelType="stereo">
						<masterclipid>masterclip-58</masterclipid>
						<name>video-1462113101_1.mov</name>
						<enabled>TRUE</enabled>
						<duration>623</duration>
						<rate>
							<timebase>25</timebase>
							<ntsc>FALSE</ntsc>
						</rate>
						<start>32358</start>
						<end>32466</end>
						<in>368</in>
						<out>476</out>
						<pproTicksIn>3739115520000</pproTicksIn>
						<pproTicksOut>4836464640000</pproTicksOut>
						<file id="file-56"/>
						<sourcetrack>
							<mediatype>audio</mediatype>
							<trackindex>2</trackindex>
						</sourcetrack>
						<link>
							<linkclipref>clipitem-247</linkclipref>
							<mediatype>audio</mediatype>
							<trackindex>11</trackindex>
							<clipindex>47</clipindex>
							<groupindex>1</groupindex>
						</link>
						<link>
							<linkclipref>clipitem-270</linkclipref>
							<mediatype>audio</mediatype>
							<trackindex>12</trackindex>
							<clipindex>38</clipindex>
							<groupindex>1</groupindex>
						</link>
						<logginginfo>
							<description></description>
							<scene></scene>
							<shottake></shottake>
							<lognote></lognote>
						</logginginfo>
						<labels>
							<label2>Iris</label2>
						</labels>
					</clipitem>
					<enabled>TRUE</enabled>
					<locked>FALSE</locked>
					<outputchannelindex>2</outputchannelindex>
				</track>
				<track TL.SQTrackAudioKeyframeStyle="0" TL.SQTrackShy="0" TL.SQTrackExpandedHeight="65" TL.SQTrackExpanded="1" MZ.TrackTargeted="0" PannerCurrentValue="0.5" PannerIsInverted="true" PannerStartKeyframe="-91445760000000000,0.5,0,0,0,0,0,0" PannerName="Balance" currentExplodedTrackIndex="0" totalExplodedTrackCount="2" premiereTrackType="Stereo">
					<clipitem id="clipitem-271" premiereChannelType="stereo">
						<masterclipid>masterclip-59</masterclipid>
						<name>NONRO318732CS0001 If I Ain't Got you  (Radio Edit).wav</name>
						<enabled>TRUE</enabled>
						<duration>5868</duration>
						<rate>
							<timebase>25</timebase>
							<ntsc>FALSE</ntsc>
						</rate>
						<start>23626</start>
						<end>-1</end>
						<in>21</in>
						<out>527</out>
						<pproTicksIn>213373440000</pproTicksIn>
						<pproTicksOut>5354657280000</pproTicksOut>
						<file id="file-57">
							<name>NONRO318732CS0001 If I Ain't Got you  (Radio Edit).wav</name>
							<pathurl>file://localhost/Volumes/Bingen/Prosjekter/MYNT194016%20WHATS%20COOKING/Musikk/Marita/Lykke/dma%20Tue%20Jun%2021%2010%3a54%3a55%202016/NONRO318732CS0001%20If%20I%20Ain't%20Got%20you%20%20(Radio%20Edit).wav</pathurl>
							<rate>
								<timebase>30</timebase>
								<ntsc>TRUE</ntsc>
							</rate>
							<duration>7035</duration>
							<timecode>
								<rate>
									<timebase>30</timebase>
									<ntsc>TRUE</ntsc>
								</rate>
								<string>00;00;00;00</string>
								<frame>0</frame>
								<displayformat>DF</displayformat>
								<reel>
									<name></name>
								</reel>
							</timecode>
							<media>
								<audio>
									<samplecharacteristics>
										<depth>16</depth>
										<samplerate>48000</samplerate>
									</samplecharacteristics>
									<channelcount>2</channelcount>
								</audio>
							</media>
						</file>
						<sourcetrack>
							<mediatype>audio</mediatype>
							<trackindex>1</trackindex>
						</sourcetrack>
							<filter>
								<effect>
									<name>Gain</name>
									<effectid>{61756678, 4761696e, 4b657947}</effectid>
									<effecttype>filter</effecttype>
									<mediatype>audio</mediatype>
									<parameter authoringApp="PremierePro">
										<parameterid>Gain(dB)</parameterid>
										<name>Gain(dB)</name>
										<valuemin>-96</valuemin>
										<valuemax>96</valuemax>
										<value>-12</value>
									</parameter>
								</effect>
							</filter>
						<link>
							<linkclipref>clipitem-271</linkclipref>
							<mediatype>audio</mediatype>
							<trackindex>13</trackindex>
							<clipindex>1</clipindex>
							<groupindex>1</groupindex>
						</link>
						<link>
							<linkclipref>clipitem-286</linkclipref>
							<mediatype>audio</mediatype>
							<trackindex>14</trackindex>
							<clipindex>1</clipindex>
							<groupindex>1</groupindex>
						</link>
						<logginginfo>
							<description>NB! Avventer svar fra HP</description>
							<scene></scene>
							<shottake></shottake>
							<lognote>CD Track 1 archiveNo[318732013]</lognote>
						</logginginfo>
						<labels>
							<label2>Caribbean</label2>
						</labels>
					</clipitem>
					<transitionitem>
						<start>24119</start>
						<end>24132</end>
						<alignment>center</alignment>
						<cutPointTicks>60963840000</cutPointTicks>
						<rate>
							<timebase>25</timebase>
							<ntsc>FALSE</ntsc>
						</rate>
						<effect>
							<name>Cross Fade (+3dB)</name>
							<effectid>KGAudioTransCrossFade3dB</effectid>
							<effecttype>transition</effecttype>
							<mediatype>audio</mediatype>
							<wipecode>0</wipecode>
							<wipeaccuracy>100</wipeaccuracy>
							<startratio>0</startratio>
							<endratio>1</endratio>
							<reverse>FALSE</reverse>
						</effect>
					</transitionitem>
					<clipitem id="clipitem-272" premiereChannelType="stereo">
						<masterclipid>masterclip-59</masterclipid>
						<name>NONRO318732CS0001 If I Ain't Got you  (Radio Edit).wav</name>
						<enabled>TRUE</enabled>
						<duration>5868</duration>
						<rate>
							<timebase>25</timebase>
							<ntsc>FALSE</ntsc>
						</rate>
						<start>-1</start>
						<end>-1</end>
						<in>514</in>
						<out>1128</out>
						<pproTicksIn>5222568960000</pproTicksIn>
						<pproTicksOut>11461201920000</pproTicksOut>
						<file id="file-57"/>
						<sourcetrack>
							<mediatype>audio</mediatype>
							<trackindex>1</trackindex>
						</sourcetrack>
							<filter>
								<effect>
									<name>Gain</name>
									<effectid>{61756678, 4761696e, 4b657947}</effectid>
									<effecttype>filter</effecttype>
									<mediatype>audio</mediatype>
									<parameter authoringApp="PremierePro">
										<parameterid>Gain(dB)</parameterid>
										<name>Gain(dB)</name>
										<valuemin>-96</valuemin>
										<valuemax>96</valuemax>
										<value>-6</value>
									</parameter>
								</effect>
							</filter>
						<link>
							<linkclipref>clipitem-272</linkclipref>
							<mediatype>audio</mediatype>
							<trackindex>13</trackindex>
							<clipindex>3</clipindex>
							<groupindex>1</groupindex>
						</link>
						<link>
							<linkclipref>clipitem-287</linkclipref>
							<mediatype>audio</mediatype>
							<trackindex>14</trackindex>
							<clipindex>3</clipindex>
							<groupindex>1</groupindex>
						</link>
						<logginginfo>
							<description>NB! Avventer svar fra HP</description>
							<scene></scene>
							<shottake></shottake>
							<lognote>CD Track 1 archiveNo[318732013]</lognote>
						</logginginfo>
						<labels>
							<label2>Caribbean</label2>
						</labels>
					</clipitem>
					<transitionitem>
						<start>24709</start>
						<end>24733</end>
						<alignment>end</alignment>
						<cutPointTicks>243855360000</cutPointTicks>
						<rate>
							<timebase>25</timebase>
							<ntsc>FALSE</ntsc>
						</rate>
						<effect>
							<name>Cross Fade (+3dB)</name>
							<effectid>KGAudioTransCrossFade3dB</effectid>
							<effecttype>transition</effecttype>
							<mediatype>audio</mediatype>
							<wipecode>0</wipecode>
							<wipeaccuracy>100</wipeaccuracy>
							<startratio>0</startratio>
							<endratio>1</endratio>
							<reverse>FALSE</reverse>
						</effect>
					</transitionitem>
					<clipitem id="clipitem-273" premiereChannelType="stereo">
						<masterclipid>masterclip-59</masterclipid>
						<name>NONRO318732CS0001 If I Ain't Got you  (Radio Edit).wav</name>
						<enabled>TRUE</enabled>
						<duration>5868</duration>
						<rate>
							<timebase>25</timebase>
							<ntsc>FALSE</ntsc>
						</rate>
						<start>-1</start>
						<end>-1</end>
						<in>1104</in>
						<out>1202</out>
						<pproTicksIn>11217346560000</pproTicksIn>
						<pproTicksOut>12213089280000</pproTicksOut>
						<file id="file-57"/>
						<sourcetrack>
							<mediatype>audio</mediatype>
							<trackindex>1</trackindex>
						</sourcetrack>
							<filter>
								<effect>
									<name>Gain</name>
									<effectid>{61756678, 4761696e, 4b657947}</effectid>
									<effecttype>filter</effecttype>
									<mediatype>audio</mediatype>
									<parameter authoringApp="PremierePro">
										<parameterid>Gain(dB)</parameterid>
										<name>Gain(dB)</name>
										<valuemin>-96</valuemin>
										<valuemax>96</valuemax>
										<value>-18</value>
									</parameter>
								</effect>
							</filter>
						<link>
							<linkclipref>clipitem-273</linkclipref>
							<mediatype>audio</mediatype>
							<trackindex>13</trackindex>
							<clipindex>5</clipindex>
							<groupindex>1</groupindex>
						</link>
						<link>
							<linkclipref>clipitem-288</linkclipref>
							<mediatype>audio</mediatype>
							<trackindex>14</trackindex>
							<clipindex>5</clipindex>
							<groupindex>1</groupindex>
						</link>
						<logginginfo>
							<description>NB! Avventer svar fra HP</description>
							<scene></scene>
							<shottake></shottake>
							<lognote>CD Track 1 archiveNo[318732013]</lognote>
						</logginginfo>
						<labels>
							<label2>Caribbean</label2>
						</labels>
					</clipitem>
					<transitionitem>
						<start>24777</start>
						<end>24807</end>
						<alignment>end-black</alignment>
						<cutPointTicks>304819200000</cutPointTicks>
						<rate>
							<timebase>25</timebase>
							<ntsc>FALSE</ntsc>
						</rate>
						<effect>
							<name>Cross Fade (+3dB)</name>
							<effectid>KGAudioTransCrossFade3dB</effectid>
							<effecttype>transition</effecttype>
							<mediatype>audio</mediatype>
							<wipecode>0</wipecode>
							<wipeaccuracy>100</wipeaccuracy>
							<startratio>0</startratio>
							<endratio>1</endratio>
							<reverse>FALSE</reverse>
						</effect>
					</transitionitem>
					<clipitem id="clipitem-274" premiereChannelType="stereo">
						<masterclipid>masterclip-52</masterclipid>
						<name>UTS_19_22_Pendulum_Unleashed_Hit_1_David_Denis_856912.wav</name>
						<enabled>TRUE</enabled>
						<duration>200</duration>
						<rate>
							<timebase>25</timebase>
							<ntsc>FALSE</ntsc>
						</rate>
						<start>28573</start>
						<end>28686</end>
						<in>0</in>
						<out>113</out>
						<pproTicksIn>0</pproTicksIn>
						<pproTicksOut>1148152320000</pproTicksOut>
						<file id="file-50"/>
						<sourcetrack>
							<mediatype>audio</mediatype>
							<trackindex>1</trackindex>
						</sourcetrack>
							<filter>
								<effect>
									<name>Gain</name>
									<effectid>{61756678, 4761696e, 4b657947}</effectid>
									<effecttype>filter</effecttype>
									<mediatype>audio</mediatype>
									<parameter authoringApp="PremierePro">
										<parameterid>Gain(dB)</parameterid>
										<name>Gain(dB)</name>
										<valuemin>-96</valuemin>
										<valuemax>96</valuemax>
										<value>-9</value>
									</parameter>
								</effect>
							</filter>
						<link>
							<linkclipref>clipitem-274</linkclipref>
							<mediatype>audio</mediatype>
							<trackindex>13</trackindex>
							<clipindex>7</clipindex>
							<groupindex>1</groupindex>
						</link>
						<link>
							<linkclipref>clipitem-289</linkclipref>
							<mediatype>audio</mediatype>
							<trackindex>14</trackindex>
							<clipindex>7</clipindex>
							<groupindex>1</groupindex>
						</link>
						<logginginfo>
							<description></description>
							<scene></scene>
							<shottake></shottake>
							<lognote></lognote>
						</logginginfo>
						<labels>
							<label2>Caribbean</label2>
						</labels>
					</clipitem>
					<clipitem id="clipitem-275" premiereChannelType="stereo">
						<masterclipid>masterclip-60</masterclipid>
						<name>BTV_162_21_Time_Trail_Bradley_Guyler_925609.wav</name>
						<enabled>TRUE</enabled>
						<duration>2900</duration>
						<rate>
							<timebase>25</timebase>
							<ntsc>FALSE</ntsc>
						</rate>
						<start>28896</start>
						<end>-1</end>
						<in>0</in>
						<out>36</out>
						<pproTicksIn>0</pproTicksIn>
						<pproTicksOut>365783040000</pproTicksOut>
						<file id="file-58">
							<name>BTV_162_21_Time_Trail_Bradley_Guyler_925609.wav</name>
							<pathurl>file://localhost/Volumes/Bingen/Prosjekter/MYNT194016%20WHATS%20COOKING/Musikk/Stig/24b%3a48hz/BTV_162_21_Time_Trail_Bradley_Guyler_925609.wav</pathurl>
							<rate>
								<timebase>30</timebase>
								<ntsc>TRUE</ntsc>
							</rate>
							<duration>3476</duration>
							<timecode>
								<rate>
									<timebase>30</timebase>
									<ntsc>TRUE</ntsc>
								</rate>
								<string>01;00;00;00</string>
								<frame>107892</frame>
								<displayformat>DF</displayformat>
								<reel>
									<name></name>
								</reel>
							</timecode>
							<media>
								<audio>
									<samplecharacteristics>
										<depth>16</depth>
										<samplerate>48000</samplerate>
									</samplecharacteristics>
									<channelcount>2</channelcount>
								</audio>
							</media>
						</file>
						<sourcetrack>
							<mediatype>audio</mediatype>
							<trackindex>1</trackindex>
						</sourcetrack>
							<filter>
								<effect>
									<name>Audio Levels</name>
									<effectid>audiolevels</effectid>
									<effectcategory>audiolevels</effectcategory>
									<effecttype>audiolevels</effecttype>
									<mediatype>audio</mediatype>
									<parameter authoringApp="PremierePro">
										<parameterid>level</parameterid>
										<name>Level</name>
										<valuemin>0</valuemin>
										<valuemax>3.98109</valuemax>
										<value>0.156608</value>
									</parameter>
								</effect>
							</filter>
							<marker>
								<comment></comment>
								<name>Marker 2</name>
								<in>400</in>
								<out>-1</out>
							</marker>
							<marker>
								<comment></comment>
								<name>Marker 1</name>
								<in>0</in>
								<out>-1</out>
							</marker>
							<marker>
								<comment></comment>
								<name>Tempo: 120.0</name>
								<in>0</in>
								<out>-1</out>
							</marker>
						<link>
							<linkclipref>clipitem-275</linkclipref>
							<mediatype>audio</mediatype>
							<trackindex>13</trackindex>
							<clipindex>8</clipindex>
							<groupindex>1</groupindex>
						</link>
						<link>
							<linkclipref>clipitem-290</linkclipref>
							<mediatype>audio</mediatype>
							<trackindex>14</trackindex>
							<clipindex>8</clipindex>
							<groupindex>1</groupindex>
						</link>
						<logginginfo>
							<description></description>
							<scene></scene>
							<shottake></shottake>
							<lognote></lognote>
						</logginginfo>
						<labels>
							<label2>Caribbean</label2>
						</labels>
					</clipitem>
					<transitionitem>
						<start>28919</start>
						<end>28932</end>
						<alignment>center</alignment>
						<cutPointTicks>60963840000</cutPointTicks>
						<rate>
							<timebase>25</timebase>
							<ntsc>FALSE</ntsc>
						</rate>
						<effect>
							<name>Cross Fade (+3dB)</name>
							<effectid>KGAudioTransCrossFade3dB</effectid>
							<effecttype>transition</effecttype>
							<mediatype>audio</mediatype>
							<wipecode>0</wipecode>
							<wipeaccuracy>100</wipeaccuracy>
							<startratio>0</startratio>
							<endratio>1</endratio>
							<reverse>FALSE</reverse>
						</effect>
					</transitionitem>
					<clipitem id="clipitem-276" premiereChannelType="stereo">
						<masterclipid>masterclip-60</masterclipid>
						<name>BTV_162_21_Time_Trail_Bradley_Guyler_925609.wav</name>
						<enabled>TRUE</enabled>
						<duration>2900</duration>
						<rate>
							<timebase>25</timebase>
							<ntsc>FALSE</ntsc>
						</rate>
						<start>-1</start>
						<end>-1</end>
						<in>23</in>
						<out>451</out>
						<pproTicksIn>233694720000</pproTicksIn>
						<pproTicksOut>4582448640000</pproTicksOut>
						<file id="file-58"/>
						<sourcetrack>
							<mediatype>audio</mediatype>
							<trackindex>1</trackindex>
						</sourcetrack>
							<filter>
								<effect>
									<name>Gain</name>
									<effectid>{61756678, 4761696e, 4b657947}</effectid>
									<effecttype>filter</effecttype>
									<mediatype>audio</mediatype>
									<parameter authoringApp="PremierePro">
										<parameterid>Gain(dB)</parameterid>
										<name>Gain(dB)</name>
										<valuemin>-96</valuemin>
										<valuemax>96</valuemax>
										<value>-6</value>
									</parameter>
								</effect>
							</filter>
							<filter>
								<effect>
									<name>Audio Levels</name>
									<effectid>audiolevels</effectid>
									<effectcategory>audiolevels</effectcategory>
									<effecttype>audiolevels</effecttype>
									<mediatype>audio</mediatype>
									<parameter authoringApp="PremierePro">
										<parameterid>level</parameterid>
										<name>Level</name>
										<valuemin>0</valuemin>
										<valuemax>3.98109</valuemax>
										<value>0.156608</value>
									</parameter>
								</effect>
							</filter>
							<marker>
								<comment></comment>
								<name>Marker 2</name>
								<in>400</in>
								<out>-1</out>
							</marker>
							<marker>
								<comment></comment>
								<name>Marker 1</name>
								<in>0</in>
								<out>-1</out>
							</marker>
							<marker>
								<comment></comment>
								<name>Tempo: 120.0</name>
								<in>0</in>
								<out>-1</out>
							</marker>
						<link>
							<linkclipref>clipitem-276</linkclipref>
							<mediatype>audio</mediatype>
							<trackindex>13</trackindex>
							<clipindex>10</clipindex>
							<groupindex>1</groupindex>
						</link>
						<link>
							<linkclipref>clipitem-291</linkclipref>
							<mediatype>audio</mediatype>
							<trackindex>14</trackindex>
							<clipindex>10</clipindex>
							<groupindex>1</groupindex>
						</link>
						<logginginfo>
							<description></description>
							<scene></scene>
							<shottake></shottake>
							<lognote></lognote>
						</logginginfo>
						<labels>
							<label2>Caribbean</label2>
						</labels>
					</clipitem>
					<transitionitem>
						<start>28960</start>
						<end>29347</end>
						<alignment>end-black</alignment>
						<cutPointTicks>3932167680000</cutPointTicks>
						<rate>
							<timebase>25</timebase>
							<ntsc>FALSE</ntsc>
						</rate>
						<effect>
							<name>Cross Fade (+3dB)</name>
							<effectid>KGAudioTransCrossFade3dB</effectid>
							<effecttype>transition</effecttype>
							<mediatype>audio</mediatype>
							<wipecode>0</wipecode>
							<wipeaccuracy>100</wipeaccuracy>
							<startratio>0</startratio>
							<endratio>1</endratio>
							<reverse>FALSE</reverse>
						</effect>
					</transitionitem>
					<clipitem id="clipitem-277" premiereChannelType="stereo">
						<masterclipid>masterclip-61</masterclipid>
						<name>BTV_162_18_Light_Concern_Bradley_Guyler_925607.wav</name>
						<enabled>TRUE</enabled>
						<duration>3000</duration>
						<rate>
							<timebase>25</timebase>
							<ntsc>FALSE</ntsc>
						</rate>
						<start>29513</start>
						<end>-1</end>
						<in>0</in>
						<out>1481</out>
						<pproTicksIn>0</pproTicksIn>
						<pproTicksOut>15047907840000</pproTicksOut>
						<file id="file-59">
							<name>BTV_162_18_Light_Concern_Bradley_Guyler_925607.wav</name>
							<pathurl>file://localhost/Volumes/Bingen/Prosjekter/MYNT194016%20WHATS%20COOKING/Musikk/Stig/24b%3a48hz/BTV_162_18_Light_Concern_Bradley_Guyler_925607.wav</pathurl>
							<rate>
								<timebase>30</timebase>
								<ntsc>TRUE</ntsc>
							</rate>
							<duration>3596</duration>
							<timecode>
								<rate>
									<timebase>30</timebase>
									<ntsc>TRUE</ntsc>
								</rate>
								<string>01;00;00;00</string>
								<frame>107892</frame>
								<displayformat>DF</displayformat>
								<reel>
									<name></name>
								</reel>
							</timecode>
							<media>
								<audio>
									<samplecharacteristics>
										<depth>16</depth>
										<samplerate>48000</samplerate>
									</samplecharacteristics>
									<channelcount>2</channelcount>
								</audio>
							</media>
						</file>
						<sourcetrack>
							<mediatype>audio</mediatype>
							<trackindex>1</trackindex>
						</sourcetrack>
							<filter>
								<effect>
									<name>Audio Levels</name>
									<effectid>audiolevels</effectid>
									<effectcategory>audiolevels</effectcategory>
									<effecttype>audiolevels</effecttype>
									<mediatype>audio</mediatype>
									<parameter authoringApp="PremierePro">
										<parameterid>level</parameterid>
										<name>Level</name>
										<valuemin>0</valuemin>
										<valuemax>3.98109</valuemax>
										<value>0.11598</value>
									</parameter>
								</effect>
							</filter>
							<marker>
								<comment></comment>
								<name>Tempo: 100.0</name>
								<in>0</in>
								<out>-1</out>
							</marker>
							<marker>
								<comment></comment>
								<name>Marker 1</name>
								<in>0</in>
								<out>-1</out>
							</marker>
							<marker>
								<comment></comment>
								<name></name>
								<in>2820</in>
								<out>-1</out>
							</marker>
						<link>
							<linkclipref>clipitem-277</linkclipref>
							<mediatype>audio</mediatype>
							<trackindex>13</trackindex>
							<clipindex>12</clipindex>
							<groupindex>1</groupindex>
						</link>
						<link>
							<linkclipref>clipitem-292</linkclipref>
							<mediatype>audio</mediatype>
							<trackindex>14</trackindex>
							<clipindex>12</clipindex>
							<groupindex>1</groupindex>
						</link>
						<logginginfo>
							<description></description>
							<scene></scene>
							<shottake></shottake>
							<lognote></lognote>
						</logginginfo>
						<labels>
							<label2>Caribbean</label2>
						</labels>
					</clipitem>
					<transitionitem>
						<start>30491</start>
						<end>30994</end>
						<alignment>end-black</alignment>
						<cutPointTicks>5110801920000</cutPointTicks>
						<rate>
							<timebase>25</timebase>
							<ntsc>FALSE</ntsc>
						</rate>
						<effect>
							<name>Cross Fade (+3dB)</name>
							<effectid>KGAudioTransCrossFade3dB</effectid>
							<effecttype>transition</effecttype>
							<mediatype>audio</mediatype>
							<wipecode>0</wipecode>
							<wipeaccuracy>100</wipeaccuracy>
							<startratio>0</startratio>
							<endratio>1</endratio>
							<reverse>FALSE</reverse>
						</effect>
					</transitionitem>
					<clipitem id="clipitem-278" premiereChannelType="stereo">
						<masterclipid>masterclip-60</masterclipid>
						<name>BTV_162_21_Time_Trail_Bradley_Guyler_925609.wav</name>
						<enabled>TRUE</enabled>
						<duration>2900</duration>
						<rate>
							<timebase>25</timebase>
							<ntsc>FALSE</ntsc>
						</rate>
						<start>31402</start>
						<end>-1</end>
						<in>1596</in>
						<out>1738</out>
						<pproTicksIn>16216381440000</pproTicksIn>
						<pproTicksOut>17659192320000</pproTicksOut>
						<file id="file-58"/>
						<sourcetrack>
							<mediatype>audio</mediatype>
							<trackindex>1</trackindex>
						</sourcetrack>
							<filter>
								<effect>
									<name>Gain</name>
									<effectid>{61756678, 4761696e, 4b657947}</effectid>
									<effecttype>filter</effecttype>
									<mediatype>audio</mediatype>
									<parameter authoringApp="PremierePro">
										<parameterid>Gain(dB)</parameterid>
										<name>Gain(dB)</name>
										<valuemin>-96</valuemin>
										<valuemax>96</valuemax>
										<value>-21</value>
									</parameter>
								</effect>
							</filter>
							<marker>
								<comment></comment>
								<name>Marker 2</name>
								<in>400</in>
								<out>-1</out>
							</marker>
							<marker>
								<comment></comment>
								<name>Marker 1</name>
								<in>0</in>
								<out>-1</out>
							</marker>
							<marker>
								<comment></comment>
								<name>Tempo: 120.0</name>
								<in>0</in>
								<out>-1</out>
							</marker>
						<link>
							<linkclipref>clipitem-278</linkclipref>
							<mediatype>audio</mediatype>
							<trackindex>13</trackindex>
							<clipindex>14</clipindex>
							<groupindex>1</groupindex>
						</link>
						<link>
							<linkclipref>clipitem-293</linkclipref>
							<mediatype>audio</mediatype>
							<trackindex>14</trackindex>
							<clipindex>14</clipindex>
							<groupindex>1</groupindex>
						</link>
						<logginginfo>
							<description></description>
							<scene></scene>
							<shottake></shottake>
							<lognote></lognote>
						</logginginfo>
						<labels>
							<label2>Caribbean</label2>
						</labels>
					</clipitem>
					<transitionitem>
						<start>31531</start>
						<end>31544</end>
						<alignment>center</alignment>
						<cutPointTicks>60963840000</cutPointTicks>
						<rate>
							<timebase>25</timebase>
							<ntsc>FALSE</ntsc>
						</rate>
						<effect>
							<name>Cross Fade (+3dB)</name>
							<effectid>KGAudioTransCrossFade3dB</effectid>
							<effecttype>transition</effecttype>
							<mediatype>audio</mediatype>
							<wipecode>0</wipecode>
							<wipeaccuracy>100</wipeaccuracy>
							<startratio>0</startratio>
							<endratio>1</endratio>
							<reverse>FALSE</reverse>
						</effect>
					</transitionitem>
					<clipitem id="clipitem-279" premiereChannelType="stereo">
						<masterclipid>masterclip-60</masterclipid>
						<name>BTV_162_21_Time_Trail_Bradley_Guyler_925609.wav</name>
						<enabled>TRUE</enabled>
						<duration>2900</duration>
						<rate>
							<timebase>25</timebase>
							<ntsc>FALSE</ntsc>
						</rate>
						<start>-1</start>
						<end>-1</end>
						<in>1725</in>
						<out>1991</out>
						<pproTicksIn>17527104000000</pproTicksIn>
						<pproTicksOut>20229834240000</pproTicksOut>
						<file id="file-58"/>
						<sourcetrack>
							<mediatype>audio</mediatype>
							<trackindex>1</trackindex>
						</sourcetrack>
							<filter>
								<effect>
									<name>Gain</name>
									<effectid>{61756678, 4761696e, 4b657947}</effectid>
									<effecttype>filter</effecttype>
									<mediatype>audio</mediatype>
									<parameter authoringApp="PremierePro">
										<parameterid>Gain(dB)</parameterid>
										<name>Gain(dB)</name>
										<valuemin>-96</valuemin>
										<valuemax>96</valuemax>
										<value>-27</value>
									</parameter>
								</effect>
							</filter>
							<marker>
								<comment></comment>
								<name>Marker 2</name>
								<in>400</in>
								<out>-1</out>
							</marker>
							<marker>
								<comment></comment>
								<name>Marker 1</name>
								<in>0</in>
								<out>-1</out>
							</marker>
							<marker>
								<comment></comment>
								<name>Tempo: 120.0</name>
								<in>0</in>
								<out>-1</out>
							</marker>
						<link>
							<linkclipref>clipitem-279</linkclipref>
							<mediatype>audio</mediatype>
							<trackindex>13</trackindex>
							<clipindex>16</clipindex>
							<groupindex>1</groupindex>
						</link>
						<link>
							<linkclipref>clipitem-294</linkclipref>
							<mediatype>audio</mediatype>
							<trackindex>14</trackindex>
							<clipindex>16</clipindex>
							<groupindex>1</groupindex>
						</link>
						<logginginfo>
							<description></description>
							<scene></scene>
							<shottake></shottake>
							<lognote></lognote>
						</logginginfo>
						<labels>
							<label2>Caribbean</label2>
						</labels>
					</clipitem>
					<transitionitem>
						<start>31722</start>
						<end>31797</end>
						<alignment>end-black</alignment>
						<cutPointTicks>762048000000</cutPointTicks>
						<rate>
							<timebase>25</timebase>
							<ntsc>FALSE</ntsc>
						</rate>
						<effect>
							<name>Cross Fade (+3dB)</name>
							<effectid>KGAudioTransCrossFade3dB</effectid>
							<effecttype>transition</effecttype>
							<mediatype>audio</mediatype>
							<wipecode>0</wipecode>
							<wipeaccuracy>100</wipeaccuracy>
							<startratio>0</startratio>
							<endratio>1</endratio>
							<reverse>FALSE</reverse>
						</effect>
					</transitionitem>
					<transitionitem>
						<start>32132</start>
						<end>32145</end>
						<alignment>start-black</alignment>
						<cutPointTicks>0</cutPointTicks>
						<rate>
							<timebase>25</timebase>
							<ntsc>FALSE</ntsc>
						</rate>
						<effect>
							<name>Cross Fade (+3dB)</name>
							<effectid>KGAudioTransCrossFade3dB</effectid>
							<effecttype>transition</effecttype>
							<mediatype>audio</mediatype>
							<wipecode>0</wipecode>
							<wipeaccuracy>100</wipeaccuracy>
							<startratio>0</startratio>
							<endratio>1</endratio>
							<reverse>FALSE</reverse>
						</effect>
					</transitionitem>
					<clipitem id="clipitem-280" premiereChannelType="stereo">
						<masterclipid>masterclip-62</masterclipid>
						<name>COHH_13_84_Another_New_York_Spitzer_847711.wav</name>
						<enabled>TRUE</enabled>
						<duration>4363</duration>
						<rate>
							<timebase>25</timebase>
							<ntsc>FALSE</ntsc>
						</rate>
						<start>-1</start>
						<end>-1</end>
						<in>537</in>
						<out>939</out>
						<pproTicksIn>5456263680000</pproTicksIn>
						<pproTicksOut>9540840960000</pproTicksOut>
						<file id="file-60">
							<name>COHH_13_84_Another_New_York_Spitzer_847711.wav</name>
							<pathurl>file://localhost/Volumes/Bingen/Prosjekter/MYNT194016%20WHATS%20COOKING/Musikk/Marita/Lykke/Broshow%20(All%20main%20versions)/24B%3a48Hz/COHH_13_84_Another_New_York_Spitzer_847711.wav</pathurl>
							<rate>
								<timebase>30</timebase>
								<ntsc>TRUE</ntsc>
							</rate>
							<duration>5231</duration>
							<timecode>
								<rate>
									<timebase>30</timebase>
									<ntsc>TRUE</ntsc>
								</rate>
								<string>00;00;00;00</string>
								<frame>0</frame>
								<displayformat>DF</displayformat>
								<reel>
									<name></name>
								</reel>
							</timecode>
							<media>
								<audio>
									<samplecharacteristics>
										<depth>16</depth>
										<samplerate>48000</samplerate>
									</samplecharacteristics>
									<channelcount>2</channelcount>
								</audio>
							</media>
						</file>
						<sourcetrack>
							<mediatype>audio</mediatype>
							<trackindex>1</trackindex>
						</sourcetrack>
							<filter>
								<effect>
									<name>Gain</name>
									<effectid>{61756678, 4761696e, 4b657947}</effectid>
									<effecttype>filter</effecttype>
									<mediatype>audio</mediatype>
									<parameter authoringApp="PremierePro">
										<parameterid>Gain(dB)</parameterid>
										<name>Gain(dB)</name>
										<valuemin>-96</valuemin>
										<valuemax>96</valuemax>
										<value>-6</value>
									</parameter>
								</effect>
							</filter>
						<link>
							<linkclipref>clipitem-280</linkclipref>
							<mediatype>audio</mediatype>
							<trackindex>13</trackindex>
							<clipindex>19</clipindex>
							<groupindex>1</groupindex>
						</link>
						<link>
							<linkclipref>clipitem-295</linkclipref>
							<mediatype>audio</mediatype>
							<trackindex>14</trackindex>
							<clipindex>19</clipindex>
							<groupindex>1</groupindex>
						</link>
						<logginginfo>
							<description></description>
							<scene></scene>
							<shottake></shottake>
							<lognote></lognote>
						</logginginfo>
						<labels>
							<label2>Caribbean</label2>
						</labels>
					</clipitem>
					<transitionitem>
						<start>32521</start>
						<end>32534</end>
						<alignment>end-black</alignment>
						<cutPointTicks>132088320000</cutPointTicks>
						<rate>
							<timebase>25</timebase>
							<ntsc>FALSE</ntsc>
						</rate>
						<effect>
							<name>Cross Fade (+3dB)</name>
							<effectid>KGAudioTransCrossFade3dB</effectid>
							<effecttype>transition</effecttype>
							<mediatype>audio</mediatype>
							<wipecode>0</wipecode>
							<wipeaccuracy>100</wipeaccuracy>
							<startratio>0</startratio>
							<endratio>1</endratio>
							<reverse>FALSE</reverse>
						</effect>
					</transitionitem>
					<transitionitem>
						<start>32534</start>
						<end>32547</end>
						<alignment>start-black</alignment>
						<cutPointTicks>0</cutPointTicks>
						<rate>
							<timebase>25</timebase>
							<ntsc>FALSE</ntsc>
						</rate>
						<effect>
							<name>Cross Fade (+3dB)</name>
							<effectid>KGAudioTransCrossFade3dB</effectid>
							<effecttype>transition</effecttype>
							<mediatype>audio</mediatype>
							<wipecode>0</wipecode>
							<wipeaccuracy>100</wipeaccuracy>
							<startratio>0</startratio>
							<endratio>1</endratio>
							<reverse>FALSE</reverse>
						</effect>
					</transitionitem>
					<clipitem id="clipitem-281" premiereChannelType="stereo">
						<masterclipid>masterclip-62</masterclipid>
						<name>COHH_13_84_Another_New_York_Spitzer_847711.wav</name>
						<enabled>TRUE</enabled>
						<duration>4363</duration>
						<rate>
							<timebase>25</timebase>
							<ntsc>FALSE</ntsc>
						</rate>
						<start>-1</start>
						<end>-1</end>
						<in>934</in>
						<out>1011</out>
						<pproTicksIn>9490037760000</pproTicksIn>
						<pproTicksOut>10272407040000</pproTicksOut>
						<file id="file-60"/>
						<sourcetrack>
							<mediatype>audio</mediatype>
							<trackindex>1</trackindex>
						</sourcetrack>
						<link>
							<linkclipref>clipitem-281</linkclipref>
							<mediatype>audio</mediatype>
							<trackindex>13</trackindex>
							<clipindex>22</clipindex>
							<groupindex>1</groupindex>
						</link>
						<link>
							<linkclipref>clipitem-296</linkclipref>
							<mediatype>audio</mediatype>
							<trackindex>14</trackindex>
							<clipindex>22</clipindex>
							<groupindex>1</groupindex>
						</link>
						<logginginfo>
							<description></description>
							<scene></scene>
							<shottake></shottake>
							<lognote></lognote>
						</logginginfo>
						<labels>
							<label2>Caribbean</label2>
						</labels>
					</clipitem>
					<transitionitem>
						<start>32598</start>
						<end>32611</end>
						<alignment>center</alignment>
						<cutPointTicks>60963840000</cutPointTicks>
						<rate>
							<timebase>25</timebase>
							<ntsc>FALSE</ntsc>
						</rate>
						<effect>
							<name>Cross Fade (+3dB)</name>
							<effectid>KGAudioTransCrossFade3dB</effectid>
							<effecttype>transition</effecttype>
							<mediatype>audio</mediatype>
							<wipecode>0</wipecode>
							<wipeaccuracy>100</wipeaccuracy>
							<startratio>0</startratio>
							<endratio>1</endratio>
							<reverse>FALSE</reverse>
						</effect>
					</transitionitem>
					<clipitem id="clipitem-282" premiereChannelType="stereo">
						<masterclipid>masterclip-62</masterclipid>
						<name>COHH_13_84_Another_New_York_Spitzer_847711.wav</name>
						<enabled>TRUE</enabled>
						<duration>4363</duration>
						<rate>
							<timebase>25</timebase>
							<ntsc>FALSE</ntsc>
						</rate>
						<start>-1</start>
						<end>-1</end>
						<in>998</in>
						<out>1095</out>
						<pproTicksIn>10140318720000</pproTicksIn>
						<pproTicksOut>11125900800000</pproTicksOut>
						<file id="file-60"/>
						<sourcetrack>
							<mediatype>audio</mediatype>
							<trackindex>1</trackindex>
						</sourcetrack>
							<filter>
								<effect>
									<name>Gain</name>
									<effectid>{61756678, 4761696e, 4b657947}</effectid>
									<effecttype>filter</effecttype>
									<mediatype>audio</mediatype>
									<parameter authoringApp="PremierePro">
										<parameterid>Gain(dB)</parameterid>
										<name>Gain(dB)</name>
										<valuemin>-96</valuemin>
										<valuemax>96</valuemax>
										<value>3</value>
									</parameter>
								</effect>
							</filter>
						<link>
							<linkclipref>clipitem-282</linkclipref>
							<mediatype>audio</mediatype>
							<trackindex>13</trackindex>
							<clipindex>24</clipindex>
							<groupindex>1</groupindex>
						</link>
						<link>
							<linkclipref>clipitem-297</linkclipref>
							<mediatype>audio</mediatype>
							<trackindex>14</trackindex>
							<clipindex>24</clipindex>
							<groupindex>1</groupindex>
						</link>
						<logginginfo>
							<description></description>
							<scene></scene>
							<shottake></shottake>
							<lognote></lognote>
						</logginginfo>
						<labels>
							<label2>Caribbean</label2>
						</labels>
					</clipitem>
					<transitionitem>
						<start>32682</start>
						<end>32695</end>
						<alignment>center</alignment>
						<cutPointTicks>60963840000</cutPointTicks>
						<rate>
							<timebase>25</timebase>
							<ntsc>FALSE</ntsc>
						</rate>
						<effect>
							<name>Cross Fade (+3dB)</name>
							<effectid>KGAudioTransCrossFade3dB</effectid>
							<effecttype>transition</effecttype>
							<mediatype>audio</mediatype>
							<wipecode>0</wipecode>
							<wipeaccuracy>100</wipeaccuracy>
							<startratio>0</startratio>
							<endratio>1</endratio>
							<reverse>FALSE</reverse>
						</effect>
					</transitionitem>
					<clipitem id="clipitem-283" premiereChannelType="stereo">
						<masterclipid>masterclip-62</masterclipid>
						<name>COHH_13_84_Another_New_York_Spitzer_847711.wav</name>
						<enabled>TRUE</enabled>
						<duration>4363</duration>
						<rate>
							<timebase>25</timebase>
							<ntsc>FALSE</ntsc>
						</rate>
						<start>-1</start>
						<end>-1</end>
						<in>1082</in>
						<out>1220</out>
						<pproTicksIn>10993812480000</pproTicksIn>
						<pproTicksOut>12395980800000</pproTicksOut>
						<file id="file-60"/>
						<sourcetrack>
							<mediatype>audio</mediatype>
							<trackindex>1</trackindex>
						</sourcetrack>
							<filter>
								<effect>
									<name>Gain</name>
									<effectid>{61756678, 4761696e, 4b657947}</effectid>
									<effecttype>filter</effecttype>
									<mediatype>audio</mediatype>
									<parameter authoringApp="PremierePro">
										<parameterid>Gain(dB)</parameterid>
										<name>Gain(dB)</name>
										<valuemin>-96</valuemin>
										<valuemax>96</valuemax>
										<value>-9</value>
									</parameter>
								</effect>
							</filter>
						<link>
							<linkclipref>clipitem-283</linkclipref>
							<mediatype>audio</mediatype>
							<trackindex>13</trackindex>
							<clipindex>26</clipindex>
							<groupindex>1</groupindex>
						</link>
						<link>
							<linkclipref>clipitem-298</linkclipref>
							<mediatype>audio</mediatype>
							<trackindex>14</trackindex>
							<clipindex>26</clipindex>
							<groupindex>1</groupindex>
						</link>
						<logginginfo>
							<description></description>
							<scene></scene>
							<shottake></shottake>
							<lognote></lognote>
						</logginginfo>
						<labels>
							<label2>Caribbean</label2>
						</labels>
					</clipitem>
					<transitionitem>
						<start>32807</start>
						<end>32820</end>
						<alignment>end-black</alignment>
						<cutPointTicks>132088320000</cutPointTicks>
						<rate>
							<timebase>25</timebase>
							<ntsc>FALSE</ntsc>
						</rate>
						<effect>
							<name>Cross Fade (+3dB)</name>
							<effectid>KGAudioTransCrossFade3dB</effectid>
							<effecttype>transition</effecttype>
							<mediatype>audio</mediatype>
							<wipecode>0</wipecode>
							<wipeaccuracy>100</wipeaccuracy>
							<startratio>0</startratio>
							<endratio>1</endratio>
							<reverse>FALSE</reverse>
						</effect>
					</transitionitem>
					<transitionitem>
						<start>32905</start>
						<end>32918</end>
						<alignment>start-black</alignment>
						<cutPointTicks>0</cutPointTicks>
						<rate>
							<timebase>25</timebase>
							<ntsc>FALSE</ntsc>
						</rate>
						<effect>
							<name>Cross Fade (+3dB)</name>
							<effectid>KGAudioTransCrossFade3dB</effectid>
							<effecttype>transition</effecttype>
							<mediatype>audio</mediatype>
							<wipecode>0</wipecode>
							<wipeaccuracy>100</wipeaccuracy>
							<startratio>0</startratio>
							<endratio>1</endratio>
							<reverse>FALSE</reverse>
						</effect>
					</transitionitem>
					<clipitem id="clipitem-284" premiereChannelType="mono">
						<masterclipid>masterclip-3</masterclipid>
						<name>Clip0001.mov</name>
						<enabled>TRUE</enabled>
						<duration>59676</duration>
						<rate>
							<timebase>25</timebase>
							<ntsc>FALSE</ntsc>
						</rate>
						<start>-1</start>
						<end>-1</end>
						<in>58293</in>
						<out>58402</out>
						<pproTicksIn>592294187520000</pproTicksIn>
						<pproTicksOut>593401697280000</pproTicksOut>
						<file id="file-3"/>
						<sourcetrack>
							<mediatype>audio</mediatype>
							<trackindex>2</trackindex>
						</sourcetrack>
							<filter>
								<effect>
									<name>Gain</name>
									<effectid>{61756678, 4761696e, 4b657947}</effectid>
									<effecttype>filter</effecttype>
									<mediatype>audio</mediatype>
									<parameter authoringApp="PremierePro">
										<parameterid>Gain(dB)</parameterid>
										<name>Gain(dB)</name>
										<valuemin>-96</valuemin>
										<valuemax>96</valuemax>
										<value>-18</value>
									</parameter>
								</effect>
							</filter>
						<logginginfo>
							<description>foredragssal HNÆ Abiel</description>
							<scene></scene>
							<shottake></shottake>
							<lognote></lognote>
						</logginginfo>
						<labels>
							<label2>Iris</label2>
						</labels>
					</clipitem>
					<transitionitem>
						<start>33001</start>
						<end>33014</end>
						<alignment>end-black</alignment>
						<cutPointTicks>132088320000</cutPointTicks>
						<rate>
							<timebase>25</timebase>
							<ntsc>FALSE</ntsc>
						</rate>
						<effect>
							<name>Cross Fade (+3dB)</name>
							<effectid>KGAudioTransCrossFade3dB</effectid>
							<effecttype>transition</effecttype>
							<mediatype>audio</mediatype>
							<wipecode>0</wipecode>
							<wipeaccuracy>100</wipeaccuracy>
							<startratio>0</startratio>
							<endratio>1</endratio>
							<reverse>FALSE</reverse>
						</effect>
					</transitionitem>
					<transitionitem>
						<start>35146</start>
						<end>35190</end>
						<alignment>start-black</alignment>
						<cutPointTicks>0</cutPointTicks>
						<rate>
							<timebase>25</timebase>
							<ntsc>FALSE</ntsc>
						</rate>
						<effect>
							<name>Cross Fade (+3dB)</name>
							<effectid>KGAudioTransCrossFade3dB</effectid>
							<effecttype>transition</effecttype>
							<mediatype>audio</mediatype>
							<wipecode>0</wipecode>
							<wipeaccuracy>100</wipeaccuracy>
							<startratio>0</startratio>
							<endratio>1</endratio>
							<reverse>FALSE</reverse>
						</effect>
					</transitionitem>
					<clipitem id="clipitem-285" premiereChannelType="stereo">
						<masterclipid>masterclip-63</masterclipid>
						<name>264777__shinplaster__swoosh.wav</name>
						<enabled>TRUE</enabled>
						<duration>132</duration>
						<rate>
							<timebase>25</timebase>
							<ntsc>FALSE</ntsc>
						</rate>
						<start>-1</start>
						<end>35245</end>
						<in>30</in>
						<out>129</out>
						<pproTicksIn>304819200000</pproTicksIn>
						<pproTicksOut>1310722560000</pproTicksOut>
						<file id="file-61">
							<name>264777__shinplaster__swoosh.wav</name>
							<pathurl>file://localhost/Volumes/Bingen/Prosjekter/MYNT194016%20WHATS%20COOKING/Lydeffekter/Jan%20Lydeffekter/Woosh/264777__shinplaster__swoosh.wav</pathurl>
							<rate>
								<timebase>30</timebase>
								<ntsc>TRUE</ntsc>
							</rate>
							<duration>159</duration>
							<timecode>
								<rate>
									<timebase>30</timebase>
									<ntsc>TRUE</ntsc>
								</rate>
								<string>00;00;00;00</string>
								<frame>0</frame>
								<displayformat>DF</displayformat>
								<reel>
									<name></name>
								</reel>
							</timecode>
							<media>
								<audio>
									<samplecharacteristics>
										<depth>16</depth>
										<samplerate>48000</samplerate>
									</samplecharacteristics>
									<channelcount>2</channelcount>
								</audio>
							</media>
						</file>
						<sourcetrack>
							<mediatype>audio</mediatype>
							<trackindex>1</trackindex>
						</sourcetrack>
						<link>
							<linkclipref>clipitem-285</linkclipref>
							<mediatype>audio</mediatype>
							<trackindex>13</trackindex>
							<clipindex>32</clipindex>
							<groupindex>1</groupindex>
						</link>
						<link>
							<linkclipref>clipitem-299</linkclipref>
							<mediatype>audio</mediatype>
							<trackindex>14</trackindex>
							<clipindex>29</clipindex>
							<groupindex>1</groupindex>
						</link>
						<logginginfo>
							<description></description>
							<scene></scene>
							<shottake></shottake>
							<lognote></lognote>
						</logginginfo>
						<labels>
							<label2>Caribbean</label2>
						</labels>
					</clipitem>
					<enabled>TRUE</enabled>
					<locked>FALSE</locked>
					<outputchannelindex>1</outputchannelindex>
				</track>
				<track TL.SQTrackAudioKeyframeStyle="0" TL.SQTrackShy="0" TL.SQTrackExpandedHeight="65" TL.SQTrackExpanded="1" MZ.TrackTargeted="0" PannerCurrentValue="0.5" PannerIsInverted="true" PannerStartKeyframe="-91445760000000000,0.5,0,0,0,0,0,0" PannerName="Balance" currentExplodedTrackIndex="1" totalExplodedTrackCount="2" premiereTrackType="Stereo">
					<clipitem id="clipitem-286" premiereChannelType="stereo">
						<masterclipid>masterclip-59</masterclipid>
						<name>NONRO318732CS0001 If I Ain't Got you  (Radio Edit).wav</name>
						<enabled>TRUE</enabled>
						<duration>5868</duration>
						<rate>
							<timebase>25</timebase>
							<ntsc>FALSE</ntsc>
						</rate>
						<start>23626</start>
						<end>-1</end>
						<in>21</in>
						<out>527</out>
						<pproTicksIn>213373440000</pproTicksIn>
						<pproTicksOut>5354657280000</pproTicksOut>
						<file id="file-57"/>
						<sourcetrack>
							<mediatype>audio</mediatype>
							<trackindex>2</trackindex>
						</sourcetrack>
							<filter>
								<effect>
									<name>Gain</name>
									<effectid>{61756678, 4761696e, 4b657947}</effectid>
									<effecttype>filter</effecttype>
									<mediatype>audio</mediatype>
									<parameter authoringApp="PremierePro">
										<parameterid>Gain(dB)</parameterid>
										<name>Gain(dB)</name>
										<valuemin>-96</valuemin>
										<valuemax>96</valuemax>
										<value>-12</value>
									</parameter>
								</effect>
							</filter>
						<link>
							<linkclipref>clipitem-271</linkclipref>
							<mediatype>audio</mediatype>
							<trackindex>13</trackindex>
							<clipindex>1</clipindex>
							<groupindex>1</groupindex>
						</link>
						<link>
							<linkclipref>clipitem-286</linkclipref>
							<mediatype>audio</mediatype>
							<trackindex>14</trackindex>
							<clipindex>1</clipindex>
							<groupindex>1</groupindex>
						</link>
						<logginginfo>
							<description>NB! Avventer svar fra HP</description>
							<scene></scene>
							<shottake></shottake>
							<lognote>CD Track 1 archiveNo[318732013]</lognote>
						</logginginfo>
						<labels>
							<label2>Caribbean</label2>
						</labels>
					</clipitem>
					<transitionitem>
						<start>24119</start>
						<end>24132</end>
						<alignment>center</alignment>
						<cutPointTicks>60963840000</cutPointTicks>
						<rate>
							<timebase>25</timebase>
							<ntsc>FALSE</ntsc>
						</rate>
						<effect>
							<name>Cross Fade (+3dB)</name>
							<effectid>KGAudioTransCrossFade3dB</effectid>
							<effecttype>transition</effecttype>
							<mediatype>audio</mediatype>
							<wipecode>0</wipecode>
							<wipeaccuracy>100</wipeaccuracy>
							<startratio>0</startratio>
							<endratio>1</endratio>
							<reverse>FALSE</reverse>
						</effect>
					</transitionitem>
					<clipitem id="clipitem-287" premiereChannelType="stereo">
						<masterclipid>masterclip-59</masterclipid>
						<name>NONRO318732CS0001 If I Ain't Got you  (Radio Edit).wav</name>
						<enabled>TRUE</enabled>
						<duration>5868</duration>
						<rate>
							<timebase>25</timebase>
							<ntsc>FALSE</ntsc>
						</rate>
						<start>-1</start>
						<end>-1</end>
						<in>514</in>
						<out>1128</out>
						<pproTicksIn>5222568960000</pproTicksIn>
						<pproTicksOut>11461201920000</pproTicksOut>
						<file id="file-57"/>
						<sourcetrack>
							<mediatype>audio</mediatype>
							<trackindex>2</trackindex>
						</sourcetrack>
							<filter>
								<effect>
									<name>Gain</name>
									<effectid>{61756678, 4761696e, 4b657947}</effectid>
									<effecttype>filter</effecttype>
									<mediatype>audio</mediatype>
									<parameter authoringApp="PremierePro">
										<parameterid>Gain(dB)</parameterid>
										<name>Gain(dB)</name>
										<valuemin>-96</valuemin>
										<valuemax>96</valuemax>
										<value>-6</value>
									</parameter>
								</effect>
							</filter>
						<link>
							<linkclipref>clipitem-272</linkclipref>
							<mediatype>audio</mediatype>
							<trackindex>13</trackindex>
							<clipindex>3</clipindex>
							<groupindex>1</groupindex>
						</link>
						<link>
							<linkclipref>clipitem-287</linkclipref>
							<mediatype>audio</mediatype>
							<trackindex>14</trackindex>
							<clipindex>3</clipindex>
							<groupindex>1</groupindex>
						</link>
						<logginginfo>
							<description>NB! Avventer svar fra HP</description>
							<scene></scene>
							<shottake></shottake>
							<lognote>CD Track 1 archiveNo[318732013]</lognote>
						</logginginfo>
						<labels>
							<label2>Caribbean</label2>
						</labels>
					</clipitem>
					<transitionitem>
						<start>24709</start>
						<end>24733</end>
						<alignment>end</alignment>
						<cutPointTicks>243855360000</cutPointTicks>
						<rate>
							<timebase>25</timebase>
							<ntsc>FALSE</ntsc>
						</rate>
						<effect>
							<name>Cross Fade (+3dB)</name>
							<effectid>KGAudioTransCrossFade3dB</effectid>
							<effecttype>transition</effecttype>
							<mediatype>audio</mediatype>
							<wipecode>0</wipecode>
							<wipeaccuracy>100</wipeaccuracy>
							<startratio>0</startratio>
							<endratio>1</endratio>
							<reverse>FALSE</reverse>
						</effect>
					</transitionitem>
					<clipitem id="clipitem-288" premiereChannelType="stereo">
						<masterclipid>masterclip-59</masterclipid>
						<name>NONRO318732CS0001 If I Ain't Got you  (Radio Edit).wav</name>
						<enabled>TRUE</enabled>
						<duration>5868</duration>
						<rate>
							<timebase>25</timebase>
							<ntsc>FALSE</ntsc>
						</rate>
						<start>-1</start>
						<end>-1</end>
						<in>1104</in>
						<out>1202</out>
						<pproTicksIn>11217346560000</pproTicksIn>
						<pproTicksOut>12213089280000</pproTicksOut>
						<file id="file-57"/>
						<sourcetrack>
							<mediatype>audio</mediatype>
							<trackindex>2</trackindex>
						</sourcetrack>
							<filter>
								<effect>
									<name>Gain</name>
									<effectid>{61756678, 4761696e, 4b657947}</effectid>
									<effecttype>filter</effecttype>
									<mediatype>audio</mediatype>
									<parameter authoringApp="PremierePro">
										<parameterid>Gain(dB)</parameterid>
										<name>Gain(dB)</name>
										<valuemin>-96</valuemin>
										<valuemax>96</valuemax>
										<value>-18</value>
									</parameter>
								</effect>
							</filter>
						<link>
							<linkclipref>clipitem-273</linkclipref>
							<mediatype>audio</mediatype>
							<trackindex>13</trackindex>
							<clipindex>5</clipindex>
							<groupindex>1</groupindex>
						</link>
						<link>
							<linkclipref>clipitem-288</linkclipref>
							<mediatype>audio</mediatype>
							<trackindex>14</trackindex>
							<clipindex>5</clipindex>
							<groupindex>1</groupindex>
						</link>
						<logginginfo>
							<description>NB! Avventer svar fra HP</description>
							<scene></scene>
							<shottake></shottake>
							<lognote>CD Track 1 archiveNo[318732013]</lognote>
						</logginginfo>
						<labels>
							<label2>Caribbean</label2>
						</labels>
					</clipitem>
					<transitionitem>
						<start>24777</start>
						<end>24807</end>
						<alignment>end-black</alignment>
						<cutPointTicks>304819200000</cutPointTicks>
						<rate>
							<timebase>25</timebase>
							<ntsc>FALSE</ntsc>
						</rate>
						<effect>
							<name>Cross Fade (+3dB)</name>
							<effectid>KGAudioTransCrossFade3dB</effectid>
							<effecttype>transition</effecttype>
							<mediatype>audio</mediatype>
							<wipecode>0</wipecode>
							<wipeaccuracy>100</wipeaccuracy>
							<startratio>0</startratio>
							<endratio>1</endratio>
							<reverse>FALSE</reverse>
						</effect>
					</transitionitem>
					<clipitem id="clipitem-289" premiereChannelType="stereo">
						<masterclipid>masterclip-52</masterclipid>
						<name>UTS_19_22_Pendulum_Unleashed_Hit_1_David_Denis_856912.wav</name>
						<enabled>TRUE</enabled>
						<duration>200</duration>
						<rate>
							<timebase>25</timebase>
							<ntsc>FALSE</ntsc>
						</rate>
						<start>28573</start>
						<end>28686</end>
						<in>0</in>
						<out>113</out>
						<pproTicksIn>0</pproTicksIn>
						<pproTicksOut>1148152320000</pproTicksOut>
						<file id="file-50"/>
						<sourcetrack>
							<mediatype>audio</mediatype>
							<trackindex>2</trackindex>
						</sourcetrack>
							<filter>
								<effect>
									<name>Gain</name>
									<effectid>{61756678, 4761696e, 4b657947}</effectid>
									<effecttype>filter</effecttype>
									<mediatype>audio</mediatype>
									<parameter authoringApp="PremierePro">
										<parameterid>Gain(dB)</parameterid>
										<name>Gain(dB)</name>
										<valuemin>-96</valuemin>
										<valuemax>96</valuemax>
										<value>-9</value>
									</parameter>
								</effect>
							</filter>
						<link>
							<linkclipref>clipitem-274</linkclipref>
							<mediatype>audio</mediatype>
							<trackindex>13</trackindex>
							<clipindex>7</clipindex>
							<groupindex>1</groupindex>
						</link>
						<link>
							<linkclipref>clipitem-289</linkclipref>
							<mediatype>audio</mediatype>
							<trackindex>14</trackindex>
							<clipindex>7</clipindex>
							<groupindex>1</groupindex>
						</link>
						<logginginfo>
							<description></description>
							<scene></scene>
							<shottake></shottake>
							<lognote></lognote>
						</logginginfo>
						<labels>
							<label2>Caribbean</label2>
						</labels>
					</clipitem>
					<clipitem id="clipitem-290" premiereChannelType="stereo">
						<masterclipid>masterclip-60</masterclipid>
						<name>BTV_162_21_Time_Trail_Bradley_Guyler_925609.wav</name>
						<enabled>TRUE</enabled>
						<duration>2900</duration>
						<rate>
							<timebase>25</timebase>
							<ntsc>FALSE</ntsc>
						</rate>
						<start>28896</start>
						<end>-1</end>
						<in>0</in>
						<out>36</out>
						<pproTicksIn>0</pproTicksIn>
						<pproTicksOut>365783040000</pproTicksOut>
						<file id="file-58"/>
						<sourcetrack>
							<mediatype>audio</mediatype>
							<trackindex>2</trackindex>
						</sourcetrack>
							<filter>
								<effect>
									<name>Audio Levels</name>
									<effectid>audiolevels</effectid>
									<effectcategory>audiolevels</effectcategory>
									<effecttype>audiolevels</effecttype>
									<mediatype>audio</mediatype>
									<parameter authoringApp="PremierePro">
										<parameterid>level</parameterid>
										<name>Level</name>
										<valuemin>0</valuemin>
										<valuemax>3.98109</valuemax>
										<value>0.156608</value>
									</parameter>
								</effect>
							</filter>
							<marker>
								<comment></comment>
								<name>Marker 2</name>
								<in>400</in>
								<out>-1</out>
							</marker>
							<marker>
								<comment></comment>
								<name>Marker 1</name>
								<in>0</in>
								<out>-1</out>
							</marker>
							<marker>
								<comment></comment>
								<name>Tempo: 120.0</name>
								<in>0</in>
								<out>-1</out>
							</marker>
						<link>
							<linkclipref>clipitem-275</linkclipref>
							<mediatype>audio</mediatype>
							<trackindex>13</trackindex>
							<clipindex>8</clipindex>
							<groupindex>1</groupindex>
						</link>
						<link>
							<linkclipref>clipitem-290</linkclipref>
							<mediatype>audio</mediatype>
							<trackindex>14</trackindex>
							<clipindex>8</clipindex>
							<groupindex>1</groupindex>
						</link>
						<logginginfo>
							<description></description>
							<scene></scene>
							<shottake></shottake>
							<lognote></lognote>
						</logginginfo>
						<labels>
							<label2>Caribbean</label2>
						</labels>
					</clipitem>
					<transitionitem>
						<start>28919</start>
						<end>28932</end>
						<alignment>center</alignment>
						<cutPointTicks>60963840000</cutPointTicks>
						<rate>
							<timebase>25</timebase>
							<ntsc>FALSE</ntsc>
						</rate>
						<effect>
							<name>Cross Fade (+3dB)</name>
							<effectid>KGAudioTransCrossFade3dB</effectid>
							<effecttype>transition</effecttype>
							<mediatype>audio</mediatype>
							<wipecode>0</wipecode>
							<wipeaccuracy>100</wipeaccuracy>
							<startratio>0</startratio>
							<endratio>1</endratio>
							<reverse>FALSE</reverse>
						</effect>
					</transitionitem>
					<clipitem id="clipitem-291" premiereChannelType="stereo">
						<masterclipid>masterclip-60</masterclipid>
						<name>BTV_162_21_Time_Trail_Bradley_Guyler_925609.wav</name>
						<enabled>TRUE</enabled>
						<duration>2900</duration>
						<rate>
							<timebase>25</timebase>
							<ntsc>FALSE</ntsc>
						</rate>
						<start>-1</start>
						<end>-1</end>
						<in>23</in>
						<out>451</out>
						<pproTicksIn>233694720000</pproTicksIn>
						<pproTicksOut>4582448640000</pproTicksOut>
						<file id="file-58"/>
						<sourcetrack>
							<mediatype>audio</mediatype>
							<trackindex>2</trackindex>
						</sourcetrack>
							<filter>
								<effect>
									<name>Gain</name>
									<effectid>{61756678, 4761696e, 4b657947}</effectid>
									<effecttype>filter</effecttype>
									<mediatype>audio</mediatype>
									<parameter authoringApp="PremierePro">
										<parameterid>Gain(dB)</parameterid>
										<name>Gain(dB)</name>
										<valuemin>-96</valuemin>
										<valuemax>96</valuemax>
										<value>-6</value>
									</parameter>
								</effect>
							</filter>
							<filter>
								<effect>
									<name>Audio Levels</name>
									<effectid>audiolevels</effectid>
									<effectcategory>audiolevels</effectcategory>
									<effecttype>audiolevels</effecttype>
									<mediatype>audio</mediatype>
									<parameter authoringApp="PremierePro">
										<parameterid>level</parameterid>
										<name>Level</name>
										<valuemin>0</valuemin>
										<valuemax>3.98109</valuemax>
										<value>0.156608</value>
									</parameter>
								</effect>
							</filter>
							<marker>
								<comment></comment>
								<name>Marker 2</name>
								<in>400</in>
								<out>-1</out>
							</marker>
							<marker>
								<comment></comment>
								<name>Marker 1</name>
								<in>0</in>
								<out>-1</out>
							</marker>
							<marker>
								<comment></comment>
								<name>Tempo: 120.0</name>
								<in>0</in>
								<out>-1</out>
							</marker>
						<link>
							<linkclipref>clipitem-276</linkclipref>
							<mediatype>audio</mediatype>
							<trackindex>13</trackindex>
							<clipindex>10</clipindex>
							<groupindex>1</groupindex>
						</link>
						<link>
							<linkclipref>clipitem-291</linkclipref>
							<mediatype>audio</mediatype>
							<trackindex>14</trackindex>
							<clipindex>10</clipindex>
							<groupindex>1</groupindex>
						</link>
						<logginginfo>
							<description></description>
							<scene></scene>
							<shottake></shottake>
							<lognote></lognote>
						</logginginfo>
						<labels>
							<label2>Caribbean</label2>
						</labels>
					</clipitem>
					<transitionitem>
						<start>28960</start>
						<end>29347</end>
						<alignment>end-black</alignment>
						<cutPointTicks>3932167680000</cutPointTicks>
						<rate>
							<timebase>25</timebase>
							<ntsc>FALSE</ntsc>
						</rate>
						<effect>
							<name>Cross Fade (+3dB)</name>
							<effectid>KGAudioTransCrossFade3dB</effectid>
							<effecttype>transition</effecttype>
							<mediatype>audio</mediatype>
							<wipecode>0</wipecode>
							<wipeaccuracy>100</wipeaccuracy>
							<startratio>0</startratio>
							<endratio>1</endratio>
							<reverse>FALSE</reverse>
						</effect>
					</transitionitem>
					<clipitem id="clipitem-292" premiereChannelType="stereo">
						<masterclipid>masterclip-61</masterclipid>
						<name>BTV_162_18_Light_Concern_Bradley_Guyler_925607.wav</name>
						<enabled>TRUE</enabled>
						<duration>3000</duration>
						<rate>
							<timebase>25</timebase>
							<ntsc>FALSE</ntsc>
						</rate>
						<start>29513</start>
						<end>-1</end>
						<in>0</in>
						<out>1481</out>
						<pproTicksIn>0</pproTicksIn>
						<pproTicksOut>15047907840000</pproTicksOut>
						<file id="file-59"/>
						<sourcetrack>
							<mediatype>audio</mediatype>
							<trackindex>2</trackindex>
						</sourcetrack>
							<filter>
								<effect>
									<name>Audio Levels</name>
									<effectid>audiolevels</effectid>
									<effectcategory>audiolevels</effectcategory>
									<effecttype>audiolevels</effecttype>
									<mediatype>audio</mediatype>
									<parameter authoringApp="PremierePro">
										<parameterid>level</parameterid>
										<name>Level</name>
										<valuemin>0</valuemin>
										<valuemax>3.98109</valuemax>
										<value>0.11598</value>
									</parameter>
								</effect>
							</filter>
							<marker>
								<comment></comment>
								<name>Tempo: 100.0</name>
								<in>0</in>
								<out>-1</out>
							</marker>
							<marker>
								<comment></comment>
								<name>Marker 1</name>
								<in>0</in>
								<out>-1</out>
							</marker>
							<marker>
								<comment></comment>
								<name></name>
								<in>2820</in>
								<out>-1</out>
							</marker>
						<link>
							<linkclipref>clipitem-277</linkclipref>
							<mediatype>audio</mediatype>
							<trackindex>13</trackindex>
							<clipindex>12</clipindex>
							<groupindex>1</groupindex>
						</link>
						<link>
							<linkclipref>clipitem-292</linkclipref>
							<mediatype>audio</mediatype>
							<trackindex>14</trackindex>
							<clipindex>12</clipindex>
							<groupindex>1</groupindex>
						</link>
						<logginginfo>
							<description></description>
							<scene></scene>
							<shottake></shottake>
							<lognote></lognote>
						</logginginfo>
						<labels>
							<label2>Caribbean</label2>
						</labels>
					</clipitem>
					<transitionitem>
						<start>30491</start>
						<end>30994</end>
						<alignment>end-black</alignment>
						<cutPointTicks>5110801920000</cutPointTicks>
						<rate>
							<timebase>25</timebase>
							<ntsc>FALSE</ntsc>
						</rate>
						<effect>
							<name>Cross Fade (+3dB)</name>
							<effectid>KGAudioTransCrossFade3dB</effectid>
							<effecttype>transition</effecttype>
							<mediatype>audio</mediatype>
							<wipecode>0</wipecode>
							<wipeaccuracy>100</wipeaccuracy>
							<startratio>0</startratio>
							<endratio>1</endratio>
							<reverse>FALSE</reverse>
						</effect>
					</transitionitem>
					<clipitem id="clipitem-293" premiereChannelType="stereo">
						<masterclipid>masterclip-60</masterclipid>
						<name>BTV_162_21_Time_Trail_Bradley_Guyler_925609.wav</name>
						<enabled>TRUE</enabled>
						<duration>2900</duration>
						<rate>
							<timebase>25</timebase>
							<ntsc>FALSE</ntsc>
						</rate>
						<start>31402</start>
						<end>-1</end>
						<in>1596</in>
						<out>1738</out>
						<pproTicksIn>16216381440000</pproTicksIn>
						<pproTicksOut>17659192320000</pproTicksOut>
						<file id="file-58"/>
						<sourcetrack>
							<mediatype>audio</mediatype>
							<trackindex>2</trackindex>
						</sourcetrack>
							<filter>
								<effect>
									<name>Gain</name>
									<effectid>{61756678, 4761696e, 4b657947}</effectid>
									<effecttype>filter</effecttype>
									<mediatype>audio</mediatype>
									<parameter authoringApp="PremierePro">
										<parameterid>Gain(dB)</parameterid>
										<name>Gain(dB)</name>
										<valuemin>-96</valuemin>
										<valuemax>96</valuemax>
										<value>-21</value>
									</parameter>
								</effect>
							</filter>
							<marker>
								<comment></comment>
								<name>Marker 2</name>
								<in>400</in>
								<out>-1</out>
							</marker>
							<marker>
								<comment></comment>
								<name>Marker 1</name>
								<in>0</in>
								<out>-1</out>
							</marker>
							<marker>
								<comment></comment>
								<name>Tempo: 120.0</name>
								<in>0</in>
								<out>-1</out>
							</marker>
						<link>
							<linkclipref>clipitem-278</linkclipref>
							<mediatype>audio</mediatype>
							<trackindex>13</trackindex>
							<clipindex>14</clipindex>
							<groupindex>1</groupindex>
						</link>
						<link>
							<linkclipref>clipitem-293</linkclipref>
							<mediatype>audio</mediatype>
							<trackindex>14</trackindex>
							<clipindex>14</clipindex>
							<groupindex>1</groupindex>
						</link>
						<logginginfo>
							<description></description>
							<scene></scene>
							<shottake></shottake>
							<lognote></lognote>
						</logginginfo>
						<labels>
							<label2>Caribbean</label2>
						</labels>
					</clipitem>
					<transitionitem>
						<start>31531</start>
						<end>31544</end>
						<alignment>center</alignment>
						<cutPointTicks>60963840000</cutPointTicks>
						<rate>
							<timebase>25</timebase>
							<ntsc>FALSE</ntsc>
						</rate>
						<effect>
							<name>Cross Fade (+3dB)</name>
							<effectid>KGAudioTransCrossFade3dB</effectid>
							<effecttype>transition</effecttype>
							<mediatype>audio</mediatype>
							<wipecode>0</wipecode>
							<wipeaccuracy>100</wipeaccuracy>
							<startratio>0</startratio>
							<endratio>1</endratio>
							<reverse>FALSE</reverse>
						</effect>
					</transitionitem>
					<clipitem id="clipitem-294" premiereChannelType="stereo">
						<masterclipid>masterclip-60</masterclipid>
						<name>BTV_162_21_Time_Trail_Bradley_Guyler_925609.wav</name>
						<enabled>TRUE</enabled>
						<duration>2900</duration>
						<rate>
							<timebase>25</timebase>
							<ntsc>FALSE</ntsc>
						</rate>
						<start>-1</start>
						<end>-1</end>
						<in>1725</in>
						<out>1991</out>
						<pproTicksIn>17527104000000</pproTicksIn>
						<pproTicksOut>20229834240000</pproTicksOut>
						<file id="file-58"/>
						<sourcetrack>
							<mediatype>audio</mediatype>
							<trackindex>2</trackindex>
						</sourcetrack>
							<filter>
								<effect>
									<name>Gain</name>
									<effectid>{61756678, 4761696e, 4b657947}</effectid>
									<effecttype>filter</effecttype>
									<mediatype>audio</mediatype>
									<parameter authoringApp="PremierePro">
										<parameterid>Gain(dB)</parameterid>
										<name>Gain(dB)</name>
										<valuemin>-96</valuemin>
										<valuemax>96</valuemax>
										<value>-27</value>
									</parameter>
								</effect>
							</filter>
							<marker>
								<comment></comment>
								<name>Marker 2</name>
								<in>400</in>
								<out>-1</out>
							</marker>
							<marker>
								<comment></comment>
								<name>Marker 1</name>
								<in>0</in>
								<out>-1</out>
							</marker>
							<marker>
								<comment></comment>
								<name>Tempo: 120.0</name>
								<in>0</in>
								<out>-1</out>
							</marker>
						<link>
							<linkclipref>clipitem-279</linkclipref>
							<mediatype>audio</mediatype>
							<trackindex>13</trackindex>
							<clipindex>16</clipindex>
							<groupindex>1</groupindex>
						</link>
						<link>
							<linkclipref>clipitem-294</linkclipref>
							<mediatype>audio</mediatype>
							<trackindex>14</trackindex>
							<clipindex>16</clipindex>
							<groupindex>1</groupindex>
						</link>
						<logginginfo>
							<description></description>
							<scene></scene>
							<shottake></shottake>
							<lognote></lognote>
						</logginginfo>
						<labels>
							<label2>Caribbean</label2>
						</labels>
					</clipitem>
					<transitionitem>
						<start>31722</start>
						<end>31797</end>
						<alignment>end-black</alignment>
						<cutPointTicks>762048000000</cutPointTicks>
						<rate>
							<timebase>25</timebase>
							<ntsc>FALSE</ntsc>
						</rate>
						<effect>
							<name>Cross Fade (+3dB)</name>
							<effectid>KGAudioTransCrossFade3dB</effectid>
							<effecttype>transition</effecttype>
							<mediatype>audio</mediatype>
							<wipecode>0</wipecode>
							<wipeaccuracy>100</wipeaccuracy>
							<startratio>0</startratio>
							<endratio>1</endratio>
							<reverse>FALSE</reverse>
						</effect>
					</transitionitem>
					<transitionitem>
						<start>32132</start>
						<end>32145</end>
						<alignment>start-black</alignment>
						<cutPointTicks>0</cutPointTicks>
						<rate>
							<timebase>25</timebase>
							<ntsc>FALSE</ntsc>
						</rate>
						<effect>
							<name>Cross Fade (+3dB)</name>
							<effectid>KGAudioTransCrossFade3dB</effectid>
							<effecttype>transition</effecttype>
							<mediatype>audio</mediatype>
							<wipecode>0</wipecode>
							<wipeaccuracy>100</wipeaccuracy>
							<startratio>0</startratio>
							<endratio>1</endratio>
							<reverse>FALSE</reverse>
						</effect>
					</transitionitem>
					<clipitem id="clipitem-295" premiereChannelType="stereo">
						<masterclipid>masterclip-62</masterclipid>
						<name>COHH_13_84_Another_New_York_Spitzer_847711.wav</name>
						<enabled>TRUE</enabled>
						<duration>4363</duration>
						<rate>
							<timebase>25</timebase>
							<ntsc>FALSE</ntsc>
						</rate>
						<start>-1</start>
						<end>-1</end>
						<in>537</in>
						<out>939</out>
						<pproTicksIn>5456263680000</pproTicksIn>
						<pproTicksOut>9540840960000</pproTicksOut>
						<file id="file-60"/>
						<sourcetrack>
							<mediatype>audio</mediatype>
							<trackindex>2</trackindex>
						</sourcetrack>
							<filter>
								<effect>
									<name>Gain</name>
									<effectid>{61756678, 4761696e, 4b657947}</effectid>
									<effecttype>filter</effecttype>
									<mediatype>audio</mediatype>
									<parameter authoringApp="PremierePro">
										<parameterid>Gain(dB)</parameterid>
										<name>Gain(dB)</name>
										<valuemin>-96</valuemin>
										<valuemax>96</valuemax>
										<value>-6</value>
									</parameter>
								</effect>
							</filter>
						<link>
							<linkclipref>clipitem-280</linkclipref>
							<mediatype>audio</mediatype>
							<trackindex>13</trackindex>
							<clipindex>19</clipindex>
							<groupindex>1</groupindex>
						</link>
						<link>
							<linkclipref>clipitem-295</linkclipref>
							<mediatype>audio</mediatype>
							<trackindex>14</trackindex>
							<clipindex>19</clipindex>
							<groupindex>1</groupindex>
						</link>
						<logginginfo>
							<description></description>
							<scene></scene>
							<shottake></shottake>
							<lognote></lognote>
						</logginginfo>
						<labels>
							<label2>Caribbean</label2>
						</labels>
					</clipitem>
					<transitionitem>
						<start>32521</start>
						<end>32534</end>
						<alignment>end-black</alignment>
						<cutPointTicks>132088320000</cutPointTicks>
						<rate>
							<timebase>25</timebase>
							<ntsc>FALSE</ntsc>
						</rate>
						<effect>
							<name>Cross Fade (+3dB)</name>
							<effectid>KGAudioTransCrossFade3dB</effectid>
							<effecttype>transition</effecttype>
							<mediatype>audio</mediatype>
							<wipecode>0</wipecode>
							<wipeaccuracy>100</wipeaccuracy>
							<startratio>0</startratio>
							<endratio>1</endratio>
							<reverse>FALSE</reverse>
						</effect>
					</transitionitem>
					<transitionitem>
						<start>32534</start>
						<end>32547</end>
						<alignment>start-black</alignment>
						<cutPointTicks>0</cutPointTicks>
						<rate>
							<timebase>25</timebase>
							<ntsc>FALSE</ntsc>
						</rate>
						<effect>
							<name>Cross Fade (+3dB)</name>
							<effectid>KGAudioTransCrossFade3dB</effectid>
							<effecttype>transition</effecttype>
							<mediatype>audio</mediatype>
							<wipecode>0</wipecode>
							<wipeaccuracy>100</wipeaccuracy>
							<startratio>0</startratio>
							<endratio>1</endratio>
							<reverse>FALSE</reverse>
						</effect>
					</transitionitem>
					<clipitem id="clipitem-296" premiereChannelType="stereo">
						<masterclipid>masterclip-62</masterclipid>
						<name>COHH_13_84_Another_New_York_Spitzer_847711.wav</name>
						<enabled>TRUE</enabled>
						<duration>4363</duration>
						<rate>
							<timebase>25</timebase>
							<ntsc>FALSE</ntsc>
						</rate>
						<start>-1</start>
						<end>-1</end>
						<in>934</in>
						<out>1011</out>
						<pproTicksIn>9490037760000</pproTicksIn>
						<pproTicksOut>10272407040000</pproTicksOut>
						<file id="file-60"/>
						<sourcetrack>
							<mediatype>audio</mediatype>
							<trackindex>2</trackindex>
						</sourcetrack>
						<link>
							<linkclipref>clipitem-281</linkclipref>
							<mediatype>audio</mediatype>
							<trackindex>13</trackindex>
							<clipindex>22</clipindex>
							<groupindex>1</groupindex>
						</link>
						<link>
							<linkclipref>clipitem-296</linkclipref>
							<mediatype>audio</mediatype>
							<trackindex>14</trackindex>
							<clipindex>22</clipindex>
							<groupindex>1</groupindex>
						</link>
						<logginginfo>
							<description></description>
							<scene></scene>
							<shottake></shottake>
							<lognote></lognote>
						</logginginfo>
						<labels>
							<label2>Caribbean</label2>
						</labels>
					</clipitem>
					<transitionitem>
						<start>32598</start>
						<end>32611</end>
						<alignment>center</alignment>
						<cutPointTicks>60963840000</cutPointTicks>
						<rate>
							<timebase>25</timebase>
							<ntsc>FALSE</ntsc>
						</rate>
						<effect>
							<name>Cross Fade (+3dB)</name>
							<effectid>KGAudioTransCrossFade3dB</effectid>
							<effecttype>transition</effecttype>
							<mediatype>audio</mediatype>
							<wipecode>0</wipecode>
							<wipeaccuracy>100</wipeaccuracy>
							<startratio>0</startratio>
							<endratio>1</endratio>
							<reverse>FALSE</reverse>
						</effect>
					</transitionitem>
					<clipitem id="clipitem-297" premiereChannelType="stereo">
						<masterclipid>masterclip-62</masterclipid>
						<name>COHH_13_84_Another_New_York_Spitzer_847711.wav</name>
						<enabled>TRUE</enabled>
						<duration>4363</duration>
						<rate>
							<timebase>25</timebase>
							<ntsc>FALSE</ntsc>
						</rate>
						<start>-1</start>
						<end>-1</end>
						<in>998</in>
						<out>1095</out>
						<pproTicksIn>10140318720000</pproTicksIn>
						<pproTicksOut>11125900800000</pproTicksOut>
						<file id="file-60"/>
						<sourcetrack>
							<mediatype>audio</mediatype>
							<trackindex>2</trackindex>
						</sourcetrack>
							<filter>
								<effect>
									<name>Gain</name>
									<effectid>{61756678, 4761696e, 4b657947}</effectid>
									<effecttype>filter</effecttype>
									<mediatype>audio</mediatype>
									<parameter authoringApp="PremierePro">
										<parameterid>Gain(dB)</parameterid>
										<name>Gain(dB)</name>
										<valuemin>-96</valuemin>
										<valuemax>96</valuemax>
										<value>3</value>
									</parameter>
								</effect>
							</filter>
						<link>
							<linkclipref>clipitem-282</linkclipref>
							<mediatype>audio</mediatype>
							<trackindex>13</trackindex>
							<clipindex>24</clipindex>
							<groupindex>1</groupindex>
						</link>
						<link>
							<linkclipref>clipitem-297</linkclipref>
							<mediatype>audio</mediatype>
							<trackindex>14</trackindex>
							<clipindex>24</clipindex>
							<groupindex>1</groupindex>
						</link>
						<logginginfo>
							<description></description>
							<scene></scene>
							<shottake></shottake>
							<lognote></lognote>
						</logginginfo>
						<labels>
							<label2>Caribbean</label2>
						</labels>
					</clipitem>
					<transitionitem>
						<start>32682</start>
						<end>32695</end>
						<alignment>center</alignment>
						<cutPointTicks>60963840000</cutPointTicks>
						<rate>
							<timebase>25</timebase>
							<ntsc>FALSE</ntsc>
						</rate>
						<effect>
							<name>Cross Fade (+3dB)</name>
							<effectid>KGAudioTransCrossFade3dB</effectid>
							<effecttype>transition</effecttype>
							<mediatype>audio</mediatype>
							<wipecode>0</wipecode>
							<wipeaccuracy>100</wipeaccuracy>
							<startratio>0</startratio>
							<endratio>1</endratio>
							<reverse>FALSE</reverse>
						</effect>
					</transitionitem>
					<clipitem id="clipitem-298" premiereChannelType="stereo">
						<masterclipid>masterclip-62</masterclipid>
						<name>COHH_13_84_Another_New_York_Spitzer_847711.wav</name>
						<enabled>TRUE</enabled>
						<duration>4363</duration>
						<rate>
							<timebase>25</timebase>
							<ntsc>FALSE</ntsc>
						</rate>
						<start>-1</start>
						<end>-1</end>
						<in>1082</in>
						<out>1220</out>
						<pproTicksIn>10993812480000</pproTicksIn>
						<pproTicksOut>12395980800000</pproTicksOut>
						<file id="file-60"/>
						<sourcetrack>
							<mediatype>audio</mediatype>
							<trackindex>2</trackindex>
						</sourcetrack>
							<filter>
								<effect>
									<name>Gain</name>
									<effectid>{61756678, 4761696e, 4b657947}</effectid>
									<effecttype>filter</effecttype>
									<mediatype>audio</mediatype>
									<parameter authoringApp="PremierePro">
										<parameterid>Gain(dB)</parameterid>
										<name>Gain(dB)</name>
										<valuemin>-96</valuemin>
										<valuemax>96</valuemax>
										<value>-9</value>
									</parameter>
								</effect>
							</filter>
						<link>
							<linkclipref>clipitem-283</linkclipref>
							<mediatype>audio</mediatype>
							<trackindex>13</trackindex>
							<clipindex>26</clipindex>
							<groupindex>1</groupindex>
						</link>
						<link>
							<linkclipref>clipitem-298</linkclipref>
							<mediatype>audio</mediatype>
							<trackindex>14</trackindex>
							<clipindex>26</clipindex>
							<groupindex>1</groupindex>
						</link>
						<logginginfo>
							<description></description>
							<scene></scene>
							<shottake></shottake>
							<lognote></lognote>
						</logginginfo>
						<labels>
							<label2>Caribbean</label2>
						</labels>
					</clipitem>
					<transitionitem>
						<start>32807</start>
						<end>32820</end>
						<alignment>end-black</alignment>
						<cutPointTicks>132088320000</cutPointTicks>
						<rate>
							<timebase>25</timebase>
							<ntsc>FALSE</ntsc>
						</rate>
						<effect>
							<name>Cross Fade (+3dB)</name>
							<effectid>KGAudioTransCrossFade3dB</effectid>
							<effecttype>transition</effecttype>
							<mediatype>audio</mediatype>
							<wipecode>0</wipecode>
							<wipeaccuracy>100</wipeaccuracy>
							<startratio>0</startratio>
							<endratio>1</endratio>
							<reverse>FALSE</reverse>
						</effect>
					</transitionitem>
					<transitionitem>
						<start>35146</start>
						<end>35190</end>
						<alignment>start-black</alignment>
						<cutPointTicks>0</cutPointTicks>
						<rate>
							<timebase>25</timebase>
							<ntsc>FALSE</ntsc>
						</rate>
						<effect>
							<name>Cross Fade (+3dB)</name>
							<effectid>KGAudioTransCrossFade3dB</effectid>
							<effecttype>transition</effecttype>
							<mediatype>audio</mediatype>
							<wipecode>0</wipecode>
							<wipeaccuracy>100</wipeaccuracy>
							<startratio>0</startratio>
							<endratio>1</endratio>
							<reverse>FALSE</reverse>
						</effect>
					</transitionitem>
					<clipitem id="clipitem-299" premiereChannelType="stereo">
						<masterclipid>masterclip-63</masterclipid>
						<name>264777__shinplaster__swoosh.wav</name>
						<enabled>TRUE</enabled>
						<duration>132</duration>
						<rate>
							<timebase>25</timebase>
							<ntsc>FALSE</ntsc>
						</rate>
						<start>-1</start>
						<end>35245</end>
						<in>30</in>
						<out>129</out>
						<pproTicksIn>304819200000</pproTicksIn>
						<pproTicksOut>1310722560000</pproTicksOut>
						<file id="file-61"/>
						<sourcetrack>
							<mediatype>audio</mediatype>
							<trackindex>2</trackindex>
						</sourcetrack>
						<link>
							<linkclipref>clipitem-285</linkclipref>
							<mediatype>audio</mediatype>
							<trackindex>13</trackindex>
							<clipindex>32</clipindex>
							<groupindex>1</groupindex>
						</link>
						<link>
							<linkclipref>clipitem-299</linkclipref>
							<mediatype>audio</mediatype>
							<trackindex>14</trackindex>
							<clipindex>29</clipindex>
							<groupindex>1</groupindex>
						</link>
						<logginginfo>
							<description></description>
							<scene></scene>
							<shottake></shottake>
							<lognote></lognote>
						</logginginfo>
						<labels>
							<label2>Caribbean</label2>
						</labels>
					</clipitem>
					<enabled>TRUE</enabled>
					<locked>FALSE</locked>
					<outputchannelindex>2</outputchannelindex>
				</track>
				<track TL.SQTrackAudioKeyframeStyle="0" TL.SQTrackShy="0" TL.SQTrackExpandedHeight="65" TL.SQTrackExpanded="1" MZ.TrackTargeted="0" PannerCurrentValue="0.5" PannerIsInverted="true" PannerStartKeyframe="-91445760000000000,0.5,0,0,0,0,0,0" PannerName="Balance" currentExplodedTrackIndex="0" totalExplodedTrackCount="2" premiereTrackType="Stereo">
					<clipitem id="clipitem-300" premiereChannelType="mono">
						<masterclipid>masterclip-22</masterclipid>
						<name>Video 12.05.2016-2_1.mov</name>
						<enabled>TRUE</enabled>
						<duration>4630</duration>
						<rate>
							<timebase>25</timebase>
							<ntsc>FALSE</ntsc>
						</rate>
						<start>5244</start>
						<end>5287</end>
						<in>34</in>
						<out>77</out>
						<pproTicksIn>345461760000</pproTicksIn>
						<pproTicksOut>782369280000</pproTicksOut>
						<file id="file-21"/>
						<sourcetrack>
							<mediatype>audio</mediatype>
							<trackindex>1</trackindex>
						</sourcetrack>
							<filter>
								<effect>
									<name>Gain</name>
									<effectid>{61756678, 4761696e, 4b657947}</effectid>
									<effecttype>filter</effecttype>
									<mediatype>audio</mediatype>
									<parameter authoringApp="PremierePro">
										<parameterid>Gain(dB)</parameterid>
										<name>Gain(dB)</name>
										<valuemin>-96</valuemin>
										<valuemax>96</valuemax>
										<value>-8</value>
									</parameter>
								</effect>
							</filter>
						<link>
							<linkclipref>clipitem-70</linkclipref>
							<mediatype>audio</mediatype>
							<trackindex>5</trackindex>
							<clipindex>2</clipindex>
							<groupindex>1</groupindex>
						</link>
						<link>
							<linkclipref>clipitem-300</linkclipref>
							<mediatype>audio</mediatype>
							<trackindex>15</trackindex>
							<clipindex>1</clipindex>
							<groupindex>1</groupindex>
						</link>
						<logginginfo>
							<description>01. Våkner i senga, gml dansk, står opp</description>
							<scene></scene>
							<shottake></shottake>
							<lognote></lognote>
						</logginginfo>
						<labels>
							<label2>Iris</label2>
						</labels>
					</clipitem>
					<clipitem id="clipitem-301" premiereChannelType="stereo">
						<masterclipid>masterclip-64</masterclipid>
						<name>NONRO318732CS0002 If I Ain't Got you  (Instrumental).wav</name>
						<enabled>TRUE</enabled>
						<duration>5858</duration>
						<rate>
							<timebase>25</timebase>
							<ntsc>FALSE</ntsc>
						</rate>
						<start>24794</start>
						<end>-1</end>
						<in>1204</in>
						<out>1397</out>
						<pproTicksIn>12233410560000</pproTicksIn>
						<pproTicksOut>14194414080000</pproTicksOut>
						<file id="file-62">
							<name>NONRO318732CS0002 If I Ain't Got you  (Instrumental).wav</name>
							<pathurl>file://localhost/Volumes/Bingen/Prosjekter/MYNT194016%20WHATS%20COOKING/Musikk/Marita/Lykke/dma%20Tue%20Jun%2021%2010%3a54%3a55%202016/NONRO318732CS0002%20If%20I%20Ain't%20Got%20you%20%20(Instrumental).wav</pathurl>
							<rate>
								<timebase>30</timebase>
								<ntsc>TRUE</ntsc>
							</rate>
							<duration>7022</duration>
							<timecode>
								<rate>
									<timebase>30</timebase>
									<ntsc>TRUE</ntsc>
								</rate>
								<string>00;00;00;00</string>
								<frame>0</frame>
								<displayformat>DF</displayformat>
								<reel>
									<name></name>
								</reel>
							</timecode>
							<media>
								<audio>
									<samplecharacteristics>
										<depth>16</depth>
										<samplerate>48000</samplerate>
									</samplecharacteristics>
									<channelcount>2</channelcount>
								</audio>
							</media>
						</file>
						<sourcetrack>
							<mediatype>audio</mediatype>
							<trackindex>1</trackindex>
						</sourcetrack>
							<filter>
								<effect>
									<name>Gain</name>
									<effectid>{61756678, 4761696e, 4b657947}</effectid>
									<effecttype>filter</effecttype>
									<mediatype>audio</mediatype>
									<parameter authoringApp="PremierePro">
										<parameterid>Gain(dB)</parameterid>
										<name>Gain(dB)</name>
										<valuemin>-96</valuemin>
										<valuemax>96</valuemax>
										<value>-27</value>
									</parameter>
								</effect>
							</filter>
						<link>
							<linkclipref>clipitem-301</linkclipref>
							<mediatype>audio</mediatype>
							<trackindex>15</trackindex>
							<clipindex>2</clipindex>
							<groupindex>1</groupindex>
						</link>
						<link>
							<linkclipref>clipitem-330</linkclipref>
							<mediatype>audio</mediatype>
							<trackindex>16</trackindex>
							<clipindex>1</clipindex>
							<groupindex>1</groupindex>
						</link>
						<logginginfo>
							<description>NB! Avventer svar fra HP</description>
							<scene></scene>
							<shottake></shottake>
							<lognote>CD Track 2 archiveNo[318732013]</lognote>
						</logginginfo>
						<labels>
							<label2>Caribbean</label2>
						</labels>
					</clipitem>
					<transitionitem>
						<start>24890</start>
						<end>24987</end>
						<alignment>end-black</alignment>
						<cutPointTicks>985582080000</cutPointTicks>
						<rate>
							<timebase>25</timebase>
							<ntsc>FALSE</ntsc>
						</rate>
						<effect>
							<name>Cross Fade (+3dB)</name>
							<effectid>KGAudioTransCrossFade3dB</effectid>
							<effecttype>transition</effecttype>
							<mediatype>audio</mediatype>
							<wipecode>0</wipecode>
							<wipeaccuracy>100</wipeaccuracy>
							<startratio>0</startratio>
							<endratio>1</endratio>
							<reverse>FALSE</reverse>
						</effect>
					</transitionitem>
					<clipitem id="clipitem-302" premiereChannelType="stereo">
						<masterclipid>masterclip-52</masterclipid>
						<name>UTS_19_22_Pendulum_Unleashed_Hit_1_David_Denis_856912.wav</name>
						<enabled>TRUE</enabled>
						<duration>200</duration>
						<rate>
							<timebase>25</timebase>
							<ntsc>FALSE</ntsc>
						</rate>
						<start>28589</start>
						<end>28743</end>
						<in>0</in>
						<out>154</out>
						<pproTicksIn>0</pproTicksIn>
						<pproTicksOut>1564738560000</pproTicksOut>
						<file id="file-50"/>
						<sourcetrack>
							<mediatype>audio</mediatype>
							<trackindex>1</trackindex>
						</sourcetrack>
							<filter>
								<effect>
									<name>Gain</name>
									<effectid>{61756678, 4761696e, 4b657947}</effectid>
									<effecttype>filter</effecttype>
									<mediatype>audio</mediatype>
									<parameter authoringApp="PremierePro">
										<parameterid>Gain(dB)</parameterid>
										<name>Gain(dB)</name>
										<valuemin>-96</valuemin>
										<valuemax>96</valuemax>
										<value>-9</value>
									</parameter>
								</effect>
							</filter>
						<link>
							<linkclipref>clipitem-302</linkclipref>
							<mediatype>audio</mediatype>
							<trackindex>15</trackindex>
							<clipindex>4</clipindex>
							<groupindex>1</groupindex>
						</link>
						<link>
							<linkclipref>clipitem-331</linkclipref>
							<mediatype>audio</mediatype>
							<trackindex>16</trackindex>
							<clipindex>3</clipindex>
							<groupindex>1</groupindex>
						</link>
						<logginginfo>
							<description></description>
							<scene></scene>
							<shottake></shottake>
							<lognote></lognote>
						</logginginfo>
						<labels>
							<label2>Caribbean</label2>
						</labels>
					</clipitem>
					<clipitem id="clipitem-303" premiereChannelType="mono">
						<masterclipid>masterclip-65</masterclipid>
						<name>243038__testing-player__button.wav</name>
						<enabled>TRUE</enabled>
						<duration>11</duration>
						<rate>
							<timebase>25</timebase>
							<ntsc>FALSE</ntsc>
						</rate>
						<start>29555</start>
						<end>29565</end>
						<in>1</in>
						<out>11</out>
						<pproTicksIn>10160640000</pproTicksIn>
						<pproTicksOut>111767040000</pproTicksOut>
						<file id="file-63">
							<name>243038__testing-player__button.wav</name>
							<pathurl>file://localhost/Volumes/Bingen/Prosjekter/MYNT194016%20WHATS%20COOKING/Lydeffekter/Marita%20SoundFX/243038__testing-player__button.wav</pathurl>
							<rate>
								<timebase>30</timebase>
								<ntsc>TRUE</ntsc>
							</rate>
							<duration>14</duration>
							<timecode>
								<rate>
									<timebase>30</timebase>
									<ntsc>TRUE</ntsc>
								</rate>
								<string>00;00;00;00</string>
								<frame>0</frame>
								<displayformat>DF</displayformat>
								<reel>
									<name></name>
								</reel>
							</timecode>
							<media>
								<audio>
									<samplecharacteristics>
										<depth>16</depth>
										<samplerate>48000</samplerate>
									</samplecharacteristics>
									<channelcount>1</channelcount>
									<audiochannel>
										<sourcechannel>1</sourcechannel>
									</audiochannel>
								</audio>
							</media>
						</file>
						<sourcetrack>
							<mediatype>audio</mediatype>
							<trackindex>1</trackindex>
						</sourcetrack>
							<filter>
								<effect>
									<name>Gain</name>
									<effectid>{61756678, 4761696e, 4b657947}</effectid>
									<effecttype>filter</effecttype>
									<mediatype>audio</mediatype>
									<parameter authoringApp="PremierePro">
										<parameterid>Gain(dB)</parameterid>
										<name>Gain(dB)</name>
										<valuemin>-96</valuemin>
										<valuemax>96</valuemax>
										<value>-3</value>
									</parameter>
								</effect>
							</filter>
						<logginginfo>
							<description></description>
							<scene></scene>
							<shottake></shottake>
							<lognote></lognote>
						</logginginfo>
						<labels>
							<label2>Caribbean</label2>
						</labels>
					</clipitem>
					<clipitem id="clipitem-304" premiereChannelType="mono">
						<masterclipid>masterclip-65</masterclipid>
						<name>243038__testing-player__button.wav</name>
						<enabled>TRUE</enabled>
						<duration>11</duration>
						<rate>
							<timebase>25</timebase>
							<ntsc>FALSE</ntsc>
						</rate>
						<start>29725</start>
						<end>29735</end>
						<in>1</in>
						<out>11</out>
						<pproTicksIn>10160640000</pproTicksIn>
						<pproTicksOut>111767040000</pproTicksOut>
						<file id="file-63"/>
						<sourcetrack>
							<mediatype>audio</mediatype>
							<trackindex>1</trackindex>
						</sourcetrack>
							<filter>
								<effect>
									<name>Gain</name>
									<effectid>{61756678, 4761696e, 4b657947}</effectid>
									<effecttype>filter</effecttype>
									<mediatype>audio</mediatype>
									<parameter authoringApp="PremierePro">
										<parameterid>Gain(dB)</parameterid>
										<name>Gain(dB)</name>
										<valuemin>-96</valuemin>
										<valuemax>96</valuemax>
										<value>-3</value>
									</parameter>
								</effect>
							</filter>
						<logginginfo>
							<description></description>
							<scene></scene>
							<shottake></shottake>
							<lognote></lognote>
						</logginginfo>
						<labels>
							<label2>Caribbean</label2>
						</labels>
					</clipitem>
					<clipitem id="clipitem-305" premiereChannelType="mono">
						<masterclipid>masterclip-65</masterclipid>
						<name>243038__testing-player__button.wav</name>
						<enabled>TRUE</enabled>
						<duration>11</duration>
						<rate>
							<timebase>25</timebase>
							<ntsc>FALSE</ntsc>
						</rate>
						<start>29803</start>
						<end>29813</end>
						<in>1</in>
						<out>11</out>
						<pproTicksIn>10160640000</pproTicksIn>
						<pproTicksOut>111767040000</pproTicksOut>
						<file id="file-63"/>
						<sourcetrack>
							<mediatype>audio</mediatype>
							<trackindex>1</trackindex>
						</sourcetrack>
							<filter>
								<effect>
									<name>Gain</name>
									<effectid>{61756678, 4761696e, 4b657947}</effectid>
									<effecttype>filter</effecttype>
									<mediatype>audio</mediatype>
									<parameter authoringApp="PremierePro">
										<parameterid>Gain(dB)</parameterid>
										<name>Gain(dB)</name>
										<valuemin>-96</valuemin>
										<valuemax>96</valuemax>
										<value>-3</value>
									</parameter>
								</effect>
							</filter>
						<logginginfo>
							<description></description>
							<scene></scene>
							<shottake></shottake>
							<lognote></lognote>
						</logginginfo>
						<labels>
							<label2>Caribbean</label2>
						</labels>
					</clipitem>
					<clipitem id="clipitem-306" premiereChannelType="mono">
						<masterclipid>masterclip-65</masterclipid>
						<name>243038__testing-player__button.wav</name>
						<enabled>TRUE</enabled>
						<duration>11</duration>
						<rate>
							<timebase>25</timebase>
							<ntsc>FALSE</ntsc>
						</rate>
						<start>29847</start>
						<end>29857</end>
						<in>1</in>
						<out>11</out>
						<pproTicksIn>10160640000</pproTicksIn>
						<pproTicksOut>111767040000</pproTicksOut>
						<file id="file-63"/>
						<sourcetrack>
							<mediatype>audio</mediatype>
							<trackindex>1</trackindex>
						</sourcetrack>
							<filter>
								<effect>
									<name>Gain</name>
									<effectid>{61756678, 4761696e, 4b657947}</effectid>
									<effecttype>filter</effecttype>
									<mediatype>audio</mediatype>
									<parameter authoringApp="PremierePro">
										<parameterid>Gain(dB)</parameterid>
										<name>Gain(dB)</name>
										<valuemin>-96</valuemin>
										<valuemax>96</valuemax>
										<value>-6</value>
									</parameter>
								</effect>
							</filter>
						<logginginfo>
							<description></description>
							<scene></scene>
							<shottake></shottake>
							<lognote></lognote>
						</logginginfo>
						<labels>
							<label2>Caribbean</label2>
						</labels>
					</clipitem>
					<clipitem id="clipitem-307" premiereChannelType="mono">
						<masterclipid>masterclip-65</masterclipid>
						<name>243038__testing-player__button.wav</name>
						<enabled>TRUE</enabled>
						<duration>11</duration>
						<rate>
							<timebase>25</timebase>
							<ntsc>FALSE</ntsc>
						</rate>
						<start>29929</start>
						<end>29939</end>
						<in>1</in>
						<out>11</out>
						<pproTicksIn>10160640000</pproTicksIn>
						<pproTicksOut>111767040000</pproTicksOut>
						<file id="file-63"/>
						<sourcetrack>
							<mediatype>audio</mediatype>
							<trackindex>1</trackindex>
						</sourcetrack>
							<filter>
								<effect>
									<name>Gain</name>
									<effectid>{61756678, 4761696e, 4b657947}</effectid>
									<effecttype>filter</effecttype>
									<mediatype>audio</mediatype>
									<parameter authoringApp="PremierePro">
										<parameterid>Gain(dB)</parameterid>
										<name>Gain(dB)</name>
										<valuemin>-96</valuemin>
										<valuemax>96</valuemax>
										<value>-3</value>
									</parameter>
								</effect>
							</filter>
						<logginginfo>
							<description></description>
							<scene></scene>
							<shottake></shottake>
							<lognote></lognote>
						</logginginfo>
						<labels>
							<label2>Caribbean</label2>
						</labels>
					</clipitem>
					<clipitem id="clipitem-308" premiereChannelType="mono">
						<masterclipid>masterclip-65</masterclipid>
						<name>243038__testing-player__button.wav</name>
						<enabled>TRUE</enabled>
						<duration>11</duration>
						<rate>
							<timebase>25</timebase>
							<ntsc>FALSE</ntsc>
						</rate>
						<start>30013</start>
						<end>30023</end>
						<in>1</in>
						<out>11</out>
						<pproTicksIn>10160640000</pproTicksIn>
						<pproTicksOut>111767040000</pproTicksOut>
						<file id="file-63"/>
						<sourcetrack>
							<mediatype>audio</mediatype>
							<trackindex>1</trackindex>
						</sourcetrack>
							<filter>
								<effect>
									<name>Gain</name>
									<effectid>{61756678, 4761696e, 4b657947}</effectid>
									<effecttype>filter</effecttype>
									<mediatype>audio</mediatype>
									<parameter authoringApp="PremierePro">
										<parameterid>Gain(dB)</parameterid>
										<name>Gain(dB)</name>
										<valuemin>-96</valuemin>
										<valuemax>96</valuemax>
										<value>-3</value>
									</parameter>
								</effect>
							</filter>
						<logginginfo>
							<description></description>
							<scene></scene>
							<shottake></shottake>
							<lognote></lognote>
						</logginginfo>
						<labels>
							<label2>Caribbean</label2>
						</labels>
					</clipitem>
					<clipitem id="clipitem-309" premiereChannelType="mono">
						<masterclipid>masterclip-65</masterclipid>
						<name>243038__testing-player__button.wav</name>
						<enabled>TRUE</enabled>
						<duration>11</duration>
						<rate>
							<timebase>25</timebase>
							<ntsc>FALSE</ntsc>
						</rate>
						<start>30074</start>
						<end>30084</end>
						<in>1</in>
						<out>11</out>
						<pproTicksIn>10160640000</pproTicksIn>
						<pproTicksOut>111767040000</pproTicksOut>
						<file id="file-63"/>
						<sourcetrack>
							<mediatype>audio</mediatype>
							<trackindex>1</trackindex>
						</sourcetrack>
							<filter>
								<effect>
									<name>Gain</name>
									<effectid>{61756678, 4761696e, 4b657947}</effectid>
									<effecttype>filter</effecttype>
									<mediatype>audio</mediatype>
									<parameter authoringApp="PremierePro">
										<parameterid>Gain(dB)</parameterid>
										<name>Gain(dB)</name>
										<valuemin>-96</valuemin>
										<valuemax>96</valuemax>
										<value>-3</value>
									</parameter>
								</effect>
							</filter>
						<logginginfo>
							<description></description>
							<scene></scene>
							<shottake></shottake>
							<lognote></lognote>
						</logginginfo>
						<labels>
							<label2>Caribbean</label2>
						</labels>
					</clipitem>
					<clipitem id="clipitem-310" premiereChannelType="mono">
						<masterclipid>masterclip-65</masterclipid>
						<name>243038__testing-player__button.wav</name>
						<enabled>TRUE</enabled>
						<duration>11</duration>
						<rate>
							<timebase>25</timebase>
							<ntsc>FALSE</ntsc>
						</rate>
						<start>30356</start>
						<end>30366</end>
						<in>1</in>
						<out>11</out>
						<pproTicksIn>10160640000</pproTicksIn>
						<pproTicksOut>111767040000</pproTicksOut>
						<file id="file-63"/>
						<sourcetrack>
							<mediatype>audio</mediatype>
							<trackindex>1</trackindex>
						</sourcetrack>
							<filter>
								<effect>
									<name>Gain</name>
									<effectid>{61756678, 4761696e, 4b657947}</effectid>
									<effecttype>filter</effecttype>
									<mediatype>audio</mediatype>
									<parameter authoringApp="PremierePro">
										<parameterid>Gain(dB)</parameterid>
										<name>Gain(dB)</name>
										<valuemin>-96</valuemin>
										<valuemax>96</valuemax>
										<value>-3</value>
									</parameter>
								</effect>
							</filter>
						<logginginfo>
							<description></description>
							<scene></scene>
							<shottake></shottake>
							<lognote></lognote>
						</logginginfo>
						<labels>
							<label2>Caribbean</label2>
						</labels>
					</clipitem>
					<clipitem id="clipitem-311" premiereChannelType="mono">
						<masterclipid>masterclip-65</masterclipid>
						<name>243038__testing-player__button.wav</name>
						<enabled>TRUE</enabled>
						<duration>11</duration>
						<rate>
							<timebase>25</timebase>
							<ntsc>FALSE</ntsc>
						</rate>
						<start>30417</start>
						<end>30427</end>
						<in>1</in>
						<out>11</out>
						<pproTicksIn>10160640000</pproTicksIn>
						<pproTicksOut>111767040000</pproTicksOut>
						<file id="file-63"/>
						<sourcetrack>
							<mediatype>audio</mediatype>
							<trackindex>1</trackindex>
						</sourcetrack>
							<filter>
								<effect>
									<name>Gain</name>
									<effectid>{61756678, 4761696e, 4b657947}</effectid>
									<effecttype>filter</effecttype>
									<mediatype>audio</mediatype>
									<parameter authoringApp="PremierePro">
										<parameterid>Gain(dB)</parameterid>
										<name>Gain(dB)</name>
										<valuemin>-96</valuemin>
										<valuemax>96</valuemax>
										<value>-3</value>
									</parameter>
								</effect>
							</filter>
						<logginginfo>
							<description></description>
							<scene></scene>
							<shottake></shottake>
							<lognote></lognote>
						</logginginfo>
						<labels>
							<label2>Caribbean</label2>
						</labels>
					</clipitem>
					<clipitem id="clipitem-312" premiereChannelType="mono">
						<masterclipid>masterclip-65</masterclipid>
						<name>243038__testing-player__button.wav</name>
						<enabled>TRUE</enabled>
						<duration>11</duration>
						<rate>
							<timebase>25</timebase>
							<ntsc>FALSE</ntsc>
						</rate>
						<start>30497</start>
						<end>30507</end>
						<in>1</in>
						<out>11</out>
						<pproTicksIn>10160640000</pproTicksIn>
						<pproTicksOut>111767040000</pproTicksOut>
						<file id="file-63"/>
						<sourcetrack>
							<mediatype>audio</mediatype>
							<trackindex>1</trackindex>
						</sourcetrack>
							<filter>
								<effect>
									<name>Gain</name>
									<effectid>{61756678, 4761696e, 4b657947}</effectid>
									<effecttype>filter</effecttype>
									<mediatype>audio</mediatype>
									<parameter authoringApp="PremierePro">
										<parameterid>Gain(dB)</parameterid>
										<name>Gain(dB)</name>
										<valuemin>-96</valuemin>
										<valuemax>96</valuemax>
										<value>-3</value>
									</parameter>
								</effect>
							</filter>
						<logginginfo>
							<description></description>
							<scene></scene>
							<shottake></shottake>
							<lognote></lognote>
						</logginginfo>
						<labels>
							<label2>Caribbean</label2>
						</labels>
					</clipitem>
					<clipitem id="clipitem-313" premiereChannelType="mono">
						<masterclipid>masterclip-65</masterclipid>
						<name>243038__testing-player__button.wav</name>
						<enabled>TRUE</enabled>
						<duration>11</duration>
						<rate>
							<timebase>25</timebase>
							<ntsc>FALSE</ntsc>
						</rate>
						<start>30609</start>
						<end>30619</end>
						<in>1</in>
						<out>11</out>
						<pproTicksIn>10160640000</pproTicksIn>
						<pproTicksOut>111767040000</pproTicksOut>
						<file id="file-63"/>
						<sourcetrack>
							<mediatype>audio</mediatype>
							<trackindex>1</trackindex>
						</sourcetrack>
							<filter>
								<effect>
									<name>Gain</name>
									<effectid>{61756678, 4761696e, 4b657947}</effectid>
									<effecttype>filter</effecttype>
									<mediatype>audio</mediatype>
									<parameter authoringApp="PremierePro">
										<parameterid>Gain(dB)</parameterid>
										<name>Gain(dB)</name>
										<valuemin>-96</valuemin>
										<valuemax>96</valuemax>
										<value>-3</value>
									</parameter>
								</effect>
							</filter>
						<logginginfo>
							<description></description>
							<scene></scene>
							<shottake></shottake>
							<lognote></lognote>
						</logginginfo>
						<labels>
							<label2>Caribbean</label2>
						</labels>
					</clipitem>
					<clipitem id="clipitem-314" premiereChannelType="mono">
						<masterclipid>masterclip-65</masterclipid>
						<name>243038__testing-player__button.wav</name>
						<enabled>TRUE</enabled>
						<duration>11</duration>
						<rate>
							<timebase>25</timebase>
							<ntsc>FALSE</ntsc>
						</rate>
						<start>30673</start>
						<end>30683</end>
						<in>1</in>
						<out>11</out>
						<pproTicksIn>10160640000</pproTicksIn>
						<pproTicksOut>111767040000</pproTicksOut>
						<file id="file-63"/>
						<sourcetrack>
							<mediatype>audio</mediatype>
							<trackindex>1</trackindex>
						</sourcetrack>
							<filter>
								<effect>
									<name>Gain</name>
									<effectid>{61756678, 4761696e, 4b657947}</effectid>
									<effecttype>filter</effecttype>
									<mediatype>audio</mediatype>
									<parameter authoringApp="PremierePro">
										<parameterid>Gain(dB)</parameterid>
										<name>Gain(dB)</name>
										<valuemin>-96</valuemin>
										<valuemax>96</valuemax>
										<value>-3</value>
									</parameter>
								</effect>
							</filter>
						<logginginfo>
							<description></description>
							<scene></scene>
							<shottake></shottake>
							<lognote></lognote>
						</logginginfo>
						<labels>
							<label2>Caribbean</label2>
						</labels>
					</clipitem>
					<clipitem id="clipitem-315" premiereChannelType="mono">
						<masterclipid>masterclip-65</masterclipid>
						<name>243038__testing-player__button.wav</name>
						<enabled>TRUE</enabled>
						<duration>11</duration>
						<rate>
							<timebase>25</timebase>
							<ntsc>FALSE</ntsc>
						</rate>
						<start>30991</start>
						<end>31001</end>
						<in>1</in>
						<out>11</out>
						<pproTicksIn>10160640000</pproTicksIn>
						<pproTicksOut>111767040000</pproTicksOut>
						<file id="file-63"/>
						<sourcetrack>
							<mediatype>audio</mediatype>
							<trackindex>1</trackindex>
						</sourcetrack>
							<filter>
								<effect>
									<name>Gain</name>
									<effectid>{61756678, 4761696e, 4b657947}</effectid>
									<effecttype>filter</effecttype>
									<mediatype>audio</mediatype>
									<parameter authoringApp="PremierePro">
										<parameterid>Gain(dB)</parameterid>
										<name>Gain(dB)</name>
										<valuemin>-96</valuemin>
										<valuemax>96</valuemax>
										<value>-3</value>
									</parameter>
								</effect>
							</filter>
						<logginginfo>
							<description></description>
							<scene></scene>
							<shottake></shottake>
							<lognote></lognote>
						</logginginfo>
						<labels>
							<label2>Caribbean</label2>
						</labels>
					</clipitem>
					<clipitem id="clipitem-316" premiereChannelType="mono">
						<masterclipid>masterclip-65</masterclipid>
						<name>243038__testing-player__button.wav</name>
						<enabled>TRUE</enabled>
						<duration>11</duration>
						<rate>
							<timebase>25</timebase>
							<ntsc>FALSE</ntsc>
						</rate>
						<start>31086</start>
						<end>31096</end>
						<in>1</in>
						<out>11</out>
						<pproTicksIn>10160640000</pproTicksIn>
						<pproTicksOut>111767040000</pproTicksOut>
						<file id="file-63"/>
						<sourcetrack>
							<mediatype>audio</mediatype>
							<trackindex>1</trackindex>
						</sourcetrack>
							<filter>
								<effect>
									<name>Gain</name>
									<effectid>{61756678, 4761696e, 4b657947}</effectid>
									<effecttype>filter</effecttype>
									<mediatype>audio</mediatype>
									<parameter authoringApp="PremierePro">
										<parameterid>Gain(dB)</parameterid>
										<name>Gain(dB)</name>
										<valuemin>-96</valuemin>
										<valuemax>96</valuemax>
										<value>-3</value>
									</parameter>
								</effect>
							</filter>
						<logginginfo>
							<description></description>
							<scene></scene>
							<shottake></shottake>
							<lognote></lognote>
						</logginginfo>
						<labels>
							<label2>Caribbean</label2>
						</labels>
					</clipitem>
					<clipitem id="clipitem-317" premiereChannelType="mono">
						<masterclipid>masterclip-65</masterclipid>
						<name>243038__testing-player__button.wav</name>
						<enabled>TRUE</enabled>
						<duration>11</duration>
						<rate>
							<timebase>25</timebase>
							<ntsc>FALSE</ntsc>
						</rate>
						<start>31158</start>
						<end>31168</end>
						<in>1</in>
						<out>11</out>
						<pproTicksIn>10160640000</pproTicksIn>
						<pproTicksOut>111767040000</pproTicksOut>
						<file id="file-63"/>
						<sourcetrack>
							<mediatype>audio</mediatype>
							<trackindex>1</trackindex>
						</sourcetrack>
							<filter>
								<effect>
									<name>Gain</name>
									<effectid>{61756678, 4761696e, 4b657947}</effectid>
									<effecttype>filter</effecttype>
									<mediatype>audio</mediatype>
									<parameter authoringApp="PremierePro">
										<parameterid>Gain(dB)</parameterid>
										<name>Gain(dB)</name>
										<valuemin>-96</valuemin>
										<valuemax>96</valuemax>
										<value>-3</value>
									</parameter>
								</effect>
							</filter>
						<logginginfo>
							<description></description>
							<scene></scene>
							<shottake></shottake>
							<lognote></lognote>
						</logginginfo>
						<labels>
							<label2>Caribbean</label2>
						</labels>
					</clipitem>
					<clipitem id="clipitem-318" premiereChannelType="mono">
						<masterclipid>masterclip-65</masterclipid>
						<name>243038__testing-player__button.wav</name>
						<enabled>TRUE</enabled>
						<duration>11</duration>
						<rate>
							<timebase>25</timebase>
							<ntsc>FALSE</ntsc>
						</rate>
						<start>31248</start>
						<end>31259</end>
						<in>1</in>
						<out>12</out>
						<pproTicksIn>10160640000</pproTicksIn>
						<pproTicksOut>121927680000</pproTicksOut>
						<file id="file-63"/>
						<sourcetrack>
							<mediatype>audio</mediatype>
							<trackindex>1</trackindex>
						</sourcetrack>
							<filter>
								<effect>
									<name>Gain</name>
									<effectid>{61756678, 4761696e, 4b657947}</effectid>
									<effecttype>filter</effecttype>
									<mediatype>audio</mediatype>
									<parameter authoringApp="PremierePro">
										<parameterid>Gain(dB)</parameterid>
										<name>Gain(dB)</name>
										<valuemin>-96</valuemin>
										<valuemax>96</valuemax>
										<value>-3</value>
									</parameter>
								</effect>
							</filter>
						<logginginfo>
							<description></description>
							<scene></scene>
							<shottake></shottake>
							<lognote></lognote>
						</logginginfo>
						<labels>
							<label2>Caribbean</label2>
						</labels>
					</clipitem>
					<clipitem id="clipitem-319" premiereChannelType="mono">
						<masterclipid>masterclip-65</masterclipid>
						<name>243038__testing-player__button.wav</name>
						<enabled>TRUE</enabled>
						<duration>11</duration>
						<rate>
							<timebase>25</timebase>
							<ntsc>FALSE</ntsc>
						</rate>
						<start>31297</start>
						<end>31307</end>
						<in>1</in>
						<out>11</out>
						<pproTicksIn>10160640000</pproTicksIn>
						<pproTicksOut>111767040000</pproTicksOut>
						<file id="file-63"/>
						<sourcetrack>
							<mediatype>audio</mediatype>
							<trackindex>1</trackindex>
						</sourcetrack>
							<filter>
								<effect>
									<name>Gain</name>
									<effectid>{61756678, 4761696e, 4b657947}</effectid>
									<effecttype>filter</effecttype>
									<mediatype>audio</mediatype>
									<parameter authoringApp="PremierePro">
										<parameterid>Gain(dB)</parameterid>
										<name>Gain(dB)</name>
										<valuemin>-96</valuemin>
										<valuemax>96</valuemax>
										<value>-3</value>
									</parameter>
								</effect>
							</filter>
						<logginginfo>
							<description></description>
							<scene></scene>
							<shottake></shottake>
							<lognote></lognote>
						</logginginfo>
						<labels>
							<label2>Caribbean</label2>
						</labels>
					</clipitem>
					<clipitem id="clipitem-320" premiereChannelType="mono">
						<masterclipid>masterclip-65</masterclipid>
						<name>243038__testing-player__button.wav</name>
						<enabled>TRUE</enabled>
						<duration>11</duration>
						<rate>
							<timebase>25</timebase>
							<ntsc>FALSE</ntsc>
						</rate>
						<start>31406</start>
						<end>31416</end>
						<in>1</in>
						<out>11</out>
						<pproTicksIn>10160640000</pproTicksIn>
						<pproTicksOut>111767040000</pproTicksOut>
						<file id="file-63"/>
						<sourcetrack>
							<mediatype>audio</mediatype>
							<trackindex>1</trackindex>
						</sourcetrack>
							<filter>
								<effect>
									<name>Gain</name>
									<effectid>{61756678, 4761696e, 4b657947}</effectid>
									<effecttype>filter</effecttype>
									<mediatype>audio</mediatype>
									<parameter authoringApp="PremierePro">
										<parameterid>Gain(dB)</parameterid>
										<name>Gain(dB)</name>
										<valuemin>-96</valuemin>
										<valuemax>96</valuemax>
										<value>-3</value>
									</parameter>
								</effect>
							</filter>
						<logginginfo>
							<description></description>
							<scene></scene>
							<shottake></shottake>
							<lognote></lognote>
						</logginginfo>
						<labels>
							<label2>Caribbean</label2>
						</labels>
					</clipitem>
					<clipitem id="clipitem-321" premiereChannelType="mono">
						<masterclipid>masterclip-65</masterclipid>
						<name>243038__testing-player__button.wav</name>
						<enabled>TRUE</enabled>
						<duration>11</duration>
						<rate>
							<timebase>25</timebase>
							<ntsc>FALSE</ntsc>
						</rate>
						<start>31484</start>
						<end>31494</end>
						<in>1</in>
						<out>11</out>
						<pproTicksIn>10160640000</pproTicksIn>
						<pproTicksOut>111767040000</pproTicksOut>
						<file id="file-63"/>
						<sourcetrack>
							<mediatype>audio</mediatype>
							<trackindex>1</trackindex>
						</sourcetrack>
							<filter>
								<effect>
									<name>Gain</name>
									<effectid>{61756678, 4761696e, 4b657947}</effectid>
									<effecttype>filter</effecttype>
									<mediatype>audio</mediatype>
									<parameter authoringApp="PremierePro">
										<parameterid>Gain(dB)</parameterid>
										<name>Gain(dB)</name>
										<valuemin>-96</valuemin>
										<valuemax>96</valuemax>
										<value>-6</value>
									</parameter>
								</effect>
							</filter>
						<logginginfo>
							<description></description>
							<scene></scene>
							<shottake></shottake>
							<lognote></lognote>
						</logginginfo>
						<labels>
							<label2>Caribbean</label2>
						</labels>
					</clipitem>
					<clipitem id="clipitem-322" premiereChannelType="mono">
						<masterclipid>masterclip-65</masterclipid>
						<name>243038__testing-player__button.wav</name>
						<enabled>TRUE</enabled>
						<duration>11</duration>
						<rate>
							<timebase>25</timebase>
							<ntsc>FALSE</ntsc>
						</rate>
						<start>32231</start>
						<end>32241</end>
						<in>1</in>
						<out>11</out>
						<pproTicksIn>10160640000</pproTicksIn>
						<pproTicksOut>111767040000</pproTicksOut>
						<file id="file-63"/>
						<sourcetrack>
							<mediatype>audio</mediatype>
							<trackindex>1</trackindex>
						</sourcetrack>
							<filter>
								<effect>
									<name>Gain</name>
									<effectid>{61756678, 4761696e, 4b657947}</effectid>
									<effecttype>filter</effecttype>
									<mediatype>audio</mediatype>
									<parameter authoringApp="PremierePro">
										<parameterid>Gain(dB)</parameterid>
										<name>Gain(dB)</name>
										<valuemin>-96</valuemin>
										<valuemax>96</valuemax>
										<value>-3</value>
									</parameter>
								</effect>
							</filter>
						<logginginfo>
							<description></description>
							<scene></scene>
							<shottake></shottake>
							<lognote></lognote>
						</logginginfo>
						<labels>
							<label2>Caribbean</label2>
						</labels>
					</clipitem>
					<clipitem id="clipitem-323" premiereChannelType="mono">
						<masterclipid>masterclip-65</masterclipid>
						<name>243038__testing-player__button.wav</name>
						<enabled>TRUE</enabled>
						<duration>11</duration>
						<rate>
							<timebase>25</timebase>
							<ntsc>FALSE</ntsc>
						</rate>
						<start>32313</start>
						<end>32325</end>
						<in>0</in>
						<out>12</out>
						<pproTicksIn>0</pproTicksIn>
						<pproTicksOut>121927680000</pproTicksOut>
						<file id="file-63"/>
						<sourcetrack>
							<mediatype>audio</mediatype>
							<trackindex>1</trackindex>
						</sourcetrack>
						<logginginfo>
							<description></description>
							<scene></scene>
							<shottake></shottake>
							<lognote></lognote>
						</logginginfo>
						<labels>
							<label2>Caribbean</label2>
						</labels>
					</clipitem>
					<transitionitem>
						<start>33489</start>
						<end>33539</end>
						<alignment>start-black</alignment>
						<cutPointTicks>0</cutPointTicks>
						<rate>
							<timebase>25</timebase>
							<ntsc>FALSE</ntsc>
						</rate>
						<effect>
							<name>Cross Fade (+3dB)</name>
							<effectid>KGAudioTransCrossFade3dB</effectid>
							<effecttype>transition</effecttype>
							<mediatype>audio</mediatype>
							<wipecode>0</wipecode>
							<wipeaccuracy>100</wipeaccuracy>
							<startratio>0</startratio>
							<endratio>1</endratio>
							<reverse>FALSE</reverse>
						</effect>
					</transitionitem>
					<clipitem id="clipitem-324" premiereChannelType="stereo">
						<masterclipid>masterclip-66</masterclipid>
						<name>NONRE644229HD0004 Amen.wav</name>
						<enabled>TRUE</enabled>
						<duration>5448</duration>
						<rate>
							<timebase>25</timebase>
							<ntsc>FALSE</ntsc>
						</rate>
						<start>-1</start>
						<end>33579</end>
						<in>0</in>
						<out>90</out>
						<pproTicksIn>0</pproTicksIn>
						<pproTicksOut>914457600000</pproTicksOut>
						<file id="file-64">
							<name>NONRE644229HD0004 Amen.wav</name>
							<pathurl>file://localhost/Volumes/Bingen/Prosjekter/MYNT194016%20WHATS%20COOKING/Musikk/Marita/Lykke/dma%20Mon%20Jun%2013%2010%3a56%3a25%202016/NONRE644229HD0004%20Amen.wav</pathurl>
							<rate>
								<timebase>30</timebase>
								<ntsc>TRUE</ntsc>
							</rate>
							<duration>6532</duration>
							<timecode>
								<rate>
									<timebase>30</timebase>
									<ntsc>TRUE</ntsc>
								</rate>
								<string>00;00;00;00</string>
								<frame>0</frame>
								<displayformat>DF</displayformat>
								<reel>
									<name></name>
								</reel>
							</timecode>
							<media>
								<audio>
									<samplecharacteristics>
										<depth>16</depth>
										<samplerate>48000</samplerate>
									</samplecharacteristics>
									<channelcount>2</channelcount>
								</audio>
							</media>
						</file>
						<sourcetrack>
							<mediatype>audio</mediatype>
							<trackindex>1</trackindex>
						</sourcetrack>
							<filter>
								<effect>
									<name>Gain</name>
									<effectid>{61756678, 4761696e, 4b657947}</effectid>
									<effecttype>filter</effecttype>
									<mediatype>audio</mediatype>
									<parameter authoringApp="PremierePro">
										<parameterid>Gain(dB)</parameterid>
										<name>Gain(dB)</name>
										<valuemin>-96</valuemin>
										<valuemax>96</valuemax>
										<value>-15</value>
									</parameter>
								</effect>
							</filter>
						<link>
							<linkclipref>clipitem-324</linkclipref>
							<mediatype>audio</mediatype>
							<trackindex>15</trackindex>
							<clipindex>27</clipindex>
							<groupindex>1</groupindex>
						</link>
						<link>
							<linkclipref>clipitem-332</linkclipref>
							<mediatype>audio</mediatype>
							<trackindex>16</trackindex>
							<clipindex>5</clipindex>
							<groupindex>1</groupindex>
						</link>
						<logginginfo>
							<description>NB! Avventer svar fra HP</description>
							<scene></scene>
							<shottake></shottake>
							<lognote>Purchased from 7digital.com</lognote>
						</logginginfo>
						<labels>
							<label2>Caribbean</label2>
						</labels>
					</clipitem>
					<clipitem id="clipitem-325" premiereChannelType="stereo">
						<masterclipid>masterclip-66</masterclipid>
						<name>NONRE644229HD0004 Amen.wav</name>
						<enabled>TRUE</enabled>
						<duration>5448</duration>
						<rate>
							<timebase>25</timebase>
							<ntsc>FALSE</ntsc>
						</rate>
						<start>33579</start>
						<end>-1</end>
						<in>90</in>
						<out>344</out>
						<pproTicksIn>914457600000</pproTicksIn>
						<pproTicksOut>3495260160000</pproTicksOut>
						<file id="file-64"/>
						<sourcetrack>
							<mediatype>audio</mediatype>
							<trackindex>1</trackindex>
						</sourcetrack>
							<filter>
								<effect>
									<name>Gain</name>
									<effectid>{61756678, 4761696e, 4b657947}</effectid>
									<effecttype>filter</effecttype>
									<mediatype>audio</mediatype>
									<parameter authoringApp="PremierePro">
										<parameterid>Gain(dB)</parameterid>
										<name>Gain(dB)</name>
										<valuemin>-96</valuemin>
										<valuemax>96</valuemax>
										<value>-9</value>
									</parameter>
								</effect>
							</filter>
						<link>
							<linkclipref>clipitem-325</linkclipref>
							<mediatype>audio</mediatype>
							<trackindex>15</trackindex>
							<clipindex>28</clipindex>
							<groupindex>1</groupindex>
						</link>
						<link>
							<linkclipref>clipitem-333</linkclipref>
							<mediatype>audio</mediatype>
							<trackindex>16</trackindex>
							<clipindex>6</clipindex>
							<groupindex>1</groupindex>
						</link>
						<logginginfo>
							<description>NB! Avventer svar fra HP</description>
							<scene></scene>
							<shottake></shottake>
							<lognote>Purchased from 7digital.com</lognote>
						</logginginfo>
						<labels>
							<label2>Caribbean</label2>
						</labels>
					</clipitem>
					<transitionitem>
						<start>33799</start>
						<end>33833</end>
						<alignment>center</alignment>
						<cutPointTicks>172730880000</cutPointTicks>
						<rate>
							<timebase>25</timebase>
							<ntsc>FALSE</ntsc>
						</rate>
						<effect>
							<name>Cross Fade (+3dB)</name>
							<effectid>KGAudioTransCrossFade3dB</effectid>
							<effecttype>transition</effecttype>
							<mediatype>audio</mediatype>
							<wipecode>0</wipecode>
							<wipeaccuracy>100</wipeaccuracy>
							<startratio>0</startratio>
							<endratio>1</endratio>
							<reverse>FALSE</reverse>
						</effect>
					</transitionitem>
					<clipitem id="clipitem-326" premiereChannelType="stereo">
						<masterclipid>masterclip-66</masterclipid>
						<name>NONRE644229HD0004 Amen.wav</name>
						<enabled>TRUE</enabled>
						<duration>5448</duration>
						<rate>
							<timebase>25</timebase>
							<ntsc>FALSE</ntsc>
						</rate>
						<start>-1</start>
						<end>-1</end>
						<in>310</in>
						<out>414</out>
						<pproTicksIn>3149798400000</pproTicksIn>
						<pproTicksOut>4206504960000</pproTicksOut>
						<file id="file-64"/>
						<sourcetrack>
							<mediatype>audio</mediatype>
							<trackindex>1</trackindex>
						</sourcetrack>
							<filter>
								<effect>
									<name>Gain</name>
									<effectid>{61756678, 4761696e, 4b657947}</effectid>
									<effecttype>filter</effecttype>
									<mediatype>audio</mediatype>
									<parameter authoringApp="PremierePro">
										<parameterid>Gain(dB)</parameterid>
										<name>Gain(dB)</name>
										<valuemin>-96</valuemin>
										<valuemax>96</valuemax>
										<value>-21</value>
									</parameter>
								</effect>
							</filter>
						<link>
							<linkclipref>clipitem-326</linkclipref>
							<mediatype>audio</mediatype>
							<trackindex>15</trackindex>
							<clipindex>30</clipindex>
							<groupindex>1</groupindex>
						</link>
						<link>
							<linkclipref>clipitem-334</linkclipref>
							<mediatype>audio</mediatype>
							<trackindex>16</trackindex>
							<clipindex>8</clipindex>
							<groupindex>1</groupindex>
						</link>
						<logginginfo>
							<description>NB! Avventer svar fra HP</description>
							<scene></scene>
							<shottake></shottake>
							<lognote>Purchased from 7digital.com</lognote>
						</logginginfo>
						<labels>
							<label2>Caribbean</label2>
						</labels>
					</clipitem>
					<transitionitem>
						<start>33890</start>
						<end>33903</end>
						<alignment>center</alignment>
						<cutPointTicks>60963840000</cutPointTicks>
						<rate>
							<timebase>25</timebase>
							<ntsc>FALSE</ntsc>
						</rate>
						<effect>
							<name>Cross Fade (+3dB)</name>
							<effectid>KGAudioTransCrossFade3dB</effectid>
							<effecttype>transition</effecttype>
							<mediatype>audio</mediatype>
							<wipecode>0</wipecode>
							<wipeaccuracy>100</wipeaccuracy>
							<startratio>0</startratio>
							<endratio>1</endratio>
							<reverse>FALSE</reverse>
						</effect>
					</transitionitem>
					<clipitem id="clipitem-327" premiereChannelType="stereo">
						<masterclipid>masterclip-66</masterclipid>
						<name>NONRE644229HD0004 Amen.wav</name>
						<enabled>TRUE</enabled>
						<duration>5448</duration>
						<rate>
							<timebase>25</timebase>
							<ntsc>FALSE</ntsc>
						</rate>
						<start>-1</start>
						<end>-1</end>
						<in>401</in>
						<out>604</out>
						<pproTicksIn>4074416640000</pproTicksIn>
						<pproTicksOut>6137026560000</pproTicksOut>
						<file id="file-64"/>
						<sourcetrack>
							<mediatype>audio</mediatype>
							<trackindex>1</trackindex>
						</sourcetrack>
							<filter>
								<effect>
									<name>Gain</name>
									<effectid>{61756678, 4761696e, 4b657947}</effectid>
									<effecttype>filter</effecttype>
									<mediatype>audio</mediatype>
									<parameter authoringApp="PremierePro">
										<parameterid>Gain(dB)</parameterid>
										<name>Gain(dB)</name>
										<valuemin>-96</valuemin>
										<valuemax>96</valuemax>
										<value>-30</value>
									</parameter>
								</effect>
							</filter>
						<link>
							<linkclipref>clipitem-327</linkclipref>
							<mediatype>audio</mediatype>
							<trackindex>15</trackindex>
							<clipindex>32</clipindex>
							<groupindex>1</groupindex>
						</link>
						<link>
							<linkclipref>clipitem-335</linkclipref>
							<mediatype>audio</mediatype>
							<trackindex>16</trackindex>
							<clipindex>10</clipindex>
							<groupindex>1</groupindex>
						</link>
						<logginginfo>
							<description>NB! Avventer svar fra HP</description>
							<scene></scene>
							<shottake></shottake>
							<lognote>Purchased from 7digital.com</lognote>
						</logginginfo>
						<labels>
							<label2>Caribbean</label2>
						</labels>
					</clipitem>
					<transitionitem>
						<start>33987</start>
						<end>34093</end>
						<alignment>end-black</alignment>
						<cutPointTicks>1077027840000</cutPointTicks>
						<rate>
							<timebase>25</timebase>
							<ntsc>FALSE</ntsc>
						</rate>
						<effect>
							<name>Cross Fade (+3dB)</name>
							<effectid>KGAudioTransCrossFade3dB</effectid>
							<effecttype>transition</effecttype>
							<mediatype>audio</mediatype>
							<wipecode>0</wipecode>
							<wipeaccuracy>100</wipeaccuracy>
							<startratio>0</startratio>
							<endratio>1</endratio>
							<reverse>FALSE</reverse>
						</effect>
					</transitionitem>
					<transitionitem>
						<start>34663</start>
						<end>34676</end>
						<alignment>start-black</alignment>
						<cutPointTicks>0</cutPointTicks>
						<rate>
							<timebase>25</timebase>
							<ntsc>FALSE</ntsc>
						</rate>
						<effect>
							<name>Cross Fade (+3dB)</name>
							<effectid>KGAudioTransCrossFade3dB</effectid>
							<effecttype>transition</effecttype>
							<mediatype>audio</mediatype>
							<wipecode>0</wipecode>
							<wipeaccuracy>100</wipeaccuracy>
							<startratio>0</startratio>
							<endratio>1</endratio>
							<reverse>FALSE</reverse>
						</effect>
					</transitionitem>
					<clipitem id="clipitem-328" premiereChannelType="stereo">
						<masterclipid>masterclip-66</masterclipid>
						<name>NONRE644229HD0004 Amen.wav</name>
						<enabled>TRUE</enabled>
						<duration>5448</duration>
						<rate>
							<timebase>25</timebase>
							<ntsc>FALSE</ntsc>
						</rate>
						<start>-1</start>
						<end>-1</end>
						<in>4795</in>
						<out>5200</out>
						<pproTicksIn>48720268800000</pproTicksIn>
						<pproTicksOut>52835328000000</pproTicksOut>
						<file id="file-64"/>
						<sourcetrack>
							<mediatype>audio</mediatype>
							<trackindex>1</trackindex>
						</sourcetrack>
							<filter>
								<effect>
									<name>Gain</name>
									<effectid>{61756678, 4761696e, 4b657947}</effectid>
									<effecttype>filter</effecttype>
									<mediatype>audio</mediatype>
									<parameter authoringApp="PremierePro">
										<parameterid>Gain(dB)</parameterid>
										<name>Gain(dB)</name>
										<valuemin>-96</valuemin>
										<valuemax>96</valuemax>
										<value>-24</value>
									</parameter>
								</effect>
							</filter>
						<link>
							<linkclipref>clipitem-328</linkclipref>
							<mediatype>audio</mediatype>
							<trackindex>15</trackindex>
							<clipindex>35</clipindex>
							<groupindex>1</groupindex>
						</link>
						<link>
							<linkclipref>clipitem-336</linkclipref>
							<mediatype>audio</mediatype>
							<trackindex>16</trackindex>
							<clipindex>13</clipindex>
							<groupindex>1</groupindex>
						</link>
						<logginginfo>
							<description>NB! Avventer svar fra HP</description>
							<scene></scene>
							<shottake></shottake>
							<lognote>Purchased from 7digital.com</lognote>
						</logginginfo>
						<labels>
							<label2>Caribbean</label2>
						</labels>
					</clipitem>
					<transitionitem>
						<start>34876</start>
						<end>35068</end>
						<alignment>center</alignment>
						<cutPointTicks>965260800000</cutPointTicks>
						<rate>
							<timebase>25</timebase>
							<ntsc>FALSE</ntsc>
						</rate>
						<effect>
							<name>Cross Fade (+3dB)</name>
							<effectid>KGAudioTransCrossFade3dB</effectid>
							<effecttype>transition</effecttype>
							<mediatype>audio</mediatype>
							<wipecode>0</wipecode>
							<wipeaccuracy>100</wipeaccuracy>
							<startratio>0</startratio>
							<endratio>1</endratio>
							<reverse>FALSE</reverse>
						</effect>
					</transitionitem>
					<clipitem id="clipitem-329" premiereChannelType="stereo">
						<masterclipid>masterclip-66</masterclipid>
						<name>NONRE644229HD0004 Amen.wav</name>
						<enabled>TRUE</enabled>
						<duration>5448</duration>
						<rate>
							<timebase>25</timebase>
							<ntsc>FALSE</ntsc>
						</rate>
						<start>-1</start>
						<end>35245</end>
						<in>5008</in>
						<out>5377</out>
						<pproTicksIn>50884485120000</pproTicksIn>
						<pproTicksOut>54633761280000</pproTicksOut>
						<file id="file-64"/>
						<sourcetrack>
							<mediatype>audio</mediatype>
							<trackindex>1</trackindex>
						</sourcetrack>
							<filter>
								<effect>
									<name>Gain</name>
									<effectid>{61756678, 4761696e, 4b657947}</effectid>
									<effecttype>filter</effecttype>
									<mediatype>audio</mediatype>
									<parameter authoringApp="PremierePro">
										<parameterid>Gain(dB)</parameterid>
										<name>Gain(dB)</name>
										<valuemin>-96</valuemin>
										<valuemax>96</valuemax>
										<value>-15</value>
									</parameter>
								</effect>
							</filter>
						<link>
							<linkclipref>clipitem-329</linkclipref>
							<mediatype>audio</mediatype>
							<trackindex>15</trackindex>
							<clipindex>37</clipindex>
							<groupindex>1</groupindex>
						</link>
						<link>
							<linkclipref>clipitem-337</linkclipref>
							<mediatype>audio</mediatype>
							<trackindex>16</trackindex>
							<clipindex>15</clipindex>
							<groupindex>1</groupindex>
						</link>
						<logginginfo>
							<description>NB! Avventer svar fra HP</description>
							<scene></scene>
							<shottake></shottake>
							<lognote>Purchased from 7digital.com</lognote>
						</logginginfo>
						<labels>
							<label2>Caribbean</label2>
						</labels>
					</clipitem>
					<enabled>TRUE</enabled>
					<locked>FALSE</locked>
					<outputchannelindex>1</outputchannelindex>
				</track>
				<track TL.SQTrackAudioKeyframeStyle="0" TL.SQTrackShy="0" TL.SQTrackExpandedHeight="65" TL.SQTrackExpanded="1" MZ.TrackTargeted="0" PannerCurrentValue="0.5" PannerIsInverted="true" PannerStartKeyframe="-91445760000000000,0.5,0,0,0,0,0,0" PannerName="Balance" currentExplodedTrackIndex="1" totalExplodedTrackCount="2" premiereTrackType="Stereo">
					<clipitem id="clipitem-330" premiereChannelType="stereo">
						<masterclipid>masterclip-64</masterclipid>
						<name>NONRO318732CS0002 If I Ain't Got you  (Instrumental).wav</name>
						<enabled>TRUE</enabled>
						<duration>5858</duration>
						<rate>
							<timebase>25</timebase>
							<ntsc>FALSE</ntsc>
						</rate>
						<start>24794</start>
						<end>-1</end>
						<in>1204</in>
						<out>1397</out>
						<pproTicksIn>12233410560000</pproTicksIn>
						<pproTicksOut>14194414080000</pproTicksOut>
						<file id="file-62"/>
						<sourcetrack>
							<mediatype>audio</mediatype>
							<trackindex>2</trackindex>
						</sourcetrack>
							<filter>
								<effect>
									<name>Gain</name>
									<effectid>{61756678, 4761696e, 4b657947}</effectid>
									<effecttype>filter</effecttype>
									<mediatype>audio</mediatype>
									<parameter authoringApp="PremierePro">
										<parameterid>Gain(dB)</parameterid>
										<name>Gain(dB)</name>
										<valuemin>-96</valuemin>
										<valuemax>96</valuemax>
										<value>-27</value>
									</parameter>
								</effect>
							</filter>
						<link>
							<linkclipref>clipitem-301</linkclipref>
							<mediatype>audio</mediatype>
							<trackindex>15</trackindex>
							<clipindex>2</clipindex>
							<groupindex>1</groupindex>
						</link>
						<link>
							<linkclipref>clipitem-330</linkclipref>
							<mediatype>audio</mediatype>
							<trackindex>16</trackindex>
							<clipindex>1</clipindex>
							<groupindex>1</groupindex>
						</link>
						<logginginfo>
							<description>NB! Avventer svar fra HP</description>
							<scene></scene>
							<shottake></shottake>
							<lognote>CD Track 2 archiveNo[318732013]</lognote>
						</logginginfo>
						<labels>
							<label2>Caribbean</label2>
						</labels>
					</clipitem>
					<transitionitem>
						<start>24890</start>
						<end>24987</end>
						<alignment>end-black</alignment>
						<cutPointTicks>985582080000</cutPointTicks>
						<rate>
							<timebase>25</timebase>
							<ntsc>FALSE</ntsc>
						</rate>
						<effect>
							<name>Cross Fade (+3dB)</name>
							<effectid>KGAudioTransCrossFade3dB</effectid>
							<effecttype>transition</effecttype>
							<mediatype>audio</mediatype>
							<wipecode>0</wipecode>
							<wipeaccuracy>100</wipeaccuracy>
							<startratio>0</startratio>
							<endratio>1</endratio>
							<reverse>FALSE</reverse>
						</effect>
					</transitionitem>
					<clipitem id="clipitem-331" premiereChannelType="stereo">
						<masterclipid>masterclip-52</masterclipid>
						<name>UTS_19_22_Pendulum_Unleashed_Hit_1_David_Denis_856912.wav</name>
						<enabled>TRUE</enabled>
						<duration>200</duration>
						<rate>
							<timebase>25</timebase>
							<ntsc>FALSE</ntsc>
						</rate>
						<start>28589</start>
						<end>28743</end>
						<in>0</in>
						<out>154</out>
						<pproTicksIn>0</pproTicksIn>
						<pproTicksOut>1564738560000</pproTicksOut>
						<file id="file-50"/>
						<sourcetrack>
							<mediatype>audio</mediatype>
							<trackindex>2</trackindex>
						</sourcetrack>
							<filter>
								<effect>
									<name>Gain</name>
									<effectid>{61756678, 4761696e, 4b657947}</effectid>
									<effecttype>filter</effecttype>
									<mediatype>audio</mediatype>
									<parameter authoringApp="PremierePro">
										<parameterid>Gain(dB)</parameterid>
										<name>Gain(dB)</name>
										<valuemin>-96</valuemin>
										<valuemax>96</valuemax>
										<value>-9</value>
									</parameter>
								</effect>
							</filter>
						<link>
							<linkclipref>clipitem-302</linkclipref>
							<mediatype>audio</mediatype>
							<trackindex>15</trackindex>
							<clipindex>4</clipindex>
							<groupindex>1</groupindex>
						</link>
						<link>
							<linkclipref>clipitem-331</linkclipref>
							<mediatype>audio</mediatype>
							<trackindex>16</trackindex>
							<clipindex>3</clipindex>
							<groupindex>1</groupindex>
						</link>
						<logginginfo>
							<description></description>
							<scene></scene>
							<shottake></shottake>
							<lognote></lognote>
						</logginginfo>
						<labels>
							<label2>Caribbean</label2>
						</labels>
					</clipitem>
					<transitionitem>
						<start>33489</start>
						<end>33539</end>
						<alignment>start-black</alignment>
						<cutPointTicks>0</cutPointTicks>
						<rate>
							<timebase>25</timebase>
							<ntsc>FALSE</ntsc>
						</rate>
						<effect>
							<name>Cross Fade (+3dB)</name>
							<effectid>KGAudioTransCrossFade3dB</effectid>
							<effecttype>transition</effecttype>
							<mediatype>audio</mediatype>
							<wipecode>0</wipecode>
							<wipeaccuracy>100</wipeaccuracy>
							<startratio>0</startratio>
							<endratio>1</endratio>
							<reverse>FALSE</reverse>
						</effect>
					</transitionitem>
					<clipitem id="clipitem-332" premiereChannelType="stereo">
						<masterclipid>masterclip-66</masterclipid>
						<name>NONRE644229HD0004 Amen.wav</name>
						<enabled>TRUE</enabled>
						<duration>5448</duration>
						<rate>
							<timebase>25</timebase>
							<ntsc>FALSE</ntsc>
						</rate>
						<start>-1</start>
						<end>33579</end>
						<in>0</in>
						<out>90</out>
						<pproTicksIn>0</pproTicksIn>
						<pproTicksOut>914457600000</pproTicksOut>
						<file id="file-64"/>
						<sourcetrack>
							<mediatype>audio</mediatype>
							<trackindex>2</trackindex>
						</sourcetrack>
							<filter>
								<effect>
									<name>Gain</name>
									<effectid>{61756678, 4761696e, 4b657947}</effectid>
									<effecttype>filter</effecttype>
									<mediatype>audio</mediatype>
									<parameter authoringApp="PremierePro">
										<parameterid>Gain(dB)</parameterid>
										<name>Gain(dB)</name>
										<valuemin>-96</valuemin>
										<valuemax>96</valuemax>
										<value>-15</value>
									</parameter>
								</effect>
							</filter>
						<link>
							<linkclipref>clipitem-324</linkclipref>
							<mediatype>audio</mediatype>
							<trackindex>15</trackindex>
							<clipindex>27</clipindex>
							<groupindex>1</groupindex>
						</link>
						<link>
							<linkclipref>clipitem-332</linkclipref>
							<mediatype>audio</mediatype>
							<trackindex>16</trackindex>
							<clipindex>5</clipindex>
							<groupindex>1</groupindex>
						</link>
						<logginginfo>
							<description>NB! Avventer svar fra HP</description>
							<scene></scene>
							<shottake></shottake>
							<lognote>Purchased from 7digital.com</lognote>
						</logginginfo>
						<labels>
							<label2>Caribbean</label2>
						</labels>
					</clipitem>
					<clipitem id="clipitem-333" premiereChannelType="stereo">
						<masterclipid>masterclip-66</masterclipid>
						<name>NONRE644229HD0004 Amen.wav</name>
						<enabled>TRUE</enabled>
						<duration>5448</duration>
						<rate>
							<timebase>25</timebase>
							<ntsc>FALSE</ntsc>
						</rate>
						<start>33579</start>
						<end>-1</end>
						<in>90</in>
						<out>344</out>
						<pproTicksIn>914457600000</pproTicksIn>
						<pproTicksOut>3495260160000</pproTicksOut>
						<file id="file-64"/>
						<sourcetrack>
							<mediatype>audio</mediatype>
							<trackindex>2</trackindex>
						</sourcetrack>
							<filter>
								<effect>
									<name>Gain</name>
									<effectid>{61756678, 4761696e, 4b657947}</effectid>
									<effecttype>filter</effecttype>
									<mediatype>audio</mediatype>
									<parameter authoringApp="PremierePro">
										<parameterid>Gain(dB)</parameterid>
										<name>Gain(dB)</name>
										<valuemin>-96</valuemin>
										<valuemax>96</valuemax>
										<value>-9</value>
									</parameter>
								</effect>
							</filter>
						<link>
							<linkclipref>clipitem-325</linkclipref>
							<mediatype>audio</mediatype>
							<trackindex>15</trackindex>
							<clipindex>28</clipindex>
							<groupindex>1</groupindex>
						</link>
						<link>
							<linkclipref>clipitem-333</linkclipref>
							<mediatype>audio</mediatype>
							<trackindex>16</trackindex>
							<clipindex>6</clipindex>
							<groupindex>1</groupindex>
						</link>
						<logginginfo>
							<description>NB! Avventer svar fra HP</description>
							<scene></scene>
							<shottake></shottake>
							<lognote>Purchased from 7digital.com</lognote>
						</logginginfo>
						<labels>
							<label2>Caribbean</label2>
						</labels>
					</clipitem>
					<transitionitem>
						<start>33799</start>
						<end>33833</end>
						<alignment>center</alignment>
						<cutPointTicks>172730880000</cutPointTicks>
						<rate>
							<timebase>25</timebase>
							<ntsc>FALSE</ntsc>
						</rate>
						<effect>
							<name>Cross Fade (+3dB)</name>
							<effectid>KGAudioTransCrossFade3dB</effectid>
							<effecttype>transition</effecttype>
							<mediatype>audio</mediatype>
							<wipecode>0</wipecode>
							<wipeaccuracy>100</wipeaccuracy>
							<startratio>0</startratio>
							<endratio>1</endratio>
							<reverse>FALSE</reverse>
						</effect>
					</transitionitem>
					<clipitem id="clipitem-334" premiereChannelType="stereo">
						<masterclipid>masterclip-66</masterclipid>
						<name>NONRE644229HD0004 Amen.wav</name>
						<enabled>TRUE</enabled>
						<duration>5448</duration>
						<rate>
							<timebase>25</timebase>
							<ntsc>FALSE</ntsc>
						</rate>
						<start>-1</start>
						<end>-1</end>
						<in>310</in>
						<out>414</out>
						<pproTicksIn>3149798400000</pproTicksIn>
						<pproTicksOut>4206504960000</pproTicksOut>
						<file id="file-64"/>
						<sourcetrack>
							<mediatype>audio</mediatype>
							<trackindex>2</trackindex>
						</sourcetrack>
							<filter>
								<effect>
									<name>Gain</name>
									<effectid>{61756678, 4761696e, 4b657947}</effectid>
									<effecttype>filter</effecttype>
									<mediatype>audio</mediatype>
									<parameter authoringApp="PremierePro">
										<parameterid>Gain(dB)</parameterid>
										<name>Gain(dB)</name>
										<valuemin>-96</valuemin>
										<valuemax>96</valuemax>
										<value>-21</value>
									</parameter>
								</effect>
							</filter>
						<link>
							<linkclipref>clipitem-326</linkclipref>
							<mediatype>audio</mediatype>
							<trackindex>15</trackindex>
							<clipindex>30</clipindex>
							<groupindex>1</groupindex>
						</link>
						<link>
							<linkclipref>clipitem-334</linkclipref>
							<mediatype>audio</mediatype>
							<trackindex>16</trackindex>
							<clipindex>8</clipindex>
							<groupindex>1</groupindex>
						</link>
						<logginginfo>
							<description>NB! Avventer svar fra HP</description>
							<scene></scene>
							<shottake></shottake>
							<lognote>Purchased from 7digital.com</lognote>
						</logginginfo>
						<labels>
							<label2>Caribbean</label2>
						</labels>
					</clipitem>
					<transitionitem>
						<start>33890</start>
						<end>33903</end>
						<alignment>center</alignment>
						<cutPointTicks>60963840000</cutPointTicks>
						<rate>
							<timebase>25</timebase>
							<ntsc>FALSE</ntsc>
						</rate>
						<effect>
							<name>Cross Fade (+3dB)</name>
							<effectid>KGAudioTransCrossFade3dB</effectid>
							<effecttype>transition</effecttype>
							<mediatype>audio</mediatype>
							<wipecode>0</wipecode>
							<wipeaccuracy>100</wipeaccuracy>
							<startratio>0</startratio>
							<endratio>1</endratio>
							<reverse>FALSE</reverse>
						</effect>
					</transitionitem>
					<clipitem id="clipitem-335" premiereChannelType="stereo">
						<masterclipid>masterclip-66</masterclipid>
						<name>NONRE644229HD0004 Amen.wav</name>
						<enabled>TRUE</enabled>
						<duration>5448</duration>
						<rate>
							<timebase>25</timebase>
							<ntsc>FALSE</ntsc>
						</rate>
						<start>-1</start>
						<end>-1</end>
						<in>401</in>
						<out>604</out>
						<pproTicksIn>4074416640000</pproTicksIn>
						<pproTicksOut>6137026560000</pproTicksOut>
						<file id="file-64"/>
						<sourcetrack>
							<mediatype>audio</mediatype>
							<trackindex>2</trackindex>
						</sourcetrack>
							<filter>
								<effect>
									<name>Gain</name>
									<effectid>{61756678, 4761696e, 4b657947}</effectid>
									<effecttype>filter</effecttype>
									<mediatype>audio</mediatype>
									<parameter authoringApp="PremierePro">
										<parameterid>Gain(dB)</parameterid>
										<name>Gain(dB)</name>
										<valuemin>-96</valuemin>
										<valuemax>96</valuemax>
										<value>-30</value>
									</parameter>
								</effect>
							</filter>
						<link>
							<linkclipref>clipitem-327</linkclipref>
							<mediatype>audio</mediatype>
							<trackindex>15</trackindex>
							<clipindex>32</clipindex>
							<groupindex>1</groupindex>
						</link>
						<link>
							<linkclipref>clipitem-335</linkclipref>
							<mediatype>audio</mediatype>
							<trackindex>16</trackindex>
							<clipindex>10</clipindex>
							<groupindex>1</groupindex>
						</link>
						<logginginfo>
							<description>NB! Avventer svar fra HP</description>
							<scene></scene>
							<shottake></shottake>
							<lognote>Purchased from 7digital.com</lognote>
						</logginginfo>
						<labels>
							<label2>Caribbean</label2>
						</labels>
					</clipitem>
					<transitionitem>
						<start>33987</start>
						<end>34093</end>
						<alignment>end-black</alignment>
						<cutPointTicks>1077027840000</cutPointTicks>
						<rate>
							<timebase>25</timebase>
							<ntsc>FALSE</ntsc>
						</rate>
						<effect>
							<name>Cross Fade (+3dB)</name>
							<effectid>KGAudioTransCrossFade3dB</effectid>
							<effecttype>transition</effecttype>
							<mediatype>audio</mediatype>
							<wipecode>0</wipecode>
							<wipeaccuracy>100</wipeaccuracy>
							<startratio>0</startratio>
							<endratio>1</endratio>
							<reverse>FALSE</reverse>
						</effect>
					</transitionitem>
					<transitionitem>
						<start>34663</start>
						<end>34676</end>
						<alignment>start-black</alignment>
						<cutPointTicks>0</cutPointTicks>
						<rate>
							<timebase>25</timebase>
							<ntsc>FALSE</ntsc>
						</rate>
						<effect>
							<name>Cross Fade (+3dB)</name>
							<effectid>KGAudioTransCrossFade3dB</effectid>
							<effecttype>transition</effecttype>
							<mediatype>audio</mediatype>
							<wipecode>0</wipecode>
							<wipeaccuracy>100</wipeaccuracy>
							<startratio>0</startratio>
							<endratio>1</endratio>
							<reverse>FALSE</reverse>
						</effect>
					</transitionitem>
					<clipitem id="clipitem-336" premiereChannelType="stereo">
						<masterclipid>masterclip-66</masterclipid>
						<name>NONRE644229HD0004 Amen.wav</name>
						<enabled>TRUE</enabled>
						<duration>5448</duration>
						<rate>
							<timebase>25</timebase>
							<ntsc>FALSE</ntsc>
						</rate>
						<start>-1</start>
						<end>-1</end>
						<in>4795</in>
						<out>5200</out>
						<pproTicksIn>48720268800000</pproTicksIn>
						<pproTicksOut>52835328000000</pproTicksOut>
						<file id="file-64"/>
						<sourcetrack>
							<mediatype>audio</mediatype>
							<trackindex>2</trackindex>
						</sourcetrack>
							<filter>
								<effect>
									<name>Gain</name>
									<effectid>{61756678, 4761696e, 4b657947}</effectid>
									<effecttype>filter</effecttype>
									<mediatype>audio</mediatype>
									<parameter authoringApp="PremierePro">
										<parameterid>Gain(dB)</parameterid>
										<name>Gain(dB)</name>
										<valuemin>-96</valuemin>
										<valuemax>96</valuemax>
										<value>-24</value>
									</parameter>
								</effect>
							</filter>
						<link>
							<linkclipref>clipitem-328</linkclipref>
							<mediatype>audio</mediatype>
							<trackindex>15</trackindex>
							<clipindex>35</clipindex>
							<groupindex>1</groupindex>
						</link>
						<link>
							<linkclipref>clipitem-336</linkclipref>
							<mediatype>audio</mediatype>
							<trackindex>16</trackindex>
							<clipindex>13</clipindex>
							<groupindex>1</groupindex>
						</link>
						<logginginfo>
							<description>NB! Avventer svar fra HP</description>
							<scene></scene>
							<shottake></shottake>
							<lognote>Purchased from 7digital.com</lognote>
						</logginginfo>
						<labels>
							<label2>Caribbean</label2>
						</labels>
					</clipitem>
					<transitionitem>
						<start>34876</start>
						<end>35068</end>
						<alignment>center</alignment>
						<cutPointTicks>965260800000</cutPointTicks>
						<rate>
							<timebase>25</timebase>
							<ntsc>FALSE</ntsc>
						</rate>
						<effect>
							<name>Cross Fade (+3dB)</name>
							<effectid>KGAudioTransCrossFade3dB</effectid>
							<effecttype>transition</effecttype>
							<mediatype>audio</mediatype>
							<wipecode>0</wipecode>
							<wipeaccuracy>100</wipeaccuracy>
							<startratio>0</startratio>
							<endratio>1</endratio>
							<reverse>FALSE</reverse>
						</effect>
					</transitionitem>
					<clipitem id="clipitem-337" premiereChannelType="stereo">
						<masterclipid>masterclip-66</masterclipid>
						<name>NONRE644229HD0004 Amen.wav</name>
						<enabled>TRUE</enabled>
						<duration>5448</duration>
						<rate>
							<timebase>25</timebase>
							<ntsc>FALSE</ntsc>
						</rate>
						<start>-1</start>
						<end>35245</end>
						<in>5008</in>
						<out>5377</out>
						<pproTicksIn>50884485120000</pproTicksIn>
						<pproTicksOut>54633761280000</pproTicksOut>
						<file id="file-64"/>
						<sourcetrack>
							<mediatype>audio</mediatype>
							<trackindex>2</trackindex>
						</sourcetrack>
							<filter>
								<effect>
									<name>Gain</name>
									<effectid>{61756678, 4761696e, 4b657947}</effectid>
									<effecttype>filter</effecttype>
									<mediatype>audio</mediatype>
									<parameter authoringApp="PremierePro">
										<parameterid>Gain(dB)</parameterid>
										<name>Gain(dB)</name>
										<valuemin>-96</valuemin>
										<valuemax>96</valuemax>
										<value>-15</value>
									</parameter>
								</effect>
							</filter>
						<link>
							<linkclipref>clipitem-329</linkclipref>
							<mediatype>audio</mediatype>
							<trackindex>15</trackindex>
							<clipindex>37</clipindex>
							<groupindex>1</groupindex>
						</link>
						<link>
							<linkclipref>clipitem-337</linkclipref>
							<mediatype>audio</mediatype>
							<trackindex>16</trackindex>
							<clipindex>15</clipindex>
							<groupindex>1</groupindex>
						</link>
						<logginginfo>
							<description>NB! Avventer svar fra HP</description>
							<scene></scene>
							<shottake></shottake>
							<lognote>Purchased from 7digital.com</lognote>
						</logginginfo>
						<labels>
							<label2>Caribbean</label2>
						</labels>
					</clipitem>
					<enabled>TRUE</enabled>
					<locked>FALSE</locked>
					<outputchannelindex>2</outputchannelindex>
				</track>
			</audio>
		</media>
		<timecode>
			<rate>
				<timebase>25</timebase>
				<ntsc>FALSE</ntsc>
			</rate>
			<string>00:00:00:00</string>
			<frame>0</frame>
			<displayformat>NDF</displayformat>
		</timecode>
		<labels>
			<label2>Cerulean</label2>
		</labels>
	</sequence>
</xmeml>
